<?xml version="1.0" encoding="UTF-8" standalone="no"?>
<!DOCTYPE svg PUBLIC "-//W3C//DTD SVG 1.1//EN"
 "http://www.w3.org/Graphics/SVG/1.1/DTD/svg11.dtd">
<!-- Generated by graphviz version 2.40.1 (20161225.0304)
 -->
<!-- Title: BUSINESS_INT_XML_SUMMARY Pages: 1 -->
<svg width="296pt" height="326pt"
 viewBox="0.00 0.00 296.00 326.00" xmlns="http://www.w3.org/2000/svg" xmlns:xlink="http://www.w3.org/1999/xlink">
<g id="graph0" class="graph" transform="scale(1 1) rotate(0) translate(4 322)">
<title>BUSINESS_INT_XML_SUMMARY</title>
<polygon fill="#ffffff" stroke="transparent" points="-4,4 -4,-322 292,-322 292,4 -4,4"/>
<!-- BUSINESS_INT_XML_SUMMARY -->
<g id="node1" class="node">
<title>BUSINESS_INT_XML_SUMMARY</title>
<g id="a_node1"><a xlink:href="../../tables/BUSINESS_INT_XML_SUMMARY.html" xlink:title="BUSINESS_INT_XML_SUMMARY" target="_top">
<polygon fill="#ffffff" stroke="transparent" points="8,-4 8,-314 280,-314 280,-4 8,-4"/>
<polygon fill="#f5f5f5" stroke="transparent" points="10,-289 10,-312 278,-312 278,-289 10,-289"/>
<polygon fill="none" stroke="#000000" points="10,-289 10,-312 278,-312 278,-289 10,-289"/>
<text text-anchor="start" x="15" y="-298.1" font-family="Helvetica,sans-Serif" font-weight="bold" font-size="11.00" fill="#000000">BUSINESS_INT_XML_SUMMARY</text>
<text text-anchor="start" x="243.0437" y="-297.1" font-family="Helvetica,sans-Serif" font-size="11.00" fill="#000000">[table]</text>
<polygon fill="none" stroke="#000000" points="10,-267 10,-289 199,-289 199,-267 10,-267"/>
<image xlink:href="../../images/primaryKeys.png" width="11px" height="12px" preserveAspectRatio="xMinYMin meet" x="15" y="-284"/>
<text text-anchor="start" x="30" y="-274.1" font-family="Helvetica,sans-Serif" font-size="11.00" fill="#000000">XML_MESSAGE_ID</text>
<polygon fill="none" stroke="#000000" points="199,-267 199,-289 278,-289 278,-267 199,-267"/>
<text text-anchor="start" x="202" y="-274.7" font-family="Helvetica,sans-Serif" font-size="11.00" fill="#000000">number[38]</text>
<polygon fill="none" stroke="#000000" points="10,-245 10,-267 199,-267 199,-245 10,-245"/>
<text text-anchor="start" x="30" y="-252.1" font-family="Helvetica,sans-Serif" font-size="11.00" fill="#000000">XML_MESSAGE_NAME</text>
<polygon fill="none" stroke="#000000" points="199,-245 199,-267 278,-267 278,-245 199,-245"/>
<text text-anchor="start" x="202" y="-252.7" font-family="Helvetica,sans-Serif" font-size="11.00" fill="#000000">varchar2[100]</text>
<polygon fill="none" stroke="#000000" points="10,-223 10,-245 199,-245 199,-223 10,-223"/>
<text text-anchor="start" x="30" y="-230.1" font-family="Helvetica,sans-Serif" font-size="11.00" fill="#000000">SOURCE_TABLES</text>
<polygon fill="none" stroke="#000000" points="199,-223 199,-245 278,-245 278,-223 199,-223"/>
<text text-anchor="start" x="201.8216" y="-230.7" font-family="Helvetica,sans-Serif" font-size="11.00" fill="#000000">varchar2[4000]</text>
<polygon fill="none" stroke="#000000" points="10,-201 10,-223 199,-223 199,-201 10,-201"/>
<text text-anchor="start" x="30" y="-208.1" font-family="Helvetica,sans-Serif" font-size="11.00" fill="#000000">WHERE_CLAUSE</text>
<polygon fill="none" stroke="#000000" points="199,-201 199,-223 278,-223 278,-201 199,-201"/>
<text text-anchor="start" x="201.8216" y="-208.7" font-family="Helvetica,sans-Serif" font-size="11.00" fill="#000000">varchar2[4000]</text>
<polygon fill="none" stroke="#000000" points="10,-179 10,-201 199,-201 199,-179 10,-179"/>
<text text-anchor="start" x="30" y="-186.1" font-family="Helvetica,sans-Serif" font-size="11.00" fill="#000000">WHERE_CLAUSE1</text>
<polygon fill="none" stroke="#000000" points="199,-179 199,-201 278,-201 278,-179 199,-179"/>
<text text-anchor="start" x="201.8216" y="-186.7" font-family="Helvetica,sans-Serif" font-size="11.00" fill="#000000">varchar2[4000]</text>
<polygon fill="none" stroke="#000000" points="10,-157 10,-179 199,-179 199,-157 10,-157"/>
<text text-anchor="start" x="30" y="-164.1" font-family="Helvetica,sans-Serif" font-size="11.00" fill="#000000">HIERARCHY_LEVEL</text>
<polygon fill="none" stroke="#000000" points="199,-157 199,-179 278,-179 278,-157 199,-157"/>
<text text-anchor="start" x="202" y="-164.7" font-family="Helvetica,sans-Serif" font-size="11.00" fill="#000000">number[38]</text>
<polygon fill="none" stroke="#000000" points="10,-135 10,-157 199,-157 199,-135 10,-135"/>
<text text-anchor="start" x="30" y="-142.1" font-family="Helvetica,sans-Serif" font-size="11.00" fill="#000000">LEVEL_ORDER_BY</text>
<polygon fill="none" stroke="#000000" points="199,-135 199,-157 278,-157 278,-135 199,-135"/>
<text text-anchor="start" x="202" y="-142.7" font-family="Helvetica,sans-Serif" font-size="11.00" fill="#000000">number[38]</text>
<polygon fill="none" stroke="#000000" points="10,-113 10,-135 199,-135 199,-113 10,-113"/>
<text text-anchor="start" x="30" y="-120.1" font-family="Helvetica,sans-Serif" font-size="11.00" fill="#000000">UNIQUE_KEY</text>
<polygon fill="none" stroke="#000000" points="199,-113 199,-135 278,-135 278,-113 199,-113"/>
<text text-anchor="start" x="202" y="-120.7" font-family="Helvetica,sans-Serif" font-size="11.00" fill="#000000">varchar2[200]</text>
<polygon fill="none" stroke="#000000" points="10,-91 10,-113 199,-113 199,-91 10,-91"/>
<text text-anchor="start" x="30" y="-98.1" font-family="Helvetica,sans-Serif" font-size="11.00" fill="#000000">FK_KEY</text>
<polygon fill="none" stroke="#000000" points="199,-91 199,-113 278,-113 278,-91 199,-91"/>
<text text-anchor="start" x="202" y="-98.7" font-family="Helvetica,sans-Serif" font-size="11.00" fill="#000000">varchar2[200]</text>
<polygon fill="none" stroke="#000000" points="10,-69 10,-91 199,-91 199,-69 10,-69"/>
<text text-anchor="start" x="30" y="-76.1" font-family="Helvetica,sans-Serif" font-size="11.00" fill="#000000">PARENT_XML_MESSAGE_ID</text>
<polygon fill="none" stroke="#000000" points="199,-69 199,-91 278,-91 278,-69 199,-69"/>
<text text-anchor="start" x="202" y="-76.7" font-family="Helvetica,sans-Serif" font-size="11.00" fill="#000000">number[38]</text>
<polygon fill="none" stroke="#000000" points="10,-47 10,-69 199,-69 199,-47 10,-47"/>
<text text-anchor="start" x="30" y="-54.1" font-family="Helvetica,sans-Serif" font-size="11.00" fill="#000000">NOTES</text>
<polygon fill="none" stroke="#000000" points="199,-47 199,-69 278,-69 278,-47 199,-47"/>
<text text-anchor="start" x="201.8216" y="-54.7" font-family="Helvetica,sans-Serif" font-size="11.00" fill="#000000">varchar2[4000]</text>
<polygon fill="none" stroke="#000000" points="10,-25 10,-47 199,-47 199,-25 10,-25"/>
<image xlink:href="../../images/primaryKeys.png" width="11px" height="12px" preserveAspectRatio="xMinYMin meet" x="15" y="-42"/>
<text text-anchor="start" x="30" y="-32.1" font-family="Helvetica,sans-Serif" font-size="11.00" fill="#000000">XSD_NUMBER</text>
<polygon fill="none" stroke="#000000" points="199,-25 199,-47 278,-47 278,-25 199,-25"/>
<text text-anchor="start" x="202" y="-32.7" font-family="Helvetica,sans-Serif" font-size="11.00" fill="#000000">number[38]</text>
<polygon fill="#ffffff" stroke="transparent" points="10,-6 10,-25 93,-25 93,-6 10,-6"/>
<polygon fill="none" stroke="#000000" points="10,-6 10,-25 93,-25 93,-6 10,-6"/>
<text text-anchor="start" x="13" y="-12.1" font-family="Helvetica,sans-Serif" font-size="11.00" fill="#000000">&lt; 0</text>
<polygon fill="#ffffff" stroke="transparent" points="93,-6 93,-25 199,-25 199,-6 93,-6"/>
<polygon fill="none" stroke="#000000" points="93,-6 93,-25 199,-25 199,-6 93,-6"/>
<text text-anchor="start" x="157.4956" y="-12.1" font-family="Helvetica,sans-Serif" font-size="11.00" fill="#000000">94 rows</text>
<polygon fill="#ffffff" stroke="transparent" points="199,-6 199,-25 278,-25 278,-6 199,-6"/>
<polygon fill="none" stroke="#000000" points="199,-6 199,-25 278,-25 278,-6 199,-6"/>
<text text-anchor="start" x="259.4053" y="-12.1" font-family="Helvetica,sans-Serif" font-size="11.00" fill="#000000">0 &gt;</text>
<polygon fill="none" stroke="#000000" stroke-width="2" points="9,-5 9,-313 279,-313 279,-5 9,-5"/>
</a>
</g>
</g>
</g>
</svg>
