<?xml version="1.0" encoding="UTF-8" standalone="no"?>
<!DOCTYPE svg PUBLIC "-//W3C//DTD SVG 1.1//EN"
 "http://www.w3.org/Graphics/SVG/1.1/DTD/svg11.dtd">
<!-- Generated by graphviz version 2.40.1 (20161225.0304)
 -->
<!-- Title: CHANGE_CAPTURE_KEY Pages: 1 -->
<svg width="248pt" height="128pt"
 viewBox="0.00 0.00 248.00 128.00" xmlns="http://www.w3.org/2000/svg" xmlns:xlink="http://www.w3.org/1999/xlink">
<g id="graph0" class="graph" transform="scale(1 1) rotate(0) translate(4 124)">
<title>CHANGE_CAPTURE_KEY</title>
<polygon fill="#ffffff" stroke="transparent" points="-4,4 -4,-124 244,-124 244,4 -4,4"/>
<!-- CHANGE_CAPTURE_KEY -->
<g id="node1" class="node">
<title>CHANGE_CAPTURE_KEY</title>
<g id="a_node1"><a xlink:href="../../tables/CHANGE_CAPTURE_KEY.html" xlink:title="CHANGE_CAPTURE_KEY" target="_top">
<polygon fill="#ffffff" stroke="transparent" points="8,-4 8,-116 232,-116 232,-4 8,-4"/>
<polygon fill="#f5f5f5" stroke="transparent" points="10,-91 10,-114 230,-114 230,-91 10,-91"/>
<polygon fill="none" stroke="#000000" points="10,-91 10,-114 230,-114 230,-91 10,-91"/>
<text text-anchor="start" x="15" y="-100.1" font-family="Helvetica,sans-Serif" font-weight="bold" font-size="11.00" fill="#000000">CHANGE_CAPTURE_KEY</text>
<text text-anchor="start" x="195.0437" y="-99.1" font-family="Helvetica,sans-Serif" font-size="11.00" fill="#000000">[table]</text>
<polygon fill="none" stroke="#000000" points="10,-69 10,-91 157,-91 157,-69 10,-69"/>
<image xlink:href="../../images/primaryKeys.png" width="11px" height="12px" preserveAspectRatio="xMinYMin meet" x="15" y="-86"/>
<text text-anchor="start" x="30" y="-76.1" font-family="Helvetica,sans-Serif" font-size="11.00" fill="#000000">KEY</text>
<polygon fill="none" stroke="#000000" points="157,-69 157,-91 230,-91 230,-69 157,-69"/>
<text text-anchor="start" x="160" y="-76.7" font-family="Helvetica,sans-Serif" font-size="11.00" fill="#000000">number[38]</text>
<polygon fill="none" stroke="#000000" points="10,-47 10,-69 157,-69 157,-47 10,-47"/>
<text text-anchor="start" x="30" y="-54.1" font-family="Helvetica,sans-Serif" font-size="11.00" fill="#000000">ID_ROW</text>
<polygon fill="none" stroke="#000000" points="157,-47 157,-69 230,-69 230,-47 157,-47"/>
<text text-anchor="start" x="160" y="-54.7" font-family="Helvetica,sans-Serif" font-size="11.00" fill="#000000">number[38]</text>
<polygon fill="none" stroke="#000000" points="10,-25 10,-47 157,-47 157,-25 10,-25"/>
<text text-anchor="start" x="30" y="-32.1" font-family="Helvetica,sans-Serif" font-size="11.00" fill="#000000">CHAR_ROW</text>
<polygon fill="none" stroke="#000000" points="157,-25 157,-47 230,-47 230,-25 157,-25"/>
<text text-anchor="start" x="159.8791" y="-32.7" font-family="Helvetica,sans-Serif" font-size="11.00" fill="#000000">varchar2[100]</text>
<polygon fill="#ffffff" stroke="transparent" points="10,-6 10,-25 75,-25 75,-6 10,-6"/>
<polygon fill="none" stroke="#000000" points="10,-6 10,-25 75,-25 75,-6 10,-6"/>
<text text-anchor="start" x="13" y="-12.1" font-family="Helvetica,sans-Serif" font-size="11.00" fill="#000000">&lt; 0</text>
<polygon fill="#ffffff" stroke="transparent" points="75,-6 75,-25 157,-25 157,-6 75,-6"/>
<polygon fill="none" stroke="#000000" points="75,-6 75,-25 157,-25 157,-6 75,-6"/>
<text text-anchor="start" x="121.6105" y="-12.1" font-family="Helvetica,sans-Serif" font-size="11.00" fill="#000000">0 rows</text>
<polygon fill="#ffffff" stroke="transparent" points="157,-6 157,-25 230,-25 230,-6 157,-6"/>
<polygon fill="none" stroke="#000000" points="157,-6 157,-25 230,-25 230,-6 157,-6"/>
<text text-anchor="start" x="211.4053" y="-12.1" font-family="Helvetica,sans-Serif" font-size="11.00" fill="#000000">0 &gt;</text>
<polygon fill="none" stroke="#000000" stroke-width="2" points="9,-5 9,-115 231,-115 231,-5 9,-5"/>
</a>
</g>
</g>
</g>
</svg>
