<?xml version="1.0" encoding="UTF-8" standalone="no"?>
<!DOCTYPE svg PUBLIC "-//W3C//DTD SVG 1.1//EN"
 "http://www.w3.org/Graphics/SVG/1.1/DTD/svg11.dtd">
<!-- Generated by graphviz version 2.40.1 (20161225.0304)
 -->
<!-- Title: CHANGE_CAPTURE_HISTORY Pages: 1 -->
<svg width="279pt" height="238pt"
 viewBox="0.00 0.00 279.00 238.00" xmlns="http://www.w3.org/2000/svg" xmlns:xlink="http://www.w3.org/1999/xlink">
<g id="graph0" class="graph" transform="scale(1 1) rotate(0) translate(4 234)">
<title>CHANGE_CAPTURE_HISTORY</title>
<polygon fill="#ffffff" stroke="transparent" points="-4,4 -4,-234 275,-234 275,4 -4,4"/>
<!-- CHANGE_CAPTURE_HISTORY -->
<g id="node1" class="node">
<title>CHANGE_CAPTURE_HISTORY</title>
<g id="a_node1"><a xlink:href="../../tables/CHANGE_CAPTURE_HISTORY.html" xlink:title="CHANGE_CAPTURE_HISTORY" target="_top">
<polygon fill="#ffffff" stroke="transparent" points="8,-4 8,-226 263,-226 263,-4 8,-4"/>
<polygon fill="#f5f5f5" stroke="transparent" points="10.5,-201 10.5,-224 261.5,-224 261.5,-201 10.5,-201"/>
<polygon fill="none" stroke="#000000" points="10.5,-201 10.5,-224 261.5,-224 261.5,-201 10.5,-201"/>
<text text-anchor="start" x="15.5" y="-210.1" font-family="Helvetica,sans-Serif" font-weight="bold" font-size="11.00" fill="#000000">CHANGE_CAPTURE_HISTORY</text>
<text text-anchor="start" x="226.5437" y="-209.1" font-family="Helvetica,sans-Serif" font-size="11.00" fill="#000000">[table]</text>
<polygon fill="#ffffff" stroke="transparent" points="10.5,-179 10.5,-201 188.5,-201 188.5,-179 10.5,-179"/>
<polygon fill="none" stroke="#000000" points="10.5,-179 10.5,-201 188.5,-201 188.5,-179 10.5,-179"/>
<text text-anchor="start" x="30.5" y="-186.1" font-family="Helvetica,sans-Serif" font-size="11.00" fill="#000000">CHANGE_CAPTURE_ID</text>
<polygon fill="none" stroke="#000000" points="188.5,-179 188.5,-201 261.5,-201 261.5,-179 188.5,-179"/>
<text text-anchor="start" x="191.5" y="-186.7" font-family="Helvetica,sans-Serif" font-size="11.00" fill="#000000">number[38]</text>
<polygon fill="none" stroke="#000000" points="10.5,-157 10.5,-179 188.5,-179 188.5,-157 10.5,-157"/>
<text text-anchor="start" x="23.8911" y="-164.1" font-family="Helvetica,sans-Serif" font-size="11.00" fill="#000000">CHANGE_CAPTURE_BATCH_ID</text>
<polygon fill="none" stroke="#000000" points="188.5,-157 188.5,-179 261.5,-179 261.5,-157 188.5,-157"/>
<text text-anchor="start" x="191.5" y="-164.7" font-family="Helvetica,sans-Serif" font-size="11.00" fill="#000000">number[38]</text>
<polygon fill="#ffffff" stroke="transparent" points="10.5,-135 10.5,-157 188.5,-157 188.5,-135 10.5,-135"/>
<polygon fill="none" stroke="#000000" points="10.5,-135 10.5,-157 188.5,-157 188.5,-135 10.5,-135"/>
<text text-anchor="start" x="30.5" y="-142.1" font-family="Helvetica,sans-Serif" font-size="11.00" fill="#000000">SOURCE_TABLE</text>
<polygon fill="none" stroke="#000000" points="188.5,-135 188.5,-157 261.5,-157 261.5,-135 188.5,-135"/>
<text text-anchor="start" x="191.5" y="-142.7" font-family="Helvetica,sans-Serif" font-size="11.00" fill="#000000">varchar2[32]</text>
<polygon fill="#ffffff" stroke="transparent" points="10.5,-113 10.5,-135 188.5,-135 188.5,-113 10.5,-113"/>
<polygon fill="none" stroke="#000000" points="10.5,-113 10.5,-135 188.5,-135 188.5,-113 10.5,-113"/>
<text text-anchor="start" x="30.5" y="-120.1" font-family="Helvetica,sans-Serif" font-size="11.00" fill="#000000">SOURCE_TABLE_KEY</text>
<polygon fill="none" stroke="#000000" points="188.5,-113 188.5,-135 261.5,-135 261.5,-113 188.5,-113"/>
<text text-anchor="start" x="191.3791" y="-120.7" font-family="Helvetica,sans-Serif" font-size="11.00" fill="#000000">varchar2[200]</text>
<polygon fill="none" stroke="#000000" points="10.5,-91 10.5,-113 188.5,-113 188.5,-91 10.5,-91"/>
<text text-anchor="start" x="30.5" y="-98.1" font-family="Helvetica,sans-Serif" font-size="11.00" fill="#000000">SOURCE_TABLE_ROWID</text>
<polygon fill="none" stroke="#000000" points="188.5,-91 188.5,-113 261.5,-113 261.5,-91 188.5,-91"/>
<text text-anchor="start" x="191.5" y="-98.7" font-family="Helvetica,sans-Serif" font-size="11.00" fill="#000000">rowid[10]</text>
<polygon fill="none" stroke="#000000" points="10.5,-69 10.5,-91 188.5,-91 188.5,-69 10.5,-69"/>
<text text-anchor="start" x="30.5" y="-76.1" font-family="Helvetica,sans-Serif" font-size="11.00" fill="#000000">ACTION</text>
<polygon fill="none" stroke="#000000" points="188.5,-69 188.5,-91 261.5,-91 261.5,-69 188.5,-69"/>
<text text-anchor="start" x="191.5" y="-76.7" font-family="Helvetica,sans-Serif" font-size="11.00" fill="#000000">char[1]</text>
<polygon fill="#ffffff" stroke="transparent" points="10.5,-47 10.5,-69 188.5,-69 188.5,-47 10.5,-47"/>
<polygon fill="none" stroke="#000000" points="10.5,-47 10.5,-69 188.5,-69 188.5,-47 10.5,-47"/>
<text text-anchor="start" x="30.5" y="-54.1" font-family="Helvetica,sans-Serif" font-size="11.00" fill="#000000">PROCESSED_FLAG</text>
<polygon fill="none" stroke="#000000" points="188.5,-47 188.5,-69 261.5,-69 261.5,-47 188.5,-47"/>
<text text-anchor="start" x="191.5" y="-54.7" font-family="Helvetica,sans-Serif" font-size="11.00" fill="#000000">char[1]</text>
<polygon fill="none" stroke="#000000" points="10.5,-25 10.5,-47 188.5,-47 188.5,-25 10.5,-25"/>
<text text-anchor="start" x="30.5" y="-32.1" font-family="Helvetica,sans-Serif" font-size="11.00" fill="#000000">ROW_VERSION</text>
<polygon fill="none" stroke="#000000" points="188.5,-25 188.5,-47 261.5,-47 261.5,-25 188.5,-25"/>
<text text-anchor="start" x="191.5" y="-32.7" font-family="Helvetica,sans-Serif" font-size="11.00" fill="#000000">number[38]</text>
<polygon fill="#ffffff" stroke="transparent" points="10.5,-6 10.5,-25 90.5,-25 90.5,-6 10.5,-6"/>
<polygon fill="none" stroke="#000000" points="10.5,-6 10.5,-25 90.5,-25 90.5,-6 10.5,-6"/>
<text text-anchor="start" x="13.5" y="-12.1" font-family="Helvetica,sans-Serif" font-size="11.00" fill="#000000">&lt; 0</text>
<polygon fill="#ffffff" stroke="transparent" points="90.5,-6 90.5,-25 188.5,-25 188.5,-6 90.5,-6"/>
<polygon fill="none" stroke="#000000" points="90.5,-6 90.5,-25 188.5,-25 188.5,-6 90.5,-6"/>
<text text-anchor="start" x="153.1105" y="-12.1" font-family="Helvetica,sans-Serif" font-size="11.00" fill="#000000">0 rows</text>
<polygon fill="#ffffff" stroke="transparent" points="188.5,-6 188.5,-25 261.5,-25 261.5,-6 188.5,-6"/>
<polygon fill="none" stroke="#000000" points="188.5,-6 188.5,-25 261.5,-25 261.5,-6 188.5,-6"/>
<text text-anchor="start" x="242.9053" y="-12.1" font-family="Helvetica,sans-Serif" font-size="11.00" fill="#000000">0 &gt;</text>
<polygon fill="none" stroke="#000000" stroke-width="2" points="9,-5 9,-225 262,-225 262,-5 9,-5"/>
</a>
</g>
</g>
</g>
</svg>
