<?xml version="1.0" encoding="UTF-8" standalone="no"?>
<!DOCTYPE svg PUBLIC "-//W3C//DTD SVG 1.1//EN"
 "http://www.w3.org/Graphics/SVG/1.1/DTD/svg11.dtd">
<!-- Generated by graphviz version 2.40.1 (20161225.0304)
 -->
<!-- Title: CONTACT_ES_STATUS Pages: 1 -->
<svg width="275pt" height="260pt"
 viewBox="0.00 0.00 275.00 260.00" xmlns="http://www.w3.org/2000/svg" xmlns:xlink="http://www.w3.org/1999/xlink">
<g id="graph0" class="graph" transform="scale(1 1) rotate(0) translate(4 256)">
<title>CONTACT_ES_STATUS</title>
<polygon fill="#ffffff" stroke="transparent" points="-4,4 -4,-256 271,-256 271,4 -4,4"/>
<!-- CONTACT_ES_STATUS -->
<g id="node1" class="node">
<title>CONTACT_ES_STATUS</title>
<g id="a_node1"><a xlink:href="../../tables/CONTACT_ES_STATUS.html" xlink:title="CONTACT_ES_STATUS" target="_top">
<polygon fill="#ffffff" stroke="transparent" points="8,-4 8,-248 259,-248 259,-4 8,-4"/>
<polygon fill="#f5f5f5" stroke="transparent" points="10.5,-223 10.5,-246 257.5,-246 257.5,-223 10.5,-223"/>
<polygon fill="none" stroke="#000000" points="10.5,-223 10.5,-246 257.5,-246 257.5,-223 10.5,-223"/>
<text text-anchor="start" x="15.5" y="-232.1" font-family="Helvetica,sans-Serif" font-weight="bold" font-size="11.00" fill="#000000">CONTACT_ES_STATUS</text>
<text text-anchor="start" x="222.5437" y="-231.1" font-family="Helvetica,sans-Serif" font-size="11.00" fill="#000000">[table]</text>
<polygon fill="none" stroke="#000000" points="10.5,-201 10.5,-223 178.5,-223 178.5,-201 10.5,-201"/>
<image xlink:href="../../images/primaryKeys.png" width="11px" height="12px" preserveAspectRatio="xMinYMin meet" x="15.5" y="-218"/>
<text text-anchor="start" x="30.5" y="-208.1" font-family="Helvetica,sans-Serif" font-size="11.00" fill="#000000">CONTACT_ID</text>
<polygon fill="none" stroke="#000000" points="178.5,-201 178.5,-223 257.5,-223 257.5,-201 178.5,-201"/>
<text text-anchor="start" x="181.5" y="-208.7" font-family="Helvetica,sans-Serif" font-size="11.00" fill="#000000">number[38]</text>
<polygon fill="none" stroke="#000000" points="10.5,-179 10.5,-201 178.5,-201 178.5,-179 10.5,-179"/>
<image xlink:href="../../images/primaryKeys.png" width="11px" height="12px" preserveAspectRatio="xMinYMin meet" x="15.5" y="-196"/>
<text text-anchor="start" x="30.5" y="-186.1" font-family="Helvetica,sans-Serif" font-size="11.00" fill="#000000">OFFENDER_ID</text>
<polygon fill="none" stroke="#000000" points="178.5,-179 178.5,-201 257.5,-201 257.5,-179 178.5,-179"/>
<text text-anchor="start" x="181.5" y="-186.7" font-family="Helvetica,sans-Serif" font-size="11.00" fill="#000000">number[38]</text>
<polygon fill="none" stroke="#000000" points="10.5,-157 10.5,-179 178.5,-179 178.5,-157 10.5,-157"/>
<text text-anchor="start" x="28.0531" y="-164.1" font-family="Helvetica,sans-Serif" font-size="11.00" fill="#000000">LAST_UPDATED_DATETIME</text>
<polygon fill="none" stroke="#000000" points="178.5,-157 178.5,-179 257.5,-179 257.5,-157 178.5,-157"/>
<text text-anchor="start" x="181.5" y="-164.7" font-family="Helvetica,sans-Serif" font-size="11.00" fill="#000000">date[7]</text>
<polygon fill="none" stroke="#000000" points="10.5,-135 10.5,-157 178.5,-157 178.5,-135 10.5,-135"/>
<text text-anchor="start" x="30.5" y="-142.1" font-family="Helvetica,sans-Serif" font-size="11.00" fill="#000000">ROW_VERSION</text>
<polygon fill="none" stroke="#000000" points="178.5,-135 178.5,-157 257.5,-157 257.5,-135 178.5,-135"/>
<text text-anchor="start" x="181.5" y="-142.7" font-family="Helvetica,sans-Serif" font-size="11.00" fill="#000000">number[38]</text>
<polygon fill="none" stroke="#000000" points="10.5,-113 10.5,-135 178.5,-135 178.5,-113 10.5,-113"/>
<text text-anchor="start" x="30.5" y="-120.1" font-family="Helvetica,sans-Serif" font-size="11.00" fill="#000000">LAST_DATE_VALIDATED</text>
<polygon fill="none" stroke="#000000" points="178.5,-113 178.5,-135 257.5,-135 257.5,-113 178.5,-113"/>
<text text-anchor="start" x="181.5" y="-120.7" font-family="Helvetica,sans-Serif" font-size="11.00" fill="#000000">date[7]</text>
<polygon fill="none" stroke="#000000" points="10.5,-91 10.5,-113 178.5,-113 178.5,-91 10.5,-91"/>
<text text-anchor="start" x="30.5" y="-98.1" font-family="Helvetica,sans-Serif" font-size="11.00" fill="#000000">PROCESS_STATUS</text>
<polygon fill="none" stroke="#000000" points="178.5,-91 178.5,-113 257.5,-113 257.5,-91 178.5,-91"/>
<text text-anchor="start" x="181.5" y="-98.7" font-family="Helvetica,sans-Serif" font-size="11.00" fill="#000000">number[38]</text>
<polygon fill="none" stroke="#000000" points="10.5,-69 10.5,-91 178.5,-91 178.5,-69 10.5,-69"/>
<text text-anchor="start" x="24.0826" y="-76.1" font-family="Helvetica,sans-Serif" font-size="11.00" fill="#000000">STATUS_UPDATE_DATETIME</text>
<polygon fill="none" stroke="#000000" points="178.5,-69 178.5,-91 257.5,-91 257.5,-69 178.5,-69"/>
<text text-anchor="start" x="181.5" y="-76.7" font-family="Helvetica,sans-Serif" font-size="11.00" fill="#000000">date[7]</text>
<polygon fill="none" stroke="#000000" points="10.5,-47 10.5,-69 178.5,-69 178.5,-47 10.5,-47"/>
<text text-anchor="start" x="30.5" y="-54.1" font-family="Helvetica,sans-Serif" font-size="11.00" fill="#000000">FAILED_MESSAGE</text>
<polygon fill="none" stroke="#000000" points="178.5,-47 178.5,-69 257.5,-69 257.5,-47 178.5,-47"/>
<text text-anchor="start" x="181.3216" y="-54.7" font-family="Helvetica,sans-Serif" font-size="11.00" fill="#000000">varchar2[4000]</text>
<polygon fill="none" stroke="#000000" points="10.5,-25 10.5,-47 178.5,-47 178.5,-25 10.5,-25"/>
<text text-anchor="start" x="30.5" y="-32.1" font-family="Helvetica,sans-Serif" font-size="11.00" fill="#000000">FAILED_JMESSAGE</text>
<polygon fill="none" stroke="#000000" points="178.5,-25 178.5,-47 257.5,-47 257.5,-25 178.5,-25"/>
<text text-anchor="start" x="181.5" y="-32.7" font-family="Helvetica,sans-Serif" font-size="11.00" fill="#000000">clob[4000]</text>
<polygon fill="#ffffff" stroke="transparent" points="10.5,-6 10.5,-25 75.5,-25 75.5,-6 10.5,-6"/>
<polygon fill="none" stroke="#000000" points="10.5,-6 10.5,-25 75.5,-25 75.5,-6 10.5,-6"/>
<text text-anchor="start" x="13.5" y="-12.1" font-family="Helvetica,sans-Serif" font-size="11.00" fill="#000000">&lt; 0</text>
<polygon fill="#ffffff" stroke="transparent" points="75.5,-6 75.5,-25 178.5,-25 178.5,-6 75.5,-6"/>
<polygon fill="none" stroke="#000000" points="75.5,-6 75.5,-25 178.5,-25 178.5,-6 75.5,-6"/>
<text text-anchor="start" x="121.7089" y="-12.1" font-family="Helvetica,sans-Serif" font-size="11.00" fill="#000000">8,449 rows</text>
<polygon fill="#ffffff" stroke="transparent" points="178.5,-6 178.5,-25 257.5,-25 257.5,-6 178.5,-6"/>
<polygon fill="none" stroke="#000000" points="178.5,-6 178.5,-25 257.5,-25 257.5,-6 178.5,-6"/>
<text text-anchor="start" x="238.9053" y="-12.1" font-family="Helvetica,sans-Serif" font-size="11.00" fill="#000000">0 &gt;</text>
<polygon fill="none" stroke="#000000" stroke-width="2" points="9,-5 9,-247 258,-247 258,-5 9,-5"/>
</a>
</g>
</g>
</g>
</svg>
