<?xml version="1.0" encoding="UTF-8" standalone="no"?>
<!DOCTYPE svg PUBLIC "-//W3C//DTD SVG 1.1//EN"
 "http://www.w3.org/Graphics/SVG/1.1/DTD/svg11.dtd">
<!-- Generated by graphviz version 2.40.1 (20161225.0304)
 -->
<!-- Title: CONTACT_ES_SINGLE_Q Pages: 1 -->
<svg width="255pt" height="282pt"
 viewBox="0.00 0.00 255.00 282.00" xmlns="http://www.w3.org/2000/svg" xmlns:xlink="http://www.w3.org/1999/xlink">
<g id="graph0" class="graph" transform="scale(1 1) rotate(0) translate(4 278)">
<title>CONTACT_ES_SINGLE_Q</title>
<polygon fill="#ffffff" stroke="transparent" points="-4,4 -4,-278 251,-278 251,4 -4,4"/>
<!-- CONTACT_ES_SINGLE_Q -->
<g id="node1" class="node">
<title>CONTACT_ES_SINGLE_Q</title>
<g id="a_node1"><a xlink:href="../../tables/CONTACT_ES_SINGLE_Q.html" xlink:title="CONTACT_ES_SINGLE_Q" target="_top">
<polygon fill="#ffffff" stroke="transparent" points="8,-4 8,-270 239,-270 239,-4 8,-4"/>
<polygon fill="#f5f5f5" stroke="transparent" points="10.5,-245 10.5,-268 237.5,-268 237.5,-245 10.5,-245"/>
<polygon fill="none" stroke="#000000" points="10.5,-245 10.5,-268 237.5,-268 237.5,-245 10.5,-245"/>
<text text-anchor="start" x="15.5" y="-254.1" font-family="Helvetica,sans-Serif" font-weight="bold" font-size="11.00" fill="#000000">CONTACT_ES_SINGLE_Q</text>
<text text-anchor="start" x="202.5437" y="-253.1" font-family="Helvetica,sans-Serif" font-size="11.00" fill="#000000">[table]</text>
<polygon fill="none" stroke="#000000" points="10.5,-223 10.5,-245 176.5,-245 176.5,-223 10.5,-223"/>
<image xlink:href="../../images/primaryKeys.png" width="11px" height="12px" preserveAspectRatio="xMinYMin meet" x="15.5" y="-240"/>
<text text-anchor="start" x="24.9086" y="-230.1" font-family="Helvetica,sans-Serif" font-size="11.00" fill="#000000">CONTACT_ES_SINGLE_Q_ID</text>
<polygon fill="none" stroke="#000000" points="176.5,-223 176.5,-245 237.5,-245 237.5,-223 176.5,-223"/>
<text text-anchor="start" x="179.1865" y="-230.7" font-family="Helvetica,sans-Serif" font-size="11.00" fill="#000000">number[38]</text>
<polygon fill="none" stroke="#000000" points="10.5,-201 10.5,-223 176.5,-223 176.5,-201 10.5,-201"/>
<image xlink:href="../../images/primaryKeys.png" width="11px" height="12px" preserveAspectRatio="xMinYMin meet" x="15.5" y="-218"/>
<text text-anchor="start" x="30.5" y="-208.1" font-family="Helvetica,sans-Serif" font-size="11.00" fill="#000000">CONTACT_ID</text>
<polygon fill="none" stroke="#000000" points="176.5,-201 176.5,-223 237.5,-223 237.5,-201 176.5,-201"/>
<text text-anchor="start" x="179.1865" y="-208.7" font-family="Helvetica,sans-Serif" font-size="11.00" fill="#000000">number[38]</text>
<polygon fill="none" stroke="#000000" points="10.5,-179 10.5,-201 176.5,-201 176.5,-179 10.5,-179"/>
<image xlink:href="../../images/primaryKeys.png" width="11px" height="12px" preserveAspectRatio="xMinYMin meet" x="15.5" y="-196"/>
<text text-anchor="start" x="30.5" y="-186.1" font-family="Helvetica,sans-Serif" font-size="11.00" fill="#000000">OFFENDER_ID</text>
<polygon fill="none" stroke="#000000" points="176.5,-179 176.5,-201 237.5,-201 237.5,-179 176.5,-179"/>
<text text-anchor="start" x="179.1865" y="-186.7" font-family="Helvetica,sans-Serif" font-size="11.00" fill="#000000">number[38]</text>
<polygon fill="none" stroke="#000000" points="10.5,-157 10.5,-179 176.5,-179 176.5,-157 10.5,-157"/>
<text text-anchor="start" x="27.0531" y="-164.1" font-family="Helvetica,sans-Serif" font-size="11.00" fill="#000000">LAST_UPDATED_DATETIME</text>
<polygon fill="none" stroke="#000000" points="176.5,-157 176.5,-179 237.5,-179 237.5,-157 176.5,-157"/>
<text text-anchor="start" x="179.5" y="-164.7" font-family="Helvetica,sans-Serif" font-size="11.00" fill="#000000">date[7]</text>
<polygon fill="none" stroke="#000000" points="10.5,-135 10.5,-157 176.5,-157 176.5,-135 10.5,-135"/>
<text text-anchor="start" x="30.5" y="-142.1" font-family="Helvetica,sans-Serif" font-size="11.00" fill="#000000">ACTION</text>
<polygon fill="none" stroke="#000000" points="176.5,-135 176.5,-157 237.5,-157 237.5,-135 176.5,-135"/>
<text text-anchor="start" x="179.5" y="-142.7" font-family="Helvetica,sans-Serif" font-size="11.00" fill="#000000">char[1]</text>
<polygon fill="none" stroke="#000000" points="10.5,-113 10.5,-135 176.5,-135 176.5,-113 10.5,-113"/>
<text text-anchor="start" x="30.5" y="-120.1" font-family="Helvetica,sans-Serif" font-size="11.00" fill="#000000">ROW_VERSION</text>
<polygon fill="none" stroke="#000000" points="176.5,-113 176.5,-135 237.5,-135 237.5,-113 176.5,-113"/>
<text text-anchor="start" x="179.1865" y="-120.7" font-family="Helvetica,sans-Serif" font-size="11.00" fill="#000000">number[38]</text>
<polygon fill="none" stroke="#000000" points="10.5,-91 10.5,-113 176.5,-113 176.5,-91 10.5,-91"/>
<text text-anchor="start" x="30.5" y="-98.1" font-family="Helvetica,sans-Serif" font-size="11.00" fill="#000000">PRIORITY</text>
<polygon fill="none" stroke="#000000" points="176.5,-91 176.5,-113 237.5,-113 237.5,-91 176.5,-91"/>
<text text-anchor="start" x="179.1865" y="-98.7" font-family="Helvetica,sans-Serif" font-size="11.00" fill="#000000">number[38]</text>
<polygon fill="none" stroke="#000000" points="10.5,-69 10.5,-91 176.5,-91 176.5,-69 10.5,-69"/>
<text text-anchor="start" x="25.5241" y="-76.1" font-family="Helvetica,sans-Serif" font-size="11.00" fill="#000000">NEXT_PROCESS_DATETIME</text>
<polygon fill="none" stroke="#000000" points="176.5,-69 176.5,-91 237.5,-91 237.5,-69 176.5,-69"/>
<text text-anchor="start" x="179.5" y="-76.7" font-family="Helvetica,sans-Serif" font-size="11.00" fill="#000000">date[7]</text>
<polygon fill="none" stroke="#000000" points="10.5,-47 10.5,-69 176.5,-69 176.5,-47 10.5,-47"/>
<text text-anchor="start" x="30.5" y="-54.1" font-family="Helvetica,sans-Serif" font-size="11.00" fill="#000000">FAIL_COUNT</text>
<polygon fill="none" stroke="#000000" points="176.5,-47 176.5,-69 237.5,-69 237.5,-47 176.5,-47"/>
<text text-anchor="start" x="179.1865" y="-54.7" font-family="Helvetica,sans-Serif" font-size="11.00" fill="#000000">number[38]</text>
<polygon fill="none" stroke="#000000" points="10.5,-25 10.5,-47 176.5,-47 176.5,-25 10.5,-25"/>
<text text-anchor="start" x="30.5" y="-32.1" font-family="Helvetica,sans-Serif" font-size="11.00" fill="#000000">FAIL_ERROR</text>
<polygon fill="none" stroke="#000000" points="176.5,-25 176.5,-47 237.5,-47 237.5,-25 176.5,-25"/>
<text text-anchor="start" x="179.5" y="-32.7" font-family="Helvetica,sans-Serif" font-size="11.00" fill="#000000">clob[4000]</text>
<polygon fill="#ffffff" stroke="transparent" points="10.5,-6 10.5,-25 81.5,-25 81.5,-6 10.5,-6"/>
<polygon fill="none" stroke="#000000" points="10.5,-6 10.5,-25 81.5,-25 81.5,-6 10.5,-6"/>
<text text-anchor="start" x="13.5" y="-12.1" font-family="Helvetica,sans-Serif" font-size="11.00" fill="#000000">&lt; 0</text>
<polygon fill="#ffffff" stroke="transparent" points="81.5,-6 81.5,-25 176.5,-25 176.5,-6 81.5,-6"/>
<polygon fill="none" stroke="#000000" points="81.5,-6 81.5,-25 176.5,-25 176.5,-6 81.5,-6"/>
<text text-anchor="start" x="134.9956" y="-12.1" font-family="Helvetica,sans-Serif" font-size="11.00" fill="#000000">36 rows</text>
<polygon fill="#ffffff" stroke="transparent" points="176.5,-6 176.5,-25 237.5,-25 237.5,-6 176.5,-6"/>
<polygon fill="none" stroke="#000000" points="176.5,-6 176.5,-25 237.5,-25 237.5,-6 176.5,-6"/>
<text text-anchor="start" x="218.9053" y="-12.1" font-family="Helvetica,sans-Serif" font-size="11.00" fill="#000000">0 &gt;</text>
<polygon fill="none" stroke="#000000" stroke-width="2" points="9,-5 9,-269 238,-269 238,-5 9,-5"/>
</a>
</g>
</g>
</g>
</svg>
