<?xml version="1.0" encoding="UTF-8" standalone="no"?>
<!DOCTYPE svg PUBLIC "-//W3C//DTD SVG 1.1//EN"
 "http://www.w3.org/Graphics/SVG/1.1/DTD/svg11.dtd">
<!-- Generated by graphviz version 2.40.1 (20161225.0304)
 -->
<!-- Title: DJR Pages: 1 -->
<svg width="154pt" height="84pt"
 viewBox="0.00 0.00 154.00 84.00" xmlns="http://www.w3.org/2000/svg" xmlns:xlink="http://www.w3.org/1999/xlink">
<g id="graph0" class="graph" transform="scale(1 1) rotate(0) translate(4 80)">
<title>DJR</title>
<polygon fill="#ffffff" stroke="transparent" points="-4,4 -4,-80 150,-80 150,4 -4,4"/>
<!-- DJR -->
<g id="node1" class="node">
<title>DJR</title>
<g id="a_node1"><a xlink:href="../../tables/DJR.html" xlink:title="DJR" target="_top">
<polygon fill="#ffffff" stroke="transparent" points="8,-4 8,-72 138,-72 138,-4 8,-4"/>
<polygon fill="#f5f5f5" stroke="transparent" points="10,-47 10,-70 136,-70 136,-47 10,-47"/>
<polygon fill="none" stroke="#000000" points="10,-47 10,-70 136,-70 136,-47 10,-47"/>
<text text-anchor="start" x="15" y="-56.1" font-family="Helvetica,sans-Serif" font-weight="bold" font-size="11.00" fill="#000000">DJR</text>
<text text-anchor="start" x="101.0437" y="-55.1" font-family="Helvetica,sans-Serif" font-size="11.00" fill="#000000">[table]</text>
<polygon fill="none" stroke="#000000" points="10,-25 10,-47 69,-47 69,-25 10,-25"/>
<text text-anchor="start" x="27.9448" y="-32.1" font-family="Helvetica,sans-Serif" font-size="11.00" fill="#000000">XNAME</text>
<polygon fill="none" stroke="#000000" points="69,-25 69,-47 136,-47 136,-25 69,-25"/>
<text text-anchor="start" x="71.9365" y="-32.7" font-family="Helvetica,sans-Serif" font-size="11.00" fill="#000000">varchar2[20]</text>
<polygon fill="#ffffff" stroke="transparent" points="10,-6 10,-25 31,-25 31,-6 10,-6"/>
<polygon fill="none" stroke="#000000" points="10,-6 10,-25 31,-25 31,-6 10,-6"/>
<text text-anchor="start" x="12.7027" y="-12.1" font-family="Helvetica,sans-Serif" font-size="11.00" fill="#000000">&lt; 0</text>
<polygon fill="#ffffff" stroke="transparent" points="31,-6 31,-25 69,-25 69,-6 31,-6"/>
<polygon fill="none" stroke="#000000" points="31,-6 31,-25 69,-25 69,-6 31,-6"/>
<text text-anchor="start" x="33.8053" y="-12.1" font-family="Helvetica,sans-Serif" font-size="11.00" fill="#000000">0 rows</text>
<polygon fill="#ffffff" stroke="transparent" points="69,-6 69,-25 136,-25 136,-6 69,-6"/>
<polygon fill="none" stroke="#000000" points="69,-6 69,-25 136,-25 136,-6 69,-6"/>
<text text-anchor="start" x="117.4053" y="-12.1" font-family="Helvetica,sans-Serif" font-size="11.00" fill="#000000">0 &gt;</text>
<polygon fill="none" stroke="#000000" stroke-width="2" points="9,-5 9,-71 137,-71 137,-5 9,-5"/>
</a>
</g>
</g>
</g>
</svg>
