<?xml version="1.0" encoding="UTF-8" standalone="no"?>
<!DOCTYPE svg PUBLIC "-//W3C//DTD SVG 1.1//EN"
 "http://www.w3.org/Graphics/SVG/1.1/DTD/svg11.dtd">
<!-- Generated by graphviz version 2.40.1 (20161225.0304)
 -->
<!-- Title: DMS_MESSAGE_LOG Pages: 1 -->
<svg width="298pt" height="282pt"
 viewBox="0.00 0.00 298.00 282.00" xmlns="http://www.w3.org/2000/svg" xmlns:xlink="http://www.w3.org/1999/xlink">
<g id="graph0" class="graph" transform="scale(1 1) rotate(0) translate(4 278)">
<title>DMS_MESSAGE_LOG</title>
<polygon fill="#ffffff" stroke="transparent" points="-4,4 -4,-278 294,-278 294,4 -4,4"/>
<!-- DMS_MESSAGE_LOG -->
<g id="node1" class="node">
<title>DMS_MESSAGE_LOG</title>
<g id="a_node1"><a xlink:href="../../tables/DMS_MESSAGE_LOG.html" xlink:title="DMS_MESSAGE_LOG" target="_top">
<polygon fill="#ffffff" stroke="transparent" points="8,-4 8,-270 282,-270 282,-4 8,-4"/>
<polygon fill="#f5f5f5" stroke="transparent" points="10,-245 10,-268 280,-268 280,-245 10,-245"/>
<polygon fill="none" stroke="#000000" points="10,-245 10,-268 280,-268 280,-245 10,-245"/>
<text text-anchor="start" x="15" y="-254.1" font-family="Helvetica,sans-Serif" font-weight="bold" font-size="11.00" fill="#000000">DMS_MESSAGE_LOG</text>
<text text-anchor="start" x="245.0437" y="-253.1" font-family="Helvetica,sans-Serif" font-size="11.00" fill="#000000">[table]</text>
<polygon fill="none" stroke="#000000" points="10,-223 10,-245 183,-245 183,-223 10,-223"/>
<image xlink:href="../../images/primaryKeys.png" width="11px" height="12px" preserveAspectRatio="xMinYMin meet" x="15" y="-240"/>
<text text-anchor="start" x="30" y="-230.1" font-family="Helvetica,sans-Serif" font-size="11.00" fill="#000000">DMS_MESSAGE_LOG_ID</text>
<polygon fill="none" stroke="#000000" points="183,-223 183,-245 280,-245 280,-223 183,-223"/>
<text text-anchor="start" x="186" y="-230.7" font-family="Helvetica,sans-Serif" font-size="11.00" fill="#000000">number[22]</text>
<polygon fill="none" stroke="#000000" points="10,-201 10,-223 183,-223 183,-201 10,-201"/>
<text text-anchor="start" x="26.3845" y="-208.1" font-family="Helvetica,sans-Serif" font-size="11.00" fill="#000000">DMS_MESSAGE_TIMESTAMP</text>
<polygon fill="none" stroke="#000000" points="183,-201 183,-223 280,-223 280,-201 183,-201"/>
<text text-anchor="start" x="185.6614" y="-208.7" font-family="Helvetica,sans-Serif" font-size="11.00" fill="#000000">timestamp(6)[11,6]</text>
<polygon fill="none" stroke="#000000" points="10,-179 10,-201 183,-201 183,-179 10,-179"/>
<text text-anchor="start" x="30" y="-186.1" font-family="Helvetica,sans-Serif" font-size="11.00" fill="#000000">DMS_MESSAGE_TYPE</text>
<polygon fill="none" stroke="#000000" points="183,-179 183,-201 280,-201 280,-179 183,-179"/>
<text text-anchor="start" x="186" y="-186.7" font-family="Helvetica,sans-Serif" font-size="11.00" fill="#000000">varchar2[30]</text>
<polygon fill="none" stroke="#000000" points="10,-157 10,-179 183,-179 183,-157 10,-157"/>
<text text-anchor="start" x="30" y="-164.1" font-family="Helvetica,sans-Serif" font-size="11.00" fill="#000000">DMS_COMPONENT_CODE</text>
<polygon fill="none" stroke="#000000" points="183,-157 183,-179 280,-179 280,-157 183,-157"/>
<text text-anchor="start" x="186" y="-164.7" font-family="Helvetica,sans-Serif" font-size="11.00" fill="#000000">varchar2[30]</text>
<polygon fill="none" stroke="#000000" points="10,-135 10,-157 183,-157 183,-135 10,-135"/>
<text text-anchor="start" x="30" y="-142.1" font-family="Helvetica,sans-Serif" font-size="11.00" fill="#000000">DMS_PACKAGE_NAME</text>
<polygon fill="none" stroke="#000000" points="183,-135 183,-157 280,-157 280,-135 183,-135"/>
<text text-anchor="start" x="186" y="-142.7" font-family="Helvetica,sans-Serif" font-size="11.00" fill="#000000">varchar2[30]</text>
<polygon fill="none" stroke="#000000" points="10,-113 10,-135 183,-135 183,-113 10,-113"/>
<text text-anchor="start" x="30" y="-120.1" font-family="Helvetica,sans-Serif" font-size="11.00" fill="#000000">DMS_PROCEDURE_NAME</text>
<polygon fill="none" stroke="#000000" points="183,-113 183,-135 280,-135 280,-113 183,-113"/>
<text text-anchor="start" x="186" y="-120.7" font-family="Helvetica,sans-Serif" font-size="11.00" fill="#000000">varchar2[30]</text>
<polygon fill="none" stroke="#000000" points="10,-91 10,-113 183,-113 183,-91 10,-91"/>
<text text-anchor="start" x="30" y="-98.1" font-family="Helvetica,sans-Serif" font-size="11.00" fill="#000000">DMS_PROCEDURE_LABEL</text>
<polygon fill="none" stroke="#000000" points="183,-91 183,-113 280,-113 280,-91 183,-91"/>
<text text-anchor="start" x="186" y="-98.7" font-family="Helvetica,sans-Serif" font-size="11.00" fill="#000000">varchar2[10]</text>
<polygon fill="none" stroke="#000000" points="10,-69 10,-91 183,-91 183,-69 10,-69"/>
<text text-anchor="start" x="30" y="-76.1" font-family="Helvetica,sans-Serif" font-size="11.00" fill="#000000">MESSAGE_TEXT</text>
<polygon fill="none" stroke="#000000" points="183,-69 183,-91 280,-91 280,-69 183,-69"/>
<text text-anchor="start" x="186" y="-76.7" font-family="Helvetica,sans-Serif" font-size="11.00" fill="#000000">clob[4000]</text>
<polygon fill="none" stroke="#000000" points="10,-47 10,-69 183,-69 183,-47 10,-47"/>
<image xlink:href="../../images/foreignKeys.png" width="11px" height="12px" preserveAspectRatio="xMinYMin meet" x="15" y="-64"/>
<text text-anchor="start" x="30" y="-54.1" font-family="Helvetica,sans-Serif" font-size="11.00" fill="#000000">DMS_ERROR_LOG_ID</text>
<polygon fill="none" stroke="#000000" points="183,-47 183,-69 280,-69 280,-47 183,-47"/>
<text text-anchor="start" x="186" y="-54.7" font-family="Helvetica,sans-Serif" font-size="11.00" fill="#000000">number[22]</text>
<polygon fill="none" stroke="#000000" points="10,-25 10,-47 183,-47 183,-25 10,-25"/>
<text text-anchor="start" x="30" y="-32.1" font-family="Helvetica,sans-Serif" font-size="11.00" fill="#000000">INSTANCE_ID</text>
<polygon fill="none" stroke="#000000" points="183,-25 183,-47 280,-47 280,-25 183,-25"/>
<text text-anchor="start" x="186" y="-32.7" font-family="Helvetica,sans-Serif" font-size="11.00" fill="#000000">number[22]</text>
<polygon fill="#ffffff" stroke="transparent" points="10,-6 10,-25 85,-25 85,-6 10,-6"/>
<polygon fill="none" stroke="#000000" points="10,-6 10,-25 85,-25 85,-6 10,-6"/>
<text text-anchor="start" x="13" y="-12.1" font-family="Helvetica,sans-Serif" font-size="11.00" fill="#000000">&lt; 0</text>
<polygon fill="#ffffff" stroke="transparent" points="85,-6 85,-25 183,-25 183,-6 85,-6"/>
<polygon fill="none" stroke="#000000" points="85,-6 85,-25 183,-25 183,-6 85,-6"/>
<text text-anchor="start" x="141.4956" y="-12.1" font-family="Helvetica,sans-Serif" font-size="11.00" fill="#000000">39 rows</text>
<polygon fill="#ffffff" stroke="transparent" points="183,-6 183,-25 280,-25 280,-6 183,-6"/>
<polygon fill="none" stroke="#000000" points="183,-6 183,-25 280,-25 280,-6 183,-6"/>
<text text-anchor="start" x="261.4053" y="-12.1" font-family="Helvetica,sans-Serif" font-size="11.00" fill="#000000">0 &gt;</text>
<polygon fill="none" stroke="#000000" stroke-width="2" points="9,-5 9,-269 281,-269 281,-5 9,-5"/>
</a>
</g>
</g>
</g>
</svg>
