<?xml version="1.0" encoding="UTF-8" standalone="no"?>
<!DOCTYPE svg PUBLIC "-//W3C//DTD SVG 1.1//EN"
 "http://www.w3.org/Graphics/SVG/1.1/DTD/svg11.dtd">
<!-- Generated by graphviz version 2.40.1 (20161225.0304)
 -->
<!-- Title: ES_LOG Pages: 1 -->
<svg width="266pt" height="194pt"
 viewBox="0.00 0.00 266.00 194.00" xmlns="http://www.w3.org/2000/svg" xmlns:xlink="http://www.w3.org/1999/xlink">
<g id="graph0" class="graph" transform="scale(1 1) rotate(0) translate(4 190)">
<title>ES_LOG</title>
<polygon fill="#ffffff" stroke="transparent" points="-4,4 -4,-190 262,-190 262,4 -4,4"/>
<!-- ES_LOG -->
<g id="node1" class="node">
<title>ES_LOG</title>
<g id="a_node1"><a xlink:href="../../tables/ES_LOG.html" xlink:title="ES_LOG" target="_top">
<polygon fill="#ffffff" stroke="transparent" points="8,-4 8,-182 250,-182 250,-4 8,-4"/>
<polygon fill="#f5f5f5" stroke="transparent" points="10,-157 10,-180 248,-180 248,-157 10,-157"/>
<polygon fill="none" stroke="#000000" points="10,-157 10,-180 248,-180 248,-157 10,-157"/>
<text text-anchor="start" x="15" y="-166.1" font-family="Helvetica,sans-Serif" font-weight="bold" font-size="11.00" fill="#000000">ES_LOG</text>
<text text-anchor="start" x="213.0437" y="-165.1" font-family="Helvetica,sans-Serif" font-size="11.00" fill="#000000">[table]</text>
<polygon fill="none" stroke="#000000" points="10,-135 10,-157 169,-157 169,-135 10,-135"/>
<image xlink:href="../../images/primaryKeys.png" width="11px" height="12px" preserveAspectRatio="xMinYMin meet" x="15" y="-152"/>
<text text-anchor="start" x="30" y="-142.1" font-family="Helvetica,sans-Serif" font-size="11.00" fill="#000000">ES_LOG_ID</text>
<polygon fill="none" stroke="#000000" points="169,-135 169,-157 248,-157 248,-135 169,-135"/>
<text text-anchor="start" x="172" y="-142.7" font-family="Helvetica,sans-Serif" font-size="11.00" fill="#000000">number[38]</text>
<polygon fill="none" stroke="#000000" points="10,-113 10,-135 169,-135 169,-113 10,-113"/>
<text text-anchor="start" x="30" y="-120.1" font-family="Helvetica,sans-Serif" font-size="11.00" fill="#000000">LOG_DATETIME</text>
<polygon fill="none" stroke="#000000" points="169,-113 169,-135 248,-135 248,-113 169,-113"/>
<text text-anchor="start" x="172" y="-120.7" font-family="Helvetica,sans-Serif" font-size="11.00" fill="#000000">date[7]</text>
<polygon fill="none" stroke="#000000" points="10,-91 10,-113 169,-113 169,-91 10,-91"/>
<text text-anchor="start" x="30" y="-98.1" font-family="Helvetica,sans-Serif" font-size="11.00" fill="#000000">LOG_PROC_CONTEXT</text>
<polygon fill="none" stroke="#000000" points="169,-91 169,-113 248,-113 248,-91 169,-91"/>
<text text-anchor="start" x="172" y="-98.7" font-family="Helvetica,sans-Serif" font-size="11.00" fill="#000000">varchar2[40]</text>
<polygon fill="none" stroke="#000000" points="10,-69 10,-91 169,-91 169,-69 10,-69"/>
<text text-anchor="start" x="24.576" y="-76.1" font-family="Helvetica,sans-Serif" font-size="11.00" fill="#000000">LOG_PROCESS_INSTANCE</text>
<polygon fill="none" stroke="#000000" points="169,-69 169,-91 248,-91 248,-69 169,-69"/>
<text text-anchor="start" x="172" y="-76.7" font-family="Helvetica,sans-Serif" font-size="11.00" fill="#000000">number[38]</text>
<polygon fill="none" stroke="#000000" points="10,-47 10,-69 169,-69 169,-47 10,-47"/>
<text text-anchor="start" x="30" y="-54.1" font-family="Helvetica,sans-Serif" font-size="11.00" fill="#000000">LOG_INFO</text>
<polygon fill="none" stroke="#000000" points="169,-47 169,-69 248,-69 248,-47 169,-47"/>
<text text-anchor="start" x="171.8216" y="-54.7" font-family="Helvetica,sans-Serif" font-size="11.00" fill="#000000">varchar2[4000]</text>
<polygon fill="none" stroke="#000000" points="10,-25 10,-47 169,-47 169,-25 10,-25"/>
<text text-anchor="start" x="30" y="-32.1" font-family="Helvetica,sans-Serif" font-size="11.00" fill="#000000">LOG_CLOB</text>
<polygon fill="none" stroke="#000000" points="169,-25 169,-47 248,-47 248,-25 169,-25"/>
<text text-anchor="start" x="172" y="-32.7" font-family="Helvetica,sans-Serif" font-size="11.00" fill="#000000">clob[4000]</text>
<polygon fill="#ffffff" stroke="transparent" points="10,-6 10,-25 84,-25 84,-6 10,-6"/>
<polygon fill="none" stroke="#000000" points="10,-6 10,-25 84,-25 84,-6 10,-6"/>
<text text-anchor="start" x="13" y="-12.1" font-family="Helvetica,sans-Serif" font-size="11.00" fill="#000000">&lt; 0</text>
<polygon fill="#ffffff" stroke="transparent" points="84,-6 84,-25 169,-25 169,-6 84,-6"/>
<polygon fill="none" stroke="#000000" points="84,-6 84,-25 169,-25 169,-6 84,-6"/>
<text text-anchor="start" x="139.1105" y="-12.1" font-family="Helvetica,sans-Serif" font-size="11.00" fill="#000000">1 row</text>
<polygon fill="#ffffff" stroke="transparent" points="169,-6 169,-25 248,-25 248,-6 169,-6"/>
<polygon fill="none" stroke="#000000" points="169,-6 169,-25 248,-25 248,-6 169,-6"/>
<text text-anchor="start" x="229.4053" y="-12.1" font-family="Helvetica,sans-Serif" font-size="11.00" fill="#000000">0 &gt;</text>
<polygon fill="none" stroke="#000000" stroke-width="2" points="9,-5 9,-181 249,-181 249,-5 9,-5"/>
</a>
</g>
</g>
</g>
</svg>
