<?xml version="1.0" encoding="UTF-8" standalone="no"?>
<!DOCTYPE svg PUBLIC "-//W3C//DTD SVG 1.1//EN"
 "http://www.w3.org/Graphics/SVG/1.1/DTD/svg11.dtd">
<!-- Generated by graphviz version 2.40.1 (20161225.0304)
 -->
<!-- Title: ES_SEARCH_HISTORY Pages: 1 -->
<svg width="261pt" height="150pt"
 viewBox="0.00 0.00 261.00 150.00" xmlns="http://www.w3.org/2000/svg" xmlns:xlink="http://www.w3.org/1999/xlink">
<g id="graph0" class="graph" transform="scale(1 1) rotate(0) translate(4 146)">
<title>ES_SEARCH_HISTORY</title>
<polygon fill="#ffffff" stroke="transparent" points="-4,4 -4,-146 257,-146 257,4 -4,4"/>
<!-- ES_SEARCH_HISTORY -->
<g id="node1" class="node">
<title>ES_SEARCH_HISTORY</title>
<g id="a_node1"><a xlink:href="../../tables/ES_SEARCH_HISTORY.html" xlink:title="ES_SEARCH_HISTORY" target="_top">
<polygon fill="#ffffff" stroke="transparent" points="8,-4 8,-138 245,-138 245,-4 8,-4"/>
<polygon fill="#f5f5f5" stroke="transparent" points="10.5,-113 10.5,-136 243.5,-136 243.5,-113 10.5,-113"/>
<polygon fill="none" stroke="#000000" points="10.5,-113 10.5,-136 243.5,-136 243.5,-113 10.5,-113"/>
<text text-anchor="start" x="15.5" y="-122.1" font-family="Helvetica,sans-Serif" font-weight="bold" font-size="11.00" fill="#000000">ES_SEARCH_HISTORY</text>
<text text-anchor="start" x="208.5437" y="-121.1" font-family="Helvetica,sans-Serif" font-size="11.00" fill="#000000">[table]</text>
<polygon fill="none" stroke="#000000" points="10.5,-91 10.5,-113 164.5,-113 164.5,-91 10.5,-91"/>
<image xlink:href="../../images/primaryKeys.png" width="11px" height="12px" preserveAspectRatio="xMinYMin meet" x="15.5" y="-108"/>
<text text-anchor="start" x="25.634" y="-98.1" font-family="Helvetica,sans-Serif" font-size="11.00" fill="#000000">ES_SEARCH_HISTORY_ID</text>
<polygon fill="none" stroke="#000000" points="164.5,-91 164.5,-113 243.5,-113 243.5,-91 164.5,-91"/>
<text text-anchor="start" x="167.5" y="-98.7" font-family="Helvetica,sans-Serif" font-size="11.00" fill="#000000">number[38]</text>
<polygon fill="none" stroke="#000000" points="10.5,-69 10.5,-91 164.5,-91 164.5,-69 10.5,-69"/>
<text text-anchor="start" x="30.5" y="-76.1" font-family="Helvetica,sans-Serif" font-size="11.00" fill="#000000">ES_SEARCH_DATETIME</text>
<polygon fill="none" stroke="#000000" points="164.5,-69 164.5,-91 243.5,-91 243.5,-69 164.5,-69"/>
<text text-anchor="start" x="167.5" y="-76.7" font-family="Helvetica,sans-Serif" font-size="11.00" fill="#000000">date[7]</text>
<polygon fill="none" stroke="#000000" points="10.5,-47 10.5,-69 164.5,-69 164.5,-47 10.5,-47"/>
<text text-anchor="start" x="30.5" y="-54.1" font-family="Helvetica,sans-Serif" font-size="11.00" fill="#000000">ES_SEARCH_QUERY</text>
<polygon fill="none" stroke="#000000" points="164.5,-47 164.5,-69 243.5,-69 243.5,-47 164.5,-47"/>
<text text-anchor="start" x="167.3216" y="-54.7" font-family="Helvetica,sans-Serif" font-size="11.00" fill="#000000">varchar2[4000]</text>
<polygon fill="none" stroke="#000000" points="10.5,-25 10.5,-47 164.5,-47 164.5,-25 10.5,-25"/>
<text text-anchor="start" x="30.5" y="-32.1" font-family="Helvetica,sans-Serif" font-size="11.00" fill="#000000">ES_SEARCH_JQUERY</text>
<polygon fill="none" stroke="#000000" points="164.5,-25 164.5,-47 243.5,-47 243.5,-25 164.5,-25"/>
<text text-anchor="start" x="167.5" y="-32.7" font-family="Helvetica,sans-Serif" font-size="11.00" fill="#000000">clob[4000]</text>
<polygon fill="#ffffff" stroke="transparent" points="10.5,-6 10.5,-25 78.5,-25 78.5,-6 10.5,-6"/>
<polygon fill="none" stroke="#000000" points="10.5,-6 10.5,-25 78.5,-25 78.5,-6 10.5,-6"/>
<text text-anchor="start" x="13.5" y="-12.1" font-family="Helvetica,sans-Serif" font-size="11.00" fill="#000000">&lt; 0</text>
<polygon fill="#ffffff" stroke="transparent" points="78.5,-6 78.5,-25 164.5,-25 164.5,-6 78.5,-6"/>
<polygon fill="none" stroke="#000000" points="78.5,-6 78.5,-25 164.5,-25 164.5,-6 78.5,-6"/>
<text text-anchor="start" x="129.1105" y="-12.1" font-family="Helvetica,sans-Serif" font-size="11.00" fill="#000000">0 rows</text>
<polygon fill="#ffffff" stroke="transparent" points="164.5,-6 164.5,-25 243.5,-25 243.5,-6 164.5,-6"/>
<polygon fill="none" stroke="#000000" points="164.5,-6 164.5,-25 243.5,-25 243.5,-6 164.5,-6"/>
<text text-anchor="start" x="224.9053" y="-12.1" font-family="Helvetica,sans-Serif" font-size="11.00" fill="#000000">0 &gt;</text>
<polygon fill="none" stroke="#000000" stroke-width="2" points="9,-5 9,-137 244,-137 244,-5 9,-5"/>
</a>
</g>
</g>
</g>
</svg>
