<?xml version="1.0" encoding="UTF-8" standalone="no"?>
<!DOCTYPE svg PUBLIC "-//W3C//DTD SVG 1.1//EN"
 "http://www.w3.org/Graphics/SVG/1.1/DTD/svg11.dtd">
<!-- Generated by graphviz version 2.40.1 (20161225.0304)
 -->
<!-- Title: IAPS_EVENT Pages: 1 -->
<svg width="231pt" height="128pt"
 viewBox="0.00 0.00 231.00 128.00" xmlns="http://www.w3.org/2000/svg" xmlns:xlink="http://www.w3.org/1999/xlink">
<g id="graph0" class="graph" transform="scale(1 1) rotate(0) translate(4 124)">
<title>IAPS_EVENT</title>
<polygon fill="#ffffff" stroke="transparent" points="-4,4 -4,-124 227,-124 227,4 -4,4"/>
<!-- IAPS_EVENT -->
<g id="node1" class="node">
<title>IAPS_EVENT</title>
<g id="a_node1"><a xlink:href="../../tables/IAPS_EVENT.html" xlink:title="IAPS_EVENT" target="_top">
<polygon fill="#ffffff" stroke="transparent" points="8,-4 8,-116 215,-116 215,-4 8,-4"/>
<polygon fill="#f5f5f5" stroke="transparent" points="10.5,-91 10.5,-114 213.5,-114 213.5,-91 10.5,-91"/>
<polygon fill="none" stroke="#000000" points="10.5,-91 10.5,-114 213.5,-114 213.5,-91 10.5,-91"/>
<text text-anchor="start" x="15.5" y="-100.1" font-family="Helvetica,sans-Serif" font-weight="bold" font-size="11.00" fill="#000000">IAPS_EVENT</text>
<text text-anchor="start" x="178.5437" y="-99.1" font-family="Helvetica,sans-Serif" font-size="11.00" fill="#000000">[table]</text>
<polygon fill="none" stroke="#000000" points="10.5,-69 10.5,-91 152.5,-91 152.5,-69 10.5,-69"/>
<image xlink:href="../../images/primaryKeys.png" width="11px" height="12px" preserveAspectRatio="xMinYMin meet" x="15.5" y="-86"/>
<text text-anchor="start" x="30.5" y="-76.1" font-family="Helvetica,sans-Serif" font-size="11.00" fill="#000000">EVENT_ID</text>
<polygon fill="none" stroke="#000000" points="152.5,-69 152.5,-91 213.5,-91 213.5,-69 152.5,-69"/>
<text text-anchor="start" x="155.1865" y="-76.7" font-family="Helvetica,sans-Serif" font-size="11.00" fill="#000000">number[38]</text>
<polygon fill="none" stroke="#000000" points="10.5,-47 10.5,-69 152.5,-69 152.5,-47 10.5,-47"/>
<text text-anchor="start" x="30.5" y="-54.1" font-family="Helvetica,sans-Serif" font-size="11.00" fill="#000000">IAPS_FLAG</text>
<polygon fill="none" stroke="#000000" points="152.5,-47 152.5,-69 213.5,-69 213.5,-47 152.5,-47"/>
<text text-anchor="start" x="155.1865" y="-54.7" font-family="Helvetica,sans-Serif" font-size="11.00" fill="#000000">number[38]</text>
<polygon fill="none" stroke="#000000" points="10.5,-25 10.5,-47 152.5,-47 152.5,-25 10.5,-25"/>
<text text-anchor="start" x="26.6624" y="-32.1" font-family="Helvetica,sans-Serif" font-size="11.00" fill="#000000">TRAINING_SESSION_ID</text>
<polygon fill="none" stroke="#000000" points="152.5,-25 152.5,-47 213.5,-47 213.5,-25 152.5,-25"/>
<text text-anchor="start" x="155.1865" y="-32.7" font-family="Helvetica,sans-Serif" font-size="11.00" fill="#000000">number[38]</text>
<polygon fill="#ffffff" stroke="transparent" points="10.5,-6 10.5,-25 66.5,-25 66.5,-6 10.5,-6"/>
<polygon fill="none" stroke="#000000" points="10.5,-6 10.5,-25 66.5,-25 66.5,-6 10.5,-6"/>
<text text-anchor="start" x="13.5" y="-12.1" font-family="Helvetica,sans-Serif" font-size="11.00" fill="#000000">&lt; 0</text>
<polygon fill="#ffffff" stroke="transparent" points="66.5,-6 66.5,-25 152.5,-25 152.5,-6 66.5,-6"/>
<polygon fill="none" stroke="#000000" points="66.5,-6 66.5,-25 152.5,-25 152.5,-6 66.5,-6"/>
<text text-anchor="start" x="104.8807" y="-12.1" font-family="Helvetica,sans-Serif" font-size="11.00" fill="#000000">398 rows</text>
<polygon fill="#ffffff" stroke="transparent" points="152.5,-6 152.5,-25 213.5,-25 213.5,-6 152.5,-6"/>
<polygon fill="none" stroke="#000000" points="152.5,-6 152.5,-25 213.5,-25 213.5,-6 152.5,-6"/>
<text text-anchor="start" x="194.9053" y="-12.1" font-family="Helvetica,sans-Serif" font-size="11.00" fill="#000000">0 &gt;</text>
<polygon fill="none" stroke="#000000" stroke-width="2" points="9,-5 9,-115 214,-115 214,-5 9,-5"/>
</a>
</g>
</g>
</g>
</svg>
