<?xml version="1.0" encoding="UTF-8" standalone="no"?>
<!DOCTYPE svg PUBLIC "-//W3C//DTD SVG 1.1//EN"
 "http://www.w3.org/Graphics/SVG/1.1/DTD/svg11.dtd">
<!-- Generated by graphviz version 2.40.1 (20161225.0304)
 -->
<!-- Title: ND_PARAMETER Pages: 1 -->
<svg width="249pt" height="172pt"
 viewBox="0.00 0.00 249.00 172.00" xmlns="http://www.w3.org/2000/svg" xmlns:xlink="http://www.w3.org/1999/xlink">
<g id="graph0" class="graph" transform="scale(1 1) rotate(0) translate(4 168)">
<title>ND_PARAMETER</title>
<polygon fill="#ffffff" stroke="transparent" points="-4,4 -4,-168 245,-168 245,4 -4,4"/>
<!-- ND_PARAMETER -->
<g id="node1" class="node">
<title>ND_PARAMETER</title>
<g id="a_node1"><a xlink:href="../../tables/ND_PARAMETER.html" xlink:title="ND_PARAMETER" target="_top">
<polygon fill="#ffffff" stroke="transparent" points="8,-4 8,-160 233,-160 233,-4 8,-4"/>
<polygon fill="#f5f5f5" stroke="transparent" points="10.5,-135 10.5,-158 231.5,-158 231.5,-135 10.5,-135"/>
<polygon fill="none" stroke="#000000" points="10.5,-135 10.5,-158 231.5,-158 231.5,-135 10.5,-135"/>
<text text-anchor="start" x="15.5" y="-144.1" font-family="Helvetica,sans-Serif" font-weight="bold" font-size="11.00" fill="#000000">ND_PARAMETER</text>
<text text-anchor="start" x="196.5437" y="-143.1" font-family="Helvetica,sans-Serif" font-size="11.00" fill="#000000">[table]</text>
<polygon fill="none" stroke="#000000" points="10.5,-113 10.5,-135 152.5,-135 152.5,-113 10.5,-113"/>
<image xlink:href="../../images/primaryKeys.png" width="11px" height="12px" preserveAspectRatio="xMinYMin meet" x="15.5" y="-130"/>
<text text-anchor="start" x="30.5" y="-120.1" font-family="Helvetica,sans-Serif" font-size="11.00" fill="#000000">ND_PARAMETER_ID</text>
<polygon fill="none" stroke="#000000" points="152.5,-113 152.5,-135 231.5,-135 231.5,-113 152.5,-113"/>
<text text-anchor="start" x="155.5" y="-120.7" font-family="Helvetica,sans-Serif" font-size="11.00" fill="#000000">number[38]</text>
<polygon fill="none" stroke="#000000" points="10.5,-91 10.5,-113 152.5,-113 152.5,-91 10.5,-91"/>
<image xlink:href="../../images/primaryKeys.png" width="11px" height="12px" preserveAspectRatio="xMinYMin meet" x="15.5" y="-108"/>
<text text-anchor="start" x="30.5" y="-98.1" font-family="Helvetica,sans-Serif" font-size="11.00" fill="#000000">ND_PARAMETER</text>
<polygon fill="none" stroke="#000000" points="152.5,-91 152.5,-113 231.5,-113 231.5,-91 152.5,-91"/>
<text text-anchor="start" x="155.5" y="-98.7" font-family="Helvetica,sans-Serif" font-size="11.00" fill="#000000">varchar2[500]</text>
<polygon fill="none" stroke="#000000" points="10.5,-69 10.5,-91 152.5,-91 152.5,-69 10.5,-69"/>
<text text-anchor="start" x="30.5" y="-76.1" font-family="Helvetica,sans-Serif" font-size="11.00" fill="#000000">ND_VALUE</text>
<polygon fill="none" stroke="#000000" points="152.5,-69 152.5,-91 231.5,-91 231.5,-69 152.5,-69"/>
<text text-anchor="start" x="155.5" y="-76.7" font-family="Helvetica,sans-Serif" font-size="11.00" fill="#000000">number[0]</text>
<polygon fill="none" stroke="#000000" points="10.5,-47 10.5,-69 152.5,-69 152.5,-47 10.5,-47"/>
<image xlink:href="../../images/primaryKeys.png" width="11px" height="12px" preserveAspectRatio="xMinYMin meet" x="15.5" y="-64"/>
<text text-anchor="start" x="26.6624" y="-54.1" font-family="Helvetica,sans-Serif" font-size="11.00" fill="#000000">TRAINING_SESSION_ID</text>
<polygon fill="none" stroke="#000000" points="152.5,-47 152.5,-69 231.5,-69 231.5,-47 152.5,-47"/>
<text text-anchor="start" x="155.5" y="-54.7" font-family="Helvetica,sans-Serif" font-size="11.00" fill="#000000">number[38]</text>
<polygon fill="none" stroke="#000000" points="10.5,-25 10.5,-47 152.5,-47 152.5,-25 10.5,-25"/>
<text text-anchor="start" x="30.5" y="-32.1" font-family="Helvetica,sans-Serif" font-size="11.00" fill="#000000">ND_VALUE_STRING</text>
<polygon fill="none" stroke="#000000" points="152.5,-25 152.5,-47 231.5,-47 231.5,-25 152.5,-25"/>
<text text-anchor="start" x="155.3216" y="-32.7" font-family="Helvetica,sans-Serif" font-size="11.00" fill="#000000">varchar2[4000]</text>
<polygon fill="#ffffff" stroke="transparent" points="10.5,-6 10.5,-25 69.5,-25 69.5,-6 10.5,-6"/>
<polygon fill="none" stroke="#000000" points="10.5,-6 10.5,-25 69.5,-25 69.5,-6 10.5,-6"/>
<text text-anchor="start" x="13.5" y="-12.1" font-family="Helvetica,sans-Serif" font-size="11.00" fill="#000000">&lt; 0</text>
<polygon fill="#ffffff" stroke="transparent" points="69.5,-6 69.5,-25 152.5,-25 152.5,-6 69.5,-6"/>
<polygon fill="none" stroke="#000000" points="69.5,-6 69.5,-25 152.5,-25 152.5,-6 69.5,-6"/>
<text text-anchor="start" x="110.9956" y="-12.1" font-family="Helvetica,sans-Serif" font-size="11.00" fill="#000000">78 rows</text>
<polygon fill="#ffffff" stroke="transparent" points="152.5,-6 152.5,-25 231.5,-25 231.5,-6 152.5,-6"/>
<polygon fill="none" stroke="#000000" points="152.5,-6 152.5,-25 231.5,-25 231.5,-6 152.5,-6"/>
<text text-anchor="start" x="212.9053" y="-12.1" font-family="Helvetica,sans-Serif" font-size="11.00" fill="#000000">0 &gt;</text>
<polygon fill="none" stroke="#000000" stroke-width="2" points="9,-5 9,-159 232,-159 232,-5 9,-5"/>
</a>
</g>
</g>
</g>
</svg>
