<?xml version="1.0" encoding="UTF-8" standalone="no"?>
<!DOCTYPE svg PUBLIC "-//W3C//DTD SVG 1.1//EN"
 "http://www.w3.org/Graphics/SVG/1.1/DTD/svg11.dtd">
<!-- Generated by graphviz version 2.40.1 (20161225.0304)
 -->
<!-- Title: PDT_DEBUG Pages: 1 -->
<svg width="230pt" height="128pt"
 viewBox="0.00 0.00 230.00 128.00" xmlns="http://www.w3.org/2000/svg" xmlns:xlink="http://www.w3.org/1999/xlink">
<g id="graph0" class="graph" transform="scale(1 1) rotate(0) translate(4 124)">
<title>PDT_DEBUG</title>
<polygon fill="#ffffff" stroke="transparent" points="-4,4 -4,-124 226,-124 226,4 -4,4"/>
<!-- PDT_DEBUG -->
<g id="node1" class="node">
<title>PDT_DEBUG</title>
<g id="a_node1"><a xlink:href="../../tables/PDT_DEBUG.html" xlink:title="PDT_DEBUG" target="_top">
<polygon fill="#ffffff" stroke="transparent" points="8,-4 8,-116 214,-116 214,-4 8,-4"/>
<polygon fill="#f5f5f5" stroke="transparent" points="10,-91 10,-114 212,-114 212,-91 10,-91"/>
<polygon fill="none" stroke="#000000" points="10,-91 10,-114 212,-114 212,-91 10,-91"/>
<text text-anchor="start" x="15" y="-100.1" font-family="Helvetica,sans-Serif" font-weight="bold" font-size="11.00" fill="#000000">PDT_DEBUG</text>
<text text-anchor="start" x="177.0437" y="-99.1" font-family="Helvetica,sans-Serif" font-size="11.00" fill="#000000">[table]</text>
<polygon fill="none" stroke="#000000" points="10,-69 10,-91 133,-91 133,-69 10,-69"/>
<text text-anchor="start" x="30" y="-76.1" font-family="Helvetica,sans-Serif" font-size="11.00" fill="#000000">DEBUG_SEQ</text>
<polygon fill="none" stroke="#000000" points="133,-69 133,-91 212,-91 212,-69 133,-69"/>
<text text-anchor="start" x="136" y="-76.7" font-family="Helvetica,sans-Serif" font-size="11.00" fill="#000000">number[0]</text>
<polygon fill="none" stroke="#000000" points="10,-47 10,-69 133,-69 133,-47 10,-47"/>
<text text-anchor="start" x="25.5262" y="-54.1" font-family="Helvetica,sans-Serif" font-size="11.00" fill="#000000">DEBUG_DATE_TIME</text>
<polygon fill="none" stroke="#000000" points="133,-47 133,-69 212,-69 212,-47 133,-47"/>
<text text-anchor="start" x="136" y="-54.7" font-family="Helvetica,sans-Serif" font-size="11.00" fill="#000000">date[7]</text>
<polygon fill="none" stroke="#000000" points="10,-25 10,-47 133,-47 133,-25 10,-25"/>
<text text-anchor="start" x="29.1881" y="-32.1" font-family="Helvetica,sans-Serif" font-size="11.00" fill="#000000">DEBUG_MESSAGE</text>
<polygon fill="none" stroke="#000000" points="133,-25 133,-47 212,-47 212,-25 133,-25"/>
<text text-anchor="start" x="135.8216" y="-32.7" font-family="Helvetica,sans-Serif" font-size="11.00" fill="#000000">varchar2[4000]</text>
<polygon fill="#ffffff" stroke="transparent" points="10,-6 10,-25 63,-25 63,-6 10,-6"/>
<polygon fill="none" stroke="#000000" points="10,-6 10,-25 63,-25 63,-6 10,-6"/>
<text text-anchor="start" x="13" y="-12.1" font-family="Helvetica,sans-Serif" font-size="11.00" fill="#000000">&lt; 0</text>
<polygon fill="#ffffff" stroke="transparent" points="63,-6 63,-25 133,-25 133,-6 63,-6"/>
<polygon fill="none" stroke="#000000" points="63,-6 63,-25 133,-25 133,-6 63,-6"/>
<text text-anchor="start" x="97.6105" y="-12.1" font-family="Helvetica,sans-Serif" font-size="11.00" fill="#000000">0 rows</text>
<polygon fill="#ffffff" stroke="transparent" points="133,-6 133,-25 212,-25 212,-6 133,-6"/>
<polygon fill="none" stroke="#000000" points="133,-6 133,-25 212,-25 212,-6 133,-6"/>
<text text-anchor="start" x="193.4053" y="-12.1" font-family="Helvetica,sans-Serif" font-size="11.00" fill="#000000">0 &gt;</text>
<polygon fill="none" stroke="#000000" stroke-width="2" points="9,-5 9,-115 213,-115 213,-5 9,-5"/>
</a>
</g>
</g>
</g>
</svg>
