<?xml version="1.0" encoding="UTF-8" standalone="no"?>
<!DOCTYPE svg PUBLIC "-//W3C//DTD SVG 1.1//EN"
 "http://www.w3.org/Graphics/SVG/1.1/DTD/svg11.dtd">
<!-- Generated by graphviz version 2.40.1 (20161225.0304)
 -->
<!-- Title: SPG_JAVA_OBJECTS Pages: 1 -->
<svg width="230pt" height="84pt"
 viewBox="0.00 0.00 230.00 84.00" xmlns="http://www.w3.org/2000/svg" xmlns:xlink="http://www.w3.org/1999/xlink">
<g id="graph0" class="graph" transform="scale(1 1) rotate(0) translate(4 80)">
<title>SPG_JAVA_OBJECTS</title>
<polygon fill="#ffffff" stroke="transparent" points="-4,4 -4,-80 226,-80 226,4 -4,4"/>
<!-- SPG_JAVA_OBJECTS -->
<g id="node1" class="node">
<title>SPG_JAVA_OBJECTS</title>
<g id="a_node1"><a xlink:href="../../tables/SPG_JAVA_OBJECTS.html" xlink:title="SPG_JAVA_OBJECTS" target="_top">
<polygon fill="#ffffff" stroke="transparent" points="8,-4 8,-72 214,-72 214,-4 8,-4"/>
<polygon fill="#f5f5f5" stroke="transparent" points="10,-47 10,-70 212,-70 212,-47 10,-47"/>
<polygon fill="none" stroke="#000000" points="10,-47 10,-70 212,-70 212,-47 10,-47"/>
<text text-anchor="start" x="15" y="-56.1" font-family="Helvetica,sans-Serif" font-weight="bold" font-size="11.00" fill="#000000">SPG_JAVA_OBJECTS</text>
<text text-anchor="start" x="177.0437" y="-55.1" font-family="Helvetica,sans-Serif" font-size="11.00" fill="#000000">[table]</text>
<polygon fill="none" stroke="#000000" points="10,-25 10,-47 139,-47 139,-25 10,-25"/>
<text text-anchor="start" x="24.5492" y="-32.1" font-family="Helvetica,sans-Serif" font-size="11.00" fill="#000000">JAVA_OBJECT_NAME</text>
<polygon fill="none" stroke="#000000" points="139,-25 139,-47 212,-47 212,-25 139,-25"/>
<text text-anchor="start" x="141.8791" y="-32.7" font-family="Helvetica,sans-Serif" font-size="11.00" fill="#000000">varchar2[500]</text>
<polygon fill="#ffffff" stroke="transparent" points="10,-6 10,-25 55,-25 55,-6 10,-6"/>
<polygon fill="none" stroke="#000000" points="10,-6 10,-25 55,-25 55,-6 10,-6"/>
<text text-anchor="start" x="13" y="-12.1" font-family="Helvetica,sans-Serif" font-size="11.00" fill="#000000">&lt; 0</text>
<polygon fill="#ffffff" stroke="transparent" points="55,-6 55,-25 139,-25 139,-6 55,-6"/>
<polygon fill="none" stroke="#000000" points="55,-6 55,-25 139,-25 139,-6 55,-6"/>
<text text-anchor="start" x="82.2089" y="-12.1" font-family="Helvetica,sans-Serif" font-size="11.00" fill="#000000">2,342 rows</text>
<polygon fill="#ffffff" stroke="transparent" points="139,-6 139,-25 212,-25 212,-6 139,-6"/>
<polygon fill="none" stroke="#000000" points="139,-6 139,-25 212,-25 212,-6 139,-6"/>
<text text-anchor="start" x="193.4053" y="-12.1" font-family="Helvetica,sans-Serif" font-size="11.00" fill="#000000">0 &gt;</text>
<polygon fill="none" stroke="#000000" stroke-width="2" points="9,-5 9,-71 213,-71 213,-5 9,-5"/>
</a>
</g>
</g>
</g>
</svg>
