<?xml version="1.0" encoding="UTF-8" standalone="no"?>
<!DOCTYPE svg PUBLIC "-//W3C//DTD SVG 1.1//EN"
 "http://www.w3.org/Graphics/SVG/1.1/DTD/svg11.dtd">
<!-- Generated by graphviz version 2.40.1 (20161225.0304)
 -->
<!-- Title: SPG_CONTROL Pages: 1 -->
<svg width="223pt" height="216pt"
 viewBox="0.00 0.00 223.00 216.00" xmlns="http://www.w3.org/2000/svg" xmlns:xlink="http://www.w3.org/1999/xlink">
<g id="graph0" class="graph" transform="scale(1 1) rotate(0) translate(4 212)">
<title>SPG_CONTROL</title>
<polygon fill="#ffffff" stroke="transparent" points="-4,4 -4,-212 219,-212 219,4 -4,4"/>
<!-- SPG_CONTROL -->
<g id="node1" class="node">
<title>SPG_CONTROL</title>
<g id="a_node1"><a xlink:href="../../tables/SPG_CONTROL.html" xlink:title="SPG_CONTROL" target="_top">
<polygon fill="#ffffff" stroke="transparent" points="8,-4 8,-204 207,-204 207,-4 8,-4"/>
<polygon fill="#f5f5f5" stroke="transparent" points="10.5,-179 10.5,-202 205.5,-202 205.5,-179 10.5,-179"/>
<polygon fill="none" stroke="#000000" points="10.5,-179 10.5,-202 205.5,-202 205.5,-179 10.5,-179"/>
<text text-anchor="start" x="15.5" y="-188.1" font-family="Helvetica,sans-Serif" font-weight="bold" font-size="11.00" fill="#000000">SPG_CONTROL</text>
<text text-anchor="start" x="170.5437" y="-187.1" font-family="Helvetica,sans-Serif" font-size="11.00" fill="#000000">[table]</text>
<polygon fill="none" stroke="#000000" points="10.5,-157 10.5,-179 126.5,-179 126.5,-157 10.5,-157"/>
<image xlink:href="../../images/primaryKeys.png" width="11px" height="12px" preserveAspectRatio="xMinYMin meet" x="15.5" y="-174"/>
<text text-anchor="start" x="25.8862" y="-164.1" font-family="Helvetica,sans-Serif" font-size="11.00" fill="#000000">SPG_CONTROL_ID</text>
<polygon fill="none" stroke="#000000" points="126.5,-157 126.5,-179 205.5,-179 205.5,-157 126.5,-157"/>
<text text-anchor="start" x="129.5" y="-164.7" font-family="Helvetica,sans-Serif" font-size="11.00" fill="#000000">number[38]</text>
<polygon fill="none" stroke="#000000" points="10.5,-135 10.5,-157 126.5,-157 126.5,-135 10.5,-135"/>
<image xlink:href="../../images/primaryKeys.png" width="11px" height="12px" preserveAspectRatio="xMinYMin meet" x="15.5" y="-152"/>
<text text-anchor="start" x="30.1696" y="-142.1" font-family="Helvetica,sans-Serif" font-size="11.00" fill="#000000">CONTROL_CODE</text>
<polygon fill="none" stroke="#000000" points="126.5,-135 126.5,-157 205.5,-157 205.5,-135 126.5,-135"/>
<text text-anchor="start" x="129.5" y="-142.7" font-family="Helvetica,sans-Serif" font-size="11.00" fill="#000000">varchar2[10]</text>
<polygon fill="none" stroke="#000000" points="10.5,-113 10.5,-135 126.5,-135 126.5,-113 10.5,-113"/>
<text text-anchor="start" x="30.1696" y="-120.1" font-family="Helvetica,sans-Serif" font-size="11.00" fill="#000000">CONTROL_NAME</text>
<polygon fill="none" stroke="#000000" points="126.5,-113 126.5,-135 205.5,-135 205.5,-113 126.5,-113"/>
<text text-anchor="start" x="129.5" y="-120.7" font-family="Helvetica,sans-Serif" font-size="11.00" fill="#000000">varchar2[200]</text>
<polygon fill="none" stroke="#000000" points="10.5,-91 10.5,-113 126.5,-113 126.5,-91 10.5,-91"/>
<text text-anchor="start" x="30.5" y="-98.1" font-family="Helvetica,sans-Serif" font-size="11.00" fill="#000000">CONTROL_TYPE</text>
<polygon fill="none" stroke="#000000" points="126.5,-91 126.5,-113 205.5,-113 205.5,-91 126.5,-91"/>
<text text-anchor="start" x="129.5" y="-98.7" font-family="Helvetica,sans-Serif" font-size="11.00" fill="#000000">char[1]</text>
<polygon fill="none" stroke="#000000" points="10.5,-69 10.5,-91 126.5,-91 126.5,-69 10.5,-69"/>
<text text-anchor="start" x="30.5" y="-76.1" font-family="Helvetica,sans-Serif" font-size="11.00" fill="#000000">VALUE_STRING</text>
<polygon fill="none" stroke="#000000" points="126.5,-69 126.5,-91 205.5,-91 205.5,-69 126.5,-69"/>
<text text-anchor="start" x="129.3216" y="-76.7" font-family="Helvetica,sans-Serif" font-size="11.00" fill="#000000">varchar2[4000]</text>
<polygon fill="none" stroke="#000000" points="10.5,-47 10.5,-69 126.5,-69 126.5,-47 10.5,-47"/>
<text text-anchor="start" x="30.5" y="-54.1" font-family="Helvetica,sans-Serif" font-size="11.00" fill="#000000">VALUE_NUMBER</text>
<polygon fill="none" stroke="#000000" points="126.5,-47 126.5,-69 205.5,-69 205.5,-47 126.5,-47"/>
<text text-anchor="start" x="129.5" y="-54.7" font-family="Helvetica,sans-Serif" font-size="11.00" fill="#000000">number[38]</text>
<polygon fill="none" stroke="#000000" points="10.5,-25 10.5,-47 126.5,-47 126.5,-25 10.5,-25"/>
<text text-anchor="start" x="30.5" y="-32.1" font-family="Helvetica,sans-Serif" font-size="11.00" fill="#000000">VALUE_DATE</text>
<polygon fill="none" stroke="#000000" points="126.5,-25 126.5,-47 205.5,-47 205.5,-25 126.5,-25"/>
<text text-anchor="start" x="129.5" y="-32.7" font-family="Helvetica,sans-Serif" font-size="11.00" fill="#000000">date[7]</text>
<polygon fill="#ffffff" stroke="transparent" points="10.5,-6 10.5,-25 56.5,-25 56.5,-6 10.5,-6"/>
<polygon fill="none" stroke="#000000" points="10.5,-6 10.5,-25 56.5,-25 56.5,-6 10.5,-6"/>
<text text-anchor="start" x="13.5" y="-12.1" font-family="Helvetica,sans-Serif" font-size="11.00" fill="#000000">&lt; 0</text>
<polygon fill="#ffffff" stroke="transparent" points="56.5,-6 56.5,-25 126.5,-25 126.5,-6 56.5,-6"/>
<polygon fill="none" stroke="#000000" points="56.5,-6 56.5,-25 126.5,-25 126.5,-6 56.5,-6"/>
<text text-anchor="start" x="84.9956" y="-12.1" font-family="Helvetica,sans-Serif" font-size="11.00" fill="#000000">39 rows</text>
<polygon fill="#ffffff" stroke="transparent" points="126.5,-6 126.5,-25 205.5,-25 205.5,-6 126.5,-6"/>
<polygon fill="none" stroke="#000000" points="126.5,-6 126.5,-25 205.5,-25 205.5,-6 126.5,-6"/>
<text text-anchor="start" x="186.9053" y="-12.1" font-family="Helvetica,sans-Serif" font-size="11.00" fill="#000000">0 &gt;</text>
<polygon fill="none" stroke="#000000" stroke-width="2" points="9,-5 9,-203 206,-203 206,-5 9,-5"/>
</a>
</g>
</g>
</g>
</svg>
