<?xml version="1.0" encoding="UTF-8" standalone="no"?>
<!DOCTYPE svg PUBLIC "-//W3C//DTD SVG 1.1//EN"
 "http://www.w3.org/Graphics/SVG/1.1/DTD/svg11.dtd">
<!-- Generated by graphviz version 2.40.1 (20161225.0304)
 -->
<!-- Title: WL_SERVLET_SESSIONS Pages: 1 -->
<svg width="277pt" height="238pt"
 viewBox="0.00 0.00 277.00 238.00" xmlns="http://www.w3.org/2000/svg" xmlns:xlink="http://www.w3.org/1999/xlink">
<g id="graph0" class="graph" transform="scale(1 1) rotate(0) translate(4 234)">
<title>WL_SERVLET_SESSIONS</title>
<polygon fill="#ffffff" stroke="transparent" points="-4,4 -4,-234 273,-234 273,4 -4,4"/>
<!-- WL_SERVLET_SESSIONS -->
<g id="node1" class="node">
<title>WL_SERVLET_SESSIONS</title>
<g id="a_node1"><a xlink:href="../../tables/WL_SERVLET_SESSIONS.html" xlink:title="WL_SERVLET_SESSIONS" target="_top">
<polygon fill="#ffffff" stroke="transparent" points="8,-4 8,-226 261,-226 261,-4 8,-4"/>
<polygon fill="#f5f5f5" stroke="transparent" points="10.5,-201 10.5,-224 259.5,-224 259.5,-201 10.5,-201"/>
<polygon fill="none" stroke="#000000" points="10.5,-201 10.5,-224 259.5,-224 259.5,-201 10.5,-201"/>
<text text-anchor="start" x="15.5" y="-210.1" font-family="Helvetica,sans-Serif" font-weight="bold" font-size="11.00" fill="#000000">WL_SERVLET_SESSIONS</text>
<text text-anchor="start" x="224.5437" y="-209.1" font-family="Helvetica,sans-Serif" font-size="11.00" fill="#000000">[table]</text>
<polygon fill="none" stroke="#000000" points="10.5,-179 10.5,-201 186.5,-201 186.5,-179 10.5,-179"/>
<image xlink:href="../../images/primaryKeys.png" width="11px" height="12px" preserveAspectRatio="xMinYMin meet" x="15.5" y="-196"/>
<text text-anchor="start" x="30.5" y="-186.1" font-family="Helvetica,sans-Serif" font-size="11.00" fill="#000000">WL_ID</text>
<polygon fill="none" stroke="#000000" points="186.5,-179 186.5,-201 259.5,-201 259.5,-179 186.5,-179"/>
<text text-anchor="start" x="189.3791" y="-186.7" font-family="Helvetica,sans-Serif" font-size="11.00" fill="#000000">varchar2[100]</text>
<polygon fill="none" stroke="#000000" points="10.5,-157 10.5,-179 186.5,-179 186.5,-157 10.5,-157"/>
<image xlink:href="../../images/primaryKeys.png" width="11px" height="12px" preserveAspectRatio="xMinYMin meet" x="15.5" y="-174"/>
<text text-anchor="start" x="30.5" y="-164.1" font-family="Helvetica,sans-Serif" font-size="11.00" fill="#000000">WL_CONTEXT_PATH</text>
<polygon fill="none" stroke="#000000" points="186.5,-157 186.5,-179 259.5,-179 259.5,-157 186.5,-157"/>
<text text-anchor="start" x="189.3791" y="-164.7" font-family="Helvetica,sans-Serif" font-size="11.00" fill="#000000">varchar2[100]</text>
<polygon fill="none" stroke="#000000" points="10.5,-135 10.5,-157 186.5,-157 186.5,-135 10.5,-135"/>
<text text-anchor="start" x="30.5" y="-142.1" font-family="Helvetica,sans-Serif" font-size="11.00" fill="#000000">WL_IS_NEW</text>
<polygon fill="none" stroke="#000000" points="186.5,-135 186.5,-157 259.5,-157 259.5,-135 186.5,-135"/>
<text text-anchor="start" x="189.5" y="-142.7" font-family="Helvetica,sans-Serif" font-size="11.00" fill="#000000">char[1]</text>
<polygon fill="none" stroke="#000000" points="10.5,-113 10.5,-135 186.5,-135 186.5,-113 10.5,-113"/>
<text text-anchor="start" x="30.5" y="-120.1" font-family="Helvetica,sans-Serif" font-size="11.00" fill="#000000">WL_CREATE_TIME</text>
<polygon fill="none" stroke="#000000" points="186.5,-113 186.5,-135 259.5,-135 259.5,-113 186.5,-113"/>
<text text-anchor="start" x="189.5" y="-120.7" font-family="Helvetica,sans-Serif" font-size="11.00" fill="#000000">number[20]</text>
<polygon fill="none" stroke="#000000" points="10.5,-91 10.5,-113 186.5,-113 186.5,-91 10.5,-91"/>
<text text-anchor="start" x="30.5" y="-98.1" font-family="Helvetica,sans-Serif" font-size="11.00" fill="#000000">WL_IS_VALID</text>
<polygon fill="none" stroke="#000000" points="186.5,-91 186.5,-113 259.5,-113 259.5,-91 186.5,-91"/>
<text text-anchor="start" x="189.5" y="-98.7" font-family="Helvetica,sans-Serif" font-size="11.00" fill="#000000">char[1]</text>
<polygon fill="none" stroke="#000000" points="10.5,-69 10.5,-91 186.5,-91 186.5,-69 10.5,-69"/>
<text text-anchor="start" x="30.5" y="-76.1" font-family="Helvetica,sans-Serif" font-size="11.00" fill="#000000">WL_SESSION_VALUES</text>
<polygon fill="none" stroke="#000000" points="186.5,-69 186.5,-91 259.5,-91 259.5,-69 186.5,-69"/>
<text text-anchor="start" x="189.5" y="-76.7" font-family="Helvetica,sans-Serif" font-size="11.00" fill="#000000">long raw[0]</text>
<polygon fill="none" stroke="#000000" points="10.5,-47 10.5,-69 186.5,-69 186.5,-47 10.5,-47"/>
<text text-anchor="start" x="30.5" y="-54.1" font-family="Helvetica,sans-Serif" font-size="11.00" fill="#000000">WL_ACCESS_TIME</text>
<polygon fill="none" stroke="#000000" points="186.5,-47 186.5,-69 259.5,-69 259.5,-47 186.5,-47"/>
<text text-anchor="start" x="189.5" y="-54.7" font-family="Helvetica,sans-Serif" font-size="11.00" fill="#000000">number[20]</text>
<polygon fill="none" stroke="#000000" points="10.5,-25 10.5,-47 186.5,-47 186.5,-25 10.5,-25"/>
<text text-anchor="start" x="24.4097" y="-32.1" font-family="Helvetica,sans-Serif" font-size="11.00" fill="#000000">WL_MAX_INACTIVE_INTERVAL</text>
<polygon fill="none" stroke="#000000" points="186.5,-25 186.5,-47 259.5,-47 259.5,-25 186.5,-25"/>
<text text-anchor="start" x="189.5" y="-32.7" font-family="Helvetica,sans-Serif" font-size="11.00" fill="#000000">number[38]</text>
<polygon fill="#ffffff" stroke="transparent" points="10.5,-6 10.5,-25 89.5,-25 89.5,-6 10.5,-6"/>
<polygon fill="none" stroke="#000000" points="10.5,-6 10.5,-25 89.5,-25 89.5,-6 10.5,-6"/>
<text text-anchor="start" x="13.5" y="-12.1" font-family="Helvetica,sans-Serif" font-size="11.00" fill="#000000">&lt; 0</text>
<polygon fill="#ffffff" stroke="transparent" points="89.5,-6 89.5,-25 186.5,-25 186.5,-6 89.5,-6"/>
<polygon fill="none" stroke="#000000" points="89.5,-6 89.5,-25 186.5,-25 186.5,-6 89.5,-6"/>
<text text-anchor="start" x="151.1105" y="-12.1" font-family="Helvetica,sans-Serif" font-size="11.00" fill="#000000">0 rows</text>
<polygon fill="#ffffff" stroke="transparent" points="186.5,-6 186.5,-25 259.5,-25 259.5,-6 186.5,-6"/>
<polygon fill="none" stroke="#000000" points="186.5,-6 186.5,-25 259.5,-25 259.5,-6 186.5,-6"/>
<text text-anchor="start" x="240.9053" y="-12.1" font-family="Helvetica,sans-Serif" font-size="11.00" fill="#000000">0 &gt;</text>
<polygon fill="none" stroke="#000000" stroke-width="2" points="9,-5 9,-225 260,-225 260,-5 9,-5"/>
</a>
</g>
</g>
</g>
</svg>
