<?xml version="1.0" encoding="UTF-8" standalone="no"?>
<!DOCTYPE svg PUBLIC "-//W3C//DTD SVG 1.1//EN"
 "http://www.w3.org/Graphics/SVG/1.1/DTD/svg11.dtd">
<!-- Generated by graphviz version 2.40.1 (20161225.0304)
 -->
<!-- Title: oneDegreeRelationshipsDiagram Pages: 1 -->
<svg width="687pt" height="609pt"
 viewBox="0.00 0.00 687.00 609.20" xmlns="http://www.w3.org/2000/svg" xmlns:xlink="http://www.w3.org/1999/xlink">
<g id="graph0" class="graph" transform="scale(1 1) rotate(0) translate(4 605.2)">
<title>oneDegreeRelationshipsDiagram</title>
<polygon fill="#ffffff" stroke="transparent" points="-4,4 -4,-605.2 683,-605.2 683,4 -4,4"/>
<text text-anchor="middle" x="72.4936" y="-7.3" font-family="Helvetica,sans-Serif" font-size="11.00" fill="#000000">Generated by SchemaSpy</text>
<!-- ADDITIONAL_OFFENCE -->
<g id="node1" class="node">
<title>ADDITIONAL_OFFENCE</title>
<g id="a_node1"><a xlink:href="../../tables/ADDITIONAL_OFFENCE.html" xlink:title="ADDITIONAL_OFFENCE" target="_top">
<polygon fill="#ffffff" stroke="transparent" points="445,-98.7 445,-430.7 671,-430.7 671,-98.7 445,-98.7"/>
<polygon fill="#f5f5f5" stroke="transparent" points="447,-405.7 447,-428.7 669,-428.7 669,-405.7 447,-405.7"/>
<polygon fill="none" stroke="#000000" points="447,-405.7 447,-428.7 669,-428.7 669,-405.7 447,-405.7"/>
<text text-anchor="start" x="452" y="-414.8" font-family="Helvetica,sans-Serif" font-weight="bold" font-size="11.00" fill="#000000">ADDITIONAL_OFFENCE</text>
<text text-anchor="start" x="634.0437" y="-413.8" font-family="Helvetica,sans-Serif" font-size="11.00" fill="#000000">[table]</text>
<polygon fill="none" stroke="#000000" points="447,-383.7 447,-405.7 608,-405.7 608,-383.7 447,-383.7"/>
<image xlink:href="../../images/primaryKeys.png" width="11px" height="12px" preserveAspectRatio="xMinYMin meet" x="452" y="-400.7"/>
<text text-anchor="start" x="464.1111" y="-390.8" font-family="Helvetica,sans-Serif" font-size="11.00" fill="#000000">ADDITIONAL_OFFENCE_ID</text>
<polygon fill="none" stroke="#000000" points="608,-383.7 608,-405.7 669,-405.7 669,-383.7 608,-383.7"/>
<text text-anchor="start" x="610.6865" y="-391.4" font-family="Helvetica,sans-Serif" font-size="11.00" fill="#000000">number[38]</text>
<polygon fill="none" stroke="#000000" points="447,-361.7 447,-383.7 608,-383.7 608,-361.7 447,-361.7"/>
<image xlink:href="../../images/primaryKeys.png" width="11px" height="12px" preserveAspectRatio="xMinYMin meet" x="452" y="-378.7"/>
<text text-anchor="start" x="467" y="-368.8" font-family="Helvetica,sans-Serif" font-size="11.00" fill="#000000">OFFENCE_DATE</text>
<polygon fill="none" stroke="#000000" points="608,-361.7 608,-383.7 669,-383.7 669,-361.7 608,-361.7"/>
<text text-anchor="start" x="611" y="-369.4" font-family="Helvetica,sans-Serif" font-size="11.00" fill="#000000">date[7]</text>
<polygon fill="none" stroke="#000000" points="447,-339.7 447,-361.7 608,-361.7 608,-339.7 447,-339.7"/>
<text text-anchor="start" x="467" y="-346.8" font-family="Helvetica,sans-Serif" font-size="11.00" fill="#000000">OFFENCE_COUNT</text>
<polygon fill="none" stroke="#000000" points="608,-339.7 608,-361.7 669,-361.7 669,-339.7 608,-339.7"/>
<text text-anchor="start" x="610.6865" y="-347.4" font-family="Helvetica,sans-Serif" font-size="11.00" fill="#000000">number[38]</text>
<polygon fill="none" stroke="#000000" points="447,-317.7 447,-339.7 608,-339.7 608,-317.7 447,-317.7"/>
<image xlink:href="../../images/primaryKeys.png" width="11px" height="12px" preserveAspectRatio="xMinYMin meet" x="452" y="-334.7"/>
<text text-anchor="start" x="467" y="-324.8" font-family="Helvetica,sans-Serif" font-size="11.00" fill="#000000">EVENT_ID</text>
<polygon fill="none" stroke="#000000" points="608,-317.7 608,-339.7 669,-339.7 669,-317.7 608,-317.7"/>
<text text-anchor="start" x="610.6865" y="-325.4" font-family="Helvetica,sans-Serif" font-size="11.00" fill="#000000">number[38]</text>
<polygon fill="none" stroke="#000000" points="447,-295.7 447,-317.7 608,-317.7 608,-295.7 447,-295.7"/>
<text text-anchor="start" x="467" y="-302.8" font-family="Helvetica,sans-Serif" font-size="11.00" fill="#000000">SOFT_DELETED</text>
<polygon fill="none" stroke="#000000" points="608,-295.7 608,-317.7 669,-317.7 669,-295.7 608,-295.7"/>
<text text-anchor="start" x="610.6865" y="-303.4" font-family="Helvetica,sans-Serif" font-size="11.00" fill="#000000">number[38]</text>
<polygon fill="none" stroke="#000000" points="447,-273.7 447,-295.7 608,-295.7 608,-273.7 447,-273.7"/>
<image xlink:href="../../images/primaryKeys.png" width="11px" height="12px" preserveAspectRatio="xMinYMin meet" x="452" y="-290.7"/>
<text text-anchor="start" x="467" y="-280.8" font-family="Helvetica,sans-Serif" font-size="11.00" fill="#000000">PARTITION_AREA_ID</text>
<polygon fill="none" stroke="#000000" points="608,-273.7 608,-295.7 669,-295.7 669,-273.7 608,-273.7"/>
<text text-anchor="start" x="610.6865" y="-281.4" font-family="Helvetica,sans-Serif" font-size="11.00" fill="#000000">number[38]</text>
<polygon fill="none" stroke="#000000" points="447,-251.7 447,-273.7 608,-273.7 608,-251.7 447,-251.7"/>
<text text-anchor="start" x="467" y="-258.8" font-family="Helvetica,sans-Serif" font-size="11.00" fill="#000000">ROW_VERSION</text>
<polygon fill="none" stroke="#000000" points="608,-251.7 608,-273.7 669,-273.7 669,-251.7 608,-251.7"/>
<text text-anchor="start" x="610.6865" y="-259.4" font-family="Helvetica,sans-Serif" font-size="11.00" fill="#000000">number[38]</text>
<polygon fill="none" stroke="#000000" points="447,-229.7 447,-251.7 608,-251.7 608,-229.7 447,-229.7"/>
<text text-anchor="start" x="467" y="-236.8" font-family="Helvetica,sans-Serif" font-size="11.00" fill="#000000">CREATED_BY_USER_ID</text>
<polygon fill="none" stroke="#000000" points="608,-229.7 608,-251.7 669,-251.7 669,-229.7 608,-229.7"/>
<text text-anchor="start" x="610.6865" y="-237.4" font-family="Helvetica,sans-Serif" font-size="11.00" fill="#000000">number[38]</text>
<polygon fill="none" stroke="#000000" points="447,-207.7 447,-229.7 608,-229.7 608,-207.7 447,-207.7"/>
<text text-anchor="start" x="467" y="-214.8" font-family="Helvetica,sans-Serif" font-size="11.00" fill="#000000">CREATED_DATETIME</text>
<polygon fill="none" stroke="#000000" points="608,-207.7 608,-229.7 669,-229.7 669,-207.7 608,-207.7"/>
<text text-anchor="start" x="611" y="-215.4" font-family="Helvetica,sans-Serif" font-size="11.00" fill="#000000">date[7]</text>
<polygon fill="none" stroke="#000000" points="447,-185.7 447,-207.7 608,-207.7 608,-185.7 447,-185.7"/>
<text text-anchor="start" x="465.0235" y="-192.8" font-family="Helvetica,sans-Serif" font-size="11.00" fill="#000000">LAST_UPDATED_USER_ID</text>
<polygon fill="none" stroke="#000000" points="608,-185.7 608,-207.7 669,-207.7 669,-185.7 608,-185.7"/>
<text text-anchor="start" x="610.6865" y="-193.4" font-family="Helvetica,sans-Serif" font-size="11.00" fill="#000000">number[38]</text>
<polygon fill="none" stroke="#000000" points="447,-163.7 447,-185.7 608,-185.7 608,-163.7 447,-163.7"/>
<text text-anchor="start" x="461.0531" y="-170.8" font-family="Helvetica,sans-Serif" font-size="11.00" fill="#000000">LAST_UPDATED_DATETIME</text>
<polygon fill="none" stroke="#000000" points="608,-163.7 608,-185.7 669,-185.7 669,-163.7 608,-163.7"/>
<text text-anchor="start" x="611" y="-171.4" font-family="Helvetica,sans-Serif" font-size="11.00" fill="#000000">date[7]</text>
<polygon fill="none" stroke="#000000" points="447,-141.7 447,-163.7 608,-163.7 608,-141.7 447,-141.7"/>
<image xlink:href="../../images/primaryKeys.png" width="11px" height="12px" preserveAspectRatio="xMinYMin meet" x="452" y="-158.7"/>
<text text-anchor="start" x="467" y="-148.8" font-family="Helvetica,sans-Serif" font-size="11.00" fill="#000000">OFFENCE_ID</text>
<polygon fill="none" stroke="#000000" points="608,-141.7 608,-163.7 669,-163.7 669,-141.7 608,-141.7"/>
<text text-anchor="start" x="610.6865" y="-149.4" font-family="Helvetica,sans-Serif" font-size="11.00" fill="#000000">number[38]</text>
<polygon fill="none" stroke="#000000" points="447,-119.7 447,-141.7 608,-141.7 608,-119.7 447,-119.7"/>
<image xlink:href="../../images/primaryKeys.png" width="11px" height="12px" preserveAspectRatio="xMinYMin meet" x="452" y="-136.7"/>
<text text-anchor="start" x="467" y="-126.8" font-family="Helvetica,sans-Serif" font-size="11.00" fill="#000000">TRAINING_SESSION_ID</text>
<polygon fill="none" stroke="#000000" points="608,-119.7 608,-141.7 669,-141.7 669,-119.7 608,-119.7"/>
<text text-anchor="start" x="610.6865" y="-127.4" font-family="Helvetica,sans-Serif" font-size="11.00" fill="#000000">number[38]</text>
<polygon fill="#ffffff" stroke="transparent" points="447,-100.7 447,-119.7 513,-119.7 513,-100.7 447,-100.7"/>
<polygon fill="none" stroke="#000000" points="447,-100.7 447,-119.7 513,-119.7 513,-100.7 447,-100.7"/>
<text text-anchor="start" x="450" y="-106.8" font-family="Helvetica,sans-Serif" font-size="11.00" fill="#000000">&lt; 3</text>
<polygon fill="#ffffff" stroke="transparent" points="513,-100.7 513,-119.7 608,-119.7 608,-100.7 513,-100.7"/>
<polygon fill="none" stroke="#000000" points="513,-100.7 513,-119.7 608,-119.7 608,-100.7 513,-100.7"/>
<text text-anchor="start" x="560.3807" y="-106.8" font-family="Helvetica,sans-Serif" font-size="11.00" fill="#000000">128 rows</text>
<polygon fill="#ffffff" stroke="transparent" points="608,-100.7 608,-119.7 669,-119.7 669,-100.7 608,-100.7"/>
<polygon fill="none" stroke="#000000" points="608,-100.7 608,-119.7 669,-119.7 669,-100.7 608,-100.7"/>
<text text-anchor="start" x="650.4053" y="-106.8" font-family="Helvetica,sans-Serif" font-size="11.00" fill="#000000">0 &gt;</text>
<polygon fill="none" stroke="#000000" stroke-width="2" points="446,-99.7 446,-429.7 670,-429.7 670,-99.7 446,-99.7"/>
</a>
</g>
</g>
<!-- EVENT -->
<g id="node2" class="node">
<title>EVENT</title>
<g id="a_node2"><a xlink:href="../../tables/EVENT.html" xlink:title="EVENT" target="_top">
<polygon fill="#ffffff" stroke="transparent" points="205.5,-272.2 205.5,-597.2 389.5,-597.2 389.5,-272.2 205.5,-272.2"/>
<polygon fill="#f5f5f5" stroke="transparent" points="205.5,-573.7 205.5,-596.7 389.5,-596.7 389.5,-573.7 205.5,-573.7"/>
<polygon fill="none" stroke="#000000" points="205.5,-573.7 205.5,-596.7 389.5,-596.7 389.5,-573.7 205.5,-573.7"/>
<text text-anchor="start" x="210.5" y="-582.8" font-family="Helvetica,sans-Serif" font-weight="bold" font-size="11.00" fill="#000000">EVENT</text>
<text text-anchor="start" x="354.5437" y="-581.8" font-family="Helvetica,sans-Serif" font-size="11.00" fill="#000000">[table]</text>
<polygon fill="none" stroke="#000000" points="205.5,-551.7 205.5,-573.7 389.5,-573.7 389.5,-551.7 205.5,-551.7"/>
<image xlink:href="../../images/primaryKeys.png" width="11px" height="12px" preserveAspectRatio="xMinYMin meet" x="210.5" y="-568.7"/>
<text text-anchor="start" x="225.5" y="-558.8" font-family="Helvetica,sans-Serif" font-size="11.00" fill="#000000">EVENT_ID</text>
<polygon fill="none" stroke="#000000" points="205.5,-529.7 205.5,-551.7 389.5,-551.7 389.5,-529.7 205.5,-529.7"/>
<image xlink:href="../../images/primaryKeys.png" width="11px" height="12px" preserveAspectRatio="xMinYMin meet" x="210.5" y="-546.7"/>
<text text-anchor="start" x="224.6357" y="-536.8" font-family="Helvetica,sans-Serif" font-size="11.00" fill="#000000">CONSECUTIVE_TO_EVENT_ID</text>
<polygon fill="none" stroke="#000000" points="205.5,-507.7 205.5,-529.7 389.5,-529.7 389.5,-507.7 205.5,-507.7"/>
<image xlink:href="../../images/primaryKeys.png" width="11px" height="12px" preserveAspectRatio="xMinYMin meet" x="210.5" y="-524.7"/>
<text text-anchor="start" x="218.8447" y="-514.8" font-family="Helvetica,sans-Serif" font-size="11.00" fill="#000000">CONCURRENT_WITH_EVENT_ID</text>
<polygon fill="none" stroke="#000000" points="205.5,-485.7 205.5,-507.7 389.5,-507.7 389.5,-485.7 205.5,-485.7"/>
<image xlink:href="../../images/primaryKeys.png" width="11px" height="12px" preserveAspectRatio="xMinYMin meet" x="210.5" y="-502.7"/>
<text text-anchor="start" x="225.5" y="-492.8" font-family="Helvetica,sans-Serif" font-size="11.00" fill="#000000">OFFENDER_ID</text>
<polygon fill="none" stroke="#000000" points="205.5,-463.7 205.5,-485.7 389.5,-485.7 389.5,-463.7 205.5,-463.7"/>
<image xlink:href="../../images/primaryKeys.png" width="11px" height="12px" preserveAspectRatio="xMinYMin meet" x="210.5" y="-480.7"/>
<text text-anchor="start" x="225.5" y="-470.8" font-family="Helvetica,sans-Serif" font-size="11.00" fill="#000000">EVENT_NUMBER</text>
<polygon fill="none" stroke="#000000" points="205.5,-441.7 205.5,-463.7 389.5,-463.7 389.5,-441.7 205.5,-441.7"/>
<image xlink:href="../../images/primaryKeys.png" width="11px" height="12px" preserveAspectRatio="xMinYMin meet" x="210.5" y="-458.7"/>
<text text-anchor="start" x="225.5" y="-448.8" font-family="Helvetica,sans-Serif" font-size="11.00" fill="#000000">REFERRAL_DATE</text>
<polygon fill="none" stroke="#000000" points="205.5,-419.7 205.5,-441.7 389.5,-441.7 389.5,-419.7 205.5,-419.7"/>
<image xlink:href="../../images/primaryKeys.png" width="11px" height="12px" preserveAspectRatio="xMinYMin meet" x="210.5" y="-436.7"/>
<text text-anchor="start" x="225.5" y="-426.8" font-family="Helvetica,sans-Serif" font-size="11.00" fill="#000000">SOFT_DELETED</text>
<polygon fill="none" stroke="#000000" points="205.5,-397.7 205.5,-419.7 389.5,-419.7 389.5,-397.7 205.5,-397.7"/>
<image xlink:href="../../images/primaryKeys.png" width="11px" height="12px" preserveAspectRatio="xMinYMin meet" x="210.5" y="-414.7"/>
<text text-anchor="start" x="225.5" y="-404.8" font-family="Helvetica,sans-Serif" font-size="11.00" fill="#000000">PARTITION_AREA_ID</text>
<polygon fill="none" stroke="#000000" points="205.5,-375.7 205.5,-397.7 389.5,-397.7 389.5,-375.7 205.5,-375.7"/>
<image xlink:href="../../images/primaryKeys.png" width="11px" height="12px" preserveAspectRatio="xMinYMin meet" x="210.5" y="-392.7"/>
<text text-anchor="start" x="225.5" y="-382.8" font-family="Helvetica,sans-Serif" font-size="11.00" fill="#000000">CREATED_DATETIME</text>
<polygon fill="none" stroke="#000000" points="205.5,-353.7 205.5,-375.7 389.5,-375.7 389.5,-353.7 205.5,-353.7"/>
<image xlink:href="../../images/primaryKeys.png" width="11px" height="12px" preserveAspectRatio="xMinYMin meet" x="210.5" y="-370.7"/>
<text text-anchor="start" x="225.5" y="-360.8" font-family="Helvetica,sans-Serif" font-size="11.00" fill="#000000">TRAINING_SESSION_ID</text>
<polygon fill="none" stroke="#000000" points="205.5,-331.7 205.5,-353.7 389.5,-353.7 389.5,-331.7 205.5,-331.7"/>
<image xlink:href="../../images/primaryKeys.png" width="11px" height="12px" preserveAspectRatio="xMinYMin meet" x="210.5" y="-348.7"/>
<text text-anchor="start" x="225.5" y="-338.8" font-family="Helvetica,sans-Serif" font-size="11.00" fill="#000000">ACTIVE_FLAG</text>
<polygon fill="none" stroke="#000000" points="205.5,-309.7 205.5,-331.7 389.5,-331.7 389.5,-309.7 205.5,-309.7"/>
<image xlink:href="../../images/primaryKeys.png" width="11px" height="12px" preserveAspectRatio="xMinYMin meet" x="210.5" y="-326.7"/>
<text text-anchor="start" x="225.5" y="-316.8" font-family="Helvetica,sans-Serif" font-size="11.00" fill="#000000">COURT_ID</text>
<polygon fill="none" stroke="#000000" points="205.5,-290.7 205.5,-309.7 389.5,-309.7 389.5,-290.7 205.5,-290.7"/>
<text text-anchor="start" x="208.5" y="-296.8" font-family="Helvetica,sans-Serif" font-size="11.00" fill="#000000">...</text>
<polygon fill="#ffffff" stroke="transparent" points="205.5,-271.7 205.5,-290.7 258.5,-290.7 258.5,-271.7 205.5,-271.7"/>
<polygon fill="none" stroke="#000000" points="205.5,-271.7 205.5,-290.7 258.5,-290.7 258.5,-271.7 205.5,-271.7"/>
<text text-anchor="start" x="208.5" y="-277.8" font-family="Helvetica,sans-Serif" font-size="11.00" fill="#000000">&lt; 5</text>
<polygon fill="#ffffff" stroke="transparent" points="258.5,-271.7 258.5,-290.7 346.5,-290.7 346.5,-271.7 258.5,-271.7"/>
<polygon fill="none" stroke="#000000" points="258.5,-271.7 258.5,-290.7 346.5,-290.7 346.5,-271.7 258.5,-271.7"/>
<text text-anchor="start" x="277.4791" y="-277.8" font-family="Helvetica,sans-Serif" font-size="11.00" fill="#000000">410,679 rows</text>
<polygon fill="#ffffff" stroke="transparent" points="346.5,-271.7 346.5,-290.7 389.5,-290.7 389.5,-271.7 346.5,-271.7"/>
<polygon fill="none" stroke="#000000" points="346.5,-271.7 346.5,-290.7 389.5,-290.7 389.5,-271.7 346.5,-271.7"/>
<text text-anchor="start" x="364.7904" y="-277.8" font-family="Helvetica,sans-Serif" font-size="11.00" fill="#000000">26 &gt;</text>
</a>
</g>
</g>
<!-- ADDITIONAL_OFFENCE&#45;&gt;EVENT -->
<g id="edge1" class="edge">
<title>ADDITIONAL_OFFENCE:w&#45;&gt;EVENT:e</title>
<path fill="none" stroke="#000000" d="M432.6565,-330.449C355.1395,-351.8622 491.1555,-562.7 389.5,-562.7"/>
<polygon fill="#000000" stroke="#000000" points="439.0588,-329.6684 447.4358,-332.2735 443.0294,-329.1842 447,-328.7 447,-328.7 447,-328.7 443.0294,-329.1842 446.5642,-325.1265 439.0588,-329.6684 439.0588,-329.6684"/>
<ellipse fill="none" stroke="#000000" cx="435.8823" cy="-330.0557" rx="3.2" ry="3.2"/>
</g>
<!-- R_OFFENCE -->
<g id="node3" class="node">
<title>R_OFFENCE</title>
<g id="a_node3"><a xlink:href="../../tables/R_OFFENCE.html" xlink:title="R_OFFENCE" target="_top">
<polygon fill="#ffffff" stroke="transparent" points="199,-38.2 199,-187.2 396,-187.2 396,-38.2 199,-38.2"/>
<polygon fill="#f5f5f5" stroke="transparent" points="199.5,-163.7 199.5,-186.7 396.5,-186.7 396.5,-163.7 199.5,-163.7"/>
<polygon fill="none" stroke="#000000" points="199.5,-163.7 199.5,-186.7 396.5,-186.7 396.5,-163.7 199.5,-163.7"/>
<text text-anchor="start" x="204.5" y="-172.8" font-family="Helvetica,sans-Serif" font-weight="bold" font-size="11.00" fill="#000000">R_OFFENCE</text>
<text text-anchor="start" x="361.5437" y="-171.8" font-family="Helvetica,sans-Serif" font-size="11.00" fill="#000000">[table]</text>
<polygon fill="none" stroke="#000000" points="199.5,-141.7 199.5,-163.7 396.5,-163.7 396.5,-141.7 199.5,-141.7"/>
<image xlink:href="../../images/primaryKeys.png" width="11px" height="12px" preserveAspectRatio="xMinYMin meet" x="204.5" y="-158.7"/>
<text text-anchor="start" x="219.5" y="-148.8" font-family="Helvetica,sans-Serif" font-size="11.00" fill="#000000">OFFENCE_ID</text>
<polygon fill="none" stroke="#000000" points="199.5,-119.7 199.5,-141.7 396.5,-141.7 396.5,-119.7 199.5,-119.7"/>
<image xlink:href="../../images/primaryKeys.png" width="11px" height="12px" preserveAspectRatio="xMinYMin meet" x="204.5" y="-136.7"/>
<text text-anchor="start" x="219.5" y="-126.8" font-family="Helvetica,sans-Serif" font-size="11.00" fill="#000000">CODE</text>
<polygon fill="none" stroke="#000000" points="199.5,-97.7 199.5,-119.7 396.5,-119.7 396.5,-97.7 199.5,-97.7"/>
<image xlink:href="../../images/primaryKeys.png" width="11px" height="12px" preserveAspectRatio="xMinYMin meet" x="204.5" y="-114.7"/>
<text text-anchor="start" x="217.4967" y="-104.8" font-family="Helvetica,sans-Serif" font-size="11.00" fill="#000000">OGRS_OFFENCE_CATEGORY_ID</text>
<polygon fill="none" stroke="#000000" points="199.5,-75.7 199.5,-97.7 396.5,-97.7 396.5,-75.7 199.5,-75.7"/>
<image xlink:href="../../images/primaryKeys.png" width="11px" height="12px" preserveAspectRatio="xMinYMin meet" x="204.5" y="-92.7"/>
<text text-anchor="start" x="219.5" y="-82.8" font-family="Helvetica,sans-Serif" font-size="11.00" fill="#000000">TRAINING_SESSION_ID</text>
<polygon fill="none" stroke="#000000" points="199.5,-56.7 199.5,-75.7 396.5,-75.7 396.5,-56.7 199.5,-56.7"/>
<text text-anchor="start" x="202.5" y="-62.8" font-family="Helvetica,sans-Serif" font-size="11.00" fill="#000000">...</text>
<polygon fill="#ffffff" stroke="transparent" points="199.5,-37.7 199.5,-56.7 268.5,-56.7 268.5,-37.7 199.5,-37.7"/>
<polygon fill="none" stroke="#000000" points="199.5,-37.7 199.5,-56.7 268.5,-56.7 268.5,-37.7 199.5,-37.7"/>
<text text-anchor="start" x="202.5" y="-43.8" font-family="Helvetica,sans-Serif" font-size="11.00" fill="#000000">&lt; 1</text>
<polygon fill="#ffffff" stroke="transparent" points="268.5,-37.7 268.5,-56.7 351.5,-56.7 351.5,-37.7 268.5,-37.7"/>
<polygon fill="none" stroke="#000000" points="268.5,-37.7 268.5,-56.7 351.5,-56.7 351.5,-37.7 268.5,-37.7"/>
<text text-anchor="start" x="294.7089" y="-43.8" font-family="Helvetica,sans-Serif" font-size="11.00" fill="#000000">1,770 rows</text>
<polygon fill="#ffffff" stroke="transparent" points="351.5,-37.7 351.5,-56.7 396.5,-56.7 396.5,-37.7 351.5,-37.7"/>
<polygon fill="none" stroke="#000000" points="351.5,-37.7 351.5,-56.7 396.5,-56.7 396.5,-37.7 351.5,-37.7"/>
<text text-anchor="start" x="377.9053" y="-43.8" font-family="Helvetica,sans-Serif" font-size="11.00" fill="#000000">4 &gt;</text>
</a>
</g>
</g>
<!-- ADDITIONAL_OFFENCE&#45;&gt;R_OFFENCE -->
<g id="edge2" class="edge">
<title>ADDITIONAL_OFFENCE:w&#45;&gt;R_OFFENCE:e</title>
<path fill="none" stroke="#000000" d="M432.4203,-152.7C420.5435,-152.7 413.158,-152.7 396.5,-152.7"/>
<polygon fill="#000000" stroke="#000000" points="439,-152.7001 447,-156.3 443,-152.7 447,-152.7 447,-152.7 447,-152.7 443,-152.7 447,-149.1 439,-152.7001 439,-152.7001"/>
<ellipse fill="none" stroke="#000000" cx="435.8" cy="-152.7001" rx="3.2" ry="3.2"/>
</g>
<!-- PARTITION_AREA -->
<g id="node4" class="node">
<title>PARTITION_AREA</title>
<g id="a_node4"><a xlink:href="../../tables/PARTITION_AREA.html" xlink:title="PARTITION_AREA" target="_top">
<polygon fill="#ffffff" stroke="transparent" points="8,-257.2 8,-362.2 150,-362.2 150,-257.2 8,-257.2"/>
<polygon fill="#f5f5f5" stroke="transparent" points="8,-338.7 8,-361.7 150,-361.7 150,-338.7 8,-338.7"/>
<polygon fill="none" stroke="#000000" points="8,-338.7 8,-361.7 150,-361.7 150,-338.7 8,-338.7"/>
<text text-anchor="start" x="13" y="-347.8" font-family="Helvetica,sans-Serif" font-weight="bold" font-size="11.00" fill="#000000">PARTITION_AREA</text>
<text text-anchor="start" x="115.0437" y="-346.8" font-family="Helvetica,sans-Serif" font-size="11.00" fill="#000000">[table]</text>
<polygon fill="none" stroke="#000000" points="8,-316.7 8,-338.7 150,-338.7 150,-316.7 8,-316.7"/>
<image xlink:href="../../images/primaryKeys.png" width="11px" height="12px" preserveAspectRatio="xMinYMin meet" x="13" y="-333.7"/>
<text text-anchor="start" x="28" y="-323.8" font-family="Helvetica,sans-Serif" font-size="11.00" fill="#000000">PARTITION_AREA_ID</text>
<polygon fill="none" stroke="#000000" points="8,-294.7 8,-316.7 150,-316.7 150,-294.7 8,-294.7"/>
<image xlink:href="../../images/primaryKeys.png" width="11px" height="12px" preserveAspectRatio="xMinYMin meet" x="13" y="-311.7"/>
<text text-anchor="start" x="24.1624" y="-301.8" font-family="Helvetica,sans-Serif" font-size="11.00" fill="#000000">TRAINING_SESSION_ID</text>
<polygon fill="none" stroke="#000000" points="8,-275.7 8,-294.7 150,-294.7 150,-275.7 8,-275.7"/>
<text text-anchor="start" x="11" y="-281.8" font-family="Helvetica,sans-Serif" font-size="11.00" fill="#000000">...</text>
<polygon fill="#ffffff" stroke="transparent" points="8,-256.7 8,-275.7 49,-275.7 49,-256.7 8,-256.7"/>
<polygon fill="none" stroke="#000000" points="8,-256.7 8,-275.7 49,-275.7 49,-256.7 8,-256.7"/>
<text text-anchor="start" x="11" y="-262.8" font-family="Helvetica,sans-Serif" font-size="11.00" fill="#000000"> &#160;</text>
<polygon fill="#ffffff" stroke="transparent" points="49,-256.7 49,-275.7 108,-275.7 108,-256.7 49,-256.7"/>
<polygon fill="none" stroke="#000000" points="49,-256.7 49,-275.7 108,-275.7 108,-256.7 49,-256.7"/>
<text text-anchor="start" x="66.4956" y="-262.8" font-family="Helvetica,sans-Serif" font-size="11.00" fill="#000000">44 rows</text>
<polygon fill="#ffffff" stroke="transparent" points="108,-256.7 108,-275.7 150,-275.7 150,-256.7 108,-256.7"/>
<polygon fill="none" stroke="#000000" points="108,-256.7 108,-275.7 150,-275.7 150,-256.7 108,-256.7"/>
<text text-anchor="start" x="125.2904" y="-262.8" font-family="Helvetica,sans-Serif" font-size="11.00" fill="#000000">82 &gt;</text>
</a>
</g>
</g>
<!-- ADDITIONAL_OFFENCE&#45;&gt;PARTITION_AREA -->
<g id="edge3" class="edge">
<title>ADDITIONAL_OFFENCE:w&#45;&gt;PARTITION_AREA:e</title>
<path fill="none" stroke="#000000" d="M432.8479,-281.1641C423.517,-275.7122 419.1102,-265.4872 404,-261.7 312.1737,-238.6846 273.7368,-215.6957 191,-261.7 160.8193,-278.4815 184.5325,-327.7 150,-327.7"/>
<polygon fill="#000000" stroke="#000000" points="439.2386,-282.7608 446.1273,-288.1926 443.1193,-283.7304 447,-284.7 447,-284.7 447,-284.7 443.1193,-283.7304 447.8727,-281.2074 439.2386,-282.7608 439.2386,-282.7608"/>
<ellipse fill="none" stroke="#000000" cx="436.134" cy="-281.9851" rx="3.2" ry="3.2"/>
</g>
<!-- EVENT&#45;&gt;PARTITION_AREA -->
<g id="edge4" class="edge">
<title>EVENT:w&#45;&gt;PARTITION_AREA:e</title>
<path fill="none" stroke="#000000" d="M191.4446,-404.5718C169.1401,-388.0656 187.6735,-327.7 150,-327.7"/>
<polygon fill="#000000" stroke="#000000" points="197.8242,-406.4455 204.4855,-412.1541 201.6621,-407.5728 205.5,-408.7 205.5,-408.7 205.5,-408.7 201.6621,-407.5728 206.5145,-405.2459 197.8242,-406.4455 197.8242,-406.4455"/>
<ellipse fill="none" stroke="#000000" cx="194.7539" cy="-405.5438" rx="3.2" ry="3.2"/>
</g>
</g>
</svg>
