<?xml version="1.0" encoding="UTF-8" standalone="no"?>
<!DOCTYPE svg PUBLIC "-//W3C//DTD SVG 1.1//EN"
 "http://www.w3.org/Graphics/SVG/1.1/DTD/svg11.dtd">
<!-- Generated by graphviz version 2.40.1 (20161225.0304)
 -->
<!-- Title: oneDegreeRelationshipsDiagram Pages: 1 -->
<svg width="763pt" height="620pt"
 viewBox="0.00 0.00 763.00 620.20" xmlns="http://www.w3.org/2000/svg" xmlns:xlink="http://www.w3.org/1999/xlink">
<g id="graph0" class="graph" transform="scale(1 1) rotate(0) translate(4 616.2)">
<title>oneDegreeRelationshipsDiagram</title>
<polygon fill="#ffffff" stroke="transparent" points="-4,4 -4,-616.2 759,-616.2 759,4 -4,4"/>
<text text-anchor="middle" x="72.4936" y="-7.3" font-family="Helvetica,sans-Serif" font-size="11.00" fill="#000000">Generated by SchemaSpy</text>
<!-- AP_AUDIT_REGISTER -->
<g id="node1" class="node">
<title>AP_AUDIT_REGISTER</title>
<g id="a_node1"><a xlink:href="../../tables/AP_AUDIT_REGISTER.html" xlink:title="AP_AUDIT_REGISTER" target="_top">
<polygon fill="#ffffff" stroke="transparent" points="472,-208.7 472,-518.7 747,-518.7 747,-208.7 472,-208.7"/>
<polygon fill="#f5f5f5" stroke="transparent" points="474.5,-493.7 474.5,-516.7 745.5,-516.7 745.5,-493.7 474.5,-493.7"/>
<polygon fill="none" stroke="#000000" points="474.5,-493.7 474.5,-516.7 745.5,-516.7 745.5,-493.7 474.5,-493.7"/>
<text text-anchor="start" x="479.5" y="-502.8" font-family="Helvetica,sans-Serif" font-weight="bold" font-size="11.00" fill="#000000">AP_AUDIT_REGISTER</text>
<text text-anchor="start" x="710.5437" y="-501.8" font-family="Helvetica,sans-Serif" font-size="11.00" fill="#000000">[table]</text>
<polygon fill="none" stroke="#000000" points="474.5,-471.7 474.5,-493.7 684.5,-493.7 684.5,-471.7 474.5,-471.7"/>
<image xlink:href="../../images/primaryKeys.png" width="11px" height="12px" preserveAspectRatio="xMinYMin meet" x="479.5" y="-488.7"/>
<text text-anchor="start" x="494.5" y="-478.8" font-family="Helvetica,sans-Serif" font-size="11.00" fill="#000000">AP_AUDIT_REGISTER_ID</text>
<polygon fill="none" stroke="#000000" points="684.5,-471.7 684.5,-493.7 745.5,-493.7 745.5,-471.7 684.5,-471.7"/>
<text text-anchor="start" x="687.1865" y="-479.4" font-family="Helvetica,sans-Serif" font-size="11.00" fill="#000000">number[38]</text>
<polygon fill="none" stroke="#000000" points="474.5,-449.7 474.5,-471.7 684.5,-471.7 684.5,-449.7 474.5,-449.7"/>
<image xlink:href="../../images/primaryKeys.png" width="11px" height="12px" preserveAspectRatio="xMinYMin meet" x="479.5" y="-466.7"/>
<text text-anchor="start" x="494.5" y="-456.8" font-family="Helvetica,sans-Serif" font-size="11.00" fill="#000000">APPROVED_PREMISES_ID</text>
<polygon fill="none" stroke="#000000" points="684.5,-449.7 684.5,-471.7 745.5,-471.7 745.5,-449.7 684.5,-449.7"/>
<text text-anchor="start" x="687.1865" y="-457.4" font-family="Helvetica,sans-Serif" font-size="11.00" fill="#000000">number[38]</text>
<polygon fill="none" stroke="#000000" points="474.5,-427.7 474.5,-449.7 684.5,-449.7 684.5,-427.7 474.5,-427.7"/>
<text text-anchor="start" x="494.5" y="-434.8" font-family="Helvetica,sans-Serif" font-size="11.00" fill="#000000">RESIDENTS</text>
<polygon fill="none" stroke="#000000" points="684.5,-427.7 684.5,-449.7 745.5,-449.7 745.5,-427.7 684.5,-427.7"/>
<text text-anchor="start" x="687.1865" y="-435.4" font-family="Helvetica,sans-Serif" font-size="11.00" fill="#000000">number[38]</text>
<polygon fill="none" stroke="#000000" points="474.5,-405.7 474.5,-427.7 684.5,-427.7 684.5,-405.7 474.5,-405.7"/>
<text text-anchor="start" x="487.6915" y="-412.8" font-family="Helvetica,sans-Serif" font-size="11.00" fill="#000000">LAST_RESIDENCY_AUDIT_DATETIME</text>
<polygon fill="none" stroke="#000000" points="684.5,-405.7 684.5,-427.7 745.5,-427.7 745.5,-405.7 684.5,-405.7"/>
<text text-anchor="start" x="687.5" y="-413.4" font-family="Helvetica,sans-Serif" font-size="11.00" fill="#000000">date[7]</text>
<polygon fill="none" stroke="#000000" points="474.5,-383.7 474.5,-405.7 684.5,-405.7 684.5,-383.7 474.5,-383.7"/>
<image xlink:href="../../images/primaryKeys.png" width="11px" height="12px" preserveAspectRatio="xMinYMin meet" x="479.5" y="-400.7"/>
<text text-anchor="start" x="494.5" y="-390.8" font-family="Helvetica,sans-Serif" font-size="11.00" fill="#000000">PARTITION_AREA_ID</text>
<polygon fill="none" stroke="#000000" points="684.5,-383.7 684.5,-405.7 745.5,-405.7 745.5,-383.7 684.5,-383.7"/>
<text text-anchor="start" x="687.1865" y="-391.4" font-family="Helvetica,sans-Serif" font-size="11.00" fill="#000000">number[38]</text>
<polygon fill="none" stroke="#000000" points="474.5,-361.7 474.5,-383.7 684.5,-383.7 684.5,-361.7 474.5,-361.7"/>
<text text-anchor="start" x="494.5" y="-368.8" font-family="Helvetica,sans-Serif" font-size="11.00" fill="#000000">CREATED_BY_USER_ID</text>
<polygon fill="none" stroke="#000000" points="684.5,-361.7 684.5,-383.7 745.5,-383.7 745.5,-361.7 684.5,-361.7"/>
<text text-anchor="start" x="687.1865" y="-369.4" font-family="Helvetica,sans-Serif" font-size="11.00" fill="#000000">number[38]</text>
<polygon fill="none" stroke="#000000" points="474.5,-339.7 474.5,-361.7 684.5,-361.7 684.5,-339.7 474.5,-339.7"/>
<text text-anchor="start" x="494.5" y="-346.8" font-family="Helvetica,sans-Serif" font-size="11.00" fill="#000000">CREATED_DATETIME</text>
<polygon fill="none" stroke="#000000" points="684.5,-339.7 684.5,-361.7 745.5,-361.7 745.5,-339.7 684.5,-339.7"/>
<text text-anchor="start" x="687.5" y="-347.4" font-family="Helvetica,sans-Serif" font-size="11.00" fill="#000000">date[7]</text>
<polygon fill="none" stroke="#000000" points="474.5,-317.7 474.5,-339.7 684.5,-339.7 684.5,-317.7 474.5,-317.7"/>
<text text-anchor="start" x="494.5" y="-324.8" font-family="Helvetica,sans-Serif" font-size="11.00" fill="#000000">LAST_UPDATED_USER_ID</text>
<polygon fill="none" stroke="#000000" points="684.5,-317.7 684.5,-339.7 745.5,-339.7 745.5,-317.7 684.5,-317.7"/>
<text text-anchor="start" x="687.1865" y="-325.4" font-family="Helvetica,sans-Serif" font-size="11.00" fill="#000000">number[38]</text>
<polygon fill="none" stroke="#000000" points="474.5,-295.7 474.5,-317.7 684.5,-317.7 684.5,-295.7 474.5,-295.7"/>
<text text-anchor="start" x="494.5" y="-302.8" font-family="Helvetica,sans-Serif" font-size="11.00" fill="#000000">LAST_UPDATED_DATETIME</text>
<polygon fill="none" stroke="#000000" points="684.5,-295.7 684.5,-317.7 745.5,-317.7 745.5,-295.7 684.5,-295.7"/>
<text text-anchor="start" x="687.5" y="-303.4" font-family="Helvetica,sans-Serif" font-size="11.00" fill="#000000">date[7]</text>
<polygon fill="none" stroke="#000000" points="474.5,-273.7 474.5,-295.7 684.5,-295.7 684.5,-273.7 474.5,-273.7"/>
<text text-anchor="start" x="494.5" y="-280.8" font-family="Helvetica,sans-Serif" font-size="11.00" fill="#000000">ROW_VERSION</text>
<polygon fill="none" stroke="#000000" points="684.5,-273.7 684.5,-295.7 745.5,-295.7 745.5,-273.7 684.5,-273.7"/>
<text text-anchor="start" x="687.1865" y="-281.4" font-family="Helvetica,sans-Serif" font-size="11.00" fill="#000000">number[38]</text>
<polygon fill="none" stroke="#000000" points="474.5,-251.7 474.5,-273.7 684.5,-273.7 684.5,-251.7 474.5,-251.7"/>
<image xlink:href="../../images/primaryKeys.png" width="11px" height="12px" preserveAspectRatio="xMinYMin meet" x="479.5" y="-268.7"/>
<text text-anchor="start" x="494.5" y="-258.8" font-family="Helvetica,sans-Serif" font-size="11.00" fill="#000000">TRAINING_SESSION_ID</text>
<polygon fill="none" stroke="#000000" points="684.5,-251.7 684.5,-273.7 745.5,-273.7 745.5,-251.7 684.5,-251.7"/>
<text text-anchor="start" x="687.1865" y="-259.4" font-family="Helvetica,sans-Serif" font-size="11.00" fill="#000000">number[38]</text>
<polygon fill="none" stroke="#000000" points="474.5,-229.7 474.5,-251.7 684.5,-251.7 684.5,-229.7 474.5,-229.7"/>
<image xlink:href="../../images/primaryKeys.png" width="11px" height="12px" preserveAspectRatio="xMinYMin meet" x="479.5" y="-246.7"/>
<text text-anchor="start" x="494.5" y="-236.8" font-family="Helvetica,sans-Serif" font-size="11.00" fill="#000000">USER_ID</text>
<polygon fill="none" stroke="#000000" points="684.5,-229.7 684.5,-251.7 745.5,-251.7 745.5,-229.7 684.5,-229.7"/>
<text text-anchor="start" x="687.1865" y="-237.4" font-family="Helvetica,sans-Serif" font-size="11.00" fill="#000000">number[38]</text>
<polygon fill="#ffffff" stroke="transparent" points="474.5,-210.7 474.5,-229.7 570.5,-229.7 570.5,-210.7 474.5,-210.7"/>
<polygon fill="none" stroke="#000000" points="474.5,-210.7 474.5,-229.7 570.5,-229.7 570.5,-210.7 474.5,-210.7"/>
<text text-anchor="start" x="477.5" y="-216.8" font-family="Helvetica,sans-Serif" font-size="11.00" fill="#000000">&lt; 3</text>
<polygon fill="#ffffff" stroke="transparent" points="570.5,-210.7 570.5,-229.7 684.5,-229.7 684.5,-210.7 570.5,-210.7"/>
<polygon fill="none" stroke="#000000" points="570.5,-210.7 570.5,-229.7 684.5,-229.7 684.5,-210.7 570.5,-210.7"/>
<text text-anchor="start" x="649.1105" y="-216.8" font-family="Helvetica,sans-Serif" font-size="11.00" fill="#000000">2 rows</text>
<polygon fill="#ffffff" stroke="transparent" points="684.5,-210.7 684.5,-229.7 745.5,-229.7 745.5,-210.7 684.5,-210.7"/>
<polygon fill="none" stroke="#000000" points="684.5,-210.7 684.5,-229.7 745.5,-229.7 745.5,-210.7 684.5,-210.7"/>
<text text-anchor="start" x="726.9053" y="-216.8" font-family="Helvetica,sans-Serif" font-size="11.00" fill="#000000">0 &gt;</text>
<polygon fill="none" stroke="#000000" stroke-width="2" points="473,-209.7 473,-517.7 746,-517.7 746,-209.7 473,-209.7"/>
</a>
</g>
</g>
<!-- R_APPROVED_PREMISES -->
<g id="node2" class="node">
<title>R_APPROVED_PREMISES</title>
<g id="a_node2"><a xlink:href="../../tables/R_APPROVED_PREMISES.html" xlink:title="R_APPROVED_PREMISES" target="_top">
<polygon fill="#ffffff" stroke="transparent" points="212,-371.2 212,-608.2 410,-608.2 410,-371.2 212,-371.2"/>
<polygon fill="#f5f5f5" stroke="transparent" points="212,-584.7 212,-607.7 410,-607.7 410,-584.7 212,-584.7"/>
<polygon fill="none" stroke="#000000" points="212,-584.7 212,-607.7 410,-607.7 410,-584.7 212,-584.7"/>
<text text-anchor="start" x="217" y="-593.8" font-family="Helvetica,sans-Serif" font-weight="bold" font-size="11.00" fill="#000000">R_APPROVED_PREMISES</text>
<text text-anchor="start" x="375.0437" y="-592.8" font-family="Helvetica,sans-Serif" font-size="11.00" fill="#000000">[table]</text>
<polygon fill="none" stroke="#000000" points="212,-562.7 212,-584.7 410,-584.7 410,-562.7 212,-562.7"/>
<image xlink:href="../../images/primaryKeys.png" width="11px" height="12px" preserveAspectRatio="xMinYMin meet" x="217" y="-579.7"/>
<text text-anchor="start" x="232" y="-569.8" font-family="Helvetica,sans-Serif" font-size="11.00" fill="#000000">APPROVED_PREMISES_ID</text>
<polygon fill="none" stroke="#000000" points="212,-540.7 212,-562.7 410,-562.7 410,-540.7 212,-540.7"/>
<image xlink:href="../../images/primaryKeys.png" width="11px" height="12px" preserveAspectRatio="xMinYMin meet" x="217" y="-557.7"/>
<text text-anchor="start" x="232" y="-547.8" font-family="Helvetica,sans-Serif" font-size="11.00" fill="#000000">ADDRESS_ID</text>
<polygon fill="none" stroke="#000000" points="212,-518.7 212,-540.7 410,-540.7 410,-518.7 212,-518.7"/>
<image xlink:href="../../images/primaryKeys.png" width="11px" height="12px" preserveAspectRatio="xMinYMin meet" x="217" y="-535.7"/>
<text text-anchor="start" x="232" y="-525.8" font-family="Helvetica,sans-Serif" font-size="11.00" fill="#000000">PARTITION_AREA_ID</text>
<polygon fill="none" stroke="#000000" points="212,-496.7 212,-518.7 410,-518.7 410,-496.7 212,-496.7"/>
<image xlink:href="../../images/primaryKeys.png" width="11px" height="12px" preserveAspectRatio="xMinYMin meet" x="217" y="-513.7"/>
<text text-anchor="start" x="232" y="-503.8" font-family="Helvetica,sans-Serif" font-size="11.00" fill="#000000">TRAINING_SESSION_ID</text>
<polygon fill="none" stroke="#000000" points="212,-474.7 212,-496.7 410,-496.7 410,-474.7 212,-474.7"/>
<image xlink:href="../../images/primaryKeys.png" width="11px" height="12px" preserveAspectRatio="xMinYMin meet" x="217" y="-491.7"/>
<text text-anchor="start" x="230.4863" y="-481.8" font-family="Helvetica,sans-Serif" font-size="11.00" fill="#000000">APPROVED_PREMISES_TYPE_ID</text>
<polygon fill="none" stroke="#000000" points="212,-452.7 212,-474.7 410,-474.7 410,-452.7 212,-452.7"/>
<image xlink:href="../../images/primaryKeys.png" width="11px" height="12px" preserveAspectRatio="xMinYMin meet" x="217" y="-469.7"/>
<text text-anchor="start" x="232" y="-459.8" font-family="Helvetica,sans-Serif" font-size="11.00" fill="#000000">NATIONAL_HOSTEL_CODE</text>
<polygon fill="none" stroke="#000000" points="212,-430.7 212,-452.7 410,-452.7 410,-430.7 212,-430.7"/>
<image xlink:href="../../images/primaryKeys.png" width="11px" height="12px" preserveAspectRatio="xMinYMin meet" x="217" y="-447.7"/>
<text text-anchor="start" x="232" y="-437.8" font-family="Helvetica,sans-Serif" font-size="11.00" fill="#000000">GENDER_SUITABILITY_ID</text>
<polygon fill="none" stroke="#000000" points="212,-408.7 212,-430.7 410,-430.7 410,-408.7 212,-408.7"/>
<image xlink:href="../../images/primaryKeys.png" width="11px" height="12px" preserveAspectRatio="xMinYMin meet" x="217" y="-425.7"/>
<text text-anchor="start" x="232" y="-415.8" font-family="Helvetica,sans-Serif" font-size="11.00" fill="#000000">PROBATION_AREA_ID</text>
<polygon fill="none" stroke="#000000" points="212,-389.7 212,-408.7 410,-408.7 410,-389.7 212,-389.7"/>
<text text-anchor="start" x="215" y="-395.8" font-family="Helvetica,sans-Serif" font-size="11.00" fill="#000000">...</text>
<polygon fill="#ffffff" stroke="transparent" points="212,-370.7 212,-389.7 283,-389.7 283,-370.7 212,-370.7"/>
<polygon fill="none" stroke="#000000" points="212,-370.7 212,-389.7 283,-389.7 283,-370.7 212,-370.7"/>
<text text-anchor="start" x="215" y="-376.8" font-family="Helvetica,sans-Serif" font-size="11.00" fill="#000000">&lt; 6</text>
<polygon fill="#ffffff" stroke="transparent" points="283,-370.7 283,-389.7 358,-389.7 358,-370.7 283,-370.7"/>
<polygon fill="none" stroke="#000000" points="283,-370.7 283,-389.7 358,-389.7 358,-370.7 283,-370.7"/>
<text text-anchor="start" x="310.3807" y="-376.8" font-family="Helvetica,sans-Serif" font-size="11.00" fill="#000000">159 rows</text>
<polygon fill="#ffffff" stroke="transparent" points="358,-370.7 358,-389.7 410,-389.7 410,-370.7 358,-370.7"/>
<polygon fill="none" stroke="#000000" points="358,-370.7 358,-389.7 410,-389.7 410,-370.7 358,-370.7"/>
<text text-anchor="start" x="385.2904" y="-376.8" font-family="Helvetica,sans-Serif" font-size="11.00" fill="#000000">12 &gt;</text>
</a>
</g>
</g>
<!-- AP_AUDIT_REGISTER&#45;&gt;R_APPROVED_PREMISES -->
<g id="edge1" class="edge">
<title>AP_AUDIT_REGISTER:w&#45;&gt;R_APPROVED_PREMISES:e</title>
<path fill="none" stroke="#000000" d="M460.0247,-463.96C425.9391,-482.4875 461.9546,-573.7 410,-573.7"/>
<polygon fill="#000000" stroke="#000000" points="466.6955,-462.4577 475.291,-464.212 470.5977,-461.5789 474.5,-460.7 474.5,-460.7 474.5,-460.7 470.5977,-461.5789 473.709,-457.188 466.6955,-462.4577 466.6955,-462.4577"/>
<ellipse fill="none" stroke="#000000" cx="463.5737" cy="-463.1608" rx="3.2" ry="3.2"/>
</g>
<!-- PARTITION_AREA -->
<g id="node3" class="node">
<title>PARTITION_AREA</title>
<g id="a_node3"><a xlink:href="../../tables/PARTITION_AREA.html" xlink:title="PARTITION_AREA" target="_top">
<polygon fill="#ffffff" stroke="transparent" points="8,-367.2 8,-472.2 150,-472.2 150,-367.2 8,-367.2"/>
<polygon fill="#f5f5f5" stroke="transparent" points="8,-448.7 8,-471.7 150,-471.7 150,-448.7 8,-448.7"/>
<polygon fill="none" stroke="#000000" points="8,-448.7 8,-471.7 150,-471.7 150,-448.7 8,-448.7"/>
<text text-anchor="start" x="13" y="-457.8" font-family="Helvetica,sans-Serif" font-weight="bold" font-size="11.00" fill="#000000">PARTITION_AREA</text>
<text text-anchor="start" x="115.0437" y="-456.8" font-family="Helvetica,sans-Serif" font-size="11.00" fill="#000000">[table]</text>
<polygon fill="none" stroke="#000000" points="8,-426.7 8,-448.7 150,-448.7 150,-426.7 8,-426.7"/>
<image xlink:href="../../images/primaryKeys.png" width="11px" height="12px" preserveAspectRatio="xMinYMin meet" x="13" y="-443.7"/>
<text text-anchor="start" x="28" y="-433.8" font-family="Helvetica,sans-Serif" font-size="11.00" fill="#000000">PARTITION_AREA_ID</text>
<polygon fill="none" stroke="#000000" points="8,-404.7 8,-426.7 150,-426.7 150,-404.7 8,-404.7"/>
<image xlink:href="../../images/primaryKeys.png" width="11px" height="12px" preserveAspectRatio="xMinYMin meet" x="13" y="-421.7"/>
<text text-anchor="start" x="24.1624" y="-411.8" font-family="Helvetica,sans-Serif" font-size="11.00" fill="#000000">TRAINING_SESSION_ID</text>
<polygon fill="none" stroke="#000000" points="8,-385.7 8,-404.7 150,-404.7 150,-385.7 8,-385.7"/>
<text text-anchor="start" x="11" y="-391.8" font-family="Helvetica,sans-Serif" font-size="11.00" fill="#000000">...</text>
<polygon fill="#ffffff" stroke="transparent" points="8,-366.7 8,-385.7 49,-385.7 49,-366.7 8,-366.7"/>
<polygon fill="none" stroke="#000000" points="8,-366.7 8,-385.7 49,-385.7 49,-366.7 8,-366.7"/>
<text text-anchor="start" x="11" y="-372.8" font-family="Helvetica,sans-Serif" font-size="11.00" fill="#000000"> &#160;</text>
<polygon fill="#ffffff" stroke="transparent" points="49,-366.7 49,-385.7 108,-385.7 108,-366.7 49,-366.7"/>
<polygon fill="none" stroke="#000000" points="49,-366.7 49,-385.7 108,-385.7 108,-366.7 49,-366.7"/>
<text text-anchor="start" x="66.4956" y="-372.8" font-family="Helvetica,sans-Serif" font-size="11.00" fill="#000000">44 rows</text>
<polygon fill="#ffffff" stroke="transparent" points="108,-366.7 108,-385.7 150,-385.7 150,-366.7 108,-366.7"/>
<polygon fill="none" stroke="#000000" points="108,-366.7 108,-385.7 150,-385.7 150,-366.7 108,-366.7"/>
<text text-anchor="start" x="125.2904" y="-372.8" font-family="Helvetica,sans-Serif" font-size="11.00" fill="#000000">82 &gt;</text>
</a>
</g>
</g>
<!-- AP_AUDIT_REGISTER&#45;&gt;PARTITION_AREA -->
<g id="edge2" class="edge">
<title>AP_AUDIT_REGISTER:w&#45;&gt;PARTITION_AREA:e</title>
<path fill="none" stroke="#000000" d="M460.6136,-390.5113C450.3662,-382.8217 448.4004,-366.6934 431,-360.7 330.1482,-325.9626 282.4474,-305.7896 191,-360.7 157.7607,-380.6589 188.7713,-437.7 150,-437.7"/>
<polygon fill="#000000" stroke="#000000" points="466.8409,-392.3896 473.4603,-398.1466 470.6704,-393.5448 474.5,-394.7 474.5,-394.7 474.5,-394.7 470.6704,-393.5448 475.5397,-391.2534 466.8409,-392.3896 466.8409,-392.3896"/>
<ellipse fill="none" stroke="#000000" cx="463.7772" cy="-391.4655" rx="3.2" ry="3.2"/>
</g>
<!-- USER_ -->
<g id="node4" class="node">
<title>USER_</title>
<g id="a_node4"><a xlink:href="../../tables/USER_.html" xlink:title="USER_" target="_top">
<polygon fill="#ffffff" stroke="transparent" points="199,-38.2 199,-275.2 423,-275.2 423,-38.2 199,-38.2"/>
<polygon fill="#f5f5f5" stroke="transparent" points="199,-251.7 199,-274.7 423,-274.7 423,-251.7 199,-251.7"/>
<polygon fill="none" stroke="#000000" points="199,-251.7 199,-274.7 423,-274.7 423,-251.7 199,-251.7"/>
<text text-anchor="start" x="204" y="-260.8" font-family="Helvetica,sans-Serif" font-weight="bold" font-size="11.00" fill="#000000">USER_</text>
<text text-anchor="start" x="388.0437" y="-259.8" font-family="Helvetica,sans-Serif" font-size="11.00" fill="#000000">[table]</text>
<polygon fill="none" stroke="#000000" points="199,-229.7 199,-251.7 423,-251.7 423,-229.7 199,-229.7"/>
<image xlink:href="../../images/primaryKeys.png" width="11px" height="12px" preserveAspectRatio="xMinYMin meet" x="204" y="-246.7"/>
<text text-anchor="start" x="219" y="-236.8" font-family="Helvetica,sans-Serif" font-size="11.00" fill="#000000">USER_ID</text>
<polygon fill="none" stroke="#000000" points="199,-207.7 199,-229.7 423,-229.7 423,-207.7 199,-207.7"/>
<image xlink:href="../../images/primaryKeys.png" width="11px" height="12px" preserveAspectRatio="xMinYMin meet" x="204" y="-224.7"/>
<text text-anchor="start" x="219" y="-214.8" font-family="Helvetica,sans-Serif" font-size="11.00" fill="#000000">STAFF_ID</text>
<polygon fill="none" stroke="#000000" points="199,-185.7 199,-207.7 423,-207.7 423,-185.7 199,-185.7"/>
<image xlink:href="../../images/primaryKeys.png" width="11px" height="12px" preserveAspectRatio="xMinYMin meet" x="204" y="-202.7"/>
<text text-anchor="start" x="219" y="-192.8" font-family="Helvetica,sans-Serif" font-size="11.00" fill="#000000">PROVIDER_EMPLOYEE_ID</text>
<polygon fill="none" stroke="#000000" points="199,-163.7 199,-185.7 423,-185.7 423,-163.7 199,-163.7"/>
<image xlink:href="../../images/primaryKeys.png" width="11px" height="12px" preserveAspectRatio="xMinYMin meet" x="204" y="-180.7"/>
<text text-anchor="start" x="219" y="-170.8" font-family="Helvetica,sans-Serif" font-size="11.00" fill="#000000">DISTINGUISHED_NAME</text>
<polygon fill="none" stroke="#000000" points="199,-141.7 199,-163.7 423,-163.7 423,-141.7 199,-141.7"/>
<image xlink:href="../../images/primaryKeys.png" width="11px" height="12px" preserveAspectRatio="xMinYMin meet" x="204" y="-158.7"/>
<text text-anchor="start" x="219" y="-148.8" font-family="Helvetica,sans-Serif" font-size="11.00" fill="#000000">EXTERNAL_PROVIDER_ID</text>
<polygon fill="none" stroke="#000000" points="199,-119.7 199,-141.7 423,-141.7 423,-119.7 199,-119.7"/>
<image xlink:href="../../images/primaryKeys.png" width="11px" height="12px" preserveAspectRatio="xMinYMin meet" x="204" y="-136.7"/>
<text text-anchor="start" x="219" y="-126.8" font-family="Helvetica,sans-Serif" font-size="11.00" fill="#000000">TRAINING_SESSION_ID</text>
<polygon fill="none" stroke="#000000" points="199,-97.7 199,-119.7 423,-119.7 423,-97.7 199,-97.7"/>
<image xlink:href="../../images/primaryKeys.png" width="11px" height="12px" preserveAspectRatio="xMinYMin meet" x="204" y="-114.7"/>
<text text-anchor="start" x="219" y="-104.8" font-family="Helvetica,sans-Serif" font-size="11.00" fill="#000000">ORGANISATION_ID</text>
<polygon fill="none" stroke="#000000" points="199,-75.7 199,-97.7 423,-97.7 423,-75.7 199,-75.7"/>
<image xlink:href="../../images/primaryKeys.png" width="11px" height="12px" preserveAspectRatio="xMinYMin meet" x="204" y="-92.7"/>
<text text-anchor="start" x="219" y="-82.8" font-family="Helvetica,sans-Serif" font-size="11.00" fill="#000000">SC_PROVIDER_ID</text>
<polygon fill="none" stroke="#000000" points="199,-56.7 199,-75.7 423,-75.7 423,-56.7 199,-56.7"/>
<text text-anchor="start" x="202" y="-62.8" font-family="Helvetica,sans-Serif" font-size="11.00" fill="#000000">...</text>
<polygon fill="#ffffff" stroke="transparent" points="199,-37.7 199,-56.7 278,-56.7 278,-37.7 199,-37.7"/>
<polygon fill="none" stroke="#000000" points="199,-37.7 199,-56.7 278,-56.7 278,-37.7 199,-37.7"/>
<text text-anchor="start" x="202" y="-43.8" font-family="Helvetica,sans-Serif" font-size="11.00" fill="#000000">&lt; 5</text>
<polygon fill="#ffffff" stroke="transparent" points="278,-37.7 278,-56.7 366,-56.7 366,-37.7 278,-37.7"/>
<polygon fill="none" stroke="#000000" points="278,-37.7 278,-56.7 366,-56.7 366,-37.7 278,-37.7"/>
<text text-anchor="start" x="309.2089" y="-43.8" font-family="Helvetica,sans-Serif" font-size="11.00" fill="#000000">6,968 rows</text>
<polygon fill="#ffffff" stroke="transparent" points="366,-37.7 366,-56.7 423,-56.7 423,-37.7 366,-37.7"/>
<polygon fill="none" stroke="#000000" points="366,-37.7 366,-56.7 423,-56.7 423,-37.7 366,-37.7"/>
<text text-anchor="start" x="398.2904" y="-43.8" font-family="Helvetica,sans-Serif" font-size="11.00" fill="#000000">11 &gt;</text>
</a>
</g>
</g>
<!-- AP_AUDIT_REGISTER&#45;&gt;USER_ -->
<g id="edge3" class="edge">
<title>AP_AUDIT_REGISTER:w&#45;&gt;USER_:e</title>
<path fill="none" stroke="#000000" d="M460.0156,-240.7C447.6771,-240.7 440.1667,-240.7 423,-240.7"/>
<polygon fill="#000000" stroke="#000000" points="466.5,-240.7001 474.5,-244.3 470.5,-240.7 474.5,-240.7 474.5,-240.7 474.5,-240.7 470.5,-240.7 474.5,-237.1 466.5,-240.7001 466.5,-240.7001"/>
<ellipse fill="none" stroke="#000000" cx="463.3" cy="-240.7001" rx="3.2" ry="3.2"/>
</g>
<!-- R_APPROVED_PREMISES&#45;&gt;PARTITION_AREA -->
<g id="edge4" class="edge">
<title>R_APPROVED_PREMISES:w&#45;&gt;PARTITION_AREA:e</title>
<path fill="none" stroke="#000000" d="M197.9287,-526.2058C170.0943,-509.4009 193.5291,-437.7 150,-437.7"/>
<polygon fill="#000000" stroke="#000000" points="204.2358,-527.772 211.1324,-533.1939 208.1179,-528.736 212,-529.7 212,-529.7 212,-529.7 208.1179,-528.736 212.8676,-526.2061 204.2358,-527.772 204.2358,-527.772"/>
<ellipse fill="none" stroke="#000000" cx="201.1301" cy="-527.0007" rx="3.2" ry="3.2"/>
</g>
</g>
</svg>
