<?xml version="1.0" encoding="UTF-8" standalone="no"?>
<!DOCTYPE svg PUBLIC "-//W3C//DTD SVG 1.1//EN"
 "http://www.w3.org/Graphics/SVG/1.1/DTD/svg11.dtd">
<!-- Generated by graphviz version 2.40.1 (20161225.0304)
 -->
<!-- Title: oneDegreeRelationshipsDiagram Pages: 1 -->
<svg width="943pt" height="762pt"
 viewBox="0.00 0.00 943.00 762.20" xmlns="http://www.w3.org/2000/svg" xmlns:xlink="http://www.w3.org/1999/xlink">
<g id="graph0" class="graph" transform="scale(1 1) rotate(0) translate(4 758.2)">
<title>oneDegreeRelationshipsDiagram</title>
<polygon fill="#ffffff" stroke="transparent" points="-4,4 -4,-758.2 939,-758.2 939,4 -4,4"/>
<text text-anchor="middle" x="72.4936" y="-7.3" font-family="Helvetica,sans-Serif" font-size="11.00" fill="#000000">Generated by SchemaSpy</text>
<!-- BOROUGH -->
<g id="node1" class="node">
<title>BOROUGH</title>
<g id="a_node1"><a xlink:href="../../tables/BOROUGH.html" xlink:title="BOROUGH" target="_top">
<polygon fill="#ffffff" stroke="transparent" points="269,-318.7 269,-606.7 507,-606.7 507,-318.7 269,-318.7"/>
<polygon fill="#f5f5f5" stroke="transparent" points="271,-581.7 271,-604.7 505,-604.7 505,-581.7 271,-581.7"/>
<polygon fill="none" stroke="#000000" points="271,-581.7 271,-604.7 505,-604.7 505,-581.7 271,-581.7"/>
<text text-anchor="start" x="276" y="-590.8" font-family="Helvetica,sans-Serif" font-weight="bold" font-size="11.00" fill="#000000">BOROUGH</text>
<text text-anchor="start" x="470.0437" y="-589.8" font-family="Helvetica,sans-Serif" font-size="11.00" fill="#000000">[table]</text>
<polygon fill="none" stroke="#000000" points="271,-559.7 271,-581.7 432,-581.7 432,-559.7 271,-559.7"/>
<image xlink:href="../../images/primaryKeys.png" width="11px" height="12px" preserveAspectRatio="xMinYMin meet" x="276" y="-576.7"/>
<text text-anchor="start" x="291" y="-566.8" font-family="Helvetica,sans-Serif" font-size="11.00" fill="#000000">BOROUGH_ID</text>
<polygon fill="none" stroke="#000000" points="432,-559.7 432,-581.7 505,-581.7 505,-559.7 432,-559.7"/>
<text text-anchor="start" x="435" y="-567.4" font-family="Helvetica,sans-Serif" font-size="11.00" fill="#000000">number[38]</text>
<polygon fill="none" stroke="#000000" points="271,-537.7 271,-559.7 432,-559.7 432,-537.7 271,-537.7"/>
<image xlink:href="../../images/primaryKeys.png" width="11px" height="12px" preserveAspectRatio="xMinYMin meet" x="276" y="-554.7"/>
<text text-anchor="start" x="291" y="-544.8" font-family="Helvetica,sans-Serif" font-size="11.00" fill="#000000">CODE</text>
<polygon fill="none" stroke="#000000" points="432,-537.7 432,-559.7 505,-559.7 505,-537.7 432,-537.7"/>
<text text-anchor="start" x="435" y="-545.4" font-family="Helvetica,sans-Serif" font-size="11.00" fill="#000000">varchar2[20]</text>
<polygon fill="none" stroke="#000000" points="271,-515.7 271,-537.7 432,-537.7 432,-515.7 271,-515.7"/>
<text text-anchor="start" x="291" y="-522.8" font-family="Helvetica,sans-Serif" font-size="11.00" fill="#000000">DESCRIPTION</text>
<polygon fill="none" stroke="#000000" points="432,-515.7 432,-537.7 505,-537.7 505,-515.7 432,-515.7"/>
<text text-anchor="start" x="434.8791" y="-523.4" font-family="Helvetica,sans-Serif" font-size="11.00" fill="#000000">varchar2[100]</text>
<polygon fill="none" stroke="#000000" points="271,-493.7 271,-515.7 432,-515.7 432,-493.7 271,-493.7"/>
<text text-anchor="start" x="291" y="-500.8" font-family="Helvetica,sans-Serif" font-size="11.00" fill="#000000">SELECTABLE</text>
<polygon fill="none" stroke="#000000" points="432,-493.7 432,-515.7 505,-515.7 505,-493.7 432,-493.7"/>
<text text-anchor="start" x="435" y="-501.4" font-family="Helvetica,sans-Serif" font-size="11.00" fill="#000000">char[1]</text>
<polygon fill="none" stroke="#000000" points="271,-471.7 271,-493.7 432,-493.7 432,-471.7 271,-471.7"/>
<text text-anchor="start" x="291" y="-478.8" font-family="Helvetica,sans-Serif" font-size="11.00" fill="#000000">ROW_VERSION</text>
<polygon fill="none" stroke="#000000" points="432,-471.7 432,-493.7 505,-493.7 505,-471.7 432,-471.7"/>
<text text-anchor="start" x="435" y="-479.4" font-family="Helvetica,sans-Serif" font-size="11.00" fill="#000000">number[38]</text>
<polygon fill="none" stroke="#000000" points="271,-449.7 271,-471.7 432,-471.7 432,-449.7 271,-449.7"/>
<text text-anchor="start" x="291" y="-456.8" font-family="Helvetica,sans-Serif" font-size="11.00" fill="#000000">CREATED_DATETIME</text>
<polygon fill="none" stroke="#000000" points="432,-449.7 432,-471.7 505,-471.7 505,-449.7 432,-449.7"/>
<text text-anchor="start" x="435" y="-457.4" font-family="Helvetica,sans-Serif" font-size="11.00" fill="#000000">date[7]</text>
<polygon fill="none" stroke="#000000" points="271,-427.7 271,-449.7 432,-449.7 432,-427.7 271,-427.7"/>
<text text-anchor="start" x="291" y="-434.8" font-family="Helvetica,sans-Serif" font-size="11.00" fill="#000000">CREATED_BY_USER_ID</text>
<polygon fill="none" stroke="#000000" points="432,-427.7 432,-449.7 505,-449.7 505,-427.7 432,-427.7"/>
<text text-anchor="start" x="435" y="-435.4" font-family="Helvetica,sans-Serif" font-size="11.00" fill="#000000">number[38]</text>
<polygon fill="none" stroke="#000000" points="271,-405.7 271,-427.7 432,-427.7 432,-405.7 271,-405.7"/>
<text text-anchor="start" x="285.0531" y="-412.8" font-family="Helvetica,sans-Serif" font-size="11.00" fill="#000000">LAST_UPDATED_DATETIME</text>
<polygon fill="none" stroke="#000000" points="432,-405.7 432,-427.7 505,-427.7 505,-405.7 432,-405.7"/>
<text text-anchor="start" x="435" y="-413.4" font-family="Helvetica,sans-Serif" font-size="11.00" fill="#000000">date[7]</text>
<polygon fill="none" stroke="#000000" points="271,-383.7 271,-405.7 432,-405.7 432,-383.7 271,-383.7"/>
<text text-anchor="start" x="289.0235" y="-390.8" font-family="Helvetica,sans-Serif" font-size="11.00" fill="#000000">LAST_UPDATED_USER_ID</text>
<polygon fill="none" stroke="#000000" points="432,-383.7 432,-405.7 505,-405.7 505,-383.7 432,-383.7"/>
<text text-anchor="start" x="435" y="-391.4" font-family="Helvetica,sans-Serif" font-size="11.00" fill="#000000">number[38]</text>
<polygon fill="none" stroke="#000000" points="271,-361.7 271,-383.7 432,-383.7 432,-361.7 271,-361.7"/>
<image xlink:href="../../images/primaryKeys.png" width="11px" height="12px" preserveAspectRatio="xMinYMin meet" x="276" y="-378.7"/>
<text text-anchor="start" x="291" y="-368.8" font-family="Helvetica,sans-Serif" font-size="11.00" fill="#000000">TRAINING_SESSION_ID</text>
<polygon fill="none" stroke="#000000" points="432,-361.7 432,-383.7 505,-383.7 505,-361.7 432,-361.7"/>
<text text-anchor="start" x="435" y="-369.4" font-family="Helvetica,sans-Serif" font-size="11.00" fill="#000000">number[38]</text>
<polygon fill="none" stroke="#000000" points="271,-339.7 271,-361.7 432,-361.7 432,-339.7 271,-339.7"/>
<image xlink:href="../../images/primaryKeys.png" width="11px" height="12px" preserveAspectRatio="xMinYMin meet" x="276" y="-356.7"/>
<text text-anchor="start" x="291" y="-346.8" font-family="Helvetica,sans-Serif" font-size="11.00" fill="#000000">PROBATION_AREA_ID</text>
<polygon fill="none" stroke="#000000" points="432,-339.7 432,-361.7 505,-361.7 505,-339.7 432,-339.7"/>
<text text-anchor="start" x="435" y="-347.4" font-family="Helvetica,sans-Serif" font-size="11.00" fill="#000000">number[38]</text>
<polygon fill="#ffffff" stroke="transparent" points="271,-320.7 271,-339.7 332,-339.7 332,-320.7 271,-320.7"/>
<polygon fill="none" stroke="#000000" points="271,-320.7 271,-339.7 332,-339.7 332,-320.7 271,-320.7"/>
<text text-anchor="start" x="274" y="-326.8" font-family="Helvetica,sans-Serif" font-size="11.00" fill="#000000">&lt; 1</text>
<polygon fill="#ffffff" stroke="transparent" points="332,-320.7 332,-339.7 432,-339.7 432,-320.7 332,-320.7"/>
<polygon fill="none" stroke="#000000" points="332,-320.7 332,-339.7 432,-339.7 432,-320.7 332,-320.7"/>
<text text-anchor="start" x="375.2089" y="-326.8" font-family="Helvetica,sans-Serif" font-size="11.00" fill="#000000">1,678 rows</text>
<polygon fill="#ffffff" stroke="transparent" points="432,-320.7 432,-339.7 505,-339.7 505,-320.7 432,-320.7"/>
<polygon fill="none" stroke="#000000" points="432,-320.7 432,-339.7 505,-339.7 505,-320.7 432,-320.7"/>
<text text-anchor="start" x="486.4053" y="-326.8" font-family="Helvetica,sans-Serif" font-size="11.00" fill="#000000">3 &gt;</text>
<polygon fill="none" stroke="#000000" stroke-width="2" points="270,-319.7 270,-605.7 506,-605.7 506,-319.7 270,-319.7"/>
</a>
</g>
</g>
<!-- PROBATION_AREA -->
<g id="node2" class="node">
<title>PROBATION_AREA</title>
<g id="a_node2"><a xlink:href="../../tables/PROBATION_AREA.html" xlink:title="PROBATION_AREA" target="_top">
<polygon fill="#ffffff" stroke="transparent" points="8,-38.2 8,-385.2 220,-385.2 220,-38.2 8,-38.2"/>
<polygon fill="#f5f5f5" stroke="transparent" points="8,-361.7 8,-384.7 220,-384.7 220,-361.7 8,-361.7"/>
<polygon fill="none" stroke="#000000" points="8,-361.7 8,-384.7 220,-384.7 220,-361.7 8,-361.7"/>
<text text-anchor="start" x="13" y="-370.8" font-family="Helvetica,sans-Serif" font-weight="bold" font-size="11.00" fill="#000000">PROBATION_AREA</text>
<text text-anchor="start" x="185.0437" y="-369.8" font-family="Helvetica,sans-Serif" font-size="11.00" fill="#000000">[table]</text>
<polygon fill="none" stroke="#000000" points="8,-339.7 8,-361.7 220,-361.7 220,-339.7 8,-339.7"/>
<image xlink:href="../../images/primaryKeys.png" width="11px" height="12px" preserveAspectRatio="xMinYMin meet" x="13" y="-356.7"/>
<text text-anchor="start" x="28" y="-346.8" font-family="Helvetica,sans-Serif" font-size="11.00" fill="#000000">PROBATION_AREA_ID</text>
<polygon fill="none" stroke="#000000" points="8,-317.7 8,-339.7 220,-339.7 220,-317.7 8,-317.7"/>
<image xlink:href="../../images/primaryKeys.png" width="11px" height="12px" preserveAspectRatio="xMinYMin meet" x="13" y="-334.7"/>
<text text-anchor="start" x="28" y="-324.8" font-family="Helvetica,sans-Serif" font-size="11.00" fill="#000000">CODE</text>
<polygon fill="none" stroke="#000000" points="8,-295.7 8,-317.7 220,-317.7 220,-295.7 8,-295.7"/>
<image xlink:href="../../images/primaryKeys.png" width="11px" height="12px" preserveAspectRatio="xMinYMin meet" x="13" y="-312.7"/>
<text text-anchor="start" x="28" y="-302.8" font-family="Helvetica,sans-Serif" font-size="11.00" fill="#000000">FORM_20_CODE</text>
<polygon fill="none" stroke="#000000" points="8,-273.7 8,-295.7 220,-295.7 220,-273.7 8,-273.7"/>
<image xlink:href="../../images/primaryKeys.png" width="11px" height="12px" preserveAspectRatio="xMinYMin meet" x="13" y="-290.7"/>
<text text-anchor="start" x="28" y="-280.8" font-family="Helvetica,sans-Serif" font-size="11.00" fill="#000000">HO_AREA_CODE</text>
<polygon fill="none" stroke="#000000" points="8,-251.7 8,-273.7 220,-273.7 220,-251.7 8,-251.7"/>
<image xlink:href="../../images/primaryKeys.png" width="11px" height="12px" preserveAspectRatio="xMinYMin meet" x="13" y="-268.7"/>
<text text-anchor="start" x="28" y="-258.8" font-family="Helvetica,sans-Serif" font-size="11.00" fill="#000000">TRAINING_SESSION_ID</text>
<polygon fill="none" stroke="#000000" points="8,-229.7 8,-251.7 220,-251.7 220,-229.7 8,-229.7"/>
<image xlink:href="../../images/primaryKeys.png" width="11px" height="12px" preserveAspectRatio="xMinYMin meet" x="13" y="-246.7"/>
<text text-anchor="start" x="28" y="-236.8" font-family="Helvetica,sans-Serif" font-size="11.00" fill="#000000">ORGANISATION_ID</text>
<polygon fill="none" stroke="#000000" points="8,-207.7 8,-229.7 220,-229.7 220,-207.7 8,-207.7"/>
<image xlink:href="../../images/primaryKeys.png" width="11px" height="12px" preserveAspectRatio="xMinYMin meet" x="13" y="-224.7"/>
<text text-anchor="start" x="28" y="-214.8" font-family="Helvetica,sans-Serif" font-size="11.00" fill="#000000">ADDRESS_ID</text>
<polygon fill="none" stroke="#000000" points="8,-185.7 8,-207.7 220,-207.7 220,-185.7 8,-185.7"/>
<image xlink:href="../../images/primaryKeys.png" width="11px" height="12px" preserveAspectRatio="xMinYMin meet" x="13" y="-202.7"/>
<text text-anchor="start" x="28" y="-192.8" font-family="Helvetica,sans-Serif" font-size="11.00" fill="#000000">SPG_ACTIVE_ID</text>
<polygon fill="none" stroke="#000000" points="8,-163.7 8,-185.7 220,-185.7 220,-163.7 8,-163.7"/>
<image xlink:href="../../images/primaryKeys.png" width="11px" height="12px" preserveAspectRatio="xMinYMin meet" x="13" y="-180.7"/>
<text text-anchor="start" x="28" y="-170.8" font-family="Helvetica,sans-Serif" font-size="11.00" fill="#000000">INSTITUTION_ID</text>
<polygon fill="none" stroke="#000000" points="8,-141.7 8,-163.7 220,-163.7 220,-141.7 8,-141.7"/>
<image xlink:href="../../images/primaryKeys.png" width="11px" height="12px" preserveAspectRatio="xMinYMin meet" x="13" y="-158.7"/>
<text text-anchor="start" x="28" y="-148.8" font-family="Helvetica,sans-Serif" font-size="11.00" fill="#000000">ESTABLISHMENT</text>
<polygon fill="none" stroke="#000000" points="8,-119.7 8,-141.7 220,-141.7 220,-119.7 8,-119.7"/>
<image xlink:href="../../images/primaryKeys.png" width="11px" height="12px" preserveAspectRatio="xMinYMin meet" x="13" y="-136.7"/>
<text text-anchor="start" x="28" y="-126.8" font-family="Helvetica,sans-Serif" font-size="11.00" fill="#000000">DEFAULT_TRANSFER_TEAM_ID</text>
<polygon fill="none" stroke="#000000" points="8,-97.7 8,-119.7 220,-119.7 220,-97.7 8,-97.7"/>
<image xlink:href="../../images/primaryKeys.png" width="11px" height="12px" preserveAspectRatio="xMinYMin meet" x="13" y="-114.7"/>
<text text-anchor="start" x="28" y="-104.8" font-family="Helvetica,sans-Serif" font-size="11.00" fill="#000000">DEFAULT_COURT_TEAM_ID</text>
<polygon fill="none" stroke="#000000" points="8,-75.7 8,-97.7 220,-97.7 220,-75.7 8,-75.7"/>
<image xlink:href="../../images/primaryKeys.png" width="11px" height="12px" preserveAspectRatio="xMinYMin meet" x="13" y="-92.7"/>
<text text-anchor="start" x="28" y="-82.8" font-family="Helvetica,sans-Serif" font-size="11.00" fill="#000000">DEFAULT_POSTCODE_TEAM_ID</text>
<polygon fill="none" stroke="#000000" points="8,-56.7 8,-75.7 220,-75.7 220,-56.7 8,-56.7"/>
<text text-anchor="start" x="11" y="-62.8" font-family="Helvetica,sans-Serif" font-size="11.00" fill="#000000">...</text>
<polygon fill="#ffffff" stroke="transparent" points="8,-37.7 8,-56.7 86,-56.7 86,-37.7 8,-37.7"/>
<polygon fill="none" stroke="#000000" points="8,-37.7 8,-56.7 86,-56.7 86,-37.7 8,-37.7"/>
<text text-anchor="start" x="11" y="-43.8" font-family="Helvetica,sans-Serif" font-size="11.00" fill="#000000">&lt; 8</text>
<polygon fill="#ffffff" stroke="transparent" points="86,-37.7 86,-56.7 164,-56.7 164,-37.7 86,-37.7"/>
<polygon fill="none" stroke="#000000" points="86,-37.7 86,-56.7 164,-56.7 164,-37.7 86,-37.7"/>
<text text-anchor="start" x="116.3807" y="-43.8" font-family="Helvetica,sans-Serif" font-size="11.00" fill="#000000">223 rows</text>
<polygon fill="#ffffff" stroke="transparent" points="164,-37.7 164,-56.7 220,-56.7 220,-37.7 164,-37.7"/>
<polygon fill="none" stroke="#000000" points="164,-37.7 164,-56.7 220,-56.7 220,-37.7 164,-37.7"/>
<text text-anchor="start" x="195.2904" y="-43.8" font-family="Helvetica,sans-Serif" font-size="11.00" fill="#000000">59 &gt;</text>
</a>
</g>
</g>
<!-- BOROUGH&#45;&gt;PROBATION_AREA -->
<g id="edge1" class="edge">
<title>BOROUGH:w&#45;&gt;PROBATION_AREA:e</title>
<path fill="none" stroke="#000000" d="M256.276,-350.7C244.2815,-350.7 236.8229,-350.7 220,-350.7"/>
<polygon fill="#000000" stroke="#000000" points="263,-350.7001 271,-354.3 267,-350.7 271,-350.7 271,-350.7 271,-350.7 267,-350.7 271,-347.1 263,-350.7001 263,-350.7001"/>
<ellipse fill="none" stroke="#000000" cx="259.8" cy="-350.7001" rx="3.2" ry="3.2"/>
</g>
<!-- COURT -->
<g id="node3" class="node">
<title>COURT</title>
<g id="a_node3"><a xlink:href="../../tables/COURT.html" xlink:title="COURT" target="_top">
<polygon fill="#ffffff" stroke="transparent" points="766,-513.2 766,-750.2 927,-750.2 927,-513.2 766,-513.2"/>
<polygon fill="#f5f5f5" stroke="transparent" points="766.5,-726.7 766.5,-749.7 927.5,-749.7 927.5,-726.7 766.5,-726.7"/>
<polygon fill="none" stroke="#000000" points="766.5,-726.7 766.5,-749.7 927.5,-749.7 927.5,-726.7 766.5,-726.7"/>
<text text-anchor="start" x="771.5" y="-735.8" font-family="Helvetica,sans-Serif" font-weight="bold" font-size="11.00" fill="#000000">COURT</text>
<text text-anchor="start" x="892.5437" y="-734.8" font-family="Helvetica,sans-Serif" font-size="11.00" fill="#000000">[table]</text>
<polygon fill="none" stroke="#000000" points="766.5,-704.7 766.5,-726.7 927.5,-726.7 927.5,-704.7 766.5,-704.7"/>
<image xlink:href="../../images/primaryKeys.png" width="11px" height="12px" preserveAspectRatio="xMinYMin meet" x="771.5" y="-721.7"/>
<text text-anchor="start" x="786.5" y="-711.8" font-family="Helvetica,sans-Serif" font-size="11.00" fill="#000000">COURT_ID</text>
<polygon fill="none" stroke="#000000" points="766.5,-682.7 766.5,-704.7 927.5,-704.7 927.5,-682.7 766.5,-682.7"/>
<image xlink:href="../../images/primaryKeys.png" width="11px" height="12px" preserveAspectRatio="xMinYMin meet" x="771.5" y="-699.7"/>
<text text-anchor="start" x="786.5" y="-689.8" font-family="Helvetica,sans-Serif" font-size="11.00" fill="#000000">CODE</text>
<polygon fill="none" stroke="#000000" points="766.5,-660.7 766.5,-682.7 927.5,-682.7 927.5,-660.7 766.5,-660.7"/>
<image xlink:href="../../images/primaryKeys.png" width="11px" height="12px" preserveAspectRatio="xMinYMin meet" x="771.5" y="-677.7"/>
<text text-anchor="start" x="786.5" y="-667.8" font-family="Helvetica,sans-Serif" font-size="11.00" fill="#000000">COURT_TYPE_ID</text>
<polygon fill="none" stroke="#000000" points="766.5,-638.7 766.5,-660.7 927.5,-660.7 927.5,-638.7 766.5,-638.7"/>
<image xlink:href="../../images/primaryKeys.png" width="11px" height="12px" preserveAspectRatio="xMinYMin meet" x="771.5" y="-655.7"/>
<text text-anchor="start" x="786.5" y="-645.8" font-family="Helvetica,sans-Serif" font-size="11.00" fill="#000000">TRAINING_SESSION_ID</text>
<polygon fill="none" stroke="#000000" points="766.5,-616.7 766.5,-638.7 927.5,-638.7 927.5,-616.7 766.5,-616.7"/>
<image xlink:href="../../images/primaryKeys.png" width="11px" height="12px" preserveAspectRatio="xMinYMin meet" x="771.5" y="-633.7"/>
<text text-anchor="start" x="786.5" y="-623.8" font-family="Helvetica,sans-Serif" font-size="11.00" fill="#000000">PROBATION_AREA_ID</text>
<polygon fill="none" stroke="#000000" points="766.5,-594.7 766.5,-616.7 927.5,-616.7 927.5,-594.7 766.5,-594.7"/>
<image xlink:href="../../images/primaryKeys.png" width="11px" height="12px" preserveAspectRatio="xMinYMin meet" x="771.5" y="-611.7"/>
<text text-anchor="start" x="786.5" y="-601.8" font-family="Helvetica,sans-Serif" font-size="11.00" fill="#000000">BOROUGH_ID</text>
<polygon fill="none" stroke="#000000" points="766.5,-572.7 766.5,-594.7 927.5,-594.7 927.5,-572.7 766.5,-572.7"/>
<image xlink:href="../../images/primaryKeys.png" width="11px" height="12px" preserveAspectRatio="xMinYMin meet" x="771.5" y="-589.7"/>
<text text-anchor="start" x="786.5" y="-579.8" font-family="Helvetica,sans-Serif" font-size="11.00" fill="#000000">DISTRICT_ID</text>
<polygon fill="none" stroke="#000000" points="766.5,-550.7 766.5,-572.7 927.5,-572.7 927.5,-550.7 766.5,-550.7"/>
<image xlink:href="../../images/primaryKeys.png" width="11px" height="12px" preserveAspectRatio="xMinYMin meet" x="771.5" y="-567.7"/>
<text text-anchor="start" x="783.9075" y="-557.8" font-family="Helvetica,sans-Serif" font-size="11.00" fill="#000000">LOCAL_JUSTICE_AREA_ID</text>
<polygon fill="none" stroke="#000000" points="766.5,-531.7 766.5,-550.7 927.5,-550.7 927.5,-531.7 766.5,-531.7"/>
<text text-anchor="start" x="769.5" y="-537.8" font-family="Helvetica,sans-Serif" font-size="11.00" fill="#000000">...</text>
<polygon fill="#ffffff" stroke="transparent" points="766.5,-512.7 766.5,-531.7 817.5,-531.7 817.5,-512.7 766.5,-512.7"/>
<polygon fill="none" stroke="#000000" points="766.5,-512.7 766.5,-531.7 817.5,-531.7 817.5,-512.7 766.5,-512.7"/>
<text text-anchor="start" x="769.5" y="-518.8" font-family="Helvetica,sans-Serif" font-size="11.00" fill="#000000">&lt; 5</text>
<polygon fill="#ffffff" stroke="transparent" points="817.5,-512.7 817.5,-531.7 891.5,-531.7 891.5,-512.7 817.5,-512.7"/>
<polygon fill="none" stroke="#000000" points="817.5,-512.7 817.5,-531.7 891.5,-531.7 891.5,-512.7 817.5,-512.7"/>
<text text-anchor="start" x="834.7089" y="-518.8" font-family="Helvetica,sans-Serif" font-size="11.00" fill="#000000">3,213 rows</text>
<polygon fill="#ffffff" stroke="transparent" points="891.5,-512.7 891.5,-531.7 927.5,-531.7 927.5,-512.7 891.5,-512.7"/>
<polygon fill="none" stroke="#000000" points="891.5,-512.7 891.5,-531.7 927.5,-531.7 927.5,-512.7 891.5,-512.7"/>
<text text-anchor="start" x="908.9053" y="-518.8" font-family="Helvetica,sans-Serif" font-size="11.00" fill="#000000">5 &gt;</text>
</a>
</g>
</g>
<!-- COURT&#45;&gt;BOROUGH -->
<g id="edge2" class="edge">
<title>COURT:w&#45;&gt;BOROUGH:e</title>
<path fill="none" stroke="#000000" d="M751.93,-605.7555C666.1879,-606.401 637.5835,-612.058 548,-589.7 527.7282,-584.6406 525.8936,-570.7 505,-570.7"/>
<polygon fill="#000000" stroke="#000000" points="758.5001,-605.7305 766.5137,-609.3 762.5,-605.7153 766.5,-605.7 766.5,-605.7 766.5,-605.7 762.5,-605.7153 766.4863,-602.1 758.5001,-605.7305 758.5001,-605.7305"/>
<ellipse fill="none" stroke="#000000" cx="755.3001" cy="-605.7428" rx="3.2" ry="3.2"/>
</g>
<!-- COURT&#45;&gt;PROBATION_AREA -->
<g id="edge4" class="edge">
<title>COURT:w&#45;&gt;PROBATION_AREA:e</title>
<path fill="none" stroke="#000000" d="M751.8494,-627.8954C536.8522,-633.6272 426.3565,-762.467 261,-617.7 215.8346,-578.1584 280.0288,-350.7 220,-350.7"/>
<polygon fill="#000000" stroke="#000000" points="758.5007,-627.8067 766.548,-631.2997 762.5004,-627.7534 766.5,-627.7 766.5,-627.7 766.5,-627.7 762.5004,-627.7534 766.452,-624.1003 758.5007,-627.8067 758.5007,-627.8067"/>
<ellipse fill="none" stroke="#000000" cx="755.301" cy="-627.8494" rx="3.2" ry="3.2"/>
</g>
<!-- DISTRICT -->
<g id="node4" class="node">
<title>DISTRICT</title>
<g id="a_node4"><a xlink:href="../../tables/DISTRICT.html" xlink:title="DISTRICT" target="_top">
<polygon fill="#ffffff" stroke="transparent" points="556,-430.2 556,-579.2 717,-579.2 717,-430.2 556,-430.2"/>
<polygon fill="#f5f5f5" stroke="transparent" points="556.5,-555.7 556.5,-578.7 717.5,-578.7 717.5,-555.7 556.5,-555.7"/>
<polygon fill="none" stroke="#000000" points="556.5,-555.7 556.5,-578.7 717.5,-578.7 717.5,-555.7 556.5,-555.7"/>
<text text-anchor="start" x="561.5" y="-564.8" font-family="Helvetica,sans-Serif" font-weight="bold" font-size="11.00" fill="#000000">DISTRICT</text>
<text text-anchor="start" x="682.5437" y="-563.8" font-family="Helvetica,sans-Serif" font-size="11.00" fill="#000000">[table]</text>
<polygon fill="none" stroke="#000000" points="556.5,-533.7 556.5,-555.7 717.5,-555.7 717.5,-533.7 556.5,-533.7"/>
<image xlink:href="../../images/primaryKeys.png" width="11px" height="12px" preserveAspectRatio="xMinYMin meet" x="561.5" y="-550.7"/>
<text text-anchor="start" x="576.5" y="-540.8" font-family="Helvetica,sans-Serif" font-size="11.00" fill="#000000">DISTRICT_ID</text>
<polygon fill="none" stroke="#000000" points="556.5,-511.7 556.5,-533.7 717.5,-533.7 717.5,-511.7 556.5,-511.7"/>
<image xlink:href="../../images/primaryKeys.png" width="11px" height="12px" preserveAspectRatio="xMinYMin meet" x="561.5" y="-528.7"/>
<text text-anchor="start" x="576.5" y="-518.8" font-family="Helvetica,sans-Serif" font-size="11.00" fill="#000000">CODE</text>
<polygon fill="none" stroke="#000000" points="556.5,-489.7 556.5,-511.7 717.5,-511.7 717.5,-489.7 556.5,-489.7"/>
<image xlink:href="../../images/primaryKeys.png" width="11px" height="12px" preserveAspectRatio="xMinYMin meet" x="561.5" y="-506.7"/>
<text text-anchor="start" x="576.5" y="-496.8" font-family="Helvetica,sans-Serif" font-size="11.00" fill="#000000">BOROUGH_ID</text>
<polygon fill="none" stroke="#000000" points="556.5,-467.7 556.5,-489.7 717.5,-489.7 717.5,-467.7 556.5,-467.7"/>
<image xlink:href="../../images/primaryKeys.png" width="11px" height="12px" preserveAspectRatio="xMinYMin meet" x="561.5" y="-484.7"/>
<text text-anchor="start" x="576.5" y="-474.8" font-family="Helvetica,sans-Serif" font-size="11.00" fill="#000000">TRAINING_SESSION_ID</text>
<polygon fill="none" stroke="#000000" points="556.5,-448.7 556.5,-467.7 717.5,-467.7 717.5,-448.7 556.5,-448.7"/>
<text text-anchor="start" x="559.5" y="-454.8" font-family="Helvetica,sans-Serif" font-size="11.00" fill="#000000">...</text>
<polygon fill="#ffffff" stroke="transparent" points="556.5,-429.7 556.5,-448.7 607.5,-448.7 607.5,-429.7 556.5,-429.7"/>
<polygon fill="none" stroke="#000000" points="556.5,-429.7 556.5,-448.7 607.5,-448.7 607.5,-429.7 556.5,-429.7"/>
<text text-anchor="start" x="559.5" y="-435.8" font-family="Helvetica,sans-Serif" font-size="11.00" fill="#000000">&lt; 1</text>
<polygon fill="#ffffff" stroke="transparent" points="607.5,-429.7 607.5,-448.7 681.5,-448.7 681.5,-429.7 607.5,-429.7"/>
<polygon fill="none" stroke="#000000" points="607.5,-429.7 607.5,-448.7 681.5,-448.7 681.5,-429.7 607.5,-429.7"/>
<text text-anchor="start" x="624.7089" y="-435.8" font-family="Helvetica,sans-Serif" font-size="11.00" fill="#000000">3,349 rows</text>
<polygon fill="#ffffff" stroke="transparent" points="681.5,-429.7 681.5,-448.7 717.5,-448.7 717.5,-429.7 681.5,-429.7"/>
<polygon fill="none" stroke="#000000" points="681.5,-429.7 681.5,-448.7 717.5,-448.7 717.5,-429.7 681.5,-429.7"/>
<text text-anchor="start" x="698.9053" y="-435.8" font-family="Helvetica,sans-Serif" font-size="11.00" fill="#000000">5 &gt;</text>
</a>
</g>
</g>
<!-- COURT&#45;&gt;DISTRICT -->
<g id="edge3" class="edge">
<title>COURT:w&#45;&gt;DISTRICT:e</title>
<path fill="none" stroke="#000000" d="M752.4646,-578.9178C739.9324,-568.5037 739.2451,-544.7 717.5,-544.7"/>
<polygon fill="#000000" stroke="#000000" points="758.9275,-581.1198 765.3389,-587.1076 762.7137,-582.4099 766.5,-583.7 766.5,-583.7 766.5,-583.7 762.7137,-582.4099 767.6611,-580.2924 758.9275,-581.1198 758.9275,-581.1198"/>
<ellipse fill="none" stroke="#000000" cx="755.8985" cy="-580.0878" rx="3.2" ry="3.2"/>
</g>
<!-- DISTRICT&#45;&gt;BOROUGH -->
<g id="edge5" class="edge">
<title>DISTRICT:w&#45;&gt;BOROUGH:e</title>
<path fill="none" stroke="#000000" d="M542.6187,-505.2929C524.3507,-520.866 537.5889,-570.7 505,-570.7"/>
<polygon fill="#000000" stroke="#000000" points="548.9049,-503.213 557.6309,-504.1178 552.7025,-501.9565 556.5,-500.7 556.5,-500.7 556.5,-500.7 552.7025,-501.9565 555.3691,-497.2822 548.9049,-503.213 548.9049,-503.213"/>
<ellipse fill="none" stroke="#000000" cx="545.8669" cy="-504.2182" rx="3.2" ry="3.2"/>
</g>
<!-- DPA_REPORT -->
<g id="node5" class="node">
<title>DPA_REPORT</title>
<g id="a_node5"><a xlink:href="../../tables/DPA_REPORT.html" xlink:title="DPA_REPORT" target="_top">
<polygon fill="#ffffff" stroke="transparent" points="775.5,-255.2 775.5,-492.2 917.5,-492.2 917.5,-255.2 775.5,-255.2"/>
<polygon fill="#f5f5f5" stroke="transparent" points="775.5,-468.7 775.5,-491.7 917.5,-491.7 917.5,-468.7 775.5,-468.7"/>
<polygon fill="none" stroke="#000000" points="775.5,-468.7 775.5,-491.7 917.5,-491.7 917.5,-468.7 775.5,-468.7"/>
<text text-anchor="start" x="780.5" y="-477.8" font-family="Helvetica,sans-Serif" font-weight="bold" font-size="11.00" fill="#000000">DPA_REPORT</text>
<text text-anchor="start" x="882.5437" y="-476.8" font-family="Helvetica,sans-Serif" font-size="11.00" fill="#000000">[table]</text>
<polygon fill="none" stroke="#000000" points="775.5,-446.7 775.5,-468.7 917.5,-468.7 917.5,-446.7 775.5,-446.7"/>
<image xlink:href="../../images/primaryKeys.png" width="11px" height="12px" preserveAspectRatio="xMinYMin meet" x="780.5" y="-463.7"/>
<text text-anchor="start" x="795.5" y="-453.8" font-family="Helvetica,sans-Serif" font-size="11.00" fill="#000000">DPA_REPORT_ID</text>
<polygon fill="none" stroke="#000000" points="775.5,-424.7 775.5,-446.7 917.5,-446.7 917.5,-424.7 775.5,-424.7"/>
<image xlink:href="../../images/primaryKeys.png" width="11px" height="12px" preserveAspectRatio="xMinYMin meet" x="780.5" y="-441.7"/>
<text text-anchor="start" x="795.5" y="-431.8" font-family="Helvetica,sans-Serif" font-size="11.00" fill="#000000">TEAM_ID</text>
<polygon fill="none" stroke="#000000" points="775.5,-402.7 775.5,-424.7 917.5,-424.7 917.5,-402.7 775.5,-402.7"/>
<image xlink:href="../../images/primaryKeys.png" width="11px" height="12px" preserveAspectRatio="xMinYMin meet" x="780.5" y="-419.7"/>
<text text-anchor="start" x="795.5" y="-409.8" font-family="Helvetica,sans-Serif" font-size="11.00" fill="#000000">PROVIDER_TEAM_ID</text>
<polygon fill="none" stroke="#000000" points="775.5,-380.7 775.5,-402.7 917.5,-402.7 917.5,-380.7 775.5,-380.7"/>
<image xlink:href="../../images/primaryKeys.png" width="11px" height="12px" preserveAspectRatio="xMinYMin meet" x="780.5" y="-397.7"/>
<text text-anchor="start" x="795.5" y="-387.8" font-family="Helvetica,sans-Serif" font-size="11.00" fill="#000000">PARTITION_AREA_ID</text>
<polygon fill="none" stroke="#000000" points="775.5,-358.7 775.5,-380.7 917.5,-380.7 917.5,-358.7 775.5,-358.7"/>
<image xlink:href="../../images/primaryKeys.png" width="11px" height="12px" preserveAspectRatio="xMinYMin meet" x="780.5" y="-375.7"/>
<text text-anchor="start" x="795.5" y="-365.8" font-family="Helvetica,sans-Serif" font-size="11.00" fill="#000000">DISTRICT_ID</text>
<polygon fill="none" stroke="#000000" points="775.5,-336.7 775.5,-358.7 917.5,-358.7 917.5,-336.7 775.5,-336.7"/>
<image xlink:href="../../images/primaryKeys.png" width="11px" height="12px" preserveAspectRatio="xMinYMin meet" x="780.5" y="-353.7"/>
<text text-anchor="start" x="795.5" y="-343.8" font-family="Helvetica,sans-Serif" font-size="11.00" fill="#000000">BOROUGH_ID</text>
<polygon fill="none" stroke="#000000" points="775.5,-314.7 775.5,-336.7 917.5,-336.7 917.5,-314.7 775.5,-314.7"/>
<image xlink:href="../../images/primaryKeys.png" width="11px" height="12px" preserveAspectRatio="xMinYMin meet" x="780.5" y="-331.7"/>
<text text-anchor="start" x="795.0219" y="-321.8" font-family="Helvetica,sans-Serif" font-size="11.00" fill="#000000">PROBATION_AREA_ID</text>
<polygon fill="none" stroke="#000000" points="775.5,-292.7 775.5,-314.7 917.5,-314.7 917.5,-292.7 775.5,-292.7"/>
<image xlink:href="../../images/primaryKeys.png" width="11px" height="12px" preserveAspectRatio="xMinYMin meet" x="780.5" y="-309.7"/>
<text text-anchor="start" x="791.6625" y="-299.8" font-family="Helvetica,sans-Serif" font-size="11.00" fill="#000000">TRAINING_SESSION_ID</text>
<polygon fill="none" stroke="#000000" points="775.5,-273.7 775.5,-292.7 917.5,-292.7 917.5,-273.7 775.5,-273.7"/>
<text text-anchor="start" x="778.5" y="-279.8" font-family="Helvetica,sans-Serif" font-size="11.00" fill="#000000">...</text>
<polygon fill="#ffffff" stroke="transparent" points="775.5,-254.7 775.5,-273.7 827.5,-273.7 827.5,-254.7 775.5,-254.7"/>
<polygon fill="none" stroke="#000000" points="775.5,-254.7 775.5,-273.7 827.5,-273.7 827.5,-254.7 775.5,-254.7"/>
<text text-anchor="start" x="778.5" y="-260.8" font-family="Helvetica,sans-Serif" font-size="11.00" fill="#000000">&lt; 6</text>
<polygon fill="#ffffff" stroke="transparent" points="827.5,-254.7 827.5,-273.7 880.5,-273.7 880.5,-254.7 827.5,-254.7"/>
<polygon fill="none" stroke="#000000" points="827.5,-254.7 827.5,-273.7 880.5,-273.7 880.5,-254.7 827.5,-254.7"/>
<text text-anchor="start" x="845.1105" y="-260.8" font-family="Helvetica,sans-Serif" font-size="11.00" fill="#000000">9 rows</text>
<polygon fill="#ffffff" stroke="transparent" points="880.5,-254.7 880.5,-273.7 917.5,-273.7 917.5,-254.7 880.5,-254.7"/>
<polygon fill="none" stroke="#000000" points="880.5,-254.7 880.5,-273.7 917.5,-273.7 917.5,-254.7 880.5,-254.7"/>
<text text-anchor="start" x="898.9053" y="-260.8" font-family="Helvetica,sans-Serif" font-size="11.00" fill="#000000">1 &gt;</text>
</a>
</g>
</g>
<!-- DPA_REPORT&#45;&gt;BOROUGH -->
<g id="edge6" class="edge">
<title>DPA_REPORT:w&#45;&gt;BOROUGH:e</title>
<path fill="none" stroke="#000000" d="M760.963,-347.6818C664.93,-347.4942 618.4293,-347.1919 548,-419.7 499.3814,-469.7536 574.7792,-570.7 505,-570.7"/>
<polygon fill="#000000" stroke="#000000" points="767.5,-347.6899 775.4955,-351.3 771.5,-347.695 775.5,-347.7 775.5,-347.7 775.5,-347.7 771.5,-347.695 775.5045,-344.1 767.5,-347.6899 767.5,-347.6899"/>
<ellipse fill="none" stroke="#000000" cx="764.3" cy="-347.6859" rx="3.2" ry="3.2"/>
</g>
<!-- DPA_REPORT&#45;&gt;PROBATION_AREA -->
<g id="edge8" class="edge">
<title>DPA_REPORT:w&#45;&gt;PROBATION_AREA:e</title>
<path fill="none" stroke="#000000" d="M760.9639,-325.5564C543.429,-321.2426 467.3146,-221.782 261,-308.7 236.96,-318.8278 246.0863,-350.7 220,-350.7"/>
<polygon fill="#000000" stroke="#000000" points="767.5004,-325.6209 775.4644,-329.2998 771.5002,-325.6605 775.5,-325.7 775.5,-325.7 775.5,-325.7 771.5002,-325.6605 775.5356,-322.1002 767.5004,-325.6209 767.5004,-325.6209"/>
<ellipse fill="none" stroke="#000000" cx="764.3005" cy="-325.5893" rx="3.2" ry="3.2"/>
</g>
<!-- DPA_REPORT&#45;&gt;DISTRICT -->
<g id="edge7" class="edge">
<title>DPA_REPORT:w&#45;&gt;DISTRICT:e</title>
<path fill="none" stroke="#000000" d="M761.2092,-372.0415C707.1594,-392.808 793.837,-544.7 717.5,-544.7"/>
<polygon fill="#000000" stroke="#000000" points="767.6053,-370.9936 776.0821,-373.2526 771.5526,-370.3468 775.5,-369.7 775.5,-369.7 775.5,-369.7 771.5526,-370.3468 774.9179,-366.1474 767.6053,-370.9936 767.6053,-370.9936"/>
<ellipse fill="none" stroke="#000000" cx="764.4474" cy="-371.511" rx="3.2" ry="3.2"/>
</g>
</g>
</svg>
