<?xml version="1.0" encoding="UTF-8" standalone="no"?>
<!DOCTYPE svg PUBLIC "-//W3C//DTD SVG 1.1//EN"
 "http://www.w3.org/Graphics/SVG/1.1/DTD/svg11.dtd">
<!-- Generated by graphviz version 2.40.1 (20161225.0304)
 -->
<!-- Title: twoDegreesRelationshipsDiagram Pages: 1 -->
<svg width="1513pt" height="962pt"
 viewBox="0.00 0.00 1513.00 961.93" xmlns="http://www.w3.org/2000/svg" xmlns:xlink="http://www.w3.org/1999/xlink">
<g id="graph0" class="graph" transform="scale(1 1) rotate(0) translate(4 957.9275)">
<title>twoDegreesRelationshipsDiagram</title>
<polygon fill="#ffffff" stroke="transparent" points="-4,4 -4,-957.9275 1509,-957.9275 1509,4 -4,4"/>
<text text-anchor="middle" x="72.4936" y="-7.3" font-family="Helvetica,sans-Serif" font-size="11.00" fill="#000000">Generated by SchemaSpy</text>
<!-- CONTACT_ALERT_CLEAR -->
<g id="node1" class="node">
<title>CONTACT_ALERT_CLEAR</title>
<g id="a_node1"><a xlink:href="../../tables/CONTACT_ALERT_CLEAR.html" xlink:title="CONTACT_ALERT_CLEAR" target="_top">
<polygon fill="#ffffff" stroke="transparent" points="1300,-468.9275 1300,-529.9275 1480,-529.9275 1480,-468.9275 1300,-468.9275"/>
<polygon fill="#f5f5f5" stroke="transparent" points="1300,-506.4275 1300,-529.4275 1480,-529.4275 1480,-506.4275 1300,-506.4275"/>
<polygon fill="none" stroke="#000000" points="1300,-506.4275 1300,-529.4275 1480,-529.4275 1480,-506.4275 1300,-506.4275"/>
<text text-anchor="start" x="1304.7495" y="-515.5275" font-family="Helvetica,sans-Serif" font-weight="bold" font-size="11.00" fill="#000000">CONTACT_ALERT_CLEAR</text>
<text text-anchor="start" x="1445.5219" y="-514.5275" font-family="Helvetica,sans-Serif" font-size="11.00" fill="#000000">[table]</text>
<polygon fill="none" stroke="#000000" points="1300,-487.4275 1300,-506.4275 1480,-506.4275 1480,-487.4275 1300,-487.4275"/>
<text text-anchor="start" x="1303" y="-493.5275" font-family="Helvetica,sans-Serif" font-size="11.00" fill="#000000">...</text>
<polygon fill="#ffffff" stroke="transparent" points="1300,-468.4275 1300,-487.4275 1362,-487.4275 1362,-468.4275 1300,-468.4275"/>
<polygon fill="none" stroke="#000000" points="1300,-468.4275 1300,-487.4275 1362,-487.4275 1362,-468.4275 1300,-468.4275"/>
<text text-anchor="start" x="1303" y="-474.5275" font-family="Helvetica,sans-Serif" font-size="11.00" fill="#000000">&lt; 5</text>
<polygon fill="#ffffff" stroke="transparent" points="1362,-468.4275 1362,-487.4275 1447,-487.4275 1447,-468.4275 1362,-468.4275"/>
<polygon fill="none" stroke="#000000" points="1362,-468.4275 1362,-487.4275 1447,-487.4275 1447,-468.4275 1362,-468.4275"/>
<text text-anchor="start" x="1384.094" y="-474.5275" font-family="Helvetica,sans-Serif" font-size="11.00" fill="#000000">52,166 rows</text>
<polygon fill="#ffffff" stroke="transparent" points="1447,-468.4275 1447,-487.4275 1480,-487.4275 1480,-468.4275 1447,-468.4275"/>
<polygon fill="none" stroke="#000000" points="1447,-468.4275 1447,-487.4275 1480,-487.4275 1480,-468.4275 1447,-468.4275"/>
<text text-anchor="start" x="1470.8862" y="-474.5275" font-family="Helvetica,sans-Serif" font-size="11.00" fill="#000000"> &#160;</text>
</a>
</g>
</g>
<!-- OFFENDER -->
<g id="node2" class="node">
<title>OFFENDER</title>
<g id="a_node2"><a xlink:href="../../tables/OFFENDER.html" xlink:title="OFFENDER" target="_top">
<polygon fill="#ffffff" stroke="transparent" points="277,-280.9275 277,-341.9275 402,-341.9275 402,-280.9275 277,-280.9275"/>
<polygon fill="#f5f5f5" stroke="transparent" points="277.5,-318.4275 277.5,-341.4275 402.5,-341.4275 402.5,-318.4275 277.5,-318.4275"/>
<polygon fill="none" stroke="#000000" points="277.5,-318.4275 277.5,-341.4275 402.5,-341.4275 402.5,-318.4275 277.5,-318.4275"/>
<text text-anchor="start" x="282.5" y="-327.5275" font-family="Helvetica,sans-Serif" font-weight="bold" font-size="11.00" fill="#000000">OFFENDER</text>
<text text-anchor="start" x="367.5437" y="-326.5275" font-family="Helvetica,sans-Serif" font-size="11.00" fill="#000000">[table]</text>
<polygon fill="none" stroke="#000000" points="277.5,-299.4275 277.5,-318.4275 402.5,-318.4275 402.5,-299.4275 277.5,-299.4275"/>
<text text-anchor="start" x="280.5" y="-305.5275" font-family="Helvetica,sans-Serif" font-size="11.00" fill="#000000">...</text>
<polygon fill="#ffffff" stroke="transparent" points="277.5,-280.4275 277.5,-299.4275 304.5,-299.4275 304.5,-280.4275 277.5,-280.4275"/>
<polygon fill="none" stroke="#000000" points="277.5,-280.4275 277.5,-299.4275 304.5,-299.4275 304.5,-280.4275 277.5,-280.4275"/>
<text text-anchor="start" x="280.1452" y="-286.5275" font-family="Helvetica,sans-Serif" font-size="11.00" fill="#000000">&lt; 16</text>
<polygon fill="#ffffff" stroke="transparent" points="304.5,-280.4275 304.5,-299.4275 369.5,-299.4275 369.5,-280.4275 304.5,-280.4275"/>
<polygon fill="none" stroke="#000000" points="304.5,-280.4275 304.5,-299.4275 369.5,-299.4275 369.5,-280.4275 304.5,-280.4275"/>
<text text-anchor="start" x="307.047" y="-286.5275" font-family="Helvetica,sans-Serif" font-size="11.00" fill="#000000">18,527 rows</text>
<polygon fill="#ffffff" stroke="transparent" points="369.5,-280.4275 369.5,-299.4275 402.5,-299.4275 402.5,-280.4275 369.5,-280.4275"/>
<polygon fill="none" stroke="#000000" points="369.5,-280.4275 369.5,-299.4275 402.5,-299.4275 402.5,-280.4275 369.5,-280.4275"/>
<text text-anchor="start" x="372.0878" y="-286.5275" font-family="Helvetica,sans-Serif" font-size="11.00" fill="#000000">101 &gt;</text>
</a>
</g>
</g>
<!-- CONTACT_ALERT_CLEAR&#45;&gt;OFFENDER -->
<g id="edge1" class="edge">
<title>CONTACT_ALERT_CLEAR:w&#45;&gt;OFFENDER:e</title>
<path fill="none" stroke="#000000" d="M1285.459,-495.2635C1197.9525,-479.6878 1327.9981,-311.9415 1242,-243.4275 1158.5729,-176.9618 1108.6663,-243.1413 1002,-243.4275 753.5529,-244.0942 661.181,-127.5853 443,-246.4275 414.096,-262.1714 435.4137,-308.4275 402.5,-308.4275"/>
<polygon fill="#000000" stroke="#000000" points="1292.0255,-495.7891 1299.7127,-500.016 1296.0128,-496.1083 1300,-496.4275 1300,-496.4275 1300,-496.4275 1296.0128,-496.1083 1300.2873,-492.839 1292.0255,-495.7891 1292.0255,-495.7891"/>
<ellipse fill="none" stroke="#000000" cx="1288.8357" cy="-495.5337" rx="3.2" ry="3.2"/>
</g>
<!-- SPG_NOTIFICATION -->
<g id="node3" class="node">
<title>SPG_NOTIFICATION</title>
<g id="a_node3"><a xlink:href="../../tables/SPG_NOTIFICATION.html" xlink:title="SPG_NOTIFICATION" target="_top">
<polygon fill="#ffffff" stroke="transparent" points="1023,-489.9275 1023,-880.9275 1221,-880.9275 1221,-489.9275 1023,-489.9275"/>
<polygon fill="#f5f5f5" stroke="transparent" points="1023,-857.4275 1023,-880.4275 1221,-880.4275 1221,-857.4275 1023,-857.4275"/>
<polygon fill="none" stroke="#000000" points="1023,-857.4275 1023,-880.4275 1221,-880.4275 1221,-857.4275 1023,-857.4275"/>
<text text-anchor="start" x="1028" y="-866.5275" font-family="Helvetica,sans-Serif" font-weight="bold" font-size="11.00" fill="#000000">SPG_NOTIFICATION</text>
<text text-anchor="start" x="1186.0437" y="-865.5275" font-family="Helvetica,sans-Serif" font-size="11.00" fill="#000000">[table]</text>
<polygon fill="none" stroke="#000000" points="1023,-835.4275 1023,-857.4275 1221,-857.4275 1221,-835.4275 1023,-835.4275"/>
<image xlink:href="../../images/primaryKeys.png" width="11px" height="12px" preserveAspectRatio="xMinYMin meet" x="1028" y="-852.428"/>
<text text-anchor="start" x="1043" y="-842.5275" font-family="Helvetica,sans-Serif" font-size="11.00" fill="#000000">SPG_NOTIFICATION_ID</text>
<polygon fill="none" stroke="#000000" points="1023,-813.4275 1023,-835.4275 1221,-835.4275 1221,-813.4275 1023,-813.4275"/>
<image xlink:href="../../images/primaryKeys.png" width="11px" height="12px" preserveAspectRatio="xMinYMin meet" x="1028" y="-830.428"/>
<text text-anchor="start" x="1043" y="-820.5275" font-family="Helvetica,sans-Serif" font-size="11.00" fill="#000000">BUSINESS_INTERACTION_ID</text>
<polygon fill="none" stroke="#000000" points="1023,-791.4275 1023,-813.4275 1221,-813.4275 1221,-791.4275 1023,-791.4275"/>
<image xlink:href="../../images/primaryKeys.png" width="11px" height="12px" preserveAspectRatio="xMinYMin meet" x="1028" y="-808.428"/>
<text text-anchor="start" x="1043" y="-798.5275" font-family="Helvetica,sans-Serif" font-size="11.00" fill="#000000">OFFENDER_ID</text>
<polygon fill="none" stroke="#000000" points="1023,-769.4275 1023,-791.4275 1221,-791.4275 1221,-769.4275 1023,-769.4275"/>
<image xlink:href="../../images/primaryKeys.png" width="11px" height="12px" preserveAspectRatio="xMinYMin meet" x="1028" y="-786.428"/>
<text text-anchor="start" x="1043" y="-776.5275" font-family="Helvetica,sans-Serif" font-size="11.00" fill="#000000">DATE_CREATED</text>
<polygon fill="none" stroke="#000000" points="1023,-747.4275 1023,-769.4275 1221,-769.4275 1221,-747.4275 1023,-747.4275"/>
<image xlink:href="../../images/primaryKeys.png" width="11px" height="12px" preserveAspectRatio="xMinYMin meet" x="1028" y="-764.428"/>
<text text-anchor="start" x="1043" y="-754.5275" font-family="Helvetica,sans-Serif" font-size="11.00" fill="#000000">PROCESSED_FLAG</text>
<polygon fill="none" stroke="#000000" points="1023,-725.4275 1023,-747.4275 1221,-747.4275 1221,-725.4275 1023,-725.4275"/>
<image xlink:href="../../images/primaryKeys.png" width="11px" height="12px" preserveAspectRatio="xMinYMin meet" x="1028" y="-742.428"/>
<text text-anchor="start" x="1043" y="-732.5275" font-family="Helvetica,sans-Serif" font-size="11.00" fill="#000000">CONTROL_REFERENCE</text>
<polygon fill="none" stroke="#000000" points="1023,-703.4275 1023,-725.4275 1221,-725.4275 1221,-703.4275 1023,-703.4275"/>
<image xlink:href="../../images/primaryKeys.png" width="11px" height="12px" preserveAspectRatio="xMinYMin meet" x="1028" y="-720.428"/>
<text text-anchor="start" x="1043" y="-710.5275" font-family="Helvetica,sans-Serif" font-size="11.00" fill="#000000">SENDER_IDENTITY_ID</text>
<polygon fill="none" stroke="#000000" points="1023,-681.4275 1023,-703.4275 1221,-703.4275 1221,-681.4275 1023,-681.4275"/>
<image xlink:href="../../images/primaryKeys.png" width="11px" height="12px" preserveAspectRatio="xMinYMin meet" x="1028" y="-698.428"/>
<text text-anchor="start" x="1043" y="-688.5275" font-family="Helvetica,sans-Serif" font-size="11.00" fill="#000000">RECEIVER_IDENTITY_ID</text>
<polygon fill="none" stroke="#000000" points="1023,-659.4275 1023,-681.4275 1221,-681.4275 1221,-659.4275 1023,-659.4275"/>
<image xlink:href="../../images/primaryKeys.png" width="11px" height="12px" preserveAspectRatio="xMinYMin meet" x="1028" y="-676.428"/>
<text text-anchor="start" x="1034.4743" y="-666.5275" font-family="Helvetica,sans-Serif" font-size="11.00" fill="#000000">RECEIVER_CONTROL_REFERENCE</text>
<polygon fill="none" stroke="#000000" points="1023,-637.4275 1023,-659.4275 1221,-659.4275 1221,-637.4275 1023,-637.4275"/>
<image xlink:href="../../images/primaryKeys.png" width="11px" height="12px" preserveAspectRatio="xMinYMin meet" x="1028" y="-654.428"/>
<text text-anchor="start" x="1043" y="-644.5275" font-family="Helvetica,sans-Serif" font-size="11.00" fill="#000000">MESSAGE_DIRECTION</text>
<polygon fill="none" stroke="#000000" points="1023,-615.4275 1023,-637.4275 1221,-637.4275 1221,-615.4275 1023,-615.4275"/>
<image xlink:href="../../images/primaryKeys.png" width="11px" height="12px" preserveAspectRatio="xMinYMin meet" x="1028" y="-632.428"/>
<text text-anchor="start" x="1043" y="-622.5275" font-family="Helvetica,sans-Serif" font-size="11.00" fill="#000000">SPG_MESSAGE_CONTEXT_ID</text>
<polygon fill="none" stroke="#000000" points="1023,-593.4275 1023,-615.4275 1221,-615.4275 1221,-593.4275 1023,-593.4275"/>
<image xlink:href="../../images/primaryKeys.png" width="11px" height="12px" preserveAspectRatio="xMinYMin meet" x="1028" y="-610.428"/>
<text text-anchor="start" x="1041.4972" y="-600.5275" font-family="Helvetica,sans-Serif" font-size="11.00" fill="#000000">SPG_INTERCHANGE_STATUS_ID</text>
<polygon fill="none" stroke="#000000" points="1023,-571.4275 1023,-593.4275 1221,-593.4275 1221,-571.4275 1023,-571.4275"/>
<image xlink:href="../../images/primaryKeys.png" width="11px" height="12px" preserveAspectRatio="xMinYMin meet" x="1028" y="-588.428"/>
<text text-anchor="start" x="1037.2249" y="-578.5275" font-family="Helvetica,sans-Serif" font-size="11.00" fill="#000000">REGENERATED_NOTIFICATION_ID</text>
<polygon fill="none" stroke="#000000" points="1023,-549.4275 1023,-571.4275 1221,-571.4275 1221,-549.4275 1023,-549.4275"/>
<image xlink:href="../../images/primaryKeys.png" width="11px" height="12px" preserveAspectRatio="xMinYMin meet" x="1028" y="-566.428"/>
<text text-anchor="start" x="1043" y="-556.5275" font-family="Helvetica,sans-Serif" font-size="11.00" fill="#000000">MT_COMPONENT_ID</text>
<polygon fill="none" stroke="#000000" points="1023,-527.4275 1023,-549.4275 1221,-549.4275 1221,-527.4275 1023,-527.4275"/>
<image xlink:href="../../images/primaryKeys.png" width="11px" height="12px" preserveAspectRatio="xMinYMin meet" x="1028" y="-544.428"/>
<text text-anchor="start" x="1043" y="-534.5275" font-family="Helvetica,sans-Serif" font-size="11.00" fill="#000000">DATA_SCRIPT_MESSAGE_ID</text>
<polygon fill="none" stroke="#000000" points="1023,-508.4275 1023,-527.4275 1221,-527.4275 1221,-508.4275 1023,-508.4275"/>
<text text-anchor="start" x="1026" y="-514.5275" font-family="Helvetica,sans-Serif" font-size="11.00" fill="#000000">...</text>
<polygon fill="#ffffff" stroke="transparent" points="1023,-489.4275 1023,-508.4275 1086,-508.4275 1086,-489.4275 1023,-489.4275"/>
<polygon fill="none" stroke="#000000" points="1023,-489.4275 1023,-508.4275 1086,-508.4275 1086,-489.4275 1023,-489.4275"/>
<text text-anchor="start" x="1026" y="-495.5275" font-family="Helvetica,sans-Serif" font-size="11.00" fill="#000000">&lt; 8</text>
<polygon fill="#ffffff" stroke="transparent" points="1086,-489.4275 1086,-508.4275 1179,-508.4275 1179,-489.4275 1086,-489.4275"/>
<polygon fill="none" stroke="#000000" points="1086,-489.4275 1086,-508.4275 1179,-508.4275 1179,-489.4275 1086,-489.4275"/>
<text text-anchor="start" x="1109.9791" y="-495.5275" font-family="Helvetica,sans-Serif" font-size="11.00" fill="#000000">428,992 rows</text>
<polygon fill="#ffffff" stroke="transparent" points="1179,-489.4275 1179,-508.4275 1221,-508.4275 1221,-489.4275 1179,-489.4275"/>
<polygon fill="none" stroke="#000000" points="1179,-489.4275 1179,-508.4275 1221,-508.4275 1221,-489.4275 1179,-489.4275"/>
<text text-anchor="start" x="1202.4053" y="-495.5275" font-family="Helvetica,sans-Serif" font-size="11.00" fill="#000000">5 &gt;</text>
</a>
</g>
</g>
<!-- CONTACT_ALERT_CLEAR&#45;&gt;SPG_NOTIFICATION -->
<g id="edge2" class="edge">
<title>CONTACT_ALERT_CLEAR:w&#45;&gt;SPG_NOTIFICATION:e</title>
<path fill="none" stroke="#000000" d="M1286.141,-500.8528C1230.2464,-541.3684 1295.4396,-846.4275 1221,-846.4275"/>
<polygon fill="#000000" stroke="#000000" points="1292.3791,-498.861 1301.0951,-499.8569 1296.1895,-497.6442 1300,-496.4275 1300,-496.4275 1300,-496.4275 1296.1895,-497.6442 1298.9049,-492.9981 1292.3791,-498.861 1292.3791,-498.861"/>
<ellipse fill="none" stroke="#000000" cx="1289.3307" cy="-499.8343" rx="3.2" ry="3.2"/>
</g>
<!-- R_STANDARD_REFERENCE_LIST -->
<g id="node7" class="node">
<title>R_STANDARD_REFERENCE_LIST</title>
<g id="a_node7"><a xlink:href="../../tables/R_STANDARD_REFERENCE_LIST.html" xlink:title="R_STANDARD_REFERENCE_LIST" target="_top">
<polygon fill="#ffffff" stroke="transparent" points="8,-280.9275 8,-341.9275 228,-341.9275 228,-280.9275 8,-280.9275"/>
<polygon fill="#f5f5f5" stroke="transparent" points="8,-318.4275 8,-341.4275 228,-341.4275 228,-318.4275 8,-318.4275"/>
<polygon fill="none" stroke="#000000" points="8,-318.4275 8,-341.4275 228,-341.4275 228,-318.4275 8,-318.4275"/>
<text text-anchor="start" x="12.5842" y="-327.5275" font-family="Helvetica,sans-Serif" font-weight="bold" font-size="11.00" fill="#000000">R_STANDARD_REFERENCE_LIST</text>
<text text-anchor="start" x="193.5219" y="-326.5275" font-family="Helvetica,sans-Serif" font-size="11.00" fill="#000000">[table]</text>
<polygon fill="none" stroke="#000000" points="8,-299.4275 8,-318.4275 228,-318.4275 228,-299.4275 8,-299.4275"/>
<text text-anchor="start" x="11" y="-305.5275" font-family="Helvetica,sans-Serif" font-size="11.00" fill="#000000">...</text>
<polygon fill="#ffffff" stroke="transparent" points="8,-280.4275 8,-299.4275 79,-299.4275 79,-280.4275 8,-280.4275"/>
<polygon fill="none" stroke="#000000" points="8,-280.4275 8,-299.4275 79,-299.4275 79,-280.4275 8,-280.4275"/>
<text text-anchor="start" x="11" y="-286.5275" font-family="Helvetica,sans-Serif" font-size="11.00" fill="#000000">&lt; 1</text>
<polygon fill="#ffffff" stroke="transparent" points="79,-280.4275 79,-299.4275 169,-299.4275 169,-280.4275 79,-280.4275"/>
<polygon fill="none" stroke="#000000" points="79,-280.4275 79,-299.4275 169,-299.4275 169,-280.4275 79,-280.4275"/>
<text text-anchor="start" x="106.094" y="-286.5275" font-family="Helvetica,sans-Serif" font-size="11.00" fill="#000000">15,391 rows</text>
<polygon fill="#ffffff" stroke="transparent" points="169,-280.4275 169,-299.4275 228,-299.4275 228,-280.4275 169,-280.4275"/>
<polygon fill="none" stroke="#000000" points="169,-280.4275 169,-299.4275 228,-299.4275 228,-280.4275 169,-280.4275"/>
<text text-anchor="start" x="197.1755" y="-286.5275" font-family="Helvetica,sans-Serif" font-size="11.00" fill="#000000">308 &gt;</text>
</a>
</g>
</g>
<!-- OFFENDER&#45;&gt;R_STANDARD_REFERENCE_LIST -->
<g id="edge7" class="edge">
<title>OFFENDER:w&#45;&gt;R_STANDARD_REFERENCE_LIST:e</title>
<path fill="none" stroke="#000000" d="M273.4429,-294.3176C254.7225,-230.7515 248.582,-235.4548 228,-308.4275"/>
<polygon fill="#000000" stroke="#000000" points="275.2892,-300.739 274.0402,-309.4223 276.3946,-304.5833 277.5,-308.4275 277.5,-308.4275 277.5,-308.4275 276.3946,-304.5833 280.9598,-307.4327 275.2892,-300.739 275.2892,-300.739"/>
<ellipse fill="none" stroke="#000000" cx="274.4049" cy="-297.6636" rx="3.2" ry="3.2"/>
</g>
<!-- OFFENDER&#45;&gt;R_STANDARD_REFERENCE_LIST -->
<g id="edge8" class="edge">
<title>OFFENDER:w&#45;&gt;R_STANDARD_REFERENCE_LIST:e</title>
<path fill="none" stroke="#000000" d="M272.7453,-294.7054C254.5664,-243.8046 248.3242,-248.3787 228,-308.4275"/>
<polygon fill="#000000" stroke="#000000" points="274.8807,-300.8684 274.0984,-309.6062 276.1904,-304.648 277.5,-308.4275 277.5,-308.4275 277.5,-308.4275 276.1904,-304.648 280.9016,-307.2488 274.8807,-300.8684 274.8807,-300.8684"/>
<ellipse fill="none" stroke="#000000" cx="273.833" cy="-297.8448" rx="3.2" ry="3.2"/>
</g>
<!-- OFFENDER&#45;&gt;R_STANDARD_REFERENCE_LIST -->
<g id="edge9" class="edge">
<title>OFFENDER:w&#45;&gt;R_STANDARD_REFERENCE_LIST:e</title>
<path fill="none" stroke="#000000" d="M271.7204,-295.1736C254.3237,-256.8845 247.9375,-261.3025 228,-308.4275"/>
<polygon fill="#000000" stroke="#000000" points="274.3022,-301.0944 274.2001,-309.8665 275.9011,-304.7609 277.5,-308.4275 277.5,-308.4275 277.5,-308.4275 275.9011,-304.7609 280.7999,-306.9885 274.3022,-301.0944 274.3022,-301.0944"/>
<ellipse fill="none" stroke="#000000" cx="273.0231" cy="-298.1611" rx="3.2" ry="3.2"/>
</g>
<!-- OFFENDER&#45;&gt;R_STANDARD_REFERENCE_LIST -->
<g id="edge10" class="edge">
<title>OFFENDER:w&#45;&gt;R_STANDARD_REFERENCE_LIST:e</title>
<path fill="none" stroke="#000000" d="M270.1751,-295.9752C253.926,-269.9994 247.3359,-274.1502 228,-308.4275"/>
<polygon fill="#000000" stroke="#000000" points="273.4438,-301.532 274.397,-310.2528 275.4719,-304.9798 277.5,-308.4275 277.5,-308.4275 277.5,-308.4275 275.4719,-304.9798 280.603,-306.6022 273.4438,-301.532 273.4438,-301.532"/>
<ellipse fill="none" stroke="#000000" cx="271.8213" cy="-298.7738" rx="3.2" ry="3.2"/>
</g>
<!-- OFFENDER&#45;&gt;R_STANDARD_REFERENCE_LIST -->
<g id="edge11" class="edge">
<title>OFFENDER:w&#45;&gt;R_STANDARD_REFERENCE_LIST:e</title>
<path fill="none" stroke="#000000" d="M267.8585,-297.7301C253.2512,-283.1273 246.3906,-286.6931 228,-308.4275"/>
<polygon fill="#000000" stroke="#000000" points="272.144,-302.485 274.8259,-310.8377 274.822,-305.4562 277.5,-308.4275 277.5,-308.4275 277.5,-308.4275 274.822,-305.4562 280.1741,-306.0173 272.144,-302.485 272.144,-302.485"/>
<ellipse fill="none" stroke="#000000" cx="270.0016" cy="-300.1079" rx="3.2" ry="3.2"/>
</g>
<!-- OFFENDER&#45;&gt;R_STANDARD_REFERENCE_LIST -->
<g id="edge12" class="edge">
<title>OFFENDER:w&#45;&gt;R_STANDARD_REFERENCE_LIST:e</title>
<path fill="none" stroke="#000000" d="M264.704,-301.5935C252.1609,-296.0948 245.0156,-298.3728 228,-308.4275"/>
<polygon fill="#000000" stroke="#000000" points="270.4433,-304.6587 275.804,-311.603 273.9717,-306.5431 277.5,-308.4275 277.5,-308.4275 277.5,-308.4275 273.9717,-306.5431 279.196,-305.252 270.4433,-304.6587 270.4433,-304.6587"/>
<ellipse fill="none" stroke="#000000" cx="267.6207" cy="-303.1512" rx="3.2" ry="3.2"/>
</g>
<!-- OFFENDER&#45;&gt;R_STANDARD_REFERENCE_LIST -->
<g id="edge13" class="edge">
<title>OFFENDER:w&#45;&gt;R_STANDARD_REFERENCE_LIST:e</title>
<path fill="none" stroke="#000000" d="M262.8428,-308.4275C251.4139,-308.4275 244.1563,-308.4275 228,-308.4275"/>
<polygon fill="#000000" stroke="#000000" points="269.5,-308.4276 277.5,-312.0275 273.5,-308.4275 277.5,-308.4275 277.5,-308.4275 277.5,-308.4275 273.5,-308.4275 277.5,-304.8275 269.5,-308.4276 269.5,-308.4276"/>
<ellipse fill="none" stroke="#000000" cx="266.3" cy="-308.4276" rx="3.2" ry="3.2"/>
</g>
<!-- OFFENDER&#45;&gt;R_STANDARD_REFERENCE_LIST -->
<g id="edge14" class="edge">
<title>OFFENDER:w&#45;&gt;R_STANDARD_REFERENCE_LIST:e</title>
<path fill="none" stroke="#000000" d="M264.704,-315.2615C252.1609,-320.7602 245.0156,-318.4822 228,-308.4275"/>
<polygon fill="#000000" stroke="#000000" points="270.4433,-312.1963 279.196,-311.603 273.9717,-310.3119 277.5,-308.4275 277.5,-308.4275 277.5,-308.4275 273.9717,-310.3119 275.804,-305.252 270.4433,-312.1963 270.4433,-312.1963"/>
<ellipse fill="none" stroke="#000000" cx="267.6207" cy="-313.7038" rx="3.2" ry="3.2"/>
</g>
<!-- OFFENDER&#45;&gt;R_STANDARD_REFERENCE_LIST -->
<g id="edge15" class="edge">
<title>OFFENDER:w&#45;&gt;R_STANDARD_REFERENCE_LIST:e</title>
<path fill="none" stroke="#000000" d="M267.8585,-319.1249C253.2512,-333.7277 246.3906,-330.1619 228,-308.4275"/>
<polygon fill="#000000" stroke="#000000" points="272.144,-314.37 280.1741,-310.8377 274.822,-311.3988 277.5,-308.4275 277.5,-308.4275 277.5,-308.4275 274.822,-311.3988 274.8259,-306.0173 272.144,-314.37 272.144,-314.37"/>
<ellipse fill="none" stroke="#000000" cx="270.0016" cy="-316.7471" rx="3.2" ry="3.2"/>
</g>
<!-- OFFENDER&#45;&gt;R_STANDARD_REFERENCE_LIST -->
<g id="edge16" class="edge">
<title>OFFENDER:w&#45;&gt;R_STANDARD_REFERENCE_LIST:e</title>
<path fill="none" stroke="#000000" d="M270.1751,-320.8798C253.926,-346.8556 247.3359,-342.7048 228,-308.4275"/>
<polygon fill="#000000" stroke="#000000" points="273.4438,-315.323 280.603,-310.2528 275.4719,-311.8752 277.5,-308.4275 277.5,-308.4275 277.5,-308.4275 275.4719,-311.8752 274.397,-306.6022 273.4438,-315.323 273.4438,-315.323"/>
<ellipse fill="none" stroke="#000000" cx="271.8213" cy="-318.0812" rx="3.2" ry="3.2"/>
</g>
<!-- OFFENDER&#45;&gt;R_STANDARD_REFERENCE_LIST -->
<g id="edge17" class="edge">
<title>OFFENDER:w&#45;&gt;R_STANDARD_REFERENCE_LIST:e</title>
<path fill="none" stroke="#000000" d="M271.7204,-321.6814C254.3237,-359.9705 247.9375,-355.5525 228,-308.4275"/>
<polygon fill="#000000" stroke="#000000" points="274.3022,-315.7606 280.7999,-309.8665 275.9011,-312.0941 277.5,-308.4275 277.5,-308.4275 277.5,-308.4275 275.9011,-312.0941 274.2001,-306.9885 274.3022,-315.7606 274.3022,-315.7606"/>
<ellipse fill="none" stroke="#000000" cx="273.0231" cy="-318.6939" rx="3.2" ry="3.2"/>
</g>
<!-- OFFENDER&#45;&gt;R_STANDARD_REFERENCE_LIST -->
<g id="edge18" class="edge">
<title>OFFENDER:w&#45;&gt;R_STANDARD_REFERENCE_LIST:e</title>
<path fill="none" stroke="#000000" d="M272.7453,-322.1496C254.5664,-373.0504 248.3242,-368.4763 228,-308.4275"/>
<polygon fill="#000000" stroke="#000000" points="274.8807,-315.9866 280.9016,-309.6062 276.1904,-312.207 277.5,-308.4275 277.5,-308.4275 277.5,-308.4275 276.1904,-312.207 274.0984,-307.2488 274.8807,-315.9866 274.8807,-315.9866"/>
<ellipse fill="none" stroke="#000000" cx="273.833" cy="-319.0102" rx="3.2" ry="3.2"/>
</g>
<!-- OFFENDER&#45;&gt;R_STANDARD_REFERENCE_LIST -->
<g id="edge19" class="edge">
<title>OFFENDER:w&#45;&gt;R_STANDARD_REFERENCE_LIST:e</title>
<path fill="none" stroke="#000000" d="M273.4429,-322.5374C254.7225,-386.1035 248.582,-381.4002 228,-308.4275"/>
<polygon fill="#000000" stroke="#000000" points="275.2892,-316.116 280.9598,-309.4223 276.3946,-312.2717 277.5,-308.4275 277.5,-308.4275 277.5,-308.4275 276.3946,-312.2717 274.0402,-307.4327 275.2892,-316.116 275.2892,-316.116"/>
<ellipse fill="none" stroke="#000000" cx="274.4049" cy="-319.1914" rx="3.2" ry="3.2"/>
</g>
<!-- SPG_NOTIFICATION&#45;&gt;OFFENDER -->
<g id="edge31" class="edge">
<title>SPG_NOTIFICATION:w&#45;&gt;OFFENDER:e</title>
<path fill="none" stroke="#000000" d="M1008.565,-805.8515C993.088,-814.6743 992.4703,-838.0762 969,-846.4275 884.4173,-876.5242 841.722,-896.1937 767,-846.4275 735.3299,-825.3347 759.5411,-795.6331 734,-767.4275 635.3592,-658.4961 526.5435,-731.3264 443,-610.4275 404.5062,-554.7217 470.2119,-308.4275 402.5,-308.4275"/>
<polygon fill="#000000" stroke="#000000" points="1015.216,-804.2739 1023.8309,-805.9303 1019.108,-803.3507 1023,-802.4275 1023,-802.4275 1023,-802.4275 1019.108,-803.3507 1022.1691,-798.9247 1015.216,-804.2739 1015.216,-804.2739"/>
<ellipse fill="none" stroke="#000000" cx="1012.1024" cy="-805.0125" rx="3.2" ry="3.2"/>
</g>
<!-- DATA_SCRIPT_MESSAGE -->
<g id="node4" class="node">
<title>DATA_SCRIPT_MESSAGE</title>
<g id="a_node4"><a xlink:href="../../tables/DATA_SCRIPT_MESSAGE.html" xlink:title="DATA_SCRIPT_MESSAGE" target="_top">
<polygon fill="#ffffff" stroke="transparent" points="775,-280.9275 775,-429.9275 961,-429.9275 961,-280.9275 775,-280.9275"/>
<polygon fill="#f5f5f5" stroke="transparent" points="775,-406.4275 775,-429.4275 961,-429.4275 961,-406.4275 775,-406.4275"/>
<polygon fill="none" stroke="#000000" points="775,-406.4275 775,-429.4275 961,-429.4275 961,-406.4275 775,-406.4275"/>
<text text-anchor="start" x="780" y="-415.5275" font-family="Helvetica,sans-Serif" font-weight="bold" font-size="11.00" fill="#000000">DATA_SCRIPT_MESSAGE</text>
<text text-anchor="start" x="926.0437" y="-414.5275" font-family="Helvetica,sans-Serif" font-size="11.00" fill="#000000">[table]</text>
<polygon fill="none" stroke="#000000" points="775,-384.4275 775,-406.4275 961,-406.4275 961,-384.4275 775,-384.4275"/>
<image xlink:href="../../images/primaryKeys.png" width="11px" height="12px" preserveAspectRatio="xMinYMin meet" x="780" y="-401.428"/>
<text text-anchor="start" x="795" y="-391.5275" font-family="Helvetica,sans-Serif" font-size="11.00" fill="#000000">DATA_SCRIPT_MESSAGE_ID</text>
<polygon fill="none" stroke="#000000" points="775,-362.4275 775,-384.4275 961,-384.4275 961,-362.4275 775,-362.4275"/>
<image xlink:href="../../images/primaryKeys.png" width="11px" height="12px" preserveAspectRatio="xMinYMin meet" x="780" y="-379.428"/>
<text text-anchor="start" x="795" y="-369.5275" font-family="Helvetica,sans-Serif" font-size="11.00" fill="#000000">OFFENDER_ID</text>
<polygon fill="none" stroke="#000000" points="775,-340.4275 775,-362.4275 961,-362.4275 961,-340.4275 775,-340.4275"/>
<image xlink:href="../../images/primaryKeys.png" width="11px" height="12px" preserveAspectRatio="xMinYMin meet" x="780" y="-357.428"/>
<text text-anchor="start" x="795" y="-347.5275" font-family="Helvetica,sans-Serif" font-size="11.00" fill="#000000">EVENT_ID</text>
<polygon fill="none" stroke="#000000" points="775,-318.4275 775,-340.4275 961,-340.4275 961,-318.4275 775,-318.4275"/>
<image xlink:href="../../images/primaryKeys.png" width="11px" height="12px" preserveAspectRatio="xMinYMin meet" x="780" y="-335.428"/>
<text text-anchor="start" x="795" y="-325.5275" font-family="Helvetica,sans-Serif" font-size="11.00" fill="#000000">BUSINESS_INTERACTION_ID</text>
<polygon fill="none" stroke="#000000" points="775,-299.4275 775,-318.4275 961,-318.4275 961,-299.4275 775,-299.4275"/>
<text text-anchor="start" x="778" y="-305.5275" font-family="Helvetica,sans-Serif" font-size="11.00" fill="#000000">...</text>
<polygon fill="#ffffff" stroke="transparent" points="775,-280.4275 775,-299.4275 843,-299.4275 843,-280.4275 775,-280.4275"/>
<polygon fill="none" stroke="#000000" points="775,-280.4275 775,-299.4275 843,-299.4275 843,-280.4275 775,-280.4275"/>
<text text-anchor="start" x="778" y="-286.5275" font-family="Helvetica,sans-Serif" font-size="11.00" fill="#000000">&lt; 3</text>
<polygon fill="#ffffff" stroke="transparent" points="843,-280.4275 843,-299.4275 916,-299.4275 916,-280.4275 843,-280.4275"/>
<polygon fill="none" stroke="#000000" points="843,-280.4275 843,-299.4275 916,-299.4275 916,-280.4275 843,-280.4275"/>
<text text-anchor="start" x="868.3807" y="-286.5275" font-family="Helvetica,sans-Serif" font-size="11.00" fill="#000000">132 rows</text>
<polygon fill="#ffffff" stroke="transparent" points="916,-280.4275 916,-299.4275 961,-299.4275 961,-280.4275 916,-280.4275"/>
<polygon fill="none" stroke="#000000" points="916,-280.4275 916,-299.4275 961,-299.4275 961,-280.4275 916,-280.4275"/>
<text text-anchor="start" x="942.4053" y="-286.5275" font-family="Helvetica,sans-Serif" font-size="11.00" fill="#000000">2 &gt;</text>
</a>
</g>
</g>
<!-- SPG_NOTIFICATION&#45;&gt;DATA_SCRIPT_MESSAGE -->
<g id="edge30" class="edge">
<title>SPG_NOTIFICATION:w&#45;&gt;DATA_SCRIPT_MESSAGE:e</title>
<path fill="none" stroke="#000000" d="M1008.7352,-535.6986C965.3047,-515.9288 1024.5896,-395.4275 961,-395.4275"/>
<polygon fill="#000000" stroke="#000000" points="1015.1425,-536.9243 1022.3235,-541.9634 1019.0712,-537.6759 1023,-538.4275 1023,-538.4275 1023,-538.4275 1019.0712,-537.6759 1023.6765,-534.8916 1015.1425,-536.9243 1015.1425,-536.9243"/>
<ellipse fill="none" stroke="#000000" cx="1011.9995" cy="-536.323" rx="3.2" ry="3.2"/>
</g>
<!-- BUSINESS_INTERACTION -->
<g id="node5" class="node">
<title>BUSINESS_INTERACTION</title>
<g id="a_node5"><a xlink:href="../../tables/BUSINESS_INTERACTION.html" xlink:title="BUSINESS_INTERACTION" target="_top">
<polygon fill="#ffffff" stroke="transparent" points="451,-390.4275 451,-568.4275 726,-568.4275 726,-390.4275 451,-390.4275"/>
<polygon fill="#f5f5f5" stroke="transparent" points="453.5,-543.4275 453.5,-566.4275 724.5,-566.4275 724.5,-543.4275 453.5,-543.4275"/>
<polygon fill="none" stroke="#000000" points="453.5,-543.4275 453.5,-566.4275 724.5,-566.4275 724.5,-543.4275 453.5,-543.4275"/>
<text text-anchor="start" x="458.5" y="-552.5275" font-family="Helvetica,sans-Serif" font-weight="bold" font-size="11.00" fill="#000000">BUSINESS_INTERACTION</text>
<text text-anchor="start" x="689.5437" y="-551.5275" font-family="Helvetica,sans-Serif" font-size="11.00" fill="#000000">[table]</text>
<polygon fill="none" stroke="#000000" points="453.5,-521.4275 453.5,-543.4275 651.5,-543.4275 651.5,-521.4275 453.5,-521.4275"/>
<image xlink:href="../../images/primaryKeys.png" width="11px" height="12px" preserveAspectRatio="xMinYMin meet" x="458.5" y="-538.428"/>
<text text-anchor="start" x="473.5" y="-528.5275" font-family="Helvetica,sans-Serif" font-size="11.00" fill="#000000">BUSINESS_INTERACTION_ID</text>
<polygon fill="none" stroke="#000000" points="651.5,-521.4275 651.5,-543.4275 724.5,-543.4275 724.5,-521.4275 651.5,-521.4275"/>
<text text-anchor="start" x="654.5" y="-529.1275" font-family="Helvetica,sans-Serif" font-size="11.00" fill="#000000">number[38]</text>
<polygon fill="none" stroke="#000000" points="453.5,-499.4275 453.5,-521.4275 651.5,-521.4275 651.5,-499.4275 453.5,-499.4275"/>
<image xlink:href="../../images/primaryKeys.png" width="11px" height="12px" preserveAspectRatio="xMinYMin meet" x="458.5" y="-516.428"/>
<text text-anchor="start" x="472.9158" y="-506.5275" font-family="Helvetica,sans-Serif" font-size="11.00" fill="#000000">BUSINESS_INTERACTION_CODE</text>
<polygon fill="none" stroke="#000000" points="651.5,-499.4275 651.5,-521.4275 724.5,-521.4275 724.5,-499.4275 651.5,-499.4275"/>
<text text-anchor="start" x="654.5" y="-507.1275" font-family="Helvetica,sans-Serif" font-size="11.00" fill="#000000">varchar2[20]</text>
<polygon fill="none" stroke="#000000" points="453.5,-477.4275 453.5,-499.4275 651.5,-499.4275 651.5,-477.4275 453.5,-477.4275"/>
<text text-anchor="start" x="473.5" y="-484.5275" font-family="Helvetica,sans-Serif" font-size="11.00" fill="#000000">DESCRIPTION</text>
<polygon fill="none" stroke="#000000" points="651.5,-477.4275 651.5,-499.4275 724.5,-499.4275 724.5,-477.4275 651.5,-477.4275"/>
<text text-anchor="start" x="654.3791" y="-485.1275" font-family="Helvetica,sans-Serif" font-size="11.00" fill="#000000">varchar2[500]</text>
<polygon fill="none" stroke="#000000" points="453.5,-455.4275 453.5,-477.4275 651.5,-477.4275 651.5,-455.4275 453.5,-455.4275"/>
<text text-anchor="start" x="473.5" y="-462.5275" font-family="Helvetica,sans-Serif" font-size="11.00" fill="#000000">ENABLED_DATE</text>
<polygon fill="none" stroke="#000000" points="651.5,-455.4275 651.5,-477.4275 724.5,-477.4275 724.5,-455.4275 651.5,-455.4275"/>
<text text-anchor="start" x="654.5" y="-463.1275" font-family="Helvetica,sans-Serif" font-size="11.00" fill="#000000">date[7]</text>
<polygon fill="none" stroke="#000000" points="453.5,-433.4275 453.5,-455.4275 651.5,-455.4275 651.5,-433.4275 453.5,-433.4275"/>
<text text-anchor="start" x="465.8934" y="-440.5275" font-family="Helvetica,sans-Serif" font-size="11.00" fill="#000000">AUDIT_INTERACTION_PARAMETER</text>
<polygon fill="none" stroke="#000000" points="651.5,-433.4275 651.5,-455.4275 724.5,-455.4275 724.5,-433.4275 651.5,-433.4275"/>
<text text-anchor="start" x="654.5" y="-441.1275" font-family="Helvetica,sans-Serif" font-size="11.00" fill="#000000">date[7]</text>
<polygon fill="none" stroke="#000000" points="453.5,-411.4275 453.5,-433.4275 651.5,-433.4275 651.5,-411.4275 453.5,-411.4275"/>
<text text-anchor="start" x="473.5" y="-418.5275" font-family="Helvetica,sans-Serif" font-size="11.00" fill="#000000">ROW_VERSION</text>
<polygon fill="none" stroke="#000000" points="651.5,-411.4275 651.5,-433.4275 724.5,-433.4275 724.5,-411.4275 651.5,-411.4275"/>
<text text-anchor="start" x="654.5" y="-419.1275" font-family="Helvetica,sans-Serif" font-size="11.00" fill="#000000">number[38]</text>
<polygon fill="#ffffff" stroke="transparent" points="453.5,-392.4275 453.5,-411.4275 533.5,-411.4275 533.5,-392.4275 453.5,-392.4275"/>
<polygon fill="none" stroke="#000000" points="453.5,-392.4275 453.5,-411.4275 533.5,-411.4275 533.5,-392.4275 453.5,-392.4275"/>
<text text-anchor="start" x="456.5" y="-398.5275" font-family="Helvetica,sans-Serif" font-size="11.00" fill="#000000">&lt; 0</text>
<polygon fill="#ffffff" stroke="transparent" points="533.5,-392.4275 533.5,-411.4275 651.5,-411.4275 651.5,-392.4275 533.5,-392.4275"/>
<polygon fill="none" stroke="#000000" points="533.5,-392.4275 533.5,-411.4275 651.5,-411.4275 651.5,-392.4275 533.5,-392.4275"/>
<text text-anchor="start" x="594.7089" y="-398.5275" font-family="Helvetica,sans-Serif" font-size="11.00" fill="#000000">1,090 rows</text>
<polygon fill="#ffffff" stroke="transparent" points="651.5,-392.4275 651.5,-411.4275 724.5,-411.4275 724.5,-392.4275 651.5,-392.4275"/>
<polygon fill="none" stroke="#000000" points="651.5,-392.4275 651.5,-411.4275 724.5,-411.4275 724.5,-392.4275 651.5,-392.4275"/>
<text text-anchor="start" x="705.9053" y="-398.5275" font-family="Helvetica,sans-Serif" font-size="11.00" fill="#000000">4 &gt;</text>
<polygon fill="none" stroke="#000000" stroke-width="2" points="452,-391.4275 452,-567.4275 725,-567.4275 725,-391.4275 452,-391.4275"/>
</a>
</g>
</g>
<!-- SPG_NOTIFICATION&#45;&gt;BUSINESS_INTERACTION -->
<g id="edge29" class="edge">
<title>SPG_NOTIFICATION:w&#45;&gt;BUSINESS_INTERACTION:e</title>
<path fill="none" stroke="#000000" d="M1009.1908,-820.2185C959.2815,-785.0255 1021.3916,-539.9209 969,-495.4275 934.7847,-466.3702 809.0403,-479.6915 767,-495.4275 743.5451,-504.2068 749.5442,-532.4275 724.5,-532.4275"/>
<polygon fill="#000000" stroke="#000000" points="1015.3476,-822.095 1021.9504,-827.8711 1019.1738,-823.2613 1023,-824.4275 1023,-824.4275 1023,-824.4275 1019.1738,-823.2613 1024.0496,-820.9839 1015.3476,-822.095 1015.3476,-822.095"/>
<ellipse fill="none" stroke="#000000" cx="1012.2866" cy="-821.162" rx="3.2" ry="3.2"/>
</g>
<!-- SPG_NOTIFICATION&#45;&gt;R_STANDARD_REFERENCE_LIST -->
<g id="edge34" class="edge">
<title>SPG_NOTIFICATION:w&#45;&gt;R_STANDARD_REFERENCE_LIST:e</title>
<path fill="none" stroke="#000000" d="M1008.5851,-607.2314C979.1971,-621.3777 1008.7207,-685.1895 969,-709.4275 867.4689,-771.3827 539.5035,-679.9551 443,-610.4275 426.29,-598.3885 248.5952,-308.4275 228,-308.4275"/>
<polygon fill="#000000" stroke="#000000" points="1015.1472,-605.955 1023.6874,-607.9613 1019.0736,-605.1913 1023,-604.4275 1023,-604.4275 1023,-604.4275 1019.0736,-605.1913 1022.3126,-600.8937 1015.1472,-605.955 1015.1472,-605.955"/>
<ellipse fill="none" stroke="#000000" cx="1012.006" cy="-606.566" rx="3.2" ry="3.2"/>
</g>
<!-- SPG_NOTIFICATION&#45;&gt;R_STANDARD_REFERENCE_LIST -->
<g id="edge35" class="edge">
<title>SPG_NOTIFICATION:w&#45;&gt;R_STANDARD_REFERENCE_LIST:e</title>
<path fill="none" stroke="#000000" d="M1008.7765,-629.1802C979.7033,-643.0677 1008.2172,-705.708 969,-729.4275 875.5208,-785.9661 446.6492,-675.5007 443,-673.4275 339.6806,-614.7282 323.6889,-575.9245 269,-470.4275 234.8187,-404.4905 302.2701,-308.4275 228,-308.4275"/>
<polygon fill="#000000" stroke="#000000" points="1015.1457,-627.9476 1023.684,-629.9619 1019.0729,-627.1875 1023,-626.4275 1023,-626.4275 1023,-626.4275 1019.0729,-627.1875 1022.316,-622.8931 1015.1457,-627.9476 1015.1457,-627.9476"/>
<ellipse fill="none" stroke="#000000" cx="1012.004" cy="-628.5556" rx="3.2" ry="3.2"/>
</g>
<!-- PROBATION_AREA -->
<g id="node9" class="node">
<title>PROBATION_AREA</title>
<g id="a_node9"><a xlink:href="../../tables/PROBATION_AREA.html" xlink:title="PROBATION_AREA" target="_top">
<polygon fill="#ffffff" stroke="transparent" points="796.5,-774.9275 796.5,-835.9275 939.5,-835.9275 939.5,-774.9275 796.5,-774.9275"/>
<polygon fill="#f5f5f5" stroke="transparent" points="797,-812.4275 797,-835.4275 940,-835.4275 940,-812.4275 797,-812.4275"/>
<polygon fill="none" stroke="#000000" points="797,-812.4275 797,-835.4275 940,-835.4275 940,-812.4275 797,-812.4275"/>
<text text-anchor="start" x="801.5782" y="-821.5275" font-family="Helvetica,sans-Serif" font-weight="bold" font-size="11.00" fill="#000000">PROBATION_AREA</text>
<text text-anchor="start" x="905.5219" y="-820.5275" font-family="Helvetica,sans-Serif" font-size="11.00" fill="#000000">[table]</text>
<polygon fill="none" stroke="#000000" points="797,-793.4275 797,-812.4275 940,-812.4275 940,-793.4275 797,-793.4275"/>
<text text-anchor="start" x="800" y="-799.5275" font-family="Helvetica,sans-Serif" font-size="11.00" fill="#000000">...</text>
<polygon fill="#ffffff" stroke="transparent" points="797,-774.4275 797,-793.4275 840,-793.4275 840,-774.4275 797,-774.4275"/>
<polygon fill="none" stroke="#000000" points="797,-774.4275 797,-793.4275 840,-793.4275 840,-774.4275 797,-774.4275"/>
<text text-anchor="start" x="800" y="-780.5275" font-family="Helvetica,sans-Serif" font-size="11.00" fill="#000000">&lt; 8</text>
<polygon fill="#ffffff" stroke="transparent" points="840,-774.4275 840,-793.4275 901,-793.4275 901,-774.4275 840,-774.4275"/>
<polygon fill="none" stroke="#000000" points="840,-774.4275 840,-793.4275 901,-793.4275 901,-774.4275 840,-774.4275"/>
<text text-anchor="start" x="853.3807" y="-780.5275" font-family="Helvetica,sans-Serif" font-size="11.00" fill="#000000">223 rows</text>
<polygon fill="#ffffff" stroke="transparent" points="901,-774.4275 901,-793.4275 940,-793.4275 940,-774.4275 901,-774.4275"/>
<polygon fill="none" stroke="#000000" points="901,-774.4275 901,-793.4275 940,-793.4275 940,-774.4275 901,-774.4275"/>
<text text-anchor="start" x="915.2904" y="-780.5275" font-family="Helvetica,sans-Serif" font-size="11.00" fill="#000000">67 &gt;</text>
</a>
</g>
</g>
<!-- SPG_NOTIFICATION&#45;&gt;PROBATION_AREA -->
<g id="edge32" class="edge">
<title>SPG_NOTIFICATION:w&#45;&gt;PROBATION_AREA:e</title>
<path fill="none" stroke="#000000" d="M1008.7859,-694.9317C968.0379,-711.3052 995.7422,-802.4275 940,-802.4275"/>
<polygon fill="#000000" stroke="#000000" points="1015.1213,-693.8156 1023.6246,-695.9729 1019.0607,-693.1215 1023,-692.4275 1023,-692.4275 1023,-692.4275 1019.0607,-693.1215 1022.3754,-688.8821 1015.1213,-693.8156 1015.1213,-693.8156"/>
<ellipse fill="none" stroke="#000000" cx="1011.9699" cy="-694.3708" rx="3.2" ry="3.2"/>
</g>
<!-- SPG_NOTIFICATION&#45;&gt;PROBATION_AREA -->
<g id="edge33" class="edge">
<title>SPG_NOTIFICATION:w&#45;&gt;PROBATION_AREA:e</title>
<path fill="none" stroke="#000000" d="M1008.4179,-717.1577C973.5395,-732.0111 988.0928,-802.4275 940,-802.4275"/>
<polygon fill="#000000" stroke="#000000" points="1015.1366,-715.8998 1023.6625,-717.966 1019.0683,-715.1636 1023,-714.4275 1023,-714.4275 1023,-714.4275 1019.0683,-715.1636 1022.3375,-710.889 1015.1366,-715.8998 1015.1366,-715.8998"/>
<ellipse fill="none" stroke="#000000" cx="1011.9913" cy="-716.4887" rx="3.2" ry="3.2"/>
</g>
<!-- DATA_SCRIPT_MESSAGE&#45;&gt;OFFENDER -->
<g id="edge5" class="edge">
<title>DATA_SCRIPT_MESSAGE:w&#45;&gt;OFFENDER:e</title>
<path fill="none" stroke="#000000" d="M760.5898,-373.5314C678.7196,-374.5653 505.7514,-382.3524 443,-352.4275 419.0097,-340.987 429.0786,-308.4275 402.5,-308.4275"/>
<polygon fill="#000000" stroke="#000000" points="767.0002,-373.4852 775.026,-377.0274 771.0001,-373.4564 775,-373.4275 775,-373.4275 775,-373.4275 771.0001,-373.4564 774.974,-369.8276 767.0002,-373.4852 767.0002,-373.4852"/>
<ellipse fill="none" stroke="#000000" cx="763.8003" cy="-373.5083" rx="3.2" ry="3.2"/>
</g>
<!-- DATA_SCRIPT_MESSAGE&#45;&gt;BUSINESS_INTERACTION -->
<g id="edge3" class="edge">
<title>DATA_SCRIPT_MESSAGE:w&#45;&gt;BUSINESS_INTERACTION:e</title>
<path fill="none" stroke="#000000" d="M760.5232,-331.5699C697.592,-353.2653 811.8429,-532.4275 724.5,-532.4275"/>
<polygon fill="#000000" stroke="#000000" points="767.0862,-330.5987 775.527,-332.9887 771.0431,-330.0131 775,-329.4275 775,-329.4275 775,-329.4275 771.0431,-330.0131 774.473,-325.8663 767.0862,-330.5987 767.0862,-330.5987"/>
<ellipse fill="none" stroke="#000000" cx="763.9207" cy="-331.0672" rx="3.2" ry="3.2"/>
</g>
<!-- EVENT -->
<g id="node6" class="node">
<title>EVENT</title>
<g id="a_node6"><a xlink:href="../../tables/EVENT.html" xlink:title="EVENT" target="_top">
<polygon fill="#ffffff" stroke="transparent" points="532,-280.9275 532,-341.9275 645,-341.9275 645,-280.9275 532,-280.9275"/>
<polygon fill="#f5f5f5" stroke="transparent" points="532.5,-318.4275 532.5,-341.4275 645.5,-341.4275 645.5,-318.4275 532.5,-318.4275"/>
<polygon fill="none" stroke="#000000" points="532.5,-318.4275 532.5,-341.4275 645.5,-341.4275 645.5,-318.4275 532.5,-318.4275"/>
<text text-anchor="start" x="537.5" y="-327.5275" font-family="Helvetica,sans-Serif" font-weight="bold" font-size="11.00" fill="#000000">EVENT</text>
<text text-anchor="start" x="610.5437" y="-326.5275" font-family="Helvetica,sans-Serif" font-size="11.00" fill="#000000">[table]</text>
<polygon fill="none" stroke="#000000" points="532.5,-299.4275 532.5,-318.4275 645.5,-318.4275 645.5,-299.4275 532.5,-299.4275"/>
<text text-anchor="start" x="535.5" y="-305.5275" font-family="Helvetica,sans-Serif" font-size="11.00" fill="#000000">...</text>
<polygon fill="#ffffff" stroke="transparent" points="532.5,-280.4275 532.5,-299.4275 553.5,-299.4275 553.5,-280.4275 532.5,-280.4275"/>
<polygon fill="none" stroke="#000000" points="532.5,-280.4275 532.5,-299.4275 553.5,-299.4275 553.5,-280.4275 532.5,-280.4275"/>
<text text-anchor="start" x="535.2026" y="-286.5275" font-family="Helvetica,sans-Serif" font-size="11.00" fill="#000000">&lt; 5</text>
<polygon fill="#ffffff" stroke="transparent" points="553.5,-280.4275 553.5,-299.4275 618.5,-299.4275 618.5,-280.4275 553.5,-280.4275"/>
<polygon fill="none" stroke="#000000" points="553.5,-280.4275 553.5,-299.4275 618.5,-299.4275 618.5,-280.4275 553.5,-280.4275"/>
<text text-anchor="start" x="556.047" y="-286.5275" font-family="Helvetica,sans-Serif" font-size="11.00" fill="#000000">14,604 rows</text>
<polygon fill="#ffffff" stroke="transparent" points="618.5,-280.4275 618.5,-299.4275 645.5,-299.4275 645.5,-280.4275 618.5,-280.4275"/>
<polygon fill="none" stroke="#000000" points="618.5,-280.4275 618.5,-299.4275 645.5,-299.4275 645.5,-280.4275 618.5,-280.4275"/>
<text text-anchor="start" x="621.1452" y="-286.5275" font-family="Helvetica,sans-Serif" font-size="11.00" fill="#000000">27 &gt;</text>
</a>
</g>
</g>
<!-- DATA_SCRIPT_MESSAGE&#45;&gt;EVENT -->
<g id="edge4" class="edge">
<title>DATA_SCRIPT_MESSAGE:w&#45;&gt;EVENT:e</title>
<path fill="none" stroke="#000000" d="M760.46,-350.5294C712.5563,-344.3544 700.9338,-308.4275 645.5,-308.4275"/>
<polygon fill="#000000" stroke="#000000" points="767.0152,-350.9342 774.778,-355.0207 771.0076,-351.1809 775,-351.4275 775,-351.4275 775,-351.4275 771.0076,-351.1809 775.222,-347.8343 767.0152,-350.9342 767.0152,-350.9342"/>
<ellipse fill="none" stroke="#000000" cx="763.8213" cy="-350.7369" rx="3.2" ry="3.2"/>
</g>
<!-- EVENT&#45;&gt;OFFENDER -->
<g id="edge6" class="edge">
<title>EVENT:w&#45;&gt;OFFENDER:e</title>
<path fill="none" stroke="#000000" d="M517.9136,-308.4275C471.777,-308.4275 455.0868,-308.4275 402.5,-308.4275"/>
<polygon fill="#000000" stroke="#000000" points="524.5,-308.4276 532.5,-312.0275 528.5,-308.4275 532.5,-308.4275 532.5,-308.4275 532.5,-308.4275 528.5,-308.4275 532.5,-304.8275 524.5,-308.4276 524.5,-308.4276"/>
<ellipse fill="none" stroke="#000000" cx="521.3" cy="-308.4276" rx="3.2" ry="3.2"/>
</g>
<!-- OFFENDER_CRC_EXPORT -->
<g id="node8" class="node">
<title>OFFENDER_CRC_EXPORT</title>
<g id="a_node8"><a xlink:href="../../tables/OFFENDER_CRC_EXPORT.html" xlink:title="OFFENDER_CRC_EXPORT" target="_top">
<polygon fill="#ffffff" stroke="transparent" points="1298,-888.9275 1298,-949.9275 1482,-949.9275 1482,-888.9275 1298,-888.9275"/>
<polygon fill="#f5f5f5" stroke="transparent" points="1298,-926.4275 1298,-949.4275 1482,-949.4275 1482,-926.4275 1298,-926.4275"/>
<polygon fill="none" stroke="#000000" points="1298,-926.4275 1298,-949.4275 1482,-949.4275 1482,-926.4275 1298,-926.4275"/>
<text text-anchor="start" x="1302.6155" y="-935.5275" font-family="Helvetica,sans-Serif" font-weight="bold" font-size="11.00" fill="#000000">OFFENDER_CRC_EXPORT</text>
<text text-anchor="start" x="1447.5219" y="-934.5275" font-family="Helvetica,sans-Serif" font-size="11.00" fill="#000000">[table]</text>
<polygon fill="none" stroke="#000000" points="1298,-907.4275 1298,-926.4275 1482,-926.4275 1482,-907.4275 1298,-907.4275"/>
<text text-anchor="start" x="1301" y="-913.5275" font-family="Helvetica,sans-Serif" font-size="11.00" fill="#000000">...</text>
<polygon fill="#ffffff" stroke="transparent" points="1298,-888.4275 1298,-907.4275 1369,-907.4275 1369,-888.4275 1298,-888.4275"/>
<polygon fill="none" stroke="#000000" points="1298,-888.4275 1298,-907.4275 1369,-907.4275 1369,-888.4275 1298,-888.4275"/>
<text text-anchor="start" x="1301" y="-894.5275" font-family="Helvetica,sans-Serif" font-size="11.00" fill="#000000">&lt; 3</text>
<polygon fill="#ffffff" stroke="transparent" points="1369,-888.4275 1369,-907.4275 1444,-907.4275 1444,-888.4275 1369,-888.4275"/>
<polygon fill="none" stroke="#000000" points="1369,-888.4275 1369,-907.4275 1444,-907.4275 1444,-888.4275 1369,-888.4275"/>
<text text-anchor="start" x="1396.3807" y="-894.5275" font-family="Helvetica,sans-Serif" font-size="11.00" fill="#000000">983 rows</text>
<polygon fill="#ffffff" stroke="transparent" points="1444,-888.4275 1444,-907.4275 1482,-907.4275 1482,-888.4275 1444,-888.4275"/>
<polygon fill="none" stroke="#000000" points="1444,-888.4275 1444,-907.4275 1482,-907.4275 1482,-888.4275 1444,-888.4275"/>
<text text-anchor="start" x="1472.8862" y="-894.5275" font-family="Helvetica,sans-Serif" font-size="11.00" fill="#000000"> &#160;</text>
</a>
</g>
</g>
<!-- OFFENDER_CRC_EXPORT&#45;&gt;OFFENDER -->
<g id="edge21" class="edge">
<title>OFFENDER_CRC_EXPORT:w&#45;&gt;OFFENDER:e</title>
<path fill="none" stroke="#000000" d="M1283.4202,-916.4764C899.7694,-919.0359 659.081,-1019.8161 443,-698.4275 394.3841,-626.1184 489.6327,-308.4275 402.5,-308.4275"/>
<polygon fill="#000000" stroke="#000000" points="1290,-916.4544 1298.0121,-920.0275 1294,-916.441 1298,-916.4275 1298,-916.4275 1298,-916.4275 1294,-916.441 1297.9879,-912.8275 1290,-916.4544 1290,-916.4544"/>
<ellipse fill="none" stroke="#000000" cx="1286.8001" cy="-916.4652" rx="3.2" ry="3.2"/>
</g>
<!-- OFFENDER_CRC_EXPORT&#45;&gt;SPG_NOTIFICATION -->
<g id="edge22" class="edge">
<title>OFFENDER_CRC_EXPORT:w&#45;&gt;SPG_NOTIFICATION:e</title>
<path fill="none" stroke="#000000" d="M1283.6954,-913.5967C1254.5984,-900.5008 1261.6494,-846.4275 1221,-846.4275"/>
<polygon fill="#000000" stroke="#000000" points="1290.1522,-914.8744 1297.3011,-919.959 1294.0761,-915.651 1298,-916.4275 1298,-916.4275 1298,-916.4275 1294.0761,-915.651 1298.6989,-912.896 1290.1522,-914.8744 1290.1522,-914.8744"/>
<ellipse fill="none" stroke="#000000" cx="1287.0131" cy="-914.2532" rx="3.2" ry="3.2"/>
</g>
<!-- OFFENDER_CRC_EXPORT&#45;&gt;PROBATION_AREA -->
<g id="edge20" class="edge">
<title>OFFENDER_CRC_EXPORT:w&#45;&gt;PROBATION_AREA:e</title>
<path fill="none" stroke="#000000" d="M1283.5014,-916.5188C1209.5466,-917.3078 1055.381,-922.2256 1002,-891.4275 960.2439,-867.3364 988.2074,-802.4275 940,-802.4275"/>
<polygon fill="#000000" stroke="#000000" points="1290.0002,-916.478 1298.0227,-920.0274 1294.0001,-916.4527 1298,-916.4275 1298,-916.4275 1298,-916.4275 1294.0001,-916.4527 1297.9773,-912.8276 1290.0002,-916.478 1290.0002,-916.478"/>
<ellipse fill="none" stroke="#000000" cx="1286.8002" cy="-916.4981" rx="3.2" ry="3.2"/>
</g>
<!-- PROBATION_AREA&#45;&gt;R_STANDARD_REFERENCE_LIST -->
<g id="edge23" class="edge">
<title>PROBATION_AREA:w&#45;&gt;R_STANDARD_REFERENCE_LIST:e</title>
<path fill="none" stroke="#000000" d="M782.5278,-803.3753C765.2572,-805.8153 756.8348,-812.2721 734,-814.4275 528.2479,-833.8484 420.922,-954.5375 269,-814.4275 227.5352,-776.1866 284.4065,-308.4275 228,-308.4275"/>
<polygon fill="#000000" stroke="#000000" points="789.0171,-802.9504 797.2353,-806.0198 793.0086,-802.6889 797,-802.4275 797,-802.4275 797,-802.4275 793.0086,-802.6889 796.7647,-798.8352 789.0171,-802.9504 789.0171,-802.9504"/>
<ellipse fill="none" stroke="#000000" cx="785.8239" cy="-803.1595" rx="3.2" ry="3.2"/>
</g>
<!-- SPG_ERROR -->
<g id="node10" class="node">
<title>SPG_ERROR</title>
<g id="a_node10"><a xlink:href="../../tables/SPG_ERROR.html" xlink:title="SPG_ERROR" target="_top">
<polygon fill="#ffffff" stroke="transparent" points="1334,-108.9275 1334,-169.9275 1446,-169.9275 1446,-108.9275 1334,-108.9275"/>
<polygon fill="#f5f5f5" stroke="transparent" points="1334,-146.4275 1334,-169.4275 1446,-169.4275 1446,-146.4275 1334,-146.4275"/>
<polygon fill="none" stroke="#000000" points="1334,-146.4275 1334,-169.4275 1446,-169.4275 1446,-146.4275 1334,-146.4275"/>
<text text-anchor="start" x="1338.9705" y="-155.5275" font-family="Helvetica,sans-Serif" font-weight="bold" font-size="11.00" fill="#000000">SPG_ERROR</text>
<text text-anchor="start" x="1411.5219" y="-154.5275" font-family="Helvetica,sans-Serif" font-size="11.00" fill="#000000">[table]</text>
<polygon fill="none" stroke="#000000" points="1334,-127.4275 1334,-146.4275 1446,-146.4275 1446,-127.4275 1334,-127.4275"/>
<text text-anchor="start" x="1337" y="-133.5275" font-family="Helvetica,sans-Serif" font-size="11.00" fill="#000000">...</text>
<polygon fill="#ffffff" stroke="transparent" points="1334,-108.4275 1334,-127.4275 1357,-127.4275 1357,-108.4275 1334,-108.4275"/>
<polygon fill="none" stroke="#000000" points="1334,-108.4275 1334,-127.4275 1357,-127.4275 1357,-108.4275 1334,-108.4275"/>
<text text-anchor="start" x="1337" y="-114.5275" font-family="Helvetica,sans-Serif" font-size="11.00" fill="#000000">&lt; 5</text>
<polygon fill="#ffffff" stroke="transparent" points="1357,-108.4275 1357,-127.4275 1423,-127.4275 1423,-108.4275 1357,-108.4275"/>
<polygon fill="none" stroke="#000000" points="1357,-108.4275 1357,-127.4275 1423,-127.4275 1423,-108.4275 1357,-108.4275"/>
<text text-anchor="start" x="1360.094" y="-114.5275" font-family="Helvetica,sans-Serif" font-size="11.00" fill="#000000">25,460 rows</text>
<polygon fill="#ffffff" stroke="transparent" points="1423,-108.4275 1423,-127.4275 1446,-127.4275 1446,-108.4275 1423,-108.4275"/>
<polygon fill="none" stroke="#000000" points="1423,-108.4275 1423,-127.4275 1446,-127.4275 1446,-108.4275 1423,-108.4275"/>
<text text-anchor="start" x="1427.4053" y="-114.5275" font-family="Helvetica,sans-Serif" font-size="11.00" fill="#000000">2 &gt;</text>
</a>
</g>
</g>
<!-- SPG_ERROR&#45;&gt;SPG_NOTIFICATION -->
<g id="edge27" class="edge">
<title>SPG_ERROR:w&#45;&gt;SPG_NOTIFICATION:e</title>
<path fill="none" stroke="#000000" d="M1319.5841,-137.0796C1196.0512,-148.9255 1297.3307,-319.8364 1275,-458.4275 1268.076,-501.3999 1264.5266,-846.4275 1221,-846.4275"/>
<polygon fill="#000000" stroke="#000000" points="1326.0082,-136.789 1334.1627,-140.0238 1330.0041,-136.6083 1334,-136.4275 1334,-136.4275 1334,-136.4275 1330.0041,-136.6083 1333.8373,-132.8312 1326.0082,-136.789 1326.0082,-136.789"/>
<ellipse fill="none" stroke="#000000" cx="1322.8114" cy="-136.9337" rx="3.2" ry="3.2"/>
</g>
<!-- SPG_ERROR&#45;&gt;R_STANDARD_REFERENCE_LIST -->
<g id="edge24" class="edge">
<title>SPG_ERROR:w&#45;&gt;R_STANDARD_REFERENCE_LIST:e</title>
<path fill="none" stroke="#000000" d="M1319.3966,-136.4275C1124.3223,-136.4275 1070.1558,-136.4275 868,-136.4275 868,-136.4275 868,-136.4275 588.5,-136.4275 445.3915,-136.4275 378.723,-84.5531 269,-176.4275 221.8998,-215.866 289.4315,-308.4275 228,-308.4275"/>
<polygon fill="#000000" stroke="#000000" points="1326,-136.4276 1334,-140.0275 1330,-136.4275 1334,-136.4275 1334,-136.4275 1334,-136.4275 1330,-136.4275 1334,-132.8275 1326,-136.4276 1326,-136.4276"/>
<ellipse fill="none" stroke="#000000" cx="1322.8" cy="-136.4276" rx="3.2" ry="3.2"/>
</g>
<!-- SPG_ERROR&#45;&gt;R_STANDARD_REFERENCE_LIST -->
<g id="edge25" class="edge">
<title>SPG_ERROR:w&#45;&gt;R_STANDARD_REFERENCE_LIST:e</title>
<path fill="none" stroke="#000000" d="M1319.5082,-136.1687C855.8347,-125.4801 641.3069,110.591 269,-174.4275 221.5675,-210.7393 287.736,-302.4275 228,-308.4275"/>
<polygon fill="#000000" stroke="#000000" points="1326.0013,-136.2846 1333.9357,-140.0269 1330.0006,-136.3561 1334,-136.4275 1334,-136.4275 1334,-136.4275 1330.0006,-136.3561 1334.0643,-132.8281 1326.0013,-136.2846 1326.0013,-136.2846"/>
<ellipse fill="none" stroke="#000000" cx="1322.8018" cy="-136.2274" rx="3.2" ry="3.2"/>
</g>
<!-- SPG_ERROR&#45;&gt;R_STANDARD_REFERENCE_LIST -->
<g id="edge26" class="edge">
<title>SPG_ERROR:w&#45;&gt;R_STANDARD_REFERENCE_LIST:e</title>
<path fill="none" stroke="#000000" d="M1319.5082,-136.5645C855.8347,-138.4801 641.3069,97.591 269,-187.4275 221.5675,-223.7393 287.736,-315.4275 228,-308.4275"/>
<polygon fill="#000000" stroke="#000000" points="1326.0004,-136.5032 1334.0341,-140.0273 1330.0002,-136.4653 1334,-136.4275 1334,-136.4275 1334,-136.4275 1330.0002,-136.4653 1333.9659,-132.8277 1326.0004,-136.5032 1326.0004,-136.5032"/>
<ellipse fill="none" stroke="#000000" cx="1322.8005" cy="-136.5335" rx="3.2" ry="3.2"/>
</g>
<!-- SPG_ERROR_CLEAR_REQUEST -->
<g id="node11" class="node">
<title>SPG_ERROR_CLEAR_REQUEST</title>
<g id="a_node11"><a xlink:href="../../tables/SPG_ERROR_CLEAR_REQUEST.html" xlink:title="SPG_ERROR_CLEAR_REQUEST" target="_top">
<polygon fill="#ffffff" stroke="transparent" points="1283,-806.9275 1283,-867.9275 1497,-867.9275 1497,-806.9275 1283,-806.9275"/>
<polygon fill="#f5f5f5" stroke="transparent" points="1283,-844.4275 1283,-867.4275 1497,-867.4275 1497,-844.4275 1283,-844.4275"/>
<polygon fill="none" stroke="#000000" points="1283,-844.4275 1283,-867.4275 1497,-867.4275 1497,-844.4275 1283,-844.4275"/>
<text text-anchor="start" x="1287.9382" y="-853.5275" font-family="Helvetica,sans-Serif" font-weight="bold" font-size="11.00" fill="#000000">SPG_ERROR_CLEAR_REQUEST</text>
<text text-anchor="start" x="1462.5219" y="-852.5275" font-family="Helvetica,sans-Serif" font-size="11.00" fill="#000000">[table]</text>
<polygon fill="none" stroke="#000000" points="1283,-825.4275 1283,-844.4275 1497,-844.4275 1497,-825.4275 1283,-825.4275"/>
<text text-anchor="start" x="1286" y="-831.5275" font-family="Helvetica,sans-Serif" font-size="11.00" fill="#000000">...</text>
<polygon fill="#ffffff" stroke="transparent" points="1283,-806.4275 1283,-825.4275 1375,-825.4275 1375,-806.4275 1283,-806.4275"/>
<polygon fill="none" stroke="#000000" points="1283,-806.4275 1283,-825.4275 1375,-825.4275 1375,-806.4275 1283,-806.4275"/>
<text text-anchor="start" x="1286" y="-812.5275" font-family="Helvetica,sans-Serif" font-size="11.00" fill="#000000">&lt; 1</text>
<polygon fill="#ffffff" stroke="transparent" points="1375,-806.4275 1375,-825.4275 1449,-825.4275 1449,-806.4275 1375,-806.4275"/>
<polygon fill="none" stroke="#000000" points="1375,-806.4275 1375,-825.4275 1449,-825.4275 1449,-806.4275 1375,-806.4275"/>
<text text-anchor="start" x="1413.6105" y="-812.5275" font-family="Helvetica,sans-Serif" font-size="11.00" fill="#000000">0 rows</text>
<polygon fill="#ffffff" stroke="transparent" points="1449,-806.4275 1449,-825.4275 1497,-825.4275 1497,-806.4275 1449,-806.4275"/>
<polygon fill="none" stroke="#000000" points="1449,-806.4275 1449,-825.4275 1497,-825.4275 1497,-806.4275 1449,-806.4275"/>
<text text-anchor="start" x="1487.8862" y="-812.5275" font-family="Helvetica,sans-Serif" font-size="11.00" fill="#000000"> &#160;</text>
</a>
</g>
</g>
<!-- SPG_ERROR_CLEAR_REQUEST&#45;&gt;SPG_NOTIFICATION -->
<g id="edge28" class="edge">
<title>SPG_ERROR_CLEAR_REQUEST:w&#45;&gt;SPG_NOTIFICATION:e</title>
<path fill="none" stroke="#000000" d="M1268.2726,-835.7117C1251.6339,-838.8074 1243.3658,-846.4275 1221,-846.4275"/>
<polygon fill="#000000" stroke="#000000" points="1275.0302,-835.1225 1283.3128,-838.0139 1279.0151,-834.775 1283,-834.4275 1283,-834.4275 1283,-834.4275 1279.0151,-834.775 1282.6872,-830.8411 1275.0302,-835.1225 1275.0302,-835.1225"/>
<ellipse fill="none" stroke="#000000" cx="1271.8423" cy="-835.4005" rx="3.2" ry="3.2"/>
</g>
<!-- SPG_VERSION_ENTRY -->
<g id="node12" class="node">
<title>SPG_VERSION_ENTRY</title>
<g id="a_node12"><a xlink:href="../../tables/SPG_VERSION_ENTRY.html" xlink:title="SPG_VERSION_ENTRY" target="_top">
<polygon fill="#ffffff" stroke="transparent" points="783.5,-505.9275 783.5,-698.9275 952.5,-698.9275 952.5,-505.9275 783.5,-505.9275"/>
<polygon fill="#f5f5f5" stroke="transparent" points="784,-675.4275 784,-698.4275 953,-698.4275 953,-675.4275 784,-675.4275"/>
<polygon fill="none" stroke="#000000" points="784,-675.4275 784,-698.4275 953,-698.4275 953,-675.4275 784,-675.4275"/>
<text text-anchor="start" x="789" y="-684.5275" font-family="Helvetica,sans-Serif" font-weight="bold" font-size="11.00" fill="#000000">SPG_VERSION_ENTRY</text>
<text text-anchor="start" x="918.0437" y="-683.5275" font-family="Helvetica,sans-Serif" font-size="11.00" fill="#000000">[table]</text>
<polygon fill="none" stroke="#000000" points="784,-653.4275 784,-675.4275 953,-675.4275 953,-653.4275 784,-653.4275"/>
<image xlink:href="../../images/primaryKeys.png" width="11px" height="12px" preserveAspectRatio="xMinYMin meet" x="789" y="-670.428"/>
<text text-anchor="start" x="804" y="-660.5275" font-family="Helvetica,sans-Serif" font-size="11.00" fill="#000000">SPG_VERSION_ENTRY_ID</text>
<polygon fill="none" stroke="#000000" points="784,-631.4275 784,-653.4275 953,-653.4275 953,-631.4275 784,-631.4275"/>
<image xlink:href="../../images/primaryKeys.png" width="11px" height="12px" preserveAspectRatio="xMinYMin meet" x="789" y="-648.428"/>
<text text-anchor="start" x="804" y="-638.5275" font-family="Helvetica,sans-Serif" font-size="11.00" fill="#000000">TABLE_NAME</text>
<polygon fill="none" stroke="#000000" points="784,-609.4275 784,-631.4275 953,-631.4275 953,-609.4275 784,-609.4275"/>
<image xlink:href="../../images/primaryKeys.png" width="11px" height="12px" preserveAspectRatio="xMinYMin meet" x="789" y="-626.428"/>
<text text-anchor="start" x="804" y="-616.5275" font-family="Helvetica,sans-Serif" font-size="11.00" fill="#000000">PRIMARY_KEY_ID</text>
<polygon fill="none" stroke="#000000" points="784,-587.4275 784,-609.4275 953,-609.4275 953,-587.4275 784,-587.4275"/>
<image xlink:href="../../images/primaryKeys.png" width="11px" height="12px" preserveAspectRatio="xMinYMin meet" x="789" y="-604.428"/>
<text text-anchor="start" x="804" y="-594.5275" font-family="Helvetica,sans-Serif" font-size="11.00" fill="#000000">CURRENT_RECORD_FLAG</text>
<polygon fill="none" stroke="#000000" points="784,-565.4275 784,-587.4275 953,-587.4275 953,-565.4275 784,-565.4275"/>
<image xlink:href="../../images/primaryKeys.png" width="11px" height="12px" preserveAspectRatio="xMinYMin meet" x="789" y="-582.428"/>
<text text-anchor="start" x="804" y="-572.5275" font-family="Helvetica,sans-Serif" font-size="11.00" fill="#000000">OFFENDER_ID</text>
<polygon fill="none" stroke="#000000" points="784,-543.4275 784,-565.4275 953,-565.4275 953,-543.4275 784,-543.4275"/>
<image xlink:href="../../images/primaryKeys.png" width="11px" height="12px" preserveAspectRatio="xMinYMin meet" x="789" y="-560.428"/>
<text text-anchor="start" x="799.3041" y="-550.5275" font-family="Helvetica,sans-Serif" font-size="11.00" fill="#000000">BUSINESS_INTERACTION_ID</text>
<polygon fill="none" stroke="#000000" points="784,-524.4275 784,-543.4275 953,-543.4275 953,-524.4275 784,-524.4275"/>
<text text-anchor="start" x="787" y="-530.5275" font-family="Helvetica,sans-Serif" font-size="11.00" fill="#000000">...</text>
<polygon fill="#ffffff" stroke="transparent" points="784,-505.4275 784,-524.4275 837,-524.4275 837,-505.4275 784,-505.4275"/>
<polygon fill="none" stroke="#000000" points="784,-505.4275 784,-524.4275 837,-524.4275 837,-505.4275 784,-505.4275"/>
<text text-anchor="start" x="787" y="-511.5275" font-family="Helvetica,sans-Serif" font-size="11.00" fill="#000000">&lt; 2</text>
<polygon fill="#ffffff" stroke="transparent" points="837,-505.4275 837,-524.4275 925,-524.4275 925,-505.4275 837,-505.4275"/>
<polygon fill="none" stroke="#000000" points="837,-505.4275 837,-524.4275 925,-524.4275 925,-505.4275 837,-505.4275"/>
<text text-anchor="start" x="855.9791" y="-511.5275" font-family="Helvetica,sans-Serif" font-size="11.00" fill="#000000">441,439 rows</text>
<polygon fill="#ffffff" stroke="transparent" points="925,-505.4275 925,-524.4275 953,-524.4275 953,-505.4275 925,-505.4275"/>
<polygon fill="none" stroke="#000000" points="925,-505.4275 925,-524.4275 953,-524.4275 953,-505.4275 925,-505.4275"/>
<text text-anchor="start" x="943.8862" y="-511.5275" font-family="Helvetica,sans-Serif" font-size="11.00" fill="#000000"> &#160;</text>
</a>
</g>
</g>
<!-- SPG_VERSION_ENTRY&#45;&gt;OFFENDER -->
<g id="edge37" class="edge">
<title>SPG_VERSION_ENTRY:w&#45;&gt;OFFENDER:e</title>
<path fill="none" stroke="#000000" d="M769.5833,-576.7318C627.5918,-582.7233 554.1408,-674.1405 443,-578.4275 397.027,-538.8361 463.1712,-308.4275 402.5,-308.4275"/>
<polygon fill="#000000" stroke="#000000" points="776.0018,-576.5964 784.076,-580.0267 780.0009,-576.5119 784,-576.4275 784,-576.4275 784,-576.4275 780.0009,-576.5119 783.924,-572.8283 776.0018,-576.5964 776.0018,-576.5964"/>
<ellipse fill="none" stroke="#000000" cx="772.8025" cy="-576.6639" rx="3.2" ry="3.2"/>
</g>
<!-- SPG_VERSION_ENTRY&#45;&gt;BUSINESS_INTERACTION -->
<g id="edge36" class="edge">
<title>SPG_VERSION_ENTRY:w&#45;&gt;BUSINESS_INTERACTION:e</title>
<path fill="none" stroke="#000000" d="M769.5034,-552.0731C753.5068,-546.3977 746.9673,-532.4275 724.5,-532.4275"/>
<polygon fill="#000000" stroke="#000000" points="776.1035,-553.145 783.4229,-557.9809 780.0517,-553.7862 784,-554.4275 784,-554.4275 784,-554.4275 780.0517,-553.7862 784.5771,-550.8741 776.1035,-553.145 776.1035,-553.145"/>
<ellipse fill="none" stroke="#000000" cx="772.9449" cy="-552.632" rx="3.2" ry="3.2"/>
</g>
<!-- RSINGH_DBA.SPG_NOTIFICATION -->
<g id="node13" class="node">
<title>RSINGH_DBA.SPG_NOTIFICATION</title>
<g id="a_node13"><a xlink:title="RSINGH_DBA.SPG_NOTIFICATION">
<polygon fill="#ffffff" stroke="transparent" points="1010,-253.9275 1010,-468.9275 1234,-468.9275 1234,-253.9275 1010,-253.9275"/>
<polygon fill="#f5f5f5" stroke="transparent" points="1010,-445.4275 1010,-468.4275 1234,-468.4275 1234,-445.4275 1010,-445.4275"/>
<polygon fill="none" stroke="#000000" points="1010,-445.4275 1010,-468.4275 1234,-468.4275 1234,-445.4275 1010,-445.4275"/>
<text text-anchor="start" x="1014.7484" y="-454.5275" font-family="Helvetica,sans-Serif" font-weight="bold" font-size="11.00" fill="#000000">RSINGH_DBA.SPG_NOTIFICATION</text>
<text text-anchor="start" x="1199.5219" y="-453.5275" font-family="Helvetica,sans-Serif" font-size="11.00" fill="#000000">[table]</text>
<polygon fill="none" stroke="#000000" points="1010,-423.4275 1010,-445.4275 1234,-445.4275 1234,-423.4275 1010,-423.4275"/>
<image xlink:href="../../images/foreignKeys.png" width="11px" height="12px" preserveAspectRatio="xMinYMin meet" x="1015" y="-440.428"/>
<text text-anchor="start" x="1043" y="-430.5275" font-family="Helvetica,sans-Serif" font-size="11.00" fill="#000000">BUSINESS_INTERACTION_ID</text>
<polygon fill="none" stroke="#000000" points="1010,-401.4275 1010,-423.4275 1234,-423.4275 1234,-401.4275 1010,-401.4275"/>
<image xlink:href="../../images/foreignKeys.png" width="11px" height="12px" preserveAspectRatio="xMinYMin meet" x="1015" y="-418.428"/>
<text text-anchor="start" x="1043" y="-408.5275" font-family="Helvetica,sans-Serif" font-size="11.00" fill="#000000">OFFENDER_ID</text>
<polygon fill="none" stroke="#000000" points="1010,-379.4275 1010,-401.4275 1234,-401.4275 1234,-379.4275 1010,-379.4275"/>
<image xlink:href="../../images/foreignKeys.png" width="11px" height="12px" preserveAspectRatio="xMinYMin meet" x="1015" y="-396.428"/>
<text text-anchor="start" x="1043" y="-386.5275" font-family="Helvetica,sans-Serif" font-size="11.00" fill="#000000">SENDER_IDENTITY_ID</text>
<polygon fill="none" stroke="#000000" points="1010,-357.4275 1010,-379.4275 1234,-379.4275 1234,-357.4275 1010,-357.4275"/>
<image xlink:href="../../images/foreignKeys.png" width="11px" height="12px" preserveAspectRatio="xMinYMin meet" x="1015" y="-374.428"/>
<text text-anchor="start" x="1043" y="-364.5275" font-family="Helvetica,sans-Serif" font-size="11.00" fill="#000000">RECEIVER_IDENTITY_ID</text>
<polygon fill="none" stroke="#000000" points="1010,-335.4275 1010,-357.4275 1234,-357.4275 1234,-335.4275 1010,-335.4275"/>
<image xlink:href="../../images/foreignKeys.png" width="11px" height="12px" preserveAspectRatio="xMinYMin meet" x="1015" y="-352.428"/>
<text text-anchor="start" x="1043" y="-342.5275" font-family="Helvetica,sans-Serif" font-size="11.00" fill="#000000">SPG_MESSAGE_CONTEXT_ID</text>
<polygon fill="none" stroke="#000000" points="1010,-313.4275 1010,-335.4275 1234,-335.4275 1234,-313.4275 1010,-313.4275"/>
<image xlink:href="../../images/foreignKeys.png" width="11px" height="12px" preserveAspectRatio="xMinYMin meet" x="1015" y="-330.428"/>
<text text-anchor="start" x="1041.4972" y="-320.5275" font-family="Helvetica,sans-Serif" font-size="11.00" fill="#000000">SPG_INTERCHANGE_STATUS_ID</text>
<polygon fill="none" stroke="#000000" points="1010,-291.4275 1010,-313.4275 1234,-313.4275 1234,-291.4275 1010,-291.4275"/>
<image xlink:href="../../images/foreignKeys.png" width="11px" height="12px" preserveAspectRatio="xMinYMin meet" x="1015" y="-308.428"/>
<text text-anchor="start" x="1043" y="-298.5275" font-family="Helvetica,sans-Serif" font-size="11.00" fill="#000000">DATA_SCRIPT_MESSAGE_ID</text>
<polygon fill="none" stroke="#000000" points="1010,-272.4275 1010,-291.4275 1234,-291.4275 1234,-272.4275 1010,-272.4275"/>
<text text-anchor="start" x="1013" y="-278.5275" font-family="Helvetica,sans-Serif" font-size="11.00" fill="#000000">...</text>
<polygon fill="#ffffff" stroke="transparent" points="1010,-253.4275 1010,-272.4275 1107,-272.4275 1107,-253.4275 1010,-253.4275"/>
<polygon fill="none" stroke="#000000" points="1010,-253.4275 1010,-272.4275 1107,-272.4275 1107,-253.4275 1010,-253.4275"/>
<text text-anchor="start" x="1013" y="-259.5275" font-family="Helvetica,sans-Serif" font-size="11.00" fill="#000000">&lt; 7</text>
<polygon fill="#ffffff" stroke="transparent" points="1107,-253.4275 1107,-272.4275 1183,-272.4275 1183,-253.4275 1107,-253.4275"/>
<polygon fill="none" stroke="#000000" points="1107,-253.4275 1107,-272.4275 1183,-272.4275 1183,-253.4275 1107,-253.4275"/>
<text text-anchor="start" x="1147.6105" y="-259.5275" font-family="Helvetica,sans-Serif" font-size="11.00" fill="#000000">0 rows</text>
<polygon fill="#ffffff" stroke="transparent" points="1183,-253.4275 1183,-272.4275 1234,-272.4275 1234,-253.4275 1183,-253.4275"/>
<polygon fill="none" stroke="#000000" points="1183,-253.4275 1183,-272.4275 1234,-272.4275 1234,-253.4275 1183,-253.4275"/>
<text text-anchor="start" x="1224.8862" y="-259.5275" font-family="Helvetica,sans-Serif" font-size="11.00" fill="#000000"> &#160;</text>
</a>
</g>
</g>
<!-- RSINGH_DBA.SPG_NOTIFICATION&#45;&gt;OFFENDER -->
<g id="edge40" class="edge">
<title>RSINGH_DBA.SPG_NOTIFICATION:w&#45;&gt;OFFENDER:e</title>
<path fill="none" stroke="#000000" d="M995.5569,-410.0651C957.1336,-394.5155 1016.7813,-306.3646 969,-270.4275 922.2919,-235.2976 497.3448,-248.9241 443,-270.4275 420.0487,-279.509 427.1827,-308.4275 402.5,-308.4275"/>
<polygon fill="#000000" stroke="#000000" points="1002.1049,-411.1361 1009.4189,-415.9803 1006.0525,-411.7818 1010,-412.4275 1010,-412.4275 1010,-412.4275 1006.0525,-411.7818 1010.5811,-408.8747 1002.1049,-411.1361 1002.1049,-411.1361"/>
<ellipse fill="none" stroke="#000000" cx="998.9469" cy="-410.6195" rx="3.2" ry="3.2"/>
</g>
<!-- RSINGH_DBA.SPG_NOTIFICATION&#45;&gt;DATA_SCRIPT_MESSAGE -->
<g id="edge39" class="edge">
<title>RSINGH_DBA.SPG_NOTIFICATION:w&#45;&gt;DATA_SCRIPT_MESSAGE:e</title>
<path fill="none" stroke="#000000" d="M996.0864,-306.6652C973.2226,-324.8587 1001.6971,-395.4275 961,-395.4275"/>
<polygon fill="#000000" stroke="#000000" points="1002.3471,-304.7584 1011.0489,-305.8713 1006.1735,-303.593 1010,-302.4275 1010,-302.4275 1010,-302.4275 1006.1735,-303.593 1008.9511,-298.9837 1002.3471,-304.7584 1002.3471,-304.7584"/>
<ellipse fill="none" stroke="#000000" cx="999.2859" cy="-305.6908" rx="3.2" ry="3.2"/>
</g>
<!-- RSINGH_DBA.SPG_NOTIFICATION&#45;&gt;BUSINESS_INTERACTION -->
<g id="edge38" class="edge">
<title>RSINGH_DBA.SPG_NOTIFICATION:w&#45;&gt;BUSINESS_INTERACTION:e</title>
<path fill="none" stroke="#000000" d="M995.4181,-436.5272C943.1417,-444.2479 768.2369,-470.6577 767,-471.4275 738.9467,-488.8864 757.5424,-532.4275 724.5,-532.4275"/>
<polygon fill="#000000" stroke="#000000" points="1002.0817,-435.5677 1010.5131,-437.9908 1006.0408,-434.9976 1010,-434.4275 1010,-434.4275 1010,-434.4275 1006.0408,-434.9976 1009.4869,-430.8642 1002.0817,-435.5677 1002.0817,-435.5677"/>
<ellipse fill="none" stroke="#000000" cx="998.9143" cy="-436.0238" rx="3.2" ry="3.2"/>
</g>
<!-- RSINGH_DBA.SPG_NOTIFICATION&#45;&gt;R_STANDARD_REFERENCE_LIST -->
<g id="edge43" class="edge">
<title>RSINGH_DBA.SPG_NOTIFICATION:w&#45;&gt;R_STANDARD_REFERENCE_LIST:e</title>
<path fill="none" stroke="#000000" d="M995.5263,-321.8373C961.0816,-306.3256 1013.6329,-225.3006 969,-192.4275 937.6875,-169.3652 300.7516,-169.9735 269,-192.4275 224.3545,-223.9997 282.6811,-308.4275 228,-308.4275"/>
<polygon fill="#000000" stroke="#000000" points="1002.1251,-323.0182 1009.3658,-327.9712 1006.0626,-323.7228 1010,-324.4275 1010,-324.4275 1010,-324.4275 1006.0626,-323.7228 1010.6342,-320.8838 1002.1251,-323.0182 1002.1251,-323.0182"/>
<ellipse fill="none" stroke="#000000" cx="998.9751" cy="-322.4545" rx="3.2" ry="3.2"/>
</g>
<!-- RSINGH_DBA.SPG_NOTIFICATION&#45;&gt;R_STANDARD_REFERENCE_LIST -->
<g id="edge44" class="edge">
<title>RSINGH_DBA.SPG_NOTIFICATION:w&#45;&gt;R_STANDARD_REFERENCE_LIST:e</title>
<path fill="none" stroke="#000000" d="M995.7685,-343.0328C972.6206,-328.3174 1003.7492,-269.7368 969,-246.4275 871.9276,-181.3126 559.6145,-238.423 443,-246.4275 365.1178,-251.7734 339.5548,-237.0172 269,-270.4275 246.5452,-281.0607 252.8452,-308.4275 228,-308.4275"/>
<polygon fill="#000000" stroke="#000000" points="1002.2183,-344.5713 1009.1647,-349.9293 1006.1092,-345.4994 1010,-346.4275 1010,-346.4275 1010,-346.4275 1006.1092,-345.4994 1010.8353,-342.9257 1002.2183,-344.5713 1002.2183,-344.5713"/>
<ellipse fill="none" stroke="#000000" cx="999.1056" cy="-343.8288" rx="3.2" ry="3.2"/>
</g>
<!-- RSINGH_DBA.SPG_NOTIFICATION&#45;&gt;PROBATION_AREA -->
<g id="edge41" class="edge">
<title>RSINGH_DBA.SPG_NOTIFICATION:w&#45;&gt;PROBATION_AREA:e</title>
<path fill="none" stroke="#000000" d="M995.9011,-372.1795C925.3556,-414.5983 1032.3484,-802.4275 940,-802.4275"/>
<polygon fill="#000000" stroke="#000000" points="1002.2691,-370.4849 1010.9258,-371.9064 1006.1345,-369.4562 1010,-368.4275 1010,-368.4275 1010,-368.4275 1006.1345,-369.4562 1009.0742,-364.9486 1002.2691,-370.4849 1002.2691,-370.4849"/>
<ellipse fill="none" stroke="#000000" cx="999.1767" cy="-371.3078" rx="3.2" ry="3.2"/>
</g>
<!-- RSINGH_DBA.SPG_NOTIFICATION&#45;&gt;PROBATION_AREA -->
<g id="edge42" class="edge">
<title>RSINGH_DBA.SPG_NOTIFICATION:w&#45;&gt;PROBATION_AREA:e</title>
<path fill="none" stroke="#000000" d="M995.7402,-394.5052C929.9789,-437.2943 1027.4262,-802.4275 940,-802.4275"/>
<polygon fill="#000000" stroke="#000000" points="1002.3083,-392.627 1010.9898,-393.8888 1006.1542,-391.5273 1010,-390.4275 1010,-390.4275 1010,-390.4275 1006.1542,-391.5273 1009.0102,-386.9662 1002.3083,-392.627 1002.3083,-392.627"/>
<ellipse fill="none" stroke="#000000" cx="999.2316" cy="-393.5069" rx="3.2" ry="3.2"/>
</g>
</g>
</svg>
