<?xml version="1.0" encoding="UTF-8" standalone="no"?>
<!DOCTYPE svg PUBLIC "-//W3C//DTD SVG 1.1//EN"
 "http://www.w3.org/Graphics/SVG/1.1/DTD/svg11.dtd">
<!-- Generated by graphviz version 2.40.1 (20161225.0304)
 -->
<!-- Title: twoDegreesRelationshipsDiagram Pages: 1 -->
<svg width="702pt" height="356pt"
 viewBox="0.00 0.00 702.00 355.70" xmlns="http://www.w3.org/2000/svg" xmlns:xlink="http://www.w3.org/1999/xlink">
<g id="graph0" class="graph" transform="scale(1 1) rotate(0) translate(4 351.7)">
<title>twoDegreesRelationshipsDiagram</title>
<polygon fill="#ffffff" stroke="transparent" points="-4,4 -4,-351.7 698,-351.7 698,4 -4,4"/>
<text text-anchor="middle" x="72.4936" y="-7.3" font-family="Helvetica,sans-Serif" font-size="11.00" fill="#000000">Generated by SchemaSpy</text>
<!-- DATA_SCRIPT_MESSAGE -->
<g id="node1" class="node">
<title>DATA_SCRIPT_MESSAGE</title>
<g id="a_node1"><a xlink:href="../../tables/DATA_SCRIPT_MESSAGE.html" xlink:title="DATA_SCRIPT_MESSAGE" target="_top">
<polygon fill="#ffffff" stroke="transparent" points="500,-194.7 500,-343.7 686,-343.7 686,-194.7 500,-194.7"/>
<polygon fill="#f5f5f5" stroke="transparent" points="500,-320.2 500,-343.2 686,-343.2 686,-320.2 500,-320.2"/>
<polygon fill="none" stroke="#000000" points="500,-320.2 500,-343.2 686,-343.2 686,-320.2 500,-320.2"/>
<text text-anchor="start" x="505" y="-329.3" font-family="Helvetica,sans-Serif" font-weight="bold" font-size="11.00" fill="#000000">DATA_SCRIPT_MESSAGE</text>
<text text-anchor="start" x="651.0437" y="-328.3" font-family="Helvetica,sans-Serif" font-size="11.00" fill="#000000">[table]</text>
<polygon fill="none" stroke="#000000" points="500,-298.2 500,-320.2 686,-320.2 686,-298.2 500,-298.2"/>
<image xlink:href="../../images/primaryKeys.png" width="11px" height="12px" preserveAspectRatio="xMinYMin meet" x="505" y="-315.2"/>
<text text-anchor="start" x="520" y="-305.3" font-family="Helvetica,sans-Serif" font-size="11.00" fill="#000000">DATA_SCRIPT_MESSAGE_ID</text>
<polygon fill="none" stroke="#000000" points="500,-276.2 500,-298.2 686,-298.2 686,-276.2 500,-276.2"/>
<image xlink:href="../../images/primaryKeys.png" width="11px" height="12px" preserveAspectRatio="xMinYMin meet" x="505" y="-293.2"/>
<text text-anchor="start" x="520" y="-283.3" font-family="Helvetica,sans-Serif" font-size="11.00" fill="#000000">OFFENDER_ID</text>
<polygon fill="none" stroke="#000000" points="500,-254.2 500,-276.2 686,-276.2 686,-254.2 500,-254.2"/>
<image xlink:href="../../images/primaryKeys.png" width="11px" height="12px" preserveAspectRatio="xMinYMin meet" x="505" y="-271.2"/>
<text text-anchor="start" x="520" y="-261.3" font-family="Helvetica,sans-Serif" font-size="11.00" fill="#000000">EVENT_ID</text>
<polygon fill="none" stroke="#000000" points="500,-232.2 500,-254.2 686,-254.2 686,-232.2 500,-232.2"/>
<image xlink:href="../../images/primaryKeys.png" width="11px" height="12px" preserveAspectRatio="xMinYMin meet" x="505" y="-249.2"/>
<text text-anchor="start" x="520" y="-239.3" font-family="Helvetica,sans-Serif" font-size="11.00" fill="#000000">BUSINESS_INTERACTION_ID</text>
<polygon fill="none" stroke="#000000" points="500,-213.2 500,-232.2 686,-232.2 686,-213.2 500,-213.2"/>
<text text-anchor="start" x="503" y="-219.3" font-family="Helvetica,sans-Serif" font-size="11.00" fill="#000000">...</text>
<polygon fill="#ffffff" stroke="transparent" points="500,-194.2 500,-213.2 572,-213.2 572,-194.2 500,-194.2"/>
<polygon fill="none" stroke="#000000" points="500,-194.2 500,-213.2 572,-213.2 572,-194.2 500,-194.2"/>
<text text-anchor="start" x="503" y="-200.3" font-family="Helvetica,sans-Serif" font-size="11.00" fill="#000000">&lt; 3</text>
<polygon fill="#ffffff" stroke="transparent" points="572,-194.2 572,-213.2 648,-213.2 648,-194.2 572,-194.2"/>
<polygon fill="none" stroke="#000000" points="572,-194.2 572,-213.2 648,-213.2 648,-194.2 572,-194.2"/>
<text text-anchor="start" x="600.3807" y="-200.3" font-family="Helvetica,sans-Serif" font-size="11.00" fill="#000000">132 rows</text>
<polygon fill="#ffffff" stroke="transparent" points="648,-194.2 648,-213.2 686,-213.2 686,-194.2 648,-194.2"/>
<polygon fill="none" stroke="#000000" points="648,-194.2 648,-213.2 686,-213.2 686,-194.2 648,-194.2"/>
<text text-anchor="start" x="676.8862" y="-200.3" font-family="Helvetica,sans-Serif" font-size="11.00" fill="#000000"> &#160;</text>
</a>
</g>
</g>
<!-- BUSINESS_INTERACTION -->
<g id="node2" class="node">
<title>BUSINESS_INTERACTION</title>
<g id="a_node2"><a xlink:href="../../tables/BUSINESS_INTERACTION.html" xlink:title="BUSINESS_INTERACTION" target="_top">
<polygon fill="#ffffff" stroke="transparent" points="176,-38.2 176,-216.2 451,-216.2 451,-38.2 176,-38.2"/>
<polygon fill="#f5f5f5" stroke="transparent" points="178.5,-191.2 178.5,-214.2 449.5,-214.2 449.5,-191.2 178.5,-191.2"/>
<polygon fill="none" stroke="#000000" points="178.5,-191.2 178.5,-214.2 449.5,-214.2 449.5,-191.2 178.5,-191.2"/>
<text text-anchor="start" x="183.5" y="-200.3" font-family="Helvetica,sans-Serif" font-weight="bold" font-size="11.00" fill="#000000">BUSINESS_INTERACTION</text>
<text text-anchor="start" x="414.5437" y="-199.3" font-family="Helvetica,sans-Serif" font-size="11.00" fill="#000000">[table]</text>
<polygon fill="none" stroke="#000000" points="178.5,-169.2 178.5,-191.2 376.5,-191.2 376.5,-169.2 178.5,-169.2"/>
<image xlink:href="../../images/primaryKeys.png" width="11px" height="12px" preserveAspectRatio="xMinYMin meet" x="183.5" y="-186.2"/>
<text text-anchor="start" x="198.5" y="-176.3" font-family="Helvetica,sans-Serif" font-size="11.00" fill="#000000">BUSINESS_INTERACTION_ID</text>
<polygon fill="none" stroke="#000000" points="376.5,-169.2 376.5,-191.2 449.5,-191.2 449.5,-169.2 376.5,-169.2"/>
<text text-anchor="start" x="379.5" y="-176.9" font-family="Helvetica,sans-Serif" font-size="11.00" fill="#000000">number[38]</text>
<polygon fill="none" stroke="#000000" points="178.5,-147.2 178.5,-169.2 376.5,-169.2 376.5,-147.2 178.5,-147.2"/>
<image xlink:href="../../images/primaryKeys.png" width="11px" height="12px" preserveAspectRatio="xMinYMin meet" x="183.5" y="-164.2"/>
<text text-anchor="start" x="197.9158" y="-154.3" font-family="Helvetica,sans-Serif" font-size="11.00" fill="#000000">BUSINESS_INTERACTION_CODE</text>
<polygon fill="none" stroke="#000000" points="376.5,-147.2 376.5,-169.2 449.5,-169.2 449.5,-147.2 376.5,-147.2"/>
<text text-anchor="start" x="379.5" y="-154.9" font-family="Helvetica,sans-Serif" font-size="11.00" fill="#000000">varchar2[20]</text>
<polygon fill="none" stroke="#000000" points="178.5,-125.2 178.5,-147.2 376.5,-147.2 376.5,-125.2 178.5,-125.2"/>
<text text-anchor="start" x="198.5" y="-132.3" font-family="Helvetica,sans-Serif" font-size="11.00" fill="#000000">DESCRIPTION</text>
<polygon fill="none" stroke="#000000" points="376.5,-125.2 376.5,-147.2 449.5,-147.2 449.5,-125.2 376.5,-125.2"/>
<text text-anchor="start" x="379.3791" y="-132.9" font-family="Helvetica,sans-Serif" font-size="11.00" fill="#000000">varchar2[500]</text>
<polygon fill="none" stroke="#000000" points="178.5,-103.2 178.5,-125.2 376.5,-125.2 376.5,-103.2 178.5,-103.2"/>
<text text-anchor="start" x="198.5" y="-110.3" font-family="Helvetica,sans-Serif" font-size="11.00" fill="#000000">ENABLED_DATE</text>
<polygon fill="none" stroke="#000000" points="376.5,-103.2 376.5,-125.2 449.5,-125.2 449.5,-103.2 376.5,-103.2"/>
<text text-anchor="start" x="379.5" y="-110.9" font-family="Helvetica,sans-Serif" font-size="11.00" fill="#000000">date[7]</text>
<polygon fill="none" stroke="#000000" points="178.5,-81.2 178.5,-103.2 376.5,-103.2 376.5,-81.2 178.5,-81.2"/>
<text text-anchor="start" x="190.8934" y="-88.3" font-family="Helvetica,sans-Serif" font-size="11.00" fill="#000000">AUDIT_INTERACTION_PARAMETER</text>
<polygon fill="none" stroke="#000000" points="376.5,-81.2 376.5,-103.2 449.5,-103.2 449.5,-81.2 376.5,-81.2"/>
<text text-anchor="start" x="379.5" y="-88.9" font-family="Helvetica,sans-Serif" font-size="11.00" fill="#000000">date[7]</text>
<polygon fill="none" stroke="#000000" points="178.5,-59.2 178.5,-81.2 376.5,-81.2 376.5,-59.2 178.5,-59.2"/>
<text text-anchor="start" x="198.5" y="-66.3" font-family="Helvetica,sans-Serif" font-size="11.00" fill="#000000">ROW_VERSION</text>
<polygon fill="none" stroke="#000000" points="376.5,-59.2 376.5,-81.2 449.5,-81.2 449.5,-59.2 376.5,-59.2"/>
<text text-anchor="start" x="379.5" y="-66.9" font-family="Helvetica,sans-Serif" font-size="11.00" fill="#000000">number[38]</text>
<polygon fill="#ffffff" stroke="transparent" points="178.5,-40.2 178.5,-59.2 258.5,-59.2 258.5,-40.2 178.5,-40.2"/>
<polygon fill="none" stroke="#000000" points="178.5,-40.2 178.5,-59.2 258.5,-59.2 258.5,-40.2 178.5,-40.2"/>
<text text-anchor="start" x="181.5" y="-46.3" font-family="Helvetica,sans-Serif" font-size="11.00" fill="#000000">&lt; 0</text>
<polygon fill="#ffffff" stroke="transparent" points="258.5,-40.2 258.5,-59.2 376.5,-59.2 376.5,-40.2 258.5,-40.2"/>
<polygon fill="none" stroke="#000000" points="258.5,-40.2 258.5,-59.2 376.5,-59.2 376.5,-40.2 258.5,-40.2"/>
<text text-anchor="start" x="319.7089" y="-46.3" font-family="Helvetica,sans-Serif" font-size="11.00" fill="#000000">1,088 rows</text>
<polygon fill="#ffffff" stroke="transparent" points="376.5,-40.2 376.5,-59.2 449.5,-59.2 449.5,-40.2 376.5,-40.2"/>
<polygon fill="none" stroke="#000000" points="376.5,-40.2 376.5,-59.2 449.5,-59.2 449.5,-40.2 376.5,-40.2"/>
<text text-anchor="start" x="430.9053" y="-46.3" font-family="Helvetica,sans-Serif" font-size="11.00" fill="#000000">1 &gt;</text>
<polygon fill="none" stroke="#000000" stroke-width="2" points="177,-39.2 177,-215.2 450,-215.2 450,-39.2 177,-39.2"/>
</a>
</g>
</g>
<!-- DATA_SCRIPT_MESSAGE&#45;&gt;BUSINESS_INTERACTION -->
<g id="edge1" class="edge">
<title>DATA_SCRIPT_MESSAGE:w&#45;&gt;BUSINESS_INTERACTION:e</title>
<path fill="none" stroke="#000000" d="M485.9816,-238.2565C469.738,-223.4048 479.2175,-180.2 449.5,-180.2"/>
<polygon fill="#000000" stroke="#000000" points="492.4554,-240.5394 498.8027,-246.5951 496.2277,-241.8697 500,-243.2 500,-243.2 500,-243.2 496.2277,-241.8697 501.1973,-239.8049 492.4554,-240.5394 492.4554,-240.5394"/>
<ellipse fill="none" stroke="#000000" cx="489.4375" cy="-239.4752" rx="3.2" ry="3.2"/>
</g>
<!-- EVENT -->
<g id="node3" class="node">
<title>EVENT</title>
<g id="a_node3"><a xlink:href="../../tables/EVENT.html" xlink:title="EVENT" target="_top">
<polygon fill="#ffffff" stroke="transparent" points="257,-237.7 257,-298.7 370,-298.7 370,-237.7 257,-237.7"/>
<polygon fill="#f5f5f5" stroke="transparent" points="257.5,-275.2 257.5,-298.2 370.5,-298.2 370.5,-275.2 257.5,-275.2"/>
<polygon fill="none" stroke="#000000" points="257.5,-275.2 257.5,-298.2 370.5,-298.2 370.5,-275.2 257.5,-275.2"/>
<text text-anchor="start" x="262.5" y="-284.3" font-family="Helvetica,sans-Serif" font-weight="bold" font-size="11.00" fill="#000000">EVENT</text>
<text text-anchor="start" x="335.5437" y="-283.3" font-family="Helvetica,sans-Serif" font-size="11.00" fill="#000000">[table]</text>
<polygon fill="none" stroke="#000000" points="257.5,-256.2 257.5,-275.2 370.5,-275.2 370.5,-256.2 257.5,-256.2"/>
<text text-anchor="start" x="260.5" y="-262.3" font-family="Helvetica,sans-Serif" font-size="11.00" fill="#000000">...</text>
<polygon fill="#ffffff" stroke="transparent" points="257.5,-237.2 257.5,-256.2 278.5,-256.2 278.5,-237.2 257.5,-237.2"/>
<polygon fill="none" stroke="#000000" points="257.5,-237.2 257.5,-256.2 278.5,-256.2 278.5,-237.2 257.5,-237.2"/>
<text text-anchor="start" x="260.2027" y="-243.3" font-family="Helvetica,sans-Serif" font-size="11.00" fill="#000000">&lt; 5</text>
<polygon fill="#ffffff" stroke="transparent" points="278.5,-237.2 278.5,-256.2 343.5,-256.2 343.5,-237.2 278.5,-237.2"/>
<polygon fill="none" stroke="#000000" points="278.5,-237.2 278.5,-256.2 343.5,-256.2 343.5,-237.2 278.5,-237.2"/>
<text text-anchor="start" x="281.047" y="-243.3" font-family="Helvetica,sans-Serif" font-size="11.00" fill="#000000">14,604 rows</text>
<polygon fill="#ffffff" stroke="transparent" points="343.5,-237.2 343.5,-256.2 370.5,-256.2 370.5,-237.2 343.5,-237.2"/>
<polygon fill="none" stroke="#000000" points="343.5,-237.2 343.5,-256.2 370.5,-256.2 370.5,-237.2 343.5,-237.2"/>
<text text-anchor="start" x="346.1452" y="-243.3" font-family="Helvetica,sans-Serif" font-size="11.00" fill="#000000">26 &gt;</text>
</a>
</g>
</g>
<!-- DATA_SCRIPT_MESSAGE&#45;&gt;EVENT -->
<g id="edge2" class="edge">
<title>DATA_SCRIPT_MESSAGE:w&#45;&gt;EVENT:e</title>
<path fill="none" stroke="#000000" d="M485.4697,-265.2C439.5105,-265.2 422.8845,-265.2 370.5,-265.2"/>
<polygon fill="#000000" stroke="#000000" points="492,-265.2001 500,-268.8 496,-265.2 500,-265.2 500,-265.2 500,-265.2 496,-265.2 500,-261.6 492,-265.2001 492,-265.2001"/>
<ellipse fill="none" stroke="#000000" cx="488.8" cy="-265.2001" rx="3.2" ry="3.2"/>
</g>
<!-- OFFENDER -->
<g id="node4" class="node">
<title>OFFENDER</title>
<g id="a_node4"><a xlink:href="../../tables/OFFENDER.html" xlink:title="OFFENDER" target="_top">
<polygon fill="#ffffff" stroke="transparent" points="8,-266.7 8,-327.7 127,-327.7 127,-266.7 8,-266.7"/>
<polygon fill="#f5f5f5" stroke="transparent" points="8.5,-304.2 8.5,-327.2 127.5,-327.2 127.5,-304.2 8.5,-304.2"/>
<polygon fill="none" stroke="#000000" points="8.5,-304.2 8.5,-327.2 127.5,-327.2 127.5,-304.2 8.5,-304.2"/>
<text text-anchor="start" x="13.5" y="-313.3" font-family="Helvetica,sans-Serif" font-weight="bold" font-size="11.00" fill="#000000">OFFENDER</text>
<text text-anchor="start" x="92.5437" y="-312.3" font-family="Helvetica,sans-Serif" font-size="11.00" fill="#000000">[table]</text>
<polygon fill="none" stroke="#000000" points="8.5,-285.2 8.5,-304.2 127.5,-304.2 127.5,-285.2 8.5,-285.2"/>
<text text-anchor="start" x="11.5" y="-291.3" font-family="Helvetica,sans-Serif" font-size="11.00" fill="#000000">...</text>
<polygon fill="#ffffff" stroke="transparent" points="8.5,-266.2 8.5,-285.2 35.5,-285.2 35.5,-266.2 8.5,-266.2"/>
<polygon fill="none" stroke="#000000" points="8.5,-266.2 8.5,-285.2 35.5,-285.2 35.5,-266.2 8.5,-266.2"/>
<text text-anchor="start" x="11.1452" y="-272.3" font-family="Helvetica,sans-Serif" font-size="11.00" fill="#000000">&lt; 16</text>
<polygon fill="#ffffff" stroke="transparent" points="35.5,-266.2 35.5,-285.2 100.5,-285.2 100.5,-266.2 35.5,-266.2"/>
<polygon fill="none" stroke="#000000" points="35.5,-266.2 35.5,-285.2 100.5,-285.2 100.5,-266.2 35.5,-266.2"/>
<text text-anchor="start" x="38.047" y="-272.3" font-family="Helvetica,sans-Serif" font-size="11.00" fill="#000000">18,527 rows</text>
<polygon fill="#ffffff" stroke="transparent" points="100.5,-266.2 100.5,-285.2 127.5,-285.2 127.5,-266.2 100.5,-266.2"/>
<polygon fill="none" stroke="#000000" points="100.5,-266.2 100.5,-285.2 127.5,-285.2 127.5,-266.2 100.5,-266.2"/>
<text text-anchor="start" x="103.1452" y="-272.3" font-family="Helvetica,sans-Serif" font-size="11.00" fill="#000000">96 &gt;</text>
</a>
</g>
</g>
<!-- DATA_SCRIPT_MESSAGE&#45;&gt;OFFENDER -->
<g id="edge3" class="edge">
<title>DATA_SCRIPT_MESSAGE:w&#45;&gt;OFFENDER:e</title>
<path fill="none" stroke="#000000" d="M485.928,-290.9285C477.419,-296.219 473.1019,-305.6556 459,-309.2 333.568,-340.7265 295.3046,-332.0176 168,-309.2 149.1062,-305.8135 146.6949,-294.2 127.5,-294.2"/>
<polygon fill="#000000" stroke="#000000" points="492.2668,-289.249 500.922,-290.6799 496.1334,-288.2245 500,-287.2 500,-287.2 500,-287.2 496.1334,-288.2245 499.078,-283.7201 492.2668,-289.249 492.2668,-289.249"/>
<ellipse fill="none" stroke="#000000" cx="489.1736" cy="-290.0686" rx="3.2" ry="3.2"/>
</g>
<!-- EVENT&#45;&gt;OFFENDER -->
<g id="edge4" class="edge">
<title>EVENT:w&#45;&gt;OFFENDER:e</title>
<path fill="none" stroke="#000000" d="M242.9295,-265.8327C195.8946,-270.0736 181.495,-294.2 127.5,-294.2"/>
<polygon fill="#000000" stroke="#000000" points="249.5075,-265.5471 257.6562,-268.7966 253.5038,-265.3735 257.5,-265.2 257.5,-265.2 257.5,-265.2 253.5038,-265.3735 257.3438,-261.6034 249.5075,-265.5471 249.5075,-265.5471"/>
<ellipse fill="none" stroke="#000000" cx="246.3105" cy="-265.6859" rx="3.2" ry="3.2"/>
</g>
</g>
</svg>
