<?xml version="1.0" encoding="UTF-8" standalone="no"?>
<!DOCTYPE svg PUBLIC "-//W3C//DTD SVG 1.1//EN"
 "http://www.w3.org/Graphics/SVG/1.1/DTD/svg11.dtd">
<!-- Generated by graphviz version 2.40.1 (20161225.0304)
 -->
<!-- Title: oneDegreeRelationshipsDiagram Pages: 1 -->
<svg width="807pt" height="744pt"
 viewBox="0.00 0.00 807.00 744.20" xmlns="http://www.w3.org/2000/svg" xmlns:xlink="http://www.w3.org/1999/xlink">
<g id="graph0" class="graph" transform="scale(1 1) rotate(0) translate(4 740.2)">
<title>oneDegreeRelationshipsDiagram</title>
<polygon fill="#ffffff" stroke="transparent" points="-4,4 -4,-740.2 803,-740.2 803,4 -4,4"/>
<text text-anchor="middle" x="72.4936" y="-7.3" font-family="Helvetica,sans-Serif" font-size="11.00" fill="#000000">Generated by SchemaSpy</text>
<!-- DATA_SCRIPT_MESSAGE -->
<g id="node1" class="node">
<title>DATA_SCRIPT_MESSAGE</title>
<g id="a_node1"><a xlink:href="../../tables/DATA_SCRIPT_MESSAGE.html" xlink:title="DATA_SCRIPT_MESSAGE" target="_top">
<polygon fill="#ffffff" stroke="transparent" points="332,-332.2 332,-481.2 518,-481.2 518,-332.2 332,-332.2"/>
<polygon fill="#f5f5f5" stroke="transparent" points="332,-457.7 332,-480.7 518,-480.7 518,-457.7 332,-457.7"/>
<polygon fill="none" stroke="#000000" points="332,-457.7 332,-480.7 518,-480.7 518,-457.7 332,-457.7"/>
<text text-anchor="start" x="337" y="-466.8" font-family="Helvetica,sans-Serif" font-weight="bold" font-size="11.00" fill="#000000">DATA_SCRIPT_MESSAGE</text>
<text text-anchor="start" x="483.0437" y="-465.8" font-family="Helvetica,sans-Serif" font-size="11.00" fill="#000000">[table]</text>
<polygon fill="none" stroke="#000000" points="332,-435.7 332,-457.7 518,-457.7 518,-435.7 332,-435.7"/>
<image xlink:href="../../images/primaryKeys.png" width="11px" height="12px" preserveAspectRatio="xMinYMin meet" x="337" y="-452.7"/>
<text text-anchor="start" x="352" y="-442.8" font-family="Helvetica,sans-Serif" font-size="11.00" fill="#000000">DATA_SCRIPT_MESSAGE_ID</text>
<polygon fill="none" stroke="#000000" points="332,-413.7 332,-435.7 518,-435.7 518,-413.7 332,-413.7"/>
<image xlink:href="../../images/primaryKeys.png" width="11px" height="12px" preserveAspectRatio="xMinYMin meet" x="337" y="-430.7"/>
<text text-anchor="start" x="352" y="-420.8" font-family="Helvetica,sans-Serif" font-size="11.00" fill="#000000">OFFENDER_ID</text>
<polygon fill="none" stroke="#000000" points="332,-391.7 332,-413.7 518,-413.7 518,-391.7 332,-391.7"/>
<image xlink:href="../../images/primaryKeys.png" width="11px" height="12px" preserveAspectRatio="xMinYMin meet" x="337" y="-408.7"/>
<text text-anchor="start" x="352" y="-398.8" font-family="Helvetica,sans-Serif" font-size="11.00" fill="#000000">EVENT_ID</text>
<polygon fill="none" stroke="#000000" points="332,-369.7 332,-391.7 518,-391.7 518,-369.7 332,-369.7"/>
<image xlink:href="../../images/primaryKeys.png" width="11px" height="12px" preserveAspectRatio="xMinYMin meet" x="337" y="-386.7"/>
<text text-anchor="start" x="352" y="-376.8" font-family="Helvetica,sans-Serif" font-size="11.00" fill="#000000">BUSINESS_INTERACTION_ID</text>
<polygon fill="none" stroke="#000000" points="332,-350.7 332,-369.7 518,-369.7 518,-350.7 332,-350.7"/>
<text text-anchor="start" x="335" y="-356.8" font-family="Helvetica,sans-Serif" font-size="11.00" fill="#000000">...</text>
<polygon fill="#ffffff" stroke="transparent" points="332,-331.7 332,-350.7 400,-350.7 400,-331.7 332,-331.7"/>
<polygon fill="none" stroke="#000000" points="332,-331.7 332,-350.7 400,-350.7 400,-331.7 332,-331.7"/>
<text text-anchor="start" x="335" y="-337.8" font-family="Helvetica,sans-Serif" font-size="11.00" fill="#000000">&lt; 3</text>
<polygon fill="#ffffff" stroke="transparent" points="400,-331.7 400,-350.7 473,-350.7 473,-331.7 400,-331.7"/>
<polygon fill="none" stroke="#000000" points="400,-331.7 400,-350.7 473,-350.7 473,-331.7 400,-331.7"/>
<text text-anchor="start" x="425.3807" y="-337.8" font-family="Helvetica,sans-Serif" font-size="11.00" fill="#000000">132 rows</text>
<polygon fill="#ffffff" stroke="transparent" points="473,-331.7 473,-350.7 518,-350.7 518,-331.7 473,-331.7"/>
<polygon fill="none" stroke="#000000" points="473,-331.7 473,-350.7 518,-350.7 518,-331.7 473,-331.7"/>
<text text-anchor="start" x="499.4053" y="-337.8" font-family="Helvetica,sans-Serif" font-size="11.00" fill="#000000">2 &gt;</text>
</a>
</g>
</g>
<!-- BUSINESS_INTERACTION -->
<g id="node2" class="node">
<title>BUSINESS_INTERACTION</title>
<g id="a_node2"><a xlink:href="../../tables/BUSINESS_INTERACTION.html" xlink:title="BUSINESS_INTERACTION" target="_top">
<polygon fill="#ffffff" stroke="transparent" points="8,-131.7 8,-309.7 283,-309.7 283,-131.7 8,-131.7"/>
<polygon fill="#f5f5f5" stroke="transparent" points="10.5,-284.7 10.5,-307.7 281.5,-307.7 281.5,-284.7 10.5,-284.7"/>
<polygon fill="none" stroke="#000000" points="10.5,-284.7 10.5,-307.7 281.5,-307.7 281.5,-284.7 10.5,-284.7"/>
<text text-anchor="start" x="15.5" y="-293.8" font-family="Helvetica,sans-Serif" font-weight="bold" font-size="11.00" fill="#000000">BUSINESS_INTERACTION</text>
<text text-anchor="start" x="246.5437" y="-292.8" font-family="Helvetica,sans-Serif" font-size="11.00" fill="#000000">[table]</text>
<polygon fill="none" stroke="#000000" points="10.5,-262.7 10.5,-284.7 208.5,-284.7 208.5,-262.7 10.5,-262.7"/>
<image xlink:href="../../images/primaryKeys.png" width="11px" height="12px" preserveAspectRatio="xMinYMin meet" x="15.5" y="-279.7"/>
<text text-anchor="start" x="30.5" y="-269.8" font-family="Helvetica,sans-Serif" font-size="11.00" fill="#000000">BUSINESS_INTERACTION_ID</text>
<polygon fill="none" stroke="#000000" points="208.5,-262.7 208.5,-284.7 281.5,-284.7 281.5,-262.7 208.5,-262.7"/>
<text text-anchor="start" x="211.5" y="-270.4" font-family="Helvetica,sans-Serif" font-size="11.00" fill="#000000">number[38]</text>
<polygon fill="none" stroke="#000000" points="10.5,-240.7 10.5,-262.7 208.5,-262.7 208.5,-240.7 10.5,-240.7"/>
<image xlink:href="../../images/primaryKeys.png" width="11px" height="12px" preserveAspectRatio="xMinYMin meet" x="15.5" y="-257.7"/>
<text text-anchor="start" x="29.9158" y="-247.8" font-family="Helvetica,sans-Serif" font-size="11.00" fill="#000000">BUSINESS_INTERACTION_CODE</text>
<polygon fill="none" stroke="#000000" points="208.5,-240.7 208.5,-262.7 281.5,-262.7 281.5,-240.7 208.5,-240.7"/>
<text text-anchor="start" x="211.5" y="-248.4" font-family="Helvetica,sans-Serif" font-size="11.00" fill="#000000">varchar2[20]</text>
<polygon fill="none" stroke="#000000" points="10.5,-218.7 10.5,-240.7 208.5,-240.7 208.5,-218.7 10.5,-218.7"/>
<text text-anchor="start" x="30.5" y="-225.8" font-family="Helvetica,sans-Serif" font-size="11.00" fill="#000000">DESCRIPTION</text>
<polygon fill="none" stroke="#000000" points="208.5,-218.7 208.5,-240.7 281.5,-240.7 281.5,-218.7 208.5,-218.7"/>
<text text-anchor="start" x="211.3791" y="-226.4" font-family="Helvetica,sans-Serif" font-size="11.00" fill="#000000">varchar2[500]</text>
<polygon fill="none" stroke="#000000" points="10.5,-196.7 10.5,-218.7 208.5,-218.7 208.5,-196.7 10.5,-196.7"/>
<text text-anchor="start" x="30.5" y="-203.8" font-family="Helvetica,sans-Serif" font-size="11.00" fill="#000000">ENABLED_DATE</text>
<polygon fill="none" stroke="#000000" points="208.5,-196.7 208.5,-218.7 281.5,-218.7 281.5,-196.7 208.5,-196.7"/>
<text text-anchor="start" x="211.5" y="-204.4" font-family="Helvetica,sans-Serif" font-size="11.00" fill="#000000">date[7]</text>
<polygon fill="none" stroke="#000000" points="10.5,-174.7 10.5,-196.7 208.5,-196.7 208.5,-174.7 10.5,-174.7"/>
<text text-anchor="start" x="22.8934" y="-181.8" font-family="Helvetica,sans-Serif" font-size="11.00" fill="#000000">AUDIT_INTERACTION_PARAMETER</text>
<polygon fill="none" stroke="#000000" points="208.5,-174.7 208.5,-196.7 281.5,-196.7 281.5,-174.7 208.5,-174.7"/>
<text text-anchor="start" x="211.5" y="-182.4" font-family="Helvetica,sans-Serif" font-size="11.00" fill="#000000">date[7]</text>
<polygon fill="none" stroke="#000000" points="10.5,-152.7 10.5,-174.7 208.5,-174.7 208.5,-152.7 10.5,-152.7"/>
<text text-anchor="start" x="30.5" y="-159.8" font-family="Helvetica,sans-Serif" font-size="11.00" fill="#000000">ROW_VERSION</text>
<polygon fill="none" stroke="#000000" points="208.5,-152.7 208.5,-174.7 281.5,-174.7 281.5,-152.7 208.5,-152.7"/>
<text text-anchor="start" x="211.5" y="-160.4" font-family="Helvetica,sans-Serif" font-size="11.00" fill="#000000">number[38]</text>
<polygon fill="#ffffff" stroke="transparent" points="10.5,-133.7 10.5,-152.7 90.5,-152.7 90.5,-133.7 10.5,-133.7"/>
<polygon fill="none" stroke="#000000" points="10.5,-133.7 10.5,-152.7 90.5,-152.7 90.5,-133.7 10.5,-133.7"/>
<text text-anchor="start" x="13.5" y="-139.8" font-family="Helvetica,sans-Serif" font-size="11.00" fill="#000000">&lt; 0</text>
<polygon fill="#ffffff" stroke="transparent" points="90.5,-133.7 90.5,-152.7 208.5,-152.7 208.5,-133.7 90.5,-133.7"/>
<polygon fill="none" stroke="#000000" points="90.5,-133.7 90.5,-152.7 208.5,-152.7 208.5,-133.7 90.5,-133.7"/>
<text text-anchor="start" x="151.7089" y="-139.8" font-family="Helvetica,sans-Serif" font-size="11.00" fill="#000000">1,090 rows</text>
<polygon fill="#ffffff" stroke="transparent" points="208.5,-133.7 208.5,-152.7 281.5,-152.7 281.5,-133.7 208.5,-133.7"/>
<polygon fill="none" stroke="#000000" points="208.5,-133.7 208.5,-152.7 281.5,-152.7 281.5,-133.7 208.5,-133.7"/>
<text text-anchor="start" x="262.9053" y="-139.8" font-family="Helvetica,sans-Serif" font-size="11.00" fill="#000000">4 &gt;</text>
<polygon fill="none" stroke="#000000" stroke-width="2" points="9,-132.7 9,-308.7 282,-308.7 282,-132.7 9,-132.7"/>
</a>
</g>
</g>
<!-- DATA_SCRIPT_MESSAGE&#45;&gt;BUSINESS_INTERACTION -->
<g id="edge1" class="edge">
<title>DATA_SCRIPT_MESSAGE:w&#45;&gt;BUSINESS_INTERACTION:e</title>
<path fill="none" stroke="#000000" d="M317.9464,-376.8918C290.4242,-357.8309 328.129,-273.7 281.5,-273.7"/>
<polygon fill="#000000" stroke="#000000" points="324.2785,-378.6076 331.0584,-384.1747 328.1392,-379.6538 332,-380.7 332,-380.7 332,-380.7 328.1392,-379.6538 332.9416,-377.2253 324.2785,-378.6076 324.2785,-378.6076"/>
<ellipse fill="none" stroke="#000000" cx="321.1898" cy="-377.7707" rx="3.2" ry="3.2"/>
</g>
<!-- SPG_NOTIFICATION -->
<g id="node3" class="node">
<title>SPG_NOTIFICATION</title>
<g id="a_node3"><a xlink:href="../../tables/SPG_NOTIFICATION.html" xlink:title="SPG_NOTIFICATION" target="_top">
<polygon fill="#ffffff" stroke="transparent" points="580,-341.2 580,-732.2 778,-732.2 778,-341.2 580,-341.2"/>
<polygon fill="#f5f5f5" stroke="transparent" points="580,-708.7 580,-731.7 778,-731.7 778,-708.7 580,-708.7"/>
<polygon fill="none" stroke="#000000" points="580,-708.7 580,-731.7 778,-731.7 778,-708.7 580,-708.7"/>
<text text-anchor="start" x="585" y="-717.8" font-family="Helvetica,sans-Serif" font-weight="bold" font-size="11.00" fill="#000000">SPG_NOTIFICATION</text>
<text text-anchor="start" x="743.0437" y="-716.8" font-family="Helvetica,sans-Serif" font-size="11.00" fill="#000000">[table]</text>
<polygon fill="none" stroke="#000000" points="580,-686.7 580,-708.7 778,-708.7 778,-686.7 580,-686.7"/>
<image xlink:href="../../images/primaryKeys.png" width="11px" height="12px" preserveAspectRatio="xMinYMin meet" x="585" y="-703.7"/>
<text text-anchor="start" x="600" y="-693.8" font-family="Helvetica,sans-Serif" font-size="11.00" fill="#000000">SPG_NOTIFICATION_ID</text>
<polygon fill="none" stroke="#000000" points="580,-664.7 580,-686.7 778,-686.7 778,-664.7 580,-664.7"/>
<image xlink:href="../../images/primaryKeys.png" width="11px" height="12px" preserveAspectRatio="xMinYMin meet" x="585" y="-681.7"/>
<text text-anchor="start" x="600" y="-671.8" font-family="Helvetica,sans-Serif" font-size="11.00" fill="#000000">BUSINESS_INTERACTION_ID</text>
<polygon fill="none" stroke="#000000" points="580,-642.7 580,-664.7 778,-664.7 778,-642.7 580,-642.7"/>
<image xlink:href="../../images/primaryKeys.png" width="11px" height="12px" preserveAspectRatio="xMinYMin meet" x="585" y="-659.7"/>
<text text-anchor="start" x="600" y="-649.8" font-family="Helvetica,sans-Serif" font-size="11.00" fill="#000000">OFFENDER_ID</text>
<polygon fill="none" stroke="#000000" points="580,-620.7 580,-642.7 778,-642.7 778,-620.7 580,-620.7"/>
<image xlink:href="../../images/primaryKeys.png" width="11px" height="12px" preserveAspectRatio="xMinYMin meet" x="585" y="-637.7"/>
<text text-anchor="start" x="600" y="-627.8" font-family="Helvetica,sans-Serif" font-size="11.00" fill="#000000">DATE_CREATED</text>
<polygon fill="none" stroke="#000000" points="580,-598.7 580,-620.7 778,-620.7 778,-598.7 580,-598.7"/>
<image xlink:href="../../images/primaryKeys.png" width="11px" height="12px" preserveAspectRatio="xMinYMin meet" x="585" y="-615.7"/>
<text text-anchor="start" x="600" y="-605.8" font-family="Helvetica,sans-Serif" font-size="11.00" fill="#000000">PROCESSED_FLAG</text>
<polygon fill="none" stroke="#000000" points="580,-576.7 580,-598.7 778,-598.7 778,-576.7 580,-576.7"/>
<image xlink:href="../../images/primaryKeys.png" width="11px" height="12px" preserveAspectRatio="xMinYMin meet" x="585" y="-593.7"/>
<text text-anchor="start" x="600" y="-583.8" font-family="Helvetica,sans-Serif" font-size="11.00" fill="#000000">CONTROL_REFERENCE</text>
<polygon fill="none" stroke="#000000" points="580,-554.7 580,-576.7 778,-576.7 778,-554.7 580,-554.7"/>
<image xlink:href="../../images/primaryKeys.png" width="11px" height="12px" preserveAspectRatio="xMinYMin meet" x="585" y="-571.7"/>
<text text-anchor="start" x="600" y="-561.8" font-family="Helvetica,sans-Serif" font-size="11.00" fill="#000000">SENDER_IDENTITY_ID</text>
<polygon fill="none" stroke="#000000" points="580,-532.7 580,-554.7 778,-554.7 778,-532.7 580,-532.7"/>
<image xlink:href="../../images/primaryKeys.png" width="11px" height="12px" preserveAspectRatio="xMinYMin meet" x="585" y="-549.7"/>
<text text-anchor="start" x="600" y="-539.8" font-family="Helvetica,sans-Serif" font-size="11.00" fill="#000000">RECEIVER_IDENTITY_ID</text>
<polygon fill="none" stroke="#000000" points="580,-510.7 580,-532.7 778,-532.7 778,-510.7 580,-510.7"/>
<image xlink:href="../../images/primaryKeys.png" width="11px" height="12px" preserveAspectRatio="xMinYMin meet" x="585" y="-527.7"/>
<text text-anchor="start" x="591.4743" y="-517.8" font-family="Helvetica,sans-Serif" font-size="11.00" fill="#000000">RECEIVER_CONTROL_REFERENCE</text>
<polygon fill="none" stroke="#000000" points="580,-488.7 580,-510.7 778,-510.7 778,-488.7 580,-488.7"/>
<image xlink:href="../../images/primaryKeys.png" width="11px" height="12px" preserveAspectRatio="xMinYMin meet" x="585" y="-505.7"/>
<text text-anchor="start" x="600" y="-495.8" font-family="Helvetica,sans-Serif" font-size="11.00" fill="#000000">MESSAGE_DIRECTION</text>
<polygon fill="none" stroke="#000000" points="580,-466.7 580,-488.7 778,-488.7 778,-466.7 580,-466.7"/>
<image xlink:href="../../images/primaryKeys.png" width="11px" height="12px" preserveAspectRatio="xMinYMin meet" x="585" y="-483.7"/>
<text text-anchor="start" x="600" y="-473.8" font-family="Helvetica,sans-Serif" font-size="11.00" fill="#000000">SPG_MESSAGE_CONTEXT_ID</text>
<polygon fill="none" stroke="#000000" points="580,-444.7 580,-466.7 778,-466.7 778,-444.7 580,-444.7"/>
<image xlink:href="../../images/primaryKeys.png" width="11px" height="12px" preserveAspectRatio="xMinYMin meet" x="585" y="-461.7"/>
<text text-anchor="start" x="598.4973" y="-451.8" font-family="Helvetica,sans-Serif" font-size="11.00" fill="#000000">SPG_INTERCHANGE_STATUS_ID</text>
<polygon fill="none" stroke="#000000" points="580,-422.7 580,-444.7 778,-444.7 778,-422.7 580,-422.7"/>
<image xlink:href="../../images/primaryKeys.png" width="11px" height="12px" preserveAspectRatio="xMinYMin meet" x="585" y="-439.7"/>
<text text-anchor="start" x="594.2249" y="-429.8" font-family="Helvetica,sans-Serif" font-size="11.00" fill="#000000">REGENERATED_NOTIFICATION_ID</text>
<polygon fill="none" stroke="#000000" points="580,-400.7 580,-422.7 778,-422.7 778,-400.7 580,-400.7"/>
<image xlink:href="../../images/primaryKeys.png" width="11px" height="12px" preserveAspectRatio="xMinYMin meet" x="585" y="-417.7"/>
<text text-anchor="start" x="600" y="-407.8" font-family="Helvetica,sans-Serif" font-size="11.00" fill="#000000">MT_COMPONENT_ID</text>
<polygon fill="none" stroke="#000000" points="580,-378.7 580,-400.7 778,-400.7 778,-378.7 580,-378.7"/>
<image xlink:href="../../images/primaryKeys.png" width="11px" height="12px" preserveAspectRatio="xMinYMin meet" x="585" y="-395.7"/>
<text text-anchor="start" x="600" y="-385.8" font-family="Helvetica,sans-Serif" font-size="11.00" fill="#000000">DATA_SCRIPT_MESSAGE_ID</text>
<polygon fill="none" stroke="#000000" points="580,-359.7 580,-378.7 778,-378.7 778,-359.7 580,-359.7"/>
<text text-anchor="start" x="583" y="-365.8" font-family="Helvetica,sans-Serif" font-size="11.00" fill="#000000">...</text>
<polygon fill="#ffffff" stroke="transparent" points="580,-340.7 580,-359.7 643,-359.7 643,-340.7 580,-340.7"/>
<polygon fill="none" stroke="#000000" points="580,-340.7 580,-359.7 643,-359.7 643,-340.7 580,-340.7"/>
<text text-anchor="start" x="583" y="-346.8" font-family="Helvetica,sans-Serif" font-size="11.00" fill="#000000">&lt; 8</text>
<polygon fill="#ffffff" stroke="transparent" points="643,-340.7 643,-359.7 736,-359.7 736,-340.7 643,-340.7"/>
<polygon fill="none" stroke="#000000" points="643,-340.7 643,-359.7 736,-359.7 736,-340.7 643,-340.7"/>
<text text-anchor="start" x="666.9791" y="-346.8" font-family="Helvetica,sans-Serif" font-size="11.00" fill="#000000">428,992 rows</text>
<polygon fill="#ffffff" stroke="transparent" points="736,-340.7 736,-359.7 778,-359.7 778,-340.7 736,-340.7"/>
<polygon fill="none" stroke="#000000" points="736,-340.7 736,-359.7 778,-359.7 778,-340.7 736,-340.7"/>
<text text-anchor="start" x="759.4053" y="-346.8" font-family="Helvetica,sans-Serif" font-size="11.00" fill="#000000">5 &gt;</text>
</a>
</g>
</g>
<!-- SPG_NOTIFICATION&#45;&gt;DATA_SCRIPT_MESSAGE -->
<g id="edge3" class="edge">
<title>SPG_NOTIFICATION:w&#45;&gt;DATA_SCRIPT_MESSAGE:e</title>
<path fill="none" stroke="#000000" d="M566.0389,-393.2656C545.3206,-405.7443 549.7287,-446.7 518,-446.7"/>
<polygon fill="#000000" stroke="#000000" points="572.2488,-391.6797 580.8908,-393.188 576.1244,-390.6898 580,-389.7 580,-389.7 580,-389.7 576.1244,-390.6898 579.1092,-386.212 572.2488,-391.6797 572.2488,-391.6797"/>
<ellipse fill="none" stroke="#000000" cx="569.1483" cy="-392.4715" rx="3.2" ry="3.2"/>
</g>
<!-- SPG_NOTIFICATION&#45;&gt;BUSINESS_INTERACTION -->
<g id="edge2" class="edge">
<title>SPG_NOTIFICATION:w&#45;&gt;BUSINESS_INTERACTION:e</title>
<path fill="none" stroke="#000000" d="M565.5863,-675.4557C437.0076,-670.9924 396.9615,-605.5131 324,-491.7 297.3628,-450.1485 330.8565,-273.7 281.5,-273.7"/>
<polygon fill="#000000" stroke="#000000" points="572.0011,-675.5644 579.939,-679.2995 576.0006,-675.6322 580,-675.7 580,-675.7 580,-675.7 576.0006,-675.6322 580.061,-672.1005 572.0011,-675.5644 572.0011,-675.5644"/>
<ellipse fill="none" stroke="#000000" cx="568.8016" cy="-675.5102" rx="3.2" ry="3.2"/>
</g>
<!-- SPG_VERSION_ENTRY -->
<g id="node4" class="node">
<title>SPG_VERSION_ENTRY</title>
<g id="a_node4"><a xlink:href="../../tables/SPG_VERSION_ENTRY.html" xlink:title="SPG_VERSION_ENTRY" target="_top">
<polygon fill="#ffffff" stroke="transparent" points="340.5,-118.2 340.5,-311.2 509.5,-311.2 509.5,-118.2 340.5,-118.2"/>
<polygon fill="#f5f5f5" stroke="transparent" points="341,-287.7 341,-310.7 510,-310.7 510,-287.7 341,-287.7"/>
<polygon fill="none" stroke="#000000" points="341,-287.7 341,-310.7 510,-310.7 510,-287.7 341,-287.7"/>
<text text-anchor="start" x="346" y="-296.8" font-family="Helvetica,sans-Serif" font-weight="bold" font-size="11.00" fill="#000000">SPG_VERSION_ENTRY</text>
<text text-anchor="start" x="475.0437" y="-295.8" font-family="Helvetica,sans-Serif" font-size="11.00" fill="#000000">[table]</text>
<polygon fill="none" stroke="#000000" points="341,-265.7 341,-287.7 510,-287.7 510,-265.7 341,-265.7"/>
<image xlink:href="../../images/primaryKeys.png" width="11px" height="12px" preserveAspectRatio="xMinYMin meet" x="346" y="-282.7"/>
<text text-anchor="start" x="361" y="-272.8" font-family="Helvetica,sans-Serif" font-size="11.00" fill="#000000">SPG_VERSION_ENTRY_ID</text>
<polygon fill="none" stroke="#000000" points="341,-243.7 341,-265.7 510,-265.7 510,-243.7 341,-243.7"/>
<image xlink:href="../../images/primaryKeys.png" width="11px" height="12px" preserveAspectRatio="xMinYMin meet" x="346" y="-260.7"/>
<text text-anchor="start" x="361" y="-250.8" font-family="Helvetica,sans-Serif" font-size="11.00" fill="#000000">TABLE_NAME</text>
<polygon fill="none" stroke="#000000" points="341,-221.7 341,-243.7 510,-243.7 510,-221.7 341,-221.7"/>
<image xlink:href="../../images/primaryKeys.png" width="11px" height="12px" preserveAspectRatio="xMinYMin meet" x="346" y="-238.7"/>
<text text-anchor="start" x="361" y="-228.8" font-family="Helvetica,sans-Serif" font-size="11.00" fill="#000000">PRIMARY_KEY_ID</text>
<polygon fill="none" stroke="#000000" points="341,-199.7 341,-221.7 510,-221.7 510,-199.7 341,-199.7"/>
<image xlink:href="../../images/primaryKeys.png" width="11px" height="12px" preserveAspectRatio="xMinYMin meet" x="346" y="-216.7"/>
<text text-anchor="start" x="361" y="-206.8" font-family="Helvetica,sans-Serif" font-size="11.00" fill="#000000">CURRENT_RECORD_FLAG</text>
<polygon fill="none" stroke="#000000" points="341,-177.7 341,-199.7 510,-199.7 510,-177.7 341,-177.7"/>
<image xlink:href="../../images/primaryKeys.png" width="11px" height="12px" preserveAspectRatio="xMinYMin meet" x="346" y="-194.7"/>
<text text-anchor="start" x="361" y="-184.8" font-family="Helvetica,sans-Serif" font-size="11.00" fill="#000000">OFFENDER_ID</text>
<polygon fill="none" stroke="#000000" points="341,-155.7 341,-177.7 510,-177.7 510,-155.7 341,-155.7"/>
<image xlink:href="../../images/primaryKeys.png" width="11px" height="12px" preserveAspectRatio="xMinYMin meet" x="346" y="-172.7"/>
<text text-anchor="start" x="356.3042" y="-162.8" font-family="Helvetica,sans-Serif" font-size="11.00" fill="#000000">BUSINESS_INTERACTION_ID</text>
<polygon fill="none" stroke="#000000" points="341,-136.7 341,-155.7 510,-155.7 510,-136.7 341,-136.7"/>
<text text-anchor="start" x="344" y="-142.8" font-family="Helvetica,sans-Serif" font-size="11.00" fill="#000000">...</text>
<polygon fill="#ffffff" stroke="transparent" points="341,-117.7 341,-136.7 394,-136.7 394,-117.7 341,-117.7"/>
<polygon fill="none" stroke="#000000" points="341,-117.7 341,-136.7 394,-136.7 394,-117.7 341,-117.7"/>
<text text-anchor="start" x="344" y="-123.8" font-family="Helvetica,sans-Serif" font-size="11.00" fill="#000000">&lt; 2</text>
<polygon fill="#ffffff" stroke="transparent" points="394,-117.7 394,-136.7 482,-136.7 482,-117.7 394,-117.7"/>
<polygon fill="none" stroke="#000000" points="394,-117.7 394,-136.7 482,-136.7 482,-117.7 394,-117.7"/>
<text text-anchor="start" x="412.9791" y="-123.8" font-family="Helvetica,sans-Serif" font-size="11.00" fill="#000000">441,439 rows</text>
<polygon fill="#ffffff" stroke="transparent" points="482,-117.7 482,-136.7 510,-136.7 510,-117.7 482,-117.7"/>
<polygon fill="none" stroke="#000000" points="482,-117.7 482,-136.7 510,-136.7 510,-117.7 482,-117.7"/>
<text text-anchor="start" x="500.8862" y="-123.8" font-family="Helvetica,sans-Serif" font-size="11.00" fill="#000000"> &#160;</text>
</a>
</g>
</g>
<!-- SPG_VERSION_ENTRY&#45;&gt;BUSINESS_INTERACTION -->
<g id="edge4" class="edge">
<title>SPG_VERSION_ENTRY:w&#45;&gt;BUSINESS_INTERACTION:e</title>
<path fill="none" stroke="#000000" d="M326.5972,-170.2601C296.1357,-188.8262 329.9621,-273.7 281.5,-273.7"/>
<polygon fill="#000000" stroke="#000000" points="333.2337,-168.6197 341.8639,-170.1948 337.1169,-167.6599 341,-166.7 341,-166.7 341,-166.7 337.1169,-167.6599 340.1361,-163.2052 333.2337,-168.6197 333.2337,-168.6197"/>
<ellipse fill="none" stroke="#000000" cx="330.1272" cy="-169.3876" rx="3.2" ry="3.2"/>
</g>
<!-- RSINGH_DBA.SPG_NOTIFICATION -->
<g id="node5" class="node">
<title>RSINGH_DBA.SPG_NOTIFICATION</title>
<g id="a_node5"><a xlink:title="RSINGH_DBA.SPG_NOTIFICATION">
<polygon fill="#ffffff" stroke="transparent" points="567,-38.2 567,-253.2 791,-253.2 791,-38.2 567,-38.2"/>
<polygon fill="#f5f5f5" stroke="transparent" points="567,-229.7 567,-252.7 791,-252.7 791,-229.7 567,-229.7"/>
<polygon fill="none" stroke="#000000" points="567,-229.7 567,-252.7 791,-252.7 791,-229.7 567,-229.7"/>
<text text-anchor="start" x="571.7484" y="-238.8" font-family="Helvetica,sans-Serif" font-weight="bold" font-size="11.00" fill="#000000">RSINGH_DBA.SPG_NOTIFICATION</text>
<text text-anchor="start" x="756.5219" y="-237.8" font-family="Helvetica,sans-Serif" font-size="11.00" fill="#000000">[table]</text>
<polygon fill="none" stroke="#000000" points="567,-207.7 567,-229.7 791,-229.7 791,-207.7 567,-207.7"/>
<image xlink:href="../../images/foreignKeys.png" width="11px" height="12px" preserveAspectRatio="xMinYMin meet" x="572" y="-224.7"/>
<text text-anchor="start" x="600" y="-214.8" font-family="Helvetica,sans-Serif" font-size="11.00" fill="#000000">BUSINESS_INTERACTION_ID</text>
<polygon fill="none" stroke="#000000" points="567,-185.7 567,-207.7 791,-207.7 791,-185.7 567,-185.7"/>
<image xlink:href="../../images/foreignKeys.png" width="11px" height="12px" preserveAspectRatio="xMinYMin meet" x="572" y="-202.7"/>
<text text-anchor="start" x="600" y="-192.8" font-family="Helvetica,sans-Serif" font-size="11.00" fill="#000000">OFFENDER_ID</text>
<polygon fill="none" stroke="#000000" points="567,-163.7 567,-185.7 791,-185.7 791,-163.7 567,-163.7"/>
<image xlink:href="../../images/foreignKeys.png" width="11px" height="12px" preserveAspectRatio="xMinYMin meet" x="572" y="-180.7"/>
<text text-anchor="start" x="600" y="-170.8" font-family="Helvetica,sans-Serif" font-size="11.00" fill="#000000">SENDER_IDENTITY_ID</text>
<polygon fill="none" stroke="#000000" points="567,-141.7 567,-163.7 791,-163.7 791,-141.7 567,-141.7"/>
<image xlink:href="../../images/foreignKeys.png" width="11px" height="12px" preserveAspectRatio="xMinYMin meet" x="572" y="-158.7"/>
<text text-anchor="start" x="600" y="-148.8" font-family="Helvetica,sans-Serif" font-size="11.00" fill="#000000">RECEIVER_IDENTITY_ID</text>
<polygon fill="none" stroke="#000000" points="567,-119.7 567,-141.7 791,-141.7 791,-119.7 567,-119.7"/>
<image xlink:href="../../images/foreignKeys.png" width="11px" height="12px" preserveAspectRatio="xMinYMin meet" x="572" y="-136.7"/>
<text text-anchor="start" x="600" y="-126.8" font-family="Helvetica,sans-Serif" font-size="11.00" fill="#000000">SPG_MESSAGE_CONTEXT_ID</text>
<polygon fill="none" stroke="#000000" points="567,-97.7 567,-119.7 791,-119.7 791,-97.7 567,-97.7"/>
<image xlink:href="../../images/foreignKeys.png" width="11px" height="12px" preserveAspectRatio="xMinYMin meet" x="572" y="-114.7"/>
<text text-anchor="start" x="598.4973" y="-104.8" font-family="Helvetica,sans-Serif" font-size="11.00" fill="#000000">SPG_INTERCHANGE_STATUS_ID</text>
<polygon fill="none" stroke="#000000" points="567,-75.7 567,-97.7 791,-97.7 791,-75.7 567,-75.7"/>
<image xlink:href="../../images/foreignKeys.png" width="11px" height="12px" preserveAspectRatio="xMinYMin meet" x="572" y="-92.7"/>
<text text-anchor="start" x="600" y="-82.8" font-family="Helvetica,sans-Serif" font-size="11.00" fill="#000000">DATA_SCRIPT_MESSAGE_ID</text>
<polygon fill="none" stroke="#000000" points="567,-56.7 567,-75.7 791,-75.7 791,-56.7 567,-56.7"/>
<text text-anchor="start" x="570" y="-62.8" font-family="Helvetica,sans-Serif" font-size="11.00" fill="#000000">...</text>
<polygon fill="#ffffff" stroke="transparent" points="567,-37.7 567,-56.7 664,-56.7 664,-37.7 567,-37.7"/>
<polygon fill="none" stroke="#000000" points="567,-37.7 567,-56.7 664,-56.7 664,-37.7 567,-37.7"/>
<text text-anchor="start" x="570" y="-43.8" font-family="Helvetica,sans-Serif" font-size="11.00" fill="#000000">&lt; 7</text>
<polygon fill="#ffffff" stroke="transparent" points="664,-37.7 664,-56.7 740,-56.7 740,-37.7 664,-37.7"/>
<polygon fill="none" stroke="#000000" points="664,-37.7 664,-56.7 740,-56.7 740,-37.7 664,-37.7"/>
<text text-anchor="start" x="704.6105" y="-43.8" font-family="Helvetica,sans-Serif" font-size="11.00" fill="#000000">0 rows</text>
<polygon fill="#ffffff" stroke="transparent" points="740,-37.7 740,-56.7 791,-56.7 791,-37.7 740,-37.7"/>
<polygon fill="none" stroke="#000000" points="740,-37.7 740,-56.7 791,-56.7 791,-37.7 740,-37.7"/>
<text text-anchor="start" x="781.8862" y="-43.8" font-family="Helvetica,sans-Serif" font-size="11.00" fill="#000000"> &#160;</text>
</a>
</g>
</g>
<!-- RSINGH_DBA.SPG_NOTIFICATION&#45;&gt;DATA_SCRIPT_MESSAGE -->
<g id="edge6" class="edge">
<title>RSINGH_DBA.SPG_NOTIFICATION:w&#45;&gt;DATA_SCRIPT_MESSAGE:e</title>
<path fill="none" stroke="#000000" d="M553.0277,-91.5168C500.7369,-134.2365 593.2185,-446.7 518,-446.7"/>
<polygon fill="#000000" stroke="#000000" points="559.4368,-89.3074 568.1733,-90.1034 563.2184,-88.0037 567,-86.7 567,-86.7 567,-86.7 563.2184,-88.0037 565.8267,-83.2966 559.4368,-89.3074 559.4368,-89.3074"/>
<ellipse fill="none" stroke="#000000" cx="556.4115" cy="-90.3503" rx="3.2" ry="3.2"/>
</g>
<!-- RSINGH_DBA.SPG_NOTIFICATION&#45;&gt;BUSINESS_INTERACTION -->
<g id="edge5" class="edge">
<title>RSINGH_DBA.SPG_NOTIFICATION:w&#45;&gt;BUSINESS_INTERACTION:e</title>
<path fill="none" stroke="#000000" d="M552.6027,-215.5776C525.8949,-200.4289 564.0949,-134.2395 526,-107.7 452.336,-56.3807 394.9195,-52.6502 324,-107.7 263.8399,-154.3981 357.6574,-273.7 281.5,-273.7"/>
<polygon fill="#000000" stroke="#000000" points="559.1817,-217.0044 566.237,-222.2182 563.0909,-217.8522 567,-218.7 567,-218.7 567,-218.7 563.0909,-217.8522 567.763,-215.1818 559.1817,-217.0044 559.1817,-217.0044"/>
<ellipse fill="none" stroke="#000000" cx="556.0544" cy="-216.3261" rx="3.2" ry="3.2"/>
</g>
</g>
</svg>
