<?xml version="1.0" encoding="UTF-8" standalone="no"?>
<!DOCTYPE svg PUBLIC "-//W3C//DTD SVG 1.1//EN"
 "http://www.w3.org/Graphics/SVG/1.1/DTD/svg11.dtd">
<!-- Generated by graphviz version 2.40.1 (20161225.0304)
 -->
<!-- Title: oneDegreeRelationshipsDiagram Pages: 1 -->
<svg width="534pt" height="293pt"
 viewBox="0.00 0.00 534.00 292.70" xmlns="http://www.w3.org/2000/svg" xmlns:xlink="http://www.w3.org/1999/xlink">
<g id="graph0" class="graph" transform="scale(1 1) rotate(0) translate(4 288.7)">
<title>oneDegreeRelationshipsDiagram</title>
<polygon fill="#ffffff" stroke="transparent" points="-4,4 -4,-288.7 530,-288.7 530,4 -4,4"/>
<text text-anchor="middle" x="72.4936" y="-7.3" font-family="Helvetica,sans-Serif" font-size="11.00" fill="#000000">Generated by SchemaSpy</text>
<!-- DATA_SCRIPT_MESSAGE -->
<g id="node1" class="node">
<title>DATA_SCRIPT_MESSAGE</title>
<g id="a_node1"><a xlink:href="../../tables/DATA_SCRIPT_MESSAGE.html" xlink:title="DATA_SCRIPT_MESSAGE" target="_top">
<polygon fill="#ffffff" stroke="transparent" points="332,-131.7 332,-280.7 518,-280.7 518,-131.7 332,-131.7"/>
<polygon fill="#f5f5f5" stroke="transparent" points="332,-257.2 332,-280.2 518,-280.2 518,-257.2 332,-257.2"/>
<polygon fill="none" stroke="#000000" points="332,-257.2 332,-280.2 518,-280.2 518,-257.2 332,-257.2"/>
<text text-anchor="start" x="337" y="-266.3" font-family="Helvetica,sans-Serif" font-weight="bold" font-size="11.00" fill="#000000">DATA_SCRIPT_MESSAGE</text>
<text text-anchor="start" x="483.0437" y="-265.3" font-family="Helvetica,sans-Serif" font-size="11.00" fill="#000000">[table]</text>
<polygon fill="none" stroke="#000000" points="332,-235.2 332,-257.2 518,-257.2 518,-235.2 332,-235.2"/>
<image xlink:href="../../images/primaryKeys.png" width="11px" height="12px" preserveAspectRatio="xMinYMin meet" x="337" y="-252.2"/>
<text text-anchor="start" x="352" y="-242.3" font-family="Helvetica,sans-Serif" font-size="11.00" fill="#000000">DATA_SCRIPT_MESSAGE_ID</text>
<polygon fill="none" stroke="#000000" points="332,-213.2 332,-235.2 518,-235.2 518,-213.2 332,-213.2"/>
<image xlink:href="../../images/primaryKeys.png" width="11px" height="12px" preserveAspectRatio="xMinYMin meet" x="337" y="-230.2"/>
<text text-anchor="start" x="352" y="-220.3" font-family="Helvetica,sans-Serif" font-size="11.00" fill="#000000">OFFENDER_ID</text>
<polygon fill="none" stroke="#000000" points="332,-191.2 332,-213.2 518,-213.2 518,-191.2 332,-191.2"/>
<image xlink:href="../../images/primaryKeys.png" width="11px" height="12px" preserveAspectRatio="xMinYMin meet" x="337" y="-208.2"/>
<text text-anchor="start" x="352" y="-198.3" font-family="Helvetica,sans-Serif" font-size="11.00" fill="#000000">EVENT_ID</text>
<polygon fill="none" stroke="#000000" points="332,-169.2 332,-191.2 518,-191.2 518,-169.2 332,-169.2"/>
<image xlink:href="../../images/primaryKeys.png" width="11px" height="12px" preserveAspectRatio="xMinYMin meet" x="337" y="-186.2"/>
<text text-anchor="start" x="352" y="-176.3" font-family="Helvetica,sans-Serif" font-size="11.00" fill="#000000">BUSINESS_INTERACTION_ID</text>
<polygon fill="none" stroke="#000000" points="332,-150.2 332,-169.2 518,-169.2 518,-150.2 332,-150.2"/>
<text text-anchor="start" x="335" y="-156.3" font-family="Helvetica,sans-Serif" font-size="11.00" fill="#000000">...</text>
<polygon fill="#ffffff" stroke="transparent" points="332,-131.2 332,-150.2 404,-150.2 404,-131.2 332,-131.2"/>
<polygon fill="none" stroke="#000000" points="332,-131.2 332,-150.2 404,-150.2 404,-131.2 332,-131.2"/>
<text text-anchor="start" x="335" y="-137.3" font-family="Helvetica,sans-Serif" font-size="11.00" fill="#000000">&lt; 3</text>
<polygon fill="#ffffff" stroke="transparent" points="404,-131.2 404,-150.2 480,-150.2 480,-131.2 404,-131.2"/>
<polygon fill="none" stroke="#000000" points="404,-131.2 404,-150.2 480,-150.2 480,-131.2 404,-131.2"/>
<text text-anchor="start" x="432.3807" y="-137.3" font-family="Helvetica,sans-Serif" font-size="11.00" fill="#000000">132 rows</text>
<polygon fill="#ffffff" stroke="transparent" points="480,-131.2 480,-150.2 518,-150.2 518,-131.2 480,-131.2"/>
<polygon fill="none" stroke="#000000" points="480,-131.2 480,-150.2 518,-150.2 518,-131.2 480,-131.2"/>
<text text-anchor="start" x="508.8862" y="-137.3" font-family="Helvetica,sans-Serif" font-size="11.00" fill="#000000"> &#160;</text>
</a>
</g>
</g>
<!-- BUSINESS_INTERACTION -->
<g id="node2" class="node">
<title>BUSINESS_INTERACTION</title>
<g id="a_node2"><a xlink:href="../../tables/BUSINESS_INTERACTION.html" xlink:title="BUSINESS_INTERACTION" target="_top">
<polygon fill="#ffffff" stroke="transparent" points="8,-38.2 8,-216.2 283,-216.2 283,-38.2 8,-38.2"/>
<polygon fill="#f5f5f5" stroke="transparent" points="10.5,-191.2 10.5,-214.2 281.5,-214.2 281.5,-191.2 10.5,-191.2"/>
<polygon fill="none" stroke="#000000" points="10.5,-191.2 10.5,-214.2 281.5,-214.2 281.5,-191.2 10.5,-191.2"/>
<text text-anchor="start" x="15.5" y="-200.3" font-family="Helvetica,sans-Serif" font-weight="bold" font-size="11.00" fill="#000000">BUSINESS_INTERACTION</text>
<text text-anchor="start" x="246.5437" y="-199.3" font-family="Helvetica,sans-Serif" font-size="11.00" fill="#000000">[table]</text>
<polygon fill="none" stroke="#000000" points="10.5,-169.2 10.5,-191.2 208.5,-191.2 208.5,-169.2 10.5,-169.2"/>
<image xlink:href="../../images/primaryKeys.png" width="11px" height="12px" preserveAspectRatio="xMinYMin meet" x="15.5" y="-186.2"/>
<text text-anchor="start" x="30.5" y="-176.3" font-family="Helvetica,sans-Serif" font-size="11.00" fill="#000000">BUSINESS_INTERACTION_ID</text>
<polygon fill="none" stroke="#000000" points="208.5,-169.2 208.5,-191.2 281.5,-191.2 281.5,-169.2 208.5,-169.2"/>
<text text-anchor="start" x="211.5" y="-176.9" font-family="Helvetica,sans-Serif" font-size="11.00" fill="#000000">number[38]</text>
<polygon fill="none" stroke="#000000" points="10.5,-147.2 10.5,-169.2 208.5,-169.2 208.5,-147.2 10.5,-147.2"/>
<image xlink:href="../../images/primaryKeys.png" width="11px" height="12px" preserveAspectRatio="xMinYMin meet" x="15.5" y="-164.2"/>
<text text-anchor="start" x="29.9158" y="-154.3" font-family="Helvetica,sans-Serif" font-size="11.00" fill="#000000">BUSINESS_INTERACTION_CODE</text>
<polygon fill="none" stroke="#000000" points="208.5,-147.2 208.5,-169.2 281.5,-169.2 281.5,-147.2 208.5,-147.2"/>
<text text-anchor="start" x="211.5" y="-154.9" font-family="Helvetica,sans-Serif" font-size="11.00" fill="#000000">varchar2[20]</text>
<polygon fill="none" stroke="#000000" points="10.5,-125.2 10.5,-147.2 208.5,-147.2 208.5,-125.2 10.5,-125.2"/>
<text text-anchor="start" x="30.5" y="-132.3" font-family="Helvetica,sans-Serif" font-size="11.00" fill="#000000">DESCRIPTION</text>
<polygon fill="none" stroke="#000000" points="208.5,-125.2 208.5,-147.2 281.5,-147.2 281.5,-125.2 208.5,-125.2"/>
<text text-anchor="start" x="211.3791" y="-132.9" font-family="Helvetica,sans-Serif" font-size="11.00" fill="#000000">varchar2[500]</text>
<polygon fill="none" stroke="#000000" points="10.5,-103.2 10.5,-125.2 208.5,-125.2 208.5,-103.2 10.5,-103.2"/>
<text text-anchor="start" x="30.5" y="-110.3" font-family="Helvetica,sans-Serif" font-size="11.00" fill="#000000">ENABLED_DATE</text>
<polygon fill="none" stroke="#000000" points="208.5,-103.2 208.5,-125.2 281.5,-125.2 281.5,-103.2 208.5,-103.2"/>
<text text-anchor="start" x="211.5" y="-110.9" font-family="Helvetica,sans-Serif" font-size="11.00" fill="#000000">date[7]</text>
<polygon fill="none" stroke="#000000" points="10.5,-81.2 10.5,-103.2 208.5,-103.2 208.5,-81.2 10.5,-81.2"/>
<text text-anchor="start" x="22.8934" y="-88.3" font-family="Helvetica,sans-Serif" font-size="11.00" fill="#000000">AUDIT_INTERACTION_PARAMETER</text>
<polygon fill="none" stroke="#000000" points="208.5,-81.2 208.5,-103.2 281.5,-103.2 281.5,-81.2 208.5,-81.2"/>
<text text-anchor="start" x="211.5" y="-88.9" font-family="Helvetica,sans-Serif" font-size="11.00" fill="#000000">date[7]</text>
<polygon fill="none" stroke="#000000" points="10.5,-59.2 10.5,-81.2 208.5,-81.2 208.5,-59.2 10.5,-59.2"/>
<text text-anchor="start" x="30.5" y="-66.3" font-family="Helvetica,sans-Serif" font-size="11.00" fill="#000000">ROW_VERSION</text>
<polygon fill="none" stroke="#000000" points="208.5,-59.2 208.5,-81.2 281.5,-81.2 281.5,-59.2 208.5,-59.2"/>
<text text-anchor="start" x="211.5" y="-66.9" font-family="Helvetica,sans-Serif" font-size="11.00" fill="#000000">number[38]</text>
<polygon fill="#ffffff" stroke="transparent" points="10.5,-40.2 10.5,-59.2 90.5,-59.2 90.5,-40.2 10.5,-40.2"/>
<polygon fill="none" stroke="#000000" points="10.5,-40.2 10.5,-59.2 90.5,-59.2 90.5,-40.2 10.5,-40.2"/>
<text text-anchor="start" x="13.5" y="-46.3" font-family="Helvetica,sans-Serif" font-size="11.00" fill="#000000">&lt; 0</text>
<polygon fill="#ffffff" stroke="transparent" points="90.5,-40.2 90.5,-59.2 208.5,-59.2 208.5,-40.2 90.5,-40.2"/>
<polygon fill="none" stroke="#000000" points="90.5,-40.2 90.5,-59.2 208.5,-59.2 208.5,-40.2 90.5,-40.2"/>
<text text-anchor="start" x="151.7089" y="-46.3" font-family="Helvetica,sans-Serif" font-size="11.00" fill="#000000">1,084 rows</text>
<polygon fill="#ffffff" stroke="transparent" points="208.5,-40.2 208.5,-59.2 281.5,-59.2 281.5,-40.2 208.5,-40.2"/>
<polygon fill="none" stroke="#000000" points="208.5,-40.2 208.5,-59.2 281.5,-59.2 281.5,-40.2 208.5,-40.2"/>
<text text-anchor="start" x="262.9053" y="-46.3" font-family="Helvetica,sans-Serif" font-size="11.00" fill="#000000">1 &gt;</text>
<polygon fill="none" stroke="#000000" stroke-width="2" points="9,-39.2 9,-215.2 282,-215.2 282,-39.2 9,-39.2"/>
</a>
</g>
</g>
<!-- DATA_SCRIPT_MESSAGE&#45;&gt;BUSINESS_INTERACTION -->
<g id="edge1" class="edge">
<title>DATA_SCRIPT_MESSAGE:w&#45;&gt;BUSINESS_INTERACTION:e</title>
<path fill="none" stroke="#000000" d="M317.4203,-180.2C305.5435,-180.2 298.158,-180.2 281.5,-180.2"/>
<polygon fill="#000000" stroke="#000000" points="324,-180.2001 332,-183.8 328,-180.2 332,-180.2 332,-180.2 332,-180.2 328,-180.2 332,-176.6 324,-180.2001 324,-180.2001"/>
<ellipse fill="none" stroke="#000000" cx="320.8" cy="-180.2001" rx="3.2" ry="3.2"/>
</g>
</g>
</svg>
