<?xml version="1.0" encoding="UTF-8" standalone="no"?>
<!DOCTYPE svg PUBLIC "-//W3C//DTD SVG 1.1//EN"
 "http://www.w3.org/Graphics/SVG/1.1/DTD/svg11.dtd">
<!-- Generated by graphviz version 2.40.1 (20161225.0304)
 -->
<!-- Title: twoDegreesRelationshipsDiagram Pages: 1 -->
<svg width="1564pt" height="1245pt"
 viewBox="0.00 0.00 1564.00 1244.73" xmlns="http://www.w3.org/2000/svg" xmlns:xlink="http://www.w3.org/1999/xlink">
<g id="graph0" class="graph" transform="scale(1 1) rotate(0) translate(4 1240.7334)">
<title>twoDegreesRelationshipsDiagram</title>
<polygon fill="#ffffff" stroke="transparent" points="-4,4 -4,-1240.7334 1560,-1240.7334 1560,4 -4,4"/>
<text text-anchor="middle" x="72.4936" y="-7.3" font-family="Helvetica,sans-Serif" font-size="11.00" fill="#000000">Generated by SchemaSpy</text>
<!-- CONTACT_ALERT_CLEAR -->
<g id="node1" class="node">
<title>CONTACT_ALERT_CLEAR</title>
<g id="a_node1"><a xlink:href="../../tables/CONTACT_ALERT_CLEAR.html" xlink:title="CONTACT_ALERT_CLEAR" target="_top">
<polygon fill="#ffffff" stroke="transparent" points="1351,-544.6601 1351,-605.6601 1531,-605.6601 1531,-544.6601 1351,-544.6601"/>
<polygon fill="#f5f5f5" stroke="transparent" points="1351,-582.1601 1351,-605.1601 1531,-605.1601 1531,-582.1601 1351,-582.1601"/>
<polygon fill="none" stroke="#000000" points="1351,-582.1601 1351,-605.1601 1531,-605.1601 1531,-582.1601 1351,-582.1601"/>
<text text-anchor="start" x="1355.7495" y="-591.2601" font-family="Helvetica,sans-Serif" font-weight="bold" font-size="11.00" fill="#000000">CONTACT_ALERT_CLEAR</text>
<text text-anchor="start" x="1496.5219" y="-590.2601" font-family="Helvetica,sans-Serif" font-size="11.00" fill="#000000">[table]</text>
<polygon fill="none" stroke="#000000" points="1351,-563.1601 1351,-582.1601 1531,-582.1601 1531,-563.1601 1351,-563.1601"/>
<text text-anchor="start" x="1354" y="-569.2601" font-family="Helvetica,sans-Serif" font-size="11.00" fill="#000000">...</text>
<polygon fill="#ffffff" stroke="transparent" points="1351,-544.1601 1351,-563.1601 1413,-563.1601 1413,-544.1601 1351,-544.1601"/>
<polygon fill="none" stroke="#000000" points="1351,-544.1601 1351,-563.1601 1413,-563.1601 1413,-544.1601 1351,-544.1601"/>
<text text-anchor="start" x="1354" y="-550.2601" font-family="Helvetica,sans-Serif" font-size="11.00" fill="#000000">&lt; 6</text>
<polygon fill="#ffffff" stroke="transparent" points="1413,-544.1601 1413,-563.1601 1498,-563.1601 1498,-544.1601 1413,-544.1601"/>
<polygon fill="none" stroke="#000000" points="1413,-544.1601 1413,-563.1601 1498,-563.1601 1498,-544.1601 1413,-544.1601"/>
<text text-anchor="start" x="1435.094" y="-550.2601" font-family="Helvetica,sans-Serif" font-size="11.00" fill="#000000">52,166 rows</text>
<polygon fill="#ffffff" stroke="transparent" points="1498,-544.1601 1498,-563.1601 1531,-563.1601 1531,-544.1601 1498,-544.1601"/>
<polygon fill="none" stroke="#000000" points="1498,-544.1601 1498,-563.1601 1531,-563.1601 1531,-544.1601 1498,-544.1601"/>
<text text-anchor="start" x="1521.8862" y="-550.2601" font-family="Helvetica,sans-Serif" font-size="11.00" fill="#000000"> &#160;</text>
</a>
</g>
</g>
<!-- OFFENDER -->
<g id="node2" class="node">
<title>OFFENDER</title>
<g id="a_node2"><a xlink:href="../../tables/OFFENDER.html" xlink:title="OFFENDER" target="_top">
<polygon fill="#ffffff" stroke="transparent" points="277,-375.6601 277,-436.6601 402,-436.6601 402,-375.6601 277,-375.6601"/>
<polygon fill="#f5f5f5" stroke="transparent" points="277.5,-413.1601 277.5,-436.1601 402.5,-436.1601 402.5,-413.1601 277.5,-413.1601"/>
<polygon fill="none" stroke="#000000" points="277.5,-413.1601 277.5,-436.1601 402.5,-436.1601 402.5,-413.1601 277.5,-413.1601"/>
<text text-anchor="start" x="282.5" y="-422.2601" font-family="Helvetica,sans-Serif" font-weight="bold" font-size="11.00" fill="#000000">OFFENDER</text>
<text text-anchor="start" x="367.5437" y="-421.2601" font-family="Helvetica,sans-Serif" font-size="11.00" fill="#000000">[table]</text>
<polygon fill="none" stroke="#000000" points="277.5,-394.1601 277.5,-413.1601 402.5,-413.1601 402.5,-394.1601 277.5,-394.1601"/>
<text text-anchor="start" x="280.5" y="-400.2601" font-family="Helvetica,sans-Serif" font-size="11.00" fill="#000000">...</text>
<polygon fill="#ffffff" stroke="transparent" points="277.5,-375.1601 277.5,-394.1601 304.5,-394.1601 304.5,-375.1601 277.5,-375.1601"/>
<polygon fill="none" stroke="#000000" points="277.5,-375.1601 277.5,-394.1601 304.5,-394.1601 304.5,-375.1601 277.5,-375.1601"/>
<text text-anchor="start" x="280.1452" y="-381.2601" font-family="Helvetica,sans-Serif" font-size="11.00" fill="#000000">&lt; 16</text>
<polygon fill="#ffffff" stroke="transparent" points="304.5,-375.1601 304.5,-394.1601 369.5,-394.1601 369.5,-375.1601 304.5,-375.1601"/>
<polygon fill="none" stroke="#000000" points="304.5,-375.1601 304.5,-394.1601 369.5,-394.1601 369.5,-375.1601 304.5,-375.1601"/>
<text text-anchor="start" x="307.047" y="-381.2601" font-family="Helvetica,sans-Serif" font-size="11.00" fill="#000000">18,527 rows</text>
<polygon fill="#ffffff" stroke="transparent" points="369.5,-375.1601 369.5,-394.1601 402.5,-394.1601 402.5,-375.1601 369.5,-375.1601"/>
<polygon fill="none" stroke="#000000" points="369.5,-375.1601 369.5,-394.1601 402.5,-394.1601 402.5,-375.1601 369.5,-375.1601"/>
<text text-anchor="start" x="372.0878" y="-381.2601" font-family="Helvetica,sans-Serif" font-size="11.00" fill="#000000">103 &gt;</text>
</a>
</g>
</g>
<!-- CONTACT_ALERT_CLEAR&#45;&gt;OFFENDER -->
<g id="edge1" class="edge">
<title>CONTACT_ALERT_CLEAR:w&#45;&gt;OFFENDER:e</title>
<path fill="none" stroke="#000000" d="M1336.9085,-569.0845C1262.6816,-532.8639 1364.279,-187.7879 1293,-125.1601 1161.5349,-9.651 553.2978,-98.4916 443,-202.1601 376.5977,-264.5714 493.6287,-403.1601 402.5,-403.1601"/>
<polygon fill="#000000" stroke="#000000" points="1343.184,-570.4542 1350.2323,-575.6773 1347.092,-571.3071 1351,-572.1601 1351,-572.1601 1351,-572.1601 1347.092,-571.3071 1351.7677,-568.6429 1343.184,-570.4542 1343.184,-570.4542"/>
<ellipse fill="none" stroke="#000000" cx="1340.0576" cy="-569.7718" rx="3.2" ry="3.2"/>
</g>
<!-- SPG_NOTIFICATION -->
<g id="node3" class="node">
<title>SPG_NOTIFICATION</title>
<g id="a_node3"><a xlink:href="../../tables/SPG_NOTIFICATION.html" xlink:title="SPG_NOTIFICATION" target="_top">
<polygon fill="#ffffff" stroke="transparent" points="1048.5,-799.6601 1048.5,-1190.6601 1246.5,-1190.6601 1246.5,-799.6601 1048.5,-799.6601"/>
<polygon fill="#f5f5f5" stroke="transparent" points="1048.5,-1167.1601 1048.5,-1190.1601 1246.5,-1190.1601 1246.5,-1167.1601 1048.5,-1167.1601"/>
<polygon fill="none" stroke="#000000" points="1048.5,-1167.1601 1048.5,-1190.1601 1246.5,-1190.1601 1246.5,-1167.1601 1048.5,-1167.1601"/>
<text text-anchor="start" x="1053.5" y="-1176.2601" font-family="Helvetica,sans-Serif" font-weight="bold" font-size="11.00" fill="#000000">SPG_NOTIFICATION</text>
<text text-anchor="start" x="1211.5437" y="-1175.2601" font-family="Helvetica,sans-Serif" font-size="11.00" fill="#000000">[table]</text>
<polygon fill="none" stroke="#000000" points="1048.5,-1145.1601 1048.5,-1167.1601 1246.5,-1167.1601 1246.5,-1145.1601 1048.5,-1145.1601"/>
<image xlink:href="../../images/primaryKeys.png" width="11px" height="12px" preserveAspectRatio="xMinYMin meet" x="1053.5" y="-1162.16"/>
<text text-anchor="start" x="1068.5" y="-1152.2601" font-family="Helvetica,sans-Serif" font-size="11.00" fill="#000000">SPG_NOTIFICATION_ID</text>
<polygon fill="none" stroke="#000000" points="1048.5,-1123.1601 1048.5,-1145.1601 1246.5,-1145.1601 1246.5,-1123.1601 1048.5,-1123.1601"/>
<image xlink:href="../../images/primaryKeys.png" width="11px" height="12px" preserveAspectRatio="xMinYMin meet" x="1053.5" y="-1140.16"/>
<text text-anchor="start" x="1068.5" y="-1130.2601" font-family="Helvetica,sans-Serif" font-size="11.00" fill="#000000">BUSINESS_INTERACTION_ID</text>
<polygon fill="none" stroke="#000000" points="1048.5,-1101.1601 1048.5,-1123.1601 1246.5,-1123.1601 1246.5,-1101.1601 1048.5,-1101.1601"/>
<image xlink:href="../../images/primaryKeys.png" width="11px" height="12px" preserveAspectRatio="xMinYMin meet" x="1053.5" y="-1118.16"/>
<text text-anchor="start" x="1068.5" y="-1108.2601" font-family="Helvetica,sans-Serif" font-size="11.00" fill="#000000">OFFENDER_ID</text>
<polygon fill="none" stroke="#000000" points="1048.5,-1079.1601 1048.5,-1101.1601 1246.5,-1101.1601 1246.5,-1079.1601 1048.5,-1079.1601"/>
<image xlink:href="../../images/primaryKeys.png" width="11px" height="12px" preserveAspectRatio="xMinYMin meet" x="1053.5" y="-1096.16"/>
<text text-anchor="start" x="1068.5" y="-1086.2601" font-family="Helvetica,sans-Serif" font-size="11.00" fill="#000000">DATE_CREATED</text>
<polygon fill="none" stroke="#000000" points="1048.5,-1057.1601 1048.5,-1079.1601 1246.5,-1079.1601 1246.5,-1057.1601 1048.5,-1057.1601"/>
<image xlink:href="../../images/primaryKeys.png" width="11px" height="12px" preserveAspectRatio="xMinYMin meet" x="1053.5" y="-1074.16"/>
<text text-anchor="start" x="1068.5" y="-1064.2601" font-family="Helvetica,sans-Serif" font-size="11.00" fill="#000000">PROCESSED_FLAG</text>
<polygon fill="none" stroke="#000000" points="1048.5,-1035.1601 1048.5,-1057.1601 1246.5,-1057.1601 1246.5,-1035.1601 1048.5,-1035.1601"/>
<image xlink:href="../../images/primaryKeys.png" width="11px" height="12px" preserveAspectRatio="xMinYMin meet" x="1053.5" y="-1052.16"/>
<text text-anchor="start" x="1068.5" y="-1042.2601" font-family="Helvetica,sans-Serif" font-size="11.00" fill="#000000">CONTROL_REFERENCE</text>
<polygon fill="none" stroke="#000000" points="1048.5,-1013.1601 1048.5,-1035.1601 1246.5,-1035.1601 1246.5,-1013.1601 1048.5,-1013.1601"/>
<image xlink:href="../../images/primaryKeys.png" width="11px" height="12px" preserveAspectRatio="xMinYMin meet" x="1053.5" y="-1030.16"/>
<text text-anchor="start" x="1068.5" y="-1020.2601" font-family="Helvetica,sans-Serif" font-size="11.00" fill="#000000">SENDER_IDENTITY_ID</text>
<polygon fill="none" stroke="#000000" points="1048.5,-991.1601 1048.5,-1013.1601 1246.5,-1013.1601 1246.5,-991.1601 1048.5,-991.1601"/>
<image xlink:href="../../images/primaryKeys.png" width="11px" height="12px" preserveAspectRatio="xMinYMin meet" x="1053.5" y="-1008.16"/>
<text text-anchor="start" x="1068.5" y="-998.2601" font-family="Helvetica,sans-Serif" font-size="11.00" fill="#000000">RECEIVER_IDENTITY_ID</text>
<polygon fill="none" stroke="#000000" points="1048.5,-969.1601 1048.5,-991.1601 1246.5,-991.1601 1246.5,-969.1601 1048.5,-969.1601"/>
<image xlink:href="../../images/primaryKeys.png" width="11px" height="12px" preserveAspectRatio="xMinYMin meet" x="1053.5" y="-986.16"/>
<text text-anchor="start" x="1059.9743" y="-976.2601" font-family="Helvetica,sans-Serif" font-size="11.00" fill="#000000">RECEIVER_CONTROL_REFERENCE</text>
<polygon fill="none" stroke="#000000" points="1048.5,-947.1601 1048.5,-969.1601 1246.5,-969.1601 1246.5,-947.1601 1048.5,-947.1601"/>
<image xlink:href="../../images/primaryKeys.png" width="11px" height="12px" preserveAspectRatio="xMinYMin meet" x="1053.5" y="-964.16"/>
<text text-anchor="start" x="1068.5" y="-954.2601" font-family="Helvetica,sans-Serif" font-size="11.00" fill="#000000">MESSAGE_DIRECTION</text>
<polygon fill="none" stroke="#000000" points="1048.5,-925.1601 1048.5,-947.1601 1246.5,-947.1601 1246.5,-925.1601 1048.5,-925.1601"/>
<image xlink:href="../../images/primaryKeys.png" width="11px" height="12px" preserveAspectRatio="xMinYMin meet" x="1053.5" y="-942.16"/>
<text text-anchor="start" x="1068.5" y="-932.2601" font-family="Helvetica,sans-Serif" font-size="11.00" fill="#000000">SPG_MESSAGE_CONTEXT_ID</text>
<polygon fill="none" stroke="#000000" points="1048.5,-903.1601 1048.5,-925.1601 1246.5,-925.1601 1246.5,-903.1601 1048.5,-903.1601"/>
<image xlink:href="../../images/primaryKeys.png" width="11px" height="12px" preserveAspectRatio="xMinYMin meet" x="1053.5" y="-920.16"/>
<text text-anchor="start" x="1066.9972" y="-910.2601" font-family="Helvetica,sans-Serif" font-size="11.00" fill="#000000">SPG_INTERCHANGE_STATUS_ID</text>
<polygon fill="none" stroke="#000000" points="1048.5,-881.1601 1048.5,-903.1601 1246.5,-903.1601 1246.5,-881.1601 1048.5,-881.1601"/>
<image xlink:href="../../images/primaryKeys.png" width="11px" height="12px" preserveAspectRatio="xMinYMin meet" x="1053.5" y="-898.16"/>
<text text-anchor="start" x="1062.7249" y="-888.2601" font-family="Helvetica,sans-Serif" font-size="11.00" fill="#000000">REGENERATED_NOTIFICATION_ID</text>
<polygon fill="none" stroke="#000000" points="1048.5,-859.1601 1048.5,-881.1601 1246.5,-881.1601 1246.5,-859.1601 1048.5,-859.1601"/>
<image xlink:href="../../images/primaryKeys.png" width="11px" height="12px" preserveAspectRatio="xMinYMin meet" x="1053.5" y="-876.16"/>
<text text-anchor="start" x="1068.5" y="-866.2601" font-family="Helvetica,sans-Serif" font-size="11.00" fill="#000000">MT_COMPONENT_ID</text>
<polygon fill="none" stroke="#000000" points="1048.5,-837.1601 1048.5,-859.1601 1246.5,-859.1601 1246.5,-837.1601 1048.5,-837.1601"/>
<image xlink:href="../../images/primaryKeys.png" width="11px" height="12px" preserveAspectRatio="xMinYMin meet" x="1053.5" y="-854.16"/>
<text text-anchor="start" x="1068.5" y="-844.2601" font-family="Helvetica,sans-Serif" font-size="11.00" fill="#000000">DATA_SCRIPT_MESSAGE_ID</text>
<polygon fill="none" stroke="#000000" points="1048.5,-818.1601 1048.5,-837.1601 1246.5,-837.1601 1246.5,-818.1601 1048.5,-818.1601"/>
<text text-anchor="start" x="1051.5" y="-824.2601" font-family="Helvetica,sans-Serif" font-size="11.00" fill="#000000">...</text>
<polygon fill="#ffffff" stroke="transparent" points="1048.5,-799.1601 1048.5,-818.1601 1111.5,-818.1601 1111.5,-799.1601 1048.5,-799.1601"/>
<polygon fill="none" stroke="#000000" points="1048.5,-799.1601 1048.5,-818.1601 1111.5,-818.1601 1111.5,-799.1601 1048.5,-799.1601"/>
<text text-anchor="start" x="1051.5" y="-805.2601" font-family="Helvetica,sans-Serif" font-size="11.00" fill="#000000">&lt; 8</text>
<polygon fill="#ffffff" stroke="transparent" points="1111.5,-799.1601 1111.5,-818.1601 1204.5,-818.1601 1204.5,-799.1601 1111.5,-799.1601"/>
<polygon fill="none" stroke="#000000" points="1111.5,-799.1601 1111.5,-818.1601 1204.5,-818.1601 1204.5,-799.1601 1111.5,-799.1601"/>
<text text-anchor="start" x="1135.4791" y="-805.2601" font-family="Helvetica,sans-Serif" font-size="11.00" fill="#000000">428,992 rows</text>
<polygon fill="#ffffff" stroke="transparent" points="1204.5,-799.1601 1204.5,-818.1601 1246.5,-818.1601 1246.5,-799.1601 1204.5,-799.1601"/>
<polygon fill="none" stroke="#000000" points="1204.5,-799.1601 1204.5,-818.1601 1246.5,-818.1601 1246.5,-799.1601 1204.5,-799.1601"/>
<text text-anchor="start" x="1227.9053" y="-805.2601" font-family="Helvetica,sans-Serif" font-size="11.00" fill="#000000">4 &gt;</text>
</a>
</g>
</g>
<!-- CONTACT_ALERT_CLEAR&#45;&gt;SPG_NOTIFICATION -->
<g id="edge2" class="edge">
<title>CONTACT_ALERT_CLEAR:w&#45;&gt;SPG_NOTIFICATION:e</title>
<path fill="none" stroke="#000000" d="M1336.5261,-574.8938C1231.4411,-617.9895 1373.0604,-1156.1601 1246.5,-1156.1601"/>
<polygon fill="#000000" stroke="#000000" points="1343.139,-573.6449 1351.6681,-575.6976 1347.0695,-572.9025 1351,-572.1601 1351,-572.1601 1351,-572.1601 1347.0695,-572.9025 1350.3319,-568.6227 1343.139,-573.6449 1343.139,-573.6449"/>
<ellipse fill="none" stroke="#000000" cx="1339.9946" cy="-574.2388" rx="3.2" ry="3.2"/>
</g>
<!-- R_STANDARD_REFERENCE_LIST -->
<g id="node11" class="node">
<title>R_STANDARD_REFERENCE_LIST</title>
<g id="a_node11"><a xlink:href="../../tables/R_STANDARD_REFERENCE_LIST.html" xlink:title="R_STANDARD_REFERENCE_LIST" target="_top">
<polygon fill="#ffffff" stroke="transparent" points="8,-375.6601 8,-436.6601 228,-436.6601 228,-375.6601 8,-375.6601"/>
<polygon fill="#f5f5f5" stroke="transparent" points="8,-413.1601 8,-436.1601 228,-436.1601 228,-413.1601 8,-413.1601"/>
<polygon fill="none" stroke="#000000" points="8,-413.1601 8,-436.1601 228,-436.1601 228,-413.1601 8,-413.1601"/>
<text text-anchor="start" x="12.5842" y="-422.2601" font-family="Helvetica,sans-Serif" font-weight="bold" font-size="11.00" fill="#000000">R_STANDARD_REFERENCE_LIST</text>
<text text-anchor="start" x="193.5219" y="-421.2601" font-family="Helvetica,sans-Serif" font-size="11.00" fill="#000000">[table]</text>
<polygon fill="none" stroke="#000000" points="8,-394.1601 8,-413.1601 228,-413.1601 228,-394.1601 8,-394.1601"/>
<text text-anchor="start" x="11" y="-400.2601" font-family="Helvetica,sans-Serif" font-size="11.00" fill="#000000">...</text>
<polygon fill="#ffffff" stroke="transparent" points="8,-375.1601 8,-394.1601 79,-394.1601 79,-375.1601 8,-375.1601"/>
<polygon fill="none" stroke="#000000" points="8,-375.1601 8,-394.1601 79,-394.1601 79,-375.1601 8,-375.1601"/>
<text text-anchor="start" x="11" y="-381.2601" font-family="Helvetica,sans-Serif" font-size="11.00" fill="#000000">&lt; 1</text>
<polygon fill="#ffffff" stroke="transparent" points="79,-375.1601 79,-394.1601 169,-394.1601 169,-375.1601 79,-375.1601"/>
<polygon fill="none" stroke="#000000" points="79,-375.1601 79,-394.1601 169,-394.1601 169,-375.1601 79,-375.1601"/>
<text text-anchor="start" x="106.094" y="-381.2601" font-family="Helvetica,sans-Serif" font-size="11.00" fill="#000000">15,391 rows</text>
<polygon fill="#ffffff" stroke="transparent" points="169,-375.1601 169,-394.1601 228,-394.1601 228,-375.1601 169,-375.1601"/>
<polygon fill="none" stroke="#000000" points="169,-375.1601 169,-394.1601 228,-394.1601 228,-375.1601 169,-375.1601"/>
<text text-anchor="start" x="197.1755" y="-381.2601" font-family="Helvetica,sans-Serif" font-size="11.00" fill="#000000">311 &gt;</text>
</a>
</g>
</g>
<!-- OFFENDER&#45;&gt;R_STANDARD_REFERENCE_LIST -->
<g id="edge11" class="edge">
<title>OFFENDER:w&#45;&gt;R_STANDARD_REFERENCE_LIST:e</title>
<path fill="none" stroke="#000000" d="M273.4429,-389.0502C254.7225,-325.4841 248.582,-330.1875 228,-403.1601"/>
<polygon fill="#000000" stroke="#000000" points="275.2892,-395.4716 274.0402,-404.155 276.3946,-399.3159 277.5,-403.1601 277.5,-403.1601 277.5,-403.1601 276.3946,-399.3159 280.9598,-402.1653 275.2892,-395.4716 275.2892,-395.4716"/>
<ellipse fill="none" stroke="#000000" cx="274.4049" cy="-392.3962" rx="3.2" ry="3.2"/>
</g>
<!-- OFFENDER&#45;&gt;R_STANDARD_REFERENCE_LIST -->
<g id="edge12" class="edge">
<title>OFFENDER:w&#45;&gt;R_STANDARD_REFERENCE_LIST:e</title>
<path fill="none" stroke="#000000" d="M272.7453,-389.438C254.5664,-338.5373 248.3242,-343.1113 228,-403.1601"/>
<polygon fill="#000000" stroke="#000000" points="274.8807,-395.601 274.0984,-404.3388 276.1904,-399.3806 277.5,-403.1601 277.5,-403.1601 277.5,-403.1601 276.1904,-399.3806 280.9016,-401.9814 274.8807,-395.601 274.8807,-395.601"/>
<ellipse fill="none" stroke="#000000" cx="273.833" cy="-392.5774" rx="3.2" ry="3.2"/>
</g>
<!-- OFFENDER&#45;&gt;R_STANDARD_REFERENCE_LIST -->
<g id="edge13" class="edge">
<title>OFFENDER:w&#45;&gt;R_STANDARD_REFERENCE_LIST:e</title>
<path fill="none" stroke="#000000" d="M271.7204,-389.9062C254.3237,-351.6171 247.9375,-356.0351 228,-403.1601"/>
<polygon fill="#000000" stroke="#000000" points="274.3022,-395.827 274.2001,-404.5991 275.9011,-399.4936 277.5,-403.1601 277.5,-403.1601 277.5,-403.1601 275.9011,-399.4936 280.7999,-401.7211 274.3022,-395.827 274.3022,-395.827"/>
<ellipse fill="none" stroke="#000000" cx="273.0231" cy="-392.8938" rx="3.2" ry="3.2"/>
</g>
<!-- OFFENDER&#45;&gt;R_STANDARD_REFERENCE_LIST -->
<g id="edge14" class="edge">
<title>OFFENDER:w&#45;&gt;R_STANDARD_REFERENCE_LIST:e</title>
<path fill="none" stroke="#000000" d="M270.1751,-390.7078C253.926,-364.732 247.3359,-368.8828 228,-403.1601"/>
<polygon fill="#000000" stroke="#000000" points="273.4438,-396.2646 274.397,-404.9854 275.4719,-399.7124 277.5,-403.1601 277.5,-403.1601 277.5,-403.1601 275.4719,-399.7124 280.603,-401.3348 273.4438,-396.2646 273.4438,-396.2646"/>
<ellipse fill="none" stroke="#000000" cx="271.8213" cy="-393.5065" rx="3.2" ry="3.2"/>
</g>
<!-- OFFENDER&#45;&gt;R_STANDARD_REFERENCE_LIST -->
<g id="edge15" class="edge">
<title>OFFENDER:w&#45;&gt;R_STANDARD_REFERENCE_LIST:e</title>
<path fill="none" stroke="#000000" d="M267.8585,-392.4627C253.2512,-377.8599 246.3906,-381.4257 228,-403.1601"/>
<polygon fill="#000000" stroke="#000000" points="272.144,-397.2176 274.8259,-405.5703 274.822,-400.1888 277.5,-403.1601 277.5,-403.1601 277.5,-403.1601 274.822,-400.1888 280.1741,-400.7499 272.144,-397.2176 272.144,-397.2176"/>
<ellipse fill="none" stroke="#000000" cx="270.0016" cy="-394.8406" rx="3.2" ry="3.2"/>
</g>
<!-- OFFENDER&#45;&gt;R_STANDARD_REFERENCE_LIST -->
<g id="edge16" class="edge">
<title>OFFENDER:w&#45;&gt;R_STANDARD_REFERENCE_LIST:e</title>
<path fill="none" stroke="#000000" d="M264.704,-396.3261C252.1609,-390.8274 245.0156,-393.1054 228,-403.1601"/>
<polygon fill="#000000" stroke="#000000" points="270.4433,-399.3913 275.804,-406.3356 273.9717,-401.2757 277.5,-403.1601 277.5,-403.1601 277.5,-403.1601 273.9717,-401.2757 279.196,-399.9846 270.4433,-399.3913 270.4433,-399.3913"/>
<ellipse fill="none" stroke="#000000" cx="267.6207" cy="-397.8838" rx="3.2" ry="3.2"/>
</g>
<!-- OFFENDER&#45;&gt;R_STANDARD_REFERENCE_LIST -->
<g id="edge17" class="edge">
<title>OFFENDER:w&#45;&gt;R_STANDARD_REFERENCE_LIST:e</title>
<path fill="none" stroke="#000000" d="M262.8428,-403.1601C251.4139,-403.1601 244.1563,-403.1601 228,-403.1601"/>
<polygon fill="#000000" stroke="#000000" points="269.5,-403.1602 277.5,-406.7601 273.5,-403.1601 277.5,-403.1601 277.5,-403.1601 277.5,-403.1601 273.5,-403.1601 277.5,-399.5601 269.5,-403.1602 269.5,-403.1602"/>
<ellipse fill="none" stroke="#000000" cx="266.3" cy="-403.1602" rx="3.2" ry="3.2"/>
</g>
<!-- OFFENDER&#45;&gt;R_STANDARD_REFERENCE_LIST -->
<g id="edge18" class="edge">
<title>OFFENDER:w&#45;&gt;R_STANDARD_REFERENCE_LIST:e</title>
<path fill="none" stroke="#000000" d="M264.704,-409.9942C252.1609,-415.4928 245.0156,-413.2148 228,-403.1601"/>
<polygon fill="#000000" stroke="#000000" points="270.4433,-406.9289 279.196,-406.3356 273.9717,-405.0445 277.5,-403.1601 277.5,-403.1601 277.5,-403.1601 273.9717,-405.0445 275.804,-399.9846 270.4433,-406.9289 270.4433,-406.9289"/>
<ellipse fill="none" stroke="#000000" cx="267.6207" cy="-408.4364" rx="3.2" ry="3.2"/>
</g>
<!-- OFFENDER&#45;&gt;R_STANDARD_REFERENCE_LIST -->
<g id="edge19" class="edge">
<title>OFFENDER:w&#45;&gt;R_STANDARD_REFERENCE_LIST:e</title>
<path fill="none" stroke="#000000" d="M267.8585,-413.8575C253.2512,-428.4603 246.3906,-424.8945 228,-403.1601"/>
<polygon fill="#000000" stroke="#000000" points="272.144,-409.1027 280.1741,-405.5703 274.822,-406.1314 277.5,-403.1601 277.5,-403.1601 277.5,-403.1601 274.822,-406.1314 274.8259,-400.7499 272.144,-409.1027 272.144,-409.1027"/>
<ellipse fill="none" stroke="#000000" cx="270.0016" cy="-411.4797" rx="3.2" ry="3.2"/>
</g>
<!-- OFFENDER&#45;&gt;R_STANDARD_REFERENCE_LIST -->
<g id="edge20" class="edge">
<title>OFFENDER:w&#45;&gt;R_STANDARD_REFERENCE_LIST:e</title>
<path fill="none" stroke="#000000" d="M270.1751,-415.6124C253.926,-441.5882 247.3359,-437.4375 228,-403.1601"/>
<polygon fill="#000000" stroke="#000000" points="273.4438,-410.0556 280.603,-404.9854 275.4719,-406.6078 277.5,-403.1601 277.5,-403.1601 277.5,-403.1601 275.4719,-406.6078 274.397,-401.3348 273.4438,-410.0556 273.4438,-410.0556"/>
<ellipse fill="none" stroke="#000000" cx="271.8213" cy="-412.8138" rx="3.2" ry="3.2"/>
</g>
<!-- OFFENDER&#45;&gt;R_STANDARD_REFERENCE_LIST -->
<g id="edge21" class="edge">
<title>OFFENDER:w&#45;&gt;R_STANDARD_REFERENCE_LIST:e</title>
<path fill="none" stroke="#000000" d="M271.7204,-416.414C254.3237,-454.7031 247.9375,-450.2851 228,-403.1601"/>
<polygon fill="#000000" stroke="#000000" points="274.3022,-410.4932 280.7999,-404.5991 275.9011,-406.8267 277.5,-403.1601 277.5,-403.1601 277.5,-403.1601 275.9011,-406.8267 274.2001,-401.7211 274.3022,-410.4932 274.3022,-410.4932"/>
<ellipse fill="none" stroke="#000000" cx="273.0231" cy="-413.4265" rx="3.2" ry="3.2"/>
</g>
<!-- OFFENDER&#45;&gt;R_STANDARD_REFERENCE_LIST -->
<g id="edge22" class="edge">
<title>OFFENDER:w&#45;&gt;R_STANDARD_REFERENCE_LIST:e</title>
<path fill="none" stroke="#000000" d="M272.7453,-416.8822C254.5664,-467.783 248.3242,-463.2089 228,-403.1601"/>
<polygon fill="#000000" stroke="#000000" points="274.8807,-410.7192 280.9016,-404.3388 276.1904,-406.9397 277.5,-403.1601 277.5,-403.1601 277.5,-403.1601 276.1904,-406.9397 274.0984,-401.9814 274.8807,-410.7192 274.8807,-410.7192"/>
<ellipse fill="none" stroke="#000000" cx="273.833" cy="-413.7428" rx="3.2" ry="3.2"/>
</g>
<!-- OFFENDER&#45;&gt;R_STANDARD_REFERENCE_LIST -->
<g id="edge23" class="edge">
<title>OFFENDER:w&#45;&gt;R_STANDARD_REFERENCE_LIST:e</title>
<path fill="none" stroke="#000000" d="M273.4429,-417.2701C254.7225,-480.8361 248.582,-476.1328 228,-403.1601"/>
<polygon fill="#000000" stroke="#000000" points="275.2892,-410.8486 280.9598,-404.155 276.3946,-407.0044 277.5,-403.1601 277.5,-403.1601 277.5,-403.1601 276.3946,-407.0044 274.0402,-402.1653 275.2892,-410.8486 275.2892,-410.8486"/>
<ellipse fill="none" stroke="#000000" cx="274.4049" cy="-413.924" rx="3.2" ry="3.2"/>
</g>
<!-- SPG_NOTIFICATION&#45;&gt;OFFENDER -->
<g id="edge31" class="edge">
<title>SPG_NOTIFICATION:w&#45;&gt;OFFENDER:e</title>
<path fill="none" stroke="#000000" d="M1034.0046,-1112.1881C914.6477,-1112.6133 861.4846,-1116.6432 767,-1035.1601 739.4216,-1011.3766 756.8698,-988.5008 734,-960.1601 633.6758,-835.8362 523.7578,-886.999 443,-749.1601 403.8663,-682.366 479.9138,-403.1601 402.5,-403.1601"/>
<polygon fill="#000000" stroke="#000000" points="1040.5,-1112.1756 1048.507,-1115.7601 1044.5,-1112.1679 1048.5,-1112.1601 1048.5,-1112.1601 1048.5,-1112.1601 1044.5,-1112.1679 1048.493,-1108.5601 1040.5,-1112.1756 1040.5,-1112.1756"/>
<ellipse fill="none" stroke="#000000" cx="1037.3" cy="-1112.1818" rx="3.2" ry="3.2"/>
</g>
<!-- DATA_SCRIPT_MESSAGE -->
<g id="node4" class="node">
<title>DATA_SCRIPT_MESSAGE</title>
<g id="a_node4"><a xlink:href="../../tables/DATA_SCRIPT_MESSAGE.html" xlink:title="DATA_SCRIPT_MESSAGE" target="_top">
<polygon fill="#ffffff" stroke="transparent" points="775,-274.6601 775,-423.6601 961,-423.6601 961,-274.6601 775,-274.6601"/>
<polygon fill="#f5f5f5" stroke="transparent" points="775,-400.1601 775,-423.1601 961,-423.1601 961,-400.1601 775,-400.1601"/>
<polygon fill="none" stroke="#000000" points="775,-400.1601 775,-423.1601 961,-423.1601 961,-400.1601 775,-400.1601"/>
<text text-anchor="start" x="780" y="-409.2601" font-family="Helvetica,sans-Serif" font-weight="bold" font-size="11.00" fill="#000000">DATA_SCRIPT_MESSAGE</text>
<text text-anchor="start" x="926.0437" y="-408.2601" font-family="Helvetica,sans-Serif" font-size="11.00" fill="#000000">[table]</text>
<polygon fill="none" stroke="#000000" points="775,-378.1601 775,-400.1601 961,-400.1601 961,-378.1601 775,-378.1601"/>
<image xlink:href="../../images/primaryKeys.png" width="11px" height="12px" preserveAspectRatio="xMinYMin meet" x="780" y="-395.16"/>
<text text-anchor="start" x="795" y="-385.2601" font-family="Helvetica,sans-Serif" font-size="11.00" fill="#000000">DATA_SCRIPT_MESSAGE_ID</text>
<polygon fill="none" stroke="#000000" points="775,-356.1601 775,-378.1601 961,-378.1601 961,-356.1601 775,-356.1601"/>
<image xlink:href="../../images/primaryKeys.png" width="11px" height="12px" preserveAspectRatio="xMinYMin meet" x="780" y="-373.16"/>
<text text-anchor="start" x="795" y="-363.2601" font-family="Helvetica,sans-Serif" font-size="11.00" fill="#000000">OFFENDER_ID</text>
<polygon fill="none" stroke="#000000" points="775,-334.1601 775,-356.1601 961,-356.1601 961,-334.1601 775,-334.1601"/>
<image xlink:href="../../images/primaryKeys.png" width="11px" height="12px" preserveAspectRatio="xMinYMin meet" x="780" y="-351.16"/>
<text text-anchor="start" x="795" y="-341.2601" font-family="Helvetica,sans-Serif" font-size="11.00" fill="#000000">EVENT_ID</text>
<polygon fill="none" stroke="#000000" points="775,-312.1601 775,-334.1601 961,-334.1601 961,-312.1601 775,-312.1601"/>
<image xlink:href="../../images/primaryKeys.png" width="11px" height="12px" preserveAspectRatio="xMinYMin meet" x="780" y="-329.16"/>
<text text-anchor="start" x="795" y="-319.2601" font-family="Helvetica,sans-Serif" font-size="11.00" fill="#000000">BUSINESS_INTERACTION_ID</text>
<polygon fill="none" stroke="#000000" points="775,-293.1601 775,-312.1601 961,-312.1601 961,-293.1601 775,-293.1601"/>
<text text-anchor="start" x="778" y="-299.2601" font-family="Helvetica,sans-Serif" font-size="11.00" fill="#000000">...</text>
<polygon fill="#ffffff" stroke="transparent" points="775,-274.1601 775,-293.1601 843,-293.1601 843,-274.1601 775,-274.1601"/>
<polygon fill="none" stroke="#000000" points="775,-274.1601 775,-293.1601 843,-293.1601 843,-274.1601 775,-274.1601"/>
<text text-anchor="start" x="778" y="-280.2601" font-family="Helvetica,sans-Serif" font-size="11.00" fill="#000000">&lt; 3</text>
<polygon fill="#ffffff" stroke="transparent" points="843,-274.1601 843,-293.1601 916,-293.1601 916,-274.1601 843,-274.1601"/>
<polygon fill="none" stroke="#000000" points="843,-274.1601 843,-293.1601 916,-293.1601 916,-274.1601 843,-274.1601"/>
<text text-anchor="start" x="868.3807" y="-280.2601" font-family="Helvetica,sans-Serif" font-size="11.00" fill="#000000">132 rows</text>
<polygon fill="#ffffff" stroke="transparent" points="916,-274.1601 916,-293.1601 961,-293.1601 961,-274.1601 916,-274.1601"/>
<polygon fill="none" stroke="#000000" points="916,-274.1601 916,-293.1601 961,-293.1601 961,-274.1601 916,-274.1601"/>
<text text-anchor="start" x="942.4053" y="-280.2601" font-family="Helvetica,sans-Serif" font-size="11.00" fill="#000000">3 &gt;</text>
</a>
</g>
</g>
<!-- SPG_NOTIFICATION&#45;&gt;DATA_SCRIPT_MESSAGE -->
<g id="edge30" class="edge">
<title>SPG_NOTIFICATION:w&#45;&gt;DATA_SCRIPT_MESSAGE:e</title>
<path fill="none" stroke="#000000" d="M1033.979,-848.097C923.0118,-846.886 1007.117,-824.3129 969,-462.1601 965.5836,-429.7007 993.6387,-389.1601 961,-389.1601"/>
<polygon fill="#000000" stroke="#000000" points="1040.5001,-848.1253 1048.4843,-851.7601 1044.5,-848.1427 1048.5,-848.1601 1048.5,-848.1601 1048.5,-848.1601 1044.5,-848.1427 1048.5157,-844.5601 1040.5001,-848.1253 1040.5001,-848.1253"/>
<ellipse fill="none" stroke="#000000" cx="1037.3001" cy="-848.1113" rx="3.2" ry="3.2"/>
</g>
<!-- BUSINESS_INTERACTION -->
<g id="node5" class="node">
<title>BUSINESS_INTERACTION</title>
<g id="a_node5"><a xlink:href="../../tables/BUSINESS_INTERACTION.html" xlink:title="BUSINESS_INTERACTION" target="_top">
<polygon fill="#ffffff" stroke="transparent" points="451,-561.1601 451,-739.1601 726,-739.1601 726,-561.1601 451,-561.1601"/>
<polygon fill="#f5f5f5" stroke="transparent" points="453.5,-714.1601 453.5,-737.1601 724.5,-737.1601 724.5,-714.1601 453.5,-714.1601"/>
<polygon fill="none" stroke="#000000" points="453.5,-714.1601 453.5,-737.1601 724.5,-737.1601 724.5,-714.1601 453.5,-714.1601"/>
<text text-anchor="start" x="458.5" y="-723.2601" font-family="Helvetica,sans-Serif" font-weight="bold" font-size="11.00" fill="#000000">BUSINESS_INTERACTION</text>
<text text-anchor="start" x="689.5437" y="-722.2601" font-family="Helvetica,sans-Serif" font-size="11.00" fill="#000000">[table]</text>
<polygon fill="none" stroke="#000000" points="453.5,-692.1601 453.5,-714.1601 651.5,-714.1601 651.5,-692.1601 453.5,-692.1601"/>
<image xlink:href="../../images/primaryKeys.png" width="11px" height="12px" preserveAspectRatio="xMinYMin meet" x="458.5" y="-709.16"/>
<text text-anchor="start" x="473.5" y="-699.2601" font-family="Helvetica,sans-Serif" font-size="11.00" fill="#000000">BUSINESS_INTERACTION_ID</text>
<polygon fill="none" stroke="#000000" points="651.5,-692.1601 651.5,-714.1601 724.5,-714.1601 724.5,-692.1601 651.5,-692.1601"/>
<text text-anchor="start" x="654.5" y="-699.8601" font-family="Helvetica,sans-Serif" font-size="11.00" fill="#000000">number[38]</text>
<polygon fill="none" stroke="#000000" points="453.5,-670.1601 453.5,-692.1601 651.5,-692.1601 651.5,-670.1601 453.5,-670.1601"/>
<image xlink:href="../../images/primaryKeys.png" width="11px" height="12px" preserveAspectRatio="xMinYMin meet" x="458.5" y="-687.16"/>
<text text-anchor="start" x="472.9158" y="-677.2601" font-family="Helvetica,sans-Serif" font-size="11.00" fill="#000000">BUSINESS_INTERACTION_CODE</text>
<polygon fill="none" stroke="#000000" points="651.5,-670.1601 651.5,-692.1601 724.5,-692.1601 724.5,-670.1601 651.5,-670.1601"/>
<text text-anchor="start" x="654.5" y="-677.8601" font-family="Helvetica,sans-Serif" font-size="11.00" fill="#000000">varchar2[20]</text>
<polygon fill="none" stroke="#000000" points="453.5,-648.1601 453.5,-670.1601 651.5,-670.1601 651.5,-648.1601 453.5,-648.1601"/>
<text text-anchor="start" x="473.5" y="-655.2601" font-family="Helvetica,sans-Serif" font-size="11.00" fill="#000000">DESCRIPTION</text>
<polygon fill="none" stroke="#000000" points="651.5,-648.1601 651.5,-670.1601 724.5,-670.1601 724.5,-648.1601 651.5,-648.1601"/>
<text text-anchor="start" x="654.3791" y="-655.8601" font-family="Helvetica,sans-Serif" font-size="11.00" fill="#000000">varchar2[500]</text>
<polygon fill="none" stroke="#000000" points="453.5,-626.1601 453.5,-648.1601 651.5,-648.1601 651.5,-626.1601 453.5,-626.1601"/>
<text text-anchor="start" x="473.5" y="-633.2601" font-family="Helvetica,sans-Serif" font-size="11.00" fill="#000000">ENABLED_DATE</text>
<polygon fill="none" stroke="#000000" points="651.5,-626.1601 651.5,-648.1601 724.5,-648.1601 724.5,-626.1601 651.5,-626.1601"/>
<text text-anchor="start" x="654.5" y="-633.8601" font-family="Helvetica,sans-Serif" font-size="11.00" fill="#000000">date[7]</text>
<polygon fill="none" stroke="#000000" points="453.5,-604.1601 453.5,-626.1601 651.5,-626.1601 651.5,-604.1601 453.5,-604.1601"/>
<text text-anchor="start" x="465.8934" y="-611.2601" font-family="Helvetica,sans-Serif" font-size="11.00" fill="#000000">AUDIT_INTERACTION_PARAMETER</text>
<polygon fill="none" stroke="#000000" points="651.5,-604.1601 651.5,-626.1601 724.5,-626.1601 724.5,-604.1601 651.5,-604.1601"/>
<text text-anchor="start" x="654.5" y="-611.8601" font-family="Helvetica,sans-Serif" font-size="11.00" fill="#000000">date[7]</text>
<polygon fill="none" stroke="#000000" points="453.5,-582.1601 453.5,-604.1601 651.5,-604.1601 651.5,-582.1601 453.5,-582.1601"/>
<text text-anchor="start" x="473.5" y="-589.2601" font-family="Helvetica,sans-Serif" font-size="11.00" fill="#000000">ROW_VERSION</text>
<polygon fill="none" stroke="#000000" points="651.5,-582.1601 651.5,-604.1601 724.5,-604.1601 724.5,-582.1601 651.5,-582.1601"/>
<text text-anchor="start" x="654.5" y="-589.8601" font-family="Helvetica,sans-Serif" font-size="11.00" fill="#000000">number[38]</text>
<polygon fill="#ffffff" stroke="transparent" points="453.5,-563.1601 453.5,-582.1601 533.5,-582.1601 533.5,-563.1601 453.5,-563.1601"/>
<polygon fill="none" stroke="#000000" points="453.5,-563.1601 453.5,-582.1601 533.5,-582.1601 533.5,-563.1601 453.5,-563.1601"/>
<text text-anchor="start" x="456.5" y="-569.2601" font-family="Helvetica,sans-Serif" font-size="11.00" fill="#000000">&lt; 0</text>
<polygon fill="#ffffff" stroke="transparent" points="533.5,-563.1601 533.5,-582.1601 651.5,-582.1601 651.5,-563.1601 533.5,-563.1601"/>
<polygon fill="none" stroke="#000000" points="533.5,-563.1601 533.5,-582.1601 651.5,-582.1601 651.5,-563.1601 533.5,-563.1601"/>
<text text-anchor="start" x="594.7089" y="-569.2601" font-family="Helvetica,sans-Serif" font-size="11.00" fill="#000000">1,092 rows</text>
<polygon fill="#ffffff" stroke="transparent" points="651.5,-563.1601 651.5,-582.1601 724.5,-582.1601 724.5,-563.1601 651.5,-563.1601"/>
<polygon fill="none" stroke="#000000" points="651.5,-563.1601 651.5,-582.1601 724.5,-582.1601 724.5,-563.1601 651.5,-563.1601"/>
<text text-anchor="start" x="705.9053" y="-569.2601" font-family="Helvetica,sans-Serif" font-size="11.00" fill="#000000">6 &gt;</text>
<polygon fill="none" stroke="#000000" stroke-width="2" points="452,-562.1601 452,-738.1601 725,-738.1601 725,-562.1601 452,-562.1601"/>
</a>
</g>
</g>
<!-- SPG_NOTIFICATION&#45;&gt;BUSINESS_INTERACTION -->
<g id="edge29" class="edge">
<title>SPG_NOTIFICATION:w&#45;&gt;BUSINESS_INTERACTION:e</title>
<path fill="none" stroke="#000000" d="M1033.9157,-1132.4125C1003.2937,-1124.2161 1003.502,-1089.1047 969,-1068.1601 885.7385,-1017.6158 826.8394,-1060.0136 767,-983.1601 728.3358,-933.5025 787.4349,-703.1601 724.5,-703.1601"/>
<polygon fill="#000000" stroke="#000000" points="1040.5568,-1133.2082 1048.0717,-1137.7345 1044.5284,-1133.6842 1048.5,-1134.1601 1048.5,-1134.1601 1048.5,-1134.1601 1044.5284,-1133.6842 1048.9283,-1130.5857 1040.5568,-1133.2082 1040.5568,-1133.2082"/>
<ellipse fill="none" stroke="#000000" cx="1037.3796" cy="-1132.8275" rx="3.2" ry="3.2"/>
</g>
<!-- PROBATION_AREA -->
<g id="node9" class="node">
<title>PROBATION_AREA</title>
<g id="a_node9"><a xlink:href="../../tables/PROBATION_AREA.html" xlink:title="PROBATION_AREA" target="_top">
<polygon fill="#ffffff" stroke="transparent" points="796.5,-741.6601 796.5,-802.6601 939.5,-802.6601 939.5,-741.6601 796.5,-741.6601"/>
<polygon fill="#f5f5f5" stroke="transparent" points="797,-779.1601 797,-802.1601 940,-802.1601 940,-779.1601 797,-779.1601"/>
<polygon fill="none" stroke="#000000" points="797,-779.1601 797,-802.1601 940,-802.1601 940,-779.1601 797,-779.1601"/>
<text text-anchor="start" x="801.5782" y="-788.2601" font-family="Helvetica,sans-Serif" font-weight="bold" font-size="11.00" fill="#000000">PROBATION_AREA</text>
<text text-anchor="start" x="905.5219" y="-787.2601" font-family="Helvetica,sans-Serif" font-size="11.00" fill="#000000">[table]</text>
<polygon fill="none" stroke="#000000" points="797,-760.1601 797,-779.1601 940,-779.1601 940,-760.1601 797,-760.1601"/>
<text text-anchor="start" x="800" y="-766.2601" font-family="Helvetica,sans-Serif" font-size="11.00" fill="#000000">...</text>
<polygon fill="#ffffff" stroke="transparent" points="797,-741.1601 797,-760.1601 840,-760.1601 840,-741.1601 797,-741.1601"/>
<polygon fill="none" stroke="#000000" points="797,-741.1601 797,-760.1601 840,-760.1601 840,-741.1601 797,-741.1601"/>
<text text-anchor="start" x="800" y="-747.2601" font-family="Helvetica,sans-Serif" font-size="11.00" fill="#000000">&lt; 8</text>
<polygon fill="#ffffff" stroke="transparent" points="840,-741.1601 840,-760.1601 901,-760.1601 901,-741.1601 840,-741.1601"/>
<polygon fill="none" stroke="#000000" points="840,-741.1601 840,-760.1601 901,-760.1601 901,-741.1601 840,-741.1601"/>
<text text-anchor="start" x="853.3807" y="-747.2601" font-family="Helvetica,sans-Serif" font-size="11.00" fill="#000000">223 rows</text>
<polygon fill="#ffffff" stroke="transparent" points="901,-741.1601 901,-760.1601 940,-760.1601 940,-741.1601 901,-741.1601"/>
<polygon fill="none" stroke="#000000" points="901,-741.1601 901,-760.1601 940,-760.1601 940,-741.1601 901,-741.1601"/>
<text text-anchor="start" x="915.2904" y="-747.2601" font-family="Helvetica,sans-Serif" font-size="11.00" fill="#000000">70 &gt;</text>
</a>
</g>
</g>
<!-- SPG_NOTIFICATION&#45;&gt;PROBATION_AREA -->
<g id="edge32" class="edge">
<title>SPG_NOTIFICATION:w&#45;&gt;PROBATION_AREA:e</title>
<path fill="none" stroke="#000000" d="M1033.9316,-1000.6722C944.9994,-980.8283 1048.8782,-769.1601 940,-769.1601"/>
<polygon fill="#000000" stroke="#000000" points="1040.5414,-1001.3472 1048.1342,-1005.7415 1044.5207,-1001.7537 1048.5,-1002.1601 1048.5,-1002.1601 1048.5,-1002.1601 1044.5207,-1001.7537 1048.8658,-998.5787 1040.5414,-1001.3472 1040.5414,-1001.3472"/>
<ellipse fill="none" stroke="#000000" cx="1037.358" cy="-1001.0221" rx="3.2" ry="3.2"/>
</g>
<!-- SPG_NOTIFICATION&#45;&gt;PROBATION_AREA -->
<g id="edge33" class="edge">
<title>SPG_NOTIFICATION:w&#45;&gt;PROBATION_AREA:e</title>
<path fill="none" stroke="#000000" d="M1034.0274,-1022.7881C936.6972,-1002.7169 1057.8736,-769.1601 940,-769.1601"/>
<polygon fill="#000000" stroke="#000000" points="1040.5357,-1023.4051 1048.1602,-1027.744 1044.5179,-1023.7826 1048.5,-1024.1601 1048.5,-1024.1601 1048.5,-1024.1601 1044.5179,-1023.7826 1048.8398,-1020.5762 1040.5357,-1023.4051 1040.5357,-1023.4051"/>
<ellipse fill="none" stroke="#000000" cx="1037.35" cy="-1023.103" rx="3.2" ry="3.2"/>
</g>
<!-- SPG_NOTIFICATION&#45;&gt;R_STANDARD_REFERENCE_LIST -->
<g id="edge34" class="edge">
<title>SPG_NOTIFICATION:w&#45;&gt;R_STANDARD_REFERENCE_LIST:e</title>
<path fill="none" stroke="#000000" d="M1033.8504,-916.3176C1003.6006,-926.3752 1007.5217,-968.7745 969,-983.1601 884.8955,-1014.5683 853.285,-1007.9581 767,-983.1601 603.6814,-936.2229 573.4253,-889.088 443,-780.1601 354.8629,-706.5502 321.8142,-691.1269 269,-589.1601 230.067,-513.9933 312.6512,-403.1601 228,-403.1601"/>
<polygon fill="#000000" stroke="#000000" points="1040.5854,-915.3258 1049.0245,-917.7217 1044.5427,-914.7429 1048.5,-914.1601 1048.5,-914.1601 1048.5,-914.1601 1044.5427,-914.7429 1047.9755,-910.5985 1040.5854,-915.3258 1040.5854,-915.3258"/>
<ellipse fill="none" stroke="#000000" cx="1037.4195" cy="-915.792" rx="3.2" ry="3.2"/>
</g>
<!-- SPG_NOTIFICATION&#45;&gt;R_STANDARD_REFERENCE_LIST -->
<g id="edge35" class="edge">
<title>SPG_NOTIFICATION:w&#45;&gt;R_STANDARD_REFERENCE_LIST:e</title>
<path fill="none" stroke="#000000" d="M1033.9961,-938.2567C1003.9564,-948.0302 1007.1482,-989.2289 969,-1003.1601 884.6695,-1033.9565 855.4545,-1018.5173 767,-1003.1601 616.3034,-976.9967 568.6624,-974.355 443,-887.1601 344.5368,-818.8383 318.2952,-790.3977 269,-681.1601 243.3145,-624.2412 290.446,-403.1601 228,-403.1601"/>
<polygon fill="#000000" stroke="#000000" points="1040.5823,-937.3047 1049.0151,-939.7231 1044.5411,-936.7324 1048.5,-936.1601 1048.5,-936.1601 1048.5,-936.1601 1044.5411,-936.7324 1047.9849,-932.5971 1040.5823,-937.3047 1040.5823,-937.3047"/>
<ellipse fill="none" stroke="#000000" cx="1037.4152" cy="-937.7625" rx="3.2" ry="3.2"/>
</g>
<!-- DATA_SCRIPT_MESSAGE&#45;&gt;OFFENDER -->
<g id="edge5" class="edge">
<title>DATA_SCRIPT_MESSAGE:w&#45;&gt;OFFENDER:e</title>
<path fill="none" stroke="#000000" d="M760.9074,-370.8101C752.3727,-376.0029 748.0239,-385.3189 734,-389.1601 591.774,-428.1163 549.9647,-403.1601 402.5,-403.1601"/>
<polygon fill="#000000" stroke="#000000" points="767.2555,-369.166 775.9026,-370.6451 771.1278,-368.163 775,-367.1601 775,-367.1601 775,-367.1601 771.1278,-368.163 774.0974,-363.6751 767.2555,-369.166 767.2555,-369.166"/>
<ellipse fill="none" stroke="#000000" cx="764.1578" cy="-369.9683" rx="3.2" ry="3.2"/>
</g>
<!-- DATA_SCRIPT_MESSAGE&#45;&gt;BUSINESS_INTERACTION -->
<g id="edge3" class="edge">
<title>DATA_SCRIPT_MESSAGE:w&#45;&gt;BUSINESS_INTERACTION:e</title>
<path fill="none" stroke="#000000" d="M760.9741,-327.6924C704.4137,-370.5659 804.1963,-703.1601 724.5,-703.1601"/>
<polygon fill="#000000" stroke="#000000" points="767.3876,-325.62 776.107,-326.5857 771.1938,-324.3901 775,-323.1601 775,-323.1601 775,-323.1601 771.1938,-324.3901 773.893,-319.7345 767.3876,-325.62 767.3876,-325.62"/>
<ellipse fill="none" stroke="#000000" cx="764.3426" cy="-326.604" rx="3.2" ry="3.2"/>
</g>
<!-- EVENT -->
<g id="node6" class="node">
<title>EVENT</title>
<g id="a_node6"><a xlink:href="../../tables/EVENT.html" xlink:title="EVENT" target="_top">
<polygon fill="#ffffff" stroke="transparent" points="532,-317.6601 532,-378.6601 645,-378.6601 645,-317.6601 532,-317.6601"/>
<polygon fill="#f5f5f5" stroke="transparent" points="532.5,-355.1601 532.5,-378.1601 645.5,-378.1601 645.5,-355.1601 532.5,-355.1601"/>
<polygon fill="none" stroke="#000000" points="532.5,-355.1601 532.5,-378.1601 645.5,-378.1601 645.5,-355.1601 532.5,-355.1601"/>
<text text-anchor="start" x="537.5" y="-364.2601" font-family="Helvetica,sans-Serif" font-weight="bold" font-size="11.00" fill="#000000">EVENT</text>
<text text-anchor="start" x="610.5437" y="-363.2601" font-family="Helvetica,sans-Serif" font-size="11.00" fill="#000000">[table]</text>
<polygon fill="none" stroke="#000000" points="532.5,-336.1601 532.5,-355.1601 645.5,-355.1601 645.5,-336.1601 532.5,-336.1601"/>
<text text-anchor="start" x="535.5" y="-342.2601" font-family="Helvetica,sans-Serif" font-size="11.00" fill="#000000">...</text>
<polygon fill="#ffffff" stroke="transparent" points="532.5,-317.1601 532.5,-336.1601 553.5,-336.1601 553.5,-317.1601 532.5,-317.1601"/>
<polygon fill="none" stroke="#000000" points="532.5,-317.1601 532.5,-336.1601 553.5,-336.1601 553.5,-317.1601 532.5,-317.1601"/>
<text text-anchor="start" x="535.2026" y="-323.2601" font-family="Helvetica,sans-Serif" font-size="11.00" fill="#000000">&lt; 5</text>
<polygon fill="#ffffff" stroke="transparent" points="553.5,-317.1601 553.5,-336.1601 618.5,-336.1601 618.5,-317.1601 553.5,-317.1601"/>
<polygon fill="none" stroke="#000000" points="553.5,-317.1601 553.5,-336.1601 618.5,-336.1601 618.5,-317.1601 553.5,-317.1601"/>
<text text-anchor="start" x="556.047" y="-323.2601" font-family="Helvetica,sans-Serif" font-size="11.00" fill="#000000">14,604 rows</text>
<polygon fill="#ffffff" stroke="transparent" points="618.5,-317.1601 618.5,-336.1601 645.5,-336.1601 645.5,-317.1601 618.5,-317.1601"/>
<polygon fill="none" stroke="#000000" points="618.5,-317.1601 618.5,-336.1601 645.5,-336.1601 645.5,-317.1601 618.5,-317.1601"/>
<text text-anchor="start" x="621.1452" y="-323.2601" font-family="Helvetica,sans-Serif" font-size="11.00" fill="#000000">28 &gt;</text>
</a>
</g>
</g>
<!-- DATA_SCRIPT_MESSAGE&#45;&gt;EVENT -->
<g id="edge4" class="edge">
<title>DATA_SCRIPT_MESSAGE:w&#45;&gt;EVENT:e</title>
<path fill="none" stroke="#000000" d="M760.4697,-345.1601C714.5105,-345.1601 697.8845,-345.1601 645.5,-345.1601"/>
<polygon fill="#000000" stroke="#000000" points="767,-345.1602 775,-348.7601 771,-345.1601 775,-345.1601 775,-345.1601 775,-345.1601 771,-345.1601 775,-341.5601 767,-345.1602 767,-345.1602"/>
<ellipse fill="none" stroke="#000000" cx="763.8" cy="-345.1602" rx="3.2" ry="3.2"/>
</g>
<!-- EVENT&#45;&gt;OFFENDER -->
<g id="edge9" class="edge">
<title>EVENT:w&#45;&gt;OFFENDER:e</title>
<path fill="none" stroke="#000000" d="M518.0715,-346.267C468.2617,-354.2854 460.5775,-403.1601 402.5,-403.1601"/>
<polygon fill="#000000" stroke="#000000" points="524.5234,-345.7721 532.7754,-348.7496 528.5117,-345.4661 532.5,-345.1601 532.5,-345.1601 532.5,-345.1601 528.5117,-345.4661 532.2246,-341.5707 524.5234,-345.7721 524.5234,-345.7721"/>
<ellipse fill="none" stroke="#000000" cx="521.3328" cy="-346.0168" rx="3.2" ry="3.2"/>
</g>
<!-- DOCUMENT_TEMPLATE -->
<g id="node7" class="node">
<title>DOCUMENT_TEMPLATE</title>
<g id="a_node7"><a xlink:href="../../tables/DOCUMENT_TEMPLATE.html" xlink:title="DOCUMENT_TEMPLATE" target="_top">
<polygon fill="#ffffff" stroke="transparent" points="783,-823.6601 783,-972.6601 953,-972.6601 953,-823.6601 783,-823.6601"/>
<polygon fill="#f5f5f5" stroke="transparent" points="783,-949.1601 783,-972.1601 953,-972.1601 953,-949.1601 783,-949.1601"/>
<polygon fill="none" stroke="#000000" points="783,-949.1601 783,-972.1601 953,-972.1601 953,-949.1601 783,-949.1601"/>
<text text-anchor="start" x="787.6434" y="-958.2601" font-family="Helvetica,sans-Serif" font-weight="bold" font-size="11.00" fill="#000000">DOCUMENT_TEMPLATE</text>
<text text-anchor="start" x="918.5219" y="-957.2601" font-family="Helvetica,sans-Serif" font-size="11.00" fill="#000000">[table]</text>
<polygon fill="none" stroke="#000000" points="783,-927.1601 783,-949.1601 953,-949.1601 953,-927.1601 783,-927.1601"/>
<image xlink:href="../../images/primaryKeys.png" width="11px" height="12px" preserveAspectRatio="xMinYMin meet" x="788" y="-944.16"/>
<text text-anchor="start" x="803.587" y="-934.2601" font-family="Helvetica,sans-Serif" font-size="11.00" fill="#000000">DOCUMENT_TEMPLATE_ID</text>
<polygon fill="none" stroke="#000000" points="783,-905.1601 783,-927.1601 953,-927.1601 953,-905.1601 783,-905.1601"/>
<image xlink:href="../../images/primaryKeys.png" width="11px" height="12px" preserveAspectRatio="xMinYMin meet" x="788" y="-922.16"/>
<text text-anchor="start" x="804" y="-912.2601" font-family="Helvetica,sans-Serif" font-size="11.00" fill="#000000">TEMPLATE_NAME</text>
<polygon fill="none" stroke="#000000" points="783,-883.1601 783,-905.1601 953,-905.1601 953,-883.1601 783,-883.1601"/>
<image xlink:href="../../images/primaryKeys.png" width="11px" height="12px" preserveAspectRatio="xMinYMin meet" x="788" y="-900.16"/>
<text text-anchor="start" x="804" y="-890.2601" font-family="Helvetica,sans-Serif" font-size="11.00" fill="#000000">TRAINING_SESSION_ID</text>
<polygon fill="none" stroke="#000000" points="783,-861.1601 783,-883.1601 953,-883.1601 953,-861.1601 783,-861.1601"/>
<image xlink:href="../../images/primaryKeys.png" width="11px" height="12px" preserveAspectRatio="xMinYMin meet" x="788" y="-878.16"/>
<text text-anchor="start" x="799.3041" y="-868.2601" font-family="Helvetica,sans-Serif" font-size="11.00" fill="#000000">BUSINESS_INTERACTION_ID</text>
<polygon fill="none" stroke="#000000" points="783,-842.1601 783,-861.1601 953,-861.1601 953,-842.1601 783,-842.1601"/>
<text text-anchor="start" x="786" y="-848.2601" font-family="Helvetica,sans-Serif" font-size="11.00" fill="#000000">...</text>
<polygon fill="#ffffff" stroke="transparent" points="783,-823.1601 783,-842.1601 846,-842.1601 846,-823.1601 783,-823.1601"/>
<polygon fill="none" stroke="#000000" points="783,-823.1601 783,-842.1601 846,-842.1601 846,-823.1601 783,-823.1601"/>
<text text-anchor="start" x="786" y="-829.2601" font-family="Helvetica,sans-Serif" font-size="11.00" fill="#000000">&lt; 1</text>
<polygon fill="#ffffff" stroke="transparent" points="846,-823.1601 846,-842.1601 911,-842.1601 911,-823.1601 846,-823.1601"/>
<polygon fill="none" stroke="#000000" points="846,-823.1601 846,-842.1601 911,-842.1601 911,-823.1601 846,-823.1601"/>
<text text-anchor="start" x="869.4956" y="-829.2601" font-family="Helvetica,sans-Serif" font-size="11.00" fill="#000000">16 rows</text>
<polygon fill="#ffffff" stroke="transparent" points="911,-823.1601 911,-842.1601 953,-842.1601 953,-823.1601 911,-823.1601"/>
<polygon fill="none" stroke="#000000" points="911,-823.1601 911,-842.1601 953,-842.1601 953,-823.1601 911,-823.1601"/>
<text text-anchor="start" x="934.4053" y="-829.2601" font-family="Helvetica,sans-Serif" font-size="11.00" fill="#000000">2 &gt;</text>
</a>
</g>
</g>
<!-- DOCUMENT_TEMPLATE&#45;&gt;BUSINESS_INTERACTION -->
<g id="edge6" class="edge">
<title>DOCUMENT_TEMPLATE:w&#45;&gt;BUSINESS_INTERACTION:e</title>
<path fill="none" stroke="#000000" d="M768.7777,-869.7711C716.7548,-849.23 798.3951,-703.1601 724.5,-703.1601"/>
<polygon fill="#000000" stroke="#000000" points="775.1105,-870.8348 782.4036,-875.7104 779.0553,-871.4975 783,-872.1601 783,-872.1601 783,-872.1601 779.0553,-871.4975 783.5964,-868.6099 775.1105,-870.8348 775.1105,-870.8348"/>
<ellipse fill="none" stroke="#000000" cx="771.9547" cy="-870.3047" rx="3.2" ry="3.2"/>
</g>
<!-- DOCUMENT_TEMPLATE_AREA -->
<g id="node8" class="node">
<title>DOCUMENT_TEMPLATE_AREA</title>
<g id="a_node8"><a xlink:href="../../tables/DOCUMENT_TEMPLATE_AREA.html" xlink:title="DOCUMENT_TEMPLATE_AREA" target="_top">
<polygon fill="#ffffff" stroke="transparent" points="1044.5,-635.6601 1044.5,-696.6601 1250.5,-696.6601 1250.5,-635.6601 1044.5,-635.6601"/>
<polygon fill="#f5f5f5" stroke="transparent" points="1044.5,-673.1601 1044.5,-696.1601 1250.5,-696.1601 1250.5,-673.1601 1044.5,-673.1601"/>
<polygon fill="none" stroke="#000000" points="1044.5,-673.1601 1044.5,-696.1601 1250.5,-696.1601 1250.5,-673.1601 1044.5,-673.1601"/>
<text text-anchor="start" x="1049.1116" y="-682.2601" font-family="Helvetica,sans-Serif" font-weight="bold" font-size="11.00" fill="#000000">DOCUMENT_TEMPLATE_AREA</text>
<text text-anchor="start" x="1216.0219" y="-681.2601" font-family="Helvetica,sans-Serif" font-size="11.00" fill="#000000">[table]</text>
<polygon fill="none" stroke="#000000" points="1044.5,-654.1601 1044.5,-673.1601 1250.5,-673.1601 1250.5,-654.1601 1044.5,-654.1601"/>
<text text-anchor="start" x="1047.5" y="-660.2601" font-family="Helvetica,sans-Serif" font-size="11.00" fill="#000000">...</text>
<polygon fill="#ffffff" stroke="transparent" points="1044.5,-635.1601 1044.5,-654.1601 1135.5,-654.1601 1135.5,-635.1601 1044.5,-635.1601"/>
<polygon fill="none" stroke="#000000" points="1044.5,-635.1601 1044.5,-654.1601 1135.5,-654.1601 1135.5,-635.1601 1044.5,-635.1601"/>
<text text-anchor="start" x="1047.5" y="-641.2601" font-family="Helvetica,sans-Serif" font-size="11.00" fill="#000000">&lt; 2</text>
<polygon fill="#ffffff" stroke="transparent" points="1135.5,-635.1601 1135.5,-654.1601 1202.5,-654.1601 1202.5,-635.1601 1135.5,-635.1601"/>
<polygon fill="none" stroke="#000000" points="1135.5,-635.1601 1135.5,-654.1601 1202.5,-654.1601 1202.5,-635.1601 1135.5,-635.1601"/>
<text text-anchor="start" x="1172.6105" y="-641.2601" font-family="Helvetica,sans-Serif" font-size="11.00" fill="#000000">1 row</text>
<polygon fill="#ffffff" stroke="transparent" points="1202.5,-635.1601 1202.5,-654.1601 1250.5,-654.1601 1250.5,-635.1601 1202.5,-635.1601"/>
<polygon fill="none" stroke="#000000" points="1202.5,-635.1601 1202.5,-654.1601 1250.5,-654.1601 1250.5,-635.1601 1202.5,-635.1601"/>
<text text-anchor="start" x="1241.3862" y="-641.2601" font-family="Helvetica,sans-Serif" font-size="11.00" fill="#000000"> &#160;</text>
</a>
</g>
</g>
<!-- DOCUMENT_TEMPLATE_AREA&#45;&gt;DOCUMENT_TEMPLATE -->
<g id="edge7" class="edge">
<title>DOCUMENT_TEMPLATE_AREA:w&#45;&gt;DOCUMENT_TEMPLATE:e</title>
<path fill="none" stroke="#000000" d="M1030.2565,-665.6788C1015.7811,-671.773 1012.0689,-688.2164 1002,-707.1601 952.7425,-799.8338 1057.951,-938.1601 953,-938.1601"/>
<polygon fill="#000000" stroke="#000000" points="1036.6222,-664.5532 1045.1269,-666.7051 1040.5611,-663.8566 1044.5,-663.1601 1044.5,-663.1601 1044.5,-663.1601 1040.5611,-663.8566 1043.8731,-659.6151 1036.6222,-664.5532 1036.6222,-664.5532"/>
<ellipse fill="none" stroke="#000000" cx="1033.4711" cy="-665.1104" rx="3.2" ry="3.2"/>
</g>
<!-- DOCUMENT_TEMPLATE_AREA&#45;&gt;PROBATION_AREA -->
<g id="edge8" class="edge">
<title>DOCUMENT_TEMPLATE_AREA:w&#45;&gt;PROBATION_AREA:e</title>
<path fill="none" stroke="#000000" d="M1030.0128,-665.183C982.275,-679.8375 1000.7286,-769.1601 940,-769.1601"/>
<polygon fill="#000000" stroke="#000000" points="1036.5769,-664.2665 1044.9979,-666.7255 1040.5384,-663.7133 1044.5,-663.1601 1044.5,-663.1601 1044.5,-663.1601 1040.5384,-663.7133 1044.0021,-659.5947 1036.5769,-664.2665 1036.5769,-664.2665"/>
<ellipse fill="none" stroke="#000000" cx="1033.4076" cy="-664.709" rx="3.2" ry="3.2"/>
</g>
<!-- PROBATION_AREA&#45;&gt;R_STANDARD_REFERENCE_LIST -->
<g id="edge27" class="edge">
<title>PROBATION_AREA:w&#45;&gt;R_STANDARD_REFERENCE_LIST:e</title>
<path fill="none" stroke="#000000" d="M782.5045,-769.331C635.5366,-772.7992 574.2802,-827.0735 443,-749.1601 423.5384,-737.6099 250.631,-403.1601 228,-403.1601"/>
<polygon fill="#000000" stroke="#000000" points="789.0006,-769.2545 797.0425,-772.7599 793.0003,-769.2073 797,-769.1601 797,-769.1601 797,-769.1601 793.0003,-769.2073 796.9575,-765.5604 789.0006,-769.2545 789.0006,-769.2545"/>
<ellipse fill="none" stroke="#000000" cx="785.8008" cy="-769.2922" rx="3.2" ry="3.2"/>
</g>
<!-- OBJECT_TYPE_DOCUMENT_TEMPLATE -->
<g id="node10" class="node">
<title>OBJECT_TYPE_DOCUMENT_TEMPLATE</title>
<g id="a_node10"><a xlink:href="../../tables/OBJECT_TYPE_DOCUMENT_TEMPLATE.html" xlink:title="OBJECT_TYPE_DOCUMENT_TEMPLATE" target="_top">
<polygon fill="#ffffff" stroke="transparent" points="1020,-717.6601 1020,-778.6601 1275,-778.6601 1275,-717.6601 1020,-717.6601"/>
<polygon fill="#f5f5f5" stroke="transparent" points="1020.5,-755.1601 1020.5,-778.1601 1275.5,-778.1601 1275.5,-755.1601 1020.5,-755.1601"/>
<polygon fill="none" stroke="#000000" points="1020.5,-755.1601 1020.5,-778.1601 1275.5,-778.1601 1275.5,-755.1601 1020.5,-755.1601"/>
<text text-anchor="start" x="1025.4699" y="-764.2601" font-family="Helvetica,sans-Serif" font-weight="bold" font-size="11.00" fill="#000000">OBJECT_TYPE_DOCUMENT_TEMPLATE</text>
<text text-anchor="start" x="1241.0219" y="-763.2601" font-family="Helvetica,sans-Serif" font-size="11.00" fill="#000000">[table]</text>
<polygon fill="none" stroke="#000000" points="1020.5,-736.1601 1020.5,-755.1601 1275.5,-755.1601 1275.5,-736.1601 1020.5,-736.1601"/>
<text text-anchor="start" x="1023.5" y="-742.2601" font-family="Helvetica,sans-Serif" font-size="11.00" fill="#000000">...</text>
<polygon fill="#ffffff" stroke="transparent" points="1020.5,-717.1601 1020.5,-736.1601 1130.5,-736.1601 1130.5,-717.1601 1020.5,-717.1601"/>
<polygon fill="none" stroke="#000000" points="1020.5,-717.1601 1020.5,-736.1601 1130.5,-736.1601 1130.5,-717.1601 1020.5,-717.1601"/>
<text text-anchor="start" x="1023.5" y="-723.2601" font-family="Helvetica,sans-Serif" font-size="11.00" fill="#000000">&lt; 1</text>
<polygon fill="#ffffff" stroke="transparent" points="1130.5,-717.1601 1130.5,-736.1601 1218.5,-736.1601 1218.5,-717.1601 1130.5,-717.1601"/>
<polygon fill="none" stroke="#000000" points="1130.5,-717.1601 1130.5,-736.1601 1218.5,-736.1601 1218.5,-717.1601 1130.5,-717.1601"/>
<text text-anchor="start" x="1176.9956" y="-723.2601" font-family="Helvetica,sans-Serif" font-size="11.00" fill="#000000">47 rows</text>
<polygon fill="#ffffff" stroke="transparent" points="1218.5,-717.1601 1218.5,-736.1601 1275.5,-736.1601 1275.5,-717.1601 1218.5,-717.1601"/>
<polygon fill="none" stroke="#000000" points="1218.5,-717.1601 1218.5,-736.1601 1275.5,-736.1601 1275.5,-717.1601 1218.5,-717.1601"/>
<text text-anchor="start" x="1266.3862" y="-723.2601" font-family="Helvetica,sans-Serif" font-size="11.00" fill="#000000"> &#160;</text>
</a>
</g>
</g>
<!-- OBJECT_TYPE_DOCUMENT_TEMPLATE&#45;&gt;DOCUMENT_TEMPLATE -->
<g id="edge10" class="edge">
<title>OBJECT_TYPE_DOCUMENT_TEMPLATE:w&#45;&gt;DOCUMENT_TEMPLATE:e</title>
<path fill="none" stroke="#000000" d="M1006.1586,-747.197C942.7098,-767.8237 1038.3705,-938.1601 953,-938.1601"/>
<polygon fill="#000000" stroke="#000000" points="1012.5795,-746.2851 1021.0062,-748.7243 1016.5397,-745.7226 1020.5,-745.1601 1020.5,-745.1601 1020.5,-745.1601 1016.5397,-745.7226 1019.9938,-741.5959 1012.5795,-746.2851 1012.5795,-746.2851"/>
<ellipse fill="none" stroke="#000000" cx="1009.4113" cy="-746.7351" rx="3.2" ry="3.2"/>
</g>
<!-- OFFENDER_CRC_EXPORT -->
<g id="node12" class="node">
<title>OFFENDER_CRC_EXPORT</title>
<g id="a_node12"><a xlink:href="../../tables/OFFENDER_CRC_EXPORT.html" xlink:title="OFFENDER_CRC_EXPORT" target="_top">
<polygon fill="#ffffff" stroke="transparent" points="1349,-1087.6601 1349,-1148.6601 1533,-1148.6601 1533,-1087.6601 1349,-1087.6601"/>
<polygon fill="#f5f5f5" stroke="transparent" points="1349,-1125.1601 1349,-1148.1601 1533,-1148.1601 1533,-1125.1601 1349,-1125.1601"/>
<polygon fill="none" stroke="#000000" points="1349,-1125.1601 1349,-1148.1601 1533,-1148.1601 1533,-1125.1601 1349,-1125.1601"/>
<text text-anchor="start" x="1353.6155" y="-1134.2601" font-family="Helvetica,sans-Serif" font-weight="bold" font-size="11.00" fill="#000000">OFFENDER_CRC_EXPORT</text>
<text text-anchor="start" x="1498.5219" y="-1133.2601" font-family="Helvetica,sans-Serif" font-size="11.00" fill="#000000">[table]</text>
<polygon fill="none" stroke="#000000" points="1349,-1106.1601 1349,-1125.1601 1533,-1125.1601 1533,-1106.1601 1349,-1106.1601"/>
<text text-anchor="start" x="1352" y="-1112.2601" font-family="Helvetica,sans-Serif" font-size="11.00" fill="#000000">...</text>
<polygon fill="#ffffff" stroke="transparent" points="1349,-1087.1601 1349,-1106.1601 1420,-1106.1601 1420,-1087.1601 1349,-1087.1601"/>
<polygon fill="none" stroke="#000000" points="1349,-1087.1601 1349,-1106.1601 1420,-1106.1601 1420,-1087.1601 1349,-1087.1601"/>
<text text-anchor="start" x="1352" y="-1093.2601" font-family="Helvetica,sans-Serif" font-size="11.00" fill="#000000">&lt; 3</text>
<polygon fill="#ffffff" stroke="transparent" points="1420,-1087.1601 1420,-1106.1601 1495,-1106.1601 1495,-1087.1601 1420,-1087.1601"/>
<polygon fill="none" stroke="#000000" points="1420,-1087.1601 1420,-1106.1601 1495,-1106.1601 1495,-1087.1601 1420,-1087.1601"/>
<text text-anchor="start" x="1447.3807" y="-1093.2601" font-family="Helvetica,sans-Serif" font-size="11.00" fill="#000000">983 rows</text>
<polygon fill="#ffffff" stroke="transparent" points="1495,-1087.1601 1495,-1106.1601 1533,-1106.1601 1533,-1087.1601 1495,-1087.1601"/>
<polygon fill="none" stroke="#000000" points="1495,-1087.1601 1495,-1106.1601 1533,-1106.1601 1533,-1087.1601 1495,-1087.1601"/>
<text text-anchor="start" x="1523.8862" y="-1093.2601" font-family="Helvetica,sans-Serif" font-size="11.00" fill="#000000"> &#160;</text>
</a>
</g>
</g>
<!-- OFFENDER_CRC_EXPORT&#45;&gt;OFFENDER -->
<g id="edge25" class="edge">
<title>OFFENDER_CRC_EXPORT:w&#45;&gt;OFFENDER:e</title>
<path fill="none" stroke="#000000" d="M1334.8051,-1118.1348C1309.888,-1131.0208 1327.9286,-1182.2233 1293,-1201.1601 1179.3016,-1262.8025 1127.8482,-1230.9818 1002,-1201.1601 719.9403,-1134.3216 590.2854,-1114.8241 443,-865.1601 416.8171,-820.7775 454.0302,-403.1601 402.5,-403.1601"/>
<polygon fill="#000000" stroke="#000000" points="1341.1701,-1116.801 1349.7384,-1118.6836 1345.085,-1115.9806 1349,-1115.1601 1349,-1115.1601 1349,-1115.1601 1345.085,-1115.9806 1348.2616,-1111.6367 1341.1701,-1116.801 1341.1701,-1116.801"/>
<ellipse fill="none" stroke="#000000" cx="1338.0381" cy="-1117.4574" rx="3.2" ry="3.2"/>
</g>
<!-- OFFENDER_CRC_EXPORT&#45;&gt;SPG_NOTIFICATION -->
<g id="edge26" class="edge">
<title>OFFENDER_CRC_EXPORT:w&#45;&gt;SPG_NOTIFICATION:e</title>
<path fill="none" stroke="#000000" d="M1334.3877,-1116.5243C1298.4445,-1123.6384 1290.1984,-1156.1601 1246.5,-1156.1601"/>
<polygon fill="#000000" stroke="#000000" points="1341.0346,-1115.9038 1349.3346,-1118.7445 1345.0173,-1115.5319 1349,-1115.1601 1349,-1115.1601 1349,-1115.1601 1345.0173,-1115.5319 1348.6654,-1111.5757 1341.0346,-1115.9038 1341.0346,-1115.9038"/>
<ellipse fill="none" stroke="#000000" cx="1337.8485" cy="-1116.2012" rx="3.2" ry="3.2"/>
</g>
<!-- OFFENDER_CRC_EXPORT&#45;&gt;PROBATION_AREA -->
<g id="edge24" class="edge">
<title>OFFENDER_CRC_EXPORT:w&#45;&gt;PROBATION_AREA:e</title>
<path fill="none" stroke="#000000" d="M1334.644,-1112.2659C1252.1049,-1075.2544 1370.7857,-694.5623 1293,-625.1601 1268.8738,-603.6341 1028.2017,-606.2151 1002,-625.1601 945.5338,-665.9876 1009.68,-769.1601 940,-769.1601"/>
<polygon fill="#000000" stroke="#000000" points="1341.1578,-1113.579 1348.2885,-1118.6891 1345.0789,-1114.3696 1349,-1115.1601 1349,-1115.1601 1349,-1115.1601 1345.0789,-1114.3696 1349.7115,-1111.6311 1341.1578,-1113.579 1341.1578,-1113.579"/>
<ellipse fill="none" stroke="#000000" cx="1338.0209" cy="-1112.9466" rx="3.2" ry="3.2"/>
</g>
<!-- SPG_ERROR_CLEAR_REQUEST -->
<g id="node13" class="node">
<title>SPG_ERROR_CLEAR_REQUEST</title>
<g id="a_node13"><a xlink:href="../../tables/SPG_ERROR_CLEAR_REQUEST.html" xlink:title="SPG_ERROR_CLEAR_REQUEST" target="_top">
<polygon fill="#ffffff" stroke="transparent" points="1334,-1169.6601 1334,-1230.6601 1548,-1230.6601 1548,-1169.6601 1334,-1169.6601"/>
<polygon fill="#f5f5f5" stroke="transparent" points="1334,-1207.1601 1334,-1230.1601 1548,-1230.1601 1548,-1207.1601 1334,-1207.1601"/>
<polygon fill="none" stroke="#000000" points="1334,-1207.1601 1334,-1230.1601 1548,-1230.1601 1548,-1207.1601 1334,-1207.1601"/>
<text text-anchor="start" x="1338.9382" y="-1216.2601" font-family="Helvetica,sans-Serif" font-weight="bold" font-size="11.00" fill="#000000">SPG_ERROR_CLEAR_REQUEST</text>
<text text-anchor="start" x="1513.5219" y="-1215.2601" font-family="Helvetica,sans-Serif" font-size="11.00" fill="#000000">[table]</text>
<polygon fill="none" stroke="#000000" points="1334,-1188.1601 1334,-1207.1601 1548,-1207.1601 1548,-1188.1601 1334,-1188.1601"/>
<text text-anchor="start" x="1337" y="-1194.2601" font-family="Helvetica,sans-Serif" font-size="11.00" fill="#000000">...</text>
<polygon fill="#ffffff" stroke="transparent" points="1334,-1169.1601 1334,-1188.1601 1426,-1188.1601 1426,-1169.1601 1334,-1169.1601"/>
<polygon fill="none" stroke="#000000" points="1334,-1169.1601 1334,-1188.1601 1426,-1188.1601 1426,-1169.1601 1334,-1169.1601"/>
<text text-anchor="start" x="1337" y="-1175.2601" font-family="Helvetica,sans-Serif" font-size="11.00" fill="#000000">&lt; 1</text>
<polygon fill="#ffffff" stroke="transparent" points="1426,-1169.1601 1426,-1188.1601 1500,-1188.1601 1500,-1169.1601 1426,-1169.1601"/>
<polygon fill="none" stroke="#000000" points="1426,-1169.1601 1426,-1188.1601 1500,-1188.1601 1500,-1169.1601 1426,-1169.1601"/>
<text text-anchor="start" x="1464.6105" y="-1175.2601" font-family="Helvetica,sans-Serif" font-size="11.00" fill="#000000">0 rows</text>
<polygon fill="#ffffff" stroke="transparent" points="1500,-1169.1601 1500,-1188.1601 1548,-1188.1601 1548,-1169.1601 1500,-1169.1601"/>
<polygon fill="none" stroke="#000000" points="1500,-1169.1601 1500,-1188.1601 1548,-1188.1601 1548,-1169.1601 1500,-1169.1601"/>
<text text-anchor="start" x="1538.8862" y="-1175.2601" font-family="Helvetica,sans-Serif" font-size="11.00" fill="#000000"> &#160;</text>
</a>
</g>
</g>
<!-- SPG_ERROR_CLEAR_REQUEST&#45;&gt;SPG_NOTIFICATION -->
<g id="edge28" class="edge">
<title>SPG_ERROR_CLEAR_REQUEST:w&#45;&gt;SPG_NOTIFICATION:e</title>
<path fill="none" stroke="#000000" d="M1319.6714,-1195.3984C1290.0059,-1187.5507 1284.0781,-1156.1601 1246.5,-1156.1601"/>
<polygon fill="#000000" stroke="#000000" points="1326.0598,-1196.1838 1333.5607,-1200.7332 1330.0299,-1196.672 1334,-1197.1601 1334,-1197.1601 1334,-1197.1601 1330.0299,-1196.672 1334.4393,-1193.587 1326.0598,-1196.1838 1326.0598,-1196.1838"/>
<ellipse fill="none" stroke="#000000" cx="1322.8837" cy="-1195.7933" rx="3.2" ry="3.2"/>
</g>
<!-- SPG_VERSION_ENTRY -->
<g id="node14" class="node">
<title>SPG_VERSION_ENTRY</title>
<g id="a_node14"><a xlink:href="../../tables/SPG_VERSION_ENTRY.html" xlink:title="SPG_VERSION_ENTRY" target="_top">
<polygon fill="#ffffff" stroke="transparent" points="783.5,-472.6601 783.5,-665.6601 952.5,-665.6601 952.5,-472.6601 783.5,-472.6601"/>
<polygon fill="#f5f5f5" stroke="transparent" points="784,-642.1601 784,-665.1601 953,-665.1601 953,-642.1601 784,-642.1601"/>
<polygon fill="none" stroke="#000000" points="784,-642.1601 784,-665.1601 953,-665.1601 953,-642.1601 784,-642.1601"/>
<text text-anchor="start" x="789" y="-651.2601" font-family="Helvetica,sans-Serif" font-weight="bold" font-size="11.00" fill="#000000">SPG_VERSION_ENTRY</text>
<text text-anchor="start" x="918.0437" y="-650.2601" font-family="Helvetica,sans-Serif" font-size="11.00" fill="#000000">[table]</text>
<polygon fill="none" stroke="#000000" points="784,-620.1601 784,-642.1601 953,-642.1601 953,-620.1601 784,-620.1601"/>
<image xlink:href="../../images/primaryKeys.png" width="11px" height="12px" preserveAspectRatio="xMinYMin meet" x="789" y="-637.16"/>
<text text-anchor="start" x="804" y="-627.2601" font-family="Helvetica,sans-Serif" font-size="11.00" fill="#000000">SPG_VERSION_ENTRY_ID</text>
<polygon fill="none" stroke="#000000" points="784,-598.1601 784,-620.1601 953,-620.1601 953,-598.1601 784,-598.1601"/>
<image xlink:href="../../images/primaryKeys.png" width="11px" height="12px" preserveAspectRatio="xMinYMin meet" x="789" y="-615.16"/>
<text text-anchor="start" x="804" y="-605.2601" font-family="Helvetica,sans-Serif" font-size="11.00" fill="#000000">TABLE_NAME</text>
<polygon fill="none" stroke="#000000" points="784,-576.1601 784,-598.1601 953,-598.1601 953,-576.1601 784,-576.1601"/>
<image xlink:href="../../images/primaryKeys.png" width="11px" height="12px" preserveAspectRatio="xMinYMin meet" x="789" y="-593.16"/>
<text text-anchor="start" x="804" y="-583.2601" font-family="Helvetica,sans-Serif" font-size="11.00" fill="#000000">PRIMARY_KEY_ID</text>
<polygon fill="none" stroke="#000000" points="784,-554.1601 784,-576.1601 953,-576.1601 953,-554.1601 784,-554.1601"/>
<image xlink:href="../../images/primaryKeys.png" width="11px" height="12px" preserveAspectRatio="xMinYMin meet" x="789" y="-571.16"/>
<text text-anchor="start" x="804" y="-561.2601" font-family="Helvetica,sans-Serif" font-size="11.00" fill="#000000">CURRENT_RECORD_FLAG</text>
<polygon fill="none" stroke="#000000" points="784,-532.1601 784,-554.1601 953,-554.1601 953,-532.1601 784,-532.1601"/>
<image xlink:href="../../images/primaryKeys.png" width="11px" height="12px" preserveAspectRatio="xMinYMin meet" x="789" y="-549.16"/>
<text text-anchor="start" x="804" y="-539.2601" font-family="Helvetica,sans-Serif" font-size="11.00" fill="#000000">OFFENDER_ID</text>
<polygon fill="none" stroke="#000000" points="784,-510.1601 784,-532.1601 953,-532.1601 953,-510.1601 784,-510.1601"/>
<image xlink:href="../../images/primaryKeys.png" width="11px" height="12px" preserveAspectRatio="xMinYMin meet" x="789" y="-527.16"/>
<text text-anchor="start" x="799.3041" y="-517.2601" font-family="Helvetica,sans-Serif" font-size="11.00" fill="#000000">BUSINESS_INTERACTION_ID</text>
<polygon fill="none" stroke="#000000" points="784,-491.1601 784,-510.1601 953,-510.1601 953,-491.1601 784,-491.1601"/>
<text text-anchor="start" x="787" y="-497.2601" font-family="Helvetica,sans-Serif" font-size="11.00" fill="#000000">...</text>
<polygon fill="#ffffff" stroke="transparent" points="784,-472.1601 784,-491.1601 837,-491.1601 837,-472.1601 784,-472.1601"/>
<polygon fill="none" stroke="#000000" points="784,-472.1601 784,-491.1601 837,-491.1601 837,-472.1601 784,-472.1601"/>
<text text-anchor="start" x="787" y="-478.2601" font-family="Helvetica,sans-Serif" font-size="11.00" fill="#000000">&lt; 2</text>
<polygon fill="#ffffff" stroke="transparent" points="837,-472.1601 837,-491.1601 925,-491.1601 925,-472.1601 837,-472.1601"/>
<polygon fill="none" stroke="#000000" points="837,-472.1601 837,-491.1601 925,-491.1601 925,-472.1601 837,-472.1601"/>
<text text-anchor="start" x="855.9791" y="-478.2601" font-family="Helvetica,sans-Serif" font-size="11.00" fill="#000000">441,439 rows</text>
<polygon fill="#ffffff" stroke="transparent" points="925,-472.1601 925,-491.1601 953,-491.1601 953,-472.1601 925,-472.1601"/>
<polygon fill="none" stroke="#000000" points="925,-472.1601 925,-491.1601 953,-491.1601 953,-472.1601 925,-472.1601"/>
<text text-anchor="start" x="943.8862" y="-478.2601" font-family="Helvetica,sans-Serif" font-size="11.00" fill="#000000"> &#160;</text>
</a>
</g>
</g>
<!-- SPG_VERSION_ENTRY&#45;&gt;OFFENDER -->
<g id="edge37" class="edge">
<title>SPG_VERSION_ENTRY:w&#45;&gt;OFFENDER:e</title>
<path fill="none" stroke="#000000" d="M769.2086,-543.1631C624.1822,-543.1918 568.589,-542.2825 443,-458.1601 417.7785,-441.2662 432.8567,-403.1601 402.5,-403.1601"/>
<polygon fill="#000000" stroke="#000000" points="776,-543.1618 784.0007,-546.7601 780,-543.1609 784,-543.1601 784,-543.1601 784,-543.1601 780,-543.1609 783.9993,-539.5601 776,-543.1618 776,-543.1618"/>
<ellipse fill="none" stroke="#000000" cx="772.8" cy="-543.1624" rx="3.2" ry="3.2"/>
</g>
<!-- SPG_VERSION_ENTRY&#45;&gt;BUSINESS_INTERACTION -->
<g id="edge36" class="edge">
<title>SPG_VERSION_ENTRY:w&#45;&gt;BUSINESS_INTERACTION:e</title>
<path fill="none" stroke="#000000" d="M769.5218,-523.4613C712.7375,-544.5294 803.9505,-703.1601 724.5,-703.1601"/>
<polygon fill="#000000" stroke="#000000" points="776.0992,-522.4159 784.5651,-524.7155 780.0496,-521.788 784,-521.1601 784,-521.1601 784,-521.1601 780.0496,-521.788 783.4349,-517.6047 776.0992,-522.4159 776.0992,-522.4159"/>
<ellipse fill="none" stroke="#000000" cx="772.9388" cy="-522.9182" rx="3.2" ry="3.2"/>
</g>
<!-- RSINGH_DBA.SPG_NOTIFICATION -->
<g id="node15" class="node">
<title>RSINGH_DBA.SPG_NOTIFICATION</title>
<g id="a_node15"><a xlink:title="RSINGH_DBA.SPG_NOTIFICATION">
<polygon fill="#ffffff" stroke="transparent" points="1035.5,-371.6601 1035.5,-586.6601 1259.5,-586.6601 1259.5,-371.6601 1035.5,-371.6601"/>
<polygon fill="#f5f5f5" stroke="transparent" points="1035.5,-563.1601 1035.5,-586.1601 1259.5,-586.1601 1259.5,-563.1601 1035.5,-563.1601"/>
<polygon fill="none" stroke="#000000" points="1035.5,-563.1601 1035.5,-586.1601 1259.5,-586.1601 1259.5,-563.1601 1035.5,-563.1601"/>
<text text-anchor="start" x="1040.2484" y="-572.2601" font-family="Helvetica,sans-Serif" font-weight="bold" font-size="11.00" fill="#000000">RSINGH_DBA.SPG_NOTIFICATION</text>
<text text-anchor="start" x="1225.0219" y="-571.2601" font-family="Helvetica,sans-Serif" font-size="11.00" fill="#000000">[table]</text>
<polygon fill="none" stroke="#000000" points="1035.5,-541.1601 1035.5,-563.1601 1259.5,-563.1601 1259.5,-541.1601 1035.5,-541.1601"/>
<image xlink:href="../../images/foreignKeys.png" width="11px" height="12px" preserveAspectRatio="xMinYMin meet" x="1040.5" y="-558.16"/>
<text text-anchor="start" x="1068.5" y="-548.2601" font-family="Helvetica,sans-Serif" font-size="11.00" fill="#000000">BUSINESS_INTERACTION_ID</text>
<polygon fill="none" stroke="#000000" points="1035.5,-519.1601 1035.5,-541.1601 1259.5,-541.1601 1259.5,-519.1601 1035.5,-519.1601"/>
<image xlink:href="../../images/foreignKeys.png" width="11px" height="12px" preserveAspectRatio="xMinYMin meet" x="1040.5" y="-536.16"/>
<text text-anchor="start" x="1068.5" y="-526.2601" font-family="Helvetica,sans-Serif" font-size="11.00" fill="#000000">OFFENDER_ID</text>
<polygon fill="none" stroke="#000000" points="1035.5,-497.1601 1035.5,-519.1601 1259.5,-519.1601 1259.5,-497.1601 1035.5,-497.1601"/>
<image xlink:href="../../images/foreignKeys.png" width="11px" height="12px" preserveAspectRatio="xMinYMin meet" x="1040.5" y="-514.16"/>
<text text-anchor="start" x="1068.5" y="-504.2601" font-family="Helvetica,sans-Serif" font-size="11.00" fill="#000000">SENDER_IDENTITY_ID</text>
<polygon fill="none" stroke="#000000" points="1035.5,-475.1601 1035.5,-497.1601 1259.5,-497.1601 1259.5,-475.1601 1035.5,-475.1601"/>
<image xlink:href="../../images/foreignKeys.png" width="11px" height="12px" preserveAspectRatio="xMinYMin meet" x="1040.5" y="-492.16"/>
<text text-anchor="start" x="1068.5" y="-482.2601" font-family="Helvetica,sans-Serif" font-size="11.00" fill="#000000">RECEIVER_IDENTITY_ID</text>
<polygon fill="none" stroke="#000000" points="1035.5,-453.1601 1035.5,-475.1601 1259.5,-475.1601 1259.5,-453.1601 1035.5,-453.1601"/>
<image xlink:href="../../images/foreignKeys.png" width="11px" height="12px" preserveAspectRatio="xMinYMin meet" x="1040.5" y="-470.16"/>
<text text-anchor="start" x="1068.5" y="-460.2601" font-family="Helvetica,sans-Serif" font-size="11.00" fill="#000000">SPG_MESSAGE_CONTEXT_ID</text>
<polygon fill="none" stroke="#000000" points="1035.5,-431.1601 1035.5,-453.1601 1259.5,-453.1601 1259.5,-431.1601 1035.5,-431.1601"/>
<image xlink:href="../../images/foreignKeys.png" width="11px" height="12px" preserveAspectRatio="xMinYMin meet" x="1040.5" y="-448.16"/>
<text text-anchor="start" x="1066.9972" y="-438.2601" font-family="Helvetica,sans-Serif" font-size="11.00" fill="#000000">SPG_INTERCHANGE_STATUS_ID</text>
<polygon fill="none" stroke="#000000" points="1035.5,-409.1601 1035.5,-431.1601 1259.5,-431.1601 1259.5,-409.1601 1035.5,-409.1601"/>
<image xlink:href="../../images/foreignKeys.png" width="11px" height="12px" preserveAspectRatio="xMinYMin meet" x="1040.5" y="-426.16"/>
<text text-anchor="start" x="1068.5" y="-416.2601" font-family="Helvetica,sans-Serif" font-size="11.00" fill="#000000">DATA_SCRIPT_MESSAGE_ID</text>
<polygon fill="none" stroke="#000000" points="1035.5,-390.1601 1035.5,-409.1601 1259.5,-409.1601 1259.5,-390.1601 1035.5,-390.1601"/>
<text text-anchor="start" x="1038.5" y="-396.2601" font-family="Helvetica,sans-Serif" font-size="11.00" fill="#000000">...</text>
<polygon fill="#ffffff" stroke="transparent" points="1035.5,-371.1601 1035.5,-390.1601 1132.5,-390.1601 1132.5,-371.1601 1035.5,-371.1601"/>
<polygon fill="none" stroke="#000000" points="1035.5,-371.1601 1035.5,-390.1601 1132.5,-390.1601 1132.5,-371.1601 1035.5,-371.1601"/>
<text text-anchor="start" x="1038.5" y="-377.2601" font-family="Helvetica,sans-Serif" font-size="11.00" fill="#000000">&lt; 7</text>
<polygon fill="#ffffff" stroke="transparent" points="1132.5,-371.1601 1132.5,-390.1601 1208.5,-390.1601 1208.5,-371.1601 1132.5,-371.1601"/>
<polygon fill="none" stroke="#000000" points="1132.5,-371.1601 1132.5,-390.1601 1208.5,-390.1601 1208.5,-371.1601 1132.5,-371.1601"/>
<text text-anchor="start" x="1173.1105" y="-377.2601" font-family="Helvetica,sans-Serif" font-size="11.00" fill="#000000">0 rows</text>
<polygon fill="#ffffff" stroke="transparent" points="1208.5,-371.1601 1208.5,-390.1601 1259.5,-390.1601 1259.5,-371.1601 1208.5,-371.1601"/>
<polygon fill="none" stroke="#000000" points="1208.5,-371.1601 1208.5,-390.1601 1259.5,-390.1601 1259.5,-371.1601 1208.5,-371.1601"/>
<text text-anchor="start" x="1250.3862" y="-377.2601" font-family="Helvetica,sans-Serif" font-size="11.00" fill="#000000"> &#160;</text>
</a>
</g>
</g>
<!-- RSINGH_DBA.SPG_NOTIFICATION&#45;&gt;OFFENDER -->
<g id="edge40" class="edge">
<title>RSINGH_DBA.SPG_NOTIFICATION:w&#45;&gt;OFFENDER:e</title>
<path fill="none" stroke="#000000" d="M1021.0344,-527.5801C996.0518,-517.1556 1001.8985,-477.9524 969,-462.1601 916.0548,-436.7448 501.1962,-418.0554 443,-410.1601 424.8989,-407.7044 420.7669,-403.1601 402.5,-403.1601"/>
<polygon fill="#000000" stroke="#000000" points="1027.6243,-528.7554 1034.8679,-533.7042 1031.5621,-529.4577 1035.5,-530.1601 1035.5,-530.1601 1035.5,-530.1601 1031.5621,-529.4577 1036.1321,-526.616 1027.6243,-528.7554 1027.6243,-528.7554"/>
<ellipse fill="none" stroke="#000000" cx="1024.474" cy="-528.1935" rx="3.2" ry="3.2"/>
</g>
<!-- RSINGH_DBA.SPG_NOTIFICATION&#45;&gt;DATA_SCRIPT_MESSAGE -->
<g id="edge39" class="edge">
<title>RSINGH_DBA.SPG_NOTIFICATION:w&#45;&gt;DATA_SCRIPT_MESSAGE:e</title>
<path fill="none" stroke="#000000" d="M1021.1793,-418.2209C998.0237,-411.4343 991.3997,-389.1601 961,-389.1601"/>
<polygon fill="#000000" stroke="#000000" points="1027.5724,-419.0866 1035.0169,-423.7276 1031.5362,-419.6233 1035.5,-420.1601 1035.5,-420.1601 1035.5,-420.1601 1031.5362,-419.6233 1035.9831,-416.5927 1027.5724,-419.0866 1027.5724,-419.0866"/>
<ellipse fill="none" stroke="#000000" cx="1024.4013" cy="-418.6572" rx="3.2" ry="3.2"/>
</g>
<!-- RSINGH_DBA.SPG_NOTIFICATION&#45;&gt;BUSINESS_INTERACTION -->
<g id="edge38" class="edge">
<title>RSINGH_DBA.SPG_NOTIFICATION:w&#45;&gt;BUSINESS_INTERACTION:e</title>
<path fill="none" stroke="#000000" d="M1021.4487,-555.9919C1010.3824,-563.9566 1010.9798,-583.0682 1002,-601.1601 981.3798,-642.7043 1006.4584,-672.8109 969,-700.1601 881.2299,-764.2431 833.1748,-703.1601 724.5,-703.1601"/>
<polygon fill="#000000" stroke="#000000" points="1027.7818,-554.2649 1036.4472,-555.6333 1031.6409,-553.2125 1035.5,-552.1601 1035.5,-552.1601 1035.5,-552.1601 1031.6409,-553.2125 1034.5528,-548.6869 1027.7818,-554.2649 1027.7818,-554.2649"/>
<ellipse fill="none" stroke="#000000" cx="1024.6946" cy="-555.1068" rx="3.2" ry="3.2"/>
</g>
<!-- RSINGH_DBA.SPG_NOTIFICATION&#45;&gt;PROBATION_AREA -->
<g id="edge41" class="edge">
<title>RSINGH_DBA.SPG_NOTIFICATION:w&#45;&gt;PROBATION_AREA:e</title>
<path fill="none" stroke="#000000" d="M1020.972,-487.4848C915.8811,-508.3685 1067.4313,-769.1601 940,-769.1601"/>
<polygon fill="#000000" stroke="#000000" points="1027.5331,-486.8866 1035.8269,-489.7452 1031.5165,-486.5234 1035.5,-486.1601 1035.5,-486.1601 1035.5,-486.1601 1031.5165,-486.5234 1035.1731,-482.575 1027.5331,-486.8866 1027.5331,-486.8866"/>
<ellipse fill="none" stroke="#000000" cx="1024.3463" cy="-487.1772" rx="3.2" ry="3.2"/>
</g>
<!-- RSINGH_DBA.SPG_NOTIFICATION&#45;&gt;PROBATION_AREA -->
<g id="edge42" class="edge">
<title>RSINGH_DBA.SPG_NOTIFICATION:w&#45;&gt;PROBATION_AREA:e</title>
<path fill="none" stroke="#000000" d="M1021.0572,-509.5644C924.494,-530.1079 1058.2138,-769.1601 940,-769.1601"/>
<polygon fill="#000000" stroke="#000000" points="1027.5375,-508.9343 1035.8484,-511.7432 1031.5188,-508.5472 1035.5,-508.1601 1035.5,-508.1601 1035.5,-508.1601 1031.5188,-508.5472 1035.1516,-504.577 1027.5375,-508.9343 1027.5375,-508.9343"/>
<ellipse fill="none" stroke="#000000" cx="1024.3526" cy="-509.244" rx="3.2" ry="3.2"/>
</g>
<!-- RSINGH_DBA.SPG_NOTIFICATION&#45;&gt;R_STANDARD_REFERENCE_LIST -->
<g id="edge43" class="edge">
<title>RSINGH_DBA.SPG_NOTIFICATION:w&#45;&gt;R_STANDARD_REFERENCE_LIST:e</title>
<path fill="none" stroke="#000000" d="M1021.3547,-439.269C1001.3315,-428.8816 1012.6759,-392.4093 1002,-361.1601 983.9791,-308.4116 1013.2985,-273.9951 969,-240.1601 907.1895,-192.9495 330.3394,-192.339 269,-240.1601 210.0871,-286.0896 302.7011,-403.1601 228,-403.1601"/>
<polygon fill="#000000" stroke="#000000" points="1027.662,-440.5581 1034.7791,-445.6872 1031.581,-441.3591 1035.5,-442.1601 1035.5,-442.1601 1035.5,-442.1601 1031.581,-441.3591 1036.2209,-438.633 1027.662,-440.5581 1027.662,-440.5581"/>
<ellipse fill="none" stroke="#000000" cx="1024.5269" cy="-439.9173" rx="3.2" ry="3.2"/>
</g>
<!-- RSINGH_DBA.SPG_NOTIFICATION&#45;&gt;R_STANDARD_REFERENCE_LIST -->
<g id="edge44" class="edge">
<title>RSINGH_DBA.SPG_NOTIFICATION:w&#45;&gt;R_STANDARD_REFERENCE_LIST:e</title>
<path fill="none" stroke="#000000" d="M1020.9855,-462.712C953.2987,-447.4549 1040.5201,-315.7496 969,-264.1601 896.1882,-211.6388 856.5825,-258.2415 767,-264.1601 622.0534,-273.7365 584.541,-274.4895 443,-307.1601 363.5719,-325.4938 339.1429,-323.628 269,-365.1601 247.6213,-377.8186 252.8452,-403.1601 228,-403.1601"/>
<polygon fill="#000000" stroke="#000000" points="1027.5395,-463.3658 1035.1426,-467.7423 1031.5198,-463.763 1035.5,-464.1601 1035.5,-464.1601 1035.5,-464.1601 1031.5198,-463.763 1035.8574,-460.5779 1027.5395,-463.3658 1027.5395,-463.3658"/>
<ellipse fill="none" stroke="#000000" cx="1024.3553" cy="-463.0481" rx="3.2" ry="3.2"/>
</g>
<!-- RSINGH_DBA.SPG_NOTIFICATION_INTERIM -->
<g id="node16" class="node">
<title>RSINGH_DBA.SPG_NOTIFICATION_INTERIM</title>
<g id="a_node16"><a xlink:title="RSINGH_DBA.SPG_NOTIFICATION_INTERIM">
<polygon fill="#ffffff" stroke="transparent" points="1010,-135.6601 1010,-350.6601 1285,-350.6601 1285,-135.6601 1010,-135.6601"/>
<polygon fill="#f5f5f5" stroke="transparent" points="1010.5,-327.1601 1010.5,-350.1601 1285.5,-350.1601 1285.5,-327.1601 1010.5,-327.1601"/>
<polygon fill="none" stroke="#000000" points="1010.5,-327.1601 1010.5,-350.1601 1285.5,-350.1601 1285.5,-327.1601 1010.5,-327.1601"/>
<text text-anchor="start" x="1015.0843" y="-336.2601" font-family="Helvetica,sans-Serif" font-weight="bold" font-size="11.00" fill="#000000">RSINGH_DBA.SPG_NOTIFICATION_INTERIM</text>
<text text-anchor="start" x="1251.0219" y="-335.2601" font-family="Helvetica,sans-Serif" font-size="11.00" fill="#000000">[table]</text>
<polygon fill="none" stroke="#000000" points="1010.5,-305.1601 1010.5,-327.1601 1285.5,-327.1601 1285.5,-305.1601 1010.5,-305.1601"/>
<image xlink:href="../../images/foreignKeys.png" width="11px" height="12px" preserveAspectRatio="xMinYMin meet" x="1015.5" y="-322.16"/>
<text text-anchor="start" x="1069.5" y="-312.2601" font-family="Helvetica,sans-Serif" font-size="11.00" fill="#000000">BUSINESS_INTERACTION_ID</text>
<polygon fill="none" stroke="#000000" points="1010.5,-283.1601 1010.5,-305.1601 1285.5,-305.1601 1285.5,-283.1601 1010.5,-283.1601"/>
<image xlink:href="../../images/foreignKeys.png" width="11px" height="12px" preserveAspectRatio="xMinYMin meet" x="1015.5" y="-300.16"/>
<text text-anchor="start" x="1069.5" y="-290.2601" font-family="Helvetica,sans-Serif" font-size="11.00" fill="#000000">OFFENDER_ID</text>
<polygon fill="none" stroke="#000000" points="1010.5,-261.1601 1010.5,-283.1601 1285.5,-283.1601 1285.5,-261.1601 1010.5,-261.1601"/>
<image xlink:href="../../images/foreignKeys.png" width="11px" height="12px" preserveAspectRatio="xMinYMin meet" x="1015.5" y="-278.16"/>
<text text-anchor="start" x="1069.5" y="-268.2601" font-family="Helvetica,sans-Serif" font-size="11.00" fill="#000000">SENDER_IDENTITY_ID</text>
<polygon fill="none" stroke="#000000" points="1010.5,-239.1601 1010.5,-261.1601 1285.5,-261.1601 1285.5,-239.1601 1010.5,-239.1601"/>
<image xlink:href="../../images/foreignKeys.png" width="11px" height="12px" preserveAspectRatio="xMinYMin meet" x="1015.5" y="-256.16"/>
<text text-anchor="start" x="1069.5" y="-246.2601" font-family="Helvetica,sans-Serif" font-size="11.00" fill="#000000">RECEIVER_IDENTITY_ID</text>
<polygon fill="none" stroke="#000000" points="1010.5,-217.1601 1010.5,-239.1601 1285.5,-239.1601 1285.5,-217.1601 1010.5,-217.1601"/>
<image xlink:href="../../images/foreignKeys.png" width="11px" height="12px" preserveAspectRatio="xMinYMin meet" x="1015.5" y="-234.16"/>
<text text-anchor="start" x="1069.5" y="-224.2601" font-family="Helvetica,sans-Serif" font-size="11.00" fill="#000000">SPG_MESSAGE_CONTEXT_ID</text>
<polygon fill="none" stroke="#000000" points="1010.5,-195.1601 1010.5,-217.1601 1285.5,-217.1601 1285.5,-195.1601 1010.5,-195.1601"/>
<image xlink:href="../../images/foreignKeys.png" width="11px" height="12px" preserveAspectRatio="xMinYMin meet" x="1015.5" y="-212.16"/>
<text text-anchor="start" x="1067.9972" y="-202.2601" font-family="Helvetica,sans-Serif" font-size="11.00" fill="#000000">SPG_INTERCHANGE_STATUS_ID</text>
<polygon fill="none" stroke="#000000" points="1010.5,-173.1601 1010.5,-195.1601 1285.5,-195.1601 1285.5,-173.1601 1010.5,-173.1601"/>
<image xlink:href="../../images/foreignKeys.png" width="11px" height="12px" preserveAspectRatio="xMinYMin meet" x="1015.5" y="-190.16"/>
<text text-anchor="start" x="1069.5" y="-180.2601" font-family="Helvetica,sans-Serif" font-size="11.00" fill="#000000">DATA_SCRIPT_MESSAGE_ID</text>
<polygon fill="none" stroke="#000000" points="1010.5,-154.1601 1010.5,-173.1601 1285.5,-173.1601 1285.5,-154.1601 1010.5,-154.1601"/>
<text text-anchor="start" x="1013.5" y="-160.2601" font-family="Helvetica,sans-Serif" font-size="11.00" fill="#000000">...</text>
<polygon fill="#ffffff" stroke="transparent" points="1010.5,-135.1601 1010.5,-154.1601 1133.5,-154.1601 1133.5,-135.1601 1010.5,-135.1601"/>
<polygon fill="none" stroke="#000000" points="1010.5,-135.1601 1010.5,-154.1601 1133.5,-154.1601 1133.5,-135.1601 1010.5,-135.1601"/>
<text text-anchor="start" x="1013.5" y="-141.2601" font-family="Helvetica,sans-Serif" font-size="11.00" fill="#000000">&lt; 7</text>
<polygon fill="#ffffff" stroke="transparent" points="1133.5,-135.1601 1133.5,-154.1601 1222.5,-154.1601 1222.5,-135.1601 1133.5,-135.1601"/>
<polygon fill="none" stroke="#000000" points="1133.5,-135.1601 1133.5,-154.1601 1222.5,-154.1601 1222.5,-135.1601 1133.5,-135.1601"/>
<text text-anchor="start" x="1187.1105" y="-141.2601" font-family="Helvetica,sans-Serif" font-size="11.00" fill="#000000">0 rows</text>
<polygon fill="#ffffff" stroke="transparent" points="1222.5,-135.1601 1222.5,-154.1601 1285.5,-154.1601 1285.5,-135.1601 1222.5,-135.1601"/>
<polygon fill="none" stroke="#000000" points="1222.5,-135.1601 1222.5,-154.1601 1285.5,-154.1601 1285.5,-135.1601 1222.5,-135.1601"/>
<text text-anchor="start" x="1276.3862" y="-141.2601" font-family="Helvetica,sans-Serif" font-size="11.00" fill="#000000"> &#160;</text>
</a>
</g>
</g>
<!-- RSINGH_DBA.SPG_NOTIFICATION_INTERIM&#45;&gt;OFFENDER -->
<g id="edge47" class="edge">
<title>RSINGH_DBA.SPG_NOTIFICATION_INTERIM:w&#45;&gt;OFFENDER:e</title>
<path fill="none" stroke="#000000" d="M996.5616,-289.7996C987.497,-282.7811 984.7327,-269.2512 969,-264.1601 745.8358,-191.9449 629.4774,-164.8806 443,-307.1601 406.1842,-335.25 448.8081,-403.1601 402.5,-403.1601"/>
<polygon fill="#000000" stroke="#000000" points="1002.8649,-291.7715 1009.4251,-297.5959 1006.6825,-292.9658 1010.5,-294.1601 1010.5,-294.1601 1010.5,-294.1601 1006.6825,-292.9658 1011.5749,-290.7243 1002.8649,-291.7715 1002.8649,-291.7715"/>
<ellipse fill="none" stroke="#000000" cx="999.8109" cy="-290.816" rx="3.2" ry="3.2"/>
</g>
<!-- RSINGH_DBA.SPG_NOTIFICATION_INTERIM&#45;&gt;DATA_SCRIPT_MESSAGE -->
<g id="edge46" class="edge">
<title>RSINGH_DBA.SPG_NOTIFICATION_INTERIM:w&#45;&gt;DATA_SCRIPT_MESSAGE:e</title>
<path fill="none" stroke="#000000" d="M995.9201,-186.3237C932.6271,-208.2328 1049.0545,-389.1601 961,-389.1601"/>
<polygon fill="#000000" stroke="#000000" points="1002.5867,-185.3344 1011.0284,-187.7211 1006.5433,-184.7473 1010.5,-184.1601 1010.5,-184.1601 1010.5,-184.1601 1006.5433,-184.7473 1009.9716,-180.5991 1002.5867,-185.3344 1002.5867,-185.3344"/>
<ellipse fill="none" stroke="#000000" cx="999.4213" cy="-185.8042" rx="3.2" ry="3.2"/>
</g>
<!-- RSINGH_DBA.SPG_NOTIFICATION_INTERIM&#45;&gt;BUSINESS_INTERACTION -->
<g id="edge45" class="edge">
<title>RSINGH_DBA.SPG_NOTIFICATION_INTERIM:w&#45;&gt;BUSINESS_INTERACTION:e</title>
<path fill="none" stroke="#000000" d="M996.3522,-320.2312C942.3566,-356.4233 1021.9018,-622.9611 969,-676.1601 959.3639,-685.8504 738.1659,-703.1601 724.5,-703.1601"/>
<polygon fill="#000000" stroke="#000000" points="1002.812,-318.3724 1011.4955,-319.6197 1006.656,-317.2663 1010.5,-316.1601 1010.5,-316.1601 1010.5,-316.1601 1006.656,-317.2663 1009.5045,-312.7005 1002.812,-318.3724 1002.812,-318.3724"/>
<ellipse fill="none" stroke="#000000" cx="999.7367" cy="-319.2573" rx="3.2" ry="3.2"/>
</g>
<!-- RSINGH_DBA.SPG_NOTIFICATION_INTERIM&#45;&gt;PROBATION_AREA -->
<g id="edge48" class="edge">
<title>RSINGH_DBA.SPG_NOTIFICATION_INTERIM:w&#45;&gt;PROBATION_AREA:e</title>
<path fill="none" stroke="#000000" d="M998.8374,-258.9478C963.7041,-317.9752 980.1052,-655.7279 969,-700.1601 960.934,-732.4325 973.2651,-769.1601 940,-769.1601"/>
<polygon fill="#000000" stroke="#000000" points="1004.1107,-254.9744 1012.6664,-253.0353 1007.3054,-252.5673 1010.5,-250.1601 1010.5,-250.1601 1010.5,-250.1601 1007.3054,-252.5673 1008.3336,-247.2849 1004.1107,-254.9744 1004.1107,-254.9744"/>
<ellipse fill="none" stroke="#000000" cx="1001.555" cy="-256.9001" rx="3.2" ry="3.2"/>
</g>
<!-- RSINGH_DBA.SPG_NOTIFICATION_INTERIM&#45;&gt;PROBATION_AREA -->
<g id="edge49" class="edge">
<title>RSINGH_DBA.SPG_NOTIFICATION_INTERIM:w&#45;&gt;PROBATION_AREA:e</title>
<path fill="none" stroke="#000000" d="M998.9306,-281.2542C965.7711,-339.4073 979.6206,-658.0872 969,-700.1601 960.8582,-732.4135 973.2651,-769.1601 940,-769.1601"/>
<polygon fill="#000000" stroke="#000000" points="1004.2105,-277.104 1012.7247,-274.9904 1007.3552,-274.6321 1010.5,-272.1601 1010.5,-272.1601 1010.5,-272.1601 1007.3552,-274.6321 1008.2753,-269.3298 1004.2105,-277.104 1004.2105,-277.104"/>
<ellipse fill="none" stroke="#000000" cx="1001.6946" cy="-279.0816" rx="3.2" ry="3.2"/>
</g>
<!-- RSINGH_DBA.SPG_NOTIFICATION_INTERIM&#45;&gt;R_STANDARD_REFERENCE_LIST -->
<g id="edge50" class="edge">
<title>RSINGH_DBA.SPG_NOTIFICATION_INTERIM:w&#45;&gt;R_STANDARD_REFERENCE_LIST:e</title>
<path fill="none" stroke="#000000" d="M996.7697,-201.3803C986.0581,-191.2913 988.6469,-168.022 969,-159.1601 685.4034,-31.2419 506.5176,41.7765 269,-159.1601 227.0237,-194.6715 282.9824,-403.1601 228,-403.1601"/>
<polygon fill="#000000" stroke="#000000" points="1002.9447,-203.5299 1009.3164,-209.56 1006.7224,-204.845 1010.5,-206.1601 1010.5,-206.1601 1010.5,-206.1601 1006.7224,-204.845 1011.6836,-202.7602 1002.9447,-203.5299 1002.9447,-203.5299"/>
<ellipse fill="none" stroke="#000000" cx="999.9226" cy="-202.4779" rx="3.2" ry="3.2"/>
</g>
<!-- RSINGH_DBA.SPG_NOTIFICATION_INTERIM&#45;&gt;R_STANDARD_REFERENCE_LIST -->
<g id="edge51" class="edge">
<title>RSINGH_DBA.SPG_NOTIFICATION_INTERIM:w&#45;&gt;R_STANDARD_REFERENCE_LIST:e</title>
<path fill="none" stroke="#000000" d="M996.3835,-224.8135C987.7028,-220.0573 982.9928,-211.5444 969,-208.1601 741.7591,-153.1989 676.7313,-196.7898 443,-202.1601 365.6054,-203.9384 328.0249,-160.0687 269,-210.1601 202.1395,-266.9012 315.6919,-403.1601 228,-403.1601"/>
<polygon fill="#000000" stroke="#000000" points="1002.7158,-226.3146 1009.6695,-231.663 1006.6079,-227.2374 1010.5,-228.1601 1010.5,-228.1601 1010.5,-228.1601 1006.6079,-227.2374 1011.3305,-224.6572 1002.7158,-226.3146 1002.7158,-226.3146"/>
<ellipse fill="none" stroke="#000000" cx="999.6021" cy="-225.5764" rx="3.2" ry="3.2"/>
</g>
</g>
</svg>
