<?xml version="1.0" encoding="UTF-8" standalone="no"?>
<!DOCTYPE svg PUBLIC "-//W3C//DTD SVG 1.1//EN"
 "http://www.w3.org/Graphics/SVG/1.1/DTD/svg11.dtd">
<!-- Generated by graphviz version 2.40.1 (20161225.0304)
 -->
<!-- Title: oneDegreeRelationshipsDiagram Pages: 1 -->
<svg width="858pt" height="930pt"
 viewBox="0.00 0.00 858.00 930.20" xmlns="http://www.w3.org/2000/svg" xmlns:xlink="http://www.w3.org/1999/xlink">
<g id="graph0" class="graph" transform="scale(1 1) rotate(0) translate(4 926.2)">
<title>oneDegreeRelationshipsDiagram</title>
<polygon fill="#ffffff" stroke="transparent" points="-4,4 -4,-926.2 854,-926.2 854,4 -4,4"/>
<text text-anchor="middle" x="72.4936" y="-7.3" font-family="Helvetica,sans-Serif" font-size="11.00" fill="#000000">Generated by SchemaSpy</text>
<!-- DATA_SCRIPT_MESSAGE -->
<g id="node1" class="node">
<title>DATA_SCRIPT_MESSAGE</title>
<g id="a_node1"><a xlink:href="../../tables/DATA_SCRIPT_MESSAGE.html" xlink:title="DATA_SCRIPT_MESSAGE" target="_top">
<polygon fill="#ffffff" stroke="transparent" points="332,-234.2 332,-383.2 518,-383.2 518,-234.2 332,-234.2"/>
<polygon fill="#f5f5f5" stroke="transparent" points="332,-359.7 332,-382.7 518,-382.7 518,-359.7 332,-359.7"/>
<polygon fill="none" stroke="#000000" points="332,-359.7 332,-382.7 518,-382.7 518,-359.7 332,-359.7"/>
<text text-anchor="start" x="337" y="-368.8" font-family="Helvetica,sans-Serif" font-weight="bold" font-size="11.00" fill="#000000">DATA_SCRIPT_MESSAGE</text>
<text text-anchor="start" x="483.0437" y="-367.8" font-family="Helvetica,sans-Serif" font-size="11.00" fill="#000000">[table]</text>
<polygon fill="none" stroke="#000000" points="332,-337.7 332,-359.7 518,-359.7 518,-337.7 332,-337.7"/>
<image xlink:href="../../images/primaryKeys.png" width="11px" height="12px" preserveAspectRatio="xMinYMin meet" x="337" y="-354.7"/>
<text text-anchor="start" x="352" y="-344.8" font-family="Helvetica,sans-Serif" font-size="11.00" fill="#000000">DATA_SCRIPT_MESSAGE_ID</text>
<polygon fill="none" stroke="#000000" points="332,-315.7 332,-337.7 518,-337.7 518,-315.7 332,-315.7"/>
<image xlink:href="../../images/primaryKeys.png" width="11px" height="12px" preserveAspectRatio="xMinYMin meet" x="337" y="-332.7"/>
<text text-anchor="start" x="352" y="-322.8" font-family="Helvetica,sans-Serif" font-size="11.00" fill="#000000">OFFENDER_ID</text>
<polygon fill="none" stroke="#000000" points="332,-293.7 332,-315.7 518,-315.7 518,-293.7 332,-293.7"/>
<image xlink:href="../../images/primaryKeys.png" width="11px" height="12px" preserveAspectRatio="xMinYMin meet" x="337" y="-310.7"/>
<text text-anchor="start" x="352" y="-300.8" font-family="Helvetica,sans-Serif" font-size="11.00" fill="#000000">EVENT_ID</text>
<polygon fill="none" stroke="#000000" points="332,-271.7 332,-293.7 518,-293.7 518,-271.7 332,-271.7"/>
<image xlink:href="../../images/primaryKeys.png" width="11px" height="12px" preserveAspectRatio="xMinYMin meet" x="337" y="-288.7"/>
<text text-anchor="start" x="352" y="-278.8" font-family="Helvetica,sans-Serif" font-size="11.00" fill="#000000">BUSINESS_INTERACTION_ID</text>
<polygon fill="none" stroke="#000000" points="332,-252.7 332,-271.7 518,-271.7 518,-252.7 332,-252.7"/>
<text text-anchor="start" x="335" y="-258.8" font-family="Helvetica,sans-Serif" font-size="11.00" fill="#000000">...</text>
<polygon fill="#ffffff" stroke="transparent" points="332,-233.7 332,-252.7 400,-252.7 400,-233.7 332,-233.7"/>
<polygon fill="none" stroke="#000000" points="332,-233.7 332,-252.7 400,-252.7 400,-233.7 332,-233.7"/>
<text text-anchor="start" x="335" y="-239.8" font-family="Helvetica,sans-Serif" font-size="11.00" fill="#000000">&lt; 3</text>
<polygon fill="#ffffff" stroke="transparent" points="400,-233.7 400,-252.7 473,-252.7 473,-233.7 400,-233.7"/>
<polygon fill="none" stroke="#000000" points="400,-233.7 400,-252.7 473,-252.7 473,-233.7 400,-233.7"/>
<text text-anchor="start" x="425.3807" y="-239.8" font-family="Helvetica,sans-Serif" font-size="11.00" fill="#000000">132 rows</text>
<polygon fill="#ffffff" stroke="transparent" points="473,-233.7 473,-252.7 518,-252.7 518,-233.7 473,-233.7"/>
<polygon fill="none" stroke="#000000" points="473,-233.7 473,-252.7 518,-252.7 518,-233.7 473,-233.7"/>
<text text-anchor="start" x="499.4053" y="-239.8" font-family="Helvetica,sans-Serif" font-size="11.00" fill="#000000">3 &gt;</text>
</a>
</g>
</g>
<!-- BUSINESS_INTERACTION -->
<g id="node2" class="node">
<title>BUSINESS_INTERACTION</title>
<g id="a_node2"><a xlink:href="../../tables/BUSINESS_INTERACTION.html" xlink:title="BUSINESS_INTERACTION" target="_top">
<polygon fill="#ffffff" stroke="transparent" points="8,-310.7 8,-488.7 283,-488.7 283,-310.7 8,-310.7"/>
<polygon fill="#f5f5f5" stroke="transparent" points="10.5,-463.7 10.5,-486.7 281.5,-486.7 281.5,-463.7 10.5,-463.7"/>
<polygon fill="none" stroke="#000000" points="10.5,-463.7 10.5,-486.7 281.5,-486.7 281.5,-463.7 10.5,-463.7"/>
<text text-anchor="start" x="15.5" y="-472.8" font-family="Helvetica,sans-Serif" font-weight="bold" font-size="11.00" fill="#000000">BUSINESS_INTERACTION</text>
<text text-anchor="start" x="246.5437" y="-471.8" font-family="Helvetica,sans-Serif" font-size="11.00" fill="#000000">[table]</text>
<polygon fill="none" stroke="#000000" points="10.5,-441.7 10.5,-463.7 208.5,-463.7 208.5,-441.7 10.5,-441.7"/>
<image xlink:href="../../images/primaryKeys.png" width="11px" height="12px" preserveAspectRatio="xMinYMin meet" x="15.5" y="-458.7"/>
<text text-anchor="start" x="30.5" y="-448.8" font-family="Helvetica,sans-Serif" font-size="11.00" fill="#000000">BUSINESS_INTERACTION_ID</text>
<polygon fill="none" stroke="#000000" points="208.5,-441.7 208.5,-463.7 281.5,-463.7 281.5,-441.7 208.5,-441.7"/>
<text text-anchor="start" x="211.5" y="-449.4" font-family="Helvetica,sans-Serif" font-size="11.00" fill="#000000">number[38]</text>
<polygon fill="none" stroke="#000000" points="10.5,-419.7 10.5,-441.7 208.5,-441.7 208.5,-419.7 10.5,-419.7"/>
<image xlink:href="../../images/primaryKeys.png" width="11px" height="12px" preserveAspectRatio="xMinYMin meet" x="15.5" y="-436.7"/>
<text text-anchor="start" x="29.9158" y="-426.8" font-family="Helvetica,sans-Serif" font-size="11.00" fill="#000000">BUSINESS_INTERACTION_CODE</text>
<polygon fill="none" stroke="#000000" points="208.5,-419.7 208.5,-441.7 281.5,-441.7 281.5,-419.7 208.5,-419.7"/>
<text text-anchor="start" x="211.5" y="-427.4" font-family="Helvetica,sans-Serif" font-size="11.00" fill="#000000">varchar2[20]</text>
<polygon fill="none" stroke="#000000" points="10.5,-397.7 10.5,-419.7 208.5,-419.7 208.5,-397.7 10.5,-397.7"/>
<text text-anchor="start" x="30.5" y="-404.8" font-family="Helvetica,sans-Serif" font-size="11.00" fill="#000000">DESCRIPTION</text>
<polygon fill="none" stroke="#000000" points="208.5,-397.7 208.5,-419.7 281.5,-419.7 281.5,-397.7 208.5,-397.7"/>
<text text-anchor="start" x="211.3791" y="-405.4" font-family="Helvetica,sans-Serif" font-size="11.00" fill="#000000">varchar2[500]</text>
<polygon fill="none" stroke="#000000" points="10.5,-375.7 10.5,-397.7 208.5,-397.7 208.5,-375.7 10.5,-375.7"/>
<text text-anchor="start" x="30.5" y="-382.8" font-family="Helvetica,sans-Serif" font-size="11.00" fill="#000000">ENABLED_DATE</text>
<polygon fill="none" stroke="#000000" points="208.5,-375.7 208.5,-397.7 281.5,-397.7 281.5,-375.7 208.5,-375.7"/>
<text text-anchor="start" x="211.5" y="-383.4" font-family="Helvetica,sans-Serif" font-size="11.00" fill="#000000">date[7]</text>
<polygon fill="none" stroke="#000000" points="10.5,-353.7 10.5,-375.7 208.5,-375.7 208.5,-353.7 10.5,-353.7"/>
<text text-anchor="start" x="22.8934" y="-360.8" font-family="Helvetica,sans-Serif" font-size="11.00" fill="#000000">AUDIT_INTERACTION_PARAMETER</text>
<polygon fill="none" stroke="#000000" points="208.5,-353.7 208.5,-375.7 281.5,-375.7 281.5,-353.7 208.5,-353.7"/>
<text text-anchor="start" x="211.5" y="-361.4" font-family="Helvetica,sans-Serif" font-size="11.00" fill="#000000">date[7]</text>
<polygon fill="none" stroke="#000000" points="10.5,-331.7 10.5,-353.7 208.5,-353.7 208.5,-331.7 10.5,-331.7"/>
<text text-anchor="start" x="30.5" y="-338.8" font-family="Helvetica,sans-Serif" font-size="11.00" fill="#000000">ROW_VERSION</text>
<polygon fill="none" stroke="#000000" points="208.5,-331.7 208.5,-353.7 281.5,-353.7 281.5,-331.7 208.5,-331.7"/>
<text text-anchor="start" x="211.5" y="-339.4" font-family="Helvetica,sans-Serif" font-size="11.00" fill="#000000">number[38]</text>
<polygon fill="#ffffff" stroke="transparent" points="10.5,-312.7 10.5,-331.7 90.5,-331.7 90.5,-312.7 10.5,-312.7"/>
<polygon fill="none" stroke="#000000" points="10.5,-312.7 10.5,-331.7 90.5,-331.7 90.5,-312.7 10.5,-312.7"/>
<text text-anchor="start" x="13.5" y="-318.8" font-family="Helvetica,sans-Serif" font-size="11.00" fill="#000000">&lt; 0</text>
<polygon fill="#ffffff" stroke="transparent" points="90.5,-312.7 90.5,-331.7 208.5,-331.7 208.5,-312.7 90.5,-312.7"/>
<polygon fill="none" stroke="#000000" points="90.5,-312.7 90.5,-331.7 208.5,-331.7 208.5,-312.7 90.5,-312.7"/>
<text text-anchor="start" x="151.7089" y="-318.8" font-family="Helvetica,sans-Serif" font-size="11.00" fill="#000000">1,090 rows</text>
<polygon fill="#ffffff" stroke="transparent" points="208.5,-312.7 208.5,-331.7 281.5,-331.7 281.5,-312.7 208.5,-312.7"/>
<polygon fill="none" stroke="#000000" points="208.5,-312.7 208.5,-331.7 281.5,-331.7 281.5,-312.7 208.5,-312.7"/>
<text text-anchor="start" x="262.9053" y="-318.8" font-family="Helvetica,sans-Serif" font-size="11.00" fill="#000000">5 &gt;</text>
<polygon fill="none" stroke="#000000" stroke-width="2" points="9,-311.7 9,-487.7 282,-487.7 282,-311.7 9,-311.7"/>
</a>
</g>
</g>
<!-- DATA_SCRIPT_MESSAGE&#45;&gt;BUSINESS_INTERACTION -->
<g id="edge1" class="edge">
<title>DATA_SCRIPT_MESSAGE:w&#45;&gt;BUSINESS_INTERACTION:e</title>
<path fill="none" stroke="#000000" d="M317.6854,-285.2351C267.6948,-306.3825 354.6229,-452.7 281.5,-452.7"/>
<polygon fill="#000000" stroke="#000000" points="324.1226,-284.0951 332.6278,-286.2448 328.0613,-283.3976 332,-282.7 332,-282.7 332,-282.7 328.0613,-283.3976 331.3722,-279.1552 324.1226,-284.0951 324.1226,-284.0951"/>
<ellipse fill="none" stroke="#000000" cx="320.9716" cy="-284.6532" rx="3.2" ry="3.2"/>
</g>
<!-- SPG_NOTIFICATION -->
<g id="node3" class="node">
<title>SPG_NOTIFICATION</title>
<g id="a_node3"><a xlink:href="../../tables/SPG_NOTIFICATION.html" xlink:title="SPG_NOTIFICATION" target="_top">
<polygon fill="#ffffff" stroke="transparent" points="605.5,-527.2 605.5,-918.2 803.5,-918.2 803.5,-527.2 605.5,-527.2"/>
<polygon fill="#f5f5f5" stroke="transparent" points="605.5,-894.7 605.5,-917.7 803.5,-917.7 803.5,-894.7 605.5,-894.7"/>
<polygon fill="none" stroke="#000000" points="605.5,-894.7 605.5,-917.7 803.5,-917.7 803.5,-894.7 605.5,-894.7"/>
<text text-anchor="start" x="610.5" y="-903.8" font-family="Helvetica,sans-Serif" font-weight="bold" font-size="11.00" fill="#000000">SPG_NOTIFICATION</text>
<text text-anchor="start" x="768.5437" y="-902.8" font-family="Helvetica,sans-Serif" font-size="11.00" fill="#000000">[table]</text>
<polygon fill="none" stroke="#000000" points="605.5,-872.7 605.5,-894.7 803.5,-894.7 803.5,-872.7 605.5,-872.7"/>
<image xlink:href="../../images/primaryKeys.png" width="11px" height="12px" preserveAspectRatio="xMinYMin meet" x="610.5" y="-889.7"/>
<text text-anchor="start" x="625.5" y="-879.8" font-family="Helvetica,sans-Serif" font-size="11.00" fill="#000000">SPG_NOTIFICATION_ID</text>
<polygon fill="none" stroke="#000000" points="605.5,-850.7 605.5,-872.7 803.5,-872.7 803.5,-850.7 605.5,-850.7"/>
<image xlink:href="../../images/primaryKeys.png" width="11px" height="12px" preserveAspectRatio="xMinYMin meet" x="610.5" y="-867.7"/>
<text text-anchor="start" x="625.5" y="-857.8" font-family="Helvetica,sans-Serif" font-size="11.00" fill="#000000">BUSINESS_INTERACTION_ID</text>
<polygon fill="none" stroke="#000000" points="605.5,-828.7 605.5,-850.7 803.5,-850.7 803.5,-828.7 605.5,-828.7"/>
<image xlink:href="../../images/primaryKeys.png" width="11px" height="12px" preserveAspectRatio="xMinYMin meet" x="610.5" y="-845.7"/>
<text text-anchor="start" x="625.5" y="-835.8" font-family="Helvetica,sans-Serif" font-size="11.00" fill="#000000">OFFENDER_ID</text>
<polygon fill="none" stroke="#000000" points="605.5,-806.7 605.5,-828.7 803.5,-828.7 803.5,-806.7 605.5,-806.7"/>
<image xlink:href="../../images/primaryKeys.png" width="11px" height="12px" preserveAspectRatio="xMinYMin meet" x="610.5" y="-823.7"/>
<text text-anchor="start" x="625.5" y="-813.8" font-family="Helvetica,sans-Serif" font-size="11.00" fill="#000000">DATE_CREATED</text>
<polygon fill="none" stroke="#000000" points="605.5,-784.7 605.5,-806.7 803.5,-806.7 803.5,-784.7 605.5,-784.7"/>
<image xlink:href="../../images/primaryKeys.png" width="11px" height="12px" preserveAspectRatio="xMinYMin meet" x="610.5" y="-801.7"/>
<text text-anchor="start" x="625.5" y="-791.8" font-family="Helvetica,sans-Serif" font-size="11.00" fill="#000000">PROCESSED_FLAG</text>
<polygon fill="none" stroke="#000000" points="605.5,-762.7 605.5,-784.7 803.5,-784.7 803.5,-762.7 605.5,-762.7"/>
<image xlink:href="../../images/primaryKeys.png" width="11px" height="12px" preserveAspectRatio="xMinYMin meet" x="610.5" y="-779.7"/>
<text text-anchor="start" x="625.5" y="-769.8" font-family="Helvetica,sans-Serif" font-size="11.00" fill="#000000">CONTROL_REFERENCE</text>
<polygon fill="none" stroke="#000000" points="605.5,-740.7 605.5,-762.7 803.5,-762.7 803.5,-740.7 605.5,-740.7"/>
<image xlink:href="../../images/primaryKeys.png" width="11px" height="12px" preserveAspectRatio="xMinYMin meet" x="610.5" y="-757.7"/>
<text text-anchor="start" x="625.5" y="-747.8" font-family="Helvetica,sans-Serif" font-size="11.00" fill="#000000">SENDER_IDENTITY_ID</text>
<polygon fill="none" stroke="#000000" points="605.5,-718.7 605.5,-740.7 803.5,-740.7 803.5,-718.7 605.5,-718.7"/>
<image xlink:href="../../images/primaryKeys.png" width="11px" height="12px" preserveAspectRatio="xMinYMin meet" x="610.5" y="-735.7"/>
<text text-anchor="start" x="625.5" y="-725.8" font-family="Helvetica,sans-Serif" font-size="11.00" fill="#000000">RECEIVER_IDENTITY_ID</text>
<polygon fill="none" stroke="#000000" points="605.5,-696.7 605.5,-718.7 803.5,-718.7 803.5,-696.7 605.5,-696.7"/>
<image xlink:href="../../images/primaryKeys.png" width="11px" height="12px" preserveAspectRatio="xMinYMin meet" x="610.5" y="-713.7"/>
<text text-anchor="start" x="616.9743" y="-703.8" font-family="Helvetica,sans-Serif" font-size="11.00" fill="#000000">RECEIVER_CONTROL_REFERENCE</text>
<polygon fill="none" stroke="#000000" points="605.5,-674.7 605.5,-696.7 803.5,-696.7 803.5,-674.7 605.5,-674.7"/>
<image xlink:href="../../images/primaryKeys.png" width="11px" height="12px" preserveAspectRatio="xMinYMin meet" x="610.5" y="-691.7"/>
<text text-anchor="start" x="625.5" y="-681.8" font-family="Helvetica,sans-Serif" font-size="11.00" fill="#000000">MESSAGE_DIRECTION</text>
<polygon fill="none" stroke="#000000" points="605.5,-652.7 605.5,-674.7 803.5,-674.7 803.5,-652.7 605.5,-652.7"/>
<image xlink:href="../../images/primaryKeys.png" width="11px" height="12px" preserveAspectRatio="xMinYMin meet" x="610.5" y="-669.7"/>
<text text-anchor="start" x="625.5" y="-659.8" font-family="Helvetica,sans-Serif" font-size="11.00" fill="#000000">SPG_MESSAGE_CONTEXT_ID</text>
<polygon fill="none" stroke="#000000" points="605.5,-630.7 605.5,-652.7 803.5,-652.7 803.5,-630.7 605.5,-630.7"/>
<image xlink:href="../../images/primaryKeys.png" width="11px" height="12px" preserveAspectRatio="xMinYMin meet" x="610.5" y="-647.7"/>
<text text-anchor="start" x="623.9973" y="-637.8" font-family="Helvetica,sans-Serif" font-size="11.00" fill="#000000">SPG_INTERCHANGE_STATUS_ID</text>
<polygon fill="none" stroke="#000000" points="605.5,-608.7 605.5,-630.7 803.5,-630.7 803.5,-608.7 605.5,-608.7"/>
<image xlink:href="../../images/primaryKeys.png" width="11px" height="12px" preserveAspectRatio="xMinYMin meet" x="610.5" y="-625.7"/>
<text text-anchor="start" x="619.7249" y="-615.8" font-family="Helvetica,sans-Serif" font-size="11.00" fill="#000000">REGENERATED_NOTIFICATION_ID</text>
<polygon fill="none" stroke="#000000" points="605.5,-586.7 605.5,-608.7 803.5,-608.7 803.5,-586.7 605.5,-586.7"/>
<image xlink:href="../../images/primaryKeys.png" width="11px" height="12px" preserveAspectRatio="xMinYMin meet" x="610.5" y="-603.7"/>
<text text-anchor="start" x="625.5" y="-593.8" font-family="Helvetica,sans-Serif" font-size="11.00" fill="#000000">MT_COMPONENT_ID</text>
<polygon fill="none" stroke="#000000" points="605.5,-564.7 605.5,-586.7 803.5,-586.7 803.5,-564.7 605.5,-564.7"/>
<image xlink:href="../../images/primaryKeys.png" width="11px" height="12px" preserveAspectRatio="xMinYMin meet" x="610.5" y="-581.7"/>
<text text-anchor="start" x="625.5" y="-571.8" font-family="Helvetica,sans-Serif" font-size="11.00" fill="#000000">DATA_SCRIPT_MESSAGE_ID</text>
<polygon fill="none" stroke="#000000" points="605.5,-545.7 605.5,-564.7 803.5,-564.7 803.5,-545.7 605.5,-545.7"/>
<text text-anchor="start" x="608.5" y="-551.8" font-family="Helvetica,sans-Serif" font-size="11.00" fill="#000000">...</text>
<polygon fill="#ffffff" stroke="transparent" points="605.5,-526.7 605.5,-545.7 668.5,-545.7 668.5,-526.7 605.5,-526.7"/>
<polygon fill="none" stroke="#000000" points="605.5,-526.7 605.5,-545.7 668.5,-545.7 668.5,-526.7 605.5,-526.7"/>
<text text-anchor="start" x="608.5" y="-532.8" font-family="Helvetica,sans-Serif" font-size="11.00" fill="#000000">&lt; 8</text>
<polygon fill="#ffffff" stroke="transparent" points="668.5,-526.7 668.5,-545.7 761.5,-545.7 761.5,-526.7 668.5,-526.7"/>
<polygon fill="none" stroke="#000000" points="668.5,-526.7 668.5,-545.7 761.5,-545.7 761.5,-526.7 668.5,-526.7"/>
<text text-anchor="start" x="692.4791" y="-532.8" font-family="Helvetica,sans-Serif" font-size="11.00" fill="#000000">428,992 rows</text>
<polygon fill="#ffffff" stroke="transparent" points="761.5,-526.7 761.5,-545.7 803.5,-545.7 803.5,-526.7 761.5,-526.7"/>
<polygon fill="none" stroke="#000000" points="761.5,-526.7 761.5,-545.7 803.5,-545.7 803.5,-526.7 761.5,-526.7"/>
<text text-anchor="start" x="784.9053" y="-532.8" font-family="Helvetica,sans-Serif" font-size="11.00" fill="#000000">5 &gt;</text>
</a>
</g>
</g>
<!-- SPG_NOTIFICATION&#45;&gt;DATA_SCRIPT_MESSAGE -->
<g id="edge3" class="edge">
<title>SPG_NOTIFICATION:w&#45;&gt;DATA_SCRIPT_MESSAGE:e</title>
<path fill="none" stroke="#000000" d="M591.1184,-573.2731C572.1558,-565.7056 571.1113,-541.5551 559,-516.7 525.3331,-447.608 594.8581,-348.7 518,-348.7"/>
<polygon fill="#000000" stroke="#000000" points="597.6115,-574.3688 604.9009,-579.2498 601.5558,-575.0344 605.5,-575.7 605.5,-575.7 605.5,-575.7 601.5558,-575.0344 606.0991,-572.1502 597.6115,-574.3688 597.6115,-574.3688"/>
<ellipse fill="none" stroke="#000000" cx="594.4561" cy="-573.8363" rx="3.2" ry="3.2"/>
</g>
<!-- SPG_NOTIFICATION&#45;&gt;BUSINESS_INTERACTION -->
<g id="edge2" class="edge">
<title>SPG_NOTIFICATION:w&#45;&gt;BUSINESS_INTERACTION:e</title>
<path fill="none" stroke="#000000" d="M590.843,-861.4393C443.0356,-856.0645 406.6477,-768.016 324,-636.7 279.2932,-565.6669 365.4309,-452.7 281.5,-452.7"/>
<polygon fill="#000000" stroke="#000000" points="597.5013,-861.5577 605.4359,-865.2994 601.5006,-861.6288 605.5,-861.7 605.5,-861.7 605.5,-861.7 601.5006,-861.6288 605.5641,-858.1006 597.5013,-861.5577 597.5013,-861.5577"/>
<ellipse fill="none" stroke="#000000" cx="594.3018" cy="-861.5007" rx="3.2" ry="3.2"/>
</g>
<!-- SPG_VERSION_ENTRY -->
<g id="node4" class="node">
<title>SPG_VERSION_ENTRY</title>
<g id="a_node4"><a xlink:href="../../tables/SPG_VERSION_ENTRY.html" xlink:title="SPG_VERSION_ENTRY" target="_top">
<polygon fill="#ffffff" stroke="transparent" points="340.5,-404.2 340.5,-597.2 509.5,-597.2 509.5,-404.2 340.5,-404.2"/>
<polygon fill="#f5f5f5" stroke="transparent" points="341,-573.7 341,-596.7 510,-596.7 510,-573.7 341,-573.7"/>
<polygon fill="none" stroke="#000000" points="341,-573.7 341,-596.7 510,-596.7 510,-573.7 341,-573.7"/>
<text text-anchor="start" x="346" y="-582.8" font-family="Helvetica,sans-Serif" font-weight="bold" font-size="11.00" fill="#000000">SPG_VERSION_ENTRY</text>
<text text-anchor="start" x="475.0437" y="-581.8" font-family="Helvetica,sans-Serif" font-size="11.00" fill="#000000">[table]</text>
<polygon fill="none" stroke="#000000" points="341,-551.7 341,-573.7 510,-573.7 510,-551.7 341,-551.7"/>
<image xlink:href="../../images/primaryKeys.png" width="11px" height="12px" preserveAspectRatio="xMinYMin meet" x="346" y="-568.7"/>
<text text-anchor="start" x="361" y="-558.8" font-family="Helvetica,sans-Serif" font-size="11.00" fill="#000000">SPG_VERSION_ENTRY_ID</text>
<polygon fill="none" stroke="#000000" points="341,-529.7 341,-551.7 510,-551.7 510,-529.7 341,-529.7"/>
<image xlink:href="../../images/primaryKeys.png" width="11px" height="12px" preserveAspectRatio="xMinYMin meet" x="346" y="-546.7"/>
<text text-anchor="start" x="361" y="-536.8" font-family="Helvetica,sans-Serif" font-size="11.00" fill="#000000">TABLE_NAME</text>
<polygon fill="none" stroke="#000000" points="341,-507.7 341,-529.7 510,-529.7 510,-507.7 341,-507.7"/>
<image xlink:href="../../images/primaryKeys.png" width="11px" height="12px" preserveAspectRatio="xMinYMin meet" x="346" y="-524.7"/>
<text text-anchor="start" x="361" y="-514.8" font-family="Helvetica,sans-Serif" font-size="11.00" fill="#000000">PRIMARY_KEY_ID</text>
<polygon fill="none" stroke="#000000" points="341,-485.7 341,-507.7 510,-507.7 510,-485.7 341,-485.7"/>
<image xlink:href="../../images/primaryKeys.png" width="11px" height="12px" preserveAspectRatio="xMinYMin meet" x="346" y="-502.7"/>
<text text-anchor="start" x="361" y="-492.8" font-family="Helvetica,sans-Serif" font-size="11.00" fill="#000000">CURRENT_RECORD_FLAG</text>
<polygon fill="none" stroke="#000000" points="341,-463.7 341,-485.7 510,-485.7 510,-463.7 341,-463.7"/>
<image xlink:href="../../images/primaryKeys.png" width="11px" height="12px" preserveAspectRatio="xMinYMin meet" x="346" y="-480.7"/>
<text text-anchor="start" x="361" y="-470.8" font-family="Helvetica,sans-Serif" font-size="11.00" fill="#000000">OFFENDER_ID</text>
<polygon fill="none" stroke="#000000" points="341,-441.7 341,-463.7 510,-463.7 510,-441.7 341,-441.7"/>
<image xlink:href="../../images/primaryKeys.png" width="11px" height="12px" preserveAspectRatio="xMinYMin meet" x="346" y="-458.7"/>
<text text-anchor="start" x="356.3042" y="-448.8" font-family="Helvetica,sans-Serif" font-size="11.00" fill="#000000">BUSINESS_INTERACTION_ID</text>
<polygon fill="none" stroke="#000000" points="341,-422.7 341,-441.7 510,-441.7 510,-422.7 341,-422.7"/>
<text text-anchor="start" x="344" y="-428.8" font-family="Helvetica,sans-Serif" font-size="11.00" fill="#000000">...</text>
<polygon fill="#ffffff" stroke="transparent" points="341,-403.7 341,-422.7 394,-422.7 394,-403.7 341,-403.7"/>
<polygon fill="none" stroke="#000000" points="341,-403.7 341,-422.7 394,-422.7 394,-403.7 341,-403.7"/>
<text text-anchor="start" x="344" y="-409.8" font-family="Helvetica,sans-Serif" font-size="11.00" fill="#000000">&lt; 2</text>
<polygon fill="#ffffff" stroke="transparent" points="394,-403.7 394,-422.7 482,-422.7 482,-403.7 394,-403.7"/>
<polygon fill="none" stroke="#000000" points="394,-403.7 394,-422.7 482,-422.7 482,-403.7 394,-403.7"/>
<text text-anchor="start" x="412.9791" y="-409.8" font-family="Helvetica,sans-Serif" font-size="11.00" fill="#000000">441,439 rows</text>
<polygon fill="#ffffff" stroke="transparent" points="482,-403.7 482,-422.7 510,-422.7 510,-403.7 482,-403.7"/>
<polygon fill="none" stroke="#000000" points="482,-403.7 482,-422.7 510,-422.7 510,-403.7 482,-403.7"/>
<text text-anchor="start" x="500.8862" y="-409.8" font-family="Helvetica,sans-Serif" font-size="11.00" fill="#000000"> &#160;</text>
</a>
</g>
</g>
<!-- SPG_VERSION_ENTRY&#45;&gt;BUSINESS_INTERACTION -->
<g id="edge4" class="edge">
<title>SPG_VERSION_ENTRY:w&#45;&gt;BUSINESS_INTERACTION:e</title>
<path fill="none" stroke="#000000" d="M326.5408,-452.7C310.884,-452.7 302.3663,-452.7 281.5,-452.7"/>
<polygon fill="#000000" stroke="#000000" points="333,-452.7001 341,-456.3 337,-452.7 341,-452.7 341,-452.7 341,-452.7 337,-452.7 341,-449.1 333,-452.7001 333,-452.7001"/>
<ellipse fill="none" stroke="#000000" cx="329.8" cy="-452.7001" rx="3.2" ry="3.2"/>
</g>
<!-- RSINGH_DBA.SPG_NOTIFICATION -->
<g id="node5" class="node">
<title>RSINGH_DBA.SPG_NOTIFICATION</title>
<g id="a_node5"><a xlink:title="RSINGH_DBA.SPG_NOTIFICATION">
<polygon fill="#ffffff" stroke="transparent" points="592.5,-291.2 592.5,-506.2 816.5,-506.2 816.5,-291.2 592.5,-291.2"/>
<polygon fill="#f5f5f5" stroke="transparent" points="592.5,-482.7 592.5,-505.7 816.5,-505.7 816.5,-482.7 592.5,-482.7"/>
<polygon fill="none" stroke="#000000" points="592.5,-482.7 592.5,-505.7 816.5,-505.7 816.5,-482.7 592.5,-482.7"/>
<text text-anchor="start" x="597.2484" y="-491.8" font-family="Helvetica,sans-Serif" font-weight="bold" font-size="11.00" fill="#000000">RSINGH_DBA.SPG_NOTIFICATION</text>
<text text-anchor="start" x="782.0219" y="-490.8" font-family="Helvetica,sans-Serif" font-size="11.00" fill="#000000">[table]</text>
<polygon fill="none" stroke="#000000" points="592.5,-460.7 592.5,-482.7 816.5,-482.7 816.5,-460.7 592.5,-460.7"/>
<image xlink:href="../../images/foreignKeys.png" width="11px" height="12px" preserveAspectRatio="xMinYMin meet" x="597.5" y="-477.7"/>
<text text-anchor="start" x="625.5" y="-467.8" font-family="Helvetica,sans-Serif" font-size="11.00" fill="#000000">BUSINESS_INTERACTION_ID</text>
<polygon fill="none" stroke="#000000" points="592.5,-438.7 592.5,-460.7 816.5,-460.7 816.5,-438.7 592.5,-438.7"/>
<image xlink:href="../../images/foreignKeys.png" width="11px" height="12px" preserveAspectRatio="xMinYMin meet" x="597.5" y="-455.7"/>
<text text-anchor="start" x="625.5" y="-445.8" font-family="Helvetica,sans-Serif" font-size="11.00" fill="#000000">OFFENDER_ID</text>
<polygon fill="none" stroke="#000000" points="592.5,-416.7 592.5,-438.7 816.5,-438.7 816.5,-416.7 592.5,-416.7"/>
<image xlink:href="../../images/foreignKeys.png" width="11px" height="12px" preserveAspectRatio="xMinYMin meet" x="597.5" y="-433.7"/>
<text text-anchor="start" x="625.5" y="-423.8" font-family="Helvetica,sans-Serif" font-size="11.00" fill="#000000">SENDER_IDENTITY_ID</text>
<polygon fill="none" stroke="#000000" points="592.5,-394.7 592.5,-416.7 816.5,-416.7 816.5,-394.7 592.5,-394.7"/>
<image xlink:href="../../images/foreignKeys.png" width="11px" height="12px" preserveAspectRatio="xMinYMin meet" x="597.5" y="-411.7"/>
<text text-anchor="start" x="625.5" y="-401.8" font-family="Helvetica,sans-Serif" font-size="11.00" fill="#000000">RECEIVER_IDENTITY_ID</text>
<polygon fill="none" stroke="#000000" points="592.5,-372.7 592.5,-394.7 816.5,-394.7 816.5,-372.7 592.5,-372.7"/>
<image xlink:href="../../images/foreignKeys.png" width="11px" height="12px" preserveAspectRatio="xMinYMin meet" x="597.5" y="-389.7"/>
<text text-anchor="start" x="625.5" y="-379.8" font-family="Helvetica,sans-Serif" font-size="11.00" fill="#000000">SPG_MESSAGE_CONTEXT_ID</text>
<polygon fill="none" stroke="#000000" points="592.5,-350.7 592.5,-372.7 816.5,-372.7 816.5,-350.7 592.5,-350.7"/>
<image xlink:href="../../images/foreignKeys.png" width="11px" height="12px" preserveAspectRatio="xMinYMin meet" x="597.5" y="-367.7"/>
<text text-anchor="start" x="623.9973" y="-357.8" font-family="Helvetica,sans-Serif" font-size="11.00" fill="#000000">SPG_INTERCHANGE_STATUS_ID</text>
<polygon fill="none" stroke="#000000" points="592.5,-328.7 592.5,-350.7 816.5,-350.7 816.5,-328.7 592.5,-328.7"/>
<image xlink:href="../../images/foreignKeys.png" width="11px" height="12px" preserveAspectRatio="xMinYMin meet" x="597.5" y="-345.7"/>
<text text-anchor="start" x="625.5" y="-335.8" font-family="Helvetica,sans-Serif" font-size="11.00" fill="#000000">DATA_SCRIPT_MESSAGE_ID</text>
<polygon fill="none" stroke="#000000" points="592.5,-309.7 592.5,-328.7 816.5,-328.7 816.5,-309.7 592.5,-309.7"/>
<text text-anchor="start" x="595.5" y="-315.8" font-family="Helvetica,sans-Serif" font-size="11.00" fill="#000000">...</text>
<polygon fill="#ffffff" stroke="transparent" points="592.5,-290.7 592.5,-309.7 689.5,-309.7 689.5,-290.7 592.5,-290.7"/>
<polygon fill="none" stroke="#000000" points="592.5,-290.7 592.5,-309.7 689.5,-309.7 689.5,-290.7 592.5,-290.7"/>
<text text-anchor="start" x="595.5" y="-296.8" font-family="Helvetica,sans-Serif" font-size="11.00" fill="#000000">&lt; 7</text>
<polygon fill="#ffffff" stroke="transparent" points="689.5,-290.7 689.5,-309.7 765.5,-309.7 765.5,-290.7 689.5,-290.7"/>
<polygon fill="none" stroke="#000000" points="689.5,-290.7 689.5,-309.7 765.5,-309.7 765.5,-290.7 689.5,-290.7"/>
<text text-anchor="start" x="730.1105" y="-296.8" font-family="Helvetica,sans-Serif" font-size="11.00" fill="#000000">0 rows</text>
<polygon fill="#ffffff" stroke="transparent" points="765.5,-290.7 765.5,-309.7 816.5,-309.7 816.5,-290.7 765.5,-290.7"/>
<polygon fill="none" stroke="#000000" points="765.5,-290.7 765.5,-309.7 816.5,-309.7 816.5,-290.7 765.5,-290.7"/>
<text text-anchor="start" x="807.3862" y="-296.8" font-family="Helvetica,sans-Serif" font-size="11.00" fill="#000000"> &#160;</text>
</a>
</g>
</g>
<!-- RSINGH_DBA.SPG_NOTIFICATION&#45;&gt;DATA_SCRIPT_MESSAGE -->
<g id="edge6" class="edge">
<title>RSINGH_DBA.SPG_NOTIFICATION:w&#45;&gt;DATA_SCRIPT_MESSAGE:e</title>
<path fill="none" stroke="#000000" d="M577.9225,-340.3473C555.9021,-342.4109 545.8801,-348.7 518,-348.7"/>
<polygon fill="#000000" stroke="#000000" points="584.5079,-340.0549 592.6597,-343.2965 588.5039,-339.8775 592.5,-339.7 592.5,-339.7 592.5,-339.7 588.5039,-339.8775 592.3403,-336.1035 584.5079,-340.0549 584.5079,-340.0549"/>
<ellipse fill="none" stroke="#000000" cx="581.311" cy="-340.1969" rx="3.2" ry="3.2"/>
</g>
<!-- RSINGH_DBA.SPG_NOTIFICATION&#45;&gt;BUSINESS_INTERACTION -->
<g id="edge5" class="edge">
<title>RSINGH_DBA.SPG_NOTIFICATION:w&#45;&gt;BUSINESS_INTERACTION:e</title>
<path fill="none" stroke="#000000" d="M578.409,-475.644C568.2513,-483.1549 567.8652,-500.2348 559,-516.7 538.6045,-554.5799 561.2268,-583.003 526,-607.7 452.4887,-659.2377 395.3842,-662.1459 324,-607.7 267.2033,-564.3802 352.9316,-452.7 281.5,-452.7"/>
<polygon fill="#000000" stroke="#000000" points="584.7961,-473.8564 593.4704,-475.1668 588.648,-472.7782 592.5,-471.7 592.5,-471.7 592.5,-471.7 588.648,-472.7782 591.5296,-468.2332 584.7961,-473.8564 584.7961,-473.8564"/>
<ellipse fill="none" stroke="#000000" cx="581.7145" cy="-474.7189" rx="3.2" ry="3.2"/>
</g>
<!-- RSINGH_DBA.SPG_NOTIFICATION_INTERIM -->
<g id="node6" class="node">
<title>RSINGH_DBA.SPG_NOTIFICATION_INTERIM</title>
<g id="a_node6"><a xlink:title="RSINGH_DBA.SPG_NOTIFICATION_INTERIM">
<polygon fill="#ffffff" stroke="transparent" points="567,-38.2 567,-253.2 842,-253.2 842,-38.2 567,-38.2"/>
<polygon fill="#f5f5f5" stroke="transparent" points="567.5,-229.7 567.5,-252.7 842.5,-252.7 842.5,-229.7 567.5,-229.7"/>
<polygon fill="none" stroke="#000000" points="567.5,-229.7 567.5,-252.7 842.5,-252.7 842.5,-229.7 567.5,-229.7"/>
<text text-anchor="start" x="572.0843" y="-238.8" font-family="Helvetica,sans-Serif" font-weight="bold" font-size="11.00" fill="#000000">RSINGH_DBA.SPG_NOTIFICATION_INTERIM</text>
<text text-anchor="start" x="808.0219" y="-237.8" font-family="Helvetica,sans-Serif" font-size="11.00" fill="#000000">[table]</text>
<polygon fill="none" stroke="#000000" points="567.5,-207.7 567.5,-229.7 842.5,-229.7 842.5,-207.7 567.5,-207.7"/>
<image xlink:href="../../images/foreignKeys.png" width="11px" height="12px" preserveAspectRatio="xMinYMin meet" x="572.5" y="-224.7"/>
<text text-anchor="start" x="626.5" y="-214.8" font-family="Helvetica,sans-Serif" font-size="11.00" fill="#000000">BUSINESS_INTERACTION_ID</text>
<polygon fill="none" stroke="#000000" points="567.5,-185.7 567.5,-207.7 842.5,-207.7 842.5,-185.7 567.5,-185.7"/>
<image xlink:href="../../images/foreignKeys.png" width="11px" height="12px" preserveAspectRatio="xMinYMin meet" x="572.5" y="-202.7"/>
<text text-anchor="start" x="626.5" y="-192.8" font-family="Helvetica,sans-Serif" font-size="11.00" fill="#000000">OFFENDER_ID</text>
<polygon fill="none" stroke="#000000" points="567.5,-163.7 567.5,-185.7 842.5,-185.7 842.5,-163.7 567.5,-163.7"/>
<image xlink:href="../../images/foreignKeys.png" width="11px" height="12px" preserveAspectRatio="xMinYMin meet" x="572.5" y="-180.7"/>
<text text-anchor="start" x="626.5" y="-170.8" font-family="Helvetica,sans-Serif" font-size="11.00" fill="#000000">SENDER_IDENTITY_ID</text>
<polygon fill="none" stroke="#000000" points="567.5,-141.7 567.5,-163.7 842.5,-163.7 842.5,-141.7 567.5,-141.7"/>
<image xlink:href="../../images/foreignKeys.png" width="11px" height="12px" preserveAspectRatio="xMinYMin meet" x="572.5" y="-158.7"/>
<text text-anchor="start" x="626.5" y="-148.8" font-family="Helvetica,sans-Serif" font-size="11.00" fill="#000000">RECEIVER_IDENTITY_ID</text>
<polygon fill="none" stroke="#000000" points="567.5,-119.7 567.5,-141.7 842.5,-141.7 842.5,-119.7 567.5,-119.7"/>
<image xlink:href="../../images/foreignKeys.png" width="11px" height="12px" preserveAspectRatio="xMinYMin meet" x="572.5" y="-136.7"/>
<text text-anchor="start" x="626.5" y="-126.8" font-family="Helvetica,sans-Serif" font-size="11.00" fill="#000000">SPG_MESSAGE_CONTEXT_ID</text>
<polygon fill="none" stroke="#000000" points="567.5,-97.7 567.5,-119.7 842.5,-119.7 842.5,-97.7 567.5,-97.7"/>
<image xlink:href="../../images/foreignKeys.png" width="11px" height="12px" preserveAspectRatio="xMinYMin meet" x="572.5" y="-114.7"/>
<text text-anchor="start" x="624.9973" y="-104.8" font-family="Helvetica,sans-Serif" font-size="11.00" fill="#000000">SPG_INTERCHANGE_STATUS_ID</text>
<polygon fill="none" stroke="#000000" points="567.5,-75.7 567.5,-97.7 842.5,-97.7 842.5,-75.7 567.5,-75.7"/>
<image xlink:href="../../images/foreignKeys.png" width="11px" height="12px" preserveAspectRatio="xMinYMin meet" x="572.5" y="-92.7"/>
<text text-anchor="start" x="626.5" y="-82.8" font-family="Helvetica,sans-Serif" font-size="11.00" fill="#000000">DATA_SCRIPT_MESSAGE_ID</text>
<polygon fill="none" stroke="#000000" points="567.5,-56.7 567.5,-75.7 842.5,-75.7 842.5,-56.7 567.5,-56.7"/>
<text text-anchor="start" x="570.5" y="-62.8" font-family="Helvetica,sans-Serif" font-size="11.00" fill="#000000">...</text>
<polygon fill="#ffffff" stroke="transparent" points="567.5,-37.7 567.5,-56.7 690.5,-56.7 690.5,-37.7 567.5,-37.7"/>
<polygon fill="none" stroke="#000000" points="567.5,-37.7 567.5,-56.7 690.5,-56.7 690.5,-37.7 567.5,-37.7"/>
<text text-anchor="start" x="570.5" y="-43.8" font-family="Helvetica,sans-Serif" font-size="11.00" fill="#000000">&lt; 7</text>
<polygon fill="#ffffff" stroke="transparent" points="690.5,-37.7 690.5,-56.7 779.5,-56.7 779.5,-37.7 690.5,-37.7"/>
<polygon fill="none" stroke="#000000" points="690.5,-37.7 690.5,-56.7 779.5,-56.7 779.5,-37.7 690.5,-37.7"/>
<text text-anchor="start" x="744.1105" y="-43.8" font-family="Helvetica,sans-Serif" font-size="11.00" fill="#000000">0 rows</text>
<polygon fill="#ffffff" stroke="transparent" points="779.5,-37.7 779.5,-56.7 842.5,-56.7 842.5,-37.7 779.5,-37.7"/>
<polygon fill="none" stroke="#000000" points="779.5,-37.7 779.5,-56.7 842.5,-56.7 842.5,-37.7 779.5,-37.7"/>
<text text-anchor="start" x="833.3862" y="-43.8" font-family="Helvetica,sans-Serif" font-size="11.00" fill="#000000"> &#160;</text>
</a>
</g>
</g>
<!-- RSINGH_DBA.SPG_NOTIFICATION_INTERIM&#45;&gt;DATA_SCRIPT_MESSAGE -->
<g id="edge8" class="edge">
<title>RSINGH_DBA.SPG_NOTIFICATION_INTERIM:w&#45;&gt;DATA_SCRIPT_MESSAGE:e</title>
<path fill="none" stroke="#000000" d="M554.0057,-93.1764C520.0588,-133.5223 571.6973,-348.7 518,-348.7"/>
<polygon fill="#000000" stroke="#000000" points="560.2876,-90.1615 569.0577,-89.9456 563.8938,-88.4308 567.5,-86.7 567.5,-86.7 567.5,-86.7 563.8938,-88.4308 565.9423,-83.4544 560.2876,-90.1615 560.2876,-90.1615"/>
<ellipse fill="none" stroke="#000000" cx="557.4027" cy="-91.5461" rx="3.2" ry="3.2"/>
</g>
<!-- RSINGH_DBA.SPG_NOTIFICATION_INTERIM&#45;&gt;BUSINESS_INTERACTION -->
<g id="edge7" class="edge">
<title>RSINGH_DBA.SPG_NOTIFICATION_INTERIM:w&#45;&gt;BUSINESS_INTERACTION:e</title>
<path fill="none" stroke="#000000" d="M552.9377,-218.3082C454.351,-213.0126 402.7295,-156.8587 324,-223.7 245.0883,-290.6959 385.0157,-452.7 281.5,-452.7"/>
<polygon fill="#000000" stroke="#000000" points="559.5029,-218.4848 567.4032,-222.2987 563.5014,-218.5924 567.5,-218.7 567.5,-218.7 567.5,-218.7 563.5014,-218.5924 567.5968,-215.1013 559.5029,-218.4848 559.5029,-218.4848"/>
<ellipse fill="none" stroke="#000000" cx="556.3041" cy="-218.3987" rx="3.2" ry="3.2"/>
</g>
</g>
</svg>
