<?xml version="1.0" encoding="UTF-8" standalone="no"?>
<!DOCTYPE svg PUBLIC "-//W3C//DTD SVG 1.1//EN"
 "http://www.w3.org/Graphics/SVG/1.1/DTD/svg11.dtd">
<!-- Generated by graphviz version 2.40.1 (20161225.0304)
 -->
<!-- Title: twoDegreesRelationshipsDiagram Pages: 1 -->
<svg width="1564pt" height="1186pt"
 viewBox="0.00 0.00 1564.00 1185.97" xmlns="http://www.w3.org/2000/svg" xmlns:xlink="http://www.w3.org/1999/xlink">
<g id="graph0" class="graph" transform="scale(1 1) rotate(0) translate(4 1181.9673)">
<title>twoDegreesRelationshipsDiagram</title>
<polygon fill="#ffffff" stroke="transparent" points="-4,4 -4,-1181.9673 1560,-1181.9673 1560,4 -4,4"/>
<text text-anchor="middle" x="72.4936" y="-7.3" font-family="Helvetica,sans-Serif" font-size="11.00" fill="#000000">Generated by SchemaSpy</text>
<!-- CONTACT_ALERT_CLEAR -->
<g id="node1" class="node">
<title>CONTACT_ALERT_CLEAR</title>
<g id="a_node1"><a xlink:href="../../tables/CONTACT_ALERT_CLEAR.html" xlink:title="CONTACT_ALERT_CLEAR" target="_top">
<polygon fill="#ffffff" stroke="transparent" points="1351,-1100.2413 1351,-1161.2413 1531,-1161.2413 1531,-1100.2413 1351,-1100.2413"/>
<polygon fill="#f5f5f5" stroke="transparent" points="1351,-1137.7413 1351,-1160.7413 1531,-1160.7413 1531,-1137.7413 1351,-1137.7413"/>
<polygon fill="none" stroke="#000000" points="1351,-1137.7413 1351,-1160.7413 1531,-1160.7413 1531,-1137.7413 1351,-1137.7413"/>
<text text-anchor="start" x="1355.7495" y="-1146.8413" font-family="Helvetica,sans-Serif" font-weight="bold" font-size="11.00" fill="#000000">CONTACT_ALERT_CLEAR</text>
<text text-anchor="start" x="1496.5219" y="-1145.8413" font-family="Helvetica,sans-Serif" font-size="11.00" fill="#000000">[table]</text>
<polygon fill="none" stroke="#000000" points="1351,-1118.7413 1351,-1137.7413 1531,-1137.7413 1531,-1118.7413 1351,-1118.7413"/>
<text text-anchor="start" x="1354" y="-1124.8413" font-family="Helvetica,sans-Serif" font-size="11.00" fill="#000000">...</text>
<polygon fill="#ffffff" stroke="transparent" points="1351,-1099.7413 1351,-1118.7413 1413,-1118.7413 1413,-1099.7413 1351,-1099.7413"/>
<polygon fill="none" stroke="#000000" points="1351,-1099.7413 1351,-1118.7413 1413,-1118.7413 1413,-1099.7413 1351,-1099.7413"/>
<text text-anchor="start" x="1354" y="-1105.8413" font-family="Helvetica,sans-Serif" font-size="11.00" fill="#000000">&lt; 6</text>
<polygon fill="#ffffff" stroke="transparent" points="1413,-1099.7413 1413,-1118.7413 1498,-1118.7413 1498,-1099.7413 1413,-1099.7413"/>
<polygon fill="none" stroke="#000000" points="1413,-1099.7413 1413,-1118.7413 1498,-1118.7413 1498,-1099.7413 1413,-1099.7413"/>
<text text-anchor="start" x="1435.094" y="-1105.8413" font-family="Helvetica,sans-Serif" font-size="11.00" fill="#000000">52,166 rows</text>
<polygon fill="#ffffff" stroke="transparent" points="1498,-1099.7413 1498,-1118.7413 1531,-1118.7413 1531,-1099.7413 1498,-1099.7413"/>
<polygon fill="none" stroke="#000000" points="1498,-1099.7413 1498,-1118.7413 1531,-1118.7413 1531,-1099.7413 1498,-1099.7413"/>
<text text-anchor="start" x="1521.8862" y="-1105.8413" font-family="Helvetica,sans-Serif" font-size="11.00" fill="#000000"> &#160;</text>
</a>
</g>
</g>
<!-- OFFENDER -->
<g id="node2" class="node">
<title>OFFENDER</title>
<g id="a_node2"><a xlink:href="../../tables/OFFENDER.html" xlink:title="OFFENDER" target="_top">
<polygon fill="#ffffff" stroke="transparent" points="277,-391.2413 277,-452.2413 402,-452.2413 402,-391.2413 277,-391.2413"/>
<polygon fill="#f5f5f5" stroke="transparent" points="277.5,-428.7413 277.5,-451.7413 402.5,-451.7413 402.5,-428.7413 277.5,-428.7413"/>
<polygon fill="none" stroke="#000000" points="277.5,-428.7413 277.5,-451.7413 402.5,-451.7413 402.5,-428.7413 277.5,-428.7413"/>
<text text-anchor="start" x="282.5" y="-437.8413" font-family="Helvetica,sans-Serif" font-weight="bold" font-size="11.00" fill="#000000">OFFENDER</text>
<text text-anchor="start" x="367.5437" y="-436.8413" font-family="Helvetica,sans-Serif" font-size="11.00" fill="#000000">[table]</text>
<polygon fill="none" stroke="#000000" points="277.5,-409.7413 277.5,-428.7413 402.5,-428.7413 402.5,-409.7413 277.5,-409.7413"/>
<text text-anchor="start" x="280.5" y="-415.8413" font-family="Helvetica,sans-Serif" font-size="11.00" fill="#000000">...</text>
<polygon fill="#ffffff" stroke="transparent" points="277.5,-390.7413 277.5,-409.7413 304.5,-409.7413 304.5,-390.7413 277.5,-390.7413"/>
<polygon fill="none" stroke="#000000" points="277.5,-390.7413 277.5,-409.7413 304.5,-409.7413 304.5,-390.7413 277.5,-390.7413"/>
<text text-anchor="start" x="280.1452" y="-396.8413" font-family="Helvetica,sans-Serif" font-size="11.00" fill="#000000">&lt; 16</text>
<polygon fill="#ffffff" stroke="transparent" points="304.5,-390.7413 304.5,-409.7413 369.5,-409.7413 369.5,-390.7413 304.5,-390.7413"/>
<polygon fill="none" stroke="#000000" points="304.5,-390.7413 304.5,-409.7413 369.5,-409.7413 369.5,-390.7413 304.5,-390.7413"/>
<text text-anchor="start" x="307.047" y="-396.8413" font-family="Helvetica,sans-Serif" font-size="11.00" fill="#000000">18,527 rows</text>
<polygon fill="#ffffff" stroke="transparent" points="369.5,-390.7413 369.5,-409.7413 402.5,-409.7413 402.5,-390.7413 369.5,-390.7413"/>
<polygon fill="none" stroke="#000000" points="369.5,-390.7413 369.5,-409.7413 402.5,-409.7413 402.5,-390.7413 369.5,-390.7413"/>
<text text-anchor="start" x="372.0878" y="-396.8413" font-family="Helvetica,sans-Serif" font-size="11.00" fill="#000000">103 &gt;</text>
</a>
</g>
</g>
<!-- CONTACT_ALERT_CLEAR&#45;&gt;OFFENDER -->
<g id="edge1" class="edge">
<title>CONTACT_ALERT_CLEAR:w&#45;&gt;OFFENDER:e</title>
<path fill="none" stroke="#000000" d="M1336.4188,-1127.8168C936.9241,-1131.9418 696.5374,-1302.4743 443,-988.7413 403.0919,-939.358 465.993,-418.7413 402.5,-418.7413"/>
<polygon fill="#000000" stroke="#000000" points="1343.0001,-1127.7827 1351.0187,-1131.3412 1347.0001,-1127.762 1351,-1127.7413 1351,-1127.7413 1351,-1127.7413 1347.0001,-1127.762 1350.9813,-1124.1413 1343.0001,-1127.7827 1343.0001,-1127.7827"/>
<ellipse fill="none" stroke="#000000" cx="1339.8002" cy="-1127.7993" rx="3.2" ry="3.2"/>
</g>
<!-- SPG_NOTIFICATION -->
<g id="node3" class="node">
<title>SPG_NOTIFICATION</title>
<g id="a_node3"><a xlink:href="../../tables/SPG_NOTIFICATION.html" xlink:title="SPG_NOTIFICATION" target="_top">
<polygon fill="#ffffff" stroke="transparent" points="1048.5,-686.2413 1048.5,-1077.2413 1246.5,-1077.2413 1246.5,-686.2413 1048.5,-686.2413"/>
<polygon fill="#f5f5f5" stroke="transparent" points="1048.5,-1053.7413 1048.5,-1076.7413 1246.5,-1076.7413 1246.5,-1053.7413 1048.5,-1053.7413"/>
<polygon fill="none" stroke="#000000" points="1048.5,-1053.7413 1048.5,-1076.7413 1246.5,-1076.7413 1246.5,-1053.7413 1048.5,-1053.7413"/>
<text text-anchor="start" x="1053.5" y="-1062.8413" font-family="Helvetica,sans-Serif" font-weight="bold" font-size="11.00" fill="#000000">SPG_NOTIFICATION</text>
<text text-anchor="start" x="1211.5437" y="-1061.8413" font-family="Helvetica,sans-Serif" font-size="11.00" fill="#000000">[table]</text>
<polygon fill="none" stroke="#000000" points="1048.5,-1031.7413 1048.5,-1053.7413 1246.5,-1053.7413 1246.5,-1031.7413 1048.5,-1031.7413"/>
<image xlink:href="../../images/primaryKeys.png" width="11px" height="12px" preserveAspectRatio="xMinYMin meet" x="1053.5" y="-1048.74"/>
<text text-anchor="start" x="1068.5" y="-1038.8413" font-family="Helvetica,sans-Serif" font-size="11.00" fill="#000000">SPG_NOTIFICATION_ID</text>
<polygon fill="none" stroke="#000000" points="1048.5,-1009.7413 1048.5,-1031.7413 1246.5,-1031.7413 1246.5,-1009.7413 1048.5,-1009.7413"/>
<image xlink:href="../../images/primaryKeys.png" width="11px" height="12px" preserveAspectRatio="xMinYMin meet" x="1053.5" y="-1026.74"/>
<text text-anchor="start" x="1068.5" y="-1016.8413" font-family="Helvetica,sans-Serif" font-size="11.00" fill="#000000">BUSINESS_INTERACTION_ID</text>
<polygon fill="none" stroke="#000000" points="1048.5,-987.7413 1048.5,-1009.7413 1246.5,-1009.7413 1246.5,-987.7413 1048.5,-987.7413"/>
<image xlink:href="../../images/primaryKeys.png" width="11px" height="12px" preserveAspectRatio="xMinYMin meet" x="1053.5" y="-1004.74"/>
<text text-anchor="start" x="1068.5" y="-994.8413" font-family="Helvetica,sans-Serif" font-size="11.00" fill="#000000">OFFENDER_ID</text>
<polygon fill="none" stroke="#000000" points="1048.5,-965.7413 1048.5,-987.7413 1246.5,-987.7413 1246.5,-965.7413 1048.5,-965.7413"/>
<image xlink:href="../../images/primaryKeys.png" width="11px" height="12px" preserveAspectRatio="xMinYMin meet" x="1053.5" y="-982.741"/>
<text text-anchor="start" x="1068.5" y="-972.8413" font-family="Helvetica,sans-Serif" font-size="11.00" fill="#000000">DATE_CREATED</text>
<polygon fill="none" stroke="#000000" points="1048.5,-943.7413 1048.5,-965.7413 1246.5,-965.7413 1246.5,-943.7413 1048.5,-943.7413"/>
<image xlink:href="../../images/primaryKeys.png" width="11px" height="12px" preserveAspectRatio="xMinYMin meet" x="1053.5" y="-960.741"/>
<text text-anchor="start" x="1068.5" y="-950.8413" font-family="Helvetica,sans-Serif" font-size="11.00" fill="#000000">PROCESSED_FLAG</text>
<polygon fill="none" stroke="#000000" points="1048.5,-921.7413 1048.5,-943.7413 1246.5,-943.7413 1246.5,-921.7413 1048.5,-921.7413"/>
<image xlink:href="../../images/primaryKeys.png" width="11px" height="12px" preserveAspectRatio="xMinYMin meet" x="1053.5" y="-938.741"/>
<text text-anchor="start" x="1068.5" y="-928.8413" font-family="Helvetica,sans-Serif" font-size="11.00" fill="#000000">CONTROL_REFERENCE</text>
<polygon fill="none" stroke="#000000" points="1048.5,-899.7413 1048.5,-921.7413 1246.5,-921.7413 1246.5,-899.7413 1048.5,-899.7413"/>
<image xlink:href="../../images/primaryKeys.png" width="11px" height="12px" preserveAspectRatio="xMinYMin meet" x="1053.5" y="-916.741"/>
<text text-anchor="start" x="1068.5" y="-906.8413" font-family="Helvetica,sans-Serif" font-size="11.00" fill="#000000">SENDER_IDENTITY_ID</text>
<polygon fill="none" stroke="#000000" points="1048.5,-877.7413 1048.5,-899.7413 1246.5,-899.7413 1246.5,-877.7413 1048.5,-877.7413"/>
<image xlink:href="../../images/primaryKeys.png" width="11px" height="12px" preserveAspectRatio="xMinYMin meet" x="1053.5" y="-894.741"/>
<text text-anchor="start" x="1068.5" y="-884.8413" font-family="Helvetica,sans-Serif" font-size="11.00" fill="#000000">RECEIVER_IDENTITY_ID</text>
<polygon fill="none" stroke="#000000" points="1048.5,-855.7413 1048.5,-877.7413 1246.5,-877.7413 1246.5,-855.7413 1048.5,-855.7413"/>
<image xlink:href="../../images/primaryKeys.png" width="11px" height="12px" preserveAspectRatio="xMinYMin meet" x="1053.5" y="-872.741"/>
<text text-anchor="start" x="1059.9743" y="-862.8413" font-family="Helvetica,sans-Serif" font-size="11.00" fill="#000000">RECEIVER_CONTROL_REFERENCE</text>
<polygon fill="none" stroke="#000000" points="1048.5,-833.7413 1048.5,-855.7413 1246.5,-855.7413 1246.5,-833.7413 1048.5,-833.7413"/>
<image xlink:href="../../images/primaryKeys.png" width="11px" height="12px" preserveAspectRatio="xMinYMin meet" x="1053.5" y="-850.741"/>
<text text-anchor="start" x="1068.5" y="-840.8413" font-family="Helvetica,sans-Serif" font-size="11.00" fill="#000000">MESSAGE_DIRECTION</text>
<polygon fill="none" stroke="#000000" points="1048.5,-811.7413 1048.5,-833.7413 1246.5,-833.7413 1246.5,-811.7413 1048.5,-811.7413"/>
<image xlink:href="../../images/primaryKeys.png" width="11px" height="12px" preserveAspectRatio="xMinYMin meet" x="1053.5" y="-828.741"/>
<text text-anchor="start" x="1068.5" y="-818.8413" font-family="Helvetica,sans-Serif" font-size="11.00" fill="#000000">SPG_MESSAGE_CONTEXT_ID</text>
<polygon fill="none" stroke="#000000" points="1048.5,-789.7413 1048.5,-811.7413 1246.5,-811.7413 1246.5,-789.7413 1048.5,-789.7413"/>
<image xlink:href="../../images/primaryKeys.png" width="11px" height="12px" preserveAspectRatio="xMinYMin meet" x="1053.5" y="-806.741"/>
<text text-anchor="start" x="1066.9972" y="-796.8413" font-family="Helvetica,sans-Serif" font-size="11.00" fill="#000000">SPG_INTERCHANGE_STATUS_ID</text>
<polygon fill="none" stroke="#000000" points="1048.5,-767.7413 1048.5,-789.7413 1246.5,-789.7413 1246.5,-767.7413 1048.5,-767.7413"/>
<image xlink:href="../../images/primaryKeys.png" width="11px" height="12px" preserveAspectRatio="xMinYMin meet" x="1053.5" y="-784.741"/>
<text text-anchor="start" x="1062.7249" y="-774.8413" font-family="Helvetica,sans-Serif" font-size="11.00" fill="#000000">REGENERATED_NOTIFICATION_ID</text>
<polygon fill="none" stroke="#000000" points="1048.5,-745.7413 1048.5,-767.7413 1246.5,-767.7413 1246.5,-745.7413 1048.5,-745.7413"/>
<image xlink:href="../../images/primaryKeys.png" width="11px" height="12px" preserveAspectRatio="xMinYMin meet" x="1053.5" y="-762.741"/>
<text text-anchor="start" x="1068.5" y="-752.8413" font-family="Helvetica,sans-Serif" font-size="11.00" fill="#000000">MT_COMPONENT_ID</text>
<polygon fill="none" stroke="#000000" points="1048.5,-723.7413 1048.5,-745.7413 1246.5,-745.7413 1246.5,-723.7413 1048.5,-723.7413"/>
<image xlink:href="../../images/primaryKeys.png" width="11px" height="12px" preserveAspectRatio="xMinYMin meet" x="1053.5" y="-740.741"/>
<text text-anchor="start" x="1068.5" y="-730.8413" font-family="Helvetica,sans-Serif" font-size="11.00" fill="#000000">DATA_SCRIPT_MESSAGE_ID</text>
<polygon fill="none" stroke="#000000" points="1048.5,-704.7413 1048.5,-723.7413 1246.5,-723.7413 1246.5,-704.7413 1048.5,-704.7413"/>
<text text-anchor="start" x="1051.5" y="-710.8413" font-family="Helvetica,sans-Serif" font-size="11.00" fill="#000000">...</text>
<polygon fill="#ffffff" stroke="transparent" points="1048.5,-685.7413 1048.5,-704.7413 1111.5,-704.7413 1111.5,-685.7413 1048.5,-685.7413"/>
<polygon fill="none" stroke="#000000" points="1048.5,-685.7413 1048.5,-704.7413 1111.5,-704.7413 1111.5,-685.7413 1048.5,-685.7413"/>
<text text-anchor="start" x="1051.5" y="-691.8413" font-family="Helvetica,sans-Serif" font-size="11.00" fill="#000000">&lt; 8</text>
<polygon fill="#ffffff" stroke="transparent" points="1111.5,-685.7413 1111.5,-704.7413 1204.5,-704.7413 1204.5,-685.7413 1111.5,-685.7413"/>
<polygon fill="none" stroke="#000000" points="1111.5,-685.7413 1111.5,-704.7413 1204.5,-704.7413 1204.5,-685.7413 1111.5,-685.7413"/>
<text text-anchor="start" x="1135.4791" y="-691.8413" font-family="Helvetica,sans-Serif" font-size="11.00" fill="#000000">428,992 rows</text>
<polygon fill="#ffffff" stroke="transparent" points="1204.5,-685.7413 1204.5,-704.7413 1246.5,-704.7413 1246.5,-685.7413 1204.5,-685.7413"/>
<polygon fill="none" stroke="#000000" points="1204.5,-685.7413 1204.5,-704.7413 1246.5,-704.7413 1246.5,-685.7413 1204.5,-685.7413"/>
<text text-anchor="start" x="1227.9053" y="-691.8413" font-family="Helvetica,sans-Serif" font-size="11.00" fill="#000000">5 &gt;</text>
</a>
</g>
</g>
<!-- CONTACT_ALERT_CLEAR&#45;&gt;SPG_NOTIFICATION -->
<g id="edge2" class="edge">
<title>CONTACT_ALERT_CLEAR:w&#45;&gt;SPG_NOTIFICATION:e</title>
<path fill="none" stroke="#000000" d="M1336.5733,-1125.8062C1293.2631,-1113.1539 1300.9898,-1042.7413 1246.5,-1042.7413"/>
<polygon fill="#000000" stroke="#000000" points="1343.071,-1126.6777 1350.5214,-1131.3093 1347.0355,-1127.2095 1351,-1127.7413 1351,-1127.7413 1351,-1127.7413 1347.0355,-1127.2095 1351.4786,-1124.1732 1343.071,-1126.6777 1343.071,-1126.6777"/>
<ellipse fill="none" stroke="#000000" cx="1339.8994" cy="-1126.2523" rx="3.2" ry="3.2"/>
</g>
<!-- R_STANDARD_REFERENCE_LIST -->
<g id="node7" class="node">
<title>R_STANDARD_REFERENCE_LIST</title>
<g id="a_node7"><a xlink:href="../../tables/R_STANDARD_REFERENCE_LIST.html" xlink:title="R_STANDARD_REFERENCE_LIST" target="_top">
<polygon fill="#ffffff" stroke="transparent" points="8,-391.2413 8,-452.2413 228,-452.2413 228,-391.2413 8,-391.2413"/>
<polygon fill="#f5f5f5" stroke="transparent" points="8,-428.7413 8,-451.7413 228,-451.7413 228,-428.7413 8,-428.7413"/>
<polygon fill="none" stroke="#000000" points="8,-428.7413 8,-451.7413 228,-451.7413 228,-428.7413 8,-428.7413"/>
<text text-anchor="start" x="12.5842" y="-437.8413" font-family="Helvetica,sans-Serif" font-weight="bold" font-size="11.00" fill="#000000">R_STANDARD_REFERENCE_LIST</text>
<text text-anchor="start" x="193.5219" y="-436.8413" font-family="Helvetica,sans-Serif" font-size="11.00" fill="#000000">[table]</text>
<polygon fill="none" stroke="#000000" points="8,-409.7413 8,-428.7413 228,-428.7413 228,-409.7413 8,-409.7413"/>
<text text-anchor="start" x="11" y="-415.8413" font-family="Helvetica,sans-Serif" font-size="11.00" fill="#000000">...</text>
<polygon fill="#ffffff" stroke="transparent" points="8,-390.7413 8,-409.7413 79,-409.7413 79,-390.7413 8,-390.7413"/>
<polygon fill="none" stroke="#000000" points="8,-390.7413 8,-409.7413 79,-409.7413 79,-390.7413 8,-390.7413"/>
<text text-anchor="start" x="11" y="-396.8413" font-family="Helvetica,sans-Serif" font-size="11.00" fill="#000000">&lt; 1</text>
<polygon fill="#ffffff" stroke="transparent" points="79,-390.7413 79,-409.7413 169,-409.7413 169,-390.7413 79,-390.7413"/>
<polygon fill="none" stroke="#000000" points="79,-390.7413 79,-409.7413 169,-409.7413 169,-390.7413 79,-390.7413"/>
<text text-anchor="start" x="106.094" y="-396.8413" font-family="Helvetica,sans-Serif" font-size="11.00" fill="#000000">15,391 rows</text>
<polygon fill="#ffffff" stroke="transparent" points="169,-390.7413 169,-409.7413 228,-409.7413 228,-390.7413 169,-390.7413"/>
<polygon fill="none" stroke="#000000" points="169,-390.7413 169,-409.7413 228,-409.7413 228,-390.7413 169,-390.7413"/>
<text text-anchor="start" x="197.1755" y="-396.8413" font-family="Helvetica,sans-Serif" font-size="11.00" fill="#000000">310 &gt;</text>
</a>
</g>
</g>
<!-- OFFENDER&#45;&gt;R_STANDARD_REFERENCE_LIST -->
<g id="edge7" class="edge">
<title>OFFENDER:w&#45;&gt;R_STANDARD_REFERENCE_LIST:e</title>
<path fill="none" stroke="#000000" d="M273.4429,-404.6313C254.7225,-341.0653 248.582,-345.7686 228,-418.7413"/>
<polygon fill="#000000" stroke="#000000" points="275.2892,-411.0528 274.0402,-419.7361 276.3946,-414.897 277.5,-418.7413 277.5,-418.7413 277.5,-418.7413 276.3946,-414.897 280.9598,-417.7464 275.2892,-411.0528 275.2892,-411.0528"/>
<ellipse fill="none" stroke="#000000" cx="274.4049" cy="-407.9774" rx="3.2" ry="3.2"/>
</g>
<!-- OFFENDER&#45;&gt;R_STANDARD_REFERENCE_LIST -->
<g id="edge8" class="edge">
<title>OFFENDER:w&#45;&gt;R_STANDARD_REFERENCE_LIST:e</title>
<path fill="none" stroke="#000000" d="M272.7453,-405.0192C254.5664,-354.1184 248.3242,-358.6924 228,-418.7413"/>
<polygon fill="#000000" stroke="#000000" points="274.8807,-411.1822 274.0984,-419.9199 276.1904,-414.9617 277.5,-418.7413 277.5,-418.7413 277.5,-418.7413 276.1904,-414.9617 280.9016,-417.5626 274.8807,-411.1822 274.8807,-411.1822"/>
<ellipse fill="none" stroke="#000000" cx="273.833" cy="-408.1585" rx="3.2" ry="3.2"/>
</g>
<!-- OFFENDER&#45;&gt;R_STANDARD_REFERENCE_LIST -->
<g id="edge9" class="edge">
<title>OFFENDER:w&#45;&gt;R_STANDARD_REFERENCE_LIST:e</title>
<path fill="none" stroke="#000000" d="M271.7204,-405.4874C254.3237,-367.1983 247.9375,-371.6163 228,-418.7413"/>
<polygon fill="#000000" stroke="#000000" points="274.3022,-411.4082 274.2001,-420.1803 275.9011,-415.0747 277.5,-418.7413 277.5,-418.7413 277.5,-418.7413 275.9011,-415.0747 280.7999,-417.3023 274.3022,-411.4082 274.3022,-411.4082"/>
<ellipse fill="none" stroke="#000000" cx="273.0231" cy="-408.4749" rx="3.2" ry="3.2"/>
</g>
<!-- OFFENDER&#45;&gt;R_STANDARD_REFERENCE_LIST -->
<g id="edge10" class="edge">
<title>OFFENDER:w&#45;&gt;R_STANDARD_REFERENCE_LIST:e</title>
<path fill="none" stroke="#000000" d="M270.1751,-406.2889C253.926,-380.3131 247.3359,-384.4639 228,-418.7413"/>
<polygon fill="#000000" stroke="#000000" points="273.4438,-411.8458 274.397,-420.5666 275.4719,-415.2935 277.5,-418.7413 277.5,-418.7413 277.5,-418.7413 275.4719,-415.2935 280.603,-416.916 273.4438,-411.8458 273.4438,-411.8458"/>
<ellipse fill="none" stroke="#000000" cx="271.8213" cy="-409.0876" rx="3.2" ry="3.2"/>
</g>
<!-- OFFENDER&#45;&gt;R_STANDARD_REFERENCE_LIST -->
<g id="edge11" class="edge">
<title>OFFENDER:w&#45;&gt;R_STANDARD_REFERENCE_LIST:e</title>
<path fill="none" stroke="#000000" d="M267.8585,-408.0439C253.2512,-393.4411 246.3906,-397.0069 228,-418.7413"/>
<polygon fill="#000000" stroke="#000000" points="272.144,-412.7987 274.8259,-421.1515 274.822,-415.77 277.5,-418.7413 277.5,-418.7413 277.5,-418.7413 274.822,-415.77 280.1741,-416.3311 272.144,-412.7987 272.144,-412.7987"/>
<ellipse fill="none" stroke="#000000" cx="270.0016" cy="-410.4217" rx="3.2" ry="3.2"/>
</g>
<!-- OFFENDER&#45;&gt;R_STANDARD_REFERENCE_LIST -->
<g id="edge12" class="edge">
<title>OFFENDER:w&#45;&gt;R_STANDARD_REFERENCE_LIST:e</title>
<path fill="none" stroke="#000000" d="M264.704,-411.9072C252.1609,-406.4086 245.0156,-408.6866 228,-418.7413"/>
<polygon fill="#000000" stroke="#000000" points="270.4433,-414.9725 275.804,-421.9168 273.9717,-416.8569 277.5,-418.7413 277.5,-418.7413 277.5,-418.7413 273.9717,-416.8569 279.196,-415.5658 270.4433,-414.9725 270.4433,-414.9725"/>
<ellipse fill="none" stroke="#000000" cx="267.6207" cy="-413.4649" rx="3.2" ry="3.2"/>
</g>
<!-- OFFENDER&#45;&gt;R_STANDARD_REFERENCE_LIST -->
<g id="edge13" class="edge">
<title>OFFENDER:w&#45;&gt;R_STANDARD_REFERENCE_LIST:e</title>
<path fill="none" stroke="#000000" d="M262.8428,-418.7413C251.4139,-418.7413 244.1563,-418.7413 228,-418.7413"/>
<polygon fill="#000000" stroke="#000000" points="269.5,-418.7413 277.5,-422.3413 273.5,-418.7413 277.5,-418.7413 277.5,-418.7413 277.5,-418.7413 273.5,-418.7413 277.5,-415.1413 269.5,-418.7413 269.5,-418.7413"/>
<ellipse fill="none" stroke="#000000" cx="266.3" cy="-418.7413" rx="3.2" ry="3.2"/>
</g>
<!-- OFFENDER&#45;&gt;R_STANDARD_REFERENCE_LIST -->
<g id="edge14" class="edge">
<title>OFFENDER:w&#45;&gt;R_STANDARD_REFERENCE_LIST:e</title>
<path fill="none" stroke="#000000" d="M264.704,-425.5753C252.1609,-431.074 245.0156,-428.7959 228,-418.7413"/>
<polygon fill="#000000" stroke="#000000" points="270.4433,-422.5101 279.196,-421.9168 273.9717,-420.6257 277.5,-418.7413 277.5,-418.7413 277.5,-418.7413 273.9717,-420.6257 275.804,-415.5658 270.4433,-422.5101 270.4433,-422.5101"/>
<ellipse fill="none" stroke="#000000" cx="267.6207" cy="-424.0176" rx="3.2" ry="3.2"/>
</g>
<!-- OFFENDER&#45;&gt;R_STANDARD_REFERENCE_LIST -->
<g id="edge15" class="edge">
<title>OFFENDER:w&#45;&gt;R_STANDARD_REFERENCE_LIST:e</title>
<path fill="none" stroke="#000000" d="M267.8585,-429.4386C253.2512,-444.0414 246.3906,-440.4756 228,-418.7413"/>
<polygon fill="#000000" stroke="#000000" points="272.144,-424.6838 280.1741,-421.1515 274.822,-421.7125 277.5,-418.7413 277.5,-418.7413 277.5,-418.7413 274.822,-421.7125 274.8259,-416.3311 272.144,-424.6838 272.144,-424.6838"/>
<ellipse fill="none" stroke="#000000" cx="270.0016" cy="-427.0608" rx="3.2" ry="3.2"/>
</g>
<!-- OFFENDER&#45;&gt;R_STANDARD_REFERENCE_LIST -->
<g id="edge16" class="edge">
<title>OFFENDER:w&#45;&gt;R_STANDARD_REFERENCE_LIST:e</title>
<path fill="none" stroke="#000000" d="M270.1751,-431.1936C253.926,-457.1694 247.3359,-453.0186 228,-418.7413"/>
<polygon fill="#000000" stroke="#000000" points="273.4438,-425.6367 280.603,-420.5666 275.4719,-422.189 277.5,-418.7413 277.5,-418.7413 277.5,-418.7413 275.4719,-422.189 274.397,-416.916 273.4438,-425.6367 273.4438,-425.6367"/>
<ellipse fill="none" stroke="#000000" cx="271.8213" cy="-428.3949" rx="3.2" ry="3.2"/>
</g>
<!-- OFFENDER&#45;&gt;R_STANDARD_REFERENCE_LIST -->
<g id="edge17" class="edge">
<title>OFFENDER:w&#45;&gt;R_STANDARD_REFERENCE_LIST:e</title>
<path fill="none" stroke="#000000" d="M271.7204,-431.9952C254.3237,-470.2842 247.9375,-465.8663 228,-418.7413"/>
<polygon fill="#000000" stroke="#000000" points="274.3022,-426.0744 280.7999,-420.1803 275.9011,-422.4078 277.5,-418.7413 277.5,-418.7413 277.5,-418.7413 275.9011,-422.4078 274.2001,-417.3023 274.3022,-426.0744 274.3022,-426.0744"/>
<ellipse fill="none" stroke="#000000" cx="273.0231" cy="-429.0076" rx="3.2" ry="3.2"/>
</g>
<!-- OFFENDER&#45;&gt;R_STANDARD_REFERENCE_LIST -->
<g id="edge18" class="edge">
<title>OFFENDER:w&#45;&gt;R_STANDARD_REFERENCE_LIST:e</title>
<path fill="none" stroke="#000000" d="M272.7453,-432.4634C254.5664,-483.3641 248.3242,-478.7901 228,-418.7413"/>
<polygon fill="#000000" stroke="#000000" points="274.8807,-426.3003 280.9016,-419.9199 276.1904,-422.5208 277.5,-418.7413 277.5,-418.7413 277.5,-418.7413 276.1904,-422.5208 274.0984,-417.5626 274.8807,-426.3003 274.8807,-426.3003"/>
<ellipse fill="none" stroke="#000000" cx="273.833" cy="-429.324" rx="3.2" ry="3.2"/>
</g>
<!-- OFFENDER&#45;&gt;R_STANDARD_REFERENCE_LIST -->
<g id="edge19" class="edge">
<title>OFFENDER:w&#45;&gt;R_STANDARD_REFERENCE_LIST:e</title>
<path fill="none" stroke="#000000" d="M273.4429,-432.8512C254.7225,-496.4172 248.582,-491.7139 228,-418.7413"/>
<polygon fill="#000000" stroke="#000000" points="275.2892,-426.4297 280.9598,-419.7361 276.3946,-422.5855 277.5,-418.7413 277.5,-418.7413 277.5,-418.7413 276.3946,-422.5855 274.0402,-417.7464 275.2892,-426.4297 275.2892,-426.4297"/>
<ellipse fill="none" stroke="#000000" cx="274.4049" cy="-429.5051" rx="3.2" ry="3.2"/>
</g>
<!-- SPG_NOTIFICATION&#45;&gt;OFFENDER -->
<g id="edge31" class="edge">
<title>SPG_NOTIFICATION:w&#45;&gt;OFFENDER:e</title>
<path fill="none" stroke="#000000" d="M1034.0218,-998.756C758.6975,-999.294 611.5276,-1013.1266 443,-789.7413 393.0522,-723.5348 485.4342,-418.7413 402.5,-418.7413"/>
<polygon fill="#000000" stroke="#000000" points="1040.5,-998.7494 1048.5037,-1002.3413 1044.5,-998.7453 1048.5,-998.7413 1048.5,-998.7413 1048.5,-998.7413 1044.5,-998.7453 1048.4963,-995.1413 1040.5,-998.7494 1040.5,-998.7494"/>
<ellipse fill="none" stroke="#000000" cx="1037.3" cy="-998.7527" rx="3.2" ry="3.2"/>
</g>
<!-- DATA_SCRIPT_MESSAGE -->
<g id="node4" class="node">
<title>DATA_SCRIPT_MESSAGE</title>
<g id="a_node4"><a xlink:href="../../tables/DATA_SCRIPT_MESSAGE.html" xlink:title="DATA_SCRIPT_MESSAGE" target="_top">
<polygon fill="#ffffff" stroke="transparent" points="775,-356.2413 775,-505.2413 961,-505.2413 961,-356.2413 775,-356.2413"/>
<polygon fill="#f5f5f5" stroke="transparent" points="775,-481.7413 775,-504.7413 961,-504.7413 961,-481.7413 775,-481.7413"/>
<polygon fill="none" stroke="#000000" points="775,-481.7413 775,-504.7413 961,-504.7413 961,-481.7413 775,-481.7413"/>
<text text-anchor="start" x="780" y="-490.8413" font-family="Helvetica,sans-Serif" font-weight="bold" font-size="11.00" fill="#000000">DATA_SCRIPT_MESSAGE</text>
<text text-anchor="start" x="926.0437" y="-489.8413" font-family="Helvetica,sans-Serif" font-size="11.00" fill="#000000">[table]</text>
<polygon fill="none" stroke="#000000" points="775,-459.7413 775,-481.7413 961,-481.7413 961,-459.7413 775,-459.7413"/>
<image xlink:href="../../images/primaryKeys.png" width="11px" height="12px" preserveAspectRatio="xMinYMin meet" x="780" y="-476.741"/>
<text text-anchor="start" x="795" y="-466.8413" font-family="Helvetica,sans-Serif" font-size="11.00" fill="#000000">DATA_SCRIPT_MESSAGE_ID</text>
<polygon fill="none" stroke="#000000" points="775,-437.7413 775,-459.7413 961,-459.7413 961,-437.7413 775,-437.7413"/>
<image xlink:href="../../images/primaryKeys.png" width="11px" height="12px" preserveAspectRatio="xMinYMin meet" x="780" y="-454.741"/>
<text text-anchor="start" x="795" y="-444.8413" font-family="Helvetica,sans-Serif" font-size="11.00" fill="#000000">OFFENDER_ID</text>
<polygon fill="none" stroke="#000000" points="775,-415.7413 775,-437.7413 961,-437.7413 961,-415.7413 775,-415.7413"/>
<image xlink:href="../../images/primaryKeys.png" width="11px" height="12px" preserveAspectRatio="xMinYMin meet" x="780" y="-432.741"/>
<text text-anchor="start" x="795" y="-422.8413" font-family="Helvetica,sans-Serif" font-size="11.00" fill="#000000">EVENT_ID</text>
<polygon fill="none" stroke="#000000" points="775,-393.7413 775,-415.7413 961,-415.7413 961,-393.7413 775,-393.7413"/>
<image xlink:href="../../images/primaryKeys.png" width="11px" height="12px" preserveAspectRatio="xMinYMin meet" x="780" y="-410.741"/>
<text text-anchor="start" x="795" y="-400.8413" font-family="Helvetica,sans-Serif" font-size="11.00" fill="#000000">BUSINESS_INTERACTION_ID</text>
<polygon fill="none" stroke="#000000" points="775,-374.7413 775,-393.7413 961,-393.7413 961,-374.7413 775,-374.7413"/>
<text text-anchor="start" x="778" y="-380.8413" font-family="Helvetica,sans-Serif" font-size="11.00" fill="#000000">...</text>
<polygon fill="#ffffff" stroke="transparent" points="775,-355.7413 775,-374.7413 843,-374.7413 843,-355.7413 775,-355.7413"/>
<polygon fill="none" stroke="#000000" points="775,-355.7413 775,-374.7413 843,-374.7413 843,-355.7413 775,-355.7413"/>
<text text-anchor="start" x="778" y="-361.8413" font-family="Helvetica,sans-Serif" font-size="11.00" fill="#000000">&lt; 3</text>
<polygon fill="#ffffff" stroke="transparent" points="843,-355.7413 843,-374.7413 916,-374.7413 916,-355.7413 843,-355.7413"/>
<polygon fill="none" stroke="#000000" points="843,-355.7413 843,-374.7413 916,-374.7413 916,-355.7413 843,-355.7413"/>
<text text-anchor="start" x="868.3807" y="-361.8413" font-family="Helvetica,sans-Serif" font-size="11.00" fill="#000000">132 rows</text>
<polygon fill="#ffffff" stroke="transparent" points="916,-355.7413 916,-374.7413 961,-374.7413 961,-355.7413 916,-355.7413"/>
<polygon fill="none" stroke="#000000" points="916,-355.7413 916,-374.7413 961,-374.7413 961,-355.7413 916,-355.7413"/>
<text text-anchor="start" x="942.4053" y="-361.8413" font-family="Helvetica,sans-Serif" font-size="11.00" fill="#000000">3 &gt;</text>
</a>
</g>
</g>
<!-- SPG_NOTIFICATION&#45;&gt;DATA_SCRIPT_MESSAGE -->
<g id="edge30" class="edge">
<title>SPG_NOTIFICATION:w&#45;&gt;DATA_SCRIPT_MESSAGE:e</title>
<path fill="none" stroke="#000000" d="M1034.185,-732.5593C1007.4776,-722.9749 1015.4266,-683.4948 1002,-647.7413 987.8058,-609.9438 1001.3748,-470.7413 961,-470.7413"/>
<polygon fill="#000000" stroke="#000000" points="1040.5913,-733.5357 1047.9575,-738.3002 1044.5457,-734.1385 1048.5,-734.7413 1048.5,-734.7413 1048.5,-734.7413 1044.5457,-734.1385 1049.0425,-731.1824 1040.5913,-733.5357 1040.5913,-733.5357"/>
<ellipse fill="none" stroke="#000000" cx="1037.4279" cy="-733.0535" rx="3.2" ry="3.2"/>
</g>
<!-- BUSINESS_INTERACTION -->
<g id="node5" class="node">
<title>BUSINESS_INTERACTION</title>
<g id="a_node5"><a xlink:href="../../tables/BUSINESS_INTERACTION.html" xlink:title="BUSINESS_INTERACTION" target="_top">
<polygon fill="#ffffff" stroke="transparent" points="451,-560.7413 451,-738.7413 726,-738.7413 726,-560.7413 451,-560.7413"/>
<polygon fill="#f5f5f5" stroke="transparent" points="453.5,-713.7413 453.5,-736.7413 724.5,-736.7413 724.5,-713.7413 453.5,-713.7413"/>
<polygon fill="none" stroke="#000000" points="453.5,-713.7413 453.5,-736.7413 724.5,-736.7413 724.5,-713.7413 453.5,-713.7413"/>
<text text-anchor="start" x="458.5" y="-722.8413" font-family="Helvetica,sans-Serif" font-weight="bold" font-size="11.00" fill="#000000">BUSINESS_INTERACTION</text>
<text text-anchor="start" x="689.5437" y="-721.8413" font-family="Helvetica,sans-Serif" font-size="11.00" fill="#000000">[table]</text>
<polygon fill="none" stroke="#000000" points="453.5,-691.7413 453.5,-713.7413 651.5,-713.7413 651.5,-691.7413 453.5,-691.7413"/>
<image xlink:href="../../images/primaryKeys.png" width="11px" height="12px" preserveAspectRatio="xMinYMin meet" x="458.5" y="-708.741"/>
<text text-anchor="start" x="473.5" y="-698.8413" font-family="Helvetica,sans-Serif" font-size="11.00" fill="#000000">BUSINESS_INTERACTION_ID</text>
<polygon fill="none" stroke="#000000" points="651.5,-691.7413 651.5,-713.7413 724.5,-713.7413 724.5,-691.7413 651.5,-691.7413"/>
<text text-anchor="start" x="654.5" y="-699.4413" font-family="Helvetica,sans-Serif" font-size="11.00" fill="#000000">number[38]</text>
<polygon fill="none" stroke="#000000" points="453.5,-669.7413 453.5,-691.7413 651.5,-691.7413 651.5,-669.7413 453.5,-669.7413"/>
<image xlink:href="../../images/primaryKeys.png" width="11px" height="12px" preserveAspectRatio="xMinYMin meet" x="458.5" y="-686.741"/>
<text text-anchor="start" x="472.9158" y="-676.8413" font-family="Helvetica,sans-Serif" font-size="11.00" fill="#000000">BUSINESS_INTERACTION_CODE</text>
<polygon fill="none" stroke="#000000" points="651.5,-669.7413 651.5,-691.7413 724.5,-691.7413 724.5,-669.7413 651.5,-669.7413"/>
<text text-anchor="start" x="654.5" y="-677.4413" font-family="Helvetica,sans-Serif" font-size="11.00" fill="#000000">varchar2[20]</text>
<polygon fill="none" stroke="#000000" points="453.5,-647.7413 453.5,-669.7413 651.5,-669.7413 651.5,-647.7413 453.5,-647.7413"/>
<text text-anchor="start" x="473.5" y="-654.8413" font-family="Helvetica,sans-Serif" font-size="11.00" fill="#000000">DESCRIPTION</text>
<polygon fill="none" stroke="#000000" points="651.5,-647.7413 651.5,-669.7413 724.5,-669.7413 724.5,-647.7413 651.5,-647.7413"/>
<text text-anchor="start" x="654.3791" y="-655.4413" font-family="Helvetica,sans-Serif" font-size="11.00" fill="#000000">varchar2[500]</text>
<polygon fill="none" stroke="#000000" points="453.5,-625.7413 453.5,-647.7413 651.5,-647.7413 651.5,-625.7413 453.5,-625.7413"/>
<text text-anchor="start" x="473.5" y="-632.8413" font-family="Helvetica,sans-Serif" font-size="11.00" fill="#000000">ENABLED_DATE</text>
<polygon fill="none" stroke="#000000" points="651.5,-625.7413 651.5,-647.7413 724.5,-647.7413 724.5,-625.7413 651.5,-625.7413"/>
<text text-anchor="start" x="654.5" y="-633.4413" font-family="Helvetica,sans-Serif" font-size="11.00" fill="#000000">date[7]</text>
<polygon fill="none" stroke="#000000" points="453.5,-603.7413 453.5,-625.7413 651.5,-625.7413 651.5,-603.7413 453.5,-603.7413"/>
<text text-anchor="start" x="465.8934" y="-610.8413" font-family="Helvetica,sans-Serif" font-size="11.00" fill="#000000">AUDIT_INTERACTION_PARAMETER</text>
<polygon fill="none" stroke="#000000" points="651.5,-603.7413 651.5,-625.7413 724.5,-625.7413 724.5,-603.7413 651.5,-603.7413"/>
<text text-anchor="start" x="654.5" y="-611.4413" font-family="Helvetica,sans-Serif" font-size="11.00" fill="#000000">date[7]</text>
<polygon fill="none" stroke="#000000" points="453.5,-581.7413 453.5,-603.7413 651.5,-603.7413 651.5,-581.7413 453.5,-581.7413"/>
<text text-anchor="start" x="473.5" y="-588.8413" font-family="Helvetica,sans-Serif" font-size="11.00" fill="#000000">ROW_VERSION</text>
<polygon fill="none" stroke="#000000" points="651.5,-581.7413 651.5,-603.7413 724.5,-603.7413 724.5,-581.7413 651.5,-581.7413"/>
<text text-anchor="start" x="654.5" y="-589.4413" font-family="Helvetica,sans-Serif" font-size="11.00" fill="#000000">number[38]</text>
<polygon fill="#ffffff" stroke="transparent" points="453.5,-562.7413 453.5,-581.7413 533.5,-581.7413 533.5,-562.7413 453.5,-562.7413"/>
<polygon fill="none" stroke="#000000" points="453.5,-562.7413 453.5,-581.7413 533.5,-581.7413 533.5,-562.7413 453.5,-562.7413"/>
<text text-anchor="start" x="456.5" y="-568.8413" font-family="Helvetica,sans-Serif" font-size="11.00" fill="#000000">&lt; 0</text>
<polygon fill="#ffffff" stroke="transparent" points="533.5,-562.7413 533.5,-581.7413 651.5,-581.7413 651.5,-562.7413 533.5,-562.7413"/>
<polygon fill="none" stroke="#000000" points="533.5,-562.7413 533.5,-581.7413 651.5,-581.7413 651.5,-562.7413 533.5,-562.7413"/>
<text text-anchor="start" x="594.7089" y="-568.8413" font-family="Helvetica,sans-Serif" font-size="11.00" fill="#000000">1,090 rows</text>
<polygon fill="#ffffff" stroke="transparent" points="651.5,-562.7413 651.5,-581.7413 724.5,-581.7413 724.5,-562.7413 651.5,-562.7413"/>
<polygon fill="none" stroke="#000000" points="651.5,-562.7413 651.5,-581.7413 724.5,-581.7413 724.5,-562.7413 651.5,-562.7413"/>
<text text-anchor="start" x="705.9053" y="-568.8413" font-family="Helvetica,sans-Serif" font-size="11.00" fill="#000000">5 &gt;</text>
<polygon fill="none" stroke="#000000" stroke-width="2" points="452,-561.7413 452,-737.7413 725,-737.7413 725,-561.7413 452,-561.7413"/>
</a>
</g>
</g>
<!-- SPG_NOTIFICATION&#45;&gt;BUSINESS_INTERACTION -->
<g id="edge29" class="edge">
<title>SPG_NOTIFICATION:w&#45;&gt;BUSINESS_INTERACTION:e</title>
<path fill="none" stroke="#000000" d="M1033.812,-1019.8353C917.6675,-1004.3215 1077.2179,-793.6986 969,-707.7413 926.4458,-673.9405 778.8447,-702.7413 724.5,-702.7413"/>
<polygon fill="#000000" stroke="#000000" points="1040.5152,-1020.2487 1048.2783,-1024.3344 1044.5076,-1020.495 1048.5,-1020.7413 1048.5,-1020.7413 1048.5,-1020.7413 1044.5076,-1020.495 1048.7217,-1017.1481 1040.5152,-1020.2487 1040.5152,-1020.2487"/>
<ellipse fill="none" stroke="#000000" cx="1037.3212" cy="-1020.0517" rx="3.2" ry="3.2"/>
</g>
<!-- SPG_NOTIFICATION&#45;&gt;R_STANDARD_REFERENCE_LIST -->
<g id="edge34" class="edge">
<title>SPG_NOTIFICATION:w&#45;&gt;R_STANDARD_REFERENCE_LIST:e</title>
<path fill="none" stroke="#000000" d="M1034.1258,-802.6498C990.5577,-815.8446 1020.764,-893.8144 969,-921.7413 862.9377,-978.9623 533.9019,-868.8634 443,-789.7413 425.0313,-774.1011 251.822,-418.7413 228,-418.7413"/>
<polygon fill="#000000" stroke="#000000" points="1040.5696,-801.7943 1048.9738,-804.3099 1044.5348,-801.2678 1048.5,-800.7413 1048.5,-800.7413 1048.5,-800.7413 1044.5348,-801.2678 1048.0262,-797.1726 1040.5696,-801.7943 1040.5696,-801.7943"/>
<ellipse fill="none" stroke="#000000" cx="1037.3974" cy="-802.2155" rx="3.2" ry="3.2"/>
</g>
<!-- SPG_NOTIFICATION&#45;&gt;R_STANDARD_REFERENCE_LIST -->
<g id="edge35" class="edge">
<title>SPG_NOTIFICATION:w&#45;&gt;R_STANDARD_REFERENCE_LIST:e</title>
<path fill="none" stroke="#000000" d="M1034.2241,-824.6561C992.0073,-837.5641 1019.434,-912.1643 969,-938.7413 760.0336,-1048.8595 638.6534,-995.0769 443,-862.7413 331.4706,-787.3053 322.5485,-738.2805 269,-614.7413 251.303,-573.9134 272.4983,-418.7413 228,-418.7413"/>
<polygon fill="#000000" stroke="#000000" points="1040.571,-823.8048 1048.9786,-826.3093 1044.5355,-823.273 1048.5,-822.7413 1048.5,-822.7413 1048.5,-822.7413 1044.5355,-823.273 1048.0214,-819.1732 1040.571,-823.8048 1040.571,-823.8048"/>
<ellipse fill="none" stroke="#000000" cx="1037.3994" cy="-824.2302" rx="3.2" ry="3.2"/>
</g>
<!-- PROBATION_AREA -->
<g id="node9" class="node">
<title>PROBATION_AREA</title>
<g id="a_node9"><a xlink:href="../../tables/PROBATION_AREA.html" xlink:title="PROBATION_AREA" target="_top">
<polygon fill="#ffffff" stroke="transparent" points="796.5,-554.2413 796.5,-615.2413 939.5,-615.2413 939.5,-554.2413 796.5,-554.2413"/>
<polygon fill="#f5f5f5" stroke="transparent" points="797,-591.7413 797,-614.7413 940,-614.7413 940,-591.7413 797,-591.7413"/>
<polygon fill="none" stroke="#000000" points="797,-591.7413 797,-614.7413 940,-614.7413 940,-591.7413 797,-591.7413"/>
<text text-anchor="start" x="801.5782" y="-600.8413" font-family="Helvetica,sans-Serif" font-weight="bold" font-size="11.00" fill="#000000">PROBATION_AREA</text>
<text text-anchor="start" x="905.5219" y="-599.8413" font-family="Helvetica,sans-Serif" font-size="11.00" fill="#000000">[table]</text>
<polygon fill="none" stroke="#000000" points="797,-572.7413 797,-591.7413 940,-591.7413 940,-572.7413 797,-572.7413"/>
<text text-anchor="start" x="800" y="-578.8413" font-family="Helvetica,sans-Serif" font-size="11.00" fill="#000000">...</text>
<polygon fill="#ffffff" stroke="transparent" points="797,-553.7413 797,-572.7413 840,-572.7413 840,-553.7413 797,-553.7413"/>
<polygon fill="none" stroke="#000000" points="797,-553.7413 797,-572.7413 840,-572.7413 840,-553.7413 797,-553.7413"/>
<text text-anchor="start" x="800" y="-559.8413" font-family="Helvetica,sans-Serif" font-size="11.00" fill="#000000">&lt; 8</text>
<polygon fill="#ffffff" stroke="transparent" points="840,-553.7413 840,-572.7413 901,-572.7413 901,-553.7413 840,-553.7413"/>
<polygon fill="none" stroke="#000000" points="840,-553.7413 840,-572.7413 901,-572.7413 901,-553.7413 840,-553.7413"/>
<text text-anchor="start" x="853.3807" y="-559.8413" font-family="Helvetica,sans-Serif" font-size="11.00" fill="#000000">223 rows</text>
<polygon fill="#ffffff" stroke="transparent" points="901,-553.7413 901,-572.7413 940,-572.7413 940,-553.7413 901,-553.7413"/>
<polygon fill="none" stroke="#000000" points="901,-553.7413 901,-572.7413 940,-572.7413 940,-553.7413 901,-553.7413"/>
<text text-anchor="start" x="915.2904" y="-559.8413" font-family="Helvetica,sans-Serif" font-size="11.00" fill="#000000">70 &gt;</text>
</a>
</g>
</g>
<!-- SPG_NOTIFICATION&#45;&gt;PROBATION_AREA -->
<g id="edge32" class="edge">
<title>SPG_NOTIFICATION:w&#45;&gt;PROBATION_AREA:e</title>
<path fill="none" stroke="#000000" d="M1034.0579,-887.5678C916.4348,-866.9565 1079.4862,-581.7413 940,-581.7413"/>
<polygon fill="#000000" stroke="#000000" points="1040.5263,-888.0933 1048.2084,-892.3294 1044.5131,-888.4173 1048.5,-888.7413 1048.5,-888.7413 1048.5,-888.7413 1044.5131,-888.4173 1048.7916,-885.1531 1040.5263,-888.0933 1040.5263,-888.0933"/>
<ellipse fill="none" stroke="#000000" cx="1037.3368" cy="-887.8341" rx="3.2" ry="3.2"/>
</g>
<!-- SPG_NOTIFICATION&#45;&gt;PROBATION_AREA -->
<g id="edge33" class="edge">
<title>SPG_NOTIFICATION:w&#45;&gt;PROBATION_AREA:e</title>
<path fill="none" stroke="#000000" d="M1034.7115,-906.5815C977.0145,-868.4968 1011.872,-581.7413 940,-581.7413"/>
<polygon fill="#000000" stroke="#000000" points="1040.8409,-908.4306 1047.4602,-914.1878 1044.6705,-909.5859 1048.5,-910.7413 1048.5,-910.7413 1048.5,-910.7413 1044.6705,-909.5859 1049.5398,-907.2947 1040.8409,-908.4306 1040.8409,-908.4306"/>
<ellipse fill="none" stroke="#000000" cx="1037.7773" cy="-907.5063" rx="3.2" ry="3.2"/>
</g>
<!-- DATA_SCRIPT_MESSAGE&#45;&gt;OFFENDER -->
<g id="edge5" class="edge">
<title>DATA_SCRIPT_MESSAGE:w&#45;&gt;OFFENDER:e</title>
<path fill="none" stroke="#000000" d="M760.7844,-451.3531C752.4398,-454.769 747.0592,-460.5731 734,-462.7413 606.4131,-483.9239 561.4385,-514.6974 443,-462.7413 418.6604,-452.064 429.0786,-418.7413 402.5,-418.7413"/>
<polygon fill="#000000" stroke="#000000" points="767.1317,-450.187 775.6506,-452.282 771.0659,-449.4641 775,-448.7413 775,-448.7413 775,-448.7413 771.0659,-449.4641 774.3494,-445.2005 767.1317,-450.187 767.1317,-450.187"/>
<ellipse fill="none" stroke="#000000" cx="763.9844" cy="-450.7652" rx="3.2" ry="3.2"/>
</g>
<!-- DATA_SCRIPT_MESSAGE&#45;&gt;BUSINESS_INTERACTION -->
<g id="edge3" class="edge">
<title>DATA_SCRIPT_MESSAGE:w&#45;&gt;BUSINESS_INTERACTION:e</title>
<path fill="none" stroke="#000000" d="M761.6141,-410.168C720.2917,-450.5569 786.2878,-702.7413 724.5,-702.7413"/>
<polygon fill="#000000" stroke="#000000" points="767.5861,-407.7469 776.3526,-408.0775 771.293,-406.2441 775,-404.7413 775,-404.7413 775,-404.7413 771.293,-406.2441 773.6474,-401.405 767.5861,-407.7469 767.5861,-407.7469"/>
<ellipse fill="none" stroke="#000000" cx="764.6205" cy="-408.9492" rx="3.2" ry="3.2"/>
</g>
<!-- EVENT -->
<g id="node6" class="node">
<title>EVENT</title>
<g id="a_node6"><a xlink:href="../../tables/EVENT.html" xlink:title="EVENT" target="_top">
<polygon fill="#ffffff" stroke="transparent" points="532,-391.2413 532,-452.2413 645,-452.2413 645,-391.2413 532,-391.2413"/>
<polygon fill="#f5f5f5" stroke="transparent" points="532.5,-428.7413 532.5,-451.7413 645.5,-451.7413 645.5,-428.7413 532.5,-428.7413"/>
<polygon fill="none" stroke="#000000" points="532.5,-428.7413 532.5,-451.7413 645.5,-451.7413 645.5,-428.7413 532.5,-428.7413"/>
<text text-anchor="start" x="537.5" y="-437.8413" font-family="Helvetica,sans-Serif" font-weight="bold" font-size="11.00" fill="#000000">EVENT</text>
<text text-anchor="start" x="610.5437" y="-436.8413" font-family="Helvetica,sans-Serif" font-size="11.00" fill="#000000">[table]</text>
<polygon fill="none" stroke="#000000" points="532.5,-409.7413 532.5,-428.7413 645.5,-428.7413 645.5,-409.7413 532.5,-409.7413"/>
<text text-anchor="start" x="535.5" y="-415.8413" font-family="Helvetica,sans-Serif" font-size="11.00" fill="#000000">...</text>
<polygon fill="#ffffff" stroke="transparent" points="532.5,-390.7413 532.5,-409.7413 553.5,-409.7413 553.5,-390.7413 532.5,-390.7413"/>
<polygon fill="none" stroke="#000000" points="532.5,-390.7413 532.5,-409.7413 553.5,-409.7413 553.5,-390.7413 532.5,-390.7413"/>
<text text-anchor="start" x="535.2026" y="-396.8413" font-family="Helvetica,sans-Serif" font-size="11.00" fill="#000000">&lt; 5</text>
<polygon fill="#ffffff" stroke="transparent" points="553.5,-390.7413 553.5,-409.7413 618.5,-409.7413 618.5,-390.7413 553.5,-390.7413"/>
<polygon fill="none" stroke="#000000" points="553.5,-390.7413 553.5,-409.7413 618.5,-409.7413 618.5,-390.7413 553.5,-390.7413"/>
<text text-anchor="start" x="556.047" y="-396.8413" font-family="Helvetica,sans-Serif" font-size="11.00" fill="#000000">14,604 rows</text>
<polygon fill="#ffffff" stroke="transparent" points="618.5,-390.7413 618.5,-409.7413 645.5,-409.7413 645.5,-390.7413 618.5,-390.7413"/>
<polygon fill="none" stroke="#000000" points="618.5,-390.7413 618.5,-409.7413 645.5,-409.7413 645.5,-390.7413 618.5,-390.7413"/>
<text text-anchor="start" x="621.1452" y="-396.8413" font-family="Helvetica,sans-Serif" font-size="11.00" fill="#000000">28 &gt;</text>
</a>
</g>
</g>
<!-- DATA_SCRIPT_MESSAGE&#45;&gt;EVENT -->
<g id="edge4" class="edge">
<title>DATA_SCRIPT_MESSAGE:w&#45;&gt;EVENT:e</title>
<path fill="none" stroke="#000000" d="M760.4476,-426.5591C714.4376,-425.3683 697.9844,-418.7413 645.5,-418.7413"/>
<polygon fill="#000000" stroke="#000000" points="767.0006,-426.6411 774.9549,-430.341 771.0003,-426.6912 775,-426.7413 775,-426.7413 775,-426.7413 771.0003,-426.6912 775.0451,-423.1415 767.0006,-426.6411 767.0006,-426.6411"/>
<ellipse fill="none" stroke="#000000" cx="763.8009" cy="-426.601" rx="3.2" ry="3.2"/>
</g>
<!-- EVENT&#45;&gt;OFFENDER -->
<g id="edge6" class="edge">
<title>EVENT:w&#45;&gt;OFFENDER:e</title>
<path fill="none" stroke="#000000" d="M517.9136,-418.7413C471.777,-418.7413 455.0868,-418.7413 402.5,-418.7413"/>
<polygon fill="#000000" stroke="#000000" points="524.5,-418.7413 532.5,-422.3413 528.5,-418.7413 532.5,-418.7413 532.5,-418.7413 532.5,-418.7413 528.5,-418.7413 532.5,-415.1413 524.5,-418.7413 524.5,-418.7413"/>
<ellipse fill="none" stroke="#000000" cx="521.3" cy="-418.7413" rx="3.2" ry="3.2"/>
</g>
<!-- OFFENDER_CRC_EXPORT -->
<g id="node8" class="node">
<title>OFFENDER_CRC_EXPORT</title>
<g id="a_node8"><a xlink:href="../../tables/OFFENDER_CRC_EXPORT.html" xlink:title="OFFENDER_CRC_EXPORT" target="_top">
<polygon fill="#ffffff" stroke="transparent" points="1349,-1016.2413 1349,-1077.2413 1533,-1077.2413 1533,-1016.2413 1349,-1016.2413"/>
<polygon fill="#f5f5f5" stroke="transparent" points="1349,-1053.7413 1349,-1076.7413 1533,-1076.7413 1533,-1053.7413 1349,-1053.7413"/>
<polygon fill="none" stroke="#000000" points="1349,-1053.7413 1349,-1076.7413 1533,-1076.7413 1533,-1053.7413 1349,-1053.7413"/>
<text text-anchor="start" x="1353.6155" y="-1062.8413" font-family="Helvetica,sans-Serif" font-weight="bold" font-size="11.00" fill="#000000">OFFENDER_CRC_EXPORT</text>
<text text-anchor="start" x="1498.5219" y="-1061.8413" font-family="Helvetica,sans-Serif" font-size="11.00" fill="#000000">[table]</text>
<polygon fill="none" stroke="#000000" points="1349,-1034.7413 1349,-1053.7413 1533,-1053.7413 1533,-1034.7413 1349,-1034.7413"/>
<text text-anchor="start" x="1352" y="-1040.8413" font-family="Helvetica,sans-Serif" font-size="11.00" fill="#000000">...</text>
<polygon fill="#ffffff" stroke="transparent" points="1349,-1015.7413 1349,-1034.7413 1420,-1034.7413 1420,-1015.7413 1349,-1015.7413"/>
<polygon fill="none" stroke="#000000" points="1349,-1015.7413 1349,-1034.7413 1420,-1034.7413 1420,-1015.7413 1349,-1015.7413"/>
<text text-anchor="start" x="1352" y="-1021.8413" font-family="Helvetica,sans-Serif" font-size="11.00" fill="#000000">&lt; 3</text>
<polygon fill="#ffffff" stroke="transparent" points="1420,-1015.7413 1420,-1034.7413 1495,-1034.7413 1495,-1015.7413 1420,-1015.7413"/>
<polygon fill="none" stroke="#000000" points="1420,-1015.7413 1420,-1034.7413 1495,-1034.7413 1495,-1015.7413 1420,-1015.7413"/>
<text text-anchor="start" x="1447.3807" y="-1021.8413" font-family="Helvetica,sans-Serif" font-size="11.00" fill="#000000">983 rows</text>
<polygon fill="#ffffff" stroke="transparent" points="1495,-1015.7413 1495,-1034.7413 1533,-1034.7413 1533,-1015.7413 1495,-1015.7413"/>
<polygon fill="none" stroke="#000000" points="1495,-1015.7413 1495,-1034.7413 1533,-1034.7413 1533,-1015.7413 1495,-1015.7413"/>
<text text-anchor="start" x="1523.8862" y="-1021.8413" font-family="Helvetica,sans-Serif" font-size="11.00" fill="#000000"> &#160;</text>
</a>
</g>
</g>
<!-- OFFENDER_CRC_EXPORT&#45;&gt;OFFENDER -->
<g id="edge21" class="edge">
<title>OFFENDER_CRC_EXPORT:w&#45;&gt;OFFENDER:e</title>
<path fill="none" stroke="#000000" d="M1334.6417,-1046.9152C1318.1876,-1055.5421 1317.305,-1079.3351 1293,-1087.7413 1170.7708,-1130.0158 1129.5848,-1108.9364 1002,-1087.7413 743.0029,-1044.7151 604.6013,-1103.661 443,-896.7413 410.1922,-854.7331 455.8014,-418.7413 402.5,-418.7413"/>
<polygon fill="#000000" stroke="#000000" points="1341.1886,-1045.468 1349.7771,-1047.2564 1345.0943,-1044.6047 1349,-1043.7413 1349,-1043.7413 1349,-1043.7413 1345.0943,-1044.6047 1348.2229,-1040.2261 1341.1886,-1045.468 1341.1886,-1045.468"/>
<ellipse fill="none" stroke="#000000" cx="1338.064" cy="-1046.1588" rx="3.2" ry="3.2"/>
</g>
<!-- OFFENDER_CRC_EXPORT&#45;&gt;SPG_NOTIFICATION -->
<g id="edge22" class="edge">
<title>OFFENDER_CRC_EXPORT:w&#45;&gt;SPG_NOTIFICATION:e</title>
<path fill="none" stroke="#000000" d="M1334.2815,-1043.7033C1300.3047,-1043.5206 1286.7189,-1042.7413 1246.5,-1042.7413"/>
<polygon fill="#000000" stroke="#000000" points="1341,-1043.7206 1348.9907,-1047.3412 1345,-1043.7309 1349,-1043.7413 1349,-1043.7413 1349,-1043.7413 1345,-1043.7309 1349.0093,-1040.1413 1341,-1043.7206 1341,-1043.7206"/>
<ellipse fill="none" stroke="#000000" cx="1337.8" cy="-1043.7123" rx="3.2" ry="3.2"/>
</g>
<!-- OFFENDER_CRC_EXPORT&#45;&gt;PROBATION_AREA -->
<g id="edge20" class="edge">
<title>OFFENDER_CRC_EXPORT:w&#45;&gt;PROBATION_AREA:e</title>
<path fill="none" stroke="#000000" d="M1335.0161,-1040.0328C1276.6812,-1004.8732 1347.8237,-730.3601 1293,-675.7413 1246.9767,-629.8899 1060.3192,-676.3658 1002,-647.7413 965.8711,-630.0083 980.2462,-581.7413 940,-581.7413"/>
<polygon fill="#000000" stroke="#000000" points="1341.2673,-1041.6905 1348.0772,-1047.221 1345.1336,-1042.7159 1349,-1043.7413 1349,-1043.7413 1349,-1043.7413 1345.1336,-1042.7159 1349.9228,-1040.2615 1341.2673,-1041.6905 1341.2673,-1041.6905"/>
<ellipse fill="none" stroke="#000000" cx="1338.1742" cy="-1040.8702" rx="3.2" ry="3.2"/>
</g>
<!-- PROBATION_AREA&#45;&gt;R_STANDARD_REFERENCE_LIST -->
<g id="edge23" class="edge">
<title>PROBATION_AREA:w&#45;&gt;R_STANDARD_REFERENCE_LIST:e</title>
<path fill="none" stroke="#000000" d="M782.5061,-580.3124C714.9884,-565.254 803.3248,-435.1611 734,-380.7413 652.7189,-316.9357 365.2008,-343.0161 269,-380.7413 245.8697,-389.8118 252.8452,-418.7413 228,-418.7413"/>
<polygon fill="#000000" stroke="#000000" points="789.0386,-580.9563 796.6468,-585.3239 793.0193,-581.3488 797,-581.7413 797,-581.7413 797,-581.7413 793.0193,-581.3488 797.3532,-578.1586 789.0386,-580.9563 789.0386,-580.9563"/>
<ellipse fill="none" stroke="#000000" cx="785.854" cy="-580.6424" rx="3.2" ry="3.2"/>
</g>
<!-- SPG_ERROR -->
<g id="node10" class="node">
<title>SPG_ERROR</title>
<g id="a_node10"><a xlink:href="../../tables/SPG_ERROR.html" xlink:title="SPG_ERROR" target="_top">
<polygon fill="#ffffff" stroke="transparent" points="1385,-122.2413 1385,-183.2413 1497,-183.2413 1497,-122.2413 1385,-122.2413"/>
<polygon fill="#f5f5f5" stroke="transparent" points="1385,-159.7413 1385,-182.7413 1497,-182.7413 1497,-159.7413 1385,-159.7413"/>
<polygon fill="none" stroke="#000000" points="1385,-159.7413 1385,-182.7413 1497,-182.7413 1497,-159.7413 1385,-159.7413"/>
<text text-anchor="start" x="1389.9705" y="-168.8413" font-family="Helvetica,sans-Serif" font-weight="bold" font-size="11.00" fill="#000000">SPG_ERROR</text>
<text text-anchor="start" x="1462.5219" y="-167.8413" font-family="Helvetica,sans-Serif" font-size="11.00" fill="#000000">[table]</text>
<polygon fill="none" stroke="#000000" points="1385,-140.7413 1385,-159.7413 1497,-159.7413 1497,-140.7413 1385,-140.7413"/>
<text text-anchor="start" x="1388" y="-146.8413" font-family="Helvetica,sans-Serif" font-size="11.00" fill="#000000">...</text>
<polygon fill="#ffffff" stroke="transparent" points="1385,-121.7413 1385,-140.7413 1408,-140.7413 1408,-121.7413 1385,-121.7413"/>
<polygon fill="none" stroke="#000000" points="1385,-121.7413 1385,-140.7413 1408,-140.7413 1408,-121.7413 1385,-121.7413"/>
<text text-anchor="start" x="1388" y="-127.8413" font-family="Helvetica,sans-Serif" font-size="11.00" fill="#000000">&lt; 5</text>
<polygon fill="#ffffff" stroke="transparent" points="1408,-121.7413 1408,-140.7413 1474,-140.7413 1474,-121.7413 1408,-121.7413"/>
<polygon fill="none" stroke="#000000" points="1408,-121.7413 1408,-140.7413 1474,-140.7413 1474,-121.7413 1408,-121.7413"/>
<text text-anchor="start" x="1411.094" y="-127.8413" font-family="Helvetica,sans-Serif" font-size="11.00" fill="#000000">25,460 rows</text>
<polygon fill="#ffffff" stroke="transparent" points="1474,-121.7413 1474,-140.7413 1497,-140.7413 1497,-121.7413 1474,-121.7413"/>
<polygon fill="none" stroke="#000000" points="1474,-121.7413 1474,-140.7413 1497,-140.7413 1497,-121.7413 1474,-121.7413"/>
<text text-anchor="start" x="1478.4053" y="-127.8413" font-family="Helvetica,sans-Serif" font-size="11.00" fill="#000000">2 &gt;</text>
</a>
</g>
</g>
<!-- SPG_ERROR&#45;&gt;SPG_NOTIFICATION -->
<g id="edge27" class="edge">
<title>SPG_ERROR:w&#45;&gt;SPG_NOTIFICATION:e</title>
<path fill="none" stroke="#000000" d="M1370.5855,-151.4391C1197.2462,-194.5132 1442.2181,-1042.7413 1246.5,-1042.7413"/>
<polygon fill="#000000" stroke="#000000" points="1377.0549,-150.6772 1385.4212,-153.3165 1381.0275,-150.2092 1385,-149.7413 1385,-149.7413 1385,-149.7413 1381.0275,-150.2092 1384.5788,-146.166 1377.0549,-150.6772 1377.0549,-150.6772"/>
<ellipse fill="none" stroke="#000000" cx="1373.8769" cy="-151.0515" rx="3.2" ry="3.2"/>
</g>
<!-- SPG_ERROR&#45;&gt;R_STANDARD_REFERENCE_LIST -->
<g id="edge24" class="edge">
<title>SPG_ERROR:w&#45;&gt;R_STANDARD_REFERENCE_LIST:e</title>
<path fill="none" stroke="#000000" d="M1370.4253,-149.7413C1152.6744,-149.7413 1092.8411,-149.7413 868,-149.7413 868,-149.7413 868,-149.7413 588.5,-149.7413 445.0985,-149.7413 372.4628,-95.4465 269,-194.7413 195.9784,-264.8212 329.2095,-418.7413 228,-418.7413"/>
<polygon fill="#000000" stroke="#000000" points="1377,-149.7413 1385,-153.3413 1381,-149.7413 1385,-149.7413 1385,-149.7413 1385,-149.7413 1381,-149.7413 1385,-146.1413 1377,-149.7413 1377,-149.7413"/>
<ellipse fill="none" stroke="#000000" cx="1373.8" cy="-149.7413" rx="3.2" ry="3.2"/>
</g>
<!-- SPG_ERROR&#45;&gt;R_STANDARD_REFERENCE_LIST -->
<g id="edge25" class="edge">
<title>SPG_ERROR:w&#45;&gt;R_STANDARD_REFERENCE_LIST:e</title>
<path fill="none" stroke="#000000" d="M1370.5263,-149.4888C883.7238,-138.3893 639.8243,130.0417 269,-192.7413 193.9787,-258.0433 327.4613,-412.7413 228,-418.7413"/>
<polygon fill="#000000" stroke="#000000" points="1377.0012,-149.6017 1384.9372,-153.3407 1381.0006,-149.6715 1385,-149.7413 1385,-149.7413 1385,-149.7413 1381.0006,-149.6715 1385.0628,-146.1418 1377.0012,-149.6017 1377.0012,-149.6017"/>
<ellipse fill="none" stroke="#000000" cx="1373.8017" cy="-149.5458" rx="3.2" ry="3.2"/>
</g>
<!-- SPG_ERROR&#45;&gt;R_STANDARD_REFERENCE_LIST -->
<g id="edge26" class="edge">
<title>SPG_ERROR:w&#45;&gt;R_STANDARD_REFERENCE_LIST:e</title>
<path fill="none" stroke="#000000" d="M1370.5263,-149.8659C883.7238,-151.3893 639.8243,117.0417 269,-205.7413 193.9787,-271.0433 327.4613,-425.7413 228,-418.7413"/>
<polygon fill="#000000" stroke="#000000" points="1377.0003,-149.8102 1385.031,-153.3411 1381.0001,-149.7757 1385,-149.7413 1385,-149.7413 1385,-149.7413 1381.0001,-149.7757 1384.969,-146.1414 1377.0003,-149.8102 1377.0003,-149.8102"/>
<ellipse fill="none" stroke="#000000" cx="1373.8004" cy="-149.8378" rx="3.2" ry="3.2"/>
</g>
<!-- SPG_ERROR_CLEAR_REQUEST -->
<g id="node11" class="node">
<title>SPG_ERROR_CLEAR_REQUEST</title>
<g id="a_node11"><a xlink:href="../../tables/SPG_ERROR_CLEAR_REQUEST.html" xlink:title="SPG_ERROR_CLEAR_REQUEST" target="_top">
<polygon fill="#ffffff" stroke="transparent" points="1334,-934.2413 1334,-995.2413 1548,-995.2413 1548,-934.2413 1334,-934.2413"/>
<polygon fill="#f5f5f5" stroke="transparent" points="1334,-971.7413 1334,-994.7413 1548,-994.7413 1548,-971.7413 1334,-971.7413"/>
<polygon fill="none" stroke="#000000" points="1334,-971.7413 1334,-994.7413 1548,-994.7413 1548,-971.7413 1334,-971.7413"/>
<text text-anchor="start" x="1338.9382" y="-980.8413" font-family="Helvetica,sans-Serif" font-weight="bold" font-size="11.00" fill="#000000">SPG_ERROR_CLEAR_REQUEST</text>
<text text-anchor="start" x="1513.5219" y="-979.8413" font-family="Helvetica,sans-Serif" font-size="11.00" fill="#000000">[table]</text>
<polygon fill="none" stroke="#000000" points="1334,-952.7413 1334,-971.7413 1548,-971.7413 1548,-952.7413 1334,-952.7413"/>
<text text-anchor="start" x="1337" y="-958.8413" font-family="Helvetica,sans-Serif" font-size="11.00" fill="#000000">...</text>
<polygon fill="#ffffff" stroke="transparent" points="1334,-933.7413 1334,-952.7413 1426,-952.7413 1426,-933.7413 1334,-933.7413"/>
<polygon fill="none" stroke="#000000" points="1334,-933.7413 1334,-952.7413 1426,-952.7413 1426,-933.7413 1334,-933.7413"/>
<text text-anchor="start" x="1337" y="-939.8413" font-family="Helvetica,sans-Serif" font-size="11.00" fill="#000000">&lt; 1</text>
<polygon fill="#ffffff" stroke="transparent" points="1426,-933.7413 1426,-952.7413 1500,-952.7413 1500,-933.7413 1426,-933.7413"/>
<polygon fill="none" stroke="#000000" points="1426,-933.7413 1426,-952.7413 1500,-952.7413 1500,-933.7413 1426,-933.7413"/>
<text text-anchor="start" x="1464.6105" y="-939.8413" font-family="Helvetica,sans-Serif" font-size="11.00" fill="#000000">0 rows</text>
<polygon fill="#ffffff" stroke="transparent" points="1500,-933.7413 1500,-952.7413 1548,-952.7413 1548,-933.7413 1500,-933.7413"/>
<polygon fill="none" stroke="#000000" points="1500,-933.7413 1500,-952.7413 1548,-952.7413 1548,-933.7413 1500,-933.7413"/>
<text text-anchor="start" x="1538.8862" y="-939.8413" font-family="Helvetica,sans-Serif" font-size="11.00" fill="#000000"> &#160;</text>
</a>
</g>
</g>
<!-- SPG_ERROR_CLEAR_REQUEST&#45;&gt;SPG_NOTIFICATION -->
<g id="edge28" class="edge">
<title>SPG_ERROR_CLEAR_REQUEST:w&#45;&gt;SPG_NOTIFICATION:e</title>
<path fill="none" stroke="#000000" d="M1319.4501,-964.2543C1284.1108,-977.9262 1293.9046,-1042.7413 1246.5,-1042.7413"/>
<polygon fill="#000000" stroke="#000000" points="1326.1167,-963.1029 1334.6127,-965.2887 1330.0584,-962.4221 1334,-961.7413 1334,-961.7413 1334,-961.7413 1330.0584,-962.4221 1333.3873,-958.1938 1326.1167,-963.1029 1326.1167,-963.1029"/>
<ellipse fill="none" stroke="#000000" cx="1322.9634" cy="-963.6475" rx="3.2" ry="3.2"/>
</g>
<!-- SPG_VERSION_ENTRY -->
<g id="node12" class="node">
<title>SPG_VERSION_ENTRY</title>
<g id="a_node12"><a xlink:href="../../tables/SPG_VERSION_ENTRY.html" xlink:title="SPG_VERSION_ENTRY" target="_top">
<polygon fill="#ffffff" stroke="transparent" points="783.5,-718.2413 783.5,-911.2413 952.5,-911.2413 952.5,-718.2413 783.5,-718.2413"/>
<polygon fill="#f5f5f5" stroke="transparent" points="784,-887.7413 784,-910.7413 953,-910.7413 953,-887.7413 784,-887.7413"/>
<polygon fill="none" stroke="#000000" points="784,-887.7413 784,-910.7413 953,-910.7413 953,-887.7413 784,-887.7413"/>
<text text-anchor="start" x="789" y="-896.8413" font-family="Helvetica,sans-Serif" font-weight="bold" font-size="11.00" fill="#000000">SPG_VERSION_ENTRY</text>
<text text-anchor="start" x="918.0437" y="-895.8413" font-family="Helvetica,sans-Serif" font-size="11.00" fill="#000000">[table]</text>
<polygon fill="none" stroke="#000000" points="784,-865.7413 784,-887.7413 953,-887.7413 953,-865.7413 784,-865.7413"/>
<image xlink:href="../../images/primaryKeys.png" width="11px" height="12px" preserveAspectRatio="xMinYMin meet" x="789" y="-882.741"/>
<text text-anchor="start" x="804" y="-872.8413" font-family="Helvetica,sans-Serif" font-size="11.00" fill="#000000">SPG_VERSION_ENTRY_ID</text>
<polygon fill="none" stroke="#000000" points="784,-843.7413 784,-865.7413 953,-865.7413 953,-843.7413 784,-843.7413"/>
<image xlink:href="../../images/primaryKeys.png" width="11px" height="12px" preserveAspectRatio="xMinYMin meet" x="789" y="-860.741"/>
<text text-anchor="start" x="804" y="-850.8413" font-family="Helvetica,sans-Serif" font-size="11.00" fill="#000000">TABLE_NAME</text>
<polygon fill="none" stroke="#000000" points="784,-821.7413 784,-843.7413 953,-843.7413 953,-821.7413 784,-821.7413"/>
<image xlink:href="../../images/primaryKeys.png" width="11px" height="12px" preserveAspectRatio="xMinYMin meet" x="789" y="-838.741"/>
<text text-anchor="start" x="804" y="-828.8413" font-family="Helvetica,sans-Serif" font-size="11.00" fill="#000000">PRIMARY_KEY_ID</text>
<polygon fill="none" stroke="#000000" points="784,-799.7413 784,-821.7413 953,-821.7413 953,-799.7413 784,-799.7413"/>
<image xlink:href="../../images/primaryKeys.png" width="11px" height="12px" preserveAspectRatio="xMinYMin meet" x="789" y="-816.741"/>
<text text-anchor="start" x="804" y="-806.8413" font-family="Helvetica,sans-Serif" font-size="11.00" fill="#000000">CURRENT_RECORD_FLAG</text>
<polygon fill="none" stroke="#000000" points="784,-777.7413 784,-799.7413 953,-799.7413 953,-777.7413 784,-777.7413"/>
<image xlink:href="../../images/primaryKeys.png" width="11px" height="12px" preserveAspectRatio="xMinYMin meet" x="789" y="-794.741"/>
<text text-anchor="start" x="804" y="-784.8413" font-family="Helvetica,sans-Serif" font-size="11.00" fill="#000000">OFFENDER_ID</text>
<polygon fill="none" stroke="#000000" points="784,-755.7413 784,-777.7413 953,-777.7413 953,-755.7413 784,-755.7413"/>
<image xlink:href="../../images/primaryKeys.png" width="11px" height="12px" preserveAspectRatio="xMinYMin meet" x="789" y="-772.741"/>
<text text-anchor="start" x="799.3041" y="-762.8413" font-family="Helvetica,sans-Serif" font-size="11.00" fill="#000000">BUSINESS_INTERACTION_ID</text>
<polygon fill="none" stroke="#000000" points="784,-736.7413 784,-755.7413 953,-755.7413 953,-736.7413 784,-736.7413"/>
<text text-anchor="start" x="787" y="-742.8413" font-family="Helvetica,sans-Serif" font-size="11.00" fill="#000000">...</text>
<polygon fill="#ffffff" stroke="transparent" points="784,-717.7413 784,-736.7413 837,-736.7413 837,-717.7413 784,-717.7413"/>
<polygon fill="none" stroke="#000000" points="784,-717.7413 784,-736.7413 837,-736.7413 837,-717.7413 784,-717.7413"/>
<text text-anchor="start" x="787" y="-723.8413" font-family="Helvetica,sans-Serif" font-size="11.00" fill="#000000">&lt; 2</text>
<polygon fill="#ffffff" stroke="transparent" points="837,-717.7413 837,-736.7413 925,-736.7413 925,-717.7413 837,-717.7413"/>
<polygon fill="none" stroke="#000000" points="837,-717.7413 837,-736.7413 925,-736.7413 925,-717.7413 837,-717.7413"/>
<text text-anchor="start" x="855.9791" y="-723.8413" font-family="Helvetica,sans-Serif" font-size="11.00" fill="#000000">441,439 rows</text>
<polygon fill="#ffffff" stroke="transparent" points="925,-717.7413 925,-736.7413 953,-736.7413 953,-717.7413 925,-717.7413"/>
<polygon fill="none" stroke="#000000" points="925,-717.7413 925,-736.7413 953,-736.7413 953,-717.7413 925,-717.7413"/>
<text text-anchor="start" x="943.8862" y="-723.8413" font-family="Helvetica,sans-Serif" font-size="11.00" fill="#000000"> &#160;</text>
</a>
</g>
</g>
<!-- SPG_VERSION_ENTRY&#45;&gt;OFFENDER -->
<g id="edge37" class="edge">
<title>SPG_VERSION_ENTRY:w&#45;&gt;OFFENDER:e</title>
<path fill="none" stroke="#000000" d="M769.4693,-788.9438C626.2061,-792.9171 547.7023,-852.8851 443,-748.7413 390.6169,-696.6376 476.3835,-418.7413 402.5,-418.7413"/>
<polygon fill="#000000" stroke="#000000" points="776.0008,-788.8528 784.0502,-792.3409 780.0004,-788.797 784,-788.7413 784,-788.7413 784,-788.7413 780.0004,-788.797 783.9498,-785.1416 776.0008,-788.8528 776.0008,-788.8528"/>
<ellipse fill="none" stroke="#000000" cx="772.8011" cy="-788.8974" rx="3.2" ry="3.2"/>
</g>
<!-- SPG_VERSION_ENTRY&#45;&gt;BUSINESS_INTERACTION -->
<g id="edge36" class="edge">
<title>SPG_VERSION_ENTRY:w&#45;&gt;BUSINESS_INTERACTION:e</title>
<path fill="none" stroke="#000000" d="M770.1007,-762.9294C749.3017,-749.1514 757.573,-702.7413 724.5,-702.7413"/>
<polygon fill="#000000" stroke="#000000" points="776.2849,-764.6254 783.0479,-770.2131 780.1424,-765.6833 784,-766.7413 784,-766.7413 784,-766.7413 780.1424,-765.6833 784.9521,-763.2695 776.2849,-764.6254 776.2849,-764.6254"/>
<ellipse fill="none" stroke="#000000" cx="773.1988" cy="-763.779" rx="3.2" ry="3.2"/>
</g>
<!-- RSINGH_DBA.SPG_NOTIFICATION -->
<g id="node13" class="node">
<title>RSINGH_DBA.SPG_NOTIFICATION</title>
<g id="a_node13"><a xlink:title="RSINGH_DBA.SPG_NOTIFICATION">
<polygon fill="#ffffff" stroke="transparent" points="1035.5,-186.2413 1035.5,-401.2413 1259.5,-401.2413 1259.5,-186.2413 1035.5,-186.2413"/>
<polygon fill="#f5f5f5" stroke="transparent" points="1035.5,-377.7413 1035.5,-400.7413 1259.5,-400.7413 1259.5,-377.7413 1035.5,-377.7413"/>
<polygon fill="none" stroke="#000000" points="1035.5,-377.7413 1035.5,-400.7413 1259.5,-400.7413 1259.5,-377.7413 1035.5,-377.7413"/>
<text text-anchor="start" x="1040.2484" y="-386.8413" font-family="Helvetica,sans-Serif" font-weight="bold" font-size="11.00" fill="#000000">RSINGH_DBA.SPG_NOTIFICATION</text>
<text text-anchor="start" x="1225.0219" y="-385.8413" font-family="Helvetica,sans-Serif" font-size="11.00" fill="#000000">[table]</text>
<polygon fill="none" stroke="#000000" points="1035.5,-355.7413 1035.5,-377.7413 1259.5,-377.7413 1259.5,-355.7413 1035.5,-355.7413"/>
<image xlink:href="../../images/foreignKeys.png" width="11px" height="12px" preserveAspectRatio="xMinYMin meet" x="1040.5" y="-372.741"/>
<text text-anchor="start" x="1068.5" y="-362.8413" font-family="Helvetica,sans-Serif" font-size="11.00" fill="#000000">BUSINESS_INTERACTION_ID</text>
<polygon fill="none" stroke="#000000" points="1035.5,-333.7413 1035.5,-355.7413 1259.5,-355.7413 1259.5,-333.7413 1035.5,-333.7413"/>
<image xlink:href="../../images/foreignKeys.png" width="11px" height="12px" preserveAspectRatio="xMinYMin meet" x="1040.5" y="-350.741"/>
<text text-anchor="start" x="1068.5" y="-340.8413" font-family="Helvetica,sans-Serif" font-size="11.00" fill="#000000">OFFENDER_ID</text>
<polygon fill="none" stroke="#000000" points="1035.5,-311.7413 1035.5,-333.7413 1259.5,-333.7413 1259.5,-311.7413 1035.5,-311.7413"/>
<image xlink:href="../../images/foreignKeys.png" width="11px" height="12px" preserveAspectRatio="xMinYMin meet" x="1040.5" y="-328.741"/>
<text text-anchor="start" x="1068.5" y="-318.8413" font-family="Helvetica,sans-Serif" font-size="11.00" fill="#000000">SENDER_IDENTITY_ID</text>
<polygon fill="none" stroke="#000000" points="1035.5,-289.7413 1035.5,-311.7413 1259.5,-311.7413 1259.5,-289.7413 1035.5,-289.7413"/>
<image xlink:href="../../images/foreignKeys.png" width="11px" height="12px" preserveAspectRatio="xMinYMin meet" x="1040.5" y="-306.741"/>
<text text-anchor="start" x="1068.5" y="-296.8413" font-family="Helvetica,sans-Serif" font-size="11.00" fill="#000000">RECEIVER_IDENTITY_ID</text>
<polygon fill="none" stroke="#000000" points="1035.5,-267.7413 1035.5,-289.7413 1259.5,-289.7413 1259.5,-267.7413 1035.5,-267.7413"/>
<image xlink:href="../../images/foreignKeys.png" width="11px" height="12px" preserveAspectRatio="xMinYMin meet" x="1040.5" y="-284.741"/>
<text text-anchor="start" x="1068.5" y="-274.8413" font-family="Helvetica,sans-Serif" font-size="11.00" fill="#000000">SPG_MESSAGE_CONTEXT_ID</text>
<polygon fill="none" stroke="#000000" points="1035.5,-245.7413 1035.5,-267.7413 1259.5,-267.7413 1259.5,-245.7413 1035.5,-245.7413"/>
<image xlink:href="../../images/foreignKeys.png" width="11px" height="12px" preserveAspectRatio="xMinYMin meet" x="1040.5" y="-262.741"/>
<text text-anchor="start" x="1066.9972" y="-252.8413" font-family="Helvetica,sans-Serif" font-size="11.00" fill="#000000">SPG_INTERCHANGE_STATUS_ID</text>
<polygon fill="none" stroke="#000000" points="1035.5,-223.7413 1035.5,-245.7413 1259.5,-245.7413 1259.5,-223.7413 1035.5,-223.7413"/>
<image xlink:href="../../images/foreignKeys.png" width="11px" height="12px" preserveAspectRatio="xMinYMin meet" x="1040.5" y="-240.741"/>
<text text-anchor="start" x="1068.5" y="-230.8413" font-family="Helvetica,sans-Serif" font-size="11.00" fill="#000000">DATA_SCRIPT_MESSAGE_ID</text>
<polygon fill="none" stroke="#000000" points="1035.5,-204.7413 1035.5,-223.7413 1259.5,-223.7413 1259.5,-204.7413 1035.5,-204.7413"/>
<text text-anchor="start" x="1038.5" y="-210.8413" font-family="Helvetica,sans-Serif" font-size="11.00" fill="#000000">...</text>
<polygon fill="#ffffff" stroke="transparent" points="1035.5,-185.7413 1035.5,-204.7413 1132.5,-204.7413 1132.5,-185.7413 1035.5,-185.7413"/>
<polygon fill="none" stroke="#000000" points="1035.5,-185.7413 1035.5,-204.7413 1132.5,-204.7413 1132.5,-185.7413 1035.5,-185.7413"/>
<text text-anchor="start" x="1038.5" y="-191.8413" font-family="Helvetica,sans-Serif" font-size="11.00" fill="#000000">&lt; 7</text>
<polygon fill="#ffffff" stroke="transparent" points="1132.5,-185.7413 1132.5,-204.7413 1208.5,-204.7413 1208.5,-185.7413 1132.5,-185.7413"/>
<polygon fill="none" stroke="#000000" points="1132.5,-185.7413 1132.5,-204.7413 1208.5,-204.7413 1208.5,-185.7413 1132.5,-185.7413"/>
<text text-anchor="start" x="1173.1105" y="-191.8413" font-family="Helvetica,sans-Serif" font-size="11.00" fill="#000000">0 rows</text>
<polygon fill="#ffffff" stroke="transparent" points="1208.5,-185.7413 1208.5,-204.7413 1259.5,-204.7413 1259.5,-185.7413 1208.5,-185.7413"/>
<polygon fill="none" stroke="#000000" points="1208.5,-185.7413 1208.5,-204.7413 1259.5,-204.7413 1259.5,-185.7413 1208.5,-185.7413"/>
<text text-anchor="start" x="1250.3862" y="-191.8413" font-family="Helvetica,sans-Serif" font-size="11.00" fill="#000000"> &#160;</text>
</a>
</g>
</g>
<!-- RSINGH_DBA.SPG_NOTIFICATION&#45;&gt;OFFENDER -->
<g id="edge40" class="edge">
<title>RSINGH_DBA.SPG_NOTIFICATION:w&#45;&gt;OFFENDER:e</title>
<path fill="none" stroke="#000000" d="M1020.9933,-344.6664C768.3285,-342.0542 678.2898,-272.6659 443,-380.7413 420.5703,-391.0439 427.1827,-418.7413 402.5,-418.7413"/>
<polygon fill="#000000" stroke="#000000" points="1027.5001,-344.6999 1035.4814,-348.3412 1031.5001,-344.7206 1035.5,-344.7413 1035.5,-344.7413 1035.5,-344.7413 1031.5001,-344.7206 1035.5186,-341.1413 1027.5001,-344.6999 1027.5001,-344.6999"/>
<ellipse fill="none" stroke="#000000" cx="1024.3001" cy="-344.6834" rx="3.2" ry="3.2"/>
</g>
<!-- RSINGH_DBA.SPG_NOTIFICATION&#45;&gt;DATA_SCRIPT_MESSAGE -->
<g id="edge39" class="edge">
<title>RSINGH_DBA.SPG_NOTIFICATION:w&#45;&gt;DATA_SCRIPT_MESSAGE:e</title>
<path fill="none" stroke="#000000" d="M1022.2693,-240.575C986.3638,-276.917 1010.8397,-470.7413 961,-470.7413"/>
<polygon fill="#000000" stroke="#000000" points="1028.18,-237.9689 1036.9524,-238.0353 1031.84,-236.3551 1035.5,-234.7413 1035.5,-234.7413 1035.5,-234.7413 1031.84,-236.3551 1034.0476,-231.4472 1028.18,-237.9689 1028.18,-237.9689"/>
<ellipse fill="none" stroke="#000000" cx="1025.252" cy="-239.2599" rx="3.2" ry="3.2"/>
</g>
<!-- RSINGH_DBA.SPG_NOTIFICATION&#45;&gt;BUSINESS_INTERACTION -->
<g id="edge38" class="edge">
<title>RSINGH_DBA.SPG_NOTIFICATION:w&#45;&gt;BUSINESS_INTERACTION:e</title>
<path fill="none" stroke="#000000" d="M1021.346,-370.6522C1011.0831,-378.1078 1010.529,-395.0994 1002,-411.7413 979.8826,-454.8971 1006.0699,-484.4774 969,-515.7413 899.7148,-574.1748 834.9209,-483.7274 767,-543.7413 712.1847,-592.1752 797.6476,-702.7413 724.5,-702.7413"/>
<polygon fill="#000000" stroke="#000000" points="1027.7889,-368.8719 1036.4588,-370.2112 1031.6445,-367.8066 1035.5,-366.7413 1035.5,-366.7413 1035.5,-366.7413 1031.6445,-367.8066 1034.5412,-363.2713 1027.7889,-368.8719 1027.7889,-368.8719"/>
<ellipse fill="none" stroke="#000000" cx="1024.7045" cy="-369.7242" rx="3.2" ry="3.2"/>
</g>
<!-- RSINGH_DBA.SPG_NOTIFICATION&#45;&gt;R_STANDARD_REFERENCE_LIST -->
<g id="edge43" class="edge">
<title>RSINGH_DBA.SPG_NOTIFICATION:w&#45;&gt;R_STANDARD_REFERENCE_LIST:e</title>
<path fill="none" stroke="#000000" d="M1020.931,-255.617C1002.1114,-252.4789 993.6452,-243.6644 969,-240.7413 814.5272,-222.4195 390.7146,-143.875 269,-240.7413 205.4786,-291.2946 309.1826,-418.7413 228,-418.7413"/>
<polygon fill="#000000" stroke="#000000" points="1027.5237,-256.1257 1035.223,-260.3306 1031.5119,-256.4335 1035.5,-256.7413 1035.5,-256.7413 1035.5,-256.7413 1031.5119,-256.4335 1035.777,-253.1519 1027.5237,-256.1257 1027.5237,-256.1257"/>
<ellipse fill="none" stroke="#000000" cx="1024.3332" cy="-255.8794" rx="3.2" ry="3.2"/>
</g>
<!-- RSINGH_DBA.SPG_NOTIFICATION&#45;&gt;R_STANDARD_REFERENCE_LIST -->
<g id="edge44" class="edge">
<title>RSINGH_DBA.SPG_NOTIFICATION:w&#45;&gt;R_STANDARD_REFERENCE_LIST:e</title>
<path fill="none" stroke="#000000" d="M1020.8894,-278.5533C840.2652,-274.1624 402.2381,-195.2193 269,-293.7413 221.9887,-328.5034 286.4677,-418.7413 228,-418.7413"/>
<polygon fill="#000000" stroke="#000000" points="1027.5007,-278.6383 1035.4537,-282.341 1031.5003,-278.6898 1035.5,-278.7413 1035.5,-278.7413 1035.5,-278.7413 1031.5003,-278.6898 1035.5463,-275.1416 1027.5007,-278.6383 1027.5007,-278.6383"/>
<ellipse fill="none" stroke="#000000" cx="1024.3009" cy="-278.5971" rx="3.2" ry="3.2"/>
</g>
<!-- RSINGH_DBA.SPG_NOTIFICATION&#45;&gt;PROBATION_AREA -->
<g id="edge41" class="edge">
<title>RSINGH_DBA.SPG_NOTIFICATION:w&#45;&gt;PROBATION_AREA:e</title>
<path fill="none" stroke="#000000" d="M1021.0613,-302.0566C916.5922,-322.7927 1066.6231,-581.7413 940,-581.7413"/>
<polygon fill="#000000" stroke="#000000" points="1027.533,-301.4671 1035.8266,-304.3264 1031.5165,-301.1042 1035.5,-300.7413 1035.5,-300.7413 1035.5,-300.7413 1031.5165,-301.1042 1035.1734,-297.1561 1027.533,-301.4671 1027.533,-301.4671"/>
<ellipse fill="none" stroke="#000000" cx="1024.3462" cy="-301.7574" rx="3.2" ry="3.2"/>
</g>
<!-- RSINGH_DBA.SPG_NOTIFICATION&#45;&gt;PROBATION_AREA -->
<g id="edge42" class="edge">
<title>RSINGH_DBA.SPG_NOTIFICATION:w&#45;&gt;PROBATION_AREA:e</title>
<path fill="none" stroke="#000000" d="M1021.1513,-324.1348C925.1896,-344.5209 1057.4153,-581.7413 940,-581.7413"/>
<polygon fill="#000000" stroke="#000000" points="1027.5375,-323.5146 1035.848,-326.3244 1031.5187,-323.1279 1035.5,-322.7413 1035.5,-322.7413 1035.5,-322.7413 1031.5187,-323.1279 1035.152,-319.1581 1027.5375,-323.5146 1027.5375,-323.5146"/>
<ellipse fill="none" stroke="#000000" cx="1024.3524" cy="-323.8239" rx="3.2" ry="3.2"/>
</g>
<!-- RSINGH_DBA.SPG_NOTIFICATION_INTERIM -->
<g id="node14" class="node">
<title>RSINGH_DBA.SPG_NOTIFICATION_INTERIM</title>
<g id="a_node14"><a xlink:title="RSINGH_DBA.SPG_NOTIFICATION_INTERIM">
<polygon fill="#ffffff" stroke="transparent" points="1010,-422.2413 1010,-637.2413 1285,-637.2413 1285,-422.2413 1010,-422.2413"/>
<polygon fill="#f5f5f5" stroke="transparent" points="1010.5,-613.7413 1010.5,-636.7413 1285.5,-636.7413 1285.5,-613.7413 1010.5,-613.7413"/>
<polygon fill="none" stroke="#000000" points="1010.5,-613.7413 1010.5,-636.7413 1285.5,-636.7413 1285.5,-613.7413 1010.5,-613.7413"/>
<text text-anchor="start" x="1015.0843" y="-622.8413" font-family="Helvetica,sans-Serif" font-weight="bold" font-size="11.00" fill="#000000">RSINGH_DBA.SPG_NOTIFICATION_INTERIM</text>
<text text-anchor="start" x="1251.0219" y="-621.8413" font-family="Helvetica,sans-Serif" font-size="11.00" fill="#000000">[table]</text>
<polygon fill="none" stroke="#000000" points="1010.5,-591.7413 1010.5,-613.7413 1285.5,-613.7413 1285.5,-591.7413 1010.5,-591.7413"/>
<image xlink:href="../../images/foreignKeys.png" width="11px" height="12px" preserveAspectRatio="xMinYMin meet" x="1015.5" y="-608.741"/>
<text text-anchor="start" x="1069.5" y="-598.8413" font-family="Helvetica,sans-Serif" font-size="11.00" fill="#000000">BUSINESS_INTERACTION_ID</text>
<polygon fill="none" stroke="#000000" points="1010.5,-569.7413 1010.5,-591.7413 1285.5,-591.7413 1285.5,-569.7413 1010.5,-569.7413"/>
<image xlink:href="../../images/foreignKeys.png" width="11px" height="12px" preserveAspectRatio="xMinYMin meet" x="1015.5" y="-586.741"/>
<text text-anchor="start" x="1069.5" y="-576.8413" font-family="Helvetica,sans-Serif" font-size="11.00" fill="#000000">OFFENDER_ID</text>
<polygon fill="none" stroke="#000000" points="1010.5,-547.7413 1010.5,-569.7413 1285.5,-569.7413 1285.5,-547.7413 1010.5,-547.7413"/>
<image xlink:href="../../images/foreignKeys.png" width="11px" height="12px" preserveAspectRatio="xMinYMin meet" x="1015.5" y="-564.741"/>
<text text-anchor="start" x="1069.5" y="-554.8413" font-family="Helvetica,sans-Serif" font-size="11.00" fill="#000000">SENDER_IDENTITY_ID</text>
<polygon fill="none" stroke="#000000" points="1010.5,-525.7413 1010.5,-547.7413 1285.5,-547.7413 1285.5,-525.7413 1010.5,-525.7413"/>
<image xlink:href="../../images/foreignKeys.png" width="11px" height="12px" preserveAspectRatio="xMinYMin meet" x="1015.5" y="-542.741"/>
<text text-anchor="start" x="1069.5" y="-532.8413" font-family="Helvetica,sans-Serif" font-size="11.00" fill="#000000">RECEIVER_IDENTITY_ID</text>
<polygon fill="none" stroke="#000000" points="1010.5,-503.7413 1010.5,-525.7413 1285.5,-525.7413 1285.5,-503.7413 1010.5,-503.7413"/>
<image xlink:href="../../images/foreignKeys.png" width="11px" height="12px" preserveAspectRatio="xMinYMin meet" x="1015.5" y="-520.741"/>
<text text-anchor="start" x="1069.5" y="-510.8413" font-family="Helvetica,sans-Serif" font-size="11.00" fill="#000000">SPG_MESSAGE_CONTEXT_ID</text>
<polygon fill="none" stroke="#000000" points="1010.5,-481.7413 1010.5,-503.7413 1285.5,-503.7413 1285.5,-481.7413 1010.5,-481.7413"/>
<image xlink:href="../../images/foreignKeys.png" width="11px" height="12px" preserveAspectRatio="xMinYMin meet" x="1015.5" y="-498.741"/>
<text text-anchor="start" x="1067.9972" y="-488.8413" font-family="Helvetica,sans-Serif" font-size="11.00" fill="#000000">SPG_INTERCHANGE_STATUS_ID</text>
<polygon fill="none" stroke="#000000" points="1010.5,-459.7413 1010.5,-481.7413 1285.5,-481.7413 1285.5,-459.7413 1010.5,-459.7413"/>
<image xlink:href="../../images/foreignKeys.png" width="11px" height="12px" preserveAspectRatio="xMinYMin meet" x="1015.5" y="-476.741"/>
<text text-anchor="start" x="1069.5" y="-466.8413" font-family="Helvetica,sans-Serif" font-size="11.00" fill="#000000">DATA_SCRIPT_MESSAGE_ID</text>
<polygon fill="none" stroke="#000000" points="1010.5,-440.7413 1010.5,-459.7413 1285.5,-459.7413 1285.5,-440.7413 1010.5,-440.7413"/>
<text text-anchor="start" x="1013.5" y="-446.8413" font-family="Helvetica,sans-Serif" font-size="11.00" fill="#000000">...</text>
<polygon fill="#ffffff" stroke="transparent" points="1010.5,-421.7413 1010.5,-440.7413 1133.5,-440.7413 1133.5,-421.7413 1010.5,-421.7413"/>
<polygon fill="none" stroke="#000000" points="1010.5,-421.7413 1010.5,-440.7413 1133.5,-440.7413 1133.5,-421.7413 1010.5,-421.7413"/>
<text text-anchor="start" x="1013.5" y="-427.8413" font-family="Helvetica,sans-Serif" font-size="11.00" fill="#000000">&lt; 7</text>
<polygon fill="#ffffff" stroke="transparent" points="1133.5,-421.7413 1133.5,-440.7413 1222.5,-440.7413 1222.5,-421.7413 1133.5,-421.7413"/>
<polygon fill="none" stroke="#000000" points="1133.5,-421.7413 1133.5,-440.7413 1222.5,-440.7413 1222.5,-421.7413 1133.5,-421.7413"/>
<text text-anchor="start" x="1187.1105" y="-427.8413" font-family="Helvetica,sans-Serif" font-size="11.00" fill="#000000">0 rows</text>
<polygon fill="#ffffff" stroke="transparent" points="1222.5,-421.7413 1222.5,-440.7413 1285.5,-440.7413 1285.5,-421.7413 1222.5,-421.7413"/>
<polygon fill="none" stroke="#000000" points="1222.5,-421.7413 1222.5,-440.7413 1285.5,-440.7413 1285.5,-421.7413 1222.5,-421.7413"/>
<text text-anchor="start" x="1276.3862" y="-427.8413" font-family="Helvetica,sans-Serif" font-size="11.00" fill="#000000"> &#160;</text>
</a>
</g>
</g>
<!-- RSINGH_DBA.SPG_NOTIFICATION_INTERIM&#45;&gt;OFFENDER -->
<g id="edge47" class="edge">
<title>RSINGH_DBA.SPG_NOTIFICATION_INTERIM:w&#45;&gt;OFFENDER:e</title>
<path fill="none" stroke="#000000" d="M996.6603,-585.6208C986.322,-595.4449 988.0793,-617.3825 969,-625.7413 927.8839,-643.7545 804.5337,-650.363 767,-625.7413 736.2092,-605.5428 762.5052,-573.0544 734,-549.7413 631.6385,-466.0242 550.2409,-565.1092 443,-487.7413 414.1623,-466.9366 438.059,-418.7413 402.5,-418.7413"/>
<polygon fill="#000000" stroke="#000000" points="1002.9552,-583.4014 1011.6971,-584.1364 1006.7276,-582.0713 1010.5,-580.7413 1010.5,-580.7413 1010.5,-580.7413 1006.7276,-582.0713 1009.3029,-577.3461 1002.9552,-583.4014 1002.9552,-583.4014"/>
<ellipse fill="none" stroke="#000000" cx="999.9373" cy="-584.4655" rx="3.2" ry="3.2"/>
</g>
<!-- RSINGH_DBA.SPG_NOTIFICATION_INTERIM&#45;&gt;DATA_SCRIPT_MESSAGE -->
<g id="edge46" class="edge">
<title>RSINGH_DBA.SPG_NOTIFICATION_INTERIM:w&#45;&gt;DATA_SCRIPT_MESSAGE:e</title>
<path fill="none" stroke="#000000" d="M995.8428,-470.7413C984.4139,-470.7413 977.1563,-470.7413 961,-470.7413"/>
<polygon fill="#000000" stroke="#000000" points="1002.5,-470.7413 1010.5,-474.3413 1006.5,-470.7413 1010.5,-470.7413 1010.5,-470.7413 1010.5,-470.7413 1006.5,-470.7413 1010.5,-467.1413 1002.5,-470.7413 1002.5,-470.7413"/>
<ellipse fill="none" stroke="#000000" cx="999.3" cy="-470.7413" rx="3.2" ry="3.2"/>
</g>
<!-- RSINGH_DBA.SPG_NOTIFICATION_INTERIM&#45;&gt;BUSINESS_INTERACTION -->
<g id="edge45" class="edge">
<title>RSINGH_DBA.SPG_NOTIFICATION_INTERIM:w&#45;&gt;BUSINESS_INTERACTION:e</title>
<path fill="none" stroke="#000000" d="M996.6456,-607.2738C985.6928,-616.8826 987.8406,-639.274 969,-649.7413 889.4167,-693.9554 854.1454,-657.3959 767,-683.7413 747.1947,-689.7287 745.1905,-702.7413 724.5,-702.7413"/>
<polygon fill="#000000" stroke="#000000" points="1002.8966,-605.2288 1011.6194,-606.1628 1006.6983,-603.985 1010.5,-602.7413 1010.5,-602.7413 1010.5,-602.7413 1006.6983,-603.985 1009.3806,-599.3197 1002.8966,-605.2288 1002.8966,-605.2288"/>
<ellipse fill="none" stroke="#000000" cx="999.8552" cy="-606.2238" rx="3.2" ry="3.2"/>
</g>
<!-- RSINGH_DBA.SPG_NOTIFICATION_INTERIM&#45;&gt;R_STANDARD_REFERENCE_LIST -->
<g id="edge50" class="edge">
<title>RSINGH_DBA.SPG_NOTIFICATION_INTERIM:w&#45;&gt;R_STANDARD_REFERENCE_LIST:e</title>
<path fill="none" stroke="#000000" d="M996.1818,-490.8939C945.6505,-475.4013 1026.0337,-366.589 969,-321.7413 907.8604,-273.6649 333.8251,-278.7635 269,-321.7413 229.9904,-347.6038 274.804,-418.7413 228,-418.7413"/>
<polygon fill="#000000" stroke="#000000" points="1002.5658,-491.7175 1010.0393,-496.3117 1006.5329,-492.2294 1010.5,-492.7413 1010.5,-492.7413 1010.5,-492.7413 1006.5329,-492.2294 1010.9607,-489.1709 1002.5658,-491.7175 1002.5658,-491.7175"/>
<ellipse fill="none" stroke="#000000" cx="999.3921" cy="-491.308" rx="3.2" ry="3.2"/>
</g>
<!-- RSINGH_DBA.SPG_NOTIFICATION_INTERIM&#45;&gt;R_STANDARD_REFERENCE_LIST -->
<g id="edge51" class="edge">
<title>RSINGH_DBA.SPG_NOTIFICATION_INTERIM:w&#45;&gt;R_STANDARD_REFERENCE_LIST:e</title>
<path fill="none" stroke="#000000" d="M996.0151,-512.8227C946.6021,-497.1979 1025.0619,-390.2828 969,-345.7413 938.5512,-321.5495 302.4014,-328.8234 269,-348.7413 238.0331,-367.2074 264.0548,-418.7413 228,-418.7413"/>
<polygon fill="#000000" stroke="#000000" points="1002.5693,-513.6908 1010.0273,-518.3101 1006.5346,-514.216 1010.5,-514.7413 1010.5,-514.7413 1010.5,-514.7413 1006.5346,-514.216 1010.9727,-511.1724 1002.5693,-513.6908 1002.5693,-513.6908"/>
<ellipse fill="none" stroke="#000000" cx="999.397" cy="-513.2706" rx="3.2" ry="3.2"/>
</g>
<!-- RSINGH_DBA.SPG_NOTIFICATION_INTERIM&#45;&gt;PROBATION_AREA -->
<g id="edge48" class="edge">
<title>RSINGH_DBA.SPG_NOTIFICATION_INTERIM:w&#45;&gt;PROBATION_AREA:e</title>
<path fill="none" stroke="#000000" d="M996.0769,-539.5562C973.5472,-549.4078 971.5093,-581.7413 940,-581.7413"/>
<polygon fill="#000000" stroke="#000000" points="1002.6481,-538.2737 1011.1896,-540.2746 1006.5741,-537.5075 1010.5,-536.7413 1010.5,-536.7413 1010.5,-536.7413 1006.5741,-537.5075 1009.8104,-533.2079 1002.6481,-538.2737 1002.6481,-538.2737"/>
<ellipse fill="none" stroke="#000000" cx="999.5074" cy="-538.8867" rx="3.2" ry="3.2"/>
</g>
<!-- RSINGH_DBA.SPG_NOTIFICATION_INTERIM&#45;&gt;PROBATION_AREA -->
<g id="edge49" class="edge">
<title>RSINGH_DBA.SPG_NOTIFICATION_INTERIM:w&#45;&gt;PROBATION_AREA:e</title>
<path fill="none" stroke="#000000" d="M996.0247,-560.47C975.2013,-565.8189 967.4226,-581.7413 940,-581.7413"/>
<polygon fill="#000000" stroke="#000000" points="1002.5564,-559.69 1010.9269,-562.3159 1006.5282,-559.2156 1010.5,-558.7413 1010.5,-558.7413 1010.5,-558.7413 1006.5282,-559.2156 1010.0731,-555.1667 1002.5564,-559.69 1002.5564,-559.69"/>
<ellipse fill="none" stroke="#000000" cx="999.379" cy="-560.0695" rx="3.2" ry="3.2"/>
</g>
</g>
</svg>
