<?xml version="1.0" encoding="UTF-8" standalone="no"?>
<!DOCTYPE svg PUBLIC "-//W3C//DTD SVG 1.1//EN"
 "http://www.w3.org/Graphics/SVG/1.1/DTD/svg11.dtd">
<!-- Generated by graphviz version 2.40.1 (20161225.0304)
 -->
<!-- Title: oneDegreeRelationshipsDiagramImplied Pages: 1 -->
<svg width="499pt" height="182pt"
 viewBox="0.00 0.00 499.00 182.20" xmlns="http://www.w3.org/2000/svg" xmlns:xlink="http://www.w3.org/1999/xlink">
<g id="graph0" class="graph" transform="scale(1 1) rotate(0) translate(4 178.2)">
<title>oneDegreeRelationshipsDiagramImplied</title>
<polygon fill="#ffffff" stroke="transparent" points="-4,4 -4,-178.2 495,-178.2 495,4 -4,4"/>
<text text-anchor="middle" x="72.4936" y="-7.3" font-family="Helvetica,sans-Serif" font-size="11.00" fill="#000000">Generated by SchemaSpy</text>
<!-- SPG_DOCUMENT -->
<g id="node1" class="node">
<title>SPG_DOCUMENT</title>
<g id="a_node1"><a xlink:href="../../tables/SPG_DOCUMENT.html" xlink:title="SPG_DOCUMENT" target="_top">
<polygon fill="#ffffff" stroke="transparent" points="281,-84.2 281,-170.2 483,-170.2 483,-84.2 281,-84.2"/>
<polygon fill="#f5f5f5" stroke="transparent" points="281,-147.2 281,-170.2 483,-170.2 483,-147.2 281,-147.2"/>
<polygon fill="none" stroke="#000000" points="281,-147.2 281,-170.2 483,-170.2 483,-147.2 281,-147.2"/>
<text text-anchor="start" x="286" y="-156.3" font-family="Helvetica,sans-Serif" font-weight="bold" font-size="11.00" fill="#000000">SPG_DOCUMENT</text>
<text text-anchor="start" x="449.8895" y="-155.3" font-family="Helvetica,sans-Serif" font-size="11.00" fill="#000000">[view]</text>
<polygon fill="none" stroke="#000000" points="281,-125.2 281,-147.2 483,-147.2 483,-125.2 281,-125.2"/>
<image xlink:href="../../images/foreignKeys.png" width="11px" height="12px" preserveAspectRatio="xMinYMin meet" x="286" y="-142.2"/>
<text text-anchor="start" x="301" y="-132.3" font-family="Helvetica,sans-Serif" font-size="11.00" fill="#000000">OFFENDER_ID</text>
<polygon fill="none" stroke="#000000" points="281,-103.2 281,-125.2 483,-125.2 483,-103.2 281,-103.2"/>
<image xlink:href="../../images/foreignKeys.png" width="11px" height="12px" preserveAspectRatio="xMinYMin meet" x="286" y="-120.2"/>
<text text-anchor="start" x="301" y="-110.3" font-family="Helvetica,sans-Serif" font-size="11.00" fill="#000000">SOURCE_TABLE_KEY</text>
<polygon fill="none" stroke="#000000" points="281,-84.2 281,-103.2 483,-103.2 483,-84.2 281,-84.2"/>
<text text-anchor="start" x="284" y="-90.3" font-family="Helvetica,sans-Serif" font-size="11.00" fill="#000000">...</text>
</a>
</g>
</g>
<!-- CHANGE_CAPTURE_KEY -->
<g id="node2" class="node">
<title>CHANGE_CAPTURE_KEY</title>
<g id="a_node2"><a xlink:href="../../tables/CHANGE_CAPTURE_KEY.html" xlink:title="CHANGE_CAPTURE_KEY" target="_top">
<polygon fill="#ffffff" stroke="transparent" points="8,-38.2 8,-150.2 232,-150.2 232,-38.2 8,-38.2"/>
<polygon fill="#f5f5f5" stroke="transparent" points="10,-125.2 10,-148.2 230,-148.2 230,-125.2 10,-125.2"/>
<polygon fill="none" stroke="#000000" points="10,-125.2 10,-148.2 230,-148.2 230,-125.2 10,-125.2"/>
<text text-anchor="start" x="15" y="-134.3" font-family="Helvetica,sans-Serif" font-weight="bold" font-size="11.00" fill="#000000">CHANGE_CAPTURE_KEY</text>
<text text-anchor="start" x="195.0437" y="-133.3" font-family="Helvetica,sans-Serif" font-size="11.00" fill="#000000">[table]</text>
<polygon fill="none" stroke="#000000" points="10,-103.2 10,-125.2 157,-125.2 157,-103.2 10,-103.2"/>
<image xlink:href="../../images/primaryKeys.png" width="11px" height="12px" preserveAspectRatio="xMinYMin meet" x="15" y="-120.2"/>
<text text-anchor="start" x="30" y="-110.3" font-family="Helvetica,sans-Serif" font-size="11.00" fill="#000000">KEY</text>
<polygon fill="none" stroke="#000000" points="157,-103.2 157,-125.2 230,-125.2 230,-103.2 157,-103.2"/>
<text text-anchor="start" x="160" y="-110.9" font-family="Helvetica,sans-Serif" font-size="11.00" fill="#000000">number[38]</text>
<polygon fill="none" stroke="#000000" points="10,-81.2 10,-103.2 157,-103.2 157,-81.2 10,-81.2"/>
<text text-anchor="start" x="30" y="-88.3" font-family="Helvetica,sans-Serif" font-size="11.00" fill="#000000">ID_ROW</text>
<polygon fill="none" stroke="#000000" points="157,-81.2 157,-103.2 230,-103.2 230,-81.2 157,-81.2"/>
<text text-anchor="start" x="160" y="-88.9" font-family="Helvetica,sans-Serif" font-size="11.00" fill="#000000">number[38]</text>
<polygon fill="none" stroke="#000000" points="10,-59.2 10,-81.2 157,-81.2 157,-59.2 10,-59.2"/>
<text text-anchor="start" x="30" y="-66.3" font-family="Helvetica,sans-Serif" font-size="11.00" fill="#000000">CHAR_ROW</text>
<polygon fill="none" stroke="#000000" points="157,-59.2 157,-81.2 230,-81.2 230,-59.2 157,-59.2"/>
<text text-anchor="start" x="159.8791" y="-66.9" font-family="Helvetica,sans-Serif" font-size="11.00" fill="#000000">varchar2[100]</text>
<polygon fill="#ffffff" stroke="transparent" points="10,-40.2 10,-59.2 75,-59.2 75,-40.2 10,-40.2"/>
<polygon fill="none" stroke="#000000" points="10,-40.2 10,-59.2 75,-59.2 75,-40.2 10,-40.2"/>
<text text-anchor="start" x="13" y="-46.3" font-family="Helvetica,sans-Serif" font-size="11.00" fill="#000000">&lt; 0</text>
<polygon fill="#ffffff" stroke="transparent" points="75,-40.2 75,-59.2 157,-59.2 157,-40.2 75,-40.2"/>
<polygon fill="none" stroke="#000000" points="75,-40.2 75,-59.2 157,-59.2 157,-40.2 75,-40.2"/>
<text text-anchor="start" x="121.6105" y="-46.3" font-family="Helvetica,sans-Serif" font-size="11.00" fill="#000000">0 rows</text>
<polygon fill="#ffffff" stroke="transparent" points="157,-40.2 157,-59.2 230,-59.2 230,-40.2 157,-40.2"/>
<polygon fill="none" stroke="#000000" points="157,-40.2 157,-59.2 230,-59.2 230,-40.2 157,-40.2"/>
<text text-anchor="start" x="211.4053" y="-46.3" font-family="Helvetica,sans-Serif" font-size="11.00" fill="#000000">1 &gt;</text>
<polygon fill="none" stroke="#000000" stroke-width="2" points="9,-39.2 9,-149.2 231,-149.2 231,-39.2 9,-39.2"/>
</a>
</g>
</g>
<!-- SPG_DOCUMENT&#45;&gt;CHANGE_CAPTURE_KEY -->
<g id="edge1" class="edge">
<title>SPG_DOCUMENT:w&#45;&gt;CHANGE_CAPTURE_KEY:e</title>
<path fill="none" stroke="#000000" stroke-dasharray="5,2" d="M266.276,-114.2C254.2815,-114.2 246.8229,-114.2 230,-114.2"/>
<polygon fill="#000000" stroke="#000000" points="273,-114.2001 281,-117.8 277,-114.2 281,-114.2 281,-114.2 281,-114.2 277,-114.2 281,-110.6 273,-114.2001 273,-114.2001"/>
<ellipse fill="none" stroke="#000000" cx="269.8" cy="-114.2001" rx="3.2" ry="3.2"/>
</g>
</g>
</svg>
