<?xml version="1.0" encoding="UTF-8" standalone="no"?>
<!DOCTYPE svg PUBLIC "-//W3C//DTD SVG 1.1//EN"
 "http://www.w3.org/Graphics/SVG/1.1/DTD/svg11.dtd">
<!-- Generated by graphviz version 2.40.1 (20161225.0304)
 -->
<!-- Title: oneDegreeRelationshipsDiagram Pages: 1 -->
<svg width="565pt" height="2173pt"
 viewBox="0.00 0.00 565.00 2173.20" xmlns="http://www.w3.org/2000/svg" xmlns:xlink="http://www.w3.org/1999/xlink">
<g id="graph0" class="graph" transform="scale(1 1) rotate(0) translate(4 2169.2)">
<title>oneDegreeRelationshipsDiagram</title>
<polygon fill="#ffffff" stroke="transparent" points="-4,4 -4,-2169.2 561,-2169.2 561,4 -4,4"/>
<text text-anchor="middle" x="72.4936" y="-7.3" font-family="Helvetica,sans-Serif" font-size="11.00" fill="#000000">Generated by SchemaSpy</text>
<!-- CONTACT_UPLOAD_DOCUMENT -->
<g id="node1" class="node">
<title>CONTACT_UPLOAD_DOCUMENT</title>
<g id="a_node1"><a xlink:href="../../tables/CONTACT_UPLOAD_DOCUMENT.html" xlink:title="CONTACT_UPLOAD_DOCUMENT" target="_top">
<polygon fill="#ffffff" stroke="transparent" points="269,-1382.7 269,-1648.7 549,-1648.7 549,-1382.7 269,-1382.7"/>
<polygon fill="#f5f5f5" stroke="transparent" points="271,-1623.7 271,-1646.7 547,-1646.7 547,-1623.7 271,-1623.7"/>
<polygon fill="none" stroke="#000000" points="271,-1623.7 271,-1646.7 547,-1646.7 547,-1623.7 271,-1623.7"/>
<text text-anchor="start" x="276" y="-1632.8" font-family="Helvetica,sans-Serif" font-weight="bold" font-size="11.00" fill="#000000">CONTACT_UPLOAD_DOCUMENT</text>
<text text-anchor="start" x="512.0437" y="-1631.8" font-family="Helvetica,sans-Serif" font-size="11.00" fill="#000000">[table]</text>
<polygon fill="none" stroke="#000000" points="271,-1601.7 271,-1623.7 474,-1623.7 474,-1601.7 271,-1601.7"/>
<image xlink:href="../../images/primaryKeys.png" width="11px" height="12px" preserveAspectRatio="xMinYMin meet" x="276" y="-1618.7"/>
<text text-anchor="start" x="284.3693" y="-1608.8" font-family="Helvetica,sans-Serif" font-size="11.00" fill="#000000">CONTACT_UPLOAD_DOCUMENT_ID</text>
<polygon fill="none" stroke="#000000" points="474,-1601.7 474,-1623.7 547,-1623.7 547,-1601.7 474,-1601.7"/>
<text text-anchor="start" x="477" y="-1609.4" font-family="Helvetica,sans-Serif" font-size="11.00" fill="#000000">number[38]</text>
<polygon fill="none" stroke="#000000" points="271,-1579.7 271,-1601.7 474,-1601.7 474,-1579.7 271,-1579.7"/>
<image xlink:href="../../images/primaryKeys.png" width="11px" height="12px" preserveAspectRatio="xMinYMin meet" x="276" y="-1596.7"/>
<text text-anchor="start" x="291" y="-1586.8" font-family="Helvetica,sans-Serif" font-size="11.00" fill="#000000">CONTACT_ID</text>
<polygon fill="none" stroke="#000000" points="474,-1579.7 474,-1601.7 547,-1601.7 547,-1579.7 474,-1579.7"/>
<text text-anchor="start" x="477" y="-1587.4" font-family="Helvetica,sans-Serif" font-size="11.00" fill="#000000">number[38]</text>
<polygon fill="none" stroke="#000000" points="271,-1557.7 271,-1579.7 474,-1579.7 474,-1557.7 271,-1557.7"/>
<text text-anchor="start" x="291" y="-1564.8" font-family="Helvetica,sans-Serif" font-size="11.00" fill="#000000">DOCUMENT</text>
<polygon fill="none" stroke="#000000" points="474,-1557.7 474,-1579.7 547,-1579.7 547,-1557.7 474,-1557.7"/>
<text text-anchor="start" x="477" y="-1565.4" font-family="Helvetica,sans-Serif" font-size="11.00" fill="#000000">blob[4000]</text>
<polygon fill="none" stroke="#000000" points="271,-1535.7 271,-1557.7 474,-1557.7 474,-1535.7 271,-1535.7"/>
<text text-anchor="start" x="291" y="-1542.8" font-family="Helvetica,sans-Serif" font-size="11.00" fill="#000000">CREATED_BY_USER_ID</text>
<polygon fill="none" stroke="#000000" points="474,-1535.7 474,-1557.7 547,-1557.7 547,-1535.7 474,-1535.7"/>
<text text-anchor="start" x="477" y="-1543.4" font-family="Helvetica,sans-Serif" font-size="11.00" fill="#000000">number[38]</text>
<polygon fill="none" stroke="#000000" points="271,-1513.7 271,-1535.7 474,-1535.7 474,-1513.7 271,-1513.7"/>
<text text-anchor="start" x="291" y="-1520.8" font-family="Helvetica,sans-Serif" font-size="11.00" fill="#000000">CREATED_DATETIME</text>
<polygon fill="none" stroke="#000000" points="474,-1513.7 474,-1535.7 547,-1535.7 547,-1513.7 474,-1513.7"/>
<text text-anchor="start" x="477" y="-1521.4" font-family="Helvetica,sans-Serif" font-size="11.00" fill="#000000">date[7]</text>
<polygon fill="none" stroke="#000000" points="271,-1491.7 271,-1513.7 474,-1513.7 474,-1491.7 271,-1491.7"/>
<text text-anchor="start" x="291" y="-1498.8" font-family="Helvetica,sans-Serif" font-size="11.00" fill="#000000">LAST_UPDATED_USER_ID</text>
<polygon fill="none" stroke="#000000" points="474,-1491.7 474,-1513.7 547,-1513.7 547,-1491.7 474,-1491.7"/>
<text text-anchor="start" x="477" y="-1499.4" font-family="Helvetica,sans-Serif" font-size="11.00" fill="#000000">number[38]</text>
<polygon fill="none" stroke="#000000" points="271,-1469.7 271,-1491.7 474,-1491.7 474,-1469.7 271,-1469.7"/>
<text text-anchor="start" x="291" y="-1476.8" font-family="Helvetica,sans-Serif" font-size="11.00" fill="#000000">LAST_UPDATED_DATETIME</text>
<polygon fill="none" stroke="#000000" points="474,-1469.7 474,-1491.7 547,-1491.7 547,-1469.7 474,-1469.7"/>
<text text-anchor="start" x="477" y="-1477.4" font-family="Helvetica,sans-Serif" font-size="11.00" fill="#000000">date[7]</text>
<polygon fill="none" stroke="#000000" points="271,-1447.7 271,-1469.7 474,-1469.7 474,-1447.7 271,-1447.7"/>
<text text-anchor="start" x="291" y="-1454.8" font-family="Helvetica,sans-Serif" font-size="11.00" fill="#000000">ROW_VERSION</text>
<polygon fill="none" stroke="#000000" points="474,-1447.7 474,-1469.7 547,-1469.7 547,-1447.7 474,-1447.7"/>
<text text-anchor="start" x="477" y="-1455.4" font-family="Helvetica,sans-Serif" font-size="11.00" fill="#000000">number[38]</text>
<polygon fill="none" stroke="#000000" points="271,-1425.7 271,-1447.7 474,-1447.7 474,-1425.7 271,-1425.7"/>
<text text-anchor="start" x="291" y="-1432.8" font-family="Helvetica,sans-Serif" font-size="11.00" fill="#000000">TRAINING_SESSION_ID</text>
<polygon fill="none" stroke="#000000" points="474,-1425.7 474,-1447.7 547,-1447.7 547,-1425.7 474,-1425.7"/>
<text text-anchor="start" x="477" y="-1433.4" font-family="Helvetica,sans-Serif" font-size="11.00" fill="#000000">number[38]</text>
<polygon fill="none" stroke="#000000" points="271,-1403.7 271,-1425.7 474,-1425.7 474,-1403.7 271,-1403.7"/>
<text text-anchor="start" x="291" y="-1410.8" font-family="Helvetica,sans-Serif" font-size="11.00" fill="#000000">DOCUMENT_NAME</text>
<polygon fill="none" stroke="#000000" points="474,-1403.7 474,-1425.7 547,-1425.7 547,-1403.7 474,-1403.7"/>
<text text-anchor="start" x="476.8791" y="-1411.4" font-family="Helvetica,sans-Serif" font-size="11.00" fill="#000000">varchar2[200]</text>
<polygon fill="#ffffff" stroke="transparent" points="271,-1384.7 271,-1403.7 364,-1403.7 364,-1384.7 271,-1384.7"/>
<polygon fill="none" stroke="#000000" points="271,-1384.7 271,-1403.7 364,-1403.7 364,-1384.7 271,-1384.7"/>
<text text-anchor="start" x="274" y="-1390.8" font-family="Helvetica,sans-Serif" font-size="11.00" fill="#000000">&lt; 2</text>
<polygon fill="#ffffff" stroke="transparent" points="364,-1384.7 364,-1403.7 474,-1403.7 474,-1384.7 364,-1384.7"/>
<polygon fill="none" stroke="#000000" points="364,-1384.7 364,-1403.7 474,-1403.7 474,-1384.7 364,-1384.7"/>
<text text-anchor="start" x="438.6105" y="-1390.8" font-family="Helvetica,sans-Serif" font-size="11.00" fill="#000000">0 rows</text>
<polygon fill="#ffffff" stroke="transparent" points="474,-1384.7 474,-1403.7 547,-1403.7 547,-1384.7 474,-1384.7"/>
<polygon fill="none" stroke="#000000" points="474,-1384.7 474,-1403.7 547,-1403.7 547,-1384.7 474,-1384.7"/>
<text text-anchor="start" x="528.4053" y="-1390.8" font-family="Helvetica,sans-Serif" font-size="11.00" fill="#000000">0 &gt;</text>
<polygon fill="none" stroke="#000000" stroke-width="2" points="270,-1383.7 270,-1647.7 548,-1647.7 548,-1383.7 270,-1383.7"/>
</a>
</g>
</g>
<!-- CONTACT -->
<g id="node2" class="node">
<title>CONTACT</title>
<g id="a_node2"><a xlink:href="../../tables/CONTACT.html" xlink:title="CONTACT" target="_top">
<polygon fill="#ffffff" stroke="transparent" points="8,-1110.2 8,-2161.2 220,-2161.2 220,-1110.2 8,-1110.2"/>
<polygon fill="#f5f5f5" stroke="transparent" points="8,-2137.7 8,-2160.7 220,-2160.7 220,-2137.7 8,-2137.7"/>
<polygon fill="none" stroke="#000000" points="8,-2137.7 8,-2160.7 220,-2160.7 220,-2137.7 8,-2137.7"/>
<text text-anchor="start" x="13" y="-2146.8" font-family="Helvetica,sans-Serif" font-weight="bold" font-size="11.00" fill="#000000">CONTACT</text>
<text text-anchor="start" x="185.0437" y="-2145.8" font-family="Helvetica,sans-Serif" font-size="11.00" fill="#000000">[table]</text>
<polygon fill="none" stroke="#000000" points="8,-2115.7 8,-2137.7 220,-2137.7 220,-2115.7 8,-2115.7"/>
<image xlink:href="../../images/primaryKeys.png" width="11px" height="12px" preserveAspectRatio="xMinYMin meet" x="13" y="-2132.7"/>
<text text-anchor="start" x="28" y="-2122.8" font-family="Helvetica,sans-Serif" font-size="11.00" fill="#000000">CONTACT_ID</text>
<polygon fill="none" stroke="#000000" points="8,-2093.7 8,-2115.7 220,-2115.7 220,-2093.7 8,-2093.7"/>
<image xlink:href="../../images/primaryKeys.png" width="11px" height="12px" preserveAspectRatio="xMinYMin meet" x="13" y="-2110.7"/>
<text text-anchor="start" x="28" y="-2100.8" font-family="Helvetica,sans-Serif" font-size="11.00" fill="#000000">LINKED_CONTACT_ID</text>
<polygon fill="none" stroke="#000000" points="8,-2071.7 8,-2093.7 220,-2093.7 220,-2071.7 8,-2071.7"/>
<image xlink:href="../../images/primaryKeys.png" width="11px" height="12px" preserveAspectRatio="xMinYMin meet" x="13" y="-2088.7"/>
<text text-anchor="start" x="28" y="-2078.8" font-family="Helvetica,sans-Serif" font-size="11.00" fill="#000000">CONTACT_DATE</text>
<polygon fill="none" stroke="#000000" points="8,-2049.7 8,-2071.7 220,-2071.7 220,-2049.7 8,-2049.7"/>
<image xlink:href="../../images/primaryKeys.png" width="11px" height="12px" preserveAspectRatio="xMinYMin meet" x="13" y="-2066.7"/>
<text text-anchor="start" x="28" y="-2056.8" font-family="Helvetica,sans-Serif" font-size="11.00" fill="#000000">OFFENDER_ID</text>
<polygon fill="none" stroke="#000000" points="8,-2027.7 8,-2049.7 220,-2049.7 220,-2027.7 8,-2027.7"/>
<image xlink:href="../../images/primaryKeys.png" width="11px" height="12px" preserveAspectRatio="xMinYMin meet" x="13" y="-2044.7"/>
<text text-anchor="start" x="28" y="-2034.8" font-family="Helvetica,sans-Serif" font-size="11.00" fill="#000000">CONTACT_START_TIME</text>
<polygon fill="none" stroke="#000000" points="8,-2005.7 8,-2027.7 220,-2027.7 220,-2005.7 8,-2005.7"/>
<image xlink:href="../../images/primaryKeys.png" width="11px" height="12px" preserveAspectRatio="xMinYMin meet" x="13" y="-2022.7"/>
<text text-anchor="start" x="28" y="-2012.8" font-family="Helvetica,sans-Serif" font-size="11.00" fill="#000000">CONTACT_END_TIME</text>
<polygon fill="none" stroke="#000000" points="8,-1983.7 8,-2005.7 220,-2005.7 220,-1983.7 8,-1983.7"/>
<image xlink:href="../../images/primaryKeys.png" width="11px" height="12px" preserveAspectRatio="xMinYMin meet" x="13" y="-2000.7"/>
<text text-anchor="start" x="28" y="-1990.8" font-family="Helvetica,sans-Serif" font-size="11.00" fill="#000000">RQMNT_ID</text>
<polygon fill="none" stroke="#000000" points="8,-1961.7 8,-1983.7 220,-1983.7 220,-1961.7 8,-1961.7"/>
<image xlink:href="../../images/primaryKeys.png" width="11px" height="12px" preserveAspectRatio="xMinYMin meet" x="13" y="-1978.7"/>
<text text-anchor="start" x="28" y="-1968.8" font-family="Helvetica,sans-Serif" font-size="11.00" fill="#000000">LIC_CONDITION_ID</text>
<polygon fill="none" stroke="#000000" points="8,-1939.7 8,-1961.7 220,-1961.7 220,-1939.7 8,-1939.7"/>
<image xlink:href="../../images/primaryKeys.png" width="11px" height="12px" preserveAspectRatio="xMinYMin meet" x="13" y="-1956.7"/>
<text text-anchor="start" x="28" y="-1946.8" font-family="Helvetica,sans-Serif" font-size="11.00" fill="#000000">PROVIDER_LOCATION_ID</text>
<polygon fill="none" stroke="#000000" points="8,-1917.7 8,-1939.7 220,-1939.7 220,-1917.7 8,-1917.7"/>
<image xlink:href="../../images/primaryKeys.png" width="11px" height="12px" preserveAspectRatio="xMinYMin meet" x="13" y="-1934.7"/>
<text text-anchor="start" x="28" y="-1924.8" font-family="Helvetica,sans-Serif" font-size="11.00" fill="#000000">PROVIDER_EMPLOYEE_ID</text>
<polygon fill="none" stroke="#000000" points="8,-1895.7 8,-1917.7 220,-1917.7 220,-1895.7 8,-1895.7"/>
<image xlink:href="../../images/primaryKeys.png" width="11px" height="12px" preserveAspectRatio="xMinYMin meet" x="13" y="-1912.7"/>
<text text-anchor="start" x="28" y="-1902.8" font-family="Helvetica,sans-Serif" font-size="11.00" fill="#000000">VISOR_CONTACT</text>
<polygon fill="none" stroke="#000000" points="8,-1873.7 8,-1895.7 220,-1895.7 220,-1873.7 8,-1873.7"/>
<image xlink:href="../../images/primaryKeys.png" width="11px" height="12px" preserveAspectRatio="xMinYMin meet" x="13" y="-1890.7"/>
<text text-anchor="start" x="28" y="-1880.8" font-family="Helvetica,sans-Serif" font-size="11.00" fill="#000000">STAFF_ID</text>
<polygon fill="none" stroke="#000000" points="8,-1851.7 8,-1873.7 220,-1873.7 220,-1851.7 8,-1851.7"/>
<image xlink:href="../../images/primaryKeys.png" width="11px" height="12px" preserveAspectRatio="xMinYMin meet" x="13" y="-1868.7"/>
<text text-anchor="start" x="28" y="-1858.8" font-family="Helvetica,sans-Serif" font-size="11.00" fill="#000000">TEAM_ID</text>
<polygon fill="none" stroke="#000000" points="8,-1829.7 8,-1851.7 220,-1851.7 220,-1829.7 8,-1829.7"/>
<image xlink:href="../../images/primaryKeys.png" width="11px" height="12px" preserveAspectRatio="xMinYMin meet" x="13" y="-1846.7"/>
<text text-anchor="start" x="28" y="-1836.8" font-family="Helvetica,sans-Serif" font-size="11.00" fill="#000000">SOFT_DELETED</text>
<polygon fill="none" stroke="#000000" points="8,-1807.7 8,-1829.7 220,-1829.7 220,-1807.7 8,-1807.7"/>
<image xlink:href="../../images/primaryKeys.png" width="11px" height="12px" preserveAspectRatio="xMinYMin meet" x="13" y="-1824.7"/>
<text text-anchor="start" x="28" y="-1814.8" font-family="Helvetica,sans-Serif" font-size="11.00" fill="#000000">VISOR_EXPORTED</text>
<polygon fill="none" stroke="#000000" points="8,-1785.7 8,-1807.7 220,-1807.7 220,-1785.7 8,-1785.7"/>
<image xlink:href="../../images/primaryKeys.png" width="11px" height="12px" preserveAspectRatio="xMinYMin meet" x="13" y="-1802.7"/>
<text text-anchor="start" x="28" y="-1792.8" font-family="Helvetica,sans-Serif" font-size="11.00" fill="#000000">PARTITION_AREA_ID</text>
<polygon fill="none" stroke="#000000" points="8,-1763.7 8,-1785.7 220,-1785.7 220,-1763.7 8,-1763.7"/>
<image xlink:href="../../images/primaryKeys.png" width="11px" height="12px" preserveAspectRatio="xMinYMin meet" x="13" y="-1780.7"/>
<text text-anchor="start" x="28" y="-1770.8" font-family="Helvetica,sans-Serif" font-size="11.00" fill="#000000">OFFICE_LOCATION_ID</text>
<polygon fill="none" stroke="#000000" points="8,-1741.7 8,-1763.7 220,-1763.7 220,-1741.7 8,-1741.7"/>
<image xlink:href="../../images/primaryKeys.png" width="11px" height="12px" preserveAspectRatio="xMinYMin meet" x="13" y="-1758.7"/>
<text text-anchor="start" x="28" y="-1748.8" font-family="Helvetica,sans-Serif" font-size="11.00" fill="#000000">ROW_VERSION</text>
<polygon fill="none" stroke="#000000" points="8,-1719.7 8,-1741.7 220,-1741.7 220,-1719.7 8,-1719.7"/>
<image xlink:href="../../images/primaryKeys.png" width="11px" height="12px" preserveAspectRatio="xMinYMin meet" x="13" y="-1736.7"/>
<text text-anchor="start" x="28" y="-1726.8" font-family="Helvetica,sans-Serif" font-size="11.00" fill="#000000">ALERT_ACTIVE</text>
<polygon fill="none" stroke="#000000" points="8,-1697.7 8,-1719.7 220,-1719.7 220,-1697.7 8,-1697.7"/>
<image xlink:href="../../images/primaryKeys.png" width="11px" height="12px" preserveAspectRatio="xMinYMin meet" x="13" y="-1714.7"/>
<text text-anchor="start" x="28" y="-1704.8" font-family="Helvetica,sans-Serif" font-size="11.00" fill="#000000">ATTENDED</text>
<polygon fill="none" stroke="#000000" points="8,-1675.7 8,-1697.7 220,-1697.7 220,-1675.7 8,-1675.7"/>
<image xlink:href="../../images/primaryKeys.png" width="11px" height="12px" preserveAspectRatio="xMinYMin meet" x="13" y="-1692.7"/>
<text text-anchor="start" x="28" y="-1682.8" font-family="Helvetica,sans-Serif" font-size="11.00" fill="#000000">CREATED_DATETIME</text>
<polygon fill="none" stroke="#000000" points="8,-1653.7 8,-1675.7 220,-1675.7 220,-1653.7 8,-1653.7"/>
<image xlink:href="../../images/primaryKeys.png" width="11px" height="12px" preserveAspectRatio="xMinYMin meet" x="13" y="-1670.7"/>
<text text-anchor="start" x="28" y="-1660.8" font-family="Helvetica,sans-Serif" font-size="11.00" fill="#000000">COMPLIED</text>
<polygon fill="none" stroke="#000000" points="8,-1631.7 8,-1653.7 220,-1653.7 220,-1631.7 8,-1631.7"/>
<image xlink:href="../../images/primaryKeys.png" width="11px" height="12px" preserveAspectRatio="xMinYMin meet" x="13" y="-1648.7"/>
<text text-anchor="start" x="28" y="-1638.8" font-family="Helvetica,sans-Serif" font-size="11.00" fill="#000000">SENSITIVE</text>
<polygon fill="none" stroke="#000000" points="8,-1609.7 8,-1631.7 220,-1631.7 220,-1609.7 8,-1609.7"/>
<image xlink:href="../../images/primaryKeys.png" width="11px" height="12px" preserveAspectRatio="xMinYMin meet" x="13" y="-1626.7"/>
<text text-anchor="start" x="28" y="-1616.8" font-family="Helvetica,sans-Serif" font-size="11.00" fill="#000000">EVENT_ID</text>
<polygon fill="none" stroke="#000000" points="8,-1587.7 8,-1609.7 220,-1609.7 220,-1587.7 8,-1587.7"/>
<image xlink:href="../../images/primaryKeys.png" width="11px" height="12px" preserveAspectRatio="xMinYMin meet" x="13" y="-1604.7"/>
<text text-anchor="start" x="28" y="-1594.8" font-family="Helvetica,sans-Serif" font-size="11.00" fill="#000000">CONTACT_TYPE_ID</text>
<polygon fill="none" stroke="#000000" points="8,-1565.7 8,-1587.7 220,-1587.7 220,-1565.7 8,-1565.7"/>
<image xlink:href="../../images/primaryKeys.png" width="11px" height="12px" preserveAspectRatio="xMinYMin meet" x="13" y="-1582.7"/>
<text text-anchor="start" x="28" y="-1572.8" font-family="Helvetica,sans-Serif" font-size="11.00" fill="#000000">PROVIDER_TEAM_ID</text>
<polygon fill="none" stroke="#000000" points="8,-1543.7 8,-1565.7 220,-1565.7 220,-1543.7 8,-1543.7"/>
<image xlink:href="../../images/primaryKeys.png" width="11px" height="12px" preserveAspectRatio="xMinYMin meet" x="13" y="-1560.7"/>
<text text-anchor="start" x="28" y="-1550.8" font-family="Helvetica,sans-Serif" font-size="11.00" fill="#000000">CONTACT_OUTCOME_TYPE_ID</text>
<polygon fill="none" stroke="#000000" points="8,-1521.7 8,-1543.7 220,-1543.7 220,-1521.7 8,-1521.7"/>
<image xlink:href="../../images/primaryKeys.png" width="11px" height="12px" preserveAspectRatio="xMinYMin meet" x="13" y="-1538.7"/>
<text text-anchor="start" x="28" y="-1528.8" font-family="Helvetica,sans-Serif" font-size="11.00" fill="#000000">EXPLANATION_ID</text>
<polygon fill="none" stroke="#000000" points="8,-1499.7 8,-1521.7 220,-1521.7 220,-1499.7 8,-1499.7"/>
<image xlink:href="../../images/primaryKeys.png" width="11px" height="12px" preserveAspectRatio="xMinYMin meet" x="13" y="-1516.7"/>
<text text-anchor="start" x="28" y="-1506.8" font-family="Helvetica,sans-Serif" font-size="11.00" fill="#000000">TRAINING_SESSION_ID</text>
<polygon fill="none" stroke="#000000" points="8,-1477.7 8,-1499.7 220,-1499.7 220,-1477.7 8,-1477.7"/>
<image xlink:href="../../images/primaryKeys.png" width="11px" height="12px" preserveAspectRatio="xMinYMin meet" x="13" y="-1494.7"/>
<text text-anchor="start" x="28" y="-1484.8" font-family="Helvetica,sans-Serif" font-size="11.00" fill="#000000">TRUST_PROVIDER_FLAG</text>
<polygon fill="none" stroke="#000000" points="8,-1455.7 8,-1477.7 220,-1477.7 220,-1455.7 8,-1455.7"/>
<image xlink:href="../../images/primaryKeys.png" width="11px" height="12px" preserveAspectRatio="xMinYMin meet" x="13" y="-1472.7"/>
<text text-anchor="start" x="28" y="-1462.8" font-family="Helvetica,sans-Serif" font-size="11.00" fill="#000000">STAFF_EMPLOYEE_ID</text>
<polygon fill="none" stroke="#000000" points="8,-1433.7 8,-1455.7 220,-1455.7 220,-1433.7 8,-1433.7"/>
<image xlink:href="../../images/primaryKeys.png" width="11px" height="12px" preserveAspectRatio="xMinYMin meet" x="13" y="-1450.7"/>
<text text-anchor="start" x="28" y="-1440.8" font-family="Helvetica,sans-Serif" font-size="11.00" fill="#000000">PROBATION_AREA_ID</text>
<polygon fill="none" stroke="#000000" points="8,-1411.7 8,-1433.7 220,-1433.7 220,-1411.7 8,-1411.7"/>
<image xlink:href="../../images/primaryKeys.png" width="11px" height="12px" preserveAspectRatio="xMinYMin meet" x="13" y="-1428.7"/>
<text text-anchor="start" x="28" y="-1418.8" font-family="Helvetica,sans-Serif" font-size="11.00" fill="#000000">TRUST_PROVIDER_TEAM_ID</text>
<polygon fill="none" stroke="#000000" points="8,-1389.7 8,-1411.7 220,-1411.7 220,-1389.7 8,-1389.7"/>
<image xlink:href="../../images/primaryKeys.png" width="11px" height="12px" preserveAspectRatio="xMinYMin meet" x="13" y="-1406.7"/>
<text text-anchor="start" x="28" y="-1396.8" font-family="Helvetica,sans-Serif" font-size="11.00" fill="#000000">ENFORCEMENT</text>
<polygon fill="none" stroke="#000000" points="8,-1367.7 8,-1389.7 220,-1389.7 220,-1367.7 8,-1367.7"/>
<image xlink:href="../../images/primaryKeys.png" width="11px" height="12px" preserveAspectRatio="xMinYMin meet" x="13" y="-1384.7"/>
<text text-anchor="start" x="28" y="-1374.8" font-family="Helvetica,sans-Serif" font-size="11.00" fill="#000000">DOCUMENT_LINKED</text>
<polygon fill="none" stroke="#000000" points="8,-1345.7 8,-1367.7 220,-1367.7 220,-1345.7 8,-1345.7"/>
<image xlink:href="../../images/primaryKeys.png" width="11px" height="12px" preserveAspectRatio="xMinYMin meet" x="13" y="-1362.7"/>
<text text-anchor="start" x="22.8069" y="-1352.8" font-family="Helvetica,sans-Serif" font-size="11.00" fill="#000000">LATEST_ENFORCEMENT_ACTION_ID</text>
<polygon fill="none" stroke="#000000" points="8,-1323.7 8,-1345.7 220,-1345.7 220,-1323.7 8,-1323.7"/>
<image xlink:href="../../images/primaryKeys.png" width="11px" height="12px" preserveAspectRatio="xMinYMin meet" x="13" y="-1340.7"/>
<text text-anchor="start" x="28" y="-1330.8" font-family="Helvetica,sans-Serif" font-size="11.00" fill="#000000">NSI_ID</text>
<polygon fill="none" stroke="#000000" points="8,-1301.7 8,-1323.7 220,-1323.7 220,-1301.7 8,-1301.7"/>
<image xlink:href="../../images/primaryKeys.png" width="11px" height="12px" preserveAspectRatio="xMinYMin meet" x="13" y="-1318.7"/>
<text text-anchor="start" x="28" y="-1308.8" font-family="Helvetica,sans-Serif" font-size="11.00" fill="#000000">TABLE_NAME</text>
<polygon fill="none" stroke="#000000" points="8,-1279.7 8,-1301.7 220,-1301.7 220,-1279.7 8,-1279.7"/>
<image xlink:href="../../images/primaryKeys.png" width="11px" height="12px" preserveAspectRatio="xMinYMin meet" x="13" y="-1296.7"/>
<text text-anchor="start" x="28" y="-1286.8" font-family="Helvetica,sans-Serif" font-size="11.00" fill="#000000">PRIMARY_KEY_ID</text>
<polygon fill="none" stroke="#000000" points="8,-1257.7 8,-1279.7 220,-1279.7 220,-1257.7 8,-1257.7"/>
<image xlink:href="../../images/primaryKeys.png" width="11px" height="12px" preserveAspectRatio="xMinYMin meet" x="13" y="-1274.7"/>
<text text-anchor="start" x="28" y="-1264.8" font-family="Helvetica,sans-Serif" font-size="11.00" fill="#000000">PSS_RQMNT_ID</text>
<polygon fill="none" stroke="#000000" points="8,-1235.7 8,-1257.7 220,-1257.7 220,-1235.7 8,-1235.7"/>
<image xlink:href="../../images/primaryKeys.png" width="11px" height="12px" preserveAspectRatio="xMinYMin meet" x="13" y="-1252.7"/>
<text text-anchor="start" x="28" y="-1242.8" font-family="Helvetica,sans-Serif" font-size="11.00" fill="#000000">NOMIS_CASE_NOTE_ID</text>
<polygon fill="none" stroke="#000000" points="8,-1213.7 8,-1235.7 220,-1235.7 220,-1213.7 8,-1213.7"/>
<image xlink:href="../../images/primaryKeys.png" width="11px" height="12px" preserveAspectRatio="xMinYMin meet" x="13" y="-1230.7"/>
<text text-anchor="start" x="28" y="-1220.8" font-family="Helvetica,sans-Serif" font-size="11.00" fill="#000000">LINKED_DOCUMENT_CONTACT_ID</text>
<polygon fill="none" stroke="#000000" points="8,-1191.7 8,-1213.7 220,-1213.7 220,-1191.7 8,-1191.7"/>
<image xlink:href="../../images/primaryKeys.png" width="11px" height="12px" preserveAspectRatio="xMinYMin meet" x="13" y="-1208.7"/>
<text text-anchor="start" x="28" y="-1198.8" font-family="Helvetica,sans-Serif" font-size="11.00" fill="#000000">EXTERNAL_REFERENCE</text>
<polygon fill="none" stroke="#000000" points="8,-1169.7 8,-1191.7 220,-1191.7 220,-1169.7 8,-1169.7"/>
<image xlink:href="../../images/primaryKeys.png" width="11px" height="12px" preserveAspectRatio="xMinYMin meet" x="13" y="-1186.7"/>
<text text-anchor="start" x="28" y="-1176.8" font-family="Helvetica,sans-Serif" font-size="11.00" fill="#000000">RAR_LINKED_CONTACT_ID</text>
<polygon fill="none" stroke="#000000" points="8,-1147.7 8,-1169.7 220,-1169.7 220,-1147.7 8,-1147.7"/>
<image xlink:href="../../images/primaryKeys.png" width="11px" height="12px" preserveAspectRatio="xMinYMin meet" x="13" y="-1164.7"/>
<text text-anchor="start" x="21.57" y="-1154.8" font-family="Helvetica,sans-Serif" font-size="11.00" fill="#000000">SESSION_DELIVERED_CON_TYPE_ID</text>
<polygon fill="none" stroke="#000000" points="8,-1128.7 8,-1147.7 220,-1147.7 220,-1128.7 8,-1128.7"/>
<text text-anchor="start" x="11" y="-1134.8" font-family="Helvetica,sans-Serif" font-size="11.00" fill="#000000">...</text>
<polygon fill="#ffffff" stroke="transparent" points="8,-1109.7 8,-1128.7 78,-1128.7 78,-1109.7 8,-1109.7"/>
<polygon fill="none" stroke="#000000" points="8,-1109.7 8,-1128.7 78,-1128.7 78,-1109.7 8,-1109.7"/>
<text text-anchor="start" x="11" y="-1115.8" font-family="Helvetica,sans-Serif" font-size="11.00" fill="#000000">&lt; 26</text>
<polygon fill="#ffffff" stroke="transparent" points="78,-1109.7 78,-1128.7 171,-1128.7 171,-1109.7 78,-1109.7"/>
<polygon fill="none" stroke="#000000" points="78,-1109.7 78,-1128.7 171,-1128.7 171,-1109.7 78,-1109.7"/>
<text text-anchor="start" x="101.9791" y="-1115.8" font-family="Helvetica,sans-Serif" font-size="11.00" fill="#000000">165,869 rows</text>
<polygon fill="#ffffff" stroke="transparent" points="171,-1109.7 171,-1128.7 220,-1128.7 220,-1109.7 171,-1109.7"/>
<polygon fill="none" stroke="#000000" points="171,-1109.7 171,-1128.7 220,-1128.7 220,-1109.7 171,-1109.7"/>
<text text-anchor="start" x="195.2904" y="-1115.8" font-family="Helvetica,sans-Serif" font-size="11.00" fill="#000000">14 &gt;</text>
</a>
</g>
</g>
<!-- CONTACT_UPLOAD_DOCUMENT&#45;&gt;CONTACT -->
<g id="edge1" class="edge">
<title>CONTACT_UPLOAD_DOCUMENT:w&#45;&gt;CONTACT:e</title>
<path fill="none" stroke="#000000" d="M256.4867,-1591.4316C49.7673,-1613.4838 454.157,-2126.7 220,-2126.7"/>
<polygon fill="#000000" stroke="#000000" points="263.0101,-1591.1028 271.1813,-1594.2954 267.0051,-1590.9014 271,-1590.7 271,-1590.7 271,-1590.7 267.0051,-1590.9014 270.8187,-1587.1046 263.0101,-1591.1028 263.0101,-1591.1028"/>
<ellipse fill="none" stroke="#000000" cx="259.8142" cy="-1591.2639" rx="3.2" ry="3.2"/>
</g>
<!-- CONTACT_REDEF -->
<g id="node3" class="node">
<title>CONTACT_REDEF</title>
<g id="a_node3"><a xlink:href="../../tables/CONTACT_REDEF.html" xlink:title="CONTACT_REDEF" target="_top">
<polygon fill="#ffffff" stroke="transparent" points="8,-38.2 8,-1089.2 220,-1089.2 220,-38.2 8,-38.2"/>
<polygon fill="#f5f5f5" stroke="transparent" points="8,-1065.7 8,-1088.7 220,-1088.7 220,-1065.7 8,-1065.7"/>
<polygon fill="none" stroke="#000000" points="8,-1065.7 8,-1088.7 220,-1088.7 220,-1065.7 8,-1065.7"/>
<text text-anchor="start" x="13" y="-1074.8" font-family="Helvetica,sans-Serif" font-weight="bold" font-size="11.00" fill="#000000">CONTACT_REDEF</text>
<text text-anchor="start" x="185.0437" y="-1073.8" font-family="Helvetica,sans-Serif" font-size="11.00" fill="#000000">[table]</text>
<polygon fill="none" stroke="#000000" points="8,-1043.7 8,-1065.7 220,-1065.7 220,-1043.7 8,-1043.7"/>
<image xlink:href="../../images/primaryKeys.png" width="11px" height="12px" preserveAspectRatio="xMinYMin meet" x="13" y="-1060.7"/>
<text text-anchor="start" x="28" y="-1050.8" font-family="Helvetica,sans-Serif" font-size="11.00" fill="#000000">CONTACT_ID</text>
<polygon fill="none" stroke="#000000" points="8,-1021.7 8,-1043.7 220,-1043.7 220,-1021.7 8,-1021.7"/>
<image xlink:href="../../images/primaryKeys.png" width="11px" height="12px" preserveAspectRatio="xMinYMin meet" x="13" y="-1038.7"/>
<text text-anchor="start" x="28" y="-1028.8" font-family="Helvetica,sans-Serif" font-size="11.00" fill="#000000">LINKED_CONTACT_ID</text>
<polygon fill="none" stroke="#000000" points="8,-999.7 8,-1021.7 220,-1021.7 220,-999.7 8,-999.7"/>
<image xlink:href="../../images/primaryKeys.png" width="11px" height="12px" preserveAspectRatio="xMinYMin meet" x="13" y="-1016.7"/>
<text text-anchor="start" x="28" y="-1006.8" font-family="Helvetica,sans-Serif" font-size="11.00" fill="#000000">CONTACT_DATE</text>
<polygon fill="none" stroke="#000000" points="8,-977.7 8,-999.7 220,-999.7 220,-977.7 8,-977.7"/>
<image xlink:href="../../images/primaryKeys.png" width="11px" height="12px" preserveAspectRatio="xMinYMin meet" x="13" y="-994.7"/>
<text text-anchor="start" x="28" y="-984.8" font-family="Helvetica,sans-Serif" font-size="11.00" fill="#000000">OFFENDER_ID</text>
<polygon fill="none" stroke="#000000" points="8,-955.7 8,-977.7 220,-977.7 220,-955.7 8,-955.7"/>
<image xlink:href="../../images/primaryKeys.png" width="11px" height="12px" preserveAspectRatio="xMinYMin meet" x="13" y="-972.7"/>
<text text-anchor="start" x="28" y="-962.8" font-family="Helvetica,sans-Serif" font-size="11.00" fill="#000000">CONTACT_START_TIME</text>
<polygon fill="none" stroke="#000000" points="8,-933.7 8,-955.7 220,-955.7 220,-933.7 8,-933.7"/>
<image xlink:href="../../images/primaryKeys.png" width="11px" height="12px" preserveAspectRatio="xMinYMin meet" x="13" y="-950.7"/>
<text text-anchor="start" x="28" y="-940.8" font-family="Helvetica,sans-Serif" font-size="11.00" fill="#000000">CONTACT_END_TIME</text>
<polygon fill="none" stroke="#000000" points="8,-911.7 8,-933.7 220,-933.7 220,-911.7 8,-911.7"/>
<image xlink:href="../../images/primaryKeys.png" width="11px" height="12px" preserveAspectRatio="xMinYMin meet" x="13" y="-928.7"/>
<text text-anchor="start" x="28" y="-918.8" font-family="Helvetica,sans-Serif" font-size="11.00" fill="#000000">RQMNT_ID</text>
<polygon fill="none" stroke="#000000" points="8,-889.7 8,-911.7 220,-911.7 220,-889.7 8,-889.7"/>
<image xlink:href="../../images/primaryKeys.png" width="11px" height="12px" preserveAspectRatio="xMinYMin meet" x="13" y="-906.7"/>
<text text-anchor="start" x="28" y="-896.8" font-family="Helvetica,sans-Serif" font-size="11.00" fill="#000000">LIC_CONDITION_ID</text>
<polygon fill="none" stroke="#000000" points="8,-867.7 8,-889.7 220,-889.7 220,-867.7 8,-867.7"/>
<image xlink:href="../../images/primaryKeys.png" width="11px" height="12px" preserveAspectRatio="xMinYMin meet" x="13" y="-884.7"/>
<text text-anchor="start" x="28" y="-874.8" font-family="Helvetica,sans-Serif" font-size="11.00" fill="#000000">PROVIDER_LOCATION_ID</text>
<polygon fill="none" stroke="#000000" points="8,-845.7 8,-867.7 220,-867.7 220,-845.7 8,-845.7"/>
<image xlink:href="../../images/primaryKeys.png" width="11px" height="12px" preserveAspectRatio="xMinYMin meet" x="13" y="-862.7"/>
<text text-anchor="start" x="28" y="-852.8" font-family="Helvetica,sans-Serif" font-size="11.00" fill="#000000">PROVIDER_EMPLOYEE_ID</text>
<polygon fill="none" stroke="#000000" points="8,-823.7 8,-845.7 220,-845.7 220,-823.7 8,-823.7"/>
<image xlink:href="../../images/primaryKeys.png" width="11px" height="12px" preserveAspectRatio="xMinYMin meet" x="13" y="-840.7"/>
<text text-anchor="start" x="28" y="-830.8" font-family="Helvetica,sans-Serif" font-size="11.00" fill="#000000">VISOR_CONTACT</text>
<polygon fill="none" stroke="#000000" points="8,-801.7 8,-823.7 220,-823.7 220,-801.7 8,-801.7"/>
<image xlink:href="../../images/primaryKeys.png" width="11px" height="12px" preserveAspectRatio="xMinYMin meet" x="13" y="-818.7"/>
<text text-anchor="start" x="28" y="-808.8" font-family="Helvetica,sans-Serif" font-size="11.00" fill="#000000">STAFF_ID</text>
<polygon fill="none" stroke="#000000" points="8,-779.7 8,-801.7 220,-801.7 220,-779.7 8,-779.7"/>
<image xlink:href="../../images/primaryKeys.png" width="11px" height="12px" preserveAspectRatio="xMinYMin meet" x="13" y="-796.7"/>
<text text-anchor="start" x="28" y="-786.8" font-family="Helvetica,sans-Serif" font-size="11.00" fill="#000000">TEAM_ID</text>
<polygon fill="none" stroke="#000000" points="8,-757.7 8,-779.7 220,-779.7 220,-757.7 8,-757.7"/>
<image xlink:href="../../images/primaryKeys.png" width="11px" height="12px" preserveAspectRatio="xMinYMin meet" x="13" y="-774.7"/>
<text text-anchor="start" x="28" y="-764.8" font-family="Helvetica,sans-Serif" font-size="11.00" fill="#000000">SOFT_DELETED</text>
<polygon fill="none" stroke="#000000" points="8,-735.7 8,-757.7 220,-757.7 220,-735.7 8,-735.7"/>
<image xlink:href="../../images/primaryKeys.png" width="11px" height="12px" preserveAspectRatio="xMinYMin meet" x="13" y="-752.7"/>
<text text-anchor="start" x="28" y="-742.8" font-family="Helvetica,sans-Serif" font-size="11.00" fill="#000000">VISOR_EXPORTED</text>
<polygon fill="none" stroke="#000000" points="8,-713.7 8,-735.7 220,-735.7 220,-713.7 8,-713.7"/>
<image xlink:href="../../images/primaryKeys.png" width="11px" height="12px" preserveAspectRatio="xMinYMin meet" x="13" y="-730.7"/>
<text text-anchor="start" x="28" y="-720.8" font-family="Helvetica,sans-Serif" font-size="11.00" fill="#000000">PARTITION_AREA_ID</text>
<polygon fill="none" stroke="#000000" points="8,-691.7 8,-713.7 220,-713.7 220,-691.7 8,-691.7"/>
<image xlink:href="../../images/primaryKeys.png" width="11px" height="12px" preserveAspectRatio="xMinYMin meet" x="13" y="-708.7"/>
<text text-anchor="start" x="28" y="-698.8" font-family="Helvetica,sans-Serif" font-size="11.00" fill="#000000">OFFICE_LOCATION_ID</text>
<polygon fill="none" stroke="#000000" points="8,-669.7 8,-691.7 220,-691.7 220,-669.7 8,-669.7"/>
<image xlink:href="../../images/primaryKeys.png" width="11px" height="12px" preserveAspectRatio="xMinYMin meet" x="13" y="-686.7"/>
<text text-anchor="start" x="28" y="-676.8" font-family="Helvetica,sans-Serif" font-size="11.00" fill="#000000">ROW_VERSION</text>
<polygon fill="none" stroke="#000000" points="8,-647.7 8,-669.7 220,-669.7 220,-647.7 8,-647.7"/>
<image xlink:href="../../images/primaryKeys.png" width="11px" height="12px" preserveAspectRatio="xMinYMin meet" x="13" y="-664.7"/>
<text text-anchor="start" x="28" y="-654.8" font-family="Helvetica,sans-Serif" font-size="11.00" fill="#000000">ALERT_ACTIVE</text>
<polygon fill="none" stroke="#000000" points="8,-625.7 8,-647.7 220,-647.7 220,-625.7 8,-625.7"/>
<image xlink:href="../../images/primaryKeys.png" width="11px" height="12px" preserveAspectRatio="xMinYMin meet" x="13" y="-642.7"/>
<text text-anchor="start" x="28" y="-632.8" font-family="Helvetica,sans-Serif" font-size="11.00" fill="#000000">ATTENDED</text>
<polygon fill="none" stroke="#000000" points="8,-603.7 8,-625.7 220,-625.7 220,-603.7 8,-603.7"/>
<image xlink:href="../../images/primaryKeys.png" width="11px" height="12px" preserveAspectRatio="xMinYMin meet" x="13" y="-620.7"/>
<text text-anchor="start" x="28" y="-610.8" font-family="Helvetica,sans-Serif" font-size="11.00" fill="#000000">CREATED_DATETIME</text>
<polygon fill="none" stroke="#000000" points="8,-581.7 8,-603.7 220,-603.7 220,-581.7 8,-581.7"/>
<image xlink:href="../../images/primaryKeys.png" width="11px" height="12px" preserveAspectRatio="xMinYMin meet" x="13" y="-598.7"/>
<text text-anchor="start" x="28" y="-588.8" font-family="Helvetica,sans-Serif" font-size="11.00" fill="#000000">COMPLIED</text>
<polygon fill="none" stroke="#000000" points="8,-559.7 8,-581.7 220,-581.7 220,-559.7 8,-559.7"/>
<image xlink:href="../../images/primaryKeys.png" width="11px" height="12px" preserveAspectRatio="xMinYMin meet" x="13" y="-576.7"/>
<text text-anchor="start" x="28" y="-566.8" font-family="Helvetica,sans-Serif" font-size="11.00" fill="#000000">SENSITIVE</text>
<polygon fill="none" stroke="#000000" points="8,-537.7 8,-559.7 220,-559.7 220,-537.7 8,-537.7"/>
<image xlink:href="../../images/primaryKeys.png" width="11px" height="12px" preserveAspectRatio="xMinYMin meet" x="13" y="-554.7"/>
<text text-anchor="start" x="28" y="-544.8" font-family="Helvetica,sans-Serif" font-size="11.00" fill="#000000">EVENT_ID</text>
<polygon fill="none" stroke="#000000" points="8,-515.7 8,-537.7 220,-537.7 220,-515.7 8,-515.7"/>
<image xlink:href="../../images/primaryKeys.png" width="11px" height="12px" preserveAspectRatio="xMinYMin meet" x="13" y="-532.7"/>
<text text-anchor="start" x="28" y="-522.8" font-family="Helvetica,sans-Serif" font-size="11.00" fill="#000000">CONTACT_TYPE_ID</text>
<polygon fill="none" stroke="#000000" points="8,-493.7 8,-515.7 220,-515.7 220,-493.7 8,-493.7"/>
<image xlink:href="../../images/primaryKeys.png" width="11px" height="12px" preserveAspectRatio="xMinYMin meet" x="13" y="-510.7"/>
<text text-anchor="start" x="28" y="-500.8" font-family="Helvetica,sans-Serif" font-size="11.00" fill="#000000">PROVIDER_TEAM_ID</text>
<polygon fill="none" stroke="#000000" points="8,-471.7 8,-493.7 220,-493.7 220,-471.7 8,-471.7"/>
<image xlink:href="../../images/primaryKeys.png" width="11px" height="12px" preserveAspectRatio="xMinYMin meet" x="13" y="-488.7"/>
<text text-anchor="start" x="28" y="-478.8" font-family="Helvetica,sans-Serif" font-size="11.00" fill="#000000">CONTACT_OUTCOME_TYPE_ID</text>
<polygon fill="none" stroke="#000000" points="8,-449.7 8,-471.7 220,-471.7 220,-449.7 8,-449.7"/>
<image xlink:href="../../images/primaryKeys.png" width="11px" height="12px" preserveAspectRatio="xMinYMin meet" x="13" y="-466.7"/>
<text text-anchor="start" x="28" y="-456.8" font-family="Helvetica,sans-Serif" font-size="11.00" fill="#000000">EXPLANATION_ID</text>
<polygon fill="none" stroke="#000000" points="8,-427.7 8,-449.7 220,-449.7 220,-427.7 8,-427.7"/>
<image xlink:href="../../images/primaryKeys.png" width="11px" height="12px" preserveAspectRatio="xMinYMin meet" x="13" y="-444.7"/>
<text text-anchor="start" x="28" y="-434.8" font-family="Helvetica,sans-Serif" font-size="11.00" fill="#000000">TRAINING_SESSION_ID</text>
<polygon fill="none" stroke="#000000" points="8,-405.7 8,-427.7 220,-427.7 220,-405.7 8,-405.7"/>
<image xlink:href="../../images/primaryKeys.png" width="11px" height="12px" preserveAspectRatio="xMinYMin meet" x="13" y="-422.7"/>
<text text-anchor="start" x="28" y="-412.8" font-family="Helvetica,sans-Serif" font-size="11.00" fill="#000000">TRUST_PROVIDER_FLAG</text>
<polygon fill="none" stroke="#000000" points="8,-383.7 8,-405.7 220,-405.7 220,-383.7 8,-383.7"/>
<image xlink:href="../../images/primaryKeys.png" width="11px" height="12px" preserveAspectRatio="xMinYMin meet" x="13" y="-400.7"/>
<text text-anchor="start" x="28" y="-390.8" font-family="Helvetica,sans-Serif" font-size="11.00" fill="#000000">STAFF_EMPLOYEE_ID</text>
<polygon fill="none" stroke="#000000" points="8,-361.7 8,-383.7 220,-383.7 220,-361.7 8,-361.7"/>
<image xlink:href="../../images/primaryKeys.png" width="11px" height="12px" preserveAspectRatio="xMinYMin meet" x="13" y="-378.7"/>
<text text-anchor="start" x="28" y="-368.8" font-family="Helvetica,sans-Serif" font-size="11.00" fill="#000000">PROBATION_AREA_ID</text>
<polygon fill="none" stroke="#000000" points="8,-339.7 8,-361.7 220,-361.7 220,-339.7 8,-339.7"/>
<image xlink:href="../../images/primaryKeys.png" width="11px" height="12px" preserveAspectRatio="xMinYMin meet" x="13" y="-356.7"/>
<text text-anchor="start" x="28" y="-346.8" font-family="Helvetica,sans-Serif" font-size="11.00" fill="#000000">TRUST_PROVIDER_TEAM_ID</text>
<polygon fill="none" stroke="#000000" points="8,-317.7 8,-339.7 220,-339.7 220,-317.7 8,-317.7"/>
<image xlink:href="../../images/primaryKeys.png" width="11px" height="12px" preserveAspectRatio="xMinYMin meet" x="13" y="-334.7"/>
<text text-anchor="start" x="28" y="-324.8" font-family="Helvetica,sans-Serif" font-size="11.00" fill="#000000">ENFORCEMENT</text>
<polygon fill="none" stroke="#000000" points="8,-295.7 8,-317.7 220,-317.7 220,-295.7 8,-295.7"/>
<image xlink:href="../../images/primaryKeys.png" width="11px" height="12px" preserveAspectRatio="xMinYMin meet" x="13" y="-312.7"/>
<text text-anchor="start" x="28" y="-302.8" font-family="Helvetica,sans-Serif" font-size="11.00" fill="#000000">DOCUMENT_LINKED</text>
<polygon fill="none" stroke="#000000" points="8,-273.7 8,-295.7 220,-295.7 220,-273.7 8,-273.7"/>
<image xlink:href="../../images/primaryKeys.png" width="11px" height="12px" preserveAspectRatio="xMinYMin meet" x="13" y="-290.7"/>
<text text-anchor="start" x="22.8069" y="-280.8" font-family="Helvetica,sans-Serif" font-size="11.00" fill="#000000">LATEST_ENFORCEMENT_ACTION_ID</text>
<polygon fill="none" stroke="#000000" points="8,-251.7 8,-273.7 220,-273.7 220,-251.7 8,-251.7"/>
<image xlink:href="../../images/primaryKeys.png" width="11px" height="12px" preserveAspectRatio="xMinYMin meet" x="13" y="-268.7"/>
<text text-anchor="start" x="28" y="-258.8" font-family="Helvetica,sans-Serif" font-size="11.00" fill="#000000">NSI_ID</text>
<polygon fill="none" stroke="#000000" points="8,-229.7 8,-251.7 220,-251.7 220,-229.7 8,-229.7"/>
<image xlink:href="../../images/primaryKeys.png" width="11px" height="12px" preserveAspectRatio="xMinYMin meet" x="13" y="-246.7"/>
<text text-anchor="start" x="28" y="-236.8" font-family="Helvetica,sans-Serif" font-size="11.00" fill="#000000">TABLE_NAME</text>
<polygon fill="none" stroke="#000000" points="8,-207.7 8,-229.7 220,-229.7 220,-207.7 8,-207.7"/>
<image xlink:href="../../images/primaryKeys.png" width="11px" height="12px" preserveAspectRatio="xMinYMin meet" x="13" y="-224.7"/>
<text text-anchor="start" x="28" y="-214.8" font-family="Helvetica,sans-Serif" font-size="11.00" fill="#000000">PRIMARY_KEY_ID</text>
<polygon fill="none" stroke="#000000" points="8,-185.7 8,-207.7 220,-207.7 220,-185.7 8,-185.7"/>
<image xlink:href="../../images/primaryKeys.png" width="11px" height="12px" preserveAspectRatio="xMinYMin meet" x="13" y="-202.7"/>
<text text-anchor="start" x="28" y="-192.8" font-family="Helvetica,sans-Serif" font-size="11.00" fill="#000000">PSS_RQMNT_ID</text>
<polygon fill="none" stroke="#000000" points="8,-163.7 8,-185.7 220,-185.7 220,-163.7 8,-163.7"/>
<image xlink:href="../../images/primaryKeys.png" width="11px" height="12px" preserveAspectRatio="xMinYMin meet" x="13" y="-180.7"/>
<text text-anchor="start" x="28" y="-170.8" font-family="Helvetica,sans-Serif" font-size="11.00" fill="#000000">NOMIS_CASE_NOTE_ID</text>
<polygon fill="none" stroke="#000000" points="8,-141.7 8,-163.7 220,-163.7 220,-141.7 8,-141.7"/>
<image xlink:href="../../images/primaryKeys.png" width="11px" height="12px" preserveAspectRatio="xMinYMin meet" x="13" y="-158.7"/>
<text text-anchor="start" x="28" y="-148.8" font-family="Helvetica,sans-Serif" font-size="11.00" fill="#000000">LINKED_DOCUMENT_CONTACT_ID</text>
<polygon fill="none" stroke="#000000" points="8,-119.7 8,-141.7 220,-141.7 220,-119.7 8,-119.7"/>
<image xlink:href="../../images/primaryKeys.png" width="11px" height="12px" preserveAspectRatio="xMinYMin meet" x="13" y="-136.7"/>
<text text-anchor="start" x="28" y="-126.8" font-family="Helvetica,sans-Serif" font-size="11.00" fill="#000000">EXTERNAL_REFERENCE</text>
<polygon fill="none" stroke="#000000" points="8,-97.7 8,-119.7 220,-119.7 220,-97.7 8,-97.7"/>
<image xlink:href="../../images/primaryKeys.png" width="11px" height="12px" preserveAspectRatio="xMinYMin meet" x="13" y="-114.7"/>
<text text-anchor="start" x="28" y="-104.8" font-family="Helvetica,sans-Serif" font-size="11.00" fill="#000000">RAR_LINKED_CONTACT_ID</text>
<polygon fill="none" stroke="#000000" points="8,-75.7 8,-97.7 220,-97.7 220,-75.7 8,-75.7"/>
<image xlink:href="../../images/primaryKeys.png" width="11px" height="12px" preserveAspectRatio="xMinYMin meet" x="13" y="-92.7"/>
<text text-anchor="start" x="21.57" y="-82.8" font-family="Helvetica,sans-Serif" font-size="11.00" fill="#000000">SESSION_DELIVERED_CON_TYPE_ID</text>
<polygon fill="none" stroke="#000000" points="8,-56.7 8,-75.7 220,-75.7 220,-56.7 8,-56.7"/>
<text text-anchor="start" x="11" y="-62.8" font-family="Helvetica,sans-Serif" font-size="11.00" fill="#000000">...</text>
<polygon fill="#ffffff" stroke="transparent" points="8,-37.7 8,-56.7 78,-56.7 78,-37.7 8,-37.7"/>
<polygon fill="none" stroke="#000000" points="8,-37.7 8,-56.7 78,-56.7 78,-37.7 8,-37.7"/>
<text text-anchor="start" x="11" y="-43.8" font-family="Helvetica,sans-Serif" font-size="11.00" fill="#000000">&lt; 26</text>
<polygon fill="#ffffff" stroke="transparent" points="78,-37.7 78,-56.7 171,-56.7 171,-37.7 78,-37.7"/>
<polygon fill="none" stroke="#000000" points="78,-37.7 78,-56.7 171,-56.7 171,-37.7 78,-37.7"/>
<text text-anchor="start" x="101.9791" y="-43.8" font-family="Helvetica,sans-Serif" font-size="11.00" fill="#000000">165,869 rows</text>
<polygon fill="#ffffff" stroke="transparent" points="171,-37.7 171,-56.7 220,-56.7 220,-37.7 171,-37.7"/>
<polygon fill="none" stroke="#000000" points="171,-37.7 171,-56.7 220,-56.7 220,-37.7 171,-37.7"/>
<text text-anchor="start" x="195.2904" y="-43.8" font-family="Helvetica,sans-Serif" font-size="11.00" fill="#000000">14 &gt;</text>
</a>
</g>
</g>
<!-- CONTACT_UPLOAD_DOCUMENT&#45;&gt;CONTACT_REDEF -->
<g id="edge2" class="edge">
<title>CONTACT_UPLOAD_DOCUMENT:w&#45;&gt;CONTACT_REDEF:e</title>
<path fill="none" stroke="#000000" d="M256.6839,-1587.5523C167.6469,-1543.6254 334.2742,-1054.7 220,-1054.7"/>
<polygon fill="#000000" stroke="#000000" points="263.1866,-1588.982 270.2269,-1594.216 267.0933,-1589.841 271,-1590.7 271,-1590.7 271,-1590.7 267.0933,-1589.841 271.7731,-1587.184 263.1866,-1588.982 263.1866,-1588.982"/>
<ellipse fill="none" stroke="#000000" cx="260.0613" cy="-1588.2948" rx="3.2" ry="3.2"/>
</g>
</g>
</svg>
