<?xml version="1.0" encoding="UTF-8" standalone="no"?>
<!DOCTYPE svg PUBLIC "-//W3C//DTD SVG 1.1//EN"
 "http://www.w3.org/Graphics/SVG/1.1/DTD/svg11.dtd">
<!-- Generated by graphviz version 2.40.1 (20161225.0304)
 -->
<!-- Title: oneDegreeRelationshipsDiagram Pages: 1 -->
<svg width="561pt" height="1015pt"
 viewBox="0.00 0.00 561.00 1014.70" xmlns="http://www.w3.org/2000/svg" xmlns:xlink="http://www.w3.org/1999/xlink">
<g id="graph0" class="graph" transform="scale(1 1) rotate(0) translate(4 1010.7)">
<title>oneDegreeRelationshipsDiagram</title>
<polygon fill="#ffffff" stroke="transparent" points="-4,4 -4,-1010.7 557,-1010.7 557,4 -4,4"/>
<text text-anchor="middle" x="72.4936" y="-7.3" font-family="Helvetica,sans-Serif" font-size="11.00" fill="#000000">Generated by SchemaSpy</text>
<!-- CONTACT_UPLOAD_DOCUMENT -->
<g id="node1" class="node">
<title>CONTACT_UPLOAD_DOCUMENT</title>
<g id="a_node1"><a xlink:href="../../tables/CONTACT_UPLOAD_DOCUMENT.html" xlink:title="CONTACT_UPLOAD_DOCUMENT" target="_top">
<polygon fill="#ffffff" stroke="transparent" points="265,-736.7 265,-1002.7 545,-1002.7 545,-736.7 265,-736.7"/>
<polygon fill="#f5f5f5" stroke="transparent" points="267,-977.7 267,-1000.7 543,-1000.7 543,-977.7 267,-977.7"/>
<polygon fill="none" stroke="#000000" points="267,-977.7 267,-1000.7 543,-1000.7 543,-977.7 267,-977.7"/>
<text text-anchor="start" x="272" y="-986.8" font-family="Helvetica,sans-Serif" font-weight="bold" font-size="11.00" fill="#000000">CONTACT_UPLOAD_DOCUMENT</text>
<text text-anchor="start" x="508.0437" y="-985.8" font-family="Helvetica,sans-Serif" font-size="11.00" fill="#000000">[table]</text>
<polygon fill="none" stroke="#000000" points="267,-955.7 267,-977.7 470,-977.7 470,-955.7 267,-955.7"/>
<image xlink:href="../../images/primaryKeys.png" width="11px" height="12px" preserveAspectRatio="xMinYMin meet" x="272" y="-972.7"/>
<text text-anchor="start" x="280.3693" y="-962.8" font-family="Helvetica,sans-Serif" font-size="11.00" fill="#000000">CONTACT_UPLOAD_DOCUMENT_ID</text>
<polygon fill="none" stroke="#000000" points="470,-955.7 470,-977.7 543,-977.7 543,-955.7 470,-955.7"/>
<text text-anchor="start" x="473" y="-963.4" font-family="Helvetica,sans-Serif" font-size="11.00" fill="#000000">number[38]</text>
<polygon fill="none" stroke="#000000" points="267,-933.7 267,-955.7 470,-955.7 470,-933.7 267,-933.7"/>
<image xlink:href="../../images/primaryKeys.png" width="11px" height="12px" preserveAspectRatio="xMinYMin meet" x="272" y="-950.7"/>
<text text-anchor="start" x="287" y="-940.8" font-family="Helvetica,sans-Serif" font-size="11.00" fill="#000000">CONTACT_ID</text>
<polygon fill="none" stroke="#000000" points="470,-933.7 470,-955.7 543,-955.7 543,-933.7 470,-933.7"/>
<text text-anchor="start" x="473" y="-941.4" font-family="Helvetica,sans-Serif" font-size="11.00" fill="#000000">number[38]</text>
<polygon fill="none" stroke="#000000" points="267,-911.7 267,-933.7 470,-933.7 470,-911.7 267,-911.7"/>
<text text-anchor="start" x="287" y="-918.8" font-family="Helvetica,sans-Serif" font-size="11.00" fill="#000000">DOCUMENT</text>
<polygon fill="none" stroke="#000000" points="470,-911.7 470,-933.7 543,-933.7 543,-911.7 470,-911.7"/>
<text text-anchor="start" x="473" y="-919.4" font-family="Helvetica,sans-Serif" font-size="11.00" fill="#000000">blob[4000]</text>
<polygon fill="none" stroke="#000000" points="267,-889.7 267,-911.7 470,-911.7 470,-889.7 267,-889.7"/>
<text text-anchor="start" x="287" y="-896.8" font-family="Helvetica,sans-Serif" font-size="11.00" fill="#000000">CREATED_BY_USER_ID</text>
<polygon fill="none" stroke="#000000" points="470,-889.7 470,-911.7 543,-911.7 543,-889.7 470,-889.7"/>
<text text-anchor="start" x="473" y="-897.4" font-family="Helvetica,sans-Serif" font-size="11.00" fill="#000000">number[38]</text>
<polygon fill="none" stroke="#000000" points="267,-867.7 267,-889.7 470,-889.7 470,-867.7 267,-867.7"/>
<text text-anchor="start" x="287" y="-874.8" font-family="Helvetica,sans-Serif" font-size="11.00" fill="#000000">CREATED_DATETIME</text>
<polygon fill="none" stroke="#000000" points="470,-867.7 470,-889.7 543,-889.7 543,-867.7 470,-867.7"/>
<text text-anchor="start" x="473" y="-875.4" font-family="Helvetica,sans-Serif" font-size="11.00" fill="#000000">date[7]</text>
<polygon fill="none" stroke="#000000" points="267,-845.7 267,-867.7 470,-867.7 470,-845.7 267,-845.7"/>
<text text-anchor="start" x="287" y="-852.8" font-family="Helvetica,sans-Serif" font-size="11.00" fill="#000000">LAST_UPDATED_USER_ID</text>
<polygon fill="none" stroke="#000000" points="470,-845.7 470,-867.7 543,-867.7 543,-845.7 470,-845.7"/>
<text text-anchor="start" x="473" y="-853.4" font-family="Helvetica,sans-Serif" font-size="11.00" fill="#000000">number[38]</text>
<polygon fill="none" stroke="#000000" points="267,-823.7 267,-845.7 470,-845.7 470,-823.7 267,-823.7"/>
<text text-anchor="start" x="287" y="-830.8" font-family="Helvetica,sans-Serif" font-size="11.00" fill="#000000">LAST_UPDATED_DATETIME</text>
<polygon fill="none" stroke="#000000" points="470,-823.7 470,-845.7 543,-845.7 543,-823.7 470,-823.7"/>
<text text-anchor="start" x="473" y="-831.4" font-family="Helvetica,sans-Serif" font-size="11.00" fill="#000000">date[7]</text>
<polygon fill="none" stroke="#000000" points="267,-801.7 267,-823.7 470,-823.7 470,-801.7 267,-801.7"/>
<text text-anchor="start" x="287" y="-808.8" font-family="Helvetica,sans-Serif" font-size="11.00" fill="#000000">ROW_VERSION</text>
<polygon fill="none" stroke="#000000" points="470,-801.7 470,-823.7 543,-823.7 543,-801.7 470,-801.7"/>
<text text-anchor="start" x="473" y="-809.4" font-family="Helvetica,sans-Serif" font-size="11.00" fill="#000000">number[38]</text>
<polygon fill="none" stroke="#000000" points="267,-779.7 267,-801.7 470,-801.7 470,-779.7 267,-779.7"/>
<text text-anchor="start" x="287" y="-786.8" font-family="Helvetica,sans-Serif" font-size="11.00" fill="#000000">TRAINING_SESSION_ID</text>
<polygon fill="none" stroke="#000000" points="470,-779.7 470,-801.7 543,-801.7 543,-779.7 470,-779.7"/>
<text text-anchor="start" x="473" y="-787.4" font-family="Helvetica,sans-Serif" font-size="11.00" fill="#000000">number[38]</text>
<polygon fill="none" stroke="#000000" points="267,-757.7 267,-779.7 470,-779.7 470,-757.7 267,-757.7"/>
<text text-anchor="start" x="287" y="-764.8" font-family="Helvetica,sans-Serif" font-size="11.00" fill="#000000">DOCUMENT_NAME</text>
<polygon fill="none" stroke="#000000" points="470,-757.7 470,-779.7 543,-779.7 543,-757.7 470,-757.7"/>
<text text-anchor="start" x="472.8791" y="-765.4" font-family="Helvetica,sans-Serif" font-size="11.00" fill="#000000">varchar2[200]</text>
<polygon fill="#ffffff" stroke="transparent" points="267,-738.7 267,-757.7 360,-757.7 360,-738.7 267,-738.7"/>
<polygon fill="none" stroke="#000000" points="267,-738.7 267,-757.7 360,-757.7 360,-738.7 267,-738.7"/>
<text text-anchor="start" x="270" y="-744.8" font-family="Helvetica,sans-Serif" font-size="11.00" fill="#000000">&lt; 1</text>
<polygon fill="#ffffff" stroke="transparent" points="360,-738.7 360,-757.7 470,-757.7 470,-738.7 360,-738.7"/>
<polygon fill="none" stroke="#000000" points="360,-738.7 360,-757.7 470,-757.7 470,-738.7 360,-738.7"/>
<text text-anchor="start" x="434.6105" y="-744.8" font-family="Helvetica,sans-Serif" font-size="11.00" fill="#000000">0 rows</text>
<polygon fill="#ffffff" stroke="transparent" points="470,-738.7 470,-757.7 543,-757.7 543,-738.7 470,-738.7"/>
<polygon fill="none" stroke="#000000" points="470,-738.7 470,-757.7 543,-757.7 543,-738.7 470,-738.7"/>
<text text-anchor="start" x="524.4053" y="-744.8" font-family="Helvetica,sans-Serif" font-size="11.00" fill="#000000">0 &gt;</text>
<polygon fill="none" stroke="#000000" stroke-width="2" points="266,-737.7 266,-1001.7 544,-1001.7 544,-737.7 266,-737.7"/>
</a>
</g>
</g>
<!-- CONTACT -->
<g id="node2" class="node">
<title>CONTACT</title>
<g id="a_node2"><a xlink:href="../../tables/CONTACT.html" xlink:title="CONTACT" target="_top">
<polygon fill="#ffffff" stroke="transparent" points="8,-38.2 8,-979.2 216,-979.2 216,-38.2 8,-38.2"/>
<polygon fill="#f5f5f5" stroke="transparent" points="8,-955.7 8,-978.7 216,-978.7 216,-955.7 8,-955.7"/>
<polygon fill="none" stroke="#000000" points="8,-955.7 8,-978.7 216,-978.7 216,-955.7 8,-955.7"/>
<text text-anchor="start" x="13" y="-964.8" font-family="Helvetica,sans-Serif" font-weight="bold" font-size="11.00" fill="#000000">CONTACT</text>
<text text-anchor="start" x="181.0437" y="-963.8" font-family="Helvetica,sans-Serif" font-size="11.00" fill="#000000">[table]</text>
<polygon fill="none" stroke="#000000" points="8,-933.7 8,-955.7 216,-955.7 216,-933.7 8,-933.7"/>
<image xlink:href="../../images/primaryKeys.png" width="11px" height="12px" preserveAspectRatio="xMinYMin meet" x="13" y="-950.7"/>
<text text-anchor="start" x="28" y="-940.8" font-family="Helvetica,sans-Serif" font-size="11.00" fill="#000000">CONTACT_ID</text>
<polygon fill="none" stroke="#000000" points="8,-911.7 8,-933.7 216,-933.7 216,-911.7 8,-911.7"/>
<image xlink:href="../../images/primaryKeys.png" width="11px" height="12px" preserveAspectRatio="xMinYMin meet" x="13" y="-928.7"/>
<text text-anchor="start" x="28" y="-918.8" font-family="Helvetica,sans-Serif" font-size="11.00" fill="#000000">LINKED_CONTACT_ID</text>
<polygon fill="none" stroke="#000000" points="8,-889.7 8,-911.7 216,-911.7 216,-889.7 8,-889.7"/>
<image xlink:href="../../images/primaryKeys.png" width="11px" height="12px" preserveAspectRatio="xMinYMin meet" x="13" y="-906.7"/>
<text text-anchor="start" x="28" y="-896.8" font-family="Helvetica,sans-Serif" font-size="11.00" fill="#000000">CONTACT_DATE</text>
<polygon fill="none" stroke="#000000" points="8,-867.7 8,-889.7 216,-889.7 216,-867.7 8,-867.7"/>
<image xlink:href="../../images/primaryKeys.png" width="11px" height="12px" preserveAspectRatio="xMinYMin meet" x="13" y="-884.7"/>
<text text-anchor="start" x="28" y="-874.8" font-family="Helvetica,sans-Serif" font-size="11.00" fill="#000000">OFFENDER_ID</text>
<polygon fill="none" stroke="#000000" points="8,-845.7 8,-867.7 216,-867.7 216,-845.7 8,-845.7"/>
<image xlink:href="../../images/primaryKeys.png" width="11px" height="12px" preserveAspectRatio="xMinYMin meet" x="13" y="-862.7"/>
<text text-anchor="start" x="28" y="-852.8" font-family="Helvetica,sans-Serif" font-size="11.00" fill="#000000">CONTACT_START_TIME</text>
<polygon fill="none" stroke="#000000" points="8,-823.7 8,-845.7 216,-845.7 216,-823.7 8,-823.7"/>
<image xlink:href="../../images/primaryKeys.png" width="11px" height="12px" preserveAspectRatio="xMinYMin meet" x="13" y="-840.7"/>
<text text-anchor="start" x="28" y="-830.8" font-family="Helvetica,sans-Serif" font-size="11.00" fill="#000000">CONTACT_END_TIME</text>
<polygon fill="none" stroke="#000000" points="8,-801.7 8,-823.7 216,-823.7 216,-801.7 8,-801.7"/>
<image xlink:href="../../images/primaryKeys.png" width="11px" height="12px" preserveAspectRatio="xMinYMin meet" x="13" y="-818.7"/>
<text text-anchor="start" x="28" y="-808.8" font-family="Helvetica,sans-Serif" font-size="11.00" fill="#000000">RQMNT_ID</text>
<polygon fill="none" stroke="#000000" points="8,-779.7 8,-801.7 216,-801.7 216,-779.7 8,-779.7"/>
<image xlink:href="../../images/primaryKeys.png" width="11px" height="12px" preserveAspectRatio="xMinYMin meet" x="13" y="-796.7"/>
<text text-anchor="start" x="28" y="-786.8" font-family="Helvetica,sans-Serif" font-size="11.00" fill="#000000">LIC_CONDITION_ID</text>
<polygon fill="none" stroke="#000000" points="8,-757.7 8,-779.7 216,-779.7 216,-757.7 8,-757.7"/>
<image xlink:href="../../images/primaryKeys.png" width="11px" height="12px" preserveAspectRatio="xMinYMin meet" x="13" y="-774.7"/>
<text text-anchor="start" x="28" y="-764.8" font-family="Helvetica,sans-Serif" font-size="11.00" fill="#000000">PROVIDER_LOCATION_ID</text>
<polygon fill="none" stroke="#000000" points="8,-735.7 8,-757.7 216,-757.7 216,-735.7 8,-735.7"/>
<image xlink:href="../../images/primaryKeys.png" width="11px" height="12px" preserveAspectRatio="xMinYMin meet" x="13" y="-752.7"/>
<text text-anchor="start" x="28" y="-742.8" font-family="Helvetica,sans-Serif" font-size="11.00" fill="#000000">PROVIDER_EMPLOYEE_ID</text>
<polygon fill="none" stroke="#000000" points="8,-713.7 8,-735.7 216,-735.7 216,-713.7 8,-713.7"/>
<image xlink:href="../../images/primaryKeys.png" width="11px" height="12px" preserveAspectRatio="xMinYMin meet" x="13" y="-730.7"/>
<text text-anchor="start" x="28" y="-720.8" font-family="Helvetica,sans-Serif" font-size="11.00" fill="#000000">VISOR_CONTACT</text>
<polygon fill="none" stroke="#000000" points="8,-691.7 8,-713.7 216,-713.7 216,-691.7 8,-691.7"/>
<image xlink:href="../../images/primaryKeys.png" width="11px" height="12px" preserveAspectRatio="xMinYMin meet" x="13" y="-708.7"/>
<text text-anchor="start" x="28" y="-698.8" font-family="Helvetica,sans-Serif" font-size="11.00" fill="#000000">STAFF_ID</text>
<polygon fill="none" stroke="#000000" points="8,-669.7 8,-691.7 216,-691.7 216,-669.7 8,-669.7"/>
<image xlink:href="../../images/primaryKeys.png" width="11px" height="12px" preserveAspectRatio="xMinYMin meet" x="13" y="-686.7"/>
<text text-anchor="start" x="28" y="-676.8" font-family="Helvetica,sans-Serif" font-size="11.00" fill="#000000">TEAM_ID</text>
<polygon fill="none" stroke="#000000" points="8,-647.7 8,-669.7 216,-669.7 216,-647.7 8,-647.7"/>
<image xlink:href="../../images/primaryKeys.png" width="11px" height="12px" preserveAspectRatio="xMinYMin meet" x="13" y="-664.7"/>
<text text-anchor="start" x="28" y="-654.8" font-family="Helvetica,sans-Serif" font-size="11.00" fill="#000000">SOFT_DELETED</text>
<polygon fill="none" stroke="#000000" points="8,-625.7 8,-647.7 216,-647.7 216,-625.7 8,-625.7"/>
<image xlink:href="../../images/primaryKeys.png" width="11px" height="12px" preserveAspectRatio="xMinYMin meet" x="13" y="-642.7"/>
<text text-anchor="start" x="28" y="-632.8" font-family="Helvetica,sans-Serif" font-size="11.00" fill="#000000">VISOR_EXPORTED</text>
<polygon fill="none" stroke="#000000" points="8,-603.7 8,-625.7 216,-625.7 216,-603.7 8,-603.7"/>
<image xlink:href="../../images/primaryKeys.png" width="11px" height="12px" preserveAspectRatio="xMinYMin meet" x="13" y="-620.7"/>
<text text-anchor="start" x="28" y="-610.8" font-family="Helvetica,sans-Serif" font-size="11.00" fill="#000000">PARTITION_AREA_ID</text>
<polygon fill="none" stroke="#000000" points="8,-581.7 8,-603.7 216,-603.7 216,-581.7 8,-581.7"/>
<image xlink:href="../../images/primaryKeys.png" width="11px" height="12px" preserveAspectRatio="xMinYMin meet" x="13" y="-598.7"/>
<text text-anchor="start" x="28" y="-588.8" font-family="Helvetica,sans-Serif" font-size="11.00" fill="#000000">OFFICE_LOCATION_ID</text>
<polygon fill="none" stroke="#000000" points="8,-559.7 8,-581.7 216,-581.7 216,-559.7 8,-559.7"/>
<image xlink:href="../../images/primaryKeys.png" width="11px" height="12px" preserveAspectRatio="xMinYMin meet" x="13" y="-576.7"/>
<text text-anchor="start" x="28" y="-566.8" font-family="Helvetica,sans-Serif" font-size="11.00" fill="#000000">ALERT_ACTIVE</text>
<polygon fill="none" stroke="#000000" points="8,-537.7 8,-559.7 216,-559.7 216,-537.7 8,-537.7"/>
<image xlink:href="../../images/primaryKeys.png" width="11px" height="12px" preserveAspectRatio="xMinYMin meet" x="13" y="-554.7"/>
<text text-anchor="start" x="28" y="-544.8" font-family="Helvetica,sans-Serif" font-size="11.00" fill="#000000">ATTENDED</text>
<polygon fill="none" stroke="#000000" points="8,-515.7 8,-537.7 216,-537.7 216,-515.7 8,-515.7"/>
<image xlink:href="../../images/primaryKeys.png" width="11px" height="12px" preserveAspectRatio="xMinYMin meet" x="13" y="-532.7"/>
<text text-anchor="start" x="28" y="-522.8" font-family="Helvetica,sans-Serif" font-size="11.00" fill="#000000">CREATED_DATETIME</text>
<polygon fill="none" stroke="#000000" points="8,-493.7 8,-515.7 216,-515.7 216,-493.7 8,-493.7"/>
<image xlink:href="../../images/primaryKeys.png" width="11px" height="12px" preserveAspectRatio="xMinYMin meet" x="13" y="-510.7"/>
<text text-anchor="start" x="28" y="-500.8" font-family="Helvetica,sans-Serif" font-size="11.00" fill="#000000">COMPLIED</text>
<polygon fill="none" stroke="#000000" points="8,-471.7 8,-493.7 216,-493.7 216,-471.7 8,-471.7"/>
<image xlink:href="../../images/primaryKeys.png" width="11px" height="12px" preserveAspectRatio="xMinYMin meet" x="13" y="-488.7"/>
<text text-anchor="start" x="28" y="-478.8" font-family="Helvetica,sans-Serif" font-size="11.00" fill="#000000">SENSITIVE</text>
<polygon fill="none" stroke="#000000" points="8,-449.7 8,-471.7 216,-471.7 216,-449.7 8,-449.7"/>
<image xlink:href="../../images/primaryKeys.png" width="11px" height="12px" preserveAspectRatio="xMinYMin meet" x="13" y="-466.7"/>
<text text-anchor="start" x="28" y="-456.8" font-family="Helvetica,sans-Serif" font-size="11.00" fill="#000000">EVENT_ID</text>
<polygon fill="none" stroke="#000000" points="8,-427.7 8,-449.7 216,-449.7 216,-427.7 8,-427.7"/>
<image xlink:href="../../images/primaryKeys.png" width="11px" height="12px" preserveAspectRatio="xMinYMin meet" x="13" y="-444.7"/>
<text text-anchor="start" x="28" y="-434.8" font-family="Helvetica,sans-Serif" font-size="11.00" fill="#000000">CONTACT_TYPE_ID</text>
<polygon fill="none" stroke="#000000" points="8,-405.7 8,-427.7 216,-427.7 216,-405.7 8,-405.7"/>
<image xlink:href="../../images/primaryKeys.png" width="11px" height="12px" preserveAspectRatio="xMinYMin meet" x="13" y="-422.7"/>
<text text-anchor="start" x="28" y="-412.8" font-family="Helvetica,sans-Serif" font-size="11.00" fill="#000000">PROVIDER_TEAM_ID</text>
<polygon fill="none" stroke="#000000" points="8,-383.7 8,-405.7 216,-405.7 216,-383.7 8,-383.7"/>
<image xlink:href="../../images/primaryKeys.png" width="11px" height="12px" preserveAspectRatio="xMinYMin meet" x="13" y="-400.7"/>
<text text-anchor="start" x="28" y="-390.8" font-family="Helvetica,sans-Serif" font-size="11.00" fill="#000000">CONTACT_OUTCOME_TYPE_ID</text>
<polygon fill="none" stroke="#000000" points="8,-361.7 8,-383.7 216,-383.7 216,-361.7 8,-361.7"/>
<image xlink:href="../../images/primaryKeys.png" width="11px" height="12px" preserveAspectRatio="xMinYMin meet" x="13" y="-378.7"/>
<text text-anchor="start" x="28" y="-368.8" font-family="Helvetica,sans-Serif" font-size="11.00" fill="#000000">EXPLANATION_ID</text>
<polygon fill="none" stroke="#000000" points="8,-339.7 8,-361.7 216,-361.7 216,-339.7 8,-339.7"/>
<image xlink:href="../../images/primaryKeys.png" width="11px" height="12px" preserveAspectRatio="xMinYMin meet" x="13" y="-356.7"/>
<text text-anchor="start" x="28" y="-346.8" font-family="Helvetica,sans-Serif" font-size="11.00" fill="#000000">TRAINING_SESSION_ID</text>
<polygon fill="none" stroke="#000000" points="8,-317.7 8,-339.7 216,-339.7 216,-317.7 8,-317.7"/>
<image xlink:href="../../images/primaryKeys.png" width="11px" height="12px" preserveAspectRatio="xMinYMin meet" x="13" y="-334.7"/>
<text text-anchor="start" x="28" y="-324.8" font-family="Helvetica,sans-Serif" font-size="11.00" fill="#000000">TRUST_PROVIDER_FLAG</text>
<polygon fill="none" stroke="#000000" points="8,-295.7 8,-317.7 216,-317.7 216,-295.7 8,-295.7"/>
<image xlink:href="../../images/primaryKeys.png" width="11px" height="12px" preserveAspectRatio="xMinYMin meet" x="13" y="-312.7"/>
<text text-anchor="start" x="28" y="-302.8" font-family="Helvetica,sans-Serif" font-size="11.00" fill="#000000">STAFF_EMPLOYEE_ID</text>
<polygon fill="none" stroke="#000000" points="8,-273.7 8,-295.7 216,-295.7 216,-273.7 8,-273.7"/>
<image xlink:href="../../images/primaryKeys.png" width="11px" height="12px" preserveAspectRatio="xMinYMin meet" x="13" y="-290.7"/>
<text text-anchor="start" x="28" y="-280.8" font-family="Helvetica,sans-Serif" font-size="11.00" fill="#000000">PROBATION_AREA_ID</text>
<polygon fill="none" stroke="#000000" points="8,-251.7 8,-273.7 216,-273.7 216,-251.7 8,-251.7"/>
<image xlink:href="../../images/primaryKeys.png" width="11px" height="12px" preserveAspectRatio="xMinYMin meet" x="13" y="-268.7"/>
<text text-anchor="start" x="28" y="-258.8" font-family="Helvetica,sans-Serif" font-size="11.00" fill="#000000">TRUST_PROVIDER_TEAM_ID</text>
<polygon fill="none" stroke="#000000" points="8,-229.7 8,-251.7 216,-251.7 216,-229.7 8,-229.7"/>
<image xlink:href="../../images/primaryKeys.png" width="11px" height="12px" preserveAspectRatio="xMinYMin meet" x="13" y="-246.7"/>
<text text-anchor="start" x="28" y="-236.8" font-family="Helvetica,sans-Serif" font-size="11.00" fill="#000000">ENFORCEMENT</text>
<polygon fill="none" stroke="#000000" points="8,-207.7 8,-229.7 216,-229.7 216,-207.7 8,-207.7"/>
<image xlink:href="../../images/primaryKeys.png" width="11px" height="12px" preserveAspectRatio="xMinYMin meet" x="13" y="-224.7"/>
<text text-anchor="start" x="20.8069" y="-214.8" font-family="Helvetica,sans-Serif" font-size="11.00" fill="#000000">LATEST_ENFORCEMENT_ACTION_ID</text>
<polygon fill="none" stroke="#000000" points="8,-185.7 8,-207.7 216,-207.7 216,-185.7 8,-185.7"/>
<image xlink:href="../../images/primaryKeys.png" width="11px" height="12px" preserveAspectRatio="xMinYMin meet" x="13" y="-202.7"/>
<text text-anchor="start" x="28" y="-192.8" font-family="Helvetica,sans-Serif" font-size="11.00" fill="#000000">NSI_ID</text>
<polygon fill="none" stroke="#000000" points="8,-163.7 8,-185.7 216,-185.7 216,-163.7 8,-163.7"/>
<image xlink:href="../../images/primaryKeys.png" width="11px" height="12px" preserveAspectRatio="xMinYMin meet" x="13" y="-180.7"/>
<text text-anchor="start" x="28" y="-170.8" font-family="Helvetica,sans-Serif" font-size="11.00" fill="#000000">TABLE_NAME</text>
<polygon fill="none" stroke="#000000" points="8,-141.7 8,-163.7 216,-163.7 216,-141.7 8,-141.7"/>
<image xlink:href="../../images/primaryKeys.png" width="11px" height="12px" preserveAspectRatio="xMinYMin meet" x="13" y="-158.7"/>
<text text-anchor="start" x="28" y="-148.8" font-family="Helvetica,sans-Serif" font-size="11.00" fill="#000000">PRIMARY_KEY_ID</text>
<polygon fill="none" stroke="#000000" points="8,-119.7 8,-141.7 216,-141.7 216,-119.7 8,-119.7"/>
<image xlink:href="../../images/primaryKeys.png" width="11px" height="12px" preserveAspectRatio="xMinYMin meet" x="13" y="-136.7"/>
<text text-anchor="start" x="28" y="-126.8" font-family="Helvetica,sans-Serif" font-size="11.00" fill="#000000">PSS_RQMNT_ID</text>
<polygon fill="none" stroke="#000000" points="8,-97.7 8,-119.7 216,-119.7 216,-97.7 8,-97.7"/>
<image xlink:href="../../images/primaryKeys.png" width="11px" height="12px" preserveAspectRatio="xMinYMin meet" x="13" y="-114.7"/>
<text text-anchor="start" x="28" y="-104.8" font-family="Helvetica,sans-Serif" font-size="11.00" fill="#000000">NOMIS_CASE_NOTE_ID</text>
<polygon fill="none" stroke="#000000" points="8,-75.7 8,-97.7 216,-97.7 216,-75.7 8,-75.7"/>
<image xlink:href="../../images/primaryKeys.png" width="11px" height="12px" preserveAspectRatio="xMinYMin meet" x="13" y="-92.7"/>
<text text-anchor="start" x="26.6193" y="-82.8" font-family="Helvetica,sans-Serif" font-size="11.00" fill="#000000">LINKED_DOCUMENT_CONTACT_ID</text>
<polygon fill="none" stroke="#000000" points="8,-56.7 8,-75.7 216,-75.7 216,-56.7 8,-56.7"/>
<text text-anchor="start" x="11" y="-62.8" font-family="Helvetica,sans-Serif" font-size="11.00" fill="#000000">...</text>
<polygon fill="#ffffff" stroke="transparent" points="8,-37.7 8,-56.7 76,-56.7 76,-37.7 8,-37.7"/>
<polygon fill="none" stroke="#000000" points="8,-37.7 8,-56.7 76,-56.7 76,-37.7 8,-37.7"/>
<text text-anchor="start" x="11" y="-43.8" font-family="Helvetica,sans-Serif" font-size="11.00" fill="#000000">&lt; 24</text>
<polygon fill="#ffffff" stroke="transparent" points="76,-37.7 76,-56.7 168,-56.7 168,-37.7 76,-37.7"/>
<polygon fill="none" stroke="#000000" points="76,-37.7 76,-56.7 168,-56.7 168,-37.7 76,-37.7"/>
<text text-anchor="start" x="98.9791" y="-43.8" font-family="Helvetica,sans-Serif" font-size="11.00" fill="#000000">165,869 rows</text>
<polygon fill="#ffffff" stroke="transparent" points="168,-37.7 168,-56.7 216,-56.7 216,-37.7 168,-37.7"/>
<polygon fill="none" stroke="#000000" points="168,-37.7 168,-56.7 216,-56.7 216,-37.7 168,-37.7"/>
<text text-anchor="start" x="191.2904" y="-43.8" font-family="Helvetica,sans-Serif" font-size="11.00" fill="#000000">13 &gt;</text>
</a>
</g>
</g>
<!-- CONTACT_UPLOAD_DOCUMENT&#45;&gt;CONTACT -->
<g id="edge1" class="edge">
<title>CONTACT_UPLOAD_DOCUMENT:w&#45;&gt;CONTACT:e</title>
<path fill="none" stroke="#000000" d="M252.276,-944.7C240.2815,-944.7 232.8229,-944.7 216,-944.7"/>
<polygon fill="#000000" stroke="#000000" points="259,-944.7001 267,-948.3 263,-944.7 267,-944.7 267,-944.7 267,-944.7 263,-944.7 267,-941.1 259,-944.7001 259,-944.7001"/>
<ellipse fill="none" stroke="#000000" cx="255.8" cy="-944.7001" rx="3.2" ry="3.2"/>
</g>
</g>
</svg>
