<?xml version="1.0" encoding="UTF-8" standalone="no"?>
<!DOCTYPE svg PUBLIC "-//W3C//DTD SVG 1.1//EN"
 "http://www.w3.org/Graphics/SVG/1.1/DTD/svg11.dtd">
<!-- Generated by graphviz version 2.40.1 (20161225.0304)
 -->
<!-- Title: oneDegreeRelationshipsDiagram Pages: 1 -->
<svg width="565pt" height="1125pt"
 viewBox="0.00 0.00 565.00 1124.70" xmlns="http://www.w3.org/2000/svg" xmlns:xlink="http://www.w3.org/1999/xlink">
<g id="graph0" class="graph" transform="scale(1 1) rotate(0) translate(4 1120.7)">
<title>oneDegreeRelationshipsDiagram</title>
<polygon fill="#ffffff" stroke="transparent" points="-4,4 -4,-1120.7 561,-1120.7 561,4 -4,4"/>
<text text-anchor="middle" x="72.4936" y="-7.3" font-family="Helvetica,sans-Serif" font-size="11.00" fill="#000000">Generated by SchemaSpy</text>
<!-- CONTACT_UPLOAD_DOCUMENT -->
<g id="node1" class="node">
<title>CONTACT_UPLOAD_DOCUMENT</title>
<g id="a_node1"><a xlink:href="../../tables/CONTACT_UPLOAD_DOCUMENT.html" xlink:title="CONTACT_UPLOAD_DOCUMENT" target="_top">
<polygon fill="#ffffff" stroke="transparent" points="269,-846.7 269,-1112.7 549,-1112.7 549,-846.7 269,-846.7"/>
<polygon fill="#f5f5f5" stroke="transparent" points="271,-1087.7 271,-1110.7 547,-1110.7 547,-1087.7 271,-1087.7"/>
<polygon fill="none" stroke="#000000" points="271,-1087.7 271,-1110.7 547,-1110.7 547,-1087.7 271,-1087.7"/>
<text text-anchor="start" x="276" y="-1096.8" font-family="Helvetica,sans-Serif" font-weight="bold" font-size="11.00" fill="#000000">CONTACT_UPLOAD_DOCUMENT</text>
<text text-anchor="start" x="512.0437" y="-1095.8" font-family="Helvetica,sans-Serif" font-size="11.00" fill="#000000">[table]</text>
<polygon fill="none" stroke="#000000" points="271,-1065.7 271,-1087.7 474,-1087.7 474,-1065.7 271,-1065.7"/>
<image xlink:href="../../images/primaryKeys.png" width="11px" height="12px" preserveAspectRatio="xMinYMin meet" x="276" y="-1082.7"/>
<text text-anchor="start" x="284.3693" y="-1072.8" font-family="Helvetica,sans-Serif" font-size="11.00" fill="#000000">CONTACT_UPLOAD_DOCUMENT_ID</text>
<polygon fill="none" stroke="#000000" points="474,-1065.7 474,-1087.7 547,-1087.7 547,-1065.7 474,-1065.7"/>
<text text-anchor="start" x="477" y="-1073.4" font-family="Helvetica,sans-Serif" font-size="11.00" fill="#000000">number[38]</text>
<polygon fill="none" stroke="#000000" points="271,-1043.7 271,-1065.7 474,-1065.7 474,-1043.7 271,-1043.7"/>
<image xlink:href="../../images/primaryKeys.png" width="11px" height="12px" preserveAspectRatio="xMinYMin meet" x="276" y="-1060.7"/>
<text text-anchor="start" x="291" y="-1050.8" font-family="Helvetica,sans-Serif" font-size="11.00" fill="#000000">CONTACT_ID</text>
<polygon fill="none" stroke="#000000" points="474,-1043.7 474,-1065.7 547,-1065.7 547,-1043.7 474,-1043.7"/>
<text text-anchor="start" x="477" y="-1051.4" font-family="Helvetica,sans-Serif" font-size="11.00" fill="#000000">number[38]</text>
<polygon fill="none" stroke="#000000" points="271,-1021.7 271,-1043.7 474,-1043.7 474,-1021.7 271,-1021.7"/>
<text text-anchor="start" x="291" y="-1028.8" font-family="Helvetica,sans-Serif" font-size="11.00" fill="#000000">DOCUMENT</text>
<polygon fill="none" stroke="#000000" points="474,-1021.7 474,-1043.7 547,-1043.7 547,-1021.7 474,-1021.7"/>
<text text-anchor="start" x="477" y="-1029.4" font-family="Helvetica,sans-Serif" font-size="11.00" fill="#000000">blob[4000]</text>
<polygon fill="none" stroke="#000000" points="271,-999.7 271,-1021.7 474,-1021.7 474,-999.7 271,-999.7"/>
<text text-anchor="start" x="291" y="-1006.8" font-family="Helvetica,sans-Serif" font-size="11.00" fill="#000000">CREATED_BY_USER_ID</text>
<polygon fill="none" stroke="#000000" points="474,-999.7 474,-1021.7 547,-1021.7 547,-999.7 474,-999.7"/>
<text text-anchor="start" x="477" y="-1007.4" font-family="Helvetica,sans-Serif" font-size="11.00" fill="#000000">number[38]</text>
<polygon fill="none" stroke="#000000" points="271,-977.7 271,-999.7 474,-999.7 474,-977.7 271,-977.7"/>
<text text-anchor="start" x="291" y="-984.8" font-family="Helvetica,sans-Serif" font-size="11.00" fill="#000000">CREATED_DATETIME</text>
<polygon fill="none" stroke="#000000" points="474,-977.7 474,-999.7 547,-999.7 547,-977.7 474,-977.7"/>
<text text-anchor="start" x="477" y="-985.4" font-family="Helvetica,sans-Serif" font-size="11.00" fill="#000000">date[7]</text>
<polygon fill="none" stroke="#000000" points="271,-955.7 271,-977.7 474,-977.7 474,-955.7 271,-955.7"/>
<text text-anchor="start" x="291" y="-962.8" font-family="Helvetica,sans-Serif" font-size="11.00" fill="#000000">LAST_UPDATED_USER_ID</text>
<polygon fill="none" stroke="#000000" points="474,-955.7 474,-977.7 547,-977.7 547,-955.7 474,-955.7"/>
<text text-anchor="start" x="477" y="-963.4" font-family="Helvetica,sans-Serif" font-size="11.00" fill="#000000">number[38]</text>
<polygon fill="none" stroke="#000000" points="271,-933.7 271,-955.7 474,-955.7 474,-933.7 271,-933.7"/>
<text text-anchor="start" x="291" y="-940.8" font-family="Helvetica,sans-Serif" font-size="11.00" fill="#000000">LAST_UPDATED_DATETIME</text>
<polygon fill="none" stroke="#000000" points="474,-933.7 474,-955.7 547,-955.7 547,-933.7 474,-933.7"/>
<text text-anchor="start" x="477" y="-941.4" font-family="Helvetica,sans-Serif" font-size="11.00" fill="#000000">date[7]</text>
<polygon fill="none" stroke="#000000" points="271,-911.7 271,-933.7 474,-933.7 474,-911.7 271,-911.7"/>
<text text-anchor="start" x="291" y="-918.8" font-family="Helvetica,sans-Serif" font-size="11.00" fill="#000000">ROW_VERSION</text>
<polygon fill="none" stroke="#000000" points="474,-911.7 474,-933.7 547,-933.7 547,-911.7 474,-911.7"/>
<text text-anchor="start" x="477" y="-919.4" font-family="Helvetica,sans-Serif" font-size="11.00" fill="#000000">number[38]</text>
<polygon fill="none" stroke="#000000" points="271,-889.7 271,-911.7 474,-911.7 474,-889.7 271,-889.7"/>
<text text-anchor="start" x="291" y="-896.8" font-family="Helvetica,sans-Serif" font-size="11.00" fill="#000000">TRAINING_SESSION_ID</text>
<polygon fill="none" stroke="#000000" points="474,-889.7 474,-911.7 547,-911.7 547,-889.7 474,-889.7"/>
<text text-anchor="start" x="477" y="-897.4" font-family="Helvetica,sans-Serif" font-size="11.00" fill="#000000">number[38]</text>
<polygon fill="none" stroke="#000000" points="271,-867.7 271,-889.7 474,-889.7 474,-867.7 271,-867.7"/>
<text text-anchor="start" x="291" y="-874.8" font-family="Helvetica,sans-Serif" font-size="11.00" fill="#000000">DOCUMENT_NAME</text>
<polygon fill="none" stroke="#000000" points="474,-867.7 474,-889.7 547,-889.7 547,-867.7 474,-867.7"/>
<text text-anchor="start" x="476.8791" y="-875.4" font-family="Helvetica,sans-Serif" font-size="11.00" fill="#000000">varchar2[200]</text>
<polygon fill="#ffffff" stroke="transparent" points="271,-848.7 271,-867.7 364,-867.7 364,-848.7 271,-848.7"/>
<polygon fill="none" stroke="#000000" points="271,-848.7 271,-867.7 364,-867.7 364,-848.7 271,-848.7"/>
<text text-anchor="start" x="274" y="-854.8" font-family="Helvetica,sans-Serif" font-size="11.00" fill="#000000">&lt; 1</text>
<polygon fill="#ffffff" stroke="transparent" points="364,-848.7 364,-867.7 474,-867.7 474,-848.7 364,-848.7"/>
<polygon fill="none" stroke="#000000" points="364,-848.7 364,-867.7 474,-867.7 474,-848.7 364,-848.7"/>
<text text-anchor="start" x="438.6105" y="-854.8" font-family="Helvetica,sans-Serif" font-size="11.00" fill="#000000">0 rows</text>
<polygon fill="#ffffff" stroke="transparent" points="474,-848.7 474,-867.7 547,-867.7 547,-848.7 474,-848.7"/>
<polygon fill="none" stroke="#000000" points="474,-848.7 474,-867.7 547,-867.7 547,-848.7 474,-848.7"/>
<text text-anchor="start" x="528.4053" y="-854.8" font-family="Helvetica,sans-Serif" font-size="11.00" fill="#000000">0 &gt;</text>
<polygon fill="none" stroke="#000000" stroke-width="2" points="270,-847.7 270,-1111.7 548,-1111.7 548,-847.7 270,-847.7"/>
</a>
</g>
</g>
<!-- CONTACT -->
<g id="node2" class="node">
<title>CONTACT</title>
<g id="a_node2"><a xlink:href="../../tables/CONTACT.html" xlink:title="CONTACT" target="_top">
<polygon fill="#ffffff" stroke="transparent" points="8,-38.2 8,-1089.2 220,-1089.2 220,-38.2 8,-38.2"/>
<polygon fill="#f5f5f5" stroke="transparent" points="8,-1065.7 8,-1088.7 220,-1088.7 220,-1065.7 8,-1065.7"/>
<polygon fill="none" stroke="#000000" points="8,-1065.7 8,-1088.7 220,-1088.7 220,-1065.7 8,-1065.7"/>
<text text-anchor="start" x="13" y="-1074.8" font-family="Helvetica,sans-Serif" font-weight="bold" font-size="11.00" fill="#000000">CONTACT</text>
<text text-anchor="start" x="185.0437" y="-1073.8" font-family="Helvetica,sans-Serif" font-size="11.00" fill="#000000">[table]</text>
<polygon fill="none" stroke="#000000" points="8,-1043.7 8,-1065.7 220,-1065.7 220,-1043.7 8,-1043.7"/>
<image xlink:href="../../images/primaryKeys.png" width="11px" height="12px" preserveAspectRatio="xMinYMin meet" x="13" y="-1060.7"/>
<text text-anchor="start" x="28" y="-1050.8" font-family="Helvetica,sans-Serif" font-size="11.00" fill="#000000">CONTACT_ID</text>
<polygon fill="none" stroke="#000000" points="8,-1021.7 8,-1043.7 220,-1043.7 220,-1021.7 8,-1021.7"/>
<image xlink:href="../../images/primaryKeys.png" width="11px" height="12px" preserveAspectRatio="xMinYMin meet" x="13" y="-1038.7"/>
<text text-anchor="start" x="28" y="-1028.8" font-family="Helvetica,sans-Serif" font-size="11.00" fill="#000000">LINKED_CONTACT_ID</text>
<polygon fill="none" stroke="#000000" points="8,-999.7 8,-1021.7 220,-1021.7 220,-999.7 8,-999.7"/>
<image xlink:href="../../images/primaryKeys.png" width="11px" height="12px" preserveAspectRatio="xMinYMin meet" x="13" y="-1016.7"/>
<text text-anchor="start" x="28" y="-1006.8" font-family="Helvetica,sans-Serif" font-size="11.00" fill="#000000">CONTACT_DATE</text>
<polygon fill="none" stroke="#000000" points="8,-977.7 8,-999.7 220,-999.7 220,-977.7 8,-977.7"/>
<image xlink:href="../../images/primaryKeys.png" width="11px" height="12px" preserveAspectRatio="xMinYMin meet" x="13" y="-994.7"/>
<text text-anchor="start" x="28" y="-984.8" font-family="Helvetica,sans-Serif" font-size="11.00" fill="#000000">OFFENDER_ID</text>
<polygon fill="none" stroke="#000000" points="8,-955.7 8,-977.7 220,-977.7 220,-955.7 8,-955.7"/>
<image xlink:href="../../images/primaryKeys.png" width="11px" height="12px" preserveAspectRatio="xMinYMin meet" x="13" y="-972.7"/>
<text text-anchor="start" x="28" y="-962.8" font-family="Helvetica,sans-Serif" font-size="11.00" fill="#000000">CONTACT_START_TIME</text>
<polygon fill="none" stroke="#000000" points="8,-933.7 8,-955.7 220,-955.7 220,-933.7 8,-933.7"/>
<image xlink:href="../../images/primaryKeys.png" width="11px" height="12px" preserveAspectRatio="xMinYMin meet" x="13" y="-950.7"/>
<text text-anchor="start" x="28" y="-940.8" font-family="Helvetica,sans-Serif" font-size="11.00" fill="#000000">CONTACT_END_TIME</text>
<polygon fill="none" stroke="#000000" points="8,-911.7 8,-933.7 220,-933.7 220,-911.7 8,-911.7"/>
<image xlink:href="../../images/primaryKeys.png" width="11px" height="12px" preserveAspectRatio="xMinYMin meet" x="13" y="-928.7"/>
<text text-anchor="start" x="28" y="-918.8" font-family="Helvetica,sans-Serif" font-size="11.00" fill="#000000">RQMNT_ID</text>
<polygon fill="none" stroke="#000000" points="8,-889.7 8,-911.7 220,-911.7 220,-889.7 8,-889.7"/>
<image xlink:href="../../images/primaryKeys.png" width="11px" height="12px" preserveAspectRatio="xMinYMin meet" x="13" y="-906.7"/>
<text text-anchor="start" x="28" y="-896.8" font-family="Helvetica,sans-Serif" font-size="11.00" fill="#000000">LIC_CONDITION_ID</text>
<polygon fill="none" stroke="#000000" points="8,-867.7 8,-889.7 220,-889.7 220,-867.7 8,-867.7"/>
<image xlink:href="../../images/primaryKeys.png" width="11px" height="12px" preserveAspectRatio="xMinYMin meet" x="13" y="-884.7"/>
<text text-anchor="start" x="28" y="-874.8" font-family="Helvetica,sans-Serif" font-size="11.00" fill="#000000">PROVIDER_LOCATION_ID</text>
<polygon fill="none" stroke="#000000" points="8,-845.7 8,-867.7 220,-867.7 220,-845.7 8,-845.7"/>
<image xlink:href="../../images/primaryKeys.png" width="11px" height="12px" preserveAspectRatio="xMinYMin meet" x="13" y="-862.7"/>
<text text-anchor="start" x="28" y="-852.8" font-family="Helvetica,sans-Serif" font-size="11.00" fill="#000000">PROVIDER_EMPLOYEE_ID</text>
<polygon fill="none" stroke="#000000" points="8,-823.7 8,-845.7 220,-845.7 220,-823.7 8,-823.7"/>
<image xlink:href="../../images/primaryKeys.png" width="11px" height="12px" preserveAspectRatio="xMinYMin meet" x="13" y="-840.7"/>
<text text-anchor="start" x="28" y="-830.8" font-family="Helvetica,sans-Serif" font-size="11.00" fill="#000000">VISOR_CONTACT</text>
<polygon fill="none" stroke="#000000" points="8,-801.7 8,-823.7 220,-823.7 220,-801.7 8,-801.7"/>
<image xlink:href="../../images/primaryKeys.png" width="11px" height="12px" preserveAspectRatio="xMinYMin meet" x="13" y="-818.7"/>
<text text-anchor="start" x="28" y="-808.8" font-family="Helvetica,sans-Serif" font-size="11.00" fill="#000000">STAFF_ID</text>
<polygon fill="none" stroke="#000000" points="8,-779.7 8,-801.7 220,-801.7 220,-779.7 8,-779.7"/>
<image xlink:href="../../images/primaryKeys.png" width="11px" height="12px" preserveAspectRatio="xMinYMin meet" x="13" y="-796.7"/>
<text text-anchor="start" x="28" y="-786.8" font-family="Helvetica,sans-Serif" font-size="11.00" fill="#000000">TEAM_ID</text>
<polygon fill="none" stroke="#000000" points="8,-757.7 8,-779.7 220,-779.7 220,-757.7 8,-757.7"/>
<image xlink:href="../../images/primaryKeys.png" width="11px" height="12px" preserveAspectRatio="xMinYMin meet" x="13" y="-774.7"/>
<text text-anchor="start" x="28" y="-764.8" font-family="Helvetica,sans-Serif" font-size="11.00" fill="#000000">SOFT_DELETED</text>
<polygon fill="none" stroke="#000000" points="8,-735.7 8,-757.7 220,-757.7 220,-735.7 8,-735.7"/>
<image xlink:href="../../images/primaryKeys.png" width="11px" height="12px" preserveAspectRatio="xMinYMin meet" x="13" y="-752.7"/>
<text text-anchor="start" x="28" y="-742.8" font-family="Helvetica,sans-Serif" font-size="11.00" fill="#000000">VISOR_EXPORTED</text>
<polygon fill="none" stroke="#000000" points="8,-713.7 8,-735.7 220,-735.7 220,-713.7 8,-713.7"/>
<image xlink:href="../../images/primaryKeys.png" width="11px" height="12px" preserveAspectRatio="xMinYMin meet" x="13" y="-730.7"/>
<text text-anchor="start" x="28" y="-720.8" font-family="Helvetica,sans-Serif" font-size="11.00" fill="#000000">PARTITION_AREA_ID</text>
<polygon fill="none" stroke="#000000" points="8,-691.7 8,-713.7 220,-713.7 220,-691.7 8,-691.7"/>
<image xlink:href="../../images/primaryKeys.png" width="11px" height="12px" preserveAspectRatio="xMinYMin meet" x="13" y="-708.7"/>
<text text-anchor="start" x="28" y="-698.8" font-family="Helvetica,sans-Serif" font-size="11.00" fill="#000000">OFFICE_LOCATION_ID</text>
<polygon fill="none" stroke="#000000" points="8,-669.7 8,-691.7 220,-691.7 220,-669.7 8,-669.7"/>
<image xlink:href="../../images/primaryKeys.png" width="11px" height="12px" preserveAspectRatio="xMinYMin meet" x="13" y="-686.7"/>
<text text-anchor="start" x="28" y="-676.8" font-family="Helvetica,sans-Serif" font-size="11.00" fill="#000000">ROW_VERSION</text>
<polygon fill="none" stroke="#000000" points="8,-647.7 8,-669.7 220,-669.7 220,-647.7 8,-647.7"/>
<image xlink:href="../../images/primaryKeys.png" width="11px" height="12px" preserveAspectRatio="xMinYMin meet" x="13" y="-664.7"/>
<text text-anchor="start" x="28" y="-654.8" font-family="Helvetica,sans-Serif" font-size="11.00" fill="#000000">ALERT_ACTIVE</text>
<polygon fill="none" stroke="#000000" points="8,-625.7 8,-647.7 220,-647.7 220,-625.7 8,-625.7"/>
<image xlink:href="../../images/primaryKeys.png" width="11px" height="12px" preserveAspectRatio="xMinYMin meet" x="13" y="-642.7"/>
<text text-anchor="start" x="28" y="-632.8" font-family="Helvetica,sans-Serif" font-size="11.00" fill="#000000">ATTENDED</text>
<polygon fill="none" stroke="#000000" points="8,-603.7 8,-625.7 220,-625.7 220,-603.7 8,-603.7"/>
<image xlink:href="../../images/primaryKeys.png" width="11px" height="12px" preserveAspectRatio="xMinYMin meet" x="13" y="-620.7"/>
<text text-anchor="start" x="28" y="-610.8" font-family="Helvetica,sans-Serif" font-size="11.00" fill="#000000">CREATED_DATETIME</text>
<polygon fill="none" stroke="#000000" points="8,-581.7 8,-603.7 220,-603.7 220,-581.7 8,-581.7"/>
<image xlink:href="../../images/primaryKeys.png" width="11px" height="12px" preserveAspectRatio="xMinYMin meet" x="13" y="-598.7"/>
<text text-anchor="start" x="28" y="-588.8" font-family="Helvetica,sans-Serif" font-size="11.00" fill="#000000">COMPLIED</text>
<polygon fill="none" stroke="#000000" points="8,-559.7 8,-581.7 220,-581.7 220,-559.7 8,-559.7"/>
<image xlink:href="../../images/primaryKeys.png" width="11px" height="12px" preserveAspectRatio="xMinYMin meet" x="13" y="-576.7"/>
<text text-anchor="start" x="28" y="-566.8" font-family="Helvetica,sans-Serif" font-size="11.00" fill="#000000">SENSITIVE</text>
<polygon fill="none" stroke="#000000" points="8,-537.7 8,-559.7 220,-559.7 220,-537.7 8,-537.7"/>
<image xlink:href="../../images/primaryKeys.png" width="11px" height="12px" preserveAspectRatio="xMinYMin meet" x="13" y="-554.7"/>
<text text-anchor="start" x="28" y="-544.8" font-family="Helvetica,sans-Serif" font-size="11.00" fill="#000000">EVENT_ID</text>
<polygon fill="none" stroke="#000000" points="8,-515.7 8,-537.7 220,-537.7 220,-515.7 8,-515.7"/>
<image xlink:href="../../images/primaryKeys.png" width="11px" height="12px" preserveAspectRatio="xMinYMin meet" x="13" y="-532.7"/>
<text text-anchor="start" x="28" y="-522.8" font-family="Helvetica,sans-Serif" font-size="11.00" fill="#000000">CONTACT_TYPE_ID</text>
<polygon fill="none" stroke="#000000" points="8,-493.7 8,-515.7 220,-515.7 220,-493.7 8,-493.7"/>
<image xlink:href="../../images/primaryKeys.png" width="11px" height="12px" preserveAspectRatio="xMinYMin meet" x="13" y="-510.7"/>
<text text-anchor="start" x="28" y="-500.8" font-family="Helvetica,sans-Serif" font-size="11.00" fill="#000000">PROVIDER_TEAM_ID</text>
<polygon fill="none" stroke="#000000" points="8,-471.7 8,-493.7 220,-493.7 220,-471.7 8,-471.7"/>
<image xlink:href="../../images/primaryKeys.png" width="11px" height="12px" preserveAspectRatio="xMinYMin meet" x="13" y="-488.7"/>
<text text-anchor="start" x="28" y="-478.8" font-family="Helvetica,sans-Serif" font-size="11.00" fill="#000000">CONTACT_OUTCOME_TYPE_ID</text>
<polygon fill="none" stroke="#000000" points="8,-449.7 8,-471.7 220,-471.7 220,-449.7 8,-449.7"/>
<image xlink:href="../../images/primaryKeys.png" width="11px" height="12px" preserveAspectRatio="xMinYMin meet" x="13" y="-466.7"/>
<text text-anchor="start" x="28" y="-456.8" font-family="Helvetica,sans-Serif" font-size="11.00" fill="#000000">EXPLANATION_ID</text>
<polygon fill="none" stroke="#000000" points="8,-427.7 8,-449.7 220,-449.7 220,-427.7 8,-427.7"/>
<image xlink:href="../../images/primaryKeys.png" width="11px" height="12px" preserveAspectRatio="xMinYMin meet" x="13" y="-444.7"/>
<text text-anchor="start" x="28" y="-434.8" font-family="Helvetica,sans-Serif" font-size="11.00" fill="#000000">TRAINING_SESSION_ID</text>
<polygon fill="none" stroke="#000000" points="8,-405.7 8,-427.7 220,-427.7 220,-405.7 8,-405.7"/>
<image xlink:href="../../images/primaryKeys.png" width="11px" height="12px" preserveAspectRatio="xMinYMin meet" x="13" y="-422.7"/>
<text text-anchor="start" x="28" y="-412.8" font-family="Helvetica,sans-Serif" font-size="11.00" fill="#000000">TRUST_PROVIDER_FLAG</text>
<polygon fill="none" stroke="#000000" points="8,-383.7 8,-405.7 220,-405.7 220,-383.7 8,-383.7"/>
<image xlink:href="../../images/primaryKeys.png" width="11px" height="12px" preserveAspectRatio="xMinYMin meet" x="13" y="-400.7"/>
<text text-anchor="start" x="28" y="-390.8" font-family="Helvetica,sans-Serif" font-size="11.00" fill="#000000">STAFF_EMPLOYEE_ID</text>
<polygon fill="none" stroke="#000000" points="8,-361.7 8,-383.7 220,-383.7 220,-361.7 8,-361.7"/>
<image xlink:href="../../images/primaryKeys.png" width="11px" height="12px" preserveAspectRatio="xMinYMin meet" x="13" y="-378.7"/>
<text text-anchor="start" x="28" y="-368.8" font-family="Helvetica,sans-Serif" font-size="11.00" fill="#000000">PROBATION_AREA_ID</text>
<polygon fill="none" stroke="#000000" points="8,-339.7 8,-361.7 220,-361.7 220,-339.7 8,-339.7"/>
<image xlink:href="../../images/primaryKeys.png" width="11px" height="12px" preserveAspectRatio="xMinYMin meet" x="13" y="-356.7"/>
<text text-anchor="start" x="28" y="-346.8" font-family="Helvetica,sans-Serif" font-size="11.00" fill="#000000">TRUST_PROVIDER_TEAM_ID</text>
<polygon fill="none" stroke="#000000" points="8,-317.7 8,-339.7 220,-339.7 220,-317.7 8,-317.7"/>
<image xlink:href="../../images/primaryKeys.png" width="11px" height="12px" preserveAspectRatio="xMinYMin meet" x="13" y="-334.7"/>
<text text-anchor="start" x="28" y="-324.8" font-family="Helvetica,sans-Serif" font-size="11.00" fill="#000000">ENFORCEMENT</text>
<polygon fill="none" stroke="#000000" points="8,-295.7 8,-317.7 220,-317.7 220,-295.7 8,-295.7"/>
<image xlink:href="../../images/primaryKeys.png" width="11px" height="12px" preserveAspectRatio="xMinYMin meet" x="13" y="-312.7"/>
<text text-anchor="start" x="28" y="-302.8" font-family="Helvetica,sans-Serif" font-size="11.00" fill="#000000">DOCUMENT_LINKED</text>
<polygon fill="none" stroke="#000000" points="8,-273.7 8,-295.7 220,-295.7 220,-273.7 8,-273.7"/>
<image xlink:href="../../images/primaryKeys.png" width="11px" height="12px" preserveAspectRatio="xMinYMin meet" x="13" y="-290.7"/>
<text text-anchor="start" x="22.8069" y="-280.8" font-family="Helvetica,sans-Serif" font-size="11.00" fill="#000000">LATEST_ENFORCEMENT_ACTION_ID</text>
<polygon fill="none" stroke="#000000" points="8,-251.7 8,-273.7 220,-273.7 220,-251.7 8,-251.7"/>
<image xlink:href="../../images/primaryKeys.png" width="11px" height="12px" preserveAspectRatio="xMinYMin meet" x="13" y="-268.7"/>
<text text-anchor="start" x="28" y="-258.8" font-family="Helvetica,sans-Serif" font-size="11.00" fill="#000000">NSI_ID</text>
<polygon fill="none" stroke="#000000" points="8,-229.7 8,-251.7 220,-251.7 220,-229.7 8,-229.7"/>
<image xlink:href="../../images/primaryKeys.png" width="11px" height="12px" preserveAspectRatio="xMinYMin meet" x="13" y="-246.7"/>
<text text-anchor="start" x="28" y="-236.8" font-family="Helvetica,sans-Serif" font-size="11.00" fill="#000000">TABLE_NAME</text>
<polygon fill="none" stroke="#000000" points="8,-207.7 8,-229.7 220,-229.7 220,-207.7 8,-207.7"/>
<image xlink:href="../../images/primaryKeys.png" width="11px" height="12px" preserveAspectRatio="xMinYMin meet" x="13" y="-224.7"/>
<text text-anchor="start" x="28" y="-214.8" font-family="Helvetica,sans-Serif" font-size="11.00" fill="#000000">PRIMARY_KEY_ID</text>
<polygon fill="none" stroke="#000000" points="8,-185.7 8,-207.7 220,-207.7 220,-185.7 8,-185.7"/>
<image xlink:href="../../images/primaryKeys.png" width="11px" height="12px" preserveAspectRatio="xMinYMin meet" x="13" y="-202.7"/>
<text text-anchor="start" x="28" y="-192.8" font-family="Helvetica,sans-Serif" font-size="11.00" fill="#000000">PSS_RQMNT_ID</text>
<polygon fill="none" stroke="#000000" points="8,-163.7 8,-185.7 220,-185.7 220,-163.7 8,-163.7"/>
<image xlink:href="../../images/primaryKeys.png" width="11px" height="12px" preserveAspectRatio="xMinYMin meet" x="13" y="-180.7"/>
<text text-anchor="start" x="28" y="-170.8" font-family="Helvetica,sans-Serif" font-size="11.00" fill="#000000">NOMIS_CASE_NOTE_ID</text>
<polygon fill="none" stroke="#000000" points="8,-141.7 8,-163.7 220,-163.7 220,-141.7 8,-141.7"/>
<image xlink:href="../../images/primaryKeys.png" width="11px" height="12px" preserveAspectRatio="xMinYMin meet" x="13" y="-158.7"/>
<text text-anchor="start" x="28" y="-148.8" font-family="Helvetica,sans-Serif" font-size="11.00" fill="#000000">LINKED_DOCUMENT_CONTACT_ID</text>
<polygon fill="none" stroke="#000000" points="8,-119.7 8,-141.7 220,-141.7 220,-119.7 8,-119.7"/>
<image xlink:href="../../images/primaryKeys.png" width="11px" height="12px" preserveAspectRatio="xMinYMin meet" x="13" y="-136.7"/>
<text text-anchor="start" x="28" y="-126.8" font-family="Helvetica,sans-Serif" font-size="11.00" fill="#000000">EXTERNAL_REFERENCE</text>
<polygon fill="none" stroke="#000000" points="8,-97.7 8,-119.7 220,-119.7 220,-97.7 8,-97.7"/>
<image xlink:href="../../images/primaryKeys.png" width="11px" height="12px" preserveAspectRatio="xMinYMin meet" x="13" y="-114.7"/>
<text text-anchor="start" x="28" y="-104.8" font-family="Helvetica,sans-Serif" font-size="11.00" fill="#000000">RAR_LINKED_CONTACT_ID</text>
<polygon fill="none" stroke="#000000" points="8,-75.7 8,-97.7 220,-97.7 220,-75.7 8,-75.7"/>
<image xlink:href="../../images/primaryKeys.png" width="11px" height="12px" preserveAspectRatio="xMinYMin meet" x="13" y="-92.7"/>
<text text-anchor="start" x="21.57" y="-82.8" font-family="Helvetica,sans-Serif" font-size="11.00" fill="#000000">SESSION_DELIVERED_CON_TYPE_ID</text>
<polygon fill="none" stroke="#000000" points="8,-56.7 8,-75.7 220,-75.7 220,-56.7 8,-56.7"/>
<text text-anchor="start" x="11" y="-62.8" font-family="Helvetica,sans-Serif" font-size="11.00" fill="#000000">...</text>
<polygon fill="#ffffff" stroke="transparent" points="8,-37.7 8,-56.7 78,-56.7 78,-37.7 8,-37.7"/>
<polygon fill="none" stroke="#000000" points="8,-37.7 8,-56.7 78,-56.7 78,-37.7 8,-37.7"/>
<text text-anchor="start" x="11" y="-43.8" font-family="Helvetica,sans-Serif" font-size="11.00" fill="#000000">&lt; 26</text>
<polygon fill="#ffffff" stroke="transparent" points="78,-37.7 78,-56.7 171,-56.7 171,-37.7 78,-37.7"/>
<polygon fill="none" stroke="#000000" points="78,-37.7 78,-56.7 171,-56.7 171,-37.7 78,-37.7"/>
<text text-anchor="start" x="101.9791" y="-43.8" font-family="Helvetica,sans-Serif" font-size="11.00" fill="#000000">165,869 rows</text>
<polygon fill="#ffffff" stroke="transparent" points="171,-37.7 171,-56.7 220,-56.7 220,-37.7 171,-37.7"/>
<polygon fill="none" stroke="#000000" points="171,-37.7 171,-56.7 220,-56.7 220,-37.7 171,-37.7"/>
<text text-anchor="start" x="195.2904" y="-43.8" font-family="Helvetica,sans-Serif" font-size="11.00" fill="#000000">14 &gt;</text>
</a>
</g>
</g>
<!-- CONTACT_UPLOAD_DOCUMENT&#45;&gt;CONTACT -->
<g id="edge1" class="edge">
<title>CONTACT_UPLOAD_DOCUMENT:w&#45;&gt;CONTACT:e</title>
<path fill="none" stroke="#000000" d="M256.276,-1054.7C244.2815,-1054.7 236.8229,-1054.7 220,-1054.7"/>
<polygon fill="#000000" stroke="#000000" points="263,-1054.7001 271,-1058.3 267,-1054.7 271,-1054.7 271,-1054.7 271,-1054.7 267,-1054.7 271,-1051.1 263,-1054.7001 263,-1054.7001"/>
<ellipse fill="none" stroke="#000000" cx="259.8" cy="-1054.7001" rx="3.2" ry="3.2"/>
</g>
</g>
</svg>
