<?xml version="1.0" encoding="UTF-8" standalone="no"?>
<!DOCTYPE svg PUBLIC "-//W3C//DTD SVG 1.1//EN"
 "http://www.w3.org/Graphics/SVG/1.1/DTD/svg11.dtd">
<!-- Generated by graphviz version 2.40.1 (20161225.0304)
 -->
<!-- Title: oneDegreeRelationshipsDiagram Pages: 1 -->
<svg width="576pt" height="413pt"
 viewBox="0.00 0.00 576.00 413.20" xmlns="http://www.w3.org/2000/svg" xmlns:xlink="http://www.w3.org/1999/xlink">
<g id="graph0" class="graph" transform="scale(1 1) rotate(0) translate(4 409.2)">
<title>oneDegreeRelationshipsDiagram</title>
<polygon fill="#ffffff" stroke="transparent" points="-4,4 -4,-409.2 572,-409.2 572,4 -4,4"/>
<text text-anchor="middle" x="72.4936" y="-7.3" font-family="Helvetica,sans-Serif" font-size="11.00" fill="#000000">Generated by SchemaSpy</text>
<!-- DISPOSAL_TYPE_RQMNT_TYPE -->
<g id="node1" class="node">
<title>DISPOSAL_TYPE_RQMNT_TYPE</title>
<g id="a_node1"><a xlink:href="../../tables/DISPOSAL_TYPE_RQMNT_TYPE.html" xlink:title="DISPOSAL_TYPE_RQMNT_TYPE" target="_top">
<polygon fill="#ffffff" stroke="transparent" points="290,-84.7 290,-306.7 560,-306.7 560,-84.7 290,-84.7"/>
<polygon fill="#f5f5f5" stroke="transparent" points="292,-281.7 292,-304.7 558,-304.7 558,-281.7 292,-281.7"/>
<polygon fill="none" stroke="#000000" points="292,-281.7 292,-304.7 558,-304.7 558,-281.7 292,-281.7"/>
<text text-anchor="start" x="297" y="-290.8" font-family="Helvetica,sans-Serif" font-weight="bold" font-size="11.00" fill="#000000">DISPOSAL_TYPE_RQMNT_TYPE</text>
<text text-anchor="start" x="523.0437" y="-289.8" font-family="Helvetica,sans-Serif" font-size="11.00" fill="#000000">[table]</text>
<polygon fill="none" stroke="#000000" points="292,-259.7 292,-281.7 497,-281.7 497,-259.7 292,-259.7"/>
<image xlink:href="../../images/primaryKeys.png" width="11px" height="12px" preserveAspectRatio="xMinYMin meet" x="297" y="-276.7"/>
<text text-anchor="start" x="312" y="-266.8" font-family="Helvetica,sans-Serif" font-size="11.00" fill="#000000">DISPOSAL_TYPE_ID</text>
<polygon fill="none" stroke="#000000" points="497,-259.7 497,-281.7 558,-281.7 558,-259.7 497,-259.7"/>
<text text-anchor="start" x="499.6865" y="-267.4" font-family="Helvetica,sans-Serif" font-size="11.00" fill="#000000">number[38]</text>
<polygon fill="none" stroke="#000000" points="292,-237.7 292,-259.7 497,-259.7 497,-237.7 292,-237.7"/>
<image xlink:href="../../images/primaryKeys.png" width="11px" height="12px" preserveAspectRatio="xMinYMin meet" x="297" y="-254.7"/>
<text text-anchor="start" x="305.1379" y="-244.8" font-family="Helvetica,sans-Serif" font-size="11.00" fill="#000000">RQMNT_TYPE_MAIN_CATEGORY_ID</text>
<polygon fill="none" stroke="#000000" points="497,-237.7 497,-259.7 558,-259.7 558,-237.7 497,-237.7"/>
<text text-anchor="start" x="499.6865" y="-245.4" font-family="Helvetica,sans-Serif" font-size="11.00" fill="#000000">number[38]</text>
<polygon fill="none" stroke="#000000" points="292,-215.7 292,-237.7 497,-237.7 497,-215.7 292,-215.7"/>
<text text-anchor="start" x="312" y="-222.8" font-family="Helvetica,sans-Serif" font-size="11.00" fill="#000000">ROW_VERSION</text>
<polygon fill="none" stroke="#000000" points="497,-215.7 497,-237.7 558,-237.7 558,-215.7 497,-215.7"/>
<text text-anchor="start" x="499.6865" y="-223.4" font-family="Helvetica,sans-Serif" font-size="11.00" fill="#000000">number[38]</text>
<polygon fill="none" stroke="#000000" points="292,-193.7 292,-215.7 497,-215.7 497,-193.7 292,-193.7"/>
<text text-anchor="start" x="312" y="-200.8" font-family="Helvetica,sans-Serif" font-size="11.00" fill="#000000">CREATED_BY_USER_ID</text>
<polygon fill="none" stroke="#000000" points="497,-193.7 497,-215.7 558,-215.7 558,-193.7 497,-193.7"/>
<text text-anchor="start" x="499.6865" y="-201.4" font-family="Helvetica,sans-Serif" font-size="11.00" fill="#000000">number[38]</text>
<polygon fill="none" stroke="#000000" points="292,-171.7 292,-193.7 497,-193.7 497,-171.7 292,-171.7"/>
<text text-anchor="start" x="312" y="-178.8" font-family="Helvetica,sans-Serif" font-size="11.00" fill="#000000">CREATED_DATETIME</text>
<polygon fill="none" stroke="#000000" points="497,-171.7 497,-193.7 558,-193.7 558,-171.7 497,-171.7"/>
<text text-anchor="start" x="500" y="-179.4" font-family="Helvetica,sans-Serif" font-size="11.00" fill="#000000">date[7]</text>
<polygon fill="none" stroke="#000000" points="292,-149.7 292,-171.7 497,-171.7 497,-149.7 292,-149.7"/>
<text text-anchor="start" x="312" y="-156.8" font-family="Helvetica,sans-Serif" font-size="11.00" fill="#000000">LAST_UPDATED_USER_ID</text>
<polygon fill="none" stroke="#000000" points="497,-149.7 497,-171.7 558,-171.7 558,-149.7 497,-149.7"/>
<text text-anchor="start" x="499.6865" y="-157.4" font-family="Helvetica,sans-Serif" font-size="11.00" fill="#000000">number[38]</text>
<polygon fill="none" stroke="#000000" points="292,-127.7 292,-149.7 497,-149.7 497,-127.7 292,-127.7"/>
<text text-anchor="start" x="312" y="-134.8" font-family="Helvetica,sans-Serif" font-size="11.00" fill="#000000">LAST_UPDATED_DATETIME</text>
<polygon fill="none" stroke="#000000" points="497,-127.7 497,-149.7 558,-149.7 558,-127.7 497,-127.7"/>
<text text-anchor="start" x="500" y="-135.4" font-family="Helvetica,sans-Serif" font-size="11.00" fill="#000000">date[7]</text>
<polygon fill="none" stroke="#000000" points="292,-105.7 292,-127.7 497,-127.7 497,-105.7 292,-105.7"/>
<image xlink:href="../../images/primaryKeys.png" width="11px" height="12px" preserveAspectRatio="xMinYMin meet" x="297" y="-122.7"/>
<text text-anchor="start" x="312" y="-112.8" font-family="Helvetica,sans-Serif" font-size="11.00" fill="#000000">TRAINING_SESSION_ID</text>
<polygon fill="none" stroke="#000000" points="497,-105.7 497,-127.7 558,-127.7 558,-105.7 497,-105.7"/>
<text text-anchor="start" x="499.6865" y="-113.4" font-family="Helvetica,sans-Serif" font-size="11.00" fill="#000000">number[38]</text>
<polygon fill="#ffffff" stroke="transparent" points="292,-86.7 292,-105.7 380,-105.7 380,-86.7 292,-86.7"/>
<polygon fill="none" stroke="#000000" points="292,-86.7 292,-105.7 380,-105.7 380,-86.7 292,-86.7"/>
<text text-anchor="start" x="295" y="-92.8" font-family="Helvetica,sans-Serif" font-size="11.00" fill="#000000">&lt; 2</text>
<polygon fill="#ffffff" stroke="transparent" points="380,-86.7 380,-105.7 497,-105.7 497,-86.7 380,-86.7"/>
<polygon fill="none" stroke="#000000" points="380,-86.7 380,-105.7 497,-105.7 497,-86.7 380,-86.7"/>
<text text-anchor="start" x="449.3807" y="-92.8" font-family="Helvetica,sans-Serif" font-size="11.00" fill="#000000">398 rows</text>
<polygon fill="#ffffff" stroke="transparent" points="497,-86.7 497,-105.7 558,-105.7 558,-86.7 497,-86.7"/>
<polygon fill="none" stroke="#000000" points="497,-86.7 497,-105.7 558,-105.7 558,-86.7 497,-86.7"/>
<text text-anchor="start" x="539.4053" y="-92.8" font-family="Helvetica,sans-Serif" font-size="11.00" fill="#000000">0 &gt;</text>
<polygon fill="none" stroke="#000000" stroke-width="2" points="291,-85.7 291,-305.7 559,-305.7 559,-85.7 291,-85.7"/>
</a>
</g>
</g>
<!-- R_DISPOSAL_TYPE -->
<g id="node2" class="node">
<title>R_DISPOSAL_TYPE</title>
<g id="a_node2"><a xlink:href="../../tables/R_DISPOSAL_TYPE.html" xlink:title="R_DISPOSAL_TYPE" target="_top">
<polygon fill="#ffffff" stroke="transparent" points="17.5,-208.2 17.5,-401.2 231.5,-401.2 231.5,-208.2 17.5,-208.2"/>
<polygon fill="#f5f5f5" stroke="transparent" points="17.5,-377.7 17.5,-400.7 231.5,-400.7 231.5,-377.7 17.5,-377.7"/>
<polygon fill="none" stroke="#000000" points="17.5,-377.7 17.5,-400.7 231.5,-400.7 231.5,-377.7 17.5,-377.7"/>
<text text-anchor="start" x="22.5" y="-386.8" font-family="Helvetica,sans-Serif" font-weight="bold" font-size="11.00" fill="#000000">R_DISPOSAL_TYPE</text>
<text text-anchor="start" x="196.5437" y="-385.8" font-family="Helvetica,sans-Serif" font-size="11.00" fill="#000000">[table]</text>
<polygon fill="none" stroke="#000000" points="17.5,-355.7 17.5,-377.7 231.5,-377.7 231.5,-355.7 17.5,-355.7"/>
<image xlink:href="../../images/primaryKeys.png" width="11px" height="12px" preserveAspectRatio="xMinYMin meet" x="22.5" y="-372.7"/>
<text text-anchor="start" x="37.5" y="-362.8" font-family="Helvetica,sans-Serif" font-size="11.00" fill="#000000">DISPOSAL_TYPE_ID</text>
<polygon fill="none" stroke="#000000" points="17.5,-333.7 17.5,-355.7 231.5,-355.7 231.5,-333.7 17.5,-333.7"/>
<image xlink:href="../../images/primaryKeys.png" width="11px" height="12px" preserveAspectRatio="xMinYMin meet" x="22.5" y="-350.7"/>
<text text-anchor="start" x="37.5" y="-340.8" font-family="Helvetica,sans-Serif" font-size="11.00" fill="#000000">DISPOSAL_TYPE_CODE</text>
<polygon fill="none" stroke="#000000" points="17.5,-311.7 17.5,-333.7 231.5,-333.7 231.5,-311.7 17.5,-311.7"/>
<image xlink:href="../../images/primaryKeys.png" width="11px" height="12px" preserveAspectRatio="xMinYMin meet" x="22.5" y="-328.7"/>
<text text-anchor="start" x="37.5" y="-318.8" font-family="Helvetica,sans-Serif" font-size="11.00" fill="#000000">OUTCOME_ID</text>
<polygon fill="none" stroke="#000000" points="17.5,-289.7 17.5,-311.7 231.5,-311.7 231.5,-289.7 17.5,-289.7"/>
<image xlink:href="../../images/primaryKeys.png" width="11px" height="12px" preserveAspectRatio="xMinYMin meet" x="22.5" y="-306.7"/>
<text text-anchor="start" x="37.5" y="-296.8" font-family="Helvetica,sans-Serif" font-size="11.00" fill="#000000">FORM_20_CODE</text>
<polygon fill="none" stroke="#000000" points="17.5,-267.7 17.5,-289.7 231.5,-289.7 231.5,-267.7 17.5,-267.7"/>
<image xlink:href="../../images/primaryKeys.png" width="11px" height="12px" preserveAspectRatio="xMinYMin meet" x="22.5" y="-284.7"/>
<text text-anchor="start" x="37.5" y="-274.8" font-family="Helvetica,sans-Serif" font-size="11.00" fill="#000000">TRAINING_SESSION_ID</text>
<polygon fill="none" stroke="#000000" points="17.5,-245.7 17.5,-267.7 231.5,-267.7 231.5,-245.7 17.5,-245.7"/>
<image xlink:href="../../images/primaryKeys.png" width="11px" height="12px" preserveAspectRatio="xMinYMin meet" x="22.5" y="-262.7"/>
<text text-anchor="start" x="37.5" y="-252.8" font-family="Helvetica,sans-Serif" font-size="11.00" fill="#000000">UNITS_ID</text>
<polygon fill="none" stroke="#000000" points="17.5,-226.7 17.5,-245.7 231.5,-245.7 231.5,-226.7 17.5,-226.7"/>
<text text-anchor="start" x="20.5" y="-232.8" font-family="Helvetica,sans-Serif" font-size="11.00" fill="#000000">...</text>
<polygon fill="#ffffff" stroke="transparent" points="17.5,-207.7 17.5,-226.7 99.5,-226.7 99.5,-207.7 17.5,-207.7"/>
<polygon fill="none" stroke="#000000" points="17.5,-207.7 17.5,-226.7 99.5,-226.7 99.5,-207.7 17.5,-207.7"/>
<text text-anchor="start" x="20.5" y="-213.8" font-family="Helvetica,sans-Serif" font-size="11.00" fill="#000000">&lt; 2</text>
<polygon fill="#ffffff" stroke="transparent" points="99.5,-207.7 99.5,-226.7 179.5,-226.7 179.5,-207.7 99.5,-207.7"/>
<polygon fill="none" stroke="#000000" points="99.5,-207.7 99.5,-226.7 179.5,-226.7 179.5,-207.7 99.5,-207.7"/>
<text text-anchor="start" x="131.8807" y="-213.8" font-family="Helvetica,sans-Serif" font-size="11.00" fill="#000000">257 rows</text>
<polygon fill="#ffffff" stroke="transparent" points="179.5,-207.7 179.5,-226.7 231.5,-226.7 231.5,-207.7 179.5,-207.7"/>
<polygon fill="none" stroke="#000000" points="179.5,-207.7 179.5,-226.7 231.5,-226.7 231.5,-207.7 179.5,-207.7"/>
<text text-anchor="start" x="212.9053" y="-213.8" font-family="Helvetica,sans-Serif" font-size="11.00" fill="#000000">9 &gt;</text>
</a>
</g>
</g>
<!-- DISPOSAL_TYPE_RQMNT_TYPE&#45;&gt;R_DISPOSAL_TYPE -->
<g id="edge1" class="edge">
<title>DISPOSAL_TYPE_RQMNT_TYPE:w&#45;&gt;R_DISPOSAL_TYPE:e</title>
<path fill="none" stroke="#000000" d="M277.7183,-274.3461C249.781,-291.8816 276.0226,-366.7 231.5,-366.7"/>
<polygon fill="#000000" stroke="#000000" points="284.2486,-272.6789 292.8905,-274.1881 288.1243,-271.6895 292,-270.7 292,-270.7 292,-270.7 288.1243,-271.6895 291.1095,-267.2119 284.2486,-272.6789 284.2486,-272.6789"/>
<ellipse fill="none" stroke="#000000" cx="281.1481" cy="-273.4705" rx="3.2" ry="3.2"/>
</g>
<!-- R_RQMNT_TYPE_MAIN_CATEGORY -->
<g id="node3" class="node">
<title>R_RQMNT_TYPE_MAIN_CATEGORY</title>
<g id="a_node3"><a xlink:href="../../tables/R_RQMNT_TYPE_MAIN_CATEGORY.html" xlink:title="R_RQMNT_TYPE_MAIN_CATEGORY" target="_top">
<polygon fill="#ffffff" stroke="transparent" points="8,-38.2 8,-187.2 241,-187.2 241,-38.2 8,-38.2"/>
<polygon fill="#f5f5f5" stroke="transparent" points="8.5,-163.7 8.5,-186.7 241.5,-186.7 241.5,-163.7 8.5,-163.7"/>
<polygon fill="none" stroke="#000000" points="8.5,-163.7 8.5,-186.7 241.5,-186.7 241.5,-163.7 8.5,-163.7"/>
<text text-anchor="start" x="13.1663" y="-172.8" font-family="Helvetica,sans-Serif" font-weight="bold" font-size="11.00" fill="#000000">R_RQMNT_TYPE_MAIN_CATEGORY</text>
<text text-anchor="start" x="207.0219" y="-171.8" font-family="Helvetica,sans-Serif" font-size="11.00" fill="#000000">[table]</text>
<polygon fill="none" stroke="#000000" points="8.5,-141.7 8.5,-163.7 241.5,-163.7 241.5,-141.7 8.5,-141.7"/>
<image xlink:href="../../images/primaryKeys.png" width="11px" height="12px" preserveAspectRatio="xMinYMin meet" x="13.5" y="-158.7"/>
<text text-anchor="start" x="35.6379" y="-148.8" font-family="Helvetica,sans-Serif" font-size="11.00" fill="#000000">RQMNT_TYPE_MAIN_CATEGORY_ID</text>
<polygon fill="none" stroke="#000000" points="8.5,-119.7 8.5,-141.7 241.5,-141.7 241.5,-119.7 8.5,-119.7"/>
<image xlink:href="../../images/primaryKeys.png" width="11px" height="12px" preserveAspectRatio="xMinYMin meet" x="13.5" y="-136.7"/>
<text text-anchor="start" x="42.5" y="-126.8" font-family="Helvetica,sans-Serif" font-size="11.00" fill="#000000">CODE</text>
<polygon fill="none" stroke="#000000" points="8.5,-97.7 8.5,-119.7 241.5,-119.7 241.5,-97.7 8.5,-97.7"/>
<image xlink:href="../../images/primaryKeys.png" width="11px" height="12px" preserveAspectRatio="xMinYMin meet" x="13.5" y="-114.7"/>
<text text-anchor="start" x="42.5" y="-104.8" font-family="Helvetica,sans-Serif" font-size="11.00" fill="#000000">TRAINING_SESSION_ID</text>
<polygon fill="none" stroke="#000000" points="8.5,-75.7 8.5,-97.7 241.5,-97.7 241.5,-75.7 8.5,-75.7"/>
<image xlink:href="../../images/primaryKeys.png" width="11px" height="12px" preserveAspectRatio="xMinYMin meet" x="13.5" y="-92.7"/>
<text text-anchor="start" x="42.5" y="-82.8" font-family="Helvetica,sans-Serif" font-size="11.00" fill="#000000">UNITS_ID</text>
<polygon fill="none" stroke="#000000" points="8.5,-56.7 8.5,-75.7 241.5,-75.7 241.5,-56.7 8.5,-56.7"/>
<text text-anchor="start" x="11.5" y="-62.8" font-family="Helvetica,sans-Serif" font-size="11.00" fill="#000000">...</text>
<polygon fill="#ffffff" stroke="transparent" points="8.5,-37.7 8.5,-56.7 96.5,-56.7 96.5,-37.7 8.5,-37.7"/>
<polygon fill="none" stroke="#000000" points="8.5,-37.7 8.5,-56.7 96.5,-56.7 96.5,-37.7 8.5,-37.7"/>
<text text-anchor="start" x="11.5" y="-43.8" font-family="Helvetica,sans-Serif" font-size="11.00" fill="#000000">&lt; 1</text>
<polygon fill="#ffffff" stroke="transparent" points="96.5,-37.7 96.5,-56.7 180.5,-56.7 180.5,-37.7 96.5,-37.7"/>
<polygon fill="none" stroke="#000000" points="96.5,-37.7 96.5,-56.7 180.5,-56.7 180.5,-37.7 96.5,-37.7"/>
<text text-anchor="start" x="132.8807" y="-43.8" font-family="Helvetica,sans-Serif" font-size="11.00" fill="#000000">548 rows</text>
<polygon fill="#ffffff" stroke="transparent" points="180.5,-37.7 180.5,-56.7 241.5,-56.7 241.5,-37.7 180.5,-37.7"/>
<polygon fill="none" stroke="#000000" points="180.5,-37.7 180.5,-56.7 241.5,-56.7 241.5,-37.7 180.5,-37.7"/>
<text text-anchor="start" x="216.7904" y="-43.8" font-family="Helvetica,sans-Serif" font-size="11.00" fill="#000000">10 &gt;</text>
</a>
</g>
</g>
<!-- DISPOSAL_TYPE_RQMNT_TYPE&#45;&gt;R_RQMNT_TYPE_MAIN_CATEGORY -->
<g id="edge2" class="edge">
<title>DISPOSAL_TYPE_RQMNT_TYPE:w&#45;&gt;R_RQMNT_TYPE_MAIN_CATEGORY:e</title>
<path fill="none" stroke="#000000" d="M277.9659,-244.575C253.7993,-226.2 283.6837,-152.7 241.5,-152.7"/>
<polygon fill="#000000" stroke="#000000" points="284.3247,-246.444 290.9848,-252.1539 288.1623,-247.572 292,-248.7 292,-248.7 292,-248.7 288.1623,-247.572 293.0152,-245.2461 284.3247,-246.444 284.3247,-246.444"/>
<ellipse fill="none" stroke="#000000" cx="281.2545" cy="-245.5416" rx="3.2" ry="3.2"/>
</g>
</g>
</svg>
