<?xml version="1.0" encoding="UTF-8" standalone="no"?>
<!DOCTYPE svg PUBLIC "-//W3C//DTD SVG 1.1//EN"
 "http://www.w3.org/Graphics/SVG/1.1/DTD/svg11.dtd">
<!-- Generated by graphviz version 2.40.1 (20161225.0304)
 -->
<!-- Title: oneDegreeRelationshipsDiagram Pages: 1 -->
<svg width="550pt" height="413pt"
 viewBox="0.00 0.00 550.00 413.20" xmlns="http://www.w3.org/2000/svg" xmlns:xlink="http://www.w3.org/1999/xlink">
<g id="graph0" class="graph" transform="scale(1 1) rotate(0) translate(4 409.2)">
<title>oneDegreeRelationshipsDiagram</title>
<polygon fill="#ffffff" stroke="transparent" points="-4,4 -4,-409.2 546,-409.2 546,4 -4,4"/>
<text text-anchor="middle" x="72.4936" y="-7.3" font-family="Helvetica,sans-Serif" font-size="11.00" fill="#000000">Generated by SchemaSpy</text>
<!-- DISPOSAL_TYPE_LIC_COND_TYPE -->
<g id="node1" class="node">
<title>DISPOSAL_TYPE_LIC_COND_TYPE</title>
<g id="a_node1"><a xlink:href="../../tables/DISPOSAL_TYPE_LIC_COND_TYPE.html" xlink:title="DISPOSAL_TYPE_LIC_COND_TYPE" target="_top">
<polygon fill="#ffffff" stroke="transparent" points="271,-84.7 271,-306.7 534,-306.7 534,-84.7 271,-84.7"/>
<polygon fill="#f5f5f5" stroke="transparent" points="273.5,-281.7 273.5,-304.7 532.5,-304.7 532.5,-281.7 273.5,-281.7"/>
<polygon fill="none" stroke="#000000" points="273.5,-281.7 273.5,-304.7 532.5,-304.7 532.5,-281.7 273.5,-281.7"/>
<text text-anchor="start" x="278.5" y="-290.8" font-family="Helvetica,sans-Serif" font-weight="bold" font-size="11.00" fill="#000000">DISPOSAL_TYPE_LIC_COND_TYPE</text>
<text text-anchor="start" x="497.5437" y="-289.8" font-family="Helvetica,sans-Serif" font-size="11.00" fill="#000000">[table]</text>
<polygon fill="none" stroke="#000000" points="273.5,-259.7 273.5,-281.7 471.5,-281.7 471.5,-259.7 273.5,-259.7"/>
<image xlink:href="../../images/primaryKeys.png" width="11px" height="12px" preserveAspectRatio="xMinYMin meet" x="278.5" y="-276.7"/>
<text text-anchor="start" x="293.5" y="-266.8" font-family="Helvetica,sans-Serif" font-size="11.00" fill="#000000">DISPOSAL_TYPE_ID</text>
<polygon fill="none" stroke="#000000" points="471.5,-259.7 471.5,-281.7 532.5,-281.7 532.5,-259.7 471.5,-259.7"/>
<text text-anchor="start" x="474.1865" y="-267.4" font-family="Helvetica,sans-Serif" font-size="11.00" fill="#000000">number[38]</text>
<polygon fill="none" stroke="#000000" points="273.5,-237.7 273.5,-259.7 471.5,-259.7 471.5,-237.7 273.5,-237.7"/>
<image xlink:href="../../images/primaryKeys.png" width="11px" height="12px" preserveAspectRatio="xMinYMin meet" x="278.5" y="-254.7"/>
<text text-anchor="start" x="293.5" y="-244.8" font-family="Helvetica,sans-Serif" font-size="11.00" fill="#000000">LIC_COND_TYPE_MAIN_CAT_ID</text>
<polygon fill="none" stroke="#000000" points="471.5,-237.7 471.5,-259.7 532.5,-259.7 532.5,-237.7 471.5,-237.7"/>
<text text-anchor="start" x="474.1865" y="-245.4" font-family="Helvetica,sans-Serif" font-size="11.00" fill="#000000">number[38]</text>
<polygon fill="none" stroke="#000000" points="273.5,-215.7 273.5,-237.7 471.5,-237.7 471.5,-215.7 273.5,-215.7"/>
<text text-anchor="start" x="293.5" y="-222.8" font-family="Helvetica,sans-Serif" font-size="11.00" fill="#000000">ROW_VERSION</text>
<polygon fill="none" stroke="#000000" points="471.5,-215.7 471.5,-237.7 532.5,-237.7 532.5,-215.7 471.5,-215.7"/>
<text text-anchor="start" x="474.1865" y="-223.4" font-family="Helvetica,sans-Serif" font-size="11.00" fill="#000000">number[38]</text>
<polygon fill="none" stroke="#000000" points="273.5,-193.7 273.5,-215.7 471.5,-215.7 471.5,-193.7 273.5,-193.7"/>
<text text-anchor="start" x="293.5" y="-200.8" font-family="Helvetica,sans-Serif" font-size="11.00" fill="#000000">CREATED_BY_USER_ID</text>
<polygon fill="none" stroke="#000000" points="471.5,-193.7 471.5,-215.7 532.5,-215.7 532.5,-193.7 471.5,-193.7"/>
<text text-anchor="start" x="474.1865" y="-201.4" font-family="Helvetica,sans-Serif" font-size="11.00" fill="#000000">number[38]</text>
<polygon fill="none" stroke="#000000" points="273.5,-171.7 273.5,-193.7 471.5,-193.7 471.5,-171.7 273.5,-171.7"/>
<text text-anchor="start" x="293.5" y="-178.8" font-family="Helvetica,sans-Serif" font-size="11.00" fill="#000000">CREATED_DATETIME</text>
<polygon fill="none" stroke="#000000" points="471.5,-171.7 471.5,-193.7 532.5,-193.7 532.5,-171.7 471.5,-171.7"/>
<text text-anchor="start" x="474.5" y="-179.4" font-family="Helvetica,sans-Serif" font-size="11.00" fill="#000000">date[7]</text>
<polygon fill="none" stroke="#000000" points="273.5,-149.7 273.5,-171.7 471.5,-171.7 471.5,-149.7 273.5,-149.7"/>
<text text-anchor="start" x="293.5" y="-156.8" font-family="Helvetica,sans-Serif" font-size="11.00" fill="#000000">LAST_UPDATED_USER_ID</text>
<polygon fill="none" stroke="#000000" points="471.5,-149.7 471.5,-171.7 532.5,-171.7 532.5,-149.7 471.5,-149.7"/>
<text text-anchor="start" x="474.1865" y="-157.4" font-family="Helvetica,sans-Serif" font-size="11.00" fill="#000000">number[38]</text>
<polygon fill="none" stroke="#000000" points="273.5,-127.7 273.5,-149.7 471.5,-149.7 471.5,-127.7 273.5,-127.7"/>
<text text-anchor="start" x="293.5" y="-134.8" font-family="Helvetica,sans-Serif" font-size="11.00" fill="#000000">LAST_UPDATED_DATETIME</text>
<polygon fill="none" stroke="#000000" points="471.5,-127.7 471.5,-149.7 532.5,-149.7 532.5,-127.7 471.5,-127.7"/>
<text text-anchor="start" x="474.5" y="-135.4" font-family="Helvetica,sans-Serif" font-size="11.00" fill="#000000">date[7]</text>
<polygon fill="none" stroke="#000000" points="273.5,-105.7 273.5,-127.7 471.5,-127.7 471.5,-105.7 273.5,-105.7"/>
<image xlink:href="../../images/primaryKeys.png" width="11px" height="12px" preserveAspectRatio="xMinYMin meet" x="278.5" y="-122.7"/>
<text text-anchor="start" x="293.5" y="-112.8" font-family="Helvetica,sans-Serif" font-size="11.00" fill="#000000">TRAINING_SESSION_ID</text>
<polygon fill="none" stroke="#000000" points="471.5,-105.7 471.5,-127.7 532.5,-127.7 532.5,-105.7 471.5,-105.7"/>
<text text-anchor="start" x="474.1865" y="-113.4" font-family="Helvetica,sans-Serif" font-size="11.00" fill="#000000">number[38]</text>
<polygon fill="#ffffff" stroke="transparent" points="273.5,-86.7 273.5,-105.7 357.5,-105.7 357.5,-86.7 273.5,-86.7"/>
<polygon fill="none" stroke="#000000" points="273.5,-86.7 273.5,-105.7 357.5,-105.7 357.5,-86.7 273.5,-86.7"/>
<text text-anchor="start" x="276.5" y="-92.8" font-family="Helvetica,sans-Serif" font-size="11.00" fill="#000000">&lt; 2</text>
<polygon fill="#ffffff" stroke="transparent" points="357.5,-86.7 357.5,-105.7 471.5,-105.7 471.5,-86.7 357.5,-86.7"/>
<polygon fill="none" stroke="#000000" points="357.5,-86.7 357.5,-105.7 471.5,-105.7 471.5,-86.7 357.5,-86.7"/>
<text text-anchor="start" x="423.8807" y="-92.8" font-family="Helvetica,sans-Serif" font-size="11.00" fill="#000000">681 rows</text>
<polygon fill="#ffffff" stroke="transparent" points="471.5,-86.7 471.5,-105.7 532.5,-105.7 532.5,-86.7 471.5,-86.7"/>
<polygon fill="none" stroke="#000000" points="471.5,-86.7 471.5,-105.7 532.5,-105.7 532.5,-86.7 471.5,-86.7"/>
<text text-anchor="start" x="513.9053" y="-92.8" font-family="Helvetica,sans-Serif" font-size="11.00" fill="#000000">0 &gt;</text>
<polygon fill="none" stroke="#000000" stroke-width="2" points="272,-85.7 272,-305.7 533,-305.7 533,-85.7 272,-85.7"/>
</a>
</g>
</g>
<!-- R_DISPOSAL_TYPE -->
<g id="node2" class="node">
<title>R_DISPOSAL_TYPE</title>
<g id="a_node2"><a xlink:href="../../tables/R_DISPOSAL_TYPE.html" xlink:title="R_DISPOSAL_TYPE" target="_top">
<polygon fill="#ffffff" stroke="transparent" points="8,-208.2 8,-401.2 222,-401.2 222,-208.2 8,-208.2"/>
<polygon fill="#f5f5f5" stroke="transparent" points="8,-377.7 8,-400.7 222,-400.7 222,-377.7 8,-377.7"/>
<polygon fill="none" stroke="#000000" points="8,-377.7 8,-400.7 222,-400.7 222,-377.7 8,-377.7"/>
<text text-anchor="start" x="13" y="-386.8" font-family="Helvetica,sans-Serif" font-weight="bold" font-size="11.00" fill="#000000">R_DISPOSAL_TYPE</text>
<text text-anchor="start" x="187.0437" y="-385.8" font-family="Helvetica,sans-Serif" font-size="11.00" fill="#000000">[table]</text>
<polygon fill="none" stroke="#000000" points="8,-355.7 8,-377.7 222,-377.7 222,-355.7 8,-355.7"/>
<image xlink:href="../../images/primaryKeys.png" width="11px" height="12px" preserveAspectRatio="xMinYMin meet" x="13" y="-372.7"/>
<text text-anchor="start" x="28" y="-362.8" font-family="Helvetica,sans-Serif" font-size="11.00" fill="#000000">DISPOSAL_TYPE_ID</text>
<polygon fill="none" stroke="#000000" points="8,-333.7 8,-355.7 222,-355.7 222,-333.7 8,-333.7"/>
<image xlink:href="../../images/primaryKeys.png" width="11px" height="12px" preserveAspectRatio="xMinYMin meet" x="13" y="-350.7"/>
<text text-anchor="start" x="28" y="-340.8" font-family="Helvetica,sans-Serif" font-size="11.00" fill="#000000">DISPOSAL_TYPE_CODE</text>
<polygon fill="none" stroke="#000000" points="8,-311.7 8,-333.7 222,-333.7 222,-311.7 8,-311.7"/>
<image xlink:href="../../images/primaryKeys.png" width="11px" height="12px" preserveAspectRatio="xMinYMin meet" x="13" y="-328.7"/>
<text text-anchor="start" x="28" y="-318.8" font-family="Helvetica,sans-Serif" font-size="11.00" fill="#000000">OUTCOME_ID</text>
<polygon fill="none" stroke="#000000" points="8,-289.7 8,-311.7 222,-311.7 222,-289.7 8,-289.7"/>
<image xlink:href="../../images/primaryKeys.png" width="11px" height="12px" preserveAspectRatio="xMinYMin meet" x="13" y="-306.7"/>
<text text-anchor="start" x="28" y="-296.8" font-family="Helvetica,sans-Serif" font-size="11.00" fill="#000000">FORM_20_CODE</text>
<polygon fill="none" stroke="#000000" points="8,-267.7 8,-289.7 222,-289.7 222,-267.7 8,-267.7"/>
<image xlink:href="../../images/primaryKeys.png" width="11px" height="12px" preserveAspectRatio="xMinYMin meet" x="13" y="-284.7"/>
<text text-anchor="start" x="28" y="-274.8" font-family="Helvetica,sans-Serif" font-size="11.00" fill="#000000">TRAINING_SESSION_ID</text>
<polygon fill="none" stroke="#000000" points="8,-245.7 8,-267.7 222,-267.7 222,-245.7 8,-245.7"/>
<image xlink:href="../../images/primaryKeys.png" width="11px" height="12px" preserveAspectRatio="xMinYMin meet" x="13" y="-262.7"/>
<text text-anchor="start" x="28" y="-252.8" font-family="Helvetica,sans-Serif" font-size="11.00" fill="#000000">UNITS_ID</text>
<polygon fill="none" stroke="#000000" points="8,-226.7 8,-245.7 222,-245.7 222,-226.7 8,-226.7"/>
<text text-anchor="start" x="11" y="-232.8" font-family="Helvetica,sans-Serif" font-size="11.00" fill="#000000">...</text>
<polygon fill="#ffffff" stroke="transparent" points="8,-207.7 8,-226.7 90,-226.7 90,-207.7 8,-207.7"/>
<polygon fill="none" stroke="#000000" points="8,-207.7 8,-226.7 90,-226.7 90,-207.7 8,-207.7"/>
<text text-anchor="start" x="11" y="-213.8" font-family="Helvetica,sans-Serif" font-size="11.00" fill="#000000">&lt; 2</text>
<polygon fill="#ffffff" stroke="transparent" points="90,-207.7 90,-226.7 170,-226.7 170,-207.7 90,-207.7"/>
<polygon fill="none" stroke="#000000" points="90,-207.7 90,-226.7 170,-226.7 170,-207.7 90,-207.7"/>
<text text-anchor="start" x="122.3807" y="-213.8" font-family="Helvetica,sans-Serif" font-size="11.00" fill="#000000">257 rows</text>
<polygon fill="#ffffff" stroke="transparent" points="170,-207.7 170,-226.7 222,-226.7 222,-207.7 170,-207.7"/>
<polygon fill="none" stroke="#000000" points="170,-207.7 170,-226.7 222,-226.7 222,-207.7 170,-207.7"/>
<text text-anchor="start" x="203.4053" y="-213.8" font-family="Helvetica,sans-Serif" font-size="11.00" fill="#000000">9 &gt;</text>
</a>
</g>
</g>
<!-- DISPOSAL_TYPE_LIC_COND_TYPE&#45;&gt;R_DISPOSAL_TYPE -->
<g id="edge1" class="edge">
<title>DISPOSAL_TYPE_LIC_COND_TYPE:w&#45;&gt;R_DISPOSAL_TYPE:e</title>
<path fill="none" stroke="#000000" d="M259.3716,-274.825C234.9509,-293.2 264.3661,-366.7 222,-366.7"/>
<polygon fill="#000000" stroke="#000000" points="265.8206,-272.9422 274.509,-274.1557 269.6603,-271.8211 273.5,-270.7 273.5,-270.7 273.5,-270.7 269.6603,-271.8211 272.491,-267.2443 265.8206,-272.9422 265.8206,-272.9422"/>
<ellipse fill="none" stroke="#000000" cx="262.7489" cy="-273.839" rx="3.2" ry="3.2"/>
</g>
<!-- R_LIC_COND_TYPE_MAIN_CAT -->
<g id="node3" class="node">
<title>R_LIC_COND_TYPE_MAIN_CAT</title>
<g id="a_node3"><a xlink:href="../../tables/R_LIC_COND_TYPE_MAIN_CAT.html" xlink:title="R_LIC_COND_TYPE_MAIN_CAT" target="_top">
<polygon fill="#ffffff" stroke="transparent" points="10.5,-38.2 10.5,-187.2 219.5,-187.2 219.5,-38.2 10.5,-38.2"/>
<polygon fill="#f5f5f5" stroke="transparent" points="11,-163.7 11,-186.7 220,-186.7 220,-163.7 11,-163.7"/>
<polygon fill="none" stroke="#000000" points="11,-163.7 11,-186.7 220,-186.7 220,-163.7 11,-163.7"/>
<text text-anchor="start" x="15.8862" y="-172.8" font-family="Helvetica,sans-Serif" font-weight="bold" font-size="11.00" fill="#000000">R_LIC_COND_TYPE_MAIN_CAT</text>
<text text-anchor="start" x="185.5219" y="-171.8" font-family="Helvetica,sans-Serif" font-size="11.00" fill="#000000">[table]</text>
<polygon fill="none" stroke="#000000" points="11,-141.7 11,-163.7 220,-163.7 220,-141.7 11,-141.7"/>
<image xlink:href="../../images/primaryKeys.png" width="11px" height="12px" preserveAspectRatio="xMinYMin meet" x="16" y="-158.7"/>
<text text-anchor="start" x="38.3577" y="-148.8" font-family="Helvetica,sans-Serif" font-size="11.00" fill="#000000">LIC_COND_TYPE_MAIN_CAT_ID</text>
<polygon fill="none" stroke="#000000" points="11,-119.7 11,-141.7 220,-141.7 220,-119.7 11,-119.7"/>
<image xlink:href="../../images/primaryKeys.png" width="11px" height="12px" preserveAspectRatio="xMinYMin meet" x="16" y="-136.7"/>
<text text-anchor="start" x="44" y="-126.8" font-family="Helvetica,sans-Serif" font-size="11.00" fill="#000000">CODE</text>
<polygon fill="none" stroke="#000000" points="11,-97.7 11,-119.7 220,-119.7 220,-97.7 11,-97.7"/>
<image xlink:href="../../images/primaryKeys.png" width="11px" height="12px" preserveAspectRatio="xMinYMin meet" x="16" y="-114.7"/>
<text text-anchor="start" x="44" y="-104.8" font-family="Helvetica,sans-Serif" font-size="11.00" fill="#000000">UNITS_ID</text>
<polygon fill="none" stroke="#000000" points="11,-75.7 11,-97.7 220,-97.7 220,-75.7 11,-75.7"/>
<image xlink:href="../../images/primaryKeys.png" width="11px" height="12px" preserveAspectRatio="xMinYMin meet" x="16" y="-92.7"/>
<text text-anchor="start" x="44" y="-82.8" font-family="Helvetica,sans-Serif" font-size="11.00" fill="#000000">TRAINING_SESSION_ID</text>
<polygon fill="none" stroke="#000000" points="11,-56.7 11,-75.7 220,-75.7 220,-56.7 11,-56.7"/>
<text text-anchor="start" x="14" y="-62.8" font-family="Helvetica,sans-Serif" font-size="11.00" fill="#000000">...</text>
<polygon fill="#ffffff" stroke="transparent" points="11,-37.7 11,-56.7 90,-56.7 90,-37.7 11,-37.7"/>
<polygon fill="none" stroke="#000000" points="11,-37.7 11,-56.7 90,-56.7 90,-37.7 11,-37.7"/>
<text text-anchor="start" x="14" y="-43.8" font-family="Helvetica,sans-Serif" font-size="11.00" fill="#000000">&lt; 1</text>
<polygon fill="#ffffff" stroke="transparent" points="90,-37.7 90,-56.7 169,-56.7 169,-37.7 90,-37.7"/>
<polygon fill="none" stroke="#000000" points="90,-37.7 90,-56.7 169,-56.7 169,-37.7 90,-37.7"/>
<text text-anchor="start" x="121.3807" y="-43.8" font-family="Helvetica,sans-Serif" font-size="11.00" fill="#000000">550 rows</text>
<polygon fill="#ffffff" stroke="transparent" points="169,-37.7 169,-56.7 220,-56.7 220,-37.7 169,-37.7"/>
<polygon fill="none" stroke="#000000" points="169,-37.7 169,-56.7 220,-56.7 220,-37.7 169,-37.7"/>
<text text-anchor="start" x="201.4053" y="-43.8" font-family="Helvetica,sans-Serif" font-size="11.00" fill="#000000">8 &gt;</text>
</a>
</g>
</g>
<!-- DISPOSAL_TYPE_LIC_COND_TYPE&#45;&gt;R_LIC_COND_TYPE_MAIN_CAT -->
<g id="edge2" class="edge">
<title>DISPOSAL_TYPE_LIC_COND_TYPE:w&#45;&gt;R_LIC_COND_TYPE_MAIN_CAT:e</title>
<path fill="none" stroke="#000000" d="M259.5179,-244.8178C233.9931,-226.8577 262.9301,-152.7 220,-152.7"/>
<polygon fill="#000000" stroke="#000000" points="265.7916,-246.5597 272.5369,-252.1688 269.6458,-247.6298 273.5,-248.7 273.5,-248.7 273.5,-248.7 269.6458,-247.6298 274.4631,-245.2312 265.7916,-246.5597 265.7916,-246.5597"/>
<ellipse fill="none" stroke="#000000" cx="262.7083" cy="-245.7036" rx="3.2" ry="3.2"/>
</g>
</g>
</svg>
