<?xml version="1.0" encoding="UTF-8" standalone="no"?>
<!DOCTYPE svg PUBLIC "-//W3C//DTD SVG 1.1//EN"
 "http://www.w3.org/Graphics/SVG/1.1/DTD/svg11.dtd">
<!-- Generated by graphviz version 2.40.1 (20161225.0304)
 -->
<!-- Title: oneDegreeRelationshipsDiagram Pages: 1 -->
<svg width="817pt" height="352pt"
 viewBox="0.00 0.00 817.00 351.70" xmlns="http://www.w3.org/2000/svg" xmlns:xlink="http://www.w3.org/1999/xlink">
<g id="graph0" class="graph" transform="scale(1 1) rotate(0) translate(4 347.7)">
<title>oneDegreeRelationshipsDiagram</title>
<polygon fill="#ffffff" stroke="transparent" points="-4,4 -4,-347.7 813,-347.7 813,4 -4,4"/>
<text text-anchor="middle" x="72.4936" y="-7.3" font-family="Helvetica,sans-Serif" font-size="11.00" fill="#000000">Generated by SchemaSpy</text>
<!-- DISPOSAL_TYPE_AD_SENT_TYPE -->
<g id="node1" class="node">
<title>DISPOSAL_TYPE_AD_SENT_TYPE</title>
<g id="a_node1"><a xlink:href="../../tables/DISPOSAL_TYPE_AD_SENT_TYPE.html" xlink:title="DISPOSAL_TYPE_AD_SENT_TYPE" target="_top">
<polygon fill="#ffffff" stroke="transparent" points="540,-38.2 540,-260.2 801,-260.2 801,-38.2 540,-38.2"/>
<polygon fill="#f5f5f5" stroke="transparent" points="542.5,-235.2 542.5,-258.2 799.5,-258.2 799.5,-235.2 542.5,-235.2"/>
<polygon fill="none" stroke="#000000" points="542.5,-235.2 542.5,-258.2 799.5,-258.2 799.5,-235.2 542.5,-235.2"/>
<text text-anchor="start" x="547.5" y="-244.3" font-family="Helvetica,sans-Serif" font-weight="bold" font-size="11.00" fill="#000000">DISPOSAL_TYPE_AD_SENT_TYPE</text>
<text text-anchor="start" x="764.5437" y="-243.3" font-family="Helvetica,sans-Serif" font-size="11.00" fill="#000000">[table]</text>
<polygon fill="none" stroke="#000000" points="542.5,-213.2 542.5,-235.2 738.5,-235.2 738.5,-213.2 542.5,-213.2"/>
<image xlink:href="../../images/primaryKeys.png" width="11px" height="12px" preserveAspectRatio="xMinYMin meet" x="547.5" y="-230.2"/>
<text text-anchor="start" x="562.5" y="-220.3" font-family="Helvetica,sans-Serif" font-size="11.00" fill="#000000">DISPOSAL_TYPE_ID</text>
<polygon fill="none" stroke="#000000" points="738.5,-213.2 738.5,-235.2 799.5,-235.2 799.5,-213.2 738.5,-213.2"/>
<text text-anchor="start" x="741.1865" y="-220.9" font-family="Helvetica,sans-Serif" font-size="11.00" fill="#000000">number[38]</text>
<polygon fill="none" stroke="#000000" points="542.5,-191.2 542.5,-213.2 738.5,-213.2 738.5,-191.2 542.5,-191.2"/>
<image xlink:href="../../images/primaryKeys.png" width="11px" height="12px" preserveAspectRatio="xMinYMin meet" x="547.5" y="-208.2"/>
<text text-anchor="start" x="556.0219" y="-198.3" font-family="Helvetica,sans-Serif" font-size="11.00" fill="#000000">ADDITIONAL_SENTENCE_TYPE_ID</text>
<polygon fill="none" stroke="#000000" points="738.5,-191.2 738.5,-213.2 799.5,-213.2 799.5,-191.2 738.5,-191.2"/>
<text text-anchor="start" x="741.1865" y="-198.9" font-family="Helvetica,sans-Serif" font-size="11.00" fill="#000000">number[38]</text>
<polygon fill="none" stroke="#000000" points="542.5,-169.2 542.5,-191.2 738.5,-191.2 738.5,-169.2 542.5,-169.2"/>
<text text-anchor="start" x="562.5" y="-176.3" font-family="Helvetica,sans-Serif" font-size="11.00" fill="#000000">ROW_VERSION</text>
<polygon fill="none" stroke="#000000" points="738.5,-169.2 738.5,-191.2 799.5,-191.2 799.5,-169.2 738.5,-169.2"/>
<text text-anchor="start" x="741.1865" y="-176.9" font-family="Helvetica,sans-Serif" font-size="11.00" fill="#000000">number[38]</text>
<polygon fill="none" stroke="#000000" points="542.5,-147.2 542.5,-169.2 738.5,-169.2 738.5,-147.2 542.5,-147.2"/>
<text text-anchor="start" x="562.5" y="-154.3" font-family="Helvetica,sans-Serif" font-size="11.00" fill="#000000">CREATED_BY_USER_ID</text>
<polygon fill="none" stroke="#000000" points="738.5,-147.2 738.5,-169.2 799.5,-169.2 799.5,-147.2 738.5,-147.2"/>
<text text-anchor="start" x="741.1865" y="-154.9" font-family="Helvetica,sans-Serif" font-size="11.00" fill="#000000">number[38]</text>
<polygon fill="none" stroke="#000000" points="542.5,-125.2 542.5,-147.2 738.5,-147.2 738.5,-125.2 542.5,-125.2"/>
<text text-anchor="start" x="562.5" y="-132.3" font-family="Helvetica,sans-Serif" font-size="11.00" fill="#000000">CREATED_DATETIME</text>
<polygon fill="none" stroke="#000000" points="738.5,-125.2 738.5,-147.2 799.5,-147.2 799.5,-125.2 738.5,-125.2"/>
<text text-anchor="start" x="741.5" y="-132.9" font-family="Helvetica,sans-Serif" font-size="11.00" fill="#000000">date[7]</text>
<polygon fill="none" stroke="#000000" points="542.5,-103.2 542.5,-125.2 738.5,-125.2 738.5,-103.2 542.5,-103.2"/>
<text text-anchor="start" x="562.5" y="-110.3" font-family="Helvetica,sans-Serif" font-size="11.00" fill="#000000">LAST_UPDATED_USER_ID</text>
<polygon fill="none" stroke="#000000" points="738.5,-103.2 738.5,-125.2 799.5,-125.2 799.5,-103.2 738.5,-103.2"/>
<text text-anchor="start" x="741.1865" y="-110.9" font-family="Helvetica,sans-Serif" font-size="11.00" fill="#000000">number[38]</text>
<polygon fill="none" stroke="#000000" points="542.5,-81.2 542.5,-103.2 738.5,-103.2 738.5,-81.2 542.5,-81.2"/>
<text text-anchor="start" x="562.5" y="-88.3" font-family="Helvetica,sans-Serif" font-size="11.00" fill="#000000">LAST_UPDATED_DATETIME</text>
<polygon fill="none" stroke="#000000" points="738.5,-81.2 738.5,-103.2 799.5,-103.2 799.5,-81.2 738.5,-81.2"/>
<text text-anchor="start" x="741.5" y="-88.9" font-family="Helvetica,sans-Serif" font-size="11.00" fill="#000000">date[7]</text>
<polygon fill="none" stroke="#000000" points="542.5,-59.2 542.5,-81.2 738.5,-81.2 738.5,-59.2 542.5,-59.2"/>
<image xlink:href="../../images/primaryKeys.png" width="11px" height="12px" preserveAspectRatio="xMinYMin meet" x="547.5" y="-76.2"/>
<text text-anchor="start" x="562.5" y="-66.3" font-family="Helvetica,sans-Serif" font-size="11.00" fill="#000000">TRAINING_SESSION_ID</text>
<polygon fill="none" stroke="#000000" points="738.5,-59.2 738.5,-81.2 799.5,-81.2 799.5,-59.2 738.5,-59.2"/>
<text text-anchor="start" x="741.1865" y="-66.9" font-family="Helvetica,sans-Serif" font-size="11.00" fill="#000000">number[38]</text>
<polygon fill="#ffffff" stroke="transparent" points="542.5,-40.2 542.5,-59.2 621.5,-59.2 621.5,-40.2 542.5,-40.2"/>
<polygon fill="none" stroke="#000000" points="542.5,-40.2 542.5,-59.2 621.5,-59.2 621.5,-40.2 542.5,-40.2"/>
<text text-anchor="start" x="545.5" y="-46.3" font-family="Helvetica,sans-Serif" font-size="11.00" fill="#000000">&lt; 2</text>
<polygon fill="#ffffff" stroke="transparent" points="621.5,-40.2 621.5,-59.2 738.5,-59.2 738.5,-40.2 621.5,-40.2"/>
<polygon fill="none" stroke="#000000" points="621.5,-40.2 621.5,-59.2 738.5,-59.2 738.5,-40.2 621.5,-40.2"/>
<text text-anchor="start" x="681.7089" y="-46.3" font-family="Helvetica,sans-Serif" font-size="11.00" fill="#000000">1,228 rows</text>
<polygon fill="#ffffff" stroke="transparent" points="738.5,-40.2 738.5,-59.2 799.5,-59.2 799.5,-40.2 738.5,-40.2"/>
<polygon fill="none" stroke="#000000" points="738.5,-40.2 738.5,-59.2 799.5,-59.2 799.5,-40.2 738.5,-40.2"/>
<text text-anchor="start" x="780.9053" y="-46.3" font-family="Helvetica,sans-Serif" font-size="11.00" fill="#000000">0 &gt;</text>
<polygon fill="none" stroke="#000000" stroke-width="2" points="541,-39.2 541,-259.2 800,-259.2 800,-39.2 541,-39.2"/>
</a>
</g>
</g>
<!-- R_STANDARD_REFERENCE_LIST -->
<g id="node2" class="node">
<title>R_STANDARD_REFERENCE_LIST</title>
<g id="a_node2"><a xlink:href="../../tables/R_STANDARD_REFERENCE_LIST.html" xlink:title="R_STANDARD_REFERENCE_LIST" target="_top">
<polygon fill="#ffffff" stroke="transparent" points="8,-80.7 8,-229.7 228,-229.7 228,-80.7 8,-80.7"/>
<polygon fill="#f5f5f5" stroke="transparent" points="8,-206.2 8,-229.2 228,-229.2 228,-206.2 8,-206.2"/>
<polygon fill="none" stroke="#000000" points="8,-206.2 8,-229.2 228,-229.2 228,-206.2 8,-206.2"/>
<text text-anchor="start" x="12.5842" y="-215.3" font-family="Helvetica,sans-Serif" font-weight="bold" font-size="11.00" fill="#000000">R_STANDARD_REFERENCE_LIST</text>
<text text-anchor="start" x="193.5219" y="-214.3" font-family="Helvetica,sans-Serif" font-size="11.00" fill="#000000">[table]</text>
<polygon fill="none" stroke="#000000" points="8,-184.2 8,-206.2 228,-206.2 228,-184.2 8,-184.2"/>
<image xlink:href="../../images/primaryKeys.png" width="11px" height="12px" preserveAspectRatio="xMinYMin meet" x="13" y="-201.2"/>
<text text-anchor="start" x="35.5558" y="-191.3" font-family="Helvetica,sans-Serif" font-size="11.00" fill="#000000">STANDARD_REFERENCE_LIST_ID</text>
<polygon fill="none" stroke="#000000" points="8,-162.2 8,-184.2 228,-184.2 228,-162.2 8,-162.2"/>
<image xlink:href="../../images/primaryKeys.png" width="11px" height="12px" preserveAspectRatio="xMinYMin meet" x="13" y="-179.2"/>
<text text-anchor="start" x="42" y="-169.3" font-family="Helvetica,sans-Serif" font-size="11.00" fill="#000000">CODE_VALUE</text>
<polygon fill="none" stroke="#000000" points="8,-140.2 8,-162.2 228,-162.2 228,-140.2 8,-140.2"/>
<image xlink:href="../../images/primaryKeys.png" width="11px" height="12px" preserveAspectRatio="xMinYMin meet" x="13" y="-157.2"/>
<text text-anchor="start" x="39.8337" y="-147.3" font-family="Helvetica,sans-Serif" font-size="11.00" fill="#000000">REFERENCE_DATA_MASTER_ID</text>
<polygon fill="none" stroke="#000000" points="8,-118.2 8,-140.2 228,-140.2 228,-118.2 8,-118.2"/>
<image xlink:href="../../images/primaryKeys.png" width="11px" height="12px" preserveAspectRatio="xMinYMin meet" x="13" y="-135.2"/>
<text text-anchor="start" x="42" y="-125.3" font-family="Helvetica,sans-Serif" font-size="11.00" fill="#000000">TRAINING_SESSION_ID</text>
<polygon fill="none" stroke="#000000" points="8,-99.2 8,-118.2 228,-118.2 228,-99.2 8,-99.2"/>
<text text-anchor="start" x="11" y="-105.3" font-family="Helvetica,sans-Serif" font-size="11.00" fill="#000000">...</text>
<polygon fill="#ffffff" stroke="transparent" points="8,-80.2 8,-99.2 79,-99.2 79,-80.2 8,-80.2"/>
<polygon fill="none" stroke="#000000" points="8,-80.2 8,-99.2 79,-99.2 79,-80.2 8,-80.2"/>
<text text-anchor="start" x="11" y="-86.3" font-family="Helvetica,sans-Serif" font-size="11.00" fill="#000000">&lt; 1</text>
<polygon fill="#ffffff" stroke="transparent" points="79,-80.2 79,-99.2 169,-99.2 169,-80.2 79,-80.2"/>
<polygon fill="none" stroke="#000000" points="79,-80.2 79,-99.2 169,-99.2 169,-80.2 79,-80.2"/>
<text text-anchor="start" x="106.094" y="-86.3" font-family="Helvetica,sans-Serif" font-size="11.00" fill="#000000">15,391 rows</text>
<polygon fill="#ffffff" stroke="transparent" points="169,-80.2 169,-99.2 228,-99.2 228,-80.2 169,-80.2"/>
<polygon fill="none" stroke="#000000" points="169,-80.2 169,-99.2 228,-99.2 228,-80.2 169,-80.2"/>
<text text-anchor="start" x="197.1755" y="-86.3" font-family="Helvetica,sans-Serif" font-size="11.00" fill="#000000">293 &gt;</text>
</a>
</g>
</g>
<!-- DISPOSAL_TYPE_AD_SENT_TYPE&#45;&gt;R_STANDARD_REFERENCE_LIST -->
<g id="edge1" class="edge">
<title>DISPOSAL_TYPE_AD_SENT_TYPE:w&#45;&gt;R_STANDARD_REFERENCE_LIST:e</title>
<path fill="none" stroke="#000000" d="M528.5052,-197.8965C513.7497,-185.5232 524.3729,-149.8652 499,-136.2 409.0005,-87.7286 359.5881,-88.8377 269,-136.2 240.7022,-150.995 259.932,-195.2 228,-195.2"/>
<polygon fill="#000000" stroke="#000000" points="534.8534,-199.8486 541.4419,-205.641 538.6767,-201.0243 542.5,-202.2 542.5,-202.2 542.5,-202.2 538.6767,-201.0243 543.5581,-198.759 534.8534,-199.8486 534.8534,-199.8486"/>
<ellipse fill="none" stroke="#000000" cx="531.7947" cy="-198.908" rx="3.2" ry="3.2"/>
</g>
<!-- R_DISPOSAL_TYPE -->
<g id="node3" class="node">
<title>R_DISPOSAL_TYPE</title>
<g id="a_node3"><a xlink:href="../../tables/R_DISPOSAL_TYPE.html" xlink:title="R_DISPOSAL_TYPE" target="_top">
<polygon fill="#ffffff" stroke="transparent" points="277,-146.7 277,-339.7 491,-339.7 491,-146.7 277,-146.7"/>
<polygon fill="#f5f5f5" stroke="transparent" points="277,-316.2 277,-339.2 491,-339.2 491,-316.2 277,-316.2"/>
<polygon fill="none" stroke="#000000" points="277,-316.2 277,-339.2 491,-339.2 491,-316.2 277,-316.2"/>
<text text-anchor="start" x="282" y="-325.3" font-family="Helvetica,sans-Serif" font-weight="bold" font-size="11.00" fill="#000000">R_DISPOSAL_TYPE</text>
<text text-anchor="start" x="456.0437" y="-324.3" font-family="Helvetica,sans-Serif" font-size="11.00" fill="#000000">[table]</text>
<polygon fill="none" stroke="#000000" points="277,-294.2 277,-316.2 491,-316.2 491,-294.2 277,-294.2"/>
<image xlink:href="../../images/primaryKeys.png" width="11px" height="12px" preserveAspectRatio="xMinYMin meet" x="282" y="-311.2"/>
<text text-anchor="start" x="297" y="-301.3" font-family="Helvetica,sans-Serif" font-size="11.00" fill="#000000">DISPOSAL_TYPE_ID</text>
<polygon fill="none" stroke="#000000" points="277,-272.2 277,-294.2 491,-294.2 491,-272.2 277,-272.2"/>
<image xlink:href="../../images/primaryKeys.png" width="11px" height="12px" preserveAspectRatio="xMinYMin meet" x="282" y="-289.2"/>
<text text-anchor="start" x="297" y="-279.3" font-family="Helvetica,sans-Serif" font-size="11.00" fill="#000000">DISPOSAL_TYPE_CODE</text>
<polygon fill="none" stroke="#000000" points="277,-250.2 277,-272.2 491,-272.2 491,-250.2 277,-250.2"/>
<image xlink:href="../../images/primaryKeys.png" width="11px" height="12px" preserveAspectRatio="xMinYMin meet" x="282" y="-267.2"/>
<text text-anchor="start" x="297" y="-257.3" font-family="Helvetica,sans-Serif" font-size="11.00" fill="#000000">OUTCOME_ID</text>
<polygon fill="none" stroke="#000000" points="277,-228.2 277,-250.2 491,-250.2 491,-228.2 277,-228.2"/>
<image xlink:href="../../images/primaryKeys.png" width="11px" height="12px" preserveAspectRatio="xMinYMin meet" x="282" y="-245.2"/>
<text text-anchor="start" x="297" y="-235.3" font-family="Helvetica,sans-Serif" font-size="11.00" fill="#000000">FORM_20_CODE</text>
<polygon fill="none" stroke="#000000" points="277,-206.2 277,-228.2 491,-228.2 491,-206.2 277,-206.2"/>
<image xlink:href="../../images/primaryKeys.png" width="11px" height="12px" preserveAspectRatio="xMinYMin meet" x="282" y="-223.2"/>
<text text-anchor="start" x="297" y="-213.3" font-family="Helvetica,sans-Serif" font-size="11.00" fill="#000000">TRAINING_SESSION_ID</text>
<polygon fill="none" stroke="#000000" points="277,-184.2 277,-206.2 491,-206.2 491,-184.2 277,-184.2"/>
<image xlink:href="../../images/primaryKeys.png" width="11px" height="12px" preserveAspectRatio="xMinYMin meet" x="282" y="-201.2"/>
<text text-anchor="start" x="297" y="-191.3" font-family="Helvetica,sans-Serif" font-size="11.00" fill="#000000">UNITS_ID</text>
<polygon fill="none" stroke="#000000" points="277,-165.2 277,-184.2 491,-184.2 491,-165.2 277,-165.2"/>
<text text-anchor="start" x="280" y="-171.3" font-family="Helvetica,sans-Serif" font-size="11.00" fill="#000000">...</text>
<polygon fill="#ffffff" stroke="transparent" points="277,-146.2 277,-165.2 359,-165.2 359,-146.2 277,-146.2"/>
<polygon fill="none" stroke="#000000" points="277,-146.2 277,-165.2 359,-165.2 359,-146.2 277,-146.2"/>
<text text-anchor="start" x="280" y="-152.3" font-family="Helvetica,sans-Serif" font-size="11.00" fill="#000000">&lt; 2</text>
<polygon fill="#ffffff" stroke="transparent" points="359,-146.2 359,-165.2 439,-165.2 439,-146.2 359,-146.2"/>
<polygon fill="none" stroke="#000000" points="359,-146.2 359,-165.2 439,-165.2 439,-146.2 359,-146.2"/>
<text text-anchor="start" x="391.3807" y="-152.3" font-family="Helvetica,sans-Serif" font-size="11.00" fill="#000000">257 rows</text>
<polygon fill="#ffffff" stroke="transparent" points="439,-146.2 439,-165.2 491,-165.2 491,-146.2 439,-146.2"/>
<polygon fill="none" stroke="#000000" points="439,-146.2 439,-165.2 491,-165.2 491,-146.2 439,-146.2"/>
<text text-anchor="start" x="472.4053" y="-152.3" font-family="Helvetica,sans-Serif" font-size="11.00" fill="#000000">9 &gt;</text>
</a>
</g>
</g>
<!-- DISPOSAL_TYPE_AD_SENT_TYPE&#45;&gt;R_DISPOSAL_TYPE -->
<g id="edge2" class="edge">
<title>DISPOSAL_TYPE_AD_SENT_TYPE:w&#45;&gt;R_DISPOSAL_TYPE:e</title>
<path fill="none" stroke="#000000" d="M528.6146,-228.5549C507.8393,-245.3794 527.6612,-305.2 491,-305.2"/>
<polygon fill="#000000" stroke="#000000" points="534.8666,-226.5941 543.5774,-227.635 538.6833,-225.3971 542.5,-224.2 542.5,-224.2 542.5,-224.2 538.6833,-225.3971 541.4226,-220.765 534.8666,-226.5941 534.8666,-226.5941"/>
<ellipse fill="none" stroke="#000000" cx="531.8133" cy="-227.5518" rx="3.2" ry="3.2"/>
</g>
<!-- R_DISPOSAL_TYPE&#45;&gt;R_STANDARD_REFERENCE_LIST -->
<g id="edge3" class="edge">
<title>R_DISPOSAL_TYPE:w&#45;&gt;R_STANDARD_REFERENCE_LIST:e</title>
<path fill="none" stroke="#000000" d="M263.3768,-256.4534C246.7322,-241.3202 258.5399,-195.2 228,-195.2"/>
<polygon fill="#000000" stroke="#000000" points="269.4454,-258.5678 275.8155,-264.5996 273.2227,-259.8839 277,-261.2 277,-261.2 277,-261.2 273.2227,-259.8839 278.1845,-257.8004 269.4454,-258.5678 269.4454,-258.5678"/>
<ellipse fill="none" stroke="#000000" cx="266.4236" cy="-257.5149" rx="3.2" ry="3.2"/>
</g>
<!-- R_DISPOSAL_TYPE&#45;&gt;R_STANDARD_REFERENCE_LIST -->
<g id="edge4" class="edge">
<title>R_DISPOSAL_TYPE:w&#45;&gt;R_STANDARD_REFERENCE_LIST:e</title>
<path fill="none" stroke="#000000" d="M262.4909,-195.2C251.1774,-195.2 243.9931,-195.2 228,-195.2"/>
<polygon fill="#000000" stroke="#000000" points="269,-195.2001 277,-198.8 273,-195.2 277,-195.2 277,-195.2 277,-195.2 273,-195.2 277,-191.6 269,-195.2001 269,-195.2001"/>
<ellipse fill="none" stroke="#000000" cx="265.8" cy="-195.2001" rx="3.2" ry="3.2"/>
</g>
</g>
</svg>
