<?xml version="1.0" encoding="UTF-8" standalone="no"?>
<!DOCTYPE svg PUBLIC "-//W3C//DTD SVG 1.1//EN"
 "http://www.w3.org/Graphics/SVG/1.1/DTD/svg11.dtd">
<!-- Generated by graphviz version 2.40.1 (20161225.0304)
 -->
<!-- Title: oneDegreeRelationshipsDiagram Pages: 1 -->
<svg width="897pt" height="1014pt"
 viewBox="0.00 0.00 897.00 1014.42" xmlns="http://www.w3.org/2000/svg" xmlns:xlink="http://www.w3.org/1999/xlink">
<g id="graph0" class="graph" transform="scale(1 1) rotate(0) translate(4 1010.4177)">
<title>oneDegreeRelationshipsDiagram</title>
<polygon fill="#ffffff" stroke="transparent" points="-4,4 -4,-1010.4177 893,-1010.4177 893,4 -4,4"/>
<text text-anchor="middle" x="72.4936" y="-7.3" font-family="Helvetica,sans-Serif" font-size="11.00" fill="#000000">Generated by SchemaSpy</text>
<!-- ALL_TEAM -->
<g id="node1" class="node">
<title>ALL_TEAM</title>
<g id="a_node1"><a xlink:href="../../tables/ALL_TEAM.html" xlink:title="ALL_TEAM" target="_top">
<polygon fill="#ffffff" stroke="transparent" points="514,-529.4177 514,-744.4177 681,-744.4177 681,-529.4177 514,-529.4177"/>
<polygon fill="#f5f5f5" stroke="transparent" points="514.5,-720.9177 514.5,-743.9177 681.5,-743.9177 681.5,-720.9177 514.5,-720.9177"/>
<polygon fill="none" stroke="#000000" points="514.5,-720.9177 514.5,-743.9177 681.5,-743.9177 681.5,-720.9177 514.5,-720.9177"/>
<text text-anchor="start" x="519.5" y="-730.0177" font-family="Helvetica,sans-Serif" font-weight="bold" font-size="11.00" fill="#000000">ALL_TEAM</text>
<text text-anchor="start" x="646.5437" y="-729.0177" font-family="Helvetica,sans-Serif" font-size="11.00" fill="#000000">[table]</text>
<polygon fill="none" stroke="#000000" points="514.5,-698.9177 514.5,-720.9177 681.5,-720.9177 681.5,-698.9177 514.5,-698.9177"/>
<image xlink:href="../../images/primaryKeys.png" width="11px" height="12px" preserveAspectRatio="xMinYMin meet" x="519.5" y="-715.918"/>
<text text-anchor="start" x="534.5" y="-706.0177" font-family="Helvetica,sans-Serif" font-size="11.00" fill="#000000">TRUST_PROVIDER_FLAG</text>
<polygon fill="none" stroke="#000000" points="514.5,-676.9177 514.5,-698.9177 681.5,-698.9177 681.5,-676.9177 514.5,-676.9177"/>
<image xlink:href="../../images/primaryKeys.png" width="11px" height="12px" preserveAspectRatio="xMinYMin meet" x="519.5" y="-693.918"/>
<text text-anchor="start" x="528.5011" y="-684.0177" font-family="Helvetica,sans-Serif" font-size="11.00" fill="#000000">TRUST_PROVIDER_TEAM_ID</text>
<polygon fill="none" stroke="#000000" points="514.5,-654.9177 514.5,-676.9177 681.5,-676.9177 681.5,-654.9177 514.5,-654.9177"/>
<image xlink:href="../../images/primaryKeys.png" width="11px" height="12px" preserveAspectRatio="xMinYMin meet" x="519.5" y="-671.918"/>
<text text-anchor="start" x="534.5" y="-662.0177" font-family="Helvetica,sans-Serif" font-size="11.00" fill="#000000">PROBATION_AREA_ID</text>
<polygon fill="none" stroke="#000000" points="514.5,-632.9177 514.5,-654.9177 681.5,-654.9177 681.5,-632.9177 514.5,-632.9177"/>
<image xlink:href="../../images/primaryKeys.png" width="11px" height="12px" preserveAspectRatio="xMinYMin meet" x="519.5" y="-649.918"/>
<text text-anchor="start" x="534.5" y="-640.0177" font-family="Helvetica,sans-Serif" font-size="11.00" fill="#000000">TRAINING_SESSION_ID</text>
<polygon fill="none" stroke="#000000" points="514.5,-610.9177 514.5,-632.9177 681.5,-632.9177 681.5,-610.9177 514.5,-610.9177"/>
<image xlink:href="../../images/primaryKeys.png" width="11px" height="12px" preserveAspectRatio="xMinYMin meet" x="519.5" y="-627.918"/>
<text text-anchor="start" x="534.5" y="-618.0177" font-family="Helvetica,sans-Serif" font-size="11.00" fill="#000000">DISTRICT_ID</text>
<polygon fill="none" stroke="#000000" points="514.5,-588.9177 514.5,-610.9177 681.5,-610.9177 681.5,-588.9177 514.5,-588.9177"/>
<image xlink:href="../../images/primaryKeys.png" width="11px" height="12px" preserveAspectRatio="xMinYMin meet" x="519.5" y="-605.918"/>
<text text-anchor="start" x="534.5" y="-596.0177" font-family="Helvetica,sans-Serif" font-size="11.00" fill="#000000">START_DATE</text>
<polygon fill="none" stroke="#000000" points="514.5,-566.9177 514.5,-588.9177 681.5,-588.9177 681.5,-566.9177 514.5,-566.9177"/>
<image xlink:href="../../images/primaryKeys.png" width="11px" height="12px" preserveAspectRatio="xMinYMin meet" x="519.5" y="-583.918"/>
<text text-anchor="start" x="534.5" y="-574.0177" font-family="Helvetica,sans-Serif" font-size="11.00" fill="#000000">END_DATE</text>
<polygon fill="none" stroke="#000000" points="514.5,-547.9177 514.5,-566.9177 681.5,-566.9177 681.5,-547.9177 514.5,-547.9177"/>
<text text-anchor="start" x="517.5" y="-554.0177" font-family="Helvetica,sans-Serif" font-size="11.00" fill="#000000">...</text>
<polygon fill="#ffffff" stroke="transparent" points="514.5,-528.9177 514.5,-547.9177 565.5,-547.9177 565.5,-528.9177 514.5,-528.9177"/>
<polygon fill="none" stroke="#000000" points="514.5,-528.9177 514.5,-547.9177 565.5,-547.9177 565.5,-528.9177 514.5,-528.9177"/>
<text text-anchor="start" x="517.5" y="-535.0177" font-family="Helvetica,sans-Serif" font-size="11.00" fill="#000000">&lt; 2</text>
<polygon fill="#ffffff" stroke="transparent" points="565.5,-528.9177 565.5,-547.9177 639.5,-547.9177 639.5,-528.9177 565.5,-528.9177"/>
<polygon fill="none" stroke="#000000" points="565.5,-528.9177 565.5,-547.9177 639.5,-547.9177 639.5,-528.9177 565.5,-528.9177"/>
<text text-anchor="start" x="582.7089" y="-535.0177" font-family="Helvetica,sans-Serif" font-size="11.00" fill="#000000">1,458 rows</text>
<polygon fill="#ffffff" stroke="transparent" points="639.5,-528.9177 639.5,-547.9177 681.5,-547.9177 681.5,-528.9177 639.5,-528.9177"/>
<polygon fill="none" stroke="#000000" points="639.5,-528.9177 639.5,-547.9177 681.5,-547.9177 681.5,-528.9177 639.5,-528.9177"/>
<text text-anchor="start" x="656.7904" y="-535.0177" font-family="Helvetica,sans-Serif" font-size="11.00" fill="#000000">20 &gt;</text>
</a>
</g>
</g>
<!-- DISTRICT -->
<g id="node2" class="node">
<title>DISTRICT</title>
<g id="a_node2"><a xlink:href="../../tables/DISTRICT.html" xlink:title="DISTRICT" target="_top">
<polygon fill="#ffffff" stroke="transparent" points="218,-177.9177 218,-465.9177 456,-465.9177 456,-177.9177 218,-177.9177"/>
<polygon fill="#f5f5f5" stroke="transparent" points="220,-440.9177 220,-463.9177 454,-463.9177 454,-440.9177 220,-440.9177"/>
<polygon fill="none" stroke="#000000" points="220,-440.9177 220,-463.9177 454,-463.9177 454,-440.9177 220,-440.9177"/>
<text text-anchor="start" x="225" y="-450.0177" font-family="Helvetica,sans-Serif" font-weight="bold" font-size="11.00" fill="#000000">DISTRICT</text>
<text text-anchor="start" x="419.0437" y="-449.0177" font-family="Helvetica,sans-Serif" font-size="11.00" fill="#000000">[table]</text>
<polygon fill="none" stroke="#000000" points="220,-418.9177 220,-440.9177 381,-440.9177 381,-418.9177 220,-418.9177"/>
<image xlink:href="../../images/primaryKeys.png" width="11px" height="12px" preserveAspectRatio="xMinYMin meet" x="225" y="-435.918"/>
<text text-anchor="start" x="240" y="-426.0177" font-family="Helvetica,sans-Serif" font-size="11.00" fill="#000000">DISTRICT_ID</text>
<polygon fill="none" stroke="#000000" points="381,-418.9177 381,-440.9177 454,-440.9177 454,-418.9177 381,-418.9177"/>
<text text-anchor="start" x="384" y="-426.6177" font-family="Helvetica,sans-Serif" font-size="11.00" fill="#000000">number[38]</text>
<polygon fill="none" stroke="#000000" points="220,-396.9177 220,-418.9177 381,-418.9177 381,-396.9177 220,-396.9177"/>
<image xlink:href="../../images/primaryKeys.png" width="11px" height="12px" preserveAspectRatio="xMinYMin meet" x="225" y="-413.918"/>
<text text-anchor="start" x="240" y="-404.0177" font-family="Helvetica,sans-Serif" font-size="11.00" fill="#000000">CODE</text>
<polygon fill="none" stroke="#000000" points="381,-396.9177 381,-418.9177 454,-418.9177 454,-396.9177 381,-396.9177"/>
<text text-anchor="start" x="384" y="-404.6177" font-family="Helvetica,sans-Serif" font-size="11.00" fill="#000000">varchar2[20]</text>
<polygon fill="none" stroke="#000000" points="220,-374.9177 220,-396.9177 381,-396.9177 381,-374.9177 220,-374.9177"/>
<text text-anchor="start" x="240" y="-382.0177" font-family="Helvetica,sans-Serif" font-size="11.00" fill="#000000">DESCRIPTION</text>
<polygon fill="none" stroke="#000000" points="381,-374.9177 381,-396.9177 454,-396.9177 454,-374.9177 381,-374.9177"/>
<text text-anchor="start" x="383.8791" y="-382.6177" font-family="Helvetica,sans-Serif" font-size="11.00" fill="#000000">varchar2[100]</text>
<polygon fill="none" stroke="#000000" points="220,-352.9177 220,-374.9177 381,-374.9177 381,-352.9177 220,-352.9177"/>
<text text-anchor="start" x="240" y="-360.0177" font-family="Helvetica,sans-Serif" font-size="11.00" fill="#000000">SELECTABLE</text>
<polygon fill="none" stroke="#000000" points="381,-352.9177 381,-374.9177 454,-374.9177 454,-352.9177 381,-352.9177"/>
<text text-anchor="start" x="384" y="-360.6177" font-family="Helvetica,sans-Serif" font-size="11.00" fill="#000000">char[1]</text>
<polygon fill="none" stroke="#000000" points="220,-330.9177 220,-352.9177 381,-352.9177 381,-330.9177 220,-330.9177"/>
<image xlink:href="../../images/primaryKeys.png" width="11px" height="12px" preserveAspectRatio="xMinYMin meet" x="225" y="-347.918"/>
<text text-anchor="start" x="240" y="-338.0177" font-family="Helvetica,sans-Serif" font-size="11.00" fill="#000000">BOROUGH_ID</text>
<polygon fill="none" stroke="#000000" points="381,-330.9177 381,-352.9177 454,-352.9177 454,-330.9177 381,-330.9177"/>
<text text-anchor="start" x="384" y="-338.6177" font-family="Helvetica,sans-Serif" font-size="11.00" fill="#000000">number[38]</text>
<polygon fill="none" stroke="#000000" points="220,-308.9177 220,-330.9177 381,-330.9177 381,-308.9177 220,-308.9177"/>
<text text-anchor="start" x="240" y="-316.0177" font-family="Helvetica,sans-Serif" font-size="11.00" fill="#000000">ROW_VERSION</text>
<polygon fill="none" stroke="#000000" points="381,-308.9177 381,-330.9177 454,-330.9177 454,-308.9177 381,-308.9177"/>
<text text-anchor="start" x="384" y="-316.6177" font-family="Helvetica,sans-Serif" font-size="11.00" fill="#000000">number[38]</text>
<polygon fill="none" stroke="#000000" points="220,-286.9177 220,-308.9177 381,-308.9177 381,-286.9177 220,-286.9177"/>
<text text-anchor="start" x="240" y="-294.0177" font-family="Helvetica,sans-Serif" font-size="11.00" fill="#000000">CREATED_BY_USER_ID</text>
<polygon fill="none" stroke="#000000" points="381,-286.9177 381,-308.9177 454,-308.9177 454,-286.9177 381,-286.9177"/>
<text text-anchor="start" x="384" y="-294.6177" font-family="Helvetica,sans-Serif" font-size="11.00" fill="#000000">number[38]</text>
<polygon fill="none" stroke="#000000" points="220,-264.9177 220,-286.9177 381,-286.9177 381,-264.9177 220,-264.9177"/>
<text text-anchor="start" x="240" y="-272.0177" font-family="Helvetica,sans-Serif" font-size="11.00" fill="#000000">CREATED_DATETIME</text>
<polygon fill="none" stroke="#000000" points="381,-264.9177 381,-286.9177 454,-286.9177 454,-264.9177 381,-264.9177"/>
<text text-anchor="start" x="384" y="-272.6177" font-family="Helvetica,sans-Serif" font-size="11.00" fill="#000000">date[7]</text>
<polygon fill="none" stroke="#000000" points="220,-242.9177 220,-264.9177 381,-264.9177 381,-242.9177 220,-242.9177"/>
<text text-anchor="start" x="238.0235" y="-250.0177" font-family="Helvetica,sans-Serif" font-size="11.00" fill="#000000">LAST_UPDATED_USER_ID</text>
<polygon fill="none" stroke="#000000" points="381,-242.9177 381,-264.9177 454,-264.9177 454,-242.9177 381,-242.9177"/>
<text text-anchor="start" x="384" y="-250.6177" font-family="Helvetica,sans-Serif" font-size="11.00" fill="#000000">number[38]</text>
<polygon fill="none" stroke="#000000" points="220,-220.9177 220,-242.9177 381,-242.9177 381,-220.9177 220,-220.9177"/>
<text text-anchor="start" x="234.0531" y="-228.0177" font-family="Helvetica,sans-Serif" font-size="11.00" fill="#000000">LAST_UPDATED_DATETIME</text>
<polygon fill="none" stroke="#000000" points="381,-220.9177 381,-242.9177 454,-242.9177 454,-220.9177 381,-220.9177"/>
<text text-anchor="start" x="384" y="-228.6177" font-family="Helvetica,sans-Serif" font-size="11.00" fill="#000000">date[7]</text>
<polygon fill="none" stroke="#000000" points="220,-198.9177 220,-220.9177 381,-220.9177 381,-198.9177 220,-198.9177"/>
<image xlink:href="../../images/primaryKeys.png" width="11px" height="12px" preserveAspectRatio="xMinYMin meet" x="225" y="-215.918"/>
<text text-anchor="start" x="240" y="-206.0177" font-family="Helvetica,sans-Serif" font-size="11.00" fill="#000000">TRAINING_SESSION_ID</text>
<polygon fill="none" stroke="#000000" points="381,-198.9177 381,-220.9177 454,-220.9177 454,-198.9177 381,-198.9177"/>
<text text-anchor="start" x="384" y="-206.6177" font-family="Helvetica,sans-Serif" font-size="11.00" fill="#000000">number[38]</text>
<polygon fill="#ffffff" stroke="transparent" points="220,-179.9177 220,-198.9177 281,-198.9177 281,-179.9177 220,-179.9177"/>
<polygon fill="none" stroke="#000000" points="220,-179.9177 220,-198.9177 281,-198.9177 281,-179.9177 220,-179.9177"/>
<text text-anchor="start" x="223" y="-186.0177" font-family="Helvetica,sans-Serif" font-size="11.00" fill="#000000">&lt; 1</text>
<polygon fill="#ffffff" stroke="transparent" points="281,-179.9177 281,-198.9177 381,-198.9177 381,-179.9177 281,-179.9177"/>
<polygon fill="none" stroke="#000000" points="281,-179.9177 281,-198.9177 381,-198.9177 381,-179.9177 281,-179.9177"/>
<text text-anchor="start" x="324.2089" y="-186.0177" font-family="Helvetica,sans-Serif" font-size="11.00" fill="#000000">3,349 rows</text>
<polygon fill="#ffffff" stroke="transparent" points="381,-179.9177 381,-198.9177 454,-198.9177 454,-179.9177 381,-179.9177"/>
<polygon fill="none" stroke="#000000" points="381,-179.9177 381,-198.9177 454,-198.9177 454,-179.9177 381,-179.9177"/>
<text text-anchor="start" x="435.4053" y="-186.0177" font-family="Helvetica,sans-Serif" font-size="11.00" fill="#000000">5 &gt;</text>
<polygon fill="none" stroke="#000000" stroke-width="2" points="219,-178.9177 219,-464.9177 455,-464.9177 455,-178.9177 219,-178.9177"/>
</a>
</g>
</g>
<!-- ALL_TEAM&#45;&gt;DISTRICT -->
<g id="edge1" class="edge">
<title>ALL_TEAM:w&#45;&gt;DISTRICT:e</title>
<path fill="none" stroke="#000000" d="M500.0594,-619.7615C439.0232,-598.6677 537.8776,-429.9177 454,-429.9177"/>
<polygon fill="#000000" stroke="#000000" points="506.5877,-620.7362 513.9683,-625.4782 510.5439,-621.327 514.5,-621.9177 514.5,-621.9177 514.5,-621.9177 510.5439,-621.327 515.0317,-618.3572 506.5877,-620.7362 506.5877,-620.7362"/>
<ellipse fill="none" stroke="#000000" cx="503.4228" cy="-620.2636" rx="3.2" ry="3.2"/>
</g>
<!-- BOROUGH -->
<g id="node4" class="node">
<title>BOROUGH</title>
<g id="a_node4"><a xlink:href="../../tables/BOROUGH.html" xlink:title="BOROUGH" target="_top">
<polygon fill="#ffffff" stroke="transparent" points="8,-227.4177 8,-376.4177 169,-376.4177 169,-227.4177 8,-227.4177"/>
<polygon fill="#f5f5f5" stroke="transparent" points="8.5,-352.9177 8.5,-375.9177 169.5,-375.9177 169.5,-352.9177 8.5,-352.9177"/>
<polygon fill="none" stroke="#000000" points="8.5,-352.9177 8.5,-375.9177 169.5,-375.9177 169.5,-352.9177 8.5,-352.9177"/>
<text text-anchor="start" x="13.5" y="-362.0177" font-family="Helvetica,sans-Serif" font-weight="bold" font-size="11.00" fill="#000000">BOROUGH</text>
<text text-anchor="start" x="134.5437" y="-361.0177" font-family="Helvetica,sans-Serif" font-size="11.00" fill="#000000">[table]</text>
<polygon fill="none" stroke="#000000" points="8.5,-330.9177 8.5,-352.9177 169.5,-352.9177 169.5,-330.9177 8.5,-330.9177"/>
<image xlink:href="../../images/primaryKeys.png" width="11px" height="12px" preserveAspectRatio="xMinYMin meet" x="13.5" y="-347.918"/>
<text text-anchor="start" x="28.5" y="-338.0177" font-family="Helvetica,sans-Serif" font-size="11.00" fill="#000000">BOROUGH_ID</text>
<polygon fill="none" stroke="#000000" points="8.5,-308.9177 8.5,-330.9177 169.5,-330.9177 169.5,-308.9177 8.5,-308.9177"/>
<image xlink:href="../../images/primaryKeys.png" width="11px" height="12px" preserveAspectRatio="xMinYMin meet" x="13.5" y="-325.918"/>
<text text-anchor="start" x="28.5" y="-316.0177" font-family="Helvetica,sans-Serif" font-size="11.00" fill="#000000">CODE</text>
<polygon fill="none" stroke="#000000" points="8.5,-286.9177 8.5,-308.9177 169.5,-308.9177 169.5,-286.9177 8.5,-286.9177"/>
<image xlink:href="../../images/primaryKeys.png" width="11px" height="12px" preserveAspectRatio="xMinYMin meet" x="13.5" y="-303.918"/>
<text text-anchor="start" x="28.5" y="-294.0177" font-family="Helvetica,sans-Serif" font-size="11.00" fill="#000000">TRAINING_SESSION_ID</text>
<polygon fill="none" stroke="#000000" points="8.5,-264.9177 8.5,-286.9177 169.5,-286.9177 169.5,-264.9177 8.5,-264.9177"/>
<image xlink:href="../../images/primaryKeys.png" width="11px" height="12px" preserveAspectRatio="xMinYMin meet" x="13.5" y="-281.918"/>
<text text-anchor="start" x="28.5" y="-272.0177" font-family="Helvetica,sans-Serif" font-size="11.00" fill="#000000">PROBATION_AREA_ID</text>
<polygon fill="none" stroke="#000000" points="8.5,-245.9177 8.5,-264.9177 169.5,-264.9177 169.5,-245.9177 8.5,-245.9177"/>
<text text-anchor="start" x="11.5" y="-252.0177" font-family="Helvetica,sans-Serif" font-size="11.00" fill="#000000">...</text>
<polygon fill="#ffffff" stroke="transparent" points="8.5,-226.9177 8.5,-245.9177 59.5,-245.9177 59.5,-226.9177 8.5,-226.9177"/>
<polygon fill="none" stroke="#000000" points="8.5,-226.9177 8.5,-245.9177 59.5,-245.9177 59.5,-226.9177 8.5,-226.9177"/>
<text text-anchor="start" x="11.5" y="-233.0177" font-family="Helvetica,sans-Serif" font-size="11.00" fill="#000000">&lt; 1</text>
<polygon fill="#ffffff" stroke="transparent" points="59.5,-226.9177 59.5,-245.9177 133.5,-245.9177 133.5,-226.9177 59.5,-226.9177"/>
<polygon fill="none" stroke="#000000" points="59.5,-226.9177 59.5,-245.9177 133.5,-245.9177 133.5,-226.9177 59.5,-226.9177"/>
<text text-anchor="start" x="76.7089" y="-233.0177" font-family="Helvetica,sans-Serif" font-size="11.00" fill="#000000">1,678 rows</text>
<polygon fill="#ffffff" stroke="transparent" points="133.5,-226.9177 133.5,-245.9177 169.5,-245.9177 169.5,-226.9177 133.5,-226.9177"/>
<polygon fill="none" stroke="#000000" points="133.5,-226.9177 133.5,-245.9177 169.5,-245.9177 169.5,-226.9177 133.5,-226.9177"/>
<text text-anchor="start" x="150.9053" y="-233.0177" font-family="Helvetica,sans-Serif" font-size="11.00" fill="#000000">3 &gt;</text>
</a>
</g>
</g>
<!-- DISTRICT&#45;&gt;BOROUGH -->
<g id="edge4" class="edge">
<title>DISTRICT:w&#45;&gt;BOROUGH:e</title>
<path fill="none" stroke="#000000" d="M205.4203,-341.9177C193.5435,-341.9177 186.158,-341.9177 169.5,-341.9177"/>
<polygon fill="#000000" stroke="#000000" points="212,-341.9178 220,-345.5177 216,-341.9177 220,-341.9177 220,-341.9177 220,-341.9177 216,-341.9177 220,-338.3177 212,-341.9178 212,-341.9178"/>
<ellipse fill="none" stroke="#000000" cx="208.8" cy="-341.9178" rx="3.2" ry="3.2"/>
</g>
<!-- COURT -->
<g id="node3" class="node">
<title>COURT</title>
<g id="a_node3"><a xlink:href="../../tables/COURT.html" xlink:title="COURT" target="_top">
<polygon fill="#ffffff" stroke="transparent" points="517,-765.4177 517,-1002.4177 678,-1002.4177 678,-765.4177 517,-765.4177"/>
<polygon fill="#f5f5f5" stroke="transparent" points="517.5,-978.9177 517.5,-1001.9177 678.5,-1001.9177 678.5,-978.9177 517.5,-978.9177"/>
<polygon fill="none" stroke="#000000" points="517.5,-978.9177 517.5,-1001.9177 678.5,-1001.9177 678.5,-978.9177 517.5,-978.9177"/>
<text text-anchor="start" x="522.5" y="-988.0177" font-family="Helvetica,sans-Serif" font-weight="bold" font-size="11.00" fill="#000000">COURT</text>
<text text-anchor="start" x="643.5437" y="-987.0177" font-family="Helvetica,sans-Serif" font-size="11.00" fill="#000000">[table]</text>
<polygon fill="none" stroke="#000000" points="517.5,-956.9177 517.5,-978.9177 678.5,-978.9177 678.5,-956.9177 517.5,-956.9177"/>
<image xlink:href="../../images/primaryKeys.png" width="11px" height="12px" preserveAspectRatio="xMinYMin meet" x="522.5" y="-973.918"/>
<text text-anchor="start" x="537.5" y="-964.0177" font-family="Helvetica,sans-Serif" font-size="11.00" fill="#000000">COURT_ID</text>
<polygon fill="none" stroke="#000000" points="517.5,-934.9177 517.5,-956.9177 678.5,-956.9177 678.5,-934.9177 517.5,-934.9177"/>
<image xlink:href="../../images/primaryKeys.png" width="11px" height="12px" preserveAspectRatio="xMinYMin meet" x="522.5" y="-951.918"/>
<text text-anchor="start" x="537.5" y="-942.0177" font-family="Helvetica,sans-Serif" font-size="11.00" fill="#000000">CODE</text>
<polygon fill="none" stroke="#000000" points="517.5,-912.9177 517.5,-934.9177 678.5,-934.9177 678.5,-912.9177 517.5,-912.9177"/>
<image xlink:href="../../images/primaryKeys.png" width="11px" height="12px" preserveAspectRatio="xMinYMin meet" x="522.5" y="-929.918"/>
<text text-anchor="start" x="537.5" y="-920.0177" font-family="Helvetica,sans-Serif" font-size="11.00" fill="#000000">COURT_TYPE_ID</text>
<polygon fill="none" stroke="#000000" points="517.5,-890.9177 517.5,-912.9177 678.5,-912.9177 678.5,-890.9177 517.5,-890.9177"/>
<image xlink:href="../../images/primaryKeys.png" width="11px" height="12px" preserveAspectRatio="xMinYMin meet" x="522.5" y="-907.918"/>
<text text-anchor="start" x="537.5" y="-898.0177" font-family="Helvetica,sans-Serif" font-size="11.00" fill="#000000">TRAINING_SESSION_ID</text>
<polygon fill="none" stroke="#000000" points="517.5,-868.9177 517.5,-890.9177 678.5,-890.9177 678.5,-868.9177 517.5,-868.9177"/>
<image xlink:href="../../images/primaryKeys.png" width="11px" height="12px" preserveAspectRatio="xMinYMin meet" x="522.5" y="-885.918"/>
<text text-anchor="start" x="537.5" y="-876.0177" font-family="Helvetica,sans-Serif" font-size="11.00" fill="#000000">PROBATION_AREA_ID</text>
<polygon fill="none" stroke="#000000" points="517.5,-846.9177 517.5,-868.9177 678.5,-868.9177 678.5,-846.9177 517.5,-846.9177"/>
<image xlink:href="../../images/primaryKeys.png" width="11px" height="12px" preserveAspectRatio="xMinYMin meet" x="522.5" y="-863.918"/>
<text text-anchor="start" x="537.5" y="-854.0177" font-family="Helvetica,sans-Serif" font-size="11.00" fill="#000000">BOROUGH_ID</text>
<polygon fill="none" stroke="#000000" points="517.5,-824.9177 517.5,-846.9177 678.5,-846.9177 678.5,-824.9177 517.5,-824.9177"/>
<image xlink:href="../../images/primaryKeys.png" width="11px" height="12px" preserveAspectRatio="xMinYMin meet" x="522.5" y="-841.918"/>
<text text-anchor="start" x="537.5" y="-832.0177" font-family="Helvetica,sans-Serif" font-size="11.00" fill="#000000">DISTRICT_ID</text>
<polygon fill="none" stroke="#000000" points="517.5,-802.9177 517.5,-824.9177 678.5,-824.9177 678.5,-802.9177 517.5,-802.9177"/>
<image xlink:href="../../images/primaryKeys.png" width="11px" height="12px" preserveAspectRatio="xMinYMin meet" x="522.5" y="-819.918"/>
<text text-anchor="start" x="534.9075" y="-810.0177" font-family="Helvetica,sans-Serif" font-size="11.00" fill="#000000">LOCAL_JUSTICE_AREA_ID</text>
<polygon fill="none" stroke="#000000" points="517.5,-783.9177 517.5,-802.9177 678.5,-802.9177 678.5,-783.9177 517.5,-783.9177"/>
<text text-anchor="start" x="520.5" y="-790.0177" font-family="Helvetica,sans-Serif" font-size="11.00" fill="#000000">...</text>
<polygon fill="#ffffff" stroke="transparent" points="517.5,-764.9177 517.5,-783.9177 568.5,-783.9177 568.5,-764.9177 517.5,-764.9177"/>
<polygon fill="none" stroke="#000000" points="517.5,-764.9177 517.5,-783.9177 568.5,-783.9177 568.5,-764.9177 517.5,-764.9177"/>
<text text-anchor="start" x="520.5" y="-771.0177" font-family="Helvetica,sans-Serif" font-size="11.00" fill="#000000">&lt; 5</text>
<polygon fill="#ffffff" stroke="transparent" points="568.5,-764.9177 568.5,-783.9177 642.5,-783.9177 642.5,-764.9177 568.5,-764.9177"/>
<polygon fill="none" stroke="#000000" points="568.5,-764.9177 568.5,-783.9177 642.5,-783.9177 642.5,-764.9177 568.5,-764.9177"/>
<text text-anchor="start" x="585.7089" y="-771.0177" font-family="Helvetica,sans-Serif" font-size="11.00" fill="#000000">3,213 rows</text>
<polygon fill="#ffffff" stroke="transparent" points="642.5,-764.9177 642.5,-783.9177 678.5,-783.9177 678.5,-764.9177 642.5,-764.9177"/>
<polygon fill="none" stroke="#000000" points="642.5,-764.9177 642.5,-783.9177 678.5,-783.9177 678.5,-764.9177 642.5,-764.9177"/>
<text text-anchor="start" x="659.9053" y="-771.0177" font-family="Helvetica,sans-Serif" font-size="11.00" fill="#000000">5 &gt;</text>
</a>
</g>
</g>
<!-- COURT&#45;&gt;DISTRICT -->
<g id="edge3" class="edge">
<title>COURT:w&#45;&gt;DISTRICT:e</title>
<path fill="none" stroke="#000000" d="M503.5308,-831.8994C439.4199,-789.7335 539.9683,-429.9177 454,-429.9177"/>
<polygon fill="#000000" stroke="#000000" points="509.8118,-833.7061 516.5048,-839.3774 513.6559,-834.8119 517.5,-835.9177 517.5,-835.9177 517.5,-835.9177 513.6559,-834.8119 518.4952,-832.458 509.8118,-833.7061 509.8118,-833.7061"/>
<ellipse fill="none" stroke="#000000" cx="506.7365" cy="-832.8215" rx="3.2" ry="3.2"/>
</g>
<!-- COURT&#45;&gt;BOROUGH -->
<g id="edge2" class="edge">
<title>COURT:w&#45;&gt;BOROUGH:e</title>
<path fill="none" stroke="#000000" d="M502.8765,-857.6221C300.3688,-849.263 309.1681,-664.9837 210,-476.9177 180.7819,-421.5074 232.1418,-341.9177 169.5,-341.9177"/>
<polygon fill="#000000" stroke="#000000" points="509.5016,-857.756 517.4272,-861.517 513.5008,-857.8368 517.5,-857.9177 517.5,-857.9177 517.5,-857.9177 513.5008,-857.8368 517.5728,-854.3185 509.5016,-857.756 509.5016,-857.756"/>
<ellipse fill="none" stroke="#000000" cx="506.3023" cy="-857.6913" rx="3.2" ry="3.2"/>
</g>
<!-- DPA_REPORT -->
<g id="node5" class="node">
<title>DPA_REPORT</title>
<g id="a_node5"><a xlink:href="../../tables/DPA_REPORT.html" xlink:title="DPA_REPORT" target="_top">
<polygon fill="#ffffff" stroke="transparent" points="739,-154.4177 739,-391.4177 881,-391.4177 881,-154.4177 739,-154.4177"/>
<polygon fill="#f5f5f5" stroke="transparent" points="739,-367.9177 739,-390.9177 881,-390.9177 881,-367.9177 739,-367.9177"/>
<polygon fill="none" stroke="#000000" points="739,-367.9177 739,-390.9177 881,-390.9177 881,-367.9177 739,-367.9177"/>
<text text-anchor="start" x="744" y="-377.0177" font-family="Helvetica,sans-Serif" font-weight="bold" font-size="11.00" fill="#000000">DPA_REPORT</text>
<text text-anchor="start" x="846.0437" y="-376.0177" font-family="Helvetica,sans-Serif" font-size="11.00" fill="#000000">[table]</text>
<polygon fill="none" stroke="#000000" points="739,-345.9177 739,-367.9177 881,-367.9177 881,-345.9177 739,-345.9177"/>
<image xlink:href="../../images/primaryKeys.png" width="11px" height="12px" preserveAspectRatio="xMinYMin meet" x="744" y="-362.918"/>
<text text-anchor="start" x="759" y="-353.0177" font-family="Helvetica,sans-Serif" font-size="11.00" fill="#000000">DPA_REPORT_ID</text>
<polygon fill="none" stroke="#000000" points="739,-323.9177 739,-345.9177 881,-345.9177 881,-323.9177 739,-323.9177"/>
<image xlink:href="../../images/primaryKeys.png" width="11px" height="12px" preserveAspectRatio="xMinYMin meet" x="744" y="-340.918"/>
<text text-anchor="start" x="759" y="-331.0177" font-family="Helvetica,sans-Serif" font-size="11.00" fill="#000000">TEAM_ID</text>
<polygon fill="none" stroke="#000000" points="739,-301.9177 739,-323.9177 881,-323.9177 881,-301.9177 739,-301.9177"/>
<image xlink:href="../../images/primaryKeys.png" width="11px" height="12px" preserveAspectRatio="xMinYMin meet" x="744" y="-318.918"/>
<text text-anchor="start" x="759" y="-309.0177" font-family="Helvetica,sans-Serif" font-size="11.00" fill="#000000">PROVIDER_TEAM_ID</text>
<polygon fill="none" stroke="#000000" points="739,-279.9177 739,-301.9177 881,-301.9177 881,-279.9177 739,-279.9177"/>
<image xlink:href="../../images/primaryKeys.png" width="11px" height="12px" preserveAspectRatio="xMinYMin meet" x="744" y="-296.918"/>
<text text-anchor="start" x="759" y="-287.0177" font-family="Helvetica,sans-Serif" font-size="11.00" fill="#000000">PARTITION_AREA_ID</text>
<polygon fill="none" stroke="#000000" points="739,-257.9177 739,-279.9177 881,-279.9177 881,-257.9177 739,-257.9177"/>
<image xlink:href="../../images/primaryKeys.png" width="11px" height="12px" preserveAspectRatio="xMinYMin meet" x="744" y="-274.918"/>
<text text-anchor="start" x="759" y="-265.0177" font-family="Helvetica,sans-Serif" font-size="11.00" fill="#000000">DISTRICT_ID</text>
<polygon fill="none" stroke="#000000" points="739,-235.9177 739,-257.9177 881,-257.9177 881,-235.9177 739,-235.9177"/>
<image xlink:href="../../images/primaryKeys.png" width="11px" height="12px" preserveAspectRatio="xMinYMin meet" x="744" y="-252.918"/>
<text text-anchor="start" x="759" y="-243.0177" font-family="Helvetica,sans-Serif" font-size="11.00" fill="#000000">BOROUGH_ID</text>
<polygon fill="none" stroke="#000000" points="739,-213.9177 739,-235.9177 881,-235.9177 881,-213.9177 739,-213.9177"/>
<image xlink:href="../../images/primaryKeys.png" width="11px" height="12px" preserveAspectRatio="xMinYMin meet" x="744" y="-230.918"/>
<text text-anchor="start" x="758.5219" y="-221.0177" font-family="Helvetica,sans-Serif" font-size="11.00" fill="#000000">PROBATION_AREA_ID</text>
<polygon fill="none" stroke="#000000" points="739,-191.9177 739,-213.9177 881,-213.9177 881,-191.9177 739,-191.9177"/>
<image xlink:href="../../images/primaryKeys.png" width="11px" height="12px" preserveAspectRatio="xMinYMin meet" x="744" y="-208.918"/>
<text text-anchor="start" x="755.1625" y="-199.0177" font-family="Helvetica,sans-Serif" font-size="11.00" fill="#000000">TRAINING_SESSION_ID</text>
<polygon fill="none" stroke="#000000" points="739,-172.9177 739,-191.9177 881,-191.9177 881,-172.9177 739,-172.9177"/>
<text text-anchor="start" x="742" y="-179.0177" font-family="Helvetica,sans-Serif" font-size="11.00" fill="#000000">...</text>
<polygon fill="#ffffff" stroke="transparent" points="739,-153.9177 739,-172.9177 791,-172.9177 791,-153.9177 739,-153.9177"/>
<polygon fill="none" stroke="#000000" points="739,-153.9177 739,-172.9177 791,-172.9177 791,-153.9177 739,-153.9177"/>
<text text-anchor="start" x="742" y="-160.0177" font-family="Helvetica,sans-Serif" font-size="11.00" fill="#000000">&lt; 6</text>
<polygon fill="#ffffff" stroke="transparent" points="791,-153.9177 791,-172.9177 844,-172.9177 844,-153.9177 791,-153.9177"/>
<polygon fill="none" stroke="#000000" points="791,-153.9177 791,-172.9177 844,-172.9177 844,-153.9177 791,-153.9177"/>
<text text-anchor="start" x="808.6105" y="-160.0177" font-family="Helvetica,sans-Serif" font-size="11.00" fill="#000000">9 rows</text>
<polygon fill="#ffffff" stroke="transparent" points="844,-153.9177 844,-172.9177 881,-172.9177 881,-153.9177 844,-153.9177"/>
<polygon fill="none" stroke="#000000" points="844,-153.9177 844,-172.9177 881,-172.9177 881,-153.9177 844,-153.9177"/>
<text text-anchor="start" x="862.4053" y="-160.0177" font-family="Helvetica,sans-Serif" font-size="11.00" fill="#000000">1 &gt;</text>
</a>
</g>
</g>
<!-- DPA_REPORT&#45;&gt;DISTRICT -->
<g id="edge6" class="edge">
<title>DPA_REPORT:w&#45;&gt;DISTRICT:e</title>
<path fill="none" stroke="#000000" d="M724.3878,-268.5792C662.419,-266.1293 535.7798,-252.0676 497,-282.9177 443.7291,-325.2957 522.0711,-429.9177 454,-429.9177"/>
<polygon fill="#000000" stroke="#000000" points="731.0021,-268.7324 738.9166,-272.5168 735.0011,-268.825 739,-268.9177 739,-268.9177 739,-268.9177 735.0011,-268.825 739.0834,-265.3187 731.0021,-268.7324 731.0021,-268.7324"/>
<ellipse fill="none" stroke="#000000" cx="727.803" cy="-268.6582" rx="3.2" ry="3.2"/>
</g>
<!-- DPA_REPORT&#45;&gt;BOROUGH -->
<g id="edge5" class="edge">
<title>DPA_REPORT:w&#45;&gt;BOROUGH:e</title>
<path fill="none" stroke="#000000" d="M724.3919,-245.1402C669.1923,-229.2965 758.901,-111.742 698,-62.9177 628.3002,-7.0395 584.9871,-47.4674 497,-62.9177 363.3725,-86.3824 299.9979,-65.3929 210,-166.9177 157.0426,-226.6579 249.3335,-341.9177 169.5,-341.9177"/>
<polygon fill="#000000" stroke="#000000" points="731.0586,-245.9514 738.5651,-250.4914 735.0293,-246.4346 739,-246.9177 739,-246.9177 739,-246.9177 735.0293,-246.4346 739.4349,-243.3441 731.0586,-245.9514 731.0586,-245.9514"/>
<ellipse fill="none" stroke="#000000" cx="727.882" cy="-245.5648" rx="3.2" ry="3.2"/>
</g>
<!-- TEAM -->
<g id="node6" class="node">
<title>TEAM</title>
<g id="a_node6"><a xlink:href="../../tables/TEAM.html" xlink:title="TEAM" target="_top">
<polygon fill="#ffffff" stroke="transparent" points="505,-293.4177 505,-508.4177 690,-508.4177 690,-293.4177 505,-293.4177"/>
<polygon fill="#f5f5f5" stroke="transparent" points="505.5,-484.9177 505.5,-507.9177 690.5,-507.9177 690.5,-484.9177 505.5,-484.9177"/>
<polygon fill="none" stroke="#000000" points="505.5,-484.9177 505.5,-507.9177 690.5,-507.9177 690.5,-484.9177 505.5,-484.9177"/>
<text text-anchor="start" x="510.5" y="-494.0177" font-family="Helvetica,sans-Serif" font-weight="bold" font-size="11.00" fill="#000000">TEAM</text>
<text text-anchor="start" x="655.5437" y="-493.0177" font-family="Helvetica,sans-Serif" font-size="11.00" fill="#000000">[table]</text>
<polygon fill="none" stroke="#000000" points="505.5,-462.9177 505.5,-484.9177 690.5,-484.9177 690.5,-462.9177 505.5,-462.9177"/>
<image xlink:href="../../images/primaryKeys.png" width="11px" height="12px" preserveAspectRatio="xMinYMin meet" x="510.5" y="-479.918"/>
<text text-anchor="start" x="525.5" y="-470.0177" font-family="Helvetica,sans-Serif" font-size="11.00" fill="#000000">TEAM_ID</text>
<polygon fill="none" stroke="#000000" points="505.5,-440.9177 505.5,-462.9177 690.5,-462.9177 690.5,-440.9177 505.5,-440.9177"/>
<image xlink:href="../../images/primaryKeys.png" width="11px" height="12px" preserveAspectRatio="xMinYMin meet" x="510.5" y="-457.918"/>
<text text-anchor="start" x="525.5" y="-448.0177" font-family="Helvetica,sans-Serif" font-size="11.00" fill="#000000">CODE</text>
<polygon fill="none" stroke="#000000" points="505.5,-418.9177 505.5,-440.9177 690.5,-440.9177 690.5,-418.9177 505.5,-418.9177"/>
<image xlink:href="../../images/primaryKeys.png" width="11px" height="12px" preserveAspectRatio="xMinYMin meet" x="510.5" y="-435.918"/>
<text text-anchor="start" x="525.5" y="-426.0177" font-family="Helvetica,sans-Serif" font-size="11.00" fill="#000000">DISTRICT_ID</text>
<polygon fill="none" stroke="#000000" points="505.5,-396.9177 505.5,-418.9177 690.5,-418.9177 690.5,-396.9177 505.5,-396.9177"/>
<image xlink:href="../../images/primaryKeys.png" width="11px" height="12px" preserveAspectRatio="xMinYMin meet" x="510.5" y="-413.918"/>
<text text-anchor="start" x="525.5" y="-404.0177" font-family="Helvetica,sans-Serif" font-size="11.00" fill="#000000">LOCAL_DELIVERY_UNIT_ID</text>
<polygon fill="none" stroke="#000000" points="505.5,-374.9177 505.5,-396.9177 690.5,-396.9177 690.5,-374.9177 505.5,-374.9177"/>
<image xlink:href="../../images/primaryKeys.png" width="11px" height="12px" preserveAspectRatio="xMinYMin meet" x="510.5" y="-391.918"/>
<text text-anchor="start" x="525.5" y="-382.0177" font-family="Helvetica,sans-Serif" font-size="11.00" fill="#000000">TRAINING_SESSION_ID</text>
<polygon fill="none" stroke="#000000" points="505.5,-352.9177 505.5,-374.9177 690.5,-374.9177 690.5,-352.9177 505.5,-352.9177"/>
<image xlink:href="../../images/primaryKeys.png" width="11px" height="12px" preserveAspectRatio="xMinYMin meet" x="510.5" y="-369.918"/>
<text text-anchor="start" x="525.5" y="-360.0177" font-family="Helvetica,sans-Serif" font-size="11.00" fill="#000000">PROBATION_AREA_ID</text>
<polygon fill="none" stroke="#000000" points="505.5,-330.9177 505.5,-352.9177 690.5,-352.9177 690.5,-330.9177 505.5,-330.9177"/>
<image xlink:href="../../images/primaryKeys.png" width="11px" height="12px" preserveAspectRatio="xMinYMin meet" x="510.5" y="-347.918"/>
<text text-anchor="start" x="525.5" y="-338.0177" font-family="Helvetica,sans-Serif" font-size="11.00" fill="#000000">SC_PROVIDER_ID</text>
<polygon fill="none" stroke="#000000" points="505.5,-311.9177 505.5,-330.9177 690.5,-330.9177 690.5,-311.9177 505.5,-311.9177"/>
<text text-anchor="start" x="508.5" y="-318.0177" font-family="Helvetica,sans-Serif" font-size="11.00" fill="#000000">...</text>
<polygon fill="#ffffff" stroke="transparent" points="505.5,-292.9177 505.5,-311.9177 565.5,-311.9177 565.5,-292.9177 505.5,-292.9177"/>
<polygon fill="none" stroke="#000000" points="505.5,-292.9177 505.5,-311.9177 565.5,-311.9177 565.5,-292.9177 505.5,-292.9177"/>
<text text-anchor="start" x="508.5" y="-299.0177" font-family="Helvetica,sans-Serif" font-size="11.00" fill="#000000">&lt; 4</text>
<polygon fill="#ffffff" stroke="transparent" points="565.5,-292.9177 565.5,-311.9177 643.5,-311.9177 643.5,-292.9177 565.5,-292.9177"/>
<polygon fill="none" stroke="#000000" points="565.5,-292.9177 565.5,-311.9177 643.5,-311.9177 643.5,-292.9177 565.5,-292.9177"/>
<text text-anchor="start" x="586.7089" y="-299.0177" font-family="Helvetica,sans-Serif" font-size="11.00" fill="#000000">1,458 rows</text>
<polygon fill="#ffffff" stroke="transparent" points="643.5,-292.9177 643.5,-311.9177 690.5,-311.9177 690.5,-292.9177 643.5,-292.9177"/>
<polygon fill="none" stroke="#000000" points="643.5,-292.9177 643.5,-311.9177 690.5,-311.9177 690.5,-292.9177 643.5,-292.9177"/>
<text text-anchor="start" x="665.7904" y="-299.0177" font-family="Helvetica,sans-Serif" font-size="11.00" fill="#000000">62 &gt;</text>
</a>
</g>
</g>
<!-- DPA_REPORT&#45;&gt;TEAM -->
<g id="edge7" class="edge">
<title>DPA_REPORT:w&#45;&gt;TEAM:e</title>
<path fill="none" stroke="#000000" d="M724.729,-338.0821C687.1759,-358.7723 750.0519,-473.9177 690.5,-473.9177"/>
<polygon fill="#000000" stroke="#000000" points="731.1897,-336.6496 739.7793,-338.4324 735.0948,-335.7836 739,-334.9177 739,-334.9177 739,-334.9177 735.0948,-335.7836 738.2207,-331.4031 731.1897,-336.6496 731.1897,-336.6496"/>
<ellipse fill="none" stroke="#000000" cx="728.0656" cy="-337.3423" rx="3.2" ry="3.2"/>
</g>
<!-- TEAM&#45;&gt;DISTRICT -->
<g id="edge9" class="edge">
<title>TEAM:w&#45;&gt;DISTRICT:e</title>
<path fill="none" stroke="#000000" d="M491.0156,-429.9177C478.6771,-429.9177 471.1667,-429.9177 454,-429.9177"/>
<polygon fill="#000000" stroke="#000000" points="497.5,-429.9178 505.5,-433.5177 501.5,-429.9177 505.5,-429.9177 505.5,-429.9177 505.5,-429.9177 501.5,-429.9177 505.5,-426.3177 497.5,-429.9178 497.5,-429.9178"/>
<ellipse fill="none" stroke="#000000" cx="494.3" cy="-429.9178" rx="3.2" ry="3.2"/>
</g>
<!-- OFFICE_LOCATION -->
<g id="node7" class="node">
<title>OFFICE_LOCATION</title>
<g id="a_node7"><a xlink:href="../../tables/OFFICE_LOCATION.html" xlink:title="OFFICE_LOCATION" target="_top">
<polygon fill="#ffffff" stroke="transparent" points="517,-73.4177 517,-244.4177 678,-244.4177 678,-73.4177 517,-73.4177"/>
<polygon fill="#f5f5f5" stroke="transparent" points="517.5,-220.9177 517.5,-243.9177 678.5,-243.9177 678.5,-220.9177 517.5,-220.9177"/>
<polygon fill="none" stroke="#000000" points="517.5,-220.9177 517.5,-243.9177 678.5,-243.9177 678.5,-220.9177 517.5,-220.9177"/>
<text text-anchor="start" x="522.5" y="-230.0177" font-family="Helvetica,sans-Serif" font-weight="bold" font-size="11.00" fill="#000000">OFFICE_LOCATION</text>
<text text-anchor="start" x="643.5437" y="-229.0177" font-family="Helvetica,sans-Serif" font-size="11.00" fill="#000000">[table]</text>
<polygon fill="none" stroke="#000000" points="517.5,-198.9177 517.5,-220.9177 678.5,-220.9177 678.5,-198.9177 517.5,-198.9177"/>
<image xlink:href="../../images/primaryKeys.png" width="11px" height="12px" preserveAspectRatio="xMinYMin meet" x="522.5" y="-215.918"/>
<text text-anchor="start" x="537.5" y="-206.0177" font-family="Helvetica,sans-Serif" font-size="11.00" fill="#000000">OFFICE_LOCATION_ID</text>
<polygon fill="none" stroke="#000000" points="517.5,-176.9177 517.5,-198.9177 678.5,-198.9177 678.5,-176.9177 517.5,-176.9177"/>
<image xlink:href="../../images/primaryKeys.png" width="11px" height="12px" preserveAspectRatio="xMinYMin meet" x="522.5" y="-193.918"/>
<text text-anchor="start" x="537.5" y="-184.0177" font-family="Helvetica,sans-Serif" font-size="11.00" fill="#000000">CODE</text>
<polygon fill="none" stroke="#000000" points="517.5,-154.9177 517.5,-176.9177 678.5,-176.9177 678.5,-154.9177 517.5,-154.9177"/>
<image xlink:href="../../images/primaryKeys.png" width="11px" height="12px" preserveAspectRatio="xMinYMin meet" x="522.5" y="-171.918"/>
<text text-anchor="start" x="537.5" y="-162.0177" font-family="Helvetica,sans-Serif" font-size="11.00" fill="#000000">DISTRICT_ID</text>
<polygon fill="none" stroke="#000000" points="517.5,-132.9177 517.5,-154.9177 678.5,-154.9177 678.5,-132.9177 517.5,-132.9177"/>
<image xlink:href="../../images/primaryKeys.png" width="11px" height="12px" preserveAspectRatio="xMinYMin meet" x="522.5" y="-149.918"/>
<text text-anchor="start" x="537.5" y="-140.0177" font-family="Helvetica,sans-Serif" font-size="11.00" fill="#000000">TRAINING_SESSION_ID</text>
<polygon fill="none" stroke="#000000" points="517.5,-110.9177 517.5,-132.9177 678.5,-132.9177 678.5,-110.9177 517.5,-110.9177"/>
<image xlink:href="../../images/primaryKeys.png" width="11px" height="12px" preserveAspectRatio="xMinYMin meet" x="522.5" y="-127.918"/>
<text text-anchor="start" x="537.5" y="-118.0177" font-family="Helvetica,sans-Serif" font-size="11.00" fill="#000000">PROBATION_AREA_ID</text>
<polygon fill="none" stroke="#000000" points="517.5,-91.9177 517.5,-110.9177 678.5,-110.9177 678.5,-91.9177 517.5,-91.9177"/>
<text text-anchor="start" x="520.5" y="-98.0177" font-family="Helvetica,sans-Serif" font-size="11.00" fill="#000000">...</text>
<polygon fill="#ffffff" stroke="transparent" points="517.5,-72.9177 517.5,-91.9177 568.5,-91.9177 568.5,-72.9177 517.5,-72.9177"/>
<polygon fill="none" stroke="#000000" points="517.5,-72.9177 517.5,-91.9177 568.5,-91.9177 568.5,-72.9177 517.5,-72.9177"/>
<text text-anchor="start" x="520.5" y="-79.0177" font-family="Helvetica,sans-Serif" font-size="11.00" fill="#000000">&lt; 2</text>
<polygon fill="#ffffff" stroke="transparent" points="568.5,-72.9177 568.5,-91.9177 642.5,-91.9177 642.5,-72.9177 568.5,-72.9177"/>
<polygon fill="none" stroke="#000000" points="568.5,-72.9177 568.5,-91.9177 642.5,-91.9177 642.5,-72.9177 568.5,-72.9177"/>
<text text-anchor="start" x="585.7089" y="-79.0177" font-family="Helvetica,sans-Serif" font-size="11.00" fill="#000000">4,727 rows</text>
<polygon fill="#ffffff" stroke="transparent" points="642.5,-72.9177 642.5,-91.9177 678.5,-91.9177 678.5,-72.9177 642.5,-72.9177"/>
<polygon fill="none" stroke="#000000" points="642.5,-72.9177 642.5,-91.9177 678.5,-91.9177 678.5,-72.9177 642.5,-72.9177"/>
<text text-anchor="start" x="659.9053" y="-79.0177" font-family="Helvetica,sans-Serif" font-size="11.00" fill="#000000">8 &gt;</text>
</a>
</g>
</g>
<!-- OFFICE_LOCATION&#45;&gt;DISTRICT -->
<g id="edge8" class="edge">
<title>OFFICE_LOCATION:w&#45;&gt;DISTRICT:e</title>
<path fill="none" stroke="#000000" d="M503.9119,-171.9278C466.486,-211.2242 508.9187,-429.9177 454,-429.9177"/>
<polygon fill="#000000" stroke="#000000" points="510.1837,-169.1538 518.9562,-169.2101 513.8418,-167.5357 517.5,-165.9177 517.5,-165.9177 517.5,-165.9177 513.8418,-167.5357 516.0438,-162.6254 510.1837,-169.1538 510.1837,-169.1538"/>
<ellipse fill="none" stroke="#000000" cx="507.2572" cy="-170.4482" rx="3.2" ry="3.2"/>
</g>
</g>
</svg>
