<?xml version="1.0" encoding="UTF-8" standalone="no"?>
<!DOCTYPE svg PUBLIC "-//W3C//DTD SVG 1.1//EN"
 "http://www.w3.org/Graphics/SVG/1.1/DTD/svg11.dtd">
<!-- Generated by graphviz version 2.40.1 (20161225.0304)
 -->
<!-- Title: twoDegreesRelationshipsDiagramImplied Pages: 1 -->
<svg width="438pt" height="333pt"
 viewBox="0.00 0.00 438.00 332.70" xmlns="http://www.w3.org/2000/svg" xmlns:xlink="http://www.w3.org/1999/xlink">
<g id="graph0" class="graph" transform="scale(1 1) rotate(0) translate(4 328.7)">
<title>twoDegreesRelationshipsDiagramImplied</title>
<polygon fill="#ffffff" stroke="transparent" points="-4,4 -4,-328.7 434,-328.7 434,4 -4,4"/>
<text text-anchor="middle" x="72.4936" y="-7.3" font-family="Helvetica,sans-Serif" font-size="11.00" fill="#000000">Generated by SchemaSpy</text>
<!-- DMS_OFFENDER_COHORT -->
<g id="node1" class="node">
<title>DMS_OFFENDER_COHORT</title>
<g id="a_node1"><a xlink:href="../../tables/DMS_OFFENDER_COHORT.html" xlink:title="DMS_OFFENDER_COHORT" target="_top">
<polygon fill="#ffffff" stroke="transparent" points="199,-183.7 199,-320.7 422,-320.7 422,-183.7 199,-183.7"/>
<polygon fill="#f5f5f5" stroke="transparent" points="201.5,-295.2 201.5,-318.2 420.5,-318.2 420.5,-295.2 201.5,-295.2"/>
<polygon fill="none" stroke="#000000" points="201.5,-295.2 201.5,-318.2 420.5,-318.2 420.5,-295.2 201.5,-295.2"/>
<text text-anchor="start" x="206.5" y="-304.3" font-family="Helvetica,sans-Serif" font-weight="bold" font-size="11.00" fill="#000000">DMS_OFFENDER_COHORT</text>
<text text-anchor="start" x="387.3895" y="-303.3" font-family="Helvetica,sans-Serif" font-size="11.00" fill="#000000">[view]</text>
<polygon fill="none" stroke="#000000" points="201.5,-273.2 201.5,-295.2 359.5,-295.2 359.5,-273.2 201.5,-273.2"/>
<image xlink:href="../../images/foreignKeys.png" width="11px" height="12px" preserveAspectRatio="xMinYMin meet" x="206.5" y="-290.2"/>
<text text-anchor="start" x="221.5" y="-280.3" font-family="Helvetica,sans-Serif" font-size="11.00" fill="#000000">OFFENDER_ID</text>
<polygon fill="none" stroke="#000000" points="359.5,-273.2 359.5,-295.2 420.5,-295.2 420.5,-273.2 359.5,-273.2"/>
<text text-anchor="start" x="362.1865" y="-280.9" font-family="Helvetica,sans-Serif" font-size="11.00" fill="#000000">number[38]</text>
<polygon fill="none" stroke="#000000" points="201.5,-251.2 201.5,-273.2 359.5,-273.2 359.5,-251.2 201.5,-251.2"/>
<text text-anchor="start" x="221.5" y="-258.3" font-family="Helvetica,sans-Serif" font-size="11.00" fill="#000000">CRN</text>
<polygon fill="none" stroke="#000000" points="359.5,-251.2 359.5,-273.2 420.5,-273.2 420.5,-251.2 359.5,-251.2"/>
<text text-anchor="start" x="362.5" y="-258.9" font-family="Helvetica,sans-Serif" font-size="11.00" fill="#000000">char[7]</text>
<polygon fill="none" stroke="#000000" points="201.5,-229.2 201.5,-251.2 359.5,-251.2 359.5,-229.2 201.5,-229.2"/>
<text text-anchor="start" x="221.5" y="-236.3" font-family="Helvetica,sans-Serif" font-size="11.00" fill="#000000">PROBATION_AREA_ID</text>
<polygon fill="none" stroke="#000000" points="359.5,-229.2 359.5,-251.2 420.5,-251.2 420.5,-229.2 359.5,-229.2"/>
<text text-anchor="start" x="362.1865" y="-236.9" font-family="Helvetica,sans-Serif" font-size="11.00" fill="#000000">number[38]</text>
<polygon fill="none" stroke="#000000" points="201.5,-207.2 201.5,-229.2 359.5,-229.2 359.5,-207.2 201.5,-207.2"/>
<text text-anchor="start" x="221.5" y="-214.3" font-family="Helvetica,sans-Serif" font-size="11.00" fill="#000000">CODE</text>
<polygon fill="none" stroke="#000000" points="359.5,-207.2 359.5,-229.2 420.5,-229.2 420.5,-207.2 359.5,-207.2"/>
<text text-anchor="start" x="362.5" y="-214.9" font-family="Helvetica,sans-Serif" font-size="11.00" fill="#000000">char[3]</text>
<polygon fill="none" stroke="#000000" points="201.5,-185.2 201.5,-207.2 359.5,-207.2 359.5,-185.2 201.5,-185.2"/>
<text text-anchor="start" x="217.413" y="-192.3" font-family="Helvetica,sans-Serif" font-size="11.00" fill="#000000">OFFENDER_ACTIVE_FLAG</text>
<polygon fill="none" stroke="#000000" points="359.5,-185.2 359.5,-207.2 420.5,-207.2 420.5,-185.2 359.5,-185.2"/>
<text text-anchor="start" x="362.5" y="-192.9" font-family="Helvetica,sans-Serif" font-size="11.00" fill="#000000">char[1]</text>
<polygon fill="none" stroke="#000000" stroke-width="2" points="200,-184.7 200,-319.7 421,-319.7 421,-184.7 200,-184.7"/>
</a>
</g>
</g>
<!-- IAPS_OFFENDER -->
<g id="node2" class="node">
<title>IAPS_OFFENDER</title>
<g id="a_node2"><a xlink:href="../../tables/IAPS_OFFENDER.html" xlink:title="IAPS_OFFENDER" target="_top">
<polygon fill="#ffffff" stroke="transparent" points="8,-80.7 8,-163.7 150,-163.7 150,-80.7 8,-80.7"/>
<polygon fill="#f5f5f5" stroke="transparent" points="8,-140.2 8,-163.2 150,-163.2 150,-140.2 8,-140.2"/>
<polygon fill="none" stroke="#000000" points="8,-140.2 8,-163.2 150,-163.2 150,-140.2 8,-140.2"/>
<text text-anchor="start" x="13" y="-149.3" font-family="Helvetica,sans-Serif" font-weight="bold" font-size="11.00" fill="#000000">IAPS_OFFENDER</text>
<text text-anchor="start" x="115.0437" y="-148.3" font-family="Helvetica,sans-Serif" font-size="11.00" fill="#000000">[table]</text>
<polygon fill="none" stroke="#000000" points="8,-118.2 8,-140.2 150,-140.2 150,-118.2 8,-118.2"/>
<image xlink:href="../../images/primaryKeys.png" width="11px" height="12px" preserveAspectRatio="xMinYMin meet" x="13" y="-135.2"/>
<text text-anchor="start" x="28" y="-125.3" font-family="Helvetica,sans-Serif" font-size="11.00" fill="#000000">OFFENDER_ID</text>
<polygon fill="none" stroke="#000000" points="8,-99.2 8,-118.2 150,-118.2 150,-99.2 8,-99.2"/>
<text text-anchor="start" x="11" y="-105.3" font-family="Helvetica,sans-Serif" font-size="11.00" fill="#000000">...</text>
<polygon fill="#ffffff" stroke="transparent" points="8,-80.2 8,-99.2 49,-99.2 49,-80.2 8,-80.2"/>
<polygon fill="none" stroke="#000000" points="8,-80.2 8,-99.2 49,-99.2 49,-80.2 8,-80.2"/>
<text text-anchor="start" x="11" y="-86.3" font-family="Helvetica,sans-Serif" font-size="11.00" fill="#000000"> &#160;</text>
<polygon fill="#ffffff" stroke="transparent" points="49,-80.2 49,-99.2 114,-99.2 114,-80.2 49,-80.2"/>
<polygon fill="none" stroke="#000000" points="49,-80.2 49,-99.2 114,-99.2 114,-80.2 49,-80.2"/>
<text text-anchor="start" x="66.3807" y="-86.3" font-family="Helvetica,sans-Serif" font-size="11.00" fill="#000000">388 rows</text>
<polygon fill="#ffffff" stroke="transparent" points="114,-80.2 114,-99.2 150,-99.2 150,-80.2 114,-80.2"/>
<polygon fill="none" stroke="#000000" points="114,-80.2 114,-99.2 150,-99.2 150,-80.2 114,-80.2"/>
<text text-anchor="start" x="131.4053" y="-86.3" font-family="Helvetica,sans-Serif" font-size="11.00" fill="#000000">3 &gt;</text>
</a>
</g>
</g>
<!-- DMS_OFFENDER_COHORT&#45;&gt;IAPS_OFFENDER -->
<g id="edge1" class="edge">
<title>DMS_OFFENDER_COHORT:w&#45;&gt;IAPS_OFFENDER:e</title>
<path fill="none" stroke="#000000" stroke-dasharray="5,2" d="M187.0889,-281.3774C142.8459,-260.3697 216.7789,-129.2 150,-129.2"/>
<polygon fill="#000000" stroke="#000000" points="193.6492,-282.6623 200.808,-287.7329 197.5746,-283.4311 201.5,-284.2 201.5,-284.2 201.5,-284.2 197.5746,-283.4311 202.192,-280.6671 193.6492,-282.6623 193.6492,-282.6623"/>
<ellipse fill="none" stroke="#000000" cx="190.5088" cy="-282.0472" rx="3.2" ry="3.2"/>
</g>
<!-- PRECON_HISTORY -->
<g id="node3" class="node">
<title>PRECON_HISTORY</title>
<g id="a_node3"><a xlink:href="../../tables/PRECON_HISTORY.html" xlink:title="PRECON_HISTORY" target="_top">
<polygon fill="#ffffff" stroke="transparent" points="238,-101.7 238,-162.7 383,-162.7 383,-101.7 238,-101.7"/>
<polygon fill="#f5f5f5" stroke="transparent" points="238.5,-139.2 238.5,-162.2 383.5,-162.2 383.5,-139.2 238.5,-139.2"/>
<polygon fill="none" stroke="#000000" points="238.5,-139.2 238.5,-162.2 383.5,-162.2 383.5,-139.2 238.5,-139.2"/>
<text text-anchor="start" x="243.4732" y="-148.3" font-family="Helvetica,sans-Serif" font-weight="bold" font-size="11.00" fill="#000000">PRECON_HISTORY</text>
<text text-anchor="start" x="349.0219" y="-147.3" font-family="Helvetica,sans-Serif" font-size="11.00" fill="#000000">[table]</text>
<polygon fill="none" stroke="#000000" points="238.5,-120.2 238.5,-139.2 383.5,-139.2 383.5,-120.2 238.5,-120.2"/>
<text text-anchor="start" x="241.5" y="-126.3" font-family="Helvetica,sans-Serif" font-size="11.00" fill="#000000">...</text>
<polygon fill="#ffffff" stroke="transparent" points="238.5,-101.2 238.5,-120.2 290.5,-120.2 290.5,-101.2 238.5,-101.2"/>
<polygon fill="none" stroke="#000000" points="238.5,-101.2 238.5,-120.2 290.5,-120.2 290.5,-101.2 238.5,-101.2"/>
<text text-anchor="start" x="241.5" y="-107.3" font-family="Helvetica,sans-Serif" font-size="11.00" fill="#000000">&lt; 3</text>
<polygon fill="#ffffff" stroke="transparent" points="290.5,-101.2 290.5,-120.2 355.5,-120.2 355.5,-101.2 290.5,-101.2"/>
<polygon fill="none" stroke="#000000" points="290.5,-101.2 290.5,-120.2 355.5,-120.2 355.5,-101.2 290.5,-101.2"/>
<text text-anchor="start" x="307.8807" y="-107.3" font-family="Helvetica,sans-Serif" font-size="11.00" fill="#000000">267 rows</text>
<polygon fill="#ffffff" stroke="transparent" points="355.5,-101.2 355.5,-120.2 383.5,-120.2 383.5,-101.2 355.5,-101.2"/>
<polygon fill="none" stroke="#000000" points="355.5,-101.2 355.5,-120.2 383.5,-120.2 383.5,-101.2 355.5,-101.2"/>
<text text-anchor="start" x="374.3862" y="-107.3" font-family="Helvetica,sans-Serif" font-size="11.00" fill="#000000"> &#160;</text>
</a>
</g>
</g>
<!-- PRECON_HISTORY&#45;&gt;IAPS_OFFENDER -->
<g id="edge2" class="edge">
<title>PRECON_HISTORY:w&#45;&gt;IAPS_OFFENDER:e</title>
<path fill="none" stroke="#000000" stroke-dasharray="5,2" d="M223.8707,-129.2C195.9265,-129.2 183.9557,-129.2 150,-129.2"/>
<polygon fill="#000000" stroke="#000000" points="230.5,-129.2001 238.5,-132.8 234.5,-129.2 238.5,-129.2 238.5,-129.2 238.5,-129.2 234.5,-129.2 238.5,-125.6 230.5,-129.2001 230.5,-129.2001"/>
<ellipse fill="none" stroke="#000000" cx="227.3" cy="-129.2001" rx="3.2" ry="3.2"/>
</g>
<!-- V_CONTACT_ES -->
<g id="node4" class="node">
<title>V_CONTACT_ES</title>
<g id="a_node4"><a xlink:href="../../tables/V_CONTACT_ES.html" xlink:title="V_CONTACT_ES" target="_top">
<polygon fill="#ffffff" stroke="transparent" points="246,-38.2 246,-80.2 375,-80.2 375,-38.2 246,-38.2"/>
<polygon fill="#f5f5f5" stroke="transparent" points="246.5,-57.2 246.5,-80.2 375.5,-80.2 375.5,-57.2 246.5,-57.2"/>
<polygon fill="none" stroke="#000000" points="246.5,-57.2 246.5,-80.2 375.5,-80.2 375.5,-57.2 246.5,-57.2"/>
<text text-anchor="start" x="251.3036" y="-66.3" font-family="Helvetica,sans-Serif" font-weight="bold" font-size="11.00" fill="#000000">V_CONTACT_ES</text>
<text text-anchor="start" x="342.4448" y="-65.3" font-family="Helvetica,sans-Serif" font-size="11.00" fill="#000000">[view]</text>
<polygon fill="none" stroke="#000000" points="246.5,-38.2 246.5,-57.2 375.5,-57.2 375.5,-38.2 246.5,-38.2"/>
<text text-anchor="start" x="249.5" y="-44.3" font-family="Helvetica,sans-Serif" font-size="11.00" fill="#000000">...</text>
</a>
</g>
</g>
<!-- V_CONTACT_ES&#45;&gt;IAPS_OFFENDER -->
<g id="edge3" class="edge">
<title>V_CONTACT_ES:w&#45;&gt;IAPS_OFFENDER:e</title>
<path fill="none" stroke="#000000" stroke-dasharray="5,2" d="M232.2483,-49.3232C214.2088,-55.5509 210.601,-74.3903 191,-91.2 172.1403,-107.3739 174.8452,-129.2 150,-129.2"/>
<polygon fill="#000000" stroke="#000000" points="238.5873,-48.3789 247.0305,-50.7607 242.5437,-47.7894 246.5,-47.2 246.5,-47.2 246.5,-47.2 242.5437,-47.7894 245.9695,-43.6393 238.5873,-48.3789 238.5873,-48.3789"/>
<ellipse fill="none" stroke="#000000" cx="235.4223" cy="-48.8504" rx="3.2" ry="3.2"/>
</g>
</g>
</svg>
