<?xml version="1.0" encoding="UTF-8" standalone="no"?>
<!DOCTYPE svg PUBLIC "-//W3C//DTD SVG 1.1//EN"
 "http://www.w3.org/Graphics/SVG/1.1/DTD/svg11.dtd">
<!-- Generated by graphviz version 2.40.1 (20161225.0304)
 -->
<!-- Title: twoDegreesRelationshipsDiagram Pages: 1 -->
<svg width="991pt" height="271pt"
 viewBox="0.00 0.00 991.00 271.20" xmlns="http://www.w3.org/2000/svg" xmlns:xlink="http://www.w3.org/1999/xlink">
<g id="graph0" class="graph" transform="scale(1 1) rotate(0) translate(4 267.2)">
<title>twoDegreesRelationshipsDiagram</title>
<polygon fill="#ffffff" stroke="transparent" points="-4,4 -4,-267.2 987,-267.2 987,4 -4,4"/>
<text text-anchor="middle" x="72.4936" y="-7.3" font-family="Helvetica,sans-Serif" font-size="11.00" fill="#000000">Generated by SchemaSpy</text>
<!-- DMS_BATCH -->
<g id="node1" class="node">
<title>DMS_BATCH</title>
<g id="a_node1"><a xlink:href="../../tables/DMS_BATCH.html" xlink:title="DMS_BATCH" target="_top">
<polygon fill="#ffffff" stroke="transparent" points="305,-132.2 305,-259.2 498,-259.2 498,-132.2 305,-132.2"/>
<polygon fill="#f5f5f5" stroke="transparent" points="305.5,-235.7 305.5,-258.7 498.5,-258.7 498.5,-235.7 305.5,-235.7"/>
<polygon fill="none" stroke="#000000" points="305.5,-235.7 305.5,-258.7 498.5,-258.7 498.5,-235.7 305.5,-235.7"/>
<text text-anchor="start" x="310.5" y="-244.8" font-family="Helvetica,sans-Serif" font-weight="bold" font-size="11.00" fill="#000000">DMS_BATCH</text>
<text text-anchor="start" x="463.5437" y="-243.8" font-family="Helvetica,sans-Serif" font-size="11.00" fill="#000000">[table]</text>
<polygon fill="none" stroke="#000000" points="305.5,-213.7 305.5,-235.7 498.5,-235.7 498.5,-213.7 305.5,-213.7"/>
<image xlink:href="../../images/primaryKeys.png" width="11px" height="12px" preserveAspectRatio="xMinYMin meet" x="310.5" y="-230.7"/>
<text text-anchor="start" x="325.5" y="-220.8" font-family="Helvetica,sans-Serif" font-size="11.00" fill="#000000">DMS_BATCH_ID</text>
<polygon fill="none" stroke="#000000" points="305.5,-191.7 305.5,-213.7 498.5,-213.7 498.5,-191.7 305.5,-191.7"/>
<image xlink:href="../../images/primaryKeys.png" width="11px" height="12px" preserveAspectRatio="xMinYMin meet" x="310.5" y="-208.7"/>
<text text-anchor="start" x="325.5" y="-198.8" font-family="Helvetica,sans-Serif" font-size="11.00" fill="#000000">FOLDER_CREATE_STATUS_ID</text>
<polygon fill="none" stroke="#000000" points="305.5,-169.7 305.5,-191.7 498.5,-191.7 498.5,-169.7 305.5,-169.7"/>
<image xlink:href="../../images/primaryKeys.png" width="11px" height="12px" preserveAspectRatio="xMinYMin meet" x="310.5" y="-186.7"/>
<text text-anchor="start" x="319.0608" y="-176.8" font-family="Helvetica,sans-Serif" font-size="11.00" fill="#000000">DOCUMENT_CREATE_STATUS_ID</text>
<polygon fill="none" stroke="#000000" points="305.5,-150.7 305.5,-169.7 498.5,-169.7 498.5,-150.7 305.5,-150.7"/>
<text text-anchor="start" x="308.5" y="-156.8" font-family="Helvetica,sans-Serif" font-size="11.00" fill="#000000">...</text>
<polygon fill="#ffffff" stroke="transparent" points="305.5,-131.7 305.5,-150.7 382.5,-150.7 382.5,-131.7 305.5,-131.7"/>
<polygon fill="none" stroke="#000000" points="305.5,-131.7 305.5,-150.7 382.5,-150.7 382.5,-131.7 305.5,-131.7"/>
<text text-anchor="start" x="308.5" y="-137.8" font-family="Helvetica,sans-Serif" font-size="11.00" fill="#000000">&lt; 2</text>
<polygon fill="#ffffff" stroke="transparent" points="382.5,-131.7 382.5,-150.7 448.5,-150.7 448.5,-131.7 382.5,-131.7"/>
<polygon fill="none" stroke="#000000" points="382.5,-131.7 382.5,-150.7 448.5,-150.7 448.5,-131.7 382.5,-131.7"/>
<text text-anchor="start" x="413.1105" y="-137.8" font-family="Helvetica,sans-Serif" font-size="11.00" fill="#000000">0 rows</text>
<polygon fill="#ffffff" stroke="transparent" points="448.5,-131.7 448.5,-150.7 498.5,-150.7 498.5,-131.7 448.5,-131.7"/>
<polygon fill="none" stroke="#000000" points="448.5,-131.7 448.5,-150.7 498.5,-150.7 498.5,-131.7 448.5,-131.7"/>
<text text-anchor="start" x="479.9053" y="-137.8" font-family="Helvetica,sans-Serif" font-size="11.00" fill="#000000">1 &gt;</text>
</a>
</g>
</g>
<!-- DMS_STATUS -->
<g id="node2" class="node">
<title>DMS_STATUS</title>
<g id="a_node2"><a xlink:href="../../tables/DMS_STATUS.html" xlink:title="DMS_STATUS" target="_top">
<polygon fill="#ffffff" stroke="transparent" points="8,-89.7 8,-179.7 256,-179.7 256,-89.7 8,-89.7"/>
<polygon fill="#f5f5f5" stroke="transparent" points="10,-154.7 10,-177.7 254,-177.7 254,-154.7 10,-154.7"/>
<polygon fill="none" stroke="#000000" points="10,-154.7 10,-177.7 254,-177.7 254,-154.7 10,-154.7"/>
<text text-anchor="start" x="15" y="-163.8" font-family="Helvetica,sans-Serif" font-weight="bold" font-size="11.00" fill="#000000">DMS_STATUS</text>
<text text-anchor="start" x="219.0437" y="-162.8" font-family="Helvetica,sans-Serif" font-size="11.00" fill="#000000">[table]</text>
<polygon fill="none" stroke="#000000" points="10,-132.7 10,-154.7 181,-154.7 181,-132.7 10,-132.7"/>
<image xlink:href="../../images/primaryKeys.png" width="11px" height="12px" preserveAspectRatio="xMinYMin meet" x="15" y="-149.7"/>
<text text-anchor="start" x="30" y="-139.8" font-family="Helvetica,sans-Serif" font-size="11.00" fill="#000000">DMS_STATUS_ID</text>
<polygon fill="none" stroke="#000000" points="181,-132.7 181,-154.7 254,-154.7 254,-132.7 181,-132.7"/>
<text text-anchor="start" x="184" y="-140.4" font-family="Helvetica,sans-Serif" font-size="11.00" fill="#000000">number[22]</text>
<polygon fill="none" stroke="#000000" points="10,-110.7 10,-132.7 181,-132.7 181,-110.7 10,-110.7"/>
<text text-anchor="start" x="25.3906" y="-117.8" font-family="Helvetica,sans-Serif" font-size="11.00" fill="#000000">DMS_STATUS_DESCRIPTION</text>
<polygon fill="none" stroke="#000000" points="181,-110.7 181,-132.7 254,-132.7 254,-110.7 181,-110.7"/>
<text text-anchor="start" x="183.8791" y="-118.4" font-family="Helvetica,sans-Serif" font-size="11.00" fill="#000000">varchar2[200]</text>
<polygon fill="#ffffff" stroke="transparent" points="10,-91.7 10,-110.7 87,-110.7 87,-91.7 10,-91.7"/>
<polygon fill="none" stroke="#000000" points="10,-91.7 10,-110.7 87,-110.7 87,-91.7 10,-91.7"/>
<text text-anchor="start" x="13" y="-97.8" font-family="Helvetica,sans-Serif" font-size="11.00" fill="#000000">&lt; 0</text>
<polygon fill="#ffffff" stroke="transparent" points="87,-91.7 87,-110.7 181,-110.7 181,-91.7 87,-91.7"/>
<polygon fill="none" stroke="#000000" points="87,-91.7 87,-110.7 181,-110.7 181,-91.7 87,-91.7"/>
<text text-anchor="start" x="145.6105" y="-97.8" font-family="Helvetica,sans-Serif" font-size="11.00" fill="#000000">7 rows</text>
<polygon fill="#ffffff" stroke="transparent" points="181,-91.7 181,-110.7 254,-110.7 254,-91.7 181,-91.7"/>
<polygon fill="none" stroke="#000000" points="181,-91.7 181,-110.7 254,-110.7 254,-91.7 181,-91.7"/>
<text text-anchor="start" x="235.4053" y="-97.8" font-family="Helvetica,sans-Serif" font-size="11.00" fill="#000000">4 &gt;</text>
<polygon fill="none" stroke="#000000" stroke-width="2" points="9,-90.7 9,-178.7 255,-178.7 255,-90.7 9,-90.7"/>
</a>
</g>
</g>
<!-- DMS_BATCH&#45;&gt;DMS_STATUS -->
<g id="edge1" class="edge">
<title>DMS_BATCH:w&#45;&gt;DMS_STATUS:e</title>
<path fill="none" stroke="#000000" d="M291.4564,-176.4556C277.8991,-166.7369 276.2387,-143.7 254,-143.7"/>
<polygon fill="#000000" stroke="#000000" points="297.8421,-178.3855 304.4585,-184.1461 301.671,-179.5428 305.5,-180.7 305.5,-180.7 305.5,-180.7 301.671,-179.5428 306.5415,-177.2539 297.8421,-178.3855 297.8421,-178.3855"/>
<ellipse fill="none" stroke="#000000" cx="294.7789" cy="-177.4597" rx="3.2" ry="3.2"/>
</g>
<!-- DMS_BATCH&#45;&gt;DMS_STATUS -->
<g id="edge2" class="edge">
<title>DMS_BATCH:w&#45;&gt;DMS_STATUS:e</title>
<path fill="none" stroke="#000000" d="M291.7053,-198.0704C275.3565,-184.1617 282.8243,-143.7 254,-143.7"/>
<polygon fill="#000000" stroke="#000000" points="297.9157,-200.1546 304.3546,-206.1129 301.7079,-201.4273 305.5,-202.7 305.5,-202.7 305.5,-202.7 301.7079,-201.4273 306.6454,-199.2871 297.9157,-200.1546 297.9157,-200.1546"/>
<ellipse fill="none" stroke="#000000" cx="294.882" cy="-199.1364" rx="3.2" ry="3.2"/>
</g>
<!-- DMS_DOCUMENT -->
<g id="node3" class="node">
<title>DMS_DOCUMENT</title>
<g id="a_node3"><a xlink:href="../../tables/DMS_DOCUMENT.html" xlink:title="DMS_DOCUMENT" target="_top">
<polygon fill="#ffffff" stroke="transparent" points="782,-38.2 782,-165.2 975,-165.2 975,-38.2 782,-38.2"/>
<polygon fill="#f5f5f5" stroke="transparent" points="782.5,-141.7 782.5,-164.7 975.5,-164.7 975.5,-141.7 782.5,-141.7"/>
<polygon fill="none" stroke="#000000" points="782.5,-141.7 782.5,-164.7 975.5,-164.7 975.5,-141.7 782.5,-141.7"/>
<text text-anchor="start" x="787.5" y="-150.8" font-family="Helvetica,sans-Serif" font-weight="bold" font-size="11.00" fill="#000000">DMS_DOCUMENT</text>
<text text-anchor="start" x="940.5437" y="-149.8" font-family="Helvetica,sans-Serif" font-size="11.00" fill="#000000">[table]</text>
<polygon fill="none" stroke="#000000" points="782.5,-119.7 782.5,-141.7 975.5,-141.7 975.5,-119.7 782.5,-119.7"/>
<image xlink:href="../../images/primaryKeys.png" width="11px" height="12px" preserveAspectRatio="xMinYMin meet" x="787.5" y="-136.7"/>
<text text-anchor="start" x="802.5" y="-126.8" font-family="Helvetica,sans-Serif" font-size="11.00" fill="#000000">DMS_DOCUMENT_ID</text>
<polygon fill="none" stroke="#000000" points="782.5,-97.7 782.5,-119.7 975.5,-119.7 975.5,-97.7 782.5,-97.7"/>
<image xlink:href="../../images/primaryKeys.png" width="11px" height="12px" preserveAspectRatio="xMinYMin meet" x="787.5" y="-114.7"/>
<text text-anchor="start" x="802.5" y="-104.8" font-family="Helvetica,sans-Serif" font-size="11.00" fill="#000000">DMS_OFFENDER_ID</text>
<polygon fill="none" stroke="#000000" points="782.5,-75.7 782.5,-97.7 975.5,-97.7 975.5,-75.7 782.5,-75.7"/>
<image xlink:href="../../images/foreignKeys.png" width="11px" height="12px" preserveAspectRatio="xMinYMin meet" x="787.5" y="-92.7"/>
<text text-anchor="start" x="796.0608" y="-82.8" font-family="Helvetica,sans-Serif" font-size="11.00" fill="#000000">DOCUMENT_CREATE_STATUS_ID</text>
<polygon fill="none" stroke="#000000" points="782.5,-56.7 782.5,-75.7 975.5,-75.7 975.5,-56.7 782.5,-56.7"/>
<text text-anchor="start" x="785.5" y="-62.8" font-family="Helvetica,sans-Serif" font-size="11.00" fill="#000000">...</text>
<polygon fill="#ffffff" stroke="transparent" points="782.5,-37.7 782.5,-56.7 864.5,-56.7 864.5,-37.7 782.5,-37.7"/>
<polygon fill="none" stroke="#000000" points="782.5,-37.7 782.5,-56.7 864.5,-56.7 864.5,-37.7 782.5,-37.7"/>
<text text-anchor="start" x="785.5" y="-43.8" font-family="Helvetica,sans-Serif" font-size="11.00" fill="#000000">&lt; 2</text>
<polygon fill="#ffffff" stroke="transparent" points="864.5,-37.7 864.5,-56.7 932.5,-56.7 932.5,-37.7 864.5,-37.7"/>
<polygon fill="none" stroke="#000000" points="864.5,-37.7 864.5,-56.7 932.5,-56.7 932.5,-37.7 864.5,-37.7"/>
<text text-anchor="start" x="897.1105" y="-43.8" font-family="Helvetica,sans-Serif" font-size="11.00" fill="#000000">0 rows</text>
<polygon fill="#ffffff" stroke="transparent" points="932.5,-37.7 932.5,-56.7 975.5,-56.7 975.5,-37.7 932.5,-37.7"/>
<polygon fill="none" stroke="#000000" points="932.5,-37.7 932.5,-56.7 975.5,-56.7 975.5,-37.7 932.5,-37.7"/>
<text text-anchor="start" x="966.3862" y="-43.8" font-family="Helvetica,sans-Serif" font-size="11.00" fill="#000000"> &#160;</text>
</a>
</g>
</g>
<!-- DMS_DOCUMENT&#45;&gt;DMS_STATUS -->
<g id="edge4" class="edge">
<title>DMS_DOCUMENT:w&#45;&gt;DMS_STATUS:e</title>
<path fill="none" stroke="#000000" d="M767.8633,-86.5839C563.2739,-83.3292 489.8684,-13.3979 297,-98.7 271.7011,-109.8892 281.6629,-143.7 254,-143.7"/>
<polygon fill="#000000" stroke="#000000" points="774.5003,-86.6365 782.4714,-90.2999 778.5001,-86.6682 782.5,-86.7 782.5,-86.7 782.5,-86.7 778.5001,-86.6682 782.5286,-83.1001 774.5003,-86.6365 774.5003,-86.6365"/>
<ellipse fill="none" stroke="#000000" cx="771.3004" cy="-86.6111" rx="3.2" ry="3.2"/>
</g>
<!-- DMS_OFFENDER -->
<g id="node4" class="node">
<title>DMS_OFFENDER</title>
<g id="a_node4"><a xlink:href="../../tables/DMS_OFFENDER.html" xlink:title="DMS_OFFENDER" target="_top">
<polygon fill="#ffffff" stroke="transparent" points="547,-105.2 547,-254.2 733,-254.2 733,-105.2 547,-105.2"/>
<polygon fill="#f5f5f5" stroke="transparent" points="547,-230.7 547,-253.7 733,-253.7 733,-230.7 547,-230.7"/>
<polygon fill="none" stroke="#000000" points="547,-230.7 547,-253.7 733,-253.7 733,-230.7 547,-230.7"/>
<text text-anchor="start" x="552" y="-239.8" font-family="Helvetica,sans-Serif" font-weight="bold" font-size="11.00" fill="#000000">DMS_OFFENDER</text>
<text text-anchor="start" x="698.0437" y="-238.8" font-family="Helvetica,sans-Serif" font-size="11.00" fill="#000000">[table]</text>
<polygon fill="none" stroke="#000000" points="547,-208.7 547,-230.7 733,-230.7 733,-208.7 547,-208.7"/>
<image xlink:href="../../images/primaryKeys.png" width="11px" height="12px" preserveAspectRatio="xMinYMin meet" x="552" y="-225.7"/>
<text text-anchor="start" x="567" y="-215.8" font-family="Helvetica,sans-Serif" font-size="11.00" fill="#000000">DMS_OFFENDER_ID</text>
<polygon fill="none" stroke="#000000" points="547,-186.7 547,-208.7 733,-208.7 733,-186.7 547,-186.7"/>
<image xlink:href="../../images/foreignKeys.png" width="11px" height="12px" preserveAspectRatio="xMinYMin meet" x="552" y="-203.7"/>
<text text-anchor="start" x="567" y="-193.8" font-family="Helvetica,sans-Serif" font-size="11.00" fill="#000000">DMS_BATCH_ID</text>
<polygon fill="none" stroke="#000000" points="547,-164.7 547,-186.7 733,-186.7 733,-164.7 547,-164.7"/>
<image xlink:href="../../images/primaryKeys.png" width="11px" height="12px" preserveAspectRatio="xMinYMin meet" x="552" y="-181.7"/>
<text text-anchor="start" x="567" y="-171.8" font-family="Helvetica,sans-Serif" font-size="11.00" fill="#000000">OFFENDER_ID</text>
<polygon fill="none" stroke="#000000" points="547,-142.7 547,-164.7 733,-164.7 733,-142.7 547,-142.7"/>
<image xlink:href="../../images/foreignKeys.png" width="11px" height="12px" preserveAspectRatio="xMinYMin meet" x="552" y="-159.7"/>
<text text-anchor="start" x="566.5252" y="-149.8" font-family="Helvetica,sans-Serif" font-size="11.00" fill="#000000">FOLDER_CREATE_STATUS_ID</text>
<polygon fill="none" stroke="#000000" points="547,-123.7 547,-142.7 733,-142.7 733,-123.7 547,-123.7"/>
<text text-anchor="start" x="550" y="-129.8" font-family="Helvetica,sans-Serif" font-size="11.00" fill="#000000">...</text>
<polygon fill="#ffffff" stroke="transparent" points="547,-104.7 547,-123.7 621,-123.7 621,-104.7 547,-104.7"/>
<polygon fill="none" stroke="#000000" points="547,-104.7 547,-123.7 621,-123.7 621,-104.7 547,-104.7"/>
<text text-anchor="start" x="550" y="-110.8" font-family="Helvetica,sans-Serif" font-size="11.00" fill="#000000">&lt; 2</text>
<polygon fill="#ffffff" stroke="transparent" points="621,-104.7 621,-123.7 685,-123.7 685,-104.7 621,-104.7"/>
<polygon fill="none" stroke="#000000" points="621,-104.7 621,-123.7 685,-123.7 685,-104.7 621,-104.7"/>
<text text-anchor="start" x="649.6105" y="-110.8" font-family="Helvetica,sans-Serif" font-size="11.00" fill="#000000">0 rows</text>
<polygon fill="#ffffff" stroke="transparent" points="685,-104.7 685,-123.7 733,-123.7 733,-104.7 685,-104.7"/>
<polygon fill="none" stroke="#000000" points="685,-104.7 685,-123.7 733,-123.7 733,-104.7 685,-104.7"/>
<text text-anchor="start" x="714.4053" y="-110.8" font-family="Helvetica,sans-Serif" font-size="11.00" fill="#000000">2 &gt;</text>
</a>
</g>
</g>
<!-- DMS_DOCUMENT&#45;&gt;DMS_OFFENDER -->
<g id="edge3" class="edge">
<title>DMS_DOCUMENT:w&#45;&gt;DMS_OFFENDER:e</title>
<path fill="none" stroke="#000000" d="M768.5206,-112.3932C739.9412,-131.6534 781.1084,-219.7 733,-219.7"/>
<polygon fill="#000000" stroke="#000000" points="774.7654,-110.7434 783.4195,-112.1806 778.6327,-109.7217 782.5,-108.7 782.5,-108.7 782.5,-108.7 778.6327,-109.7217 781.5805,-105.2194 774.7654,-110.7434 774.7654,-110.7434"/>
<ellipse fill="none" stroke="#000000" cx="771.6715" cy="-111.5608" rx="3.2" ry="3.2"/>
</g>
<!-- DMS_OFFENDER&#45;&gt;DMS_BATCH -->
<g id="edge5" class="edge">
<title>DMS_OFFENDER:w&#45;&gt;DMS_BATCH:e</title>
<path fill="none" stroke="#000000" d="M532.8396,-201.6839C521.2405,-209.1944 517.1957,-224.7 498.5,-224.7"/>
<polygon fill="#000000" stroke="#000000" points="539.299,-199.8667 547.975,-201.1655 543.1495,-198.7833 547,-197.7 547,-197.7 547,-197.7 543.1495,-198.7833 546.025,-194.2345 539.299,-199.8667 539.299,-199.8667"/>
<ellipse fill="none" stroke="#000000" cx="536.2186" cy="-200.7333" rx="3.2" ry="3.2"/>
</g>
<!-- DMS_OFFENDER&#45;&gt;DMS_STATUS -->
<g id="edge6" class="edge">
<title>DMS_OFFENDER:w&#45;&gt;DMS_STATUS:e</title>
<path fill="none" stroke="#000000" d="M533.0323,-149.0563C524.1262,-141.5807 521.8811,-127.1639 506,-121.7 418.1643,-91.4801 387.3042,-99.9402 297,-121.7 276.1302,-126.7288 275.4672,-143.7 254,-143.7"/>
<polygon fill="#000000" stroke="#000000" points="539.4085,-151.1761 545.8642,-157.1162 543.2043,-152.438 547,-153.7 547,-153.7 547,-153.7 543.2043,-152.438 548.1358,-150.2838 539.4085,-151.1761 539.4085,-151.1761"/>
<ellipse fill="none" stroke="#000000" cx="536.372" cy="-150.1665" rx="3.2" ry="3.2"/>
</g>
<!-- DMS_VALIDATION -->
<g id="node5" class="node">
<title>DMS_VALIDATION</title>
<g id="a_node5"><a xlink:href="../../tables/DMS_VALIDATION.html" xlink:title="DMS_VALIDATION" target="_top">
<polygon fill="#ffffff" stroke="transparent" points="809.5,-192.2 809.5,-253.2 947.5,-253.2 947.5,-192.2 809.5,-192.2"/>
<polygon fill="#f5f5f5" stroke="transparent" points="809.5,-229.7 809.5,-252.7 947.5,-252.7 947.5,-229.7 809.5,-229.7"/>
<polygon fill="none" stroke="#000000" points="809.5,-229.7 809.5,-252.7 947.5,-252.7 947.5,-229.7 809.5,-229.7"/>
<text text-anchor="start" x="814.0257" y="-238.8" font-family="Helvetica,sans-Serif" font-weight="bold" font-size="11.00" fill="#000000">DMS_VALIDATION</text>
<text text-anchor="start" x="913.0219" y="-237.8" font-family="Helvetica,sans-Serif" font-size="11.00" fill="#000000">[table]</text>
<polygon fill="none" stroke="#000000" points="809.5,-210.7 809.5,-229.7 947.5,-229.7 947.5,-210.7 809.5,-210.7"/>
<text text-anchor="start" x="812.5" y="-216.8" font-family="Helvetica,sans-Serif" font-size="11.00" fill="#000000">...</text>
<polygon fill="#ffffff" stroke="transparent" points="809.5,-191.7 809.5,-210.7 863.5,-210.7 863.5,-191.7 809.5,-191.7"/>
<polygon fill="none" stroke="#000000" points="809.5,-191.7 809.5,-210.7 863.5,-210.7 863.5,-191.7 809.5,-191.7"/>
<text text-anchor="start" x="812.5" y="-197.8" font-family="Helvetica,sans-Serif" font-size="11.00" fill="#000000">&lt; 1</text>
<polygon fill="#ffffff" stroke="transparent" points="863.5,-191.7 863.5,-210.7 918.5,-210.7 918.5,-191.7 863.5,-191.7"/>
<polygon fill="none" stroke="#000000" points="863.5,-191.7 863.5,-210.7 918.5,-210.7 918.5,-191.7 863.5,-191.7"/>
<text text-anchor="start" x="883.1105" y="-197.8" font-family="Helvetica,sans-Serif" font-size="11.00" fill="#000000">0 rows</text>
<polygon fill="#ffffff" stroke="transparent" points="918.5,-191.7 918.5,-210.7 947.5,-210.7 947.5,-191.7 918.5,-191.7"/>
<polygon fill="none" stroke="#000000" points="918.5,-191.7 918.5,-210.7 947.5,-210.7 947.5,-191.7 918.5,-191.7"/>
<text text-anchor="start" x="938.3862" y="-197.8" font-family="Helvetica,sans-Serif" font-size="11.00" fill="#000000"> &#160;</text>
</a>
</g>
</g>
<!-- DMS_VALIDATION&#45;&gt;DMS_OFFENDER -->
<g id="edge7" class="edge">
<title>DMS_VALIDATION:w&#45;&gt;DMS_OFFENDER:e</title>
<path fill="none" stroke="#000000" d="M794.9168,-219.7C772.1233,-219.7 761.5547,-219.7 733,-219.7"/>
<polygon fill="#000000" stroke="#000000" points="801.5,-219.7001 809.5,-223.3 805.5,-219.7 809.5,-219.7 809.5,-219.7 809.5,-219.7 805.5,-219.7 809.5,-216.1 801.5,-219.7001 801.5,-219.7001"/>
<ellipse fill="none" stroke="#000000" cx="798.3" cy="-219.7001" rx="3.2" ry="3.2"/>
</g>
</g>
</svg>
