<?xml version="1.0" encoding="UTF-8" standalone="no"?>
<!DOCTYPE svg PUBLIC "-//W3C//DTD SVG 1.1//EN"
 "http://www.w3.org/Graphics/SVG/1.1/DTD/svg11.dtd">
<!-- Generated by graphviz version 2.40.1 (20161225.0304)
 -->
<!-- Title: oneDegreeRelationshipsDiagramImplied Pages: 1 -->
<svg width="484pt" height="359pt"
 viewBox="0.00 0.00 484.00 358.70" xmlns="http://www.w3.org/2000/svg" xmlns:xlink="http://www.w3.org/1999/xlink">
<g id="graph0" class="graph" transform="scale(1 1) rotate(0) translate(4 354.7)">
<title>oneDegreeRelationshipsDiagramImplied</title>
<polygon fill="#ffffff" stroke="transparent" points="-4,4 -4,-354.7 480,-354.7 480,4 -4,4"/>
<text text-anchor="middle" x="72.4936" y="-7.3" font-family="Helvetica,sans-Serif" font-size="11.00" fill="#000000">Generated by SchemaSpy</text>
<!-- DMS_MESSAGE_LOG -->
<g id="node1" class="node">
<title>DMS_MESSAGE_LOG</title>
<g id="a_node1"><a xlink:href="../../tables/DMS_MESSAGE_LOG.html" xlink:title="DMS_MESSAGE_LOG" target="_top">
<polygon fill="#ffffff" stroke="transparent" points="295,-241.7 295,-346.7 468,-346.7 468,-241.7 295,-241.7"/>
<polygon fill="#f5f5f5" stroke="transparent" points="295.5,-323.2 295.5,-346.2 468.5,-346.2 468.5,-323.2 295.5,-323.2"/>
<polygon fill="none" stroke="#000000" points="295.5,-323.2 295.5,-346.2 468.5,-346.2 468.5,-323.2 295.5,-323.2"/>
<text text-anchor="start" x="300.5" y="-332.3" font-family="Helvetica,sans-Serif" font-weight="bold" font-size="11.00" fill="#000000">DMS_MESSAGE_LOG</text>
<text text-anchor="start" x="433.5437" y="-331.3" font-family="Helvetica,sans-Serif" font-size="11.00" fill="#000000">[table]</text>
<polygon fill="none" stroke="#000000" points="295.5,-301.2 295.5,-323.2 468.5,-323.2 468.5,-301.2 295.5,-301.2"/>
<image xlink:href="../../images/primaryKeys.png" width="11px" height="12px" preserveAspectRatio="xMinYMin meet" x="300.5" y="-318.2"/>
<text text-anchor="start" x="315.5" y="-308.3" font-family="Helvetica,sans-Serif" font-size="11.00" fill="#000000">DMS_MESSAGE_LOG_ID</text>
<polygon fill="none" stroke="#000000" points="295.5,-279.2 295.5,-301.2 468.5,-301.2 468.5,-279.2 295.5,-279.2"/>
<image xlink:href="../../images/foreignKeys.png" width="11px" height="12px" preserveAspectRatio="xMinYMin meet" x="300.5" y="-296.2"/>
<text text-anchor="start" x="315.5" y="-286.3" font-family="Helvetica,sans-Serif" font-size="11.00" fill="#000000">DMS_ERROR_LOG_ID</text>
<polygon fill="none" stroke="#000000" points="295.5,-260.2 295.5,-279.2 468.5,-279.2 468.5,-260.2 295.5,-260.2"/>
<text text-anchor="start" x="298.5" y="-266.3" font-family="Helvetica,sans-Serif" font-size="11.00" fill="#000000">...</text>
<polygon fill="#ffffff" stroke="transparent" points="295.5,-241.2 295.5,-260.2 364.5,-260.2 364.5,-241.2 295.5,-241.2"/>
<polygon fill="none" stroke="#000000" points="295.5,-241.2 295.5,-260.2 364.5,-260.2 364.5,-241.2 295.5,-241.2"/>
<text text-anchor="start" x="298.5" y="-247.3" font-family="Helvetica,sans-Serif" font-size="11.00" fill="#000000">&lt; 1</text>
<polygon fill="#ffffff" stroke="transparent" points="364.5,-241.2 364.5,-260.2 432.5,-260.2 432.5,-241.2 364.5,-241.2"/>
<polygon fill="none" stroke="#000000" points="364.5,-241.2 364.5,-260.2 432.5,-260.2 432.5,-241.2 364.5,-241.2"/>
<text text-anchor="start" x="390.9956" y="-247.3" font-family="Helvetica,sans-Serif" font-size="11.00" fill="#000000">39 rows</text>
<polygon fill="#ffffff" stroke="transparent" points="432.5,-241.2 432.5,-260.2 468.5,-260.2 468.5,-241.2 432.5,-241.2"/>
<polygon fill="none" stroke="#000000" points="432.5,-241.2 432.5,-260.2 468.5,-260.2 468.5,-241.2 432.5,-241.2"/>
<text text-anchor="start" x="459.3862" y="-247.3" font-family="Helvetica,sans-Serif" font-size="11.00" fill="#000000"> &#160;</text>
</a>
</g>
</g>
<!-- DMS_ERROR_LOG -->
<g id="node2" class="node">
<title>DMS_ERROR_LOG</title>
<g id="a_node2"><a xlink:href="../../tables/DMS_ERROR_LOG.html" xlink:title="DMS_ERROR_LOG" target="_top">
<polygon fill="#ffffff" stroke="transparent" points="8,-38.2 8,-326.2 246,-326.2 246,-38.2 8,-38.2"/>
<polygon fill="#f5f5f5" stroke="transparent" points="10,-301.2 10,-324.2 244,-324.2 244,-301.2 10,-301.2"/>
<polygon fill="none" stroke="#000000" points="10,-301.2 10,-324.2 244,-324.2 244,-301.2 10,-301.2"/>
<text text-anchor="start" x="15" y="-310.3" font-family="Helvetica,sans-Serif" font-weight="bold" font-size="11.00" fill="#000000">DMS_ERROR_LOG</text>
<text text-anchor="start" x="209.0437" y="-309.3" font-family="Helvetica,sans-Serif" font-size="11.00" fill="#000000">[table]</text>
<polygon fill="none" stroke="#000000" points="10,-279.2 10,-301.2 165,-301.2 165,-279.2 10,-279.2"/>
<image xlink:href="../../images/primaryKeys.png" width="11px" height="12px" preserveAspectRatio="xMinYMin meet" x="15" y="-296.2"/>
<text text-anchor="start" x="30" y="-286.3" font-family="Helvetica,sans-Serif" font-size="11.00" fill="#000000">DMS_ERROR_LOG_ID</text>
<polygon fill="none" stroke="#000000" points="165,-279.2 165,-301.2 244,-301.2 244,-279.2 165,-279.2"/>
<text text-anchor="start" x="168" y="-286.9" font-family="Helvetica,sans-Serif" font-size="11.00" fill="#000000">number[22]</text>
<polygon fill="none" stroke="#000000" points="10,-257.2 10,-279.2 165,-279.2 165,-257.2 10,-257.2"/>
<text text-anchor="start" x="30" y="-264.3" font-family="Helvetica,sans-Serif" font-size="11.00" fill="#000000">ERROR_CODE</text>
<polygon fill="none" stroke="#000000" points="165,-257.2 165,-279.2 244,-279.2 244,-257.2 165,-257.2"/>
<text text-anchor="start" x="168" y="-264.9" font-family="Helvetica,sans-Serif" font-size="11.00" fill="#000000">number[38]</text>
<polygon fill="none" stroke="#000000" points="10,-235.2 10,-257.2 165,-257.2 165,-235.2 10,-235.2"/>
<text text-anchor="start" x="30" y="-242.3" font-family="Helvetica,sans-Serif" font-size="11.00" fill="#000000">ERROR_MESSAGE</text>
<polygon fill="none" stroke="#000000" points="165,-235.2 165,-257.2 244,-257.2 244,-235.2 165,-235.2"/>
<text text-anchor="start" x="167.8216" y="-242.9" font-family="Helvetica,sans-Serif" font-size="11.00" fill="#000000">varchar2[4000]</text>
<polygon fill="none" stroke="#000000" points="10,-213.2 10,-235.2 165,-235.2 165,-213.2 10,-213.2"/>
<text text-anchor="start" x="30" y="-220.3" font-family="Helvetica,sans-Serif" font-size="11.00" fill="#000000">BACKTRACE</text>
<polygon fill="none" stroke="#000000" points="165,-213.2 165,-235.2 244,-235.2 244,-213.2 165,-213.2"/>
<text text-anchor="start" x="168" y="-220.9" font-family="Helvetica,sans-Serif" font-size="11.00" fill="#000000">clob[4000]</text>
<polygon fill="none" stroke="#000000" points="10,-191.2 10,-213.2 165,-213.2 165,-191.2 10,-191.2"/>
<text text-anchor="start" x="30" y="-198.3" font-family="Helvetica,sans-Serif" font-size="11.00" fill="#000000">CALLSTACK</text>
<polygon fill="none" stroke="#000000" points="165,-191.2 165,-213.2 244,-213.2 244,-191.2 165,-191.2"/>
<text text-anchor="start" x="168" y="-198.9" font-family="Helvetica,sans-Serif" font-size="11.00" fill="#000000">clob[4000]</text>
<polygon fill="none" stroke="#000000" points="10,-169.2 10,-191.2 165,-191.2 165,-169.2 10,-169.2"/>
<text text-anchor="start" x="30" y="-176.3" font-family="Helvetica,sans-Serif" font-size="11.00" fill="#000000">DATE_CREATED</text>
<polygon fill="none" stroke="#000000" points="165,-169.2 165,-191.2 244,-191.2 244,-169.2 165,-169.2"/>
<text text-anchor="start" x="168" y="-176.9" font-family="Helvetica,sans-Serif" font-size="11.00" fill="#000000">date[7]</text>
<polygon fill="none" stroke="#000000" points="10,-147.2 10,-169.2 165,-169.2 165,-147.2 10,-147.2"/>
<text text-anchor="start" x="30" y="-154.3" font-family="Helvetica,sans-Serif" font-size="11.00" fill="#000000">CREATED_BY</text>
<polygon fill="none" stroke="#000000" points="165,-147.2 165,-169.2 244,-169.2 244,-147.2 165,-147.2"/>
<text text-anchor="start" x="168" y="-154.9" font-family="Helvetica,sans-Serif" font-size="11.00" fill="#000000">varchar2[30]</text>
<polygon fill="none" stroke="#000000" points="10,-125.2 10,-147.2 165,-147.2 165,-125.2 10,-125.2"/>
<text text-anchor="start" x="30" y="-132.3" font-family="Helvetica,sans-Serif" font-size="11.00" fill="#000000">DMS_PACKAGE_NAME</text>
<polygon fill="none" stroke="#000000" points="165,-125.2 165,-147.2 244,-147.2 244,-125.2 165,-125.2"/>
<text text-anchor="start" x="168" y="-132.9" font-family="Helvetica,sans-Serif" font-size="11.00" fill="#000000">varchar2[30]</text>
<polygon fill="none" stroke="#000000" points="10,-103.2 10,-125.2 165,-125.2 165,-103.2 10,-103.2"/>
<text text-anchor="start" x="25.6439" y="-110.3" font-family="Helvetica,sans-Serif" font-size="11.00" fill="#000000">DMS_PROCEDURE_NAME</text>
<polygon fill="none" stroke="#000000" points="165,-103.2 165,-125.2 244,-125.2 244,-103.2 165,-103.2"/>
<text text-anchor="start" x="168" y="-110.9" font-family="Helvetica,sans-Serif" font-size="11.00" fill="#000000">varchar2[30]</text>
<polygon fill="none" stroke="#000000" points="10,-81.2 10,-103.2 165,-103.2 165,-81.2 10,-81.2"/>
<text text-anchor="start" x="30" y="-88.3" font-family="Helvetica,sans-Serif" font-size="11.00" fill="#000000">LABEL</text>
<polygon fill="none" stroke="#000000" points="165,-81.2 165,-103.2 244,-103.2 244,-81.2 165,-81.2"/>
<text text-anchor="start" x="168" y="-88.9" font-family="Helvetica,sans-Serif" font-size="11.00" fill="#000000">varchar2[10]</text>
<polygon fill="none" stroke="#000000" points="10,-59.2 10,-81.2 165,-81.2 165,-59.2 10,-59.2"/>
<text text-anchor="start" x="30" y="-66.3" font-family="Helvetica,sans-Serif" font-size="11.00" fill="#000000">INSTANCE_ID</text>
<polygon fill="none" stroke="#000000" points="165,-59.2 165,-81.2 244,-81.2 244,-59.2 165,-59.2"/>
<text text-anchor="start" x="168" y="-66.9" font-family="Helvetica,sans-Serif" font-size="11.00" fill="#000000">number[38]</text>
<polygon fill="#ffffff" stroke="transparent" points="10,-40.2 10,-59.2 79,-59.2 79,-40.2 10,-40.2"/>
<polygon fill="none" stroke="#000000" points="10,-40.2 10,-59.2 79,-59.2 79,-40.2 10,-40.2"/>
<text text-anchor="start" x="13" y="-46.3" font-family="Helvetica,sans-Serif" font-size="11.00" fill="#000000">&lt; 0</text>
<polygon fill="#ffffff" stroke="transparent" points="79,-40.2 79,-59.2 165,-59.2 165,-40.2 79,-40.2"/>
<polygon fill="none" stroke="#000000" points="79,-40.2 79,-59.2 165,-59.2 165,-40.2 79,-40.2"/>
<text text-anchor="start" x="129.6105" y="-46.3" font-family="Helvetica,sans-Serif" font-size="11.00" fill="#000000">0 rows</text>
<polygon fill="#ffffff" stroke="transparent" points="165,-40.2 165,-59.2 244,-59.2 244,-40.2 165,-40.2"/>
<polygon fill="none" stroke="#000000" points="165,-40.2 165,-59.2 244,-59.2 244,-40.2 165,-40.2"/>
<text text-anchor="start" x="225.4053" y="-46.3" font-family="Helvetica,sans-Serif" font-size="11.00" fill="#000000">1 &gt;</text>
<polygon fill="none" stroke="#000000" stroke-width="2" points="9,-39.2 9,-325.2 245,-325.2 245,-39.2 9,-39.2"/>
</a>
</g>
</g>
<!-- DMS_MESSAGE_LOG&#45;&gt;DMS_ERROR_LOG -->
<g id="edge1" class="edge">
<title>DMS_MESSAGE_LOG:w&#45;&gt;DMS_ERROR_LOG:e</title>
<path fill="none" stroke="#000000" stroke-dasharray="5,2" d="M281.0156,-290.2C268.6771,-290.2 261.1667,-290.2 244,-290.2"/>
<polygon fill="#000000" stroke="#000000" points="287.5,-290.2001 295.5,-293.8 291.5,-290.2 295.5,-290.2 295.5,-290.2 295.5,-290.2 291.5,-290.2 295.5,-286.6 287.5,-290.2001 287.5,-290.2001"/>
<ellipse fill="none" stroke="#000000" cx="284.3" cy="-290.2001" rx="3.2" ry="3.2"/>
</g>
</g>
</svg>
