<?xml version="1.0" encoding="UTF-8" standalone="no"?>
<!DOCTYPE svg PUBLIC "-//W3C//DTD SVG 1.1//EN"
 "http://www.w3.org/Graphics/SVG/1.1/DTD/svg11.dtd">
<!-- Generated by graphviz version 2.40.1 (20161225.0304)
 -->
<!-- Title: twoDegreesRelationshipsDiagramImplied Pages: 1 -->
<svg width="438pt" height="396pt"
 viewBox="0.00 0.00 438.00 395.70" xmlns="http://www.w3.org/2000/svg" xmlns:xlink="http://www.w3.org/1999/xlink">
<g id="graph0" class="graph" transform="scale(1 1) rotate(0) translate(4 391.7)">
<title>twoDegreesRelationshipsDiagramImplied</title>
<polygon fill="#ffffff" stroke="transparent" points="-4,4 -4,-391.7 434,-391.7 434,4 -4,4"/>
<text text-anchor="middle" x="72.4936" y="-7.3" font-family="Helvetica,sans-Serif" font-size="11.00" fill="#000000">Generated by SchemaSpy</text>
<!-- DMS_OFFENDER_COHORT -->
<g id="node1" class="node">
<title>DMS_OFFENDER_COHORT</title>
<g id="a_node1"><a xlink:href="../../tables/DMS_OFFENDER_COHORT.html" xlink:title="DMS_OFFENDER_COHORT" target="_top">
<polygon fill="#ffffff" stroke="transparent" points="199,-246.7 199,-383.7 422,-383.7 422,-246.7 199,-246.7"/>
<polygon fill="#f5f5f5" stroke="transparent" points="201.5,-358.2 201.5,-381.2 420.5,-381.2 420.5,-358.2 201.5,-358.2"/>
<polygon fill="none" stroke="#000000" points="201.5,-358.2 201.5,-381.2 420.5,-381.2 420.5,-358.2 201.5,-358.2"/>
<text text-anchor="start" x="206.5" y="-367.3" font-family="Helvetica,sans-Serif" font-weight="bold" font-size="11.00" fill="#000000">DMS_OFFENDER_COHORT</text>
<text text-anchor="start" x="387.3895" y="-366.3" font-family="Helvetica,sans-Serif" font-size="11.00" fill="#000000">[view]</text>
<polygon fill="none" stroke="#000000" points="201.5,-336.2 201.5,-358.2 359.5,-358.2 359.5,-336.2 201.5,-336.2"/>
<image xlink:href="../../images/foreignKeys.png" width="11px" height="12px" preserveAspectRatio="xMinYMin meet" x="206.5" y="-353.2"/>
<text text-anchor="start" x="221.5" y="-343.3" font-family="Helvetica,sans-Serif" font-size="11.00" fill="#000000">OFFENDER_ID</text>
<polygon fill="none" stroke="#000000" points="359.5,-336.2 359.5,-358.2 420.5,-358.2 420.5,-336.2 359.5,-336.2"/>
<text text-anchor="start" x="362.1865" y="-343.9" font-family="Helvetica,sans-Serif" font-size="11.00" fill="#000000">number[38]</text>
<polygon fill="none" stroke="#000000" points="201.5,-314.2 201.5,-336.2 359.5,-336.2 359.5,-314.2 201.5,-314.2"/>
<text text-anchor="start" x="221.5" y="-321.3" font-family="Helvetica,sans-Serif" font-size="11.00" fill="#000000">CRN</text>
<polygon fill="none" stroke="#000000" points="359.5,-314.2 359.5,-336.2 420.5,-336.2 420.5,-314.2 359.5,-314.2"/>
<text text-anchor="start" x="362.5" y="-321.9" font-family="Helvetica,sans-Serif" font-size="11.00" fill="#000000">char[7]</text>
<polygon fill="none" stroke="#000000" points="201.5,-292.2 201.5,-314.2 359.5,-314.2 359.5,-292.2 201.5,-292.2"/>
<text text-anchor="start" x="221.5" y="-299.3" font-family="Helvetica,sans-Serif" font-size="11.00" fill="#000000">PROBATION_AREA_ID</text>
<polygon fill="none" stroke="#000000" points="359.5,-292.2 359.5,-314.2 420.5,-314.2 420.5,-292.2 359.5,-292.2"/>
<text text-anchor="start" x="362.1865" y="-299.9" font-family="Helvetica,sans-Serif" font-size="11.00" fill="#000000">number[38]</text>
<polygon fill="none" stroke="#000000" points="201.5,-270.2 201.5,-292.2 359.5,-292.2 359.5,-270.2 201.5,-270.2"/>
<text text-anchor="start" x="221.5" y="-277.3" font-family="Helvetica,sans-Serif" font-size="11.00" fill="#000000">CODE</text>
<polygon fill="none" stroke="#000000" points="359.5,-270.2 359.5,-292.2 420.5,-292.2 420.5,-270.2 359.5,-270.2"/>
<text text-anchor="start" x="362.5" y="-277.9" font-family="Helvetica,sans-Serif" font-size="11.00" fill="#000000">char[3]</text>
<polygon fill="none" stroke="#000000" points="201.5,-248.2 201.5,-270.2 359.5,-270.2 359.5,-248.2 201.5,-248.2"/>
<text text-anchor="start" x="217.413" y="-255.3" font-family="Helvetica,sans-Serif" font-size="11.00" fill="#000000">OFFENDER_ACTIVE_FLAG</text>
<polygon fill="none" stroke="#000000" points="359.5,-248.2 359.5,-270.2 420.5,-270.2 420.5,-248.2 359.5,-248.2"/>
<text text-anchor="start" x="362.5" y="-255.9" font-family="Helvetica,sans-Serif" font-size="11.00" fill="#000000">char[1]</text>
<polygon fill="none" stroke="#000000" stroke-width="2" points="200,-247.7 200,-382.7 421,-382.7 421,-247.7 200,-247.7"/>
</a>
</g>
</g>
<!-- IAPS_OFFENDER -->
<g id="node2" class="node">
<title>IAPS_OFFENDER</title>
<g id="a_node2"><a xlink:href="../../tables/IAPS_OFFENDER.html" xlink:title="IAPS_OFFENDER" target="_top">
<polygon fill="#ffffff" stroke="transparent" points="8,-102.7 8,-185.7 150,-185.7 150,-102.7 8,-102.7"/>
<polygon fill="#f5f5f5" stroke="transparent" points="8,-162.2 8,-185.2 150,-185.2 150,-162.2 8,-162.2"/>
<polygon fill="none" stroke="#000000" points="8,-162.2 8,-185.2 150,-185.2 150,-162.2 8,-162.2"/>
<text text-anchor="start" x="13" y="-171.3" font-family="Helvetica,sans-Serif" font-weight="bold" font-size="11.00" fill="#000000">IAPS_OFFENDER</text>
<text text-anchor="start" x="115.0437" y="-170.3" font-family="Helvetica,sans-Serif" font-size="11.00" fill="#000000">[table]</text>
<polygon fill="none" stroke="#000000" points="8,-140.2 8,-162.2 150,-162.2 150,-140.2 8,-140.2"/>
<image xlink:href="../../images/primaryKeys.png" width="11px" height="12px" preserveAspectRatio="xMinYMin meet" x="13" y="-157.2"/>
<text text-anchor="start" x="28" y="-147.3" font-family="Helvetica,sans-Serif" font-size="11.00" fill="#000000">OFFENDER_ID</text>
<polygon fill="none" stroke="#000000" points="8,-121.2 8,-140.2 150,-140.2 150,-121.2 8,-121.2"/>
<text text-anchor="start" x="11" y="-127.3" font-family="Helvetica,sans-Serif" font-size="11.00" fill="#000000">...</text>
<polygon fill="#ffffff" stroke="transparent" points="8,-102.2 8,-121.2 49,-121.2 49,-102.2 8,-102.2"/>
<polygon fill="none" stroke="#000000" points="8,-102.2 8,-121.2 49,-121.2 49,-102.2 8,-102.2"/>
<text text-anchor="start" x="11" y="-108.3" font-family="Helvetica,sans-Serif" font-size="11.00" fill="#000000"> &#160;</text>
<polygon fill="#ffffff" stroke="transparent" points="49,-102.2 49,-121.2 114,-121.2 114,-102.2 49,-102.2"/>
<polygon fill="none" stroke="#000000" points="49,-102.2 49,-121.2 114,-121.2 114,-102.2 49,-102.2"/>
<text text-anchor="start" x="66.3807" y="-108.3" font-family="Helvetica,sans-Serif" font-size="11.00" fill="#000000">388 rows</text>
<polygon fill="#ffffff" stroke="transparent" points="114,-102.2 114,-121.2 150,-121.2 150,-102.2 114,-102.2"/>
<polygon fill="none" stroke="#000000" points="114,-102.2 114,-121.2 150,-121.2 150,-102.2 114,-102.2"/>
<text text-anchor="start" x="131.4053" y="-108.3" font-family="Helvetica,sans-Serif" font-size="11.00" fill="#000000">4 &gt;</text>
</a>
</g>
</g>
<!-- DMS_OFFENDER_COHORT&#45;&gt;IAPS_OFFENDER -->
<g id="edge1" class="edge">
<title>DMS_OFFENDER_COHORT:w&#45;&gt;IAPS_OFFENDER:e</title>
<path fill="none" stroke="#000000" stroke-dasharray="5,2" d="M187.0684,-344.9988C126.6572,-323.4656 234.4388,-151.2 150,-151.2"/>
<polygon fill="#000000" stroke="#000000" points="193.5915,-345.9937 200.9572,-350.7588 197.5457,-346.5969 201.5,-347.2 201.5,-347.2 201.5,-347.2 197.5457,-346.5969 202.0428,-343.6412 193.5915,-345.9937 193.5915,-345.9937"/>
<ellipse fill="none" stroke="#000000" cx="190.428" cy="-345.5112" rx="3.2" ry="3.2"/>
</g>
<!-- PRECON_HISTORY -->
<g id="node3" class="node">
<title>PRECON_HISTORY</title>
<g id="a_node3"><a xlink:href="../../tables/PRECON_HISTORY.html" xlink:title="PRECON_HISTORY" target="_top">
<polygon fill="#ffffff" stroke="transparent" points="238,-164.7 238,-225.7 383,-225.7 383,-164.7 238,-164.7"/>
<polygon fill="#f5f5f5" stroke="transparent" points="238.5,-202.2 238.5,-225.2 383.5,-225.2 383.5,-202.2 238.5,-202.2"/>
<polygon fill="none" stroke="#000000" points="238.5,-202.2 238.5,-225.2 383.5,-225.2 383.5,-202.2 238.5,-202.2"/>
<text text-anchor="start" x="243.4732" y="-211.3" font-family="Helvetica,sans-Serif" font-weight="bold" font-size="11.00" fill="#000000">PRECON_HISTORY</text>
<text text-anchor="start" x="349.0219" y="-210.3" font-family="Helvetica,sans-Serif" font-size="11.00" fill="#000000">[table]</text>
<polygon fill="none" stroke="#000000" points="238.5,-183.2 238.5,-202.2 383.5,-202.2 383.5,-183.2 238.5,-183.2"/>
<text text-anchor="start" x="241.5" y="-189.3" font-family="Helvetica,sans-Serif" font-size="11.00" fill="#000000">...</text>
<polygon fill="#ffffff" stroke="transparent" points="238.5,-164.2 238.5,-183.2 290.5,-183.2 290.5,-164.2 238.5,-164.2"/>
<polygon fill="none" stroke="#000000" points="238.5,-164.2 238.5,-183.2 290.5,-183.2 290.5,-164.2 238.5,-164.2"/>
<text text-anchor="start" x="241.5" y="-170.3" font-family="Helvetica,sans-Serif" font-size="11.00" fill="#000000">&lt; 3</text>
<polygon fill="#ffffff" stroke="transparent" points="290.5,-164.2 290.5,-183.2 355.5,-183.2 355.5,-164.2 290.5,-164.2"/>
<polygon fill="none" stroke="#000000" points="290.5,-164.2 290.5,-183.2 355.5,-183.2 355.5,-164.2 290.5,-164.2"/>
<text text-anchor="start" x="307.8807" y="-170.3" font-family="Helvetica,sans-Serif" font-size="11.00" fill="#000000">267 rows</text>
<polygon fill="#ffffff" stroke="transparent" points="355.5,-164.2 355.5,-183.2 383.5,-183.2 383.5,-164.2 355.5,-164.2"/>
<polygon fill="none" stroke="#000000" points="355.5,-164.2 355.5,-183.2 383.5,-183.2 383.5,-164.2 355.5,-164.2"/>
<text text-anchor="start" x="374.3862" y="-170.3" font-family="Helvetica,sans-Serif" font-size="11.00" fill="#000000"> &#160;</text>
</a>
</g>
</g>
<!-- PRECON_HISTORY&#45;&gt;IAPS_OFFENDER -->
<g id="edge2" class="edge">
<title>PRECON_HISTORY:w&#45;&gt;IAPS_OFFENDER:e</title>
<path fill="none" stroke="#000000" stroke-dasharray="5,2" d="M224.0293,-190.4383C194.0512,-182.5906 187.9306,-151.2 150,-151.2"/>
<polygon fill="#000000" stroke="#000000" points="230.5586,-191.2331 238.0649,-195.7736 234.5293,-191.7166 238.5,-192.2 238.5,-192.2 238.5,-192.2 234.5293,-191.7166 238.9351,-188.6264 230.5586,-191.2331 230.5586,-191.2331"/>
<ellipse fill="none" stroke="#000000" cx="227.3821" cy="-190.8464" rx="3.2" ry="3.2"/>
</g>
<!-- SPG_DOCUMENT -->
<g id="node4" class="node">
<title>SPG_DOCUMENT</title>
<g id="a_node4"><a xlink:href="../../tables/SPG_DOCUMENT.html" xlink:title="SPG_DOCUMENT" target="_top">
<polygon fill="#ffffff" stroke="transparent" points="243.5,-101.2 243.5,-143.2 377.5,-143.2 377.5,-101.2 243.5,-101.2"/>
<polygon fill="#f5f5f5" stroke="transparent" points="243.5,-120.2 243.5,-143.2 377.5,-143.2 377.5,-120.2 243.5,-120.2"/>
<polygon fill="none" stroke="#000000" points="243.5,-120.2 243.5,-143.2 377.5,-143.2 377.5,-120.2 243.5,-120.2"/>
<text text-anchor="start" x="248.0591" y="-129.3" font-family="Helvetica,sans-Serif" font-weight="bold" font-size="11.00" fill="#000000">SPG_DOCUMENT</text>
<text text-anchor="start" x="344.4448" y="-128.3" font-family="Helvetica,sans-Serif" font-size="11.00" fill="#000000">[view]</text>
<polygon fill="none" stroke="#000000" points="243.5,-101.2 243.5,-120.2 377.5,-120.2 377.5,-101.2 243.5,-101.2"/>
<text text-anchor="start" x="246.5" y="-107.3" font-family="Helvetica,sans-Serif" font-size="11.00" fill="#000000">...</text>
</a>
</g>
</g>
<!-- SPG_DOCUMENT&#45;&gt;IAPS_OFFENDER -->
<g id="edge3" class="edge">
<title>SPG_DOCUMENT:w&#45;&gt;IAPS_OFFENDER:e</title>
<path fill="none" stroke="#000000" stroke-dasharray="5,2" d="M229.1667,-111.7572C196.895,-119.2463 190.0578,-151.2 150,-151.2"/>
<polygon fill="#000000" stroke="#000000" points="235.5468,-111.0641 243.8888,-113.7789 239.5234,-110.632 243.5,-110.2 243.5,-110.2 243.5,-110.2 239.5234,-110.632 243.1112,-106.6211 235.5468,-111.0641 235.5468,-111.0641"/>
<ellipse fill="none" stroke="#000000" cx="232.3655" cy="-111.4097" rx="3.2" ry="3.2"/>
</g>
<!-- V_CONTACT_ES -->
<g id="node5" class="node">
<title>V_CONTACT_ES</title>
<g id="a_node5"><a xlink:href="../../tables/V_CONTACT_ES.html" xlink:title="V_CONTACT_ES" target="_top">
<polygon fill="#ffffff" stroke="transparent" points="246,-38.2 246,-80.2 375,-80.2 375,-38.2 246,-38.2"/>
<polygon fill="#f5f5f5" stroke="transparent" points="246.5,-57.2 246.5,-80.2 375.5,-80.2 375.5,-57.2 246.5,-57.2"/>
<polygon fill="none" stroke="#000000" points="246.5,-57.2 246.5,-80.2 375.5,-80.2 375.5,-57.2 246.5,-57.2"/>
<text text-anchor="start" x="251.3036" y="-66.3" font-family="Helvetica,sans-Serif" font-weight="bold" font-size="11.00" fill="#000000">V_CONTACT_ES</text>
<text text-anchor="start" x="342.4448" y="-65.3" font-family="Helvetica,sans-Serif" font-size="11.00" fill="#000000">[view]</text>
<polygon fill="none" stroke="#000000" points="246.5,-38.2 246.5,-57.2 375.5,-57.2 375.5,-38.2 246.5,-38.2"/>
<text text-anchor="start" x="249.5" y="-44.3" font-family="Helvetica,sans-Serif" font-size="11.00" fill="#000000">...</text>
</a>
</g>
</g>
<!-- V_CONTACT_ES&#45;&gt;IAPS_OFFENDER -->
<g id="edge4" class="edge">
<title>V_CONTACT_ES:w&#45;&gt;IAPS_OFFENDER:e</title>
<path fill="none" stroke="#000000" stroke-dasharray="5,2" d="M232.0545,-49.1213C213.4898,-54.8017 208.6004,-72.3058 191,-91.2 168.9854,-114.833 182.298,-151.2 150,-151.2"/>
<polygon fill="#000000" stroke="#000000" points="238.5698,-48.2548 246.9746,-50.7686 242.5349,-47.7274 246.5,-47.2 246.5,-47.2 246.5,-47.2 242.5349,-47.7274 246.0254,-43.6314 238.5698,-48.2548 238.5698,-48.2548"/>
<ellipse fill="none" stroke="#000000" cx="235.3978" cy="-48.6767" rx="3.2" ry="3.2"/>
</g>
</g>
</svg>
