<?xml version="1.0" encoding="UTF-8" standalone="no"?>
<!DOCTYPE svg PUBLIC "-//W3C//DTD SVG 1.1//EN"
 "http://www.w3.org/Graphics/SVG/1.1/DTD/svg11.dtd">
<!-- Generated by graphviz version 2.40.1 (20161225.0304)
 -->
<!-- Title: oneDegreeRelationshipsDiagram Pages: 1 -->
<svg width="298pt" height="316pt"
 viewBox="0.00 0.00 298.00 316.20" xmlns="http://www.w3.org/2000/svg" xmlns:xlink="http://www.w3.org/1999/xlink">
<g id="graph0" class="graph" transform="scale(1 1) rotate(0) translate(4 312.2)">
<title>oneDegreeRelationshipsDiagram</title>
<polygon fill="#ffffff" stroke="transparent" points="-4,4 -4,-312.2 294,-312.2 294,4 -4,4"/>
<text text-anchor="middle" x="72.4936" y="-7.3" font-family="Helvetica,sans-Serif" font-size="11.00" fill="#000000">Generated by SchemaSpy</text>
<!-- DMS_MESSAGE_LOG -->
<g id="node1" class="node">
<title>DMS_MESSAGE_LOG</title>
<g id="a_node1"><a xlink:href="../../tables/DMS_MESSAGE_LOG.html" xlink:title="DMS_MESSAGE_LOG" target="_top">
<polygon fill="#ffffff" stroke="transparent" points="8,-38.2 8,-304.2 282,-304.2 282,-38.2 8,-38.2"/>
<polygon fill="#f5f5f5" stroke="transparent" points="10,-279.2 10,-302.2 280,-302.2 280,-279.2 10,-279.2"/>
<polygon fill="none" stroke="#000000" points="10,-279.2 10,-302.2 280,-302.2 280,-279.2 10,-279.2"/>
<text text-anchor="start" x="15" y="-288.3" font-family="Helvetica,sans-Serif" font-weight="bold" font-size="11.00" fill="#000000">DMS_MESSAGE_LOG</text>
<text text-anchor="start" x="245.0437" y="-287.3" font-family="Helvetica,sans-Serif" font-size="11.00" fill="#000000">[table]</text>
<polygon fill="none" stroke="#000000" points="10,-257.2 10,-279.2 183,-279.2 183,-257.2 10,-257.2"/>
<image xlink:href="../../images/primaryKeys.png" width="11px" height="12px" preserveAspectRatio="xMinYMin meet" x="15" y="-274.2"/>
<text text-anchor="start" x="30" y="-264.3" font-family="Helvetica,sans-Serif" font-size="11.00" fill="#000000">DMS_MESSAGE_LOG_ID</text>
<polygon fill="none" stroke="#000000" points="183,-257.2 183,-279.2 280,-279.2 280,-257.2 183,-257.2"/>
<text text-anchor="start" x="186" y="-264.9" font-family="Helvetica,sans-Serif" font-size="11.00" fill="#000000">number[22]</text>
<polygon fill="none" stroke="#000000" points="10,-235.2 10,-257.2 183,-257.2 183,-235.2 10,-235.2"/>
<text text-anchor="start" x="26.3845" y="-242.3" font-family="Helvetica,sans-Serif" font-size="11.00" fill="#000000">DMS_MESSAGE_TIMESTAMP</text>
<polygon fill="none" stroke="#000000" points="183,-235.2 183,-257.2 280,-257.2 280,-235.2 183,-235.2"/>
<text text-anchor="start" x="185.6614" y="-242.9" font-family="Helvetica,sans-Serif" font-size="11.00" fill="#000000">timestamp(6)[11,6]</text>
<polygon fill="none" stroke="#000000" points="10,-213.2 10,-235.2 183,-235.2 183,-213.2 10,-213.2"/>
<text text-anchor="start" x="30" y="-220.3" font-family="Helvetica,sans-Serif" font-size="11.00" fill="#000000">DMS_MESSAGE_TYPE</text>
<polygon fill="none" stroke="#000000" points="183,-213.2 183,-235.2 280,-235.2 280,-213.2 183,-213.2"/>
<text text-anchor="start" x="186" y="-220.9" font-family="Helvetica,sans-Serif" font-size="11.00" fill="#000000">varchar2[30]</text>
<polygon fill="none" stroke="#000000" points="10,-191.2 10,-213.2 183,-213.2 183,-191.2 10,-191.2"/>
<text text-anchor="start" x="30" y="-198.3" font-family="Helvetica,sans-Serif" font-size="11.00" fill="#000000">DMS_COMPONENT_CODE</text>
<polygon fill="none" stroke="#000000" points="183,-191.2 183,-213.2 280,-213.2 280,-191.2 183,-191.2"/>
<text text-anchor="start" x="186" y="-198.9" font-family="Helvetica,sans-Serif" font-size="11.00" fill="#000000">varchar2[30]</text>
<polygon fill="none" stroke="#000000" points="10,-169.2 10,-191.2 183,-191.2 183,-169.2 10,-169.2"/>
<text text-anchor="start" x="30" y="-176.3" font-family="Helvetica,sans-Serif" font-size="11.00" fill="#000000">DMS_PACKAGE_NAME</text>
<polygon fill="none" stroke="#000000" points="183,-169.2 183,-191.2 280,-191.2 280,-169.2 183,-169.2"/>
<text text-anchor="start" x="186" y="-176.9" font-family="Helvetica,sans-Serif" font-size="11.00" fill="#000000">varchar2[30]</text>
<polygon fill="none" stroke="#000000" points="10,-147.2 10,-169.2 183,-169.2 183,-147.2 10,-147.2"/>
<text text-anchor="start" x="30" y="-154.3" font-family="Helvetica,sans-Serif" font-size="11.00" fill="#000000">DMS_PROCEDURE_NAME</text>
<polygon fill="none" stroke="#000000" points="183,-147.2 183,-169.2 280,-169.2 280,-147.2 183,-147.2"/>
<text text-anchor="start" x="186" y="-154.9" font-family="Helvetica,sans-Serif" font-size="11.00" fill="#000000">varchar2[30]</text>
<polygon fill="none" stroke="#000000" points="10,-125.2 10,-147.2 183,-147.2 183,-125.2 10,-125.2"/>
<text text-anchor="start" x="30" y="-132.3" font-family="Helvetica,sans-Serif" font-size="11.00" fill="#000000">DMS_PROCEDURE_LABEL</text>
<polygon fill="none" stroke="#000000" points="183,-125.2 183,-147.2 280,-147.2 280,-125.2 183,-125.2"/>
<text text-anchor="start" x="186" y="-132.9" font-family="Helvetica,sans-Serif" font-size="11.00" fill="#000000">varchar2[10]</text>
<polygon fill="none" stroke="#000000" points="10,-103.2 10,-125.2 183,-125.2 183,-103.2 10,-103.2"/>
<text text-anchor="start" x="30" y="-110.3" font-family="Helvetica,sans-Serif" font-size="11.00" fill="#000000">MESSAGE_TEXT</text>
<polygon fill="none" stroke="#000000" points="183,-103.2 183,-125.2 280,-125.2 280,-103.2 183,-103.2"/>
<text text-anchor="start" x="186" y="-110.9" font-family="Helvetica,sans-Serif" font-size="11.00" fill="#000000">clob[4000]</text>
<polygon fill="none" stroke="#000000" points="10,-81.2 10,-103.2 183,-103.2 183,-81.2 10,-81.2"/>
<image xlink:href="../../images/foreignKeys.png" width="11px" height="12px" preserveAspectRatio="xMinYMin meet" x="15" y="-98.2"/>
<text text-anchor="start" x="30" y="-88.3" font-family="Helvetica,sans-Serif" font-size="11.00" fill="#000000">DMS_ERROR_LOG_ID</text>
<polygon fill="none" stroke="#000000" points="183,-81.2 183,-103.2 280,-103.2 280,-81.2 183,-81.2"/>
<text text-anchor="start" x="186" y="-88.9" font-family="Helvetica,sans-Serif" font-size="11.00" fill="#000000">number[22]</text>
<polygon fill="none" stroke="#000000" points="10,-59.2 10,-81.2 183,-81.2 183,-59.2 10,-59.2"/>
<text text-anchor="start" x="30" y="-66.3" font-family="Helvetica,sans-Serif" font-size="11.00" fill="#000000">INSTANCE_ID</text>
<polygon fill="none" stroke="#000000" points="183,-59.2 183,-81.2 280,-81.2 280,-59.2 183,-59.2"/>
<text text-anchor="start" x="186" y="-66.9" font-family="Helvetica,sans-Serif" font-size="11.00" fill="#000000">number[22]</text>
<polygon fill="#ffffff" stroke="transparent" points="10,-40.2 10,-59.2 85,-59.2 85,-40.2 10,-40.2"/>
<polygon fill="none" stroke="#000000" points="10,-40.2 10,-59.2 85,-59.2 85,-40.2 10,-40.2"/>
<text text-anchor="start" x="13" y="-46.3" font-family="Helvetica,sans-Serif" font-size="11.00" fill="#000000">&lt; 0</text>
<polygon fill="#ffffff" stroke="transparent" points="85,-40.2 85,-59.2 183,-59.2 183,-40.2 85,-40.2"/>
<polygon fill="none" stroke="#000000" points="85,-40.2 85,-59.2 183,-59.2 183,-40.2 85,-40.2"/>
<text text-anchor="start" x="141.4956" y="-46.3" font-family="Helvetica,sans-Serif" font-size="11.00" fill="#000000">39 rows</text>
<polygon fill="#ffffff" stroke="transparent" points="183,-40.2 183,-59.2 280,-59.2 280,-40.2 183,-40.2"/>
<polygon fill="none" stroke="#000000" points="183,-40.2 183,-59.2 280,-59.2 280,-40.2 183,-40.2"/>
<text text-anchor="start" x="261.4053" y="-46.3" font-family="Helvetica,sans-Serif" font-size="11.00" fill="#000000">0 &gt;</text>
<polygon fill="none" stroke="#000000" stroke-width="2" points="9,-39.2 9,-303.2 281,-303.2 281,-39.2 9,-39.2"/>
</a>
</g>
</g>
</g>
</svg>
