<?xml version="1.0" encoding="UTF-8" standalone="no"?>
<!DOCTYPE svg PUBLIC "-//W3C//DTD SVG 1.1//EN"
 "http://www.w3.org/Graphics/SVG/1.1/DTD/svg11.dtd">
<!-- Generated by graphviz version 2.40.1 (20161225.0304)
 -->
<!-- Title: oneDegreeRelationshipsDiagram Pages: 1 -->
<svg width="991pt" height="227pt"
 viewBox="0.00 0.00 991.00 226.88" xmlns="http://www.w3.org/2000/svg" xmlns:xlink="http://www.w3.org/1999/xlink">
<g id="graph0" class="graph" transform="scale(1 1) rotate(0) translate(4 222.883)">
<title>oneDegreeRelationshipsDiagram</title>
<polygon fill="#ffffff" stroke="transparent" points="-4,4 -4,-222.883 987,-222.883 987,4 -4,4"/>
<text text-anchor="middle" x="72.4936" y="-7.3" font-family="Helvetica,sans-Serif" font-size="11.00" fill="#000000">Generated by SchemaSpy</text>
<!-- DMS_BATCH -->
<g id="node1" class="node">
<title>DMS_BATCH</title>
<g id="a_node1"><a xlink:href="../../tables/DMS_BATCH.html" xlink:title="DMS_BATCH" target="_top">
<polygon fill="#ffffff" stroke="transparent" points="305,-87.883 305,-214.883 498,-214.883 498,-87.883 305,-87.883"/>
<polygon fill="#f5f5f5" stroke="transparent" points="305.5,-191.383 305.5,-214.383 498.5,-214.383 498.5,-191.383 305.5,-191.383"/>
<polygon fill="none" stroke="#000000" points="305.5,-191.383 305.5,-214.383 498.5,-214.383 498.5,-191.383 305.5,-191.383"/>
<text text-anchor="start" x="310.5" y="-200.483" font-family="Helvetica,sans-Serif" font-weight="bold" font-size="11.00" fill="#000000">DMS_BATCH</text>
<text text-anchor="start" x="463.5437" y="-199.483" font-family="Helvetica,sans-Serif" font-size="11.00" fill="#000000">[table]</text>
<polygon fill="none" stroke="#000000" points="305.5,-169.383 305.5,-191.383 498.5,-191.383 498.5,-169.383 305.5,-169.383"/>
<image xlink:href="../../images/primaryKeys.png" width="11px" height="12px" preserveAspectRatio="xMinYMin meet" x="310.5" y="-186.383"/>
<text text-anchor="start" x="325.5" y="-176.483" font-family="Helvetica,sans-Serif" font-size="11.00" fill="#000000">DMS_BATCH_ID</text>
<polygon fill="none" stroke="#000000" points="305.5,-147.383 305.5,-169.383 498.5,-169.383 498.5,-147.383 305.5,-147.383"/>
<image xlink:href="../../images/primaryKeys.png" width="11px" height="12px" preserveAspectRatio="xMinYMin meet" x="310.5" y="-164.383"/>
<text text-anchor="start" x="325.5" y="-154.483" font-family="Helvetica,sans-Serif" font-size="11.00" fill="#000000">FOLDER_CREATE_STATUS_ID</text>
<polygon fill="none" stroke="#000000" points="305.5,-125.383 305.5,-147.383 498.5,-147.383 498.5,-125.383 305.5,-125.383"/>
<image xlink:href="../../images/primaryKeys.png" width="11px" height="12px" preserveAspectRatio="xMinYMin meet" x="310.5" y="-142.383"/>
<text text-anchor="start" x="319.0608" y="-132.483" font-family="Helvetica,sans-Serif" font-size="11.00" fill="#000000">DOCUMENT_CREATE_STATUS_ID</text>
<polygon fill="none" stroke="#000000" points="305.5,-106.383 305.5,-125.383 498.5,-125.383 498.5,-106.383 305.5,-106.383"/>
<text text-anchor="start" x="308.5" y="-112.483" font-family="Helvetica,sans-Serif" font-size="11.00" fill="#000000">...</text>
<polygon fill="#ffffff" stroke="transparent" points="305.5,-87.383 305.5,-106.383 382.5,-106.383 382.5,-87.383 305.5,-87.383"/>
<polygon fill="none" stroke="#000000" points="305.5,-87.383 305.5,-106.383 382.5,-106.383 382.5,-87.383 305.5,-87.383"/>
<text text-anchor="start" x="308.5" y="-93.483" font-family="Helvetica,sans-Serif" font-size="11.00" fill="#000000">&lt; 2</text>
<polygon fill="#ffffff" stroke="transparent" points="382.5,-87.383 382.5,-106.383 448.5,-106.383 448.5,-87.383 382.5,-87.383"/>
<polygon fill="none" stroke="#000000" points="382.5,-87.383 382.5,-106.383 448.5,-106.383 448.5,-87.383 382.5,-87.383"/>
<text text-anchor="start" x="413.1105" y="-93.483" font-family="Helvetica,sans-Serif" font-size="11.00" fill="#000000">0 rows</text>
<polygon fill="#ffffff" stroke="transparent" points="448.5,-87.383 448.5,-106.383 498.5,-106.383 498.5,-87.383 448.5,-87.383"/>
<polygon fill="none" stroke="#000000" points="448.5,-87.383 448.5,-106.383 498.5,-106.383 498.5,-87.383 448.5,-87.383"/>
<text text-anchor="start" x="479.9053" y="-93.483" font-family="Helvetica,sans-Serif" font-size="11.00" fill="#000000">1 &gt;</text>
</a>
</g>
</g>
<!-- DMS_STATUS -->
<g id="node2" class="node">
<title>DMS_STATUS</title>
<g id="a_node2"><a xlink:href="../../tables/DMS_STATUS.html" xlink:title="DMS_STATUS" target="_top">
<polygon fill="#ffffff" stroke="transparent" points="8,-45.383 8,-135.383 256,-135.383 256,-45.383 8,-45.383"/>
<polygon fill="#f5f5f5" stroke="transparent" points="10,-110.383 10,-133.383 254,-133.383 254,-110.383 10,-110.383"/>
<polygon fill="none" stroke="#000000" points="10,-110.383 10,-133.383 254,-133.383 254,-110.383 10,-110.383"/>
<text text-anchor="start" x="15" y="-119.483" font-family="Helvetica,sans-Serif" font-weight="bold" font-size="11.00" fill="#000000">DMS_STATUS</text>
<text text-anchor="start" x="219.0437" y="-118.483" font-family="Helvetica,sans-Serif" font-size="11.00" fill="#000000">[table]</text>
<polygon fill="none" stroke="#000000" points="10,-88.383 10,-110.383 181,-110.383 181,-88.383 10,-88.383"/>
<image xlink:href="../../images/primaryKeys.png" width="11px" height="12px" preserveAspectRatio="xMinYMin meet" x="15" y="-105.383"/>
<text text-anchor="start" x="30" y="-95.483" font-family="Helvetica,sans-Serif" font-size="11.00" fill="#000000">DMS_STATUS_ID</text>
<polygon fill="none" stroke="#000000" points="181,-88.383 181,-110.383 254,-110.383 254,-88.383 181,-88.383"/>
<text text-anchor="start" x="184" y="-96.083" font-family="Helvetica,sans-Serif" font-size="11.00" fill="#000000">number[22]</text>
<polygon fill="none" stroke="#000000" points="10,-66.383 10,-88.383 181,-88.383 181,-66.383 10,-66.383"/>
<text text-anchor="start" x="25.3906" y="-73.483" font-family="Helvetica,sans-Serif" font-size="11.00" fill="#000000">DMS_STATUS_DESCRIPTION</text>
<polygon fill="none" stroke="#000000" points="181,-66.383 181,-88.383 254,-88.383 254,-66.383 181,-66.383"/>
<text text-anchor="start" x="183.8791" y="-74.083" font-family="Helvetica,sans-Serif" font-size="11.00" fill="#000000">varchar2[200]</text>
<polygon fill="#ffffff" stroke="transparent" points="10,-47.383 10,-66.383 87,-66.383 87,-47.383 10,-47.383"/>
<polygon fill="none" stroke="#000000" points="10,-47.383 10,-66.383 87,-66.383 87,-47.383 10,-47.383"/>
<text text-anchor="start" x="13" y="-53.483" font-family="Helvetica,sans-Serif" font-size="11.00" fill="#000000">&lt; 0</text>
<polygon fill="#ffffff" stroke="transparent" points="87,-47.383 87,-66.383 181,-66.383 181,-47.383 87,-47.383"/>
<polygon fill="none" stroke="#000000" points="87,-47.383 87,-66.383 181,-66.383 181,-47.383 87,-47.383"/>
<text text-anchor="start" x="145.6105" y="-53.483" font-family="Helvetica,sans-Serif" font-size="11.00" fill="#000000">7 rows</text>
<polygon fill="#ffffff" stroke="transparent" points="181,-47.383 181,-66.383 254,-66.383 254,-47.383 181,-47.383"/>
<polygon fill="none" stroke="#000000" points="181,-47.383 181,-66.383 254,-66.383 254,-47.383 181,-47.383"/>
<text text-anchor="start" x="235.4053" y="-53.483" font-family="Helvetica,sans-Serif" font-size="11.00" fill="#000000">4 &gt;</text>
<polygon fill="none" stroke="#000000" stroke-width="2" points="9,-46.383 9,-134.383 255,-134.383 255,-46.383 9,-46.383"/>
</a>
</g>
</g>
<!-- DMS_BATCH&#45;&gt;DMS_STATUS -->
<g id="edge1" class="edge">
<title>DMS_BATCH:w&#45;&gt;DMS_STATUS:e</title>
<path fill="none" stroke="#000000" d="M291.4564,-132.1386C277.8991,-122.4199 276.2387,-99.383 254,-99.383"/>
<polygon fill="#000000" stroke="#000000" points="297.8421,-134.0685 304.4585,-139.829 301.671,-135.2257 305.5,-136.383 305.5,-136.383 305.5,-136.383 301.671,-135.2257 306.5415,-132.9369 297.8421,-134.0685 297.8421,-134.0685"/>
<ellipse fill="none" stroke="#000000" cx="294.7789" cy="-133.1427" rx="3.2" ry="3.2"/>
</g>
<!-- DMS_BATCH&#45;&gt;DMS_STATUS -->
<g id="edge2" class="edge">
<title>DMS_BATCH:w&#45;&gt;DMS_STATUS:e</title>
<path fill="none" stroke="#000000" d="M291.7053,-153.7533C275.3565,-139.8446 282.8243,-99.383 254,-99.383"/>
<polygon fill="#000000" stroke="#000000" points="297.9157,-155.8376 304.3546,-161.7959 301.7079,-157.1103 305.5,-158.383 305.5,-158.383 305.5,-158.383 301.7079,-157.1103 306.6454,-154.97 297.9157,-155.8376 297.9157,-155.8376"/>
<ellipse fill="none" stroke="#000000" cx="294.882" cy="-154.8194" rx="3.2" ry="3.2"/>
</g>
<!-- DMS_DOCUMENT -->
<g id="node3" class="node">
<title>DMS_DOCUMENT</title>
<g id="a_node3"><a xlink:href="../../tables/DMS_DOCUMENT.html" xlink:title="DMS_DOCUMENT" target="_top">
<polygon fill="#ffffff" stroke="transparent" points="782,-45.883 782,-172.883 975,-172.883 975,-45.883 782,-45.883"/>
<polygon fill="#f5f5f5" stroke="transparent" points="782.5,-149.383 782.5,-172.383 975.5,-172.383 975.5,-149.383 782.5,-149.383"/>
<polygon fill="none" stroke="#000000" points="782.5,-149.383 782.5,-172.383 975.5,-172.383 975.5,-149.383 782.5,-149.383"/>
<text text-anchor="start" x="787.5" y="-158.483" font-family="Helvetica,sans-Serif" font-weight="bold" font-size="11.00" fill="#000000">DMS_DOCUMENT</text>
<text text-anchor="start" x="940.5437" y="-157.483" font-family="Helvetica,sans-Serif" font-size="11.00" fill="#000000">[table]</text>
<polygon fill="none" stroke="#000000" points="782.5,-127.383 782.5,-149.383 975.5,-149.383 975.5,-127.383 782.5,-127.383"/>
<image xlink:href="../../images/primaryKeys.png" width="11px" height="12px" preserveAspectRatio="xMinYMin meet" x="787.5" y="-144.383"/>
<text text-anchor="start" x="802.5" y="-134.483" font-family="Helvetica,sans-Serif" font-size="11.00" fill="#000000">DMS_DOCUMENT_ID</text>
<polygon fill="none" stroke="#000000" points="782.5,-105.383 782.5,-127.383 975.5,-127.383 975.5,-105.383 782.5,-105.383"/>
<image xlink:href="../../images/primaryKeys.png" width="11px" height="12px" preserveAspectRatio="xMinYMin meet" x="787.5" y="-122.383"/>
<text text-anchor="start" x="802.5" y="-112.483" font-family="Helvetica,sans-Serif" font-size="11.00" fill="#000000">DMS_OFFENDER_ID</text>
<polygon fill="none" stroke="#000000" points="782.5,-83.383 782.5,-105.383 975.5,-105.383 975.5,-83.383 782.5,-83.383"/>
<image xlink:href="../../images/foreignKeys.png" width="11px" height="12px" preserveAspectRatio="xMinYMin meet" x="787.5" y="-100.383"/>
<text text-anchor="start" x="796.0608" y="-90.483" font-family="Helvetica,sans-Serif" font-size="11.00" fill="#000000">DOCUMENT_CREATE_STATUS_ID</text>
<polygon fill="none" stroke="#000000" points="782.5,-64.383 782.5,-83.383 975.5,-83.383 975.5,-64.383 782.5,-64.383"/>
<text text-anchor="start" x="785.5" y="-70.483" font-family="Helvetica,sans-Serif" font-size="11.00" fill="#000000">...</text>
<polygon fill="#ffffff" stroke="transparent" points="782.5,-45.383 782.5,-64.383 864.5,-64.383 864.5,-45.383 782.5,-45.383"/>
<polygon fill="none" stroke="#000000" points="782.5,-45.383 782.5,-64.383 864.5,-64.383 864.5,-45.383 782.5,-45.383"/>
<text text-anchor="start" x="785.5" y="-51.483" font-family="Helvetica,sans-Serif" font-size="11.00" fill="#000000">&lt; 2</text>
<polygon fill="#ffffff" stroke="transparent" points="864.5,-45.383 864.5,-64.383 932.5,-64.383 932.5,-45.383 864.5,-45.383"/>
<polygon fill="none" stroke="#000000" points="864.5,-45.383 864.5,-64.383 932.5,-64.383 932.5,-45.383 864.5,-45.383"/>
<text text-anchor="start" x="897.1105" y="-51.483" font-family="Helvetica,sans-Serif" font-size="11.00" fill="#000000">0 rows</text>
<polygon fill="#ffffff" stroke="transparent" points="932.5,-45.383 932.5,-64.383 975.5,-64.383 975.5,-45.383 932.5,-45.383"/>
<polygon fill="none" stroke="#000000" points="932.5,-45.383 932.5,-64.383 975.5,-64.383 975.5,-45.383 932.5,-45.383"/>
<text text-anchor="start" x="966.3862" y="-51.483" font-family="Helvetica,sans-Serif" font-size="11.00" fill="#000000"> &#160;</text>
</a>
</g>
</g>
<!-- DMS_DOCUMENT&#45;&gt;DMS_STATUS -->
<g id="edge4" class="edge">
<title>DMS_DOCUMENT:w&#45;&gt;DMS_STATUS:e</title>
<path fill="none" stroke="#000000" d="M768.7643,-89.6085C758.4272,-79.9967 759.8974,-58.5361 741,-50.383 658.5671,-14.8179 628.773,-49.4556 539,-50.383 431.4272,-51.4941 395.7149,-12.622 297,-55.383 271.9096,-66.2515 281.3433,-99.383 254,-99.383"/>
<polygon fill="#000000" stroke="#000000" points="774.9435,-91.7563 781.318,-97.7834 778.7217,-93.0696 782.5,-94.383 782.5,-94.383 782.5,-94.383 778.7217,-93.0696 783.682,-90.9825 774.9435,-91.7563 774.9435,-91.7563"/>
<ellipse fill="none" stroke="#000000" cx="771.9209" cy="-90.7057" rx="3.2" ry="3.2"/>
</g>
<!-- DMS_OFFENDER -->
<g id="node4" class="node">
<title>DMS_OFFENDER</title>
<g id="a_node4"><a xlink:href="../../tables/DMS_OFFENDER.html" xlink:title="DMS_OFFENDER" target="_top">
<polygon fill="#ffffff" stroke="transparent" points="547,-60.883 547,-209.883 733,-209.883 733,-60.883 547,-60.883"/>
<polygon fill="#f5f5f5" stroke="transparent" points="547,-186.383 547,-209.383 733,-209.383 733,-186.383 547,-186.383"/>
<polygon fill="none" stroke="#000000" points="547,-186.383 547,-209.383 733,-209.383 733,-186.383 547,-186.383"/>
<text text-anchor="start" x="552" y="-195.483" font-family="Helvetica,sans-Serif" font-weight="bold" font-size="11.00" fill="#000000">DMS_OFFENDER</text>
<text text-anchor="start" x="698.0437" y="-194.483" font-family="Helvetica,sans-Serif" font-size="11.00" fill="#000000">[table]</text>
<polygon fill="none" stroke="#000000" points="547,-164.383 547,-186.383 733,-186.383 733,-164.383 547,-164.383"/>
<image xlink:href="../../images/primaryKeys.png" width="11px" height="12px" preserveAspectRatio="xMinYMin meet" x="552" y="-181.383"/>
<text text-anchor="start" x="567" y="-171.483" font-family="Helvetica,sans-Serif" font-size="11.00" fill="#000000">DMS_OFFENDER_ID</text>
<polygon fill="none" stroke="#000000" points="547,-142.383 547,-164.383 733,-164.383 733,-142.383 547,-142.383"/>
<image xlink:href="../../images/foreignKeys.png" width="11px" height="12px" preserveAspectRatio="xMinYMin meet" x="552" y="-159.383"/>
<text text-anchor="start" x="567" y="-149.483" font-family="Helvetica,sans-Serif" font-size="11.00" fill="#000000">DMS_BATCH_ID</text>
<polygon fill="none" stroke="#000000" points="547,-120.383 547,-142.383 733,-142.383 733,-120.383 547,-120.383"/>
<image xlink:href="../../images/primaryKeys.png" width="11px" height="12px" preserveAspectRatio="xMinYMin meet" x="552" y="-137.383"/>
<text text-anchor="start" x="567" y="-127.483" font-family="Helvetica,sans-Serif" font-size="11.00" fill="#000000">OFFENDER_ID</text>
<polygon fill="none" stroke="#000000" points="547,-98.383 547,-120.383 733,-120.383 733,-98.383 547,-98.383"/>
<image xlink:href="../../images/foreignKeys.png" width="11px" height="12px" preserveAspectRatio="xMinYMin meet" x="552" y="-115.383"/>
<text text-anchor="start" x="566.5252" y="-105.483" font-family="Helvetica,sans-Serif" font-size="11.00" fill="#000000">FOLDER_CREATE_STATUS_ID</text>
<polygon fill="none" stroke="#000000" points="547,-79.383 547,-98.383 733,-98.383 733,-79.383 547,-79.383"/>
<text text-anchor="start" x="550" y="-85.483" font-family="Helvetica,sans-Serif" font-size="11.00" fill="#000000">...</text>
<polygon fill="#ffffff" stroke="transparent" points="547,-60.383 547,-79.383 621,-79.383 621,-60.383 547,-60.383"/>
<polygon fill="none" stroke="#000000" points="547,-60.383 547,-79.383 621,-79.383 621,-60.383 547,-60.383"/>
<text text-anchor="start" x="550" y="-66.483" font-family="Helvetica,sans-Serif" font-size="11.00" fill="#000000">&lt; 2</text>
<polygon fill="#ffffff" stroke="transparent" points="621,-60.383 621,-79.383 685,-79.383 685,-60.383 621,-60.383"/>
<polygon fill="none" stroke="#000000" points="621,-60.383 621,-79.383 685,-79.383 685,-60.383 621,-60.383"/>
<text text-anchor="start" x="649.6105" y="-66.483" font-family="Helvetica,sans-Serif" font-size="11.00" fill="#000000">0 rows</text>
<polygon fill="#ffffff" stroke="transparent" points="685,-60.383 685,-79.383 733,-79.383 733,-60.383 685,-60.383"/>
<polygon fill="none" stroke="#000000" points="685,-60.383 685,-79.383 733,-79.383 733,-60.383 685,-60.383"/>
<text text-anchor="start" x="714.4053" y="-66.483" font-family="Helvetica,sans-Serif" font-size="11.00" fill="#000000">2 &gt;</text>
</a>
</g>
</g>
<!-- DMS_DOCUMENT&#45;&gt;DMS_OFFENDER -->
<g id="edge3" class="edge">
<title>DMS_DOCUMENT:w&#45;&gt;DMS_OFFENDER:e</title>
<path fill="none" stroke="#000000" d="M768.5832,-121.4133C753.3669,-135.6811 761.0782,-175.383 733,-175.383"/>
<polygon fill="#000000" stroke="#000000" points="774.9764,-119.1024 783.7238,-119.7686 778.7382,-117.7427 782.5,-116.383 782.5,-116.383 782.5,-116.383 778.7382,-117.7427 781.2762,-112.9973 774.9764,-119.1024 774.9764,-119.1024"/>
<ellipse fill="none" stroke="#000000" cx="771.967" cy="-120.1902" rx="3.2" ry="3.2"/>
</g>
<!-- DMS_OFFENDER&#45;&gt;DMS_BATCH -->
<g id="edge5" class="edge">
<title>DMS_OFFENDER:w&#45;&gt;DMS_BATCH:e</title>
<path fill="none" stroke="#000000" d="M532.8396,-157.3669C521.2405,-164.8774 517.1957,-180.383 498.5,-180.383"/>
<polygon fill="#000000" stroke="#000000" points="539.299,-155.5496 547.975,-156.8484 543.1495,-154.4663 547,-153.383 547,-153.383 547,-153.383 543.1495,-154.4663 546.025,-149.9175 539.299,-155.5496 539.299,-155.5496"/>
<ellipse fill="none" stroke="#000000" cx="536.2186" cy="-156.4163" rx="3.2" ry="3.2"/>
</g>
<!-- DMS_OFFENDER&#45;&gt;DMS_STATUS -->
<g id="edge6" class="edge">
<title>DMS_OFFENDER:w&#45;&gt;DMS_STATUS:e</title>
<path fill="none" stroke="#000000" d="M533.0323,-104.7392C524.1262,-97.2636 521.8811,-82.8469 506,-77.383 418.1643,-47.1631 387.3042,-55.6232 297,-77.383 276.1302,-82.4118 275.4672,-99.383 254,-99.383"/>
<polygon fill="#000000" stroke="#000000" points="539.4085,-106.859 545.8642,-112.7991 543.2043,-108.121 547,-109.383 547,-109.383 547,-109.383 543.2043,-108.121 548.1358,-105.9668 539.4085,-106.859 539.4085,-106.859"/>
<ellipse fill="none" stroke="#000000" cx="536.372" cy="-105.8495" rx="3.2" ry="3.2"/>
</g>
</g>
</svg>
