<?xml version="1.0" encoding="UTF-8" standalone="no"?>
<!DOCTYPE svg PUBLIC "-//W3C//DTD SVG 1.1//EN"
 "http://www.w3.org/Graphics/SVG/1.1/DTD/svg11.dtd">
<!-- Generated by graphviz version 2.40.1 (20161225.0304)
 -->
<!-- Title: oneDegreeRelationshipsDiagram Pages: 1 -->
<svg width="985pt" height="541pt"
 viewBox="0.00 0.00 985.00 541.33" xmlns="http://www.w3.org/2000/svg" xmlns:xlink="http://www.w3.org/1999/xlink">
<g id="graph0" class="graph" transform="scale(1 1) rotate(0) translate(4 537.3296)">
<title>oneDegreeRelationshipsDiagram</title>
<polygon fill="#ffffff" stroke="transparent" points="-4,4 -4,-537.3296 981,-537.3296 981,4 -4,4"/>
<text text-anchor="middle" x="72.4936" y="-7.3" font-family="Helvetica,sans-Serif" font-size="11.00" fill="#000000">Generated by SchemaSpy</text>
<!-- DMS_BATCH -->
<g id="node1" class="node">
<title>DMS_BATCH</title>
<g id="a_node1"><a xlink:href="../../tables/DMS_BATCH.html" xlink:title="DMS_BATCH" target="_top">
<polygon fill="#ffffff" stroke="transparent" points="228,-358.3296 228,-485.3296 421,-485.3296 421,-358.3296 228,-358.3296"/>
<polygon fill="#f5f5f5" stroke="transparent" points="228.5,-461.8296 228.5,-484.8296 421.5,-484.8296 421.5,-461.8296 228.5,-461.8296"/>
<polygon fill="none" stroke="#000000" points="228.5,-461.8296 228.5,-484.8296 421.5,-484.8296 421.5,-461.8296 228.5,-461.8296"/>
<text text-anchor="start" x="233.5" y="-470.9296" font-family="Helvetica,sans-Serif" font-weight="bold" font-size="11.00" fill="#000000">DMS_BATCH</text>
<text text-anchor="start" x="386.5437" y="-469.9296" font-family="Helvetica,sans-Serif" font-size="11.00" fill="#000000">[table]</text>
<polygon fill="none" stroke="#000000" points="228.5,-439.8296 228.5,-461.8296 421.5,-461.8296 421.5,-439.8296 228.5,-439.8296"/>
<image xlink:href="../../images/primaryKeys.png" width="11px" height="12px" preserveAspectRatio="xMinYMin meet" x="233.5" y="-456.83"/>
<text text-anchor="start" x="248.5" y="-446.9296" font-family="Helvetica,sans-Serif" font-size="11.00" fill="#000000">DMS_BATCH_ID</text>
<polygon fill="none" stroke="#000000" points="228.5,-417.8296 228.5,-439.8296 421.5,-439.8296 421.5,-417.8296 228.5,-417.8296"/>
<image xlink:href="../../images/primaryKeys.png" width="11px" height="12px" preserveAspectRatio="xMinYMin meet" x="233.5" y="-434.83"/>
<text text-anchor="start" x="248.5" y="-424.9296" font-family="Helvetica,sans-Serif" font-size="11.00" fill="#000000">FOLDER_CREATE_STATUS_ID</text>
<polygon fill="none" stroke="#000000" points="228.5,-395.8296 228.5,-417.8296 421.5,-417.8296 421.5,-395.8296 228.5,-395.8296"/>
<image xlink:href="../../images/primaryKeys.png" width="11px" height="12px" preserveAspectRatio="xMinYMin meet" x="233.5" y="-412.83"/>
<text text-anchor="start" x="242.0608" y="-402.9296" font-family="Helvetica,sans-Serif" font-size="11.00" fill="#000000">DOCUMENT_CREATE_STATUS_ID</text>
<polygon fill="none" stroke="#000000" points="228.5,-376.8296 228.5,-395.8296 421.5,-395.8296 421.5,-376.8296 228.5,-376.8296"/>
<text text-anchor="start" x="231.5" y="-382.9296" font-family="Helvetica,sans-Serif" font-size="11.00" fill="#000000">...</text>
<polygon fill="#ffffff" stroke="transparent" points="228.5,-357.8296 228.5,-376.8296 305.5,-376.8296 305.5,-357.8296 228.5,-357.8296"/>
<polygon fill="none" stroke="#000000" points="228.5,-357.8296 228.5,-376.8296 305.5,-376.8296 305.5,-357.8296 228.5,-357.8296"/>
<text text-anchor="start" x="231.5" y="-363.9296" font-family="Helvetica,sans-Serif" font-size="11.00" fill="#000000">&lt; 2</text>
<polygon fill="#ffffff" stroke="transparent" points="305.5,-357.8296 305.5,-376.8296 371.5,-376.8296 371.5,-357.8296 305.5,-357.8296"/>
<polygon fill="none" stroke="#000000" points="305.5,-357.8296 305.5,-376.8296 371.5,-376.8296 371.5,-357.8296 305.5,-357.8296"/>
<text text-anchor="start" x="336.1105" y="-363.9296" font-family="Helvetica,sans-Serif" font-size="11.00" fill="#000000">0 rows</text>
<polygon fill="#ffffff" stroke="transparent" points="371.5,-357.8296 371.5,-376.8296 421.5,-376.8296 421.5,-357.8296 371.5,-357.8296"/>
<polygon fill="none" stroke="#000000" points="371.5,-357.8296 371.5,-376.8296 421.5,-376.8296 421.5,-357.8296 371.5,-357.8296"/>
<text text-anchor="start" x="402.9053" y="-363.9296" font-family="Helvetica,sans-Serif" font-size="11.00" fill="#000000">1 &gt;</text>
</a>
</g>
</g>
<!-- DMS_STATUS -->
<g id="node2" class="node">
<title>DMS_STATUS</title>
<g id="a_node2"><a xlink:href="../../tables/DMS_STATUS.html" xlink:title="DMS_STATUS" target="_top">
<polygon fill="#ffffff" stroke="transparent" points="8,-321.3296 8,-404.3296 179,-404.3296 179,-321.3296 8,-321.3296"/>
<polygon fill="#f5f5f5" stroke="transparent" points="8.5,-380.8296 8.5,-403.8296 179.5,-403.8296 179.5,-380.8296 8.5,-380.8296"/>
<polygon fill="none" stroke="#000000" points="8.5,-380.8296 8.5,-403.8296 179.5,-403.8296 179.5,-380.8296 8.5,-380.8296"/>
<text text-anchor="start" x="13.5" y="-389.9296" font-family="Helvetica,sans-Serif" font-weight="bold" font-size="11.00" fill="#000000">DMS_STATUS</text>
<text text-anchor="start" x="144.5437" y="-388.9296" font-family="Helvetica,sans-Serif" font-size="11.00" fill="#000000">[table]</text>
<polygon fill="none" stroke="#000000" points="8.5,-358.8296 8.5,-380.8296 179.5,-380.8296 179.5,-358.8296 8.5,-358.8296"/>
<image xlink:href="../../images/primaryKeys.png" width="11px" height="12px" preserveAspectRatio="xMinYMin meet" x="13.5" y="-375.83"/>
<text text-anchor="start" x="28.5" y="-365.9296" font-family="Helvetica,sans-Serif" font-size="11.00" fill="#000000">DMS_STATUS_ID</text>
<polygon fill="none" stroke="#000000" points="8.5,-339.8296 8.5,-358.8296 179.5,-358.8296 179.5,-339.8296 8.5,-339.8296"/>
<text text-anchor="start" x="11.5" y="-345.9296" font-family="Helvetica,sans-Serif" font-size="11.00" fill="#000000">...</text>
<polygon fill="#ffffff" stroke="transparent" points="8.5,-320.8296 8.5,-339.8296 70.5,-339.8296 70.5,-320.8296 8.5,-320.8296"/>
<polygon fill="none" stroke="#000000" points="8.5,-320.8296 8.5,-339.8296 70.5,-339.8296 70.5,-320.8296 8.5,-320.8296"/>
<text text-anchor="start" x="11.5" y="-326.9296" font-family="Helvetica,sans-Serif" font-size="11.00" fill="#000000"> &#160;</text>
<polygon fill="#ffffff" stroke="transparent" points="70.5,-320.8296 70.5,-339.8296 133.5,-339.8296 133.5,-320.8296 70.5,-320.8296"/>
<polygon fill="none" stroke="#000000" points="70.5,-320.8296 70.5,-339.8296 133.5,-339.8296 133.5,-320.8296 70.5,-320.8296"/>
<text text-anchor="start" x="98.1105" y="-326.9296" font-family="Helvetica,sans-Serif" font-size="11.00" fill="#000000">7 rows</text>
<polygon fill="#ffffff" stroke="transparent" points="133.5,-320.8296 133.5,-339.8296 179.5,-339.8296 179.5,-320.8296 133.5,-320.8296"/>
<polygon fill="none" stroke="#000000" points="133.5,-320.8296 133.5,-339.8296 179.5,-339.8296 179.5,-320.8296 133.5,-320.8296"/>
<text text-anchor="start" x="160.9053" y="-326.9296" font-family="Helvetica,sans-Serif" font-size="11.00" fill="#000000">4 &gt;</text>
</a>
</g>
</g>
<!-- DMS_BATCH&#45;&gt;DMS_STATUS -->
<g id="edge1" class="edge">
<title>DMS_BATCH:w&#45;&gt;DMS_STATUS:e</title>
<path fill="none" stroke="#000000" d="M214.6217,-402.2926C202.0786,-392.4126 200.8196,-369.8296 179.5,-369.8296"/>
<polygon fill="#000000" stroke="#000000" points="220.896,-404.3437 227.3814,-410.2514 224.698,-405.5866 228.5,-406.8296 228.5,-406.8296 228.5,-406.8296 224.698,-405.5866 229.6186,-403.4078 220.896,-404.3437 220.896,-404.3437"/>
<ellipse fill="none" stroke="#000000" cx="217.8544" cy="-403.3494" rx="3.2" ry="3.2"/>
</g>
<!-- DMS_BATCH&#45;&gt;DMS_STATUS -->
<g id="edge2" class="edge">
<title>DMS_BATCH:w&#45;&gt;DMS_STATUS:e</title>
<path fill="none" stroke="#000000" d="M214.6662,-423.7993C199.5842,-409.5314 207.4614,-369.8296 179.5,-369.8296"/>
<polygon fill="#000000" stroke="#000000" points="220.9816,-426.0957 227.2697,-432.2128 224.7408,-427.4626 228.5,-428.8296 228.5,-428.8296 228.5,-428.8296 224.7408,-427.4626 229.7303,-425.4463 220.9816,-426.0957 220.9816,-426.0957"/>
<ellipse fill="none" stroke="#000000" cx="217.9743" cy="-425.0021" rx="3.2" ry="3.2"/>
</g>
<!-- DMS_DOCUMENT -->
<g id="node3" class="node">
<title>DMS_DOCUMENT</title>
<g id="a_node3"><a xlink:href="../../tables/DMS_DOCUMENT.html" xlink:title="DMS_DOCUMENT" target="_top">
<polygon fill="#ffffff" stroke="transparent" points="776,-146.3296 776,-273.3296 969,-273.3296 969,-146.3296 776,-146.3296"/>
<polygon fill="#f5f5f5" stroke="transparent" points="776.5,-249.8296 776.5,-272.8296 969.5,-272.8296 969.5,-249.8296 776.5,-249.8296"/>
<polygon fill="none" stroke="#000000" points="776.5,-249.8296 776.5,-272.8296 969.5,-272.8296 969.5,-249.8296 776.5,-249.8296"/>
<text text-anchor="start" x="781.5" y="-258.9296" font-family="Helvetica,sans-Serif" font-weight="bold" font-size="11.00" fill="#000000">DMS_DOCUMENT</text>
<text text-anchor="start" x="934.5437" y="-257.9296" font-family="Helvetica,sans-Serif" font-size="11.00" fill="#000000">[table]</text>
<polygon fill="none" stroke="#000000" points="776.5,-227.8296 776.5,-249.8296 969.5,-249.8296 969.5,-227.8296 776.5,-227.8296"/>
<image xlink:href="../../images/primaryKeys.png" width="11px" height="12px" preserveAspectRatio="xMinYMin meet" x="781.5" y="-244.83"/>
<text text-anchor="start" x="796.5" y="-234.9296" font-family="Helvetica,sans-Serif" font-size="11.00" fill="#000000">DMS_DOCUMENT_ID</text>
<polygon fill="none" stroke="#000000" points="776.5,-205.8296 776.5,-227.8296 969.5,-227.8296 969.5,-205.8296 776.5,-205.8296"/>
<image xlink:href="../../images/primaryKeys.png" width="11px" height="12px" preserveAspectRatio="xMinYMin meet" x="781.5" y="-222.83"/>
<text text-anchor="start" x="796.5" y="-212.9296" font-family="Helvetica,sans-Serif" font-size="11.00" fill="#000000">DMS_OFFENDER_ID</text>
<polygon fill="none" stroke="#000000" points="776.5,-183.8296 776.5,-205.8296 969.5,-205.8296 969.5,-183.8296 776.5,-183.8296"/>
<image xlink:href="../../images/foreignKeys.png" width="11px" height="12px" preserveAspectRatio="xMinYMin meet" x="781.5" y="-200.83"/>
<text text-anchor="start" x="790.0608" y="-190.9296" font-family="Helvetica,sans-Serif" font-size="11.00" fill="#000000">DOCUMENT_CREATE_STATUS_ID</text>
<polygon fill="none" stroke="#000000" points="776.5,-164.8296 776.5,-183.8296 969.5,-183.8296 969.5,-164.8296 776.5,-164.8296"/>
<text text-anchor="start" x="779.5" y="-170.9296" font-family="Helvetica,sans-Serif" font-size="11.00" fill="#000000">...</text>
<polygon fill="#ffffff" stroke="transparent" points="776.5,-145.8296 776.5,-164.8296 858.5,-164.8296 858.5,-145.8296 776.5,-145.8296"/>
<polygon fill="none" stroke="#000000" points="776.5,-145.8296 776.5,-164.8296 858.5,-164.8296 858.5,-145.8296 776.5,-145.8296"/>
<text text-anchor="start" x="779.5" y="-151.9296" font-family="Helvetica,sans-Serif" font-size="11.00" fill="#000000">&lt; 2</text>
<polygon fill="#ffffff" stroke="transparent" points="858.5,-145.8296 858.5,-164.8296 926.5,-164.8296 926.5,-145.8296 858.5,-145.8296"/>
<polygon fill="none" stroke="#000000" points="858.5,-145.8296 858.5,-164.8296 926.5,-164.8296 926.5,-145.8296 858.5,-145.8296"/>
<text text-anchor="start" x="891.1105" y="-151.9296" font-family="Helvetica,sans-Serif" font-size="11.00" fill="#000000">0 rows</text>
<polygon fill="#ffffff" stroke="transparent" points="926.5,-145.8296 926.5,-164.8296 969.5,-164.8296 969.5,-145.8296 926.5,-145.8296"/>
<polygon fill="none" stroke="#000000" points="926.5,-145.8296 926.5,-164.8296 969.5,-164.8296 969.5,-145.8296 926.5,-145.8296"/>
<text text-anchor="start" x="960.3862" y="-151.9296" font-family="Helvetica,sans-Serif" font-size="11.00" fill="#000000"> &#160;</text>
</a>
</g>
</g>
<!-- DMS_DOCUMENT&#45;&gt;DMS_STATUS -->
<g id="edge4" class="edge">
<title>DMS_DOCUMENT:w&#45;&gt;DMS_STATUS:e</title>
<path fill="none" stroke="#000000" d="M762.2987,-191.9778C733.2071,-176.985 774.8703,-106.9107 735,-78.8296 635.8012,-8.9628 573.7502,-31.5679 462,-78.8296 460.703,-79.3781 180.9082,-369.8296 179.5,-369.8296"/>
<polygon fill="#000000" stroke="#000000" points="768.6566,-193.2545 775.7912,-198.3591 772.5783,-194.042 776.5,-194.8296 776.5,-194.8296 776.5,-194.8296 772.5783,-194.042 777.2088,-191.3 768.6566,-193.2545 768.6566,-193.2545"/>
<ellipse fill="none" stroke="#000000" cx="765.5192" cy="-192.6245" rx="3.2" ry="3.2"/>
</g>
<!-- DMS_OFFENDER -->
<g id="node4" class="node">
<title>DMS_OFFENDER</title>
<g id="a_node4"><a xlink:href="../../tables/DMS_OFFENDER.html" xlink:title="DMS_OFFENDER" target="_top">
<polygon fill="#ffffff" stroke="transparent" points="470,-88.8296 470,-508.8296 727,-508.8296 727,-88.8296 470,-88.8296"/>
<polygon fill="#f5f5f5" stroke="transparent" points="472.5,-483.8296 472.5,-506.8296 725.5,-506.8296 725.5,-483.8296 472.5,-483.8296"/>
<polygon fill="none" stroke="#000000" points="472.5,-483.8296 472.5,-506.8296 725.5,-506.8296 725.5,-483.8296 472.5,-483.8296"/>
<text text-anchor="start" x="477.5" y="-492.9296" font-family="Helvetica,sans-Serif" font-weight="bold" font-size="11.00" fill="#000000">DMS_OFFENDER</text>
<text text-anchor="start" x="690.5437" y="-491.9296" font-family="Helvetica,sans-Serif" font-size="11.00" fill="#000000">[table]</text>
<polygon fill="none" stroke="#000000" points="472.5,-461.8296 472.5,-483.8296 658.5,-483.8296 658.5,-461.8296 472.5,-461.8296"/>
<image xlink:href="../../images/primaryKeys.png" width="11px" height="12px" preserveAspectRatio="xMinYMin meet" x="477.5" y="-478.83"/>
<text text-anchor="start" x="492.5" y="-468.9296" font-family="Helvetica,sans-Serif" font-size="11.00" fill="#000000">DMS_OFFENDER_ID</text>
<polygon fill="none" stroke="#000000" points="658.5,-461.8296 658.5,-483.8296 725.5,-483.8296 725.5,-461.8296 658.5,-461.8296"/>
<text text-anchor="start" x="661.5" y="-469.5296" font-family="Helvetica,sans-Serif" font-size="11.00" fill="#000000">number[22]</text>
<polygon fill="none" stroke="#000000" points="472.5,-439.8296 472.5,-461.8296 658.5,-461.8296 658.5,-439.8296 472.5,-439.8296"/>
<image xlink:href="../../images/foreignKeys.png" width="11px" height="12px" preserveAspectRatio="xMinYMin meet" x="477.5" y="-456.83"/>
<text text-anchor="start" x="492.5" y="-446.9296" font-family="Helvetica,sans-Serif" font-size="11.00" fill="#000000">DMS_BATCH_ID</text>
<polygon fill="none" stroke="#000000" points="658.5,-439.8296 658.5,-461.8296 725.5,-461.8296 725.5,-439.8296 658.5,-439.8296"/>
<text text-anchor="start" x="661.5" y="-447.5296" font-family="Helvetica,sans-Serif" font-size="11.00" fill="#000000">number[22]</text>
<polygon fill="none" stroke="#000000" points="472.5,-417.8296 472.5,-439.8296 658.5,-439.8296 658.5,-417.8296 472.5,-417.8296"/>
<image xlink:href="../../images/primaryKeys.png" width="11px" height="12px" preserveAspectRatio="xMinYMin meet" x="477.5" y="-434.83"/>
<text text-anchor="start" x="492.5" y="-424.9296" font-family="Helvetica,sans-Serif" font-size="11.00" fill="#000000">OFFENDER_ID</text>
<polygon fill="none" stroke="#000000" points="658.5,-417.8296 658.5,-439.8296 725.5,-439.8296 725.5,-417.8296 658.5,-417.8296"/>
<text text-anchor="start" x="661.5" y="-425.5296" font-family="Helvetica,sans-Serif" font-size="11.00" fill="#000000">number[22]</text>
<polygon fill="none" stroke="#000000" points="472.5,-395.8296 472.5,-417.8296 658.5,-417.8296 658.5,-395.8296 472.5,-395.8296"/>
<text text-anchor="start" x="492.5" y="-402.9296" font-family="Helvetica,sans-Serif" font-size="11.00" fill="#000000">OFFENDER_ACTIVE_FLAG</text>
<polygon fill="none" stroke="#000000" points="658.5,-395.8296 658.5,-417.8296 725.5,-417.8296 725.5,-395.8296 658.5,-395.8296"/>
<text text-anchor="start" x="661.5" y="-403.5296" font-family="Helvetica,sans-Serif" font-size="11.00" fill="#000000">varchar2[1]</text>
<polygon fill="none" stroke="#000000" points="472.5,-373.8296 472.5,-395.8296 658.5,-395.8296 658.5,-373.8296 472.5,-373.8296"/>
<text text-anchor="start" x="492.5" y="-380.9296" font-family="Helvetica,sans-Serif" font-size="11.00" fill="#000000">FOLDER_CREATED</text>
<polygon fill="none" stroke="#000000" points="658.5,-373.8296 658.5,-395.8296 725.5,-395.8296 725.5,-373.8296 658.5,-373.8296"/>
<text text-anchor="start" x="661.5" y="-381.5296" font-family="Helvetica,sans-Serif" font-size="11.00" fill="#000000">number[38]</text>
<polygon fill="none" stroke="#000000" points="472.5,-351.8296 472.5,-373.8296 658.5,-373.8296 658.5,-351.8296 472.5,-351.8296"/>
<text text-anchor="start" x="492.5" y="-358.9296" font-family="Helvetica,sans-Serif" font-size="11.00" fill="#000000">FOLDER_CREATE_DATETIME</text>
<polygon fill="none" stroke="#000000" points="658.5,-351.8296 658.5,-373.8296 725.5,-373.8296 725.5,-351.8296 658.5,-351.8296"/>
<text text-anchor="start" x="661.5" y="-359.5296" font-family="Helvetica,sans-Serif" font-size="11.00" fill="#000000">date[7]</text>
<polygon fill="none" stroke="#000000" points="472.5,-329.8296 472.5,-351.8296 658.5,-351.8296 658.5,-329.8296 472.5,-329.8296"/>
<image xlink:href="../../images/foreignKeys.png" width="11px" height="12px" preserveAspectRatio="xMinYMin meet" x="477.5" y="-346.83"/>
<text text-anchor="start" x="492.0252" y="-336.9296" font-family="Helvetica,sans-Serif" font-size="11.00" fill="#000000">FOLDER_CREATE_STATUS_ID</text>
<polygon fill="none" stroke="#000000" points="658.5,-329.8296 658.5,-351.8296 725.5,-351.8296 725.5,-329.8296 658.5,-329.8296"/>
<text text-anchor="start" x="661.5" y="-337.5296" font-family="Helvetica,sans-Serif" font-size="11.00" fill="#000000">number[22]</text>
<polygon fill="none" stroke="#000000" points="472.5,-307.8296 472.5,-329.8296 658.5,-329.8296 658.5,-307.8296 472.5,-307.8296"/>
<text text-anchor="start" x="492.5" y="-314.9296" font-family="Helvetica,sans-Serif" font-size="11.00" fill="#000000">API_RESPONSE</text>
<polygon fill="none" stroke="#000000" points="658.5,-307.8296 658.5,-329.8296 725.5,-329.8296 725.5,-307.8296 658.5,-307.8296"/>
<text text-anchor="start" x="661.5" y="-315.5296" font-family="Helvetica,sans-Serif" font-size="11.00" fill="#000000">clob[4000]</text>
<polygon fill="none" stroke="#000000" points="472.5,-285.8296 472.5,-307.8296 658.5,-307.8296 658.5,-285.8296 472.5,-285.8296"/>
<text text-anchor="start" x="492.5" y="-292.9296" font-family="Helvetica,sans-Serif" font-size="11.00" fill="#000000">API_RETURN</text>
<polygon fill="none" stroke="#000000" points="658.5,-285.8296 658.5,-307.8296 725.5,-307.8296 725.5,-285.8296 658.5,-285.8296"/>
<text text-anchor="start" x="661.5" y="-293.5296" font-family="Helvetica,sans-Serif" font-size="11.00" fill="#000000">clob[4000]</text>
<polygon fill="none" stroke="#000000" points="472.5,-263.8296 472.5,-285.8296 658.5,-285.8296 658.5,-263.8296 472.5,-263.8296"/>
<text text-anchor="start" x="492.5" y="-270.9296" font-family="Helvetica,sans-Serif" font-size="11.00" fill="#000000">SEARCH_RETURN</text>
<polygon fill="none" stroke="#000000" points="658.5,-263.8296 658.5,-285.8296 725.5,-285.8296 725.5,-263.8296 658.5,-263.8296"/>
<text text-anchor="start" x="661.5" y="-271.5296" font-family="Helvetica,sans-Serif" font-size="11.00" fill="#000000">clob[4000]</text>
<polygon fill="none" stroke="#000000" points="472.5,-241.8296 472.5,-263.8296 658.5,-263.8296 658.5,-241.8296 472.5,-241.8296"/>
<text text-anchor="start" x="485.9257" y="-248.9296" font-family="Helvetica,sans-Serif" font-size="11.00" fill="#000000">ALFRESCO_DOCUMENT_COUNT</text>
<polygon fill="none" stroke="#000000" points="658.5,-241.8296 658.5,-263.8296 725.5,-263.8296 725.5,-241.8296 658.5,-241.8296"/>
<text text-anchor="start" x="661.5" y="-249.5296" font-family="Helvetica,sans-Serif" font-size="11.00" fill="#000000">number[38]</text>
<polygon fill="none" stroke="#000000" points="472.5,-219.8296 472.5,-241.8296 658.5,-241.8296 658.5,-219.8296 472.5,-219.8296"/>
<text text-anchor="start" x="492.5" y="-226.9296" font-family="Helvetica,sans-Serif" font-size="11.00" fill="#000000">LAST_SEARCH_DATETIME</text>
<polygon fill="none" stroke="#000000" points="658.5,-219.8296 658.5,-241.8296 725.5,-241.8296 725.5,-219.8296 658.5,-219.8296"/>
<text text-anchor="start" x="661.5" y="-227.5296" font-family="Helvetica,sans-Serif" font-size="11.00" fill="#000000">date[7]</text>
<polygon fill="none" stroke="#000000" points="472.5,-197.8296 472.5,-219.8296 658.5,-219.8296 658.5,-197.8296 472.5,-197.8296"/>
<text text-anchor="start" x="492.5" y="-204.9296" font-family="Helvetica,sans-Serif" font-size="11.00" fill="#000000">CREATED_DATETIME</text>
<polygon fill="none" stroke="#000000" points="658.5,-197.8296 658.5,-219.8296 725.5,-219.8296 725.5,-197.8296 658.5,-197.8296"/>
<text text-anchor="start" x="661.5" y="-205.5296" font-family="Helvetica,sans-Serif" font-size="11.00" fill="#000000">date[7]</text>
<polygon fill="none" stroke="#000000" points="472.5,-175.8296 472.5,-197.8296 658.5,-197.8296 658.5,-175.8296 472.5,-175.8296"/>
<text text-anchor="start" x="492.5" y="-182.9296" font-family="Helvetica,sans-Serif" font-size="11.00" fill="#000000">CREATED_USER</text>
<polygon fill="none" stroke="#000000" points="658.5,-175.8296 658.5,-197.8296 725.5,-197.8296 725.5,-175.8296 658.5,-175.8296"/>
<text text-anchor="start" x="661.4365" y="-183.5296" font-family="Helvetica,sans-Serif" font-size="11.00" fill="#000000">varchar2[30]</text>
<polygon fill="none" stroke="#000000" points="472.5,-153.8296 472.5,-175.8296 658.5,-175.8296 658.5,-153.8296 472.5,-153.8296"/>
<text text-anchor="start" x="492.5" y="-160.9296" font-family="Helvetica,sans-Serif" font-size="11.00" fill="#000000">LAST_UPDATED_DATETIME</text>
<polygon fill="none" stroke="#000000" points="658.5,-153.8296 658.5,-175.8296 725.5,-175.8296 725.5,-153.8296 658.5,-153.8296"/>
<text text-anchor="start" x="661.5" y="-161.5296" font-family="Helvetica,sans-Serif" font-size="11.00" fill="#000000">date[7]</text>
<polygon fill="none" stroke="#000000" points="472.5,-131.8296 472.5,-153.8296 658.5,-153.8296 658.5,-131.8296 472.5,-131.8296"/>
<text text-anchor="start" x="492.5" y="-138.9296" font-family="Helvetica,sans-Serif" font-size="11.00" fill="#000000">LAST_UPDATED_USER</text>
<polygon fill="none" stroke="#000000" points="658.5,-131.8296 658.5,-153.8296 725.5,-153.8296 725.5,-131.8296 658.5,-131.8296"/>
<text text-anchor="start" x="661.4365" y="-139.5296" font-family="Helvetica,sans-Serif" font-size="11.00" fill="#000000">varchar2[30]</text>
<polygon fill="none" stroke="#000000" points="472.5,-109.8296 472.5,-131.8296 658.5,-131.8296 658.5,-109.8296 472.5,-109.8296"/>
<text text-anchor="start" x="492.5" y="-116.9296" font-family="Helvetica,sans-Serif" font-size="11.00" fill="#000000">ROW_VERSION</text>
<polygon fill="none" stroke="#000000" points="658.5,-109.8296 658.5,-131.8296 725.5,-131.8296 725.5,-109.8296 658.5,-109.8296"/>
<text text-anchor="start" x="661.5" y="-117.5296" font-family="Helvetica,sans-Serif" font-size="11.00" fill="#000000">number[38]</text>
<polygon fill="#ffffff" stroke="transparent" points="472.5,-90.8296 472.5,-109.8296 556.5,-109.8296 556.5,-90.8296 472.5,-90.8296"/>
<polygon fill="none" stroke="#000000" points="472.5,-90.8296 472.5,-109.8296 556.5,-109.8296 556.5,-90.8296 472.5,-90.8296"/>
<text text-anchor="start" x="475.5" y="-96.9296" font-family="Helvetica,sans-Serif" font-size="11.00" fill="#000000">&lt; 2</text>
<polygon fill="#ffffff" stroke="transparent" points="556.5,-90.8296 556.5,-109.8296 658.5,-109.8296 658.5,-90.8296 556.5,-90.8296"/>
<polygon fill="none" stroke="#000000" points="556.5,-90.8296 556.5,-109.8296 658.5,-109.8296 658.5,-90.8296 556.5,-90.8296"/>
<text text-anchor="start" x="623.1105" y="-96.9296" font-family="Helvetica,sans-Serif" font-size="11.00" fill="#000000">0 rows</text>
<polygon fill="#ffffff" stroke="transparent" points="658.5,-90.8296 658.5,-109.8296 725.5,-109.8296 725.5,-90.8296 658.5,-90.8296"/>
<polygon fill="none" stroke="#000000" points="658.5,-90.8296 658.5,-109.8296 725.5,-109.8296 725.5,-90.8296 658.5,-90.8296"/>
<text text-anchor="start" x="706.9053" y="-96.9296" font-family="Helvetica,sans-Serif" font-size="11.00" fill="#000000">2 &gt;</text>
<polygon fill="none" stroke="#000000" stroke-width="2" points="471,-89.8296 471,-507.8296 726,-507.8296 726,-89.8296 471,-89.8296"/>
</a>
</g>
</g>
<!-- DMS_DOCUMENT&#45;&gt;DMS_OFFENDER -->
<g id="edge3" class="edge">
<title>DMS_DOCUMENT:w&#45;&gt;DMS_OFFENDER:e</title>
<path fill="none" stroke="#000000" d="M762.0824,-218.4643C676.805,-240.2671 836.0755,-472.8296 725.5,-472.8296"/>
<polygon fill="#000000" stroke="#000000" points="768.5509,-217.7309 776.9056,-220.4066 772.5255,-217.2803 776.5,-216.8296 776.5,-216.8296 776.5,-216.8296 772.5255,-217.2803 776.0944,-213.2525 768.5509,-217.7309 768.5509,-217.7309"/>
<ellipse fill="none" stroke="#000000" cx="765.3713" cy="-218.0915" rx="3.2" ry="3.2"/>
</g>
<!-- DMS_OFFENDER&#45;&gt;DMS_BATCH -->
<g id="edge5" class="edge">
<title>DMS_OFFENDER:w&#45;&gt;DMS_BATCH:e</title>
<path fill="none" stroke="#000000" d="M457.776,-450.8296C445.7815,-450.8296 438.3229,-450.8296 421.5,-450.8296"/>
<polygon fill="#000000" stroke="#000000" points="464.5,-450.8296 472.5,-454.4296 468.5,-450.8296 472.5,-450.8296 472.5,-450.8296 472.5,-450.8296 468.5,-450.8296 472.5,-447.2296 464.5,-450.8296 464.5,-450.8296"/>
<ellipse fill="none" stroke="#000000" cx="461.3" cy="-450.8296" rx="3.2" ry="3.2"/>
</g>
<!-- DMS_OFFENDER&#45;&gt;DMS_STATUS -->
<g id="edge6" class="edge">
<title>DMS_OFFENDER:w&#45;&gt;DMS_STATUS:e</title>
<path fill="none" stroke="#000000" d="M457.8433,-340.7021C357.2213,-338.943 323.5446,-319.9888 220,-347.8296 200.2183,-353.1484 199.9843,-369.8296 179.5,-369.8296"/>
<polygon fill="#000000" stroke="#000000" points="464.5003,-340.76 472.4687,-344.4294 468.5002,-340.7948 472.5,-340.8296 472.5,-340.8296 472.5,-340.8296 468.5002,-340.7948 472.5313,-337.2297 464.5003,-340.76 464.5003,-340.76"/>
<ellipse fill="none" stroke="#000000" cx="461.3004" cy="-340.7321" rx="3.2" ry="3.2"/>
</g>
<!-- DMS_VALIDATION -->
<g id="node5" class="node">
<title>DMS_VALIDATION</title>
<g id="a_node5"><a xlink:href="../../tables/DMS_VALIDATION.html" xlink:title="DMS_VALIDATION" target="_top">
<polygon fill="#ffffff" stroke="transparent" points="792,-424.3296 792,-529.3296 953,-529.3296 953,-424.3296 792,-424.3296"/>
<polygon fill="#f5f5f5" stroke="transparent" points="792.5,-505.8296 792.5,-528.8296 953.5,-528.8296 953.5,-505.8296 792.5,-505.8296"/>
<polygon fill="none" stroke="#000000" points="792.5,-505.8296 792.5,-528.8296 953.5,-528.8296 953.5,-505.8296 792.5,-505.8296"/>
<text text-anchor="start" x="797.5" y="-514.9296" font-family="Helvetica,sans-Serif" font-weight="bold" font-size="11.00" fill="#000000">DMS_VALIDATION</text>
<text text-anchor="start" x="918.5437" y="-513.9296" font-family="Helvetica,sans-Serif" font-size="11.00" fill="#000000">[table]</text>
<polygon fill="none" stroke="#000000" points="792.5,-483.8296 792.5,-505.8296 953.5,-505.8296 953.5,-483.8296 792.5,-483.8296"/>
<image xlink:href="../../images/primaryKeys.png" width="11px" height="12px" preserveAspectRatio="xMinYMin meet" x="797.5" y="-500.83"/>
<text text-anchor="start" x="812.5" y="-490.9296" font-family="Helvetica,sans-Serif" font-size="11.00" fill="#000000">DMS_VALIDATION_ID</text>
<polygon fill="none" stroke="#000000" points="792.5,-461.8296 792.5,-483.8296 953.5,-483.8296 953.5,-461.8296 792.5,-461.8296"/>
<image xlink:href="../../images/primaryKeys.png" width="11px" height="12px" preserveAspectRatio="xMinYMin meet" x="797.5" y="-478.83"/>
<text text-anchor="start" x="812.5" y="-468.9296" font-family="Helvetica,sans-Serif" font-size="11.00" fill="#000000">DMS_OFFENDER_ID</text>
<polygon fill="none" stroke="#000000" points="792.5,-442.8296 792.5,-461.8296 953.5,-461.8296 953.5,-442.8296 792.5,-442.8296"/>
<text text-anchor="start" x="795.5" y="-448.9296" font-family="Helvetica,sans-Serif" font-size="11.00" fill="#000000">...</text>
<polygon fill="#ffffff" stroke="transparent" points="792.5,-423.8296 792.5,-442.8296 858.5,-442.8296 858.5,-423.8296 792.5,-423.8296"/>
<polygon fill="none" stroke="#000000" points="792.5,-423.8296 792.5,-442.8296 858.5,-442.8296 858.5,-423.8296 792.5,-423.8296"/>
<text text-anchor="start" x="795.5" y="-429.9296" font-family="Helvetica,sans-Serif" font-size="11.00" fill="#000000">&lt; 1</text>
<polygon fill="#ffffff" stroke="transparent" points="858.5,-423.8296 858.5,-442.8296 918.5,-442.8296 918.5,-423.8296 858.5,-423.8296"/>
<polygon fill="none" stroke="#000000" points="858.5,-423.8296 858.5,-442.8296 918.5,-442.8296 918.5,-423.8296 858.5,-423.8296"/>
<text text-anchor="start" x="883.1105" y="-429.9296" font-family="Helvetica,sans-Serif" font-size="11.00" fill="#000000">0 rows</text>
<polygon fill="#ffffff" stroke="transparent" points="918.5,-423.8296 918.5,-442.8296 953.5,-442.8296 953.5,-423.8296 918.5,-423.8296"/>
<polygon fill="none" stroke="#000000" points="918.5,-423.8296 918.5,-442.8296 953.5,-442.8296 953.5,-423.8296 918.5,-423.8296"/>
<text text-anchor="start" x="944.3862" y="-429.9296" font-family="Helvetica,sans-Serif" font-size="11.00" fill="#000000"> &#160;</text>
</a>
</g>
</g>
<!-- DMS_VALIDATION&#45;&gt;DMS_OFFENDER -->
<g id="edge7" class="edge">
<title>DMS_VALIDATION:w&#45;&gt;DMS_OFFENDER:e</title>
<path fill="none" stroke="#000000" d="M778.0809,-472.8296C759.2359,-472.8296 749.8108,-472.8296 725.5,-472.8296"/>
<polygon fill="#000000" stroke="#000000" points="784.5,-472.8296 792.5,-476.4296 788.5,-472.8296 792.5,-472.8296 792.5,-472.8296 792.5,-472.8296 788.5,-472.8296 792.5,-469.2296 784.5,-472.8296 784.5,-472.8296"/>
<ellipse fill="none" stroke="#000000" cx="781.3" cy="-472.8296" rx="3.2" ry="3.2"/>
</g>
</g>
</svg>
