<?xml version="1.0" encoding="UTF-8" standalone="no"?>
<!DOCTYPE svg PUBLIC "-//W3C//DTD SVG 1.1//EN"
 "http://www.w3.org/Graphics/SVG/1.1/DTD/svg11.dtd">
<!-- Generated by graphviz version 2.40.1 (20161225.0304)
 -->
<!-- Title: oneDegreeRelationshipsDiagramImplied Pages: 1 -->
<svg width="502pt" height="316pt"
 viewBox="0.00 0.00 502.00 316.20" xmlns="http://www.w3.org/2000/svg" xmlns:xlink="http://www.w3.org/1999/xlink">
<g id="graph0" class="graph" transform="scale(1 1) rotate(0) translate(4 312.2)">
<title>oneDegreeRelationshipsDiagramImplied</title>
<polygon fill="#ffffff" stroke="transparent" points="-4,4 -4,-312.2 498,-312.2 498,4 -4,4"/>
<text text-anchor="middle" x="72.4936" y="-7.3" font-family="Helvetica,sans-Serif" font-size="11.00" fill="#000000">Generated by SchemaSpy</text>
<!-- DMS_MESSAGE_LOG -->
<g id="node1" class="node">
<title>DMS_MESSAGE_LOG</title>
<g id="a_node1"><a xlink:href="../../tables/DMS_MESSAGE_LOG.html" xlink:title="DMS_MESSAGE_LOG" target="_top">
<polygon fill="#ffffff" stroke="transparent" points="212,-38.2 212,-304.2 486,-304.2 486,-38.2 212,-38.2"/>
<polygon fill="#f5f5f5" stroke="transparent" points="214,-279.2 214,-302.2 484,-302.2 484,-279.2 214,-279.2"/>
<polygon fill="none" stroke="#000000" points="214,-279.2 214,-302.2 484,-302.2 484,-279.2 214,-279.2"/>
<text text-anchor="start" x="219" y="-288.3" font-family="Helvetica,sans-Serif" font-weight="bold" font-size="11.00" fill="#000000">DMS_MESSAGE_LOG</text>
<text text-anchor="start" x="449.0437" y="-287.3" font-family="Helvetica,sans-Serif" font-size="11.00" fill="#000000">[table]</text>
<polygon fill="none" stroke="#000000" points="214,-257.2 214,-279.2 387,-279.2 387,-257.2 214,-257.2"/>
<image xlink:href="../../images/primaryKeys.png" width="11px" height="12px" preserveAspectRatio="xMinYMin meet" x="219" y="-274.2"/>
<text text-anchor="start" x="234" y="-264.3" font-family="Helvetica,sans-Serif" font-size="11.00" fill="#000000">DMS_MESSAGE_LOG_ID</text>
<polygon fill="none" stroke="#000000" points="387,-257.2 387,-279.2 484,-279.2 484,-257.2 387,-257.2"/>
<text text-anchor="start" x="390" y="-264.9" font-family="Helvetica,sans-Serif" font-size="11.00" fill="#000000">number[22]</text>
<polygon fill="none" stroke="#000000" points="214,-235.2 214,-257.2 387,-257.2 387,-235.2 214,-235.2"/>
<text text-anchor="start" x="230.3846" y="-242.3" font-family="Helvetica,sans-Serif" font-size="11.00" fill="#000000">DMS_MESSAGE_TIMESTAMP</text>
<polygon fill="none" stroke="#000000" points="387,-235.2 387,-257.2 484,-257.2 484,-235.2 387,-235.2"/>
<text text-anchor="start" x="389.6614" y="-242.9" font-family="Helvetica,sans-Serif" font-size="11.00" fill="#000000">timestamp(6)[11,6]</text>
<polygon fill="none" stroke="#000000" points="214,-213.2 214,-235.2 387,-235.2 387,-213.2 214,-213.2"/>
<text text-anchor="start" x="234" y="-220.3" font-family="Helvetica,sans-Serif" font-size="11.00" fill="#000000">DMS_MESSAGE_TYPE</text>
<polygon fill="none" stroke="#000000" points="387,-213.2 387,-235.2 484,-235.2 484,-213.2 387,-213.2"/>
<text text-anchor="start" x="390" y="-220.9" font-family="Helvetica,sans-Serif" font-size="11.00" fill="#000000">varchar2[30]</text>
<polygon fill="none" stroke="#000000" points="214,-191.2 214,-213.2 387,-213.2 387,-191.2 214,-191.2"/>
<text text-anchor="start" x="234" y="-198.3" font-family="Helvetica,sans-Serif" font-size="11.00" fill="#000000">DMS_COMPONENT_CODE</text>
<polygon fill="none" stroke="#000000" points="387,-191.2 387,-213.2 484,-213.2 484,-191.2 387,-191.2"/>
<text text-anchor="start" x="390" y="-198.9" font-family="Helvetica,sans-Serif" font-size="11.00" fill="#000000">varchar2[30]</text>
<polygon fill="none" stroke="#000000" points="214,-169.2 214,-191.2 387,-191.2 387,-169.2 214,-169.2"/>
<text text-anchor="start" x="234" y="-176.3" font-family="Helvetica,sans-Serif" font-size="11.00" fill="#000000">DMS_PACKAGE_NAME</text>
<polygon fill="none" stroke="#000000" points="387,-169.2 387,-191.2 484,-191.2 484,-169.2 387,-169.2"/>
<text text-anchor="start" x="390" y="-176.9" font-family="Helvetica,sans-Serif" font-size="11.00" fill="#000000">varchar2[30]</text>
<polygon fill="none" stroke="#000000" points="214,-147.2 214,-169.2 387,-169.2 387,-147.2 214,-147.2"/>
<text text-anchor="start" x="234" y="-154.3" font-family="Helvetica,sans-Serif" font-size="11.00" fill="#000000">DMS_PROCEDURE_NAME</text>
<polygon fill="none" stroke="#000000" points="387,-147.2 387,-169.2 484,-169.2 484,-147.2 387,-147.2"/>
<text text-anchor="start" x="390" y="-154.9" font-family="Helvetica,sans-Serif" font-size="11.00" fill="#000000">varchar2[30]</text>
<polygon fill="none" stroke="#000000" points="214,-125.2 214,-147.2 387,-147.2 387,-125.2 214,-125.2"/>
<text text-anchor="start" x="234" y="-132.3" font-family="Helvetica,sans-Serif" font-size="11.00" fill="#000000">DMS_PROCEDURE_LABEL</text>
<polygon fill="none" stroke="#000000" points="387,-125.2 387,-147.2 484,-147.2 484,-125.2 387,-125.2"/>
<text text-anchor="start" x="390" y="-132.9" font-family="Helvetica,sans-Serif" font-size="11.00" fill="#000000">varchar2[10]</text>
<polygon fill="none" stroke="#000000" points="214,-103.2 214,-125.2 387,-125.2 387,-103.2 214,-103.2"/>
<text text-anchor="start" x="234" y="-110.3" font-family="Helvetica,sans-Serif" font-size="11.00" fill="#000000">MESSAGE_TEXT</text>
<polygon fill="none" stroke="#000000" points="387,-103.2 387,-125.2 484,-125.2 484,-103.2 387,-103.2"/>
<text text-anchor="start" x="390" y="-110.9" font-family="Helvetica,sans-Serif" font-size="11.00" fill="#000000">clob[4000]</text>
<polygon fill="none" stroke="#000000" points="214,-81.2 214,-103.2 387,-103.2 387,-81.2 214,-81.2"/>
<image xlink:href="../../images/foreignKeys.png" width="11px" height="12px" preserveAspectRatio="xMinYMin meet" x="219" y="-98.2"/>
<text text-anchor="start" x="234" y="-88.3" font-family="Helvetica,sans-Serif" font-size="11.00" fill="#000000">DMS_ERROR_LOG_ID</text>
<polygon fill="none" stroke="#000000" points="387,-81.2 387,-103.2 484,-103.2 484,-81.2 387,-81.2"/>
<text text-anchor="start" x="390" y="-88.9" font-family="Helvetica,sans-Serif" font-size="11.00" fill="#000000">number[22]</text>
<polygon fill="none" stroke="#000000" points="214,-59.2 214,-81.2 387,-81.2 387,-59.2 214,-59.2"/>
<text text-anchor="start" x="234" y="-66.3" font-family="Helvetica,sans-Serif" font-size="11.00" fill="#000000">INSTANCE_ID</text>
<polygon fill="none" stroke="#000000" points="387,-59.2 387,-81.2 484,-81.2 484,-59.2 387,-59.2"/>
<text text-anchor="start" x="390" y="-66.9" font-family="Helvetica,sans-Serif" font-size="11.00" fill="#000000">number[22]</text>
<polygon fill="#ffffff" stroke="transparent" points="214,-40.2 214,-59.2 289,-59.2 289,-40.2 214,-40.2"/>
<polygon fill="none" stroke="#000000" points="214,-40.2 214,-59.2 289,-59.2 289,-40.2 214,-40.2"/>
<text text-anchor="start" x="217" y="-46.3" font-family="Helvetica,sans-Serif" font-size="11.00" fill="#000000">&lt; 1</text>
<polygon fill="#ffffff" stroke="transparent" points="289,-40.2 289,-59.2 387,-59.2 387,-40.2 289,-40.2"/>
<polygon fill="none" stroke="#000000" points="289,-40.2 289,-59.2 387,-59.2 387,-40.2 289,-40.2"/>
<text text-anchor="start" x="345.4956" y="-46.3" font-family="Helvetica,sans-Serif" font-size="11.00" fill="#000000">39 rows</text>
<polygon fill="#ffffff" stroke="transparent" points="387,-40.2 387,-59.2 484,-59.2 484,-40.2 387,-40.2"/>
<polygon fill="none" stroke="#000000" points="387,-40.2 387,-59.2 484,-59.2 484,-40.2 387,-40.2"/>
<text text-anchor="start" x="465.4053" y="-46.3" font-family="Helvetica,sans-Serif" font-size="11.00" fill="#000000">0 &gt;</text>
<polygon fill="none" stroke="#000000" stroke-width="2" points="213,-39.2 213,-303.2 485,-303.2 485,-39.2 213,-39.2"/>
</a>
</g>
</g>
<!-- DMS_ERROR_LOG -->
<g id="node2" class="node">
<title>DMS_ERROR_LOG</title>
<g id="a_node2"><a xlink:href="../../tables/DMS_ERROR_LOG.html" xlink:title="DMS_ERROR_LOG" target="_top">
<polygon fill="#ffffff" stroke="transparent" points="8,-43.7 8,-126.7 163,-126.7 163,-43.7 8,-43.7"/>
<polygon fill="#f5f5f5" stroke="transparent" points="8.5,-103.2 8.5,-126.2 163.5,-126.2 163.5,-103.2 8.5,-103.2"/>
<polygon fill="none" stroke="#000000" points="8.5,-103.2 8.5,-126.2 163.5,-126.2 163.5,-103.2 8.5,-103.2"/>
<text text-anchor="start" x="13.5" y="-112.3" font-family="Helvetica,sans-Serif" font-weight="bold" font-size="11.00" fill="#000000">DMS_ERROR_LOG</text>
<text text-anchor="start" x="128.5437" y="-111.3" font-family="Helvetica,sans-Serif" font-size="11.00" fill="#000000">[table]</text>
<polygon fill="none" stroke="#000000" points="8.5,-81.2 8.5,-103.2 163.5,-103.2 163.5,-81.2 8.5,-81.2"/>
<image xlink:href="../../images/primaryKeys.png" width="11px" height="12px" preserveAspectRatio="xMinYMin meet" x="13.5" y="-98.2"/>
<text text-anchor="start" x="28.5" y="-88.3" font-family="Helvetica,sans-Serif" font-size="11.00" fill="#000000">DMS_ERROR_LOG_ID</text>
<polygon fill="none" stroke="#000000" points="8.5,-62.2 8.5,-81.2 163.5,-81.2 163.5,-62.2 8.5,-62.2"/>
<text text-anchor="start" x="11.5" y="-68.3" font-family="Helvetica,sans-Serif" font-size="11.00" fill="#000000">...</text>
<polygon fill="#ffffff" stroke="transparent" points="8.5,-43.2 8.5,-62.2 62.5,-62.2 62.5,-43.2 8.5,-43.2"/>
<polygon fill="none" stroke="#000000" points="8.5,-43.2 8.5,-62.2 62.5,-62.2 62.5,-43.2 8.5,-43.2"/>
<text text-anchor="start" x="11.5" y="-49.3" font-family="Helvetica,sans-Serif" font-size="11.00" fill="#000000"> &#160;</text>
<polygon fill="#ffffff" stroke="transparent" points="62.5,-43.2 62.5,-62.2 121.5,-62.2 121.5,-43.2 62.5,-43.2"/>
<polygon fill="none" stroke="#000000" points="62.5,-43.2 62.5,-62.2 121.5,-62.2 121.5,-43.2 62.5,-43.2"/>
<text text-anchor="start" x="86.1105" y="-49.3" font-family="Helvetica,sans-Serif" font-size="11.00" fill="#000000">0 rows</text>
<polygon fill="#ffffff" stroke="transparent" points="121.5,-43.2 121.5,-62.2 163.5,-62.2 163.5,-43.2 121.5,-43.2"/>
<polygon fill="none" stroke="#000000" points="121.5,-43.2 121.5,-62.2 163.5,-62.2 163.5,-43.2 121.5,-43.2"/>
<text text-anchor="start" x="144.9053" y="-49.3" font-family="Helvetica,sans-Serif" font-size="11.00" fill="#000000">1 &gt;</text>
</a>
</g>
</g>
<!-- DMS_MESSAGE_LOG&#45;&gt;DMS_ERROR_LOG -->
<g id="edge1" class="edge">
<title>DMS_MESSAGE_LOG:w&#45;&gt;DMS_ERROR_LOG:e</title>
<path fill="none" stroke="#000000" stroke-dasharray="5,2" d="M199.4203,-92.2C187.5435,-92.2 180.158,-92.2 163.5,-92.2"/>
<polygon fill="#000000" stroke="#000000" points="206,-92.2001 214,-95.8 210,-92.2 214,-92.2 214,-92.2 214,-92.2 210,-92.2 214,-88.6 206,-92.2001 206,-92.2001"/>
<ellipse fill="none" stroke="#000000" cx="202.8" cy="-92.2001" rx="3.2" ry="3.2"/>
</g>
</g>
</svg>
