<?xml version="1.0" encoding="UTF-8" standalone="no"?>
<!DOCTYPE svg PUBLIC "-//W3C//DTD SVG 1.1//EN"
 "http://www.w3.org/Graphics/SVG/1.1/DTD/svg11.dtd">
<!-- Generated by graphviz version 2.40.1 (20161225.0304)
 -->
<!-- Title: twoDegreesRelationshipsDiagram Pages: 1 -->
<svg width="847pt" height="666pt"
 viewBox="0.00 0.00 847.00 666.20" xmlns="http://www.w3.org/2000/svg" xmlns:xlink="http://www.w3.org/1999/xlink">
<g id="graph0" class="graph" transform="scale(1 1) rotate(0) translate(4 662.2)">
<title>twoDegreesRelationshipsDiagram</title>
<polygon fill="#ffffff" stroke="transparent" points="-4,4 -4,-662.2 843,-662.2 843,4 -4,4"/>
<text text-anchor="middle" x="72.4936" y="-7.3" font-family="Helvetica,sans-Serif" font-size="11.00" fill="#000000">Generated by SchemaSpy</text>
<!-- DATA_SCRIPT_MESSAGE -->
<g id="node1" class="node">
<title>DATA_SCRIPT_MESSAGE</title>
<g id="a_node1"><a xlink:href="../../tables/DATA_SCRIPT_MESSAGE.html" xlink:title="DATA_SCRIPT_MESSAGE" target="_top">
<polygon fill="#ffffff" stroke="transparent" points="291.5,-148.2 291.5,-209.2 470.5,-209.2 470.5,-148.2 291.5,-148.2"/>
<polygon fill="#f5f5f5" stroke="transparent" points="292,-185.7 292,-208.7 471,-208.7 471,-185.7 292,-185.7"/>
<polygon fill="none" stroke="#000000" points="292,-185.7 292,-208.7 471,-208.7 471,-185.7 292,-185.7"/>
<text text-anchor="start" x="296.8545" y="-194.8" font-family="Helvetica,sans-Serif" font-weight="bold" font-size="11.00" fill="#000000">DATA_SCRIPT_MESSAGE</text>
<text text-anchor="start" x="436.5219" y="-193.8" font-family="Helvetica,sans-Serif" font-size="11.00" fill="#000000">[table]</text>
<polygon fill="none" stroke="#000000" points="292,-166.7 292,-185.7 471,-185.7 471,-166.7 292,-166.7"/>
<text text-anchor="start" x="295" y="-172.8" font-family="Helvetica,sans-Serif" font-size="11.00" fill="#000000">...</text>
<polygon fill="#ffffff" stroke="transparent" points="292,-147.7 292,-166.7 356,-166.7 356,-147.7 292,-147.7"/>
<polygon fill="none" stroke="#000000" points="292,-147.7 292,-166.7 356,-166.7 356,-147.7 292,-147.7"/>
<text text-anchor="start" x="295" y="-153.8" font-family="Helvetica,sans-Serif" font-size="11.00" fill="#000000">&lt; 3</text>
<polygon fill="#ffffff" stroke="transparent" points="356,-147.7 356,-166.7 428,-166.7 428,-147.7 356,-147.7"/>
<polygon fill="none" stroke="#000000" points="356,-147.7 356,-166.7 428,-166.7 428,-147.7 356,-147.7"/>
<text text-anchor="start" x="380.3807" y="-153.8" font-family="Helvetica,sans-Serif" font-size="11.00" fill="#000000">132 rows</text>
<polygon fill="#ffffff" stroke="transparent" points="428,-147.7 428,-166.7 471,-166.7 471,-147.7 428,-147.7"/>
<polygon fill="none" stroke="#000000" points="428,-147.7 428,-166.7 471,-166.7 471,-147.7 428,-147.7"/>
<text text-anchor="start" x="452.4053" y="-153.8" font-family="Helvetica,sans-Serif" font-size="11.00" fill="#000000">3 &gt;</text>
</a>
</g>
</g>
<!-- BUSINESS_INTERACTION -->
<g id="node2" class="node">
<title>BUSINESS_INTERACTION</title>
<g id="a_node2"><a xlink:href="../../tables/BUSINESS_INTERACTION.html" xlink:title="BUSINESS_INTERACTION" target="_top">
<polygon fill="#ffffff" stroke="transparent" points="8,-134.2 8,-239.2 206,-239.2 206,-134.2 8,-134.2"/>
<polygon fill="#f5f5f5" stroke="transparent" points="8,-215.7 8,-238.7 206,-238.7 206,-215.7 8,-215.7"/>
<polygon fill="none" stroke="#000000" points="8,-215.7 8,-238.7 206,-238.7 206,-215.7 8,-215.7"/>
<text text-anchor="start" x="13" y="-224.8" font-family="Helvetica,sans-Serif" font-weight="bold" font-size="11.00" fill="#000000">BUSINESS_INTERACTION</text>
<text text-anchor="start" x="171.0437" y="-223.8" font-family="Helvetica,sans-Serif" font-size="11.00" fill="#000000">[table]</text>
<polygon fill="none" stroke="#000000" points="8,-193.7 8,-215.7 206,-215.7 206,-193.7 8,-193.7"/>
<image xlink:href="../../images/primaryKeys.png" width="11px" height="12px" preserveAspectRatio="xMinYMin meet" x="13" y="-210.7"/>
<text text-anchor="start" x="28" y="-200.8" font-family="Helvetica,sans-Serif" font-size="11.00" fill="#000000">BUSINESS_INTERACTION_ID</text>
<polygon fill="none" stroke="#000000" points="8,-171.7 8,-193.7 206,-193.7 206,-171.7 8,-171.7"/>
<image xlink:href="../../images/primaryKeys.png" width="11px" height="12px" preserveAspectRatio="xMinYMin meet" x="13" y="-188.7"/>
<text text-anchor="start" x="27.4158" y="-178.8" font-family="Helvetica,sans-Serif" font-size="11.00" fill="#000000">BUSINESS_INTERACTION_CODE</text>
<polygon fill="none" stroke="#000000" points="8,-152.7 8,-171.7 206,-171.7 206,-152.7 8,-152.7"/>
<text text-anchor="start" x="11" y="-158.8" font-family="Helvetica,sans-Serif" font-size="11.00" fill="#000000">...</text>
<polygon fill="#ffffff" stroke="transparent" points="8,-133.7 8,-152.7 73,-152.7 73,-133.7 8,-133.7"/>
<polygon fill="none" stroke="#000000" points="8,-133.7 8,-152.7 73,-152.7 73,-133.7 8,-133.7"/>
<text text-anchor="start" x="11" y="-139.8" font-family="Helvetica,sans-Serif" font-size="11.00" fill="#000000"> &#160;</text>
<polygon fill="#ffffff" stroke="transparent" points="73,-133.7 73,-152.7 158,-152.7 158,-133.7 73,-133.7"/>
<polygon fill="none" stroke="#000000" points="73,-133.7 73,-152.7 158,-152.7 158,-133.7 73,-133.7"/>
<text text-anchor="start" x="101.2089" y="-139.8" font-family="Helvetica,sans-Serif" font-size="11.00" fill="#000000">1,093 rows</text>
<polygon fill="#ffffff" stroke="transparent" points="158,-133.7 158,-152.7 206,-152.7 206,-133.7 158,-133.7"/>
<polygon fill="none" stroke="#000000" points="158,-133.7 158,-152.7 206,-152.7 206,-133.7 158,-133.7"/>
<text text-anchor="start" x="187.4053" y="-139.8" font-family="Helvetica,sans-Serif" font-size="11.00" fill="#000000">6 &gt;</text>
</a>
</g>
</g>
<!-- DATA_SCRIPT_MESSAGE&#45;&gt;BUSINESS_INTERACTION -->
<g id="edge1" class="edge">
<title>DATA_SCRIPT_MESSAGE:w&#45;&gt;BUSINESS_INTERACTION:e</title>
<path fill="none" stroke="#000000" d="M277.6169,-177.0987C249.6308,-182.8916 240.9796,-204.7 206,-204.7"/>
<polygon fill="#000000" stroke="#000000" points="284.0376,-176.4744 292.3485,-179.2831 288.0188,-176.0872 292,-175.7 292,-175.7 292,-175.7 288.0188,-176.0872 291.6515,-172.1169 284.0376,-176.4744 284.0376,-176.4744"/>
<ellipse fill="none" stroke="#000000" cx="280.8526" cy="-176.7841" rx="3.2" ry="3.2"/>
</g>
<!-- DOCUMENT_TEMPLATE -->
<g id="node3" class="node">
<title>DOCUMENT_TEMPLATE</title>
<g id="a_node3"><a xlink:href="../../tables/DOCUMENT_TEMPLATE.html" xlink:title="DOCUMENT_TEMPLATE" target="_top">
<polygon fill="#ffffff" stroke="transparent" points="255,-367.7 255,-633.7 507,-633.7 507,-367.7 255,-367.7"/>
<polygon fill="#f5f5f5" stroke="transparent" points="257,-608.7 257,-631.7 505,-631.7 505,-608.7 257,-608.7"/>
<polygon fill="none" stroke="#000000" points="257,-608.7 257,-631.7 505,-631.7 505,-608.7 257,-608.7"/>
<text text-anchor="start" x="262" y="-617.8" font-family="Helvetica,sans-Serif" font-weight="bold" font-size="11.00" fill="#000000">DOCUMENT_TEMPLATE</text>
<text text-anchor="start" x="470.0437" y="-616.8" font-family="Helvetica,sans-Serif" font-size="11.00" fill="#000000">[table]</text>
<polygon fill="none" stroke="#000000" points="257,-586.7 257,-608.7 426,-608.7 426,-586.7 257,-586.7"/>
<image xlink:href="../../images/primaryKeys.png" width="11px" height="12px" preserveAspectRatio="xMinYMin meet" x="262" y="-603.7"/>
<text text-anchor="start" x="276.587" y="-593.8" font-family="Helvetica,sans-Serif" font-size="11.00" fill="#000000">DOCUMENT_TEMPLATE_ID</text>
<polygon fill="none" stroke="#000000" points="426,-586.7 426,-608.7 505,-608.7 505,-586.7 426,-586.7"/>
<text text-anchor="start" x="429" y="-594.4" font-family="Helvetica,sans-Serif" font-size="11.00" fill="#000000">number[38]</text>
<polygon fill="none" stroke="#000000" points="257,-564.7 257,-586.7 426,-586.7 426,-564.7 257,-564.7"/>
<image xlink:href="../../images/primaryKeys.png" width="11px" height="12px" preserveAspectRatio="xMinYMin meet" x="262" y="-581.7"/>
<text text-anchor="start" x="277" y="-571.8" font-family="Helvetica,sans-Serif" font-size="11.00" fill="#000000">TEMPLATE_NAME</text>
<polygon fill="none" stroke="#000000" points="426,-564.7 426,-586.7 505,-586.7 505,-564.7 426,-564.7"/>
<text text-anchor="start" x="429" y="-572.4" font-family="Helvetica,sans-Serif" font-size="11.00" fill="#000000">varchar2[200]</text>
<polygon fill="none" stroke="#000000" points="257,-542.7 257,-564.7 426,-564.7 426,-542.7 257,-542.7"/>
<text text-anchor="start" x="277" y="-549.8" font-family="Helvetica,sans-Serif" font-size="11.00" fill="#000000">DESCRIPTION</text>
<polygon fill="none" stroke="#000000" points="426,-542.7 426,-564.7 505,-564.7 505,-542.7 426,-542.7"/>
<text text-anchor="start" x="428.8216" y="-550.4" font-family="Helvetica,sans-Serif" font-size="11.00" fill="#000000">varchar2[4000]</text>
<polygon fill="none" stroke="#000000" points="257,-520.7 257,-542.7 426,-542.7 426,-520.7 257,-520.7"/>
<text text-anchor="start" x="277" y="-527.8" font-family="Helvetica,sans-Serif" font-size="11.00" fill="#000000">TEMPLATE</text>
<polygon fill="none" stroke="#000000" points="426,-520.7 426,-542.7 505,-542.7 505,-520.7 426,-520.7"/>
<text text-anchor="start" x="429" y="-528.4" font-family="Helvetica,sans-Serif" font-size="11.00" fill="#000000">blob[4000]</text>
<polygon fill="none" stroke="#000000" points="257,-498.7 257,-520.7 426,-520.7 426,-498.7 257,-498.7"/>
<text text-anchor="start" x="277" y="-505.8" font-family="Helvetica,sans-Serif" font-size="11.00" fill="#000000">DATE_CREATED_DATE</text>
<polygon fill="none" stroke="#000000" points="426,-498.7 426,-520.7 505,-520.7 505,-498.7 426,-498.7"/>
<text text-anchor="start" x="429" y="-506.4" font-family="Helvetica,sans-Serif" font-size="11.00" fill="#000000">date[7]</text>
<polygon fill="none" stroke="#000000" points="257,-476.7 257,-498.7 426,-498.7 426,-476.7 257,-476.7"/>
<text text-anchor="start" x="277" y="-483.8" font-family="Helvetica,sans-Serif" font-size="11.00" fill="#000000">ROW_VERSION</text>
<polygon fill="none" stroke="#000000" points="426,-476.7 426,-498.7 505,-498.7 505,-476.7 426,-476.7"/>
<text text-anchor="start" x="429" y="-484.4" font-family="Helvetica,sans-Serif" font-size="11.00" fill="#000000">number[38]</text>
<polygon fill="none" stroke="#000000" points="257,-454.7 257,-476.7 426,-476.7 426,-454.7 257,-454.7"/>
<image xlink:href="../../images/primaryKeys.png" width="11px" height="12px" preserveAspectRatio="xMinYMin meet" x="262" y="-471.7"/>
<text text-anchor="start" x="277" y="-461.8" font-family="Helvetica,sans-Serif" font-size="11.00" fill="#000000">TRAINING_SESSION_ID</text>
<polygon fill="none" stroke="#000000" points="426,-454.7 426,-476.7 505,-476.7 505,-454.7 426,-454.7"/>
<text text-anchor="start" x="429" y="-462.4" font-family="Helvetica,sans-Serif" font-size="11.00" fill="#000000">number[38]</text>
<polygon fill="none" stroke="#000000" points="257,-432.7 257,-454.7 426,-454.7 426,-432.7 257,-432.7"/>
<text text-anchor="start" x="277" y="-439.8" font-family="Helvetica,sans-Serif" font-size="11.00" fill="#000000">SECTOR</text>
<polygon fill="none" stroke="#000000" points="426,-432.7 426,-454.7 505,-454.7 505,-432.7 426,-432.7"/>
<text text-anchor="start" x="429" y="-440.4" font-family="Helvetica,sans-Serif" font-size="11.00" fill="#000000">varchar2[7]</text>
<polygon fill="none" stroke="#000000" points="257,-410.7 257,-432.7 426,-432.7 426,-410.7 257,-410.7"/>
<text text-anchor="start" x="277" y="-417.8" font-family="Helvetica,sans-Serif" font-size="11.00" fill="#000000">EXTERNAL_SERVICE</text>
<polygon fill="none" stroke="#000000" points="426,-410.7 426,-432.7 505,-432.7 505,-410.7 426,-410.7"/>
<text text-anchor="start" x="429" y="-418.4" font-family="Helvetica,sans-Serif" font-size="11.00" fill="#000000">varchar2[200]</text>
<polygon fill="none" stroke="#000000" points="257,-388.7 257,-410.7 426,-410.7 426,-388.7 257,-388.7"/>
<image xlink:href="../../images/primaryKeys.png" width="11px" height="12px" preserveAspectRatio="xMinYMin meet" x="262" y="-405.7"/>
<text text-anchor="start" x="272.3042" y="-395.8" font-family="Helvetica,sans-Serif" font-size="11.00" fill="#000000">BUSINESS_INTERACTION_ID</text>
<polygon fill="none" stroke="#000000" points="426,-388.7 426,-410.7 505,-410.7 505,-388.7 426,-388.7"/>
<text text-anchor="start" x="429" y="-396.4" font-family="Helvetica,sans-Serif" font-size="11.00" fill="#000000">number[38]</text>
<polygon fill="#ffffff" stroke="transparent" points="257,-369.7 257,-388.7 330,-388.7 330,-369.7 257,-369.7"/>
<polygon fill="none" stroke="#000000" points="257,-369.7 257,-388.7 330,-388.7 330,-369.7 257,-369.7"/>
<text text-anchor="start" x="260" y="-375.8" font-family="Helvetica,sans-Serif" font-size="11.00" fill="#000000">&lt; 1</text>
<polygon fill="#ffffff" stroke="transparent" points="330,-369.7 330,-388.7 426,-388.7 426,-369.7 330,-369.7"/>
<polygon fill="none" stroke="#000000" points="330,-369.7 330,-388.7 426,-388.7 426,-369.7 330,-369.7"/>
<text text-anchor="start" x="384.4956" y="-375.8" font-family="Helvetica,sans-Serif" font-size="11.00" fill="#000000">16 rows</text>
<polygon fill="#ffffff" stroke="transparent" points="426,-369.7 426,-388.7 505,-388.7 505,-369.7 426,-369.7"/>
<polygon fill="none" stroke="#000000" points="426,-369.7 426,-388.7 505,-388.7 505,-369.7 426,-369.7"/>
<text text-anchor="start" x="486.4053" y="-375.8" font-family="Helvetica,sans-Serif" font-size="11.00" fill="#000000">2 &gt;</text>
<polygon fill="none" stroke="#000000" stroke-width="2" points="256,-368.7 256,-632.7 506,-632.7 506,-368.7 256,-368.7"/>
</a>
</g>
</g>
<!-- DOCUMENT_TEMPLATE&#45;&gt;BUSINESS_INTERACTION -->
<g id="edge2" class="edge">
<title>DOCUMENT_TEMPLATE:w&#45;&gt;BUSINESS_INTERACTION:e</title>
<path fill="none" stroke="#000000" d="M242.6488,-397.5101C182.5881,-376.0867 289.9829,-204.7 206,-204.7"/>
<polygon fill="#000000" stroke="#000000" points="249.0915,-398.4932 256.4569,-403.2588 253.0458,-399.0966 257,-399.7 257,-399.7 257,-399.7 253.0458,-399.0966 257.5431,-396.1412 249.0915,-398.4932 249.0915,-398.4932"/>
<ellipse fill="none" stroke="#000000" cx="245.9282" cy="-398.0104" rx="3.2" ry="3.2"/>
</g>
<!-- DOCUMENT_TEMPLATE_AREA -->
<g id="node4" class="node">
<title>DOCUMENT_TEMPLATE_AREA</title>
<g id="a_node4"><a xlink:href="../../tables/DOCUMENT_TEMPLATE_AREA.html" xlink:title="DOCUMENT_TEMPLATE_AREA" target="_top">
<polygon fill="#ffffff" stroke="transparent" points="590.5,-375.2 590.5,-502.2 796.5,-502.2 796.5,-375.2 590.5,-375.2"/>
<polygon fill="#f5f5f5" stroke="transparent" points="590.5,-478.7 590.5,-501.7 796.5,-501.7 796.5,-478.7 590.5,-478.7"/>
<polygon fill="none" stroke="#000000" points="590.5,-478.7 590.5,-501.7 796.5,-501.7 796.5,-478.7 590.5,-478.7"/>
<text text-anchor="start" x="595.1116" y="-487.8" font-family="Helvetica,sans-Serif" font-weight="bold" font-size="11.00" fill="#000000">DOCUMENT_TEMPLATE_AREA</text>
<text text-anchor="start" x="762.0219" y="-486.8" font-family="Helvetica,sans-Serif" font-size="11.00" fill="#000000">[table]</text>
<polygon fill="none" stroke="#000000" points="590.5,-456.7 590.5,-478.7 796.5,-478.7 796.5,-456.7 590.5,-456.7"/>
<image xlink:href="../../images/primaryKeys.png" width="11px" height="12px" preserveAspectRatio="xMinYMin meet" x="595.5" y="-473.7"/>
<text text-anchor="start" x="625.5" y="-463.8" font-family="Helvetica,sans-Serif" font-size="11.00" fill="#000000">DOCUMENT_TEMPLATE_ID</text>
<polygon fill="none" stroke="#000000" points="590.5,-434.7 590.5,-456.7 796.5,-456.7 796.5,-434.7 590.5,-434.7"/>
<image xlink:href="../../images/primaryKeys.png" width="11px" height="12px" preserveAspectRatio="xMinYMin meet" x="595.5" y="-451.7"/>
<text text-anchor="start" x="625.5" y="-441.8" font-family="Helvetica,sans-Serif" font-size="11.00" fill="#000000">PROBATION_AREA_ID</text>
<polygon fill="none" stroke="#000000" points="590.5,-412.7 590.5,-434.7 796.5,-434.7 796.5,-412.7 590.5,-412.7"/>
<image xlink:href="../../images/primaryKeys.png" width="11px" height="12px" preserveAspectRatio="xMinYMin meet" x="595.5" y="-429.7"/>
<text text-anchor="start" x="625.5" y="-419.8" font-family="Helvetica,sans-Serif" font-size="11.00" fill="#000000">TRAINING_SESSION_ID</text>
<polygon fill="none" stroke="#000000" points="590.5,-393.7 590.5,-412.7 796.5,-412.7 796.5,-393.7 590.5,-393.7"/>
<text text-anchor="start" x="593.5" y="-399.8" font-family="Helvetica,sans-Serif" font-size="11.00" fill="#000000">...</text>
<polygon fill="#ffffff" stroke="transparent" points="590.5,-374.7 590.5,-393.7 681.5,-393.7 681.5,-374.7 590.5,-374.7"/>
<polygon fill="none" stroke="#000000" points="590.5,-374.7 590.5,-393.7 681.5,-393.7 681.5,-374.7 590.5,-374.7"/>
<text text-anchor="start" x="593.5" y="-380.8" font-family="Helvetica,sans-Serif" font-size="11.00" fill="#000000">&lt; 2</text>
<polygon fill="#ffffff" stroke="transparent" points="681.5,-374.7 681.5,-393.7 748.5,-393.7 748.5,-374.7 681.5,-374.7"/>
<polygon fill="none" stroke="#000000" points="681.5,-374.7 681.5,-393.7 748.5,-393.7 748.5,-374.7 681.5,-374.7"/>
<text text-anchor="start" x="718.6105" y="-380.8" font-family="Helvetica,sans-Serif" font-size="11.00" fill="#000000">1 row</text>
<polygon fill="#ffffff" stroke="transparent" points="748.5,-374.7 748.5,-393.7 796.5,-393.7 796.5,-374.7 748.5,-374.7"/>
<polygon fill="none" stroke="#000000" points="748.5,-374.7 748.5,-393.7 796.5,-393.7 796.5,-374.7 748.5,-374.7"/>
<text text-anchor="start" x="787.3862" y="-380.8" font-family="Helvetica,sans-Serif" font-size="11.00" fill="#000000"> &#160;</text>
</a>
</g>
</g>
<!-- DOCUMENT_TEMPLATE_AREA&#45;&gt;DOCUMENT_TEMPLATE -->
<g id="edge3" class="edge">
<title>DOCUMENT_TEMPLATE_AREA:w&#45;&gt;DOCUMENT_TEMPLATE:e</title>
<path fill="none" stroke="#000000" d="M575.984,-470.817C561.9409,-478.2781 560.8676,-497.9421 548,-516.7 524.9439,-550.3103 545.7582,-597.7 505,-597.7"/>
<polygon fill="#000000" stroke="#000000" points="582.6783,-469.3796 591.2558,-471.2198 586.5891,-468.5398 590.5,-467.7 590.5,-467.7 590.5,-467.7 586.5891,-468.5398 589.7442,-464.1802 582.6783,-469.3796 582.6783,-469.3796"/>
<ellipse fill="none" stroke="#000000" cx="579.5496" cy="-470.0515" rx="3.2" ry="3.2"/>
</g>
<!-- PROBATION_AREA -->
<g id="node5" class="node">
<title>PROBATION_AREA</title>
<g id="a_node5"><a xlink:href="../../tables/PROBATION_AREA.html" xlink:title="PROBATION_AREA" target="_top">
<polygon fill="#ffffff" stroke="transparent" points="309.5,-258.2 309.5,-319.2 452.5,-319.2 452.5,-258.2 309.5,-258.2"/>
<polygon fill="#f5f5f5" stroke="transparent" points="310,-295.7 310,-318.7 453,-318.7 453,-295.7 310,-295.7"/>
<polygon fill="none" stroke="#000000" points="310,-295.7 310,-318.7 453,-318.7 453,-295.7 310,-295.7"/>
<text text-anchor="start" x="314.5782" y="-304.8" font-family="Helvetica,sans-Serif" font-weight="bold" font-size="11.00" fill="#000000">PROBATION_AREA</text>
<text text-anchor="start" x="418.5219" y="-303.8" font-family="Helvetica,sans-Serif" font-size="11.00" fill="#000000">[table]</text>
<polygon fill="none" stroke="#000000" points="310,-276.7 310,-295.7 453,-295.7 453,-276.7 310,-276.7"/>
<text text-anchor="start" x="313" y="-282.8" font-family="Helvetica,sans-Serif" font-size="11.00" fill="#000000">...</text>
<polygon fill="#ffffff" stroke="transparent" points="310,-257.7 310,-276.7 353,-276.7 353,-257.7 310,-257.7"/>
<polygon fill="none" stroke="#000000" points="310,-257.7 310,-276.7 353,-276.7 353,-257.7 310,-257.7"/>
<text text-anchor="start" x="313" y="-263.8" font-family="Helvetica,sans-Serif" font-size="11.00" fill="#000000">&lt; 8</text>
<polygon fill="#ffffff" stroke="transparent" points="353,-257.7 353,-276.7 414,-276.7 414,-257.7 353,-257.7"/>
<polygon fill="none" stroke="#000000" points="353,-257.7 353,-276.7 414,-276.7 414,-257.7 353,-257.7"/>
<text text-anchor="start" x="366.3807" y="-263.8" font-family="Helvetica,sans-Serif" font-size="11.00" fill="#000000">223 rows</text>
<polygon fill="#ffffff" stroke="transparent" points="414,-257.7 414,-276.7 453,-276.7 453,-257.7 414,-257.7"/>
<polygon fill="none" stroke="#000000" points="414,-257.7 414,-276.7 453,-276.7 453,-257.7 414,-257.7"/>
<text text-anchor="start" x="428.2904" y="-263.8" font-family="Helvetica,sans-Serif" font-size="11.00" fill="#000000">69 &gt;</text>
</a>
</g>
</g>
<!-- DOCUMENT_TEMPLATE_AREA&#45;&gt;PROBATION_AREA -->
<g id="edge4" class="edge">
<title>DOCUMENT_TEMPLATE_AREA:w&#45;&gt;PROBATION_AREA:e</title>
<path fill="none" stroke="#000000" d="M575.8994,-444.2182C501.9433,-428.0883 541.4515,-285.7 453,-285.7"/>
<polygon fill="#000000" stroke="#000000" points="582.5409,-444.8922 590.1365,-449.2816 586.5204,-445.2961 590.5,-445.7 590.5,-445.7 590.5,-445.7 586.5204,-445.2961 590.8635,-442.1184 582.5409,-444.8922 582.5409,-444.8922"/>
<ellipse fill="none" stroke="#000000" cx="579.3572" cy="-444.5691" rx="3.2" ry="3.2"/>
</g>
<!-- OBJECT_TYPE_DOCUMENT_TEMPLATE -->
<g id="node6" class="node">
<title>OBJECT_TYPE_DOCUMENT_TEMPLATE</title>
<g id="a_node6"><a xlink:href="../../tables/OBJECT_TYPE_DOCUMENT_TEMPLATE.html" xlink:title="OBJECT_TYPE_DOCUMENT_TEMPLATE" target="_top">
<polygon fill="#ffffff" stroke="transparent" points="566,-527.2 566,-654.2 821,-654.2 821,-527.2 566,-527.2"/>
<polygon fill="#f5f5f5" stroke="transparent" points="566.5,-630.7 566.5,-653.7 821.5,-653.7 821.5,-630.7 566.5,-630.7"/>
<polygon fill="none" stroke="#000000" points="566.5,-630.7 566.5,-653.7 821.5,-653.7 821.5,-630.7 566.5,-630.7"/>
<text text-anchor="start" x="571.4699" y="-639.8" font-family="Helvetica,sans-Serif" font-weight="bold" font-size="11.00" fill="#000000">OBJECT_TYPE_DOCUMENT_TEMPLATE</text>
<text text-anchor="start" x="787.0219" y="-638.8" font-family="Helvetica,sans-Serif" font-size="11.00" fill="#000000">[table]</text>
<polygon fill="none" stroke="#000000" points="566.5,-608.7 566.5,-630.7 821.5,-630.7 821.5,-608.7 566.5,-608.7"/>
<image xlink:href="../../images/primaryKeys.png" width="11px" height="12px" preserveAspectRatio="xMinYMin meet" x="571.5" y="-625.7"/>
<text text-anchor="start" x="601.5" y="-615.8" font-family="Helvetica,sans-Serif" font-size="11.00" fill="#000000">OBJECT_TYPE_DOC_TEMPLATE_ID</text>
<polygon fill="none" stroke="#000000" points="566.5,-586.7 566.5,-608.7 821.5,-608.7 821.5,-586.7 566.5,-586.7"/>
<image xlink:href="../../images/primaryKeys.png" width="11px" height="12px" preserveAspectRatio="xMinYMin meet" x="571.5" y="-603.7"/>
<text text-anchor="start" x="601.5" y="-593.8" font-family="Helvetica,sans-Serif" font-size="11.00" fill="#000000">DOCUMENT_TEMPLATE_ID</text>
<polygon fill="none" stroke="#000000" points="566.5,-564.7 566.5,-586.7 821.5,-586.7 821.5,-564.7 566.5,-564.7"/>
<image xlink:href="../../images/primaryKeys.png" width="11px" height="12px" preserveAspectRatio="xMinYMin meet" x="571.5" y="-581.7"/>
<text text-anchor="start" x="601.5" y="-571.8" font-family="Helvetica,sans-Serif" font-size="11.00" fill="#000000">TRAINING_SESSION_ID</text>
<polygon fill="none" stroke="#000000" points="566.5,-545.7 566.5,-564.7 821.5,-564.7 821.5,-545.7 566.5,-545.7"/>
<text text-anchor="start" x="569.5" y="-551.8" font-family="Helvetica,sans-Serif" font-size="11.00" fill="#000000">...</text>
<polygon fill="#ffffff" stroke="transparent" points="566.5,-526.7 566.5,-545.7 676.5,-545.7 676.5,-526.7 566.5,-526.7"/>
<polygon fill="none" stroke="#000000" points="566.5,-526.7 566.5,-545.7 676.5,-545.7 676.5,-526.7 566.5,-526.7"/>
<text text-anchor="start" x="569.5" y="-532.8" font-family="Helvetica,sans-Serif" font-size="11.00" fill="#000000">&lt; 1</text>
<polygon fill="#ffffff" stroke="transparent" points="676.5,-526.7 676.5,-545.7 764.5,-545.7 764.5,-526.7 676.5,-526.7"/>
<polygon fill="none" stroke="#000000" points="676.5,-526.7 676.5,-545.7 764.5,-545.7 764.5,-526.7 676.5,-526.7"/>
<text text-anchor="start" x="722.9956" y="-532.8" font-family="Helvetica,sans-Serif" font-size="11.00" fill="#000000">47 rows</text>
<polygon fill="#ffffff" stroke="transparent" points="764.5,-526.7 764.5,-545.7 821.5,-545.7 821.5,-526.7 764.5,-526.7"/>
<polygon fill="none" stroke="#000000" points="764.5,-526.7 764.5,-545.7 821.5,-545.7 821.5,-526.7 764.5,-526.7"/>
<text text-anchor="start" x="812.3862" y="-532.8" font-family="Helvetica,sans-Serif" font-size="11.00" fill="#000000"> &#160;</text>
</a>
</g>
</g>
<!-- OBJECT_TYPE_DOCUMENT_TEMPLATE&#45;&gt;DOCUMENT_TEMPLATE -->
<g id="edge5" class="edge">
<title>OBJECT_TYPE_DOCUMENT_TEMPLATE:w&#45;&gt;DOCUMENT_TEMPLATE:e</title>
<path fill="none" stroke="#000000" d="M552.0376,-597.7C535.5448,-597.7 526.7813,-597.7 505,-597.7"/>
<polygon fill="#000000" stroke="#000000" points="558.5,-597.7001 566.5,-601.3 562.5,-597.7 566.5,-597.7 566.5,-597.7 566.5,-597.7 562.5,-597.7 566.5,-594.1 558.5,-597.7001 558.5,-597.7001"/>
<ellipse fill="none" stroke="#000000" cx="555.3" cy="-597.7001" rx="3.2" ry="3.2"/>
</g>
<!-- SPG_NOTIFICATION -->
<g id="node7" class="node">
<title>SPG_NOTIFICATION</title>
<g id="a_node7"><a xlink:href="../../tables/SPG_NOTIFICATION.html" xlink:title="SPG_NOTIFICATION" target="_top">
<polygon fill="#ffffff" stroke="transparent" points="619,-290.2 619,-351.2 768,-351.2 768,-290.2 619,-290.2"/>
<polygon fill="#f5f5f5" stroke="transparent" points="619.5,-327.7 619.5,-350.7 768.5,-350.7 768.5,-327.7 619.5,-327.7"/>
<polygon fill="none" stroke="#000000" points="619.5,-327.7 619.5,-350.7 768.5,-350.7 768.5,-327.7 619.5,-327.7"/>
<text text-anchor="start" x="624.0268" y="-336.8" font-family="Helvetica,sans-Serif" font-weight="bold" font-size="11.00" fill="#000000">SPG_NOTIFICATION</text>
<text text-anchor="start" x="734.0219" y="-335.8" font-family="Helvetica,sans-Serif" font-size="11.00" fill="#000000">[table]</text>
<polygon fill="none" stroke="#000000" points="619.5,-308.7 619.5,-327.7 768.5,-327.7 768.5,-308.7 619.5,-308.7"/>
<text text-anchor="start" x="622.5" y="-314.8" font-family="Helvetica,sans-Serif" font-size="11.00" fill="#000000">...</text>
<polygon fill="#ffffff" stroke="transparent" points="619.5,-289.7 619.5,-308.7 657.5,-308.7 657.5,-289.7 619.5,-289.7"/>
<polygon fill="none" stroke="#000000" points="619.5,-289.7 619.5,-308.7 657.5,-308.7 657.5,-289.7 619.5,-289.7"/>
<text text-anchor="start" x="622.5" y="-295.8" font-family="Helvetica,sans-Serif" font-size="11.00" fill="#000000">&lt; 8</text>
<polygon fill="#ffffff" stroke="transparent" points="657.5,-289.7 657.5,-308.7 738.5,-308.7 738.5,-289.7 657.5,-289.7"/>
<polygon fill="none" stroke="#000000" points="657.5,-289.7 657.5,-308.7 738.5,-308.7 738.5,-289.7 657.5,-289.7"/>
<text text-anchor="start" x="669.4791" y="-295.8" font-family="Helvetica,sans-Serif" font-size="11.00" fill="#000000">428,992 rows</text>
<polygon fill="#ffffff" stroke="transparent" points="738.5,-289.7 738.5,-308.7 768.5,-308.7 768.5,-289.7 738.5,-289.7"/>
<polygon fill="none" stroke="#000000" points="738.5,-289.7 738.5,-308.7 768.5,-308.7 768.5,-289.7 738.5,-289.7"/>
<text text-anchor="start" x="749.9053" y="-295.8" font-family="Helvetica,sans-Serif" font-size="11.00" fill="#000000">4 &gt;</text>
</a>
</g>
</g>
<!-- SPG_NOTIFICATION&#45;&gt;DATA_SCRIPT_MESSAGE -->
<g id="edge7" class="edge">
<title>SPG_NOTIFICATION:w&#45;&gt;DATA_SCRIPT_MESSAGE:e</title>
<path fill="none" stroke="#000000" d="M604.819,-316.709C580.5593,-313.0692 571.1138,-299.6068 548,-279.7 504.4221,-242.1684 528.5122,-175.7 471,-175.7"/>
<polygon fill="#000000" stroke="#000000" points="611.5182,-317.1611 619.2575,-321.2918 615.5091,-317.4306 619.5,-317.7 619.5,-317.7 619.5,-317.7 615.5091,-317.4306 619.7425,-314.1082 611.5182,-317.1611 611.5182,-317.1611"/>
<ellipse fill="none" stroke="#000000" cx="608.3254" cy="-316.9456" rx="3.2" ry="3.2"/>
</g>
<!-- SPG_NOTIFICATION&#45;&gt;BUSINESS_INTERACTION -->
<g id="edge6" class="edge">
<title>SPG_NOTIFICATION:w&#45;&gt;BUSINESS_INTERACTION:e</title>
<path fill="none" stroke="#000000" d="M604.8821,-318.0359C569.7839,-319.7282 556.3861,-327.3315 515,-329.7 455.5417,-333.1027 295.2301,-364.6388 247,-329.7 199.6509,-295.3994 264.4677,-204.7 206,-204.7"/>
<polygon fill="#000000" stroke="#000000" points="611.5021,-317.8838 619.5827,-321.299 615.5011,-317.7919 619.5,-317.7 619.5,-317.7 619.5,-317.7 615.5011,-317.7919 619.4173,-314.101 611.5021,-317.8838 611.5021,-317.8838"/>
<ellipse fill="none" stroke="#000000" cx="608.303" cy="-317.9574" rx="3.2" ry="3.2"/>
</g>
<!-- SPG_NOTIFICATION&#45;&gt;PROBATION_AREA -->
<g id="edge8" class="edge">
<title>SPG_NOTIFICATION:w&#45;&gt;PROBATION_AREA:e</title>
<path fill="none" stroke="#000000" d="M604.8434,-316.1255C541.7084,-307.5026 523.2031,-280.1102 453,-285.7"/>
<polygon fill="#000000" stroke="#000000" points="611.5458,-316.8454 619.1155,-321.2794 615.5229,-317.2727 619.5,-317.7 619.5,-317.7 619.5,-317.7 615.5229,-317.2727 619.8845,-314.1206 611.5458,-316.8454 611.5458,-316.8454"/>
<ellipse fill="none" stroke="#000000" cx="608.3641" cy="-316.5036" rx="3.2" ry="3.2"/>
</g>
<!-- SPG_NOTIFICATION&#45;&gt;PROBATION_AREA -->
<g id="edge9" class="edge">
<title>SPG_NOTIFICATION:w&#45;&gt;PROBATION_AREA:e</title>
<path fill="none" stroke="#000000" d="M604.8434,-318.6092C541.7084,-320.4418 523.2031,-292.2215 453,-285.7"/>
<polygon fill="#000000" stroke="#000000" points="611.5153,-318.1954 619.7229,-321.2931 615.5077,-317.9477 619.5,-317.7 619.5,-317.7 619.5,-317.7 615.5077,-317.9477 619.2771,-314.1069 611.5153,-318.1954 611.5153,-318.1954"/>
<ellipse fill="none" stroke="#000000" cx="608.3215" cy="-318.3936" rx="3.2" ry="3.2"/>
</g>
<!-- SPG_VERSION_ENTRY -->
<g id="node8" class="node">
<title>SPG_VERSION_ENTRY</title>
<g id="a_node8"><a xlink:href="../../tables/SPG_VERSION_ENTRY.html" xlink:title="SPG_VERSION_ENTRY" target="_top">
<polygon fill="#ffffff" stroke="transparent" points="298.5,-38.2 298.5,-99.2 463.5,-99.2 463.5,-38.2 298.5,-38.2"/>
<polygon fill="#f5f5f5" stroke="transparent" points="299,-75.7 299,-98.7 464,-98.7 464,-75.7 299,-75.7"/>
<polygon fill="none" stroke="#000000" points="299,-75.7 299,-98.7 464,-98.7 464,-75.7 299,-75.7"/>
<text text-anchor="start" x="303.8824" y="-84.8" font-family="Helvetica,sans-Serif" font-weight="bold" font-size="11.00" fill="#000000">SPG_VERSION_ENTRY</text>
<text text-anchor="start" x="429.5219" y="-83.8" font-family="Helvetica,sans-Serif" font-size="11.00" fill="#000000">[table]</text>
<polygon fill="none" stroke="#000000" points="299,-56.7 299,-75.7 464,-75.7 464,-56.7 299,-56.7"/>
<text text-anchor="start" x="302" y="-62.8" font-family="Helvetica,sans-Serif" font-size="11.00" fill="#000000">...</text>
<polygon fill="#ffffff" stroke="transparent" points="299,-37.7 299,-56.7 350,-56.7 350,-37.7 299,-37.7"/>
<polygon fill="none" stroke="#000000" points="299,-37.7 299,-56.7 350,-56.7 350,-37.7 299,-37.7"/>
<text text-anchor="start" x="302" y="-43.8" font-family="Helvetica,sans-Serif" font-size="11.00" fill="#000000">&lt; 2</text>
<polygon fill="#ffffff" stroke="transparent" points="350,-37.7 350,-56.7 437,-56.7 437,-37.7 350,-37.7"/>
<polygon fill="none" stroke="#000000" points="350,-37.7 350,-56.7 437,-56.7 437,-37.7 350,-37.7"/>
<text text-anchor="start" x="367.9791" y="-43.8" font-family="Helvetica,sans-Serif" font-size="11.00" fill="#000000">441,439 rows</text>
<polygon fill="#ffffff" stroke="transparent" points="437,-37.7 437,-56.7 464,-56.7 464,-37.7 437,-37.7"/>
<polygon fill="none" stroke="#000000" points="437,-37.7 437,-56.7 464,-56.7 464,-37.7 437,-37.7"/>
<text text-anchor="start" x="454.8862" y="-43.8" font-family="Helvetica,sans-Serif" font-size="11.00" fill="#000000"> &#160;</text>
</a>
</g>
</g>
<!-- SPG_VERSION_ENTRY&#45;&gt;BUSINESS_INTERACTION -->
<g id="edge10" class="edge">
<title>SPG_VERSION_ENTRY:w&#45;&gt;BUSINESS_INTERACTION:e</title>
<path fill="none" stroke="#000000" d="M284.6184,-67.7648C266.2471,-73.8773 262.0821,-92.7668 247,-113.7 221.0687,-149.6913 250.3599,-204.7 206,-204.7"/>
<polygon fill="#000000" stroke="#000000" points="291.0812,-66.837 299.5116,-69.2635 295.0406,-66.2685 299,-65.7 299,-65.7 299,-65.7 295.0406,-66.2685 298.4884,-62.1365 291.0812,-66.837 291.0812,-66.837"/>
<ellipse fill="none" stroke="#000000" cx="287.9137" cy="-67.2918" rx="3.2" ry="3.2"/>
</g>
<!-- RSINGH_DBA.SPG_NOTIFICATION -->
<g id="node9" class="node">
<title>RSINGH_DBA.SPG_NOTIFICATION</title>
<g id="a_node9"><a xlink:title="RSINGH_DBA.SPG_NOTIFICATION">
<polygon fill="#ffffff" stroke="transparent" points="581.5,-208.2 581.5,-269.2 805.5,-269.2 805.5,-208.2 581.5,-208.2"/>
<polygon fill="#f5f5f5" stroke="transparent" points="581.5,-245.7 581.5,-268.7 805.5,-268.7 805.5,-245.7 581.5,-245.7"/>
<polygon fill="none" stroke="#000000" points="581.5,-245.7 581.5,-268.7 805.5,-268.7 805.5,-245.7 581.5,-245.7"/>
<text text-anchor="start" x="586.2484" y="-254.8" font-family="Helvetica,sans-Serif" font-weight="bold" font-size="11.00" fill="#000000">RSINGH_DBA.SPG_NOTIFICATION</text>
<text text-anchor="start" x="771.0219" y="-253.8" font-family="Helvetica,sans-Serif" font-size="11.00" fill="#000000">[table]</text>
<polygon fill="none" stroke="#000000" points="581.5,-226.7 581.5,-245.7 805.5,-245.7 805.5,-226.7 581.5,-226.7"/>
<text text-anchor="start" x="584.5" y="-232.8" font-family="Helvetica,sans-Serif" font-size="11.00" fill="#000000">...</text>
<polygon fill="#ffffff" stroke="transparent" points="581.5,-207.7 581.5,-226.7 678.5,-226.7 678.5,-207.7 581.5,-207.7"/>
<polygon fill="none" stroke="#000000" points="581.5,-207.7 581.5,-226.7 678.5,-226.7 678.5,-207.7 581.5,-207.7"/>
<text text-anchor="start" x="584.5" y="-213.8" font-family="Helvetica,sans-Serif" font-size="11.00" fill="#000000">&lt; 7</text>
<polygon fill="#ffffff" stroke="transparent" points="678.5,-207.7 678.5,-226.7 754.5,-226.7 754.5,-207.7 678.5,-207.7"/>
<polygon fill="none" stroke="#000000" points="678.5,-207.7 678.5,-226.7 754.5,-226.7 754.5,-207.7 678.5,-207.7"/>
<text text-anchor="start" x="719.1105" y="-213.8" font-family="Helvetica,sans-Serif" font-size="11.00" fill="#000000">0 rows</text>
<polygon fill="#ffffff" stroke="transparent" points="754.5,-207.7 754.5,-226.7 805.5,-226.7 805.5,-207.7 754.5,-207.7"/>
<polygon fill="none" stroke="#000000" points="754.5,-207.7 754.5,-226.7 805.5,-226.7 805.5,-207.7 754.5,-207.7"/>
<text text-anchor="start" x="796.3862" y="-213.8" font-family="Helvetica,sans-Serif" font-size="11.00" fill="#000000"> &#160;</text>
</a>
</g>
</g>
<!-- RSINGH_DBA.SPG_NOTIFICATION&#45;&gt;DATA_SCRIPT_MESSAGE -->
<g id="edge12" class="edge">
<title>RSINGH_DBA.SPG_NOTIFICATION:w&#45;&gt;DATA_SCRIPT_MESSAGE:e</title>
<path fill="none" stroke="#000000" d="M566.9254,-234.1566C525.3353,-224.7652 521.5357,-175.7 471,-175.7"/>
<polygon fill="#000000" stroke="#000000" points="573.5445,-234.8575 581.1209,-239.28 577.5222,-235.2787 581.5,-235.7 581.5,-235.7 581.5,-235.7 577.5222,-235.2787 581.8791,-232.12 573.5445,-234.8575 573.5445,-234.8575"/>
<ellipse fill="none" stroke="#000000" cx="570.3623" cy="-234.5204" rx="3.2" ry="3.2"/>
</g>
<!-- RSINGH_DBA.SPG_NOTIFICATION&#45;&gt;BUSINESS_INTERACTION -->
<g id="edge11" class="edge">
<title>RSINGH_DBA.SPG_NOTIFICATION:w&#45;&gt;BUSINESS_INTERACTION:e</title>
<path fill="none" stroke="#000000" d="M567.0273,-235.7425C429.9053,-236.5466 388.0475,-248.1834 247,-219.7 227.9805,-215.8592 225.4034,-204.7 206,-204.7"/>
<polygon fill="#000000" stroke="#000000" points="573.5,-235.7235 581.5106,-239.3 577.5,-235.7118 581.5,-235.7 581.5,-235.7 581.5,-235.7 577.5,-235.7118 581.4894,-232.1 573.5,-235.7235 573.5,-235.7235"/>
<ellipse fill="none" stroke="#000000" cx="570.3" cy="-235.7329" rx="3.2" ry="3.2"/>
</g>
<!-- RSINGH_DBA.SPG_NOTIFICATION&#45;&gt;PROBATION_AREA -->
<g id="edge13" class="edge">
<title>RSINGH_DBA.SPG_NOTIFICATION:w&#45;&gt;PROBATION_AREA:e</title>
<path fill="none" stroke="#000000" d="M566.8567,-235.3304C518.7889,-237.9688 509.0157,-280.2156 453,-285.7"/>
<polygon fill="#000000" stroke="#000000" points="573.5025,-235.4981 581.4091,-239.2989 577.5013,-235.599 581.5,-235.7 581.5,-235.7 581.5,-235.7 577.5013,-235.599 581.5909,-232.1011 573.5025,-235.4981 573.5025,-235.4981"/>
<ellipse fill="none" stroke="#000000" cx="570.3036" cy="-235.4173" rx="3.2" ry="3.2"/>
</g>
<!-- RSINGH_DBA.SPG_NOTIFICATION&#45;&gt;PROBATION_AREA -->
<g id="edge14" class="edge">
<title>RSINGH_DBA.SPG_NOTIFICATION:w&#45;&gt;PROBATION_AREA:e</title>
<path fill="none" stroke="#000000" d="M567.1653,-238.3143C518.8304,-250.6964 509.1354,-292.1121 453,-285.7"/>
<polygon fill="#000000" stroke="#000000" points="573.6298,-237.1354 582.1459,-239.2416 577.5649,-236.4177 581.5,-235.7 581.5,-235.7 581.5,-235.7 577.5649,-236.4177 580.8541,-232.1584 573.6298,-237.1354 573.6298,-237.1354"/>
<ellipse fill="none" stroke="#000000" cx="570.4817" cy="-237.7095" rx="3.2" ry="3.2"/>
</g>
<!-- RSINGH_DBA.SPG_NOTIFICATION_INTERIM -->
<g id="node10" class="node">
<title>RSINGH_DBA.SPG_NOTIFICATION_INTERIM</title>
<g id="a_node10"><a xlink:title="RSINGH_DBA.SPG_NOTIFICATION_INTERIM">
<polygon fill="#ffffff" stroke="transparent" points="556,-126.2 556,-187.2 831,-187.2 831,-126.2 556,-126.2"/>
<polygon fill="#f5f5f5" stroke="transparent" points="556.5,-163.7 556.5,-186.7 831.5,-186.7 831.5,-163.7 556.5,-163.7"/>
<polygon fill="none" stroke="#000000" points="556.5,-163.7 556.5,-186.7 831.5,-186.7 831.5,-163.7 556.5,-163.7"/>
<text text-anchor="start" x="561.0843" y="-172.8" font-family="Helvetica,sans-Serif" font-weight="bold" font-size="11.00" fill="#000000">RSINGH_DBA.SPG_NOTIFICATION_INTERIM</text>
<text text-anchor="start" x="797.0219" y="-171.8" font-family="Helvetica,sans-Serif" font-size="11.00" fill="#000000">[table]</text>
<polygon fill="none" stroke="#000000" points="556.5,-144.7 556.5,-163.7 831.5,-163.7 831.5,-144.7 556.5,-144.7"/>
<text text-anchor="start" x="559.5" y="-150.8" font-family="Helvetica,sans-Serif" font-size="11.00" fill="#000000">...</text>
<polygon fill="#ffffff" stroke="transparent" points="556.5,-125.7 556.5,-144.7 679.5,-144.7 679.5,-125.7 556.5,-125.7"/>
<polygon fill="none" stroke="#000000" points="556.5,-125.7 556.5,-144.7 679.5,-144.7 679.5,-125.7 556.5,-125.7"/>
<text text-anchor="start" x="559.5" y="-131.8" font-family="Helvetica,sans-Serif" font-size="11.00" fill="#000000">&lt; 7</text>
<polygon fill="#ffffff" stroke="transparent" points="679.5,-125.7 679.5,-144.7 768.5,-144.7 768.5,-125.7 679.5,-125.7"/>
<polygon fill="none" stroke="#000000" points="679.5,-125.7 679.5,-144.7 768.5,-144.7 768.5,-125.7 679.5,-125.7"/>
<text text-anchor="start" x="733.1105" y="-131.8" font-family="Helvetica,sans-Serif" font-size="11.00" fill="#000000">0 rows</text>
<polygon fill="#ffffff" stroke="transparent" points="768.5,-125.7 768.5,-144.7 831.5,-144.7 831.5,-125.7 768.5,-125.7"/>
<polygon fill="none" stroke="#000000" points="768.5,-125.7 768.5,-144.7 831.5,-144.7 831.5,-125.7 768.5,-125.7"/>
<text text-anchor="start" x="822.3862" y="-131.8" font-family="Helvetica,sans-Serif" font-size="11.00" fill="#000000"> &#160;</text>
</a>
</g>
</g>
<!-- RSINGH_DBA.SPG_NOTIFICATION_INTERIM&#45;&gt;DATA_SCRIPT_MESSAGE -->
<g id="edge16" class="edge">
<title>RSINGH_DBA.SPG_NOTIFICATION_INTERIM:w&#45;&gt;DATA_SCRIPT_MESSAGE:e</title>
<path fill="none" stroke="#000000" d="M542.0481,-154.8212C514.7393,-159.3044 504.8733,-175.7 471,-175.7"/>
<polygon fill="#000000" stroke="#000000" points="548.524,-154.3189 556.7785,-157.2892 552.512,-154.0094 556.5,-153.7 556.5,-153.7 556.5,-153.7 552.512,-154.0094 556.2215,-150.1108 548.524,-154.3189 548.524,-154.3189"/>
<ellipse fill="none" stroke="#000000" cx="545.3336" cy="-154.5664" rx="3.2" ry="3.2"/>
</g>
<!-- RSINGH_DBA.SPG_NOTIFICATION_INTERIM&#45;&gt;BUSINESS_INTERACTION -->
<g id="edge15" class="edge">
<title>RSINGH_DBA.SPG_NOTIFICATION_INTERIM:w&#45;&gt;BUSINESS_INTERACTION:e</title>
<path fill="none" stroke="#000000" d="M542.3175,-150.8494C533.741,-146.9677 528.5128,-140.2147 515,-137.7 456.4497,-126.8041 298.9529,-108.5836 247,-137.7 216.5458,-154.7677 240.9108,-204.7 206,-204.7"/>
<polygon fill="#000000" stroke="#000000" points="548.6569,-152.1235 555.7906,-157.2294 552.5784,-152.9118 556.5,-153.7 556.5,-153.7 556.5,-153.7 552.5784,-152.9118 557.2094,-150.1706 548.6569,-152.1235 548.6569,-152.1235"/>
<ellipse fill="none" stroke="#000000" cx="545.5196" cy="-151.493" rx="3.2" ry="3.2"/>
</g>
<!-- RSINGH_DBA.SPG_NOTIFICATION_INTERIM&#45;&gt;PROBATION_AREA -->
<g id="edge17" class="edge">
<title>RSINGH_DBA.SPG_NOTIFICATION_INTERIM:w&#45;&gt;PROBATION_AREA:e</title>
<path fill="none" stroke="#000000" d="M542.0758,-154.4603C525.8539,-161.2039 532.3764,-191.2059 515,-213.7 490.3964,-245.5499 493.2462,-279.7 453,-285.7"/>
<polygon fill="#000000" stroke="#000000" points="548.5111,-154.1211 556.6895,-157.295 552.5055,-153.9106 556.5,-153.7 556.5,-153.7 556.5,-153.7 552.5055,-153.9106 556.3105,-150.105 548.5111,-154.1211 548.5111,-154.1211"/>
<ellipse fill="none" stroke="#000000" cx="545.3155" cy="-154.2896" rx="3.2" ry="3.2"/>
</g>
<!-- RSINGH_DBA.SPG_NOTIFICATION_INTERIM&#45;&gt;PROBATION_AREA -->
<g id="edge18" class="edge">
<title>RSINGH_DBA.SPG_NOTIFICATION_INTERIM:w&#45;&gt;PROBATION_AREA:e</title>
<path fill="none" stroke="#000000" d="M543.0278,-159.5065C525.5968,-173.0583 532.7074,-203.7774 515,-226.7 490.3964,-258.5499 493.2462,-292.7 453,-285.7"/>
<polygon fill="#000000" stroke="#000000" points="549.1533,-156.8665 557.9249,-157.006 552.8267,-155.2832 556.5,-153.7 556.5,-153.7 556.5,-153.7 552.8267,-155.2832 555.0751,-150.394 549.1533,-156.8665 549.1533,-156.8665"/>
<ellipse fill="none" stroke="#000000" cx="546.2146" cy="-158.1331" rx="3.2" ry="3.2"/>
</g>
</g>
</svg>
