<?xml version="1.0" encoding="UTF-8" standalone="no"?>
<!DOCTYPE svg PUBLIC "-//W3C//DTD SVG 1.1//EN"
 "http://www.w3.org/Graphics/SVG/1.1/DTD/svg11.dtd">
<!-- Generated by graphviz version 2.40.1 (20161225.0304)
 -->
<!-- Title: oneDegreeRelationshipsDiagram Pages: 1 -->
<svg width="571pt" height="378pt"
 viewBox="0.00 0.00 571.00 377.70" xmlns="http://www.w3.org/2000/svg" xmlns:xlink="http://www.w3.org/1999/xlink">
<g id="graph0" class="graph" transform="scale(1 1) rotate(0) translate(4 373.7)">
<title>oneDegreeRelationshipsDiagram</title>
<polygon fill="#ffffff" stroke="transparent" points="-4,4 -4,-373.7 567,-373.7 567,4 -4,4"/>
<text text-anchor="middle" x="72.4936" y="-7.3" font-family="Helvetica,sans-Serif" font-size="11.00" fill="#000000">Generated by SchemaSpy</text>
<!-- DOCUMENT_TEMPLATE_AREA -->
<g id="node1" class="node">
<title>DOCUMENT_TEMPLATE_AREA</title>
<g id="a_node1"><a xlink:href="../../tables/DOCUMENT_TEMPLATE_AREA.html" xlink:title="DOCUMENT_TEMPLATE_AREA" target="_top">
<polygon fill="#ffffff" stroke="transparent" points="324.5,-238.7 324.5,-365.7 530.5,-365.7 530.5,-238.7 324.5,-238.7"/>
<polygon fill="#f5f5f5" stroke="transparent" points="324.5,-342.2 324.5,-365.2 530.5,-365.2 530.5,-342.2 324.5,-342.2"/>
<polygon fill="none" stroke="#000000" points="324.5,-342.2 324.5,-365.2 530.5,-365.2 530.5,-342.2 324.5,-342.2"/>
<text text-anchor="start" x="329.1116" y="-351.3" font-family="Helvetica,sans-Serif" font-weight="bold" font-size="11.00" fill="#000000">DOCUMENT_TEMPLATE_AREA</text>
<text text-anchor="start" x="496.0219" y="-350.3" font-family="Helvetica,sans-Serif" font-size="11.00" fill="#000000">[table]</text>
<polygon fill="none" stroke="#000000" points="324.5,-320.2 324.5,-342.2 530.5,-342.2 530.5,-320.2 324.5,-320.2"/>
<image xlink:href="../../images/primaryKeys.png" width="11px" height="12px" preserveAspectRatio="xMinYMin meet" x="329.5" y="-337.2"/>
<text text-anchor="start" x="359.5" y="-327.3" font-family="Helvetica,sans-Serif" font-size="11.00" fill="#000000">DOCUMENT_TEMPLATE_ID</text>
<polygon fill="none" stroke="#000000" points="324.5,-298.2 324.5,-320.2 530.5,-320.2 530.5,-298.2 324.5,-298.2"/>
<image xlink:href="../../images/primaryKeys.png" width="11px" height="12px" preserveAspectRatio="xMinYMin meet" x="329.5" y="-315.2"/>
<text text-anchor="start" x="359.5" y="-305.3" font-family="Helvetica,sans-Serif" font-size="11.00" fill="#000000">PROBATION_AREA_ID</text>
<polygon fill="none" stroke="#000000" points="324.5,-276.2 324.5,-298.2 530.5,-298.2 530.5,-276.2 324.5,-276.2"/>
<image xlink:href="../../images/primaryKeys.png" width="11px" height="12px" preserveAspectRatio="xMinYMin meet" x="329.5" y="-293.2"/>
<text text-anchor="start" x="359.5" y="-283.3" font-family="Helvetica,sans-Serif" font-size="11.00" fill="#000000">TRAINING_SESSION_ID</text>
<polygon fill="none" stroke="#000000" points="324.5,-257.2 324.5,-276.2 530.5,-276.2 530.5,-257.2 324.5,-257.2"/>
<text text-anchor="start" x="327.5" y="-263.3" font-family="Helvetica,sans-Serif" font-size="11.00" fill="#000000">...</text>
<polygon fill="#ffffff" stroke="transparent" points="324.5,-238.2 324.5,-257.2 415.5,-257.2 415.5,-238.2 324.5,-238.2"/>
<polygon fill="none" stroke="#000000" points="324.5,-238.2 324.5,-257.2 415.5,-257.2 415.5,-238.2 324.5,-238.2"/>
<text text-anchor="start" x="327.5" y="-244.3" font-family="Helvetica,sans-Serif" font-size="11.00" fill="#000000">&lt; 2</text>
<polygon fill="#ffffff" stroke="transparent" points="415.5,-238.2 415.5,-257.2 482.5,-257.2 482.5,-238.2 415.5,-238.2"/>
<polygon fill="none" stroke="#000000" points="415.5,-238.2 415.5,-257.2 482.5,-257.2 482.5,-238.2 415.5,-238.2"/>
<text text-anchor="start" x="452.6105" y="-244.3" font-family="Helvetica,sans-Serif" font-size="11.00" fill="#000000">1 row</text>
<polygon fill="#ffffff" stroke="transparent" points="482.5,-238.2 482.5,-257.2 530.5,-257.2 530.5,-238.2 482.5,-238.2"/>
<polygon fill="none" stroke="#000000" points="482.5,-238.2 482.5,-257.2 530.5,-257.2 530.5,-238.2 482.5,-238.2"/>
<text text-anchor="start" x="521.3862" y="-244.3" font-family="Helvetica,sans-Serif" font-size="11.00" fill="#000000"> &#160;</text>
</a>
</g>
</g>
<!-- DOCUMENT_TEMPLATE -->
<g id="node2" class="node">
<title>DOCUMENT_TEMPLATE</title>
<g id="a_node2"><a xlink:href="../../tables/DOCUMENT_TEMPLATE.html" xlink:title="DOCUMENT_TEMPLATE" target="_top">
<polygon fill="#ffffff" stroke="transparent" points="8,-38.2 8,-282.2 251,-282.2 251,-38.2 8,-38.2"/>
<polygon fill="#f5f5f5" stroke="transparent" points="10.5,-257.2 10.5,-280.2 249.5,-280.2 249.5,-257.2 10.5,-257.2"/>
<polygon fill="none" stroke="#000000" points="10.5,-257.2 10.5,-280.2 249.5,-280.2 249.5,-257.2 10.5,-257.2"/>
<text text-anchor="start" x="15.5" y="-266.3" font-family="Helvetica,sans-Serif" font-weight="bold" font-size="11.00" fill="#000000">DOCUMENT_TEMPLATE</text>
<text text-anchor="start" x="214.5437" y="-265.3" font-family="Helvetica,sans-Serif" font-size="11.00" fill="#000000">[table]</text>
<polygon fill="none" stroke="#000000" points="10.5,-235.2 10.5,-257.2 170.5,-257.2 170.5,-235.2 10.5,-235.2"/>
<image xlink:href="../../images/primaryKeys.png" width="11px" height="12px" preserveAspectRatio="xMinYMin meet" x="15.5" y="-252.2"/>
<text text-anchor="start" x="25.587" y="-242.3" font-family="Helvetica,sans-Serif" font-size="11.00" fill="#000000">DOCUMENT_TEMPLATE_ID</text>
<polygon fill="none" stroke="#000000" points="170.5,-235.2 170.5,-257.2 249.5,-257.2 249.5,-235.2 170.5,-235.2"/>
<text text-anchor="start" x="173.5" y="-242.9" font-family="Helvetica,sans-Serif" font-size="11.00" fill="#000000">number[38]</text>
<polygon fill="none" stroke="#000000" points="10.5,-213.2 10.5,-235.2 170.5,-235.2 170.5,-213.2 10.5,-213.2"/>
<image xlink:href="../../images/primaryKeys.png" width="11px" height="12px" preserveAspectRatio="xMinYMin meet" x="15.5" y="-230.2"/>
<text text-anchor="start" x="30.5" y="-220.3" font-family="Helvetica,sans-Serif" font-size="11.00" fill="#000000">TEMPLATE_NAME</text>
<polygon fill="none" stroke="#000000" points="170.5,-213.2 170.5,-235.2 249.5,-235.2 249.5,-213.2 170.5,-213.2"/>
<text text-anchor="start" x="173.5" y="-220.9" font-family="Helvetica,sans-Serif" font-size="11.00" fill="#000000">varchar2[200]</text>
<polygon fill="none" stroke="#000000" points="10.5,-191.2 10.5,-213.2 170.5,-213.2 170.5,-191.2 10.5,-191.2"/>
<text text-anchor="start" x="30.5" y="-198.3" font-family="Helvetica,sans-Serif" font-size="11.00" fill="#000000">DESCRIPTION</text>
<polygon fill="none" stroke="#000000" points="170.5,-191.2 170.5,-213.2 249.5,-213.2 249.5,-191.2 170.5,-191.2"/>
<text text-anchor="start" x="173.3216" y="-198.9" font-family="Helvetica,sans-Serif" font-size="11.00" fill="#000000">varchar2[4000]</text>
<polygon fill="none" stroke="#000000" points="10.5,-169.2 10.5,-191.2 170.5,-191.2 170.5,-169.2 10.5,-169.2"/>
<text text-anchor="start" x="30.5" y="-176.3" font-family="Helvetica,sans-Serif" font-size="11.00" fill="#000000">TEMPLATE</text>
<polygon fill="none" stroke="#000000" points="170.5,-169.2 170.5,-191.2 249.5,-191.2 249.5,-169.2 170.5,-169.2"/>
<text text-anchor="start" x="173.5" y="-176.9" font-family="Helvetica,sans-Serif" font-size="11.00" fill="#000000">blob[4000]</text>
<polygon fill="none" stroke="#000000" points="10.5,-147.2 10.5,-169.2 170.5,-169.2 170.5,-147.2 10.5,-147.2"/>
<text text-anchor="start" x="30.5" y="-154.3" font-family="Helvetica,sans-Serif" font-size="11.00" fill="#000000">DATE_CREATED_DATE</text>
<polygon fill="none" stroke="#000000" points="170.5,-147.2 170.5,-169.2 249.5,-169.2 249.5,-147.2 170.5,-147.2"/>
<text text-anchor="start" x="173.5" y="-154.9" font-family="Helvetica,sans-Serif" font-size="11.00" fill="#000000">date[7]</text>
<polygon fill="none" stroke="#000000" points="10.5,-125.2 10.5,-147.2 170.5,-147.2 170.5,-125.2 10.5,-125.2"/>
<text text-anchor="start" x="30.5" y="-132.3" font-family="Helvetica,sans-Serif" font-size="11.00" fill="#000000">ROW_VERSION</text>
<polygon fill="none" stroke="#000000" points="170.5,-125.2 170.5,-147.2 249.5,-147.2 249.5,-125.2 170.5,-125.2"/>
<text text-anchor="start" x="173.5" y="-132.9" font-family="Helvetica,sans-Serif" font-size="11.00" fill="#000000">number[38]</text>
<polygon fill="none" stroke="#000000" points="10.5,-103.2 10.5,-125.2 170.5,-125.2 170.5,-103.2 10.5,-103.2"/>
<image xlink:href="../../images/primaryKeys.png" width="11px" height="12px" preserveAspectRatio="xMinYMin meet" x="15.5" y="-120.2"/>
<text text-anchor="start" x="30.5" y="-110.3" font-family="Helvetica,sans-Serif" font-size="11.00" fill="#000000">TRAINING_SESSION_ID</text>
<polygon fill="none" stroke="#000000" points="170.5,-103.2 170.5,-125.2 249.5,-125.2 249.5,-103.2 170.5,-103.2"/>
<text text-anchor="start" x="173.5" y="-110.9" font-family="Helvetica,sans-Serif" font-size="11.00" fill="#000000">number[38]</text>
<polygon fill="none" stroke="#000000" points="10.5,-81.2 10.5,-103.2 170.5,-103.2 170.5,-81.2 10.5,-81.2"/>
<text text-anchor="start" x="30.5" y="-88.3" font-family="Helvetica,sans-Serif" font-size="11.00" fill="#000000">SECTOR</text>
<polygon fill="none" stroke="#000000" points="170.5,-81.2 170.5,-103.2 249.5,-103.2 249.5,-81.2 170.5,-81.2"/>
<text text-anchor="start" x="173.5" y="-88.9" font-family="Helvetica,sans-Serif" font-size="11.00" fill="#000000">varchar2[7]</text>
<polygon fill="none" stroke="#000000" points="10.5,-59.2 10.5,-81.2 170.5,-81.2 170.5,-59.2 10.5,-59.2"/>
<text text-anchor="start" x="30.5" y="-66.3" font-family="Helvetica,sans-Serif" font-size="11.00" fill="#000000">EXTERNAL_SERVICE</text>
<polygon fill="none" stroke="#000000" points="170.5,-59.2 170.5,-81.2 249.5,-81.2 249.5,-59.2 170.5,-59.2"/>
<text text-anchor="start" x="173.5" y="-66.9" font-family="Helvetica,sans-Serif" font-size="11.00" fill="#000000">varchar2[200]</text>
<polygon fill="#ffffff" stroke="transparent" points="10.5,-40.2 10.5,-59.2 78.5,-59.2 78.5,-40.2 10.5,-40.2"/>
<polygon fill="none" stroke="#000000" points="10.5,-40.2 10.5,-59.2 78.5,-59.2 78.5,-40.2 10.5,-40.2"/>
<text text-anchor="start" x="13.5" y="-46.3" font-family="Helvetica,sans-Serif" font-size="11.00" fill="#000000">&lt; 0</text>
<polygon fill="#ffffff" stroke="transparent" points="78.5,-40.2 78.5,-59.2 170.5,-59.2 170.5,-40.2 78.5,-40.2"/>
<polygon fill="none" stroke="#000000" points="78.5,-40.2 78.5,-59.2 170.5,-59.2 170.5,-40.2 78.5,-40.2"/>
<text text-anchor="start" x="128.9956" y="-46.3" font-family="Helvetica,sans-Serif" font-size="11.00" fill="#000000">16 rows</text>
<polygon fill="#ffffff" stroke="transparent" points="170.5,-40.2 170.5,-59.2 249.5,-59.2 249.5,-40.2 170.5,-40.2"/>
<polygon fill="none" stroke="#000000" points="170.5,-40.2 170.5,-59.2 249.5,-59.2 249.5,-40.2 170.5,-40.2"/>
<text text-anchor="start" x="230.9053" y="-46.3" font-family="Helvetica,sans-Serif" font-size="11.00" fill="#000000">2 &gt;</text>
<polygon fill="none" stroke="#000000" stroke-width="2" points="9,-39.2 9,-281.2 250,-281.2 250,-39.2 9,-39.2"/>
</a>
</g>
</g>
<!-- DOCUMENT_TEMPLATE_AREA&#45;&gt;DOCUMENT_TEMPLATE -->
<g id="edge1" class="edge">
<title>DOCUMENT_TEMPLATE_AREA:w&#45;&gt;DOCUMENT_TEMPLATE:e</title>
<path fill="none" stroke="#000000" d="M310.0882,-328.1748C278.9784,-313.033 294.174,-246.2 249.5,-246.2"/>
<polygon fill="#000000" stroke="#000000" points="316.6706,-329.5565 323.7604,-334.7232 320.5853,-330.3782 324.5,-331.2 324.5,-331.2 324.5,-331.2 320.5853,-330.3782 325.2396,-327.6768 316.6706,-329.5565 316.6706,-329.5565"/>
<ellipse fill="none" stroke="#000000" cx="313.5389" cy="-328.8991" rx="3.2" ry="3.2"/>
</g>
<!-- OBJECT_TYPE_DOCUMENT_TEMPLATE -->
<g id="node3" class="node">
<title>OBJECT_TYPE_DOCUMENT_TEMPLATE</title>
<g id="a_node3"><a xlink:href="../../tables/OBJECT_TYPE_DOCUMENT_TEMPLATE.html" xlink:title="OBJECT_TYPE_DOCUMENT_TEMPLATE" target="_top">
<polygon fill="#ffffff" stroke="transparent" points="300,-90.7 300,-217.7 555,-217.7 555,-90.7 300,-90.7"/>
<polygon fill="#f5f5f5" stroke="transparent" points="300.5,-194.2 300.5,-217.2 555.5,-217.2 555.5,-194.2 300.5,-194.2"/>
<polygon fill="none" stroke="#000000" points="300.5,-194.2 300.5,-217.2 555.5,-217.2 555.5,-194.2 300.5,-194.2"/>
<text text-anchor="start" x="305.4699" y="-203.3" font-family="Helvetica,sans-Serif" font-weight="bold" font-size="11.00" fill="#000000">OBJECT_TYPE_DOCUMENT_TEMPLATE</text>
<text text-anchor="start" x="521.0219" y="-202.3" font-family="Helvetica,sans-Serif" font-size="11.00" fill="#000000">[table]</text>
<polygon fill="none" stroke="#000000" points="300.5,-172.2 300.5,-194.2 555.5,-194.2 555.5,-172.2 300.5,-172.2"/>
<image xlink:href="../../images/primaryKeys.png" width="11px" height="12px" preserveAspectRatio="xMinYMin meet" x="305.5" y="-189.2"/>
<text text-anchor="start" x="335.5" y="-179.3" font-family="Helvetica,sans-Serif" font-size="11.00" fill="#000000">OBJECT_TYPE_DOC_TEMPLATE_ID</text>
<polygon fill="none" stroke="#000000" points="300.5,-150.2 300.5,-172.2 555.5,-172.2 555.5,-150.2 300.5,-150.2"/>
<image xlink:href="../../images/primaryKeys.png" width="11px" height="12px" preserveAspectRatio="xMinYMin meet" x="305.5" y="-167.2"/>
<text text-anchor="start" x="335.5" y="-157.3" font-family="Helvetica,sans-Serif" font-size="11.00" fill="#000000">DOCUMENT_TEMPLATE_ID</text>
<polygon fill="none" stroke="#000000" points="300.5,-128.2 300.5,-150.2 555.5,-150.2 555.5,-128.2 300.5,-128.2"/>
<image xlink:href="../../images/primaryKeys.png" width="11px" height="12px" preserveAspectRatio="xMinYMin meet" x="305.5" y="-145.2"/>
<text text-anchor="start" x="335.5" y="-135.3" font-family="Helvetica,sans-Serif" font-size="11.00" fill="#000000">TRAINING_SESSION_ID</text>
<polygon fill="none" stroke="#000000" points="300.5,-109.2 300.5,-128.2 555.5,-128.2 555.5,-109.2 300.5,-109.2"/>
<text text-anchor="start" x="303.5" y="-115.3" font-family="Helvetica,sans-Serif" font-size="11.00" fill="#000000">...</text>
<polygon fill="#ffffff" stroke="transparent" points="300.5,-90.2 300.5,-109.2 407.5,-109.2 407.5,-90.2 300.5,-90.2"/>
<polygon fill="none" stroke="#000000" points="300.5,-90.2 300.5,-109.2 407.5,-109.2 407.5,-90.2 300.5,-90.2"/>
<text text-anchor="start" x="303.5" y="-96.3" font-family="Helvetica,sans-Serif" font-size="11.00" fill="#000000">&lt; 1</text>
<polygon fill="#ffffff" stroke="transparent" points="407.5,-90.2 407.5,-109.2 500.5,-109.2 500.5,-90.2 407.5,-90.2"/>
<polygon fill="none" stroke="#000000" points="407.5,-90.2 407.5,-109.2 500.5,-109.2 500.5,-90.2 407.5,-90.2"/>
<text text-anchor="start" x="452.8807" y="-96.3" font-family="Helvetica,sans-Serif" font-size="11.00" fill="#000000">147 rows</text>
<polygon fill="#ffffff" stroke="transparent" points="500.5,-90.2 500.5,-109.2 555.5,-109.2 555.5,-90.2 500.5,-90.2"/>
<polygon fill="none" stroke="#000000" points="500.5,-90.2 500.5,-109.2 555.5,-109.2 555.5,-90.2 500.5,-90.2"/>
<text text-anchor="start" x="546.3862" y="-96.3" font-family="Helvetica,sans-Serif" font-size="11.00" fill="#000000"> &#160;</text>
</a>
</g>
</g>
<!-- OBJECT_TYPE_DOCUMENT_TEMPLATE&#45;&gt;DOCUMENT_TEMPLATE -->
<g id="edge2" class="edge">
<title>OBJECT_TYPE_DOCUMENT_TEMPLATE:w&#45;&gt;DOCUMENT_TEMPLATE:e</title>
<path fill="none" stroke="#000000" d="M286.5669,-165.532C265.0746,-182.8534 287.5328,-246.2 249.5,-246.2"/>
<polygon fill="#000000" stroke="#000000" points="292.8607,-163.5752 301.5688,-164.6377 296.6804,-162.3876 300.5,-161.2 300.5,-161.2 300.5,-161.2 296.6804,-162.3876 299.4312,-157.7623 292.8607,-163.5752 292.8607,-163.5752"/>
<ellipse fill="none" stroke="#000000" cx="289.805" cy="-164.5253" rx="3.2" ry="3.2"/>
</g>
</g>
</svg>
