<?xml version="1.0" encoding="UTF-8" standalone="no"?>
<!DOCTYPE svg PUBLIC "-//W3C//DTD SVG 1.1//EN"
 "http://www.w3.org/Graphics/SVG/1.1/DTD/svg11.dtd">
<!-- Generated by graphviz version 2.40.1 (20161225.0304)
 -->
<!-- Title: oneDegreeRelationshipsDiagram Pages: 1 -->
<svg width="526pt" height="567pt"
 viewBox="0.00 0.00 526.00 567.20" xmlns="http://www.w3.org/2000/svg" xmlns:xlink="http://www.w3.org/1999/xlink">
<g id="graph0" class="graph" transform="scale(1 1) rotate(0) translate(4 563.2)">
<title>oneDegreeRelationshipsDiagram</title>
<polygon fill="#ffffff" stroke="transparent" points="-4,4 -4,-563.2 522,-563.2 522,4 -4,4"/>
<text text-anchor="middle" x="72.4936" y="-7.3" font-family="Helvetica,sans-Serif" font-size="11.00" fill="#000000">Generated by SchemaSpy</text>
<!-- DOCUMENT_TEMPLATE_AREA -->
<g id="node1" class="node">
<title>DOCUMENT_TEMPLATE_AREA</title>
<g id="a_node1"><a xlink:href="../../tables/DOCUMENT_TEMPLATE_AREA.html" xlink:title="DOCUMENT_TEMPLATE_AREA" target="_top">
<polygon fill="#ffffff" stroke="transparent" points="269,-348.7 269,-482.7 510,-482.7 510,-348.7 269,-348.7"/>
<polygon fill="#f5f5f5" stroke="transparent" points="271.5,-457.7 271.5,-480.7 508.5,-480.7 508.5,-457.7 271.5,-457.7"/>
<polygon fill="none" stroke="#000000" points="271.5,-457.7 271.5,-480.7 508.5,-480.7 508.5,-457.7 271.5,-457.7"/>
<text text-anchor="start" x="276.5" y="-466.8" font-family="Helvetica,sans-Serif" font-weight="bold" font-size="11.00" fill="#000000">DOCUMENT_TEMPLATE_AREA</text>
<text text-anchor="start" x="473.5437" y="-465.8" font-family="Helvetica,sans-Serif" font-size="11.00" fill="#000000">[table]</text>
<polygon fill="none" stroke="#000000" points="271.5,-435.7 271.5,-457.7 447.5,-457.7 447.5,-435.7 271.5,-435.7"/>
<image xlink:href="../../images/primaryKeys.png" width="11px" height="12px" preserveAspectRatio="xMinYMin meet" x="276.5" y="-452.7"/>
<text text-anchor="start" x="291.5" y="-442.8" font-family="Helvetica,sans-Serif" font-size="11.00" fill="#000000">DOCUMENT_TEMPLATE_ID</text>
<polygon fill="none" stroke="#000000" points="447.5,-435.7 447.5,-457.7 508.5,-457.7 508.5,-435.7 447.5,-435.7"/>
<text text-anchor="start" x="450.1865" y="-443.4" font-family="Helvetica,sans-Serif" font-size="11.00" fill="#000000">number[38]</text>
<polygon fill="none" stroke="#000000" points="271.5,-413.7 271.5,-435.7 447.5,-435.7 447.5,-413.7 271.5,-413.7"/>
<image xlink:href="../../images/primaryKeys.png" width="11px" height="12px" preserveAspectRatio="xMinYMin meet" x="276.5" y="-430.7"/>
<text text-anchor="start" x="291.5" y="-420.8" font-family="Helvetica,sans-Serif" font-size="11.00" fill="#000000">PROBATION_AREA_ID</text>
<polygon fill="none" stroke="#000000" points="447.5,-413.7 447.5,-435.7 508.5,-435.7 508.5,-413.7 447.5,-413.7"/>
<text text-anchor="start" x="450.1865" y="-421.4" font-family="Helvetica,sans-Serif" font-size="11.00" fill="#000000">number[38]</text>
<polygon fill="none" stroke="#000000" points="271.5,-391.7 271.5,-413.7 447.5,-413.7 447.5,-391.7 271.5,-391.7"/>
<text text-anchor="start" x="291.5" y="-398.8" font-family="Helvetica,sans-Serif" font-size="11.00" fill="#000000">ROW_VERSION</text>
<polygon fill="none" stroke="#000000" points="447.5,-391.7 447.5,-413.7 508.5,-413.7 508.5,-391.7 447.5,-391.7"/>
<text text-anchor="start" x="450.1865" y="-399.4" font-family="Helvetica,sans-Serif" font-size="11.00" fill="#000000">number[38]</text>
<polygon fill="none" stroke="#000000" points="271.5,-369.7 271.5,-391.7 447.5,-391.7 447.5,-369.7 271.5,-369.7"/>
<image xlink:href="../../images/primaryKeys.png" width="11px" height="12px" preserveAspectRatio="xMinYMin meet" x="276.5" y="-386.7"/>
<text text-anchor="start" x="291.5" y="-376.8" font-family="Helvetica,sans-Serif" font-size="11.00" fill="#000000">TRAINING_SESSION_ID</text>
<polygon fill="none" stroke="#000000" points="447.5,-369.7 447.5,-391.7 508.5,-391.7 508.5,-369.7 447.5,-369.7"/>
<text text-anchor="start" x="450.1865" y="-377.4" font-family="Helvetica,sans-Serif" font-size="11.00" fill="#000000">number[38]</text>
<polygon fill="#ffffff" stroke="transparent" points="271.5,-350.7 271.5,-369.7 353.5,-369.7 353.5,-350.7 271.5,-350.7"/>
<polygon fill="none" stroke="#000000" points="271.5,-350.7 271.5,-369.7 353.5,-369.7 353.5,-350.7 271.5,-350.7"/>
<text text-anchor="start" x="274.5" y="-356.8" font-family="Helvetica,sans-Serif" font-size="11.00" fill="#000000">&lt; 2</text>
<polygon fill="#ffffff" stroke="transparent" points="353.5,-350.7 353.5,-369.7 447.5,-369.7 447.5,-350.7 353.5,-350.7"/>
<polygon fill="none" stroke="#000000" points="353.5,-350.7 353.5,-369.7 447.5,-369.7 447.5,-350.7 353.5,-350.7"/>
<text text-anchor="start" x="417.6105" y="-356.8" font-family="Helvetica,sans-Serif" font-size="11.00" fill="#000000">1 row</text>
<polygon fill="#ffffff" stroke="transparent" points="447.5,-350.7 447.5,-369.7 508.5,-369.7 508.5,-350.7 447.5,-350.7"/>
<polygon fill="none" stroke="#000000" points="447.5,-350.7 447.5,-369.7 508.5,-369.7 508.5,-350.7 447.5,-350.7"/>
<text text-anchor="start" x="489.9053" y="-356.8" font-family="Helvetica,sans-Serif" font-size="11.00" fill="#000000">0 &gt;</text>
<polygon fill="none" stroke="#000000" stroke-width="2" points="270,-349.7 270,-481.7 509,-481.7 509,-349.7 270,-349.7"/>
</a>
</g>
</g>
<!-- DOCUMENT_TEMPLATE -->
<g id="node2" class="node">
<title>DOCUMENT_TEMPLATE</title>
<g id="a_node2"><a xlink:href="../../tables/DOCUMENT_TEMPLATE.html" xlink:title="DOCUMENT_TEMPLATE" target="_top">
<polygon fill="#ffffff" stroke="transparent" points="29,-406.2 29,-555.2 199,-555.2 199,-406.2 29,-406.2"/>
<polygon fill="#f5f5f5" stroke="transparent" points="29,-531.7 29,-554.7 199,-554.7 199,-531.7 29,-531.7"/>
<polygon fill="none" stroke="#000000" points="29,-531.7 29,-554.7 199,-554.7 199,-531.7 29,-531.7"/>
<text text-anchor="start" x="33.6434" y="-540.8" font-family="Helvetica,sans-Serif" font-weight="bold" font-size="11.00" fill="#000000">DOCUMENT_TEMPLATE</text>
<text text-anchor="start" x="164.5219" y="-539.8" font-family="Helvetica,sans-Serif" font-size="11.00" fill="#000000">[table]</text>
<polygon fill="none" stroke="#000000" points="29,-509.7 29,-531.7 199,-531.7 199,-509.7 29,-509.7"/>
<image xlink:href="../../images/primaryKeys.png" width="11px" height="12px" preserveAspectRatio="xMinYMin meet" x="34" y="-526.7"/>
<text text-anchor="start" x="49.587" y="-516.8" font-family="Helvetica,sans-Serif" font-size="11.00" fill="#000000">DOCUMENT_TEMPLATE_ID</text>
<polygon fill="none" stroke="#000000" points="29,-487.7 29,-509.7 199,-509.7 199,-487.7 29,-487.7"/>
<image xlink:href="../../images/primaryKeys.png" width="11px" height="12px" preserveAspectRatio="xMinYMin meet" x="34" y="-504.7"/>
<text text-anchor="start" x="50" y="-494.8" font-family="Helvetica,sans-Serif" font-size="11.00" fill="#000000">TEMPLATE_NAME</text>
<polygon fill="none" stroke="#000000" points="29,-465.7 29,-487.7 199,-487.7 199,-465.7 29,-465.7"/>
<image xlink:href="../../images/primaryKeys.png" width="11px" height="12px" preserveAspectRatio="xMinYMin meet" x="34" y="-482.7"/>
<text text-anchor="start" x="50" y="-472.8" font-family="Helvetica,sans-Serif" font-size="11.00" fill="#000000">TRAINING_SESSION_ID</text>
<polygon fill="none" stroke="#000000" points="29,-443.7 29,-465.7 199,-465.7 199,-443.7 29,-443.7"/>
<image xlink:href="../../images/primaryKeys.png" width="11px" height="12px" preserveAspectRatio="xMinYMin meet" x="34" y="-460.7"/>
<text text-anchor="start" x="45.3041" y="-450.8" font-family="Helvetica,sans-Serif" font-size="11.00" fill="#000000">BUSINESS_INTERACTION_ID</text>
<polygon fill="none" stroke="#000000" points="29,-424.7 29,-443.7 199,-443.7 199,-424.7 29,-424.7"/>
<text text-anchor="start" x="32" y="-430.8" font-family="Helvetica,sans-Serif" font-size="11.00" fill="#000000">...</text>
<polygon fill="#ffffff" stroke="transparent" points="29,-405.7 29,-424.7 92,-424.7 92,-405.7 29,-405.7"/>
<polygon fill="none" stroke="#000000" points="29,-405.7 29,-424.7 92,-424.7 92,-405.7 29,-405.7"/>
<text text-anchor="start" x="32" y="-411.8" font-family="Helvetica,sans-Serif" font-size="11.00" fill="#000000">&lt; 1</text>
<polygon fill="#ffffff" stroke="transparent" points="92,-405.7 92,-424.7 157,-424.7 157,-405.7 92,-405.7"/>
<polygon fill="none" stroke="#000000" points="92,-405.7 92,-424.7 157,-424.7 157,-405.7 92,-405.7"/>
<text text-anchor="start" x="115.4956" y="-411.8" font-family="Helvetica,sans-Serif" font-size="11.00" fill="#000000">16 rows</text>
<polygon fill="#ffffff" stroke="transparent" points="157,-405.7 157,-424.7 199,-424.7 199,-405.7 157,-405.7"/>
<polygon fill="none" stroke="#000000" points="157,-405.7 157,-424.7 199,-424.7 199,-405.7 157,-405.7"/>
<text text-anchor="start" x="180.4053" y="-411.8" font-family="Helvetica,sans-Serif" font-size="11.00" fill="#000000">2 &gt;</text>
</a>
</g>
</g>
<!-- DOCUMENT_TEMPLATE_AREA&#45;&gt;DOCUMENT_TEMPLATE -->
<g id="edge1" class="edge">
<title>DOCUMENT_TEMPLATE_AREA:w&#45;&gt;DOCUMENT_TEMPLATE:e</title>
<path fill="none" stroke="#000000" d="M257.0539,-449.8797C229.3281,-464.0438 239.2876,-520.7 199,-520.7"/>
<polygon fill="#000000" stroke="#000000" points="263.687,-448.4197 272.2739,-450.2158 267.5935,-447.5599 271.5,-446.7 271.5,-446.7 271.5,-446.7 267.5935,-447.5599 270.7261,-443.1842 263.687,-448.4197 263.687,-448.4197"/>
<ellipse fill="none" stroke="#000000" cx="260.5618" cy="-449.1076" rx="3.2" ry="3.2"/>
</g>
<!-- PROBATION_AREA -->
<g id="node3" class="node">
<title>PROBATION_AREA</title>
<g id="a_node3"><a xlink:href="../../tables/PROBATION_AREA.html" xlink:title="PROBATION_AREA" target="_top">
<polygon fill="#ffffff" stroke="transparent" points="8,-38.2 8,-385.2 220,-385.2 220,-38.2 8,-38.2"/>
<polygon fill="#f5f5f5" stroke="transparent" points="8,-361.7 8,-384.7 220,-384.7 220,-361.7 8,-361.7"/>
<polygon fill="none" stroke="#000000" points="8,-361.7 8,-384.7 220,-384.7 220,-361.7 8,-361.7"/>
<text text-anchor="start" x="13" y="-370.8" font-family="Helvetica,sans-Serif" font-weight="bold" font-size="11.00" fill="#000000">PROBATION_AREA</text>
<text text-anchor="start" x="185.0437" y="-369.8" font-family="Helvetica,sans-Serif" font-size="11.00" fill="#000000">[table]</text>
<polygon fill="none" stroke="#000000" points="8,-339.7 8,-361.7 220,-361.7 220,-339.7 8,-339.7"/>
<image xlink:href="../../images/primaryKeys.png" width="11px" height="12px" preserveAspectRatio="xMinYMin meet" x="13" y="-356.7"/>
<text text-anchor="start" x="28" y="-346.8" font-family="Helvetica,sans-Serif" font-size="11.00" fill="#000000">PROBATION_AREA_ID</text>
<polygon fill="none" stroke="#000000" points="8,-317.7 8,-339.7 220,-339.7 220,-317.7 8,-317.7"/>
<image xlink:href="../../images/primaryKeys.png" width="11px" height="12px" preserveAspectRatio="xMinYMin meet" x="13" y="-334.7"/>
<text text-anchor="start" x="28" y="-324.8" font-family="Helvetica,sans-Serif" font-size="11.00" fill="#000000">CODE</text>
<polygon fill="none" stroke="#000000" points="8,-295.7 8,-317.7 220,-317.7 220,-295.7 8,-295.7"/>
<image xlink:href="../../images/primaryKeys.png" width="11px" height="12px" preserveAspectRatio="xMinYMin meet" x="13" y="-312.7"/>
<text text-anchor="start" x="28" y="-302.8" font-family="Helvetica,sans-Serif" font-size="11.00" fill="#000000">FORM_20_CODE</text>
<polygon fill="none" stroke="#000000" points="8,-273.7 8,-295.7 220,-295.7 220,-273.7 8,-273.7"/>
<image xlink:href="../../images/primaryKeys.png" width="11px" height="12px" preserveAspectRatio="xMinYMin meet" x="13" y="-290.7"/>
<text text-anchor="start" x="28" y="-280.8" font-family="Helvetica,sans-Serif" font-size="11.00" fill="#000000">HO_AREA_CODE</text>
<polygon fill="none" stroke="#000000" points="8,-251.7 8,-273.7 220,-273.7 220,-251.7 8,-251.7"/>
<image xlink:href="../../images/primaryKeys.png" width="11px" height="12px" preserveAspectRatio="xMinYMin meet" x="13" y="-268.7"/>
<text text-anchor="start" x="28" y="-258.8" font-family="Helvetica,sans-Serif" font-size="11.00" fill="#000000">TRAINING_SESSION_ID</text>
<polygon fill="none" stroke="#000000" points="8,-229.7 8,-251.7 220,-251.7 220,-229.7 8,-229.7"/>
<image xlink:href="../../images/primaryKeys.png" width="11px" height="12px" preserveAspectRatio="xMinYMin meet" x="13" y="-246.7"/>
<text text-anchor="start" x="28" y="-236.8" font-family="Helvetica,sans-Serif" font-size="11.00" fill="#000000">ORGANISATION_ID</text>
<polygon fill="none" stroke="#000000" points="8,-207.7 8,-229.7 220,-229.7 220,-207.7 8,-207.7"/>
<image xlink:href="../../images/primaryKeys.png" width="11px" height="12px" preserveAspectRatio="xMinYMin meet" x="13" y="-224.7"/>
<text text-anchor="start" x="28" y="-214.8" font-family="Helvetica,sans-Serif" font-size="11.00" fill="#000000">ADDRESS_ID</text>
<polygon fill="none" stroke="#000000" points="8,-185.7 8,-207.7 220,-207.7 220,-185.7 8,-185.7"/>
<image xlink:href="../../images/primaryKeys.png" width="11px" height="12px" preserveAspectRatio="xMinYMin meet" x="13" y="-202.7"/>
<text text-anchor="start" x="28" y="-192.8" font-family="Helvetica,sans-Serif" font-size="11.00" fill="#000000">SPG_ACTIVE_ID</text>
<polygon fill="none" stroke="#000000" points="8,-163.7 8,-185.7 220,-185.7 220,-163.7 8,-163.7"/>
<image xlink:href="../../images/primaryKeys.png" width="11px" height="12px" preserveAspectRatio="xMinYMin meet" x="13" y="-180.7"/>
<text text-anchor="start" x="28" y="-170.8" font-family="Helvetica,sans-Serif" font-size="11.00" fill="#000000">INSTITUTION_ID</text>
<polygon fill="none" stroke="#000000" points="8,-141.7 8,-163.7 220,-163.7 220,-141.7 8,-141.7"/>
<image xlink:href="../../images/primaryKeys.png" width="11px" height="12px" preserveAspectRatio="xMinYMin meet" x="13" y="-158.7"/>
<text text-anchor="start" x="28" y="-148.8" font-family="Helvetica,sans-Serif" font-size="11.00" fill="#000000">ESTABLISHMENT</text>
<polygon fill="none" stroke="#000000" points="8,-119.7 8,-141.7 220,-141.7 220,-119.7 8,-119.7"/>
<image xlink:href="../../images/primaryKeys.png" width="11px" height="12px" preserveAspectRatio="xMinYMin meet" x="13" y="-136.7"/>
<text text-anchor="start" x="28" y="-126.8" font-family="Helvetica,sans-Serif" font-size="11.00" fill="#000000">DEFAULT_TRANSFER_TEAM_ID</text>
<polygon fill="none" stroke="#000000" points="8,-97.7 8,-119.7 220,-119.7 220,-97.7 8,-97.7"/>
<image xlink:href="../../images/primaryKeys.png" width="11px" height="12px" preserveAspectRatio="xMinYMin meet" x="13" y="-114.7"/>
<text text-anchor="start" x="28" y="-104.8" font-family="Helvetica,sans-Serif" font-size="11.00" fill="#000000">DEFAULT_COURT_TEAM_ID</text>
<polygon fill="none" stroke="#000000" points="8,-75.7 8,-97.7 220,-97.7 220,-75.7 8,-75.7"/>
<image xlink:href="../../images/primaryKeys.png" width="11px" height="12px" preserveAspectRatio="xMinYMin meet" x="13" y="-92.7"/>
<text text-anchor="start" x="28" y="-82.8" font-family="Helvetica,sans-Serif" font-size="11.00" fill="#000000">DEFAULT_POSTCODE_TEAM_ID</text>
<polygon fill="none" stroke="#000000" points="8,-56.7 8,-75.7 220,-75.7 220,-56.7 8,-56.7"/>
<text text-anchor="start" x="11" y="-62.8" font-family="Helvetica,sans-Serif" font-size="11.00" fill="#000000">...</text>
<polygon fill="#ffffff" stroke="transparent" points="8,-37.7 8,-56.7 86,-56.7 86,-37.7 8,-37.7"/>
<polygon fill="none" stroke="#000000" points="8,-37.7 8,-56.7 86,-56.7 86,-37.7 8,-37.7"/>
<text text-anchor="start" x="11" y="-43.8" font-family="Helvetica,sans-Serif" font-size="11.00" fill="#000000">&lt; 8</text>
<polygon fill="#ffffff" stroke="transparent" points="86,-37.7 86,-56.7 164,-56.7 164,-37.7 86,-37.7"/>
<polygon fill="none" stroke="#000000" points="86,-37.7 86,-56.7 164,-56.7 164,-37.7 86,-37.7"/>
<text text-anchor="start" x="116.3807" y="-43.8" font-family="Helvetica,sans-Serif" font-size="11.00" fill="#000000">223 rows</text>
<polygon fill="#ffffff" stroke="transparent" points="164,-37.7 164,-56.7 220,-56.7 220,-37.7 164,-37.7"/>
<polygon fill="none" stroke="#000000" points="164,-37.7 164,-56.7 220,-56.7 220,-37.7 164,-37.7"/>
<text text-anchor="start" x="195.2904" y="-43.8" font-family="Helvetica,sans-Serif" font-size="11.00" fill="#000000">70 &gt;</text>
</a>
</g>
</g>
<!-- DOCUMENT_TEMPLATE_AREA&#45;&gt;PROBATION_AREA -->
<g id="edge2" class="edge">
<title>DOCUMENT_TEMPLATE_AREA:w&#45;&gt;PROBATION_AREA:e</title>
<path fill="none" stroke="#000000" d="M257.7488,-420.2926C238.4187,-404.3617 254.1218,-350.7 220,-350.7"/>
<polygon fill="#000000" stroke="#000000" points="263.8817,-422.2582 270.4012,-428.1282 267.6909,-423.4791 271.5,-424.7 271.5,-424.7 271.5,-424.7 267.6909,-423.4791 272.5988,-421.2718 263.8817,-422.2582 263.8817,-422.2582"/>
<ellipse fill="none" stroke="#000000" cx="260.8344" cy="-421.2815" rx="3.2" ry="3.2"/>
</g>
</g>
</svg>
