<?xml version="1.0" encoding="UTF-8" standalone="no"?>
<!DOCTYPE svg PUBLIC "-//W3C//DTD SVG 1.1//EN"
 "http://www.w3.org/Graphics/SVG/1.1/DTD/svg11.dtd">
<!-- Generated by graphviz version 2.40.1 (20161225.0304)
 -->
<!-- Title: twoDegreesRelationshipsDiagram Pages: 1 -->
<svg width="571pt" height="397pt"
 viewBox="0.00 0.00 571.00 397.20" xmlns="http://www.w3.org/2000/svg" xmlns:xlink="http://www.w3.org/1999/xlink">
<g id="graph0" class="graph" transform="scale(1 1) rotate(0) translate(4 393.2)">
<title>twoDegreesRelationshipsDiagram</title>
<polygon fill="#ffffff" stroke="transparent" points="-4,4 -4,-393.2 567,-393.2 567,4 -4,4"/>
<text text-anchor="middle" x="72.4936" y="-7.3" font-family="Helvetica,sans-Serif" font-size="11.00" fill="#000000">Generated by SchemaSpy</text>
<!-- DOCUMENT_TEMPLATE_AREA -->
<g id="node1" class="node">
<title>DOCUMENT_TEMPLATE_AREA</title>
<g id="a_node1"><a xlink:href="../../tables/DOCUMENT_TEMPLATE_AREA.html" xlink:title="DOCUMENT_TEMPLATE_AREA" target="_top">
<polygon fill="#ffffff" stroke="transparent" points="324.5,-52.2 324.5,-179.2 530.5,-179.2 530.5,-52.2 324.5,-52.2"/>
<polygon fill="#f5f5f5" stroke="transparent" points="324.5,-155.7 324.5,-178.7 530.5,-178.7 530.5,-155.7 324.5,-155.7"/>
<polygon fill="none" stroke="#000000" points="324.5,-155.7 324.5,-178.7 530.5,-178.7 530.5,-155.7 324.5,-155.7"/>
<text text-anchor="start" x="329.1116" y="-164.8" font-family="Helvetica,sans-Serif" font-weight="bold" font-size="11.00" fill="#000000">DOCUMENT_TEMPLATE_AREA</text>
<text text-anchor="start" x="496.0219" y="-163.8" font-family="Helvetica,sans-Serif" font-size="11.00" fill="#000000">[table]</text>
<polygon fill="none" stroke="#000000" points="324.5,-133.7 324.5,-155.7 530.5,-155.7 530.5,-133.7 324.5,-133.7"/>
<image xlink:href="../../images/primaryKeys.png" width="11px" height="12px" preserveAspectRatio="xMinYMin meet" x="329.5" y="-150.7"/>
<text text-anchor="start" x="359.5" y="-140.8" font-family="Helvetica,sans-Serif" font-size="11.00" fill="#000000">DOCUMENT_TEMPLATE_ID</text>
<polygon fill="none" stroke="#000000" points="324.5,-111.7 324.5,-133.7 530.5,-133.7 530.5,-111.7 324.5,-111.7"/>
<image xlink:href="../../images/primaryKeys.png" width="11px" height="12px" preserveAspectRatio="xMinYMin meet" x="329.5" y="-128.7"/>
<text text-anchor="start" x="359.5" y="-118.8" font-family="Helvetica,sans-Serif" font-size="11.00" fill="#000000">PROBATION_AREA_ID</text>
<polygon fill="none" stroke="#000000" points="324.5,-89.7 324.5,-111.7 530.5,-111.7 530.5,-89.7 324.5,-89.7"/>
<image xlink:href="../../images/primaryKeys.png" width="11px" height="12px" preserveAspectRatio="xMinYMin meet" x="329.5" y="-106.7"/>
<text text-anchor="start" x="359.5" y="-96.8" font-family="Helvetica,sans-Serif" font-size="11.00" fill="#000000">TRAINING_SESSION_ID</text>
<polygon fill="none" stroke="#000000" points="324.5,-70.7 324.5,-89.7 530.5,-89.7 530.5,-70.7 324.5,-70.7"/>
<text text-anchor="start" x="327.5" y="-76.8" font-family="Helvetica,sans-Serif" font-size="11.00" fill="#000000">...</text>
<polygon fill="#ffffff" stroke="transparent" points="324.5,-51.7 324.5,-70.7 415.5,-70.7 415.5,-51.7 324.5,-51.7"/>
<polygon fill="none" stroke="#000000" points="324.5,-51.7 324.5,-70.7 415.5,-70.7 415.5,-51.7 324.5,-51.7"/>
<text text-anchor="start" x="327.5" y="-57.8" font-family="Helvetica,sans-Serif" font-size="11.00" fill="#000000">&lt; 2</text>
<polygon fill="#ffffff" stroke="transparent" points="415.5,-51.7 415.5,-70.7 482.5,-70.7 482.5,-51.7 415.5,-51.7"/>
<polygon fill="none" stroke="#000000" points="415.5,-51.7 415.5,-70.7 482.5,-70.7 482.5,-51.7 415.5,-51.7"/>
<text text-anchor="start" x="452.6105" y="-57.8" font-family="Helvetica,sans-Serif" font-size="11.00" fill="#000000">1 row</text>
<polygon fill="#ffffff" stroke="transparent" points="482.5,-51.7 482.5,-70.7 530.5,-70.7 530.5,-51.7 482.5,-51.7"/>
<polygon fill="none" stroke="#000000" points="482.5,-51.7 482.5,-70.7 530.5,-70.7 530.5,-51.7 482.5,-51.7"/>
<text text-anchor="start" x="521.3862" y="-57.8" font-family="Helvetica,sans-Serif" font-size="11.00" fill="#000000"> &#160;</text>
</a>
</g>
</g>
<!-- DOCUMENT_TEMPLATE -->
<g id="node2" class="node">
<title>DOCUMENT_TEMPLATE</title>
<g id="a_node2"><a xlink:href="../../tables/DOCUMENT_TEMPLATE.html" xlink:title="DOCUMENT_TEMPLATE" target="_top">
<polygon fill="#ffffff" stroke="transparent" points="8,-120.7 8,-364.7 251,-364.7 251,-120.7 8,-120.7"/>
<polygon fill="#f5f5f5" stroke="transparent" points="10.5,-339.7 10.5,-362.7 249.5,-362.7 249.5,-339.7 10.5,-339.7"/>
<polygon fill="none" stroke="#000000" points="10.5,-339.7 10.5,-362.7 249.5,-362.7 249.5,-339.7 10.5,-339.7"/>
<text text-anchor="start" x="15.5" y="-348.8" font-family="Helvetica,sans-Serif" font-weight="bold" font-size="11.00" fill="#000000">DOCUMENT_TEMPLATE</text>
<text text-anchor="start" x="214.5437" y="-347.8" font-family="Helvetica,sans-Serif" font-size="11.00" fill="#000000">[table]</text>
<polygon fill="none" stroke="#000000" points="10.5,-317.7 10.5,-339.7 170.5,-339.7 170.5,-317.7 10.5,-317.7"/>
<image xlink:href="../../images/primaryKeys.png" width="11px" height="12px" preserveAspectRatio="xMinYMin meet" x="15.5" y="-334.7"/>
<text text-anchor="start" x="25.587" y="-324.8" font-family="Helvetica,sans-Serif" font-size="11.00" fill="#000000">DOCUMENT_TEMPLATE_ID</text>
<polygon fill="none" stroke="#000000" points="170.5,-317.7 170.5,-339.7 249.5,-339.7 249.5,-317.7 170.5,-317.7"/>
<text text-anchor="start" x="173.5" y="-325.4" font-family="Helvetica,sans-Serif" font-size="11.00" fill="#000000">number[38]</text>
<polygon fill="none" stroke="#000000" points="10.5,-295.7 10.5,-317.7 170.5,-317.7 170.5,-295.7 10.5,-295.7"/>
<image xlink:href="../../images/primaryKeys.png" width="11px" height="12px" preserveAspectRatio="xMinYMin meet" x="15.5" y="-312.7"/>
<text text-anchor="start" x="30.5" y="-302.8" font-family="Helvetica,sans-Serif" font-size="11.00" fill="#000000">TEMPLATE_NAME</text>
<polygon fill="none" stroke="#000000" points="170.5,-295.7 170.5,-317.7 249.5,-317.7 249.5,-295.7 170.5,-295.7"/>
<text text-anchor="start" x="173.5" y="-303.4" font-family="Helvetica,sans-Serif" font-size="11.00" fill="#000000">varchar2[200]</text>
<polygon fill="none" stroke="#000000" points="10.5,-273.7 10.5,-295.7 170.5,-295.7 170.5,-273.7 10.5,-273.7"/>
<text text-anchor="start" x="30.5" y="-280.8" font-family="Helvetica,sans-Serif" font-size="11.00" fill="#000000">DESCRIPTION</text>
<polygon fill="none" stroke="#000000" points="170.5,-273.7 170.5,-295.7 249.5,-295.7 249.5,-273.7 170.5,-273.7"/>
<text text-anchor="start" x="173.3216" y="-281.4" font-family="Helvetica,sans-Serif" font-size="11.00" fill="#000000">varchar2[4000]</text>
<polygon fill="none" stroke="#000000" points="10.5,-251.7 10.5,-273.7 170.5,-273.7 170.5,-251.7 10.5,-251.7"/>
<text text-anchor="start" x="30.5" y="-258.8" font-family="Helvetica,sans-Serif" font-size="11.00" fill="#000000">TEMPLATE</text>
<polygon fill="none" stroke="#000000" points="170.5,-251.7 170.5,-273.7 249.5,-273.7 249.5,-251.7 170.5,-251.7"/>
<text text-anchor="start" x="173.5" y="-259.4" font-family="Helvetica,sans-Serif" font-size="11.00" fill="#000000">blob[4000]</text>
<polygon fill="none" stroke="#000000" points="10.5,-229.7 10.5,-251.7 170.5,-251.7 170.5,-229.7 10.5,-229.7"/>
<text text-anchor="start" x="30.5" y="-236.8" font-family="Helvetica,sans-Serif" font-size="11.00" fill="#000000">DATE_CREATED_DATE</text>
<polygon fill="none" stroke="#000000" points="170.5,-229.7 170.5,-251.7 249.5,-251.7 249.5,-229.7 170.5,-229.7"/>
<text text-anchor="start" x="173.5" y="-237.4" font-family="Helvetica,sans-Serif" font-size="11.00" fill="#000000">date[7]</text>
<polygon fill="none" stroke="#000000" points="10.5,-207.7 10.5,-229.7 170.5,-229.7 170.5,-207.7 10.5,-207.7"/>
<text text-anchor="start" x="30.5" y="-214.8" font-family="Helvetica,sans-Serif" font-size="11.00" fill="#000000">ROW_VERSION</text>
<polygon fill="none" stroke="#000000" points="170.5,-207.7 170.5,-229.7 249.5,-229.7 249.5,-207.7 170.5,-207.7"/>
<text text-anchor="start" x="173.5" y="-215.4" font-family="Helvetica,sans-Serif" font-size="11.00" fill="#000000">number[38]</text>
<polygon fill="none" stroke="#000000" points="10.5,-185.7 10.5,-207.7 170.5,-207.7 170.5,-185.7 10.5,-185.7"/>
<image xlink:href="../../images/primaryKeys.png" width="11px" height="12px" preserveAspectRatio="xMinYMin meet" x="15.5" y="-202.7"/>
<text text-anchor="start" x="30.5" y="-192.8" font-family="Helvetica,sans-Serif" font-size="11.00" fill="#000000">TRAINING_SESSION_ID</text>
<polygon fill="none" stroke="#000000" points="170.5,-185.7 170.5,-207.7 249.5,-207.7 249.5,-185.7 170.5,-185.7"/>
<text text-anchor="start" x="173.5" y="-193.4" font-family="Helvetica,sans-Serif" font-size="11.00" fill="#000000">number[38]</text>
<polygon fill="none" stroke="#000000" points="10.5,-163.7 10.5,-185.7 170.5,-185.7 170.5,-163.7 10.5,-163.7"/>
<text text-anchor="start" x="30.5" y="-170.8" font-family="Helvetica,sans-Serif" font-size="11.00" fill="#000000">SECTOR</text>
<polygon fill="none" stroke="#000000" points="170.5,-163.7 170.5,-185.7 249.5,-185.7 249.5,-163.7 170.5,-163.7"/>
<text text-anchor="start" x="173.5" y="-171.4" font-family="Helvetica,sans-Serif" font-size="11.00" fill="#000000">varchar2[7]</text>
<polygon fill="none" stroke="#000000" points="10.5,-141.7 10.5,-163.7 170.5,-163.7 170.5,-141.7 10.5,-141.7"/>
<text text-anchor="start" x="30.5" y="-148.8" font-family="Helvetica,sans-Serif" font-size="11.00" fill="#000000">EXTERNAL_SERVICE</text>
<polygon fill="none" stroke="#000000" points="170.5,-141.7 170.5,-163.7 249.5,-163.7 249.5,-141.7 170.5,-141.7"/>
<text text-anchor="start" x="173.5" y="-149.4" font-family="Helvetica,sans-Serif" font-size="11.00" fill="#000000">varchar2[200]</text>
<polygon fill="#ffffff" stroke="transparent" points="10.5,-122.7 10.5,-141.7 78.5,-141.7 78.5,-122.7 10.5,-122.7"/>
<polygon fill="none" stroke="#000000" points="10.5,-122.7 10.5,-141.7 78.5,-141.7 78.5,-122.7 10.5,-122.7"/>
<text text-anchor="start" x="13.5" y="-128.8" font-family="Helvetica,sans-Serif" font-size="11.00" fill="#000000">&lt; 0</text>
<polygon fill="#ffffff" stroke="transparent" points="78.5,-122.7 78.5,-141.7 170.5,-141.7 170.5,-122.7 78.5,-122.7"/>
<polygon fill="none" stroke="#000000" points="78.5,-122.7 78.5,-141.7 170.5,-141.7 170.5,-122.7 78.5,-122.7"/>
<text text-anchor="start" x="128.9956" y="-128.8" font-family="Helvetica,sans-Serif" font-size="11.00" fill="#000000">16 rows</text>
<polygon fill="#ffffff" stroke="transparent" points="170.5,-122.7 170.5,-141.7 249.5,-141.7 249.5,-122.7 170.5,-122.7"/>
<polygon fill="none" stroke="#000000" points="170.5,-122.7 170.5,-141.7 249.5,-141.7 249.5,-122.7 170.5,-122.7"/>
<text text-anchor="start" x="230.9053" y="-128.8" font-family="Helvetica,sans-Serif" font-size="11.00" fill="#000000">2 &gt;</text>
<polygon fill="none" stroke="#000000" stroke-width="2" points="9,-121.7 9,-363.7 250,-363.7 250,-121.7 9,-121.7"/>
</a>
</g>
</g>
<!-- DOCUMENT_TEMPLATE_AREA&#45;&gt;DOCUMENT_TEMPLATE -->
<g id="edge1" class="edge">
<title>DOCUMENT_TEMPLATE_AREA:w&#45;&gt;DOCUMENT_TEMPLATE:e</title>
<path fill="none" stroke="#000000" d="M310.0748,-146.7664C248.1503,-166.9813 332.2909,-328.7 249.5,-328.7"/>
<polygon fill="#000000" stroke="#000000" points="316.5808,-145.8345 325.0105,-148.2636 320.5404,-145.2672 324.5,-144.7 324.5,-144.7 324.5,-144.7 320.5404,-145.2672 323.9895,-141.1364 316.5808,-145.8345 316.5808,-145.8345"/>
<ellipse fill="none" stroke="#000000" cx="313.4132" cy="-146.2883" rx="3.2" ry="3.2"/>
</g>
<!-- PROBATION_AREA -->
<g id="node3" class="node">
<title>PROBATION_AREA</title>
<g id="a_node3"><a xlink:href="../../tables/PROBATION_AREA.html" xlink:title="PROBATION_AREA" target="_top">
<polygon fill="#ffffff" stroke="transparent" points="58,-38.2 58,-99.2 201,-99.2 201,-38.2 58,-38.2"/>
<polygon fill="#f5f5f5" stroke="transparent" points="58.5,-75.7 58.5,-98.7 201.5,-98.7 201.5,-75.7 58.5,-75.7"/>
<polygon fill="none" stroke="#000000" points="58.5,-75.7 58.5,-98.7 201.5,-98.7 201.5,-75.7 58.5,-75.7"/>
<text text-anchor="start" x="63.0782" y="-84.8" font-family="Helvetica,sans-Serif" font-weight="bold" font-size="11.00" fill="#000000">PROBATION_AREA</text>
<text text-anchor="start" x="167.0219" y="-83.8" font-family="Helvetica,sans-Serif" font-size="11.00" fill="#000000">[table]</text>
<polygon fill="none" stroke="#000000" points="58.5,-56.7 58.5,-75.7 201.5,-75.7 201.5,-56.7 58.5,-56.7"/>
<text text-anchor="start" x="61.5" y="-62.8" font-family="Helvetica,sans-Serif" font-size="11.00" fill="#000000">...</text>
<polygon fill="#ffffff" stroke="transparent" points="58.5,-37.7 58.5,-56.7 101.5,-56.7 101.5,-37.7 58.5,-37.7"/>
<polygon fill="none" stroke="#000000" points="58.5,-37.7 58.5,-56.7 101.5,-56.7 101.5,-37.7 58.5,-37.7"/>
<text text-anchor="start" x="61.5" y="-43.8" font-family="Helvetica,sans-Serif" font-size="11.00" fill="#000000">&lt; 8</text>
<polygon fill="#ffffff" stroke="transparent" points="101.5,-37.7 101.5,-56.7 162.5,-56.7 162.5,-37.7 101.5,-37.7"/>
<polygon fill="none" stroke="#000000" points="101.5,-37.7 101.5,-56.7 162.5,-56.7 162.5,-37.7 101.5,-37.7"/>
<text text-anchor="start" x="114.8807" y="-43.8" font-family="Helvetica,sans-Serif" font-size="11.00" fill="#000000">223 rows</text>
<polygon fill="#ffffff" stroke="transparent" points="162.5,-37.7 162.5,-56.7 201.5,-56.7 201.5,-37.7 162.5,-37.7"/>
<polygon fill="none" stroke="#000000" points="162.5,-37.7 162.5,-56.7 201.5,-56.7 201.5,-37.7 162.5,-37.7"/>
<text text-anchor="start" x="176.7904" y="-43.8" font-family="Helvetica,sans-Serif" font-size="11.00" fill="#000000">59 &gt;</text>
</a>
</g>
</g>
<!-- DOCUMENT_TEMPLATE_AREA&#45;&gt;PROBATION_AREA -->
<g id="edge2" class="edge">
<title>DOCUMENT_TEMPLATE_AREA:w&#45;&gt;PROBATION_AREA:e</title>
<path fill="none" stroke="#000000" d="M309.8734,-121.4565C263.3636,-113.1208 256.4558,-65.7 201.5,-65.7"/>
<polygon fill="#000000" stroke="#000000" points="316.5288,-122.0222 324.195,-126.2871 320.5144,-122.3611 324.5,-122.7 324.5,-122.7 324.5,-122.7 320.5144,-122.3611 324.805,-119.1129 316.5288,-122.0222 316.5288,-122.0222"/>
<ellipse fill="none" stroke="#000000" cx="313.3403" cy="-121.7511" rx="3.2" ry="3.2"/>
</g>
<!-- OBJECT_TYPE_DOCUMENT_TEMPLATE -->
<g id="node4" class="node">
<title>OBJECT_TYPE_DOCUMENT_TEMPLATE</title>
<g id="a_node4"><a xlink:href="../../tables/OBJECT_TYPE_DOCUMENT_TEMPLATE.html" xlink:title="OBJECT_TYPE_DOCUMENT_TEMPLATE" target="_top">
<polygon fill="#ffffff" stroke="transparent" points="300,-258.2 300,-385.2 555,-385.2 555,-258.2 300,-258.2"/>
<polygon fill="#f5f5f5" stroke="transparent" points="300.5,-361.7 300.5,-384.7 555.5,-384.7 555.5,-361.7 300.5,-361.7"/>
<polygon fill="none" stroke="#000000" points="300.5,-361.7 300.5,-384.7 555.5,-384.7 555.5,-361.7 300.5,-361.7"/>
<text text-anchor="start" x="305.4699" y="-370.8" font-family="Helvetica,sans-Serif" font-weight="bold" font-size="11.00" fill="#000000">OBJECT_TYPE_DOCUMENT_TEMPLATE</text>
<text text-anchor="start" x="521.0219" y="-369.8" font-family="Helvetica,sans-Serif" font-size="11.00" fill="#000000">[table]</text>
<polygon fill="none" stroke="#000000" points="300.5,-339.7 300.5,-361.7 555.5,-361.7 555.5,-339.7 300.5,-339.7"/>
<image xlink:href="../../images/primaryKeys.png" width="11px" height="12px" preserveAspectRatio="xMinYMin meet" x="305.5" y="-356.7"/>
<text text-anchor="start" x="335.5" y="-346.8" font-family="Helvetica,sans-Serif" font-size="11.00" fill="#000000">OBJECT_TYPE_DOC_TEMPLATE_ID</text>
<polygon fill="none" stroke="#000000" points="300.5,-317.7 300.5,-339.7 555.5,-339.7 555.5,-317.7 300.5,-317.7"/>
<image xlink:href="../../images/primaryKeys.png" width="11px" height="12px" preserveAspectRatio="xMinYMin meet" x="305.5" y="-334.7"/>
<text text-anchor="start" x="335.5" y="-324.8" font-family="Helvetica,sans-Serif" font-size="11.00" fill="#000000">DOCUMENT_TEMPLATE_ID</text>
<polygon fill="none" stroke="#000000" points="300.5,-295.7 300.5,-317.7 555.5,-317.7 555.5,-295.7 300.5,-295.7"/>
<image xlink:href="../../images/primaryKeys.png" width="11px" height="12px" preserveAspectRatio="xMinYMin meet" x="305.5" y="-312.7"/>
<text text-anchor="start" x="335.5" y="-302.8" font-family="Helvetica,sans-Serif" font-size="11.00" fill="#000000">TRAINING_SESSION_ID</text>
<polygon fill="none" stroke="#000000" points="300.5,-276.7 300.5,-295.7 555.5,-295.7 555.5,-276.7 300.5,-276.7"/>
<text text-anchor="start" x="303.5" y="-282.8" font-family="Helvetica,sans-Serif" font-size="11.00" fill="#000000">...</text>
<polygon fill="#ffffff" stroke="transparent" points="300.5,-257.7 300.5,-276.7 410.5,-276.7 410.5,-257.7 300.5,-257.7"/>
<polygon fill="none" stroke="#000000" points="300.5,-257.7 300.5,-276.7 410.5,-276.7 410.5,-257.7 300.5,-257.7"/>
<text text-anchor="start" x="303.5" y="-263.8" font-family="Helvetica,sans-Serif" font-size="11.00" fill="#000000">&lt; 1</text>
<polygon fill="#ffffff" stroke="transparent" points="410.5,-257.7 410.5,-276.7 498.5,-276.7 498.5,-257.7 410.5,-257.7"/>
<polygon fill="none" stroke="#000000" points="410.5,-257.7 410.5,-276.7 498.5,-276.7 498.5,-257.7 410.5,-257.7"/>
<text text-anchor="start" x="456.9956" y="-263.8" font-family="Helvetica,sans-Serif" font-size="11.00" fill="#000000">47 rows</text>
<polygon fill="#ffffff" stroke="transparent" points="498.5,-257.7 498.5,-276.7 555.5,-276.7 555.5,-257.7 498.5,-257.7"/>
<polygon fill="none" stroke="#000000" points="498.5,-257.7 498.5,-276.7 555.5,-276.7 555.5,-257.7 498.5,-257.7"/>
<text text-anchor="start" x="546.3862" y="-263.8" font-family="Helvetica,sans-Serif" font-size="11.00" fill="#000000"> &#160;</text>
</a>
</g>
</g>
<!-- OBJECT_TYPE_DOCUMENT_TEMPLATE&#45;&gt;DOCUMENT_TEMPLATE -->
<g id="edge3" class="edge">
<title>OBJECT_TYPE_DOCUMENT_TEMPLATE:w&#45;&gt;DOCUMENT_TEMPLATE:e</title>
<path fill="none" stroke="#000000" d="M285.776,-328.7C273.7815,-328.7 266.3229,-328.7 249.5,-328.7"/>
<polygon fill="#000000" stroke="#000000" points="292.5,-328.7001 300.5,-332.3 296.5,-328.7 300.5,-328.7 300.5,-328.7 300.5,-328.7 296.5,-328.7 300.5,-325.1 292.5,-328.7001 292.5,-328.7001"/>
<ellipse fill="none" stroke="#000000" cx="289.3" cy="-328.7001" rx="3.2" ry="3.2"/>
</g>
</g>
</svg>
