<?xml version="1.0" encoding="UTF-8" standalone="no"?>
<!DOCTYPE svg PUBLIC "-//W3C//DTD SVG 1.1//EN"
 "http://www.w3.org/Graphics/SVG/1.1/DTD/svg11.dtd">
<!-- Generated by graphviz version 2.40.1 (20161225.0304)
 -->
<!-- Title: oneDegreeRelationshipsDiagram Pages: 1 -->
<svg width="1392pt" height="632pt"
 viewBox="0.00 0.00 1391.70 631.84" xmlns="http://www.w3.org/2000/svg" xmlns:xlink="http://www.w3.org/1999/xlink">
<g id="graph0" class="graph" transform="scale(1 1) rotate(0) translate(4 627.8396)">
<title>oneDegreeRelationshipsDiagram</title>
<polygon fill="#ffffff" stroke="transparent" points="-4,4 -4,-627.8396 1387.7038,-627.8396 1387.7038,4 -4,4"/>
<text text-anchor="middle" x="72.4936" y="-7.3" font-family="Helvetica,sans-Serif" font-size="11.00" fill="#000000">Generated by SchemaSpy</text>
<!-- BOROUGH -->
<g id="node1" class="node">
<title>BOROUGH</title>
<g id="a_node1"><a xlink:href="../../tables/BOROUGH.html" xlink:title="BOROUGH" target="_top">
<polygon fill="#ffffff" stroke="transparent" points="725.7038,-66.9856 725.7038,-215.9856 886.7038,-215.9856 886.7038,-66.9856 725.7038,-66.9856"/>
<polygon fill="#f5f5f5" stroke="transparent" points="726.2038,-192.4856 726.2038,-215.4856 887.2038,-215.4856 887.2038,-192.4856 726.2038,-192.4856"/>
<polygon fill="none" stroke="#000000" points="726.2038,-192.4856 726.2038,-215.4856 887.2038,-215.4856 887.2038,-192.4856 726.2038,-192.4856"/>
<text text-anchor="start" x="731.2038" y="-201.5856" font-family="Helvetica,sans-Serif" font-weight="bold" font-size="11.00" fill="#000000">BOROUGH</text>
<text text-anchor="start" x="852.2475" y="-200.5856" font-family="Helvetica,sans-Serif" font-size="11.00" fill="#000000">[table]</text>
<polygon fill="none" stroke="#000000" points="726.2038,-170.4856 726.2038,-192.4856 887.2038,-192.4856 887.2038,-170.4856 726.2038,-170.4856"/>
<image xlink:href="../../images/primaryKeys.png" width="11px" height="12px" preserveAspectRatio="xMinYMin meet" x="731.204" y="-187.486"/>
<text text-anchor="start" x="746.2038" y="-177.5856" font-family="Helvetica,sans-Serif" font-size="11.00" fill="#000000">BOROUGH_ID</text>
<polygon fill="none" stroke="#000000" points="726.2038,-148.4856 726.2038,-170.4856 887.2038,-170.4856 887.2038,-148.4856 726.2038,-148.4856"/>
<image xlink:href="../../images/primaryKeys.png" width="11px" height="12px" preserveAspectRatio="xMinYMin meet" x="731.204" y="-165.486"/>
<text text-anchor="start" x="746.2038" y="-155.5856" font-family="Helvetica,sans-Serif" font-size="11.00" fill="#000000">CODE</text>
<polygon fill="none" stroke="#000000" points="726.2038,-126.4856 726.2038,-148.4856 887.2038,-148.4856 887.2038,-126.4856 726.2038,-126.4856"/>
<image xlink:href="../../images/primaryKeys.png" width="11px" height="12px" preserveAspectRatio="xMinYMin meet" x="731.204" y="-143.486"/>
<text text-anchor="start" x="746.2038" y="-133.5856" font-family="Helvetica,sans-Serif" font-size="11.00" fill="#000000">TRAINING_SESSION_ID</text>
<polygon fill="none" stroke="#000000" points="726.2038,-104.4856 726.2038,-126.4856 887.2038,-126.4856 887.2038,-104.4856 726.2038,-104.4856"/>
<image xlink:href="../../images/primaryKeys.png" width="11px" height="12px" preserveAspectRatio="xMinYMin meet" x="731.204" y="-121.486"/>
<text text-anchor="start" x="746.2038" y="-111.5856" font-family="Helvetica,sans-Serif" font-size="11.00" fill="#000000">PROBATION_AREA_ID</text>
<polygon fill="none" stroke="#000000" points="726.2038,-85.4856 726.2038,-104.4856 887.2038,-104.4856 887.2038,-85.4856 726.2038,-85.4856"/>
<text text-anchor="start" x="729.2038" y="-91.5856" font-family="Helvetica,sans-Serif" font-size="11.00" fill="#000000">...</text>
<polygon fill="#ffffff" stroke="transparent" points="726.2038,-66.4856 726.2038,-85.4856 777.2038,-85.4856 777.2038,-66.4856 726.2038,-66.4856"/>
<polygon fill="none" stroke="#000000" points="726.2038,-66.4856 726.2038,-85.4856 777.2038,-85.4856 777.2038,-66.4856 726.2038,-66.4856"/>
<text text-anchor="start" x="729.2038" y="-72.5856" font-family="Helvetica,sans-Serif" font-size="11.00" fill="#000000">&lt; 1</text>
<polygon fill="#ffffff" stroke="transparent" points="777.2038,-66.4856 777.2038,-85.4856 851.2038,-85.4856 851.2038,-66.4856 777.2038,-66.4856"/>
<polygon fill="none" stroke="#000000" points="777.2038,-66.4856 777.2038,-85.4856 851.2038,-85.4856 851.2038,-66.4856 777.2038,-66.4856"/>
<text text-anchor="start" x="794.4127" y="-72.5856" font-family="Helvetica,sans-Serif" font-size="11.00" fill="#000000">1,678 rows</text>
<polygon fill="#ffffff" stroke="transparent" points="851.2038,-66.4856 851.2038,-85.4856 887.2038,-85.4856 887.2038,-66.4856 851.2038,-66.4856"/>
<polygon fill="none" stroke="#000000" points="851.2038,-66.4856 851.2038,-85.4856 887.2038,-85.4856 887.2038,-66.4856 851.2038,-66.4856"/>
<text text-anchor="start" x="868.6091" y="-72.5856" font-family="Helvetica,sans-Serif" font-size="11.00" fill="#000000">3 &gt;</text>
</a>
</g>
</g>
<!-- PROBATION_AREA -->
<g id="node2" class="node">
<title>PROBATION_AREA</title>
<g id="a_node2"><a xlink:href="../../tables/PROBATION_AREA.html" xlink:title="PROBATION_AREA" target="_top">
<polygon fill="#ffffff" stroke="transparent" points="464.7038,-103.9856 464.7038,-450.9856 676.7038,-450.9856 676.7038,-103.9856 464.7038,-103.9856"/>
<polygon fill="#f5f5f5" stroke="transparent" points="464.7038,-427.4856 464.7038,-450.4856 676.7038,-450.4856 676.7038,-427.4856 464.7038,-427.4856"/>
<polygon fill="none" stroke="#000000" points="464.7038,-427.4856 464.7038,-450.4856 676.7038,-450.4856 676.7038,-427.4856 464.7038,-427.4856"/>
<text text-anchor="start" x="469.7038" y="-436.5856" font-family="Helvetica,sans-Serif" font-weight="bold" font-size="11.00" fill="#000000">PROBATION_AREA</text>
<text text-anchor="start" x="641.7475" y="-435.5856" font-family="Helvetica,sans-Serif" font-size="11.00" fill="#000000">[table]</text>
<polygon fill="none" stroke="#000000" points="464.7038,-405.4856 464.7038,-427.4856 676.7038,-427.4856 676.7038,-405.4856 464.7038,-405.4856"/>
<image xlink:href="../../images/primaryKeys.png" width="11px" height="12px" preserveAspectRatio="xMinYMin meet" x="469.704" y="-422.486"/>
<text text-anchor="start" x="484.7038" y="-412.5856" font-family="Helvetica,sans-Serif" font-size="11.00" fill="#000000">PROBATION_AREA_ID</text>
<polygon fill="none" stroke="#000000" points="464.7038,-383.4856 464.7038,-405.4856 676.7038,-405.4856 676.7038,-383.4856 464.7038,-383.4856"/>
<image xlink:href="../../images/primaryKeys.png" width="11px" height="12px" preserveAspectRatio="xMinYMin meet" x="469.704" y="-400.486"/>
<text text-anchor="start" x="484.7038" y="-390.5856" font-family="Helvetica,sans-Serif" font-size="11.00" fill="#000000">CODE</text>
<polygon fill="none" stroke="#000000" points="464.7038,-361.4856 464.7038,-383.4856 676.7038,-383.4856 676.7038,-361.4856 464.7038,-361.4856"/>
<image xlink:href="../../images/primaryKeys.png" width="11px" height="12px" preserveAspectRatio="xMinYMin meet" x="469.704" y="-378.486"/>
<text text-anchor="start" x="484.7038" y="-368.5856" font-family="Helvetica,sans-Serif" font-size="11.00" fill="#000000">FORM_20_CODE</text>
<polygon fill="none" stroke="#000000" points="464.7038,-339.4856 464.7038,-361.4856 676.7038,-361.4856 676.7038,-339.4856 464.7038,-339.4856"/>
<image xlink:href="../../images/primaryKeys.png" width="11px" height="12px" preserveAspectRatio="xMinYMin meet" x="469.704" y="-356.486"/>
<text text-anchor="start" x="484.7038" y="-346.5856" font-family="Helvetica,sans-Serif" font-size="11.00" fill="#000000">HO_AREA_CODE</text>
<polygon fill="none" stroke="#000000" points="464.7038,-317.4856 464.7038,-339.4856 676.7038,-339.4856 676.7038,-317.4856 464.7038,-317.4856"/>
<image xlink:href="../../images/primaryKeys.png" width="11px" height="12px" preserveAspectRatio="xMinYMin meet" x="469.704" y="-334.486"/>
<text text-anchor="start" x="484.7038" y="-324.5856" font-family="Helvetica,sans-Serif" font-size="11.00" fill="#000000">TRAINING_SESSION_ID</text>
<polygon fill="none" stroke="#000000" points="464.7038,-295.4856 464.7038,-317.4856 676.7038,-317.4856 676.7038,-295.4856 464.7038,-295.4856"/>
<image xlink:href="../../images/primaryKeys.png" width="11px" height="12px" preserveAspectRatio="xMinYMin meet" x="469.704" y="-312.486"/>
<text text-anchor="start" x="484.7038" y="-302.5856" font-family="Helvetica,sans-Serif" font-size="11.00" fill="#000000">ORGANISATION_ID</text>
<polygon fill="none" stroke="#000000" points="464.7038,-273.4856 464.7038,-295.4856 676.7038,-295.4856 676.7038,-273.4856 464.7038,-273.4856"/>
<image xlink:href="../../images/primaryKeys.png" width="11px" height="12px" preserveAspectRatio="xMinYMin meet" x="469.704" y="-290.486"/>
<text text-anchor="start" x="484.7038" y="-280.5856" font-family="Helvetica,sans-Serif" font-size="11.00" fill="#000000">ADDRESS_ID</text>
<polygon fill="none" stroke="#000000" points="464.7038,-251.4856 464.7038,-273.4856 676.7038,-273.4856 676.7038,-251.4856 464.7038,-251.4856"/>
<image xlink:href="../../images/primaryKeys.png" width="11px" height="12px" preserveAspectRatio="xMinYMin meet" x="469.704" y="-268.486"/>
<text text-anchor="start" x="484.7038" y="-258.5856" font-family="Helvetica,sans-Serif" font-size="11.00" fill="#000000">SPG_ACTIVE_ID</text>
<polygon fill="none" stroke="#000000" points="464.7038,-229.4856 464.7038,-251.4856 676.7038,-251.4856 676.7038,-229.4856 464.7038,-229.4856"/>
<image xlink:href="../../images/primaryKeys.png" width="11px" height="12px" preserveAspectRatio="xMinYMin meet" x="469.704" y="-246.486"/>
<text text-anchor="start" x="484.7038" y="-236.5856" font-family="Helvetica,sans-Serif" font-size="11.00" fill="#000000">INSTITUTION_ID</text>
<polygon fill="none" stroke="#000000" points="464.7038,-207.4856 464.7038,-229.4856 676.7038,-229.4856 676.7038,-207.4856 464.7038,-207.4856"/>
<image xlink:href="../../images/primaryKeys.png" width="11px" height="12px" preserveAspectRatio="xMinYMin meet" x="469.704" y="-224.486"/>
<text text-anchor="start" x="484.7038" y="-214.5856" font-family="Helvetica,sans-Serif" font-size="11.00" fill="#000000">ESTABLISHMENT</text>
<polygon fill="none" stroke="#000000" points="464.7038,-185.4856 464.7038,-207.4856 676.7038,-207.4856 676.7038,-185.4856 464.7038,-185.4856"/>
<image xlink:href="../../images/primaryKeys.png" width="11px" height="12px" preserveAspectRatio="xMinYMin meet" x="469.704" y="-202.486"/>
<text text-anchor="start" x="484.7038" y="-192.5856" font-family="Helvetica,sans-Serif" font-size="11.00" fill="#000000">DEFAULT_TRANSFER_TEAM_ID</text>
<polygon fill="none" stroke="#000000" points="464.7038,-163.4856 464.7038,-185.4856 676.7038,-185.4856 676.7038,-163.4856 464.7038,-163.4856"/>
<image xlink:href="../../images/primaryKeys.png" width="11px" height="12px" preserveAspectRatio="xMinYMin meet" x="469.704" y="-180.486"/>
<text text-anchor="start" x="484.7038" y="-170.5856" font-family="Helvetica,sans-Serif" font-size="11.00" fill="#000000">DEFAULT_COURT_TEAM_ID</text>
<polygon fill="none" stroke="#000000" points="464.7038,-141.4856 464.7038,-163.4856 676.7038,-163.4856 676.7038,-141.4856 464.7038,-141.4856"/>
<image xlink:href="../../images/primaryKeys.png" width="11px" height="12px" preserveAspectRatio="xMinYMin meet" x="469.704" y="-158.486"/>
<text text-anchor="start" x="484.7038" y="-148.5856" font-family="Helvetica,sans-Serif" font-size="11.00" fill="#000000">DEFAULT_POSTCODE_TEAM_ID</text>
<polygon fill="none" stroke="#000000" points="464.7038,-122.4856 464.7038,-141.4856 676.7038,-141.4856 676.7038,-122.4856 464.7038,-122.4856"/>
<text text-anchor="start" x="467.7038" y="-128.5856" font-family="Helvetica,sans-Serif" font-size="11.00" fill="#000000">...</text>
<polygon fill="#ffffff" stroke="transparent" points="464.7038,-103.4856 464.7038,-122.4856 542.7038,-122.4856 542.7038,-103.4856 464.7038,-103.4856"/>
<polygon fill="none" stroke="#000000" points="464.7038,-103.4856 464.7038,-122.4856 542.7038,-122.4856 542.7038,-103.4856 464.7038,-103.4856"/>
<text text-anchor="start" x="467.7038" y="-109.5856" font-family="Helvetica,sans-Serif" font-size="11.00" fill="#000000">&lt; 8</text>
<polygon fill="#ffffff" stroke="transparent" points="542.7038,-103.4856 542.7038,-122.4856 620.7038,-122.4856 620.7038,-103.4856 542.7038,-103.4856"/>
<polygon fill="none" stroke="#000000" points="542.7038,-103.4856 542.7038,-122.4856 620.7038,-122.4856 620.7038,-103.4856 542.7038,-103.4856"/>
<text text-anchor="start" x="573.0845" y="-109.5856" font-family="Helvetica,sans-Serif" font-size="11.00" fill="#000000">223 rows</text>
<polygon fill="#ffffff" stroke="transparent" points="620.7038,-103.4856 620.7038,-122.4856 676.7038,-122.4856 676.7038,-103.4856 620.7038,-103.4856"/>
<polygon fill="none" stroke="#000000" points="620.7038,-103.4856 620.7038,-122.4856 676.7038,-122.4856 676.7038,-103.4856 620.7038,-103.4856"/>
<text text-anchor="start" x="651.9942" y="-109.5856" font-family="Helvetica,sans-Serif" font-size="11.00" fill="#000000">59 &gt;</text>
</a>
</g>
</g>
<!-- BOROUGH&#45;&gt;PROBATION_AREA -->
<g id="edge1" class="edge">
<title>BOROUGH:w&#45;&gt;PROBATION_AREA:e</title>
<path fill="none" stroke="#000000" d="M712.7208,-120.9669C671.2152,-161.7625 739.0628,-416.4856 676.7038,-416.4856"/>
<polygon fill="#000000" stroke="#000000" points="718.7928,-118.4985 727.5596,-118.8205 722.4983,-116.992 726.2038,-115.4856 726.2038,-115.4856 726.2038,-115.4856 722.4983,-116.992 724.8479,-112.1506 718.7928,-118.4985 718.7928,-118.4985"/>
<ellipse fill="none" stroke="#000000" cx="715.8284" cy="-119.7036" rx="3.2" ry="3.2"/>
</g>
<!-- TEAM -->
<g id="node7" class="node">
<title>TEAM</title>
<g id="a_node7"><a xlink:href="../../tables/TEAM.html" xlink:title="TEAM" target="_top">
<polygon fill="#ffffff" stroke="transparent" points="230.7038,-103.9856 230.7038,-318.9856 415.7038,-318.9856 415.7038,-103.9856 230.7038,-103.9856"/>
<polygon fill="#f5f5f5" stroke="transparent" points="231.2038,-295.4856 231.2038,-318.4856 416.2038,-318.4856 416.2038,-295.4856 231.2038,-295.4856"/>
<polygon fill="none" stroke="#000000" points="231.2038,-295.4856 231.2038,-318.4856 416.2038,-318.4856 416.2038,-295.4856 231.2038,-295.4856"/>
<text text-anchor="start" x="236.2038" y="-304.5856" font-family="Helvetica,sans-Serif" font-weight="bold" font-size="11.00" fill="#000000">TEAM</text>
<text text-anchor="start" x="381.2475" y="-303.5856" font-family="Helvetica,sans-Serif" font-size="11.00" fill="#000000">[table]</text>
<polygon fill="none" stroke="#000000" points="231.2038,-273.4856 231.2038,-295.4856 416.2038,-295.4856 416.2038,-273.4856 231.2038,-273.4856"/>
<image xlink:href="../../images/primaryKeys.png" width="11px" height="12px" preserveAspectRatio="xMinYMin meet" x="236.204" y="-290.486"/>
<text text-anchor="start" x="251.2038" y="-280.5856" font-family="Helvetica,sans-Serif" font-size="11.00" fill="#000000">TEAM_ID</text>
<polygon fill="none" stroke="#000000" points="231.2038,-251.4856 231.2038,-273.4856 416.2038,-273.4856 416.2038,-251.4856 231.2038,-251.4856"/>
<image xlink:href="../../images/primaryKeys.png" width="11px" height="12px" preserveAspectRatio="xMinYMin meet" x="236.204" y="-268.486"/>
<text text-anchor="start" x="251.2038" y="-258.5856" font-family="Helvetica,sans-Serif" font-size="11.00" fill="#000000">CODE</text>
<polygon fill="none" stroke="#000000" points="231.2038,-229.4856 231.2038,-251.4856 416.2038,-251.4856 416.2038,-229.4856 231.2038,-229.4856"/>
<image xlink:href="../../images/primaryKeys.png" width="11px" height="12px" preserveAspectRatio="xMinYMin meet" x="236.204" y="-246.486"/>
<text text-anchor="start" x="251.2038" y="-236.5856" font-family="Helvetica,sans-Serif" font-size="11.00" fill="#000000">DISTRICT_ID</text>
<polygon fill="none" stroke="#000000" points="231.2038,-207.4856 231.2038,-229.4856 416.2038,-229.4856 416.2038,-207.4856 231.2038,-207.4856"/>
<image xlink:href="../../images/primaryKeys.png" width="11px" height="12px" preserveAspectRatio="xMinYMin meet" x="236.204" y="-224.486"/>
<text text-anchor="start" x="251.2038" y="-214.5856" font-family="Helvetica,sans-Serif" font-size="11.00" fill="#000000">LOCAL_DELIVERY_UNIT_ID</text>
<polygon fill="none" stroke="#000000" points="231.2038,-185.4856 231.2038,-207.4856 416.2038,-207.4856 416.2038,-185.4856 231.2038,-185.4856"/>
<image xlink:href="../../images/primaryKeys.png" width="11px" height="12px" preserveAspectRatio="xMinYMin meet" x="236.204" y="-202.486"/>
<text text-anchor="start" x="251.2038" y="-192.5856" font-family="Helvetica,sans-Serif" font-size="11.00" fill="#000000">TRAINING_SESSION_ID</text>
<polygon fill="none" stroke="#000000" points="231.2038,-163.4856 231.2038,-185.4856 416.2038,-185.4856 416.2038,-163.4856 231.2038,-163.4856"/>
<image xlink:href="../../images/primaryKeys.png" width="11px" height="12px" preserveAspectRatio="xMinYMin meet" x="236.204" y="-180.486"/>
<text text-anchor="start" x="251.2038" y="-170.5856" font-family="Helvetica,sans-Serif" font-size="11.00" fill="#000000">PROBATION_AREA_ID</text>
<polygon fill="none" stroke="#000000" points="231.2038,-141.4856 231.2038,-163.4856 416.2038,-163.4856 416.2038,-141.4856 231.2038,-141.4856"/>
<image xlink:href="../../images/primaryKeys.png" width="11px" height="12px" preserveAspectRatio="xMinYMin meet" x="236.204" y="-158.486"/>
<text text-anchor="start" x="251.2038" y="-148.5856" font-family="Helvetica,sans-Serif" font-size="11.00" fill="#000000">SC_PROVIDER_ID</text>
<polygon fill="none" stroke="#000000" points="231.2038,-122.4856 231.2038,-141.4856 416.2038,-141.4856 416.2038,-122.4856 231.2038,-122.4856"/>
<text text-anchor="start" x="234.2038" y="-128.5856" font-family="Helvetica,sans-Serif" font-size="11.00" fill="#000000">...</text>
<polygon fill="#ffffff" stroke="transparent" points="231.2038,-103.4856 231.2038,-122.4856 291.2038,-122.4856 291.2038,-103.4856 231.2038,-103.4856"/>
<polygon fill="none" stroke="#000000" points="231.2038,-103.4856 231.2038,-122.4856 291.2038,-122.4856 291.2038,-103.4856 231.2038,-103.4856"/>
<text text-anchor="start" x="234.2038" y="-109.5856" font-family="Helvetica,sans-Serif" font-size="11.00" fill="#000000">&lt; 4</text>
<polygon fill="#ffffff" stroke="transparent" points="291.2038,-103.4856 291.2038,-122.4856 369.2038,-122.4856 369.2038,-103.4856 291.2038,-103.4856"/>
<polygon fill="none" stroke="#000000" points="291.2038,-103.4856 291.2038,-122.4856 369.2038,-122.4856 369.2038,-103.4856 291.2038,-103.4856"/>
<text text-anchor="start" x="312.4127" y="-109.5856" font-family="Helvetica,sans-Serif" font-size="11.00" fill="#000000">1,458 rows</text>
<polygon fill="#ffffff" stroke="transparent" points="369.2038,-103.4856 369.2038,-122.4856 416.2038,-122.4856 416.2038,-103.4856 369.2038,-103.4856"/>
<polygon fill="none" stroke="#000000" points="369.2038,-103.4856 369.2038,-122.4856 416.2038,-122.4856 416.2038,-103.4856 369.2038,-103.4856"/>
<text text-anchor="start" x="391.4942" y="-109.5856" font-family="Helvetica,sans-Serif" font-size="11.00" fill="#000000">62 &gt;</text>
</a>
</g>
</g>
<!-- PROBATION_AREA&#45;&gt;TEAM -->
<g id="edge11" class="edge">
<title>PROBATION_AREA:w&#45;&gt;TEAM:e</title>
<path fill="none" stroke="#000000" d="M450.5246,-178.4005C423.0614,-197.9959 463.5811,-284.4856 416.2038,-284.4856"/>
<polygon fill="#000000" stroke="#000000" points="456.9923,-176.6148 465.6619,-177.9557 460.848,-175.5502 464.7038,-174.4856 464.7038,-174.4856 464.7038,-174.4856 460.848,-175.5502 463.7456,-171.0154 456.9923,-176.6148 456.9923,-176.6148"/>
<ellipse fill="none" stroke="#000000" cx="453.9077" cy="-177.4665" rx="3.2" ry="3.2"/>
</g>
<!-- PROBATION_AREA&#45;&gt;TEAM -->
<g id="edge12" class="edge">
<title>PROBATION_AREA:w&#45;&gt;TEAM:e</title>
<path fill="none" stroke="#000000" d="M450.5613,-155.7485C415.3249,-176.0754 472.8456,-284.4856 416.2038,-284.4856"/>
<polygon fill="#000000" stroke="#000000" points="456.9085,-154.2841 465.5131,-155.9934 460.8061,-153.3849 464.7038,-152.4856 464.7038,-152.4856 464.7038,-152.4856 460.8061,-153.3849 463.8944,-148.9777 456.9085,-154.2841 456.9085,-154.2841"/>
<ellipse fill="none" stroke="#000000" cx="453.7904" cy="-155.0036" rx="3.2" ry="3.2"/>
</g>
<!-- PROBATION_AREA&#45;&gt;TEAM -->
<g id="edge13" class="edge">
<title>PROBATION_AREA:w&#45;&gt;TEAM:e</title>
<path fill="none" stroke="#000000" d="M450.7432,-200.9705C429.6088,-218.9032 454.756,-284.4856 416.2038,-284.4856"/>
<polygon fill="#000000" stroke="#000000" points="457.0871,-198.9325 465.8049,-199.9131 460.8954,-197.709 464.7038,-196.4856 464.7038,-196.4856 464.7038,-196.4856 460.8954,-197.709 463.6026,-193.0581 457.0871,-198.9325 457.0871,-198.9325"/>
<ellipse fill="none" stroke="#000000" cx="454.0405" cy="-199.9113" rx="3.2" ry="3.2"/>
</g>
<!-- DISTRICT -->
<g id="node3" class="node">
<title>DISTRICT</title>
<g id="a_node3"><a xlink:href="../../tables/DISTRICT.html" xlink:title="DISTRICT" target="_top">
<polygon fill="#ffffff" stroke="transparent" points="20.7038,-125.9856 20.7038,-274.9856 181.7038,-274.9856 181.7038,-125.9856 20.7038,-125.9856"/>
<polygon fill="#f5f5f5" stroke="transparent" points="21.2038,-251.4856 21.2038,-274.4856 182.2038,-274.4856 182.2038,-251.4856 21.2038,-251.4856"/>
<polygon fill="none" stroke="#000000" points="21.2038,-251.4856 21.2038,-274.4856 182.2038,-274.4856 182.2038,-251.4856 21.2038,-251.4856"/>
<text text-anchor="start" x="26.2038" y="-260.5856" font-family="Helvetica,sans-Serif" font-weight="bold" font-size="11.00" fill="#000000">DISTRICT</text>
<text text-anchor="start" x="147.2475" y="-259.5856" font-family="Helvetica,sans-Serif" font-size="11.00" fill="#000000">[table]</text>
<polygon fill="none" stroke="#000000" points="21.2038,-229.4856 21.2038,-251.4856 182.2038,-251.4856 182.2038,-229.4856 21.2038,-229.4856"/>
<image xlink:href="../../images/primaryKeys.png" width="11px" height="12px" preserveAspectRatio="xMinYMin meet" x="26.2038" y="-246.486"/>
<text text-anchor="start" x="41.2038" y="-236.5856" font-family="Helvetica,sans-Serif" font-size="11.00" fill="#000000">DISTRICT_ID</text>
<polygon fill="none" stroke="#000000" points="21.2038,-207.4856 21.2038,-229.4856 182.2038,-229.4856 182.2038,-207.4856 21.2038,-207.4856"/>
<image xlink:href="../../images/primaryKeys.png" width="11px" height="12px" preserveAspectRatio="xMinYMin meet" x="26.2038" y="-224.486"/>
<text text-anchor="start" x="41.2038" y="-214.5856" font-family="Helvetica,sans-Serif" font-size="11.00" fill="#000000">CODE</text>
<polygon fill="none" stroke="#000000" points="21.2038,-185.4856 21.2038,-207.4856 182.2038,-207.4856 182.2038,-185.4856 21.2038,-185.4856"/>
<image xlink:href="../../images/primaryKeys.png" width="11px" height="12px" preserveAspectRatio="xMinYMin meet" x="26.2038" y="-202.486"/>
<text text-anchor="start" x="41.2038" y="-192.5856" font-family="Helvetica,sans-Serif" font-size="11.00" fill="#000000">BOROUGH_ID</text>
<polygon fill="none" stroke="#000000" points="21.2038,-163.4856 21.2038,-185.4856 182.2038,-185.4856 182.2038,-163.4856 21.2038,-163.4856"/>
<image xlink:href="../../images/primaryKeys.png" width="11px" height="12px" preserveAspectRatio="xMinYMin meet" x="26.2038" y="-180.486"/>
<text text-anchor="start" x="41.2038" y="-170.5856" font-family="Helvetica,sans-Serif" font-size="11.00" fill="#000000">TRAINING_SESSION_ID</text>
<polygon fill="none" stroke="#000000" points="21.2038,-144.4856 21.2038,-163.4856 182.2038,-163.4856 182.2038,-144.4856 21.2038,-144.4856"/>
<text text-anchor="start" x="24.2038" y="-150.5856" font-family="Helvetica,sans-Serif" font-size="11.00" fill="#000000">...</text>
<polygon fill="#ffffff" stroke="transparent" points="21.2038,-125.4856 21.2038,-144.4856 72.2038,-144.4856 72.2038,-125.4856 21.2038,-125.4856"/>
<polygon fill="none" stroke="#000000" points="21.2038,-125.4856 21.2038,-144.4856 72.2038,-144.4856 72.2038,-125.4856 21.2038,-125.4856"/>
<text text-anchor="start" x="24.2038" y="-131.5856" font-family="Helvetica,sans-Serif" font-size="11.00" fill="#000000">&lt; 1</text>
<polygon fill="#ffffff" stroke="transparent" points="72.2038,-125.4856 72.2038,-144.4856 146.2038,-144.4856 146.2038,-125.4856 72.2038,-125.4856"/>
<polygon fill="none" stroke="#000000" points="72.2038,-125.4856 72.2038,-144.4856 146.2038,-144.4856 146.2038,-125.4856 72.2038,-125.4856"/>
<text text-anchor="start" x="89.4127" y="-131.5856" font-family="Helvetica,sans-Serif" font-size="11.00" fill="#000000">3,349 rows</text>
<polygon fill="#ffffff" stroke="transparent" points="146.2038,-125.4856 146.2038,-144.4856 182.2038,-144.4856 182.2038,-125.4856 146.2038,-125.4856"/>
<polygon fill="none" stroke="#000000" points="146.2038,-125.4856 146.2038,-144.4856 182.2038,-144.4856 182.2038,-125.4856 146.2038,-125.4856"/>
<text text-anchor="start" x="163.6091" y="-131.5856" font-family="Helvetica,sans-Serif" font-size="11.00" fill="#000000">5 &gt;</text>
</a>
</g>
</g>
<!-- DISTRICT&#45;&gt;BOROUGH -->
<g id="edge2" class="edge">
<title>DISTRICT:w&#45;&gt;BOROUGH:e</title>
<path fill="none" stroke="#000000" d="M7.4678,-192.1201C-7.4778,-179.4872 3.3933,-142.4924 21.2038,-121.9856 80.5122,-53.6983 132.48,-99.8346 222.7038,-93.4856 427.5306,-79.072 522.2163,32.0517 684.7038,-93.4856 730.6833,-129.0092 671.7242,-184.4619 717.7038,-219.9856 717.7038,-219.9856 887.2038,-181.4856 887.2038,-181.4856"/>
<polygon fill="#000000" stroke="#000000" points="13.5795,-194.0625 20.1133,-199.9165 17.3916,-195.274 21.2038,-196.4856 21.2038,-196.4856 21.2038,-196.4856 17.3916,-195.274 22.2942,-193.0547 13.5795,-194.0625 13.5795,-194.0625"/>
<ellipse fill="none" stroke="#000000" cx="10.5298" cy="-193.0932" rx="3.2" ry="3.2"/>
</g>
<!-- DPA_REPORT -->
<g id="node4" class="node">
<title>DPA_REPORT</title>
<g id="a_node4"><a xlink:href="../../tables/DPA_REPORT.html" xlink:title="DPA_REPORT" target="_top">
<polygon fill="#ffffff" stroke="transparent" points="935.7038,-312.4856 935.7038,-578.4856 1142.7038,-578.4856 1142.7038,-312.4856 935.7038,-312.4856"/>
<polygon fill="#f5f5f5" stroke="transparent" points="938.2038,-553.4856 938.2038,-576.4856 1141.2038,-576.4856 1141.2038,-553.4856 938.2038,-553.4856"/>
<polygon fill="none" stroke="#000000" points="938.2038,-553.4856 938.2038,-576.4856 1141.2038,-576.4856 1141.2038,-553.4856 938.2038,-553.4856"/>
<text text-anchor="start" x="943.2038" y="-562.5856" font-family="Helvetica,sans-Serif" font-weight="bold" font-size="11.00" fill="#000000">DPA_REPORT</text>
<text text-anchor="start" x="1106.2475" y="-561.5856" font-family="Helvetica,sans-Serif" font-size="11.00" fill="#000000">[table]</text>
<polygon fill="none" stroke="#000000" points="938.2038,-531.4856 938.2038,-553.4856 1080.2038,-553.4856 1080.2038,-531.4856 938.2038,-531.4856"/>
<image xlink:href="../../images/primaryKeys.png" width="11px" height="12px" preserveAspectRatio="xMinYMin meet" x="943.204" y="-548.486"/>
<text text-anchor="start" x="958.2038" y="-538.5856" font-family="Helvetica,sans-Serif" font-size="11.00" fill="#000000">DPA_REPORT_ID</text>
<polygon fill="none" stroke="#000000" points="1080.2038,-531.4856 1080.2038,-553.4856 1141.2038,-553.4856 1141.2038,-531.4856 1080.2038,-531.4856"/>
<text text-anchor="start" x="1082.8903" y="-539.1856" font-family="Helvetica,sans-Serif" font-size="11.00" fill="#000000">number[38]</text>
<polygon fill="none" stroke="#000000" points="938.2038,-509.4856 938.2038,-531.4856 1080.2038,-531.4856 1080.2038,-509.4856 938.2038,-509.4856"/>
<text text-anchor="start" x="958.2038" y="-516.5856" font-family="Helvetica,sans-Serif" font-size="11.00" fill="#000000">REPORT_DATE</text>
<polygon fill="none" stroke="#000000" points="1080.2038,-509.4856 1080.2038,-531.4856 1141.2038,-531.4856 1141.2038,-509.4856 1080.2038,-509.4856"/>
<text text-anchor="start" x="1083.2038" y="-517.1856" font-family="Helvetica,sans-Serif" font-size="11.00" fill="#000000">date[7]</text>
<polygon fill="none" stroke="#000000" points="938.2038,-487.4856 938.2038,-509.4856 1080.2038,-509.4856 1080.2038,-487.4856 938.2038,-487.4856"/>
<image xlink:href="../../images/primaryKeys.png" width="11px" height="12px" preserveAspectRatio="xMinYMin meet" x="943.204" y="-504.486"/>
<text text-anchor="start" x="958.2038" y="-494.5856" font-family="Helvetica,sans-Serif" font-size="11.00" fill="#000000">TEAM_ID</text>
<polygon fill="none" stroke="#000000" points="1080.2038,-487.4856 1080.2038,-509.4856 1141.2038,-509.4856 1141.2038,-487.4856 1080.2038,-487.4856"/>
<text text-anchor="start" x="1082.8903" y="-495.1856" font-family="Helvetica,sans-Serif" font-size="11.00" fill="#000000">number[38]</text>
<polygon fill="none" stroke="#000000" points="938.2038,-465.4856 938.2038,-487.4856 1080.2038,-487.4856 1080.2038,-465.4856 938.2038,-465.4856"/>
<image xlink:href="../../images/primaryKeys.png" width="11px" height="12px" preserveAspectRatio="xMinYMin meet" x="943.204" y="-482.486"/>
<text text-anchor="start" x="958.2038" y="-472.5856" font-family="Helvetica,sans-Serif" font-size="11.00" fill="#000000">PROVIDER_TEAM_ID</text>
<polygon fill="none" stroke="#000000" points="1080.2038,-465.4856 1080.2038,-487.4856 1141.2038,-487.4856 1141.2038,-465.4856 1080.2038,-465.4856"/>
<text text-anchor="start" x="1082.8903" y="-473.1856" font-family="Helvetica,sans-Serif" font-size="11.00" fill="#000000">number[38]</text>
<polygon fill="none" stroke="#000000" points="938.2038,-443.4856 938.2038,-465.4856 1080.2038,-465.4856 1080.2038,-443.4856 938.2038,-443.4856"/>
<text text-anchor="start" x="958.2038" y="-450.5856" font-family="Helvetica,sans-Serif" font-size="11.00" fill="#000000">ROW_VERSION</text>
<polygon fill="none" stroke="#000000" points="1080.2038,-443.4856 1080.2038,-465.4856 1141.2038,-465.4856 1141.2038,-443.4856 1080.2038,-443.4856"/>
<text text-anchor="start" x="1082.8903" y="-451.1856" font-family="Helvetica,sans-Serif" font-size="11.00" fill="#000000">number[38]</text>
<polygon fill="none" stroke="#000000" points="938.2038,-421.4856 938.2038,-443.4856 1080.2038,-443.4856 1080.2038,-421.4856 938.2038,-421.4856"/>
<image xlink:href="../../images/primaryKeys.png" width="11px" height="12px" preserveAspectRatio="xMinYMin meet" x="943.204" y="-438.486"/>
<text text-anchor="start" x="958.2038" y="-428.5856" font-family="Helvetica,sans-Serif" font-size="11.00" fill="#000000">PARTITION_AREA_ID</text>
<polygon fill="none" stroke="#000000" points="1080.2038,-421.4856 1080.2038,-443.4856 1141.2038,-443.4856 1141.2038,-421.4856 1080.2038,-421.4856"/>
<text text-anchor="start" x="1082.8903" y="-429.1856" font-family="Helvetica,sans-Serif" font-size="11.00" fill="#000000">number[38]</text>
<polygon fill="none" stroke="#000000" points="938.2038,-399.4856 938.2038,-421.4856 1080.2038,-421.4856 1080.2038,-399.4856 938.2038,-399.4856"/>
<image xlink:href="../../images/primaryKeys.png" width="11px" height="12px" preserveAspectRatio="xMinYMin meet" x="943.204" y="-416.486"/>
<text text-anchor="start" x="958.2038" y="-406.5856" font-family="Helvetica,sans-Serif" font-size="11.00" fill="#000000">DISTRICT_ID</text>
<polygon fill="none" stroke="#000000" points="1080.2038,-399.4856 1080.2038,-421.4856 1141.2038,-421.4856 1141.2038,-399.4856 1080.2038,-399.4856"/>
<text text-anchor="start" x="1082.8903" y="-407.1856" font-family="Helvetica,sans-Serif" font-size="11.00" fill="#000000">number[38]</text>
<polygon fill="none" stroke="#000000" points="938.2038,-377.4856 938.2038,-399.4856 1080.2038,-399.4856 1080.2038,-377.4856 938.2038,-377.4856"/>
<image xlink:href="../../images/primaryKeys.png" width="11px" height="12px" preserveAspectRatio="xMinYMin meet" x="943.204" y="-394.486"/>
<text text-anchor="start" x="958.2038" y="-384.5856" font-family="Helvetica,sans-Serif" font-size="11.00" fill="#000000">BOROUGH_ID</text>
<polygon fill="none" stroke="#000000" points="1080.2038,-377.4856 1080.2038,-399.4856 1141.2038,-399.4856 1141.2038,-377.4856 1080.2038,-377.4856"/>
<text text-anchor="start" x="1082.8903" y="-385.1856" font-family="Helvetica,sans-Serif" font-size="11.00" fill="#000000">number[38]</text>
<polygon fill="none" stroke="#000000" points="938.2038,-355.4856 938.2038,-377.4856 1080.2038,-377.4856 1080.2038,-355.4856 938.2038,-355.4856"/>
<image xlink:href="../../images/primaryKeys.png" width="11px" height="12px" preserveAspectRatio="xMinYMin meet" x="943.204" y="-372.486"/>
<text text-anchor="start" x="957.7256" y="-362.5856" font-family="Helvetica,sans-Serif" font-size="11.00" fill="#000000">PROBATION_AREA_ID</text>
<polygon fill="none" stroke="#000000" points="1080.2038,-355.4856 1080.2038,-377.4856 1141.2038,-377.4856 1141.2038,-355.4856 1080.2038,-355.4856"/>
<text text-anchor="start" x="1082.8903" y="-363.1856" font-family="Helvetica,sans-Serif" font-size="11.00" fill="#000000">number[38]</text>
<polygon fill="none" stroke="#000000" points="938.2038,-333.4856 938.2038,-355.4856 1080.2038,-355.4856 1080.2038,-333.4856 938.2038,-333.4856"/>
<image xlink:href="../../images/primaryKeys.png" width="11px" height="12px" preserveAspectRatio="xMinYMin meet" x="943.204" y="-350.486"/>
<text text-anchor="start" x="954.3662" y="-340.5856" font-family="Helvetica,sans-Serif" font-size="11.00" fill="#000000">TRAINING_SESSION_ID</text>
<polygon fill="none" stroke="#000000" points="1080.2038,-333.4856 1080.2038,-355.4856 1141.2038,-355.4856 1141.2038,-333.4856 1080.2038,-333.4856"/>
<text text-anchor="start" x="1082.8903" y="-341.1856" font-family="Helvetica,sans-Serif" font-size="11.00" fill="#000000">number[38]</text>
<polygon fill="#ffffff" stroke="transparent" points="938.2038,-314.4856 938.2038,-333.4856 1000.2038,-333.4856 1000.2038,-314.4856 938.2038,-314.4856"/>
<polygon fill="none" stroke="#000000" points="938.2038,-314.4856 938.2038,-333.4856 1000.2038,-333.4856 1000.2038,-314.4856 938.2038,-314.4856"/>
<text text-anchor="start" x="941.2038" y="-320.5856" font-family="Helvetica,sans-Serif" font-size="11.00" fill="#000000">&lt; 6</text>
<polygon fill="#ffffff" stroke="transparent" points="1000.2038,-314.4856 1000.2038,-333.4856 1080.2038,-333.4856 1080.2038,-314.4856 1000.2038,-314.4856"/>
<polygon fill="none" stroke="#000000" points="1000.2038,-314.4856 1000.2038,-333.4856 1080.2038,-333.4856 1080.2038,-314.4856 1000.2038,-314.4856"/>
<text text-anchor="start" x="1044.8143" y="-320.5856" font-family="Helvetica,sans-Serif" font-size="11.00" fill="#000000">9 rows</text>
<polygon fill="#ffffff" stroke="transparent" points="1080.2038,-314.4856 1080.2038,-333.4856 1141.2038,-333.4856 1141.2038,-314.4856 1080.2038,-314.4856"/>
<polygon fill="none" stroke="#000000" points="1080.2038,-314.4856 1080.2038,-333.4856 1141.2038,-333.4856 1141.2038,-314.4856 1080.2038,-314.4856"/>
<text text-anchor="start" x="1122.6091" y="-320.5856" font-family="Helvetica,sans-Serif" font-size="11.00" fill="#000000">1 &gt;</text>
<polygon fill="none" stroke="#000000" stroke-width="2" points="936.7038,-313.4856 936.7038,-577.4856 1141.7038,-577.4856 1141.7038,-313.4856 936.7038,-313.4856"/>
</a>
</g>
</g>
<!-- DPA_REPORT&#45;&gt;BOROUGH -->
<g id="edge3" class="edge">
<title>DPA_REPORT:w&#45;&gt;BOROUGH:e</title>
<path fill="none" stroke="#000000" d="M923.8569,-386.4368C858.8825,-364.9385 976.4031,-181.4856 887.2038,-181.4856"/>
<polygon fill="#000000" stroke="#000000" points="930.2841,-387.3546 937.6948,-392.0494 934.2439,-387.9201 938.2038,-388.4856 938.2038,-388.4856 938.2038,-388.4856 934.2439,-387.9201 938.7127,-384.9217 930.2841,-387.3546 930.2841,-387.3546"/>
<ellipse fill="none" stroke="#000000" cx="927.1162" cy="-386.9022" rx="3.2" ry="3.2"/>
</g>
<!-- DPA_REPORT&#45;&gt;PROBATION_AREA -->
<g id="edge6" class="edge">
<title>DPA_REPORT:w&#45;&gt;PROBATION_AREA:e</title>
<path fill="none" stroke="#000000" d="M923.7349,-366.3467C836.6253,-364.6771 804.4399,-349.1106 717.7038,-383.4856 695.9578,-392.1039 700.0952,-416.4856 676.7038,-416.4856"/>
<polygon fill="#000000" stroke="#000000" points="930.2041,-366.4088 938.1692,-370.0854 934.2039,-366.4472 938.2038,-366.4856 938.2038,-366.4856 938.2038,-366.4856 934.2039,-366.4472 938.2383,-362.8858 930.2041,-366.4088 930.2041,-366.4088"/>
<ellipse fill="none" stroke="#000000" cx="927.0043" cy="-366.378" rx="3.2" ry="3.2"/>
</g>
<!-- DPA_REPORT&#45;&gt;DISTRICT -->
<g id="edge4" class="edge">
<title>DPA_REPORT:w&#45;&gt;DISTRICT:e</title>
<path fill="none" stroke="#000000" d="M923.7303,-410.1111C836.3111,-405.5668 798.8459,-361.9783 717.7038,-407.4856 693.1718,-421.244 709.2357,-447.7272 684.7038,-461.4856 596.3213,-511.0535 554.7141,-487.2232 456.7038,-461.4856 341.2135,-431.1577 303.4045,-417.4922 222.7038,-329.4856 193.3322,-297.4551 225.6623,-240.4856 182.2038,-240.4856"/>
<polygon fill="#000000" stroke="#000000" points="930.2064,-410.2786 938.1106,-414.0844 934.2051,-410.3821 938.2038,-410.4856 938.2038,-410.4856 938.2038,-410.4856 934.2051,-410.3821 938.2969,-406.8868 930.2064,-410.2786 930.2064,-410.2786"/>
<ellipse fill="none" stroke="#000000" cx="927.0075" cy="-410.1958" rx="3.2" ry="3.2"/>
</g>
<!-- PARTITION_AREA -->
<g id="node5" class="node">
<title>PARTITION_AREA</title>
<g id="a_node5"><a xlink:href="../../tables/PARTITION_AREA.html" xlink:title="PARTITION_AREA" target="_top">
<polygon fill="#ffffff" stroke="transparent" points="735.2038,-236.9856 735.2038,-341.9856 877.2038,-341.9856 877.2038,-236.9856 735.2038,-236.9856"/>
<polygon fill="#f5f5f5" stroke="transparent" points="735.2038,-318.4856 735.2038,-341.4856 877.2038,-341.4856 877.2038,-318.4856 735.2038,-318.4856"/>
<polygon fill="none" stroke="#000000" points="735.2038,-318.4856 735.2038,-341.4856 877.2038,-341.4856 877.2038,-318.4856 735.2038,-318.4856"/>
<text text-anchor="start" x="740.2038" y="-327.5856" font-family="Helvetica,sans-Serif" font-weight="bold" font-size="11.00" fill="#000000">PARTITION_AREA</text>
<text text-anchor="start" x="842.2475" y="-326.5856" font-family="Helvetica,sans-Serif" font-size="11.00" fill="#000000">[table]</text>
<polygon fill="none" stroke="#000000" points="735.2038,-296.4856 735.2038,-318.4856 877.2038,-318.4856 877.2038,-296.4856 735.2038,-296.4856"/>
<image xlink:href="../../images/primaryKeys.png" width="11px" height="12px" preserveAspectRatio="xMinYMin meet" x="740.204" y="-313.486"/>
<text text-anchor="start" x="755.2038" y="-303.5856" font-family="Helvetica,sans-Serif" font-size="11.00" fill="#000000">PARTITION_AREA_ID</text>
<polygon fill="none" stroke="#000000" points="735.2038,-274.4856 735.2038,-296.4856 877.2038,-296.4856 877.2038,-274.4856 735.2038,-274.4856"/>
<image xlink:href="../../images/primaryKeys.png" width="11px" height="12px" preserveAspectRatio="xMinYMin meet" x="740.204" y="-291.486"/>
<text text-anchor="start" x="751.3662" y="-281.5856" font-family="Helvetica,sans-Serif" font-size="11.00" fill="#000000">TRAINING_SESSION_ID</text>
<polygon fill="none" stroke="#000000" points="735.2038,-255.4856 735.2038,-274.4856 877.2038,-274.4856 877.2038,-255.4856 735.2038,-255.4856"/>
<text text-anchor="start" x="738.2038" y="-261.5856" font-family="Helvetica,sans-Serif" font-size="11.00" fill="#000000">...</text>
<polygon fill="#ffffff" stroke="transparent" points="735.2038,-236.4856 735.2038,-255.4856 776.2038,-255.4856 776.2038,-236.4856 735.2038,-236.4856"/>
<polygon fill="none" stroke="#000000" points="735.2038,-236.4856 735.2038,-255.4856 776.2038,-255.4856 776.2038,-236.4856 735.2038,-236.4856"/>
<text text-anchor="start" x="738.2038" y="-242.5856" font-family="Helvetica,sans-Serif" font-size="11.00" fill="#000000"> &#160;</text>
<polygon fill="#ffffff" stroke="transparent" points="776.2038,-236.4856 776.2038,-255.4856 835.2038,-255.4856 835.2038,-236.4856 776.2038,-236.4856"/>
<polygon fill="none" stroke="#000000" points="776.2038,-236.4856 776.2038,-255.4856 835.2038,-255.4856 835.2038,-236.4856 776.2038,-236.4856"/>
<text text-anchor="start" x="793.6994" y="-242.5856" font-family="Helvetica,sans-Serif" font-size="11.00" fill="#000000">44 rows</text>
<polygon fill="#ffffff" stroke="transparent" points="835.2038,-236.4856 835.2038,-255.4856 877.2038,-255.4856 877.2038,-236.4856 835.2038,-236.4856"/>
<polygon fill="none" stroke="#000000" points="835.2038,-236.4856 835.2038,-255.4856 877.2038,-255.4856 877.2038,-236.4856 835.2038,-236.4856"/>
<text text-anchor="start" x="852.4942" y="-242.5856" font-family="Helvetica,sans-Serif" font-size="11.00" fill="#000000">82 &gt;</text>
</a>
</g>
</g>
<!-- DPA_REPORT&#45;&gt;PARTITION_AREA -->
<g id="edge5" class="edge">
<title>DPA_REPORT:w&#45;&gt;PARTITION_AREA:e</title>
<path fill="none" stroke="#000000" d="M923.8939,-429.3957C887.0363,-410.1467 933.2261,-307.4856 877.2038,-307.4856"/>
<polygon fill="#000000" stroke="#000000" points="930.384,-430.797 937.4439,-436.0045 934.2939,-431.6413 938.2038,-432.4856 938.2038,-432.4856 938.2038,-432.4856 934.2939,-431.6413 938.9636,-428.9667 930.384,-430.797 930.384,-430.797"/>
<ellipse fill="none" stroke="#000000" cx="927.2561" cy="-430.1216" rx="3.2" ry="3.2"/>
</g>
<!-- PROVIDER_TEAM -->
<g id="node6" class="node">
<title>PROVIDER_TEAM</title>
<g id="a_node6"><a xlink:href="../../tables/PROVIDER_TEAM.html" xlink:title="PROVIDER_TEAM" target="_top">
<polygon fill="#ffffff" stroke="transparent" points="725.7038,-417.9856 725.7038,-588.9856 886.7038,-588.9856 886.7038,-417.9856 725.7038,-417.9856"/>
<polygon fill="#f5f5f5" stroke="transparent" points="726.2038,-565.4856 726.2038,-588.4856 887.2038,-588.4856 887.2038,-565.4856 726.2038,-565.4856"/>
<polygon fill="none" stroke="#000000" points="726.2038,-565.4856 726.2038,-588.4856 887.2038,-588.4856 887.2038,-565.4856 726.2038,-565.4856"/>
<text text-anchor="start" x="731.2038" y="-574.5856" font-family="Helvetica,sans-Serif" font-weight="bold" font-size="11.00" fill="#000000">PROVIDER_TEAM</text>
<text text-anchor="start" x="852.2475" y="-573.5856" font-family="Helvetica,sans-Serif" font-size="11.00" fill="#000000">[table]</text>
<polygon fill="none" stroke="#000000" points="726.2038,-543.4856 726.2038,-565.4856 887.2038,-565.4856 887.2038,-543.4856 726.2038,-543.4856"/>
<image xlink:href="../../images/primaryKeys.png" width="11px" height="12px" preserveAspectRatio="xMinYMin meet" x="731.204" y="-560.486"/>
<text text-anchor="start" x="746.2038" y="-550.5856" font-family="Helvetica,sans-Serif" font-size="11.00" fill="#000000">PROVIDER_TEAM_ID</text>
<polygon fill="none" stroke="#000000" points="726.2038,-521.4856 726.2038,-543.4856 887.2038,-543.4856 887.2038,-521.4856 726.2038,-521.4856"/>
<image xlink:href="../../images/primaryKeys.png" width="11px" height="12px" preserveAspectRatio="xMinYMin meet" x="731.204" y="-538.486"/>
<text text-anchor="start" x="746.2038" y="-528.5856" font-family="Helvetica,sans-Serif" font-size="11.00" fill="#000000">CODE</text>
<polygon fill="none" stroke="#000000" points="726.2038,-499.4856 726.2038,-521.4856 887.2038,-521.4856 887.2038,-499.4856 726.2038,-499.4856"/>
<image xlink:href="../../images/primaryKeys.png" width="11px" height="12px" preserveAspectRatio="xMinYMin meet" x="731.204" y="-516.486"/>
<text text-anchor="start" x="744.8378" y="-506.5856" font-family="Helvetica,sans-Serif" font-size="11.00" fill="#000000">EXTERNAL_PROVIDER_ID</text>
<polygon fill="none" stroke="#000000" points="726.2038,-477.4856 726.2038,-499.4856 887.2038,-499.4856 887.2038,-477.4856 726.2038,-477.4856"/>
<image xlink:href="../../images/primaryKeys.png" width="11px" height="12px" preserveAspectRatio="xMinYMin meet" x="731.204" y="-494.486"/>
<text text-anchor="start" x="746.2038" y="-484.5856" font-family="Helvetica,sans-Serif" font-size="11.00" fill="#000000">TRAINING_SESSION_ID</text>
<polygon fill="none" stroke="#000000" points="726.2038,-455.4856 726.2038,-477.4856 887.2038,-477.4856 887.2038,-455.4856 726.2038,-455.4856"/>
<image xlink:href="../../images/primaryKeys.png" width="11px" height="12px" preserveAspectRatio="xMinYMin meet" x="731.204" y="-472.486"/>
<text text-anchor="start" x="746.2038" y="-462.5856" font-family="Helvetica,sans-Serif" font-size="11.00" fill="#000000">PROBATION_AREA_ID</text>
<polygon fill="none" stroke="#000000" points="726.2038,-436.4856 726.2038,-455.4856 887.2038,-455.4856 887.2038,-436.4856 726.2038,-436.4856"/>
<text text-anchor="start" x="729.2038" y="-442.5856" font-family="Helvetica,sans-Serif" font-size="11.00" fill="#000000">...</text>
<polygon fill="#ffffff" stroke="transparent" points="726.2038,-417.4856 726.2038,-436.4856 787.2038,-436.4856 787.2038,-417.4856 726.2038,-417.4856"/>
<polygon fill="none" stroke="#000000" points="726.2038,-417.4856 726.2038,-436.4856 787.2038,-436.4856 787.2038,-417.4856 726.2038,-417.4856"/>
<text text-anchor="start" x="729.2038" y="-423.5856" font-family="Helvetica,sans-Serif" font-size="11.00" fill="#000000">&lt; 2</text>
<polygon fill="#ffffff" stroke="transparent" points="787.2038,-417.4856 787.2038,-436.4856 839.2038,-436.4856 839.2038,-417.4856 787.2038,-417.4856"/>
<polygon fill="none" stroke="#000000" points="787.2038,-417.4856 787.2038,-436.4856 839.2038,-436.4856 839.2038,-417.4856 787.2038,-417.4856"/>
<text text-anchor="start" x="809.3143" y="-423.5856" font-family="Helvetica,sans-Serif" font-size="11.00" fill="#000000">1 row</text>
<polygon fill="#ffffff" stroke="transparent" points="839.2038,-417.4856 839.2038,-436.4856 887.2038,-436.4856 887.2038,-417.4856 839.2038,-417.4856"/>
<polygon fill="none" stroke="#000000" points="839.2038,-417.4856 839.2038,-436.4856 887.2038,-436.4856 887.2038,-417.4856 839.2038,-417.4856"/>
<text text-anchor="start" x="862.4942" y="-423.5856" font-family="Helvetica,sans-Serif" font-size="11.00" fill="#000000">24 &gt;</text>
</a>
</g>
</g>
<!-- DPA_REPORT&#45;&gt;PROVIDER_TEAM -->
<g id="edge7" class="edge">
<title>DPA_REPORT:w&#45;&gt;PROVIDER_TEAM:e</title>
<path fill="none" stroke="#000000" d="M924.3932,-480.9027C904.4575,-497.4031 922.6366,-554.4856 887.2038,-554.4856"/>
<polygon fill="#000000" stroke="#000000" points="930.584,-478.9227 939.3004,-479.9145 934.3939,-477.7041 938.2038,-476.4856 938.2038,-476.4856 938.2038,-476.4856 934.3939,-477.7041 937.1071,-473.0567 930.584,-478.9227 930.584,-478.9227"/>
<ellipse fill="none" stroke="#000000" cx="927.5361" cy="-479.8975" rx="3.2" ry="3.2"/>
</g>
<!-- DPA_REPORT&#45;&gt;TEAM -->
<g id="edge8" class="edge">
<title>DPA_REPORT:w&#45;&gt;TEAM:e</title>
<path fill="none" stroke="#000000" d="M923.9766,-501.7234C899.5193,-516.2799 930.4275,-575.9754 894.7038,-599.4856 828.9908,-642.732 794.0557,-618.4282 717.7038,-599.4856 590.3482,-567.8892 536.6026,-565.5719 456.7038,-461.4856 407.565,-397.4713 496.9035,-284.4856 416.2038,-284.4856"/>
<polygon fill="#000000" stroke="#000000" points="930.4032,-500.2609 939.0026,-501.9958 934.3035,-499.3732 938.2038,-498.4856 938.2038,-498.4856 938.2038,-498.4856 934.3035,-499.3732 937.4049,-494.9753 930.4032,-500.2609 930.4032,-500.2609"/>
<ellipse fill="none" stroke="#000000" cx="927.283" cy="-500.971" rx="3.2" ry="3.2"/>
</g>
<!-- PROVIDER_TEAM&#45;&gt;PROBATION_AREA -->
<g id="edge14" class="edge">
<title>PROVIDER_TEAM:w&#45;&gt;PROBATION_AREA:e</title>
<path fill="none" stroke="#000000" d="M712.292,-461.5086C698.3371,-448.8617 701.8665,-416.4856 676.7038,-416.4856"/>
<polygon fill="#000000" stroke="#000000" points="718.6713,-463.7908 724.9911,-469.8752 722.4375,-465.1382 726.2038,-466.4856 726.2038,-466.4856 726.2038,-466.4856 722.4375,-465.1382 727.4164,-463.096 718.6713,-463.7908 718.6713,-463.7908"/>
<ellipse fill="none" stroke="#000000" cx="715.6583" cy="-462.7128" rx="3.2" ry="3.2"/>
</g>
<!-- TEAM&#45;&gt;PROBATION_AREA -->
<g id="edge16" class="edge">
<title>TEAM:w&#45;&gt;PROBATION_AREA:e</title>
<path fill="none" stroke="#000000" d="M244.74,-169.2469C288.5571,-152.2891 423.7038,-99.9856 423.7038,-99.9856 482.2625,-153.3533 398.145,-401.6179 456.7038,-454.9856 456.7038,-454.9856 676.7038,-416.4856 676.7038,-416.4856"/>
<polygon fill="#000000" stroke="#000000" points="238.6645,-171.5981 229.9044,-171.1282 234.9341,-173.0419 231.2038,-174.4856 231.2038,-174.4856 231.2038,-174.4856 234.9341,-173.0419 232.5031,-177.8429 238.6645,-171.5981 238.6645,-171.5981"/>
<ellipse fill="none" stroke="#000000" cx="241.6488" cy="-170.4432" rx="3.2" ry="3.2"/>
</g>
<!-- TEAM&#45;&gt;DISTRICT -->
<g id="edge15" class="edge">
<title>TEAM:w&#45;&gt;DISTRICT:e</title>
<path fill="none" stroke="#000000" d="M216.6946,-240.4856C205.3812,-240.4856 198.1968,-240.4856 182.2038,-240.4856"/>
<polygon fill="#000000" stroke="#000000" points="223.2038,-240.4856 231.2038,-244.0856 227.2038,-240.4856 231.2038,-240.4856 231.2038,-240.4856 231.2038,-240.4856 227.2038,-240.4856 231.2037,-236.8856 223.2038,-240.4856 223.2038,-240.4856"/>
<ellipse fill="none" stroke="#000000" cx="220.0038" cy="-240.4857" rx="3.2" ry="3.2"/>
</g>
<!-- DPA_REPORT_OFFENDER -->
<g id="node8" class="node">
<title>DPA_REPORT_OFFENDER</title>
<g id="a_node8"><a xlink:href="../../tables/DPA_REPORT_OFFENDER.html" xlink:title="DPA_REPORT_OFFENDER" target="_top">
<polygon fill="#ffffff" stroke="transparent" points="1191.7038,-322.9856 1191.7038,-471.9856 1375.7038,-471.9856 1375.7038,-322.9856 1191.7038,-322.9856"/>
<polygon fill="#f5f5f5" stroke="transparent" points="1191.7038,-448.4856 1191.7038,-471.4856 1375.7038,-471.4856 1375.7038,-448.4856 1191.7038,-448.4856"/>
<polygon fill="none" stroke="#000000" points="1191.7038,-448.4856 1191.7038,-471.4856 1375.7038,-471.4856 1375.7038,-448.4856 1191.7038,-448.4856"/>
<text text-anchor="start" x="1196.6217" y="-457.5856" font-family="Helvetica,sans-Serif" font-weight="bold" font-size="11.00" fill="#000000">DPA_REPORT_OFFENDER</text>
<text text-anchor="start" x="1341.2256" y="-456.5856" font-family="Helvetica,sans-Serif" font-size="11.00" fill="#000000">[table]</text>
<polygon fill="none" stroke="#000000" points="1191.7038,-426.4856 1191.7038,-448.4856 1375.7038,-448.4856 1375.7038,-426.4856 1191.7038,-426.4856"/>
<image xlink:href="../../images/primaryKeys.png" width="11px" height="12px" preserveAspectRatio="xMinYMin meet" x="1196.7" y="-443.486"/>
<text text-anchor="start" x="1227.7038" y="-433.5856" font-family="Helvetica,sans-Serif" font-size="11.00" fill="#000000">DPA_REPORT_ID</text>
<polygon fill="none" stroke="#000000" points="1191.7038,-404.4856 1191.7038,-426.4856 1375.7038,-426.4856 1375.7038,-404.4856 1191.7038,-404.4856"/>
<image xlink:href="../../images/primaryKeys.png" width="11px" height="12px" preserveAspectRatio="xMinYMin meet" x="1196.7" y="-421.486"/>
<text text-anchor="start" x="1227.7038" y="-411.5856" font-family="Helvetica,sans-Serif" font-size="11.00" fill="#000000">OFFENDER_ID</text>
<polygon fill="none" stroke="#000000" points="1191.7038,-382.4856 1191.7038,-404.4856 1375.7038,-404.4856 1375.7038,-382.4856 1191.7038,-382.4856"/>
<image xlink:href="../../images/primaryKeys.png" width="11px" height="12px" preserveAspectRatio="xMinYMin meet" x="1196.7" y="-399.486"/>
<text text-anchor="start" x="1227.7038" y="-389.5856" font-family="Helvetica,sans-Serif" font-size="11.00" fill="#000000">PARTITION_AREA_ID</text>
<polygon fill="none" stroke="#000000" points="1191.7038,-360.4856 1191.7038,-382.4856 1375.7038,-382.4856 1375.7038,-360.4856 1191.7038,-360.4856"/>
<image xlink:href="../../images/primaryKeys.png" width="11px" height="12px" preserveAspectRatio="xMinYMin meet" x="1196.7" y="-377.486"/>
<text text-anchor="start" x="1227.7038" y="-367.5856" font-family="Helvetica,sans-Serif" font-size="11.00" fill="#000000">TRAINING_SESSION_ID</text>
<polygon fill="none" stroke="#000000" points="1191.7038,-341.4856 1191.7038,-360.4856 1375.7038,-360.4856 1375.7038,-341.4856 1191.7038,-341.4856"/>
<text text-anchor="start" x="1194.7038" y="-347.5856" font-family="Helvetica,sans-Serif" font-size="11.00" fill="#000000">...</text>
<polygon fill="#ffffff" stroke="transparent" points="1191.7038,-322.4856 1191.7038,-341.4856 1262.7038,-341.4856 1262.7038,-322.4856 1191.7038,-322.4856"/>
<polygon fill="none" stroke="#000000" points="1191.7038,-322.4856 1191.7038,-341.4856 1262.7038,-341.4856 1262.7038,-322.4856 1191.7038,-322.4856"/>
<text text-anchor="start" x="1194.7038" y="-328.5856" font-family="Helvetica,sans-Serif" font-size="11.00" fill="#000000">&lt; 3</text>
<polygon fill="#ffffff" stroke="transparent" points="1262.7038,-322.4856 1262.7038,-341.4856 1337.7038,-341.4856 1337.7038,-322.4856 1262.7038,-322.4856"/>
<polygon fill="none" stroke="#000000" points="1262.7038,-322.4856 1262.7038,-341.4856 1337.7038,-341.4856 1337.7038,-322.4856 1262.7038,-322.4856"/>
<text text-anchor="start" x="1290.0845" y="-328.5856" font-family="Helvetica,sans-Serif" font-size="11.00" fill="#000000">844 rows</text>
<polygon fill="#ffffff" stroke="transparent" points="1337.7038,-322.4856 1337.7038,-341.4856 1375.7038,-341.4856 1375.7038,-322.4856 1337.7038,-322.4856"/>
<polygon fill="none" stroke="#000000" points="1337.7038,-322.4856 1337.7038,-341.4856 1375.7038,-341.4856 1375.7038,-322.4856 1337.7038,-322.4856"/>
<text text-anchor="start" x="1366.59" y="-328.5856" font-family="Helvetica,sans-Serif" font-size="11.00" fill="#000000"> &#160;</text>
</a>
</g>
</g>
<!-- DPA_REPORT_OFFENDER&#45;&gt;DPA_REPORT -->
<g id="edge9" class="edge">
<title>DPA_REPORT_OFFENDER:w&#45;&gt;DPA_REPORT:e</title>
<path fill="none" stroke="#000000" d="M1177.4808,-441.4735C1150.9179,-460.653 1186.9189,-542.4856 1141.2038,-542.4856"/>
<polygon fill="#000000" stroke="#000000" points="1184.0008,-439.6454 1192.6757,-440.9519 1187.8523,-438.5655 1191.7038,-437.4856 1191.7038,-437.4856 1191.7038,-437.4856 1187.8523,-438.5655 1190.7318,-434.0193 1184.0008,-439.6454 1184.0008,-439.6454"/>
<ellipse fill="none" stroke="#000000" cx="1180.9196" cy="-440.5094" rx="3.2" ry="3.2"/>
</g>
<!-- DPA_REPORT_OFFENDER&#45;&gt;PARTITION_AREA -->
<g id="edge10" class="edge">
<title>DPA_REPORT_OFFENDER:w&#45;&gt;PARTITION_AREA:e</title>
<path fill="none" stroke="#000000" d="M1177.4663,-389.782C1156.9981,-375.3212 1182.9714,-322.4323 1150.7038,-301.4856 1067.5726,-247.5205 1026.6417,-295.6287 927.7038,-301.4856 905.1409,-302.8213 899.8061,-307.4856 877.2038,-307.4856"/>
<polygon fill="#000000" stroke="#000000" points="1183.9614,-391.4715 1190.7974,-396.9696 1187.8326,-392.4785 1191.7038,-393.4856 1191.7038,-393.4856 1191.7038,-393.4856 1187.8326,-392.4785 1192.6101,-390.0015 1183.9614,-391.4715 1183.9614,-391.4715"/>
<ellipse fill="none" stroke="#000000" cx="1180.8645" cy="-390.6659" rx="3.2" ry="3.2"/>
</g>
</g>
</svg>
