<?xml version="1.0" encoding="UTF-8" standalone="no"?>
<!DOCTYPE svg PUBLIC "-//W3C//DTD SVG 1.1//EN"
 "http://www.w3.org/Graphics/SVG/1.1/DTD/svg11.dtd">
<!-- Generated by graphviz version 2.40.1 (20161225.0304)
 -->
<!-- Title: oneDegreeRelationshipsDiagram Pages: 1 -->
<svg width="699pt" height="1194pt"
 viewBox="0.00 0.00 699.00 1194.40" xmlns="http://www.w3.org/2000/svg" xmlns:xlink="http://www.w3.org/1999/xlink">
<g id="graph0" class="graph" transform="scale(1 1) rotate(0) translate(4 1190.4036)">
<title>oneDegreeRelationshipsDiagram</title>
<polygon fill="#ffffff" stroke="transparent" points="-4,4 -4,-1190.4036 695,-1190.4036 695,4 -4,4"/>
<text text-anchor="middle" x="72.4936" y="-7.3" font-family="Helvetica,sans-Serif" font-size="11.00" fill="#000000">Generated by SchemaSpy</text>
<!-- DPA_REPORT -->
<g id="node1" class="node">
<title>DPA_REPORT</title>
<g id="a_node1"><a xlink:href="../../tables/DPA_REPORT.html" xlink:title="DPA_REPORT" target="_top">
<polygon fill="#ffffff" stroke="transparent" points="237,-945.4036 237,-1182.4036 379,-1182.4036 379,-945.4036 237,-945.4036"/>
<polygon fill="#f5f5f5" stroke="transparent" points="237,-1158.9036 237,-1181.9036 379,-1181.9036 379,-1158.9036 237,-1158.9036"/>
<polygon fill="none" stroke="#000000" points="237,-1158.9036 237,-1181.9036 379,-1181.9036 379,-1158.9036 237,-1158.9036"/>
<text text-anchor="start" x="242" y="-1168.0036" font-family="Helvetica,sans-Serif" font-weight="bold" font-size="11.00" fill="#000000">DPA_REPORT</text>
<text text-anchor="start" x="344.0437" y="-1167.0036" font-family="Helvetica,sans-Serif" font-size="11.00" fill="#000000">[table]</text>
<polygon fill="none" stroke="#000000" points="237,-1136.9036 237,-1158.9036 379,-1158.9036 379,-1136.9036 237,-1136.9036"/>
<image xlink:href="../../images/primaryKeys.png" width="11px" height="12px" preserveAspectRatio="xMinYMin meet" x="242" y="-1153.9"/>
<text text-anchor="start" x="257" y="-1144.0036" font-family="Helvetica,sans-Serif" font-size="11.00" fill="#000000">DPA_REPORT_ID</text>
<polygon fill="none" stroke="#000000" points="237,-1114.9036 237,-1136.9036 379,-1136.9036 379,-1114.9036 237,-1114.9036"/>
<image xlink:href="../../images/primaryKeys.png" width="11px" height="12px" preserveAspectRatio="xMinYMin meet" x="242" y="-1131.9"/>
<text text-anchor="start" x="257" y="-1122.0036" font-family="Helvetica,sans-Serif" font-size="11.00" fill="#000000">TEAM_ID</text>
<polygon fill="none" stroke="#000000" points="237,-1092.9036 237,-1114.9036 379,-1114.9036 379,-1092.9036 237,-1092.9036"/>
<image xlink:href="../../images/primaryKeys.png" width="11px" height="12px" preserveAspectRatio="xMinYMin meet" x="242" y="-1109.9"/>
<text text-anchor="start" x="257" y="-1100.0036" font-family="Helvetica,sans-Serif" font-size="11.00" fill="#000000">PROVIDER_TEAM_ID</text>
<polygon fill="none" stroke="#000000" points="237,-1070.9036 237,-1092.9036 379,-1092.9036 379,-1070.9036 237,-1070.9036"/>
<image xlink:href="../../images/primaryKeys.png" width="11px" height="12px" preserveAspectRatio="xMinYMin meet" x="242" y="-1087.9"/>
<text text-anchor="start" x="257" y="-1078.0036" font-family="Helvetica,sans-Serif" font-size="11.00" fill="#000000">PARTITION_AREA_ID</text>
<polygon fill="none" stroke="#000000" points="237,-1048.9036 237,-1070.9036 379,-1070.9036 379,-1048.9036 237,-1048.9036"/>
<image xlink:href="../../images/primaryKeys.png" width="11px" height="12px" preserveAspectRatio="xMinYMin meet" x="242" y="-1065.9"/>
<text text-anchor="start" x="257" y="-1056.0036" font-family="Helvetica,sans-Serif" font-size="11.00" fill="#000000">DISTRICT_ID</text>
<polygon fill="none" stroke="#000000" points="237,-1026.9036 237,-1048.9036 379,-1048.9036 379,-1026.9036 237,-1026.9036"/>
<image xlink:href="../../images/primaryKeys.png" width="11px" height="12px" preserveAspectRatio="xMinYMin meet" x="242" y="-1043.9"/>
<text text-anchor="start" x="257" y="-1034.0036" font-family="Helvetica,sans-Serif" font-size="11.00" fill="#000000">BOROUGH_ID</text>
<polygon fill="none" stroke="#000000" points="237,-1004.9036 237,-1026.9036 379,-1026.9036 379,-1004.9036 237,-1004.9036"/>
<image xlink:href="../../images/primaryKeys.png" width="11px" height="12px" preserveAspectRatio="xMinYMin meet" x="242" y="-1021.9"/>
<text text-anchor="start" x="256.5219" y="-1012.0036" font-family="Helvetica,sans-Serif" font-size="11.00" fill="#000000">PROBATION_AREA_ID</text>
<polygon fill="none" stroke="#000000" points="237,-982.9036 237,-1004.9036 379,-1004.9036 379,-982.9036 237,-982.9036"/>
<image xlink:href="../../images/primaryKeys.png" width="11px" height="12px" preserveAspectRatio="xMinYMin meet" x="242" y="-999.904"/>
<text text-anchor="start" x="253.1625" y="-990.0036" font-family="Helvetica,sans-Serif" font-size="11.00" fill="#000000">TRAINING_SESSION_ID</text>
<polygon fill="none" stroke="#000000" points="237,-963.9036 237,-982.9036 379,-982.9036 379,-963.9036 237,-963.9036"/>
<text text-anchor="start" x="240" y="-970.0036" font-family="Helvetica,sans-Serif" font-size="11.00" fill="#000000">...</text>
<polygon fill="#ffffff" stroke="transparent" points="237,-944.9036 237,-963.9036 289,-963.9036 289,-944.9036 237,-944.9036"/>
<polygon fill="none" stroke="#000000" points="237,-944.9036 237,-963.9036 289,-963.9036 289,-944.9036 237,-944.9036"/>
<text text-anchor="start" x="240" y="-951.0036" font-family="Helvetica,sans-Serif" font-size="11.00" fill="#000000">&lt; 6</text>
<polygon fill="#ffffff" stroke="transparent" points="289,-944.9036 289,-963.9036 342,-963.9036 342,-944.9036 289,-944.9036"/>
<polygon fill="none" stroke="#000000" points="289,-944.9036 289,-963.9036 342,-963.9036 342,-944.9036 289,-944.9036"/>
<text text-anchor="start" x="306.6105" y="-951.0036" font-family="Helvetica,sans-Serif" font-size="11.00" fill="#000000">9 rows</text>
<polygon fill="#ffffff" stroke="transparent" points="342,-944.9036 342,-963.9036 379,-963.9036 379,-944.9036 342,-944.9036"/>
<polygon fill="none" stroke="#000000" points="342,-944.9036 342,-963.9036 379,-963.9036 379,-944.9036 342,-944.9036"/>
<text text-anchor="start" x="360.4053" y="-951.0036" font-family="Helvetica,sans-Serif" font-size="11.00" fill="#000000">1 &gt;</text>
</a>
</g>
</g>
<!-- PARTITION_AREA -->
<g id="node2" class="node">
<title>PARTITION_AREA</title>
<g id="a_node2"><a xlink:href="../../tables/PARTITION_AREA.html" xlink:title="PARTITION_AREA" target="_top">
<polygon fill="#ffffff" stroke="transparent" points="8,-555.4036 8,-660.4036 150,-660.4036 150,-555.4036 8,-555.4036"/>
<polygon fill="#f5f5f5" stroke="transparent" points="8,-636.9036 8,-659.9036 150,-659.9036 150,-636.9036 8,-636.9036"/>
<polygon fill="none" stroke="#000000" points="8,-636.9036 8,-659.9036 150,-659.9036 150,-636.9036 8,-636.9036"/>
<text text-anchor="start" x="13" y="-646.0036" font-family="Helvetica,sans-Serif" font-weight="bold" font-size="11.00" fill="#000000">PARTITION_AREA</text>
<text text-anchor="start" x="115.0437" y="-645.0036" font-family="Helvetica,sans-Serif" font-size="11.00" fill="#000000">[table]</text>
<polygon fill="none" stroke="#000000" points="8,-614.9036 8,-636.9036 150,-636.9036 150,-614.9036 8,-614.9036"/>
<image xlink:href="../../images/primaryKeys.png" width="11px" height="12px" preserveAspectRatio="xMinYMin meet" x="13" y="-631.904"/>
<text text-anchor="start" x="28" y="-622.0036" font-family="Helvetica,sans-Serif" font-size="11.00" fill="#000000">PARTITION_AREA_ID</text>
<polygon fill="none" stroke="#000000" points="8,-592.9036 8,-614.9036 150,-614.9036 150,-592.9036 8,-592.9036"/>
<image xlink:href="../../images/primaryKeys.png" width="11px" height="12px" preserveAspectRatio="xMinYMin meet" x="13" y="-609.904"/>
<text text-anchor="start" x="24.1624" y="-600.0036" font-family="Helvetica,sans-Serif" font-size="11.00" fill="#000000">TRAINING_SESSION_ID</text>
<polygon fill="none" stroke="#000000" points="8,-573.9036 8,-592.9036 150,-592.9036 150,-573.9036 8,-573.9036"/>
<text text-anchor="start" x="11" y="-580.0036" font-family="Helvetica,sans-Serif" font-size="11.00" fill="#000000">...</text>
<polygon fill="#ffffff" stroke="transparent" points="8,-554.9036 8,-573.9036 49,-573.9036 49,-554.9036 8,-554.9036"/>
<polygon fill="none" stroke="#000000" points="8,-554.9036 8,-573.9036 49,-573.9036 49,-554.9036 8,-554.9036"/>
<text text-anchor="start" x="11" y="-561.0036" font-family="Helvetica,sans-Serif" font-size="11.00" fill="#000000"> &#160;</text>
<polygon fill="#ffffff" stroke="transparent" points="49,-554.9036 49,-573.9036 108,-573.9036 108,-554.9036 49,-554.9036"/>
<polygon fill="none" stroke="#000000" points="49,-554.9036 49,-573.9036 108,-573.9036 108,-554.9036 49,-554.9036"/>
<text text-anchor="start" x="66.4956" y="-561.0036" font-family="Helvetica,sans-Serif" font-size="11.00" fill="#000000">44 rows</text>
<polygon fill="#ffffff" stroke="transparent" points="108,-554.9036 108,-573.9036 150,-573.9036 150,-554.9036 108,-554.9036"/>
<polygon fill="none" stroke="#000000" points="108,-554.9036 108,-573.9036 150,-573.9036 150,-554.9036 108,-554.9036"/>
<text text-anchor="start" x="125.2904" y="-561.0036" font-family="Helvetica,sans-Serif" font-size="11.00" fill="#000000">82 &gt;</text>
</a>
</g>
</g>
<!-- DPA_REPORT&#45;&gt;PARTITION_AREA -->
<g id="edge1" class="edge">
<title>DPA_REPORT:w&#45;&gt;PARTITION_AREA:e</title>
<path fill="none" stroke="#000000" d="M222.5065,-1080.4096C174.1726,-1069.1514 204.5952,-996.3941 191,-934.9036 176.0463,-867.2685 219.2685,-625.9036 150,-625.9036"/>
<polygon fill="#000000" stroke="#000000" points="229.0422,-1081.0832 236.6308,-1085.4846 233.0211,-1081.4934 237,-1081.9036 237,-1081.9036 237,-1081.9036 233.0211,-1081.4934 237.3692,-1078.3226 229.0422,-1081.0832 229.0422,-1081.0832"/>
<ellipse fill="none" stroke="#000000" cx="225.859" cy="-1080.7551" rx="3.2" ry="3.2"/>
</g>
<!-- DPA_REPORT_OFFENDER -->
<g id="node3" class="node">
<title>DPA_REPORT_OFFENDER</title>
<g id="a_node3"><a xlink:href="../../tables/DPA_REPORT_OFFENDER.html" xlink:title="DPA_REPORT_OFFENDER" target="_top">
<polygon fill="#ffffff" stroke="transparent" points="466,-791.9036 466,-947.9036 683,-947.9036 683,-791.9036 466,-791.9036"/>
<polygon fill="#f5f5f5" stroke="transparent" points="468.5,-922.9036 468.5,-945.9036 681.5,-945.9036 681.5,-922.9036 468.5,-922.9036"/>
<polygon fill="none" stroke="#000000" points="468.5,-922.9036 468.5,-945.9036 681.5,-945.9036 681.5,-922.9036 468.5,-922.9036"/>
<text text-anchor="start" x="473.5" y="-932.0036" font-family="Helvetica,sans-Serif" font-weight="bold" font-size="11.00" fill="#000000">DPA_REPORT_OFFENDER</text>
<text text-anchor="start" x="646.5437" y="-931.0036" font-family="Helvetica,sans-Serif" font-size="11.00" fill="#000000">[table]</text>
<polygon fill="none" stroke="#000000" points="468.5,-900.9036 468.5,-922.9036 620.5,-922.9036 620.5,-900.9036 468.5,-900.9036"/>
<image xlink:href="../../images/primaryKeys.png" width="11px" height="12px" preserveAspectRatio="xMinYMin meet" x="473.5" y="-917.904"/>
<text text-anchor="start" x="488.5" y="-908.0036" font-family="Helvetica,sans-Serif" font-size="11.00" fill="#000000">DPA_REPORT_ID</text>
<polygon fill="none" stroke="#000000" points="620.5,-900.9036 620.5,-922.9036 681.5,-922.9036 681.5,-900.9036 620.5,-900.9036"/>
<text text-anchor="start" x="623.1865" y="-908.6036" font-family="Helvetica,sans-Serif" font-size="11.00" fill="#000000">number[38]</text>
<polygon fill="none" stroke="#000000" points="468.5,-878.9036 468.5,-900.9036 620.5,-900.9036 620.5,-878.9036 468.5,-878.9036"/>
<image xlink:href="../../images/primaryKeys.png" width="11px" height="12px" preserveAspectRatio="xMinYMin meet" x="473.5" y="-895.904"/>
<text text-anchor="start" x="488.5" y="-886.0036" font-family="Helvetica,sans-Serif" font-size="11.00" fill="#000000">OFFENDER_ID</text>
<polygon fill="none" stroke="#000000" points="620.5,-878.9036 620.5,-900.9036 681.5,-900.9036 681.5,-878.9036 620.5,-878.9036"/>
<text text-anchor="start" x="623.1865" y="-886.6036" font-family="Helvetica,sans-Serif" font-size="11.00" fill="#000000">number[38]</text>
<polygon fill="none" stroke="#000000" points="468.5,-856.9036 468.5,-878.9036 620.5,-878.9036 620.5,-856.9036 468.5,-856.9036"/>
<image xlink:href="../../images/primaryKeys.png" width="11px" height="12px" preserveAspectRatio="xMinYMin meet" x="473.5" y="-873.904"/>
<text text-anchor="start" x="488.5" y="-864.0036" font-family="Helvetica,sans-Serif" font-size="11.00" fill="#000000">PARTITION_AREA_ID</text>
<polygon fill="none" stroke="#000000" points="620.5,-856.9036 620.5,-878.9036 681.5,-878.9036 681.5,-856.9036 620.5,-856.9036"/>
<text text-anchor="start" x="623.1865" y="-864.6036" font-family="Helvetica,sans-Serif" font-size="11.00" fill="#000000">number[38]</text>
<polygon fill="none" stroke="#000000" points="468.5,-834.9036 468.5,-856.9036 620.5,-856.9036 620.5,-834.9036 468.5,-834.9036"/>
<text text-anchor="start" x="488.5" y="-842.0036" font-family="Helvetica,sans-Serif" font-size="11.00" fill="#000000">ROW_VERSION</text>
<polygon fill="none" stroke="#000000" points="620.5,-834.9036 620.5,-856.9036 681.5,-856.9036 681.5,-834.9036 620.5,-834.9036"/>
<text text-anchor="start" x="623.1865" y="-842.6036" font-family="Helvetica,sans-Serif" font-size="11.00" fill="#000000">number[38]</text>
<polygon fill="none" stroke="#000000" points="468.5,-812.9036 468.5,-834.9036 620.5,-834.9036 620.5,-812.9036 468.5,-812.9036"/>
<image xlink:href="../../images/primaryKeys.png" width="11px" height="12px" preserveAspectRatio="xMinYMin meet" x="473.5" y="-829.904"/>
<text text-anchor="start" x="488.5" y="-820.0036" font-family="Helvetica,sans-Serif" font-size="11.00" fill="#000000">TRAINING_SESSION_ID</text>
<polygon fill="none" stroke="#000000" points="620.5,-812.9036 620.5,-834.9036 681.5,-834.9036 681.5,-812.9036 620.5,-812.9036"/>
<text text-anchor="start" x="623.1865" y="-820.6036" font-family="Helvetica,sans-Serif" font-size="11.00" fill="#000000">number[38]</text>
<polygon fill="#ffffff" stroke="transparent" points="468.5,-793.9036 468.5,-812.9036 529.5,-812.9036 529.5,-793.9036 468.5,-793.9036"/>
<polygon fill="none" stroke="#000000" points="468.5,-793.9036 468.5,-812.9036 529.5,-812.9036 529.5,-793.9036 468.5,-793.9036"/>
<text text-anchor="start" x="471.5" y="-800.0036" font-family="Helvetica,sans-Serif" font-size="11.00" fill="#000000">&lt; 3</text>
<polygon fill="#ffffff" stroke="transparent" points="529.5,-793.9036 529.5,-812.9036 620.5,-812.9036 620.5,-793.9036 529.5,-793.9036"/>
<polygon fill="none" stroke="#000000" points="529.5,-793.9036 529.5,-812.9036 620.5,-812.9036 620.5,-793.9036 529.5,-793.9036"/>
<text text-anchor="start" x="572.8807" y="-800.0036" font-family="Helvetica,sans-Serif" font-size="11.00" fill="#000000">844 rows</text>
<polygon fill="#ffffff" stroke="transparent" points="620.5,-793.9036 620.5,-812.9036 681.5,-812.9036 681.5,-793.9036 620.5,-793.9036"/>
<polygon fill="none" stroke="#000000" points="620.5,-793.9036 620.5,-812.9036 681.5,-812.9036 681.5,-793.9036 620.5,-793.9036"/>
<text text-anchor="start" x="662.9053" y="-800.0036" font-family="Helvetica,sans-Serif" font-size="11.00" fill="#000000">0 &gt;</text>
<polygon fill="none" stroke="#000000" stroke-width="2" points="467,-792.9036 467,-946.9036 682,-946.9036 682,-792.9036 467,-792.9036"/>
</a>
</g>
</g>
<!-- DPA_REPORT_OFFENDER&#45;&gt;DPA_REPORT -->
<g id="edge2" class="edge">
<title>DPA_REPORT_OFFENDER:w&#45;&gt;DPA_REPORT:e</title>
<path fill="none" stroke="#000000" d="M454.0391,-913.473C368.6623,-933.9492 485.8103,-1147.9036 379,-1147.9036"/>
<polygon fill="#000000" stroke="#000000" points="460.5467,-912.7668 468.8884,-915.4826 464.5234,-912.3352 468.5,-911.9036 468.5,-911.9036 468.5,-911.9036 464.5234,-912.3352 468.1116,-908.3246 460.5467,-912.7668 460.5467,-912.7668"/>
<ellipse fill="none" stroke="#000000" cx="457.3654" cy="-913.1121" rx="3.2" ry="3.2"/>
</g>
<!-- DPA_REPORT_OFFENDER&#45;&gt;PARTITION_AREA -->
<g id="edge4" class="edge">
<title>DPA_REPORT_OFFENDER:w&#45;&gt;PARTITION_AREA:e</title>
<path fill="none" stroke="#000000" d="M455.5118,-861.4509C390.3679,-788.4374 486.6177,-119.2894 425,-60.9036 387.2539,-25.1373 229.0769,-25.4897 191,-60.9036 144.9102,-103.77 212.9429,-625.9036 150,-625.9036"/>
<polygon fill="#000000" stroke="#000000" points="461.3355,-864.3441 466.8982,-871.1276 464.9177,-866.1239 468.5,-867.9036 468.5,-867.9036 468.5,-867.9036 464.9177,-866.1239 470.1018,-864.6796 461.3355,-864.3441 461.3355,-864.3441"/>
<ellipse fill="none" stroke="#000000" cx="458.4697" cy="-862.9204" rx="3.2" ry="3.2"/>
</g>
<!-- OFFENDER -->
<g id="node4" class="node">
<title>OFFENDER</title>
<g id="a_node4"><a xlink:href="../../tables/OFFENDER.html" xlink:title="OFFENDER" target="_top">
<polygon fill="#ffffff" stroke="transparent" points="199,-71.4036 199,-924.4036 417,-924.4036 417,-71.4036 199,-71.4036"/>
<polygon fill="#f5f5f5" stroke="transparent" points="199,-900.9036 199,-923.9036 417,-923.9036 417,-900.9036 199,-900.9036"/>
<polygon fill="none" stroke="#000000" points="199,-900.9036 199,-923.9036 417,-923.9036 417,-900.9036 199,-900.9036"/>
<text text-anchor="start" x="204" y="-910.0036" font-family="Helvetica,sans-Serif" font-weight="bold" font-size="11.00" fill="#000000">OFFENDER</text>
<text text-anchor="start" x="382.0437" y="-909.0036" font-family="Helvetica,sans-Serif" font-size="11.00" fill="#000000">[table]</text>
<polygon fill="none" stroke="#000000" points="199,-878.9036 199,-900.9036 417,-900.9036 417,-878.9036 199,-878.9036"/>
<image xlink:href="../../images/primaryKeys.png" width="11px" height="12px" preserveAspectRatio="xMinYMin meet" x="204" y="-895.904"/>
<text text-anchor="start" x="219" y="-886.0036" font-family="Helvetica,sans-Serif" font-size="11.00" fill="#000000">OFFENDER_ID</text>
<polygon fill="none" stroke="#000000" points="199,-856.9036 199,-878.9036 417,-878.9036 417,-856.9036 199,-856.9036"/>
<image xlink:href="../../images/primaryKeys.png" width="11px" height="12px" preserveAspectRatio="xMinYMin meet" x="204" y="-873.904"/>
<text text-anchor="start" x="219" y="-864.0036" font-family="Helvetica,sans-Serif" font-size="11.00" fill="#000000">FIRST_NAME</text>
<polygon fill="none" stroke="#000000" points="199,-834.9036 199,-856.9036 417,-856.9036 417,-834.9036 199,-834.9036"/>
<image xlink:href="../../images/primaryKeys.png" width="11px" height="12px" preserveAspectRatio="xMinYMin meet" x="204" y="-851.904"/>
<text text-anchor="start" x="219" y="-842.0036" font-family="Helvetica,sans-Serif" font-size="11.00" fill="#000000">CRN</text>
<polygon fill="none" stroke="#000000" points="199,-812.9036 199,-834.9036 417,-834.9036 417,-812.9036 199,-812.9036"/>
<image xlink:href="../../images/primaryKeys.png" width="11px" height="12px" preserveAspectRatio="xMinYMin meet" x="204" y="-829.904"/>
<text text-anchor="start" x="219" y="-820.0036" font-family="Helvetica,sans-Serif" font-size="11.00" fill="#000000">SECOND_NAME</text>
<polygon fill="none" stroke="#000000" points="199,-790.9036 199,-812.9036 417,-812.9036 417,-790.9036 199,-790.9036"/>
<image xlink:href="../../images/primaryKeys.png" width="11px" height="12px" preserveAspectRatio="xMinYMin meet" x="204" y="-807.904"/>
<text text-anchor="start" x="219" y="-798.0036" font-family="Helvetica,sans-Serif" font-size="11.00" fill="#000000">PNC_NUMBER</text>
<polygon fill="none" stroke="#000000" points="199,-768.9036 199,-790.9036 417,-790.9036 417,-768.9036 199,-768.9036"/>
<image xlink:href="../../images/primaryKeys.png" width="11px" height="12px" preserveAspectRatio="xMinYMin meet" x="204" y="-785.904"/>
<text text-anchor="start" x="219" y="-776.0036" font-family="Helvetica,sans-Serif" font-size="11.00" fill="#000000">THIRD_NAME</text>
<polygon fill="none" stroke="#000000" points="199,-746.9036 199,-768.9036 417,-768.9036 417,-746.9036 199,-746.9036"/>
<image xlink:href="../../images/primaryKeys.png" width="11px" height="12px" preserveAspectRatio="xMinYMin meet" x="204" y="-763.904"/>
<text text-anchor="start" x="219" y="-754.0036" font-family="Helvetica,sans-Serif" font-size="11.00" fill="#000000">CRO_NUMBER</text>
<polygon fill="none" stroke="#000000" points="199,-724.9036 199,-746.9036 417,-746.9036 417,-724.9036 199,-724.9036"/>
<image xlink:href="../../images/primaryKeys.png" width="11px" height="12px" preserveAspectRatio="xMinYMin meet" x="204" y="-741.904"/>
<text text-anchor="start" x="219" y="-732.0036" font-family="Helvetica,sans-Serif" font-size="11.00" fill="#000000">SURNAME</text>
<polygon fill="none" stroke="#000000" points="199,-702.9036 199,-724.9036 417,-724.9036 417,-702.9036 199,-702.9036"/>
<image xlink:href="../../images/primaryKeys.png" width="11px" height="12px" preserveAspectRatio="xMinYMin meet" x="204" y="-719.904"/>
<text text-anchor="start" x="219" y="-710.0036" font-family="Helvetica,sans-Serif" font-size="11.00" fill="#000000">NOMS_NUMBER</text>
<polygon fill="none" stroke="#000000" points="199,-680.9036 199,-702.9036 417,-702.9036 417,-680.9036 199,-680.9036"/>
<image xlink:href="../../images/primaryKeys.png" width="11px" height="12px" preserveAspectRatio="xMinYMin meet" x="204" y="-697.904"/>
<text text-anchor="start" x="219" y="-688.0036" font-family="Helvetica,sans-Serif" font-size="11.00" fill="#000000">DATE_OF_BIRTH_DATE</text>
<polygon fill="none" stroke="#000000" points="199,-658.9036 199,-680.9036 417,-680.9036 417,-658.9036 199,-658.9036"/>
<image xlink:href="../../images/primaryKeys.png" width="11px" height="12px" preserveAspectRatio="xMinYMin meet" x="204" y="-675.904"/>
<text text-anchor="start" x="219" y="-666.0036" font-family="Helvetica,sans-Serif" font-size="11.00" fill="#000000">NI_NUMBER</text>
<polygon fill="none" stroke="#000000" points="199,-636.9036 199,-658.9036 417,-658.9036 417,-636.9036 199,-636.9036"/>
<image xlink:href="../../images/primaryKeys.png" width="11px" height="12px" preserveAspectRatio="xMinYMin meet" x="204" y="-653.904"/>
<text text-anchor="start" x="219" y="-644.0036" font-family="Helvetica,sans-Serif" font-size="11.00" fill="#000000">IMMIGRATION_NUMBER</text>
<polygon fill="none" stroke="#000000" points="199,-614.9036 199,-636.9036 417,-636.9036 417,-614.9036 199,-614.9036"/>
<image xlink:href="../../images/primaryKeys.png" width="11px" height="12px" preserveAspectRatio="xMinYMin meet" x="204" y="-631.904"/>
<text text-anchor="start" x="219" y="-622.0036" font-family="Helvetica,sans-Serif" font-size="11.00" fill="#000000">PARTITION_AREA_ID</text>
<polygon fill="none" stroke="#000000" points="199,-592.9036 199,-614.9036 417,-614.9036 417,-592.9036 199,-592.9036"/>
<image xlink:href="../../images/primaryKeys.png" width="11px" height="12px" preserveAspectRatio="xMinYMin meet" x="204" y="-609.904"/>
<text text-anchor="start" x="219" y="-600.0036" font-family="Helvetica,sans-Serif" font-size="11.00" fill="#000000">SOFT_DELETED</text>
<polygon fill="none" stroke="#000000" points="199,-570.9036 199,-592.9036 417,-592.9036 417,-570.9036 199,-570.9036"/>
<image xlink:href="../../images/primaryKeys.png" width="11px" height="12px" preserveAspectRatio="xMinYMin meet" x="204" y="-587.904"/>
<text text-anchor="start" x="219" y="-578.0036" font-family="Helvetica,sans-Serif" font-size="11.00" fill="#000000">TITLE_ID</text>
<polygon fill="none" stroke="#000000" points="199,-548.9036 199,-570.9036 417,-570.9036 417,-548.9036 199,-548.9036"/>
<image xlink:href="../../images/primaryKeys.png" width="11px" height="12px" preserveAspectRatio="xMinYMin meet" x="204" y="-565.904"/>
<text text-anchor="start" x="219" y="-556.0036" font-family="Helvetica,sans-Serif" font-size="11.00" fill="#000000">GENDER_ID</text>
<polygon fill="none" stroke="#000000" points="199,-526.9036 199,-548.9036 417,-548.9036 417,-526.9036 199,-526.9036"/>
<image xlink:href="../../images/primaryKeys.png" width="11px" height="12px" preserveAspectRatio="xMinYMin meet" x="204" y="-543.904"/>
<text text-anchor="start" x="219" y="-534.0036" font-family="Helvetica,sans-Serif" font-size="11.00" fill="#000000">ETHNICITY_ID</text>
<polygon fill="none" stroke="#000000" points="199,-504.9036 199,-526.9036 417,-526.9036 417,-504.9036 199,-504.9036"/>
<image xlink:href="../../images/primaryKeys.png" width="11px" height="12px" preserveAspectRatio="xMinYMin meet" x="204" y="-521.904"/>
<text text-anchor="start" x="219" y="-512.0036" font-family="Helvetica,sans-Serif" font-size="11.00" fill="#000000">NATIONALITY_ID</text>
<polygon fill="none" stroke="#000000" points="199,-482.9036 199,-504.9036 417,-504.9036 417,-482.9036 199,-482.9036"/>
<image xlink:href="../../images/primaryKeys.png" width="11px" height="12px" preserveAspectRatio="xMinYMin meet" x="204" y="-499.904"/>
<text text-anchor="start" x="219" y="-490.0036" font-family="Helvetica,sans-Serif" font-size="11.00" fill="#000000">IMMIGRATION_STATUS_ID</text>
<polygon fill="none" stroke="#000000" points="199,-460.9036 199,-482.9036 417,-482.9036 417,-460.9036 199,-460.9036"/>
<image xlink:href="../../images/primaryKeys.png" width="11px" height="12px" preserveAspectRatio="xMinYMin meet" x="204" y="-477.904"/>
<text text-anchor="start" x="219" y="-468.0036" font-family="Helvetica,sans-Serif" font-size="11.00" fill="#000000">LANGUAGE_ID</text>
<polygon fill="none" stroke="#000000" points="199,-438.9036 199,-460.9036 417,-460.9036 417,-438.9036 199,-438.9036"/>
<image xlink:href="../../images/primaryKeys.png" width="11px" height="12px" preserveAspectRatio="xMinYMin meet" x="204" y="-455.904"/>
<text text-anchor="start" x="219" y="-446.0036" font-family="Helvetica,sans-Serif" font-size="11.00" fill="#000000">RELIGION_ID</text>
<polygon fill="none" stroke="#000000" points="199,-416.9036 199,-438.9036 417,-438.9036 417,-416.9036 199,-416.9036"/>
<image xlink:href="../../images/primaryKeys.png" width="11px" height="12px" preserveAspectRatio="xMinYMin meet" x="204" y="-433.904"/>
<text text-anchor="start" x="219" y="-424.0036" font-family="Helvetica,sans-Serif" font-size="11.00" fill="#000000">SURNAME_SOUNDEX</text>
<polygon fill="none" stroke="#000000" points="199,-394.9036 199,-416.9036 417,-416.9036 417,-394.9036 199,-394.9036"/>
<image xlink:href="../../images/primaryKeys.png" width="11px" height="12px" preserveAspectRatio="xMinYMin meet" x="204" y="-411.904"/>
<text text-anchor="start" x="219" y="-402.0036" font-family="Helvetica,sans-Serif" font-size="11.00" fill="#000000">SECOND_NATIONALITY_ID</text>
<polygon fill="none" stroke="#000000" points="199,-372.9036 199,-394.9036 417,-394.9036 417,-372.9036 199,-372.9036"/>
<image xlink:href="../../images/primaryKeys.png" width="11px" height="12px" preserveAspectRatio="xMinYMin meet" x="204" y="-389.904"/>
<text text-anchor="start" x="219" y="-380.0036" font-family="Helvetica,sans-Serif" font-size="11.00" fill="#000000">SEXUAL_ORIENTATION_ID</text>
<polygon fill="none" stroke="#000000" points="199,-350.9036 199,-372.9036 417,-372.9036 417,-350.9036 199,-350.9036"/>
<image xlink:href="../../images/primaryKeys.png" width="11px" height="12px" preserveAspectRatio="xMinYMin meet" x="204" y="-367.904"/>
<text text-anchor="start" x="219" y="-358.0036" font-family="Helvetica,sans-Serif" font-size="11.00" fill="#000000">CURRENT_EXCLUSION</text>
<polygon fill="none" stroke="#000000" points="199,-328.9036 199,-350.9036 417,-350.9036 417,-328.9036 199,-328.9036"/>
<image xlink:href="../../images/primaryKeys.png" width="11px" height="12px" preserveAspectRatio="xMinYMin meet" x="204" y="-345.904"/>
<text text-anchor="start" x="219" y="-336.0036" font-family="Helvetica,sans-Serif" font-size="11.00" fill="#000000">TRAINING_SESSION_ID</text>
<polygon fill="none" stroke="#000000" points="199,-306.9036 199,-328.9036 417,-328.9036 417,-306.9036 199,-306.9036"/>
<image xlink:href="../../images/primaryKeys.png" width="11px" height="12px" preserveAspectRatio="xMinYMin meet" x="204" y="-323.904"/>
<text text-anchor="start" x="219" y="-314.0036" font-family="Helvetica,sans-Serif" font-size="11.00" fill="#000000">CURRENT_DISPOSAL</text>
<polygon fill="none" stroke="#000000" points="199,-284.9036 199,-306.9036 417,-306.9036 417,-284.9036 199,-284.9036"/>
<image xlink:href="../../images/primaryKeys.png" width="11px" height="12px" preserveAspectRatio="xMinYMin meet" x="204" y="-301.904"/>
<text text-anchor="start" x="218.6434" y="-292.0036" font-family="Helvetica,sans-Serif" font-size="11.00" fill="#000000">CURRENT_HIGHEST_RISK_COLOUR</text>
<polygon fill="none" stroke="#000000" points="199,-262.9036 199,-284.9036 417,-284.9036 417,-262.9036 199,-262.9036"/>
<image xlink:href="../../images/primaryKeys.png" width="11px" height="12px" preserveAspectRatio="xMinYMin meet" x="204" y="-279.904"/>
<text text-anchor="start" x="219" y="-270.0036" font-family="Helvetica,sans-Serif" font-size="11.00" fill="#000000">CURRENT_RESTRICTION</text>
<polygon fill="none" stroke="#000000" points="199,-240.9036 199,-262.9036 417,-262.9036 417,-240.9036 199,-240.9036"/>
<image xlink:href="../../images/primaryKeys.png" width="11px" height="12px" preserveAspectRatio="xMinYMin meet" x="204" y="-257.904"/>
<text text-anchor="start" x="219" y="-248.0036" font-family="Helvetica,sans-Serif" font-size="11.00" fill="#000000">INSTITUTION_ID</text>
<polygon fill="none" stroke="#000000" points="199,-218.9036 199,-240.9036 417,-240.9036 417,-218.9036 199,-218.9036"/>
<image xlink:href="../../images/primaryKeys.png" width="11px" height="12px" preserveAspectRatio="xMinYMin meet" x="204" y="-235.904"/>
<text text-anchor="start" x="219" y="-226.0036" font-family="Helvetica,sans-Serif" font-size="11.00" fill="#000000">ESTABLISHMENT</text>
<polygon fill="none" stroke="#000000" points="199,-196.9036 199,-218.9036 417,-218.9036 417,-196.9036 199,-196.9036"/>
<image xlink:href="../../images/primaryKeys.png" width="11px" height="12px" preserveAspectRatio="xMinYMin meet" x="204" y="-213.904"/>
<text text-anchor="start" x="219" y="-204.0036" font-family="Helvetica,sans-Serif" font-size="11.00" fill="#000000">CURRENT_TIER</text>
<polygon fill="none" stroke="#000000" points="199,-174.9036 199,-196.9036 417,-196.9036 417,-174.9036 199,-174.9036"/>
<image xlink:href="../../images/primaryKeys.png" width="11px" height="12px" preserveAspectRatio="xMinYMin meet" x="204" y="-191.904"/>
<text text-anchor="start" x="219" y="-182.0036" font-family="Helvetica,sans-Serif" font-size="11.00" fill="#000000">OM_ALLOCATION_DECISION_ID</text>
<polygon fill="none" stroke="#000000" points="199,-152.9036 199,-174.9036 417,-174.9036 417,-152.9036 199,-152.9036"/>
<image xlink:href="../../images/primaryKeys.png" width="11px" height="12px" preserveAspectRatio="xMinYMin meet" x="204" y="-169.904"/>
<text text-anchor="start" x="219" y="-160.0036" font-family="Helvetica,sans-Serif" font-size="11.00" fill="#000000">TRANSGENDER_PROCESS_ID</text>
<polygon fill="none" stroke="#000000" points="199,-130.9036 199,-152.9036 417,-152.9036 417,-130.9036 199,-130.9036"/>
<image xlink:href="../../images/primaryKeys.png" width="11px" height="12px" preserveAspectRatio="xMinYMin meet" x="204" y="-147.904"/>
<text text-anchor="start" x="219" y="-138.0036" font-family="Helvetica,sans-Serif" font-size="11.00" fill="#000000">PREFERRED_NAME</text>
<polygon fill="none" stroke="#000000" points="199,-108.9036 199,-130.9036 417,-130.9036 417,-108.9036 199,-108.9036"/>
<image xlink:href="../../images/primaryKeys.png" width="11px" height="12px" preserveAspectRatio="xMinYMin meet" x="204" y="-125.904"/>
<text text-anchor="start" x="219" y="-116.0036" font-family="Helvetica,sans-Serif" font-size="11.00" fill="#000000">GENDER_IDENTITY_ID</text>
<polygon fill="none" stroke="#000000" points="199,-89.9036 199,-108.9036 417,-108.9036 417,-89.9036 199,-89.9036"/>
<text text-anchor="start" x="202" y="-96.0036" font-family="Helvetica,sans-Serif" font-size="11.00" fill="#000000">...</text>
<polygon fill="#ffffff" stroke="transparent" points="199,-70.9036 199,-89.9036 275,-89.9036 275,-70.9036 199,-70.9036"/>
<polygon fill="none" stroke="#000000" points="199,-70.9036 199,-89.9036 275,-89.9036 275,-70.9036 199,-70.9036"/>
<text text-anchor="start" x="202" y="-77.0036" font-family="Helvetica,sans-Serif" font-size="11.00" fill="#000000">&lt; 16</text>
<polygon fill="#ffffff" stroke="transparent" points="275,-70.9036 275,-89.9036 365,-89.9036 365,-70.9036 275,-70.9036"/>
<polygon fill="none" stroke="#000000" points="275,-70.9036 275,-89.9036 365,-89.9036 365,-70.9036 275,-70.9036"/>
<text text-anchor="start" x="302.094" y="-77.0036" font-family="Helvetica,sans-Serif" font-size="11.00" fill="#000000">18,527 rows</text>
<polygon fill="#ffffff" stroke="transparent" points="365,-70.9036 365,-89.9036 417,-89.9036 417,-70.9036 365,-70.9036"/>
<polygon fill="none" stroke="#000000" points="365,-70.9036 365,-89.9036 417,-89.9036 417,-70.9036 365,-70.9036"/>
<text text-anchor="start" x="392.2904" y="-77.0036" font-family="Helvetica,sans-Serif" font-size="11.00" fill="#000000">96 &gt;</text>
</a>
</g>
</g>
<!-- DPA_REPORT_OFFENDER&#45;&gt;OFFENDER -->
<g id="edge3" class="edge">
<title>DPA_REPORT_OFFENDER:w&#45;&gt;OFFENDER:e</title>
<path fill="none" stroke="#000000" d="M454.0156,-889.9036C441.6771,-889.9036 434.1667,-889.9036 417,-889.9036"/>
<polygon fill="#000000" stroke="#000000" points="460.5,-889.9037 468.5,-893.5036 464.5,-889.9036 468.5,-889.9036 468.5,-889.9036 468.5,-889.9036 464.5,-889.9036 468.5,-886.3036 460.5,-889.9037 460.5,-889.9037"/>
<ellipse fill="none" stroke="#000000" cx="457.3" cy="-889.9037" rx="3.2" ry="3.2"/>
</g>
<!-- OFFENDER&#45;&gt;PARTITION_AREA -->
<g id="edge5" class="edge">
<title>OFFENDER:w&#45;&gt;PARTITION_AREA:e</title>
<path fill="none" stroke="#000000" d="M184.4909,-625.9036C173.1774,-625.9036 165.9931,-625.9036 150,-625.9036"/>
<polygon fill="#000000" stroke="#000000" points="191,-625.9037 199,-629.5036 195,-625.9036 199,-625.9036 199,-625.9036 199,-625.9036 195,-625.9036 199,-622.3036 191,-625.9037 191,-625.9037"/>
<ellipse fill="none" stroke="#000000" cx="187.8" cy="-625.9037" rx="3.2" ry="3.2"/>
</g>
</g>
</svg>
