<?xml version="1.0" encoding="UTF-8" standalone="no"?>
<!DOCTYPE svg PUBLIC "-//W3C//DTD SVG 1.1//EN"
 "http://www.w3.org/Graphics/SVG/1.1/DTD/svg11.dtd">
<!-- Generated by graphviz version 2.40.1 (20161225.0304)
 -->
<!-- Title: twoDegreesRelationshipsDiagram Pages: 1 -->
<svg width="483pt" height="333pt"
 viewBox="0.00 0.00 483.00 332.70" xmlns="http://www.w3.org/2000/svg" xmlns:xlink="http://www.w3.org/1999/xlink">
<g id="graph0" class="graph" transform="scale(1 1) rotate(0) translate(4 328.7)">
<title>twoDegreesRelationshipsDiagram</title>
<polygon fill="#ffffff" stroke="transparent" points="-4,4 -4,-328.7 479,-328.7 479,4 -4,4"/>
<text text-anchor="middle" x="72.4936" y="-7.3" font-family="Helvetica,sans-Serif" font-size="11.00" fill="#000000">Generated by SchemaSpy</text>
<!-- DSS_SEARCH_OFFENDER -->
<g id="node1" class="node">
<title>DSS_SEARCH_OFFENDER</title>
<g id="a_node1"><a xlink:href="../../tables/DSS_SEARCH_OFFENDER.html" xlink:title="DSS_SEARCH_OFFENDER" target="_top">
<polygon fill="#ffffff" stroke="transparent" points="236,-208.7 236,-320.7 467,-320.7 467,-208.7 236,-208.7"/>
<polygon fill="#f5f5f5" stroke="transparent" points="238.5,-295.7 238.5,-318.7 465.5,-318.7 465.5,-295.7 238.5,-295.7"/>
<polygon fill="none" stroke="#000000" points="238.5,-295.7 238.5,-318.7 465.5,-318.7 465.5,-295.7 238.5,-295.7"/>
<text text-anchor="start" x="243.5" y="-304.8" font-family="Helvetica,sans-Serif" font-weight="bold" font-size="11.00" fill="#000000">DSS_SEARCH_OFFENDER</text>
<text text-anchor="start" x="430.5437" y="-303.8" font-family="Helvetica,sans-Serif" font-size="11.00" fill="#000000">[table]</text>
<polygon fill="none" stroke="#000000" points="238.5,-273.7 238.5,-295.7 404.5,-295.7 404.5,-273.7 238.5,-273.7"/>
<image xlink:href="../../images/primaryKeys.png" width="11px" height="12px" preserveAspectRatio="xMinYMin meet" x="243.5" y="-290.7"/>
<text text-anchor="start" x="253.5241" y="-280.8" font-family="Helvetica,sans-Serif" font-size="11.00" fill="#000000">DSS_SEARCH_REQUEST_ID</text>
<polygon fill="none" stroke="#000000" points="404.5,-273.7 404.5,-295.7 465.5,-295.7 465.5,-273.7 404.5,-273.7"/>
<text text-anchor="start" x="407.1865" y="-281.4" font-family="Helvetica,sans-Serif" font-size="11.00" fill="#000000">number[38]</text>
<polygon fill="none" stroke="#000000" points="238.5,-251.7 238.5,-273.7 404.5,-273.7 404.5,-251.7 238.5,-251.7"/>
<image xlink:href="../../images/primaryKeys.png" width="11px" height="12px" preserveAspectRatio="xMinYMin meet" x="243.5" y="-268.7"/>
<text text-anchor="start" x="257.802" y="-258.8" font-family="Helvetica,sans-Serif" font-size="11.00" fill="#000000">DSS_SEARCH_SEQUENCE</text>
<polygon fill="none" stroke="#000000" points="404.5,-251.7 404.5,-273.7 465.5,-273.7 465.5,-251.7 404.5,-251.7"/>
<text text-anchor="start" x="407.1865" y="-259.4" font-family="Helvetica,sans-Serif" font-size="11.00" fill="#000000">number[38]</text>
<polygon fill="none" stroke="#000000" points="238.5,-229.7 238.5,-251.7 404.5,-251.7 404.5,-229.7 238.5,-229.7"/>
<image xlink:href="../../images/primaryKeys.png" width="11px" height="12px" preserveAspectRatio="xMinYMin meet" x="243.5" y="-246.7"/>
<text text-anchor="start" x="258.5" y="-236.8" font-family="Helvetica,sans-Serif" font-size="11.00" fill="#000000">OFFLOC_ID</text>
<polygon fill="none" stroke="#000000" points="404.5,-229.7 404.5,-251.7 465.5,-251.7 465.5,-229.7 404.5,-229.7"/>
<text text-anchor="start" x="407.1865" y="-237.4" font-family="Helvetica,sans-Serif" font-size="11.00" fill="#000000">number[38]</text>
<polygon fill="#ffffff" stroke="transparent" points="238.5,-210.7 238.5,-229.7 306.5,-229.7 306.5,-210.7 238.5,-210.7"/>
<polygon fill="none" stroke="#000000" points="238.5,-210.7 238.5,-229.7 306.5,-229.7 306.5,-210.7 238.5,-210.7"/>
<text text-anchor="start" x="241.5" y="-216.8" font-family="Helvetica,sans-Serif" font-size="11.00" fill="#000000">&lt; 1</text>
<polygon fill="#ffffff" stroke="transparent" points="306.5,-210.7 306.5,-229.7 404.5,-229.7 404.5,-210.7 306.5,-210.7"/>
<polygon fill="none" stroke="#000000" points="306.5,-210.7 306.5,-229.7 404.5,-229.7 404.5,-210.7 306.5,-210.7"/>
<text text-anchor="start" x="356.8807" y="-216.8" font-family="Helvetica,sans-Serif" font-size="11.00" fill="#000000">597 rows</text>
<polygon fill="#ffffff" stroke="transparent" points="404.5,-210.7 404.5,-229.7 465.5,-229.7 465.5,-210.7 404.5,-210.7"/>
<polygon fill="none" stroke="#000000" points="404.5,-210.7 404.5,-229.7 465.5,-229.7 465.5,-210.7 404.5,-210.7"/>
<text text-anchor="start" x="446.9053" y="-216.8" font-family="Helvetica,sans-Serif" font-size="11.00" fill="#000000">0 &gt;</text>
<polygon fill="none" stroke="#000000" stroke-width="2" points="237,-209.7 237,-319.7 466,-319.7 466,-209.7 237,-209.7"/>
</a>
</g>
</g>
<!-- OFFLOC -->
<g id="node2" class="node">
<title>OFFLOC</title>
<g id="a_node2"><a xlink:href="../../tables/OFFLOC.html" xlink:title="OFFLOC" target="_top">
<polygon fill="#ffffff" stroke="transparent" points="8,-38.2 8,-231.2 187,-231.2 187,-38.2 8,-38.2"/>
<polygon fill="#f5f5f5" stroke="transparent" points="8.5,-207.7 8.5,-230.7 187.5,-230.7 187.5,-207.7 8.5,-207.7"/>
<polygon fill="none" stroke="#000000" points="8.5,-207.7 8.5,-230.7 187.5,-230.7 187.5,-207.7 8.5,-207.7"/>
<text text-anchor="start" x="13.5" y="-216.8" font-family="Helvetica,sans-Serif" font-weight="bold" font-size="11.00" fill="#000000">OFFLOC</text>
<text text-anchor="start" x="152.5437" y="-215.8" font-family="Helvetica,sans-Serif" font-size="11.00" fill="#000000">[table]</text>
<polygon fill="none" stroke="#000000" points="8.5,-185.7 8.5,-207.7 187.5,-207.7 187.5,-185.7 8.5,-185.7"/>
<image xlink:href="../../images/primaryKeys.png" width="11px" height="12px" preserveAspectRatio="xMinYMin meet" x="13.5" y="-202.7"/>
<text text-anchor="start" x="28.5" y="-192.8" font-family="Helvetica,sans-Serif" font-size="11.00" fill="#000000">OFFLOC_ID</text>
<polygon fill="none" stroke="#000000" points="8.5,-163.7 8.5,-185.7 187.5,-185.7 187.5,-163.7 8.5,-163.7"/>
<image xlink:href="../../images/primaryKeys.png" width="11px" height="12px" preserveAspectRatio="xMinYMin meet" x="13.5" y="-180.7"/>
<text text-anchor="start" x="28.5" y="-170.8" font-family="Helvetica,sans-Serif" font-size="11.00" fill="#000000">SURNAME</text>
<polygon fill="none" stroke="#000000" points="8.5,-141.7 8.5,-163.7 187.5,-163.7 187.5,-141.7 8.5,-141.7"/>
<image xlink:href="../../images/primaryKeys.png" width="11px" height="12px" preserveAspectRatio="xMinYMin meet" x="13.5" y="-158.7"/>
<text text-anchor="start" x="28.5" y="-148.8" font-family="Helvetica,sans-Serif" font-size="11.00" fill="#000000">DOB</text>
<polygon fill="none" stroke="#000000" points="8.5,-119.7 8.5,-141.7 187.5,-141.7 187.5,-119.7 8.5,-119.7"/>
<image xlink:href="../../images/primaryKeys.png" width="11px" height="12px" preserveAspectRatio="xMinYMin meet" x="13.5" y="-136.7"/>
<text text-anchor="start" x="28.5" y="-126.8" font-family="Helvetica,sans-Serif" font-size="11.00" fill="#000000">PRISON_NUMBER</text>
<polygon fill="none" stroke="#000000" points="8.5,-97.7 8.5,-119.7 187.5,-119.7 187.5,-97.7 8.5,-97.7"/>
<image xlink:href="../../images/primaryKeys.png" width="11px" height="12px" preserveAspectRatio="xMinYMin meet" x="13.5" y="-114.7"/>
<text text-anchor="start" x="28.5" y="-104.8" font-family="Helvetica,sans-Serif" font-size="11.00" fill="#000000">NOMIS_NUMBER</text>
<polygon fill="none" stroke="#000000" points="8.5,-75.7 8.5,-97.7 187.5,-97.7 187.5,-75.7 8.5,-75.7"/>
<image xlink:href="../../images/primaryKeys.png" width="11px" height="12px" preserveAspectRatio="xMinYMin meet" x="13.5" y="-92.7"/>
<text text-anchor="start" x="28.5" y="-82.8" font-family="Helvetica,sans-Serif" font-size="11.00" fill="#000000">TRAINING_SESSION_ID</text>
<polygon fill="none" stroke="#000000" points="8.5,-56.7 8.5,-75.7 187.5,-75.7 187.5,-56.7 8.5,-56.7"/>
<text text-anchor="start" x="11.5" y="-62.8" font-family="Helvetica,sans-Serif" font-size="11.00" fill="#000000">...</text>
<polygon fill="#ffffff" stroke="transparent" points="8.5,-37.7 8.5,-56.7 63.5,-56.7 63.5,-37.7 8.5,-37.7"/>
<polygon fill="none" stroke="#000000" points="8.5,-37.7 8.5,-56.7 63.5,-56.7 63.5,-37.7 8.5,-37.7"/>
<text text-anchor="start" x="11.5" y="-43.8" font-family="Helvetica,sans-Serif" font-size="11.00" fill="#000000"> &#160;</text>
<polygon fill="#ffffff" stroke="transparent" points="63.5,-37.7 63.5,-56.7 144.5,-56.7 144.5,-37.7 63.5,-37.7"/>
<polygon fill="none" stroke="#000000" points="63.5,-37.7 63.5,-56.7 144.5,-56.7 144.5,-37.7 63.5,-37.7"/>
<text text-anchor="start" x="87.7089" y="-43.8" font-family="Helvetica,sans-Serif" font-size="11.00" fill="#000000">9,084 rows</text>
<polygon fill="#ffffff" stroke="transparent" points="144.5,-37.7 144.5,-56.7 187.5,-56.7 187.5,-37.7 144.5,-37.7"/>
<polygon fill="none" stroke="#000000" points="144.5,-37.7 144.5,-56.7 187.5,-56.7 187.5,-37.7 144.5,-37.7"/>
<text text-anchor="start" x="168.9053" y="-43.8" font-family="Helvetica,sans-Serif" font-size="11.00" fill="#000000">2 &gt;</text>
</a>
</g>
</g>
<!-- DSS_SEARCH_OFFENDER&#45;&gt;OFFLOC -->
<g id="edge1" class="edge">
<title>DSS_SEARCH_OFFENDER:w&#45;&gt;OFFLOC:e</title>
<path fill="none" stroke="#000000" d="M224.4107,-235.9912C210.5669,-224.6404 211.3557,-196.7 187.5,-196.7"/>
<polygon fill="#000000" stroke="#000000" points="230.9125,-238.1642 237.3589,-244.1144 234.7063,-239.4321 238.5,-240.7 238.5,-240.7 238.5,-240.7 234.7063,-239.4321 239.6411,-237.2856 230.9125,-238.1642 230.9125,-238.1642"/>
<ellipse fill="none" stroke="#000000" cx="227.8775" cy="-237.1498" rx="3.2" ry="3.2"/>
</g>
<!-- PNC_NUMBER -->
<g id="node3" class="node">
<title>PNC_NUMBER</title>
<g id="a_node3"><a xlink:href="../../tables/PNC_NUMBER.html" xlink:title="PNC_NUMBER" target="_top">
<polygon fill="#ffffff" stroke="transparent" points="292,-126.2 292,-187.2 411,-187.2 411,-126.2 292,-126.2"/>
<polygon fill="#f5f5f5" stroke="transparent" points="292.5,-163.7 292.5,-186.7 411.5,-186.7 411.5,-163.7 292.5,-163.7"/>
<polygon fill="none" stroke="#000000" points="292.5,-163.7 292.5,-186.7 411.5,-186.7 411.5,-163.7 292.5,-163.7"/>
<text text-anchor="start" x="297.0055" y="-172.8" font-family="Helvetica,sans-Serif" font-weight="bold" font-size="11.00" fill="#000000">PNC_NUMBER</text>
<text text-anchor="start" x="377.0219" y="-171.8" font-family="Helvetica,sans-Serif" font-size="11.00" fill="#000000">[table]</text>
<polygon fill="none" stroke="#000000" points="292.5,-144.7 292.5,-163.7 411.5,-163.7 411.5,-144.7 292.5,-144.7"/>
<text text-anchor="start" x="295.5" y="-150.8" font-family="Helvetica,sans-Serif" font-size="11.00" fill="#000000">...</text>
<polygon fill="#ffffff" stroke="transparent" points="292.5,-125.7 292.5,-144.7 326.5,-144.7 326.5,-125.7 292.5,-125.7"/>
<polygon fill="none" stroke="#000000" points="292.5,-125.7 292.5,-144.7 326.5,-144.7 326.5,-125.7 292.5,-125.7"/>
<text text-anchor="start" x="295.5" y="-131.8" font-family="Helvetica,sans-Serif" font-size="11.00" fill="#000000">&lt; 1</text>
<polygon fill="#ffffff" stroke="transparent" points="326.5,-125.7 326.5,-144.7 392.5,-144.7 392.5,-125.7 326.5,-125.7"/>
<polygon fill="none" stroke="#000000" points="326.5,-125.7 326.5,-144.7 392.5,-144.7 392.5,-125.7 326.5,-125.7"/>
<text text-anchor="start" x="335.7089" y="-131.8" font-family="Helvetica,sans-Serif" font-size="11.00" fill="#000000">2,555 rows</text>
<polygon fill="#ffffff" stroke="transparent" points="392.5,-125.7 392.5,-144.7 411.5,-144.7 411.5,-125.7 392.5,-125.7"/>
<polygon fill="none" stroke="#000000" points="392.5,-125.7 392.5,-144.7 411.5,-144.7 411.5,-125.7 392.5,-125.7"/>
<text text-anchor="start" x="402.3862" y="-131.8" font-family="Helvetica,sans-Serif" font-size="11.00" fill="#000000"> &#160;</text>
</a>
</g>
</g>
<!-- PNC_NUMBER&#45;&gt;OFFLOC -->
<g id="edge2" class="edge">
<title>PNC_NUMBER:w&#45;&gt;OFFLOC:e</title>
<path fill="none" stroke="#000000" d="M277.9801,-155.0341C240.6829,-162.292 232.6097,-196.7 187.5,-196.7"/>
<polygon fill="#000000" stroke="#000000" points="284.5336,-154.432 292.8294,-157.2849 288.5168,-154.066 292.5,-153.7 292.5,-153.7 292.5,-153.7 288.5168,-154.066 292.1706,-150.1151 284.5336,-154.432 284.5336,-154.432"/>
<ellipse fill="none" stroke="#000000" cx="281.347" cy="-154.7248" rx="3.2" ry="3.2"/>
</g>
</g>
</svg>
