<?xml version="1.0" encoding="UTF-8" standalone="no"?>
<!DOCTYPE svg PUBLIC "-//W3C//DTD SVG 1.1//EN"
 "http://www.w3.org/Graphics/SVG/1.1/DTD/svg11.dtd">
<!-- Generated by graphviz version 2.40.1 (20161225.0304)
 -->
<!-- Title: oneDegreeRelationshipsDiagram Pages: 1 -->
<svg width="483pt" height="289pt"
 viewBox="0.00 0.00 483.00 288.70" xmlns="http://www.w3.org/2000/svg" xmlns:xlink="http://www.w3.org/1999/xlink">
<g id="graph0" class="graph" transform="scale(1 1) rotate(0) translate(4 284.7)">
<title>oneDegreeRelationshipsDiagram</title>
<polygon fill="#ffffff" stroke="transparent" points="-4,4 -4,-284.7 479,-284.7 479,4 -4,4"/>
<text text-anchor="middle" x="72.4936" y="-7.3" font-family="Helvetica,sans-Serif" font-size="11.00" fill="#000000">Generated by SchemaSpy</text>
<!-- DSS_SEARCH_OFFENDER -->
<g id="node1" class="node">
<title>DSS_SEARCH_OFFENDER</title>
<g id="a_node1"><a xlink:href="../../tables/DSS_SEARCH_OFFENDER.html" xlink:title="DSS_SEARCH_OFFENDER" target="_top">
<polygon fill="#ffffff" stroke="transparent" points="236,-164.7 236,-276.7 467,-276.7 467,-164.7 236,-164.7"/>
<polygon fill="#f5f5f5" stroke="transparent" points="238.5,-251.7 238.5,-274.7 465.5,-274.7 465.5,-251.7 238.5,-251.7"/>
<polygon fill="none" stroke="#000000" points="238.5,-251.7 238.5,-274.7 465.5,-274.7 465.5,-251.7 238.5,-251.7"/>
<text text-anchor="start" x="243.5" y="-260.8" font-family="Helvetica,sans-Serif" font-weight="bold" font-size="11.00" fill="#000000">DSS_SEARCH_OFFENDER</text>
<text text-anchor="start" x="430.5437" y="-259.8" font-family="Helvetica,sans-Serif" font-size="11.00" fill="#000000">[table]</text>
<polygon fill="none" stroke="#000000" points="238.5,-229.7 238.5,-251.7 404.5,-251.7 404.5,-229.7 238.5,-229.7"/>
<image xlink:href="../../images/primaryKeys.png" width="11px" height="12px" preserveAspectRatio="xMinYMin meet" x="243.5" y="-246.7"/>
<text text-anchor="start" x="253.5241" y="-236.8" font-family="Helvetica,sans-Serif" font-size="11.00" fill="#000000">DSS_SEARCH_REQUEST_ID</text>
<polygon fill="none" stroke="#000000" points="404.5,-229.7 404.5,-251.7 465.5,-251.7 465.5,-229.7 404.5,-229.7"/>
<text text-anchor="start" x="407.1865" y="-237.4" font-family="Helvetica,sans-Serif" font-size="11.00" fill="#000000">number[38]</text>
<polygon fill="none" stroke="#000000" points="238.5,-207.7 238.5,-229.7 404.5,-229.7 404.5,-207.7 238.5,-207.7"/>
<image xlink:href="../../images/primaryKeys.png" width="11px" height="12px" preserveAspectRatio="xMinYMin meet" x="243.5" y="-224.7"/>
<text text-anchor="start" x="257.802" y="-214.8" font-family="Helvetica,sans-Serif" font-size="11.00" fill="#000000">DSS_SEARCH_SEQUENCE</text>
<polygon fill="none" stroke="#000000" points="404.5,-207.7 404.5,-229.7 465.5,-229.7 465.5,-207.7 404.5,-207.7"/>
<text text-anchor="start" x="407.1865" y="-215.4" font-family="Helvetica,sans-Serif" font-size="11.00" fill="#000000">number[38]</text>
<polygon fill="none" stroke="#000000" points="238.5,-185.7 238.5,-207.7 404.5,-207.7 404.5,-185.7 238.5,-185.7"/>
<image xlink:href="../../images/primaryKeys.png" width="11px" height="12px" preserveAspectRatio="xMinYMin meet" x="243.5" y="-202.7"/>
<text text-anchor="start" x="258.5" y="-192.8" font-family="Helvetica,sans-Serif" font-size="11.00" fill="#000000">OFFLOC_ID</text>
<polygon fill="none" stroke="#000000" points="404.5,-185.7 404.5,-207.7 465.5,-207.7 465.5,-185.7 404.5,-185.7"/>
<text text-anchor="start" x="407.1865" y="-193.4" font-family="Helvetica,sans-Serif" font-size="11.00" fill="#000000">number[38]</text>
<polygon fill="#ffffff" stroke="transparent" points="238.5,-166.7 238.5,-185.7 306.5,-185.7 306.5,-166.7 238.5,-166.7"/>
<polygon fill="none" stroke="#000000" points="238.5,-166.7 238.5,-185.7 306.5,-185.7 306.5,-166.7 238.5,-166.7"/>
<text text-anchor="start" x="241.5" y="-172.8" font-family="Helvetica,sans-Serif" font-size="11.00" fill="#000000">&lt; 1</text>
<polygon fill="#ffffff" stroke="transparent" points="306.5,-166.7 306.5,-185.7 404.5,-185.7 404.5,-166.7 306.5,-166.7"/>
<polygon fill="none" stroke="#000000" points="306.5,-166.7 306.5,-185.7 404.5,-185.7 404.5,-166.7 306.5,-166.7"/>
<text text-anchor="start" x="356.8807" y="-172.8" font-family="Helvetica,sans-Serif" font-size="11.00" fill="#000000">597 rows</text>
<polygon fill="#ffffff" stroke="transparent" points="404.5,-166.7 404.5,-185.7 465.5,-185.7 465.5,-166.7 404.5,-166.7"/>
<polygon fill="none" stroke="#000000" points="404.5,-166.7 404.5,-185.7 465.5,-185.7 465.5,-166.7 404.5,-166.7"/>
<text text-anchor="start" x="446.9053" y="-172.8" font-family="Helvetica,sans-Serif" font-size="11.00" fill="#000000">0 &gt;</text>
<polygon fill="none" stroke="#000000" stroke-width="2" points="237,-165.7 237,-275.7 466,-275.7 466,-165.7 237,-165.7"/>
</a>
</g>
</g>
<!-- OFFLOC -->
<g id="node2" class="node">
<title>OFFLOC</title>
<g id="a_node2"><a xlink:href="../../tables/OFFLOC.html" xlink:title="OFFLOC" target="_top">
<polygon fill="#ffffff" stroke="transparent" points="8,-38.2 8,-231.2 187,-231.2 187,-38.2 8,-38.2"/>
<polygon fill="#f5f5f5" stroke="transparent" points="8.5,-207.7 8.5,-230.7 187.5,-230.7 187.5,-207.7 8.5,-207.7"/>
<polygon fill="none" stroke="#000000" points="8.5,-207.7 8.5,-230.7 187.5,-230.7 187.5,-207.7 8.5,-207.7"/>
<text text-anchor="start" x="13.5" y="-216.8" font-family="Helvetica,sans-Serif" font-weight="bold" font-size="11.00" fill="#000000">OFFLOC</text>
<text text-anchor="start" x="152.5437" y="-215.8" font-family="Helvetica,sans-Serif" font-size="11.00" fill="#000000">[table]</text>
<polygon fill="none" stroke="#000000" points="8.5,-185.7 8.5,-207.7 187.5,-207.7 187.5,-185.7 8.5,-185.7"/>
<image xlink:href="../../images/primaryKeys.png" width="11px" height="12px" preserveAspectRatio="xMinYMin meet" x="13.5" y="-202.7"/>
<text text-anchor="start" x="28.5" y="-192.8" font-family="Helvetica,sans-Serif" font-size="11.00" fill="#000000">OFFLOC_ID</text>
<polygon fill="none" stroke="#000000" points="8.5,-163.7 8.5,-185.7 187.5,-185.7 187.5,-163.7 8.5,-163.7"/>
<image xlink:href="../../images/primaryKeys.png" width="11px" height="12px" preserveAspectRatio="xMinYMin meet" x="13.5" y="-180.7"/>
<text text-anchor="start" x="28.5" y="-170.8" font-family="Helvetica,sans-Serif" font-size="11.00" fill="#000000">SURNAME</text>
<polygon fill="none" stroke="#000000" points="8.5,-141.7 8.5,-163.7 187.5,-163.7 187.5,-141.7 8.5,-141.7"/>
<image xlink:href="../../images/primaryKeys.png" width="11px" height="12px" preserveAspectRatio="xMinYMin meet" x="13.5" y="-158.7"/>
<text text-anchor="start" x="28.5" y="-148.8" font-family="Helvetica,sans-Serif" font-size="11.00" fill="#000000">DOB</text>
<polygon fill="none" stroke="#000000" points="8.5,-119.7 8.5,-141.7 187.5,-141.7 187.5,-119.7 8.5,-119.7"/>
<image xlink:href="../../images/primaryKeys.png" width="11px" height="12px" preserveAspectRatio="xMinYMin meet" x="13.5" y="-136.7"/>
<text text-anchor="start" x="28.5" y="-126.8" font-family="Helvetica,sans-Serif" font-size="11.00" fill="#000000">PRISON_NUMBER</text>
<polygon fill="none" stroke="#000000" points="8.5,-97.7 8.5,-119.7 187.5,-119.7 187.5,-97.7 8.5,-97.7"/>
<image xlink:href="../../images/primaryKeys.png" width="11px" height="12px" preserveAspectRatio="xMinYMin meet" x="13.5" y="-114.7"/>
<text text-anchor="start" x="28.5" y="-104.8" font-family="Helvetica,sans-Serif" font-size="11.00" fill="#000000">NOMIS_NUMBER</text>
<polygon fill="none" stroke="#000000" points="8.5,-75.7 8.5,-97.7 187.5,-97.7 187.5,-75.7 8.5,-75.7"/>
<image xlink:href="../../images/primaryKeys.png" width="11px" height="12px" preserveAspectRatio="xMinYMin meet" x="13.5" y="-92.7"/>
<text text-anchor="start" x="28.5" y="-82.8" font-family="Helvetica,sans-Serif" font-size="11.00" fill="#000000">TRAINING_SESSION_ID</text>
<polygon fill="none" stroke="#000000" points="8.5,-56.7 8.5,-75.7 187.5,-75.7 187.5,-56.7 8.5,-56.7"/>
<text text-anchor="start" x="11.5" y="-62.8" font-family="Helvetica,sans-Serif" font-size="11.00" fill="#000000">...</text>
<polygon fill="#ffffff" stroke="transparent" points="8.5,-37.7 8.5,-56.7 63.5,-56.7 63.5,-37.7 8.5,-37.7"/>
<polygon fill="none" stroke="#000000" points="8.5,-37.7 8.5,-56.7 63.5,-56.7 63.5,-37.7 8.5,-37.7"/>
<text text-anchor="start" x="11.5" y="-43.8" font-family="Helvetica,sans-Serif" font-size="11.00" fill="#000000"> &#160;</text>
<polygon fill="#ffffff" stroke="transparent" points="63.5,-37.7 63.5,-56.7 144.5,-56.7 144.5,-37.7 63.5,-37.7"/>
<polygon fill="none" stroke="#000000" points="63.5,-37.7 63.5,-56.7 144.5,-56.7 144.5,-37.7 63.5,-37.7"/>
<text text-anchor="start" x="87.7089" y="-43.8" font-family="Helvetica,sans-Serif" font-size="11.00" fill="#000000">9,084 rows</text>
<polygon fill="#ffffff" stroke="transparent" points="144.5,-37.7 144.5,-56.7 187.5,-56.7 187.5,-37.7 144.5,-37.7"/>
<polygon fill="none" stroke="#000000" points="144.5,-37.7 144.5,-56.7 187.5,-56.7 187.5,-37.7 144.5,-37.7"/>
<text text-anchor="start" x="168.9053" y="-43.8" font-family="Helvetica,sans-Serif" font-size="11.00" fill="#000000">2 &gt;</text>
</a>
</g>
</g>
<!-- DSS_SEARCH_OFFENDER&#45;&gt;OFFLOC -->
<g id="edge1" class="edge">
<title>DSS_SEARCH_OFFENDER:w&#45;&gt;OFFLOC:e</title>
<path fill="none" stroke="#000000" d="M223.776,-196.7C211.7815,-196.7 204.3229,-196.7 187.5,-196.7"/>
<polygon fill="#000000" stroke="#000000" points="230.5,-196.7001 238.5,-200.3 234.5,-196.7 238.5,-196.7 238.5,-196.7 238.5,-196.7 234.5,-196.7 238.5,-193.1 230.5,-196.7001 230.5,-196.7001"/>
<ellipse fill="none" stroke="#000000" cx="227.3" cy="-196.7001" rx="3.2" ry="3.2"/>
</g>
</g>
</svg>
