<?xml version="1.0" encoding="UTF-8" standalone="no"?>
<!DOCTYPE svg PUBLIC "-//W3C//DTD SVG 1.1//EN"
 "http://www.w3.org/Graphics/SVG/1.1/DTD/svg11.dtd">
<!-- Generated by graphviz version 2.40.1 (20161225.0304)
 -->
<!-- Title: oneDegreeRelationshipsDiagram Pages: 1 -->
<svg width="796pt" height="962pt"
 viewBox="0.00 0.00 796.00 961.70" xmlns="http://www.w3.org/2000/svg" xmlns:xlink="http://www.w3.org/1999/xlink">
<g id="graph0" class="graph" transform="scale(1 1) rotate(0) translate(4 957.7029)">
<title>oneDegreeRelationshipsDiagram</title>
<polygon fill="#ffffff" stroke="transparent" points="-4,4 -4,-957.7029 792,-957.7029 792,4 -4,4"/>
<text text-anchor="middle" x="72.4936" y="-7.3" font-family="Helvetica,sans-Serif" font-size="11.00" fill="#000000">Generated by SchemaSpy</text>
<!-- DYNAMIC_RSR_HISTORY -->
<g id="node1" class="node">
<title>DYNAMIC_RSR_HISTORY</title>
<g id="a_node1"><a xlink:href="../../tables/DYNAMIC_RSR_HISTORY.html" xlink:title="DYNAMIC_RSR_HISTORY" target="_top">
<polygon fill="#ffffff" stroke="transparent" points="544,-329.2029 544,-573.2029 780,-573.2029 780,-329.2029 544,-329.2029"/>
<polygon fill="#f5f5f5" stroke="transparent" points="546,-548.2029 546,-571.2029 778,-571.2029 778,-548.2029 546,-548.2029"/>
<polygon fill="none" stroke="#000000" points="546,-548.2029 546,-571.2029 778,-571.2029 778,-548.2029 546,-548.2029"/>
<text text-anchor="start" x="551" y="-557.3029" font-family="Helvetica,sans-Serif" font-weight="bold" font-size="11.00" fill="#000000">DYNAMIC_RSR_HISTORY</text>
<text text-anchor="start" x="743.0437" y="-556.3029" font-family="Helvetica,sans-Serif" font-size="11.00" fill="#000000">[table]</text>
<polygon fill="none" stroke="#000000" points="546,-526.2029 546,-548.2029 714,-548.2029 714,-526.2029 546,-526.2029"/>
<image xlink:href="../../images/primaryKeys.png" width="11px" height="12px" preserveAspectRatio="xMinYMin meet" x="551" y="-543.203"/>
<text text-anchor="start" x="561.4196" y="-533.3029" font-family="Helvetica,sans-Serif" font-size="11.00" fill="#000000">DYNAMIC_RSR_HISTORY_ID</text>
<polygon fill="none" stroke="#000000" points="714,-526.2029 714,-548.2029 778,-548.2029 778,-526.2029 714,-526.2029"/>
<text text-anchor="start" x="717" y="-533.9029" font-family="Helvetica,sans-Serif" font-size="11.00" fill="#000000">number[38]</text>
<polygon fill="none" stroke="#000000" points="546,-504.2029 546,-526.2029 714,-526.2029 714,-504.2029 546,-504.2029"/>
<image xlink:href="../../images/primaryKeys.png" width="11px" height="12px" preserveAspectRatio="xMinYMin meet" x="551" y="-521.203"/>
<text text-anchor="start" x="566" y="-511.3029" font-family="Helvetica,sans-Serif" font-size="11.00" fill="#000000">OFFENDER_ID</text>
<polygon fill="none" stroke="#000000" points="714,-504.2029 714,-526.2029 778,-526.2029 778,-504.2029 714,-504.2029"/>
<text text-anchor="start" x="717" y="-511.9029" font-family="Helvetica,sans-Serif" font-size="11.00" fill="#000000">number[38]</text>
<polygon fill="none" stroke="#000000" points="546,-482.2029 546,-504.2029 714,-504.2029 714,-482.2029 546,-482.2029"/>
<text text-anchor="start" x="566" y="-489.3029" font-family="Helvetica,sans-Serif" font-size="11.00" fill="#000000">DYNAMIC_RSR_SCORE</text>
<polygon fill="none" stroke="#000000" points="714,-482.2029 714,-504.2029 778,-504.2029 778,-482.2029 714,-482.2029"/>
<text text-anchor="start" x="716.6581" y="-489.9029" font-family="Helvetica,sans-Serif" font-size="11.00" fill="#000000">number[5,2]</text>
<polygon fill="none" stroke="#000000" points="546,-460.2029 546,-482.2029 714,-482.2029 714,-460.2029 546,-460.2029"/>
<image xlink:href="../../images/primaryKeys.png" width="11px" height="12px" preserveAspectRatio="xMinYMin meet" x="551" y="-477.203"/>
<text text-anchor="start" x="564.471" y="-467.3029" font-family="Helvetica,sans-Serif" font-size="11.00" fill="#000000">REASON_FOR_CHANGE_ID</text>
<polygon fill="none" stroke="#000000" points="714,-460.2029 714,-482.2029 778,-482.2029 778,-460.2029 714,-460.2029"/>
<text text-anchor="start" x="717" y="-467.9029" font-family="Helvetica,sans-Serif" font-size="11.00" fill="#000000">number[38]</text>
<polygon fill="none" stroke="#000000" points="546,-438.2029 546,-460.2029 714,-460.2029 714,-438.2029 546,-438.2029"/>
<text text-anchor="start" x="566" y="-445.3029" font-family="Helvetica,sans-Serif" font-size="11.00" fill="#000000">DATE_RECORDED</text>
<polygon fill="none" stroke="#000000" points="714,-438.2029 714,-460.2029 778,-460.2029 778,-438.2029 714,-438.2029"/>
<text text-anchor="start" x="717" y="-445.9029" font-family="Helvetica,sans-Serif" font-size="11.00" fill="#000000">date[7]</text>
<polygon fill="none" stroke="#000000" points="546,-416.2029 546,-438.2029 714,-438.2029 714,-416.2029 546,-416.2029"/>
<text text-anchor="start" x="566" y="-423.3029" font-family="Helvetica,sans-Serif" font-size="11.00" fill="#000000">CREATED_BY_USER_ID</text>
<polygon fill="none" stroke="#000000" points="714,-416.2029 714,-438.2029 778,-438.2029 778,-416.2029 714,-416.2029"/>
<text text-anchor="start" x="717" y="-423.9029" font-family="Helvetica,sans-Serif" font-size="11.00" fill="#000000">number[38]</text>
<polygon fill="none" stroke="#000000" points="546,-394.2029 546,-416.2029 714,-416.2029 714,-394.2029 546,-394.2029"/>
<text text-anchor="start" x="566" y="-401.3029" font-family="Helvetica,sans-Serif" font-size="11.00" fill="#000000">CREATED_DATETIME</text>
<polygon fill="none" stroke="#000000" points="714,-394.2029 714,-416.2029 778,-416.2029 778,-394.2029 714,-394.2029"/>
<text text-anchor="start" x="717" y="-401.9029" font-family="Helvetica,sans-Serif" font-size="11.00" fill="#000000">date[7]</text>
<polygon fill="none" stroke="#000000" points="546,-372.2029 546,-394.2029 714,-394.2029 714,-372.2029 546,-372.2029"/>
<text text-anchor="start" x="566" y="-379.3029" font-family="Helvetica,sans-Serif" font-size="11.00" fill="#000000">LAST_UPDATED_USER_ID</text>
<polygon fill="none" stroke="#000000" points="714,-372.2029 714,-394.2029 778,-394.2029 778,-372.2029 714,-372.2029"/>
<text text-anchor="start" x="717" y="-379.9029" font-family="Helvetica,sans-Serif" font-size="11.00" fill="#000000">number[38]</text>
<polygon fill="none" stroke="#000000" points="546,-350.2029 546,-372.2029 714,-372.2029 714,-350.2029 546,-350.2029"/>
<text text-anchor="start" x="563.5531" y="-357.3029" font-family="Helvetica,sans-Serif" font-size="11.00" fill="#000000">LAST_UPDATED_DATETIME</text>
<polygon fill="none" stroke="#000000" points="714,-350.2029 714,-372.2029 778,-372.2029 778,-350.2029 714,-350.2029"/>
<text text-anchor="start" x="717" y="-357.9029" font-family="Helvetica,sans-Serif" font-size="11.00" fill="#000000">date[7]</text>
<polygon fill="#ffffff" stroke="transparent" points="546,-331.2029 546,-350.2029 615,-350.2029 615,-331.2029 546,-331.2029"/>
<polygon fill="none" stroke="#000000" points="546,-331.2029 546,-350.2029 615,-350.2029 615,-331.2029 546,-331.2029"/>
<text text-anchor="start" x="549" y="-337.3029" font-family="Helvetica,sans-Serif" font-size="11.00" fill="#000000">&lt; 2</text>
<polygon fill="#ffffff" stroke="transparent" points="615,-331.2029 615,-350.2029 714,-350.2029 714,-331.2029 615,-331.2029"/>
<polygon fill="none" stroke="#000000" points="615,-331.2029 615,-350.2029 714,-350.2029 714,-331.2029 615,-331.2029"/>
<text text-anchor="start" x="666.3807" y="-337.3029" font-family="Helvetica,sans-Serif" font-size="11.00" fill="#000000">134 rows</text>
<polygon fill="#ffffff" stroke="transparent" points="714,-331.2029 714,-350.2029 778,-350.2029 778,-331.2029 714,-331.2029"/>
<polygon fill="none" stroke="#000000" points="714,-331.2029 714,-350.2029 778,-350.2029 778,-331.2029 714,-331.2029"/>
<text text-anchor="start" x="759.4053" y="-337.3029" font-family="Helvetica,sans-Serif" font-size="11.00" fill="#000000">0 &gt;</text>
<polygon fill="none" stroke="#000000" stroke-width="2" points="545,-330.2029 545,-572.2029 779,-572.2029 779,-330.2029 545,-330.2029"/>
</a>
</g>
</g>
<!-- OFFENDER -->
<g id="node2" class="node">
<title>OFFENDER</title>
<g id="a_node2"><a xlink:href="../../tables/OFFENDER.html" xlink:title="OFFENDER" target="_top">
<polygon fill="#ffffff" stroke="transparent" points="277,-96.7029 277,-949.7029 495,-949.7029 495,-96.7029 277,-96.7029"/>
<polygon fill="#f5f5f5" stroke="transparent" points="277,-926.2029 277,-949.2029 495,-949.2029 495,-926.2029 277,-926.2029"/>
<polygon fill="none" stroke="#000000" points="277,-926.2029 277,-949.2029 495,-949.2029 495,-926.2029 277,-926.2029"/>
<text text-anchor="start" x="282" y="-935.3029" font-family="Helvetica,sans-Serif" font-weight="bold" font-size="11.00" fill="#000000">OFFENDER</text>
<text text-anchor="start" x="460.0437" y="-934.3029" font-family="Helvetica,sans-Serif" font-size="11.00" fill="#000000">[table]</text>
<polygon fill="none" stroke="#000000" points="277,-904.2029 277,-926.2029 495,-926.2029 495,-904.2029 277,-904.2029"/>
<image xlink:href="../../images/primaryKeys.png" width="11px" height="12px" preserveAspectRatio="xMinYMin meet" x="282" y="-921.203"/>
<text text-anchor="start" x="297" y="-911.3029" font-family="Helvetica,sans-Serif" font-size="11.00" fill="#000000">OFFENDER_ID</text>
<polygon fill="none" stroke="#000000" points="277,-882.2029 277,-904.2029 495,-904.2029 495,-882.2029 277,-882.2029"/>
<image xlink:href="../../images/primaryKeys.png" width="11px" height="12px" preserveAspectRatio="xMinYMin meet" x="282" y="-899.203"/>
<text text-anchor="start" x="297" y="-889.3029" font-family="Helvetica,sans-Serif" font-size="11.00" fill="#000000">FIRST_NAME</text>
<polygon fill="none" stroke="#000000" points="277,-860.2029 277,-882.2029 495,-882.2029 495,-860.2029 277,-860.2029"/>
<image xlink:href="../../images/primaryKeys.png" width="11px" height="12px" preserveAspectRatio="xMinYMin meet" x="282" y="-877.203"/>
<text text-anchor="start" x="297" y="-867.3029" font-family="Helvetica,sans-Serif" font-size="11.00" fill="#000000">CRN</text>
<polygon fill="none" stroke="#000000" points="277,-838.2029 277,-860.2029 495,-860.2029 495,-838.2029 277,-838.2029"/>
<image xlink:href="../../images/primaryKeys.png" width="11px" height="12px" preserveAspectRatio="xMinYMin meet" x="282" y="-855.203"/>
<text text-anchor="start" x="297" y="-845.3029" font-family="Helvetica,sans-Serif" font-size="11.00" fill="#000000">SECOND_NAME</text>
<polygon fill="none" stroke="#000000" points="277,-816.2029 277,-838.2029 495,-838.2029 495,-816.2029 277,-816.2029"/>
<image xlink:href="../../images/primaryKeys.png" width="11px" height="12px" preserveAspectRatio="xMinYMin meet" x="282" y="-833.203"/>
<text text-anchor="start" x="297" y="-823.3029" font-family="Helvetica,sans-Serif" font-size="11.00" fill="#000000">PNC_NUMBER</text>
<polygon fill="none" stroke="#000000" points="277,-794.2029 277,-816.2029 495,-816.2029 495,-794.2029 277,-794.2029"/>
<image xlink:href="../../images/primaryKeys.png" width="11px" height="12px" preserveAspectRatio="xMinYMin meet" x="282" y="-811.203"/>
<text text-anchor="start" x="297" y="-801.3029" font-family="Helvetica,sans-Serif" font-size="11.00" fill="#000000">THIRD_NAME</text>
<polygon fill="none" stroke="#000000" points="277,-772.2029 277,-794.2029 495,-794.2029 495,-772.2029 277,-772.2029"/>
<image xlink:href="../../images/primaryKeys.png" width="11px" height="12px" preserveAspectRatio="xMinYMin meet" x="282" y="-789.203"/>
<text text-anchor="start" x="297" y="-779.3029" font-family="Helvetica,sans-Serif" font-size="11.00" fill="#000000">CRO_NUMBER</text>
<polygon fill="none" stroke="#000000" points="277,-750.2029 277,-772.2029 495,-772.2029 495,-750.2029 277,-750.2029"/>
<image xlink:href="../../images/primaryKeys.png" width="11px" height="12px" preserveAspectRatio="xMinYMin meet" x="282" y="-767.203"/>
<text text-anchor="start" x="297" y="-757.3029" font-family="Helvetica,sans-Serif" font-size="11.00" fill="#000000">SURNAME</text>
<polygon fill="none" stroke="#000000" points="277,-728.2029 277,-750.2029 495,-750.2029 495,-728.2029 277,-728.2029"/>
<image xlink:href="../../images/primaryKeys.png" width="11px" height="12px" preserveAspectRatio="xMinYMin meet" x="282" y="-745.203"/>
<text text-anchor="start" x="297" y="-735.3029" font-family="Helvetica,sans-Serif" font-size="11.00" fill="#000000">NOMS_NUMBER</text>
<polygon fill="none" stroke="#000000" points="277,-706.2029 277,-728.2029 495,-728.2029 495,-706.2029 277,-706.2029"/>
<image xlink:href="../../images/primaryKeys.png" width="11px" height="12px" preserveAspectRatio="xMinYMin meet" x="282" y="-723.203"/>
<text text-anchor="start" x="297" y="-713.3029" font-family="Helvetica,sans-Serif" font-size="11.00" fill="#000000">DATE_OF_BIRTH_DATE</text>
<polygon fill="none" stroke="#000000" points="277,-684.2029 277,-706.2029 495,-706.2029 495,-684.2029 277,-684.2029"/>
<image xlink:href="../../images/primaryKeys.png" width="11px" height="12px" preserveAspectRatio="xMinYMin meet" x="282" y="-701.203"/>
<text text-anchor="start" x="297" y="-691.3029" font-family="Helvetica,sans-Serif" font-size="11.00" fill="#000000">NI_NUMBER</text>
<polygon fill="none" stroke="#000000" points="277,-662.2029 277,-684.2029 495,-684.2029 495,-662.2029 277,-662.2029"/>
<image xlink:href="../../images/primaryKeys.png" width="11px" height="12px" preserveAspectRatio="xMinYMin meet" x="282" y="-679.203"/>
<text text-anchor="start" x="297" y="-669.3029" font-family="Helvetica,sans-Serif" font-size="11.00" fill="#000000">IMMIGRATION_NUMBER</text>
<polygon fill="none" stroke="#000000" points="277,-640.2029 277,-662.2029 495,-662.2029 495,-640.2029 277,-640.2029"/>
<image xlink:href="../../images/primaryKeys.png" width="11px" height="12px" preserveAspectRatio="xMinYMin meet" x="282" y="-657.203"/>
<text text-anchor="start" x="297" y="-647.3029" font-family="Helvetica,sans-Serif" font-size="11.00" fill="#000000">PARTITION_AREA_ID</text>
<polygon fill="none" stroke="#000000" points="277,-618.2029 277,-640.2029 495,-640.2029 495,-618.2029 277,-618.2029"/>
<image xlink:href="../../images/primaryKeys.png" width="11px" height="12px" preserveAspectRatio="xMinYMin meet" x="282" y="-635.203"/>
<text text-anchor="start" x="297" y="-625.3029" font-family="Helvetica,sans-Serif" font-size="11.00" fill="#000000">SOFT_DELETED</text>
<polygon fill="none" stroke="#000000" points="277,-596.2029 277,-618.2029 495,-618.2029 495,-596.2029 277,-596.2029"/>
<image xlink:href="../../images/primaryKeys.png" width="11px" height="12px" preserveAspectRatio="xMinYMin meet" x="282" y="-613.203"/>
<text text-anchor="start" x="297" y="-603.3029" font-family="Helvetica,sans-Serif" font-size="11.00" fill="#000000">TITLE_ID</text>
<polygon fill="none" stroke="#000000" points="277,-574.2029 277,-596.2029 495,-596.2029 495,-574.2029 277,-574.2029"/>
<image xlink:href="../../images/primaryKeys.png" width="11px" height="12px" preserveAspectRatio="xMinYMin meet" x="282" y="-591.203"/>
<text text-anchor="start" x="297" y="-581.3029" font-family="Helvetica,sans-Serif" font-size="11.00" fill="#000000">GENDER_ID</text>
<polygon fill="none" stroke="#000000" points="277,-552.2029 277,-574.2029 495,-574.2029 495,-552.2029 277,-552.2029"/>
<image xlink:href="../../images/primaryKeys.png" width="11px" height="12px" preserveAspectRatio="xMinYMin meet" x="282" y="-569.203"/>
<text text-anchor="start" x="297" y="-559.3029" font-family="Helvetica,sans-Serif" font-size="11.00" fill="#000000">ETHNICITY_ID</text>
<polygon fill="none" stroke="#000000" points="277,-530.2029 277,-552.2029 495,-552.2029 495,-530.2029 277,-530.2029"/>
<image xlink:href="../../images/primaryKeys.png" width="11px" height="12px" preserveAspectRatio="xMinYMin meet" x="282" y="-547.203"/>
<text text-anchor="start" x="297" y="-537.3029" font-family="Helvetica,sans-Serif" font-size="11.00" fill="#000000">NATIONALITY_ID</text>
<polygon fill="none" stroke="#000000" points="277,-508.2029 277,-530.2029 495,-530.2029 495,-508.2029 277,-508.2029"/>
<image xlink:href="../../images/primaryKeys.png" width="11px" height="12px" preserveAspectRatio="xMinYMin meet" x="282" y="-525.203"/>
<text text-anchor="start" x="297" y="-515.3029" font-family="Helvetica,sans-Serif" font-size="11.00" fill="#000000">IMMIGRATION_STATUS_ID</text>
<polygon fill="none" stroke="#000000" points="277,-486.2029 277,-508.2029 495,-508.2029 495,-486.2029 277,-486.2029"/>
<image xlink:href="../../images/primaryKeys.png" width="11px" height="12px" preserveAspectRatio="xMinYMin meet" x="282" y="-503.203"/>
<text text-anchor="start" x="297" y="-493.3029" font-family="Helvetica,sans-Serif" font-size="11.00" fill="#000000">LANGUAGE_ID</text>
<polygon fill="none" stroke="#000000" points="277,-464.2029 277,-486.2029 495,-486.2029 495,-464.2029 277,-464.2029"/>
<image xlink:href="../../images/primaryKeys.png" width="11px" height="12px" preserveAspectRatio="xMinYMin meet" x="282" y="-481.203"/>
<text text-anchor="start" x="297" y="-471.3029" font-family="Helvetica,sans-Serif" font-size="11.00" fill="#000000">RELIGION_ID</text>
<polygon fill="none" stroke="#000000" points="277,-442.2029 277,-464.2029 495,-464.2029 495,-442.2029 277,-442.2029"/>
<image xlink:href="../../images/primaryKeys.png" width="11px" height="12px" preserveAspectRatio="xMinYMin meet" x="282" y="-459.203"/>
<text text-anchor="start" x="297" y="-449.3029" font-family="Helvetica,sans-Serif" font-size="11.00" fill="#000000">SURNAME_SOUNDEX</text>
<polygon fill="none" stroke="#000000" points="277,-420.2029 277,-442.2029 495,-442.2029 495,-420.2029 277,-420.2029"/>
<image xlink:href="../../images/primaryKeys.png" width="11px" height="12px" preserveAspectRatio="xMinYMin meet" x="282" y="-437.203"/>
<text text-anchor="start" x="297" y="-427.3029" font-family="Helvetica,sans-Serif" font-size="11.00" fill="#000000">SECOND_NATIONALITY_ID</text>
<polygon fill="none" stroke="#000000" points="277,-398.2029 277,-420.2029 495,-420.2029 495,-398.2029 277,-398.2029"/>
<image xlink:href="../../images/primaryKeys.png" width="11px" height="12px" preserveAspectRatio="xMinYMin meet" x="282" y="-415.203"/>
<text text-anchor="start" x="297" y="-405.3029" font-family="Helvetica,sans-Serif" font-size="11.00" fill="#000000">SEXUAL_ORIENTATION_ID</text>
<polygon fill="none" stroke="#000000" points="277,-376.2029 277,-398.2029 495,-398.2029 495,-376.2029 277,-376.2029"/>
<image xlink:href="../../images/primaryKeys.png" width="11px" height="12px" preserveAspectRatio="xMinYMin meet" x="282" y="-393.203"/>
<text text-anchor="start" x="297" y="-383.3029" font-family="Helvetica,sans-Serif" font-size="11.00" fill="#000000">CURRENT_EXCLUSION</text>
<polygon fill="none" stroke="#000000" points="277,-354.2029 277,-376.2029 495,-376.2029 495,-354.2029 277,-354.2029"/>
<image xlink:href="../../images/primaryKeys.png" width="11px" height="12px" preserveAspectRatio="xMinYMin meet" x="282" y="-371.203"/>
<text text-anchor="start" x="297" y="-361.3029" font-family="Helvetica,sans-Serif" font-size="11.00" fill="#000000">TRAINING_SESSION_ID</text>
<polygon fill="none" stroke="#000000" points="277,-332.2029 277,-354.2029 495,-354.2029 495,-332.2029 277,-332.2029"/>
<image xlink:href="../../images/primaryKeys.png" width="11px" height="12px" preserveAspectRatio="xMinYMin meet" x="282" y="-349.203"/>
<text text-anchor="start" x="297" y="-339.3029" font-family="Helvetica,sans-Serif" font-size="11.00" fill="#000000">CURRENT_DISPOSAL</text>
<polygon fill="none" stroke="#000000" points="277,-310.2029 277,-332.2029 495,-332.2029 495,-310.2029 277,-310.2029"/>
<image xlink:href="../../images/primaryKeys.png" width="11px" height="12px" preserveAspectRatio="xMinYMin meet" x="282" y="-327.203"/>
<text text-anchor="start" x="296.6434" y="-317.3029" font-family="Helvetica,sans-Serif" font-size="11.00" fill="#000000">CURRENT_HIGHEST_RISK_COLOUR</text>
<polygon fill="none" stroke="#000000" points="277,-288.2029 277,-310.2029 495,-310.2029 495,-288.2029 277,-288.2029"/>
<image xlink:href="../../images/primaryKeys.png" width="11px" height="12px" preserveAspectRatio="xMinYMin meet" x="282" y="-305.203"/>
<text text-anchor="start" x="297" y="-295.3029" font-family="Helvetica,sans-Serif" font-size="11.00" fill="#000000">CURRENT_RESTRICTION</text>
<polygon fill="none" stroke="#000000" points="277,-266.2029 277,-288.2029 495,-288.2029 495,-266.2029 277,-266.2029"/>
<image xlink:href="../../images/primaryKeys.png" width="11px" height="12px" preserveAspectRatio="xMinYMin meet" x="282" y="-283.203"/>
<text text-anchor="start" x="297" y="-273.3029" font-family="Helvetica,sans-Serif" font-size="11.00" fill="#000000">INSTITUTION_ID</text>
<polygon fill="none" stroke="#000000" points="277,-244.2029 277,-266.2029 495,-266.2029 495,-244.2029 277,-244.2029"/>
<image xlink:href="../../images/primaryKeys.png" width="11px" height="12px" preserveAspectRatio="xMinYMin meet" x="282" y="-261.203"/>
<text text-anchor="start" x="297" y="-251.3029" font-family="Helvetica,sans-Serif" font-size="11.00" fill="#000000">ESTABLISHMENT</text>
<polygon fill="none" stroke="#000000" points="277,-222.2029 277,-244.2029 495,-244.2029 495,-222.2029 277,-222.2029"/>
<image xlink:href="../../images/primaryKeys.png" width="11px" height="12px" preserveAspectRatio="xMinYMin meet" x="282" y="-239.203"/>
<text text-anchor="start" x="297" y="-229.3029" font-family="Helvetica,sans-Serif" font-size="11.00" fill="#000000">CURRENT_TIER</text>
<polygon fill="none" stroke="#000000" points="277,-200.2029 277,-222.2029 495,-222.2029 495,-200.2029 277,-200.2029"/>
<image xlink:href="../../images/primaryKeys.png" width="11px" height="12px" preserveAspectRatio="xMinYMin meet" x="282" y="-217.203"/>
<text text-anchor="start" x="297" y="-207.3029" font-family="Helvetica,sans-Serif" font-size="11.00" fill="#000000">OM_ALLOCATION_DECISION_ID</text>
<polygon fill="none" stroke="#000000" points="277,-178.2029 277,-200.2029 495,-200.2029 495,-178.2029 277,-178.2029"/>
<image xlink:href="../../images/primaryKeys.png" width="11px" height="12px" preserveAspectRatio="xMinYMin meet" x="282" y="-195.203"/>
<text text-anchor="start" x="297" y="-185.3029" font-family="Helvetica,sans-Serif" font-size="11.00" fill="#000000">TRANSGENDER_PROCESS_ID</text>
<polygon fill="none" stroke="#000000" points="277,-156.2029 277,-178.2029 495,-178.2029 495,-156.2029 277,-156.2029"/>
<image xlink:href="../../images/primaryKeys.png" width="11px" height="12px" preserveAspectRatio="xMinYMin meet" x="282" y="-173.203"/>
<text text-anchor="start" x="297" y="-163.3029" font-family="Helvetica,sans-Serif" font-size="11.00" fill="#000000">PREFERRED_NAME</text>
<polygon fill="none" stroke="#000000" points="277,-134.2029 277,-156.2029 495,-156.2029 495,-134.2029 277,-134.2029"/>
<image xlink:href="../../images/primaryKeys.png" width="11px" height="12px" preserveAspectRatio="xMinYMin meet" x="282" y="-151.203"/>
<text text-anchor="start" x="297" y="-141.3029" font-family="Helvetica,sans-Serif" font-size="11.00" fill="#000000">GENDER_IDENTITY_ID</text>
<polygon fill="none" stroke="#000000" points="277,-115.2029 277,-134.2029 495,-134.2029 495,-115.2029 277,-115.2029"/>
<text text-anchor="start" x="280" y="-121.3029" font-family="Helvetica,sans-Serif" font-size="11.00" fill="#000000">...</text>
<polygon fill="#ffffff" stroke="transparent" points="277,-96.2029 277,-115.2029 353,-115.2029 353,-96.2029 277,-96.2029"/>
<polygon fill="none" stroke="#000000" points="277,-96.2029 277,-115.2029 353,-115.2029 353,-96.2029 277,-96.2029"/>
<text text-anchor="start" x="280" y="-102.3029" font-family="Helvetica,sans-Serif" font-size="11.00" fill="#000000">&lt; 16</text>
<polygon fill="#ffffff" stroke="transparent" points="353,-96.2029 353,-115.2029 443,-115.2029 443,-96.2029 353,-96.2029"/>
<polygon fill="none" stroke="#000000" points="353,-96.2029 353,-115.2029 443,-115.2029 443,-96.2029 353,-96.2029"/>
<text text-anchor="start" x="380.094" y="-102.3029" font-family="Helvetica,sans-Serif" font-size="11.00" fill="#000000">18,527 rows</text>
<polygon fill="#ffffff" stroke="transparent" points="443,-96.2029 443,-115.2029 495,-115.2029 495,-96.2029 443,-96.2029"/>
<polygon fill="none" stroke="#000000" points="443,-96.2029 443,-115.2029 495,-115.2029 495,-96.2029 443,-96.2029"/>
<text text-anchor="start" x="470.2904" y="-102.3029" font-family="Helvetica,sans-Serif" font-size="11.00" fill="#000000">96 &gt;</text>
</a>
</g>
</g>
<!-- DYNAMIC_RSR_HISTORY&#45;&gt;OFFENDER -->
<g id="edge1" class="edge">
<title>DYNAMIC_RSR_HISTORY:w&#45;&gt;OFFENDER:e</title>
<path fill="none" stroke="#000000" d="M531.4771,-516.2128C384.3791,-538.2971 668.9665,-915.2029 495,-915.2029"/>
<polygon fill="#000000" stroke="#000000" points="538.0193,-515.7579 546.2497,-518.7943 542.0096,-515.4804 546,-515.2029 546,-515.2029 546,-515.2029 542.0096,-515.4804 545.7503,-511.6116 538.0193,-515.7579 538.0193,-515.7579"/>
<ellipse fill="none" stroke="#000000" cx="534.827" cy="-515.9799" rx="3.2" ry="3.2"/>
</g>
<!-- R_STANDARD_REFERENCE_LIST -->
<g id="node3" class="node">
<title>R_STANDARD_REFERENCE_LIST</title>
<g id="a_node3"><a xlink:href="../../tables/R_STANDARD_REFERENCE_LIST.html" xlink:title="R_STANDARD_REFERENCE_LIST" target="_top">
<polygon fill="#ffffff" stroke="transparent" points="8,-338.7029 8,-487.7029 228,-487.7029 228,-338.7029 8,-338.7029"/>
<polygon fill="#f5f5f5" stroke="transparent" points="8,-464.2029 8,-487.2029 228,-487.2029 228,-464.2029 8,-464.2029"/>
<polygon fill="none" stroke="#000000" points="8,-464.2029 8,-487.2029 228,-487.2029 228,-464.2029 8,-464.2029"/>
<text text-anchor="start" x="12.5842" y="-473.3029" font-family="Helvetica,sans-Serif" font-weight="bold" font-size="11.00" fill="#000000">R_STANDARD_REFERENCE_LIST</text>
<text text-anchor="start" x="193.5219" y="-472.3029" font-family="Helvetica,sans-Serif" font-size="11.00" fill="#000000">[table]</text>
<polygon fill="none" stroke="#000000" points="8,-442.2029 8,-464.2029 228,-464.2029 228,-442.2029 8,-442.2029"/>
<image xlink:href="../../images/primaryKeys.png" width="11px" height="12px" preserveAspectRatio="xMinYMin meet" x="13" y="-459.203"/>
<text text-anchor="start" x="35.5558" y="-449.3029" font-family="Helvetica,sans-Serif" font-size="11.00" fill="#000000">STANDARD_REFERENCE_LIST_ID</text>
<polygon fill="none" stroke="#000000" points="8,-420.2029 8,-442.2029 228,-442.2029 228,-420.2029 8,-420.2029"/>
<image xlink:href="../../images/primaryKeys.png" width="11px" height="12px" preserveAspectRatio="xMinYMin meet" x="13" y="-437.203"/>
<text text-anchor="start" x="42" y="-427.3029" font-family="Helvetica,sans-Serif" font-size="11.00" fill="#000000">CODE_VALUE</text>
<polygon fill="none" stroke="#000000" points="8,-398.2029 8,-420.2029 228,-420.2029 228,-398.2029 8,-398.2029"/>
<image xlink:href="../../images/primaryKeys.png" width="11px" height="12px" preserveAspectRatio="xMinYMin meet" x="13" y="-415.203"/>
<text text-anchor="start" x="39.8337" y="-405.3029" font-family="Helvetica,sans-Serif" font-size="11.00" fill="#000000">REFERENCE_DATA_MASTER_ID</text>
<polygon fill="none" stroke="#000000" points="8,-376.2029 8,-398.2029 228,-398.2029 228,-376.2029 8,-376.2029"/>
<image xlink:href="../../images/primaryKeys.png" width="11px" height="12px" preserveAspectRatio="xMinYMin meet" x="13" y="-393.203"/>
<text text-anchor="start" x="42" y="-383.3029" font-family="Helvetica,sans-Serif" font-size="11.00" fill="#000000">TRAINING_SESSION_ID</text>
<polygon fill="none" stroke="#000000" points="8,-357.2029 8,-376.2029 228,-376.2029 228,-357.2029 8,-357.2029"/>
<text text-anchor="start" x="11" y="-363.3029" font-family="Helvetica,sans-Serif" font-size="11.00" fill="#000000">...</text>
<polygon fill="#ffffff" stroke="transparent" points="8,-338.2029 8,-357.2029 79,-357.2029 79,-338.2029 8,-338.2029"/>
<polygon fill="none" stroke="#000000" points="8,-338.2029 8,-357.2029 79,-357.2029 79,-338.2029 8,-338.2029"/>
<text text-anchor="start" x="11" y="-344.3029" font-family="Helvetica,sans-Serif" font-size="11.00" fill="#000000">&lt; 1</text>
<polygon fill="#ffffff" stroke="transparent" points="79,-338.2029 79,-357.2029 169,-357.2029 169,-338.2029 79,-338.2029"/>
<polygon fill="none" stroke="#000000" points="79,-338.2029 79,-357.2029 169,-357.2029 169,-338.2029 79,-338.2029"/>
<text text-anchor="start" x="106.094" y="-344.3029" font-family="Helvetica,sans-Serif" font-size="11.00" fill="#000000">15,391 rows</text>
<polygon fill="#ffffff" stroke="transparent" points="169,-338.2029 169,-357.2029 228,-357.2029 228,-338.2029 169,-338.2029"/>
<polygon fill="none" stroke="#000000" points="169,-338.2029 169,-357.2029 228,-357.2029 228,-338.2029 169,-338.2029"/>
<text text-anchor="start" x="197.1755" y="-344.3029" font-family="Helvetica,sans-Serif" font-size="11.00" fill="#000000">296 &gt;</text>
</a>
</g>
</g>
<!-- DYNAMIC_RSR_HISTORY&#45;&gt;R_STANDARD_REFERENCE_LIST -->
<g id="edge2" class="edge">
<title>DYNAMIC_RSR_HISTORY:w&#45;&gt;R_STANDARD_REFERENCE_LIST:e</title>
<path fill="none" stroke="#000000" d="M532.0352,-467.5098C472.6492,-431.3079 563.1524,-140.0111 503,-86.2029 425.4869,-16.8652 346.5141,-16.8663 269,-86.2029 207.8363,-140.9142 310.0629,-453.2029 228,-453.2029"/>
<polygon fill="#000000" stroke="#000000" points="538.2659,-469.1575 545.0796,-474.6833 542.1329,-470.1802 546,-471.2029 546,-471.2029 546,-471.2029 542.1329,-470.1802 546.9204,-467.7226 538.2659,-469.1575 538.2659,-469.1575"/>
<ellipse fill="none" stroke="#000000" cx="535.1722" cy="-468.3393" rx="3.2" ry="3.2"/>
</g>
<!-- OFFENDER&#45;&gt;R_STANDARD_REFERENCE_LIST -->
<g id="edge3" class="edge">
<title>OFFENDER:w&#45;&gt;R_STANDARD_REFERENCE_LIST:e</title>
<path fill="none" stroke="#000000" d="M262.3077,-235.2404C193.1642,-257.419 322.4998,-453.2029 228,-453.2029"/>
<polygon fill="#000000" stroke="#000000" points="269.0758,-234.3018 277.4945,-236.7688 273.0379,-233.7524 277,-233.2029 277,-233.2029 277,-233.2029 273.0379,-233.7524 276.5055,-229.6371 269.0758,-234.3018 269.0758,-234.3018"/>
<ellipse fill="none" stroke="#000000" cx="265.9062" cy="-234.7414" rx="3.2" ry="3.2"/>
</g>
<!-- OFFENDER&#45;&gt;R_STANDARD_REFERENCE_LIST -->
<g id="edge4" class="edge">
<title>OFFENDER:w&#45;&gt;R_STANDARD_REFERENCE_LIST:e</title>
<path fill="none" stroke="#000000" d="M262.782,-559.288C235.1981,-539.6926 275.4572,-453.2029 228,-453.2029"/>
<polygon fill="#000000" stroke="#000000" points="269.2871,-561.0791 276.0443,-566.6738 273.1435,-562.141 277,-563.2029 277,-563.2029 277,-563.2029 273.1435,-562.141 277.9557,-559.7321 269.2871,-561.0791 269.2871,-561.0791"/>
<ellipse fill="none" stroke="#000000" cx="266.2019" cy="-560.2296" rx="3.2" ry="3.2"/>
</g>
<!-- OFFENDER&#45;&gt;R_STANDARD_REFERENCE_LIST -->
<g id="edge5" class="edge">
<title>OFFENDER:w&#45;&gt;R_STANDARD_REFERENCE_LIST:e</title>
<path fill="none" stroke="#000000" d="M262.8293,-581.94C227.4817,-561.6131 284.7116,-453.2029 228,-453.2029"/>
<polygon fill="#000000" stroke="#000000" points="269.204,-583.4078 276.1922,-588.7111 273.102,-584.3054 277,-585.2029 277,-585.2029 277,-585.2029 273.102,-584.3054 277.8078,-581.6947 269.204,-583.4078 269.204,-583.4078"/>
<ellipse fill="none" stroke="#000000" cx="266.0856" cy="-582.6897" rx="3.2" ry="3.2"/>
</g>
<!-- OFFENDER&#45;&gt;R_STANDARD_REFERENCE_LIST -->
<g id="edge6" class="edge">
<title>OFFENDER:w&#45;&gt;R_STANDARD_REFERENCE_LIST:e</title>
<path fill="none" stroke="#000000" d="M262.3921,-146.5761C155.6596,-168.7955 361.1959,-453.2029 228,-453.2029"/>
<polygon fill="#000000" stroke="#000000" points="269.0351,-145.9517 277.3369,-148.7871 273.0176,-145.5773 277,-145.2029 277,-145.2029 277,-145.2029 273.0176,-145.5773 276.6631,-141.6187 269.0351,-145.9517 269.0351,-145.9517"/>
<ellipse fill="none" stroke="#000000" cx="265.8492" cy="-146.2512" rx="3.2" ry="3.2"/>
</g>
<!-- OFFENDER&#45;&gt;R_STANDARD_REFERENCE_LIST -->
<g id="edge7" class="edge">
<title>OFFENDER:w&#45;&gt;R_STANDARD_REFERENCE_LIST:e</title>
<path fill="none" stroke="#000000" d="M263.3768,-514.4564C246.7322,-499.3232 258.5399,-453.2029 228,-453.2029"/>
<polygon fill="#000000" stroke="#000000" points="269.4454,-516.5707 275.8155,-522.6025 273.2227,-517.8868 277,-519.2029 277,-519.2029 277,-519.2029 273.2227,-517.8868 278.1845,-515.8034 269.4454,-516.5707 269.4454,-516.5707"/>
<ellipse fill="none" stroke="#000000" cx="266.4236" cy="-515.5179" rx="3.2" ry="3.2"/>
</g>
<!-- OFFENDER&#45;&gt;R_STANDARD_REFERENCE_LIST -->
<g id="edge8" class="edge">
<title>OFFENDER:w&#45;&gt;R_STANDARD_REFERENCE_LIST:e</title>
<path fill="none" stroke="#000000" d="M263.3171,-492.4942C250.0046,-481.1434 251.324,-453.2029 228,-453.2029"/>
<polygon fill="#000000" stroke="#000000" points="269.4354,-494.5996 275.8285,-500.607 273.2177,-495.9013 277,-497.2029 277,-497.2029 277,-497.2029 273.2177,-495.9013 278.1715,-493.7989 269.4354,-494.5996 269.4354,-494.5996"/>
<ellipse fill="none" stroke="#000000" cx="266.4096" cy="-493.5583" rx="3.2" ry="3.2"/>
</g>
<!-- OFFENDER&#45;&gt;R_STANDARD_REFERENCE_LIST -->
<g id="edge9" class="edge">
<title>OFFENDER:w&#45;&gt;R_STANDARD_REFERENCE_LIST:e</title>
<path fill="none" stroke="#000000" d="M262.9863,-536.718C241.7228,-518.7853 266.6452,-453.2029 228,-453.2029"/>
<polygon fill="#000000" stroke="#000000" points="269.3807,-538.7644 275.9027,-544.6316 273.1903,-539.9837 277,-541.2029 277,-541.2029 277,-541.2029 273.1903,-539.9837 278.0973,-537.7742 269.3807,-538.7644 269.3807,-538.7644"/>
<ellipse fill="none" stroke="#000000" cx="266.333" cy="-537.789" rx="3.2" ry="3.2"/>
</g>
<!-- OFFENDER&#45;&gt;R_STANDARD_REFERENCE_LIST -->
<g id="edge10" class="edge">
<title>OFFENDER:w&#45;&gt;R_STANDARD_REFERENCE_LIST:e</title>
<path fill="none" stroke="#000000" d="M262.3765,-213.0117C183.8532,-235.157 332.1655,-453.2029 228,-453.2029"/>
<polygon fill="#000000" stroke="#000000" points="269.0605,-212.185 277.4419,-214.7757 273.0303,-211.694 277,-211.2029 277,-211.2029 277,-211.2029 273.0303,-211.694 276.5581,-207.6302 269.0605,-212.185 269.0605,-212.185"/>
<ellipse fill="none" stroke="#000000" cx="265.8847" cy="-212.5778" rx="3.2" ry="3.2"/>
</g>
<!-- OFFENDER&#45;&gt;R_STANDARD_REFERENCE_LIST -->
<g id="edge11" class="edge">
<title>OFFENDER:w&#45;&gt;R_STANDARD_REFERENCE_LIST:e</title>
<path fill="none" stroke="#000000" d="M262.6297,-471.7654C251.0865,-465.5779 245.9041,-453.2029 228,-453.2029"/>
<polygon fill="#000000" stroke="#000000" points="269.2195,-473.3417 276.1625,-478.7042 273.1098,-474.2723 277,-475.2029 277,-475.2029 277,-475.2029 273.1098,-474.2723 277.8375,-471.7017 269.2195,-473.3417 269.2195,-473.3417"/>
<ellipse fill="none" stroke="#000000" cx="266.1073" cy="-472.5972" rx="3.2" ry="3.2"/>
</g>
<!-- OFFENDER&#45;&gt;R_STANDARD_REFERENCE_LIST -->
<g id="edge12" class="edge">
<title>OFFENDER:w&#45;&gt;R_STANDARD_REFERENCE_LIST:e</title>
<path fill="none" stroke="#000000" d="M262.6297,-434.6404C251.0865,-440.8279 245.9041,-453.2029 228,-453.2029"/>
<polygon fill="#000000" stroke="#000000" points="269.2195,-433.0641 277.8375,-434.7042 273.1098,-432.1335 277,-431.2029 277,-431.2029 277,-431.2029 273.1098,-432.1335 276.1625,-427.7017 269.2195,-433.0641 269.2195,-433.0641"/>
<ellipse fill="none" stroke="#000000" cx="266.1073" cy="-433.8086" rx="3.2" ry="3.2"/>
</g>
<!-- OFFENDER&#45;&gt;R_STANDARD_REFERENCE_LIST -->
<g id="edge13" class="edge">
<title>OFFENDER:w&#45;&gt;R_STANDARD_REFERENCE_LIST:e</title>
<path fill="none" stroke="#000000" d="M263.3171,-413.9117C250.0046,-425.2625 251.324,-453.2029 228,-453.2029"/>
<polygon fill="#000000" stroke="#000000" points="269.4354,-411.8062 278.1715,-412.607 273.2177,-410.5046 277,-409.2029 277,-409.2029 277,-409.2029 273.2177,-410.5046 275.8285,-405.7989 269.4354,-411.8062 269.4354,-411.8062"/>
<ellipse fill="none" stroke="#000000" cx="266.4096" cy="-412.8475" rx="3.2" ry="3.2"/>
</g>
<!-- OFFENDER&#45;&gt;R_STANDARD_REFERENCE_LIST -->
<g id="edge14" class="edge">
<title>OFFENDER:w&#45;&gt;R_STANDARD_REFERENCE_LIST:e</title>
<path fill="none" stroke="#000000" d="M262.7767,-604.3985C219.2659,-583.5264 294.0739,-453.2029 228,-453.2029"/>
<polygon fill="#000000" stroke="#000000" points="269.1511,-605.6553 276.3036,-610.7349 273.0756,-606.4291 277,-607.2029 277,-607.2029 277,-607.2029 273.0756,-606.4291 277.6964,-603.6709 269.1511,-605.6553 269.1511,-605.6553"/>
<ellipse fill="none" stroke="#000000" cx="266.0116" cy="-605.0363" rx="3.2" ry="3.2"/>
</g>
<!-- OFFENDER&#45;&gt;R_STANDARD_REFERENCE_LIST -->
<g id="edge15" class="edge">
<title>OFFENDER:w&#45;&gt;R_STANDARD_REFERENCE_LIST:e</title>
<path fill="none" stroke="#000000" d="M262.461,-190.8204C174.4233,-212.8811 341.8599,-453.2029 228,-453.2029"/>
<polygon fill="#000000" stroke="#000000" points="269.049,-190.0875 277.3981,-192.7809 273.0245,-189.6452 277,-189.2029 277,-189.2029 277,-189.2029 273.0245,-189.6452 276.6019,-185.625 269.049,-190.0875 269.049,-190.0875"/>
<ellipse fill="none" stroke="#000000" cx="265.8687" cy="-190.4413" rx="3.2" ry="3.2"/>
</g>
</g>
</svg>
