<?xml version="1.0" encoding="UTF-8" standalone="no"?>
<!DOCTYPE svg PUBLIC "-//W3C//DTD SVG 1.1//EN"
 "http://www.w3.org/Graphics/SVG/1.1/DTD/svg11.dtd">
<!-- Generated by graphviz version 2.40.1 (20161225.0304)
 -->
<!-- Title: oneDegreeRelationshipsDiagram Pages: 1 -->
<svg width="770pt" height="676pt"
 viewBox="0.00 0.00 770.00 676.20" xmlns="http://www.w3.org/2000/svg" xmlns:xlink="http://www.w3.org/1999/xlink">
<g id="graph0" class="graph" transform="scale(1 1) rotate(0) translate(4 672.2)">
<title>oneDegreeRelationshipsDiagram</title>
<polygon fill="#ffffff" stroke="transparent" points="-4,4 -4,-672.2 766,-672.2 766,4 -4,4"/>
<text text-anchor="middle" x="72.4936" y="-7.3" font-family="Helvetica,sans-Serif" font-size="11.00" fill="#000000">Generated by SchemaSpy</text>
<!-- HOST_AT_RELEASE -->
<g id="node1" class="node">
<title>HOST_AT_RELEASE</title>
<g id="a_node1"><a xlink:href="../../tables/HOST_AT_RELEASE.html" xlink:title="HOST_AT_RELEASE" target="_top">
<polygon fill="#ffffff" stroke="transparent" points="528,-340.7 528,-540.7 754,-540.7 754,-340.7 528,-340.7"/>
<polygon fill="#f5f5f5" stroke="transparent" points="530,-515.7 530,-538.7 752,-538.7 752,-515.7 530,-515.7"/>
<polygon fill="none" stroke="#000000" points="530,-515.7 530,-538.7 752,-538.7 752,-515.7 530,-515.7"/>
<text text-anchor="start" x="535" y="-524.8" font-family="Helvetica,sans-Serif" font-weight="bold" font-size="11.00" fill="#000000">HOST_AT_RELEASE</text>
<text text-anchor="start" x="717.0437" y="-523.8" font-family="Helvetica,sans-Serif" font-size="11.00" fill="#000000">[table]</text>
<polygon fill="none" stroke="#000000" points="530,-493.7 530,-515.7 691,-515.7 691,-493.7 530,-493.7"/>
<image xlink:href="../../images/primaryKeys.png" width="11px" height="12px" preserveAspectRatio="xMinYMin meet" x="535" y="-510.7"/>
<text text-anchor="start" x="550" y="-500.8" font-family="Helvetica,sans-Serif" font-size="11.00" fill="#000000">HOST_AT_RELEASE_ID</text>
<polygon fill="none" stroke="#000000" points="691,-493.7 691,-515.7 752,-515.7 752,-493.7 691,-493.7"/>
<text text-anchor="start" x="693.6865" y="-501.4" font-family="Helvetica,sans-Serif" font-size="11.00" fill="#000000">number[38]</text>
<polygon fill="none" stroke="#000000" points="530,-471.7 530,-493.7 691,-493.7 691,-471.7 530,-471.7"/>
<image xlink:href="../../images/primaryKeys.png" width="11px" height="12px" preserveAspectRatio="xMinYMin meet" x="535" y="-488.7"/>
<text text-anchor="start" x="550" y="-478.8" font-family="Helvetica,sans-Serif" font-size="11.00" fill="#000000">RELEASE_ID</text>
<polygon fill="none" stroke="#000000" points="691,-471.7 691,-493.7 752,-493.7 752,-471.7 691,-471.7"/>
<text text-anchor="start" x="693.6865" y="-479.4" font-family="Helvetica,sans-Serif" font-size="11.00" fill="#000000">number[38]</text>
<polygon fill="none" stroke="#000000" points="530,-449.7 530,-471.7 691,-471.7 691,-449.7 530,-449.7"/>
<image xlink:href="../../images/primaryKeys.png" width="11px" height="12px" preserveAspectRatio="xMinYMin meet" x="535" y="-466.7"/>
<text text-anchor="start" x="550" y="-456.8" font-family="Helvetica,sans-Serif" font-size="11.00" fill="#000000">PROBATION_AREA_ID</text>
<polygon fill="none" stroke="#000000" points="691,-449.7 691,-471.7 752,-471.7 752,-449.7 691,-449.7"/>
<text text-anchor="start" x="693.6865" y="-457.4" font-family="Helvetica,sans-Serif" font-size="11.00" fill="#000000">number[38]</text>
<polygon fill="none" stroke="#000000" points="530,-427.7 530,-449.7 691,-449.7 691,-427.7 530,-427.7"/>
<text text-anchor="start" x="550" y="-434.8" font-family="Helvetica,sans-Serif" font-size="11.00" fill="#000000">CREATED_BY_USER_ID</text>
<polygon fill="none" stroke="#000000" points="691,-427.7 691,-449.7 752,-449.7 752,-427.7 691,-427.7"/>
<text text-anchor="start" x="693.6865" y="-435.4" font-family="Helvetica,sans-Serif" font-size="11.00" fill="#000000">number[38]</text>
<polygon fill="none" stroke="#000000" points="530,-405.7 530,-427.7 691,-427.7 691,-405.7 530,-405.7"/>
<text text-anchor="start" x="550" y="-412.8" font-family="Helvetica,sans-Serif" font-size="11.00" fill="#000000">CREATED_DATETIME</text>
<polygon fill="none" stroke="#000000" points="691,-405.7 691,-427.7 752,-427.7 752,-405.7 691,-405.7"/>
<text text-anchor="start" x="694" y="-413.4" font-family="Helvetica,sans-Serif" font-size="11.00" fill="#000000">date[7]</text>
<polygon fill="none" stroke="#000000" points="530,-383.7 530,-405.7 691,-405.7 691,-383.7 530,-383.7"/>
<text text-anchor="start" x="548.0235" y="-390.8" font-family="Helvetica,sans-Serif" font-size="11.00" fill="#000000">LAST_UPDATED_USER_ID</text>
<polygon fill="none" stroke="#000000" points="691,-383.7 691,-405.7 752,-405.7 752,-383.7 691,-383.7"/>
<text text-anchor="start" x="693.6865" y="-391.4" font-family="Helvetica,sans-Serif" font-size="11.00" fill="#000000">number[38]</text>
<polygon fill="none" stroke="#000000" points="530,-361.7 530,-383.7 691,-383.7 691,-361.7 530,-361.7"/>
<text text-anchor="start" x="544.0531" y="-368.8" font-family="Helvetica,sans-Serif" font-size="11.00" fill="#000000">LAST_UPDATED_DATETIME</text>
<polygon fill="none" stroke="#000000" points="691,-361.7 691,-383.7 752,-383.7 752,-361.7 691,-361.7"/>
<text text-anchor="start" x="694" y="-369.4" font-family="Helvetica,sans-Serif" font-size="11.00" fill="#000000">date[7]</text>
<polygon fill="#ffffff" stroke="transparent" points="530,-342.7 530,-361.7 588,-361.7 588,-342.7 530,-342.7"/>
<polygon fill="none" stroke="#000000" points="530,-342.7 530,-361.7 588,-361.7 588,-342.7 530,-342.7"/>
<text text-anchor="start" x="533" y="-348.8" font-family="Helvetica,sans-Serif" font-size="11.00" fill="#000000">&lt; 2</text>
<polygon fill="#ffffff" stroke="transparent" points="588,-342.7 588,-361.7 691,-361.7 691,-342.7 588,-342.7"/>
<polygon fill="none" stroke="#000000" points="588,-342.7 588,-361.7 691,-361.7 691,-342.7 588,-342.7"/>
<text text-anchor="start" x="628.094" y="-348.8" font-family="Helvetica,sans-Serif" font-size="11.00" fill="#000000">19,012 rows</text>
<polygon fill="#ffffff" stroke="transparent" points="691,-342.7 691,-361.7 752,-361.7 752,-342.7 691,-342.7"/>
<polygon fill="none" stroke="#000000" points="691,-342.7 691,-361.7 752,-361.7 752,-342.7 691,-342.7"/>
<text text-anchor="start" x="733.4053" y="-348.8" font-family="Helvetica,sans-Serif" font-size="11.00" fill="#000000">0 &gt;</text>
<polygon fill="none" stroke="#000000" stroke-width="2" points="529,-341.7 529,-539.7 753,-539.7 753,-341.7 529,-341.7"/>
</a>
</g>
</g>
<!-- PROBATION_AREA -->
<g id="node2" class="node">
<title>PROBATION_AREA</title>
<g id="a_node2"><a xlink:href="../../tables/PROBATION_AREA.html" xlink:title="PROBATION_AREA" target="_top">
<polygon fill="#ffffff" stroke="transparent" points="8,-38.2 8,-385.2 220,-385.2 220,-38.2 8,-38.2"/>
<polygon fill="#f5f5f5" stroke="transparent" points="8,-361.7 8,-384.7 220,-384.7 220,-361.7 8,-361.7"/>
<polygon fill="none" stroke="#000000" points="8,-361.7 8,-384.7 220,-384.7 220,-361.7 8,-361.7"/>
<text text-anchor="start" x="13" y="-370.8" font-family="Helvetica,sans-Serif" font-weight="bold" font-size="11.00" fill="#000000">PROBATION_AREA</text>
<text text-anchor="start" x="185.0437" y="-369.8" font-family="Helvetica,sans-Serif" font-size="11.00" fill="#000000">[table]</text>
<polygon fill="none" stroke="#000000" points="8,-339.7 8,-361.7 220,-361.7 220,-339.7 8,-339.7"/>
<image xlink:href="../../images/primaryKeys.png" width="11px" height="12px" preserveAspectRatio="xMinYMin meet" x="13" y="-356.7"/>
<text text-anchor="start" x="28" y="-346.8" font-family="Helvetica,sans-Serif" font-size="11.00" fill="#000000">PROBATION_AREA_ID</text>
<polygon fill="none" stroke="#000000" points="8,-317.7 8,-339.7 220,-339.7 220,-317.7 8,-317.7"/>
<image xlink:href="../../images/primaryKeys.png" width="11px" height="12px" preserveAspectRatio="xMinYMin meet" x="13" y="-334.7"/>
<text text-anchor="start" x="28" y="-324.8" font-family="Helvetica,sans-Serif" font-size="11.00" fill="#000000">CODE</text>
<polygon fill="none" stroke="#000000" points="8,-295.7 8,-317.7 220,-317.7 220,-295.7 8,-295.7"/>
<image xlink:href="../../images/primaryKeys.png" width="11px" height="12px" preserveAspectRatio="xMinYMin meet" x="13" y="-312.7"/>
<text text-anchor="start" x="28" y="-302.8" font-family="Helvetica,sans-Serif" font-size="11.00" fill="#000000">FORM_20_CODE</text>
<polygon fill="none" stroke="#000000" points="8,-273.7 8,-295.7 220,-295.7 220,-273.7 8,-273.7"/>
<image xlink:href="../../images/primaryKeys.png" width="11px" height="12px" preserveAspectRatio="xMinYMin meet" x="13" y="-290.7"/>
<text text-anchor="start" x="28" y="-280.8" font-family="Helvetica,sans-Serif" font-size="11.00" fill="#000000">HO_AREA_CODE</text>
<polygon fill="none" stroke="#000000" points="8,-251.7 8,-273.7 220,-273.7 220,-251.7 8,-251.7"/>
<image xlink:href="../../images/primaryKeys.png" width="11px" height="12px" preserveAspectRatio="xMinYMin meet" x="13" y="-268.7"/>
<text text-anchor="start" x="28" y="-258.8" font-family="Helvetica,sans-Serif" font-size="11.00" fill="#000000">TRAINING_SESSION_ID</text>
<polygon fill="none" stroke="#000000" points="8,-229.7 8,-251.7 220,-251.7 220,-229.7 8,-229.7"/>
<image xlink:href="../../images/primaryKeys.png" width="11px" height="12px" preserveAspectRatio="xMinYMin meet" x="13" y="-246.7"/>
<text text-anchor="start" x="28" y="-236.8" font-family="Helvetica,sans-Serif" font-size="11.00" fill="#000000">ORGANISATION_ID</text>
<polygon fill="none" stroke="#000000" points="8,-207.7 8,-229.7 220,-229.7 220,-207.7 8,-207.7"/>
<image xlink:href="../../images/primaryKeys.png" width="11px" height="12px" preserveAspectRatio="xMinYMin meet" x="13" y="-224.7"/>
<text text-anchor="start" x="28" y="-214.8" font-family="Helvetica,sans-Serif" font-size="11.00" fill="#000000">ADDRESS_ID</text>
<polygon fill="none" stroke="#000000" points="8,-185.7 8,-207.7 220,-207.7 220,-185.7 8,-185.7"/>
<image xlink:href="../../images/primaryKeys.png" width="11px" height="12px" preserveAspectRatio="xMinYMin meet" x="13" y="-202.7"/>
<text text-anchor="start" x="28" y="-192.8" font-family="Helvetica,sans-Serif" font-size="11.00" fill="#000000">SPG_ACTIVE_ID</text>
<polygon fill="none" stroke="#000000" points="8,-163.7 8,-185.7 220,-185.7 220,-163.7 8,-163.7"/>
<image xlink:href="../../images/primaryKeys.png" width="11px" height="12px" preserveAspectRatio="xMinYMin meet" x="13" y="-180.7"/>
<text text-anchor="start" x="28" y="-170.8" font-family="Helvetica,sans-Serif" font-size="11.00" fill="#000000">INSTITUTION_ID</text>
<polygon fill="none" stroke="#000000" points="8,-141.7 8,-163.7 220,-163.7 220,-141.7 8,-141.7"/>
<image xlink:href="../../images/primaryKeys.png" width="11px" height="12px" preserveAspectRatio="xMinYMin meet" x="13" y="-158.7"/>
<text text-anchor="start" x="28" y="-148.8" font-family="Helvetica,sans-Serif" font-size="11.00" fill="#000000">ESTABLISHMENT</text>
<polygon fill="none" stroke="#000000" points="8,-119.7 8,-141.7 220,-141.7 220,-119.7 8,-119.7"/>
<image xlink:href="../../images/primaryKeys.png" width="11px" height="12px" preserveAspectRatio="xMinYMin meet" x="13" y="-136.7"/>
<text text-anchor="start" x="28" y="-126.8" font-family="Helvetica,sans-Serif" font-size="11.00" fill="#000000">DEFAULT_TRANSFER_TEAM_ID</text>
<polygon fill="none" stroke="#000000" points="8,-97.7 8,-119.7 220,-119.7 220,-97.7 8,-97.7"/>
<image xlink:href="../../images/primaryKeys.png" width="11px" height="12px" preserveAspectRatio="xMinYMin meet" x="13" y="-114.7"/>
<text text-anchor="start" x="28" y="-104.8" font-family="Helvetica,sans-Serif" font-size="11.00" fill="#000000">DEFAULT_COURT_TEAM_ID</text>
<polygon fill="none" stroke="#000000" points="8,-75.7 8,-97.7 220,-97.7 220,-75.7 8,-75.7"/>
<image xlink:href="../../images/primaryKeys.png" width="11px" height="12px" preserveAspectRatio="xMinYMin meet" x="13" y="-92.7"/>
<text text-anchor="start" x="28" y="-82.8" font-family="Helvetica,sans-Serif" font-size="11.00" fill="#000000">DEFAULT_POSTCODE_TEAM_ID</text>
<polygon fill="none" stroke="#000000" points="8,-56.7 8,-75.7 220,-75.7 220,-56.7 8,-56.7"/>
<text text-anchor="start" x="11" y="-62.8" font-family="Helvetica,sans-Serif" font-size="11.00" fill="#000000">...</text>
<polygon fill="#ffffff" stroke="transparent" points="8,-37.7 8,-56.7 86,-56.7 86,-37.7 8,-37.7"/>
<polygon fill="none" stroke="#000000" points="8,-37.7 8,-56.7 86,-56.7 86,-37.7 8,-37.7"/>
<text text-anchor="start" x="11" y="-43.8" font-family="Helvetica,sans-Serif" font-size="11.00" fill="#000000">&lt; 8</text>
<polygon fill="#ffffff" stroke="transparent" points="86,-37.7 86,-56.7 164,-56.7 164,-37.7 86,-37.7"/>
<polygon fill="none" stroke="#000000" points="86,-37.7 86,-56.7 164,-56.7 164,-37.7 86,-37.7"/>
<text text-anchor="start" x="116.3807" y="-43.8" font-family="Helvetica,sans-Serif" font-size="11.00" fill="#000000">223 rows</text>
<polygon fill="#ffffff" stroke="transparent" points="164,-37.7 164,-56.7 220,-56.7 220,-37.7 164,-37.7"/>
<polygon fill="none" stroke="#000000" points="164,-37.7 164,-56.7 220,-56.7 220,-37.7 164,-37.7"/>
<text text-anchor="start" x="195.2904" y="-43.8" font-family="Helvetica,sans-Serif" font-size="11.00" fill="#000000">59 &gt;</text>
</a>
</g>
</g>
<!-- HOST_AT_RELEASE&#45;&gt;PROBATION_AREA -->
<g id="edge1" class="edge">
<title>HOST_AT_RELEASE:w&#45;&gt;PROBATION_AREA:e</title>
<path fill="none" stroke="#000000" d="M515.4206,-458.1051C480.573,-442.5659 532.0548,-361.4082 487,-328.7 405.7164,-269.691 358.4145,-304.2155 261,-328.7 240.944,-333.7409 240.6798,-350.7 220,-350.7"/>
<polygon fill="#000000" stroke="#000000" points="522.1238,-459.2981 529.3692,-464.2443 526.0619,-459.9991 530,-460.7 530,-460.7 530,-460.7 526.0619,-459.9991 530.6308,-457.1557 522.1238,-459.2981 522.1238,-459.2981"/>
<ellipse fill="none" stroke="#000000" cx="518.9733" cy="-458.7374" rx="3.2" ry="3.2"/>
</g>
<!-- RELEASE -->
<g id="node3" class="node">
<title>RELEASE</title>
<g id="a_node3"><a xlink:href="../../tables/RELEASE.html" xlink:title="RELEASE" target="_top">
<polygon fill="#ffffff" stroke="transparent" points="269,-339.2 269,-664.2 479,-664.2 479,-339.2 269,-339.2"/>
<polygon fill="#f5f5f5" stroke="transparent" points="269,-640.7 269,-663.7 479,-663.7 479,-640.7 269,-640.7"/>
<polygon fill="none" stroke="#000000" points="269,-640.7 269,-663.7 479,-663.7 479,-640.7 269,-640.7"/>
<text text-anchor="start" x="274" y="-649.8" font-family="Helvetica,sans-Serif" font-weight="bold" font-size="11.00" fill="#000000">RELEASE</text>
<text text-anchor="start" x="444.0437" y="-648.8" font-family="Helvetica,sans-Serif" font-size="11.00" fill="#000000">[table]</text>
<polygon fill="none" stroke="#000000" points="269,-618.7 269,-640.7 479,-640.7 479,-618.7 269,-618.7"/>
<image xlink:href="../../images/primaryKeys.png" width="11px" height="12px" preserveAspectRatio="xMinYMin meet" x="274" y="-635.7"/>
<text text-anchor="start" x="289" y="-625.8" font-family="Helvetica,sans-Serif" font-size="11.00" fill="#000000">RELEASE_ID</text>
<polygon fill="none" stroke="#000000" points="269,-596.7 269,-618.7 479,-618.7 479,-596.7 269,-596.7"/>
<image xlink:href="../../images/primaryKeys.png" width="11px" height="12px" preserveAspectRatio="xMinYMin meet" x="274" y="-613.7"/>
<text text-anchor="start" x="289" y="-603.8" font-family="Helvetica,sans-Serif" font-size="11.00" fill="#000000">ACTUAL_RELEASE_DATE</text>
<polygon fill="none" stroke="#000000" points="269,-574.7 269,-596.7 479,-596.7 479,-574.7 269,-574.7"/>
<image xlink:href="../../images/primaryKeys.png" width="11px" height="12px" preserveAspectRatio="xMinYMin meet" x="274" y="-591.7"/>
<text text-anchor="start" x="289" y="-581.8" font-family="Helvetica,sans-Serif" font-size="11.00" fill="#000000">PARTITION_AREA_ID</text>
<polygon fill="none" stroke="#000000" points="269,-552.7 269,-574.7 479,-574.7 479,-552.7 269,-552.7"/>
<image xlink:href="../../images/primaryKeys.png" width="11px" height="12px" preserveAspectRatio="xMinYMin meet" x="274" y="-569.7"/>
<text text-anchor="start" x="289" y="-559.8" font-family="Helvetica,sans-Serif" font-size="11.00" fill="#000000">SOFT_DELETED</text>
<polygon fill="none" stroke="#000000" points="269,-530.7 269,-552.7 479,-552.7 479,-530.7 269,-530.7"/>
<image xlink:href="../../images/primaryKeys.png" width="11px" height="12px" preserveAspectRatio="xMinYMin meet" x="274" y="-547.7"/>
<text text-anchor="start" x="289" y="-537.8" font-family="Helvetica,sans-Serif" font-size="11.00" fill="#000000">RELEASE_TYPE_ID</text>
<polygon fill="none" stroke="#000000" points="269,-508.7 269,-530.7 479,-530.7 479,-508.7 269,-508.7"/>
<image xlink:href="../../images/primaryKeys.png" width="11px" height="12px" preserveAspectRatio="xMinYMin meet" x="274" y="-525.7"/>
<text text-anchor="start" x="289" y="-515.8" font-family="Helvetica,sans-Serif" font-size="11.00" fill="#000000">CUSTODY_ID</text>
<polygon fill="none" stroke="#000000" points="269,-486.7 269,-508.7 479,-508.7 479,-486.7 269,-486.7"/>
<image xlink:href="../../images/primaryKeys.png" width="11px" height="12px" preserveAspectRatio="xMinYMin meet" x="274" y="-503.7"/>
<text text-anchor="start" x="289" y="-493.8" font-family="Helvetica,sans-Serif" font-size="11.00" fill="#000000">CREATED_DATETIME</text>
<polygon fill="none" stroke="#000000" points="269,-464.7 269,-486.7 479,-486.7 479,-464.7 269,-464.7"/>
<image xlink:href="../../images/primaryKeys.png" width="11px" height="12px" preserveAspectRatio="xMinYMin meet" x="274" y="-481.7"/>
<text text-anchor="start" x="289" y="-471.8" font-family="Helvetica,sans-Serif" font-size="11.00" fill="#000000">TRAINING_SESSION_ID</text>
<polygon fill="none" stroke="#000000" points="269,-442.7 269,-464.7 479,-464.7 479,-442.7 269,-442.7"/>
<image xlink:href="../../images/primaryKeys.png" width="11px" height="12px" preserveAspectRatio="xMinYMin meet" x="274" y="-459.7"/>
<text text-anchor="start" x="289" y="-449.8" font-family="Helvetica,sans-Serif" font-size="11.00" fill="#000000">OFFENDER_ID</text>
<polygon fill="none" stroke="#000000" points="269,-420.7 269,-442.7 479,-442.7 479,-420.7 269,-420.7"/>
<image xlink:href="../../images/primaryKeys.png" width="11px" height="12px" preserveAspectRatio="xMinYMin meet" x="274" y="-437.7"/>
<text text-anchor="start" x="289" y="-427.8" font-family="Helvetica,sans-Serif" font-size="11.00" fill="#000000">INSTITUTION_ID</text>
<polygon fill="none" stroke="#000000" points="269,-398.7 269,-420.7 479,-420.7 479,-398.7 269,-398.7"/>
<image xlink:href="../../images/primaryKeys.png" width="11px" height="12px" preserveAspectRatio="xMinYMin meet" x="274" y="-415.7"/>
<text text-anchor="start" x="289" y="-405.8" font-family="Helvetica,sans-Serif" font-size="11.00" fill="#000000">ESTABLISHMENT</text>
<polygon fill="none" stroke="#000000" points="269,-376.7 269,-398.7 479,-398.7 479,-376.7 269,-376.7"/>
<image xlink:href="../../images/primaryKeys.png" width="11px" height="12px" preserveAspectRatio="xMinYMin meet" x="274" y="-393.7"/>
<text text-anchor="start" x="289" y="-383.8" font-family="Helvetica,sans-Serif" font-size="11.00" fill="#000000">PROBATION_AREA_ID</text>
<polygon fill="none" stroke="#000000" points="269,-357.7 269,-376.7 479,-376.7 479,-357.7 269,-357.7"/>
<text text-anchor="start" x="272" y="-363.8" font-family="Helvetica,sans-Serif" font-size="11.00" fill="#000000">...</text>
<polygon fill="#ffffff" stroke="transparent" points="269,-338.7 269,-357.7 344,-357.7 344,-338.7 269,-338.7"/>
<polygon fill="none" stroke="#000000" points="269,-338.7 269,-357.7 344,-357.7 344,-338.7 269,-338.7"/>
<text text-anchor="start" x="272" y="-344.8" font-family="Helvetica,sans-Serif" font-size="11.00" fill="#000000">&lt; 7</text>
<polygon fill="#ffffff" stroke="transparent" points="344,-338.7 344,-357.7 430,-357.7 430,-338.7 344,-338.7"/>
<polygon fill="none" stroke="#000000" points="344,-338.7 344,-357.7 430,-357.7 430,-338.7 344,-338.7"/>
<text text-anchor="start" x="373.2089" y="-344.8" font-family="Helvetica,sans-Serif" font-size="11.00" fill="#000000">3,583 rows</text>
<polygon fill="#ffffff" stroke="transparent" points="430,-338.7 430,-357.7 479,-357.7 479,-338.7 430,-338.7"/>
<polygon fill="none" stroke="#000000" points="430,-338.7 430,-357.7 479,-357.7 479,-338.7 430,-338.7"/>
<text text-anchor="start" x="460.4053" y="-344.8" font-family="Helvetica,sans-Serif" font-size="11.00" fill="#000000">2 &gt;</text>
</a>
</g>
</g>
<!-- HOST_AT_RELEASE&#45;&gt;RELEASE -->
<g id="edge2" class="edge">
<title>HOST_AT_RELEASE:w&#45;&gt;RELEASE:e</title>
<path fill="none" stroke="#000000" d="M515.7019,-485.6364C474.4077,-506.3546 542.3458,-629.7 479,-629.7"/>
<polygon fill="#000000" stroke="#000000" points="522.1635,-484.3094 530.7242,-486.2264 526.0818,-483.5047 530,-482.7 530,-482.7 530,-482.7 526.0818,-483.5047 529.2758,-479.1736 522.1635,-484.3094 522.1635,-484.3094"/>
<ellipse fill="none" stroke="#000000" cx="519.029" cy="-484.9532" rx="3.2" ry="3.2"/>
</g>
<!-- RELEASE&#45;&gt;PROBATION_AREA -->
<g id="edge3" class="edge">
<title>RELEASE:w&#45;&gt;PROBATION_AREA:e</title>
<path fill="none" stroke="#000000" d="M255.1217,-383.1631C242.5786,-373.283 241.3196,-350.7 220,-350.7"/>
<polygon fill="#000000" stroke="#000000" points="261.396,-385.2142 267.8814,-391.1218 265.198,-386.4571 269,-387.7 269,-387.7 269,-387.7 265.198,-386.4571 270.1186,-384.2782 261.396,-385.2142 261.396,-385.2142"/>
<ellipse fill="none" stroke="#000000" cx="258.3544" cy="-384.2198" rx="3.2" ry="3.2"/>
</g>
</g>
</svg>
