<?xml version="1.0" encoding="UTF-8" standalone="no"?>
<!DOCTYPE svg PUBLIC "-//W3C//DTD SVG 1.1//EN"
 "http://www.w3.org/Graphics/SVG/1.1/DTD/svg11.dtd">
<!-- Generated by graphviz version 2.40.1 (20161225.0304)
 -->
<!-- Title: oneDegreeRelationshipsDiagramImplied Pages: 1 -->
<svg width="488pt" height="202pt"
 viewBox="0.00 0.00 488.00 202.20" xmlns="http://www.w3.org/2000/svg" xmlns:xlink="http://www.w3.org/1999/xlink">
<g id="graph0" class="graph" transform="scale(1 1) rotate(0) translate(4 198.2)">
<title>oneDegreeRelationshipsDiagramImplied</title>
<polygon fill="#ffffff" stroke="transparent" points="-4,4 -4,-198.2 484,-198.2 484,4 -4,4"/>
<text text-anchor="middle" x="72.4936" y="-7.3" font-family="Helvetica,sans-Serif" font-size="11.00" fill="#000000">Generated by SchemaSpy</text>
<!-- V_CONTACT_ES -->
<g id="node1" class="node">
<title>V_CONTACT_ES</title>
<g id="a_node1"><a xlink:href="../../tables/V_CONTACT_ES.html" xlink:title="V_CONTACT_ES" target="_top">
<polygon fill="#ffffff" stroke="transparent" points="264,-38.2 264,-190.2 472,-190.2 472,-38.2 264,-38.2"/>
<polygon fill="#f5f5f5" stroke="transparent" points="264,-167.2 264,-190.2 472,-190.2 472,-167.2 264,-167.2"/>
<polygon fill="none" stroke="#000000" points="264,-167.2 264,-190.2 472,-190.2 472,-167.2 264,-167.2"/>
<text text-anchor="start" x="269" y="-176.3" font-family="Helvetica,sans-Serif" font-weight="bold" font-size="11.00" fill="#000000">V_CONTACT_ES</text>
<text text-anchor="start" x="438.8895" y="-175.3" font-family="Helvetica,sans-Serif" font-size="11.00" fill="#000000">[view]</text>
<polygon fill="none" stroke="#000000" points="264,-145.2 264,-167.2 472,-167.2 472,-145.2 264,-145.2"/>
<image xlink:href="../../images/foreignKeys.png" width="11px" height="12px" preserveAspectRatio="xMinYMin meet" x="269" y="-162.2"/>
<text text-anchor="start" x="284" y="-152.3" font-family="Helvetica,sans-Serif" font-size="11.00" fill="#000000">OFFENDER_ID</text>
<polygon fill="none" stroke="#000000" points="264,-123.2 264,-145.2 472,-145.2 472,-123.2 264,-123.2"/>
<image xlink:href="../../images/foreignKeys.png" width="11px" height="12px" preserveAspectRatio="xMinYMin meet" x="269" y="-140.2"/>
<text text-anchor="start" x="284" y="-130.3" font-family="Helvetica,sans-Serif" font-size="11.00" fill="#000000">CONTACT_ID</text>
<polygon fill="none" stroke="#000000" points="264,-101.2 264,-123.2 472,-123.2 472,-101.2 264,-101.2"/>
<image xlink:href="../../images/foreignKeys.png" width="11px" height="12px" preserveAspectRatio="xMinYMin meet" x="269" y="-118.2"/>
<text text-anchor="start" x="284" y="-108.3" font-family="Helvetica,sans-Serif" font-size="11.00" fill="#000000">EVENT_ID</text>
<polygon fill="none" stroke="#000000" points="264,-79.2 264,-101.2 472,-101.2 472,-79.2 264,-79.2"/>
<image xlink:href="../../images/foreignKeys.png" width="11px" height="12px" preserveAspectRatio="xMinYMin meet" x="269" y="-96.2"/>
<text text-anchor="start" x="284" y="-86.3" font-family="Helvetica,sans-Serif" font-size="11.00" fill="#000000">RQMNT_ID</text>
<polygon fill="none" stroke="#000000" points="264,-57.2 264,-79.2 472,-79.2 472,-57.2 264,-57.2"/>
<image xlink:href="../../images/foreignKeys.png" width="11px" height="12px" preserveAspectRatio="xMinYMin meet" x="269" y="-74.2"/>
<text text-anchor="start" x="284" y="-64.3" font-family="Helvetica,sans-Serif" font-size="11.00" fill="#000000">LIC_CONDITION_ID</text>
<polygon fill="none" stroke="#000000" points="264,-38.2 264,-57.2 472,-57.2 472,-38.2 264,-38.2"/>
<text text-anchor="start" x="267" y="-44.3" font-family="Helvetica,sans-Serif" font-size="11.00" fill="#000000">...</text>
</a>
</g>
</g>
<!-- IAPS_CONTACT -->
<g id="node2" class="node">
<title>IAPS_CONTACT</title>
<g id="a_node2"><a xlink:href="../../tables/IAPS_CONTACT.html" xlink:title="IAPS_CONTACT" target="_top">
<polygon fill="#ffffff" stroke="transparent" points="8,-58.2 8,-170.2 215,-170.2 215,-58.2 8,-58.2"/>
<polygon fill="#f5f5f5" stroke="transparent" points="10.5,-145.2 10.5,-168.2 213.5,-168.2 213.5,-145.2 10.5,-145.2"/>
<polygon fill="none" stroke="#000000" points="10.5,-145.2 10.5,-168.2 213.5,-168.2 213.5,-145.2 10.5,-145.2"/>
<text text-anchor="start" x="15.5" y="-154.3" font-family="Helvetica,sans-Serif" font-weight="bold" font-size="11.00" fill="#000000">IAPS_CONTACT</text>
<text text-anchor="start" x="178.5437" y="-153.3" font-family="Helvetica,sans-Serif" font-size="11.00" fill="#000000">[table]</text>
<polygon fill="none" stroke="#000000" points="10.5,-123.2 10.5,-145.2 152.5,-145.2 152.5,-123.2 10.5,-123.2"/>
<image xlink:href="../../images/primaryKeys.png" width="11px" height="12px" preserveAspectRatio="xMinYMin meet" x="15.5" y="-140.2"/>
<text text-anchor="start" x="30.5" y="-130.3" font-family="Helvetica,sans-Serif" font-size="11.00" fill="#000000">CONTACT_ID</text>
<polygon fill="none" stroke="#000000" points="152.5,-123.2 152.5,-145.2 213.5,-145.2 213.5,-123.2 152.5,-123.2"/>
<text text-anchor="start" x="155.1865" y="-130.9" font-family="Helvetica,sans-Serif" font-size="11.00" fill="#000000">number[38]</text>
<polygon fill="none" stroke="#000000" points="10.5,-101.2 10.5,-123.2 152.5,-123.2 152.5,-101.2 10.5,-101.2"/>
<text text-anchor="start" x="30.5" y="-108.3" font-family="Helvetica,sans-Serif" font-size="11.00" fill="#000000">IAPS_FLAG</text>
<polygon fill="none" stroke="#000000" points="152.5,-101.2 152.5,-123.2 213.5,-123.2 213.5,-101.2 152.5,-101.2"/>
<text text-anchor="start" x="155.1865" y="-108.9" font-family="Helvetica,sans-Serif" font-size="11.00" fill="#000000">number[38]</text>
<polygon fill="none" stroke="#000000" points="10.5,-79.2 10.5,-101.2 152.5,-101.2 152.5,-79.2 10.5,-79.2"/>
<text text-anchor="start" x="26.6624" y="-86.3" font-family="Helvetica,sans-Serif" font-size="11.00" fill="#000000">TRAINING_SESSION_ID</text>
<polygon fill="none" stroke="#000000" points="152.5,-79.2 152.5,-101.2 213.5,-101.2 213.5,-79.2 152.5,-79.2"/>
<text text-anchor="start" x="155.1865" y="-86.9" font-family="Helvetica,sans-Serif" font-size="11.00" fill="#000000">number[38]</text>
<polygon fill="#ffffff" stroke="transparent" points="10.5,-60.2 10.5,-79.2 75.5,-79.2 75.5,-60.2 10.5,-60.2"/>
<polygon fill="none" stroke="#000000" points="10.5,-60.2 10.5,-79.2 75.5,-79.2 75.5,-60.2 10.5,-60.2"/>
<text text-anchor="start" x="13.5" y="-66.3" font-family="Helvetica,sans-Serif" font-size="11.00" fill="#000000">&lt; 0</text>
<polygon fill="#ffffff" stroke="transparent" points="75.5,-60.2 75.5,-79.2 152.5,-79.2 152.5,-60.2 75.5,-60.2"/>
<polygon fill="none" stroke="#000000" points="75.5,-60.2 75.5,-79.2 152.5,-79.2 152.5,-60.2 75.5,-60.2"/>
<text text-anchor="start" x="122.6105" y="-66.3" font-family="Helvetica,sans-Serif" font-size="11.00" fill="#000000">1 row</text>
<polygon fill="#ffffff" stroke="transparent" points="152.5,-60.2 152.5,-79.2 213.5,-79.2 213.5,-60.2 152.5,-60.2"/>
<polygon fill="none" stroke="#000000" points="152.5,-60.2 152.5,-79.2 213.5,-79.2 213.5,-60.2 152.5,-60.2"/>
<text text-anchor="start" x="194.9053" y="-66.3" font-family="Helvetica,sans-Serif" font-size="11.00" fill="#000000">1 &gt;</text>
<polygon fill="none" stroke="#000000" stroke-width="2" points="9,-59.2 9,-169.2 214,-169.2 214,-59.2 9,-59.2"/>
</a>
</g>
</g>
<!-- V_CONTACT_ES&#45;&gt;IAPS_CONTACT -->
<g id="edge1" class="edge">
<title>V_CONTACT_ES:w&#45;&gt;IAPS_CONTACT:e</title>
<path fill="none" stroke="#000000" stroke-dasharray="5,2" d="M249.4203,-134.2C237.5435,-134.2 230.158,-134.2 213.5,-134.2"/>
<polygon fill="#000000" stroke="#000000" points="256,-134.2001 264,-137.8 260,-134.2 264,-134.2 264,-134.2 264,-134.2 260,-134.2 264,-130.6 256,-134.2001 256,-134.2001"/>
<ellipse fill="none" stroke="#000000" cx="252.8" cy="-134.2001" rx="3.2" ry="3.2"/>
</g>
</g>
</svg>
