<?xml version="1.0" encoding="UTF-8" standalone="no"?>
<!DOCTYPE svg PUBLIC "-//W3C//DTD SVG 1.1//EN"
 "http://www.w3.org/Graphics/SVG/1.1/DTD/svg11.dtd">
<!-- Generated by graphviz version 2.40.1 (20161225.0304)
 -->
<!-- Title: oneDegreeRelationshipsDiagramImplied Pages: 1 -->
<svg width="505pt" height="565pt"
 viewBox="0.00 0.00 505.00 565.20" xmlns="http://www.w3.org/2000/svg" xmlns:xlink="http://www.w3.org/1999/xlink">
<g id="graph0" class="graph" transform="scale(1 1) rotate(0) translate(4 561.2)">
<title>oneDegreeRelationshipsDiagramImplied</title>
<polygon fill="#ffffff" stroke="transparent" points="-4,4 -4,-561.2 501,-561.2 501,4 -4,4"/>
<text text-anchor="middle" x="72.4936" y="-7.3" font-family="Helvetica,sans-Serif" font-size="11.00" fill="#000000">Generated by SchemaSpy</text>
<!-- DMS_OFFENDER_COHORT -->
<g id="node1" class="node">
<title>DMS_OFFENDER_COHORT</title>
<g id="a_node1"><a xlink:href="../../tables/DMS_OFFENDER_COHORT.html" xlink:title="DMS_OFFENDER_COHORT" target="_top">
<polygon fill="#ffffff" stroke="transparent" points="283.5,-489.2 283.5,-553.2 469.5,-553.2 469.5,-489.2 283.5,-489.2"/>
<polygon fill="#f5f5f5" stroke="transparent" points="283.5,-530.2 283.5,-553.2 469.5,-553.2 469.5,-530.2 283.5,-530.2"/>
<polygon fill="none" stroke="#000000" points="283.5,-530.2 283.5,-553.2 469.5,-553.2 469.5,-530.2 283.5,-530.2"/>
<text text-anchor="start" x="288.092" y="-539.3" font-family="Helvetica,sans-Serif" font-weight="bold" font-size="11.00" fill="#000000">DMS_OFFENDER_COHORT</text>
<text text-anchor="start" x="436.4448" y="-538.3" font-family="Helvetica,sans-Serif" font-size="11.00" fill="#000000">[view]</text>
<polygon fill="none" stroke="#000000" points="283.5,-508.2 283.5,-530.2 469.5,-530.2 469.5,-508.2 283.5,-508.2"/>
<image xlink:href="../../images/foreignKeys.png" width="11px" height="12px" preserveAspectRatio="xMinYMin meet" x="288.5" y="-525.2"/>
<text text-anchor="start" x="317.5" y="-515.3" font-family="Helvetica,sans-Serif" font-size="11.00" fill="#000000">OFFENDER_ID</text>
<polygon fill="none" stroke="#000000" points="283.5,-489.2 283.5,-508.2 469.5,-508.2 469.5,-489.2 283.5,-489.2"/>
<text text-anchor="start" x="286.5" y="-495.3" font-family="Helvetica,sans-Serif" font-size="11.00" fill="#000000">...</text>
</a>
</g>
</g>
<!-- IAPS_OFFENDER -->
<g id="node2" class="node">
<title>IAPS_OFFENDER</title>
<g id="a_node2"><a xlink:href="../../tables/IAPS_OFFENDER.html" xlink:title="IAPS_OFFENDER" target="_top">
<polygon fill="#ffffff" stroke="transparent" points="8,-261.2 8,-373.2 215,-373.2 215,-261.2 8,-261.2"/>
<polygon fill="#f5f5f5" stroke="transparent" points="10.5,-348.2 10.5,-371.2 213.5,-371.2 213.5,-348.2 10.5,-348.2"/>
<polygon fill="none" stroke="#000000" points="10.5,-348.2 10.5,-371.2 213.5,-371.2 213.5,-348.2 10.5,-348.2"/>
<text text-anchor="start" x="15.5" y="-357.3" font-family="Helvetica,sans-Serif" font-weight="bold" font-size="11.00" fill="#000000">IAPS_OFFENDER</text>
<text text-anchor="start" x="178.5437" y="-356.3" font-family="Helvetica,sans-Serif" font-size="11.00" fill="#000000">[table]</text>
<polygon fill="none" stroke="#000000" points="10.5,-326.2 10.5,-348.2 152.5,-348.2 152.5,-326.2 10.5,-326.2"/>
<image xlink:href="../../images/primaryKeys.png" width="11px" height="12px" preserveAspectRatio="xMinYMin meet" x="15.5" y="-343.2"/>
<text text-anchor="start" x="30.5" y="-333.3" font-family="Helvetica,sans-Serif" font-size="11.00" fill="#000000">OFFENDER_ID</text>
<polygon fill="none" stroke="#000000" points="152.5,-326.2 152.5,-348.2 213.5,-348.2 213.5,-326.2 152.5,-326.2"/>
<text text-anchor="start" x="155.1865" y="-333.9" font-family="Helvetica,sans-Serif" font-size="11.00" fill="#000000">number[38]</text>
<polygon fill="none" stroke="#000000" points="10.5,-304.2 10.5,-326.2 152.5,-326.2 152.5,-304.2 10.5,-304.2"/>
<text text-anchor="start" x="30.5" y="-311.3" font-family="Helvetica,sans-Serif" font-size="11.00" fill="#000000">IAPS_FLAG</text>
<polygon fill="none" stroke="#000000" points="152.5,-304.2 152.5,-326.2 213.5,-326.2 213.5,-304.2 152.5,-304.2"/>
<text text-anchor="start" x="155.1865" y="-311.9" font-family="Helvetica,sans-Serif" font-size="11.00" fill="#000000">number[38]</text>
<polygon fill="none" stroke="#000000" points="10.5,-282.2 10.5,-304.2 152.5,-304.2 152.5,-282.2 10.5,-282.2"/>
<text text-anchor="start" x="26.6624" y="-289.3" font-family="Helvetica,sans-Serif" font-size="11.00" fill="#000000">TRAINING_SESSION_ID</text>
<polygon fill="none" stroke="#000000" points="152.5,-282.2 152.5,-304.2 213.5,-304.2 213.5,-282.2 152.5,-282.2"/>
<text text-anchor="start" x="155.1865" y="-289.9" font-family="Helvetica,sans-Serif" font-size="11.00" fill="#000000">number[38]</text>
<polygon fill="#ffffff" stroke="transparent" points="10.5,-263.2 10.5,-282.2 66.5,-282.2 66.5,-263.2 10.5,-263.2"/>
<polygon fill="none" stroke="#000000" points="10.5,-263.2 10.5,-282.2 66.5,-282.2 66.5,-263.2 10.5,-263.2"/>
<text text-anchor="start" x="13.5" y="-269.3" font-family="Helvetica,sans-Serif" font-size="11.00" fill="#000000">&lt; 0</text>
<polygon fill="#ffffff" stroke="transparent" points="66.5,-263.2 66.5,-282.2 152.5,-282.2 152.5,-263.2 66.5,-263.2"/>
<polygon fill="none" stroke="#000000" points="66.5,-263.2 66.5,-282.2 152.5,-282.2 152.5,-263.2 66.5,-263.2"/>
<text text-anchor="start" x="104.8807" y="-269.3" font-family="Helvetica,sans-Serif" font-size="11.00" fill="#000000">388 rows</text>
<polygon fill="#ffffff" stroke="transparent" points="152.5,-263.2 152.5,-282.2 213.5,-282.2 213.5,-263.2 152.5,-263.2"/>
<polygon fill="none" stroke="#000000" points="152.5,-263.2 152.5,-282.2 213.5,-282.2 213.5,-263.2 152.5,-263.2"/>
<text text-anchor="start" x="194.9053" y="-269.3" font-family="Helvetica,sans-Serif" font-size="11.00" fill="#000000">4 &gt;</text>
<polygon fill="none" stroke="#000000" stroke-width="2" points="9,-262.2 9,-372.2 214,-372.2 214,-262.2 9,-262.2"/>
</a>
</g>
</g>
<!-- DMS_OFFENDER_COHORT&#45;&gt;IAPS_OFFENDER -->
<g id="edge1" class="edge">
<title>DMS_OFFENDER_COHORT:w&#45;&gt;IAPS_OFFENDER:e</title>
<path fill="none" stroke="#000000" stroke-dasharray="5,2" d="M269.0085,-517.0293C209.3652,-496.4951 294.5797,-337.2 213.5,-337.2"/>
<polygon fill="#000000" stroke="#000000" points="275.5883,-518.0148 282.9667,-522.7603 279.5441,-518.6074 283.5,-519.2 283.5,-519.2 283.5,-519.2 279.5441,-518.6074 284.0333,-515.6397 275.5883,-518.0148 275.5883,-518.0148"/>
<ellipse fill="none" stroke="#000000" cx="272.4236" cy="-517.5408" rx="3.2" ry="3.2"/>
</g>
<!-- PRECON_HISTORY -->
<g id="node3" class="node">
<title>PRECON_HISTORY</title>
<g id="a_node3"><a xlink:href="../../tables/PRECON_HISTORY.html" xlink:title="PRECON_HISTORY" target="_top">
<polygon fill="#ffffff" stroke="transparent" points="264,-318.7 264,-467.7 489,-467.7 489,-318.7 264,-318.7"/>
<polygon fill="#f5f5f5" stroke="transparent" points="264.5,-444.2 264.5,-467.2 489.5,-467.2 489.5,-444.2 264.5,-444.2"/>
<polygon fill="none" stroke="#000000" points="264.5,-444.2 264.5,-467.2 489.5,-467.2 489.5,-444.2 264.5,-444.2"/>
<text text-anchor="start" x="269.5" y="-453.3" font-family="Helvetica,sans-Serif" font-weight="bold" font-size="11.00" fill="#000000">PRECON_HISTORY</text>
<text text-anchor="start" x="454.5437" y="-452.3" font-family="Helvetica,sans-Serif" font-size="11.00" fill="#000000">[table]</text>
<polygon fill="none" stroke="#000000" points="264.5,-422.2 264.5,-444.2 489.5,-444.2 489.5,-422.2 264.5,-422.2"/>
<image xlink:href="../../images/primaryKeys.png" width="11px" height="12px" preserveAspectRatio="xMinYMin meet" x="269.5" y="-439.2"/>
<text text-anchor="start" x="284.5" y="-429.3" font-family="Helvetica,sans-Serif" font-size="11.00" fill="#000000">PRECON_HISTORY_ID</text>
<polygon fill="none" stroke="#000000" points="264.5,-400.2 264.5,-422.2 489.5,-422.2 489.5,-400.2 264.5,-400.2"/>
<image xlink:href="../../images/foreignKeys.png" width="11px" height="12px" preserveAspectRatio="xMinYMin meet" x="269.5" y="-417.2"/>
<text text-anchor="start" x="284.5" y="-407.3" font-family="Helvetica,sans-Serif" font-size="11.00" fill="#000000">TRASH_DOC_OFFENDER_ID</text>
<polygon fill="none" stroke="#000000" points="264.5,-378.2 264.5,-400.2 489.5,-400.2 489.5,-378.2 264.5,-378.2"/>
<image xlink:href="../../images/primaryKeys.png" width="11px" height="12px" preserveAspectRatio="xMinYMin meet" x="269.5" y="-395.2"/>
<text text-anchor="start" x="280.918" y="-385.3" font-family="Helvetica,sans-Serif" font-size="11.00" fill="#000000">TRASH_DOC_CREATED_PROVIDER_ID</text>
<polygon fill="none" stroke="#000000" points="264.5,-356.2 264.5,-378.2 489.5,-378.2 489.5,-356.2 264.5,-356.2"/>
<image xlink:href="../../images/primaryKeys.png" width="11px" height="12px" preserveAspectRatio="xMinYMin meet" x="269.5" y="-373.2"/>
<text text-anchor="start" x="278.7735" y="-363.3" font-family="Helvetica,sans-Serif" font-size="11.00" fill="#000000">TRASH_DOC_LAST_UPD_PROVIDER_ID</text>
<polygon fill="none" stroke="#000000" points="264.5,-337.2 264.5,-356.2 489.5,-356.2 489.5,-337.2 264.5,-337.2"/>
<text text-anchor="start" x="267.5" y="-343.3" font-family="Helvetica,sans-Serif" font-size="11.00" fill="#000000">...</text>
<polygon fill="#ffffff" stroke="transparent" points="264.5,-318.2 264.5,-337.2 356.5,-337.2 356.5,-318.2 264.5,-318.2"/>
<polygon fill="none" stroke="#000000" points="264.5,-318.2 264.5,-337.2 356.5,-337.2 356.5,-318.2 264.5,-318.2"/>
<text text-anchor="start" x="267.5" y="-324.3" font-family="Helvetica,sans-Serif" font-size="11.00" fill="#000000">&lt; 3</text>
<polygon fill="#ffffff" stroke="transparent" points="356.5,-318.2 356.5,-337.2 441.5,-337.2 441.5,-318.2 356.5,-318.2"/>
<polygon fill="none" stroke="#000000" points="356.5,-318.2 356.5,-337.2 441.5,-337.2 441.5,-318.2 356.5,-318.2"/>
<text text-anchor="start" x="393.8807" y="-324.3" font-family="Helvetica,sans-Serif" font-size="11.00" fill="#000000">267 rows</text>
<polygon fill="#ffffff" stroke="transparent" points="441.5,-318.2 441.5,-337.2 489.5,-337.2 489.5,-318.2 441.5,-318.2"/>
<polygon fill="none" stroke="#000000" points="441.5,-318.2 441.5,-337.2 489.5,-337.2 489.5,-318.2 441.5,-318.2"/>
<text text-anchor="start" x="480.3862" y="-324.3" font-family="Helvetica,sans-Serif" font-size="11.00" fill="#000000"> &#160;</text>
</a>
</g>
</g>
<!-- PRECON_HISTORY&#45;&gt;IAPS_OFFENDER -->
<g id="edge2" class="edge">
<title>PRECON_HISTORY:w&#45;&gt;IAPS_OFFENDER:e</title>
<path fill="none" stroke="#000000" stroke-dasharray="5,2" d="M250.5503,-406.571C231.7607,-390.3706 247.3581,-337.2 213.5,-337.2"/>
<polygon fill="#000000" stroke="#000000" points="256.9071,-408.6804 263.3662,-414.6168 260.7036,-409.9402 264.5,-411.2 264.5,-411.2 264.5,-411.2 260.7036,-409.9402 265.6338,-407.7832 256.9071,-408.6804 256.9071,-408.6804"/>
<ellipse fill="none" stroke="#000000" cx="253.87" cy="-407.6725" rx="3.2" ry="3.2"/>
</g>
<!-- SPG_DOCUMENT -->
<g id="node4" class="node">
<title>SPG_DOCUMENT</title>
<g id="a_node4"><a xlink:href="../../tables/SPG_DOCUMENT.html" xlink:title="SPG_DOCUMENT" target="_top">
<polygon fill="#ffffff" stroke="transparent" points="275.5,-211.2 275.5,-297.2 477.5,-297.2 477.5,-211.2 275.5,-211.2"/>
<polygon fill="#f5f5f5" stroke="transparent" points="275.5,-274.2 275.5,-297.2 477.5,-297.2 477.5,-274.2 275.5,-274.2"/>
<polygon fill="none" stroke="#000000" points="275.5,-274.2 275.5,-297.2 477.5,-297.2 477.5,-274.2 275.5,-274.2"/>
<text text-anchor="start" x="280.5" y="-283.3" font-family="Helvetica,sans-Serif" font-weight="bold" font-size="11.00" fill="#000000">SPG_DOCUMENT</text>
<text text-anchor="start" x="444.3895" y="-282.3" font-family="Helvetica,sans-Serif" font-size="11.00" fill="#000000">[view]</text>
<polygon fill="none" stroke="#000000" points="275.5,-252.2 275.5,-274.2 477.5,-274.2 477.5,-252.2 275.5,-252.2"/>
<image xlink:href="../../images/foreignKeys.png" width="11px" height="12px" preserveAspectRatio="xMinYMin meet" x="280.5" y="-269.2"/>
<text text-anchor="start" x="295.5" y="-259.3" font-family="Helvetica,sans-Serif" font-size="11.00" fill="#000000">OFFENDER_ID</text>
<polygon fill="none" stroke="#000000" points="275.5,-230.2 275.5,-252.2 477.5,-252.2 477.5,-230.2 275.5,-230.2"/>
<image xlink:href="../../images/foreignKeys.png" width="11px" height="12px" preserveAspectRatio="xMinYMin meet" x="280.5" y="-247.2"/>
<text text-anchor="start" x="295.5" y="-237.3" font-family="Helvetica,sans-Serif" font-size="11.00" fill="#000000">SOURCE_TABLE_KEY</text>
<polygon fill="none" stroke="#000000" points="275.5,-211.2 275.5,-230.2 477.5,-230.2 477.5,-211.2 275.5,-211.2"/>
<text text-anchor="start" x="278.5" y="-217.3" font-family="Helvetica,sans-Serif" font-size="11.00" fill="#000000">...</text>
</a>
</g>
</g>
<!-- SPG_DOCUMENT&#45;&gt;IAPS_OFFENDER -->
<g id="edge3" class="edge">
<title>SPG_DOCUMENT:w&#45;&gt;IAPS_OFFENDER:e</title>
<path fill="none" stroke="#000000" stroke-dasharray="5,2" d="M261.3019,-266.9714C237.8576,-282.0512 250.5406,-337.2 213.5,-337.2"/>
<polygon fill="#000000" stroke="#000000" points="267.7681,-265.2538 276.4242,-266.6793 271.6341,-264.2269 275.5,-263.2 275.5,-263.2 275.5,-263.2 271.6341,-264.2269 274.5758,-259.7207 267.7681,-265.2538 267.7681,-265.2538"/>
<ellipse fill="none" stroke="#000000" cx="264.6754" cy="-266.0754" rx="3.2" ry="3.2"/>
</g>
<!-- V_CONTACT_ES -->
<g id="node5" class="node">
<title>V_CONTACT_ES</title>
<g id="a_node5"><a xlink:href="../../tables/V_CONTACT_ES.html" xlink:title="V_CONTACT_ES" target="_top">
<polygon fill="#ffffff" stroke="transparent" points="272.5,-38.2 272.5,-190.2 480.5,-190.2 480.5,-38.2 272.5,-38.2"/>
<polygon fill="#f5f5f5" stroke="transparent" points="272.5,-167.2 272.5,-190.2 480.5,-190.2 480.5,-167.2 272.5,-167.2"/>
<polygon fill="none" stroke="#000000" points="272.5,-167.2 272.5,-190.2 480.5,-190.2 480.5,-167.2 272.5,-167.2"/>
<text text-anchor="start" x="277.5" y="-176.3" font-family="Helvetica,sans-Serif" font-weight="bold" font-size="11.00" fill="#000000">V_CONTACT_ES</text>
<text text-anchor="start" x="447.3895" y="-175.3" font-family="Helvetica,sans-Serif" font-size="11.00" fill="#000000">[view]</text>
<polygon fill="none" stroke="#000000" points="272.5,-145.2 272.5,-167.2 480.5,-167.2 480.5,-145.2 272.5,-145.2"/>
<image xlink:href="../../images/foreignKeys.png" width="11px" height="12px" preserveAspectRatio="xMinYMin meet" x="277.5" y="-162.2"/>
<text text-anchor="start" x="292.5" y="-152.3" font-family="Helvetica,sans-Serif" font-size="11.00" fill="#000000">OFFENDER_ID</text>
<polygon fill="none" stroke="#000000" points="272.5,-123.2 272.5,-145.2 480.5,-145.2 480.5,-123.2 272.5,-123.2"/>
<image xlink:href="../../images/foreignKeys.png" width="11px" height="12px" preserveAspectRatio="xMinYMin meet" x="277.5" y="-140.2"/>
<text text-anchor="start" x="292.5" y="-130.3" font-family="Helvetica,sans-Serif" font-size="11.00" fill="#000000">CONTACT_ID</text>
<polygon fill="none" stroke="#000000" points="272.5,-101.2 272.5,-123.2 480.5,-123.2 480.5,-101.2 272.5,-101.2"/>
<image xlink:href="../../images/foreignKeys.png" width="11px" height="12px" preserveAspectRatio="xMinYMin meet" x="277.5" y="-118.2"/>
<text text-anchor="start" x="292.5" y="-108.3" font-family="Helvetica,sans-Serif" font-size="11.00" fill="#000000">EVENT_ID</text>
<polygon fill="none" stroke="#000000" points="272.5,-79.2 272.5,-101.2 480.5,-101.2 480.5,-79.2 272.5,-79.2"/>
<image xlink:href="../../images/foreignKeys.png" width="11px" height="12px" preserveAspectRatio="xMinYMin meet" x="277.5" y="-96.2"/>
<text text-anchor="start" x="292.5" y="-86.3" font-family="Helvetica,sans-Serif" font-size="11.00" fill="#000000">RQMNT_ID</text>
<polygon fill="none" stroke="#000000" points="272.5,-57.2 272.5,-79.2 480.5,-79.2 480.5,-57.2 272.5,-57.2"/>
<image xlink:href="../../images/foreignKeys.png" width="11px" height="12px" preserveAspectRatio="xMinYMin meet" x="277.5" y="-74.2"/>
<text text-anchor="start" x="292.5" y="-64.3" font-family="Helvetica,sans-Serif" font-size="11.00" fill="#000000">LIC_CONDITION_ID</text>
<polygon fill="none" stroke="#000000" points="272.5,-38.2 272.5,-57.2 480.5,-57.2 480.5,-38.2 272.5,-38.2"/>
<text text-anchor="start" x="275.5" y="-44.3" font-family="Helvetica,sans-Serif" font-size="11.00" fill="#000000">...</text>
</a>
</g>
</g>
<!-- V_CONTACT_ES&#45;&gt;IAPS_OFFENDER -->
<g id="edge4" class="edge">
<title>V_CONTACT_ES:w&#45;&gt;IAPS_OFFENDER:e</title>
<path fill="none" stroke="#000000" stroke-dasharray="5,2" d="M258.1074,-158.4885C201.6692,-179.4409 292.4917,-337.2 213.5,-337.2"/>
<polygon fill="#000000" stroke="#000000" points="264.5993,-157.4563 273.0653,-159.7553 268.5496,-156.8282 272.5,-156.2 272.5,-156.2 272.5,-156.2 268.5496,-156.8282 271.9347,-152.6447 264.5993,-157.4563 264.5993,-157.4563"/>
<ellipse fill="none" stroke="#000000" cx="261.439" cy="-157.9588" rx="3.2" ry="3.2"/>
</g>
</g>
</svg>
