<?xml version="1.0" encoding="UTF-8" standalone="no"?>
<!DOCTYPE svg PUBLIC "-//W3C//DTD SVG 1.1//EN"
 "http://www.w3.org/Graphics/SVG/1.1/DTD/svg11.dtd">
<!-- Generated by graphviz version 2.40.1 (20161225.0304)
 -->
<!-- Title: twoDegreesRelationshipsDiagramImplied Pages: 1 -->
<svg width="505pt" height="584pt"
 viewBox="0.00 0.00 505.00 583.70" xmlns="http://www.w3.org/2000/svg" xmlns:xlink="http://www.w3.org/1999/xlink">
<g id="graph0" class="graph" transform="scale(1 1) rotate(0) translate(4 579.7)">
<title>twoDegreesRelationshipsDiagramImplied</title>
<polygon fill="#ffffff" stroke="transparent" points="-4,4 -4,-579.7 501,-579.7 501,4 -4,4"/>
<text text-anchor="middle" x="72.4936" y="-7.3" font-family="Helvetica,sans-Serif" font-size="11.00" fill="#000000">Generated by SchemaSpy</text>
<!-- DMS_OFFENDER_COHORT -->
<g id="node1" class="node">
<title>DMS_OFFENDER_COHORT</title>
<g id="a_node1"><a xlink:href="../../tables/DMS_OFFENDER_COHORT.html" xlink:title="DMS_OFFENDER_COHORT" target="_top">
<polygon fill="#ffffff" stroke="transparent" points="283.5,-507.7 283.5,-571.7 469.5,-571.7 469.5,-507.7 283.5,-507.7"/>
<polygon fill="#f5f5f5" stroke="transparent" points="283.5,-548.7 283.5,-571.7 469.5,-571.7 469.5,-548.7 283.5,-548.7"/>
<polygon fill="none" stroke="#000000" points="283.5,-548.7 283.5,-571.7 469.5,-571.7 469.5,-548.7 283.5,-548.7"/>
<text text-anchor="start" x="288.092" y="-557.8" font-family="Helvetica,sans-Serif" font-weight="bold" font-size="11.00" fill="#000000">DMS_OFFENDER_COHORT</text>
<text text-anchor="start" x="436.4448" y="-556.8" font-family="Helvetica,sans-Serif" font-size="11.00" fill="#000000">[view]</text>
<polygon fill="none" stroke="#000000" points="283.5,-526.7 283.5,-548.7 469.5,-548.7 469.5,-526.7 283.5,-526.7"/>
<image xlink:href="../../images/foreignKeys.png" width="11px" height="12px" preserveAspectRatio="xMinYMin meet" x="288.5" y="-543.7"/>
<text text-anchor="start" x="317.5" y="-533.8" font-family="Helvetica,sans-Serif" font-size="11.00" fill="#000000">OFFENDER_ID</text>
<polygon fill="none" stroke="#000000" points="283.5,-507.7 283.5,-526.7 469.5,-526.7 469.5,-507.7 283.5,-507.7"/>
<text text-anchor="start" x="286.5" y="-513.8" font-family="Helvetica,sans-Serif" font-size="11.00" fill="#000000">...</text>
</a>
</g>
</g>
<!-- IAPS_OFFENDER -->
<g id="node2" class="node">
<title>IAPS_OFFENDER</title>
<g id="a_node2"><a xlink:href="../../tables/IAPS_OFFENDER.html" xlink:title="IAPS_OFFENDER" target="_top">
<polygon fill="#ffffff" stroke="transparent" points="8,-448.7 8,-560.7 215,-560.7 215,-448.7 8,-448.7"/>
<polygon fill="#f5f5f5" stroke="transparent" points="10.5,-535.7 10.5,-558.7 213.5,-558.7 213.5,-535.7 10.5,-535.7"/>
<polygon fill="none" stroke="#000000" points="10.5,-535.7 10.5,-558.7 213.5,-558.7 213.5,-535.7 10.5,-535.7"/>
<text text-anchor="start" x="15.5" y="-544.8" font-family="Helvetica,sans-Serif" font-weight="bold" font-size="11.00" fill="#000000">IAPS_OFFENDER</text>
<text text-anchor="start" x="178.5437" y="-543.8" font-family="Helvetica,sans-Serif" font-size="11.00" fill="#000000">[table]</text>
<polygon fill="none" stroke="#000000" points="10.5,-513.7 10.5,-535.7 152.5,-535.7 152.5,-513.7 10.5,-513.7"/>
<image xlink:href="../../images/primaryKeys.png" width="11px" height="12px" preserveAspectRatio="xMinYMin meet" x="15.5" y="-530.7"/>
<text text-anchor="start" x="30.5" y="-520.8" font-family="Helvetica,sans-Serif" font-size="11.00" fill="#000000">OFFENDER_ID</text>
<polygon fill="none" stroke="#000000" points="152.5,-513.7 152.5,-535.7 213.5,-535.7 213.5,-513.7 152.5,-513.7"/>
<text text-anchor="start" x="155.1865" y="-521.4" font-family="Helvetica,sans-Serif" font-size="11.00" fill="#000000">number[38]</text>
<polygon fill="none" stroke="#000000" points="10.5,-491.7 10.5,-513.7 152.5,-513.7 152.5,-491.7 10.5,-491.7"/>
<text text-anchor="start" x="30.5" y="-498.8" font-family="Helvetica,sans-Serif" font-size="11.00" fill="#000000">IAPS_FLAG</text>
<polygon fill="none" stroke="#000000" points="152.5,-491.7 152.5,-513.7 213.5,-513.7 213.5,-491.7 152.5,-491.7"/>
<text text-anchor="start" x="155.1865" y="-499.4" font-family="Helvetica,sans-Serif" font-size="11.00" fill="#000000">number[38]</text>
<polygon fill="none" stroke="#000000" points="10.5,-469.7 10.5,-491.7 152.5,-491.7 152.5,-469.7 10.5,-469.7"/>
<text text-anchor="start" x="26.6624" y="-476.8" font-family="Helvetica,sans-Serif" font-size="11.00" fill="#000000">TRAINING_SESSION_ID</text>
<polygon fill="none" stroke="#000000" points="152.5,-469.7 152.5,-491.7 213.5,-491.7 213.5,-469.7 152.5,-469.7"/>
<text text-anchor="start" x="155.1865" y="-477.4" font-family="Helvetica,sans-Serif" font-size="11.00" fill="#000000">number[38]</text>
<polygon fill="#ffffff" stroke="transparent" points="10.5,-450.7 10.5,-469.7 66.5,-469.7 66.5,-450.7 10.5,-450.7"/>
<polygon fill="none" stroke="#000000" points="10.5,-450.7 10.5,-469.7 66.5,-469.7 66.5,-450.7 10.5,-450.7"/>
<text text-anchor="start" x="13.5" y="-456.8" font-family="Helvetica,sans-Serif" font-size="11.00" fill="#000000">&lt; 0</text>
<polygon fill="#ffffff" stroke="transparent" points="66.5,-450.7 66.5,-469.7 152.5,-469.7 152.5,-450.7 66.5,-450.7"/>
<polygon fill="none" stroke="#000000" points="66.5,-450.7 66.5,-469.7 152.5,-469.7 152.5,-450.7 66.5,-450.7"/>
<text text-anchor="start" x="104.8807" y="-456.8" font-family="Helvetica,sans-Serif" font-size="11.00" fill="#000000">388 rows</text>
<polygon fill="#ffffff" stroke="transparent" points="152.5,-450.7 152.5,-469.7 213.5,-469.7 213.5,-450.7 152.5,-450.7"/>
<polygon fill="none" stroke="#000000" points="152.5,-450.7 152.5,-469.7 213.5,-469.7 213.5,-450.7 152.5,-450.7"/>
<text text-anchor="start" x="194.9053" y="-456.8" font-family="Helvetica,sans-Serif" font-size="11.00" fill="#000000">3 &gt;</text>
<polygon fill="none" stroke="#000000" stroke-width="2" points="9,-449.7 9,-559.7 214,-559.7 214,-449.7 9,-449.7"/>
</a>
</g>
</g>
<!-- DMS_OFFENDER_COHORT&#45;&gt;IAPS_OFFENDER -->
<g id="edge1" class="edge">
<title>DMS_OFFENDER_COHORT:w&#45;&gt;IAPS_OFFENDER:e</title>
<path fill="none" stroke="#000000" stroke-dasharray="5,2" d="M268.8533,-536.6362C248.7263,-533.5314 239.5808,-524.7 213.5,-524.7"/>
<polygon fill="#000000" stroke="#000000" points="275.521,-537.1204 283.2392,-541.2905 279.5105,-537.4102 283.5,-537.7 283.5,-537.7 283.5,-537.7 279.5105,-537.4102 283.7608,-534.1095 275.521,-537.1204 275.521,-537.1204"/>
<ellipse fill="none" stroke="#000000" cx="272.3294" cy="-536.8886" rx="3.2" ry="3.2"/>
</g>
<!-- PRECON_HISTORY -->
<g id="node3" class="node">
<title>PRECON_HISTORY</title>
<g id="a_node3"><a xlink:href="../../tables/PRECON_HISTORY.html" xlink:title="PRECON_HISTORY" target="_top">
<polygon fill="#ffffff" stroke="transparent" points="264,-337.2 264,-486.2 489,-486.2 489,-337.2 264,-337.2"/>
<polygon fill="#f5f5f5" stroke="transparent" points="264.5,-462.7 264.5,-485.7 489.5,-485.7 489.5,-462.7 264.5,-462.7"/>
<polygon fill="none" stroke="#000000" points="264.5,-462.7 264.5,-485.7 489.5,-485.7 489.5,-462.7 264.5,-462.7"/>
<text text-anchor="start" x="269.5" y="-471.8" font-family="Helvetica,sans-Serif" font-weight="bold" font-size="11.00" fill="#000000">PRECON_HISTORY</text>
<text text-anchor="start" x="454.5437" y="-470.8" font-family="Helvetica,sans-Serif" font-size="11.00" fill="#000000">[table]</text>
<polygon fill="none" stroke="#000000" points="264.5,-440.7 264.5,-462.7 489.5,-462.7 489.5,-440.7 264.5,-440.7"/>
<image xlink:href="../../images/primaryKeys.png" width="11px" height="12px" preserveAspectRatio="xMinYMin meet" x="269.5" y="-457.7"/>
<text text-anchor="start" x="284.5" y="-447.8" font-family="Helvetica,sans-Serif" font-size="11.00" fill="#000000">PRECON_HISTORY_ID</text>
<polygon fill="none" stroke="#000000" points="264.5,-418.7 264.5,-440.7 489.5,-440.7 489.5,-418.7 264.5,-418.7"/>
<image xlink:href="../../images/foreignKeys.png" width="11px" height="12px" preserveAspectRatio="xMinYMin meet" x="269.5" y="-435.7"/>
<text text-anchor="start" x="284.5" y="-425.8" font-family="Helvetica,sans-Serif" font-size="11.00" fill="#000000">TRASH_DOC_OFFENDER_ID</text>
<polygon fill="none" stroke="#000000" points="264.5,-396.7 264.5,-418.7 489.5,-418.7 489.5,-396.7 264.5,-396.7"/>
<image xlink:href="../../images/primaryKeys.png" width="11px" height="12px" preserveAspectRatio="xMinYMin meet" x="269.5" y="-413.7"/>
<text text-anchor="start" x="280.918" y="-403.8" font-family="Helvetica,sans-Serif" font-size="11.00" fill="#000000">TRASH_DOC_CREATED_PROVIDER_ID</text>
<polygon fill="none" stroke="#000000" points="264.5,-374.7 264.5,-396.7 489.5,-396.7 489.5,-374.7 264.5,-374.7"/>
<image xlink:href="../../images/primaryKeys.png" width="11px" height="12px" preserveAspectRatio="xMinYMin meet" x="269.5" y="-391.7"/>
<text text-anchor="start" x="278.7735" y="-381.8" font-family="Helvetica,sans-Serif" font-size="11.00" fill="#000000">TRASH_DOC_LAST_UPD_PROVIDER_ID</text>
<polygon fill="none" stroke="#000000" points="264.5,-355.7 264.5,-374.7 489.5,-374.7 489.5,-355.7 264.5,-355.7"/>
<text text-anchor="start" x="267.5" y="-361.8" font-family="Helvetica,sans-Serif" font-size="11.00" fill="#000000">...</text>
<polygon fill="#ffffff" stroke="transparent" points="264.5,-336.7 264.5,-355.7 356.5,-355.7 356.5,-336.7 264.5,-336.7"/>
<polygon fill="none" stroke="#000000" points="264.5,-336.7 264.5,-355.7 356.5,-355.7 356.5,-336.7 264.5,-336.7"/>
<text text-anchor="start" x="267.5" y="-342.8" font-family="Helvetica,sans-Serif" font-size="11.00" fill="#000000">&lt; 3</text>
<polygon fill="#ffffff" stroke="transparent" points="356.5,-336.7 356.5,-355.7 441.5,-355.7 441.5,-336.7 356.5,-336.7"/>
<polygon fill="none" stroke="#000000" points="356.5,-336.7 356.5,-355.7 441.5,-355.7 441.5,-336.7 356.5,-336.7"/>
<text text-anchor="start" x="393.8807" y="-342.8" font-family="Helvetica,sans-Serif" font-size="11.00" fill="#000000">267 rows</text>
<polygon fill="#ffffff" stroke="transparent" points="441.5,-336.7 441.5,-355.7 489.5,-355.7 489.5,-336.7 441.5,-336.7"/>
<polygon fill="none" stroke="#000000" points="441.5,-336.7 441.5,-355.7 489.5,-355.7 489.5,-336.7 441.5,-336.7"/>
<text text-anchor="start" x="480.3862" y="-342.8" font-family="Helvetica,sans-Serif" font-size="11.00" fill="#000000"> &#160;</text>
</a>
</g>
</g>
<!-- PRECON_HISTORY&#45;&gt;IAPS_OFFENDER -->
<g id="edge4" class="edge">
<title>PRECON_HISTORY:w&#45;&gt;IAPS_OFFENDER:e</title>
<path fill="none" stroke="#000000" stroke-dasharray="5,2" d="M250.5154,-433.782C226.3397,-451.9656 255.4315,-524.7 213.5,-524.7"/>
<polygon fill="#000000" stroke="#000000" points="256.8205,-431.9416 265.5087,-433.1558 260.6602,-430.8208 264.5,-429.7 264.5,-429.7 264.5,-429.7 260.6602,-430.8208 263.4913,-426.2442 256.8205,-431.9416 256.8205,-431.9416"/>
<ellipse fill="none" stroke="#000000" cx="253.7487" cy="-432.8383" rx="3.2" ry="3.2"/>
</g>
<!-- PROBATION_AREA -->
<g id="node4" class="node">
<title>PROBATION_AREA</title>
<g id="a_node4"><a xlink:href="../../tables/PROBATION_AREA.html" xlink:title="PROBATION_AREA" target="_top">
<polygon fill="#ffffff" stroke="transparent" points="40,-366.2 40,-427.2 183,-427.2 183,-366.2 40,-366.2"/>
<polygon fill="#f5f5f5" stroke="transparent" points="40.5,-403.7 40.5,-426.7 183.5,-426.7 183.5,-403.7 40.5,-403.7"/>
<polygon fill="none" stroke="#000000" points="40.5,-403.7 40.5,-426.7 183.5,-426.7 183.5,-403.7 40.5,-403.7"/>
<text text-anchor="start" x="45.0782" y="-412.8" font-family="Helvetica,sans-Serif" font-weight="bold" font-size="11.00" fill="#000000">PROBATION_AREA</text>
<text text-anchor="start" x="149.0219" y="-411.8" font-family="Helvetica,sans-Serif" font-size="11.00" fill="#000000">[table]</text>
<polygon fill="none" stroke="#000000" points="40.5,-384.7 40.5,-403.7 183.5,-403.7 183.5,-384.7 40.5,-384.7"/>
<text text-anchor="start" x="43.5" y="-390.8" font-family="Helvetica,sans-Serif" font-size="11.00" fill="#000000">...</text>
<polygon fill="#ffffff" stroke="transparent" points="40.5,-365.7 40.5,-384.7 83.5,-384.7 83.5,-365.7 40.5,-365.7"/>
<polygon fill="none" stroke="#000000" points="40.5,-365.7 40.5,-384.7 83.5,-384.7 83.5,-365.7 40.5,-365.7"/>
<text text-anchor="start" x="43.5" y="-371.8" font-family="Helvetica,sans-Serif" font-size="11.00" fill="#000000">&lt; 8</text>
<polygon fill="#ffffff" stroke="transparent" points="83.5,-365.7 83.5,-384.7 144.5,-384.7 144.5,-365.7 83.5,-365.7"/>
<polygon fill="none" stroke="#000000" points="83.5,-365.7 83.5,-384.7 144.5,-384.7 144.5,-365.7 83.5,-365.7"/>
<text text-anchor="start" x="96.8807" y="-371.8" font-family="Helvetica,sans-Serif" font-size="11.00" fill="#000000">223 rows</text>
<polygon fill="#ffffff" stroke="transparent" points="144.5,-365.7 144.5,-384.7 183.5,-384.7 183.5,-365.7 144.5,-365.7"/>
<polygon fill="none" stroke="#000000" points="144.5,-365.7 144.5,-384.7 183.5,-384.7 183.5,-365.7 144.5,-365.7"/>
<text text-anchor="start" x="158.7904" y="-371.8" font-family="Helvetica,sans-Serif" font-size="11.00" fill="#000000">59 &gt;</text>
</a>
</g>
</g>
<!-- PRECON_HISTORY&#45;&gt;PROBATION_AREA -->
<g id="edge2" class="edge">
<title>PRECON_HISTORY:w&#45;&gt;PROBATION_AREA:e</title>
<path fill="none" stroke="#000000" d="M249.9345,-406.8662C224.9811,-403.8522 214.6108,-393.7 183.5,-393.7"/>
<polygon fill="#000000" stroke="#000000" points="256.5131,-407.2427 264.2942,-411.2941 260.5065,-407.4714 264.5,-407.7 264.5,-407.7 264.5,-407.7 260.5065,-407.4714 264.7058,-404.1059 256.5131,-407.2427 256.5131,-407.2427"/>
<ellipse fill="none" stroke="#000000" cx="253.3183" cy="-407.0598" rx="3.2" ry="3.2"/>
</g>
<!-- PRECON_HISTORY&#45;&gt;PROBATION_AREA -->
<g id="edge3" class="edge">
<title>PRECON_HISTORY:w&#45;&gt;PROBATION_AREA:e</title>
<path fill="none" stroke="#000000" d="M250.0302,-386.1765C225.1505,-387.8987 214.3054,-393.7 183.5,-393.7"/>
<polygon fill="#000000" stroke="#000000" points="256.5043,-385.9633 264.6185,-389.298 260.5022,-385.8317 264.5,-385.7 264.5,-385.7 264.5,-385.7 260.5022,-385.8317 264.3815,-382.102 256.5043,-385.9633 256.5043,-385.9633"/>
<ellipse fill="none" stroke="#000000" cx="253.3061" cy="-386.0687" rx="3.2" ry="3.2"/>
</g>
<!-- V_CONTACT_ES -->
<g id="node5" class="node">
<title>V_CONTACT_ES</title>
<g id="a_node5"><a xlink:href="../../tables/V_CONTACT_ES.html" xlink:title="V_CONTACT_ES" target="_top">
<polygon fill="#ffffff" stroke="transparent" points="272.5,-155.7 272.5,-307.7 480.5,-307.7 480.5,-155.7 272.5,-155.7"/>
<polygon fill="#f5f5f5" stroke="transparent" points="272.5,-284.7 272.5,-307.7 480.5,-307.7 480.5,-284.7 272.5,-284.7"/>
<polygon fill="none" stroke="#000000" points="272.5,-284.7 272.5,-307.7 480.5,-307.7 480.5,-284.7 272.5,-284.7"/>
<text text-anchor="start" x="277.5" y="-293.8" font-family="Helvetica,sans-Serif" font-weight="bold" font-size="11.00" fill="#000000">V_CONTACT_ES</text>
<text text-anchor="start" x="447.3895" y="-292.8" font-family="Helvetica,sans-Serif" font-size="11.00" fill="#000000">[view]</text>
<polygon fill="none" stroke="#000000" points="272.5,-262.7 272.5,-284.7 480.5,-284.7 480.5,-262.7 272.5,-262.7"/>
<image xlink:href="../../images/foreignKeys.png" width="11px" height="12px" preserveAspectRatio="xMinYMin meet" x="277.5" y="-279.7"/>
<text text-anchor="start" x="292.5" y="-269.8" font-family="Helvetica,sans-Serif" font-size="11.00" fill="#000000">OFFENDER_ID</text>
<polygon fill="none" stroke="#000000" points="272.5,-240.7 272.5,-262.7 480.5,-262.7 480.5,-240.7 272.5,-240.7"/>
<image xlink:href="../../images/foreignKeys.png" width="11px" height="12px" preserveAspectRatio="xMinYMin meet" x="277.5" y="-257.7"/>
<text text-anchor="start" x="292.5" y="-247.8" font-family="Helvetica,sans-Serif" font-size="11.00" fill="#000000">CONTACT_ID</text>
<polygon fill="none" stroke="#000000" points="272.5,-218.7 272.5,-240.7 480.5,-240.7 480.5,-218.7 272.5,-218.7"/>
<image xlink:href="../../images/foreignKeys.png" width="11px" height="12px" preserveAspectRatio="xMinYMin meet" x="277.5" y="-235.7"/>
<text text-anchor="start" x="292.5" y="-225.8" font-family="Helvetica,sans-Serif" font-size="11.00" fill="#000000">EVENT_ID</text>
<polygon fill="none" stroke="#000000" points="272.5,-196.7 272.5,-218.7 480.5,-218.7 480.5,-196.7 272.5,-196.7"/>
<image xlink:href="../../images/foreignKeys.png" width="11px" height="12px" preserveAspectRatio="xMinYMin meet" x="277.5" y="-213.7"/>
<text text-anchor="start" x="292.5" y="-203.8" font-family="Helvetica,sans-Serif" font-size="11.00" fill="#000000">RQMNT_ID</text>
<polygon fill="none" stroke="#000000" points="272.5,-174.7 272.5,-196.7 480.5,-196.7 480.5,-174.7 272.5,-174.7"/>
<image xlink:href="../../images/foreignKeys.png" width="11px" height="12px" preserveAspectRatio="xMinYMin meet" x="277.5" y="-191.7"/>
<text text-anchor="start" x="292.5" y="-181.8" font-family="Helvetica,sans-Serif" font-size="11.00" fill="#000000">LIC_CONDITION_ID</text>
<polygon fill="none" stroke="#000000" points="272.5,-155.7 272.5,-174.7 480.5,-174.7 480.5,-155.7 272.5,-155.7"/>
<text text-anchor="start" x="275.5" y="-161.8" font-family="Helvetica,sans-Serif" font-size="11.00" fill="#000000">...</text>
</a>
</g>
</g>
<!-- V_CONTACT_ES&#45;&gt;IAPS_OFFENDER -->
<g id="edge8" class="edge">
<title>V_CONTACT_ES:w&#45;&gt;IAPS_OFFENDER:e</title>
<path fill="none" stroke="#000000" stroke-dasharray="5,2" d="M257.9431,-275.3692C173.5398,-297.1468 322.6124,-524.7 213.5,-524.7"/>
<polygon fill="#000000" stroke="#000000" points="264.5521,-274.6114 272.9101,-277.2766 268.526,-274.1557 272.5,-273.7 272.5,-273.7 272.5,-273.7 268.526,-274.1557 272.0899,-270.1234 264.5521,-274.6114 264.5521,-274.6114"/>
<ellipse fill="none" stroke="#000000" cx="261.3729" cy="-274.976" rx="3.2" ry="3.2"/>
</g>
<!-- IAPS_CONTACT -->
<g id="node6" class="node">
<title>IAPS_CONTACT</title>
<g id="a_node6"><a xlink:href="../../tables/IAPS_CONTACT.html" xlink:title="IAPS_CONTACT" target="_top">
<polygon fill="#ffffff" stroke="transparent" points="48,-284.2 48,-345.2 175,-345.2 175,-284.2 48,-284.2"/>
<polygon fill="#f5f5f5" stroke="transparent" points="48.5,-321.7 48.5,-344.7 175.5,-344.7 175.5,-321.7 48.5,-321.7"/>
<polygon fill="none" stroke="#000000" points="48.5,-321.7 48.5,-344.7 175.5,-344.7 175.5,-321.7 48.5,-321.7"/>
<text text-anchor="start" x="53.3326" y="-330.8" font-family="Helvetica,sans-Serif" font-weight="bold" font-size="11.00" fill="#000000">IAPS_CONTACT</text>
<text text-anchor="start" x="141.0219" y="-329.8" font-family="Helvetica,sans-Serif" font-size="11.00" fill="#000000">[table]</text>
<polygon fill="none" stroke="#000000" points="48.5,-302.7 48.5,-321.7 175.5,-321.7 175.5,-302.7 48.5,-302.7"/>
<text text-anchor="start" x="51.5" y="-308.8" font-family="Helvetica,sans-Serif" font-size="11.00" fill="#000000">...</text>
<polygon fill="#ffffff" stroke="transparent" points="48.5,-283.7 48.5,-302.7 91.5,-302.7 91.5,-283.7 48.5,-283.7"/>
<polygon fill="none" stroke="#000000" points="48.5,-283.7 48.5,-302.7 91.5,-302.7 91.5,-283.7 48.5,-283.7"/>
<text text-anchor="start" x="51.5" y="-289.8" font-family="Helvetica,sans-Serif" font-size="11.00" fill="#000000"> &#160;</text>
<polygon fill="#ffffff" stroke="transparent" points="91.5,-283.7 91.5,-302.7 138.5,-302.7 138.5,-283.7 91.5,-283.7"/>
<polygon fill="none" stroke="#000000" points="91.5,-283.7 91.5,-302.7 138.5,-302.7 138.5,-283.7 91.5,-283.7"/>
<text text-anchor="start" x="108.6105" y="-289.8" font-family="Helvetica,sans-Serif" font-size="11.00" fill="#000000">1 row</text>
<polygon fill="#ffffff" stroke="transparent" points="138.5,-283.7 138.5,-302.7 175.5,-302.7 175.5,-283.7 138.5,-283.7"/>
<polygon fill="none" stroke="#000000" points="138.5,-283.7 138.5,-302.7 175.5,-302.7 175.5,-283.7 138.5,-283.7"/>
<text text-anchor="start" x="156.9053" y="-289.8" font-family="Helvetica,sans-Serif" font-size="11.00" fill="#000000">1 &gt;</text>
</a>
</g>
</g>
<!-- V_CONTACT_ES&#45;&gt;IAPS_CONTACT -->
<g id="edge5" class="edge">
<title>V_CONTACT_ES:w&#45;&gt;IAPS_CONTACT:e</title>
<path fill="none" stroke="#000000" stroke-dasharray="5,2" d="M258.1694,-253.5615C222.1201,-263.6888 220.8456,-311.7 175.5,-311.7"/>
<polygon fill="#000000" stroke="#000000" points="264.5666,-252.7306 272.9637,-255.27 268.5333,-252.2153 272.5,-251.7 272.5,-251.7 272.5,-251.7 268.5333,-252.2153 272.0363,-248.13 264.5666,-252.7306 264.5666,-252.7306"/>
<ellipse fill="none" stroke="#000000" cx="261.3933" cy="-253.1428" rx="3.2" ry="3.2"/>
</g>
<!-- IAPS_EVENT -->
<g id="node7" class="node">
<title>IAPS_EVENT</title>
<g id="a_node7"><a xlink:href="../../tables/IAPS_EVENT.html" xlink:title="IAPS_EVENT" target="_top">
<polygon fill="#ffffff" stroke="transparent" points="56.5,-202.2 56.5,-263.2 166.5,-263.2 166.5,-202.2 56.5,-202.2"/>
<polygon fill="#f5f5f5" stroke="transparent" points="56.5,-239.7 56.5,-262.7 166.5,-262.7 166.5,-239.7 56.5,-239.7"/>
<polygon fill="none" stroke="#000000" points="56.5,-239.7 56.5,-262.7 166.5,-262.7 166.5,-239.7 56.5,-239.7"/>
<text text-anchor="start" x="61.076" y="-248.8" font-family="Helvetica,sans-Serif" font-weight="bold" font-size="11.00" fill="#000000">IAPS_EVENT</text>
<text text-anchor="start" x="132.0219" y="-247.8" font-family="Helvetica,sans-Serif" font-size="11.00" fill="#000000">[table]</text>
<polygon fill="none" stroke="#000000" points="56.5,-220.7 56.5,-239.7 166.5,-239.7 166.5,-220.7 56.5,-220.7"/>
<text text-anchor="start" x="59.5" y="-226.8" font-family="Helvetica,sans-Serif" font-size="11.00" fill="#000000">...</text>
<polygon fill="#ffffff" stroke="transparent" points="56.5,-201.7 56.5,-220.7 81.5,-220.7 81.5,-201.7 56.5,-201.7"/>
<polygon fill="none" stroke="#000000" points="56.5,-201.7 56.5,-220.7 81.5,-220.7 81.5,-201.7 56.5,-201.7"/>
<text text-anchor="start" x="59.5" y="-207.8" font-family="Helvetica,sans-Serif" font-size="11.00" fill="#000000"> &#160;</text>
<polygon fill="#ffffff" stroke="transparent" points="81.5,-201.7 81.5,-220.7 138.5,-220.7 138.5,-201.7 81.5,-201.7"/>
<polygon fill="none" stroke="#000000" points="81.5,-201.7 81.5,-220.7 138.5,-220.7 138.5,-201.7 81.5,-201.7"/>
<text text-anchor="start" x="90.8807" y="-207.8" font-family="Helvetica,sans-Serif" font-size="11.00" fill="#000000">398 rows</text>
<polygon fill="#ffffff" stroke="transparent" points="138.5,-201.7 138.5,-220.7 166.5,-220.7 166.5,-201.7 138.5,-201.7"/>
<polygon fill="none" stroke="#000000" points="138.5,-201.7 138.5,-220.7 166.5,-220.7 166.5,-201.7 138.5,-201.7"/>
<text text-anchor="start" x="147.9053" y="-207.8" font-family="Helvetica,sans-Serif" font-size="11.00" fill="#000000">1 &gt;</text>
</a>
</g>
</g>
<!-- V_CONTACT_ES&#45;&gt;IAPS_EVENT -->
<g id="edge6" class="edge">
<title>V_CONTACT_ES:w&#45;&gt;IAPS_EVENT:e</title>
<path fill="none" stroke="#000000" stroke-dasharray="5,2" d="M257.7471,-229.7C222.2671,-229.7 208.2743,-229.7 166.5,-229.7"/>
<polygon fill="#000000" stroke="#000000" points="264.5,-229.7001 272.5,-233.3 268.5,-229.7 272.5,-229.7 272.5,-229.7 272.5,-229.7 268.5,-229.7 272.5,-226.1 264.5,-229.7001 264.5,-229.7001"/>
<ellipse fill="none" stroke="#000000" cx="261.3" cy="-229.7001" rx="3.2" ry="3.2"/>
</g>
<!-- IAPS_LIC_CONDITION -->
<g id="node8" class="node">
<title>IAPS_LIC_CONDITION</title>
<g id="a_node8"><a xlink:href="../../tables/IAPS_LIC_CONDITION.html" xlink:title="IAPS_LIC_CONDITION" target="_top">
<polygon fill="#ffffff" stroke="transparent" points="32,-38.2 32,-99.2 191,-99.2 191,-38.2 32,-38.2"/>
<polygon fill="#f5f5f5" stroke="transparent" points="32.5,-75.7 32.5,-98.7 191.5,-98.7 191.5,-75.7 32.5,-75.7"/>
<polygon fill="none" stroke="#000000" points="32.5,-75.7 32.5,-98.7 191.5,-98.7 191.5,-75.7 32.5,-75.7"/>
<text text-anchor="start" x="37.4409" y="-84.8" font-family="Helvetica,sans-Serif" font-weight="bold" font-size="11.00" fill="#000000">IAPS_LIC_CONDITION</text>
<text text-anchor="start" x="157.0219" y="-83.8" font-family="Helvetica,sans-Serif" font-size="11.00" fill="#000000">[table]</text>
<polygon fill="none" stroke="#000000" points="32.5,-56.7 32.5,-75.7 191.5,-75.7 191.5,-56.7 32.5,-56.7"/>
<text text-anchor="start" x="35.5" y="-62.8" font-family="Helvetica,sans-Serif" font-size="11.00" fill="#000000">...</text>
<polygon fill="#ffffff" stroke="transparent" points="32.5,-37.7 32.5,-56.7 82.5,-56.7 82.5,-37.7 32.5,-37.7"/>
<polygon fill="none" stroke="#000000" points="32.5,-37.7 32.5,-56.7 82.5,-56.7 82.5,-37.7 32.5,-37.7"/>
<text text-anchor="start" x="35.5" y="-43.8" font-family="Helvetica,sans-Serif" font-size="11.00" fill="#000000"> &#160;</text>
<polygon fill="#ffffff" stroke="transparent" points="82.5,-37.7 82.5,-56.7 151.5,-56.7 151.5,-37.7 82.5,-37.7"/>
<polygon fill="none" stroke="#000000" points="82.5,-37.7 82.5,-56.7 151.5,-56.7 151.5,-37.7 82.5,-37.7"/>
<text text-anchor="start" x="103.8807" y="-43.8" font-family="Helvetica,sans-Serif" font-size="11.00" fill="#000000">133 rows</text>
<polygon fill="#ffffff" stroke="transparent" points="151.5,-37.7 151.5,-56.7 191.5,-56.7 191.5,-37.7 151.5,-37.7"/>
<polygon fill="none" stroke="#000000" points="151.5,-37.7 151.5,-56.7 191.5,-56.7 191.5,-37.7 151.5,-37.7"/>
<text text-anchor="start" x="172.9053" y="-43.8" font-family="Helvetica,sans-Serif" font-size="11.00" fill="#000000">1 &gt;</text>
</a>
</g>
</g>
<!-- V_CONTACT_ES&#45;&gt;IAPS_LIC_CONDITION -->
<g id="edge7" class="edge">
<title>V_CONTACT_ES:w&#45;&gt;IAPS_LIC_CONDITION:e</title>
<path fill="none" stroke="#000000" stroke-dasharray="5,2" d="M258.2508,-183.1936C215.5234,-165.9612 250.3165,-65.7 191.5,-65.7"/>
<polygon fill="#000000" stroke="#000000" points="264.621,-184.3141 271.8763,-189.2456 268.5605,-185.007 272.5,-185.7 272.5,-185.7 272.5,-185.7 268.5605,-185.007 273.1237,-182.1544 264.621,-184.3141 264.621,-184.3141"/>
<ellipse fill="none" stroke="#000000" cx="261.4693" cy="-183.7597" rx="3.2" ry="3.2"/>
</g>
<!-- IAPS_RQMNT -->
<g id="node9" class="node">
<title>IAPS_RQMNT</title>
<g id="a_node9"><a xlink:href="../../tables/IAPS_RQMNT.html" xlink:title="IAPS_RQMNT" target="_top">
<polygon fill="#ffffff" stroke="transparent" points="54.5,-120.2 54.5,-181.2 168.5,-181.2 168.5,-120.2 54.5,-120.2"/>
<polygon fill="#f5f5f5" stroke="transparent" points="54.5,-157.7 54.5,-180.7 168.5,-180.7 168.5,-157.7 54.5,-157.7"/>
<polygon fill="none" stroke="#000000" points="54.5,-157.7 54.5,-180.7 168.5,-180.7 168.5,-157.7 54.5,-157.7"/>
<text text-anchor="start" x="59.25" y="-166.8" font-family="Helvetica,sans-Serif" font-weight="bold" font-size="11.00" fill="#000000">IAPS_RQMNT</text>
<text text-anchor="start" x="134.0219" y="-165.8" font-family="Helvetica,sans-Serif" font-size="11.00" fill="#000000">[table]</text>
<polygon fill="none" stroke="#000000" points="54.5,-138.7 54.5,-157.7 168.5,-157.7 168.5,-138.7 54.5,-138.7"/>
<text text-anchor="start" x="57.5" y="-144.8" font-family="Helvetica,sans-Serif" font-size="11.00" fill="#000000">...</text>
<polygon fill="#ffffff" stroke="transparent" points="54.5,-119.7 54.5,-138.7 81.5,-138.7 81.5,-119.7 54.5,-119.7"/>
<polygon fill="none" stroke="#000000" points="54.5,-119.7 54.5,-138.7 81.5,-138.7 81.5,-119.7 54.5,-119.7"/>
<text text-anchor="start" x="57.5" y="-125.8" font-family="Helvetica,sans-Serif" font-size="11.00" fill="#000000"> &#160;</text>
<polygon fill="#ffffff" stroke="transparent" points="81.5,-119.7 81.5,-138.7 139.5,-138.7 139.5,-119.7 81.5,-119.7"/>
<polygon fill="none" stroke="#000000" points="81.5,-119.7 81.5,-138.7 139.5,-138.7 139.5,-119.7 81.5,-119.7"/>
<text text-anchor="start" x="91.8807" y="-125.8" font-family="Helvetica,sans-Serif" font-size="11.00" fill="#000000">277 rows</text>
<polygon fill="#ffffff" stroke="transparent" points="139.5,-119.7 139.5,-138.7 168.5,-138.7 168.5,-119.7 139.5,-119.7"/>
<polygon fill="none" stroke="#000000" points="139.5,-119.7 139.5,-138.7 168.5,-138.7 168.5,-119.7 139.5,-119.7"/>
<text text-anchor="start" x="149.9053" y="-125.8" font-family="Helvetica,sans-Serif" font-size="11.00" fill="#000000">1 &gt;</text>
</a>
</g>
</g>
<!-- V_CONTACT_ES&#45;&gt;IAPS_RQMNT -->
<g id="edge9" class="edge">
<title>V_CONTACT_ES:w&#45;&gt;IAPS_RQMNT:e</title>
<path fill="none" stroke="#000000" stroke-dasharray="5,2" d="M258.1123,-206.0326C219.1236,-196.3422 216.5475,-147.7 168.5,-147.7"/>
<polygon fill="#000000" stroke="#000000" points="264.5532,-206.779 272.0856,-211.2761 268.5266,-207.2395 272.5,-207.7 272.5,-207.7 272.5,-207.7 268.5266,-207.2395 272.9144,-204.1239 264.5532,-206.779 264.5532,-206.779"/>
<ellipse fill="none" stroke="#000000" cx="261.3745" cy="-206.4106" rx="3.2" ry="3.2"/>
</g>
</g>
</svg>
