<?xml version="1.0" encoding="UTF-8" standalone="no"?>
<!DOCTYPE svg PUBLIC "-//W3C//DTD SVG 1.1//EN"
 "http://www.w3.org/Graphics/SVG/1.1/DTD/svg11.dtd">
<!-- Generated by graphviz version 2.40.1 (20161225.0304)
 -->
<!-- Title: twoDegreesRelationshipsDiagramImplied Pages: 1 -->
<svg width="488pt" height="491pt"
 viewBox="0.00 0.00 488.00 491.20" xmlns="http://www.w3.org/2000/svg" xmlns:xlink="http://www.w3.org/1999/xlink">
<g id="graph0" class="graph" transform="scale(1 1) rotate(0) translate(4 487.2)">
<title>twoDegreesRelationshipsDiagramImplied</title>
<polygon fill="#ffffff" stroke="transparent" points="-4,4 -4,-487.2 484,-487.2 484,4 -4,4"/>
<text text-anchor="middle" x="72.4936" y="-7.3" font-family="Helvetica,sans-Serif" font-size="11.00" fill="#000000">Generated by SchemaSpy</text>
<!-- V_CONTACT_ES -->
<g id="node1" class="node">
<title>V_CONTACT_ES</title>
<g id="a_node1"><a xlink:href="../../tables/V_CONTACT_ES.html" xlink:title="V_CONTACT_ES" target="_top">
<polygon fill="#ffffff" stroke="transparent" points="264,-207.7 264,-359.7 472,-359.7 472,-207.7 264,-207.7"/>
<polygon fill="#f5f5f5" stroke="transparent" points="264,-336.7 264,-359.7 472,-359.7 472,-336.7 264,-336.7"/>
<polygon fill="none" stroke="#000000" points="264,-336.7 264,-359.7 472,-359.7 472,-336.7 264,-336.7"/>
<text text-anchor="start" x="269" y="-345.8" font-family="Helvetica,sans-Serif" font-weight="bold" font-size="11.00" fill="#000000">V_CONTACT_ES</text>
<text text-anchor="start" x="438.8895" y="-344.8" font-family="Helvetica,sans-Serif" font-size="11.00" fill="#000000">[view]</text>
<polygon fill="none" stroke="#000000" points="264,-314.7 264,-336.7 472,-336.7 472,-314.7 264,-314.7"/>
<image xlink:href="../../images/foreignKeys.png" width="11px" height="12px" preserveAspectRatio="xMinYMin meet" x="269" y="-331.7"/>
<text text-anchor="start" x="284" y="-321.8" font-family="Helvetica,sans-Serif" font-size="11.00" fill="#000000">OFFENDER_ID</text>
<polygon fill="none" stroke="#000000" points="264,-292.7 264,-314.7 472,-314.7 472,-292.7 264,-292.7"/>
<image xlink:href="../../images/foreignKeys.png" width="11px" height="12px" preserveAspectRatio="xMinYMin meet" x="269" y="-309.7"/>
<text text-anchor="start" x="284" y="-299.8" font-family="Helvetica,sans-Serif" font-size="11.00" fill="#000000">CONTACT_ID</text>
<polygon fill="none" stroke="#000000" points="264,-270.7 264,-292.7 472,-292.7 472,-270.7 264,-270.7"/>
<image xlink:href="../../images/foreignKeys.png" width="11px" height="12px" preserveAspectRatio="xMinYMin meet" x="269" y="-287.7"/>
<text text-anchor="start" x="284" y="-277.8" font-family="Helvetica,sans-Serif" font-size="11.00" fill="#000000">EVENT_ID</text>
<polygon fill="none" stroke="#000000" points="264,-248.7 264,-270.7 472,-270.7 472,-248.7 264,-248.7"/>
<image xlink:href="../../images/foreignKeys.png" width="11px" height="12px" preserveAspectRatio="xMinYMin meet" x="269" y="-265.7"/>
<text text-anchor="start" x="284" y="-255.8" font-family="Helvetica,sans-Serif" font-size="11.00" fill="#000000">RQMNT_ID</text>
<polygon fill="none" stroke="#000000" points="264,-226.7 264,-248.7 472,-248.7 472,-226.7 264,-226.7"/>
<image xlink:href="../../images/foreignKeys.png" width="11px" height="12px" preserveAspectRatio="xMinYMin meet" x="269" y="-243.7"/>
<text text-anchor="start" x="284" y="-233.8" font-family="Helvetica,sans-Serif" font-size="11.00" fill="#000000">LIC_CONDITION_ID</text>
<polygon fill="none" stroke="#000000" points="264,-207.7 264,-226.7 472,-226.7 472,-207.7 264,-207.7"/>
<text text-anchor="start" x="267" y="-213.8" font-family="Helvetica,sans-Serif" font-size="11.00" fill="#000000">...</text>
</a>
</g>
</g>
<!-- IAPS_CONTACT -->
<g id="node2" class="node">
<title>IAPS_CONTACT</title>
<g id="a_node2"><a xlink:href="../../tables/IAPS_CONTACT.html" xlink:title="IAPS_CONTACT" target="_top">
<polygon fill="#ffffff" stroke="transparent" points="48,-336.2 48,-397.2 175,-397.2 175,-336.2 48,-336.2"/>
<polygon fill="#f5f5f5" stroke="transparent" points="48.5,-373.7 48.5,-396.7 175.5,-396.7 175.5,-373.7 48.5,-373.7"/>
<polygon fill="none" stroke="#000000" points="48.5,-373.7 48.5,-396.7 175.5,-396.7 175.5,-373.7 48.5,-373.7"/>
<text text-anchor="start" x="53.3326" y="-382.8" font-family="Helvetica,sans-Serif" font-weight="bold" font-size="11.00" fill="#000000">IAPS_CONTACT</text>
<text text-anchor="start" x="141.0219" y="-381.8" font-family="Helvetica,sans-Serif" font-size="11.00" fill="#000000">[table]</text>
<polygon fill="none" stroke="#000000" points="48.5,-354.7 48.5,-373.7 175.5,-373.7 175.5,-354.7 48.5,-354.7"/>
<text text-anchor="start" x="51.5" y="-360.8" font-family="Helvetica,sans-Serif" font-size="11.00" fill="#000000">...</text>
<polygon fill="#ffffff" stroke="transparent" points="48.5,-335.7 48.5,-354.7 91.5,-354.7 91.5,-335.7 48.5,-335.7"/>
<polygon fill="none" stroke="#000000" points="48.5,-335.7 48.5,-354.7 91.5,-354.7 91.5,-335.7 48.5,-335.7"/>
<text text-anchor="start" x="51.5" y="-341.8" font-family="Helvetica,sans-Serif" font-size="11.00" fill="#000000"> &#160;</text>
<polygon fill="#ffffff" stroke="transparent" points="91.5,-335.7 91.5,-354.7 138.5,-354.7 138.5,-335.7 91.5,-335.7"/>
<polygon fill="none" stroke="#000000" points="91.5,-335.7 91.5,-354.7 138.5,-354.7 138.5,-335.7 91.5,-335.7"/>
<text text-anchor="start" x="108.6105" y="-341.8" font-family="Helvetica,sans-Serif" font-size="11.00" fill="#000000">1 row</text>
<polygon fill="#ffffff" stroke="transparent" points="138.5,-335.7 138.5,-354.7 175.5,-354.7 175.5,-335.7 138.5,-335.7"/>
<polygon fill="none" stroke="#000000" points="138.5,-335.7 138.5,-354.7 175.5,-354.7 175.5,-335.7 138.5,-335.7"/>
<text text-anchor="start" x="156.9053" y="-341.8" font-family="Helvetica,sans-Serif" font-size="11.00" fill="#000000">1 &gt;</text>
</a>
</g>
</g>
<!-- V_CONTACT_ES&#45;&gt;IAPS_CONTACT -->
<g id="edge1" class="edge">
<title>V_CONTACT_ES:w&#45;&gt;IAPS_CONTACT:e</title>
<path fill="none" stroke="#000000" stroke-dasharray="5,2" d="M249.3468,-305.9788C217.27,-316.9385 217.4519,-363.7 175.5,-363.7"/>
<polygon fill="#000000" stroke="#000000" points="256.095,-304.9294 264.5532,-307.2572 260.0475,-304.3147 264,-303.7 264,-303.7 264,-303.7 260.0475,-304.3147 263.4468,-300.1428 256.095,-304.9294 256.095,-304.9294"/>
<ellipse fill="none" stroke="#000000" cx="252.933" cy="-305.4212" rx="3.2" ry="3.2"/>
</g>
<!-- IAPS_EVENT -->
<g id="node3" class="node">
<title>IAPS_EVENT</title>
<g id="a_node3"><a xlink:href="../../tables/IAPS_EVENT.html" xlink:title="IAPS_EVENT" target="_top">
<polygon fill="#ffffff" stroke="transparent" points="56.5,-254.2 56.5,-315.2 166.5,-315.2 166.5,-254.2 56.5,-254.2"/>
<polygon fill="#f5f5f5" stroke="transparent" points="56.5,-291.7 56.5,-314.7 166.5,-314.7 166.5,-291.7 56.5,-291.7"/>
<polygon fill="none" stroke="#000000" points="56.5,-291.7 56.5,-314.7 166.5,-314.7 166.5,-291.7 56.5,-291.7"/>
<text text-anchor="start" x="61.076" y="-300.8" font-family="Helvetica,sans-Serif" font-weight="bold" font-size="11.00" fill="#000000">IAPS_EVENT</text>
<text text-anchor="start" x="132.0219" y="-299.8" font-family="Helvetica,sans-Serif" font-size="11.00" fill="#000000">[table]</text>
<polygon fill="none" stroke="#000000" points="56.5,-272.7 56.5,-291.7 166.5,-291.7 166.5,-272.7 56.5,-272.7"/>
<text text-anchor="start" x="59.5" y="-278.8" font-family="Helvetica,sans-Serif" font-size="11.00" fill="#000000">...</text>
<polygon fill="#ffffff" stroke="transparent" points="56.5,-253.7 56.5,-272.7 81.5,-272.7 81.5,-253.7 56.5,-253.7"/>
<polygon fill="none" stroke="#000000" points="56.5,-253.7 56.5,-272.7 81.5,-272.7 81.5,-253.7 56.5,-253.7"/>
<text text-anchor="start" x="59.5" y="-259.8" font-family="Helvetica,sans-Serif" font-size="11.00" fill="#000000"> &#160;</text>
<polygon fill="#ffffff" stroke="transparent" points="81.5,-253.7 81.5,-272.7 138.5,-272.7 138.5,-253.7 81.5,-253.7"/>
<polygon fill="none" stroke="#000000" points="81.5,-253.7 81.5,-272.7 138.5,-272.7 138.5,-253.7 81.5,-253.7"/>
<text text-anchor="start" x="90.8807" y="-259.8" font-family="Helvetica,sans-Serif" font-size="11.00" fill="#000000">398 rows</text>
<polygon fill="#ffffff" stroke="transparent" points="138.5,-253.7 138.5,-272.7 166.5,-272.7 166.5,-253.7 138.5,-253.7"/>
<polygon fill="none" stroke="#000000" points="138.5,-253.7 138.5,-272.7 166.5,-272.7 166.5,-253.7 138.5,-253.7"/>
<text text-anchor="start" x="147.9053" y="-259.8" font-family="Helvetica,sans-Serif" font-size="11.00" fill="#000000">1 &gt;</text>
</a>
</g>
</g>
<!-- V_CONTACT_ES&#45;&gt;IAPS_EVENT -->
<g id="edge2" class="edge">
<title>V_CONTACT_ES:w&#45;&gt;IAPS_EVENT:e</title>
<path fill="none" stroke="#000000" stroke-dasharray="5,2" d="M249.5721,-281.7C217.5664,-281.7 204.5859,-281.7 166.5,-281.7"/>
<polygon fill="#000000" stroke="#000000" points="256,-281.7001 264,-285.3 260,-281.7 264,-281.7 264,-281.7 264,-281.7 260,-281.7 264,-278.1 256,-281.7001 256,-281.7001"/>
<ellipse fill="none" stroke="#000000" cx="252.8" cy="-281.7001" rx="3.2" ry="3.2"/>
</g>
<!-- IAPS_LIC_CONDITION -->
<g id="node4" class="node">
<title>IAPS_LIC_CONDITION</title>
<g id="a_node4"><a xlink:href="../../tables/IAPS_LIC_CONDITION.html" xlink:title="IAPS_LIC_CONDITION" target="_top">
<polygon fill="#ffffff" stroke="transparent" points="32,-38.2 32,-99.2 191,-99.2 191,-38.2 32,-38.2"/>
<polygon fill="#f5f5f5" stroke="transparent" points="32.5,-75.7 32.5,-98.7 191.5,-98.7 191.5,-75.7 32.5,-75.7"/>
<polygon fill="none" stroke="#000000" points="32.5,-75.7 32.5,-98.7 191.5,-98.7 191.5,-75.7 32.5,-75.7"/>
<text text-anchor="start" x="37.4409" y="-84.8" font-family="Helvetica,sans-Serif" font-weight="bold" font-size="11.00" fill="#000000">IAPS_LIC_CONDITION</text>
<text text-anchor="start" x="157.0219" y="-83.8" font-family="Helvetica,sans-Serif" font-size="11.00" fill="#000000">[table]</text>
<polygon fill="none" stroke="#000000" points="32.5,-56.7 32.5,-75.7 191.5,-75.7 191.5,-56.7 32.5,-56.7"/>
<text text-anchor="start" x="35.5" y="-62.8" font-family="Helvetica,sans-Serif" font-size="11.00" fill="#000000">...</text>
<polygon fill="#ffffff" stroke="transparent" points="32.5,-37.7 32.5,-56.7 82.5,-56.7 82.5,-37.7 32.5,-37.7"/>
<polygon fill="none" stroke="#000000" points="32.5,-37.7 32.5,-56.7 82.5,-56.7 82.5,-37.7 32.5,-37.7"/>
<text text-anchor="start" x="35.5" y="-43.8" font-family="Helvetica,sans-Serif" font-size="11.00" fill="#000000"> &#160;</text>
<polygon fill="#ffffff" stroke="transparent" points="82.5,-37.7 82.5,-56.7 151.5,-56.7 151.5,-37.7 82.5,-37.7"/>
<polygon fill="none" stroke="#000000" points="82.5,-37.7 82.5,-56.7 151.5,-56.7 151.5,-37.7 82.5,-37.7"/>
<text text-anchor="start" x="103.8807" y="-43.8" font-family="Helvetica,sans-Serif" font-size="11.00" fill="#000000">133 rows</text>
<polygon fill="#ffffff" stroke="transparent" points="151.5,-37.7 151.5,-56.7 191.5,-56.7 191.5,-37.7 151.5,-37.7"/>
<polygon fill="none" stroke="#000000" points="151.5,-37.7 151.5,-56.7 191.5,-56.7 191.5,-37.7 151.5,-37.7"/>
<text text-anchor="start" x="172.9053" y="-43.8" font-family="Helvetica,sans-Serif" font-size="11.00" fill="#000000">1 &gt;</text>
</a>
</g>
</g>
<!-- V_CONTACT_ES&#45;&gt;IAPS_LIC_CONDITION -->
<g id="edge3" class="edge">
<title>V_CONTACT_ES:w&#45;&gt;IAPS_LIC_CONDITION:e</title>
<path fill="none" stroke="#000000" stroke-dasharray="5,2" d="M249.7032,-235.5253C192.6711,-215.6147 268.949,-65.7 191.5,-65.7"/>
<polygon fill="#000000" stroke="#000000" points="256.091,-236.4969 263.4586,-241.2591 260.0455,-237.0984 264,-237.7 264,-237.7 264,-237.7 260.0455,-237.0984 264.5414,-234.1409 256.091,-236.4969 256.091,-236.4969"/>
<ellipse fill="none" stroke="#000000" cx="252.9274" cy="-236.0156" rx="3.2" ry="3.2"/>
</g>
<!-- IAPS_OFFENDER -->
<g id="node5" class="node">
<title>IAPS_OFFENDER</title>
<g id="a_node5"><a xlink:href="../../tables/IAPS_OFFENDER.html" xlink:title="IAPS_OFFENDER" target="_top">
<polygon fill="#ffffff" stroke="transparent" points="44.5,-418.2 44.5,-479.2 178.5,-479.2 178.5,-418.2 44.5,-418.2"/>
<polygon fill="#f5f5f5" stroke="transparent" points="44.5,-455.7 44.5,-478.7 178.5,-478.7 178.5,-455.7 44.5,-455.7"/>
<polygon fill="none" stroke="#000000" points="44.5,-455.7 44.5,-478.7 178.5,-478.7 178.5,-455.7 44.5,-455.7"/>
<text text-anchor="start" x="49.1646" y="-464.8" font-family="Helvetica,sans-Serif" font-weight="bold" font-size="11.00" fill="#000000">IAPS_OFFENDER</text>
<text text-anchor="start" x="144.0219" y="-463.8" font-family="Helvetica,sans-Serif" font-size="11.00" fill="#000000">[table]</text>
<polygon fill="none" stroke="#000000" points="44.5,-436.7 44.5,-455.7 178.5,-455.7 178.5,-436.7 44.5,-436.7"/>
<text text-anchor="start" x="47.5" y="-442.8" font-family="Helvetica,sans-Serif" font-size="11.00" fill="#000000">...</text>
<polygon fill="#ffffff" stroke="transparent" points="44.5,-417.7 44.5,-436.7 81.5,-436.7 81.5,-417.7 44.5,-417.7"/>
<polygon fill="none" stroke="#000000" points="44.5,-417.7 44.5,-436.7 81.5,-436.7 81.5,-417.7 44.5,-417.7"/>
<text text-anchor="start" x="47.5" y="-423.8" font-family="Helvetica,sans-Serif" font-size="11.00" fill="#000000"> &#160;</text>
<polygon fill="#ffffff" stroke="transparent" points="81.5,-417.7 81.5,-436.7 144.5,-436.7 144.5,-417.7 81.5,-417.7"/>
<polygon fill="none" stroke="#000000" points="81.5,-417.7 81.5,-436.7 144.5,-436.7 144.5,-417.7 81.5,-417.7"/>
<text text-anchor="start" x="96.8807" y="-423.8" font-family="Helvetica,sans-Serif" font-size="11.00" fill="#000000">388 rows</text>
<polygon fill="#ffffff" stroke="transparent" points="144.5,-417.7 144.5,-436.7 178.5,-436.7 178.5,-417.7 144.5,-417.7"/>
<polygon fill="none" stroke="#000000" points="144.5,-417.7 144.5,-436.7 178.5,-436.7 178.5,-417.7 144.5,-417.7"/>
<text text-anchor="start" x="159.9053" y="-423.8" font-family="Helvetica,sans-Serif" font-size="11.00" fill="#000000">3 &gt;</text>
</a>
</g>
</g>
<!-- V_CONTACT_ES&#45;&gt;IAPS_OFFENDER -->
<g id="edge4" class="edge">
<title>V_CONTACT_ES:w&#45;&gt;IAPS_OFFENDER:e</title>
<path fill="none" stroke="#000000" stroke-dasharray="5,2" d="M249.8134,-328.7774C229.5309,-340.1236 244.3788,-380.3707 223,-407.7 206.9756,-428.1845 204.5076,-445.7 178.5,-445.7"/>
<polygon fill="#000000" stroke="#000000" points="256.1818,-327.396 264.7632,-329.2182 260.0909,-326.548 264,-325.7 264,-325.7 264,-325.7 260.0909,-326.548 263.2368,-322.1818 256.1818,-327.396 256.1818,-327.396"/>
<ellipse fill="none" stroke="#000000" cx="253.0546" cy="-328.0744" rx="3.2" ry="3.2"/>
</g>
<!-- IAPS_RQMNT -->
<g id="node6" class="node">
<title>IAPS_RQMNT</title>
<g id="a_node6"><a xlink:href="../../tables/IAPS_RQMNT.html" xlink:title="IAPS_RQMNT" target="_top">
<polygon fill="#ffffff" stroke="transparent" points="8,-120.7 8,-232.7 215,-232.7 215,-120.7 8,-120.7"/>
<polygon fill="#f5f5f5" stroke="transparent" points="10.5,-207.7 10.5,-230.7 213.5,-230.7 213.5,-207.7 10.5,-207.7"/>
<polygon fill="none" stroke="#000000" points="10.5,-207.7 10.5,-230.7 213.5,-230.7 213.5,-207.7 10.5,-207.7"/>
<text text-anchor="start" x="15.5" y="-216.8" font-family="Helvetica,sans-Serif" font-weight="bold" font-size="11.00" fill="#000000">IAPS_RQMNT</text>
<text text-anchor="start" x="178.5437" y="-215.8" font-family="Helvetica,sans-Serif" font-size="11.00" fill="#000000">[table]</text>
<polygon fill="none" stroke="#000000" points="10.5,-185.7 10.5,-207.7 152.5,-207.7 152.5,-185.7 10.5,-185.7"/>
<image xlink:href="../../images/primaryKeys.png" width="11px" height="12px" preserveAspectRatio="xMinYMin meet" x="15.5" y="-202.7"/>
<text text-anchor="start" x="30.5" y="-192.8" font-family="Helvetica,sans-Serif" font-size="11.00" fill="#000000">RQMNT_ID</text>
<polygon fill="none" stroke="#000000" points="152.5,-185.7 152.5,-207.7 213.5,-207.7 213.5,-185.7 152.5,-185.7"/>
<text text-anchor="start" x="155.1865" y="-193.4" font-family="Helvetica,sans-Serif" font-size="11.00" fill="#000000">number[38]</text>
<polygon fill="none" stroke="#000000" points="10.5,-163.7 10.5,-185.7 152.5,-185.7 152.5,-163.7 10.5,-163.7"/>
<text text-anchor="start" x="30.5" y="-170.8" font-family="Helvetica,sans-Serif" font-size="11.00" fill="#000000">IAPS_FLAG</text>
<polygon fill="none" stroke="#000000" points="152.5,-163.7 152.5,-185.7 213.5,-185.7 213.5,-163.7 152.5,-163.7"/>
<text text-anchor="start" x="155.1865" y="-171.4" font-family="Helvetica,sans-Serif" font-size="11.00" fill="#000000">number[38]</text>
<polygon fill="none" stroke="#000000" points="10.5,-141.7 10.5,-163.7 152.5,-163.7 152.5,-141.7 10.5,-141.7"/>
<text text-anchor="start" x="26.6624" y="-148.8" font-family="Helvetica,sans-Serif" font-size="11.00" fill="#000000">TRAINING_SESSION_ID</text>
<polygon fill="none" stroke="#000000" points="152.5,-141.7 152.5,-163.7 213.5,-163.7 213.5,-141.7 152.5,-141.7"/>
<text text-anchor="start" x="155.1865" y="-149.4" font-family="Helvetica,sans-Serif" font-size="11.00" fill="#000000">number[38]</text>
<polygon fill="#ffffff" stroke="transparent" points="10.5,-122.7 10.5,-141.7 66.5,-141.7 66.5,-122.7 10.5,-122.7"/>
<polygon fill="none" stroke="#000000" points="10.5,-122.7 10.5,-141.7 66.5,-141.7 66.5,-122.7 10.5,-122.7"/>
<text text-anchor="start" x="13.5" y="-128.8" font-family="Helvetica,sans-Serif" font-size="11.00" fill="#000000">&lt; 0</text>
<polygon fill="#ffffff" stroke="transparent" points="66.5,-122.7 66.5,-141.7 152.5,-141.7 152.5,-122.7 66.5,-122.7"/>
<polygon fill="none" stroke="#000000" points="66.5,-122.7 66.5,-141.7 152.5,-141.7 152.5,-122.7 66.5,-122.7"/>
<text text-anchor="start" x="104.8807" y="-128.8" font-family="Helvetica,sans-Serif" font-size="11.00" fill="#000000">277 rows</text>
<polygon fill="#ffffff" stroke="transparent" points="152.5,-122.7 152.5,-141.7 213.5,-141.7 213.5,-122.7 152.5,-122.7"/>
<polygon fill="none" stroke="#000000" points="152.5,-122.7 152.5,-141.7 213.5,-141.7 213.5,-122.7 152.5,-122.7"/>
<text text-anchor="start" x="194.9053" y="-128.8" font-family="Helvetica,sans-Serif" font-size="11.00" fill="#000000">1 &gt;</text>
<polygon fill="none" stroke="#000000" stroke-width="2" points="9,-121.7 9,-231.7 214,-231.7 214,-121.7 9,-121.7"/>
</a>
</g>
</g>
<!-- V_CONTACT_ES&#45;&gt;IAPS_RQMNT -->
<g id="edge5" class="edge">
<title>V_CONTACT_ES:w&#45;&gt;IAPS_RQMNT:e</title>
<path fill="none" stroke="#000000" stroke-dasharray="5,2" d="M249.9816,-254.7565C233.738,-239.9048 243.2175,-196.7 213.5,-196.7"/>
<polygon fill="#000000" stroke="#000000" points="256.4554,-257.0394 262.8027,-263.0951 260.2277,-258.3697 264,-259.7 264,-259.7 264,-259.7 260.2277,-258.3697 265.1973,-256.3049 256.4554,-257.0394 256.4554,-257.0394"/>
<ellipse fill="none" stroke="#000000" cx="253.4375" cy="-255.9752" rx="3.2" ry="3.2"/>
</g>
</g>
</svg>
