<?xml version="1.0" encoding="UTF-8" standalone="no"?>
<!DOCTYPE svg PUBLIC "-//W3C//DTD SVG 1.1//EN"
 "http://www.w3.org/Graphics/SVG/1.1/DTD/svg11.dtd">
<!-- Generated by graphviz version 2.40.1 (20161225.0304)
 -->
<!-- Title: twoDegreesRelationshipsDiagramImplied Pages: 1 -->
<svg width="488pt" height="491pt"
 viewBox="0.00 0.00 488.00 490.70" xmlns="http://www.w3.org/2000/svg" xmlns:xlink="http://www.w3.org/1999/xlink">
<g id="graph0" class="graph" transform="scale(1 1) rotate(0) translate(4 486.7)">
<title>twoDegreesRelationshipsDiagramImplied</title>
<polygon fill="#ffffff" stroke="transparent" points="-4,4 -4,-486.7 484,-486.7 484,4 -4,4"/>
<text text-anchor="middle" x="72.4936" y="-7.3" font-family="Helvetica,sans-Serif" font-size="11.00" fill="#000000">Generated by SchemaSpy</text>
<!-- V_CONTACT_ES -->
<g id="node1" class="node">
<title>V_CONTACT_ES</title>
<g id="a_node1"><a xlink:href="../../tables/V_CONTACT_ES.html" xlink:title="V_CONTACT_ES" target="_top">
<polygon fill="#ffffff" stroke="transparent" points="264,-207.2 264,-359.2 472,-359.2 472,-207.2 264,-207.2"/>
<polygon fill="#f5f5f5" stroke="transparent" points="264,-336.2 264,-359.2 472,-359.2 472,-336.2 264,-336.2"/>
<polygon fill="none" stroke="#000000" points="264,-336.2 264,-359.2 472,-359.2 472,-336.2 264,-336.2"/>
<text text-anchor="start" x="269" y="-345.3" font-family="Helvetica,sans-Serif" font-weight="bold" font-size="11.00" fill="#000000">V_CONTACT_ES</text>
<text text-anchor="start" x="438.8895" y="-344.3" font-family="Helvetica,sans-Serif" font-size="11.00" fill="#000000">[view]</text>
<polygon fill="none" stroke="#000000" points="264,-314.2 264,-336.2 472,-336.2 472,-314.2 264,-314.2"/>
<image xlink:href="../../images/foreignKeys.png" width="11px" height="12px" preserveAspectRatio="xMinYMin meet" x="269" y="-331.2"/>
<text text-anchor="start" x="284" y="-321.3" font-family="Helvetica,sans-Serif" font-size="11.00" fill="#000000">OFFENDER_ID</text>
<polygon fill="none" stroke="#000000" points="264,-292.2 264,-314.2 472,-314.2 472,-292.2 264,-292.2"/>
<image xlink:href="../../images/foreignKeys.png" width="11px" height="12px" preserveAspectRatio="xMinYMin meet" x="269" y="-309.2"/>
<text text-anchor="start" x="284" y="-299.3" font-family="Helvetica,sans-Serif" font-size="11.00" fill="#000000">CONTACT_ID</text>
<polygon fill="none" stroke="#000000" points="264,-270.2 264,-292.2 472,-292.2 472,-270.2 264,-270.2"/>
<image xlink:href="../../images/foreignKeys.png" width="11px" height="12px" preserveAspectRatio="xMinYMin meet" x="269" y="-287.2"/>
<text text-anchor="start" x="284" y="-277.3" font-family="Helvetica,sans-Serif" font-size="11.00" fill="#000000">EVENT_ID</text>
<polygon fill="none" stroke="#000000" points="264,-248.2 264,-270.2 472,-270.2 472,-248.2 264,-248.2"/>
<image xlink:href="../../images/foreignKeys.png" width="11px" height="12px" preserveAspectRatio="xMinYMin meet" x="269" y="-265.2"/>
<text text-anchor="start" x="284" y="-255.3" font-family="Helvetica,sans-Serif" font-size="11.00" fill="#000000">RQMNT_ID</text>
<polygon fill="none" stroke="#000000" points="264,-226.2 264,-248.2 472,-248.2 472,-226.2 264,-226.2"/>
<image xlink:href="../../images/foreignKeys.png" width="11px" height="12px" preserveAspectRatio="xMinYMin meet" x="269" y="-243.2"/>
<text text-anchor="start" x="284" y="-233.3" font-family="Helvetica,sans-Serif" font-size="11.00" fill="#000000">LIC_CONDITION_ID</text>
<polygon fill="none" stroke="#000000" points="264,-207.2 264,-226.2 472,-226.2 472,-207.2 264,-207.2"/>
<text text-anchor="start" x="267" y="-213.3" font-family="Helvetica,sans-Serif" font-size="11.00" fill="#000000">...</text>
</a>
</g>
</g>
<!-- IAPS_CONTACT -->
<g id="node2" class="node">
<title>IAPS_CONTACT</title>
<g id="a_node2"><a xlink:href="../../tables/IAPS_CONTACT.html" xlink:title="IAPS_CONTACT" target="_top">
<polygon fill="#ffffff" stroke="transparent" points="48,-335.7 48,-396.7 175,-396.7 175,-335.7 48,-335.7"/>
<polygon fill="#f5f5f5" stroke="transparent" points="48.5,-373.2 48.5,-396.2 175.5,-396.2 175.5,-373.2 48.5,-373.2"/>
<polygon fill="none" stroke="#000000" points="48.5,-373.2 48.5,-396.2 175.5,-396.2 175.5,-373.2 48.5,-373.2"/>
<text text-anchor="start" x="53.3326" y="-382.3" font-family="Helvetica,sans-Serif" font-weight="bold" font-size="11.00" fill="#000000">IAPS_CONTACT</text>
<text text-anchor="start" x="141.0219" y="-381.3" font-family="Helvetica,sans-Serif" font-size="11.00" fill="#000000">[table]</text>
<polygon fill="none" stroke="#000000" points="48.5,-354.2 48.5,-373.2 175.5,-373.2 175.5,-354.2 48.5,-354.2"/>
<text text-anchor="start" x="51.5" y="-360.3" font-family="Helvetica,sans-Serif" font-size="11.00" fill="#000000">...</text>
<polygon fill="#ffffff" stroke="transparent" points="48.5,-335.2 48.5,-354.2 91.5,-354.2 91.5,-335.2 48.5,-335.2"/>
<polygon fill="none" stroke="#000000" points="48.5,-335.2 48.5,-354.2 91.5,-354.2 91.5,-335.2 48.5,-335.2"/>
<text text-anchor="start" x="51.5" y="-341.3" font-family="Helvetica,sans-Serif" font-size="11.00" fill="#000000"> &#160;</text>
<polygon fill="#ffffff" stroke="transparent" points="91.5,-335.2 91.5,-354.2 138.5,-354.2 138.5,-335.2 91.5,-335.2"/>
<polygon fill="none" stroke="#000000" points="91.5,-335.2 91.5,-354.2 138.5,-354.2 138.5,-335.2 91.5,-335.2"/>
<text text-anchor="start" x="108.6105" y="-341.3" font-family="Helvetica,sans-Serif" font-size="11.00" fill="#000000">1 row</text>
<polygon fill="#ffffff" stroke="transparent" points="138.5,-335.2 138.5,-354.2 175.5,-354.2 175.5,-335.2 138.5,-335.2"/>
<polygon fill="none" stroke="#000000" points="138.5,-335.2 138.5,-354.2 175.5,-354.2 175.5,-335.2 138.5,-335.2"/>
<text text-anchor="start" x="156.9053" y="-341.3" font-family="Helvetica,sans-Serif" font-size="11.00" fill="#000000">1 &gt;</text>
</a>
</g>
</g>
<!-- V_CONTACT_ES&#45;&gt;IAPS_CONTACT -->
<g id="edge1" class="edge">
<title>V_CONTACT_ES:w&#45;&gt;IAPS_CONTACT:e</title>
<path fill="none" stroke="#000000" stroke-dasharray="5,2" d="M249.3468,-305.4788C217.27,-316.4385 217.4519,-363.2 175.5,-363.2"/>
<polygon fill="#000000" stroke="#000000" points="256.095,-304.4294 264.5532,-306.7572 260.0475,-303.8147 264,-303.2 264,-303.2 264,-303.2 260.0475,-303.8147 263.4468,-299.6428 256.095,-304.4294 256.095,-304.4294"/>
<ellipse fill="none" stroke="#000000" cx="252.933" cy="-304.9212" rx="3.2" ry="3.2"/>
</g>
<!-- IAPS_EVENT -->
<g id="node3" class="node">
<title>IAPS_EVENT</title>
<g id="a_node3"><a xlink:href="../../tables/IAPS_EVENT.html" xlink:title="IAPS_EVENT" target="_top">
<polygon fill="#ffffff" stroke="transparent" points="56.5,-253.7 56.5,-314.7 166.5,-314.7 166.5,-253.7 56.5,-253.7"/>
<polygon fill="#f5f5f5" stroke="transparent" points="56.5,-291.2 56.5,-314.2 166.5,-314.2 166.5,-291.2 56.5,-291.2"/>
<polygon fill="none" stroke="#000000" points="56.5,-291.2 56.5,-314.2 166.5,-314.2 166.5,-291.2 56.5,-291.2"/>
<text text-anchor="start" x="61.076" y="-300.3" font-family="Helvetica,sans-Serif" font-weight="bold" font-size="11.00" fill="#000000">IAPS_EVENT</text>
<text text-anchor="start" x="132.0219" y="-299.3" font-family="Helvetica,sans-Serif" font-size="11.00" fill="#000000">[table]</text>
<polygon fill="none" stroke="#000000" points="56.5,-272.2 56.5,-291.2 166.5,-291.2 166.5,-272.2 56.5,-272.2"/>
<text text-anchor="start" x="59.5" y="-278.3" font-family="Helvetica,sans-Serif" font-size="11.00" fill="#000000">...</text>
<polygon fill="#ffffff" stroke="transparent" points="56.5,-253.2 56.5,-272.2 81.5,-272.2 81.5,-253.2 56.5,-253.2"/>
<polygon fill="none" stroke="#000000" points="56.5,-253.2 56.5,-272.2 81.5,-272.2 81.5,-253.2 56.5,-253.2"/>
<text text-anchor="start" x="59.5" y="-259.3" font-family="Helvetica,sans-Serif" font-size="11.00" fill="#000000"> &#160;</text>
<polygon fill="#ffffff" stroke="transparent" points="81.5,-253.2 81.5,-272.2 138.5,-272.2 138.5,-253.2 81.5,-253.2"/>
<polygon fill="none" stroke="#000000" points="81.5,-253.2 81.5,-272.2 138.5,-272.2 138.5,-253.2 81.5,-253.2"/>
<text text-anchor="start" x="90.8807" y="-259.3" font-family="Helvetica,sans-Serif" font-size="11.00" fill="#000000">398 rows</text>
<polygon fill="#ffffff" stroke="transparent" points="138.5,-253.2 138.5,-272.2 166.5,-272.2 166.5,-253.2 138.5,-253.2"/>
<polygon fill="none" stroke="#000000" points="138.5,-253.2 138.5,-272.2 166.5,-272.2 166.5,-253.2 138.5,-253.2"/>
<text text-anchor="start" x="147.9053" y="-259.3" font-family="Helvetica,sans-Serif" font-size="11.00" fill="#000000">1 &gt;</text>
</a>
</g>
</g>
<!-- V_CONTACT_ES&#45;&gt;IAPS_EVENT -->
<g id="edge2" class="edge">
<title>V_CONTACT_ES:w&#45;&gt;IAPS_EVENT:e</title>
<path fill="none" stroke="#000000" stroke-dasharray="5,2" d="M249.5721,-281.2C217.5664,-281.2 204.5859,-281.2 166.5,-281.2"/>
<polygon fill="#000000" stroke="#000000" points="256,-281.2001 264,-284.8 260,-281.2 264,-281.2 264,-281.2 264,-281.2 260,-281.2 264,-277.6 256,-281.2001 256,-281.2001"/>
<ellipse fill="none" stroke="#000000" cx="252.8" cy="-281.2001" rx="3.2" ry="3.2"/>
</g>
<!-- IAPS_LIC_CONDITION -->
<g id="node4" class="node">
<title>IAPS_LIC_CONDITION</title>
<g id="a_node4"><a xlink:href="../../tables/IAPS_LIC_CONDITION.html" xlink:title="IAPS_LIC_CONDITION" target="_top">
<polygon fill="#ffffff" stroke="transparent" points="8,-38.2 8,-150.2 215,-150.2 215,-38.2 8,-38.2"/>
<polygon fill="#f5f5f5" stroke="transparent" points="10.5,-125.2 10.5,-148.2 213.5,-148.2 213.5,-125.2 10.5,-125.2"/>
<polygon fill="none" stroke="#000000" points="10.5,-125.2 10.5,-148.2 213.5,-148.2 213.5,-125.2 10.5,-125.2"/>
<text text-anchor="start" x="15.5" y="-134.3" font-family="Helvetica,sans-Serif" font-weight="bold" font-size="11.00" fill="#000000">IAPS_LIC_CONDITION</text>
<text text-anchor="start" x="178.5437" y="-133.3" font-family="Helvetica,sans-Serif" font-size="11.00" fill="#000000">[table]</text>
<polygon fill="none" stroke="#000000" points="10.5,-103.2 10.5,-125.2 152.5,-125.2 152.5,-103.2 10.5,-103.2"/>
<image xlink:href="../../images/primaryKeys.png" width="11px" height="12px" preserveAspectRatio="xMinYMin meet" x="15.5" y="-120.2"/>
<text text-anchor="start" x="30.5" y="-110.3" font-family="Helvetica,sans-Serif" font-size="11.00" fill="#000000">LIC_CONDITION_ID</text>
<polygon fill="none" stroke="#000000" points="152.5,-103.2 152.5,-125.2 213.5,-125.2 213.5,-103.2 152.5,-103.2"/>
<text text-anchor="start" x="155.1865" y="-110.9" font-family="Helvetica,sans-Serif" font-size="11.00" fill="#000000">number[38]</text>
<polygon fill="none" stroke="#000000" points="10.5,-81.2 10.5,-103.2 152.5,-103.2 152.5,-81.2 10.5,-81.2"/>
<text text-anchor="start" x="30.5" y="-88.3" font-family="Helvetica,sans-Serif" font-size="11.00" fill="#000000">IAPS_FLAG</text>
<polygon fill="none" stroke="#000000" points="152.5,-81.2 152.5,-103.2 213.5,-103.2 213.5,-81.2 152.5,-81.2"/>
<text text-anchor="start" x="155.1865" y="-88.9" font-family="Helvetica,sans-Serif" font-size="11.00" fill="#000000">number[38]</text>
<polygon fill="none" stroke="#000000" points="10.5,-59.2 10.5,-81.2 152.5,-81.2 152.5,-59.2 10.5,-59.2"/>
<text text-anchor="start" x="26.6624" y="-66.3" font-family="Helvetica,sans-Serif" font-size="11.00" fill="#000000">TRAINING_SESSION_ID</text>
<polygon fill="none" stroke="#000000" points="152.5,-59.2 152.5,-81.2 213.5,-81.2 213.5,-59.2 152.5,-59.2"/>
<text text-anchor="start" x="155.1865" y="-66.9" font-family="Helvetica,sans-Serif" font-size="11.00" fill="#000000">number[38]</text>
<polygon fill="#ffffff" stroke="transparent" points="10.5,-40.2 10.5,-59.2 66.5,-59.2 66.5,-40.2 10.5,-40.2"/>
<polygon fill="none" stroke="#000000" points="10.5,-40.2 10.5,-59.2 66.5,-59.2 66.5,-40.2 10.5,-40.2"/>
<text text-anchor="start" x="13.5" y="-46.3" font-family="Helvetica,sans-Serif" font-size="11.00" fill="#000000">&lt; 0</text>
<polygon fill="#ffffff" stroke="transparent" points="66.5,-40.2 66.5,-59.2 152.5,-59.2 152.5,-40.2 66.5,-40.2"/>
<polygon fill="none" stroke="#000000" points="66.5,-40.2 66.5,-59.2 152.5,-59.2 152.5,-40.2 66.5,-40.2"/>
<text text-anchor="start" x="104.8807" y="-46.3" font-family="Helvetica,sans-Serif" font-size="11.00" fill="#000000">133 rows</text>
<polygon fill="#ffffff" stroke="transparent" points="152.5,-40.2 152.5,-59.2 213.5,-59.2 213.5,-40.2 152.5,-40.2"/>
<polygon fill="none" stroke="#000000" points="152.5,-40.2 152.5,-59.2 213.5,-59.2 213.5,-40.2 152.5,-40.2"/>
<text text-anchor="start" x="194.9053" y="-46.3" font-family="Helvetica,sans-Serif" font-size="11.00" fill="#000000">1 &gt;</text>
<polygon fill="none" stroke="#000000" stroke-width="2" points="9,-39.2 9,-149.2 214,-149.2 214,-39.2 9,-39.2"/>
</a>
</g>
</g>
<!-- V_CONTACT_ES&#45;&gt;IAPS_LIC_CONDITION -->
<g id="edge3" class="edge">
<title>V_CONTACT_ES:w&#45;&gt;IAPS_LIC_CONDITION:e</title>
<path fill="none" stroke="#000000" stroke-dasharray="5,2" d="M249.6522,-233.6515C217.3469,-213.4844 266.593,-114.2 213.5,-114.2"/>
<polygon fill="#000000" stroke="#000000" points="256.234,-235.2793 263.1357,-240.6947 260.117,-236.2396 264,-237.2 264,-237.2 264,-237.2 260.117,-236.2396 264.8643,-233.7053 256.234,-235.2793 256.234,-235.2793"/>
<ellipse fill="none" stroke="#000000" cx="253.1276" cy="-234.511" rx="3.2" ry="3.2"/>
</g>
<!-- IAPS_OFFENDER -->
<g id="node5" class="node">
<title>IAPS_OFFENDER</title>
<g id="a_node5"><a xlink:href="../../tables/IAPS_OFFENDER.html" xlink:title="IAPS_OFFENDER" target="_top">
<polygon fill="#ffffff" stroke="transparent" points="44.5,-417.7 44.5,-478.7 178.5,-478.7 178.5,-417.7 44.5,-417.7"/>
<polygon fill="#f5f5f5" stroke="transparent" points="44.5,-455.2 44.5,-478.2 178.5,-478.2 178.5,-455.2 44.5,-455.2"/>
<polygon fill="none" stroke="#000000" points="44.5,-455.2 44.5,-478.2 178.5,-478.2 178.5,-455.2 44.5,-455.2"/>
<text text-anchor="start" x="49.1646" y="-464.3" font-family="Helvetica,sans-Serif" font-weight="bold" font-size="11.00" fill="#000000">IAPS_OFFENDER</text>
<text text-anchor="start" x="144.0219" y="-463.3" font-family="Helvetica,sans-Serif" font-size="11.00" fill="#000000">[table]</text>
<polygon fill="none" stroke="#000000" points="44.5,-436.2 44.5,-455.2 178.5,-455.2 178.5,-436.2 44.5,-436.2"/>
<text text-anchor="start" x="47.5" y="-442.3" font-family="Helvetica,sans-Serif" font-size="11.00" fill="#000000">...</text>
<polygon fill="#ffffff" stroke="transparent" points="44.5,-417.2 44.5,-436.2 81.5,-436.2 81.5,-417.2 44.5,-417.2"/>
<polygon fill="none" stroke="#000000" points="44.5,-417.2 44.5,-436.2 81.5,-436.2 81.5,-417.2 44.5,-417.2"/>
<text text-anchor="start" x="47.5" y="-423.3" font-family="Helvetica,sans-Serif" font-size="11.00" fill="#000000"> &#160;</text>
<polygon fill="#ffffff" stroke="transparent" points="81.5,-417.2 81.5,-436.2 144.5,-436.2 144.5,-417.2 81.5,-417.2"/>
<polygon fill="none" stroke="#000000" points="81.5,-417.2 81.5,-436.2 144.5,-436.2 144.5,-417.2 81.5,-417.2"/>
<text text-anchor="start" x="96.8807" y="-423.3" font-family="Helvetica,sans-Serif" font-size="11.00" fill="#000000">388 rows</text>
<polygon fill="#ffffff" stroke="transparent" points="144.5,-417.2 144.5,-436.2 178.5,-436.2 178.5,-417.2 144.5,-417.2"/>
<polygon fill="none" stroke="#000000" points="144.5,-417.2 144.5,-436.2 178.5,-436.2 178.5,-417.2 144.5,-417.2"/>
<text text-anchor="start" x="159.9053" y="-423.3" font-family="Helvetica,sans-Serif" font-size="11.00" fill="#000000">3 &gt;</text>
</a>
</g>
</g>
<!-- V_CONTACT_ES&#45;&gt;IAPS_OFFENDER -->
<g id="edge4" class="edge">
<title>V_CONTACT_ES:w&#45;&gt;IAPS_OFFENDER:e</title>
<path fill="none" stroke="#000000" stroke-dasharray="5,2" d="M249.8134,-328.2774C229.5309,-339.6236 244.3788,-379.8707 223,-407.2 206.9756,-427.6845 204.5076,-445.2 178.5,-445.2"/>
<polygon fill="#000000" stroke="#000000" points="256.1818,-326.896 264.7632,-328.7182 260.0909,-326.048 264,-325.2 264,-325.2 264,-325.2 260.0909,-326.048 263.2368,-321.6818 256.1818,-326.896 256.1818,-326.896"/>
<ellipse fill="none" stroke="#000000" cx="253.0546" cy="-327.5744" rx="3.2" ry="3.2"/>
</g>
<!-- IAPS_RQMNT -->
<g id="node6" class="node">
<title>IAPS_RQMNT</title>
<g id="a_node6"><a xlink:href="../../tables/IAPS_RQMNT.html" xlink:title="IAPS_RQMNT" target="_top">
<polygon fill="#ffffff" stroke="transparent" points="54.5,-171.7 54.5,-232.7 168.5,-232.7 168.5,-171.7 54.5,-171.7"/>
<polygon fill="#f5f5f5" stroke="transparent" points="54.5,-209.2 54.5,-232.2 168.5,-232.2 168.5,-209.2 54.5,-209.2"/>
<polygon fill="none" stroke="#000000" points="54.5,-209.2 54.5,-232.2 168.5,-232.2 168.5,-209.2 54.5,-209.2"/>
<text text-anchor="start" x="59.25" y="-218.3" font-family="Helvetica,sans-Serif" font-weight="bold" font-size="11.00" fill="#000000">IAPS_RQMNT</text>
<text text-anchor="start" x="134.0219" y="-217.3" font-family="Helvetica,sans-Serif" font-size="11.00" fill="#000000">[table]</text>
<polygon fill="none" stroke="#000000" points="54.5,-190.2 54.5,-209.2 168.5,-209.2 168.5,-190.2 54.5,-190.2"/>
<text text-anchor="start" x="57.5" y="-196.3" font-family="Helvetica,sans-Serif" font-size="11.00" fill="#000000">...</text>
<polygon fill="#ffffff" stroke="transparent" points="54.5,-171.2 54.5,-190.2 81.5,-190.2 81.5,-171.2 54.5,-171.2"/>
<polygon fill="none" stroke="#000000" points="54.5,-171.2 54.5,-190.2 81.5,-190.2 81.5,-171.2 54.5,-171.2"/>
<text text-anchor="start" x="57.5" y="-177.3" font-family="Helvetica,sans-Serif" font-size="11.00" fill="#000000"> &#160;</text>
<polygon fill="#ffffff" stroke="transparent" points="81.5,-171.2 81.5,-190.2 139.5,-190.2 139.5,-171.2 81.5,-171.2"/>
<polygon fill="none" stroke="#000000" points="81.5,-171.2 81.5,-190.2 139.5,-190.2 139.5,-171.2 81.5,-171.2"/>
<text text-anchor="start" x="91.8807" y="-177.3" font-family="Helvetica,sans-Serif" font-size="11.00" fill="#000000">277 rows</text>
<polygon fill="#ffffff" stroke="transparent" points="139.5,-171.2 139.5,-190.2 168.5,-190.2 168.5,-171.2 139.5,-171.2"/>
<polygon fill="none" stroke="#000000" points="139.5,-171.2 139.5,-190.2 168.5,-190.2 168.5,-171.2 139.5,-171.2"/>
<text text-anchor="start" x="149.9053" y="-177.3" font-family="Helvetica,sans-Serif" font-size="11.00" fill="#000000">1 &gt;</text>
</a>
</g>
</g>
<!-- V_CONTACT_ES&#45;&gt;IAPS_RQMNT -->
<g id="edge5" class="edge">
<title>V_CONTACT_ES:w&#45;&gt;IAPS_RQMNT:e</title>
<path fill="none" stroke="#000000" stroke-dasharray="5,2" d="M249.3782,-257.2037C214.2568,-246.7928 213.1437,-199.2 168.5,-199.2"/>
<polygon fill="#000000" stroke="#000000" points="256.0735,-258.1178 263.513,-262.7669 260.0368,-258.6589 264,-259.2 264,-259.2 264,-259.2 260.0368,-258.6589 264.487,-255.6331 256.0735,-258.1178 256.0735,-258.1178"/>
<ellipse fill="none" stroke="#000000" cx="252.9029" cy="-257.6849" rx="3.2" ry="3.2"/>
</g>
</g>
</svg>
