<?xml version="1.0" encoding="UTF-8" standalone="no"?>
<!DOCTYPE svg PUBLIC "-//W3C//DTD SVG 1.1//EN"
 "http://www.w3.org/Graphics/SVG/1.1/DTD/svg11.dtd">
<!-- Generated by graphviz version 2.40.1 (20161225.0304)
 -->
<!-- Title: oneDegreeRelationshipsDiagram Pages: 1 -->
<svg width="751pt" height="507pt"
 viewBox="0.00 0.00 751.00 507.20" xmlns="http://www.w3.org/2000/svg" xmlns:xlink="http://www.w3.org/1999/xlink">
<g id="graph0" class="graph" transform="scale(1 1) rotate(0) translate(4 503.2)">
<title>oneDegreeRelationshipsDiagram</title>
<polygon fill="#ffffff" stroke="transparent" points="-4,4 -4,-503.2 747,-503.2 747,4 -4,4"/>
<text text-anchor="middle" x="72.4936" y="-7.3" font-family="Helvetica,sans-Serif" font-size="11.00" fill="#000000">Generated by SchemaSpy</text>
<!-- LOCAL_DELIVERY_UNIT -->
<g id="node1" class="node">
<title>LOCAL_DELIVERY_UNIT</title>
<g id="a_node1"><a xlink:href="../../tables/LOCAL_DELIVERY_UNIT.html" xlink:title="LOCAL_DELIVERY_UNIT" target="_top">
<polygon fill="#ffffff" stroke="transparent" points="503,-149.7 503,-437.7 735,-437.7 735,-149.7 503,-149.7"/>
<polygon fill="#f5f5f5" stroke="transparent" points="505,-412.7 505,-435.7 733,-435.7 733,-412.7 505,-412.7"/>
<polygon fill="none" stroke="#000000" points="505,-412.7 505,-435.7 733,-435.7 733,-412.7 505,-412.7"/>
<text text-anchor="start" x="510" y="-421.8" font-family="Helvetica,sans-Serif" font-weight="bold" font-size="11.00" fill="#000000">LOCAL_DELIVERY_UNIT</text>
<text text-anchor="start" x="698.0437" y="-420.8" font-family="Helvetica,sans-Serif" font-size="11.00" fill="#000000">[table]</text>
<polygon fill="none" stroke="#000000" points="505,-390.7 505,-412.7 666,-412.7 666,-390.7 505,-390.7"/>
<image xlink:href="../../images/primaryKeys.png" width="11px" height="12px" preserveAspectRatio="xMinYMin meet" x="510" y="-407.7"/>
<text text-anchor="start" x="520.2691" y="-397.8" font-family="Helvetica,sans-Serif" font-size="11.00" fill="#000000">LOCAL_DELIVERY_UNIT_ID</text>
<polygon fill="none" stroke="#000000" points="666,-390.7 666,-412.7 733,-412.7 733,-390.7 666,-390.7"/>
<text text-anchor="start" x="669" y="-398.4" font-family="Helvetica,sans-Serif" font-size="11.00" fill="#000000">number[38]</text>
<polygon fill="none" stroke="#000000" points="505,-368.7 505,-390.7 666,-390.7 666,-368.7 505,-368.7"/>
<image xlink:href="../../images/primaryKeys.png" width="11px" height="12px" preserveAspectRatio="xMinYMin meet" x="510" y="-385.7"/>
<text text-anchor="start" x="525" y="-375.8" font-family="Helvetica,sans-Serif" font-size="11.00" fill="#000000">CODE</text>
<polygon fill="none" stroke="#000000" points="666,-368.7 666,-390.7 733,-390.7 733,-368.7 666,-368.7"/>
<text text-anchor="start" x="668.9365" y="-376.4" font-family="Helvetica,sans-Serif" font-size="11.00" fill="#000000">varchar2[10]</text>
<polygon fill="none" stroke="#000000" points="505,-346.7 505,-368.7 666,-368.7 666,-346.7 505,-346.7"/>
<text text-anchor="start" x="525" y="-353.8" font-family="Helvetica,sans-Serif" font-size="11.00" fill="#000000">DESCRIPTION</text>
<polygon fill="none" stroke="#000000" points="666,-346.7 666,-368.7 733,-368.7 733,-346.7 666,-346.7"/>
<text text-anchor="start" x="668.9365" y="-354.4" font-family="Helvetica,sans-Serif" font-size="11.00" fill="#000000">varchar2[50]</text>
<polygon fill="none" stroke="#000000" points="505,-324.7 505,-346.7 666,-346.7 666,-324.7 505,-324.7"/>
<text text-anchor="start" x="525" y="-331.8" font-family="Helvetica,sans-Serif" font-size="11.00" fill="#000000">SELECTABLE</text>
<polygon fill="none" stroke="#000000" points="666,-324.7 666,-346.7 733,-346.7 733,-324.7 666,-324.7"/>
<text text-anchor="start" x="669" y="-332.4" font-family="Helvetica,sans-Serif" font-size="11.00" fill="#000000">char[1]</text>
<polygon fill="none" stroke="#000000" points="505,-302.7 505,-324.7 666,-324.7 666,-302.7 505,-302.7"/>
<text text-anchor="start" x="525" y="-309.8" font-family="Helvetica,sans-Serif" font-size="11.00" fill="#000000">ROW_VERSION</text>
<polygon fill="none" stroke="#000000" points="666,-302.7 666,-324.7 733,-324.7 733,-302.7 666,-302.7"/>
<text text-anchor="start" x="669" y="-310.4" font-family="Helvetica,sans-Serif" font-size="11.00" fill="#000000">number[38]</text>
<polygon fill="none" stroke="#000000" points="505,-280.7 505,-302.7 666,-302.7 666,-280.7 505,-280.7"/>
<text text-anchor="start" x="525" y="-287.8" font-family="Helvetica,sans-Serif" font-size="11.00" fill="#000000">CREATED_DATETIME</text>
<polygon fill="none" stroke="#000000" points="666,-280.7 666,-302.7 733,-302.7 733,-280.7 666,-280.7"/>
<text text-anchor="start" x="669" y="-288.4" font-family="Helvetica,sans-Serif" font-size="11.00" fill="#000000">date[7]</text>
<polygon fill="none" stroke="#000000" points="505,-258.7 505,-280.7 666,-280.7 666,-258.7 505,-258.7"/>
<text text-anchor="start" x="525" y="-265.8" font-family="Helvetica,sans-Serif" font-size="11.00" fill="#000000">CREATED_BY_USER_ID</text>
<polygon fill="none" stroke="#000000" points="666,-258.7 666,-280.7 733,-280.7 733,-258.7 666,-258.7"/>
<text text-anchor="start" x="669" y="-266.4" font-family="Helvetica,sans-Serif" font-size="11.00" fill="#000000">number[38]</text>
<polygon fill="none" stroke="#000000" points="505,-236.7 505,-258.7 666,-258.7 666,-236.7 505,-236.7"/>
<text text-anchor="start" x="519.0531" y="-243.8" font-family="Helvetica,sans-Serif" font-size="11.00" fill="#000000">LAST_UPDATED_DATETIME</text>
<polygon fill="none" stroke="#000000" points="666,-236.7 666,-258.7 733,-258.7 733,-236.7 666,-236.7"/>
<text text-anchor="start" x="669" y="-244.4" font-family="Helvetica,sans-Serif" font-size="11.00" fill="#000000">date[7]</text>
<polygon fill="none" stroke="#000000" points="505,-214.7 505,-236.7 666,-236.7 666,-214.7 505,-214.7"/>
<text text-anchor="start" x="523.0235" y="-221.8" font-family="Helvetica,sans-Serif" font-size="11.00" fill="#000000">LAST_UPDATED_USER_ID</text>
<polygon fill="none" stroke="#000000" points="666,-214.7 666,-236.7 733,-236.7 733,-214.7 666,-214.7"/>
<text text-anchor="start" x="669" y="-222.4" font-family="Helvetica,sans-Serif" font-size="11.00" fill="#000000">number[38]</text>
<polygon fill="none" stroke="#000000" points="505,-192.7 505,-214.7 666,-214.7 666,-192.7 505,-192.7"/>
<image xlink:href="../../images/primaryKeys.png" width="11px" height="12px" preserveAspectRatio="xMinYMin meet" x="510" y="-209.7"/>
<text text-anchor="start" x="525" y="-199.8" font-family="Helvetica,sans-Serif" font-size="11.00" fill="#000000">TRAINING_SESSION_ID</text>
<polygon fill="none" stroke="#000000" points="666,-192.7 666,-214.7 733,-214.7 733,-192.7 666,-192.7"/>
<text text-anchor="start" x="669" y="-200.4" font-family="Helvetica,sans-Serif" font-size="11.00" fill="#000000">number[38]</text>
<polygon fill="none" stroke="#000000" points="505,-170.7 505,-192.7 666,-192.7 666,-170.7 505,-170.7"/>
<image xlink:href="../../images/primaryKeys.png" width="11px" height="12px" preserveAspectRatio="xMinYMin meet" x="510" y="-187.7"/>
<text text-anchor="start" x="525" y="-177.8" font-family="Helvetica,sans-Serif" font-size="11.00" fill="#000000">PROBATION_AREA_ID</text>
<polygon fill="none" stroke="#000000" points="666,-170.7 666,-192.7 733,-192.7 733,-170.7 666,-170.7"/>
<text text-anchor="start" x="669" y="-178.4" font-family="Helvetica,sans-Serif" font-size="11.00" fill="#000000">number[38]</text>
<polygon fill="#ffffff" stroke="transparent" points="505,-151.7 505,-170.7 566,-170.7 566,-151.7 505,-151.7"/>
<polygon fill="none" stroke="#000000" points="505,-151.7 505,-170.7 566,-170.7 566,-151.7 505,-151.7"/>
<text text-anchor="start" x="508" y="-157.8" font-family="Helvetica,sans-Serif" font-size="11.00" fill="#000000">&lt; 1</text>
<polygon fill="#ffffff" stroke="transparent" points="566,-151.7 566,-170.7 666,-170.7 666,-151.7 566,-151.7"/>
<polygon fill="none" stroke="#000000" points="566,-151.7 566,-170.7 666,-170.7 666,-151.7 566,-151.7"/>
<text text-anchor="start" x="609.2089" y="-157.8" font-family="Helvetica,sans-Serif" font-size="11.00" fill="#000000">2,370 rows</text>
<polygon fill="#ffffff" stroke="transparent" points="666,-151.7 666,-170.7 733,-170.7 733,-151.7 666,-151.7"/>
<polygon fill="none" stroke="#000000" points="666,-151.7 666,-170.7 733,-170.7 733,-151.7 666,-151.7"/>
<text text-anchor="start" x="714.4053" y="-157.8" font-family="Helvetica,sans-Serif" font-size="11.00" fill="#000000">1 &gt;</text>
<polygon fill="none" stroke="#000000" stroke-width="2" points="504,-150.7 504,-436.7 734,-436.7 734,-150.7 504,-150.7"/>
</a>
</g>
</g>
<!-- PROBATION_AREA -->
<g id="node2" class="node">
<title>PROBATION_AREA</title>
<g id="a_node2"><a xlink:href="../../tables/PROBATION_AREA.html" xlink:title="PROBATION_AREA" target="_top">
<polygon fill="#ffffff" stroke="transparent" points="242,-148.2 242,-495.2 454,-495.2 454,-148.2 242,-148.2"/>
<polygon fill="#f5f5f5" stroke="transparent" points="242,-471.7 242,-494.7 454,-494.7 454,-471.7 242,-471.7"/>
<polygon fill="none" stroke="#000000" points="242,-471.7 242,-494.7 454,-494.7 454,-471.7 242,-471.7"/>
<text text-anchor="start" x="247" y="-480.8" font-family="Helvetica,sans-Serif" font-weight="bold" font-size="11.00" fill="#000000">PROBATION_AREA</text>
<text text-anchor="start" x="419.0437" y="-479.8" font-family="Helvetica,sans-Serif" font-size="11.00" fill="#000000">[table]</text>
<polygon fill="none" stroke="#000000" points="242,-449.7 242,-471.7 454,-471.7 454,-449.7 242,-449.7"/>
<image xlink:href="../../images/primaryKeys.png" width="11px" height="12px" preserveAspectRatio="xMinYMin meet" x="247" y="-466.7"/>
<text text-anchor="start" x="262" y="-456.8" font-family="Helvetica,sans-Serif" font-size="11.00" fill="#000000">PROBATION_AREA_ID</text>
<polygon fill="none" stroke="#000000" points="242,-427.7 242,-449.7 454,-449.7 454,-427.7 242,-427.7"/>
<image xlink:href="../../images/primaryKeys.png" width="11px" height="12px" preserveAspectRatio="xMinYMin meet" x="247" y="-444.7"/>
<text text-anchor="start" x="262" y="-434.8" font-family="Helvetica,sans-Serif" font-size="11.00" fill="#000000">CODE</text>
<polygon fill="none" stroke="#000000" points="242,-405.7 242,-427.7 454,-427.7 454,-405.7 242,-405.7"/>
<image xlink:href="../../images/primaryKeys.png" width="11px" height="12px" preserveAspectRatio="xMinYMin meet" x="247" y="-422.7"/>
<text text-anchor="start" x="262" y="-412.8" font-family="Helvetica,sans-Serif" font-size="11.00" fill="#000000">FORM_20_CODE</text>
<polygon fill="none" stroke="#000000" points="242,-383.7 242,-405.7 454,-405.7 454,-383.7 242,-383.7"/>
<image xlink:href="../../images/primaryKeys.png" width="11px" height="12px" preserveAspectRatio="xMinYMin meet" x="247" y="-400.7"/>
<text text-anchor="start" x="262" y="-390.8" font-family="Helvetica,sans-Serif" font-size="11.00" fill="#000000">HO_AREA_CODE</text>
<polygon fill="none" stroke="#000000" points="242,-361.7 242,-383.7 454,-383.7 454,-361.7 242,-361.7"/>
<image xlink:href="../../images/primaryKeys.png" width="11px" height="12px" preserveAspectRatio="xMinYMin meet" x="247" y="-378.7"/>
<text text-anchor="start" x="262" y="-368.8" font-family="Helvetica,sans-Serif" font-size="11.00" fill="#000000">TRAINING_SESSION_ID</text>
<polygon fill="none" stroke="#000000" points="242,-339.7 242,-361.7 454,-361.7 454,-339.7 242,-339.7"/>
<image xlink:href="../../images/primaryKeys.png" width="11px" height="12px" preserveAspectRatio="xMinYMin meet" x="247" y="-356.7"/>
<text text-anchor="start" x="262" y="-346.8" font-family="Helvetica,sans-Serif" font-size="11.00" fill="#000000">ORGANISATION_ID</text>
<polygon fill="none" stroke="#000000" points="242,-317.7 242,-339.7 454,-339.7 454,-317.7 242,-317.7"/>
<image xlink:href="../../images/primaryKeys.png" width="11px" height="12px" preserveAspectRatio="xMinYMin meet" x="247" y="-334.7"/>
<text text-anchor="start" x="262" y="-324.8" font-family="Helvetica,sans-Serif" font-size="11.00" fill="#000000">ADDRESS_ID</text>
<polygon fill="none" stroke="#000000" points="242,-295.7 242,-317.7 454,-317.7 454,-295.7 242,-295.7"/>
<image xlink:href="../../images/primaryKeys.png" width="11px" height="12px" preserveAspectRatio="xMinYMin meet" x="247" y="-312.7"/>
<text text-anchor="start" x="262" y="-302.8" font-family="Helvetica,sans-Serif" font-size="11.00" fill="#000000">SPG_ACTIVE_ID</text>
<polygon fill="none" stroke="#000000" points="242,-273.7 242,-295.7 454,-295.7 454,-273.7 242,-273.7"/>
<image xlink:href="../../images/primaryKeys.png" width="11px" height="12px" preserveAspectRatio="xMinYMin meet" x="247" y="-290.7"/>
<text text-anchor="start" x="262" y="-280.8" font-family="Helvetica,sans-Serif" font-size="11.00" fill="#000000">INSTITUTION_ID</text>
<polygon fill="none" stroke="#000000" points="242,-251.7 242,-273.7 454,-273.7 454,-251.7 242,-251.7"/>
<image xlink:href="../../images/primaryKeys.png" width="11px" height="12px" preserveAspectRatio="xMinYMin meet" x="247" y="-268.7"/>
<text text-anchor="start" x="262" y="-258.8" font-family="Helvetica,sans-Serif" font-size="11.00" fill="#000000">ESTABLISHMENT</text>
<polygon fill="none" stroke="#000000" points="242,-229.7 242,-251.7 454,-251.7 454,-229.7 242,-229.7"/>
<image xlink:href="../../images/primaryKeys.png" width="11px" height="12px" preserveAspectRatio="xMinYMin meet" x="247" y="-246.7"/>
<text text-anchor="start" x="262" y="-236.8" font-family="Helvetica,sans-Serif" font-size="11.00" fill="#000000">DEFAULT_TRANSFER_TEAM_ID</text>
<polygon fill="none" stroke="#000000" points="242,-207.7 242,-229.7 454,-229.7 454,-207.7 242,-207.7"/>
<image xlink:href="../../images/primaryKeys.png" width="11px" height="12px" preserveAspectRatio="xMinYMin meet" x="247" y="-224.7"/>
<text text-anchor="start" x="262" y="-214.8" font-family="Helvetica,sans-Serif" font-size="11.00" fill="#000000">DEFAULT_COURT_TEAM_ID</text>
<polygon fill="none" stroke="#000000" points="242,-185.7 242,-207.7 454,-207.7 454,-185.7 242,-185.7"/>
<image xlink:href="../../images/primaryKeys.png" width="11px" height="12px" preserveAspectRatio="xMinYMin meet" x="247" y="-202.7"/>
<text text-anchor="start" x="262" y="-192.8" font-family="Helvetica,sans-Serif" font-size="11.00" fill="#000000">DEFAULT_POSTCODE_TEAM_ID</text>
<polygon fill="none" stroke="#000000" points="242,-166.7 242,-185.7 454,-185.7 454,-166.7 242,-166.7"/>
<text text-anchor="start" x="245" y="-172.8" font-family="Helvetica,sans-Serif" font-size="11.00" fill="#000000">...</text>
<polygon fill="#ffffff" stroke="transparent" points="242,-147.7 242,-166.7 320,-166.7 320,-147.7 242,-147.7"/>
<polygon fill="none" stroke="#000000" points="242,-147.7 242,-166.7 320,-166.7 320,-147.7 242,-147.7"/>
<text text-anchor="start" x="245" y="-153.8" font-family="Helvetica,sans-Serif" font-size="11.00" fill="#000000">&lt; 8</text>
<polygon fill="#ffffff" stroke="transparent" points="320,-147.7 320,-166.7 398,-166.7 398,-147.7 320,-147.7"/>
<polygon fill="none" stroke="#000000" points="320,-147.7 320,-166.7 398,-166.7 398,-147.7 320,-147.7"/>
<text text-anchor="start" x="350.3807" y="-153.8" font-family="Helvetica,sans-Serif" font-size="11.00" fill="#000000">223 rows</text>
<polygon fill="#ffffff" stroke="transparent" points="398,-147.7 398,-166.7 454,-166.7 454,-147.7 398,-147.7"/>
<polygon fill="none" stroke="#000000" points="398,-147.7 398,-166.7 454,-166.7 454,-147.7 398,-147.7"/>
<text text-anchor="start" x="429.2904" y="-153.8" font-family="Helvetica,sans-Serif" font-size="11.00" fill="#000000">59 &gt;</text>
</a>
</g>
</g>
<!-- LOCAL_DELIVERY_UNIT&#45;&gt;PROBATION_AREA -->
<g id="edge1" class="edge">
<title>LOCAL_DELIVERY_UNIT:w&#45;&gt;PROBATION_AREA:e</title>
<path fill="none" stroke="#000000" d="M490.511,-183.2011C395.6241,-205.1614 574.6383,-460.7 454,-460.7"/>
<polygon fill="#000000" stroke="#000000" points="497.0426,-182.5245 505.371,-185.2808 501.0213,-182.1122 505,-181.7 505,-181.7 505,-181.7 501.0213,-182.1122 504.629,-178.1192 497.0426,-182.5245 497.0426,-182.5245"/>
<ellipse fill="none" stroke="#000000" cx="493.8596" cy="-182.8542" rx="3.2" ry="3.2"/>
</g>
<!-- TEAM -->
<g id="node3" class="node">
<title>TEAM</title>
<g id="a_node3"><a xlink:href="../../tables/TEAM.html" xlink:title="TEAM" target="_top">
<polygon fill="#ffffff" stroke="transparent" points="8,-38.2 8,-253.2 193,-253.2 193,-38.2 8,-38.2"/>
<polygon fill="#f5f5f5" stroke="transparent" points="8.5,-229.7 8.5,-252.7 193.5,-252.7 193.5,-229.7 8.5,-229.7"/>
<polygon fill="none" stroke="#000000" points="8.5,-229.7 8.5,-252.7 193.5,-252.7 193.5,-229.7 8.5,-229.7"/>
<text text-anchor="start" x="13.5" y="-238.8" font-family="Helvetica,sans-Serif" font-weight="bold" font-size="11.00" fill="#000000">TEAM</text>
<text text-anchor="start" x="158.5437" y="-237.8" font-family="Helvetica,sans-Serif" font-size="11.00" fill="#000000">[table]</text>
<polygon fill="none" stroke="#000000" points="8.5,-207.7 8.5,-229.7 193.5,-229.7 193.5,-207.7 8.5,-207.7"/>
<image xlink:href="../../images/primaryKeys.png" width="11px" height="12px" preserveAspectRatio="xMinYMin meet" x="13.5" y="-224.7"/>
<text text-anchor="start" x="28.5" y="-214.8" font-family="Helvetica,sans-Serif" font-size="11.00" fill="#000000">TEAM_ID</text>
<polygon fill="none" stroke="#000000" points="8.5,-185.7 8.5,-207.7 193.5,-207.7 193.5,-185.7 8.5,-185.7"/>
<image xlink:href="../../images/primaryKeys.png" width="11px" height="12px" preserveAspectRatio="xMinYMin meet" x="13.5" y="-202.7"/>
<text text-anchor="start" x="28.5" y="-192.8" font-family="Helvetica,sans-Serif" font-size="11.00" fill="#000000">CODE</text>
<polygon fill="none" stroke="#000000" points="8.5,-163.7 8.5,-185.7 193.5,-185.7 193.5,-163.7 8.5,-163.7"/>
<image xlink:href="../../images/primaryKeys.png" width="11px" height="12px" preserveAspectRatio="xMinYMin meet" x="13.5" y="-180.7"/>
<text text-anchor="start" x="28.5" y="-170.8" font-family="Helvetica,sans-Serif" font-size="11.00" fill="#000000">DISTRICT_ID</text>
<polygon fill="none" stroke="#000000" points="8.5,-141.7 8.5,-163.7 193.5,-163.7 193.5,-141.7 8.5,-141.7"/>
<image xlink:href="../../images/primaryKeys.png" width="11px" height="12px" preserveAspectRatio="xMinYMin meet" x="13.5" y="-158.7"/>
<text text-anchor="start" x="28.5" y="-148.8" font-family="Helvetica,sans-Serif" font-size="11.00" fill="#000000">LOCAL_DELIVERY_UNIT_ID</text>
<polygon fill="none" stroke="#000000" points="8.5,-119.7 8.5,-141.7 193.5,-141.7 193.5,-119.7 8.5,-119.7"/>
<image xlink:href="../../images/primaryKeys.png" width="11px" height="12px" preserveAspectRatio="xMinYMin meet" x="13.5" y="-136.7"/>
<text text-anchor="start" x="28.5" y="-126.8" font-family="Helvetica,sans-Serif" font-size="11.00" fill="#000000">TRAINING_SESSION_ID</text>
<polygon fill="none" stroke="#000000" points="8.5,-97.7 8.5,-119.7 193.5,-119.7 193.5,-97.7 8.5,-97.7"/>
<image xlink:href="../../images/primaryKeys.png" width="11px" height="12px" preserveAspectRatio="xMinYMin meet" x="13.5" y="-114.7"/>
<text text-anchor="start" x="28.5" y="-104.8" font-family="Helvetica,sans-Serif" font-size="11.00" fill="#000000">PROBATION_AREA_ID</text>
<polygon fill="none" stroke="#000000" points="8.5,-75.7 8.5,-97.7 193.5,-97.7 193.5,-75.7 8.5,-75.7"/>
<image xlink:href="../../images/primaryKeys.png" width="11px" height="12px" preserveAspectRatio="xMinYMin meet" x="13.5" y="-92.7"/>
<text text-anchor="start" x="28.5" y="-82.8" font-family="Helvetica,sans-Serif" font-size="11.00" fill="#000000">SC_PROVIDER_ID</text>
<polygon fill="none" stroke="#000000" points="8.5,-56.7 8.5,-75.7 193.5,-75.7 193.5,-56.7 8.5,-56.7"/>
<text text-anchor="start" x="11.5" y="-62.8" font-family="Helvetica,sans-Serif" font-size="11.00" fill="#000000">...</text>
<polygon fill="#ffffff" stroke="transparent" points="8.5,-37.7 8.5,-56.7 68.5,-56.7 68.5,-37.7 8.5,-37.7"/>
<polygon fill="none" stroke="#000000" points="8.5,-37.7 8.5,-56.7 68.5,-56.7 68.5,-37.7 8.5,-37.7"/>
<text text-anchor="start" x="11.5" y="-43.8" font-family="Helvetica,sans-Serif" font-size="11.00" fill="#000000">&lt; 4</text>
<polygon fill="#ffffff" stroke="transparent" points="68.5,-37.7 68.5,-56.7 146.5,-56.7 146.5,-37.7 68.5,-37.7"/>
<polygon fill="none" stroke="#000000" points="68.5,-37.7 68.5,-56.7 146.5,-56.7 146.5,-37.7 68.5,-37.7"/>
<text text-anchor="start" x="89.7089" y="-43.8" font-family="Helvetica,sans-Serif" font-size="11.00" fill="#000000">1,458 rows</text>
<polygon fill="#ffffff" stroke="transparent" points="146.5,-37.7 146.5,-56.7 193.5,-56.7 193.5,-37.7 146.5,-37.7"/>
<polygon fill="none" stroke="#000000" points="146.5,-37.7 146.5,-56.7 193.5,-56.7 193.5,-37.7 146.5,-37.7"/>
<text text-anchor="start" x="168.7904" y="-43.8" font-family="Helvetica,sans-Serif" font-size="11.00" fill="#000000">62 &gt;</text>
</a>
</g>
</g>
<!-- PROBATION_AREA&#45;&gt;TEAM -->
<g id="edge2" class="edge">
<title>PROBATION_AREA:w&#45;&gt;TEAM:e</title>
<path fill="none" stroke="#000000" d="M227.2829,-218.7C216.2886,-218.7 209.1615,-218.7 193.5,-218.7"/>
<polygon fill="#000000" stroke="#000000" points="234,-218.7001 242,-222.3 238,-218.7 242,-218.7 242,-218.7 242,-218.7 238,-218.7 242,-215.1 234,-218.7001 234,-218.7001"/>
<ellipse fill="none" stroke="#000000" cx="230.8" cy="-218.7001" rx="3.2" ry="3.2"/>
</g>
<!-- PROBATION_AREA&#45;&gt;TEAM -->
<g id="edge3" class="edge">
<title>PROBATION_AREA:w&#45;&gt;TEAM:e</title>
<path fill="none" stroke="#000000" d="M227.7648,-200.1375C216.3432,-206.325 211.2522,-218.7 193.5,-218.7"/>
<polygon fill="#000000" stroke="#000000" points="234.2235,-198.5779 242.8451,-200.1994 238.1118,-197.6389 242,-196.7 242,-196.7 242,-196.7 238.1118,-197.6389 241.1549,-193.2006 234.2235,-198.5779 234.2235,-198.5779"/>
<ellipse fill="none" stroke="#000000" cx="231.1129" cy="-199.3291" rx="3.2" ry="3.2"/>
</g>
<!-- PROBATION_AREA&#45;&gt;TEAM -->
<g id="edge4" class="edge">
<title>PROBATION_AREA:w&#45;&gt;TEAM:e</title>
<path fill="none" stroke="#000000" d="M227.7648,-237.2625C216.3432,-231.075 211.2522,-218.7 193.5,-218.7"/>
<polygon fill="#000000" stroke="#000000" points="234.2235,-238.8221 241.1549,-244.1994 238.1118,-239.7611 242,-240.7 242,-240.7 242,-240.7 238.1118,-239.7611 242.8451,-237.2006 234.2235,-238.8221 234.2235,-238.8221"/>
<ellipse fill="none" stroke="#000000" cx="231.1129" cy="-238.0709" rx="3.2" ry="3.2"/>
</g>
<!-- TEAM&#45;&gt;LOCAL_DELIVERY_UNIT -->
<g id="edge5" class="edge">
<title>TEAM:w&#45;&gt;LOCAL_DELIVERY_UNIT:e</title>
<path fill="none" stroke="#000000" d="M21.4294,-159.7188C64.5903,-183.149 201,-257.2 201,-257.2 244.8407,-223.825 190.1593,-171.075 234,-137.7 314.6281,-76.3196 368.1285,-99.5347 462,-137.7 462,-137.7 733,-401.7 733,-401.7"/>
<polygon fill="#000000" stroke="#000000" points="15.5308,-156.5168 10.2175,-149.5361 12.0154,-154.6084 8.5,-152.7 8.5,-152.7 8.5,-152.7 12.0154,-154.6084 6.7825,-155.8639 15.5308,-156.5168 15.5308,-156.5168"/>
<ellipse fill="none" stroke="#000000" cx="18.3432" cy="-158.0435" rx="3.2" ry="3.2"/>
</g>
<!-- TEAM&#45;&gt;PROBATION_AREA -->
<g id="edge6" class="edge">
<title>TEAM:w&#45;&gt;PROBATION_AREA:e</title>
<path fill="none" stroke="#000000" d="M22.0362,-103.4613C65.8533,-86.5035 201,-34.2 201,-34.2 276.7999,-104.8112 158.2001,-428.5888 234,-499.2 234,-499.2 454,-460.7 454,-460.7"/>
<polygon fill="#000000" stroke="#000000" points="15.9608,-105.8126 7.2007,-105.3427 12.2304,-107.2563 8.5,-108.7 8.5,-108.7 8.5,-108.7 12.2304,-107.2563 9.7993,-112.0573 15.9608,-105.8126 15.9608,-105.8126"/>
<ellipse fill="none" stroke="#000000" cx="18.9451" cy="-104.6576" rx="3.2" ry="3.2"/>
</g>
</g>
</svg>
