<?xml version="1.0" encoding="UTF-8" standalone="no"?>
<!DOCTYPE svg PUBLIC "-//W3C//DTD SVG 1.1//EN"
 "http://www.w3.org/Graphics/SVG/1.1/DTD/svg11.dtd">
<!-- Generated by graphviz version 2.40.1 (20161225.0304)
 -->
<!-- Title: oneDegreeRelationshipsDiagram Pages: 1 -->
<svg width="772pt" height="474pt"
 viewBox="0.00 0.00 772.00 473.70" xmlns="http://www.w3.org/2000/svg" xmlns:xlink="http://www.w3.org/1999/xlink">
<g id="graph0" class="graph" transform="scale(1 1) rotate(0) translate(4 469.7)">
<title>oneDegreeRelationshipsDiagram</title>
<polygon fill="#ffffff" stroke="transparent" points="-4,4 -4,-469.7 768,-469.7 768,4 -4,4"/>
<text text-anchor="middle" x="72.4936" y="-7.3" font-family="Helvetica,sans-Serif" font-size="11.00" fill="#000000">Generated by SchemaSpy</text>
<!-- LOST_BEDS -->
<g id="node1" class="node">
<title>LOST_BEDS</title>
<g id="a_node1"><a xlink:href="../../tables/LOST_BEDS.html" xlink:title="LOST_BEDS" target="_top">
<polygon fill="#ffffff" stroke="transparent" points="524,-85.7 524,-461.7 756,-461.7 756,-85.7 524,-85.7"/>
<polygon fill="#f5f5f5" stroke="transparent" points="526,-436.7 526,-459.7 754,-459.7 754,-436.7 526,-436.7"/>
<polygon fill="none" stroke="#000000" points="526,-436.7 526,-459.7 754,-459.7 754,-436.7 526,-436.7"/>
<text text-anchor="start" x="531" y="-445.8" font-family="Helvetica,sans-Serif" font-weight="bold" font-size="11.00" fill="#000000">LOST_BEDS</text>
<text text-anchor="start" x="719.0437" y="-444.8" font-family="Helvetica,sans-Serif" font-size="11.00" fill="#000000">[table]</text>
<polygon fill="none" stroke="#000000" points="526,-414.7 526,-436.7 687,-436.7 687,-414.7 526,-414.7"/>
<image xlink:href="../../images/primaryKeys.png" width="11px" height="12px" preserveAspectRatio="xMinYMin meet" x="531" y="-431.7"/>
<text text-anchor="start" x="546" y="-421.8" font-family="Helvetica,sans-Serif" font-size="11.00" fill="#000000">LOST_BEDS_ID</text>
<polygon fill="none" stroke="#000000" points="687,-414.7 687,-436.7 754,-436.7 754,-414.7 687,-414.7"/>
<text text-anchor="start" x="690" y="-422.4" font-family="Helvetica,sans-Serif" font-size="11.00" fill="#000000">number[38]</text>
<polygon fill="none" stroke="#000000" points="526,-392.7 526,-414.7 687,-414.7 687,-392.7 526,-392.7"/>
<text text-anchor="start" x="546" y="-399.8" font-family="Helvetica,sans-Serif" font-size="11.00" fill="#000000">START_DATE</text>
<polygon fill="none" stroke="#000000" points="687,-392.7 687,-414.7 754,-414.7 754,-392.7 687,-392.7"/>
<text text-anchor="start" x="690" y="-400.4" font-family="Helvetica,sans-Serif" font-size="11.00" fill="#000000">date[7]</text>
<polygon fill="none" stroke="#000000" points="526,-370.7 526,-392.7 687,-392.7 687,-370.7 526,-370.7"/>
<text text-anchor="start" x="546" y="-377.8" font-family="Helvetica,sans-Serif" font-size="11.00" fill="#000000">END_DATE</text>
<polygon fill="none" stroke="#000000" points="687,-370.7 687,-392.7 754,-392.7 754,-370.7 687,-370.7"/>
<text text-anchor="start" x="690" y="-378.4" font-family="Helvetica,sans-Serif" font-size="11.00" fill="#000000">date[7]</text>
<polygon fill="none" stroke="#000000" points="526,-348.7 526,-370.7 687,-370.7 687,-348.7 526,-348.7"/>
<text text-anchor="start" x="544.023" y="-355.8" font-family="Helvetica,sans-Serif" font-size="11.00" fill="#000000">NUMBER_OF_BEDS_LOST</text>
<polygon fill="none" stroke="#000000" points="687,-348.7 687,-370.7 754,-370.7 754,-348.7 687,-348.7"/>
<text text-anchor="start" x="690" y="-356.4" font-family="Helvetica,sans-Serif" font-size="11.00" fill="#000000">number[38]</text>
<polygon fill="none" stroke="#000000" points="526,-326.7 526,-348.7 687,-348.7 687,-326.7 526,-326.7"/>
<image xlink:href="../../images/primaryKeys.png" width="11px" height="12px" preserveAspectRatio="xMinYMin meet" x="531" y="-343.7"/>
<text text-anchor="start" x="546" y="-333.8" font-family="Helvetica,sans-Serif" font-size="11.00" fill="#000000">PARTITION_AREA_ID</text>
<polygon fill="none" stroke="#000000" points="687,-326.7 687,-348.7 754,-348.7 754,-326.7 687,-326.7"/>
<text text-anchor="start" x="690" y="-334.4" font-family="Helvetica,sans-Serif" font-size="11.00" fill="#000000">number[38]</text>
<polygon fill="none" stroke="#000000" points="526,-304.7 526,-326.7 687,-326.7 687,-304.7 526,-304.7"/>
<text text-anchor="start" x="546" y="-311.8" font-family="Helvetica,sans-Serif" font-size="11.00" fill="#000000">ROW_VERSION</text>
<polygon fill="none" stroke="#000000" points="687,-304.7 687,-326.7 754,-326.7 754,-304.7 687,-304.7"/>
<text text-anchor="start" x="690" y="-312.4" font-family="Helvetica,sans-Serif" font-size="11.00" fill="#000000">number[38]</text>
<polygon fill="none" stroke="#000000" points="526,-282.7 526,-304.7 687,-304.7 687,-282.7 526,-282.7"/>
<image xlink:href="../../images/primaryKeys.png" width="11px" height="12px" preserveAspectRatio="xMinYMin meet" x="531" y="-299.7"/>
<text text-anchor="start" x="546" y="-289.8" font-family="Helvetica,sans-Serif" font-size="11.00" fill="#000000">REASON_FOR_LOSS_ID</text>
<polygon fill="none" stroke="#000000" points="687,-282.7 687,-304.7 754,-304.7 754,-282.7 687,-282.7"/>
<text text-anchor="start" x="690" y="-290.4" font-family="Helvetica,sans-Serif" font-size="11.00" fill="#000000">number[38]</text>
<polygon fill="none" stroke="#000000" points="526,-260.7 526,-282.7 687,-282.7 687,-260.7 526,-260.7"/>
<image xlink:href="../../images/primaryKeys.png" width="11px" height="12px" preserveAspectRatio="xMinYMin meet" x="531" y="-277.7"/>
<text text-anchor="start" x="543.4075" y="-267.8" font-family="Helvetica,sans-Serif" font-size="11.00" fill="#000000">APPROVED_PREMISES_ID</text>
<polygon fill="none" stroke="#000000" points="687,-260.7 687,-282.7 754,-282.7 754,-260.7 687,-260.7"/>
<text text-anchor="start" x="690" y="-268.4" font-family="Helvetica,sans-Serif" font-size="11.00" fill="#000000">number[38]</text>
<polygon fill="none" stroke="#000000" points="526,-238.7 526,-260.7 687,-260.7 687,-238.7 526,-238.7"/>
<text text-anchor="start" x="546" y="-245.8" font-family="Helvetica,sans-Serif" font-size="11.00" fill="#000000">CREATED_BY_USER_ID</text>
<polygon fill="none" stroke="#000000" points="687,-238.7 687,-260.7 754,-260.7 754,-238.7 687,-238.7"/>
<text text-anchor="start" x="690" y="-246.4" font-family="Helvetica,sans-Serif" font-size="11.00" fill="#000000">number[38]</text>
<polygon fill="none" stroke="#000000" points="526,-216.7 526,-238.7 687,-238.7 687,-216.7 526,-216.7"/>
<text text-anchor="start" x="546" y="-223.8" font-family="Helvetica,sans-Serif" font-size="11.00" fill="#000000">CREATED_DATETIME</text>
<polygon fill="none" stroke="#000000" points="687,-216.7 687,-238.7 754,-238.7 754,-216.7 687,-216.7"/>
<text text-anchor="start" x="690" y="-224.4" font-family="Helvetica,sans-Serif" font-size="11.00" fill="#000000">date[7]</text>
<polygon fill="none" stroke="#000000" points="526,-194.7 526,-216.7 687,-216.7 687,-194.7 526,-194.7"/>
<text text-anchor="start" x="544.0235" y="-201.8" font-family="Helvetica,sans-Serif" font-size="11.00" fill="#000000">LAST_UPDATED_USER_ID</text>
<polygon fill="none" stroke="#000000" points="687,-194.7 687,-216.7 754,-216.7 754,-194.7 687,-194.7"/>
<text text-anchor="start" x="690" y="-202.4" font-family="Helvetica,sans-Serif" font-size="11.00" fill="#000000">number[38]</text>
<polygon fill="none" stroke="#000000" points="526,-172.7 526,-194.7 687,-194.7 687,-172.7 526,-172.7"/>
<text text-anchor="start" x="540.0531" y="-179.8" font-family="Helvetica,sans-Serif" font-size="11.00" fill="#000000">LAST_UPDATED_DATETIME</text>
<polygon fill="none" stroke="#000000" points="687,-172.7 687,-194.7 754,-194.7 754,-172.7 687,-172.7"/>
<text text-anchor="start" x="690" y="-180.4" font-family="Helvetica,sans-Serif" font-size="11.00" fill="#000000">date[7]</text>
<polygon fill="none" stroke="#000000" points="526,-150.7 526,-172.7 687,-172.7 687,-150.7 526,-150.7"/>
<image xlink:href="../../images/primaryKeys.png" width="11px" height="12px" preserveAspectRatio="xMinYMin meet" x="531" y="-167.7"/>
<text text-anchor="start" x="546" y="-157.8" font-family="Helvetica,sans-Serif" font-size="11.00" fill="#000000">TRAINING_SESSION_ID</text>
<polygon fill="none" stroke="#000000" points="687,-150.7 687,-172.7 754,-172.7 754,-150.7 687,-150.7"/>
<text text-anchor="start" x="690" y="-158.4" font-family="Helvetica,sans-Serif" font-size="11.00" fill="#000000">number[38]</text>
<polygon fill="none" stroke="#000000" points="526,-128.7 526,-150.7 687,-150.7 687,-128.7 526,-128.7"/>
<text text-anchor="start" x="546" y="-135.8" font-family="Helvetica,sans-Serif" font-size="11.00" fill="#000000">NOTES</text>
<polygon fill="none" stroke="#000000" points="687,-128.7 687,-150.7 754,-150.7 754,-128.7 687,-128.7"/>
<text text-anchor="start" x="690" y="-136.4" font-family="Helvetica,sans-Serif" font-size="11.00" fill="#000000">clob[4000]</text>
<polygon fill="none" stroke="#000000" points="526,-106.7 526,-128.7 687,-128.7 687,-106.7 526,-106.7"/>
<text text-anchor="start" x="546" y="-113.8" font-family="Helvetica,sans-Serif" font-size="11.00" fill="#000000">EXTERNAL_REFERENCE</text>
<polygon fill="none" stroke="#000000" points="687,-106.7 687,-128.7 754,-128.7 754,-106.7 687,-106.7"/>
<text text-anchor="start" x="689.9365" y="-114.4" font-family="Helvetica,sans-Serif" font-size="11.00" fill="#000000">varchar2[30]</text>
<polygon fill="#ffffff" stroke="transparent" points="526,-87.7 526,-106.7 595,-106.7 595,-87.7 526,-87.7"/>
<polygon fill="none" stroke="#000000" points="526,-87.7 526,-106.7 595,-106.7 595,-87.7 526,-87.7"/>
<text text-anchor="start" x="529" y="-93.8" font-family="Helvetica,sans-Serif" font-size="11.00" fill="#000000">&lt; 3</text>
<polygon fill="#ffffff" stroke="transparent" points="595,-87.7 595,-106.7 687,-106.7 687,-87.7 595,-87.7"/>
<polygon fill="none" stroke="#000000" points="595,-87.7 595,-106.7 687,-106.7 687,-87.7 595,-87.7"/>
<text text-anchor="start" x="645.4956" y="-93.8" font-family="Helvetica,sans-Serif" font-size="11.00" fill="#000000">92 rows</text>
<polygon fill="#ffffff" stroke="transparent" points="687,-87.7 687,-106.7 754,-106.7 754,-87.7 687,-87.7"/>
<polygon fill="none" stroke="#000000" points="687,-87.7 687,-106.7 754,-106.7 754,-87.7 687,-87.7"/>
<text text-anchor="start" x="735.4053" y="-93.8" font-family="Helvetica,sans-Serif" font-size="11.00" fill="#000000">0 &gt;</text>
<polygon fill="none" stroke="#000000" stroke-width="2" points="525,-86.7 525,-460.7 755,-460.7 755,-86.7 525,-86.7"/>
</a>
</g>
</g>
<!-- R_APPROVED_PREMISES -->
<g id="node2" class="node">
<title>R_APPROVED_PREMISES</title>
<g id="a_node2"><a xlink:href="../../tables/R_APPROVED_PREMISES.html" xlink:title="R_APPROVED_PREMISES" target="_top">
<polygon fill="#ffffff" stroke="transparent" points="277,-49.2 277,-286.2 475,-286.2 475,-49.2 277,-49.2"/>
<polygon fill="#f5f5f5" stroke="transparent" points="277,-262.7 277,-285.7 475,-285.7 475,-262.7 277,-262.7"/>
<polygon fill="none" stroke="#000000" points="277,-262.7 277,-285.7 475,-285.7 475,-262.7 277,-262.7"/>
<text text-anchor="start" x="282" y="-271.8" font-family="Helvetica,sans-Serif" font-weight="bold" font-size="11.00" fill="#000000">R_APPROVED_PREMISES</text>
<text text-anchor="start" x="440.0437" y="-270.8" font-family="Helvetica,sans-Serif" font-size="11.00" fill="#000000">[table]</text>
<polygon fill="none" stroke="#000000" points="277,-240.7 277,-262.7 475,-262.7 475,-240.7 277,-240.7"/>
<image xlink:href="../../images/primaryKeys.png" width="11px" height="12px" preserveAspectRatio="xMinYMin meet" x="282" y="-257.7"/>
<text text-anchor="start" x="297" y="-247.8" font-family="Helvetica,sans-Serif" font-size="11.00" fill="#000000">APPROVED_PREMISES_ID</text>
<polygon fill="none" stroke="#000000" points="277,-218.7 277,-240.7 475,-240.7 475,-218.7 277,-218.7"/>
<image xlink:href="../../images/primaryKeys.png" width="11px" height="12px" preserveAspectRatio="xMinYMin meet" x="282" y="-235.7"/>
<text text-anchor="start" x="297" y="-225.8" font-family="Helvetica,sans-Serif" font-size="11.00" fill="#000000">ADDRESS_ID</text>
<polygon fill="none" stroke="#000000" points="277,-196.7 277,-218.7 475,-218.7 475,-196.7 277,-196.7"/>
<image xlink:href="../../images/primaryKeys.png" width="11px" height="12px" preserveAspectRatio="xMinYMin meet" x="282" y="-213.7"/>
<text text-anchor="start" x="297" y="-203.8" font-family="Helvetica,sans-Serif" font-size="11.00" fill="#000000">PARTITION_AREA_ID</text>
<polygon fill="none" stroke="#000000" points="277,-174.7 277,-196.7 475,-196.7 475,-174.7 277,-174.7"/>
<image xlink:href="../../images/primaryKeys.png" width="11px" height="12px" preserveAspectRatio="xMinYMin meet" x="282" y="-191.7"/>
<text text-anchor="start" x="297" y="-181.8" font-family="Helvetica,sans-Serif" font-size="11.00" fill="#000000">TRAINING_SESSION_ID</text>
<polygon fill="none" stroke="#000000" points="277,-152.7 277,-174.7 475,-174.7 475,-152.7 277,-152.7"/>
<image xlink:href="../../images/primaryKeys.png" width="11px" height="12px" preserveAspectRatio="xMinYMin meet" x="282" y="-169.7"/>
<text text-anchor="start" x="295.4863" y="-159.8" font-family="Helvetica,sans-Serif" font-size="11.00" fill="#000000">APPROVED_PREMISES_TYPE_ID</text>
<polygon fill="none" stroke="#000000" points="277,-130.7 277,-152.7 475,-152.7 475,-130.7 277,-130.7"/>
<image xlink:href="../../images/primaryKeys.png" width="11px" height="12px" preserveAspectRatio="xMinYMin meet" x="282" y="-147.7"/>
<text text-anchor="start" x="297" y="-137.8" font-family="Helvetica,sans-Serif" font-size="11.00" fill="#000000">NATIONAL_HOSTEL_CODE</text>
<polygon fill="none" stroke="#000000" points="277,-108.7 277,-130.7 475,-130.7 475,-108.7 277,-108.7"/>
<image xlink:href="../../images/primaryKeys.png" width="11px" height="12px" preserveAspectRatio="xMinYMin meet" x="282" y="-125.7"/>
<text text-anchor="start" x="297" y="-115.8" font-family="Helvetica,sans-Serif" font-size="11.00" fill="#000000">GENDER_SUITABILITY_ID</text>
<polygon fill="none" stroke="#000000" points="277,-86.7 277,-108.7 475,-108.7 475,-86.7 277,-86.7"/>
<image xlink:href="../../images/primaryKeys.png" width="11px" height="12px" preserveAspectRatio="xMinYMin meet" x="282" y="-103.7"/>
<text text-anchor="start" x="297" y="-93.8" font-family="Helvetica,sans-Serif" font-size="11.00" fill="#000000">PROBATION_AREA_ID</text>
<polygon fill="none" stroke="#000000" points="277,-67.7 277,-86.7 475,-86.7 475,-67.7 277,-67.7"/>
<text text-anchor="start" x="280" y="-73.8" font-family="Helvetica,sans-Serif" font-size="11.00" fill="#000000">...</text>
<polygon fill="#ffffff" stroke="transparent" points="277,-48.7 277,-67.7 348,-67.7 348,-48.7 277,-48.7"/>
<polygon fill="none" stroke="#000000" points="277,-48.7 277,-67.7 348,-67.7 348,-48.7 277,-48.7"/>
<text text-anchor="start" x="280" y="-54.8" font-family="Helvetica,sans-Serif" font-size="11.00" fill="#000000">&lt; 6</text>
<polygon fill="#ffffff" stroke="transparent" points="348,-48.7 348,-67.7 423,-67.7 423,-48.7 348,-48.7"/>
<polygon fill="none" stroke="#000000" points="348,-48.7 348,-67.7 423,-67.7 423,-48.7 348,-48.7"/>
<text text-anchor="start" x="375.3807" y="-54.8" font-family="Helvetica,sans-Serif" font-size="11.00" fill="#000000">159 rows</text>
<polygon fill="#ffffff" stroke="transparent" points="423,-48.7 423,-67.7 475,-67.7 475,-48.7 423,-48.7"/>
<polygon fill="none" stroke="#000000" points="423,-48.7 423,-67.7 475,-67.7 475,-48.7 423,-48.7"/>
<text text-anchor="start" x="450.2904" y="-54.8" font-family="Helvetica,sans-Serif" font-size="11.00" fill="#000000">12 &gt;</text>
</a>
</g>
</g>
<!-- LOST_BEDS&#45;&gt;R_APPROVED_PREMISES -->
<g id="edge1" class="edge">
<title>LOST_BEDS:w&#45;&gt;R_APPROVED_PREMISES:e</title>
<path fill="none" stroke="#000000" d="M511.5625,-268.7489C499.2432,-263.1856 493.4507,-251.7 475,-251.7"/>
<polygon fill="#000000" stroke="#000000" points="518.1621,-270.0979 525.279,-275.2271 522.081,-270.8989 526,-271.7 526,-271.7 526,-271.7 522.081,-270.8989 526.721,-268.1729 518.1621,-270.0979 518.1621,-270.0979"/>
<ellipse fill="none" stroke="#000000" cx="515.0269" cy="-269.457" rx="3.2" ry="3.2"/>
</g>
<!-- PARTITION_AREA -->
<g id="node3" class="node">
<title>PARTITION_AREA</title>
<g id="a_node3"><a xlink:href="../../tables/PARTITION_AREA.html" xlink:title="PARTITION_AREA" target="_top">
<polygon fill="#ffffff" stroke="transparent" points="47,-237.2 47,-342.2 189,-342.2 189,-237.2 47,-237.2"/>
<polygon fill="#f5f5f5" stroke="transparent" points="47,-318.7 47,-341.7 189,-341.7 189,-318.7 47,-318.7"/>
<polygon fill="none" stroke="#000000" points="47,-318.7 47,-341.7 189,-341.7 189,-318.7 47,-318.7"/>
<text text-anchor="start" x="52" y="-327.8" font-family="Helvetica,sans-Serif" font-weight="bold" font-size="11.00" fill="#000000">PARTITION_AREA</text>
<text text-anchor="start" x="154.0437" y="-326.8" font-family="Helvetica,sans-Serif" font-size="11.00" fill="#000000">[table]</text>
<polygon fill="none" stroke="#000000" points="47,-296.7 47,-318.7 189,-318.7 189,-296.7 47,-296.7"/>
<image xlink:href="../../images/primaryKeys.png" width="11px" height="12px" preserveAspectRatio="xMinYMin meet" x="52" y="-313.7"/>
<text text-anchor="start" x="67" y="-303.8" font-family="Helvetica,sans-Serif" font-size="11.00" fill="#000000">PARTITION_AREA_ID</text>
<polygon fill="none" stroke="#000000" points="47,-274.7 47,-296.7 189,-296.7 189,-274.7 47,-274.7"/>
<image xlink:href="../../images/primaryKeys.png" width="11px" height="12px" preserveAspectRatio="xMinYMin meet" x="52" y="-291.7"/>
<text text-anchor="start" x="63.1624" y="-281.8" font-family="Helvetica,sans-Serif" font-size="11.00" fill="#000000">TRAINING_SESSION_ID</text>
<polygon fill="none" stroke="#000000" points="47,-255.7 47,-274.7 189,-274.7 189,-255.7 47,-255.7"/>
<text text-anchor="start" x="50" y="-261.8" font-family="Helvetica,sans-Serif" font-size="11.00" fill="#000000">...</text>
<polygon fill="#ffffff" stroke="transparent" points="47,-236.7 47,-255.7 88,-255.7 88,-236.7 47,-236.7"/>
<polygon fill="none" stroke="#000000" points="47,-236.7 47,-255.7 88,-255.7 88,-236.7 47,-236.7"/>
<text text-anchor="start" x="50" y="-242.8" font-family="Helvetica,sans-Serif" font-size="11.00" fill="#000000"> &#160;</text>
<polygon fill="#ffffff" stroke="transparent" points="88,-236.7 88,-255.7 147,-255.7 147,-236.7 88,-236.7"/>
<polygon fill="none" stroke="#000000" points="88,-236.7 88,-255.7 147,-255.7 147,-236.7 88,-236.7"/>
<text text-anchor="start" x="105.4956" y="-242.8" font-family="Helvetica,sans-Serif" font-size="11.00" fill="#000000">44 rows</text>
<polygon fill="#ffffff" stroke="transparent" points="147,-236.7 147,-255.7 189,-255.7 189,-236.7 147,-236.7"/>
<polygon fill="none" stroke="#000000" points="147,-236.7 147,-255.7 189,-255.7 189,-236.7 147,-236.7"/>
<text text-anchor="start" x="164.2904" y="-242.8" font-family="Helvetica,sans-Serif" font-size="11.00" fill="#000000">82 &gt;</text>
</a>
</g>
</g>
<!-- LOST_BEDS&#45;&gt;PARTITION_AREA -->
<g id="edge2" class="edge">
<title>LOST_BEDS:w&#45;&gt;PARTITION_AREA:e</title>
<path fill="none" stroke="#000000" d="M511.3904,-337.6763C408.8334,-337.3288 377.7363,-333.1027 269,-320.7 233.2101,-316.6177 225.0219,-307.7 189,-307.7"/>
<polygon fill="#000000" stroke="#000000" points="518,-337.6869 525.9941,-341.3 522,-337.6935 526,-337.7 526,-337.7 526,-337.7 522,-337.6935 526.0059,-334.1 518,-337.6869 518,-337.6869"/>
<ellipse fill="none" stroke="#000000" cx="514.8" cy="-337.6817" rx="3.2" ry="3.2"/>
</g>
<!-- R_STANDARD_REFERENCE_LIST -->
<g id="node4" class="node">
<title>R_STANDARD_REFERENCE_LIST</title>
<g id="a_node4"><a xlink:href="../../tables/R_STANDARD_REFERENCE_LIST.html" xlink:title="R_STANDARD_REFERENCE_LIST" target="_top">
<polygon fill="#ffffff" stroke="transparent" points="8,-38.2 8,-187.2 228,-187.2 228,-38.2 8,-38.2"/>
<polygon fill="#f5f5f5" stroke="transparent" points="8,-163.7 8,-186.7 228,-186.7 228,-163.7 8,-163.7"/>
<polygon fill="none" stroke="#000000" points="8,-163.7 8,-186.7 228,-186.7 228,-163.7 8,-163.7"/>
<text text-anchor="start" x="12.5842" y="-172.8" font-family="Helvetica,sans-Serif" font-weight="bold" font-size="11.00" fill="#000000">R_STANDARD_REFERENCE_LIST</text>
<text text-anchor="start" x="193.5219" y="-171.8" font-family="Helvetica,sans-Serif" font-size="11.00" fill="#000000">[table]</text>
<polygon fill="none" stroke="#000000" points="8,-141.7 8,-163.7 228,-163.7 228,-141.7 8,-141.7"/>
<image xlink:href="../../images/primaryKeys.png" width="11px" height="12px" preserveAspectRatio="xMinYMin meet" x="13" y="-158.7"/>
<text text-anchor="start" x="35.5558" y="-148.8" font-family="Helvetica,sans-Serif" font-size="11.00" fill="#000000">STANDARD_REFERENCE_LIST_ID</text>
<polygon fill="none" stroke="#000000" points="8,-119.7 8,-141.7 228,-141.7 228,-119.7 8,-119.7"/>
<image xlink:href="../../images/primaryKeys.png" width="11px" height="12px" preserveAspectRatio="xMinYMin meet" x="13" y="-136.7"/>
<text text-anchor="start" x="42" y="-126.8" font-family="Helvetica,sans-Serif" font-size="11.00" fill="#000000">CODE_VALUE</text>
<polygon fill="none" stroke="#000000" points="8,-97.7 8,-119.7 228,-119.7 228,-97.7 8,-97.7"/>
<image xlink:href="../../images/primaryKeys.png" width="11px" height="12px" preserveAspectRatio="xMinYMin meet" x="13" y="-114.7"/>
<text text-anchor="start" x="39.8337" y="-104.8" font-family="Helvetica,sans-Serif" font-size="11.00" fill="#000000">REFERENCE_DATA_MASTER_ID</text>
<polygon fill="none" stroke="#000000" points="8,-75.7 8,-97.7 228,-97.7 228,-75.7 8,-75.7"/>
<image xlink:href="../../images/primaryKeys.png" width="11px" height="12px" preserveAspectRatio="xMinYMin meet" x="13" y="-92.7"/>
<text text-anchor="start" x="42" y="-82.8" font-family="Helvetica,sans-Serif" font-size="11.00" fill="#000000">TRAINING_SESSION_ID</text>
<polygon fill="none" stroke="#000000" points="8,-56.7 8,-75.7 228,-75.7 228,-56.7 8,-56.7"/>
<text text-anchor="start" x="11" y="-62.8" font-family="Helvetica,sans-Serif" font-size="11.00" fill="#000000">...</text>
<polygon fill="#ffffff" stroke="transparent" points="8,-37.7 8,-56.7 79,-56.7 79,-37.7 8,-37.7"/>
<polygon fill="none" stroke="#000000" points="8,-37.7 8,-56.7 79,-56.7 79,-37.7 8,-37.7"/>
<text text-anchor="start" x="11" y="-43.8" font-family="Helvetica,sans-Serif" font-size="11.00" fill="#000000">&lt; 1</text>
<polygon fill="#ffffff" stroke="transparent" points="79,-37.7 79,-56.7 169,-56.7 169,-37.7 79,-37.7"/>
<polygon fill="none" stroke="#000000" points="79,-37.7 79,-56.7 169,-56.7 169,-37.7 79,-37.7"/>
<text text-anchor="start" x="106.094" y="-43.8" font-family="Helvetica,sans-Serif" font-size="11.00" fill="#000000">15,391 rows</text>
<polygon fill="#ffffff" stroke="transparent" points="169,-37.7 169,-56.7 228,-56.7 228,-37.7 169,-37.7"/>
<polygon fill="none" stroke="#000000" points="169,-37.7 169,-56.7 228,-56.7 228,-37.7 169,-37.7"/>
<text text-anchor="start" x="197.1755" y="-43.8" font-family="Helvetica,sans-Serif" font-size="11.00" fill="#000000">293 &gt;</text>
</a>
</g>
</g>
<!-- LOST_BEDS&#45;&gt;R_STANDARD_REFERENCE_LIST -->
<g id="edge3" class="edge">
<title>LOST_BEDS:w&#45;&gt;R_STANDARD_REFERENCE_LIST:e</title>
<path fill="none" stroke="#000000" d="M511.3476,-294.303C446.0087,-298.9832 311.1098,-328.4938 269,-296.7 215.8934,-256.6034 294.5436,-152.7 228,-152.7"/>
<polygon fill="#000000" stroke="#000000" points="518.0068,-294.029 526.148,-297.297 522.0034,-293.8645 526,-293.7 526,-293.7 526,-293.7 522.0034,-293.8645 525.852,-290.103 518.0068,-294.029 518.0068,-294.029"/>
<ellipse fill="none" stroke="#000000" cx="514.8095" cy="-294.1606" rx="3.2" ry="3.2"/>
</g>
<!-- R_APPROVED_PREMISES&#45;&gt;PARTITION_AREA -->
<g id="edge7" class="edge">
<title>R_APPROVED_PREMISES:w&#45;&gt;PARTITION_AREA:e</title>
<path fill="none" stroke="#000000" d="M262.5642,-210.1719C222.7106,-225.5711 242.6527,-307.7 189,-307.7"/>
<polygon fill="#000000" stroke="#000000" points="269.1148,-209.0503 277.6076,-211.2484 273.0574,-208.3751 277,-207.7 277,-207.7 277,-207.7 273.0574,-208.3751 276.3924,-204.1516 269.1148,-209.0503 269.1148,-209.0503"/>
<ellipse fill="none" stroke="#000000" cx="265.9607" cy="-209.5904" rx="3.2" ry="3.2"/>
</g>
<!-- R_APPROVED_PREMISES&#45;&gt;R_STANDARD_REFERENCE_LIST -->
<g id="edge4" class="edge">
<title>R_APPROVED_PREMISES:w&#45;&gt;R_STANDARD_REFERENCE_LIST:e</title>
<path fill="none" stroke="#000000" d="M262.7027,-161.8836C251.2382,-158.7593 244.5655,-152.7 228,-152.7"/>
<polygon fill="#000000" stroke="#000000" points="269.0638,-162.6917 276.5463,-167.2713 273.0319,-163.1958 277,-163.7 277,-163.7 277,-163.7 273.0319,-163.1958 277.4537,-160.1287 269.0638,-162.6917 269.0638,-162.6917"/>
<ellipse fill="none" stroke="#000000" cx="265.8893" cy="-162.2884" rx="3.2" ry="3.2"/>
</g>
<!-- R_APPROVED_PREMISES&#45;&gt;R_STANDARD_REFERENCE_LIST -->
<g id="edge5" class="edge">
<title>R_APPROVED_PREMISES:w&#45;&gt;R_STANDARD_REFERENCE_LIST:e</title>
<path fill="none" stroke="#000000" d="M263.0457,-124.0142C250.8073,-132.9592 248.3075,-152.7 228,-152.7"/>
<polygon fill="#000000" stroke="#000000" points="269.3569,-122.063 278.0634,-123.1394 273.1785,-120.8815 277,-119.7 277,-119.7 277,-119.7 273.1785,-120.8815 275.9366,-116.2606 269.3569,-122.063 269.3569,-122.063"/>
<ellipse fill="none" stroke="#000000" cx="266.2997" cy="-123.0082" rx="3.2" ry="3.2"/>
</g>
<!-- R_APPROVED_PREMISES&#45;&gt;R_STANDARD_REFERENCE_LIST -->
<g id="edge6" class="edge">
<title>R_APPROVED_PREMISES:w&#45;&gt;R_STANDARD_REFERENCE_LIST:e</title>
<path fill="none" stroke="#000000" d="M262.7027,-143.5164C251.2382,-146.6407 244.5655,-152.7 228,-152.7"/>
<polygon fill="#000000" stroke="#000000" points="269.0638,-142.7083 277.4537,-145.2713 273.0319,-142.2042 277,-141.7 277,-141.7 277,-141.7 273.0319,-142.2042 276.5463,-138.1287 269.0638,-142.7083 269.0638,-142.7083"/>
<ellipse fill="none" stroke="#000000" cx="265.8893" cy="-143.1116" rx="3.2" ry="3.2"/>
</g>
</g>
</svg>
