<?xml version="1.0" encoding="UTF-8" standalone="no"?>
<!DOCTYPE svg PUBLIC "-//W3C//DTD SVG 1.1//EN"
 "http://www.w3.org/Graphics/SVG/1.1/DTD/svg11.dtd">
<!-- Generated by graphviz version 2.40.1 (20161225.0304)
 -->
<!-- Title: oneDegreeRelationshipsDiagram Pages: 1 -->
<svg width="819pt" height="1183pt"
 viewBox="0.00 0.00 819.00 1182.70" xmlns="http://www.w3.org/2000/svg" xmlns:xlink="http://www.w3.org/1999/xlink">
<g id="graph0" class="graph" transform="scale(1 1) rotate(0) translate(4 1178.7)">
<title>oneDegreeRelationshipsDiagram</title>
<polygon fill="#ffffff" stroke="transparent" points="-4,4 -4,-1178.7 815,-1178.7 815,4 -4,4"/>
<text text-anchor="middle" x="72.4936" y="-7.3" font-family="Helvetica,sans-Serif" font-size="11.00" fill="#000000">Generated by SchemaSpy</text>
<!-- MANAGEMENT_TIER_EVENT -->
<g id="node1" class="node">
<title>MANAGEMENT_TIER_EVENT</title>
<g id="a_node1"><a xlink:href="../../tables/MANAGEMENT_TIER_EVENT.html" xlink:title="MANAGEMENT_TIER_EVENT" target="_top">
<polygon fill="#ffffff" stroke="transparent" points="555,-38.2 555,-370.2 803,-370.2 803,-38.2 555,-38.2"/>
<polygon fill="#f5f5f5" stroke="transparent" points="557,-345.2 557,-368.2 801,-368.2 801,-345.2 557,-345.2"/>
<polygon fill="none" stroke="#000000" points="557,-345.2 557,-368.2 801,-368.2 801,-345.2 557,-345.2"/>
<text text-anchor="start" x="562" y="-354.3" font-family="Helvetica,sans-Serif" font-weight="bold" font-size="11.00" fill="#000000">MANAGEMENT_TIER_EVENT</text>
<text text-anchor="start" x="766.0437" y="-353.3" font-family="Helvetica,sans-Serif" font-size="11.00" fill="#000000">[table]</text>
<polygon fill="none" stroke="#000000" points="557,-323.2 557,-345.2 740,-345.2 740,-323.2 557,-323.2"/>
<image xlink:href="../../images/primaryKeys.png" width="11px" height="12px" preserveAspectRatio="xMinYMin meet" x="562" y="-340.2"/>
<text text-anchor="start" x="571.0547" y="-330.3" font-family="Helvetica,sans-Serif" font-size="11.00" fill="#000000">MANAGEMENT_TIER_EVENT_ID</text>
<polygon fill="none" stroke="#000000" points="740,-323.2 740,-345.2 801,-345.2 801,-323.2 740,-323.2"/>
<text text-anchor="start" x="742.6865" y="-330.9" font-family="Helvetica,sans-Serif" font-size="11.00" fill="#000000">number[38]</text>
<polygon fill="none" stroke="#000000" points="557,-301.2 557,-323.2 740,-323.2 740,-301.2 557,-301.2"/>
<image xlink:href="../../images/primaryKeys.png" width="11px" height="12px" preserveAspectRatio="xMinYMin meet" x="562" y="-318.2"/>
<text text-anchor="start" x="577" y="-308.3" font-family="Helvetica,sans-Serif" font-size="11.00" fill="#000000">OFFENDER_ID</text>
<polygon fill="none" stroke="#000000" points="740,-301.2 740,-323.2 801,-323.2 801,-301.2 740,-301.2"/>
<text text-anchor="start" x="742.6865" y="-308.9" font-family="Helvetica,sans-Serif" font-size="11.00" fill="#000000">number[38]</text>
<polygon fill="none" stroke="#000000" points="557,-279.2 557,-301.2 740,-301.2 740,-279.2 557,-279.2"/>
<image xlink:href="../../images/primaryKeys.png" width="11px" height="12px" preserveAspectRatio="xMinYMin meet" x="562" y="-296.2"/>
<text text-anchor="start" x="577" y="-286.3" font-family="Helvetica,sans-Serif" font-size="11.00" fill="#000000">TIER_ID</text>
<polygon fill="none" stroke="#000000" points="740,-279.2 740,-301.2 801,-301.2 801,-279.2 740,-279.2"/>
<text text-anchor="start" x="742.6865" y="-286.9" font-family="Helvetica,sans-Serif" font-size="11.00" fill="#000000">number[38]</text>
<polygon fill="none" stroke="#000000" points="557,-257.2 557,-279.2 740,-279.2 740,-257.2 557,-257.2"/>
<image xlink:href="../../images/primaryKeys.png" width="11px" height="12px" preserveAspectRatio="xMinYMin meet" x="562" y="-274.2"/>
<text text-anchor="start" x="577" y="-264.3" font-family="Helvetica,sans-Serif" font-size="11.00" fill="#000000">TIER_CHANGE_REASON_ID</text>
<polygon fill="none" stroke="#000000" points="740,-257.2 740,-279.2 801,-279.2 801,-257.2 740,-257.2"/>
<text text-anchor="start" x="742.6865" y="-264.9" font-family="Helvetica,sans-Serif" font-size="11.00" fill="#000000">number[38]</text>
<polygon fill="none" stroke="#000000" points="557,-235.2 557,-257.2 740,-257.2 740,-235.2 557,-235.2"/>
<image xlink:href="../../images/primaryKeys.png" width="11px" height="12px" preserveAspectRatio="xMinYMin meet" x="562" y="-252.2"/>
<text text-anchor="start" x="577" y="-242.3" font-family="Helvetica,sans-Serif" font-size="11.00" fill="#000000">CONTACT_TYPE_ID</text>
<polygon fill="none" stroke="#000000" points="740,-235.2 740,-257.2 801,-257.2 801,-235.2 740,-235.2"/>
<text text-anchor="start" x="742.6865" y="-242.9" font-family="Helvetica,sans-Serif" font-size="11.00" fill="#000000">number[38]</text>
<polygon fill="none" stroke="#000000" points="557,-213.2 557,-235.2 740,-235.2 740,-213.2 557,-213.2"/>
<text text-anchor="start" x="577" y="-220.3" font-family="Helvetica,sans-Serif" font-size="11.00" fill="#000000">IOM_NOMINAL</text>
<polygon fill="none" stroke="#000000" points="740,-213.2 740,-235.2 801,-235.2 801,-213.2 740,-213.2"/>
<text text-anchor="start" x="743" y="-220.9" font-family="Helvetica,sans-Serif" font-size="11.00" fill="#000000">char[1]</text>
<polygon fill="none" stroke="#000000" points="557,-191.2 557,-213.2 740,-213.2 740,-191.2 557,-191.2"/>
<text text-anchor="start" x="577" y="-198.3" font-family="Helvetica,sans-Serif" font-size="11.00" fill="#000000">SAFEGUARDING_ISSUE</text>
<polygon fill="none" stroke="#000000" points="740,-191.2 740,-213.2 801,-213.2 801,-191.2 740,-191.2"/>
<text text-anchor="start" x="743" y="-198.9" font-family="Helvetica,sans-Serif" font-size="11.00" fill="#000000">char[1]</text>
<polygon fill="none" stroke="#000000" points="557,-169.2 557,-191.2 740,-191.2 740,-169.2 557,-169.2"/>
<text text-anchor="start" x="577" y="-176.3" font-family="Helvetica,sans-Serif" font-size="11.00" fill="#000000">VULNERABILITY_ISSUE</text>
<polygon fill="none" stroke="#000000" points="740,-169.2 740,-191.2 801,-191.2 801,-169.2 740,-169.2"/>
<text text-anchor="start" x="743" y="-176.9" font-family="Helvetica,sans-Serif" font-size="11.00" fill="#000000">char[1]</text>
<polygon fill="none" stroke="#000000" points="557,-147.2 557,-169.2 740,-169.2 740,-147.2 557,-147.2"/>
<text text-anchor="start" x="577" y="-154.3" font-family="Helvetica,sans-Serif" font-size="11.00" fill="#000000">ROW_VERSION</text>
<polygon fill="none" stroke="#000000" points="740,-147.2 740,-169.2 801,-169.2 801,-147.2 740,-147.2"/>
<text text-anchor="start" x="742.6865" y="-154.9" font-family="Helvetica,sans-Serif" font-size="11.00" fill="#000000">number[38]</text>
<polygon fill="none" stroke="#000000" points="557,-125.2 557,-147.2 740,-147.2 740,-125.2 557,-125.2"/>
<text text-anchor="start" x="577" y="-132.3" font-family="Helvetica,sans-Serif" font-size="11.00" fill="#000000">CREATED_BY_USER_ID</text>
<polygon fill="none" stroke="#000000" points="740,-125.2 740,-147.2 801,-147.2 801,-125.2 740,-125.2"/>
<text text-anchor="start" x="742.6865" y="-132.9" font-family="Helvetica,sans-Serif" font-size="11.00" fill="#000000">number[38]</text>
<polygon fill="none" stroke="#000000" points="557,-103.2 557,-125.2 740,-125.2 740,-103.2 557,-103.2"/>
<text text-anchor="start" x="577" y="-110.3" font-family="Helvetica,sans-Serif" font-size="11.00" fill="#000000">CREATED_DATETIME</text>
<polygon fill="none" stroke="#000000" points="740,-103.2 740,-125.2 801,-125.2 801,-103.2 740,-103.2"/>
<text text-anchor="start" x="743" y="-110.9" font-family="Helvetica,sans-Serif" font-size="11.00" fill="#000000">date[7]</text>
<polygon fill="none" stroke="#000000" points="557,-81.2 557,-103.2 740,-103.2 740,-81.2 557,-81.2"/>
<text text-anchor="start" x="577" y="-88.3" font-family="Helvetica,sans-Serif" font-size="11.00" fill="#000000">LAST_UPDATED_USER_ID</text>
<polygon fill="none" stroke="#000000" points="740,-81.2 740,-103.2 801,-103.2 801,-81.2 740,-81.2"/>
<text text-anchor="start" x="742.6865" y="-88.9" font-family="Helvetica,sans-Serif" font-size="11.00" fill="#000000">number[38]</text>
<polygon fill="none" stroke="#000000" points="557,-59.2 557,-81.2 740,-81.2 740,-59.2 557,-59.2"/>
<text text-anchor="start" x="577" y="-66.3" font-family="Helvetica,sans-Serif" font-size="11.00" fill="#000000">LAST_UPDATED_DATETIME</text>
<polygon fill="none" stroke="#000000" points="740,-59.2 740,-81.2 801,-81.2 801,-59.2 740,-59.2"/>
<text text-anchor="start" x="743" y="-66.9" font-family="Helvetica,sans-Serif" font-size="11.00" fill="#000000">date[7]</text>
<polygon fill="#ffffff" stroke="transparent" points="557,-40.2 557,-59.2 637,-59.2 637,-40.2 557,-40.2"/>
<polygon fill="none" stroke="#000000" points="557,-40.2 557,-59.2 637,-59.2 637,-40.2 557,-40.2"/>
<text text-anchor="start" x="560" y="-46.3" font-family="Helvetica,sans-Serif" font-size="11.00" fill="#000000">&lt; 4</text>
<polygon fill="#ffffff" stroke="transparent" points="637,-40.2 637,-59.2 740,-59.2 740,-40.2 637,-40.2"/>
<polygon fill="none" stroke="#000000" points="637,-40.2 637,-59.2 740,-59.2 740,-40.2 637,-40.2"/>
<text text-anchor="start" x="698.4956" y="-46.3" font-family="Helvetica,sans-Serif" font-size="11.00" fill="#000000">20 rows</text>
<polygon fill="#ffffff" stroke="transparent" points="740,-40.2 740,-59.2 801,-59.2 801,-40.2 740,-40.2"/>
<polygon fill="none" stroke="#000000" points="740,-40.2 740,-59.2 801,-59.2 801,-40.2 740,-40.2"/>
<text text-anchor="start" x="782.4053" y="-46.3" font-family="Helvetica,sans-Serif" font-size="11.00" fill="#000000">0 &gt;</text>
<polygon fill="none" stroke="#000000" stroke-width="2" points="556,-39.2 556,-369.2 802,-369.2 802,-39.2 556,-39.2"/>
</a>
</g>
</g>
<!-- R_CONTACT_TYPE -->
<g id="node2" class="node">
<title>R_CONTACT_TYPE</title>
<g id="a_node2"><a xlink:href="../../tables/R_CONTACT_TYPE.html" xlink:title="R_CONTACT_TYPE" target="_top">
<polygon fill="#ffffff" stroke="transparent" points="277,-92.7 277,-241.7 506,-241.7 506,-92.7 277,-92.7"/>
<polygon fill="#f5f5f5" stroke="transparent" points="277.5,-218.2 277.5,-241.2 506.5,-241.2 506.5,-218.2 277.5,-218.2"/>
<polygon fill="none" stroke="#000000" points="277.5,-218.2 277.5,-241.2 506.5,-241.2 506.5,-218.2 277.5,-218.2"/>
<text text-anchor="start" x="282.5" y="-227.3" font-family="Helvetica,sans-Serif" font-weight="bold" font-size="11.00" fill="#000000">R_CONTACT_TYPE</text>
<text text-anchor="start" x="471.5437" y="-226.3" font-family="Helvetica,sans-Serif" font-size="11.00" fill="#000000">[table]</text>
<polygon fill="none" stroke="#000000" points="277.5,-196.2 277.5,-218.2 506.5,-218.2 506.5,-196.2 277.5,-196.2"/>
<image xlink:href="../../images/primaryKeys.png" width="11px" height="12px" preserveAspectRatio="xMinYMin meet" x="282.5" y="-213.2"/>
<text text-anchor="start" x="297.5" y="-203.3" font-family="Helvetica,sans-Serif" font-size="11.00" fill="#000000">CONTACT_TYPE_ID</text>
<polygon fill="none" stroke="#000000" points="277.5,-174.2 277.5,-196.2 506.5,-196.2 506.5,-174.2 277.5,-174.2"/>
<image xlink:href="../../images/primaryKeys.png" width="11px" height="12px" preserveAspectRatio="xMinYMin meet" x="282.5" y="-191.2"/>
<text text-anchor="start" x="297.5" y="-181.3" font-family="Helvetica,sans-Serif" font-size="11.00" fill="#000000">CODE</text>
<polygon fill="none" stroke="#000000" points="277.5,-152.2 277.5,-174.2 506.5,-174.2 506.5,-152.2 277.5,-152.2"/>
<image xlink:href="../../images/primaryKeys.png" width="11px" height="12px" preserveAspectRatio="xMinYMin meet" x="282.5" y="-169.2"/>
<text text-anchor="start" x="297.5" y="-159.3" font-family="Helvetica,sans-Serif" font-size="11.00" fill="#000000">TRAINING_SESSION_ID</text>
<polygon fill="none" stroke="#000000" points="277.5,-130.2 277.5,-152.2 506.5,-152.2 506.5,-130.2 277.5,-130.2"/>
<image xlink:href="../../images/primaryKeys.png" width="11px" height="12px" preserveAspectRatio="xMinYMin meet" x="282.5" y="-147.2"/>
<text text-anchor="start" x="297.5" y="-137.3" font-family="Helvetica,sans-Serif" font-size="11.00" fill="#000000">CONTACT_TYPE_ICON_ID</text>
<polygon fill="none" stroke="#000000" points="277.5,-111.2 277.5,-130.2 506.5,-130.2 506.5,-111.2 277.5,-111.2"/>
<text text-anchor="start" x="280.5" y="-117.3" font-family="Helvetica,sans-Serif" font-size="11.00" fill="#000000">...</text>
<polygon fill="#ffffff" stroke="transparent" points="277.5,-92.2 277.5,-111.2 359.5,-111.2 359.5,-92.2 277.5,-92.2"/>
<polygon fill="none" stroke="#000000" points="277.5,-92.2 277.5,-111.2 359.5,-111.2 359.5,-92.2 277.5,-92.2"/>
<text text-anchor="start" x="280.5" y="-98.3" font-family="Helvetica,sans-Serif" font-size="11.00" fill="#000000">&lt; 1</text>
<polygon fill="#ffffff" stroke="transparent" points="359.5,-92.2 359.5,-111.2 448.5,-111.2 448.5,-92.2 359.5,-92.2"/>
<polygon fill="none" stroke="#000000" points="359.5,-92.2 359.5,-111.2 448.5,-111.2 448.5,-92.2 359.5,-92.2"/>
<text text-anchor="start" x="391.7089" y="-98.3" font-family="Helvetica,sans-Serif" font-size="11.00" fill="#000000">3,019 rows</text>
<polygon fill="#ffffff" stroke="transparent" points="448.5,-92.2 448.5,-111.2 506.5,-111.2 506.5,-92.2 448.5,-92.2"/>
<polygon fill="none" stroke="#000000" points="448.5,-92.2 448.5,-111.2 506.5,-111.2 506.5,-92.2 448.5,-92.2"/>
<text text-anchor="start" x="481.7904" y="-98.3" font-family="Helvetica,sans-Serif" font-size="11.00" fill="#000000">21 &gt;</text>
</a>
</g>
</g>
<!-- MANAGEMENT_TIER_EVENT&#45;&gt;R_CONTACT_TYPE -->
<g id="edge1" class="edge">
<title>MANAGEMENT_TIER_EVENT:w&#45;&gt;R_CONTACT_TYPE:e</title>
<path fill="none" stroke="#000000" d="M543.0207,-241.7262C529.7259,-231.4822 528.8765,-207.2 506.5,-207.2"/>
<polygon fill="#000000" stroke="#000000" points="549.3807,-243.7616 555.9027,-249.6287 553.1903,-244.9808 557,-246.2 557,-246.2 557,-246.2 553.1903,-244.9808 558.0973,-242.7713 549.3807,-243.7616 549.3807,-243.7616"/>
<ellipse fill="none" stroke="#000000" cx="546.3329" cy="-242.7862" rx="3.2" ry="3.2"/>
</g>
<!-- OFFENDER -->
<g id="node3" class="node">
<title>OFFENDER</title>
<g id="a_node3"><a xlink:href="../../tables/OFFENDER.html" xlink:title="OFFENDER" target="_top">
<polygon fill="#ffffff" stroke="transparent" points="282.5,-317.7 282.5,-1170.7 500.5,-1170.7 500.5,-317.7 282.5,-317.7"/>
<polygon fill="#f5f5f5" stroke="transparent" points="282.5,-1147.2 282.5,-1170.2 500.5,-1170.2 500.5,-1147.2 282.5,-1147.2"/>
<polygon fill="none" stroke="#000000" points="282.5,-1147.2 282.5,-1170.2 500.5,-1170.2 500.5,-1147.2 282.5,-1147.2"/>
<text text-anchor="start" x="287.5" y="-1156.3" font-family="Helvetica,sans-Serif" font-weight="bold" font-size="11.00" fill="#000000">OFFENDER</text>
<text text-anchor="start" x="465.5437" y="-1155.3" font-family="Helvetica,sans-Serif" font-size="11.00" fill="#000000">[table]</text>
<polygon fill="none" stroke="#000000" points="282.5,-1125.2 282.5,-1147.2 500.5,-1147.2 500.5,-1125.2 282.5,-1125.2"/>
<image xlink:href="../../images/primaryKeys.png" width="11px" height="12px" preserveAspectRatio="xMinYMin meet" x="287.5" y="-1142.2"/>
<text text-anchor="start" x="302.5" y="-1132.3" font-family="Helvetica,sans-Serif" font-size="11.00" fill="#000000">OFFENDER_ID</text>
<polygon fill="none" stroke="#000000" points="282.5,-1103.2 282.5,-1125.2 500.5,-1125.2 500.5,-1103.2 282.5,-1103.2"/>
<image xlink:href="../../images/primaryKeys.png" width="11px" height="12px" preserveAspectRatio="xMinYMin meet" x="287.5" y="-1120.2"/>
<text text-anchor="start" x="302.5" y="-1110.3" font-family="Helvetica,sans-Serif" font-size="11.00" fill="#000000">FIRST_NAME</text>
<polygon fill="none" stroke="#000000" points="282.5,-1081.2 282.5,-1103.2 500.5,-1103.2 500.5,-1081.2 282.5,-1081.2"/>
<image xlink:href="../../images/primaryKeys.png" width="11px" height="12px" preserveAspectRatio="xMinYMin meet" x="287.5" y="-1098.2"/>
<text text-anchor="start" x="302.5" y="-1088.3" font-family="Helvetica,sans-Serif" font-size="11.00" fill="#000000">CRN</text>
<polygon fill="none" stroke="#000000" points="282.5,-1059.2 282.5,-1081.2 500.5,-1081.2 500.5,-1059.2 282.5,-1059.2"/>
<image xlink:href="../../images/primaryKeys.png" width="11px" height="12px" preserveAspectRatio="xMinYMin meet" x="287.5" y="-1076.2"/>
<text text-anchor="start" x="302.5" y="-1066.3" font-family="Helvetica,sans-Serif" font-size="11.00" fill="#000000">SECOND_NAME</text>
<polygon fill="none" stroke="#000000" points="282.5,-1037.2 282.5,-1059.2 500.5,-1059.2 500.5,-1037.2 282.5,-1037.2"/>
<image xlink:href="../../images/primaryKeys.png" width="11px" height="12px" preserveAspectRatio="xMinYMin meet" x="287.5" y="-1054.2"/>
<text text-anchor="start" x="302.5" y="-1044.3" font-family="Helvetica,sans-Serif" font-size="11.00" fill="#000000">PNC_NUMBER</text>
<polygon fill="none" stroke="#000000" points="282.5,-1015.2 282.5,-1037.2 500.5,-1037.2 500.5,-1015.2 282.5,-1015.2"/>
<image xlink:href="../../images/primaryKeys.png" width="11px" height="12px" preserveAspectRatio="xMinYMin meet" x="287.5" y="-1032.2"/>
<text text-anchor="start" x="302.5" y="-1022.3" font-family="Helvetica,sans-Serif" font-size="11.00" fill="#000000">THIRD_NAME</text>
<polygon fill="none" stroke="#000000" points="282.5,-993.2 282.5,-1015.2 500.5,-1015.2 500.5,-993.2 282.5,-993.2"/>
<image xlink:href="../../images/primaryKeys.png" width="11px" height="12px" preserveAspectRatio="xMinYMin meet" x="287.5" y="-1010.2"/>
<text text-anchor="start" x="302.5" y="-1000.3" font-family="Helvetica,sans-Serif" font-size="11.00" fill="#000000">CRO_NUMBER</text>
<polygon fill="none" stroke="#000000" points="282.5,-971.2 282.5,-993.2 500.5,-993.2 500.5,-971.2 282.5,-971.2"/>
<image xlink:href="../../images/primaryKeys.png" width="11px" height="12px" preserveAspectRatio="xMinYMin meet" x="287.5" y="-988.2"/>
<text text-anchor="start" x="302.5" y="-978.3" font-family="Helvetica,sans-Serif" font-size="11.00" fill="#000000">SURNAME</text>
<polygon fill="none" stroke="#000000" points="282.5,-949.2 282.5,-971.2 500.5,-971.2 500.5,-949.2 282.5,-949.2"/>
<image xlink:href="../../images/primaryKeys.png" width="11px" height="12px" preserveAspectRatio="xMinYMin meet" x="287.5" y="-966.2"/>
<text text-anchor="start" x="302.5" y="-956.3" font-family="Helvetica,sans-Serif" font-size="11.00" fill="#000000">NOMS_NUMBER</text>
<polygon fill="none" stroke="#000000" points="282.5,-927.2 282.5,-949.2 500.5,-949.2 500.5,-927.2 282.5,-927.2"/>
<image xlink:href="../../images/primaryKeys.png" width="11px" height="12px" preserveAspectRatio="xMinYMin meet" x="287.5" y="-944.2"/>
<text text-anchor="start" x="302.5" y="-934.3" font-family="Helvetica,sans-Serif" font-size="11.00" fill="#000000">DATE_OF_BIRTH_DATE</text>
<polygon fill="none" stroke="#000000" points="282.5,-905.2 282.5,-927.2 500.5,-927.2 500.5,-905.2 282.5,-905.2"/>
<image xlink:href="../../images/primaryKeys.png" width="11px" height="12px" preserveAspectRatio="xMinYMin meet" x="287.5" y="-922.2"/>
<text text-anchor="start" x="302.5" y="-912.3" font-family="Helvetica,sans-Serif" font-size="11.00" fill="#000000">NI_NUMBER</text>
<polygon fill="none" stroke="#000000" points="282.5,-883.2 282.5,-905.2 500.5,-905.2 500.5,-883.2 282.5,-883.2"/>
<image xlink:href="../../images/primaryKeys.png" width="11px" height="12px" preserveAspectRatio="xMinYMin meet" x="287.5" y="-900.2"/>
<text text-anchor="start" x="302.5" y="-890.3" font-family="Helvetica,sans-Serif" font-size="11.00" fill="#000000">IMMIGRATION_NUMBER</text>
<polygon fill="none" stroke="#000000" points="282.5,-861.2 282.5,-883.2 500.5,-883.2 500.5,-861.2 282.5,-861.2"/>
<image xlink:href="../../images/primaryKeys.png" width="11px" height="12px" preserveAspectRatio="xMinYMin meet" x="287.5" y="-878.2"/>
<text text-anchor="start" x="302.5" y="-868.3" font-family="Helvetica,sans-Serif" font-size="11.00" fill="#000000">PARTITION_AREA_ID</text>
<polygon fill="none" stroke="#000000" points="282.5,-839.2 282.5,-861.2 500.5,-861.2 500.5,-839.2 282.5,-839.2"/>
<image xlink:href="../../images/primaryKeys.png" width="11px" height="12px" preserveAspectRatio="xMinYMin meet" x="287.5" y="-856.2"/>
<text text-anchor="start" x="302.5" y="-846.3" font-family="Helvetica,sans-Serif" font-size="11.00" fill="#000000">SOFT_DELETED</text>
<polygon fill="none" stroke="#000000" points="282.5,-817.2 282.5,-839.2 500.5,-839.2 500.5,-817.2 282.5,-817.2"/>
<image xlink:href="../../images/primaryKeys.png" width="11px" height="12px" preserveAspectRatio="xMinYMin meet" x="287.5" y="-834.2"/>
<text text-anchor="start" x="302.5" y="-824.3" font-family="Helvetica,sans-Serif" font-size="11.00" fill="#000000">TITLE_ID</text>
<polygon fill="none" stroke="#000000" points="282.5,-795.2 282.5,-817.2 500.5,-817.2 500.5,-795.2 282.5,-795.2"/>
<image xlink:href="../../images/primaryKeys.png" width="11px" height="12px" preserveAspectRatio="xMinYMin meet" x="287.5" y="-812.2"/>
<text text-anchor="start" x="302.5" y="-802.3" font-family="Helvetica,sans-Serif" font-size="11.00" fill="#000000">GENDER_ID</text>
<polygon fill="none" stroke="#000000" points="282.5,-773.2 282.5,-795.2 500.5,-795.2 500.5,-773.2 282.5,-773.2"/>
<image xlink:href="../../images/primaryKeys.png" width="11px" height="12px" preserveAspectRatio="xMinYMin meet" x="287.5" y="-790.2"/>
<text text-anchor="start" x="302.5" y="-780.3" font-family="Helvetica,sans-Serif" font-size="11.00" fill="#000000">ETHNICITY_ID</text>
<polygon fill="none" stroke="#000000" points="282.5,-751.2 282.5,-773.2 500.5,-773.2 500.5,-751.2 282.5,-751.2"/>
<image xlink:href="../../images/primaryKeys.png" width="11px" height="12px" preserveAspectRatio="xMinYMin meet" x="287.5" y="-768.2"/>
<text text-anchor="start" x="302.5" y="-758.3" font-family="Helvetica,sans-Serif" font-size="11.00" fill="#000000">NATIONALITY_ID</text>
<polygon fill="none" stroke="#000000" points="282.5,-729.2 282.5,-751.2 500.5,-751.2 500.5,-729.2 282.5,-729.2"/>
<image xlink:href="../../images/primaryKeys.png" width="11px" height="12px" preserveAspectRatio="xMinYMin meet" x="287.5" y="-746.2"/>
<text text-anchor="start" x="302.5" y="-736.3" font-family="Helvetica,sans-Serif" font-size="11.00" fill="#000000">IMMIGRATION_STATUS_ID</text>
<polygon fill="none" stroke="#000000" points="282.5,-707.2 282.5,-729.2 500.5,-729.2 500.5,-707.2 282.5,-707.2"/>
<image xlink:href="../../images/primaryKeys.png" width="11px" height="12px" preserveAspectRatio="xMinYMin meet" x="287.5" y="-724.2"/>
<text text-anchor="start" x="302.5" y="-714.3" font-family="Helvetica,sans-Serif" font-size="11.00" fill="#000000">LANGUAGE_ID</text>
<polygon fill="none" stroke="#000000" points="282.5,-685.2 282.5,-707.2 500.5,-707.2 500.5,-685.2 282.5,-685.2"/>
<image xlink:href="../../images/primaryKeys.png" width="11px" height="12px" preserveAspectRatio="xMinYMin meet" x="287.5" y="-702.2"/>
<text text-anchor="start" x="302.5" y="-692.3" font-family="Helvetica,sans-Serif" font-size="11.00" fill="#000000">RELIGION_ID</text>
<polygon fill="none" stroke="#000000" points="282.5,-663.2 282.5,-685.2 500.5,-685.2 500.5,-663.2 282.5,-663.2"/>
<image xlink:href="../../images/primaryKeys.png" width="11px" height="12px" preserveAspectRatio="xMinYMin meet" x="287.5" y="-680.2"/>
<text text-anchor="start" x="302.5" y="-670.3" font-family="Helvetica,sans-Serif" font-size="11.00" fill="#000000">SURNAME_SOUNDEX</text>
<polygon fill="none" stroke="#000000" points="282.5,-641.2 282.5,-663.2 500.5,-663.2 500.5,-641.2 282.5,-641.2"/>
<image xlink:href="../../images/primaryKeys.png" width="11px" height="12px" preserveAspectRatio="xMinYMin meet" x="287.5" y="-658.2"/>
<text text-anchor="start" x="302.5" y="-648.3" font-family="Helvetica,sans-Serif" font-size="11.00" fill="#000000">SECOND_NATIONALITY_ID</text>
<polygon fill="none" stroke="#000000" points="282.5,-619.2 282.5,-641.2 500.5,-641.2 500.5,-619.2 282.5,-619.2"/>
<image xlink:href="../../images/primaryKeys.png" width="11px" height="12px" preserveAspectRatio="xMinYMin meet" x="287.5" y="-636.2"/>
<text text-anchor="start" x="302.5" y="-626.3" font-family="Helvetica,sans-Serif" font-size="11.00" fill="#000000">SEXUAL_ORIENTATION_ID</text>
<polygon fill="none" stroke="#000000" points="282.5,-597.2 282.5,-619.2 500.5,-619.2 500.5,-597.2 282.5,-597.2"/>
<image xlink:href="../../images/primaryKeys.png" width="11px" height="12px" preserveAspectRatio="xMinYMin meet" x="287.5" y="-614.2"/>
<text text-anchor="start" x="302.5" y="-604.3" font-family="Helvetica,sans-Serif" font-size="11.00" fill="#000000">CURRENT_EXCLUSION</text>
<polygon fill="none" stroke="#000000" points="282.5,-575.2 282.5,-597.2 500.5,-597.2 500.5,-575.2 282.5,-575.2"/>
<image xlink:href="../../images/primaryKeys.png" width="11px" height="12px" preserveAspectRatio="xMinYMin meet" x="287.5" y="-592.2"/>
<text text-anchor="start" x="302.5" y="-582.3" font-family="Helvetica,sans-Serif" font-size="11.00" fill="#000000">TRAINING_SESSION_ID</text>
<polygon fill="none" stroke="#000000" points="282.5,-553.2 282.5,-575.2 500.5,-575.2 500.5,-553.2 282.5,-553.2"/>
<image xlink:href="../../images/primaryKeys.png" width="11px" height="12px" preserveAspectRatio="xMinYMin meet" x="287.5" y="-570.2"/>
<text text-anchor="start" x="302.5" y="-560.3" font-family="Helvetica,sans-Serif" font-size="11.00" fill="#000000">CURRENT_DISPOSAL</text>
<polygon fill="none" stroke="#000000" points="282.5,-531.2 282.5,-553.2 500.5,-553.2 500.5,-531.2 282.5,-531.2"/>
<image xlink:href="../../images/primaryKeys.png" width="11px" height="12px" preserveAspectRatio="xMinYMin meet" x="287.5" y="-548.2"/>
<text text-anchor="start" x="302.1434" y="-538.3" font-family="Helvetica,sans-Serif" font-size="11.00" fill="#000000">CURRENT_HIGHEST_RISK_COLOUR</text>
<polygon fill="none" stroke="#000000" points="282.5,-509.2 282.5,-531.2 500.5,-531.2 500.5,-509.2 282.5,-509.2"/>
<image xlink:href="../../images/primaryKeys.png" width="11px" height="12px" preserveAspectRatio="xMinYMin meet" x="287.5" y="-526.2"/>
<text text-anchor="start" x="302.5" y="-516.3" font-family="Helvetica,sans-Serif" font-size="11.00" fill="#000000">CURRENT_RESTRICTION</text>
<polygon fill="none" stroke="#000000" points="282.5,-487.2 282.5,-509.2 500.5,-509.2 500.5,-487.2 282.5,-487.2"/>
<image xlink:href="../../images/primaryKeys.png" width="11px" height="12px" preserveAspectRatio="xMinYMin meet" x="287.5" y="-504.2"/>
<text text-anchor="start" x="302.5" y="-494.3" font-family="Helvetica,sans-Serif" font-size="11.00" fill="#000000">INSTITUTION_ID</text>
<polygon fill="none" stroke="#000000" points="282.5,-465.2 282.5,-487.2 500.5,-487.2 500.5,-465.2 282.5,-465.2"/>
<image xlink:href="../../images/primaryKeys.png" width="11px" height="12px" preserveAspectRatio="xMinYMin meet" x="287.5" y="-482.2"/>
<text text-anchor="start" x="302.5" y="-472.3" font-family="Helvetica,sans-Serif" font-size="11.00" fill="#000000">ESTABLISHMENT</text>
<polygon fill="none" stroke="#000000" points="282.5,-443.2 282.5,-465.2 500.5,-465.2 500.5,-443.2 282.5,-443.2"/>
<image xlink:href="../../images/primaryKeys.png" width="11px" height="12px" preserveAspectRatio="xMinYMin meet" x="287.5" y="-460.2"/>
<text text-anchor="start" x="302.5" y="-450.3" font-family="Helvetica,sans-Serif" font-size="11.00" fill="#000000">CURRENT_TIER</text>
<polygon fill="none" stroke="#000000" points="282.5,-421.2 282.5,-443.2 500.5,-443.2 500.5,-421.2 282.5,-421.2"/>
<image xlink:href="../../images/primaryKeys.png" width="11px" height="12px" preserveAspectRatio="xMinYMin meet" x="287.5" y="-438.2"/>
<text text-anchor="start" x="302.5" y="-428.3" font-family="Helvetica,sans-Serif" font-size="11.00" fill="#000000">OM_ALLOCATION_DECISION_ID</text>
<polygon fill="none" stroke="#000000" points="282.5,-399.2 282.5,-421.2 500.5,-421.2 500.5,-399.2 282.5,-399.2"/>
<image xlink:href="../../images/primaryKeys.png" width="11px" height="12px" preserveAspectRatio="xMinYMin meet" x="287.5" y="-416.2"/>
<text text-anchor="start" x="302.5" y="-406.3" font-family="Helvetica,sans-Serif" font-size="11.00" fill="#000000">TRANSGENDER_PROCESS_ID</text>
<polygon fill="none" stroke="#000000" points="282.5,-377.2 282.5,-399.2 500.5,-399.2 500.5,-377.2 282.5,-377.2"/>
<image xlink:href="../../images/primaryKeys.png" width="11px" height="12px" preserveAspectRatio="xMinYMin meet" x="287.5" y="-394.2"/>
<text text-anchor="start" x="302.5" y="-384.3" font-family="Helvetica,sans-Serif" font-size="11.00" fill="#000000">PREFERRED_NAME</text>
<polygon fill="none" stroke="#000000" points="282.5,-355.2 282.5,-377.2 500.5,-377.2 500.5,-355.2 282.5,-355.2"/>
<image xlink:href="../../images/primaryKeys.png" width="11px" height="12px" preserveAspectRatio="xMinYMin meet" x="287.5" y="-372.2"/>
<text text-anchor="start" x="302.5" y="-362.3" font-family="Helvetica,sans-Serif" font-size="11.00" fill="#000000">GENDER_IDENTITY_ID</text>
<polygon fill="none" stroke="#000000" points="282.5,-336.2 282.5,-355.2 500.5,-355.2 500.5,-336.2 282.5,-336.2"/>
<text text-anchor="start" x="285.5" y="-342.3" font-family="Helvetica,sans-Serif" font-size="11.00" fill="#000000">...</text>
<polygon fill="#ffffff" stroke="transparent" points="282.5,-317.2 282.5,-336.2 358.5,-336.2 358.5,-317.2 282.5,-317.2"/>
<polygon fill="none" stroke="#000000" points="282.5,-317.2 282.5,-336.2 358.5,-336.2 358.5,-317.2 282.5,-317.2"/>
<text text-anchor="start" x="285.5" y="-323.3" font-family="Helvetica,sans-Serif" font-size="11.00" fill="#000000">&lt; 16</text>
<polygon fill="#ffffff" stroke="transparent" points="358.5,-317.2 358.5,-336.2 448.5,-336.2 448.5,-317.2 358.5,-317.2"/>
<polygon fill="none" stroke="#000000" points="358.5,-317.2 358.5,-336.2 448.5,-336.2 448.5,-317.2 358.5,-317.2"/>
<text text-anchor="start" x="385.594" y="-323.3" font-family="Helvetica,sans-Serif" font-size="11.00" fill="#000000">18,527 rows</text>
<polygon fill="#ffffff" stroke="transparent" points="448.5,-317.2 448.5,-336.2 500.5,-336.2 500.5,-317.2 448.5,-317.2"/>
<polygon fill="none" stroke="#000000" points="448.5,-317.2 448.5,-336.2 500.5,-336.2 500.5,-317.2 448.5,-317.2"/>
<text text-anchor="start" x="475.7904" y="-323.3" font-family="Helvetica,sans-Serif" font-size="11.00" fill="#000000">96 &gt;</text>
</a>
</g>
</g>
<!-- MANAGEMENT_TIER_EVENT&#45;&gt;OFFENDER -->
<g id="edge2" class="edge">
<title>MANAGEMENT_TIER_EVENT:w&#45;&gt;OFFENDER:e</title>
<path fill="none" stroke="#000000" d="M542.5244,-312.6579C208.2525,-334.5772 862.5634,-1136.2 500.5,-1136.2"/>
<polygon fill="#000000" stroke="#000000" points="549.004,-312.453 557.1138,-315.7982 553.002,-312.3265 557,-312.2 557,-312.2 557,-312.2 553.002,-312.3265 556.8862,-308.6018 549.004,-312.453 549.004,-312.453"/>
<ellipse fill="none" stroke="#000000" cx="545.8056" cy="-312.5541" rx="3.2" ry="3.2"/>
</g>
<!-- R_STANDARD_REFERENCE_LIST -->
<g id="node4" class="node">
<title>R_STANDARD_REFERENCE_LIST</title>
<g id="a_node4"><a xlink:href="../../tables/R_STANDARD_REFERENCE_LIST.html" xlink:title="R_STANDARD_REFERENCE_LIST" target="_top">
<polygon fill="#ffffff" stroke="transparent" points="8,-537.7 8,-686.7 228,-686.7 228,-537.7 8,-537.7"/>
<polygon fill="#f5f5f5" stroke="transparent" points="8,-663.2 8,-686.2 228,-686.2 228,-663.2 8,-663.2"/>
<polygon fill="none" stroke="#000000" points="8,-663.2 8,-686.2 228,-686.2 228,-663.2 8,-663.2"/>
<text text-anchor="start" x="12.5842" y="-672.3" font-family="Helvetica,sans-Serif" font-weight="bold" font-size="11.00" fill="#000000">R_STANDARD_REFERENCE_LIST</text>
<text text-anchor="start" x="193.5219" y="-671.3" font-family="Helvetica,sans-Serif" font-size="11.00" fill="#000000">[table]</text>
<polygon fill="none" stroke="#000000" points="8,-641.2 8,-663.2 228,-663.2 228,-641.2 8,-641.2"/>
<image xlink:href="../../images/primaryKeys.png" width="11px" height="12px" preserveAspectRatio="xMinYMin meet" x="13" y="-658.2"/>
<text text-anchor="start" x="35.5558" y="-648.3" font-family="Helvetica,sans-Serif" font-size="11.00" fill="#000000">STANDARD_REFERENCE_LIST_ID</text>
<polygon fill="none" stroke="#000000" points="8,-619.2 8,-641.2 228,-641.2 228,-619.2 8,-619.2"/>
<image xlink:href="../../images/primaryKeys.png" width="11px" height="12px" preserveAspectRatio="xMinYMin meet" x="13" y="-636.2"/>
<text text-anchor="start" x="42" y="-626.3" font-family="Helvetica,sans-Serif" font-size="11.00" fill="#000000">CODE_VALUE</text>
<polygon fill="none" stroke="#000000" points="8,-597.2 8,-619.2 228,-619.2 228,-597.2 8,-597.2"/>
<image xlink:href="../../images/primaryKeys.png" width="11px" height="12px" preserveAspectRatio="xMinYMin meet" x="13" y="-614.2"/>
<text text-anchor="start" x="39.8337" y="-604.3" font-family="Helvetica,sans-Serif" font-size="11.00" fill="#000000">REFERENCE_DATA_MASTER_ID</text>
<polygon fill="none" stroke="#000000" points="8,-575.2 8,-597.2 228,-597.2 228,-575.2 8,-575.2"/>
<image xlink:href="../../images/primaryKeys.png" width="11px" height="12px" preserveAspectRatio="xMinYMin meet" x="13" y="-592.2"/>
<text text-anchor="start" x="42" y="-582.3" font-family="Helvetica,sans-Serif" font-size="11.00" fill="#000000">TRAINING_SESSION_ID</text>
<polygon fill="none" stroke="#000000" points="8,-556.2 8,-575.2 228,-575.2 228,-556.2 8,-556.2"/>
<text text-anchor="start" x="11" y="-562.3" font-family="Helvetica,sans-Serif" font-size="11.00" fill="#000000">...</text>
<polygon fill="#ffffff" stroke="transparent" points="8,-537.2 8,-556.2 79,-556.2 79,-537.2 8,-537.2"/>
<polygon fill="none" stroke="#000000" points="8,-537.2 8,-556.2 79,-556.2 79,-537.2 8,-537.2"/>
<text text-anchor="start" x="11" y="-543.3" font-family="Helvetica,sans-Serif" font-size="11.00" fill="#000000">&lt; 1</text>
<polygon fill="#ffffff" stroke="transparent" points="79,-537.2 79,-556.2 169,-556.2 169,-537.2 79,-537.2"/>
<polygon fill="none" stroke="#000000" points="79,-537.2 79,-556.2 169,-556.2 169,-537.2 79,-537.2"/>
<text text-anchor="start" x="106.094" y="-543.3" font-family="Helvetica,sans-Serif" font-size="11.00" fill="#000000">15,391 rows</text>
<polygon fill="#ffffff" stroke="transparent" points="169,-537.2 169,-556.2 228,-556.2 228,-537.2 169,-537.2"/>
<polygon fill="none" stroke="#000000" points="169,-537.2 169,-556.2 228,-556.2 228,-537.2 169,-537.2"/>
<text text-anchor="start" x="197.1755" y="-543.3" font-family="Helvetica,sans-Serif" font-size="11.00" fill="#000000">296 &gt;</text>
</a>
</g>
</g>
<!-- MANAGEMENT_TIER_EVENT&#45;&gt;R_STANDARD_REFERENCE_LIST -->
<g id="edge3" class="edge">
<title>MANAGEMENT_TIER_EVENT:w&#45;&gt;R_STANDARD_REFERENCE_LIST:e</title>
<path fill="none" stroke="#000000" d="M542.3481,-267.8264C469.2852,-264.5803 312.4375,-242.237 269,-283.2 208.9758,-339.8048 310.5046,-652.2 228,-652.2"/>
<polygon fill="#000000" stroke="#000000" points="549.0026,-267.996 556.9082,-271.7988 553.0013,-268.098 557,-268.2 557,-268.2 557,-268.2 553.0013,-268.098 557.0918,-264.6012 549.0026,-267.996 549.0026,-267.996"/>
<ellipse fill="none" stroke="#000000" cx="545.8036" cy="-267.9145" rx="3.2" ry="3.2"/>
</g>
<!-- MANAGEMENT_TIER_EVENT&#45;&gt;R_STANDARD_REFERENCE_LIST -->
<g id="edge4" class="edge">
<title>MANAGEMENT_TIER_EVENT:w&#45;&gt;R_STANDARD_REFERENCE_LIST:e</title>
<path fill="none" stroke="#000000" d="M542.3442,-289.8532C469.268,-286.8443 312.4687,-266.2366 269,-307.2 212.8119,-360.1498 305.2062,-652.2 228,-652.2"/>
<polygon fill="#000000" stroke="#000000" points="549.0022,-290.0107 556.9148,-293.799 553.0011,-290.1053 557,-290.2 557,-290.2 557,-290.2 553.0011,-290.1053 557.0852,-286.601 549.0022,-290.0107 549.0022,-290.0107"/>
<ellipse fill="none" stroke="#000000" cx="545.8031" cy="-289.935" rx="3.2" ry="3.2"/>
</g>
<!-- OFFENDER&#45;&gt;R_STANDARD_REFERENCE_LIST -->
<g id="edge5" class="edge">
<title>OFFENDER:w&#45;&gt;R_STANDARD_REFERENCE_LIST:e</title>
<path fill="none" stroke="#000000" d="M268.2358,-456.2897C205.9288,-477.4507 313.7465,-652.2 228,-652.2"/>
<polygon fill="#000000" stroke="#000000" points="274.5845,-455.3596 283.0218,-457.762 278.5422,-454.7798 282.5,-454.2 282.5,-454.2 282.5,-454.2 278.5422,-454.7798 281.9782,-450.638 274.5845,-455.3596 274.5845,-455.3596"/>
<ellipse fill="none" stroke="#000000" cx="271.4183" cy="-455.8235" rx="3.2" ry="3.2"/>
</g>
<!-- OFFENDER&#45;&gt;R_STANDARD_REFERENCE_LIST -->
<g id="edge6" class="edge">
<title>OFFENDER:w&#45;&gt;R_STANDARD_REFERENCE_LIST:e</title>
<path fill="none" stroke="#000000" d="M268.0086,-780.9371C231.4177,-760.6102 285.5201,-652.2 228,-652.2"/>
<polygon fill="#000000" stroke="#000000" points="274.6954,-782.4426 281.7092,-787.7121 278.5977,-783.3213 282.5,-784.2 282.5,-784.2 282.5,-784.2 278.5977,-783.3213 283.2908,-780.6879 274.6954,-782.4426 274.6954,-782.4426"/>
<ellipse fill="none" stroke="#000000" cx="271.5736" cy="-781.7397" rx="3.2" ry="3.2"/>
</g>
<!-- OFFENDER&#45;&gt;R_STANDARD_REFERENCE_LIST -->
<g id="edge7" class="edge">
<title>OFFENDER:w&#45;&gt;R_STANDARD_REFERENCE_LIST:e</title>
<path fill="none" stroke="#000000" d="M268.318,-803.527C223.0723,-783.0774 294.9319,-652.2 228,-652.2"/>
<polygon fill="#000000" stroke="#000000" points="274.6384,-804.7182 281.8332,-809.7377 278.5692,-805.4591 282.5,-806.2 282.5,-806.2 282.5,-806.2 278.5692,-805.4591 283.1668,-802.6623 274.6384,-804.7182 274.6384,-804.7182"/>
<ellipse fill="none" stroke="#000000" cx="271.4938" cy="-804.1255" rx="3.2" ry="3.2"/>
</g>
<!-- OFFENDER&#45;&gt;R_STANDARD_REFERENCE_LIST -->
<g id="edge8" class="edge">
<title>OFFENDER:w&#45;&gt;R_STANDARD_REFERENCE_LIST:e</title>
<path fill="none" stroke="#000000" d="M267.9147,-367.6706C169.6709,-389.7152 351.9647,-652.2 228,-652.2"/>
<polygon fill="#000000" stroke="#000000" points="274.5404,-367.0026 282.8612,-369.7818 278.5202,-366.6013 282.5,-366.2 282.5,-366.2 282.5,-366.2 278.5202,-366.6013 282.1388,-362.6182 274.5404,-367.0026 274.5404,-367.0026"/>
<ellipse fill="none" stroke="#000000" cx="271.3565" cy="-367.3236" rx="3.2" ry="3.2"/>
</g>
<!-- OFFENDER&#45;&gt;R_STANDARD_REFERENCE_LIST -->
<g id="edge9" class="edge">
<title>OFFENDER:w&#45;&gt;R_STANDARD_REFERENCE_LIST:e</title>
<path fill="none" stroke="#000000" d="M268.5147,-736.1902C244.7782,-718.9748 268.0741,-652.2 228,-652.2"/>
<polygon fill="#000000" stroke="#000000" points="274.8098,-737.9951 281.5078,-743.6606 278.6549,-739.0975 282.5,-740.2 282.5,-740.2 282.5,-740.2 278.6549,-739.0975 283.4922,-736.7394 274.8098,-737.9951 274.8098,-737.9951"/>
<ellipse fill="none" stroke="#000000" cx="271.7338" cy="-737.1131" rx="3.2" ry="3.2"/>
</g>
<!-- OFFENDER&#45;&gt;R_STANDARD_REFERENCE_LIST -->
<g id="edge10" class="edge">
<title>OFFENDER:w&#45;&gt;R_STANDARD_REFERENCE_LIST:e</title>
<path fill="none" stroke="#000000" d="M268.5802,-713.8696C249.7475,-699.1863 260.0976,-652.2 228,-652.2"/>
<polygon fill="#000000" stroke="#000000" points="274.8611,-715.8235 281.4306,-721.6375 278.6806,-717.0118 282.5,-718.2 282.5,-718.2 282.5,-718.2 278.6806,-717.0118 283.5694,-714.7625 274.8611,-715.8235 274.8611,-715.8235"/>
<ellipse fill="none" stroke="#000000" cx="271.8056" cy="-714.8729" rx="3.2" ry="3.2"/>
</g>
<!-- OFFENDER&#45;&gt;R_STANDARD_REFERENCE_LIST -->
<g id="edge11" class="edge">
<title>OFFENDER:w&#45;&gt;R_STANDARD_REFERENCE_LIST:e</title>
<path fill="none" stroke="#000000" d="M268.23,-758.5401C238.5818,-739.4534 276.5929,-652.2 228,-652.2"/>
<polygon fill="#000000" stroke="#000000" points="274.7508,-760.2125 281.6056,-765.6871 278.6254,-761.2062 282.5,-762.2 282.5,-762.2 282.5,-762.2 278.6254,-761.2062 283.3944,-758.7129 274.7508,-760.2125 274.7508,-760.2125"/>
<ellipse fill="none" stroke="#000000" cx="271.6511" cy="-759.4175" rx="3.2" ry="3.2"/>
</g>
<!-- OFFENDER&#45;&gt;R_STANDARD_REFERENCE_LIST -->
<g id="edge12" class="edge">
<title>OFFENDER:w&#45;&gt;R_STANDARD_REFERENCE_LIST:e</title>
<path fill="none" stroke="#000000" d="M268.1148,-434.1019C197.1003,-455.6045 323.2245,-652.2 228,-652.2"/>
<polygon fill="#000000" stroke="#000000" points="274.569,-433.2486 282.9719,-435.7689 278.5345,-432.7243 282.5,-432.2 282.5,-432.2 282.5,-432.2 278.5345,-432.7243 282.0281,-428.6311 274.569,-433.2486 274.569,-433.2486"/>
<ellipse fill="none" stroke="#000000" cx="271.3966" cy="-433.6681" rx="3.2" ry="3.2"/>
</g>
<!-- OFFENDER&#45;&gt;R_STANDARD_REFERENCE_LIST -->
<g id="edge13" class="edge">
<title>OFFENDER:w&#45;&gt;R_STANDARD_REFERENCE_LIST:e</title>
<path fill="none" stroke="#000000" d="M268.5781,-692.1395C252.9124,-681.2469 253.2939,-652.2 228,-652.2"/>
<polygon fill="#000000" stroke="#000000" points="274.82,-693.96 281.492,-699.656 278.66,-695.08 282.5,-696.2 282.5,-696.2 282.5,-696.2 278.66,-695.08 283.508,-692.744 274.82,-693.96 274.82,-693.96"/>
<ellipse fill="none" stroke="#000000" cx="271.748" cy="-693.064" rx="3.2" ry="3.2"/>
</g>
<!-- OFFENDER&#45;&gt;R_STANDARD_REFERENCE_LIST -->
<g id="edge14" class="edge">
<title>OFFENDER:w&#45;&gt;R_STANDARD_REFERENCE_LIST:e</title>
<path fill="none" stroke="#000000" d="M267.9947,-652.2C254.4413,-652.2 246.5451,-652.2 228,-652.2"/>
<polygon fill="#000000" stroke="#000000" points="274.5,-652.2001 282.5,-655.8 278.5,-652.2 282.5,-652.2 282.5,-652.2 282.5,-652.2 278.5,-652.2 282.5,-648.6 274.5,-652.2001 274.5,-652.2001"/>
<ellipse fill="none" stroke="#000000" cx="271.3" cy="-652.2001" rx="3.2" ry="3.2"/>
</g>
<!-- OFFENDER&#45;&gt;R_STANDARD_REFERENCE_LIST -->
<g id="edge15" class="edge">
<title>OFFENDER:w&#45;&gt;R_STANDARD_REFERENCE_LIST:e</title>
<path fill="none" stroke="#000000" d="M268.2841,-632.8976C254.2492,-638.7723 248.4072,-652.2 228,-652.2"/>
<polygon fill="#000000" stroke="#000000" points="274.6403,-631.6915 283.1712,-633.7369 278.5701,-630.9458 282.5,-630.2 282.5,-630.2 282.5,-630.2 278.5701,-630.9458 281.8288,-626.6631 274.6403,-631.6915 274.6403,-631.6915"/>
<ellipse fill="none" stroke="#000000" cx="271.4964" cy="-632.2881" rx="3.2" ry="3.2"/>
</g>
<!-- OFFENDER&#45;&gt;R_STANDARD_REFERENCE_LIST -->
<g id="edge16" class="edge">
<title>OFFENDER:w&#45;&gt;R_STANDARD_REFERENCE_LIST:e</title>
<path fill="none" stroke="#000000" d="M268.2646,-825.8451C214.6597,-804.9599 304.289,-652.2 228,-652.2"/>
<polygon fill="#000000" stroke="#000000" points="274.6073,-826.8943 281.9124,-831.7517 278.5536,-827.5471 282.5,-828.2 282.5,-828.2 282.5,-828.2 278.5536,-827.5471 283.0876,-824.6483 274.6073,-826.8943 274.6073,-826.8943"/>
<ellipse fill="none" stroke="#000000" cx="271.4502" cy="-826.372" rx="3.2" ry="3.2"/>
</g>
<!-- OFFENDER&#45;&gt;R_STANDARD_REFERENCE_LIST -->
<g id="edge17" class="edge">
<title>OFFENDER:w&#45;&gt;R_STANDARD_REFERENCE_LIST:e</title>
<path fill="none" stroke="#000000" d="M267.769,-412.0088C188.3975,-434.1541 332.6507,-652.2 228,-652.2"/>
<polygon fill="#000000" stroke="#000000" points="274.5596,-411.175 282.9388,-413.7732 278.5298,-410.6875 282.5,-410.2 282.5,-410.2 282.5,-410.2 278.5298,-410.6875 282.0612,-406.6268 274.5596,-411.175 274.5596,-411.175"/>
<ellipse fill="none" stroke="#000000" cx="271.3835" cy="-411.565" rx="3.2" ry="3.2"/>
</g>
</g>
</svg>
