<?xml version="1.0" encoding="UTF-8" standalone="no"?>
<!DOCTYPE svg PUBLIC "-//W3C//DTD SVG 1.1//EN"
 "http://www.w3.org/Graphics/SVG/1.1/DTD/svg11.dtd">
<!-- Generated by graphviz version 2.40.1 (20161225.0304)
 -->
<!-- Title: oneDegreeRelationshipsDiagram Pages: 1 -->
<svg width="786pt" height="1039pt"
 viewBox="0.00 0.00 786.00 1038.89" xmlns="http://www.w3.org/2000/svg" xmlns:xlink="http://www.w3.org/1999/xlink">
<g id="graph0" class="graph" transform="scale(1 1) rotate(0) translate(4 1034.8931)">
<title>oneDegreeRelationshipsDiagram</title>
<polygon fill="#ffffff" stroke="transparent" points="-4,4 -4,-1034.8931 782,-1034.8931 782,4 -4,4"/>
<text text-anchor="middle" x="72.4936" y="-7.3" font-family="Helvetica,sans-Serif" font-size="11.00" fill="#000000">Generated by SchemaSpy</text>
<!-- MANAGEMENT_TIER -->
<g id="node1" class="node">
<title>MANAGEMENT_TIER</title>
<g id="a_node1"><a xlink:href="../../tables/MANAGEMENT_TIER.html" xlink:title="MANAGEMENT_TIER" target="_top">
<polygon fill="#ffffff" stroke="transparent" points="544,-274.0743 544,-606.0743 770,-606.0743 770,-274.0743 544,-274.0743"/>
<polygon fill="#f5f5f5" stroke="transparent" points="546,-581.0743 546,-604.0743 768,-604.0743 768,-581.0743 546,-581.0743"/>
<polygon fill="none" stroke="#000000" points="546,-581.0743 546,-604.0743 768,-604.0743 768,-581.0743 546,-581.0743"/>
<text text-anchor="start" x="551" y="-590.1743" font-family="Helvetica,sans-Serif" font-weight="bold" font-size="11.00" fill="#000000">MANAGEMENT_TIER</text>
<text text-anchor="start" x="733.0437" y="-589.1743" font-family="Helvetica,sans-Serif" font-size="11.00" fill="#000000">[table]</text>
<polygon fill="none" stroke="#000000" points="546,-559.0743 546,-581.0743 707,-581.0743 707,-559.0743 546,-559.0743"/>
<image xlink:href="../../images/primaryKeys.png" width="11px" height="12px" preserveAspectRatio="xMinYMin meet" x="551" y="-576.074"/>
<text text-anchor="start" x="566" y="-566.1743" font-family="Helvetica,sans-Serif" font-size="11.00" fill="#000000">OFFENDER_ID</text>
<polygon fill="none" stroke="#000000" points="707,-559.0743 707,-581.0743 768,-581.0743 768,-559.0743 707,-559.0743"/>
<text text-anchor="start" x="709.6865" y="-566.7743" font-family="Helvetica,sans-Serif" font-size="11.00" fill="#000000">number[38]</text>
<polygon fill="none" stroke="#000000" points="546,-537.0743 546,-559.0743 707,-559.0743 707,-537.0743 546,-537.0743"/>
<image xlink:href="../../images/primaryKeys.png" width="11px" height="12px" preserveAspectRatio="xMinYMin meet" x="551" y="-554.074"/>
<text text-anchor="start" x="566" y="-544.1743" font-family="Helvetica,sans-Serif" font-size="11.00" fill="#000000">TIER_ID</text>
<polygon fill="none" stroke="#000000" points="707,-537.0743 707,-559.0743 768,-559.0743 768,-537.0743 707,-537.0743"/>
<text text-anchor="start" x="709.6865" y="-544.7743" font-family="Helvetica,sans-Serif" font-size="11.00" fill="#000000">number[38]</text>
<polygon fill="none" stroke="#000000" points="546,-515.0743 546,-537.0743 707,-537.0743 707,-515.0743 546,-515.0743"/>
<image xlink:href="../../images/primaryKeys.png" width="11px" height="12px" preserveAspectRatio="xMinYMin meet" x="551" y="-532.074"/>
<text text-anchor="start" x="566" y="-522.1743" font-family="Helvetica,sans-Serif" font-size="11.00" fill="#000000">DATE_CHANGED</text>
<polygon fill="none" stroke="#000000" points="707,-515.0743 707,-537.0743 768,-537.0743 768,-515.0743 707,-515.0743"/>
<text text-anchor="start" x="710" y="-522.7743" font-family="Helvetica,sans-Serif" font-size="11.00" fill="#000000">date[7]</text>
<polygon fill="none" stroke="#000000" points="546,-493.0743 546,-515.0743 707,-515.0743 707,-493.0743 546,-493.0743"/>
<image xlink:href="../../images/primaryKeys.png" width="11px" height="12px" preserveAspectRatio="xMinYMin meet" x="551" y="-510.074"/>
<text text-anchor="start" x="566" y="-500.1743" font-family="Helvetica,sans-Serif" font-size="11.00" fill="#000000">PARTITION_AREA_ID</text>
<polygon fill="none" stroke="#000000" points="707,-493.0743 707,-515.0743 768,-515.0743 768,-493.0743 707,-493.0743"/>
<text text-anchor="start" x="709.6865" y="-500.7743" font-family="Helvetica,sans-Serif" font-size="11.00" fill="#000000">number[38]</text>
<polygon fill="none" stroke="#000000" points="546,-471.0743 546,-493.0743 707,-493.0743 707,-471.0743 546,-471.0743"/>
<image xlink:href="../../images/primaryKeys.png" width="11px" height="12px" preserveAspectRatio="xMinYMin meet" x="551" y="-488.074"/>
<text text-anchor="start" x="566" y="-478.1743" font-family="Helvetica,sans-Serif" font-size="11.00" fill="#000000">SOFT_DELETED</text>
<polygon fill="none" stroke="#000000" points="707,-471.0743 707,-493.0743 768,-493.0743 768,-471.0743 707,-471.0743"/>
<text text-anchor="start" x="709.6865" y="-478.7743" font-family="Helvetica,sans-Serif" font-size="11.00" fill="#000000">number[38]</text>
<polygon fill="none" stroke="#000000" points="546,-449.0743 546,-471.0743 707,-471.0743 707,-449.0743 546,-449.0743"/>
<text text-anchor="start" x="566" y="-456.1743" font-family="Helvetica,sans-Serif" font-size="11.00" fill="#000000">ROW_VERSION</text>
<polygon fill="none" stroke="#000000" points="707,-449.0743 707,-471.0743 768,-471.0743 768,-449.0743 707,-449.0743"/>
<text text-anchor="start" x="709.6865" y="-456.7743" font-family="Helvetica,sans-Serif" font-size="11.00" fill="#000000">number[38]</text>
<polygon fill="none" stroke="#000000" points="546,-427.0743 546,-449.0743 707,-449.0743 707,-427.0743 546,-427.0743"/>
<image xlink:href="../../images/primaryKeys.png" width="11px" height="12px" preserveAspectRatio="xMinYMin meet" x="551" y="-444.074"/>
<text text-anchor="start" x="560.0531" y="-434.1743" font-family="Helvetica,sans-Serif" font-size="11.00" fill="#000000">TIER_CHANGE_REASON_ID</text>
<polygon fill="none" stroke="#000000" points="707,-427.0743 707,-449.0743 768,-449.0743 768,-427.0743 707,-427.0743"/>
<text text-anchor="start" x="709.6865" y="-434.7743" font-family="Helvetica,sans-Serif" font-size="11.00" fill="#000000">number[38]</text>
<polygon fill="none" stroke="#000000" points="546,-405.0743 546,-427.0743 707,-427.0743 707,-405.0743 546,-405.0743"/>
<image xlink:href="../../images/primaryKeys.png" width="11px" height="12px" preserveAspectRatio="xMinYMin meet" x="551" y="-422.074"/>
<text text-anchor="start" x="566" y="-412.1743" font-family="Helvetica,sans-Serif" font-size="11.00" fill="#000000">TRAINING_SESSION_ID</text>
<polygon fill="none" stroke="#000000" points="707,-405.0743 707,-427.0743 768,-427.0743 768,-405.0743 707,-405.0743"/>
<text text-anchor="start" x="709.6865" y="-412.7743" font-family="Helvetica,sans-Serif" font-size="11.00" fill="#000000">number[38]</text>
<polygon fill="none" stroke="#000000" points="546,-383.0743 546,-405.0743 707,-405.0743 707,-383.0743 546,-383.0743"/>
<text text-anchor="start" x="566" y="-390.1743" font-family="Helvetica,sans-Serif" font-size="11.00" fill="#000000">CREATED_BY_USER_ID</text>
<polygon fill="none" stroke="#000000" points="707,-383.0743 707,-405.0743 768,-405.0743 768,-383.0743 707,-383.0743"/>
<text text-anchor="start" x="709.6865" y="-390.7743" font-family="Helvetica,sans-Serif" font-size="11.00" fill="#000000">number[38]</text>
<polygon fill="none" stroke="#000000" points="546,-361.0743 546,-383.0743 707,-383.0743 707,-361.0743 546,-361.0743"/>
<text text-anchor="start" x="564.0235" y="-368.1743" font-family="Helvetica,sans-Serif" font-size="11.00" fill="#000000">LAST_UPDATED_USER_ID</text>
<polygon fill="none" stroke="#000000" points="707,-361.0743 707,-383.0743 768,-383.0743 768,-361.0743 707,-361.0743"/>
<text text-anchor="start" x="709.6865" y="-368.7743" font-family="Helvetica,sans-Serif" font-size="11.00" fill="#000000">number[38]</text>
<polygon fill="none" stroke="#000000" points="546,-339.0743 546,-361.0743 707,-361.0743 707,-339.0743 546,-339.0743"/>
<text text-anchor="start" x="566" y="-346.1743" font-family="Helvetica,sans-Serif" font-size="11.00" fill="#000000">IOM_NOMINAL</text>
<polygon fill="none" stroke="#000000" points="707,-339.0743 707,-361.0743 768,-361.0743 768,-339.0743 707,-339.0743"/>
<text text-anchor="start" x="710" y="-346.7743" font-family="Helvetica,sans-Serif" font-size="11.00" fill="#000000">char[1]</text>
<polygon fill="none" stroke="#000000" points="546,-317.0743 546,-339.0743 707,-339.0743 707,-317.0743 546,-317.0743"/>
<text text-anchor="start" x="566" y="-324.1743" font-family="Helvetica,sans-Serif" font-size="11.00" fill="#000000">SAFEGUARDING_ISSUE</text>
<polygon fill="none" stroke="#000000" points="707,-317.0743 707,-339.0743 768,-339.0743 768,-317.0743 707,-317.0743"/>
<text text-anchor="start" x="710" y="-324.7743" font-family="Helvetica,sans-Serif" font-size="11.00" fill="#000000">char[1]</text>
<polygon fill="none" stroke="#000000" points="546,-295.0743 546,-317.0743 707,-317.0743 707,-295.0743 546,-295.0743"/>
<text text-anchor="start" x="566" y="-302.1743" font-family="Helvetica,sans-Serif" font-size="11.00" fill="#000000">VULNERABILITY_ISSUE</text>
<polygon fill="none" stroke="#000000" points="707,-295.0743 707,-317.0743 768,-317.0743 768,-295.0743 707,-295.0743"/>
<text text-anchor="start" x="710" y="-302.7743" font-family="Helvetica,sans-Serif" font-size="11.00" fill="#000000">char[1]</text>
<polygon fill="#ffffff" stroke="transparent" points="546,-276.0743 546,-295.0743 604,-295.0743 604,-276.0743 546,-276.0743"/>
<polygon fill="none" stroke="#000000" points="546,-276.0743 546,-295.0743 604,-295.0743 604,-276.0743 546,-276.0743"/>
<text text-anchor="start" x="549" y="-282.1743" font-family="Helvetica,sans-Serif" font-size="11.00" fill="#000000">&lt; 4</text>
<polygon fill="#ffffff" stroke="transparent" points="604,-276.0743 604,-295.0743 707,-295.0743 707,-276.0743 604,-276.0743"/>
<polygon fill="none" stroke="#000000" points="604,-276.0743 604,-295.0743 707,-295.0743 707,-276.0743 604,-276.0743"/>
<text text-anchor="start" x="644.094" y="-282.1743" font-family="Helvetica,sans-Serif" font-size="11.00" fill="#000000">20,135 rows</text>
<polygon fill="#ffffff" stroke="transparent" points="707,-276.0743 707,-295.0743 768,-295.0743 768,-276.0743 707,-276.0743"/>
<polygon fill="none" stroke="#000000" points="707,-276.0743 707,-295.0743 768,-295.0743 768,-276.0743 707,-276.0743"/>
<text text-anchor="start" x="749.4053" y="-282.1743" font-family="Helvetica,sans-Serif" font-size="11.00" fill="#000000">0 &gt;</text>
<polygon fill="none" stroke="#000000" stroke-width="2" points="545,-275.0743 545,-605.0743 769,-605.0743 769,-275.0743 545,-275.0743"/>
</a>
</g>
</g>
<!-- OFFENDER -->
<g id="node2" class="node">
<title>OFFENDER</title>
<g id="a_node2"><a xlink:href="../../tables/OFFENDER.html" xlink:title="OFFENDER" target="_top">
<polygon fill="#ffffff" stroke="transparent" points="277,-120.5743 277,-973.5743 495,-973.5743 495,-120.5743 277,-120.5743"/>
<polygon fill="#f5f5f5" stroke="transparent" points="277,-950.0743 277,-973.0743 495,-973.0743 495,-950.0743 277,-950.0743"/>
<polygon fill="none" stroke="#000000" points="277,-950.0743 277,-973.0743 495,-973.0743 495,-950.0743 277,-950.0743"/>
<text text-anchor="start" x="282" y="-959.1743" font-family="Helvetica,sans-Serif" font-weight="bold" font-size="11.00" fill="#000000">OFFENDER</text>
<text text-anchor="start" x="460.0437" y="-958.1743" font-family="Helvetica,sans-Serif" font-size="11.00" fill="#000000">[table]</text>
<polygon fill="none" stroke="#000000" points="277,-928.0743 277,-950.0743 495,-950.0743 495,-928.0743 277,-928.0743"/>
<image xlink:href="../../images/primaryKeys.png" width="11px" height="12px" preserveAspectRatio="xMinYMin meet" x="282" y="-945.074"/>
<text text-anchor="start" x="297" y="-935.1743" font-family="Helvetica,sans-Serif" font-size="11.00" fill="#000000">OFFENDER_ID</text>
<polygon fill="none" stroke="#000000" points="277,-906.0743 277,-928.0743 495,-928.0743 495,-906.0743 277,-906.0743"/>
<image xlink:href="../../images/primaryKeys.png" width="11px" height="12px" preserveAspectRatio="xMinYMin meet" x="282" y="-923.074"/>
<text text-anchor="start" x="297" y="-913.1743" font-family="Helvetica,sans-Serif" font-size="11.00" fill="#000000">FIRST_NAME</text>
<polygon fill="none" stroke="#000000" points="277,-884.0743 277,-906.0743 495,-906.0743 495,-884.0743 277,-884.0743"/>
<image xlink:href="../../images/primaryKeys.png" width="11px" height="12px" preserveAspectRatio="xMinYMin meet" x="282" y="-901.074"/>
<text text-anchor="start" x="297" y="-891.1743" font-family="Helvetica,sans-Serif" font-size="11.00" fill="#000000">CRN</text>
<polygon fill="none" stroke="#000000" points="277,-862.0743 277,-884.0743 495,-884.0743 495,-862.0743 277,-862.0743"/>
<image xlink:href="../../images/primaryKeys.png" width="11px" height="12px" preserveAspectRatio="xMinYMin meet" x="282" y="-879.074"/>
<text text-anchor="start" x="297" y="-869.1743" font-family="Helvetica,sans-Serif" font-size="11.00" fill="#000000">SECOND_NAME</text>
<polygon fill="none" stroke="#000000" points="277,-840.0743 277,-862.0743 495,-862.0743 495,-840.0743 277,-840.0743"/>
<image xlink:href="../../images/primaryKeys.png" width="11px" height="12px" preserveAspectRatio="xMinYMin meet" x="282" y="-857.074"/>
<text text-anchor="start" x="297" y="-847.1743" font-family="Helvetica,sans-Serif" font-size="11.00" fill="#000000">PNC_NUMBER</text>
<polygon fill="none" stroke="#000000" points="277,-818.0743 277,-840.0743 495,-840.0743 495,-818.0743 277,-818.0743"/>
<image xlink:href="../../images/primaryKeys.png" width="11px" height="12px" preserveAspectRatio="xMinYMin meet" x="282" y="-835.074"/>
<text text-anchor="start" x="297" y="-825.1743" font-family="Helvetica,sans-Serif" font-size="11.00" fill="#000000">THIRD_NAME</text>
<polygon fill="none" stroke="#000000" points="277,-796.0743 277,-818.0743 495,-818.0743 495,-796.0743 277,-796.0743"/>
<image xlink:href="../../images/primaryKeys.png" width="11px" height="12px" preserveAspectRatio="xMinYMin meet" x="282" y="-813.074"/>
<text text-anchor="start" x="297" y="-803.1743" font-family="Helvetica,sans-Serif" font-size="11.00" fill="#000000">CRO_NUMBER</text>
<polygon fill="none" stroke="#000000" points="277,-774.0743 277,-796.0743 495,-796.0743 495,-774.0743 277,-774.0743"/>
<image xlink:href="../../images/primaryKeys.png" width="11px" height="12px" preserveAspectRatio="xMinYMin meet" x="282" y="-791.074"/>
<text text-anchor="start" x="297" y="-781.1743" font-family="Helvetica,sans-Serif" font-size="11.00" fill="#000000">SURNAME</text>
<polygon fill="none" stroke="#000000" points="277,-752.0743 277,-774.0743 495,-774.0743 495,-752.0743 277,-752.0743"/>
<image xlink:href="../../images/primaryKeys.png" width="11px" height="12px" preserveAspectRatio="xMinYMin meet" x="282" y="-769.074"/>
<text text-anchor="start" x="297" y="-759.1743" font-family="Helvetica,sans-Serif" font-size="11.00" fill="#000000">NOMS_NUMBER</text>
<polygon fill="none" stroke="#000000" points="277,-730.0743 277,-752.0743 495,-752.0743 495,-730.0743 277,-730.0743"/>
<image xlink:href="../../images/primaryKeys.png" width="11px" height="12px" preserveAspectRatio="xMinYMin meet" x="282" y="-747.074"/>
<text text-anchor="start" x="297" y="-737.1743" font-family="Helvetica,sans-Serif" font-size="11.00" fill="#000000">DATE_OF_BIRTH_DATE</text>
<polygon fill="none" stroke="#000000" points="277,-708.0743 277,-730.0743 495,-730.0743 495,-708.0743 277,-708.0743"/>
<image xlink:href="../../images/primaryKeys.png" width="11px" height="12px" preserveAspectRatio="xMinYMin meet" x="282" y="-725.074"/>
<text text-anchor="start" x="297" y="-715.1743" font-family="Helvetica,sans-Serif" font-size="11.00" fill="#000000">NI_NUMBER</text>
<polygon fill="none" stroke="#000000" points="277,-686.0743 277,-708.0743 495,-708.0743 495,-686.0743 277,-686.0743"/>
<image xlink:href="../../images/primaryKeys.png" width="11px" height="12px" preserveAspectRatio="xMinYMin meet" x="282" y="-703.074"/>
<text text-anchor="start" x="297" y="-693.1743" font-family="Helvetica,sans-Serif" font-size="11.00" fill="#000000">IMMIGRATION_NUMBER</text>
<polygon fill="none" stroke="#000000" points="277,-664.0743 277,-686.0743 495,-686.0743 495,-664.0743 277,-664.0743"/>
<image xlink:href="../../images/primaryKeys.png" width="11px" height="12px" preserveAspectRatio="xMinYMin meet" x="282" y="-681.074"/>
<text text-anchor="start" x="297" y="-671.1743" font-family="Helvetica,sans-Serif" font-size="11.00" fill="#000000">PARTITION_AREA_ID</text>
<polygon fill="none" stroke="#000000" points="277,-642.0743 277,-664.0743 495,-664.0743 495,-642.0743 277,-642.0743"/>
<image xlink:href="../../images/primaryKeys.png" width="11px" height="12px" preserveAspectRatio="xMinYMin meet" x="282" y="-659.074"/>
<text text-anchor="start" x="297" y="-649.1743" font-family="Helvetica,sans-Serif" font-size="11.00" fill="#000000">SOFT_DELETED</text>
<polygon fill="none" stroke="#000000" points="277,-620.0743 277,-642.0743 495,-642.0743 495,-620.0743 277,-620.0743"/>
<image xlink:href="../../images/primaryKeys.png" width="11px" height="12px" preserveAspectRatio="xMinYMin meet" x="282" y="-637.074"/>
<text text-anchor="start" x="297" y="-627.1743" font-family="Helvetica,sans-Serif" font-size="11.00" fill="#000000">TITLE_ID</text>
<polygon fill="none" stroke="#000000" points="277,-598.0743 277,-620.0743 495,-620.0743 495,-598.0743 277,-598.0743"/>
<image xlink:href="../../images/primaryKeys.png" width="11px" height="12px" preserveAspectRatio="xMinYMin meet" x="282" y="-615.074"/>
<text text-anchor="start" x="297" y="-605.1743" font-family="Helvetica,sans-Serif" font-size="11.00" fill="#000000">GENDER_ID</text>
<polygon fill="none" stroke="#000000" points="277,-576.0743 277,-598.0743 495,-598.0743 495,-576.0743 277,-576.0743"/>
<image xlink:href="../../images/primaryKeys.png" width="11px" height="12px" preserveAspectRatio="xMinYMin meet" x="282" y="-593.074"/>
<text text-anchor="start" x="297" y="-583.1743" font-family="Helvetica,sans-Serif" font-size="11.00" fill="#000000">ETHNICITY_ID</text>
<polygon fill="none" stroke="#000000" points="277,-554.0743 277,-576.0743 495,-576.0743 495,-554.0743 277,-554.0743"/>
<image xlink:href="../../images/primaryKeys.png" width="11px" height="12px" preserveAspectRatio="xMinYMin meet" x="282" y="-571.074"/>
<text text-anchor="start" x="297" y="-561.1743" font-family="Helvetica,sans-Serif" font-size="11.00" fill="#000000">NATIONALITY_ID</text>
<polygon fill="none" stroke="#000000" points="277,-532.0743 277,-554.0743 495,-554.0743 495,-532.0743 277,-532.0743"/>
<image xlink:href="../../images/primaryKeys.png" width="11px" height="12px" preserveAspectRatio="xMinYMin meet" x="282" y="-549.074"/>
<text text-anchor="start" x="297" y="-539.1743" font-family="Helvetica,sans-Serif" font-size="11.00" fill="#000000">IMMIGRATION_STATUS_ID</text>
<polygon fill="none" stroke="#000000" points="277,-510.0743 277,-532.0743 495,-532.0743 495,-510.0743 277,-510.0743"/>
<image xlink:href="../../images/primaryKeys.png" width="11px" height="12px" preserveAspectRatio="xMinYMin meet" x="282" y="-527.074"/>
<text text-anchor="start" x="297" y="-517.1743" font-family="Helvetica,sans-Serif" font-size="11.00" fill="#000000">LANGUAGE_ID</text>
<polygon fill="none" stroke="#000000" points="277,-488.0743 277,-510.0743 495,-510.0743 495,-488.0743 277,-488.0743"/>
<image xlink:href="../../images/primaryKeys.png" width="11px" height="12px" preserveAspectRatio="xMinYMin meet" x="282" y="-505.074"/>
<text text-anchor="start" x="297" y="-495.1743" font-family="Helvetica,sans-Serif" font-size="11.00" fill="#000000">RELIGION_ID</text>
<polygon fill="none" stroke="#000000" points="277,-466.0743 277,-488.0743 495,-488.0743 495,-466.0743 277,-466.0743"/>
<image xlink:href="../../images/primaryKeys.png" width="11px" height="12px" preserveAspectRatio="xMinYMin meet" x="282" y="-483.074"/>
<text text-anchor="start" x="297" y="-473.1743" font-family="Helvetica,sans-Serif" font-size="11.00" fill="#000000">SURNAME_SOUNDEX</text>
<polygon fill="none" stroke="#000000" points="277,-444.0743 277,-466.0743 495,-466.0743 495,-444.0743 277,-444.0743"/>
<image xlink:href="../../images/primaryKeys.png" width="11px" height="12px" preserveAspectRatio="xMinYMin meet" x="282" y="-461.074"/>
<text text-anchor="start" x="297" y="-451.1743" font-family="Helvetica,sans-Serif" font-size="11.00" fill="#000000">SECOND_NATIONALITY_ID</text>
<polygon fill="none" stroke="#000000" points="277,-422.0743 277,-444.0743 495,-444.0743 495,-422.0743 277,-422.0743"/>
<image xlink:href="../../images/primaryKeys.png" width="11px" height="12px" preserveAspectRatio="xMinYMin meet" x="282" y="-439.074"/>
<text text-anchor="start" x="297" y="-429.1743" font-family="Helvetica,sans-Serif" font-size="11.00" fill="#000000">SEXUAL_ORIENTATION_ID</text>
<polygon fill="none" stroke="#000000" points="277,-400.0743 277,-422.0743 495,-422.0743 495,-400.0743 277,-400.0743"/>
<image xlink:href="../../images/primaryKeys.png" width="11px" height="12px" preserveAspectRatio="xMinYMin meet" x="282" y="-417.074"/>
<text text-anchor="start" x="297" y="-407.1743" font-family="Helvetica,sans-Serif" font-size="11.00" fill="#000000">CURRENT_EXCLUSION</text>
<polygon fill="none" stroke="#000000" points="277,-378.0743 277,-400.0743 495,-400.0743 495,-378.0743 277,-378.0743"/>
<image xlink:href="../../images/primaryKeys.png" width="11px" height="12px" preserveAspectRatio="xMinYMin meet" x="282" y="-395.074"/>
<text text-anchor="start" x="297" y="-385.1743" font-family="Helvetica,sans-Serif" font-size="11.00" fill="#000000">TRAINING_SESSION_ID</text>
<polygon fill="none" stroke="#000000" points="277,-356.0743 277,-378.0743 495,-378.0743 495,-356.0743 277,-356.0743"/>
<image xlink:href="../../images/primaryKeys.png" width="11px" height="12px" preserveAspectRatio="xMinYMin meet" x="282" y="-373.074"/>
<text text-anchor="start" x="297" y="-363.1743" font-family="Helvetica,sans-Serif" font-size="11.00" fill="#000000">CURRENT_DISPOSAL</text>
<polygon fill="none" stroke="#000000" points="277,-334.0743 277,-356.0743 495,-356.0743 495,-334.0743 277,-334.0743"/>
<image xlink:href="../../images/primaryKeys.png" width="11px" height="12px" preserveAspectRatio="xMinYMin meet" x="282" y="-351.074"/>
<text text-anchor="start" x="296.6434" y="-341.1743" font-family="Helvetica,sans-Serif" font-size="11.00" fill="#000000">CURRENT_HIGHEST_RISK_COLOUR</text>
<polygon fill="none" stroke="#000000" points="277,-312.0743 277,-334.0743 495,-334.0743 495,-312.0743 277,-312.0743"/>
<image xlink:href="../../images/primaryKeys.png" width="11px" height="12px" preserveAspectRatio="xMinYMin meet" x="282" y="-329.074"/>
<text text-anchor="start" x="297" y="-319.1743" font-family="Helvetica,sans-Serif" font-size="11.00" fill="#000000">CURRENT_RESTRICTION</text>
<polygon fill="none" stroke="#000000" points="277,-290.0743 277,-312.0743 495,-312.0743 495,-290.0743 277,-290.0743"/>
<image xlink:href="../../images/primaryKeys.png" width="11px" height="12px" preserveAspectRatio="xMinYMin meet" x="282" y="-307.074"/>
<text text-anchor="start" x="297" y="-297.1743" font-family="Helvetica,sans-Serif" font-size="11.00" fill="#000000">INSTITUTION_ID</text>
<polygon fill="none" stroke="#000000" points="277,-268.0743 277,-290.0743 495,-290.0743 495,-268.0743 277,-268.0743"/>
<image xlink:href="../../images/primaryKeys.png" width="11px" height="12px" preserveAspectRatio="xMinYMin meet" x="282" y="-285.074"/>
<text text-anchor="start" x="297" y="-275.1743" font-family="Helvetica,sans-Serif" font-size="11.00" fill="#000000">ESTABLISHMENT</text>
<polygon fill="none" stroke="#000000" points="277,-246.0743 277,-268.0743 495,-268.0743 495,-246.0743 277,-246.0743"/>
<image xlink:href="../../images/primaryKeys.png" width="11px" height="12px" preserveAspectRatio="xMinYMin meet" x="282" y="-263.074"/>
<text text-anchor="start" x="297" y="-253.1743" font-family="Helvetica,sans-Serif" font-size="11.00" fill="#000000">CURRENT_TIER</text>
<polygon fill="none" stroke="#000000" points="277,-224.0743 277,-246.0743 495,-246.0743 495,-224.0743 277,-224.0743"/>
<image xlink:href="../../images/primaryKeys.png" width="11px" height="12px" preserveAspectRatio="xMinYMin meet" x="282" y="-241.074"/>
<text text-anchor="start" x="297" y="-231.1743" font-family="Helvetica,sans-Serif" font-size="11.00" fill="#000000">OM_ALLOCATION_DECISION_ID</text>
<polygon fill="none" stroke="#000000" points="277,-202.0743 277,-224.0743 495,-224.0743 495,-202.0743 277,-202.0743"/>
<image xlink:href="../../images/primaryKeys.png" width="11px" height="12px" preserveAspectRatio="xMinYMin meet" x="282" y="-219.074"/>
<text text-anchor="start" x="297" y="-209.1743" font-family="Helvetica,sans-Serif" font-size="11.00" fill="#000000">TRANSGENDER_PROCESS_ID</text>
<polygon fill="none" stroke="#000000" points="277,-180.0743 277,-202.0743 495,-202.0743 495,-180.0743 277,-180.0743"/>
<image xlink:href="../../images/primaryKeys.png" width="11px" height="12px" preserveAspectRatio="xMinYMin meet" x="282" y="-197.074"/>
<text text-anchor="start" x="297" y="-187.1743" font-family="Helvetica,sans-Serif" font-size="11.00" fill="#000000">PREFERRED_NAME</text>
<polygon fill="none" stroke="#000000" points="277,-158.0743 277,-180.0743 495,-180.0743 495,-158.0743 277,-158.0743"/>
<image xlink:href="../../images/primaryKeys.png" width="11px" height="12px" preserveAspectRatio="xMinYMin meet" x="282" y="-175.074"/>
<text text-anchor="start" x="297" y="-165.1743" font-family="Helvetica,sans-Serif" font-size="11.00" fill="#000000">GENDER_IDENTITY_ID</text>
<polygon fill="none" stroke="#000000" points="277,-139.0743 277,-158.0743 495,-158.0743 495,-139.0743 277,-139.0743"/>
<text text-anchor="start" x="280" y="-145.1743" font-family="Helvetica,sans-Serif" font-size="11.00" fill="#000000">...</text>
<polygon fill="#ffffff" stroke="transparent" points="277,-120.0743 277,-139.0743 350,-139.0743 350,-120.0743 277,-120.0743"/>
<polygon fill="none" stroke="#000000" points="277,-120.0743 277,-139.0743 350,-139.0743 350,-120.0743 277,-120.0743"/>
<text text-anchor="start" x="280" y="-126.1743" font-family="Helvetica,sans-Serif" font-size="11.00" fill="#000000">&lt; 16</text>
<polygon fill="#ffffff" stroke="transparent" points="350,-120.0743 350,-139.0743 445,-139.0743 445,-120.0743 350,-120.0743"/>
<polygon fill="none" stroke="#000000" points="350,-120.0743 350,-139.0743 445,-139.0743 445,-120.0743 350,-120.0743"/>
<text text-anchor="start" x="375.9791" y="-126.1743" font-family="Helvetica,sans-Serif" font-size="11.00" fill="#000000">494,119 rows</text>
<polygon fill="#ffffff" stroke="transparent" points="445,-120.0743 445,-139.0743 495,-139.0743 495,-120.0743 445,-120.0743"/>
<polygon fill="none" stroke="#000000" points="445,-120.0743 445,-139.0743 495,-139.0743 495,-120.0743 445,-120.0743"/>
<text text-anchor="start" x="470.2904" y="-126.1743" font-family="Helvetica,sans-Serif" font-size="11.00" fill="#000000">96 &gt;</text>
</a>
</g>
</g>
<!-- MANAGEMENT_TIER&#45;&gt;OFFENDER -->
<g id="edge1" class="edge">
<title>MANAGEMENT_TIER:w&#45;&gt;OFFENDER:e</title>
<path fill="none" stroke="#000000" d="M531.3526,-571.1993C398.0326,-593.4743 655.2236,-939.0743 495,-939.0743"/>
<polygon fill="#000000" stroke="#000000" points="538.0235,-570.687 546.2757,-573.6638 542.0117,-570.3807 546,-570.0743 546,-570.0743 546,-570.0743 542.0117,-570.3807 545.7243,-566.4849 538.0235,-570.687 538.0235,-570.687"/>
<ellipse fill="none" stroke="#000000" cx="534.8329" cy="-570.9321" rx="3.2" ry="3.2"/>
</g>
<!-- PARTITION_AREA -->
<g id="node3" class="node">
<title>PARTITION_AREA</title>
<g id="a_node3"><a xlink:href="../../tables/PARTITION_AREA.html" xlink:title="PARTITION_AREA" target="_top">
<polygon fill="#ffffff" stroke="transparent" points="47,-765.5743 47,-870.5743 189,-870.5743 189,-765.5743 47,-765.5743"/>
<polygon fill="#f5f5f5" stroke="transparent" points="47,-847.0743 47,-870.0743 189,-870.0743 189,-847.0743 47,-847.0743"/>
<polygon fill="none" stroke="#000000" points="47,-847.0743 47,-870.0743 189,-870.0743 189,-847.0743 47,-847.0743"/>
<text text-anchor="start" x="52" y="-856.1743" font-family="Helvetica,sans-Serif" font-weight="bold" font-size="11.00" fill="#000000">PARTITION_AREA</text>
<text text-anchor="start" x="154.0437" y="-855.1743" font-family="Helvetica,sans-Serif" font-size="11.00" fill="#000000">[table]</text>
<polygon fill="none" stroke="#000000" points="47,-825.0743 47,-847.0743 189,-847.0743 189,-825.0743 47,-825.0743"/>
<image xlink:href="../../images/primaryKeys.png" width="11px" height="12px" preserveAspectRatio="xMinYMin meet" x="52" y="-842.074"/>
<text text-anchor="start" x="67" y="-832.1743" font-family="Helvetica,sans-Serif" font-size="11.00" fill="#000000">PARTITION_AREA_ID</text>
<polygon fill="none" stroke="#000000" points="47,-803.0743 47,-825.0743 189,-825.0743 189,-803.0743 47,-803.0743"/>
<image xlink:href="../../images/primaryKeys.png" width="11px" height="12px" preserveAspectRatio="xMinYMin meet" x="52" y="-820.074"/>
<text text-anchor="start" x="63.1624" y="-810.1743" font-family="Helvetica,sans-Serif" font-size="11.00" fill="#000000">TRAINING_SESSION_ID</text>
<polygon fill="none" stroke="#000000" points="47,-784.0743 47,-803.0743 189,-803.0743 189,-784.0743 47,-784.0743"/>
<text text-anchor="start" x="50" y="-790.1743" font-family="Helvetica,sans-Serif" font-size="11.00" fill="#000000">...</text>
<polygon fill="#ffffff" stroke="transparent" points="47,-765.0743 47,-784.0743 88,-784.0743 88,-765.0743 47,-765.0743"/>
<polygon fill="none" stroke="#000000" points="47,-765.0743 47,-784.0743 88,-784.0743 88,-765.0743 47,-765.0743"/>
<text text-anchor="start" x="50" y="-771.1743" font-family="Helvetica,sans-Serif" font-size="11.00" fill="#000000"> &#160;</text>
<polygon fill="#ffffff" stroke="transparent" points="88,-765.0743 88,-784.0743 147,-784.0743 147,-765.0743 88,-765.0743"/>
<polygon fill="none" stroke="#000000" points="88,-765.0743 88,-784.0743 147,-784.0743 147,-765.0743 88,-765.0743"/>
<text text-anchor="start" x="105.4956" y="-771.1743" font-family="Helvetica,sans-Serif" font-size="11.00" fill="#000000">44 rows</text>
<polygon fill="#ffffff" stroke="transparent" points="147,-765.0743 147,-784.0743 189,-784.0743 189,-765.0743 147,-765.0743"/>
<polygon fill="none" stroke="#000000" points="147,-765.0743 147,-784.0743 189,-784.0743 189,-765.0743 147,-765.0743"/>
<text text-anchor="start" x="164.2904" y="-771.1743" font-family="Helvetica,sans-Serif" font-size="11.00" fill="#000000">82 &gt;</text>
</a>
</g>
</g>
<!-- MANAGEMENT_TIER&#45;&gt;PARTITION_AREA -->
<g id="edge2" class="edge">
<title>MANAGEMENT_TIER:w&#45;&gt;PARTITION_AREA:e</title>
<path fill="none" stroke="#000000" d="M531.5588,-507.1313C452.8696,-544.6194 578.0196,-915.4748 503,-984.0743 426.2502,-1054.256 358.3286,-1037.3322 269,-984.0743 204.7758,-945.7838 263.7724,-836.0743 189,-836.0743"/>
<polygon fill="#000000" stroke="#000000" points="538.1734,-505.7311 546.7456,-507.5963 542.0867,-504.9027 546,-504.0743 546,-504.0743 546,-504.0743 542.0867,-504.9027 545.2544,-500.5524 538.1734,-505.7311 538.1734,-505.7311"/>
<ellipse fill="none" stroke="#000000" cx="535.0428" cy="-506.3939" rx="3.2" ry="3.2"/>
</g>
<!-- R_STANDARD_REFERENCE_LIST -->
<g id="node4" class="node">
<title>R_STANDARD_REFERENCE_LIST</title>
<g id="a_node4"><a xlink:href="../../tables/R_STANDARD_REFERENCE_LIST.html" xlink:title="R_STANDARD_REFERENCE_LIST" target="_top">
<polygon fill="#ffffff" stroke="transparent" points="8,-340.5743 8,-489.5743 228,-489.5743 228,-340.5743 8,-340.5743"/>
<polygon fill="#f5f5f5" stroke="transparent" points="8,-466.0743 8,-489.0743 228,-489.0743 228,-466.0743 8,-466.0743"/>
<polygon fill="none" stroke="#000000" points="8,-466.0743 8,-489.0743 228,-489.0743 228,-466.0743 8,-466.0743"/>
<text text-anchor="start" x="12.5842" y="-475.1743" font-family="Helvetica,sans-Serif" font-weight="bold" font-size="11.00" fill="#000000">R_STANDARD_REFERENCE_LIST</text>
<text text-anchor="start" x="193.5219" y="-474.1743" font-family="Helvetica,sans-Serif" font-size="11.00" fill="#000000">[table]</text>
<polygon fill="none" stroke="#000000" points="8,-444.0743 8,-466.0743 228,-466.0743 228,-444.0743 8,-444.0743"/>
<image xlink:href="../../images/primaryKeys.png" width="11px" height="12px" preserveAspectRatio="xMinYMin meet" x="13" y="-461.074"/>
<text text-anchor="start" x="35.5558" y="-451.1743" font-family="Helvetica,sans-Serif" font-size="11.00" fill="#000000">STANDARD_REFERENCE_LIST_ID</text>
<polygon fill="none" stroke="#000000" points="8,-422.0743 8,-444.0743 228,-444.0743 228,-422.0743 8,-422.0743"/>
<image xlink:href="../../images/primaryKeys.png" width="11px" height="12px" preserveAspectRatio="xMinYMin meet" x="13" y="-439.074"/>
<text text-anchor="start" x="42" y="-429.1743" font-family="Helvetica,sans-Serif" font-size="11.00" fill="#000000">CODE_VALUE</text>
<polygon fill="none" stroke="#000000" points="8,-400.0743 8,-422.0743 228,-422.0743 228,-400.0743 8,-400.0743"/>
<image xlink:href="../../images/primaryKeys.png" width="11px" height="12px" preserveAspectRatio="xMinYMin meet" x="13" y="-417.074"/>
<text text-anchor="start" x="39.8337" y="-407.1743" font-family="Helvetica,sans-Serif" font-size="11.00" fill="#000000">REFERENCE_DATA_MASTER_ID</text>
<polygon fill="none" stroke="#000000" points="8,-378.0743 8,-400.0743 228,-400.0743 228,-378.0743 8,-378.0743"/>
<image xlink:href="../../images/primaryKeys.png" width="11px" height="12px" preserveAspectRatio="xMinYMin meet" x="13" y="-395.074"/>
<text text-anchor="start" x="42" y="-385.1743" font-family="Helvetica,sans-Serif" font-size="11.00" fill="#000000">TRAINING_SESSION_ID</text>
<polygon fill="none" stroke="#000000" points="8,-359.0743 8,-378.0743 228,-378.0743 228,-359.0743 8,-359.0743"/>
<text text-anchor="start" x="11" y="-365.1743" font-family="Helvetica,sans-Serif" font-size="11.00" fill="#000000">...</text>
<polygon fill="#ffffff" stroke="transparent" points="8,-340.0743 8,-359.0743 79,-359.0743 79,-340.0743 8,-340.0743"/>
<polygon fill="none" stroke="#000000" points="8,-340.0743 8,-359.0743 79,-359.0743 79,-340.0743 8,-340.0743"/>
<text text-anchor="start" x="11" y="-346.1743" font-family="Helvetica,sans-Serif" font-size="11.00" fill="#000000">&lt; 1</text>
<polygon fill="#ffffff" stroke="transparent" points="79,-340.0743 79,-359.0743 169,-359.0743 169,-340.0743 79,-340.0743"/>
<polygon fill="none" stroke="#000000" points="79,-340.0743 79,-359.0743 169,-359.0743 169,-340.0743 79,-340.0743"/>
<text text-anchor="start" x="106.094" y="-346.1743" font-family="Helvetica,sans-Serif" font-size="11.00" fill="#000000">15,391 rows</text>
<polygon fill="#ffffff" stroke="transparent" points="169,-340.0743 169,-359.0743 228,-359.0743 228,-340.0743 169,-340.0743"/>
<polygon fill="none" stroke="#000000" points="169,-340.0743 169,-359.0743 228,-359.0743 228,-340.0743 169,-340.0743"/>
<text text-anchor="start" x="197.1755" y="-346.1743" font-family="Helvetica,sans-Serif" font-size="11.00" fill="#000000">287 &gt;</text>
</a>
</g>
</g>
<!-- MANAGEMENT_TIER&#45;&gt;R_STANDARD_REFERENCE_LIST -->
<g id="edge3" class="edge">
<title>MANAGEMENT_TIER:w&#45;&gt;R_STANDARD_REFERENCE_LIST:e</title>
<path fill="none" stroke="#000000" d="M532.1684,-434.0468C479.4396,-398.2476 557.9709,-134.7387 503,-86.0743 425.1298,-17.1379 346.4933,-16.7145 269,-86.0743 207.5235,-141.0984 310.5046,-455.0743 228,-455.0743"/>
<polygon fill="#000000" stroke="#000000" points="538.319,-435.8377 544.9935,-441.5308 542.1595,-436.956 546,-438.0743 546,-438.0743 546,-438.0743 542.1595,-436.956 547.0065,-434.6179 538.319,-435.8377 538.319,-435.8377"/>
<ellipse fill="none" stroke="#000000" cx="535.2466" cy="-434.9431" rx="3.2" ry="3.2"/>
</g>
<!-- MANAGEMENT_TIER&#45;&gt;R_STANDARD_REFERENCE_LIST -->
<g id="edge4" class="edge">
<title>MANAGEMENT_TIER:w&#45;&gt;R_STANDARD_REFERENCE_LIST:e</title>
<path fill="none" stroke="#000000" d="M531.9043,-544.845C461.5202,-508.27 571.4932,-172.1726 503,-110.0743 464.476,-75.1472 307.8787,-75.5425 269,-110.0743 211.2756,-161.345 305.2062,-455.0743 228,-455.0743"/>
<polygon fill="#000000" stroke="#000000" points="538.202,-546.2878 545.196,-551.5834 542.101,-547.1811 546,-548.0743 546,-548.0743 546,-548.0743 542.101,-547.1811 546.804,-544.5653 538.202,-546.2878 538.202,-546.2878"/>
<ellipse fill="none" stroke="#000000" cx="535.0828" cy="-545.5731" rx="3.2" ry="3.2"/>
</g>
<!-- OFFENDER&#45;&gt;PARTITION_AREA -->
<g id="edge13" class="edge">
<title>OFFENDER:w&#45;&gt;PARTITION_AREA:e</title>
<path fill="none" stroke="#000000" d="M262.7349,-677.11C204.7358,-695.7472 265.1316,-836.0743 189,-836.0743"/>
<polygon fill="#000000" stroke="#000000" points="269.0802,-676.2045 277.5086,-678.6382 273.0401,-675.6394 277,-675.0743 277,-675.0743 277,-675.0743 273.0401,-675.6394 276.4914,-671.5105 269.0802,-676.2045 269.0802,-676.2045"/>
<ellipse fill="none" stroke="#000000" cx="265.9123" cy="-676.6566" rx="3.2" ry="3.2"/>
</g>
<!-- OFFENDER&#45;&gt;R_STANDARD_REFERENCE_LIST -->
<g id="edge5" class="edge">
<title>OFFENDER:w&#45;&gt;R_STANDARD_REFERENCE_LIST:e</title>
<path fill="none" stroke="#000000" d="M262.5062,-259.298C202.013,-281.0509 312.9888,-455.0743 228,-455.0743"/>
<polygon fill="#000000" stroke="#000000" points="269.0925,-258.2876 277.5459,-260.6327 273.0463,-257.681 277,-257.0743 277,-257.0743 277,-257.0743 273.0463,-257.681 276.4541,-253.516 269.0925,-258.2876 269.0925,-258.2876"/>
<ellipse fill="none" stroke="#000000" cx="265.9295" cy="-258.7728" rx="3.2" ry="3.2"/>
</g>
<!-- OFFENDER&#45;&gt;R_STANDARD_REFERENCE_LIST -->
<g id="edge6" class="edge">
<title>OFFENDER:w&#45;&gt;R_STANDARD_REFERENCE_LIST:e</title>
<path fill="none" stroke="#000000" d="M262.8293,-583.8114C227.4817,-563.4845 284.7116,-455.0743 228,-455.0743"/>
<polygon fill="#000000" stroke="#000000" points="269.204,-585.2792 276.1922,-590.5825 273.102,-586.1768 277,-587.0743 277,-587.0743 277,-587.0743 273.102,-586.1768 277.8078,-583.5661 269.204,-585.2792 269.204,-585.2792"/>
<ellipse fill="none" stroke="#000000" cx="266.0856" cy="-584.5611" rx="3.2" ry="3.2"/>
</g>
<!-- OFFENDER&#45;&gt;R_STANDARD_REFERENCE_LIST -->
<g id="edge7" class="edge">
<title>OFFENDER:w&#45;&gt;R_STANDARD_REFERENCE_LIST:e</title>
<path fill="none" stroke="#000000" d="M262.7767,-606.2699C219.2659,-585.3978 294.0739,-455.0743 228,-455.0743"/>
<polygon fill="#000000" stroke="#000000" points="269.1511,-607.5267 276.3036,-612.6063 273.0756,-608.3005 277,-609.0743 277,-609.0743 277,-609.0743 273.0756,-608.3005 277.6964,-605.5423 269.1511,-607.5267 269.1511,-607.5267"/>
<ellipse fill="none" stroke="#000000" cx="266.0116" cy="-606.9077" rx="3.2" ry="3.2"/>
</g>
<!-- OFFENDER&#45;&gt;R_STANDARD_REFERENCE_LIST -->
<g id="edge8" class="edge">
<title>OFFENDER:w&#45;&gt;R_STANDARD_REFERENCE_LIST:e</title>
<path fill="none" stroke="#000000" d="M262.4911,-170.5449C164.9875,-192.5896 351.5478,-455.0743 228,-455.0743"/>
<polygon fill="#000000" stroke="#000000" points="269.0408,-169.8811 277.3631,-172.656 273.0204,-169.4777 277,-169.0743 277,-169.0743 277,-169.0743 273.0204,-169.4777 276.6369,-165.4927 269.0408,-169.8811 269.0408,-169.8811"/>
<ellipse fill="none" stroke="#000000" cx="265.8571" cy="-170.2038" rx="3.2" ry="3.2"/>
</g>
<!-- OFFENDER&#45;&gt;R_STANDARD_REFERENCE_LIST -->
<g id="edge9" class="edge">
<title>OFFENDER:w&#45;&gt;R_STANDARD_REFERENCE_LIST:e</title>
<path fill="none" stroke="#000000" d="M262.9863,-538.5894C241.7228,-520.6567 266.6452,-455.0743 228,-455.0743"/>
<polygon fill="#000000" stroke="#000000" points="269.3807,-540.6358 275.9027,-546.503 273.1903,-541.8551 277,-543.0743 277,-543.0743 277,-543.0743 273.1903,-541.8551 278.0973,-539.6457 269.3807,-540.6358 269.3807,-540.6358"/>
<ellipse fill="none" stroke="#000000" cx="266.333" cy="-539.6604" rx="3.2" ry="3.2"/>
</g>
<!-- OFFENDER&#45;&gt;R_STANDARD_REFERENCE_LIST -->
<g id="edge10" class="edge">
<title>OFFENDER:w&#45;&gt;R_STANDARD_REFERENCE_LIST:e</title>
<path fill="none" stroke="#000000" d="M263.3768,-516.3278C246.7322,-501.1946 258.5399,-455.0743 228,-455.0743"/>
<polygon fill="#000000" stroke="#000000" points="269.4454,-518.4422 275.8155,-524.4739 273.2227,-519.7583 277,-521.0743 277,-521.0743 277,-521.0743 273.2227,-519.7583 278.1845,-517.6748 269.4454,-518.4422 269.4454,-518.4422"/>
<ellipse fill="none" stroke="#000000" cx="266.4236" cy="-517.3893" rx="3.2" ry="3.2"/>
</g>
<!-- OFFENDER&#45;&gt;R_STANDARD_REFERENCE_LIST -->
<g id="edge11" class="edge">
<title>OFFENDER:w&#45;&gt;R_STANDARD_REFERENCE_LIST:e</title>
<path fill="none" stroke="#000000" d="M262.782,-561.1594C235.1981,-541.5641 275.4572,-455.0743 228,-455.0743"/>
<polygon fill="#000000" stroke="#000000" points="269.2871,-562.9505 276.0443,-568.5452 273.1435,-564.0124 277,-565.0743 277,-565.0743 277,-565.0743 273.1435,-564.0124 277.9557,-561.6035 269.2871,-562.9505 269.2871,-562.9505"/>
<ellipse fill="none" stroke="#000000" cx="266.2019" cy="-562.101" rx="3.2" ry="3.2"/>
</g>
<!-- OFFENDER&#45;&gt;R_STANDARD_REFERENCE_LIST -->
<g id="edge12" class="edge">
<title>OFFENDER:w&#45;&gt;R_STANDARD_REFERENCE_LIST:e</title>
<path fill="none" stroke="#000000" d="M262.3077,-237.1118C193.1642,-259.2904 322.4998,-455.0743 228,-455.0743"/>
<polygon fill="#000000" stroke="#000000" points="269.0758,-236.1733 277.4945,-238.6402 273.0379,-235.6238 277,-235.0743 277,-235.0743 277,-235.0743 273.0379,-235.6238 276.5055,-231.5085 269.0758,-236.1733 269.0758,-236.1733"/>
<ellipse fill="none" stroke="#000000" cx="265.9062" cy="-236.6128" rx="3.2" ry="3.2"/>
</g>
<!-- OFFENDER&#45;&gt;R_STANDARD_REFERENCE_LIST -->
<g id="edge14" class="edge">
<title>OFFENDER:w&#45;&gt;R_STANDARD_REFERENCE_LIST:e</title>
<path fill="none" stroke="#000000" d="M263.3171,-494.3656C250.0046,-483.0148 251.324,-455.0743 228,-455.0743"/>
<polygon fill="#000000" stroke="#000000" points="269.4354,-496.4711 275.8285,-502.4784 273.2177,-497.7727 277,-499.0743 277,-499.0743 277,-499.0743 273.2177,-497.7727 278.1715,-495.6703 269.4354,-496.4711 269.4354,-496.4711"/>
<ellipse fill="none" stroke="#000000" cx="266.4096" cy="-495.4297" rx="3.2" ry="3.2"/>
</g>
<!-- OFFENDER&#45;&gt;R_STANDARD_REFERENCE_LIST -->
<g id="edge15" class="edge">
<title>OFFENDER:w&#45;&gt;R_STANDARD_REFERENCE_LIST:e</title>
<path fill="none" stroke="#000000" d="M262.4909,-455.0743C251.1774,-455.0743 243.9931,-455.0743 228,-455.0743"/>
<polygon fill="#000000" stroke="#000000" points="269,-455.0744 277,-458.6743 273,-455.0744 277,-455.0743 277,-455.0743 277,-455.0743 273,-455.0744 277,-451.4743 269,-455.0744 269,-455.0744"/>
<ellipse fill="none" stroke="#000000" cx="265.8" cy="-455.0744" rx="3.2" ry="3.2"/>
</g>
<!-- OFFENDER&#45;&gt;R_STANDARD_REFERENCE_LIST -->
<g id="edge16" class="edge">
<title>OFFENDER:w&#45;&gt;R_STANDARD_REFERENCE_LIST:e</title>
<path fill="none" stroke="#000000" d="M262.6297,-436.5118C251.0865,-442.6993 245.9041,-455.0743 228,-455.0743"/>
<polygon fill="#000000" stroke="#000000" points="269.2195,-434.9356 277.8375,-436.5756 273.1098,-434.005 277,-433.0743 277,-433.0743 277,-433.0743 273.1098,-434.005 276.1625,-429.5731 269.2195,-434.9356 269.2195,-434.9356"/>
<ellipse fill="none" stroke="#000000" cx="266.1073" cy="-435.68" rx="3.2" ry="3.2"/>
</g>
<!-- OFFENDER&#45;&gt;R_STANDARD_REFERENCE_LIST -->
<g id="edge17" class="edge">
<title>OFFENDER:w&#45;&gt;R_STANDARD_REFERENCE_LIST:e</title>
<path fill="none" stroke="#000000" d="M262.6233,-628.5864C210.7868,-607.1945 303.488,-455.0743 228,-455.0743"/>
<polygon fill="#000000" stroke="#000000" points="269.1172,-629.7101 276.3861,-634.6216 273.0586,-630.3922 277,-631.0743 277,-631.0743 277,-631.0743 273.0586,-630.3922 277.6139,-627.5271 269.1172,-629.7101 269.1172,-629.7101"/>
<ellipse fill="none" stroke="#000000" cx="265.964" cy="-629.1644" rx="3.2" ry="3.2"/>
</g>
<!-- OFFENDER&#45;&gt;R_STANDARD_REFERENCE_LIST -->
<g id="edge18" class="edge">
<title>OFFENDER:w&#45;&gt;R_STANDARD_REFERENCE_LIST:e</title>
<path fill="none" stroke="#000000" d="M262.3765,-214.8831C183.8532,-237.0284 332.1655,-455.0743 228,-455.0743"/>
<polygon fill="#000000" stroke="#000000" points="269.0605,-214.0564 277.4419,-216.6471 273.0303,-213.5654 277,-213.0743 277,-213.0743 277,-213.0743 273.0303,-213.5654 276.5581,-209.5016 269.0605,-214.0564 269.0605,-214.0564"/>
<ellipse fill="none" stroke="#000000" cx="265.8847" cy="-214.4493" rx="3.2" ry="3.2"/>
</g>
</g>
</svg>
