<?xml version="1.0" encoding="UTF-8" standalone="no"?>
<!DOCTYPE svg PUBLIC "-//W3C//DTD SVG 1.1//EN"
 "http://www.w3.org/Graphics/SVG/1.1/DTD/svg11.dtd">
<!-- Generated by graphviz version 2.40.1 (20161225.0304)
 -->
<!-- Title: oneDegreeRelationshipsDiagram Pages: 1 -->
<svg width="541pt" height="465pt"
 viewBox="0.00 0.00 541.00 464.70" xmlns="http://www.w3.org/2000/svg" xmlns:xlink="http://www.w3.org/1999/xlink">
<g id="graph0" class="graph" transform="scale(1 1) rotate(0) translate(4 460.7)">
<title>oneDegreeRelationshipsDiagram</title>
<polygon fill="#ffffff" stroke="transparent" points="-4,4 -4,-460.7 537,-460.7 537,4 -4,4"/>
<text text-anchor="middle" x="72.4936" y="-7.3" font-family="Helvetica,sans-Serif" font-size="11.00" fill="#000000">Generated by SchemaSpy</text>
<!-- MIGRATED_DATA_HISTORY -->
<g id="node1" class="node">
<title>MIGRATED_DATA_HISTORY</title>
<g id="a_node1"><a xlink:href="../../tables/MIGRATED_DATA_HISTORY.html" xlink:title="MIGRATED_DATA_HISTORY" target="_top">
<polygon fill="#ffffff" stroke="transparent" points="269,-186.7 269,-452.7 525,-452.7 525,-186.7 269,-186.7"/>
<polygon fill="#f5f5f5" stroke="transparent" points="271,-427.7 271,-450.7 523,-450.7 523,-427.7 271,-427.7"/>
<polygon fill="none" stroke="#000000" points="271,-427.7 271,-450.7 523,-450.7 523,-427.7 271,-427.7"/>
<text text-anchor="start" x="276" y="-436.8" font-family="Helvetica,sans-Serif" font-weight="bold" font-size="11.00" fill="#000000">MIGRATED_DATA_HISTORY</text>
<text text-anchor="start" x="488.0437" y="-435.8" font-family="Helvetica,sans-Serif" font-size="11.00" fill="#000000">[table]</text>
<polygon fill="none" stroke="#000000" points="271,-405.7 271,-427.7 450,-427.7 450,-405.7 271,-405.7"/>
<image xlink:href="../../images/primaryKeys.png" width="11px" height="12px" preserveAspectRatio="xMinYMin meet" x="276" y="-422.7"/>
<text text-anchor="start" x="285.1942" y="-412.8" font-family="Helvetica,sans-Serif" font-size="11.00" fill="#000000">MIGRATED_DATA_HISTORY_ID</text>
<polygon fill="none" stroke="#000000" points="450,-405.7 450,-427.7 523,-427.7 523,-405.7 450,-405.7"/>
<text text-anchor="start" x="453" y="-413.4" font-family="Helvetica,sans-Serif" font-size="11.00" fill="#000000">number[38]</text>
<polygon fill="none" stroke="#000000" points="271,-383.7 271,-405.7 450,-405.7 450,-383.7 271,-383.7"/>
<image xlink:href="../../images/primaryKeys.png" width="11px" height="12px" preserveAspectRatio="xMinYMin meet" x="276" y="-400.7"/>
<text text-anchor="start" x="291" y="-390.8" font-family="Helvetica,sans-Serif" font-size="11.00" fill="#000000">TABLE_NAME</text>
<polygon fill="none" stroke="#000000" points="450,-383.7 450,-405.7 523,-405.7 523,-383.7 450,-383.7"/>
<text text-anchor="start" x="453" y="-391.4" font-family="Helvetica,sans-Serif" font-size="11.00" fill="#000000">varchar2[30]</text>
<polygon fill="none" stroke="#000000" points="271,-361.7 271,-383.7 450,-383.7 450,-361.7 271,-361.7"/>
<image xlink:href="../../images/primaryKeys.png" width="11px" height="12px" preserveAspectRatio="xMinYMin meet" x="276" y="-378.7"/>
<text text-anchor="start" x="291" y="-368.8" font-family="Helvetica,sans-Serif" font-size="11.00" fill="#000000">TABLE_PK_VALUE</text>
<polygon fill="none" stroke="#000000" points="450,-361.7 450,-383.7 523,-383.7 523,-361.7 450,-361.7"/>
<text text-anchor="start" x="452.8791" y="-369.4" font-family="Helvetica,sans-Serif" font-size="11.00" fill="#000000">varchar2[100]</text>
<polygon fill="none" stroke="#000000" points="271,-339.7 271,-361.7 450,-361.7 450,-339.7 271,-339.7"/>
<image xlink:href="../../images/primaryKeys.png" width="11px" height="12px" preserveAspectRatio="xMinYMin meet" x="276" y="-356.7"/>
<text text-anchor="start" x="291" y="-346.8" font-family="Helvetica,sans-Serif" font-size="11.00" fill="#000000">SOURCE_PROVIDER_ID</text>
<polygon fill="none" stroke="#000000" points="450,-339.7 450,-361.7 523,-361.7 523,-339.7 450,-339.7"/>
<text text-anchor="start" x="453" y="-347.4" font-family="Helvetica,sans-Serif" font-size="11.00" fill="#000000">number[38]</text>
<polygon fill="none" stroke="#000000" points="271,-317.7 271,-339.7 450,-339.7 450,-317.7 271,-317.7"/>
<text text-anchor="start" x="291" y="-324.8" font-family="Helvetica,sans-Serif" font-size="11.00" fill="#000000">NOTES</text>
<polygon fill="none" stroke="#000000" points="450,-317.7 450,-339.7 523,-339.7 523,-317.7 450,-317.7"/>
<text text-anchor="start" x="453" y="-325.4" font-family="Helvetica,sans-Serif" font-size="11.00" fill="#000000">clob[4000]</text>
<polygon fill="none" stroke="#000000" points="271,-295.7 271,-317.7 450,-317.7 450,-295.7 271,-295.7"/>
<text text-anchor="start" x="291" y="-302.8" font-family="Helvetica,sans-Serif" font-size="11.00" fill="#000000">CREATED_BY_USER_ID</text>
<polygon fill="none" stroke="#000000" points="450,-295.7 450,-317.7 523,-317.7 523,-295.7 450,-295.7"/>
<text text-anchor="start" x="453" y="-303.4" font-family="Helvetica,sans-Serif" font-size="11.00" fill="#000000">number[38]</text>
<polygon fill="none" stroke="#000000" points="271,-273.7 271,-295.7 450,-295.7 450,-273.7 271,-273.7"/>
<text text-anchor="start" x="291" y="-280.8" font-family="Helvetica,sans-Serif" font-size="11.00" fill="#000000">CREATED_DATETIME</text>
<polygon fill="none" stroke="#000000" points="450,-273.7 450,-295.7 523,-295.7 523,-273.7 450,-273.7"/>
<text text-anchor="start" x="453" y="-281.4" font-family="Helvetica,sans-Serif" font-size="11.00" fill="#000000">date[7]</text>
<polygon fill="none" stroke="#000000" points="271,-251.7 271,-273.7 450,-273.7 450,-251.7 271,-251.7"/>
<text text-anchor="start" x="291" y="-258.8" font-family="Helvetica,sans-Serif" font-size="11.00" fill="#000000">LAST_UPDATED_USER_ID</text>
<polygon fill="none" stroke="#000000" points="450,-251.7 450,-273.7 523,-273.7 523,-251.7 450,-251.7"/>
<text text-anchor="start" x="453" y="-259.4" font-family="Helvetica,sans-Serif" font-size="11.00" fill="#000000">number[38]</text>
<polygon fill="none" stroke="#000000" points="271,-229.7 271,-251.7 450,-251.7 450,-229.7 271,-229.7"/>
<text text-anchor="start" x="291" y="-236.8" font-family="Helvetica,sans-Serif" font-size="11.00" fill="#000000">LAST_UPDATED_DATETIME</text>
<polygon fill="none" stroke="#000000" points="450,-229.7 450,-251.7 523,-251.7 523,-229.7 450,-229.7"/>
<text text-anchor="start" x="453" y="-237.4" font-family="Helvetica,sans-Serif" font-size="11.00" fill="#000000">date[7]</text>
<polygon fill="none" stroke="#000000" points="271,-207.7 271,-229.7 450,-229.7 450,-207.7 271,-207.7"/>
<text text-anchor="start" x="291" y="-214.8" font-family="Helvetica,sans-Serif" font-size="11.00" fill="#000000">ROW_VERSION</text>
<polygon fill="none" stroke="#000000" points="450,-207.7 450,-229.7 523,-229.7 523,-207.7 450,-207.7"/>
<text text-anchor="start" x="453" y="-215.4" font-family="Helvetica,sans-Serif" font-size="11.00" fill="#000000">number[38]</text>
<polygon fill="#ffffff" stroke="transparent" points="271,-188.7 271,-207.7 352,-207.7 352,-188.7 271,-188.7"/>
<polygon fill="none" stroke="#000000" points="271,-188.7 271,-207.7 352,-207.7 352,-188.7 271,-188.7"/>
<text text-anchor="start" x="274" y="-194.8" font-family="Helvetica,sans-Serif" font-size="11.00" fill="#000000">&lt; 1</text>
<polygon fill="#ffffff" stroke="transparent" points="352,-188.7 352,-207.7 450,-207.7 450,-188.7 352,-188.7"/>
<polygon fill="none" stroke="#000000" points="352,-188.7 352,-207.7 450,-207.7 450,-188.7 352,-188.7"/>
<text text-anchor="start" x="414.6105" y="-194.8" font-family="Helvetica,sans-Serif" font-size="11.00" fill="#000000">0 rows</text>
<polygon fill="#ffffff" stroke="transparent" points="450,-188.7 450,-207.7 523,-207.7 523,-188.7 450,-188.7"/>
<polygon fill="none" stroke="#000000" points="450,-188.7 450,-207.7 523,-207.7 523,-188.7 450,-188.7"/>
<text text-anchor="start" x="504.4053" y="-194.8" font-family="Helvetica,sans-Serif" font-size="11.00" fill="#000000">0 &gt;</text>
<polygon fill="none" stroke="#000000" stroke-width="2" points="270,-187.7 270,-451.7 524,-451.7 524,-187.7 270,-187.7"/>
</a>
</g>
</g>
<!-- PROBATION_AREA -->
<g id="node2" class="node">
<title>PROBATION_AREA</title>
<g id="a_node2"><a xlink:href="../../tables/PROBATION_AREA.html" xlink:title="PROBATION_AREA" target="_top">
<polygon fill="#ffffff" stroke="transparent" points="8,-38.2 8,-385.2 220,-385.2 220,-38.2 8,-38.2"/>
<polygon fill="#f5f5f5" stroke="transparent" points="8,-361.7 8,-384.7 220,-384.7 220,-361.7 8,-361.7"/>
<polygon fill="none" stroke="#000000" points="8,-361.7 8,-384.7 220,-384.7 220,-361.7 8,-361.7"/>
<text text-anchor="start" x="13" y="-370.8" font-family="Helvetica,sans-Serif" font-weight="bold" font-size="11.00" fill="#000000">PROBATION_AREA</text>
<text text-anchor="start" x="185.0437" y="-369.8" font-family="Helvetica,sans-Serif" font-size="11.00" fill="#000000">[table]</text>
<polygon fill="none" stroke="#000000" points="8,-339.7 8,-361.7 220,-361.7 220,-339.7 8,-339.7"/>
<image xlink:href="../../images/primaryKeys.png" width="11px" height="12px" preserveAspectRatio="xMinYMin meet" x="13" y="-356.7"/>
<text text-anchor="start" x="28" y="-346.8" font-family="Helvetica,sans-Serif" font-size="11.00" fill="#000000">PROBATION_AREA_ID</text>
<polygon fill="none" stroke="#000000" points="8,-317.7 8,-339.7 220,-339.7 220,-317.7 8,-317.7"/>
<image xlink:href="../../images/primaryKeys.png" width="11px" height="12px" preserveAspectRatio="xMinYMin meet" x="13" y="-334.7"/>
<text text-anchor="start" x="28" y="-324.8" font-family="Helvetica,sans-Serif" font-size="11.00" fill="#000000">CODE</text>
<polygon fill="none" stroke="#000000" points="8,-295.7 8,-317.7 220,-317.7 220,-295.7 8,-295.7"/>
<image xlink:href="../../images/primaryKeys.png" width="11px" height="12px" preserveAspectRatio="xMinYMin meet" x="13" y="-312.7"/>
<text text-anchor="start" x="28" y="-302.8" font-family="Helvetica,sans-Serif" font-size="11.00" fill="#000000">FORM_20_CODE</text>
<polygon fill="none" stroke="#000000" points="8,-273.7 8,-295.7 220,-295.7 220,-273.7 8,-273.7"/>
<image xlink:href="../../images/primaryKeys.png" width="11px" height="12px" preserveAspectRatio="xMinYMin meet" x="13" y="-290.7"/>
<text text-anchor="start" x="28" y="-280.8" font-family="Helvetica,sans-Serif" font-size="11.00" fill="#000000">HO_AREA_CODE</text>
<polygon fill="none" stroke="#000000" points="8,-251.7 8,-273.7 220,-273.7 220,-251.7 8,-251.7"/>
<image xlink:href="../../images/primaryKeys.png" width="11px" height="12px" preserveAspectRatio="xMinYMin meet" x="13" y="-268.7"/>
<text text-anchor="start" x="28" y="-258.8" font-family="Helvetica,sans-Serif" font-size="11.00" fill="#000000">TRAINING_SESSION_ID</text>
<polygon fill="none" stroke="#000000" points="8,-229.7 8,-251.7 220,-251.7 220,-229.7 8,-229.7"/>
<image xlink:href="../../images/primaryKeys.png" width="11px" height="12px" preserveAspectRatio="xMinYMin meet" x="13" y="-246.7"/>
<text text-anchor="start" x="28" y="-236.8" font-family="Helvetica,sans-Serif" font-size="11.00" fill="#000000">ORGANISATION_ID</text>
<polygon fill="none" stroke="#000000" points="8,-207.7 8,-229.7 220,-229.7 220,-207.7 8,-207.7"/>
<image xlink:href="../../images/primaryKeys.png" width="11px" height="12px" preserveAspectRatio="xMinYMin meet" x="13" y="-224.7"/>
<text text-anchor="start" x="28" y="-214.8" font-family="Helvetica,sans-Serif" font-size="11.00" fill="#000000">ADDRESS_ID</text>
<polygon fill="none" stroke="#000000" points="8,-185.7 8,-207.7 220,-207.7 220,-185.7 8,-185.7"/>
<image xlink:href="../../images/primaryKeys.png" width="11px" height="12px" preserveAspectRatio="xMinYMin meet" x="13" y="-202.7"/>
<text text-anchor="start" x="28" y="-192.8" font-family="Helvetica,sans-Serif" font-size="11.00" fill="#000000">SPG_ACTIVE_ID</text>
<polygon fill="none" stroke="#000000" points="8,-163.7 8,-185.7 220,-185.7 220,-163.7 8,-163.7"/>
<image xlink:href="../../images/primaryKeys.png" width="11px" height="12px" preserveAspectRatio="xMinYMin meet" x="13" y="-180.7"/>
<text text-anchor="start" x="28" y="-170.8" font-family="Helvetica,sans-Serif" font-size="11.00" fill="#000000">INSTITUTION_ID</text>
<polygon fill="none" stroke="#000000" points="8,-141.7 8,-163.7 220,-163.7 220,-141.7 8,-141.7"/>
<image xlink:href="../../images/primaryKeys.png" width="11px" height="12px" preserveAspectRatio="xMinYMin meet" x="13" y="-158.7"/>
<text text-anchor="start" x="28" y="-148.8" font-family="Helvetica,sans-Serif" font-size="11.00" fill="#000000">ESTABLISHMENT</text>
<polygon fill="none" stroke="#000000" points="8,-119.7 8,-141.7 220,-141.7 220,-119.7 8,-119.7"/>
<image xlink:href="../../images/primaryKeys.png" width="11px" height="12px" preserveAspectRatio="xMinYMin meet" x="13" y="-136.7"/>
<text text-anchor="start" x="28" y="-126.8" font-family="Helvetica,sans-Serif" font-size="11.00" fill="#000000">DEFAULT_TRANSFER_TEAM_ID</text>
<polygon fill="none" stroke="#000000" points="8,-97.7 8,-119.7 220,-119.7 220,-97.7 8,-97.7"/>
<image xlink:href="../../images/primaryKeys.png" width="11px" height="12px" preserveAspectRatio="xMinYMin meet" x="13" y="-114.7"/>
<text text-anchor="start" x="28" y="-104.8" font-family="Helvetica,sans-Serif" font-size="11.00" fill="#000000">DEFAULT_COURT_TEAM_ID</text>
<polygon fill="none" stroke="#000000" points="8,-75.7 8,-97.7 220,-97.7 220,-75.7 8,-75.7"/>
<image xlink:href="../../images/primaryKeys.png" width="11px" height="12px" preserveAspectRatio="xMinYMin meet" x="13" y="-92.7"/>
<text text-anchor="start" x="28" y="-82.8" font-family="Helvetica,sans-Serif" font-size="11.00" fill="#000000">DEFAULT_POSTCODE_TEAM_ID</text>
<polygon fill="none" stroke="#000000" points="8,-56.7 8,-75.7 220,-75.7 220,-56.7 8,-56.7"/>
<text text-anchor="start" x="11" y="-62.8" font-family="Helvetica,sans-Serif" font-size="11.00" fill="#000000">...</text>
<polygon fill="#ffffff" stroke="transparent" points="8,-37.7 8,-56.7 86,-56.7 86,-37.7 8,-37.7"/>
<polygon fill="none" stroke="#000000" points="8,-37.7 8,-56.7 86,-56.7 86,-37.7 8,-37.7"/>
<text text-anchor="start" x="11" y="-43.8" font-family="Helvetica,sans-Serif" font-size="11.00" fill="#000000">&lt; 8</text>
<polygon fill="#ffffff" stroke="transparent" points="86,-37.7 86,-56.7 164,-56.7 164,-37.7 86,-37.7"/>
<polygon fill="none" stroke="#000000" points="86,-37.7 86,-56.7 164,-56.7 164,-37.7 86,-37.7"/>
<text text-anchor="start" x="116.3807" y="-43.8" font-family="Helvetica,sans-Serif" font-size="11.00" fill="#000000">223 rows</text>
<polygon fill="#ffffff" stroke="transparent" points="164,-37.7 164,-56.7 220,-56.7 220,-37.7 164,-37.7"/>
<polygon fill="none" stroke="#000000" points="164,-37.7 164,-56.7 220,-56.7 220,-37.7 164,-37.7"/>
<text text-anchor="start" x="195.2904" y="-43.8" font-family="Helvetica,sans-Serif" font-size="11.00" fill="#000000">59 &gt;</text>
</a>
</g>
</g>
<!-- MIGRATED_DATA_HISTORY&#45;&gt;PROBATION_AREA -->
<g id="edge1" class="edge">
<title>MIGRATED_DATA_HISTORY:w&#45;&gt;PROBATION_AREA:e</title>
<path fill="none" stroke="#000000" d="M256.276,-350.7C244.2815,-350.7 236.8229,-350.7 220,-350.7"/>
<polygon fill="#000000" stroke="#000000" points="263,-350.7001 271,-354.3 267,-350.7 271,-350.7 271,-350.7 271,-350.7 267,-350.7 271,-347.1 263,-350.7001 263,-350.7001"/>
<ellipse fill="none" stroke="#000000" cx="259.8" cy="-350.7001" rx="3.2" ry="3.2"/>
</g>
</g>
</svg>
