<?xml version="1.0" encoding="UTF-8" standalone="no"?>
<!DOCTYPE svg PUBLIC "-//W3C//DTD SVG 1.1//EN"
 "http://www.w3.org/Graphics/SVG/1.1/DTD/svg11.dtd">
<!-- Generated by graphviz version 2.40.1 (20161225.0304)
 -->
<!-- Title: oneDegreeRelationshipsDiagram Pages: 1 -->
<svg width="490pt" height="448pt"
 viewBox="0.00 0.00 490.00 448.20" xmlns="http://www.w3.org/2000/svg" xmlns:xlink="http://www.w3.org/1999/xlink">
<g id="graph0" class="graph" transform="scale(1 1) rotate(0) translate(4 444.2)">
<title>oneDegreeRelationshipsDiagram</title>
<polygon fill="#ffffff" stroke="transparent" points="-4,4 -4,-444.2 486,-444.2 486,4 -4,4"/>
<text text-anchor="middle" x="72.4936" y="-7.3" font-family="Helvetica,sans-Serif" font-size="11.00" fill="#000000">Generated by SchemaSpy</text>
<!-- NOMIS_CASE_NOTE_ERROR -->
<g id="node1" class="node">
<title>NOMIS_CASE_NOTE_ERROR</title>
<g id="a_node1"><a xlink:href="../../tables/NOMIS_CASE_NOTE_ERROR.html" xlink:title="NOMIS_CASE_NOTE_ERROR" target="_top">
<polygon fill="#ffffff" stroke="transparent" points="218,-38.2 218,-436.2 474,-436.2 474,-38.2 218,-38.2"/>
<polygon fill="#f5f5f5" stroke="transparent" points="220,-411.2 220,-434.2 472,-434.2 472,-411.2 220,-411.2"/>
<polygon fill="none" stroke="#000000" points="220,-411.2 220,-434.2 472,-434.2 472,-411.2 220,-411.2"/>
<text text-anchor="start" x="225" y="-420.3" font-family="Helvetica,sans-Serif" font-weight="bold" font-size="11.00" fill="#000000">NOMIS_CASE_NOTE_ERROR</text>
<text text-anchor="start" x="437.0437" y="-419.3" font-family="Helvetica,sans-Serif" font-size="11.00" fill="#000000">[table]</text>
<polygon fill="none" stroke="#000000" points="220,-389.2 220,-411.2 405,-411.2 405,-389.2 220,-389.2"/>
<image xlink:href="../../images/primaryKeys.png" width="11px" height="12px" preserveAspectRatio="xMinYMin meet" x="225" y="-406.2"/>
<text text-anchor="start" x="234.1362" y="-396.3" font-family="Helvetica,sans-Serif" font-size="11.00" fill="#000000">NOMIS_CASE_NOTE_ERROR_ID</text>
<polygon fill="none" stroke="#000000" points="405,-389.2 405,-411.2 472,-411.2 472,-389.2 405,-389.2"/>
<text text-anchor="start" x="408" y="-396.9" font-family="Helvetica,sans-Serif" font-size="11.00" fill="#000000">number[38]</text>
<polygon fill="none" stroke="#000000" points="220,-367.2 220,-389.2 405,-389.2 405,-367.2 220,-367.2"/>
<text text-anchor="start" x="240" y="-374.3" font-family="Helvetica,sans-Serif" font-size="11.00" fill="#000000">NOMIS_NUMBER</text>
<polygon fill="none" stroke="#000000" points="405,-367.2 405,-389.2 472,-389.2 472,-367.2 405,-367.2"/>
<text text-anchor="start" x="408" y="-374.9" font-family="Helvetica,sans-Serif" font-size="11.00" fill="#000000">varchar2[7]</text>
<polygon fill="none" stroke="#000000" points="220,-345.2 220,-367.2 405,-367.2 405,-345.2 220,-345.2"/>
<image xlink:href="../../images/primaryKeys.png" width="11px" height="12px" preserveAspectRatio="xMinYMin meet" x="225" y="-362.2"/>
<text text-anchor="start" x="240" y="-352.3" font-family="Helvetica,sans-Serif" font-size="11.00" fill="#000000">STAFF_ID</text>
<polygon fill="none" stroke="#000000" points="405,-345.2 405,-367.2 472,-367.2 472,-345.2 405,-345.2"/>
<text text-anchor="start" x="408" y="-352.9" font-family="Helvetica,sans-Serif" font-size="11.00" fill="#000000">number[38]</text>
<polygon fill="none" stroke="#000000" points="220,-323.2 220,-345.2 405,-345.2 405,-323.2 220,-323.2"/>
<text text-anchor="start" x="240" y="-330.3" font-family="Helvetica,sans-Serif" font-size="11.00" fill="#000000">ERROR_DATE</text>
<polygon fill="none" stroke="#000000" points="405,-323.2 405,-345.2 472,-345.2 472,-323.2 405,-323.2"/>
<text text-anchor="start" x="408" y="-330.9" font-family="Helvetica,sans-Serif" font-size="11.00" fill="#000000">date[7]</text>
<polygon fill="none" stroke="#000000" points="220,-301.2 220,-323.2 405,-323.2 405,-301.2 220,-301.2"/>
<text text-anchor="start" x="240" y="-308.3" font-family="Helvetica,sans-Serif" font-size="11.00" fill="#000000">NOTE_TYPE</text>
<polygon fill="none" stroke="#000000" points="405,-301.2 405,-323.2 472,-323.2 472,-301.2 405,-301.2"/>
<text text-anchor="start" x="407.9365" y="-308.9" font-family="Helvetica,sans-Serif" font-size="11.00" fill="#000000">varchar2[32]</text>
<polygon fill="none" stroke="#000000" points="220,-279.2 220,-301.2 405,-301.2 405,-279.2 220,-279.2"/>
<text text-anchor="start" x="240" y="-286.3" font-family="Helvetica,sans-Serif" font-size="11.00" fill="#000000">CASE_NOTE_ID</text>
<polygon fill="none" stroke="#000000" points="405,-279.2 405,-301.2 472,-301.2 472,-279.2 405,-279.2"/>
<text text-anchor="start" x="408" y="-286.9" font-family="Helvetica,sans-Serif" font-size="11.00" fill="#000000">number[38]</text>
<polygon fill="none" stroke="#000000" points="220,-257.2 220,-279.2 405,-279.2 405,-257.2 220,-257.2"/>
<text text-anchor="start" x="240" y="-264.3" font-family="Helvetica,sans-Serif" font-size="11.00" fill="#000000">CASE_NOTE</text>
<polygon fill="none" stroke="#000000" points="405,-257.2 405,-279.2 472,-279.2 472,-257.2 405,-257.2"/>
<text text-anchor="start" x="408" y="-264.9" font-family="Helvetica,sans-Serif" font-size="11.00" fill="#000000">clob[4000]</text>
<polygon fill="none" stroke="#000000" points="220,-235.2 220,-257.2 405,-257.2 405,-235.2 220,-235.2"/>
<text text-anchor="start" x="240" y="-242.3" font-family="Helvetica,sans-Serif" font-size="11.00" fill="#000000">RESENT</text>
<polygon fill="none" stroke="#000000" points="405,-235.2 405,-257.2 472,-257.2 472,-235.2 405,-235.2"/>
<text text-anchor="start" x="408" y="-242.9" font-family="Helvetica,sans-Serif" font-size="11.00" fill="#000000">char[1]</text>
<polygon fill="none" stroke="#000000" points="220,-213.2 220,-235.2 405,-235.2 405,-213.2 220,-213.2"/>
<text text-anchor="start" x="240" y="-220.3" font-family="Helvetica,sans-Serif" font-size="11.00" fill="#000000">CREATED_BY_USER_ID</text>
<polygon fill="none" stroke="#000000" points="405,-213.2 405,-235.2 472,-235.2 472,-213.2 405,-213.2"/>
<text text-anchor="start" x="408" y="-220.9" font-family="Helvetica,sans-Serif" font-size="11.00" fill="#000000">number[38]</text>
<polygon fill="none" stroke="#000000" points="220,-191.2 220,-213.2 405,-213.2 405,-191.2 220,-191.2"/>
<text text-anchor="start" x="240" y="-198.3" font-family="Helvetica,sans-Serif" font-size="11.00" fill="#000000">CREATED_DATETIME</text>
<polygon fill="none" stroke="#000000" points="405,-191.2 405,-213.2 472,-213.2 472,-191.2 405,-191.2"/>
<text text-anchor="start" x="408" y="-198.9" font-family="Helvetica,sans-Serif" font-size="11.00" fill="#000000">date[7]</text>
<polygon fill="none" stroke="#000000" points="220,-169.2 220,-191.2 405,-191.2 405,-169.2 220,-169.2"/>
<text text-anchor="start" x="240" y="-176.3" font-family="Helvetica,sans-Serif" font-size="11.00" fill="#000000">LAST_UPDATED_USER_ID</text>
<polygon fill="none" stroke="#000000" points="405,-169.2 405,-191.2 472,-191.2 472,-169.2 405,-169.2"/>
<text text-anchor="start" x="408" y="-176.9" font-family="Helvetica,sans-Serif" font-size="11.00" fill="#000000">number[38]</text>
<polygon fill="none" stroke="#000000" points="220,-147.2 220,-169.2 405,-169.2 405,-147.2 220,-147.2"/>
<text text-anchor="start" x="240" y="-154.3" font-family="Helvetica,sans-Serif" font-size="11.00" fill="#000000">LAST_UPDATED_DATETIME</text>
<polygon fill="none" stroke="#000000" points="405,-147.2 405,-169.2 472,-169.2 472,-147.2 405,-147.2"/>
<text text-anchor="start" x="408" y="-154.9" font-family="Helvetica,sans-Serif" font-size="11.00" fill="#000000">date[7]</text>
<polygon fill="none" stroke="#000000" points="220,-125.2 220,-147.2 405,-147.2 405,-125.2 220,-125.2"/>
<text text-anchor="start" x="240" y="-132.3" font-family="Helvetica,sans-Serif" font-size="11.00" fill="#000000">ROW_VERSION</text>
<polygon fill="none" stroke="#000000" points="405,-125.2 405,-147.2 472,-147.2 472,-125.2 405,-125.2"/>
<text text-anchor="start" x="408" y="-132.9" font-family="Helvetica,sans-Serif" font-size="11.00" fill="#000000">number[38]</text>
<polygon fill="none" stroke="#000000" points="220,-103.2 220,-125.2 405,-125.2 405,-103.2 220,-103.2"/>
<text text-anchor="start" x="240" y="-110.3" font-family="Helvetica,sans-Serif" font-size="11.00" fill="#000000">CONTACT_DATE</text>
<polygon fill="none" stroke="#000000" points="405,-103.2 405,-125.2 472,-125.2 472,-103.2 405,-103.2"/>
<text text-anchor="start" x="408" y="-110.9" font-family="Helvetica,sans-Serif" font-size="11.00" fill="#000000">date[7]</text>
<polygon fill="none" stroke="#000000" points="220,-81.2 220,-103.2 405,-103.2 405,-81.2 220,-81.2"/>
<text text-anchor="start" x="240" y="-88.3" font-family="Helvetica,sans-Serif" font-size="11.00" fill="#000000">RESPONSE_CODE</text>
<polygon fill="none" stroke="#000000" points="405,-81.2 405,-103.2 472,-103.2 472,-81.2 405,-81.2"/>
<text text-anchor="start" x="408" y="-88.9" font-family="Helvetica,sans-Serif" font-size="11.00" fill="#000000">number[38]</text>
<polygon fill="none" stroke="#000000" points="220,-59.2 220,-81.2 405,-81.2 405,-59.2 220,-59.2"/>
<text text-anchor="start" x="240" y="-66.3" font-family="Helvetica,sans-Serif" font-size="11.00" fill="#000000">REQUEST_METHOD</text>
<polygon fill="none" stroke="#000000" points="405,-59.2 405,-81.2 472,-81.2 472,-59.2 405,-59.2"/>
<text text-anchor="start" x="408" y="-66.9" font-family="Helvetica,sans-Serif" font-size="11.00" fill="#000000">varchar2[6]</text>
<polygon fill="#ffffff" stroke="transparent" points="220,-40.2 220,-59.2 293,-59.2 293,-40.2 220,-40.2"/>
<polygon fill="none" stroke="#000000" points="220,-40.2 220,-59.2 293,-59.2 293,-40.2 220,-40.2"/>
<text text-anchor="start" x="223" y="-46.3" font-family="Helvetica,sans-Serif" font-size="11.00" fill="#000000">&lt; 1</text>
<polygon fill="#ffffff" stroke="transparent" points="293,-40.2 293,-59.2 405,-59.2 405,-40.2 293,-40.2"/>
<polygon fill="none" stroke="#000000" points="293,-40.2 293,-59.2 405,-59.2 405,-40.2 293,-40.2"/>
<text text-anchor="start" x="348.2089" y="-46.3" font-family="Helvetica,sans-Serif" font-size="11.00" fill="#000000">4,937 rows</text>
<polygon fill="#ffffff" stroke="transparent" points="405,-40.2 405,-59.2 472,-59.2 472,-40.2 405,-40.2"/>
<polygon fill="none" stroke="#000000" points="405,-40.2 405,-59.2 472,-59.2 472,-40.2 405,-40.2"/>
<text text-anchor="start" x="453.4053" y="-46.3" font-family="Helvetica,sans-Serif" font-size="11.00" fill="#000000">0 &gt;</text>
<polygon fill="none" stroke="#000000" stroke-width="2" points="219,-39.2 219,-435.2 473,-435.2 473,-39.2 219,-39.2"/>
</a>
</g>
</g>
<!-- STAFF -->
<g id="node2" class="node">
<title>STAFF</title>
<g id="a_node2"><a xlink:href="../../tables/STAFF.html" xlink:title="STAFF" target="_top">
<polygon fill="#ffffff" stroke="transparent" points="8,-109.7 8,-390.7 169,-390.7 169,-109.7 8,-109.7"/>
<polygon fill="#f5f5f5" stroke="transparent" points="8.5,-367.2 8.5,-390.2 169.5,-390.2 169.5,-367.2 8.5,-367.2"/>
<polygon fill="none" stroke="#000000" points="8.5,-367.2 8.5,-390.2 169.5,-390.2 169.5,-367.2 8.5,-367.2"/>
<text text-anchor="start" x="13.5" y="-376.3" font-family="Helvetica,sans-Serif" font-weight="bold" font-size="11.00" fill="#000000">STAFF</text>
<text text-anchor="start" x="134.5437" y="-375.3" font-family="Helvetica,sans-Serif" font-size="11.00" fill="#000000">[table]</text>
<polygon fill="none" stroke="#000000" points="8.5,-345.2 8.5,-367.2 169.5,-367.2 169.5,-345.2 8.5,-345.2"/>
<image xlink:href="../../images/primaryKeys.png" width="11px" height="12px" preserveAspectRatio="xMinYMin meet" x="13.5" y="-362.2"/>
<text text-anchor="start" x="28.5" y="-352.3" font-family="Helvetica,sans-Serif" font-size="11.00" fill="#000000">STAFF_ID</text>
<polygon fill="none" stroke="#000000" points="8.5,-323.2 8.5,-345.2 169.5,-345.2 169.5,-323.2 8.5,-323.2"/>
<image xlink:href="../../images/primaryKeys.png" width="11px" height="12px" preserveAspectRatio="xMinYMin meet" x="13.5" y="-340.2"/>
<text text-anchor="start" x="28.5" y="-330.3" font-family="Helvetica,sans-Serif" font-size="11.00" fill="#000000">SURNAME</text>
<polygon fill="none" stroke="#000000" points="8.5,-301.2 8.5,-323.2 169.5,-323.2 169.5,-301.2 8.5,-301.2"/>
<image xlink:href="../../images/primaryKeys.png" width="11px" height="12px" preserveAspectRatio="xMinYMin meet" x="13.5" y="-318.2"/>
<text text-anchor="start" x="28.5" y="-308.3" font-family="Helvetica,sans-Serif" font-size="11.00" fill="#000000">FORENAME</text>
<polygon fill="none" stroke="#000000" points="8.5,-279.2 8.5,-301.2 169.5,-301.2 169.5,-279.2 8.5,-279.2"/>
<image xlink:href="../../images/primaryKeys.png" width="11px" height="12px" preserveAspectRatio="xMinYMin meet" x="13.5" y="-296.2"/>
<text text-anchor="start" x="28.5" y="-286.3" font-family="Helvetica,sans-Serif" font-size="11.00" fill="#000000">FORENAME2</text>
<polygon fill="none" stroke="#000000" points="8.5,-257.2 8.5,-279.2 169.5,-279.2 169.5,-257.2 8.5,-257.2"/>
<image xlink:href="../../images/primaryKeys.png" width="11px" height="12px" preserveAspectRatio="xMinYMin meet" x="13.5" y="-274.2"/>
<text text-anchor="start" x="28.5" y="-264.3" font-family="Helvetica,sans-Serif" font-size="11.00" fill="#000000">STAFF_GRADE_ID</text>
<polygon fill="none" stroke="#000000" points="8.5,-235.2 8.5,-257.2 169.5,-257.2 169.5,-235.2 8.5,-235.2"/>
<image xlink:href="../../images/primaryKeys.png" width="11px" height="12px" preserveAspectRatio="xMinYMin meet" x="13.5" y="-252.2"/>
<text text-anchor="start" x="28.5" y="-242.3" font-family="Helvetica,sans-Serif" font-size="11.00" fill="#000000">TITLE_ID</text>
<polygon fill="none" stroke="#000000" points="8.5,-213.2 8.5,-235.2 169.5,-235.2 169.5,-213.2 8.5,-213.2"/>
<image xlink:href="../../images/primaryKeys.png" width="11px" height="12px" preserveAspectRatio="xMinYMin meet" x="13.5" y="-230.2"/>
<text text-anchor="start" x="28.5" y="-220.3" font-family="Helvetica,sans-Serif" font-size="11.00" fill="#000000">OFFICER_CODE</text>
<polygon fill="none" stroke="#000000" points="8.5,-191.2 8.5,-213.2 169.5,-213.2 169.5,-191.2 8.5,-191.2"/>
<image xlink:href="../../images/primaryKeys.png" width="11px" height="12px" preserveAspectRatio="xMinYMin meet" x="13.5" y="-208.2"/>
<text text-anchor="start" x="28.5" y="-198.3" font-family="Helvetica,sans-Serif" font-size="11.00" fill="#000000">TRAINING_SESSION_ID</text>
<polygon fill="none" stroke="#000000" points="8.5,-169.2 8.5,-191.2 169.5,-191.2 169.5,-169.2 8.5,-169.2"/>
<image xlink:href="../../images/primaryKeys.png" width="11px" height="12px" preserveAspectRatio="xMinYMin meet" x="13.5" y="-186.2"/>
<text text-anchor="start" x="28.5" y="-176.3" font-family="Helvetica,sans-Serif" font-size="11.00" fill="#000000">SC_PROVIDER_ID</text>
<polygon fill="none" stroke="#000000" points="8.5,-147.2 8.5,-169.2 169.5,-169.2 169.5,-147.2 8.5,-147.2"/>
<image xlink:href="../../images/primaryKeys.png" width="11px" height="12px" preserveAspectRatio="xMinYMin meet" x="13.5" y="-164.2"/>
<text text-anchor="start" x="28.5" y="-154.3" font-family="Helvetica,sans-Serif" font-size="11.00" fill="#000000">PROBATION_AREA_ID</text>
<polygon fill="none" stroke="#000000" points="8.5,-128.2 8.5,-147.2 169.5,-147.2 169.5,-128.2 8.5,-128.2"/>
<text text-anchor="start" x="11.5" y="-134.3" font-family="Helvetica,sans-Serif" font-size="11.00" fill="#000000">...</text>
<polygon fill="#ffffff" stroke="transparent" points="8.5,-109.2 8.5,-128.2 56.5,-128.2 56.5,-109.2 8.5,-109.2"/>
<polygon fill="none" stroke="#000000" points="8.5,-109.2 8.5,-128.2 56.5,-128.2 56.5,-109.2 8.5,-109.2"/>
<text text-anchor="start" x="11.5" y="-115.3" font-family="Helvetica,sans-Serif" font-size="11.00" fill="#000000">&lt; 4</text>
<polygon fill="#ffffff" stroke="transparent" points="56.5,-109.2 56.5,-128.2 128.5,-128.2 128.5,-109.2 56.5,-109.2"/>
<polygon fill="none" stroke="#000000" points="56.5,-109.2 56.5,-128.2 128.5,-128.2 128.5,-109.2 56.5,-109.2"/>
<text text-anchor="start" x="71.7089" y="-115.3" font-family="Helvetica,sans-Serif" font-size="11.00" fill="#000000">3,352 rows</text>
<polygon fill="#ffffff" stroke="transparent" points="128.5,-109.2 128.5,-128.2 169.5,-128.2 169.5,-109.2 128.5,-109.2"/>
<polygon fill="none" stroke="#000000" points="128.5,-109.2 128.5,-128.2 169.5,-128.2 169.5,-109.2 128.5,-109.2"/>
<text text-anchor="start" x="144.7904" y="-115.3" font-family="Helvetica,sans-Serif" font-size="11.00" fill="#000000">56 &gt;</text>
</a>
</g>
</g>
<!-- NOMIS_CASE_NOTE_ERROR&#45;&gt;STAFF -->
<g id="edge1" class="edge">
<title>NOMIS_CASE_NOTE_ERROR:w&#45;&gt;STAFF:e</title>
<path fill="none" stroke="#000000" d="M205.4203,-356.2C193.5435,-356.2 186.158,-356.2 169.5,-356.2"/>
<polygon fill="#000000" stroke="#000000" points="212,-356.2001 220,-359.8 216,-356.2 220,-356.2 220,-356.2 220,-356.2 216,-356.2 220,-352.6 212,-356.2001 212,-356.2001"/>
<ellipse fill="none" stroke="#000000" cx="208.8" cy="-356.2001" rx="3.2" ry="3.2"/>
</g>
</g>
</svg>
