<?xml version="1.0" encoding="UTF-8" standalone="no"?>
<!DOCTYPE svg PUBLIC "-//W3C//DTD SVG 1.1//EN"
 "http://www.w3.org/Graphics/SVG/1.1/DTD/svg11.dtd">
<!-- Generated by graphviz version 2.40.1 (20161225.0304)
 -->
<!-- Title: oneDegreeRelationshipsDiagram Pages: 1 -->
<svg width="692pt" height="484pt"
 viewBox="0.00 0.00 692.00 483.70" xmlns="http://www.w3.org/2000/svg" xmlns:xlink="http://www.w3.org/1999/xlink">
<g id="graph0" class="graph" transform="scale(1 1) rotate(0) translate(4 479.7)">
<title>oneDegreeRelationshipsDiagram</title>
<polygon fill="#ffffff" stroke="transparent" points="-4,4 -4,-479.7 688,-479.7 688,4 -4,4"/>
<text text-anchor="middle" x="72.4936" y="-7.3" font-family="Helvetica,sans-Serif" font-size="11.00" fill="#000000">Generated by SchemaSpy</text>
<!-- NSI -->
<g id="node1" class="node">
<title>NSI</title>
<g id="a_node1"><a xlink:href="../../tables/NSI.html" xlink:title="NSI" target="_top">
<polygon fill="#ffffff" stroke="transparent" points="218,-102.7 218,-471.7 401,-471.7 401,-102.7 218,-102.7"/>
<polygon fill="#f5f5f5" stroke="transparent" points="218.5,-448.2 218.5,-471.2 401.5,-471.2 401.5,-448.2 218.5,-448.2"/>
<polygon fill="none" stroke="#000000" points="218.5,-448.2 218.5,-471.2 401.5,-471.2 401.5,-448.2 218.5,-448.2"/>
<text text-anchor="start" x="223.5" y="-457.3" font-family="Helvetica,sans-Serif" font-weight="bold" font-size="11.00" fill="#000000">NSI</text>
<text text-anchor="start" x="366.5437" y="-456.3" font-family="Helvetica,sans-Serif" font-size="11.00" fill="#000000">[table]</text>
<polygon fill="none" stroke="#000000" points="218.5,-426.2 218.5,-448.2 401.5,-448.2 401.5,-426.2 218.5,-426.2"/>
<image xlink:href="../../images/primaryKeys.png" width="11px" height="12px" preserveAspectRatio="xMinYMin meet" x="223.5" y="-443.2"/>
<text text-anchor="start" x="238.5" y="-433.3" font-family="Helvetica,sans-Serif" font-size="11.00" fill="#000000">NSI_ID</text>
<polygon fill="none" stroke="#000000" points="218.5,-404.2 218.5,-426.2 401.5,-426.2 401.5,-404.2 218.5,-404.2"/>
<image xlink:href="../../images/primaryKeys.png" width="11px" height="12px" preserveAspectRatio="xMinYMin meet" x="223.5" y="-421.2"/>
<text text-anchor="start" x="238.5" y="-411.3" font-family="Helvetica,sans-Serif" font-size="11.00" fill="#000000">OFFENDER_ID</text>
<polygon fill="none" stroke="#000000" points="218.5,-382.2 218.5,-404.2 401.5,-404.2 401.5,-382.2 218.5,-382.2"/>
<image xlink:href="../../images/primaryKeys.png" width="11px" height="12px" preserveAspectRatio="xMinYMin meet" x="223.5" y="-399.2"/>
<text text-anchor="start" x="238.5" y="-389.3" font-family="Helvetica,sans-Serif" font-size="11.00" fill="#000000">EVENT_ID</text>
<polygon fill="none" stroke="#000000" points="218.5,-360.2 218.5,-382.2 401.5,-382.2 401.5,-360.2 218.5,-360.2"/>
<image xlink:href="../../images/primaryKeys.png" width="11px" height="12px" preserveAspectRatio="xMinYMin meet" x="223.5" y="-377.2"/>
<text text-anchor="start" x="238.5" y="-367.3" font-family="Helvetica,sans-Serif" font-size="11.00" fill="#000000">NSI_TYPE_ID</text>
<polygon fill="none" stroke="#000000" points="218.5,-338.2 218.5,-360.2 401.5,-360.2 401.5,-338.2 218.5,-338.2"/>
<image xlink:href="../../images/primaryKeys.png" width="11px" height="12px" preserveAspectRatio="xMinYMin meet" x="223.5" y="-355.2"/>
<text text-anchor="start" x="238.5" y="-345.3" font-family="Helvetica,sans-Serif" font-size="11.00" fill="#000000">NSI_SUB_TYPE_ID</text>
<polygon fill="none" stroke="#000000" points="218.5,-316.2 218.5,-338.2 401.5,-338.2 401.5,-316.2 218.5,-316.2"/>
<image xlink:href="../../images/primaryKeys.png" width="11px" height="12px" preserveAspectRatio="xMinYMin meet" x="223.5" y="-333.2"/>
<text text-anchor="start" x="238.5" y="-323.3" font-family="Helvetica,sans-Serif" font-size="11.00" fill="#000000">NSI_STATUS_ID</text>
<polygon fill="none" stroke="#000000" points="218.5,-294.2 218.5,-316.2 401.5,-316.2 401.5,-294.2 218.5,-294.2"/>
<image xlink:href="../../images/primaryKeys.png" width="11px" height="12px" preserveAspectRatio="xMinYMin meet" x="223.5" y="-311.2"/>
<text text-anchor="start" x="238.5" y="-301.3" font-family="Helvetica,sans-Serif" font-size="11.00" fill="#000000">NSI_OUTCOME_ID</text>
<polygon fill="none" stroke="#000000" points="218.5,-272.2 218.5,-294.2 401.5,-294.2 401.5,-272.2 218.5,-272.2"/>
<image xlink:href="../../images/primaryKeys.png" width="11px" height="12px" preserveAspectRatio="xMinYMin meet" x="223.5" y="-289.2"/>
<text text-anchor="start" x="238.5" y="-279.3" font-family="Helvetica,sans-Serif" font-size="11.00" fill="#000000">TRAINING_SESSION_ID</text>
<polygon fill="none" stroke="#000000" points="218.5,-250.2 218.5,-272.2 401.5,-272.2 401.5,-250.2 218.5,-250.2"/>
<image xlink:href="../../images/primaryKeys.png" width="11px" height="12px" preserveAspectRatio="xMinYMin meet" x="223.5" y="-267.2"/>
<text text-anchor="start" x="238.5" y="-257.3" font-family="Helvetica,sans-Serif" font-size="11.00" fill="#000000">RQMNT_ID</text>
<polygon fill="none" stroke="#000000" points="218.5,-228.2 218.5,-250.2 401.5,-250.2 401.5,-228.2 218.5,-228.2"/>
<image xlink:href="../../images/primaryKeys.png" width="11px" height="12px" preserveAspectRatio="xMinYMin meet" x="223.5" y="-245.2"/>
<text text-anchor="start" x="238.5" y="-235.3" font-family="Helvetica,sans-Serif" font-size="11.00" fill="#000000">INTENDED_PROVIDER_ID</text>
<polygon fill="none" stroke="#000000" points="218.5,-206.2 218.5,-228.2 401.5,-228.2 401.5,-206.2 218.5,-206.2"/>
<image xlink:href="../../images/primaryKeys.png" width="11px" height="12px" preserveAspectRatio="xMinYMin meet" x="223.5" y="-223.2"/>
<text text-anchor="start" x="238.5" y="-213.3" font-family="Helvetica,sans-Serif" font-size="11.00" fill="#000000">ADDITIONAL_IDENTIFIER1_ID</text>
<polygon fill="none" stroke="#000000" points="218.5,-184.2 218.5,-206.2 401.5,-206.2 401.5,-184.2 218.5,-184.2"/>
<image xlink:href="../../images/primaryKeys.png" width="11px" height="12px" preserveAspectRatio="xMinYMin meet" x="223.5" y="-201.2"/>
<text text-anchor="start" x="238.5" y="-191.3" font-family="Helvetica,sans-Serif" font-size="11.00" fill="#000000">ADDITIONAL_IDENTIFIER2_ID</text>
<polygon fill="none" stroke="#000000" points="218.5,-162.2 218.5,-184.2 401.5,-184.2 401.5,-162.2 218.5,-162.2"/>
<image xlink:href="../../images/primaryKeys.png" width="11px" height="12px" preserveAspectRatio="xMinYMin meet" x="223.5" y="-179.2"/>
<text text-anchor="start" x="232.8578" y="-169.3" font-family="Helvetica,sans-Serif" font-size="11.00" fill="#000000">ADDITIONAL_REFERENCE_1_ID</text>
<polygon fill="none" stroke="#000000" points="218.5,-140.2 218.5,-162.2 401.5,-162.2 401.5,-140.2 218.5,-140.2"/>
<image xlink:href="../../images/primaryKeys.png" width="11px" height="12px" preserveAspectRatio="xMinYMin meet" x="223.5" y="-157.2"/>
<text text-anchor="start" x="232.8578" y="-147.3" font-family="Helvetica,sans-Serif" font-size="11.00" fill="#000000">ADDITIONAL_REFERENCE_2_ID</text>
<polygon fill="none" stroke="#000000" points="218.5,-121.2 218.5,-140.2 401.5,-140.2 401.5,-121.2 218.5,-121.2"/>
<text text-anchor="start" x="221.5" y="-127.3" font-family="Helvetica,sans-Serif" font-size="11.00" fill="#000000">...</text>
<polygon fill="#ffffff" stroke="transparent" points="218.5,-102.2 218.5,-121.2 287.5,-121.2 287.5,-102.2 218.5,-102.2"/>
<polygon fill="none" stroke="#000000" points="218.5,-102.2 218.5,-121.2 287.5,-121.2 287.5,-102.2 218.5,-102.2"/>
<text text-anchor="start" x="221.5" y="-108.3" font-family="Helvetica,sans-Serif" font-size="11.00" fill="#000000">&lt; 12</text>
<polygon fill="#ffffff" stroke="transparent" points="287.5,-102.2 287.5,-121.2 358.5,-121.2 358.5,-102.2 287.5,-102.2"/>
<polygon fill="none" stroke="#000000" points="287.5,-102.2 287.5,-121.2 358.5,-121.2 358.5,-102.2 287.5,-102.2"/>
<text text-anchor="start" x="310.8807" y="-108.3" font-family="Helvetica,sans-Serif" font-size="11.00" fill="#000000">718 rows</text>
<polygon fill="#ffffff" stroke="transparent" points="358.5,-102.2 358.5,-121.2 401.5,-121.2 401.5,-102.2 358.5,-102.2"/>
<polygon fill="none" stroke="#000000" points="358.5,-102.2 358.5,-121.2 401.5,-121.2 401.5,-102.2 358.5,-102.2"/>
<text text-anchor="start" x="382.9053" y="-108.3" font-family="Helvetica,sans-Serif" font-size="11.00" fill="#000000">6 &gt;</text>
</a>
</g>
</g>
<!-- R_NSI_STATUS -->
<g id="node2" class="node">
<title>R_NSI_STATUS</title>
<g id="a_node2"><a xlink:href="../../tables/R_NSI_STATUS.html" xlink:title="R_NSI_STATUS" target="_top">
<polygon fill="#ffffff" stroke="transparent" points="8,-109.7 8,-236.7 169,-236.7 169,-109.7 8,-109.7"/>
<polygon fill="#f5f5f5" stroke="transparent" points="8.5,-213.2 8.5,-236.2 169.5,-236.2 169.5,-213.2 8.5,-213.2"/>
<polygon fill="none" stroke="#000000" points="8.5,-213.2 8.5,-236.2 169.5,-236.2 169.5,-213.2 8.5,-213.2"/>
<text text-anchor="start" x="13.5" y="-222.3" font-family="Helvetica,sans-Serif" font-weight="bold" font-size="11.00" fill="#000000">R_NSI_STATUS</text>
<text text-anchor="start" x="134.5437" y="-221.3" font-family="Helvetica,sans-Serif" font-size="11.00" fill="#000000">[table]</text>
<polygon fill="none" stroke="#000000" points="8.5,-191.2 8.5,-213.2 169.5,-213.2 169.5,-191.2 8.5,-191.2"/>
<image xlink:href="../../images/primaryKeys.png" width="11px" height="12px" preserveAspectRatio="xMinYMin meet" x="13.5" y="-208.2"/>
<text text-anchor="start" x="28.5" y="-198.3" font-family="Helvetica,sans-Serif" font-size="11.00" fill="#000000">NSI_STATUS_ID</text>
<polygon fill="none" stroke="#000000" points="8.5,-169.2 8.5,-191.2 169.5,-191.2 169.5,-169.2 8.5,-169.2"/>
<image xlink:href="../../images/primaryKeys.png" width="11px" height="12px" preserveAspectRatio="xMinYMin meet" x="13.5" y="-186.2"/>
<text text-anchor="start" x="28.5" y="-176.3" font-family="Helvetica,sans-Serif" font-size="11.00" fill="#000000">CONTACT_TYPE_ID</text>
<polygon fill="none" stroke="#000000" points="8.5,-147.2 8.5,-169.2 169.5,-169.2 169.5,-147.2 8.5,-147.2"/>
<image xlink:href="../../images/primaryKeys.png" width="11px" height="12px" preserveAspectRatio="xMinYMin meet" x="13.5" y="-164.2"/>
<text text-anchor="start" x="28.5" y="-154.3" font-family="Helvetica,sans-Serif" font-size="11.00" fill="#000000">TRAINING_SESSION_ID</text>
<polygon fill="none" stroke="#000000" points="8.5,-128.2 8.5,-147.2 169.5,-147.2 169.5,-128.2 8.5,-128.2"/>
<text text-anchor="start" x="11.5" y="-134.3" font-family="Helvetica,sans-Serif" font-size="11.00" fill="#000000">...</text>
<polygon fill="#ffffff" stroke="transparent" points="8.5,-109.2 8.5,-128.2 66.5,-128.2 66.5,-109.2 8.5,-109.2"/>
<polygon fill="none" stroke="#000000" points="8.5,-109.2 8.5,-128.2 66.5,-128.2 66.5,-109.2 8.5,-109.2"/>
<text text-anchor="start" x="11.5" y="-115.3" font-family="Helvetica,sans-Serif" font-size="11.00" fill="#000000">&lt; 1</text>
<polygon fill="#ffffff" stroke="transparent" points="66.5,-109.2 66.5,-128.2 129.5,-128.2 129.5,-109.2 66.5,-109.2"/>
<polygon fill="none" stroke="#000000" points="66.5,-109.2 66.5,-128.2 129.5,-128.2 129.5,-109.2 66.5,-109.2"/>
<text text-anchor="start" x="87.9956" y="-115.3" font-family="Helvetica,sans-Serif" font-size="11.00" fill="#000000">94 rows</text>
<polygon fill="#ffffff" stroke="transparent" points="129.5,-109.2 129.5,-128.2 169.5,-128.2 169.5,-109.2 129.5,-109.2"/>
<polygon fill="none" stroke="#000000" points="129.5,-109.2 129.5,-128.2 169.5,-128.2 169.5,-109.2 129.5,-109.2"/>
<text text-anchor="start" x="150.9053" y="-115.3" font-family="Helvetica,sans-Serif" font-size="11.00" fill="#000000">3 &gt;</text>
</a>
</g>
</g>
<!-- NSI&#45;&gt;R_NSI_STATUS -->
<g id="edge1" class="edge">
<title>NSI:w&#45;&gt;R_NSI_STATUS:e</title>
<path fill="none" stroke="#000000" d="M204.0697,-323.5938C171.7758,-303.0987 223.1111,-202.2 169.5,-202.2"/>
<polygon fill="#000000" stroke="#000000" points="210.7387,-325.2604 217.6272,-330.6926 214.6193,-326.2302 218.5,-327.2 218.5,-327.2 218.5,-327.2 214.6193,-326.2302 219.3728,-323.7074 210.7387,-325.2604 210.7387,-325.2604"/>
<ellipse fill="none" stroke="#000000" cx="207.6342" cy="-324.4845" rx="3.2" ry="3.2"/>
</g>
<!-- NSI_STATUS_HISTORY -->
<g id="node3" class="node">
<title>NSI_STATUS_HISTORY</title>
<g id="a_node3"><a xlink:href="../../tables/NSI_STATUS_HISTORY.html" xlink:title="NSI_STATUS_HISTORY" target="_top">
<polygon fill="#ffffff" stroke="transparent" points="450,-38.2 450,-326.2 676,-326.2 676,-38.2 450,-38.2"/>
<polygon fill="#f5f5f5" stroke="transparent" points="452,-301.2 452,-324.2 674,-324.2 674,-301.2 452,-301.2"/>
<polygon fill="none" stroke="#000000" points="452,-301.2 452,-324.2 674,-324.2 674,-301.2 452,-301.2"/>
<text text-anchor="start" x="457" y="-310.3" font-family="Helvetica,sans-Serif" font-weight="bold" font-size="11.00" fill="#000000">NSI_STATUS_HISTORY</text>
<text text-anchor="start" x="639.0437" y="-309.3" font-family="Helvetica,sans-Serif" font-size="11.00" fill="#000000">[table]</text>
<polygon fill="none" stroke="#000000" points="452,-279.2 452,-301.2 613,-301.2 613,-279.2 452,-279.2"/>
<image xlink:href="../../images/primaryKeys.png" width="11px" height="12px" preserveAspectRatio="xMinYMin meet" x="457" y="-296.2"/>
<text text-anchor="start" x="470.0241" y="-286.3" font-family="Helvetica,sans-Serif" font-size="11.00" fill="#000000">NSI_STATUS_HISTORY_ID</text>
<polygon fill="none" stroke="#000000" points="613,-279.2 613,-301.2 674,-301.2 674,-279.2 613,-279.2"/>
<text text-anchor="start" x="615.6865" y="-286.9" font-family="Helvetica,sans-Serif" font-size="11.00" fill="#000000">number[38]</text>
<polygon fill="none" stroke="#000000" points="452,-257.2 452,-279.2 613,-279.2 613,-257.2 452,-257.2"/>
<image xlink:href="../../images/primaryKeys.png" width="11px" height="12px" preserveAspectRatio="xMinYMin meet" x="457" y="-274.2"/>
<text text-anchor="start" x="472" y="-264.3" font-family="Helvetica,sans-Serif" font-size="11.00" fill="#000000">NSI_ID</text>
<polygon fill="none" stroke="#000000" points="613,-257.2 613,-279.2 674,-279.2 674,-257.2 613,-257.2"/>
<text text-anchor="start" x="615.6865" y="-264.9" font-family="Helvetica,sans-Serif" font-size="11.00" fill="#000000">number[38]</text>
<polygon fill="none" stroke="#000000" points="452,-235.2 452,-257.2 613,-257.2 613,-235.2 452,-235.2"/>
<image xlink:href="../../images/primaryKeys.png" width="11px" height="12px" preserveAspectRatio="xMinYMin meet" x="457" y="-252.2"/>
<text text-anchor="start" x="472" y="-242.3" font-family="Helvetica,sans-Serif" font-size="11.00" fill="#000000">NSI_STATUS_ID</text>
<polygon fill="none" stroke="#000000" points="613,-235.2 613,-257.2 674,-257.2 674,-235.2 613,-235.2"/>
<text text-anchor="start" x="615.6865" y="-242.9" font-family="Helvetica,sans-Serif" font-size="11.00" fill="#000000">number[38]</text>
<polygon fill="none" stroke="#000000" points="452,-213.2 452,-235.2 613,-235.2 613,-213.2 452,-213.2"/>
<text text-anchor="start" x="472" y="-220.3" font-family="Helvetica,sans-Serif" font-size="11.00" fill="#000000">NSI_STATUS_DATE</text>
<polygon fill="none" stroke="#000000" points="613,-213.2 613,-235.2 674,-235.2 674,-213.2 613,-213.2"/>
<text text-anchor="start" x="616" y="-220.9" font-family="Helvetica,sans-Serif" font-size="11.00" fill="#000000">date[7]</text>
<polygon fill="none" stroke="#000000" points="452,-191.2 452,-213.2 613,-213.2 613,-191.2 452,-191.2"/>
<text text-anchor="start" x="472" y="-198.3" font-family="Helvetica,sans-Serif" font-size="11.00" fill="#000000">NOTES</text>
<polygon fill="none" stroke="#000000" points="613,-191.2 613,-213.2 674,-213.2 674,-191.2 613,-191.2"/>
<text text-anchor="start" x="616" y="-198.9" font-family="Helvetica,sans-Serif" font-size="11.00" fill="#000000">clob[4000]</text>
<polygon fill="none" stroke="#000000" points="452,-169.2 452,-191.2 613,-191.2 613,-169.2 452,-169.2"/>
<text text-anchor="start" x="472" y="-176.3" font-family="Helvetica,sans-Serif" font-size="11.00" fill="#000000">SOFT_DELETED</text>
<polygon fill="none" stroke="#000000" points="613,-169.2 613,-191.2 674,-191.2 674,-169.2 613,-169.2"/>
<text text-anchor="start" x="615.6865" y="-176.9" font-family="Helvetica,sans-Serif" font-size="11.00" fill="#000000">number[38]</text>
<polygon fill="none" stroke="#000000" points="452,-147.2 452,-169.2 613,-169.2 613,-147.2 452,-147.2"/>
<text text-anchor="start" x="472" y="-154.3" font-family="Helvetica,sans-Serif" font-size="11.00" fill="#000000">ROW_VERSION</text>
<polygon fill="none" stroke="#000000" points="613,-147.2 613,-169.2 674,-169.2 674,-147.2 613,-147.2"/>
<text text-anchor="start" x="615.6865" y="-154.9" font-family="Helvetica,sans-Serif" font-size="11.00" fill="#000000">number[38]</text>
<polygon fill="none" stroke="#000000" points="452,-125.2 452,-147.2 613,-147.2 613,-125.2 452,-125.2"/>
<text text-anchor="start" x="472" y="-132.3" font-family="Helvetica,sans-Serif" font-size="11.00" fill="#000000">CREATED_BY_USER_ID</text>
<polygon fill="none" stroke="#000000" points="613,-125.2 613,-147.2 674,-147.2 674,-125.2 613,-125.2"/>
<text text-anchor="start" x="615.6865" y="-132.9" font-family="Helvetica,sans-Serif" font-size="11.00" fill="#000000">number[38]</text>
<polygon fill="none" stroke="#000000" points="452,-103.2 452,-125.2 613,-125.2 613,-103.2 452,-103.2"/>
<text text-anchor="start" x="472" y="-110.3" font-family="Helvetica,sans-Serif" font-size="11.00" fill="#000000">CREATED_DATETIME</text>
<polygon fill="none" stroke="#000000" points="613,-103.2 613,-125.2 674,-125.2 674,-103.2 613,-103.2"/>
<text text-anchor="start" x="616" y="-110.9" font-family="Helvetica,sans-Serif" font-size="11.00" fill="#000000">date[7]</text>
<polygon fill="none" stroke="#000000" points="452,-81.2 452,-103.2 613,-103.2 613,-81.2 452,-81.2"/>
<text text-anchor="start" x="470.0235" y="-88.3" font-family="Helvetica,sans-Serif" font-size="11.00" fill="#000000">LAST_UPDATED_USER_ID</text>
<polygon fill="none" stroke="#000000" points="613,-81.2 613,-103.2 674,-103.2 674,-81.2 613,-81.2"/>
<text text-anchor="start" x="615.6865" y="-88.9" font-family="Helvetica,sans-Serif" font-size="11.00" fill="#000000">number[38]</text>
<polygon fill="none" stroke="#000000" points="452,-59.2 452,-81.2 613,-81.2 613,-59.2 452,-59.2"/>
<text text-anchor="start" x="466.0531" y="-66.3" font-family="Helvetica,sans-Serif" font-size="11.00" fill="#000000">LAST_UPDATED_DATETIME</text>
<polygon fill="none" stroke="#000000" points="613,-59.2 613,-81.2 674,-81.2 674,-59.2 613,-59.2"/>
<text text-anchor="start" x="616" y="-66.9" font-family="Helvetica,sans-Serif" font-size="11.00" fill="#000000">date[7]</text>
<polygon fill="#ffffff" stroke="transparent" points="452,-40.2 452,-59.2 510,-59.2 510,-40.2 452,-40.2"/>
<polygon fill="none" stroke="#000000" points="452,-40.2 452,-59.2 510,-59.2 510,-40.2 452,-40.2"/>
<text text-anchor="start" x="455" y="-46.3" font-family="Helvetica,sans-Serif" font-size="11.00" fill="#000000">&lt; 2</text>
<polygon fill="#ffffff" stroke="transparent" points="510,-40.2 510,-59.2 613,-59.2 613,-40.2 510,-40.2"/>
<polygon fill="none" stroke="#000000" points="510,-40.2 510,-59.2 613,-59.2 613,-40.2 510,-40.2"/>
<text text-anchor="start" x="550.094" y="-46.3" font-family="Helvetica,sans-Serif" font-size="11.00" fill="#000000">51,019 rows</text>
<polygon fill="#ffffff" stroke="transparent" points="613,-40.2 613,-59.2 674,-59.2 674,-40.2 613,-40.2"/>
<polygon fill="none" stroke="#000000" points="613,-40.2 613,-59.2 674,-59.2 674,-40.2 613,-40.2"/>
<text text-anchor="start" x="655.4053" y="-46.3" font-family="Helvetica,sans-Serif" font-size="11.00" fill="#000000">0 &gt;</text>
<polygon fill="none" stroke="#000000" stroke-width="2" points="451,-39.2 451,-325.2 675,-325.2 675,-39.2 451,-39.2"/>
</a>
</g>
</g>
<!-- NSI_STATUS_HISTORY&#45;&gt;NSI -->
<g id="edge2" class="edge">
<title>NSI_STATUS_HISTORY:w&#45;&gt;NSI:e</title>
<path fill="none" stroke="#000000" d="M437.7586,-270.7202C388.0043,-291.7432 474.2277,-437.2 401.5,-437.2"/>
<polygon fill="#000000" stroke="#000000" points="444.1224,-269.5941 452.6273,-271.7449 448.0612,-268.897 452,-268.2 452,-268.2 452,-268.2 448.0612,-268.897 451.3727,-264.6551 444.1224,-269.5941 444.1224,-269.5941"/>
<ellipse fill="none" stroke="#000000" cx="440.9713" cy="-270.1517" rx="3.2" ry="3.2"/>
</g>
<!-- NSI_STATUS_HISTORY&#45;&gt;R_NSI_STATUS -->
<g id="edge3" class="edge">
<title>NSI_STATUS_HISTORY:w&#45;&gt;R_NSI_STATUS:e</title>
<path fill="none" stroke="#000000" d="M437.4918,-244.0573C393.8774,-228.4412 460.9604,-131.6395 409,-92.2 338.551,-38.7271 282.5435,-41.605 210,-92.2 167.269,-122.0025 221.5972,-202.2 169.5,-202.2"/>
<polygon fill="#000000" stroke="#000000" points="444.0858,-245.0311 451.474,-249.7614 448.0429,-245.6156 452,-246.2 452,-246.2 452,-246.2 448.0429,-245.6156 452.526,-242.6386 444.0858,-245.0311 444.0858,-245.0311"/>
<ellipse fill="none" stroke="#000000" cx="440.9202" cy="-244.5636" rx="3.2" ry="3.2"/>
</g>
</g>
</svg>
