<?xml version="1.0" encoding="UTF-8" standalone="no"?>
<!DOCTYPE svg PUBLIC "-//W3C//DTD SVG 1.1//EN"
 "http://www.w3.org/Graphics/SVG/1.1/DTD/svg11.dtd">
<!-- Generated by graphviz version 2.40.1 (20161225.0304)
 -->
<!-- Title: oneDegreeRelationshipsDiagram Pages: 1 -->
<svg width="1016pt" height="1123pt"
 viewBox="0.00 0.00 1016.00 1123.20" xmlns="http://www.w3.org/2000/svg" xmlns:xlink="http://www.w3.org/1999/xlink">
<g id="graph0" class="graph" transform="scale(1 1) rotate(0) translate(4 1119.2)">
<title>oneDegreeRelationshipsDiagram</title>
<polygon fill="#ffffff" stroke="transparent" points="-4,4 -4,-1119.2 1012,-1119.2 1012,4 -4,4"/>
<text text-anchor="middle" x="72.4936" y="-7.3" font-family="Helvetica,sans-Serif" font-size="11.00" fill="#000000">Generated by SchemaSpy</text>
<!-- OASYS_SENTENCE_PLAN -->
<g id="node1" class="node">
<title>OASYS_SENTENCE_PLAN</title>
<g id="a_node1"><a xlink:href="../../tables/OASYS_SENTENCE_PLAN.html" xlink:title="OASYS_SENTENCE_PLAN" target="_top">
<polygon fill="#ffffff" stroke="transparent" points="466,-940.2 466,-1111.2 647,-1111.2 647,-940.2 466,-940.2"/>
<polygon fill="#f5f5f5" stroke="transparent" points="466.5,-1087.7 466.5,-1110.7 647.5,-1110.7 647.5,-1087.7 466.5,-1087.7"/>
<polygon fill="none" stroke="#000000" points="466.5,-1087.7 466.5,-1110.7 647.5,-1110.7 647.5,-1087.7 466.5,-1087.7"/>
<text text-anchor="start" x="471.128" y="-1096.8" font-family="Helvetica,sans-Serif" font-weight="bold" font-size="11.00" fill="#000000">OASYS_SENTENCE_PLAN</text>
<text text-anchor="start" x="613.0219" y="-1095.8" font-family="Helvetica,sans-Serif" font-size="11.00" fill="#000000">[table]</text>
<polygon fill="none" stroke="#000000" points="466.5,-1065.7 466.5,-1087.7 647.5,-1087.7 647.5,-1065.7 466.5,-1065.7"/>
<image xlink:href="../../images/primaryKeys.png" width="11px" height="12px" preserveAspectRatio="xMinYMin meet" x="471.5" y="-1082.7"/>
<text text-anchor="start" x="487.0716" y="-1072.8" font-family="Helvetica,sans-Serif" font-size="11.00" fill="#000000">OASYS_SENTENCE_PLAN_ID</text>
<polygon fill="none" stroke="#000000" points="466.5,-1043.7 466.5,-1065.7 647.5,-1065.7 647.5,-1043.7 466.5,-1043.7"/>
<image xlink:href="../../images/primaryKeys.png" width="11px" height="12px" preserveAspectRatio="xMinYMin meet" x="471.5" y="-1060.7"/>
<text text-anchor="start" x="492.5" y="-1050.8" font-family="Helvetica,sans-Serif" font-size="11.00" fill="#000000">OASYS_ASSESSMENT_ID</text>
<polygon fill="none" stroke="#000000" points="466.5,-1021.7 466.5,-1043.7 647.5,-1043.7 647.5,-1021.7 466.5,-1021.7"/>
<image xlink:href="../../images/primaryKeys.png" width="11px" height="12px" preserveAspectRatio="xMinYMin meet" x="471.5" y="-1038.7"/>
<text text-anchor="start" x="492.5" y="-1028.8" font-family="Helvetica,sans-Serif" font-size="11.00" fill="#000000">PARTITION_AREA_ID</text>
<polygon fill="none" stroke="#000000" points="466.5,-999.7 466.5,-1021.7 647.5,-1021.7 647.5,-999.7 466.5,-999.7"/>
<image xlink:href="../../images/primaryKeys.png" width="11px" height="12px" preserveAspectRatio="xMinYMin meet" x="471.5" y="-1016.7"/>
<text text-anchor="start" x="492.5" y="-1006.8" font-family="Helvetica,sans-Serif" font-size="11.00" fill="#000000">TRAINING_SESSION_ID</text>
<polygon fill="none" stroke="#000000" points="466.5,-977.7 466.5,-999.7 647.5,-999.7 647.5,-977.7 466.5,-977.7"/>
<image xlink:href="../../images/primaryKeys.png" width="11px" height="12px" preserveAspectRatio="xMinYMin meet" x="471.5" y="-994.7"/>
<text text-anchor="start" x="492.5" y="-984.8" font-family="Helvetica,sans-Serif" font-size="11.00" fill="#000000">OFFENDER_ID</text>
<polygon fill="none" stroke="#000000" points="466.5,-958.7 466.5,-977.7 647.5,-977.7 647.5,-958.7 466.5,-958.7"/>
<text text-anchor="start" x="469.5" y="-964.8" font-family="Helvetica,sans-Serif" font-size="11.00" fill="#000000">...</text>
<polygon fill="#ffffff" stroke="transparent" points="466.5,-939.7 466.5,-958.7 537.5,-958.7 537.5,-939.7 466.5,-939.7"/>
<polygon fill="none" stroke="#000000" points="466.5,-939.7 466.5,-958.7 537.5,-958.7 537.5,-939.7 466.5,-939.7"/>
<text text-anchor="start" x="469.5" y="-945.8" font-family="Helvetica,sans-Serif" font-size="11.00" fill="#000000">&lt; 3</text>
<polygon fill="#ffffff" stroke="transparent" points="537.5,-939.7 537.5,-958.7 600.5,-958.7 600.5,-939.7 537.5,-939.7"/>
<polygon fill="none" stroke="#000000" points="537.5,-939.7 537.5,-958.7 600.5,-958.7 600.5,-939.7 537.5,-939.7"/>
<text text-anchor="start" x="565.1105" y="-945.8" font-family="Helvetica,sans-Serif" font-size="11.00" fill="#000000">0 rows</text>
<polygon fill="#ffffff" stroke="transparent" points="600.5,-939.7 600.5,-958.7 647.5,-958.7 647.5,-939.7 600.5,-939.7"/>
<polygon fill="none" stroke="#000000" points="600.5,-939.7 600.5,-958.7 647.5,-958.7 647.5,-939.7 600.5,-939.7"/>
<text text-anchor="start" x="628.9053" y="-945.8" font-family="Helvetica,sans-Serif" font-size="11.00" fill="#000000">3 &gt;</text>
</a>
</g>
</g>
<!-- OFFENDER -->
<g id="node2" class="node">
<title>OFFENDER</title>
<g id="a_node2"><a xlink:href="../../tables/OFFENDER.html" xlink:title="OFFENDER" target="_top">
<polygon fill="#ffffff" stroke="transparent" points="199,-38.2 199,-891.2 417,-891.2 417,-38.2 199,-38.2"/>
<polygon fill="#f5f5f5" stroke="transparent" points="199,-867.7 199,-890.7 417,-890.7 417,-867.7 199,-867.7"/>
<polygon fill="none" stroke="#000000" points="199,-867.7 199,-890.7 417,-890.7 417,-867.7 199,-867.7"/>
<text text-anchor="start" x="204" y="-876.8" font-family="Helvetica,sans-Serif" font-weight="bold" font-size="11.00" fill="#000000">OFFENDER</text>
<text text-anchor="start" x="382.0437" y="-875.8" font-family="Helvetica,sans-Serif" font-size="11.00" fill="#000000">[table]</text>
<polygon fill="none" stroke="#000000" points="199,-845.7 199,-867.7 417,-867.7 417,-845.7 199,-845.7"/>
<image xlink:href="../../images/primaryKeys.png" width="11px" height="12px" preserveAspectRatio="xMinYMin meet" x="204" y="-862.7"/>
<text text-anchor="start" x="219" y="-852.8" font-family="Helvetica,sans-Serif" font-size="11.00" fill="#000000">OFFENDER_ID</text>
<polygon fill="none" stroke="#000000" points="199,-823.7 199,-845.7 417,-845.7 417,-823.7 199,-823.7"/>
<image xlink:href="../../images/primaryKeys.png" width="11px" height="12px" preserveAspectRatio="xMinYMin meet" x="204" y="-840.7"/>
<text text-anchor="start" x="219" y="-830.8" font-family="Helvetica,sans-Serif" font-size="11.00" fill="#000000">FIRST_NAME</text>
<polygon fill="none" stroke="#000000" points="199,-801.7 199,-823.7 417,-823.7 417,-801.7 199,-801.7"/>
<image xlink:href="../../images/primaryKeys.png" width="11px" height="12px" preserveAspectRatio="xMinYMin meet" x="204" y="-818.7"/>
<text text-anchor="start" x="219" y="-808.8" font-family="Helvetica,sans-Serif" font-size="11.00" fill="#000000">CRN</text>
<polygon fill="none" stroke="#000000" points="199,-779.7 199,-801.7 417,-801.7 417,-779.7 199,-779.7"/>
<image xlink:href="../../images/primaryKeys.png" width="11px" height="12px" preserveAspectRatio="xMinYMin meet" x="204" y="-796.7"/>
<text text-anchor="start" x="219" y="-786.8" font-family="Helvetica,sans-Serif" font-size="11.00" fill="#000000">SECOND_NAME</text>
<polygon fill="none" stroke="#000000" points="199,-757.7 199,-779.7 417,-779.7 417,-757.7 199,-757.7"/>
<image xlink:href="../../images/primaryKeys.png" width="11px" height="12px" preserveAspectRatio="xMinYMin meet" x="204" y="-774.7"/>
<text text-anchor="start" x="219" y="-764.8" font-family="Helvetica,sans-Serif" font-size="11.00" fill="#000000">PNC_NUMBER</text>
<polygon fill="none" stroke="#000000" points="199,-735.7 199,-757.7 417,-757.7 417,-735.7 199,-735.7"/>
<image xlink:href="../../images/primaryKeys.png" width="11px" height="12px" preserveAspectRatio="xMinYMin meet" x="204" y="-752.7"/>
<text text-anchor="start" x="219" y="-742.8" font-family="Helvetica,sans-Serif" font-size="11.00" fill="#000000">THIRD_NAME</text>
<polygon fill="none" stroke="#000000" points="199,-713.7 199,-735.7 417,-735.7 417,-713.7 199,-713.7"/>
<image xlink:href="../../images/primaryKeys.png" width="11px" height="12px" preserveAspectRatio="xMinYMin meet" x="204" y="-730.7"/>
<text text-anchor="start" x="219" y="-720.8" font-family="Helvetica,sans-Serif" font-size="11.00" fill="#000000">CRO_NUMBER</text>
<polygon fill="none" stroke="#000000" points="199,-691.7 199,-713.7 417,-713.7 417,-691.7 199,-691.7"/>
<image xlink:href="../../images/primaryKeys.png" width="11px" height="12px" preserveAspectRatio="xMinYMin meet" x="204" y="-708.7"/>
<text text-anchor="start" x="219" y="-698.8" font-family="Helvetica,sans-Serif" font-size="11.00" fill="#000000">SURNAME</text>
<polygon fill="none" stroke="#000000" points="199,-669.7 199,-691.7 417,-691.7 417,-669.7 199,-669.7"/>
<image xlink:href="../../images/primaryKeys.png" width="11px" height="12px" preserveAspectRatio="xMinYMin meet" x="204" y="-686.7"/>
<text text-anchor="start" x="219" y="-676.8" font-family="Helvetica,sans-Serif" font-size="11.00" fill="#000000">NOMS_NUMBER</text>
<polygon fill="none" stroke="#000000" points="199,-647.7 199,-669.7 417,-669.7 417,-647.7 199,-647.7"/>
<image xlink:href="../../images/primaryKeys.png" width="11px" height="12px" preserveAspectRatio="xMinYMin meet" x="204" y="-664.7"/>
<text text-anchor="start" x="219" y="-654.8" font-family="Helvetica,sans-Serif" font-size="11.00" fill="#000000">DATE_OF_BIRTH_DATE</text>
<polygon fill="none" stroke="#000000" points="199,-625.7 199,-647.7 417,-647.7 417,-625.7 199,-625.7"/>
<image xlink:href="../../images/primaryKeys.png" width="11px" height="12px" preserveAspectRatio="xMinYMin meet" x="204" y="-642.7"/>
<text text-anchor="start" x="219" y="-632.8" font-family="Helvetica,sans-Serif" font-size="11.00" fill="#000000">NI_NUMBER</text>
<polygon fill="none" stroke="#000000" points="199,-603.7 199,-625.7 417,-625.7 417,-603.7 199,-603.7"/>
<image xlink:href="../../images/primaryKeys.png" width="11px" height="12px" preserveAspectRatio="xMinYMin meet" x="204" y="-620.7"/>
<text text-anchor="start" x="219" y="-610.8" font-family="Helvetica,sans-Serif" font-size="11.00" fill="#000000">IMMIGRATION_NUMBER</text>
<polygon fill="none" stroke="#000000" points="199,-581.7 199,-603.7 417,-603.7 417,-581.7 199,-581.7"/>
<image xlink:href="../../images/primaryKeys.png" width="11px" height="12px" preserveAspectRatio="xMinYMin meet" x="204" y="-598.7"/>
<text text-anchor="start" x="219" y="-588.8" font-family="Helvetica,sans-Serif" font-size="11.00" fill="#000000">PARTITION_AREA_ID</text>
<polygon fill="none" stroke="#000000" points="199,-559.7 199,-581.7 417,-581.7 417,-559.7 199,-559.7"/>
<image xlink:href="../../images/primaryKeys.png" width="11px" height="12px" preserveAspectRatio="xMinYMin meet" x="204" y="-576.7"/>
<text text-anchor="start" x="219" y="-566.8" font-family="Helvetica,sans-Serif" font-size="11.00" fill="#000000">SOFT_DELETED</text>
<polygon fill="none" stroke="#000000" points="199,-537.7 199,-559.7 417,-559.7 417,-537.7 199,-537.7"/>
<image xlink:href="../../images/primaryKeys.png" width="11px" height="12px" preserveAspectRatio="xMinYMin meet" x="204" y="-554.7"/>
<text text-anchor="start" x="219" y="-544.8" font-family="Helvetica,sans-Serif" font-size="11.00" fill="#000000">TITLE_ID</text>
<polygon fill="none" stroke="#000000" points="199,-515.7 199,-537.7 417,-537.7 417,-515.7 199,-515.7"/>
<image xlink:href="../../images/primaryKeys.png" width="11px" height="12px" preserveAspectRatio="xMinYMin meet" x="204" y="-532.7"/>
<text text-anchor="start" x="219" y="-522.8" font-family="Helvetica,sans-Serif" font-size="11.00" fill="#000000">GENDER_ID</text>
<polygon fill="none" stroke="#000000" points="199,-493.7 199,-515.7 417,-515.7 417,-493.7 199,-493.7"/>
<image xlink:href="../../images/primaryKeys.png" width="11px" height="12px" preserveAspectRatio="xMinYMin meet" x="204" y="-510.7"/>
<text text-anchor="start" x="219" y="-500.8" font-family="Helvetica,sans-Serif" font-size="11.00" fill="#000000">ETHNICITY_ID</text>
<polygon fill="none" stroke="#000000" points="199,-471.7 199,-493.7 417,-493.7 417,-471.7 199,-471.7"/>
<image xlink:href="../../images/primaryKeys.png" width="11px" height="12px" preserveAspectRatio="xMinYMin meet" x="204" y="-488.7"/>
<text text-anchor="start" x="219" y="-478.8" font-family="Helvetica,sans-Serif" font-size="11.00" fill="#000000">NATIONALITY_ID</text>
<polygon fill="none" stroke="#000000" points="199,-449.7 199,-471.7 417,-471.7 417,-449.7 199,-449.7"/>
<image xlink:href="../../images/primaryKeys.png" width="11px" height="12px" preserveAspectRatio="xMinYMin meet" x="204" y="-466.7"/>
<text text-anchor="start" x="219" y="-456.8" font-family="Helvetica,sans-Serif" font-size="11.00" fill="#000000">IMMIGRATION_STATUS_ID</text>
<polygon fill="none" stroke="#000000" points="199,-427.7 199,-449.7 417,-449.7 417,-427.7 199,-427.7"/>
<image xlink:href="../../images/primaryKeys.png" width="11px" height="12px" preserveAspectRatio="xMinYMin meet" x="204" y="-444.7"/>
<text text-anchor="start" x="219" y="-434.8" font-family="Helvetica,sans-Serif" font-size="11.00" fill="#000000">LANGUAGE_ID</text>
<polygon fill="none" stroke="#000000" points="199,-405.7 199,-427.7 417,-427.7 417,-405.7 199,-405.7"/>
<image xlink:href="../../images/primaryKeys.png" width="11px" height="12px" preserveAspectRatio="xMinYMin meet" x="204" y="-422.7"/>
<text text-anchor="start" x="219" y="-412.8" font-family="Helvetica,sans-Serif" font-size="11.00" fill="#000000">RELIGION_ID</text>
<polygon fill="none" stroke="#000000" points="199,-383.7 199,-405.7 417,-405.7 417,-383.7 199,-383.7"/>
<image xlink:href="../../images/primaryKeys.png" width="11px" height="12px" preserveAspectRatio="xMinYMin meet" x="204" y="-400.7"/>
<text text-anchor="start" x="219" y="-390.8" font-family="Helvetica,sans-Serif" font-size="11.00" fill="#000000">SURNAME_SOUNDEX</text>
<polygon fill="none" stroke="#000000" points="199,-361.7 199,-383.7 417,-383.7 417,-361.7 199,-361.7"/>
<image xlink:href="../../images/primaryKeys.png" width="11px" height="12px" preserveAspectRatio="xMinYMin meet" x="204" y="-378.7"/>
<text text-anchor="start" x="219" y="-368.8" font-family="Helvetica,sans-Serif" font-size="11.00" fill="#000000">SECOND_NATIONALITY_ID</text>
<polygon fill="none" stroke="#000000" points="199,-339.7 199,-361.7 417,-361.7 417,-339.7 199,-339.7"/>
<image xlink:href="../../images/primaryKeys.png" width="11px" height="12px" preserveAspectRatio="xMinYMin meet" x="204" y="-356.7"/>
<text text-anchor="start" x="219" y="-346.8" font-family="Helvetica,sans-Serif" font-size="11.00" fill="#000000">SEXUAL_ORIENTATION_ID</text>
<polygon fill="none" stroke="#000000" points="199,-317.7 199,-339.7 417,-339.7 417,-317.7 199,-317.7"/>
<image xlink:href="../../images/primaryKeys.png" width="11px" height="12px" preserveAspectRatio="xMinYMin meet" x="204" y="-334.7"/>
<text text-anchor="start" x="219" y="-324.8" font-family="Helvetica,sans-Serif" font-size="11.00" fill="#000000">CURRENT_EXCLUSION</text>
<polygon fill="none" stroke="#000000" points="199,-295.7 199,-317.7 417,-317.7 417,-295.7 199,-295.7"/>
<image xlink:href="../../images/primaryKeys.png" width="11px" height="12px" preserveAspectRatio="xMinYMin meet" x="204" y="-312.7"/>
<text text-anchor="start" x="219" y="-302.8" font-family="Helvetica,sans-Serif" font-size="11.00" fill="#000000">TRAINING_SESSION_ID</text>
<polygon fill="none" stroke="#000000" points="199,-273.7 199,-295.7 417,-295.7 417,-273.7 199,-273.7"/>
<image xlink:href="../../images/primaryKeys.png" width="11px" height="12px" preserveAspectRatio="xMinYMin meet" x="204" y="-290.7"/>
<text text-anchor="start" x="219" y="-280.8" font-family="Helvetica,sans-Serif" font-size="11.00" fill="#000000">CURRENT_DISPOSAL</text>
<polygon fill="none" stroke="#000000" points="199,-251.7 199,-273.7 417,-273.7 417,-251.7 199,-251.7"/>
<image xlink:href="../../images/primaryKeys.png" width="11px" height="12px" preserveAspectRatio="xMinYMin meet" x="204" y="-268.7"/>
<text text-anchor="start" x="218.6434" y="-258.8" font-family="Helvetica,sans-Serif" font-size="11.00" fill="#000000">CURRENT_HIGHEST_RISK_COLOUR</text>
<polygon fill="none" stroke="#000000" points="199,-229.7 199,-251.7 417,-251.7 417,-229.7 199,-229.7"/>
<image xlink:href="../../images/primaryKeys.png" width="11px" height="12px" preserveAspectRatio="xMinYMin meet" x="204" y="-246.7"/>
<text text-anchor="start" x="219" y="-236.8" font-family="Helvetica,sans-Serif" font-size="11.00" fill="#000000">CURRENT_RESTRICTION</text>
<polygon fill="none" stroke="#000000" points="199,-207.7 199,-229.7 417,-229.7 417,-207.7 199,-207.7"/>
<image xlink:href="../../images/primaryKeys.png" width="11px" height="12px" preserveAspectRatio="xMinYMin meet" x="204" y="-224.7"/>
<text text-anchor="start" x="219" y="-214.8" font-family="Helvetica,sans-Serif" font-size="11.00" fill="#000000">INSTITUTION_ID</text>
<polygon fill="none" stroke="#000000" points="199,-185.7 199,-207.7 417,-207.7 417,-185.7 199,-185.7"/>
<image xlink:href="../../images/primaryKeys.png" width="11px" height="12px" preserveAspectRatio="xMinYMin meet" x="204" y="-202.7"/>
<text text-anchor="start" x="219" y="-192.8" font-family="Helvetica,sans-Serif" font-size="11.00" fill="#000000">ESTABLISHMENT</text>
<polygon fill="none" stroke="#000000" points="199,-163.7 199,-185.7 417,-185.7 417,-163.7 199,-163.7"/>
<image xlink:href="../../images/primaryKeys.png" width="11px" height="12px" preserveAspectRatio="xMinYMin meet" x="204" y="-180.7"/>
<text text-anchor="start" x="219" y="-170.8" font-family="Helvetica,sans-Serif" font-size="11.00" fill="#000000">CURRENT_TIER</text>
<polygon fill="none" stroke="#000000" points="199,-141.7 199,-163.7 417,-163.7 417,-141.7 199,-141.7"/>
<image xlink:href="../../images/primaryKeys.png" width="11px" height="12px" preserveAspectRatio="xMinYMin meet" x="204" y="-158.7"/>
<text text-anchor="start" x="219" y="-148.8" font-family="Helvetica,sans-Serif" font-size="11.00" fill="#000000">OM_ALLOCATION_DECISION_ID</text>
<polygon fill="none" stroke="#000000" points="199,-119.7 199,-141.7 417,-141.7 417,-119.7 199,-119.7"/>
<image xlink:href="../../images/primaryKeys.png" width="11px" height="12px" preserveAspectRatio="xMinYMin meet" x="204" y="-136.7"/>
<text text-anchor="start" x="219" y="-126.8" font-family="Helvetica,sans-Serif" font-size="11.00" fill="#000000">TRANSGENDER_PROCESS_ID</text>
<polygon fill="none" stroke="#000000" points="199,-97.7 199,-119.7 417,-119.7 417,-97.7 199,-97.7"/>
<image xlink:href="../../images/primaryKeys.png" width="11px" height="12px" preserveAspectRatio="xMinYMin meet" x="204" y="-114.7"/>
<text text-anchor="start" x="219" y="-104.8" font-family="Helvetica,sans-Serif" font-size="11.00" fill="#000000">PREFERRED_NAME</text>
<polygon fill="none" stroke="#000000" points="199,-75.7 199,-97.7 417,-97.7 417,-75.7 199,-75.7"/>
<image xlink:href="../../images/primaryKeys.png" width="11px" height="12px" preserveAspectRatio="xMinYMin meet" x="204" y="-92.7"/>
<text text-anchor="start" x="219" y="-82.8" font-family="Helvetica,sans-Serif" font-size="11.00" fill="#000000">GENDER_IDENTITY_ID</text>
<polygon fill="none" stroke="#000000" points="199,-56.7 199,-75.7 417,-75.7 417,-56.7 199,-56.7"/>
<text text-anchor="start" x="202" y="-62.8" font-family="Helvetica,sans-Serif" font-size="11.00" fill="#000000">...</text>
<polygon fill="#ffffff" stroke="transparent" points="199,-37.7 199,-56.7 275,-56.7 275,-37.7 199,-37.7"/>
<polygon fill="none" stroke="#000000" points="199,-37.7 199,-56.7 275,-56.7 275,-37.7 199,-37.7"/>
<text text-anchor="start" x="202" y="-43.8" font-family="Helvetica,sans-Serif" font-size="11.00" fill="#000000">&lt; 16</text>
<polygon fill="#ffffff" stroke="transparent" points="275,-37.7 275,-56.7 365,-56.7 365,-37.7 275,-37.7"/>
<polygon fill="none" stroke="#000000" points="275,-37.7 275,-56.7 365,-56.7 365,-37.7 275,-37.7"/>
<text text-anchor="start" x="302.094" y="-43.8" font-family="Helvetica,sans-Serif" font-size="11.00" fill="#000000">18,527 rows</text>
<polygon fill="#ffffff" stroke="transparent" points="365,-37.7 365,-56.7 417,-56.7 417,-37.7 365,-37.7"/>
<polygon fill="none" stroke="#000000" points="365,-37.7 365,-56.7 417,-56.7 417,-37.7 365,-37.7"/>
<text text-anchor="start" x="392.2904" y="-43.8" font-family="Helvetica,sans-Serif" font-size="11.00" fill="#000000">95 &gt;</text>
</a>
</g>
</g>
<!-- OASYS_SENTENCE_PLAN&#45;&gt;OFFENDER -->
<g id="edge1" class="edge">
<title>OASYS_SENTENCE_PLAN:w&#45;&gt;OFFENDER:e</title>
<path fill="none" stroke="#000000" d="M452.3008,-985.4371C416.8417,-965.1102 473.782,-856.7 417,-856.7"/>
<polygon fill="#000000" stroke="#000000" points="458.7032,-986.9083 465.6937,-992.2086 462.6016,-987.8041 466.5,-988.7 466.5,-988.7 466.5,-988.7 462.6016,-987.8041 467.3063,-985.1914 458.7032,-986.9083 458.7032,-986.9083"/>
<ellipse fill="none" stroke="#000000" cx="455.5845" cy="-986.1916" rx="3.2" ry="3.2"/>
</g>
<!-- PARTITION_AREA -->
<g id="node3" class="node">
<title>PARTITION_AREA</title>
<g id="a_node3"><a xlink:href="../../tables/PARTITION_AREA.html" xlink:title="PARTITION_AREA" target="_top">
<polygon fill="#ffffff" stroke="transparent" points="8,-845.2 8,-950.2 150,-950.2 150,-845.2 8,-845.2"/>
<polygon fill="#f5f5f5" stroke="transparent" points="8,-926.7 8,-949.7 150,-949.7 150,-926.7 8,-926.7"/>
<polygon fill="none" stroke="#000000" points="8,-926.7 8,-949.7 150,-949.7 150,-926.7 8,-926.7"/>
<text text-anchor="start" x="13" y="-935.8" font-family="Helvetica,sans-Serif" font-weight="bold" font-size="11.00" fill="#000000">PARTITION_AREA</text>
<text text-anchor="start" x="115.0437" y="-934.8" font-family="Helvetica,sans-Serif" font-size="11.00" fill="#000000">[table]</text>
<polygon fill="none" stroke="#000000" points="8,-904.7 8,-926.7 150,-926.7 150,-904.7 8,-904.7"/>
<image xlink:href="../../images/primaryKeys.png" width="11px" height="12px" preserveAspectRatio="xMinYMin meet" x="13" y="-921.7"/>
<text text-anchor="start" x="28" y="-911.8" font-family="Helvetica,sans-Serif" font-size="11.00" fill="#000000">PARTITION_AREA_ID</text>
<polygon fill="none" stroke="#000000" points="8,-882.7 8,-904.7 150,-904.7 150,-882.7 8,-882.7"/>
<image xlink:href="../../images/primaryKeys.png" width="11px" height="12px" preserveAspectRatio="xMinYMin meet" x="13" y="-899.7"/>
<text text-anchor="start" x="24.1624" y="-889.8" font-family="Helvetica,sans-Serif" font-size="11.00" fill="#000000">TRAINING_SESSION_ID</text>
<polygon fill="none" stroke="#000000" points="8,-863.7 8,-882.7 150,-882.7 150,-863.7 8,-863.7"/>
<text text-anchor="start" x="11" y="-869.8" font-family="Helvetica,sans-Serif" font-size="11.00" fill="#000000">...</text>
<polygon fill="#ffffff" stroke="transparent" points="8,-844.7 8,-863.7 49,-863.7 49,-844.7 8,-844.7"/>
<polygon fill="none" stroke="#000000" points="8,-844.7 8,-863.7 49,-863.7 49,-844.7 8,-844.7"/>
<text text-anchor="start" x="11" y="-850.8" font-family="Helvetica,sans-Serif" font-size="11.00" fill="#000000"> &#160;</text>
<polygon fill="#ffffff" stroke="transparent" points="49,-844.7 49,-863.7 108,-863.7 108,-844.7 49,-844.7"/>
<polygon fill="none" stroke="#000000" points="49,-844.7 49,-863.7 108,-863.7 108,-844.7 49,-844.7"/>
<text text-anchor="start" x="66.4956" y="-850.8" font-family="Helvetica,sans-Serif" font-size="11.00" fill="#000000">44 rows</text>
<polygon fill="#ffffff" stroke="transparent" points="108,-844.7 108,-863.7 150,-863.7 150,-844.7 108,-844.7"/>
<polygon fill="none" stroke="#000000" points="108,-844.7 108,-863.7 150,-863.7 150,-844.7 108,-844.7"/>
<text text-anchor="start" x="125.2904" y="-850.8" font-family="Helvetica,sans-Serif" font-size="11.00" fill="#000000">81 &gt;</text>
</a>
</g>
</g>
<!-- OASYS_SENTENCE_PLAN&#45;&gt;PARTITION_AREA -->
<g id="edge2" class="edge">
<title>OASYS_SENTENCE_PLAN:w&#45;&gt;PARTITION_AREA:e</title>
<path fill="none" stroke="#000000" d="M452.1632,-1030.1475C388.1297,-1013.0374 184.1973,-915.7 150,-915.7"/>
<polygon fill="#000000" stroke="#000000" points="458.6239,-1031.2977 465.869,-1036.2443 462.5619,-1031.9988 466.5,-1032.7 466.5,-1032.7 466.5,-1032.7 462.5619,-1031.9988 467.131,-1029.1557 458.6239,-1031.2977 458.6239,-1031.2977"/>
<ellipse fill="none" stroke="#000000" cx="455.4734" cy="-1030.7368" rx="3.2" ry="3.2"/>
</g>
<!-- OFFENDER&#45;&gt;PARTITION_AREA -->
<g id="edge6" class="edge">
<title>OFFENDER:w&#45;&gt;PARTITION_AREA:e</title>
<path fill="none" stroke="#000000" d="M184.393,-594.0014C71.1857,-616.2279 289.8098,-915.7 150,-915.7"/>
<polygon fill="#000000" stroke="#000000" points="191.0316,-593.41 199.3195,-596.2858 195.0158,-593.055 199,-592.7 199,-592.7 199,-592.7 195.0158,-593.055 198.6805,-589.1142 191.0316,-593.41 191.0316,-593.41"/>
<ellipse fill="none" stroke="#000000" cx="187.8442" cy="-593.694" rx="3.2" ry="3.2"/>
</g>
<!-- OASYS_SP_TEXT -->
<g id="node4" class="node">
<title>OASYS_SP_TEXT</title>
<g id="a_node4"><a xlink:href="../../tables/OASYS_SP_TEXT.html" xlink:title="OASYS_SP_TEXT" target="_top">
<polygon fill="#ffffff" stroke="transparent" points="696,-802.7 696,-1046.7 1000,-1046.7 1000,-802.7 696,-802.7"/>
<polygon fill="#f5f5f5" stroke="transparent" points="698,-1021.7 698,-1044.7 998,-1044.7 998,-1021.7 698,-1021.7"/>
<polygon fill="none" stroke="#000000" points="698,-1021.7 698,-1044.7 998,-1044.7 998,-1021.7 698,-1021.7"/>
<text text-anchor="start" x="703" y="-1030.8" font-family="Helvetica,sans-Serif" font-weight="bold" font-size="11.00" fill="#000000">OASYS_SP_TEXT</text>
<text text-anchor="start" x="963.0437" y="-1029.8" font-family="Helvetica,sans-Serif" font-size="11.00" fill="#000000">[table]</text>
<polygon fill="none" stroke="#000000" points="698,-999.7 698,-1021.7 868,-1021.7 868,-999.7 698,-999.7"/>
<image xlink:href="../../images/primaryKeys.png" width="11px" height="12px" preserveAspectRatio="xMinYMin meet" x="703" y="-1016.7"/>
<text text-anchor="start" x="712.5716" y="-1006.8" font-family="Helvetica,sans-Serif" font-size="11.00" fill="#000000">OASYS_SENTENCE_PLAN_ID</text>
<polygon fill="none" stroke="#000000" points="868,-999.7 868,-1021.7 998,-1021.7 998,-999.7 868,-999.7"/>
<text text-anchor="start" x="871" y="-1007.4" font-family="Helvetica,sans-Serif" font-size="11.00" fill="#000000">number[38]</text>
<polygon fill="none" stroke="#000000" points="698,-977.7 698,-999.7 868,-999.7 868,-977.7 698,-977.7"/>
<image xlink:href="../../images/primaryKeys.png" width="11px" height="12px" preserveAspectRatio="xMinYMin meet" x="703" y="-994.7"/>
<text text-anchor="start" x="718" y="-984.8" font-family="Helvetica,sans-Serif" font-size="11.00" fill="#000000">LEVEL_</text>
<polygon fill="none" stroke="#000000" points="868,-977.7 868,-999.7 998,-999.7 998,-977.7 868,-977.7"/>
<text text-anchor="start" x="871" y="-985.4" font-family="Helvetica,sans-Serif" font-size="11.00" fill="#000000">number[38]</text>
<polygon fill="none" stroke="#000000" points="698,-955.7 698,-977.7 868,-977.7 868,-955.7 698,-955.7"/>
<text text-anchor="start" x="718" y="-962.8" font-family="Helvetica,sans-Serif" font-size="11.00" fill="#000000">TEXT</text>
<polygon fill="none" stroke="#000000" points="868,-955.7 868,-977.7 998,-977.7 998,-955.7 868,-955.7"/>
<text text-anchor="start" x="871" y="-963.4" font-family="Helvetica,sans-Serif" font-size="11.00" fill="#000000">varchar2[4000]</text>
<polygon fill="none" stroke="#000000" points="698,-933.7 698,-955.7 868,-955.7 868,-933.7 698,-933.7"/>
<text text-anchor="start" x="718" y="-940.8" font-family="Helvetica,sans-Serif" font-size="11.00" fill="#000000">SOFT_DELETED</text>
<polygon fill="none" stroke="#000000" points="868,-933.7 868,-955.7 998,-955.7 998,-933.7 868,-933.7"/>
<text text-anchor="start" x="871" y="-941.4" font-family="Helvetica,sans-Serif" font-size="11.00" fill="#000000">number[38]</text>
<polygon fill="none" stroke="#000000" points="698,-911.7 698,-933.7 868,-933.7 868,-911.7 698,-911.7"/>
<image xlink:href="../../images/primaryKeys.png" width="11px" height="12px" preserveAspectRatio="xMinYMin meet" x="703" y="-928.7"/>
<text text-anchor="start" x="718" y="-918.8" font-family="Helvetica,sans-Serif" font-size="11.00" fill="#000000">PARTITION_AREA_ID</text>
<polygon fill="none" stroke="#000000" points="868,-911.7 868,-933.7 998,-933.7 998,-911.7 868,-911.7"/>
<text text-anchor="start" x="871" y="-919.4" font-family="Helvetica,sans-Serif" font-size="11.00" fill="#000000">number[38]</text>
<polygon fill="none" stroke="#000000" points="698,-889.7 698,-911.7 868,-911.7 868,-889.7 698,-889.7"/>
<text text-anchor="start" x="718" y="-896.8" font-family="Helvetica,sans-Serif" font-size="11.00" fill="#000000">ROW_VERSION</text>
<polygon fill="none" stroke="#000000" points="868,-889.7 868,-911.7 998,-911.7 998,-889.7 868,-889.7"/>
<text text-anchor="start" x="871" y="-897.4" font-family="Helvetica,sans-Serif" font-size="11.00" fill="#000000">number[38]</text>
<polygon fill="none" stroke="#000000" points="698,-867.7 698,-889.7 868,-889.7 868,-867.7 698,-867.7"/>
<image xlink:href="../../images/primaryKeys.png" width="11px" height="12px" preserveAspectRatio="xMinYMin meet" x="703" y="-884.7"/>
<text text-anchor="start" x="718" y="-874.8" font-family="Helvetica,sans-Serif" font-size="11.00" fill="#000000">TRAINING_SESSION_ID</text>
<polygon fill="none" stroke="#000000" points="868,-867.7 868,-889.7 998,-889.7 998,-867.7 868,-867.7"/>
<text text-anchor="start" x="871" y="-875.4" font-family="Helvetica,sans-Serif" font-size="11.00" fill="#000000">number[38]</text>
<polygon fill="none" stroke="#000000" points="698,-845.7 698,-867.7 868,-867.7 868,-845.7 698,-845.7"/>
<image xlink:href="../../images/primaryKeys.png" width="11px" height="12px" preserveAspectRatio="xMinYMin meet" x="703" y="-862.7"/>
<text text-anchor="start" x="718" y="-852.8" font-family="Helvetica,sans-Serif" font-size="11.00" fill="#000000">OFFENDER_ID</text>
<polygon fill="none" stroke="#000000" points="868,-845.7 868,-867.7 998,-867.7 998,-845.7 868,-845.7"/>
<text text-anchor="start" x="871" y="-853.4" font-family="Helvetica,sans-Serif" font-size="11.00" fill="#000000">number[38]</text>
<polygon fill="none" stroke="#000000" points="698,-823.7 698,-845.7 868,-845.7 868,-823.7 698,-823.7"/>
<text text-anchor="start" x="718" y="-830.8" font-family="Helvetica,sans-Serif" font-size="11.00" fill="#000000">ORGANISATIONS</text>
<polygon fill="none" stroke="#000000" points="868,-823.7 868,-845.7 998,-845.7 998,-823.7 868,-823.7"/>
<text text-anchor="start" x="870.6482" y="-831.4" font-family="Helvetica,sans-Serif" font-size="11.00" fill="#000000">t_arr_organisations[3752]</text>
<polygon fill="#ffffff" stroke="transparent" points="698,-804.7 698,-823.7 774,-823.7 774,-804.7 698,-804.7"/>
<polygon fill="none" stroke="#000000" points="698,-804.7 698,-823.7 774,-823.7 774,-804.7 698,-804.7"/>
<text text-anchor="start" x="701" y="-810.8" font-family="Helvetica,sans-Serif" font-size="11.00" fill="#000000">&lt; 3</text>
<polygon fill="#ffffff" stroke="transparent" points="774,-804.7 774,-823.7 868,-823.7 868,-804.7 774,-804.7"/>
<polygon fill="none" stroke="#000000" points="774,-804.7 774,-823.7 868,-823.7 868,-804.7 774,-804.7"/>
<text text-anchor="start" x="832.6105" y="-810.8" font-family="Helvetica,sans-Serif" font-size="11.00" fill="#000000">0 rows</text>
<polygon fill="#ffffff" stroke="transparent" points="868,-804.7 868,-823.7 998,-823.7 998,-804.7 868,-804.7"/>
<polygon fill="none" stroke="#000000" points="868,-804.7 868,-823.7 998,-823.7 998,-804.7 868,-804.7"/>
<text text-anchor="start" x="979.4053" y="-810.8" font-family="Helvetica,sans-Serif" font-size="11.00" fill="#000000">0 &gt;</text>
<polygon fill="none" stroke="#000000" stroke-width="2" points="697,-803.7 697,-1045.7 999,-1045.7 999,-803.7 697,-803.7"/>
</a>
</g>
</g>
<!-- OASYS_SP_TEXT&#45;&gt;OASYS_SENTENCE_PLAN -->
<g id="edge3" class="edge">
<title>OASYS_SP_TEXT:w&#45;&gt;OASYS_SENTENCE_PLAN:e</title>
<path fill="none" stroke="#000000" d="M684.158,-1015.4466C667.1101,-1030.5798 678.3754,-1076.7 647.5,-1076.7"/>
<polygon fill="#000000" stroke="#000000" points="690.4326,-1013.295 699.1677,-1014.1054 694.2163,-1011.9975 698,-1010.7 698,-1010.7 698,-1010.7 694.2163,-1011.9975 696.8323,-1007.2946 690.4326,-1013.295 690.4326,-1013.295"/>
<ellipse fill="none" stroke="#000000" cx="687.4056" cy="-1014.333" rx="3.2" ry="3.2"/>
</g>
<!-- OASYS_SP_TEXT&#45;&gt;OFFENDER -->
<g id="edge4" class="edge">
<title>OASYS_SP_TEXT:w&#45;&gt;OFFENDER:e</title>
<path fill="none" stroke="#000000" d="M683.4372,-856.7C570.4607,-856.7 536.8885,-856.7 417,-856.7"/>
<polygon fill="#000000" stroke="#000000" points="690,-856.7001 698,-860.3 694,-856.7 698,-856.7 698,-856.7 698,-856.7 694,-856.7 698,-853.1 690,-856.7001 690,-856.7001"/>
<ellipse fill="none" stroke="#000000" cx="686.8" cy="-856.7001" rx="3.2" ry="3.2"/>
</g>
<!-- OASYS_SP_TEXT&#45;&gt;PARTITION_AREA -->
<g id="edge5" class="edge">
<title>OASYS_SP_TEXT:w&#45;&gt;PARTITION_AREA:e</title>
<path fill="none" stroke="#000000" d="M683.588,-922.6917C451.915,-922.4225 388.6992,-915.7 150,-915.7"/>
<polygon fill="#000000" stroke="#000000" points="690,-922.6953 697.9979,-926.3 694,-922.6977 698,-922.7 698,-922.7 698,-922.7 694,-922.6977 698.0021,-919.1 690,-922.6953 690,-922.6953"/>
<ellipse fill="none" stroke="#000000" cx="686.8" cy="-922.6935" rx="3.2" ry="3.2"/>
</g>
</g>
</svg>
