<?xml version="1.0" encoding="UTF-8" standalone="no"?>
<!DOCTYPE svg PUBLIC "-//W3C//DTD SVG 1.1//EN"
 "http://www.w3.org/Graphics/SVG/1.1/DTD/svg11.dtd">
<!-- Generated by graphviz version 2.40.1 (20161225.0304)
 -->
<!-- Title: oneDegreeRelationshipsDiagram Pages: 1 -->
<svg width="746pt" height="492pt"
 viewBox="0.00 0.00 746.00 492.14" xmlns="http://www.w3.org/2000/svg" xmlns:xlink="http://www.w3.org/1999/xlink">
<g id="graph0" class="graph" transform="scale(1 1) rotate(0) translate(4 488.1404)">
<title>oneDegreeRelationshipsDiagram</title>
<polygon fill="#ffffff" stroke="transparent" points="-4,4 -4,-488.1404 742,-488.1404 742,4 -4,4"/>
<text text-anchor="middle" x="72.4936" y="-7.3" font-family="Helvetica,sans-Serif" font-size="11.00" fill="#000000">Generated by SchemaSpy</text>
<!-- OASYS_ASSESSMENT -->
<g id="node1" class="node">
<title>OASYS_ASSESSMENT</title>
<g id="a_node1"><a xlink:href="../../tables/OASYS_ASSESSMENT.html" xlink:title="OASYS_ASSESSMENT" target="_top">
<polygon fill="#ffffff" stroke="transparent" points="199,-89.1404 199,-480.1404 413,-480.1404 413,-89.1404 199,-89.1404"/>
<polygon fill="#f5f5f5" stroke="transparent" points="199,-456.6404 199,-479.6404 413,-479.6404 413,-456.6404 199,-456.6404"/>
<polygon fill="none" stroke="#000000" points="199,-456.6404 199,-479.6404 413,-479.6404 413,-456.6404 199,-456.6404"/>
<text text-anchor="start" x="204" y="-465.7404" font-family="Helvetica,sans-Serif" font-weight="bold" font-size="11.00" fill="#000000">OASYS_ASSESSMENT</text>
<text text-anchor="start" x="378.0437" y="-464.7404" font-family="Helvetica,sans-Serif" font-size="11.00" fill="#000000">[table]</text>
<polygon fill="none" stroke="#000000" points="199,-434.6404 199,-456.6404 413,-456.6404 413,-434.6404 199,-434.6404"/>
<image xlink:href="../../images/primaryKeys.png" width="11px" height="12px" preserveAspectRatio="xMinYMin meet" x="204" y="-451.64"/>
<text text-anchor="start" x="219" y="-441.7404" font-family="Helvetica,sans-Serif" font-size="11.00" fill="#000000">OASYS_ASSESSMENT_ID</text>
<polygon fill="none" stroke="#000000" points="199,-412.6404 199,-434.6404 413,-434.6404 413,-412.6404 199,-412.6404"/>
<image xlink:href="../../images/primaryKeys.png" width="11px" height="12px" preserveAspectRatio="xMinYMin meet" x="204" y="-429.64"/>
<text text-anchor="start" x="219" y="-419.7404" font-family="Helvetica,sans-Serif" font-size="11.00" fill="#000000">OFFENDER_ID</text>
<polygon fill="none" stroke="#000000" points="199,-390.6404 199,-412.6404 413,-412.6404 413,-390.6404 199,-390.6404"/>
<image xlink:href="../../images/primaryKeys.png" width="11px" height="12px" preserveAspectRatio="xMinYMin meet" x="204" y="-407.64"/>
<text text-anchor="start" x="219" y="-397.7404" font-family="Helvetica,sans-Serif" font-size="11.00" fill="#000000">OASYS_ID</text>
<polygon fill="none" stroke="#000000" points="199,-368.6404 199,-390.6404 413,-390.6404 413,-368.6404 199,-368.6404"/>
<image xlink:href="../../images/primaryKeys.png" width="11px" height="12px" preserveAspectRatio="xMinYMin meet" x="204" y="-385.64"/>
<text text-anchor="start" x="219" y="-375.7404" font-family="Helvetica,sans-Serif" font-size="11.00" fill="#000000">ASSESSMENT_DATE</text>
<polygon fill="none" stroke="#000000" points="199,-346.6404 199,-368.6404 413,-368.6404 413,-346.6404 199,-346.6404"/>
<image xlink:href="../../images/primaryKeys.png" width="11px" height="12px" preserveAspectRatio="xMinYMin meet" x="204" y="-363.64"/>
<text text-anchor="start" x="219" y="-353.7404" font-family="Helvetica,sans-Serif" font-size="11.00" fill="#000000">DATE_CREATED</text>
<polygon fill="none" stroke="#000000" points="199,-324.6404 199,-346.6404 413,-346.6404 413,-324.6404 199,-324.6404"/>
<image xlink:href="../../images/primaryKeys.png" width="11px" height="12px" preserveAspectRatio="xMinYMin meet" x="204" y="-341.64"/>
<text text-anchor="start" x="219" y="-331.7404" font-family="Helvetica,sans-Serif" font-size="11.00" fill="#000000">REVIEW_TERMINATED</text>
<polygon fill="none" stroke="#000000" points="199,-302.6404 199,-324.6404 413,-324.6404 413,-302.6404 199,-302.6404"/>
<image xlink:href="../../images/primaryKeys.png" width="11px" height="12px" preserveAspectRatio="xMinYMin meet" x="204" y="-319.64"/>
<text text-anchor="start" x="219" y="-309.7404" font-family="Helvetica,sans-Serif" font-size="11.00" fill="#000000">PARTITION_AREA_ID</text>
<polygon fill="none" stroke="#000000" points="199,-280.6404 199,-302.6404 413,-302.6404 413,-280.6404 199,-280.6404"/>
<image xlink:href="../../images/primaryKeys.png" width="11px" height="12px" preserveAspectRatio="xMinYMin meet" x="204" y="-297.64"/>
<text text-anchor="start" x="219" y="-287.7404" font-family="Helvetica,sans-Serif" font-size="11.00" fill="#000000">SOFT_DELETED</text>
<polygon fill="none" stroke="#000000" points="199,-258.6404 199,-280.6404 413,-280.6404 413,-258.6404 199,-258.6404"/>
<image xlink:href="../../images/primaryKeys.png" width="11px" height="12px" preserveAspectRatio="xMinYMin meet" x="204" y="-275.64"/>
<text text-anchor="start" x="219" y="-265.7404" font-family="Helvetica,sans-Serif" font-size="11.00" fill="#000000">OFFENCE_ID</text>
<polygon fill="none" stroke="#000000" points="199,-236.6404 199,-258.6404 413,-258.6404 413,-236.6404 199,-236.6404"/>
<image xlink:href="../../images/primaryKeys.png" width="11px" height="12px" preserveAspectRatio="xMinYMin meet" x="204" y="-253.64"/>
<text text-anchor="start" x="219" y="-243.7404" font-family="Helvetica,sans-Serif" font-size="11.00" fill="#000000">EVENT_NUMBER</text>
<polygon fill="none" stroke="#000000" points="199,-214.6404 199,-236.6404 413,-236.6404 413,-214.6404 199,-214.6404"/>
<image xlink:href="../../images/primaryKeys.png" width="11px" height="12px" preserveAspectRatio="xMinYMin meet" x="204" y="-231.64"/>
<text text-anchor="start" x="219" y="-221.7404" font-family="Helvetica,sans-Serif" font-size="11.00" fill="#000000">COURT_ID</text>
<polygon fill="none" stroke="#000000" points="199,-192.6404 199,-214.6404 413,-214.6404 413,-192.6404 199,-192.6404"/>
<image xlink:href="../../images/primaryKeys.png" width="11px" height="12px" preserveAspectRatio="xMinYMin meet" x="204" y="-209.64"/>
<text text-anchor="start" x="219" y="-199.7404" font-family="Helvetica,sans-Serif" font-size="11.00" fill="#000000">CONTACT_ID</text>
<polygon fill="none" stroke="#000000" points="199,-170.6404 199,-192.6404 413,-192.6404 413,-170.6404 199,-170.6404"/>
<image xlink:href="../../images/primaryKeys.png" width="11px" height="12px" preserveAspectRatio="xMinYMin meet" x="204" y="-187.64"/>
<text text-anchor="start" x="219" y="-177.7404" font-family="Helvetica,sans-Serif" font-size="11.00" fill="#000000">TRAINING_SESSION_ID</text>
<polygon fill="none" stroke="#000000" points="199,-148.6404 199,-170.6404 413,-170.6404 413,-148.6404 199,-148.6404"/>
<image xlink:href="../../images/primaryKeys.png" width="11px" height="12px" preserveAspectRatio="xMinYMin meet" x="204" y="-165.64"/>
<text text-anchor="start" x="219" y="-155.7404" font-family="Helvetica,sans-Serif" font-size="11.00" fill="#000000">TIER_CODE_ID</text>
<polygon fill="none" stroke="#000000" points="199,-126.6404 199,-148.6404 413,-148.6404 413,-126.6404 199,-126.6404"/>
<image xlink:href="../../images/primaryKeys.png" width="11px" height="12px" preserveAspectRatio="xMinYMin meet" x="204" y="-143.64"/>
<text text-anchor="start" x="219" y="-133.7404" font-family="Helvetica,sans-Serif" font-size="11.00" fill="#000000">ASSESSMENT_STATUS_ID</text>
<polygon fill="none" stroke="#000000" points="199,-107.6404 199,-126.6404 413,-126.6404 413,-107.6404 199,-107.6404"/>
<text text-anchor="start" x="202" y="-113.7404" font-family="Helvetica,sans-Serif" font-size="11.00" fill="#000000">...</text>
<polygon fill="#ffffff" stroke="transparent" points="199,-88.6404 199,-107.6404 287,-107.6404 287,-88.6404 199,-88.6404"/>
<polygon fill="none" stroke="#000000" points="199,-88.6404 199,-107.6404 287,-107.6404 287,-88.6404 199,-88.6404"/>
<text text-anchor="start" x="202" y="-94.7404" font-family="Helvetica,sans-Serif" font-size="11.00" fill="#000000">&lt; 7</text>
<polygon fill="#ffffff" stroke="transparent" points="287,-88.6404 287,-107.6404 358,-107.6404 358,-88.6404 287,-88.6404"/>
<polygon fill="none" stroke="#000000" points="287,-88.6404 287,-107.6404 358,-107.6404 358,-88.6404 287,-88.6404"/>
<text text-anchor="start" x="322.6105" y="-94.7404" font-family="Helvetica,sans-Serif" font-size="11.00" fill="#000000">0 rows</text>
<polygon fill="#ffffff" stroke="transparent" points="358,-88.6404 358,-107.6404 413,-107.6404 413,-88.6404 358,-88.6404"/>
<polygon fill="none" stroke="#000000" points="358,-88.6404 358,-107.6404 413,-107.6404 413,-88.6404 358,-88.6404"/>
<text text-anchor="start" x="394.4053" y="-94.7404" font-family="Helvetica,sans-Serif" font-size="11.00" fill="#000000">2 &gt;</text>
</a>
</g>
</g>
<!-- PARTITION_AREA -->
<g id="node2" class="node">
<title>PARTITION_AREA</title>
<g id="a_node2"><a xlink:href="../../tables/PARTITION_AREA.html" xlink:title="PARTITION_AREA" target="_top">
<polygon fill="#ffffff" stroke="transparent" points="8,-118.1404 8,-223.1404 150,-223.1404 150,-118.1404 8,-118.1404"/>
<polygon fill="#f5f5f5" stroke="transparent" points="8,-199.6404 8,-222.6404 150,-222.6404 150,-199.6404 8,-199.6404"/>
<polygon fill="none" stroke="#000000" points="8,-199.6404 8,-222.6404 150,-222.6404 150,-199.6404 8,-199.6404"/>
<text text-anchor="start" x="13" y="-208.7404" font-family="Helvetica,sans-Serif" font-weight="bold" font-size="11.00" fill="#000000">PARTITION_AREA</text>
<text text-anchor="start" x="115.0437" y="-207.7404" font-family="Helvetica,sans-Serif" font-size="11.00" fill="#000000">[table]</text>
<polygon fill="none" stroke="#000000" points="8,-177.6404 8,-199.6404 150,-199.6404 150,-177.6404 8,-177.6404"/>
<image xlink:href="../../images/primaryKeys.png" width="11px" height="12px" preserveAspectRatio="xMinYMin meet" x="13" y="-194.64"/>
<text text-anchor="start" x="28" y="-184.7404" font-family="Helvetica,sans-Serif" font-size="11.00" fill="#000000">PARTITION_AREA_ID</text>
<polygon fill="none" stroke="#000000" points="8,-155.6404 8,-177.6404 150,-177.6404 150,-155.6404 8,-155.6404"/>
<image xlink:href="../../images/primaryKeys.png" width="11px" height="12px" preserveAspectRatio="xMinYMin meet" x="13" y="-172.64"/>
<text text-anchor="start" x="24.1624" y="-162.7404" font-family="Helvetica,sans-Serif" font-size="11.00" fill="#000000">TRAINING_SESSION_ID</text>
<polygon fill="none" stroke="#000000" points="8,-136.6404 8,-155.6404 150,-155.6404 150,-136.6404 8,-136.6404"/>
<text text-anchor="start" x="11" y="-142.7404" font-family="Helvetica,sans-Serif" font-size="11.00" fill="#000000">...</text>
<polygon fill="#ffffff" stroke="transparent" points="8,-117.6404 8,-136.6404 49,-136.6404 49,-117.6404 8,-117.6404"/>
<polygon fill="none" stroke="#000000" points="8,-117.6404 8,-136.6404 49,-136.6404 49,-117.6404 8,-117.6404"/>
<text text-anchor="start" x="11" y="-123.7404" font-family="Helvetica,sans-Serif" font-size="11.00" fill="#000000"> &#160;</text>
<polygon fill="#ffffff" stroke="transparent" points="49,-117.6404 49,-136.6404 108,-136.6404 108,-117.6404 49,-117.6404"/>
<polygon fill="none" stroke="#000000" points="49,-117.6404 49,-136.6404 108,-136.6404 108,-117.6404 49,-117.6404"/>
<text text-anchor="start" x="66.4956" y="-123.7404" font-family="Helvetica,sans-Serif" font-size="11.00" fill="#000000">44 rows</text>
<polygon fill="#ffffff" stroke="transparent" points="108,-117.6404 108,-136.6404 150,-136.6404 150,-117.6404 108,-117.6404"/>
<polygon fill="none" stroke="#000000" points="108,-117.6404 108,-136.6404 150,-136.6404 150,-117.6404 108,-117.6404"/>
<text text-anchor="start" x="125.2904" y="-123.7404" font-family="Helvetica,sans-Serif" font-size="11.00" fill="#000000">81 &gt;</text>
</a>
</g>
</g>
<!-- OASYS_ASSESSMENT&#45;&gt;PARTITION_AREA -->
<g id="edge1" class="edge">
<title>OASYS_ASSESSMENT:w&#45;&gt;PARTITION_AREA:e</title>
<path fill="none" stroke="#000000" d="M184.5697,-310.0342C152.2758,-289.5391 203.6111,-188.6404 150,-188.6404"/>
<polygon fill="#000000" stroke="#000000" points="191.2387,-311.7008 198.1272,-317.133 195.1193,-312.6706 199,-313.6404 199,-313.6404 199,-313.6404 195.1193,-312.6706 199.8728,-310.1478 191.2387,-311.7008 191.2387,-311.7008"/>
<ellipse fill="none" stroke="#000000" cx="188.1342" cy="-310.9249" rx="3.2" ry="3.2"/>
</g>
<!-- OASYS_ASSMNT_SECTION_SCORE -->
<g id="node3" class="node">
<title>OASYS_ASSMNT_SECTION_SCORE</title>
<g id="a_node3"><a xlink:href="../../tables/OASYS_ASSMNT_SECTION_SCORE.html" xlink:title="OASYS_ASSMNT_SECTION_SCORE" target="_top">
<polygon fill="#ffffff" stroke="transparent" points="462,-134.6404 462,-334.6404 730,-334.6404 730,-134.6404 462,-134.6404"/>
<polygon fill="#f5f5f5" stroke="transparent" points="464,-309.6404 464,-332.6404 728,-332.6404 728,-309.6404 464,-309.6404"/>
<polygon fill="none" stroke="#000000" points="464,-309.6404 464,-332.6404 728,-332.6404 728,-309.6404 464,-309.6404"/>
<text text-anchor="start" x="469" y="-318.7404" font-family="Helvetica,sans-Serif" font-weight="bold" font-size="11.00" fill="#000000">OASYS_ASSMNT_SECTION_SCORE</text>
<text text-anchor="start" x="693.0437" y="-317.7404" font-family="Helvetica,sans-Serif" font-size="11.00" fill="#000000">[table]</text>
<polygon fill="none" stroke="#000000" points="464,-287.6404 464,-309.6404 667,-309.6404 667,-287.6404 464,-287.6404"/>
<image xlink:href="../../images/primaryKeys.png" width="11px" height="12px" preserveAspectRatio="xMinYMin meet" x="469" y="-304.64"/>
<text text-anchor="start" x="484" y="-294.7404" font-family="Helvetica,sans-Serif" font-size="11.00" fill="#000000">OASYS_ASSESSMENT_ID</text>
<polygon fill="none" stroke="#000000" points="667,-287.6404 667,-309.6404 728,-309.6404 728,-287.6404 667,-287.6404"/>
<text text-anchor="start" x="669.6865" y="-295.3404" font-family="Helvetica,sans-Serif" font-size="11.00" fill="#000000">number[38]</text>
<polygon fill="none" stroke="#000000" points="464,-265.6404 464,-287.6404 667,-287.6404 667,-265.6404 464,-265.6404"/>
<image xlink:href="../../images/primaryKeys.png" width="11px" height="12px" preserveAspectRatio="xMinYMin meet" x="469" y="-282.64"/>
<text text-anchor="start" x="484" y="-272.7404" font-family="Helvetica,sans-Serif" font-size="11.00" fill="#000000">LEVEL_</text>
<polygon fill="none" stroke="#000000" points="667,-265.6404 667,-287.6404 728,-287.6404 728,-265.6404 667,-265.6404"/>
<text text-anchor="start" x="669.6865" y="-273.3404" font-family="Helvetica,sans-Serif" font-size="11.00" fill="#000000">number[38]</text>
<polygon fill="none" stroke="#000000" points="464,-243.6404 464,-265.6404 667,-265.6404 667,-243.6404 464,-243.6404"/>
<text text-anchor="start" x="484" y="-250.7404" font-family="Helvetica,sans-Serif" font-size="11.00" fill="#000000">SECTION_SCORE</text>
<polygon fill="none" stroke="#000000" points="667,-243.6404 667,-265.6404 728,-265.6404 728,-243.6404 667,-243.6404"/>
<text text-anchor="start" x="669.6865" y="-251.3404" font-family="Helvetica,sans-Serif" font-size="11.00" fill="#000000">number[38]</text>
<polygon fill="none" stroke="#000000" points="464,-221.6404 464,-243.6404 667,-243.6404 667,-221.6404 464,-221.6404"/>
<text text-anchor="start" x="484" y="-228.7404" font-family="Helvetica,sans-Serif" font-size="11.00" fill="#000000">SOFT_DELETED</text>
<polygon fill="none" stroke="#000000" points="667,-221.6404 667,-243.6404 728,-243.6404 728,-221.6404 667,-221.6404"/>
<text text-anchor="start" x="669.6865" y="-229.3404" font-family="Helvetica,sans-Serif" font-size="11.00" fill="#000000">number[38]</text>
<polygon fill="none" stroke="#000000" points="464,-199.6404 464,-221.6404 667,-221.6404 667,-199.6404 464,-199.6404"/>
<image xlink:href="../../images/primaryKeys.png" width="11px" height="12px" preserveAspectRatio="xMinYMin meet" x="469" y="-216.64"/>
<text text-anchor="start" x="484" y="-206.7404" font-family="Helvetica,sans-Serif" font-size="11.00" fill="#000000">PARTITION_AREA_ID</text>
<polygon fill="none" stroke="#000000" points="667,-199.6404 667,-221.6404 728,-221.6404 728,-199.6404 667,-199.6404"/>
<text text-anchor="start" x="669.6865" y="-207.3404" font-family="Helvetica,sans-Serif" font-size="11.00" fill="#000000">number[38]</text>
<polygon fill="none" stroke="#000000" points="464,-177.6404 464,-199.6404 667,-199.6404 667,-177.6404 464,-177.6404"/>
<text text-anchor="start" x="484" y="-184.7404" font-family="Helvetica,sans-Serif" font-size="11.00" fill="#000000">ROW_VERSION</text>
<polygon fill="none" stroke="#000000" points="667,-177.6404 667,-199.6404 728,-199.6404 728,-177.6404 667,-177.6404"/>
<text text-anchor="start" x="669.6865" y="-185.3404" font-family="Helvetica,sans-Serif" font-size="11.00" fill="#000000">number[38]</text>
<polygon fill="none" stroke="#000000" points="464,-155.6404 464,-177.6404 667,-177.6404 667,-155.6404 464,-155.6404"/>
<image xlink:href="../../images/primaryKeys.png" width="11px" height="12px" preserveAspectRatio="xMinYMin meet" x="469" y="-172.64"/>
<text text-anchor="start" x="484" y="-162.7404" font-family="Helvetica,sans-Serif" font-size="11.00" fill="#000000">TRAINING_SESSION_ID</text>
<polygon fill="none" stroke="#000000" points="667,-155.6404 667,-177.6404 728,-177.6404 728,-155.6404 667,-155.6404"/>
<text text-anchor="start" x="669.6865" y="-163.3404" font-family="Helvetica,sans-Serif" font-size="11.00" fill="#000000">number[38]</text>
<polygon fill="#ffffff" stroke="transparent" points="464,-136.6404 464,-155.6404 551,-155.6404 551,-136.6404 464,-136.6404"/>
<polygon fill="none" stroke="#000000" points="464,-136.6404 464,-155.6404 551,-155.6404 551,-136.6404 464,-136.6404"/>
<text text-anchor="start" x="467" y="-142.7404" font-family="Helvetica,sans-Serif" font-size="11.00" fill="#000000">&lt; 2</text>
<polygon fill="#ffffff" stroke="transparent" points="551,-136.6404 551,-155.6404 667,-155.6404 667,-136.6404 551,-136.6404"/>
<polygon fill="none" stroke="#000000" points="551,-136.6404 551,-155.6404 667,-155.6404 667,-136.6404 551,-136.6404"/>
<text text-anchor="start" x="619.3807" y="-142.7404" font-family="Helvetica,sans-Serif" font-size="11.00" fill="#000000">511 rows</text>
<polygon fill="#ffffff" stroke="transparent" points="667,-136.6404 667,-155.6404 728,-155.6404 728,-136.6404 667,-136.6404"/>
<polygon fill="none" stroke="#000000" points="667,-136.6404 667,-155.6404 728,-155.6404 728,-136.6404 667,-136.6404"/>
<text text-anchor="start" x="709.4053" y="-142.7404" font-family="Helvetica,sans-Serif" font-size="11.00" fill="#000000">0 &gt;</text>
<polygon fill="none" stroke="#000000" stroke-width="2" points="463,-135.6404 463,-333.6404 729,-333.6404 729,-135.6404 463,-135.6404"/>
</a>
</g>
</g>
<!-- OASYS_ASSMNT_SECTION_SCORE&#45;&gt;OASYS_ASSESSMENT -->
<g id="edge2" class="edge">
<title>OASYS_ASSMNT_SECTION_SCORE:w&#45;&gt;OASYS_ASSESSMENT:e</title>
<path fill="none" stroke="#000000" d="M449.7019,-301.5768C408.4077,-322.295 476.3458,-445.6404 413,-445.6404"/>
<polygon fill="#000000" stroke="#000000" points="456.1635,-300.2498 464.7242,-302.1668 460.0818,-299.4451 464,-298.6404 464,-298.6404 464,-298.6404 460.0818,-299.4451 463.2758,-295.114 456.1635,-300.2498 456.1635,-300.2498"/>
<ellipse fill="none" stroke="#000000" cx="453.029" cy="-300.8936" rx="3.2" ry="3.2"/>
</g>
<!-- OASYS_ASSMNT_SECTION_SCORE&#45;&gt;PARTITION_AREA -->
<g id="edge3" class="edge">
<title>OASYS_ASSMNT_SECTION_SCORE:w&#45;&gt;PARTITION_AREA:e</title>
<path fill="none" stroke="#000000" d="M449.4206,-208.0455C414.573,-192.5063 466.0548,-111.3486 421,-78.6404 338.2777,-18.587 274.961,-20.3314 191,-78.6404 148.1461,-108.4014 202.1744,-188.6404 150,-188.6404"/>
<polygon fill="#000000" stroke="#000000" points="456.1238,-209.2385 463.3692,-214.1847 460.0619,-209.9395 464,-210.6404 464,-210.6404 464,-210.6404 460.0619,-209.9395 464.6308,-207.0961 456.1238,-209.2385 456.1238,-209.2385"/>
<ellipse fill="none" stroke="#000000" cx="452.9733" cy="-208.6778" rx="3.2" ry="3.2"/>
</g>
</g>
</svg>
