<?xml version="1.0" encoding="UTF-8" standalone="no"?>
<!DOCTYPE svg PUBLIC "-//W3C//DTD SVG 1.1//EN"
 "http://www.w3.org/Graphics/SVG/1.1/DTD/svg11.dtd">
<!-- Generated by graphviz version 2.40.1 (20161225.0304)
 -->
<!-- Title: twoDegreesRelationshipsDiagram Pages: 1 -->
<svg width="540pt" height="333pt"
 viewBox="0.00 0.00 540.00 332.70" xmlns="http://www.w3.org/2000/svg" xmlns:xlink="http://www.w3.org/1999/xlink">
<g id="graph0" class="graph" transform="scale(1 1) rotate(0) translate(4 328.7)">
<title>twoDegreesRelationshipsDiagram</title>
<polygon fill="#ffffff" stroke="transparent" points="-4,4 -4,-328.7 536,-328.7 536,4 -4,4"/>
<text text-anchor="middle" x="72.4936" y="-7.3" font-family="Helvetica,sans-Serif" font-size="11.00" fill="#000000">Generated by SchemaSpy</text>
<!-- DOCUMENT_TEMPLATE_AREA -->
<g id="node1" class="node">
<title>DOCUMENT_TEMPLATE_AREA</title>
<g id="a_node1"><a xlink:href="../../tables/DOCUMENT_TEMPLATE_AREA.html" xlink:title="DOCUMENT_TEMPLATE_AREA" target="_top">
<polygon fill="#ffffff" stroke="transparent" points="272.5,-259.7 272.5,-320.7 478.5,-320.7 478.5,-259.7 272.5,-259.7"/>
<polygon fill="#f5f5f5" stroke="transparent" points="272.5,-297.2 272.5,-320.2 478.5,-320.2 478.5,-297.2 272.5,-297.2"/>
<polygon fill="none" stroke="#000000" points="272.5,-297.2 272.5,-320.2 478.5,-320.2 478.5,-297.2 272.5,-297.2"/>
<text text-anchor="start" x="277.1116" y="-306.3" font-family="Helvetica,sans-Serif" font-weight="bold" font-size="11.00" fill="#000000">DOCUMENT_TEMPLATE_AREA</text>
<text text-anchor="start" x="444.0219" y="-305.3" font-family="Helvetica,sans-Serif" font-size="11.00" fill="#000000">[table]</text>
<polygon fill="none" stroke="#000000" points="272.5,-278.2 272.5,-297.2 478.5,-297.2 478.5,-278.2 272.5,-278.2"/>
<text text-anchor="start" x="275.5" y="-284.3" font-family="Helvetica,sans-Serif" font-size="11.00" fill="#000000">...</text>
<polygon fill="#ffffff" stroke="transparent" points="272.5,-259.2 272.5,-278.2 363.5,-278.2 363.5,-259.2 272.5,-259.2"/>
<polygon fill="none" stroke="#000000" points="272.5,-259.2 272.5,-278.2 363.5,-278.2 363.5,-259.2 272.5,-259.2"/>
<text text-anchor="start" x="275.5" y="-265.3" font-family="Helvetica,sans-Serif" font-size="11.00" fill="#000000">&lt; 2</text>
<polygon fill="#ffffff" stroke="transparent" points="363.5,-259.2 363.5,-278.2 430.5,-278.2 430.5,-259.2 363.5,-259.2"/>
<polygon fill="none" stroke="#000000" points="363.5,-259.2 363.5,-278.2 430.5,-278.2 430.5,-259.2 363.5,-259.2"/>
<text text-anchor="start" x="400.6105" y="-265.3" font-family="Helvetica,sans-Serif" font-size="11.00" fill="#000000">1 row</text>
<polygon fill="#ffffff" stroke="transparent" points="430.5,-259.2 430.5,-278.2 478.5,-278.2 478.5,-259.2 430.5,-259.2"/>
<polygon fill="none" stroke="#000000" points="430.5,-259.2 430.5,-278.2 478.5,-278.2 478.5,-259.2 430.5,-259.2"/>
<text text-anchor="start" x="469.3862" y="-265.3" font-family="Helvetica,sans-Serif" font-size="11.00" fill="#000000"> &#160;</text>
</a>
</g>
</g>
<!-- DOCUMENT_TEMPLATE -->
<g id="node2" class="node">
<title>DOCUMENT_TEMPLATE</title>
<g id="a_node2"><a xlink:href="../../tables/DOCUMENT_TEMPLATE.html" xlink:title="DOCUMENT_TEMPLATE" target="_top">
<polygon fill="#ffffff" stroke="transparent" points="8,-118.7 8,-245.7 178,-245.7 178,-118.7 8,-118.7"/>
<polygon fill="#f5f5f5" stroke="transparent" points="8,-222.2 8,-245.2 178,-245.2 178,-222.2 8,-222.2"/>
<polygon fill="none" stroke="#000000" points="8,-222.2 8,-245.2 178,-245.2 178,-222.2 8,-222.2"/>
<text text-anchor="start" x="12.6433" y="-231.3" font-family="Helvetica,sans-Serif" font-weight="bold" font-size="11.00" fill="#000000">DOCUMENT_TEMPLATE</text>
<text text-anchor="start" x="143.5219" y="-230.3" font-family="Helvetica,sans-Serif" font-size="11.00" fill="#000000">[table]</text>
<polygon fill="none" stroke="#000000" points="8,-200.2 8,-222.2 178,-222.2 178,-200.2 8,-200.2"/>
<image xlink:href="../../images/primaryKeys.png" width="11px" height="12px" preserveAspectRatio="xMinYMin meet" x="13" y="-217.2"/>
<text text-anchor="start" x="28.087" y="-207.3" font-family="Helvetica,sans-Serif" font-size="11.00" fill="#000000">DOCUMENT_TEMPLATE_ID</text>
<polygon fill="none" stroke="#000000" points="8,-178.2 8,-200.2 178,-200.2 178,-178.2 8,-178.2"/>
<image xlink:href="../../images/primaryKeys.png" width="11px" height="12px" preserveAspectRatio="xMinYMin meet" x="13" y="-195.2"/>
<text text-anchor="start" x="33" y="-185.3" font-family="Helvetica,sans-Serif" font-size="11.00" fill="#000000">TEMPLATE_NAME</text>
<polygon fill="none" stroke="#000000" points="8,-156.2 8,-178.2 178,-178.2 178,-156.2 8,-156.2"/>
<image xlink:href="../../images/primaryKeys.png" width="11px" height="12px" preserveAspectRatio="xMinYMin meet" x="13" y="-173.2"/>
<text text-anchor="start" x="33" y="-163.3" font-family="Helvetica,sans-Serif" font-size="11.00" fill="#000000">TRAINING_SESSION_ID</text>
<polygon fill="none" stroke="#000000" points="8,-137.2 8,-156.2 178,-156.2 178,-137.2 8,-137.2"/>
<text text-anchor="start" x="11" y="-143.3" font-family="Helvetica,sans-Serif" font-size="11.00" fill="#000000">...</text>
<polygon fill="#ffffff" stroke="transparent" points="8,-118.2 8,-137.2 66,-137.2 66,-118.2 8,-118.2"/>
<polygon fill="none" stroke="#000000" points="8,-118.2 8,-137.2 66,-137.2 66,-118.2 8,-118.2"/>
<text text-anchor="start" x="11" y="-124.3" font-family="Helvetica,sans-Serif" font-size="11.00" fill="#000000"> &#160;</text>
<polygon fill="#ffffff" stroke="transparent" points="66,-118.2 66,-137.2 133,-137.2 133,-118.2 66,-118.2"/>
<polygon fill="none" stroke="#000000" points="66,-118.2 66,-137.2 133,-137.2 133,-118.2 66,-118.2"/>
<text text-anchor="start" x="91.4956" y="-124.3" font-family="Helvetica,sans-Serif" font-size="11.00" fill="#000000">16 rows</text>
<polygon fill="#ffffff" stroke="transparent" points="133,-118.2 133,-137.2 178,-137.2 178,-118.2 133,-118.2"/>
<polygon fill="none" stroke="#000000" points="133,-118.2 133,-137.2 178,-137.2 178,-118.2 133,-118.2"/>
<text text-anchor="start" x="159.4053" y="-124.3" font-family="Helvetica,sans-Serif" font-size="11.00" fill="#000000">2 &gt;</text>
</a>
</g>
</g>
<!-- DOCUMENT_TEMPLATE_AREA&#45;&gt;DOCUMENT_TEMPLATE -->
<g id="edge1" class="edge">
<title>DOCUMENT_TEMPLATE_AREA:w&#45;&gt;DOCUMENT_TEMPLATE:e</title>
<path fill="none" stroke="#000000" d="M258.1932,-285.1116C241.8711,-279.5883 237.2116,-264.003 219,-249.2 199.7204,-233.5289 202.8452,-211.2 178,-211.2"/>
<polygon fill="#000000" stroke="#000000" points="264.5839,-286.0444 271.98,-290.7622 268.5419,-286.6222 272.5,-287.2 272.5,-287.2 272.5,-287.2 268.5419,-286.6222 273.02,-283.6378 264.5839,-286.0444 264.5839,-286.0444"/>
<ellipse fill="none" stroke="#000000" cx="261.4175" cy="-285.5822" rx="3.2" ry="3.2"/>
</g>
<!-- OBJECT_TYPE_DOCUMENT_TEMPLATE -->
<g id="node3" class="node">
<title>OBJECT_TYPE_DOCUMENT_TEMPLATE</title>
<g id="a_node3"><a xlink:href="../../tables/OBJECT_TYPE_DOCUMENT_TEMPLATE.html" xlink:title="OBJECT_TYPE_DOCUMENT_TEMPLATE" target="_top">
<polygon fill="#ffffff" stroke="transparent" points="227,-38.2 227,-238.2 524,-238.2 524,-38.2 227,-38.2"/>
<polygon fill="#f5f5f5" stroke="transparent" points="229.5,-213.2 229.5,-236.2 522.5,-236.2 522.5,-213.2 229.5,-213.2"/>
<polygon fill="none" stroke="#000000" points="229.5,-213.2 229.5,-236.2 522.5,-236.2 522.5,-213.2 229.5,-213.2"/>
<text text-anchor="start" x="234.5" y="-222.3" font-family="Helvetica,sans-Serif" font-weight="bold" font-size="11.00" fill="#000000">OBJECT_TYPE_DOCUMENT_TEMPLATE</text>
<text text-anchor="start" x="487.5437" y="-221.3" font-family="Helvetica,sans-Serif" font-size="11.00" fill="#000000">[table]</text>
<polygon fill="none" stroke="#000000" points="229.5,-191.2 229.5,-213.2 455.5,-213.2 455.5,-191.2 229.5,-191.2"/>
<image xlink:href="../../images/primaryKeys.png" width="11px" height="12px" preserveAspectRatio="xMinYMin meet" x="234.5" y="-208.2"/>
<text text-anchor="start" x="249.5" y="-198.3" font-family="Helvetica,sans-Serif" font-size="11.00" fill="#000000">OBJECT_TYPE_DOC_TEMPLATE_ID</text>
<polygon fill="none" stroke="#000000" points="455.5,-191.2 455.5,-213.2 522.5,-213.2 522.5,-191.2 455.5,-191.2"/>
<text text-anchor="start" x="458.5" y="-198.9" font-family="Helvetica,sans-Serif" font-size="11.00" fill="#000000">number[38]</text>
<polygon fill="none" stroke="#000000" points="229.5,-169.2 229.5,-191.2 455.5,-191.2 455.5,-169.2 229.5,-169.2"/>
<text text-anchor="start" x="249.5" y="-176.3" font-family="Helvetica,sans-Serif" font-size="11.00" fill="#000000">OBJECT_NAME</text>
<polygon fill="none" stroke="#000000" points="455.5,-169.2 455.5,-191.2 522.5,-191.2 522.5,-169.2 455.5,-169.2"/>
<text text-anchor="start" x="458.4365" y="-176.9" font-family="Helvetica,sans-Serif" font-size="11.00" fill="#000000">varchar2[32]</text>
<polygon fill="none" stroke="#000000" points="229.5,-147.2 229.5,-169.2 455.5,-169.2 455.5,-147.2 229.5,-147.2"/>
<text text-anchor="start" x="249.5" y="-154.3" font-family="Helvetica,sans-Serif" font-size="11.00" fill="#000000">OBJECT_PRIMARY_KEY_ID</text>
<polygon fill="none" stroke="#000000" points="455.5,-147.2 455.5,-169.2 522.5,-169.2 522.5,-147.2 455.5,-147.2"/>
<text text-anchor="start" x="458.5" y="-154.9" font-family="Helvetica,sans-Serif" font-size="11.00" fill="#000000">number[38]</text>
<polygon fill="none" stroke="#000000" points="229.5,-125.2 229.5,-147.2 455.5,-147.2 455.5,-125.2 229.5,-125.2"/>
<image xlink:href="../../images/primaryKeys.png" width="11px" height="12px" preserveAspectRatio="xMinYMin meet" x="234.5" y="-142.2"/>
<text text-anchor="start" x="249.5" y="-132.3" font-family="Helvetica,sans-Serif" font-size="11.00" fill="#000000">DOCUMENT_TEMPLATE_ID</text>
<polygon fill="none" stroke="#000000" points="455.5,-125.2 455.5,-147.2 522.5,-147.2 522.5,-125.2 455.5,-125.2"/>
<text text-anchor="start" x="458.5" y="-132.9" font-family="Helvetica,sans-Serif" font-size="11.00" fill="#000000">number[38]</text>
<polygon fill="none" stroke="#000000" points="229.5,-103.2 229.5,-125.2 455.5,-125.2 455.5,-103.2 229.5,-103.2"/>
<text text-anchor="start" x="249.5" y="-110.3" font-family="Helvetica,sans-Serif" font-size="11.00" fill="#000000">ROW_VERSION</text>
<polygon fill="none" stroke="#000000" points="455.5,-103.2 455.5,-125.2 522.5,-125.2 522.5,-103.2 455.5,-103.2"/>
<text text-anchor="start" x="458.5" y="-110.9" font-family="Helvetica,sans-Serif" font-size="11.00" fill="#000000">number[38]</text>
<polygon fill="none" stroke="#000000" points="229.5,-81.2 229.5,-103.2 455.5,-103.2 455.5,-81.2 229.5,-81.2"/>
<image xlink:href="../../images/primaryKeys.png" width="11px" height="12px" preserveAspectRatio="xMinYMin meet" x="234.5" y="-98.2"/>
<text text-anchor="start" x="249.5" y="-88.3" font-family="Helvetica,sans-Serif" font-size="11.00" fill="#000000">TRAINING_SESSION_ID</text>
<polygon fill="none" stroke="#000000" points="455.5,-81.2 455.5,-103.2 522.5,-103.2 522.5,-81.2 455.5,-81.2"/>
<text text-anchor="start" x="458.5" y="-88.9" font-family="Helvetica,sans-Serif" font-size="11.00" fill="#000000">number[38]</text>
<polygon fill="none" stroke="#000000" points="229.5,-59.2 229.5,-81.2 455.5,-81.2 455.5,-59.2 229.5,-59.2"/>
<text text-anchor="start" x="243.9705" y="-66.3" font-family="Helvetica,sans-Serif" font-size="11.00" fill="#000000">THIS_COLUMN_SHOULD_BE_DROPPED</text>
<polygon fill="none" stroke="#000000" points="455.5,-59.2 455.5,-81.2 522.5,-81.2 522.5,-59.2 455.5,-59.2"/>
<text text-anchor="start" x="458.5" y="-66.9" font-family="Helvetica,sans-Serif" font-size="11.00" fill="#000000">char[1]</text>
<polygon fill="#ffffff" stroke="transparent" points="229.5,-40.2 229.5,-59.2 330.5,-59.2 330.5,-40.2 229.5,-40.2"/>
<polygon fill="none" stroke="#000000" points="229.5,-40.2 229.5,-59.2 330.5,-59.2 330.5,-40.2 229.5,-40.2"/>
<text text-anchor="start" x="232.5" y="-46.3" font-family="Helvetica,sans-Serif" font-size="11.00" fill="#000000">&lt; 1</text>
<polygon fill="#ffffff" stroke="transparent" points="330.5,-40.2 330.5,-59.2 455.5,-59.2 455.5,-40.2 330.5,-40.2"/>
<polygon fill="none" stroke="#000000" points="330.5,-40.2 330.5,-59.2 455.5,-59.2 455.5,-40.2 330.5,-40.2"/>
<text text-anchor="start" x="413.9956" y="-46.3" font-family="Helvetica,sans-Serif" font-size="11.00" fill="#000000">47 rows</text>
<polygon fill="#ffffff" stroke="transparent" points="455.5,-40.2 455.5,-59.2 522.5,-59.2 522.5,-40.2 455.5,-40.2"/>
<polygon fill="none" stroke="#000000" points="455.5,-40.2 455.5,-59.2 522.5,-59.2 522.5,-40.2 455.5,-40.2"/>
<text text-anchor="start" x="503.9053" y="-46.3" font-family="Helvetica,sans-Serif" font-size="11.00" fill="#000000">0 &gt;</text>
<polygon fill="none" stroke="#000000" stroke-width="2" points="228,-39.2 228,-237.2 523,-237.2 523,-39.2 228,-39.2"/>
</a>
</g>
</g>
<!-- OBJECT_TYPE_DOCUMENT_TEMPLATE&#45;&gt;DOCUMENT_TEMPLATE -->
<g id="edge2" class="edge">
<title>OBJECT_TYPE_DOCUMENT_TEMPLATE:w&#45;&gt;DOCUMENT_TEMPLATE:e</title>
<path fill="none" stroke="#000000" d="M215.6513,-140.667C196.246,-156.8131 212.4332,-211.2 178,-211.2"/>
<polygon fill="#000000" stroke="#000000" points="221.8863,-138.6559 230.6052,-139.6262 225.6931,-137.4279 229.5,-136.2 229.5,-136.2 229.5,-136.2 225.6931,-137.4279 228.3948,-132.7738 221.8863,-138.6559 221.8863,-138.6559"/>
<ellipse fill="none" stroke="#000000" cx="218.8408" cy="-139.6382" rx="3.2" ry="3.2"/>
</g>
</g>
</svg>
