<?xml version="1.0" encoding="UTF-8" standalone="no"?>
<!DOCTYPE svg PUBLIC "-//W3C//DTD SVG 1.1//EN"
 "http://www.w3.org/Graphics/SVG/1.1/DTD/svg11.dtd">
<!-- Generated by graphviz version 2.40.1 (20161225.0304)
 -->
<!-- Title: twoDegreesRelationshipsDiagram Pages: 1 -->
<svg width="768pt" height="333pt"
 viewBox="0.00 0.00 768.00 332.70" xmlns="http://www.w3.org/2000/svg" xmlns:xlink="http://www.w3.org/1999/xlink">
<g id="graph0" class="graph" transform="scale(1 1) rotate(0) translate(4 328.7)">
<title>twoDegreesRelationshipsDiagram</title>
<polygon fill="#ffffff" stroke="transparent" points="-4,4 -4,-328.7 764,-328.7 764,4 -4,4"/>
<text text-anchor="middle" x="72.4936" y="-7.3" font-family="Helvetica,sans-Serif" font-size="11.00" fill="#000000">Generated by SchemaSpy</text>
<!-- DOCUMENT_TEMPLATE -->
<g id="node1" class="node">
<title>DOCUMENT_TEMPLATE</title>
<g id="a_node1"><a xlink:href="../../tables/DOCUMENT_TEMPLATE.html" xlink:title="DOCUMENT_TEMPLATE" target="_top">
<polygon fill="#ffffff" stroke="transparent" points="236,-96.7 236,-245.7 406,-245.7 406,-96.7 236,-96.7"/>
<polygon fill="#f5f5f5" stroke="transparent" points="236,-222.2 236,-245.2 406,-245.2 406,-222.2 236,-222.2"/>
<polygon fill="none" stroke="#000000" points="236,-222.2 236,-245.2 406,-245.2 406,-222.2 236,-222.2"/>
<text text-anchor="start" x="240.6434" y="-231.3" font-family="Helvetica,sans-Serif" font-weight="bold" font-size="11.00" fill="#000000">DOCUMENT_TEMPLATE</text>
<text text-anchor="start" x="371.5219" y="-230.3" font-family="Helvetica,sans-Serif" font-size="11.00" fill="#000000">[table]</text>
<polygon fill="none" stroke="#000000" points="236,-200.2 236,-222.2 406,-222.2 406,-200.2 236,-200.2"/>
<image xlink:href="../../images/primaryKeys.png" width="11px" height="12px" preserveAspectRatio="xMinYMin meet" x="241" y="-217.2"/>
<text text-anchor="start" x="256.587" y="-207.3" font-family="Helvetica,sans-Serif" font-size="11.00" fill="#000000">DOCUMENT_TEMPLATE_ID</text>
<polygon fill="none" stroke="#000000" points="236,-178.2 236,-200.2 406,-200.2 406,-178.2 236,-178.2"/>
<image xlink:href="../../images/primaryKeys.png" width="11px" height="12px" preserveAspectRatio="xMinYMin meet" x="241" y="-195.2"/>
<text text-anchor="start" x="257" y="-185.3" font-family="Helvetica,sans-Serif" font-size="11.00" fill="#000000">TEMPLATE_NAME</text>
<polygon fill="none" stroke="#000000" points="236,-156.2 236,-178.2 406,-178.2 406,-156.2 236,-156.2"/>
<image xlink:href="../../images/primaryKeys.png" width="11px" height="12px" preserveAspectRatio="xMinYMin meet" x="241" y="-173.2"/>
<text text-anchor="start" x="257" y="-163.3" font-family="Helvetica,sans-Serif" font-size="11.00" fill="#000000">TRAINING_SESSION_ID</text>
<polygon fill="none" stroke="#000000" points="236,-134.2 236,-156.2 406,-156.2 406,-134.2 236,-134.2"/>
<image xlink:href="../../images/primaryKeys.png" width="11px" height="12px" preserveAspectRatio="xMinYMin meet" x="241" y="-151.2"/>
<text text-anchor="start" x="252.3042" y="-141.3" font-family="Helvetica,sans-Serif" font-size="11.00" fill="#000000">BUSINESS_INTERACTION_ID</text>
<polygon fill="none" stroke="#000000" points="236,-115.2 236,-134.2 406,-134.2 406,-115.2 236,-115.2"/>
<text text-anchor="start" x="239" y="-121.3" font-family="Helvetica,sans-Serif" font-size="11.00" fill="#000000">...</text>
<polygon fill="#ffffff" stroke="transparent" points="236,-96.2 236,-115.2 299,-115.2 299,-96.2 236,-96.2"/>
<polygon fill="none" stroke="#000000" points="236,-96.2 236,-115.2 299,-115.2 299,-96.2 236,-96.2"/>
<text text-anchor="start" x="239" y="-102.3" font-family="Helvetica,sans-Serif" font-size="11.00" fill="#000000">&lt; 1</text>
<polygon fill="#ffffff" stroke="transparent" points="299,-96.2 299,-115.2 364,-115.2 364,-96.2 299,-96.2"/>
<polygon fill="none" stroke="#000000" points="299,-96.2 299,-115.2 364,-115.2 364,-96.2 299,-96.2"/>
<text text-anchor="start" x="322.4956" y="-102.3" font-family="Helvetica,sans-Serif" font-size="11.00" fill="#000000">16 rows</text>
<polygon fill="#ffffff" stroke="transparent" points="364,-96.2 364,-115.2 406,-115.2 406,-96.2 364,-96.2"/>
<polygon fill="none" stroke="#000000" points="364,-96.2 364,-115.2 406,-115.2 406,-96.2 364,-96.2"/>
<text text-anchor="start" x="387.4053" y="-102.3" font-family="Helvetica,sans-Serif" font-size="11.00" fill="#000000">2 &gt;</text>
</a>
</g>
</g>
<!-- BUSINESS_INTERACTION -->
<g id="node2" class="node">
<title>BUSINESS_INTERACTION</title>
<g id="a_node2"><a xlink:href="../../tables/BUSINESS_INTERACTION.html" xlink:title="BUSINESS_INTERACTION" target="_top">
<polygon fill="#ffffff" stroke="transparent" points="8,-117.7 8,-178.7 187,-178.7 187,-117.7 8,-117.7"/>
<polygon fill="#f5f5f5" stroke="transparent" points="8.5,-155.2 8.5,-178.2 187.5,-178.2 187.5,-155.2 8.5,-155.2"/>
<polygon fill="none" stroke="#000000" points="8.5,-155.2 8.5,-178.2 187.5,-178.2 187.5,-155.2 8.5,-155.2"/>
<text text-anchor="start" x="13.3605" y="-164.3" font-family="Helvetica,sans-Serif" font-weight="bold" font-size="11.00" fill="#000000">BUSINESS_INTERACTION</text>
<text text-anchor="start" x="153.0219" y="-163.3" font-family="Helvetica,sans-Serif" font-size="11.00" fill="#000000">[table]</text>
<polygon fill="none" stroke="#000000" points="8.5,-136.2 8.5,-155.2 187.5,-155.2 187.5,-136.2 8.5,-136.2"/>
<text text-anchor="start" x="11.5" y="-142.3" font-family="Helvetica,sans-Serif" font-size="11.00" fill="#000000">...</text>
<polygon fill="#ffffff" stroke="transparent" points="8.5,-117.2 8.5,-136.2 63.5,-136.2 63.5,-117.2 8.5,-117.2"/>
<polygon fill="none" stroke="#000000" points="8.5,-117.2 8.5,-136.2 63.5,-136.2 63.5,-117.2 8.5,-117.2"/>
<text text-anchor="start" x="11.5" y="-123.3" font-family="Helvetica,sans-Serif" font-size="11.00" fill="#000000"> &#160;</text>
<polygon fill="#ffffff" stroke="transparent" points="63.5,-117.2 63.5,-136.2 144.5,-136.2 144.5,-117.2 63.5,-117.2"/>
<polygon fill="none" stroke="#000000" points="63.5,-117.2 63.5,-136.2 144.5,-136.2 144.5,-117.2 63.5,-117.2"/>
<text text-anchor="start" x="87.7089" y="-123.3" font-family="Helvetica,sans-Serif" font-size="11.00" fill="#000000">1,092 rows</text>
<polygon fill="#ffffff" stroke="transparent" points="144.5,-117.2 144.5,-136.2 187.5,-136.2 187.5,-117.2 144.5,-117.2"/>
<polygon fill="none" stroke="#000000" points="144.5,-117.2 144.5,-136.2 187.5,-136.2 187.5,-117.2 144.5,-117.2"/>
<text text-anchor="start" x="168.9053" y="-123.3" font-family="Helvetica,sans-Serif" font-size="11.00" fill="#000000">6 &gt;</text>
</a>
</g>
</g>
<!-- DOCUMENT_TEMPLATE&#45;&gt;BUSINESS_INTERACTION -->
<g id="edge1" class="edge">
<title>DOCUMENT_TEMPLATE:w&#45;&gt;BUSINESS_INTERACTION:e</title>
<path fill="none" stroke="#000000" d="M221.2829,-145.2C210.2886,-145.2 203.1615,-145.2 187.5,-145.2"/>
<polygon fill="#000000" stroke="#000000" points="228,-145.2001 236,-148.8 232,-145.2 236,-145.2 236,-145.2 236,-145.2 232,-145.2 236,-141.6 228,-145.2001 228,-145.2001"/>
<ellipse fill="none" stroke="#000000" cx="224.8" cy="-145.2001" rx="3.2" ry="3.2"/>
</g>
<!-- DOCUMENT_TEMPLATE_AREA -->
<g id="node3" class="node">
<title>DOCUMENT_TEMPLATE_AREA</title>
<g id="a_node3"><a xlink:href="../../tables/DOCUMENT_TEMPLATE_AREA.html" xlink:title="DOCUMENT_TEMPLATE_AREA" target="_top">
<polygon fill="#ffffff" stroke="transparent" points="500.5,-259.7 500.5,-320.7 706.5,-320.7 706.5,-259.7 500.5,-259.7"/>
<polygon fill="#f5f5f5" stroke="transparent" points="500.5,-297.2 500.5,-320.2 706.5,-320.2 706.5,-297.2 500.5,-297.2"/>
<polygon fill="none" stroke="#000000" points="500.5,-297.2 500.5,-320.2 706.5,-320.2 706.5,-297.2 500.5,-297.2"/>
<text text-anchor="start" x="505.1116" y="-306.3" font-family="Helvetica,sans-Serif" font-weight="bold" font-size="11.00" fill="#000000">DOCUMENT_TEMPLATE_AREA</text>
<text text-anchor="start" x="672.0219" y="-305.3" font-family="Helvetica,sans-Serif" font-size="11.00" fill="#000000">[table]</text>
<polygon fill="none" stroke="#000000" points="500.5,-278.2 500.5,-297.2 706.5,-297.2 706.5,-278.2 500.5,-278.2"/>
<text text-anchor="start" x="503.5" y="-284.3" font-family="Helvetica,sans-Serif" font-size="11.00" fill="#000000">...</text>
<polygon fill="#ffffff" stroke="transparent" points="500.5,-259.2 500.5,-278.2 591.5,-278.2 591.5,-259.2 500.5,-259.2"/>
<polygon fill="none" stroke="#000000" points="500.5,-259.2 500.5,-278.2 591.5,-278.2 591.5,-259.2 500.5,-259.2"/>
<text text-anchor="start" x="503.5" y="-265.3" font-family="Helvetica,sans-Serif" font-size="11.00" fill="#000000">&lt; 2</text>
<polygon fill="#ffffff" stroke="transparent" points="591.5,-259.2 591.5,-278.2 658.5,-278.2 658.5,-259.2 591.5,-259.2"/>
<polygon fill="none" stroke="#000000" points="591.5,-259.2 591.5,-278.2 658.5,-278.2 658.5,-259.2 591.5,-259.2"/>
<text text-anchor="start" x="628.6105" y="-265.3" font-family="Helvetica,sans-Serif" font-size="11.00" fill="#000000">1 row</text>
<polygon fill="#ffffff" stroke="transparent" points="658.5,-259.2 658.5,-278.2 706.5,-278.2 706.5,-259.2 658.5,-259.2"/>
<polygon fill="none" stroke="#000000" points="658.5,-259.2 658.5,-278.2 706.5,-278.2 706.5,-259.2 658.5,-259.2"/>
<text text-anchor="start" x="697.3862" y="-265.3" font-family="Helvetica,sans-Serif" font-size="11.00" fill="#000000"> &#160;</text>
</a>
</g>
</g>
<!-- DOCUMENT_TEMPLATE_AREA&#45;&gt;DOCUMENT_TEMPLATE -->
<g id="edge2" class="edge">
<title>DOCUMENT_TEMPLATE_AREA:w&#45;&gt;DOCUMENT_TEMPLATE:e</title>
<path fill="none" stroke="#000000" d="M486.1932,-285.1116C469.8711,-279.5883 465.2116,-264.003 447,-249.2 427.7204,-233.5289 430.8452,-211.2 406,-211.2"/>
<polygon fill="#000000" stroke="#000000" points="492.5839,-286.0444 499.98,-290.7622 496.5419,-286.6222 500.5,-287.2 500.5,-287.2 500.5,-287.2 496.5419,-286.6222 501.02,-283.6378 492.5839,-286.0444 492.5839,-286.0444"/>
<ellipse fill="none" stroke="#000000" cx="489.4175" cy="-285.5822" rx="3.2" ry="3.2"/>
</g>
<!-- OBJECT_TYPE_DOCUMENT_TEMPLATE -->
<g id="node4" class="node">
<title>OBJECT_TYPE_DOCUMENT_TEMPLATE</title>
<g id="a_node4"><a xlink:href="../../tables/OBJECT_TYPE_DOCUMENT_TEMPLATE.html" xlink:title="OBJECT_TYPE_DOCUMENT_TEMPLATE" target="_top">
<polygon fill="#ffffff" stroke="transparent" points="455,-38.2 455,-238.2 752,-238.2 752,-38.2 455,-38.2"/>
<polygon fill="#f5f5f5" stroke="transparent" points="457.5,-213.2 457.5,-236.2 750.5,-236.2 750.5,-213.2 457.5,-213.2"/>
<polygon fill="none" stroke="#000000" points="457.5,-213.2 457.5,-236.2 750.5,-236.2 750.5,-213.2 457.5,-213.2"/>
<text text-anchor="start" x="462.5" y="-222.3" font-family="Helvetica,sans-Serif" font-weight="bold" font-size="11.00" fill="#000000">OBJECT_TYPE_DOCUMENT_TEMPLATE</text>
<text text-anchor="start" x="715.5437" y="-221.3" font-family="Helvetica,sans-Serif" font-size="11.00" fill="#000000">[table]</text>
<polygon fill="none" stroke="#000000" points="457.5,-191.2 457.5,-213.2 683.5,-213.2 683.5,-191.2 457.5,-191.2"/>
<image xlink:href="../../images/primaryKeys.png" width="11px" height="12px" preserveAspectRatio="xMinYMin meet" x="462.5" y="-208.2"/>
<text text-anchor="start" x="477.5" y="-198.3" font-family="Helvetica,sans-Serif" font-size="11.00" fill="#000000">OBJECT_TYPE_DOC_TEMPLATE_ID</text>
<polygon fill="none" stroke="#000000" points="683.5,-191.2 683.5,-213.2 750.5,-213.2 750.5,-191.2 683.5,-191.2"/>
<text text-anchor="start" x="686.5" y="-198.9" font-family="Helvetica,sans-Serif" font-size="11.00" fill="#000000">number[38]</text>
<polygon fill="none" stroke="#000000" points="457.5,-169.2 457.5,-191.2 683.5,-191.2 683.5,-169.2 457.5,-169.2"/>
<text text-anchor="start" x="477.5" y="-176.3" font-family="Helvetica,sans-Serif" font-size="11.00" fill="#000000">OBJECT_NAME</text>
<polygon fill="none" stroke="#000000" points="683.5,-169.2 683.5,-191.2 750.5,-191.2 750.5,-169.2 683.5,-169.2"/>
<text text-anchor="start" x="686.4365" y="-176.9" font-family="Helvetica,sans-Serif" font-size="11.00" fill="#000000">varchar2[32]</text>
<polygon fill="none" stroke="#000000" points="457.5,-147.2 457.5,-169.2 683.5,-169.2 683.5,-147.2 457.5,-147.2"/>
<text text-anchor="start" x="477.5" y="-154.3" font-family="Helvetica,sans-Serif" font-size="11.00" fill="#000000">OBJECT_PRIMARY_KEY_ID</text>
<polygon fill="none" stroke="#000000" points="683.5,-147.2 683.5,-169.2 750.5,-169.2 750.5,-147.2 683.5,-147.2"/>
<text text-anchor="start" x="686.5" y="-154.9" font-family="Helvetica,sans-Serif" font-size="11.00" fill="#000000">number[38]</text>
<polygon fill="none" stroke="#000000" points="457.5,-125.2 457.5,-147.2 683.5,-147.2 683.5,-125.2 457.5,-125.2"/>
<image xlink:href="../../images/primaryKeys.png" width="11px" height="12px" preserveAspectRatio="xMinYMin meet" x="462.5" y="-142.2"/>
<text text-anchor="start" x="477.5" y="-132.3" font-family="Helvetica,sans-Serif" font-size="11.00" fill="#000000">DOCUMENT_TEMPLATE_ID</text>
<polygon fill="none" stroke="#000000" points="683.5,-125.2 683.5,-147.2 750.5,-147.2 750.5,-125.2 683.5,-125.2"/>
<text text-anchor="start" x="686.5" y="-132.9" font-family="Helvetica,sans-Serif" font-size="11.00" fill="#000000">number[38]</text>
<polygon fill="none" stroke="#000000" points="457.5,-103.2 457.5,-125.2 683.5,-125.2 683.5,-103.2 457.5,-103.2"/>
<text text-anchor="start" x="477.5" y="-110.3" font-family="Helvetica,sans-Serif" font-size="11.00" fill="#000000">ROW_VERSION</text>
<polygon fill="none" stroke="#000000" points="683.5,-103.2 683.5,-125.2 750.5,-125.2 750.5,-103.2 683.5,-103.2"/>
<text text-anchor="start" x="686.5" y="-110.9" font-family="Helvetica,sans-Serif" font-size="11.00" fill="#000000">number[38]</text>
<polygon fill="none" stroke="#000000" points="457.5,-81.2 457.5,-103.2 683.5,-103.2 683.5,-81.2 457.5,-81.2"/>
<image xlink:href="../../images/primaryKeys.png" width="11px" height="12px" preserveAspectRatio="xMinYMin meet" x="462.5" y="-98.2"/>
<text text-anchor="start" x="477.5" y="-88.3" font-family="Helvetica,sans-Serif" font-size="11.00" fill="#000000">TRAINING_SESSION_ID</text>
<polygon fill="none" stroke="#000000" points="683.5,-81.2 683.5,-103.2 750.5,-103.2 750.5,-81.2 683.5,-81.2"/>
<text text-anchor="start" x="686.5" y="-88.9" font-family="Helvetica,sans-Serif" font-size="11.00" fill="#000000">number[38]</text>
<polygon fill="none" stroke="#000000" points="457.5,-59.2 457.5,-81.2 683.5,-81.2 683.5,-59.2 457.5,-59.2"/>
<text text-anchor="start" x="471.9705" y="-66.3" font-family="Helvetica,sans-Serif" font-size="11.00" fill="#000000">THIS_COLUMN_SHOULD_BE_DROPPED</text>
<polygon fill="none" stroke="#000000" points="683.5,-59.2 683.5,-81.2 750.5,-81.2 750.5,-59.2 683.5,-59.2"/>
<text text-anchor="start" x="686.5" y="-66.9" font-family="Helvetica,sans-Serif" font-size="11.00" fill="#000000">char[1]</text>
<polygon fill="#ffffff" stroke="transparent" points="457.5,-40.2 457.5,-59.2 558.5,-59.2 558.5,-40.2 457.5,-40.2"/>
<polygon fill="none" stroke="#000000" points="457.5,-40.2 457.5,-59.2 558.5,-59.2 558.5,-40.2 457.5,-40.2"/>
<text text-anchor="start" x="460.5" y="-46.3" font-family="Helvetica,sans-Serif" font-size="11.00" fill="#000000">&lt; 1</text>
<polygon fill="#ffffff" stroke="transparent" points="558.5,-40.2 558.5,-59.2 683.5,-59.2 683.5,-40.2 558.5,-40.2"/>
<polygon fill="none" stroke="#000000" points="558.5,-40.2 558.5,-59.2 683.5,-59.2 683.5,-40.2 558.5,-40.2"/>
<text text-anchor="start" x="641.9956" y="-46.3" font-family="Helvetica,sans-Serif" font-size="11.00" fill="#000000">47 rows</text>
<polygon fill="#ffffff" stroke="transparent" points="683.5,-40.2 683.5,-59.2 750.5,-59.2 750.5,-40.2 683.5,-40.2"/>
<polygon fill="none" stroke="#000000" points="683.5,-40.2 683.5,-59.2 750.5,-59.2 750.5,-40.2 683.5,-40.2"/>
<text text-anchor="start" x="731.9053" y="-46.3" font-family="Helvetica,sans-Serif" font-size="11.00" fill="#000000">0 &gt;</text>
<polygon fill="none" stroke="#000000" stroke-width="2" points="456,-39.2 456,-237.2 751,-237.2 751,-39.2 456,-39.2"/>
</a>
</g>
</g>
<!-- OBJECT_TYPE_DOCUMENT_TEMPLATE&#45;&gt;DOCUMENT_TEMPLATE -->
<g id="edge3" class="edge">
<title>OBJECT_TYPE_DOCUMENT_TEMPLATE:w&#45;&gt;DOCUMENT_TEMPLATE:e</title>
<path fill="none" stroke="#000000" d="M443.6513,-140.667C424.246,-156.8131 440.4332,-211.2 406,-211.2"/>
<polygon fill="#000000" stroke="#000000" points="449.8863,-138.6559 458.6052,-139.6262 453.6931,-137.4279 457.5,-136.2 457.5,-136.2 457.5,-136.2 453.6931,-137.4279 456.3948,-132.7738 449.8863,-138.6559 449.8863,-138.6559"/>
<ellipse fill="none" stroke="#000000" cx="446.8408" cy="-139.6382" rx="3.2" ry="3.2"/>
</g>
</g>
</svg>
