<?xml version="1.0" encoding="UTF-8" standalone="no"?>
<!DOCTYPE svg PUBLIC "-//W3C//DTD SVG 1.1//EN"
 "http://www.w3.org/Graphics/SVG/1.1/DTD/svg11.dtd">
<!-- Generated by graphviz version 2.40.1 (20161225.0304)
 -->
<!-- Title: oneDegreeRelationshipsDiagram Pages: 1 -->
<svg width="540pt" height="267pt"
 viewBox="0.00 0.00 540.00 266.70" xmlns="http://www.w3.org/2000/svg" xmlns:xlink="http://www.w3.org/1999/xlink">
<g id="graph0" class="graph" transform="scale(1 1) rotate(0) translate(4 262.7)">
<title>oneDegreeRelationshipsDiagram</title>
<polygon fill="#ffffff" stroke="transparent" points="-4,4 -4,-262.7 536,-262.7 536,4 -4,4"/>
<text text-anchor="middle" x="72.4936" y="-7.3" font-family="Helvetica,sans-Serif" font-size="11.00" fill="#000000">Generated by SchemaSpy</text>
<!-- OBJECT_TYPE_DOCUMENT_TEMPLATE -->
<g id="node1" class="node">
<title>OBJECT_TYPE_DOCUMENT_TEMPLATE</title>
<g id="a_node1"><a xlink:href="../../tables/OBJECT_TYPE_DOCUMENT_TEMPLATE.html" xlink:title="OBJECT_TYPE_DOCUMENT_TEMPLATE" target="_top">
<polygon fill="#ffffff" stroke="transparent" points="227,-54.7 227,-254.7 524,-254.7 524,-54.7 227,-54.7"/>
<polygon fill="#f5f5f5" stroke="transparent" points="229.5,-229.7 229.5,-252.7 522.5,-252.7 522.5,-229.7 229.5,-229.7"/>
<polygon fill="none" stroke="#000000" points="229.5,-229.7 229.5,-252.7 522.5,-252.7 522.5,-229.7 229.5,-229.7"/>
<text text-anchor="start" x="234.5" y="-238.8" font-family="Helvetica,sans-Serif" font-weight="bold" font-size="11.00" fill="#000000">OBJECT_TYPE_DOCUMENT_TEMPLATE</text>
<text text-anchor="start" x="487.5437" y="-237.8" font-family="Helvetica,sans-Serif" font-size="11.00" fill="#000000">[table]</text>
<polygon fill="none" stroke="#000000" points="229.5,-207.7 229.5,-229.7 455.5,-229.7 455.5,-207.7 229.5,-207.7"/>
<image xlink:href="../../images/primaryKeys.png" width="11px" height="12px" preserveAspectRatio="xMinYMin meet" x="234.5" y="-224.7"/>
<text text-anchor="start" x="249.5" y="-214.8" font-family="Helvetica,sans-Serif" font-size="11.00" fill="#000000">OBJECT_TYPE_DOC_TEMPLATE_ID</text>
<polygon fill="none" stroke="#000000" points="455.5,-207.7 455.5,-229.7 522.5,-229.7 522.5,-207.7 455.5,-207.7"/>
<text text-anchor="start" x="458.5" y="-215.4" font-family="Helvetica,sans-Serif" font-size="11.00" fill="#000000">number[38]</text>
<polygon fill="none" stroke="#000000" points="229.5,-185.7 229.5,-207.7 455.5,-207.7 455.5,-185.7 229.5,-185.7"/>
<text text-anchor="start" x="249.5" y="-192.8" font-family="Helvetica,sans-Serif" font-size="11.00" fill="#000000">OBJECT_NAME</text>
<polygon fill="none" stroke="#000000" points="455.5,-185.7 455.5,-207.7 522.5,-207.7 522.5,-185.7 455.5,-185.7"/>
<text text-anchor="start" x="458.4365" y="-193.4" font-family="Helvetica,sans-Serif" font-size="11.00" fill="#000000">varchar2[32]</text>
<polygon fill="none" stroke="#000000" points="229.5,-163.7 229.5,-185.7 455.5,-185.7 455.5,-163.7 229.5,-163.7"/>
<text text-anchor="start" x="249.5" y="-170.8" font-family="Helvetica,sans-Serif" font-size="11.00" fill="#000000">OBJECT_PRIMARY_KEY_ID</text>
<polygon fill="none" stroke="#000000" points="455.5,-163.7 455.5,-185.7 522.5,-185.7 522.5,-163.7 455.5,-163.7"/>
<text text-anchor="start" x="458.5" y="-171.4" font-family="Helvetica,sans-Serif" font-size="11.00" fill="#000000">number[38]</text>
<polygon fill="none" stroke="#000000" points="229.5,-141.7 229.5,-163.7 455.5,-163.7 455.5,-141.7 229.5,-141.7"/>
<image xlink:href="../../images/primaryKeys.png" width="11px" height="12px" preserveAspectRatio="xMinYMin meet" x="234.5" y="-158.7"/>
<text text-anchor="start" x="249.5" y="-148.8" font-family="Helvetica,sans-Serif" font-size="11.00" fill="#000000">DOCUMENT_TEMPLATE_ID</text>
<polygon fill="none" stroke="#000000" points="455.5,-141.7 455.5,-163.7 522.5,-163.7 522.5,-141.7 455.5,-141.7"/>
<text text-anchor="start" x="458.5" y="-149.4" font-family="Helvetica,sans-Serif" font-size="11.00" fill="#000000">number[38]</text>
<polygon fill="none" stroke="#000000" points="229.5,-119.7 229.5,-141.7 455.5,-141.7 455.5,-119.7 229.5,-119.7"/>
<text text-anchor="start" x="249.5" y="-126.8" font-family="Helvetica,sans-Serif" font-size="11.00" fill="#000000">ROW_VERSION</text>
<polygon fill="none" stroke="#000000" points="455.5,-119.7 455.5,-141.7 522.5,-141.7 522.5,-119.7 455.5,-119.7"/>
<text text-anchor="start" x="458.5" y="-127.4" font-family="Helvetica,sans-Serif" font-size="11.00" fill="#000000">number[38]</text>
<polygon fill="none" stroke="#000000" points="229.5,-97.7 229.5,-119.7 455.5,-119.7 455.5,-97.7 229.5,-97.7"/>
<image xlink:href="../../images/primaryKeys.png" width="11px" height="12px" preserveAspectRatio="xMinYMin meet" x="234.5" y="-114.7"/>
<text text-anchor="start" x="249.5" y="-104.8" font-family="Helvetica,sans-Serif" font-size="11.00" fill="#000000">TRAINING_SESSION_ID</text>
<polygon fill="none" stroke="#000000" points="455.5,-97.7 455.5,-119.7 522.5,-119.7 522.5,-97.7 455.5,-97.7"/>
<text text-anchor="start" x="458.5" y="-105.4" font-family="Helvetica,sans-Serif" font-size="11.00" fill="#000000">number[38]</text>
<polygon fill="none" stroke="#000000" points="229.5,-75.7 229.5,-97.7 455.5,-97.7 455.5,-75.7 229.5,-75.7"/>
<text text-anchor="start" x="243.9705" y="-82.8" font-family="Helvetica,sans-Serif" font-size="11.00" fill="#000000">THIS_COLUMN_SHOULD_BE_DROPPED</text>
<polygon fill="none" stroke="#000000" points="455.5,-75.7 455.5,-97.7 522.5,-97.7 522.5,-75.7 455.5,-75.7"/>
<text text-anchor="start" x="458.5" y="-83.4" font-family="Helvetica,sans-Serif" font-size="11.00" fill="#000000">char[1]</text>
<polygon fill="#ffffff" stroke="transparent" points="229.5,-56.7 229.5,-75.7 330.5,-75.7 330.5,-56.7 229.5,-56.7"/>
<polygon fill="none" stroke="#000000" points="229.5,-56.7 229.5,-75.7 330.5,-75.7 330.5,-56.7 229.5,-56.7"/>
<text text-anchor="start" x="232.5" y="-62.8" font-family="Helvetica,sans-Serif" font-size="11.00" fill="#000000">&lt; 1</text>
<polygon fill="#ffffff" stroke="transparent" points="330.5,-56.7 330.5,-75.7 455.5,-75.7 455.5,-56.7 330.5,-56.7"/>
<polygon fill="none" stroke="#000000" points="330.5,-56.7 330.5,-75.7 455.5,-75.7 455.5,-56.7 330.5,-56.7"/>
<text text-anchor="start" x="413.9956" y="-62.8" font-family="Helvetica,sans-Serif" font-size="11.00" fill="#000000">47 rows</text>
<polygon fill="#ffffff" stroke="transparent" points="455.5,-56.7 455.5,-75.7 522.5,-75.7 522.5,-56.7 455.5,-56.7"/>
<polygon fill="none" stroke="#000000" points="455.5,-56.7 455.5,-75.7 522.5,-75.7 522.5,-56.7 455.5,-56.7"/>
<text text-anchor="start" x="503.9053" y="-62.8" font-family="Helvetica,sans-Serif" font-size="11.00" fill="#000000">0 &gt;</text>
<polygon fill="none" stroke="#000000" stroke-width="2" points="228,-55.7 228,-253.7 523,-253.7 523,-55.7 228,-55.7"/>
</a>
</g>
</g>
<!-- DOCUMENT_TEMPLATE -->
<g id="node2" class="node">
<title>DOCUMENT_TEMPLATE</title>
<g id="a_node2"><a xlink:href="../../tables/DOCUMENT_TEMPLATE.html" xlink:title="DOCUMENT_TEMPLATE" target="_top">
<polygon fill="#ffffff" stroke="transparent" points="8,-38.2 8,-187.2 178,-187.2 178,-38.2 8,-38.2"/>
<polygon fill="#f5f5f5" stroke="transparent" points="8,-163.7 8,-186.7 178,-186.7 178,-163.7 8,-163.7"/>
<polygon fill="none" stroke="#000000" points="8,-163.7 8,-186.7 178,-186.7 178,-163.7 8,-163.7"/>
<text text-anchor="start" x="12.6433" y="-172.8" font-family="Helvetica,sans-Serif" font-weight="bold" font-size="11.00" fill="#000000">DOCUMENT_TEMPLATE</text>
<text text-anchor="start" x="143.5219" y="-171.8" font-family="Helvetica,sans-Serif" font-size="11.00" fill="#000000">[table]</text>
<polygon fill="none" stroke="#000000" points="8,-141.7 8,-163.7 178,-163.7 178,-141.7 8,-141.7"/>
<image xlink:href="../../images/primaryKeys.png" width="11px" height="12px" preserveAspectRatio="xMinYMin meet" x="13" y="-158.7"/>
<text text-anchor="start" x="28.587" y="-148.8" font-family="Helvetica,sans-Serif" font-size="11.00" fill="#000000">DOCUMENT_TEMPLATE_ID</text>
<polygon fill="none" stroke="#000000" points="8,-119.7 8,-141.7 178,-141.7 178,-119.7 8,-119.7"/>
<image xlink:href="../../images/primaryKeys.png" width="11px" height="12px" preserveAspectRatio="xMinYMin meet" x="13" y="-136.7"/>
<text text-anchor="start" x="29" y="-126.8" font-family="Helvetica,sans-Serif" font-size="11.00" fill="#000000">TEMPLATE_NAME</text>
<polygon fill="none" stroke="#000000" points="8,-97.7 8,-119.7 178,-119.7 178,-97.7 8,-97.7"/>
<image xlink:href="../../images/primaryKeys.png" width="11px" height="12px" preserveAspectRatio="xMinYMin meet" x="13" y="-114.7"/>
<text text-anchor="start" x="29" y="-104.8" font-family="Helvetica,sans-Serif" font-size="11.00" fill="#000000">TRAINING_SESSION_ID</text>
<polygon fill="none" stroke="#000000" points="8,-75.7 8,-97.7 178,-97.7 178,-75.7 8,-75.7"/>
<image xlink:href="../../images/primaryKeys.png" width="11px" height="12px" preserveAspectRatio="xMinYMin meet" x="13" y="-92.7"/>
<text text-anchor="start" x="24.3041" y="-82.8" font-family="Helvetica,sans-Serif" font-size="11.00" fill="#000000">BUSINESS_INTERACTION_ID</text>
<polygon fill="none" stroke="#000000" points="8,-56.7 8,-75.7 178,-75.7 178,-56.7 8,-56.7"/>
<text text-anchor="start" x="11" y="-62.8" font-family="Helvetica,sans-Serif" font-size="11.00" fill="#000000">...</text>
<polygon fill="#ffffff" stroke="transparent" points="8,-37.7 8,-56.7 71,-56.7 71,-37.7 8,-37.7"/>
<polygon fill="none" stroke="#000000" points="8,-37.7 8,-56.7 71,-56.7 71,-37.7 8,-37.7"/>
<text text-anchor="start" x="11" y="-43.8" font-family="Helvetica,sans-Serif" font-size="11.00" fill="#000000">&lt; 1</text>
<polygon fill="#ffffff" stroke="transparent" points="71,-37.7 71,-56.7 136,-56.7 136,-37.7 71,-37.7"/>
<polygon fill="none" stroke="#000000" points="71,-37.7 71,-56.7 136,-56.7 136,-37.7 71,-37.7"/>
<text text-anchor="start" x="94.4956" y="-43.8" font-family="Helvetica,sans-Serif" font-size="11.00" fill="#000000">16 rows</text>
<polygon fill="#ffffff" stroke="transparent" points="136,-37.7 136,-56.7 178,-56.7 178,-37.7 136,-37.7"/>
<polygon fill="none" stroke="#000000" points="136,-37.7 136,-56.7 178,-56.7 178,-37.7 136,-37.7"/>
<text text-anchor="start" x="159.4053" y="-43.8" font-family="Helvetica,sans-Serif" font-size="11.00" fill="#000000">2 &gt;</text>
</a>
</g>
</g>
<!-- OBJECT_TYPE_DOCUMENT_TEMPLATE&#45;&gt;DOCUMENT_TEMPLATE -->
<g id="edge1" class="edge">
<title>OBJECT_TYPE_DOCUMENT_TEMPLATE:w&#45;&gt;DOCUMENT_TEMPLATE:e</title>
<path fill="none" stroke="#000000" d="M215.0156,-152.7C202.6771,-152.7 195.1667,-152.7 178,-152.7"/>
<polygon fill="#000000" stroke="#000000" points="221.5,-152.7001 229.5,-156.3 225.5,-152.7 229.5,-152.7 229.5,-152.7 229.5,-152.7 225.5,-152.7 229.5,-149.1 221.5,-152.7001 221.5,-152.7001"/>
<ellipse fill="none" stroke="#000000" cx="218.3" cy="-152.7001" rx="3.2" ry="3.2"/>
</g>
</g>
</svg>
