<?xml version="1.0" encoding="UTF-8" standalone="no"?>
<!DOCTYPE svg PUBLIC "-//W3C//DTD SVG 1.1//EN"
 "http://www.w3.org/Graphics/SVG/1.1/DTD/svg11.dtd">
<!-- Generated by graphviz version 2.40.1 (20161225.0304)
 -->
<!-- Title: oneDegreeRelationshipsDiagram Pages: 1 -->
<svg width="838pt" height="1024pt"
 viewBox="0.00 0.00 838.00 1024.20" xmlns="http://www.w3.org/2000/svg" xmlns:xlink="http://www.w3.org/1999/xlink">
<g id="graph0" class="graph" transform="scale(1 1) rotate(0) translate(4 1020.2)">
<title>oneDegreeRelationshipsDiagram</title>
<polygon fill="#ffffff" stroke="transparent" points="-4,4 -4,-1020.2 834,-1020.2 834,4 -4,4"/>
<text text-anchor="middle" x="72.4936" y="-7.3" font-family="Helvetica,sans-Serif" font-size="11.00" fill="#000000">Generated by SchemaSpy</text>
<!-- OFFENDER_MERGE_DETAILS -->
<g id="node1" class="node">
<title>OFFENDER_MERGE_DETAILS</title>
<g id="a_node1"><a xlink:href="../../tables/OFFENDER_MERGE_DETAILS.html" xlink:title="OFFENDER_MERGE_DETAILS" target="_top">
<polygon fill="#ffffff" stroke="transparent" points="275,-703.7 275,-991.7 540,-991.7 540,-703.7 275,-703.7"/>
<polygon fill="#f5f5f5" stroke="transparent" points="277.5,-966.7 277.5,-989.7 538.5,-989.7 538.5,-966.7 277.5,-966.7"/>
<polygon fill="none" stroke="#000000" points="277.5,-966.7 277.5,-989.7 538.5,-989.7 538.5,-966.7 277.5,-966.7"/>
<text text-anchor="start" x="282.5" y="-975.8" font-family="Helvetica,sans-Serif" font-weight="bold" font-size="11.00" fill="#000000">OFFENDER_MERGE_DETAILS</text>
<text text-anchor="start" x="503.5437" y="-974.8" font-family="Helvetica,sans-Serif" font-size="11.00" fill="#000000">[table]</text>
<polygon fill="none" stroke="#000000" points="277.5,-944.7 277.5,-966.7 465.5,-966.7 465.5,-944.7 277.5,-944.7"/>
<image xlink:href="../../images/primaryKeys.png" width="11px" height="12px" preserveAspectRatio="xMinYMin meet" x="282.5" y="-961.7"/>
<text text-anchor="start" x="290.9973" y="-951.8" font-family="Helvetica,sans-Serif" font-size="11.00" fill="#000000">OFFENDER_MERGE_DETAILS_ID</text>
<polygon fill="none" stroke="#000000" points="465.5,-944.7 465.5,-966.7 538.5,-966.7 538.5,-944.7 465.5,-944.7"/>
<text text-anchor="start" x="468.5" y="-952.4" font-family="Helvetica,sans-Serif" font-size="11.00" fill="#000000">number[38]</text>
<polygon fill="none" stroke="#000000" points="277.5,-922.7 277.5,-944.7 465.5,-944.7 465.5,-922.7 277.5,-922.7"/>
<text text-anchor="start" x="297.5" y="-929.8" font-family="Helvetica,sans-Serif" font-size="11.00" fill="#000000">HIERARCHY_LEVEL</text>
<polygon fill="none" stroke="#000000" points="465.5,-922.7 465.5,-944.7 538.5,-944.7 538.5,-922.7 465.5,-922.7"/>
<text text-anchor="start" x="468.5" y="-930.4" font-family="Helvetica,sans-Serif" font-size="11.00" fill="#000000">number[38]</text>
<polygon fill="none" stroke="#000000" points="277.5,-900.7 277.5,-922.7 465.5,-922.7 465.5,-900.7 277.5,-900.7"/>
<text text-anchor="start" x="297.5" y="-907.8" font-family="Helvetica,sans-Serif" font-size="11.00" fill="#000000">PARENT_TABLE</text>
<polygon fill="none" stroke="#000000" points="465.5,-900.7 465.5,-922.7 538.5,-922.7 538.5,-900.7 465.5,-900.7"/>
<text text-anchor="start" x="468.5" y="-908.4" font-family="Helvetica,sans-Serif" font-size="11.00" fill="#000000">varchar2[30]</text>
<polygon fill="none" stroke="#000000" points="277.5,-878.7 277.5,-900.7 465.5,-900.7 465.5,-878.7 277.5,-878.7"/>
<image xlink:href="../../images/primaryKeys.png" width="11px" height="12px" preserveAspectRatio="xMinYMin meet" x="282.5" y="-895.7"/>
<text text-anchor="start" x="297.5" y="-885.8" font-family="Helvetica,sans-Serif" font-size="11.00" fill="#000000">TABLE_NAME</text>
<polygon fill="none" stroke="#000000" points="465.5,-878.7 465.5,-900.7 538.5,-900.7 538.5,-878.7 465.5,-878.7"/>
<text text-anchor="start" x="468.5" y="-886.4" font-family="Helvetica,sans-Serif" font-size="11.00" fill="#000000">varchar2[30]</text>
<polygon fill="none" stroke="#000000" points="277.5,-856.7 277.5,-878.7 465.5,-878.7 465.5,-856.7 277.5,-856.7"/>
<image xlink:href="../../images/primaryKeys.png" width="11px" height="12px" preserveAspectRatio="xMinYMin meet" x="282.5" y="-873.7"/>
<text text-anchor="start" x="297.5" y="-863.8" font-family="Helvetica,sans-Serif" font-size="11.00" fill="#000000">SOURCE_OFFENDER_ID</text>
<polygon fill="none" stroke="#000000" points="465.5,-856.7 465.5,-878.7 538.5,-878.7 538.5,-856.7 465.5,-856.7"/>
<text text-anchor="start" x="468.5" y="-864.4" font-family="Helvetica,sans-Serif" font-size="11.00" fill="#000000">number[38]</text>
<polygon fill="none" stroke="#000000" points="277.5,-834.7 277.5,-856.7 465.5,-856.7 465.5,-834.7 277.5,-834.7"/>
<image xlink:href="../../images/primaryKeys.png" width="11px" height="12px" preserveAspectRatio="xMinYMin meet" x="282.5" y="-851.7"/>
<text text-anchor="start" x="297.5" y="-841.8" font-family="Helvetica,sans-Serif" font-size="11.00" fill="#000000">TARGET_OFFENDER_ID</text>
<polygon fill="none" stroke="#000000" points="465.5,-834.7 465.5,-856.7 538.5,-856.7 538.5,-834.7 465.5,-834.7"/>
<text text-anchor="start" x="468.5" y="-842.4" font-family="Helvetica,sans-Serif" font-size="11.00" fill="#000000">number[38]</text>
<polygon fill="none" stroke="#000000" points="277.5,-812.7 277.5,-834.7 465.5,-834.7 465.5,-812.7 277.5,-812.7"/>
<image xlink:href="../../images/primaryKeys.png" width="11px" height="12px" preserveAspectRatio="xMinYMin meet" x="282.5" y="-829.7"/>
<text text-anchor="start" x="297.5" y="-819.8" font-family="Helvetica,sans-Serif" font-size="11.00" fill="#000000">SOURCE_PK_VALUE</text>
<polygon fill="none" stroke="#000000" points="465.5,-812.7 465.5,-834.7 538.5,-834.7 538.5,-812.7 465.5,-812.7"/>
<text text-anchor="start" x="468.3791" y="-820.4" font-family="Helvetica,sans-Serif" font-size="11.00" fill="#000000">varchar2[100]</text>
<polygon fill="none" stroke="#000000" points="277.5,-790.7 277.5,-812.7 465.5,-812.7 465.5,-790.7 277.5,-790.7"/>
<image xlink:href="../../images/primaryKeys.png" width="11px" height="12px" preserveAspectRatio="xMinYMin meet" x="282.5" y="-807.7"/>
<text text-anchor="start" x="297.5" y="-797.8" font-family="Helvetica,sans-Serif" font-size="11.00" fill="#000000">TARGET_PK_VALUE</text>
<polygon fill="none" stroke="#000000" points="465.5,-790.7 465.5,-812.7 538.5,-812.7 538.5,-790.7 465.5,-790.7"/>
<text text-anchor="start" x="468.3791" y="-798.4" font-family="Helvetica,sans-Serif" font-size="11.00" fill="#000000">varchar2[100]</text>
<polygon fill="none" stroke="#000000" points="277.5,-768.7 277.5,-790.7 465.5,-790.7 465.5,-768.7 277.5,-768.7"/>
<image xlink:href="../../images/primaryKeys.png" width="11px" height="12px" preserveAspectRatio="xMinYMin meet" x="282.5" y="-785.7"/>
<text text-anchor="start" x="297.5" y="-775.8" font-family="Helvetica,sans-Serif" font-size="11.00" fill="#000000">SOURCE_FK_VALUE</text>
<polygon fill="none" stroke="#000000" points="465.5,-768.7 465.5,-790.7 538.5,-790.7 538.5,-768.7 465.5,-768.7"/>
<text text-anchor="start" x="468.3791" y="-776.4" font-family="Helvetica,sans-Serif" font-size="11.00" fill="#000000">varchar2[100]</text>
<polygon fill="none" stroke="#000000" points="277.5,-746.7 277.5,-768.7 465.5,-768.7 465.5,-746.7 277.5,-746.7"/>
<image xlink:href="../../images/primaryKeys.png" width="11px" height="12px" preserveAspectRatio="xMinYMin meet" x="282.5" y="-763.7"/>
<text text-anchor="start" x="297.5" y="-753.8" font-family="Helvetica,sans-Serif" font-size="11.00" fill="#000000">TARGET_FK_VALUE</text>
<polygon fill="none" stroke="#000000" points="465.5,-746.7 465.5,-768.7 538.5,-768.7 538.5,-746.7 465.5,-746.7"/>
<text text-anchor="start" x="468.3791" y="-754.4" font-family="Helvetica,sans-Serif" font-size="11.00" fill="#000000">varchar2[100]</text>
<polygon fill="none" stroke="#000000" points="277.5,-724.7 277.5,-746.7 465.5,-746.7 465.5,-724.7 277.5,-724.7"/>
<text text-anchor="start" x="297.5" y="-731.8" font-family="Helvetica,sans-Serif" font-size="11.00" fill="#000000">DEBUG_NOTES</text>
<polygon fill="none" stroke="#000000" points="465.5,-724.7 465.5,-746.7 538.5,-746.7 538.5,-724.7 465.5,-724.7"/>
<text text-anchor="start" x="468.5" y="-732.4" font-family="Helvetica,sans-Serif" font-size="11.00" fill="#000000">clob[4000]</text>
<polygon fill="#ffffff" stroke="transparent" points="277.5,-705.7 277.5,-724.7 359.5,-724.7 359.5,-705.7 277.5,-705.7"/>
<polygon fill="none" stroke="#000000" points="277.5,-705.7 277.5,-724.7 359.5,-724.7 359.5,-705.7 277.5,-705.7"/>
<text text-anchor="start" x="280.5" y="-711.8" font-family="Helvetica,sans-Serif" font-size="11.00" fill="#000000">&lt; 2</text>
<polygon fill="#ffffff" stroke="transparent" points="359.5,-705.7 359.5,-724.7 465.5,-724.7 465.5,-705.7 359.5,-705.7"/>
<polygon fill="none" stroke="#000000" points="359.5,-705.7 359.5,-724.7 465.5,-724.7 465.5,-705.7 359.5,-705.7"/>
<text text-anchor="start" x="423.9956" y="-711.8" font-family="Helvetica,sans-Serif" font-size="11.00" fill="#000000">10 rows</text>
<polygon fill="#ffffff" stroke="transparent" points="465.5,-705.7 465.5,-724.7 538.5,-724.7 538.5,-705.7 465.5,-705.7"/>
<polygon fill="none" stroke="#000000" points="465.5,-705.7 465.5,-724.7 538.5,-724.7 538.5,-705.7 465.5,-705.7"/>
<text text-anchor="start" x="519.9053" y="-711.8" font-family="Helvetica,sans-Serif" font-size="11.00" fill="#000000">1 &gt;</text>
<polygon fill="none" stroke="#000000" stroke-width="2" points="276,-704.7 276,-990.7 539,-990.7 539,-704.7 276,-704.7"/>
</a>
</g>
</g>
<!-- OFFENDER -->
<g id="node2" class="node">
<title>OFFENDER</title>
<g id="a_node2"><a xlink:href="../../tables/OFFENDER.html" xlink:title="OFFENDER" target="_top">
<polygon fill="#ffffff" stroke="transparent" points="8,-38.2 8,-891.2 226,-891.2 226,-38.2 8,-38.2"/>
<polygon fill="#f5f5f5" stroke="transparent" points="8,-867.7 8,-890.7 226,-890.7 226,-867.7 8,-867.7"/>
<polygon fill="none" stroke="#000000" points="8,-867.7 8,-890.7 226,-890.7 226,-867.7 8,-867.7"/>
<text text-anchor="start" x="13" y="-876.8" font-family="Helvetica,sans-Serif" font-weight="bold" font-size="11.00" fill="#000000">OFFENDER</text>
<text text-anchor="start" x="191.0437" y="-875.8" font-family="Helvetica,sans-Serif" font-size="11.00" fill="#000000">[table]</text>
<polygon fill="none" stroke="#000000" points="8,-845.7 8,-867.7 226,-867.7 226,-845.7 8,-845.7"/>
<image xlink:href="../../images/primaryKeys.png" width="11px" height="12px" preserveAspectRatio="xMinYMin meet" x="13" y="-862.7"/>
<text text-anchor="start" x="28" y="-852.8" font-family="Helvetica,sans-Serif" font-size="11.00" fill="#000000">OFFENDER_ID</text>
<polygon fill="none" stroke="#000000" points="8,-823.7 8,-845.7 226,-845.7 226,-823.7 8,-823.7"/>
<image xlink:href="../../images/primaryKeys.png" width="11px" height="12px" preserveAspectRatio="xMinYMin meet" x="13" y="-840.7"/>
<text text-anchor="start" x="28" y="-830.8" font-family="Helvetica,sans-Serif" font-size="11.00" fill="#000000">FIRST_NAME</text>
<polygon fill="none" stroke="#000000" points="8,-801.7 8,-823.7 226,-823.7 226,-801.7 8,-801.7"/>
<image xlink:href="../../images/primaryKeys.png" width="11px" height="12px" preserveAspectRatio="xMinYMin meet" x="13" y="-818.7"/>
<text text-anchor="start" x="28" y="-808.8" font-family="Helvetica,sans-Serif" font-size="11.00" fill="#000000">CRN</text>
<polygon fill="none" stroke="#000000" points="8,-779.7 8,-801.7 226,-801.7 226,-779.7 8,-779.7"/>
<image xlink:href="../../images/primaryKeys.png" width="11px" height="12px" preserveAspectRatio="xMinYMin meet" x="13" y="-796.7"/>
<text text-anchor="start" x="28" y="-786.8" font-family="Helvetica,sans-Serif" font-size="11.00" fill="#000000">SECOND_NAME</text>
<polygon fill="none" stroke="#000000" points="8,-757.7 8,-779.7 226,-779.7 226,-757.7 8,-757.7"/>
<image xlink:href="../../images/primaryKeys.png" width="11px" height="12px" preserveAspectRatio="xMinYMin meet" x="13" y="-774.7"/>
<text text-anchor="start" x="28" y="-764.8" font-family="Helvetica,sans-Serif" font-size="11.00" fill="#000000">PNC_NUMBER</text>
<polygon fill="none" stroke="#000000" points="8,-735.7 8,-757.7 226,-757.7 226,-735.7 8,-735.7"/>
<image xlink:href="../../images/primaryKeys.png" width="11px" height="12px" preserveAspectRatio="xMinYMin meet" x="13" y="-752.7"/>
<text text-anchor="start" x="28" y="-742.8" font-family="Helvetica,sans-Serif" font-size="11.00" fill="#000000">THIRD_NAME</text>
<polygon fill="none" stroke="#000000" points="8,-713.7 8,-735.7 226,-735.7 226,-713.7 8,-713.7"/>
<image xlink:href="../../images/primaryKeys.png" width="11px" height="12px" preserveAspectRatio="xMinYMin meet" x="13" y="-730.7"/>
<text text-anchor="start" x="28" y="-720.8" font-family="Helvetica,sans-Serif" font-size="11.00" fill="#000000">CRO_NUMBER</text>
<polygon fill="none" stroke="#000000" points="8,-691.7 8,-713.7 226,-713.7 226,-691.7 8,-691.7"/>
<image xlink:href="../../images/primaryKeys.png" width="11px" height="12px" preserveAspectRatio="xMinYMin meet" x="13" y="-708.7"/>
<text text-anchor="start" x="28" y="-698.8" font-family="Helvetica,sans-Serif" font-size="11.00" fill="#000000">SURNAME</text>
<polygon fill="none" stroke="#000000" points="8,-669.7 8,-691.7 226,-691.7 226,-669.7 8,-669.7"/>
<image xlink:href="../../images/primaryKeys.png" width="11px" height="12px" preserveAspectRatio="xMinYMin meet" x="13" y="-686.7"/>
<text text-anchor="start" x="28" y="-676.8" font-family="Helvetica,sans-Serif" font-size="11.00" fill="#000000">NOMS_NUMBER</text>
<polygon fill="none" stroke="#000000" points="8,-647.7 8,-669.7 226,-669.7 226,-647.7 8,-647.7"/>
<image xlink:href="../../images/primaryKeys.png" width="11px" height="12px" preserveAspectRatio="xMinYMin meet" x="13" y="-664.7"/>
<text text-anchor="start" x="28" y="-654.8" font-family="Helvetica,sans-Serif" font-size="11.00" fill="#000000">DATE_OF_BIRTH_DATE</text>
<polygon fill="none" stroke="#000000" points="8,-625.7 8,-647.7 226,-647.7 226,-625.7 8,-625.7"/>
<image xlink:href="../../images/primaryKeys.png" width="11px" height="12px" preserveAspectRatio="xMinYMin meet" x="13" y="-642.7"/>
<text text-anchor="start" x="28" y="-632.8" font-family="Helvetica,sans-Serif" font-size="11.00" fill="#000000">NI_NUMBER</text>
<polygon fill="none" stroke="#000000" points="8,-603.7 8,-625.7 226,-625.7 226,-603.7 8,-603.7"/>
<image xlink:href="../../images/primaryKeys.png" width="11px" height="12px" preserveAspectRatio="xMinYMin meet" x="13" y="-620.7"/>
<text text-anchor="start" x="28" y="-610.8" font-family="Helvetica,sans-Serif" font-size="11.00" fill="#000000">IMMIGRATION_NUMBER</text>
<polygon fill="none" stroke="#000000" points="8,-581.7 8,-603.7 226,-603.7 226,-581.7 8,-581.7"/>
<image xlink:href="../../images/primaryKeys.png" width="11px" height="12px" preserveAspectRatio="xMinYMin meet" x="13" y="-598.7"/>
<text text-anchor="start" x="28" y="-588.8" font-family="Helvetica,sans-Serif" font-size="11.00" fill="#000000">PARTITION_AREA_ID</text>
<polygon fill="none" stroke="#000000" points="8,-559.7 8,-581.7 226,-581.7 226,-559.7 8,-559.7"/>
<image xlink:href="../../images/primaryKeys.png" width="11px" height="12px" preserveAspectRatio="xMinYMin meet" x="13" y="-576.7"/>
<text text-anchor="start" x="28" y="-566.8" font-family="Helvetica,sans-Serif" font-size="11.00" fill="#000000">SOFT_DELETED</text>
<polygon fill="none" stroke="#000000" points="8,-537.7 8,-559.7 226,-559.7 226,-537.7 8,-537.7"/>
<image xlink:href="../../images/primaryKeys.png" width="11px" height="12px" preserveAspectRatio="xMinYMin meet" x="13" y="-554.7"/>
<text text-anchor="start" x="28" y="-544.8" font-family="Helvetica,sans-Serif" font-size="11.00" fill="#000000">TITLE_ID</text>
<polygon fill="none" stroke="#000000" points="8,-515.7 8,-537.7 226,-537.7 226,-515.7 8,-515.7"/>
<image xlink:href="../../images/primaryKeys.png" width="11px" height="12px" preserveAspectRatio="xMinYMin meet" x="13" y="-532.7"/>
<text text-anchor="start" x="28" y="-522.8" font-family="Helvetica,sans-Serif" font-size="11.00" fill="#000000">GENDER_ID</text>
<polygon fill="none" stroke="#000000" points="8,-493.7 8,-515.7 226,-515.7 226,-493.7 8,-493.7"/>
<image xlink:href="../../images/primaryKeys.png" width="11px" height="12px" preserveAspectRatio="xMinYMin meet" x="13" y="-510.7"/>
<text text-anchor="start" x="28" y="-500.8" font-family="Helvetica,sans-Serif" font-size="11.00" fill="#000000">ETHNICITY_ID</text>
<polygon fill="none" stroke="#000000" points="8,-471.7 8,-493.7 226,-493.7 226,-471.7 8,-471.7"/>
<image xlink:href="../../images/primaryKeys.png" width="11px" height="12px" preserveAspectRatio="xMinYMin meet" x="13" y="-488.7"/>
<text text-anchor="start" x="28" y="-478.8" font-family="Helvetica,sans-Serif" font-size="11.00" fill="#000000">NATIONALITY_ID</text>
<polygon fill="none" stroke="#000000" points="8,-449.7 8,-471.7 226,-471.7 226,-449.7 8,-449.7"/>
<image xlink:href="../../images/primaryKeys.png" width="11px" height="12px" preserveAspectRatio="xMinYMin meet" x="13" y="-466.7"/>
<text text-anchor="start" x="28" y="-456.8" font-family="Helvetica,sans-Serif" font-size="11.00" fill="#000000">IMMIGRATION_STATUS_ID</text>
<polygon fill="none" stroke="#000000" points="8,-427.7 8,-449.7 226,-449.7 226,-427.7 8,-427.7"/>
<image xlink:href="../../images/primaryKeys.png" width="11px" height="12px" preserveAspectRatio="xMinYMin meet" x="13" y="-444.7"/>
<text text-anchor="start" x="28" y="-434.8" font-family="Helvetica,sans-Serif" font-size="11.00" fill="#000000">LANGUAGE_ID</text>
<polygon fill="none" stroke="#000000" points="8,-405.7 8,-427.7 226,-427.7 226,-405.7 8,-405.7"/>
<image xlink:href="../../images/primaryKeys.png" width="11px" height="12px" preserveAspectRatio="xMinYMin meet" x="13" y="-422.7"/>
<text text-anchor="start" x="28" y="-412.8" font-family="Helvetica,sans-Serif" font-size="11.00" fill="#000000">RELIGION_ID</text>
<polygon fill="none" stroke="#000000" points="8,-383.7 8,-405.7 226,-405.7 226,-383.7 8,-383.7"/>
<image xlink:href="../../images/primaryKeys.png" width="11px" height="12px" preserveAspectRatio="xMinYMin meet" x="13" y="-400.7"/>
<text text-anchor="start" x="28" y="-390.8" font-family="Helvetica,sans-Serif" font-size="11.00" fill="#000000">SURNAME_SOUNDEX</text>
<polygon fill="none" stroke="#000000" points="8,-361.7 8,-383.7 226,-383.7 226,-361.7 8,-361.7"/>
<image xlink:href="../../images/primaryKeys.png" width="11px" height="12px" preserveAspectRatio="xMinYMin meet" x="13" y="-378.7"/>
<text text-anchor="start" x="28" y="-368.8" font-family="Helvetica,sans-Serif" font-size="11.00" fill="#000000">SECOND_NATIONALITY_ID</text>
<polygon fill="none" stroke="#000000" points="8,-339.7 8,-361.7 226,-361.7 226,-339.7 8,-339.7"/>
<image xlink:href="../../images/primaryKeys.png" width="11px" height="12px" preserveAspectRatio="xMinYMin meet" x="13" y="-356.7"/>
<text text-anchor="start" x="28" y="-346.8" font-family="Helvetica,sans-Serif" font-size="11.00" fill="#000000">SEXUAL_ORIENTATION_ID</text>
<polygon fill="none" stroke="#000000" points="8,-317.7 8,-339.7 226,-339.7 226,-317.7 8,-317.7"/>
<image xlink:href="../../images/primaryKeys.png" width="11px" height="12px" preserveAspectRatio="xMinYMin meet" x="13" y="-334.7"/>
<text text-anchor="start" x="28" y="-324.8" font-family="Helvetica,sans-Serif" font-size="11.00" fill="#000000">CURRENT_EXCLUSION</text>
<polygon fill="none" stroke="#000000" points="8,-295.7 8,-317.7 226,-317.7 226,-295.7 8,-295.7"/>
<image xlink:href="../../images/primaryKeys.png" width="11px" height="12px" preserveAspectRatio="xMinYMin meet" x="13" y="-312.7"/>
<text text-anchor="start" x="28" y="-302.8" font-family="Helvetica,sans-Serif" font-size="11.00" fill="#000000">TRAINING_SESSION_ID</text>
<polygon fill="none" stroke="#000000" points="8,-273.7 8,-295.7 226,-295.7 226,-273.7 8,-273.7"/>
<image xlink:href="../../images/primaryKeys.png" width="11px" height="12px" preserveAspectRatio="xMinYMin meet" x="13" y="-290.7"/>
<text text-anchor="start" x="28" y="-280.8" font-family="Helvetica,sans-Serif" font-size="11.00" fill="#000000">CURRENT_DISPOSAL</text>
<polygon fill="none" stroke="#000000" points="8,-251.7 8,-273.7 226,-273.7 226,-251.7 8,-251.7"/>
<image xlink:href="../../images/primaryKeys.png" width="11px" height="12px" preserveAspectRatio="xMinYMin meet" x="13" y="-268.7"/>
<text text-anchor="start" x="27.6433" y="-258.8" font-family="Helvetica,sans-Serif" font-size="11.00" fill="#000000">CURRENT_HIGHEST_RISK_COLOUR</text>
<polygon fill="none" stroke="#000000" points="8,-229.7 8,-251.7 226,-251.7 226,-229.7 8,-229.7"/>
<image xlink:href="../../images/primaryKeys.png" width="11px" height="12px" preserveAspectRatio="xMinYMin meet" x="13" y="-246.7"/>
<text text-anchor="start" x="28" y="-236.8" font-family="Helvetica,sans-Serif" font-size="11.00" fill="#000000">CURRENT_RESTRICTION</text>
<polygon fill="none" stroke="#000000" points="8,-207.7 8,-229.7 226,-229.7 226,-207.7 8,-207.7"/>
<image xlink:href="../../images/primaryKeys.png" width="11px" height="12px" preserveAspectRatio="xMinYMin meet" x="13" y="-224.7"/>
<text text-anchor="start" x="28" y="-214.8" font-family="Helvetica,sans-Serif" font-size="11.00" fill="#000000">INSTITUTION_ID</text>
<polygon fill="none" stroke="#000000" points="8,-185.7 8,-207.7 226,-207.7 226,-185.7 8,-185.7"/>
<image xlink:href="../../images/primaryKeys.png" width="11px" height="12px" preserveAspectRatio="xMinYMin meet" x="13" y="-202.7"/>
<text text-anchor="start" x="28" y="-192.8" font-family="Helvetica,sans-Serif" font-size="11.00" fill="#000000">ESTABLISHMENT</text>
<polygon fill="none" stroke="#000000" points="8,-163.7 8,-185.7 226,-185.7 226,-163.7 8,-163.7"/>
<image xlink:href="../../images/primaryKeys.png" width="11px" height="12px" preserveAspectRatio="xMinYMin meet" x="13" y="-180.7"/>
<text text-anchor="start" x="28" y="-170.8" font-family="Helvetica,sans-Serif" font-size="11.00" fill="#000000">CURRENT_TIER</text>
<polygon fill="none" stroke="#000000" points="8,-141.7 8,-163.7 226,-163.7 226,-141.7 8,-141.7"/>
<image xlink:href="../../images/primaryKeys.png" width="11px" height="12px" preserveAspectRatio="xMinYMin meet" x="13" y="-158.7"/>
<text text-anchor="start" x="28" y="-148.8" font-family="Helvetica,sans-Serif" font-size="11.00" fill="#000000">OM_ALLOCATION_DECISION_ID</text>
<polygon fill="none" stroke="#000000" points="8,-119.7 8,-141.7 226,-141.7 226,-119.7 8,-119.7"/>
<image xlink:href="../../images/primaryKeys.png" width="11px" height="12px" preserveAspectRatio="xMinYMin meet" x="13" y="-136.7"/>
<text text-anchor="start" x="28" y="-126.8" font-family="Helvetica,sans-Serif" font-size="11.00" fill="#000000">TRANSGENDER_PROCESS_ID</text>
<polygon fill="none" stroke="#000000" points="8,-97.7 8,-119.7 226,-119.7 226,-97.7 8,-97.7"/>
<image xlink:href="../../images/primaryKeys.png" width="11px" height="12px" preserveAspectRatio="xMinYMin meet" x="13" y="-114.7"/>
<text text-anchor="start" x="28" y="-104.8" font-family="Helvetica,sans-Serif" font-size="11.00" fill="#000000">PREFERRED_NAME</text>
<polygon fill="none" stroke="#000000" points="8,-75.7 8,-97.7 226,-97.7 226,-75.7 8,-75.7"/>
<image xlink:href="../../images/primaryKeys.png" width="11px" height="12px" preserveAspectRatio="xMinYMin meet" x="13" y="-92.7"/>
<text text-anchor="start" x="28" y="-82.8" font-family="Helvetica,sans-Serif" font-size="11.00" fill="#000000">GENDER_IDENTITY_ID</text>
<polygon fill="none" stroke="#000000" points="8,-56.7 8,-75.7 226,-75.7 226,-56.7 8,-56.7"/>
<text text-anchor="start" x="11" y="-62.8" font-family="Helvetica,sans-Serif" font-size="11.00" fill="#000000">...</text>
<polygon fill="#ffffff" stroke="transparent" points="8,-37.7 8,-56.7 84,-56.7 84,-37.7 8,-37.7"/>
<polygon fill="none" stroke="#000000" points="8,-37.7 8,-56.7 84,-56.7 84,-37.7 8,-37.7"/>
<text text-anchor="start" x="11" y="-43.8" font-family="Helvetica,sans-Serif" font-size="11.00" fill="#000000">&lt; 16</text>
<polygon fill="#ffffff" stroke="transparent" points="84,-37.7 84,-56.7 174,-56.7 174,-37.7 84,-37.7"/>
<polygon fill="none" stroke="#000000" points="84,-37.7 84,-56.7 174,-56.7 174,-37.7 84,-37.7"/>
<text text-anchor="start" x="111.094" y="-43.8" font-family="Helvetica,sans-Serif" font-size="11.00" fill="#000000">18,527 rows</text>
<polygon fill="#ffffff" stroke="transparent" points="174,-37.7 174,-56.7 226,-56.7 226,-37.7 174,-37.7"/>
<polygon fill="none" stroke="#000000" points="174,-37.7 174,-56.7 226,-56.7 226,-37.7 174,-37.7"/>
<text text-anchor="start" x="201.2904" y="-43.8" font-family="Helvetica,sans-Serif" font-size="11.00" fill="#000000">95 &gt;</text>
</a>
</g>
</g>
<!-- OFFENDER_MERGE_DETAILS&#45;&gt;OFFENDER -->
<g id="edge1" class="edge">
<title>OFFENDER_MERGE_DETAILS:w&#45;&gt;OFFENDER:e</title>
<path fill="none" stroke="#000000" d="M262.8704,-865.9813C250.5803,-862.8875 243.5539,-856.7 226,-856.7"/>
<polygon fill="#000000" stroke="#000000" points="269.5546,-866.7665 277.0799,-871.2754 273.5273,-867.2332 277.5,-867.7 277.5,-867.7 277.5,-867.7 273.5273,-867.2332 277.9201,-864.1246 269.5546,-866.7665 269.5546,-866.7665"/>
<ellipse fill="none" stroke="#000000" cx="266.3765" cy="-866.3931" rx="3.2" ry="3.2"/>
</g>
<!-- OFFENDER_MERGE_DETAILS&#45;&gt;OFFENDER -->
<g id="edge2" class="edge">
<title>OFFENDER_MERGE_DETAILS:w&#45;&gt;OFFENDER:e</title>
<path fill="none" stroke="#000000" d="M262.8704,-847.4188C250.5803,-850.5125 243.5539,-856.7 226,-856.7"/>
<polygon fill="#000000" stroke="#000000" points="269.5546,-846.6335 277.9201,-849.2754 273.5273,-846.1668 277.5,-845.7 277.5,-845.7 277.5,-845.7 273.5273,-846.1668 277.0799,-842.1246 269.5546,-846.6335 269.5546,-846.6335"/>
<ellipse fill="none" stroke="#000000" cx="266.3765" cy="-847.0069" rx="3.2" ry="3.2"/>
</g>
<!-- OFFENDER_MERGE_DETAILS_HIST -->
<g id="node3" class="node">
<title>OFFENDER_MERGE_DETAILS_HIST</title>
<g id="a_node3"><a xlink:href="../../tables/OFFENDER_MERGE_DETAILS_HIST.html" xlink:title="OFFENDER_MERGE_DETAILS_HIST" target="_top">
<polygon fill="#ffffff" stroke="transparent" points="589,-863.2 589,-1012.2 822,-1012.2 822,-863.2 589,-863.2"/>
<polygon fill="#f5f5f5" stroke="transparent" points="589.5,-988.7 589.5,-1011.7 822.5,-1011.7 822.5,-988.7 589.5,-988.7"/>
<polygon fill="none" stroke="#000000" points="589.5,-988.7 589.5,-1011.7 822.5,-1011.7 822.5,-988.7 589.5,-988.7"/>
<text text-anchor="start" x="594.4694" y="-997.8" font-family="Helvetica,sans-Serif" font-weight="bold" font-size="11.00" fill="#000000">OFFENDER_MERGE_DETAILS_HIST</text>
<text text-anchor="start" x="788.0219" y="-996.8" font-family="Helvetica,sans-Serif" font-size="11.00" fill="#000000">[table]</text>
<polygon fill="none" stroke="#000000" points="589.5,-966.7 589.5,-988.7 822.5,-988.7 822.5,-966.7 589.5,-966.7"/>
<image xlink:href="../../images/primaryKeys.png" width="11px" height="12px" preserveAspectRatio="xMinYMin meet" x="594.5" y="-983.7"/>
<text text-anchor="start" x="609.913" y="-973.8" font-family="Helvetica,sans-Serif" font-size="11.00" fill="#000000">OFFENDER_MERGE_DETAILS_HIST_ID</text>
<polygon fill="none" stroke="#000000" points="589.5,-944.7 589.5,-966.7 822.5,-966.7 822.5,-944.7 589.5,-944.7"/>
<image xlink:href="../../images/primaryKeys.png" width="11px" height="12px" preserveAspectRatio="xMinYMin meet" x="594.5" y="-961.7"/>
<text text-anchor="start" x="616.5" y="-951.8" font-family="Helvetica,sans-Serif" font-size="11.00" fill="#000000">OFFENDER_MERGE_DETAILS_ID</text>
<polygon fill="none" stroke="#000000" points="589.5,-922.7 589.5,-944.7 822.5,-944.7 822.5,-922.7 589.5,-922.7"/>
<image xlink:href="../../images/primaryKeys.png" width="11px" height="12px" preserveAspectRatio="xMinYMin meet" x="594.5" y="-939.7"/>
<text text-anchor="start" x="616.5" y="-929.8" font-family="Helvetica,sans-Serif" font-size="11.00" fill="#000000">COLUMN_NAME</text>
<polygon fill="none" stroke="#000000" points="589.5,-900.7 589.5,-922.7 822.5,-922.7 822.5,-900.7 589.5,-900.7"/>
<image xlink:href="../../images/primaryKeys.png" width="11px" height="12px" preserveAspectRatio="xMinYMin meet" x="594.5" y="-917.7"/>
<text text-anchor="start" x="616.5" y="-907.8" font-family="Helvetica,sans-Serif" font-size="11.00" fill="#000000">TABLE_PK_VALUE</text>
<polygon fill="none" stroke="#000000" points="589.5,-881.7 589.5,-900.7 822.5,-900.7 822.5,-881.7 589.5,-881.7"/>
<text text-anchor="start" x="592.5" y="-887.8" font-family="Helvetica,sans-Serif" font-size="11.00" fill="#000000">...</text>
<polygon fill="#ffffff" stroke="transparent" points="589.5,-862.7 589.5,-881.7 688.5,-881.7 688.5,-862.7 589.5,-862.7"/>
<polygon fill="none" stroke="#000000" points="589.5,-862.7 589.5,-881.7 688.5,-881.7 688.5,-862.7 589.5,-862.7"/>
<text text-anchor="start" x="592.5" y="-868.8" font-family="Helvetica,sans-Serif" font-size="11.00" fill="#000000">&lt; 1</text>
<polygon fill="#ffffff" stroke="transparent" points="688.5,-862.7 688.5,-881.7 771.5,-881.7 771.5,-862.7 688.5,-862.7"/>
<polygon fill="none" stroke="#000000" points="688.5,-862.7 688.5,-881.7 771.5,-881.7 771.5,-862.7 688.5,-862.7"/>
<text text-anchor="start" x="729.9956" y="-868.8" font-family="Helvetica,sans-Serif" font-size="11.00" fill="#000000">14 rows</text>
<polygon fill="#ffffff" stroke="transparent" points="771.5,-862.7 771.5,-881.7 822.5,-881.7 822.5,-862.7 771.5,-862.7"/>
<polygon fill="none" stroke="#000000" points="771.5,-862.7 771.5,-881.7 822.5,-881.7 822.5,-862.7 771.5,-862.7"/>
<text text-anchor="start" x="813.3862" y="-868.8" font-family="Helvetica,sans-Serif" font-size="11.00" fill="#000000"> &#160;</text>
</a>
</g>
</g>
<!-- OFFENDER_MERGE_DETAILS_HIST&#45;&gt;OFFENDER_MERGE_DETAILS -->
<g id="edge3" class="edge">
<title>OFFENDER_MERGE_DETAILS_HIST:w&#45;&gt;OFFENDER_MERGE_DETAILS:e</title>
<path fill="none" stroke="#000000" d="M574.776,-955.7C562.7815,-955.7 555.3229,-955.7 538.5,-955.7"/>
<polygon fill="#000000" stroke="#000000" points="581.5,-955.7001 589.5,-959.3 585.5,-955.7 589.5,-955.7 589.5,-955.7 589.5,-955.7 585.5,-955.7 589.5,-952.1 581.5,-955.7001 581.5,-955.7001"/>
<ellipse fill="none" stroke="#000000" cx="578.3" cy="-955.7001" rx="3.2" ry="3.2"/>
</g>
</g>
</svg>
