<?xml version="1.0" encoding="UTF-8" standalone="no"?>
<!DOCTYPE svg PUBLIC "-//W3C//DTD SVG 1.1//EN"
 "http://www.w3.org/Graphics/SVG/1.1/DTD/svg11.dtd">
<!-- Generated by graphviz version 2.40.1 (20161225.0304)
 -->
<!-- Title: oneDegreeRelationshipsDiagram Pages: 1 -->
<svg width="791pt" height="1271pt"
 viewBox="0.00 0.00 791.00 1271.20" xmlns="http://www.w3.org/2000/svg" xmlns:xlink="http://www.w3.org/1999/xlink">
<g id="graph0" class="graph" transform="scale(1 1) rotate(0) translate(4 1267.2)">
<title>oneDegreeRelationshipsDiagram</title>
<polygon fill="#ffffff" stroke="transparent" points="-4,4 -4,-1267.2 787,-1267.2 787,4 -4,4"/>
<text text-anchor="middle" x="72.4936" y="-7.3" font-family="Helvetica,sans-Serif" font-size="11.00" fill="#000000">Generated by SchemaSpy</text>
<!-- OFFENDER_CRC_EXPORT -->
<g id="node1" class="node">
<title>OFFENDER_CRC_EXPORT</title>
<g id="a_node1"><a xlink:href="../../tables/OFFENDER_CRC_EXPORT.html" xlink:title="OFFENDER_CRC_EXPORT" target="_top">
<polygon fill="#ffffff" stroke="transparent" points="522,-428.7 522,-848.7 775,-848.7 775,-428.7 522,-428.7"/>
<polygon fill="#f5f5f5" stroke="transparent" points="524.5,-823.7 524.5,-846.7 773.5,-846.7 773.5,-823.7 524.5,-823.7"/>
<polygon fill="none" stroke="#000000" points="524.5,-823.7 524.5,-846.7 773.5,-846.7 773.5,-823.7 524.5,-823.7"/>
<text text-anchor="start" x="529.5" y="-832.8" font-family="Helvetica,sans-Serif" font-weight="bold" font-size="11.00" fill="#000000">OFFENDER_CRC_EXPORT</text>
<text text-anchor="start" x="738.5437" y="-831.8" font-family="Helvetica,sans-Serif" font-size="11.00" fill="#000000">[table]</text>
<polygon fill="none" stroke="#000000" points="524.5,-801.7 524.5,-823.7 694.5,-823.7 694.5,-801.7 524.5,-801.7"/>
<image xlink:href="../../images/primaryKeys.png" width="11px" height="12px" preserveAspectRatio="xMinYMin meet" x="529.5" y="-818.7"/>
<text text-anchor="start" x="537.5591" y="-808.8" font-family="Helvetica,sans-Serif" font-size="11.00" fill="#000000">OFFENDER_CRC_EXPORT_ID</text>
<polygon fill="none" stroke="#000000" points="694.5,-801.7 694.5,-823.7 773.5,-823.7 773.5,-801.7 694.5,-801.7"/>
<text text-anchor="start" x="697.5" y="-809.4" font-family="Helvetica,sans-Serif" font-size="11.00" fill="#000000">number[38]</text>
<polygon fill="none" stroke="#000000" points="524.5,-779.7 524.5,-801.7 694.5,-801.7 694.5,-779.7 524.5,-779.7"/>
<image xlink:href="../../images/primaryKeys.png" width="11px" height="12px" preserveAspectRatio="xMinYMin meet" x="529.5" y="-796.7"/>
<text text-anchor="start" x="544.5" y="-786.8" font-family="Helvetica,sans-Serif" font-size="11.00" fill="#000000">OFFENDER_ID</text>
<polygon fill="none" stroke="#000000" points="694.5,-779.7 694.5,-801.7 773.5,-801.7 773.5,-779.7 694.5,-779.7"/>
<text text-anchor="start" x="697.5" y="-787.4" font-family="Helvetica,sans-Serif" font-size="11.00" fill="#000000">number[38]</text>
<polygon fill="none" stroke="#000000" points="524.5,-757.7 524.5,-779.7 694.5,-779.7 694.5,-757.7 524.5,-757.7"/>
<image xlink:href="../../images/primaryKeys.png" width="11px" height="12px" preserveAspectRatio="xMinYMin meet" x="529.5" y="-774.7"/>
<text text-anchor="start" x="544.5" y="-764.8" font-family="Helvetica,sans-Serif" font-size="11.00" fill="#000000">CRC_PROVIDER_ID</text>
<polygon fill="none" stroke="#000000" points="694.5,-757.7 694.5,-779.7 773.5,-779.7 773.5,-757.7 694.5,-757.7"/>
<text text-anchor="start" x="697.5" y="-765.4" font-family="Helvetica,sans-Serif" font-size="11.00" fill="#000000">number[38]</text>
<polygon fill="none" stroke="#000000" points="524.5,-735.7 524.5,-757.7 694.5,-757.7 694.5,-735.7 524.5,-735.7"/>
<text text-anchor="start" x="544.5" y="-742.8" font-family="Helvetica,sans-Serif" font-size="11.00" fill="#000000">EXPORT_DATE</text>
<polygon fill="none" stroke="#000000" points="694.5,-735.7 694.5,-757.7 773.5,-757.7 773.5,-735.7 694.5,-735.7"/>
<text text-anchor="start" x="697.5" y="-743.4" font-family="Helvetica,sans-Serif" font-size="11.00" fill="#000000">date[7]</text>
<polygon fill="none" stroke="#000000" points="524.5,-713.7 524.5,-735.7 694.5,-735.7 694.5,-713.7 524.5,-713.7"/>
<text text-anchor="start" x="544.5" y="-720.8" font-family="Helvetica,sans-Serif" font-size="11.00" fill="#000000">ROW_VERSION</text>
<polygon fill="none" stroke="#000000" points="694.5,-713.7 694.5,-735.7 773.5,-735.7 773.5,-713.7 694.5,-713.7"/>
<text text-anchor="start" x="697.5" y="-721.4" font-family="Helvetica,sans-Serif" font-size="11.00" fill="#000000">number[38]</text>
<polygon fill="none" stroke="#000000" points="524.5,-691.7 524.5,-713.7 694.5,-713.7 694.5,-691.7 524.5,-691.7"/>
<text text-anchor="start" x="544.5" y="-698.8" font-family="Helvetica,sans-Serif" font-size="11.00" fill="#000000">CREATED_BY_USER_ID</text>
<polygon fill="none" stroke="#000000" points="694.5,-691.7 694.5,-713.7 773.5,-713.7 773.5,-691.7 694.5,-691.7"/>
<text text-anchor="start" x="697.5" y="-699.4" font-family="Helvetica,sans-Serif" font-size="11.00" fill="#000000">number[38]</text>
<polygon fill="none" stroke="#000000" points="524.5,-669.7 524.5,-691.7 694.5,-691.7 694.5,-669.7 524.5,-669.7"/>
<text text-anchor="start" x="544.5" y="-676.8" font-family="Helvetica,sans-Serif" font-size="11.00" fill="#000000">CREATED_DATETIME</text>
<polygon fill="none" stroke="#000000" points="694.5,-669.7 694.5,-691.7 773.5,-691.7 773.5,-669.7 694.5,-669.7"/>
<text text-anchor="start" x="697.5" y="-677.4" font-family="Helvetica,sans-Serif" font-size="11.00" fill="#000000">date[7]</text>
<polygon fill="none" stroke="#000000" points="524.5,-647.7 524.5,-669.7 694.5,-669.7 694.5,-647.7 524.5,-647.7"/>
<text text-anchor="start" x="544.5" y="-654.8" font-family="Helvetica,sans-Serif" font-size="11.00" fill="#000000">LAST_UPDATED_USER_ID</text>
<polygon fill="none" stroke="#000000" points="694.5,-647.7 694.5,-669.7 773.5,-669.7 773.5,-647.7 694.5,-647.7"/>
<text text-anchor="start" x="697.5" y="-655.4" font-family="Helvetica,sans-Serif" font-size="11.00" fill="#000000">number[38]</text>
<polygon fill="none" stroke="#000000" points="524.5,-625.7 524.5,-647.7 694.5,-647.7 694.5,-625.7 524.5,-625.7"/>
<text text-anchor="start" x="543.0531" y="-632.8" font-family="Helvetica,sans-Serif" font-size="11.00" fill="#000000">LAST_UPDATED_DATETIME</text>
<polygon fill="none" stroke="#000000" points="694.5,-625.7 694.5,-647.7 773.5,-647.7 773.5,-625.7 694.5,-625.7"/>
<text text-anchor="start" x="697.5" y="-633.4" font-family="Helvetica,sans-Serif" font-size="11.00" fill="#000000">date[7]</text>
<polygon fill="none" stroke="#000000" points="524.5,-603.7 524.5,-625.7 694.5,-625.7 694.5,-603.7 524.5,-603.7"/>
<text text-anchor="start" x="536.9321" y="-610.8" font-family="Helvetica,sans-Serif" font-size="11.00" fill="#000000">REQUESTED_EXPORT_LEVEL</text>
<polygon fill="none" stroke="#000000" points="694.5,-603.7 694.5,-625.7 773.5,-625.7 773.5,-603.7 694.5,-603.7"/>
<text text-anchor="start" x="697.5" y="-611.4" font-family="Helvetica,sans-Serif" font-size="11.00" fill="#000000">number[38]</text>
<polygon fill="none" stroke="#000000" points="524.5,-581.7 524.5,-603.7 694.5,-603.7 694.5,-581.7 524.5,-581.7"/>
<text text-anchor="start" x="544.5" y="-588.8" font-family="Helvetica,sans-Serif" font-size="11.00" fill="#000000">ERROR_FLAG</text>
<polygon fill="none" stroke="#000000" points="694.5,-581.7 694.5,-603.7 773.5,-603.7 773.5,-581.7 694.5,-581.7"/>
<text text-anchor="start" x="697.5" y="-589.4" font-family="Helvetica,sans-Serif" font-size="11.00" fill="#000000">number[38]</text>
<polygon fill="none" stroke="#000000" points="524.5,-559.7 524.5,-581.7 694.5,-581.7 694.5,-559.7 524.5,-559.7"/>
<text text-anchor="start" x="544.5" y="-566.8" font-family="Helvetica,sans-Serif" font-size="11.00" fill="#000000">SUBMITTED_DATETIME</text>
<polygon fill="none" stroke="#000000" points="694.5,-559.7 694.5,-581.7 773.5,-581.7 773.5,-559.7 694.5,-559.7"/>
<text text-anchor="start" x="697.5" y="-567.4" font-family="Helvetica,sans-Serif" font-size="11.00" fill="#000000">date[7]</text>
<polygon fill="none" stroke="#000000" points="524.5,-537.7 524.5,-559.7 694.5,-559.7 694.5,-537.7 524.5,-537.7"/>
<text text-anchor="start" x="544.5" y="-544.8" font-family="Helvetica,sans-Serif" font-size="11.00" fill="#000000">PROCESSED_DATETIME</text>
<polygon fill="none" stroke="#000000" points="694.5,-537.7 694.5,-559.7 773.5,-559.7 773.5,-537.7 694.5,-537.7"/>
<text text-anchor="start" x="697.5" y="-545.4" font-family="Helvetica,sans-Serif" font-size="11.00" fill="#000000">date[7]</text>
<polygon fill="none" stroke="#000000" points="524.5,-515.7 524.5,-537.7 694.5,-537.7 694.5,-515.7 524.5,-515.7"/>
<text text-anchor="start" x="544.5" y="-522.8" font-family="Helvetica,sans-Serif" font-size="11.00" fill="#000000">ERROR_MESSAGE</text>
<polygon fill="none" stroke="#000000" points="694.5,-515.7 694.5,-537.7 773.5,-537.7 773.5,-515.7 694.5,-515.7"/>
<text text-anchor="start" x="697.3216" y="-523.4" font-family="Helvetica,sans-Serif" font-size="11.00" fill="#000000">varchar2[4000]</text>
<polygon fill="none" stroke="#000000" points="524.5,-493.7 524.5,-515.7 694.5,-515.7 694.5,-493.7 524.5,-493.7"/>
<image xlink:href="../../images/primaryKeys.png" width="11px" height="12px" preserveAspectRatio="xMinYMin meet" x="529.5" y="-510.7"/>
<text text-anchor="start" x="544.5" y="-500.8" font-family="Helvetica,sans-Serif" font-size="11.00" fill="#000000">SPG_NOTIFICATION_ID</text>
<polygon fill="none" stroke="#000000" points="694.5,-493.7 694.5,-515.7 773.5,-515.7 773.5,-493.7 694.5,-493.7"/>
<text text-anchor="start" x="697.5" y="-501.4" font-family="Helvetica,sans-Serif" font-size="11.00" fill="#000000">number[38]</text>
<polygon fill="none" stroke="#000000" points="524.5,-471.7 524.5,-493.7 694.5,-493.7 694.5,-471.7 524.5,-471.7"/>
<text text-anchor="start" x="544.5" y="-478.8" font-family="Helvetica,sans-Serif" font-size="11.00" fill="#000000">CURRENT_RECORD_FLAG</text>
<polygon fill="none" stroke="#000000" points="694.5,-471.7 694.5,-493.7 773.5,-493.7 773.5,-471.7 694.5,-471.7"/>
<text text-anchor="start" x="697.5" y="-479.4" font-family="Helvetica,sans-Serif" font-size="11.00" fill="#000000">varchar2[1]</text>
<polygon fill="none" stroke="#000000" points="524.5,-449.7 524.5,-471.7 694.5,-471.7 694.5,-449.7 524.5,-449.7"/>
<text text-anchor="start" x="544.5" y="-456.8" font-family="Helvetica,sans-Serif" font-size="11.00" fill="#000000">BATCH_FLAG</text>
<polygon fill="none" stroke="#000000" points="694.5,-449.7 694.5,-471.7 773.5,-471.7 773.5,-449.7 694.5,-449.7"/>
<text text-anchor="start" x="697.5" y="-457.4" font-family="Helvetica,sans-Serif" font-size="11.00" fill="#000000">number[38]</text>
<polygon fill="#ffffff" stroke="transparent" points="524.5,-430.7 524.5,-449.7 594.5,-449.7 594.5,-430.7 524.5,-430.7"/>
<polygon fill="none" stroke="#000000" points="524.5,-430.7 524.5,-449.7 594.5,-449.7 594.5,-430.7 524.5,-430.7"/>
<text text-anchor="start" x="527.5" y="-436.8" font-family="Helvetica,sans-Serif" font-size="11.00" fill="#000000">&lt; 3</text>
<polygon fill="#ffffff" stroke="transparent" points="594.5,-430.7 594.5,-449.7 694.5,-449.7 694.5,-430.7 594.5,-430.7"/>
<polygon fill="none" stroke="#000000" points="594.5,-430.7 594.5,-449.7 694.5,-449.7 694.5,-430.7 594.5,-430.7"/>
<text text-anchor="start" x="646.8807" y="-436.8" font-family="Helvetica,sans-Serif" font-size="11.00" fill="#000000">983 rows</text>
<polygon fill="#ffffff" stroke="transparent" points="694.5,-430.7 694.5,-449.7 773.5,-449.7 773.5,-430.7 694.5,-430.7"/>
<polygon fill="none" stroke="#000000" points="694.5,-430.7 694.5,-449.7 773.5,-449.7 773.5,-430.7 694.5,-430.7"/>
<text text-anchor="start" x="754.9053" y="-436.8" font-family="Helvetica,sans-Serif" font-size="11.00" fill="#000000">0 &gt;</text>
<polygon fill="none" stroke="#000000" stroke-width="2" points="523,-429.7 523,-847.7 774,-847.7 774,-429.7 523,-429.7"/>
</a>
</g>
</g>
<!-- PROBATION_AREA -->
<g id="node2" class="node">
<title>PROBATION_AREA</title>
<g id="a_node2"><a xlink:href="../../tables/PROBATION_AREA.html" xlink:title="PROBATION_AREA" target="_top">
<polygon fill="#ffffff" stroke="transparent" points="11,-38.2 11,-385.2 223,-385.2 223,-38.2 11,-38.2"/>
<polygon fill="#f5f5f5" stroke="transparent" points="11,-361.7 11,-384.7 223,-384.7 223,-361.7 11,-361.7"/>
<polygon fill="none" stroke="#000000" points="11,-361.7 11,-384.7 223,-384.7 223,-361.7 11,-361.7"/>
<text text-anchor="start" x="16" y="-370.8" font-family="Helvetica,sans-Serif" font-weight="bold" font-size="11.00" fill="#000000">PROBATION_AREA</text>
<text text-anchor="start" x="188.0437" y="-369.8" font-family="Helvetica,sans-Serif" font-size="11.00" fill="#000000">[table]</text>
<polygon fill="none" stroke="#000000" points="11,-339.7 11,-361.7 223,-361.7 223,-339.7 11,-339.7"/>
<image xlink:href="../../images/primaryKeys.png" width="11px" height="12px" preserveAspectRatio="xMinYMin meet" x="16" y="-356.7"/>
<text text-anchor="start" x="31" y="-346.8" font-family="Helvetica,sans-Serif" font-size="11.00" fill="#000000">PROBATION_AREA_ID</text>
<polygon fill="none" stroke="#000000" points="11,-317.7 11,-339.7 223,-339.7 223,-317.7 11,-317.7"/>
<image xlink:href="../../images/primaryKeys.png" width="11px" height="12px" preserveAspectRatio="xMinYMin meet" x="16" y="-334.7"/>
<text text-anchor="start" x="31" y="-324.8" font-family="Helvetica,sans-Serif" font-size="11.00" fill="#000000">CODE</text>
<polygon fill="none" stroke="#000000" points="11,-295.7 11,-317.7 223,-317.7 223,-295.7 11,-295.7"/>
<image xlink:href="../../images/primaryKeys.png" width="11px" height="12px" preserveAspectRatio="xMinYMin meet" x="16" y="-312.7"/>
<text text-anchor="start" x="31" y="-302.8" font-family="Helvetica,sans-Serif" font-size="11.00" fill="#000000">FORM_20_CODE</text>
<polygon fill="none" stroke="#000000" points="11,-273.7 11,-295.7 223,-295.7 223,-273.7 11,-273.7"/>
<image xlink:href="../../images/primaryKeys.png" width="11px" height="12px" preserveAspectRatio="xMinYMin meet" x="16" y="-290.7"/>
<text text-anchor="start" x="31" y="-280.8" font-family="Helvetica,sans-Serif" font-size="11.00" fill="#000000">HO_AREA_CODE</text>
<polygon fill="none" stroke="#000000" points="11,-251.7 11,-273.7 223,-273.7 223,-251.7 11,-251.7"/>
<image xlink:href="../../images/primaryKeys.png" width="11px" height="12px" preserveAspectRatio="xMinYMin meet" x="16" y="-268.7"/>
<text text-anchor="start" x="31" y="-258.8" font-family="Helvetica,sans-Serif" font-size="11.00" fill="#000000">TRAINING_SESSION_ID</text>
<polygon fill="none" stroke="#000000" points="11,-229.7 11,-251.7 223,-251.7 223,-229.7 11,-229.7"/>
<image xlink:href="../../images/primaryKeys.png" width="11px" height="12px" preserveAspectRatio="xMinYMin meet" x="16" y="-246.7"/>
<text text-anchor="start" x="31" y="-236.8" font-family="Helvetica,sans-Serif" font-size="11.00" fill="#000000">ORGANISATION_ID</text>
<polygon fill="none" stroke="#000000" points="11,-207.7 11,-229.7 223,-229.7 223,-207.7 11,-207.7"/>
<image xlink:href="../../images/primaryKeys.png" width="11px" height="12px" preserveAspectRatio="xMinYMin meet" x="16" y="-224.7"/>
<text text-anchor="start" x="31" y="-214.8" font-family="Helvetica,sans-Serif" font-size="11.00" fill="#000000">ADDRESS_ID</text>
<polygon fill="none" stroke="#000000" points="11,-185.7 11,-207.7 223,-207.7 223,-185.7 11,-185.7"/>
<image xlink:href="../../images/primaryKeys.png" width="11px" height="12px" preserveAspectRatio="xMinYMin meet" x="16" y="-202.7"/>
<text text-anchor="start" x="31" y="-192.8" font-family="Helvetica,sans-Serif" font-size="11.00" fill="#000000">SPG_ACTIVE_ID</text>
<polygon fill="none" stroke="#000000" points="11,-163.7 11,-185.7 223,-185.7 223,-163.7 11,-163.7"/>
<image xlink:href="../../images/primaryKeys.png" width="11px" height="12px" preserveAspectRatio="xMinYMin meet" x="16" y="-180.7"/>
<text text-anchor="start" x="31" y="-170.8" font-family="Helvetica,sans-Serif" font-size="11.00" fill="#000000">INSTITUTION_ID</text>
<polygon fill="none" stroke="#000000" points="11,-141.7 11,-163.7 223,-163.7 223,-141.7 11,-141.7"/>
<image xlink:href="../../images/primaryKeys.png" width="11px" height="12px" preserveAspectRatio="xMinYMin meet" x="16" y="-158.7"/>
<text text-anchor="start" x="31" y="-148.8" font-family="Helvetica,sans-Serif" font-size="11.00" fill="#000000">ESTABLISHMENT</text>
<polygon fill="none" stroke="#000000" points="11,-119.7 11,-141.7 223,-141.7 223,-119.7 11,-119.7"/>
<image xlink:href="../../images/primaryKeys.png" width="11px" height="12px" preserveAspectRatio="xMinYMin meet" x="16" y="-136.7"/>
<text text-anchor="start" x="31" y="-126.8" font-family="Helvetica,sans-Serif" font-size="11.00" fill="#000000">DEFAULT_TRANSFER_TEAM_ID</text>
<polygon fill="none" stroke="#000000" points="11,-97.7 11,-119.7 223,-119.7 223,-97.7 11,-97.7"/>
<image xlink:href="../../images/primaryKeys.png" width="11px" height="12px" preserveAspectRatio="xMinYMin meet" x="16" y="-114.7"/>
<text text-anchor="start" x="31" y="-104.8" font-family="Helvetica,sans-Serif" font-size="11.00" fill="#000000">DEFAULT_COURT_TEAM_ID</text>
<polygon fill="none" stroke="#000000" points="11,-75.7 11,-97.7 223,-97.7 223,-75.7 11,-75.7"/>
<image xlink:href="../../images/primaryKeys.png" width="11px" height="12px" preserveAspectRatio="xMinYMin meet" x="16" y="-92.7"/>
<text text-anchor="start" x="31" y="-82.8" font-family="Helvetica,sans-Serif" font-size="11.00" fill="#000000">DEFAULT_POSTCODE_TEAM_ID</text>
<polygon fill="none" stroke="#000000" points="11,-56.7 11,-75.7 223,-75.7 223,-56.7 11,-56.7"/>
<text text-anchor="start" x="14" y="-62.8" font-family="Helvetica,sans-Serif" font-size="11.00" fill="#000000">...</text>
<polygon fill="#ffffff" stroke="transparent" points="11,-37.7 11,-56.7 89,-56.7 89,-37.7 11,-37.7"/>
<polygon fill="none" stroke="#000000" points="11,-37.7 11,-56.7 89,-56.7 89,-37.7 11,-37.7"/>
<text text-anchor="start" x="14" y="-43.8" font-family="Helvetica,sans-Serif" font-size="11.00" fill="#000000">&lt; 8</text>
<polygon fill="#ffffff" stroke="transparent" points="89,-37.7 89,-56.7 167,-56.7 167,-37.7 89,-37.7"/>
<polygon fill="none" stroke="#000000" points="89,-37.7 89,-56.7 167,-56.7 167,-37.7 89,-37.7"/>
<text text-anchor="start" x="119.3807" y="-43.8" font-family="Helvetica,sans-Serif" font-size="11.00" fill="#000000">223 rows</text>
<polygon fill="#ffffff" stroke="transparent" points="167,-37.7 167,-56.7 223,-56.7 223,-37.7 167,-37.7"/>
<polygon fill="none" stroke="#000000" points="167,-37.7 167,-56.7 223,-56.7 223,-37.7 167,-37.7"/>
<text text-anchor="start" x="198.2904" y="-43.8" font-family="Helvetica,sans-Serif" font-size="11.00" fill="#000000">70 &gt;</text>
</a>
</g>
</g>
<!-- OFFENDER_CRC_EXPORT&#45;&gt;PROBATION_AREA -->
<g id="edge1" class="edge">
<title>OFFENDER_CRC_EXPORT:w&#45;&gt;PROBATION_AREA:e</title>
<path fill="none" stroke="#000000" d="M509.9258,-768.4041C372.205,-762.6786 341.498,-674.3891 267,-549.7 220.5414,-471.9411 313.5806,-350.7 223,-350.7"/>
<polygon fill="#000000" stroke="#000000" points="516.5016,-768.5376 524.4269,-772.2993 520.5008,-768.6188 524.5,-768.7 524.5,-768.7 524.5,-768.7 520.5008,-768.6188 524.5731,-765.1007 516.5016,-768.5376 516.5016,-768.5376"/>
<ellipse fill="none" stroke="#000000" cx="513.3023" cy="-768.4726" rx="3.2" ry="3.2"/>
</g>
<!-- OFFENDER -->
<g id="node3" class="node">
<title>OFFENDER</title>
<g id="a_node3"><a xlink:href="../../tables/OFFENDER.html" xlink:title="OFFENDER" target="_top">
<polygon fill="#ffffff" stroke="transparent" points="8,-406.2 8,-1259.2 226,-1259.2 226,-406.2 8,-406.2"/>
<polygon fill="#f5f5f5" stroke="transparent" points="8,-1235.7 8,-1258.7 226,-1258.7 226,-1235.7 8,-1235.7"/>
<polygon fill="none" stroke="#000000" points="8,-1235.7 8,-1258.7 226,-1258.7 226,-1235.7 8,-1235.7"/>
<text text-anchor="start" x="13" y="-1244.8" font-family="Helvetica,sans-Serif" font-weight="bold" font-size="11.00" fill="#000000">OFFENDER</text>
<text text-anchor="start" x="191.0437" y="-1243.8" font-family="Helvetica,sans-Serif" font-size="11.00" fill="#000000">[table]</text>
<polygon fill="none" stroke="#000000" points="8,-1213.7 8,-1235.7 226,-1235.7 226,-1213.7 8,-1213.7"/>
<image xlink:href="../../images/primaryKeys.png" width="11px" height="12px" preserveAspectRatio="xMinYMin meet" x="13" y="-1230.7"/>
<text text-anchor="start" x="28" y="-1220.8" font-family="Helvetica,sans-Serif" font-size="11.00" fill="#000000">OFFENDER_ID</text>
<polygon fill="none" stroke="#000000" points="8,-1191.7 8,-1213.7 226,-1213.7 226,-1191.7 8,-1191.7"/>
<image xlink:href="../../images/primaryKeys.png" width="11px" height="12px" preserveAspectRatio="xMinYMin meet" x="13" y="-1208.7"/>
<text text-anchor="start" x="28" y="-1198.8" font-family="Helvetica,sans-Serif" font-size="11.00" fill="#000000">FIRST_NAME</text>
<polygon fill="none" stroke="#000000" points="8,-1169.7 8,-1191.7 226,-1191.7 226,-1169.7 8,-1169.7"/>
<image xlink:href="../../images/primaryKeys.png" width="11px" height="12px" preserveAspectRatio="xMinYMin meet" x="13" y="-1186.7"/>
<text text-anchor="start" x="28" y="-1176.8" font-family="Helvetica,sans-Serif" font-size="11.00" fill="#000000">CRN</text>
<polygon fill="none" stroke="#000000" points="8,-1147.7 8,-1169.7 226,-1169.7 226,-1147.7 8,-1147.7"/>
<image xlink:href="../../images/primaryKeys.png" width="11px" height="12px" preserveAspectRatio="xMinYMin meet" x="13" y="-1164.7"/>
<text text-anchor="start" x="28" y="-1154.8" font-family="Helvetica,sans-Serif" font-size="11.00" fill="#000000">SECOND_NAME</text>
<polygon fill="none" stroke="#000000" points="8,-1125.7 8,-1147.7 226,-1147.7 226,-1125.7 8,-1125.7"/>
<image xlink:href="../../images/primaryKeys.png" width="11px" height="12px" preserveAspectRatio="xMinYMin meet" x="13" y="-1142.7"/>
<text text-anchor="start" x="28" y="-1132.8" font-family="Helvetica,sans-Serif" font-size="11.00" fill="#000000">PNC_NUMBER</text>
<polygon fill="none" stroke="#000000" points="8,-1103.7 8,-1125.7 226,-1125.7 226,-1103.7 8,-1103.7"/>
<image xlink:href="../../images/primaryKeys.png" width="11px" height="12px" preserveAspectRatio="xMinYMin meet" x="13" y="-1120.7"/>
<text text-anchor="start" x="28" y="-1110.8" font-family="Helvetica,sans-Serif" font-size="11.00" fill="#000000">THIRD_NAME</text>
<polygon fill="none" stroke="#000000" points="8,-1081.7 8,-1103.7 226,-1103.7 226,-1081.7 8,-1081.7"/>
<image xlink:href="../../images/primaryKeys.png" width="11px" height="12px" preserveAspectRatio="xMinYMin meet" x="13" y="-1098.7"/>
<text text-anchor="start" x="28" y="-1088.8" font-family="Helvetica,sans-Serif" font-size="11.00" fill="#000000">CRO_NUMBER</text>
<polygon fill="none" stroke="#000000" points="8,-1059.7 8,-1081.7 226,-1081.7 226,-1059.7 8,-1059.7"/>
<image xlink:href="../../images/primaryKeys.png" width="11px" height="12px" preserveAspectRatio="xMinYMin meet" x="13" y="-1076.7"/>
<text text-anchor="start" x="28" y="-1066.8" font-family="Helvetica,sans-Serif" font-size="11.00" fill="#000000">SURNAME</text>
<polygon fill="none" stroke="#000000" points="8,-1037.7 8,-1059.7 226,-1059.7 226,-1037.7 8,-1037.7"/>
<image xlink:href="../../images/primaryKeys.png" width="11px" height="12px" preserveAspectRatio="xMinYMin meet" x="13" y="-1054.7"/>
<text text-anchor="start" x="28" y="-1044.8" font-family="Helvetica,sans-Serif" font-size="11.00" fill="#000000">NOMS_NUMBER</text>
<polygon fill="none" stroke="#000000" points="8,-1015.7 8,-1037.7 226,-1037.7 226,-1015.7 8,-1015.7"/>
<image xlink:href="../../images/primaryKeys.png" width="11px" height="12px" preserveAspectRatio="xMinYMin meet" x="13" y="-1032.7"/>
<text text-anchor="start" x="28" y="-1022.8" font-family="Helvetica,sans-Serif" font-size="11.00" fill="#000000">DATE_OF_BIRTH_DATE</text>
<polygon fill="none" stroke="#000000" points="8,-993.7 8,-1015.7 226,-1015.7 226,-993.7 8,-993.7"/>
<image xlink:href="../../images/primaryKeys.png" width="11px" height="12px" preserveAspectRatio="xMinYMin meet" x="13" y="-1010.7"/>
<text text-anchor="start" x="28" y="-1000.8" font-family="Helvetica,sans-Serif" font-size="11.00" fill="#000000">NI_NUMBER</text>
<polygon fill="none" stroke="#000000" points="8,-971.7 8,-993.7 226,-993.7 226,-971.7 8,-971.7"/>
<image xlink:href="../../images/primaryKeys.png" width="11px" height="12px" preserveAspectRatio="xMinYMin meet" x="13" y="-988.7"/>
<text text-anchor="start" x="28" y="-978.8" font-family="Helvetica,sans-Serif" font-size="11.00" fill="#000000">IMMIGRATION_NUMBER</text>
<polygon fill="none" stroke="#000000" points="8,-949.7 8,-971.7 226,-971.7 226,-949.7 8,-949.7"/>
<image xlink:href="../../images/primaryKeys.png" width="11px" height="12px" preserveAspectRatio="xMinYMin meet" x="13" y="-966.7"/>
<text text-anchor="start" x="28" y="-956.8" font-family="Helvetica,sans-Serif" font-size="11.00" fill="#000000">PARTITION_AREA_ID</text>
<polygon fill="none" stroke="#000000" points="8,-927.7 8,-949.7 226,-949.7 226,-927.7 8,-927.7"/>
<image xlink:href="../../images/primaryKeys.png" width="11px" height="12px" preserveAspectRatio="xMinYMin meet" x="13" y="-944.7"/>
<text text-anchor="start" x="28" y="-934.8" font-family="Helvetica,sans-Serif" font-size="11.00" fill="#000000">SOFT_DELETED</text>
<polygon fill="none" stroke="#000000" points="8,-905.7 8,-927.7 226,-927.7 226,-905.7 8,-905.7"/>
<image xlink:href="../../images/primaryKeys.png" width="11px" height="12px" preserveAspectRatio="xMinYMin meet" x="13" y="-922.7"/>
<text text-anchor="start" x="28" y="-912.8" font-family="Helvetica,sans-Serif" font-size="11.00" fill="#000000">TITLE_ID</text>
<polygon fill="none" stroke="#000000" points="8,-883.7 8,-905.7 226,-905.7 226,-883.7 8,-883.7"/>
<image xlink:href="../../images/primaryKeys.png" width="11px" height="12px" preserveAspectRatio="xMinYMin meet" x="13" y="-900.7"/>
<text text-anchor="start" x="28" y="-890.8" font-family="Helvetica,sans-Serif" font-size="11.00" fill="#000000">GENDER_ID</text>
<polygon fill="none" stroke="#000000" points="8,-861.7 8,-883.7 226,-883.7 226,-861.7 8,-861.7"/>
<image xlink:href="../../images/primaryKeys.png" width="11px" height="12px" preserveAspectRatio="xMinYMin meet" x="13" y="-878.7"/>
<text text-anchor="start" x="28" y="-868.8" font-family="Helvetica,sans-Serif" font-size="11.00" fill="#000000">ETHNICITY_ID</text>
<polygon fill="none" stroke="#000000" points="8,-839.7 8,-861.7 226,-861.7 226,-839.7 8,-839.7"/>
<image xlink:href="../../images/primaryKeys.png" width="11px" height="12px" preserveAspectRatio="xMinYMin meet" x="13" y="-856.7"/>
<text text-anchor="start" x="28" y="-846.8" font-family="Helvetica,sans-Serif" font-size="11.00" fill="#000000">NATIONALITY_ID</text>
<polygon fill="none" stroke="#000000" points="8,-817.7 8,-839.7 226,-839.7 226,-817.7 8,-817.7"/>
<image xlink:href="../../images/primaryKeys.png" width="11px" height="12px" preserveAspectRatio="xMinYMin meet" x="13" y="-834.7"/>
<text text-anchor="start" x="28" y="-824.8" font-family="Helvetica,sans-Serif" font-size="11.00" fill="#000000">IMMIGRATION_STATUS_ID</text>
<polygon fill="none" stroke="#000000" points="8,-795.7 8,-817.7 226,-817.7 226,-795.7 8,-795.7"/>
<image xlink:href="../../images/primaryKeys.png" width="11px" height="12px" preserveAspectRatio="xMinYMin meet" x="13" y="-812.7"/>
<text text-anchor="start" x="28" y="-802.8" font-family="Helvetica,sans-Serif" font-size="11.00" fill="#000000">LANGUAGE_ID</text>
<polygon fill="none" stroke="#000000" points="8,-773.7 8,-795.7 226,-795.7 226,-773.7 8,-773.7"/>
<image xlink:href="../../images/primaryKeys.png" width="11px" height="12px" preserveAspectRatio="xMinYMin meet" x="13" y="-790.7"/>
<text text-anchor="start" x="28" y="-780.8" font-family="Helvetica,sans-Serif" font-size="11.00" fill="#000000">RELIGION_ID</text>
<polygon fill="none" stroke="#000000" points="8,-751.7 8,-773.7 226,-773.7 226,-751.7 8,-751.7"/>
<image xlink:href="../../images/primaryKeys.png" width="11px" height="12px" preserveAspectRatio="xMinYMin meet" x="13" y="-768.7"/>
<text text-anchor="start" x="28" y="-758.8" font-family="Helvetica,sans-Serif" font-size="11.00" fill="#000000">SURNAME_SOUNDEX</text>
<polygon fill="none" stroke="#000000" points="8,-729.7 8,-751.7 226,-751.7 226,-729.7 8,-729.7"/>
<image xlink:href="../../images/primaryKeys.png" width="11px" height="12px" preserveAspectRatio="xMinYMin meet" x="13" y="-746.7"/>
<text text-anchor="start" x="28" y="-736.8" font-family="Helvetica,sans-Serif" font-size="11.00" fill="#000000">SECOND_NATIONALITY_ID</text>
<polygon fill="none" stroke="#000000" points="8,-707.7 8,-729.7 226,-729.7 226,-707.7 8,-707.7"/>
<image xlink:href="../../images/primaryKeys.png" width="11px" height="12px" preserveAspectRatio="xMinYMin meet" x="13" y="-724.7"/>
<text text-anchor="start" x="28" y="-714.8" font-family="Helvetica,sans-Serif" font-size="11.00" fill="#000000">SEXUAL_ORIENTATION_ID</text>
<polygon fill="none" stroke="#000000" points="8,-685.7 8,-707.7 226,-707.7 226,-685.7 8,-685.7"/>
<image xlink:href="../../images/primaryKeys.png" width="11px" height="12px" preserveAspectRatio="xMinYMin meet" x="13" y="-702.7"/>
<text text-anchor="start" x="28" y="-692.8" font-family="Helvetica,sans-Serif" font-size="11.00" fill="#000000">CURRENT_EXCLUSION</text>
<polygon fill="none" stroke="#000000" points="8,-663.7 8,-685.7 226,-685.7 226,-663.7 8,-663.7"/>
<image xlink:href="../../images/primaryKeys.png" width="11px" height="12px" preserveAspectRatio="xMinYMin meet" x="13" y="-680.7"/>
<text text-anchor="start" x="28" y="-670.8" font-family="Helvetica,sans-Serif" font-size="11.00" fill="#000000">TRAINING_SESSION_ID</text>
<polygon fill="none" stroke="#000000" points="8,-641.7 8,-663.7 226,-663.7 226,-641.7 8,-641.7"/>
<image xlink:href="../../images/primaryKeys.png" width="11px" height="12px" preserveAspectRatio="xMinYMin meet" x="13" y="-658.7"/>
<text text-anchor="start" x="28" y="-648.8" font-family="Helvetica,sans-Serif" font-size="11.00" fill="#000000">CURRENT_DISPOSAL</text>
<polygon fill="none" stroke="#000000" points="8,-619.7 8,-641.7 226,-641.7 226,-619.7 8,-619.7"/>
<image xlink:href="../../images/primaryKeys.png" width="11px" height="12px" preserveAspectRatio="xMinYMin meet" x="13" y="-636.7"/>
<text text-anchor="start" x="27.6433" y="-626.8" font-family="Helvetica,sans-Serif" font-size="11.00" fill="#000000">CURRENT_HIGHEST_RISK_COLOUR</text>
<polygon fill="none" stroke="#000000" points="8,-597.7 8,-619.7 226,-619.7 226,-597.7 8,-597.7"/>
<image xlink:href="../../images/primaryKeys.png" width="11px" height="12px" preserveAspectRatio="xMinYMin meet" x="13" y="-614.7"/>
<text text-anchor="start" x="28" y="-604.8" font-family="Helvetica,sans-Serif" font-size="11.00" fill="#000000">CURRENT_RESTRICTION</text>
<polygon fill="none" stroke="#000000" points="8,-575.7 8,-597.7 226,-597.7 226,-575.7 8,-575.7"/>
<image xlink:href="../../images/primaryKeys.png" width="11px" height="12px" preserveAspectRatio="xMinYMin meet" x="13" y="-592.7"/>
<text text-anchor="start" x="28" y="-582.8" font-family="Helvetica,sans-Serif" font-size="11.00" fill="#000000">INSTITUTION_ID</text>
<polygon fill="none" stroke="#000000" points="8,-553.7 8,-575.7 226,-575.7 226,-553.7 8,-553.7"/>
<image xlink:href="../../images/primaryKeys.png" width="11px" height="12px" preserveAspectRatio="xMinYMin meet" x="13" y="-570.7"/>
<text text-anchor="start" x="28" y="-560.8" font-family="Helvetica,sans-Serif" font-size="11.00" fill="#000000">ESTABLISHMENT</text>
<polygon fill="none" stroke="#000000" points="8,-531.7 8,-553.7 226,-553.7 226,-531.7 8,-531.7"/>
<image xlink:href="../../images/primaryKeys.png" width="11px" height="12px" preserveAspectRatio="xMinYMin meet" x="13" y="-548.7"/>
<text text-anchor="start" x="28" y="-538.8" font-family="Helvetica,sans-Serif" font-size="11.00" fill="#000000">CURRENT_TIER</text>
<polygon fill="none" stroke="#000000" points="8,-509.7 8,-531.7 226,-531.7 226,-509.7 8,-509.7"/>
<image xlink:href="../../images/primaryKeys.png" width="11px" height="12px" preserveAspectRatio="xMinYMin meet" x="13" y="-526.7"/>
<text text-anchor="start" x="28" y="-516.8" font-family="Helvetica,sans-Serif" font-size="11.00" fill="#000000">OM_ALLOCATION_DECISION_ID</text>
<polygon fill="none" stroke="#000000" points="8,-487.7 8,-509.7 226,-509.7 226,-487.7 8,-487.7"/>
<image xlink:href="../../images/primaryKeys.png" width="11px" height="12px" preserveAspectRatio="xMinYMin meet" x="13" y="-504.7"/>
<text text-anchor="start" x="28" y="-494.8" font-family="Helvetica,sans-Serif" font-size="11.00" fill="#000000">TRANSGENDER_PROCESS_ID</text>
<polygon fill="none" stroke="#000000" points="8,-465.7 8,-487.7 226,-487.7 226,-465.7 8,-465.7"/>
<image xlink:href="../../images/primaryKeys.png" width="11px" height="12px" preserveAspectRatio="xMinYMin meet" x="13" y="-482.7"/>
<text text-anchor="start" x="28" y="-472.8" font-family="Helvetica,sans-Serif" font-size="11.00" fill="#000000">PREFERRED_NAME</text>
<polygon fill="none" stroke="#000000" points="8,-443.7 8,-465.7 226,-465.7 226,-443.7 8,-443.7"/>
<image xlink:href="../../images/primaryKeys.png" width="11px" height="12px" preserveAspectRatio="xMinYMin meet" x="13" y="-460.7"/>
<text text-anchor="start" x="28" y="-450.8" font-family="Helvetica,sans-Serif" font-size="11.00" fill="#000000">GENDER_IDENTITY_ID</text>
<polygon fill="none" stroke="#000000" points="8,-424.7 8,-443.7 226,-443.7 226,-424.7 8,-424.7"/>
<text text-anchor="start" x="11" y="-430.8" font-family="Helvetica,sans-Serif" font-size="11.00" fill="#000000">...</text>
<polygon fill="#ffffff" stroke="transparent" points="8,-405.7 8,-424.7 81,-424.7 81,-405.7 8,-405.7"/>
<polygon fill="none" stroke="#000000" points="8,-405.7 8,-424.7 81,-424.7 81,-405.7 8,-405.7"/>
<text text-anchor="start" x="11" y="-411.8" font-family="Helvetica,sans-Serif" font-size="11.00" fill="#000000">&lt; 16</text>
<polygon fill="#ffffff" stroke="transparent" points="81,-405.7 81,-424.7 169,-424.7 169,-405.7 81,-405.7"/>
<polygon fill="none" stroke="#000000" points="81,-405.7 81,-424.7 169,-424.7 169,-405.7 81,-405.7"/>
<text text-anchor="start" x="106.094" y="-411.8" font-family="Helvetica,sans-Serif" font-size="11.00" fill="#000000">18,527 rows</text>
<polygon fill="#ffffff" stroke="transparent" points="169,-405.7 169,-424.7 226,-424.7 226,-405.7 169,-405.7"/>
<polygon fill="none" stroke="#000000" points="169,-405.7 169,-424.7 226,-424.7 226,-405.7 169,-405.7"/>
<text text-anchor="start" x="195.1755" y="-411.8" font-family="Helvetica,sans-Serif" font-size="11.00" fill="#000000">103 &gt;</text>
</a>
</g>
</g>
<!-- OFFENDER_CRC_EXPORT&#45;&gt;OFFENDER -->
<g id="edge2" class="edge">
<title>OFFENDER_CRC_EXPORT:w&#45;&gt;OFFENDER:e</title>
<path fill="none" stroke="#000000" d="M509.9622,-791.2924C297.4981,-809.1481 455.0784,-1224.7 226,-1224.7"/>
<polygon fill="#000000" stroke="#000000" points="516.5066,-791.0258 524.6466,-794.297 520.5033,-790.8629 524.5,-790.7 524.5,-790.7 524.5,-790.7 520.5033,-790.8629 524.3534,-787.103 516.5066,-791.0258 516.5066,-791.0258"/>
<ellipse fill="none" stroke="#000000" cx="513.3093" cy="-791.1561" rx="3.2" ry="3.2"/>
</g>
<!-- SPG_NOTIFICATION -->
<g id="node4" class="node">
<title>SPG_NOTIFICATION</title>
<g id="a_node4"><a xlink:href="../../tables/SPG_NOTIFICATION.html" xlink:title="SPG_NOTIFICATION" target="_top">
<polygon fill="#ffffff" stroke="transparent" points="275,-148.2 275,-539.2 473,-539.2 473,-148.2 275,-148.2"/>
<polygon fill="#f5f5f5" stroke="transparent" points="275,-515.7 275,-538.7 473,-538.7 473,-515.7 275,-515.7"/>
<polygon fill="none" stroke="#000000" points="275,-515.7 275,-538.7 473,-538.7 473,-515.7 275,-515.7"/>
<text text-anchor="start" x="280" y="-524.8" font-family="Helvetica,sans-Serif" font-weight="bold" font-size="11.00" fill="#000000">SPG_NOTIFICATION</text>
<text text-anchor="start" x="438.0437" y="-523.8" font-family="Helvetica,sans-Serif" font-size="11.00" fill="#000000">[table]</text>
<polygon fill="none" stroke="#000000" points="275,-493.7 275,-515.7 473,-515.7 473,-493.7 275,-493.7"/>
<image xlink:href="../../images/primaryKeys.png" width="11px" height="12px" preserveAspectRatio="xMinYMin meet" x="280" y="-510.7"/>
<text text-anchor="start" x="295" y="-500.8" font-family="Helvetica,sans-Serif" font-size="11.00" fill="#000000">SPG_NOTIFICATION_ID</text>
<polygon fill="none" stroke="#000000" points="275,-471.7 275,-493.7 473,-493.7 473,-471.7 275,-471.7"/>
<image xlink:href="../../images/primaryKeys.png" width="11px" height="12px" preserveAspectRatio="xMinYMin meet" x="280" y="-488.7"/>
<text text-anchor="start" x="295" y="-478.8" font-family="Helvetica,sans-Serif" font-size="11.00" fill="#000000">BUSINESS_INTERACTION_ID</text>
<polygon fill="none" stroke="#000000" points="275,-449.7 275,-471.7 473,-471.7 473,-449.7 275,-449.7"/>
<image xlink:href="../../images/primaryKeys.png" width="11px" height="12px" preserveAspectRatio="xMinYMin meet" x="280" y="-466.7"/>
<text text-anchor="start" x="295" y="-456.8" font-family="Helvetica,sans-Serif" font-size="11.00" fill="#000000">OFFENDER_ID</text>
<polygon fill="none" stroke="#000000" points="275,-427.7 275,-449.7 473,-449.7 473,-427.7 275,-427.7"/>
<image xlink:href="../../images/primaryKeys.png" width="11px" height="12px" preserveAspectRatio="xMinYMin meet" x="280" y="-444.7"/>
<text text-anchor="start" x="295" y="-434.8" font-family="Helvetica,sans-Serif" font-size="11.00" fill="#000000">DATE_CREATED</text>
<polygon fill="none" stroke="#000000" points="275,-405.7 275,-427.7 473,-427.7 473,-405.7 275,-405.7"/>
<image xlink:href="../../images/primaryKeys.png" width="11px" height="12px" preserveAspectRatio="xMinYMin meet" x="280" y="-422.7"/>
<text text-anchor="start" x="295" y="-412.8" font-family="Helvetica,sans-Serif" font-size="11.00" fill="#000000">PROCESSED_FLAG</text>
<polygon fill="none" stroke="#000000" points="275,-383.7 275,-405.7 473,-405.7 473,-383.7 275,-383.7"/>
<image xlink:href="../../images/primaryKeys.png" width="11px" height="12px" preserveAspectRatio="xMinYMin meet" x="280" y="-400.7"/>
<text text-anchor="start" x="295" y="-390.8" font-family="Helvetica,sans-Serif" font-size="11.00" fill="#000000">CONTROL_REFERENCE</text>
<polygon fill="none" stroke="#000000" points="275,-361.7 275,-383.7 473,-383.7 473,-361.7 275,-361.7"/>
<image xlink:href="../../images/primaryKeys.png" width="11px" height="12px" preserveAspectRatio="xMinYMin meet" x="280" y="-378.7"/>
<text text-anchor="start" x="295" y="-368.8" font-family="Helvetica,sans-Serif" font-size="11.00" fill="#000000">SENDER_IDENTITY_ID</text>
<polygon fill="none" stroke="#000000" points="275,-339.7 275,-361.7 473,-361.7 473,-339.7 275,-339.7"/>
<image xlink:href="../../images/primaryKeys.png" width="11px" height="12px" preserveAspectRatio="xMinYMin meet" x="280" y="-356.7"/>
<text text-anchor="start" x="295" y="-346.8" font-family="Helvetica,sans-Serif" font-size="11.00" fill="#000000">RECEIVER_IDENTITY_ID</text>
<polygon fill="none" stroke="#000000" points="275,-317.7 275,-339.7 473,-339.7 473,-317.7 275,-317.7"/>
<image xlink:href="../../images/primaryKeys.png" width="11px" height="12px" preserveAspectRatio="xMinYMin meet" x="280" y="-334.7"/>
<text text-anchor="start" x="286.4743" y="-324.8" font-family="Helvetica,sans-Serif" font-size="11.00" fill="#000000">RECEIVER_CONTROL_REFERENCE</text>
<polygon fill="none" stroke="#000000" points="275,-295.7 275,-317.7 473,-317.7 473,-295.7 275,-295.7"/>
<image xlink:href="../../images/primaryKeys.png" width="11px" height="12px" preserveAspectRatio="xMinYMin meet" x="280" y="-312.7"/>
<text text-anchor="start" x="295" y="-302.8" font-family="Helvetica,sans-Serif" font-size="11.00" fill="#000000">MESSAGE_DIRECTION</text>
<polygon fill="none" stroke="#000000" points="275,-273.7 275,-295.7 473,-295.7 473,-273.7 275,-273.7"/>
<image xlink:href="../../images/primaryKeys.png" width="11px" height="12px" preserveAspectRatio="xMinYMin meet" x="280" y="-290.7"/>
<text text-anchor="start" x="295" y="-280.8" font-family="Helvetica,sans-Serif" font-size="11.00" fill="#000000">SPG_MESSAGE_CONTEXT_ID</text>
<polygon fill="none" stroke="#000000" points="275,-251.7 275,-273.7 473,-273.7 473,-251.7 275,-251.7"/>
<image xlink:href="../../images/primaryKeys.png" width="11px" height="12px" preserveAspectRatio="xMinYMin meet" x="280" y="-268.7"/>
<text text-anchor="start" x="293.4973" y="-258.8" font-family="Helvetica,sans-Serif" font-size="11.00" fill="#000000">SPG_INTERCHANGE_STATUS_ID</text>
<polygon fill="none" stroke="#000000" points="275,-229.7 275,-251.7 473,-251.7 473,-229.7 275,-229.7"/>
<image xlink:href="../../images/primaryKeys.png" width="11px" height="12px" preserveAspectRatio="xMinYMin meet" x="280" y="-246.7"/>
<text text-anchor="start" x="289.2249" y="-236.8" font-family="Helvetica,sans-Serif" font-size="11.00" fill="#000000">REGENERATED_NOTIFICATION_ID</text>
<polygon fill="none" stroke="#000000" points="275,-207.7 275,-229.7 473,-229.7 473,-207.7 275,-207.7"/>
<image xlink:href="../../images/primaryKeys.png" width="11px" height="12px" preserveAspectRatio="xMinYMin meet" x="280" y="-224.7"/>
<text text-anchor="start" x="295" y="-214.8" font-family="Helvetica,sans-Serif" font-size="11.00" fill="#000000">MT_COMPONENT_ID</text>
<polygon fill="none" stroke="#000000" points="275,-185.7 275,-207.7 473,-207.7 473,-185.7 275,-185.7"/>
<image xlink:href="../../images/primaryKeys.png" width="11px" height="12px" preserveAspectRatio="xMinYMin meet" x="280" y="-202.7"/>
<text text-anchor="start" x="295" y="-192.8" font-family="Helvetica,sans-Serif" font-size="11.00" fill="#000000">DATA_SCRIPT_MESSAGE_ID</text>
<polygon fill="none" stroke="#000000" points="275,-166.7 275,-185.7 473,-185.7 473,-166.7 275,-166.7"/>
<text text-anchor="start" x="278" y="-172.8" font-family="Helvetica,sans-Serif" font-size="11.00" fill="#000000">...</text>
<polygon fill="#ffffff" stroke="transparent" points="275,-147.7 275,-166.7 338,-166.7 338,-147.7 275,-147.7"/>
<polygon fill="none" stroke="#000000" points="275,-147.7 275,-166.7 338,-166.7 338,-147.7 275,-147.7"/>
<text text-anchor="start" x="278" y="-153.8" font-family="Helvetica,sans-Serif" font-size="11.00" fill="#000000">&lt; 8</text>
<polygon fill="#ffffff" stroke="transparent" points="338,-147.7 338,-166.7 431,-166.7 431,-147.7 338,-147.7"/>
<polygon fill="none" stroke="#000000" points="338,-147.7 338,-166.7 431,-166.7 431,-147.7 338,-147.7"/>
<text text-anchor="start" x="361.9791" y="-153.8" font-family="Helvetica,sans-Serif" font-size="11.00" fill="#000000">428,992 rows</text>
<polygon fill="#ffffff" stroke="transparent" points="431,-147.7 431,-166.7 473,-166.7 473,-147.7 431,-147.7"/>
<polygon fill="none" stroke="#000000" points="431,-147.7 431,-166.7 473,-166.7 473,-147.7 431,-147.7"/>
<text text-anchor="start" x="454.4053" y="-153.8" font-family="Helvetica,sans-Serif" font-size="11.00" fill="#000000">5 &gt;</text>
</a>
</g>
</g>
<!-- OFFENDER_CRC_EXPORT&#45;&gt;SPG_NOTIFICATION -->
<g id="edge3" class="edge">
<title>OFFENDER_CRC_EXPORT:w&#45;&gt;SPG_NOTIFICATION:e</title>
<path fill="none" stroke="#000000" d="M510.0156,-504.7C497.6771,-504.7 490.1667,-504.7 473,-504.7"/>
<polygon fill="#000000" stroke="#000000" points="516.5,-504.7001 524.5,-508.3 520.5,-504.7 524.5,-504.7 524.5,-504.7 524.5,-504.7 520.5,-504.7 524.5,-501.1 516.5,-504.7001 516.5,-504.7001"/>
<ellipse fill="none" stroke="#000000" cx="513.3" cy="-504.7001" rx="3.2" ry="3.2"/>
</g>
<!-- SPG_NOTIFICATION&#45;&gt;PROBATION_AREA -->
<g id="edge5" class="edge">
<title>SPG_NOTIFICATION:w&#45;&gt;PROBATION_AREA:e</title>
<path fill="none" stroke="#000000" d="M260.375,-350.7C247.9167,-350.7 240.3333,-350.7 223,-350.7"/>
<polygon fill="#000000" stroke="#000000" points="267,-350.7001 275,-354.3 271,-350.7 275,-350.7 275,-350.7 275,-350.7 271,-350.7 275,-347.1 267,-350.7001 267,-350.7001"/>
<ellipse fill="none" stroke="#000000" cx="263.8" cy="-350.7001" rx="3.2" ry="3.2"/>
</g>
<!-- SPG_NOTIFICATION&#45;&gt;PROBATION_AREA -->
<g id="edge6" class="edge">
<title>SPG_NOTIFICATION:w&#45;&gt;PROBATION_AREA:e</title>
<path fill="none" stroke="#000000" d="M260.5929,-369.641C247.7776,-363.596 242.2129,-350.7 223,-350.7"/>
<polygon fill="#000000" stroke="#000000" points="267.1745,-371.0384 274.2523,-376.2215 271.0872,-371.8692 275,-372.7 275,-372.7 275,-372.7 271.0872,-371.8692 275.7477,-369.1785 267.1745,-371.0384 267.1745,-371.0384"/>
<ellipse fill="none" stroke="#000000" cx="264.0442" cy="-370.3737" rx="3.2" ry="3.2"/>
</g>
<!-- SPG_NOTIFICATION&#45;&gt;OFFENDER -->
<g id="edge4" class="edge">
<title>SPG_NOTIFICATION:w&#45;&gt;OFFENDER:e</title>
<path fill="none" stroke="#000000" d="M262.4554,-467.7754C202.9966,-544.7958 306.2453,-1224.7 226,-1224.7"/>
<polygon fill="#000000" stroke="#000000" points="268.0319,-464.6302 276.7686,-463.8356 271.516,-462.6651 275,-460.7 275,-460.7 275,-460.7 271.516,-462.6651 273.2314,-457.5644 268.0319,-464.6302 268.0319,-464.6302"/>
<ellipse fill="none" stroke="#000000" cx="265.2447" cy="-466.2023" rx="3.2" ry="3.2"/>
</g>
</g>
</svg>
