<?xml version="1.0" encoding="UTF-8" standalone="no"?>
<!DOCTYPE svg PUBLIC "-//W3C//DTD SVG 1.1//EN"
 "http://www.w3.org/Graphics/SVG/1.1/DTD/svg11.dtd">
<!-- Generated by graphviz version 2.40.1 (20161225.0304)
 -->
<!-- Title: twoDegreesRelationshipsDiagram Pages: 1 -->
<svg width="738pt" height="311pt"
 viewBox="0.00 0.00 738.00 310.70" xmlns="http://www.w3.org/2000/svg" xmlns:xlink="http://www.w3.org/1999/xlink">
<g id="graph0" class="graph" transform="scale(1 1) rotate(0) translate(4 306.7)">
<title>twoDegreesRelationshipsDiagram</title>
<polygon fill="#ffffff" stroke="transparent" points="-4,4 -4,-306.7 734,-306.7 734,4 -4,4"/>
<text text-anchor="middle" x="72.4936" y="-7.3" font-family="Helvetica,sans-Serif" font-size="11.00" fill="#000000">Generated by SchemaSpy</text>
<!-- OFFENDER_MERGE_DETAILS -->
<g id="node1" class="node">
<title>OFFENDER_MERGE_DETAILS</title>
<g id="a_node1"><a xlink:href="../../tables/OFFENDER_MERGE_DETAILS.html" xlink:title="OFFENDER_MERGE_DETAILS" target="_top">
<polygon fill="#ffffff" stroke="transparent" points="176,-38.2 176,-275.2 377,-275.2 377,-38.2 176,-38.2"/>
<polygon fill="#f5f5f5" stroke="transparent" points="176.5,-251.7 176.5,-274.7 377.5,-274.7 377.5,-251.7 176.5,-251.7"/>
<polygon fill="none" stroke="#000000" points="176.5,-251.7 176.5,-274.7 377.5,-274.7 377.5,-251.7 176.5,-251.7"/>
<text text-anchor="start" x="181.0536" y="-260.8" font-family="Helvetica,sans-Serif" font-weight="bold" font-size="11.00" fill="#000000">OFFENDER_MERGE_DETAILS</text>
<text text-anchor="start" x="343.0219" y="-259.8" font-family="Helvetica,sans-Serif" font-size="11.00" fill="#000000">[table]</text>
<polygon fill="none" stroke="#000000" points="176.5,-229.7 176.5,-251.7 377.5,-251.7 377.5,-229.7 176.5,-229.7"/>
<image xlink:href="../../images/primaryKeys.png" width="11px" height="12px" preserveAspectRatio="xMinYMin meet" x="181.5" y="-246.7"/>
<text text-anchor="start" x="196.9972" y="-236.8" font-family="Helvetica,sans-Serif" font-size="11.00" fill="#000000">OFFENDER_MERGE_DETAILS_ID</text>
<polygon fill="none" stroke="#000000" points="176.5,-207.7 176.5,-229.7 377.5,-229.7 377.5,-207.7 176.5,-207.7"/>
<image xlink:href="../../images/primaryKeys.png" width="11px" height="12px" preserveAspectRatio="xMinYMin meet" x="181.5" y="-224.7"/>
<text text-anchor="start" x="203.5" y="-214.8" font-family="Helvetica,sans-Serif" font-size="11.00" fill="#000000">TABLE_NAME</text>
<polygon fill="none" stroke="#000000" points="176.5,-185.7 176.5,-207.7 377.5,-207.7 377.5,-185.7 176.5,-185.7"/>
<image xlink:href="../../images/primaryKeys.png" width="11px" height="12px" preserveAspectRatio="xMinYMin meet" x="181.5" y="-202.7"/>
<text text-anchor="start" x="203.5" y="-192.8" font-family="Helvetica,sans-Serif" font-size="11.00" fill="#000000">SOURCE_OFFENDER_ID</text>
<polygon fill="none" stroke="#000000" points="176.5,-163.7 176.5,-185.7 377.5,-185.7 377.5,-163.7 176.5,-163.7"/>
<image xlink:href="../../images/primaryKeys.png" width="11px" height="12px" preserveAspectRatio="xMinYMin meet" x="181.5" y="-180.7"/>
<text text-anchor="start" x="203.5" y="-170.8" font-family="Helvetica,sans-Serif" font-size="11.00" fill="#000000">TARGET_OFFENDER_ID</text>
<polygon fill="none" stroke="#000000" points="176.5,-141.7 176.5,-163.7 377.5,-163.7 377.5,-141.7 176.5,-141.7"/>
<image xlink:href="../../images/primaryKeys.png" width="11px" height="12px" preserveAspectRatio="xMinYMin meet" x="181.5" y="-158.7"/>
<text text-anchor="start" x="203.5" y="-148.8" font-family="Helvetica,sans-Serif" font-size="11.00" fill="#000000">SOURCE_PK_VALUE</text>
<polygon fill="none" stroke="#000000" points="176.5,-119.7 176.5,-141.7 377.5,-141.7 377.5,-119.7 176.5,-119.7"/>
<image xlink:href="../../images/primaryKeys.png" width="11px" height="12px" preserveAspectRatio="xMinYMin meet" x="181.5" y="-136.7"/>
<text text-anchor="start" x="203.5" y="-126.8" font-family="Helvetica,sans-Serif" font-size="11.00" fill="#000000">TARGET_PK_VALUE</text>
<polygon fill="none" stroke="#000000" points="176.5,-97.7 176.5,-119.7 377.5,-119.7 377.5,-97.7 176.5,-97.7"/>
<image xlink:href="../../images/primaryKeys.png" width="11px" height="12px" preserveAspectRatio="xMinYMin meet" x="181.5" y="-114.7"/>
<text text-anchor="start" x="203.5" y="-104.8" font-family="Helvetica,sans-Serif" font-size="11.00" fill="#000000">SOURCE_FK_VALUE</text>
<polygon fill="none" stroke="#000000" points="176.5,-75.7 176.5,-97.7 377.5,-97.7 377.5,-75.7 176.5,-75.7"/>
<image xlink:href="../../images/primaryKeys.png" width="11px" height="12px" preserveAspectRatio="xMinYMin meet" x="181.5" y="-92.7"/>
<text text-anchor="start" x="203.5" y="-82.8" font-family="Helvetica,sans-Serif" font-size="11.00" fill="#000000">TARGET_FK_VALUE</text>
<polygon fill="none" stroke="#000000" points="176.5,-56.7 176.5,-75.7 377.5,-75.7 377.5,-56.7 176.5,-56.7"/>
<text text-anchor="start" x="179.5" y="-62.8" font-family="Helvetica,sans-Serif" font-size="11.00" fill="#000000">...</text>
<polygon fill="#ffffff" stroke="transparent" points="176.5,-37.7 176.5,-56.7 254.5,-56.7 254.5,-37.7 176.5,-37.7"/>
<polygon fill="none" stroke="#000000" points="176.5,-37.7 176.5,-56.7 254.5,-56.7 254.5,-37.7 176.5,-37.7"/>
<text text-anchor="start" x="179.5" y="-43.8" font-family="Helvetica,sans-Serif" font-size="11.00" fill="#000000">&lt; 2</text>
<polygon fill="#ffffff" stroke="transparent" points="254.5,-37.7 254.5,-56.7 327.5,-56.7 327.5,-37.7 254.5,-37.7"/>
<polygon fill="none" stroke="#000000" points="254.5,-37.7 254.5,-56.7 327.5,-56.7 327.5,-37.7 254.5,-37.7"/>
<text text-anchor="start" x="285.9956" y="-43.8" font-family="Helvetica,sans-Serif" font-size="11.00" fill="#000000">10 rows</text>
<polygon fill="#ffffff" stroke="transparent" points="327.5,-37.7 327.5,-56.7 377.5,-56.7 377.5,-37.7 327.5,-37.7"/>
<polygon fill="none" stroke="#000000" points="327.5,-37.7 327.5,-56.7 377.5,-56.7 377.5,-37.7 327.5,-37.7"/>
<text text-anchor="start" x="358.9053" y="-43.8" font-family="Helvetica,sans-Serif" font-size="11.00" fill="#000000">1 &gt;</text>
</a>
</g>
</g>
<!-- OFFENDER -->
<g id="node2" class="node">
<title>OFFENDER</title>
<g id="a_node2"><a xlink:href="../../tables/OFFENDER.html" xlink:title="OFFENDER" target="_top">
<polygon fill="#ffffff" stroke="transparent" points="8,-158.2 8,-219.2 127,-219.2 127,-158.2 8,-158.2"/>
<polygon fill="#f5f5f5" stroke="transparent" points="8.5,-195.7 8.5,-218.7 127.5,-218.7 127.5,-195.7 8.5,-195.7"/>
<polygon fill="none" stroke="#000000" points="8.5,-195.7 8.5,-218.7 127.5,-218.7 127.5,-195.7 8.5,-195.7"/>
<text text-anchor="start" x="13.5" y="-204.8" font-family="Helvetica,sans-Serif" font-weight="bold" font-size="11.00" fill="#000000">OFFENDER</text>
<text text-anchor="start" x="92.5437" y="-203.8" font-family="Helvetica,sans-Serif" font-size="11.00" fill="#000000">[table]</text>
<polygon fill="none" stroke="#000000" points="8.5,-176.7 8.5,-195.7 127.5,-195.7 127.5,-176.7 8.5,-176.7"/>
<text text-anchor="start" x="11.5" y="-182.8" font-family="Helvetica,sans-Serif" font-size="11.00" fill="#000000">...</text>
<polygon fill="#ffffff" stroke="transparent" points="8.5,-157.7 8.5,-176.7 35.5,-176.7 35.5,-157.7 8.5,-157.7"/>
<polygon fill="none" stroke="#000000" points="8.5,-157.7 8.5,-176.7 35.5,-176.7 35.5,-157.7 8.5,-157.7"/>
<text text-anchor="start" x="11.1452" y="-163.8" font-family="Helvetica,sans-Serif" font-size="11.00" fill="#000000">&lt; 16</text>
<polygon fill="#ffffff" stroke="transparent" points="35.5,-157.7 35.5,-176.7 100.5,-176.7 100.5,-157.7 35.5,-157.7"/>
<polygon fill="none" stroke="#000000" points="35.5,-157.7 35.5,-176.7 100.5,-176.7 100.5,-157.7 35.5,-157.7"/>
<text text-anchor="start" x="38.047" y="-163.8" font-family="Helvetica,sans-Serif" font-size="11.00" fill="#000000">18,527 rows</text>
<polygon fill="#ffffff" stroke="transparent" points="100.5,-157.7 100.5,-176.7 127.5,-176.7 127.5,-157.7 100.5,-157.7"/>
<polygon fill="none" stroke="#000000" points="100.5,-157.7 100.5,-176.7 127.5,-176.7 127.5,-157.7 100.5,-157.7"/>
<text text-anchor="start" x="103.1452" y="-163.8" font-family="Helvetica,sans-Serif" font-size="11.00" fill="#000000">96 &gt;</text>
</a>
</g>
</g>
<!-- OFFENDER_MERGE_DETAILS&#45;&gt;OFFENDER -->
<g id="edge1" class="edge">
<title>OFFENDER_MERGE_DETAILS:w&#45;&gt;OFFENDER:e</title>
<path fill="none" stroke="#000000" d="M162.2027,-194.8836C150.7382,-191.7593 144.0655,-185.7 127.5,-185.7"/>
<polygon fill="#000000" stroke="#000000" points="168.5638,-195.6917 176.0463,-200.2713 172.5319,-196.1958 176.5,-196.7 176.5,-196.7 176.5,-196.7 172.5319,-196.1958 176.9537,-193.1287 168.5638,-195.6917 168.5638,-195.6917"/>
<ellipse fill="none" stroke="#000000" cx="165.3893" cy="-195.2884" rx="3.2" ry="3.2"/>
</g>
<!-- OFFENDER_MERGE_DETAILS&#45;&gt;OFFENDER -->
<g id="edge2" class="edge">
<title>OFFENDER_MERGE_DETAILS:w&#45;&gt;OFFENDER:e</title>
<path fill="none" stroke="#000000" d="M162.2027,-176.5164C150.7382,-179.6407 144.0655,-185.7 127.5,-185.7"/>
<polygon fill="#000000" stroke="#000000" points="168.5638,-175.7083 176.9537,-178.2713 172.5319,-175.2042 176.5,-174.7 176.5,-174.7 176.5,-174.7 172.5319,-175.2042 176.0463,-171.1287 168.5638,-175.7083 168.5638,-175.7083"/>
<ellipse fill="none" stroke="#000000" cx="165.3893" cy="-176.1116" rx="3.2" ry="3.2"/>
</g>
<!-- OFFENDER_MERGE_DETAILS_HIST -->
<g id="node3" class="node">
<title>OFFENDER_MERGE_DETAILS_HIST</title>
<g id="a_node3"><a xlink:href="../../tables/OFFENDER_MERGE_DETAILS_HIST.html" xlink:title="OFFENDER_MERGE_DETAILS_HIST" target="_top">
<polygon fill="#ffffff" stroke="transparent" points="426,-98.7 426,-298.7 722,-298.7 722,-98.7 426,-98.7"/>
<polygon fill="#f5f5f5" stroke="transparent" points="428,-273.7 428,-296.7 720,-296.7 720,-273.7 428,-273.7"/>
<polygon fill="none" stroke="#000000" points="428,-273.7 428,-296.7 720,-296.7 720,-273.7 428,-273.7"/>
<text text-anchor="start" x="433" y="-282.8" font-family="Helvetica,sans-Serif" font-weight="bold" font-size="11.00" fill="#000000">OFFENDER_MERGE_DETAILS_HIST</text>
<text text-anchor="start" x="685.0437" y="-281.8" font-family="Helvetica,sans-Serif" font-size="11.00" fill="#000000">[table]</text>
<polygon fill="none" stroke="#000000" points="428,-251.7 428,-273.7 647,-273.7 647,-251.7 428,-251.7"/>
<image xlink:href="../../images/primaryKeys.png" width="11px" height="12px" preserveAspectRatio="xMinYMin meet" x="433" y="-268.7"/>
<text text-anchor="start" x="441.413" y="-258.8" font-family="Helvetica,sans-Serif" font-size="11.00" fill="#000000">OFFENDER_MERGE_DETAILS_HIST_ID</text>
<polygon fill="none" stroke="#000000" points="647,-251.7 647,-273.7 720,-273.7 720,-251.7 647,-251.7"/>
<text text-anchor="start" x="650" y="-259.4" font-family="Helvetica,sans-Serif" font-size="11.00" fill="#000000">number[38]</text>
<polygon fill="none" stroke="#000000" points="428,-229.7 428,-251.7 647,-251.7 647,-229.7 428,-229.7"/>
<image xlink:href="../../images/primaryKeys.png" width="11px" height="12px" preserveAspectRatio="xMinYMin meet" x="433" y="-246.7"/>
<text text-anchor="start" x="448" y="-236.8" font-family="Helvetica,sans-Serif" font-size="11.00" fill="#000000">OFFENDER_MERGE_DETAILS_ID</text>
<polygon fill="none" stroke="#000000" points="647,-229.7 647,-251.7 720,-251.7 720,-229.7 647,-229.7"/>
<text text-anchor="start" x="650" y="-237.4" font-family="Helvetica,sans-Serif" font-size="11.00" fill="#000000">number[38]</text>
<polygon fill="none" stroke="#000000" points="428,-207.7 428,-229.7 647,-229.7 647,-207.7 428,-207.7"/>
<image xlink:href="../../images/primaryKeys.png" width="11px" height="12px" preserveAspectRatio="xMinYMin meet" x="433" y="-224.7"/>
<text text-anchor="start" x="448" y="-214.8" font-family="Helvetica,sans-Serif" font-size="11.00" fill="#000000">COLUMN_NAME</text>
<polygon fill="none" stroke="#000000" points="647,-207.7 647,-229.7 720,-229.7 720,-207.7 647,-207.7"/>
<text text-anchor="start" x="650" y="-215.4" font-family="Helvetica,sans-Serif" font-size="11.00" fill="#000000">varchar2[30]</text>
<polygon fill="none" stroke="#000000" points="428,-185.7 428,-207.7 647,-207.7 647,-185.7 428,-185.7"/>
<text text-anchor="start" x="448" y="-192.8" font-family="Helvetica,sans-Serif" font-size="11.00" fill="#000000">DATA_TYPE</text>
<polygon fill="none" stroke="#000000" points="647,-185.7 647,-207.7 720,-207.7 720,-185.7 647,-185.7"/>
<text text-anchor="start" x="650" y="-193.4" font-family="Helvetica,sans-Serif" font-size="11.00" fill="#000000">char[1]</text>
<polygon fill="none" stroke="#000000" points="428,-163.7 428,-185.7 647,-185.7 647,-163.7 428,-163.7"/>
<text text-anchor="start" x="448" y="-170.8" font-family="Helvetica,sans-Serif" font-size="11.00" fill="#000000">OLD_VALUE</text>
<polygon fill="none" stroke="#000000" points="647,-163.7 647,-185.7 720,-185.7 720,-163.7 647,-163.7"/>
<text text-anchor="start" x="649.8791" y="-171.4" font-family="Helvetica,sans-Serif" font-size="11.00" fill="#000000">varchar2[100]</text>
<polygon fill="none" stroke="#000000" points="428,-141.7 428,-163.7 647,-163.7 647,-141.7 428,-141.7"/>
<text text-anchor="start" x="448" y="-148.8" font-family="Helvetica,sans-Serif" font-size="11.00" fill="#000000">NEW_VALUE</text>
<polygon fill="none" stroke="#000000" points="647,-141.7 647,-163.7 720,-163.7 720,-141.7 647,-141.7"/>
<text text-anchor="start" x="649.8791" y="-149.4" font-family="Helvetica,sans-Serif" font-size="11.00" fill="#000000">varchar2[100]</text>
<polygon fill="none" stroke="#000000" points="428,-119.7 428,-141.7 647,-141.7 647,-119.7 428,-119.7"/>
<image xlink:href="../../images/primaryKeys.png" width="11px" height="12px" preserveAspectRatio="xMinYMin meet" x="433" y="-136.7"/>
<text text-anchor="start" x="448" y="-126.8" font-family="Helvetica,sans-Serif" font-size="11.00" fill="#000000">TABLE_PK_VALUE</text>
<polygon fill="none" stroke="#000000" points="647,-119.7 647,-141.7 720,-141.7 720,-119.7 647,-119.7"/>
<text text-anchor="start" x="649.8791" y="-127.4" font-family="Helvetica,sans-Serif" font-size="11.00" fill="#000000">varchar2[100]</text>
<polygon fill="#ffffff" stroke="transparent" points="428,-100.7 428,-119.7 526,-119.7 526,-100.7 428,-100.7"/>
<polygon fill="none" stroke="#000000" points="428,-100.7 428,-119.7 526,-119.7 526,-100.7 428,-100.7"/>
<text text-anchor="start" x="431" y="-106.8" font-family="Helvetica,sans-Serif" font-size="11.00" fill="#000000">&lt; 1</text>
<polygon fill="#ffffff" stroke="transparent" points="526,-100.7 526,-119.7 647,-119.7 647,-100.7 526,-100.7"/>
<polygon fill="none" stroke="#000000" points="526,-100.7 526,-119.7 647,-119.7 647,-100.7 526,-100.7"/>
<text text-anchor="start" x="605.4956" y="-106.8" font-family="Helvetica,sans-Serif" font-size="11.00" fill="#000000">14 rows</text>
<polygon fill="#ffffff" stroke="transparent" points="647,-100.7 647,-119.7 720,-119.7 720,-100.7 647,-100.7"/>
<polygon fill="none" stroke="#000000" points="647,-100.7 647,-119.7 720,-119.7 720,-100.7 647,-100.7"/>
<text text-anchor="start" x="701.4053" y="-106.8" font-family="Helvetica,sans-Serif" font-size="11.00" fill="#000000">0 &gt;</text>
<polygon fill="none" stroke="#000000" stroke-width="2" points="427,-99.7 427,-297.7 721,-297.7 721,-99.7 427,-99.7"/>
</a>
</g>
</g>
<!-- OFFENDER_MERGE_DETAILS_HIST&#45;&gt;OFFENDER_MERGE_DETAILS -->
<g id="edge3" class="edge">
<title>OFFENDER_MERGE_DETAILS_HIST:w&#45;&gt;OFFENDER_MERGE_DETAILS:e</title>
<path fill="none" stroke="#000000" d="M413.4203,-240.7C401.5435,-240.7 394.158,-240.7 377.5,-240.7"/>
<polygon fill="#000000" stroke="#000000" points="420,-240.7001 428,-244.3 424,-240.7 428,-240.7 428,-240.7 428,-240.7 424,-240.7 428,-237.1 420,-240.7001 420,-240.7001"/>
<ellipse fill="none" stroke="#000000" cx="416.8" cy="-240.7001" rx="3.2" ry="3.2"/>
</g>
</g>
</svg>
