<?xml version="1.0" encoding="UTF-8" standalone="no"?>
<!DOCTYPE svg PUBLIC "-//W3C//DTD SVG 1.1//EN"
 "http://www.w3.org/Graphics/SVG/1.1/DTD/svg11.dtd">
<!-- Generated by graphviz version 2.40.1 (20161225.0304)
 -->
<!-- Title: oneDegreeRelationshipsDiagram Pages: 1 -->
<svg width="519pt" height="874pt"
 viewBox="0.00 0.00 519.00 874.20" xmlns="http://www.w3.org/2000/svg" xmlns:xlink="http://www.w3.org/1999/xlink">
<g id="graph0" class="graph" transform="scale(1 1) rotate(0) translate(4 870.2)">
<title>oneDegreeRelationshipsDiagram</title>
<polygon fill="#ffffff" stroke="transparent" points="-4,4 -4,-870.2 515,-870.2 515,4 -4,4"/>
<text text-anchor="middle" x="72.4936" y="-7.3" font-family="Helvetica,sans-Serif" font-size="11.00" fill="#000000">Generated by SchemaSpy</text>
<!-- DSS_SEARCH_OFFENDER -->
<g id="node1" class="node">
<title>DSS_SEARCH_OFFENDER</title>
<g id="a_node1"><a xlink:href="../../tables/DSS_SEARCH_OFFENDER.html" xlink:title="DSS_SEARCH_OFFENDER" target="_top">
<polygon fill="#ffffff" stroke="transparent" points="319,-754.2 319,-862.2 503,-862.2 503,-754.2 319,-754.2"/>
<polygon fill="#f5f5f5" stroke="transparent" points="319,-839.2 319,-862.2 503,-862.2 503,-839.2 319,-839.2"/>
<polygon fill="none" stroke="#000000" points="319,-839.2 319,-862.2 503,-862.2 503,-839.2 319,-839.2"/>
<text text-anchor="start" x="323.918" y="-848.3" font-family="Helvetica,sans-Serif" font-weight="bold" font-size="11.00" fill="#000000">DSS_SEARCH_OFFENDER</text>
<text text-anchor="start" x="468.5219" y="-847.3" font-family="Helvetica,sans-Serif" font-size="11.00" fill="#000000">[table]</text>
<polygon fill="none" stroke="#000000" points="319,-817.2 319,-839.2 503,-839.2 503,-817.2 319,-817.2"/>
<image xlink:href="../../images/primaryKeys.png" width="11px" height="12px" preserveAspectRatio="xMinYMin meet" x="324" y="-834.2"/>
<text text-anchor="start" x="343.0241" y="-824.3" font-family="Helvetica,sans-Serif" font-size="11.00" fill="#000000">DSS_SEARCH_REQUEST_ID</text>
<polygon fill="none" stroke="#000000" points="319,-795.2 319,-817.2 503,-817.2 503,-795.2 319,-795.2"/>
<image xlink:href="../../images/primaryKeys.png" width="11px" height="12px" preserveAspectRatio="xMinYMin meet" x="324" y="-812.2"/>
<text text-anchor="start" x="347.302" y="-802.3" font-family="Helvetica,sans-Serif" font-size="11.00" fill="#000000">DSS_SEARCH_SEQUENCE</text>
<polygon fill="none" stroke="#000000" points="319,-773.2 319,-795.2 503,-795.2 503,-773.2 319,-773.2"/>
<image xlink:href="../../images/primaryKeys.png" width="11px" height="12px" preserveAspectRatio="xMinYMin meet" x="324" y="-790.2"/>
<text text-anchor="start" x="348" y="-780.3" font-family="Helvetica,sans-Serif" font-size="11.00" fill="#000000">OFFLOC_ID</text>
<polygon fill="#ffffff" stroke="transparent" points="319,-754.2 319,-773.2 390,-773.2 390,-754.2 319,-754.2"/>
<polygon fill="none" stroke="#000000" points="319,-754.2 319,-773.2 390,-773.2 390,-754.2 319,-754.2"/>
<text text-anchor="start" x="322" y="-760.3" font-family="Helvetica,sans-Serif" font-size="11.00" fill="#000000">&lt; 1</text>
<polygon fill="#ffffff" stroke="transparent" points="390,-754.2 390,-773.2 465,-773.2 465,-754.2 390,-754.2"/>
<polygon fill="none" stroke="#000000" points="390,-754.2 390,-773.2 465,-773.2 465,-754.2 390,-754.2"/>
<text text-anchor="start" x="417.3807" y="-760.3" font-family="Helvetica,sans-Serif" font-size="11.00" fill="#000000">597 rows</text>
<polygon fill="#ffffff" stroke="transparent" points="465,-754.2 465,-773.2 503,-773.2 503,-754.2 465,-754.2"/>
<polygon fill="none" stroke="#000000" points="465,-754.2 465,-773.2 503,-773.2 503,-754.2 465,-754.2"/>
<text text-anchor="start" x="493.8862" y="-760.3" font-family="Helvetica,sans-Serif" font-size="11.00" fill="#000000"> &#160;</text>
</a>
</g>
</g>
<!-- OFFLOC -->
<g id="node2" class="node">
<title>OFFLOC</title>
<g id="a_node2"><a xlink:href="../../tables/OFFLOC.html" xlink:title="OFFLOC" target="_top">
<polygon fill="#ffffff" stroke="transparent" points="8,-38.2 8,-766.2 270,-766.2 270,-38.2 8,-38.2"/>
<polygon fill="#f5f5f5" stroke="transparent" points="10,-741.2 10,-764.2 268,-764.2 268,-741.2 10,-741.2"/>
<polygon fill="none" stroke="#000000" points="10,-741.2 10,-764.2 268,-764.2 268,-741.2 10,-741.2"/>
<text text-anchor="start" x="15" y="-750.3" font-family="Helvetica,sans-Serif" font-weight="bold" font-size="11.00" fill="#000000">OFFLOC</text>
<text text-anchor="start" x="233.0437" y="-749.3" font-family="Helvetica,sans-Serif" font-size="11.00" fill="#000000">[table]</text>
<polygon fill="none" stroke="#000000" points="10,-719.2 10,-741.2 189,-741.2 189,-719.2 10,-719.2"/>
<image xlink:href="../../images/primaryKeys.png" width="11px" height="12px" preserveAspectRatio="xMinYMin meet" x="15" y="-736.2"/>
<text text-anchor="start" x="30" y="-726.3" font-family="Helvetica,sans-Serif" font-size="11.00" fill="#000000">OFFLOC_ID</text>
<polygon fill="none" stroke="#000000" points="189,-719.2 189,-741.2 268,-741.2 268,-719.2 189,-719.2"/>
<text text-anchor="start" x="192" y="-726.9" font-family="Helvetica,sans-Serif" font-size="11.00" fill="#000000">number[38]</text>
<polygon fill="none" stroke="#000000" points="10,-697.2 10,-719.2 189,-719.2 189,-697.2 10,-697.2"/>
<text text-anchor="start" x="30" y="-704.3" font-family="Helvetica,sans-Serif" font-size="11.00" fill="#000000">PRISON_CODE</text>
<polygon fill="none" stroke="#000000" points="189,-697.2 189,-719.2 268,-719.2 268,-697.2 189,-697.2"/>
<text text-anchor="start" x="192" y="-704.9" font-family="Helvetica,sans-Serif" font-size="11.00" fill="#000000">varchar2[20]</text>
<polygon fill="none" stroke="#000000" points="10,-675.2 10,-697.2 189,-697.2 189,-675.2 10,-675.2"/>
<text text-anchor="start" x="30" y="-682.3" font-family="Helvetica,sans-Serif" font-size="11.00" fill="#000000">OFFENDER_MANAGER</text>
<polygon fill="none" stroke="#000000" points="189,-675.2 189,-697.2 268,-697.2 268,-675.2 189,-675.2"/>
<text text-anchor="start" x="192" y="-682.9" font-family="Helvetica,sans-Serif" font-size="11.00" fill="#000000">varchar2[500]</text>
<polygon fill="none" stroke="#000000" points="10,-653.2 10,-675.2 189,-675.2 189,-653.2 10,-653.2"/>
<image xlink:href="../../images/primaryKeys.png" width="11px" height="12px" preserveAspectRatio="xMinYMin meet" x="15" y="-670.2"/>
<text text-anchor="start" x="30" y="-660.3" font-family="Helvetica,sans-Serif" font-size="11.00" fill="#000000">SURNAME</text>
<polygon fill="none" stroke="#000000" points="189,-653.2 189,-675.2 268,-675.2 268,-653.2 189,-653.2"/>
<text text-anchor="start" x="192" y="-660.9" font-family="Helvetica,sans-Serif" font-size="11.00" fill="#000000">varchar2[35]</text>
<polygon fill="none" stroke="#000000" points="10,-631.2 10,-653.2 189,-653.2 189,-631.2 10,-631.2"/>
<text text-anchor="start" x="30" y="-638.3" font-family="Helvetica,sans-Serif" font-size="11.00" fill="#000000">FORENAME_1</text>
<polygon fill="none" stroke="#000000" points="189,-631.2 189,-653.2 268,-653.2 268,-631.2 189,-631.2"/>
<text text-anchor="start" x="192" y="-638.9" font-family="Helvetica,sans-Serif" font-size="11.00" fill="#000000">varchar2[35]</text>
<polygon fill="none" stroke="#000000" points="10,-609.2 10,-631.2 189,-631.2 189,-609.2 10,-609.2"/>
<text text-anchor="start" x="30" y="-616.3" font-family="Helvetica,sans-Serif" font-size="11.00" fill="#000000">FORENAME_2</text>
<polygon fill="none" stroke="#000000" points="189,-609.2 189,-631.2 268,-631.2 268,-609.2 189,-609.2"/>
<text text-anchor="start" x="192" y="-616.9" font-family="Helvetica,sans-Serif" font-size="11.00" fill="#000000">varchar2[35]</text>
<polygon fill="none" stroke="#000000" points="10,-587.2 10,-609.2 189,-609.2 189,-587.2 10,-587.2"/>
<image xlink:href="../../images/primaryKeys.png" width="11px" height="12px" preserveAspectRatio="xMinYMin meet" x="15" y="-604.2"/>
<text text-anchor="start" x="30" y="-594.3" font-family="Helvetica,sans-Serif" font-size="11.00" fill="#000000">DOB</text>
<polygon fill="none" stroke="#000000" points="189,-587.2 189,-609.2 268,-609.2 268,-587.2 189,-587.2"/>
<text text-anchor="start" x="192" y="-594.9" font-family="Helvetica,sans-Serif" font-size="11.00" fill="#000000">date[7]</text>
<polygon fill="none" stroke="#000000" points="10,-565.2 10,-587.2 189,-587.2 189,-565.2 10,-565.2"/>
<text text-anchor="start" x="30" y="-572.3" font-family="Helvetica,sans-Serif" font-size="11.00" fill="#000000">GENDER</text>
<polygon fill="none" stroke="#000000" points="189,-565.2 189,-587.2 268,-587.2 268,-565.2 189,-565.2"/>
<text text-anchor="start" x="192" y="-572.9" font-family="Helvetica,sans-Serif" font-size="11.00" fill="#000000">varchar2[40]</text>
<polygon fill="none" stroke="#000000" points="10,-543.2 10,-565.2 189,-565.2 189,-543.2 10,-543.2"/>
<text text-anchor="start" x="30" y="-550.3" font-family="Helvetica,sans-Serif" font-size="11.00" fill="#000000">ETHNICITY</text>
<polygon fill="none" stroke="#000000" points="189,-543.2 189,-565.2 268,-565.2 268,-543.2 189,-543.2"/>
<text text-anchor="start" x="192" y="-550.9" font-family="Helvetica,sans-Serif" font-size="11.00" fill="#000000">varchar2[40]</text>
<polygon fill="none" stroke="#000000" points="10,-521.2 10,-543.2 189,-543.2 189,-521.2 10,-521.2"/>
<text text-anchor="start" x="30" y="-528.3" font-family="Helvetica,sans-Serif" font-size="11.00" fill="#000000">NATIONALITY</text>
<polygon fill="none" stroke="#000000" points="189,-521.2 189,-543.2 268,-543.2 268,-521.2 189,-521.2"/>
<text text-anchor="start" x="192" y="-528.9" font-family="Helvetica,sans-Serif" font-size="11.00" fill="#000000">varchar2[50]</text>
<polygon fill="none" stroke="#000000" points="10,-499.2 10,-521.2 189,-521.2 189,-499.2 10,-499.2"/>
<text text-anchor="start" x="30" y="-506.3" font-family="Helvetica,sans-Serif" font-size="11.00" fill="#000000">CRO</text>
<polygon fill="none" stroke="#000000" points="189,-499.2 189,-521.2 268,-521.2 268,-499.2 189,-499.2"/>
<text text-anchor="start" x="191.8216" y="-506.9" font-family="Helvetica,sans-Serif" font-size="11.00" fill="#000000">varchar2[4000]</text>
<polygon fill="none" stroke="#000000" points="10,-477.2 10,-499.2 189,-499.2 189,-477.2 10,-477.2"/>
<image xlink:href="../../images/primaryKeys.png" width="11px" height="12px" preserveAspectRatio="xMinYMin meet" x="15" y="-494.2"/>
<text text-anchor="start" x="30" y="-484.3" font-family="Helvetica,sans-Serif" font-size="11.00" fill="#000000">PRISON_NUMBER</text>
<polygon fill="none" stroke="#000000" points="189,-477.2 189,-499.2 268,-499.2 268,-477.2 189,-477.2"/>
<text text-anchor="start" x="192" y="-484.9" font-family="Helvetica,sans-Serif" font-size="11.00" fill="#000000">varchar2[20]</text>
<polygon fill="none" stroke="#000000" points="10,-455.2 10,-477.2 189,-477.2 189,-455.2 10,-455.2"/>
<image xlink:href="../../images/primaryKeys.png" width="11px" height="12px" preserveAspectRatio="xMinYMin meet" x="15" y="-472.2"/>
<text text-anchor="start" x="30" y="-462.3" font-family="Helvetica,sans-Serif" font-size="11.00" fill="#000000">NOMIS_NUMBER</text>
<polygon fill="none" stroke="#000000" points="189,-455.2 189,-477.2 268,-477.2 268,-455.2 189,-455.2"/>
<text text-anchor="start" x="192" y="-462.9" font-family="Helvetica,sans-Serif" font-size="11.00" fill="#000000">varchar2[20]</text>
<polygon fill="none" stroke="#000000" points="10,-433.2 10,-455.2 189,-455.2 189,-433.2 10,-433.2"/>
<text text-anchor="start" x="30" y="-440.3" font-family="Helvetica,sans-Serif" font-size="11.00" fill="#000000">STATUS</text>
<polygon fill="none" stroke="#000000" points="189,-433.2 189,-455.2 268,-455.2 268,-433.2 189,-433.2"/>
<text text-anchor="start" x="192" y="-440.9" font-family="Helvetica,sans-Serif" font-size="11.00" fill="#000000">varchar2[10]</text>
<polygon fill="none" stroke="#000000" points="10,-411.2 10,-433.2 189,-433.2 189,-411.2 10,-411.2"/>
<text text-anchor="start" x="30" y="-418.3" font-family="Helvetica,sans-Serif" font-size="11.00" fill="#000000">NOMIS_STATUS</text>
<polygon fill="none" stroke="#000000" points="189,-411.2 189,-433.2 268,-433.2 268,-411.2 189,-411.2"/>
<text text-anchor="start" x="192" y="-418.9" font-family="Helvetica,sans-Serif" font-size="11.00" fill="#000000">varchar2[20]</text>
<polygon fill="none" stroke="#000000" points="10,-389.2 10,-411.2 189,-411.2 189,-389.2 10,-389.2"/>
<text text-anchor="start" x="30" y="-396.3" font-family="Helvetica,sans-Serif" font-size="11.00" fill="#000000">SENTENCING_COURT</text>
<polygon fill="none" stroke="#000000" points="189,-389.2 189,-411.2 268,-411.2 268,-389.2 189,-389.2"/>
<text text-anchor="start" x="192" y="-396.9" font-family="Helvetica,sans-Serif" font-size="11.00" fill="#000000">varchar2[50]</text>
<polygon fill="none" stroke="#000000" points="10,-367.2 10,-389.2 189,-389.2 189,-367.2 10,-367.2"/>
<text text-anchor="start" x="30" y="-374.3" font-family="Helvetica,sans-Serif" font-size="11.00" fill="#000000">SENTENCE_DATE</text>
<polygon fill="none" stroke="#000000" points="189,-367.2 189,-389.2 268,-389.2 268,-367.2 189,-367.2"/>
<text text-anchor="start" x="192" y="-374.9" font-family="Helvetica,sans-Serif" font-size="11.00" fill="#000000">date[7]</text>
<polygon fill="none" stroke="#000000" points="10,-345.2 10,-367.2 189,-367.2 189,-345.2 10,-345.2"/>
<text text-anchor="start" x="30" y="-352.3" font-family="Helvetica,sans-Serif" font-size="11.00" fill="#000000">SENTENCE_YEARS</text>
<polygon fill="none" stroke="#000000" points="189,-345.2 189,-367.2 268,-367.2 268,-345.2 189,-345.2"/>
<text text-anchor="start" x="192" y="-352.9" font-family="Helvetica,sans-Serif" font-size="11.00" fill="#000000">number[38]</text>
<polygon fill="none" stroke="#000000" points="10,-323.2 10,-345.2 189,-345.2 189,-323.2 10,-323.2"/>
<text text-anchor="start" x="30" y="-330.3" font-family="Helvetica,sans-Serif" font-size="11.00" fill="#000000">SENTENCE_MONTH</text>
<polygon fill="none" stroke="#000000" points="189,-323.2 189,-345.2 268,-345.2 268,-323.2 189,-323.2"/>
<text text-anchor="start" x="192" y="-330.9" font-family="Helvetica,sans-Serif" font-size="11.00" fill="#000000">number[38]</text>
<polygon fill="none" stroke="#000000" points="10,-301.2 10,-323.2 189,-323.2 189,-301.2 10,-301.2"/>
<text text-anchor="start" x="30" y="-308.3" font-family="Helvetica,sans-Serif" font-size="11.00" fill="#000000">SENTENCE_DAYS</text>
<polygon fill="none" stroke="#000000" points="189,-301.2 189,-323.2 268,-323.2 268,-301.2 189,-301.2"/>
<text text-anchor="start" x="192" y="-308.9" font-family="Helvetica,sans-Serif" font-size="11.00" fill="#000000">number[38]</text>
<polygon fill="none" stroke="#000000" points="10,-279.2 10,-301.2 189,-301.2 189,-279.2 10,-279.2"/>
<text text-anchor="start" x="23.2702" y="-286.3" font-family="Helvetica,sans-Serif" font-size="11.00" fill="#000000">CONDITIONAL_RELEASE_DATE</text>
<polygon fill="none" stroke="#000000" points="189,-279.2 189,-301.2 268,-301.2 268,-279.2 189,-279.2"/>
<text text-anchor="start" x="192" y="-286.9" font-family="Helvetica,sans-Serif" font-size="11.00" fill="#000000">date[7]</text>
<polygon fill="none" stroke="#000000" points="10,-257.2 10,-279.2 189,-279.2 189,-257.2 10,-257.2"/>
<text text-anchor="start" x="30" y="-264.3" font-family="Helvetica,sans-Serif" font-size="11.00" fill="#000000">PAROLE_ELIGIBILITY_DATE</text>
<polygon fill="none" stroke="#000000" points="189,-257.2 189,-279.2 268,-279.2 268,-257.2 189,-257.2"/>
<text text-anchor="start" x="192" y="-264.9" font-family="Helvetica,sans-Serif" font-size="11.00" fill="#000000">date[7]</text>
<polygon fill="none" stroke="#000000" points="10,-235.2 10,-257.2 189,-257.2 189,-235.2 10,-235.2"/>
<text text-anchor="start" x="30" y="-242.3" font-family="Helvetica,sans-Serif" font-size="11.00" fill="#000000">LICENSE_EXPIRY_DATE</text>
<polygon fill="none" stroke="#000000" points="189,-235.2 189,-257.2 268,-257.2 268,-235.2 189,-235.2"/>
<text text-anchor="start" x="192" y="-242.9" font-family="Helvetica,sans-Serif" font-size="11.00" fill="#000000">date[7]</text>
<polygon fill="none" stroke="#000000" points="10,-213.2 10,-235.2 189,-235.2 189,-213.2 10,-213.2"/>
<text text-anchor="start" x="30" y="-220.3" font-family="Helvetica,sans-Serif" font-size="11.00" fill="#000000">SENTENCE_EXPIRY_DATE</text>
<polygon fill="none" stroke="#000000" points="189,-213.2 189,-235.2 268,-235.2 268,-213.2 189,-213.2"/>
<text text-anchor="start" x="192" y="-220.9" font-family="Helvetica,sans-Serif" font-size="11.00" fill="#000000">date[7]</text>
<polygon fill="none" stroke="#000000" points="10,-191.2 10,-213.2 189,-213.2 189,-191.2 10,-191.2"/>
<text text-anchor="start" x="30" y="-198.3" font-family="Helvetica,sans-Serif" font-size="11.00" fill="#000000">HDC_ELIGIBILITY_DATE</text>
<polygon fill="none" stroke="#000000" points="189,-191.2 189,-213.2 268,-213.2 268,-191.2 189,-191.2"/>
<text text-anchor="start" x="192" y="-198.9" font-family="Helvetica,sans-Serif" font-size="11.00" fill="#000000">date[7]</text>
<polygon fill="none" stroke="#000000" points="10,-169.2 10,-191.2 189,-191.2 189,-169.2 10,-169.2"/>
<text text-anchor="start" x="30" y="-176.3" font-family="Helvetica,sans-Serif" font-size="11.00" fill="#000000">ACTUAL_RELEASE_DATE</text>
<polygon fill="none" stroke="#000000" points="189,-169.2 189,-191.2 268,-191.2 268,-169.2 189,-169.2"/>
<text text-anchor="start" x="192" y="-176.9" font-family="Helvetica,sans-Serif" font-size="11.00" fill="#000000">date[7]</text>
<polygon fill="none" stroke="#000000" points="10,-147.2 10,-169.2 189,-169.2 189,-147.2 10,-147.2"/>
<text text-anchor="start" x="30" y="-154.3" font-family="Helvetica,sans-Serif" font-size="11.00" fill="#000000">DSS_UPDATED_DATE</text>
<polygon fill="none" stroke="#000000" points="189,-147.2 189,-169.2 268,-169.2 268,-147.2 189,-147.2"/>
<text text-anchor="start" x="192" y="-154.9" font-family="Helvetica,sans-Serif" font-size="11.00" fill="#000000">date[7]</text>
<polygon fill="none" stroke="#000000" points="10,-125.2 10,-147.2 189,-147.2 189,-125.2 10,-125.2"/>
<text text-anchor="start" x="30" y="-132.3" font-family="Helvetica,sans-Serif" font-size="11.00" fill="#000000">SOURCE_CODE</text>
<polygon fill="none" stroke="#000000" points="189,-125.2 189,-147.2 268,-147.2 268,-125.2 189,-125.2"/>
<text text-anchor="start" x="192" y="-132.9" font-family="Helvetica,sans-Serif" font-size="11.00" fill="#000000">char[1]</text>
<polygon fill="none" stroke="#000000" points="10,-103.2 10,-125.2 189,-125.2 189,-103.2 10,-103.2"/>
<image xlink:href="../../images/primaryKeys.png" width="11px" height="12px" preserveAspectRatio="xMinYMin meet" x="15" y="-120.2"/>
<text text-anchor="start" x="30" y="-110.3" font-family="Helvetica,sans-Serif" font-size="11.00" fill="#000000">TRAINING_SESSION_ID</text>
<polygon fill="none" stroke="#000000" points="189,-103.2 189,-125.2 268,-125.2 268,-103.2 189,-103.2"/>
<text text-anchor="start" x="192" y="-110.9" font-family="Helvetica,sans-Serif" font-size="11.00" fill="#000000">number[38]</text>
<polygon fill="none" stroke="#000000" points="10,-81.2 10,-103.2 189,-103.2 189,-81.2 10,-81.2"/>
<text text-anchor="start" x="30" y="-88.3" font-family="Helvetica,sans-Serif" font-size="11.00" fill="#000000">PSS_END_DATE</text>
<polygon fill="none" stroke="#000000" points="189,-81.2 189,-103.2 268,-103.2 268,-81.2 189,-81.2"/>
<text text-anchor="start" x="192" y="-88.9" font-family="Helvetica,sans-Serif" font-size="11.00" fill="#000000">date[7]</text>
<polygon fill="none" stroke="#000000" points="10,-59.2 10,-81.2 189,-81.2 189,-59.2 10,-59.2"/>
<text text-anchor="start" x="30" y="-66.3" font-family="Helvetica,sans-Serif" font-size="11.00" fill="#000000">ALERTS</text>
<polygon fill="none" stroke="#000000" points="189,-59.2 189,-81.2 268,-81.2 268,-59.2 189,-59.2"/>
<text text-anchor="start" x="192" y="-66.9" font-family="Helvetica,sans-Serif" font-size="11.00" fill="#000000">clob[4000]</text>
<polygon fill="#ffffff" stroke="transparent" points="10,-40.2 10,-59.2 80,-59.2 80,-40.2 10,-40.2"/>
<polygon fill="none" stroke="#000000" points="10,-40.2 10,-59.2 80,-59.2 80,-40.2 10,-40.2"/>
<text text-anchor="start" x="13" y="-46.3" font-family="Helvetica,sans-Serif" font-size="11.00" fill="#000000">&lt; 0</text>
<polygon fill="#ffffff" stroke="transparent" points="80,-40.2 80,-59.2 189,-59.2 189,-40.2 80,-40.2"/>
<polygon fill="none" stroke="#000000" points="80,-40.2 80,-59.2 189,-59.2 189,-40.2 80,-40.2"/>
<text text-anchor="start" x="132.2089" y="-46.3" font-family="Helvetica,sans-Serif" font-size="11.00" fill="#000000">9,084 rows</text>
<polygon fill="#ffffff" stroke="transparent" points="189,-40.2 189,-59.2 268,-59.2 268,-40.2 189,-40.2"/>
<polygon fill="none" stroke="#000000" points="189,-40.2 189,-59.2 268,-59.2 268,-40.2 189,-40.2"/>
<text text-anchor="start" x="249.4053" y="-46.3" font-family="Helvetica,sans-Serif" font-size="11.00" fill="#000000">2 &gt;</text>
<polygon fill="none" stroke="#000000" stroke-width="2" points="9,-39.2 9,-765.2 269,-765.2 269,-39.2 9,-39.2"/>
</a>
</g>
</g>
<!-- DSS_SEARCH_OFFENDER&#45;&gt;OFFLOC -->
<g id="edge1" class="edge">
<title>DSS_SEARCH_OFFENDER:w&#45;&gt;OFFLOC:e</title>
<path fill="none" stroke="#000000" d="M305.3001,-779.596C289.8364,-766.5373 295.08,-730.2 268,-730.2"/>
<polygon fill="#000000" stroke="#000000" points="311.4168,-781.6515 317.8532,-787.6125 315.2084,-782.9258 319,-784.2 319,-784.2 319,-784.2 315.2084,-782.9258 320.1468,-780.7875 311.4168,-781.6515 311.4168,-781.6515"/>
<ellipse fill="none" stroke="#000000" cx="308.3835" cy="-780.6322" rx="3.2" ry="3.2"/>
</g>
<!-- PNC_NUMBER -->
<g id="node3" class="node">
<title>PNC_NUMBER</title>
<g id="a_node3"><a xlink:href="../../tables/PNC_NUMBER.html" xlink:title="PNC_NUMBER" target="_top">
<polygon fill="#ffffff" stroke="transparent" points="340,-605.7 340,-732.7 482,-732.7 482,-605.7 340,-605.7"/>
<polygon fill="#f5f5f5" stroke="transparent" points="340,-709.2 340,-732.2 482,-732.2 482,-709.2 340,-709.2"/>
<polygon fill="none" stroke="#000000" points="340,-709.2 340,-732.2 482,-732.2 482,-709.2 340,-709.2"/>
<text text-anchor="start" x="345" y="-718.3" font-family="Helvetica,sans-Serif" font-weight="bold" font-size="11.00" fill="#000000">PNC_NUMBER</text>
<text text-anchor="start" x="447.0437" y="-717.3" font-family="Helvetica,sans-Serif" font-size="11.00" fill="#000000">[table]</text>
<polygon fill="none" stroke="#000000" points="340,-687.2 340,-709.2 482,-709.2 482,-687.2 340,-687.2"/>
<image xlink:href="../../images/primaryKeys.png" width="11px" height="12px" preserveAspectRatio="xMinYMin meet" x="345" y="-704.2"/>
<text text-anchor="start" x="360" y="-694.3" font-family="Helvetica,sans-Serif" font-size="11.00" fill="#000000">PNC_NUMBER_ID</text>
<polygon fill="none" stroke="#000000" points="340,-665.2 340,-687.2 482,-687.2 482,-665.2 340,-665.2"/>
<image xlink:href="../../images/primaryKeys.png" width="11px" height="12px" preserveAspectRatio="xMinYMin meet" x="345" y="-682.2"/>
<text text-anchor="start" x="360" y="-672.3" font-family="Helvetica,sans-Serif" font-size="11.00" fill="#000000">OFFLOC_ID</text>
<polygon fill="none" stroke="#000000" points="340,-643.2 340,-665.2 482,-665.2 482,-643.2 340,-643.2"/>
<image xlink:href="../../images/primaryKeys.png" width="11px" height="12px" preserveAspectRatio="xMinYMin meet" x="345" y="-660.2"/>
<text text-anchor="start" x="356.1625" y="-650.3" font-family="Helvetica,sans-Serif" font-size="11.00" fill="#000000">TRAINING_SESSION_ID</text>
<polygon fill="none" stroke="#000000" points="340,-624.2 340,-643.2 482,-643.2 482,-624.2 340,-624.2"/>
<text text-anchor="start" x="343" y="-630.3" font-family="Helvetica,sans-Serif" font-size="11.00" fill="#000000">...</text>
<polygon fill="#ffffff" stroke="transparent" points="340,-605.2 340,-624.2 386,-624.2 386,-605.2 340,-605.2"/>
<polygon fill="none" stroke="#000000" points="340,-605.2 340,-624.2 386,-624.2 386,-605.2 340,-605.2"/>
<text text-anchor="start" x="343" y="-611.3" font-family="Helvetica,sans-Serif" font-size="11.00" fill="#000000">&lt; 1</text>
<polygon fill="#ffffff" stroke="transparent" points="386,-605.2 386,-624.2 457,-624.2 457,-605.2 386,-605.2"/>
<polygon fill="none" stroke="#000000" points="386,-605.2 386,-624.2 457,-624.2 457,-605.2 386,-605.2"/>
<text text-anchor="start" x="400.2089" y="-611.3" font-family="Helvetica,sans-Serif" font-size="11.00" fill="#000000">2,555 rows</text>
<polygon fill="#ffffff" stroke="transparent" points="457,-605.2 457,-624.2 482,-624.2 482,-605.2 457,-605.2"/>
<polygon fill="none" stroke="#000000" points="457,-605.2 457,-624.2 482,-624.2 482,-605.2 457,-605.2"/>
<text text-anchor="start" x="472.8862" y="-611.3" font-family="Helvetica,sans-Serif" font-size="11.00" fill="#000000"> &#160;</text>
</a>
</g>
</g>
<!-- PNC_NUMBER&#45;&gt;OFFLOC -->
<g id="edge2" class="edge">
<title>PNC_NUMBER:w&#45;&gt;OFFLOC:e</title>
<path fill="none" stroke="#000000" d="M325.7057,-679.1033C301.3008,-690.3196 302.375,-730.2 268,-730.2"/>
<polygon fill="#000000" stroke="#000000" points="332.1601,-677.7924 340.7166,-679.728 336.08,-676.9962 340,-676.2 340,-676.2 340,-676.2 336.08,-676.9962 339.2834,-672.672 332.1601,-677.7924 332.1601,-677.7924"/>
<ellipse fill="none" stroke="#000000" cx="329.0241" cy="-678.4293" rx="3.2" ry="3.2"/>
</g>
</g>
</svg>
