<?xml version="1.0" encoding="UTF-8" standalone="no"?>
<!DOCTYPE svg PUBLIC "-//W3C//DTD SVG 1.1//EN"
 "http://www.w3.org/Graphics/SVG/1.1/DTD/svg11.dtd">
<!-- Generated by graphviz version 2.40.1 (20161225.0304)
 -->
<!-- Title: oneDegreeRelationshipsDiagram Pages: 1 -->
<svg width="745pt" height="708pt"
 viewBox="0.00 0.00 745.00 708.20" xmlns="http://www.w3.org/2000/svg" xmlns:xlink="http://www.w3.org/1999/xlink">
<g id="graph0" class="graph" transform="scale(1 1) rotate(0) translate(4 704.2)">
<title>oneDegreeRelationshipsDiagram</title>
<polygon fill="#ffffff" stroke="transparent" points="-4,4 -4,-704.2 741,-704.2 741,4 -4,4"/>
<text text-anchor="middle" x="72.4936" y="-7.3" font-family="Helvetica,sans-Serif" font-size="11.00" fill="#000000">Generated by SchemaSpy</text>
<!-- ORGANISATION -->
<g id="node1" class="node">
<title>ORGANISATION</title>
<g id="a_node1"><a xlink:href="../../tables/ORGANISATION.html" xlink:title="ORGANISATION" target="_top">
<polygon fill="#ffffff" stroke="transparent" points="218,-189.7 218,-565.7 456,-565.7 456,-189.7 218,-189.7"/>
<polygon fill="#f5f5f5" stroke="transparent" points="220,-540.7 220,-563.7 454,-563.7 454,-540.7 220,-540.7"/>
<polygon fill="none" stroke="#000000" points="220,-540.7 220,-563.7 454,-563.7 454,-540.7 220,-540.7"/>
<text text-anchor="start" x="225" y="-549.8" font-family="Helvetica,sans-Serif" font-weight="bold" font-size="11.00" fill="#000000">ORGANISATION</text>
<text text-anchor="start" x="419.0437" y="-548.8" font-family="Helvetica,sans-Serif" font-size="11.00" fill="#000000">[table]</text>
<polygon fill="none" stroke="#000000" points="220,-518.7 220,-540.7 381,-540.7 381,-518.7 220,-518.7"/>
<image xlink:href="../../images/primaryKeys.png" width="11px" height="12px" preserveAspectRatio="xMinYMin meet" x="225" y="-535.7"/>
<text text-anchor="start" x="240" y="-525.8" font-family="Helvetica,sans-Serif" font-size="11.00" fill="#000000">ORGANISATION_ID</text>
<polygon fill="none" stroke="#000000" points="381,-518.7 381,-540.7 454,-540.7 454,-518.7 381,-518.7"/>
<text text-anchor="start" x="384" y="-526.4" font-family="Helvetica,sans-Serif" font-size="11.00" fill="#000000">number[38]</text>
<polygon fill="none" stroke="#000000" points="220,-496.7 220,-518.7 381,-518.7 381,-496.7 220,-496.7"/>
<text text-anchor="start" x="240" y="-503.8" font-family="Helvetica,sans-Serif" font-size="11.00" fill="#000000">CODE</text>
<polygon fill="none" stroke="#000000" points="381,-496.7 381,-518.7 454,-518.7 454,-496.7 381,-496.7"/>
<text text-anchor="start" x="384" y="-504.4" font-family="Helvetica,sans-Serif" font-size="11.00" fill="#000000">varchar2[20]</text>
<polygon fill="none" stroke="#000000" points="220,-474.7 220,-496.7 381,-496.7 381,-474.7 220,-474.7"/>
<text text-anchor="start" x="240" y="-481.8" font-family="Helvetica,sans-Serif" font-size="11.00" fill="#000000">DESCRIPTION</text>
<polygon fill="none" stroke="#000000" points="381,-474.7 381,-496.7 454,-496.7 454,-474.7 381,-474.7"/>
<text text-anchor="start" x="383.8791" y="-482.4" font-family="Helvetica,sans-Serif" font-size="11.00" fill="#000000">varchar2[200]</text>
<polygon fill="none" stroke="#000000" points="220,-452.7 220,-474.7 381,-474.7 381,-452.7 220,-452.7"/>
<text text-anchor="start" x="240" y="-459.8" font-family="Helvetica,sans-Serif" font-size="11.00" fill="#000000">CONTACT_NAME</text>
<polygon fill="none" stroke="#000000" points="381,-452.7 381,-474.7 454,-474.7 454,-452.7 381,-452.7"/>
<text text-anchor="start" x="383.8791" y="-460.4" font-family="Helvetica,sans-Serif" font-size="11.00" fill="#000000">varchar2[200]</text>
<polygon fill="none" stroke="#000000" points="220,-430.7 220,-452.7 381,-452.7 381,-430.7 220,-430.7"/>
<image xlink:href="../../images/primaryKeys.png" width="11px" height="12px" preserveAspectRatio="xMinYMin meet" x="225" y="-447.7"/>
<text text-anchor="start" x="240" y="-437.8" font-family="Helvetica,sans-Serif" font-size="11.00" fill="#000000">ADDRESS_ID</text>
<polygon fill="none" stroke="#000000" points="381,-430.7 381,-452.7 454,-452.7 454,-430.7 381,-430.7"/>
<text text-anchor="start" x="384" y="-438.4" font-family="Helvetica,sans-Serif" font-size="11.00" fill="#000000">number[38]</text>
<polygon fill="none" stroke="#000000" points="220,-408.7 220,-430.7 381,-430.7 381,-408.7 220,-408.7"/>
<text text-anchor="start" x="240" y="-415.8" font-family="Helvetica,sans-Serif" font-size="11.00" fill="#000000">PRIVATE</text>
<polygon fill="none" stroke="#000000" points="381,-408.7 381,-430.7 454,-430.7 454,-408.7 381,-408.7"/>
<text text-anchor="start" x="384" y="-416.4" font-family="Helvetica,sans-Serif" font-size="11.00" fill="#000000">number[38]</text>
<polygon fill="none" stroke="#000000" points="220,-386.7 220,-408.7 381,-408.7 381,-386.7 220,-386.7"/>
<text text-anchor="start" x="240" y="-393.8" font-family="Helvetica,sans-Serif" font-size="11.00" fill="#000000">START_DATE</text>
<polygon fill="none" stroke="#000000" points="381,-386.7 381,-408.7 454,-408.7 454,-386.7 381,-386.7"/>
<text text-anchor="start" x="384" y="-394.4" font-family="Helvetica,sans-Serif" font-size="11.00" fill="#000000">date[7]</text>
<polygon fill="none" stroke="#000000" points="220,-364.7 220,-386.7 381,-386.7 381,-364.7 220,-364.7"/>
<text text-anchor="start" x="240" y="-371.8" font-family="Helvetica,sans-Serif" font-size="11.00" fill="#000000">END_DATE</text>
<polygon fill="none" stroke="#000000" points="381,-364.7 381,-386.7 454,-386.7 454,-364.7 381,-364.7"/>
<text text-anchor="start" x="384" y="-372.4" font-family="Helvetica,sans-Serif" font-size="11.00" fill="#000000">date[7]</text>
<polygon fill="none" stroke="#000000" points="220,-342.7 220,-364.7 381,-364.7 381,-342.7 220,-342.7"/>
<text text-anchor="start" x="240" y="-349.8" font-family="Helvetica,sans-Serif" font-size="11.00" fill="#000000">ACTIVE_FLAG</text>
<polygon fill="none" stroke="#000000" points="381,-342.7 381,-364.7 454,-364.7 454,-342.7 381,-342.7"/>
<text text-anchor="start" x="384" y="-350.4" font-family="Helvetica,sans-Serif" font-size="11.00" fill="#000000">number[38]</text>
<polygon fill="none" stroke="#000000" points="220,-320.7 220,-342.7 381,-342.7 381,-320.7 220,-320.7"/>
<text text-anchor="start" x="240" y="-327.8" font-family="Helvetica,sans-Serif" font-size="11.00" fill="#000000">ROW_VERSION</text>
<polygon fill="none" stroke="#000000" points="381,-320.7 381,-342.7 454,-342.7 454,-320.7 381,-320.7"/>
<text text-anchor="start" x="384" y="-328.4" font-family="Helvetica,sans-Serif" font-size="11.00" fill="#000000">number[38]</text>
<polygon fill="none" stroke="#000000" points="220,-298.7 220,-320.7 381,-320.7 381,-298.7 220,-298.7"/>
<text text-anchor="start" x="240" y="-305.8" font-family="Helvetica,sans-Serif" font-size="11.00" fill="#000000">CREATED_BY_USER_ID</text>
<polygon fill="none" stroke="#000000" points="381,-298.7 381,-320.7 454,-320.7 454,-298.7 381,-298.7"/>
<text text-anchor="start" x="384" y="-306.4" font-family="Helvetica,sans-Serif" font-size="11.00" fill="#000000">number[38]</text>
<polygon fill="none" stroke="#000000" points="220,-276.7 220,-298.7 381,-298.7 381,-276.7 220,-276.7"/>
<text text-anchor="start" x="240" y="-283.8" font-family="Helvetica,sans-Serif" font-size="11.00" fill="#000000">CREATED_DATETIME</text>
<polygon fill="none" stroke="#000000" points="381,-276.7 381,-298.7 454,-298.7 454,-276.7 381,-276.7"/>
<text text-anchor="start" x="384" y="-284.4" font-family="Helvetica,sans-Serif" font-size="11.00" fill="#000000">date[7]</text>
<polygon fill="none" stroke="#000000" points="220,-254.7 220,-276.7 381,-276.7 381,-254.7 220,-254.7"/>
<text text-anchor="start" x="238.0235" y="-261.8" font-family="Helvetica,sans-Serif" font-size="11.00" fill="#000000">LAST_UPDATED_USER_ID</text>
<polygon fill="none" stroke="#000000" points="381,-254.7 381,-276.7 454,-276.7 454,-254.7 381,-254.7"/>
<text text-anchor="start" x="384" y="-262.4" font-family="Helvetica,sans-Serif" font-size="11.00" fill="#000000">number[38]</text>
<polygon fill="none" stroke="#000000" points="220,-232.7 220,-254.7 381,-254.7 381,-232.7 220,-232.7"/>
<text text-anchor="start" x="234.0531" y="-239.8" font-family="Helvetica,sans-Serif" font-size="11.00" fill="#000000">LAST_UPDATED_DATETIME</text>
<polygon fill="none" stroke="#000000" points="381,-232.7 381,-254.7 454,-254.7 454,-232.7 381,-232.7"/>
<text text-anchor="start" x="384" y="-240.4" font-family="Helvetica,sans-Serif" font-size="11.00" fill="#000000">date[7]</text>
<polygon fill="none" stroke="#000000" points="220,-210.7 220,-232.7 381,-232.7 381,-210.7 220,-210.7"/>
<image xlink:href="../../images/primaryKeys.png" width="11px" height="12px" preserveAspectRatio="xMinYMin meet" x="225" y="-227.7"/>
<text text-anchor="start" x="240" y="-217.8" font-family="Helvetica,sans-Serif" font-size="11.00" fill="#000000">TRAINING_SESSION_ID</text>
<polygon fill="none" stroke="#000000" points="381,-210.7 381,-232.7 454,-232.7 454,-210.7 381,-210.7"/>
<text text-anchor="start" x="384" y="-218.4" font-family="Helvetica,sans-Serif" font-size="11.00" fill="#000000">number[38]</text>
<polygon fill="#ffffff" stroke="transparent" points="220,-191.7 220,-210.7 289,-210.7 289,-191.7 220,-191.7"/>
<polygon fill="none" stroke="#000000" points="220,-191.7 220,-210.7 289,-210.7 289,-191.7 220,-191.7"/>
<text text-anchor="start" x="223" y="-197.8" font-family="Helvetica,sans-Serif" font-size="11.00" fill="#000000">&lt; 1</text>
<polygon fill="#ffffff" stroke="transparent" points="289,-191.7 289,-210.7 381,-210.7 381,-191.7 289,-191.7"/>
<polygon fill="none" stroke="#000000" points="289,-191.7 289,-210.7 381,-210.7 381,-191.7 289,-191.7"/>
<text text-anchor="start" x="339.4956" y="-197.8" font-family="Helvetica,sans-Serif" font-size="11.00" fill="#000000">38 rows</text>
<polygon fill="#ffffff" stroke="transparent" points="381,-191.7 381,-210.7 454,-210.7 454,-191.7 381,-191.7"/>
<polygon fill="none" stroke="#000000" points="381,-191.7 381,-210.7 454,-210.7 454,-191.7 381,-191.7"/>
<text text-anchor="start" x="435.4053" y="-197.8" font-family="Helvetica,sans-Serif" font-size="11.00" fill="#000000">2 &gt;</text>
<polygon fill="none" stroke="#000000" stroke-width="2" points="219,-190.7 219,-564.7 455,-564.7 455,-190.7 219,-190.7"/>
</a>
</g>
</g>
<!-- ADDRESS -->
<g id="node2" class="node">
<title>ADDRESS</title>
<g id="a_node2"><a xlink:href="../../tables/ADDRESS.html" xlink:title="ADDRESS" target="_top">
<polygon fill="#ffffff" stroke="transparent" points="8,-211.2 8,-338.2 169,-338.2 169,-211.2 8,-211.2"/>
<polygon fill="#f5f5f5" stroke="transparent" points="8.5,-314.7 8.5,-337.7 169.5,-337.7 169.5,-314.7 8.5,-314.7"/>
<polygon fill="none" stroke="#000000" points="8.5,-314.7 8.5,-337.7 169.5,-337.7 169.5,-314.7 8.5,-314.7"/>
<text text-anchor="start" x="13.5" y="-323.8" font-family="Helvetica,sans-Serif" font-weight="bold" font-size="11.00" fill="#000000">ADDRESS</text>
<text text-anchor="start" x="134.5437" y="-322.8" font-family="Helvetica,sans-Serif" font-size="11.00" fill="#000000">[table]</text>
<polygon fill="none" stroke="#000000" points="8.5,-292.7 8.5,-314.7 169.5,-314.7 169.5,-292.7 8.5,-292.7"/>
<image xlink:href="../../images/primaryKeys.png" width="11px" height="12px" preserveAspectRatio="xMinYMin meet" x="13.5" y="-309.7"/>
<text text-anchor="start" x="28.5" y="-299.8" font-family="Helvetica,sans-Serif" font-size="11.00" fill="#000000">ADDRESS_ID</text>
<polygon fill="none" stroke="#000000" points="8.5,-270.7 8.5,-292.7 169.5,-292.7 169.5,-270.7 8.5,-270.7"/>
<image xlink:href="../../images/primaryKeys.png" width="11px" height="12px" preserveAspectRatio="xMinYMin meet" x="13.5" y="-287.7"/>
<text text-anchor="start" x="28.5" y="-277.8" font-family="Helvetica,sans-Serif" font-size="11.00" fill="#000000">PARTITION_AREA_ID</text>
<polygon fill="none" stroke="#000000" points="8.5,-248.7 8.5,-270.7 169.5,-270.7 169.5,-248.7 8.5,-248.7"/>
<image xlink:href="../../images/primaryKeys.png" width="11px" height="12px" preserveAspectRatio="xMinYMin meet" x="13.5" y="-265.7"/>
<text text-anchor="start" x="28.5" y="-255.8" font-family="Helvetica,sans-Serif" font-size="11.00" fill="#000000">TRAINING_SESSION_ID</text>
<polygon fill="none" stroke="#000000" points="8.5,-229.7 8.5,-248.7 169.5,-248.7 169.5,-229.7 8.5,-229.7"/>
<text text-anchor="start" x="11.5" y="-235.8" font-family="Helvetica,sans-Serif" font-size="11.00" fill="#000000">...</text>
<polygon fill="#ffffff" stroke="transparent" points="8.5,-210.7 8.5,-229.7 56.5,-229.7 56.5,-210.7 8.5,-210.7"/>
<polygon fill="none" stroke="#000000" points="8.5,-210.7 8.5,-229.7 56.5,-229.7 56.5,-210.7 8.5,-210.7"/>
<text text-anchor="start" x="11.5" y="-216.8" font-family="Helvetica,sans-Serif" font-size="11.00" fill="#000000">&lt; 1</text>
<polygon fill="#ffffff" stroke="transparent" points="56.5,-210.7 56.5,-229.7 128.5,-229.7 128.5,-210.7 56.5,-210.7"/>
<polygon fill="none" stroke="#000000" points="56.5,-210.7 56.5,-229.7 128.5,-229.7 128.5,-210.7 56.5,-210.7"/>
<text text-anchor="start" x="71.7089" y="-216.8" font-family="Helvetica,sans-Serif" font-size="11.00" fill="#000000">1,950 rows</text>
<polygon fill="#ffffff" stroke="transparent" points="128.5,-210.7 128.5,-229.7 169.5,-229.7 169.5,-210.7 128.5,-210.7"/>
<polygon fill="none" stroke="#000000" points="128.5,-210.7 128.5,-229.7 169.5,-229.7 169.5,-210.7 128.5,-210.7"/>
<text text-anchor="start" x="144.7904" y="-216.8" font-family="Helvetica,sans-Serif" font-size="11.00" fill="#000000">10 &gt;</text>
</a>
</g>
</g>
<!-- ORGANISATION&#45;&gt;ADDRESS -->
<g id="edge1" class="edge">
<title>ORGANISATION:w&#45;&gt;ADDRESS:e</title>
<path fill="none" stroke="#000000" d="M205.7075,-438.5584C167.912,-418.017 228.9432,-303.7 169.5,-303.7"/>
<polygon fill="#000000" stroke="#000000" points="212.1865,-439.9825 219.2271,-445.2161 216.0933,-440.8412 220,-441.7 220,-441.7 220,-441.7 216.0933,-440.8412 220.7729,-438.1839 212.1865,-439.9825 212.1865,-439.9825"/>
<ellipse fill="none" stroke="#000000" cx="209.0611" cy="-439.2955" rx="3.2" ry="3.2"/>
</g>
<!-- PROBATION_AREA -->
<g id="node3" class="node">
<title>PROBATION_AREA</title>
<g id="a_node3"><a xlink:href="../../tables/PROBATION_AREA.html" xlink:title="PROBATION_AREA" target="_top">
<polygon fill="#ffffff" stroke="transparent" points="511,-38.2 511,-385.2 723,-385.2 723,-38.2 511,-38.2"/>
<polygon fill="#f5f5f5" stroke="transparent" points="511,-361.7 511,-384.7 723,-384.7 723,-361.7 511,-361.7"/>
<polygon fill="none" stroke="#000000" points="511,-361.7 511,-384.7 723,-384.7 723,-361.7 511,-361.7"/>
<text text-anchor="start" x="516" y="-370.8" font-family="Helvetica,sans-Serif" font-weight="bold" font-size="11.00" fill="#000000">PROBATION_AREA</text>
<text text-anchor="start" x="688.0437" y="-369.8" font-family="Helvetica,sans-Serif" font-size="11.00" fill="#000000">[table]</text>
<polygon fill="none" stroke="#000000" points="511,-339.7 511,-361.7 723,-361.7 723,-339.7 511,-339.7"/>
<image xlink:href="../../images/primaryKeys.png" width="11px" height="12px" preserveAspectRatio="xMinYMin meet" x="516" y="-356.7"/>
<text text-anchor="start" x="531" y="-346.8" font-family="Helvetica,sans-Serif" font-size="11.00" fill="#000000">PROBATION_AREA_ID</text>
<polygon fill="none" stroke="#000000" points="511,-317.7 511,-339.7 723,-339.7 723,-317.7 511,-317.7"/>
<image xlink:href="../../images/primaryKeys.png" width="11px" height="12px" preserveAspectRatio="xMinYMin meet" x="516" y="-334.7"/>
<text text-anchor="start" x="531" y="-324.8" font-family="Helvetica,sans-Serif" font-size="11.00" fill="#000000">CODE</text>
<polygon fill="none" stroke="#000000" points="511,-295.7 511,-317.7 723,-317.7 723,-295.7 511,-295.7"/>
<image xlink:href="../../images/primaryKeys.png" width="11px" height="12px" preserveAspectRatio="xMinYMin meet" x="516" y="-312.7"/>
<text text-anchor="start" x="531" y="-302.8" font-family="Helvetica,sans-Serif" font-size="11.00" fill="#000000">FORM_20_CODE</text>
<polygon fill="none" stroke="#000000" points="511,-273.7 511,-295.7 723,-295.7 723,-273.7 511,-273.7"/>
<image xlink:href="../../images/primaryKeys.png" width="11px" height="12px" preserveAspectRatio="xMinYMin meet" x="516" y="-290.7"/>
<text text-anchor="start" x="531" y="-280.8" font-family="Helvetica,sans-Serif" font-size="11.00" fill="#000000">HO_AREA_CODE</text>
<polygon fill="none" stroke="#000000" points="511,-251.7 511,-273.7 723,-273.7 723,-251.7 511,-251.7"/>
<image xlink:href="../../images/primaryKeys.png" width="11px" height="12px" preserveAspectRatio="xMinYMin meet" x="516" y="-268.7"/>
<text text-anchor="start" x="531" y="-258.8" font-family="Helvetica,sans-Serif" font-size="11.00" fill="#000000">TRAINING_SESSION_ID</text>
<polygon fill="none" stroke="#000000" points="511,-229.7 511,-251.7 723,-251.7 723,-229.7 511,-229.7"/>
<image xlink:href="../../images/primaryKeys.png" width="11px" height="12px" preserveAspectRatio="xMinYMin meet" x="516" y="-246.7"/>
<text text-anchor="start" x="531" y="-236.8" font-family="Helvetica,sans-Serif" font-size="11.00" fill="#000000">ORGANISATION_ID</text>
<polygon fill="none" stroke="#000000" points="511,-207.7 511,-229.7 723,-229.7 723,-207.7 511,-207.7"/>
<image xlink:href="../../images/primaryKeys.png" width="11px" height="12px" preserveAspectRatio="xMinYMin meet" x="516" y="-224.7"/>
<text text-anchor="start" x="531" y="-214.8" font-family="Helvetica,sans-Serif" font-size="11.00" fill="#000000">ADDRESS_ID</text>
<polygon fill="none" stroke="#000000" points="511,-185.7 511,-207.7 723,-207.7 723,-185.7 511,-185.7"/>
<image xlink:href="../../images/primaryKeys.png" width="11px" height="12px" preserveAspectRatio="xMinYMin meet" x="516" y="-202.7"/>
<text text-anchor="start" x="531" y="-192.8" font-family="Helvetica,sans-Serif" font-size="11.00" fill="#000000">SPG_ACTIVE_ID</text>
<polygon fill="none" stroke="#000000" points="511,-163.7 511,-185.7 723,-185.7 723,-163.7 511,-163.7"/>
<image xlink:href="../../images/primaryKeys.png" width="11px" height="12px" preserveAspectRatio="xMinYMin meet" x="516" y="-180.7"/>
<text text-anchor="start" x="531" y="-170.8" font-family="Helvetica,sans-Serif" font-size="11.00" fill="#000000">INSTITUTION_ID</text>
<polygon fill="none" stroke="#000000" points="511,-141.7 511,-163.7 723,-163.7 723,-141.7 511,-141.7"/>
<image xlink:href="../../images/primaryKeys.png" width="11px" height="12px" preserveAspectRatio="xMinYMin meet" x="516" y="-158.7"/>
<text text-anchor="start" x="531" y="-148.8" font-family="Helvetica,sans-Serif" font-size="11.00" fill="#000000">ESTABLISHMENT</text>
<polygon fill="none" stroke="#000000" points="511,-119.7 511,-141.7 723,-141.7 723,-119.7 511,-119.7"/>
<image xlink:href="../../images/primaryKeys.png" width="11px" height="12px" preserveAspectRatio="xMinYMin meet" x="516" y="-136.7"/>
<text text-anchor="start" x="531" y="-126.8" font-family="Helvetica,sans-Serif" font-size="11.00" fill="#000000">DEFAULT_TRANSFER_TEAM_ID</text>
<polygon fill="none" stroke="#000000" points="511,-97.7 511,-119.7 723,-119.7 723,-97.7 511,-97.7"/>
<image xlink:href="../../images/primaryKeys.png" width="11px" height="12px" preserveAspectRatio="xMinYMin meet" x="516" y="-114.7"/>
<text text-anchor="start" x="531" y="-104.8" font-family="Helvetica,sans-Serif" font-size="11.00" fill="#000000">DEFAULT_COURT_TEAM_ID</text>
<polygon fill="none" stroke="#000000" points="511,-75.7 511,-97.7 723,-97.7 723,-75.7 511,-75.7"/>
<image xlink:href="../../images/primaryKeys.png" width="11px" height="12px" preserveAspectRatio="xMinYMin meet" x="516" y="-92.7"/>
<text text-anchor="start" x="531" y="-82.8" font-family="Helvetica,sans-Serif" font-size="11.00" fill="#000000">DEFAULT_POSTCODE_TEAM_ID</text>
<polygon fill="none" stroke="#000000" points="511,-56.7 511,-75.7 723,-75.7 723,-56.7 511,-56.7"/>
<text text-anchor="start" x="514" y="-62.8" font-family="Helvetica,sans-Serif" font-size="11.00" fill="#000000">...</text>
<polygon fill="#ffffff" stroke="transparent" points="511,-37.7 511,-56.7 589,-56.7 589,-37.7 511,-37.7"/>
<polygon fill="none" stroke="#000000" points="511,-37.7 511,-56.7 589,-56.7 589,-37.7 511,-37.7"/>
<text text-anchor="start" x="514" y="-43.8" font-family="Helvetica,sans-Serif" font-size="11.00" fill="#000000">&lt; 8</text>
<polygon fill="#ffffff" stroke="transparent" points="589,-37.7 589,-56.7 667,-56.7 667,-37.7 589,-37.7"/>
<polygon fill="none" stroke="#000000" points="589,-37.7 589,-56.7 667,-56.7 667,-37.7 589,-37.7"/>
<text text-anchor="start" x="619.3807" y="-43.8" font-family="Helvetica,sans-Serif" font-size="11.00" fill="#000000">223 rows</text>
<polygon fill="#ffffff" stroke="transparent" points="667,-37.7 667,-56.7 723,-56.7 723,-37.7 667,-37.7"/>
<polygon fill="none" stroke="#000000" points="667,-37.7 667,-56.7 723,-56.7 723,-37.7 667,-37.7"/>
<text text-anchor="start" x="698.2904" y="-43.8" font-family="Helvetica,sans-Serif" font-size="11.00" fill="#000000">59 &gt;</text>
</a>
</g>
</g>
<!-- PROBATION_AREA&#45;&gt;ORGANISATION -->
<g id="edge3" class="edge">
<title>PROBATION_AREA:w&#45;&gt;ORGANISATION:e</title>
<path fill="none" stroke="#000000" d="M497.5507,-246.2151C456.73,-286.1693 514.0897,-529.7 454,-529.7"/>
<polygon fill="#000000" stroke="#000000" points="503.5981,-243.7353 512.3659,-244.0308 507.2991,-242.2176 511,-240.7 511,-240.7 511,-240.7 507.2991,-242.2176 509.6341,-237.3692 503.5981,-243.7353 503.5981,-243.7353"/>
<ellipse fill="none" stroke="#000000" cx="500.6374" cy="-244.9494" rx="3.2" ry="3.2"/>
</g>
<!-- PROBATION_AREA&#45;&gt;ADDRESS -->
<g id="edge2" class="edge">
<title>PROBATION_AREA:w&#45;&gt;ADDRESS:e</title>
<path fill="none" stroke="#000000" d="M496.7688,-214.5988C484.7289,-205.9476 483.9104,-186.0256 464,-178.7 358.0545,-139.7198 301.3014,-112.3076 210,-178.7 162.7687,-213.0456 227.8988,-303.7 169.5,-303.7"/>
<polygon fill="#000000" stroke="#000000" points="503.3128,-216.4846 510.0031,-222.1592 507.1564,-217.5923 511,-218.7 511,-218.7 511,-218.7 507.1564,-217.5923 511.9969,-215.2408 503.3128,-216.4846 503.3128,-216.4846"/>
<ellipse fill="none" stroke="#000000" cx="500.238" cy="-215.5985" rx="3.2" ry="3.2"/>
</g>
<!-- USER_ -->
<g id="node4" class="node">
<title>USER_</title>
<g id="a_node4"><a xlink:href="../../tables/USER_.html" xlink:title="USER_" target="_top">
<polygon fill="#ffffff" stroke="transparent" points="505,-459.2 505,-696.2 729,-696.2 729,-459.2 505,-459.2"/>
<polygon fill="#f5f5f5" stroke="transparent" points="505,-672.7 505,-695.7 729,-695.7 729,-672.7 505,-672.7"/>
<polygon fill="none" stroke="#000000" points="505,-672.7 505,-695.7 729,-695.7 729,-672.7 505,-672.7"/>
<text text-anchor="start" x="510" y="-681.8" font-family="Helvetica,sans-Serif" font-weight="bold" font-size="11.00" fill="#000000">USER_</text>
<text text-anchor="start" x="694.0437" y="-680.8" font-family="Helvetica,sans-Serif" font-size="11.00" fill="#000000">[table]</text>
<polygon fill="none" stroke="#000000" points="505,-650.7 505,-672.7 729,-672.7 729,-650.7 505,-650.7"/>
<image xlink:href="../../images/primaryKeys.png" width="11px" height="12px" preserveAspectRatio="xMinYMin meet" x="510" y="-667.7"/>
<text text-anchor="start" x="525" y="-657.8" font-family="Helvetica,sans-Serif" font-size="11.00" fill="#000000">USER_ID</text>
<polygon fill="none" stroke="#000000" points="505,-628.7 505,-650.7 729,-650.7 729,-628.7 505,-628.7"/>
<image xlink:href="../../images/primaryKeys.png" width="11px" height="12px" preserveAspectRatio="xMinYMin meet" x="510" y="-645.7"/>
<text text-anchor="start" x="525" y="-635.8" font-family="Helvetica,sans-Serif" font-size="11.00" fill="#000000">STAFF_ID</text>
<polygon fill="none" stroke="#000000" points="505,-606.7 505,-628.7 729,-628.7 729,-606.7 505,-606.7"/>
<image xlink:href="../../images/primaryKeys.png" width="11px" height="12px" preserveAspectRatio="xMinYMin meet" x="510" y="-623.7"/>
<text text-anchor="start" x="525" y="-613.8" font-family="Helvetica,sans-Serif" font-size="11.00" fill="#000000">PROVIDER_EMPLOYEE_ID</text>
<polygon fill="none" stroke="#000000" points="505,-584.7 505,-606.7 729,-606.7 729,-584.7 505,-584.7"/>
<image xlink:href="../../images/primaryKeys.png" width="11px" height="12px" preserveAspectRatio="xMinYMin meet" x="510" y="-601.7"/>
<text text-anchor="start" x="525" y="-591.8" font-family="Helvetica,sans-Serif" font-size="11.00" fill="#000000">DISTINGUISHED_NAME</text>
<polygon fill="none" stroke="#000000" points="505,-562.7 505,-584.7 729,-584.7 729,-562.7 505,-562.7"/>
<image xlink:href="../../images/primaryKeys.png" width="11px" height="12px" preserveAspectRatio="xMinYMin meet" x="510" y="-579.7"/>
<text text-anchor="start" x="525" y="-569.8" font-family="Helvetica,sans-Serif" font-size="11.00" fill="#000000">EXTERNAL_PROVIDER_ID</text>
<polygon fill="none" stroke="#000000" points="505,-540.7 505,-562.7 729,-562.7 729,-540.7 505,-540.7"/>
<image xlink:href="../../images/primaryKeys.png" width="11px" height="12px" preserveAspectRatio="xMinYMin meet" x="510" y="-557.7"/>
<text text-anchor="start" x="525" y="-547.8" font-family="Helvetica,sans-Serif" font-size="11.00" fill="#000000">TRAINING_SESSION_ID</text>
<polygon fill="none" stroke="#000000" points="505,-518.7 505,-540.7 729,-540.7 729,-518.7 505,-518.7"/>
<image xlink:href="../../images/primaryKeys.png" width="11px" height="12px" preserveAspectRatio="xMinYMin meet" x="510" y="-535.7"/>
<text text-anchor="start" x="525" y="-525.8" font-family="Helvetica,sans-Serif" font-size="11.00" fill="#000000">ORGANISATION_ID</text>
<polygon fill="none" stroke="#000000" points="505,-496.7 505,-518.7 729,-518.7 729,-496.7 505,-496.7"/>
<image xlink:href="../../images/primaryKeys.png" width="11px" height="12px" preserveAspectRatio="xMinYMin meet" x="510" y="-513.7"/>
<text text-anchor="start" x="525" y="-503.8" font-family="Helvetica,sans-Serif" font-size="11.00" fill="#000000">SC_PROVIDER_ID</text>
<polygon fill="none" stroke="#000000" points="505,-477.7 505,-496.7 729,-496.7 729,-477.7 505,-477.7"/>
<text text-anchor="start" x="508" y="-483.8" font-family="Helvetica,sans-Serif" font-size="11.00" fill="#000000">...</text>
<polygon fill="#ffffff" stroke="transparent" points="505,-458.7 505,-477.7 584,-477.7 584,-458.7 505,-458.7"/>
<polygon fill="none" stroke="#000000" points="505,-458.7 505,-477.7 584,-477.7 584,-458.7 505,-458.7"/>
<text text-anchor="start" x="508" y="-464.8" font-family="Helvetica,sans-Serif" font-size="11.00" fill="#000000">&lt; 5</text>
<polygon fill="#ffffff" stroke="transparent" points="584,-458.7 584,-477.7 672,-477.7 672,-458.7 584,-458.7"/>
<polygon fill="none" stroke="#000000" points="584,-458.7 584,-477.7 672,-477.7 672,-458.7 584,-458.7"/>
<text text-anchor="start" x="615.2089" y="-464.8" font-family="Helvetica,sans-Serif" font-size="11.00" fill="#000000">6,968 rows</text>
<polygon fill="#ffffff" stroke="transparent" points="672,-458.7 672,-477.7 729,-477.7 729,-458.7 672,-458.7"/>
<polygon fill="none" stroke="#000000" points="672,-458.7 672,-477.7 729,-477.7 729,-458.7 672,-458.7"/>
<text text-anchor="start" x="704.2904" y="-464.8" font-family="Helvetica,sans-Serif" font-size="11.00" fill="#000000">11 &gt;</text>
</a>
</g>
</g>
<!-- USER_&#45;&gt;ORGANISATION -->
<g id="edge4" class="edge">
<title>USER_:w&#45;&gt;ORGANISATION:e</title>
<path fill="none" stroke="#000000" d="M490.276,-529.7C478.2815,-529.7 470.8229,-529.7 454,-529.7"/>
<polygon fill="#000000" stroke="#000000" points="497,-529.7001 505,-533.3 501,-529.7 505,-529.7 505,-529.7 505,-529.7 501,-529.7 505,-526.1 497,-529.7001 497,-529.7001"/>
<ellipse fill="none" stroke="#000000" cx="493.8" cy="-529.7001" rx="3.2" ry="3.2"/>
</g>
</g>
</svg>
