<?xml version="1.0" encoding="UTF-8" standalone="no"?>
<!DOCTYPE svg PUBLIC "-//W3C//DTD SVG 1.1//EN"
 "http://www.w3.org/Graphics/SVG/1.1/DTD/svg11.dtd">
<!-- Generated by graphviz version 2.40.1 (20161225.0304)
 -->
<!-- Title: twoDegreesRelationshipsDiagram Pages: 1 -->
<svg width="465pt" height="307pt"
 viewBox="0.00 0.00 465.00 307.20" xmlns="http://www.w3.org/2000/svg" xmlns:xlink="http://www.w3.org/1999/xlink">
<g id="graph0" class="graph" transform="scale(1 1) rotate(0) translate(4 303.2)">
<title>twoDegreesRelationshipsDiagram</title>
<polygon fill="#ffffff" stroke="transparent" points="-4,4 -4,-303.2 461,-303.2 461,4 -4,4"/>
<text text-anchor="middle" x="72.4936" y="-7.3" font-family="Helvetica,sans-Serif" font-size="11.00" fill="#000000">Generated by SchemaSpy</text>
<!-- DSS_SEARCH_OFFENDER -->
<g id="node1" class="node">
<title>DSS_SEARCH_OFFENDER</title>
<g id="a_node1"><a xlink:href="../../tables/DSS_SEARCH_OFFENDER.html" xlink:title="DSS_SEARCH_OFFENDER" target="_top">
<polygon fill="#ffffff" stroke="transparent" points="250.5,-234.2 250.5,-295.2 434.5,-295.2 434.5,-234.2 250.5,-234.2"/>
<polygon fill="#f5f5f5" stroke="transparent" points="250.5,-271.7 250.5,-294.7 434.5,-294.7 434.5,-271.7 250.5,-271.7"/>
<polygon fill="none" stroke="#000000" points="250.5,-271.7 250.5,-294.7 434.5,-294.7 434.5,-271.7 250.5,-271.7"/>
<text text-anchor="start" x="255.418" y="-280.8" font-family="Helvetica,sans-Serif" font-weight="bold" font-size="11.00" fill="#000000">DSS_SEARCH_OFFENDER</text>
<text text-anchor="start" x="400.0219" y="-279.8" font-family="Helvetica,sans-Serif" font-size="11.00" fill="#000000">[table]</text>
<polygon fill="none" stroke="#000000" points="250.5,-252.7 250.5,-271.7 434.5,-271.7 434.5,-252.7 250.5,-252.7"/>
<text text-anchor="start" x="253.5" y="-258.8" font-family="Helvetica,sans-Serif" font-size="11.00" fill="#000000">...</text>
<polygon fill="#ffffff" stroke="transparent" points="250.5,-233.7 250.5,-252.7 321.5,-252.7 321.5,-233.7 250.5,-233.7"/>
<polygon fill="none" stroke="#000000" points="250.5,-233.7 250.5,-252.7 321.5,-252.7 321.5,-233.7 250.5,-233.7"/>
<text text-anchor="start" x="253.5" y="-239.8" font-family="Helvetica,sans-Serif" font-size="11.00" fill="#000000">&lt; 1</text>
<polygon fill="#ffffff" stroke="transparent" points="321.5,-233.7 321.5,-252.7 396.5,-252.7 396.5,-233.7 321.5,-233.7"/>
<polygon fill="none" stroke="#000000" points="321.5,-233.7 321.5,-252.7 396.5,-252.7 396.5,-233.7 321.5,-233.7"/>
<text text-anchor="start" x="348.8807" y="-239.8" font-family="Helvetica,sans-Serif" font-size="11.00" fill="#000000">597 rows</text>
<polygon fill="#ffffff" stroke="transparent" points="396.5,-233.7 396.5,-252.7 434.5,-252.7 434.5,-233.7 396.5,-233.7"/>
<polygon fill="none" stroke="#000000" points="396.5,-233.7 396.5,-252.7 434.5,-252.7 434.5,-233.7 396.5,-233.7"/>
<text text-anchor="start" x="425.3862" y="-239.8" font-family="Helvetica,sans-Serif" font-size="11.00" fill="#000000"> &#160;</text>
</a>
</g>
</g>
<!-- OFFLOC -->
<g id="node2" class="node">
<title>OFFLOC</title>
<g id="a_node2"><a xlink:href="../../tables/OFFLOC.html" xlink:title="OFFLOC" target="_top">
<polygon fill="#ffffff" stroke="transparent" points="8,-38.2 8,-231.2 187,-231.2 187,-38.2 8,-38.2"/>
<polygon fill="#f5f5f5" stroke="transparent" points="8.5,-207.7 8.5,-230.7 187.5,-230.7 187.5,-207.7 8.5,-207.7"/>
<polygon fill="none" stroke="#000000" points="8.5,-207.7 8.5,-230.7 187.5,-230.7 187.5,-207.7 8.5,-207.7"/>
<text text-anchor="start" x="13.5" y="-216.8" font-family="Helvetica,sans-Serif" font-weight="bold" font-size="11.00" fill="#000000">OFFLOC</text>
<text text-anchor="start" x="152.5437" y="-215.8" font-family="Helvetica,sans-Serif" font-size="11.00" fill="#000000">[table]</text>
<polygon fill="none" stroke="#000000" points="8.5,-185.7 8.5,-207.7 187.5,-207.7 187.5,-185.7 8.5,-185.7"/>
<image xlink:href="../../images/primaryKeys.png" width="11px" height="12px" preserveAspectRatio="xMinYMin meet" x="13.5" y="-202.7"/>
<text text-anchor="start" x="28.5" y="-192.8" font-family="Helvetica,sans-Serif" font-size="11.00" fill="#000000">OFFLOC_ID</text>
<polygon fill="none" stroke="#000000" points="8.5,-163.7 8.5,-185.7 187.5,-185.7 187.5,-163.7 8.5,-163.7"/>
<image xlink:href="../../images/primaryKeys.png" width="11px" height="12px" preserveAspectRatio="xMinYMin meet" x="13.5" y="-180.7"/>
<text text-anchor="start" x="28.5" y="-170.8" font-family="Helvetica,sans-Serif" font-size="11.00" fill="#000000">SURNAME</text>
<polygon fill="none" stroke="#000000" points="8.5,-141.7 8.5,-163.7 187.5,-163.7 187.5,-141.7 8.5,-141.7"/>
<image xlink:href="../../images/primaryKeys.png" width="11px" height="12px" preserveAspectRatio="xMinYMin meet" x="13.5" y="-158.7"/>
<text text-anchor="start" x="28.5" y="-148.8" font-family="Helvetica,sans-Serif" font-size="11.00" fill="#000000">DOB</text>
<polygon fill="none" stroke="#000000" points="8.5,-119.7 8.5,-141.7 187.5,-141.7 187.5,-119.7 8.5,-119.7"/>
<image xlink:href="../../images/primaryKeys.png" width="11px" height="12px" preserveAspectRatio="xMinYMin meet" x="13.5" y="-136.7"/>
<text text-anchor="start" x="28.5" y="-126.8" font-family="Helvetica,sans-Serif" font-size="11.00" fill="#000000">PRISON_NUMBER</text>
<polygon fill="none" stroke="#000000" points="8.5,-97.7 8.5,-119.7 187.5,-119.7 187.5,-97.7 8.5,-97.7"/>
<image xlink:href="../../images/primaryKeys.png" width="11px" height="12px" preserveAspectRatio="xMinYMin meet" x="13.5" y="-114.7"/>
<text text-anchor="start" x="28.5" y="-104.8" font-family="Helvetica,sans-Serif" font-size="11.00" fill="#000000">NOMIS_NUMBER</text>
<polygon fill="none" stroke="#000000" points="8.5,-75.7 8.5,-97.7 187.5,-97.7 187.5,-75.7 8.5,-75.7"/>
<image xlink:href="../../images/primaryKeys.png" width="11px" height="12px" preserveAspectRatio="xMinYMin meet" x="13.5" y="-92.7"/>
<text text-anchor="start" x="28.5" y="-82.8" font-family="Helvetica,sans-Serif" font-size="11.00" fill="#000000">TRAINING_SESSION_ID</text>
<polygon fill="none" stroke="#000000" points="8.5,-56.7 8.5,-75.7 187.5,-75.7 187.5,-56.7 8.5,-56.7"/>
<text text-anchor="start" x="11.5" y="-62.8" font-family="Helvetica,sans-Serif" font-size="11.00" fill="#000000">...</text>
<polygon fill="#ffffff" stroke="transparent" points="8.5,-37.7 8.5,-56.7 63.5,-56.7 63.5,-37.7 8.5,-37.7"/>
<polygon fill="none" stroke="#000000" points="8.5,-37.7 8.5,-56.7 63.5,-56.7 63.5,-37.7 8.5,-37.7"/>
<text text-anchor="start" x="11.5" y="-43.8" font-family="Helvetica,sans-Serif" font-size="11.00" fill="#000000"> &#160;</text>
<polygon fill="#ffffff" stroke="transparent" points="63.5,-37.7 63.5,-56.7 144.5,-56.7 144.5,-37.7 63.5,-37.7"/>
<polygon fill="none" stroke="#000000" points="63.5,-37.7 63.5,-56.7 144.5,-56.7 144.5,-37.7 63.5,-37.7"/>
<text text-anchor="start" x="87.7089" y="-43.8" font-family="Helvetica,sans-Serif" font-size="11.00" fill="#000000">9,084 rows</text>
<polygon fill="#ffffff" stroke="transparent" points="144.5,-37.7 144.5,-56.7 187.5,-56.7 187.5,-37.7 144.5,-37.7"/>
<polygon fill="none" stroke="#000000" points="144.5,-37.7 144.5,-56.7 187.5,-56.7 187.5,-37.7 144.5,-37.7"/>
<text text-anchor="start" x="168.9053" y="-43.8" font-family="Helvetica,sans-Serif" font-size="11.00" fill="#000000">2 &gt;</text>
</a>
</g>
</g>
<!-- DSS_SEARCH_OFFENDER&#45;&gt;OFFLOC -->
<g id="edge1" class="edge">
<title>DSS_SEARCH_OFFENDER:w&#45;&gt;OFFLOC:e</title>
<path fill="none" stroke="#000000" d="M236.3231,-258.0191C214.1112,-244.2687 221.9167,-196.7 187.5,-196.7"/>
<polygon fill="#000000" stroke="#000000" points="242.7567,-259.6895 249.5953,-265.1845 246.6284,-260.6947 250.5,-261.7 250.5,-261.7 250.5,-261.7 246.6284,-260.6947 251.4047,-258.2155 242.7567,-259.6895 242.7567,-259.6895"/>
<ellipse fill="none" stroke="#000000" cx="239.6594" cy="-258.8853" rx="3.2" ry="3.2"/>
</g>
<!-- PNC_NUMBER -->
<g id="node3" class="node">
<title>PNC_NUMBER</title>
<g id="a_node3"><a xlink:href="../../tables/PNC_NUMBER.html" xlink:title="PNC_NUMBER" target="_top">
<polygon fill="#ffffff" stroke="transparent" points="236,-78.7 236,-212.7 449,-212.7 449,-78.7 236,-78.7"/>
<polygon fill="#f5f5f5" stroke="transparent" points="238.5,-187.7 238.5,-210.7 447.5,-210.7 447.5,-187.7 238.5,-187.7"/>
<polygon fill="none" stroke="#000000" points="238.5,-187.7 238.5,-210.7 447.5,-210.7 447.5,-187.7 238.5,-187.7"/>
<text text-anchor="start" x="243.5" y="-196.8" font-family="Helvetica,sans-Serif" font-weight="bold" font-size="11.00" fill="#000000">PNC_NUMBER</text>
<text text-anchor="start" x="412.5437" y="-195.8" font-family="Helvetica,sans-Serif" font-size="11.00" fill="#000000">[table]</text>
<polygon fill="none" stroke="#000000" points="238.5,-165.7 238.5,-187.7 380.5,-187.7 380.5,-165.7 238.5,-165.7"/>
<image xlink:href="../../images/primaryKeys.png" width="11px" height="12px" preserveAspectRatio="xMinYMin meet" x="243.5" y="-182.7"/>
<text text-anchor="start" x="258.5" y="-172.8" font-family="Helvetica,sans-Serif" font-size="11.00" fill="#000000">PNC_NUMBER_ID</text>
<polygon fill="none" stroke="#000000" points="380.5,-165.7 380.5,-187.7 447.5,-187.7 447.5,-165.7 380.5,-165.7"/>
<text text-anchor="start" x="383.5" y="-173.4" font-family="Helvetica,sans-Serif" font-size="11.00" fill="#000000">number[38]</text>
<polygon fill="none" stroke="#000000" points="238.5,-143.7 238.5,-165.7 380.5,-165.7 380.5,-143.7 238.5,-143.7"/>
<text text-anchor="start" x="258.5" y="-150.8" font-family="Helvetica,sans-Serif" font-size="11.00" fill="#000000">PNC_NUMBER</text>
<polygon fill="none" stroke="#000000" points="380.5,-143.7 380.5,-165.7 447.5,-165.7 447.5,-143.7 380.5,-143.7"/>
<text text-anchor="start" x="383.4365" y="-151.4" font-family="Helvetica,sans-Serif" font-size="11.00" fill="#000000">varchar2[20]</text>
<polygon fill="none" stroke="#000000" points="238.5,-121.7 238.5,-143.7 380.5,-143.7 380.5,-121.7 238.5,-121.7"/>
<image xlink:href="../../images/primaryKeys.png" width="11px" height="12px" preserveAspectRatio="xMinYMin meet" x="243.5" y="-138.7"/>
<text text-anchor="start" x="258.5" y="-128.8" font-family="Helvetica,sans-Serif" font-size="11.00" fill="#000000">OFFLOC_ID</text>
<polygon fill="none" stroke="#000000" points="380.5,-121.7 380.5,-143.7 447.5,-143.7 447.5,-121.7 380.5,-121.7"/>
<text text-anchor="start" x="383.5" y="-129.4" font-family="Helvetica,sans-Serif" font-size="11.00" fill="#000000">number[38]</text>
<polygon fill="none" stroke="#000000" points="238.5,-99.7 238.5,-121.7 380.5,-121.7 380.5,-99.7 238.5,-99.7"/>
<image xlink:href="../../images/primaryKeys.png" width="11px" height="12px" preserveAspectRatio="xMinYMin meet" x="243.5" y="-116.7"/>
<text text-anchor="start" x="254.6625" y="-106.8" font-family="Helvetica,sans-Serif" font-size="11.00" fill="#000000">TRAINING_SESSION_ID</text>
<polygon fill="none" stroke="#000000" points="380.5,-99.7 380.5,-121.7 447.5,-121.7 447.5,-99.7 380.5,-99.7"/>
<text text-anchor="start" x="383.5" y="-107.4" font-family="Helvetica,sans-Serif" font-size="11.00" fill="#000000">number[38]</text>
<polygon fill="#ffffff" stroke="transparent" points="238.5,-80.7 238.5,-99.7 290.5,-99.7 290.5,-80.7 238.5,-80.7"/>
<polygon fill="none" stroke="#000000" points="238.5,-80.7 238.5,-99.7 290.5,-99.7 290.5,-80.7 238.5,-80.7"/>
<text text-anchor="start" x="241.5" y="-86.8" font-family="Helvetica,sans-Serif" font-size="11.00" fill="#000000">&lt; 1</text>
<polygon fill="#ffffff" stroke="transparent" points="290.5,-80.7 290.5,-99.7 380.5,-99.7 380.5,-80.7 290.5,-80.7"/>
<polygon fill="none" stroke="#000000" points="290.5,-80.7 290.5,-99.7 380.5,-99.7 380.5,-80.7 290.5,-80.7"/>
<text text-anchor="start" x="323.7089" y="-86.8" font-family="Helvetica,sans-Serif" font-size="11.00" fill="#000000">2,555 rows</text>
<polygon fill="#ffffff" stroke="transparent" points="380.5,-80.7 380.5,-99.7 447.5,-99.7 447.5,-80.7 380.5,-80.7"/>
<polygon fill="none" stroke="#000000" points="380.5,-80.7 380.5,-99.7 447.5,-99.7 447.5,-80.7 380.5,-80.7"/>
<text text-anchor="start" x="428.9053" y="-86.8" font-family="Helvetica,sans-Serif" font-size="11.00" fill="#000000">0 &gt;</text>
<polygon fill="none" stroke="#000000" stroke-width="2" points="237,-79.7 237,-211.7 448,-211.7 448,-79.7 237,-79.7"/>
</a>
</g>
</g>
<!-- PNC_NUMBER&#45;&gt;OFFLOC -->
<g id="edge2" class="edge">
<title>PNC_NUMBER:w&#45;&gt;OFFLOC:e</title>
<path fill="none" stroke="#000000" d="M224.7779,-137.3027C207.6988,-151.9773 217.9041,-196.7 187.5,-196.7"/>
<polygon fill="#000000" stroke="#000000" points="230.9153,-135.2441 239.6449,-136.1131 234.7077,-133.9721 238.5,-132.7 238.5,-132.7 238.5,-132.7 234.7077,-133.9721 237.3551,-129.2869 230.9153,-135.2441 230.9153,-135.2441"/>
<ellipse fill="none" stroke="#000000" cx="227.8814" cy="-136.2618" rx="3.2" ry="3.2"/>
</g>
</g>
</svg>
