<?xml version="1.0" encoding="UTF-8" standalone="no"?>
<!DOCTYPE svg PUBLIC "-//W3C//DTD SVG 1.1//EN"
 "http://www.w3.org/Graphics/SVG/1.1/DTD/svg11.dtd">
<!-- Generated by graphviz version 2.40.1 (20161225.0304)
 -->
<!-- Title: oneDegreeRelationshipsDiagram Pages: 1 -->
<svg width="587pt" height="751pt"
 viewBox="0.00 0.00 587.00 750.70" xmlns="http://www.w3.org/2000/svg" xmlns:xlink="http://www.w3.org/1999/xlink">
<g id="graph0" class="graph" transform="scale(1 1) rotate(0) translate(4 746.7)">
<title>oneDegreeRelationshipsDiagram</title>
<polygon fill="#ffffff" stroke="transparent" points="-4,4 -4,-746.7 583,-746.7 583,4 -4,4"/>
<text text-anchor="middle" x="72.4936" y="-7.3" font-family="Helvetica,sans-Serif" font-size="11.00" fill="#000000">Generated by SchemaSpy</text>
<!-- PRECON_HISTORY -->
<g id="node1" class="node">
<title>PRECON_HISTORY</title>
<g id="a_node1"><a xlink:href="../../tables/PRECON_HISTORY.html" xlink:title="PRECON_HISTORY" target="_top">
<polygon fill="#ffffff" stroke="transparent" points="269,-252.7 269,-738.7 571,-738.7 571,-252.7 269,-252.7"/>
<polygon fill="#f5f5f5" stroke="transparent" points="271,-713.7 271,-736.7 569,-736.7 569,-713.7 271,-713.7"/>
<polygon fill="none" stroke="#000000" points="271,-713.7 271,-736.7 569,-736.7 569,-713.7 271,-713.7"/>
<text text-anchor="start" x="276" y="-722.8" font-family="Helvetica,sans-Serif" font-weight="bold" font-size="11.00" fill="#000000">PRECON_HISTORY</text>
<text text-anchor="start" x="534.0437" y="-721.8" font-family="Helvetica,sans-Serif" font-size="11.00" fill="#000000">[table]</text>
<polygon fill="none" stroke="#000000" points="271,-691.7 271,-713.7 496,-713.7 496,-691.7 271,-691.7"/>
<image xlink:href="../../images/primaryKeys.png" width="11px" height="12px" preserveAspectRatio="xMinYMin meet" x="276" y="-708.7"/>
<text text-anchor="start" x="291" y="-698.8" font-family="Helvetica,sans-Serif" font-size="11.00" fill="#000000">PRECON_HISTORY_ID</text>
<polygon fill="none" stroke="#000000" points="496,-691.7 496,-713.7 569,-713.7 569,-691.7 496,-691.7"/>
<text text-anchor="start" x="499" y="-699.4" font-family="Helvetica,sans-Serif" font-size="11.00" fill="#000000">number[38]</text>
<polygon fill="none" stroke="#000000" points="271,-669.7 271,-691.7 496,-691.7 496,-669.7 271,-669.7"/>
<text text-anchor="start" x="291" y="-676.8" font-family="Helvetica,sans-Serif" font-size="11.00" fill="#000000">PRECON_TRANSACTION_ID</text>
<polygon fill="none" stroke="#000000" points="496,-669.7 496,-691.7 569,-691.7 569,-669.7 496,-669.7"/>
<text text-anchor="start" x="499" y="-677.4" font-family="Helvetica,sans-Serif" font-size="11.00" fill="#000000">number[38]</text>
<polygon fill="none" stroke="#000000" points="271,-647.7 271,-669.7 496,-669.7 496,-647.7 271,-647.7"/>
<text text-anchor="start" x="291" y="-654.8" font-family="Helvetica,sans-Serif" font-size="11.00" fill="#000000">SOURCE_OFFENDER_CRN</text>
<polygon fill="none" stroke="#000000" points="496,-647.7 496,-669.7 569,-669.7 569,-647.7 496,-647.7"/>
<text text-anchor="start" x="499" y="-655.4" font-family="Helvetica,sans-Serif" font-size="11.00" fill="#000000">char[7]</text>
<polygon fill="none" stroke="#000000" points="271,-625.7 271,-647.7 496,-647.7 496,-625.7 271,-625.7"/>
<text text-anchor="start" x="291" y="-632.8" font-family="Helvetica,sans-Serif" font-size="11.00" fill="#000000">TARGET_OFFENDER_CRN</text>
<polygon fill="none" stroke="#000000" points="496,-625.7 496,-647.7 569,-647.7 569,-625.7 496,-625.7"/>
<text text-anchor="start" x="499" y="-633.4" font-family="Helvetica,sans-Serif" font-size="11.00" fill="#000000">char[7]</text>
<polygon fill="none" stroke="#000000" points="271,-603.7 271,-625.7 496,-625.7 496,-603.7 271,-603.7"/>
<text text-anchor="start" x="291" y="-610.8" font-family="Helvetica,sans-Serif" font-size="11.00" fill="#000000">MERGE_DATE</text>
<polygon fill="none" stroke="#000000" points="496,-603.7 496,-625.7 569,-625.7 569,-603.7 496,-603.7"/>
<text text-anchor="start" x="499" y="-611.4" font-family="Helvetica,sans-Serif" font-size="11.00" fill="#000000">date[7]</text>
<polygon fill="none" stroke="#000000" points="271,-581.7 271,-603.7 496,-603.7 496,-581.7 271,-581.7"/>
<text text-anchor="start" x="291" y="-588.8" font-family="Helvetica,sans-Serif" font-size="11.00" fill="#000000">ALFRESCO_DOCUMENT_ID</text>
<polygon fill="none" stroke="#000000" points="496,-581.7 496,-603.7 569,-603.7 569,-581.7 496,-581.7"/>
<text text-anchor="start" x="499" y="-589.4" font-family="Helvetica,sans-Serif" font-size="11.00" fill="#000000">varchar2[36]</text>
<polygon fill="none" stroke="#000000" points="271,-559.7 271,-581.7 496,-581.7 496,-559.7 271,-559.7"/>
<text text-anchor="start" x="291" y="-566.8" font-family="Helvetica,sans-Serif" font-size="11.00" fill="#000000">IN_TRASHCAN</text>
<polygon fill="none" stroke="#000000" points="496,-559.7 496,-581.7 569,-581.7 569,-559.7 496,-559.7"/>
<text text-anchor="start" x="499" y="-567.4" font-family="Helvetica,sans-Serif" font-size="11.00" fill="#000000">number[38]</text>
<polygon fill="none" stroke="#000000" points="271,-537.7 271,-559.7 496,-559.7 496,-537.7 271,-537.7"/>
<text text-anchor="start" x="290.1613" y="-544.8" font-family="Helvetica,sans-Serif" font-size="11.00" fill="#000000">MOVE_TO_SOURCE_BEFORE_UNDEL</text>
<polygon fill="none" stroke="#000000" points="496,-537.7 496,-559.7 569,-559.7 569,-537.7 496,-537.7"/>
<text text-anchor="start" x="499" y="-545.4" font-family="Helvetica,sans-Serif" font-size="11.00" fill="#000000">number[38]</text>
<polygon fill="none" stroke="#000000" points="271,-515.7 271,-537.7 496,-537.7 496,-515.7 271,-515.7"/>
<text text-anchor="start" x="291" y="-522.8" font-family="Helvetica,sans-Serif" font-size="11.00" fill="#000000">MOVE_FROM_TRASH_TO_TARGET</text>
<polygon fill="none" stroke="#000000" points="496,-515.7 496,-537.7 569,-537.7 569,-515.7 496,-515.7"/>
<text text-anchor="start" x="499" y="-523.4" font-family="Helvetica,sans-Serif" font-size="11.00" fill="#000000">number[38]</text>
<polygon fill="none" stroke="#000000" points="271,-493.7 271,-515.7 496,-515.7 496,-493.7 271,-493.7"/>
<text text-anchor="start" x="291" y="-500.8" font-family="Helvetica,sans-Serif" font-size="11.00" fill="#000000">MOVE_FROM_TARGET_TO_SOURCE</text>
<polygon fill="none" stroke="#000000" points="496,-493.7 496,-515.7 569,-515.7 569,-493.7 496,-493.7"/>
<text text-anchor="start" x="499" y="-501.4" font-family="Helvetica,sans-Serif" font-size="11.00" fill="#000000">number[38]</text>
<polygon fill="none" stroke="#000000" points="271,-471.7 271,-493.7 496,-493.7 496,-471.7 271,-471.7"/>
<text text-anchor="start" x="290.4699" y="-478.8" font-family="Helvetica,sans-Serif" font-size="11.00" fill="#000000">TRASH_DOC_CREATED_BY_USER_ID</text>
<polygon fill="none" stroke="#000000" points="496,-471.7 496,-493.7 569,-493.7 569,-471.7 496,-471.7"/>
<text text-anchor="start" x="499" y="-479.4" font-family="Helvetica,sans-Serif" font-size="11.00" fill="#000000">number[38]</text>
<polygon fill="none" stroke="#000000" points="271,-449.7 271,-471.7 496,-471.7 496,-449.7 271,-449.7"/>
<text text-anchor="start" x="291" y="-456.8" font-family="Helvetica,sans-Serif" font-size="11.00" fill="#000000">TRASH_DOC_CREATED_DATETIME</text>
<polygon fill="none" stroke="#000000" points="496,-449.7 496,-471.7 569,-471.7 569,-449.7 496,-449.7"/>
<text text-anchor="start" x="499" y="-457.4" font-family="Helvetica,sans-Serif" font-size="11.00" fill="#000000">date[7]</text>
<polygon fill="none" stroke="#000000" points="271,-427.7 271,-449.7 496,-449.7 496,-427.7 271,-427.7"/>
<text text-anchor="start" x="291" y="-434.8" font-family="Helvetica,sans-Serif" font-size="11.00" fill="#000000">TRASH_DOC_NAME</text>
<polygon fill="none" stroke="#000000" points="496,-427.7 496,-449.7 569,-449.7 569,-427.7 496,-427.7"/>
<text text-anchor="start" x="498.8791" y="-435.4" font-family="Helvetica,sans-Serif" font-size="11.00" fill="#000000">varchar2[200]</text>
<polygon fill="none" stroke="#000000" points="271,-405.7 271,-427.7 496,-427.7 496,-405.7 271,-405.7"/>
<text text-anchor="start" x="291" y="-412.8" font-family="Helvetica,sans-Serif" font-size="11.00" fill="#000000">TRASH_DOC_EDIT_DATE</text>
<polygon fill="none" stroke="#000000" points="496,-405.7 496,-427.7 569,-427.7 569,-405.7 496,-405.7"/>
<text text-anchor="start" x="499" y="-413.4" font-family="Helvetica,sans-Serif" font-size="11.00" fill="#000000">date[7]</text>
<polygon fill="none" stroke="#000000" points="271,-383.7 271,-405.7 496,-405.7 496,-383.7 271,-383.7"/>
<image xlink:href="../../images/foreignKeys.png" width="11px" height="12px" preserveAspectRatio="xMinYMin meet" x="276" y="-400.7"/>
<text text-anchor="start" x="291" y="-390.8" font-family="Helvetica,sans-Serif" font-size="11.00" fill="#000000">TRASH_DOC_OFFENDER_ID</text>
<polygon fill="none" stroke="#000000" points="496,-383.7 496,-405.7 569,-405.7 569,-383.7 496,-383.7"/>
<text text-anchor="start" x="499" y="-391.4" font-family="Helvetica,sans-Serif" font-size="11.00" fill="#000000">number[38]</text>
<polygon fill="none" stroke="#000000" points="271,-361.7 271,-383.7 496,-383.7 496,-361.7 271,-361.7"/>
<image xlink:href="../../images/primaryKeys.png" width="11px" height="12px" preserveAspectRatio="xMinYMin meet" x="276" y="-378.7"/>
<text text-anchor="start" x="287.418" y="-368.8" font-family="Helvetica,sans-Serif" font-size="11.00" fill="#000000">TRASH_DOC_CREATED_PROVIDER_ID</text>
<polygon fill="none" stroke="#000000" points="496,-361.7 496,-383.7 569,-383.7 569,-361.7 496,-361.7"/>
<text text-anchor="start" x="499" y="-369.4" font-family="Helvetica,sans-Serif" font-size="11.00" fill="#000000">number[38]</text>
<polygon fill="none" stroke="#000000" points="271,-339.7 271,-361.7 496,-361.7 496,-339.7 271,-339.7"/>
<text text-anchor="start" x="284.0525" y="-346.8" font-family="Helvetica,sans-Serif" font-size="11.00" fill="#000000">TRASH_DOC_LAST_UPDATED_USER_ID</text>
<polygon fill="none" stroke="#000000" points="496,-339.7 496,-361.7 569,-361.7 569,-339.7 496,-339.7"/>
<text text-anchor="start" x="499" y="-347.4" font-family="Helvetica,sans-Serif" font-size="11.00" fill="#000000">number[38]</text>
<polygon fill="none" stroke="#000000" points="271,-317.7 271,-339.7 496,-339.7 496,-317.7 271,-317.7"/>
<image xlink:href="../../images/primaryKeys.png" width="11px" height="12px" preserveAspectRatio="xMinYMin meet" x="276" y="-334.7"/>
<text text-anchor="start" x="285.2735" y="-324.8" font-family="Helvetica,sans-Serif" font-size="11.00" fill="#000000">TRASH_DOC_LAST_UPD_PROVIDER_ID</text>
<polygon fill="none" stroke="#000000" points="496,-317.7 496,-339.7 569,-339.7 569,-317.7 496,-317.7"/>
<text text-anchor="start" x="499" y="-325.4" font-family="Helvetica,sans-Serif" font-size="11.00" fill="#000000">number[38]</text>
<polygon fill="none" stroke="#000000" points="271,-295.7 271,-317.7 496,-317.7 496,-295.7 271,-295.7"/>
<text text-anchor="start" x="291" y="-302.8" font-family="Helvetica,sans-Serif" font-size="11.00" fill="#000000">TRASH_DOC_PRECON_DATE</text>
<polygon fill="none" stroke="#000000" points="496,-295.7 496,-317.7 569,-317.7 569,-295.7 496,-295.7"/>
<text text-anchor="start" x="499" y="-303.4" font-family="Helvetica,sans-Serif" font-size="11.00" fill="#000000">date[7]</text>
<polygon fill="none" stroke="#000000" points="271,-273.7 271,-295.7 496,-295.7 496,-273.7 271,-273.7"/>
<text text-anchor="start" x="291" y="-280.8" font-family="Helvetica,sans-Serif" font-size="11.00" fill="#000000">ROW_VERSION</text>
<polygon fill="none" stroke="#000000" points="496,-273.7 496,-295.7 569,-295.7 569,-273.7 496,-273.7"/>
<text text-anchor="start" x="499" y="-281.4" font-family="Helvetica,sans-Serif" font-size="11.00" fill="#000000">number[38]</text>
<polygon fill="#ffffff" stroke="transparent" points="271,-254.7 271,-273.7 369,-273.7 369,-254.7 271,-254.7"/>
<polygon fill="none" stroke="#000000" points="271,-254.7 271,-273.7 369,-273.7 369,-254.7 271,-254.7"/>
<text text-anchor="start" x="274" y="-260.8" font-family="Helvetica,sans-Serif" font-size="11.00" fill="#000000">&lt; 2</text>
<polygon fill="#ffffff" stroke="transparent" points="369,-254.7 369,-273.7 496,-273.7 496,-254.7 369,-254.7"/>
<polygon fill="none" stroke="#000000" points="369,-254.7 369,-273.7 496,-273.7 496,-254.7 369,-254.7"/>
<text text-anchor="start" x="448.3807" y="-260.8" font-family="Helvetica,sans-Serif" font-size="11.00" fill="#000000">267 rows</text>
<polygon fill="#ffffff" stroke="transparent" points="496,-254.7 496,-273.7 569,-273.7 569,-254.7 496,-254.7"/>
<polygon fill="none" stroke="#000000" points="496,-254.7 496,-273.7 569,-273.7 569,-254.7 496,-254.7"/>
<text text-anchor="start" x="550.4053" y="-260.8" font-family="Helvetica,sans-Serif" font-size="11.00" fill="#000000">0 &gt;</text>
<polygon fill="none" stroke="#000000" stroke-width="2" points="270,-253.7 270,-737.7 570,-737.7 570,-253.7 270,-253.7"/>
</a>
</g>
</g>
<!-- PROBATION_AREA -->
<g id="node2" class="node">
<title>PROBATION_AREA</title>
<g id="a_node2"><a xlink:href="../../tables/PROBATION_AREA.html" xlink:title="PROBATION_AREA" target="_top">
<polygon fill="#ffffff" stroke="transparent" points="8,-38.2 8,-385.2 220,-385.2 220,-38.2 8,-38.2"/>
<polygon fill="#f5f5f5" stroke="transparent" points="8,-361.7 8,-384.7 220,-384.7 220,-361.7 8,-361.7"/>
<polygon fill="none" stroke="#000000" points="8,-361.7 8,-384.7 220,-384.7 220,-361.7 8,-361.7"/>
<text text-anchor="start" x="13" y="-370.8" font-family="Helvetica,sans-Serif" font-weight="bold" font-size="11.00" fill="#000000">PROBATION_AREA</text>
<text text-anchor="start" x="185.0437" y="-369.8" font-family="Helvetica,sans-Serif" font-size="11.00" fill="#000000">[table]</text>
<polygon fill="none" stroke="#000000" points="8,-339.7 8,-361.7 220,-361.7 220,-339.7 8,-339.7"/>
<image xlink:href="../../images/primaryKeys.png" width="11px" height="12px" preserveAspectRatio="xMinYMin meet" x="13" y="-356.7"/>
<text text-anchor="start" x="28" y="-346.8" font-family="Helvetica,sans-Serif" font-size="11.00" fill="#000000">PROBATION_AREA_ID</text>
<polygon fill="none" stroke="#000000" points="8,-317.7 8,-339.7 220,-339.7 220,-317.7 8,-317.7"/>
<image xlink:href="../../images/primaryKeys.png" width="11px" height="12px" preserveAspectRatio="xMinYMin meet" x="13" y="-334.7"/>
<text text-anchor="start" x="28" y="-324.8" font-family="Helvetica,sans-Serif" font-size="11.00" fill="#000000">CODE</text>
<polygon fill="none" stroke="#000000" points="8,-295.7 8,-317.7 220,-317.7 220,-295.7 8,-295.7"/>
<image xlink:href="../../images/primaryKeys.png" width="11px" height="12px" preserveAspectRatio="xMinYMin meet" x="13" y="-312.7"/>
<text text-anchor="start" x="28" y="-302.8" font-family="Helvetica,sans-Serif" font-size="11.00" fill="#000000">FORM_20_CODE</text>
<polygon fill="none" stroke="#000000" points="8,-273.7 8,-295.7 220,-295.7 220,-273.7 8,-273.7"/>
<image xlink:href="../../images/primaryKeys.png" width="11px" height="12px" preserveAspectRatio="xMinYMin meet" x="13" y="-290.7"/>
<text text-anchor="start" x="28" y="-280.8" font-family="Helvetica,sans-Serif" font-size="11.00" fill="#000000">HO_AREA_CODE</text>
<polygon fill="none" stroke="#000000" points="8,-251.7 8,-273.7 220,-273.7 220,-251.7 8,-251.7"/>
<image xlink:href="../../images/primaryKeys.png" width="11px" height="12px" preserveAspectRatio="xMinYMin meet" x="13" y="-268.7"/>
<text text-anchor="start" x="28" y="-258.8" font-family="Helvetica,sans-Serif" font-size="11.00" fill="#000000">TRAINING_SESSION_ID</text>
<polygon fill="none" stroke="#000000" points="8,-229.7 8,-251.7 220,-251.7 220,-229.7 8,-229.7"/>
<image xlink:href="../../images/primaryKeys.png" width="11px" height="12px" preserveAspectRatio="xMinYMin meet" x="13" y="-246.7"/>
<text text-anchor="start" x="28" y="-236.8" font-family="Helvetica,sans-Serif" font-size="11.00" fill="#000000">ORGANISATION_ID</text>
<polygon fill="none" stroke="#000000" points="8,-207.7 8,-229.7 220,-229.7 220,-207.7 8,-207.7"/>
<image xlink:href="../../images/primaryKeys.png" width="11px" height="12px" preserveAspectRatio="xMinYMin meet" x="13" y="-224.7"/>
<text text-anchor="start" x="28" y="-214.8" font-family="Helvetica,sans-Serif" font-size="11.00" fill="#000000">ADDRESS_ID</text>
<polygon fill="none" stroke="#000000" points="8,-185.7 8,-207.7 220,-207.7 220,-185.7 8,-185.7"/>
<image xlink:href="../../images/primaryKeys.png" width="11px" height="12px" preserveAspectRatio="xMinYMin meet" x="13" y="-202.7"/>
<text text-anchor="start" x="28" y="-192.8" font-family="Helvetica,sans-Serif" font-size="11.00" fill="#000000">SPG_ACTIVE_ID</text>
<polygon fill="none" stroke="#000000" points="8,-163.7 8,-185.7 220,-185.7 220,-163.7 8,-163.7"/>
<image xlink:href="../../images/primaryKeys.png" width="11px" height="12px" preserveAspectRatio="xMinYMin meet" x="13" y="-180.7"/>
<text text-anchor="start" x="28" y="-170.8" font-family="Helvetica,sans-Serif" font-size="11.00" fill="#000000">INSTITUTION_ID</text>
<polygon fill="none" stroke="#000000" points="8,-141.7 8,-163.7 220,-163.7 220,-141.7 8,-141.7"/>
<image xlink:href="../../images/primaryKeys.png" width="11px" height="12px" preserveAspectRatio="xMinYMin meet" x="13" y="-158.7"/>
<text text-anchor="start" x="28" y="-148.8" font-family="Helvetica,sans-Serif" font-size="11.00" fill="#000000">ESTABLISHMENT</text>
<polygon fill="none" stroke="#000000" points="8,-119.7 8,-141.7 220,-141.7 220,-119.7 8,-119.7"/>
<image xlink:href="../../images/primaryKeys.png" width="11px" height="12px" preserveAspectRatio="xMinYMin meet" x="13" y="-136.7"/>
<text text-anchor="start" x="28" y="-126.8" font-family="Helvetica,sans-Serif" font-size="11.00" fill="#000000">DEFAULT_TRANSFER_TEAM_ID</text>
<polygon fill="none" stroke="#000000" points="8,-97.7 8,-119.7 220,-119.7 220,-97.7 8,-97.7"/>
<image xlink:href="../../images/primaryKeys.png" width="11px" height="12px" preserveAspectRatio="xMinYMin meet" x="13" y="-114.7"/>
<text text-anchor="start" x="28" y="-104.8" font-family="Helvetica,sans-Serif" font-size="11.00" fill="#000000">DEFAULT_COURT_TEAM_ID</text>
<polygon fill="none" stroke="#000000" points="8,-75.7 8,-97.7 220,-97.7 220,-75.7 8,-75.7"/>
<image xlink:href="../../images/primaryKeys.png" width="11px" height="12px" preserveAspectRatio="xMinYMin meet" x="13" y="-92.7"/>
<text text-anchor="start" x="28" y="-82.8" font-family="Helvetica,sans-Serif" font-size="11.00" fill="#000000">DEFAULT_POSTCODE_TEAM_ID</text>
<polygon fill="none" stroke="#000000" points="8,-56.7 8,-75.7 220,-75.7 220,-56.7 8,-56.7"/>
<text text-anchor="start" x="11" y="-62.8" font-family="Helvetica,sans-Serif" font-size="11.00" fill="#000000">...</text>
<polygon fill="#ffffff" stroke="transparent" points="8,-37.7 8,-56.7 86,-56.7 86,-37.7 8,-37.7"/>
<polygon fill="none" stroke="#000000" points="8,-37.7 8,-56.7 86,-56.7 86,-37.7 8,-37.7"/>
<text text-anchor="start" x="11" y="-43.8" font-family="Helvetica,sans-Serif" font-size="11.00" fill="#000000">&lt; 8</text>
<polygon fill="#ffffff" stroke="transparent" points="86,-37.7 86,-56.7 164,-56.7 164,-37.7 86,-37.7"/>
<polygon fill="none" stroke="#000000" points="86,-37.7 86,-56.7 164,-56.7 164,-37.7 86,-37.7"/>
<text text-anchor="start" x="116.3807" y="-43.8" font-family="Helvetica,sans-Serif" font-size="11.00" fill="#000000">223 rows</text>
<polygon fill="#ffffff" stroke="transparent" points="164,-37.7 164,-56.7 220,-56.7 220,-37.7 164,-37.7"/>
<polygon fill="none" stroke="#000000" points="164,-37.7 164,-56.7 220,-56.7 220,-37.7 164,-37.7"/>
<text text-anchor="start" x="195.2904" y="-43.8" font-family="Helvetica,sans-Serif" font-size="11.00" fill="#000000">59 &gt;</text>
</a>
</g>
</g>
<!-- PRECON_HISTORY&#45;&gt;PROBATION_AREA -->
<g id="edge1" class="edge">
<title>PRECON_HISTORY:w&#45;&gt;PROBATION_AREA:e</title>
<path fill="none" stroke="#000000" d="M256.8489,-369.641C244.2843,-363.596 238.9,-350.7 220,-350.7"/>
<polygon fill="#000000" stroke="#000000" points="263.1806,-371.0097 270.2393,-376.2187 267.0903,-371.8548 271,-372.7 271,-372.7 271,-372.7 267.0903,-371.8548 271.7607,-369.1813 263.1806,-371.0097 263.1806,-371.0097"/>
<ellipse fill="none" stroke="#000000" cx="260.0528" cy="-370.3335" rx="3.2" ry="3.2"/>
</g>
<!-- PRECON_HISTORY&#45;&gt;PROBATION_AREA -->
<g id="edge2" class="edge">
<title>PRECON_HISTORY:w&#45;&gt;PROBATION_AREA:e</title>
<path fill="none" stroke="#000000" d="M256.8489,-331.759C244.2843,-337.804 238.9,-350.7 220,-350.7"/>
<polygon fill="#000000" stroke="#000000" points="263.1806,-330.3903 271.7607,-332.2187 267.0903,-329.5452 271,-328.7 271,-328.7 271,-328.7 267.0903,-329.5452 270.2393,-325.1813 263.1806,-330.3903 263.1806,-330.3903"/>
<ellipse fill="none" stroke="#000000" cx="260.0528" cy="-331.0665" rx="3.2" ry="3.2"/>
</g>
</g>
</svg>
