<?xml version="1.0" encoding="UTF-8" standalone="no"?>
<!DOCTYPE svg PUBLIC "-//W3C//DTD SVG 1.1//EN"
 "http://www.w3.org/Graphics/SVG/1.1/DTD/svg11.dtd">
<!-- Generated by graphviz version 2.40.1 (20161225.0304)
 -->
<!-- Title: oneDegreeRelationshipsDiagram Pages: 1 -->
<svg width="523pt" height="655pt"
 viewBox="0.00 0.00 523.00 655.20" xmlns="http://www.w3.org/2000/svg" xmlns:xlink="http://www.w3.org/1999/xlink">
<g id="graph0" class="graph" transform="scale(1 1) rotate(0) translate(4 651.2)">
<title>oneDegreeRelationshipsDiagram</title>
<polygon fill="#ffffff" stroke="transparent" points="-4,4 -4,-651.2 519,-651.2 519,4 -4,4"/>
<text text-anchor="middle" x="72.4936" y="-7.3" font-family="Helvetica,sans-Serif" font-size="11.00" fill="#000000">Generated by SchemaSpy</text>
<!-- PROBATION_AREA_USER -->
<g id="node1" class="node">
<title>PROBATION_AREA_USER</title>
<g id="a_node1"><a xlink:href="../../tables/PROBATION_AREA_USER.html" xlink:title="PROBATION_AREA_USER" target="_top">
<polygon fill="#ffffff" stroke="transparent" points="281,-304.7 281,-526.7 507,-526.7 507,-304.7 281,-304.7"/>
<polygon fill="#f5f5f5" stroke="transparent" points="283,-501.7 283,-524.7 505,-524.7 505,-501.7 283,-501.7"/>
<polygon fill="none" stroke="#000000" points="283,-501.7 283,-524.7 505,-524.7 505,-501.7 283,-501.7"/>
<text text-anchor="start" x="288" y="-510.8" font-family="Helvetica,sans-Serif" font-weight="bold" font-size="11.00" fill="#000000">PROBATION_AREA_USER</text>
<text text-anchor="start" x="470.0437" y="-509.8" font-family="Helvetica,sans-Serif" font-size="11.00" fill="#000000">[table]</text>
<polygon fill="none" stroke="#000000" points="283,-479.7 283,-501.7 444,-501.7 444,-479.7 283,-479.7"/>
<image xlink:href="../../images/primaryKeys.png" width="11px" height="12px" preserveAspectRatio="xMinYMin meet" x="288" y="-496.7"/>
<text text-anchor="start" x="303" y="-486.8" font-family="Helvetica,sans-Serif" font-size="11.00" fill="#000000">USER_ID</text>
<polygon fill="none" stroke="#000000" points="444,-479.7 444,-501.7 505,-501.7 505,-479.7 444,-479.7"/>
<text text-anchor="start" x="446.6865" y="-487.4" font-family="Helvetica,sans-Serif" font-size="11.00" fill="#000000">number[38]</text>
<polygon fill="none" stroke="#000000" points="283,-457.7 283,-479.7 444,-479.7 444,-457.7 283,-457.7"/>
<image xlink:href="../../images/primaryKeys.png" width="11px" height="12px" preserveAspectRatio="xMinYMin meet" x="288" y="-474.7"/>
<text text-anchor="start" x="303" y="-464.8" font-family="Helvetica,sans-Serif" font-size="11.00" fill="#000000">PROBATION_AREA_ID</text>
<polygon fill="none" stroke="#000000" points="444,-457.7 444,-479.7 505,-479.7 505,-457.7 444,-457.7"/>
<text text-anchor="start" x="446.6865" y="-465.4" font-family="Helvetica,sans-Serif" font-size="11.00" fill="#000000">number[38]</text>
<polygon fill="none" stroke="#000000" points="283,-435.7 283,-457.7 444,-457.7 444,-435.7 283,-435.7"/>
<text text-anchor="start" x="303" y="-442.8" font-family="Helvetica,sans-Serif" font-size="11.00" fill="#000000">ROW_VERSION</text>
<polygon fill="none" stroke="#000000" points="444,-435.7 444,-457.7 505,-457.7 505,-435.7 444,-435.7"/>
<text text-anchor="start" x="446.6865" y="-443.4" font-family="Helvetica,sans-Serif" font-size="11.00" fill="#000000">number[38]</text>
<polygon fill="none" stroke="#000000" points="283,-413.7 283,-435.7 444,-435.7 444,-413.7 283,-413.7"/>
<text text-anchor="start" x="303" y="-420.8" font-family="Helvetica,sans-Serif" font-size="11.00" fill="#000000">CREATED_DATETIME</text>
<polygon fill="none" stroke="#000000" points="444,-413.7 444,-435.7 505,-435.7 505,-413.7 444,-413.7"/>
<text text-anchor="start" x="447" y="-421.4" font-family="Helvetica,sans-Serif" font-size="11.00" fill="#000000">date[7]</text>
<polygon fill="none" stroke="#000000" points="283,-391.7 283,-413.7 444,-413.7 444,-391.7 283,-391.7"/>
<text text-anchor="start" x="303" y="-398.8" font-family="Helvetica,sans-Serif" font-size="11.00" fill="#000000">CREATED_BY_USER_ID</text>
<polygon fill="none" stroke="#000000" points="444,-391.7 444,-413.7 505,-413.7 505,-391.7 444,-391.7"/>
<text text-anchor="start" x="446.6865" y="-399.4" font-family="Helvetica,sans-Serif" font-size="11.00" fill="#000000">number[38]</text>
<polygon fill="none" stroke="#000000" points="283,-369.7 283,-391.7 444,-391.7 444,-369.7 283,-369.7"/>
<text text-anchor="start" x="297.0531" y="-376.8" font-family="Helvetica,sans-Serif" font-size="11.00" fill="#000000">LAST_UPDATED_DATETIME</text>
<polygon fill="none" stroke="#000000" points="444,-369.7 444,-391.7 505,-391.7 505,-369.7 444,-369.7"/>
<text text-anchor="start" x="447" y="-377.4" font-family="Helvetica,sans-Serif" font-size="11.00" fill="#000000">date[7]</text>
<polygon fill="none" stroke="#000000" points="283,-347.7 283,-369.7 444,-369.7 444,-347.7 283,-347.7"/>
<text text-anchor="start" x="301.0235" y="-354.8" font-family="Helvetica,sans-Serif" font-size="11.00" fill="#000000">LAST_UPDATED_USER_ID</text>
<polygon fill="none" stroke="#000000" points="444,-347.7 444,-369.7 505,-369.7 505,-347.7 444,-347.7"/>
<text text-anchor="start" x="446.6865" y="-355.4" font-family="Helvetica,sans-Serif" font-size="11.00" fill="#000000">number[38]</text>
<polygon fill="none" stroke="#000000" points="283,-325.7 283,-347.7 444,-347.7 444,-325.7 283,-325.7"/>
<image xlink:href="../../images/primaryKeys.png" width="11px" height="12px" preserveAspectRatio="xMinYMin meet" x="288" y="-342.7"/>
<text text-anchor="start" x="303" y="-332.8" font-family="Helvetica,sans-Serif" font-size="11.00" fill="#000000">TRAINING_SESSION_ID</text>
<polygon fill="none" stroke="#000000" points="444,-325.7 444,-347.7 505,-347.7 505,-325.7 444,-325.7"/>
<text text-anchor="start" x="446.6865" y="-333.4" font-family="Helvetica,sans-Serif" font-size="11.00" fill="#000000">number[38]</text>
<polygon fill="#ffffff" stroke="transparent" points="283,-306.7 283,-325.7 344,-325.7 344,-306.7 283,-306.7"/>
<polygon fill="none" stroke="#000000" points="283,-306.7 283,-325.7 344,-325.7 344,-306.7 283,-306.7"/>
<text text-anchor="start" x="286" y="-312.8" font-family="Helvetica,sans-Serif" font-size="11.00" fill="#000000">&lt; 2</text>
<polygon fill="#ffffff" stroke="transparent" points="344,-306.7 344,-325.7 444,-325.7 444,-306.7 344,-306.7"/>
<polygon fill="none" stroke="#000000" points="344,-306.7 344,-325.7 444,-325.7 444,-306.7 344,-306.7"/>
<text text-anchor="start" x="387.2089" y="-312.8" font-family="Helvetica,sans-Serif" font-size="11.00" fill="#000000">4,363 rows</text>
<polygon fill="#ffffff" stroke="transparent" points="444,-306.7 444,-325.7 505,-325.7 505,-306.7 444,-306.7"/>
<polygon fill="none" stroke="#000000" points="444,-306.7 444,-325.7 505,-325.7 505,-306.7 444,-306.7"/>
<text text-anchor="start" x="486.4053" y="-312.8" font-family="Helvetica,sans-Serif" font-size="11.00" fill="#000000">0 &gt;</text>
<polygon fill="none" stroke="#000000" stroke-width="2" points="282,-305.7 282,-525.7 506,-525.7 506,-305.7 282,-305.7"/>
</a>
</g>
</g>
<!-- PROBATION_AREA -->
<g id="node2" class="node">
<title>PROBATION_AREA</title>
<g id="a_node2"><a xlink:href="../../tables/PROBATION_AREA.html" xlink:title="PROBATION_AREA" target="_top">
<polygon fill="#ffffff" stroke="transparent" points="14,-38.2 14,-385.2 226,-385.2 226,-38.2 14,-38.2"/>
<polygon fill="#f5f5f5" stroke="transparent" points="14,-361.7 14,-384.7 226,-384.7 226,-361.7 14,-361.7"/>
<polygon fill="none" stroke="#000000" points="14,-361.7 14,-384.7 226,-384.7 226,-361.7 14,-361.7"/>
<text text-anchor="start" x="19" y="-370.8" font-family="Helvetica,sans-Serif" font-weight="bold" font-size="11.00" fill="#000000">PROBATION_AREA</text>
<text text-anchor="start" x="191.0437" y="-369.8" font-family="Helvetica,sans-Serif" font-size="11.00" fill="#000000">[table]</text>
<polygon fill="none" stroke="#000000" points="14,-339.7 14,-361.7 226,-361.7 226,-339.7 14,-339.7"/>
<image xlink:href="../../images/primaryKeys.png" width="11px" height="12px" preserveAspectRatio="xMinYMin meet" x="19" y="-356.7"/>
<text text-anchor="start" x="34" y="-346.8" font-family="Helvetica,sans-Serif" font-size="11.00" fill="#000000">PROBATION_AREA_ID</text>
<polygon fill="none" stroke="#000000" points="14,-317.7 14,-339.7 226,-339.7 226,-317.7 14,-317.7"/>
<image xlink:href="../../images/primaryKeys.png" width="11px" height="12px" preserveAspectRatio="xMinYMin meet" x="19" y="-334.7"/>
<text text-anchor="start" x="34" y="-324.8" font-family="Helvetica,sans-Serif" font-size="11.00" fill="#000000">CODE</text>
<polygon fill="none" stroke="#000000" points="14,-295.7 14,-317.7 226,-317.7 226,-295.7 14,-295.7"/>
<image xlink:href="../../images/primaryKeys.png" width="11px" height="12px" preserveAspectRatio="xMinYMin meet" x="19" y="-312.7"/>
<text text-anchor="start" x="34" y="-302.8" font-family="Helvetica,sans-Serif" font-size="11.00" fill="#000000">FORM_20_CODE</text>
<polygon fill="none" stroke="#000000" points="14,-273.7 14,-295.7 226,-295.7 226,-273.7 14,-273.7"/>
<image xlink:href="../../images/primaryKeys.png" width="11px" height="12px" preserveAspectRatio="xMinYMin meet" x="19" y="-290.7"/>
<text text-anchor="start" x="34" y="-280.8" font-family="Helvetica,sans-Serif" font-size="11.00" fill="#000000">HO_AREA_CODE</text>
<polygon fill="none" stroke="#000000" points="14,-251.7 14,-273.7 226,-273.7 226,-251.7 14,-251.7"/>
<image xlink:href="../../images/primaryKeys.png" width="11px" height="12px" preserveAspectRatio="xMinYMin meet" x="19" y="-268.7"/>
<text text-anchor="start" x="34" y="-258.8" font-family="Helvetica,sans-Serif" font-size="11.00" fill="#000000">TRAINING_SESSION_ID</text>
<polygon fill="none" stroke="#000000" points="14,-229.7 14,-251.7 226,-251.7 226,-229.7 14,-229.7"/>
<image xlink:href="../../images/primaryKeys.png" width="11px" height="12px" preserveAspectRatio="xMinYMin meet" x="19" y="-246.7"/>
<text text-anchor="start" x="34" y="-236.8" font-family="Helvetica,sans-Serif" font-size="11.00" fill="#000000">ORGANISATION_ID</text>
<polygon fill="none" stroke="#000000" points="14,-207.7 14,-229.7 226,-229.7 226,-207.7 14,-207.7"/>
<image xlink:href="../../images/primaryKeys.png" width="11px" height="12px" preserveAspectRatio="xMinYMin meet" x="19" y="-224.7"/>
<text text-anchor="start" x="34" y="-214.8" font-family="Helvetica,sans-Serif" font-size="11.00" fill="#000000">ADDRESS_ID</text>
<polygon fill="none" stroke="#000000" points="14,-185.7 14,-207.7 226,-207.7 226,-185.7 14,-185.7"/>
<image xlink:href="../../images/primaryKeys.png" width="11px" height="12px" preserveAspectRatio="xMinYMin meet" x="19" y="-202.7"/>
<text text-anchor="start" x="34" y="-192.8" font-family="Helvetica,sans-Serif" font-size="11.00" fill="#000000">SPG_ACTIVE_ID</text>
<polygon fill="none" stroke="#000000" points="14,-163.7 14,-185.7 226,-185.7 226,-163.7 14,-163.7"/>
<image xlink:href="../../images/primaryKeys.png" width="11px" height="12px" preserveAspectRatio="xMinYMin meet" x="19" y="-180.7"/>
<text text-anchor="start" x="34" y="-170.8" font-family="Helvetica,sans-Serif" font-size="11.00" fill="#000000">INSTITUTION_ID</text>
<polygon fill="none" stroke="#000000" points="14,-141.7 14,-163.7 226,-163.7 226,-141.7 14,-141.7"/>
<image xlink:href="../../images/primaryKeys.png" width="11px" height="12px" preserveAspectRatio="xMinYMin meet" x="19" y="-158.7"/>
<text text-anchor="start" x="34" y="-148.8" font-family="Helvetica,sans-Serif" font-size="11.00" fill="#000000">ESTABLISHMENT</text>
<polygon fill="none" stroke="#000000" points="14,-119.7 14,-141.7 226,-141.7 226,-119.7 14,-119.7"/>
<image xlink:href="../../images/primaryKeys.png" width="11px" height="12px" preserveAspectRatio="xMinYMin meet" x="19" y="-136.7"/>
<text text-anchor="start" x="34" y="-126.8" font-family="Helvetica,sans-Serif" font-size="11.00" fill="#000000">DEFAULT_TRANSFER_TEAM_ID</text>
<polygon fill="none" stroke="#000000" points="14,-97.7 14,-119.7 226,-119.7 226,-97.7 14,-97.7"/>
<image xlink:href="../../images/primaryKeys.png" width="11px" height="12px" preserveAspectRatio="xMinYMin meet" x="19" y="-114.7"/>
<text text-anchor="start" x="34" y="-104.8" font-family="Helvetica,sans-Serif" font-size="11.00" fill="#000000">DEFAULT_COURT_TEAM_ID</text>
<polygon fill="none" stroke="#000000" points="14,-75.7 14,-97.7 226,-97.7 226,-75.7 14,-75.7"/>
<image xlink:href="../../images/primaryKeys.png" width="11px" height="12px" preserveAspectRatio="xMinYMin meet" x="19" y="-92.7"/>
<text text-anchor="start" x="34" y="-82.8" font-family="Helvetica,sans-Serif" font-size="11.00" fill="#000000">DEFAULT_POSTCODE_TEAM_ID</text>
<polygon fill="none" stroke="#000000" points="14,-56.7 14,-75.7 226,-75.7 226,-56.7 14,-56.7"/>
<text text-anchor="start" x="17" y="-62.8" font-family="Helvetica,sans-Serif" font-size="11.00" fill="#000000">...</text>
<polygon fill="#ffffff" stroke="transparent" points="14,-37.7 14,-56.7 92,-56.7 92,-37.7 14,-37.7"/>
<polygon fill="none" stroke="#000000" points="14,-37.7 14,-56.7 92,-56.7 92,-37.7 14,-37.7"/>
<text text-anchor="start" x="17" y="-43.8" font-family="Helvetica,sans-Serif" font-size="11.00" fill="#000000">&lt; 8</text>
<polygon fill="#ffffff" stroke="transparent" points="92,-37.7 92,-56.7 170,-56.7 170,-37.7 92,-37.7"/>
<polygon fill="none" stroke="#000000" points="92,-37.7 92,-56.7 170,-56.7 170,-37.7 92,-37.7"/>
<text text-anchor="start" x="122.3807" y="-43.8" font-family="Helvetica,sans-Serif" font-size="11.00" fill="#000000">223 rows</text>
<polygon fill="#ffffff" stroke="transparent" points="170,-37.7 170,-56.7 226,-56.7 226,-37.7 170,-37.7"/>
<polygon fill="none" stroke="#000000" points="170,-37.7 170,-56.7 226,-56.7 226,-37.7 170,-37.7"/>
<text text-anchor="start" x="201.2904" y="-43.8" font-family="Helvetica,sans-Serif" font-size="11.00" fill="#000000">59 &gt;</text>
</a>
</g>
</g>
<!-- PROBATION_AREA_USER&#45;&gt;PROBATION_AREA -->
<g id="edge1" class="edge">
<title>PROBATION_AREA_USER:w&#45;&gt;PROBATION_AREA:e</title>
<path fill="none" stroke="#000000" d="M268.6506,-465.2957C235.626,-445.9484 278.3273,-350.7 226,-350.7"/>
<polygon fill="#000000" stroke="#000000" points="275.2161,-466.8533 282.169,-472.2028 279.108,-467.7766 283,-468.7 283,-468.7 283,-468.7 279.108,-467.7766 283.831,-465.1972 275.2161,-466.8533 275.2161,-466.8533"/>
<ellipse fill="none" stroke="#000000" cx="272.1025" cy="-466.1146" rx="3.2" ry="3.2"/>
</g>
<!-- USER_ -->
<g id="node3" class="node">
<title>USER_</title>
<g id="a_node3"><a xlink:href="../../tables/USER_.html" xlink:title="USER_" target="_top">
<polygon fill="#ffffff" stroke="transparent" points="8,-406.2 8,-643.2 232,-643.2 232,-406.2 8,-406.2"/>
<polygon fill="#f5f5f5" stroke="transparent" points="8,-619.7 8,-642.7 232,-642.7 232,-619.7 8,-619.7"/>
<polygon fill="none" stroke="#000000" points="8,-619.7 8,-642.7 232,-642.7 232,-619.7 8,-619.7"/>
<text text-anchor="start" x="13" y="-628.8" font-family="Helvetica,sans-Serif" font-weight="bold" font-size="11.00" fill="#000000">USER_</text>
<text text-anchor="start" x="197.0437" y="-627.8" font-family="Helvetica,sans-Serif" font-size="11.00" fill="#000000">[table]</text>
<polygon fill="none" stroke="#000000" points="8,-597.7 8,-619.7 232,-619.7 232,-597.7 8,-597.7"/>
<image xlink:href="../../images/primaryKeys.png" width="11px" height="12px" preserveAspectRatio="xMinYMin meet" x="13" y="-614.7"/>
<text text-anchor="start" x="28" y="-604.8" font-family="Helvetica,sans-Serif" font-size="11.00" fill="#000000">USER_ID</text>
<polygon fill="none" stroke="#000000" points="8,-575.7 8,-597.7 232,-597.7 232,-575.7 8,-575.7"/>
<image xlink:href="../../images/primaryKeys.png" width="11px" height="12px" preserveAspectRatio="xMinYMin meet" x="13" y="-592.7"/>
<text text-anchor="start" x="28" y="-582.8" font-family="Helvetica,sans-Serif" font-size="11.00" fill="#000000">STAFF_ID</text>
<polygon fill="none" stroke="#000000" points="8,-553.7 8,-575.7 232,-575.7 232,-553.7 8,-553.7"/>
<image xlink:href="../../images/primaryKeys.png" width="11px" height="12px" preserveAspectRatio="xMinYMin meet" x="13" y="-570.7"/>
<text text-anchor="start" x="28" y="-560.8" font-family="Helvetica,sans-Serif" font-size="11.00" fill="#000000">PROVIDER_EMPLOYEE_ID</text>
<polygon fill="none" stroke="#000000" points="8,-531.7 8,-553.7 232,-553.7 232,-531.7 8,-531.7"/>
<image xlink:href="../../images/primaryKeys.png" width="11px" height="12px" preserveAspectRatio="xMinYMin meet" x="13" y="-548.7"/>
<text text-anchor="start" x="28" y="-538.8" font-family="Helvetica,sans-Serif" font-size="11.00" fill="#000000">DISTINGUISHED_NAME</text>
<polygon fill="none" stroke="#000000" points="8,-509.7 8,-531.7 232,-531.7 232,-509.7 8,-509.7"/>
<image xlink:href="../../images/primaryKeys.png" width="11px" height="12px" preserveAspectRatio="xMinYMin meet" x="13" y="-526.7"/>
<text text-anchor="start" x="28" y="-516.8" font-family="Helvetica,sans-Serif" font-size="11.00" fill="#000000">EXTERNAL_PROVIDER_ID</text>
<polygon fill="none" stroke="#000000" points="8,-487.7 8,-509.7 232,-509.7 232,-487.7 8,-487.7"/>
<image xlink:href="../../images/primaryKeys.png" width="11px" height="12px" preserveAspectRatio="xMinYMin meet" x="13" y="-504.7"/>
<text text-anchor="start" x="28" y="-494.8" font-family="Helvetica,sans-Serif" font-size="11.00" fill="#000000">TRAINING_SESSION_ID</text>
<polygon fill="none" stroke="#000000" points="8,-465.7 8,-487.7 232,-487.7 232,-465.7 8,-465.7"/>
<image xlink:href="../../images/primaryKeys.png" width="11px" height="12px" preserveAspectRatio="xMinYMin meet" x="13" y="-482.7"/>
<text text-anchor="start" x="28" y="-472.8" font-family="Helvetica,sans-Serif" font-size="11.00" fill="#000000">ORGANISATION_ID</text>
<polygon fill="none" stroke="#000000" points="8,-443.7 8,-465.7 232,-465.7 232,-443.7 8,-443.7"/>
<image xlink:href="../../images/primaryKeys.png" width="11px" height="12px" preserveAspectRatio="xMinYMin meet" x="13" y="-460.7"/>
<text text-anchor="start" x="28" y="-450.8" font-family="Helvetica,sans-Serif" font-size="11.00" fill="#000000">SC_PROVIDER_ID</text>
<polygon fill="none" stroke="#000000" points="8,-424.7 8,-443.7 232,-443.7 232,-424.7 8,-424.7"/>
<text text-anchor="start" x="11" y="-430.8" font-family="Helvetica,sans-Serif" font-size="11.00" fill="#000000">...</text>
<polygon fill="#ffffff" stroke="transparent" points="8,-405.7 8,-424.7 87,-424.7 87,-405.7 8,-405.7"/>
<polygon fill="none" stroke="#000000" points="8,-405.7 8,-424.7 87,-424.7 87,-405.7 8,-405.7"/>
<text text-anchor="start" x="11" y="-411.8" font-family="Helvetica,sans-Serif" font-size="11.00" fill="#000000">&lt; 5</text>
<polygon fill="#ffffff" stroke="transparent" points="87,-405.7 87,-424.7 175,-424.7 175,-405.7 87,-405.7"/>
<polygon fill="none" stroke="#000000" points="87,-405.7 87,-424.7 175,-424.7 175,-405.7 87,-405.7"/>
<text text-anchor="start" x="118.2089" y="-411.8" font-family="Helvetica,sans-Serif" font-size="11.00" fill="#000000">7,012 rows</text>
<polygon fill="#ffffff" stroke="transparent" points="175,-405.7 175,-424.7 232,-424.7 232,-405.7 175,-405.7"/>
<polygon fill="none" stroke="#000000" points="175,-405.7 175,-424.7 232,-424.7 232,-405.7 175,-405.7"/>
<text text-anchor="start" x="207.2904" y="-411.8" font-family="Helvetica,sans-Serif" font-size="11.00" fill="#000000">11 &gt;</text>
</a>
</g>
</g>
<!-- PROBATION_AREA_USER&#45;&gt;USER_ -->
<g id="edge2" class="edge">
<title>PROBATION_AREA_USER:w&#45;&gt;USER_:e</title>
<path fill="none" stroke="#000000" d="M268.6581,-494.3609C237.8728,-514.278 283.1074,-608.7 232,-608.7"/>
<polygon fill="#000000" stroke="#000000" points="275.2485,-492.6787 283.8904,-494.1882 279.1243,-491.6893 283,-490.7 283,-490.7 283,-490.7 279.1243,-491.6893 282.1096,-487.2118 275.2485,-492.6787 275.2485,-492.6787"/>
<ellipse fill="none" stroke="#000000" cx="272.148" cy="-493.4701" rx="3.2" ry="3.2"/>
</g>
</g>
</svg>
