<?xml version="1.0" encoding="UTF-8" standalone="no"?>
<!DOCTYPE svg PUBLIC "-//W3C//DTD SVG 1.1//EN"
 "http://www.w3.org/Graphics/SVG/1.1/DTD/svg11.dtd">
<!-- Generated by graphviz version 2.40.1 (20161225.0304)
 -->
<!-- Title: oneDegreeRelationshipsDiagram Pages: 1 -->
<svg width="888pt" height="716pt"
 viewBox="0.00 0.00 888.00 715.93" xmlns="http://www.w3.org/2000/svg" xmlns:xlink="http://www.w3.org/1999/xlink">
<g id="graph0" class="graph" transform="scale(1 1) rotate(0) translate(4 711.9308)">
<title>oneDegreeRelationshipsDiagram</title>
<polygon fill="#ffffff" stroke="transparent" points="-4,4 -4,-711.9308 884,-711.9308 884,4 -4,4"/>
<text text-anchor="middle" x="72.4936" y="-7.3" font-family="Helvetica,sans-Serif" font-size="11.00" fill="#000000">Generated by SchemaSpy</text>
<!-- PROPOSAL -->
<g id="node1" class="node">
<title>PROPOSAL</title>
<g id="a_node1"><a xlink:href="../../tables/PROPOSAL.html" xlink:title="PROPOSAL" target="_top">
<polygon fill="#ffffff" stroke="transparent" points="318,-441.3402 318,-656.3402 491,-656.3402 491,-441.3402 318,-441.3402"/>
<polygon fill="#f5f5f5" stroke="transparent" points="318.5,-632.8402 318.5,-655.8402 491.5,-655.8402 491.5,-632.8402 318.5,-632.8402"/>
<polygon fill="none" stroke="#000000" points="318.5,-632.8402 318.5,-655.8402 491.5,-655.8402 491.5,-632.8402 318.5,-632.8402"/>
<text text-anchor="start" x="323.5" y="-641.9402" font-family="Helvetica,sans-Serif" font-weight="bold" font-size="11.00" fill="#000000">PROPOSAL</text>
<text text-anchor="start" x="456.5437" y="-640.9402" font-family="Helvetica,sans-Serif" font-size="11.00" fill="#000000">[table]</text>
<polygon fill="none" stroke="#000000" points="318.5,-610.8402 318.5,-632.8402 491.5,-632.8402 491.5,-610.8402 318.5,-610.8402"/>
<image xlink:href="../../images/primaryKeys.png" width="11px" height="12px" preserveAspectRatio="xMinYMin meet" x="323.5" y="-627.84"/>
<text text-anchor="start" x="338.5" y="-617.9402" font-family="Helvetica,sans-Serif" font-size="11.00" fill="#000000">PROPOSAL_ID</text>
<polygon fill="none" stroke="#000000" points="318.5,-588.8402 318.5,-610.8402 491.5,-610.8402 491.5,-588.8402 318.5,-588.8402"/>
<image xlink:href="../../images/primaryKeys.png" width="11px" height="12px" preserveAspectRatio="xMinYMin meet" x="323.5" y="-605.84"/>
<text text-anchor="start" x="338.5" y="-595.9402" font-family="Helvetica,sans-Serif" font-size="11.00" fill="#000000">COURT_REPORT_ID</text>
<polygon fill="none" stroke="#000000" points="318.5,-566.8402 318.5,-588.8402 491.5,-588.8402 491.5,-566.8402 318.5,-566.8402"/>
<image xlink:href="../../images/primaryKeys.png" width="11px" height="12px" preserveAspectRatio="xMinYMin meet" x="323.5" y="-583.84"/>
<text text-anchor="start" x="338.5" y="-573.9402" font-family="Helvetica,sans-Serif" font-size="11.00" fill="#000000">PARTITION_AREA_ID</text>
<polygon fill="none" stroke="#000000" points="318.5,-544.8402 318.5,-566.8402 491.5,-566.8402 491.5,-544.8402 318.5,-544.8402"/>
<image xlink:href="../../images/primaryKeys.png" width="11px" height="12px" preserveAspectRatio="xMinYMin meet" x="323.5" y="-561.84"/>
<text text-anchor="start" x="333.3457" y="-551.9402" font-family="Helvetica,sans-Serif" font-size="11.00" fill="#000000">LEVEL_OF_SERIOUSNESS_ID</text>
<polygon fill="none" stroke="#000000" points="318.5,-522.8402 318.5,-544.8402 491.5,-544.8402 491.5,-522.8402 318.5,-522.8402"/>
<image xlink:href="../../images/primaryKeys.png" width="11px" height="12px" preserveAspectRatio="xMinYMin meet" x="323.5" y="-539.84"/>
<text text-anchor="start" x="338.5" y="-529.9402" font-family="Helvetica,sans-Serif" font-size="11.00" fill="#000000">PROPOSAL_TYPE_ID</text>
<polygon fill="none" stroke="#000000" points="318.5,-500.8402 318.5,-522.8402 491.5,-522.8402 491.5,-500.8402 318.5,-500.8402"/>
<image xlink:href="../../images/primaryKeys.png" width="11px" height="12px" preserveAspectRatio="xMinYMin meet" x="323.5" y="-517.84"/>
<text text-anchor="start" x="338.5" y="-507.9402" font-family="Helvetica,sans-Serif" font-size="11.00" fill="#000000">PROPOSED_TIER_ID</text>
<polygon fill="none" stroke="#000000" points="318.5,-478.8402 318.5,-500.8402 491.5,-500.8402 491.5,-478.8402 318.5,-478.8402"/>
<image xlink:href="../../images/primaryKeys.png" width="11px" height="12px" preserveAspectRatio="xMinYMin meet" x="323.5" y="-495.84"/>
<text text-anchor="start" x="338.5" y="-485.9402" font-family="Helvetica,sans-Serif" font-size="11.00" fill="#000000">TRAINING_SESSION_ID</text>
<polygon fill="none" stroke="#000000" points="318.5,-459.8402 318.5,-478.8402 491.5,-478.8402 491.5,-459.8402 318.5,-459.8402"/>
<text text-anchor="start" x="321.5" y="-465.9402" font-family="Helvetica,sans-Serif" font-size="11.00" fill="#000000">...</text>
<polygon fill="#ffffff" stroke="transparent" points="318.5,-440.8402 318.5,-459.8402 379.5,-459.8402 379.5,-440.8402 318.5,-440.8402"/>
<polygon fill="none" stroke="#000000" points="318.5,-440.8402 318.5,-459.8402 379.5,-459.8402 379.5,-440.8402 318.5,-440.8402"/>
<text text-anchor="start" x="321.5" y="-446.9402" font-family="Helvetica,sans-Serif" font-size="11.00" fill="#000000">&lt; 5</text>
<polygon fill="#ffffff" stroke="transparent" points="379.5,-440.8402 379.5,-459.8402 449.5,-459.8402 449.5,-440.8402 379.5,-440.8402"/>
<polygon fill="none" stroke="#000000" points="379.5,-440.8402 379.5,-459.8402 449.5,-459.8402 449.5,-440.8402 379.5,-440.8402"/>
<text text-anchor="start" x="401.8807" y="-446.9402" font-family="Helvetica,sans-Serif" font-size="11.00" fill="#000000">123 rows</text>
<polygon fill="#ffffff" stroke="transparent" points="449.5,-440.8402 449.5,-459.8402 491.5,-459.8402 491.5,-440.8402 449.5,-440.8402"/>
<polygon fill="none" stroke="#000000" points="449.5,-440.8402 449.5,-459.8402 491.5,-459.8402 491.5,-440.8402 449.5,-440.8402"/>
<text text-anchor="start" x="472.9053" y="-446.9402" font-family="Helvetica,sans-Serif" font-size="11.00" fill="#000000">1 &gt;</text>
</a>
</g>
</g>
<!-- R_STANDARD_REFERENCE_LIST -->
<g id="node2" class="node">
<title>R_STANDARD_REFERENCE_LIST</title>
<g id="a_node2"><a xlink:href="../../tables/R_STANDARD_REFERENCE_LIST.html" xlink:title="R_STANDARD_REFERENCE_LIST" target="_top">
<polygon fill="#ffffff" stroke="transparent" points="8,-205.3402 8,-354.3402 228,-354.3402 228,-205.3402 8,-205.3402"/>
<polygon fill="#f5f5f5" stroke="transparent" points="8,-330.8402 8,-353.8402 228,-353.8402 228,-330.8402 8,-330.8402"/>
<polygon fill="none" stroke="#000000" points="8,-330.8402 8,-353.8402 228,-353.8402 228,-330.8402 8,-330.8402"/>
<text text-anchor="start" x="12.5842" y="-339.9402" font-family="Helvetica,sans-Serif" font-weight="bold" font-size="11.00" fill="#000000">R_STANDARD_REFERENCE_LIST</text>
<text text-anchor="start" x="193.5219" y="-338.9402" font-family="Helvetica,sans-Serif" font-size="11.00" fill="#000000">[table]</text>
<polygon fill="none" stroke="#000000" points="8,-308.8402 8,-330.8402 228,-330.8402 228,-308.8402 8,-308.8402"/>
<image xlink:href="../../images/primaryKeys.png" width="11px" height="12px" preserveAspectRatio="xMinYMin meet" x="13" y="-325.84"/>
<text text-anchor="start" x="35.5558" y="-315.9402" font-family="Helvetica,sans-Serif" font-size="11.00" fill="#000000">STANDARD_REFERENCE_LIST_ID</text>
<polygon fill="none" stroke="#000000" points="8,-286.8402 8,-308.8402 228,-308.8402 228,-286.8402 8,-286.8402"/>
<image xlink:href="../../images/primaryKeys.png" width="11px" height="12px" preserveAspectRatio="xMinYMin meet" x="13" y="-303.84"/>
<text text-anchor="start" x="42" y="-293.9402" font-family="Helvetica,sans-Serif" font-size="11.00" fill="#000000">CODE_VALUE</text>
<polygon fill="none" stroke="#000000" points="8,-264.8402 8,-286.8402 228,-286.8402 228,-264.8402 8,-264.8402"/>
<image xlink:href="../../images/primaryKeys.png" width="11px" height="12px" preserveAspectRatio="xMinYMin meet" x="13" y="-281.84"/>
<text text-anchor="start" x="39.8337" y="-271.9402" font-family="Helvetica,sans-Serif" font-size="11.00" fill="#000000">REFERENCE_DATA_MASTER_ID</text>
<polygon fill="none" stroke="#000000" points="8,-242.8402 8,-264.8402 228,-264.8402 228,-242.8402 8,-242.8402"/>
<image xlink:href="../../images/primaryKeys.png" width="11px" height="12px" preserveAspectRatio="xMinYMin meet" x="13" y="-259.84"/>
<text text-anchor="start" x="42" y="-249.9402" font-family="Helvetica,sans-Serif" font-size="11.00" fill="#000000">TRAINING_SESSION_ID</text>
<polygon fill="none" stroke="#000000" points="8,-223.8402 8,-242.8402 228,-242.8402 228,-223.8402 8,-223.8402"/>
<text text-anchor="start" x="11" y="-229.9402" font-family="Helvetica,sans-Serif" font-size="11.00" fill="#000000">...</text>
<polygon fill="#ffffff" stroke="transparent" points="8,-204.8402 8,-223.8402 79,-223.8402 79,-204.8402 8,-204.8402"/>
<polygon fill="none" stroke="#000000" points="8,-204.8402 8,-223.8402 79,-223.8402 79,-204.8402 8,-204.8402"/>
<text text-anchor="start" x="11" y="-210.9402" font-family="Helvetica,sans-Serif" font-size="11.00" fill="#000000">&lt; 1</text>
<polygon fill="#ffffff" stroke="transparent" points="79,-204.8402 79,-223.8402 169,-223.8402 169,-204.8402 79,-204.8402"/>
<polygon fill="none" stroke="#000000" points="79,-204.8402 79,-223.8402 169,-223.8402 169,-204.8402 79,-204.8402"/>
<text text-anchor="start" x="106.094" y="-210.9402" font-family="Helvetica,sans-Serif" font-size="11.00" fill="#000000">15,391 rows</text>
<polygon fill="#ffffff" stroke="transparent" points="169,-204.8402 169,-223.8402 228,-223.8402 228,-204.8402 169,-204.8402"/>
<polygon fill="none" stroke="#000000" points="169,-204.8402 169,-223.8402 228,-223.8402 228,-204.8402 169,-204.8402"/>
<text text-anchor="start" x="197.1755" y="-210.9402" font-family="Helvetica,sans-Serif" font-size="11.00" fill="#000000">295 &gt;</text>
</a>
</g>
</g>
<!-- PROPOSAL&#45;&gt;R_STANDARD_REFERENCE_LIST -->
<g id="edge1" class="edge">
<title>PROPOSAL:w&#45;&gt;R_STANDARD_REFERENCE_LIST:e</title>
<path fill="none" stroke="#000000" d="M303.9844,-554.0838C264.2077,-542.9842 288.3514,-481.4156 269,-430.8402 250.2061,-381.7218 280.5911,-319.8402 228,-319.8402"/>
<polygon fill="#000000" stroke="#000000" points="310.5579,-554.8792 318.0675,-559.4141 314.529,-555.3597 318.5,-555.8402 318.5,-555.8402 318.5,-555.8402 314.529,-555.3597 318.9325,-552.2663 310.5579,-554.8792 310.5579,-554.8792"/>
<ellipse fill="none" stroke="#000000" cx="307.3811" cy="-554.4948" rx="3.2" ry="3.2"/>
</g>
<!-- PROPOSAL&#45;&gt;R_STANDARD_REFERENCE_LIST -->
<g id="edge3" class="edge">
<title>PROPOSAL:w&#45;&gt;R_STANDARD_REFERENCE_LIST:e</title>
<path fill="none" stroke="#000000" d="M303.8434,-531.7707C271.9678,-521.2205 286.5757,-472.3054 269,-430.8402 248.476,-382.4192 280.5911,-319.8402 228,-319.8402"/>
<polygon fill="#000000" stroke="#000000" points="310.5786,-532.7217 317.9967,-537.4048 314.5393,-533.2809 318.5,-533.8402 318.5,-533.8402 318.5,-533.8402 314.5393,-533.2809 319.0033,-530.2756 310.5786,-532.7217 310.5786,-532.7217"/>
<ellipse fill="none" stroke="#000000" cx="307.41" cy="-532.2742" rx="3.2" ry="3.2"/>
</g>
<!-- PROPOSAL&#45;&gt;R_STANDARD_REFERENCE_LIST -->
<g id="edge4" class="edge">
<title>PROPOSAL:w&#45;&gt;R_STANDARD_REFERENCE_LIST:e</title>
<path fill="none" stroke="#000000" d="M303.9715,-509.5501C278.7903,-500.1683 284.8812,-463.6173 269,-430.8402 246.0685,-383.5119 280.5911,-319.8402 228,-319.8402"/>
<polygon fill="#000000" stroke="#000000" points="310.5976,-510.5945 317.9394,-515.3963 314.5488,-511.2173 318.5,-511.8402 318.5,-511.8402 318.5,-511.8402 314.5488,-511.2173 319.0606,-508.2841 310.5976,-510.5945 310.5976,-510.5945"/>
<ellipse fill="none" stroke="#000000" cx="307.4366" cy="-510.0962" rx="3.2" ry="3.2"/>
</g>
<!-- PARTITION_AREA -->
<g id="node3" class="node">
<title>PARTITION_AREA</title>
<g id="a_node3"><a xlink:href="../../tables/PARTITION_AREA.html" xlink:title="PARTITION_AREA" target="_top">
<polygon fill="#ffffff" stroke="transparent" points="47,-558.3402 47,-663.3402 189,-663.3402 189,-558.3402 47,-558.3402"/>
<polygon fill="#f5f5f5" stroke="transparent" points="47,-639.8402 47,-662.8402 189,-662.8402 189,-639.8402 47,-639.8402"/>
<polygon fill="none" stroke="#000000" points="47,-639.8402 47,-662.8402 189,-662.8402 189,-639.8402 47,-639.8402"/>
<text text-anchor="start" x="52" y="-648.9402" font-family="Helvetica,sans-Serif" font-weight="bold" font-size="11.00" fill="#000000">PARTITION_AREA</text>
<text text-anchor="start" x="154.0437" y="-647.9402" font-family="Helvetica,sans-Serif" font-size="11.00" fill="#000000">[table]</text>
<polygon fill="none" stroke="#000000" points="47,-617.8402 47,-639.8402 189,-639.8402 189,-617.8402 47,-617.8402"/>
<image xlink:href="../../images/primaryKeys.png" width="11px" height="12px" preserveAspectRatio="xMinYMin meet" x="52" y="-634.84"/>
<text text-anchor="start" x="67" y="-624.9402" font-family="Helvetica,sans-Serif" font-size="11.00" fill="#000000">PARTITION_AREA_ID</text>
<polygon fill="none" stroke="#000000" points="47,-595.8402 47,-617.8402 189,-617.8402 189,-595.8402 47,-595.8402"/>
<image xlink:href="../../images/primaryKeys.png" width="11px" height="12px" preserveAspectRatio="xMinYMin meet" x="52" y="-612.84"/>
<text text-anchor="start" x="63.1624" y="-602.9402" font-family="Helvetica,sans-Serif" font-size="11.00" fill="#000000">TRAINING_SESSION_ID</text>
<polygon fill="none" stroke="#000000" points="47,-576.8402 47,-595.8402 189,-595.8402 189,-576.8402 47,-576.8402"/>
<text text-anchor="start" x="50" y="-582.9402" font-family="Helvetica,sans-Serif" font-size="11.00" fill="#000000">...</text>
<polygon fill="#ffffff" stroke="transparent" points="47,-557.8402 47,-576.8402 88,-576.8402 88,-557.8402 47,-557.8402"/>
<polygon fill="none" stroke="#000000" points="47,-557.8402 47,-576.8402 88,-576.8402 88,-557.8402 47,-557.8402"/>
<text text-anchor="start" x="50" y="-563.9402" font-family="Helvetica,sans-Serif" font-size="11.00" fill="#000000"> &#160;</text>
<polygon fill="#ffffff" stroke="transparent" points="88,-557.8402 88,-576.8402 147,-576.8402 147,-557.8402 88,-557.8402"/>
<polygon fill="none" stroke="#000000" points="88,-557.8402 88,-576.8402 147,-576.8402 147,-557.8402 88,-557.8402"/>
<text text-anchor="start" x="105.4956" y="-563.9402" font-family="Helvetica,sans-Serif" font-size="11.00" fill="#000000">44 rows</text>
<polygon fill="#ffffff" stroke="transparent" points="147,-557.8402 147,-576.8402 189,-576.8402 189,-557.8402 147,-557.8402"/>
<polygon fill="none" stroke="#000000" points="147,-557.8402 147,-576.8402 189,-576.8402 189,-557.8402 147,-557.8402"/>
<text text-anchor="start" x="164.2904" y="-563.9402" font-family="Helvetica,sans-Serif" font-size="11.00" fill="#000000">81 &gt;</text>
</a>
</g>
</g>
<!-- PROPOSAL&#45;&gt;PARTITION_AREA -->
<g id="edge2" class="edge">
<title>PROPOSAL:w&#45;&gt;PARTITION_AREA:e</title>
<path fill="none" stroke="#000000" d="M304.0348,-578.859C255.2749,-586.0469 245.663,-628.8402 189,-628.8402"/>
<polygon fill="#000000" stroke="#000000" points="310.5198,-578.4023 318.7529,-581.4313 314.5099,-578.1212 318.5,-577.8402 318.5,-577.8402 318.5,-577.8402 314.5099,-578.1212 318.2471,-574.2491 310.5198,-578.4023 310.5198,-578.4023"/>
<ellipse fill="none" stroke="#000000" cx="307.3277" cy="-578.6271" rx="3.2" ry="3.2"/>
</g>
<!-- PROPOSED_RQMNT -->
<g id="node4" class="node">
<title>PROPOSED_RQMNT</title>
<g id="a_node4"><a xlink:href="../../tables/PROPOSED_RQMNT.html" xlink:title="PROPOSED_RQMNT" target="_top">
<polygon fill="#ffffff" stroke="transparent" points="581,-162.8402 581,-538.8402 872,-538.8402 872,-162.8402 581,-162.8402"/>
<polygon fill="#f5f5f5" stroke="transparent" points="583.5,-513.8402 583.5,-536.8402 870.5,-536.8402 870.5,-513.8402 583.5,-513.8402"/>
<polygon fill="none" stroke="#000000" points="583.5,-513.8402 583.5,-536.8402 870.5,-536.8402 870.5,-513.8402 583.5,-513.8402"/>
<text text-anchor="start" x="588.5" y="-522.9402" font-family="Helvetica,sans-Serif" font-weight="bold" font-size="11.00" fill="#000000">PROPOSED_RQMNT</text>
<text text-anchor="start" x="835.5437" y="-521.9402" font-family="Helvetica,sans-Serif" font-size="11.00" fill="#000000">[table]</text>
<polygon fill="none" stroke="#000000" points="583.5,-491.8402 583.5,-513.8402 809.5,-513.8402 809.5,-491.8402 583.5,-491.8402"/>
<image xlink:href="../../images/primaryKeys.png" width="11px" height="12px" preserveAspectRatio="xMinYMin meet" x="588.5" y="-508.84"/>
<text text-anchor="start" x="603.5" y="-498.9402" font-family="Helvetica,sans-Serif" font-size="11.00" fill="#000000">PROPOSED_RQMNT_ID</text>
<polygon fill="none" stroke="#000000" points="809.5,-491.8402 809.5,-513.8402 870.5,-513.8402 870.5,-491.8402 809.5,-491.8402"/>
<text text-anchor="start" x="812.1865" y="-499.5402" font-family="Helvetica,sans-Serif" font-size="11.00" fill="#000000">number[38]</text>
<polygon fill="none" stroke="#000000" points="583.5,-469.8402 583.5,-491.8402 809.5,-491.8402 809.5,-469.8402 583.5,-469.8402"/>
<image xlink:href="../../images/primaryKeys.png" width="11px" height="12px" preserveAspectRatio="xMinYMin meet" x="588.5" y="-486.84"/>
<text text-anchor="start" x="603.5" y="-476.9402" font-family="Helvetica,sans-Serif" font-size="11.00" fill="#000000">PROPOSAL_ID</text>
<polygon fill="none" stroke="#000000" points="809.5,-469.8402 809.5,-491.8402 870.5,-491.8402 870.5,-469.8402 809.5,-469.8402"/>
<text text-anchor="start" x="812.1865" y="-477.5402" font-family="Helvetica,sans-Serif" font-size="11.00" fill="#000000">number[38]</text>
<polygon fill="none" stroke="#000000" points="583.5,-447.8402 583.5,-469.8402 809.5,-469.8402 809.5,-447.8402 583.5,-447.8402"/>
<text text-anchor="start" x="603.5" y="-454.9402" font-family="Helvetica,sans-Serif" font-size="11.00" fill="#000000">LENGTH</text>
<polygon fill="none" stroke="#000000" points="809.5,-447.8402 809.5,-469.8402 870.5,-469.8402 870.5,-447.8402 809.5,-447.8402"/>
<text text-anchor="start" x="812.1865" y="-455.5402" font-family="Helvetica,sans-Serif" font-size="11.00" fill="#000000">number[38]</text>
<polygon fill="none" stroke="#000000" points="583.5,-425.8402 583.5,-447.8402 809.5,-447.8402 809.5,-425.8402 583.5,-425.8402"/>
<image xlink:href="../../images/primaryKeys.png" width="11px" height="12px" preserveAspectRatio="xMinYMin meet" x="588.5" y="-442.84"/>
<text text-anchor="start" x="603.5" y="-432.9402" font-family="Helvetica,sans-Serif" font-size="11.00" fill="#000000">PARTITION_AREA_ID</text>
<polygon fill="none" stroke="#000000" points="809.5,-425.8402 809.5,-447.8402 870.5,-447.8402 870.5,-425.8402 809.5,-425.8402"/>
<text text-anchor="start" x="812.1865" y="-433.5402" font-family="Helvetica,sans-Serif" font-size="11.00" fill="#000000">number[38]</text>
<polygon fill="none" stroke="#000000" points="583.5,-403.8402 583.5,-425.8402 809.5,-425.8402 809.5,-403.8402 583.5,-403.8402"/>
<text text-anchor="start" x="603.5" y="-410.9402" font-family="Helvetica,sans-Serif" font-size="11.00" fill="#000000">SOFT_DELETED</text>
<polygon fill="none" stroke="#000000" points="809.5,-403.8402 809.5,-425.8402 870.5,-425.8402 870.5,-403.8402 809.5,-403.8402"/>
<text text-anchor="start" x="812.1865" y="-411.5402" font-family="Helvetica,sans-Serif" font-size="11.00" fill="#000000">number[38]</text>
<polygon fill="none" stroke="#000000" points="583.5,-381.8402 583.5,-403.8402 809.5,-403.8402 809.5,-381.8402 583.5,-381.8402"/>
<text text-anchor="start" x="603.5" y="-388.9402" font-family="Helvetica,sans-Serif" font-size="11.00" fill="#000000">ROW_VERSION</text>
<polygon fill="none" stroke="#000000" points="809.5,-381.8402 809.5,-403.8402 870.5,-403.8402 870.5,-381.8402 809.5,-381.8402"/>
<text text-anchor="start" x="812.1865" y="-389.5402" font-family="Helvetica,sans-Serif" font-size="11.00" fill="#000000">number[38]</text>
<polygon fill="none" stroke="#000000" points="583.5,-359.8402 583.5,-381.8402 809.5,-381.8402 809.5,-359.8402 583.5,-359.8402"/>
<text text-anchor="start" x="603.5" y="-366.9402" font-family="Helvetica,sans-Serif" font-size="11.00" fill="#000000">CREATED_DATETIME</text>
<polygon fill="none" stroke="#000000" points="809.5,-359.8402 809.5,-381.8402 870.5,-381.8402 870.5,-359.8402 809.5,-359.8402"/>
<text text-anchor="start" x="812.5" y="-367.5402" font-family="Helvetica,sans-Serif" font-size="11.00" fill="#000000">date[7]</text>
<polygon fill="none" stroke="#000000" points="583.5,-337.8402 583.5,-359.8402 809.5,-359.8402 809.5,-337.8402 583.5,-337.8402"/>
<text text-anchor="start" x="603.5" y="-344.9402" font-family="Helvetica,sans-Serif" font-size="11.00" fill="#000000">LAST_UPDATED_DATETIME</text>
<polygon fill="none" stroke="#000000" points="809.5,-337.8402 809.5,-359.8402 870.5,-359.8402 870.5,-337.8402 809.5,-337.8402"/>
<text text-anchor="start" x="812.5" y="-345.5402" font-family="Helvetica,sans-Serif" font-size="11.00" fill="#000000">date[7]</text>
<polygon fill="none" stroke="#000000" points="583.5,-315.8402 583.5,-337.8402 809.5,-337.8402 809.5,-315.8402 583.5,-315.8402"/>
<image xlink:href="../../images/primaryKeys.png" width="11px" height="12px" preserveAspectRatio="xMinYMin meet" x="588.5" y="-332.84"/>
<text text-anchor="start" x="603.5" y="-322.9402" font-family="Helvetica,sans-Serif" font-size="11.00" fill="#000000">RQMNT_TYPE_MAIN_CATEGORY_ID</text>
<polygon fill="none" stroke="#000000" points="809.5,-315.8402 809.5,-337.8402 870.5,-337.8402 870.5,-315.8402 809.5,-315.8402"/>
<text text-anchor="start" x="812.1865" y="-323.5402" font-family="Helvetica,sans-Serif" font-size="11.00" fill="#000000">number[38]</text>
<polygon fill="none" stroke="#000000" points="583.5,-293.8402 583.5,-315.8402 809.5,-315.8402 809.5,-293.8402 583.5,-293.8402"/>
<image xlink:href="../../images/primaryKeys.png" width="11px" height="12px" preserveAspectRatio="xMinYMin meet" x="588.5" y="-310.84"/>
<text text-anchor="start" x="603.5" y="-300.9402" font-family="Helvetica,sans-Serif" font-size="11.00" fill="#000000">RQMNT_TYPE_SUB_CATEGORY_ID</text>
<polygon fill="none" stroke="#000000" points="809.5,-293.8402 809.5,-315.8402 870.5,-315.8402 870.5,-293.8402 809.5,-293.8402"/>
<text text-anchor="start" x="812.1865" y="-301.5402" font-family="Helvetica,sans-Serif" font-size="11.00" fill="#000000">number[38]</text>
<polygon fill="none" stroke="#000000" points="583.5,-271.8402 583.5,-293.8402 809.5,-293.8402 809.5,-271.8402 583.5,-271.8402"/>
<image xlink:href="../../images/primaryKeys.png" width="11px" height="12px" preserveAspectRatio="xMinYMin meet" x="588.5" y="-288.84"/>
<text text-anchor="start" x="596.442" y="-278.9402" font-family="Helvetica,sans-Serif" font-size="11.00" fill="#000000">AD_RQMNT_TYPE_MAIN_CATEGORY_ID</text>
<polygon fill="none" stroke="#000000" points="809.5,-271.8402 809.5,-293.8402 870.5,-293.8402 870.5,-271.8402 809.5,-271.8402"/>
<text text-anchor="start" x="812.1865" y="-279.5402" font-family="Helvetica,sans-Serif" font-size="11.00" fill="#000000">number[38]</text>
<polygon fill="none" stroke="#000000" points="583.5,-249.8402 583.5,-271.8402 809.5,-271.8402 809.5,-249.8402 583.5,-249.8402"/>
<text text-anchor="start" x="603.5" y="-256.9402" font-family="Helvetica,sans-Serif" font-size="11.00" fill="#000000">CREATED_BY_USER_ID</text>
<polygon fill="none" stroke="#000000" points="809.5,-249.8402 809.5,-271.8402 870.5,-271.8402 870.5,-249.8402 809.5,-249.8402"/>
<text text-anchor="start" x="812.1865" y="-257.5402" font-family="Helvetica,sans-Serif" font-size="11.00" fill="#000000">number[38]</text>
<polygon fill="none" stroke="#000000" points="583.5,-227.8402 583.5,-249.8402 809.5,-249.8402 809.5,-227.8402 583.5,-227.8402"/>
<image xlink:href="../../images/primaryKeys.png" width="11px" height="12px" preserveAspectRatio="xMinYMin meet" x="588.5" y="-244.84"/>
<text text-anchor="start" x="598.8834" y="-234.9402" font-family="Helvetica,sans-Serif" font-size="11.00" fill="#000000">AD_RQMNT_TYPE_SUB_CATEGORY_ID</text>
<polygon fill="none" stroke="#000000" points="809.5,-227.8402 809.5,-249.8402 870.5,-249.8402 870.5,-227.8402 809.5,-227.8402"/>
<text text-anchor="start" x="812.1865" y="-235.5402" font-family="Helvetica,sans-Serif" font-size="11.00" fill="#000000">number[38]</text>
<polygon fill="none" stroke="#000000" points="583.5,-205.8402 583.5,-227.8402 809.5,-227.8402 809.5,-205.8402 583.5,-205.8402"/>
<text text-anchor="start" x="603.5" y="-212.9402" font-family="Helvetica,sans-Serif" font-size="11.00" fill="#000000">LAST_UPDATED_USER_ID</text>
<polygon fill="none" stroke="#000000" points="809.5,-205.8402 809.5,-227.8402 870.5,-227.8402 870.5,-205.8402 809.5,-205.8402"/>
<text text-anchor="start" x="812.1865" y="-213.5402" font-family="Helvetica,sans-Serif" font-size="11.00" fill="#000000">number[38]</text>
<polygon fill="none" stroke="#000000" points="583.5,-183.8402 583.5,-205.8402 809.5,-205.8402 809.5,-183.8402 583.5,-183.8402"/>
<image xlink:href="../../images/primaryKeys.png" width="11px" height="12px" preserveAspectRatio="xMinYMin meet" x="588.5" y="-200.84"/>
<text text-anchor="start" x="603.5" y="-190.9402" font-family="Helvetica,sans-Serif" font-size="11.00" fill="#000000">TRAINING_SESSION_ID</text>
<polygon fill="none" stroke="#000000" points="809.5,-183.8402 809.5,-205.8402 870.5,-205.8402 870.5,-183.8402 809.5,-183.8402"/>
<text text-anchor="start" x="812.1865" y="-191.5402" font-family="Helvetica,sans-Serif" font-size="11.00" fill="#000000">number[38]</text>
<polygon fill="#ffffff" stroke="transparent" points="583.5,-164.8402 583.5,-183.8402 684.5,-183.8402 684.5,-164.8402 583.5,-164.8402"/>
<polygon fill="none" stroke="#000000" points="583.5,-164.8402 583.5,-183.8402 684.5,-183.8402 684.5,-164.8402 583.5,-164.8402"/>
<text text-anchor="start" x="586.5" y="-170.9402" font-family="Helvetica,sans-Serif" font-size="11.00" fill="#000000">&lt; 6</text>
<polygon fill="#ffffff" stroke="transparent" points="684.5,-164.8402 684.5,-183.8402 809.5,-183.8402 809.5,-164.8402 684.5,-164.8402"/>
<polygon fill="none" stroke="#000000" points="684.5,-164.8402 684.5,-183.8402 809.5,-183.8402 809.5,-164.8402 684.5,-164.8402"/>
<text text-anchor="start" x="767.9956" y="-170.9402" font-family="Helvetica,sans-Serif" font-size="11.00" fill="#000000">70 rows</text>
<polygon fill="#ffffff" stroke="transparent" points="809.5,-164.8402 809.5,-183.8402 870.5,-183.8402 870.5,-164.8402 809.5,-164.8402"/>
<polygon fill="none" stroke="#000000" points="809.5,-164.8402 809.5,-183.8402 870.5,-183.8402 870.5,-164.8402 809.5,-164.8402"/>
<text text-anchor="start" x="851.9053" y="-170.9402" font-family="Helvetica,sans-Serif" font-size="11.00" fill="#000000">0 &gt;</text>
<polygon fill="none" stroke="#000000" stroke-width="2" points="582,-163.8402 582,-537.8402 871,-537.8402 871,-163.8402 582,-163.8402"/>
</a>
</g>
</g>
<!-- PROPOSED_RQMNT&#45;&gt;PROPOSAL -->
<g id="edge8" class="edge">
<title>PROPOSED_RQMNT:w&#45;&gt;PROPOSAL:e</title>
<path fill="none" stroke="#000000" d="M569.2534,-482.9428C516.3143,-500.4828 560.9192,-621.8402 491.5,-621.8402"/>
<polygon fill="#000000" stroke="#000000" points="575.5857,-482.0083 584.0256,-484.4016 579.5429,-481.4243 583.5,-480.8402 583.5,-480.8402 583.5,-480.8402 579.5429,-481.4243 582.9744,-477.2788 575.5857,-482.0083 575.5857,-482.0083"/>
<ellipse fill="none" stroke="#000000" cx="572.42" cy="-482.4755" rx="3.2" ry="3.2"/>
</g>
<!-- PROPOSED_RQMNT&#45;&gt;R_STANDARD_REFERENCE_LIST -->
<g id="edge6" class="edge">
<title>PROPOSED_RQMNT:w&#45;&gt;R_STANDARD_REFERENCE_LIST:e</title>
<path fill="none" stroke="#000000" d="M569.0695,-237.0371C516.249,-221.4544 598.9831,-109.02 540,-62.8402 492.5821,-25.7152 314.8152,-23.7547 269,-62.8402 225.0022,-100.3753 285.8333,-319.8402 228,-319.8402"/>
<polygon fill="#000000" stroke="#000000" points="575.5617,-237.8483 583.0536,-242.4124 579.5309,-238.3442 583.5,-238.8402 583.5,-238.8402 583.5,-238.8402 579.5309,-238.3442 583.9464,-235.268 575.5617,-237.8483 575.5617,-237.8483"/>
<ellipse fill="none" stroke="#000000" cx="572.3864" cy="-237.4515" rx="3.2" ry="3.2"/>
</g>
<!-- PROPOSED_RQMNT&#45;&gt;R_STANDARD_REFERENCE_LIST -->
<g id="edge10" class="edge">
<title>PROPOSED_RQMNT:w&#45;&gt;R_STANDARD_REFERENCE_LIST:e</title>
<path fill="none" stroke="#000000" d="M569.6545,-300.35C558.4651,-290.8748 559.6265,-269.0355 540,-260.8402 484.428,-237.6353 322.3682,-232.9376 269,-260.8402 240.7022,-275.6352 259.932,-319.8402 228,-319.8402"/>
<polygon fill="#000000" stroke="#000000" points="575.8902,-302.3722 582.3894,-308.2646 579.6951,-303.6062 583.5,-304.8402 583.5,-304.8402 583.5,-304.8402 579.6951,-303.6062 584.6106,-301.4158 575.8902,-302.3722 575.8902,-302.3722"/>
<ellipse fill="none" stroke="#000000" cx="572.8463" cy="-301.385" rx="3.2" ry="3.2"/>
</g>
<!-- PROPOSED_RQMNT&#45;&gt;PARTITION_AREA -->
<g id="edge7" class="edge">
<title>PROPOSED_RQMNT:w&#45;&gt;PARTITION_AREA:e</title>
<path fill="none" stroke="#000000" d="M569.0144,-438.167C493.685,-453.8269 615.8833,-603.9635 540,-666.8402 447.2564,-743.6874 386.4959,-693.3274 269,-666.8402 230.6008,-658.1839 228.3628,-628.8402 189,-628.8402"/>
<polygon fill="#000000" stroke="#000000" points="575.5333,-437.57 583.8284,-440.4252 579.5167,-437.2051 583.5,-436.8402 583.5,-436.8402 583.5,-436.8402 579.5167,-437.2051 583.1716,-433.2552 575.5333,-437.57 575.5333,-437.57"/>
<ellipse fill="none" stroke="#000000" cx="572.3467" cy="-437.8619" rx="3.2" ry="3.2"/>
</g>
<!-- R_AD_RQMNT_TYPE_MAIN_CATEGORY -->
<g id="node5" class="node">
<title>R_AD_RQMNT_TYPE_MAIN_CATEGORY</title>
<g id="a_node5"><a xlink:href="../../tables/R_AD_RQMNT_TYPE_MAIN_CATEGORY.html" xlink:title="R_AD_RQMNT_TYPE_MAIN_CATEGORY" target="_top">
<polygon fill="#ffffff" stroke="transparent" points="277,-73.3402 277,-222.3402 532,-222.3402 532,-73.3402 277,-73.3402"/>
<polygon fill="#f5f5f5" stroke="transparent" points="277.5,-198.8402 277.5,-221.8402 532.5,-221.8402 532.5,-198.8402 277.5,-198.8402"/>
<polygon fill="none" stroke="#000000" points="277.5,-198.8402 277.5,-221.8402 532.5,-221.8402 532.5,-198.8402 277.5,-198.8402"/>
<text text-anchor="start" x="282.4704" y="-207.9402" font-family="Helvetica,sans-Serif" font-weight="bold" font-size="11.00" fill="#000000">R_AD_RQMNT_TYPE_MAIN_CATEGORY</text>
<text text-anchor="start" x="498.0219" y="-206.9402" font-family="Helvetica,sans-Serif" font-size="11.00" fill="#000000">[table]</text>
<polygon fill="none" stroke="#000000" points="277.5,-176.8402 277.5,-198.8402 532.5,-198.8402 532.5,-176.8402 277.5,-176.8402"/>
<image xlink:href="../../images/primaryKeys.png" width="11px" height="12px" preserveAspectRatio="xMinYMin meet" x="282.5" y="-193.84"/>
<text text-anchor="start" x="305.442" y="-183.9402" font-family="Helvetica,sans-Serif" font-size="11.00" fill="#000000">AD_RQMNT_TYPE_MAIN_CATEGORY_ID</text>
<polygon fill="none" stroke="#000000" points="277.5,-154.8402 277.5,-176.8402 532.5,-176.8402 532.5,-154.8402 277.5,-154.8402"/>
<image xlink:href="../../images/primaryKeys.png" width="11px" height="12px" preserveAspectRatio="xMinYMin meet" x="282.5" y="-171.84"/>
<text text-anchor="start" x="312.5" y="-161.9402" font-family="Helvetica,sans-Serif" font-size="11.00" fill="#000000">CODE</text>
<polygon fill="none" stroke="#000000" points="277.5,-132.8402 277.5,-154.8402 532.5,-154.8402 532.5,-132.8402 277.5,-132.8402"/>
<image xlink:href="../../images/primaryKeys.png" width="11px" height="12px" preserveAspectRatio="xMinYMin meet" x="282.5" y="-149.84"/>
<text text-anchor="start" x="312.5" y="-139.9402" font-family="Helvetica,sans-Serif" font-size="11.00" fill="#000000">UNITS_ID</text>
<polygon fill="none" stroke="#000000" points="277.5,-110.8402 277.5,-132.8402 532.5,-132.8402 532.5,-110.8402 277.5,-110.8402"/>
<image xlink:href="../../images/primaryKeys.png" width="11px" height="12px" preserveAspectRatio="xMinYMin meet" x="282.5" y="-127.84"/>
<text text-anchor="start" x="312.5" y="-117.9402" font-family="Helvetica,sans-Serif" font-size="11.00" fill="#000000">TRAINING_SESSION_ID</text>
<polygon fill="none" stroke="#000000" points="277.5,-91.8402 277.5,-110.8402 532.5,-110.8402 532.5,-91.8402 277.5,-91.8402"/>
<text text-anchor="start" x="280.5" y="-97.9402" font-family="Helvetica,sans-Serif" font-size="11.00" fill="#000000">...</text>
<polygon fill="#ffffff" stroke="transparent" points="277.5,-72.8402 277.5,-91.8402 379.5,-91.8402 379.5,-72.8402 277.5,-72.8402"/>
<polygon fill="none" stroke="#000000" points="277.5,-72.8402 277.5,-91.8402 379.5,-91.8402 379.5,-72.8402 277.5,-72.8402"/>
<text text-anchor="start" x="280.5" y="-78.9402" font-family="Helvetica,sans-Serif" font-size="11.00" fill="#000000">&lt; 1</text>
<polygon fill="#ffffff" stroke="transparent" points="379.5,-72.8402 379.5,-91.8402 470.5,-91.8402 470.5,-72.8402 379.5,-72.8402"/>
<polygon fill="none" stroke="#000000" points="379.5,-72.8402 379.5,-91.8402 470.5,-91.8402 470.5,-72.8402 379.5,-72.8402"/>
<text text-anchor="start" x="422.8807" y="-78.9402" font-family="Helvetica,sans-Serif" font-size="11.00" fill="#000000">157 rows</text>
<polygon fill="#ffffff" stroke="transparent" points="470.5,-72.8402 470.5,-91.8402 532.5,-91.8402 532.5,-72.8402 470.5,-72.8402"/>
<polygon fill="none" stroke="#000000" points="470.5,-72.8402 470.5,-91.8402 532.5,-91.8402 532.5,-72.8402 470.5,-72.8402"/>
<text text-anchor="start" x="513.9053" y="-78.9402" font-family="Helvetica,sans-Serif" font-size="11.00" fill="#000000">7 &gt;</text>
</a>
</g>
</g>
<!-- PROPOSED_RQMNT&#45;&gt;R_AD_RQMNT_TYPE_MAIN_CATEGORY -->
<g id="edge5" class="edge">
<title>PROPOSED_RQMNT:w&#45;&gt;R_AD_RQMNT_TYPE_MAIN_CATEGORY:e</title>
<path fill="none" stroke="#000000" d="M569.5154,-278.7582C545.3397,-260.5746 574.4315,-187.8402 532.5,-187.8402"/>
<polygon fill="#000000" stroke="#000000" points="575.8205,-280.5986 582.4913,-286.296 579.6602,-281.7194 583.5,-282.8402 583.5,-282.8402 583.5,-282.8402 579.6602,-281.7194 584.5087,-279.3844 575.8205,-280.5986 575.8205,-280.5986"/>
<ellipse fill="none" stroke="#000000" cx="572.7487" cy="-279.7019" rx="3.2" ry="3.2"/>
</g>
<!-- R_RQMNT_TYPE_MAIN_CATEGORY -->
<g id="node6" class="node">
<title>R_RQMNT_TYPE_MAIN_CATEGORY</title>
<g id="a_node6"><a xlink:href="../../tables/R_RQMNT_TYPE_MAIN_CATEGORY.html" xlink:title="R_RQMNT_TYPE_MAIN_CATEGORY" target="_top">
<polygon fill="#ffffff" stroke="transparent" points="288,-271.3402 288,-420.3402 521,-420.3402 521,-271.3402 288,-271.3402"/>
<polygon fill="#f5f5f5" stroke="transparent" points="288.5,-396.8402 288.5,-419.8402 521.5,-419.8402 521.5,-396.8402 288.5,-396.8402"/>
<polygon fill="none" stroke="#000000" points="288.5,-396.8402 288.5,-419.8402 521.5,-419.8402 521.5,-396.8402 288.5,-396.8402"/>
<text text-anchor="start" x="293.1663" y="-405.9402" font-family="Helvetica,sans-Serif" font-weight="bold" font-size="11.00" fill="#000000">R_RQMNT_TYPE_MAIN_CATEGORY</text>
<text text-anchor="start" x="487.0219" y="-404.9402" font-family="Helvetica,sans-Serif" font-size="11.00" fill="#000000">[table]</text>
<polygon fill="none" stroke="#000000" points="288.5,-374.8402 288.5,-396.8402 521.5,-396.8402 521.5,-374.8402 288.5,-374.8402"/>
<image xlink:href="../../images/primaryKeys.png" width="11px" height="12px" preserveAspectRatio="xMinYMin meet" x="293.5" y="-391.84"/>
<text text-anchor="start" x="315.6379" y="-381.9402" font-family="Helvetica,sans-Serif" font-size="11.00" fill="#000000">RQMNT_TYPE_MAIN_CATEGORY_ID</text>
<polygon fill="none" stroke="#000000" points="288.5,-352.8402 288.5,-374.8402 521.5,-374.8402 521.5,-352.8402 288.5,-352.8402"/>
<image xlink:href="../../images/primaryKeys.png" width="11px" height="12px" preserveAspectRatio="xMinYMin meet" x="293.5" y="-369.84"/>
<text text-anchor="start" x="322.5" y="-359.9402" font-family="Helvetica,sans-Serif" font-size="11.00" fill="#000000">CODE</text>
<polygon fill="none" stroke="#000000" points="288.5,-330.8402 288.5,-352.8402 521.5,-352.8402 521.5,-330.8402 288.5,-330.8402"/>
<image xlink:href="../../images/primaryKeys.png" width="11px" height="12px" preserveAspectRatio="xMinYMin meet" x="293.5" y="-347.84"/>
<text text-anchor="start" x="322.5" y="-337.9402" font-family="Helvetica,sans-Serif" font-size="11.00" fill="#000000">TRAINING_SESSION_ID</text>
<polygon fill="none" stroke="#000000" points="288.5,-308.8402 288.5,-330.8402 521.5,-330.8402 521.5,-308.8402 288.5,-308.8402"/>
<image xlink:href="../../images/primaryKeys.png" width="11px" height="12px" preserveAspectRatio="xMinYMin meet" x="293.5" y="-325.84"/>
<text text-anchor="start" x="322.5" y="-315.9402" font-family="Helvetica,sans-Serif" font-size="11.00" fill="#000000">UNITS_ID</text>
<polygon fill="none" stroke="#000000" points="288.5,-289.8402 288.5,-308.8402 521.5,-308.8402 521.5,-289.8402 288.5,-289.8402"/>
<text text-anchor="start" x="291.5" y="-295.9402" font-family="Helvetica,sans-Serif" font-size="11.00" fill="#000000">...</text>
<polygon fill="#ffffff" stroke="transparent" points="288.5,-270.8402 288.5,-289.8402 376.5,-289.8402 376.5,-270.8402 288.5,-270.8402"/>
<polygon fill="none" stroke="#000000" points="288.5,-270.8402 288.5,-289.8402 376.5,-289.8402 376.5,-270.8402 288.5,-270.8402"/>
<text text-anchor="start" x="291.5" y="-276.9402" font-family="Helvetica,sans-Serif" font-size="11.00" fill="#000000">&lt; 1</text>
<polygon fill="#ffffff" stroke="transparent" points="376.5,-270.8402 376.5,-289.8402 460.5,-289.8402 460.5,-270.8402 376.5,-270.8402"/>
<polygon fill="none" stroke="#000000" points="376.5,-270.8402 376.5,-289.8402 460.5,-289.8402 460.5,-270.8402 376.5,-270.8402"/>
<text text-anchor="start" x="412.8807" y="-276.9402" font-family="Helvetica,sans-Serif" font-size="11.00" fill="#000000">548 rows</text>
<polygon fill="#ffffff" stroke="transparent" points="460.5,-270.8402 460.5,-289.8402 521.5,-289.8402 521.5,-270.8402 460.5,-270.8402"/>
<polygon fill="none" stroke="#000000" points="460.5,-270.8402 460.5,-289.8402 521.5,-289.8402 521.5,-270.8402 460.5,-270.8402"/>
<text text-anchor="start" x="496.7904" y="-276.9402" font-family="Helvetica,sans-Serif" font-size="11.00" fill="#000000">10 &gt;</text>
</a>
</g>
</g>
<!-- PROPOSED_RQMNT&#45;&gt;R_RQMNT_TYPE_MAIN_CATEGORY -->
<g id="edge9" class="edge">
<title>PROPOSED_RQMNT:w&#45;&gt;R_RQMNT_TYPE_MAIN_CATEGORY:e</title>
<path fill="none" stroke="#000000" d="M569.3753,-330.5309C548.5411,-343.4475 553.7434,-385.8402 521.5,-385.8402"/>
<polygon fill="#000000" stroke="#000000" points="575.7599,-328.8627 584.4101,-330.3233 579.6299,-327.8515 583.5,-326.8402 583.5,-326.8402 583.5,-326.8402 579.6299,-327.8515 582.5899,-323.3571 575.7599,-328.8627 575.7599,-328.8627"/>
<ellipse fill="none" stroke="#000000" cx="572.6638" cy="-329.6717" rx="3.2" ry="3.2"/>
</g>
<!-- R_AD_RQMNT_TYPE_MAIN_CATEGORY&#45;&gt;R_STANDARD_REFERENCE_LIST -->
<g id="edge11" class="edge">
<title>R_AD_RQMNT_TYPE_MAIN_CATEGORY:w&#45;&gt;R_STANDARD_REFERENCE_LIST:e</title>
<path fill="none" stroke="#000000" d="M263.1061,-146.3282C211.1751,-167.7201 303.5437,-319.8402 228,-319.8402"/>
<polygon fill="#000000" stroke="#000000" points="269.6169,-145.2029 278.1132,-147.3876 273.5584,-144.5215 277.5,-143.8402 277.5,-143.8402 277.5,-143.8402 273.5584,-144.5215 276.8868,-140.2928 269.6169,-145.2029 269.6169,-145.2029"/>
<ellipse fill="none" stroke="#000000" cx="266.4637" cy="-145.7479" rx="3.2" ry="3.2"/>
</g>
<!-- R_RQMNT_TYPE_MAIN_CATEGORY&#45;&gt;R_STANDARD_REFERENCE_LIST -->
<g id="edge12" class="edge">
<title>R_RQMNT_TYPE_MAIN_CATEGORY:w&#45;&gt;R_STANDARD_REFERENCE_LIST:e</title>
<path fill="none" stroke="#000000" d="M273.7977,-319.8402C257.8779,-319.8402 249.217,-319.8402 228,-319.8402"/>
<polygon fill="#000000" stroke="#000000" points="280.5,-319.8403 288.5,-323.4402 284.5,-319.8402 288.5,-319.8402 288.5,-319.8402 288.5,-319.8402 284.5,-319.8402 288.5,-316.2402 280.5,-319.8403 280.5,-319.8403"/>
<ellipse fill="none" stroke="#000000" cx="277.3" cy="-319.8403" rx="3.2" ry="3.2"/>
</g>
</g>
</svg>
