<?xml version="1.0" encoding="UTF-8" standalone="no"?>
<!DOCTYPE svg PUBLIC "-//W3C//DTD SVG 1.1//EN"
 "http://www.w3.org/Graphics/SVG/1.1/DTD/svg11.dtd">
<!-- Generated by graphviz version 2.40.1 (20161225.0304)
 -->
<!-- Title: oneDegreeRelationshipsDiagram Pages: 1 -->
<svg width="1084pt" height="703pt"
 viewBox="0.00 0.00 1084.00 702.87" xmlns="http://www.w3.org/2000/svg" xmlns:xlink="http://www.w3.org/1999/xlink">
<g id="graph0" class="graph" transform="scale(1 1) rotate(0) translate(4 698.8725)">
<title>oneDegreeRelationshipsDiagram</title>
<polygon fill="#ffffff" stroke="transparent" points="-4,4 -4,-698.8725 1080,-698.8725 1080,4 -4,4"/>
<text text-anchor="middle" x="72.4936" y="-7.3" font-family="Helvetica,sans-Serif" font-size="11.00" fill="#000000">Generated by SchemaSpy</text>
<!-- COURT_REPORT -->
<g id="node1" class="node">
<title>COURT_REPORT</title>
<g id="a_node1"><a xlink:href="../../tables/COURT_REPORT.html" xlink:title="COURT_REPORT" target="_top">
<polygon fill="#ffffff" stroke="transparent" points="277,-196.8725 277,-631.8725 497,-631.8725 497,-196.8725 277,-196.8725"/>
<polygon fill="#f5f5f5" stroke="transparent" points="277,-608.3725 277,-631.3725 497,-631.3725 497,-608.3725 277,-608.3725"/>
<polygon fill="none" stroke="#000000" points="277,-608.3725 277,-631.3725 497,-631.3725 497,-608.3725 277,-608.3725"/>
<text text-anchor="start" x="282" y="-617.4725" font-family="Helvetica,sans-Serif" font-weight="bold" font-size="11.00" fill="#000000">COURT_REPORT</text>
<text text-anchor="start" x="462.0437" y="-616.4725" font-family="Helvetica,sans-Serif" font-size="11.00" fill="#000000">[table]</text>
<polygon fill="none" stroke="#000000" points="277,-586.3725 277,-608.3725 497,-608.3725 497,-586.3725 277,-586.3725"/>
<image xlink:href="../../images/primaryKeys.png" width="11px" height="12px" preserveAspectRatio="xMinYMin meet" x="282" y="-603.372"/>
<text text-anchor="start" x="297" y="-593.4725" font-family="Helvetica,sans-Serif" font-size="11.00" fill="#000000">COURT_REPORT_ID</text>
<polygon fill="none" stroke="#000000" points="277,-564.3725 277,-586.3725 497,-586.3725 497,-564.3725 277,-564.3725"/>
<image xlink:href="../../images/primaryKeys.png" width="11px" height="12px" preserveAspectRatio="xMinYMin meet" x="282" y="-581.372"/>
<text text-anchor="start" x="297" y="-571.4725" font-family="Helvetica,sans-Serif" font-size="11.00" fill="#000000">COURT_APPEARANCE_ID</text>
<polygon fill="none" stroke="#000000" points="277,-542.3725 277,-564.3725 497,-564.3725 497,-542.3725 277,-542.3725"/>
<image xlink:href="../../images/primaryKeys.png" width="11px" height="12px" preserveAspectRatio="xMinYMin meet" x="282" y="-559.372"/>
<text text-anchor="start" x="297" y="-549.4725" font-family="Helvetica,sans-Serif" font-size="11.00" fill="#000000">DATE_REQUESTED</text>
<polygon fill="none" stroke="#000000" points="277,-520.3725 277,-542.3725 497,-542.3725 497,-520.3725 277,-520.3725"/>
<image xlink:href="../../images/primaryKeys.png" width="11px" height="12px" preserveAspectRatio="xMinYMin meet" x="282" y="-537.372"/>
<text text-anchor="start" x="297" y="-527.4725" font-family="Helvetica,sans-Serif" font-size="11.00" fill="#000000">DATE_REQUIRED</text>
<polygon fill="none" stroke="#000000" points="277,-498.3725 277,-520.3725 497,-520.3725 497,-498.3725 277,-498.3725"/>
<image xlink:href="../../images/primaryKeys.png" width="11px" height="12px" preserveAspectRatio="xMinYMin meet" x="282" y="-515.372"/>
<text text-anchor="start" x="297" y="-505.4725" font-family="Helvetica,sans-Serif" font-size="11.00" fill="#000000">COMPLETED_DATE</text>
<polygon fill="none" stroke="#000000" points="277,-476.3725 277,-498.3725 497,-498.3725 497,-476.3725 277,-476.3725"/>
<image xlink:href="../../images/primaryKeys.png" width="11px" height="12px" preserveAspectRatio="xMinYMin meet" x="282" y="-493.372"/>
<text text-anchor="start" x="297" y="-483.4725" font-family="Helvetica,sans-Serif" font-size="11.00" fill="#000000">SOFT_DELETED</text>
<polygon fill="none" stroke="#000000" points="277,-454.3725 277,-476.3725 497,-476.3725 497,-454.3725 277,-454.3725"/>
<image xlink:href="../../images/primaryKeys.png" width="11px" height="12px" preserveAspectRatio="xMinYMin meet" x="282" y="-471.372"/>
<text text-anchor="start" x="297" y="-461.4725" font-family="Helvetica,sans-Serif" font-size="11.00" fill="#000000">PARTITION_AREA_ID</text>
<polygon fill="none" stroke="#000000" points="277,-432.3725 277,-454.3725 497,-454.3725 497,-432.3725 277,-432.3725"/>
<image xlink:href="../../images/primaryKeys.png" width="11px" height="12px" preserveAspectRatio="xMinYMin meet" x="282" y="-449.372"/>
<text text-anchor="start" x="297" y="-439.4725" font-family="Helvetica,sans-Serif" font-size="11.00" fill="#000000">LEVEL_OF_SERIOUSNESS_ID</text>
<polygon fill="none" stroke="#000000" points="277,-410.3725 277,-432.3725 497,-432.3725 497,-410.3725 277,-410.3725"/>
<image xlink:href="../../images/primaryKeys.png" width="11px" height="12px" preserveAspectRatio="xMinYMin meet" x="282" y="-427.372"/>
<text text-anchor="start" x="297" y="-417.4725" font-family="Helvetica,sans-Serif" font-size="11.00" fill="#000000">DELIVERED_REPORT_REASON_ID</text>
<polygon fill="none" stroke="#000000" points="277,-388.3725 277,-410.3725 497,-410.3725 497,-388.3725 277,-388.3725"/>
<image xlink:href="../../images/primaryKeys.png" width="11px" height="12px" preserveAspectRatio="xMinYMin meet" x="282" y="-405.372"/>
<text text-anchor="start" x="297" y="-395.4725" font-family="Helvetica,sans-Serif" font-size="11.00" fill="#000000">CREATED_DATETIME</text>
<polygon fill="none" stroke="#000000" points="277,-366.3725 277,-388.3725 497,-388.3725 497,-366.3725 277,-366.3725"/>
<image xlink:href="../../images/primaryKeys.png" width="11px" height="12px" preserveAspectRatio="xMinYMin meet" x="282" y="-383.372"/>
<text text-anchor="start" x="297" y="-373.4725" font-family="Helvetica,sans-Serif" font-size="11.00" fill="#000000">COURT_REPORT_TYPE_ID</text>
<polygon fill="none" stroke="#000000" points="277,-344.3725 277,-366.3725 497,-366.3725 497,-344.3725 277,-344.3725"/>
<image xlink:href="../../images/primaryKeys.png" width="11px" height="12px" preserveAspectRatio="xMinYMin meet" x="282" y="-361.372"/>
<text text-anchor="start" x="288.7735" y="-351.4725" font-family="Helvetica,sans-Serif" font-size="11.00" fill="#000000">DELIVERED_COURT_REPORT_TYPE_ID</text>
<polygon fill="none" stroke="#000000" points="277,-322.3725 277,-344.3725 497,-344.3725 497,-322.3725 277,-322.3725"/>
<image xlink:href="../../images/primaryKeys.png" width="11px" height="12px" preserveAspectRatio="xMinYMin meet" x="282" y="-339.372"/>
<text text-anchor="start" x="297" y="-329.4725" font-family="Helvetica,sans-Serif" font-size="11.00" fill="#000000">TRAINING_SESSION_ID</text>
<polygon fill="none" stroke="#000000" points="277,-300.3725 277,-322.3725 497,-322.3725 497,-300.3725 277,-300.3725"/>
<image xlink:href="../../images/primaryKeys.png" width="11px" height="12px" preserveAspectRatio="xMinYMin meet" x="282" y="-317.372"/>
<text text-anchor="start" x="297" y="-307.4725" font-family="Helvetica,sans-Serif" font-size="11.00" fill="#000000">OFFENDER_ID</text>
<polygon fill="none" stroke="#000000" points="277,-278.3725 277,-300.3725 497,-300.3725 497,-278.3725 277,-278.3725"/>
<image xlink:href="../../images/primaryKeys.png" width="11px" height="12px" preserveAspectRatio="xMinYMin meet" x="282" y="-295.372"/>
<text text-anchor="start" x="297" y="-285.4725" font-family="Helvetica,sans-Serif" font-size="11.00" fill="#000000">REQUIRED_BY_COURT_ID</text>
<polygon fill="none" stroke="#000000" points="277,-256.3725 277,-278.3725 497,-278.3725 497,-256.3725 277,-256.3725"/>
<image xlink:href="../../images/primaryKeys.png" width="11px" height="12px" preserveAspectRatio="xMinYMin meet" x="282" y="-273.372"/>
<text text-anchor="start" x="297" y="-263.4725" font-family="Helvetica,sans-Serif" font-size="11.00" fill="#000000">INTERVIEW_VIA_ID</text>
<polygon fill="none" stroke="#000000" points="277,-234.3725 277,-256.3725 497,-256.3725 497,-234.3725 277,-234.3725"/>
<image xlink:href="../../images/primaryKeys.png" width="11px" height="12px" preserveAspectRatio="xMinYMin meet" x="282" y="-251.372"/>
<text text-anchor="start" x="297" y="-241.4725" font-family="Helvetica,sans-Serif" font-size="11.00" fill="#000000">ADJOURNMENT_REASON_ID</text>
<polygon fill="none" stroke="#000000" points="277,-215.3725 277,-234.3725 497,-234.3725 497,-215.3725 277,-215.3725"/>
<text text-anchor="start" x="280" y="-221.4725" font-family="Helvetica,sans-Serif" font-size="11.00" fill="#000000">...</text>
<polygon fill="#ffffff" stroke="transparent" points="277,-196.3725 277,-215.3725 360,-215.3725 360,-196.3725 277,-196.3725"/>
<polygon fill="none" stroke="#000000" points="277,-196.3725 277,-215.3725 360,-215.3725 360,-196.3725 277,-196.3725"/>
<text text-anchor="start" x="280" y="-202.4725" font-family="Helvetica,sans-Serif" font-size="11.00" fill="#000000">&lt; 10</text>
<polygon fill="#ffffff" stroke="transparent" points="360,-196.3725 360,-215.3725 447,-215.3725 447,-196.3725 360,-196.3725"/>
<polygon fill="none" stroke="#000000" points="360,-196.3725 360,-215.3725 447,-215.3725 447,-196.3725 360,-196.3725"/>
<text text-anchor="start" x="390.2089" y="-202.4725" font-family="Helvetica,sans-Serif" font-size="11.00" fill="#000000">1,648 rows</text>
<polygon fill="#ffffff" stroke="transparent" points="447,-196.3725 447,-215.3725 497,-215.3725 497,-196.3725 447,-196.3725"/>
<polygon fill="none" stroke="#000000" points="447,-196.3725 447,-215.3725 497,-215.3725 497,-196.3725 447,-196.3725"/>
<text text-anchor="start" x="478.4053" y="-202.4725" font-family="Helvetica,sans-Serif" font-size="11.00" fill="#000000">5 &gt;</text>
</a>
</g>
</g>
<!-- R_STANDARD_REFERENCE_LIST -->
<g id="node2" class="node">
<title>R_STANDARD_REFERENCE_LIST</title>
<g id="a_node2"><a xlink:href="../../tables/R_STANDARD_REFERENCE_LIST.html" xlink:title="R_STANDARD_REFERENCE_LIST" target="_top">
<polygon fill="#ffffff" stroke="transparent" points="8,-57.8725 8,-206.8725 228,-206.8725 228,-57.8725 8,-57.8725"/>
<polygon fill="#f5f5f5" stroke="transparent" points="8,-183.3725 8,-206.3725 228,-206.3725 228,-183.3725 8,-183.3725"/>
<polygon fill="none" stroke="#000000" points="8,-183.3725 8,-206.3725 228,-206.3725 228,-183.3725 8,-183.3725"/>
<text text-anchor="start" x="12.5842" y="-192.4725" font-family="Helvetica,sans-Serif" font-weight="bold" font-size="11.00" fill="#000000">R_STANDARD_REFERENCE_LIST</text>
<text text-anchor="start" x="193.5219" y="-191.4725" font-family="Helvetica,sans-Serif" font-size="11.00" fill="#000000">[table]</text>
<polygon fill="none" stroke="#000000" points="8,-161.3725 8,-183.3725 228,-183.3725 228,-161.3725 8,-161.3725"/>
<image xlink:href="../../images/primaryKeys.png" width="11px" height="12px" preserveAspectRatio="xMinYMin meet" x="13" y="-178.372"/>
<text text-anchor="start" x="35.5558" y="-168.4725" font-family="Helvetica,sans-Serif" font-size="11.00" fill="#000000">STANDARD_REFERENCE_LIST_ID</text>
<polygon fill="none" stroke="#000000" points="8,-139.3725 8,-161.3725 228,-161.3725 228,-139.3725 8,-139.3725"/>
<image xlink:href="../../images/primaryKeys.png" width="11px" height="12px" preserveAspectRatio="xMinYMin meet" x="13" y="-156.372"/>
<text text-anchor="start" x="42" y="-146.4725" font-family="Helvetica,sans-Serif" font-size="11.00" fill="#000000">CODE_VALUE</text>
<polygon fill="none" stroke="#000000" points="8,-117.3725 8,-139.3725 228,-139.3725 228,-117.3725 8,-117.3725"/>
<image xlink:href="../../images/primaryKeys.png" width="11px" height="12px" preserveAspectRatio="xMinYMin meet" x="13" y="-134.372"/>
<text text-anchor="start" x="39.8337" y="-124.4725" font-family="Helvetica,sans-Serif" font-size="11.00" fill="#000000">REFERENCE_DATA_MASTER_ID</text>
<polygon fill="none" stroke="#000000" points="8,-95.3725 8,-117.3725 228,-117.3725 228,-95.3725 8,-95.3725"/>
<image xlink:href="../../images/primaryKeys.png" width="11px" height="12px" preserveAspectRatio="xMinYMin meet" x="13" y="-112.372"/>
<text text-anchor="start" x="42" y="-102.4725" font-family="Helvetica,sans-Serif" font-size="11.00" fill="#000000">TRAINING_SESSION_ID</text>
<polygon fill="none" stroke="#000000" points="8,-76.3725 8,-95.3725 228,-95.3725 228,-76.3725 8,-76.3725"/>
<text text-anchor="start" x="11" y="-82.4725" font-family="Helvetica,sans-Serif" font-size="11.00" fill="#000000">...</text>
<polygon fill="#ffffff" stroke="transparent" points="8,-57.3725 8,-76.3725 79,-76.3725 79,-57.3725 8,-57.3725"/>
<polygon fill="none" stroke="#000000" points="8,-57.3725 8,-76.3725 79,-76.3725 79,-57.3725 8,-57.3725"/>
<text text-anchor="start" x="11" y="-63.4725" font-family="Helvetica,sans-Serif" font-size="11.00" fill="#000000">&lt; 1</text>
<polygon fill="#ffffff" stroke="transparent" points="79,-57.3725 79,-76.3725 169,-76.3725 169,-57.3725 79,-57.3725"/>
<polygon fill="none" stroke="#000000" points="79,-57.3725 79,-76.3725 169,-76.3725 169,-57.3725 79,-57.3725"/>
<text text-anchor="start" x="106.094" y="-63.4725" font-family="Helvetica,sans-Serif" font-size="11.00" fill="#000000">15,391 rows</text>
<polygon fill="#ffffff" stroke="transparent" points="169,-57.3725 169,-76.3725 228,-76.3725 228,-57.3725 169,-57.3725"/>
<polygon fill="none" stroke="#000000" points="169,-57.3725 169,-76.3725 228,-76.3725 228,-57.3725 169,-57.3725"/>
<text text-anchor="start" x="197.1755" y="-63.4725" font-family="Helvetica,sans-Serif" font-size="11.00" fill="#000000">294 &gt;</text>
</a>
</g>
</g>
<!-- COURT_REPORT&#45;&gt;R_STANDARD_REFERENCE_LIST -->
<g id="edge1" class="edge">
<title>COURT_REPORT:w&#45;&gt;R_STANDARD_REFERENCE_LIST:e</title>
<path fill="none" stroke="#000000" d="M263.1598,-240.5827C245.3684,-224.3422 260.9702,-172.3725 228,-172.3725"/>
<polygon fill="#000000" stroke="#000000" points="269.4399,-242.7561 275.8226,-248.7745 273.22,-244.0643 277,-245.3725 277,-245.3725 277,-245.3725 273.22,-244.0643 278.1774,-241.9704 269.4399,-242.7561 269.4399,-242.7561"/>
<ellipse fill="none" stroke="#000000" cx="266.4159" cy="-241.7095" rx="3.2" ry="3.2"/>
</g>
<!-- COURT_REPORT&#45;&gt;R_STANDARD_REFERENCE_LIST -->
<g id="edge2" class="edge">
<title>COURT_REPORT:w&#45;&gt;R_STANDARD_REFERENCE_LIST:e</title>
<path fill="none" stroke="#000000" d="M262.4805,-419.6494C180.765,-397.6497 335.2818,-172.3725 228,-172.3725"/>
<polygon fill="#000000" stroke="#000000" points="269.0557,-420.4297 276.5757,-424.9474 273.0279,-420.9011 277,-421.3725 277,-421.3725 277,-421.3725 273.0279,-420.9011 277.4243,-417.7975 269.0557,-420.4297 269.0557,-420.4297"/>
<ellipse fill="none" stroke="#000000" cx="265.878" cy="-420.0526" rx="3.2" ry="3.2"/>
</g>
<!-- COURT_REPORT&#45;&gt;R_STANDARD_REFERENCE_LIST -->
<g id="edge3" class="edge">
<title>COURT_REPORT:w&#45;&gt;R_STANDARD_REFERENCE_LIST:e</title>
<path fill="none" stroke="#000000" d="M262.8894,-263.0436C239.8016,-244.4589 269.3837,-172.3725 228,-172.3725"/>
<polygon fill="#000000" stroke="#000000" points="269.3518,-265.0261 275.9442,-270.8141 273.1759,-266.1993 277,-267.3725 277,-267.3725 277,-267.3725 273.1759,-266.1993 278.0558,-263.9308 269.3518,-265.0261 269.3518,-265.0261"/>
<ellipse fill="none" stroke="#000000" cx="266.2925" cy="-264.0876" rx="3.2" ry="3.2"/>
</g>
<!-- COURT_REPORT&#45;&gt;R_STANDARD_REFERENCE_LIST -->
<g id="edge4" class="edge">
<title>COURT_REPORT:w&#45;&gt;R_STANDARD_REFERENCE_LIST:e</title>
<path fill="none" stroke="#000000" d="M262.6531,-441.8484C171.1966,-420.0774 345.0187,-172.3725 228,-172.3725"/>
<polygon fill="#000000" stroke="#000000" points="269.0448,-442.5273 276.6197,-446.9523 273.0224,-442.9499 277,-443.3725 277,-443.3725 277,-443.3725 273.0224,-442.9499 277.3803,-439.7926 269.0448,-442.5273 269.0448,-442.5273"/>
<ellipse fill="none" stroke="#000000" cx="265.8627" cy="-442.1893" rx="3.2" ry="3.2"/>
</g>
<!-- PARTITION_AREA -->
<g id="node3" class="node">
<title>PARTITION_AREA</title>
<g id="a_node3"><a xlink:href="../../tables/PARTITION_AREA.html" xlink:title="PARTITION_AREA" target="_top">
<polygon fill="#ffffff" stroke="transparent" points="47,-585.8725 47,-690.8725 189,-690.8725 189,-585.8725 47,-585.8725"/>
<polygon fill="#f5f5f5" stroke="transparent" points="47,-667.3725 47,-690.3725 189,-690.3725 189,-667.3725 47,-667.3725"/>
<polygon fill="none" stroke="#000000" points="47,-667.3725 47,-690.3725 189,-690.3725 189,-667.3725 47,-667.3725"/>
<text text-anchor="start" x="52" y="-676.4725" font-family="Helvetica,sans-Serif" font-weight="bold" font-size="11.00" fill="#000000">PARTITION_AREA</text>
<text text-anchor="start" x="154.0437" y="-675.4725" font-family="Helvetica,sans-Serif" font-size="11.00" fill="#000000">[table]</text>
<polygon fill="none" stroke="#000000" points="47,-645.3725 47,-667.3725 189,-667.3725 189,-645.3725 47,-645.3725"/>
<image xlink:href="../../images/primaryKeys.png" width="11px" height="12px" preserveAspectRatio="xMinYMin meet" x="52" y="-662.372"/>
<text text-anchor="start" x="67" y="-652.4725" font-family="Helvetica,sans-Serif" font-size="11.00" fill="#000000">PARTITION_AREA_ID</text>
<polygon fill="none" stroke="#000000" points="47,-623.3725 47,-645.3725 189,-645.3725 189,-623.3725 47,-623.3725"/>
<image xlink:href="../../images/primaryKeys.png" width="11px" height="12px" preserveAspectRatio="xMinYMin meet" x="52" y="-640.372"/>
<text text-anchor="start" x="63.1624" y="-630.4725" font-family="Helvetica,sans-Serif" font-size="11.00" fill="#000000">TRAINING_SESSION_ID</text>
<polygon fill="none" stroke="#000000" points="47,-604.3725 47,-623.3725 189,-623.3725 189,-604.3725 47,-604.3725"/>
<text text-anchor="start" x="50" y="-610.4725" font-family="Helvetica,sans-Serif" font-size="11.00" fill="#000000">...</text>
<polygon fill="#ffffff" stroke="transparent" points="47,-585.3725 47,-604.3725 88,-604.3725 88,-585.3725 47,-585.3725"/>
<polygon fill="none" stroke="#000000" points="47,-585.3725 47,-604.3725 88,-604.3725 88,-585.3725 47,-585.3725"/>
<text text-anchor="start" x="50" y="-591.4725" font-family="Helvetica,sans-Serif" font-size="11.00" fill="#000000"> &#160;</text>
<polygon fill="#ffffff" stroke="transparent" points="88,-585.3725 88,-604.3725 147,-604.3725 147,-585.3725 88,-585.3725"/>
<polygon fill="none" stroke="#000000" points="88,-585.3725 88,-604.3725 147,-604.3725 147,-585.3725 88,-585.3725"/>
<text text-anchor="start" x="105.4956" y="-591.4725" font-family="Helvetica,sans-Serif" font-size="11.00" fill="#000000">44 rows</text>
<polygon fill="#ffffff" stroke="transparent" points="147,-585.3725 147,-604.3725 189,-604.3725 189,-585.3725 147,-585.3725"/>
<polygon fill="none" stroke="#000000" points="147,-585.3725 147,-604.3725 189,-604.3725 189,-585.3725 147,-585.3725"/>
<text text-anchor="start" x="164.2904" y="-591.4725" font-family="Helvetica,sans-Serif" font-size="11.00" fill="#000000">82 &gt;</text>
</a>
</g>
</g>
<!-- COURT_REPORT&#45;&gt;PARTITION_AREA -->
<g id="edge5" class="edge">
<title>COURT_REPORT:w&#45;&gt;PARTITION_AREA:e</title>
<path fill="none" stroke="#000000" d="M262.4747,-467.2628C194.4674,-487.0995 276.989,-656.3725 189,-656.3725"/>
<polygon fill="#000000" stroke="#000000" points="269.0669,-466.405 277.4646,-468.9423 273.0335,-465.8887 277,-465.3725 277,-465.3725 277,-465.3725 273.0335,-465.8887 276.5354,-461.8026 269.0669,-466.405 269.0669,-466.405"/>
<ellipse fill="none" stroke="#000000" cx="265.8937" cy="-466.818" rx="3.2" ry="3.2"/>
</g>
<!-- PROPOSAL -->
<g id="node4" class="node">
<title>PROPOSAL</title>
<g id="a_node4"><a xlink:href="../../tables/PROPOSAL.html" xlink:title="PROPOSAL" target="_top">
<polygon fill="#ffffff" stroke="transparent" points="546,-115.3725 546,-403.3725 793,-403.3725 793,-115.3725 546,-115.3725"/>
<polygon fill="#f5f5f5" stroke="transparent" points="548.5,-378.3725 548.5,-401.3725 791.5,-401.3725 791.5,-378.3725 548.5,-378.3725"/>
<polygon fill="none" stroke="#000000" points="548.5,-378.3725 548.5,-401.3725 791.5,-401.3725 791.5,-378.3725 548.5,-378.3725"/>
<text text-anchor="start" x="553.5" y="-387.4725" font-family="Helvetica,sans-Serif" font-weight="bold" font-size="11.00" fill="#000000">PROPOSAL</text>
<text text-anchor="start" x="756.5437" y="-386.4725" font-family="Helvetica,sans-Serif" font-size="11.00" fill="#000000">[table]</text>
<polygon fill="none" stroke="#000000" points="548.5,-356.3725 548.5,-378.3725 721.5,-378.3725 721.5,-356.3725 548.5,-356.3725"/>
<image xlink:href="../../images/primaryKeys.png" width="11px" height="12px" preserveAspectRatio="xMinYMin meet" x="553.5" y="-373.372"/>
<text text-anchor="start" x="568.5" y="-363.4725" font-family="Helvetica,sans-Serif" font-size="11.00" fill="#000000">PROPOSAL_ID</text>
<polygon fill="none" stroke="#000000" points="721.5,-356.3725 721.5,-378.3725 791.5,-378.3725 791.5,-356.3725 721.5,-356.3725"/>
<text text-anchor="start" x="724.5" y="-364.0725" font-family="Helvetica,sans-Serif" font-size="11.00" fill="#000000">number[38]</text>
<polygon fill="none" stroke="#000000" points="548.5,-334.3725 548.5,-356.3725 721.5,-356.3725 721.5,-334.3725 548.5,-334.3725"/>
<text text-anchor="start" x="568.5" y="-341.4725" font-family="Helvetica,sans-Serif" font-size="11.00" fill="#000000">LENGTH</text>
<polygon fill="none" stroke="#000000" points="721.5,-334.3725 721.5,-356.3725 791.5,-356.3725 791.5,-334.3725 721.5,-334.3725"/>
<text text-anchor="start" x="724.5" y="-342.0725" font-family="Helvetica,sans-Serif" font-size="11.00" fill="#000000">number[38]</text>
<polygon fill="none" stroke="#000000" points="548.5,-312.3725 548.5,-334.3725 721.5,-334.3725 721.5,-312.3725 548.5,-312.3725"/>
<text text-anchor="start" x="568.5" y="-319.4725" font-family="Helvetica,sans-Serif" font-size="11.00" fill="#000000">AMOUNT</text>
<polygon fill="none" stroke="#000000" points="721.5,-312.3725 721.5,-334.3725 791.5,-334.3725 791.5,-312.3725 721.5,-312.3725"/>
<text text-anchor="start" x="724.1006" y="-320.0725" font-family="Helvetica,sans-Serif" font-size="11.00" fill="#000000">number[16,2]</text>
<polygon fill="none" stroke="#000000" points="548.5,-290.3725 548.5,-312.3725 721.5,-312.3725 721.5,-290.3725 548.5,-290.3725"/>
<image xlink:href="../../images/primaryKeys.png" width="11px" height="12px" preserveAspectRatio="xMinYMin meet" x="553.5" y="-307.372"/>
<text text-anchor="start" x="568.5" y="-297.4725" font-family="Helvetica,sans-Serif" font-size="11.00" fill="#000000">COURT_REPORT_ID</text>
<polygon fill="none" stroke="#000000" points="721.5,-290.3725 721.5,-312.3725 791.5,-312.3725 791.5,-290.3725 721.5,-290.3725"/>
<text text-anchor="start" x="724.5" y="-298.0725" font-family="Helvetica,sans-Serif" font-size="11.00" fill="#000000">number[38]</text>
<polygon fill="none" stroke="#000000" points="548.5,-268.3725 548.5,-290.3725 721.5,-290.3725 721.5,-268.3725 548.5,-268.3725"/>
<text text-anchor="start" x="568.5" y="-275.4725" font-family="Helvetica,sans-Serif" font-size="11.00" fill="#000000">SOFT_DELETED</text>
<polygon fill="none" stroke="#000000" points="721.5,-268.3725 721.5,-290.3725 791.5,-290.3725 791.5,-268.3725 721.5,-268.3725"/>
<text text-anchor="start" x="724.5" y="-276.0725" font-family="Helvetica,sans-Serif" font-size="11.00" fill="#000000">number[38]</text>
<polygon fill="none" stroke="#000000" points="548.5,-246.3725 548.5,-268.3725 721.5,-268.3725 721.5,-246.3725 548.5,-246.3725"/>
<image xlink:href="../../images/primaryKeys.png" width="11px" height="12px" preserveAspectRatio="xMinYMin meet" x="553.5" y="-263.372"/>
<text text-anchor="start" x="568.5" y="-253.4725" font-family="Helvetica,sans-Serif" font-size="11.00" fill="#000000">PARTITION_AREA_ID</text>
<polygon fill="none" stroke="#000000" points="721.5,-246.3725 721.5,-268.3725 791.5,-268.3725 791.5,-246.3725 721.5,-246.3725"/>
<text text-anchor="start" x="724.5" y="-254.0725" font-family="Helvetica,sans-Serif" font-size="11.00" fill="#000000">number[38]</text>
<polygon fill="none" stroke="#000000" points="548.5,-224.3725 548.5,-246.3725 721.5,-246.3725 721.5,-224.3725 548.5,-224.3725"/>
<text text-anchor="start" x="568.5" y="-231.4725" font-family="Helvetica,sans-Serif" font-size="11.00" fill="#000000">ROW_VERSION</text>
<polygon fill="none" stroke="#000000" points="721.5,-224.3725 721.5,-246.3725 791.5,-246.3725 791.5,-224.3725 721.5,-224.3725"/>
<text text-anchor="start" x="724.5" y="-232.0725" font-family="Helvetica,sans-Serif" font-size="11.00" fill="#000000">number[38]</text>
<polygon fill="none" stroke="#000000" points="548.5,-202.3725 548.5,-224.3725 721.5,-224.3725 721.5,-202.3725 548.5,-202.3725"/>
<image xlink:href="../../images/primaryKeys.png" width="11px" height="12px" preserveAspectRatio="xMinYMin meet" x="553.5" y="-219.372"/>
<text text-anchor="start" x="563.3457" y="-209.4725" font-family="Helvetica,sans-Serif" font-size="11.00" fill="#000000">LEVEL_OF_SERIOUSNESS_ID</text>
<polygon fill="none" stroke="#000000" points="721.5,-202.3725 721.5,-224.3725 791.5,-224.3725 791.5,-202.3725 721.5,-202.3725"/>
<text text-anchor="start" x="724.5" y="-210.0725" font-family="Helvetica,sans-Serif" font-size="11.00" fill="#000000">number[38]</text>
<polygon fill="none" stroke="#000000" points="548.5,-180.3725 548.5,-202.3725 721.5,-202.3725 721.5,-180.3725 548.5,-180.3725"/>
<image xlink:href="../../images/primaryKeys.png" width="11px" height="12px" preserveAspectRatio="xMinYMin meet" x="553.5" y="-197.372"/>
<text text-anchor="start" x="568.5" y="-187.4725" font-family="Helvetica,sans-Serif" font-size="11.00" fill="#000000">PROPOSAL_TYPE_ID</text>
<polygon fill="none" stroke="#000000" points="721.5,-180.3725 721.5,-202.3725 791.5,-202.3725 791.5,-180.3725 721.5,-180.3725"/>
<text text-anchor="start" x="724.5" y="-188.0725" font-family="Helvetica,sans-Serif" font-size="11.00" fill="#000000">number[38]</text>
<polygon fill="none" stroke="#000000" points="548.5,-158.3725 548.5,-180.3725 721.5,-180.3725 721.5,-158.3725 548.5,-158.3725"/>
<image xlink:href="../../images/primaryKeys.png" width="11px" height="12px" preserveAspectRatio="xMinYMin meet" x="553.5" y="-175.372"/>
<text text-anchor="start" x="568.5" y="-165.4725" font-family="Helvetica,sans-Serif" font-size="11.00" fill="#000000">PROPOSED_TIER_ID</text>
<polygon fill="none" stroke="#000000" points="721.5,-158.3725 721.5,-180.3725 791.5,-180.3725 791.5,-158.3725 721.5,-158.3725"/>
<text text-anchor="start" x="724.5" y="-166.0725" font-family="Helvetica,sans-Serif" font-size="11.00" fill="#000000">number[38]</text>
<polygon fill="none" stroke="#000000" points="548.5,-136.3725 548.5,-158.3725 721.5,-158.3725 721.5,-136.3725 548.5,-136.3725"/>
<image xlink:href="../../images/primaryKeys.png" width="11px" height="12px" preserveAspectRatio="xMinYMin meet" x="553.5" y="-153.372"/>
<text text-anchor="start" x="568.5" y="-143.4725" font-family="Helvetica,sans-Serif" font-size="11.00" fill="#000000">TRAINING_SESSION_ID</text>
<polygon fill="none" stroke="#000000" points="721.5,-136.3725 721.5,-158.3725 791.5,-158.3725 791.5,-136.3725 721.5,-136.3725"/>
<text text-anchor="start" x="724.5" y="-144.0725" font-family="Helvetica,sans-Serif" font-size="11.00" fill="#000000">number[38]</text>
<polygon fill="#ffffff" stroke="transparent" points="548.5,-117.3725 548.5,-136.3725 620.5,-136.3725 620.5,-117.3725 548.5,-117.3725"/>
<polygon fill="none" stroke="#000000" points="548.5,-117.3725 548.5,-136.3725 620.5,-136.3725 620.5,-117.3725 548.5,-117.3725"/>
<text text-anchor="start" x="551.5" y="-123.4725" font-family="Helvetica,sans-Serif" font-size="11.00" fill="#000000">&lt; 5</text>
<polygon fill="#ffffff" stroke="transparent" points="620.5,-117.3725 620.5,-136.3725 721.5,-136.3725 721.5,-117.3725 620.5,-117.3725"/>
<polygon fill="none" stroke="#000000" points="620.5,-117.3725 620.5,-136.3725 721.5,-136.3725 721.5,-117.3725 620.5,-117.3725"/>
<text text-anchor="start" x="673.8807" y="-123.4725" font-family="Helvetica,sans-Serif" font-size="11.00" fill="#000000">123 rows</text>
<polygon fill="#ffffff" stroke="transparent" points="721.5,-117.3725 721.5,-136.3725 791.5,-136.3725 791.5,-117.3725 721.5,-117.3725"/>
<polygon fill="none" stroke="#000000" points="721.5,-117.3725 721.5,-136.3725 791.5,-136.3725 791.5,-117.3725 721.5,-117.3725"/>
<text text-anchor="start" x="772.9053" y="-123.4725" font-family="Helvetica,sans-Serif" font-size="11.00" fill="#000000">1 &gt;</text>
<polygon fill="none" stroke="#000000" stroke-width="2" points="547,-116.3725 547,-402.3725 792,-402.3725 792,-116.3725 547,-116.3725"/>
</a>
</g>
</g>
<!-- PROPOSAL&#45;&gt;COURT_REPORT -->
<g id="edge6" class="edge">
<title>PROPOSAL:w&#45;&gt;COURT_REPORT:e</title>
<path fill="none" stroke="#000000" d="M537.9791,-302.0712C426.8978,-317.9007 626.7502,-597.3725 497,-597.3725"/>
<polygon fill="#000000" stroke="#000000" points="547.4366,-297.4343 547.9669,-305.4167 546.3704,-305.5227 545.8402,-297.5403 547.4366,-297.4343"/>
<polyline fill="none" stroke="#000000" points="548.5,-301.3725 544.5088,-301.6376 "/>
<ellipse fill="none" stroke="#000000" cx="541.3158" cy="-301.8497" rx="3.2" ry="3.2"/>
</g>
<!-- PROPOSAL&#45;&gt;R_STANDARD_REFERENCE_LIST -->
<g id="edge7" class="edge">
<title>PROPOSAL:w&#45;&gt;R_STANDARD_REFERENCE_LIST:e</title>
<path fill="none" stroke="#000000" d="M534.5198,-209.7248C524.6611,-203.5826 520.9493,-191.3586 505,-186.3725 387.347,-149.5915 351.2683,-172.3725 228,-172.3725"/>
<polygon fill="#000000" stroke="#000000" points="540.7591,-211.3527 547.5911,-216.8558 544.6296,-212.3626 548.5,-213.3725 548.5,-213.3725 548.5,-213.3725 544.6296,-212.3626 549.4089,-209.8891 540.7591,-211.3527 540.7591,-211.3527"/>
<ellipse fill="none" stroke="#000000" cx="537.6628" cy="-210.5448" rx="3.2" ry="3.2"/>
</g>
<!-- PROPOSAL&#45;&gt;R_STANDARD_REFERENCE_LIST -->
<g id="edge9" class="edge">
<title>PROPOSAL:w&#45;&gt;R_STANDARD_REFERENCE_LIST:e</title>
<path fill="none" stroke="#000000" d="M534.394,-187.3677C524.6048,-180.6393 521.3316,-167.3173 505,-162.3725 404.6117,-131.9773 373.1394,-149.856 269,-162.3725 250.3776,-164.6107 246.7564,-172.3725 228,-172.3725"/>
<polygon fill="#000000" stroke="#000000" points="540.8041,-189.1875 547.5168,-194.8356 544.6521,-190.28 548.5,-191.3725 548.5,-191.3725 548.5,-191.3725 544.6521,-190.28 549.4832,-187.9093 540.8041,-189.1875 540.8041,-189.1875"/>
<ellipse fill="none" stroke="#000000" cx="537.7258" cy="-188.3136" rx="3.2" ry="3.2"/>
</g>
<!-- PROPOSAL&#45;&gt;R_STANDARD_REFERENCE_LIST -->
<g id="edge10" class="edge">
<title>PROPOSAL:w&#45;&gt;R_STANDARD_REFERENCE_LIST:e</title>
<path fill="none" stroke="#000000" d="M534.5454,-165.6393C524.7253,-159.3678 521.0701,-146.9543 505,-142.3725 404.1309,-113.613 368.7005,-109.7919 269,-142.3725 247.5376,-149.3861 250.5794,-172.3725 228,-172.3725"/>
<polygon fill="#000000" stroke="#000000" points="540.7718,-167.3049 547.5696,-172.8502 544.6359,-168.3387 548.5,-169.3725 548.5,-169.3725 548.5,-169.3725 544.6359,-168.3387 549.4304,-165.8948 540.7718,-167.3049 540.7718,-167.3049"/>
<ellipse fill="none" stroke="#000000" cx="537.6805" cy="-166.4779" rx="3.2" ry="3.2"/>
</g>
<!-- PROPOSAL&#45;&gt;PARTITION_AREA -->
<g id="edge8" class="edge">
<title>PROPOSAL:w&#45;&gt;PARTITION_AREA:e</title>
<path fill="none" stroke="#000000" d="M534.5139,-261.0505C474.9325,-297.1065 563.9904,-587.2759 505,-642.3725 453.6302,-690.3514 259.2911,-656.3725 189,-656.3725"/>
<polygon fill="#000000" stroke="#000000" points="540.7631,-259.4072 549.4156,-260.8541 544.6315,-258.3898 548.5,-257.3725 548.5,-257.3725 548.5,-257.3725 544.6315,-258.3898 547.5844,-253.8908 540.7631,-259.4072 540.7631,-259.4072"/>
<ellipse fill="none" stroke="#000000" cx="537.6683" cy="-260.221" rx="3.2" ry="3.2"/>
</g>
<!-- PROPOSED_RQMNT -->
<g id="node5" class="node">
<title>PROPOSED_RQMNT</title>
<g id="a_node5"><a xlink:href="../../tables/PROPOSED_RQMNT.html" xlink:title="PROPOSED_RQMNT" target="_top">
<polygon fill="#ffffff" stroke="transparent" points="842,-89.8725 842,-326.8725 1068,-326.8725 1068,-89.8725 842,-89.8725"/>
<polygon fill="#f5f5f5" stroke="transparent" points="842,-303.3725 842,-326.3725 1068,-326.3725 1068,-303.3725 842,-303.3725"/>
<polygon fill="none" stroke="#000000" points="842,-303.3725 842,-326.3725 1068,-326.3725 1068,-303.3725 842,-303.3725"/>
<text text-anchor="start" x="847" y="-312.4725" font-family="Helvetica,sans-Serif" font-weight="bold" font-size="11.00" fill="#000000">PROPOSED_RQMNT</text>
<text text-anchor="start" x="1033.0437" y="-311.4725" font-family="Helvetica,sans-Serif" font-size="11.00" fill="#000000">[table]</text>
<polygon fill="none" stroke="#000000" points="842,-281.3725 842,-303.3725 1068,-303.3725 1068,-281.3725 842,-281.3725"/>
<image xlink:href="../../images/primaryKeys.png" width="11px" height="12px" preserveAspectRatio="xMinYMin meet" x="847" y="-298.372"/>
<text text-anchor="start" x="862" y="-288.4725" font-family="Helvetica,sans-Serif" font-size="11.00" fill="#000000">PROPOSED_RQMNT_ID</text>
<polygon fill="none" stroke="#000000" points="842,-259.3725 842,-281.3725 1068,-281.3725 1068,-259.3725 842,-259.3725"/>
<image xlink:href="../../images/primaryKeys.png" width="11px" height="12px" preserveAspectRatio="xMinYMin meet" x="847" y="-276.372"/>
<text text-anchor="start" x="862" y="-266.4725" font-family="Helvetica,sans-Serif" font-size="11.00" fill="#000000">PROPOSAL_ID</text>
<polygon fill="none" stroke="#000000" points="842,-237.3725 842,-259.3725 1068,-259.3725 1068,-237.3725 842,-237.3725"/>
<image xlink:href="../../images/primaryKeys.png" width="11px" height="12px" preserveAspectRatio="xMinYMin meet" x="847" y="-254.372"/>
<text text-anchor="start" x="862" y="-244.4725" font-family="Helvetica,sans-Serif" font-size="11.00" fill="#000000">PARTITION_AREA_ID</text>
<polygon fill="none" stroke="#000000" points="842,-215.3725 842,-237.3725 1068,-237.3725 1068,-215.3725 842,-215.3725"/>
<image xlink:href="../../images/primaryKeys.png" width="11px" height="12px" preserveAspectRatio="xMinYMin meet" x="847" y="-232.372"/>
<text text-anchor="start" x="862" y="-222.4725" font-family="Helvetica,sans-Serif" font-size="11.00" fill="#000000">RQMNT_TYPE_MAIN_CATEGORY_ID</text>
<polygon fill="none" stroke="#000000" points="842,-193.3725 842,-215.3725 1068,-215.3725 1068,-193.3725 842,-193.3725"/>
<image xlink:href="../../images/primaryKeys.png" width="11px" height="12px" preserveAspectRatio="xMinYMin meet" x="847" y="-210.372"/>
<text text-anchor="start" x="862" y="-200.4725" font-family="Helvetica,sans-Serif" font-size="11.00" fill="#000000">RQMNT_TYPE_SUB_CATEGORY_ID</text>
<polygon fill="none" stroke="#000000" points="842,-171.3725 842,-193.3725 1068,-193.3725 1068,-171.3725 842,-171.3725"/>
<image xlink:href="../../images/primaryKeys.png" width="11px" height="12px" preserveAspectRatio="xMinYMin meet" x="847" y="-188.372"/>
<text text-anchor="start" x="854.942" y="-178.4725" font-family="Helvetica,sans-Serif" font-size="11.00" fill="#000000">AD_RQMNT_TYPE_MAIN_CATEGORY_ID</text>
<polygon fill="none" stroke="#000000" points="842,-149.3725 842,-171.3725 1068,-171.3725 1068,-149.3725 842,-149.3725"/>
<image xlink:href="../../images/primaryKeys.png" width="11px" height="12px" preserveAspectRatio="xMinYMin meet" x="847" y="-166.372"/>
<text text-anchor="start" x="857.3835" y="-156.4725" font-family="Helvetica,sans-Serif" font-size="11.00" fill="#000000">AD_RQMNT_TYPE_SUB_CATEGORY_ID</text>
<polygon fill="none" stroke="#000000" points="842,-127.3725 842,-149.3725 1068,-149.3725 1068,-127.3725 842,-127.3725"/>
<image xlink:href="../../images/primaryKeys.png" width="11px" height="12px" preserveAspectRatio="xMinYMin meet" x="847" y="-144.372"/>
<text text-anchor="start" x="862" y="-134.4725" font-family="Helvetica,sans-Serif" font-size="11.00" fill="#000000">TRAINING_SESSION_ID</text>
<polygon fill="none" stroke="#000000" points="842,-108.3725 842,-127.3725 1068,-127.3725 1068,-108.3725 842,-108.3725"/>
<text text-anchor="start" x="845" y="-114.4725" font-family="Helvetica,sans-Serif" font-size="11.00" fill="#000000">...</text>
<polygon fill="#ffffff" stroke="transparent" points="842,-89.3725 842,-108.3725 937,-108.3725 937,-89.3725 842,-89.3725"/>
<polygon fill="none" stroke="#000000" points="842,-89.3725 842,-108.3725 937,-108.3725 937,-89.3725 842,-89.3725"/>
<text text-anchor="start" x="845" y="-95.4725" font-family="Helvetica,sans-Serif" font-size="11.00" fill="#000000">&lt; 6</text>
<polygon fill="#ffffff" stroke="transparent" points="937,-89.3725 937,-108.3725 1018,-108.3725 1018,-89.3725 937,-89.3725"/>
<polygon fill="none" stroke="#000000" points="937,-89.3725 937,-108.3725 1018,-108.3725 1018,-89.3725 937,-89.3725"/>
<text text-anchor="start" x="976.4956" y="-95.4725" font-family="Helvetica,sans-Serif" font-size="11.00" fill="#000000">70 rows</text>
<polygon fill="#ffffff" stroke="transparent" points="1018,-89.3725 1018,-108.3725 1068,-108.3725 1068,-89.3725 1018,-89.3725"/>
<polygon fill="none" stroke="#000000" points="1018,-89.3725 1018,-108.3725 1068,-108.3725 1068,-89.3725 1018,-89.3725"/>
<text text-anchor="start" x="1058.8862" y="-95.4725" font-family="Helvetica,sans-Serif" font-size="11.00" fill="#000000"> &#160;</text>
</a>
</g>
</g>
<!-- PROPOSED_RQMNT&#45;&gt;R_STANDARD_REFERENCE_LIST -->
<g id="edge11" class="edge">
<title>PROPOSED_RQMNT:w&#45;&gt;R_STANDARD_REFERENCE_LIST:e</title>
<path fill="none" stroke="#000000" d="M827.7279,-156.0776C811.2803,-142.2117 829.2596,-98.5449 801,-81.3725 699.9686,-19.9791 368.2919,-17.2039 269,-81.3725 231.7432,-105.4501 272.3599,-172.3725 228,-172.3725"/>
<polygon fill="#000000" stroke="#000000" points="834.3393,-158.0671 840.9626,-163.8198 838.1697,-159.2198 842,-160.3725 842,-160.3725 842,-160.3725 838.1697,-159.2198 843.0374,-156.9252 834.3393,-158.0671 834.3393,-158.0671"/>
<ellipse fill="none" stroke="#000000" cx="831.2751" cy="-157.145" rx="3.2" ry="3.2"/>
</g>
<!-- PROPOSED_RQMNT&#45;&gt;R_STANDARD_REFERENCE_LIST -->
<g id="edge14" class="edge">
<title>PROPOSED_RQMNT:w&#45;&gt;R_STANDARD_REFERENCE_LIST:e</title>
<path fill="none" stroke="#000000" d="M827.7685,-200.9778C804.6206,-186.2623 835.7492,-127.6818 801,-104.3725 751.8996,-71.4366 321.0536,-87.3361 269,-115.3725 241.5255,-130.1704 259.2062,-172.3725 228,-172.3725"/>
<polygon fill="#000000" stroke="#000000" points="834.2183,-202.5162 841.1647,-207.8742 838.1092,-203.4443 842,-204.3725 842,-204.3725 842,-204.3725 838.1092,-203.4443 842.8353,-200.8707 834.2183,-202.5162 834.2183,-202.5162"/>
<ellipse fill="none" stroke="#000000" cx="831.1056" cy="-201.7738" rx="3.2" ry="3.2"/>
</g>
<!-- PROPOSED_RQMNT&#45;&gt;PARTITION_AREA -->
<g id="edge12" class="edge">
<title>PROPOSED_RQMNT:w&#45;&gt;PARTITION_AREA:e</title>
<path fill="none" stroke="#000000" d="M827.4672,-249.9923C776.517,-263.2273 838.1204,-354.6076 801,-414.3725 710.1445,-560.6524 666.7194,-605.2168 505,-664.3725 406.4945,-700.405 373.7587,-669.5974 269,-664.3725 233.3115,-662.5925 224.7329,-656.3725 189,-656.3725"/>
<polygon fill="#000000" stroke="#000000" points="834.0492,-249.2587 842.3988,-251.9503 838.0246,-248.8156 842,-248.3725 842,-248.3725 842,-248.3725 838.0246,-248.8156 841.6012,-244.7946 834.0492,-249.2587 834.0492,-249.2587"/>
<ellipse fill="none" stroke="#000000" cx="830.8689" cy="-249.6132" rx="3.2" ry="3.2"/>
</g>
<!-- PROPOSED_RQMNT&#45;&gt;PROPOSAL -->
<g id="edge13" class="edge">
<title>PROPOSED_RQMNT:w&#45;&gt;PROPOSAL:e</title>
<path fill="none" stroke="#000000" d="M827.869,-274.5404C803.5839,-293.1068 834.0282,-367.3725 791.5,-367.3725"/>
<polygon fill="#000000" stroke="#000000" points="834.3268,-272.6357 843.0185,-273.8254 838.1634,-271.5041 842,-270.3725 842,-270.3725 842,-270.3725 838.1634,-271.5041 840.9815,-266.9195 834.3268,-272.6357 834.3268,-272.6357"/>
<ellipse fill="none" stroke="#000000" cx="831.2575" cy="-273.541" rx="3.2" ry="3.2"/>
</g>
</g>
</svg>
