<?xml version="1.0" encoding="UTF-8" standalone="no"?>
<!DOCTYPE svg PUBLIC "-//W3C//DTD SVG 1.1//EN"
 "http://www.w3.org/Graphics/SVG/1.1/DTD/svg11.dtd">
<!-- Generated by graphviz version 2.40.1 (20161225.0304)
 -->
<!-- Title: oneDegreeRelationshipsDiagram Pages: 1 -->
<svg width="584pt" height="369pt"
 viewBox="0.00 0.00 584.00 369.20" xmlns="http://www.w3.org/2000/svg" xmlns:xlink="http://www.w3.org/1999/xlink">
<g id="graph0" class="graph" transform="scale(1 1) rotate(0) translate(4 365.2)">
<title>oneDegreeRelationshipsDiagram</title>
<polygon fill="#ffffff" stroke="transparent" points="-4,4 -4,-365.2 580,-365.2 580,4 -4,4"/>
<text text-anchor="middle" x="72.4936" y="-7.3" font-family="Helvetica,sans-Serif" font-size="11.00" fill="#000000">Generated by SchemaSpy</text>
<!-- PROPOSAL_TYPE_COURTREPORT_TYPE -->
<g id="node1" class="node">
<title>PROPOSAL_TYPE_COURTREPORT_TYPE</title>
<g id="a_node1"><a xlink:href="../../tables/PROPOSAL_TYPE_COURTREPORT_TYPE.html" xlink:title="PROPOSAL_TYPE_COURTREPORT_TYPE" target="_top">
<polygon fill="#ffffff" stroke="transparent" points="277,-62.7 277,-284.7 568,-284.7 568,-62.7 277,-62.7"/>
<polygon fill="#f5f5f5" stroke="transparent" points="279.5,-259.7 279.5,-282.7 566.5,-282.7 566.5,-259.7 279.5,-259.7"/>
<polygon fill="none" stroke="#000000" points="279.5,-259.7 279.5,-282.7 566.5,-282.7 566.5,-259.7 279.5,-259.7"/>
<text text-anchor="start" x="284.5" y="-268.8" font-family="Helvetica,sans-Serif" font-weight="bold" font-size="11.00" fill="#000000">PROPOSAL_TYPE_COURTREPORT_TYPE</text>
<text text-anchor="start" x="531.5437" y="-267.8" font-family="Helvetica,sans-Serif" font-size="11.00" fill="#000000">[table]</text>
<polygon fill="none" stroke="#000000" points="279.5,-237.7 279.5,-259.7 505.5,-259.7 505.5,-237.7 279.5,-237.7"/>
<image xlink:href="../../images/primaryKeys.png" width="11px" height="12px" preserveAspectRatio="xMinYMin meet" x="284.5" y="-254.7"/>
<text text-anchor="start" x="299.5" y="-244.8" font-family="Helvetica,sans-Serif" font-size="11.00" fill="#000000">PROPOSAL_TYPE_ID</text>
<polygon fill="none" stroke="#000000" points="505.5,-237.7 505.5,-259.7 566.5,-259.7 566.5,-237.7 505.5,-237.7"/>
<text text-anchor="start" x="508.1865" y="-245.4" font-family="Helvetica,sans-Serif" font-size="11.00" fill="#000000">number[38]</text>
<polygon fill="none" stroke="#000000" points="279.5,-215.7 279.5,-237.7 505.5,-237.7 505.5,-215.7 279.5,-215.7"/>
<image xlink:href="../../images/primaryKeys.png" width="11px" height="12px" preserveAspectRatio="xMinYMin meet" x="284.5" y="-232.7"/>
<text text-anchor="start" x="299.5" y="-222.8" font-family="Helvetica,sans-Serif" font-size="11.00" fill="#000000">COURT_REPORT_TYPE_ID</text>
<polygon fill="none" stroke="#000000" points="505.5,-215.7 505.5,-237.7 566.5,-237.7 566.5,-215.7 505.5,-215.7"/>
<text text-anchor="start" x="508.1865" y="-223.4" font-family="Helvetica,sans-Serif" font-size="11.00" fill="#000000">number[38]</text>
<polygon fill="none" stroke="#000000" points="279.5,-193.7 279.5,-215.7 505.5,-215.7 505.5,-193.7 279.5,-193.7"/>
<text text-anchor="start" x="299.5" y="-200.8" font-family="Helvetica,sans-Serif" font-size="11.00" fill="#000000">ROW_VERSION</text>
<polygon fill="none" stroke="#000000" points="505.5,-193.7 505.5,-215.7 566.5,-215.7 566.5,-193.7 505.5,-193.7"/>
<text text-anchor="start" x="508.1865" y="-201.4" font-family="Helvetica,sans-Serif" font-size="11.00" fill="#000000">number[38]</text>
<polygon fill="none" stroke="#000000" points="279.5,-171.7 279.5,-193.7 505.5,-193.7 505.5,-171.7 279.5,-171.7"/>
<text text-anchor="start" x="299.5" y="-178.8" font-family="Helvetica,sans-Serif" font-size="11.00" fill="#000000">CREATED_DATETIME</text>
<polygon fill="none" stroke="#000000" points="505.5,-171.7 505.5,-193.7 566.5,-193.7 566.5,-171.7 505.5,-171.7"/>
<text text-anchor="start" x="508.5" y="-179.4" font-family="Helvetica,sans-Serif" font-size="11.00" fill="#000000">date[7]</text>
<polygon fill="none" stroke="#000000" points="279.5,-149.7 279.5,-171.7 505.5,-171.7 505.5,-149.7 279.5,-149.7"/>
<text text-anchor="start" x="299.5" y="-156.8" font-family="Helvetica,sans-Serif" font-size="11.00" fill="#000000">CREATED_BY_USER_ID</text>
<polygon fill="none" stroke="#000000" points="505.5,-149.7 505.5,-171.7 566.5,-171.7 566.5,-149.7 505.5,-149.7"/>
<text text-anchor="start" x="508.1865" y="-157.4" font-family="Helvetica,sans-Serif" font-size="11.00" fill="#000000">number[38]</text>
<polygon fill="none" stroke="#000000" points="279.5,-127.7 279.5,-149.7 505.5,-149.7 505.5,-127.7 279.5,-127.7"/>
<text text-anchor="start" x="299.5" y="-134.8" font-family="Helvetica,sans-Serif" font-size="11.00" fill="#000000">LAST_UPDATED_DATETIME</text>
<polygon fill="none" stroke="#000000" points="505.5,-127.7 505.5,-149.7 566.5,-149.7 566.5,-127.7 505.5,-127.7"/>
<text text-anchor="start" x="508.5" y="-135.4" font-family="Helvetica,sans-Serif" font-size="11.00" fill="#000000">date[7]</text>
<polygon fill="none" stroke="#000000" points="279.5,-105.7 279.5,-127.7 505.5,-127.7 505.5,-105.7 279.5,-105.7"/>
<text text-anchor="start" x="299.5" y="-112.8" font-family="Helvetica,sans-Serif" font-size="11.00" fill="#000000">LAST_UPDATED_USER_ID</text>
<polygon fill="none" stroke="#000000" points="505.5,-105.7 505.5,-127.7 566.5,-127.7 566.5,-105.7 505.5,-105.7"/>
<text text-anchor="start" x="508.1865" y="-113.4" font-family="Helvetica,sans-Serif" font-size="11.00" fill="#000000">number[38]</text>
<polygon fill="none" stroke="#000000" points="279.5,-83.7 279.5,-105.7 505.5,-105.7 505.5,-83.7 279.5,-83.7"/>
<image xlink:href="../../images/primaryKeys.png" width="11px" height="12px" preserveAspectRatio="xMinYMin meet" x="284.5" y="-100.7"/>
<text text-anchor="start" x="299.5" y="-90.8" font-family="Helvetica,sans-Serif" font-size="11.00" fill="#000000">TRAINING_SESSION_ID</text>
<polygon fill="none" stroke="#000000" points="505.5,-83.7 505.5,-105.7 566.5,-105.7 566.5,-83.7 505.5,-83.7"/>
<text text-anchor="start" x="508.1865" y="-91.4" font-family="Helvetica,sans-Serif" font-size="11.00" fill="#000000">number[38]</text>
<polygon fill="#ffffff" stroke="transparent" points="279.5,-64.7 279.5,-83.7 377.5,-83.7 377.5,-64.7 279.5,-64.7"/>
<polygon fill="none" stroke="#000000" points="279.5,-64.7 279.5,-83.7 377.5,-83.7 377.5,-64.7 279.5,-64.7"/>
<text text-anchor="start" x="282.5" y="-70.8" font-family="Helvetica,sans-Serif" font-size="11.00" fill="#000000">&lt; 2</text>
<polygon fill="#ffffff" stroke="transparent" points="377.5,-64.7 377.5,-83.7 505.5,-83.7 505.5,-64.7 377.5,-64.7"/>
<polygon fill="none" stroke="#000000" points="377.5,-64.7 377.5,-83.7 505.5,-83.7 505.5,-64.7 377.5,-64.7"/>
<text text-anchor="start" x="457.8807" y="-70.8" font-family="Helvetica,sans-Serif" font-size="11.00" fill="#000000">649 rows</text>
<polygon fill="#ffffff" stroke="transparent" points="505.5,-64.7 505.5,-83.7 566.5,-83.7 566.5,-64.7 505.5,-64.7"/>
<polygon fill="none" stroke="#000000" points="505.5,-64.7 505.5,-83.7 566.5,-83.7 566.5,-64.7 505.5,-64.7"/>
<text text-anchor="start" x="547.9053" y="-70.8" font-family="Helvetica,sans-Serif" font-size="11.00" fill="#000000">0 &gt;</text>
<polygon fill="none" stroke="#000000" stroke-width="2" points="278,-63.7 278,-283.7 567,-283.7 567,-63.7 278,-63.7"/>
</a>
</g>
</g>
<!-- R_COURT_REPORT_TYPE -->
<g id="node2" class="node">
<title>R_COURT_REPORT_TYPE</title>
<g id="a_node2"><a xlink:href="../../tables/R_COURT_REPORT_TYPE.html" xlink:title="R_COURT_REPORT_TYPE" target="_top">
<polygon fill="#ffffff" stroke="transparent" points="27,-38.2 27,-187.2 209,-187.2 209,-38.2 27,-38.2"/>
<polygon fill="#f5f5f5" stroke="transparent" points="27,-163.7 27,-186.7 209,-186.7 209,-163.7 27,-163.7"/>
<polygon fill="none" stroke="#000000" points="27,-163.7 27,-186.7 209,-186.7 209,-163.7 27,-163.7"/>
<text text-anchor="start" x="31.5285" y="-172.8" font-family="Helvetica,sans-Serif" font-weight="bold" font-size="11.00" fill="#000000">R_COURT_REPORT_TYPE</text>
<text text-anchor="start" x="174.5219" y="-171.8" font-family="Helvetica,sans-Serif" font-size="11.00" fill="#000000">[table]</text>
<polygon fill="none" stroke="#000000" points="27,-141.7 27,-163.7 209,-163.7 209,-141.7 27,-141.7"/>
<image xlink:href="../../images/primaryKeys.png" width="11px" height="12px" preserveAspectRatio="xMinYMin meet" x="32" y="-158.7"/>
<text text-anchor="start" x="54.5" y="-148.8" font-family="Helvetica,sans-Serif" font-size="11.00" fill="#000000">COURT_REPORT_TYPE_ID</text>
<polygon fill="none" stroke="#000000" points="27,-119.7 27,-141.7 209,-141.7 209,-119.7 27,-119.7"/>
<image xlink:href="../../images/primaryKeys.png" width="11px" height="12px" preserveAspectRatio="xMinYMin meet" x="32" y="-136.7"/>
<text text-anchor="start" x="58" y="-126.8" font-family="Helvetica,sans-Serif" font-size="11.00" fill="#000000">CODE</text>
<polygon fill="none" stroke="#000000" points="27,-97.7 27,-119.7 209,-119.7 209,-97.7 27,-97.7"/>
<image xlink:href="../../images/primaryKeys.png" width="11px" height="12px" preserveAspectRatio="xMinYMin meet" x="32" y="-114.7"/>
<text text-anchor="start" x="58" y="-104.8" font-family="Helvetica,sans-Serif" font-size="11.00" fill="#000000">FORM_30_CODE</text>
<polygon fill="none" stroke="#000000" points="27,-75.7 27,-97.7 209,-97.7 209,-75.7 27,-75.7"/>
<image xlink:href="../../images/primaryKeys.png" width="11px" height="12px" preserveAspectRatio="xMinYMin meet" x="32" y="-92.7"/>
<text text-anchor="start" x="58" y="-82.8" font-family="Helvetica,sans-Serif" font-size="11.00" fill="#000000">TRAINING_SESSION_ID</text>
<polygon fill="none" stroke="#000000" points="27,-56.7 27,-75.7 209,-75.7 209,-56.7 27,-56.7"/>
<text text-anchor="start" x="30" y="-62.8" font-family="Helvetica,sans-Serif" font-size="11.00" fill="#000000">...</text>
<polygon fill="#ffffff" stroke="transparent" points="27,-37.7 27,-56.7 88,-56.7 88,-37.7 27,-37.7"/>
<polygon fill="none" stroke="#000000" points="27,-37.7 27,-56.7 88,-56.7 88,-37.7 27,-37.7"/>
<text text-anchor="start" x="30" y="-43.8" font-family="Helvetica,sans-Serif" font-size="11.00" fill="#000000"> &#160;</text>
<polygon fill="#ffffff" stroke="transparent" points="88,-37.7 88,-56.7 163,-56.7 163,-37.7 88,-37.7"/>
<polygon fill="none" stroke="#000000" points="88,-37.7 88,-56.7 163,-56.7 163,-37.7 88,-37.7"/>
<text text-anchor="start" x="115.3807" y="-43.8" font-family="Helvetica,sans-Serif" font-size="11.00" fill="#000000">156 rows</text>
<polygon fill="#ffffff" stroke="transparent" points="163,-37.7 163,-56.7 209,-56.7 209,-37.7 163,-37.7"/>
<polygon fill="none" stroke="#000000" points="163,-37.7 163,-56.7 209,-56.7 209,-37.7 163,-37.7"/>
<text text-anchor="start" x="190.4053" y="-43.8" font-family="Helvetica,sans-Serif" font-size="11.00" fill="#000000">5 &gt;</text>
</a>
</g>
</g>
<!-- PROPOSAL_TYPE_COURTREPORT_TYPE&#45;&gt;R_COURT_REPORT_TYPE -->
<g id="edge1" class="edge">
<title>PROPOSAL_TYPE_COURTREPORT_TYPE:w&#45;&gt;R_COURT_REPORT_TYPE:e</title>
<path fill="none" stroke="#000000" d="M265.2918,-223.5203C238.1346,-209.3563 248.7471,-152.7 209,-152.7"/>
<polygon fill="#000000" stroke="#000000" points="271.6931,-224.9528 278.7138,-230.2131 275.5966,-225.8264 279.5,-226.7 279.5,-226.7 279.5,-226.7 275.5966,-225.8264 280.2862,-223.1869 271.6931,-224.9528 271.6931,-224.9528"/>
<ellipse fill="none" stroke="#000000" cx="268.5704" cy="-224.254" rx="3.2" ry="3.2"/>
</g>
<!-- R_STANDARD_REFERENCE_LIST -->
<g id="node3" class="node">
<title>R_STANDARD_REFERENCE_LIST</title>
<g id="a_node3"><a xlink:href="../../tables/R_STANDARD_REFERENCE_LIST.html" xlink:title="R_STANDARD_REFERENCE_LIST" target="_top">
<polygon fill="#ffffff" stroke="transparent" points="8,-208.2 8,-357.2 228,-357.2 228,-208.2 8,-208.2"/>
<polygon fill="#f5f5f5" stroke="transparent" points="8,-333.7 8,-356.7 228,-356.7 228,-333.7 8,-333.7"/>
<polygon fill="none" stroke="#000000" points="8,-333.7 8,-356.7 228,-356.7 228,-333.7 8,-333.7"/>
<text text-anchor="start" x="12.5842" y="-342.8" font-family="Helvetica,sans-Serif" font-weight="bold" font-size="11.00" fill="#000000">R_STANDARD_REFERENCE_LIST</text>
<text text-anchor="start" x="193.5219" y="-341.8" font-family="Helvetica,sans-Serif" font-size="11.00" fill="#000000">[table]</text>
<polygon fill="none" stroke="#000000" points="8,-311.7 8,-333.7 228,-333.7 228,-311.7 8,-311.7"/>
<image xlink:href="../../images/primaryKeys.png" width="11px" height="12px" preserveAspectRatio="xMinYMin meet" x="13" y="-328.7"/>
<text text-anchor="start" x="35.5558" y="-318.8" font-family="Helvetica,sans-Serif" font-size="11.00" fill="#000000">STANDARD_REFERENCE_LIST_ID</text>
<polygon fill="none" stroke="#000000" points="8,-289.7 8,-311.7 228,-311.7 228,-289.7 8,-289.7"/>
<image xlink:href="../../images/primaryKeys.png" width="11px" height="12px" preserveAspectRatio="xMinYMin meet" x="13" y="-306.7"/>
<text text-anchor="start" x="42" y="-296.8" font-family="Helvetica,sans-Serif" font-size="11.00" fill="#000000">CODE_VALUE</text>
<polygon fill="none" stroke="#000000" points="8,-267.7 8,-289.7 228,-289.7 228,-267.7 8,-267.7"/>
<image xlink:href="../../images/primaryKeys.png" width="11px" height="12px" preserveAspectRatio="xMinYMin meet" x="13" y="-284.7"/>
<text text-anchor="start" x="39.8337" y="-274.8" font-family="Helvetica,sans-Serif" font-size="11.00" fill="#000000">REFERENCE_DATA_MASTER_ID</text>
<polygon fill="none" stroke="#000000" points="8,-245.7 8,-267.7 228,-267.7 228,-245.7 8,-245.7"/>
<image xlink:href="../../images/primaryKeys.png" width="11px" height="12px" preserveAspectRatio="xMinYMin meet" x="13" y="-262.7"/>
<text text-anchor="start" x="42" y="-252.8" font-family="Helvetica,sans-Serif" font-size="11.00" fill="#000000">TRAINING_SESSION_ID</text>
<polygon fill="none" stroke="#000000" points="8,-226.7 8,-245.7 228,-245.7 228,-226.7 8,-226.7"/>
<text text-anchor="start" x="11" y="-232.8" font-family="Helvetica,sans-Serif" font-size="11.00" fill="#000000">...</text>
<polygon fill="#ffffff" stroke="transparent" points="8,-207.7 8,-226.7 79,-226.7 79,-207.7 8,-207.7"/>
<polygon fill="none" stroke="#000000" points="8,-207.7 8,-226.7 79,-226.7 79,-207.7 8,-207.7"/>
<text text-anchor="start" x="11" y="-213.8" font-family="Helvetica,sans-Serif" font-size="11.00" fill="#000000">&lt; 1</text>
<polygon fill="#ffffff" stroke="transparent" points="79,-207.7 79,-226.7 169,-226.7 169,-207.7 79,-207.7"/>
<polygon fill="none" stroke="#000000" points="79,-207.7 79,-226.7 169,-226.7 169,-207.7 79,-207.7"/>
<text text-anchor="start" x="106.094" y="-213.8" font-family="Helvetica,sans-Serif" font-size="11.00" fill="#000000">15,391 rows</text>
<polygon fill="#ffffff" stroke="transparent" points="169,-207.7 169,-226.7 228,-226.7 228,-207.7 169,-207.7"/>
<polygon fill="none" stroke="#000000" points="169,-207.7 169,-226.7 228,-226.7 228,-207.7 169,-207.7"/>
<text text-anchor="start" x="197.1755" y="-213.8" font-family="Helvetica,sans-Serif" font-size="11.00" fill="#000000">297 &gt;</text>
</a>
</g>
</g>
<!-- PROPOSAL_TYPE_COURTREPORT_TYPE&#45;&gt;R_STANDARD_REFERENCE_LIST -->
<g id="edge2" class="edge">
<title>PROPOSAL_TYPE_COURTREPORT_TYPE:w&#45;&gt;R_STANDARD_REFERENCE_LIST:e</title>
<path fill="none" stroke="#000000" d="M265.7488,-253.1074C246.4187,-269.0383 262.1218,-322.7 228,-322.7"/>
<polygon fill="#000000" stroke="#000000" points="271.8817,-251.1418 280.5988,-252.1282 275.6909,-249.9209 279.5,-248.7 279.5,-248.7 279.5,-248.7 275.6909,-249.9209 278.4012,-245.2718 271.8817,-251.1418 271.8817,-251.1418"/>
<ellipse fill="none" stroke="#000000" cx="268.8344" cy="-252.1185" rx="3.2" ry="3.2"/>
</g>
</g>
</svg>
