<?xml version="1.0" encoding="UTF-8" standalone="no"?>
<!DOCTYPE svg PUBLIC "-//W3C//DTD SVG 1.1//EN"
 "http://www.w3.org/Graphics/SVG/1.1/DTD/svg11.dtd">
<!-- Generated by graphviz version 2.40.1 (20161225.0304)
 -->
<!-- Title: oneDegreeRelationshipsDiagram Pages: 1 -->
<svg width="469pt" height="435pt"
 viewBox="0.00 0.00 469.00 435.20" xmlns="http://www.w3.org/2000/svg" xmlns:xlink="http://www.w3.org/1999/xlink">
<g id="graph0" class="graph" transform="scale(1 1) rotate(0) translate(4 431.2)">
<title>oneDegreeRelationshipsDiagram</title>
<polygon fill="#ffffff" stroke="transparent" points="-4,4 -4,-431.2 465,-431.2 465,4 -4,4"/>
<text text-anchor="middle" x="72.4936" y="-7.3" font-family="Helvetica,sans-Serif" font-size="11.00" fill="#000000">Generated by SchemaSpy</text>
<!-- PROVIDER_TEAM_LOCATION -->
<g id="node1" class="node">
<title>PROVIDER_TEAM_LOCATION</title>
<g id="a_node1"><a xlink:href="../../tables/PROVIDER_TEAM_LOCATION.html" xlink:title="PROVIDER_TEAM_LOCATION" target="_top">
<polygon fill="#ffffff" stroke="transparent" points="219,-117.7 219,-339.7 453,-339.7 453,-117.7 219,-117.7"/>
<polygon fill="#f5f5f5" stroke="transparent" points="221,-314.7 221,-337.7 451,-337.7 451,-314.7 221,-314.7"/>
<polygon fill="none" stroke="#000000" points="221,-314.7 221,-337.7 451,-337.7 451,-314.7 221,-314.7"/>
<text text-anchor="start" x="226" y="-323.8" font-family="Helvetica,sans-Serif" font-weight="bold" font-size="11.00" fill="#000000">PROVIDER_TEAM_LOCATION</text>
<text text-anchor="start" x="416.0437" y="-322.8" font-family="Helvetica,sans-Serif" font-size="11.00" fill="#000000">[table]</text>
<polygon fill="none" stroke="#000000" points="221,-292.7 221,-314.7 390,-314.7 390,-292.7 221,-292.7"/>
<image xlink:href="../../images/primaryKeys.png" width="11px" height="12px" preserveAspectRatio="xMinYMin meet" x="226" y="-309.7"/>
<text text-anchor="start" x="241" y="-299.8" font-family="Helvetica,sans-Serif" font-size="11.00" fill="#000000">PROVIDER_TEAM_ID</text>
<polygon fill="none" stroke="#000000" points="390,-292.7 390,-314.7 451,-314.7 451,-292.7 390,-292.7"/>
<text text-anchor="start" x="392.6865" y="-300.4" font-family="Helvetica,sans-Serif" font-size="11.00" fill="#000000">number[38]</text>
<polygon fill="none" stroke="#000000" points="221,-270.7 221,-292.7 390,-292.7 390,-270.7 221,-270.7"/>
<image xlink:href="../../images/primaryKeys.png" width="11px" height="12px" preserveAspectRatio="xMinYMin meet" x="226" y="-287.7"/>
<text text-anchor="start" x="241" y="-277.8" font-family="Helvetica,sans-Serif" font-size="11.00" fill="#000000">PROVIDER_LOCATION_ID</text>
<polygon fill="none" stroke="#000000" points="390,-270.7 390,-292.7 451,-292.7 451,-270.7 390,-270.7"/>
<text text-anchor="start" x="392.6865" y="-278.4" font-family="Helvetica,sans-Serif" font-size="11.00" fill="#000000">number[38]</text>
<polygon fill="none" stroke="#000000" points="221,-248.7 221,-270.7 390,-270.7 390,-248.7 221,-248.7"/>
<text text-anchor="start" x="241" y="-255.8" font-family="Helvetica,sans-Serif" font-size="11.00" fill="#000000">ROW_VERSION</text>
<polygon fill="none" stroke="#000000" points="390,-248.7 390,-270.7 451,-270.7 451,-248.7 390,-248.7"/>
<text text-anchor="start" x="392.6865" y="-256.4" font-family="Helvetica,sans-Serif" font-size="11.00" fill="#000000">number[38]</text>
<polygon fill="none" stroke="#000000" points="221,-226.7 221,-248.7 390,-248.7 390,-226.7 221,-226.7"/>
<text text-anchor="start" x="241" y="-233.8" font-family="Helvetica,sans-Serif" font-size="11.00" fill="#000000">CREATED_BY_USER_ID</text>
<polygon fill="none" stroke="#000000" points="390,-226.7 390,-248.7 451,-248.7 451,-226.7 390,-226.7"/>
<text text-anchor="start" x="392.6865" y="-234.4" font-family="Helvetica,sans-Serif" font-size="11.00" fill="#000000">number[38]</text>
<polygon fill="none" stroke="#000000" points="221,-204.7 221,-226.7 390,-226.7 390,-204.7 221,-204.7"/>
<text text-anchor="start" x="241" y="-211.8" font-family="Helvetica,sans-Serif" font-size="11.00" fill="#000000">CREATED_DATETIME</text>
<polygon fill="none" stroke="#000000" points="390,-204.7 390,-226.7 451,-226.7 451,-204.7 390,-204.7"/>
<text text-anchor="start" x="393" y="-212.4" font-family="Helvetica,sans-Serif" font-size="11.00" fill="#000000">date[7]</text>
<polygon fill="none" stroke="#000000" points="221,-182.7 221,-204.7 390,-204.7 390,-182.7 221,-182.7"/>
<text text-anchor="start" x="241" y="-189.8" font-family="Helvetica,sans-Serif" font-size="11.00" fill="#000000">LAST_UPDATED_USER_ID</text>
<polygon fill="none" stroke="#000000" points="390,-182.7 390,-204.7 451,-204.7 451,-182.7 390,-182.7"/>
<text text-anchor="start" x="392.6865" y="-190.4" font-family="Helvetica,sans-Serif" font-size="11.00" fill="#000000">number[38]</text>
<polygon fill="none" stroke="#000000" points="221,-160.7 221,-182.7 390,-182.7 390,-160.7 221,-160.7"/>
<text text-anchor="start" x="239.0531" y="-167.8" font-family="Helvetica,sans-Serif" font-size="11.00" fill="#000000">LAST_UPDATED_DATETIME</text>
<polygon fill="none" stroke="#000000" points="390,-160.7 390,-182.7 451,-182.7 451,-160.7 390,-160.7"/>
<text text-anchor="start" x="393" y="-168.4" font-family="Helvetica,sans-Serif" font-size="11.00" fill="#000000">date[7]</text>
<polygon fill="none" stroke="#000000" points="221,-138.7 221,-160.7 390,-160.7 390,-138.7 221,-138.7"/>
<image xlink:href="../../images/primaryKeys.png" width="11px" height="12px" preserveAspectRatio="xMinYMin meet" x="226" y="-155.7"/>
<text text-anchor="start" x="241" y="-145.8" font-family="Helvetica,sans-Serif" font-size="11.00" fill="#000000">TRAINING_SESSION_ID</text>
<polygon fill="none" stroke="#000000" points="390,-138.7 390,-160.7 451,-160.7 451,-138.7 390,-138.7"/>
<text text-anchor="start" x="392.6865" y="-146.4" font-family="Helvetica,sans-Serif" font-size="11.00" fill="#000000">number[38]</text>
<polygon fill="#ffffff" stroke="transparent" points="221,-119.7 221,-138.7 300,-138.7 300,-119.7 221,-119.7"/>
<polygon fill="none" stroke="#000000" points="221,-119.7 221,-138.7 300,-138.7 300,-119.7 221,-119.7"/>
<text text-anchor="start" x="224" y="-125.8" font-family="Helvetica,sans-Serif" font-size="11.00" fill="#000000">&lt; 2</text>
<polygon fill="#ffffff" stroke="transparent" points="300,-119.7 300,-138.7 390,-138.7 390,-119.7 300,-119.7"/>
<polygon fill="none" stroke="#000000" points="300,-119.7 300,-138.7 390,-138.7 390,-119.7 300,-119.7"/>
<text text-anchor="start" x="360.1105" y="-125.8" font-family="Helvetica,sans-Serif" font-size="11.00" fill="#000000">1 row</text>
<polygon fill="#ffffff" stroke="transparent" points="390,-119.7 390,-138.7 451,-138.7 451,-119.7 390,-119.7"/>
<polygon fill="none" stroke="#000000" points="390,-119.7 390,-138.7 451,-138.7 451,-119.7 390,-119.7"/>
<text text-anchor="start" x="432.4053" y="-125.8" font-family="Helvetica,sans-Serif" font-size="11.00" fill="#000000">0 &gt;</text>
<polygon fill="none" stroke="#000000" stroke-width="2" points="220,-118.7 220,-338.7 452,-338.7 452,-118.7 220,-118.7"/>
</a>
</g>
</g>
<!-- PROVIDER_LOCATION -->
<g id="node2" class="node">
<title>PROVIDER_LOCATION</title>
<g id="a_node2"><a xlink:href="../../tables/PROVIDER_LOCATION.html" xlink:title="PROVIDER_LOCATION" target="_top">
<polygon fill="#ffffff" stroke="transparent" points="8,-38.2 8,-231.2 170,-231.2 170,-38.2 8,-38.2"/>
<polygon fill="#f5f5f5" stroke="transparent" points="8,-207.7 8,-230.7 170,-230.7 170,-207.7 8,-207.7"/>
<polygon fill="none" stroke="#000000" points="8,-207.7 8,-230.7 170,-230.7 170,-207.7 8,-207.7"/>
<text text-anchor="start" x="12.6088" y="-216.8" font-family="Helvetica,sans-Serif" font-weight="bold" font-size="11.00" fill="#000000">PROVIDER_LOCATION</text>
<text text-anchor="start" x="135.5219" y="-215.8" font-family="Helvetica,sans-Serif" font-size="11.00" fill="#000000">[table]</text>
<polygon fill="none" stroke="#000000" points="8,-185.7 8,-207.7 170,-207.7 170,-185.7 8,-185.7"/>
<image xlink:href="../../images/primaryKeys.png" width="11px" height="12px" preserveAspectRatio="xMinYMin meet" x="13" y="-202.7"/>
<text text-anchor="start" x="28.5525" y="-192.8" font-family="Helvetica,sans-Serif" font-size="11.00" fill="#000000">PROVIDER_LOCATION_ID</text>
<polygon fill="none" stroke="#000000" points="8,-163.7 8,-185.7 170,-185.7 170,-163.7 8,-163.7"/>
<image xlink:href="../../images/primaryKeys.png" width="11px" height="12px" preserveAspectRatio="xMinYMin meet" x="13" y="-180.7"/>
<text text-anchor="start" x="29" y="-170.8" font-family="Helvetica,sans-Serif" font-size="11.00" fill="#000000">CODE</text>
<polygon fill="none" stroke="#000000" points="8,-141.7 8,-163.7 170,-163.7 170,-141.7 8,-141.7"/>
<image xlink:href="../../images/primaryKeys.png" width="11px" height="12px" preserveAspectRatio="xMinYMin meet" x="13" y="-158.7"/>
<text text-anchor="start" x="27.634" y="-148.8" font-family="Helvetica,sans-Serif" font-size="11.00" fill="#000000">EXTERNAL_PROVIDER_ID</text>
<polygon fill="none" stroke="#000000" points="8,-119.7 8,-141.7 170,-141.7 170,-119.7 8,-119.7"/>
<image xlink:href="../../images/primaryKeys.png" width="11px" height="12px" preserveAspectRatio="xMinYMin meet" x="13" y="-136.7"/>
<text text-anchor="start" x="29" y="-126.8" font-family="Helvetica,sans-Serif" font-size="11.00" fill="#000000">ADDRESS_ID</text>
<polygon fill="none" stroke="#000000" points="8,-97.7 8,-119.7 170,-119.7 170,-97.7 8,-97.7"/>
<image xlink:href="../../images/primaryKeys.png" width="11px" height="12px" preserveAspectRatio="xMinYMin meet" x="13" y="-114.7"/>
<text text-anchor="start" x="29" y="-104.8" font-family="Helvetica,sans-Serif" font-size="11.00" fill="#000000">TRAINING_SESSION_ID</text>
<polygon fill="none" stroke="#000000" points="8,-75.7 8,-97.7 170,-97.7 170,-75.7 8,-75.7"/>
<image xlink:href="../../images/primaryKeys.png" width="11px" height="12px" preserveAspectRatio="xMinYMin meet" x="13" y="-92.7"/>
<text text-anchor="start" x="29" y="-82.8" font-family="Helvetica,sans-Serif" font-size="11.00" fill="#000000">PROBATION_AREA_ID</text>
<polygon fill="none" stroke="#000000" points="8,-56.7 8,-75.7 170,-75.7 170,-56.7 8,-56.7"/>
<text text-anchor="start" x="11" y="-62.8" font-family="Helvetica,sans-Serif" font-size="11.00" fill="#000000">...</text>
<polygon fill="#ffffff" stroke="transparent" points="8,-37.7 8,-56.7 73,-56.7 73,-37.7 8,-37.7"/>
<polygon fill="none" stroke="#000000" points="8,-37.7 8,-56.7 73,-56.7 73,-37.7 8,-37.7"/>
<text text-anchor="start" x="11" y="-43.8" font-family="Helvetica,sans-Serif" font-size="11.00" fill="#000000">&lt; 3</text>
<polygon fill="#ffffff" stroke="transparent" points="73,-37.7 73,-56.7 127,-56.7 127,-37.7 73,-37.7"/>
<polygon fill="none" stroke="#000000" points="73,-37.7 73,-56.7 127,-56.7 127,-37.7 73,-37.7"/>
<text text-anchor="start" x="97.1105" y="-43.8" font-family="Helvetica,sans-Serif" font-size="11.00" fill="#000000">1 row</text>
<polygon fill="#ffffff" stroke="transparent" points="127,-37.7 127,-56.7 170,-56.7 170,-37.7 127,-37.7"/>
<polygon fill="none" stroke="#000000" points="127,-37.7 127,-56.7 170,-56.7 170,-37.7 127,-37.7"/>
<text text-anchor="start" x="151.4053" y="-43.8" font-family="Helvetica,sans-Serif" font-size="11.00" fill="#000000">2 &gt;</text>
</a>
</g>
</g>
<!-- PROVIDER_TEAM_LOCATION&#45;&gt;PROVIDER_LOCATION -->
<g id="edge1" class="edge">
<title>PROVIDER_TEAM_LOCATION:w&#45;&gt;PROVIDER_LOCATION:e</title>
<path fill="none" stroke="#000000" d="M207.0669,-277.368C185.5746,-260.0466 208.0328,-196.7 170,-196.7"/>
<polygon fill="#000000" stroke="#000000" points="213.3607,-279.3248 219.9312,-285.1377 217.1804,-280.5124 221,-281.7 221,-281.7 221,-281.7 217.1804,-280.5124 222.0688,-278.2623 213.3607,-279.3248 213.3607,-279.3248"/>
<ellipse fill="none" stroke="#000000" cx="210.305" cy="-278.3747" rx="3.2" ry="3.2"/>
</g>
<!-- PROVIDER_TEAM -->
<g id="node3" class="node">
<title>PROVIDER_TEAM</title>
<g id="a_node3"><a xlink:href="../../tables/PROVIDER_TEAM.html" xlink:title="PROVIDER_TEAM" target="_top">
<polygon fill="#ffffff" stroke="transparent" points="8.5,-252.2 8.5,-423.2 169.5,-423.2 169.5,-252.2 8.5,-252.2"/>
<polygon fill="#f5f5f5" stroke="transparent" points="9,-399.7 9,-422.7 170,-422.7 170,-399.7 9,-399.7"/>
<polygon fill="none" stroke="#000000" points="9,-399.7 9,-422.7 170,-422.7 170,-399.7 9,-399.7"/>
<text text-anchor="start" x="14" y="-408.8" font-family="Helvetica,sans-Serif" font-weight="bold" font-size="11.00" fill="#000000">PROVIDER_TEAM</text>
<text text-anchor="start" x="135.0437" y="-407.8" font-family="Helvetica,sans-Serif" font-size="11.00" fill="#000000">[table]</text>
<polygon fill="none" stroke="#000000" points="9,-377.7 9,-399.7 170,-399.7 170,-377.7 9,-377.7"/>
<image xlink:href="../../images/primaryKeys.png" width="11px" height="12px" preserveAspectRatio="xMinYMin meet" x="14" y="-394.7"/>
<text text-anchor="start" x="29" y="-384.8" font-family="Helvetica,sans-Serif" font-size="11.00" fill="#000000">PROVIDER_TEAM_ID</text>
<polygon fill="none" stroke="#000000" points="9,-355.7 9,-377.7 170,-377.7 170,-355.7 9,-355.7"/>
<image xlink:href="../../images/primaryKeys.png" width="11px" height="12px" preserveAspectRatio="xMinYMin meet" x="14" y="-372.7"/>
<text text-anchor="start" x="29" y="-362.8" font-family="Helvetica,sans-Serif" font-size="11.00" fill="#000000">CODE</text>
<polygon fill="none" stroke="#000000" points="9,-333.7 9,-355.7 170,-355.7 170,-333.7 9,-333.7"/>
<image xlink:href="../../images/primaryKeys.png" width="11px" height="12px" preserveAspectRatio="xMinYMin meet" x="14" y="-350.7"/>
<text text-anchor="start" x="27.634" y="-340.8" font-family="Helvetica,sans-Serif" font-size="11.00" fill="#000000">EXTERNAL_PROVIDER_ID</text>
<polygon fill="none" stroke="#000000" points="9,-311.7 9,-333.7 170,-333.7 170,-311.7 9,-311.7"/>
<image xlink:href="../../images/primaryKeys.png" width="11px" height="12px" preserveAspectRatio="xMinYMin meet" x="14" y="-328.7"/>
<text text-anchor="start" x="29" y="-318.8" font-family="Helvetica,sans-Serif" font-size="11.00" fill="#000000">TRAINING_SESSION_ID</text>
<polygon fill="none" stroke="#000000" points="9,-289.7 9,-311.7 170,-311.7 170,-289.7 9,-289.7"/>
<image xlink:href="../../images/primaryKeys.png" width="11px" height="12px" preserveAspectRatio="xMinYMin meet" x="14" y="-306.7"/>
<text text-anchor="start" x="29" y="-296.8" font-family="Helvetica,sans-Serif" font-size="11.00" fill="#000000">PROBATION_AREA_ID</text>
<polygon fill="none" stroke="#000000" points="9,-270.7 9,-289.7 170,-289.7 170,-270.7 9,-270.7"/>
<text text-anchor="start" x="12" y="-276.8" font-family="Helvetica,sans-Serif" font-size="11.00" fill="#000000">...</text>
<polygon fill="#ffffff" stroke="transparent" points="9,-251.7 9,-270.7 70,-270.7 70,-251.7 9,-251.7"/>
<polygon fill="none" stroke="#000000" points="9,-251.7 9,-270.7 70,-270.7 70,-251.7 9,-251.7"/>
<text text-anchor="start" x="12" y="-257.8" font-family="Helvetica,sans-Serif" font-size="11.00" fill="#000000">&lt; 2</text>
<polygon fill="#ffffff" stroke="transparent" points="70,-251.7 70,-270.7 122,-270.7 122,-251.7 70,-251.7"/>
<polygon fill="none" stroke="#000000" points="70,-251.7 70,-270.7 122,-270.7 122,-251.7 70,-251.7"/>
<text text-anchor="start" x="92.1105" y="-257.8" font-family="Helvetica,sans-Serif" font-size="11.00" fill="#000000">1 row</text>
<polygon fill="#ffffff" stroke="transparent" points="122,-251.7 122,-270.7 170,-270.7 170,-251.7 122,-251.7"/>
<polygon fill="none" stroke="#000000" points="122,-251.7 122,-270.7 170,-270.7 170,-251.7 122,-251.7"/>
<text text-anchor="start" x="145.2904" y="-257.8" font-family="Helvetica,sans-Serif" font-size="11.00" fill="#000000">24 &gt;</text>
</a>
</g>
</g>
<!-- PROVIDER_TEAM_LOCATION&#45;&gt;PROVIDER_TEAM -->
<g id="edge2" class="edge">
<title>PROVIDER_TEAM_LOCATION:w&#45;&gt;PROVIDER_TEAM:e</title>
<path fill="none" stroke="#000000" d="M207.0669,-308.032C185.5746,-325.3534 208.0328,-388.7 170,-388.7"/>
<polygon fill="#000000" stroke="#000000" points="213.3607,-306.0752 222.0688,-307.1377 217.1804,-304.8876 221,-303.7 221,-303.7 221,-303.7 217.1804,-304.8876 219.9312,-300.2623 213.3607,-306.0752 213.3607,-306.0752"/>
<ellipse fill="none" stroke="#000000" cx="210.305" cy="-307.0253" rx="3.2" ry="3.2"/>
</g>
</g>
</svg>
