<?xml version="1.0" encoding="UTF-8" standalone="no"?>
<!DOCTYPE svg PUBLIC "-//W3C//DTD SVG 1.1//EN"
 "http://www.w3.org/Graphics/SVG/1.1/DTD/svg11.dtd">
<!-- Generated by graphviz version 2.40.1 (20161225.0304)
 -->
<!-- Title: oneDegreeRelationshipsDiagram Pages: 1 -->
<svg width="580pt" height="1271pt"
 viewBox="0.00 0.00 580.00 1271.20" xmlns="http://www.w3.org/2000/svg" xmlns:xlink="http://www.w3.org/1999/xlink">
<g id="graph0" class="graph" transform="scale(1 1) rotate(0) translate(4 1267.2)">
<title>oneDegreeRelationshipsDiagram</title>
<polygon fill="#ffffff" stroke="transparent" points="-4,4 -4,-1267.2 576,-1267.2 576,4 -4,4"/>
<text text-anchor="middle" x="72.4936" y="-7.3" font-family="Helvetica,sans-Serif" font-size="11.00" fill="#000000">Generated by SchemaSpy</text>
<!-- PROVIDER_LAO -->
<g id="node1" class="node">
<title>PROVIDER_LAO</title>
<g id="a_node1"><a xlink:href="../../tables/PROVIDER_LAO.html" xlink:title="PROVIDER_LAO" target="_top">
<polygon fill="#ffffff" stroke="transparent" points="275,-480.7 275,-856.7 564,-856.7 564,-480.7 275,-480.7"/>
<polygon fill="#f5f5f5" stroke="transparent" points="277.5,-831.7 277.5,-854.7 562.5,-854.7 562.5,-831.7 277.5,-831.7"/>
<polygon fill="none" stroke="#000000" points="277.5,-831.7 277.5,-854.7 562.5,-854.7 562.5,-831.7 277.5,-831.7"/>
<text text-anchor="start" x="282.5" y="-840.8" font-family="Helvetica,sans-Serif" font-weight="bold" font-size="11.00" fill="#000000">PROVIDER_LAO</text>
<text text-anchor="start" x="527.5437" y="-839.8" font-family="Helvetica,sans-Serif" font-size="11.00" fill="#000000">[table]</text>
<polygon fill="none" stroke="#000000" points="277.5,-809.7 277.5,-831.7 483.5,-831.7 483.5,-809.7 277.5,-809.7"/>
<image xlink:href="../../images/primaryKeys.png" width="11px" height="12px" preserveAspectRatio="xMinYMin meet" x="282.5" y="-826.7"/>
<text text-anchor="start" x="297.5" y="-816.8" font-family="Helvetica,sans-Serif" font-size="11.00" fill="#000000">PROVIDER_LAO_ID</text>
<polygon fill="none" stroke="#000000" points="483.5,-809.7 483.5,-831.7 562.5,-831.7 562.5,-809.7 483.5,-809.7"/>
<text text-anchor="start" x="486.5" y="-817.4" font-family="Helvetica,sans-Serif" font-size="11.00" fill="#000000">number[38]</text>
<polygon fill="none" stroke="#000000" points="277.5,-787.7 277.5,-809.7 483.5,-809.7 483.5,-787.7 277.5,-787.7"/>
<image xlink:href="../../images/primaryKeys.png" width="11px" height="12px" preserveAspectRatio="xMinYMin meet" x="282.5" y="-804.7"/>
<text text-anchor="start" x="297.5" y="-794.8" font-family="Helvetica,sans-Serif" font-size="11.00" fill="#000000">OFFENDER_ID</text>
<polygon fill="none" stroke="#000000" points="483.5,-787.7 483.5,-809.7 562.5,-809.7 562.5,-787.7 483.5,-787.7"/>
<text text-anchor="start" x="486.5" y="-795.4" font-family="Helvetica,sans-Serif" font-size="11.00" fill="#000000">number[38]</text>
<polygon fill="none" stroke="#000000" points="277.5,-765.7 277.5,-787.7 483.5,-787.7 483.5,-765.7 277.5,-765.7"/>
<image xlink:href="../../images/primaryKeys.png" width="11px" height="12px" preserveAspectRatio="xMinYMin meet" x="282.5" y="-782.7"/>
<text text-anchor="start" x="297.5" y="-772.8" font-family="Helvetica,sans-Serif" font-size="11.00" fill="#000000">PROBATION_AREA_ID</text>
<polygon fill="none" stroke="#000000" points="483.5,-765.7 483.5,-787.7 562.5,-787.7 562.5,-765.7 483.5,-765.7"/>
<text text-anchor="start" x="486.5" y="-773.4" font-family="Helvetica,sans-Serif" font-size="11.00" fill="#000000">number[38]</text>
<polygon fill="none" stroke="#000000" points="277.5,-743.7 277.5,-765.7 483.5,-765.7 483.5,-743.7 277.5,-743.7"/>
<text text-anchor="start" x="297.5" y="-750.8" font-family="Helvetica,sans-Serif" font-size="11.00" fill="#000000">RESTRICTION_TEXT</text>
<polygon fill="none" stroke="#000000" points="483.5,-743.7 483.5,-765.7 562.5,-765.7 562.5,-743.7 483.5,-743.7"/>
<text text-anchor="start" x="486.3216" y="-751.4" font-family="Helvetica,sans-Serif" font-size="11.00" fill="#000000">varchar2[4000]</text>
<polygon fill="none" stroke="#000000" points="277.5,-721.7 277.5,-743.7 483.5,-743.7 483.5,-721.7 277.5,-721.7"/>
<text text-anchor="start" x="297.5" y="-728.8" font-family="Helvetica,sans-Serif" font-size="11.00" fill="#000000">EXCLUSION_TEXT</text>
<polygon fill="none" stroke="#000000" points="483.5,-721.7 483.5,-743.7 562.5,-743.7 562.5,-721.7 483.5,-721.7"/>
<text text-anchor="start" x="486.3216" y="-729.4" font-family="Helvetica,sans-Serif" font-size="11.00" fill="#000000">varchar2[4000]</text>
<polygon fill="none" stroke="#000000" points="277.5,-699.7 277.5,-721.7 483.5,-721.7 483.5,-699.7 277.5,-699.7"/>
<text text-anchor="start" x="297.5" y="-706.8" font-family="Helvetica,sans-Serif" font-size="11.00" fill="#000000">CREATED_BY_USER_ID</text>
<polygon fill="none" stroke="#000000" points="483.5,-699.7 483.5,-721.7 562.5,-721.7 562.5,-699.7 483.5,-699.7"/>
<text text-anchor="start" x="486.5" y="-707.4" font-family="Helvetica,sans-Serif" font-size="11.00" fill="#000000">number[38]</text>
<polygon fill="none" stroke="#000000" points="277.5,-677.7 277.5,-699.7 483.5,-699.7 483.5,-677.7 277.5,-677.7"/>
<text text-anchor="start" x="297.5" y="-684.8" font-family="Helvetica,sans-Serif" font-size="11.00" fill="#000000">CREATED_DATETIME</text>
<polygon fill="none" stroke="#000000" points="483.5,-677.7 483.5,-699.7 562.5,-699.7 562.5,-677.7 483.5,-677.7"/>
<text text-anchor="start" x="486.5" y="-685.4" font-family="Helvetica,sans-Serif" font-size="11.00" fill="#000000">date[7]</text>
<polygon fill="none" stroke="#000000" points="277.5,-655.7 277.5,-677.7 483.5,-677.7 483.5,-655.7 277.5,-655.7"/>
<text text-anchor="start" x="297.5" y="-662.8" font-family="Helvetica,sans-Serif" font-size="11.00" fill="#000000">LAST_UPDATED_USER_ID</text>
<polygon fill="none" stroke="#000000" points="483.5,-655.7 483.5,-677.7 562.5,-677.7 562.5,-655.7 483.5,-655.7"/>
<text text-anchor="start" x="486.5" y="-663.4" font-family="Helvetica,sans-Serif" font-size="11.00" fill="#000000">number[38]</text>
<polygon fill="none" stroke="#000000" points="277.5,-633.7 277.5,-655.7 483.5,-655.7 483.5,-633.7 277.5,-633.7"/>
<text text-anchor="start" x="297.5" y="-640.8" font-family="Helvetica,sans-Serif" font-size="11.00" fill="#000000">LAST_UPDATED_DATETIME</text>
<polygon fill="none" stroke="#000000" points="483.5,-633.7 483.5,-655.7 562.5,-655.7 562.5,-633.7 483.5,-633.7"/>
<text text-anchor="start" x="486.5" y="-641.4" font-family="Helvetica,sans-Serif" font-size="11.00" fill="#000000">date[7]</text>
<polygon fill="none" stroke="#000000" points="277.5,-611.7 277.5,-633.7 483.5,-633.7 483.5,-611.7 277.5,-611.7"/>
<text text-anchor="start" x="294.5039" y="-618.8" font-family="Helvetica,sans-Serif" font-size="11.00" fill="#000000">RESTRICTION_UPDATED_USER_ID</text>
<polygon fill="none" stroke="#000000" points="483.5,-611.7 483.5,-633.7 562.5,-633.7 562.5,-611.7 483.5,-611.7"/>
<text text-anchor="start" x="486.5" y="-619.4" font-family="Helvetica,sans-Serif" font-size="11.00" fill="#000000">number[38]</text>
<polygon fill="none" stroke="#000000" points="277.5,-589.7 277.5,-611.7 483.5,-611.7 483.5,-589.7 277.5,-589.7"/>
<text text-anchor="start" x="290.5334" y="-596.8" font-family="Helvetica,sans-Serif" font-size="11.00" fill="#000000">RESTRICTION_UPDATED_DATETIME</text>
<polygon fill="none" stroke="#000000" points="483.5,-589.7 483.5,-611.7 562.5,-611.7 562.5,-589.7 483.5,-589.7"/>
<text text-anchor="start" x="486.5" y="-597.4" font-family="Helvetica,sans-Serif" font-size="11.00" fill="#000000">date[7]</text>
<polygon fill="none" stroke="#000000" points="277.5,-567.7 277.5,-589.7 483.5,-589.7 483.5,-567.7 277.5,-567.7"/>
<text text-anchor="start" x="297.5" y="-574.8" font-family="Helvetica,sans-Serif" font-size="11.00" fill="#000000">EXCLUSION_UPDATED_USER_ID</text>
<polygon fill="none" stroke="#000000" points="483.5,-567.7 483.5,-589.7 562.5,-589.7 562.5,-567.7 483.5,-567.7"/>
<text text-anchor="start" x="486.5" y="-575.4" font-family="Helvetica,sans-Serif" font-size="11.00" fill="#000000">number[38]</text>
<polygon fill="none" stroke="#000000" points="277.5,-545.7 277.5,-567.7 483.5,-567.7 483.5,-545.7 277.5,-545.7"/>
<text text-anchor="start" x="296.0268" y="-552.8" font-family="Helvetica,sans-Serif" font-size="11.00" fill="#000000">EXCLUSION_UPDATED_DATETIME</text>
<polygon fill="none" stroke="#000000" points="483.5,-545.7 483.5,-567.7 562.5,-567.7 562.5,-545.7 483.5,-545.7"/>
<text text-anchor="start" x="486.5" y="-553.4" font-family="Helvetica,sans-Serif" font-size="11.00" fill="#000000">date[7]</text>
<polygon fill="none" stroke="#000000" points="277.5,-523.7 277.5,-545.7 483.5,-545.7 483.5,-523.7 277.5,-523.7"/>
<text text-anchor="start" x="297.5" y="-530.8" font-family="Helvetica,sans-Serif" font-size="11.00" fill="#000000">ROW_VERSION</text>
<polygon fill="none" stroke="#000000" points="483.5,-523.7 483.5,-545.7 562.5,-545.7 562.5,-523.7 483.5,-523.7"/>
<text text-anchor="start" x="486.5" y="-531.4" font-family="Helvetica,sans-Serif" font-size="11.00" fill="#000000">number[38]</text>
<polygon fill="none" stroke="#000000" points="277.5,-501.7 277.5,-523.7 483.5,-523.7 483.5,-501.7 277.5,-501.7"/>
<text text-anchor="start" x="297.5" y="-508.8" font-family="Helvetica,sans-Serif" font-size="11.00" fill="#000000">SOFT_DELETED</text>
<polygon fill="none" stroke="#000000" points="483.5,-501.7 483.5,-523.7 562.5,-523.7 562.5,-501.7 483.5,-501.7"/>
<text text-anchor="start" x="486.5" y="-509.4" font-family="Helvetica,sans-Serif" font-size="11.00" fill="#000000">number[38]</text>
<polygon fill="#ffffff" stroke="transparent" points="277.5,-482.7 277.5,-501.7 374.5,-501.7 374.5,-482.7 277.5,-482.7"/>
<polygon fill="none" stroke="#000000" points="277.5,-482.7 277.5,-501.7 374.5,-501.7 374.5,-482.7 277.5,-482.7"/>
<text text-anchor="start" x="280.5" y="-488.8" font-family="Helvetica,sans-Serif" font-size="11.00" fill="#000000">&lt; 2</text>
<polygon fill="#ffffff" stroke="transparent" points="374.5,-482.7 374.5,-501.7 483.5,-501.7 483.5,-482.7 374.5,-482.7"/>
<polygon fill="none" stroke="#000000" points="374.5,-482.7 374.5,-501.7 483.5,-501.7 483.5,-482.7 374.5,-482.7"/>
<text text-anchor="start" x="453.6105" y="-488.8" font-family="Helvetica,sans-Serif" font-size="11.00" fill="#000000">1 row</text>
<polygon fill="#ffffff" stroke="transparent" points="483.5,-482.7 483.5,-501.7 562.5,-501.7 562.5,-482.7 483.5,-482.7"/>
<polygon fill="none" stroke="#000000" points="483.5,-482.7 483.5,-501.7 562.5,-501.7 562.5,-482.7 483.5,-482.7"/>
<text text-anchor="start" x="543.9053" y="-488.8" font-family="Helvetica,sans-Serif" font-size="11.00" fill="#000000">0 &gt;</text>
<polygon fill="none" stroke="#000000" stroke-width="2" points="276,-481.7 276,-855.7 563,-855.7 563,-481.7 276,-481.7"/>
</a>
</g>
</g>
<!-- OFFENDER -->
<g id="node2" class="node">
<title>OFFENDER</title>
<g id="a_node2"><a xlink:href="../../tables/OFFENDER.html" xlink:title="OFFENDER" target="_top">
<polygon fill="#ffffff" stroke="transparent" points="8,-406.2 8,-1259.2 226,-1259.2 226,-406.2 8,-406.2"/>
<polygon fill="#f5f5f5" stroke="transparent" points="8,-1235.7 8,-1258.7 226,-1258.7 226,-1235.7 8,-1235.7"/>
<polygon fill="none" stroke="#000000" points="8,-1235.7 8,-1258.7 226,-1258.7 226,-1235.7 8,-1235.7"/>
<text text-anchor="start" x="13" y="-1244.8" font-family="Helvetica,sans-Serif" font-weight="bold" font-size="11.00" fill="#000000">OFFENDER</text>
<text text-anchor="start" x="191.0437" y="-1243.8" font-family="Helvetica,sans-Serif" font-size="11.00" fill="#000000">[table]</text>
<polygon fill="none" stroke="#000000" points="8,-1213.7 8,-1235.7 226,-1235.7 226,-1213.7 8,-1213.7"/>
<image xlink:href="../../images/primaryKeys.png" width="11px" height="12px" preserveAspectRatio="xMinYMin meet" x="13" y="-1230.7"/>
<text text-anchor="start" x="28" y="-1220.8" font-family="Helvetica,sans-Serif" font-size="11.00" fill="#000000">OFFENDER_ID</text>
<polygon fill="none" stroke="#000000" points="8,-1191.7 8,-1213.7 226,-1213.7 226,-1191.7 8,-1191.7"/>
<image xlink:href="../../images/primaryKeys.png" width="11px" height="12px" preserveAspectRatio="xMinYMin meet" x="13" y="-1208.7"/>
<text text-anchor="start" x="28" y="-1198.8" font-family="Helvetica,sans-Serif" font-size="11.00" fill="#000000">FIRST_NAME</text>
<polygon fill="none" stroke="#000000" points="8,-1169.7 8,-1191.7 226,-1191.7 226,-1169.7 8,-1169.7"/>
<image xlink:href="../../images/primaryKeys.png" width="11px" height="12px" preserveAspectRatio="xMinYMin meet" x="13" y="-1186.7"/>
<text text-anchor="start" x="28" y="-1176.8" font-family="Helvetica,sans-Serif" font-size="11.00" fill="#000000">CRN</text>
<polygon fill="none" stroke="#000000" points="8,-1147.7 8,-1169.7 226,-1169.7 226,-1147.7 8,-1147.7"/>
<image xlink:href="../../images/primaryKeys.png" width="11px" height="12px" preserveAspectRatio="xMinYMin meet" x="13" y="-1164.7"/>
<text text-anchor="start" x="28" y="-1154.8" font-family="Helvetica,sans-Serif" font-size="11.00" fill="#000000">SECOND_NAME</text>
<polygon fill="none" stroke="#000000" points="8,-1125.7 8,-1147.7 226,-1147.7 226,-1125.7 8,-1125.7"/>
<image xlink:href="../../images/primaryKeys.png" width="11px" height="12px" preserveAspectRatio="xMinYMin meet" x="13" y="-1142.7"/>
<text text-anchor="start" x="28" y="-1132.8" font-family="Helvetica,sans-Serif" font-size="11.00" fill="#000000">PNC_NUMBER</text>
<polygon fill="none" stroke="#000000" points="8,-1103.7 8,-1125.7 226,-1125.7 226,-1103.7 8,-1103.7"/>
<image xlink:href="../../images/primaryKeys.png" width="11px" height="12px" preserveAspectRatio="xMinYMin meet" x="13" y="-1120.7"/>
<text text-anchor="start" x="28" y="-1110.8" font-family="Helvetica,sans-Serif" font-size="11.00" fill="#000000">THIRD_NAME</text>
<polygon fill="none" stroke="#000000" points="8,-1081.7 8,-1103.7 226,-1103.7 226,-1081.7 8,-1081.7"/>
<image xlink:href="../../images/primaryKeys.png" width="11px" height="12px" preserveAspectRatio="xMinYMin meet" x="13" y="-1098.7"/>
<text text-anchor="start" x="28" y="-1088.8" font-family="Helvetica,sans-Serif" font-size="11.00" fill="#000000">CRO_NUMBER</text>
<polygon fill="none" stroke="#000000" points="8,-1059.7 8,-1081.7 226,-1081.7 226,-1059.7 8,-1059.7"/>
<image xlink:href="../../images/primaryKeys.png" width="11px" height="12px" preserveAspectRatio="xMinYMin meet" x="13" y="-1076.7"/>
<text text-anchor="start" x="28" y="-1066.8" font-family="Helvetica,sans-Serif" font-size="11.00" fill="#000000">SURNAME</text>
<polygon fill="none" stroke="#000000" points="8,-1037.7 8,-1059.7 226,-1059.7 226,-1037.7 8,-1037.7"/>
<image xlink:href="../../images/primaryKeys.png" width="11px" height="12px" preserveAspectRatio="xMinYMin meet" x="13" y="-1054.7"/>
<text text-anchor="start" x="28" y="-1044.8" font-family="Helvetica,sans-Serif" font-size="11.00" fill="#000000">NOMS_NUMBER</text>
<polygon fill="none" stroke="#000000" points="8,-1015.7 8,-1037.7 226,-1037.7 226,-1015.7 8,-1015.7"/>
<image xlink:href="../../images/primaryKeys.png" width="11px" height="12px" preserveAspectRatio="xMinYMin meet" x="13" y="-1032.7"/>
<text text-anchor="start" x="28" y="-1022.8" font-family="Helvetica,sans-Serif" font-size="11.00" fill="#000000">DATE_OF_BIRTH_DATE</text>
<polygon fill="none" stroke="#000000" points="8,-993.7 8,-1015.7 226,-1015.7 226,-993.7 8,-993.7"/>
<image xlink:href="../../images/primaryKeys.png" width="11px" height="12px" preserveAspectRatio="xMinYMin meet" x="13" y="-1010.7"/>
<text text-anchor="start" x="28" y="-1000.8" font-family="Helvetica,sans-Serif" font-size="11.00" fill="#000000">NI_NUMBER</text>
<polygon fill="none" stroke="#000000" points="8,-971.7 8,-993.7 226,-993.7 226,-971.7 8,-971.7"/>
<image xlink:href="../../images/primaryKeys.png" width="11px" height="12px" preserveAspectRatio="xMinYMin meet" x="13" y="-988.7"/>
<text text-anchor="start" x="28" y="-978.8" font-family="Helvetica,sans-Serif" font-size="11.00" fill="#000000">IMMIGRATION_NUMBER</text>
<polygon fill="none" stroke="#000000" points="8,-949.7 8,-971.7 226,-971.7 226,-949.7 8,-949.7"/>
<image xlink:href="../../images/primaryKeys.png" width="11px" height="12px" preserveAspectRatio="xMinYMin meet" x="13" y="-966.7"/>
<text text-anchor="start" x="28" y="-956.8" font-family="Helvetica,sans-Serif" font-size="11.00" fill="#000000">PARTITION_AREA_ID</text>
<polygon fill="none" stroke="#000000" points="8,-927.7 8,-949.7 226,-949.7 226,-927.7 8,-927.7"/>
<image xlink:href="../../images/primaryKeys.png" width="11px" height="12px" preserveAspectRatio="xMinYMin meet" x="13" y="-944.7"/>
<text text-anchor="start" x="28" y="-934.8" font-family="Helvetica,sans-Serif" font-size="11.00" fill="#000000">SOFT_DELETED</text>
<polygon fill="none" stroke="#000000" points="8,-905.7 8,-927.7 226,-927.7 226,-905.7 8,-905.7"/>
<image xlink:href="../../images/primaryKeys.png" width="11px" height="12px" preserveAspectRatio="xMinYMin meet" x="13" y="-922.7"/>
<text text-anchor="start" x="28" y="-912.8" font-family="Helvetica,sans-Serif" font-size="11.00" fill="#000000">TITLE_ID</text>
<polygon fill="none" stroke="#000000" points="8,-883.7 8,-905.7 226,-905.7 226,-883.7 8,-883.7"/>
<image xlink:href="../../images/primaryKeys.png" width="11px" height="12px" preserveAspectRatio="xMinYMin meet" x="13" y="-900.7"/>
<text text-anchor="start" x="28" y="-890.8" font-family="Helvetica,sans-Serif" font-size="11.00" fill="#000000">GENDER_ID</text>
<polygon fill="none" stroke="#000000" points="8,-861.7 8,-883.7 226,-883.7 226,-861.7 8,-861.7"/>
<image xlink:href="../../images/primaryKeys.png" width="11px" height="12px" preserveAspectRatio="xMinYMin meet" x="13" y="-878.7"/>
<text text-anchor="start" x="28" y="-868.8" font-family="Helvetica,sans-Serif" font-size="11.00" fill="#000000">ETHNICITY_ID</text>
<polygon fill="none" stroke="#000000" points="8,-839.7 8,-861.7 226,-861.7 226,-839.7 8,-839.7"/>
<image xlink:href="../../images/primaryKeys.png" width="11px" height="12px" preserveAspectRatio="xMinYMin meet" x="13" y="-856.7"/>
<text text-anchor="start" x="28" y="-846.8" font-family="Helvetica,sans-Serif" font-size="11.00" fill="#000000">NATIONALITY_ID</text>
<polygon fill="none" stroke="#000000" points="8,-817.7 8,-839.7 226,-839.7 226,-817.7 8,-817.7"/>
<image xlink:href="../../images/primaryKeys.png" width="11px" height="12px" preserveAspectRatio="xMinYMin meet" x="13" y="-834.7"/>
<text text-anchor="start" x="28" y="-824.8" font-family="Helvetica,sans-Serif" font-size="11.00" fill="#000000">IMMIGRATION_STATUS_ID</text>
<polygon fill="none" stroke="#000000" points="8,-795.7 8,-817.7 226,-817.7 226,-795.7 8,-795.7"/>
<image xlink:href="../../images/primaryKeys.png" width="11px" height="12px" preserveAspectRatio="xMinYMin meet" x="13" y="-812.7"/>
<text text-anchor="start" x="28" y="-802.8" font-family="Helvetica,sans-Serif" font-size="11.00" fill="#000000">LANGUAGE_ID</text>
<polygon fill="none" stroke="#000000" points="8,-773.7 8,-795.7 226,-795.7 226,-773.7 8,-773.7"/>
<image xlink:href="../../images/primaryKeys.png" width="11px" height="12px" preserveAspectRatio="xMinYMin meet" x="13" y="-790.7"/>
<text text-anchor="start" x="28" y="-780.8" font-family="Helvetica,sans-Serif" font-size="11.00" fill="#000000">RELIGION_ID</text>
<polygon fill="none" stroke="#000000" points="8,-751.7 8,-773.7 226,-773.7 226,-751.7 8,-751.7"/>
<image xlink:href="../../images/primaryKeys.png" width="11px" height="12px" preserveAspectRatio="xMinYMin meet" x="13" y="-768.7"/>
<text text-anchor="start" x="28" y="-758.8" font-family="Helvetica,sans-Serif" font-size="11.00" fill="#000000">SURNAME_SOUNDEX</text>
<polygon fill="none" stroke="#000000" points="8,-729.7 8,-751.7 226,-751.7 226,-729.7 8,-729.7"/>
<image xlink:href="../../images/primaryKeys.png" width="11px" height="12px" preserveAspectRatio="xMinYMin meet" x="13" y="-746.7"/>
<text text-anchor="start" x="28" y="-736.8" font-family="Helvetica,sans-Serif" font-size="11.00" fill="#000000">SECOND_NATIONALITY_ID</text>
<polygon fill="none" stroke="#000000" points="8,-707.7 8,-729.7 226,-729.7 226,-707.7 8,-707.7"/>
<image xlink:href="../../images/primaryKeys.png" width="11px" height="12px" preserveAspectRatio="xMinYMin meet" x="13" y="-724.7"/>
<text text-anchor="start" x="28" y="-714.8" font-family="Helvetica,sans-Serif" font-size="11.00" fill="#000000">SEXUAL_ORIENTATION_ID</text>
<polygon fill="none" stroke="#000000" points="8,-685.7 8,-707.7 226,-707.7 226,-685.7 8,-685.7"/>
<image xlink:href="../../images/primaryKeys.png" width="11px" height="12px" preserveAspectRatio="xMinYMin meet" x="13" y="-702.7"/>
<text text-anchor="start" x="28" y="-692.8" font-family="Helvetica,sans-Serif" font-size="11.00" fill="#000000">CURRENT_EXCLUSION</text>
<polygon fill="none" stroke="#000000" points="8,-663.7 8,-685.7 226,-685.7 226,-663.7 8,-663.7"/>
<image xlink:href="../../images/primaryKeys.png" width="11px" height="12px" preserveAspectRatio="xMinYMin meet" x="13" y="-680.7"/>
<text text-anchor="start" x="28" y="-670.8" font-family="Helvetica,sans-Serif" font-size="11.00" fill="#000000">TRAINING_SESSION_ID</text>
<polygon fill="none" stroke="#000000" points="8,-641.7 8,-663.7 226,-663.7 226,-641.7 8,-641.7"/>
<image xlink:href="../../images/primaryKeys.png" width="11px" height="12px" preserveAspectRatio="xMinYMin meet" x="13" y="-658.7"/>
<text text-anchor="start" x="28" y="-648.8" font-family="Helvetica,sans-Serif" font-size="11.00" fill="#000000">CURRENT_DISPOSAL</text>
<polygon fill="none" stroke="#000000" points="8,-619.7 8,-641.7 226,-641.7 226,-619.7 8,-619.7"/>
<image xlink:href="../../images/primaryKeys.png" width="11px" height="12px" preserveAspectRatio="xMinYMin meet" x="13" y="-636.7"/>
<text text-anchor="start" x="27.6433" y="-626.8" font-family="Helvetica,sans-Serif" font-size="11.00" fill="#000000">CURRENT_HIGHEST_RISK_COLOUR</text>
<polygon fill="none" stroke="#000000" points="8,-597.7 8,-619.7 226,-619.7 226,-597.7 8,-597.7"/>
<image xlink:href="../../images/primaryKeys.png" width="11px" height="12px" preserveAspectRatio="xMinYMin meet" x="13" y="-614.7"/>
<text text-anchor="start" x="28" y="-604.8" font-family="Helvetica,sans-Serif" font-size="11.00" fill="#000000">CURRENT_RESTRICTION</text>
<polygon fill="none" stroke="#000000" points="8,-575.7 8,-597.7 226,-597.7 226,-575.7 8,-575.7"/>
<image xlink:href="../../images/primaryKeys.png" width="11px" height="12px" preserveAspectRatio="xMinYMin meet" x="13" y="-592.7"/>
<text text-anchor="start" x="28" y="-582.8" font-family="Helvetica,sans-Serif" font-size="11.00" fill="#000000">INSTITUTION_ID</text>
<polygon fill="none" stroke="#000000" points="8,-553.7 8,-575.7 226,-575.7 226,-553.7 8,-553.7"/>
<image xlink:href="../../images/primaryKeys.png" width="11px" height="12px" preserveAspectRatio="xMinYMin meet" x="13" y="-570.7"/>
<text text-anchor="start" x="28" y="-560.8" font-family="Helvetica,sans-Serif" font-size="11.00" fill="#000000">ESTABLISHMENT</text>
<polygon fill="none" stroke="#000000" points="8,-531.7 8,-553.7 226,-553.7 226,-531.7 8,-531.7"/>
<image xlink:href="../../images/primaryKeys.png" width="11px" height="12px" preserveAspectRatio="xMinYMin meet" x="13" y="-548.7"/>
<text text-anchor="start" x="28" y="-538.8" font-family="Helvetica,sans-Serif" font-size="11.00" fill="#000000">CURRENT_TIER</text>
<polygon fill="none" stroke="#000000" points="8,-509.7 8,-531.7 226,-531.7 226,-509.7 8,-509.7"/>
<image xlink:href="../../images/primaryKeys.png" width="11px" height="12px" preserveAspectRatio="xMinYMin meet" x="13" y="-526.7"/>
<text text-anchor="start" x="28" y="-516.8" font-family="Helvetica,sans-Serif" font-size="11.00" fill="#000000">OM_ALLOCATION_DECISION_ID</text>
<polygon fill="none" stroke="#000000" points="8,-487.7 8,-509.7 226,-509.7 226,-487.7 8,-487.7"/>
<image xlink:href="../../images/primaryKeys.png" width="11px" height="12px" preserveAspectRatio="xMinYMin meet" x="13" y="-504.7"/>
<text text-anchor="start" x="28" y="-494.8" font-family="Helvetica,sans-Serif" font-size="11.00" fill="#000000">TRANSGENDER_PROCESS_ID</text>
<polygon fill="none" stroke="#000000" points="8,-465.7 8,-487.7 226,-487.7 226,-465.7 8,-465.7"/>
<image xlink:href="../../images/primaryKeys.png" width="11px" height="12px" preserveAspectRatio="xMinYMin meet" x="13" y="-482.7"/>
<text text-anchor="start" x="28" y="-472.8" font-family="Helvetica,sans-Serif" font-size="11.00" fill="#000000">PREFERRED_NAME</text>
<polygon fill="none" stroke="#000000" points="8,-443.7 8,-465.7 226,-465.7 226,-443.7 8,-443.7"/>
<image xlink:href="../../images/primaryKeys.png" width="11px" height="12px" preserveAspectRatio="xMinYMin meet" x="13" y="-460.7"/>
<text text-anchor="start" x="28" y="-450.8" font-family="Helvetica,sans-Serif" font-size="11.00" fill="#000000">GENDER_IDENTITY_ID</text>
<polygon fill="none" stroke="#000000" points="8,-424.7 8,-443.7 226,-443.7 226,-424.7 8,-424.7"/>
<text text-anchor="start" x="11" y="-430.8" font-family="Helvetica,sans-Serif" font-size="11.00" fill="#000000">...</text>
<polygon fill="#ffffff" stroke="transparent" points="8,-405.7 8,-424.7 81,-424.7 81,-405.7 8,-405.7"/>
<polygon fill="none" stroke="#000000" points="8,-405.7 8,-424.7 81,-424.7 81,-405.7 8,-405.7"/>
<text text-anchor="start" x="11" y="-411.8" font-family="Helvetica,sans-Serif" font-size="11.00" fill="#000000">&lt; 16</text>
<polygon fill="#ffffff" stroke="transparent" points="81,-405.7 81,-424.7 176,-424.7 176,-405.7 81,-405.7"/>
<polygon fill="none" stroke="#000000" points="81,-405.7 81,-424.7 176,-424.7 176,-405.7 81,-405.7"/>
<text text-anchor="start" x="106.9791" y="-411.8" font-family="Helvetica,sans-Serif" font-size="11.00" fill="#000000">494,119 rows</text>
<polygon fill="#ffffff" stroke="transparent" points="176,-405.7 176,-424.7 226,-424.7 226,-405.7 176,-405.7"/>
<polygon fill="none" stroke="#000000" points="176,-405.7 176,-424.7 226,-424.7 226,-405.7 176,-405.7"/>
<text text-anchor="start" x="201.2904" y="-411.8" font-family="Helvetica,sans-Serif" font-size="11.00" fill="#000000">96 &gt;</text>
</a>
</g>
</g>
<!-- PROVIDER_LAO&#45;&gt;OFFENDER -->
<g id="edge1" class="edge">
<title>PROVIDER_LAO:w&#45;&gt;OFFENDER:e</title>
<path fill="none" stroke="#000000" d="M263.0022,-799.6381C104.4416,-821.6784 411.4971,-1224.7 226,-1224.7"/>
<polygon fill="#000000" stroke="#000000" points="269.5167,-799.2166 277.7325,-802.2925 273.5083,-798.9583 277.5,-798.7 277.5,-798.7 277.5,-798.7 273.5083,-798.9583 277.2675,-795.1075 269.5167,-799.2166 269.5167,-799.2166"/>
<ellipse fill="none" stroke="#000000" cx="266.3234" cy="-799.4233" rx="3.2" ry="3.2"/>
</g>
<!-- PROBATION_AREA -->
<g id="node3" class="node">
<title>PROBATION_AREA</title>
<g id="a_node3"><a xlink:href="../../tables/PROBATION_AREA.html" xlink:title="PROBATION_AREA" target="_top">
<polygon fill="#ffffff" stroke="transparent" points="11,-38.2 11,-385.2 223,-385.2 223,-38.2 11,-38.2"/>
<polygon fill="#f5f5f5" stroke="transparent" points="11,-361.7 11,-384.7 223,-384.7 223,-361.7 11,-361.7"/>
<polygon fill="none" stroke="#000000" points="11,-361.7 11,-384.7 223,-384.7 223,-361.7 11,-361.7"/>
<text text-anchor="start" x="16" y="-370.8" font-family="Helvetica,sans-Serif" font-weight="bold" font-size="11.00" fill="#000000">PROBATION_AREA</text>
<text text-anchor="start" x="188.0437" y="-369.8" font-family="Helvetica,sans-Serif" font-size="11.00" fill="#000000">[table]</text>
<polygon fill="none" stroke="#000000" points="11,-339.7 11,-361.7 223,-361.7 223,-339.7 11,-339.7"/>
<image xlink:href="../../images/primaryKeys.png" width="11px" height="12px" preserveAspectRatio="xMinYMin meet" x="16" y="-356.7"/>
<text text-anchor="start" x="31" y="-346.8" font-family="Helvetica,sans-Serif" font-size="11.00" fill="#000000">PROBATION_AREA_ID</text>
<polygon fill="none" stroke="#000000" points="11,-317.7 11,-339.7 223,-339.7 223,-317.7 11,-317.7"/>
<image xlink:href="../../images/primaryKeys.png" width="11px" height="12px" preserveAspectRatio="xMinYMin meet" x="16" y="-334.7"/>
<text text-anchor="start" x="31" y="-324.8" font-family="Helvetica,sans-Serif" font-size="11.00" fill="#000000">CODE</text>
<polygon fill="none" stroke="#000000" points="11,-295.7 11,-317.7 223,-317.7 223,-295.7 11,-295.7"/>
<image xlink:href="../../images/primaryKeys.png" width="11px" height="12px" preserveAspectRatio="xMinYMin meet" x="16" y="-312.7"/>
<text text-anchor="start" x="31" y="-302.8" font-family="Helvetica,sans-Serif" font-size="11.00" fill="#000000">FORM_20_CODE</text>
<polygon fill="none" stroke="#000000" points="11,-273.7 11,-295.7 223,-295.7 223,-273.7 11,-273.7"/>
<image xlink:href="../../images/primaryKeys.png" width="11px" height="12px" preserveAspectRatio="xMinYMin meet" x="16" y="-290.7"/>
<text text-anchor="start" x="31" y="-280.8" font-family="Helvetica,sans-Serif" font-size="11.00" fill="#000000">HO_AREA_CODE</text>
<polygon fill="none" stroke="#000000" points="11,-251.7 11,-273.7 223,-273.7 223,-251.7 11,-251.7"/>
<image xlink:href="../../images/primaryKeys.png" width="11px" height="12px" preserveAspectRatio="xMinYMin meet" x="16" y="-268.7"/>
<text text-anchor="start" x="31" y="-258.8" font-family="Helvetica,sans-Serif" font-size="11.00" fill="#000000">TRAINING_SESSION_ID</text>
<polygon fill="none" stroke="#000000" points="11,-229.7 11,-251.7 223,-251.7 223,-229.7 11,-229.7"/>
<image xlink:href="../../images/primaryKeys.png" width="11px" height="12px" preserveAspectRatio="xMinYMin meet" x="16" y="-246.7"/>
<text text-anchor="start" x="31" y="-236.8" font-family="Helvetica,sans-Serif" font-size="11.00" fill="#000000">ORGANISATION_ID</text>
<polygon fill="none" stroke="#000000" points="11,-207.7 11,-229.7 223,-229.7 223,-207.7 11,-207.7"/>
<image xlink:href="../../images/primaryKeys.png" width="11px" height="12px" preserveAspectRatio="xMinYMin meet" x="16" y="-224.7"/>
<text text-anchor="start" x="31" y="-214.8" font-family="Helvetica,sans-Serif" font-size="11.00" fill="#000000">ADDRESS_ID</text>
<polygon fill="none" stroke="#000000" points="11,-185.7 11,-207.7 223,-207.7 223,-185.7 11,-185.7"/>
<image xlink:href="../../images/primaryKeys.png" width="11px" height="12px" preserveAspectRatio="xMinYMin meet" x="16" y="-202.7"/>
<text text-anchor="start" x="31" y="-192.8" font-family="Helvetica,sans-Serif" font-size="11.00" fill="#000000">SPG_ACTIVE_ID</text>
<polygon fill="none" stroke="#000000" points="11,-163.7 11,-185.7 223,-185.7 223,-163.7 11,-163.7"/>
<image xlink:href="../../images/primaryKeys.png" width="11px" height="12px" preserveAspectRatio="xMinYMin meet" x="16" y="-180.7"/>
<text text-anchor="start" x="31" y="-170.8" font-family="Helvetica,sans-Serif" font-size="11.00" fill="#000000">INSTITUTION_ID</text>
<polygon fill="none" stroke="#000000" points="11,-141.7 11,-163.7 223,-163.7 223,-141.7 11,-141.7"/>
<image xlink:href="../../images/primaryKeys.png" width="11px" height="12px" preserveAspectRatio="xMinYMin meet" x="16" y="-158.7"/>
<text text-anchor="start" x="31" y="-148.8" font-family="Helvetica,sans-Serif" font-size="11.00" fill="#000000">ESTABLISHMENT</text>
<polygon fill="none" stroke="#000000" points="11,-119.7 11,-141.7 223,-141.7 223,-119.7 11,-119.7"/>
<image xlink:href="../../images/primaryKeys.png" width="11px" height="12px" preserveAspectRatio="xMinYMin meet" x="16" y="-136.7"/>
<text text-anchor="start" x="31" y="-126.8" font-family="Helvetica,sans-Serif" font-size="11.00" fill="#000000">DEFAULT_TRANSFER_TEAM_ID</text>
<polygon fill="none" stroke="#000000" points="11,-97.7 11,-119.7 223,-119.7 223,-97.7 11,-97.7"/>
<image xlink:href="../../images/primaryKeys.png" width="11px" height="12px" preserveAspectRatio="xMinYMin meet" x="16" y="-114.7"/>
<text text-anchor="start" x="31" y="-104.8" font-family="Helvetica,sans-Serif" font-size="11.00" fill="#000000">DEFAULT_COURT_TEAM_ID</text>
<polygon fill="none" stroke="#000000" points="11,-75.7 11,-97.7 223,-97.7 223,-75.7 11,-75.7"/>
<image xlink:href="../../images/primaryKeys.png" width="11px" height="12px" preserveAspectRatio="xMinYMin meet" x="16" y="-92.7"/>
<text text-anchor="start" x="31" y="-82.8" font-family="Helvetica,sans-Serif" font-size="11.00" fill="#000000">DEFAULT_POSTCODE_TEAM_ID</text>
<polygon fill="none" stroke="#000000" points="11,-56.7 11,-75.7 223,-75.7 223,-56.7 11,-56.7"/>
<text text-anchor="start" x="14" y="-62.8" font-family="Helvetica,sans-Serif" font-size="11.00" fill="#000000">...</text>
<polygon fill="#ffffff" stroke="transparent" points="11,-37.7 11,-56.7 89,-56.7 89,-37.7 11,-37.7"/>
<polygon fill="none" stroke="#000000" points="11,-37.7 11,-56.7 89,-56.7 89,-37.7 11,-37.7"/>
<text text-anchor="start" x="14" y="-43.8" font-family="Helvetica,sans-Serif" font-size="11.00" fill="#000000">&lt; 8</text>
<polygon fill="#ffffff" stroke="transparent" points="89,-37.7 89,-56.7 167,-56.7 167,-37.7 89,-37.7"/>
<polygon fill="none" stroke="#000000" points="89,-37.7 89,-56.7 167,-56.7 167,-37.7 89,-37.7"/>
<text text-anchor="start" x="119.3807" y="-43.8" font-family="Helvetica,sans-Serif" font-size="11.00" fill="#000000">223 rows</text>
<polygon fill="#ffffff" stroke="transparent" points="167,-37.7 167,-56.7 223,-56.7 223,-37.7 167,-37.7"/>
<polygon fill="none" stroke="#000000" points="167,-37.7 167,-56.7 223,-56.7 223,-37.7 167,-37.7"/>
<text text-anchor="start" x="198.2904" y="-43.8" font-family="Helvetica,sans-Serif" font-size="11.00" fill="#000000">59 &gt;</text>
</a>
</g>
</g>
<!-- PROVIDER_LAO&#45;&gt;PROBATION_AREA -->
<g id="edge2" class="edge">
<title>PROVIDER_LAO:w&#45;&gt;PROBATION_AREA:e</title>
<path fill="none" stroke="#000000" d="M263.4298,-772.7548C196.767,-729.8089 313.0326,-350.7 223,-350.7"/>
<polygon fill="#000000" stroke="#000000" points="269.7971,-774.5401 276.528,-780.1663 273.6485,-775.6201 277.5,-776.7 277.5,-776.7 277.5,-776.7 273.6485,-775.6201 278.472,-773.2337 269.7971,-774.5401 269.7971,-774.5401"/>
<ellipse fill="none" stroke="#000000" cx="266.7159" cy="-773.6761" rx="3.2" ry="3.2"/>
</g>
</g>
</svg>
