<?xml version="1.0" encoding="UTF-8" standalone="no"?>
<!DOCTYPE svg PUBLIC "-//W3C//DTD SVG 1.1//EN"
 "http://www.w3.org/Graphics/SVG/1.1/DTD/svg11.dtd">
<!-- Generated by graphviz version 2.40.1 (20161225.0304)
 -->
<!-- Title: oneDegreeRelationshipsDiagram Pages: 1 -->
<svg width="478pt" height="479pt"
 viewBox="0.00 0.00 478.00 479.20" xmlns="http://www.w3.org/2000/svg" xmlns:xlink="http://www.w3.org/1999/xlink">
<g id="graph0" class="graph" transform="scale(1 1) rotate(0) translate(4 475.2)">
<title>oneDegreeRelationshipsDiagram</title>
<polygon fill="#ffffff" stroke="transparent" points="-4,4 -4,-475.2 474,-475.2 474,4 -4,4"/>
<text text-anchor="middle" x="72.4936" y="-7.3" font-family="Helvetica,sans-Serif" font-size="11.00" fill="#000000">Generated by SchemaSpy</text>
<!-- PROVIDER_TEAM_EMPLOYEE -->
<g id="node1" class="node">
<title>PROVIDER_TEAM_EMPLOYEE</title>
<g id="a_node1"><a xlink:href="../../tables/PROVIDER_TEAM_EMPLOYEE.html" xlink:title="PROVIDER_TEAM_EMPLOYEE" target="_top">
<polygon fill="#ffffff" stroke="transparent" points="224,-117.7 224,-383.7 462,-383.7 462,-117.7 224,-117.7"/>
<polygon fill="#f5f5f5" stroke="transparent" points="226,-358.7 226,-381.7 460,-381.7 460,-358.7 226,-358.7"/>
<polygon fill="none" stroke="#000000" points="226,-358.7 226,-381.7 460,-381.7 460,-358.7 226,-358.7"/>
<text text-anchor="start" x="231" y="-367.8" font-family="Helvetica,sans-Serif" font-weight="bold" font-size="11.00" fill="#000000">PROVIDER_TEAM_EMPLOYEE</text>
<text text-anchor="start" x="425.0437" y="-366.8" font-family="Helvetica,sans-Serif" font-size="11.00" fill="#000000">[table]</text>
<polygon fill="none" stroke="#000000" points="226,-336.7 226,-358.7 399,-358.7 399,-336.7 226,-336.7"/>
<image xlink:href="../../images/primaryKeys.png" width="11px" height="12px" preserveAspectRatio="xMinYMin meet" x="231" y="-353.7"/>
<text text-anchor="start" x="246" y="-343.8" font-family="Helvetica,sans-Serif" font-size="11.00" fill="#000000">PROVIDER_TEAM_ID</text>
<polygon fill="none" stroke="#000000" points="399,-336.7 399,-358.7 460,-358.7 460,-336.7 399,-336.7"/>
<text text-anchor="start" x="401.6865" y="-344.4" font-family="Helvetica,sans-Serif" font-size="11.00" fill="#000000">number[38]</text>
<polygon fill="none" stroke="#000000" points="226,-314.7 226,-336.7 399,-336.7 399,-314.7 226,-314.7"/>
<image xlink:href="../../images/primaryKeys.png" width="11px" height="12px" preserveAspectRatio="xMinYMin meet" x="231" y="-331.7"/>
<text text-anchor="start" x="246" y="-321.8" font-family="Helvetica,sans-Serif" font-size="11.00" fill="#000000">PROVIDER_EMPLOYEE_ID</text>
<polygon fill="none" stroke="#000000" points="399,-314.7 399,-336.7 460,-336.7 460,-314.7 399,-314.7"/>
<text text-anchor="start" x="401.6865" y="-322.4" font-family="Helvetica,sans-Serif" font-size="11.00" fill="#000000">number[38]</text>
<polygon fill="none" stroke="#000000" points="226,-292.7 226,-314.7 399,-314.7 399,-292.7 226,-292.7"/>
<text text-anchor="start" x="246" y="-299.8" font-family="Helvetica,sans-Serif" font-size="11.00" fill="#000000">START_DATE</text>
<polygon fill="none" stroke="#000000" points="399,-292.7 399,-314.7 460,-314.7 460,-292.7 399,-292.7"/>
<text text-anchor="start" x="402" y="-300.4" font-family="Helvetica,sans-Serif" font-size="11.00" fill="#000000">date[7]</text>
<polygon fill="none" stroke="#000000" points="226,-270.7 226,-292.7 399,-292.7 399,-270.7 226,-270.7"/>
<text text-anchor="start" x="246" y="-277.8" font-family="Helvetica,sans-Serif" font-size="11.00" fill="#000000">END_DATE</text>
<polygon fill="none" stroke="#000000" points="399,-270.7 399,-292.7 460,-292.7 460,-270.7 399,-270.7"/>
<text text-anchor="start" x="402" y="-278.4" font-family="Helvetica,sans-Serif" font-size="11.00" fill="#000000">date[7]</text>
<polygon fill="none" stroke="#000000" points="226,-248.7 226,-270.7 399,-270.7 399,-248.7 226,-248.7"/>
<text text-anchor="start" x="246" y="-255.8" font-family="Helvetica,sans-Serif" font-size="11.00" fill="#000000">ROW_VERSION</text>
<polygon fill="none" stroke="#000000" points="399,-248.7 399,-270.7 460,-270.7 460,-248.7 399,-248.7"/>
<text text-anchor="start" x="401.6865" y="-256.4" font-family="Helvetica,sans-Serif" font-size="11.00" fill="#000000">number[38]</text>
<polygon fill="none" stroke="#000000" points="226,-226.7 226,-248.7 399,-248.7 399,-226.7 226,-226.7"/>
<text text-anchor="start" x="246" y="-233.8" font-family="Helvetica,sans-Serif" font-size="11.00" fill="#000000">CREATED_BY_USER_ID</text>
<polygon fill="none" stroke="#000000" points="399,-226.7 399,-248.7 460,-248.7 460,-226.7 399,-226.7"/>
<text text-anchor="start" x="401.6865" y="-234.4" font-family="Helvetica,sans-Serif" font-size="11.00" fill="#000000">number[38]</text>
<polygon fill="none" stroke="#000000" points="226,-204.7 226,-226.7 399,-226.7 399,-204.7 226,-204.7"/>
<text text-anchor="start" x="246" y="-211.8" font-family="Helvetica,sans-Serif" font-size="11.00" fill="#000000">CREATED_DATETIME</text>
<polygon fill="none" stroke="#000000" points="399,-204.7 399,-226.7 460,-226.7 460,-204.7 399,-204.7"/>
<text text-anchor="start" x="402" y="-212.4" font-family="Helvetica,sans-Serif" font-size="11.00" fill="#000000">date[7]</text>
<polygon fill="none" stroke="#000000" points="226,-182.7 226,-204.7 399,-204.7 399,-182.7 226,-182.7"/>
<text text-anchor="start" x="246" y="-189.8" font-family="Helvetica,sans-Serif" font-size="11.00" fill="#000000">LAST_UPDATED_USER_ID</text>
<polygon fill="none" stroke="#000000" points="399,-182.7 399,-204.7 460,-204.7 460,-182.7 399,-182.7"/>
<text text-anchor="start" x="401.6865" y="-190.4" font-family="Helvetica,sans-Serif" font-size="11.00" fill="#000000">number[38]</text>
<polygon fill="none" stroke="#000000" points="226,-160.7 226,-182.7 399,-182.7 399,-160.7 226,-160.7"/>
<text text-anchor="start" x="246" y="-167.8" font-family="Helvetica,sans-Serif" font-size="11.00" fill="#000000">LAST_UPDATED_DATETIME</text>
<polygon fill="none" stroke="#000000" points="399,-160.7 399,-182.7 460,-182.7 460,-160.7 399,-160.7"/>
<text text-anchor="start" x="402" y="-168.4" font-family="Helvetica,sans-Serif" font-size="11.00" fill="#000000">date[7]</text>
<polygon fill="none" stroke="#000000" points="226,-138.7 226,-160.7 399,-160.7 399,-138.7 226,-138.7"/>
<image xlink:href="../../images/primaryKeys.png" width="11px" height="12px" preserveAspectRatio="xMinYMin meet" x="231" y="-155.7"/>
<text text-anchor="start" x="246" y="-145.8" font-family="Helvetica,sans-Serif" font-size="11.00" fill="#000000">TRAINING_SESSION_ID</text>
<polygon fill="none" stroke="#000000" points="399,-138.7 399,-160.7 460,-160.7 460,-138.7 399,-138.7"/>
<text text-anchor="start" x="401.6865" y="-146.4" font-family="Helvetica,sans-Serif" font-size="11.00" fill="#000000">number[38]</text>
<polygon fill="#ffffff" stroke="transparent" points="226,-119.7 226,-138.7 307,-138.7 307,-119.7 226,-119.7"/>
<polygon fill="none" stroke="#000000" points="226,-119.7 226,-138.7 307,-138.7 307,-119.7 226,-119.7"/>
<text text-anchor="start" x="229" y="-125.8" font-family="Helvetica,sans-Serif" font-size="11.00" fill="#000000">&lt; 2</text>
<polygon fill="#ffffff" stroke="transparent" points="307,-119.7 307,-138.7 399,-138.7 399,-119.7 307,-119.7"/>
<polygon fill="none" stroke="#000000" points="307,-119.7 307,-138.7 399,-138.7 399,-119.7 307,-119.7"/>
<text text-anchor="start" x="369.1105" y="-125.8" font-family="Helvetica,sans-Serif" font-size="11.00" fill="#000000">1 row</text>
<polygon fill="#ffffff" stroke="transparent" points="399,-119.7 399,-138.7 460,-138.7 460,-119.7 399,-119.7"/>
<polygon fill="none" stroke="#000000" points="399,-119.7 399,-138.7 460,-138.7 460,-119.7 399,-119.7"/>
<text text-anchor="start" x="441.4053" y="-125.8" font-family="Helvetica,sans-Serif" font-size="11.00" fill="#000000">0 &gt;</text>
<polygon fill="none" stroke="#000000" stroke-width="2" points="225,-118.7 225,-382.7 461,-382.7 461,-118.7 225,-118.7"/>
</a>
</g>
</g>
<!-- PROVIDER_EMPLOYEE -->
<g id="node2" class="node">
<title>PROVIDER_EMPLOYEE</title>
<g id="a_node2"><a xlink:href="../../tables/PROVIDER_EMPLOYEE.html" xlink:title="PROVIDER_EMPLOYEE" target="_top">
<polygon fill="#ffffff" stroke="transparent" points="8,-38.2 8,-275.2 175,-275.2 175,-38.2 8,-38.2"/>
<polygon fill="#f5f5f5" stroke="transparent" points="8.5,-251.7 8.5,-274.7 175.5,-274.7 175.5,-251.7 8.5,-251.7"/>
<polygon fill="none" stroke="#000000" points="8.5,-251.7 8.5,-274.7 175.5,-274.7 175.5,-251.7 8.5,-251.7"/>
<text text-anchor="start" x="13.4638" y="-260.8" font-family="Helvetica,sans-Serif" font-weight="bold" font-size="11.00" fill="#000000">PROVIDER_EMPLOYEE</text>
<text text-anchor="start" x="141.0219" y="-259.8" font-family="Helvetica,sans-Serif" font-size="11.00" fill="#000000">[table]</text>
<polygon fill="none" stroke="#000000" points="8.5,-229.7 8.5,-251.7 175.5,-251.7 175.5,-229.7 8.5,-229.7"/>
<image xlink:href="../../images/primaryKeys.png" width="11px" height="12px" preserveAspectRatio="xMinYMin meet" x="13.5" y="-246.7"/>
<text text-anchor="start" x="28.9075" y="-236.8" font-family="Helvetica,sans-Serif" font-size="11.00" fill="#000000">PROVIDER_EMPLOYEE_ID</text>
<polygon fill="none" stroke="#000000" points="8.5,-207.7 8.5,-229.7 175.5,-229.7 175.5,-207.7 8.5,-207.7"/>
<image xlink:href="../../images/primaryKeys.png" width="11px" height="12px" preserveAspectRatio="xMinYMin meet" x="13.5" y="-224.7"/>
<text text-anchor="start" x="31.5" y="-214.8" font-family="Helvetica,sans-Serif" font-size="11.00" fill="#000000">CODE</text>
<polygon fill="none" stroke="#000000" points="8.5,-185.7 8.5,-207.7 175.5,-207.7 175.5,-185.7 8.5,-185.7"/>
<image xlink:href="../../images/primaryKeys.png" width="11px" height="12px" preserveAspectRatio="xMinYMin meet" x="13.5" y="-202.7"/>
<text text-anchor="start" x="31.5" y="-192.8" font-family="Helvetica,sans-Serif" font-size="11.00" fill="#000000">SURNAME</text>
<polygon fill="none" stroke="#000000" points="8.5,-163.7 8.5,-185.7 175.5,-185.7 175.5,-163.7 8.5,-163.7"/>
<image xlink:href="../../images/primaryKeys.png" width="11px" height="12px" preserveAspectRatio="xMinYMin meet" x="13.5" y="-180.7"/>
<text text-anchor="start" x="31.5" y="-170.8" font-family="Helvetica,sans-Serif" font-size="11.00" fill="#000000">FORENAME</text>
<polygon fill="none" stroke="#000000" points="8.5,-141.7 8.5,-163.7 175.5,-163.7 175.5,-141.7 8.5,-141.7"/>
<image xlink:href="../../images/primaryKeys.png" width="11px" height="12px" preserveAspectRatio="xMinYMin meet" x="13.5" y="-158.7"/>
<text text-anchor="start" x="31.5" y="-148.8" font-family="Helvetica,sans-Serif" font-size="11.00" fill="#000000">FORENAME2</text>
<polygon fill="none" stroke="#000000" points="8.5,-119.7 8.5,-141.7 175.5,-141.7 175.5,-119.7 8.5,-119.7"/>
<image xlink:href="../../images/primaryKeys.png" width="11px" height="12px" preserveAspectRatio="xMinYMin meet" x="13.5" y="-136.7"/>
<text text-anchor="start" x="30.134" y="-126.8" font-family="Helvetica,sans-Serif" font-size="11.00" fill="#000000">EXTERNAL_PROVIDER_ID</text>
<polygon fill="none" stroke="#000000" points="8.5,-97.7 8.5,-119.7 175.5,-119.7 175.5,-97.7 8.5,-97.7"/>
<image xlink:href="../../images/primaryKeys.png" width="11px" height="12px" preserveAspectRatio="xMinYMin meet" x="13.5" y="-114.7"/>
<text text-anchor="start" x="31.5" y="-104.8" font-family="Helvetica,sans-Serif" font-size="11.00" fill="#000000">TRAINING_SESSION_ID</text>
<polygon fill="none" stroke="#000000" points="8.5,-75.7 8.5,-97.7 175.5,-97.7 175.5,-75.7 8.5,-75.7"/>
<image xlink:href="../../images/primaryKeys.png" width="11px" height="12px" preserveAspectRatio="xMinYMin meet" x="13.5" y="-92.7"/>
<text text-anchor="start" x="31.5" y="-82.8" font-family="Helvetica,sans-Serif" font-size="11.00" fill="#000000">PROBATION_AREA_ID</text>
<polygon fill="none" stroke="#000000" points="8.5,-56.7 8.5,-75.7 175.5,-75.7 175.5,-56.7 8.5,-56.7"/>
<text text-anchor="start" x="11.5" y="-62.8" font-family="Helvetica,sans-Serif" font-size="11.00" fill="#000000">...</text>
<polygon fill="#ffffff" stroke="transparent" points="8.5,-37.7 8.5,-56.7 72.5,-56.7 72.5,-37.7 8.5,-37.7"/>
<polygon fill="none" stroke="#000000" points="8.5,-37.7 8.5,-56.7 72.5,-56.7 72.5,-37.7 8.5,-37.7"/>
<text text-anchor="start" x="11.5" y="-43.8" font-family="Helvetica,sans-Serif" font-size="11.00" fill="#000000">&lt; 2</text>
<polygon fill="#ffffff" stroke="transparent" points="72.5,-37.7 72.5,-56.7 126.5,-56.7 126.5,-37.7 72.5,-37.7"/>
<polygon fill="none" stroke="#000000" points="72.5,-37.7 72.5,-56.7 126.5,-56.7 126.5,-37.7 72.5,-37.7"/>
<text text-anchor="start" x="96.6105" y="-43.8" font-family="Helvetica,sans-Serif" font-size="11.00" fill="#000000">1 row</text>
<polygon fill="#ffffff" stroke="transparent" points="126.5,-37.7 126.5,-56.7 175.5,-56.7 175.5,-37.7 126.5,-37.7"/>
<polygon fill="none" stroke="#000000" points="126.5,-37.7 126.5,-56.7 175.5,-56.7 175.5,-37.7 126.5,-37.7"/>
<text text-anchor="start" x="150.7904" y="-43.8" font-family="Helvetica,sans-Serif" font-size="11.00" fill="#000000">22 &gt;</text>
</a>
</g>
</g>
<!-- PROVIDER_TEAM_EMPLOYEE&#45;&gt;PROVIDER_EMPLOYEE -->
<g id="edge1" class="edge">
<title>PROVIDER_TEAM_EMPLOYEE:w&#45;&gt;PROVIDER_EMPLOYEE:e</title>
<path fill="none" stroke="#000000" d="M212.1216,-321.368C190.76,-304.0466 213.4344,-240.7 175.5,-240.7"/>
<polygon fill="#000000" stroke="#000000" points="218.3634,-323.3163 224.9273,-329.1365 222.1817,-324.5081 226,-325.7 226,-325.7 226,-325.7 222.1817,-324.5081 227.0727,-322.2635 218.3634,-323.3163 218.3634,-323.3163"/>
<ellipse fill="none" stroke="#000000" cx="215.3087" cy="-322.3628" rx="3.2" ry="3.2"/>
</g>
<!-- PROVIDER_TEAM -->
<g id="node3" class="node">
<title>PROVIDER_TEAM</title>
<g id="a_node3"><a xlink:href="../../tables/PROVIDER_TEAM.html" xlink:title="PROVIDER_TEAM" target="_top">
<polygon fill="#ffffff" stroke="transparent" points="11,-296.2 11,-467.2 172,-467.2 172,-296.2 11,-296.2"/>
<polygon fill="#f5f5f5" stroke="transparent" points="11.5,-443.7 11.5,-466.7 172.5,-466.7 172.5,-443.7 11.5,-443.7"/>
<polygon fill="none" stroke="#000000" points="11.5,-443.7 11.5,-466.7 172.5,-466.7 172.5,-443.7 11.5,-443.7"/>
<text text-anchor="start" x="16.5" y="-452.8" font-family="Helvetica,sans-Serif" font-weight="bold" font-size="11.00" fill="#000000">PROVIDER_TEAM</text>
<text text-anchor="start" x="137.5437" y="-451.8" font-family="Helvetica,sans-Serif" font-size="11.00" fill="#000000">[table]</text>
<polygon fill="none" stroke="#000000" points="11.5,-421.7 11.5,-443.7 172.5,-443.7 172.5,-421.7 11.5,-421.7"/>
<image xlink:href="../../images/primaryKeys.png" width="11px" height="12px" preserveAspectRatio="xMinYMin meet" x="16.5" y="-438.7"/>
<text text-anchor="start" x="31.5" y="-428.8" font-family="Helvetica,sans-Serif" font-size="11.00" fill="#000000">PROVIDER_TEAM_ID</text>
<polygon fill="none" stroke="#000000" points="11.5,-399.7 11.5,-421.7 172.5,-421.7 172.5,-399.7 11.5,-399.7"/>
<image xlink:href="../../images/primaryKeys.png" width="11px" height="12px" preserveAspectRatio="xMinYMin meet" x="16.5" y="-416.7"/>
<text text-anchor="start" x="31.5" y="-406.8" font-family="Helvetica,sans-Serif" font-size="11.00" fill="#000000">CODE</text>
<polygon fill="none" stroke="#000000" points="11.5,-377.7 11.5,-399.7 172.5,-399.7 172.5,-377.7 11.5,-377.7"/>
<image xlink:href="../../images/primaryKeys.png" width="11px" height="12px" preserveAspectRatio="xMinYMin meet" x="16.5" y="-394.7"/>
<text text-anchor="start" x="30.134" y="-384.8" font-family="Helvetica,sans-Serif" font-size="11.00" fill="#000000">EXTERNAL_PROVIDER_ID</text>
<polygon fill="none" stroke="#000000" points="11.5,-355.7 11.5,-377.7 172.5,-377.7 172.5,-355.7 11.5,-355.7"/>
<image xlink:href="../../images/primaryKeys.png" width="11px" height="12px" preserveAspectRatio="xMinYMin meet" x="16.5" y="-372.7"/>
<text text-anchor="start" x="31.5" y="-362.8" font-family="Helvetica,sans-Serif" font-size="11.00" fill="#000000">TRAINING_SESSION_ID</text>
<polygon fill="none" stroke="#000000" points="11.5,-333.7 11.5,-355.7 172.5,-355.7 172.5,-333.7 11.5,-333.7"/>
<image xlink:href="../../images/primaryKeys.png" width="11px" height="12px" preserveAspectRatio="xMinYMin meet" x="16.5" y="-350.7"/>
<text text-anchor="start" x="31.5" y="-340.8" font-family="Helvetica,sans-Serif" font-size="11.00" fill="#000000">PROBATION_AREA_ID</text>
<polygon fill="none" stroke="#000000" points="11.5,-314.7 11.5,-333.7 172.5,-333.7 172.5,-314.7 11.5,-314.7"/>
<text text-anchor="start" x="14.5" y="-320.8" font-family="Helvetica,sans-Serif" font-size="11.00" fill="#000000">...</text>
<polygon fill="#ffffff" stroke="transparent" points="11.5,-295.7 11.5,-314.7 72.5,-314.7 72.5,-295.7 11.5,-295.7"/>
<polygon fill="none" stroke="#000000" points="11.5,-295.7 11.5,-314.7 72.5,-314.7 72.5,-295.7 11.5,-295.7"/>
<text text-anchor="start" x="14.5" y="-301.8" font-family="Helvetica,sans-Serif" font-size="11.00" fill="#000000">&lt; 2</text>
<polygon fill="#ffffff" stroke="transparent" points="72.5,-295.7 72.5,-314.7 124.5,-314.7 124.5,-295.7 72.5,-295.7"/>
<polygon fill="none" stroke="#000000" points="72.5,-295.7 72.5,-314.7 124.5,-314.7 124.5,-295.7 72.5,-295.7"/>
<text text-anchor="start" x="94.6105" y="-301.8" font-family="Helvetica,sans-Serif" font-size="11.00" fill="#000000">1 row</text>
<polygon fill="#ffffff" stroke="transparent" points="124.5,-295.7 124.5,-314.7 172.5,-314.7 172.5,-295.7 124.5,-295.7"/>
<polygon fill="none" stroke="#000000" points="124.5,-295.7 124.5,-314.7 172.5,-314.7 172.5,-295.7 124.5,-295.7"/>
<text text-anchor="start" x="147.7904" y="-301.8" font-family="Helvetica,sans-Serif" font-size="11.00" fill="#000000">24 &gt;</text>
</a>
</g>
</g>
<!-- PROVIDER_TEAM_EMPLOYEE&#45;&gt;PROVIDER_TEAM -->
<g id="edge2" class="edge">
<title>PROVIDER_TEAM_EMPLOYEE:w&#45;&gt;PROVIDER_TEAM:e</title>
<path fill="none" stroke="#000000" d="M212.0931,-351.7997C189.4466,-368.7788 211.2094,-432.7 172.5,-432.7"/>
<polygon fill="#000000" stroke="#000000" points="218.3265,-349.9622 227.018,-351.1531 222.1632,-348.8311 226,-347.7 226,-347.7 226,-347.7 222.1632,-348.8311 224.982,-344.2469 218.3265,-349.9622 218.3265,-349.9622"/>
<ellipse fill="none" stroke="#000000" cx="215.2571" cy="-350.867" rx="3.2" ry="3.2"/>
</g>
</g>
</svg>
