<?xml version="1.0" encoding="UTF-8" standalone="no"?>
<!DOCTYPE svg PUBLIC "-//W3C//DTD SVG 1.1//EN"
 "http://www.w3.org/Graphics/SVG/1.1/DTD/svg11.dtd">
<!-- Generated by graphviz version 2.40.1 (20161225.0304)
 -->
<!-- Title: oneDegreeRelationshipsDiagram Pages: 1 -->
<svg width="523pt" height="523pt"
 viewBox="0.00 0.00 523.00 523.20" xmlns="http://www.w3.org/2000/svg" xmlns:xlink="http://www.w3.org/1999/xlink">
<g id="graph0" class="graph" transform="scale(1 1) rotate(0) translate(4 519.2)">
<title>oneDegreeRelationshipsDiagram</title>
<polygon fill="#ffffff" stroke="transparent" points="-4,4 -4,-519.2 519,-519.2 519,4 -4,4"/>
<text text-anchor="middle" x="72.4936" y="-7.3" font-family="Helvetica,sans-Serif" font-size="11.00" fill="#000000">Generated by SchemaSpy</text>
<!-- R_APPROVED_PREMISES_TEAM -->
<g id="node1" class="node">
<title>R_APPROVED_PREMISES_TEAM</title>
<g id="a_node1"><a xlink:href="../../tables/R_APPROVED_PREMISES_TEAM.html" xlink:title="R_APPROVED_PREMISES_TEAM" target="_top">
<polygon fill="#ffffff" stroke="transparent" points="255,-282.7 255,-394.7 507,-394.7 507,-282.7 255,-282.7"/>
<polygon fill="#f5f5f5" stroke="transparent" points="257,-369.7 257,-392.7 505,-392.7 505,-369.7 257,-369.7"/>
<polygon fill="none" stroke="#000000" points="257,-369.7 257,-392.7 505,-392.7 505,-369.7 257,-369.7"/>
<text text-anchor="start" x="262" y="-378.8" font-family="Helvetica,sans-Serif" font-weight="bold" font-size="11.00" fill="#000000">R_APPROVED_PREMISES_TEAM</text>
<text text-anchor="start" x="470.0437" y="-377.8" font-family="Helvetica,sans-Serif" font-size="11.00" fill="#000000">[table]</text>
<polygon fill="none" stroke="#000000" points="257,-347.7 257,-369.7 444,-369.7 444,-347.7 257,-347.7"/>
<image xlink:href="../../images/primaryKeys.png" width="11px" height="12px" preserveAspectRatio="xMinYMin meet" x="262" y="-364.7"/>
<text text-anchor="start" x="277" y="-354.8" font-family="Helvetica,sans-Serif" font-size="11.00" fill="#000000">APPROVED_PREMISES_ID</text>
<polygon fill="none" stroke="#000000" points="444,-347.7 444,-369.7 505,-369.7 505,-347.7 444,-347.7"/>
<text text-anchor="start" x="446.6865" y="-355.4" font-family="Helvetica,sans-Serif" font-size="11.00" fill="#000000">number[38]</text>
<polygon fill="none" stroke="#000000" points="257,-325.7 257,-347.7 444,-347.7 444,-325.7 257,-325.7"/>
<image xlink:href="../../images/primaryKeys.png" width="11px" height="12px" preserveAspectRatio="xMinYMin meet" x="262" y="-342.7"/>
<text text-anchor="start" x="277" y="-332.8" font-family="Helvetica,sans-Serif" font-size="11.00" fill="#000000">TEAM_ID</text>
<polygon fill="none" stroke="#000000" points="444,-325.7 444,-347.7 505,-347.7 505,-325.7 444,-325.7"/>
<text text-anchor="start" x="446.6865" y="-333.4" font-family="Helvetica,sans-Serif" font-size="11.00" fill="#000000">number[38]</text>
<polygon fill="none" stroke="#000000" points="257,-303.7 257,-325.7 444,-325.7 444,-303.7 257,-303.7"/>
<text text-anchor="start" x="277" y="-310.8" font-family="Helvetica,sans-Serif" font-size="11.00" fill="#000000">ROW_VERSION</text>
<polygon fill="none" stroke="#000000" points="444,-303.7 444,-325.7 505,-325.7 505,-303.7 444,-303.7"/>
<text text-anchor="start" x="446.6865" y="-311.4" font-family="Helvetica,sans-Serif" font-size="11.00" fill="#000000">number[38]</text>
<polygon fill="#ffffff" stroke="transparent" points="257,-284.7 257,-303.7 339,-303.7 339,-284.7 257,-284.7"/>
<polygon fill="none" stroke="#000000" points="257,-284.7 257,-303.7 339,-303.7 339,-284.7 257,-284.7"/>
<text text-anchor="start" x="260" y="-290.8" font-family="Helvetica,sans-Serif" font-size="11.00" fill="#000000">&lt; 2</text>
<polygon fill="#ffffff" stroke="transparent" points="339,-284.7 339,-303.7 444,-303.7 444,-284.7 339,-284.7"/>
<polygon fill="none" stroke="#000000" points="339,-284.7 339,-303.7 444,-303.7 444,-284.7 339,-284.7"/>
<text text-anchor="start" x="402.4956" y="-290.8" font-family="Helvetica,sans-Serif" font-size="11.00" fill="#000000">16 rows</text>
<polygon fill="#ffffff" stroke="transparent" points="444,-284.7 444,-303.7 505,-303.7 505,-284.7 444,-284.7"/>
<polygon fill="none" stroke="#000000" points="444,-284.7 444,-303.7 505,-303.7 505,-284.7 444,-284.7"/>
<text text-anchor="start" x="486.4053" y="-290.8" font-family="Helvetica,sans-Serif" font-size="11.00" fill="#000000">0 &gt;</text>
<polygon fill="none" stroke="#000000" stroke-width="2" points="256,-283.7 256,-393.7 506,-393.7 506,-283.7 256,-283.7"/>
</a>
</g>
</g>
<!-- R_APPROVED_PREMISES -->
<g id="node2" class="node">
<title>R_APPROVED_PREMISES</title>
<g id="a_node2"><a xlink:href="../../tables/R_APPROVED_PREMISES.html" xlink:title="R_APPROVED_PREMISES" target="_top">
<polygon fill="#ffffff" stroke="transparent" points="8,-274.2 8,-511.2 206,-511.2 206,-274.2 8,-274.2"/>
<polygon fill="#f5f5f5" stroke="transparent" points="8,-487.7 8,-510.7 206,-510.7 206,-487.7 8,-487.7"/>
<polygon fill="none" stroke="#000000" points="8,-487.7 8,-510.7 206,-510.7 206,-487.7 8,-487.7"/>
<text text-anchor="start" x="13" y="-496.8" font-family="Helvetica,sans-Serif" font-weight="bold" font-size="11.00" fill="#000000">R_APPROVED_PREMISES</text>
<text text-anchor="start" x="171.0437" y="-495.8" font-family="Helvetica,sans-Serif" font-size="11.00" fill="#000000">[table]</text>
<polygon fill="none" stroke="#000000" points="8,-465.7 8,-487.7 206,-487.7 206,-465.7 8,-465.7"/>
<image xlink:href="../../images/primaryKeys.png" width="11px" height="12px" preserveAspectRatio="xMinYMin meet" x="13" y="-482.7"/>
<text text-anchor="start" x="28" y="-472.8" font-family="Helvetica,sans-Serif" font-size="11.00" fill="#000000">APPROVED_PREMISES_ID</text>
<polygon fill="none" stroke="#000000" points="8,-443.7 8,-465.7 206,-465.7 206,-443.7 8,-443.7"/>
<image xlink:href="../../images/primaryKeys.png" width="11px" height="12px" preserveAspectRatio="xMinYMin meet" x="13" y="-460.7"/>
<text text-anchor="start" x="28" y="-450.8" font-family="Helvetica,sans-Serif" font-size="11.00" fill="#000000">ADDRESS_ID</text>
<polygon fill="none" stroke="#000000" points="8,-421.7 8,-443.7 206,-443.7 206,-421.7 8,-421.7"/>
<image xlink:href="../../images/primaryKeys.png" width="11px" height="12px" preserveAspectRatio="xMinYMin meet" x="13" y="-438.7"/>
<text text-anchor="start" x="28" y="-428.8" font-family="Helvetica,sans-Serif" font-size="11.00" fill="#000000">PARTITION_AREA_ID</text>
<polygon fill="none" stroke="#000000" points="8,-399.7 8,-421.7 206,-421.7 206,-399.7 8,-399.7"/>
<image xlink:href="../../images/primaryKeys.png" width="11px" height="12px" preserveAspectRatio="xMinYMin meet" x="13" y="-416.7"/>
<text text-anchor="start" x="28" y="-406.8" font-family="Helvetica,sans-Serif" font-size="11.00" fill="#000000">TRAINING_SESSION_ID</text>
<polygon fill="none" stroke="#000000" points="8,-377.7 8,-399.7 206,-399.7 206,-377.7 8,-377.7"/>
<image xlink:href="../../images/primaryKeys.png" width="11px" height="12px" preserveAspectRatio="xMinYMin meet" x="13" y="-394.7"/>
<text text-anchor="start" x="26.4863" y="-384.8" font-family="Helvetica,sans-Serif" font-size="11.00" fill="#000000">APPROVED_PREMISES_TYPE_ID</text>
<polygon fill="none" stroke="#000000" points="8,-355.7 8,-377.7 206,-377.7 206,-355.7 8,-355.7"/>
<image xlink:href="../../images/primaryKeys.png" width="11px" height="12px" preserveAspectRatio="xMinYMin meet" x="13" y="-372.7"/>
<text text-anchor="start" x="28" y="-362.8" font-family="Helvetica,sans-Serif" font-size="11.00" fill="#000000">NATIONAL_HOSTEL_CODE</text>
<polygon fill="none" stroke="#000000" points="8,-333.7 8,-355.7 206,-355.7 206,-333.7 8,-333.7"/>
<image xlink:href="../../images/primaryKeys.png" width="11px" height="12px" preserveAspectRatio="xMinYMin meet" x="13" y="-350.7"/>
<text text-anchor="start" x="28" y="-340.8" font-family="Helvetica,sans-Serif" font-size="11.00" fill="#000000">GENDER_SUITABILITY_ID</text>
<polygon fill="none" stroke="#000000" points="8,-311.7 8,-333.7 206,-333.7 206,-311.7 8,-311.7"/>
<image xlink:href="../../images/primaryKeys.png" width="11px" height="12px" preserveAspectRatio="xMinYMin meet" x="13" y="-328.7"/>
<text text-anchor="start" x="28" y="-318.8" font-family="Helvetica,sans-Serif" font-size="11.00" fill="#000000">PROBATION_AREA_ID</text>
<polygon fill="none" stroke="#000000" points="8,-292.7 8,-311.7 206,-311.7 206,-292.7 8,-292.7"/>
<text text-anchor="start" x="11" y="-298.8" font-family="Helvetica,sans-Serif" font-size="11.00" fill="#000000">...</text>
<polygon fill="#ffffff" stroke="transparent" points="8,-273.7 8,-292.7 79,-292.7 79,-273.7 8,-273.7"/>
<polygon fill="none" stroke="#000000" points="8,-273.7 8,-292.7 79,-292.7 79,-273.7 8,-273.7"/>
<text text-anchor="start" x="11" y="-279.8" font-family="Helvetica,sans-Serif" font-size="11.00" fill="#000000">&lt; 6</text>
<polygon fill="#ffffff" stroke="transparent" points="79,-273.7 79,-292.7 154,-292.7 154,-273.7 79,-273.7"/>
<polygon fill="none" stroke="#000000" points="79,-273.7 79,-292.7 154,-292.7 154,-273.7 79,-273.7"/>
<text text-anchor="start" x="106.3807" y="-279.8" font-family="Helvetica,sans-Serif" font-size="11.00" fill="#000000">159 rows</text>
<polygon fill="#ffffff" stroke="transparent" points="154,-273.7 154,-292.7 206,-292.7 206,-273.7 154,-273.7"/>
<polygon fill="none" stroke="#000000" points="154,-273.7 154,-292.7 206,-292.7 206,-273.7 154,-273.7"/>
<text text-anchor="start" x="181.2904" y="-279.8" font-family="Helvetica,sans-Serif" font-size="11.00" fill="#000000">12 &gt;</text>
</a>
</g>
</g>
<!-- R_APPROVED_PREMISES_TEAM&#45;&gt;R_APPROVED_PREMISES -->
<g id="edge1" class="edge">
<title>R_APPROVED_PREMISES_TEAM:w&#45;&gt;R_APPROVED_PREMISES:e</title>
<path fill="none" stroke="#000000" d="M242.6581,-362.3609C211.8728,-382.278 257.1074,-476.7 206,-476.7"/>
<polygon fill="#000000" stroke="#000000" points="249.2485,-360.6787 257.8904,-362.1882 253.1243,-359.6893 257,-358.7 257,-358.7 257,-358.7 253.1243,-359.6893 256.1096,-355.2118 249.2485,-360.6787 249.2485,-360.6787"/>
<ellipse fill="none" stroke="#000000" cx="246.148" cy="-361.4701" rx="3.2" ry="3.2"/>
</g>
<!-- TEAM -->
<g id="node3" class="node">
<title>TEAM</title>
<g id="a_node3"><a xlink:href="../../tables/TEAM.html" xlink:title="TEAM" target="_top">
<polygon fill="#ffffff" stroke="transparent" points="14.5,-38.2 14.5,-253.2 199.5,-253.2 199.5,-38.2 14.5,-38.2"/>
<polygon fill="#f5f5f5" stroke="transparent" points="15,-229.7 15,-252.7 200,-252.7 200,-229.7 15,-229.7"/>
<polygon fill="none" stroke="#000000" points="15,-229.7 15,-252.7 200,-252.7 200,-229.7 15,-229.7"/>
<text text-anchor="start" x="20" y="-238.8" font-family="Helvetica,sans-Serif" font-weight="bold" font-size="11.00" fill="#000000">TEAM</text>
<text text-anchor="start" x="165.0437" y="-237.8" font-family="Helvetica,sans-Serif" font-size="11.00" fill="#000000">[table]</text>
<polygon fill="none" stroke="#000000" points="15,-207.7 15,-229.7 200,-229.7 200,-207.7 15,-207.7"/>
<image xlink:href="../../images/primaryKeys.png" width="11px" height="12px" preserveAspectRatio="xMinYMin meet" x="20" y="-224.7"/>
<text text-anchor="start" x="35" y="-214.8" font-family="Helvetica,sans-Serif" font-size="11.00" fill="#000000">TEAM_ID</text>
<polygon fill="none" stroke="#000000" points="15,-185.7 15,-207.7 200,-207.7 200,-185.7 15,-185.7"/>
<image xlink:href="../../images/primaryKeys.png" width="11px" height="12px" preserveAspectRatio="xMinYMin meet" x="20" y="-202.7"/>
<text text-anchor="start" x="35" y="-192.8" font-family="Helvetica,sans-Serif" font-size="11.00" fill="#000000">CODE</text>
<polygon fill="none" stroke="#000000" points="15,-163.7 15,-185.7 200,-185.7 200,-163.7 15,-163.7"/>
<image xlink:href="../../images/primaryKeys.png" width="11px" height="12px" preserveAspectRatio="xMinYMin meet" x="20" y="-180.7"/>
<text text-anchor="start" x="35" y="-170.8" font-family="Helvetica,sans-Serif" font-size="11.00" fill="#000000">DISTRICT_ID</text>
<polygon fill="none" stroke="#000000" points="15,-141.7 15,-163.7 200,-163.7 200,-141.7 15,-141.7"/>
<image xlink:href="../../images/primaryKeys.png" width="11px" height="12px" preserveAspectRatio="xMinYMin meet" x="20" y="-158.7"/>
<text text-anchor="start" x="35" y="-148.8" font-family="Helvetica,sans-Serif" font-size="11.00" fill="#000000">LOCAL_DELIVERY_UNIT_ID</text>
<polygon fill="none" stroke="#000000" points="15,-119.7 15,-141.7 200,-141.7 200,-119.7 15,-119.7"/>
<image xlink:href="../../images/primaryKeys.png" width="11px" height="12px" preserveAspectRatio="xMinYMin meet" x="20" y="-136.7"/>
<text text-anchor="start" x="35" y="-126.8" font-family="Helvetica,sans-Serif" font-size="11.00" fill="#000000">TRAINING_SESSION_ID</text>
<polygon fill="none" stroke="#000000" points="15,-97.7 15,-119.7 200,-119.7 200,-97.7 15,-97.7"/>
<image xlink:href="../../images/primaryKeys.png" width="11px" height="12px" preserveAspectRatio="xMinYMin meet" x="20" y="-114.7"/>
<text text-anchor="start" x="35" y="-104.8" font-family="Helvetica,sans-Serif" font-size="11.00" fill="#000000">PROBATION_AREA_ID</text>
<polygon fill="none" stroke="#000000" points="15,-75.7 15,-97.7 200,-97.7 200,-75.7 15,-75.7"/>
<image xlink:href="../../images/primaryKeys.png" width="11px" height="12px" preserveAspectRatio="xMinYMin meet" x="20" y="-92.7"/>
<text text-anchor="start" x="35" y="-82.8" font-family="Helvetica,sans-Serif" font-size="11.00" fill="#000000">SC_PROVIDER_ID</text>
<polygon fill="none" stroke="#000000" points="15,-56.7 15,-75.7 200,-75.7 200,-56.7 15,-56.7"/>
<text text-anchor="start" x="18" y="-62.8" font-family="Helvetica,sans-Serif" font-size="11.00" fill="#000000">...</text>
<polygon fill="#ffffff" stroke="transparent" points="15,-37.7 15,-56.7 75,-56.7 75,-37.7 15,-37.7"/>
<polygon fill="none" stroke="#000000" points="15,-37.7 15,-56.7 75,-56.7 75,-37.7 15,-37.7"/>
<text text-anchor="start" x="18" y="-43.8" font-family="Helvetica,sans-Serif" font-size="11.00" fill="#000000">&lt; 4</text>
<polygon fill="#ffffff" stroke="transparent" points="75,-37.7 75,-56.7 153,-56.7 153,-37.7 75,-37.7"/>
<polygon fill="none" stroke="#000000" points="75,-37.7 75,-56.7 153,-56.7 153,-37.7 75,-37.7"/>
<text text-anchor="start" x="96.2089" y="-43.8" font-family="Helvetica,sans-Serif" font-size="11.00" fill="#000000">1,458 rows</text>
<polygon fill="#ffffff" stroke="transparent" points="153,-37.7 153,-56.7 200,-56.7 200,-37.7 153,-37.7"/>
<polygon fill="none" stroke="#000000" points="153,-37.7 153,-56.7 200,-56.7 200,-37.7 153,-37.7"/>
<text text-anchor="start" x="175.2904" y="-43.8" font-family="Helvetica,sans-Serif" font-size="11.00" fill="#000000">62 &gt;</text>
</a>
</g>
</g>
<!-- R_APPROVED_PREMISES_TEAM&#45;&gt;TEAM -->
<g id="edge2" class="edge">
<title>R_APPROVED_PREMISES_TEAM:w&#45;&gt;TEAM:e</title>
<path fill="none" stroke="#000000" d="M242.6506,-333.2957C209.626,-313.9484 252.3273,-218.7 200,-218.7"/>
<polygon fill="#000000" stroke="#000000" points="249.2161,-334.8533 256.169,-340.2028 253.108,-335.7766 257,-336.7 257,-336.7 257,-336.7 253.108,-335.7766 257.831,-333.1972 249.2161,-334.8533 249.2161,-334.8533"/>
<ellipse fill="none" stroke="#000000" cx="246.1025" cy="-334.1146" rx="3.2" ry="3.2"/>
</g>
</g>
</svg>
