<?xml version="1.0" encoding="UTF-8" standalone="no"?>
<!DOCTYPE svg PUBLIC "-//W3C//DTD SVG 1.1//EN"
 "http://www.w3.org/Graphics/SVG/1.1/DTD/svg11.dtd">
<!-- Generated by graphviz version 2.40.1 (20161225.0304)
 -->
<!-- Title: oneDegreeRelationshipsDiagram Pages: 1 -->
<svg width="530pt" height="369pt"
 viewBox="0.00 0.00 530.00 369.20" xmlns="http://www.w3.org/2000/svg" xmlns:xlink="http://www.w3.org/1999/xlink">
<g id="graph0" class="graph" transform="scale(1 1) rotate(0) translate(4 365.2)">
<title>oneDegreeRelationshipsDiagram</title>
<polygon fill="#ffffff" stroke="transparent" points="-4,4 -4,-365.2 526,-365.2 526,4 -4,4"/>
<text text-anchor="middle" x="72.4936" y="-7.3" font-family="Helvetica,sans-Serif" font-size="11.00" fill="#000000">Generated by SchemaSpy</text>
<!-- R_ASSMNT_TYPE_REFERRAL_TYPE -->
<g id="node1" class="node">
<title>R_ASSMNT_TYPE_REFERRAL_TYPE</title>
<g id="a_node1"><a xlink:href="../../tables/R_ASSMNT_TYPE_REFERRAL_TYPE.html" xlink:title="R_ASSMNT_TYPE_REFERRAL_TYPE" target="_top">
<polygon fill="#ffffff" stroke="transparent" points="245,-150.7 245,-284.7 514,-284.7 514,-150.7 245,-150.7"/>
<polygon fill="#f5f5f5" stroke="transparent" points="247.5,-259.7 247.5,-282.7 512.5,-282.7 512.5,-259.7 247.5,-259.7"/>
<polygon fill="none" stroke="#000000" points="247.5,-259.7 247.5,-282.7 512.5,-282.7 512.5,-259.7 247.5,-259.7"/>
<text text-anchor="start" x="252.5" y="-268.8" font-family="Helvetica,sans-Serif" font-weight="bold" font-size="11.00" fill="#000000">R_ASSMNT_TYPE_REFERRAL_TYPE</text>
<text text-anchor="start" x="477.5437" y="-267.8" font-family="Helvetica,sans-Serif" font-size="11.00" fill="#000000">[table]</text>
<polygon fill="none" stroke="#000000" points="247.5,-237.7 247.5,-259.7 451.5,-259.7 451.5,-237.7 247.5,-237.7"/>
<image xlink:href="../../images/primaryKeys.png" width="11px" height="12px" preserveAspectRatio="xMinYMin meet" x="252.5" y="-254.7"/>
<text text-anchor="start" x="267.5" y="-244.8" font-family="Helvetica,sans-Serif" font-size="11.00" fill="#000000">ASSESSMENT_TYPE_ID</text>
<polygon fill="none" stroke="#000000" points="451.5,-237.7 451.5,-259.7 512.5,-259.7 512.5,-237.7 451.5,-237.7"/>
<text text-anchor="start" x="454.1865" y="-245.4" font-family="Helvetica,sans-Serif" font-size="11.00" fill="#000000">number[38]</text>
<polygon fill="none" stroke="#000000" points="247.5,-215.7 247.5,-237.7 451.5,-237.7 451.5,-215.7 247.5,-215.7"/>
<image xlink:href="../../images/primaryKeys.png" width="11px" height="12px" preserveAspectRatio="xMinYMin meet" x="252.5" y="-232.7"/>
<text text-anchor="start" x="267.5" y="-222.8" font-family="Helvetica,sans-Serif" font-size="11.00" fill="#000000">REFERRAL_TYPE_ID</text>
<polygon fill="none" stroke="#000000" points="451.5,-215.7 451.5,-237.7 512.5,-237.7 512.5,-215.7 451.5,-215.7"/>
<text text-anchor="start" x="454.1865" y="-223.4" font-family="Helvetica,sans-Serif" font-size="11.00" fill="#000000">number[38]</text>
<polygon fill="none" stroke="#000000" points="247.5,-193.7 247.5,-215.7 451.5,-215.7 451.5,-193.7 247.5,-193.7"/>
<text text-anchor="start" x="267.5" y="-200.8" font-family="Helvetica,sans-Serif" font-size="11.00" fill="#000000">ROW_VERSION</text>
<polygon fill="none" stroke="#000000" points="451.5,-193.7 451.5,-215.7 512.5,-215.7 512.5,-193.7 451.5,-193.7"/>
<text text-anchor="start" x="454.1865" y="-201.4" font-family="Helvetica,sans-Serif" font-size="11.00" fill="#000000">number[38]</text>
<polygon fill="none" stroke="#000000" points="247.5,-171.7 247.5,-193.7 451.5,-193.7 451.5,-171.7 247.5,-171.7"/>
<image xlink:href="../../images/primaryKeys.png" width="11px" height="12px" preserveAspectRatio="xMinYMin meet" x="252.5" y="-188.7"/>
<text text-anchor="start" x="267.5" y="-178.8" font-family="Helvetica,sans-Serif" font-size="11.00" fill="#000000">TRAINING_SESSION_ID</text>
<polygon fill="none" stroke="#000000" points="451.5,-171.7 451.5,-193.7 512.5,-193.7 512.5,-171.7 451.5,-171.7"/>
<text text-anchor="start" x="454.1865" y="-179.4" font-family="Helvetica,sans-Serif" font-size="11.00" fill="#000000">number[38]</text>
<polygon fill="#ffffff" stroke="transparent" points="247.5,-152.7 247.5,-171.7 337.5,-171.7 337.5,-152.7 247.5,-152.7"/>
<polygon fill="none" stroke="#000000" points="247.5,-152.7 247.5,-171.7 337.5,-171.7 337.5,-152.7 247.5,-152.7"/>
<text text-anchor="start" x="250.5" y="-158.8" font-family="Helvetica,sans-Serif" font-size="11.00" fill="#000000">&lt; 2</text>
<polygon fill="#ffffff" stroke="transparent" points="337.5,-152.7 337.5,-171.7 451.5,-171.7 451.5,-152.7 337.5,-152.7"/>
<polygon fill="none" stroke="#000000" points="337.5,-152.7 337.5,-171.7 451.5,-171.7 451.5,-152.7 337.5,-152.7"/>
<text text-anchor="start" x="409.9956" y="-158.8" font-family="Helvetica,sans-Serif" font-size="11.00" fill="#000000">38 rows</text>
<polygon fill="#ffffff" stroke="transparent" points="451.5,-152.7 451.5,-171.7 512.5,-171.7 512.5,-152.7 451.5,-152.7"/>
<polygon fill="none" stroke="#000000" points="451.5,-152.7 451.5,-171.7 512.5,-171.7 512.5,-152.7 451.5,-152.7"/>
<text text-anchor="start" x="493.9053" y="-158.8" font-family="Helvetica,sans-Serif" font-size="11.00" fill="#000000">0 &gt;</text>
<polygon fill="none" stroke="#000000" stroke-width="2" points="246,-151.7 246,-283.7 513,-283.7 513,-151.7 246,-151.7"/>
</a>
</g>
</g>
<!-- R_ASSESSMENT_TYPE -->
<g id="node2" class="node">
<title>R_ASSESSMENT_TYPE</title>
<g id="a_node2"><a xlink:href="../../tables/R_ASSESSMENT_TYPE.html" xlink:title="R_ASSESSMENT_TYPE" target="_top">
<polygon fill="#ffffff" stroke="transparent" points="8,-208.2 8,-357.2 196,-357.2 196,-208.2 8,-208.2"/>
<polygon fill="#f5f5f5" stroke="transparent" points="8,-333.7 8,-356.7 196,-356.7 196,-333.7 8,-333.7"/>
<polygon fill="none" stroke="#000000" points="8,-333.7 8,-356.7 196,-356.7 196,-333.7 8,-333.7"/>
<text text-anchor="start" x="13" y="-342.8" font-family="Helvetica,sans-Serif" font-weight="bold" font-size="11.00" fill="#000000">R_ASSESSMENT_TYPE</text>
<text text-anchor="start" x="161.0437" y="-341.8" font-family="Helvetica,sans-Serif" font-size="11.00" fill="#000000">[table]</text>
<polygon fill="none" stroke="#000000" points="8,-311.7 8,-333.7 196,-333.7 196,-311.7 8,-311.7"/>
<image xlink:href="../../images/primaryKeys.png" width="11px" height="12px" preserveAspectRatio="xMinYMin meet" x="13" y="-328.7"/>
<text text-anchor="start" x="28" y="-318.8" font-family="Helvetica,sans-Serif" font-size="11.00" fill="#000000">ASSESSMENT_TYPE_ID</text>
<polygon fill="none" stroke="#000000" points="8,-289.7 8,-311.7 196,-311.7 196,-289.7 8,-289.7"/>
<image xlink:href="../../images/primaryKeys.png" width="11px" height="12px" preserveAspectRatio="xMinYMin meet" x="13" y="-306.7"/>
<text text-anchor="start" x="28" y="-296.8" font-family="Helvetica,sans-Serif" font-size="11.00" fill="#000000">TRAINING_SESSION_ID</text>
<polygon fill="none" stroke="#000000" points="8,-267.7 8,-289.7 196,-289.7 196,-267.7 8,-267.7"/>
<image xlink:href="../../images/primaryKeys.png" width="11px" height="12px" preserveAspectRatio="xMinYMin meet" x="13" y="-284.7"/>
<text text-anchor="start" x="28" y="-274.8" font-family="Helvetica,sans-Serif" font-size="11.00" fill="#000000">CODE</text>
<polygon fill="none" stroke="#000000" points="8,-245.7 8,-267.7 196,-267.7 196,-245.7 8,-245.7"/>
<image xlink:href="../../images/primaryKeys.png" width="11px" height="12px" preserveAspectRatio="xMinYMin meet" x="13" y="-262.7"/>
<text text-anchor="start" x="28" y="-252.8" font-family="Helvetica,sans-Serif" font-size="11.00" fill="#000000">CONTACT_TYPE_ID</text>
<polygon fill="none" stroke="#000000" points="8,-226.7 8,-245.7 196,-245.7 196,-226.7 8,-226.7"/>
<text text-anchor="start" x="11" y="-232.8" font-family="Helvetica,sans-Serif" font-size="11.00" fill="#000000">...</text>
<polygon fill="#ffffff" stroke="transparent" points="8,-207.7 8,-226.7 80,-226.7 80,-207.7 8,-207.7"/>
<polygon fill="none" stroke="#000000" points="8,-207.7 8,-226.7 80,-226.7 80,-207.7 8,-207.7"/>
<text text-anchor="start" x="11" y="-213.8" font-family="Helvetica,sans-Serif" font-size="11.00" fill="#000000">&lt; 1</text>
<polygon fill="#ffffff" stroke="transparent" points="80,-207.7 80,-226.7 149,-226.7 149,-207.7 80,-207.7"/>
<polygon fill="none" stroke="#000000" points="80,-207.7 80,-226.7 149,-226.7 149,-207.7 80,-207.7"/>
<text text-anchor="start" x="107.4956" y="-213.8" font-family="Helvetica,sans-Serif" font-size="11.00" fill="#000000">80 rows</text>
<polygon fill="#ffffff" stroke="transparent" points="149,-207.7 149,-226.7 196,-226.7 196,-207.7 149,-207.7"/>
<polygon fill="none" stroke="#000000" points="149,-207.7 149,-226.7 196,-226.7 196,-207.7 149,-207.7"/>
<text text-anchor="start" x="177.4053" y="-213.8" font-family="Helvetica,sans-Serif" font-size="11.00" fill="#000000">3 &gt;</text>
</a>
</g>
</g>
<!-- R_ASSMNT_TYPE_REFERRAL_TYPE&#45;&gt;R_ASSESSMENT_TYPE -->
<g id="edge1" class="edge">
<title>R_ASSMNT_TYPE_REFERRAL_TYPE:w&#45;&gt;R_ASSESSMENT_TYPE:e</title>
<path fill="none" stroke="#000000" d="M233.7488,-253.1074C214.4187,-269.0383 230.1218,-322.7 196,-322.7"/>
<polygon fill="#000000" stroke="#000000" points="239.8817,-251.1418 248.5988,-252.1282 243.6909,-249.9209 247.5,-248.7 247.5,-248.7 247.5,-248.7 243.6909,-249.9209 246.4012,-245.2718 239.8817,-251.1418 239.8817,-251.1418"/>
<ellipse fill="none" stroke="#000000" cx="236.8344" cy="-252.1185" rx="3.2" ry="3.2"/>
</g>
<!-- R_REFERRAL_TYPE -->
<g id="node3" class="node">
<title>R_REFERRAL_TYPE</title>
<g id="a_node3"><a xlink:href="../../tables/R_REFERRAL_TYPE.html" xlink:title="R_REFERRAL_TYPE" target="_top">
<polygon fill="#ffffff" stroke="transparent" points="21.5,-38.2 21.5,-187.2 182.5,-187.2 182.5,-38.2 21.5,-38.2"/>
<polygon fill="#f5f5f5" stroke="transparent" points="22,-163.7 22,-186.7 183,-186.7 183,-163.7 22,-163.7"/>
<polygon fill="none" stroke="#000000" points="22,-163.7 22,-186.7 183,-186.7 183,-163.7 22,-163.7"/>
<text text-anchor="start" x="27" y="-172.8" font-family="Helvetica,sans-Serif" font-weight="bold" font-size="11.00" fill="#000000">R_REFERRAL_TYPE</text>
<text text-anchor="start" x="148.0437" y="-171.8" font-family="Helvetica,sans-Serif" font-size="11.00" fill="#000000">[table]</text>
<polygon fill="none" stroke="#000000" points="22,-141.7 22,-163.7 183,-163.7 183,-141.7 22,-141.7"/>
<image xlink:href="../../images/primaryKeys.png" width="11px" height="12px" preserveAspectRatio="xMinYMin meet" x="27" y="-158.7"/>
<text text-anchor="start" x="42" y="-148.8" font-family="Helvetica,sans-Serif" font-size="11.00" fill="#000000">REFERRAL_TYPE_ID</text>
<polygon fill="none" stroke="#000000" points="22,-119.7 22,-141.7 183,-141.7 183,-119.7 22,-119.7"/>
<image xlink:href="../../images/primaryKeys.png" width="11px" height="12px" preserveAspectRatio="xMinYMin meet" x="27" y="-136.7"/>
<text text-anchor="start" x="42" y="-126.8" font-family="Helvetica,sans-Serif" font-size="11.00" fill="#000000">CODE</text>
<polygon fill="none" stroke="#000000" points="22,-97.7 22,-119.7 183,-119.7 183,-97.7 22,-97.7"/>
<image xlink:href="../../images/primaryKeys.png" width="11px" height="12px" preserveAspectRatio="xMinYMin meet" x="27" y="-114.7"/>
<text text-anchor="start" x="42" y="-104.8" font-family="Helvetica,sans-Serif" font-size="11.00" fill="#000000">TRAINING_SESSION_ID</text>
<polygon fill="none" stroke="#000000" points="22,-75.7 22,-97.7 183,-97.7 183,-75.7 22,-75.7"/>
<image xlink:href="../../images/primaryKeys.png" width="11px" height="12px" preserveAspectRatio="xMinYMin meet" x="27" y="-92.7"/>
<text text-anchor="start" x="42" y="-82.8" font-family="Helvetica,sans-Serif" font-size="11.00" fill="#000000">CONTACT_TYPE_ID</text>
<polygon fill="none" stroke="#000000" points="22,-56.7 22,-75.7 183,-75.7 183,-56.7 22,-56.7"/>
<text text-anchor="start" x="25" y="-62.8" font-family="Helvetica,sans-Serif" font-size="11.00" fill="#000000">...</text>
<polygon fill="#ffffff" stroke="transparent" points="22,-37.7 22,-56.7 80,-56.7 80,-37.7 22,-37.7"/>
<polygon fill="none" stroke="#000000" points="22,-37.7 22,-56.7 80,-56.7 80,-37.7 22,-37.7"/>
<text text-anchor="start" x="25" y="-43.8" font-family="Helvetica,sans-Serif" font-size="11.00" fill="#000000">&lt; 1</text>
<polygon fill="#ffffff" stroke="transparent" points="80,-37.7 80,-56.7 143,-56.7 143,-37.7 80,-37.7"/>
<polygon fill="none" stroke="#000000" points="80,-37.7 80,-56.7 143,-56.7 143,-37.7 80,-37.7"/>
<text text-anchor="start" x="101.4956" y="-43.8" font-family="Helvetica,sans-Serif" font-size="11.00" fill="#000000">85 rows</text>
<polygon fill="#ffffff" stroke="transparent" points="143,-37.7 143,-56.7 183,-56.7 183,-37.7 143,-37.7"/>
<polygon fill="none" stroke="#000000" points="143,-37.7 143,-56.7 183,-56.7 183,-37.7 143,-37.7"/>
<text text-anchor="start" x="164.4053" y="-43.8" font-family="Helvetica,sans-Serif" font-size="11.00" fill="#000000">3 &gt;</text>
</a>
</g>
</g>
<!-- R_ASSMNT_TYPE_REFERRAL_TYPE&#45;&gt;R_REFERRAL_TYPE -->
<g id="edge2" class="edge">
<title>R_ASSMNT_TYPE_REFERRAL_TYPE:w&#45;&gt;R_REFERRAL_TYPE:e</title>
<path fill="none" stroke="#000000" d="M233.3186,-223.1308C208.7453,-208.349 220.8342,-152.7 183,-152.7"/>
<polygon fill="#000000" stroke="#000000" points="239.7419,-224.7474 246.6213,-230.1911 243.621,-225.7237 247.5,-226.7 247.5,-226.7 247.5,-226.7 243.621,-225.7237 248.3787,-223.2089 239.7419,-224.7474 239.7419,-224.7474"/>
<ellipse fill="none" stroke="#000000" cx="236.6387" cy="-223.9664" rx="3.2" ry="3.2"/>
</g>
</g>
</svg>
