<?xml version="1.0" encoding="UTF-8" standalone="no"?>
<!DOCTYPE svg PUBLIC "-//W3C//DTD SVG 1.1//EN"
 "http://www.w3.org/Graphics/SVG/1.1/DTD/svg11.dtd">
<!-- Generated by graphviz version 2.40.1 (20161225.0304)
 -->
<!-- Title: twoDegreesRelationshipsDiagram Pages: 1 -->
<svg width="891pt" height="489pt"
 viewBox="0.00 0.00 891.00 488.78" xmlns="http://www.w3.org/2000/svg" xmlns:xlink="http://www.w3.org/1999/xlink">
<g id="graph0" class="graph" transform="scale(1 1) rotate(0) translate(4 484.7771)">
<title>twoDegreesRelationshipsDiagram</title>
<polygon fill="#ffffff" stroke="transparent" points="-4,4 -4,-484.7771 887,-484.7771 887,4 -4,4"/>
<text text-anchor="middle" x="72.4936" y="-7.3" font-family="Helvetica,sans-Serif" font-size="11.00" fill="#000000">Generated by SchemaSpy</text>
<!-- ASSESSMENT -->
<g id="node1" class="node">
<title>ASSESSMENT</title>
<g id="a_node1"><a xlink:href="../../tables/ASSESSMENT.html" xlink:title="ASSESSMENT" target="_top">
<polygon fill="#ffffff" stroke="transparent" points="757,-268.2 757,-329.2 875,-329.2 875,-268.2 757,-268.2"/>
<polygon fill="#f5f5f5" stroke="transparent" points="757,-305.7 757,-328.7 875,-328.7 875,-305.7 757,-305.7"/>
<polygon fill="none" stroke="#000000" points="757,-305.7 757,-328.7 875,-328.7 875,-305.7 757,-305.7"/>
<text text-anchor="start" x="761.913" y="-314.8" font-family="Helvetica,sans-Serif" font-weight="bold" font-size="11.00" fill="#000000">ASSESSMENT</text>
<text text-anchor="start" x="840.5219" y="-313.8" font-family="Helvetica,sans-Serif" font-size="11.00" fill="#000000">[table]</text>
<polygon fill="none" stroke="#000000" points="757,-286.7 757,-305.7 875,-305.7 875,-286.7 757,-286.7"/>
<text text-anchor="start" x="760" y="-292.8" font-family="Helvetica,sans-Serif" font-size="11.00" fill="#000000">...</text>
<polygon fill="#ffffff" stroke="transparent" points="757,-267.7 757,-286.7 798,-286.7 798,-267.7 757,-267.7"/>
<polygon fill="none" stroke="#000000" points="757,-267.7 757,-286.7 798,-286.7 798,-267.7 757,-267.7"/>
<text text-anchor="start" x="760" y="-273.8" font-family="Helvetica,sans-Serif" font-size="11.00" fill="#000000">&lt; 13</text>
<polygon fill="#ffffff" stroke="transparent" points="798,-267.7 798,-286.7 855,-286.7 855,-267.7 798,-267.7"/>
<polygon fill="none" stroke="#000000" points="798,-267.7 798,-286.7 855,-286.7 855,-267.7 798,-267.7"/>
<text text-anchor="start" x="807.3807" y="-273.8" font-family="Helvetica,sans-Serif" font-size="11.00" fill="#000000">284 rows</text>
<polygon fill="#ffffff" stroke="transparent" points="855,-267.7 855,-286.7 875,-286.7 875,-267.7 855,-267.7"/>
<polygon fill="none" stroke="#000000" points="855,-267.7 855,-286.7 875,-286.7 875,-267.7 855,-267.7"/>
<text text-anchor="start" x="865.8862" y="-273.8" font-family="Helvetica,sans-Serif" font-size="11.00" fill="#000000"> &#160;</text>
</a>
</g>
</g>
<!-- R_ASSESSMENT_TYPE -->
<g id="node2" class="node">
<title>R_ASSESSMENT_TYPE</title>
<g id="a_node2"><a xlink:href="../../tables/R_ASSESSMENT_TYPE.html" xlink:title="R_ASSESSMENT_TYPE" target="_top">
<polygon fill="#ffffff" stroke="transparent" points="202,-254.2 202,-403.2 390,-403.2 390,-254.2 202,-254.2"/>
<polygon fill="#f5f5f5" stroke="transparent" points="202,-379.7 202,-402.7 390,-402.7 390,-379.7 202,-379.7"/>
<polygon fill="none" stroke="#000000" points="202,-379.7 202,-402.7 390,-402.7 390,-379.7 202,-379.7"/>
<text text-anchor="start" x="207" y="-388.8" font-family="Helvetica,sans-Serif" font-weight="bold" font-size="11.00" fill="#000000">R_ASSESSMENT_TYPE</text>
<text text-anchor="start" x="355.0437" y="-387.8" font-family="Helvetica,sans-Serif" font-size="11.00" fill="#000000">[table]</text>
<polygon fill="none" stroke="#000000" points="202,-357.7 202,-379.7 390,-379.7 390,-357.7 202,-357.7"/>
<image xlink:href="../../images/primaryKeys.png" width="11px" height="12px" preserveAspectRatio="xMinYMin meet" x="207" y="-374.7"/>
<text text-anchor="start" x="222" y="-364.8" font-family="Helvetica,sans-Serif" font-size="11.00" fill="#000000">ASSESSMENT_TYPE_ID</text>
<polygon fill="none" stroke="#000000" points="202,-335.7 202,-357.7 390,-357.7 390,-335.7 202,-335.7"/>
<image xlink:href="../../images/primaryKeys.png" width="11px" height="12px" preserveAspectRatio="xMinYMin meet" x="207" y="-352.7"/>
<text text-anchor="start" x="222" y="-342.8" font-family="Helvetica,sans-Serif" font-size="11.00" fill="#000000">TRAINING_SESSION_ID</text>
<polygon fill="none" stroke="#000000" points="202,-313.7 202,-335.7 390,-335.7 390,-313.7 202,-313.7"/>
<image xlink:href="../../images/primaryKeys.png" width="11px" height="12px" preserveAspectRatio="xMinYMin meet" x="207" y="-330.7"/>
<text text-anchor="start" x="222" y="-320.8" font-family="Helvetica,sans-Serif" font-size="11.00" fill="#000000">CODE</text>
<polygon fill="none" stroke="#000000" points="202,-291.7 202,-313.7 390,-313.7 390,-291.7 202,-291.7"/>
<image xlink:href="../../images/primaryKeys.png" width="11px" height="12px" preserveAspectRatio="xMinYMin meet" x="207" y="-308.7"/>
<text text-anchor="start" x="222" y="-298.8" font-family="Helvetica,sans-Serif" font-size="11.00" fill="#000000">CONTACT_TYPE_ID</text>
<polygon fill="none" stroke="#000000" points="202,-272.7 202,-291.7 390,-291.7 390,-272.7 202,-272.7"/>
<text text-anchor="start" x="205" y="-278.8" font-family="Helvetica,sans-Serif" font-size="11.00" fill="#000000">...</text>
<polygon fill="#ffffff" stroke="transparent" points="202,-253.7 202,-272.7 274,-272.7 274,-253.7 202,-253.7"/>
<polygon fill="none" stroke="#000000" points="202,-253.7 202,-272.7 274,-272.7 274,-253.7 202,-253.7"/>
<text text-anchor="start" x="205" y="-259.8" font-family="Helvetica,sans-Serif" font-size="11.00" fill="#000000">&lt; 1</text>
<polygon fill="#ffffff" stroke="transparent" points="274,-253.7 274,-272.7 343,-272.7 343,-253.7 274,-253.7"/>
<polygon fill="none" stroke="#000000" points="274,-253.7 274,-272.7 343,-272.7 343,-253.7 274,-253.7"/>
<text text-anchor="start" x="301.4956" y="-259.8" font-family="Helvetica,sans-Serif" font-size="11.00" fill="#000000">80 rows</text>
<polygon fill="#ffffff" stroke="transparent" points="343,-253.7 343,-272.7 390,-272.7 390,-253.7 343,-253.7"/>
<polygon fill="none" stroke="#000000" points="343,-253.7 343,-272.7 390,-272.7 390,-253.7 343,-253.7"/>
<text text-anchor="start" x="371.4053" y="-259.8" font-family="Helvetica,sans-Serif" font-size="11.00" fill="#000000">3 &gt;</text>
</a>
</g>
</g>
<!-- ASSESSMENT&#45;&gt;R_ASSESSMENT_TYPE -->
<g id="edge1" class="edge">
<title>ASSESSMENT:w&#45;&gt;R_ASSESSMENT_TYPE:e</title>
<path fill="none" stroke="#000000" d="M742.7968,-298.1273C707.03,-313.3533 761.375,-396.1319 716,-429.7 614.1699,-505.0331 542.7914,-489.2579 431,-429.7 402.1703,-414.3407 422.6659,-368.7 390,-368.7"/>
<polygon fill="#000000" stroke="#000000" points="749.1143,-297.0477 757.6065,-299.2486 753.0572,-296.3738 757,-295.7 757,-295.7 757,-295.7 753.0572,-296.3738 756.3935,-292.1514 749.1143,-297.0477 749.1143,-297.0477"/>
<ellipse fill="none" stroke="#000000" cx="745.9601" cy="-297.5868" rx="3.2" ry="3.2"/>
</g>
<!-- REFERRAL -->
<g id="node3" class="node">
<title>REFERRAL</title>
<g id="a_node3"><a xlink:href="../../tables/REFERRAL.html" xlink:title="REFERRAL" target="_top">
<polygon fill="#ffffff" stroke="transparent" points="523,-120.2 523,-181.2 624,-181.2 624,-120.2 523,-120.2"/>
<polygon fill="#f5f5f5" stroke="transparent" points="523.5,-157.7 523.5,-180.7 624.5,-180.7 624.5,-157.7 523.5,-157.7"/>
<polygon fill="none" stroke="#000000" points="523.5,-157.7 523.5,-180.7 624.5,-180.7 624.5,-157.7 523.5,-157.7"/>
<text text-anchor="start" x="528.1674" y="-166.8" font-family="Helvetica,sans-Serif" font-weight="bold" font-size="11.00" fill="#000000">REFERRAL</text>
<text text-anchor="start" x="590.0219" y="-165.8" font-family="Helvetica,sans-Serif" font-size="11.00" fill="#000000">[table]</text>
<polygon fill="none" stroke="#000000" points="523.5,-138.7 523.5,-157.7 624.5,-157.7 624.5,-138.7 523.5,-138.7"/>
<text text-anchor="start" x="526.5" y="-144.8" font-family="Helvetica,sans-Serif" font-size="11.00" fill="#000000">...</text>
<polygon fill="#ffffff" stroke="transparent" points="523.5,-119.7 523.5,-138.7 551.5,-138.7 551.5,-119.7 523.5,-119.7"/>
<polygon fill="none" stroke="#000000" points="523.5,-119.7 523.5,-138.7 551.5,-138.7 551.5,-119.7 523.5,-119.7"/>
<text text-anchor="start" x="526.5" y="-125.8" font-family="Helvetica,sans-Serif" font-size="11.00" fill="#000000">&lt; 13</text>
<polygon fill="#ffffff" stroke="transparent" points="551.5,-119.7 551.5,-138.7 602.5,-138.7 602.5,-119.7 551.5,-119.7"/>
<polygon fill="none" stroke="#000000" points="551.5,-119.7 551.5,-138.7 602.5,-138.7 602.5,-119.7 551.5,-119.7"/>
<text text-anchor="start" x="554.8807" y="-125.8" font-family="Helvetica,sans-Serif" font-size="11.00" fill="#000000">888 rows</text>
<polygon fill="#ffffff" stroke="transparent" points="602.5,-119.7 602.5,-138.7 624.5,-138.7 624.5,-119.7 602.5,-119.7"/>
<polygon fill="none" stroke="#000000" points="602.5,-119.7 602.5,-138.7 624.5,-138.7 624.5,-119.7 602.5,-119.7"/>
<text text-anchor="start" x="605.9053" y="-125.8" font-family="Helvetica,sans-Serif" font-size="11.00" fill="#000000">1 &gt;</text>
</a>
</g>
</g>
<!-- ASSESSMENT&#45;&gt;REFERRAL -->
<g id="edge2" class="edge">
<title>ASSESSMENT:w&#45;&gt;REFERRAL:e</title>
<path fill="none" stroke="#000000" d="M742.8085,-292.9334C716.731,-279.9655 745.4001,-224.4952 716,-192.7 685.2327,-159.4262 669.8186,-147.7 624.5,-147.7"/>
<polygon fill="#000000" stroke="#000000" points="749.1478,-294.1692 756.3111,-299.2335 753.0739,-294.9346 757,-295.7 757,-295.7 757,-295.7 753.0739,-294.9346 757.6889,-292.1665 749.1478,-294.1692 749.1478,-294.1692"/>
<ellipse fill="none" stroke="#000000" cx="746.0069" cy="-293.5569" rx="3.2" ry="3.2"/>
</g>
<!-- R_CONTACT_TYPE -->
<g id="node4" class="node">
<title>R_CONTACT_TYPE</title>
<g id="a_node4"><a xlink:href="../../tables/R_CONTACT_TYPE.html" xlink:title="R_CONTACT_TYPE" target="_top">
<polygon fill="#ffffff" stroke="transparent" points="8,-173.2 8,-234.2 153,-234.2 153,-173.2 8,-173.2"/>
<polygon fill="#f5f5f5" stroke="transparent" points="8.5,-210.7 8.5,-233.7 153.5,-233.7 153.5,-210.7 8.5,-210.7"/>
<polygon fill="none" stroke="#000000" points="8.5,-210.7 8.5,-233.7 153.5,-233.7 153.5,-210.7 8.5,-210.7"/>
<text text-anchor="start" x="13.4732" y="-219.8" font-family="Helvetica,sans-Serif" font-weight="bold" font-size="11.00" fill="#000000">R_CONTACT_TYPE</text>
<text text-anchor="start" x="119.0219" y="-218.8" font-family="Helvetica,sans-Serif" font-size="11.00" fill="#000000">[table]</text>
<polygon fill="none" stroke="#000000" points="8.5,-191.7 8.5,-210.7 153.5,-210.7 153.5,-191.7 8.5,-191.7"/>
<text text-anchor="start" x="11.5" y="-197.8" font-family="Helvetica,sans-Serif" font-size="11.00" fill="#000000">...</text>
<polygon fill="#ffffff" stroke="transparent" points="8.5,-172.7 8.5,-191.7 48.5,-191.7 48.5,-172.7 8.5,-172.7"/>
<polygon fill="none" stroke="#000000" points="8.5,-172.7 8.5,-191.7 48.5,-191.7 48.5,-172.7 8.5,-172.7"/>
<text text-anchor="start" x="11.5" y="-178.8" font-family="Helvetica,sans-Serif" font-size="11.00" fill="#000000">&lt; 1</text>
<polygon fill="#ffffff" stroke="transparent" points="48.5,-172.7 48.5,-191.7 116.5,-191.7 116.5,-172.7 48.5,-172.7"/>
<polygon fill="none" stroke="#000000" points="48.5,-172.7 48.5,-191.7 116.5,-191.7 116.5,-172.7 48.5,-172.7"/>
<text text-anchor="start" x="59.7089" y="-178.8" font-family="Helvetica,sans-Serif" font-size="11.00" fill="#000000">3,019 rows</text>
<polygon fill="#ffffff" stroke="transparent" points="116.5,-172.7 116.5,-191.7 153.5,-191.7 153.5,-172.7 116.5,-172.7"/>
<polygon fill="none" stroke="#000000" points="116.5,-172.7 116.5,-191.7 153.5,-191.7 153.5,-172.7 116.5,-172.7"/>
<text text-anchor="start" x="128.7904" y="-178.8" font-family="Helvetica,sans-Serif" font-size="11.00" fill="#000000">21 &gt;</text>
</a>
</g>
</g>
<!-- R_ASSESSMENT_TYPE&#45;&gt;R_CONTACT_TYPE -->
<g id="edge3" class="edge">
<title>R_ASSESSMENT_TYPE:w&#45;&gt;R_CONTACT_TYPE:e</title>
<path fill="none" stroke="#000000" d="M187.8929,-298.5751C162.874,-279.4926 197.6186,-200.7 153.5,-200.7"/>
<polygon fill="#000000" stroke="#000000" points="194.3215,-300.4548 200.9897,-306.1553 198.1608,-301.5774 202,-302.7 202,-302.7 202,-302.7 198.1608,-301.5774 203.0103,-299.2447 194.3215,-300.4548 194.3215,-300.4548"/>
<ellipse fill="none" stroke="#000000" cx="191.2501" cy="-299.5567" rx="3.2" ry="3.2"/>
</g>
<!-- R_REFERRAL_TYPE -->
<g id="node7" class="node">
<title>R_REFERRAL_TYPE</title>
<g id="a_node7"><a xlink:href="../../tables/R_REFERRAL_TYPE.html" xlink:title="R_REFERRAL_TYPE" target="_top">
<polygon fill="#ffffff" stroke="transparent" points="215.5,-50.2 215.5,-199.2 376.5,-199.2 376.5,-50.2 215.5,-50.2"/>
<polygon fill="#f5f5f5" stroke="transparent" points="216,-175.7 216,-198.7 377,-198.7 377,-175.7 216,-175.7"/>
<polygon fill="none" stroke="#000000" points="216,-175.7 216,-198.7 377,-198.7 377,-175.7 216,-175.7"/>
<text text-anchor="start" x="221" y="-184.8" font-family="Helvetica,sans-Serif" font-weight="bold" font-size="11.00" fill="#000000">R_REFERRAL_TYPE</text>
<text text-anchor="start" x="342.0437" y="-183.8" font-family="Helvetica,sans-Serif" font-size="11.00" fill="#000000">[table]</text>
<polygon fill="none" stroke="#000000" points="216,-153.7 216,-175.7 377,-175.7 377,-153.7 216,-153.7"/>
<image xlink:href="../../images/primaryKeys.png" width="11px" height="12px" preserveAspectRatio="xMinYMin meet" x="221" y="-170.7"/>
<text text-anchor="start" x="236" y="-160.8" font-family="Helvetica,sans-Serif" font-size="11.00" fill="#000000">REFERRAL_TYPE_ID</text>
<polygon fill="none" stroke="#000000" points="216,-131.7 216,-153.7 377,-153.7 377,-131.7 216,-131.7"/>
<image xlink:href="../../images/primaryKeys.png" width="11px" height="12px" preserveAspectRatio="xMinYMin meet" x="221" y="-148.7"/>
<text text-anchor="start" x="236" y="-138.8" font-family="Helvetica,sans-Serif" font-size="11.00" fill="#000000">CODE</text>
<polygon fill="none" stroke="#000000" points="216,-109.7 216,-131.7 377,-131.7 377,-109.7 216,-109.7"/>
<image xlink:href="../../images/primaryKeys.png" width="11px" height="12px" preserveAspectRatio="xMinYMin meet" x="221" y="-126.7"/>
<text text-anchor="start" x="236" y="-116.8" font-family="Helvetica,sans-Serif" font-size="11.00" fill="#000000">TRAINING_SESSION_ID</text>
<polygon fill="none" stroke="#000000" points="216,-87.7 216,-109.7 377,-109.7 377,-87.7 216,-87.7"/>
<image xlink:href="../../images/primaryKeys.png" width="11px" height="12px" preserveAspectRatio="xMinYMin meet" x="221" y="-104.7"/>
<text text-anchor="start" x="236" y="-94.8" font-family="Helvetica,sans-Serif" font-size="11.00" fill="#000000">CONTACT_TYPE_ID</text>
<polygon fill="none" stroke="#000000" points="216,-68.7 216,-87.7 377,-87.7 377,-68.7 216,-68.7"/>
<text text-anchor="start" x="219" y="-74.8" font-family="Helvetica,sans-Serif" font-size="11.00" fill="#000000">...</text>
<polygon fill="#ffffff" stroke="transparent" points="216,-49.7 216,-68.7 274,-68.7 274,-49.7 216,-49.7"/>
<polygon fill="none" stroke="#000000" points="216,-49.7 216,-68.7 274,-68.7 274,-49.7 216,-49.7"/>
<text text-anchor="start" x="219" y="-55.8" font-family="Helvetica,sans-Serif" font-size="11.00" fill="#000000">&lt; 1</text>
<polygon fill="#ffffff" stroke="transparent" points="274,-49.7 274,-68.7 337,-68.7 337,-49.7 274,-49.7"/>
<polygon fill="none" stroke="#000000" points="274,-49.7 274,-68.7 337,-68.7 337,-49.7 274,-49.7"/>
<text text-anchor="start" x="295.4956" y="-55.8" font-family="Helvetica,sans-Serif" font-size="11.00" fill="#000000">85 rows</text>
<polygon fill="#ffffff" stroke="transparent" points="337,-49.7 337,-68.7 377,-68.7 377,-49.7 337,-49.7"/>
<polygon fill="none" stroke="#000000" points="337,-49.7 337,-68.7 377,-68.7 377,-49.7 337,-49.7"/>
<text text-anchor="start" x="358.4053" y="-55.8" font-family="Helvetica,sans-Serif" font-size="11.00" fill="#000000">3 &gt;</text>
</a>
</g>
</g>
<!-- REFERRAL&#45;&gt;R_REFERRAL_TYPE -->
<g id="edge9" class="edge">
<title>REFERRAL:w&#45;&gt;R_REFERRAL_TYPE:e</title>
<path fill="none" stroke="#000000" d="M509.0075,-147.9951C455.2391,-150.2525 437.4271,-164.7 377,-164.7"/>
<polygon fill="#000000" stroke="#000000" points="515.5017,-147.8629 523.5733,-151.2993 519.5008,-147.7815 523.5,-147.7 523.5,-147.7 523.5,-147.7 519.5008,-147.7815 523.4267,-144.1007 515.5017,-147.8629 515.5017,-147.8629"/>
<ellipse fill="none" stroke="#000000" cx="512.3023" cy="-147.9281" rx="3.2" ry="3.2"/>
</g>
<!-- R_ASSMNT_TYPE_ASSMNT_OUTCOME -->
<g id="node5" class="node">
<title>R_ASSMNT_TYPE_ASSMNT_OUTCOME</title>
<g id="a_node5"><a xlink:href="../../tables/R_ASSMNT_TYPE_ASSMNT_OUTCOME.html" xlink:title="R_ASSMNT_TYPE_ASSMNT_OUTCOME" target="_top">
<polygon fill="#ffffff" stroke="transparent" points="447.5,-358.2 447.5,-419.2 699.5,-419.2 699.5,-358.2 447.5,-358.2"/>
<polygon fill="#f5f5f5" stroke="transparent" points="447.5,-395.7 447.5,-418.7 699.5,-418.7 699.5,-395.7 447.5,-395.7"/>
<polygon fill="none" stroke="#000000" points="447.5,-395.7 447.5,-418.7 699.5,-418.7 699.5,-395.7 447.5,-395.7"/>
<text text-anchor="start" x="452.4989" y="-404.8" font-family="Helvetica,sans-Serif" font-weight="bold" font-size="11.00" fill="#000000">R_ASSMNT_TYPE_ASSMNT_OUTCOME</text>
<text text-anchor="start" x="665.0219" y="-403.8" font-family="Helvetica,sans-Serif" font-size="11.00" fill="#000000">[table]</text>
<polygon fill="none" stroke="#000000" points="447.5,-376.7 447.5,-395.7 699.5,-395.7 699.5,-376.7 447.5,-376.7"/>
<text text-anchor="start" x="450.5" y="-382.8" font-family="Helvetica,sans-Serif" font-size="11.00" fill="#000000">...</text>
<polygon fill="#ffffff" stroke="transparent" points="447.5,-357.7 447.5,-376.7 555.5,-376.7 555.5,-357.7 447.5,-357.7"/>
<polygon fill="none" stroke="#000000" points="447.5,-357.7 447.5,-376.7 555.5,-376.7 555.5,-357.7 447.5,-357.7"/>
<text text-anchor="start" x="450.5" y="-363.8" font-family="Helvetica,sans-Serif" font-size="11.00" fill="#000000">&lt; 2</text>
<polygon fill="#ffffff" stroke="transparent" points="555.5,-357.7 555.5,-376.7 643.5,-376.7 643.5,-357.7 555.5,-357.7"/>
<polygon fill="none" stroke="#000000" points="555.5,-357.7 555.5,-376.7 643.5,-376.7 643.5,-357.7 555.5,-357.7"/>
<text text-anchor="start" x="601.9956" y="-363.8" font-family="Helvetica,sans-Serif" font-size="11.00" fill="#000000">98 rows</text>
<polygon fill="#ffffff" stroke="transparent" points="643.5,-357.7 643.5,-376.7 699.5,-376.7 699.5,-357.7 643.5,-357.7"/>
<polygon fill="none" stroke="#000000" points="643.5,-357.7 643.5,-376.7 699.5,-376.7 699.5,-357.7 643.5,-357.7"/>
<text text-anchor="start" x="690.3862" y="-363.8" font-family="Helvetica,sans-Serif" font-size="11.00" fill="#000000"> &#160;</text>
</a>
</g>
</g>
<!-- R_ASSMNT_TYPE_ASSMNT_OUTCOME&#45;&gt;R_ASSESSMENT_TYPE -->
<g id="edge4" class="edge">
<title>R_ASSMNT_TYPE_ASSMNT_OUTCOME:w&#45;&gt;R_ASSESSMENT_TYPE:e</title>
<path fill="none" stroke="#000000" d="M433.2111,-383.7499C418.0795,-379.2845 411.0278,-368.7 390,-368.7"/>
<polygon fill="#000000" stroke="#000000" points="439.5735,-384.6182 447.0132,-389.2669 443.5367,-385.1591 447.5,-385.7 447.5,-385.7 447.5,-385.7 443.5367,-385.1591 447.9868,-382.1331 439.5735,-384.6182 439.5735,-384.6182"/>
<ellipse fill="none" stroke="#000000" cx="436.4029" cy="-384.1854" rx="3.2" ry="3.2"/>
</g>
<!-- R_ASSMNT_TYPE_REFERRAL_TYPE -->
<g id="node6" class="node">
<title>R_ASSMNT_TYPE_REFERRAL_TYPE</title>
<g id="a_node6"><a xlink:href="../../tables/R_ASSMNT_TYPE_REFERRAL_TYPE.html" xlink:title="R_ASSMNT_TYPE_REFERRAL_TYPE" target="_top">
<polygon fill="#ffffff" stroke="transparent" points="439,-202.7 439,-336.7 708,-336.7 708,-202.7 439,-202.7"/>
<polygon fill="#f5f5f5" stroke="transparent" points="441.5,-311.7 441.5,-334.7 706.5,-334.7 706.5,-311.7 441.5,-311.7"/>
<polygon fill="none" stroke="#000000" points="441.5,-311.7 441.5,-334.7 706.5,-334.7 706.5,-311.7 441.5,-311.7"/>
<text text-anchor="start" x="446.5" y="-320.8" font-family="Helvetica,sans-Serif" font-weight="bold" font-size="11.00" fill="#000000">R_ASSMNT_TYPE_REFERRAL_TYPE</text>
<text text-anchor="start" x="671.5437" y="-319.8" font-family="Helvetica,sans-Serif" font-size="11.00" fill="#000000">[table]</text>
<polygon fill="none" stroke="#000000" points="441.5,-289.7 441.5,-311.7 645.5,-311.7 645.5,-289.7 441.5,-289.7"/>
<image xlink:href="../../images/primaryKeys.png" width="11px" height="12px" preserveAspectRatio="xMinYMin meet" x="446.5" y="-306.7"/>
<text text-anchor="start" x="461.5" y="-296.8" font-family="Helvetica,sans-Serif" font-size="11.00" fill="#000000">ASSESSMENT_TYPE_ID</text>
<polygon fill="none" stroke="#000000" points="645.5,-289.7 645.5,-311.7 706.5,-311.7 706.5,-289.7 645.5,-289.7"/>
<text text-anchor="start" x="648.1865" y="-297.4" font-family="Helvetica,sans-Serif" font-size="11.00" fill="#000000">number[38]</text>
<polygon fill="none" stroke="#000000" points="441.5,-267.7 441.5,-289.7 645.5,-289.7 645.5,-267.7 441.5,-267.7"/>
<image xlink:href="../../images/primaryKeys.png" width="11px" height="12px" preserveAspectRatio="xMinYMin meet" x="446.5" y="-284.7"/>
<text text-anchor="start" x="461.5" y="-274.8" font-family="Helvetica,sans-Serif" font-size="11.00" fill="#000000">REFERRAL_TYPE_ID</text>
<polygon fill="none" stroke="#000000" points="645.5,-267.7 645.5,-289.7 706.5,-289.7 706.5,-267.7 645.5,-267.7"/>
<text text-anchor="start" x="648.1865" y="-275.4" font-family="Helvetica,sans-Serif" font-size="11.00" fill="#000000">number[38]</text>
<polygon fill="none" stroke="#000000" points="441.5,-245.7 441.5,-267.7 645.5,-267.7 645.5,-245.7 441.5,-245.7"/>
<text text-anchor="start" x="461.5" y="-252.8" font-family="Helvetica,sans-Serif" font-size="11.00" fill="#000000">ROW_VERSION</text>
<polygon fill="none" stroke="#000000" points="645.5,-245.7 645.5,-267.7 706.5,-267.7 706.5,-245.7 645.5,-245.7"/>
<text text-anchor="start" x="648.1865" y="-253.4" font-family="Helvetica,sans-Serif" font-size="11.00" fill="#000000">number[38]</text>
<polygon fill="none" stroke="#000000" points="441.5,-223.7 441.5,-245.7 645.5,-245.7 645.5,-223.7 441.5,-223.7"/>
<image xlink:href="../../images/primaryKeys.png" width="11px" height="12px" preserveAspectRatio="xMinYMin meet" x="446.5" y="-240.7"/>
<text text-anchor="start" x="461.5" y="-230.8" font-family="Helvetica,sans-Serif" font-size="11.00" fill="#000000">TRAINING_SESSION_ID</text>
<polygon fill="none" stroke="#000000" points="645.5,-223.7 645.5,-245.7 706.5,-245.7 706.5,-223.7 645.5,-223.7"/>
<text text-anchor="start" x="648.1865" y="-231.4" font-family="Helvetica,sans-Serif" font-size="11.00" fill="#000000">number[38]</text>
<polygon fill="#ffffff" stroke="transparent" points="441.5,-204.7 441.5,-223.7 531.5,-223.7 531.5,-204.7 441.5,-204.7"/>
<polygon fill="none" stroke="#000000" points="441.5,-204.7 441.5,-223.7 531.5,-223.7 531.5,-204.7 441.5,-204.7"/>
<text text-anchor="start" x="444.5" y="-210.8" font-family="Helvetica,sans-Serif" font-size="11.00" fill="#000000">&lt; 2</text>
<polygon fill="#ffffff" stroke="transparent" points="531.5,-204.7 531.5,-223.7 645.5,-223.7 645.5,-204.7 531.5,-204.7"/>
<polygon fill="none" stroke="#000000" points="531.5,-204.7 531.5,-223.7 645.5,-223.7 645.5,-204.7 531.5,-204.7"/>
<text text-anchor="start" x="603.9956" y="-210.8" font-family="Helvetica,sans-Serif" font-size="11.00" fill="#000000">38 rows</text>
<polygon fill="#ffffff" stroke="transparent" points="645.5,-204.7 645.5,-223.7 706.5,-223.7 706.5,-204.7 645.5,-204.7"/>
<polygon fill="none" stroke="#000000" points="645.5,-204.7 645.5,-223.7 706.5,-223.7 706.5,-204.7 645.5,-204.7"/>
<text text-anchor="start" x="687.9053" y="-210.8" font-family="Helvetica,sans-Serif" font-size="11.00" fill="#000000">0 &gt;</text>
<polygon fill="none" stroke="#000000" stroke-width="2" points="440,-203.7 440,-335.7 707,-335.7 707,-203.7 440,-203.7"/>
</a>
</g>
</g>
<!-- R_ASSMNT_TYPE_REFERRAL_TYPE&#45;&gt;R_ASSESSMENT_TYPE -->
<g id="edge5" class="edge">
<title>R_ASSMNT_TYPE_REFERRAL_TYPE:w&#45;&gt;R_ASSESSMENT_TYPE:e</title>
<path fill="none" stroke="#000000" d="M427.3162,-305.5904C409.8943,-321.1822 421.6917,-368.7 390,-368.7"/>
<polygon fill="#000000" stroke="#000000" points="433.9369,-303.3077 442.6735,-304.1034 437.7185,-302.0038 441.5,-300.7 441.5,-300.7 441.5,-300.7 437.7185,-302.0038 440.3265,-297.2966 433.9369,-303.3077 433.9369,-303.3077"/>
<ellipse fill="none" stroke="#000000" cx="430.9117" cy="-304.3508" rx="3.2" ry="3.2"/>
</g>
<!-- R_ASSMNT_TYPE_REFERRAL_TYPE&#45;&gt;R_REFERRAL_TYPE -->
<g id="edge6" class="edge">
<title>R_ASSMNT_TYPE_REFERRAL_TYPE:w&#45;&gt;R_REFERRAL_TYPE:e</title>
<path fill="none" stroke="#000000" d="M427.3911,-275.6508C392.3777,-257.5216 429.5292,-164.7 377,-164.7"/>
<polygon fill="#000000" stroke="#000000" points="433.6805,-277.01 440.7395,-282.2188 437.5903,-277.855 441.5,-278.7 441.5,-278.7 441.5,-278.7 437.5903,-277.855 442.2605,-275.1812 433.6805,-277.01 433.6805,-277.01"/>
<ellipse fill="none" stroke="#000000" cx="430.5527" cy="-276.334" rx="3.2" ry="3.2"/>
</g>
<!-- R_REFERRAL_TYPE&#45;&gt;R_CONTACT_TYPE -->
<g id="edge8" class="edge">
<title>R_REFERRAL_TYPE:w&#45;&gt;R_CONTACT_TYPE:e</title>
<path fill="none" stroke="#000000" d="M201.782,-102.0937C171.2614,-119.7923 200.8517,-200.7 153.5,-200.7"/>
<polygon fill="#000000" stroke="#000000" points="208.2186,-100.5574 216.8358,-102.2016 212.1093,-99.6287 216,-98.7 216,-98.7 216,-98.7 212.1093,-99.6287 215.1642,-95.1984 208.2186,-100.5574 208.2186,-100.5574"/>
<ellipse fill="none" stroke="#000000" cx="205.106" cy="-101.3004" rx="3.2" ry="3.2"/>
</g>
<!-- R_GEN_REF_OUTCOME_REF_TYPE -->
<g id="node8" class="node">
<title>R_GEN_REF_OUTCOME_REF_TYPE</title>
<g id="a_node8"><a xlink:href="../../tables/R_GEN_REF_OUTCOME_REF_TYPE.html" xlink:title="R_GEN_REF_OUTCOME_REF_TYPE" target="_top">
<polygon fill="#ffffff" stroke="transparent" points="456.5,-38.2 456.5,-99.2 690.5,-99.2 690.5,-38.2 456.5,-38.2"/>
<polygon fill="#f5f5f5" stroke="transparent" points="456.5,-75.7 456.5,-98.7 690.5,-98.7 690.5,-75.7 456.5,-75.7"/>
<polygon fill="none" stroke="#000000" points="456.5,-75.7 456.5,-98.7 690.5,-98.7 690.5,-75.7 456.5,-75.7"/>
<text text-anchor="start" x="461.3583" y="-84.8" font-family="Helvetica,sans-Serif" font-weight="bold" font-size="11.00" fill="#000000">R_GEN_REF_OUTCOME_REF_TYPE</text>
<text text-anchor="start" x="656.0219" y="-83.8" font-family="Helvetica,sans-Serif" font-size="11.00" fill="#000000">[table]</text>
<polygon fill="none" stroke="#000000" points="456.5,-56.7 456.5,-75.7 690.5,-75.7 690.5,-56.7 456.5,-56.7"/>
<text text-anchor="start" x="459.5" y="-62.8" font-family="Helvetica,sans-Serif" font-size="11.00" fill="#000000">...</text>
<polygon fill="#ffffff" stroke="transparent" points="456.5,-37.7 456.5,-56.7 552.5,-56.7 552.5,-37.7 456.5,-37.7"/>
<polygon fill="none" stroke="#000000" points="456.5,-37.7 456.5,-56.7 552.5,-56.7 552.5,-37.7 456.5,-37.7"/>
<text text-anchor="start" x="459.5" y="-43.8" font-family="Helvetica,sans-Serif" font-size="11.00" fill="#000000">&lt; 2</text>
<polygon fill="#ffffff" stroke="transparent" points="552.5,-37.7 552.5,-56.7 640.5,-56.7 640.5,-37.7 552.5,-37.7"/>
<polygon fill="none" stroke="#000000" points="552.5,-37.7 552.5,-56.7 640.5,-56.7 640.5,-37.7 552.5,-37.7"/>
<text text-anchor="start" x="592.8807" y="-43.8" font-family="Helvetica,sans-Serif" font-size="11.00" fill="#000000">362 rows</text>
<polygon fill="#ffffff" stroke="transparent" points="640.5,-37.7 640.5,-56.7 690.5,-56.7 690.5,-37.7 640.5,-37.7"/>
<polygon fill="none" stroke="#000000" points="640.5,-37.7 640.5,-56.7 690.5,-56.7 690.5,-37.7 640.5,-37.7"/>
<text text-anchor="start" x="681.3862" y="-43.8" font-family="Helvetica,sans-Serif" font-size="11.00" fill="#000000"> &#160;</text>
</a>
</g>
</g>
<!-- R_GEN_REF_OUTCOME_REF_TYPE&#45;&gt;R_REFERRAL_TYPE -->
<g id="edge7" class="edge">
<title>R_GEN_REF_OUTCOME_REF_TYPE:w&#45;&gt;R_REFERRAL_TYPE:e</title>
<path fill="none" stroke="#000000" d="M441.8967,-68.5561C405.9195,-84.7882 427.6996,-164.7 377,-164.7"/>
<polygon fill="#000000" stroke="#000000" points="448.6488,-67.2356 457.191,-69.2331 452.5744,-66.4678 456.5,-65.7 456.5,-65.7 456.5,-65.7 452.5744,-66.4678 455.809,-62.1669 448.6488,-67.2356 448.6488,-67.2356"/>
<ellipse fill="none" stroke="#000000" cx="445.5083" cy="-67.8498" rx="3.2" ry="3.2"/>
</g>
</g>
</svg>
