<?xml version="1.0" encoding="UTF-8" standalone="no"?>
<!DOCTYPE svg PUBLIC "-//W3C//DTD SVG 1.1//EN"
 "http://www.w3.org/Graphics/SVG/1.1/DTD/svg11.dtd">
<!-- Generated by graphviz version 2.40.1 (20161225.0304)
 -->
<!-- Title: twoDegreesRelationshipsDiagram Pages: 1 -->
<svg width="1191pt" height="1115pt"
 viewBox="0.00 0.00 1191.00 1114.95" xmlns="http://www.w3.org/2000/svg" xmlns:xlink="http://www.w3.org/1999/xlink">
<g id="graph0" class="graph" transform="scale(1 1) rotate(0) translate(4 1110.948)">
<title>twoDegreesRelationshipsDiagram</title>
<polygon fill="#ffffff" stroke="transparent" points="-4,4 -4,-1110.948 1187,-1110.948 1187,4 -4,4"/>
<text text-anchor="middle" x="72.4936" y="-7.3" font-family="Helvetica,sans-Serif" font-size="11.00" fill="#000000">Generated by SchemaSpy</text>
<!-- ASSESSMENT -->
<g id="node1" class="node">
<title>ASSESSMENT</title>
<g id="a_node1"><a xlink:href="../../tables/ASSESSMENT.html" xlink:title="ASSESSMENT" target="_top">
<polygon fill="#ffffff" stroke="transparent" points="946.5,-231.6587 946.5,-644.6587 1151.5,-644.6587 1151.5,-231.6587 946.5,-231.6587"/>
<polygon fill="#f5f5f5" stroke="transparent" points="947,-621.1587 947,-644.1587 1152,-644.1587 1152,-621.1587 947,-621.1587"/>
<polygon fill="none" stroke="#000000" points="947,-621.1587 947,-644.1587 1152,-644.1587 1152,-621.1587 947,-621.1587"/>
<text text-anchor="start" x="952" y="-630.2587" font-family="Helvetica,sans-Serif" font-weight="bold" font-size="11.00" fill="#000000">ASSESSMENT</text>
<text text-anchor="start" x="1117.0437" y="-629.2587" font-family="Helvetica,sans-Serif" font-size="11.00" fill="#000000">[table]</text>
<polygon fill="none" stroke="#000000" points="947,-599.1587 947,-621.1587 1152,-621.1587 1152,-599.1587 947,-599.1587"/>
<image xlink:href="../../images/primaryKeys.png" width="11px" height="12px" preserveAspectRatio="xMinYMin meet" x="952" y="-616.159"/>
<text text-anchor="start" x="967" y="-606.2587" font-family="Helvetica,sans-Serif" font-size="11.00" fill="#000000">ASSESSMENT_ID</text>
<polygon fill="none" stroke="#000000" points="947,-577.1587 947,-599.1587 1152,-599.1587 1152,-577.1587 947,-577.1587"/>
<image xlink:href="../../images/primaryKeys.png" width="11px" height="12px" preserveAspectRatio="xMinYMin meet" x="952" y="-594.159"/>
<text text-anchor="start" x="967" y="-584.2587" font-family="Helvetica,sans-Serif" font-size="11.00" fill="#000000">REFERRAL_ID</text>
<polygon fill="none" stroke="#000000" points="947,-555.1587 947,-577.1587 1152,-577.1587 1152,-555.1587 947,-555.1587"/>
<image xlink:href="../../images/primaryKeys.png" width="11px" height="12px" preserveAspectRatio="xMinYMin meet" x="952" y="-572.159"/>
<text text-anchor="start" x="967" y="-562.2587" font-family="Helvetica,sans-Serif" font-size="11.00" fill="#000000">TEAM_ID</text>
<polygon fill="none" stroke="#000000" points="947,-533.1587 947,-555.1587 1152,-555.1587 1152,-533.1587 947,-533.1587"/>
<image xlink:href="../../images/primaryKeys.png" width="11px" height="12px" preserveAspectRatio="xMinYMin meet" x="952" y="-550.159"/>
<text text-anchor="start" x="967" y="-540.2587" font-family="Helvetica,sans-Serif" font-size="11.00" fill="#000000">STAFF_ID</text>
<polygon fill="none" stroke="#000000" points="947,-511.1587 947,-533.1587 1152,-533.1587 1152,-511.1587 947,-511.1587"/>
<image xlink:href="../../images/primaryKeys.png" width="11px" height="12px" preserveAspectRatio="xMinYMin meet" x="952" y="-528.159"/>
<text text-anchor="start" x="967" y="-518.2587" font-family="Helvetica,sans-Serif" font-size="11.00" fill="#000000">PROVIDER_EMPLOYEE_ID</text>
<polygon fill="none" stroke="#000000" points="947,-489.1587 947,-511.1587 1152,-511.1587 1152,-489.1587 947,-489.1587"/>
<image xlink:href="../../images/primaryKeys.png" width="11px" height="12px" preserveAspectRatio="xMinYMin meet" x="952" y="-506.159"/>
<text text-anchor="start" x="967" y="-496.2587" font-family="Helvetica,sans-Serif" font-size="11.00" fill="#000000">PARTITION_AREA_ID</text>
<polygon fill="none" stroke="#000000" points="947,-467.1587 947,-489.1587 1152,-489.1587 1152,-467.1587 947,-467.1587"/>
<image xlink:href="../../images/primaryKeys.png" width="11px" height="12px" preserveAspectRatio="xMinYMin meet" x="952" y="-484.159"/>
<text text-anchor="start" x="967" y="-474.2587" font-family="Helvetica,sans-Serif" font-size="11.00" fill="#000000">ASSESSMENT_TYPE_ID</text>
<polygon fill="none" stroke="#000000" points="947,-445.1587 947,-467.1587 1152,-467.1587 1152,-445.1587 947,-445.1587"/>
<image xlink:href="../../images/primaryKeys.png" width="11px" height="12px" preserveAspectRatio="xMinYMin meet" x="952" y="-462.159"/>
<text text-anchor="start" x="967" y="-452.2587" font-family="Helvetica,sans-Serif" font-size="11.00" fill="#000000">PROVIDER_TEAM_ID</text>
<polygon fill="none" stroke="#000000" points="947,-423.1587 947,-445.1587 1152,-445.1587 1152,-423.1587 947,-423.1587"/>
<image xlink:href="../../images/primaryKeys.png" width="11px" height="12px" preserveAspectRatio="xMinYMin meet" x="952" y="-440.159"/>
<text text-anchor="start" x="967" y="-430.2587" font-family="Helvetica,sans-Serif" font-size="11.00" fill="#000000">CREATED_DATETIME</text>
<polygon fill="none" stroke="#000000" points="947,-401.1587 947,-423.1587 1152,-423.1587 1152,-401.1587 947,-401.1587"/>
<image xlink:href="../../images/primaryKeys.png" width="11px" height="12px" preserveAspectRatio="xMinYMin meet" x="952" y="-418.159"/>
<text text-anchor="start" x="967" y="-408.2587" font-family="Helvetica,sans-Serif" font-size="11.00" fill="#000000">ASSESSMENT_OUTCOME_ID</text>
<polygon fill="none" stroke="#000000" points="947,-379.1587 947,-401.1587 1152,-401.1587 1152,-379.1587 947,-379.1587"/>
<image xlink:href="../../images/primaryKeys.png" width="11px" height="12px" preserveAspectRatio="xMinYMin meet" x="952" y="-396.159"/>
<text text-anchor="start" x="967" y="-386.2587" font-family="Helvetica,sans-Serif" font-size="11.00" fill="#000000">TRAINING_SESSION_ID</text>
<polygon fill="none" stroke="#000000" points="947,-357.1587 947,-379.1587 1152,-379.1587 1152,-357.1587 947,-357.1587"/>
<image xlink:href="../../images/primaryKeys.png" width="11px" height="12px" preserveAspectRatio="xMinYMin meet" x="952" y="-374.159"/>
<text text-anchor="start" x="967" y="-364.2587" font-family="Helvetica,sans-Serif" font-size="11.00" fill="#000000">OFFENDER_ID</text>
<polygon fill="none" stroke="#000000" points="947,-335.1587 947,-357.1587 1152,-357.1587 1152,-335.1587 947,-335.1587"/>
<image xlink:href="../../images/primaryKeys.png" width="11px" height="12px" preserveAspectRatio="xMinYMin meet" x="952" y="-352.159"/>
<text text-anchor="start" x="967" y="-342.2587" font-family="Helvetica,sans-Serif" font-size="11.00" fill="#000000">CONTACT_OUTCOME_TYPE_ID</text>
<polygon fill="none" stroke="#000000" points="947,-313.1587 947,-335.1587 1152,-335.1587 1152,-313.1587 947,-313.1587"/>
<image xlink:href="../../images/primaryKeys.png" width="11px" height="12px" preserveAspectRatio="xMinYMin meet" x="952" y="-330.159"/>
<text text-anchor="start" x="967" y="-320.2587" font-family="Helvetica,sans-Serif" font-size="11.00" fill="#000000">CONTACT_EA_ID</text>
<polygon fill="none" stroke="#000000" points="947,-291.1587 947,-313.1587 1152,-313.1587 1152,-291.1587 947,-291.1587"/>
<image xlink:href="../../images/primaryKeys.png" width="11px" height="12px" preserveAspectRatio="xMinYMin meet" x="952" y="-308.159"/>
<text text-anchor="start" x="967" y="-298.2587" font-family="Helvetica,sans-Serif" font-size="11.00" fill="#000000">ENFORCEABLE_CONTACT_ID</text>
<polygon fill="none" stroke="#000000" points="947,-269.1587 947,-291.1587 1152,-291.1587 1152,-269.1587 947,-269.1587"/>
<image xlink:href="../../images/primaryKeys.png" width="11px" height="12px" preserveAspectRatio="xMinYMin meet" x="952" y="-286.159"/>
<text text-anchor="start" x="967" y="-276.2587" font-family="Helvetica,sans-Serif" font-size="11.00" fill="#000000">EVENT_ID</text>
<polygon fill="none" stroke="#000000" points="947,-250.1587 947,-269.1587 1152,-269.1587 1152,-250.1587 947,-250.1587"/>
<text text-anchor="start" x="950" y="-256.2587" font-family="Helvetica,sans-Serif" font-size="11.00" fill="#000000">...</text>
<polygon fill="#ffffff" stroke="transparent" points="947,-231.1587 947,-250.1587 1032,-250.1587 1032,-231.1587 947,-231.1587"/>
<polygon fill="none" stroke="#000000" points="947,-231.1587 947,-250.1587 1032,-250.1587 1032,-231.1587 947,-231.1587"/>
<text text-anchor="start" x="950" y="-237.2587" font-family="Helvetica,sans-Serif" font-size="11.00" fill="#000000">&lt; 14</text>
<polygon fill="#ffffff" stroke="transparent" points="1032,-231.1587 1032,-250.1587 1111,-250.1587 1111,-231.1587 1032,-231.1587"/>
<polygon fill="none" stroke="#000000" points="1032,-231.1587 1032,-250.1587 1111,-250.1587 1111,-231.1587 1032,-231.1587"/>
<text text-anchor="start" x="1063.3807" y="-237.2587" font-family="Helvetica,sans-Serif" font-size="11.00" fill="#000000">284 rows</text>
<polygon fill="#ffffff" stroke="transparent" points="1111,-231.1587 1111,-250.1587 1152,-250.1587 1152,-231.1587 1111,-231.1587"/>
<polygon fill="none" stroke="#000000" points="1111,-231.1587 1111,-250.1587 1152,-250.1587 1152,-231.1587 1111,-231.1587"/>
<text text-anchor="start" x="1142.8862" y="-237.2587" font-family="Helvetica,sans-Serif" font-size="11.00" fill="#000000"> &#160;</text>
</a>
</g>
</g>
<!-- R_ASSESSMENT_OUTCOME -->
<g id="node2" class="node">
<title>R_ASSESSMENT_OUTCOME</title>
<g id="a_node2"><a xlink:href="../../tables/R_ASSESSMENT_OUTCOME.html" xlink:title="R_ASSESSMENT_OUTCOME" target="_top">
<polygon fill="#ffffff" stroke="transparent" points="624,-620.1587 624,-930.1587 874,-930.1587 874,-620.1587 624,-620.1587"/>
<polygon fill="#f5f5f5" stroke="transparent" points="626,-905.1587 626,-928.1587 872,-928.1587 872,-905.1587 626,-905.1587"/>
<polygon fill="none" stroke="#000000" points="626,-905.1587 626,-928.1587 872,-928.1587 872,-905.1587 626,-905.1587"/>
<text text-anchor="start" x="631" y="-914.2587" font-family="Helvetica,sans-Serif" font-weight="bold" font-size="11.00" fill="#000000">R_ASSESSMENT_OUTCOME</text>
<text text-anchor="start" x="837.0437" y="-913.2587" font-family="Helvetica,sans-Serif" font-size="11.00" fill="#000000">[table]</text>
<polygon fill="none" stroke="#000000" points="626,-883.1587 626,-905.1587 805,-905.1587 805,-883.1587 626,-883.1587"/>
<image xlink:href="../../images/primaryKeys.png" width="11px" height="12px" preserveAspectRatio="xMinYMin meet" x="631" y="-900.159"/>
<text text-anchor="start" x="645.6926" y="-890.2587" font-family="Helvetica,sans-Serif" font-size="11.00" fill="#000000">ASSESSMENT_OUTCOME_ID</text>
<polygon fill="none" stroke="#000000" points="805,-883.1587 805,-905.1587 872,-905.1587 872,-883.1587 805,-883.1587"/>
<text text-anchor="start" x="808" y="-890.8587" font-family="Helvetica,sans-Serif" font-size="11.00" fill="#000000">number[38]</text>
<polygon fill="none" stroke="#000000" points="626,-861.1587 626,-883.1587 805,-883.1587 805,-861.1587 626,-861.1587"/>
<image xlink:href="../../images/primaryKeys.png" width="11px" height="12px" preserveAspectRatio="xMinYMin meet" x="631" y="-878.159"/>
<text text-anchor="start" x="646" y="-868.2587" font-family="Helvetica,sans-Serif" font-size="11.00" fill="#000000">CODE</text>
<polygon fill="none" stroke="#000000" points="805,-861.1587 805,-883.1587 872,-883.1587 872,-861.1587 805,-861.1587"/>
<text text-anchor="start" x="807.9365" y="-868.8587" font-family="Helvetica,sans-Serif" font-size="11.00" fill="#000000">varchar2[10]</text>
<polygon fill="none" stroke="#000000" points="626,-839.1587 626,-861.1587 805,-861.1587 805,-839.1587 626,-839.1587"/>
<text text-anchor="start" x="646" y="-846.2587" font-family="Helvetica,sans-Serif" font-size="11.00" fill="#000000">DESCRIPTION</text>
<polygon fill="none" stroke="#000000" points="805,-839.1587 805,-861.1587 872,-861.1587 872,-839.1587 805,-839.1587"/>
<text text-anchor="start" x="807.9365" y="-846.8587" font-family="Helvetica,sans-Serif" font-size="11.00" fill="#000000">varchar2[50]</text>
<polygon fill="none" stroke="#000000" points="626,-817.1587 626,-839.1587 805,-839.1587 805,-817.1587 626,-817.1587"/>
<text text-anchor="start" x="646" y="-824.2587" font-family="Helvetica,sans-Serif" font-size="11.00" fill="#000000">SELECTABLE</text>
<polygon fill="none" stroke="#000000" points="805,-817.1587 805,-839.1587 872,-839.1587 872,-817.1587 805,-817.1587"/>
<text text-anchor="start" x="808" y="-824.8587" font-family="Helvetica,sans-Serif" font-size="11.00" fill="#000000">char[1]</text>
<polygon fill="none" stroke="#000000" points="626,-795.1587 626,-817.1587 805,-817.1587 805,-795.1587 626,-795.1587"/>
<text text-anchor="start" x="640.4907" y="-802.2587" font-family="Helvetica,sans-Serif" font-size="11.00" fill="#000000">ASSESSMENT_OPEN_TO_EDIT</text>
<polygon fill="none" stroke="#000000" points="805,-795.1587 805,-817.1587 872,-817.1587 872,-795.1587 805,-795.1587"/>
<text text-anchor="start" x="808" y="-802.8587" font-family="Helvetica,sans-Serif" font-size="11.00" fill="#000000">char[1]</text>
<polygon fill="none" stroke="#000000" points="626,-773.1587 626,-795.1587 805,-795.1587 805,-773.1587 626,-773.1587"/>
<text text-anchor="start" x="646" y="-780.2587" font-family="Helvetica,sans-Serif" font-size="11.00" fill="#000000">CREATED_BY_USER_ID</text>
<polygon fill="none" stroke="#000000" points="805,-773.1587 805,-795.1587 872,-795.1587 872,-773.1587 805,-773.1587"/>
<text text-anchor="start" x="808" y="-780.8587" font-family="Helvetica,sans-Serif" font-size="11.00" fill="#000000">number[38]</text>
<polygon fill="none" stroke="#000000" points="626,-751.1587 626,-773.1587 805,-773.1587 805,-751.1587 626,-751.1587"/>
<image xlink:href="../../images/primaryKeys.png" width="11px" height="12px" preserveAspectRatio="xMinYMin meet" x="631" y="-768.159"/>
<text text-anchor="start" x="646" y="-758.2587" font-family="Helvetica,sans-Serif" font-size="11.00" fill="#000000">TRAINING_SESSION_ID</text>
<polygon fill="none" stroke="#000000" points="805,-751.1587 805,-773.1587 872,-773.1587 872,-751.1587 805,-751.1587"/>
<text text-anchor="start" x="808" y="-758.8587" font-family="Helvetica,sans-Serif" font-size="11.00" fill="#000000">number[38]</text>
<polygon fill="none" stroke="#000000" points="626,-729.1587 626,-751.1587 805,-751.1587 805,-729.1587 626,-729.1587"/>
<text text-anchor="start" x="646" y="-736.2587" font-family="Helvetica,sans-Serif" font-size="11.00" fill="#000000">LAST_UPDATED_USER_ID</text>
<polygon fill="none" stroke="#000000" points="805,-729.1587 805,-751.1587 872,-751.1587 872,-729.1587 805,-729.1587"/>
<text text-anchor="start" x="808" y="-736.8587" font-family="Helvetica,sans-Serif" font-size="11.00" fill="#000000">number[38]</text>
<polygon fill="none" stroke="#000000" points="626,-707.1587 626,-729.1587 805,-729.1587 805,-707.1587 626,-707.1587"/>
<text text-anchor="start" x="646" y="-714.2587" font-family="Helvetica,sans-Serif" font-size="11.00" fill="#000000">ROW_VERSION</text>
<polygon fill="none" stroke="#000000" points="805,-707.1587 805,-729.1587 872,-729.1587 872,-707.1587 805,-707.1587"/>
<text text-anchor="start" x="808" y="-714.8587" font-family="Helvetica,sans-Serif" font-size="11.00" fill="#000000">number[38]</text>
<polygon fill="none" stroke="#000000" points="626,-685.1587 626,-707.1587 805,-707.1587 805,-685.1587 626,-685.1587"/>
<text text-anchor="start" x="646" y="-692.2587" font-family="Helvetica,sans-Serif" font-size="11.00" fill="#000000">CREATED_DATETIME</text>
<polygon fill="none" stroke="#000000" points="805,-685.1587 805,-707.1587 872,-707.1587 872,-685.1587 805,-685.1587"/>
<text text-anchor="start" x="808" y="-692.8587" font-family="Helvetica,sans-Serif" font-size="11.00" fill="#000000">date[7]</text>
<polygon fill="none" stroke="#000000" points="626,-663.1587 626,-685.1587 805,-685.1587 805,-663.1587 626,-663.1587"/>
<text text-anchor="start" x="646" y="-670.2587" font-family="Helvetica,sans-Serif" font-size="11.00" fill="#000000">LAST_UPDATED_DATETIME</text>
<polygon fill="none" stroke="#000000" points="805,-663.1587 805,-685.1587 872,-685.1587 872,-663.1587 805,-663.1587"/>
<text text-anchor="start" x="808" y="-670.8587" font-family="Helvetica,sans-Serif" font-size="11.00" fill="#000000">date[7]</text>
<polygon fill="none" stroke="#000000" points="626,-641.1587 626,-663.1587 805,-663.1587 805,-641.1587 626,-641.1587"/>
<text text-anchor="start" x="646" y="-648.2587" font-family="Helvetica,sans-Serif" font-size="11.00" fill="#000000">SPG_OVERRIDE</text>
<polygon fill="none" stroke="#000000" points="805,-641.1587 805,-663.1587 872,-663.1587 872,-641.1587 805,-641.1587"/>
<text text-anchor="start" x="808" y="-648.8587" font-family="Helvetica,sans-Serif" font-size="11.00" fill="#000000">number[38]</text>
<polygon fill="#ffffff" stroke="transparent" points="626,-622.1587 626,-641.1587 704,-641.1587 704,-622.1587 626,-622.1587"/>
<polygon fill="none" stroke="#000000" points="626,-622.1587 626,-641.1587 704,-641.1587 704,-622.1587 626,-622.1587"/>
<text text-anchor="start" x="629" y="-628.2587" font-family="Helvetica,sans-Serif" font-size="11.00" fill="#000000">&lt; 0</text>
<polygon fill="#ffffff" stroke="transparent" points="704,-622.1587 704,-641.1587 805,-641.1587 805,-622.1587 704,-622.1587"/>
<polygon fill="none" stroke="#000000" points="704,-622.1587 704,-641.1587 805,-641.1587 805,-622.1587 704,-622.1587"/>
<text text-anchor="start" x="763.4956" y="-628.2587" font-family="Helvetica,sans-Serif" font-size="11.00" fill="#000000">33 rows</text>
<polygon fill="#ffffff" stroke="transparent" points="805,-622.1587 805,-641.1587 872,-641.1587 872,-622.1587 805,-622.1587"/>
<polygon fill="none" stroke="#000000" points="805,-622.1587 805,-641.1587 872,-641.1587 872,-622.1587 805,-622.1587"/>
<text text-anchor="start" x="853.4053" y="-628.2587" font-family="Helvetica,sans-Serif" font-size="11.00" fill="#000000">2 &gt;</text>
<polygon fill="none" stroke="#000000" stroke-width="2" points="625,-621.1587 625,-929.1587 873,-929.1587 873,-621.1587 625,-621.1587"/>
</a>
</g>
</g>
<!-- ASSESSMENT&#45;&gt;R_ASSESSMENT_OUTCOME -->
<g id="edge1" class="edge">
<title>ASSESSMENT:w&#45;&gt;R_ASSESSMENT_OUTCOME:e</title>
<path fill="none" stroke="#000000" d="M932.8524,-415.4941C851.8511,-458.0799 975.1071,-894.1587 872,-894.1587"/>
<polygon fill="#000000" stroke="#000000" points="939.2135,-413.9945 947.8261,-415.6627 943.1067,-413.0766 947,-412.1587 947,-412.1587 947,-412.1587 943.1067,-413.0766 946.1739,-408.6548 939.2135,-413.9945 939.2135,-413.9945"/>
<ellipse fill="none" stroke="#000000" cx="936.0988" cy="-414.7288" rx="3.2" ry="3.2"/>
</g>
<!-- R_ASSESSMENT_TYPE -->
<g id="node3" class="node">
<title>R_ASSESSMENT_TYPE</title>
<g id="a_node3"><a xlink:href="../../tables/R_ASSESSMENT_TYPE.html" xlink:title="R_ASSESSMENT_TYPE" target="_top">
<polygon fill="#ffffff" stroke="transparent" points="665.5,-978.6587 665.5,-1039.6587 832.5,-1039.6587 832.5,-978.6587 665.5,-978.6587"/>
<polygon fill="#f5f5f5" stroke="transparent" points="666,-1016.1587 666,-1039.1587 833,-1039.1587 833,-1016.1587 666,-1016.1587"/>
<polygon fill="none" stroke="#000000" points="666,-1016.1587 666,-1039.1587 833,-1039.1587 833,-1016.1587 666,-1016.1587"/>
<text text-anchor="start" x="670.9639" y="-1025.2587" font-family="Helvetica,sans-Serif" font-weight="bold" font-size="11.00" fill="#000000">R_ASSESSMENT_TYPE</text>
<text text-anchor="start" x="798.5219" y="-1024.2587" font-family="Helvetica,sans-Serif" font-size="11.00" fill="#000000">[table]</text>
<polygon fill="none" stroke="#000000" points="666,-997.1587 666,-1016.1587 833,-1016.1587 833,-997.1587 666,-997.1587"/>
<text text-anchor="start" x="669" y="-1003.2587" font-family="Helvetica,sans-Serif" font-size="11.00" fill="#000000">...</text>
<polygon fill="#ffffff" stroke="transparent" points="666,-978.1587 666,-997.1587 727,-997.1587 727,-978.1587 666,-978.1587"/>
<polygon fill="none" stroke="#000000" points="666,-978.1587 666,-997.1587 727,-997.1587 727,-978.1587 666,-978.1587"/>
<text text-anchor="start" x="669" y="-984.2587" font-family="Helvetica,sans-Serif" font-size="11.00" fill="#000000">&lt; 1</text>
<polygon fill="#ffffff" stroke="transparent" points="727,-978.1587 727,-997.1587 791,-997.1587 791,-978.1587 727,-978.1587"/>
<polygon fill="none" stroke="#000000" points="727,-978.1587 727,-997.1587 791,-997.1587 791,-978.1587 727,-978.1587"/>
<text text-anchor="start" x="749.4956" y="-984.2587" font-family="Helvetica,sans-Serif" font-size="11.00" fill="#000000">80 rows</text>
<polygon fill="#ffffff" stroke="transparent" points="791,-978.1587 791,-997.1587 833,-997.1587 833,-978.1587 791,-978.1587"/>
<polygon fill="none" stroke="#000000" points="791,-978.1587 791,-997.1587 833,-997.1587 833,-978.1587 791,-978.1587"/>
<text text-anchor="start" x="814.4053" y="-984.2587" font-family="Helvetica,sans-Serif" font-size="11.00" fill="#000000">3 &gt;</text>
</a>
</g>
</g>
<!-- ASSESSMENT&#45;&gt;R_ASSESSMENT_TYPE -->
<g id="edge2" class="edge">
<title>ASSESSMENT:w&#45;&gt;R_ASSESSMENT_TYPE:e</title>
<path fill="none" stroke="#000000" d="M932.7271,-480.7645C846.8839,-514.8326 931.5172,-872.9907 882,-964.1587 868.31,-989.3639 861.683,-1006.1587 833,-1006.1587"/>
<polygon fill="#000000" stroke="#000000" points="939.1301,-479.5956 947.6466,-481.7002 943.065,-478.8772 947,-478.1587 947,-478.1587 947,-478.1587 943.065,-478.8772 946.3534,-474.6173 939.1301,-479.5956 939.1301,-479.5956"/>
<ellipse fill="none" stroke="#000000" cx="935.9821" cy="-480.1703" rx="3.2" ry="3.2"/>
</g>
<!-- R_ENFORCEMENT_ACTION -->
<g id="node4" class="node">
<title>R_ENFORCEMENT_ACTION</title>
<g id="a_node4"><a xlink:href="../../tables/R_ENFORCEMENT_ACTION.html" xlink:title="R_ENFORCEMENT_ACTION" target="_top">
<polygon fill="#ffffff" stroke="transparent" points="377,-179.6587 377,-240.6587 566,-240.6587 566,-179.6587 377,-179.6587"/>
<polygon fill="#f5f5f5" stroke="transparent" points="377.5,-217.1587 377.5,-240.1587 566.5,-240.1587 566.5,-217.1587 377.5,-217.1587"/>
<polygon fill="none" stroke="#000000" points="377.5,-217.1587 377.5,-240.1587 566.5,-240.1587 566.5,-217.1587 377.5,-217.1587"/>
<text text-anchor="start" x="382.174" y="-226.2587" font-family="Helvetica,sans-Serif" font-weight="bold" font-size="11.00" fill="#000000">R_ENFORCEMENT_ACTION</text>
<text text-anchor="start" x="532.0219" y="-225.2587" font-family="Helvetica,sans-Serif" font-size="11.00" fill="#000000">[table]</text>
<polygon fill="none" stroke="#000000" points="377.5,-198.1587 377.5,-217.1587 566.5,-217.1587 566.5,-198.1587 377.5,-198.1587"/>
<text text-anchor="start" x="380.5" y="-204.2587" font-family="Helvetica,sans-Serif" font-size="11.00" fill="#000000">...</text>
<polygon fill="#ffffff" stroke="transparent" points="377.5,-179.1587 377.5,-198.1587 449.5,-198.1587 449.5,-179.1587 377.5,-179.1587"/>
<polygon fill="none" stroke="#000000" points="377.5,-179.1587 377.5,-198.1587 449.5,-198.1587 449.5,-179.1587 377.5,-179.1587"/>
<text text-anchor="start" x="380.5" y="-185.2587" font-family="Helvetica,sans-Serif" font-size="11.00" fill="#000000">&lt; 1</text>
<polygon fill="#ffffff" stroke="transparent" points="449.5,-179.1587 449.5,-198.1587 519.5,-198.1587 519.5,-179.1587 449.5,-179.1587"/>
<polygon fill="none" stroke="#000000" points="449.5,-179.1587 449.5,-198.1587 519.5,-198.1587 519.5,-179.1587 449.5,-179.1587"/>
<text text-anchor="start" x="477.9956" y="-185.2587" font-family="Helvetica,sans-Serif" font-size="11.00" fill="#000000">49 rows</text>
<polygon fill="#ffffff" stroke="transparent" points="519.5,-179.1587 519.5,-198.1587 566.5,-198.1587 566.5,-179.1587 519.5,-179.1587"/>
<polygon fill="none" stroke="#000000" points="519.5,-179.1587 519.5,-198.1587 566.5,-198.1587 566.5,-179.1587 519.5,-179.1587"/>
<text text-anchor="start" x="547.9053" y="-185.2587" font-family="Helvetica,sans-Serif" font-size="11.00" fill="#000000">7 &gt;</text>
</a>
</g>
</g>
<!-- ASSESSMENT&#45;&gt;R_ENFORCEMENT_ACTION -->
<g id="edge3" class="edge">
<title>ASSESSMENT:w&#45;&gt;R_ENFORCEMENT_ACTION:e</title>
<path fill="none" stroke="#000000" d="M932.6817,-321.732C900.9245,-308.9765 922.3344,-249.3949 882,-226.1587 760.2775,-156.036 706.9763,-207.1587 566.5,-207.1587"/>
<polygon fill="#000000" stroke="#000000" points="939.1125,-322.8219 946.3984,-327.7081 943.0562,-323.4903 947,-324.1587 947,-324.1587 947,-324.1587 943.0562,-323.4903 947.6016,-320.6094 939.1125,-322.8219 939.1125,-322.8219"/>
<ellipse fill="none" stroke="#000000" cx="935.9575" cy="-322.2872" rx="3.2" ry="3.2"/>
</g>
<!-- R_CONTACT_OUTCOME_TYPE -->
<g id="node5" class="node">
<title>R_CONTACT_OUTCOME_TYPE</title>
<g id="a_node5"><a xlink:href="../../tables/R_CONTACT_OUTCOME_TYPE.html" xlink:title="R_CONTACT_OUTCOME_TYPE" target="_top">
<polygon fill="#ffffff" stroke="transparent" points="368,-261.6587 368,-322.6587 575,-322.6587 575,-261.6587 368,-261.6587"/>
<polygon fill="#f5f5f5" stroke="transparent" points="368.5,-299.1587 368.5,-322.1587 575.5,-322.1587 575.5,-299.1587 368.5,-299.1587"/>
<polygon fill="none" stroke="#000000" points="368.5,-299.1587 368.5,-322.1587 575.5,-322.1587 575.5,-299.1587 368.5,-299.1587"/>
<text text-anchor="start" x="373.3091" y="-308.2587" font-family="Helvetica,sans-Serif" font-weight="bold" font-size="11.00" fill="#000000">R_CONTACT_OUTCOME_TYPE</text>
<text text-anchor="start" x="541.0219" y="-307.2587" font-family="Helvetica,sans-Serif" font-size="11.00" fill="#000000">[table]</text>
<polygon fill="none" stroke="#000000" points="368.5,-280.1587 368.5,-299.1587 575.5,-299.1587 575.5,-280.1587 368.5,-280.1587"/>
<text text-anchor="start" x="371.5" y="-286.2587" font-family="Helvetica,sans-Serif" font-size="11.00" fill="#000000">...</text>
<polygon fill="#ffffff" stroke="transparent" points="368.5,-261.1587 368.5,-280.1587 439.5,-280.1587 439.5,-261.1587 368.5,-261.1587"/>
<polygon fill="none" stroke="#000000" points="368.5,-261.1587 368.5,-280.1587 439.5,-280.1587 439.5,-261.1587 368.5,-261.1587"/>
<text text-anchor="start" x="371.5" y="-267.2587" font-family="Helvetica,sans-Serif" font-size="11.00" fill="#000000"> &#160;</text>
<polygon fill="#ffffff" stroke="transparent" points="439.5,-261.1587 439.5,-280.1587 518.5,-280.1587 518.5,-261.1587 439.5,-261.1587"/>
<polygon fill="none" stroke="#000000" points="439.5,-261.1587 439.5,-280.1587 518.5,-280.1587 518.5,-261.1587 439.5,-261.1587"/>
<text text-anchor="start" x="470.8807" y="-267.2587" font-family="Helvetica,sans-Serif" font-size="11.00" fill="#000000">220 rows</text>
<polygon fill="#ffffff" stroke="transparent" points="518.5,-261.1587 518.5,-280.1587 575.5,-280.1587 575.5,-261.1587 518.5,-261.1587"/>
<polygon fill="none" stroke="#000000" points="518.5,-261.1587 518.5,-280.1587 575.5,-280.1587 575.5,-261.1587 518.5,-261.1587"/>
<text text-anchor="start" x="550.7904" y="-267.2587" font-family="Helvetica,sans-Serif" font-size="11.00" fill="#000000">11 &gt;</text>
</a>
</g>
</g>
<!-- ASSESSMENT&#45;&gt;R_CONTACT_OUTCOME_TYPE -->
<g id="edge4" class="edge">
<title>ASSESSMENT:w&#45;&gt;R_CONTACT_OUTCOME_TYPE:e</title>
<path fill="none" stroke="#000000" d="M932.37,-345.5335C914.3607,-343.8587 905.4385,-339.1936 882,-336.1587 764.1087,-320.8942 730.5125,-340.0687 616,-308.1587 596.8473,-302.8217 595.3824,-289.1587 575.5,-289.1587"/>
<polygon fill="#000000" stroke="#000000" points="939.0073,-345.8171 946.8463,-349.7555 943.0036,-345.9879 947,-346.1587 947,-346.1587 947,-346.1587 943.0036,-345.9879 947.1537,-342.562 939.0073,-345.8171 939.0073,-345.8171"/>
<ellipse fill="none" stroke="#000000" cx="935.8102" cy="-345.6804" rx="3.2" ry="3.2"/>
</g>
<!-- CONTACT -->
<g id="node6" class="node">
<title>CONTACT</title>
<g id="a_node6"><a xlink:href="../../tables/CONTACT.html" xlink:title="CONTACT" target="_top">
<polygon fill="#ffffff" stroke="transparent" points="686,-346.6587 686,-407.6587 812,-407.6587 812,-346.6587 686,-346.6587"/>
<polygon fill="#f5f5f5" stroke="transparent" points="686,-384.1587 686,-407.1587 812,-407.1587 812,-384.1587 686,-384.1587"/>
<polygon fill="none" stroke="#000000" points="686,-384.1587 686,-407.1587 812,-407.1587 812,-384.1587 686,-384.1587"/>
<text text-anchor="start" x="691" y="-393.2587" font-family="Helvetica,sans-Serif" font-weight="bold" font-size="11.00" fill="#000000">CONTACT</text>
<text text-anchor="start" x="777.0437" y="-392.2587" font-family="Helvetica,sans-Serif" font-size="11.00" fill="#000000">[table]</text>
<polygon fill="none" stroke="#000000" points="686,-365.1587 686,-384.1587 812,-384.1587 812,-365.1587 686,-365.1587"/>
<text text-anchor="start" x="689" y="-371.2587" font-family="Helvetica,sans-Serif" font-size="11.00" fill="#000000">...</text>
<polygon fill="#ffffff" stroke="transparent" points="686,-346.1587 686,-365.1587 713,-365.1587 713,-346.1587 686,-346.1587"/>
<polygon fill="none" stroke="#000000" points="686,-346.1587 686,-365.1587 713,-365.1587 713,-346.1587 686,-346.1587"/>
<text text-anchor="start" x="688.6452" y="-352.2587" font-family="Helvetica,sans-Serif" font-size="11.00" fill="#000000">&lt; 26</text>
<polygon fill="#ffffff" stroke="transparent" points="713,-346.1587 713,-365.1587 785,-365.1587 785,-346.1587 713,-346.1587"/>
<polygon fill="none" stroke="#000000" points="713,-346.1587 713,-365.1587 785,-365.1587 785,-346.1587 713,-346.1587"/>
<text text-anchor="start" x="715.9896" y="-352.2587" font-family="Helvetica,sans-Serif" font-size="11.00" fill="#000000">165,869 rows</text>
<polygon fill="#ffffff" stroke="transparent" points="785,-346.1587 785,-365.1587 812,-365.1587 812,-346.1587 785,-346.1587"/>
<polygon fill="none" stroke="#000000" points="785,-346.1587 785,-365.1587 812,-365.1587 812,-346.1587 785,-346.1587"/>
<text text-anchor="start" x="787.6452" y="-352.2587" font-family="Helvetica,sans-Serif" font-size="11.00" fill="#000000">14 &gt;</text>
</a>
</g>
</g>
<!-- ASSESSMENT&#45;&gt;CONTACT -->
<g id="edge5" class="edge">
<title>ASSESSMENT:w&#45;&gt;CONTACT:e</title>
<path fill="none" stroke="#000000" d="M932.601,-303.3484C878.752,-312.7097 874.8203,-374.1587 812,-374.1587"/>
<polygon fill="#000000" stroke="#000000" points="939.0272,-302.8175 947.2964,-305.7465 943.0136,-302.4881 947,-302.1587 947,-302.1587 947,-302.1587 943.0136,-302.4881 946.7036,-298.571 939.0272,-302.8175 939.0272,-302.8175"/>
<ellipse fill="none" stroke="#000000" cx="935.838" cy="-303.081" rx="3.2" ry="3.2"/>
</g>
<!-- CONTACT_REDEF -->
<g id="node7" class="node">
<title>CONTACT_REDEF</title>
<g id="a_node7"><a xlink:href="../../tables/CONTACT_REDEF.html" xlink:title="CONTACT_REDEF" target="_top">
<polygon fill="#ffffff" stroke="transparent" points="679.5,-236.6587 679.5,-297.6587 818.5,-297.6587 818.5,-236.6587 679.5,-236.6587"/>
<polygon fill="#f5f5f5" stroke="transparent" points="680,-274.1587 680,-297.1587 819,-297.1587 819,-274.1587 680,-274.1587"/>
<polygon fill="none" stroke="#000000" points="680,-274.1587 680,-297.1587 819,-297.1587 819,-274.1587 680,-274.1587"/>
<text text-anchor="start" x="684.7282" y="-283.2587" font-family="Helvetica,sans-Serif" font-weight="bold" font-size="11.00" fill="#000000">CONTACT_REDEF</text>
<text text-anchor="start" x="784.5219" y="-282.2587" font-family="Helvetica,sans-Serif" font-size="11.00" fill="#000000">[table]</text>
<polygon fill="none" stroke="#000000" points="680,-255.1587 680,-274.1587 819,-274.1587 819,-255.1587 680,-255.1587"/>
<text text-anchor="start" x="683" y="-261.2587" font-family="Helvetica,sans-Serif" font-size="11.00" fill="#000000">...</text>
<polygon fill="#ffffff" stroke="transparent" points="680,-236.1587 680,-255.1587 713,-255.1587 713,-236.1587 680,-236.1587"/>
<polygon fill="none" stroke="#000000" points="680,-236.1587 680,-255.1587 713,-255.1587 713,-236.1587 680,-236.1587"/>
<text text-anchor="start" x="683" y="-242.2587" font-family="Helvetica,sans-Serif" font-size="11.00" fill="#000000">&lt; 26</text>
<polygon fill="#ffffff" stroke="transparent" points="713,-236.1587 713,-255.1587 788,-255.1587 788,-236.1587 713,-236.1587"/>
<polygon fill="none" stroke="#000000" points="713,-236.1587 713,-255.1587 788,-255.1587 788,-236.1587 713,-236.1587"/>
<text text-anchor="start" x="718.9791" y="-242.2587" font-family="Helvetica,sans-Serif" font-size="11.00" fill="#000000">165,869 rows</text>
<polygon fill="#ffffff" stroke="transparent" points="788,-236.1587 788,-255.1587 819,-255.1587 819,-236.1587 788,-236.1587"/>
<polygon fill="none" stroke="#000000" points="788,-236.1587 788,-255.1587 819,-255.1587 819,-236.1587 788,-236.1587"/>
<text text-anchor="start" x="794.2904" y="-242.2587" font-family="Helvetica,sans-Serif" font-size="11.00" fill="#000000">14 &gt;</text>
</a>
</g>
</g>
<!-- ASSESSMENT&#45;&gt;CONTACT_REDEF -->
<g id="edge6" class="edge">
<title>ASSESSMENT:w&#45;&gt;CONTACT_REDEF:e</title>
<path fill="none" stroke="#000000" d="M932.4444,-301.3297C885.6334,-295.7726 873.1272,-264.1587 819,-264.1587"/>
<polygon fill="#000000" stroke="#000000" points="939.0129,-301.7038 946.7953,-305.7529 943.0065,-301.9313 947,-302.1587 947,-302.1587 947,-302.1587 943.0065,-301.9313 947.2047,-298.5646 939.0129,-301.7038 939.0129,-301.7038"/>
<ellipse fill="none" stroke="#000000" cx="935.8181" cy="-301.5218" rx="3.2" ry="3.2"/>
</g>
<!-- EVENT -->
<g id="node8" class="node">
<title>EVENT</title>
<g id="a_node8"><a xlink:href="../../tables/EVENT.html" xlink:title="EVENT" target="_top">
<polygon fill="#ffffff" stroke="transparent" points="415,-97.6587 415,-158.6587 528,-158.6587 528,-97.6587 415,-97.6587"/>
<polygon fill="#f5f5f5" stroke="transparent" points="415.5,-135.1587 415.5,-158.1587 528.5,-158.1587 528.5,-135.1587 415.5,-135.1587"/>
<polygon fill="none" stroke="#000000" points="415.5,-135.1587 415.5,-158.1587 528.5,-158.1587 528.5,-135.1587 415.5,-135.1587"/>
<text text-anchor="start" x="420.5" y="-144.2587" font-family="Helvetica,sans-Serif" font-weight="bold" font-size="11.00" fill="#000000">EVENT</text>
<text text-anchor="start" x="493.5437" y="-143.2587" font-family="Helvetica,sans-Serif" font-size="11.00" fill="#000000">[table]</text>
<polygon fill="none" stroke="#000000" points="415.5,-116.1587 415.5,-135.1587 528.5,-135.1587 528.5,-116.1587 415.5,-116.1587"/>
<text text-anchor="start" x="418.5" y="-122.2587" font-family="Helvetica,sans-Serif" font-size="11.00" fill="#000000">...</text>
<polygon fill="#ffffff" stroke="transparent" points="415.5,-97.1587 415.5,-116.1587 436.5,-116.1587 436.5,-97.1587 415.5,-97.1587"/>
<polygon fill="none" stroke="#000000" points="415.5,-97.1587 415.5,-116.1587 436.5,-116.1587 436.5,-97.1587 415.5,-97.1587"/>
<text text-anchor="start" x="418.2027" y="-103.2587" font-family="Helvetica,sans-Serif" font-size="11.00" fill="#000000">&lt; 5</text>
<polygon fill="#ffffff" stroke="transparent" points="436.5,-97.1587 436.5,-116.1587 501.5,-116.1587 501.5,-97.1587 436.5,-97.1587"/>
<polygon fill="none" stroke="#000000" points="436.5,-97.1587 436.5,-116.1587 501.5,-116.1587 501.5,-97.1587 436.5,-97.1587"/>
<text text-anchor="start" x="439.047" y="-103.2587" font-family="Helvetica,sans-Serif" font-size="11.00" fill="#000000">14,604 rows</text>
<polygon fill="#ffffff" stroke="transparent" points="501.5,-97.1587 501.5,-116.1587 528.5,-116.1587 528.5,-97.1587 501.5,-97.1587"/>
<polygon fill="none" stroke="#000000" points="501.5,-97.1587 501.5,-116.1587 528.5,-116.1587 528.5,-97.1587 501.5,-97.1587"/>
<text text-anchor="start" x="504.1452" y="-103.2587" font-family="Helvetica,sans-Serif" font-size="11.00" fill="#000000">28 &gt;</text>
</a>
</g>
</g>
<!-- ASSESSMENT&#45;&gt;EVENT -->
<g id="edge7" class="edge">
<title>ASSESSMENT:w&#45;&gt;EVENT:e</title>
<path fill="none" stroke="#000000" d="M932.6636,-277.7737C902.0018,-265.725 919.7134,-211.1836 882,-187.1587 747.4692,-101.4577 688.0093,-125.1587 528.5,-125.1587"/>
<polygon fill="#000000" stroke="#000000" points="939.1085,-278.8459 946.4092,-283.7099 943.0542,-279.5023 947,-280.1587 947,-280.1587 947,-280.1587 943.0542,-279.5023 947.5908,-276.6075 939.1085,-278.8459 939.1085,-278.8459"/>
<ellipse fill="none" stroke="#000000" cx="935.9518" cy="-278.3207" rx="3.2" ry="3.2"/>
</g>
<!-- OFFENDER -->
<g id="node9" class="node">
<title>OFFENDER</title>
<g id="a_node9"><a xlink:href="../../tables/OFFENDER.html" xlink:title="OFFENDER" target="_top">
<polygon fill="#ffffff" stroke="transparent" points="194,-288.6587 194,-349.6587 319,-349.6587 319,-288.6587 194,-288.6587"/>
<polygon fill="#f5f5f5" stroke="transparent" points="194.5,-326.1587 194.5,-349.1587 319.5,-349.1587 319.5,-326.1587 194.5,-326.1587"/>
<polygon fill="none" stroke="#000000" points="194.5,-326.1587 194.5,-349.1587 319.5,-349.1587 319.5,-326.1587 194.5,-326.1587"/>
<text text-anchor="start" x="199.5" y="-335.2587" font-family="Helvetica,sans-Serif" font-weight="bold" font-size="11.00" fill="#000000">OFFENDER</text>
<text text-anchor="start" x="284.5437" y="-334.2587" font-family="Helvetica,sans-Serif" font-size="11.00" fill="#000000">[table]</text>
<polygon fill="none" stroke="#000000" points="194.5,-307.1587 194.5,-326.1587 319.5,-326.1587 319.5,-307.1587 194.5,-307.1587"/>
<text text-anchor="start" x="197.5" y="-313.2587" font-family="Helvetica,sans-Serif" font-size="11.00" fill="#000000">...</text>
<polygon fill="#ffffff" stroke="transparent" points="194.5,-288.1587 194.5,-307.1587 221.5,-307.1587 221.5,-288.1587 194.5,-288.1587"/>
<polygon fill="none" stroke="#000000" points="194.5,-288.1587 194.5,-307.1587 221.5,-307.1587 221.5,-288.1587 194.5,-288.1587"/>
<text text-anchor="start" x="197.1452" y="-294.2587" font-family="Helvetica,sans-Serif" font-size="11.00" fill="#000000">&lt; 16</text>
<polygon fill="#ffffff" stroke="transparent" points="221.5,-288.1587 221.5,-307.1587 286.5,-307.1587 286.5,-288.1587 221.5,-288.1587"/>
<polygon fill="none" stroke="#000000" points="221.5,-288.1587 221.5,-307.1587 286.5,-307.1587 286.5,-288.1587 221.5,-288.1587"/>
<text text-anchor="start" x="224.047" y="-294.2587" font-family="Helvetica,sans-Serif" font-size="11.00" fill="#000000">18,527 rows</text>
<polygon fill="#ffffff" stroke="transparent" points="286.5,-288.1587 286.5,-307.1587 319.5,-307.1587 319.5,-288.1587 286.5,-288.1587"/>
<polygon fill="none" stroke="#000000" points="286.5,-288.1587 286.5,-307.1587 319.5,-307.1587 319.5,-288.1587 286.5,-288.1587"/>
<text text-anchor="start" x="289.0878" y="-294.2587" font-family="Helvetica,sans-Serif" font-size="11.00" fill="#000000">103 &gt;</text>
</a>
</g>
</g>
<!-- ASSESSMENT&#45;&gt;OFFENDER -->
<g id="edge8" class="edge">
<title>ASSESSMENT:w&#45;&gt;OFFENDER:e</title>
<path fill="none" stroke="#000000" d="M932.2444,-369.543C860.5805,-384.677 953.1575,-519.9509 882,-579.1587 790.5076,-655.2867 705.7717,-532.0091 616,-610.1587 572.0135,-648.4507 629.1326,-701.4814 583,-737.1587 504.5991,-797.7913 433.3609,-803.801 360,-737.1587 290.4316,-673.9616 413.4875,-316.1587 319.5,-316.1587"/>
<polygon fill="#000000" stroke="#000000" points="939.035,-368.906 947.3363,-371.743 943.0175,-368.5324 947,-368.1587 947,-368.1587 947,-368.1587 943.0175,-368.5324 946.6637,-364.5745 939.035,-368.906 939.035,-368.906"/>
<ellipse fill="none" stroke="#000000" cx="935.849" cy="-369.2049" rx="3.2" ry="3.2"/>
</g>
<!-- PARTITION_AREA -->
<g id="node10" class="node">
<title>PARTITION_AREA</title>
<g id="a_node10"><a xlink:href="../../tables/PARTITION_AREA.html" xlink:title="PARTITION_AREA" target="_top">
<polygon fill="#ffffff" stroke="transparent" points="8,-317.6587 8,-378.6587 145,-378.6587 145,-317.6587 8,-317.6587"/>
<polygon fill="#f5f5f5" stroke="transparent" points="8.5,-355.1587 8.5,-378.1587 145.5,-378.1587 145.5,-355.1587 8.5,-355.1587"/>
<polygon fill="none" stroke="#000000" points="8.5,-355.1587 8.5,-378.1587 145.5,-378.1587 145.5,-355.1587 8.5,-355.1587"/>
<text text-anchor="start" x="13.1362" y="-364.2587" font-family="Helvetica,sans-Serif" font-weight="bold" font-size="11.00" fill="#000000">PARTITION_AREA</text>
<text text-anchor="start" x="111.0219" y="-363.2587" font-family="Helvetica,sans-Serif" font-size="11.00" fill="#000000">[table]</text>
<polygon fill="none" stroke="#000000" points="8.5,-336.1587 8.5,-355.1587 145.5,-355.1587 145.5,-336.1587 8.5,-336.1587"/>
<text text-anchor="start" x="11.5" y="-342.2587" font-family="Helvetica,sans-Serif" font-size="11.00" fill="#000000">...</text>
<polygon fill="#ffffff" stroke="transparent" points="8.5,-317.1587 8.5,-336.1587 47.5,-336.1587 47.5,-317.1587 8.5,-317.1587"/>
<polygon fill="none" stroke="#000000" points="8.5,-317.1587 8.5,-336.1587 47.5,-336.1587 47.5,-317.1587 8.5,-317.1587"/>
<text text-anchor="start" x="11.5" y="-323.2587" font-family="Helvetica,sans-Serif" font-size="11.00" fill="#000000"> &#160;</text>
<polygon fill="#ffffff" stroke="transparent" points="47.5,-317.1587 47.5,-336.1587 104.5,-336.1587 104.5,-317.1587 47.5,-317.1587"/>
<polygon fill="none" stroke="#000000" points="47.5,-317.1587 47.5,-336.1587 104.5,-336.1587 104.5,-317.1587 47.5,-317.1587"/>
<text text-anchor="start" x="62.9956" y="-323.2587" font-family="Helvetica,sans-Serif" font-size="11.00" fill="#000000">44 rows</text>
<polygon fill="#ffffff" stroke="transparent" points="104.5,-317.1587 104.5,-336.1587 145.5,-336.1587 145.5,-317.1587 104.5,-317.1587"/>
<polygon fill="none" stroke="#000000" points="104.5,-317.1587 104.5,-336.1587 145.5,-336.1587 145.5,-317.1587 104.5,-317.1587"/>
<text text-anchor="start" x="120.7904" y="-323.2587" font-family="Helvetica,sans-Serif" font-size="11.00" fill="#000000">82 &gt;</text>
</a>
</g>
</g>
<!-- ASSESSMENT&#45;&gt;PARTITION_AREA -->
<g id="edge9" class="edge">
<title>ASSESSMENT:w&#45;&gt;PARTITION_AREA:e</title>
<path fill="none" stroke="#000000" d="M932.5511,-503.4221C859.3168,-540.3808 952.8779,-879.9619 882,-941.1587 837.2584,-979.7892 672.5671,-958.3137 616,-941.1587 368.8108,-866.1943 294.1758,-784.7225 186,-550.1587 166.5531,-507.9909 191.9361,-345.1587 145.5,-345.1587"/>
<polygon fill="#000000" stroke="#000000" points="939.1966,-501.9213 947.7931,-503.6703 943.0983,-501.04 947,-500.1587 947,-500.1587 947,-500.1587 943.0983,-501.04 946.2069,-496.6472 939.1966,-501.9213 939.1966,-501.9213"/>
<ellipse fill="none" stroke="#000000" cx="936.0752" cy="-502.6263" rx="3.2" ry="3.2"/>
</g>
<!-- PROVIDER_EMPLOYEE -->
<g id="node11" class="node">
<title>PROVIDER_EMPLOYEE</title>
<g id="a_node11"><a xlink:href="../../tables/PROVIDER_EMPLOYEE.html" xlink:title="PROVIDER_EMPLOYEE" target="_top">
<polygon fill="#ffffff" stroke="transparent" points="388,-480.6587 388,-541.6587 555,-541.6587 555,-480.6587 388,-480.6587"/>
<polygon fill="#f5f5f5" stroke="transparent" points="388.5,-518.1587 388.5,-541.1587 555.5,-541.1587 555.5,-518.1587 388.5,-518.1587"/>
<polygon fill="none" stroke="#000000" points="388.5,-518.1587 388.5,-541.1587 555.5,-541.1587 555.5,-518.1587 388.5,-518.1587"/>
<text text-anchor="start" x="393.4639" y="-527.2587" font-family="Helvetica,sans-Serif" font-weight="bold" font-size="11.00" fill="#000000">PROVIDER_EMPLOYEE</text>
<text text-anchor="start" x="521.0219" y="-526.2587" font-family="Helvetica,sans-Serif" font-size="11.00" fill="#000000">[table]</text>
<polygon fill="none" stroke="#000000" points="388.5,-499.1587 388.5,-518.1587 555.5,-518.1587 555.5,-499.1587 388.5,-499.1587"/>
<text text-anchor="start" x="391.5" y="-505.2587" font-family="Helvetica,sans-Serif" font-size="11.00" fill="#000000">...</text>
<polygon fill="#ffffff" stroke="transparent" points="388.5,-480.1587 388.5,-499.1587 452.5,-499.1587 452.5,-480.1587 388.5,-480.1587"/>
<polygon fill="none" stroke="#000000" points="388.5,-480.1587 388.5,-499.1587 452.5,-499.1587 452.5,-480.1587 388.5,-480.1587"/>
<text text-anchor="start" x="391.5" y="-486.2587" font-family="Helvetica,sans-Serif" font-size="11.00" fill="#000000">&lt; 2</text>
<polygon fill="#ffffff" stroke="transparent" points="452.5,-480.1587 452.5,-499.1587 506.5,-499.1587 506.5,-480.1587 452.5,-480.1587"/>
<polygon fill="none" stroke="#000000" points="452.5,-480.1587 452.5,-499.1587 506.5,-499.1587 506.5,-480.1587 452.5,-480.1587"/>
<text text-anchor="start" x="476.6105" y="-486.2587" font-family="Helvetica,sans-Serif" font-size="11.00" fill="#000000">1 row</text>
<polygon fill="#ffffff" stroke="transparent" points="506.5,-480.1587 506.5,-499.1587 555.5,-499.1587 555.5,-480.1587 506.5,-480.1587"/>
<polygon fill="none" stroke="#000000" points="506.5,-480.1587 506.5,-499.1587 555.5,-499.1587 555.5,-480.1587 506.5,-480.1587"/>
<text text-anchor="start" x="530.7904" y="-486.2587" font-family="Helvetica,sans-Serif" font-size="11.00" fill="#000000">23 &gt;</text>
</a>
</g>
</g>
<!-- ASSESSMENT&#45;&gt;PROVIDER_EMPLOYEE -->
<g id="edge10" class="edge">
<title>ASSESSMENT:w&#45;&gt;PROVIDER_EMPLOYEE:e</title>
<path fill="none" stroke="#000000" d="M932.7824,-519.6533C911.5647,-511.0702 910.9468,-482.8472 882,-473.1587 825.9453,-454.3973 673.0903,-457.8348 616,-473.1587 585.9977,-481.2118 586.5643,-508.1587 555.5,-508.1587"/>
<polygon fill="#000000" stroke="#000000" points="939.1214,-520.7703 946.3752,-525.7041 943.0607,-521.4645 947,-522.1587 947,-522.1587 947,-522.1587 943.0607,-521.4645 947.6248,-518.6134 939.1214,-520.7703 939.1214,-520.7703"/>
<ellipse fill="none" stroke="#000000" cx="935.9699" cy="-520.215" rx="3.2" ry="3.2"/>
</g>
<!-- PROVIDER_TEAM -->
<g id="node12" class="node">
<title>PROVIDER_TEAM</title>
<g id="a_node12"><a xlink:href="../../tables/PROVIDER_TEAM.html" xlink:title="PROVIDER_TEAM" target="_top">
<polygon fill="#ffffff" stroke="transparent" points="403,-398.6587 403,-459.6587 540,-459.6587 540,-398.6587 403,-398.6587"/>
<polygon fill="#f5f5f5" stroke="transparent" points="403.5,-436.1587 403.5,-459.1587 540.5,-459.1587 540.5,-436.1587 403.5,-436.1587"/>
<polygon fill="none" stroke="#000000" points="403.5,-436.1587 403.5,-459.1587 540.5,-459.1587 540.5,-436.1587 403.5,-436.1587"/>
<text text-anchor="start" x="408.4437" y="-445.2587" font-family="Helvetica,sans-Serif" font-weight="bold" font-size="11.00" fill="#000000">PROVIDER_TEAM</text>
<text text-anchor="start" x="506.0219" y="-444.2587" font-family="Helvetica,sans-Serif" font-size="11.00" fill="#000000">[table]</text>
<polygon fill="none" stroke="#000000" points="403.5,-417.1587 403.5,-436.1587 540.5,-436.1587 540.5,-417.1587 403.5,-417.1587"/>
<text text-anchor="start" x="406.5" y="-423.2587" font-family="Helvetica,sans-Serif" font-size="11.00" fill="#000000">...</text>
<polygon fill="#ffffff" stroke="transparent" points="403.5,-398.1587 403.5,-417.1587 452.5,-417.1587 452.5,-398.1587 403.5,-398.1587"/>
<polygon fill="none" stroke="#000000" points="403.5,-398.1587 403.5,-417.1587 452.5,-417.1587 452.5,-398.1587 403.5,-398.1587"/>
<text text-anchor="start" x="406.5" y="-404.2587" font-family="Helvetica,sans-Serif" font-size="11.00" fill="#000000">&lt; 2</text>
<polygon fill="#ffffff" stroke="transparent" points="452.5,-398.1587 452.5,-417.1587 498.5,-417.1587 498.5,-398.1587 452.5,-398.1587"/>
<polygon fill="none" stroke="#000000" points="452.5,-398.1587 452.5,-417.1587 498.5,-417.1587 498.5,-398.1587 452.5,-398.1587"/>
<text text-anchor="start" x="468.6105" y="-404.2587" font-family="Helvetica,sans-Serif" font-size="11.00" fill="#000000">1 row</text>
<polygon fill="#ffffff" stroke="transparent" points="498.5,-398.1587 498.5,-417.1587 540.5,-417.1587 540.5,-398.1587 498.5,-398.1587"/>
<polygon fill="none" stroke="#000000" points="498.5,-398.1587 498.5,-417.1587 540.5,-417.1587 540.5,-398.1587 498.5,-398.1587"/>
<text text-anchor="start" x="515.7904" y="-404.2587" font-family="Helvetica,sans-Serif" font-size="11.00" fill="#000000">25 &gt;</text>
</a>
</g>
</g>
<!-- ASSESSMENT&#45;&gt;PROVIDER_TEAM -->
<g id="edge11" class="edge">
<title>ASSESSMENT:w&#45;&gt;PROVIDER_TEAM:e</title>
<path fill="none" stroke="#000000" d="M932.4313,-455.7126C914.4608,-454.5194 905.405,-451.2064 882,-449.1587 730.4572,-435.9009 692.6216,-426.1587 540.5,-426.1587"/>
<polygon fill="#000000" stroke="#000000" points="939.0037,-455.9138 946.8898,-459.7571 943.0019,-456.0363 947,-456.1587 947,-456.1587 947,-456.1587 943.0019,-456.0363 947.1102,-452.5604 939.0037,-455.9138 939.0037,-455.9138"/>
<ellipse fill="none" stroke="#000000" cx="935.8052" cy="-455.8159" rx="3.2" ry="3.2"/>
</g>
<!-- REFERRAL -->
<g id="node13" class="node">
<title>REFERRAL</title>
<g id="a_node13"><a xlink:href="../../tables/REFERRAL.html" xlink:title="REFERRAL" target="_top">
<polygon fill="#ffffff" stroke="transparent" points="698.5,-483.6587 698.5,-544.6587 799.5,-544.6587 799.5,-483.6587 698.5,-483.6587"/>
<polygon fill="#f5f5f5" stroke="transparent" points="699,-521.1587 699,-544.1587 800,-544.1587 800,-521.1587 699,-521.1587"/>
<polygon fill="none" stroke="#000000" points="699,-521.1587 699,-544.1587 800,-544.1587 800,-521.1587 699,-521.1587"/>
<text text-anchor="start" x="703.6674" y="-530.2587" font-family="Helvetica,sans-Serif" font-weight="bold" font-size="11.00" fill="#000000">REFERRAL</text>
<text text-anchor="start" x="765.5219" y="-529.2587" font-family="Helvetica,sans-Serif" font-size="11.00" fill="#000000">[table]</text>
<polygon fill="none" stroke="#000000" points="699,-502.1587 699,-521.1587 800,-521.1587 800,-502.1587 699,-502.1587"/>
<text text-anchor="start" x="702" y="-508.2587" font-family="Helvetica,sans-Serif" font-size="11.00" fill="#000000">...</text>
<polygon fill="#ffffff" stroke="transparent" points="699,-483.1587 699,-502.1587 727,-502.1587 727,-483.1587 699,-483.1587"/>
<polygon fill="none" stroke="#000000" points="699,-483.1587 699,-502.1587 727,-502.1587 727,-483.1587 699,-483.1587"/>
<text text-anchor="start" x="702" y="-489.2587" font-family="Helvetica,sans-Serif" font-size="11.00" fill="#000000">&lt; 13</text>
<polygon fill="#ffffff" stroke="transparent" points="727,-483.1587 727,-502.1587 778,-502.1587 778,-483.1587 727,-483.1587"/>
<polygon fill="none" stroke="#000000" points="727,-483.1587 727,-502.1587 778,-502.1587 778,-483.1587 727,-483.1587"/>
<text text-anchor="start" x="730.3807" y="-489.2587" font-family="Helvetica,sans-Serif" font-size="11.00" fill="#000000">888 rows</text>
<polygon fill="#ffffff" stroke="transparent" points="778,-483.1587 778,-502.1587 800,-502.1587 800,-483.1587 778,-483.1587"/>
<polygon fill="none" stroke="#000000" points="778,-483.1587 778,-502.1587 800,-502.1587 800,-483.1587 778,-483.1587"/>
<text text-anchor="start" x="781.4053" y="-489.2587" font-family="Helvetica,sans-Serif" font-size="11.00" fill="#000000">1 &gt;</text>
</a>
</g>
</g>
<!-- ASSESSMENT&#45;&gt;REFERRAL -->
<g id="edge12" class="edge">
<title>ASSESSMENT:w&#45;&gt;REFERRAL:e</title>
<path fill="none" stroke="#000000" d="M932.4924,-587.0702C872.9505,-577.7113 868.5679,-511.1587 800,-511.1587"/>
<polygon fill="#000000" stroke="#000000" points="939.0224,-587.5601 946.7306,-591.7487 943.0112,-587.8594 947,-588.1587 947,-588.1587 947,-588.1587 943.0112,-587.8594 947.2694,-584.5688 939.0224,-587.5601 939.0224,-587.5601"/>
<ellipse fill="none" stroke="#000000" cx="935.8314" cy="-587.3207" rx="3.2" ry="3.2"/>
</g>
<!-- STAFF -->
<g id="node14" class="node">
<title>STAFF</title>
<g id="a_node14"><a xlink:href="../../tables/STAFF.html" xlink:title="STAFF" target="_top">
<polygon fill="#ffffff" stroke="transparent" points="418,-562.6587 418,-623.6587 525,-623.6587 525,-562.6587 418,-562.6587"/>
<polygon fill="#f5f5f5" stroke="transparent" points="418.5,-600.1587 418.5,-623.1587 525.5,-623.1587 525.5,-600.1587 418.5,-600.1587"/>
<polygon fill="none" stroke="#000000" points="418.5,-600.1587 418.5,-623.1587 525.5,-623.1587 525.5,-600.1587 418.5,-600.1587"/>
<text text-anchor="start" x="423.5" y="-609.2587" font-family="Helvetica,sans-Serif" font-weight="bold" font-size="11.00" fill="#000000">STAFF</text>
<text text-anchor="start" x="490.5437" y="-608.2587" font-family="Helvetica,sans-Serif" font-size="11.00" fill="#000000">[table]</text>
<polygon fill="none" stroke="#000000" points="418.5,-581.1587 418.5,-600.1587 525.5,-600.1587 525.5,-581.1587 418.5,-581.1587"/>
<text text-anchor="start" x="421.5" y="-587.2587" font-family="Helvetica,sans-Serif" font-size="11.00" fill="#000000">...</text>
<polygon fill="#ffffff" stroke="transparent" points="418.5,-562.1587 418.5,-581.1587 439.5,-581.1587 439.5,-562.1587 418.5,-562.1587"/>
<polygon fill="none" stroke="#000000" points="418.5,-562.1587 418.5,-581.1587 439.5,-581.1587 439.5,-562.1587 418.5,-562.1587"/>
<text text-anchor="start" x="421.2027" y="-568.2587" font-family="Helvetica,sans-Serif" font-size="11.00" fill="#000000">&lt; 4</text>
<polygon fill="#ffffff" stroke="transparent" points="439.5,-562.1587 439.5,-581.1587 498.5,-581.1587 498.5,-562.1587 439.5,-562.1587"/>
<polygon fill="none" stroke="#000000" points="439.5,-562.1587 439.5,-581.1587 498.5,-581.1587 498.5,-562.1587 439.5,-562.1587"/>
<text text-anchor="start" x="442.1045" y="-568.2587" font-family="Helvetica,sans-Serif" font-size="11.00" fill="#000000">3,352 rows</text>
<polygon fill="#ffffff" stroke="transparent" points="498.5,-562.1587 498.5,-581.1587 525.5,-581.1587 525.5,-562.1587 498.5,-562.1587"/>
<polygon fill="none" stroke="#000000" points="498.5,-562.1587 498.5,-581.1587 525.5,-581.1587 525.5,-562.1587 498.5,-562.1587"/>
<text text-anchor="start" x="501.1452" y="-568.2587" font-family="Helvetica,sans-Serif" font-size="11.00" fill="#000000">59 &gt;</text>
</a>
</g>
</g>
<!-- ASSESSMENT&#45;&gt;STAFF -->
<g id="edge13" class="edge">
<title>ASSESSMENT:w&#45;&gt;STAFF:e</title>
<path fill="none" stroke="#000000" d="M932.6101,-544.8415C914.4165,-546.7154 905.5965,-552.0077 882,-555.1587 803.0973,-565.6953 605.1031,-590.1587 525.5,-590.1587"/>
<polygon fill="#000000" stroke="#000000" points="939.009,-544.538 947.1707,-547.7547 943.0045,-544.3484 947,-544.1587 947,-544.1587 947,-544.1587 943.0045,-544.3484 946.8293,-540.5628 939.009,-544.538 939.009,-544.538"/>
<ellipse fill="none" stroke="#000000" cx="935.8126" cy="-544.6897" rx="3.2" ry="3.2"/>
</g>
<!-- TEAM -->
<g id="node15" class="node">
<title>TEAM</title>
<g id="a_node15"><a xlink:href="../../tables/TEAM.html" xlink:title="TEAM" target="_top">
<polygon fill="#ffffff" stroke="transparent" points="418,-644.6587 418,-705.6587 525,-705.6587 525,-644.6587 418,-644.6587"/>
<polygon fill="#f5f5f5" stroke="transparent" points="418.5,-682.1587 418.5,-705.1587 525.5,-705.1587 525.5,-682.1587 418.5,-682.1587"/>
<polygon fill="none" stroke="#000000" points="418.5,-682.1587 418.5,-705.1587 525.5,-705.1587 525.5,-682.1587 418.5,-682.1587"/>
<text text-anchor="start" x="423.5" y="-691.2587" font-family="Helvetica,sans-Serif" font-weight="bold" font-size="11.00" fill="#000000">TEAM</text>
<text text-anchor="start" x="490.5437" y="-690.2587" font-family="Helvetica,sans-Serif" font-size="11.00" fill="#000000">[table]</text>
<polygon fill="none" stroke="#000000" points="418.5,-663.1587 418.5,-682.1587 525.5,-682.1587 525.5,-663.1587 418.5,-663.1587"/>
<text text-anchor="start" x="421.5" y="-669.2587" font-family="Helvetica,sans-Serif" font-size="11.00" fill="#000000">...</text>
<polygon fill="#ffffff" stroke="transparent" points="418.5,-644.1587 418.5,-663.1587 439.5,-663.1587 439.5,-644.1587 418.5,-644.1587"/>
<polygon fill="none" stroke="#000000" points="418.5,-644.1587 418.5,-663.1587 439.5,-663.1587 439.5,-644.1587 418.5,-644.1587"/>
<text text-anchor="start" x="421.2027" y="-650.2587" font-family="Helvetica,sans-Serif" font-size="11.00" fill="#000000">&lt; 4</text>
<polygon fill="#ffffff" stroke="transparent" points="439.5,-644.1587 439.5,-663.1587 498.5,-663.1587 498.5,-644.1587 439.5,-644.1587"/>
<polygon fill="none" stroke="#000000" points="439.5,-644.1587 439.5,-663.1587 498.5,-663.1587 498.5,-644.1587 439.5,-644.1587"/>
<text text-anchor="start" x="442.1045" y="-650.2587" font-family="Helvetica,sans-Serif" font-size="11.00" fill="#000000">1,458 rows</text>
<polygon fill="#ffffff" stroke="transparent" points="498.5,-644.1587 498.5,-663.1587 525.5,-663.1587 525.5,-644.1587 498.5,-644.1587"/>
<polygon fill="none" stroke="#000000" points="498.5,-644.1587 498.5,-663.1587 525.5,-663.1587 525.5,-644.1587 498.5,-644.1587"/>
<text text-anchor="start" x="501.1452" y="-650.2587" font-family="Helvetica,sans-Serif" font-size="11.00" fill="#000000">63 &gt;</text>
</a>
</g>
</g>
<!-- ASSESSMENT&#45;&gt;TEAM -->
<g id="edge14" class="edge">
<title>ASSESSMENT:w&#45;&gt;TEAM:e</title>
<path fill="none" stroke="#000000" d="M932.7238,-569.0218C850.2126,-605.6339 959.695,-982.2005 882,-1050.1587 793.0146,-1127.9925 708.819,-1123.3784 616,-1050.1587 480.3716,-943.1692 698.2479,-672.1587 525.5,-672.1587"/>
<polygon fill="#000000" stroke="#000000" points="939.1562,-567.7319 947.7079,-569.6885 943.0781,-566.9453 947,-566.1587 947,-566.1587 947,-566.1587 943.0781,-566.9453 946.2921,-562.629 939.1562,-567.7319 939.1562,-567.7319"/>
<ellipse fill="none" stroke="#000000" cx="936.0187" cy="-568.3611" rx="3.2" ry="3.2"/>
</g>
<!-- CONTACT&#45;&gt;R_ENFORCEMENT_ACTION -->
<g id="edge17" class="edge">
<title>CONTACT:w&#45;&gt;R_ENFORCEMENT_ACTION:e</title>
<path fill="none" stroke="#000000" d="M671.3647,-372.6459C642.3686,-365.9694 638.1017,-338.1399 616,-308.1587 586.337,-267.9205 616.4901,-207.1587 566.5,-207.1587"/>
<polygon fill="#000000" stroke="#000000" points="678.0424,-373.3361 685.6298,-377.7397 682.0212,-373.7474 686,-374.1587 686,-374.1587 686,-374.1587 682.0212,-373.7474 686.3702,-370.5778 678.0424,-373.3361 678.0424,-373.3361"/>
<ellipse fill="none" stroke="#000000" cx="674.8594" cy="-373.0071" rx="3.2" ry="3.2"/>
</g>
<!-- CONTACT&#45;&gt;R_CONTACT_OUTCOME_TYPE -->
<g id="edge15" class="edge">
<title>CONTACT:w&#45;&gt;R_CONTACT_OUTCOME_TYPE:e</title>
<path fill="none" stroke="#000000" d="M671.3747,-372.8743C647.5262,-368.2132 639.9547,-351.4459 616,-332.1587 595.5511,-315.6943 601.7533,-289.1587 575.5,-289.1587"/>
<polygon fill="#000000" stroke="#000000" points="678.0307,-373.4588 685.685,-377.7449 682.0153,-373.8088 686,-374.1587 686,-374.1587 686,-374.1587 682.0153,-373.8088 686.315,-370.5725 678.0307,-373.4588 678.0307,-373.4588"/>
<ellipse fill="none" stroke="#000000" cx="674.8429" cy="-373.1789" rx="3.2" ry="3.2"/>
</g>
<!-- CONTACT&#45;&gt;EVENT -->
<g id="edge16" class="edge">
<title>CONTACT:w&#45;&gt;EVENT:e</title>
<path fill="none" stroke="#000000" d="M671.3726,-372.9932C563.0354,-354.6185 654.204,-125.1587 528.5,-125.1587"/>
<polygon fill="#000000" stroke="#000000" points="678.0253,-373.5232 685.714,-377.7474 682.0126,-373.841 686,-374.1587 686,-374.1587 686,-374.1587 682.0126,-373.841 686.286,-370.5701 678.0253,-373.5232 678.0253,-373.5232"/>
<ellipse fill="none" stroke="#000000" cx="674.8354" cy="-373.269" rx="3.2" ry="3.2"/>
</g>
<!-- CONTACT&#45;&gt;OFFENDER -->
<g id="edge18" class="edge">
<title>CONTACT:w&#45;&gt;OFFENDER:e</title>
<path fill="none" stroke="#000000" d="M671.3809,-372.9867C608.5617,-366.7274 375.74,-337.3672 360,-333.1587 341.141,-328.1163 339.0214,-316.1587 319.5,-316.1587"/>
<polygon fill="#000000" stroke="#000000" points="678.0256,-373.5194 685.7123,-377.7472 682.0128,-373.8391 686,-374.1587 686,-374.1587 686,-374.1587 682.0128,-373.8391 686.2877,-370.5703 678.0256,-373.5194 678.0256,-373.5194"/>
<ellipse fill="none" stroke="#000000" cx="674.8358" cy="-373.2636" rx="3.2" ry="3.2"/>
</g>
<!-- CONTACT&#45;&gt;PARTITION_AREA -->
<g id="edge19" class="edge">
<title>CONTACT:w&#45;&gt;PARTITION_AREA:e</title>
<path fill="none" stroke="#000000" d="M671.5783,-374.1987C461.002,-375.3674 399.4563,-401.5093 186,-360.1587 167.1554,-356.5082 164.6949,-345.1587 145.5,-345.1587"/>
<polygon fill="#000000" stroke="#000000" points="678,-374.1809 686.01,-377.7587 682,-374.1698 686,-374.1587 686,-374.1587 686,-374.1587 682,-374.1698 685.99,-370.5588 678,-374.1809 678,-374.1809"/>
<ellipse fill="none" stroke="#000000" cx="674.8" cy="-374.1898" rx="3.2" ry="3.2"/>
</g>
<!-- CONTACT&#45;&gt;PROVIDER_EMPLOYEE -->
<g id="edge20" class="edge">
<title>CONTACT:w&#45;&gt;PROVIDER_EMPLOYEE:e</title>
<path fill="none" stroke="#000000" d="M672.1682,-378.6172C634.1418,-401.8682 592.5195,-508.1587 555.5,-508.1587"/>
<polygon fill="#000000" stroke="#000000" points="678.3858,-376.6131 687.1044,-377.5851 682.1929,-375.3859 686,-374.1587 686,-374.1587 686,-374.1587 682.1929,-375.3859 684.8956,-370.7323 678.3858,-376.6131 678.3858,-376.6131"/>
<ellipse fill="none" stroke="#000000" cx="675.3401" cy="-377.5948" rx="3.2" ry="3.2"/>
</g>
<!-- CONTACT&#45;&gt;PROVIDER_TEAM -->
<g id="edge21" class="edge">
<title>CONTACT:w&#45;&gt;PROVIDER_TEAM:e</title>
<path fill="none" stroke="#000000" d="M671.3072,-375.0179C615.7341,-381.7789 603.9415,-426.1587 540.5,-426.1587"/>
<polygon fill="#000000" stroke="#000000" points="678.0136,-374.6258 686.2102,-377.7526 682.0068,-374.3923 686,-374.1587 686,-374.1587 686,-374.1587 682.0068,-374.3923 685.7898,-370.5649 678.0136,-374.6258 678.0136,-374.6258"/>
<ellipse fill="none" stroke="#000000" cx="674.8191" cy="-374.8126" rx="3.2" ry="3.2"/>
</g>
<!-- CONTACT&#45;&gt;STAFF -->
<g id="edge22" class="edge">
<title>CONTACT:w&#45;&gt;STAFF:e</title>
<path fill="none" stroke="#000000" d="M671.3475,-375.3735C572.9331,-392.726 639.8453,-590.1587 525.5,-590.1587"/>
<polygon fill="#000000" stroke="#000000" points="678.0274,-374.8198 686.2975,-377.7464 682.0137,-374.4893 686,-374.1587 686,-374.1587 686,-374.1587 682.0137,-374.4893 685.7025,-370.5711 678.0274,-374.8198 678.0274,-374.8198"/>
<ellipse fill="none" stroke="#000000" cx="674.8383" cy="-375.0842" rx="3.2" ry="3.2"/>
</g>
<!-- CONTACT&#45;&gt;TEAM -->
<g id="edge23" class="edge">
<title>CONTACT:w&#45;&gt;TEAM:e</title>
<path fill="none" stroke="#000000" d="M671.5707,-375.1794C544.8229,-394.1817 670.7909,-672.1587 525.5,-672.1587"/>
<polygon fill="#000000" stroke="#000000" points="678.0199,-374.7232 686.254,-377.7498 682.01,-374.441 686,-374.1587 686,-374.1587 686,-374.1587 682.01,-374.441 685.746,-370.5677 678.0199,-374.7232 678.0199,-374.7232"/>
<ellipse fill="none" stroke="#000000" cx="674.8279" cy="-374.949" rx="3.2" ry="3.2"/>
</g>
<!-- CONTACT_REDEF&#45;&gt;R_ENFORCEMENT_ACTION -->
<g id="edge26" class="edge">
<title>CONTACT_REDEF:w&#45;&gt;R_ENFORCEMENT_ACTION:e</title>
<path fill="none" stroke="#000000" d="M665.5043,-262.7497C622.9477,-253.9722 617.6563,-207.1587 566.5,-207.1587"/>
<polygon fill="#000000" stroke="#000000" points="672.0375,-263.3847 679.6517,-267.7419 676.0188,-263.7717 680,-264.1587 680,-264.1587 680,-264.1587 676.0188,-263.7717 680.3483,-260.5756 672.0375,-263.3847 672.0375,-263.3847"/>
<ellipse fill="none" stroke="#000000" cx="668.8525" cy="-263.0751" rx="3.2" ry="3.2"/>
</g>
<!-- CONTACT_REDEF&#45;&gt;R_CONTACT_OUTCOME_TYPE -->
<g id="edge24" class="edge">
<title>CONTACT_REDEF:w&#45;&gt;R_CONTACT_OUTCOME_TYPE:e</title>
<path fill="none" stroke="#000000" d="M665.6202,-264.9905C629.8147,-269.3284 618.0318,-289.1587 575.5,-289.1587"/>
<polygon fill="#000000" stroke="#000000" points="672.0134,-264.6208 680.2079,-267.7527 676.0067,-264.3898 680,-264.1587 680,-264.1587 680,-264.1587 676.0067,-264.3898 679.7921,-260.5648 672.0134,-264.6208 672.0134,-264.6208"/>
<ellipse fill="none" stroke="#000000" cx="668.8187" cy="-264.8056" rx="3.2" ry="3.2"/>
</g>
<!-- CONTACT_REDEF&#45;&gt;EVENT -->
<g id="edge25" class="edge">
<title>CONTACT_REDEF:w&#45;&gt;EVENT:e</title>
<path fill="none" stroke="#000000" d="M665.6083,-262.8715C591.7679,-248.8586 614.704,-125.1587 528.5,-125.1587"/>
<polygon fill="#000000" stroke="#000000" points="672.0318,-263.446 679.6792,-267.7444 676.0159,-263.8024 680,-264.1587 680,-264.1587 680,-264.1587 676.0159,-263.8024 680.3208,-260.5731 672.0318,-263.446 672.0318,-263.446"/>
<ellipse fill="none" stroke="#000000" cx="668.8445" cy="-263.1609" rx="3.2" ry="3.2"/>
</g>
<!-- CONTACT_REDEF&#45;&gt;OFFENDER -->
<g id="edge27" class="edge">
<title>CONTACT_REDEF:w&#45;&gt;OFFENDER:e</title>
<path fill="none" stroke="#000000" d="M665.393,-262.763C598.2187,-248.5746 655.5094,-130.1059 583,-87.1587 540.3622,-61.9045 397.9699,-55.3148 360,-87.1587 280.8067,-153.5752 422.8572,-316.1587 319.5,-316.1587"/>
<polygon fill="#000000" stroke="#000000" points="672.0363,-263.3978 679.6576,-267.7424 676.0181,-263.7782 680,-264.1587 680,-264.1587 680,-264.1587 676.0181,-263.7782 680.3424,-260.5751 672.0363,-263.3978 672.0363,-263.3978"/>
<ellipse fill="none" stroke="#000000" cx="668.8508" cy="-263.0934" rx="3.2" ry="3.2"/>
</g>
<!-- CONTACT_REDEF&#45;&gt;PARTITION_AREA -->
<g id="edge28" class="edge">
<title>CONTACT_REDEF:w&#45;&gt;PARTITION_AREA:e</title>
<path fill="none" stroke="#000000" d="M665.3316,-262.8684C589.7274,-248.2283 662.4155,-113.0133 583,-63.1587 499.0586,-10.4629 456.919,-42.4293 360,-63.1587 277.1264,-80.8841 238.8051,-74.8727 186,-141.1587 128.4045,-213.4582 237.9362,-345.1587 145.5,-345.1587"/>
<polygon fill="#000000" stroke="#000000" points="672.0308,-263.4577 679.6845,-267.7449 676.0154,-263.8082 680,-264.1587 680,-264.1587 680,-264.1587 676.0154,-263.8082 680.3155,-260.5726 672.0308,-263.4577 672.0308,-263.4577"/>
<ellipse fill="none" stroke="#000000" cx="668.8431" cy="-263.1772" rx="3.2" ry="3.2"/>
</g>
<!-- CONTACT_REDEF&#45;&gt;PROVIDER_EMPLOYEE -->
<g id="edge29" class="edge">
<title>CONTACT_REDEF:w&#45;&gt;PROVIDER_EMPLOYEE:e</title>
<path fill="none" stroke="#000000" d="M665.3853,-265.7939C636.5503,-273.0142 633.3562,-303.1479 616,-336.1587 578.2884,-407.8846 636.5356,-508.1587 555.5,-508.1587"/>
<polygon fill="#000000" stroke="#000000" points="672.0496,-265.0483 680.4003,-267.7364 676.0248,-264.6035 680,-264.1587 680,-264.1587 680,-264.1587 676.0248,-264.6035 679.5997,-260.5811 672.0496,-265.0483 672.0496,-265.0483"/>
<ellipse fill="none" stroke="#000000" cx="668.8695" cy="-265.4042" rx="3.2" ry="3.2"/>
</g>
<!-- CONTACT_REDEF&#45;&gt;PROVIDER_TEAM -->
<g id="edge30" class="edge">
<title>CONTACT_REDEF:w&#45;&gt;PROVIDER_TEAM:e</title>
<path fill="none" stroke="#000000" d="M665.2027,-265.659C590.2416,-281.9906 630.134,-426.1587 540.5,-426.1587"/>
<polygon fill="#000000" stroke="#000000" points="672.0408,-264.9658 680.3632,-267.7404 676.0204,-264.5623 680,-264.1587 680,-264.1587 680,-264.1587 676.0204,-264.5623 679.6368,-260.5771 672.0408,-264.9658 672.0408,-264.9658"/>
<ellipse fill="none" stroke="#000000" cx="668.8571" cy="-265.2886" rx="3.2" ry="3.2"/>
</g>
<!-- CONTACT_REDEF&#45;&gt;STAFF -->
<g id="edge31" class="edge">
<title>CONTACT_REDEF:w&#45;&gt;STAFF:e</title>
<path fill="none" stroke="#000000" d="M665.4941,-265.1526C530.0345,-284.8319 680.6697,-590.1587 525.5,-590.1587"/>
<polygon fill="#000000" stroke="#000000" points="672.0187,-264.7056 680.2461,-267.7503 676.0094,-264.4322 680,-264.1587 680,-264.1587 680,-264.1587 676.0094,-264.4322 679.7539,-260.5672 672.0187,-264.7056 672.0187,-264.7056"/>
<ellipse fill="none" stroke="#000000" cx="668.8262" cy="-264.9244" rx="3.2" ry="3.2"/>
</g>
<!-- CONTACT_REDEF&#45;&gt;TEAM -->
<g id="edge32" class="edge">
<title>CONTACT_REDEF:w&#45;&gt;TEAM:e</title>
<path fill="none" stroke="#000000" d="M665.5376,-264.9947C498.1067,-285.3907 714.2866,-672.1587 525.5,-672.1587"/>
<polygon fill="#000000" stroke="#000000" points="672.0133,-264.6205 680.2078,-267.7527 676.0067,-264.3896 680,-264.1587 680,-264.1587 680,-264.1587 676.0067,-264.3896 679.7922,-260.5647 672.0133,-264.6205 672.0133,-264.6205"/>
<ellipse fill="none" stroke="#000000" cx="668.8187" cy="-264.8052" rx="3.2" ry="3.2"/>
</g>
<!-- EVENT&#45;&gt;OFFENDER -->
<g id="edge33" class="edge">
<title>EVENT:w&#45;&gt;OFFENDER:e</title>
<path fill="none" stroke="#000000" d="M401.0087,-126.7539C381.3531,-131.6617 374.3192,-147.5233 360,-169.1587 322.5984,-225.6704 387.2676,-316.1587 319.5,-316.1587"/>
<polygon fill="#000000" stroke="#000000" points="407.548,-126.0341 415.8939,-128.7371 411.524,-125.5964 415.5,-125.1587 415.5,-125.1587 415.5,-125.1587 411.524,-125.5964 415.1061,-121.5804 407.548,-126.0341 407.548,-126.0341"/>
<ellipse fill="none" stroke="#000000" cx="404.3672" cy="-126.3843" rx="3.2" ry="3.2"/>
</g>
<!-- EVENT&#45;&gt;PARTITION_AREA -->
<g id="edge34" class="edge">
<title>EVENT:w&#45;&gt;PARTITION_AREA:e</title>
<path fill="none" stroke="#000000" d="M400.9114,-125.4811C290.9874,-130.4837 267.2666,-193.2102 186,-278.1587 161.9469,-303.3016 180.2953,-345.1587 145.5,-345.1587"/>
<polygon fill="#000000" stroke="#000000" points="407.502,-125.3355 415.5795,-128.7579 411.501,-125.2471 415.5,-125.1587 415.5,-125.1587 415.5,-125.1587 411.501,-125.2471 415.4205,-121.5596 407.502,-125.3355 407.502,-125.3355"/>
<ellipse fill="none" stroke="#000000" cx="404.3027" cy="-125.4062" rx="3.2" ry="3.2"/>
</g>
<!-- OFFENDER&#45;&gt;PARTITION_AREA -->
<g id="edge35" class="edge">
<title>OFFENDER:w&#45;&gt;PARTITION_AREA:e</title>
<path fill="none" stroke="#000000" d="M180.4495,-320.1911C168.471,-328.1595 164.8749,-345.1587 145.5,-345.1587"/>
<polygon fill="#000000" stroke="#000000" points="186.8104,-318.3656 195.4931,-319.6191 190.6552,-317.2622 194.5,-316.1587 194.5,-316.1587 194.5,-316.1587 190.6552,-317.2622 193.5069,-312.6984 186.8104,-318.3656 186.8104,-318.3656"/>
<ellipse fill="none" stroke="#000000" cx="183.7346" cy="-319.2484" rx="3.2" ry="3.2"/>
</g>
<!-- REFERRAL&#45;&gt;R_ENFORCEMENT_ACTION -->
<g id="edge38" class="edge">
<title>REFERRAL:w&#45;&gt;R_ENFORCEMENT_ACTION:e</title>
<path fill="none" stroke="#000000" d="M684.4711,-509.9987C642.8426,-502.7942 638.3249,-463.0082 616,-418.1587 573.0762,-331.9275 662.8238,-207.1587 566.5,-207.1587"/>
<polygon fill="#000000" stroke="#000000" points="691.0254,-510.522 698.7135,-514.7473 695.0127,-510.8404 699,-511.1587 699,-511.1587 699,-511.1587 695.0127,-510.8404 699.2865,-507.5702 691.0254,-510.522 691.0254,-510.522"/>
<ellipse fill="none" stroke="#000000" cx="687.8355" cy="-510.2673" rx="3.2" ry="3.2"/>
</g>
<!-- REFERRAL&#45;&gt;R_CONTACT_OUTCOME_TYPE -->
<g id="edge39" class="edge">
<title>REFERRAL:w&#45;&gt;R_CONTACT_OUTCOME_TYPE:e</title>
<path fill="none" stroke="#000000" d="M684.5374,-509.9635C643.3043,-502.5484 640.7374,-461.724 616,-418.1587 586.3279,-365.9029 635.5925,-289.1587 575.5,-289.1587"/>
<polygon fill="#000000" stroke="#000000" points="691.0272,-510.4998 698.7035,-514.7465 695.0136,-510.8293 699,-511.1587 699,-511.1587 699,-511.1587 695.0136,-510.8293 699.2965,-507.571 691.0272,-510.4998 691.0272,-510.4998"/>
<ellipse fill="none" stroke="#000000" cx="687.8381" cy="-510.2362" rx="3.2" ry="3.2"/>
</g>
<!-- REFERRAL&#45;&gt;EVENT -->
<g id="edge40" class="edge">
<title>REFERRAL:w&#45;&gt;EVENT:e</title>
<path fill="none" stroke="#000000" d="M684.4789,-510.3087C522.3492,-490.338 710.918,-125.1587 528.5,-125.1587"/>
<polygon fill="#000000" stroke="#000000" points="691.0137,-510.6912 698.7896,-514.7526 695.0068,-510.925 699,-511.1587 699,-511.1587 699,-511.1587 695.0068,-510.925 699.2104,-507.5649 691.0137,-510.6912 691.0137,-510.6912"/>
<ellipse fill="none" stroke="#000000" cx="687.8191" cy="-510.5042" rx="3.2" ry="3.2"/>
</g>
<!-- REFERRAL&#45;&gt;OFFENDER -->
<g id="edge41" class="edge">
<title>REFERRAL:w&#45;&gt;OFFENDER:e</title>
<path fill="none" stroke="#000000" d="M684.6031,-512.2144C647.4733,-518.1094 638.9533,-548.0651 616,-586.1587 585.2351,-637.2166 630.0514,-679.5589 583,-716.1587 543.885,-746.5852 396.7637,-749.388 360,-716.1587 293.7191,-656.2499 408.8434,-316.1587 319.5,-316.1587"/>
<polygon fill="#000000" stroke="#000000" points="691.0214,-511.7438 699.2633,-514.7491 695.0107,-511.4513 699,-511.1587 699,-511.1587 699,-511.1587 695.0107,-511.4513 698.7367,-507.5684 691.0214,-511.7438 691.0214,-511.7438"/>
<ellipse fill="none" stroke="#000000" cx="687.83" cy="-511.9778" rx="3.2" ry="3.2"/>
</g>
<!-- REFERRAL&#45;&gt;PARTITION_AREA -->
<g id="edge42" class="edge">
<title>REFERRAL:w&#45;&gt;PARTITION_AREA:e</title>
<path fill="none" stroke="#000000" d="M684.5917,-512.3366C641.4879,-519.9906 639.8936,-563.8079 616,-610.1587 589.2785,-661.9955 629.1326,-701.4814 583,-737.1587 504.5991,-797.7913 445.2594,-787.6943 360,-737.1587 317.2891,-711.8428 195.1499,-345.1587 145.5,-345.1587"/>
<polygon fill="#000000" stroke="#000000" points="691.0266,-511.8106 699.2933,-514.7468 695.0133,-511.4847 699,-511.1587 699,-511.1587 699,-511.1587 695.0133,-511.4847 698.7067,-507.5707 691.0266,-511.8106 691.0266,-511.8106"/>
<ellipse fill="none" stroke="#000000" cx="687.8372" cy="-512.0713" rx="3.2" ry="3.2"/>
</g>
<!-- REFERRAL&#45;&gt;PROVIDER_EMPLOYEE -->
<g id="edge43" class="edge">
<title>REFERRAL:w&#45;&gt;PROVIDER_EMPLOYEE:e</title>
<path fill="none" stroke="#000000" d="M684.5469,-511.1041C632.3521,-510.6975 614.1834,-508.1587 555.5,-508.1587"/>
<polygon fill="#000000" stroke="#000000" points="691.0001,-511.1284 698.9864,-514.7587 695,-511.1436 699,-511.1587 699,-511.1587 699,-511.1587 695,-511.1436 699.0136,-507.5588 691.0001,-511.1284 691.0001,-511.1284"/>
<ellipse fill="none" stroke="#000000" cx="687.8001" cy="-511.1163" rx="3.2" ry="3.2"/>
</g>
<!-- REFERRAL&#45;&gt;PROVIDER_TEAM -->
<g id="edge44" class="edge">
<title>REFERRAL:w&#45;&gt;PROVIDER_TEAM:e</title>
<path fill="none" stroke="#000000" d="M684.5136,-510.1449C618.904,-500.5548 615.2828,-426.1587 540.5,-426.1587"/>
<polygon fill="#000000" stroke="#000000" points="691.0195,-510.6002 698.7487,-514.75 695.0098,-510.8795 699,-511.1587 699,-511.1587 699,-511.1587 695.0098,-510.8795 699.2513,-507.5675 691.0195,-510.6002 691.0195,-510.6002"/>
<ellipse fill="none" stroke="#000000" cx="687.8273" cy="-510.3768" rx="3.2" ry="3.2"/>
</g>
<!-- REFERRAL&#45;&gt;STAFF -->
<g id="edge45" class="edge">
<title>REFERRAL:w&#45;&gt;STAFF:e</title>
<path fill="none" stroke="#000000" d="M684.4614,-511.9925C613.4862,-520.4355 605.0984,-590.1587 525.5,-590.1587"/>
<polygon fill="#000000" stroke="#000000" points="691.0131,-511.6168 699.2061,-514.7528 695.0066,-511.3878 699,-511.1587 699,-511.1587 699,-511.1587 695.0066,-511.3878 698.7939,-507.5646 691.0131,-511.6168 691.0131,-511.6168"/>
<ellipse fill="none" stroke="#000000" cx="687.8184" cy="-511.8001" rx="3.2" ry="3.2"/>
</g>
<!-- REFERRAL&#45;&gt;TEAM -->
<g id="edge46" class="edge">
<title>REFERRAL:w&#45;&gt;TEAM:e</title>
<path fill="none" stroke="#000000" d="M684.5736,-512.2728C597.0675,-526.4975 625.56,-672.1587 525.5,-672.1587"/>
<polygon fill="#000000" stroke="#000000" points="691.0237,-511.7748 699.2772,-514.7481 695.0119,-511.4668 699,-511.1587 699,-511.1587 699,-511.1587 695.0119,-511.4668 698.7228,-507.5694 691.0237,-511.7748 691.0237,-511.7748"/>
<ellipse fill="none" stroke="#000000" cx="687.8332" cy="-512.0212" rx="3.2" ry="3.2"/>
</g>
<!-- R_ASSMNT_TYPE_ASSMNT_OUTCOME -->
<g id="node16" class="node">
<title>R_ASSMNT_TYPE_ASSMNT_OUTCOME</title>
<g id="a_node16"><a xlink:href="../../tables/R_ASSMNT_TYPE_ASSMNT_OUTCOME.html" xlink:title="R_ASSMNT_TYPE_ASSMNT_OUTCOME" target="_top">
<polygon fill="#ffffff" stroke="transparent" points="923,-868.6587 923,-995.6587 1175,-995.6587 1175,-868.6587 923,-868.6587"/>
<polygon fill="#f5f5f5" stroke="transparent" points="923,-972.1587 923,-995.1587 1175,-995.1587 1175,-972.1587 923,-972.1587"/>
<polygon fill="none" stroke="#000000" points="923,-972.1587 923,-995.1587 1175,-995.1587 1175,-972.1587 923,-972.1587"/>
<text text-anchor="start" x="927.9989" y="-981.2587" font-family="Helvetica,sans-Serif" font-weight="bold" font-size="11.00" fill="#000000">R_ASSMNT_TYPE_ASSMNT_OUTCOME</text>
<text text-anchor="start" x="1140.5219" y="-980.2587" font-family="Helvetica,sans-Serif" font-size="11.00" fill="#000000">[table]</text>
<polygon fill="none" stroke="#000000" points="923,-950.1587 923,-972.1587 1175,-972.1587 1175,-950.1587 923,-950.1587"/>
<image xlink:href="../../images/primaryKeys.png" width="11px" height="12px" preserveAspectRatio="xMinYMin meet" x="928" y="-967.159"/>
<text text-anchor="start" x="958" y="-957.2587" font-family="Helvetica,sans-Serif" font-size="11.00" fill="#000000">ASSESSMENT_TYPE_ID</text>
<polygon fill="none" stroke="#000000" points="923,-928.1587 923,-950.1587 1175,-950.1587 1175,-928.1587 923,-928.1587"/>
<image xlink:href="../../images/primaryKeys.png" width="11px" height="12px" preserveAspectRatio="xMinYMin meet" x="928" y="-945.159"/>
<text text-anchor="start" x="958" y="-935.2587" font-family="Helvetica,sans-Serif" font-size="11.00" fill="#000000">ASSESSMENT_OUTCOME_ID</text>
<polygon fill="none" stroke="#000000" points="923,-906.1587 923,-928.1587 1175,-928.1587 1175,-906.1587 923,-906.1587"/>
<image xlink:href="../../images/primaryKeys.png" width="11px" height="12px" preserveAspectRatio="xMinYMin meet" x="928" y="-923.159"/>
<text text-anchor="start" x="958" y="-913.2587" font-family="Helvetica,sans-Serif" font-size="11.00" fill="#000000">TRAINING_SESSION_ID</text>
<polygon fill="none" stroke="#000000" points="923,-887.1587 923,-906.1587 1175,-906.1587 1175,-887.1587 923,-887.1587"/>
<text text-anchor="start" x="926" y="-893.2587" font-family="Helvetica,sans-Serif" font-size="11.00" fill="#000000">...</text>
<polygon fill="#ffffff" stroke="transparent" points="923,-868.1587 923,-887.1587 1031,-887.1587 1031,-868.1587 923,-868.1587"/>
<polygon fill="none" stroke="#000000" points="923,-868.1587 923,-887.1587 1031,-887.1587 1031,-868.1587 923,-868.1587"/>
<text text-anchor="start" x="926" y="-874.2587" font-family="Helvetica,sans-Serif" font-size="11.00" fill="#000000">&lt; 2</text>
<polygon fill="#ffffff" stroke="transparent" points="1031,-868.1587 1031,-887.1587 1119,-887.1587 1119,-868.1587 1031,-868.1587"/>
<polygon fill="none" stroke="#000000" points="1031,-868.1587 1031,-887.1587 1119,-887.1587 1119,-868.1587 1031,-868.1587"/>
<text text-anchor="start" x="1077.4956" y="-874.2587" font-family="Helvetica,sans-Serif" font-size="11.00" fill="#000000">98 rows</text>
<polygon fill="#ffffff" stroke="transparent" points="1119,-868.1587 1119,-887.1587 1175,-887.1587 1175,-868.1587 1119,-868.1587"/>
<polygon fill="none" stroke="#000000" points="1119,-868.1587 1119,-887.1587 1175,-887.1587 1175,-868.1587 1119,-868.1587"/>
<text text-anchor="start" x="1165.8862" y="-874.2587" font-family="Helvetica,sans-Serif" font-size="11.00" fill="#000000"> &#160;</text>
</a>
</g>
</g>
<!-- R_ASSMNT_TYPE_ASSMNT_OUTCOME&#45;&gt;R_ASSESSMENT_OUTCOME -->
<g id="edge36" class="edge">
<title>R_ASSMNT_TYPE_ASSMNT_OUTCOME:w&#45;&gt;R_ASSESSMENT_OUTCOME:e</title>
<path fill="none" stroke="#000000" d="M909.2382,-934.6795C894.9517,-923.2972 896.3247,-894.1587 872,-894.1587"/>
<polygon fill="#000000" stroke="#000000" points="915.3928,-936.6827 921.8858,-942.582 919.1964,-937.9207 923,-939.1587 923,-939.1587 923,-939.1587 919.1964,-937.9207 924.1142,-935.7355 915.3928,-936.6827 915.3928,-936.6827"/>
<ellipse fill="none" stroke="#000000" cx="912.3499" cy="-935.6922" rx="3.2" ry="3.2"/>
</g>
<!-- R_ASSMNT_TYPE_ASSMNT_OUTCOME&#45;&gt;R_ASSESSMENT_TYPE -->
<g id="edge37" class="edge">
<title>R_ASSMNT_TYPE_ASSMNT_OUTCOME:w&#45;&gt;R_ASSESSMENT_TYPE:e</title>
<path fill="none" stroke="#000000" d="M908.5396,-962.9785C877.4961,-971.3973 872.3059,-1006.1587 833,-1006.1587"/>
<polygon fill="#000000" stroke="#000000" points="915.0626,-962.1577 923.4495,-964.7306 919.0313,-961.6582 923,-961.1587 923,-961.1587 923,-961.1587 919.0313,-961.6582 922.5505,-957.5869 915.0626,-962.1577 915.0626,-962.1577"/>
<ellipse fill="none" stroke="#000000" cx="911.8876" cy="-962.5573" rx="3.2" ry="3.2"/>
</g>
</g>
</svg>
