<?xml version="1.0" encoding="UTF-8" standalone="no"?>
<!DOCTYPE svg PUBLIC "-//W3C//DTD SVG 1.1//EN"
 "http://www.w3.org/Graphics/SVG/1.1/DTD/svg11.dtd">
<!-- Generated by graphviz version 2.40.1 (20161225.0304)
 -->
<!-- Title: oneDegreeRelationshipsDiagram Pages: 1 -->
<svg width="862pt" height="875pt"
 viewBox="0.00 0.00 862.00 875.20" xmlns="http://www.w3.org/2000/svg" xmlns:xlink="http://www.w3.org/1999/xlink">
<g id="graph0" class="graph" transform="scale(1 1) rotate(0) translate(4 871.2)">
<title>oneDegreeRelationshipsDiagram</title>
<polygon fill="#ffffff" stroke="transparent" points="-4,4 -4,-871.2 858,-871.2 858,4 -4,4"/>
<text text-anchor="middle" x="72.4936" y="-7.3" font-family="Helvetica,sans-Serif" font-size="11.00" fill="#000000">Generated by SchemaSpy</text>
<!-- ASSESSMENT -->
<g id="node1" class="node">
<title>ASSESSMENT</title>
<g id="a_node1"><a xlink:href="../../tables/ASSESSMENT.html" xlink:title="ASSESSMENT" target="_top">
<polygon fill="#ffffff" stroke="transparent" points="617.5,-450.2 617.5,-863.2 822.5,-863.2 822.5,-450.2 617.5,-450.2"/>
<polygon fill="#f5f5f5" stroke="transparent" points="618,-839.7 618,-862.7 823,-862.7 823,-839.7 618,-839.7"/>
<polygon fill="none" stroke="#000000" points="618,-839.7 618,-862.7 823,-862.7 823,-839.7 618,-839.7"/>
<text text-anchor="start" x="623" y="-848.8" font-family="Helvetica,sans-Serif" font-weight="bold" font-size="11.00" fill="#000000">ASSESSMENT</text>
<text text-anchor="start" x="788.0437" y="-847.8" font-family="Helvetica,sans-Serif" font-size="11.00" fill="#000000">[table]</text>
<polygon fill="none" stroke="#000000" points="618,-817.7 618,-839.7 823,-839.7 823,-817.7 618,-817.7"/>
<image xlink:href="../../images/primaryKeys.png" width="11px" height="12px" preserveAspectRatio="xMinYMin meet" x="623" y="-834.7"/>
<text text-anchor="start" x="638" y="-824.8" font-family="Helvetica,sans-Serif" font-size="11.00" fill="#000000">ASSESSMENT_ID</text>
<polygon fill="none" stroke="#000000" points="618,-795.7 618,-817.7 823,-817.7 823,-795.7 618,-795.7"/>
<image xlink:href="../../images/primaryKeys.png" width="11px" height="12px" preserveAspectRatio="xMinYMin meet" x="623" y="-812.7"/>
<text text-anchor="start" x="638" y="-802.8" font-family="Helvetica,sans-Serif" font-size="11.00" fill="#000000">REFERRAL_ID</text>
<polygon fill="none" stroke="#000000" points="618,-773.7 618,-795.7 823,-795.7 823,-773.7 618,-773.7"/>
<image xlink:href="../../images/primaryKeys.png" width="11px" height="12px" preserveAspectRatio="xMinYMin meet" x="623" y="-790.7"/>
<text text-anchor="start" x="638" y="-780.8" font-family="Helvetica,sans-Serif" font-size="11.00" fill="#000000">TEAM_ID</text>
<polygon fill="none" stroke="#000000" points="618,-751.7 618,-773.7 823,-773.7 823,-751.7 618,-751.7"/>
<image xlink:href="../../images/primaryKeys.png" width="11px" height="12px" preserveAspectRatio="xMinYMin meet" x="623" y="-768.7"/>
<text text-anchor="start" x="638" y="-758.8" font-family="Helvetica,sans-Serif" font-size="11.00" fill="#000000">STAFF_ID</text>
<polygon fill="none" stroke="#000000" points="618,-729.7 618,-751.7 823,-751.7 823,-729.7 618,-729.7"/>
<image xlink:href="../../images/primaryKeys.png" width="11px" height="12px" preserveAspectRatio="xMinYMin meet" x="623" y="-746.7"/>
<text text-anchor="start" x="638" y="-736.8" font-family="Helvetica,sans-Serif" font-size="11.00" fill="#000000">PROVIDER_EMPLOYEE_ID</text>
<polygon fill="none" stroke="#000000" points="618,-707.7 618,-729.7 823,-729.7 823,-707.7 618,-707.7"/>
<image xlink:href="../../images/primaryKeys.png" width="11px" height="12px" preserveAspectRatio="xMinYMin meet" x="623" y="-724.7"/>
<text text-anchor="start" x="638" y="-714.8" font-family="Helvetica,sans-Serif" font-size="11.00" fill="#000000">PARTITION_AREA_ID</text>
<polygon fill="none" stroke="#000000" points="618,-685.7 618,-707.7 823,-707.7 823,-685.7 618,-685.7"/>
<image xlink:href="../../images/primaryKeys.png" width="11px" height="12px" preserveAspectRatio="xMinYMin meet" x="623" y="-702.7"/>
<text text-anchor="start" x="638" y="-692.8" font-family="Helvetica,sans-Serif" font-size="11.00" fill="#000000">ASSESSMENT_TYPE_ID</text>
<polygon fill="none" stroke="#000000" points="618,-663.7 618,-685.7 823,-685.7 823,-663.7 618,-663.7"/>
<image xlink:href="../../images/primaryKeys.png" width="11px" height="12px" preserveAspectRatio="xMinYMin meet" x="623" y="-680.7"/>
<text text-anchor="start" x="638" y="-670.8" font-family="Helvetica,sans-Serif" font-size="11.00" fill="#000000">PROVIDER_TEAM_ID</text>
<polygon fill="none" stroke="#000000" points="618,-641.7 618,-663.7 823,-663.7 823,-641.7 618,-641.7"/>
<image xlink:href="../../images/primaryKeys.png" width="11px" height="12px" preserveAspectRatio="xMinYMin meet" x="623" y="-658.7"/>
<text text-anchor="start" x="638" y="-648.8" font-family="Helvetica,sans-Serif" font-size="11.00" fill="#000000">CREATED_DATETIME</text>
<polygon fill="none" stroke="#000000" points="618,-619.7 618,-641.7 823,-641.7 823,-619.7 618,-619.7"/>
<image xlink:href="../../images/primaryKeys.png" width="11px" height="12px" preserveAspectRatio="xMinYMin meet" x="623" y="-636.7"/>
<text text-anchor="start" x="638" y="-626.8" font-family="Helvetica,sans-Serif" font-size="11.00" fill="#000000">ASSESSMENT_OUTCOME_ID</text>
<polygon fill="none" stroke="#000000" points="618,-597.7 618,-619.7 823,-619.7 823,-597.7 618,-597.7"/>
<image xlink:href="../../images/primaryKeys.png" width="11px" height="12px" preserveAspectRatio="xMinYMin meet" x="623" y="-614.7"/>
<text text-anchor="start" x="638" y="-604.8" font-family="Helvetica,sans-Serif" font-size="11.00" fill="#000000">TRAINING_SESSION_ID</text>
<polygon fill="none" stroke="#000000" points="618,-575.7 618,-597.7 823,-597.7 823,-575.7 618,-575.7"/>
<image xlink:href="../../images/primaryKeys.png" width="11px" height="12px" preserveAspectRatio="xMinYMin meet" x="623" y="-592.7"/>
<text text-anchor="start" x="638" y="-582.8" font-family="Helvetica,sans-Serif" font-size="11.00" fill="#000000">OFFENDER_ID</text>
<polygon fill="none" stroke="#000000" points="618,-553.7 618,-575.7 823,-575.7 823,-553.7 618,-553.7"/>
<image xlink:href="../../images/primaryKeys.png" width="11px" height="12px" preserveAspectRatio="xMinYMin meet" x="623" y="-570.7"/>
<text text-anchor="start" x="638" y="-560.8" font-family="Helvetica,sans-Serif" font-size="11.00" fill="#000000">CONTACT_OUTCOME_TYPE_ID</text>
<polygon fill="none" stroke="#000000" points="618,-531.7 618,-553.7 823,-553.7 823,-531.7 618,-531.7"/>
<image xlink:href="../../images/primaryKeys.png" width="11px" height="12px" preserveAspectRatio="xMinYMin meet" x="623" y="-548.7"/>
<text text-anchor="start" x="638" y="-538.8" font-family="Helvetica,sans-Serif" font-size="11.00" fill="#000000">CONTACT_EA_ID</text>
<polygon fill="none" stroke="#000000" points="618,-509.7 618,-531.7 823,-531.7 823,-509.7 618,-509.7"/>
<image xlink:href="../../images/primaryKeys.png" width="11px" height="12px" preserveAspectRatio="xMinYMin meet" x="623" y="-526.7"/>
<text text-anchor="start" x="638" y="-516.8" font-family="Helvetica,sans-Serif" font-size="11.00" fill="#000000">ENFORCEABLE_CONTACT_ID</text>
<polygon fill="none" stroke="#000000" points="618,-487.7 618,-509.7 823,-509.7 823,-487.7 618,-487.7"/>
<image xlink:href="../../images/primaryKeys.png" width="11px" height="12px" preserveAspectRatio="xMinYMin meet" x="623" y="-504.7"/>
<text text-anchor="start" x="638" y="-494.8" font-family="Helvetica,sans-Serif" font-size="11.00" fill="#000000">EVENT_ID</text>
<polygon fill="none" stroke="#000000" points="618,-468.7 618,-487.7 823,-487.7 823,-468.7 618,-468.7"/>
<text text-anchor="start" x="621" y="-474.8" font-family="Helvetica,sans-Serif" font-size="11.00" fill="#000000">...</text>
<polygon fill="#ffffff" stroke="transparent" points="618,-449.7 618,-468.7 703,-468.7 703,-449.7 618,-449.7"/>
<polygon fill="none" stroke="#000000" points="618,-449.7 618,-468.7 703,-468.7 703,-449.7 618,-449.7"/>
<text text-anchor="start" x="621" y="-455.8" font-family="Helvetica,sans-Serif" font-size="11.00" fill="#000000">&lt; 13</text>
<polygon fill="#ffffff" stroke="transparent" points="703,-449.7 703,-468.7 782,-468.7 782,-449.7 703,-449.7"/>
<polygon fill="none" stroke="#000000" points="703,-449.7 703,-468.7 782,-468.7 782,-449.7 703,-449.7"/>
<text text-anchor="start" x="734.3807" y="-455.8" font-family="Helvetica,sans-Serif" font-size="11.00" fill="#000000">284 rows</text>
<polygon fill="#ffffff" stroke="transparent" points="782,-449.7 782,-468.7 823,-468.7 823,-449.7 782,-449.7"/>
<polygon fill="none" stroke="#000000" points="782,-449.7 782,-468.7 823,-468.7 823,-449.7 782,-449.7"/>
<text text-anchor="start" x="813.8862" y="-455.8" font-family="Helvetica,sans-Serif" font-size="11.00" fill="#000000"> &#160;</text>
</a>
</g>
</g>
<!-- R_ASSESSMENT_TYPE -->
<g id="node2" class="node">
<title>R_ASSESSMENT_TYPE</title>
<g id="a_node2"><a xlink:href="../../tables/R_ASSESSMENT_TYPE.html" xlink:title="R_ASSESSMENT_TYPE" target="_top">
<polygon fill="#ffffff" stroke="transparent" points="286,-54.7 286,-430.7 545,-430.7 545,-54.7 286,-54.7"/>
<polygon fill="#f5f5f5" stroke="transparent" points="288.5,-405.7 288.5,-428.7 543.5,-428.7 543.5,-405.7 288.5,-405.7"/>
<polygon fill="none" stroke="#000000" points="288.5,-405.7 288.5,-428.7 543.5,-428.7 543.5,-405.7 288.5,-405.7"/>
<text text-anchor="start" x="293.5" y="-414.8" font-family="Helvetica,sans-Serif" font-weight="bold" font-size="11.00" fill="#000000">R_ASSESSMENT_TYPE</text>
<text text-anchor="start" x="508.5437" y="-413.8" font-family="Helvetica,sans-Serif" font-size="11.00" fill="#000000">[table]</text>
<polygon fill="none" stroke="#000000" points="288.5,-383.7 288.5,-405.7 476.5,-405.7 476.5,-383.7 288.5,-383.7"/>
<image xlink:href="../../images/primaryKeys.png" width="11px" height="12px" preserveAspectRatio="xMinYMin meet" x="293.5" y="-400.7"/>
<text text-anchor="start" x="308.5" y="-390.8" font-family="Helvetica,sans-Serif" font-size="11.00" fill="#000000">ASSESSMENT_TYPE_ID</text>
<polygon fill="none" stroke="#000000" points="476.5,-383.7 476.5,-405.7 543.5,-405.7 543.5,-383.7 476.5,-383.7"/>
<text text-anchor="start" x="479.5" y="-391.4" font-family="Helvetica,sans-Serif" font-size="11.00" fill="#000000">number[38]</text>
<polygon fill="none" stroke="#000000" points="288.5,-361.7 288.5,-383.7 476.5,-383.7 476.5,-361.7 288.5,-361.7"/>
<text text-anchor="start" x="308.5" y="-368.8" font-family="Helvetica,sans-Serif" font-size="11.00" fill="#000000">ROW_VERSION</text>
<polygon fill="none" stroke="#000000" points="476.5,-361.7 476.5,-383.7 543.5,-383.7 543.5,-361.7 476.5,-361.7"/>
<text text-anchor="start" x="479.5" y="-369.4" font-family="Helvetica,sans-Serif" font-size="11.00" fill="#000000">number[38]</text>
<polygon fill="none" stroke="#000000" points="288.5,-339.7 288.5,-361.7 476.5,-361.7 476.5,-339.7 288.5,-339.7"/>
<image xlink:href="../../images/primaryKeys.png" width="11px" height="12px" preserveAspectRatio="xMinYMin meet" x="293.5" y="-356.7"/>
<text text-anchor="start" x="308.5" y="-346.8" font-family="Helvetica,sans-Serif" font-size="11.00" fill="#000000">TRAINING_SESSION_ID</text>
<polygon fill="none" stroke="#000000" points="476.5,-339.7 476.5,-361.7 543.5,-361.7 543.5,-339.7 476.5,-339.7"/>
<text text-anchor="start" x="479.5" y="-347.4" font-family="Helvetica,sans-Serif" font-size="11.00" fill="#000000">number[38]</text>
<polygon fill="none" stroke="#000000" points="288.5,-317.7 288.5,-339.7 476.5,-339.7 476.5,-317.7 288.5,-317.7"/>
<image xlink:href="../../images/primaryKeys.png" width="11px" height="12px" preserveAspectRatio="xMinYMin meet" x="293.5" y="-334.7"/>
<text text-anchor="start" x="308.5" y="-324.8" font-family="Helvetica,sans-Serif" font-size="11.00" fill="#000000">CODE</text>
<polygon fill="none" stroke="#000000" points="476.5,-317.7 476.5,-339.7 543.5,-339.7 543.5,-317.7 476.5,-317.7"/>
<text text-anchor="start" x="479.4365" y="-325.4" font-family="Helvetica,sans-Serif" font-size="11.00" fill="#000000">varchar2[10]</text>
<polygon fill="none" stroke="#000000" points="288.5,-295.7 288.5,-317.7 476.5,-317.7 476.5,-295.7 288.5,-295.7"/>
<text text-anchor="start" x="308.5" y="-302.8" font-family="Helvetica,sans-Serif" font-size="11.00" fill="#000000">DESCRIPTION</text>
<polygon fill="none" stroke="#000000" points="476.5,-295.7 476.5,-317.7 543.5,-317.7 543.5,-295.7 476.5,-295.7"/>
<text text-anchor="start" x="479.4365" y="-303.4" font-family="Helvetica,sans-Serif" font-size="11.00" fill="#000000">varchar2[50]</text>
<polygon fill="none" stroke="#000000" points="288.5,-273.7 288.5,-295.7 476.5,-295.7 476.5,-273.7 288.5,-273.7"/>
<text text-anchor="start" x="308.5" y="-280.8" font-family="Helvetica,sans-Serif" font-size="11.00" fill="#000000">SELECTABLE</text>
<polygon fill="none" stroke="#000000" points="476.5,-273.7 476.5,-295.7 543.5,-295.7 543.5,-273.7 476.5,-273.7"/>
<text text-anchor="start" x="479.5" y="-281.4" font-family="Helvetica,sans-Serif" font-size="11.00" fill="#000000">char[1]</text>
<polygon fill="none" stroke="#000000" points="288.5,-251.7 288.5,-273.7 476.5,-273.7 476.5,-251.7 288.5,-251.7"/>
<text text-anchor="start" x="303.8277" y="-258.8" font-family="Helvetica,sans-Serif" font-size="11.00" fill="#000000">ASSESSMENT_OUTCOME_FLAG</text>
<polygon fill="none" stroke="#000000" points="476.5,-251.7 476.5,-273.7 543.5,-273.7 543.5,-251.7 476.5,-251.7"/>
<text text-anchor="start" x="479.5" y="-259.4" font-family="Helvetica,sans-Serif" font-size="11.00" fill="#000000">char[1]</text>
<polygon fill="none" stroke="#000000" points="288.5,-229.7 288.5,-251.7 476.5,-251.7 476.5,-229.7 288.5,-229.7"/>
<text text-anchor="start" x="308.5" y="-236.8" font-family="Helvetica,sans-Serif" font-size="11.00" fill="#000000">DURATION_FLAG</text>
<polygon fill="none" stroke="#000000" points="476.5,-229.7 476.5,-251.7 543.5,-251.7 543.5,-229.7 476.5,-229.7"/>
<text text-anchor="start" x="479.5" y="-237.4" font-family="Helvetica,sans-Serif" font-size="11.00" fill="#000000">char[1]</text>
<polygon fill="none" stroke="#000000" points="288.5,-207.7 288.5,-229.7 476.5,-229.7 476.5,-207.7 288.5,-207.7"/>
<text text-anchor="start" x="308.5" y="-214.8" font-family="Helvetica,sans-Serif" font-size="11.00" fill="#000000">SCORE_FLAG</text>
<polygon fill="none" stroke="#000000" points="476.5,-207.7 476.5,-229.7 543.5,-229.7 543.5,-207.7 476.5,-207.7"/>
<text text-anchor="start" x="479.5" y="-215.4" font-family="Helvetica,sans-Serif" font-size="11.00" fill="#000000">char[1]</text>
<polygon fill="none" stroke="#000000" points="288.5,-185.7 288.5,-207.7 476.5,-207.7 476.5,-185.7 288.5,-185.7"/>
<text text-anchor="start" x="300.7757" y="-192.8" font-family="Helvetica,sans-Serif" font-size="11.00" fill="#000000">OFFENDERS_AGREEMENT_FLAG</text>
<polygon fill="none" stroke="#000000" points="476.5,-185.7 476.5,-207.7 543.5,-207.7 543.5,-185.7 476.5,-185.7"/>
<text text-anchor="start" x="479.5" y="-193.4" font-family="Helvetica,sans-Serif" font-size="11.00" fill="#000000">char[1]</text>
<polygon fill="none" stroke="#000000" points="288.5,-163.7 288.5,-185.7 476.5,-185.7 476.5,-163.7 288.5,-163.7"/>
<text text-anchor="start" x="308.5" y="-170.8" font-family="Helvetica,sans-Serif" font-size="11.00" fill="#000000">CREATED_BY_USER_ID</text>
<polygon fill="none" stroke="#000000" points="476.5,-163.7 476.5,-185.7 543.5,-185.7 543.5,-163.7 476.5,-163.7"/>
<text text-anchor="start" x="479.5" y="-171.4" font-family="Helvetica,sans-Serif" font-size="11.00" fill="#000000">number[38]</text>
<polygon fill="none" stroke="#000000" points="288.5,-141.7 288.5,-163.7 476.5,-163.7 476.5,-141.7 288.5,-141.7"/>
<image xlink:href="../../images/primaryKeys.png" width="11px" height="12px" preserveAspectRatio="xMinYMin meet" x="293.5" y="-158.7"/>
<text text-anchor="start" x="308.5" y="-148.8" font-family="Helvetica,sans-Serif" font-size="11.00" fill="#000000">CONTACT_TYPE_ID</text>
<polygon fill="none" stroke="#000000" points="476.5,-141.7 476.5,-163.7 543.5,-163.7 543.5,-141.7 476.5,-141.7"/>
<text text-anchor="start" x="479.5" y="-149.4" font-family="Helvetica,sans-Serif" font-size="11.00" fill="#000000">number[38]</text>
<polygon fill="none" stroke="#000000" points="288.5,-119.7 288.5,-141.7 476.5,-141.7 476.5,-119.7 288.5,-119.7"/>
<text text-anchor="start" x="308.5" y="-126.8" font-family="Helvetica,sans-Serif" font-size="11.00" fill="#000000">LAST_UPDATED_USER_ID</text>
<polygon fill="none" stroke="#000000" points="476.5,-119.7 476.5,-141.7 543.5,-141.7 543.5,-119.7 476.5,-119.7"/>
<text text-anchor="start" x="479.5" y="-127.4" font-family="Helvetica,sans-Serif" font-size="11.00" fill="#000000">number[38]</text>
<polygon fill="none" stroke="#000000" points="288.5,-97.7 288.5,-119.7 476.5,-119.7 476.5,-97.7 288.5,-97.7"/>
<text text-anchor="start" x="308.5" y="-104.8" font-family="Helvetica,sans-Serif" font-size="11.00" fill="#000000">CREATED_DATETIME</text>
<polygon fill="none" stroke="#000000" points="476.5,-97.7 476.5,-119.7 543.5,-119.7 543.5,-97.7 476.5,-97.7"/>
<text text-anchor="start" x="479.5" y="-105.4" font-family="Helvetica,sans-Serif" font-size="11.00" fill="#000000">date[7]</text>
<polygon fill="none" stroke="#000000" points="288.5,-75.7 288.5,-97.7 476.5,-97.7 476.5,-75.7 288.5,-75.7"/>
<text text-anchor="start" x="308.5" y="-82.8" font-family="Helvetica,sans-Serif" font-size="11.00" fill="#000000">LAST_UPDATED_DATETIME</text>
<polygon fill="none" stroke="#000000" points="476.5,-75.7 476.5,-97.7 543.5,-97.7 543.5,-75.7 476.5,-75.7"/>
<text text-anchor="start" x="479.5" y="-83.4" font-family="Helvetica,sans-Serif" font-size="11.00" fill="#000000">date[7]</text>
<polygon fill="#ffffff" stroke="transparent" points="288.5,-56.7 288.5,-75.7 370.5,-75.7 370.5,-56.7 288.5,-56.7"/>
<polygon fill="none" stroke="#000000" points="288.5,-56.7 288.5,-75.7 370.5,-75.7 370.5,-56.7 288.5,-56.7"/>
<text text-anchor="start" x="291.5" y="-62.8" font-family="Helvetica,sans-Serif" font-size="11.00" fill="#000000">&lt; 1</text>
<polygon fill="#ffffff" stroke="transparent" points="370.5,-56.7 370.5,-75.7 476.5,-75.7 476.5,-56.7 370.5,-56.7"/>
<polygon fill="none" stroke="#000000" points="370.5,-56.7 370.5,-75.7 476.5,-75.7 476.5,-56.7 370.5,-56.7"/>
<text text-anchor="start" x="434.9956" y="-62.8" font-family="Helvetica,sans-Serif" font-size="11.00" fill="#000000">80 rows</text>
<polygon fill="#ffffff" stroke="transparent" points="476.5,-56.7 476.5,-75.7 543.5,-75.7 543.5,-56.7 476.5,-56.7"/>
<polygon fill="none" stroke="#000000" points="476.5,-56.7 476.5,-75.7 543.5,-75.7 543.5,-56.7 476.5,-56.7"/>
<text text-anchor="start" x="524.9053" y="-62.8" font-family="Helvetica,sans-Serif" font-size="11.00" fill="#000000">3 &gt;</text>
<polygon fill="none" stroke="#000000" stroke-width="2" points="287,-55.7 287,-429.7 544,-429.7 544,-55.7 287,-55.7"/>
</a>
</g>
</g>
<!-- ASSESSMENT&#45;&gt;R_ASSESSMENT_TYPE -->
<g id="edge1" class="edge">
<title>ASSESSMENT:w&#45;&gt;R_ASSESSMENT_TYPE:e</title>
<path fill="none" stroke="#000000" d="M604.3996,-691.7102C557.8174,-652.4444 607.3578,-394.7 543.5,-394.7"/>
<polygon fill="#000000" stroke="#000000" points="610.4895,-693.9445 616.76,-700.0797 614.2448,-695.3222 618,-696.7 618,-696.7 618,-696.7 614.2448,-695.3222 619.24,-693.3203 610.4895,-693.9445 610.4895,-693.9445"/>
<ellipse fill="none" stroke="#000000" cx="607.4853" cy="-692.8422" rx="3.2" ry="3.2"/>
</g>
<!-- R_CONTACT_TYPE -->
<g id="node3" class="node">
<title>R_CONTACT_TYPE</title>
<g id="a_node3"><a xlink:href="../../tables/R_CONTACT_TYPE.html" xlink:title="R_CONTACT_TYPE" target="_top">
<polygon fill="#ffffff" stroke="transparent" points="8,-38.2 8,-187.2 237,-187.2 237,-38.2 8,-38.2"/>
<polygon fill="#f5f5f5" stroke="transparent" points="8.5,-163.7 8.5,-186.7 237.5,-186.7 237.5,-163.7 8.5,-163.7"/>
<polygon fill="none" stroke="#000000" points="8.5,-163.7 8.5,-186.7 237.5,-186.7 237.5,-163.7 8.5,-163.7"/>
<text text-anchor="start" x="13.5" y="-172.8" font-family="Helvetica,sans-Serif" font-weight="bold" font-size="11.00" fill="#000000">R_CONTACT_TYPE</text>
<text text-anchor="start" x="202.5437" y="-171.8" font-family="Helvetica,sans-Serif" font-size="11.00" fill="#000000">[table]</text>
<polygon fill="none" stroke="#000000" points="8.5,-141.7 8.5,-163.7 237.5,-163.7 237.5,-141.7 8.5,-141.7"/>
<image xlink:href="../../images/primaryKeys.png" width="11px" height="12px" preserveAspectRatio="xMinYMin meet" x="13.5" y="-158.7"/>
<text text-anchor="start" x="28.5" y="-148.8" font-family="Helvetica,sans-Serif" font-size="11.00" fill="#000000">CONTACT_TYPE_ID</text>
<polygon fill="none" stroke="#000000" points="8.5,-119.7 8.5,-141.7 237.5,-141.7 237.5,-119.7 8.5,-119.7"/>
<image xlink:href="../../images/primaryKeys.png" width="11px" height="12px" preserveAspectRatio="xMinYMin meet" x="13.5" y="-136.7"/>
<text text-anchor="start" x="28.5" y="-126.8" font-family="Helvetica,sans-Serif" font-size="11.00" fill="#000000">CODE</text>
<polygon fill="none" stroke="#000000" points="8.5,-97.7 8.5,-119.7 237.5,-119.7 237.5,-97.7 8.5,-97.7"/>
<image xlink:href="../../images/primaryKeys.png" width="11px" height="12px" preserveAspectRatio="xMinYMin meet" x="13.5" y="-114.7"/>
<text text-anchor="start" x="28.5" y="-104.8" font-family="Helvetica,sans-Serif" font-size="11.00" fill="#000000">TRAINING_SESSION_ID</text>
<polygon fill="none" stroke="#000000" points="8.5,-75.7 8.5,-97.7 237.5,-97.7 237.5,-75.7 8.5,-75.7"/>
<image xlink:href="../../images/primaryKeys.png" width="11px" height="12px" preserveAspectRatio="xMinYMin meet" x="13.5" y="-92.7"/>
<text text-anchor="start" x="28.5" y="-82.8" font-family="Helvetica,sans-Serif" font-size="11.00" fill="#000000">CONTACT_TYPE_ICON_ID</text>
<polygon fill="none" stroke="#000000" points="8.5,-56.7 8.5,-75.7 237.5,-75.7 237.5,-56.7 8.5,-56.7"/>
<text text-anchor="start" x="11.5" y="-62.8" font-family="Helvetica,sans-Serif" font-size="11.00" fill="#000000">...</text>
<polygon fill="#ffffff" stroke="transparent" points="8.5,-37.7 8.5,-56.7 90.5,-56.7 90.5,-37.7 8.5,-37.7"/>
<polygon fill="none" stroke="#000000" points="8.5,-37.7 8.5,-56.7 90.5,-56.7 90.5,-37.7 8.5,-37.7"/>
<text text-anchor="start" x="11.5" y="-43.8" font-family="Helvetica,sans-Serif" font-size="11.00" fill="#000000">&lt; 1</text>
<polygon fill="#ffffff" stroke="transparent" points="90.5,-37.7 90.5,-56.7 179.5,-56.7 179.5,-37.7 90.5,-37.7"/>
<polygon fill="none" stroke="#000000" points="90.5,-37.7 90.5,-56.7 179.5,-56.7 179.5,-37.7 90.5,-37.7"/>
<text text-anchor="start" x="122.7089" y="-43.8" font-family="Helvetica,sans-Serif" font-size="11.00" fill="#000000">3,019 rows</text>
<polygon fill="#ffffff" stroke="transparent" points="179.5,-37.7 179.5,-56.7 237.5,-56.7 237.5,-37.7 179.5,-37.7"/>
<polygon fill="none" stroke="#000000" points="179.5,-37.7 179.5,-56.7 237.5,-56.7 237.5,-37.7 179.5,-37.7"/>
<text text-anchor="start" x="212.7904" y="-43.8" font-family="Helvetica,sans-Serif" font-size="11.00" fill="#000000">21 &gt;</text>
</a>
</g>
</g>
<!-- R_ASSESSMENT_TYPE&#45;&gt;R_CONTACT_TYPE -->
<g id="edge2" class="edge">
<title>R_ASSESSMENT_TYPE:w&#45;&gt;R_CONTACT_TYPE:e</title>
<path fill="none" stroke="#000000" d="M273.776,-152.7C261.7815,-152.7 254.3229,-152.7 237.5,-152.7"/>
<polygon fill="#000000" stroke="#000000" points="280.5,-152.7001 288.5,-156.3 284.5,-152.7 288.5,-152.7 288.5,-152.7 288.5,-152.7 284.5,-152.7 288.5,-149.1 280.5,-152.7001 280.5,-152.7001"/>
<ellipse fill="none" stroke="#000000" cx="277.3" cy="-152.7001" rx="3.2" ry="3.2"/>
</g>
<!-- R_ASSMNT_TYPE_ASSMNT_OUTCOME -->
<g id="node4" class="node">
<title>R_ASSMNT_TYPE_ASSMNT_OUTCOME</title>
<g id="a_node4"><a xlink:href="../../tables/R_ASSMNT_TYPE_ASSMNT_OUTCOME.html" xlink:title="R_ASSMNT_TYPE_ASSMNT_OUTCOME" target="_top">
<polygon fill="#ffffff" stroke="transparent" points="594,-302.2 594,-429.2 846,-429.2 846,-302.2 594,-302.2"/>
<polygon fill="#f5f5f5" stroke="transparent" points="594,-405.7 594,-428.7 846,-428.7 846,-405.7 594,-405.7"/>
<polygon fill="none" stroke="#000000" points="594,-405.7 594,-428.7 846,-428.7 846,-405.7 594,-405.7"/>
<text text-anchor="start" x="598.9989" y="-414.8" font-family="Helvetica,sans-Serif" font-weight="bold" font-size="11.00" fill="#000000">R_ASSMNT_TYPE_ASSMNT_OUTCOME</text>
<text text-anchor="start" x="811.5219" y="-413.8" font-family="Helvetica,sans-Serif" font-size="11.00" fill="#000000">[table]</text>
<polygon fill="none" stroke="#000000" points="594,-383.7 594,-405.7 846,-405.7 846,-383.7 594,-383.7"/>
<image xlink:href="../../images/primaryKeys.png" width="11px" height="12px" preserveAspectRatio="xMinYMin meet" x="599" y="-400.7"/>
<text text-anchor="start" x="629" y="-390.8" font-family="Helvetica,sans-Serif" font-size="11.00" fill="#000000">ASSESSMENT_TYPE_ID</text>
<polygon fill="none" stroke="#000000" points="594,-361.7 594,-383.7 846,-383.7 846,-361.7 594,-361.7"/>
<image xlink:href="../../images/primaryKeys.png" width="11px" height="12px" preserveAspectRatio="xMinYMin meet" x="599" y="-378.7"/>
<text text-anchor="start" x="629" y="-368.8" font-family="Helvetica,sans-Serif" font-size="11.00" fill="#000000">ASSESSMENT_OUTCOME_ID</text>
<polygon fill="none" stroke="#000000" points="594,-339.7 594,-361.7 846,-361.7 846,-339.7 594,-339.7"/>
<image xlink:href="../../images/primaryKeys.png" width="11px" height="12px" preserveAspectRatio="xMinYMin meet" x="599" y="-356.7"/>
<text text-anchor="start" x="629" y="-346.8" font-family="Helvetica,sans-Serif" font-size="11.00" fill="#000000">TRAINING_SESSION_ID</text>
<polygon fill="none" stroke="#000000" points="594,-320.7 594,-339.7 846,-339.7 846,-320.7 594,-320.7"/>
<text text-anchor="start" x="597" y="-326.8" font-family="Helvetica,sans-Serif" font-size="11.00" fill="#000000">...</text>
<polygon fill="#ffffff" stroke="transparent" points="594,-301.7 594,-320.7 702,-320.7 702,-301.7 594,-301.7"/>
<polygon fill="none" stroke="#000000" points="594,-301.7 594,-320.7 702,-320.7 702,-301.7 594,-301.7"/>
<text text-anchor="start" x="597" y="-307.8" font-family="Helvetica,sans-Serif" font-size="11.00" fill="#000000">&lt; 2</text>
<polygon fill="#ffffff" stroke="transparent" points="702,-301.7 702,-320.7 790,-320.7 790,-301.7 702,-301.7"/>
<polygon fill="none" stroke="#000000" points="702,-301.7 702,-320.7 790,-320.7 790,-301.7 702,-301.7"/>
<text text-anchor="start" x="748.4956" y="-307.8" font-family="Helvetica,sans-Serif" font-size="11.00" fill="#000000">98 rows</text>
<polygon fill="#ffffff" stroke="transparent" points="790,-301.7 790,-320.7 846,-320.7 846,-301.7 790,-301.7"/>
<polygon fill="none" stroke="#000000" points="790,-301.7 790,-320.7 846,-320.7 846,-301.7 790,-301.7"/>
<text text-anchor="start" x="836.8862" y="-307.8" font-family="Helvetica,sans-Serif" font-size="11.00" fill="#000000"> &#160;</text>
</a>
</g>
</g>
<!-- R_ASSMNT_TYPE_ASSMNT_OUTCOME&#45;&gt;R_ASSESSMENT_TYPE -->
<g id="edge3" class="edge">
<title>R_ASSMNT_TYPE_ASSMNT_OUTCOME:w&#45;&gt;R_ASSESSMENT_TYPE:e</title>
<path fill="none" stroke="#000000" d="M579.4203,-394.7C567.5435,-394.7 560.158,-394.7 543.5,-394.7"/>
<polygon fill="#000000" stroke="#000000" points="586,-394.7001 594,-398.3 590,-394.7 594,-394.7 594,-394.7 594,-394.7 590,-394.7 594,-391.1 586,-394.7001 586,-394.7001"/>
<ellipse fill="none" stroke="#000000" cx="582.8" cy="-394.7001" rx="3.2" ry="3.2"/>
</g>
<!-- R_ASSMNT_TYPE_REFERRAL_TYPE -->
<g id="node5" class="node">
<title>R_ASSMNT_TYPE_REFERRAL_TYPE</title>
<g id="a_node5"><a xlink:href="../../tables/R_ASSMNT_TYPE_REFERRAL_TYPE.html" xlink:title="R_ASSMNT_TYPE_REFERRAL_TYPE" target="_top">
<polygon fill="#ffffff" stroke="transparent" points="601.5,-154.2 601.5,-281.2 838.5,-281.2 838.5,-154.2 601.5,-154.2"/>
<polygon fill="#f5f5f5" stroke="transparent" points="602,-257.7 602,-280.7 839,-280.7 839,-257.7 602,-257.7"/>
<polygon fill="none" stroke="#000000" points="602,-257.7 602,-280.7 839,-280.7 839,-257.7 602,-257.7"/>
<text text-anchor="start" x="606.8244" y="-266.8" font-family="Helvetica,sans-Serif" font-weight="bold" font-size="11.00" fill="#000000">R_ASSMNT_TYPE_REFERRAL_TYPE</text>
<text text-anchor="start" x="804.5219" y="-265.8" font-family="Helvetica,sans-Serif" font-size="11.00" fill="#000000">[table]</text>
<polygon fill="none" stroke="#000000" points="602,-235.7 602,-257.7 839,-257.7 839,-235.7 602,-235.7"/>
<image xlink:href="../../images/primaryKeys.png" width="11px" height="12px" preserveAspectRatio="xMinYMin meet" x="607" y="-252.7"/>
<text text-anchor="start" x="639" y="-242.8" font-family="Helvetica,sans-Serif" font-size="11.00" fill="#000000">ASSESSMENT_TYPE_ID</text>
<polygon fill="none" stroke="#000000" points="602,-213.7 602,-235.7 839,-235.7 839,-213.7 602,-213.7"/>
<image xlink:href="../../images/primaryKeys.png" width="11px" height="12px" preserveAspectRatio="xMinYMin meet" x="607" y="-230.7"/>
<text text-anchor="start" x="639" y="-220.8" font-family="Helvetica,sans-Serif" font-size="11.00" fill="#000000">REFERRAL_TYPE_ID</text>
<polygon fill="none" stroke="#000000" points="602,-191.7 602,-213.7 839,-213.7 839,-191.7 602,-191.7"/>
<image xlink:href="../../images/primaryKeys.png" width="11px" height="12px" preserveAspectRatio="xMinYMin meet" x="607" y="-208.7"/>
<text text-anchor="start" x="639" y="-198.8" font-family="Helvetica,sans-Serif" font-size="11.00" fill="#000000">TRAINING_SESSION_ID</text>
<polygon fill="none" stroke="#000000" points="602,-172.7 602,-191.7 839,-191.7 839,-172.7 602,-172.7"/>
<text text-anchor="start" x="605" y="-178.8" font-family="Helvetica,sans-Serif" font-size="11.00" fill="#000000">...</text>
<polygon fill="#ffffff" stroke="transparent" points="602,-153.7 602,-172.7 703,-172.7 703,-153.7 602,-153.7"/>
<polygon fill="none" stroke="#000000" points="602,-153.7 602,-172.7 703,-172.7 703,-153.7 602,-153.7"/>
<text text-anchor="start" x="605" y="-159.8" font-family="Helvetica,sans-Serif" font-size="11.00" fill="#000000">&lt; 2</text>
<polygon fill="#ffffff" stroke="transparent" points="703,-153.7 703,-172.7 787,-172.7 787,-153.7 703,-153.7"/>
<polygon fill="none" stroke="#000000" points="703,-153.7 703,-172.7 787,-172.7 787,-153.7 703,-153.7"/>
<text text-anchor="start" x="745.4956" y="-159.8" font-family="Helvetica,sans-Serif" font-size="11.00" fill="#000000">38 rows</text>
<polygon fill="#ffffff" stroke="transparent" points="787,-153.7 787,-172.7 839,-172.7 839,-153.7 787,-153.7"/>
<polygon fill="none" stroke="#000000" points="787,-153.7 787,-172.7 839,-172.7 839,-153.7 787,-153.7"/>
<text text-anchor="start" x="829.8862" y="-159.8" font-family="Helvetica,sans-Serif" font-size="11.00" fill="#000000"> &#160;</text>
</a>
</g>
</g>
<!-- R_ASSMNT_TYPE_REFERRAL_TYPE&#45;&gt;R_ASSESSMENT_TYPE -->
<g id="edge4" class="edge">
<title>R_ASSMNT_TYPE_REFERRAL_TYPE:w&#45;&gt;R_ASSESSMENT_TYPE:e</title>
<path fill="none" stroke="#000000" d="M587.807,-249.3952C543.5711,-269.4541 608.566,-394.7 543.5,-394.7"/>
<polygon fill="#000000" stroke="#000000" points="594.1405,-248.1925 602.6716,-250.2368 598.0702,-247.4463 602,-246.7 602,-246.7 602,-246.7 598.0702,-247.4463 601.3284,-243.1632 594.1405,-248.1925 594.1405,-248.1925"/>
<ellipse fill="none" stroke="#000000" cx="590.9966" cy="-248.7895" rx="3.2" ry="3.2"/>
</g>
</g>
</svg>
