<?xml version="1.0" encoding="UTF-8" standalone="no"?>
<!DOCTYPE svg PUBLIC "-//W3C//DTD SVG 1.1//EN"
 "http://www.w3.org/Graphics/SVG/1.1/DTD/svg11.dtd">
<!-- Generated by graphviz version 2.40.1 (20161225.0304)
 -->
<!-- Title: twoDegreesRelationshipsDiagram Pages: 1 -->
<svg width="1191pt" height="968pt"
 viewBox="0.00 0.00 1191.00 968.07" xmlns="http://www.w3.org/2000/svg" xmlns:xlink="http://www.w3.org/1999/xlink">
<g id="graph0" class="graph" transform="scale(1 1) rotate(0) translate(4 964.0663)">
<title>twoDegreesRelationshipsDiagram</title>
<polygon fill="#ffffff" stroke="transparent" points="-4,4 -4,-964.0663 1187,-964.0663 1187,4 -4,4"/>
<text text-anchor="middle" x="72.4936" y="-7.3" font-family="Helvetica,sans-Serif" font-size="11.00" fill="#000000">Generated by SchemaSpy</text>
<!-- ASSESSMENT -->
<g id="node1" class="node">
<title>ASSESSMENT</title>
<g id="a_node1"><a xlink:href="../../tables/ASSESSMENT.html" xlink:title="ASSESSMENT" target="_top">
<polygon fill="#ffffff" stroke="transparent" points="946.5,-141.6084 946.5,-554.6084 1151.5,-554.6084 1151.5,-141.6084 946.5,-141.6084"/>
<polygon fill="#f5f5f5" stroke="transparent" points="947,-531.1084 947,-554.1084 1152,-554.1084 1152,-531.1084 947,-531.1084"/>
<polygon fill="none" stroke="#000000" points="947,-531.1084 947,-554.1084 1152,-554.1084 1152,-531.1084 947,-531.1084"/>
<text text-anchor="start" x="952" y="-540.2084" font-family="Helvetica,sans-Serif" font-weight="bold" font-size="11.00" fill="#000000">ASSESSMENT</text>
<text text-anchor="start" x="1117.0437" y="-539.2084" font-family="Helvetica,sans-Serif" font-size="11.00" fill="#000000">[table]</text>
<polygon fill="none" stroke="#000000" points="947,-509.1084 947,-531.1084 1152,-531.1084 1152,-509.1084 947,-509.1084"/>
<image xlink:href="../../images/primaryKeys.png" width="11px" height="12px" preserveAspectRatio="xMinYMin meet" x="952" y="-526.108"/>
<text text-anchor="start" x="967" y="-516.2084" font-family="Helvetica,sans-Serif" font-size="11.00" fill="#000000">ASSESSMENT_ID</text>
<polygon fill="none" stroke="#000000" points="947,-487.1084 947,-509.1084 1152,-509.1084 1152,-487.1084 947,-487.1084"/>
<image xlink:href="../../images/primaryKeys.png" width="11px" height="12px" preserveAspectRatio="xMinYMin meet" x="952" y="-504.108"/>
<text text-anchor="start" x="967" y="-494.2084" font-family="Helvetica,sans-Serif" font-size="11.00" fill="#000000">REFERRAL_ID</text>
<polygon fill="none" stroke="#000000" points="947,-465.1084 947,-487.1084 1152,-487.1084 1152,-465.1084 947,-465.1084"/>
<image xlink:href="../../images/primaryKeys.png" width="11px" height="12px" preserveAspectRatio="xMinYMin meet" x="952" y="-482.108"/>
<text text-anchor="start" x="967" y="-472.2084" font-family="Helvetica,sans-Serif" font-size="11.00" fill="#000000">TEAM_ID</text>
<polygon fill="none" stroke="#000000" points="947,-443.1084 947,-465.1084 1152,-465.1084 1152,-443.1084 947,-443.1084"/>
<image xlink:href="../../images/primaryKeys.png" width="11px" height="12px" preserveAspectRatio="xMinYMin meet" x="952" y="-460.108"/>
<text text-anchor="start" x="967" y="-450.2084" font-family="Helvetica,sans-Serif" font-size="11.00" fill="#000000">STAFF_ID</text>
<polygon fill="none" stroke="#000000" points="947,-421.1084 947,-443.1084 1152,-443.1084 1152,-421.1084 947,-421.1084"/>
<image xlink:href="../../images/primaryKeys.png" width="11px" height="12px" preserveAspectRatio="xMinYMin meet" x="952" y="-438.108"/>
<text text-anchor="start" x="967" y="-428.2084" font-family="Helvetica,sans-Serif" font-size="11.00" fill="#000000">PROVIDER_EMPLOYEE_ID</text>
<polygon fill="none" stroke="#000000" points="947,-399.1084 947,-421.1084 1152,-421.1084 1152,-399.1084 947,-399.1084"/>
<image xlink:href="../../images/primaryKeys.png" width="11px" height="12px" preserveAspectRatio="xMinYMin meet" x="952" y="-416.108"/>
<text text-anchor="start" x="967" y="-406.2084" font-family="Helvetica,sans-Serif" font-size="11.00" fill="#000000">PARTITION_AREA_ID</text>
<polygon fill="none" stroke="#000000" points="947,-377.1084 947,-399.1084 1152,-399.1084 1152,-377.1084 947,-377.1084"/>
<image xlink:href="../../images/primaryKeys.png" width="11px" height="12px" preserveAspectRatio="xMinYMin meet" x="952" y="-394.108"/>
<text text-anchor="start" x="967" y="-384.2084" font-family="Helvetica,sans-Serif" font-size="11.00" fill="#000000">ASSESSMENT_TYPE_ID</text>
<polygon fill="none" stroke="#000000" points="947,-355.1084 947,-377.1084 1152,-377.1084 1152,-355.1084 947,-355.1084"/>
<image xlink:href="../../images/primaryKeys.png" width="11px" height="12px" preserveAspectRatio="xMinYMin meet" x="952" y="-372.108"/>
<text text-anchor="start" x="967" y="-362.2084" font-family="Helvetica,sans-Serif" font-size="11.00" fill="#000000">PROVIDER_TEAM_ID</text>
<polygon fill="none" stroke="#000000" points="947,-333.1084 947,-355.1084 1152,-355.1084 1152,-333.1084 947,-333.1084"/>
<image xlink:href="../../images/primaryKeys.png" width="11px" height="12px" preserveAspectRatio="xMinYMin meet" x="952" y="-350.108"/>
<text text-anchor="start" x="967" y="-340.2084" font-family="Helvetica,sans-Serif" font-size="11.00" fill="#000000">CREATED_DATETIME</text>
<polygon fill="none" stroke="#000000" points="947,-311.1084 947,-333.1084 1152,-333.1084 1152,-311.1084 947,-311.1084"/>
<image xlink:href="../../images/primaryKeys.png" width="11px" height="12px" preserveAspectRatio="xMinYMin meet" x="952" y="-328.108"/>
<text text-anchor="start" x="967" y="-318.2084" font-family="Helvetica,sans-Serif" font-size="11.00" fill="#000000">ASSESSMENT_OUTCOME_ID</text>
<polygon fill="none" stroke="#000000" points="947,-289.1084 947,-311.1084 1152,-311.1084 1152,-289.1084 947,-289.1084"/>
<image xlink:href="../../images/primaryKeys.png" width="11px" height="12px" preserveAspectRatio="xMinYMin meet" x="952" y="-306.108"/>
<text text-anchor="start" x="967" y="-296.2084" font-family="Helvetica,sans-Serif" font-size="11.00" fill="#000000">TRAINING_SESSION_ID</text>
<polygon fill="none" stroke="#000000" points="947,-267.1084 947,-289.1084 1152,-289.1084 1152,-267.1084 947,-267.1084"/>
<image xlink:href="../../images/primaryKeys.png" width="11px" height="12px" preserveAspectRatio="xMinYMin meet" x="952" y="-284.108"/>
<text text-anchor="start" x="967" y="-274.2084" font-family="Helvetica,sans-Serif" font-size="11.00" fill="#000000">OFFENDER_ID</text>
<polygon fill="none" stroke="#000000" points="947,-245.1084 947,-267.1084 1152,-267.1084 1152,-245.1084 947,-245.1084"/>
<image xlink:href="../../images/primaryKeys.png" width="11px" height="12px" preserveAspectRatio="xMinYMin meet" x="952" y="-262.108"/>
<text text-anchor="start" x="967" y="-252.2084" font-family="Helvetica,sans-Serif" font-size="11.00" fill="#000000">CONTACT_OUTCOME_TYPE_ID</text>
<polygon fill="none" stroke="#000000" points="947,-223.1084 947,-245.1084 1152,-245.1084 1152,-223.1084 947,-223.1084"/>
<image xlink:href="../../images/primaryKeys.png" width="11px" height="12px" preserveAspectRatio="xMinYMin meet" x="952" y="-240.108"/>
<text text-anchor="start" x="967" y="-230.2084" font-family="Helvetica,sans-Serif" font-size="11.00" fill="#000000">CONTACT_EA_ID</text>
<polygon fill="none" stroke="#000000" points="947,-201.1084 947,-223.1084 1152,-223.1084 1152,-201.1084 947,-201.1084"/>
<image xlink:href="../../images/primaryKeys.png" width="11px" height="12px" preserveAspectRatio="xMinYMin meet" x="952" y="-218.108"/>
<text text-anchor="start" x="967" y="-208.2084" font-family="Helvetica,sans-Serif" font-size="11.00" fill="#000000">ENFORCEABLE_CONTACT_ID</text>
<polygon fill="none" stroke="#000000" points="947,-179.1084 947,-201.1084 1152,-201.1084 1152,-179.1084 947,-179.1084"/>
<image xlink:href="../../images/primaryKeys.png" width="11px" height="12px" preserveAspectRatio="xMinYMin meet" x="952" y="-196.108"/>
<text text-anchor="start" x="967" y="-186.2084" font-family="Helvetica,sans-Serif" font-size="11.00" fill="#000000">EVENT_ID</text>
<polygon fill="none" stroke="#000000" points="947,-160.1084 947,-179.1084 1152,-179.1084 1152,-160.1084 947,-160.1084"/>
<text text-anchor="start" x="950" y="-166.2084" font-family="Helvetica,sans-Serif" font-size="11.00" fill="#000000">...</text>
<polygon fill="#ffffff" stroke="transparent" points="947,-141.1084 947,-160.1084 1032,-160.1084 1032,-141.1084 947,-141.1084"/>
<polygon fill="none" stroke="#000000" points="947,-141.1084 947,-160.1084 1032,-160.1084 1032,-141.1084 947,-141.1084"/>
<text text-anchor="start" x="950" y="-147.2084" font-family="Helvetica,sans-Serif" font-size="11.00" fill="#000000">&lt; 13</text>
<polygon fill="#ffffff" stroke="transparent" points="1032,-141.1084 1032,-160.1084 1111,-160.1084 1111,-141.1084 1032,-141.1084"/>
<polygon fill="none" stroke="#000000" points="1032,-141.1084 1032,-160.1084 1111,-160.1084 1111,-141.1084 1032,-141.1084"/>
<text text-anchor="start" x="1063.3807" y="-147.2084" font-family="Helvetica,sans-Serif" font-size="11.00" fill="#000000">284 rows</text>
<polygon fill="#ffffff" stroke="transparent" points="1111,-141.1084 1111,-160.1084 1152,-160.1084 1152,-141.1084 1111,-141.1084"/>
<polygon fill="none" stroke="#000000" points="1111,-141.1084 1111,-160.1084 1152,-160.1084 1152,-141.1084 1111,-141.1084"/>
<text text-anchor="start" x="1142.8862" y="-147.2084" font-family="Helvetica,sans-Serif" font-size="11.00" fill="#000000"> &#160;</text>
</a>
</g>
</g>
<!-- R_ASSESSMENT_OUTCOME -->
<g id="node2" class="node">
<title>R_ASSESSMENT_OUTCOME</title>
<g id="a_node2"><a xlink:href="../../tables/R_ASSESSMENT_OUTCOME.html" xlink:title="R_ASSESSMENT_OUTCOME" target="_top">
<polygon fill="#ffffff" stroke="transparent" points="624,-309.1084 624,-619.1084 874,-619.1084 874,-309.1084 624,-309.1084"/>
<polygon fill="#f5f5f5" stroke="transparent" points="626,-594.1084 626,-617.1084 872,-617.1084 872,-594.1084 626,-594.1084"/>
<polygon fill="none" stroke="#000000" points="626,-594.1084 626,-617.1084 872,-617.1084 872,-594.1084 626,-594.1084"/>
<text text-anchor="start" x="631" y="-603.2084" font-family="Helvetica,sans-Serif" font-weight="bold" font-size="11.00" fill="#000000">R_ASSESSMENT_OUTCOME</text>
<text text-anchor="start" x="837.0437" y="-602.2084" font-family="Helvetica,sans-Serif" font-size="11.00" fill="#000000">[table]</text>
<polygon fill="none" stroke="#000000" points="626,-572.1084 626,-594.1084 805,-594.1084 805,-572.1084 626,-572.1084"/>
<image xlink:href="../../images/primaryKeys.png" width="11px" height="12px" preserveAspectRatio="xMinYMin meet" x="631" y="-589.108"/>
<text text-anchor="start" x="645.6926" y="-579.2084" font-family="Helvetica,sans-Serif" font-size="11.00" fill="#000000">ASSESSMENT_OUTCOME_ID</text>
<polygon fill="none" stroke="#000000" points="805,-572.1084 805,-594.1084 872,-594.1084 872,-572.1084 805,-572.1084"/>
<text text-anchor="start" x="808" y="-579.8084" font-family="Helvetica,sans-Serif" font-size="11.00" fill="#000000">number[38]</text>
<polygon fill="none" stroke="#000000" points="626,-550.1084 626,-572.1084 805,-572.1084 805,-550.1084 626,-550.1084"/>
<image xlink:href="../../images/primaryKeys.png" width="11px" height="12px" preserveAspectRatio="xMinYMin meet" x="631" y="-567.108"/>
<text text-anchor="start" x="646" y="-557.2084" font-family="Helvetica,sans-Serif" font-size="11.00" fill="#000000">CODE</text>
<polygon fill="none" stroke="#000000" points="805,-550.1084 805,-572.1084 872,-572.1084 872,-550.1084 805,-550.1084"/>
<text text-anchor="start" x="807.9365" y="-557.8084" font-family="Helvetica,sans-Serif" font-size="11.00" fill="#000000">varchar2[10]</text>
<polygon fill="none" stroke="#000000" points="626,-528.1084 626,-550.1084 805,-550.1084 805,-528.1084 626,-528.1084"/>
<text text-anchor="start" x="646" y="-535.2084" font-family="Helvetica,sans-Serif" font-size="11.00" fill="#000000">DESCRIPTION</text>
<polygon fill="none" stroke="#000000" points="805,-528.1084 805,-550.1084 872,-550.1084 872,-528.1084 805,-528.1084"/>
<text text-anchor="start" x="807.9365" y="-535.8084" font-family="Helvetica,sans-Serif" font-size="11.00" fill="#000000">varchar2[50]</text>
<polygon fill="none" stroke="#000000" points="626,-506.1084 626,-528.1084 805,-528.1084 805,-506.1084 626,-506.1084"/>
<text text-anchor="start" x="646" y="-513.2084" font-family="Helvetica,sans-Serif" font-size="11.00" fill="#000000">SELECTABLE</text>
<polygon fill="none" stroke="#000000" points="805,-506.1084 805,-528.1084 872,-528.1084 872,-506.1084 805,-506.1084"/>
<text text-anchor="start" x="808" y="-513.8084" font-family="Helvetica,sans-Serif" font-size="11.00" fill="#000000">char[1]</text>
<polygon fill="none" stroke="#000000" points="626,-484.1084 626,-506.1084 805,-506.1084 805,-484.1084 626,-484.1084"/>
<text text-anchor="start" x="640.4907" y="-491.2084" font-family="Helvetica,sans-Serif" font-size="11.00" fill="#000000">ASSESSMENT_OPEN_TO_EDIT</text>
<polygon fill="none" stroke="#000000" points="805,-484.1084 805,-506.1084 872,-506.1084 872,-484.1084 805,-484.1084"/>
<text text-anchor="start" x="808" y="-491.8084" font-family="Helvetica,sans-Serif" font-size="11.00" fill="#000000">char[1]</text>
<polygon fill="none" stroke="#000000" points="626,-462.1084 626,-484.1084 805,-484.1084 805,-462.1084 626,-462.1084"/>
<text text-anchor="start" x="646" y="-469.2084" font-family="Helvetica,sans-Serif" font-size="11.00" fill="#000000">CREATED_BY_USER_ID</text>
<polygon fill="none" stroke="#000000" points="805,-462.1084 805,-484.1084 872,-484.1084 872,-462.1084 805,-462.1084"/>
<text text-anchor="start" x="808" y="-469.8084" font-family="Helvetica,sans-Serif" font-size="11.00" fill="#000000">number[38]</text>
<polygon fill="none" stroke="#000000" points="626,-440.1084 626,-462.1084 805,-462.1084 805,-440.1084 626,-440.1084"/>
<image xlink:href="../../images/primaryKeys.png" width="11px" height="12px" preserveAspectRatio="xMinYMin meet" x="631" y="-457.108"/>
<text text-anchor="start" x="646" y="-447.2084" font-family="Helvetica,sans-Serif" font-size="11.00" fill="#000000">TRAINING_SESSION_ID</text>
<polygon fill="none" stroke="#000000" points="805,-440.1084 805,-462.1084 872,-462.1084 872,-440.1084 805,-440.1084"/>
<text text-anchor="start" x="808" y="-447.8084" font-family="Helvetica,sans-Serif" font-size="11.00" fill="#000000">number[38]</text>
<polygon fill="none" stroke="#000000" points="626,-418.1084 626,-440.1084 805,-440.1084 805,-418.1084 626,-418.1084"/>
<text text-anchor="start" x="646" y="-425.2084" font-family="Helvetica,sans-Serif" font-size="11.00" fill="#000000">LAST_UPDATED_USER_ID</text>
<polygon fill="none" stroke="#000000" points="805,-418.1084 805,-440.1084 872,-440.1084 872,-418.1084 805,-418.1084"/>
<text text-anchor="start" x="808" y="-425.8084" font-family="Helvetica,sans-Serif" font-size="11.00" fill="#000000">number[38]</text>
<polygon fill="none" stroke="#000000" points="626,-396.1084 626,-418.1084 805,-418.1084 805,-396.1084 626,-396.1084"/>
<text text-anchor="start" x="646" y="-403.2084" font-family="Helvetica,sans-Serif" font-size="11.00" fill="#000000">ROW_VERSION</text>
<polygon fill="none" stroke="#000000" points="805,-396.1084 805,-418.1084 872,-418.1084 872,-396.1084 805,-396.1084"/>
<text text-anchor="start" x="808" y="-403.8084" font-family="Helvetica,sans-Serif" font-size="11.00" fill="#000000">number[38]</text>
<polygon fill="none" stroke="#000000" points="626,-374.1084 626,-396.1084 805,-396.1084 805,-374.1084 626,-374.1084"/>
<text text-anchor="start" x="646" y="-381.2084" font-family="Helvetica,sans-Serif" font-size="11.00" fill="#000000">CREATED_DATETIME</text>
<polygon fill="none" stroke="#000000" points="805,-374.1084 805,-396.1084 872,-396.1084 872,-374.1084 805,-374.1084"/>
<text text-anchor="start" x="808" y="-381.8084" font-family="Helvetica,sans-Serif" font-size="11.00" fill="#000000">date[7]</text>
<polygon fill="none" stroke="#000000" points="626,-352.1084 626,-374.1084 805,-374.1084 805,-352.1084 626,-352.1084"/>
<text text-anchor="start" x="646" y="-359.2084" font-family="Helvetica,sans-Serif" font-size="11.00" fill="#000000">LAST_UPDATED_DATETIME</text>
<polygon fill="none" stroke="#000000" points="805,-352.1084 805,-374.1084 872,-374.1084 872,-352.1084 805,-352.1084"/>
<text text-anchor="start" x="808" y="-359.8084" font-family="Helvetica,sans-Serif" font-size="11.00" fill="#000000">date[7]</text>
<polygon fill="none" stroke="#000000" points="626,-330.1084 626,-352.1084 805,-352.1084 805,-330.1084 626,-330.1084"/>
<text text-anchor="start" x="646" y="-337.2084" font-family="Helvetica,sans-Serif" font-size="11.00" fill="#000000">SPG_OVERRIDE</text>
<polygon fill="none" stroke="#000000" points="805,-330.1084 805,-352.1084 872,-352.1084 872,-330.1084 805,-330.1084"/>
<text text-anchor="start" x="808" y="-337.8084" font-family="Helvetica,sans-Serif" font-size="11.00" fill="#000000">number[38]</text>
<polygon fill="#ffffff" stroke="transparent" points="626,-311.1084 626,-330.1084 704,-330.1084 704,-311.1084 626,-311.1084"/>
<polygon fill="none" stroke="#000000" points="626,-311.1084 626,-330.1084 704,-330.1084 704,-311.1084 626,-311.1084"/>
<text text-anchor="start" x="629" y="-317.2084" font-family="Helvetica,sans-Serif" font-size="11.00" fill="#000000">&lt; 0</text>
<polygon fill="#ffffff" stroke="transparent" points="704,-311.1084 704,-330.1084 805,-330.1084 805,-311.1084 704,-311.1084"/>
<polygon fill="none" stroke="#000000" points="704,-311.1084 704,-330.1084 805,-330.1084 805,-311.1084 704,-311.1084"/>
<text text-anchor="start" x="763.4956" y="-317.2084" font-family="Helvetica,sans-Serif" font-size="11.00" fill="#000000">33 rows</text>
<polygon fill="#ffffff" stroke="transparent" points="805,-311.1084 805,-330.1084 872,-330.1084 872,-311.1084 805,-311.1084"/>
<polygon fill="none" stroke="#000000" points="805,-311.1084 805,-330.1084 872,-330.1084 872,-311.1084 805,-311.1084"/>
<text text-anchor="start" x="853.4053" y="-317.2084" font-family="Helvetica,sans-Serif" font-size="11.00" fill="#000000">2 &gt;</text>
<polygon fill="none" stroke="#000000" stroke-width="2" points="625,-310.1084 625,-618.1084 873,-618.1084 873,-310.1084 625,-310.1084"/>
</a>
</g>
</g>
<!-- ASSESSMENT&#45;&gt;R_ASSESSMENT_OUTCOME -->
<g id="edge1" class="edge">
<title>ASSESSMENT:w&#45;&gt;R_ASSESSMENT_OUTCOME:e</title>
<path fill="none" stroke="#000000" d="M932.4205,-323.6412C840.6754,-345.0309 987.2725,-583.1084 872,-583.1084"/>
<polygon fill="#000000" stroke="#000000" points="939.0438,-322.9449 947.3764,-325.6887 943.0219,-322.5266 947,-322.1084 947,-322.1084 947,-322.1084 943.0219,-322.5266 946.6236,-318.5281 939.0438,-322.9449 939.0438,-322.9449"/>
<ellipse fill="none" stroke="#000000" cx="935.8614" cy="-323.2795" rx="3.2" ry="3.2"/>
</g>
<!-- R_ASSESSMENT_TYPE -->
<g id="node3" class="node">
<title>R_ASSESSMENT_TYPE</title>
<g id="a_node3"><a xlink:href="../../tables/R_ASSESSMENT_TYPE.html" xlink:title="R_ASSESSMENT_TYPE" target="_top">
<polygon fill="#ffffff" stroke="transparent" points="665.5,-640.6084 665.5,-701.6084 832.5,-701.6084 832.5,-640.6084 665.5,-640.6084"/>
<polygon fill="#f5f5f5" stroke="transparent" points="666,-678.1084 666,-701.1084 833,-701.1084 833,-678.1084 666,-678.1084"/>
<polygon fill="none" stroke="#000000" points="666,-678.1084 666,-701.1084 833,-701.1084 833,-678.1084 666,-678.1084"/>
<text text-anchor="start" x="670.9639" y="-687.2084" font-family="Helvetica,sans-Serif" font-weight="bold" font-size="11.00" fill="#000000">R_ASSESSMENT_TYPE</text>
<text text-anchor="start" x="798.5219" y="-686.2084" font-family="Helvetica,sans-Serif" font-size="11.00" fill="#000000">[table]</text>
<polygon fill="none" stroke="#000000" points="666,-659.1084 666,-678.1084 833,-678.1084 833,-659.1084 666,-659.1084"/>
<text text-anchor="start" x="669" y="-665.2084" font-family="Helvetica,sans-Serif" font-size="11.00" fill="#000000">...</text>
<polygon fill="#ffffff" stroke="transparent" points="666,-640.1084 666,-659.1084 727,-659.1084 727,-640.1084 666,-640.1084"/>
<polygon fill="none" stroke="#000000" points="666,-640.1084 666,-659.1084 727,-659.1084 727,-640.1084 666,-640.1084"/>
<text text-anchor="start" x="669" y="-646.2084" font-family="Helvetica,sans-Serif" font-size="11.00" fill="#000000">&lt; 1</text>
<polygon fill="#ffffff" stroke="transparent" points="727,-640.1084 727,-659.1084 791,-659.1084 791,-640.1084 727,-640.1084"/>
<polygon fill="none" stroke="#000000" points="727,-640.1084 727,-659.1084 791,-659.1084 791,-640.1084 727,-640.1084"/>
<text text-anchor="start" x="749.4956" y="-646.2084" font-family="Helvetica,sans-Serif" font-size="11.00" fill="#000000">80 rows</text>
<polygon fill="#ffffff" stroke="transparent" points="791,-640.1084 791,-659.1084 833,-659.1084 833,-640.1084 791,-640.1084"/>
<polygon fill="none" stroke="#000000" points="791,-640.1084 791,-659.1084 833,-659.1084 833,-640.1084 791,-640.1084"/>
<text text-anchor="start" x="814.4053" y="-646.2084" font-family="Helvetica,sans-Serif" font-size="11.00" fill="#000000">3 &gt;</text>
</a>
</g>
</g>
<!-- ASSESSMENT&#45;&gt;R_ASSESSMENT_TYPE -->
<g id="edge2" class="edge">
<title>ASSESSMENT:w&#45;&gt;R_ASSESSMENT_TYPE:e</title>
<path fill="none" stroke="#000000" d="M932.5432,-389.3568C824.2835,-409.5562 962.1149,-668.1084 833,-668.1084"/>
<polygon fill="#000000" stroke="#000000" points="939.0297,-388.7967 947.3097,-391.6951 943.0148,-388.4526 947,-388.1084 947,-388.1084 947,-388.1084 943.0148,-388.4526 946.6903,-384.5218 939.0297,-388.7967 939.0297,-388.7967"/>
<ellipse fill="none" stroke="#000000" cx="935.8415" cy="-389.072" rx="3.2" ry="3.2"/>
</g>
<!-- R_ENFORCEMENT_ACTION -->
<g id="node4" class="node">
<title>R_ENFORCEMENT_ACTION</title>
<g id="a_node4"><a xlink:href="../../tables/R_ENFORCEMENT_ACTION.html" xlink:title="R_ENFORCEMENT_ACTION" target="_top">
<polygon fill="#ffffff" stroke="transparent" points="377,-176.6084 377,-237.6084 566,-237.6084 566,-176.6084 377,-176.6084"/>
<polygon fill="#f5f5f5" stroke="transparent" points="377.5,-214.1084 377.5,-237.1084 566.5,-237.1084 566.5,-214.1084 377.5,-214.1084"/>
<polygon fill="none" stroke="#000000" points="377.5,-214.1084 377.5,-237.1084 566.5,-237.1084 566.5,-214.1084 377.5,-214.1084"/>
<text text-anchor="start" x="382.174" y="-223.2084" font-family="Helvetica,sans-Serif" font-weight="bold" font-size="11.00" fill="#000000">R_ENFORCEMENT_ACTION</text>
<text text-anchor="start" x="532.0219" y="-222.2084" font-family="Helvetica,sans-Serif" font-size="11.00" fill="#000000">[table]</text>
<polygon fill="none" stroke="#000000" points="377.5,-195.1084 377.5,-214.1084 566.5,-214.1084 566.5,-195.1084 377.5,-195.1084"/>
<text text-anchor="start" x="380.5" y="-201.2084" font-family="Helvetica,sans-Serif" font-size="11.00" fill="#000000">...</text>
<polygon fill="#ffffff" stroke="transparent" points="377.5,-176.1084 377.5,-195.1084 449.5,-195.1084 449.5,-176.1084 377.5,-176.1084"/>
<polygon fill="none" stroke="#000000" points="377.5,-176.1084 377.5,-195.1084 449.5,-195.1084 449.5,-176.1084 377.5,-176.1084"/>
<text text-anchor="start" x="380.5" y="-182.2084" font-family="Helvetica,sans-Serif" font-size="11.00" fill="#000000">&lt; 1</text>
<polygon fill="#ffffff" stroke="transparent" points="449.5,-176.1084 449.5,-195.1084 519.5,-195.1084 519.5,-176.1084 449.5,-176.1084"/>
<polygon fill="none" stroke="#000000" points="449.5,-176.1084 449.5,-195.1084 519.5,-195.1084 519.5,-176.1084 449.5,-176.1084"/>
<text text-anchor="start" x="477.9956" y="-182.2084" font-family="Helvetica,sans-Serif" font-size="11.00" fill="#000000">49 rows</text>
<polygon fill="#ffffff" stroke="transparent" points="519.5,-176.1084 519.5,-195.1084 566.5,-195.1084 566.5,-176.1084 519.5,-176.1084"/>
<polygon fill="none" stroke="#000000" points="519.5,-176.1084 519.5,-195.1084 566.5,-195.1084 566.5,-176.1084 519.5,-176.1084"/>
<text text-anchor="start" x="547.9053" y="-182.2084" font-family="Helvetica,sans-Serif" font-size="11.00" fill="#000000">6 &gt;</text>
</a>
</g>
</g>
<!-- ASSESSMENT&#45;&gt;R_ENFORCEMENT_ACTION -->
<g id="edge3" class="edge">
<title>ASSESSMENT:w&#45;&gt;R_ENFORCEMENT_ACTION:e</title>
<path fill="none" stroke="#000000" d="M932.6181,-231.6136C900.8315,-218.507 923.2542,-157.3737 882,-135.1084 829.9815,-107.0335 668.5874,-108.1142 616,-135.1084 582.4235,-152.3439 604.2418,-204.1084 566.5,-204.1084"/>
<polygon fill="#000000" stroke="#000000" points="939.1177,-232.741 946.3847,-237.6554 943.0589,-233.4247 947,-234.1084 947,-234.1084 947,-234.1084 943.0589,-233.4247 947.6153,-230.5614 939.1177,-232.741 939.1177,-232.741"/>
<ellipse fill="none" stroke="#000000" cx="935.9648" cy="-232.1941" rx="3.2" ry="3.2"/>
</g>
<!-- R_CONTACT_OUTCOME_TYPE -->
<g id="node5" class="node">
<title>R_CONTACT_OUTCOME_TYPE</title>
<g id="a_node5"><a xlink:href="../../tables/R_CONTACT_OUTCOME_TYPE.html" xlink:title="R_CONTACT_OUTCOME_TYPE" target="_top">
<polygon fill="#ffffff" stroke="transparent" points="368,-258.6084 368,-319.6084 575,-319.6084 575,-258.6084 368,-258.6084"/>
<polygon fill="#f5f5f5" stroke="transparent" points="368.5,-296.1084 368.5,-319.1084 575.5,-319.1084 575.5,-296.1084 368.5,-296.1084"/>
<polygon fill="none" stroke="#000000" points="368.5,-296.1084 368.5,-319.1084 575.5,-319.1084 575.5,-296.1084 368.5,-296.1084"/>
<text text-anchor="start" x="373.3091" y="-305.2084" font-family="Helvetica,sans-Serif" font-weight="bold" font-size="11.00" fill="#000000">R_CONTACT_OUTCOME_TYPE</text>
<text text-anchor="start" x="541.0219" y="-304.2084" font-family="Helvetica,sans-Serif" font-size="11.00" fill="#000000">[table]</text>
<polygon fill="none" stroke="#000000" points="368.5,-277.1084 368.5,-296.1084 575.5,-296.1084 575.5,-277.1084 368.5,-277.1084"/>
<text text-anchor="start" x="371.5" y="-283.2084" font-family="Helvetica,sans-Serif" font-size="11.00" fill="#000000">...</text>
<polygon fill="#ffffff" stroke="transparent" points="368.5,-258.1084 368.5,-277.1084 439.5,-277.1084 439.5,-258.1084 368.5,-258.1084"/>
<polygon fill="none" stroke="#000000" points="368.5,-258.1084 368.5,-277.1084 439.5,-277.1084 439.5,-258.1084 368.5,-258.1084"/>
<text text-anchor="start" x="371.5" y="-264.2084" font-family="Helvetica,sans-Serif" font-size="11.00" fill="#000000"> &#160;</text>
<polygon fill="#ffffff" stroke="transparent" points="439.5,-258.1084 439.5,-277.1084 518.5,-277.1084 518.5,-258.1084 439.5,-258.1084"/>
<polygon fill="none" stroke="#000000" points="439.5,-258.1084 439.5,-277.1084 518.5,-277.1084 518.5,-258.1084 439.5,-258.1084"/>
<text text-anchor="start" x="470.8807" y="-264.2084" font-family="Helvetica,sans-Serif" font-size="11.00" fill="#000000">220 rows</text>
<polygon fill="#ffffff" stroke="transparent" points="518.5,-258.1084 518.5,-277.1084 575.5,-277.1084 575.5,-258.1084 518.5,-258.1084"/>
<polygon fill="none" stroke="#000000" points="518.5,-258.1084 518.5,-277.1084 575.5,-277.1084 575.5,-258.1084 518.5,-258.1084"/>
<text text-anchor="start" x="550.7904" y="-264.2084" font-family="Helvetica,sans-Serif" font-size="11.00" fill="#000000">10 &gt;</text>
</a>
</g>
</g>
<!-- ASSESSMENT&#45;&gt;R_CONTACT_OUTCOME_TYPE -->
<g id="edge4" class="edge">
<title>ASSESSMENT:w&#45;&gt;R_CONTACT_OUTCOME_TYPE:e</title>
<path fill="none" stroke="#000000" d="M932.4216,-255.4996C914.4606,-253.8903 905.4915,-249.5486 882,-248.1084 763.9993,-240.8741 725.9294,-204.611 616,-248.1084 593.0487,-257.1899 600.1827,-286.1084 575.5,-286.1084"/>
<polygon fill="#000000" stroke="#000000" points="939.007,-255.7746 946.8498,-259.7053 943.0035,-255.9415 947,-256.1084 947,-256.1084 947,-256.1084 943.0035,-255.9415 947.1502,-252.5115 939.007,-255.7746 939.007,-255.7746"/>
<ellipse fill="none" stroke="#000000" cx="935.8098" cy="-255.641" rx="3.2" ry="3.2"/>
</g>
<!-- CONTACT -->
<g id="node6" class="node">
<title>CONTACT</title>
<g id="a_node6"><a xlink:href="../../tables/CONTACT.html" xlink:title="CONTACT" target="_top">
<polygon fill="#ffffff" stroke="transparent" points="686,-145.6084 686,-206.6084 812,-206.6084 812,-145.6084 686,-145.6084"/>
<polygon fill="#f5f5f5" stroke="transparent" points="686,-183.1084 686,-206.1084 812,-206.1084 812,-183.1084 686,-183.1084"/>
<polygon fill="none" stroke="#000000" points="686,-183.1084 686,-206.1084 812,-206.1084 812,-183.1084 686,-183.1084"/>
<text text-anchor="start" x="691" y="-192.2084" font-family="Helvetica,sans-Serif" font-weight="bold" font-size="11.00" fill="#000000">CONTACT</text>
<text text-anchor="start" x="777.0437" y="-191.2084" font-family="Helvetica,sans-Serif" font-size="11.00" fill="#000000">[table]</text>
<polygon fill="none" stroke="#000000" points="686,-164.1084 686,-183.1084 812,-183.1084 812,-164.1084 686,-164.1084"/>
<text text-anchor="start" x="689" y="-170.2084" font-family="Helvetica,sans-Serif" font-size="11.00" fill="#000000">...</text>
<polygon fill="#ffffff" stroke="transparent" points="686,-145.1084 686,-164.1084 713,-164.1084 713,-145.1084 686,-145.1084"/>
<polygon fill="none" stroke="#000000" points="686,-145.1084 686,-164.1084 713,-164.1084 713,-145.1084 686,-145.1084"/>
<text text-anchor="start" x="688.6452" y="-151.2084" font-family="Helvetica,sans-Serif" font-size="11.00" fill="#000000">&lt; 26</text>
<polygon fill="#ffffff" stroke="transparent" points="713,-145.1084 713,-164.1084 785,-164.1084 785,-145.1084 713,-145.1084"/>
<polygon fill="none" stroke="#000000" points="713,-145.1084 713,-164.1084 785,-164.1084 785,-145.1084 713,-145.1084"/>
<text text-anchor="start" x="715.9896" y="-151.2084" font-family="Helvetica,sans-Serif" font-size="11.00" fill="#000000">165,869 rows</text>
<polygon fill="#ffffff" stroke="transparent" points="785,-145.1084 785,-164.1084 812,-164.1084 812,-145.1084 785,-145.1084"/>
<polygon fill="none" stroke="#000000" points="785,-145.1084 785,-164.1084 812,-164.1084 812,-145.1084 785,-145.1084"/>
<text text-anchor="start" x="787.6452" y="-151.2084" font-family="Helvetica,sans-Serif" font-size="11.00" fill="#000000">14 &gt;</text>
</a>
</g>
</g>
<!-- ASSESSMENT&#45;&gt;CONTACT -->
<g id="edge5" class="edge">
<title>ASSESSMENT:w&#45;&gt;CONTACT:e</title>
<path fill="none" stroke="#000000" d="M932.3106,-211.3294C882.4818,-205.8327 869.2084,-173.1084 812,-173.1084"/>
<polygon fill="#000000" stroke="#000000" points="939.0112,-211.6847 946.8093,-215.7034 943.0056,-211.8965 947,-212.1084 947,-212.1084 947,-212.1084 943.0056,-211.8965 947.1907,-208.5135 939.0112,-211.6847 939.0112,-211.6847"/>
<ellipse fill="none" stroke="#000000" cx="935.8157" cy="-211.5152" rx="3.2" ry="3.2"/>
</g>
<!-- EVENT -->
<g id="node7" class="node">
<title>EVENT</title>
<g id="a_node7"><a xlink:href="../../tables/EVENT.html" xlink:title="EVENT" target="_top">
<polygon fill="#ffffff" stroke="transparent" points="415,-66.6084 415,-127.6084 528,-127.6084 528,-66.6084 415,-66.6084"/>
<polygon fill="#f5f5f5" stroke="transparent" points="415.5,-104.1084 415.5,-127.1084 528.5,-127.1084 528.5,-104.1084 415.5,-104.1084"/>
<polygon fill="none" stroke="#000000" points="415.5,-104.1084 415.5,-127.1084 528.5,-127.1084 528.5,-104.1084 415.5,-104.1084"/>
<text text-anchor="start" x="420.5" y="-113.2084" font-family="Helvetica,sans-Serif" font-weight="bold" font-size="11.00" fill="#000000">EVENT</text>
<text text-anchor="start" x="493.5437" y="-112.2084" font-family="Helvetica,sans-Serif" font-size="11.00" fill="#000000">[table]</text>
<polygon fill="none" stroke="#000000" points="415.5,-85.1084 415.5,-104.1084 528.5,-104.1084 528.5,-85.1084 415.5,-85.1084"/>
<text text-anchor="start" x="418.5" y="-91.2084" font-family="Helvetica,sans-Serif" font-size="11.00" fill="#000000">...</text>
<polygon fill="#ffffff" stroke="transparent" points="415.5,-66.1084 415.5,-85.1084 436.5,-85.1084 436.5,-66.1084 415.5,-66.1084"/>
<polygon fill="none" stroke="#000000" points="415.5,-66.1084 415.5,-85.1084 436.5,-85.1084 436.5,-66.1084 415.5,-66.1084"/>
<text text-anchor="start" x="418.2027" y="-72.2084" font-family="Helvetica,sans-Serif" font-size="11.00" fill="#000000">&lt; 5</text>
<polygon fill="#ffffff" stroke="transparent" points="436.5,-66.1084 436.5,-85.1084 501.5,-85.1084 501.5,-66.1084 436.5,-66.1084"/>
<polygon fill="none" stroke="#000000" points="436.5,-66.1084 436.5,-85.1084 501.5,-85.1084 501.5,-66.1084 436.5,-66.1084"/>
<text text-anchor="start" x="439.047" y="-72.2084" font-family="Helvetica,sans-Serif" font-size="11.00" fill="#000000">14,604 rows</text>
<polygon fill="#ffffff" stroke="transparent" points="501.5,-66.1084 501.5,-85.1084 528.5,-85.1084 528.5,-66.1084 501.5,-66.1084"/>
<polygon fill="none" stroke="#000000" points="501.5,-66.1084 501.5,-85.1084 528.5,-85.1084 528.5,-66.1084 501.5,-66.1084"/>
<text text-anchor="start" x="504.1452" y="-72.2084" font-family="Helvetica,sans-Serif" font-size="11.00" fill="#000000">27 &gt;</text>
</a>
</g>
</g>
<!-- ASSESSMENT&#45;&gt;EVENT -->
<g id="edge6" class="edge">
<title>ASSESSMENT:w&#45;&gt;EVENT:e</title>
<path fill="none" stroke="#000000" d="M932.5491,-187.4303C906.1458,-175.8257 917.1621,-129.6815 882,-112.1084 741.2808,-41.7806 685.8147,-94.1084 528.5,-94.1084"/>
<polygon fill="#000000" stroke="#000000" points="939.1339,-188.6506 946.344,-193.6481 943.067,-189.3795 947,-190.1084 947,-190.1084 947,-190.1084 943.067,-189.3795 947.656,-186.5687 939.1339,-188.6506 939.1339,-188.6506"/>
<ellipse fill="none" stroke="#000000" cx="935.9875" cy="-188.0674" rx="3.2" ry="3.2"/>
</g>
<!-- OFFENDER -->
<g id="node8" class="node">
<title>OFFENDER</title>
<g id="a_node8"><a xlink:href="../../tables/OFFENDER.html" xlink:title="OFFENDER" target="_top">
<polygon fill="#ffffff" stroke="transparent" points="194,-220.6084 194,-281.6084 319,-281.6084 319,-220.6084 194,-220.6084"/>
<polygon fill="#f5f5f5" stroke="transparent" points="194.5,-258.1084 194.5,-281.1084 319.5,-281.1084 319.5,-258.1084 194.5,-258.1084"/>
<polygon fill="none" stroke="#000000" points="194.5,-258.1084 194.5,-281.1084 319.5,-281.1084 319.5,-258.1084 194.5,-258.1084"/>
<text text-anchor="start" x="199.5" y="-267.2084" font-family="Helvetica,sans-Serif" font-weight="bold" font-size="11.00" fill="#000000">OFFENDER</text>
<text text-anchor="start" x="284.5437" y="-266.2084" font-family="Helvetica,sans-Serif" font-size="11.00" fill="#000000">[table]</text>
<polygon fill="none" stroke="#000000" points="194.5,-239.1084 194.5,-258.1084 319.5,-258.1084 319.5,-239.1084 194.5,-239.1084"/>
<text text-anchor="start" x="197.5" y="-245.2084" font-family="Helvetica,sans-Serif" font-size="11.00" fill="#000000">...</text>
<polygon fill="#ffffff" stroke="transparent" points="194.5,-220.1084 194.5,-239.1084 221.5,-239.1084 221.5,-220.1084 194.5,-220.1084"/>
<polygon fill="none" stroke="#000000" points="194.5,-220.1084 194.5,-239.1084 221.5,-239.1084 221.5,-220.1084 194.5,-220.1084"/>
<text text-anchor="start" x="197.1452" y="-226.2084" font-family="Helvetica,sans-Serif" font-size="11.00" fill="#000000">&lt; 16</text>
<polygon fill="#ffffff" stroke="transparent" points="221.5,-220.1084 221.5,-239.1084 286.5,-239.1084 286.5,-220.1084 221.5,-220.1084"/>
<polygon fill="none" stroke="#000000" points="221.5,-220.1084 221.5,-239.1084 286.5,-239.1084 286.5,-220.1084 221.5,-220.1084"/>
<text text-anchor="start" x="224.047" y="-226.2084" font-family="Helvetica,sans-Serif" font-size="11.00" fill="#000000">18,527 rows</text>
<polygon fill="#ffffff" stroke="transparent" points="286.5,-220.1084 286.5,-239.1084 319.5,-239.1084 319.5,-220.1084 286.5,-220.1084"/>
<polygon fill="none" stroke="#000000" points="286.5,-220.1084 286.5,-239.1084 319.5,-239.1084 319.5,-220.1084 286.5,-220.1084"/>
<text text-anchor="start" x="289.0878" y="-226.2084" font-family="Helvetica,sans-Serif" font-size="11.00" fill="#000000">102 &gt;</text>
</a>
</g>
</g>
<!-- ASSESSMENT&#45;&gt;OFFENDER -->
<g id="edge7" class="edge">
<title>ASSESSMENT:w&#45;&gt;OFFENDER:e</title>
<path fill="none" stroke="#000000" d="M932.3776,-277.7155C850.5106,-273.7803 676.2716,-242.306 616,-276.1084 591.468,-289.8668 607.532,-316.35 583,-330.1084 539.7779,-354.3489 402.0906,-356.2643 360,-330.1084 325.4757,-308.6544 360.1472,-248.1084 319.5,-248.1084"/>
<polygon fill="#000000" stroke="#000000" points="939.0029,-277.8935 946.9033,-281.7071 943.0014,-278.001 947,-278.1084 947,-278.1084 947,-278.1084 943.0014,-278.001 947.0967,-274.5097 939.0029,-277.8935 939.0029,-277.8935"/>
<ellipse fill="none" stroke="#000000" cx="935.804" cy="-277.8075" rx="3.2" ry="3.2"/>
</g>
<!-- PARTITION_AREA -->
<g id="node9" class="node">
<title>PARTITION_AREA</title>
<g id="a_node9"><a xlink:href="../../tables/PARTITION_AREA.html" xlink:title="PARTITION_AREA" target="_top">
<polygon fill="#ffffff" stroke="transparent" points="8,-220.6084 8,-281.6084 145,-281.6084 145,-220.6084 8,-220.6084"/>
<polygon fill="#f5f5f5" stroke="transparent" points="8.5,-258.1084 8.5,-281.1084 145.5,-281.1084 145.5,-258.1084 8.5,-258.1084"/>
<polygon fill="none" stroke="#000000" points="8.5,-258.1084 8.5,-281.1084 145.5,-281.1084 145.5,-258.1084 8.5,-258.1084"/>
<text text-anchor="start" x="13.1362" y="-267.2084" font-family="Helvetica,sans-Serif" font-weight="bold" font-size="11.00" fill="#000000">PARTITION_AREA</text>
<text text-anchor="start" x="111.0219" y="-266.2084" font-family="Helvetica,sans-Serif" font-size="11.00" fill="#000000">[table]</text>
<polygon fill="none" stroke="#000000" points="8.5,-239.1084 8.5,-258.1084 145.5,-258.1084 145.5,-239.1084 8.5,-239.1084"/>
<text text-anchor="start" x="11.5" y="-245.2084" font-family="Helvetica,sans-Serif" font-size="11.00" fill="#000000">...</text>
<polygon fill="#ffffff" stroke="transparent" points="8.5,-220.1084 8.5,-239.1084 47.5,-239.1084 47.5,-220.1084 8.5,-220.1084"/>
<polygon fill="none" stroke="#000000" points="8.5,-220.1084 8.5,-239.1084 47.5,-239.1084 47.5,-220.1084 8.5,-220.1084"/>
<text text-anchor="start" x="11.5" y="-226.2084" font-family="Helvetica,sans-Serif" font-size="11.00" fill="#000000"> &#160;</text>
<polygon fill="#ffffff" stroke="transparent" points="47.5,-220.1084 47.5,-239.1084 104.5,-239.1084 104.5,-220.1084 47.5,-220.1084"/>
<polygon fill="none" stroke="#000000" points="47.5,-220.1084 47.5,-239.1084 104.5,-239.1084 104.5,-220.1084 47.5,-220.1084"/>
<text text-anchor="start" x="62.9956" y="-226.2084" font-family="Helvetica,sans-Serif" font-size="11.00" fill="#000000">44 rows</text>
<polygon fill="#ffffff" stroke="transparent" points="104.5,-220.1084 104.5,-239.1084 145.5,-239.1084 145.5,-220.1084 104.5,-220.1084"/>
<polygon fill="none" stroke="#000000" points="104.5,-220.1084 104.5,-239.1084 145.5,-239.1084 145.5,-220.1084 104.5,-220.1084"/>
<text text-anchor="start" x="120.7904" y="-226.2084" font-family="Helvetica,sans-Serif" font-size="11.00" fill="#000000">81 &gt;</text>
</a>
</g>
</g>
<!-- ASSESSMENT&#45;&gt;PARTITION_AREA -->
<g id="edge8" class="edge">
<title>ASSESSMENT:w&#45;&gt;PARTITION_AREA:e</title>
<path fill="none" stroke="#000000" d="M932.7289,-413.1984C857.1869,-449.5886 953.3397,-796.3041 882,-860.1084 709.0106,-1014.8255 554.0157,-973.4686 360,-846.1084 215.4412,-751.2139 239.1015,-662.6759 186,-498.1084 168.7174,-444.5479 201.7798,-248.1084 145.5,-248.1084"/>
<polygon fill="#000000" stroke="#000000" points="939.1812,-411.8014 947.7618,-413.6269 943.0906,-410.9549 947,-410.1084 947,-410.1084 947,-410.1084 943.0906,-410.9549 946.2382,-406.5899 939.1812,-411.8014 939.1812,-411.8014"/>
<ellipse fill="none" stroke="#000000" cx="936.0536" cy="-412.4785" rx="3.2" ry="3.2"/>
</g>
<!-- PROVIDER_EMPLOYEE -->
<g id="node10" class="node">
<title>PROVIDER_EMPLOYEE</title>
<g id="a_node10"><a xlink:href="../../tables/PROVIDER_EMPLOYEE.html" xlink:title="PROVIDER_EMPLOYEE" target="_top">
<polygon fill="#ffffff" stroke="transparent" points="388,-582.6084 388,-643.6084 555,-643.6084 555,-582.6084 388,-582.6084"/>
<polygon fill="#f5f5f5" stroke="transparent" points="388.5,-620.1084 388.5,-643.1084 555.5,-643.1084 555.5,-620.1084 388.5,-620.1084"/>
<polygon fill="none" stroke="#000000" points="388.5,-620.1084 388.5,-643.1084 555.5,-643.1084 555.5,-620.1084 388.5,-620.1084"/>
<text text-anchor="start" x="393.4639" y="-629.2084" font-family="Helvetica,sans-Serif" font-weight="bold" font-size="11.00" fill="#000000">PROVIDER_EMPLOYEE</text>
<text text-anchor="start" x="521.0219" y="-628.2084" font-family="Helvetica,sans-Serif" font-size="11.00" fill="#000000">[table]</text>
<polygon fill="none" stroke="#000000" points="388.5,-601.1084 388.5,-620.1084 555.5,-620.1084 555.5,-601.1084 388.5,-601.1084"/>
<text text-anchor="start" x="391.5" y="-607.2084" font-family="Helvetica,sans-Serif" font-size="11.00" fill="#000000">...</text>
<polygon fill="#ffffff" stroke="transparent" points="388.5,-582.1084 388.5,-601.1084 452.5,-601.1084 452.5,-582.1084 388.5,-582.1084"/>
<polygon fill="none" stroke="#000000" points="388.5,-582.1084 388.5,-601.1084 452.5,-601.1084 452.5,-582.1084 388.5,-582.1084"/>
<text text-anchor="start" x="391.5" y="-588.2084" font-family="Helvetica,sans-Serif" font-size="11.00" fill="#000000">&lt; 2</text>
<polygon fill="#ffffff" stroke="transparent" points="452.5,-582.1084 452.5,-601.1084 506.5,-601.1084 506.5,-582.1084 452.5,-582.1084"/>
<polygon fill="none" stroke="#000000" points="452.5,-582.1084 452.5,-601.1084 506.5,-601.1084 506.5,-582.1084 452.5,-582.1084"/>
<text text-anchor="start" x="476.6105" y="-588.2084" font-family="Helvetica,sans-Serif" font-size="11.00" fill="#000000">1 row</text>
<polygon fill="#ffffff" stroke="transparent" points="506.5,-582.1084 506.5,-601.1084 555.5,-601.1084 555.5,-582.1084 506.5,-582.1084"/>
<polygon fill="none" stroke="#000000" points="506.5,-582.1084 506.5,-601.1084 555.5,-601.1084 555.5,-582.1084 506.5,-582.1084"/>
<text text-anchor="start" x="530.7904" y="-588.2084" font-family="Helvetica,sans-Serif" font-size="11.00" fill="#000000">22 &gt;</text>
</a>
</g>
</g>
<!-- ASSESSMENT&#45;&gt;PROVIDER_EMPLOYEE -->
<g id="edge9" class="edge">
<title>ASSESSMENT:w&#45;&gt;PROVIDER_EMPLOYEE:e</title>
<path fill="none" stroke="#000000" d="M932.7495,-436.0245C875.0772,-471.955 939.6743,-744.1495 882,-794.1084 837.3206,-832.8108 662.3453,-830.7995 616,-794.1084 548.5063,-740.6742 641.5849,-610.1084 555.5,-610.1084"/>
<polygon fill="#000000" stroke="#000000" points="939.286,-434.2283 947.9539,-435.5797 943.143,-433.1683 947,-432.1084 947,-432.1084 947,-432.1084 943.143,-433.1683 946.0461,-428.6371 939.286,-434.2283 939.286,-434.2283"/>
<ellipse fill="none" stroke="#000000" cx="936.2004" cy="-435.0762" rx="3.2" ry="3.2"/>
</g>
<!-- PROVIDER_TEAM -->
<g id="node11" class="node">
<title>PROVIDER_TEAM</title>
<g id="a_node11"><a xlink:href="../../tables/PROVIDER_TEAM.html" xlink:title="PROVIDER_TEAM" target="_top">
<polygon fill="#ffffff" stroke="transparent" points="403,-368.6084 403,-429.6084 540,-429.6084 540,-368.6084 403,-368.6084"/>
<polygon fill="#f5f5f5" stroke="transparent" points="403.5,-406.1084 403.5,-429.1084 540.5,-429.1084 540.5,-406.1084 403.5,-406.1084"/>
<polygon fill="none" stroke="#000000" points="403.5,-406.1084 403.5,-429.1084 540.5,-429.1084 540.5,-406.1084 403.5,-406.1084"/>
<text text-anchor="start" x="408.4437" y="-415.2084" font-family="Helvetica,sans-Serif" font-weight="bold" font-size="11.00" fill="#000000">PROVIDER_TEAM</text>
<text text-anchor="start" x="506.0219" y="-414.2084" font-family="Helvetica,sans-Serif" font-size="11.00" fill="#000000">[table]</text>
<polygon fill="none" stroke="#000000" points="403.5,-387.1084 403.5,-406.1084 540.5,-406.1084 540.5,-387.1084 403.5,-387.1084"/>
<text text-anchor="start" x="406.5" y="-393.2084" font-family="Helvetica,sans-Serif" font-size="11.00" fill="#000000">...</text>
<polygon fill="#ffffff" stroke="transparent" points="403.5,-368.1084 403.5,-387.1084 452.5,-387.1084 452.5,-368.1084 403.5,-368.1084"/>
<polygon fill="none" stroke="#000000" points="403.5,-368.1084 403.5,-387.1084 452.5,-387.1084 452.5,-368.1084 403.5,-368.1084"/>
<text text-anchor="start" x="406.5" y="-374.2084" font-family="Helvetica,sans-Serif" font-size="11.00" fill="#000000">&lt; 2</text>
<polygon fill="#ffffff" stroke="transparent" points="452.5,-368.1084 452.5,-387.1084 498.5,-387.1084 498.5,-368.1084 452.5,-368.1084"/>
<polygon fill="none" stroke="#000000" points="452.5,-368.1084 452.5,-387.1084 498.5,-387.1084 498.5,-368.1084 452.5,-368.1084"/>
<text text-anchor="start" x="468.6105" y="-374.2084" font-family="Helvetica,sans-Serif" font-size="11.00" fill="#000000">1 row</text>
<polygon fill="#ffffff" stroke="transparent" points="498.5,-368.1084 498.5,-387.1084 540.5,-387.1084 540.5,-368.1084 498.5,-368.1084"/>
<polygon fill="none" stroke="#000000" points="498.5,-368.1084 498.5,-387.1084 540.5,-387.1084 540.5,-368.1084 498.5,-368.1084"/>
<text text-anchor="start" x="515.7904" y="-374.2084" font-family="Helvetica,sans-Serif" font-size="11.00" fill="#000000">24 &gt;</text>
</a>
</g>
</g>
<!-- ASSESSMENT&#45;&gt;PROVIDER_TEAM -->
<g id="edge10" class="edge">
<title>ASSESSMENT:w&#45;&gt;PROVIDER_TEAM:e</title>
<path fill="none" stroke="#000000" d="M932.7687,-363.4383C908.3582,-352.665 915.1873,-312.2955 882,-298.1084 827.647,-274.8732 667.3228,-268.7811 616,-298.1084 590.9174,-312.4413 600.7558,-331.3203 583,-354.1084 566.6779,-375.0565 567.0563,-396.1084 540.5,-396.1084"/>
<polygon fill="#000000" stroke="#000000" points="939.1372,-364.6332 946.3361,-369.6467 943.0686,-365.3708 947,-366.1084 947,-366.1084 947,-366.1084 943.0686,-365.3708 947.6639,-362.5701 939.1372,-364.6332 939.1372,-364.6332"/>
<ellipse fill="none" stroke="#000000" cx="935.9921" cy="-364.0431" rx="3.2" ry="3.2"/>
</g>
<!-- REFERRAL -->
<g id="node12" class="node">
<title>REFERRAL</title>
<g id="a_node12"><a xlink:href="../../tables/REFERRAL.html" xlink:title="REFERRAL" target="_top">
<polygon fill="#ffffff" stroke="transparent" points="698.5,-722.6084 698.5,-783.6084 799.5,-783.6084 799.5,-722.6084 698.5,-722.6084"/>
<polygon fill="#f5f5f5" stroke="transparent" points="699,-760.1084 699,-783.1084 800,-783.1084 800,-760.1084 699,-760.1084"/>
<polygon fill="none" stroke="#000000" points="699,-760.1084 699,-783.1084 800,-783.1084 800,-760.1084 699,-760.1084"/>
<text text-anchor="start" x="703.6674" y="-769.2084" font-family="Helvetica,sans-Serif" font-weight="bold" font-size="11.00" fill="#000000">REFERRAL</text>
<text text-anchor="start" x="765.5219" y="-768.2084" font-family="Helvetica,sans-Serif" font-size="11.00" fill="#000000">[table]</text>
<polygon fill="none" stroke="#000000" points="699,-741.1084 699,-760.1084 800,-760.1084 800,-741.1084 699,-741.1084"/>
<text text-anchor="start" x="702" y="-747.2084" font-family="Helvetica,sans-Serif" font-size="11.00" fill="#000000">...</text>
<polygon fill="#ffffff" stroke="transparent" points="699,-722.1084 699,-741.1084 727,-741.1084 727,-722.1084 699,-722.1084"/>
<polygon fill="none" stroke="#000000" points="699,-722.1084 699,-741.1084 727,-741.1084 727,-722.1084 699,-722.1084"/>
<text text-anchor="start" x="702" y="-728.2084" font-family="Helvetica,sans-Serif" font-size="11.00" fill="#000000">&lt; 13</text>
<polygon fill="#ffffff" stroke="transparent" points="727,-722.1084 727,-741.1084 778,-741.1084 778,-722.1084 727,-722.1084"/>
<polygon fill="none" stroke="#000000" points="727,-722.1084 727,-741.1084 778,-741.1084 778,-722.1084 727,-722.1084"/>
<text text-anchor="start" x="730.3807" y="-728.2084" font-family="Helvetica,sans-Serif" font-size="11.00" fill="#000000">888 rows</text>
<polygon fill="#ffffff" stroke="transparent" points="778,-722.1084 778,-741.1084 800,-741.1084 800,-722.1084 778,-722.1084"/>
<polygon fill="none" stroke="#000000" points="778,-722.1084 778,-741.1084 800,-741.1084 800,-722.1084 778,-722.1084"/>
<text text-anchor="start" x="781.4053" y="-728.2084" font-family="Helvetica,sans-Serif" font-size="11.00" fill="#000000">1 &gt;</text>
</a>
</g>
</g>
<!-- ASSESSMENT&#45;&gt;REFERRAL -->
<g id="edge11" class="edge">
<title>ASSESSMENT:w&#45;&gt;REFERRAL:e</title>
<path fill="none" stroke="#000000" d="M932.7177,-501.6192C917.6286,-511.3763 923.7696,-539.7707 915,-565.1084 893.0995,-628.385 924.0429,-659.9937 882,-712.1084 856.7793,-743.371 840.1676,-750.1084 800,-750.1084"/>
<polygon fill="#000000" stroke="#000000" points="939.2313,-500.0181 947.8594,-501.6043 943.1156,-499.0633 947,-498.1084 947,-498.1084 947,-498.1084 943.1156,-499.0633 946.1406,-494.6125 939.2313,-500.0181 939.2313,-500.0181"/>
<ellipse fill="none" stroke="#000000" cx="936.1238" cy="-500.782" rx="3.2" ry="3.2"/>
</g>
<!-- STAFF -->
<g id="node13" class="node">
<title>STAFF</title>
<g id="a_node13"><a xlink:href="../../tables/STAFF.html" xlink:title="STAFF" target="_top">
<polygon fill="#ffffff" stroke="transparent" points="418,-664.6084 418,-725.6084 525,-725.6084 525,-664.6084 418,-664.6084"/>
<polygon fill="#f5f5f5" stroke="transparent" points="418.5,-702.1084 418.5,-725.1084 525.5,-725.1084 525.5,-702.1084 418.5,-702.1084"/>
<polygon fill="none" stroke="#000000" points="418.5,-702.1084 418.5,-725.1084 525.5,-725.1084 525.5,-702.1084 418.5,-702.1084"/>
<text text-anchor="start" x="423.5" y="-711.2084" font-family="Helvetica,sans-Serif" font-weight="bold" font-size="11.00" fill="#000000">STAFF</text>
<text text-anchor="start" x="490.5437" y="-710.2084" font-family="Helvetica,sans-Serif" font-size="11.00" fill="#000000">[table]</text>
<polygon fill="none" stroke="#000000" points="418.5,-683.1084 418.5,-702.1084 525.5,-702.1084 525.5,-683.1084 418.5,-683.1084"/>
<text text-anchor="start" x="421.5" y="-689.2084" font-family="Helvetica,sans-Serif" font-size="11.00" fill="#000000">...</text>
<polygon fill="#ffffff" stroke="transparent" points="418.5,-664.1084 418.5,-683.1084 439.5,-683.1084 439.5,-664.1084 418.5,-664.1084"/>
<polygon fill="none" stroke="#000000" points="418.5,-664.1084 418.5,-683.1084 439.5,-683.1084 439.5,-664.1084 418.5,-664.1084"/>
<text text-anchor="start" x="421.2027" y="-670.2084" font-family="Helvetica,sans-Serif" font-size="11.00" fill="#000000">&lt; 4</text>
<polygon fill="#ffffff" stroke="transparent" points="439.5,-664.1084 439.5,-683.1084 498.5,-683.1084 498.5,-664.1084 439.5,-664.1084"/>
<polygon fill="none" stroke="#000000" points="439.5,-664.1084 439.5,-683.1084 498.5,-683.1084 498.5,-664.1084 439.5,-664.1084"/>
<text text-anchor="start" x="442.1045" y="-670.2084" font-family="Helvetica,sans-Serif" font-size="11.00" fill="#000000">3,352 rows</text>
<polygon fill="#ffffff" stroke="transparent" points="498.5,-664.1084 498.5,-683.1084 525.5,-683.1084 525.5,-664.1084 498.5,-664.1084"/>
<polygon fill="none" stroke="#000000" points="498.5,-664.1084 498.5,-683.1084 525.5,-683.1084 525.5,-664.1084 498.5,-664.1084"/>
<text text-anchor="start" x="501.1452" y="-670.2084" font-family="Helvetica,sans-Serif" font-size="11.00" fill="#000000">58 &gt;</text>
</a>
</g>
</g>
<!-- ASSESSMENT&#45;&gt;STAFF -->
<g id="edge12" class="edge">
<title>ASSESSMENT:w&#45;&gt;STAFF:e</title>
<path fill="none" stroke="#000000" d="M933.0387,-457.8178C874.4197,-492.98 939.7654,-767.3883 882,-818.1084 837.5813,-857.1097 667.5564,-847.023 616,-818.1084 591.468,-804.35 599.141,-787.1427 583,-764.1084 559.4988,-730.5707 566.4522,-692.1084 525.5,-692.1084"/>
<polygon fill="#000000" stroke="#000000" points="939.2682,-456.1627 947.9244,-457.5877 943.1341,-455.1355 947,-454.1084 947,-454.1084 947,-454.1084 943.1341,-455.1355 946.0756,-450.6291 939.2682,-456.1627 939.2682,-456.1627"/>
<ellipse fill="none" stroke="#000000" cx="936.1755" cy="-456.9844" rx="3.2" ry="3.2"/>
</g>
<!-- TEAM -->
<g id="node14" class="node">
<title>TEAM</title>
<g id="a_node14"><a xlink:href="../../tables/TEAM.html" xlink:title="TEAM" target="_top">
<polygon fill="#ffffff" stroke="transparent" points="418,-774.6084 418,-835.6084 525,-835.6084 525,-774.6084 418,-774.6084"/>
<polygon fill="#f5f5f5" stroke="transparent" points="418.5,-812.1084 418.5,-835.1084 525.5,-835.1084 525.5,-812.1084 418.5,-812.1084"/>
<polygon fill="none" stroke="#000000" points="418.5,-812.1084 418.5,-835.1084 525.5,-835.1084 525.5,-812.1084 418.5,-812.1084"/>
<text text-anchor="start" x="423.5" y="-821.2084" font-family="Helvetica,sans-Serif" font-weight="bold" font-size="11.00" fill="#000000">TEAM</text>
<text text-anchor="start" x="490.5437" y="-820.2084" font-family="Helvetica,sans-Serif" font-size="11.00" fill="#000000">[table]</text>
<polygon fill="none" stroke="#000000" points="418.5,-793.1084 418.5,-812.1084 525.5,-812.1084 525.5,-793.1084 418.5,-793.1084"/>
<text text-anchor="start" x="421.5" y="-799.2084" font-family="Helvetica,sans-Serif" font-size="11.00" fill="#000000">...</text>
<polygon fill="#ffffff" stroke="transparent" points="418.5,-774.1084 418.5,-793.1084 439.5,-793.1084 439.5,-774.1084 418.5,-774.1084"/>
<polygon fill="none" stroke="#000000" points="418.5,-774.1084 418.5,-793.1084 439.5,-793.1084 439.5,-774.1084 418.5,-774.1084"/>
<text text-anchor="start" x="421.2027" y="-780.2084" font-family="Helvetica,sans-Serif" font-size="11.00" fill="#000000">&lt; 4</text>
<polygon fill="#ffffff" stroke="transparent" points="439.5,-774.1084 439.5,-793.1084 498.5,-793.1084 498.5,-774.1084 439.5,-774.1084"/>
<polygon fill="none" stroke="#000000" points="439.5,-774.1084 439.5,-793.1084 498.5,-793.1084 498.5,-774.1084 439.5,-774.1084"/>
<text text-anchor="start" x="442.1045" y="-780.2084" font-family="Helvetica,sans-Serif" font-size="11.00" fill="#000000">1,458 rows</text>
<polygon fill="#ffffff" stroke="transparent" points="498.5,-774.1084 498.5,-793.1084 525.5,-793.1084 525.5,-774.1084 498.5,-774.1084"/>
<polygon fill="none" stroke="#000000" points="498.5,-774.1084 498.5,-793.1084 525.5,-793.1084 525.5,-774.1084 498.5,-774.1084"/>
<text text-anchor="start" x="501.1452" y="-780.2084" font-family="Helvetica,sans-Serif" font-size="11.00" fill="#000000">62 &gt;</text>
</a>
</g>
</g>
<!-- ASSESSMENT&#45;&gt;TEAM -->
<g id="edge13" class="edge">
<title>ASSESSMENT:w&#45;&gt;TEAM:e</title>
<path fill="none" stroke="#000000" d="M933.0354,-479.8141C874.386,-514.9418 939.5041,-789.0922 882,-840.1084 837.7822,-879.3373 673.9473,-851.7805 616,-840.1084 573.2348,-831.4944 569.1241,-802.1084 525.5,-802.1084"/>
<polygon fill="#000000" stroke="#000000" points="939.2676,-478.1603 947.9234,-479.588 943.1338,-477.1344 947,-476.1084 947,-476.1084 947,-476.1084 943.1338,-477.1344 946.0766,-472.6288 939.2676,-478.1603 939.2676,-478.1603"/>
<ellipse fill="none" stroke="#000000" cx="936.1747" cy="-478.9811" rx="3.2" ry="3.2"/>
</g>
<!-- CONTACT&#45;&gt;R_ENFORCEMENT_ACTION -->
<g id="edge16" class="edge">
<title>CONTACT:w&#45;&gt;R_ENFORCEMENT_ACTION:e</title>
<path fill="none" stroke="#000000" d="M671.4069,-173.9059C628.8493,-178.7581 616.1179,-204.1084 566.5,-204.1084"/>
<polygon fill="#000000" stroke="#000000" points="678.0119,-173.545 686.1965,-176.703 682.006,-173.3267 686,-173.1084 686,-173.1084 686,-173.1084 682.006,-173.3267 685.8035,-169.5138 678.0119,-173.545 678.0119,-173.545"/>
<ellipse fill="none" stroke="#000000" cx="674.8167" cy="-173.7196" rx="3.2" ry="3.2"/>
</g>
<!-- CONTACT&#45;&gt;R_CONTACT_OUTCOME_TYPE -->
<g id="edge14" class="edge">
<title>CONTACT:w&#45;&gt;R_CONTACT_OUTCOME_TYPE:e</title>
<path fill="none" stroke="#000000" d="M671.4642,-174.3656C646.0711,-179.2416 638.313,-197.7947 616,-221.1084 592.4652,-245.6987 609.5377,-286.1084 575.5,-286.1084"/>
<polygon fill="#000000" stroke="#000000" points="678.0298,-173.7978 686.3102,-176.695 682.0149,-173.4531 686,-173.1084 686,-173.1084 686,-173.1084 682.0149,-173.4531 685.6898,-169.5218 678.0298,-173.7978 678.0298,-173.7978"/>
<ellipse fill="none" stroke="#000000" cx="674.8417" cy="-174.0736" rx="3.2" ry="3.2"/>
</g>
<!-- CONTACT&#45;&gt;EVENT -->
<g id="edge15" class="edge">
<title>CONTACT:w&#45;&gt;EVENT:e</title>
<path fill="none" stroke="#000000" d="M671.3778,-172.1096C607.2301,-162.9646 601.6117,-94.1084 528.5,-94.1084"/>
<polygon fill="#000000" stroke="#000000" points="678.0186,-172.5631 685.7546,-176.7 682.0093,-172.8358 686,-173.1084 686,-173.1084 686,-173.1084 682.0093,-172.8358 686.2454,-169.5168 678.0186,-172.5631 678.0186,-172.5631"/>
<ellipse fill="none" stroke="#000000" cx="674.826" cy="-172.345" rx="3.2" ry="3.2"/>
</g>
<!-- CONTACT&#45;&gt;OFFENDER -->
<g id="edge17" class="edge">
<title>CONTACT:w&#45;&gt;OFFENDER:e</title>
<path fill="none" stroke="#000000" d="M671.579,-172.6394C590.7679,-167.9355 417.8194,-130.1784 360,-166.1084 325.4757,-187.5624 360.1472,-248.1084 319.5,-248.1084"/>
<polygon fill="#000000" stroke="#000000" points="678.0042,-172.8483 685.883,-176.7065 682.0021,-172.9784 686,-173.1084 686,-173.1084 686,-173.1084 682.0021,-172.9784 686.117,-169.5103 678.0042,-172.8483 678.0042,-172.8483"/>
<ellipse fill="none" stroke="#000000" cx="674.8059" cy="-172.7443" rx="3.2" ry="3.2"/>
</g>
<!-- CONTACT&#45;&gt;PARTITION_AREA -->
<g id="edge18" class="edge">
<title>CONTACT:w&#45;&gt;PARTITION_AREA:e</title>
<path fill="none" stroke="#000000" d="M671.4786,-171.5593C620.7513,-159.6511 641.1989,-82.4114 583,-56.1084 492.6845,-15.2903 458.0681,-41.7679 360,-56.1084 280.1365,-67.7869 242.8208,-50.7851 186,-108.1084 140.4003,-154.1113 210.2735,-248.1084 145.5,-248.1084"/>
<polygon fill="#000000" stroke="#000000" points="678.0451,-172.2597 685.6181,-176.6881 682.0226,-172.6841 686,-173.1084 686,-173.1084 686,-173.1084 682.0226,-172.6841 686.3819,-169.5287 678.0451,-172.2597 678.0451,-172.2597"/>
<ellipse fill="none" stroke="#000000" cx="674.8632" cy="-171.9203" rx="3.2" ry="3.2"/>
</g>
<!-- CONTACT&#45;&gt;PROVIDER_EMPLOYEE -->
<g id="edge19" class="edge">
<title>CONTACT:w&#45;&gt;PROVIDER_EMPLOYEE:e</title>
<path fill="none" stroke="#000000" d="M671.5649,-174.4464C624.6771,-184.0233 636.0552,-243.3388 616,-298.1084 591.7159,-364.4269 626.1248,-610.1084 555.5,-610.1084"/>
<polygon fill="#000000" stroke="#000000" points="678.0341,-173.8468 686.3323,-176.693 682.0171,-173.4776 686,-173.1084 686,-173.1084 686,-173.1084 682.0171,-173.4776 685.6677,-169.5238 678.0341,-173.8468 678.0341,-173.8468"/>
<ellipse fill="none" stroke="#000000" cx="674.8478" cy="-174.1422" rx="3.2" ry="3.2"/>
</g>
<!-- CONTACT&#45;&gt;PROVIDER_TEAM -->
<g id="edge20" class="edge">
<title>CONTACT:w&#45;&gt;PROVIDER_TEAM:e</title>
<path fill="none" stroke="#000000" d="M671.5766,-174.3625C575.2677,-192.2774 653.6413,-396.1084 540.5,-396.1084"/>
<polygon fill="#000000" stroke="#000000" points="678.0301,-173.8014 686.3119,-176.6949 682.015,-173.4549 686,-173.1084 686,-173.1084 686,-173.1084 682.015,-173.4549 685.6881,-169.5219 678.0301,-173.8014 678.0301,-173.8014"/>
<ellipse fill="none" stroke="#000000" cx="674.8421" cy="-174.0787" rx="3.2" ry="3.2"/>
</g>
<!-- CONTACT&#45;&gt;STAFF -->
<g id="edge21" class="edge">
<title>CONTACT:w&#45;&gt;STAFF:e</title>
<path fill="none" stroke="#000000" d="M671.5069,-174.4268C624.2173,-183.8677 633.3179,-242.4127 616,-298.1084 592.41,-373.9758 623.8227,-585.9479 583,-654.1084 567.2608,-680.3877 556.132,-692.1084 525.5,-692.1084"/>
<polygon fill="#000000" stroke="#000000" points="678.0329,-173.8332 686.3262,-176.6936 682.0164,-173.4708 686,-173.1084 686,-173.1084 686,-173.1084 682.0164,-173.4708 685.6738,-169.5232 678.0329,-173.8332 678.0329,-173.8332"/>
<ellipse fill="none" stroke="#000000" cx="674.8461" cy="-174.1231" rx="3.2" ry="3.2"/>
</g>
<!-- CONTACT&#45;&gt;TEAM -->
<g id="edge22" class="edge">
<title>CONTACT:w&#45;&gt;TEAM:e</title>
<path fill="none" stroke="#000000" d="M671.4968,-174.4237C624.1366,-183.843 632.8373,-242.2656 616,-298.1084 583.1511,-407.0552 639.2913,-802.1084 525.5,-802.1084"/>
<polygon fill="#000000" stroke="#000000" points="678.0327,-173.831 686.3252,-176.6937 682.0163,-173.4697 686,-173.1084 686,-173.1084 686,-173.1084 682.0163,-173.4697 685.6748,-169.5231 678.0327,-173.831 678.0327,-173.831"/>
<ellipse fill="none" stroke="#000000" cx="674.8458" cy="-174.12" rx="3.2" ry="3.2"/>
</g>
<!-- EVENT&#45;&gt;OFFENDER -->
<g id="edge23" class="edge">
<title>EVENT:w&#45;&gt;OFFENDER:e</title>
<path fill="none" stroke="#000000" d="M400.9867,-95.915C381.0248,-101.5883 375.5012,-119.9931 360,-142.1084 331.0531,-183.4065 369.9327,-248.1084 319.5,-248.1084"/>
<polygon fill="#000000" stroke="#000000" points="407.5613,-95.0966 415.9447,-97.6808 411.5306,-94.6025 415.5,-94.1084 415.5,-94.1084 415.5,-94.1084 411.5306,-94.6025 415.0553,-90.536 407.5613,-95.0966 407.5613,-95.0966"/>
<ellipse fill="none" stroke="#000000" cx="404.3858" cy="-95.4919" rx="3.2" ry="3.2"/>
</g>
<!-- EVENT&#45;&gt;PARTITION_AREA -->
<g id="edge24" class="edge">
<title>EVENT:w&#45;&gt;PARTITION_AREA:e</title>
<path fill="none" stroke="#000000" d="M400.9557,-94.3977C299.1747,-98.572 275.5113,-147.4435 186,-210.1084 165.7799,-224.2641 170.1827,-248.1084 145.5,-248.1084"/>
<polygon fill="#000000" stroke="#000000" points="407.5016,-94.2676 415.5716,-97.7077 411.5008,-94.188 415.5,-94.1084 415.5,-94.1084 415.5,-94.1084 411.5008,-94.188 415.4284,-90.5091 407.5016,-94.2676 407.5016,-94.2676"/>
<ellipse fill="none" stroke="#000000" cx="404.3022" cy="-94.3312" rx="3.2" ry="3.2"/>
</g>
<!-- OFFENDER&#45;&gt;PARTITION_AREA -->
<g id="edge25" class="edge">
<title>OFFENDER:w&#45;&gt;PARTITION_AREA:e</title>
<path fill="none" stroke="#000000" d="M179.9909,-248.1084C168.6774,-248.1084 161.4931,-248.1084 145.5,-248.1084"/>
<polygon fill="#000000" stroke="#000000" points="186.5,-248.1085 194.5,-251.7084 190.5,-248.1084 194.5,-248.1084 194.5,-248.1084 194.5,-248.1084 190.5,-248.1084 194.5,-244.5084 186.5,-248.1085 186.5,-248.1085"/>
<ellipse fill="none" stroke="#000000" cx="183.3" cy="-248.1085" rx="3.2" ry="3.2"/>
</g>
<!-- REFERRAL&#45;&gt;R_ENFORCEMENT_ACTION -->
<g id="edge28" class="edge">
<title>REFERRAL:w&#45;&gt;R_ENFORCEMENT_ACTION:e</title>
<path fill="none" stroke="#000000" d="M684.3164,-749.8247C653.3866,-748.4308 636.1364,-741.1521 616,-712.1084 551.3747,-618.8964 679.9235,-204.1084 566.5,-204.1084"/>
<polygon fill="#000000" stroke="#000000" points="691.0015,-749.9538 698.9304,-753.7077 695.0007,-750.0311 699,-750.1084 699,-750.1084 699,-750.1084 695.0007,-750.0311 699.0696,-746.5091 691.0015,-749.9538 691.0015,-749.9538"/>
<ellipse fill="none" stroke="#000000" cx="687.8021" cy="-749.892" rx="3.2" ry="3.2"/>
</g>
<!-- REFERRAL&#45;&gt;R_CONTACT_OUTCOME_TYPE -->
<g id="edge29" class="edge">
<title>REFERRAL:w&#45;&gt;R_CONTACT_OUTCOME_TYPE:e</title>
<path fill="none" stroke="#000000" d="M684.3322,-749.8136C653.4684,-748.3734 636.454,-740.9293 616,-712.1084 588.4821,-673.3339 623.0468,-286.1084 575.5,-286.1084"/>
<polygon fill="#000000" stroke="#000000" points="691.0016,-749.9476 698.9276,-753.7077 695.0008,-750.028 699,-750.1084 699,-750.1084 699,-750.1084 695.0008,-750.028 699.0724,-746.5091 691.0016,-749.9476 691.0016,-749.9476"/>
<ellipse fill="none" stroke="#000000" cx="687.8023" cy="-749.8833" rx="3.2" ry="3.2"/>
</g>
<!-- REFERRAL&#45;&gt;EVENT -->
<g id="edge30" class="edge">
<title>REFERRAL:w&#45;&gt;EVENT:e</title>
<path fill="none" stroke="#000000" d="M684.3087,-749.83C653.3467,-748.4583 635.9817,-741.2588 616,-712.1084 537.5785,-597.703 667.203,-94.1084 528.5,-94.1084"/>
<polygon fill="#000000" stroke="#000000" points="691.0014,-749.9568 698.9318,-753.7078 695.0007,-750.0326 699,-750.1084 699,-750.1084 699,-750.1084 695.0007,-750.0326 699.0682,-746.5091 691.0014,-749.9568 691.0014,-749.9568"/>
<ellipse fill="none" stroke="#000000" cx="687.802" cy="-749.8962" rx="3.2" ry="3.2"/>
</g>
<!-- REFERRAL&#45;&gt;OFFENDER -->
<g id="edge31" class="edge">
<title>REFERRAL:w&#45;&gt;OFFENDER:e</title>
<path fill="none" stroke="#000000" d="M684.4292,-749.7396C653.9701,-747.9906 638.3997,-739.4445 616,-712.1084 575.4822,-662.6613 620.8642,-623.6158 583,-572.1084 514.7831,-479.3116 427.1173,-533.7036 360,-440.1084 309.1775,-369.2363 406.7111,-248.1084 319.5,-248.1084"/>
<polygon fill="#000000" stroke="#000000" points="691.0026,-749.9059 698.9089,-753.7073 695.0013,-750.0072 699,-750.1084 699,-750.1084 699,-750.1084 695.0013,-750.0072 699.0911,-746.5096 691.0026,-749.9059 691.0026,-749.9059"/>
<ellipse fill="none" stroke="#000000" cx="687.8036" cy="-749.8249" rx="3.2" ry="3.2"/>
</g>
<!-- REFERRAL&#45;&gt;PARTITION_AREA -->
<g id="edge32" class="edge">
<title>REFERRAL:w&#45;&gt;PARTITION_AREA:e</title>
<path fill="none" stroke="#000000" d="M684.5028,-750.382C600.4865,-753.2054 418.6233,-776.1263 360,-736.1084 311.0818,-702.7155 204.729,-248.1084 145.5,-248.1084"/>
<polygon fill="#000000" stroke="#000000" points="691.0014,-750.2594 699.068,-753.7078 695.0007,-750.1839 699,-750.1084 699,-750.1084 699,-750.1084 695.0007,-750.1839 698.932,-746.509 691.0014,-750.2594 691.0014,-750.2594"/>
<ellipse fill="none" stroke="#000000" cx="687.802" cy="-750.3198" rx="3.2" ry="3.2"/>
</g>
<!-- REFERRAL&#45;&gt;PROVIDER_EMPLOYEE -->
<g id="edge33" class="edge">
<title>REFERRAL:w&#45;&gt;PROVIDER_EMPLOYEE:e</title>
<path fill="none" stroke="#000000" d="M684.2134,-749.5329C654.7993,-746.9963 641.9475,-735.8689 616,-712.1084 577.1277,-676.5126 608.2079,-610.1084 555.5,-610.1084"/>
<polygon fill="#000000" stroke="#000000" points="691.0061,-749.7972 698.86,-753.7057 695.003,-749.9528 699,-750.1084 699,-750.1084 699,-750.1084 695.003,-749.9528 699.14,-746.5111 691.0061,-749.7972 691.0061,-749.7972"/>
<ellipse fill="none" stroke="#000000" cx="687.8085" cy="-749.6728" rx="3.2" ry="3.2"/>
</g>
<!-- REFERRAL&#45;&gt;PROVIDER_TEAM -->
<g id="edge34" class="edge">
<title>REFERRAL:w&#45;&gt;PROVIDER_TEAM:e</title>
<path fill="none" stroke="#000000" d="M684.3739,-749.7831C653.684,-748.2155 637.2903,-740.3172 616,-712.1084 529.0124,-596.8532 684.8974,-396.1084 540.5,-396.1084"/>
<polygon fill="#000000" stroke="#000000" points="691.002,-749.9305 698.9199,-753.7075 695.001,-750.0194 699,-750.1084 699,-750.1084 699,-750.1084 695.001,-750.0194 699.0801,-746.5093 691.002,-749.9305 691.002,-749.9305"/>
<ellipse fill="none" stroke="#000000" cx="687.8028" cy="-749.8593" rx="3.2" ry="3.2"/>
</g>
<!-- REFERRAL&#45;&gt;STAFF -->
<g id="edge35" class="edge">
<title>REFERRAL:w&#45;&gt;STAFF:e</title>
<path fill="none" stroke="#000000" d="M684.546,-749.457C616.0582,-743.085 601.7241,-692.1084 525.5,-692.1084"/>
<polygon fill="#000000" stroke="#000000" points="691.0081,-749.7482 698.8379,-753.7048 695.0041,-749.9283 699,-750.1084 699,-750.1084 699,-750.1084 695.0041,-749.9283 699.1621,-746.5121 691.0081,-749.7482 691.0081,-749.7482"/>
<ellipse fill="none" stroke="#000000" cx="687.8114" cy="-749.6041" rx="3.2" ry="3.2"/>
</g>
<!-- REFERRAL&#45;&gt;TEAM -->
<g id="edge36" class="edge">
<title>REFERRAL:w&#45;&gt;TEAM:e</title>
<path fill="none" stroke="#000000" d="M684.2456,-750.7286C616.6062,-756.5955 600.8115,-802.1084 525.5,-802.1084"/>
<polygon fill="#000000" stroke="#000000" points="691.0071,-750.4444 699.1512,-753.7052 695.0035,-750.2764 699,-750.1084 699,-750.1084 699,-750.1084 695.0035,-750.2764 698.8488,-746.5116 691.0071,-750.4444 691.0071,-750.4444"/>
<ellipse fill="none" stroke="#000000" cx="687.8099" cy="-750.5789" rx="3.2" ry="3.2"/>
</g>
<!-- R_ASSMNT_TYPE_ASSMNT_OUTCOME -->
<g id="node15" class="node">
<title>R_ASSMNT_TYPE_ASSMNT_OUTCOME</title>
<g id="a_node15"><a xlink:href="../../tables/R_ASSMNT_TYPE_ASSMNT_OUTCOME.html" xlink:title="R_ASSMNT_TYPE_ASSMNT_OUTCOME" target="_top">
<polygon fill="#ffffff" stroke="transparent" points="923,-575.6084 923,-702.6084 1175,-702.6084 1175,-575.6084 923,-575.6084"/>
<polygon fill="#f5f5f5" stroke="transparent" points="923,-679.1084 923,-702.1084 1175,-702.1084 1175,-679.1084 923,-679.1084"/>
<polygon fill="none" stroke="#000000" points="923,-679.1084 923,-702.1084 1175,-702.1084 1175,-679.1084 923,-679.1084"/>
<text text-anchor="start" x="927.9989" y="-688.2084" font-family="Helvetica,sans-Serif" font-weight="bold" font-size="11.00" fill="#000000">R_ASSMNT_TYPE_ASSMNT_OUTCOME</text>
<text text-anchor="start" x="1140.5219" y="-687.2084" font-family="Helvetica,sans-Serif" font-size="11.00" fill="#000000">[table]</text>
<polygon fill="none" stroke="#000000" points="923,-657.1084 923,-679.1084 1175,-679.1084 1175,-657.1084 923,-657.1084"/>
<image xlink:href="../../images/primaryKeys.png" width="11px" height="12px" preserveAspectRatio="xMinYMin meet" x="928" y="-674.108"/>
<text text-anchor="start" x="958" y="-664.2084" font-family="Helvetica,sans-Serif" font-size="11.00" fill="#000000">ASSESSMENT_TYPE_ID</text>
<polygon fill="none" stroke="#000000" points="923,-635.1084 923,-657.1084 1175,-657.1084 1175,-635.1084 923,-635.1084"/>
<image xlink:href="../../images/primaryKeys.png" width="11px" height="12px" preserveAspectRatio="xMinYMin meet" x="928" y="-652.108"/>
<text text-anchor="start" x="958" y="-642.2084" font-family="Helvetica,sans-Serif" font-size="11.00" fill="#000000">ASSESSMENT_OUTCOME_ID</text>
<polygon fill="none" stroke="#000000" points="923,-613.1084 923,-635.1084 1175,-635.1084 1175,-613.1084 923,-613.1084"/>
<image xlink:href="../../images/primaryKeys.png" width="11px" height="12px" preserveAspectRatio="xMinYMin meet" x="928" y="-630.108"/>
<text text-anchor="start" x="958" y="-620.2084" font-family="Helvetica,sans-Serif" font-size="11.00" fill="#000000">TRAINING_SESSION_ID</text>
<polygon fill="none" stroke="#000000" points="923,-594.1084 923,-613.1084 1175,-613.1084 1175,-594.1084 923,-594.1084"/>
<text text-anchor="start" x="926" y="-600.2084" font-family="Helvetica,sans-Serif" font-size="11.00" fill="#000000">...</text>
<polygon fill="#ffffff" stroke="transparent" points="923,-575.1084 923,-594.1084 1031,-594.1084 1031,-575.1084 923,-575.1084"/>
<polygon fill="none" stroke="#000000" points="923,-575.1084 923,-594.1084 1031,-594.1084 1031,-575.1084 923,-575.1084"/>
<text text-anchor="start" x="926" y="-581.2084" font-family="Helvetica,sans-Serif" font-size="11.00" fill="#000000">&lt; 2</text>
<polygon fill="#ffffff" stroke="transparent" points="1031,-575.1084 1031,-594.1084 1119,-594.1084 1119,-575.1084 1031,-575.1084"/>
<polygon fill="none" stroke="#000000" points="1031,-575.1084 1031,-594.1084 1119,-594.1084 1119,-575.1084 1031,-575.1084"/>
<text text-anchor="start" x="1077.4956" y="-581.2084" font-family="Helvetica,sans-Serif" font-size="11.00" fill="#000000">98 rows</text>
<polygon fill="#ffffff" stroke="transparent" points="1119,-575.1084 1119,-594.1084 1175,-594.1084 1175,-575.1084 1119,-575.1084"/>
<polygon fill="none" stroke="#000000" points="1119,-575.1084 1119,-594.1084 1175,-594.1084 1175,-575.1084 1119,-575.1084"/>
<text text-anchor="start" x="1165.8862" y="-581.2084" font-family="Helvetica,sans-Serif" font-size="11.00" fill="#000000"> &#160;</text>
</a>
</g>
</g>
<!-- R_ASSMNT_TYPE_ASSMNT_OUTCOME&#45;&gt;R_ASSESSMENT_OUTCOME -->
<g id="edge26" class="edge">
<title>R_ASSMNT_TYPE_ASSMNT_OUTCOME:w&#45;&gt;R_ASSESSMENT_OUTCOME:e</title>
<path fill="none" stroke="#000000" d="M908.9033,-641.1649C892.525,-626.3132 901.8329,-583.1084 872,-583.1084"/>
<polygon fill="#000000" stroke="#000000" points="915.4507,-643.461 921.8087,-649.5056 919.2254,-644.7847 923,-646.1084 923,-646.1084 923,-646.1084 919.2254,-644.7847 924.1913,-642.7112 915.4507,-643.461 915.4507,-643.461"/>
<ellipse fill="none" stroke="#000000" cx="912.431" cy="-642.402" rx="3.2" ry="3.2"/>
</g>
<!-- R_ASSMNT_TYPE_ASSMNT_OUTCOME&#45;&gt;R_ASSESSMENT_TYPE -->
<g id="edge27" class="edge">
<title>R_ASSMNT_TYPE_ASSMNT_OUTCOME:w&#45;&gt;R_ASSESSMENT_TYPE:e</title>
<path fill="none" stroke="#000000" d="M908.5095,-668.1084C879.8146,-668.1084 867.6875,-668.1084 833,-668.1084"/>
<polygon fill="#000000" stroke="#000000" points="915,-668.1085 923,-671.7084 919,-668.1084 923,-668.1084 923,-668.1084 923,-668.1084 919,-668.1084 923,-664.5084 915,-668.1085 915,-668.1085"/>
<ellipse fill="none" stroke="#000000" cx="911.8" cy="-668.1085" rx="3.2" ry="3.2"/>
</g>
</g>
</svg>
