<?xml version="1.0" encoding="UTF-8" standalone="no"?>
<!DOCTYPE svg PUBLIC "-//W3C//DTD SVG 1.1//EN"
 "http://www.w3.org/Graphics/SVG/1.1/DTD/svg11.dtd">
<!-- Generated by graphviz version 2.40.1 (20161225.0304)
 -->
<!-- Title: twoDegreesRelationshipsDiagram Pages: 1 -->
<svg width="1185pt" height="916pt"
 viewBox="0.00 0.00 1185.00 915.85" xmlns="http://www.w3.org/2000/svg" xmlns:xlink="http://www.w3.org/1999/xlink">
<g id="graph0" class="graph" transform="scale(1 1) rotate(0) translate(4 911.8516)">
<title>twoDegreesRelationshipsDiagram</title>
<polygon fill="#ffffff" stroke="transparent" points="-4,4 -4,-911.8516 1181,-911.8516 1181,4 -4,4"/>
<text text-anchor="middle" x="72.4936" y="-7.3" font-family="Helvetica,sans-Serif" font-size="11.00" fill="#000000">Generated by SchemaSpy</text>
<!-- ASSESSMENT -->
<g id="node1" class="node">
<title>ASSESSMENT</title>
<g id="a_node1"><a xlink:href="../../tables/ASSESSMENT.html" xlink:title="ASSESSMENT" target="_top">
<polygon fill="#ffffff" stroke="transparent" points="940.5,-141.7543 940.5,-554.7543 1145.5,-554.7543 1145.5,-141.7543 940.5,-141.7543"/>
<polygon fill="#f5f5f5" stroke="transparent" points="941,-531.2543 941,-554.2543 1146,-554.2543 1146,-531.2543 941,-531.2543"/>
<polygon fill="none" stroke="#000000" points="941,-531.2543 941,-554.2543 1146,-554.2543 1146,-531.2543 941,-531.2543"/>
<text text-anchor="start" x="946" y="-540.3543" font-family="Helvetica,sans-Serif" font-weight="bold" font-size="11.00" fill="#000000">ASSESSMENT</text>
<text text-anchor="start" x="1111.0437" y="-539.3543" font-family="Helvetica,sans-Serif" font-size="11.00" fill="#000000">[table]</text>
<polygon fill="none" stroke="#000000" points="941,-509.2543 941,-531.2543 1146,-531.2543 1146,-509.2543 941,-509.2543"/>
<image xlink:href="../../images/primaryKeys.png" width="11px" height="12px" preserveAspectRatio="xMinYMin meet" x="946" y="-526.254"/>
<text text-anchor="start" x="961" y="-516.3543" font-family="Helvetica,sans-Serif" font-size="11.00" fill="#000000">ASSESSMENT_ID</text>
<polygon fill="none" stroke="#000000" points="941,-487.2543 941,-509.2543 1146,-509.2543 1146,-487.2543 941,-487.2543"/>
<image xlink:href="../../images/primaryKeys.png" width="11px" height="12px" preserveAspectRatio="xMinYMin meet" x="946" y="-504.254"/>
<text text-anchor="start" x="961" y="-494.3543" font-family="Helvetica,sans-Serif" font-size="11.00" fill="#000000">REFERRAL_ID</text>
<polygon fill="none" stroke="#000000" points="941,-465.2543 941,-487.2543 1146,-487.2543 1146,-465.2543 941,-465.2543"/>
<image xlink:href="../../images/primaryKeys.png" width="11px" height="12px" preserveAspectRatio="xMinYMin meet" x="946" y="-482.254"/>
<text text-anchor="start" x="961" y="-472.3543" font-family="Helvetica,sans-Serif" font-size="11.00" fill="#000000">TEAM_ID</text>
<polygon fill="none" stroke="#000000" points="941,-443.2543 941,-465.2543 1146,-465.2543 1146,-443.2543 941,-443.2543"/>
<image xlink:href="../../images/primaryKeys.png" width="11px" height="12px" preserveAspectRatio="xMinYMin meet" x="946" y="-460.254"/>
<text text-anchor="start" x="961" y="-450.3543" font-family="Helvetica,sans-Serif" font-size="11.00" fill="#000000">STAFF_ID</text>
<polygon fill="none" stroke="#000000" points="941,-421.2543 941,-443.2543 1146,-443.2543 1146,-421.2543 941,-421.2543"/>
<image xlink:href="../../images/primaryKeys.png" width="11px" height="12px" preserveAspectRatio="xMinYMin meet" x="946" y="-438.254"/>
<text text-anchor="start" x="961" y="-428.3543" font-family="Helvetica,sans-Serif" font-size="11.00" fill="#000000">PROVIDER_EMPLOYEE_ID</text>
<polygon fill="none" stroke="#000000" points="941,-399.2543 941,-421.2543 1146,-421.2543 1146,-399.2543 941,-399.2543"/>
<image xlink:href="../../images/primaryKeys.png" width="11px" height="12px" preserveAspectRatio="xMinYMin meet" x="946" y="-416.254"/>
<text text-anchor="start" x="961" y="-406.3543" font-family="Helvetica,sans-Serif" font-size="11.00" fill="#000000">PARTITION_AREA_ID</text>
<polygon fill="none" stroke="#000000" points="941,-377.2543 941,-399.2543 1146,-399.2543 1146,-377.2543 941,-377.2543"/>
<image xlink:href="../../images/primaryKeys.png" width="11px" height="12px" preserveAspectRatio="xMinYMin meet" x="946" y="-394.254"/>
<text text-anchor="start" x="961" y="-384.3543" font-family="Helvetica,sans-Serif" font-size="11.00" fill="#000000">ASSESSMENT_TYPE_ID</text>
<polygon fill="none" stroke="#000000" points="941,-355.2543 941,-377.2543 1146,-377.2543 1146,-355.2543 941,-355.2543"/>
<image xlink:href="../../images/primaryKeys.png" width="11px" height="12px" preserveAspectRatio="xMinYMin meet" x="946" y="-372.254"/>
<text text-anchor="start" x="961" y="-362.3543" font-family="Helvetica,sans-Serif" font-size="11.00" fill="#000000">PROVIDER_TEAM_ID</text>
<polygon fill="none" stroke="#000000" points="941,-333.2543 941,-355.2543 1146,-355.2543 1146,-333.2543 941,-333.2543"/>
<image xlink:href="../../images/primaryKeys.png" width="11px" height="12px" preserveAspectRatio="xMinYMin meet" x="946" y="-350.254"/>
<text text-anchor="start" x="961" y="-340.3543" font-family="Helvetica,sans-Serif" font-size="11.00" fill="#000000">CREATED_DATETIME</text>
<polygon fill="none" stroke="#000000" points="941,-311.2543 941,-333.2543 1146,-333.2543 1146,-311.2543 941,-311.2543"/>
<image xlink:href="../../images/primaryKeys.png" width="11px" height="12px" preserveAspectRatio="xMinYMin meet" x="946" y="-328.254"/>
<text text-anchor="start" x="961" y="-318.3543" font-family="Helvetica,sans-Serif" font-size="11.00" fill="#000000">ASSESSMENT_OUTCOME_ID</text>
<polygon fill="none" stroke="#000000" points="941,-289.2543 941,-311.2543 1146,-311.2543 1146,-289.2543 941,-289.2543"/>
<image xlink:href="../../images/primaryKeys.png" width="11px" height="12px" preserveAspectRatio="xMinYMin meet" x="946" y="-306.254"/>
<text text-anchor="start" x="961" y="-296.3543" font-family="Helvetica,sans-Serif" font-size="11.00" fill="#000000">TRAINING_SESSION_ID</text>
<polygon fill="none" stroke="#000000" points="941,-267.2543 941,-289.2543 1146,-289.2543 1146,-267.2543 941,-267.2543"/>
<image xlink:href="../../images/primaryKeys.png" width="11px" height="12px" preserveAspectRatio="xMinYMin meet" x="946" y="-284.254"/>
<text text-anchor="start" x="961" y="-274.3543" font-family="Helvetica,sans-Serif" font-size="11.00" fill="#000000">OFFENDER_ID</text>
<polygon fill="none" stroke="#000000" points="941,-245.2543 941,-267.2543 1146,-267.2543 1146,-245.2543 941,-245.2543"/>
<image xlink:href="../../images/primaryKeys.png" width="11px" height="12px" preserveAspectRatio="xMinYMin meet" x="946" y="-262.254"/>
<text text-anchor="start" x="961" y="-252.3543" font-family="Helvetica,sans-Serif" font-size="11.00" fill="#000000">CONTACT_OUTCOME_TYPE_ID</text>
<polygon fill="none" stroke="#000000" points="941,-223.2543 941,-245.2543 1146,-245.2543 1146,-223.2543 941,-223.2543"/>
<image xlink:href="../../images/primaryKeys.png" width="11px" height="12px" preserveAspectRatio="xMinYMin meet" x="946" y="-240.254"/>
<text text-anchor="start" x="961" y="-230.3543" font-family="Helvetica,sans-Serif" font-size="11.00" fill="#000000">CONTACT_EA_ID</text>
<polygon fill="none" stroke="#000000" points="941,-201.2543 941,-223.2543 1146,-223.2543 1146,-201.2543 941,-201.2543"/>
<image xlink:href="../../images/primaryKeys.png" width="11px" height="12px" preserveAspectRatio="xMinYMin meet" x="946" y="-218.254"/>
<text text-anchor="start" x="961" y="-208.3543" font-family="Helvetica,sans-Serif" font-size="11.00" fill="#000000">ENFORCEABLE_CONTACT_ID</text>
<polygon fill="none" stroke="#000000" points="941,-179.2543 941,-201.2543 1146,-201.2543 1146,-179.2543 941,-179.2543"/>
<image xlink:href="../../images/primaryKeys.png" width="11px" height="12px" preserveAspectRatio="xMinYMin meet" x="946" y="-196.254"/>
<text text-anchor="start" x="961" y="-186.3543" font-family="Helvetica,sans-Serif" font-size="11.00" fill="#000000">EVENT_ID</text>
<polygon fill="none" stroke="#000000" points="941,-160.2543 941,-179.2543 1146,-179.2543 1146,-160.2543 941,-160.2543"/>
<text text-anchor="start" x="944" y="-166.3543" font-family="Helvetica,sans-Serif" font-size="11.00" fill="#000000">...</text>
<polygon fill="#ffffff" stroke="transparent" points="941,-141.2543 941,-160.2543 1026,-160.2543 1026,-141.2543 941,-141.2543"/>
<polygon fill="none" stroke="#000000" points="941,-141.2543 941,-160.2543 1026,-160.2543 1026,-141.2543 941,-141.2543"/>
<text text-anchor="start" x="944" y="-147.3543" font-family="Helvetica,sans-Serif" font-size="11.00" fill="#000000">&lt; 13</text>
<polygon fill="#ffffff" stroke="transparent" points="1026,-141.2543 1026,-160.2543 1105,-160.2543 1105,-141.2543 1026,-141.2543"/>
<polygon fill="none" stroke="#000000" points="1026,-141.2543 1026,-160.2543 1105,-160.2543 1105,-141.2543 1026,-141.2543"/>
<text text-anchor="start" x="1057.3807" y="-147.3543" font-family="Helvetica,sans-Serif" font-size="11.00" fill="#000000">284 rows</text>
<polygon fill="#ffffff" stroke="transparent" points="1105,-141.2543 1105,-160.2543 1146,-160.2543 1146,-141.2543 1105,-141.2543"/>
<polygon fill="none" stroke="#000000" points="1105,-141.2543 1105,-160.2543 1146,-160.2543 1146,-141.2543 1105,-141.2543"/>
<text text-anchor="start" x="1136.8862" y="-147.3543" font-family="Helvetica,sans-Serif" font-size="11.00" fill="#000000"> &#160;</text>
</a>
</g>
</g>
<!-- R_ASSESSMENT_OUTCOME -->
<g id="node2" class="node">
<title>R_ASSESSMENT_OUTCOME</title>
<g id="a_node2"><a xlink:href="../../tables/R_ASSESSMENT_OUTCOME.html" xlink:title="R_ASSESSMENT_OUTCOME" target="_top">
<polygon fill="#ffffff" stroke="transparent" points="618,-309.2543 618,-619.2543 868,-619.2543 868,-309.2543 618,-309.2543"/>
<polygon fill="#f5f5f5" stroke="transparent" points="620,-594.2543 620,-617.2543 866,-617.2543 866,-594.2543 620,-594.2543"/>
<polygon fill="none" stroke="#000000" points="620,-594.2543 620,-617.2543 866,-617.2543 866,-594.2543 620,-594.2543"/>
<text text-anchor="start" x="625" y="-603.3543" font-family="Helvetica,sans-Serif" font-weight="bold" font-size="11.00" fill="#000000">R_ASSESSMENT_OUTCOME</text>
<text text-anchor="start" x="831.0437" y="-602.3543" font-family="Helvetica,sans-Serif" font-size="11.00" fill="#000000">[table]</text>
<polygon fill="none" stroke="#000000" points="620,-572.2543 620,-594.2543 799,-594.2543 799,-572.2543 620,-572.2543"/>
<image xlink:href="../../images/primaryKeys.png" width="11px" height="12px" preserveAspectRatio="xMinYMin meet" x="625" y="-589.254"/>
<text text-anchor="start" x="639.6926" y="-579.3543" font-family="Helvetica,sans-Serif" font-size="11.00" fill="#000000">ASSESSMENT_OUTCOME_ID</text>
<polygon fill="none" stroke="#000000" points="799,-572.2543 799,-594.2543 866,-594.2543 866,-572.2543 799,-572.2543"/>
<text text-anchor="start" x="802" y="-579.9543" font-family="Helvetica,sans-Serif" font-size="11.00" fill="#000000">number[38]</text>
<polygon fill="none" stroke="#000000" points="620,-550.2543 620,-572.2543 799,-572.2543 799,-550.2543 620,-550.2543"/>
<image xlink:href="../../images/primaryKeys.png" width="11px" height="12px" preserveAspectRatio="xMinYMin meet" x="625" y="-567.254"/>
<text text-anchor="start" x="640" y="-557.3543" font-family="Helvetica,sans-Serif" font-size="11.00" fill="#000000">CODE</text>
<polygon fill="none" stroke="#000000" points="799,-550.2543 799,-572.2543 866,-572.2543 866,-550.2543 799,-550.2543"/>
<text text-anchor="start" x="801.9365" y="-557.9543" font-family="Helvetica,sans-Serif" font-size="11.00" fill="#000000">varchar2[10]</text>
<polygon fill="none" stroke="#000000" points="620,-528.2543 620,-550.2543 799,-550.2543 799,-528.2543 620,-528.2543"/>
<text text-anchor="start" x="640" y="-535.3543" font-family="Helvetica,sans-Serif" font-size="11.00" fill="#000000">DESCRIPTION</text>
<polygon fill="none" stroke="#000000" points="799,-528.2543 799,-550.2543 866,-550.2543 866,-528.2543 799,-528.2543"/>
<text text-anchor="start" x="801.9365" y="-535.9543" font-family="Helvetica,sans-Serif" font-size="11.00" fill="#000000">varchar2[50]</text>
<polygon fill="none" stroke="#000000" points="620,-506.2543 620,-528.2543 799,-528.2543 799,-506.2543 620,-506.2543"/>
<text text-anchor="start" x="640" y="-513.3543" font-family="Helvetica,sans-Serif" font-size="11.00" fill="#000000">SELECTABLE</text>
<polygon fill="none" stroke="#000000" points="799,-506.2543 799,-528.2543 866,-528.2543 866,-506.2543 799,-506.2543"/>
<text text-anchor="start" x="802" y="-513.9543" font-family="Helvetica,sans-Serif" font-size="11.00" fill="#000000">char[1]</text>
<polygon fill="none" stroke="#000000" points="620,-484.2543 620,-506.2543 799,-506.2543 799,-484.2543 620,-484.2543"/>
<text text-anchor="start" x="634.4907" y="-491.3543" font-family="Helvetica,sans-Serif" font-size="11.00" fill="#000000">ASSESSMENT_OPEN_TO_EDIT</text>
<polygon fill="none" stroke="#000000" points="799,-484.2543 799,-506.2543 866,-506.2543 866,-484.2543 799,-484.2543"/>
<text text-anchor="start" x="802" y="-491.9543" font-family="Helvetica,sans-Serif" font-size="11.00" fill="#000000">char[1]</text>
<polygon fill="none" stroke="#000000" points="620,-462.2543 620,-484.2543 799,-484.2543 799,-462.2543 620,-462.2543"/>
<text text-anchor="start" x="640" y="-469.3543" font-family="Helvetica,sans-Serif" font-size="11.00" fill="#000000">CREATED_BY_USER_ID</text>
<polygon fill="none" stroke="#000000" points="799,-462.2543 799,-484.2543 866,-484.2543 866,-462.2543 799,-462.2543"/>
<text text-anchor="start" x="802" y="-469.9543" font-family="Helvetica,sans-Serif" font-size="11.00" fill="#000000">number[38]</text>
<polygon fill="none" stroke="#000000" points="620,-440.2543 620,-462.2543 799,-462.2543 799,-440.2543 620,-440.2543"/>
<image xlink:href="../../images/primaryKeys.png" width="11px" height="12px" preserveAspectRatio="xMinYMin meet" x="625" y="-457.254"/>
<text text-anchor="start" x="640" y="-447.3543" font-family="Helvetica,sans-Serif" font-size="11.00" fill="#000000">TRAINING_SESSION_ID</text>
<polygon fill="none" stroke="#000000" points="799,-440.2543 799,-462.2543 866,-462.2543 866,-440.2543 799,-440.2543"/>
<text text-anchor="start" x="802" y="-447.9543" font-family="Helvetica,sans-Serif" font-size="11.00" fill="#000000">number[38]</text>
<polygon fill="none" stroke="#000000" points="620,-418.2543 620,-440.2543 799,-440.2543 799,-418.2543 620,-418.2543"/>
<text text-anchor="start" x="640" y="-425.3543" font-family="Helvetica,sans-Serif" font-size="11.00" fill="#000000">LAST_UPDATED_USER_ID</text>
<polygon fill="none" stroke="#000000" points="799,-418.2543 799,-440.2543 866,-440.2543 866,-418.2543 799,-418.2543"/>
<text text-anchor="start" x="802" y="-425.9543" font-family="Helvetica,sans-Serif" font-size="11.00" fill="#000000">number[38]</text>
<polygon fill="none" stroke="#000000" points="620,-396.2543 620,-418.2543 799,-418.2543 799,-396.2543 620,-396.2543"/>
<text text-anchor="start" x="640" y="-403.3543" font-family="Helvetica,sans-Serif" font-size="11.00" fill="#000000">ROW_VERSION</text>
<polygon fill="none" stroke="#000000" points="799,-396.2543 799,-418.2543 866,-418.2543 866,-396.2543 799,-396.2543"/>
<text text-anchor="start" x="802" y="-403.9543" font-family="Helvetica,sans-Serif" font-size="11.00" fill="#000000">number[38]</text>
<polygon fill="none" stroke="#000000" points="620,-374.2543 620,-396.2543 799,-396.2543 799,-374.2543 620,-374.2543"/>
<text text-anchor="start" x="640" y="-381.3543" font-family="Helvetica,sans-Serif" font-size="11.00" fill="#000000">CREATED_DATETIME</text>
<polygon fill="none" stroke="#000000" points="799,-374.2543 799,-396.2543 866,-396.2543 866,-374.2543 799,-374.2543"/>
<text text-anchor="start" x="802" y="-381.9543" font-family="Helvetica,sans-Serif" font-size="11.00" fill="#000000">date[7]</text>
<polygon fill="none" stroke="#000000" points="620,-352.2543 620,-374.2543 799,-374.2543 799,-352.2543 620,-352.2543"/>
<text text-anchor="start" x="640" y="-359.3543" font-family="Helvetica,sans-Serif" font-size="11.00" fill="#000000">LAST_UPDATED_DATETIME</text>
<polygon fill="none" stroke="#000000" points="799,-352.2543 799,-374.2543 866,-374.2543 866,-352.2543 799,-352.2543"/>
<text text-anchor="start" x="802" y="-359.9543" font-family="Helvetica,sans-Serif" font-size="11.00" fill="#000000">date[7]</text>
<polygon fill="none" stroke="#000000" points="620,-330.2543 620,-352.2543 799,-352.2543 799,-330.2543 620,-330.2543"/>
<text text-anchor="start" x="640" y="-337.3543" font-family="Helvetica,sans-Serif" font-size="11.00" fill="#000000">SPG_OVERRIDE</text>
<polygon fill="none" stroke="#000000" points="799,-330.2543 799,-352.2543 866,-352.2543 866,-330.2543 799,-330.2543"/>
<text text-anchor="start" x="802" y="-337.9543" font-family="Helvetica,sans-Serif" font-size="11.00" fill="#000000">number[38]</text>
<polygon fill="#ffffff" stroke="transparent" points="620,-311.2543 620,-330.2543 698,-330.2543 698,-311.2543 620,-311.2543"/>
<polygon fill="none" stroke="#000000" points="620,-311.2543 620,-330.2543 698,-330.2543 698,-311.2543 620,-311.2543"/>
<text text-anchor="start" x="623" y="-317.3543" font-family="Helvetica,sans-Serif" font-size="11.00" fill="#000000">&lt; 0</text>
<polygon fill="#ffffff" stroke="transparent" points="698,-311.2543 698,-330.2543 799,-330.2543 799,-311.2543 698,-311.2543"/>
<polygon fill="none" stroke="#000000" points="698,-311.2543 698,-330.2543 799,-330.2543 799,-311.2543 698,-311.2543"/>
<text text-anchor="start" x="757.4956" y="-317.3543" font-family="Helvetica,sans-Serif" font-size="11.00" fill="#000000">33 rows</text>
<polygon fill="#ffffff" stroke="transparent" points="799,-311.2543 799,-330.2543 866,-330.2543 866,-311.2543 799,-311.2543"/>
<polygon fill="none" stroke="#000000" points="799,-311.2543 799,-330.2543 866,-330.2543 866,-311.2543 799,-311.2543"/>
<text text-anchor="start" x="847.4053" y="-317.3543" font-family="Helvetica,sans-Serif" font-size="11.00" fill="#000000">2 &gt;</text>
<polygon fill="none" stroke="#000000" stroke-width="2" points="619,-310.2543 619,-618.2543 867,-618.2543 867,-310.2543 619,-310.2543"/>
</a>
</g>
</g>
<!-- ASSESSMENT&#45;&gt;R_ASSESSMENT_OUTCOME -->
<g id="edge1" class="edge">
<title>ASSESSMENT:w&#45;&gt;R_ASSESSMENT_OUTCOME:e</title>
<path fill="none" stroke="#000000" d="M926.4205,-323.7871C834.6754,-345.1768 981.2725,-583.2543 866,-583.2543"/>
<polygon fill="#000000" stroke="#000000" points="933.0438,-323.0908 941.3764,-325.8346 937.0219,-322.6725 941,-322.2543 941,-322.2543 941,-322.2543 937.0219,-322.6725 940.6236,-318.674 933.0438,-323.0908 933.0438,-323.0908"/>
<ellipse fill="none" stroke="#000000" cx="929.8614" cy="-323.4254" rx="3.2" ry="3.2"/>
</g>
<!-- R_ASSESSMENT_TYPE -->
<g id="node3" class="node">
<title>R_ASSESSMENT_TYPE</title>
<g id="a_node3"><a xlink:href="../../tables/R_ASSESSMENT_TYPE.html" xlink:title="R_ASSESSMENT_TYPE" target="_top">
<polygon fill="#ffffff" stroke="transparent" points="659.5,-640.7543 659.5,-701.7543 826.5,-701.7543 826.5,-640.7543 659.5,-640.7543"/>
<polygon fill="#f5f5f5" stroke="transparent" points="660,-678.2543 660,-701.2543 827,-701.2543 827,-678.2543 660,-678.2543"/>
<polygon fill="none" stroke="#000000" points="660,-678.2543 660,-701.2543 827,-701.2543 827,-678.2543 660,-678.2543"/>
<text text-anchor="start" x="664.9639" y="-687.3543" font-family="Helvetica,sans-Serif" font-weight="bold" font-size="11.00" fill="#000000">R_ASSESSMENT_TYPE</text>
<text text-anchor="start" x="792.5219" y="-686.3543" font-family="Helvetica,sans-Serif" font-size="11.00" fill="#000000">[table]</text>
<polygon fill="none" stroke="#000000" points="660,-659.2543 660,-678.2543 827,-678.2543 827,-659.2543 660,-659.2543"/>
<text text-anchor="start" x="663" y="-665.3543" font-family="Helvetica,sans-Serif" font-size="11.00" fill="#000000">...</text>
<polygon fill="#ffffff" stroke="transparent" points="660,-640.2543 660,-659.2543 721,-659.2543 721,-640.2543 660,-640.2543"/>
<polygon fill="none" stroke="#000000" points="660,-640.2543 660,-659.2543 721,-659.2543 721,-640.2543 660,-640.2543"/>
<text text-anchor="start" x="663" y="-646.3543" font-family="Helvetica,sans-Serif" font-size="11.00" fill="#000000">&lt; 1</text>
<polygon fill="#ffffff" stroke="transparent" points="721,-640.2543 721,-659.2543 785,-659.2543 785,-640.2543 721,-640.2543"/>
<polygon fill="none" stroke="#000000" points="721,-640.2543 721,-659.2543 785,-659.2543 785,-640.2543 721,-640.2543"/>
<text text-anchor="start" x="743.4956" y="-646.3543" font-family="Helvetica,sans-Serif" font-size="11.00" fill="#000000">80 rows</text>
<polygon fill="#ffffff" stroke="transparent" points="785,-640.2543 785,-659.2543 827,-659.2543 827,-640.2543 785,-640.2543"/>
<polygon fill="none" stroke="#000000" points="785,-640.2543 785,-659.2543 827,-659.2543 827,-640.2543 785,-640.2543"/>
<text text-anchor="start" x="808.4053" y="-646.3543" font-family="Helvetica,sans-Serif" font-size="11.00" fill="#000000">3 &gt;</text>
</a>
</g>
</g>
<!-- ASSESSMENT&#45;&gt;R_ASSESSMENT_TYPE -->
<g id="edge2" class="edge">
<title>ASSESSMENT:w&#45;&gt;R_ASSESSMENT_TYPE:e</title>
<path fill="none" stroke="#000000" d="M926.5432,-389.5027C818.2835,-409.7021 956.1149,-668.2543 827,-668.2543"/>
<polygon fill="#000000" stroke="#000000" points="933.0297,-388.9426 941.3097,-391.841 937.0148,-388.5985 941,-388.2543 941,-388.2543 941,-388.2543 937.0148,-388.5985 940.6903,-384.6677 933.0297,-388.9426 933.0297,-388.9426"/>
<ellipse fill="none" stroke="#000000" cx="929.8415" cy="-389.2179" rx="3.2" ry="3.2"/>
</g>
<!-- R_ENFORCEMENT_ACTION -->
<g id="node4" class="node">
<title>R_ENFORCEMENT_ACTION</title>
<g id="a_node4"><a xlink:href="../../tables/R_ENFORCEMENT_ACTION.html" xlink:title="R_ENFORCEMENT_ACTION" target="_top">
<polygon fill="#ffffff" stroke="transparent" points="371,-176.7543 371,-237.7543 560,-237.7543 560,-176.7543 371,-176.7543"/>
<polygon fill="#f5f5f5" stroke="transparent" points="371.5,-214.2543 371.5,-237.2543 560.5,-237.2543 560.5,-214.2543 371.5,-214.2543"/>
<polygon fill="none" stroke="#000000" points="371.5,-214.2543 371.5,-237.2543 560.5,-237.2543 560.5,-214.2543 371.5,-214.2543"/>
<text text-anchor="start" x="376.174" y="-223.3543" font-family="Helvetica,sans-Serif" font-weight="bold" font-size="11.00" fill="#000000">R_ENFORCEMENT_ACTION</text>
<text text-anchor="start" x="526.0219" y="-222.3543" font-family="Helvetica,sans-Serif" font-size="11.00" fill="#000000">[table]</text>
<polygon fill="none" stroke="#000000" points="371.5,-195.2543 371.5,-214.2543 560.5,-214.2543 560.5,-195.2543 371.5,-195.2543"/>
<text text-anchor="start" x="374.5" y="-201.3543" font-family="Helvetica,sans-Serif" font-size="11.00" fill="#000000">...</text>
<polygon fill="#ffffff" stroke="transparent" points="371.5,-176.2543 371.5,-195.2543 443.5,-195.2543 443.5,-176.2543 371.5,-176.2543"/>
<polygon fill="none" stroke="#000000" points="371.5,-176.2543 371.5,-195.2543 443.5,-195.2543 443.5,-176.2543 371.5,-176.2543"/>
<text text-anchor="start" x="374.5" y="-182.3543" font-family="Helvetica,sans-Serif" font-size="11.00" fill="#000000">&lt; 1</text>
<polygon fill="#ffffff" stroke="transparent" points="443.5,-176.2543 443.5,-195.2543 513.5,-195.2543 513.5,-176.2543 443.5,-176.2543"/>
<polygon fill="none" stroke="#000000" points="443.5,-176.2543 443.5,-195.2543 513.5,-195.2543 513.5,-176.2543 443.5,-176.2543"/>
<text text-anchor="start" x="471.9956" y="-182.3543" font-family="Helvetica,sans-Serif" font-size="11.00" fill="#000000">48 rows</text>
<polygon fill="#ffffff" stroke="transparent" points="513.5,-176.2543 513.5,-195.2543 560.5,-195.2543 560.5,-176.2543 513.5,-176.2543"/>
<polygon fill="none" stroke="#000000" points="513.5,-176.2543 513.5,-195.2543 560.5,-195.2543 560.5,-176.2543 513.5,-176.2543"/>
<text text-anchor="start" x="541.9053" y="-182.3543" font-family="Helvetica,sans-Serif" font-size="11.00" fill="#000000">6 &gt;</text>
</a>
</g>
</g>
<!-- ASSESSMENT&#45;&gt;R_ENFORCEMENT_ACTION -->
<g id="edge3" class="edge">
<title>ASSESSMENT:w&#45;&gt;R_ENFORCEMENT_ACTION:e</title>
<path fill="none" stroke="#000000" d="M926.6181,-231.7595C894.8315,-218.6529 917.2542,-157.5196 876,-135.2543 823.9815,-107.1794 662.5874,-108.2601 610,-135.2543 576.4235,-152.4898 598.2418,-204.2543 560.5,-204.2543"/>
<polygon fill="#000000" stroke="#000000" points="933.1177,-232.8869 940.3847,-237.8013 937.0589,-233.5706 941,-234.2543 941,-234.2543 941,-234.2543 937.0589,-233.5706 941.6153,-230.7073 933.1177,-232.8869 933.1177,-232.8869"/>
<ellipse fill="none" stroke="#000000" cx="929.9648" cy="-232.34" rx="3.2" ry="3.2"/>
</g>
<!-- R_CONTACT_OUTCOME_TYPE -->
<g id="node5" class="node">
<title>R_CONTACT_OUTCOME_TYPE</title>
<g id="a_node5"><a xlink:href="../../tables/R_CONTACT_OUTCOME_TYPE.html" xlink:title="R_CONTACT_OUTCOME_TYPE" target="_top">
<polygon fill="#ffffff" stroke="transparent" points="362,-258.7543 362,-319.7543 569,-319.7543 569,-258.7543 362,-258.7543"/>
<polygon fill="#f5f5f5" stroke="transparent" points="362.5,-296.2543 362.5,-319.2543 569.5,-319.2543 569.5,-296.2543 362.5,-296.2543"/>
<polygon fill="none" stroke="#000000" points="362.5,-296.2543 362.5,-319.2543 569.5,-319.2543 569.5,-296.2543 362.5,-296.2543"/>
<text text-anchor="start" x="367.3091" y="-305.3543" font-family="Helvetica,sans-Serif" font-weight="bold" font-size="11.00" fill="#000000">R_CONTACT_OUTCOME_TYPE</text>
<text text-anchor="start" x="535.0219" y="-304.3543" font-family="Helvetica,sans-Serif" font-size="11.00" fill="#000000">[table]</text>
<polygon fill="none" stroke="#000000" points="362.5,-277.2543 362.5,-296.2543 569.5,-296.2543 569.5,-277.2543 362.5,-277.2543"/>
<text text-anchor="start" x="365.5" y="-283.3543" font-family="Helvetica,sans-Serif" font-size="11.00" fill="#000000">...</text>
<polygon fill="#ffffff" stroke="transparent" points="362.5,-258.2543 362.5,-277.2543 436.5,-277.2543 436.5,-258.2543 362.5,-258.2543"/>
<polygon fill="none" stroke="#000000" points="362.5,-258.2543 362.5,-277.2543 436.5,-277.2543 436.5,-258.2543 362.5,-258.2543"/>
<text text-anchor="start" x="365.5" y="-264.3543" font-family="Helvetica,sans-Serif" font-size="11.00" fill="#000000"> &#160;</text>
<polygon fill="#ffffff" stroke="transparent" points="436.5,-258.2543 436.5,-277.2543 517.5,-277.2543 517.5,-258.2543 436.5,-258.2543"/>
<polygon fill="none" stroke="#000000" points="436.5,-258.2543 436.5,-277.2543 517.5,-277.2543 517.5,-258.2543 436.5,-258.2543"/>
<text text-anchor="start" x="469.8807" y="-264.3543" font-family="Helvetica,sans-Serif" font-size="11.00" fill="#000000">213 rows</text>
<polygon fill="#ffffff" stroke="transparent" points="517.5,-258.2543 517.5,-277.2543 569.5,-277.2543 569.5,-258.2543 517.5,-258.2543"/>
<polygon fill="none" stroke="#000000" points="517.5,-258.2543 517.5,-277.2543 569.5,-277.2543 569.5,-258.2543 517.5,-258.2543"/>
<text text-anchor="start" x="550.9053" y="-264.3543" font-family="Helvetica,sans-Serif" font-size="11.00" fill="#000000">9 &gt;</text>
</a>
</g>
</g>
<!-- ASSESSMENT&#45;&gt;R_CONTACT_OUTCOME_TYPE -->
<g id="edge4" class="edge">
<title>ASSESSMENT:w&#45;&gt;R_CONTACT_OUTCOME_TYPE:e</title>
<path fill="none" stroke="#000000" d="M926.4216,-255.6455C908.4606,-254.0362 899.4915,-249.6945 876,-248.2543 757.9993,-241.02 719.9294,-204.7569 610,-248.2543 587.0487,-257.3358 594.1827,-286.2543 569.5,-286.2543"/>
<polygon fill="#000000" stroke="#000000" points="933.007,-255.9205 940.8498,-259.8512 937.0035,-256.0874 941,-256.2543 941,-256.2543 941,-256.2543 937.0035,-256.0874 941.1502,-252.6574 933.007,-255.9205 933.007,-255.9205"/>
<ellipse fill="none" stroke="#000000" cx="929.8098" cy="-255.7869" rx="3.2" ry="3.2"/>
</g>
<!-- CONTACT -->
<g id="node6" class="node">
<title>CONTACT</title>
<g id="a_node6"><a xlink:href="../../tables/CONTACT.html" xlink:title="CONTACT" target="_top">
<polygon fill="#ffffff" stroke="transparent" points="680,-145.7543 680,-206.7543 806,-206.7543 806,-145.7543 680,-145.7543"/>
<polygon fill="#f5f5f5" stroke="transparent" points="680,-183.2543 680,-206.2543 806,-206.2543 806,-183.2543 680,-183.2543"/>
<polygon fill="none" stroke="#000000" points="680,-183.2543 680,-206.2543 806,-206.2543 806,-183.2543 680,-183.2543"/>
<text text-anchor="start" x="685" y="-192.3543" font-family="Helvetica,sans-Serif" font-weight="bold" font-size="11.00" fill="#000000">CONTACT</text>
<text text-anchor="start" x="771.0437" y="-191.3543" font-family="Helvetica,sans-Serif" font-size="11.00" fill="#000000">[table]</text>
<polygon fill="none" stroke="#000000" points="680,-164.2543 680,-183.2543 806,-183.2543 806,-164.2543 680,-164.2543"/>
<text text-anchor="start" x="683" y="-170.3543" font-family="Helvetica,sans-Serif" font-size="11.00" fill="#000000">...</text>
<polygon fill="#ffffff" stroke="transparent" points="680,-145.2543 680,-164.2543 707,-164.2543 707,-145.2543 680,-145.2543"/>
<polygon fill="none" stroke="#000000" points="680,-145.2543 680,-164.2543 707,-164.2543 707,-145.2543 680,-145.2543"/>
<text text-anchor="start" x="682.6452" y="-151.3543" font-family="Helvetica,sans-Serif" font-size="11.00" fill="#000000">&lt; 24</text>
<polygon fill="#ffffff" stroke="transparent" points="707,-145.2543 707,-164.2543 779,-164.2543 779,-145.2543 707,-145.2543"/>
<polygon fill="none" stroke="#000000" points="707,-145.2543 707,-164.2543 779,-164.2543 779,-145.2543 707,-145.2543"/>
<text text-anchor="start" x="709.9896" y="-151.3543" font-family="Helvetica,sans-Serif" font-size="11.00" fill="#000000">165,869 rows</text>
<polygon fill="#ffffff" stroke="transparent" points="779,-145.2543 779,-164.2543 806,-164.2543 806,-145.2543 779,-145.2543"/>
<polygon fill="none" stroke="#000000" points="779,-145.2543 779,-164.2543 806,-164.2543 806,-145.2543 779,-145.2543"/>
<text text-anchor="start" x="781.6452" y="-151.3543" font-family="Helvetica,sans-Serif" font-size="11.00" fill="#000000">13 &gt;</text>
</a>
</g>
</g>
<!-- ASSESSMENT&#45;&gt;CONTACT -->
<g id="edge5" class="edge">
<title>ASSESSMENT:w&#45;&gt;CONTACT:e</title>
<path fill="none" stroke="#000000" d="M926.3106,-211.4753C876.4818,-205.9786 863.2084,-173.2543 806,-173.2543"/>
<polygon fill="#000000" stroke="#000000" points="933.0112,-211.8306 940.8093,-215.8493 937.0056,-212.0424 941,-212.2543 941,-212.2543 941,-212.2543 937.0056,-212.0424 941.1907,-208.6594 933.0112,-211.8306 933.0112,-211.8306"/>
<ellipse fill="none" stroke="#000000" cx="929.8157" cy="-211.6611" rx="3.2" ry="3.2"/>
</g>
<!-- EVENT -->
<g id="node7" class="node">
<title>EVENT</title>
<g id="a_node7"><a xlink:href="../../tables/EVENT.html" xlink:title="EVENT" target="_top">
<polygon fill="#ffffff" stroke="transparent" points="409,-66.7543 409,-127.7543 522,-127.7543 522,-66.7543 409,-66.7543"/>
<polygon fill="#f5f5f5" stroke="transparent" points="409.5,-104.2543 409.5,-127.2543 522.5,-127.2543 522.5,-104.2543 409.5,-104.2543"/>
<polygon fill="none" stroke="#000000" points="409.5,-104.2543 409.5,-127.2543 522.5,-127.2543 522.5,-104.2543 409.5,-104.2543"/>
<text text-anchor="start" x="414.5" y="-113.3543" font-family="Helvetica,sans-Serif" font-weight="bold" font-size="11.00" fill="#000000">EVENT</text>
<text text-anchor="start" x="487.5437" y="-112.3543" font-family="Helvetica,sans-Serif" font-size="11.00" fill="#000000">[table]</text>
<polygon fill="none" stroke="#000000" points="409.5,-85.2543 409.5,-104.2543 522.5,-104.2543 522.5,-85.2543 409.5,-85.2543"/>
<text text-anchor="start" x="412.5" y="-91.3543" font-family="Helvetica,sans-Serif" font-size="11.00" fill="#000000">...</text>
<polygon fill="#ffffff" stroke="transparent" points="409.5,-66.2543 409.5,-85.2543 430.5,-85.2543 430.5,-66.2543 409.5,-66.2543"/>
<polygon fill="none" stroke="#000000" points="409.5,-66.2543 409.5,-85.2543 430.5,-85.2543 430.5,-66.2543 409.5,-66.2543"/>
<text text-anchor="start" x="412.2027" y="-72.3543" font-family="Helvetica,sans-Serif" font-size="11.00" fill="#000000">&lt; 5</text>
<polygon fill="#ffffff" stroke="transparent" points="430.5,-66.2543 430.5,-85.2543 495.5,-85.2543 495.5,-66.2543 430.5,-66.2543"/>
<polygon fill="none" stroke="#000000" points="430.5,-66.2543 430.5,-85.2543 495.5,-85.2543 495.5,-66.2543 430.5,-66.2543"/>
<text text-anchor="start" x="433.047" y="-72.3543" font-family="Helvetica,sans-Serif" font-size="11.00" fill="#000000">14,604 rows</text>
<polygon fill="#ffffff" stroke="transparent" points="495.5,-66.2543 495.5,-85.2543 522.5,-85.2543 522.5,-66.2543 495.5,-66.2543"/>
<polygon fill="none" stroke="#000000" points="495.5,-66.2543 495.5,-85.2543 522.5,-85.2543 522.5,-66.2543 495.5,-66.2543"/>
<text text-anchor="start" x="498.1452" y="-72.3543" font-family="Helvetica,sans-Serif" font-size="11.00" fill="#000000">26 &gt;</text>
</a>
</g>
</g>
<!-- ASSESSMENT&#45;&gt;EVENT -->
<g id="edge6" class="edge">
<title>ASSESSMENT:w&#45;&gt;EVENT:e</title>
<path fill="none" stroke="#000000" d="M926.5491,-187.5762C900.1458,-175.9716 911.1621,-129.8274 876,-112.2543 735.2808,-41.9265 679.8147,-94.2543 522.5,-94.2543"/>
<polygon fill="#000000" stroke="#000000" points="933.1339,-188.7965 940.344,-193.794 937.067,-189.5254 941,-190.2543 941,-190.2543 941,-190.2543 937.067,-189.5254 941.656,-186.7146 933.1339,-188.7965 933.1339,-188.7965"/>
<ellipse fill="none" stroke="#000000" cx="929.9875" cy="-188.2133" rx="3.2" ry="3.2"/>
</g>
<!-- OFFENDER -->
<g id="node8" class="node">
<title>OFFENDER</title>
<g id="a_node8"><a xlink:href="../../tables/OFFENDER.html" xlink:title="OFFENDER" target="_top">
<polygon fill="#ffffff" stroke="transparent" points="194,-220.7543 194,-281.7543 313,-281.7543 313,-220.7543 194,-220.7543"/>
<polygon fill="#f5f5f5" stroke="transparent" points="194.5,-258.2543 194.5,-281.2543 313.5,-281.2543 313.5,-258.2543 194.5,-258.2543"/>
<polygon fill="none" stroke="#000000" points="194.5,-258.2543 194.5,-281.2543 313.5,-281.2543 313.5,-258.2543 194.5,-258.2543"/>
<text text-anchor="start" x="199.5" y="-267.3543" font-family="Helvetica,sans-Serif" font-weight="bold" font-size="11.00" fill="#000000">OFFENDER</text>
<text text-anchor="start" x="278.5437" y="-266.3543" font-family="Helvetica,sans-Serif" font-size="11.00" fill="#000000">[table]</text>
<polygon fill="none" stroke="#000000" points="194.5,-239.2543 194.5,-258.2543 313.5,-258.2543 313.5,-239.2543 194.5,-239.2543"/>
<text text-anchor="start" x="197.5" y="-245.3543" font-family="Helvetica,sans-Serif" font-size="11.00" fill="#000000">...</text>
<polygon fill="#ffffff" stroke="transparent" points="194.5,-220.2543 194.5,-239.2543 221.5,-239.2543 221.5,-220.2543 194.5,-220.2543"/>
<polygon fill="none" stroke="#000000" points="194.5,-220.2543 194.5,-239.2543 221.5,-239.2543 221.5,-220.2543 194.5,-220.2543"/>
<text text-anchor="start" x="197.1452" y="-226.3543" font-family="Helvetica,sans-Serif" font-size="11.00" fill="#000000">&lt; 16</text>
<polygon fill="#ffffff" stroke="transparent" points="221.5,-220.2543 221.5,-239.2543 286.5,-239.2543 286.5,-220.2543 221.5,-220.2543"/>
<polygon fill="none" stroke="#000000" points="221.5,-220.2543 221.5,-239.2543 286.5,-239.2543 286.5,-220.2543 221.5,-220.2543"/>
<text text-anchor="start" x="224.047" y="-226.3543" font-family="Helvetica,sans-Serif" font-size="11.00" fill="#000000">18,527 rows</text>
<polygon fill="#ffffff" stroke="transparent" points="286.5,-220.2543 286.5,-239.2543 313.5,-239.2543 313.5,-220.2543 286.5,-220.2543"/>
<polygon fill="none" stroke="#000000" points="286.5,-220.2543 286.5,-239.2543 313.5,-239.2543 313.5,-220.2543 286.5,-220.2543"/>
<text text-anchor="start" x="289.1452" y="-226.3543" font-family="Helvetica,sans-Serif" font-size="11.00" fill="#000000">96 &gt;</text>
</a>
</g>
</g>
<!-- ASSESSMENT&#45;&gt;OFFENDER -->
<g id="edge7" class="edge">
<title>ASSESSMENT:w&#45;&gt;OFFENDER:e</title>
<path fill="none" stroke="#000000" d="M926.3776,-277.8614C844.5106,-273.9262 670.2716,-242.4519 610,-276.2543 585.468,-290.0127 601.532,-316.4959 577,-330.2543 533.7779,-354.4948 396.0906,-356.4102 354,-330.2543 319.4757,-308.8003 354.1472,-248.2543 313.5,-248.2543"/>
<polygon fill="#000000" stroke="#000000" points="933.0029,-278.0394 940.9033,-281.853 937.0014,-278.1469 941,-278.2543 941,-278.2543 941,-278.2543 937.0014,-278.1469 941.0967,-274.6556 933.0029,-278.0394 933.0029,-278.0394"/>
<ellipse fill="none" stroke="#000000" cx="929.804" cy="-277.9534" rx="3.2" ry="3.2"/>
</g>
<!-- PARTITION_AREA -->
<g id="node9" class="node">
<title>PARTITION_AREA</title>
<g id="a_node9"><a xlink:href="../../tables/PARTITION_AREA.html" xlink:title="PARTITION_AREA" target="_top">
<polygon fill="#ffffff" stroke="transparent" points="8,-220.7543 8,-281.7543 145,-281.7543 145,-220.7543 8,-220.7543"/>
<polygon fill="#f5f5f5" stroke="transparent" points="8.5,-258.2543 8.5,-281.2543 145.5,-281.2543 145.5,-258.2543 8.5,-258.2543"/>
<polygon fill="none" stroke="#000000" points="8.5,-258.2543 8.5,-281.2543 145.5,-281.2543 145.5,-258.2543 8.5,-258.2543"/>
<text text-anchor="start" x="13.1362" y="-267.3543" font-family="Helvetica,sans-Serif" font-weight="bold" font-size="11.00" fill="#000000">PARTITION_AREA</text>
<text text-anchor="start" x="111.0219" y="-266.3543" font-family="Helvetica,sans-Serif" font-size="11.00" fill="#000000">[table]</text>
<polygon fill="none" stroke="#000000" points="8.5,-239.2543 8.5,-258.2543 145.5,-258.2543 145.5,-239.2543 8.5,-239.2543"/>
<text text-anchor="start" x="11.5" y="-245.3543" font-family="Helvetica,sans-Serif" font-size="11.00" fill="#000000">...</text>
<polygon fill="#ffffff" stroke="transparent" points="8.5,-220.2543 8.5,-239.2543 47.5,-239.2543 47.5,-220.2543 8.5,-220.2543"/>
<polygon fill="none" stroke="#000000" points="8.5,-220.2543 8.5,-239.2543 47.5,-239.2543 47.5,-220.2543 8.5,-220.2543"/>
<text text-anchor="start" x="11.5" y="-226.3543" font-family="Helvetica,sans-Serif" font-size="11.00" fill="#000000"> &#160;</text>
<polygon fill="#ffffff" stroke="transparent" points="47.5,-220.2543 47.5,-239.2543 104.5,-239.2543 104.5,-220.2543 47.5,-220.2543"/>
<polygon fill="none" stroke="#000000" points="47.5,-220.2543 47.5,-239.2543 104.5,-239.2543 104.5,-220.2543 47.5,-220.2543"/>
<text text-anchor="start" x="62.9956" y="-226.3543" font-family="Helvetica,sans-Serif" font-size="11.00" fill="#000000">44 rows</text>
<polygon fill="#ffffff" stroke="transparent" points="104.5,-220.2543 104.5,-239.2543 145.5,-239.2543 145.5,-220.2543 104.5,-220.2543"/>
<polygon fill="none" stroke="#000000" points="104.5,-220.2543 104.5,-239.2543 145.5,-239.2543 145.5,-220.2543 104.5,-220.2543"/>
<text text-anchor="start" x="120.7904" y="-226.3543" font-family="Helvetica,sans-Serif" font-size="11.00" fill="#000000">82 &gt;</text>
</a>
</g>
</g>
<!-- ASSESSMENT&#45;&gt;PARTITION_AREA -->
<g id="edge8" class="edge">
<title>ASSESSMENT:w&#45;&gt;PARTITION_AREA:e</title>
<path fill="none" stroke="#000000" d="M926.7289,-413.3443C851.1869,-449.7345 947.3397,-796.45 876,-860.2543 789.5053,-937.6128 450.5633,-910.6065 354,-846.2543 211.0822,-751.0104 237.6042,-662.0649 186,-498.2543 169.0898,-444.575 201.7798,-248.2543 145.5,-248.2543"/>
<polygon fill="#000000" stroke="#000000" points="933.1812,-411.9473 941.7618,-413.7728 937.0906,-411.1008 941,-410.2543 941,-410.2543 941,-410.2543 937.0906,-411.1008 940.2382,-406.7358 933.1812,-411.9473 933.1812,-411.9473"/>
<ellipse fill="none" stroke="#000000" cx="930.0536" cy="-412.6244" rx="3.2" ry="3.2"/>
</g>
<!-- PROVIDER_EMPLOYEE -->
<g id="node10" class="node">
<title>PROVIDER_EMPLOYEE</title>
<g id="a_node10"><a xlink:href="../../tables/PROVIDER_EMPLOYEE.html" xlink:title="PROVIDER_EMPLOYEE" target="_top">
<polygon fill="#ffffff" stroke="transparent" points="382,-582.7543 382,-643.7543 549,-643.7543 549,-582.7543 382,-582.7543"/>
<polygon fill="#f5f5f5" stroke="transparent" points="382.5,-620.2543 382.5,-643.2543 549.5,-643.2543 549.5,-620.2543 382.5,-620.2543"/>
<polygon fill="none" stroke="#000000" points="382.5,-620.2543 382.5,-643.2543 549.5,-643.2543 549.5,-620.2543 382.5,-620.2543"/>
<text text-anchor="start" x="387.4639" y="-629.3543" font-family="Helvetica,sans-Serif" font-weight="bold" font-size="11.00" fill="#000000">PROVIDER_EMPLOYEE</text>
<text text-anchor="start" x="515.0219" y="-628.3543" font-family="Helvetica,sans-Serif" font-size="11.00" fill="#000000">[table]</text>
<polygon fill="none" stroke="#000000" points="382.5,-601.2543 382.5,-620.2543 549.5,-620.2543 549.5,-601.2543 382.5,-601.2543"/>
<text text-anchor="start" x="385.5" y="-607.3543" font-family="Helvetica,sans-Serif" font-size="11.00" fill="#000000">...</text>
<polygon fill="#ffffff" stroke="transparent" points="382.5,-582.2543 382.5,-601.2543 446.5,-601.2543 446.5,-582.2543 382.5,-582.2543"/>
<polygon fill="none" stroke="#000000" points="382.5,-582.2543 382.5,-601.2543 446.5,-601.2543 446.5,-582.2543 382.5,-582.2543"/>
<text text-anchor="start" x="385.5" y="-588.3543" font-family="Helvetica,sans-Serif" font-size="11.00" fill="#000000">&lt; 2</text>
<polygon fill="#ffffff" stroke="transparent" points="446.5,-582.2543 446.5,-601.2543 500.5,-601.2543 500.5,-582.2543 446.5,-582.2543"/>
<polygon fill="none" stroke="#000000" points="446.5,-582.2543 446.5,-601.2543 500.5,-601.2543 500.5,-582.2543 446.5,-582.2543"/>
<text text-anchor="start" x="470.6105" y="-588.3543" font-family="Helvetica,sans-Serif" font-size="11.00" fill="#000000">1 row</text>
<polygon fill="#ffffff" stroke="transparent" points="500.5,-582.2543 500.5,-601.2543 549.5,-601.2543 549.5,-582.2543 500.5,-582.2543"/>
<polygon fill="none" stroke="#000000" points="500.5,-582.2543 500.5,-601.2543 549.5,-601.2543 549.5,-582.2543 500.5,-582.2543"/>
<text text-anchor="start" x="524.7904" y="-588.3543" font-family="Helvetica,sans-Serif" font-size="11.00" fill="#000000">22 &gt;</text>
</a>
</g>
</g>
<!-- ASSESSMENT&#45;&gt;PROVIDER_EMPLOYEE -->
<g id="edge9" class="edge">
<title>ASSESSMENT:w&#45;&gt;PROVIDER_EMPLOYEE:e</title>
<path fill="none" stroke="#000000" d="M926.7495,-436.1704C869.0772,-472.1009 933.6743,-744.2954 876,-794.2543 831.3206,-832.9567 656.3453,-830.9454 610,-794.2543 542.5063,-740.8201 635.5849,-610.2543 549.5,-610.2543"/>
<polygon fill="#000000" stroke="#000000" points="933.286,-434.3742 941.9539,-435.7256 937.143,-433.3142 941,-432.2543 941,-432.2543 941,-432.2543 937.143,-433.3142 940.0461,-428.783 933.286,-434.3742 933.286,-434.3742"/>
<ellipse fill="none" stroke="#000000" cx="930.2004" cy="-435.2221" rx="3.2" ry="3.2"/>
</g>
<!-- PROVIDER_TEAM -->
<g id="node11" class="node">
<title>PROVIDER_TEAM</title>
<g id="a_node11"><a xlink:href="../../tables/PROVIDER_TEAM.html" xlink:title="PROVIDER_TEAM" target="_top">
<polygon fill="#ffffff" stroke="transparent" points="397,-368.7543 397,-429.7543 534,-429.7543 534,-368.7543 397,-368.7543"/>
<polygon fill="#f5f5f5" stroke="transparent" points="397.5,-406.2543 397.5,-429.2543 534.5,-429.2543 534.5,-406.2543 397.5,-406.2543"/>
<polygon fill="none" stroke="#000000" points="397.5,-406.2543 397.5,-429.2543 534.5,-429.2543 534.5,-406.2543 397.5,-406.2543"/>
<text text-anchor="start" x="402.4437" y="-415.3543" font-family="Helvetica,sans-Serif" font-weight="bold" font-size="11.00" fill="#000000">PROVIDER_TEAM</text>
<text text-anchor="start" x="500.0219" y="-414.3543" font-family="Helvetica,sans-Serif" font-size="11.00" fill="#000000">[table]</text>
<polygon fill="none" stroke="#000000" points="397.5,-387.2543 397.5,-406.2543 534.5,-406.2543 534.5,-387.2543 397.5,-387.2543"/>
<text text-anchor="start" x="400.5" y="-393.3543" font-family="Helvetica,sans-Serif" font-size="11.00" fill="#000000">...</text>
<polygon fill="#ffffff" stroke="transparent" points="397.5,-368.2543 397.5,-387.2543 446.5,-387.2543 446.5,-368.2543 397.5,-368.2543"/>
<polygon fill="none" stroke="#000000" points="397.5,-368.2543 397.5,-387.2543 446.5,-387.2543 446.5,-368.2543 397.5,-368.2543"/>
<text text-anchor="start" x="400.5" y="-374.3543" font-family="Helvetica,sans-Serif" font-size="11.00" fill="#000000">&lt; 2</text>
<polygon fill="#ffffff" stroke="transparent" points="446.5,-368.2543 446.5,-387.2543 492.5,-387.2543 492.5,-368.2543 446.5,-368.2543"/>
<polygon fill="none" stroke="#000000" points="446.5,-368.2543 446.5,-387.2543 492.5,-387.2543 492.5,-368.2543 446.5,-368.2543"/>
<text text-anchor="start" x="462.6105" y="-374.3543" font-family="Helvetica,sans-Serif" font-size="11.00" fill="#000000">1 row</text>
<polygon fill="#ffffff" stroke="transparent" points="492.5,-368.2543 492.5,-387.2543 534.5,-387.2543 534.5,-368.2543 492.5,-368.2543"/>
<polygon fill="none" stroke="#000000" points="492.5,-368.2543 492.5,-387.2543 534.5,-387.2543 534.5,-368.2543 492.5,-368.2543"/>
<text text-anchor="start" x="509.7904" y="-374.3543" font-family="Helvetica,sans-Serif" font-size="11.00" fill="#000000">24 &gt;</text>
</a>
</g>
</g>
<!-- ASSESSMENT&#45;&gt;PROVIDER_TEAM -->
<g id="edge10" class="edge">
<title>ASSESSMENT:w&#45;&gt;PROVIDER_TEAM:e</title>
<path fill="none" stroke="#000000" d="M926.7687,-363.5842C902.3582,-352.8109 909.1873,-312.4414 876,-298.2543 821.647,-275.0191 661.3228,-268.927 610,-298.2543 584.9174,-312.5872 594.7558,-331.4662 577,-354.2543 560.6779,-375.2024 561.0563,-396.2543 534.5,-396.2543"/>
<polygon fill="#000000" stroke="#000000" points="933.1372,-364.7791 940.3361,-369.7926 937.0686,-365.5167 941,-366.2543 941,-366.2543 941,-366.2543 937.0686,-365.5167 941.6639,-362.716 933.1372,-364.7791 933.1372,-364.7791"/>
<ellipse fill="none" stroke="#000000" cx="929.9921" cy="-364.189" rx="3.2" ry="3.2"/>
</g>
<!-- REFERRAL -->
<g id="node12" class="node">
<title>REFERRAL</title>
<g id="a_node12"><a xlink:href="../../tables/REFERRAL.html" xlink:title="REFERRAL" target="_top">
<polygon fill="#ffffff" stroke="transparent" points="692.5,-722.7543 692.5,-783.7543 793.5,-783.7543 793.5,-722.7543 692.5,-722.7543"/>
<polygon fill="#f5f5f5" stroke="transparent" points="693,-760.2543 693,-783.2543 794,-783.2543 794,-760.2543 693,-760.2543"/>
<polygon fill="none" stroke="#000000" points="693,-760.2543 693,-783.2543 794,-783.2543 794,-760.2543 693,-760.2543"/>
<text text-anchor="start" x="697.6674" y="-769.3543" font-family="Helvetica,sans-Serif" font-weight="bold" font-size="11.00" fill="#000000">REFERRAL</text>
<text text-anchor="start" x="759.5219" y="-768.3543" font-family="Helvetica,sans-Serif" font-size="11.00" fill="#000000">[table]</text>
<polygon fill="none" stroke="#000000" points="693,-741.2543 693,-760.2543 794,-760.2543 794,-741.2543 693,-741.2543"/>
<text text-anchor="start" x="696" y="-747.3543" font-family="Helvetica,sans-Serif" font-size="11.00" fill="#000000">...</text>
<polygon fill="#ffffff" stroke="transparent" points="693,-722.2543 693,-741.2543 721,-741.2543 721,-722.2543 693,-722.2543"/>
<polygon fill="none" stroke="#000000" points="693,-722.2543 693,-741.2543 721,-741.2543 721,-722.2543 693,-722.2543"/>
<text text-anchor="start" x="696" y="-728.3543" font-family="Helvetica,sans-Serif" font-size="11.00" fill="#000000">&lt; 13</text>
<polygon fill="#ffffff" stroke="transparent" points="721,-722.2543 721,-741.2543 772,-741.2543 772,-722.2543 721,-722.2543"/>
<polygon fill="none" stroke="#000000" points="721,-722.2543 721,-741.2543 772,-741.2543 772,-722.2543 721,-722.2543"/>
<text text-anchor="start" x="724.3807" y="-728.3543" font-family="Helvetica,sans-Serif" font-size="11.00" fill="#000000">888 rows</text>
<polygon fill="#ffffff" stroke="transparent" points="772,-722.2543 772,-741.2543 794,-741.2543 794,-722.2543 772,-722.2543"/>
<polygon fill="none" stroke="#000000" points="772,-722.2543 772,-741.2543 794,-741.2543 794,-722.2543 772,-722.2543"/>
<text text-anchor="start" x="775.4053" y="-728.3543" font-family="Helvetica,sans-Serif" font-size="11.00" fill="#000000">1 &gt;</text>
</a>
</g>
</g>
<!-- ASSESSMENT&#45;&gt;REFERRAL -->
<g id="edge11" class="edge">
<title>ASSESSMENT:w&#45;&gt;REFERRAL:e</title>
<path fill="none" stroke="#000000" d="M926.7177,-501.7651C911.6286,-511.5222 917.7696,-539.9166 909,-565.2543 887.0995,-628.5309 918.0429,-660.1396 876,-712.2543 850.7793,-743.5169 834.1676,-750.2543 794,-750.2543"/>
<polygon fill="#000000" stroke="#000000" points="933.2313,-500.164 941.8594,-501.7502 937.1156,-499.2092 941,-498.2543 941,-498.2543 941,-498.2543 937.1156,-499.2092 940.1406,-494.7584 933.2313,-500.164 933.2313,-500.164"/>
<ellipse fill="none" stroke="#000000" cx="930.1238" cy="-500.9279" rx="3.2" ry="3.2"/>
</g>
<!-- STAFF -->
<g id="node13" class="node">
<title>STAFF</title>
<g id="a_node13"><a xlink:href="../../tables/STAFF.html" xlink:title="STAFF" target="_top">
<polygon fill="#ffffff" stroke="transparent" points="412,-664.7543 412,-725.7543 519,-725.7543 519,-664.7543 412,-664.7543"/>
<polygon fill="#f5f5f5" stroke="transparent" points="412.5,-702.2543 412.5,-725.2543 519.5,-725.2543 519.5,-702.2543 412.5,-702.2543"/>
<polygon fill="none" stroke="#000000" points="412.5,-702.2543 412.5,-725.2543 519.5,-725.2543 519.5,-702.2543 412.5,-702.2543"/>
<text text-anchor="start" x="417.5" y="-711.3543" font-family="Helvetica,sans-Serif" font-weight="bold" font-size="11.00" fill="#000000">STAFF</text>
<text text-anchor="start" x="484.5437" y="-710.3543" font-family="Helvetica,sans-Serif" font-size="11.00" fill="#000000">[table]</text>
<polygon fill="none" stroke="#000000" points="412.5,-683.2543 412.5,-702.2543 519.5,-702.2543 519.5,-683.2543 412.5,-683.2543"/>
<text text-anchor="start" x="415.5" y="-689.3543" font-family="Helvetica,sans-Serif" font-size="11.00" fill="#000000">...</text>
<polygon fill="#ffffff" stroke="transparent" points="412.5,-664.2543 412.5,-683.2543 433.5,-683.2543 433.5,-664.2543 412.5,-664.2543"/>
<polygon fill="none" stroke="#000000" points="412.5,-664.2543 412.5,-683.2543 433.5,-683.2543 433.5,-664.2543 412.5,-664.2543"/>
<text text-anchor="start" x="415.2027" y="-670.3543" font-family="Helvetica,sans-Serif" font-size="11.00" fill="#000000">&lt; 4</text>
<polygon fill="#ffffff" stroke="transparent" points="433.5,-664.2543 433.5,-683.2543 492.5,-683.2543 492.5,-664.2543 433.5,-664.2543"/>
<polygon fill="none" stroke="#000000" points="433.5,-664.2543 433.5,-683.2543 492.5,-683.2543 492.5,-664.2543 433.5,-664.2543"/>
<text text-anchor="start" x="436.1045" y="-670.3543" font-family="Helvetica,sans-Serif" font-size="11.00" fill="#000000">3,352 rows</text>
<polygon fill="#ffffff" stroke="transparent" points="492.5,-664.2543 492.5,-683.2543 519.5,-683.2543 519.5,-664.2543 492.5,-664.2543"/>
<polygon fill="none" stroke="#000000" points="492.5,-664.2543 492.5,-683.2543 519.5,-683.2543 519.5,-664.2543 492.5,-664.2543"/>
<text text-anchor="start" x="495.1452" y="-670.3543" font-family="Helvetica,sans-Serif" font-size="11.00" fill="#000000">56 &gt;</text>
</a>
</g>
</g>
<!-- ASSESSMENT&#45;&gt;STAFF -->
<g id="edge12" class="edge">
<title>ASSESSMENT:w&#45;&gt;STAFF:e</title>
<path fill="none" stroke="#000000" d="M927.0387,-457.9637C868.4197,-493.1259 933.7654,-767.5342 876,-818.2543 831.5813,-857.2556 661.5564,-847.1689 610,-818.2543 585.468,-804.4959 593.141,-787.2886 577,-764.2543 553.4988,-730.7166 560.4522,-692.2543 519.5,-692.2543"/>
<polygon fill="#000000" stroke="#000000" points="933.2682,-456.3086 941.9244,-457.7336 937.1341,-455.2814 941,-454.2543 941,-454.2543 941,-454.2543 937.1341,-455.2814 940.0756,-450.775 933.2682,-456.3086 933.2682,-456.3086"/>
<ellipse fill="none" stroke="#000000" cx="930.1755" cy="-457.1303" rx="3.2" ry="3.2"/>
</g>
<!-- TEAM -->
<g id="node14" class="node">
<title>TEAM</title>
<g id="a_node14"><a xlink:href="../../tables/TEAM.html" xlink:title="TEAM" target="_top">
<polygon fill="#ffffff" stroke="transparent" points="412,-774.7543 412,-835.7543 519,-835.7543 519,-774.7543 412,-774.7543"/>
<polygon fill="#f5f5f5" stroke="transparent" points="412.5,-812.2543 412.5,-835.2543 519.5,-835.2543 519.5,-812.2543 412.5,-812.2543"/>
<polygon fill="none" stroke="#000000" points="412.5,-812.2543 412.5,-835.2543 519.5,-835.2543 519.5,-812.2543 412.5,-812.2543"/>
<text text-anchor="start" x="417.5" y="-821.3543" font-family="Helvetica,sans-Serif" font-weight="bold" font-size="11.00" fill="#000000">TEAM</text>
<text text-anchor="start" x="484.5437" y="-820.3543" font-family="Helvetica,sans-Serif" font-size="11.00" fill="#000000">[table]</text>
<polygon fill="none" stroke="#000000" points="412.5,-793.2543 412.5,-812.2543 519.5,-812.2543 519.5,-793.2543 412.5,-793.2543"/>
<text text-anchor="start" x="415.5" y="-799.3543" font-family="Helvetica,sans-Serif" font-size="11.00" fill="#000000">...</text>
<polygon fill="#ffffff" stroke="transparent" points="412.5,-774.2543 412.5,-793.2543 433.5,-793.2543 433.5,-774.2543 412.5,-774.2543"/>
<polygon fill="none" stroke="#000000" points="412.5,-774.2543 412.5,-793.2543 433.5,-793.2543 433.5,-774.2543 412.5,-774.2543"/>
<text text-anchor="start" x="415.2027" y="-780.3543" font-family="Helvetica,sans-Serif" font-size="11.00" fill="#000000">&lt; 4</text>
<polygon fill="#ffffff" stroke="transparent" points="433.5,-774.2543 433.5,-793.2543 492.5,-793.2543 492.5,-774.2543 433.5,-774.2543"/>
<polygon fill="none" stroke="#000000" points="433.5,-774.2543 433.5,-793.2543 492.5,-793.2543 492.5,-774.2543 433.5,-774.2543"/>
<text text-anchor="start" x="436.1045" y="-780.3543" font-family="Helvetica,sans-Serif" font-size="11.00" fill="#000000">1,458 rows</text>
<polygon fill="#ffffff" stroke="transparent" points="492.5,-774.2543 492.5,-793.2543 519.5,-793.2543 519.5,-774.2543 492.5,-774.2543"/>
<polygon fill="none" stroke="#000000" points="492.5,-774.2543 492.5,-793.2543 519.5,-793.2543 519.5,-774.2543 492.5,-774.2543"/>
<text text-anchor="start" x="495.1452" y="-780.3543" font-family="Helvetica,sans-Serif" font-size="11.00" fill="#000000">62 &gt;</text>
</a>
</g>
</g>
<!-- ASSESSMENT&#45;&gt;TEAM -->
<g id="edge13" class="edge">
<title>ASSESSMENT:w&#45;&gt;TEAM:e</title>
<path fill="none" stroke="#000000" d="M927.0354,-479.96C868.386,-515.0877 933.5041,-789.2381 876,-840.2543 831.7822,-879.4832 667.9473,-851.9264 610,-840.2543 567.2348,-831.6403 563.1241,-802.2543 519.5,-802.2543"/>
<polygon fill="#000000" stroke="#000000" points="933.2676,-478.3062 941.9234,-479.7339 937.1338,-477.2803 941,-476.2543 941,-476.2543 941,-476.2543 937.1338,-477.2803 940.0766,-472.7747 933.2676,-478.3062 933.2676,-478.3062"/>
<ellipse fill="none" stroke="#000000" cx="930.1747" cy="-479.127" rx="3.2" ry="3.2"/>
</g>
<!-- CONTACT&#45;&gt;R_ENFORCEMENT_ACTION -->
<g id="edge16" class="edge">
<title>CONTACT:w&#45;&gt;R_ENFORCEMENT_ACTION:e</title>
<path fill="none" stroke="#000000" d="M665.4069,-174.0518C622.8493,-178.904 610.1179,-204.2543 560.5,-204.2543"/>
<polygon fill="#000000" stroke="#000000" points="672.0119,-173.6909 680.1965,-176.8489 676.006,-173.4726 680,-173.2543 680,-173.2543 680,-173.2543 676.006,-173.4726 679.8035,-169.6597 672.0119,-173.6909 672.0119,-173.6909"/>
<ellipse fill="none" stroke="#000000" cx="668.8167" cy="-173.8655" rx="3.2" ry="3.2"/>
</g>
<!-- CONTACT&#45;&gt;R_CONTACT_OUTCOME_TYPE -->
<g id="edge14" class="edge">
<title>CONTACT:w&#45;&gt;R_CONTACT_OUTCOME_TYPE:e</title>
<path fill="none" stroke="#000000" d="M665.4642,-174.5115C640.0711,-179.3875 632.313,-197.9406 610,-221.2543 586.4652,-245.8446 603.5377,-286.2543 569.5,-286.2543"/>
<polygon fill="#000000" stroke="#000000" points="672.0298,-173.9437 680.3102,-176.8409 676.0149,-173.599 680,-173.2543 680,-173.2543 680,-173.2543 676.0149,-173.599 679.6898,-169.6677 672.0298,-173.9437 672.0298,-173.9437"/>
<ellipse fill="none" stroke="#000000" cx="668.8417" cy="-174.2195" rx="3.2" ry="3.2"/>
</g>
<!-- CONTACT&#45;&gt;EVENT -->
<g id="edge15" class="edge">
<title>CONTACT:w&#45;&gt;EVENT:e</title>
<path fill="none" stroke="#000000" d="M665.3778,-172.2555C601.2301,-163.1105 595.6117,-94.2543 522.5,-94.2543"/>
<polygon fill="#000000" stroke="#000000" points="672.0186,-172.709 679.7546,-176.8459 676.0093,-172.9817 680,-173.2543 680,-173.2543 680,-173.2543 676.0093,-172.9817 680.2454,-169.6627 672.0186,-172.709 672.0186,-172.709"/>
<ellipse fill="none" stroke="#000000" cx="668.826" cy="-172.4909" rx="3.2" ry="3.2"/>
</g>
<!-- CONTACT&#45;&gt;OFFENDER -->
<g id="edge17" class="edge">
<title>CONTACT:w&#45;&gt;OFFENDER:e</title>
<path fill="none" stroke="#000000" d="M665.579,-172.7853C584.7679,-168.0814 411.8194,-130.3243 354,-166.2543 319.4757,-187.7083 354.1472,-248.2543 313.5,-248.2543"/>
<polygon fill="#000000" stroke="#000000" points="672.0042,-172.9942 679.883,-176.8524 676.0021,-173.1243 680,-173.2543 680,-173.2543 680,-173.2543 676.0021,-173.1243 680.117,-169.6562 672.0042,-172.9942 672.0042,-172.9942"/>
<ellipse fill="none" stroke="#000000" cx="668.8059" cy="-172.8902" rx="3.2" ry="3.2"/>
</g>
<!-- CONTACT&#45;&gt;PARTITION_AREA -->
<g id="edge18" class="edge">
<title>CONTACT:w&#45;&gt;PARTITION_AREA:e</title>
<path fill="none" stroke="#000000" d="M665.4786,-171.7052C614.7513,-159.797 635.1989,-82.5573 577,-56.2543 486.6845,-15.4362 451.9969,-41.4349 354,-56.2543 276.7171,-67.9412 240.753,-52.4749 186,-108.2543 140.6255,-154.4794 210.2735,-248.2543 145.5,-248.2543"/>
<polygon fill="#000000" stroke="#000000" points="672.0451,-172.4056 679.6181,-176.834 676.0226,-172.83 680,-173.2543 680,-173.2543 680,-173.2543 676.0226,-172.83 680.3819,-169.6746 672.0451,-172.4056 672.0451,-172.4056"/>
<ellipse fill="none" stroke="#000000" cx="668.8632" cy="-172.0662" rx="3.2" ry="3.2"/>
</g>
<!-- CONTACT&#45;&gt;PROVIDER_EMPLOYEE -->
<g id="edge19" class="edge">
<title>CONTACT:w&#45;&gt;PROVIDER_EMPLOYEE:e</title>
<path fill="none" stroke="#000000" d="M665.5649,-174.5923C618.6771,-184.1692 630.0552,-243.4847 610,-298.2543 585.7159,-364.5728 620.1248,-610.2543 549.5,-610.2543"/>
<polygon fill="#000000" stroke="#000000" points="672.0341,-173.9927 680.3323,-176.8389 676.0171,-173.6235 680,-173.2543 680,-173.2543 680,-173.2543 676.0171,-173.6235 679.6677,-169.6697 672.0341,-173.9927 672.0341,-173.9927"/>
<ellipse fill="none" stroke="#000000" cx="668.8478" cy="-174.2881" rx="3.2" ry="3.2"/>
</g>
<!-- CONTACT&#45;&gt;PROVIDER_TEAM -->
<g id="edge20" class="edge">
<title>CONTACT:w&#45;&gt;PROVIDER_TEAM:e</title>
<path fill="none" stroke="#000000" d="M665.5766,-174.5084C569.2677,-192.4233 647.6413,-396.2543 534.5,-396.2543"/>
<polygon fill="#000000" stroke="#000000" points="672.0301,-173.9473 680.3119,-176.8408 676.015,-173.6008 680,-173.2543 680,-173.2543 680,-173.2543 676.015,-173.6008 679.6881,-169.6678 672.0301,-173.9473 672.0301,-173.9473"/>
<ellipse fill="none" stroke="#000000" cx="668.8421" cy="-174.2246" rx="3.2" ry="3.2"/>
</g>
<!-- CONTACT&#45;&gt;STAFF -->
<g id="edge21" class="edge">
<title>CONTACT:w&#45;&gt;STAFF:e</title>
<path fill="none" stroke="#000000" d="M665.5069,-174.5727C618.2173,-184.0136 627.3179,-242.5586 610,-298.2543 586.41,-374.1217 617.8227,-586.0938 577,-654.2543 561.2608,-680.5336 550.132,-692.2543 519.5,-692.2543"/>
<polygon fill="#000000" stroke="#000000" points="672.0329,-173.9791 680.3262,-176.8395 676.0164,-173.6167 680,-173.2543 680,-173.2543 680,-173.2543 676.0164,-173.6167 679.6738,-169.6691 672.0329,-173.9791 672.0329,-173.9791"/>
<ellipse fill="none" stroke="#000000" cx="668.8461" cy="-174.269" rx="3.2" ry="3.2"/>
</g>
<!-- CONTACT&#45;&gt;TEAM -->
<g id="edge22" class="edge">
<title>CONTACT:w&#45;&gt;TEAM:e</title>
<path fill="none" stroke="#000000" d="M665.4968,-174.5696C618.1366,-183.9889 626.8373,-242.4115 610,-298.2543 577.1511,-407.2011 633.2913,-802.2543 519.5,-802.2543"/>
<polygon fill="#000000" stroke="#000000" points="672.0327,-173.9769 680.3252,-176.8396 676.0163,-173.6156 680,-173.2543 680,-173.2543 680,-173.2543 676.0163,-173.6156 679.6748,-169.669 672.0327,-173.9769 672.0327,-173.9769"/>
<ellipse fill="none" stroke="#000000" cx="668.8458" cy="-174.2659" rx="3.2" ry="3.2"/>
</g>
<!-- EVENT&#45;&gt;OFFENDER -->
<g id="edge23" class="edge">
<title>EVENT:w&#45;&gt;OFFENDER:e</title>
<path fill="none" stroke="#000000" d="M394.9867,-96.0609C375.0248,-101.7342 369.5012,-120.139 354,-142.2543 325.0531,-183.5524 363.9327,-248.2543 313.5,-248.2543"/>
<polygon fill="#000000" stroke="#000000" points="401.5613,-95.2425 409.9447,-97.8267 405.5306,-94.7484 409.5,-94.2543 409.5,-94.2543 409.5,-94.2543 405.5306,-94.7484 409.0553,-90.6819 401.5613,-95.2425 401.5613,-95.2425"/>
<ellipse fill="none" stroke="#000000" cx="398.3858" cy="-95.6378" rx="3.2" ry="3.2"/>
</g>
<!-- EVENT&#45;&gt;PARTITION_AREA -->
<g id="edge24" class="edge">
<title>EVENT:w&#45;&gt;PARTITION_AREA:e</title>
<path fill="none" stroke="#000000" d="M394.9578,-94.5616C295.6217,-98.8924 273.2322,-148.4837 186,-210.2543 165.8563,-224.5184 170.1827,-248.2543 145.5,-248.2543"/>
<polygon fill="#000000" stroke="#000000" points="401.5018,-94.4234 409.5761,-97.8535 405.5009,-94.3388 409.5,-94.2543 409.5,-94.2543 409.5,-94.2543 405.5009,-94.3388 409.4239,-90.6551 401.5018,-94.4234 401.5018,-94.4234"/>
<ellipse fill="none" stroke="#000000" cx="398.3025" cy="-94.491" rx="3.2" ry="3.2"/>
</g>
<!-- OFFENDER&#45;&gt;PARTITION_AREA -->
<g id="edge25" class="edge">
<title>OFFENDER:w&#45;&gt;PARTITION_AREA:e</title>
<path fill="none" stroke="#000000" d="M179.9909,-248.2543C168.6774,-248.2543 161.4931,-248.2543 145.5,-248.2543"/>
<polygon fill="#000000" stroke="#000000" points="186.5,-248.2544 194.5,-251.8543 190.5,-248.2543 194.5,-248.2543 194.5,-248.2543 194.5,-248.2543 190.5,-248.2543 194.5,-244.6543 186.5,-248.2544 186.5,-248.2544"/>
<ellipse fill="none" stroke="#000000" cx="183.3" cy="-248.2544" rx="3.2" ry="3.2"/>
</g>
<!-- REFERRAL&#45;&gt;R_ENFORCEMENT_ACTION -->
<g id="edge28" class="edge">
<title>REFERRAL:w&#45;&gt;R_ENFORCEMENT_ACTION:e</title>
<path fill="none" stroke="#000000" d="M678.3164,-749.9706C647.3866,-748.5767 630.1364,-741.298 610,-712.2543 545.3747,-619.0423 673.9235,-204.2543 560.5,-204.2543"/>
<polygon fill="#000000" stroke="#000000" points="685.0015,-750.0997 692.9304,-753.8536 689.0007,-750.177 693,-750.2543 693,-750.2543 693,-750.2543 689.0007,-750.177 693.0696,-746.655 685.0015,-750.0997 685.0015,-750.0997"/>
<ellipse fill="none" stroke="#000000" cx="681.8021" cy="-750.0379" rx="3.2" ry="3.2"/>
</g>
<!-- REFERRAL&#45;&gt;R_CONTACT_OUTCOME_TYPE -->
<g id="edge29" class="edge">
<title>REFERRAL:w&#45;&gt;R_CONTACT_OUTCOME_TYPE:e</title>
<path fill="none" stroke="#000000" d="M678.3322,-749.9595C647.4684,-748.5193 630.454,-741.0752 610,-712.2543 582.4821,-673.4798 617.0468,-286.2543 569.5,-286.2543"/>
<polygon fill="#000000" stroke="#000000" points="685.0016,-750.0935 692.9276,-753.8536 689.0008,-750.1739 693,-750.2543 693,-750.2543 693,-750.2543 689.0008,-750.1739 693.0724,-746.655 685.0016,-750.0935 685.0016,-750.0935"/>
<ellipse fill="none" stroke="#000000" cx="681.8023" cy="-750.0292" rx="3.2" ry="3.2"/>
</g>
<!-- REFERRAL&#45;&gt;EVENT -->
<g id="edge30" class="edge">
<title>REFERRAL:w&#45;&gt;EVENT:e</title>
<path fill="none" stroke="#000000" d="M678.3087,-749.9759C647.3467,-748.6042 629.9817,-741.4047 610,-712.2543 531.5785,-597.8489 661.203,-94.2543 522.5,-94.2543"/>
<polygon fill="#000000" stroke="#000000" points="685.0014,-750.1027 692.9318,-753.8537 689.0007,-750.1785 693,-750.2543 693,-750.2543 693,-750.2543 689.0007,-750.1785 693.0682,-746.655 685.0014,-750.1027 685.0014,-750.1027"/>
<ellipse fill="none" stroke="#000000" cx="681.802" cy="-750.0421" rx="3.2" ry="3.2"/>
</g>
<!-- REFERRAL&#45;&gt;OFFENDER -->
<g id="edge31" class="edge">
<title>REFERRAL:w&#45;&gt;OFFENDER:e</title>
<path fill="none" stroke="#000000" d="M678.4292,-749.8855C647.9701,-748.1365 632.3997,-739.5904 610,-712.2543 569.4822,-662.8072 614.8642,-623.7617 577,-572.2543 508.7831,-479.4575 421.1173,-533.8495 354,-440.2543 303.1775,-369.3822 400.7111,-248.2543 313.5,-248.2543"/>
<polygon fill="#000000" stroke="#000000" points="685.0026,-750.0518 692.9089,-753.8532 689.0013,-750.1531 693,-750.2543 693,-750.2543 693,-750.2543 689.0013,-750.1531 693.0911,-746.6555 685.0026,-750.0518 685.0026,-750.0518"/>
<ellipse fill="none" stroke="#000000" cx="681.8036" cy="-749.9708" rx="3.2" ry="3.2"/>
</g>
<!-- REFERRAL&#45;&gt;PARTITION_AREA -->
<g id="edge32" class="edge">
<title>REFERRAL:w&#45;&gt;PARTITION_AREA:e</title>
<path fill="none" stroke="#000000" d="M678.5006,-750.531C594.4621,-753.3868 412.4154,-776.575 354,-736.2543 305.4734,-702.7593 204.4639,-248.2543 145.5,-248.2543"/>
<polygon fill="#000000" stroke="#000000" points="685.0015,-750.407 693.0687,-753.8537 689.0007,-750.3307 693,-750.2543 693,-750.2543 693,-750.2543 689.0007,-750.3307 692.9313,-746.655 685.0015,-750.407 685.0015,-750.407"/>
<ellipse fill="none" stroke="#000000" cx="681.802" cy="-750.4681" rx="3.2" ry="3.2"/>
</g>
<!-- REFERRAL&#45;&gt;PROVIDER_EMPLOYEE -->
<g id="edge33" class="edge">
<title>REFERRAL:w&#45;&gt;PROVIDER_EMPLOYEE:e</title>
<path fill="none" stroke="#000000" d="M678.2134,-749.6788C648.7993,-747.1422 635.9475,-736.0148 610,-712.2543 571.1277,-676.6585 602.2079,-610.2543 549.5,-610.2543"/>
<polygon fill="#000000" stroke="#000000" points="685.0061,-749.9431 692.86,-753.8516 689.003,-750.0987 693,-750.2543 693,-750.2543 693,-750.2543 689.003,-750.0987 693.14,-746.657 685.0061,-749.9431 685.0061,-749.9431"/>
<ellipse fill="none" stroke="#000000" cx="681.8085" cy="-749.8187" rx="3.2" ry="3.2"/>
</g>
<!-- REFERRAL&#45;&gt;PROVIDER_TEAM -->
<g id="edge34" class="edge">
<title>REFERRAL:w&#45;&gt;PROVIDER_TEAM:e</title>
<path fill="none" stroke="#000000" d="M678.3739,-749.929C647.684,-748.3614 631.2903,-740.4631 610,-712.2543 523.0124,-596.9991 678.8974,-396.2543 534.5,-396.2543"/>
<polygon fill="#000000" stroke="#000000" points="685.002,-750.0764 692.9199,-753.8534 689.001,-750.1653 693,-750.2543 693,-750.2543 693,-750.2543 689.001,-750.1653 693.0801,-746.6552 685.002,-750.0764 685.002,-750.0764"/>
<ellipse fill="none" stroke="#000000" cx="681.8028" cy="-750.0052" rx="3.2" ry="3.2"/>
</g>
<!-- REFERRAL&#45;&gt;STAFF -->
<g id="edge35" class="edge">
<title>REFERRAL:w&#45;&gt;STAFF:e</title>
<path fill="none" stroke="#000000" d="M678.546,-749.6029C610.0582,-743.2309 595.7241,-692.2543 519.5,-692.2543"/>
<polygon fill="#000000" stroke="#000000" points="685.0081,-749.8941 692.8379,-753.8507 689.0041,-750.0742 693,-750.2543 693,-750.2543 693,-750.2543 689.0041,-750.0742 693.1621,-746.658 685.0081,-749.8941 685.0081,-749.8941"/>
<ellipse fill="none" stroke="#000000" cx="681.8114" cy="-749.75" rx="3.2" ry="3.2"/>
</g>
<!-- REFERRAL&#45;&gt;TEAM -->
<g id="edge36" class="edge">
<title>REFERRAL:w&#45;&gt;TEAM:e</title>
<path fill="none" stroke="#000000" d="M678.2456,-750.8745C610.6062,-756.7414 594.8115,-802.2543 519.5,-802.2543"/>
<polygon fill="#000000" stroke="#000000" points="685.0071,-750.5903 693.1512,-753.8511 689.0035,-750.4223 693,-750.2543 693,-750.2543 693,-750.2543 689.0035,-750.4223 692.8488,-746.6575 685.0071,-750.5903 685.0071,-750.5903"/>
<ellipse fill="none" stroke="#000000" cx="681.8099" cy="-750.7248" rx="3.2" ry="3.2"/>
</g>
<!-- R_ASSMNT_TYPE_ASSMNT_OUTCOME -->
<g id="node15" class="node">
<title>R_ASSMNT_TYPE_ASSMNT_OUTCOME</title>
<g id="a_node15"><a xlink:href="../../tables/R_ASSMNT_TYPE_ASSMNT_OUTCOME.html" xlink:title="R_ASSMNT_TYPE_ASSMNT_OUTCOME" target="_top">
<polygon fill="#ffffff" stroke="transparent" points="917,-575.7543 917,-702.7543 1169,-702.7543 1169,-575.7543 917,-575.7543"/>
<polygon fill="#f5f5f5" stroke="transparent" points="917,-679.2543 917,-702.2543 1169,-702.2543 1169,-679.2543 917,-679.2543"/>
<polygon fill="none" stroke="#000000" points="917,-679.2543 917,-702.2543 1169,-702.2543 1169,-679.2543 917,-679.2543"/>
<text text-anchor="start" x="921.9989" y="-688.3543" font-family="Helvetica,sans-Serif" font-weight="bold" font-size="11.00" fill="#000000">R_ASSMNT_TYPE_ASSMNT_OUTCOME</text>
<text text-anchor="start" x="1134.5219" y="-687.3543" font-family="Helvetica,sans-Serif" font-size="11.00" fill="#000000">[table]</text>
<polygon fill="none" stroke="#000000" points="917,-657.2543 917,-679.2543 1169,-679.2543 1169,-657.2543 917,-657.2543"/>
<image xlink:href="../../images/primaryKeys.png" width="11px" height="12px" preserveAspectRatio="xMinYMin meet" x="922" y="-674.254"/>
<text text-anchor="start" x="952" y="-664.3543" font-family="Helvetica,sans-Serif" font-size="11.00" fill="#000000">ASSESSMENT_TYPE_ID</text>
<polygon fill="none" stroke="#000000" points="917,-635.2543 917,-657.2543 1169,-657.2543 1169,-635.2543 917,-635.2543"/>
<image xlink:href="../../images/primaryKeys.png" width="11px" height="12px" preserveAspectRatio="xMinYMin meet" x="922" y="-652.254"/>
<text text-anchor="start" x="952" y="-642.3543" font-family="Helvetica,sans-Serif" font-size="11.00" fill="#000000">ASSESSMENT_OUTCOME_ID</text>
<polygon fill="none" stroke="#000000" points="917,-613.2543 917,-635.2543 1169,-635.2543 1169,-613.2543 917,-613.2543"/>
<image xlink:href="../../images/primaryKeys.png" width="11px" height="12px" preserveAspectRatio="xMinYMin meet" x="922" y="-630.254"/>
<text text-anchor="start" x="952" y="-620.3543" font-family="Helvetica,sans-Serif" font-size="11.00" fill="#000000">TRAINING_SESSION_ID</text>
<polygon fill="none" stroke="#000000" points="917,-594.2543 917,-613.2543 1169,-613.2543 1169,-594.2543 917,-594.2543"/>
<text text-anchor="start" x="920" y="-600.3543" font-family="Helvetica,sans-Serif" font-size="11.00" fill="#000000">...</text>
<polygon fill="#ffffff" stroke="transparent" points="917,-575.2543 917,-594.2543 1025,-594.2543 1025,-575.2543 917,-575.2543"/>
<polygon fill="none" stroke="#000000" points="917,-575.2543 917,-594.2543 1025,-594.2543 1025,-575.2543 917,-575.2543"/>
<text text-anchor="start" x="920" y="-581.3543" font-family="Helvetica,sans-Serif" font-size="11.00" fill="#000000">&lt; 2</text>
<polygon fill="#ffffff" stroke="transparent" points="1025,-575.2543 1025,-594.2543 1113,-594.2543 1113,-575.2543 1025,-575.2543"/>
<polygon fill="none" stroke="#000000" points="1025,-575.2543 1025,-594.2543 1113,-594.2543 1113,-575.2543 1025,-575.2543"/>
<text text-anchor="start" x="1071.4956" y="-581.3543" font-family="Helvetica,sans-Serif" font-size="11.00" fill="#000000">98 rows</text>
<polygon fill="#ffffff" stroke="transparent" points="1113,-575.2543 1113,-594.2543 1169,-594.2543 1169,-575.2543 1113,-575.2543"/>
<polygon fill="none" stroke="#000000" points="1113,-575.2543 1113,-594.2543 1169,-594.2543 1169,-575.2543 1113,-575.2543"/>
<text text-anchor="start" x="1159.8862" y="-581.3543" font-family="Helvetica,sans-Serif" font-size="11.00" fill="#000000"> &#160;</text>
</a>
</g>
</g>
<!-- R_ASSMNT_TYPE_ASSMNT_OUTCOME&#45;&gt;R_ASSESSMENT_OUTCOME -->
<g id="edge26" class="edge">
<title>R_ASSMNT_TYPE_ASSMNT_OUTCOME:w&#45;&gt;R_ASSESSMENT_OUTCOME:e</title>
<path fill="none" stroke="#000000" d="M902.9033,-641.3108C886.525,-626.4591 895.8329,-583.2543 866,-583.2543"/>
<polygon fill="#000000" stroke="#000000" points="909.4507,-643.6069 915.8087,-649.6515 913.2254,-644.9306 917,-646.2543 917,-646.2543 917,-646.2543 913.2254,-644.9306 918.1913,-642.8571 909.4507,-643.6069 909.4507,-643.6069"/>
<ellipse fill="none" stroke="#000000" cx="906.431" cy="-642.5479" rx="3.2" ry="3.2"/>
</g>
<!-- R_ASSMNT_TYPE_ASSMNT_OUTCOME&#45;&gt;R_ASSESSMENT_TYPE -->
<g id="edge27" class="edge">
<title>R_ASSMNT_TYPE_ASSMNT_OUTCOME:w&#45;&gt;R_ASSESSMENT_TYPE:e</title>
<path fill="none" stroke="#000000" d="M902.5095,-668.2543C873.8146,-668.2543 861.6875,-668.2543 827,-668.2543"/>
<polygon fill="#000000" stroke="#000000" points="909,-668.2544 917,-671.8543 913,-668.2543 917,-668.2543 917,-668.2543 917,-668.2543 913,-668.2543 917,-664.6543 909,-668.2544 909,-668.2544"/>
<ellipse fill="none" stroke="#000000" cx="905.8" cy="-668.2544" rx="3.2" ry="3.2"/>
</g>
</g>
</svg>
