<?xml version="1.0" encoding="UTF-8" standalone="no"?>
<!DOCTYPE svg PUBLIC "-//W3C//DTD SVG 1.1//EN"
 "http://www.w3.org/Graphics/SVG/1.1/DTD/svg11.dtd">
<!-- Generated by graphviz version 2.40.1 (20161225.0304)
 -->
<!-- Title: oneDegreeRelationshipsDiagram Pages: 1 -->
<svg width="555pt" height="771pt"
 viewBox="0.00 0.00 555.00 770.70" xmlns="http://www.w3.org/2000/svg" xmlns:xlink="http://www.w3.org/1999/xlink">
<g id="graph0" class="graph" transform="scale(1 1) rotate(0) translate(4 766.7)">
<title>oneDegreeRelationshipsDiagram</title>
<polygon fill="#ffffff" stroke="transparent" points="-4,4 -4,-766.7 551,-766.7 551,4 -4,4"/>
<text text-anchor="middle" x="72.4936" y="-7.3" font-family="Helvetica,sans-Serif" font-size="11.00" fill="#000000">Generated by SchemaSpy</text>
<!-- PERSONAL_CIRCUMSTANCE -->
<g id="node1" class="node">
<title>PERSONAL_CIRCUMSTANCE</title>
<g id="a_node1"><a xlink:href="../../tables/PERSONAL_CIRCUMSTANCE.html" xlink:title="PERSONAL_CIRCUMSTANCE" target="_top">
<polygon fill="#ffffff" stroke="transparent" points="318.5,-389.7 318.5,-758.7 515.5,-758.7 515.5,-389.7 318.5,-389.7"/>
<polygon fill="#f5f5f5" stroke="transparent" points="319,-735.2 319,-758.2 516,-758.2 516,-735.2 319,-735.2"/>
<polygon fill="none" stroke="#000000" points="319,-735.2 319,-758.2 516,-758.2 516,-735.2 319,-735.2"/>
<text text-anchor="start" x="323.698" y="-744.3" font-family="Helvetica,sans-Serif" font-weight="bold" font-size="11.00" fill="#000000">PERSONAL_CIRCUMSTANCE</text>
<text text-anchor="start" x="481.5219" y="-743.3" font-family="Helvetica,sans-Serif" font-size="11.00" fill="#000000">[table]</text>
<polygon fill="none" stroke="#000000" points="319,-713.2 319,-735.2 516,-735.2 516,-713.2 319,-713.2"/>
<image xlink:href="../../images/primaryKeys.png" width="11px" height="12px" preserveAspectRatio="xMinYMin meet" x="324" y="-730.2"/>
<text text-anchor="start" x="339.1417" y="-720.3" font-family="Helvetica,sans-Serif" font-size="11.00" fill="#000000">PERSONAL_CIRCUMSTANCE_ID</text>
<polygon fill="none" stroke="#000000" points="319,-691.2 319,-713.2 516,-713.2 516,-691.2 319,-691.2"/>
<image xlink:href="../../images/primaryKeys.png" width="11px" height="12px" preserveAspectRatio="xMinYMin meet" x="324" y="-708.2"/>
<text text-anchor="start" x="345" y="-698.3" font-family="Helvetica,sans-Serif" font-size="11.00" fill="#000000">OFFENDER_ID</text>
<polygon fill="none" stroke="#000000" points="319,-669.2 319,-691.2 516,-691.2 516,-669.2 319,-669.2"/>
<image xlink:href="../../images/primaryKeys.png" width="11px" height="12px" preserveAspectRatio="xMinYMin meet" x="324" y="-686.2"/>
<text text-anchor="start" x="345" y="-676.3" font-family="Helvetica,sans-Serif" font-size="11.00" fill="#000000">START_DATE</text>
<polygon fill="none" stroke="#000000" points="319,-647.2 319,-669.2 516,-669.2 516,-647.2 319,-647.2"/>
<image xlink:href="../../images/primaryKeys.png" width="11px" height="12px" preserveAspectRatio="xMinYMin meet" x="324" y="-664.2"/>
<text text-anchor="start" x="345" y="-654.3" font-family="Helvetica,sans-Serif" font-size="11.00" fill="#000000">END_DATE</text>
<polygon fill="none" stroke="#000000" points="319,-625.2 319,-647.2 516,-647.2 516,-625.2 319,-625.2"/>
<image xlink:href="../../images/primaryKeys.png" width="11px" height="12px" preserveAspectRatio="xMinYMin meet" x="324" y="-642.2"/>
<text text-anchor="start" x="345" y="-632.3" font-family="Helvetica,sans-Serif" font-size="11.00" fill="#000000">SOFT_DELETED</text>
<polygon fill="none" stroke="#000000" points="319,-603.2 319,-625.2 516,-625.2 516,-603.2 319,-603.2"/>
<image xlink:href="../../images/primaryKeys.png" width="11px" height="12px" preserveAspectRatio="xMinYMin meet" x="324" y="-620.2"/>
<text text-anchor="start" x="345" y="-610.3" font-family="Helvetica,sans-Serif" font-size="11.00" fill="#000000">PARTITION_AREA_ID</text>
<polygon fill="none" stroke="#000000" points="319,-581.2 319,-603.2 516,-603.2 516,-581.2 319,-581.2"/>
<image xlink:href="../../images/primaryKeys.png" width="11px" height="12px" preserveAspectRatio="xMinYMin meet" x="324" y="-598.2"/>
<text text-anchor="start" x="345" y="-588.3" font-family="Helvetica,sans-Serif" font-size="11.00" fill="#000000">TRAINING_SESSION_ID</text>
<polygon fill="none" stroke="#000000" points="319,-559.2 319,-581.2 516,-581.2 516,-559.2 319,-559.2"/>
<image xlink:href="../../images/primaryKeys.png" width="11px" height="12px" preserveAspectRatio="xMinYMin meet" x="324" y="-576.2"/>
<text text-anchor="start" x="345" y="-566.3" font-family="Helvetica,sans-Serif" font-size="11.00" fill="#000000">CIRCUMSTANCE_TYPE_ID</text>
<polygon fill="none" stroke="#000000" points="319,-537.2 319,-559.2 516,-559.2 516,-537.2 319,-537.2"/>
<image xlink:href="../../images/primaryKeys.png" width="11px" height="12px" preserveAspectRatio="xMinYMin meet" x="324" y="-554.2"/>
<text text-anchor="start" x="340.3627" y="-544.3" font-family="Helvetica,sans-Serif" font-size="11.00" fill="#000000">CIRCUMSTANCE_SUB_TYPE_ID</text>
<polygon fill="none" stroke="#000000" points="319,-515.2 319,-537.2 516,-537.2 516,-515.2 319,-515.2"/>
<image xlink:href="../../images/primaryKeys.png" width="11px" height="12px" preserveAspectRatio="xMinYMin meet" x="324" y="-532.2"/>
<text text-anchor="start" x="345" y="-522.3" font-family="Helvetica,sans-Serif" font-size="11.00" fill="#000000">QUALIFICATION_1_ID</text>
<polygon fill="none" stroke="#000000" points="319,-493.2 319,-515.2 516,-515.2 516,-493.2 319,-493.2"/>
<image xlink:href="../../images/primaryKeys.png" width="11px" height="12px" preserveAspectRatio="xMinYMin meet" x="324" y="-510.2"/>
<text text-anchor="start" x="345" y="-500.3" font-family="Helvetica,sans-Serif" font-size="11.00" fill="#000000">QUALIFICATION_2_ID</text>
<polygon fill="none" stroke="#000000" points="319,-471.2 319,-493.2 516,-493.2 516,-471.2 319,-471.2"/>
<image xlink:href="../../images/primaryKeys.png" width="11px" height="12px" preserveAspectRatio="xMinYMin meet" x="324" y="-488.2"/>
<text text-anchor="start" x="345" y="-478.3" font-family="Helvetica,sans-Serif" font-size="11.00" fill="#000000">QUALIFICATION_3_ID</text>
<polygon fill="none" stroke="#000000" points="319,-449.2 319,-471.2 516,-471.2 516,-449.2 319,-449.2"/>
<image xlink:href="../../images/primaryKeys.png" width="11px" height="12px" preserveAspectRatio="xMinYMin meet" x="324" y="-466.2"/>
<text text-anchor="start" x="345" y="-456.3" font-family="Helvetica,sans-Serif" font-size="11.00" fill="#000000">OFFENDER_ADDRESS_ID</text>
<polygon fill="none" stroke="#000000" points="319,-427.2 319,-449.2 516,-449.2 516,-427.2 319,-427.2"/>
<image xlink:href="../../images/primaryKeys.png" width="11px" height="12px" preserveAspectRatio="xMinYMin meet" x="324" y="-444.2"/>
<text text-anchor="start" x="345" y="-434.3" font-family="Helvetica,sans-Serif" font-size="11.00" fill="#000000">PROBATION_AREA_ID</text>
<polygon fill="none" stroke="#000000" points="319,-408.2 319,-427.2 516,-427.2 516,-408.2 319,-408.2"/>
<text text-anchor="start" x="322" y="-414.3" font-family="Helvetica,sans-Serif" font-size="11.00" fill="#000000">...</text>
<polygon fill="#ffffff" stroke="transparent" points="319,-389.2 319,-408.2 397,-408.2 397,-389.2 319,-389.2"/>
<polygon fill="none" stroke="#000000" points="319,-389.2 319,-408.2 397,-408.2 397,-389.2 319,-389.2"/>
<text text-anchor="start" x="322" y="-395.3" font-family="Helvetica,sans-Serif" font-size="11.00" fill="#000000">&lt; 9</text>
<polygon fill="#ffffff" stroke="transparent" points="397,-389.2 397,-408.2 475,-408.2 475,-389.2 397,-389.2"/>
<polygon fill="none" stroke="#000000" points="397,-389.2 397,-408.2 475,-408.2 475,-389.2 397,-389.2"/>
<text text-anchor="start" x="427.3807" y="-395.3" font-family="Helvetica,sans-Serif" font-size="11.00" fill="#000000">415 rows</text>
<polygon fill="#ffffff" stroke="transparent" points="475,-389.2 475,-408.2 516,-408.2 516,-389.2 475,-389.2"/>
<polygon fill="none" stroke="#000000" points="475,-389.2 475,-408.2 516,-408.2 516,-389.2 475,-389.2"/>
<text text-anchor="start" x="506.8862" y="-395.3" font-family="Helvetica,sans-Serif" font-size="11.00" fill="#000000"> &#160;</text>
</a>
</g>
</g>
<!-- R_CIRCUMSTANCE_TYPE -->
<g id="node2" class="node">
<title>R_CIRCUMSTANCE_TYPE</title>
<g id="a_node2"><a xlink:href="../../tables/R_CIRCUMSTANCE_TYPE.html" xlink:title="R_CIRCUMSTANCE_TYPE" target="_top">
<polygon fill="#ffffff" stroke="transparent" points="8,-38.2 8,-370.2 246,-370.2 246,-38.2 8,-38.2"/>
<polygon fill="#f5f5f5" stroke="transparent" points="10,-345.2 10,-368.2 244,-368.2 244,-345.2 10,-345.2"/>
<polygon fill="none" stroke="#000000" points="10,-345.2 10,-368.2 244,-368.2 244,-345.2 10,-345.2"/>
<text text-anchor="start" x="15" y="-354.3" font-family="Helvetica,sans-Serif" font-weight="bold" font-size="11.00" fill="#000000">R_CIRCUMSTANCE_TYPE</text>
<text text-anchor="start" x="209.0437" y="-353.3" font-family="Helvetica,sans-Serif" font-size="11.00" fill="#000000">[table]</text>
<polygon fill="none" stroke="#000000" points="10,-323.2 10,-345.2 171,-345.2 171,-323.2 10,-323.2"/>
<image xlink:href="../../images/primaryKeys.png" width="11px" height="12px" preserveAspectRatio="xMinYMin meet" x="15" y="-340.2"/>
<text text-anchor="start" x="27.7265" y="-330.3" font-family="Helvetica,sans-Serif" font-size="11.00" fill="#000000">CIRCUMSTANCE_TYPE_ID</text>
<polygon fill="none" stroke="#000000" points="171,-323.2 171,-345.2 244,-345.2 244,-323.2 171,-323.2"/>
<text text-anchor="start" x="174" y="-330.9" font-family="Helvetica,sans-Serif" font-size="11.00" fill="#000000">number[38]</text>
<polygon fill="none" stroke="#000000" points="10,-301.2 10,-323.2 171,-323.2 171,-301.2 10,-301.2"/>
<image xlink:href="../../images/primaryKeys.png" width="11px" height="12px" preserveAspectRatio="xMinYMin meet" x="15" y="-318.2"/>
<text text-anchor="start" x="30" y="-308.3" font-family="Helvetica,sans-Serif" font-size="11.00" fill="#000000">CODE_VALUE</text>
<polygon fill="none" stroke="#000000" points="171,-301.2 171,-323.2 244,-323.2 244,-301.2 171,-301.2"/>
<text text-anchor="start" x="173.8791" y="-308.9" font-family="Helvetica,sans-Serif" font-size="11.00" fill="#000000">varchar2[100]</text>
<polygon fill="none" stroke="#000000" points="10,-279.2 10,-301.2 171,-301.2 171,-279.2 10,-279.2"/>
<text text-anchor="start" x="30" y="-286.3" font-family="Helvetica,sans-Serif" font-size="11.00" fill="#000000">CODE_DESCRIPTION</text>
<polygon fill="none" stroke="#000000" points="171,-279.2 171,-301.2 244,-301.2 244,-279.2 171,-279.2"/>
<text text-anchor="start" x="173.8791" y="-286.9" font-family="Helvetica,sans-Serif" font-size="11.00" fill="#000000">varchar2[500]</text>
<polygon fill="none" stroke="#000000" points="10,-257.2 10,-279.2 171,-279.2 171,-257.2 10,-257.2"/>
<text text-anchor="start" x="30" y="-264.3" font-family="Helvetica,sans-Serif" font-size="11.00" fill="#000000">SELECTABLE</text>
<polygon fill="none" stroke="#000000" points="171,-257.2 171,-279.2 244,-279.2 244,-257.2 171,-257.2"/>
<text text-anchor="start" x="174" y="-264.9" font-family="Helvetica,sans-Serif" font-size="11.00" fill="#000000">char[1]</text>
<polygon fill="none" stroke="#000000" points="10,-235.2 10,-257.2 171,-257.2 171,-235.2 10,-235.2"/>
<text text-anchor="start" x="30" y="-242.3" font-family="Helvetica,sans-Serif" font-size="11.00" fill="#000000">ACTIVE_DUPLICATES</text>
<polygon fill="none" stroke="#000000" points="171,-235.2 171,-257.2 244,-257.2 244,-235.2 171,-235.2"/>
<text text-anchor="start" x="174" y="-242.9" font-family="Helvetica,sans-Serif" font-size="11.00" fill="#000000">char[1]</text>
<polygon fill="none" stroke="#000000" points="10,-213.2 10,-235.2 171,-235.2 171,-213.2 10,-213.2"/>
<text text-anchor="start" x="30" y="-220.3" font-family="Helvetica,sans-Serif" font-size="11.00" fill="#000000">ROW_VERSION</text>
<polygon fill="none" stroke="#000000" points="171,-213.2 171,-235.2 244,-235.2 244,-213.2 171,-213.2"/>
<text text-anchor="start" x="174" y="-220.9" font-family="Helvetica,sans-Serif" font-size="11.00" fill="#000000">number[38]</text>
<polygon fill="none" stroke="#000000" points="10,-191.2 10,-213.2 171,-213.2 171,-191.2 10,-191.2"/>
<text text-anchor="start" x="30" y="-198.3" font-family="Helvetica,sans-Serif" font-size="11.00" fill="#000000">CREATED_BY_USER_ID</text>
<polygon fill="none" stroke="#000000" points="171,-191.2 171,-213.2 244,-213.2 244,-191.2 171,-191.2"/>
<text text-anchor="start" x="174" y="-198.9" font-family="Helvetica,sans-Serif" font-size="11.00" fill="#000000">number[38]</text>
<polygon fill="none" stroke="#000000" points="10,-169.2 10,-191.2 171,-191.2 171,-169.2 10,-169.2"/>
<text text-anchor="start" x="30" y="-176.3" font-family="Helvetica,sans-Serif" font-size="11.00" fill="#000000">CREATED_DATETIME</text>
<polygon fill="none" stroke="#000000" points="171,-169.2 171,-191.2 244,-191.2 244,-169.2 171,-169.2"/>
<text text-anchor="start" x="174" y="-176.9" font-family="Helvetica,sans-Serif" font-size="11.00" fill="#000000">date[7]</text>
<polygon fill="none" stroke="#000000" points="10,-147.2 10,-169.2 171,-169.2 171,-147.2 10,-147.2"/>
<text text-anchor="start" x="28.0235" y="-154.3" font-family="Helvetica,sans-Serif" font-size="11.00" fill="#000000">LAST_UPDATED_USER_ID</text>
<polygon fill="none" stroke="#000000" points="171,-147.2 171,-169.2 244,-169.2 244,-147.2 171,-147.2"/>
<text text-anchor="start" x="174" y="-154.9" font-family="Helvetica,sans-Serif" font-size="11.00" fill="#000000">number[38]</text>
<polygon fill="none" stroke="#000000" points="10,-125.2 10,-147.2 171,-147.2 171,-125.2 10,-125.2"/>
<text text-anchor="start" x="24.0531" y="-132.3" font-family="Helvetica,sans-Serif" font-size="11.00" fill="#000000">LAST_UPDATED_DATETIME</text>
<polygon fill="none" stroke="#000000" points="171,-125.2 171,-147.2 244,-147.2 244,-125.2 171,-125.2"/>
<text text-anchor="start" x="174" y="-132.9" font-family="Helvetica,sans-Serif" font-size="11.00" fill="#000000">date[7]</text>
<polygon fill="none" stroke="#000000" points="10,-103.2 10,-125.2 171,-125.2 171,-103.2 10,-103.2"/>
<image xlink:href="../../images/primaryKeys.png" width="11px" height="12px" preserveAspectRatio="xMinYMin meet" x="15" y="-120.2"/>
<text text-anchor="start" x="30" y="-110.3" font-family="Helvetica,sans-Serif" font-size="11.00" fill="#000000">TRAINING_SESSION_ID</text>
<polygon fill="none" stroke="#000000" points="171,-103.2 171,-125.2 244,-125.2 244,-103.2 171,-103.2"/>
<text text-anchor="start" x="174" y="-110.9" font-family="Helvetica,sans-Serif" font-size="11.00" fill="#000000">number[38]</text>
<polygon fill="none" stroke="#000000" points="10,-81.2 10,-103.2 171,-103.2 171,-81.2 10,-81.2"/>
<text text-anchor="start" x="30" y="-88.3" font-family="Helvetica,sans-Serif" font-size="11.00" fill="#000000">ENQUIRY</text>
<polygon fill="none" stroke="#000000" points="171,-81.2 171,-103.2 244,-103.2 244,-81.2 171,-81.2"/>
<text text-anchor="start" x="174" y="-88.9" font-family="Helvetica,sans-Serif" font-size="11.00" fill="#000000">number[22]</text>
<polygon fill="none" stroke="#000000" points="10,-59.2 10,-81.2 171,-81.2 171,-59.2 10,-59.2"/>
<text text-anchor="start" x="30" y="-66.3" font-family="Helvetica,sans-Serif" font-size="11.00" fill="#000000">SPG_INTEREST</text>
<polygon fill="none" stroke="#000000" points="171,-59.2 171,-81.2 244,-81.2 244,-59.2 171,-59.2"/>
<text text-anchor="start" x="174" y="-66.9" font-family="Helvetica,sans-Serif" font-size="11.00" fill="#000000">number[38]</text>
<polygon fill="#ffffff" stroke="transparent" points="10,-40.2 10,-59.2 79,-59.2 79,-40.2 10,-40.2"/>
<polygon fill="none" stroke="#000000" points="10,-40.2 10,-59.2 79,-59.2 79,-40.2 10,-40.2"/>
<text text-anchor="start" x="13" y="-46.3" font-family="Helvetica,sans-Serif" font-size="11.00" fill="#000000">&lt; 0</text>
<polygon fill="#ffffff" stroke="transparent" points="79,-40.2 79,-59.2 171,-59.2 171,-40.2 79,-40.2"/>
<polygon fill="none" stroke="#000000" points="79,-40.2 79,-59.2 171,-59.2 171,-40.2 79,-40.2"/>
<text text-anchor="start" x="129.4956" y="-46.3" font-family="Helvetica,sans-Serif" font-size="11.00" fill="#000000">39 rows</text>
<polygon fill="#ffffff" stroke="transparent" points="171,-40.2 171,-59.2 244,-59.2 244,-40.2 171,-40.2"/>
<polygon fill="none" stroke="#000000" points="171,-40.2 171,-59.2 244,-59.2 244,-40.2 171,-40.2"/>
<text text-anchor="start" x="225.4053" y="-46.3" font-family="Helvetica,sans-Serif" font-size="11.00" fill="#000000">3 &gt;</text>
<polygon fill="none" stroke="#000000" stroke-width="2" points="9,-39.2 9,-369.2 245,-369.2 245,-39.2 9,-39.2"/>
</a>
</g>
</g>
<!-- PERSONAL_CIRCUMSTANCE&#45;&gt;R_CIRCUMSTANCE_TYPE -->
<g id="edge1" class="edge">
<title>PERSONAL_CIRCUMSTANCE:w&#45;&gt;R_CIRCUMSTANCE_TYPE:e</title>
<path fill="none" stroke="#000000" d="M305.75,-564.3663C269.7526,-528.0242 293.8701,-334.2 244,-334.2"/>
<polygon fill="#000000" stroke="#000000" points="311.6782,-566.9763 317.5494,-573.4948 315.3391,-568.5882 319,-570.2 319,-570.2 319,-570.2 315.3391,-568.5882 320.4506,-566.9052 311.6782,-566.9763 311.6782,-566.9763"/>
<ellipse fill="none" stroke="#000000" cx="308.7495" cy="-565.6869" rx="3.2" ry="3.2"/>
</g>
<!-- R_CIRCUMSTANCE_TYPE_PROVIDER -->
<g id="node3" class="node">
<title>R_CIRCUMSTANCE_TYPE_PROVIDER</title>
<g id="a_node3"><a xlink:href="../../tables/R_CIRCUMSTANCE_TYPE_PROVIDER.html" xlink:title="R_CIRCUMSTANCE_TYPE_PROVIDER" target="_top">
<polygon fill="#ffffff" stroke="transparent" points="295,-263.7 295,-368.7 539,-368.7 539,-263.7 295,-263.7"/>
<polygon fill="#f5f5f5" stroke="transparent" points="295,-345.2 295,-368.2 539,-368.2 539,-345.2 295,-345.2"/>
<polygon fill="none" stroke="#000000" points="295,-345.2 295,-368.2 539,-368.2 539,-345.2 295,-345.2"/>
<text text-anchor="start" x="299.9754" y="-354.3" font-family="Helvetica,sans-Serif" font-weight="bold" font-size="11.00" fill="#000000">R_CIRCUMSTANCE_TYPE_PROVIDER</text>
<text text-anchor="start" x="504.5219" y="-353.3" font-family="Helvetica,sans-Serif" font-size="11.00" fill="#000000">[table]</text>
<polygon fill="none" stroke="#000000" points="295,-323.2 295,-345.2 539,-345.2 539,-323.2 295,-323.2"/>
<image xlink:href="../../images/primaryKeys.png" width="11px" height="12px" preserveAspectRatio="xMinYMin meet" x="300" y="-340.2"/>
<text text-anchor="start" x="332" y="-330.3" font-family="Helvetica,sans-Serif" font-size="11.00" fill="#000000">CIRCUMSTANCE_TYPE_ID</text>
<polygon fill="none" stroke="#000000" points="295,-301.2 295,-323.2 539,-323.2 539,-301.2 295,-301.2"/>
<image xlink:href="../../images/primaryKeys.png" width="11px" height="12px" preserveAspectRatio="xMinYMin meet" x="300" y="-318.2"/>
<text text-anchor="start" x="332" y="-308.3" font-family="Helvetica,sans-Serif" font-size="11.00" fill="#000000">PROBATION_AREA_ID</text>
<polygon fill="none" stroke="#000000" points="295,-282.2 295,-301.2 539,-301.2 539,-282.2 295,-282.2"/>
<text text-anchor="start" x="298" y="-288.3" font-family="Helvetica,sans-Serif" font-size="11.00" fill="#000000">...</text>
<polygon fill="#ffffff" stroke="transparent" points="295,-263.2 295,-282.2 399,-282.2 399,-263.2 295,-263.2"/>
<polygon fill="none" stroke="#000000" points="295,-263.2 295,-282.2 399,-282.2 399,-263.2 295,-263.2"/>
<text text-anchor="start" x="298" y="-269.3" font-family="Helvetica,sans-Serif" font-size="11.00" fill="#000000">&lt; 2</text>
<polygon fill="#ffffff" stroke="transparent" points="399,-263.2 399,-282.2 485,-282.2 485,-263.2 399,-263.2"/>
<polygon fill="none" stroke="#000000" points="399,-263.2 399,-282.2 485,-282.2 485,-263.2 399,-263.2"/>
<text text-anchor="start" x="443.4956" y="-269.3" font-family="Helvetica,sans-Serif" font-size="11.00" fill="#000000">32 rows</text>
<polygon fill="#ffffff" stroke="transparent" points="485,-263.2 485,-282.2 539,-282.2 539,-263.2 485,-263.2"/>
<polygon fill="none" stroke="#000000" points="485,-263.2 485,-282.2 539,-282.2 539,-263.2 485,-263.2"/>
<text text-anchor="start" x="529.8862" y="-269.3" font-family="Helvetica,sans-Serif" font-size="11.00" fill="#000000"> &#160;</text>
</a>
</g>
</g>
<!-- R_CIRCUMSTANCE_TYPE_PROVIDER&#45;&gt;R_CIRCUMSTANCE_TYPE -->
<g id="edge2" class="edge">
<title>R_CIRCUMSTANCE_TYPE_PROVIDER:w&#45;&gt;R_CIRCUMSTANCE_TYPE:e</title>
<path fill="none" stroke="#000000" d="M280.276,-334.2C268.2815,-334.2 260.8229,-334.2 244,-334.2"/>
<polygon fill="#000000" stroke="#000000" points="287,-334.2001 295,-337.8 291,-334.2 295,-334.2 295,-334.2 295,-334.2 291,-334.2 295,-330.6 287,-334.2001 287,-334.2001"/>
<ellipse fill="none" stroke="#000000" cx="283.8" cy="-334.2001" rx="3.2" ry="3.2"/>
</g>
<!-- R_CIRCUMSTANCE_TYPE_SUBTYPE -->
<g id="node4" class="node">
<title>R_CIRCUMSTANCE_TYPE_SUBTYPE</title>
<g id="a_node4"><a xlink:href="../../tables/R_CIRCUMSTANCE_TYPE_SUBTYPE.html" xlink:title="R_CIRCUMSTANCE_TYPE_SUBTYPE" target="_top">
<polygon fill="#ffffff" stroke="transparent" points="298.5,-115.7 298.5,-242.7 535.5,-242.7 535.5,-115.7 298.5,-115.7"/>
<polygon fill="#f5f5f5" stroke="transparent" points="299,-219.2 299,-242.2 536,-242.2 536,-219.2 299,-219.2"/>
<polygon fill="none" stroke="#000000" points="299,-219.2 299,-242.2 536,-242.2 536,-219.2 299,-219.2"/>
<text text-anchor="start" x="303.5274" y="-228.3" font-family="Helvetica,sans-Serif" font-weight="bold" font-size="11.00" fill="#000000">R_CIRCUMSTANCE_TYPE_SUBTYPE</text>
<text text-anchor="start" x="501.5219" y="-227.3" font-family="Helvetica,sans-Serif" font-size="11.00" fill="#000000">[table]</text>
<polygon fill="none" stroke="#000000" points="299,-197.2 299,-219.2 536,-219.2 536,-197.2 299,-197.2"/>
<image xlink:href="../../images/primaryKeys.png" width="11px" height="12px" preserveAspectRatio="xMinYMin meet" x="304" y="-214.2"/>
<text text-anchor="start" x="335" y="-204.3" font-family="Helvetica,sans-Serif" font-size="11.00" fill="#000000">CIRCUMSTANCE_TYPE_ID</text>
<polygon fill="none" stroke="#000000" points="299,-175.2 299,-197.2 536,-197.2 536,-175.2 299,-175.2"/>
<image xlink:href="../../images/primaryKeys.png" width="11px" height="12px" preserveAspectRatio="xMinYMin meet" x="304" y="-192.2"/>
<text text-anchor="start" x="335" y="-182.3" font-family="Helvetica,sans-Serif" font-size="11.00" fill="#000000">CIRCUMSTANCE_SUB_TYPE_ID</text>
<polygon fill="none" stroke="#000000" points="299,-153.2 299,-175.2 536,-175.2 536,-153.2 299,-153.2"/>
<image xlink:href="../../images/primaryKeys.png" width="11px" height="12px" preserveAspectRatio="xMinYMin meet" x="304" y="-170.2"/>
<text text-anchor="start" x="335" y="-160.3" font-family="Helvetica,sans-Serif" font-size="11.00" fill="#000000">TRAINING_SESSION_ID</text>
<polygon fill="none" stroke="#000000" points="299,-134.2 299,-153.2 536,-153.2 536,-134.2 299,-134.2"/>
<text text-anchor="start" x="302" y="-140.3" font-family="Helvetica,sans-Serif" font-size="11.00" fill="#000000">...</text>
<polygon fill="#ffffff" stroke="transparent" points="299,-115.2 299,-134.2 397,-134.2 397,-115.2 299,-115.2"/>
<polygon fill="none" stroke="#000000" points="299,-115.2 299,-134.2 397,-134.2 397,-115.2 299,-115.2"/>
<text text-anchor="start" x="302" y="-121.3" font-family="Helvetica,sans-Serif" font-size="11.00" fill="#000000">&lt; 2</text>
<polygon fill="#ffffff" stroke="transparent" points="397,-115.2 397,-134.2 485,-134.2 485,-115.2 397,-115.2"/>
<polygon fill="none" stroke="#000000" points="397,-115.2 397,-134.2 485,-134.2 485,-115.2 397,-115.2"/>
<text text-anchor="start" x="437.3807" y="-121.3" font-family="Helvetica,sans-Serif" font-size="11.00" fill="#000000">142 rows</text>
<polygon fill="#ffffff" stroke="transparent" points="485,-115.2 485,-134.2 536,-134.2 536,-115.2 485,-115.2"/>
<polygon fill="none" stroke="#000000" points="485,-115.2 485,-134.2 536,-134.2 536,-115.2 485,-115.2"/>
<text text-anchor="start" x="526.8862" y="-121.3" font-family="Helvetica,sans-Serif" font-size="11.00" fill="#000000"> &#160;</text>
</a>
</g>
</g>
<!-- R_CIRCUMSTANCE_TYPE_SUBTYPE&#45;&gt;R_CIRCUMSTANCE_TYPE -->
<g id="edge3" class="edge">
<title>R_CIRCUMSTANCE_TYPE_SUBTYPE:w&#45;&gt;R_CIRCUMSTANCE_TYPE:e</title>
<path fill="none" stroke="#000000" d="M284.5308,-211.5702C249.7998,-231.6077 299.1356,-334.2 244,-334.2"/>
<polygon fill="#000000" stroke="#000000" points="291.2086,-210.0148 299.8167,-211.7061 295.1043,-209.1074 299,-208.2 299,-208.2 299,-208.2 295.1043,-209.1074 298.1833,-204.6939 291.2086,-210.0148 291.2086,-210.0148"/>
<ellipse fill="none" stroke="#000000" cx="288.092" cy="-210.7408" rx="3.2" ry="3.2"/>
</g>
</g>
</svg>
