<?xml version="1.0" encoding="UTF-8" standalone="no"?>
<!DOCTYPE svg PUBLIC "-//W3C//DTD SVG 1.1//EN"
 "http://www.w3.org/Graphics/SVG/1.1/DTD/svg11.dtd">
<!-- Generated by graphviz version 2.40.1 (20161225.0304)
 -->
<!-- Title: oneDegreeRelationshipsDiagram Pages: 1 -->
<svg width="553pt" height="391pt"
 viewBox="0.00 0.00 553.00 391.20" xmlns="http://www.w3.org/2000/svg" xmlns:xlink="http://www.w3.org/1999/xlink">
<g id="graph0" class="graph" transform="scale(1 1) rotate(0) translate(4 387.2)">
<title>oneDegreeRelationshipsDiagram</title>
<polygon fill="#ffffff" stroke="transparent" points="-4,4 -4,-387.2 549,-387.2 549,4 -4,4"/>
<text text-anchor="middle" x="72.4936" y="-7.3" font-family="Helvetica,sans-Serif" font-size="11.00" fill="#000000">Generated by SchemaSpy</text>
<!-- R_CIRCUMSTANCE_TYPE_SUBTYPE -->
<g id="node1" class="node">
<title>R_CIRCUMSTANCE_TYPE_SUBTYPE</title>
<g id="a_node1"><a xlink:href="../../tables/R_CIRCUMSTANCE_TYPE_SUBTYPE.html" xlink:title="R_CIRCUMSTANCE_TYPE_SUBTYPE" target="_top">
<polygon fill="#ffffff" stroke="transparent" points="266,-183.7 266,-317.7 537,-317.7 537,-183.7 266,-183.7"/>
<polygon fill="#f5f5f5" stroke="transparent" points="268.5,-292.7 268.5,-315.7 535.5,-315.7 535.5,-292.7 268.5,-292.7"/>
<polygon fill="none" stroke="#000000" points="268.5,-292.7 268.5,-315.7 535.5,-315.7 535.5,-292.7 268.5,-292.7"/>
<text text-anchor="start" x="273.5" y="-301.8" font-family="Helvetica,sans-Serif" font-weight="bold" font-size="11.00" fill="#000000">R_CIRCUMSTANCE_TYPE_SUBTYPE</text>
<text text-anchor="start" x="500.5437" y="-300.8" font-family="Helvetica,sans-Serif" font-size="11.00" fill="#000000">[table]</text>
<polygon fill="none" stroke="#000000" points="268.5,-270.7 268.5,-292.7 474.5,-292.7 474.5,-270.7 268.5,-270.7"/>
<image xlink:href="../../images/primaryKeys.png" width="11px" height="12px" preserveAspectRatio="xMinYMin meet" x="273.5" y="-287.7"/>
<text text-anchor="start" x="288.5" y="-277.8" font-family="Helvetica,sans-Serif" font-size="11.00" fill="#000000">CIRCUMSTANCE_TYPE_ID</text>
<polygon fill="none" stroke="#000000" points="474.5,-270.7 474.5,-292.7 535.5,-292.7 535.5,-270.7 474.5,-270.7"/>
<text text-anchor="start" x="477.1865" y="-278.4" font-family="Helvetica,sans-Serif" font-size="11.00" fill="#000000">number[38]</text>
<polygon fill="none" stroke="#000000" points="268.5,-248.7 268.5,-270.7 474.5,-270.7 474.5,-248.7 268.5,-248.7"/>
<image xlink:href="../../images/primaryKeys.png" width="11px" height="12px" preserveAspectRatio="xMinYMin meet" x="273.5" y="-265.7"/>
<text text-anchor="start" x="288.5" y="-255.8" font-family="Helvetica,sans-Serif" font-size="11.00" fill="#000000">CIRCUMSTANCE_SUB_TYPE_ID</text>
<polygon fill="none" stroke="#000000" points="474.5,-248.7 474.5,-270.7 535.5,-270.7 535.5,-248.7 474.5,-248.7"/>
<text text-anchor="start" x="477.1865" y="-256.4" font-family="Helvetica,sans-Serif" font-size="11.00" fill="#000000">number[38]</text>
<polygon fill="none" stroke="#000000" points="268.5,-226.7 268.5,-248.7 474.5,-248.7 474.5,-226.7 268.5,-226.7"/>
<text text-anchor="start" x="288.5" y="-233.8" font-family="Helvetica,sans-Serif" font-size="11.00" fill="#000000">ROW_VERSION</text>
<polygon fill="none" stroke="#000000" points="474.5,-226.7 474.5,-248.7 535.5,-248.7 535.5,-226.7 474.5,-226.7"/>
<text text-anchor="start" x="477.1865" y="-234.4" font-family="Helvetica,sans-Serif" font-size="11.00" fill="#000000">number[38]</text>
<polygon fill="none" stroke="#000000" points="268.5,-204.7 268.5,-226.7 474.5,-226.7 474.5,-204.7 268.5,-204.7"/>
<image xlink:href="../../images/primaryKeys.png" width="11px" height="12px" preserveAspectRatio="xMinYMin meet" x="273.5" y="-221.7"/>
<text text-anchor="start" x="288.5" y="-211.8" font-family="Helvetica,sans-Serif" font-size="11.00" fill="#000000">TRAINING_SESSION_ID</text>
<polygon fill="none" stroke="#000000" points="474.5,-204.7 474.5,-226.7 535.5,-226.7 535.5,-204.7 474.5,-204.7"/>
<text text-anchor="start" x="477.1865" y="-212.4" font-family="Helvetica,sans-Serif" font-size="11.00" fill="#000000">number[38]</text>
<polygon fill="#ffffff" stroke="transparent" points="268.5,-185.7 268.5,-204.7 356.5,-204.7 356.5,-185.7 268.5,-185.7"/>
<polygon fill="none" stroke="#000000" points="268.5,-185.7 268.5,-204.7 356.5,-204.7 356.5,-185.7 268.5,-185.7"/>
<text text-anchor="start" x="271.5" y="-191.8" font-family="Helvetica,sans-Serif" font-size="11.00" fill="#000000">&lt; 2</text>
<polygon fill="#ffffff" stroke="transparent" points="356.5,-185.7 356.5,-204.7 474.5,-204.7 474.5,-185.7 356.5,-185.7"/>
<polygon fill="none" stroke="#000000" points="356.5,-185.7 356.5,-204.7 474.5,-204.7 474.5,-185.7 356.5,-185.7"/>
<text text-anchor="start" x="426.8807" y="-191.8" font-family="Helvetica,sans-Serif" font-size="11.00" fill="#000000">142 rows</text>
<polygon fill="#ffffff" stroke="transparent" points="474.5,-185.7 474.5,-204.7 535.5,-204.7 535.5,-185.7 474.5,-185.7"/>
<polygon fill="none" stroke="#000000" points="474.5,-185.7 474.5,-204.7 535.5,-204.7 535.5,-185.7 474.5,-185.7"/>
<text text-anchor="start" x="516.9053" y="-191.8" font-family="Helvetica,sans-Serif" font-size="11.00" fill="#000000">0 &gt;</text>
<polygon fill="none" stroke="#000000" stroke-width="2" points="267,-184.7 267,-316.7 536,-316.7 536,-184.7 267,-184.7"/>
</a>
</g>
</g>
<!-- R_CIRCUMSTANCE_SUB_TYPE -->
<g id="node2" class="node">
<title>R_CIRCUMSTANCE_SUB_TYPE</title>
<g id="a_node2"><a xlink:href="../../tables/R_CIRCUMSTANCE_SUB_TYPE.html" xlink:title="R_CIRCUMSTANCE_SUB_TYPE" target="_top">
<polygon fill="#ffffff" stroke="transparent" points="8,-38.2 8,-231.2 217,-231.2 217,-38.2 8,-38.2"/>
<polygon fill="#f5f5f5" stroke="transparent" points="8.5,-207.7 8.5,-230.7 217.5,-230.7 217.5,-207.7 8.5,-207.7"/>
<polygon fill="none" stroke="#000000" points="8.5,-207.7 8.5,-230.7 217.5,-230.7 217.5,-207.7 8.5,-207.7"/>
<text text-anchor="start" x="13.3911" y="-216.8" font-family="Helvetica,sans-Serif" font-weight="bold" font-size="11.00" fill="#000000">R_CIRCUMSTANCE_SUB_TYPE</text>
<text text-anchor="start" x="183.0219" y="-215.8" font-family="Helvetica,sans-Serif" font-size="11.00" fill="#000000">[table]</text>
<polygon fill="none" stroke="#000000" points="8.5,-185.7 8.5,-207.7 217.5,-207.7 217.5,-185.7 8.5,-185.7"/>
<image xlink:href="../../images/primaryKeys.png" width="11px" height="12px" preserveAspectRatio="xMinYMin meet" x="13.5" y="-202.7"/>
<text text-anchor="start" x="35.8627" y="-192.8" font-family="Helvetica,sans-Serif" font-size="11.00" fill="#000000">CIRCUMSTANCE_SUB_TYPE_ID</text>
<polygon fill="none" stroke="#000000" points="8.5,-163.7 8.5,-185.7 217.5,-185.7 217.5,-163.7 8.5,-163.7"/>
<image xlink:href="../../images/primaryKeys.png" width="11px" height="12px" preserveAspectRatio="xMinYMin meet" x="13.5" y="-180.7"/>
<text text-anchor="start" x="41.5" y="-170.8" font-family="Helvetica,sans-Serif" font-size="11.00" fill="#000000">CODE_VALUE</text>
<polygon fill="none" stroke="#000000" points="8.5,-141.7 8.5,-163.7 217.5,-163.7 217.5,-141.7 8.5,-141.7"/>
<image xlink:href="../../images/primaryKeys.png" width="11px" height="12px" preserveAspectRatio="xMinYMin meet" x="13.5" y="-158.7"/>
<text text-anchor="start" x="41.5" y="-148.8" font-family="Helvetica,sans-Serif" font-size="11.00" fill="#000000">TRAINING_SESSION_ID</text>
<polygon fill="none" stroke="#000000" points="8.5,-119.7 8.5,-141.7 217.5,-141.7 217.5,-119.7 8.5,-119.7"/>
<image xlink:href="../../images/primaryKeys.png" width="11px" height="12px" preserveAspectRatio="xMinYMin meet" x="13.5" y="-136.7"/>
<text text-anchor="start" x="41.5" y="-126.8" font-family="Helvetica,sans-Serif" font-size="11.00" fill="#000000">QUALIFICATION_1_ID</text>
<polygon fill="none" stroke="#000000" points="8.5,-97.7 8.5,-119.7 217.5,-119.7 217.5,-97.7 8.5,-97.7"/>
<image xlink:href="../../images/primaryKeys.png" width="11px" height="12px" preserveAspectRatio="xMinYMin meet" x="13.5" y="-114.7"/>
<text text-anchor="start" x="41.5" y="-104.8" font-family="Helvetica,sans-Serif" font-size="11.00" fill="#000000">QUALIFICATION_2_ID</text>
<polygon fill="none" stroke="#000000" points="8.5,-75.7 8.5,-97.7 217.5,-97.7 217.5,-75.7 8.5,-75.7"/>
<image xlink:href="../../images/primaryKeys.png" width="11px" height="12px" preserveAspectRatio="xMinYMin meet" x="13.5" y="-92.7"/>
<text text-anchor="start" x="41.5" y="-82.8" font-family="Helvetica,sans-Serif" font-size="11.00" fill="#000000">QUALIFICATION_3_ID</text>
<polygon fill="none" stroke="#000000" points="8.5,-56.7 8.5,-75.7 217.5,-75.7 217.5,-56.7 8.5,-56.7"/>
<text text-anchor="start" x="11.5" y="-62.8" font-family="Helvetica,sans-Serif" font-size="11.00" fill="#000000">...</text>
<polygon fill="#ffffff" stroke="transparent" points="8.5,-37.7 8.5,-56.7 87.5,-56.7 87.5,-37.7 8.5,-37.7"/>
<polygon fill="none" stroke="#000000" points="8.5,-37.7 8.5,-56.7 87.5,-56.7 87.5,-37.7 8.5,-37.7"/>
<text text-anchor="start" x="11.5" y="-43.8" font-family="Helvetica,sans-Serif" font-size="11.00" fill="#000000">&lt; 3</text>
<polygon fill="#ffffff" stroke="transparent" points="87.5,-37.7 87.5,-56.7 166.5,-56.7 166.5,-37.7 87.5,-37.7"/>
<polygon fill="none" stroke="#000000" points="87.5,-37.7 87.5,-56.7 166.5,-56.7 166.5,-37.7 87.5,-37.7"/>
<text text-anchor="start" x="118.8807" y="-43.8" font-family="Helvetica,sans-Serif" font-size="11.00" fill="#000000">237 rows</text>
<polygon fill="#ffffff" stroke="transparent" points="166.5,-37.7 166.5,-56.7 217.5,-56.7 217.5,-37.7 166.5,-37.7"/>
<polygon fill="none" stroke="#000000" points="166.5,-37.7 166.5,-56.7 217.5,-56.7 217.5,-37.7 166.5,-37.7"/>
<text text-anchor="start" x="198.9053" y="-43.8" font-family="Helvetica,sans-Serif" font-size="11.00" fill="#000000">2 &gt;</text>
</a>
</g>
</g>
<!-- R_CIRCUMSTANCE_TYPE_SUBTYPE&#45;&gt;R_CIRCUMSTANCE_SUB_TYPE -->
<g id="edge1" class="edge">
<title>R_CIRCUMSTANCE_TYPE_SUBTYPE:w&#45;&gt;R_CIRCUMSTANCE_SUB_TYPE:e</title>
<path fill="none" stroke="#000000" d="M254.4033,-254.7565C238.025,-239.9048 247.3329,-196.7 217.5,-196.7"/>
<polygon fill="#000000" stroke="#000000" points="260.9507,-257.0526 267.3087,-263.0972 264.7254,-258.3763 268.5,-259.7 268.5,-259.7 268.5,-259.7 264.7254,-258.3763 269.6913,-256.3028 260.9507,-257.0526 260.9507,-257.0526"/>
<ellipse fill="none" stroke="#000000" cx="257.931" cy="-255.9936" rx="3.2" ry="3.2"/>
</g>
<!-- R_CIRCUMSTANCE_TYPE -->
<g id="node3" class="node">
<title>R_CIRCUMSTANCE_TYPE</title>
<g id="a_node3"><a xlink:href="../../tables/R_CIRCUMSTANCE_TYPE.html" xlink:title="R_CIRCUMSTANCE_TYPE" target="_top">
<polygon fill="#ffffff" stroke="transparent" points="22.5,-252.2 22.5,-379.2 202.5,-379.2 202.5,-252.2 22.5,-252.2"/>
<polygon fill="#f5f5f5" stroke="transparent" points="22.5,-355.7 22.5,-378.7 202.5,-378.7 202.5,-355.7 22.5,-355.7"/>
<polygon fill="none" stroke="#000000" points="22.5,-355.7 22.5,-378.7 202.5,-378.7 202.5,-355.7 22.5,-355.7"/>
<text text-anchor="start" x="27.2549" y="-364.8" font-family="Helvetica,sans-Serif" font-weight="bold" font-size="11.00" fill="#000000">R_CIRCUMSTANCE_TYPE</text>
<text text-anchor="start" x="168.0219" y="-363.8" font-family="Helvetica,sans-Serif" font-size="11.00" fill="#000000">[table]</text>
<polygon fill="none" stroke="#000000" points="22.5,-333.7 22.5,-355.7 202.5,-355.7 202.5,-333.7 22.5,-333.7"/>
<image xlink:href="../../images/primaryKeys.png" width="11px" height="12px" preserveAspectRatio="xMinYMin meet" x="27.5" y="-350.7"/>
<text text-anchor="start" x="50.2265" y="-340.8" font-family="Helvetica,sans-Serif" font-size="11.00" fill="#000000">CIRCUMSTANCE_TYPE_ID</text>
<polygon fill="none" stroke="#000000" points="22.5,-311.7 22.5,-333.7 202.5,-333.7 202.5,-311.7 22.5,-311.7"/>
<image xlink:href="../../images/primaryKeys.png" width="11px" height="12px" preserveAspectRatio="xMinYMin meet" x="27.5" y="-328.7"/>
<text text-anchor="start" x="52.5" y="-318.8" font-family="Helvetica,sans-Serif" font-size="11.00" fill="#000000">CODE_VALUE</text>
<polygon fill="none" stroke="#000000" points="22.5,-289.7 22.5,-311.7 202.5,-311.7 202.5,-289.7 22.5,-289.7"/>
<image xlink:href="../../images/primaryKeys.png" width="11px" height="12px" preserveAspectRatio="xMinYMin meet" x="27.5" y="-306.7"/>
<text text-anchor="start" x="52.5" y="-296.8" font-family="Helvetica,sans-Serif" font-size="11.00" fill="#000000">TRAINING_SESSION_ID</text>
<polygon fill="none" stroke="#000000" points="22.5,-270.7 22.5,-289.7 202.5,-289.7 202.5,-270.7 22.5,-270.7"/>
<text text-anchor="start" x="25.5" y="-276.8" font-family="Helvetica,sans-Serif" font-size="11.00" fill="#000000">...</text>
<polygon fill="#ffffff" stroke="transparent" points="22.5,-251.7 22.5,-270.7 85.5,-270.7 85.5,-251.7 22.5,-251.7"/>
<polygon fill="none" stroke="#000000" points="22.5,-251.7 22.5,-270.7 85.5,-270.7 85.5,-251.7 22.5,-251.7"/>
<text text-anchor="start" x="25.5" y="-257.8" font-family="Helvetica,sans-Serif" font-size="11.00" fill="#000000"> &#160;</text>
<polygon fill="#ffffff" stroke="transparent" points="85.5,-251.7 85.5,-270.7 155.5,-270.7 155.5,-251.7 85.5,-251.7"/>
<polygon fill="none" stroke="#000000" points="85.5,-251.7 85.5,-270.7 155.5,-270.7 155.5,-251.7 85.5,-251.7"/>
<text text-anchor="start" x="113.9956" y="-257.8" font-family="Helvetica,sans-Serif" font-size="11.00" fill="#000000">39 rows</text>
<polygon fill="#ffffff" stroke="transparent" points="155.5,-251.7 155.5,-270.7 202.5,-270.7 202.5,-251.7 155.5,-251.7"/>
<polygon fill="none" stroke="#000000" points="155.5,-251.7 155.5,-270.7 202.5,-270.7 202.5,-251.7 155.5,-251.7"/>
<text text-anchor="start" x="183.9053" y="-257.8" font-family="Helvetica,sans-Serif" font-size="11.00" fill="#000000">3 &gt;</text>
</a>
</g>
</g>
<!-- R_CIRCUMSTANCE_TYPE_SUBTYPE&#45;&gt;R_CIRCUMSTANCE_TYPE -->
<g id="edge2" class="edge">
<title>R_CIRCUMSTANCE_TYPE_SUBTYPE:w&#45;&gt;R_CIRCUMSTANCE_TYPE:e</title>
<path fill="none" stroke="#000000" d="M254.3845,-285.0872C231.0955,-298.1729 237.3492,-344.7 202.5,-344.7"/>
<polygon fill="#000000" stroke="#000000" points="260.7208,-283.5667 269.34,-285.2006 264.6104,-282.6334 268.5,-281.7 268.5,-281.7 268.5,-281.7 264.6104,-282.6334 267.66,-278.1994 260.7208,-283.5667 260.7208,-283.5667"/>
<ellipse fill="none" stroke="#000000" cx="257.6092" cy="-284.3134" rx="3.2" ry="3.2"/>
</g>
</g>
</svg>
