<?xml version="1.0" encoding="UTF-8" standalone="no"?>
<!DOCTYPE svg PUBLIC "-//W3C//DTD SVG 1.1//EN"
 "http://www.w3.org/Graphics/SVG/1.1/DTD/svg11.dtd">
<!-- Generated by graphviz version 2.40.1 (20161225.0304)
 -->
<!-- Title: oneDegreeRelationshipsDiagram Pages: 1 -->
<svg width="429pt" height="523pt"
 viewBox="0.00 0.00 429.00 523.20" xmlns="http://www.w3.org/2000/svg" xmlns:xlink="http://www.w3.org/1999/xlink">
<g id="graph0" class="graph" transform="scale(1 1) rotate(0) translate(4 519.2)">
<title>oneDegreeRelationshipsDiagram</title>
<polygon fill="#ffffff" stroke="transparent" points="-4,4 -4,-519.2 425,-519.2 425,4 -4,4"/>
<text text-anchor="middle" x="72.4936" y="-7.3" font-family="Helvetica,sans-Serif" font-size="11.00" fill="#000000">Generated by SchemaSpy</text>
<!-- R_COURT_TEAM -->
<g id="node1" class="node">
<title>R_COURT_TEAM</title>
<g id="a_node1"><a xlink:href="../../tables/R_COURT_TEAM.html" xlink:title="R_COURT_TEAM" target="_top">
<polygon fill="#ffffff" stroke="transparent" points="242,-282.7 242,-394.7 413,-394.7 413,-282.7 242,-282.7"/>
<polygon fill="#f5f5f5" stroke="transparent" points="244.5,-369.7 244.5,-392.7 411.5,-392.7 411.5,-369.7 244.5,-369.7"/>
<polygon fill="none" stroke="#000000" points="244.5,-369.7 244.5,-392.7 411.5,-392.7 411.5,-369.7 244.5,-369.7"/>
<text text-anchor="start" x="249.5" y="-378.8" font-family="Helvetica,sans-Serif" font-weight="bold" font-size="11.00" fill="#000000">R_COURT_TEAM</text>
<text text-anchor="start" x="376.5437" y="-377.8" font-family="Helvetica,sans-Serif" font-size="11.00" fill="#000000">[table]</text>
<polygon fill="none" stroke="#000000" points="244.5,-347.7 244.5,-369.7 350.5,-369.7 350.5,-347.7 244.5,-347.7"/>
<image xlink:href="../../images/primaryKeys.png" width="11px" height="12px" preserveAspectRatio="xMinYMin meet" x="249.5" y="-364.7"/>
<text text-anchor="start" x="264.5" y="-354.8" font-family="Helvetica,sans-Serif" font-size="11.00" fill="#000000">COURT_ID</text>
<polygon fill="none" stroke="#000000" points="350.5,-347.7 350.5,-369.7 411.5,-369.7 411.5,-347.7 350.5,-347.7"/>
<text text-anchor="start" x="353.1865" y="-355.4" font-family="Helvetica,sans-Serif" font-size="11.00" fill="#000000">number[38]</text>
<polygon fill="none" stroke="#000000" points="244.5,-325.7 244.5,-347.7 350.5,-347.7 350.5,-325.7 244.5,-325.7"/>
<image xlink:href="../../images/primaryKeys.png" width="11px" height="12px" preserveAspectRatio="xMinYMin meet" x="249.5" y="-342.7"/>
<text text-anchor="start" x="264.5" y="-332.8" font-family="Helvetica,sans-Serif" font-size="11.00" fill="#000000">TEAM_ID</text>
<polygon fill="none" stroke="#000000" points="350.5,-325.7 350.5,-347.7 411.5,-347.7 411.5,-325.7 350.5,-325.7"/>
<text text-anchor="start" x="353.1865" y="-333.4" font-family="Helvetica,sans-Serif" font-size="11.00" fill="#000000">number[38]</text>
<polygon fill="none" stroke="#000000" points="244.5,-303.7 244.5,-325.7 350.5,-325.7 350.5,-303.7 244.5,-303.7"/>
<text text-anchor="start" x="263.7506" y="-310.8" font-family="Helvetica,sans-Serif" font-size="11.00" fill="#000000">ROW_VERSION</text>
<polygon fill="none" stroke="#000000" points="350.5,-303.7 350.5,-325.7 411.5,-325.7 411.5,-303.7 350.5,-303.7"/>
<text text-anchor="start" x="353.1865" y="-311.4" font-family="Helvetica,sans-Serif" font-size="11.00" fill="#000000">number[38]</text>
<polygon fill="#ffffff" stroke="transparent" points="244.5,-284.7 244.5,-303.7 288.5,-303.7 288.5,-284.7 244.5,-284.7"/>
<polygon fill="none" stroke="#000000" points="244.5,-284.7 244.5,-303.7 288.5,-303.7 288.5,-284.7 244.5,-284.7"/>
<text text-anchor="start" x="247.5" y="-290.8" font-family="Helvetica,sans-Serif" font-size="11.00" fill="#000000">&lt; 2</text>
<polygon fill="#ffffff" stroke="transparent" points="288.5,-284.7 288.5,-303.7 350.5,-303.7 350.5,-284.7 288.5,-284.7"/>
<polygon fill="none" stroke="#000000" points="288.5,-284.7 288.5,-303.7 350.5,-303.7 350.5,-284.7 288.5,-284.7"/>
<text text-anchor="start" x="315.1105" y="-290.8" font-family="Helvetica,sans-Serif" font-size="11.00" fill="#000000">0 rows</text>
<polygon fill="#ffffff" stroke="transparent" points="350.5,-284.7 350.5,-303.7 411.5,-303.7 411.5,-284.7 350.5,-284.7"/>
<polygon fill="none" stroke="#000000" points="350.5,-284.7 350.5,-303.7 411.5,-303.7 411.5,-284.7 350.5,-284.7"/>
<text text-anchor="start" x="392.9053" y="-290.8" font-family="Helvetica,sans-Serif" font-size="11.00" fill="#000000">0 &gt;</text>
<polygon fill="none" stroke="#000000" stroke-width="2" points="243,-283.7 243,-393.7 412,-393.7 412,-283.7 243,-283.7"/>
</a>
</g>
</g>
<!-- COURT -->
<g id="node2" class="node">
<title>COURT</title>
<g id="a_node2"><a xlink:href="../../tables/COURT.html" xlink:title="COURT" target="_top">
<polygon fill="#ffffff" stroke="transparent" points="20,-274.2 20,-511.2 181,-511.2 181,-274.2 20,-274.2"/>
<polygon fill="#f5f5f5" stroke="transparent" points="20.5,-487.7 20.5,-510.7 181.5,-510.7 181.5,-487.7 20.5,-487.7"/>
<polygon fill="none" stroke="#000000" points="20.5,-487.7 20.5,-510.7 181.5,-510.7 181.5,-487.7 20.5,-487.7"/>
<text text-anchor="start" x="25.5" y="-496.8" font-family="Helvetica,sans-Serif" font-weight="bold" font-size="11.00" fill="#000000">COURT</text>
<text text-anchor="start" x="146.5437" y="-495.8" font-family="Helvetica,sans-Serif" font-size="11.00" fill="#000000">[table]</text>
<polygon fill="none" stroke="#000000" points="20.5,-465.7 20.5,-487.7 181.5,-487.7 181.5,-465.7 20.5,-465.7"/>
<image xlink:href="../../images/primaryKeys.png" width="11px" height="12px" preserveAspectRatio="xMinYMin meet" x="25.5" y="-482.7"/>
<text text-anchor="start" x="40.5" y="-472.8" font-family="Helvetica,sans-Serif" font-size="11.00" fill="#000000">COURT_ID</text>
<polygon fill="none" stroke="#000000" points="20.5,-443.7 20.5,-465.7 181.5,-465.7 181.5,-443.7 20.5,-443.7"/>
<image xlink:href="../../images/primaryKeys.png" width="11px" height="12px" preserveAspectRatio="xMinYMin meet" x="25.5" y="-460.7"/>
<text text-anchor="start" x="40.5" y="-450.8" font-family="Helvetica,sans-Serif" font-size="11.00" fill="#000000">CODE</text>
<polygon fill="none" stroke="#000000" points="20.5,-421.7 20.5,-443.7 181.5,-443.7 181.5,-421.7 20.5,-421.7"/>
<image xlink:href="../../images/primaryKeys.png" width="11px" height="12px" preserveAspectRatio="xMinYMin meet" x="25.5" y="-438.7"/>
<text text-anchor="start" x="40.5" y="-428.8" font-family="Helvetica,sans-Serif" font-size="11.00" fill="#000000">COURT_TYPE_ID</text>
<polygon fill="none" stroke="#000000" points="20.5,-399.7 20.5,-421.7 181.5,-421.7 181.5,-399.7 20.5,-399.7"/>
<image xlink:href="../../images/primaryKeys.png" width="11px" height="12px" preserveAspectRatio="xMinYMin meet" x="25.5" y="-416.7"/>
<text text-anchor="start" x="40.5" y="-406.8" font-family="Helvetica,sans-Serif" font-size="11.00" fill="#000000">TRAINING_SESSION_ID</text>
<polygon fill="none" stroke="#000000" points="20.5,-377.7 20.5,-399.7 181.5,-399.7 181.5,-377.7 20.5,-377.7"/>
<image xlink:href="../../images/primaryKeys.png" width="11px" height="12px" preserveAspectRatio="xMinYMin meet" x="25.5" y="-394.7"/>
<text text-anchor="start" x="40.5" y="-384.8" font-family="Helvetica,sans-Serif" font-size="11.00" fill="#000000">PROBATION_AREA_ID</text>
<polygon fill="none" stroke="#000000" points="20.5,-355.7 20.5,-377.7 181.5,-377.7 181.5,-355.7 20.5,-355.7"/>
<image xlink:href="../../images/primaryKeys.png" width="11px" height="12px" preserveAspectRatio="xMinYMin meet" x="25.5" y="-372.7"/>
<text text-anchor="start" x="40.5" y="-362.8" font-family="Helvetica,sans-Serif" font-size="11.00" fill="#000000">BOROUGH_ID</text>
<polygon fill="none" stroke="#000000" points="20.5,-333.7 20.5,-355.7 181.5,-355.7 181.5,-333.7 20.5,-333.7"/>
<image xlink:href="../../images/primaryKeys.png" width="11px" height="12px" preserveAspectRatio="xMinYMin meet" x="25.5" y="-350.7"/>
<text text-anchor="start" x="40.5" y="-340.8" font-family="Helvetica,sans-Serif" font-size="11.00" fill="#000000">DISTRICT_ID</text>
<polygon fill="none" stroke="#000000" points="20.5,-311.7 20.5,-333.7 181.5,-333.7 181.5,-311.7 20.5,-311.7"/>
<image xlink:href="../../images/primaryKeys.png" width="11px" height="12px" preserveAspectRatio="xMinYMin meet" x="25.5" y="-328.7"/>
<text text-anchor="start" x="37.9075" y="-318.8" font-family="Helvetica,sans-Serif" font-size="11.00" fill="#000000">LOCAL_JUSTICE_AREA_ID</text>
<polygon fill="none" stroke="#000000" points="20.5,-292.7 20.5,-311.7 181.5,-311.7 181.5,-292.7 20.5,-292.7"/>
<text text-anchor="start" x="23.5" y="-298.8" font-family="Helvetica,sans-Serif" font-size="11.00" fill="#000000">...</text>
<polygon fill="#ffffff" stroke="transparent" points="20.5,-273.7 20.5,-292.7 71.5,-292.7 71.5,-273.7 20.5,-273.7"/>
<polygon fill="none" stroke="#000000" points="20.5,-273.7 20.5,-292.7 71.5,-292.7 71.5,-273.7 20.5,-273.7"/>
<text text-anchor="start" x="23.5" y="-279.8" font-family="Helvetica,sans-Serif" font-size="11.00" fill="#000000">&lt; 5</text>
<polygon fill="#ffffff" stroke="transparent" points="71.5,-273.7 71.5,-292.7 145.5,-292.7 145.5,-273.7 71.5,-273.7"/>
<polygon fill="none" stroke="#000000" points="71.5,-273.7 71.5,-292.7 145.5,-292.7 145.5,-273.7 71.5,-273.7"/>
<text text-anchor="start" x="88.7089" y="-279.8" font-family="Helvetica,sans-Serif" font-size="11.00" fill="#000000">3,213 rows</text>
<polygon fill="#ffffff" stroke="transparent" points="145.5,-273.7 145.5,-292.7 181.5,-292.7 181.5,-273.7 145.5,-273.7"/>
<polygon fill="none" stroke="#000000" points="145.5,-273.7 145.5,-292.7 181.5,-292.7 181.5,-273.7 145.5,-273.7"/>
<text text-anchor="start" x="162.9053" y="-279.8" font-family="Helvetica,sans-Serif" font-size="11.00" fill="#000000">5 &gt;</text>
</a>
</g>
</g>
<!-- R_COURT_TEAM&#45;&gt;COURT -->
<g id="edge1" class="edge">
<title>R_COURT_TEAM:w&#45;&gt;COURT:e</title>
<path fill="none" stroke="#000000" d="M230.1681,-361.8562C194.8673,-380.6215 235.1452,-476.7 181.5,-476.7"/>
<polygon fill="#000000" stroke="#000000" points="236.6872,-360.4206 245.2743,-362.2158 240.5936,-359.5603 244.5,-358.7 244.5,-358.7 244.5,-358.7 240.5936,-359.5603 243.7257,-355.1842 236.6872,-360.4206 236.6872,-360.4206"/>
<ellipse fill="none" stroke="#000000" cx="233.5621" cy="-361.1088" rx="3.2" ry="3.2"/>
</g>
<!-- TEAM -->
<g id="node3" class="node">
<title>TEAM</title>
<g id="a_node3"><a xlink:href="../../tables/TEAM.html" xlink:title="TEAM" target="_top">
<polygon fill="#ffffff" stroke="transparent" points="8,-38.2 8,-253.2 193,-253.2 193,-38.2 8,-38.2"/>
<polygon fill="#f5f5f5" stroke="transparent" points="8.5,-229.7 8.5,-252.7 193.5,-252.7 193.5,-229.7 8.5,-229.7"/>
<polygon fill="none" stroke="#000000" points="8.5,-229.7 8.5,-252.7 193.5,-252.7 193.5,-229.7 8.5,-229.7"/>
<text text-anchor="start" x="13.5" y="-238.8" font-family="Helvetica,sans-Serif" font-weight="bold" font-size="11.00" fill="#000000">TEAM</text>
<text text-anchor="start" x="158.5437" y="-237.8" font-family="Helvetica,sans-Serif" font-size="11.00" fill="#000000">[table]</text>
<polygon fill="none" stroke="#000000" points="8.5,-207.7 8.5,-229.7 193.5,-229.7 193.5,-207.7 8.5,-207.7"/>
<image xlink:href="../../images/primaryKeys.png" width="11px" height="12px" preserveAspectRatio="xMinYMin meet" x="13.5" y="-224.7"/>
<text text-anchor="start" x="28.5" y="-214.8" font-family="Helvetica,sans-Serif" font-size="11.00" fill="#000000">TEAM_ID</text>
<polygon fill="none" stroke="#000000" points="8.5,-185.7 8.5,-207.7 193.5,-207.7 193.5,-185.7 8.5,-185.7"/>
<image xlink:href="../../images/primaryKeys.png" width="11px" height="12px" preserveAspectRatio="xMinYMin meet" x="13.5" y="-202.7"/>
<text text-anchor="start" x="28.5" y="-192.8" font-family="Helvetica,sans-Serif" font-size="11.00" fill="#000000">CODE</text>
<polygon fill="none" stroke="#000000" points="8.5,-163.7 8.5,-185.7 193.5,-185.7 193.5,-163.7 8.5,-163.7"/>
<image xlink:href="../../images/primaryKeys.png" width="11px" height="12px" preserveAspectRatio="xMinYMin meet" x="13.5" y="-180.7"/>
<text text-anchor="start" x="28.5" y="-170.8" font-family="Helvetica,sans-Serif" font-size="11.00" fill="#000000">DISTRICT_ID</text>
<polygon fill="none" stroke="#000000" points="8.5,-141.7 8.5,-163.7 193.5,-163.7 193.5,-141.7 8.5,-141.7"/>
<image xlink:href="../../images/primaryKeys.png" width="11px" height="12px" preserveAspectRatio="xMinYMin meet" x="13.5" y="-158.7"/>
<text text-anchor="start" x="28.5" y="-148.8" font-family="Helvetica,sans-Serif" font-size="11.00" fill="#000000">LOCAL_DELIVERY_UNIT_ID</text>
<polygon fill="none" stroke="#000000" points="8.5,-119.7 8.5,-141.7 193.5,-141.7 193.5,-119.7 8.5,-119.7"/>
<image xlink:href="../../images/primaryKeys.png" width="11px" height="12px" preserveAspectRatio="xMinYMin meet" x="13.5" y="-136.7"/>
<text text-anchor="start" x="28.5" y="-126.8" font-family="Helvetica,sans-Serif" font-size="11.00" fill="#000000">TRAINING_SESSION_ID</text>
<polygon fill="none" stroke="#000000" points="8.5,-97.7 8.5,-119.7 193.5,-119.7 193.5,-97.7 8.5,-97.7"/>
<image xlink:href="../../images/primaryKeys.png" width="11px" height="12px" preserveAspectRatio="xMinYMin meet" x="13.5" y="-114.7"/>
<text text-anchor="start" x="28.5" y="-104.8" font-family="Helvetica,sans-Serif" font-size="11.00" fill="#000000">PROBATION_AREA_ID</text>
<polygon fill="none" stroke="#000000" points="8.5,-75.7 8.5,-97.7 193.5,-97.7 193.5,-75.7 8.5,-75.7"/>
<image xlink:href="../../images/primaryKeys.png" width="11px" height="12px" preserveAspectRatio="xMinYMin meet" x="13.5" y="-92.7"/>
<text text-anchor="start" x="28.5" y="-82.8" font-family="Helvetica,sans-Serif" font-size="11.00" fill="#000000">SC_PROVIDER_ID</text>
<polygon fill="none" stroke="#000000" points="8.5,-56.7 8.5,-75.7 193.5,-75.7 193.5,-56.7 8.5,-56.7"/>
<text text-anchor="start" x="11.5" y="-62.8" font-family="Helvetica,sans-Serif" font-size="11.00" fill="#000000">...</text>
<polygon fill="#ffffff" stroke="transparent" points="8.5,-37.7 8.5,-56.7 68.5,-56.7 68.5,-37.7 8.5,-37.7"/>
<polygon fill="none" stroke="#000000" points="8.5,-37.7 8.5,-56.7 68.5,-56.7 68.5,-37.7 8.5,-37.7"/>
<text text-anchor="start" x="11.5" y="-43.8" font-family="Helvetica,sans-Serif" font-size="11.00" fill="#000000">&lt; 4</text>
<polygon fill="#ffffff" stroke="transparent" points="68.5,-37.7 68.5,-56.7 146.5,-56.7 146.5,-37.7 68.5,-37.7"/>
<polygon fill="none" stroke="#000000" points="68.5,-37.7 68.5,-56.7 146.5,-56.7 146.5,-37.7 68.5,-37.7"/>
<text text-anchor="start" x="89.7089" y="-43.8" font-family="Helvetica,sans-Serif" font-size="11.00" fill="#000000">1,458 rows</text>
<polygon fill="#ffffff" stroke="transparent" points="146.5,-37.7 146.5,-56.7 193.5,-56.7 193.5,-37.7 146.5,-37.7"/>
<polygon fill="none" stroke="#000000" points="146.5,-37.7 146.5,-56.7 193.5,-56.7 193.5,-37.7 146.5,-37.7"/>
<text text-anchor="start" x="168.7904" y="-43.8" font-family="Helvetica,sans-Serif" font-size="11.00" fill="#000000">62 &gt;</text>
</a>
</g>
</g>
<!-- R_COURT_TEAM&#45;&gt;TEAM -->
<g id="edge2" class="edge">
<title>R_COURT_TEAM:w&#45;&gt;TEAM:e</title>
<path fill="none" stroke="#000000" d="M230.1581,-333.0391C199.3728,-313.122 244.6074,-218.7 193.5,-218.7"/>
<polygon fill="#000000" stroke="#000000" points="236.7485,-334.7213 243.6096,-340.1882 240.6243,-335.7107 244.5,-336.7 244.5,-336.7 244.5,-336.7 240.6243,-335.7107 245.3904,-333.2118 236.7485,-334.7213 236.7485,-334.7213"/>
<ellipse fill="none" stroke="#000000" cx="233.648" cy="-333.9299" rx="3.2" ry="3.2"/>
</g>
</g>
</svg>
