<?xml version="1.0" encoding="UTF-8" standalone="no"?>
<!DOCTYPE svg PUBLIC "-//W3C//DTD SVG 1.1//EN"
 "http://www.w3.org/Graphics/SVG/1.1/DTD/svg11.dtd">
<!-- Generated by graphviz version 2.40.1 (20161225.0304)
 -->
<!-- Title: oneDegreeRelationshipsDiagram Pages: 1 -->
<svg width="581pt" height="325pt"
 viewBox="0.00 0.00 581.00 325.20" xmlns="http://www.w3.org/2000/svg" xmlns:xlink="http://www.w3.org/1999/xlink">
<g id="graph0" class="graph" transform="scale(1 1) rotate(0) translate(4 321.2)">
<title>oneDegreeRelationshipsDiagram</title>
<polygon fill="#ffffff" stroke="transparent" points="-4,4 -4,-321.2 577,-321.2 577,4 -4,4"/>
<text text-anchor="middle" x="72.4936" y="-7.3" font-family="Helvetica,sans-Serif" font-size="11.00" fill="#000000">Generated by SchemaSpy</text>
<!-- R_CONTACT_OUTCOME_UPW_REASON -->
<g id="node1" class="node">
<title>R_CONTACT_OUTCOME_UPW_REASON</title>
<g id="a_node1"><a xlink:href="../../tables/R_CONTACT_OUTCOME_UPW_REASON.html" xlink:title="R_CONTACT_OUTCOME_UPW_REASON" target="_top">
<polygon fill="#ffffff" stroke="transparent" points="277,-150.7 277,-262.7 565,-262.7 565,-150.7 277,-150.7"/>
<polygon fill="#f5f5f5" stroke="transparent" points="279,-237.7 279,-260.7 563,-260.7 563,-237.7 279,-237.7"/>
<polygon fill="none" stroke="#000000" points="279,-237.7 279,-260.7 563,-260.7 563,-237.7 279,-237.7"/>
<text text-anchor="start" x="284" y="-246.8" font-family="Helvetica,sans-Serif" font-weight="bold" font-size="11.00" fill="#000000">R_CONTACT_OUTCOME_UPW_REASON</text>
<text text-anchor="start" x="528.0437" y="-245.8" font-family="Helvetica,sans-Serif" font-size="11.00" fill="#000000">[table]</text>
<polygon fill="#ffffff" stroke="transparent" points="279,-215.7 279,-237.7 502,-237.7 502,-215.7 279,-215.7"/>
<polygon fill="none" stroke="#000000" points="279,-215.7 279,-237.7 502,-237.7 502,-215.7 279,-215.7"/>
<image xlink:href="../../images/foreignKeys.png" width="11px" height="12px" preserveAspectRatio="xMinYMin meet" x="284" y="-232.7"/>
<text text-anchor="start" x="299" y="-222.8" font-family="Helvetica,sans-Serif" font-size="11.00" fill="#000000">CONTACT_OUTCOME_TYPE_ID</text>
<polygon fill="none" stroke="#000000" points="502,-215.7 502,-237.7 563,-237.7 563,-215.7 502,-215.7"/>
<text text-anchor="start" x="504.6865" y="-223.4" font-family="Helvetica,sans-Serif" font-size="11.00" fill="#000000">number[38]</text>
<polygon fill="#ffffff" stroke="transparent" points="279,-193.7 279,-215.7 502,-215.7 502,-193.7 279,-193.7"/>
<polygon fill="none" stroke="#000000" points="279,-193.7 279,-215.7 502,-215.7 502,-193.7 279,-193.7"/>
<image xlink:href="../../images/foreignKeys.png" width="11px" height="12px" preserveAspectRatio="xMinYMin meet" x="284" y="-210.7"/>
<text text-anchor="start" x="299" y="-200.8" font-family="Helvetica,sans-Serif" font-size="11.00" fill="#000000">UPW_SUSPEND_REASON_ID</text>
<polygon fill="none" stroke="#000000" points="502,-193.7 502,-215.7 563,-215.7 563,-193.7 502,-193.7"/>
<text text-anchor="start" x="504.6865" y="-201.4" font-family="Helvetica,sans-Serif" font-size="11.00" fill="#000000">number[38]</text>
<polygon fill="none" stroke="#000000" points="279,-171.7 279,-193.7 502,-193.7 502,-171.7 279,-171.7"/>
<text text-anchor="start" x="299" y="-178.8" font-family="Helvetica,sans-Serif" font-size="11.00" fill="#000000">ROW_VERSION</text>
<polygon fill="none" stroke="#000000" points="502,-171.7 502,-193.7 563,-193.7 563,-171.7 502,-171.7"/>
<text text-anchor="start" x="504.6865" y="-179.4" font-family="Helvetica,sans-Serif" font-size="11.00" fill="#000000">number[38]</text>
<polygon fill="#ffffff" stroke="transparent" points="279,-152.7 279,-171.7 382,-171.7 382,-152.7 279,-152.7"/>
<polygon fill="none" stroke="#000000" points="279,-152.7 279,-171.7 382,-171.7 382,-152.7 279,-152.7"/>
<text text-anchor="start" x="282" y="-158.8" font-family="Helvetica,sans-Serif" font-size="11.00" fill="#000000">&lt; 2</text>
<polygon fill="#ffffff" stroke="transparent" points="382,-152.7 382,-171.7 502,-171.7 502,-152.7 382,-152.7"/>
<polygon fill="none" stroke="#000000" points="382,-152.7 382,-171.7 502,-171.7 502,-152.7 382,-152.7"/>
<text text-anchor="start" x="466.6105" y="-158.8" font-family="Helvetica,sans-Serif" font-size="11.00" fill="#000000">5 rows</text>
<polygon fill="#ffffff" stroke="transparent" points="502,-152.7 502,-171.7 563,-171.7 563,-152.7 502,-152.7"/>
<polygon fill="none" stroke="#000000" points="502,-152.7 502,-171.7 563,-171.7 563,-152.7 502,-152.7"/>
<text text-anchor="start" x="544.4053" y="-158.8" font-family="Helvetica,sans-Serif" font-size="11.00" fill="#000000">0 &gt;</text>
<polygon fill="none" stroke="#000000" stroke-width="2" points="278,-151.7 278,-261.7 564,-261.7 564,-151.7 278,-151.7"/>
</a>
</g>
</g>
<!-- R_CONTACT_OUTCOME_TYPE -->
<g id="node2" class="node">
<title>R_CONTACT_OUTCOME_TYPE</title>
<g id="a_node2"><a xlink:href="../../tables/R_CONTACT_OUTCOME_TYPE.html" xlink:title="R_CONTACT_OUTCOME_TYPE" target="_top">
<polygon fill="#ffffff" stroke="transparent" points="10.5,-208.2 10.5,-313.2 225.5,-313.2 225.5,-208.2 10.5,-208.2"/>
<polygon fill="#f5f5f5" stroke="transparent" points="11,-289.7 11,-312.7 226,-312.7 226,-289.7 11,-289.7"/>
<polygon fill="none" stroke="#000000" points="11,-289.7 11,-312.7 226,-312.7 226,-289.7 11,-289.7"/>
<text text-anchor="start" x="16" y="-298.8" font-family="Helvetica,sans-Serif" font-weight="bold" font-size="11.00" fill="#000000">R_CONTACT_OUTCOME_TYPE</text>
<text text-anchor="start" x="191.0437" y="-297.8" font-family="Helvetica,sans-Serif" font-size="11.00" fill="#000000">[table]</text>
<polygon fill="none" stroke="#000000" points="11,-267.7 11,-289.7 226,-289.7 226,-267.7 11,-267.7"/>
<image xlink:href="../../images/primaryKeys.png" width="11px" height="12px" preserveAspectRatio="xMinYMin meet" x="16" y="-284.7"/>
<text text-anchor="start" x="31" y="-274.8" font-family="Helvetica,sans-Serif" font-size="11.00" fill="#000000">CONTACT_OUTCOME_TYPE_ID</text>
<polygon fill="none" stroke="#000000" points="11,-245.7 11,-267.7 226,-267.7 226,-245.7 11,-245.7"/>
<image xlink:href="../../images/primaryKeys.png" width="11px" height="12px" preserveAspectRatio="xMinYMin meet" x="16" y="-262.7"/>
<text text-anchor="start" x="31" y="-252.8" font-family="Helvetica,sans-Serif" font-size="11.00" fill="#000000">TRAINING_SESSION_ID</text>
<polygon fill="none" stroke="#000000" points="11,-226.7 11,-245.7 226,-245.7 226,-226.7 11,-226.7"/>
<text text-anchor="start" x="14" y="-232.8" font-family="Helvetica,sans-Serif" font-size="11.00" fill="#000000">...</text>
<polygon fill="#ffffff" stroke="transparent" points="11,-207.7 11,-226.7 86,-226.7 86,-207.7 11,-207.7"/>
<polygon fill="none" stroke="#000000" points="11,-207.7 11,-226.7 86,-226.7 86,-207.7 11,-207.7"/>
<text text-anchor="start" x="14" y="-213.8" font-family="Helvetica,sans-Serif" font-size="11.00" fill="#000000"> &#160;</text>
<polygon fill="#ffffff" stroke="transparent" points="86,-207.7 86,-226.7 167,-226.7 167,-207.7 86,-207.7"/>
<polygon fill="none" stroke="#000000" points="86,-207.7 86,-226.7 167,-226.7 167,-207.7 86,-207.7"/>
<text text-anchor="start" x="119.3807" y="-213.8" font-family="Helvetica,sans-Serif" font-size="11.00" fill="#000000">220 rows</text>
<polygon fill="#ffffff" stroke="transparent" points="167,-207.7 167,-226.7 226,-226.7 226,-207.7 167,-207.7"/>
<polygon fill="none" stroke="#000000" points="167,-207.7 167,-226.7 226,-226.7 226,-207.7 167,-207.7"/>
<text text-anchor="start" x="201.2904" y="-213.8" font-family="Helvetica,sans-Serif" font-size="11.00" fill="#000000">10 &gt;</text>
</a>
</g>
</g>
<!-- R_CONTACT_OUTCOME_UPW_REASON&#45;&gt;R_CONTACT_OUTCOME_TYPE -->
<g id="edge1" class="edge">
<title>R_CONTACT_OUTCOME_UPW_REASON:w&#45;&gt;R_CONTACT_OUTCOME_TYPE:e</title>
<path fill="none" stroke="#000000" d="M265.1329,-231.1335C249.1867,-243.7085 253.0702,-278.7 226,-278.7"/>
<polygon fill="#000000" stroke="#000000" points="271.38,-229.1363 280.0963,-230.129 275.19,-227.9181 279,-226.7 279,-226.7 279,-226.7 275.19,-227.9181 277.9037,-223.271 271.38,-229.1363 271.38,-229.1363"/>
<ellipse fill="none" stroke="#000000" cx="268.332" cy="-230.1108" rx="3.2" ry="3.2"/>
</g>
<!-- R_STANDARD_REFERENCE_LIST -->
<g id="node3" class="node">
<title>R_STANDARD_REFERENCE_LIST</title>
<g id="a_node3"><a xlink:href="../../tables/R_STANDARD_REFERENCE_LIST.html" xlink:title="R_STANDARD_REFERENCE_LIST" target="_top">
<polygon fill="#ffffff" stroke="transparent" points="8,-38.2 8,-187.2 228,-187.2 228,-38.2 8,-38.2"/>
<polygon fill="#f5f5f5" stroke="transparent" points="8,-163.7 8,-186.7 228,-186.7 228,-163.7 8,-163.7"/>
<polygon fill="none" stroke="#000000" points="8,-163.7 8,-186.7 228,-186.7 228,-163.7 8,-163.7"/>
<text text-anchor="start" x="12.5842" y="-172.8" font-family="Helvetica,sans-Serif" font-weight="bold" font-size="11.00" fill="#000000">R_STANDARD_REFERENCE_LIST</text>
<text text-anchor="start" x="193.5219" y="-171.8" font-family="Helvetica,sans-Serif" font-size="11.00" fill="#000000">[table]</text>
<polygon fill="none" stroke="#000000" points="8,-141.7 8,-163.7 228,-163.7 228,-141.7 8,-141.7"/>
<image xlink:href="../../images/primaryKeys.png" width="11px" height="12px" preserveAspectRatio="xMinYMin meet" x="13" y="-158.7"/>
<text text-anchor="start" x="35.5558" y="-148.8" font-family="Helvetica,sans-Serif" font-size="11.00" fill="#000000">STANDARD_REFERENCE_LIST_ID</text>
<polygon fill="none" stroke="#000000" points="8,-119.7 8,-141.7 228,-141.7 228,-119.7 8,-119.7"/>
<image xlink:href="../../images/primaryKeys.png" width="11px" height="12px" preserveAspectRatio="xMinYMin meet" x="13" y="-136.7"/>
<text text-anchor="start" x="42" y="-126.8" font-family="Helvetica,sans-Serif" font-size="11.00" fill="#000000">CODE_VALUE</text>
<polygon fill="none" stroke="#000000" points="8,-97.7 8,-119.7 228,-119.7 228,-97.7 8,-97.7"/>
<image xlink:href="../../images/primaryKeys.png" width="11px" height="12px" preserveAspectRatio="xMinYMin meet" x="13" y="-114.7"/>
<text text-anchor="start" x="39.8337" y="-104.8" font-family="Helvetica,sans-Serif" font-size="11.00" fill="#000000">REFERENCE_DATA_MASTER_ID</text>
<polygon fill="none" stroke="#000000" points="8,-75.7 8,-97.7 228,-97.7 228,-75.7 8,-75.7"/>
<image xlink:href="../../images/primaryKeys.png" width="11px" height="12px" preserveAspectRatio="xMinYMin meet" x="13" y="-92.7"/>
<text text-anchor="start" x="42" y="-82.8" font-family="Helvetica,sans-Serif" font-size="11.00" fill="#000000">TRAINING_SESSION_ID</text>
<polygon fill="none" stroke="#000000" points="8,-56.7 8,-75.7 228,-75.7 228,-56.7 8,-56.7"/>
<text text-anchor="start" x="11" y="-62.8" font-family="Helvetica,sans-Serif" font-size="11.00" fill="#000000">...</text>
<polygon fill="#ffffff" stroke="transparent" points="8,-37.7 8,-56.7 79,-56.7 79,-37.7 8,-37.7"/>
<polygon fill="none" stroke="#000000" points="8,-37.7 8,-56.7 79,-56.7 79,-37.7 8,-37.7"/>
<text text-anchor="start" x="11" y="-43.8" font-family="Helvetica,sans-Serif" font-size="11.00" fill="#000000">&lt; 1</text>
<polygon fill="#ffffff" stroke="transparent" points="79,-37.7 79,-56.7 169,-56.7 169,-37.7 79,-37.7"/>
<polygon fill="none" stroke="#000000" points="79,-37.7 79,-56.7 169,-56.7 169,-37.7 79,-37.7"/>
<text text-anchor="start" x="106.094" y="-43.8" font-family="Helvetica,sans-Serif" font-size="11.00" fill="#000000">15,391 rows</text>
<polygon fill="#ffffff" stroke="transparent" points="169,-37.7 169,-56.7 228,-56.7 228,-37.7 169,-37.7"/>
<polygon fill="none" stroke="#000000" points="169,-37.7 169,-56.7 228,-56.7 228,-37.7 169,-37.7"/>
<text text-anchor="start" x="197.1755" y="-43.8" font-family="Helvetica,sans-Serif" font-size="11.00" fill="#000000">296 &gt;</text>
</a>
</g>
</g>
<!-- R_CONTACT_OUTCOME_UPW_REASON&#45;&gt;R_STANDARD_REFERENCE_LIST -->
<g id="edge2" class="edge">
<title>R_CONTACT_OUTCOME_UPW_REASON:w&#45;&gt;R_STANDARD_REFERENCE_LIST:e</title>
<path fill="none" stroke="#000000" d="M265.0468,-199.9012C250.161,-187.0281 254.3017,-152.7 228,-152.7"/>
<polygon fill="#000000" stroke="#000000" points="271.4349,-202.0982 277.8292,-208.1043 275.2175,-203.3991 279,-204.7 279,-204.7 279,-204.7 275.2175,-203.3991 280.1708,-201.2957 271.4349,-202.0982 271.4349,-202.0982"/>
<ellipse fill="none" stroke="#000000" cx="268.4089" cy="-201.0574" rx="3.2" ry="3.2"/>
</g>
</g>
</svg>
