<?xml version="1.0" encoding="UTF-8" standalone="no"?>
<!DOCTYPE svg PUBLIC "-//W3C//DTD SVG 1.1//EN"
 "http://www.w3.org/Graphics/SVG/1.1/DTD/svg11.dtd">
<!-- Generated by graphviz version 2.40.1 (20161225.0304)
 -->
<!-- Title: oneDegreeRelationshipsDiagram Pages: 1 -->
<svg width="539pt" height="479pt"
 viewBox="0.00 0.00 539.00 479.20" xmlns="http://www.w3.org/2000/svg" xmlns:xlink="http://www.w3.org/1999/xlink">
<g id="graph0" class="graph" transform="scale(1 1) rotate(0) translate(4 475.2)">
<title>oneDegreeRelationshipsDiagram</title>
<polygon fill="#ffffff" stroke="transparent" points="-4,4 -4,-475.2 535,-475.2 535,4 -4,4"/>
<text text-anchor="middle" x="72.4936" y="-7.3" font-family="Helvetica,sans-Serif" font-size="11.00" fill="#000000">Generated by SchemaSpy</text>
<!-- R_CONTACT_TYPE_NSI_TYPE -->
<g id="node1" class="node">
<title>R_CONTACT_TYPE_NSI_TYPE</title>
<g id="a_node1"><a xlink:href="../../tables/R_CONTACT_TYPE_NSI_TYPE.html" xlink:title="R_CONTACT_TYPE_NSI_TYPE" target="_top">
<polygon fill="#ffffff" stroke="transparent" points="286,-260.7 286,-394.7 523,-394.7 523,-260.7 286,-260.7"/>
<polygon fill="#f5f5f5" stroke="transparent" points="288.5,-369.7 288.5,-392.7 521.5,-392.7 521.5,-369.7 288.5,-369.7"/>
<polygon fill="none" stroke="#000000" points="288.5,-369.7 288.5,-392.7 521.5,-392.7 521.5,-369.7 288.5,-369.7"/>
<text text-anchor="start" x="293.5" y="-378.8" font-family="Helvetica,sans-Serif" font-weight="bold" font-size="11.00" fill="#000000">R_CONTACT_TYPE_NSI_TYPE</text>
<text text-anchor="start" x="486.5437" y="-377.8" font-family="Helvetica,sans-Serif" font-size="11.00" fill="#000000">[table]</text>
<polygon fill="none" stroke="#000000" points="288.5,-347.7 288.5,-369.7 460.5,-369.7 460.5,-347.7 288.5,-347.7"/>
<image xlink:href="../../images/primaryKeys.png" width="11px" height="12px" preserveAspectRatio="xMinYMin meet" x="293.5" y="-364.7"/>
<text text-anchor="start" x="308.5" y="-354.8" font-family="Helvetica,sans-Serif" font-size="11.00" fill="#000000">CONTACT_TYPE_ID</text>
<polygon fill="none" stroke="#000000" points="460.5,-347.7 460.5,-369.7 521.5,-369.7 521.5,-347.7 460.5,-347.7"/>
<text text-anchor="start" x="463.1865" y="-355.4" font-family="Helvetica,sans-Serif" font-size="11.00" fill="#000000">number[38]</text>
<polygon fill="none" stroke="#000000" points="288.5,-325.7 288.5,-347.7 460.5,-347.7 460.5,-325.7 288.5,-325.7"/>
<image xlink:href="../../images/primaryKeys.png" width="11px" height="12px" preserveAspectRatio="xMinYMin meet" x="293.5" y="-342.7"/>
<text text-anchor="start" x="308.5" y="-332.8" font-family="Helvetica,sans-Serif" font-size="11.00" fill="#000000">NSI_TYPE_ID</text>
<polygon fill="none" stroke="#000000" points="460.5,-325.7 460.5,-347.7 521.5,-347.7 521.5,-325.7 460.5,-325.7"/>
<text text-anchor="start" x="463.1865" y="-333.4" font-family="Helvetica,sans-Serif" font-size="11.00" fill="#000000">number[38]</text>
<polygon fill="none" stroke="#000000" points="288.5,-303.7 288.5,-325.7 460.5,-325.7 460.5,-303.7 288.5,-303.7"/>
<text text-anchor="start" x="308.5" y="-310.8" font-family="Helvetica,sans-Serif" font-size="11.00" fill="#000000">ROW_VERSION</text>
<polygon fill="none" stroke="#000000" points="460.5,-303.7 460.5,-325.7 521.5,-325.7 521.5,-303.7 460.5,-303.7"/>
<text text-anchor="start" x="463.1865" y="-311.4" font-family="Helvetica,sans-Serif" font-size="11.00" fill="#000000">number[38]</text>
<polygon fill="none" stroke="#000000" points="288.5,-281.7 288.5,-303.7 460.5,-303.7 460.5,-281.7 288.5,-281.7"/>
<image xlink:href="../../images/primaryKeys.png" width="11px" height="12px" preserveAspectRatio="xMinYMin meet" x="293.5" y="-298.7"/>
<text text-anchor="start" x="308.5" y="-288.8" font-family="Helvetica,sans-Serif" font-size="11.00" fill="#000000">TRAINING_SESSION_ID</text>
<polygon fill="none" stroke="#000000" points="460.5,-281.7 460.5,-303.7 521.5,-303.7 521.5,-281.7 460.5,-281.7"/>
<text text-anchor="start" x="463.1865" y="-289.4" font-family="Helvetica,sans-Serif" font-size="11.00" fill="#000000">number[38]</text>
<polygon fill="#ffffff" stroke="transparent" points="288.5,-262.7 288.5,-281.7 362.5,-281.7 362.5,-262.7 288.5,-262.7"/>
<polygon fill="none" stroke="#000000" points="288.5,-262.7 288.5,-281.7 362.5,-281.7 362.5,-262.7 288.5,-262.7"/>
<text text-anchor="start" x="291.5" y="-268.8" font-family="Helvetica,sans-Serif" font-size="11.00" fill="#000000">&lt; 2</text>
<polygon fill="#ffffff" stroke="transparent" points="362.5,-262.7 362.5,-281.7 460.5,-281.7 460.5,-262.7 362.5,-262.7"/>
<polygon fill="none" stroke="#000000" points="362.5,-262.7 362.5,-281.7 460.5,-281.7 460.5,-262.7 362.5,-262.7"/>
<text text-anchor="start" x="418.9956" y="-268.8" font-family="Helvetica,sans-Serif" font-size="11.00" fill="#000000">80 rows</text>
<polygon fill="#ffffff" stroke="transparent" points="460.5,-262.7 460.5,-281.7 521.5,-281.7 521.5,-262.7 460.5,-262.7"/>
<polygon fill="none" stroke="#000000" points="460.5,-262.7 460.5,-281.7 521.5,-281.7 521.5,-262.7 460.5,-262.7"/>
<text text-anchor="start" x="502.9053" y="-268.8" font-family="Helvetica,sans-Serif" font-size="11.00" fill="#000000">0 &gt;</text>
<polygon fill="none" stroke="#000000" stroke-width="2" points="287,-261.7 287,-393.7 522,-393.7 522,-261.7 287,-261.7"/>
</a>
</g>
</g>
<!-- R_CONTACT_TYPE -->
<g id="node2" class="node">
<title>R_CONTACT_TYPE</title>
<g id="a_node2"><a xlink:href="../../tables/R_CONTACT_TYPE.html" xlink:title="R_CONTACT_TYPE" target="_top">
<polygon fill="#ffffff" stroke="transparent" points="8,-318.2 8,-467.2 237,-467.2 237,-318.2 8,-318.2"/>
<polygon fill="#f5f5f5" stroke="transparent" points="8.5,-443.7 8.5,-466.7 237.5,-466.7 237.5,-443.7 8.5,-443.7"/>
<polygon fill="none" stroke="#000000" points="8.5,-443.7 8.5,-466.7 237.5,-466.7 237.5,-443.7 8.5,-443.7"/>
<text text-anchor="start" x="13.5" y="-452.8" font-family="Helvetica,sans-Serif" font-weight="bold" font-size="11.00" fill="#000000">R_CONTACT_TYPE</text>
<text text-anchor="start" x="202.5437" y="-451.8" font-family="Helvetica,sans-Serif" font-size="11.00" fill="#000000">[table]</text>
<polygon fill="none" stroke="#000000" points="8.5,-421.7 8.5,-443.7 237.5,-443.7 237.5,-421.7 8.5,-421.7"/>
<image xlink:href="../../images/primaryKeys.png" width="11px" height="12px" preserveAspectRatio="xMinYMin meet" x="13.5" y="-438.7"/>
<text text-anchor="start" x="28.5" y="-428.8" font-family="Helvetica,sans-Serif" font-size="11.00" fill="#000000">CONTACT_TYPE_ID</text>
<polygon fill="none" stroke="#000000" points="8.5,-399.7 8.5,-421.7 237.5,-421.7 237.5,-399.7 8.5,-399.7"/>
<image xlink:href="../../images/primaryKeys.png" width="11px" height="12px" preserveAspectRatio="xMinYMin meet" x="13.5" y="-416.7"/>
<text text-anchor="start" x="28.5" y="-406.8" font-family="Helvetica,sans-Serif" font-size="11.00" fill="#000000">CODE</text>
<polygon fill="none" stroke="#000000" points="8.5,-377.7 8.5,-399.7 237.5,-399.7 237.5,-377.7 8.5,-377.7"/>
<image xlink:href="../../images/primaryKeys.png" width="11px" height="12px" preserveAspectRatio="xMinYMin meet" x="13.5" y="-394.7"/>
<text text-anchor="start" x="28.5" y="-384.8" font-family="Helvetica,sans-Serif" font-size="11.00" fill="#000000">TRAINING_SESSION_ID</text>
<polygon fill="none" stroke="#000000" points="8.5,-355.7 8.5,-377.7 237.5,-377.7 237.5,-355.7 8.5,-355.7"/>
<image xlink:href="../../images/primaryKeys.png" width="11px" height="12px" preserveAspectRatio="xMinYMin meet" x="13.5" y="-372.7"/>
<text text-anchor="start" x="28.5" y="-362.8" font-family="Helvetica,sans-Serif" font-size="11.00" fill="#000000">CONTACT_TYPE_ICON_ID</text>
<polygon fill="none" stroke="#000000" points="8.5,-336.7 8.5,-355.7 237.5,-355.7 237.5,-336.7 8.5,-336.7"/>
<text text-anchor="start" x="11.5" y="-342.8" font-family="Helvetica,sans-Serif" font-size="11.00" fill="#000000">...</text>
<polygon fill="#ffffff" stroke="transparent" points="8.5,-317.7 8.5,-336.7 90.5,-336.7 90.5,-317.7 8.5,-317.7"/>
<polygon fill="none" stroke="#000000" points="8.5,-317.7 8.5,-336.7 90.5,-336.7 90.5,-317.7 8.5,-317.7"/>
<text text-anchor="start" x="11.5" y="-323.8" font-family="Helvetica,sans-Serif" font-size="11.00" fill="#000000">&lt; 1</text>
<polygon fill="#ffffff" stroke="transparent" points="90.5,-317.7 90.5,-336.7 179.5,-336.7 179.5,-317.7 90.5,-317.7"/>
<polygon fill="none" stroke="#000000" points="90.5,-317.7 90.5,-336.7 179.5,-336.7 179.5,-317.7 90.5,-317.7"/>
<text text-anchor="start" x="122.7089" y="-323.8" font-family="Helvetica,sans-Serif" font-size="11.00" fill="#000000">3,021 rows</text>
<polygon fill="#ffffff" stroke="transparent" points="179.5,-317.7 179.5,-336.7 237.5,-336.7 237.5,-317.7 179.5,-317.7"/>
<polygon fill="none" stroke="#000000" points="179.5,-317.7 179.5,-336.7 237.5,-336.7 237.5,-317.7 179.5,-317.7"/>
<text text-anchor="start" x="212.7904" y="-323.8" font-family="Helvetica,sans-Serif" font-size="11.00" fill="#000000">21 &gt;</text>
</a>
</g>
</g>
<!-- R_CONTACT_TYPE_NSI_TYPE&#45;&gt;R_CONTACT_TYPE -->
<g id="edge1" class="edge">
<title>R_CONTACT_TYPE_NSI_TYPE:w&#45;&gt;R_CONTACT_TYPE:e</title>
<path fill="none" stroke="#000000" d="M274.5503,-363.329C255.7607,-379.5294 271.3581,-432.7 237.5,-432.7"/>
<polygon fill="#000000" stroke="#000000" points="280.9071,-361.2196 289.6338,-362.1168 284.7036,-359.9598 288.5,-358.7 288.5,-358.7 288.5,-358.7 284.7036,-359.9598 287.3662,-355.2832 280.9071,-361.2196 280.9071,-361.2196"/>
<ellipse fill="none" stroke="#000000" cx="277.87" cy="-362.2275" rx="3.2" ry="3.2"/>
</g>
<!-- R_NSI_TYPE -->
<g id="node3" class="node">
<title>R_NSI_TYPE</title>
<g id="a_node3"><a xlink:href="../../tables/R_NSI_TYPE.html" xlink:title="R_NSI_TYPE" target="_top">
<polygon fill="#ffffff" stroke="transparent" points="15,-38.2 15,-297.2 230,-297.2 230,-38.2 15,-38.2"/>
<polygon fill="#f5f5f5" stroke="transparent" points="15.5,-273.7 15.5,-296.7 230.5,-296.7 230.5,-273.7 15.5,-273.7"/>
<polygon fill="none" stroke="#000000" points="15.5,-273.7 15.5,-296.7 230.5,-296.7 230.5,-273.7 15.5,-273.7"/>
<text text-anchor="start" x="20.5" y="-282.8" font-family="Helvetica,sans-Serif" font-weight="bold" font-size="11.00" fill="#000000">R_NSI_TYPE</text>
<text text-anchor="start" x="195.5437" y="-281.8" font-family="Helvetica,sans-Serif" font-size="11.00" fill="#000000">[table]</text>
<polygon fill="none" stroke="#000000" points="15.5,-251.7 15.5,-273.7 230.5,-273.7 230.5,-251.7 15.5,-251.7"/>
<image xlink:href="../../images/primaryKeys.png" width="11px" height="12px" preserveAspectRatio="xMinYMin meet" x="20.5" y="-268.7"/>
<text text-anchor="start" x="35.5" y="-258.8" font-family="Helvetica,sans-Serif" font-size="11.00" fill="#000000">NSI_TYPE_ID</text>
<polygon fill="none" stroke="#000000" points="15.5,-229.7 15.5,-251.7 230.5,-251.7 230.5,-229.7 15.5,-229.7"/>
<image xlink:href="../../images/primaryKeys.png" width="11px" height="12px" preserveAspectRatio="xMinYMin meet" x="20.5" y="-246.7"/>
<text text-anchor="start" x="35.5" y="-236.8" font-family="Helvetica,sans-Serif" font-size="11.00" fill="#000000">UNITS_ID</text>
<polygon fill="none" stroke="#000000" points="15.5,-207.7 15.5,-229.7 230.5,-229.7 230.5,-207.7 15.5,-207.7"/>
<image xlink:href="../../images/primaryKeys.png" width="11px" height="12px" preserveAspectRatio="xMinYMin meet" x="20.5" y="-224.7"/>
<text text-anchor="start" x="35.5" y="-214.8" font-family="Helvetica,sans-Serif" font-size="11.00" fill="#000000">TRAINING_SESSION_ID</text>
<polygon fill="none" stroke="#000000" points="15.5,-185.7 15.5,-207.7 230.5,-207.7 230.5,-185.7 15.5,-185.7"/>
<image xlink:href="../../images/primaryKeys.png" width="11px" height="12px" preserveAspectRatio="xMinYMin meet" x="20.5" y="-202.7"/>
<text text-anchor="start" x="35.5" y="-192.8" font-family="Helvetica,sans-Serif" font-size="11.00" fill="#000000">NSI_PURPOSE_ID</text>
<polygon fill="none" stroke="#000000" points="15.5,-163.7 15.5,-185.7 230.5,-185.7 230.5,-163.7 15.5,-163.7"/>
<image xlink:href="../../images/primaryKeys.png" width="11px" height="12px" preserveAspectRatio="xMinYMin meet" x="20.5" y="-180.7"/>
<text text-anchor="start" x="35.5" y="-170.8" font-family="Helvetica,sans-Serif" font-size="11.00" fill="#000000">NSI_TRANSFER_TYPE_ID</text>
<polygon fill="none" stroke="#000000" points="15.5,-141.7 15.5,-163.7 230.5,-163.7 230.5,-141.7 15.5,-141.7"/>
<image xlink:href="../../images/primaryKeys.png" width="11px" height="12px" preserveAspectRatio="xMinYMin meet" x="20.5" y="-158.7"/>
<text text-anchor="start" x="34.855" y="-148.8" font-family="Helvetica,sans-Serif" font-size="11.00" fill="#000000">ADDITIONAL_IDENTIFIER_TYPE1_ID</text>
<polygon fill="none" stroke="#000000" points="15.5,-119.7 15.5,-141.7 230.5,-141.7 230.5,-119.7 15.5,-119.7"/>
<image xlink:href="../../images/primaryKeys.png" width="11px" height="12px" preserveAspectRatio="xMinYMin meet" x="20.5" y="-136.7"/>
<text text-anchor="start" x="34.855" y="-126.8" font-family="Helvetica,sans-Serif" font-size="11.00" fill="#000000">ADDITIONAL_IDENTIFIER_TYPE2_ID</text>
<polygon fill="none" stroke="#000000" points="15.5,-97.7 15.5,-119.7 230.5,-119.7 230.5,-97.7 15.5,-97.7"/>
<image xlink:href="../../images/primaryKeys.png" width="11px" height="12px" preserveAspectRatio="xMinYMin meet" x="20.5" y="-114.7"/>
<text text-anchor="start" x="35.5" y="-104.8" font-family="Helvetica,sans-Serif" font-size="11.00" fill="#000000">ADDITIONAL_REFERENCE_1_ID</text>
<polygon fill="none" stroke="#000000" points="15.5,-75.7 15.5,-97.7 230.5,-97.7 230.5,-75.7 15.5,-75.7"/>
<image xlink:href="../../images/primaryKeys.png" width="11px" height="12px" preserveAspectRatio="xMinYMin meet" x="20.5" y="-92.7"/>
<text text-anchor="start" x="35.5" y="-82.8" font-family="Helvetica,sans-Serif" font-size="11.00" fill="#000000">ADDITIONAL_REFERENCE_2_ID</text>
<polygon fill="none" stroke="#000000" points="15.5,-56.7 15.5,-75.7 230.5,-75.7 230.5,-56.7 15.5,-56.7"/>
<text text-anchor="start" x="18.5" y="-62.8" font-family="Helvetica,sans-Serif" font-size="11.00" fill="#000000">...</text>
<polygon fill="#ffffff" stroke="transparent" points="15.5,-37.7 15.5,-56.7 94.5,-56.7 94.5,-37.7 15.5,-37.7"/>
<polygon fill="none" stroke="#000000" points="15.5,-37.7 15.5,-56.7 94.5,-56.7 94.5,-37.7 15.5,-37.7"/>
<text text-anchor="start" x="18.5" y="-43.8" font-family="Helvetica,sans-Serif" font-size="11.00" fill="#000000">&lt; 7</text>
<polygon fill="#ffffff" stroke="transparent" points="94.5,-37.7 94.5,-56.7 173.5,-56.7 173.5,-37.7 94.5,-37.7"/>
<polygon fill="none" stroke="#000000" points="94.5,-37.7 94.5,-56.7 173.5,-56.7 173.5,-37.7 94.5,-37.7"/>
<text text-anchor="start" x="125.8807" y="-43.8" font-family="Helvetica,sans-Serif" font-size="11.00" fill="#000000">570 rows</text>
<polygon fill="#ffffff" stroke="transparent" points="173.5,-37.7 173.5,-56.7 230.5,-56.7 230.5,-37.7 173.5,-37.7"/>
<polygon fill="none" stroke="#000000" points="173.5,-37.7 173.5,-56.7 230.5,-56.7 230.5,-37.7 173.5,-37.7"/>
<text text-anchor="start" x="205.7904" y="-43.8" font-family="Helvetica,sans-Serif" font-size="11.00" fill="#000000">10 &gt;</text>
</a>
</g>
</g>
<!-- R_CONTACT_TYPE_NSI_TYPE&#45;&gt;R_NSI_TYPE -->
<g id="edge2" class="edge">
<title>R_CONTACT_TYPE_NSI_TYPE:w&#45;&gt;R_NSI_TYPE:e</title>
<path fill="none" stroke="#000000" d="M274.4927,-332.7214C252.5735,-317.3509 266.4109,-262.7 230.5,-262.7"/>
<polygon fill="#000000" stroke="#000000" points="280.8044,-334.5141 287.5164,-340.163 284.6522,-335.6071 288.5,-336.7 288.5,-336.7 288.5,-336.7 284.6522,-335.6071 289.4836,-333.237 280.8044,-334.5141 280.8044,-334.5141"/>
<ellipse fill="none" stroke="#000000" cx="277.7262" cy="-333.6398" rx="3.2" ry="3.2"/>
</g>
</g>
</svg>
