<?xml version="1.0" encoding="UTF-8" standalone="no"?>
<!DOCTYPE svg PUBLIC "-//W3C//DTD SVG 1.1//EN"
 "http://www.w3.org/Graphics/SVG/1.1/DTD/svg11.dtd">
<!-- Generated by graphviz version 2.40.1 (20161225.0304)
 -->
<!-- Title: oneDegreeRelationshipsDiagram Pages: 1 -->
<svg width="595pt" height="369pt"
 viewBox="0.00 0.00 595.00 369.20" xmlns="http://www.w3.org/2000/svg" xmlns:xlink="http://www.w3.org/1999/xlink">
<g id="graph0" class="graph" transform="scale(1 1) rotate(0) translate(4 365.2)">
<title>oneDegreeRelationshipsDiagram</title>
<polygon fill="#ffffff" stroke="transparent" points="-4,4 -4,-365.2 591,-365.2 591,4 -4,4"/>
<text text-anchor="middle" x="72.4936" y="-7.3" font-family="Helvetica,sans-Serif" font-size="11.00" fill="#000000">Generated by SchemaSpy</text>
<!-- R_CONTACT_TYPECONTACT_CATEGORY -->
<g id="node1" class="node">
<title>R_CONTACT_TYPECONTACT_CATEGORY</title>
<g id="a_node1"><a xlink:href="../../tables/R_CONTACT_TYPECONTACT_CATEGORY.html" xlink:title="R_CONTACT_TYPECONTACT_CATEGORY" target="_top">
<polygon fill="#ffffff" stroke="transparent" points="286,-150.7 286,-284.7 579,-284.7 579,-150.7 286,-150.7"/>
<polygon fill="#f5f5f5" stroke="transparent" points="288.5,-259.7 288.5,-282.7 577.5,-282.7 577.5,-259.7 288.5,-259.7"/>
<polygon fill="none" stroke="#000000" points="288.5,-259.7 288.5,-282.7 577.5,-282.7 577.5,-259.7 288.5,-259.7"/>
<text text-anchor="start" x="293.5" y="-268.8" font-family="Helvetica,sans-Serif" font-weight="bold" font-size="11.00" fill="#000000">R_CONTACT_TYPECONTACT_CATEGORY</text>
<text text-anchor="start" x="542.5437" y="-267.8" font-family="Helvetica,sans-Serif" font-size="11.00" fill="#000000">[table]</text>
<polygon fill="none" stroke="#000000" points="288.5,-237.7 288.5,-259.7 516.5,-259.7 516.5,-237.7 288.5,-237.7"/>
<image xlink:href="../../images/primaryKeys.png" width="11px" height="12px" preserveAspectRatio="xMinYMin meet" x="293.5" y="-254.7"/>
<text text-anchor="start" x="308.5" y="-244.8" font-family="Helvetica,sans-Serif" font-size="11.00" fill="#000000">CONTACT_TYPE_ID</text>
<polygon fill="none" stroke="#000000" points="516.5,-237.7 516.5,-259.7 577.5,-259.7 577.5,-237.7 516.5,-237.7"/>
<text text-anchor="start" x="519.1865" y="-245.4" font-family="Helvetica,sans-Serif" font-size="11.00" fill="#000000">number[38]</text>
<polygon fill="none" stroke="#000000" points="288.5,-215.7 288.5,-237.7 516.5,-237.7 516.5,-215.7 288.5,-215.7"/>
<image xlink:href="../../images/primaryKeys.png" width="11px" height="12px" preserveAspectRatio="xMinYMin meet" x="293.5" y="-232.7"/>
<text text-anchor="start" x="308.5" y="-222.8" font-family="Helvetica,sans-Serif" font-size="11.00" fill="#000000">STANDARD_REFERENCE_LIST_ID</text>
<polygon fill="none" stroke="#000000" points="516.5,-215.7 516.5,-237.7 577.5,-237.7 577.5,-215.7 516.5,-215.7"/>
<text text-anchor="start" x="519.1865" y="-223.4" font-family="Helvetica,sans-Serif" font-size="11.00" fill="#000000">number[38]</text>
<polygon fill="none" stroke="#000000" points="288.5,-193.7 288.5,-215.7 516.5,-215.7 516.5,-193.7 288.5,-193.7"/>
<text text-anchor="start" x="308.5" y="-200.8" font-family="Helvetica,sans-Serif" font-size="11.00" fill="#000000">ROW_VERSION</text>
<polygon fill="none" stroke="#000000" points="516.5,-193.7 516.5,-215.7 577.5,-215.7 577.5,-193.7 516.5,-193.7"/>
<text text-anchor="start" x="519.1865" y="-201.4" font-family="Helvetica,sans-Serif" font-size="11.00" fill="#000000">number[38]</text>
<polygon fill="none" stroke="#000000" points="288.5,-171.7 288.5,-193.7 516.5,-193.7 516.5,-171.7 288.5,-171.7"/>
<image xlink:href="../../images/primaryKeys.png" width="11px" height="12px" preserveAspectRatio="xMinYMin meet" x="293.5" y="-188.7"/>
<text text-anchor="start" x="308.5" y="-178.8" font-family="Helvetica,sans-Serif" font-size="11.00" fill="#000000">TRAINING_SESSION_ID</text>
<polygon fill="none" stroke="#000000" points="516.5,-171.7 516.5,-193.7 577.5,-193.7 577.5,-171.7 516.5,-171.7"/>
<text text-anchor="start" x="519.1865" y="-179.4" font-family="Helvetica,sans-Serif" font-size="11.00" fill="#000000">number[38]</text>
<polygon fill="#ffffff" stroke="transparent" points="288.5,-152.7 288.5,-171.7 383.5,-171.7 383.5,-152.7 288.5,-152.7"/>
<polygon fill="none" stroke="#000000" points="288.5,-152.7 288.5,-171.7 383.5,-171.7 383.5,-152.7 288.5,-152.7"/>
<text text-anchor="start" x="291.5" y="-158.8" font-family="Helvetica,sans-Serif" font-size="11.00" fill="#000000">&lt; 2</text>
<polygon fill="#ffffff" stroke="transparent" points="383.5,-152.7 383.5,-171.7 516.5,-171.7 516.5,-152.7 383.5,-152.7"/>
<polygon fill="none" stroke="#000000" points="383.5,-152.7 383.5,-171.7 516.5,-171.7 516.5,-152.7 383.5,-152.7"/>
<text text-anchor="start" x="459.7089" y="-158.8" font-family="Helvetica,sans-Serif" font-size="11.00" fill="#000000">1,468 rows</text>
<polygon fill="#ffffff" stroke="transparent" points="516.5,-152.7 516.5,-171.7 577.5,-171.7 577.5,-152.7 516.5,-152.7"/>
<polygon fill="none" stroke="#000000" points="516.5,-152.7 516.5,-171.7 577.5,-171.7 577.5,-152.7 516.5,-152.7"/>
<text text-anchor="start" x="558.9053" y="-158.8" font-family="Helvetica,sans-Serif" font-size="11.00" fill="#000000">0 &gt;</text>
<polygon fill="none" stroke="#000000" stroke-width="2" points="287,-151.7 287,-283.7 578,-283.7 578,-151.7 287,-151.7"/>
</a>
</g>
</g>
<!-- R_CONTACT_TYPE -->
<g id="node2" class="node">
<title>R_CONTACT_TYPE</title>
<g id="a_node2"><a xlink:href="../../tables/R_CONTACT_TYPE.html" xlink:title="R_CONTACT_TYPE" target="_top">
<polygon fill="#ffffff" stroke="transparent" points="8,-208.2 8,-357.2 237,-357.2 237,-208.2 8,-208.2"/>
<polygon fill="#f5f5f5" stroke="transparent" points="8.5,-333.7 8.5,-356.7 237.5,-356.7 237.5,-333.7 8.5,-333.7"/>
<polygon fill="none" stroke="#000000" points="8.5,-333.7 8.5,-356.7 237.5,-356.7 237.5,-333.7 8.5,-333.7"/>
<text text-anchor="start" x="13.5" y="-342.8" font-family="Helvetica,sans-Serif" font-weight="bold" font-size="11.00" fill="#000000">R_CONTACT_TYPE</text>
<text text-anchor="start" x="202.5437" y="-341.8" font-family="Helvetica,sans-Serif" font-size="11.00" fill="#000000">[table]</text>
<polygon fill="none" stroke="#000000" points="8.5,-311.7 8.5,-333.7 237.5,-333.7 237.5,-311.7 8.5,-311.7"/>
<image xlink:href="../../images/primaryKeys.png" width="11px" height="12px" preserveAspectRatio="xMinYMin meet" x="13.5" y="-328.7"/>
<text text-anchor="start" x="28.5" y="-318.8" font-family="Helvetica,sans-Serif" font-size="11.00" fill="#000000">CONTACT_TYPE_ID</text>
<polygon fill="none" stroke="#000000" points="8.5,-289.7 8.5,-311.7 237.5,-311.7 237.5,-289.7 8.5,-289.7"/>
<image xlink:href="../../images/primaryKeys.png" width="11px" height="12px" preserveAspectRatio="xMinYMin meet" x="13.5" y="-306.7"/>
<text text-anchor="start" x="28.5" y="-296.8" font-family="Helvetica,sans-Serif" font-size="11.00" fill="#000000">CODE</text>
<polygon fill="none" stroke="#000000" points="8.5,-267.7 8.5,-289.7 237.5,-289.7 237.5,-267.7 8.5,-267.7"/>
<image xlink:href="../../images/primaryKeys.png" width="11px" height="12px" preserveAspectRatio="xMinYMin meet" x="13.5" y="-284.7"/>
<text text-anchor="start" x="28.5" y="-274.8" font-family="Helvetica,sans-Serif" font-size="11.00" fill="#000000">TRAINING_SESSION_ID</text>
<polygon fill="none" stroke="#000000" points="8.5,-245.7 8.5,-267.7 237.5,-267.7 237.5,-245.7 8.5,-245.7"/>
<image xlink:href="../../images/primaryKeys.png" width="11px" height="12px" preserveAspectRatio="xMinYMin meet" x="13.5" y="-262.7"/>
<text text-anchor="start" x="28.5" y="-252.8" font-family="Helvetica,sans-Serif" font-size="11.00" fill="#000000">CONTACT_TYPE_ICON_ID</text>
<polygon fill="none" stroke="#000000" points="8.5,-226.7 8.5,-245.7 237.5,-245.7 237.5,-226.7 8.5,-226.7"/>
<text text-anchor="start" x="11.5" y="-232.8" font-family="Helvetica,sans-Serif" font-size="11.00" fill="#000000">...</text>
<polygon fill="#ffffff" stroke="transparent" points="8.5,-207.7 8.5,-226.7 90.5,-226.7 90.5,-207.7 8.5,-207.7"/>
<polygon fill="none" stroke="#000000" points="8.5,-207.7 8.5,-226.7 90.5,-226.7 90.5,-207.7 8.5,-207.7"/>
<text text-anchor="start" x="11.5" y="-213.8" font-family="Helvetica,sans-Serif" font-size="11.00" fill="#000000">&lt; 1</text>
<polygon fill="#ffffff" stroke="transparent" points="90.5,-207.7 90.5,-226.7 179.5,-226.7 179.5,-207.7 90.5,-207.7"/>
<polygon fill="none" stroke="#000000" points="90.5,-207.7 90.5,-226.7 179.5,-226.7 179.5,-207.7 90.5,-207.7"/>
<text text-anchor="start" x="122.7089" y="-213.8" font-family="Helvetica,sans-Serif" font-size="11.00" fill="#000000">3,019 rows</text>
<polygon fill="#ffffff" stroke="transparent" points="179.5,-207.7 179.5,-226.7 237.5,-226.7 237.5,-207.7 179.5,-207.7"/>
<polygon fill="none" stroke="#000000" points="179.5,-207.7 179.5,-226.7 237.5,-226.7 237.5,-207.7 179.5,-207.7"/>
<text text-anchor="start" x="212.7904" y="-213.8" font-family="Helvetica,sans-Serif" font-size="11.00" fill="#000000">21 &gt;</text>
</a>
</g>
</g>
<!-- R_CONTACT_TYPECONTACT_CATEGORY&#45;&gt;R_CONTACT_TYPE -->
<g id="edge1" class="edge">
<title>R_CONTACT_TYPECONTACT_CATEGORY:w&#45;&gt;R_CONTACT_TYPE:e</title>
<path fill="none" stroke="#000000" d="M274.5503,-253.329C255.7607,-269.5294 271.3581,-322.7 237.5,-322.7"/>
<polygon fill="#000000" stroke="#000000" points="280.9071,-251.2196 289.6338,-252.1168 284.7036,-249.9598 288.5,-248.7 288.5,-248.7 288.5,-248.7 284.7036,-249.9598 287.3662,-245.2832 280.9071,-251.2196 280.9071,-251.2196"/>
<ellipse fill="none" stroke="#000000" cx="277.87" cy="-252.2275" rx="3.2" ry="3.2"/>
</g>
<!-- R_STANDARD_REFERENCE_LIST -->
<g id="node3" class="node">
<title>R_STANDARD_REFERENCE_LIST</title>
<g id="a_node3"><a xlink:href="../../tables/R_STANDARD_REFERENCE_LIST.html" xlink:title="R_STANDARD_REFERENCE_LIST" target="_top">
<polygon fill="#ffffff" stroke="transparent" points="12.5,-38.2 12.5,-187.2 232.5,-187.2 232.5,-38.2 12.5,-38.2"/>
<polygon fill="#f5f5f5" stroke="transparent" points="12.5,-163.7 12.5,-186.7 232.5,-186.7 232.5,-163.7 12.5,-163.7"/>
<polygon fill="none" stroke="#000000" points="12.5,-163.7 12.5,-186.7 232.5,-186.7 232.5,-163.7 12.5,-163.7"/>
<text text-anchor="start" x="17.0842" y="-172.8" font-family="Helvetica,sans-Serif" font-weight="bold" font-size="11.00" fill="#000000">R_STANDARD_REFERENCE_LIST</text>
<text text-anchor="start" x="198.0219" y="-171.8" font-family="Helvetica,sans-Serif" font-size="11.00" fill="#000000">[table]</text>
<polygon fill="none" stroke="#000000" points="12.5,-141.7 12.5,-163.7 232.5,-163.7 232.5,-141.7 12.5,-141.7"/>
<image xlink:href="../../images/primaryKeys.png" width="11px" height="12px" preserveAspectRatio="xMinYMin meet" x="17.5" y="-158.7"/>
<text text-anchor="start" x="40.0558" y="-148.8" font-family="Helvetica,sans-Serif" font-size="11.00" fill="#000000">STANDARD_REFERENCE_LIST_ID</text>
<polygon fill="none" stroke="#000000" points="12.5,-119.7 12.5,-141.7 232.5,-141.7 232.5,-119.7 12.5,-119.7"/>
<image xlink:href="../../images/primaryKeys.png" width="11px" height="12px" preserveAspectRatio="xMinYMin meet" x="17.5" y="-136.7"/>
<text text-anchor="start" x="46.5" y="-126.8" font-family="Helvetica,sans-Serif" font-size="11.00" fill="#000000">CODE_VALUE</text>
<polygon fill="none" stroke="#000000" points="12.5,-97.7 12.5,-119.7 232.5,-119.7 232.5,-97.7 12.5,-97.7"/>
<image xlink:href="../../images/primaryKeys.png" width="11px" height="12px" preserveAspectRatio="xMinYMin meet" x="17.5" y="-114.7"/>
<text text-anchor="start" x="44.3337" y="-104.8" font-family="Helvetica,sans-Serif" font-size="11.00" fill="#000000">REFERENCE_DATA_MASTER_ID</text>
<polygon fill="none" stroke="#000000" points="12.5,-75.7 12.5,-97.7 232.5,-97.7 232.5,-75.7 12.5,-75.7"/>
<image xlink:href="../../images/primaryKeys.png" width="11px" height="12px" preserveAspectRatio="xMinYMin meet" x="17.5" y="-92.7"/>
<text text-anchor="start" x="46.5" y="-82.8" font-family="Helvetica,sans-Serif" font-size="11.00" fill="#000000">TRAINING_SESSION_ID</text>
<polygon fill="none" stroke="#000000" points="12.5,-56.7 12.5,-75.7 232.5,-75.7 232.5,-56.7 12.5,-56.7"/>
<text text-anchor="start" x="15.5" y="-62.8" font-family="Helvetica,sans-Serif" font-size="11.00" fill="#000000">...</text>
<polygon fill="#ffffff" stroke="transparent" points="12.5,-37.7 12.5,-56.7 83.5,-56.7 83.5,-37.7 12.5,-37.7"/>
<polygon fill="none" stroke="#000000" points="12.5,-37.7 12.5,-56.7 83.5,-56.7 83.5,-37.7 12.5,-37.7"/>
<text text-anchor="start" x="15.5" y="-43.8" font-family="Helvetica,sans-Serif" font-size="11.00" fill="#000000">&lt; 1</text>
<polygon fill="#ffffff" stroke="transparent" points="83.5,-37.7 83.5,-56.7 173.5,-56.7 173.5,-37.7 83.5,-37.7"/>
<polygon fill="none" stroke="#000000" points="83.5,-37.7 83.5,-56.7 173.5,-56.7 173.5,-37.7 83.5,-37.7"/>
<text text-anchor="start" x="110.594" y="-43.8" font-family="Helvetica,sans-Serif" font-size="11.00" fill="#000000">15,391 rows</text>
<polygon fill="#ffffff" stroke="transparent" points="173.5,-37.7 173.5,-56.7 232.5,-56.7 232.5,-37.7 173.5,-37.7"/>
<polygon fill="none" stroke="#000000" points="173.5,-37.7 173.5,-56.7 232.5,-56.7 232.5,-37.7 173.5,-37.7"/>
<text text-anchor="start" x="201.6755" y="-43.8" font-family="Helvetica,sans-Serif" font-size="11.00" fill="#000000">294 &gt;</text>
</a>
</g>
</g>
<!-- R_CONTACT_TYPECONTACT_CATEGORY&#45;&gt;R_STANDARD_REFERENCE_LIST -->
<g id="edge2" class="edge">
<title>R_CONTACT_TYPECONTACT_CATEGORY:w&#45;&gt;R_STANDARD_REFERENCE_LIST:e</title>
<path fill="none" stroke="#000000" d="M274.4523,-222.5094C253.4974,-206.8552 267.7837,-152.7 232.5,-152.7"/>
<polygon fill="#000000" stroke="#000000" points="280.8338,-224.4131 287.4709,-230.1498 284.6669,-225.5565 288.5,-226.7 288.5,-226.7 288.5,-226.7 284.6669,-225.5565 289.5291,-223.2502 280.8338,-224.4131 280.8338,-224.4131"/>
<ellipse fill="none" stroke="#000000" cx="277.7674" cy="-223.4983" rx="3.2" ry="3.2"/>
</g>
</g>
</svg>
