<?xml version="1.0" encoding="UTF-8" standalone="no"?>
<!DOCTYPE svg PUBLIC "-//W3C//DTD SVG 1.1//EN"
 "http://www.w3.org/Graphics/SVG/1.1/DTD/svg11.dtd">
<!-- Generated by graphviz version 2.40.1 (20161225.0304)
 -->
<!-- Title: oneDegreeRelationshipsDiagram Pages: 1 -->
<svg width="571pt" height="325pt"
 viewBox="0.00 0.00 571.00 325.20" xmlns="http://www.w3.org/2000/svg" xmlns:xlink="http://www.w3.org/1999/xlink">
<g id="graph0" class="graph" transform="scale(1 1) rotate(0) translate(4 321.2)">
<title>oneDegreeRelationshipsDiagram</title>
<polygon fill="#ffffff" stroke="transparent" points="-4,4 -4,-321.2 567,-321.2 567,4 -4,4"/>
<text text-anchor="middle" x="72.4936" y="-7.3" font-family="Helvetica,sans-Serif" font-size="11.00" fill="#000000">Generated by SchemaSpy</text>
<!-- R_CON_OUT_TYPE_CONTACT_TYPE -->
<g id="node1" class="node">
<title>R_CON_OUT_TYPE_CONTACT_TYPE</title>
<g id="a_node1"><a xlink:href="../../tables/R_CON_OUT_TYPE_CONTACT_TYPE.html" xlink:title="R_CON_OUT_TYPE_CONTACT_TYPE" target="_top">
<polygon fill="#ffffff" stroke="transparent" points="286,-128.7 286,-262.7 555,-262.7 555,-128.7 286,-128.7"/>
<polygon fill="#f5f5f5" stroke="transparent" points="288.5,-237.7 288.5,-260.7 553.5,-260.7 553.5,-237.7 288.5,-237.7"/>
<polygon fill="none" stroke="#000000" points="288.5,-237.7 288.5,-260.7 553.5,-260.7 553.5,-237.7 288.5,-237.7"/>
<text text-anchor="start" x="293.5" y="-246.8" font-family="Helvetica,sans-Serif" font-weight="bold" font-size="11.00" fill="#000000">R_CON_OUT_TYPE_CONTACT_TYPE</text>
<text text-anchor="start" x="518.5437" y="-245.8" font-family="Helvetica,sans-Serif" font-size="11.00" fill="#000000">[table]</text>
<polygon fill="none" stroke="#000000" points="288.5,-215.7 288.5,-237.7 492.5,-237.7 492.5,-215.7 288.5,-215.7"/>
<image xlink:href="../../images/primaryKeys.png" width="11px" height="12px" preserveAspectRatio="xMinYMin meet" x="293.5" y="-232.7"/>
<text text-anchor="start" x="308.5" y="-222.8" font-family="Helvetica,sans-Serif" font-size="11.00" fill="#000000">CONTACT_OUTCOME_TYPE_ID</text>
<polygon fill="none" stroke="#000000" points="492.5,-215.7 492.5,-237.7 553.5,-237.7 553.5,-215.7 492.5,-215.7"/>
<text text-anchor="start" x="495.1865" y="-223.4" font-family="Helvetica,sans-Serif" font-size="11.00" fill="#000000">number[38]</text>
<polygon fill="none" stroke="#000000" points="288.5,-193.7 288.5,-215.7 492.5,-215.7 492.5,-193.7 288.5,-193.7"/>
<image xlink:href="../../images/primaryKeys.png" width="11px" height="12px" preserveAspectRatio="xMinYMin meet" x="293.5" y="-210.7"/>
<text text-anchor="start" x="308.5" y="-200.8" font-family="Helvetica,sans-Serif" font-size="11.00" fill="#000000">CONTACT_TYPE_ID</text>
<polygon fill="none" stroke="#000000" points="492.5,-193.7 492.5,-215.7 553.5,-215.7 553.5,-193.7 492.5,-193.7"/>
<text text-anchor="start" x="495.1865" y="-201.4" font-family="Helvetica,sans-Serif" font-size="11.00" fill="#000000">number[38]</text>
<polygon fill="none" stroke="#000000" points="288.5,-171.7 288.5,-193.7 492.5,-193.7 492.5,-171.7 288.5,-171.7"/>
<text text-anchor="start" x="308.5" y="-178.8" font-family="Helvetica,sans-Serif" font-size="11.00" fill="#000000">ROW_VERSION</text>
<polygon fill="none" stroke="#000000" points="492.5,-171.7 492.5,-193.7 553.5,-193.7 553.5,-171.7 492.5,-171.7"/>
<text text-anchor="start" x="495.1865" y="-179.4" font-family="Helvetica,sans-Serif" font-size="11.00" fill="#000000">number[38]</text>
<polygon fill="none" stroke="#000000" points="288.5,-149.7 288.5,-171.7 492.5,-171.7 492.5,-149.7 288.5,-149.7"/>
<image xlink:href="../../images/primaryKeys.png" width="11px" height="12px" preserveAspectRatio="xMinYMin meet" x="293.5" y="-166.7"/>
<text text-anchor="start" x="308.5" y="-156.8" font-family="Helvetica,sans-Serif" font-size="11.00" fill="#000000">TRAINING_SESSION_ID</text>
<polygon fill="none" stroke="#000000" points="492.5,-149.7 492.5,-171.7 553.5,-171.7 553.5,-149.7 492.5,-149.7"/>
<text text-anchor="start" x="495.1865" y="-157.4" font-family="Helvetica,sans-Serif" font-size="11.00" fill="#000000">number[38]</text>
<polygon fill="#ffffff" stroke="transparent" points="288.5,-130.7 288.5,-149.7 381.5,-149.7 381.5,-130.7 288.5,-130.7"/>
<polygon fill="none" stroke="#000000" points="288.5,-130.7 288.5,-149.7 381.5,-149.7 381.5,-130.7 288.5,-130.7"/>
<text text-anchor="start" x="291.5" y="-136.8" font-family="Helvetica,sans-Serif" font-size="11.00" fill="#000000">&lt; 2</text>
<polygon fill="#ffffff" stroke="transparent" points="381.5,-130.7 381.5,-149.7 492.5,-149.7 492.5,-130.7 381.5,-130.7"/>
<polygon fill="none" stroke="#000000" points="381.5,-130.7 381.5,-149.7 492.5,-149.7 492.5,-130.7 381.5,-130.7"/>
<text text-anchor="start" x="457.1105" y="-136.8" font-family="Helvetica,sans-Serif" font-size="11.00" fill="#000000">0 rows</text>
<polygon fill="#ffffff" stroke="transparent" points="492.5,-130.7 492.5,-149.7 553.5,-149.7 553.5,-130.7 492.5,-130.7"/>
<polygon fill="none" stroke="#000000" points="492.5,-130.7 492.5,-149.7 553.5,-149.7 553.5,-130.7 492.5,-130.7"/>
<text text-anchor="start" x="534.9053" y="-136.8" font-family="Helvetica,sans-Serif" font-size="11.00" fill="#000000">0 &gt;</text>
<polygon fill="none" stroke="#000000" stroke-width="2" points="287,-129.7 287,-261.7 554,-261.7 554,-129.7 287,-129.7"/>
</a>
</g>
</g>
<!-- R_CONTACT_OUTCOME_TYPE -->
<g id="node2" class="node">
<title>R_CONTACT_OUTCOME_TYPE</title>
<g id="a_node2"><a xlink:href="../../tables/R_CONTACT_OUTCOME_TYPE.html" xlink:title="R_CONTACT_OUTCOME_TYPE" target="_top">
<polygon fill="#ffffff" stroke="transparent" points="15,-208.2 15,-313.2 230,-313.2 230,-208.2 15,-208.2"/>
<polygon fill="#f5f5f5" stroke="transparent" points="15.5,-289.7 15.5,-312.7 230.5,-312.7 230.5,-289.7 15.5,-289.7"/>
<polygon fill="none" stroke="#000000" points="15.5,-289.7 15.5,-312.7 230.5,-312.7 230.5,-289.7 15.5,-289.7"/>
<text text-anchor="start" x="20.5" y="-298.8" font-family="Helvetica,sans-Serif" font-weight="bold" font-size="11.00" fill="#000000">R_CONTACT_OUTCOME_TYPE</text>
<text text-anchor="start" x="195.5437" y="-297.8" font-family="Helvetica,sans-Serif" font-size="11.00" fill="#000000">[table]</text>
<polygon fill="none" stroke="#000000" points="15.5,-267.7 15.5,-289.7 230.5,-289.7 230.5,-267.7 15.5,-267.7"/>
<image xlink:href="../../images/primaryKeys.png" width="11px" height="12px" preserveAspectRatio="xMinYMin meet" x="20.5" y="-284.7"/>
<text text-anchor="start" x="35.5" y="-274.8" font-family="Helvetica,sans-Serif" font-size="11.00" fill="#000000">CONTACT_OUTCOME_TYPE_ID</text>
<polygon fill="none" stroke="#000000" points="15.5,-245.7 15.5,-267.7 230.5,-267.7 230.5,-245.7 15.5,-245.7"/>
<image xlink:href="../../images/primaryKeys.png" width="11px" height="12px" preserveAspectRatio="xMinYMin meet" x="20.5" y="-262.7"/>
<text text-anchor="start" x="35.5" y="-252.8" font-family="Helvetica,sans-Serif" font-size="11.00" fill="#000000">TRAINING_SESSION_ID</text>
<polygon fill="none" stroke="#000000" points="15.5,-226.7 15.5,-245.7 230.5,-245.7 230.5,-226.7 15.5,-226.7"/>
<text text-anchor="start" x="18.5" y="-232.8" font-family="Helvetica,sans-Serif" font-size="11.00" fill="#000000">...</text>
<polygon fill="#ffffff" stroke="transparent" points="15.5,-207.7 15.5,-226.7 93.5,-226.7 93.5,-207.7 15.5,-207.7"/>
<polygon fill="none" stroke="#000000" points="15.5,-207.7 15.5,-226.7 93.5,-226.7 93.5,-207.7 15.5,-207.7"/>
<text text-anchor="start" x="18.5" y="-213.8" font-family="Helvetica,sans-Serif" font-size="11.00" fill="#000000"> &#160;</text>
<polygon fill="#ffffff" stroke="transparent" points="93.5,-207.7 93.5,-226.7 176.5,-226.7 176.5,-207.7 93.5,-207.7"/>
<polygon fill="none" stroke="#000000" points="93.5,-207.7 93.5,-226.7 176.5,-226.7 176.5,-207.7 93.5,-207.7"/>
<text text-anchor="start" x="128.8807" y="-213.8" font-family="Helvetica,sans-Serif" font-size="11.00" fill="#000000">213 rows</text>
<polygon fill="#ffffff" stroke="transparent" points="176.5,-207.7 176.5,-226.7 230.5,-226.7 230.5,-207.7 176.5,-207.7"/>
<polygon fill="none" stroke="#000000" points="176.5,-207.7 176.5,-226.7 230.5,-226.7 230.5,-207.7 176.5,-207.7"/>
<text text-anchor="start" x="211.9053" y="-213.8" font-family="Helvetica,sans-Serif" font-size="11.00" fill="#000000">9 &gt;</text>
</a>
</g>
</g>
<!-- R_CON_OUT_TYPE_CONTACT_TYPE&#45;&gt;R_CONTACT_OUTCOME_TYPE -->
<g id="edge1" class="edge">
<title>R_CON_OUT_TYPE_CONTACT_TYPE:w&#45;&gt;R_CONTACT_OUTCOME_TYPE:e</title>
<path fill="none" stroke="#000000" d="M274.5014,-230.6085C256.3616,-242.7016 259.3058,-278.7 230.5,-278.7"/>
<polygon fill="#000000" stroke="#000000" points="280.7947,-228.8514 289.4681,-230.1674 284.6473,-227.7757 288.5,-226.7 288.5,-226.7 288.5,-226.7 284.6473,-227.7757 287.5319,-223.2326 280.7947,-228.8514 280.7947,-228.8514"/>
<ellipse fill="none" stroke="#000000" cx="277.7126" cy="-229.7119" rx="3.2" ry="3.2"/>
</g>
<!-- R_CONTACT_TYPE -->
<g id="node3" class="node">
<title>R_CONTACT_TYPE</title>
<g id="a_node3"><a xlink:href="../../tables/R_CONTACT_TYPE.html" xlink:title="R_CONTACT_TYPE" target="_top">
<polygon fill="#ffffff" stroke="transparent" points="8,-38.2 8,-187.2 237,-187.2 237,-38.2 8,-38.2"/>
<polygon fill="#f5f5f5" stroke="transparent" points="8.5,-163.7 8.5,-186.7 237.5,-186.7 237.5,-163.7 8.5,-163.7"/>
<polygon fill="none" stroke="#000000" points="8.5,-163.7 8.5,-186.7 237.5,-186.7 237.5,-163.7 8.5,-163.7"/>
<text text-anchor="start" x="13.5" y="-172.8" font-family="Helvetica,sans-Serif" font-weight="bold" font-size="11.00" fill="#000000">R_CONTACT_TYPE</text>
<text text-anchor="start" x="202.5437" y="-171.8" font-family="Helvetica,sans-Serif" font-size="11.00" fill="#000000">[table]</text>
<polygon fill="none" stroke="#000000" points="8.5,-141.7 8.5,-163.7 237.5,-163.7 237.5,-141.7 8.5,-141.7"/>
<image xlink:href="../../images/primaryKeys.png" width="11px" height="12px" preserveAspectRatio="xMinYMin meet" x="13.5" y="-158.7"/>
<text text-anchor="start" x="28.5" y="-148.8" font-family="Helvetica,sans-Serif" font-size="11.00" fill="#000000">CONTACT_TYPE_ID</text>
<polygon fill="none" stroke="#000000" points="8.5,-119.7 8.5,-141.7 237.5,-141.7 237.5,-119.7 8.5,-119.7"/>
<image xlink:href="../../images/primaryKeys.png" width="11px" height="12px" preserveAspectRatio="xMinYMin meet" x="13.5" y="-136.7"/>
<text text-anchor="start" x="28.5" y="-126.8" font-family="Helvetica,sans-Serif" font-size="11.00" fill="#000000">CODE</text>
<polygon fill="none" stroke="#000000" points="8.5,-97.7 8.5,-119.7 237.5,-119.7 237.5,-97.7 8.5,-97.7"/>
<image xlink:href="../../images/primaryKeys.png" width="11px" height="12px" preserveAspectRatio="xMinYMin meet" x="13.5" y="-114.7"/>
<text text-anchor="start" x="28.5" y="-104.8" font-family="Helvetica,sans-Serif" font-size="11.00" fill="#000000">TRAINING_SESSION_ID</text>
<polygon fill="none" stroke="#000000" points="8.5,-75.7 8.5,-97.7 237.5,-97.7 237.5,-75.7 8.5,-75.7"/>
<image xlink:href="../../images/primaryKeys.png" width="11px" height="12px" preserveAspectRatio="xMinYMin meet" x="13.5" y="-92.7"/>
<text text-anchor="start" x="28.5" y="-82.8" font-family="Helvetica,sans-Serif" font-size="11.00" fill="#000000">CONTACT_TYPE_ICON_ID</text>
<polygon fill="none" stroke="#000000" points="8.5,-56.7 8.5,-75.7 237.5,-75.7 237.5,-56.7 8.5,-56.7"/>
<text text-anchor="start" x="11.5" y="-62.8" font-family="Helvetica,sans-Serif" font-size="11.00" fill="#000000">...</text>
<polygon fill="#ffffff" stroke="transparent" points="8.5,-37.7 8.5,-56.7 90.5,-56.7 90.5,-37.7 8.5,-37.7"/>
<polygon fill="none" stroke="#000000" points="8.5,-37.7 8.5,-56.7 90.5,-56.7 90.5,-37.7 8.5,-37.7"/>
<text text-anchor="start" x="11.5" y="-43.8" font-family="Helvetica,sans-Serif" font-size="11.00" fill="#000000">&lt; 1</text>
<polygon fill="#ffffff" stroke="transparent" points="90.5,-37.7 90.5,-56.7 179.5,-56.7 179.5,-37.7 90.5,-37.7"/>
<polygon fill="none" stroke="#000000" points="90.5,-37.7 90.5,-56.7 179.5,-56.7 179.5,-37.7 90.5,-37.7"/>
<text text-anchor="start" x="122.7089" y="-43.8" font-family="Helvetica,sans-Serif" font-size="11.00" fill="#000000">3,019 rows</text>
<polygon fill="#ffffff" stroke="transparent" points="179.5,-37.7 179.5,-56.7 237.5,-56.7 237.5,-37.7 179.5,-37.7"/>
<polygon fill="none" stroke="#000000" points="179.5,-37.7 179.5,-56.7 237.5,-56.7 237.5,-37.7 179.5,-37.7"/>
<text text-anchor="start" x="212.7904" y="-43.8" font-family="Helvetica,sans-Serif" font-size="11.00" fill="#000000">21 &gt;</text>
</a>
</g>
</g>
<!-- R_CON_OUT_TYPE_CONTACT_TYPE&#45;&gt;R_CONTACT_TYPE -->
<g id="edge2" class="edge">
<title>R_CON_OUT_TYPE_CONTACT_TYPE:w&#45;&gt;R_CONTACT_TYPE:e</title>
<path fill="none" stroke="#000000" d="M274.5468,-199.9012C259.661,-187.0281 263.8017,-152.7 237.5,-152.7"/>
<polygon fill="#000000" stroke="#000000" points="280.9349,-202.0982 287.3292,-208.1043 284.7175,-203.3991 288.5,-204.7 288.5,-204.7 288.5,-204.7 284.7175,-203.3991 289.6708,-201.2957 280.9349,-202.0982 280.9349,-202.0982"/>
<ellipse fill="none" stroke="#000000" cx="277.9089" cy="-201.0574" rx="3.2" ry="3.2"/>
</g>
</g>
</svg>
