<?xml version="1.0" encoding="UTF-8" standalone="no"?>
<!DOCTYPE svg PUBLIC "-//W3C//DTD SVG 1.1//EN"
 "http://www.w3.org/Graphics/SVG/1.1/DTD/svg11.dtd">
<!-- Generated by graphviz version 2.40.1 (20161225.0304)
 -->
<!-- Title: oneDegreeRelationshipsDiagram Pages: 1 -->
<svg width="588pt" height="369pt"
 viewBox="0.00 0.00 588.00 369.20" xmlns="http://www.w3.org/2000/svg" xmlns:xlink="http://www.w3.org/1999/xlink">
<g id="graph0" class="graph" transform="scale(1 1) rotate(0) translate(4 365.2)">
<title>oneDegreeRelationshipsDiagram</title>
<polygon fill="#ffffff" stroke="transparent" points="-4,4 -4,-365.2 584,-365.2 584,4 -4,4"/>
<text text-anchor="middle" x="72.4936" y="-7.3" font-family="Helvetica,sans-Serif" font-size="11.00" fill="#000000">Generated by SchemaSpy</text>
<!-- R_CON_TYPE_LIC_CON_TYPEMAINCAT -->
<g id="node1" class="node">
<title>R_CON_TYPE_LIC_CON_TYPEMAINCAT</title>
<g id="a_node1"><a xlink:href="../../tables/R_CON_TYPE_LIC_CON_TYPEMAINCAT.html" xlink:title="R_CON_TYPE_LIC_CON_TYPEMAINCAT" target="_top">
<polygon fill="#ffffff" stroke="transparent" points="286,-150.7 286,-284.7 572,-284.7 572,-150.7 286,-150.7"/>
<polygon fill="#f5f5f5" stroke="transparent" points="288,-259.7 288,-282.7 570,-282.7 570,-259.7 288,-259.7"/>
<polygon fill="none" stroke="#000000" points="288,-259.7 288,-282.7 570,-282.7 570,-259.7 288,-259.7"/>
<text text-anchor="start" x="293" y="-268.8" font-family="Helvetica,sans-Serif" font-weight="bold" font-size="11.00" fill="#000000">R_CON_TYPE_LIC_CON_TYPEMAINCAT</text>
<text text-anchor="start" x="535.0437" y="-267.8" font-family="Helvetica,sans-Serif" font-size="11.00" fill="#000000">[table]</text>
<polygon fill="none" stroke="#000000" points="288,-237.7 288,-259.7 509,-259.7 509,-237.7 288,-237.7"/>
<image xlink:href="../../images/primaryKeys.png" width="11px" height="12px" preserveAspectRatio="xMinYMin meet" x="293" y="-254.7"/>
<text text-anchor="start" x="308" y="-244.8" font-family="Helvetica,sans-Serif" font-size="11.00" fill="#000000">CONTACT_TYPE_ID</text>
<polygon fill="none" stroke="#000000" points="509,-237.7 509,-259.7 570,-259.7 570,-237.7 509,-237.7"/>
<text text-anchor="start" x="511.6865" y="-245.4" font-family="Helvetica,sans-Serif" font-size="11.00" fill="#000000">number[38]</text>
<polygon fill="none" stroke="#000000" points="288,-215.7 288,-237.7 509,-237.7 509,-215.7 288,-215.7"/>
<image xlink:href="../../images/primaryKeys.png" width="11px" height="12px" preserveAspectRatio="xMinYMin meet" x="293" y="-232.7"/>
<text text-anchor="start" x="308" y="-222.8" font-family="Helvetica,sans-Serif" font-size="11.00" fill="#000000">LIC_COND_TYPE_MAIN_CAT_ID</text>
<polygon fill="none" stroke="#000000" points="509,-215.7 509,-237.7 570,-237.7 570,-215.7 509,-215.7"/>
<text text-anchor="start" x="511.6865" y="-223.4" font-family="Helvetica,sans-Serif" font-size="11.00" fill="#000000">number[38]</text>
<polygon fill="none" stroke="#000000" points="288,-193.7 288,-215.7 509,-215.7 509,-193.7 288,-193.7"/>
<text text-anchor="start" x="308" y="-200.8" font-family="Helvetica,sans-Serif" font-size="11.00" fill="#000000">ROW_VERSION</text>
<polygon fill="none" stroke="#000000" points="509,-193.7 509,-215.7 570,-215.7 570,-193.7 509,-193.7"/>
<text text-anchor="start" x="511.6865" y="-201.4" font-family="Helvetica,sans-Serif" font-size="11.00" fill="#000000">number[38]</text>
<polygon fill="none" stroke="#000000" points="288,-171.7 288,-193.7 509,-193.7 509,-171.7 288,-171.7"/>
<image xlink:href="../../images/primaryKeys.png" width="11px" height="12px" preserveAspectRatio="xMinYMin meet" x="293" y="-188.7"/>
<text text-anchor="start" x="308" y="-178.8" font-family="Helvetica,sans-Serif" font-size="11.00" fill="#000000">TRAINING_SESSION_ID</text>
<polygon fill="none" stroke="#000000" points="509,-171.7 509,-193.7 570,-193.7 570,-171.7 509,-171.7"/>
<text text-anchor="start" x="511.6865" y="-179.4" font-family="Helvetica,sans-Serif" font-size="11.00" fill="#000000">number[38]</text>
<polygon fill="#ffffff" stroke="transparent" points="288,-152.7 288,-171.7 379,-171.7 379,-152.7 288,-152.7"/>
<polygon fill="none" stroke="#000000" points="288,-152.7 288,-171.7 379,-171.7 379,-152.7 288,-152.7"/>
<text text-anchor="start" x="291" y="-158.8" font-family="Helvetica,sans-Serif" font-size="11.00" fill="#000000">&lt; 2</text>
<polygon fill="#ffffff" stroke="transparent" points="379,-152.7 379,-171.7 509,-171.7 509,-152.7 379,-152.7"/>
<polygon fill="none" stroke="#000000" points="379,-152.7 379,-171.7 509,-171.7 509,-152.7 379,-152.7"/>
<text text-anchor="start" x="452.2089" y="-158.8" font-family="Helvetica,sans-Serif" font-size="11.00" fill="#000000">1,136 rows</text>
<polygon fill="#ffffff" stroke="transparent" points="509,-152.7 509,-171.7 570,-171.7 570,-152.7 509,-152.7"/>
<polygon fill="none" stroke="#000000" points="509,-152.7 509,-171.7 570,-171.7 570,-152.7 509,-152.7"/>
<text text-anchor="start" x="551.4053" y="-158.8" font-family="Helvetica,sans-Serif" font-size="11.00" fill="#000000">0 &gt;</text>
<polygon fill="none" stroke="#000000" stroke-width="2" points="287,-151.7 287,-283.7 571,-283.7 571,-151.7 287,-151.7"/>
</a>
</g>
</g>
<!-- R_CONTACT_TYPE -->
<g id="node2" class="node">
<title>R_CONTACT_TYPE</title>
<g id="a_node2"><a xlink:href="../../tables/R_CONTACT_TYPE.html" xlink:title="R_CONTACT_TYPE" target="_top">
<polygon fill="#ffffff" stroke="transparent" points="8,-208.2 8,-357.2 237,-357.2 237,-208.2 8,-208.2"/>
<polygon fill="#f5f5f5" stroke="transparent" points="8.5,-333.7 8.5,-356.7 237.5,-356.7 237.5,-333.7 8.5,-333.7"/>
<polygon fill="none" stroke="#000000" points="8.5,-333.7 8.5,-356.7 237.5,-356.7 237.5,-333.7 8.5,-333.7"/>
<text text-anchor="start" x="13.5" y="-342.8" font-family="Helvetica,sans-Serif" font-weight="bold" font-size="11.00" fill="#000000">R_CONTACT_TYPE</text>
<text text-anchor="start" x="202.5437" y="-341.8" font-family="Helvetica,sans-Serif" font-size="11.00" fill="#000000">[table]</text>
<polygon fill="none" stroke="#000000" points="8.5,-311.7 8.5,-333.7 237.5,-333.7 237.5,-311.7 8.5,-311.7"/>
<image xlink:href="../../images/primaryKeys.png" width="11px" height="12px" preserveAspectRatio="xMinYMin meet" x="13.5" y="-328.7"/>
<text text-anchor="start" x="28.5" y="-318.8" font-family="Helvetica,sans-Serif" font-size="11.00" fill="#000000">CONTACT_TYPE_ID</text>
<polygon fill="none" stroke="#000000" points="8.5,-289.7 8.5,-311.7 237.5,-311.7 237.5,-289.7 8.5,-289.7"/>
<image xlink:href="../../images/primaryKeys.png" width="11px" height="12px" preserveAspectRatio="xMinYMin meet" x="13.5" y="-306.7"/>
<text text-anchor="start" x="28.5" y="-296.8" font-family="Helvetica,sans-Serif" font-size="11.00" fill="#000000">CODE</text>
<polygon fill="none" stroke="#000000" points="8.5,-267.7 8.5,-289.7 237.5,-289.7 237.5,-267.7 8.5,-267.7"/>
<image xlink:href="../../images/primaryKeys.png" width="11px" height="12px" preserveAspectRatio="xMinYMin meet" x="13.5" y="-284.7"/>
<text text-anchor="start" x="28.5" y="-274.8" font-family="Helvetica,sans-Serif" font-size="11.00" fill="#000000">TRAINING_SESSION_ID</text>
<polygon fill="none" stroke="#000000" points="8.5,-245.7 8.5,-267.7 237.5,-267.7 237.5,-245.7 8.5,-245.7"/>
<image xlink:href="../../images/primaryKeys.png" width="11px" height="12px" preserveAspectRatio="xMinYMin meet" x="13.5" y="-262.7"/>
<text text-anchor="start" x="28.5" y="-252.8" font-family="Helvetica,sans-Serif" font-size="11.00" fill="#000000">CONTACT_TYPE_ICON_ID</text>
<polygon fill="none" stroke="#000000" points="8.5,-226.7 8.5,-245.7 237.5,-245.7 237.5,-226.7 8.5,-226.7"/>
<text text-anchor="start" x="11.5" y="-232.8" font-family="Helvetica,sans-Serif" font-size="11.00" fill="#000000">...</text>
<polygon fill="#ffffff" stroke="transparent" points="8.5,-207.7 8.5,-226.7 90.5,-226.7 90.5,-207.7 8.5,-207.7"/>
<polygon fill="none" stroke="#000000" points="8.5,-207.7 8.5,-226.7 90.5,-226.7 90.5,-207.7 8.5,-207.7"/>
<text text-anchor="start" x="11.5" y="-213.8" font-family="Helvetica,sans-Serif" font-size="11.00" fill="#000000">&lt; 1</text>
<polygon fill="#ffffff" stroke="transparent" points="90.5,-207.7 90.5,-226.7 179.5,-226.7 179.5,-207.7 90.5,-207.7"/>
<polygon fill="none" stroke="#000000" points="90.5,-207.7 90.5,-226.7 179.5,-226.7 179.5,-207.7 90.5,-207.7"/>
<text text-anchor="start" x="122.7089" y="-213.8" font-family="Helvetica,sans-Serif" font-size="11.00" fill="#000000">3,019 rows</text>
<polygon fill="#ffffff" stroke="transparent" points="179.5,-207.7 179.5,-226.7 237.5,-226.7 237.5,-207.7 179.5,-207.7"/>
<polygon fill="none" stroke="#000000" points="179.5,-207.7 179.5,-226.7 237.5,-226.7 237.5,-207.7 179.5,-207.7"/>
<text text-anchor="start" x="212.7904" y="-213.8" font-family="Helvetica,sans-Serif" font-size="11.00" fill="#000000">21 &gt;</text>
</a>
</g>
</g>
<!-- R_CON_TYPE_LIC_CON_TYPEMAINCAT&#45;&gt;R_CONTACT_TYPE -->
<g id="edge1" class="edge">
<title>R_CON_TYPE_LIC_CON_TYPEMAINCAT:w&#45;&gt;R_CONTACT_TYPE:e</title>
<path fill="none" stroke="#000000" d="M274.1154,-253.329C255.4593,-269.5294 271.2515,-322.7 237.5,-322.7"/>
<polygon fill="#000000" stroke="#000000" points="280.4107,-251.2303 289.1386,-252.1152 284.2053,-249.9651 288,-248.7 288,-248.7 288,-248.7 284.2053,-249.9651 286.8614,-245.2848 280.4107,-251.2303 280.4107,-251.2303"/>
<ellipse fill="none" stroke="#000000" cx="277.3749" cy="-252.2424" rx="3.2" ry="3.2"/>
</g>
<!-- R_LIC_COND_TYPE_MAIN_CAT -->
<g id="node3" class="node">
<title>R_LIC_COND_TYPE_MAIN_CAT</title>
<g id="a_node3"><a xlink:href="../../tables/R_LIC_COND_TYPE_MAIN_CAT.html" xlink:title="R_LIC_COND_TYPE_MAIN_CAT" target="_top">
<polygon fill="#ffffff" stroke="transparent" points="18,-38.2 18,-187.2 227,-187.2 227,-38.2 18,-38.2"/>
<polygon fill="#f5f5f5" stroke="transparent" points="18.5,-163.7 18.5,-186.7 227.5,-186.7 227.5,-163.7 18.5,-163.7"/>
<polygon fill="none" stroke="#000000" points="18.5,-163.7 18.5,-186.7 227.5,-186.7 227.5,-163.7 18.5,-163.7"/>
<text text-anchor="start" x="23.3862" y="-172.8" font-family="Helvetica,sans-Serif" font-weight="bold" font-size="11.00" fill="#000000">R_LIC_COND_TYPE_MAIN_CAT</text>
<text text-anchor="start" x="193.0219" y="-171.8" font-family="Helvetica,sans-Serif" font-size="11.00" fill="#000000">[table]</text>
<polygon fill="none" stroke="#000000" points="18.5,-141.7 18.5,-163.7 227.5,-163.7 227.5,-141.7 18.5,-141.7"/>
<image xlink:href="../../images/primaryKeys.png" width="11px" height="12px" preserveAspectRatio="xMinYMin meet" x="23.5" y="-158.7"/>
<text text-anchor="start" x="45.8577" y="-148.8" font-family="Helvetica,sans-Serif" font-size="11.00" fill="#000000">LIC_COND_TYPE_MAIN_CAT_ID</text>
<polygon fill="none" stroke="#000000" points="18.5,-119.7 18.5,-141.7 227.5,-141.7 227.5,-119.7 18.5,-119.7"/>
<image xlink:href="../../images/primaryKeys.png" width="11px" height="12px" preserveAspectRatio="xMinYMin meet" x="23.5" y="-136.7"/>
<text text-anchor="start" x="51.5" y="-126.8" font-family="Helvetica,sans-Serif" font-size="11.00" fill="#000000">CODE</text>
<polygon fill="none" stroke="#000000" points="18.5,-97.7 18.5,-119.7 227.5,-119.7 227.5,-97.7 18.5,-97.7"/>
<image xlink:href="../../images/primaryKeys.png" width="11px" height="12px" preserveAspectRatio="xMinYMin meet" x="23.5" y="-114.7"/>
<text text-anchor="start" x="51.5" y="-104.8" font-family="Helvetica,sans-Serif" font-size="11.00" fill="#000000">UNITS_ID</text>
<polygon fill="none" stroke="#000000" points="18.5,-75.7 18.5,-97.7 227.5,-97.7 227.5,-75.7 18.5,-75.7"/>
<image xlink:href="../../images/primaryKeys.png" width="11px" height="12px" preserveAspectRatio="xMinYMin meet" x="23.5" y="-92.7"/>
<text text-anchor="start" x="51.5" y="-82.8" font-family="Helvetica,sans-Serif" font-size="11.00" fill="#000000">TRAINING_SESSION_ID</text>
<polygon fill="none" stroke="#000000" points="18.5,-56.7 18.5,-75.7 227.5,-75.7 227.5,-56.7 18.5,-56.7"/>
<text text-anchor="start" x="21.5" y="-62.8" font-family="Helvetica,sans-Serif" font-size="11.00" fill="#000000">...</text>
<polygon fill="#ffffff" stroke="transparent" points="18.5,-37.7 18.5,-56.7 97.5,-56.7 97.5,-37.7 18.5,-37.7"/>
<polygon fill="none" stroke="#000000" points="18.5,-37.7 18.5,-56.7 97.5,-56.7 97.5,-37.7 18.5,-37.7"/>
<text text-anchor="start" x="21.5" y="-43.8" font-family="Helvetica,sans-Serif" font-size="11.00" fill="#000000">&lt; 1</text>
<polygon fill="#ffffff" stroke="transparent" points="97.5,-37.7 97.5,-56.7 176.5,-56.7 176.5,-37.7 97.5,-37.7"/>
<polygon fill="none" stroke="#000000" points="97.5,-37.7 97.5,-56.7 176.5,-56.7 176.5,-37.7 97.5,-37.7"/>
<text text-anchor="start" x="128.8807" y="-43.8" font-family="Helvetica,sans-Serif" font-size="11.00" fill="#000000">550 rows</text>
<polygon fill="#ffffff" stroke="transparent" points="176.5,-37.7 176.5,-56.7 227.5,-56.7 227.5,-37.7 176.5,-37.7"/>
<polygon fill="none" stroke="#000000" points="176.5,-37.7 176.5,-56.7 227.5,-56.7 227.5,-37.7 176.5,-37.7"/>
<text text-anchor="start" x="208.9053" y="-43.8" font-family="Helvetica,sans-Serif" font-size="11.00" fill="#000000">8 &gt;</text>
</a>
</g>
</g>
<!-- R_CON_TYPE_LIC_CON_TYPEMAINCAT&#45;&gt;R_LIC_COND_TYPE_MAIN_CAT -->
<g id="edge2" class="edge">
<title>R_CON_TYPE_LIC_CON_TYPEMAINCAT:w&#45;&gt;R_LIC_COND_TYPE_MAIN_CAT:e</title>
<path fill="none" stroke="#000000" d="M273.9877,-222.9286C250.9562,-207.8488 264.1736,-152.7 227.5,-152.7"/>
<polygon fill="#000000" stroke="#000000" points="280.2749,-224.6208 287.0643,-230.1763 284.1375,-225.6604 288,-226.7 288,-226.7 288,-226.7 284.1375,-225.6604 288.9357,-223.2237 280.2749,-224.6208 280.2749,-224.6208"/>
<ellipse fill="none" stroke="#000000" cx="277.1849" cy="-223.7891" rx="3.2" ry="3.2"/>
</g>
</g>
</svg>
