<?xml version="1.0" encoding="UTF-8" standalone="no"?>
<!DOCTYPE svg PUBLIC "-//W3C//DTD SVG 1.1//EN"
 "http://www.w3.org/Graphics/SVG/1.1/DTD/svg11.dtd">
<!-- Generated by graphviz version 2.40.1 (20161225.0304)
 -->
<!-- Title: oneDegreeRelationshipsDiagram Pages: 1 -->
<svg width="563pt" height="223pt"
 viewBox="0.00 0.00 563.00 222.70" xmlns="http://www.w3.org/2000/svg" xmlns:xlink="http://www.w3.org/1999/xlink">
<g id="graph0" class="graph" transform="scale(1 1) rotate(0) translate(4 218.7)">
<title>oneDegreeRelationshipsDiagram</title>
<polygon fill="#ffffff" stroke="transparent" points="-4,4 -4,-218.7 559,-218.7 559,4 -4,4"/>
<text text-anchor="middle" x="72.4936" y="-7.3" font-family="Helvetica,sans-Serif" font-size="11.00" fill="#000000">Generated by SchemaSpy</text>
<!-- R_CONTACT_TYPE_NOMIS_TYPE -->
<g id="node1" class="node">
<title>R_CONTACT_TYPE_NOMIS_TYPE</title>
<g id="a_node1"><a xlink:href="../../tables/R_CONTACT_TYPE_NOMIS_TYPE.html" xlink:title="R_CONTACT_TYPE_NOMIS_TYPE" target="_top">
<polygon fill="#ffffff" stroke="transparent" points="286,-120.7 286,-210.7 547,-210.7 547,-120.7 286,-120.7"/>
<polygon fill="#f5f5f5" stroke="transparent" points="288.5,-185.7 288.5,-208.7 545.5,-208.7 545.5,-185.7 288.5,-185.7"/>
<polygon fill="none" stroke="#000000" points="288.5,-185.7 288.5,-208.7 545.5,-208.7 545.5,-185.7 288.5,-185.7"/>
<text text-anchor="start" x="293.5" y="-194.8" font-family="Helvetica,sans-Serif" font-weight="bold" font-size="11.00" fill="#000000">R_CONTACT_TYPE_NOMIS_TYPE</text>
<text text-anchor="start" x="510.5437" y="-193.8" font-family="Helvetica,sans-Serif" font-size="11.00" fill="#000000">[table]</text>
<polygon fill="none" stroke="#000000" points="288.5,-163.7 288.5,-185.7 478.5,-185.7 478.5,-163.7 288.5,-163.7"/>
<image xlink:href="../../images/primaryKeys.png" width="11px" height="12px" preserveAspectRatio="xMinYMin meet" x="293.5" y="-180.7"/>
<text text-anchor="start" x="308.5" y="-170.8" font-family="Helvetica,sans-Serif" font-size="11.00" fill="#000000">NOMIS_CONTACT_TYPE</text>
<polygon fill="none" stroke="#000000" points="478.5,-163.7 478.5,-185.7 545.5,-185.7 545.5,-163.7 478.5,-163.7"/>
<text text-anchor="start" x="481.4365" y="-171.4" font-family="Helvetica,sans-Serif" font-size="11.00" fill="#000000">varchar2[32]</text>
<polygon fill="none" stroke="#000000" points="288.5,-141.7 288.5,-163.7 478.5,-163.7 478.5,-141.7 288.5,-141.7"/>
<image xlink:href="../../images/primaryKeys.png" width="11px" height="12px" preserveAspectRatio="xMinYMin meet" x="293.5" y="-158.7"/>
<text text-anchor="start" x="308.5" y="-148.8" font-family="Helvetica,sans-Serif" font-size="11.00" fill="#000000">CONTACT_TYPE_ID</text>
<polygon fill="none" stroke="#000000" points="478.5,-141.7 478.5,-163.7 545.5,-163.7 545.5,-141.7 478.5,-141.7"/>
<text text-anchor="start" x="481.5" y="-149.4" font-family="Helvetica,sans-Serif" font-size="11.00" fill="#000000">number[38]</text>
<polygon fill="#ffffff" stroke="transparent" points="288.5,-122.7 288.5,-141.7 371.5,-141.7 371.5,-122.7 288.5,-122.7"/>
<polygon fill="none" stroke="#000000" points="288.5,-122.7 288.5,-141.7 371.5,-141.7 371.5,-122.7 288.5,-122.7"/>
<text text-anchor="start" x="291.5" y="-128.8" font-family="Helvetica,sans-Serif" font-size="11.00" fill="#000000">&lt; 1</text>
<polygon fill="#ffffff" stroke="transparent" points="371.5,-122.7 371.5,-141.7 478.5,-141.7 478.5,-122.7 371.5,-122.7"/>
<polygon fill="none" stroke="#000000" points="371.5,-122.7 371.5,-141.7 478.5,-141.7 478.5,-122.7 371.5,-122.7"/>
<text text-anchor="start" x="436.9956" y="-128.8" font-family="Helvetica,sans-Serif" font-size="11.00" fill="#000000">62 rows</text>
<polygon fill="#ffffff" stroke="transparent" points="478.5,-122.7 478.5,-141.7 545.5,-141.7 545.5,-122.7 478.5,-122.7"/>
<polygon fill="none" stroke="#000000" points="478.5,-122.7 478.5,-141.7 545.5,-141.7 545.5,-122.7 478.5,-122.7"/>
<text text-anchor="start" x="526.9053" y="-128.8" font-family="Helvetica,sans-Serif" font-size="11.00" fill="#000000">0 &gt;</text>
<polygon fill="none" stroke="#000000" stroke-width="2" points="287,-121.7 287,-209.7 546,-209.7 546,-121.7 287,-121.7"/>
</a>
</g>
</g>
<!-- R_CONTACT_TYPE -->
<g id="node2" class="node">
<title>R_CONTACT_TYPE</title>
<g id="a_node2"><a xlink:href="../../tables/R_CONTACT_TYPE.html" xlink:title="R_CONTACT_TYPE" target="_top">
<polygon fill="#ffffff" stroke="transparent" points="8,-38.2 8,-187.2 237,-187.2 237,-38.2 8,-38.2"/>
<polygon fill="#f5f5f5" stroke="transparent" points="8.5,-163.7 8.5,-186.7 237.5,-186.7 237.5,-163.7 8.5,-163.7"/>
<polygon fill="none" stroke="#000000" points="8.5,-163.7 8.5,-186.7 237.5,-186.7 237.5,-163.7 8.5,-163.7"/>
<text text-anchor="start" x="13.5" y="-172.8" font-family="Helvetica,sans-Serif" font-weight="bold" font-size="11.00" fill="#000000">R_CONTACT_TYPE</text>
<text text-anchor="start" x="202.5437" y="-171.8" font-family="Helvetica,sans-Serif" font-size="11.00" fill="#000000">[table]</text>
<polygon fill="none" stroke="#000000" points="8.5,-141.7 8.5,-163.7 237.5,-163.7 237.5,-141.7 8.5,-141.7"/>
<image xlink:href="../../images/primaryKeys.png" width="11px" height="12px" preserveAspectRatio="xMinYMin meet" x="13.5" y="-158.7"/>
<text text-anchor="start" x="28.5" y="-148.8" font-family="Helvetica,sans-Serif" font-size="11.00" fill="#000000">CONTACT_TYPE_ID</text>
<polygon fill="none" stroke="#000000" points="8.5,-119.7 8.5,-141.7 237.5,-141.7 237.5,-119.7 8.5,-119.7"/>
<image xlink:href="../../images/primaryKeys.png" width="11px" height="12px" preserveAspectRatio="xMinYMin meet" x="13.5" y="-136.7"/>
<text text-anchor="start" x="28.5" y="-126.8" font-family="Helvetica,sans-Serif" font-size="11.00" fill="#000000">CODE</text>
<polygon fill="none" stroke="#000000" points="8.5,-97.7 8.5,-119.7 237.5,-119.7 237.5,-97.7 8.5,-97.7"/>
<image xlink:href="../../images/primaryKeys.png" width="11px" height="12px" preserveAspectRatio="xMinYMin meet" x="13.5" y="-114.7"/>
<text text-anchor="start" x="28.5" y="-104.8" font-family="Helvetica,sans-Serif" font-size="11.00" fill="#000000">TRAINING_SESSION_ID</text>
<polygon fill="none" stroke="#000000" points="8.5,-75.7 8.5,-97.7 237.5,-97.7 237.5,-75.7 8.5,-75.7"/>
<image xlink:href="../../images/primaryKeys.png" width="11px" height="12px" preserveAspectRatio="xMinYMin meet" x="13.5" y="-92.7"/>
<text text-anchor="start" x="28.5" y="-82.8" font-family="Helvetica,sans-Serif" font-size="11.00" fill="#000000">CONTACT_TYPE_ICON_ID</text>
<polygon fill="none" stroke="#000000" points="8.5,-56.7 8.5,-75.7 237.5,-75.7 237.5,-56.7 8.5,-56.7"/>
<text text-anchor="start" x="11.5" y="-62.8" font-family="Helvetica,sans-Serif" font-size="11.00" fill="#000000">...</text>
<polygon fill="#ffffff" stroke="transparent" points="8.5,-37.7 8.5,-56.7 90.5,-56.7 90.5,-37.7 8.5,-37.7"/>
<polygon fill="none" stroke="#000000" points="8.5,-37.7 8.5,-56.7 90.5,-56.7 90.5,-37.7 8.5,-37.7"/>
<text text-anchor="start" x="11.5" y="-43.8" font-family="Helvetica,sans-Serif" font-size="11.00" fill="#000000">&lt; 1</text>
<polygon fill="#ffffff" stroke="transparent" points="90.5,-37.7 90.5,-56.7 179.5,-56.7 179.5,-37.7 90.5,-37.7"/>
<polygon fill="none" stroke="#000000" points="90.5,-37.7 90.5,-56.7 179.5,-56.7 179.5,-37.7 90.5,-37.7"/>
<text text-anchor="start" x="122.7089" y="-43.8" font-family="Helvetica,sans-Serif" font-size="11.00" fill="#000000">3,019 rows</text>
<polygon fill="#ffffff" stroke="transparent" points="179.5,-37.7 179.5,-56.7 237.5,-56.7 237.5,-37.7 179.5,-37.7"/>
<polygon fill="none" stroke="#000000" points="179.5,-37.7 179.5,-56.7 237.5,-56.7 237.5,-37.7 179.5,-37.7"/>
<text text-anchor="start" x="212.7904" y="-43.8" font-family="Helvetica,sans-Serif" font-size="11.00" fill="#000000">21 &gt;</text>
</a>
</g>
</g>
<!-- R_CONTACT_TYPE_NOMIS_TYPE&#45;&gt;R_CONTACT_TYPE -->
<g id="edge1" class="edge">
<title>R_CONTACT_TYPE_NOMIS_TYPE:w&#45;&gt;R_CONTACT_TYPE:e</title>
<path fill="none" stroke="#000000" d="M273.776,-152.7C261.7815,-152.7 254.3229,-152.7 237.5,-152.7"/>
<polygon fill="#000000" stroke="#000000" points="280.5,-152.7001 288.5,-156.3 284.5,-152.7 288.5,-152.7 288.5,-152.7 288.5,-152.7 284.5,-152.7 288.5,-149.1 280.5,-152.7001 280.5,-152.7001"/>
<ellipse fill="none" stroke="#000000" cx="277.3" cy="-152.7001" rx="3.2" ry="3.2"/>
</g>
</g>
</svg>
