<?xml version="1.0" encoding="UTF-8" standalone="no"?>
<!DOCTYPE svg PUBLIC "-//W3C//DTD SVG 1.1//EN"
 "http://www.w3.org/Graphics/SVG/1.1/DTD/svg11.dtd">
<!-- Generated by graphviz version 2.40.1 (20161225.0304)
 -->
<!-- Title: oneDegreeRelationshipsDiagram Pages: 1 -->
<svg width="789pt" height="763pt"
 viewBox="0.00 0.00 789.00 762.70" xmlns="http://www.w3.org/2000/svg" xmlns:xlink="http://www.w3.org/1999/xlink">
<g id="graph0" class="graph" transform="scale(1 1) rotate(0) translate(4 758.7)">
<title>oneDegreeRelationshipsDiagram</title>
<polygon fill="#ffffff" stroke="transparent" points="-4,4 -4,-758.7 785,-758.7 785,4 -4,4"/>
<text text-anchor="middle" x="72.4936" y="-7.3" font-family="Helvetica,sans-Serif" font-size="11.00" fill="#000000">Generated by SchemaSpy</text>
<!-- ADDITIONAL_OFFENCE -->
<g id="node1" class="node">
<title>ADDITIONAL_OFFENCE</title>
<g id="a_node1"><a xlink:href="../../tables/ADDITIONAL_OFFENCE.html" xlink:title="ADDITIONAL_OFFENCE" target="_top">
<polygon fill="#ffffff" stroke="transparent" points="606,-535.7 606,-750.7 773,-750.7 773,-535.7 606,-535.7"/>
<polygon fill="#f5f5f5" stroke="transparent" points="606.5,-727.2 606.5,-750.2 773.5,-750.2 773.5,-727.2 606.5,-727.2"/>
<polygon fill="none" stroke="#000000" points="606.5,-727.2 606.5,-750.2 773.5,-750.2 773.5,-727.2 606.5,-727.2"/>
<text text-anchor="start" x="611.1674" y="-736.3" font-family="Helvetica,sans-Serif" font-weight="bold" font-size="11.00" fill="#000000">ADDITIONAL_OFFENCE</text>
<text text-anchor="start" x="739.0219" y="-735.3" font-family="Helvetica,sans-Serif" font-size="11.00" fill="#000000">[table]</text>
<polygon fill="none" stroke="#000000" points="606.5,-705.2 606.5,-727.2 773.5,-727.2 773.5,-705.2 606.5,-705.2"/>
<image xlink:href="../../images/primaryKeys.png" width="11px" height="12px" preserveAspectRatio="xMinYMin meet" x="611.5" y="-722.2"/>
<text text-anchor="start" x="626.6111" y="-712.3" font-family="Helvetica,sans-Serif" font-size="11.00" fill="#000000">ADDITIONAL_OFFENCE_ID</text>
<polygon fill="none" stroke="#000000" points="606.5,-683.2 606.5,-705.2 773.5,-705.2 773.5,-683.2 606.5,-683.2"/>
<image xlink:href="../../images/primaryKeys.png" width="11px" height="12px" preserveAspectRatio="xMinYMin meet" x="611.5" y="-700.2"/>
<text text-anchor="start" x="629.5" y="-690.3" font-family="Helvetica,sans-Serif" font-size="11.00" fill="#000000">OFFENCE_DATE</text>
<polygon fill="none" stroke="#000000" points="606.5,-661.2 606.5,-683.2 773.5,-683.2 773.5,-661.2 606.5,-661.2"/>
<image xlink:href="../../images/primaryKeys.png" width="11px" height="12px" preserveAspectRatio="xMinYMin meet" x="611.5" y="-678.2"/>
<text text-anchor="start" x="629.5" y="-668.3" font-family="Helvetica,sans-Serif" font-size="11.00" fill="#000000">EVENT_ID</text>
<polygon fill="none" stroke="#000000" points="606.5,-639.2 606.5,-661.2 773.5,-661.2 773.5,-639.2 606.5,-639.2"/>
<image xlink:href="../../images/primaryKeys.png" width="11px" height="12px" preserveAspectRatio="xMinYMin meet" x="611.5" y="-656.2"/>
<text text-anchor="start" x="629.5" y="-646.3" font-family="Helvetica,sans-Serif" font-size="11.00" fill="#000000">PARTITION_AREA_ID</text>
<polygon fill="none" stroke="#000000" points="606.5,-617.2 606.5,-639.2 773.5,-639.2 773.5,-617.2 606.5,-617.2"/>
<image xlink:href="../../images/primaryKeys.png" width="11px" height="12px" preserveAspectRatio="xMinYMin meet" x="611.5" y="-634.2"/>
<text text-anchor="start" x="629.5" y="-624.3" font-family="Helvetica,sans-Serif" font-size="11.00" fill="#000000">OFFENCE_ID</text>
<polygon fill="none" stroke="#000000" points="606.5,-595.2 606.5,-617.2 773.5,-617.2 773.5,-595.2 606.5,-595.2"/>
<image xlink:href="../../images/primaryKeys.png" width="11px" height="12px" preserveAspectRatio="xMinYMin meet" x="611.5" y="-612.2"/>
<text text-anchor="start" x="629.5" y="-602.3" font-family="Helvetica,sans-Serif" font-size="11.00" fill="#000000">TRAINING_SESSION_ID</text>
<polygon fill="none" stroke="#000000" points="606.5,-573.2 606.5,-595.2 773.5,-595.2 773.5,-573.2 606.5,-573.2"/>
<image xlink:href="../../images/primaryKeys.png" width="11px" height="12px" preserveAspectRatio="xMinYMin meet" x="611.5" y="-590.2"/>
<text text-anchor="start" x="629.5" y="-580.3" font-family="Helvetica,sans-Serif" font-size="11.00" fill="#000000">DETAILED_OFFENCE_ID</text>
<polygon fill="none" stroke="#000000" points="606.5,-554.2 606.5,-573.2 773.5,-573.2 773.5,-554.2 606.5,-554.2"/>
<text text-anchor="start" x="609.5" y="-560.3" font-family="Helvetica,sans-Serif" font-size="11.00" fill="#000000">...</text>
<polygon fill="#ffffff" stroke="transparent" points="606.5,-535.2 606.5,-554.2 669.5,-554.2 669.5,-535.2 606.5,-535.2"/>
<polygon fill="none" stroke="#000000" points="606.5,-535.2 606.5,-554.2 669.5,-554.2 669.5,-535.2 606.5,-535.2"/>
<text text-anchor="start" x="609.5" y="-541.3" font-family="Helvetica,sans-Serif" font-size="11.00" fill="#000000">&lt; 4</text>
<polygon fill="#ffffff" stroke="transparent" points="669.5,-535.2 669.5,-554.2 740.5,-554.2 740.5,-535.2 669.5,-535.2"/>
<polygon fill="none" stroke="#000000" points="669.5,-535.2 669.5,-554.2 740.5,-554.2 740.5,-535.2 669.5,-535.2"/>
<text text-anchor="start" x="692.8807" y="-541.3" font-family="Helvetica,sans-Serif" font-size="11.00" fill="#000000">128 rows</text>
<polygon fill="#ffffff" stroke="transparent" points="740.5,-535.2 740.5,-554.2 773.5,-554.2 773.5,-535.2 740.5,-535.2"/>
<polygon fill="none" stroke="#000000" points="740.5,-535.2 740.5,-554.2 773.5,-554.2 773.5,-535.2 740.5,-535.2"/>
<text text-anchor="start" x="764.3862" y="-541.3" font-family="Helvetica,sans-Serif" font-size="11.00" fill="#000000"> &#160;</text>
</a>
</g>
</g>
<!-- R_DETAILED_OFFENCE -->
<g id="node2" class="node">
<title>R_DETAILED_OFFENCE</title>
<g id="a_node2"><a xlink:href="../../tables/R_DETAILED_OFFENCE.html" xlink:title="R_DETAILED_OFFENCE" target="_top">
<polygon fill="#ffffff" stroke="transparent" points="277,-38.2 277,-480.2 557,-480.2 557,-38.2 277,-38.2"/>
<polygon fill="#f5f5f5" stroke="transparent" points="279,-455.2 279,-478.2 555,-478.2 555,-455.2 279,-455.2"/>
<polygon fill="none" stroke="#000000" points="279,-455.2 279,-478.2 555,-478.2 555,-455.2 279,-455.2"/>
<text text-anchor="start" x="284" y="-464.3" font-family="Helvetica,sans-Serif" font-weight="bold" font-size="11.00" fill="#000000">R_DETAILED_OFFENCE</text>
<text text-anchor="start" x="520.0437" y="-463.3" font-family="Helvetica,sans-Serif" font-size="11.00" fill="#000000">[table]</text>
<polygon fill="none" stroke="#000000" points="279,-433.2 279,-455.2 476,-455.2 476,-433.2 279,-433.2"/>
<image xlink:href="../../images/primaryKeys.png" width="11px" height="12px" preserveAspectRatio="xMinYMin meet" x="284" y="-450.2"/>
<text text-anchor="start" x="299" y="-440.3" font-family="Helvetica,sans-Serif" font-size="11.00" fill="#000000">DETAILED_OFFENCE_ID</text>
<polygon fill="none" stroke="#000000" points="476,-433.2 476,-455.2 555,-455.2 555,-433.2 476,-433.2"/>
<text text-anchor="start" x="479" y="-440.9" font-family="Helvetica,sans-Serif" font-size="11.00" fill="#000000">number[38]</text>
<polygon fill="none" stroke="#000000" points="279,-411.2 279,-433.2 476,-433.2 476,-411.2 279,-411.2"/>
<text text-anchor="start" x="299" y="-418.3" font-family="Helvetica,sans-Serif" font-size="11.00" fill="#000000">PNLD_CODE</text>
<polygon fill="none" stroke="#000000" points="476,-411.2 476,-433.2 555,-433.2 555,-411.2 476,-411.2"/>
<text text-anchor="start" x="479" y="-418.9" font-family="Helvetica,sans-Serif" font-size="11.00" fill="#000000">varchar2[8]</text>
<polygon fill="none" stroke="#000000" points="279,-389.2 279,-411.2 476,-411.2 476,-389.2 279,-389.2"/>
<image xlink:href="../../images/primaryKeys.png" width="11px" height="12px" preserveAspectRatio="xMinYMin meet" x="284" y="-406.2"/>
<text text-anchor="start" x="299" y="-396.3" font-family="Helvetica,sans-Serif" font-size="11.00" fill="#000000">CJA_CODE</text>
<polygon fill="none" stroke="#000000" points="476,-389.2 476,-411.2 555,-411.2 555,-389.2 476,-389.2"/>
<text text-anchor="start" x="479" y="-396.9" font-family="Helvetica,sans-Serif" font-size="11.00" fill="#000000">varchar2[10]</text>
<polygon fill="none" stroke="#000000" points="279,-367.2 279,-389.2 476,-389.2 476,-367.2 279,-367.2"/>
<text text-anchor="start" x="299" y="-374.3" font-family="Helvetica,sans-Serif" font-size="11.00" fill="#000000">OFFENCE_DESCRIPTION</text>
<polygon fill="none" stroke="#000000" points="476,-367.2 476,-389.2 555,-389.2 555,-367.2 476,-367.2"/>
<text text-anchor="start" x="478.8216" y="-374.9" font-family="Helvetica,sans-Serif" font-size="11.00" fill="#000000">varchar2[1024]</text>
<polygon fill="none" stroke="#000000" points="279,-345.2 279,-367.2 476,-367.2 476,-345.2 279,-345.2"/>
<text text-anchor="start" x="299" y="-352.3" font-family="Helvetica,sans-Serif" font-size="11.00" fill="#000000">LEGISLATION</text>
<polygon fill="none" stroke="#000000" points="476,-345.2 476,-367.2 555,-367.2 555,-345.2 476,-345.2"/>
<text text-anchor="start" x="478.8216" y="-352.9" font-family="Helvetica,sans-Serif" font-size="11.00" fill="#000000">varchar2[1024]</text>
<polygon fill="none" stroke="#000000" points="279,-323.2 279,-345.2 476,-345.2 476,-323.2 279,-323.2"/>
<image xlink:href="../../images/primaryKeys.png" width="11px" height="12px" preserveAspectRatio="xMinYMin meet" x="284" y="-340.2"/>
<text text-anchor="start" x="299" y="-330.3" font-family="Helvetica,sans-Serif" font-size="11.00" fill="#000000">COURT_CATEGORY_ID</text>
<polygon fill="none" stroke="#000000" points="476,-323.2 476,-345.2 555,-345.2 555,-323.2 476,-323.2"/>
<text text-anchor="start" x="479" y="-330.9" font-family="Helvetica,sans-Serif" font-size="11.00" fill="#000000">number[38]</text>
<polygon fill="none" stroke="#000000" points="279,-301.2 279,-323.2 476,-323.2 476,-301.2 279,-301.2"/>
<text text-anchor="start" x="299" y="-308.3" font-family="Helvetica,sans-Serif" font-size="11.00" fill="#000000">HO_CODE</text>
<polygon fill="none" stroke="#000000" points="476,-301.2 476,-323.2 555,-323.2 555,-301.2 476,-301.2"/>
<text text-anchor="start" x="479" y="-308.9" font-family="Helvetica,sans-Serif" font-size="11.00" fill="#000000">varchar2[6]</text>
<polygon fill="none" stroke="#000000" points="279,-279.2 279,-301.2 476,-301.2 476,-279.2 279,-279.2"/>
<text text-anchor="start" x="294.8522" y="-286.3" font-family="Helvetica,sans-Serif" font-size="11.00" fill="#000000">SCHEDULE15_SEXUAL_OFFENCE</text>
<polygon fill="none" stroke="#000000" points="476,-279.2 476,-301.2 555,-301.2 555,-279.2 476,-279.2"/>
<text text-anchor="start" x="479" y="-286.9" font-family="Helvetica,sans-Serif" font-size="11.00" fill="#000000">char[1]</text>
<polygon fill="none" stroke="#000000" points="279,-257.2 279,-279.2 476,-279.2 476,-257.2 279,-257.2"/>
<text text-anchor="start" x="293.0213" y="-264.3" font-family="Helvetica,sans-Serif" font-size="11.00" fill="#000000">SCHEDULE15_VIOLENT_OFFENCE</text>
<polygon fill="none" stroke="#000000" points="476,-257.2 476,-279.2 555,-279.2 555,-257.2 476,-257.2"/>
<text text-anchor="start" x="479" y="-264.9" font-family="Helvetica,sans-Serif" font-size="11.00" fill="#000000">char[1]</text>
<polygon fill="none" stroke="#000000" points="279,-235.2 279,-257.2 476,-257.2 476,-235.2 279,-235.2"/>
<text text-anchor="start" x="299" y="-242.3" font-family="Helvetica,sans-Serif" font-size="11.00" fill="#000000">CJA_2003_S327_4A</text>
<polygon fill="none" stroke="#000000" points="476,-235.2 476,-257.2 555,-257.2 555,-235.2 476,-235.2"/>
<text text-anchor="start" x="479" y="-242.9" font-family="Helvetica,sans-Serif" font-size="11.00" fill="#000000">char[1]</text>
<polygon fill="none" stroke="#000000" points="279,-213.2 279,-235.2 476,-235.2 476,-213.2 279,-213.2"/>
<text text-anchor="start" x="299" y="-220.3" font-family="Helvetica,sans-Serif" font-size="11.00" fill="#000000">HO_DESCRIPTION</text>
<polygon fill="none" stroke="#000000" points="476,-213.2 476,-235.2 555,-235.2 555,-213.2 476,-213.2"/>
<text text-anchor="start" x="478.8216" y="-220.9" font-family="Helvetica,sans-Serif" font-size="11.00" fill="#000000">varchar2[1024]</text>
<polygon fill="none" stroke="#000000" points="279,-191.2 279,-213.2 476,-213.2 476,-191.2 279,-191.2"/>
<text text-anchor="start" x="299" y="-198.3" font-family="Helvetica,sans-Serif" font-size="11.00" fill="#000000">CREATED_BY_USER_ID</text>
<polygon fill="none" stroke="#000000" points="476,-191.2 476,-213.2 555,-213.2 555,-191.2 476,-191.2"/>
<text text-anchor="start" x="479" y="-198.9" font-family="Helvetica,sans-Serif" font-size="11.00" fill="#000000">number[38]</text>
<polygon fill="none" stroke="#000000" points="279,-169.2 279,-191.2 476,-191.2 476,-169.2 279,-169.2"/>
<text text-anchor="start" x="299" y="-176.3" font-family="Helvetica,sans-Serif" font-size="11.00" fill="#000000">CREATED_DATETIME</text>
<polygon fill="none" stroke="#000000" points="476,-169.2 476,-191.2 555,-191.2 555,-169.2 476,-169.2"/>
<text text-anchor="start" x="479" y="-176.9" font-family="Helvetica,sans-Serif" font-size="11.00" fill="#000000">date[7]</text>
<polygon fill="none" stroke="#000000" points="279,-147.2 279,-169.2 476,-169.2 476,-147.2 279,-147.2"/>
<text text-anchor="start" x="299" y="-154.3" font-family="Helvetica,sans-Serif" font-size="11.00" fill="#000000">LAST_UPDATED_USER_ID</text>
<polygon fill="none" stroke="#000000" points="476,-147.2 476,-169.2 555,-169.2 555,-147.2 476,-147.2"/>
<text text-anchor="start" x="479" y="-154.9" font-family="Helvetica,sans-Serif" font-size="11.00" fill="#000000">number[38]</text>
<polygon fill="none" stroke="#000000" points="279,-125.2 279,-147.2 476,-147.2 476,-125.2 279,-125.2"/>
<text text-anchor="start" x="299" y="-132.3" font-family="Helvetica,sans-Serif" font-size="11.00" fill="#000000">LAST_UPDATED_DATETIME</text>
<polygon fill="none" stroke="#000000" points="476,-125.2 476,-147.2 555,-147.2 555,-125.2 476,-125.2"/>
<text text-anchor="start" x="479" y="-132.9" font-family="Helvetica,sans-Serif" font-size="11.00" fill="#000000">date[7]</text>
<polygon fill="none" stroke="#000000" points="279,-103.2 279,-125.2 476,-125.2 476,-103.2 279,-103.2"/>
<text text-anchor="start" x="299" y="-110.3" font-family="Helvetica,sans-Serif" font-size="11.00" fill="#000000">START_DATE</text>
<polygon fill="none" stroke="#000000" points="476,-103.2 476,-125.2 555,-125.2 555,-103.2 476,-103.2"/>
<text text-anchor="start" x="479" y="-110.9" font-family="Helvetica,sans-Serif" font-size="11.00" fill="#000000">date[7]</text>
<polygon fill="none" stroke="#000000" points="279,-81.2 279,-103.2 476,-103.2 476,-81.2 279,-81.2"/>
<text text-anchor="start" x="299" y="-88.3" font-family="Helvetica,sans-Serif" font-size="11.00" fill="#000000">END_DATE</text>
<polygon fill="none" stroke="#000000" points="476,-81.2 476,-103.2 555,-103.2 555,-81.2 476,-81.2"/>
<text text-anchor="start" x="479" y="-88.9" font-family="Helvetica,sans-Serif" font-size="11.00" fill="#000000">date[7]</text>
<polygon fill="none" stroke="#000000" points="279,-59.2 279,-81.2 476,-81.2 476,-59.2 279,-59.2"/>
<text text-anchor="start" x="299" y="-66.3" font-family="Helvetica,sans-Serif" font-size="11.00" fill="#000000">ROW_VERSION</text>
<polygon fill="none" stroke="#000000" points="476,-59.2 476,-81.2 555,-81.2 555,-59.2 476,-59.2"/>
<text text-anchor="start" x="479" y="-66.9" font-family="Helvetica,sans-Serif" font-size="11.00" fill="#000000">number[38]</text>
<polygon fill="#ffffff" stroke="transparent" points="279,-40.2 279,-59.2 369,-59.2 369,-40.2 279,-40.2"/>
<polygon fill="none" stroke="#000000" points="279,-40.2 279,-59.2 369,-59.2 369,-40.2 279,-40.2"/>
<text text-anchor="start" x="282" y="-46.3" font-family="Helvetica,sans-Serif" font-size="11.00" fill="#000000">&lt; 1</text>
<polygon fill="#ffffff" stroke="transparent" points="369,-40.2 369,-59.2 476,-59.2 476,-40.2 369,-40.2"/>
<polygon fill="none" stroke="#000000" points="369,-40.2 369,-59.2 476,-59.2 476,-40.2 369,-40.2"/>
<text text-anchor="start" x="440.6105" y="-46.3" font-family="Helvetica,sans-Serif" font-size="11.00" fill="#000000">0 rows</text>
<polygon fill="#ffffff" stroke="transparent" points="476,-40.2 476,-59.2 555,-59.2 555,-40.2 476,-40.2"/>
<polygon fill="none" stroke="#000000" points="476,-40.2 476,-59.2 555,-59.2 555,-40.2 476,-40.2"/>
<text text-anchor="start" x="536.4053" y="-46.3" font-family="Helvetica,sans-Serif" font-size="11.00" fill="#000000">2 &gt;</text>
<polygon fill="none" stroke="#000000" stroke-width="2" points="278,-39.2 278,-479.2 556,-479.2 556,-39.2 278,-39.2"/>
</a>
</g>
</g>
<!-- ADDITIONAL_OFFENCE&#45;&gt;R_DETAILED_OFFENCE -->
<g id="edge1" class="edge">
<title>ADDITIONAL_OFFENCE:w&#45;&gt;R_DETAILED_OFFENCE:e</title>
<path fill="none" stroke="#000000" d="M592.2346,-581.1457C553.3182,-560.6721 615.4716,-444.2 555,-444.2"/>
<polygon fill="#000000" stroke="#000000" points="598.6773,-582.5251 605.7463,-587.7202 602.5886,-583.3625 606.5,-584.2 606.5,-584.2 606.5,-584.2 602.5886,-583.3625 607.2537,-580.6798 598.6773,-582.5251 598.6773,-582.5251"/>
<ellipse fill="none" stroke="#000000" cx="595.5482" cy="-581.8551" rx="3.2" ry="3.2"/>
</g>
<!-- R_STANDARD_REFERENCE_LIST -->
<g id="node4" class="node">
<title>R_STANDARD_REFERENCE_LIST</title>
<g id="a_node4"><a xlink:href="../../tables/R_STANDARD_REFERENCE_LIST.html" xlink:title="R_STANDARD_REFERENCE_LIST" target="_top">
<polygon fill="#ffffff" stroke="transparent" points="8,-219.7 8,-368.7 228,-368.7 228,-219.7 8,-219.7"/>
<polygon fill="#f5f5f5" stroke="transparent" points="8,-345.2 8,-368.2 228,-368.2 228,-345.2 8,-345.2"/>
<polygon fill="none" stroke="#000000" points="8,-345.2 8,-368.2 228,-368.2 228,-345.2 8,-345.2"/>
<text text-anchor="start" x="12.5842" y="-354.3" font-family="Helvetica,sans-Serif" font-weight="bold" font-size="11.00" fill="#000000">R_STANDARD_REFERENCE_LIST</text>
<text text-anchor="start" x="193.5219" y="-353.3" font-family="Helvetica,sans-Serif" font-size="11.00" fill="#000000">[table]</text>
<polygon fill="none" stroke="#000000" points="8,-323.2 8,-345.2 228,-345.2 228,-323.2 8,-323.2"/>
<image xlink:href="../../images/primaryKeys.png" width="11px" height="12px" preserveAspectRatio="xMinYMin meet" x="13" y="-340.2"/>
<text text-anchor="start" x="35.5558" y="-330.3" font-family="Helvetica,sans-Serif" font-size="11.00" fill="#000000">STANDARD_REFERENCE_LIST_ID</text>
<polygon fill="none" stroke="#000000" points="8,-301.2 8,-323.2 228,-323.2 228,-301.2 8,-301.2"/>
<image xlink:href="../../images/primaryKeys.png" width="11px" height="12px" preserveAspectRatio="xMinYMin meet" x="13" y="-318.2"/>
<text text-anchor="start" x="42" y="-308.3" font-family="Helvetica,sans-Serif" font-size="11.00" fill="#000000">CODE_VALUE</text>
<polygon fill="none" stroke="#000000" points="8,-279.2 8,-301.2 228,-301.2 228,-279.2 8,-279.2"/>
<image xlink:href="../../images/primaryKeys.png" width="11px" height="12px" preserveAspectRatio="xMinYMin meet" x="13" y="-296.2"/>
<text text-anchor="start" x="39.8337" y="-286.3" font-family="Helvetica,sans-Serif" font-size="11.00" fill="#000000">REFERENCE_DATA_MASTER_ID</text>
<polygon fill="none" stroke="#000000" points="8,-257.2 8,-279.2 228,-279.2 228,-257.2 8,-257.2"/>
<image xlink:href="../../images/primaryKeys.png" width="11px" height="12px" preserveAspectRatio="xMinYMin meet" x="13" y="-274.2"/>
<text text-anchor="start" x="42" y="-264.3" font-family="Helvetica,sans-Serif" font-size="11.00" fill="#000000">TRAINING_SESSION_ID</text>
<polygon fill="none" stroke="#000000" points="8,-238.2 8,-257.2 228,-257.2 228,-238.2 8,-238.2"/>
<text text-anchor="start" x="11" y="-244.3" font-family="Helvetica,sans-Serif" font-size="11.00" fill="#000000">...</text>
<polygon fill="#ffffff" stroke="transparent" points="8,-219.2 8,-238.2 79,-238.2 79,-219.2 8,-219.2"/>
<polygon fill="none" stroke="#000000" points="8,-219.2 8,-238.2 79,-238.2 79,-219.2 8,-219.2"/>
<text text-anchor="start" x="11" y="-225.3" font-family="Helvetica,sans-Serif" font-size="11.00" fill="#000000">&lt; 1</text>
<polygon fill="#ffffff" stroke="transparent" points="79,-219.2 79,-238.2 169,-238.2 169,-219.2 79,-219.2"/>
<polygon fill="none" stroke="#000000" points="79,-219.2 79,-238.2 169,-238.2 169,-219.2 79,-219.2"/>
<text text-anchor="start" x="106.094" y="-225.3" font-family="Helvetica,sans-Serif" font-size="11.00" fill="#000000">15,391 rows</text>
<polygon fill="#ffffff" stroke="transparent" points="169,-219.2 169,-238.2 228,-238.2 228,-219.2 169,-219.2"/>
<polygon fill="none" stroke="#000000" points="169,-219.2 169,-238.2 228,-238.2 228,-219.2 169,-219.2"/>
<text text-anchor="start" x="197.1755" y="-225.3" font-family="Helvetica,sans-Serif" font-size="11.00" fill="#000000">311 &gt;</text>
</a>
</g>
</g>
<!-- R_DETAILED_OFFENCE&#45;&gt;R_STANDARD_REFERENCE_LIST -->
<g id="edge3" class="edge">
<title>R_DETAILED_OFFENCE:w&#45;&gt;R_STANDARD_REFERENCE_LIST:e</title>
<path fill="none" stroke="#000000" d="M264.276,-334.2C252.2815,-334.2 244.8229,-334.2 228,-334.2"/>
<polygon fill="#000000" stroke="#000000" points="271,-334.2001 279,-337.8 275,-334.2 279,-334.2 279,-334.2 279,-334.2 275,-334.2 279,-330.6 271,-334.2001 271,-334.2001"/>
<ellipse fill="none" stroke="#000000" cx="267.8" cy="-334.2001" rx="3.2" ry="3.2"/>
</g>
<!-- MAIN_OFFENCE -->
<g id="node3" class="node">
<title>MAIN_OFFENCE</title>
<g id="a_node3"><a xlink:href="../../tables/MAIN_OFFENCE.html" xlink:title="MAIN_OFFENCE" target="_top">
<polygon fill="#ffffff" stroke="transparent" points="609,-255.7 609,-514.7 770,-514.7 770,-255.7 609,-255.7"/>
<polygon fill="#f5f5f5" stroke="transparent" points="609.5,-491.2 609.5,-514.2 770.5,-514.2 770.5,-491.2 609.5,-491.2"/>
<polygon fill="none" stroke="#000000" points="609.5,-491.2 609.5,-514.2 770.5,-514.2 770.5,-491.2 609.5,-491.2"/>
<text text-anchor="start" x="614.5" y="-500.3" font-family="Helvetica,sans-Serif" font-weight="bold" font-size="11.00" fill="#000000">MAIN_OFFENCE</text>
<text text-anchor="start" x="735.5437" y="-499.3" font-family="Helvetica,sans-Serif" font-size="11.00" fill="#000000">[table]</text>
<polygon fill="none" stroke="#000000" points="609.5,-469.2 609.5,-491.2 770.5,-491.2 770.5,-469.2 609.5,-469.2"/>
<image xlink:href="../../images/primaryKeys.png" width="11px" height="12px" preserveAspectRatio="xMinYMin meet" x="614.5" y="-486.2"/>
<text text-anchor="start" x="629.5" y="-476.3" font-family="Helvetica,sans-Serif" font-size="11.00" fill="#000000">MAIN_OFFENCE_ID</text>
<polygon fill="none" stroke="#000000" points="609.5,-447.2 609.5,-469.2 770.5,-469.2 770.5,-447.2 609.5,-447.2"/>
<image xlink:href="../../images/primaryKeys.png" width="11px" height="12px" preserveAspectRatio="xMinYMin meet" x="614.5" y="-464.2"/>
<text text-anchor="start" x="629.5" y="-454.3" font-family="Helvetica,sans-Serif" font-size="11.00" fill="#000000">OFFENCE_DATE</text>
<polygon fill="none" stroke="#000000" points="609.5,-425.2 609.5,-447.2 770.5,-447.2 770.5,-425.2 609.5,-425.2"/>
<image xlink:href="../../images/primaryKeys.png" width="11px" height="12px" preserveAspectRatio="xMinYMin meet" x="614.5" y="-442.2"/>
<text text-anchor="start" x="629.5" y="-432.3" font-family="Helvetica,sans-Serif" font-size="11.00" fill="#000000">EVENT_ID</text>
<polygon fill="none" stroke="#000000" points="609.5,-403.2 609.5,-425.2 770.5,-425.2 770.5,-403.2 609.5,-403.2"/>
<image xlink:href="../../images/primaryKeys.png" width="11px" height="12px" preserveAspectRatio="xMinYMin meet" x="614.5" y="-420.2"/>
<text text-anchor="start" x="629.5" y="-410.3" font-family="Helvetica,sans-Serif" font-size="11.00" fill="#000000">SOFT_DELETED</text>
<polygon fill="none" stroke="#000000" points="609.5,-381.2 609.5,-403.2 770.5,-403.2 770.5,-381.2 609.5,-381.2"/>
<image xlink:href="../../images/primaryKeys.png" width="11px" height="12px" preserveAspectRatio="xMinYMin meet" x="614.5" y="-398.2"/>
<text text-anchor="start" x="629.5" y="-388.3" font-family="Helvetica,sans-Serif" font-size="11.00" fill="#000000">PARTITION_AREA_ID</text>
<polygon fill="none" stroke="#000000" points="609.5,-359.2 609.5,-381.2 770.5,-381.2 770.5,-359.2 609.5,-359.2"/>
<image xlink:href="../../images/primaryKeys.png" width="11px" height="12px" preserveAspectRatio="xMinYMin meet" x="614.5" y="-376.2"/>
<text text-anchor="start" x="629.5" y="-366.3" font-family="Helvetica,sans-Serif" font-size="11.00" fill="#000000">OFFENCE_ID</text>
<polygon fill="none" stroke="#000000" points="609.5,-337.2 609.5,-359.2 770.5,-359.2 770.5,-337.2 609.5,-337.2"/>
<image xlink:href="../../images/primaryKeys.png" width="11px" height="12px" preserveAspectRatio="xMinYMin meet" x="614.5" y="-354.2"/>
<text text-anchor="start" x="629.5" y="-344.3" font-family="Helvetica,sans-Serif" font-size="11.00" fill="#000000">TRAINING_SESSION_ID</text>
<polygon fill="none" stroke="#000000" points="609.5,-315.2 609.5,-337.2 770.5,-337.2 770.5,-315.2 609.5,-315.2"/>
<image xlink:href="../../images/primaryKeys.png" width="11px" height="12px" preserveAspectRatio="xMinYMin meet" x="614.5" y="-332.2"/>
<text text-anchor="start" x="629.5" y="-322.3" font-family="Helvetica,sans-Serif" font-size="11.00" fill="#000000">OFFENDER_ID</text>
<polygon fill="none" stroke="#000000" points="609.5,-293.2 609.5,-315.2 770.5,-315.2 770.5,-293.2 609.5,-293.2"/>
<image xlink:href="../../images/primaryKeys.png" width="11px" height="12px" preserveAspectRatio="xMinYMin meet" x="614.5" y="-310.2"/>
<text text-anchor="start" x="629.5" y="-300.3" font-family="Helvetica,sans-Serif" font-size="11.00" fill="#000000">DETAILED_OFFENCE_ID</text>
<polygon fill="none" stroke="#000000" points="609.5,-274.2 609.5,-293.2 770.5,-293.2 770.5,-274.2 609.5,-274.2"/>
<text text-anchor="start" x="612.5" y="-280.3" font-family="Helvetica,sans-Serif" font-size="11.00" fill="#000000">...</text>
<polygon fill="#ffffff" stroke="transparent" points="609.5,-255.2 609.5,-274.2 657.5,-274.2 657.5,-255.2 609.5,-255.2"/>
<polygon fill="none" stroke="#000000" points="609.5,-255.2 609.5,-274.2 657.5,-274.2 657.5,-255.2 609.5,-255.2"/>
<text text-anchor="start" x="612.5" y="-261.3" font-family="Helvetica,sans-Serif" font-size="11.00" fill="#000000">&lt; 5</text>
<polygon fill="#ffffff" stroke="transparent" points="657.5,-255.2 657.5,-274.2 735.5,-274.2 735.5,-255.2 657.5,-255.2"/>
<polygon fill="none" stroke="#000000" points="657.5,-255.2 657.5,-274.2 735.5,-274.2 735.5,-255.2 657.5,-255.2"/>
<text text-anchor="start" x="672.594" y="-261.3" font-family="Helvetica,sans-Serif" font-size="11.00" fill="#000000">14,603 rows</text>
<polygon fill="#ffffff" stroke="transparent" points="735.5,-255.2 735.5,-274.2 770.5,-274.2 770.5,-255.2 735.5,-255.2"/>
<polygon fill="none" stroke="#000000" points="735.5,-255.2 735.5,-274.2 770.5,-274.2 770.5,-255.2 735.5,-255.2"/>
<text text-anchor="start" x="751.9053" y="-261.3" font-family="Helvetica,sans-Serif" font-size="11.00" fill="#000000">1 &gt;</text>
</a>
</g>
</g>
<!-- MAIN_OFFENCE&#45;&gt;R_DETAILED_OFFENCE -->
<g id="edge2" class="edge">
<title>MAIN_OFFENCE:w&#45;&gt;R_DETAILED_OFFENCE:e</title>
<path fill="none" stroke="#000000" d="M595.3312,-307.1241C555.2377,-327.2286 616.0326,-444.2 555,-444.2"/>
<polygon fill="#000000" stroke="#000000" points="601.6651,-305.817 610.2276,-307.7257 605.5826,-305.0085 609.5,-304.2 609.5,-304.2 609.5,-304.2 605.5826,-305.0085 608.7724,-300.6743 601.6651,-305.817 601.6651,-305.817"/>
<ellipse fill="none" stroke="#000000" cx="598.5311" cy="-306.4638" rx="3.2" ry="3.2"/>
</g>
</g>
</svg>
