<?xml version="1.0" encoding="UTF-8" standalone="no"?>
<!DOCTYPE svg PUBLIC "-//W3C//DTD SVG 1.1//EN"
 "http://www.w3.org/Graphics/SVG/1.1/DTD/svg11.dtd">
<!-- Generated by graphviz version 2.40.1 (20161225.0304)
 -->
<!-- Title: oneDegreeRelationshipsDiagram Pages: 1 -->
<svg width="574pt" height="369pt"
 viewBox="0.00 0.00 574.00 369.20" xmlns="http://www.w3.org/2000/svg" xmlns:xlink="http://www.w3.org/1999/xlink">
<g id="graph0" class="graph" transform="scale(1 1) rotate(0) translate(4 365.2)">
<title>oneDegreeRelationshipsDiagram</title>
<polygon fill="#ffffff" stroke="transparent" points="-4,4 -4,-365.2 570,-365.2 570,4 -4,4"/>
<text text-anchor="middle" x="72.4936" y="-7.3" font-family="Helvetica,sans-Serif" font-size="11.00" fill="#000000">Generated by SchemaSpy</text>
<!-- R_DRUG_CONTEXT_CONTACT_TYPE -->
<g id="node1" class="node">
<title>R_DRUG_CONTEXT_CONTACT_TYPE</title>
<g id="a_node1"><a xlink:href="../../tables/R_DRUG_CONTEXT_CONTACT_TYPE.html" xlink:title="R_DRUG_CONTEXT_CONTACT_TYPE" target="_top">
<polygon fill="#ffffff" stroke="transparent" points="286,-172.7 286,-284.7 558,-284.7 558,-172.7 286,-172.7"/>
<polygon fill="#f5f5f5" stroke="transparent" points="288,-259.7 288,-282.7 556,-282.7 556,-259.7 288,-259.7"/>
<polygon fill="none" stroke="#000000" points="288,-259.7 288,-282.7 556,-282.7 556,-259.7 288,-259.7"/>
<text text-anchor="start" x="293" y="-268.8" font-family="Helvetica,sans-Serif" font-weight="bold" font-size="11.00" fill="#000000">R_DRUG_CONTEXT_CONTACT_TYPE</text>
<text text-anchor="start" x="521.0437" y="-267.8" font-family="Helvetica,sans-Serif" font-size="11.00" fill="#000000">[table]</text>
<polygon fill="none" stroke="#000000" points="288,-237.7 288,-259.7 495,-259.7 495,-237.7 288,-237.7"/>
<image xlink:href="../../images/primaryKeys.png" width="11px" height="12px" preserveAspectRatio="xMinYMin meet" x="293" y="-254.7"/>
<text text-anchor="start" x="308" y="-244.8" font-family="Helvetica,sans-Serif" font-size="11.00" fill="#000000">CONTEXT_ID</text>
<polygon fill="none" stroke="#000000" points="495,-237.7 495,-259.7 556,-259.7 556,-237.7 495,-237.7"/>
<text text-anchor="start" x="497.6865" y="-245.4" font-family="Helvetica,sans-Serif" font-size="11.00" fill="#000000">number[38]</text>
<polygon fill="none" stroke="#000000" points="288,-215.7 288,-237.7 495,-237.7 495,-215.7 288,-215.7"/>
<image xlink:href="../../images/primaryKeys.png" width="11px" height="12px" preserveAspectRatio="xMinYMin meet" x="293" y="-232.7"/>
<text text-anchor="start" x="308" y="-222.8" font-family="Helvetica,sans-Serif" font-size="11.00" fill="#000000">CONTACT_TYPE_ID</text>
<polygon fill="none" stroke="#000000" points="495,-215.7 495,-237.7 556,-237.7 556,-215.7 495,-215.7"/>
<text text-anchor="start" x="497.6865" y="-223.4" font-family="Helvetica,sans-Serif" font-size="11.00" fill="#000000">number[38]</text>
<polygon fill="none" stroke="#000000" points="288,-193.7 288,-215.7 495,-215.7 495,-193.7 288,-193.7"/>
<text text-anchor="start" x="308" y="-200.8" font-family="Helvetica,sans-Serif" font-size="11.00" fill="#000000">ROW_VERSION</text>
<polygon fill="none" stroke="#000000" points="495,-193.7 495,-215.7 556,-215.7 556,-193.7 495,-193.7"/>
<text text-anchor="start" x="497.6865" y="-201.4" font-family="Helvetica,sans-Serif" font-size="11.00" fill="#000000">number[38]</text>
<polygon fill="#ffffff" stroke="transparent" points="288,-174.7 288,-193.7 383,-193.7 383,-174.7 288,-174.7"/>
<polygon fill="none" stroke="#000000" points="288,-174.7 288,-193.7 383,-193.7 383,-174.7 288,-174.7"/>
<text text-anchor="start" x="291" y="-180.8" font-family="Helvetica,sans-Serif" font-size="11.00" fill="#000000">&lt; 2</text>
<polygon fill="#ffffff" stroke="transparent" points="383,-174.7 383,-193.7 495,-193.7 495,-174.7 383,-174.7"/>
<polygon fill="none" stroke="#000000" points="383,-174.7 383,-193.7 495,-193.7 495,-174.7 383,-174.7"/>
<text text-anchor="start" x="459.6105" y="-180.8" font-family="Helvetica,sans-Serif" font-size="11.00" fill="#000000">3 rows</text>
<polygon fill="#ffffff" stroke="transparent" points="495,-174.7 495,-193.7 556,-193.7 556,-174.7 495,-174.7"/>
<polygon fill="none" stroke="#000000" points="495,-174.7 495,-193.7 556,-193.7 556,-174.7 495,-174.7"/>
<text text-anchor="start" x="537.4053" y="-180.8" font-family="Helvetica,sans-Serif" font-size="11.00" fill="#000000">0 &gt;</text>
<polygon fill="none" stroke="#000000" stroke-width="2" points="287,-173.7 287,-283.7 557,-283.7 557,-173.7 287,-173.7"/>
</a>
</g>
</g>
<!-- R_CONTACT_TYPE -->
<g id="node2" class="node">
<title>R_CONTACT_TYPE</title>
<g id="a_node2"><a xlink:href="../../tables/R_CONTACT_TYPE.html" xlink:title="R_CONTACT_TYPE" target="_top">
<polygon fill="#ffffff" stroke="transparent" points="8,-38.2 8,-187.2 237,-187.2 237,-38.2 8,-38.2"/>
<polygon fill="#f5f5f5" stroke="transparent" points="8.5,-163.7 8.5,-186.7 237.5,-186.7 237.5,-163.7 8.5,-163.7"/>
<polygon fill="none" stroke="#000000" points="8.5,-163.7 8.5,-186.7 237.5,-186.7 237.5,-163.7 8.5,-163.7"/>
<text text-anchor="start" x="13.5" y="-172.8" font-family="Helvetica,sans-Serif" font-weight="bold" font-size="11.00" fill="#000000">R_CONTACT_TYPE</text>
<text text-anchor="start" x="202.5437" y="-171.8" font-family="Helvetica,sans-Serif" font-size="11.00" fill="#000000">[table]</text>
<polygon fill="none" stroke="#000000" points="8.5,-141.7 8.5,-163.7 237.5,-163.7 237.5,-141.7 8.5,-141.7"/>
<image xlink:href="../../images/primaryKeys.png" width="11px" height="12px" preserveAspectRatio="xMinYMin meet" x="13.5" y="-158.7"/>
<text text-anchor="start" x="28.5" y="-148.8" font-family="Helvetica,sans-Serif" font-size="11.00" fill="#000000">CONTACT_TYPE_ID</text>
<polygon fill="none" stroke="#000000" points="8.5,-119.7 8.5,-141.7 237.5,-141.7 237.5,-119.7 8.5,-119.7"/>
<image xlink:href="../../images/primaryKeys.png" width="11px" height="12px" preserveAspectRatio="xMinYMin meet" x="13.5" y="-136.7"/>
<text text-anchor="start" x="28.5" y="-126.8" font-family="Helvetica,sans-Serif" font-size="11.00" fill="#000000">CODE</text>
<polygon fill="none" stroke="#000000" points="8.5,-97.7 8.5,-119.7 237.5,-119.7 237.5,-97.7 8.5,-97.7"/>
<image xlink:href="../../images/primaryKeys.png" width="11px" height="12px" preserveAspectRatio="xMinYMin meet" x="13.5" y="-114.7"/>
<text text-anchor="start" x="28.5" y="-104.8" font-family="Helvetica,sans-Serif" font-size="11.00" fill="#000000">TRAINING_SESSION_ID</text>
<polygon fill="none" stroke="#000000" points="8.5,-75.7 8.5,-97.7 237.5,-97.7 237.5,-75.7 8.5,-75.7"/>
<image xlink:href="../../images/primaryKeys.png" width="11px" height="12px" preserveAspectRatio="xMinYMin meet" x="13.5" y="-92.7"/>
<text text-anchor="start" x="28.5" y="-82.8" font-family="Helvetica,sans-Serif" font-size="11.00" fill="#000000">CONTACT_TYPE_ICON_ID</text>
<polygon fill="none" stroke="#000000" points="8.5,-56.7 8.5,-75.7 237.5,-75.7 237.5,-56.7 8.5,-56.7"/>
<text text-anchor="start" x="11.5" y="-62.8" font-family="Helvetica,sans-Serif" font-size="11.00" fill="#000000">...</text>
<polygon fill="#ffffff" stroke="transparent" points="8.5,-37.7 8.5,-56.7 90.5,-56.7 90.5,-37.7 8.5,-37.7"/>
<polygon fill="none" stroke="#000000" points="8.5,-37.7 8.5,-56.7 90.5,-56.7 90.5,-37.7 8.5,-37.7"/>
<text text-anchor="start" x="11.5" y="-43.8" font-family="Helvetica,sans-Serif" font-size="11.00" fill="#000000">&lt; 1</text>
<polygon fill="#ffffff" stroke="transparent" points="90.5,-37.7 90.5,-56.7 179.5,-56.7 179.5,-37.7 90.5,-37.7"/>
<polygon fill="none" stroke="#000000" points="90.5,-37.7 90.5,-56.7 179.5,-56.7 179.5,-37.7 90.5,-37.7"/>
<text text-anchor="start" x="122.7089" y="-43.8" font-family="Helvetica,sans-Serif" font-size="11.00" fill="#000000">3,019 rows</text>
<polygon fill="#ffffff" stroke="transparent" points="179.5,-37.7 179.5,-56.7 237.5,-56.7 237.5,-37.7 179.5,-37.7"/>
<polygon fill="none" stroke="#000000" points="179.5,-37.7 179.5,-56.7 237.5,-56.7 237.5,-37.7 179.5,-37.7"/>
<text text-anchor="start" x="212.7904" y="-43.8" font-family="Helvetica,sans-Serif" font-size="11.00" fill="#000000">21 &gt;</text>
</a>
</g>
</g>
<!-- R_DRUG_CONTEXT_CONTACT_TYPE&#45;&gt;R_CONTACT_TYPE -->
<g id="edge1" class="edge">
<title>R_DRUG_CONTEXT_CONTACT_TYPE:w&#45;&gt;R_CONTACT_TYPE:e</title>
<path fill="none" stroke="#000000" d="M274.1154,-222.071C255.4593,-205.8706 271.2515,-152.7 237.5,-152.7"/>
<polygon fill="#000000" stroke="#000000" points="280.4107,-224.1697 286.8614,-230.1152 284.2053,-225.4349 288,-226.7 288,-226.7 288,-226.7 284.2053,-225.4349 289.1386,-223.2848 280.4107,-224.1697 280.4107,-224.1697"/>
<ellipse fill="none" stroke="#000000" cx="277.3749" cy="-223.1576" rx="3.2" ry="3.2"/>
</g>
<!-- R_STANDARD_REFERENCE_LIST -->
<g id="node3" class="node">
<title>R_STANDARD_REFERENCE_LIST</title>
<g id="a_node3"><a xlink:href="../../tables/R_STANDARD_REFERENCE_LIST.html" xlink:title="R_STANDARD_REFERENCE_LIST" target="_top">
<polygon fill="#ffffff" stroke="transparent" points="12.5,-208.2 12.5,-357.2 232.5,-357.2 232.5,-208.2 12.5,-208.2"/>
<polygon fill="#f5f5f5" stroke="transparent" points="12.5,-333.7 12.5,-356.7 232.5,-356.7 232.5,-333.7 12.5,-333.7"/>
<polygon fill="none" stroke="#000000" points="12.5,-333.7 12.5,-356.7 232.5,-356.7 232.5,-333.7 12.5,-333.7"/>
<text text-anchor="start" x="17.0842" y="-342.8" font-family="Helvetica,sans-Serif" font-weight="bold" font-size="11.00" fill="#000000">R_STANDARD_REFERENCE_LIST</text>
<text text-anchor="start" x="198.0219" y="-341.8" font-family="Helvetica,sans-Serif" font-size="11.00" fill="#000000">[table]</text>
<polygon fill="none" stroke="#000000" points="12.5,-311.7 12.5,-333.7 232.5,-333.7 232.5,-311.7 12.5,-311.7"/>
<image xlink:href="../../images/primaryKeys.png" width="11px" height="12px" preserveAspectRatio="xMinYMin meet" x="17.5" y="-328.7"/>
<text text-anchor="start" x="40.0558" y="-318.8" font-family="Helvetica,sans-Serif" font-size="11.00" fill="#000000">STANDARD_REFERENCE_LIST_ID</text>
<polygon fill="none" stroke="#000000" points="12.5,-289.7 12.5,-311.7 232.5,-311.7 232.5,-289.7 12.5,-289.7"/>
<image xlink:href="../../images/primaryKeys.png" width="11px" height="12px" preserveAspectRatio="xMinYMin meet" x="17.5" y="-306.7"/>
<text text-anchor="start" x="46.5" y="-296.8" font-family="Helvetica,sans-Serif" font-size="11.00" fill="#000000">CODE_VALUE</text>
<polygon fill="none" stroke="#000000" points="12.5,-267.7 12.5,-289.7 232.5,-289.7 232.5,-267.7 12.5,-267.7"/>
<image xlink:href="../../images/primaryKeys.png" width="11px" height="12px" preserveAspectRatio="xMinYMin meet" x="17.5" y="-284.7"/>
<text text-anchor="start" x="44.3337" y="-274.8" font-family="Helvetica,sans-Serif" font-size="11.00" fill="#000000">REFERENCE_DATA_MASTER_ID</text>
<polygon fill="none" stroke="#000000" points="12.5,-245.7 12.5,-267.7 232.5,-267.7 232.5,-245.7 12.5,-245.7"/>
<image xlink:href="../../images/primaryKeys.png" width="11px" height="12px" preserveAspectRatio="xMinYMin meet" x="17.5" y="-262.7"/>
<text text-anchor="start" x="46.5" y="-252.8" font-family="Helvetica,sans-Serif" font-size="11.00" fill="#000000">TRAINING_SESSION_ID</text>
<polygon fill="none" stroke="#000000" points="12.5,-226.7 12.5,-245.7 232.5,-245.7 232.5,-226.7 12.5,-226.7"/>
<text text-anchor="start" x="15.5" y="-232.8" font-family="Helvetica,sans-Serif" font-size="11.00" fill="#000000">...</text>
<polygon fill="#ffffff" stroke="transparent" points="12.5,-207.7 12.5,-226.7 83.5,-226.7 83.5,-207.7 12.5,-207.7"/>
<polygon fill="none" stroke="#000000" points="12.5,-207.7 12.5,-226.7 83.5,-226.7 83.5,-207.7 12.5,-207.7"/>
<text text-anchor="start" x="15.5" y="-213.8" font-family="Helvetica,sans-Serif" font-size="11.00" fill="#000000">&lt; 1</text>
<polygon fill="#ffffff" stroke="transparent" points="83.5,-207.7 83.5,-226.7 173.5,-226.7 173.5,-207.7 83.5,-207.7"/>
<polygon fill="none" stroke="#000000" points="83.5,-207.7 83.5,-226.7 173.5,-226.7 173.5,-207.7 83.5,-207.7"/>
<text text-anchor="start" x="110.594" y="-213.8" font-family="Helvetica,sans-Serif" font-size="11.00" fill="#000000">15,391 rows</text>
<polygon fill="#ffffff" stroke="transparent" points="173.5,-207.7 173.5,-226.7 232.5,-226.7 232.5,-207.7 173.5,-207.7"/>
<polygon fill="none" stroke="#000000" points="173.5,-207.7 173.5,-226.7 232.5,-226.7 232.5,-207.7 173.5,-207.7"/>
<text text-anchor="start" x="201.6755" y="-213.8" font-family="Helvetica,sans-Serif" font-size="11.00" fill="#000000">290 &gt;</text>
</a>
</g>
</g>
<!-- R_DRUG_CONTEXT_CONTACT_TYPE&#45;&gt;R_STANDARD_REFERENCE_LIST -->
<g id="edge2" class="edge">
<title>R_DRUG_CONTEXT_CONTACT_TYPE:w&#45;&gt;R_STANDARD_REFERENCE_LIST:e</title>
<path fill="none" stroke="#000000" d="M274.0158,-252.8906C253.1963,-268.5448 267.6693,-322.7 232.5,-322.7"/>
<polygon fill="#000000" stroke="#000000" points="280.3367,-250.9965 289.0334,-252.1485 284.1683,-249.8482 288,-248.7 288,-248.7 288,-248.7 284.1683,-249.8482 286.9666,-245.2515 280.3367,-250.9965 280.3367,-250.9965"/>
<ellipse fill="none" stroke="#000000" cx="277.2714" cy="-251.9151" rx="3.2" ry="3.2"/>
</g>
</g>
</svg>
