<?xml version="1.0" encoding="UTF-8" standalone="no"?>
<!DOCTYPE svg PUBLIC "-//W3C//DTD SVG 1.1//EN"
 "http://www.w3.org/Graphics/SVG/1.1/DTD/svg11.dtd">
<!-- Generated by graphviz version 2.40.1 (20161225.0304)
 -->
<!-- Title: twoDegreesRelationshipsDiagram Pages: 1 -->
<svg width="1122pt" height="942pt"
 viewBox="0.00 0.00 1122.00 941.71" xmlns="http://www.w3.org/2000/svg" xmlns:xlink="http://www.w3.org/1999/xlink">
<g id="graph0" class="graph" transform="scale(1 1) rotate(0) translate(4 937.7091)">
<title>twoDegreesRelationshipsDiagram</title>
<polygon fill="#ffffff" stroke="transparent" points="-4,4 -4,-937.7091 1118,-937.7091 1118,4 -4,4"/>
<text text-anchor="middle" x="72.4936" y="-7.3" font-family="Helvetica,sans-Serif" font-size="11.00" fill="#000000">Generated by SchemaSpy</text>
<!-- ASSESSMENT -->
<g id="node1" class="node">
<title>ASSESSMENT</title>
<g id="a_node1"><a xlink:href="../../tables/ASSESSMENT.html" xlink:title="ASSESSMENT" target="_top">
<polygon fill="#ffffff" stroke="transparent" points="794,-441.7091 794,-502.7091 912,-502.7091 912,-441.7091 794,-441.7091"/>
<polygon fill="#f5f5f5" stroke="transparent" points="794,-479.2091 794,-502.2091 912,-502.2091 912,-479.2091 794,-479.2091"/>
<polygon fill="none" stroke="#000000" points="794,-479.2091 794,-502.2091 912,-502.2091 912,-479.2091 794,-479.2091"/>
<text text-anchor="start" x="798.913" y="-488.3091" font-family="Helvetica,sans-Serif" font-weight="bold" font-size="11.00" fill="#000000">ASSESSMENT</text>
<text text-anchor="start" x="877.5219" y="-487.3091" font-family="Helvetica,sans-Serif" font-size="11.00" fill="#000000">[table]</text>
<polygon fill="none" stroke="#000000" points="794,-460.2091 794,-479.2091 912,-479.2091 912,-460.2091 794,-460.2091"/>
<text text-anchor="start" x="797" y="-466.3091" font-family="Helvetica,sans-Serif" font-size="11.00" fill="#000000">...</text>
<polygon fill="#ffffff" stroke="transparent" points="794,-441.2091 794,-460.2091 835,-460.2091 835,-441.2091 794,-441.2091"/>
<polygon fill="none" stroke="#000000" points="794,-441.2091 794,-460.2091 835,-460.2091 835,-441.2091 794,-441.2091"/>
<text text-anchor="start" x="797" y="-447.3091" font-family="Helvetica,sans-Serif" font-size="11.00" fill="#000000">&lt; 14</text>
<polygon fill="#ffffff" stroke="transparent" points="835,-441.2091 835,-460.2091 892,-460.2091 892,-441.2091 835,-441.2091"/>
<polygon fill="none" stroke="#000000" points="835,-441.2091 835,-460.2091 892,-460.2091 892,-441.2091 835,-441.2091"/>
<text text-anchor="start" x="844.3807" y="-447.3091" font-family="Helvetica,sans-Serif" font-size="11.00" fill="#000000">284 rows</text>
<polygon fill="#ffffff" stroke="transparent" points="892,-441.2091 892,-460.2091 912,-460.2091 912,-441.2091 892,-441.2091"/>
<polygon fill="none" stroke="#000000" points="892,-441.2091 892,-460.2091 912,-460.2091 912,-441.2091 892,-441.2091"/>
<text text-anchor="start" x="902.8862" y="-447.3091" font-family="Helvetica,sans-Serif" font-size="11.00" fill="#000000"> &#160;</text>
</a>
</g>
</g>
<!-- R_ENFORCEMENT_ACTION -->
<g id="node2" class="node">
<title>R_ENFORCEMENT_ACTION</title>
<g id="a_node2"><a xlink:href="../../tables/R_ENFORCEMENT_ACTION.html" xlink:title="R_ENFORCEMENT_ACTION" target="_top">
<polygon fill="#ffffff" stroke="transparent" points="211,-539.7091 211,-666.7091 408,-666.7091 408,-539.7091 211,-539.7091"/>
<polygon fill="#f5f5f5" stroke="transparent" points="211.5,-643.2091 211.5,-666.2091 408.5,-666.2091 408.5,-643.2091 211.5,-643.2091"/>
<polygon fill="none" stroke="#000000" points="211.5,-643.2091 211.5,-666.2091 408.5,-666.2091 408.5,-643.2091 211.5,-643.2091"/>
<text text-anchor="start" x="216.5" y="-652.3091" font-family="Helvetica,sans-Serif" font-weight="bold" font-size="11.00" fill="#000000">R_ENFORCEMENT_ACTION</text>
<text text-anchor="start" x="373.5437" y="-651.3091" font-family="Helvetica,sans-Serif" font-size="11.00" fill="#000000">[table]</text>
<polygon fill="none" stroke="#000000" points="211.5,-621.2091 211.5,-643.2091 408.5,-643.2091 408.5,-621.2091 211.5,-621.2091"/>
<image xlink:href="../../images/primaryKeys.png" width="11px" height="12px" preserveAspectRatio="xMinYMin meet" x="216.5" y="-638.209"/>
<text text-anchor="start" x="231.5" y="-628.3091" font-family="Helvetica,sans-Serif" font-size="11.00" fill="#000000">ENFORCEMENT_ACTION_ID</text>
<polygon fill="none" stroke="#000000" points="211.5,-599.2091 211.5,-621.2091 408.5,-621.2091 408.5,-599.2091 211.5,-599.2091"/>
<image xlink:href="../../images/primaryKeys.png" width="11px" height="12px" preserveAspectRatio="xMinYMin meet" x="216.5" y="-616.209"/>
<text text-anchor="start" x="231.5" y="-606.3091" font-family="Helvetica,sans-Serif" font-size="11.00" fill="#000000">CONTACT_TYPE_ID</text>
<polygon fill="none" stroke="#000000" points="211.5,-577.2091 211.5,-599.2091 408.5,-599.2091 408.5,-577.2091 211.5,-577.2091"/>
<image xlink:href="../../images/primaryKeys.png" width="11px" height="12px" preserveAspectRatio="xMinYMin meet" x="216.5" y="-594.209"/>
<text text-anchor="start" x="231.5" y="-584.3091" font-family="Helvetica,sans-Serif" font-size="11.00" fill="#000000">TRAINING_SESSION_ID</text>
<polygon fill="none" stroke="#000000" points="211.5,-558.2091 211.5,-577.2091 408.5,-577.2091 408.5,-558.2091 211.5,-558.2091"/>
<text text-anchor="start" x="214.5" y="-564.3091" font-family="Helvetica,sans-Serif" font-size="11.00" fill="#000000">...</text>
<polygon fill="#ffffff" stroke="transparent" points="211.5,-539.2091 211.5,-558.2091 287.5,-558.2091 287.5,-539.2091 211.5,-539.2091"/>
<polygon fill="none" stroke="#000000" points="211.5,-539.2091 211.5,-558.2091 287.5,-558.2091 287.5,-539.2091 211.5,-539.2091"/>
<text text-anchor="start" x="214.5" y="-545.3091" font-family="Helvetica,sans-Serif" font-size="11.00" fill="#000000">&lt; 1</text>
<polygon fill="#ffffff" stroke="transparent" points="287.5,-539.2091 287.5,-558.2091 359.5,-558.2091 359.5,-539.2091 287.5,-539.2091"/>
<polygon fill="none" stroke="#000000" points="287.5,-539.2091 287.5,-558.2091 359.5,-558.2091 359.5,-539.2091 287.5,-539.2091"/>
<text text-anchor="start" x="317.9956" y="-545.3091" font-family="Helvetica,sans-Serif" font-size="11.00" fill="#000000">49 rows</text>
<polygon fill="#ffffff" stroke="transparent" points="359.5,-539.2091 359.5,-558.2091 408.5,-558.2091 408.5,-539.2091 359.5,-539.2091"/>
<polygon fill="none" stroke="#000000" points="359.5,-539.2091 359.5,-558.2091 408.5,-558.2091 408.5,-539.2091 359.5,-539.2091"/>
<text text-anchor="start" x="389.9053" y="-545.3091" font-family="Helvetica,sans-Serif" font-size="11.00" fill="#000000">7 &gt;</text>
</a>
</g>
</g>
<!-- ASSESSMENT&#45;&gt;R_ENFORCEMENT_ACTION -->
<g id="edge1" class="edge">
<title>ASSESSMENT:w&#45;&gt;R_ENFORCEMENT_ACTION:e</title>
<path fill="none" stroke="#000000" d="M779.3991,-470.072C657.4295,-485.7085 846.4304,-709.7374 735,-803.2091 687.8396,-842.769 507.2071,-840.1922 458,-803.2091 394.7519,-755.6731 487.6202,-632.2091 408.5,-632.2091"/>
<polygon fill="#000000" stroke="#000000" points="786.0139,-469.6811 794.2124,-472.8029 790.007,-469.4451 794,-469.2091 794,-469.2091 794,-469.2091 790.007,-469.4451 793.7876,-465.6154 786.0139,-469.6811 786.0139,-469.6811"/>
<ellipse fill="none" stroke="#000000" cx="782.8195" cy="-469.8699" rx="3.2" ry="3.2"/>
</g>
<!-- R_CONTACT_OUTCOME_TYPE -->
<g id="node3" class="node">
<title>R_CONTACT_OUTCOME_TYPE</title>
<g id="a_node3"><a xlink:href="../../tables/R_CONTACT_OUTCOME_TYPE.html" xlink:title="R_CONTACT_OUTCOME_TYPE" target="_top">
<polygon fill="#ffffff" stroke="transparent" points="202,-371.7091 202,-476.7091 417,-476.7091 417,-371.7091 202,-371.7091"/>
<polygon fill="#f5f5f5" stroke="transparent" points="202.5,-453.2091 202.5,-476.2091 417.5,-476.2091 417.5,-453.2091 202.5,-453.2091"/>
<polygon fill="none" stroke="#000000" points="202.5,-453.2091 202.5,-476.2091 417.5,-476.2091 417.5,-453.2091 202.5,-453.2091"/>
<text text-anchor="start" x="207.5" y="-462.3091" font-family="Helvetica,sans-Serif" font-weight="bold" font-size="11.00" fill="#000000">R_CONTACT_OUTCOME_TYPE</text>
<text text-anchor="start" x="382.5437" y="-461.3091" font-family="Helvetica,sans-Serif" font-size="11.00" fill="#000000">[table]</text>
<polygon fill="none" stroke="#000000" points="202.5,-431.2091 202.5,-453.2091 417.5,-453.2091 417.5,-431.2091 202.5,-431.2091"/>
<image xlink:href="../../images/primaryKeys.png" width="11px" height="12px" preserveAspectRatio="xMinYMin meet" x="207.5" y="-448.209"/>
<text text-anchor="start" x="222.5" y="-438.3091" font-family="Helvetica,sans-Serif" font-size="11.00" fill="#000000">CONTACT_OUTCOME_TYPE_ID</text>
<polygon fill="none" stroke="#000000" points="202.5,-409.2091 202.5,-431.2091 417.5,-431.2091 417.5,-409.2091 202.5,-409.2091"/>
<image xlink:href="../../images/primaryKeys.png" width="11px" height="12px" preserveAspectRatio="xMinYMin meet" x="207.5" y="-426.209"/>
<text text-anchor="start" x="222.5" y="-416.3091" font-family="Helvetica,sans-Serif" font-size="11.00" fill="#000000">TRAINING_SESSION_ID</text>
<polygon fill="none" stroke="#000000" points="202.5,-390.2091 202.5,-409.2091 417.5,-409.2091 417.5,-390.2091 202.5,-390.2091"/>
<text text-anchor="start" x="205.5" y="-396.3091" font-family="Helvetica,sans-Serif" font-size="11.00" fill="#000000">...</text>
<polygon fill="#ffffff" stroke="transparent" points="202.5,-371.2091 202.5,-390.2091 277.5,-390.2091 277.5,-371.2091 202.5,-371.2091"/>
<polygon fill="none" stroke="#000000" points="202.5,-371.2091 202.5,-390.2091 277.5,-390.2091 277.5,-371.2091 202.5,-371.2091"/>
<text text-anchor="start" x="205.5" y="-377.3091" font-family="Helvetica,sans-Serif" font-size="11.00" fill="#000000"> &#160;</text>
<polygon fill="#ffffff" stroke="transparent" points="277.5,-371.2091 277.5,-390.2091 358.5,-390.2091 358.5,-371.2091 277.5,-371.2091"/>
<polygon fill="none" stroke="#000000" points="277.5,-371.2091 277.5,-390.2091 358.5,-390.2091 358.5,-371.2091 277.5,-371.2091"/>
<text text-anchor="start" x="310.8807" y="-377.3091" font-family="Helvetica,sans-Serif" font-size="11.00" fill="#000000">220 rows</text>
<polygon fill="#ffffff" stroke="transparent" points="358.5,-371.2091 358.5,-390.2091 417.5,-390.2091 417.5,-371.2091 358.5,-371.2091"/>
<polygon fill="none" stroke="#000000" points="358.5,-371.2091 358.5,-390.2091 417.5,-390.2091 417.5,-371.2091 358.5,-371.2091"/>
<text text-anchor="start" x="392.7904" y="-377.3091" font-family="Helvetica,sans-Serif" font-size="11.00" fill="#000000">11 &gt;</text>
</a>
</g>
</g>
<!-- ASSESSMENT&#45;&gt;R_CONTACT_OUTCOME_TYPE -->
<g id="edge2" class="edge">
<title>ASSESSMENT:w&#45;&gt;R_CONTACT_OUTCOME_TYPE:e</title>
<path fill="none" stroke="#000000" d="M779.4649,-469.2239C641.7952,-469.4985 601.0151,-473.2846 458,-452.2091 439.6575,-449.5061 436.0406,-442.2091 417.5,-442.2091"/>
<polygon fill="#000000" stroke="#000000" points="786,-469.2173 794.0037,-472.8091 790,-469.2132 794,-469.2091 794,-469.2091 794,-469.2091 790,-469.2132 793.9963,-465.6091 786,-469.2173 786,-469.2173"/>
<ellipse fill="none" stroke="#000000" cx="782.8" cy="-469.2206" rx="3.2" ry="3.2"/>
</g>
<!-- CONTACT -->
<g id="node4" class="node">
<title>CONTACT</title>
<g id="a_node4"><a xlink:href="../../tables/CONTACT.html" xlink:title="CONTACT" target="_top">
<polygon fill="#ffffff" stroke="transparent" points="533.5,-192.7091 533.5,-253.7091 659.5,-253.7091 659.5,-192.7091 533.5,-192.7091"/>
<polygon fill="#f5f5f5" stroke="transparent" points="533.5,-230.2091 533.5,-253.2091 659.5,-253.2091 659.5,-230.2091 533.5,-230.2091"/>
<polygon fill="none" stroke="#000000" points="533.5,-230.2091 533.5,-253.2091 659.5,-253.2091 659.5,-230.2091 533.5,-230.2091"/>
<text text-anchor="start" x="538.5" y="-239.3091" font-family="Helvetica,sans-Serif" font-weight="bold" font-size="11.00" fill="#000000">CONTACT</text>
<text text-anchor="start" x="624.5437" y="-238.3091" font-family="Helvetica,sans-Serif" font-size="11.00" fill="#000000">[table]</text>
<polygon fill="none" stroke="#000000" points="533.5,-211.2091 533.5,-230.2091 659.5,-230.2091 659.5,-211.2091 533.5,-211.2091"/>
<text text-anchor="start" x="536.5" y="-217.3091" font-family="Helvetica,sans-Serif" font-size="11.00" fill="#000000">...</text>
<polygon fill="#ffffff" stroke="transparent" points="533.5,-192.2091 533.5,-211.2091 560.5,-211.2091 560.5,-192.2091 533.5,-192.2091"/>
<polygon fill="none" stroke="#000000" points="533.5,-192.2091 533.5,-211.2091 560.5,-211.2091 560.5,-192.2091 533.5,-192.2091"/>
<text text-anchor="start" x="536.1452" y="-198.3091" font-family="Helvetica,sans-Serif" font-size="11.00" fill="#000000">&lt; 26</text>
<polygon fill="#ffffff" stroke="transparent" points="560.5,-192.2091 560.5,-211.2091 632.5,-211.2091 632.5,-192.2091 560.5,-192.2091"/>
<polygon fill="none" stroke="#000000" points="560.5,-192.2091 560.5,-211.2091 632.5,-211.2091 632.5,-192.2091 560.5,-192.2091"/>
<text text-anchor="start" x="563.4896" y="-198.3091" font-family="Helvetica,sans-Serif" font-size="11.00" fill="#000000">165,869 rows</text>
<polygon fill="#ffffff" stroke="transparent" points="632.5,-192.2091 632.5,-211.2091 659.5,-211.2091 659.5,-192.2091 632.5,-192.2091"/>
<polygon fill="none" stroke="#000000" points="632.5,-192.2091 632.5,-211.2091 659.5,-211.2091 659.5,-192.2091 632.5,-192.2091"/>
<text text-anchor="start" x="635.1452" y="-198.3091" font-family="Helvetica,sans-Serif" font-size="11.00" fill="#000000">14 &gt;</text>
</a>
</g>
</g>
<!-- ASSESSMENT&#45;&gt;CONTACT -->
<g id="edge3" class="edge">
<title>ASSESSMENT:w&#45;&gt;CONTACT:e</title>
<path fill="none" stroke="#000000" d="M779.6456,-467.9898C709.3576,-454.6377 789.9556,-334.7732 735,-264.2091 711.1361,-233.5675 698.3381,-220.2091 659.5,-220.2091"/>
<polygon fill="#000000" stroke="#000000" points="786.0287,-468.5319 793.6953,-472.7962 790.0144,-468.8705 794,-469.2091 794,-469.2091 794,-469.2091 790.0144,-468.8705 794.3047,-465.6221 786.0287,-468.5319 786.0287,-468.5319"/>
<ellipse fill="none" stroke="#000000" cx="782.8402" cy="-468.2611" rx="3.2" ry="3.2"/>
</g>
<!-- CONTACT_REDEF -->
<g id="node5" class="node">
<title>CONTACT_REDEF</title>
<g id="a_node5"><a xlink:href="../../tables/CONTACT_REDEF.html" xlink:title="CONTACT_REDEF" target="_top">
<polygon fill="#ffffff" stroke="transparent" points="527,-274.7091 527,-335.7091 666,-335.7091 666,-274.7091 527,-274.7091"/>
<polygon fill="#f5f5f5" stroke="transparent" points="527.5,-312.2091 527.5,-335.2091 666.5,-335.2091 666.5,-312.2091 527.5,-312.2091"/>
<polygon fill="none" stroke="#000000" points="527.5,-312.2091 527.5,-335.2091 666.5,-335.2091 666.5,-312.2091 527.5,-312.2091"/>
<text text-anchor="start" x="532.2282" y="-321.3091" font-family="Helvetica,sans-Serif" font-weight="bold" font-size="11.00" fill="#000000">CONTACT_REDEF</text>
<text text-anchor="start" x="632.0219" y="-320.3091" font-family="Helvetica,sans-Serif" font-size="11.00" fill="#000000">[table]</text>
<polygon fill="none" stroke="#000000" points="527.5,-293.2091 527.5,-312.2091 666.5,-312.2091 666.5,-293.2091 527.5,-293.2091"/>
<text text-anchor="start" x="530.5" y="-299.3091" font-family="Helvetica,sans-Serif" font-size="11.00" fill="#000000">...</text>
<polygon fill="#ffffff" stroke="transparent" points="527.5,-274.2091 527.5,-293.2091 560.5,-293.2091 560.5,-274.2091 527.5,-274.2091"/>
<polygon fill="none" stroke="#000000" points="527.5,-274.2091 527.5,-293.2091 560.5,-293.2091 560.5,-274.2091 527.5,-274.2091"/>
<text text-anchor="start" x="530.5" y="-280.3091" font-family="Helvetica,sans-Serif" font-size="11.00" fill="#000000">&lt; 26</text>
<polygon fill="#ffffff" stroke="transparent" points="560.5,-274.2091 560.5,-293.2091 635.5,-293.2091 635.5,-274.2091 560.5,-274.2091"/>
<polygon fill="none" stroke="#000000" points="560.5,-274.2091 560.5,-293.2091 635.5,-293.2091 635.5,-274.2091 560.5,-274.2091"/>
<text text-anchor="start" x="566.4791" y="-280.3091" font-family="Helvetica,sans-Serif" font-size="11.00" fill="#000000">165,869 rows</text>
<polygon fill="#ffffff" stroke="transparent" points="635.5,-274.2091 635.5,-293.2091 666.5,-293.2091 666.5,-274.2091 635.5,-274.2091"/>
<polygon fill="none" stroke="#000000" points="635.5,-274.2091 635.5,-293.2091 666.5,-293.2091 666.5,-274.2091 635.5,-274.2091"/>
<text text-anchor="start" x="641.7904" y="-280.3091" font-family="Helvetica,sans-Serif" font-size="11.00" fill="#000000">14 &gt;</text>
</a>
</g>
</g>
<!-- ASSESSMENT&#45;&gt;CONTACT_REDEF -->
<g id="edge4" class="edge">
<title>ASSESSMENT:w&#45;&gt;CONTACT_REDEF:e</title>
<path fill="none" stroke="#000000" d="M779.4958,-467.2545C740.4816,-454.949 771.3768,-387.3895 735,-346.2091 711.0446,-319.0905 702.684,-302.2091 666.5,-302.2091"/>
<polygon fill="#000000" stroke="#000000" points="786.0717,-468.1406 793.5192,-472.7769 790.0358,-468.6749 794,-469.2091 794,-469.2091 794,-469.2091 790.0358,-468.6749 794.4808,-465.6414 786.0717,-468.1406 786.0717,-468.1406"/>
<ellipse fill="none" stroke="#000000" cx="782.9003" cy="-467.7132" rx="3.2" ry="3.2"/>
</g>
<!-- REFERRAL -->
<g id="node6" class="node">
<title>REFERRAL</title>
<g id="a_node6"><a xlink:href="../../tables/REFERRAL.html" xlink:title="REFERRAL" target="_top">
<polygon fill="#ffffff" stroke="transparent" points="546,-493.7091 546,-554.7091 647,-554.7091 647,-493.7091 546,-493.7091"/>
<polygon fill="#f5f5f5" stroke="transparent" points="546.5,-531.2091 546.5,-554.2091 647.5,-554.2091 647.5,-531.2091 546.5,-531.2091"/>
<polygon fill="none" stroke="#000000" points="546.5,-531.2091 546.5,-554.2091 647.5,-554.2091 647.5,-531.2091 546.5,-531.2091"/>
<text text-anchor="start" x="551.1674" y="-540.3091" font-family="Helvetica,sans-Serif" font-weight="bold" font-size="11.00" fill="#000000">REFERRAL</text>
<text text-anchor="start" x="613.0219" y="-539.3091" font-family="Helvetica,sans-Serif" font-size="11.00" fill="#000000">[table]</text>
<polygon fill="none" stroke="#000000" points="546.5,-512.2091 546.5,-531.2091 647.5,-531.2091 647.5,-512.2091 546.5,-512.2091"/>
<text text-anchor="start" x="549.5" y="-518.3091" font-family="Helvetica,sans-Serif" font-size="11.00" fill="#000000">...</text>
<polygon fill="#ffffff" stroke="transparent" points="546.5,-493.2091 546.5,-512.2091 574.5,-512.2091 574.5,-493.2091 546.5,-493.2091"/>
<polygon fill="none" stroke="#000000" points="546.5,-493.2091 546.5,-512.2091 574.5,-512.2091 574.5,-493.2091 546.5,-493.2091"/>
<text text-anchor="start" x="549.5" y="-499.3091" font-family="Helvetica,sans-Serif" font-size="11.00" fill="#000000">&lt; 13</text>
<polygon fill="#ffffff" stroke="transparent" points="574.5,-493.2091 574.5,-512.2091 625.5,-512.2091 625.5,-493.2091 574.5,-493.2091"/>
<polygon fill="none" stroke="#000000" points="574.5,-493.2091 574.5,-512.2091 625.5,-512.2091 625.5,-493.2091 574.5,-493.2091"/>
<text text-anchor="start" x="577.8807" y="-499.3091" font-family="Helvetica,sans-Serif" font-size="11.00" fill="#000000">888 rows</text>
<polygon fill="#ffffff" stroke="transparent" points="625.5,-493.2091 625.5,-512.2091 647.5,-512.2091 647.5,-493.2091 625.5,-493.2091"/>
<polygon fill="none" stroke="#000000" points="625.5,-493.2091 625.5,-512.2091 647.5,-512.2091 647.5,-493.2091 625.5,-493.2091"/>
<text text-anchor="start" x="628.9053" y="-499.3091" font-family="Helvetica,sans-Serif" font-size="11.00" fill="#000000">1 &gt;</text>
</a>
</g>
</g>
<!-- ASSESSMENT&#45;&gt;REFERRAL -->
<g id="edge5" class="edge">
<title>ASSESSMENT:w&#45;&gt;REFERRAL:e</title>
<path fill="none" stroke="#000000" d="M779.571,-470.0259C723.3395,-476.6415 711.4632,-521.2091 647.5,-521.2091"/>
<polygon fill="#000000" stroke="#000000" points="786.0128,-469.6613 794.2035,-472.8034 790.0064,-469.4352 794,-469.2091 794,-469.2091 794,-469.2091 790.0064,-469.4352 793.7965,-465.6149 786.0128,-469.6613 786.0128,-469.6613"/>
<ellipse fill="none" stroke="#000000" cx="782.8179" cy="-469.8422" rx="3.2" ry="3.2"/>
</g>
<!-- R_CONTACT_TYPE -->
<g id="node7" class="node">
<title>R_CONTACT_TYPE</title>
<g id="a_node7"><a xlink:href="../../tables/R_CONTACT_TYPE.html" xlink:title="R_CONTACT_TYPE" target="_top">
<polygon fill="#ffffff" stroke="transparent" points="8,-253.7091 8,-314.7091 153,-314.7091 153,-253.7091 8,-253.7091"/>
<polygon fill="#f5f5f5" stroke="transparent" points="8.5,-291.2091 8.5,-314.2091 153.5,-314.2091 153.5,-291.2091 8.5,-291.2091"/>
<polygon fill="none" stroke="#000000" points="8.5,-291.2091 8.5,-314.2091 153.5,-314.2091 153.5,-291.2091 8.5,-291.2091"/>
<text text-anchor="start" x="13.4732" y="-300.3091" font-family="Helvetica,sans-Serif" font-weight="bold" font-size="11.00" fill="#000000">R_CONTACT_TYPE</text>
<text text-anchor="start" x="119.0219" y="-299.3091" font-family="Helvetica,sans-Serif" font-size="11.00" fill="#000000">[table]</text>
<polygon fill="none" stroke="#000000" points="8.5,-272.2091 8.5,-291.2091 153.5,-291.2091 153.5,-272.2091 8.5,-272.2091"/>
<text text-anchor="start" x="11.5" y="-278.3091" font-family="Helvetica,sans-Serif" font-size="11.00" fill="#000000">...</text>
<polygon fill="#ffffff" stroke="transparent" points="8.5,-253.2091 8.5,-272.2091 48.5,-272.2091 48.5,-253.2091 8.5,-253.2091"/>
<polygon fill="none" stroke="#000000" points="8.5,-253.2091 8.5,-272.2091 48.5,-272.2091 48.5,-253.2091 8.5,-253.2091"/>
<text text-anchor="start" x="11.5" y="-259.3091" font-family="Helvetica,sans-Serif" font-size="11.00" fill="#000000">&lt; 1</text>
<polygon fill="#ffffff" stroke="transparent" points="48.5,-253.2091 48.5,-272.2091 116.5,-272.2091 116.5,-253.2091 48.5,-253.2091"/>
<polygon fill="none" stroke="#000000" points="48.5,-253.2091 48.5,-272.2091 116.5,-272.2091 116.5,-253.2091 48.5,-253.2091"/>
<text text-anchor="start" x="59.7089" y="-259.3091" font-family="Helvetica,sans-Serif" font-size="11.00" fill="#000000">3,021 rows</text>
<polygon fill="#ffffff" stroke="transparent" points="116.5,-253.2091 116.5,-272.2091 153.5,-272.2091 153.5,-253.2091 116.5,-253.2091"/>
<polygon fill="none" stroke="#000000" points="116.5,-253.2091 116.5,-272.2091 153.5,-272.2091 153.5,-253.2091 116.5,-253.2091"/>
<text text-anchor="start" x="128.7904" y="-259.3091" font-family="Helvetica,sans-Serif" font-size="11.00" fill="#000000">24 &gt;</text>
</a>
</g>
</g>
<!-- R_ENFORCEMENT_ACTION&#45;&gt;R_CONTACT_TYPE -->
<g id="edge31" class="edge">
<title>R_ENFORCEMENT_ACTION:w&#45;&gt;R_CONTACT_TYPE:e</title>
<path fill="none" stroke="#000000" d="M197.8616,-605.303C149.478,-564.3765 222.3736,-281.2091 153.5,-281.2091"/>
<polygon fill="#000000" stroke="#000000" points="203.9722,-607.5012 210.2814,-613.5966 207.7361,-608.8552 211.5,-610.2091 211.5,-610.2091 211.5,-610.2091 207.7361,-608.8552 212.7186,-606.8216 203.9722,-607.5012 203.9722,-607.5012"/>
<ellipse fill="none" stroke="#000000" cx="200.9611" cy="-606.418" rx="3.2" ry="3.2"/>
</g>
<!-- CONTACT&#45;&gt;R_ENFORCEMENT_ACTION -->
<g id="edge8" class="edge">
<title>CONTACT:w&#45;&gt;R_ENFORCEMENT_ACTION:e</title>
<path fill="none" stroke="#000000" d="M518.824,-220.8877C490.4111,-223.7919 476.6098,-236.3198 458,-264.2091 412.2006,-332.846 491.0143,-632.2091 408.5,-632.2091"/>
<polygon fill="#000000" stroke="#000000" points="525.5085,-220.5787 533.6663,-223.8053 529.5043,-220.3939 533.5,-220.2091 533.5,-220.2091 533.5,-220.2091 529.5043,-220.3939 533.3337,-216.613 525.5085,-220.5787 525.5085,-220.5787"/>
<ellipse fill="none" stroke="#000000" cx="522.312" cy="-220.7265" rx="3.2" ry="3.2"/>
</g>
<!-- CONTACT&#45;&gt;R_CONTACT_OUTCOME_TYPE -->
<g id="edge6" class="edge">
<title>CONTACT:w&#45;&gt;R_CONTACT_OUTCOME_TYPE:e</title>
<path fill="none" stroke="#000000" d="M518.8934,-220.9362C490.749,-224.0286 477.8457,-237.1853 458,-264.2091 409.9765,-329.6027 498.633,-442.2091 417.5,-442.2091"/>
<polygon fill="#000000" stroke="#000000" points="525.5099,-220.6069 533.679,-223.8047 529.5049,-220.408 533.5,-220.2091 533.5,-220.2091 533.5,-220.2091 529.5049,-220.408 533.321,-216.6136 525.5099,-220.6069 525.5099,-220.6069"/>
<ellipse fill="none" stroke="#000000" cx="522.3138" cy="-220.766" rx="3.2" ry="3.2"/>
</g>
<!-- CONTACT&#45;&gt;R_CONTACT_TYPE -->
<g id="edge7" class="edge">
<title>CONTACT:w&#45;&gt;R_CONTACT_TYPE:e</title>
<path fill="none" stroke="#000000" d="M518.9761,-220.7002C426.2801,-226.4731 234.5154,-281.2091 153.5,-281.2091"/>
<polygon fill="#000000" stroke="#000000" points="525.5046,-220.4795 533.6217,-223.8071 529.5023,-220.3443 533.5,-220.2091 533.5,-220.2091 533.5,-220.2091 529.5023,-220.3443 533.3783,-216.6112 525.5046,-220.4795 525.5046,-220.4795"/>
<ellipse fill="none" stroke="#000000" cx="522.3064" cy="-220.5876" rx="3.2" ry="3.2"/>
</g>
<!-- CONTACT&#45;&gt;R_CONTACT_TYPE -->
<g id="edge9" class="edge">
<title>CONTACT:w&#45;&gt;R_CONTACT_TYPE:e</title>
<path fill="none" stroke="#000000" d="M518.8024,-220.3631C360.1141,-223.731 319.5398,-281.2091 153.5,-281.2091"/>
<polygon fill="#000000" stroke="#000000" points="525.5004,-220.293 533.5377,-223.8089 529.5002,-220.2511 533.5,-220.2091 533.5,-220.2091 533.5,-220.2091 529.5002,-220.2511 533.4623,-216.6093 525.5004,-220.293 525.5004,-220.293"/>
<ellipse fill="none" stroke="#000000" cx="522.3006" cy="-220.3266" rx="3.2" ry="3.2"/>
</g>
<!-- CONTACT_REDEF&#45;&gt;R_ENFORCEMENT_ACTION -->
<g id="edge16" class="edge">
<title>CONTACT_REDEF:w&#45;&gt;R_ENFORCEMENT_ACTION:e</title>
<path fill="none" stroke="#000000" d="M513.0522,-303.071C487.1287,-306.4911 475.3712,-320.2022 458,-346.2091 422.174,-399.845 473.0005,-632.2091 408.5,-632.2091"/>
<polygon fill="#000000" stroke="#000000" points="519.5142,-302.6856 527.7144,-305.8028 523.5071,-302.4474 527.5,-302.2091 527.5,-302.2091 527.5,-302.2091 523.5071,-302.4474 527.2856,-298.6155 519.5142,-302.6856 519.5142,-302.6856"/>
<ellipse fill="none" stroke="#000000" cx="516.3199" cy="-302.8762" rx="3.2" ry="3.2"/>
</g>
<!-- CONTACT_REDEF&#45;&gt;R_CONTACT_OUTCOME_TYPE -->
<g id="edge14" class="edge">
<title>CONTACT_REDEF:w&#45;&gt;R_CONTACT_OUTCOME_TYPE:e</title>
<path fill="none" stroke="#000000" d="M512.8851,-303.2596C487.8615,-307.25 478.1226,-322.4545 458,-346.2091 428.0681,-381.5436 463.8081,-442.2091 417.5,-442.2091"/>
<polygon fill="#000000" stroke="#000000" points="519.5206,-302.7827 527.7581,-305.7999 523.5103,-302.4959 527.5,-302.2091 527.5,-302.2091 527.5,-302.2091 523.5103,-302.4959 527.2419,-298.6184 519.5206,-302.7827 519.5206,-302.7827"/>
<ellipse fill="none" stroke="#000000" cx="516.3288" cy="-303.0121" rx="3.2" ry="3.2"/>
</g>
<!-- CONTACT_REDEF&#45;&gt;R_CONTACT_TYPE -->
<g id="edge15" class="edge">
<title>CONTACT_REDEF:w&#45;&gt;R_CONTACT_TYPE:e</title>
<path fill="none" stroke="#000000" d="M512.7178,-302.1526C358.4166,-300.9569 314.944,-281.2091 153.5,-281.2091"/>
<polygon fill="#000000" stroke="#000000" points="519.5001,-302.1785 527.4862,-305.8091 523.5,-302.1938 527.5,-302.2091 527.5,-302.2091 527.5,-302.2091 523.5,-302.1938 527.5138,-298.6092 519.5001,-302.1785 519.5001,-302.1785"/>
<ellipse fill="none" stroke="#000000" cx="516.3001" cy="-302.1662" rx="3.2" ry="3.2"/>
</g>
<!-- CONTACT_REDEF&#45;&gt;R_CONTACT_TYPE -->
<g id="edge17" class="edge">
<title>CONTACT_REDEF:w&#45;&gt;R_CONTACT_TYPE:e</title>
<path fill="none" stroke="#000000" d="M512.7178,-302.1526C358.4166,-300.9569 314.944,-281.2091 153.5,-281.2091"/>
<polygon fill="#000000" stroke="#000000" points="519.5001,-302.1785 527.4862,-305.8091 523.5,-302.1938 527.5,-302.2091 527.5,-302.2091 527.5,-302.2091 523.5,-302.1938 527.5138,-298.6092 519.5001,-302.1785 519.5001,-302.1785"/>
<ellipse fill="none" stroke="#000000" cx="516.3001" cy="-302.1662" rx="3.2" ry="3.2"/>
</g>
<!-- REFERRAL&#45;&gt;R_ENFORCEMENT_ACTION -->
<g id="edge32" class="edge">
<title>REFERRAL:w&#45;&gt;R_ENFORCEMENT_ACTION:e</title>
<path fill="none" stroke="#000000" d="M531.8443,-521.9313C499.4687,-525.405 487.6914,-541.2588 458,-566.2091 429.9286,-589.7982 445.1667,-632.2091 408.5,-632.2091"/>
<polygon fill="#000000" stroke="#000000" points="538.5097,-521.6029 546.6772,-524.8048 542.5048,-521.406 546.5,-521.2091 546.5,-521.2091 546.5,-521.2091 542.5048,-521.406 546.3228,-517.6135 538.5097,-521.6029 538.5097,-521.6029"/>
<ellipse fill="none" stroke="#000000" cx="535.3136" cy="-521.7605" rx="3.2" ry="3.2"/>
</g>
<!-- REFERRAL&#45;&gt;R_CONTACT_OUTCOME_TYPE -->
<g id="edge33" class="edge">
<title>REFERRAL:w&#45;&gt;R_CONTACT_OUTCOME_TYPE:e</title>
<path fill="none" stroke="#000000" d="M532.1004,-520.4496C500.4241,-516.8222 489.7607,-500.5523 458,-479.2091 437.7639,-465.6105 441.8807,-442.2091 417.5,-442.2091"/>
<polygon fill="#000000" stroke="#000000" points="538.5111,-520.7877 546.3103,-524.8041 542.5056,-520.9984 546.5,-521.2091 546.5,-521.2091 546.5,-521.2091 542.5056,-520.9984 546.6897,-517.6141 538.5111,-520.7877 538.5111,-520.7877"/>
<ellipse fill="none" stroke="#000000" cx="535.3155" cy="-520.6191" rx="3.2" ry="3.2"/>
</g>
<!-- CONTACT_ALERT -->
<g id="node8" class="node">
<title>CONTACT_ALERT</title>
<g id="a_node8"><a xlink:href="../../tables/CONTACT_ALERT.html" xlink:title="CONTACT_ALERT" target="_top">
<polygon fill="#ffffff" stroke="transparent" points="784.5,-147.7091 784.5,-208.7091 921.5,-208.7091 921.5,-147.7091 784.5,-147.7091"/>
<polygon fill="#f5f5f5" stroke="transparent" points="785,-185.2091 785,-208.2091 922,-208.2091 922,-185.2091 785,-185.2091"/>
<polygon fill="none" stroke="#000000" points="785,-185.2091 785,-208.2091 922,-208.2091 922,-185.2091 785,-185.2091"/>
<text text-anchor="start" x="789.6412" y="-194.3091" font-family="Helvetica,sans-Serif" font-weight="bold" font-size="11.00" fill="#000000">CONTACT_ALERT</text>
<text text-anchor="start" x="887.5219" y="-193.3091" font-family="Helvetica,sans-Serif" font-size="11.00" fill="#000000">[table]</text>
<polygon fill="none" stroke="#000000" points="785,-166.2091 785,-185.2091 922,-185.2091 922,-166.2091 785,-166.2091"/>
<text text-anchor="start" x="788" y="-172.3091" font-family="Helvetica,sans-Serif" font-size="11.00" fill="#000000">...</text>
<polygon fill="#ffffff" stroke="transparent" points="785,-147.2091 785,-166.2091 828,-166.2091 828,-147.2091 785,-147.2091"/>
<polygon fill="none" stroke="#000000" points="785,-147.2091 785,-166.2091 828,-166.2091 828,-147.2091 785,-147.2091"/>
<text text-anchor="start" x="788" y="-153.3091" font-family="Helvetica,sans-Serif" font-size="11.00" fill="#000000">&lt; 10</text>
<polygon fill="#ffffff" stroke="transparent" points="828,-147.2091 828,-166.2091 901,-166.2091 901,-147.2091 828,-147.2091"/>
<polygon fill="none" stroke="#000000" points="828,-147.2091 828,-166.2091 901,-166.2091 901,-147.2091 828,-147.2091"/>
<text text-anchor="start" x="838.094" y="-153.3091" font-family="Helvetica,sans-Serif" font-size="11.00" fill="#000000">19,615 rows</text>
<polygon fill="#ffffff" stroke="transparent" points="901,-147.2091 901,-166.2091 922,-166.2091 922,-147.2091 901,-147.2091"/>
<polygon fill="none" stroke="#000000" points="901,-147.2091 901,-166.2091 922,-166.2091 922,-147.2091 901,-147.2091"/>
<text text-anchor="start" x="912.8862" y="-153.3091" font-family="Helvetica,sans-Serif" font-size="11.00" fill="#000000"> &#160;</text>
</a>
</g>
</g>
<!-- CONTACT_ALERT&#45;&gt;R_CONTACT_OUTCOME_TYPE -->
<g id="edge12" class="edge">
<title>CONTACT_ALERT:w&#45;&gt;R_CONTACT_OUTCOME_TYPE:e</title>
<path fill="none" stroke="#000000" d="M770.4621,-174.7885C688.6755,-170.5862 509.3876,-137.2444 458,-182.2091 413.9937,-220.7152 475.9745,-442.2091 417.5,-442.2091"/>
<polygon fill="#000000" stroke="#000000" points="777.0033,-174.9777 784.8959,-178.8076 781.0017,-175.0934 785,-175.2091 785,-175.2091 785,-175.2091 781.0017,-175.0934 785.1041,-171.6106 777.0033,-174.9777 777.0033,-174.9777"/>
<ellipse fill="none" stroke="#000000" cx="773.8047" cy="-174.8851" rx="3.2" ry="3.2"/>
</g>
<!-- CONTACT_ALERT&#45;&gt;CONTACT -->
<g id="edge10" class="edge">
<title>CONTACT_ALERT:w&#45;&gt;CONTACT:e</title>
<path fill="none" stroke="#000000" d="M770.5163,-176.1909C724.1125,-182.7717 713.5471,-220.2091 659.5,-220.2091"/>
<polygon fill="#000000" stroke="#000000" points="777.0183,-175.7502 785.2435,-178.8009 781.0092,-175.4797 785,-175.2091 785,-175.2091 785,-175.2091 781.0092,-175.4797 784.7565,-171.6174 777.0183,-175.7502 777.0183,-175.7502"/>
<ellipse fill="none" stroke="#000000" cx="773.8256" cy="-175.9666" rx="3.2" ry="3.2"/>
</g>
<!-- CONTACT_ALERT&#45;&gt;CONTACT_REDEF -->
<g id="edge11" class="edge">
<title>CONTACT_ALERT:w&#45;&gt;CONTACT_REDEF:e</title>
<path fill="none" stroke="#000000" d="M770.8049,-177.8752C745.7372,-189.4901 763.0212,-236.3382 735,-264.2091 710.3158,-288.7609 701.3152,-302.2091 666.5,-302.2091"/>
<polygon fill="#000000" stroke="#000000" points="777.1375,-176.6859 785.6645,-178.7473 781.0687,-175.9475 785,-175.2091 785,-175.2091 785,-175.2091 781.0687,-175.9475 784.3355,-171.671 777.1375,-176.6859 777.1375,-176.6859"/>
<ellipse fill="none" stroke="#000000" cx="773.9925" cy="-177.2766" rx="3.2" ry="3.2"/>
</g>
<!-- CONTACT_ALERT&#45;&gt;R_CONTACT_TYPE -->
<g id="edge13" class="edge">
<title>CONTACT_ALERT:w&#45;&gt;R_CONTACT_TYPE:e</title>
<path fill="none" stroke="#000000" d="M770.7271,-172.2794C743.2329,-158.0707 773.0749,-96.0502 735,-72.2091 632.8539,-8.2493 282.9504,-28.8918 194,-110.2091 136.3553,-162.9072 231.6025,-281.2091 153.5,-281.2091"/>
<polygon fill="#000000" stroke="#000000" points="777.1634,-173.6005 784.2761,-178.7356 781.0817,-174.4048 785,-175.2091 785,-175.2091 785,-175.2091 781.0817,-174.4048 785.7239,-171.6827 777.1634,-173.6005 777.1634,-173.6005"/>
<ellipse fill="none" stroke="#000000" cx="774.0287" cy="-172.9571" rx="3.2" ry="3.2"/>
</g>
<!-- DRUGS_TEST -->
<g id="node9" class="node">
<title>DRUGS_TEST</title>
<g id="a_node9"><a xlink:href="../../tables/DRUGS_TEST.html" xlink:title="DRUGS_TEST" target="_top">
<polygon fill="#ffffff" stroke="transparent" points="538.5,-731.7091 538.5,-792.7091 654.5,-792.7091 654.5,-731.7091 538.5,-731.7091"/>
<polygon fill="#f5f5f5" stroke="transparent" points="538.5,-769.2091 538.5,-792.2091 654.5,-792.2091 654.5,-769.2091 538.5,-769.2091"/>
<polygon fill="none" stroke="#000000" points="538.5,-769.2091 538.5,-792.2091 654.5,-792.2091 654.5,-769.2091 538.5,-769.2091"/>
<text text-anchor="start" x="543.029" y="-778.3091" font-family="Helvetica,sans-Serif" font-weight="bold" font-size="11.00" fill="#000000">DRUGS_TEST</text>
<text text-anchor="start" x="620.0219" y="-777.3091" font-family="Helvetica,sans-Serif" font-size="11.00" fill="#000000">[table]</text>
<polygon fill="none" stroke="#000000" points="538.5,-750.2091 538.5,-769.2091 654.5,-769.2091 654.5,-750.2091 538.5,-750.2091"/>
<text text-anchor="start" x="541.5" y="-756.3091" font-family="Helvetica,sans-Serif" font-size="11.00" fill="#000000">...</text>
<polygon fill="#ffffff" stroke="transparent" points="538.5,-731.2091 538.5,-750.2091 574.5,-750.2091 574.5,-731.2091 538.5,-731.2091"/>
<polygon fill="none" stroke="#000000" points="538.5,-731.2091 538.5,-750.2091 574.5,-750.2091 574.5,-731.2091 538.5,-731.2091"/>
<text text-anchor="start" x="541.5" y="-737.3091" font-family="Helvetica,sans-Serif" font-size="11.00" fill="#000000">&lt; 12</text>
<polygon fill="#ffffff" stroke="transparent" points="574.5,-731.2091 574.5,-750.2091 628.5,-750.2091 628.5,-731.2091 574.5,-731.2091"/>
<polygon fill="none" stroke="#000000" points="574.5,-731.2091 574.5,-750.2091 628.5,-750.2091 628.5,-731.2091 574.5,-731.2091"/>
<text text-anchor="start" x="580.8807" y="-737.3091" font-family="Helvetica,sans-Serif" font-size="11.00" fill="#000000">117 rows</text>
<polygon fill="#ffffff" stroke="transparent" points="628.5,-731.2091 628.5,-750.2091 654.5,-750.2091 654.5,-731.2091 628.5,-731.2091"/>
<polygon fill="none" stroke="#000000" points="628.5,-731.2091 628.5,-750.2091 654.5,-750.2091 654.5,-731.2091 628.5,-731.2091"/>
<text text-anchor="start" x="635.9053" y="-737.3091" font-family="Helvetica,sans-Serif" font-size="11.00" fill="#000000">1 &gt;</text>
</a>
</g>
</g>
<!-- DRUGS_TEST&#45;&gt;R_ENFORCEMENT_ACTION -->
<g id="edge18" class="edge">
<title>DRUGS_TEST:w&#45;&gt;R_ENFORCEMENT_ACTION:e</title>
<path fill="none" stroke="#000000" d="M524.0886,-758.6167C495.4396,-756.0119 483.0537,-744.649 458,-721.2091 424.9481,-690.2864 453.7619,-632.2091 408.5,-632.2091"/>
<polygon fill="#000000" stroke="#000000" points="530.5068,-758.8805 538.3521,-762.8061 534.5034,-759.0448 538.5,-759.2091 538.5,-759.2091 538.5,-759.2091 534.5034,-759.0448 538.6479,-755.6122 530.5068,-758.8805 530.5068,-758.8805"/>
<ellipse fill="none" stroke="#000000" cx="527.3095" cy="-758.749" rx="3.2" ry="3.2"/>
</g>
<!-- DRUGS_TEST&#45;&gt;R_CONTACT_OUTCOME_TYPE -->
<g id="edge19" class="edge">
<title>DRUGS_TEST:w&#45;&gt;R_CONTACT_OUTCOME_TYPE:e</title>
<path fill="none" stroke="#000000" d="M523.8426,-758.8359C494.2049,-757.112 478.4054,-748.7906 458,-721.2091 420.7389,-670.8443 480.1498,-442.2091 417.5,-442.2091"/>
<polygon fill="#000000" stroke="#000000" points="530.5026,-759.0054 538.4083,-762.808 534.5013,-759.1073 538.5,-759.2091 538.5,-759.2091 538.5,-759.2091 534.5013,-759.1073 538.5917,-755.6103 530.5026,-759.0054 530.5026,-759.0054"/>
<ellipse fill="none" stroke="#000000" cx="527.3036" cy="-758.9239" rx="3.2" ry="3.2"/>
</g>
<!-- ENFORCEMENT -->
<g id="node10" class="node">
<title>ENFORCEMENT</title>
<g id="a_node10"><a xlink:href="../../tables/ENFORCEMENT.html" xlink:title="ENFORCEMENT" target="_top">
<polygon fill="#ffffff" stroke="transparent" points="979,-276.7091 979,-337.7091 1106,-337.7091 1106,-276.7091 979,-276.7091"/>
<polygon fill="#f5f5f5" stroke="transparent" points="979.5,-314.2091 979.5,-337.2091 1106.5,-337.2091 1106.5,-314.2091 979.5,-314.2091"/>
<polygon fill="none" stroke="#000000" points="979.5,-314.2091 979.5,-337.2091 1106.5,-337.2091 1106.5,-314.2091 979.5,-314.2091"/>
<text text-anchor="start" x="984.0351" y="-323.3091" font-family="Helvetica,sans-Serif" font-weight="bold" font-size="11.00" fill="#000000">ENFORCEMENT</text>
<text text-anchor="start" x="1072.0219" y="-322.3091" font-family="Helvetica,sans-Serif" font-size="11.00" fill="#000000">[table]</text>
<polygon fill="none" stroke="#000000" points="979.5,-295.2091 979.5,-314.2091 1106.5,-314.2091 1106.5,-295.2091 979.5,-295.2091"/>
<text text-anchor="start" x="982.5" y="-301.3091" font-family="Helvetica,sans-Serif" font-size="11.00" fill="#000000">...</text>
<polygon fill="#ffffff" stroke="transparent" points="979.5,-276.2091 979.5,-295.2091 1022.5,-295.2091 1022.5,-276.2091 979.5,-276.2091"/>
<polygon fill="none" stroke="#000000" points="979.5,-276.2091 979.5,-295.2091 1022.5,-295.2091 1022.5,-276.2091 979.5,-276.2091"/>
<text text-anchor="start" x="982.5" y="-282.3091" font-family="Helvetica,sans-Serif" font-size="11.00" fill="#000000">&lt; 5</text>
<polygon fill="#ffffff" stroke="transparent" points="1022.5,-276.2091 1022.5,-295.2091 1083.5,-295.2091 1083.5,-276.2091 1022.5,-276.2091"/>
<polygon fill="none" stroke="#000000" points="1022.5,-276.2091 1022.5,-295.2091 1083.5,-295.2091 1083.5,-276.2091 1022.5,-276.2091"/>
<text text-anchor="start" x="1035.8807" y="-282.3091" font-family="Helvetica,sans-Serif" font-size="11.00" fill="#000000">564 rows</text>
<polygon fill="#ffffff" stroke="transparent" points="1083.5,-276.2091 1083.5,-295.2091 1106.5,-295.2091 1106.5,-276.2091 1083.5,-276.2091"/>
<polygon fill="none" stroke="#000000" points="1083.5,-276.2091 1083.5,-295.2091 1106.5,-295.2091 1106.5,-276.2091 1083.5,-276.2091"/>
<text text-anchor="start" x="1097.3862" y="-282.3091" font-family="Helvetica,sans-Serif" font-size="11.00" fill="#000000"> &#160;</text>
</a>
</g>
</g>
<!-- ENFORCEMENT&#45;&gt;R_ENFORCEMENT_ACTION -->
<g id="edge22" class="edge">
<title>ENFORCEMENT:w&#45;&gt;R_ENFORCEMENT_ACTION:e</title>
<path fill="none" stroke="#000000" d="M965.9773,-310.1494C936.9716,-340.0622 953.7672,-474.2949 938,-513.2091 875.5955,-667.2269 880.9605,-747.7652 735,-827.2091 680.9341,-856.6363 505.9218,-865.8432 458,-827.2091 388.389,-771.0894 497.9154,-632.2091 408.5,-632.2091"/>
<polygon fill="#000000" stroke="#000000" points="972.1755,-307.4267 980.9479,-307.5051 975.8378,-305.8179 979.5,-304.2091 979.5,-304.2091 979.5,-304.2091 975.8378,-305.8179 978.0521,-300.9131 972.1755,-307.4267 972.1755,-307.4267"/>
<ellipse fill="none" stroke="#000000" cx="969.2458" cy="-308.7137" rx="3.2" ry="3.2"/>
</g>
<!-- ENFORCEMENT&#45;&gt;CONTACT -->
<g id="edge20" class="edge">
<title>ENFORCEMENT:w&#45;&gt;CONTACT:e</title>
<path fill="none" stroke="#000000" d="M965.2754,-301.228C956.4602,-296.9271 951.5841,-288.9759 938,-284.2091 818.1601,-242.1564 786.504,-220.2091 659.5,-220.2091"/>
<polygon fill="#000000" stroke="#000000" points="971.6701,-302.5681 978.7615,-307.7326 975.5851,-303.3886 979.5,-304.2091 979.5,-304.2091 979.5,-304.2091 975.5851,-303.3886 980.2385,-300.6857 971.6701,-302.5681 971.6701,-302.5681"/>
<ellipse fill="none" stroke="#000000" cx="968.5381" cy="-301.9117" rx="3.2" ry="3.2"/>
</g>
<!-- ENFORCEMENT&#45;&gt;CONTACT_REDEF -->
<g id="edge21" class="edge">
<title>ENFORCEMENT:w&#45;&gt;CONTACT_REDEF:e</title>
<path fill="none" stroke="#000000" d="M965.1959,-301.9684C956.7087,-299.0383 951.0695,-294.0608 938,-292.2091 863.1915,-281.6105 843.4645,-288.5007 768,-292.2091 722.7251,-294.434 711.8295,-302.2091 666.5,-302.2091"/>
<polygon fill="#000000" stroke="#000000" points="971.5964,-302.971 978.9428,-307.7658 975.5482,-303.5901 979.5,-304.2091 979.5,-304.2091 979.5,-304.2091 975.5482,-303.5901 980.0572,-300.6525 971.5964,-302.971 971.5964,-302.971"/>
<ellipse fill="none" stroke="#000000" cx="968.4349" cy="-302.4757" rx="3.2" ry="3.2"/>
</g>
<!-- UPW_APPOINTMENT -->
<g id="node11" class="node">
<title>UPW_APPOINTMENT</title>
<g id="a_node11"><a xlink:href="../../tables/UPW_APPOINTMENT.html" xlink:title="UPW_APPOINTMENT" target="_top">
<polygon fill="#ffffff" stroke="transparent" points="776,-302.7091 776,-363.7091 930,-363.7091 930,-302.7091 776,-302.7091"/>
<polygon fill="#f5f5f5" stroke="transparent" points="776,-340.2091 776,-363.2091 930,-363.2091 930,-340.2091 776,-340.2091"/>
<polygon fill="none" stroke="#000000" points="776,-340.2091 776,-363.2091 930,-363.2091 930,-340.2091 776,-340.2091"/>
<text text-anchor="start" x="780.8923" y="-349.3091" font-family="Helvetica,sans-Serif" font-weight="bold" font-size="11.00" fill="#000000">UPW_APPOINTMENT</text>
<text text-anchor="start" x="895.5219" y="-348.3091" font-family="Helvetica,sans-Serif" font-size="11.00" fill="#000000">[table]</text>
<polygon fill="none" stroke="#000000" points="776,-321.2091 776,-340.2091 930,-340.2091 930,-321.2091 776,-321.2091"/>
<text text-anchor="start" x="779" y="-327.3091" font-family="Helvetica,sans-Serif" font-size="11.00" fill="#000000">...</text>
<polygon fill="#ffffff" stroke="transparent" points="776,-302.2091 776,-321.2091 826,-321.2091 826,-302.2091 776,-302.2091"/>
<polygon fill="none" stroke="#000000" points="776,-302.2091 776,-321.2091 826,-321.2091 826,-302.2091 776,-302.2091"/>
<text text-anchor="start" x="779" y="-308.3091" font-family="Helvetica,sans-Serif" font-size="11.00" fill="#000000">&lt; 17</text>
<polygon fill="#ffffff" stroke="transparent" points="826,-302.2091 826,-321.2091 897,-321.2091 897,-302.2091 826,-302.2091"/>
<polygon fill="none" stroke="#000000" points="826,-302.2091 826,-321.2091 897,-321.2091 897,-302.2091 826,-302.2091"/>
<text text-anchor="start" x="840.2089" y="-308.3091" font-family="Helvetica,sans-Serif" font-size="11.00" fill="#000000">8,642 rows</text>
<polygon fill="#ffffff" stroke="transparent" points="897,-302.2091 897,-321.2091 930,-321.2091 930,-302.2091 897,-302.2091"/>
<polygon fill="none" stroke="#000000" points="897,-302.2091 897,-321.2091 930,-321.2091 930,-302.2091 897,-302.2091"/>
<text text-anchor="start" x="911.4053" y="-308.3091" font-family="Helvetica,sans-Serif" font-size="11.00" fill="#000000">1 &gt;</text>
</a>
</g>
</g>
<!-- ENFORCEMENT&#45;&gt;UPW_APPOINTMENT -->
<g id="edge23" class="edge">
<title>ENFORCEMENT:w&#45;&gt;UPW_APPOINTMENT:e</title>
<path fill="none" stroke="#000000" d="M965.5104,-307.8243C953.3677,-314.9684 949.0259,-330.2091 930,-330.2091"/>
<polygon fill="#000000" stroke="#000000" points="971.7544,-306.2108 980.4007,-307.6946 975.6272,-305.21 979.5,-304.2091 979.5,-304.2091 979.5,-304.2091 975.6272,-305.21 978.5993,-300.7236 971.7544,-306.2108 971.7544,-306.2108"/>
<ellipse fill="none" stroke="#000000" cx="968.6562" cy="-307.0114" rx="3.2" ry="3.2"/>
</g>
<!-- UPW_APPOINTMENT&#45;&gt;R_CONTACT_OUTCOME_TYPE -->
<g id="edge36" class="edge">
<title>UPW_APPOINTMENT:w&#45;&gt;R_CONTACT_OUTCOME_TYPE:e</title>
<path fill="none" stroke="#000000" d="M761.9585,-333.5013C738.9801,-347.7781 768.7264,-404.6717 735,-428.2091 677.0852,-468.6275 488.1241,-442.2091 417.5,-442.2091"/>
<polygon fill="#000000" stroke="#000000" points="768.2112,-332.0353 776.8218,-333.7141 772.1056,-331.1222 776,-330.2091 776,-330.2091 776,-330.2091 772.1056,-331.1222 775.1782,-326.7042 768.2112,-332.0353 768.2112,-332.0353"/>
<ellipse fill="none" stroke="#000000" cx="765.0957" cy="-332.7658" rx="3.2" ry="3.2"/>
</g>
<!-- UPW_APPOINTMENT&#45;&gt;CONTACT -->
<g id="edge34" class="edge">
<title>UPW_APPOINTMENT:w&#45;&gt;CONTACT:e</title>
<path fill="none" stroke="#000000" d="M761.9454,-326.4947C746.6513,-315.7176 755.311,-283.9552 735,-264.2091 707.1528,-237.1365 698.3381,-220.2091 659.5,-220.2091"/>
<polygon fill="#000000" stroke="#000000" points="768.2656,-328.165 775.0801,-333.6896 772.1328,-329.1871 776,-330.2091 776,-330.2091 776,-330.2091 772.1328,-329.1871 776.9199,-326.7286 768.2656,-328.165 768.2656,-328.165"/>
<ellipse fill="none" stroke="#000000" cx="765.1718" cy="-327.3473" rx="3.2" ry="3.2"/>
</g>
<!-- UPW_APPOINTMENT&#45;&gt;CONTACT_REDEF -->
<g id="edge35" class="edge">
<title>UPW_APPOINTMENT:w&#45;&gt;CONTACT_REDEF:e</title>
<path fill="none" stroke="#000000" d="M761.3842,-329.3405C723.4034,-324.6144 711.4346,-302.2091 666.5,-302.2091"/>
<polygon fill="#000000" stroke="#000000" points="768.0141,-329.7344 775.7864,-333.8028 772.007,-329.9718 776,-330.2091 776,-330.2091 776,-330.2091 772.007,-329.9718 776.2136,-326.6155 768.0141,-329.7344 768.0141,-329.7344"/>
<ellipse fill="none" stroke="#000000" cx="764.8197" cy="-329.5446" rx="3.2" ry="3.2"/>
</g>
<!-- R_CON_OUT_TYPE_CONTACT_TYPE -->
<g id="node12" class="node">
<title>R_CON_OUT_TYPE_CONTACT_TYPE</title>
<g id="a_node12"><a xlink:href="../../tables/R_CON_OUT_TYPE_CONTACT_TYPE.html" xlink:title="R_CON_OUT_TYPE_CONTACT_TYPE" target="_top">
<polygon fill="#ffffff" stroke="transparent" points="477,-82.7091 477,-143.7091 716,-143.7091 716,-82.7091 477,-82.7091"/>
<polygon fill="#f5f5f5" stroke="transparent" points="477.5,-120.2091 477.5,-143.2091 716.5,-143.2091 716.5,-120.2091 477.5,-120.2091"/>
<polygon fill="none" stroke="#000000" points="477.5,-120.2091 477.5,-143.2091 716.5,-143.2091 716.5,-120.2091 477.5,-120.2091"/>
<text text-anchor="start" x="482.1089" y="-129.3091" font-family="Helvetica,sans-Serif" font-weight="bold" font-size="11.00" fill="#000000">R_CON_OUT_TYPE_CONTACT_TYPE</text>
<text text-anchor="start" x="682.0219" y="-128.3091" font-family="Helvetica,sans-Serif" font-size="11.00" fill="#000000">[table]</text>
<polygon fill="none" stroke="#000000" points="477.5,-101.2091 477.5,-120.2091 716.5,-120.2091 716.5,-101.2091 477.5,-101.2091"/>
<text text-anchor="start" x="480.5" y="-107.3091" font-family="Helvetica,sans-Serif" font-size="11.00" fill="#000000">...</text>
<polygon fill="#ffffff" stroke="transparent" points="477.5,-82.2091 477.5,-101.2091 582.5,-101.2091 582.5,-82.2091 477.5,-82.2091"/>
<polygon fill="none" stroke="#000000" points="477.5,-82.2091 477.5,-101.2091 582.5,-101.2091 582.5,-82.2091 477.5,-82.2091"/>
<text text-anchor="start" x="480.5" y="-88.3091" font-family="Helvetica,sans-Serif" font-size="11.00" fill="#000000">&lt; 2</text>
<polygon fill="#ffffff" stroke="transparent" points="582.5,-82.2091 582.5,-101.2091 662.5,-101.2091 662.5,-82.2091 582.5,-82.2091"/>
<polygon fill="none" stroke="#000000" points="582.5,-82.2091 582.5,-101.2091 662.5,-101.2091 662.5,-82.2091 582.5,-82.2091"/>
<text text-anchor="start" x="627.1105" y="-88.3091" font-family="Helvetica,sans-Serif" font-size="11.00" fill="#000000">0 rows</text>
<polygon fill="#ffffff" stroke="transparent" points="662.5,-82.2091 662.5,-101.2091 716.5,-101.2091 716.5,-82.2091 662.5,-82.2091"/>
<polygon fill="none" stroke="#000000" points="662.5,-82.2091 662.5,-101.2091 716.5,-101.2091 716.5,-82.2091 662.5,-82.2091"/>
<text text-anchor="start" x="707.3862" y="-88.3091" font-family="Helvetica,sans-Serif" font-size="11.00" fill="#000000"> &#160;</text>
</a>
</g>
</g>
<!-- R_CON_OUT_TYPE_CONTACT_TYPE&#45;&gt;R_CONTACT_OUTCOME_TYPE -->
<g id="edge24" class="edge">
<title>R_CON_OUT_TYPE_CONTACT_TYPE:w&#45;&gt;R_CONTACT_OUTCOME_TYPE:e</title>
<path fill="none" stroke="#000000" d="M463.7054,-115.16C414.6658,-156.4597 487.055,-442.2091 417.5,-442.2091"/>
<polygon fill="#000000" stroke="#000000" points="469.9703,-112.9116 478.7161,-113.5975 473.7351,-111.5604 477.5,-110.2091 477.5,-110.2091 477.5,-110.2091 473.7351,-111.5604 476.2839,-106.8208 469.9703,-112.9116 469.9703,-112.9116"/>
<ellipse fill="none" stroke="#000000" cx="466.9584" cy="-113.9926" rx="3.2" ry="3.2"/>
</g>
<!-- R_CON_OUT_TYPE_CONTACT_TYPE&#45;&gt;R_CONTACT_TYPE -->
<g id="edge25" class="edge">
<title>R_CON_OUT_TYPE_CONTACT_TYPE:w&#45;&gt;R_CONTACT_TYPE:e</title>
<path fill="none" stroke="#000000" d="M463.0802,-110.3458C338.1198,-112.7813 298.2144,-147.9343 194,-228.2091 170.5141,-246.3 183.1456,-281.2091 153.5,-281.2091"/>
<polygon fill="#000000" stroke="#000000" points="469.5004,-110.285 477.5341,-113.809 473.5002,-110.2471 477.5,-110.2091 477.5,-110.2091 477.5,-110.2091 473.5002,-110.2471 477.4659,-106.6093 469.5004,-110.285 469.5004,-110.285"/>
<ellipse fill="none" stroke="#000000" cx="466.3005" cy="-110.3153" rx="3.2" ry="3.2"/>
</g>
<!-- R_CONTACT_OUTCOME_UPW_REASON -->
<g id="node13" class="node">
<title>R_CONTACT_OUTCOME_UPW_REASON</title>
<g id="a_node13"><a xlink:href="../../tables/R_CONTACT_OUTCOME_UPW_REASON.html" xlink:title="R_CONTACT_OUTCOME_UPW_REASON" target="_top">
<polygon fill="#ffffff" stroke="transparent" points="468.5,-356.7091 468.5,-417.7091 724.5,-417.7091 724.5,-356.7091 468.5,-356.7091"/>
<polygon fill="#f5f5f5" stroke="transparent" points="468.5,-394.2091 468.5,-417.2091 724.5,-417.2091 724.5,-394.2091 468.5,-394.2091"/>
<polygon fill="none" stroke="#000000" points="468.5,-394.2091 468.5,-417.2091 724.5,-417.2091 724.5,-394.2091 468.5,-394.2091"/>
<text text-anchor="start" x="473.0624" y="-403.3091" font-family="Helvetica,sans-Serif" font-weight="bold" font-size="11.00" fill="#000000">R_CONTACT_OUTCOME_UPW_REASON</text>
<text text-anchor="start" x="690.0219" y="-402.3091" font-family="Helvetica,sans-Serif" font-size="11.00" fill="#000000">[table]</text>
<polygon fill="none" stroke="#000000" points="468.5,-375.2091 468.5,-394.2091 724.5,-394.2091 724.5,-375.2091 468.5,-375.2091"/>
<text text-anchor="start" x="471.5" y="-381.3091" font-family="Helvetica,sans-Serif" font-size="11.00" fill="#000000">...</text>
<polygon fill="#ffffff" stroke="transparent" points="468.5,-356.2091 468.5,-375.2091 581.5,-375.2091 581.5,-356.2091 468.5,-356.2091"/>
<polygon fill="none" stroke="#000000" points="468.5,-356.2091 468.5,-375.2091 581.5,-375.2091 581.5,-356.2091 468.5,-356.2091"/>
<text text-anchor="start" x="471.5" y="-362.3091" font-family="Helvetica,sans-Serif" font-size="11.00" fill="#000000">&lt; 2</text>
<polygon fill="#ffffff" stroke="transparent" points="581.5,-356.2091 581.5,-375.2091 665.5,-375.2091 665.5,-356.2091 581.5,-356.2091"/>
<polygon fill="none" stroke="#000000" points="581.5,-356.2091 581.5,-375.2091 665.5,-375.2091 665.5,-356.2091 581.5,-356.2091"/>
<text text-anchor="start" x="630.1105" y="-362.3091" font-family="Helvetica,sans-Serif" font-size="11.00" fill="#000000">5 rows</text>
<polygon fill="#ffffff" stroke="transparent" points="665.5,-356.2091 665.5,-375.2091 724.5,-375.2091 724.5,-356.2091 665.5,-356.2091"/>
<polygon fill="none" stroke="#000000" points="665.5,-356.2091 665.5,-375.2091 724.5,-375.2091 724.5,-356.2091 665.5,-356.2091"/>
<text text-anchor="start" x="715.3862" y="-362.3091" font-family="Helvetica,sans-Serif" font-size="11.00" fill="#000000"> &#160;</text>
</a>
</g>
</g>
<!-- R_CONTACT_OUTCOME_UPW_REASON&#45;&gt;R_CONTACT_OUTCOME_TYPE -->
<g id="edge26" class="edge">
<title>R_CONTACT_OUTCOME_UPW_REASON:w&#45;&gt;R_CONTACT_OUTCOME_TYPE:e</title>
<path fill="none" stroke="#000000" d="M454.4278,-389.1542C438.8395,-403.1802 445.658,-442.2091 417.5,-442.2091"/>
<polygon fill="#000000" stroke="#000000" points="460.9524,-386.8614 469.6935,-387.6055 464.7262,-385.5353 468.5,-384.2091 468.5,-384.2091 468.5,-384.2091 464.7262,-385.5353 467.3065,-380.8127 460.9524,-386.8614 460.9524,-386.8614"/>
<ellipse fill="none" stroke="#000000" cx="457.9334" cy="-387.9223" rx="3.2" ry="3.2"/>
</g>
<!-- R_CONTACT_TYPE_OUTCOME -->
<g id="node14" class="node">
<title>R_CONTACT_TYPE_OUTCOME</title>
<g id="a_node14"><a xlink:href="../../tables/R_CONTACT_TYPE_OUTCOME.html" xlink:title="R_CONTACT_TYPE_OUTCOME" target="_top">
<polygon fill="#ffffff" stroke="transparent" points="493,-868.7091 493,-929.7091 700,-929.7091 700,-868.7091 493,-868.7091"/>
<polygon fill="#f5f5f5" stroke="transparent" points="493.5,-906.2091 493.5,-929.2091 700.5,-929.2091 700.5,-906.2091 493.5,-906.2091"/>
<polygon fill="none" stroke="#000000" points="493.5,-906.2091 493.5,-929.2091 700.5,-929.2091 700.5,-906.2091 493.5,-906.2091"/>
<text text-anchor="start" x="498.3091" y="-915.3091" font-family="Helvetica,sans-Serif" font-weight="bold" font-size="11.00" fill="#000000">R_CONTACT_TYPE_OUTCOME</text>
<text text-anchor="start" x="666.0219" y="-914.3091" font-family="Helvetica,sans-Serif" font-size="11.00" fill="#000000">[table]</text>
<polygon fill="none" stroke="#000000" points="493.5,-887.2091 493.5,-906.2091 700.5,-906.2091 700.5,-887.2091 493.5,-887.2091"/>
<text text-anchor="start" x="496.5" y="-893.3091" font-family="Helvetica,sans-Serif" font-size="11.00" fill="#000000">...</text>
<polygon fill="#ffffff" stroke="transparent" points="493.5,-868.2091 493.5,-887.2091 571.5,-887.2091 571.5,-868.2091 493.5,-868.2091"/>
<polygon fill="none" stroke="#000000" points="493.5,-868.2091 493.5,-887.2091 571.5,-887.2091 571.5,-868.2091 493.5,-868.2091"/>
<text text-anchor="start" x="496.5" y="-874.3091" font-family="Helvetica,sans-Serif" font-size="11.00" fill="#000000">&lt; 2</text>
<polygon fill="#ffffff" stroke="transparent" points="571.5,-868.2091 571.5,-887.2091 659.5,-887.2091 659.5,-868.2091 571.5,-868.2091"/>
<polygon fill="none" stroke="#000000" points="571.5,-868.2091 571.5,-887.2091 659.5,-887.2091 659.5,-868.2091 571.5,-868.2091"/>
<text text-anchor="start" x="602.7089" y="-874.3091" font-family="Helvetica,sans-Serif" font-size="11.00" fill="#000000">2,242 rows</text>
<polygon fill="#ffffff" stroke="transparent" points="659.5,-868.2091 659.5,-887.2091 700.5,-887.2091 700.5,-868.2091 659.5,-868.2091"/>
<polygon fill="none" stroke="#000000" points="659.5,-868.2091 659.5,-887.2091 700.5,-887.2091 700.5,-868.2091 659.5,-868.2091"/>
<text text-anchor="start" x="691.3862" y="-874.3091" font-family="Helvetica,sans-Serif" font-size="11.00" fill="#000000"> &#160;</text>
</a>
</g>
</g>
<!-- R_CONTACT_TYPE_OUTCOME&#45;&gt;R_CONTACT_OUTCOME_TYPE -->
<g id="edge27" class="edge">
<title>R_CONTACT_TYPE_OUTCOME:w&#45;&gt;R_CONTACT_OUTCOME_TYPE:e</title>
<path fill="none" stroke="#000000" d="M479.0104,-893.6965C453.8301,-883.0498 467.0521,-840.4924 458,-803.2091 448.4768,-763.9859 457.8627,-442.2091 417.5,-442.2091"/>
<polygon fill="#000000" stroke="#000000" points="485.6176,-894.8422 492.8849,-899.7562 489.5588,-895.5257 493.5,-896.2091 493.5,-896.2091 493.5,-896.2091 489.5588,-895.5257 494.1151,-892.6621 485.6176,-894.8422 485.6176,-894.8422"/>
<ellipse fill="none" stroke="#000000" cx="482.4647" cy="-894.2954" rx="3.2" ry="3.2"/>
</g>
<!-- R_CONTACT_TYPE_OUTCOME&#45;&gt;R_CONTACT_TYPE -->
<g id="edge28" class="edge">
<title>R_CONTACT_TYPE_OUTCOME:w&#45;&gt;R_CONTACT_TYPE:e</title>
<path fill="none" stroke="#000000" d="M478.8286,-896.0006C325.3892,-891.5491 273.5487,-815.9278 194,-677.2091 149.995,-600.4722 241.959,-281.2091 153.5,-281.2091"/>
<polygon fill="#000000" stroke="#000000" points="485.5008,-896.0954 493.4488,-899.8088 489.5004,-896.1523 493.5,-896.2091 493.5,-896.2091 493.5,-896.2091 489.5004,-896.1523 493.5512,-892.6095 485.5008,-896.0954 485.5008,-896.0954"/>
<ellipse fill="none" stroke="#000000" cx="482.3011" cy="-896.0499" rx="3.2" ry="3.2"/>
</g>
<!-- R_ENF_ACT_CONTACT_OUT_TYPE -->
<g id="node15" class="node">
<title>R_ENF_ACT_CONTACT_OUT_TYPE</title>
<g id="a_node15"><a xlink:href="../../tables/R_ENF_ACT_CONTACT_OUT_TYPE.html" xlink:title="R_ENF_ACT_CONTACT_OUT_TYPE" target="_top">
<polygon fill="#ffffff" stroke="transparent" points="466,-576.2091 466,-710.2091 727,-710.2091 727,-576.2091 466,-576.2091"/>
<polygon fill="#f5f5f5" stroke="transparent" points="468.5,-685.2091 468.5,-708.2091 725.5,-708.2091 725.5,-685.2091 468.5,-685.2091"/>
<polygon fill="none" stroke="#000000" points="468.5,-685.2091 468.5,-708.2091 725.5,-708.2091 725.5,-685.2091 468.5,-685.2091"/>
<text text-anchor="start" x="473.5" y="-694.3091" font-family="Helvetica,sans-Serif" font-weight="bold" font-size="11.00" fill="#000000">R_ENF_ACT_CONTACT_OUT_TYPE</text>
<text text-anchor="start" x="690.5437" y="-693.3091" font-family="Helvetica,sans-Serif" font-size="11.00" fill="#000000">[table]</text>
<polygon fill="none" stroke="#000000" points="468.5,-663.2091 468.5,-685.2091 664.5,-685.2091 664.5,-663.2091 468.5,-663.2091"/>
<image xlink:href="../../images/primaryKeys.png" width="11px" height="12px" preserveAspectRatio="xMinYMin meet" x="473.5" y="-680.209"/>
<text text-anchor="start" x="488.5" y="-670.3091" font-family="Helvetica,sans-Serif" font-size="11.00" fill="#000000">ENFORCEMENT_ACTION_ID</text>
<polygon fill="none" stroke="#000000" points="664.5,-663.2091 664.5,-685.2091 725.5,-685.2091 725.5,-663.2091 664.5,-663.2091"/>
<text text-anchor="start" x="667.1865" y="-670.9091" font-family="Helvetica,sans-Serif" font-size="11.00" fill="#000000">number[38]</text>
<polygon fill="none" stroke="#000000" points="468.5,-641.2091 468.5,-663.2091 664.5,-663.2091 664.5,-641.2091 468.5,-641.2091"/>
<image xlink:href="../../images/primaryKeys.png" width="11px" height="12px" preserveAspectRatio="xMinYMin meet" x="473.5" y="-658.209"/>
<text text-anchor="start" x="488.5" y="-648.3091" font-family="Helvetica,sans-Serif" font-size="11.00" fill="#000000">CONTACT_OUTCOME_TYPE_ID</text>
<polygon fill="none" stroke="#000000" points="664.5,-641.2091 664.5,-663.2091 725.5,-663.2091 725.5,-641.2091 664.5,-641.2091"/>
<text text-anchor="start" x="667.1865" y="-648.9091" font-family="Helvetica,sans-Serif" font-size="11.00" fill="#000000">number[38]</text>
<polygon fill="none" stroke="#000000" points="468.5,-619.2091 468.5,-641.2091 664.5,-641.2091 664.5,-619.2091 468.5,-619.2091"/>
<text text-anchor="start" x="488.5" y="-626.3091" font-family="Helvetica,sans-Serif" font-size="11.00" fill="#000000">ROW_VERSION</text>
<polygon fill="none" stroke="#000000" points="664.5,-619.2091 664.5,-641.2091 725.5,-641.2091 725.5,-619.2091 664.5,-619.2091"/>
<text text-anchor="start" x="667.1865" y="-626.9091" font-family="Helvetica,sans-Serif" font-size="11.00" fill="#000000">number[38]</text>
<polygon fill="none" stroke="#000000" points="468.5,-597.2091 468.5,-619.2091 664.5,-619.2091 664.5,-597.2091 468.5,-597.2091"/>
<image xlink:href="../../images/primaryKeys.png" width="11px" height="12px" preserveAspectRatio="xMinYMin meet" x="473.5" y="-614.209"/>
<text text-anchor="start" x="488.5" y="-604.3091" font-family="Helvetica,sans-Serif" font-size="11.00" fill="#000000">TRAINING_SESSION_ID</text>
<polygon fill="none" stroke="#000000" points="664.5,-597.2091 664.5,-619.2091 725.5,-619.2091 725.5,-597.2091 664.5,-597.2091"/>
<text text-anchor="start" x="667.1865" y="-604.9091" font-family="Helvetica,sans-Serif" font-size="11.00" fill="#000000">number[38]</text>
<polygon fill="#ffffff" stroke="transparent" points="468.5,-578.2091 468.5,-597.2091 551.5,-597.2091 551.5,-578.2091 468.5,-578.2091"/>
<polygon fill="none" stroke="#000000" points="468.5,-578.2091 468.5,-597.2091 551.5,-597.2091 551.5,-578.2091 468.5,-578.2091"/>
<text text-anchor="start" x="471.5" y="-584.3091" font-family="Helvetica,sans-Serif" font-size="11.00" fill="#000000">&lt; 2</text>
<polygon fill="#ffffff" stroke="transparent" points="551.5,-578.2091 551.5,-597.2091 664.5,-597.2091 664.5,-578.2091 551.5,-578.2091"/>
<polygon fill="none" stroke="#000000" points="551.5,-578.2091 551.5,-597.2091 664.5,-597.2091 664.5,-578.2091 551.5,-578.2091"/>
<text text-anchor="start" x="616.8807" y="-584.3091" font-family="Helvetica,sans-Serif" font-size="11.00" fill="#000000">277 rows</text>
<polygon fill="#ffffff" stroke="transparent" points="664.5,-578.2091 664.5,-597.2091 725.5,-597.2091 725.5,-578.2091 664.5,-578.2091"/>
<polygon fill="none" stroke="#000000" points="664.5,-578.2091 664.5,-597.2091 725.5,-597.2091 725.5,-578.2091 664.5,-578.2091"/>
<text text-anchor="start" x="706.9053" y="-584.3091" font-family="Helvetica,sans-Serif" font-size="11.00" fill="#000000">0 &gt;</text>
<polygon fill="none" stroke="#000000" stroke-width="2" points="467,-577.2091 467,-709.2091 726,-709.2091 726,-577.2091 467,-577.2091"/>
</a>
</g>
</g>
<!-- R_ENF_ACT_CONTACT_OUT_TYPE&#45;&gt;R_ENFORCEMENT_ACTION -->
<g id="edge30" class="edge">
<title>R_ENF_ACT_CONTACT_OUT_TYPE:w&#45;&gt;R_ENFORCEMENT_ACTION:e</title>
<path fill="none" stroke="#000000" d="M454.4158,-670.7721C436.5793,-660.7413 435.329,-632.2091 408.5,-632.2091"/>
<polygon fill="#000000" stroke="#000000" points="460.7281,-672.3125 467.6465,-677.7065 464.614,-673.2608 468.5,-674.2091 468.5,-674.2091 468.5,-674.2091 464.614,-673.2608 469.3535,-670.7118 460.7281,-672.3125 460.7281,-672.3125"/>
<ellipse fill="none" stroke="#000000" cx="457.6193" cy="-671.5538" rx="3.2" ry="3.2"/>
</g>
<!-- R_ENF_ACT_CONTACT_OUT_TYPE&#45;&gt;R_CONTACT_OUTCOME_TYPE -->
<g id="edge29" class="edge">
<title>R_ENF_ACT_CONTACT_OUT_TYPE:w&#45;&gt;R_CONTACT_OUTCOME_TYPE:e</title>
<path fill="none" stroke="#000000" d="M453.9639,-650.1307C388.1738,-628.3207 507.9186,-442.2091 417.5,-442.2091"/>
<polygon fill="#000000" stroke="#000000" points="460.5805,-651.0767 467.9904,-655.7729 464.5403,-651.6429 468.5,-652.2091 468.5,-652.2091 468.5,-652.2091 464.5403,-651.6429 469.0096,-648.6454 460.5805,-651.0767 460.5805,-651.0767"/>
<ellipse fill="none" stroke="#000000" cx="457.4128" cy="-650.6238" rx="3.2" ry="3.2"/>
</g>
</g>
</svg>
