<?xml version="1.0" encoding="UTF-8" standalone="no"?>
<!DOCTYPE svg PUBLIC "-//W3C//DTD SVG 1.1//EN"
 "http://www.w3.org/Graphics/SVG/1.1/DTD/svg11.dtd">
<!-- Generated by graphviz version 2.40.1 (20161225.0304)
 -->
<!-- Title: twoDegreesRelationshipsDiagram Pages: 1 -->
<svg width="1122pt" height="891pt"
 viewBox="0.00 0.00 1122.00 890.58" xmlns="http://www.w3.org/2000/svg" xmlns:xlink="http://www.w3.org/1999/xlink">
<g id="graph0" class="graph" transform="scale(1 1) rotate(0) translate(4 886.5799)">
<title>twoDegreesRelationshipsDiagram</title>
<polygon fill="#ffffff" stroke="transparent" points="-4,4 -4,-886.5799 1118,-886.5799 1118,4 -4,4"/>
<text text-anchor="middle" x="72.4936" y="-7.3" font-family="Helvetica,sans-Serif" font-size="11.00" fill="#000000">Generated by SchemaSpy</text>
<!-- ASSESSMENT -->
<g id="node1" class="node">
<title>ASSESSMENT</title>
<g id="a_node1"><a xlink:href="../../tables/ASSESSMENT.html" xlink:title="ASSESSMENT" target="_top">
<polygon fill="#ffffff" stroke="transparent" points="794,-361.8013 794,-422.8013 912,-422.8013 912,-361.8013 794,-361.8013"/>
<polygon fill="#f5f5f5" stroke="transparent" points="794,-399.3013 794,-422.3013 912,-422.3013 912,-399.3013 794,-399.3013"/>
<polygon fill="none" stroke="#000000" points="794,-399.3013 794,-422.3013 912,-422.3013 912,-399.3013 794,-399.3013"/>
<text text-anchor="start" x="798.913" y="-408.4013" font-family="Helvetica,sans-Serif" font-weight="bold" font-size="11.00" fill="#000000">ASSESSMENT</text>
<text text-anchor="start" x="877.5219" y="-407.4013" font-family="Helvetica,sans-Serif" font-size="11.00" fill="#000000">[table]</text>
<polygon fill="none" stroke="#000000" points="794,-380.3013 794,-399.3013 912,-399.3013 912,-380.3013 794,-380.3013"/>
<text text-anchor="start" x="797" y="-386.4013" font-family="Helvetica,sans-Serif" font-size="11.00" fill="#000000">...</text>
<polygon fill="#ffffff" stroke="transparent" points="794,-361.3013 794,-380.3013 835,-380.3013 835,-361.3013 794,-361.3013"/>
<polygon fill="none" stroke="#000000" points="794,-361.3013 794,-380.3013 835,-380.3013 835,-361.3013 794,-361.3013"/>
<text text-anchor="start" x="797" y="-367.4013" font-family="Helvetica,sans-Serif" font-size="11.00" fill="#000000">&lt; 13</text>
<polygon fill="#ffffff" stroke="transparent" points="835,-361.3013 835,-380.3013 892,-380.3013 892,-361.3013 835,-361.3013"/>
<polygon fill="none" stroke="#000000" points="835,-361.3013 835,-380.3013 892,-380.3013 892,-361.3013 835,-361.3013"/>
<text text-anchor="start" x="844.3807" y="-367.4013" font-family="Helvetica,sans-Serif" font-size="11.00" fill="#000000">284 rows</text>
<polygon fill="#ffffff" stroke="transparent" points="892,-361.3013 892,-380.3013 912,-380.3013 912,-361.3013 892,-361.3013"/>
<polygon fill="none" stroke="#000000" points="892,-361.3013 892,-380.3013 912,-380.3013 912,-361.3013 892,-361.3013"/>
<text text-anchor="start" x="902.8862" y="-367.4013" font-family="Helvetica,sans-Serif" font-size="11.00" fill="#000000"> &#160;</text>
</a>
</g>
</g>
<!-- R_ENFORCEMENT_ACTION -->
<g id="node2" class="node">
<title>R_ENFORCEMENT_ACTION</title>
<g id="a_node2"><a xlink:href="../../tables/R_ENFORCEMENT_ACTION.html" xlink:title="R_ENFORCEMENT_ACTION" target="_top">
<polygon fill="#ffffff" stroke="transparent" points="211,-214.8013 211,-341.8013 408,-341.8013 408,-214.8013 211,-214.8013"/>
<polygon fill="#f5f5f5" stroke="transparent" points="211.5,-318.3013 211.5,-341.3013 408.5,-341.3013 408.5,-318.3013 211.5,-318.3013"/>
<polygon fill="none" stroke="#000000" points="211.5,-318.3013 211.5,-341.3013 408.5,-341.3013 408.5,-318.3013 211.5,-318.3013"/>
<text text-anchor="start" x="216.5" y="-327.4013" font-family="Helvetica,sans-Serif" font-weight="bold" font-size="11.00" fill="#000000">R_ENFORCEMENT_ACTION</text>
<text text-anchor="start" x="373.5437" y="-326.4013" font-family="Helvetica,sans-Serif" font-size="11.00" fill="#000000">[table]</text>
<polygon fill="none" stroke="#000000" points="211.5,-296.3013 211.5,-318.3013 408.5,-318.3013 408.5,-296.3013 211.5,-296.3013"/>
<image xlink:href="../../images/primaryKeys.png" width="11px" height="12px" preserveAspectRatio="xMinYMin meet" x="216.5" y="-313.301"/>
<text text-anchor="start" x="231.5" y="-303.4013" font-family="Helvetica,sans-Serif" font-size="11.00" fill="#000000">ENFORCEMENT_ACTION_ID</text>
<polygon fill="none" stroke="#000000" points="211.5,-274.3013 211.5,-296.3013 408.5,-296.3013 408.5,-274.3013 211.5,-274.3013"/>
<image xlink:href="../../images/primaryKeys.png" width="11px" height="12px" preserveAspectRatio="xMinYMin meet" x="216.5" y="-291.301"/>
<text text-anchor="start" x="231.5" y="-281.4013" font-family="Helvetica,sans-Serif" font-size="11.00" fill="#000000">CONTACT_TYPE_ID</text>
<polygon fill="none" stroke="#000000" points="211.5,-252.3013 211.5,-274.3013 408.5,-274.3013 408.5,-252.3013 211.5,-252.3013"/>
<image xlink:href="../../images/primaryKeys.png" width="11px" height="12px" preserveAspectRatio="xMinYMin meet" x="216.5" y="-269.301"/>
<text text-anchor="start" x="231.5" y="-259.4013" font-family="Helvetica,sans-Serif" font-size="11.00" fill="#000000">TRAINING_SESSION_ID</text>
<polygon fill="none" stroke="#000000" points="211.5,-233.3013 211.5,-252.3013 408.5,-252.3013 408.5,-233.3013 211.5,-233.3013"/>
<text text-anchor="start" x="214.5" y="-239.4013" font-family="Helvetica,sans-Serif" font-size="11.00" fill="#000000">...</text>
<polygon fill="#ffffff" stroke="transparent" points="211.5,-214.3013 211.5,-233.3013 287.5,-233.3013 287.5,-214.3013 211.5,-214.3013"/>
<polygon fill="none" stroke="#000000" points="211.5,-214.3013 211.5,-233.3013 287.5,-233.3013 287.5,-214.3013 211.5,-214.3013"/>
<text text-anchor="start" x="214.5" y="-220.4013" font-family="Helvetica,sans-Serif" font-size="11.00" fill="#000000">&lt; 1</text>
<polygon fill="#ffffff" stroke="transparent" points="287.5,-214.3013 287.5,-233.3013 359.5,-233.3013 359.5,-214.3013 287.5,-214.3013"/>
<polygon fill="none" stroke="#000000" points="287.5,-214.3013 287.5,-233.3013 359.5,-233.3013 359.5,-214.3013 287.5,-214.3013"/>
<text text-anchor="start" x="317.9956" y="-220.4013" font-family="Helvetica,sans-Serif" font-size="11.00" fill="#000000">49 rows</text>
<polygon fill="#ffffff" stroke="transparent" points="359.5,-214.3013 359.5,-233.3013 408.5,-233.3013 408.5,-214.3013 359.5,-214.3013"/>
<polygon fill="none" stroke="#000000" points="359.5,-214.3013 359.5,-233.3013 408.5,-233.3013 408.5,-214.3013 359.5,-214.3013"/>
<text text-anchor="start" x="389.9053" y="-220.4013" font-family="Helvetica,sans-Serif" font-size="11.00" fill="#000000">6 &gt;</text>
</a>
</g>
</g>
<!-- ASSESSMENT&#45;&gt;R_ENFORCEMENT_ACTION -->
<g id="edge1" class="edge">
<title>ASSESSMENT:w&#45;&gt;R_ENFORCEMENT_ACTION:e</title>
<path fill="none" stroke="#000000" d="M779.4392,-388.2382C682.5427,-372.6386 828.0433,-189.4998 735,-114.3013 687.1255,-75.6086 506.6335,-76.5671 458,-114.3013 388.0357,-168.5859 497.0541,-307.3013 408.5,-307.3013"/>
<polygon fill="#000000" stroke="#000000" points="786.0212,-388.7187 793.7378,-392.8917 790.0106,-389.01 794,-389.3013 794,-389.3013 794,-389.3013 790.0106,-389.01 794.2622,-385.7108 786.0212,-388.7187 786.0212,-388.7187"/>
<ellipse fill="none" stroke="#000000" cx="782.8297" cy="-388.4857" rx="3.2" ry="3.2"/>
</g>
<!-- R_CONTACT_OUTCOME_TYPE -->
<g id="node3" class="node">
<title>R_CONTACT_OUTCOME_TYPE</title>
<g id="a_node3"><a xlink:href="../../tables/R_CONTACT_OUTCOME_TYPE.html" xlink:title="R_CONTACT_OUTCOME_TYPE" target="_top">
<polygon fill="#ffffff" stroke="transparent" points="202,-504.8013 202,-609.8013 417,-609.8013 417,-504.8013 202,-504.8013"/>
<polygon fill="#f5f5f5" stroke="transparent" points="202.5,-586.3013 202.5,-609.3013 417.5,-609.3013 417.5,-586.3013 202.5,-586.3013"/>
<polygon fill="none" stroke="#000000" points="202.5,-586.3013 202.5,-609.3013 417.5,-609.3013 417.5,-586.3013 202.5,-586.3013"/>
<text text-anchor="start" x="207.5" y="-595.4013" font-family="Helvetica,sans-Serif" font-weight="bold" font-size="11.00" fill="#000000">R_CONTACT_OUTCOME_TYPE</text>
<text text-anchor="start" x="382.5437" y="-594.4013" font-family="Helvetica,sans-Serif" font-size="11.00" fill="#000000">[table]</text>
<polygon fill="none" stroke="#000000" points="202.5,-564.3013 202.5,-586.3013 417.5,-586.3013 417.5,-564.3013 202.5,-564.3013"/>
<image xlink:href="../../images/primaryKeys.png" width="11px" height="12px" preserveAspectRatio="xMinYMin meet" x="207.5" y="-581.301"/>
<text text-anchor="start" x="222.5" y="-571.4013" font-family="Helvetica,sans-Serif" font-size="11.00" fill="#000000">CONTACT_OUTCOME_TYPE_ID</text>
<polygon fill="none" stroke="#000000" points="202.5,-542.3013 202.5,-564.3013 417.5,-564.3013 417.5,-542.3013 202.5,-542.3013"/>
<image xlink:href="../../images/primaryKeys.png" width="11px" height="12px" preserveAspectRatio="xMinYMin meet" x="207.5" y="-559.301"/>
<text text-anchor="start" x="222.5" y="-549.4013" font-family="Helvetica,sans-Serif" font-size="11.00" fill="#000000">TRAINING_SESSION_ID</text>
<polygon fill="none" stroke="#000000" points="202.5,-523.3013 202.5,-542.3013 417.5,-542.3013 417.5,-523.3013 202.5,-523.3013"/>
<text text-anchor="start" x="205.5" y="-529.4013" font-family="Helvetica,sans-Serif" font-size="11.00" fill="#000000">...</text>
<polygon fill="#ffffff" stroke="transparent" points="202.5,-504.3013 202.5,-523.3013 277.5,-523.3013 277.5,-504.3013 202.5,-504.3013"/>
<polygon fill="none" stroke="#000000" points="202.5,-504.3013 202.5,-523.3013 277.5,-523.3013 277.5,-504.3013 202.5,-504.3013"/>
<text text-anchor="start" x="205.5" y="-510.4013" font-family="Helvetica,sans-Serif" font-size="11.00" fill="#000000"> &#160;</text>
<polygon fill="#ffffff" stroke="transparent" points="277.5,-504.3013 277.5,-523.3013 358.5,-523.3013 358.5,-504.3013 277.5,-504.3013"/>
<polygon fill="none" stroke="#000000" points="277.5,-504.3013 277.5,-523.3013 358.5,-523.3013 358.5,-504.3013 277.5,-504.3013"/>
<text text-anchor="start" x="310.8807" y="-510.4013" font-family="Helvetica,sans-Serif" font-size="11.00" fill="#000000">220 rows</text>
<polygon fill="#ffffff" stroke="transparent" points="358.5,-504.3013 358.5,-523.3013 417.5,-523.3013 417.5,-504.3013 358.5,-504.3013"/>
<polygon fill="none" stroke="#000000" points="358.5,-504.3013 358.5,-523.3013 417.5,-523.3013 417.5,-504.3013 358.5,-504.3013"/>
<text text-anchor="start" x="392.7904" y="-510.4013" font-family="Helvetica,sans-Serif" font-size="11.00" fill="#000000">10 &gt;</text>
</a>
</g>
</g>
<!-- ASSESSMENT&#45;&gt;R_CONTACT_OUTCOME_TYPE -->
<g id="edge2" class="edge">
<title>ASSESSMENT:w&#45;&gt;R_CONTACT_OUTCOME_TYPE:e</title>
<path fill="none" stroke="#000000" d="M779.7826,-391.9965C761.6934,-399.9761 760.1292,-423.5325 735,-433.3013 677.3347,-455.7181 506.6825,-423.1199 458,-461.3013 415.6912,-494.4838 471.2691,-575.3013 417.5,-575.3013"/>
<polygon fill="#000000" stroke="#000000" points="786.14,-390.7913 794.6705,-392.8383 790.07,-390.0463 794,-389.3013 794,-389.3013 794,-389.3013 790.07,-390.0463 793.3295,-385.7643 786.14,-390.7913 786.14,-390.7913"/>
<ellipse fill="none" stroke="#000000" cx="782.996" cy="-391.3874" rx="3.2" ry="3.2"/>
</g>
<!-- CONTACT -->
<g id="node4" class="node">
<title>CONTACT</title>
<g id="a_node4"><a xlink:href="../../tables/CONTACT.html" xlink:title="CONTACT" target="_top">
<polygon fill="#ffffff" stroke="transparent" points="533.5,-471.8013 533.5,-532.8013 659.5,-532.8013 659.5,-471.8013 533.5,-471.8013"/>
<polygon fill="#f5f5f5" stroke="transparent" points="533.5,-509.3013 533.5,-532.3013 659.5,-532.3013 659.5,-509.3013 533.5,-509.3013"/>
<polygon fill="none" stroke="#000000" points="533.5,-509.3013 533.5,-532.3013 659.5,-532.3013 659.5,-509.3013 533.5,-509.3013"/>
<text text-anchor="start" x="538.5" y="-518.4013" font-family="Helvetica,sans-Serif" font-weight="bold" font-size="11.00" fill="#000000">CONTACT</text>
<text text-anchor="start" x="624.5437" y="-517.4013" font-family="Helvetica,sans-Serif" font-size="11.00" fill="#000000">[table]</text>
<polygon fill="none" stroke="#000000" points="533.5,-490.3013 533.5,-509.3013 659.5,-509.3013 659.5,-490.3013 533.5,-490.3013"/>
<text text-anchor="start" x="536.5" y="-496.4013" font-family="Helvetica,sans-Serif" font-size="11.00" fill="#000000">...</text>
<polygon fill="#ffffff" stroke="transparent" points="533.5,-471.3013 533.5,-490.3013 560.5,-490.3013 560.5,-471.3013 533.5,-471.3013"/>
<polygon fill="none" stroke="#000000" points="533.5,-471.3013 533.5,-490.3013 560.5,-490.3013 560.5,-471.3013 533.5,-471.3013"/>
<text text-anchor="start" x="536.1452" y="-477.4013" font-family="Helvetica,sans-Serif" font-size="11.00" fill="#000000">&lt; 25</text>
<polygon fill="#ffffff" stroke="transparent" points="560.5,-471.3013 560.5,-490.3013 632.5,-490.3013 632.5,-471.3013 560.5,-471.3013"/>
<polygon fill="none" stroke="#000000" points="560.5,-471.3013 560.5,-490.3013 632.5,-490.3013 632.5,-471.3013 560.5,-471.3013"/>
<text text-anchor="start" x="563.4896" y="-477.4013" font-family="Helvetica,sans-Serif" font-size="11.00" fill="#000000">165,869 rows</text>
<polygon fill="#ffffff" stroke="transparent" points="632.5,-471.3013 632.5,-490.3013 659.5,-490.3013 659.5,-471.3013 632.5,-471.3013"/>
<polygon fill="none" stroke="#000000" points="632.5,-471.3013 632.5,-490.3013 659.5,-490.3013 659.5,-471.3013 632.5,-471.3013"/>
<text text-anchor="start" x="635.1452" y="-477.4013" font-family="Helvetica,sans-Serif" font-size="11.00" fill="#000000">14 &gt;</text>
</a>
</g>
</g>
<!-- ASSESSMENT&#45;&gt;CONTACT -->
<g id="edge3" class="edge">
<title>ASSESSMENT:w&#45;&gt;CONTACT:e</title>
<path fill="none" stroke="#000000" d="M779.6277,-391.8001C756.5774,-401.3009 761.5748,-435.7275 735,-457.3013 705.1886,-481.5026 697.8982,-499.3013 659.5,-499.3013"/>
<polygon fill="#000000" stroke="#000000" points="786.1182,-390.6717 794.6167,-392.8481 790.0591,-389.9865 794,-389.3013 794,-389.3013 794,-389.3013 790.0591,-389.9865 793.3833,-385.7545 786.1182,-390.6717 786.1182,-390.6717"/>
<ellipse fill="none" stroke="#000000" cx="782.9655" cy="-391.2198" rx="3.2" ry="3.2"/>
</g>
<!-- REFERRAL -->
<g id="node5" class="node">
<title>REFERRAL</title>
<g id="a_node5"><a xlink:href="../../tables/REFERRAL.html" xlink:title="REFERRAL" target="_top">
<polygon fill="#ffffff" stroke="transparent" points="546,-361.8013 546,-422.8013 647,-422.8013 647,-361.8013 546,-361.8013"/>
<polygon fill="#f5f5f5" stroke="transparent" points="546.5,-399.3013 546.5,-422.3013 647.5,-422.3013 647.5,-399.3013 546.5,-399.3013"/>
<polygon fill="none" stroke="#000000" points="546.5,-399.3013 546.5,-422.3013 647.5,-422.3013 647.5,-399.3013 546.5,-399.3013"/>
<text text-anchor="start" x="551.1674" y="-408.4013" font-family="Helvetica,sans-Serif" font-weight="bold" font-size="11.00" fill="#000000">REFERRAL</text>
<text text-anchor="start" x="613.0219" y="-407.4013" font-family="Helvetica,sans-Serif" font-size="11.00" fill="#000000">[table]</text>
<polygon fill="none" stroke="#000000" points="546.5,-380.3013 546.5,-399.3013 647.5,-399.3013 647.5,-380.3013 546.5,-380.3013"/>
<text text-anchor="start" x="549.5" y="-386.4013" font-family="Helvetica,sans-Serif" font-size="11.00" fill="#000000">...</text>
<polygon fill="#ffffff" stroke="transparent" points="546.5,-361.3013 546.5,-380.3013 574.5,-380.3013 574.5,-361.3013 546.5,-361.3013"/>
<polygon fill="none" stroke="#000000" points="546.5,-361.3013 546.5,-380.3013 574.5,-380.3013 574.5,-361.3013 546.5,-361.3013"/>
<text text-anchor="start" x="549.5" y="-367.4013" font-family="Helvetica,sans-Serif" font-size="11.00" fill="#000000">&lt; 13</text>
<polygon fill="#ffffff" stroke="transparent" points="574.5,-361.3013 574.5,-380.3013 625.5,-380.3013 625.5,-361.3013 574.5,-361.3013"/>
<polygon fill="none" stroke="#000000" points="574.5,-361.3013 574.5,-380.3013 625.5,-380.3013 625.5,-361.3013 574.5,-361.3013"/>
<text text-anchor="start" x="577.8807" y="-367.4013" font-family="Helvetica,sans-Serif" font-size="11.00" fill="#000000">888 rows</text>
<polygon fill="#ffffff" stroke="transparent" points="625.5,-361.3013 625.5,-380.3013 647.5,-380.3013 647.5,-361.3013 625.5,-361.3013"/>
<polygon fill="none" stroke="#000000" points="625.5,-361.3013 625.5,-380.3013 647.5,-380.3013 647.5,-361.3013 625.5,-361.3013"/>
<text text-anchor="start" x="628.9053" y="-367.4013" font-family="Helvetica,sans-Serif" font-size="11.00" fill="#000000">1 &gt;</text>
</a>
</g>
</g>
<!-- ASSESSMENT&#45;&gt;REFERRAL -->
<g id="edge4" class="edge">
<title>ASSESSMENT:w&#45;&gt;REFERRAL:e</title>
<path fill="none" stroke="#000000" d="M779.5872,-389.3013C726.0474,-389.3013 707.5243,-389.3013 647.5,-389.3013"/>
<polygon fill="#000000" stroke="#000000" points="786,-389.3013 794,-392.9013 790,-389.3013 794,-389.3013 794,-389.3013 794,-389.3013 790,-389.3013 794,-385.7013 786,-389.3013 786,-389.3013"/>
<ellipse fill="none" stroke="#000000" cx="782.8" cy="-389.3014" rx="3.2" ry="3.2"/>
</g>
<!-- R_CONTACT_TYPE -->
<g id="node6" class="node">
<title>R_CONTACT_TYPE</title>
<g id="a_node6"><a xlink:href="../../tables/R_CONTACT_TYPE.html" xlink:title="R_CONTACT_TYPE" target="_top">
<polygon fill="#ffffff" stroke="transparent" points="8,-691.8013 8,-752.8013 153,-752.8013 153,-691.8013 8,-691.8013"/>
<polygon fill="#f5f5f5" stroke="transparent" points="8.5,-729.3013 8.5,-752.3013 153.5,-752.3013 153.5,-729.3013 8.5,-729.3013"/>
<polygon fill="none" stroke="#000000" points="8.5,-729.3013 8.5,-752.3013 153.5,-752.3013 153.5,-729.3013 8.5,-729.3013"/>
<text text-anchor="start" x="13.4732" y="-738.4013" font-family="Helvetica,sans-Serif" font-weight="bold" font-size="11.00" fill="#000000">R_CONTACT_TYPE</text>
<text text-anchor="start" x="119.0219" y="-737.4013" font-family="Helvetica,sans-Serif" font-size="11.00" fill="#000000">[table]</text>
<polygon fill="none" stroke="#000000" points="8.5,-710.3013 8.5,-729.3013 153.5,-729.3013 153.5,-710.3013 8.5,-710.3013"/>
<text text-anchor="start" x="11.5" y="-716.4013" font-family="Helvetica,sans-Serif" font-size="11.00" fill="#000000">...</text>
<polygon fill="#ffffff" stroke="transparent" points="8.5,-691.3013 8.5,-710.3013 48.5,-710.3013 48.5,-691.3013 8.5,-691.3013"/>
<polygon fill="none" stroke="#000000" points="8.5,-691.3013 8.5,-710.3013 48.5,-710.3013 48.5,-691.3013 8.5,-691.3013"/>
<text text-anchor="start" x="11.5" y="-697.4013" font-family="Helvetica,sans-Serif" font-size="11.00" fill="#000000">&lt; 1</text>
<polygon fill="#ffffff" stroke="transparent" points="48.5,-691.3013 48.5,-710.3013 116.5,-710.3013 116.5,-691.3013 48.5,-691.3013"/>
<polygon fill="none" stroke="#000000" points="48.5,-691.3013 48.5,-710.3013 116.5,-710.3013 116.5,-691.3013 48.5,-691.3013"/>
<text text-anchor="start" x="59.7089" y="-697.4013" font-family="Helvetica,sans-Serif" font-size="11.00" fill="#000000">3,021 rows</text>
<polygon fill="#ffffff" stroke="transparent" points="116.5,-691.3013 116.5,-710.3013 153.5,-710.3013 153.5,-691.3013 116.5,-691.3013"/>
<polygon fill="none" stroke="#000000" points="116.5,-691.3013 116.5,-710.3013 153.5,-710.3013 153.5,-691.3013 116.5,-691.3013"/>
<text text-anchor="start" x="128.7904" y="-697.4013" font-family="Helvetica,sans-Serif" font-size="11.00" fill="#000000">21 &gt;</text>
</a>
</g>
</g>
<!-- R_ENFORCEMENT_ACTION&#45;&gt;R_CONTACT_TYPE -->
<g id="edge23" class="edge">
<title>R_ENFORCEMENT_ACTION:w&#45;&gt;R_CONTACT_TYPE:e</title>
<path fill="none" stroke="#000000" d="M197.5585,-289.0532C128.4396,-331.4721 245.4807,-719.3013 153.5,-719.3013"/>
<polygon fill="#000000" stroke="#000000" points="203.7749,-287.3803 212.4356,-288.7776 207.6374,-286.3408 211.5,-285.3013 211.5,-285.3013 211.5,-285.3013 207.6374,-286.3408 210.5644,-281.825 203.7749,-287.3803 203.7749,-287.3803"/>
<ellipse fill="none" stroke="#000000" cx="200.6848" cy="-288.2119" rx="3.2" ry="3.2"/>
</g>
<!-- CONTACT&#45;&gt;R_ENFORCEMENT_ACTION -->
<g id="edge7" class="edge">
<title>CONTACT:w&#45;&gt;R_ENFORCEMENT_ACTION:e</title>
<path fill="none" stroke="#000000" d="M518.9315,-498.0414C487.3543,-492.0423 480.549,-465.3326 458,-433.3013 423.3659,-384.1029 468.6664,-307.3013 408.5,-307.3013"/>
<polygon fill="#000000" stroke="#000000" points="525.5298,-498.6119 533.1898,-502.8879 529.5149,-498.9566 533.5,-499.3013 533.5,-499.3013 533.5,-499.3013 529.5149,-498.9566 533.8102,-495.7147 525.5298,-498.6119 525.5298,-498.6119"/>
<ellipse fill="none" stroke="#000000" cx="522.3417" cy="-498.3362" rx="3.2" ry="3.2"/>
</g>
<!-- CONTACT&#45;&gt;R_CONTACT_OUTCOME_TYPE -->
<g id="edge5" class="edge">
<title>CONTACT:w&#45;&gt;R_CONTACT_OUTCOME_TYPE:e</title>
<path fill="none" stroke="#000000" d="M519.102,-500.6837C492.4555,-506.3413 486.6071,-528.329 458,-547.3013 439.7632,-559.396 439.383,-575.3013 417.5,-575.3013"/>
<polygon fill="#000000" stroke="#000000" points="525.5366,-500.0659 533.8441,-502.8848 529.5183,-499.6836 533.5,-499.3013 533.5,-499.3013 533.5,-499.3013 529.5183,-499.6836 533.1559,-495.7178 525.5366,-500.0659 525.5366,-500.0659"/>
<ellipse fill="none" stroke="#000000" cx="522.3513" cy="-500.3718" rx="3.2" ry="3.2"/>
</g>
<!-- CONTACT&#45;&gt;R_CONTACT_TYPE -->
<g id="edge6" class="edge">
<title>CONTACT:w&#45;&gt;R_CONTACT_TYPE:e</title>
<path fill="none" stroke="#000000" d="M518.7222,-498.9756C377.7116,-492.7604 305.9286,-400.721 194,-494.3013 116.0483,-559.4744 255.1071,-719.3013 153.5,-719.3013"/>
<polygon fill="#000000" stroke="#000000" points="525.5019,-499.125 533.4207,-502.9004 529.501,-499.2131 533.5,-499.3013 533.5,-499.3013 533.5,-499.3013 529.501,-499.2131 533.5793,-495.7022 525.5019,-499.125 525.5019,-499.125"/>
<ellipse fill="none" stroke="#000000" cx="522.3027" cy="-499.0544" rx="3.2" ry="3.2"/>
</g>
<!-- REFERRAL&#45;&gt;R_ENFORCEMENT_ACTION -->
<g id="edge24" class="edge">
<title>REFERRAL:w&#45;&gt;R_ENFORCEMENT_ACTION:e</title>
<path fill="none" stroke="#000000" d="M531.8891,-388.6101C500.8875,-385.4173 489.612,-371.3904 458,-351.3013 433.157,-335.5138 437.935,-307.3013 408.5,-307.3013"/>
<polygon fill="#000000" stroke="#000000" points="538.5089,-388.9232 546.3299,-392.8973 542.5045,-389.1123 546.5,-389.3013 546.5,-389.3013 546.5,-389.3013 542.5045,-389.1123 546.6701,-385.7053 538.5089,-388.9232 538.5089,-388.9232"/>
<ellipse fill="none" stroke="#000000" cx="535.3125" cy="-388.772" rx="3.2" ry="3.2"/>
</g>
<!-- REFERRAL&#45;&gt;R_CONTACT_OUTCOME_TYPE -->
<g id="edge25" class="edge">
<title>REFERRAL:w&#45;&gt;R_CONTACT_OUTCOME_TYPE:e</title>
<path fill="none" stroke="#000000" d="M531.9015,-389.8585C497.9189,-392.691 482.828,-406.5764 458,-437.3013 417.8251,-487.0181 481.4201,-575.3013 417.5,-575.3013"/>
<polygon fill="#000000" stroke="#000000" points="538.5058,-389.6065 546.6373,-392.8987 542.5029,-389.4539 546.5,-389.3013 546.5,-389.3013 546.5,-389.3013 542.5029,-389.4539 546.3627,-385.7039 538.5058,-389.6065 538.5058,-389.6065"/>
<ellipse fill="none" stroke="#000000" cx="535.3081" cy="-389.7285" rx="3.2" ry="3.2"/>
</g>
<!-- CONTACT_ALERT -->
<g id="node7" class="node">
<title>CONTACT_ALERT</title>
<g id="a_node7"><a xlink:href="../../tables/CONTACT_ALERT.html" xlink:title="CONTACT_ALERT" target="_top">
<polygon fill="#ffffff" stroke="transparent" points="784.5,-639.8013 784.5,-700.8013 921.5,-700.8013 921.5,-639.8013 784.5,-639.8013"/>
<polygon fill="#f5f5f5" stroke="transparent" points="785,-677.3013 785,-700.3013 922,-700.3013 922,-677.3013 785,-677.3013"/>
<polygon fill="none" stroke="#000000" points="785,-677.3013 785,-700.3013 922,-700.3013 922,-677.3013 785,-677.3013"/>
<text text-anchor="start" x="789.6412" y="-686.4013" font-family="Helvetica,sans-Serif" font-weight="bold" font-size="11.00" fill="#000000">CONTACT_ALERT</text>
<text text-anchor="start" x="887.5219" y="-685.4013" font-family="Helvetica,sans-Serif" font-size="11.00" fill="#000000">[table]</text>
<polygon fill="none" stroke="#000000" points="785,-658.3013 785,-677.3013 922,-677.3013 922,-658.3013 785,-658.3013"/>
<text text-anchor="start" x="788" y="-664.4013" font-family="Helvetica,sans-Serif" font-size="11.00" fill="#000000">...</text>
<polygon fill="#ffffff" stroke="transparent" points="785,-639.3013 785,-658.3013 825,-658.3013 825,-639.3013 785,-639.3013"/>
<polygon fill="none" stroke="#000000" points="785,-639.3013 785,-658.3013 825,-658.3013 825,-639.3013 785,-639.3013"/>
<text text-anchor="start" x="788" y="-645.4013" font-family="Helvetica,sans-Serif" font-size="11.00" fill="#000000">&lt; 9</text>
<polygon fill="#ffffff" stroke="transparent" points="825,-639.3013 825,-658.3013 900,-658.3013 900,-639.3013 825,-639.3013"/>
<polygon fill="none" stroke="#000000" points="825,-639.3013 825,-658.3013 900,-658.3013 900,-639.3013 825,-639.3013"/>
<text text-anchor="start" x="837.094" y="-645.4013" font-family="Helvetica,sans-Serif" font-size="11.00" fill="#000000">19,615 rows</text>
<polygon fill="#ffffff" stroke="transparent" points="900,-639.3013 900,-658.3013 922,-658.3013 922,-639.3013 900,-639.3013"/>
<polygon fill="none" stroke="#000000" points="900,-639.3013 900,-658.3013 922,-658.3013 922,-639.3013 900,-639.3013"/>
<text text-anchor="start" x="912.8862" y="-645.4013" font-family="Helvetica,sans-Serif" font-size="11.00" fill="#000000"> &#160;</text>
</a>
</g>
</g>
<!-- CONTACT_ALERT&#45;&gt;R_CONTACT_OUTCOME_TYPE -->
<g id="edge9" class="edge">
<title>CONTACT_ALERT:w&#45;&gt;R_CONTACT_OUTCOME_TYPE:e</title>
<path fill="none" stroke="#000000" d="M770.5227,-667.5574C689.3868,-670.1038 515.6247,-690.0206 458,-653.3013 425.0583,-632.3103 456.5612,-575.3013 417.5,-575.3013"/>
<polygon fill="#000000" stroke="#000000" points="777.0013,-667.4428 785.0637,-670.9007 781.0006,-667.3721 785,-667.3013 785,-667.3013 785,-667.3013 781.0006,-667.3721 784.9363,-663.7018 777.0013,-667.4428 777.0013,-667.4428"/>
<ellipse fill="none" stroke="#000000" cx="773.8018" cy="-667.4994" rx="3.2" ry="3.2"/>
</g>
<!-- CONTACT_ALERT&#45;&gt;CONTACT -->
<g id="edge8" class="edge">
<title>CONTACT_ALERT:w&#45;&gt;CONTACT:e</title>
<path fill="none" stroke="#000000" d="M770.5957,-664.9058C742.6158,-653.644 760.4077,-605.0973 735,-571.3013 707.1368,-534.239 705.8678,-499.3013 659.5,-499.3013"/>
<polygon fill="#000000" stroke="#000000" points="777.1084,-665.9888 784.4094,-670.8525 781.0542,-666.6451 785,-667.3013 785,-667.3013 785,-667.3013 781.0542,-666.6451 785.5906,-663.7501 777.1084,-665.9888 777.1084,-665.9888"/>
<ellipse fill="none" stroke="#000000" cx="773.9517" cy="-665.4639" rx="3.2" ry="3.2"/>
</g>
<!-- CONTACT_ALERT&#45;&gt;R_CONTACT_TYPE -->
<g id="edge10" class="edge">
<title>CONTACT_ALERT:w&#45;&gt;R_CONTACT_TYPE:e</title>
<path fill="none" stroke="#000000" d="M770.5597,-669.0347C715.4173,-684.4839 796.0152,-799.0637 735,-845.3013 636.8799,-919.6571 579.8738,-862.7118 458,-845.3013 337.0062,-828.0164 296.1042,-835.4802 194,-768.3013 170.3969,-752.7718 181.7537,-719.3013 153.5,-719.3013"/>
<polygon fill="#000000" stroke="#000000" points="777.057,-668.2548 785.4291,-670.8756 781.0285,-667.7781 785,-667.3013 785,-667.3013 785,-667.3013 781.0285,-667.7781 784.5709,-663.7269 777.057,-668.2548 777.057,-668.2548"/>
<ellipse fill="none" stroke="#000000" cx="773.8798" cy="-668.6362" rx="3.2" ry="3.2"/>
</g>
<!-- DRUGS_TEST -->
<g id="node8" class="node">
<title>DRUGS_TEST</title>
<g id="a_node8"><a xlink:href="../../tables/DRUGS_TEST.html" xlink:title="DRUGS_TEST" target="_top">
<polygon fill="#ffffff" stroke="transparent" points="538.5,-279.8013 538.5,-340.8013 654.5,-340.8013 654.5,-279.8013 538.5,-279.8013"/>
<polygon fill="#f5f5f5" stroke="transparent" points="538.5,-317.3013 538.5,-340.3013 654.5,-340.3013 654.5,-317.3013 538.5,-317.3013"/>
<polygon fill="none" stroke="#000000" points="538.5,-317.3013 538.5,-340.3013 654.5,-340.3013 654.5,-317.3013 538.5,-317.3013"/>
<text text-anchor="start" x="543.029" y="-326.4013" font-family="Helvetica,sans-Serif" font-weight="bold" font-size="11.00" fill="#000000">DRUGS_TEST</text>
<text text-anchor="start" x="620.0219" y="-325.4013" font-family="Helvetica,sans-Serif" font-size="11.00" fill="#000000">[table]</text>
<polygon fill="none" stroke="#000000" points="538.5,-298.3013 538.5,-317.3013 654.5,-317.3013 654.5,-298.3013 538.5,-298.3013"/>
<text text-anchor="start" x="541.5" y="-304.4013" font-family="Helvetica,sans-Serif" font-size="11.00" fill="#000000">...</text>
<polygon fill="#ffffff" stroke="transparent" points="538.5,-279.3013 538.5,-298.3013 574.5,-298.3013 574.5,-279.3013 538.5,-279.3013"/>
<polygon fill="none" stroke="#000000" points="538.5,-279.3013 538.5,-298.3013 574.5,-298.3013 574.5,-279.3013 538.5,-279.3013"/>
<text text-anchor="start" x="541.5" y="-285.4013" font-family="Helvetica,sans-Serif" font-size="11.00" fill="#000000">&lt; 12</text>
<polygon fill="#ffffff" stroke="transparent" points="574.5,-279.3013 574.5,-298.3013 628.5,-298.3013 628.5,-279.3013 574.5,-279.3013"/>
<polygon fill="none" stroke="#000000" points="574.5,-279.3013 574.5,-298.3013 628.5,-298.3013 628.5,-279.3013 574.5,-279.3013"/>
<text text-anchor="start" x="580.8807" y="-285.4013" font-family="Helvetica,sans-Serif" font-size="11.00" fill="#000000">117 rows</text>
<polygon fill="#ffffff" stroke="transparent" points="628.5,-279.3013 628.5,-298.3013 654.5,-298.3013 654.5,-279.3013 628.5,-279.3013"/>
<polygon fill="none" stroke="#000000" points="628.5,-279.3013 628.5,-298.3013 654.5,-298.3013 654.5,-279.3013 628.5,-279.3013"/>
<text text-anchor="start" x="635.9053" y="-285.4013" font-family="Helvetica,sans-Serif" font-size="11.00" fill="#000000">1 &gt;</text>
</a>
</g>
</g>
<!-- DRUGS_TEST&#45;&gt;R_ENFORCEMENT_ACTION -->
<g id="edge11" class="edge">
<title>DRUGS_TEST:w&#45;&gt;R_ENFORCEMENT_ACTION:e</title>
<path fill="none" stroke="#000000" d="M523.9136,-307.3013C477.777,-307.3013 461.0868,-307.3013 408.5,-307.3013"/>
<polygon fill="#000000" stroke="#000000" points="530.5,-307.3013 538.5,-310.9013 534.5,-307.3013 538.5,-307.3013 538.5,-307.3013 538.5,-307.3013 534.5,-307.3013 538.5,-303.7013 530.5,-307.3013 530.5,-307.3013"/>
<ellipse fill="none" stroke="#000000" cx="527.3" cy="-307.3014" rx="3.2" ry="3.2"/>
</g>
<!-- DRUGS_TEST&#45;&gt;R_CONTACT_OUTCOME_TYPE -->
<g id="edge12" class="edge">
<title>DRUGS_TEST:w&#45;&gt;R_CONTACT_OUTCOME_TYPE:e</title>
<path fill="none" stroke="#000000" d="M523.9028,-307.8701C493.5003,-310.4866 478.7732,-322.4922 458,-351.3013 428.4142,-392.3319 468.0849,-575.3013 417.5,-575.3013"/>
<polygon fill="#000000" stroke="#000000" points="530.5061,-307.6128 538.6402,-310.8986 534.503,-307.457 538.5,-307.3013 538.5,-307.3013 538.5,-307.3013 534.503,-307.457 538.3598,-303.704 530.5061,-307.6128 530.5061,-307.6128"/>
<ellipse fill="none" stroke="#000000" cx="527.3085" cy="-307.7374" rx="3.2" ry="3.2"/>
</g>
<!-- ENFORCEMENT -->
<g id="node9" class="node">
<title>ENFORCEMENT</title>
<g id="a_node9"><a xlink:href="../../tables/ENFORCEMENT.html" xlink:title="ENFORCEMENT" target="_top">
<polygon fill="#ffffff" stroke="transparent" points="979,-445.8013 979,-506.8013 1106,-506.8013 1106,-445.8013 979,-445.8013"/>
<polygon fill="#f5f5f5" stroke="transparent" points="979.5,-483.3013 979.5,-506.3013 1106.5,-506.3013 1106.5,-483.3013 979.5,-483.3013"/>
<polygon fill="none" stroke="#000000" points="979.5,-483.3013 979.5,-506.3013 1106.5,-506.3013 1106.5,-483.3013 979.5,-483.3013"/>
<text text-anchor="start" x="984.0351" y="-492.4013" font-family="Helvetica,sans-Serif" font-weight="bold" font-size="11.00" fill="#000000">ENFORCEMENT</text>
<text text-anchor="start" x="1072.0219" y="-491.4013" font-family="Helvetica,sans-Serif" font-size="11.00" fill="#000000">[table]</text>
<polygon fill="none" stroke="#000000" points="979.5,-464.3013 979.5,-483.3013 1106.5,-483.3013 1106.5,-464.3013 979.5,-464.3013"/>
<text text-anchor="start" x="982.5" y="-470.4013" font-family="Helvetica,sans-Serif" font-size="11.00" fill="#000000">...</text>
<polygon fill="#ffffff" stroke="transparent" points="979.5,-445.3013 979.5,-464.3013 1022.5,-464.3013 1022.5,-445.3013 979.5,-445.3013"/>
<polygon fill="none" stroke="#000000" points="979.5,-445.3013 979.5,-464.3013 1022.5,-464.3013 1022.5,-445.3013 979.5,-445.3013"/>
<text text-anchor="start" x="982.5" y="-451.4013" font-family="Helvetica,sans-Serif" font-size="11.00" fill="#000000">&lt; 4</text>
<polygon fill="#ffffff" stroke="transparent" points="1022.5,-445.3013 1022.5,-464.3013 1083.5,-464.3013 1083.5,-445.3013 1022.5,-445.3013"/>
<polygon fill="none" stroke="#000000" points="1022.5,-445.3013 1022.5,-464.3013 1083.5,-464.3013 1083.5,-445.3013 1022.5,-445.3013"/>
<text text-anchor="start" x="1035.8807" y="-451.4013" font-family="Helvetica,sans-Serif" font-size="11.00" fill="#000000">564 rows</text>
<polygon fill="#ffffff" stroke="transparent" points="1083.5,-445.3013 1083.5,-464.3013 1106.5,-464.3013 1106.5,-445.3013 1083.5,-445.3013"/>
<polygon fill="none" stroke="#000000" points="1083.5,-445.3013 1083.5,-464.3013 1106.5,-464.3013 1106.5,-445.3013 1083.5,-445.3013"/>
<text text-anchor="start" x="1097.3862" y="-451.4013" font-family="Helvetica,sans-Serif" font-size="11.00" fill="#000000"> &#160;</text>
</a>
</g>
</g>
<!-- ENFORCEMENT&#45;&gt;R_ENFORCEMENT_ACTION -->
<g id="edge14" class="edge">
<title>ENFORCEMENT:w&#45;&gt;R_ENFORCEMENT_ACTION:e</title>
<path fill="none" stroke="#000000" d="M964.9648,-471.1874C930.1774,-459.0058 962.1702,-396.728 938,-351.3013 867.979,-219.7 868.5501,-150.5297 735,-84.3013 624.7061,-29.6057 554.0227,-7.2559 458,-84.3013 378.815,-147.8367 510.0235,-307.3013 408.5,-307.3013"/>
<polygon fill="#000000" stroke="#000000" points="971.5833,-472.1499 978.9819,-476.8638 975.5416,-472.7256 979.5,-473.3013 979.5,-473.3013 979.5,-473.3013 975.5416,-472.7256 980.0181,-469.7388 971.5833,-472.1499 971.5833,-472.1499"/>
<ellipse fill="none" stroke="#000000" cx="968.4166" cy="-471.6893" rx="3.2" ry="3.2"/>
</g>
<!-- ENFORCEMENT&#45;&gt;CONTACT -->
<g id="edge13" class="edge">
<title>ENFORCEMENT:w&#45;&gt;CONTACT:e</title>
<path fill="none" stroke="#000000" d="M964.9108,-473.3502C882.5717,-473.922 856.7999,-479.4555 768,-487.3013 719.672,-491.5712 708.0163,-499.3013 659.5,-499.3013"/>
<polygon fill="#000000" stroke="#000000" points="971.5,-473.3282 979.5121,-476.9013 975.5,-473.3147 979.5,-473.3013 979.5,-473.3013 979.5,-473.3013 975.5,-473.3147 979.4879,-469.7013 971.5,-473.3282 971.5,-473.3282"/>
<ellipse fill="none" stroke="#000000" cx="968.3001" cy="-473.3389" rx="3.2" ry="3.2"/>
</g>
<!-- UPW_APPOINTMENT -->
<g id="node10" class="node">
<title>UPW_APPOINTMENT</title>
<g id="a_node10"><a xlink:href="../../tables/UPW_APPOINTMENT.html" xlink:title="UPW_APPOINTMENT" target="_top">
<polygon fill="#ffffff" stroke="transparent" points="776,-497.8013 776,-558.8013 930,-558.8013 930,-497.8013 776,-497.8013"/>
<polygon fill="#f5f5f5" stroke="transparent" points="776,-535.3013 776,-558.3013 930,-558.3013 930,-535.3013 776,-535.3013"/>
<polygon fill="none" stroke="#000000" points="776,-535.3013 776,-558.3013 930,-558.3013 930,-535.3013 776,-535.3013"/>
<text text-anchor="start" x="780.8923" y="-544.4013" font-family="Helvetica,sans-Serif" font-weight="bold" font-size="11.00" fill="#000000">UPW_APPOINTMENT</text>
<text text-anchor="start" x="895.5219" y="-543.4013" font-family="Helvetica,sans-Serif" font-size="11.00" fill="#000000">[table]</text>
<polygon fill="none" stroke="#000000" points="776,-516.3013 776,-535.3013 930,-535.3013 930,-516.3013 776,-516.3013"/>
<text text-anchor="start" x="779" y="-522.4013" font-family="Helvetica,sans-Serif" font-size="11.00" fill="#000000">...</text>
<polygon fill="#ffffff" stroke="transparent" points="776,-497.3013 776,-516.3013 826,-516.3013 826,-497.3013 776,-497.3013"/>
<polygon fill="none" stroke="#000000" points="776,-497.3013 776,-516.3013 826,-516.3013 826,-497.3013 776,-497.3013"/>
<text text-anchor="start" x="779" y="-503.4013" font-family="Helvetica,sans-Serif" font-size="11.00" fill="#000000">&lt; 16</text>
<polygon fill="#ffffff" stroke="transparent" points="826,-497.3013 826,-516.3013 897,-516.3013 897,-497.3013 826,-497.3013"/>
<polygon fill="none" stroke="#000000" points="826,-497.3013 826,-516.3013 897,-516.3013 897,-497.3013 826,-497.3013"/>
<text text-anchor="start" x="840.2089" y="-503.4013" font-family="Helvetica,sans-Serif" font-size="11.00" fill="#000000">8,642 rows</text>
<polygon fill="#ffffff" stroke="transparent" points="897,-497.3013 897,-516.3013 930,-516.3013 930,-497.3013 897,-497.3013"/>
<polygon fill="none" stroke="#000000" points="897,-497.3013 897,-516.3013 930,-516.3013 930,-497.3013 897,-497.3013"/>
<text text-anchor="start" x="911.4053" y="-503.4013" font-family="Helvetica,sans-Serif" font-size="11.00" fill="#000000">1 &gt;</text>
</a>
</g>
</g>
<!-- ENFORCEMENT&#45;&gt;UPW_APPOINTMENT -->
<g id="edge15" class="edge">
<title>ENFORCEMENT:w&#45;&gt;UPW_APPOINTMENT:e</title>
<path fill="none" stroke="#000000" d="M965.8175,-478.1001C951.3354,-490.9732 955.9253,-525.3013 930,-525.3013"/>
<polygon fill="#000000" stroke="#000000" points="971.9508,-475.949 980.6915,-476.6984 975.7254,-474.6251 979.5,-473.3013 979.5,-473.3013 979.5,-473.3013 975.7254,-474.6251 978.3085,-469.9042 971.9508,-475.949 971.9508,-475.949"/>
<ellipse fill="none" stroke="#000000" cx="968.9312" cy="-477.0081" rx="3.2" ry="3.2"/>
</g>
<!-- UPW_APPOINTMENT&#45;&gt;R_CONTACT_OUTCOME_TYPE -->
<g id="edge27" class="edge">
<title>UPW_APPOINTMENT:w&#45;&gt;R_CONTACT_OUTCOME_TYPE:e</title>
<path fill="none" stroke="#000000" d="M761.8334,-528.3163C753.3556,-532.4552 748.3827,-539.7832 735,-543.3013 733.9284,-543.583 418.608,-575.3013 417.5,-575.3013"/>
<polygon fill="#000000" stroke="#000000" points="768.1752,-526.9666 776.7494,-528.8224 772.0876,-526.1339 776,-525.3013 776,-525.3013 776,-525.3013 772.0876,-526.1339 775.2506,-521.7801 768.1752,-526.9666 768.1752,-526.9666"/>
<ellipse fill="none" stroke="#000000" cx="765.0453" cy="-527.6327" rx="3.2" ry="3.2"/>
</g>
<!-- UPW_APPOINTMENT&#45;&gt;CONTACT -->
<g id="edge26" class="edge">
<title>UPW_APPOINTMENT:w&#45;&gt;CONTACT:e</title>
<path fill="none" stroke="#000000" d="M761.5985,-524.6058C720.511,-520.4711 707.3708,-499.3013 659.5,-499.3013"/>
<polygon fill="#000000" stroke="#000000" points="768.0093,-524.9154 775.8263,-528.8971 772.0047,-525.1083 776,-525.3013 776,-525.3013 776,-525.3013 772.0047,-525.1083 776.1737,-521.7055 768.0093,-524.9154 768.0093,-524.9154"/>
<ellipse fill="none" stroke="#000000" cx="764.813" cy="-524.761" rx="3.2" ry="3.2"/>
</g>
<!-- R_CON_OUT_TYPE_CONTACT_TYPE -->
<g id="node11" class="node">
<title>R_CON_OUT_TYPE_CONTACT_TYPE</title>
<g id="a_node11"><a xlink:href="../../tables/R_CON_OUT_TYPE_CONTACT_TYPE.html" xlink:title="R_CON_OUT_TYPE_CONTACT_TYPE" target="_top">
<polygon fill="#ffffff" stroke="transparent" points="477,-773.8013 477,-834.8013 716,-834.8013 716,-773.8013 477,-773.8013"/>
<polygon fill="#f5f5f5" stroke="transparent" points="477.5,-811.3013 477.5,-834.3013 716.5,-834.3013 716.5,-811.3013 477.5,-811.3013"/>
<polygon fill="none" stroke="#000000" points="477.5,-811.3013 477.5,-834.3013 716.5,-834.3013 716.5,-811.3013 477.5,-811.3013"/>
<text text-anchor="start" x="482.1089" y="-820.4013" font-family="Helvetica,sans-Serif" font-weight="bold" font-size="11.00" fill="#000000">R_CON_OUT_TYPE_CONTACT_TYPE</text>
<text text-anchor="start" x="682.0219" y="-819.4013" font-family="Helvetica,sans-Serif" font-size="11.00" fill="#000000">[table]</text>
<polygon fill="none" stroke="#000000" points="477.5,-792.3013 477.5,-811.3013 716.5,-811.3013 716.5,-792.3013 477.5,-792.3013"/>
<text text-anchor="start" x="480.5" y="-798.4013" font-family="Helvetica,sans-Serif" font-size="11.00" fill="#000000">...</text>
<polygon fill="#ffffff" stroke="transparent" points="477.5,-773.3013 477.5,-792.3013 582.5,-792.3013 582.5,-773.3013 477.5,-773.3013"/>
<polygon fill="none" stroke="#000000" points="477.5,-773.3013 477.5,-792.3013 582.5,-792.3013 582.5,-773.3013 477.5,-773.3013"/>
<text text-anchor="start" x="480.5" y="-779.4013" font-family="Helvetica,sans-Serif" font-size="11.00" fill="#000000">&lt; 2</text>
<polygon fill="#ffffff" stroke="transparent" points="582.5,-773.3013 582.5,-792.3013 662.5,-792.3013 662.5,-773.3013 582.5,-773.3013"/>
<polygon fill="none" stroke="#000000" points="582.5,-773.3013 582.5,-792.3013 662.5,-792.3013 662.5,-773.3013 582.5,-773.3013"/>
<text text-anchor="start" x="627.1105" y="-779.4013" font-family="Helvetica,sans-Serif" font-size="11.00" fill="#000000">0 rows</text>
<polygon fill="#ffffff" stroke="transparent" points="662.5,-773.3013 662.5,-792.3013 716.5,-792.3013 716.5,-773.3013 662.5,-773.3013"/>
<polygon fill="none" stroke="#000000" points="662.5,-773.3013 662.5,-792.3013 716.5,-792.3013 716.5,-773.3013 662.5,-773.3013"/>
<text text-anchor="start" x="707.3862" y="-779.4013" font-family="Helvetica,sans-Serif" font-size="11.00" fill="#000000"> &#160;</text>
</a>
</g>
</g>
<!-- R_CON_OUT_TYPE_CONTACT_TYPE&#45;&gt;R_CONTACT_OUTCOME_TYPE -->
<g id="edge16" class="edge">
<title>R_CON_OUT_TYPE_CONTACT_TYPE:w&#45;&gt;R_CONTACT_OUTCOME_TYPE:e</title>
<path fill="none" stroke="#000000" d="M463.0855,-799.4821C388.4692,-778.0938 515.9436,-575.3013 417.5,-575.3013"/>
<polygon fill="#000000" stroke="#000000" points="469.563,-800.2995 477.0492,-804.873 473.5315,-800.8004 477.5,-801.3013 477.5,-801.3013 477.5,-801.3013 473.5315,-800.8004 477.9508,-797.7296 469.563,-800.2995 469.563,-800.2995"/>
<ellipse fill="none" stroke="#000000" cx="466.3881" cy="-799.8988" rx="3.2" ry="3.2"/>
</g>
<!-- R_CON_OUT_TYPE_CONTACT_TYPE&#45;&gt;R_CONTACT_TYPE -->
<g id="edge17" class="edge">
<title>R_CON_OUT_TYPE_CONTACT_TYPE:w&#45;&gt;R_CONTACT_TYPE:e</title>
<path fill="none" stroke="#000000" d="M463.4242,-797.8822C401.3871,-782.3631 155.5354,-719.3013 153.5,-719.3013"/>
<polygon fill="#000000" stroke="#000000" points="469.726,-799.4129 476.6502,-804.7996 473.613,-800.3571 477.5,-801.3013 477.5,-801.3013 477.5,-801.3013 473.613,-800.3571 478.3498,-797.803 469.726,-799.4129 469.726,-799.4129"/>
<ellipse fill="none" stroke="#000000" cx="466.6165" cy="-798.6576" rx="3.2" ry="3.2"/>
</g>
<!-- R_CONTACT_OUTCOME_UPW_REASON -->
<g id="node12" class="node">
<title>R_CONTACT_OUTCOME_UPW_REASON</title>
<g id="a_node12"><a xlink:href="../../tables/R_CONTACT_OUTCOME_UPW_REASON.html" xlink:title="R_CONTACT_OUTCOME_UPW_REASON" target="_top">
<polygon fill="#ffffff" stroke="transparent" points="468.5,-581.8013 468.5,-642.8013 724.5,-642.8013 724.5,-581.8013 468.5,-581.8013"/>
<polygon fill="#f5f5f5" stroke="transparent" points="468.5,-619.3013 468.5,-642.3013 724.5,-642.3013 724.5,-619.3013 468.5,-619.3013"/>
<polygon fill="none" stroke="#000000" points="468.5,-619.3013 468.5,-642.3013 724.5,-642.3013 724.5,-619.3013 468.5,-619.3013"/>
<text text-anchor="start" x="473.0624" y="-628.4013" font-family="Helvetica,sans-Serif" font-weight="bold" font-size="11.00" fill="#000000">R_CONTACT_OUTCOME_UPW_REASON</text>
<text text-anchor="start" x="690.0219" y="-627.4013" font-family="Helvetica,sans-Serif" font-size="11.00" fill="#000000">[table]</text>
<polygon fill="none" stroke="#000000" points="468.5,-600.3013 468.5,-619.3013 724.5,-619.3013 724.5,-600.3013 468.5,-600.3013"/>
<text text-anchor="start" x="471.5" y="-606.4013" font-family="Helvetica,sans-Serif" font-size="11.00" fill="#000000">...</text>
<polygon fill="#ffffff" stroke="transparent" points="468.5,-581.3013 468.5,-600.3013 581.5,-600.3013 581.5,-581.3013 468.5,-581.3013"/>
<polygon fill="none" stroke="#000000" points="468.5,-581.3013 468.5,-600.3013 581.5,-600.3013 581.5,-581.3013 468.5,-581.3013"/>
<text text-anchor="start" x="471.5" y="-587.4013" font-family="Helvetica,sans-Serif" font-size="11.00" fill="#000000">&lt; 2</text>
<polygon fill="#ffffff" stroke="transparent" points="581.5,-581.3013 581.5,-600.3013 665.5,-600.3013 665.5,-581.3013 581.5,-581.3013"/>
<polygon fill="none" stroke="#000000" points="581.5,-581.3013 581.5,-600.3013 665.5,-600.3013 665.5,-581.3013 581.5,-581.3013"/>
<text text-anchor="start" x="630.1105" y="-587.4013" font-family="Helvetica,sans-Serif" font-size="11.00" fill="#000000">5 rows</text>
<polygon fill="#ffffff" stroke="transparent" points="665.5,-581.3013 665.5,-600.3013 724.5,-600.3013 724.5,-581.3013 665.5,-581.3013"/>
<polygon fill="none" stroke="#000000" points="665.5,-581.3013 665.5,-600.3013 724.5,-600.3013 724.5,-581.3013 665.5,-581.3013"/>
<text text-anchor="start" x="715.3862" y="-587.4013" font-family="Helvetica,sans-Serif" font-size="11.00" fill="#000000"> &#160;</text>
</a>
</g>
</g>
<!-- R_CONTACT_OUTCOME_UPW_REASON&#45;&gt;R_CONTACT_OUTCOME_TYPE -->
<g id="edge18" class="edge">
<title>R_CONTACT_OUTCOME_UPW_REASON:w&#45;&gt;R_CONTACT_OUTCOME_TYPE:e</title>
<path fill="none" stroke="#000000" d="M454.3901,-605.1322C441.312,-596.0532 438.7828,-575.3013 417.5,-575.3013"/>
<polygon fill="#000000" stroke="#000000" points="460.8279,-607.0344 467.4799,-612.7537 464.6639,-608.1678 468.5,-609.3013 468.5,-609.3013 468.5,-609.3013 464.6639,-608.1678 469.5201,-605.8488 460.8279,-607.0344 460.8279,-607.0344"/>
<ellipse fill="none" stroke="#000000" cx="457.759" cy="-606.1276" rx="3.2" ry="3.2"/>
</g>
<!-- R_CONTACT_TYPE_OUTCOME -->
<g id="node13" class="node">
<title>R_CONTACT_TYPE_OUTCOME</title>
<g id="a_node13"><a xlink:href="../../tables/R_CONTACT_TYPE_OUTCOME.html" xlink:title="R_CONTACT_TYPE_OUTCOME" target="_top">
<polygon fill="#ffffff" stroke="transparent" points="493,-691.8013 493,-752.8013 700,-752.8013 700,-691.8013 493,-691.8013"/>
<polygon fill="#f5f5f5" stroke="transparent" points="493.5,-729.3013 493.5,-752.3013 700.5,-752.3013 700.5,-729.3013 493.5,-729.3013"/>
<polygon fill="none" stroke="#000000" points="493.5,-729.3013 493.5,-752.3013 700.5,-752.3013 700.5,-729.3013 493.5,-729.3013"/>
<text text-anchor="start" x="498.3091" y="-738.4013" font-family="Helvetica,sans-Serif" font-weight="bold" font-size="11.00" fill="#000000">R_CONTACT_TYPE_OUTCOME</text>
<text text-anchor="start" x="666.0219" y="-737.4013" font-family="Helvetica,sans-Serif" font-size="11.00" fill="#000000">[table]</text>
<polygon fill="none" stroke="#000000" points="493.5,-710.3013 493.5,-729.3013 700.5,-729.3013 700.5,-710.3013 493.5,-710.3013"/>
<text text-anchor="start" x="496.5" y="-716.4013" font-family="Helvetica,sans-Serif" font-size="11.00" fill="#000000">...</text>
<polygon fill="#ffffff" stroke="transparent" points="493.5,-691.3013 493.5,-710.3013 571.5,-710.3013 571.5,-691.3013 493.5,-691.3013"/>
<polygon fill="none" stroke="#000000" points="493.5,-691.3013 493.5,-710.3013 571.5,-710.3013 571.5,-691.3013 493.5,-691.3013"/>
<text text-anchor="start" x="496.5" y="-697.4013" font-family="Helvetica,sans-Serif" font-size="11.00" fill="#000000">&lt; 2</text>
<polygon fill="#ffffff" stroke="transparent" points="571.5,-691.3013 571.5,-710.3013 659.5,-710.3013 659.5,-691.3013 571.5,-691.3013"/>
<polygon fill="none" stroke="#000000" points="571.5,-691.3013 571.5,-710.3013 659.5,-710.3013 659.5,-691.3013 571.5,-691.3013"/>
<text text-anchor="start" x="602.7089" y="-697.4013" font-family="Helvetica,sans-Serif" font-size="11.00" fill="#000000">2,242 rows</text>
<polygon fill="#ffffff" stroke="transparent" points="659.5,-691.3013 659.5,-710.3013 700.5,-710.3013 700.5,-691.3013 659.5,-691.3013"/>
<polygon fill="none" stroke="#000000" points="659.5,-691.3013 659.5,-710.3013 700.5,-710.3013 700.5,-691.3013 659.5,-691.3013"/>
<text text-anchor="start" x="691.3862" y="-697.4013" font-family="Helvetica,sans-Serif" font-size="11.00" fill="#000000"> &#160;</text>
</a>
</g>
</g>
<!-- R_CONTACT_TYPE_OUTCOME&#45;&gt;R_CONTACT_OUTCOME_TYPE -->
<g id="edge19" class="edge">
<title>R_CONTACT_TYPE_OUTCOME:w&#45;&gt;R_CONTACT_OUTCOME_TYPE:e</title>
<path fill="none" stroke="#000000" d="M479.2944,-716.922C430.7857,-698.1993 484.3544,-575.3013 417.5,-575.3013"/>
<polygon fill="#000000" stroke="#000000" points="485.6099,-717.9797 492.9053,-722.8518 489.5549,-718.6405 493.5,-719.3013 493.5,-719.3013 493.5,-719.3013 489.5549,-718.6405 494.0947,-715.7507 485.6099,-717.9797 485.6099,-717.9797"/>
<ellipse fill="none" stroke="#000000" cx="482.4539" cy="-717.4511" rx="3.2" ry="3.2"/>
</g>
<!-- R_CONTACT_TYPE_OUTCOME&#45;&gt;R_CONTACT_TYPE -->
<g id="edge20" class="edge">
<title>R_CONTACT_TYPE_OUTCOME:w&#45;&gt;R_CONTACT_TYPE:e</title>
<path fill="none" stroke="#000000" d="M478.8145,-719.3013C339.7553,-719.3013 299.5938,-719.3013 153.5,-719.3013"/>
<polygon fill="#000000" stroke="#000000" points="485.5,-719.3013 493.5,-722.9013 489.5,-719.3013 493.5,-719.3013 493.5,-719.3013 493.5,-719.3013 489.5,-719.3013 493.5,-715.7013 485.5,-719.3013 485.5,-719.3013"/>
<ellipse fill="none" stroke="#000000" cx="482.3" cy="-719.3014" rx="3.2" ry="3.2"/>
</g>
<!-- R_ENF_ACT_CONTACT_OUT_TYPE -->
<g id="node14" class="node">
<title>R_ENF_ACT_CONTACT_OUT_TYPE</title>
<g id="a_node14"><a xlink:href="../../tables/R_ENF_ACT_CONTACT_OUT_TYPE.html" xlink:title="R_ENF_ACT_CONTACT_OUT_TYPE" target="_top">
<polygon fill="#ffffff" stroke="transparent" points="466,-124.3013 466,-258.3013 727,-258.3013 727,-124.3013 466,-124.3013"/>
<polygon fill="#f5f5f5" stroke="transparent" points="468.5,-233.3013 468.5,-256.3013 725.5,-256.3013 725.5,-233.3013 468.5,-233.3013"/>
<polygon fill="none" stroke="#000000" points="468.5,-233.3013 468.5,-256.3013 725.5,-256.3013 725.5,-233.3013 468.5,-233.3013"/>
<text text-anchor="start" x="473.5" y="-242.4013" font-family="Helvetica,sans-Serif" font-weight="bold" font-size="11.00" fill="#000000">R_ENF_ACT_CONTACT_OUT_TYPE</text>
<text text-anchor="start" x="690.5437" y="-241.4013" font-family="Helvetica,sans-Serif" font-size="11.00" fill="#000000">[table]</text>
<polygon fill="none" stroke="#000000" points="468.5,-211.3013 468.5,-233.3013 664.5,-233.3013 664.5,-211.3013 468.5,-211.3013"/>
<image xlink:href="../../images/primaryKeys.png" width="11px" height="12px" preserveAspectRatio="xMinYMin meet" x="473.5" y="-228.301"/>
<text text-anchor="start" x="488.5" y="-218.4013" font-family="Helvetica,sans-Serif" font-size="11.00" fill="#000000">ENFORCEMENT_ACTION_ID</text>
<polygon fill="none" stroke="#000000" points="664.5,-211.3013 664.5,-233.3013 725.5,-233.3013 725.5,-211.3013 664.5,-211.3013"/>
<text text-anchor="start" x="667.1865" y="-219.0013" font-family="Helvetica,sans-Serif" font-size="11.00" fill="#000000">number[38]</text>
<polygon fill="none" stroke="#000000" points="468.5,-189.3013 468.5,-211.3013 664.5,-211.3013 664.5,-189.3013 468.5,-189.3013"/>
<image xlink:href="../../images/primaryKeys.png" width="11px" height="12px" preserveAspectRatio="xMinYMin meet" x="473.5" y="-206.301"/>
<text text-anchor="start" x="488.5" y="-196.4013" font-family="Helvetica,sans-Serif" font-size="11.00" fill="#000000">CONTACT_OUTCOME_TYPE_ID</text>
<polygon fill="none" stroke="#000000" points="664.5,-189.3013 664.5,-211.3013 725.5,-211.3013 725.5,-189.3013 664.5,-189.3013"/>
<text text-anchor="start" x="667.1865" y="-197.0013" font-family="Helvetica,sans-Serif" font-size="11.00" fill="#000000">number[38]</text>
<polygon fill="none" stroke="#000000" points="468.5,-167.3013 468.5,-189.3013 664.5,-189.3013 664.5,-167.3013 468.5,-167.3013"/>
<text text-anchor="start" x="488.5" y="-174.4013" font-family="Helvetica,sans-Serif" font-size="11.00" fill="#000000">ROW_VERSION</text>
<polygon fill="none" stroke="#000000" points="664.5,-167.3013 664.5,-189.3013 725.5,-189.3013 725.5,-167.3013 664.5,-167.3013"/>
<text text-anchor="start" x="667.1865" y="-175.0013" font-family="Helvetica,sans-Serif" font-size="11.00" fill="#000000">number[38]</text>
<polygon fill="none" stroke="#000000" points="468.5,-145.3013 468.5,-167.3013 664.5,-167.3013 664.5,-145.3013 468.5,-145.3013"/>
<image xlink:href="../../images/primaryKeys.png" width="11px" height="12px" preserveAspectRatio="xMinYMin meet" x="473.5" y="-162.301"/>
<text text-anchor="start" x="488.5" y="-152.4013" font-family="Helvetica,sans-Serif" font-size="11.00" fill="#000000">TRAINING_SESSION_ID</text>
<polygon fill="none" stroke="#000000" points="664.5,-145.3013 664.5,-167.3013 725.5,-167.3013 725.5,-145.3013 664.5,-145.3013"/>
<text text-anchor="start" x="667.1865" y="-153.0013" font-family="Helvetica,sans-Serif" font-size="11.00" fill="#000000">number[38]</text>
<polygon fill="#ffffff" stroke="transparent" points="468.5,-126.3013 468.5,-145.3013 551.5,-145.3013 551.5,-126.3013 468.5,-126.3013"/>
<polygon fill="none" stroke="#000000" points="468.5,-126.3013 468.5,-145.3013 551.5,-145.3013 551.5,-126.3013 468.5,-126.3013"/>
<text text-anchor="start" x="471.5" y="-132.4013" font-family="Helvetica,sans-Serif" font-size="11.00" fill="#000000">&lt; 2</text>
<polygon fill="#ffffff" stroke="transparent" points="551.5,-126.3013 551.5,-145.3013 664.5,-145.3013 664.5,-126.3013 551.5,-126.3013"/>
<polygon fill="none" stroke="#000000" points="551.5,-126.3013 551.5,-145.3013 664.5,-145.3013 664.5,-126.3013 551.5,-126.3013"/>
<text text-anchor="start" x="616.8807" y="-132.4013" font-family="Helvetica,sans-Serif" font-size="11.00" fill="#000000">277 rows</text>
<polygon fill="#ffffff" stroke="transparent" points="664.5,-126.3013 664.5,-145.3013 725.5,-145.3013 725.5,-126.3013 664.5,-126.3013"/>
<polygon fill="none" stroke="#000000" points="664.5,-126.3013 664.5,-145.3013 725.5,-145.3013 725.5,-126.3013 664.5,-126.3013"/>
<text text-anchor="start" x="706.9053" y="-132.4013" font-family="Helvetica,sans-Serif" font-size="11.00" fill="#000000">0 &gt;</text>
<polygon fill="none" stroke="#000000" stroke-width="2" points="467,-125.3013 467,-257.3013 726,-257.3013 726,-125.3013 467,-125.3013"/>
</a>
</g>
</g>
<!-- R_ENF_ACT_CONTACT_OUT_TYPE&#45;&gt;R_ENFORCEMENT_ACTION -->
<g id="edge22" class="edge">
<title>R_ENF_ACT_CONTACT_OUT_TYPE:w&#45;&gt;R_ENFORCEMENT_ACTION:e</title>
<path fill="none" stroke="#000000" d="M454.5421,-225.9536C429.1492,-242.2232 448.9613,-307.3013 408.5,-307.3013"/>
<polygon fill="#000000" stroke="#000000" points="460.7606,-224.3265 469.4113,-225.784 464.6303,-223.3139 468.5,-222.3013 468.5,-222.3013 468.5,-222.3013 464.6303,-223.3139 467.5887,-218.8185 460.7606,-224.3265 460.7606,-224.3265"/>
<ellipse fill="none" stroke="#000000" cx="457.6648" cy="-225.1366" rx="3.2" ry="3.2"/>
</g>
<!-- R_ENF_ACT_CONTACT_OUT_TYPE&#45;&gt;R_CONTACT_OUTCOME_TYPE -->
<g id="edge21" class="edge">
<title>R_ENF_ACT_CONTACT_OUT_TYPE:w&#45;&gt;R_CONTACT_OUTCOME_TYPE:e</title>
<path fill="none" stroke="#000000" d="M454.6393,-204.7739C398.6712,-247.0833 496.1799,-575.3013 417.5,-575.3013"/>
<polygon fill="#000000" stroke="#000000" points="460.8866,-202.7581 469.6056,-203.7273 464.6933,-201.5297 468.5,-200.3013 468.5,-200.3013 468.5,-200.3013 464.6933,-201.5297 467.3944,-196.8752 460.8866,-202.7581 460.8866,-202.7581"/>
<ellipse fill="none" stroke="#000000" cx="457.8412" cy="-203.7408" rx="3.2" ry="3.2"/>
</g>
</g>
</svg>
