<?xml version="1.0" encoding="UTF-8" standalone="no"?>
<!DOCTYPE svg PUBLIC "-//W3C//DTD SVG 1.1//EN"
 "http://www.w3.org/Graphics/SVG/1.1/DTD/svg11.dtd">
<!-- Generated by graphviz version 2.40.1 (20161225.0304)
 -->
<!-- Title: oneDegreeRelationshipsDiagram Pages: 1 -->
<svg width="549pt" height="303pt"
 viewBox="0.00 0.00 549.00 303.20" xmlns="http://www.w3.org/2000/svg" xmlns:xlink="http://www.w3.org/1999/xlink">
<g id="graph0" class="graph" transform="scale(1 1) rotate(0) translate(4 299.2)">
<title>oneDegreeRelationshipsDiagram</title>
<polygon fill="#ffffff" stroke="transparent" points="-4,4 -4,-299.2 545,-299.2 545,4 -4,4"/>
<text text-anchor="middle" x="72.4936" y="-7.3" font-family="Helvetica,sans-Serif" font-size="11.00" fill="#000000">Generated by SchemaSpy</text>
<!-- R_ENF_ACT_CONTACT_OUT_TYPE -->
<g id="node1" class="node">
<title>R_ENF_ACT_CONTACT_OUT_TYPE</title>
<g id="a_node1"><a xlink:href="../../tables/R_ENF_ACT_CONTACT_OUT_TYPE.html" xlink:title="R_ENF_ACT_CONTACT_OUT_TYPE" target="_top">
<polygon fill="#ffffff" stroke="transparent" points="272,-95.7 272,-229.7 533,-229.7 533,-95.7 272,-95.7"/>
<polygon fill="#f5f5f5" stroke="transparent" points="274.5,-204.7 274.5,-227.7 531.5,-227.7 531.5,-204.7 274.5,-204.7"/>
<polygon fill="none" stroke="#000000" points="274.5,-204.7 274.5,-227.7 531.5,-227.7 531.5,-204.7 274.5,-204.7"/>
<text text-anchor="start" x="279.5" y="-213.8" font-family="Helvetica,sans-Serif" font-weight="bold" font-size="11.00" fill="#000000">R_ENF_ACT_CONTACT_OUT_TYPE</text>
<text text-anchor="start" x="496.5437" y="-212.8" font-family="Helvetica,sans-Serif" font-size="11.00" fill="#000000">[table]</text>
<polygon fill="none" stroke="#000000" points="274.5,-182.7 274.5,-204.7 470.5,-204.7 470.5,-182.7 274.5,-182.7"/>
<image xlink:href="../../images/primaryKeys.png" width="11px" height="12px" preserveAspectRatio="xMinYMin meet" x="279.5" y="-199.7"/>
<text text-anchor="start" x="294.5" y="-189.8" font-family="Helvetica,sans-Serif" font-size="11.00" fill="#000000">ENFORCEMENT_ACTION_ID</text>
<polygon fill="none" stroke="#000000" points="470.5,-182.7 470.5,-204.7 531.5,-204.7 531.5,-182.7 470.5,-182.7"/>
<text text-anchor="start" x="473.1865" y="-190.4" font-family="Helvetica,sans-Serif" font-size="11.00" fill="#000000">number[38]</text>
<polygon fill="none" stroke="#000000" points="274.5,-160.7 274.5,-182.7 470.5,-182.7 470.5,-160.7 274.5,-160.7"/>
<image xlink:href="../../images/primaryKeys.png" width="11px" height="12px" preserveAspectRatio="xMinYMin meet" x="279.5" y="-177.7"/>
<text text-anchor="start" x="294.5" y="-167.8" font-family="Helvetica,sans-Serif" font-size="11.00" fill="#000000">CONTACT_OUTCOME_TYPE_ID</text>
<polygon fill="none" stroke="#000000" points="470.5,-160.7 470.5,-182.7 531.5,-182.7 531.5,-160.7 470.5,-160.7"/>
<text text-anchor="start" x="473.1865" y="-168.4" font-family="Helvetica,sans-Serif" font-size="11.00" fill="#000000">number[38]</text>
<polygon fill="none" stroke="#000000" points="274.5,-138.7 274.5,-160.7 470.5,-160.7 470.5,-138.7 274.5,-138.7"/>
<text text-anchor="start" x="294.5" y="-145.8" font-family="Helvetica,sans-Serif" font-size="11.00" fill="#000000">ROW_VERSION</text>
<polygon fill="none" stroke="#000000" points="470.5,-138.7 470.5,-160.7 531.5,-160.7 531.5,-138.7 470.5,-138.7"/>
<text text-anchor="start" x="473.1865" y="-146.4" font-family="Helvetica,sans-Serif" font-size="11.00" fill="#000000">number[38]</text>
<polygon fill="none" stroke="#000000" points="274.5,-116.7 274.5,-138.7 470.5,-138.7 470.5,-116.7 274.5,-116.7"/>
<image xlink:href="../../images/primaryKeys.png" width="11px" height="12px" preserveAspectRatio="xMinYMin meet" x="279.5" y="-133.7"/>
<text text-anchor="start" x="294.5" y="-123.8" font-family="Helvetica,sans-Serif" font-size="11.00" fill="#000000">TRAINING_SESSION_ID</text>
<polygon fill="none" stroke="#000000" points="470.5,-116.7 470.5,-138.7 531.5,-138.7 531.5,-116.7 470.5,-116.7"/>
<text text-anchor="start" x="473.1865" y="-124.4" font-family="Helvetica,sans-Serif" font-size="11.00" fill="#000000">number[38]</text>
<polygon fill="#ffffff" stroke="transparent" points="274.5,-97.7 274.5,-116.7 357.5,-116.7 357.5,-97.7 274.5,-97.7"/>
<polygon fill="none" stroke="#000000" points="274.5,-97.7 274.5,-116.7 357.5,-116.7 357.5,-97.7 274.5,-97.7"/>
<text text-anchor="start" x="277.5" y="-103.8" font-family="Helvetica,sans-Serif" font-size="11.00" fill="#000000">&lt; 2</text>
<polygon fill="#ffffff" stroke="transparent" points="357.5,-97.7 357.5,-116.7 470.5,-116.7 470.5,-97.7 357.5,-97.7"/>
<polygon fill="none" stroke="#000000" points="357.5,-97.7 357.5,-116.7 470.5,-116.7 470.5,-97.7 357.5,-97.7"/>
<text text-anchor="start" x="422.8807" y="-103.8" font-family="Helvetica,sans-Serif" font-size="11.00" fill="#000000">277 rows</text>
<polygon fill="#ffffff" stroke="transparent" points="470.5,-97.7 470.5,-116.7 531.5,-116.7 531.5,-97.7 470.5,-97.7"/>
<polygon fill="none" stroke="#000000" points="470.5,-97.7 470.5,-116.7 531.5,-116.7 531.5,-97.7 470.5,-97.7"/>
<text text-anchor="start" x="512.9053" y="-103.8" font-family="Helvetica,sans-Serif" font-size="11.00" fill="#000000">0 &gt;</text>
<polygon fill="none" stroke="#000000" stroke-width="2" points="273,-96.7 273,-228.7 532,-228.7 532,-96.7 273,-96.7"/>
</a>
</g>
</g>
<!-- R_CONTACT_OUTCOME_TYPE -->
<g id="node2" class="node">
<title>R_CONTACT_OUTCOME_TYPE</title>
<g id="a_node2"><a xlink:href="../../tables/R_CONTACT_OUTCOME_TYPE.html" xlink:title="R_CONTACT_OUTCOME_TYPE" target="_top">
<polygon fill="#ffffff" stroke="transparent" points="8,-38.2 8,-143.2 223,-143.2 223,-38.2 8,-38.2"/>
<polygon fill="#f5f5f5" stroke="transparent" points="8.5,-119.7 8.5,-142.7 223.5,-142.7 223.5,-119.7 8.5,-119.7"/>
<polygon fill="none" stroke="#000000" points="8.5,-119.7 8.5,-142.7 223.5,-142.7 223.5,-119.7 8.5,-119.7"/>
<text text-anchor="start" x="13.5" y="-128.8" font-family="Helvetica,sans-Serif" font-weight="bold" font-size="11.00" fill="#000000">R_CONTACT_OUTCOME_TYPE</text>
<text text-anchor="start" x="188.5437" y="-127.8" font-family="Helvetica,sans-Serif" font-size="11.00" fill="#000000">[table]</text>
<polygon fill="none" stroke="#000000" points="8.5,-97.7 8.5,-119.7 223.5,-119.7 223.5,-97.7 8.5,-97.7"/>
<image xlink:href="../../images/primaryKeys.png" width="11px" height="12px" preserveAspectRatio="xMinYMin meet" x="13.5" y="-114.7"/>
<text text-anchor="start" x="28.5" y="-104.8" font-family="Helvetica,sans-Serif" font-size="11.00" fill="#000000">CONTACT_OUTCOME_TYPE_ID</text>
<polygon fill="none" stroke="#000000" points="8.5,-75.7 8.5,-97.7 223.5,-97.7 223.5,-75.7 8.5,-75.7"/>
<image xlink:href="../../images/primaryKeys.png" width="11px" height="12px" preserveAspectRatio="xMinYMin meet" x="13.5" y="-92.7"/>
<text text-anchor="start" x="28.5" y="-82.8" font-family="Helvetica,sans-Serif" font-size="11.00" fill="#000000">TRAINING_SESSION_ID</text>
<polygon fill="none" stroke="#000000" points="8.5,-56.7 8.5,-75.7 223.5,-75.7 223.5,-56.7 8.5,-56.7"/>
<text text-anchor="start" x="11.5" y="-62.8" font-family="Helvetica,sans-Serif" font-size="11.00" fill="#000000">...</text>
<polygon fill="#ffffff" stroke="transparent" points="8.5,-37.7 8.5,-56.7 83.5,-56.7 83.5,-37.7 8.5,-37.7"/>
<polygon fill="none" stroke="#000000" points="8.5,-37.7 8.5,-56.7 83.5,-56.7 83.5,-37.7 8.5,-37.7"/>
<text text-anchor="start" x="11.5" y="-43.8" font-family="Helvetica,sans-Serif" font-size="11.00" fill="#000000"> &#160;</text>
<polygon fill="#ffffff" stroke="transparent" points="83.5,-37.7 83.5,-56.7 164.5,-56.7 164.5,-37.7 83.5,-37.7"/>
<polygon fill="none" stroke="#000000" points="83.5,-37.7 83.5,-56.7 164.5,-56.7 164.5,-37.7 83.5,-37.7"/>
<text text-anchor="start" x="116.8807" y="-43.8" font-family="Helvetica,sans-Serif" font-size="11.00" fill="#000000">220 rows</text>
<polygon fill="#ffffff" stroke="transparent" points="164.5,-37.7 164.5,-56.7 223.5,-56.7 223.5,-37.7 164.5,-37.7"/>
<polygon fill="none" stroke="#000000" points="164.5,-37.7 164.5,-56.7 223.5,-56.7 223.5,-37.7 164.5,-37.7"/>
<text text-anchor="start" x="198.7904" y="-43.8" font-family="Helvetica,sans-Serif" font-size="11.00" fill="#000000">10 &gt;</text>
</a>
</g>
</g>
<!-- R_ENF_ACT_CONTACT_OUT_TYPE&#45;&gt;R_CONTACT_OUTCOME_TYPE -->
<g id="edge1" class="edge">
<title>R_ENF_ACT_CONTACT_OUT_TYPE:w&#45;&gt;R_CONTACT_OUTCOME_TYPE:e</title>
<path fill="none" stroke="#000000" d="M260.4033,-166.7565C244.025,-151.9048 253.3329,-108.7 223.5,-108.7"/>
<polygon fill="#000000" stroke="#000000" points="266.9507,-169.0526 273.3087,-175.0972 270.7254,-170.3763 274.5,-171.7 274.5,-171.7 274.5,-171.7 270.7254,-170.3763 275.6913,-168.3028 266.9507,-169.0526 266.9507,-169.0526"/>
<ellipse fill="none" stroke="#000000" cx="263.931" cy="-167.9936" rx="3.2" ry="3.2"/>
</g>
<!-- R_ENFORCEMENT_ACTION -->
<g id="node3" class="node">
<title>R_ENFORCEMENT_ACTION</title>
<g id="a_node3"><a xlink:href="../../tables/R_ENFORCEMENT_ACTION.html" xlink:title="R_ENFORCEMENT_ACTION" target="_top">
<polygon fill="#ffffff" stroke="transparent" points="17,-164.2 17,-291.2 214,-291.2 214,-164.2 17,-164.2"/>
<polygon fill="#f5f5f5" stroke="transparent" points="17.5,-267.7 17.5,-290.7 214.5,-290.7 214.5,-267.7 17.5,-267.7"/>
<polygon fill="none" stroke="#000000" points="17.5,-267.7 17.5,-290.7 214.5,-290.7 214.5,-267.7 17.5,-267.7"/>
<text text-anchor="start" x="22.5" y="-276.8" font-family="Helvetica,sans-Serif" font-weight="bold" font-size="11.00" fill="#000000">R_ENFORCEMENT_ACTION</text>
<text text-anchor="start" x="179.5437" y="-275.8" font-family="Helvetica,sans-Serif" font-size="11.00" fill="#000000">[table]</text>
<polygon fill="none" stroke="#000000" points="17.5,-245.7 17.5,-267.7 214.5,-267.7 214.5,-245.7 17.5,-245.7"/>
<image xlink:href="../../images/primaryKeys.png" width="11px" height="12px" preserveAspectRatio="xMinYMin meet" x="22.5" y="-262.7"/>
<text text-anchor="start" x="37.5" y="-252.8" font-family="Helvetica,sans-Serif" font-size="11.00" fill="#000000">ENFORCEMENT_ACTION_ID</text>
<polygon fill="none" stroke="#000000" points="17.5,-223.7 17.5,-245.7 214.5,-245.7 214.5,-223.7 17.5,-223.7"/>
<image xlink:href="../../images/primaryKeys.png" width="11px" height="12px" preserveAspectRatio="xMinYMin meet" x="22.5" y="-240.7"/>
<text text-anchor="start" x="37.5" y="-230.8" font-family="Helvetica,sans-Serif" font-size="11.00" fill="#000000">CONTACT_TYPE_ID</text>
<polygon fill="none" stroke="#000000" points="17.5,-201.7 17.5,-223.7 214.5,-223.7 214.5,-201.7 17.5,-201.7"/>
<image xlink:href="../../images/primaryKeys.png" width="11px" height="12px" preserveAspectRatio="xMinYMin meet" x="22.5" y="-218.7"/>
<text text-anchor="start" x="37.5" y="-208.8" font-family="Helvetica,sans-Serif" font-size="11.00" fill="#000000">TRAINING_SESSION_ID</text>
<polygon fill="none" stroke="#000000" points="17.5,-182.7 17.5,-201.7 214.5,-201.7 214.5,-182.7 17.5,-182.7"/>
<text text-anchor="start" x="20.5" y="-188.8" font-family="Helvetica,sans-Serif" font-size="11.00" fill="#000000">...</text>
<polygon fill="#ffffff" stroke="transparent" points="17.5,-163.7 17.5,-182.7 93.5,-182.7 93.5,-163.7 17.5,-163.7"/>
<polygon fill="none" stroke="#000000" points="17.5,-163.7 17.5,-182.7 93.5,-182.7 93.5,-163.7 17.5,-163.7"/>
<text text-anchor="start" x="20.5" y="-169.8" font-family="Helvetica,sans-Serif" font-size="11.00" fill="#000000">&lt; 1</text>
<polygon fill="#ffffff" stroke="transparent" points="93.5,-163.7 93.5,-182.7 165.5,-182.7 165.5,-163.7 93.5,-163.7"/>
<polygon fill="none" stroke="#000000" points="93.5,-163.7 93.5,-182.7 165.5,-182.7 165.5,-163.7 93.5,-163.7"/>
<text text-anchor="start" x="123.9956" y="-169.8" font-family="Helvetica,sans-Serif" font-size="11.00" fill="#000000">49 rows</text>
<polygon fill="#ffffff" stroke="transparent" points="165.5,-163.7 165.5,-182.7 214.5,-182.7 214.5,-163.7 165.5,-163.7"/>
<polygon fill="none" stroke="#000000" points="165.5,-163.7 165.5,-182.7 214.5,-182.7 214.5,-163.7 165.5,-163.7"/>
<text text-anchor="start" x="195.9053" y="-169.8" font-family="Helvetica,sans-Serif" font-size="11.00" fill="#000000">6 &gt;</text>
</a>
</g>
</g>
<!-- R_ENF_ACT_CONTACT_OUT_TYPE&#45;&gt;R_ENFORCEMENT_ACTION -->
<g id="edge2" class="edge">
<title>R_ENF_ACT_CONTACT_OUT_TYPE:w&#45;&gt;R_ENFORCEMENT_ACTION:e</title>
<path fill="none" stroke="#000000" d="M260.3312,-197.6409C239.8149,-211.4332 247.276,-256.7 214.5,-256.7"/>
<polygon fill="#000000" stroke="#000000" points="266.7926,-195.8438 275.4647,-197.1683 270.6463,-194.7719 274.5,-193.7 274.5,-193.7 274.5,-193.7 270.6463,-194.7719 273.5353,-190.2317 266.7926,-195.8438 266.7926,-195.8438"/>
<ellipse fill="none" stroke="#000000" cx="263.7096" cy="-196.7013" rx="3.2" ry="3.2"/>
</g>
</g>
</svg>
