<?xml version="1.0" encoding="UTF-8" standalone="no"?>
<!DOCTYPE svg PUBLIC "-//W3C//DTD SVG 1.1//EN"
 "http://www.w3.org/Graphics/SVG/1.1/DTD/svg11.dtd">
<!-- Generated by graphviz version 2.40.1 (20161225.0304)
 -->
<!-- Title: twoDegreesRelationshipsDiagram Pages: 1 -->
<svg width="1122pt" height="918pt"
 viewBox="0.00 0.00 1122.00 917.61" xmlns="http://www.w3.org/2000/svg" xmlns:xlink="http://www.w3.org/1999/xlink">
<g id="graph0" class="graph" transform="scale(1 1) rotate(0) translate(4 913.6083)">
<title>twoDegreesRelationshipsDiagram</title>
<polygon fill="#ffffff" stroke="transparent" points="-4,4 -4,-913.6083 1118,-913.6083 1118,4 -4,4"/>
<text text-anchor="middle" x="72.4936" y="-7.3" font-family="Helvetica,sans-Serif" font-size="11.00" fill="#000000">Generated by SchemaSpy</text>
<!-- ASSESSMENT -->
<g id="node1" class="node">
<title>ASSESSMENT</title>
<g id="a_node1"><a xlink:href="../../tables/ASSESSMENT.html" xlink:title="ASSESSMENT" target="_top">
<polygon fill="#ffffff" stroke="transparent" points="794,-156.1011 794,-217.1011 912,-217.1011 912,-156.1011 794,-156.1011"/>
<polygon fill="#f5f5f5" stroke="transparent" points="794,-193.6011 794,-216.6011 912,-216.6011 912,-193.6011 794,-193.6011"/>
<polygon fill="none" stroke="#000000" points="794,-193.6011 794,-216.6011 912,-216.6011 912,-193.6011 794,-193.6011"/>
<text text-anchor="start" x="798.913" y="-202.7011" font-family="Helvetica,sans-Serif" font-weight="bold" font-size="11.00" fill="#000000">ASSESSMENT</text>
<text text-anchor="start" x="877.5219" y="-201.7011" font-family="Helvetica,sans-Serif" font-size="11.00" fill="#000000">[table]</text>
<polygon fill="none" stroke="#000000" points="794,-174.6011 794,-193.6011 912,-193.6011 912,-174.6011 794,-174.6011"/>
<text text-anchor="start" x="797" y="-180.7011" font-family="Helvetica,sans-Serif" font-size="11.00" fill="#000000">...</text>
<polygon fill="#ffffff" stroke="transparent" points="794,-155.6011 794,-174.6011 835,-174.6011 835,-155.6011 794,-155.6011"/>
<polygon fill="none" stroke="#000000" points="794,-155.6011 794,-174.6011 835,-174.6011 835,-155.6011 794,-155.6011"/>
<text text-anchor="start" x="797" y="-161.7011" font-family="Helvetica,sans-Serif" font-size="11.00" fill="#000000">&lt; 13</text>
<polygon fill="#ffffff" stroke="transparent" points="835,-155.6011 835,-174.6011 892,-174.6011 892,-155.6011 835,-155.6011"/>
<polygon fill="none" stroke="#000000" points="835,-155.6011 835,-174.6011 892,-174.6011 892,-155.6011 835,-155.6011"/>
<text text-anchor="start" x="844.3807" y="-161.7011" font-family="Helvetica,sans-Serif" font-size="11.00" fill="#000000">284 rows</text>
<polygon fill="#ffffff" stroke="transparent" points="892,-155.6011 892,-174.6011 912,-174.6011 912,-155.6011 892,-155.6011"/>
<polygon fill="none" stroke="#000000" points="892,-155.6011 892,-174.6011 912,-174.6011 912,-155.6011 892,-155.6011"/>
<text text-anchor="start" x="902.8862" y="-161.7011" font-family="Helvetica,sans-Serif" font-size="11.00" fill="#000000"> &#160;</text>
</a>
</g>
</g>
<!-- R_ENFORCEMENT_ACTION -->
<g id="node2" class="node">
<title>R_ENFORCEMENT_ACTION</title>
<g id="a_node2"><a xlink:href="../../tables/R_ENFORCEMENT_ACTION.html" xlink:title="R_ENFORCEMENT_ACTION" target="_top">
<polygon fill="#ffffff" stroke="transparent" points="211,-167.1011 211,-294.1011 408,-294.1011 408,-167.1011 211,-167.1011"/>
<polygon fill="#f5f5f5" stroke="transparent" points="211.5,-270.6011 211.5,-293.6011 408.5,-293.6011 408.5,-270.6011 211.5,-270.6011"/>
<polygon fill="none" stroke="#000000" points="211.5,-270.6011 211.5,-293.6011 408.5,-293.6011 408.5,-270.6011 211.5,-270.6011"/>
<text text-anchor="start" x="216.5" y="-279.7011" font-family="Helvetica,sans-Serif" font-weight="bold" font-size="11.00" fill="#000000">R_ENFORCEMENT_ACTION</text>
<text text-anchor="start" x="373.5437" y="-278.7011" font-family="Helvetica,sans-Serif" font-size="11.00" fill="#000000">[table]</text>
<polygon fill="none" stroke="#000000" points="211.5,-248.6011 211.5,-270.6011 408.5,-270.6011 408.5,-248.6011 211.5,-248.6011"/>
<image xlink:href="../../images/primaryKeys.png" width="11px" height="12px" preserveAspectRatio="xMinYMin meet" x="216.5" y="-265.601"/>
<text text-anchor="start" x="231.5" y="-255.7011" font-family="Helvetica,sans-Serif" font-size="11.00" fill="#000000">ENFORCEMENT_ACTION_ID</text>
<polygon fill="none" stroke="#000000" points="211.5,-226.6011 211.5,-248.6011 408.5,-248.6011 408.5,-226.6011 211.5,-226.6011"/>
<image xlink:href="../../images/primaryKeys.png" width="11px" height="12px" preserveAspectRatio="xMinYMin meet" x="216.5" y="-243.601"/>
<text text-anchor="start" x="231.5" y="-233.7011" font-family="Helvetica,sans-Serif" font-size="11.00" fill="#000000">CONTACT_TYPE_ID</text>
<polygon fill="none" stroke="#000000" points="211.5,-204.6011 211.5,-226.6011 408.5,-226.6011 408.5,-204.6011 211.5,-204.6011"/>
<image xlink:href="../../images/primaryKeys.png" width="11px" height="12px" preserveAspectRatio="xMinYMin meet" x="216.5" y="-221.601"/>
<text text-anchor="start" x="231.5" y="-211.7011" font-family="Helvetica,sans-Serif" font-size="11.00" fill="#000000">TRAINING_SESSION_ID</text>
<polygon fill="none" stroke="#000000" points="211.5,-185.6011 211.5,-204.6011 408.5,-204.6011 408.5,-185.6011 211.5,-185.6011"/>
<text text-anchor="start" x="214.5" y="-191.7011" font-family="Helvetica,sans-Serif" font-size="11.00" fill="#000000">...</text>
<polygon fill="#ffffff" stroke="transparent" points="211.5,-166.6011 211.5,-185.6011 287.5,-185.6011 287.5,-166.6011 211.5,-166.6011"/>
<polygon fill="none" stroke="#000000" points="211.5,-166.6011 211.5,-185.6011 287.5,-185.6011 287.5,-166.6011 211.5,-166.6011"/>
<text text-anchor="start" x="214.5" y="-172.7011" font-family="Helvetica,sans-Serif" font-size="11.00" fill="#000000">&lt; 1</text>
<polygon fill="#ffffff" stroke="transparent" points="287.5,-166.6011 287.5,-185.6011 359.5,-185.6011 359.5,-166.6011 287.5,-166.6011"/>
<polygon fill="none" stroke="#000000" points="287.5,-166.6011 287.5,-185.6011 359.5,-185.6011 359.5,-166.6011 287.5,-166.6011"/>
<text text-anchor="start" x="317.9956" y="-172.7011" font-family="Helvetica,sans-Serif" font-size="11.00" fill="#000000">49 rows</text>
<polygon fill="#ffffff" stroke="transparent" points="359.5,-166.6011 359.5,-185.6011 408.5,-185.6011 408.5,-166.6011 359.5,-166.6011"/>
<polygon fill="none" stroke="#000000" points="359.5,-166.6011 359.5,-185.6011 408.5,-185.6011 408.5,-166.6011 359.5,-166.6011"/>
<text text-anchor="start" x="389.9053" y="-172.7011" font-family="Helvetica,sans-Serif" font-size="11.00" fill="#000000">6 &gt;</text>
</a>
</g>
</g>
<!-- ASSESSMENT&#45;&gt;R_ENFORCEMENT_ACTION -->
<g id="edge1" class="edge">
<title>ASSESSMENT:w&#45;&gt;R_ENFORCEMENT_ACTION:e</title>
<path fill="none" stroke="#000000" d="M779.8252,-180.7875C761.8551,-172.4771 760.5892,-148.0923 735,-139.6011 676.5769,-120.2149 509.1565,-105.3653 458,-139.6011 410.0538,-171.6886 466.1927,-259.6011 408.5,-259.6011"/>
<polygon fill="#000000" stroke="#000000" points="786.1531,-182.0435 793.2991,-187.1322 790.0765,-182.8223 794,-183.6011 794,-183.6011 794,-183.6011 790.0765,-182.8223 794.7009,-180.07 786.1531,-182.0435 786.1531,-182.0435"/>
<ellipse fill="none" stroke="#000000" cx="783.0143" cy="-181.4205" rx="3.2" ry="3.2"/>
</g>
<!-- R_CONTACT_OUTCOME_TYPE -->
<g id="node3" class="node">
<title>R_CONTACT_OUTCOME_TYPE</title>
<g id="a_node3"><a xlink:href="../../tables/R_CONTACT_OUTCOME_TYPE.html" xlink:title="R_CONTACT_OUTCOME_TYPE" target="_top">
<polygon fill="#ffffff" stroke="transparent" points="202,-498.1011 202,-603.1011 417,-603.1011 417,-498.1011 202,-498.1011"/>
<polygon fill="#f5f5f5" stroke="transparent" points="202.5,-579.6011 202.5,-602.6011 417.5,-602.6011 417.5,-579.6011 202.5,-579.6011"/>
<polygon fill="none" stroke="#000000" points="202.5,-579.6011 202.5,-602.6011 417.5,-602.6011 417.5,-579.6011 202.5,-579.6011"/>
<text text-anchor="start" x="207.5" y="-588.7011" font-family="Helvetica,sans-Serif" font-weight="bold" font-size="11.00" fill="#000000">R_CONTACT_OUTCOME_TYPE</text>
<text text-anchor="start" x="382.5437" y="-587.7011" font-family="Helvetica,sans-Serif" font-size="11.00" fill="#000000">[table]</text>
<polygon fill="none" stroke="#000000" points="202.5,-557.6011 202.5,-579.6011 417.5,-579.6011 417.5,-557.6011 202.5,-557.6011"/>
<image xlink:href="../../images/primaryKeys.png" width="11px" height="12px" preserveAspectRatio="xMinYMin meet" x="207.5" y="-574.601"/>
<text text-anchor="start" x="222.5" y="-564.7011" font-family="Helvetica,sans-Serif" font-size="11.00" fill="#000000">CONTACT_OUTCOME_TYPE_ID</text>
<polygon fill="none" stroke="#000000" points="202.5,-535.6011 202.5,-557.6011 417.5,-557.6011 417.5,-535.6011 202.5,-535.6011"/>
<image xlink:href="../../images/primaryKeys.png" width="11px" height="12px" preserveAspectRatio="xMinYMin meet" x="207.5" y="-552.601"/>
<text text-anchor="start" x="222.5" y="-542.7011" font-family="Helvetica,sans-Serif" font-size="11.00" fill="#000000">TRAINING_SESSION_ID</text>
<polygon fill="none" stroke="#000000" points="202.5,-516.6011 202.5,-535.6011 417.5,-535.6011 417.5,-516.6011 202.5,-516.6011"/>
<text text-anchor="start" x="205.5" y="-522.7011" font-family="Helvetica,sans-Serif" font-size="11.00" fill="#000000">...</text>
<polygon fill="#ffffff" stroke="transparent" points="202.5,-497.6011 202.5,-516.6011 277.5,-516.6011 277.5,-497.6011 202.5,-497.6011"/>
<polygon fill="none" stroke="#000000" points="202.5,-497.6011 202.5,-516.6011 277.5,-516.6011 277.5,-497.6011 202.5,-497.6011"/>
<text text-anchor="start" x="205.5" y="-503.7011" font-family="Helvetica,sans-Serif" font-size="11.00" fill="#000000"> &#160;</text>
<polygon fill="#ffffff" stroke="transparent" points="277.5,-497.6011 277.5,-516.6011 358.5,-516.6011 358.5,-497.6011 277.5,-497.6011"/>
<polygon fill="none" stroke="#000000" points="277.5,-497.6011 277.5,-516.6011 358.5,-516.6011 358.5,-497.6011 277.5,-497.6011"/>
<text text-anchor="start" x="310.8807" y="-503.7011" font-family="Helvetica,sans-Serif" font-size="11.00" fill="#000000">220 rows</text>
<polygon fill="#ffffff" stroke="transparent" points="358.5,-497.6011 358.5,-516.6011 417.5,-516.6011 417.5,-497.6011 358.5,-497.6011"/>
<polygon fill="none" stroke="#000000" points="358.5,-497.6011 358.5,-516.6011 417.5,-516.6011 417.5,-497.6011 358.5,-497.6011"/>
<text text-anchor="start" x="392.7904" y="-503.7011" font-family="Helvetica,sans-Serif" font-size="11.00" fill="#000000">10 &gt;</text>
</a>
</g>
</g>
<!-- ASSESSMENT&#45;&gt;R_CONTACT_OUTCOME_TYPE -->
<g id="edge2" class="edge">
<title>ASSESSMENT:w&#45;&gt;R_CONTACT_OUTCOME_TYPE:e</title>
<path fill="none" stroke="#000000" d="M779.9693,-187.4349C723.3316,-222.6158 789.0844,-489.2455 735,-541.6011 728.6404,-547.7575 426.3513,-568.6011 417.5,-568.6011"/>
<polygon fill="#000000" stroke="#000000" points="786.2829,-185.7098 794.9489,-187.0738 790.1415,-184.6555 794,-183.6011 794,-183.6011 794,-183.6011 790.1415,-184.6555 793.0511,-180.1284 786.2829,-185.7098 786.2829,-185.7098"/>
<ellipse fill="none" stroke="#000000" cx="783.1961" cy="-186.5533" rx="3.2" ry="3.2"/>
</g>
<!-- CONTACT -->
<g id="node4" class="node">
<title>CONTACT</title>
<g id="a_node4"><a xlink:href="../../tables/CONTACT.html" xlink:title="CONTACT" target="_top">
<polygon fill="#ffffff" stroke="transparent" points="533.5,-232.1011 533.5,-293.1011 659.5,-293.1011 659.5,-232.1011 533.5,-232.1011"/>
<polygon fill="#f5f5f5" stroke="transparent" points="533.5,-269.6011 533.5,-292.6011 659.5,-292.6011 659.5,-269.6011 533.5,-269.6011"/>
<polygon fill="none" stroke="#000000" points="533.5,-269.6011 533.5,-292.6011 659.5,-292.6011 659.5,-269.6011 533.5,-269.6011"/>
<text text-anchor="start" x="538.5" y="-278.7011" font-family="Helvetica,sans-Serif" font-weight="bold" font-size="11.00" fill="#000000">CONTACT</text>
<text text-anchor="start" x="624.5437" y="-277.7011" font-family="Helvetica,sans-Serif" font-size="11.00" fill="#000000">[table]</text>
<polygon fill="none" stroke="#000000" points="533.5,-250.6011 533.5,-269.6011 659.5,-269.6011 659.5,-250.6011 533.5,-250.6011"/>
<text text-anchor="start" x="536.5" y="-256.7011" font-family="Helvetica,sans-Serif" font-size="11.00" fill="#000000">...</text>
<polygon fill="#ffffff" stroke="transparent" points="533.5,-231.6011 533.5,-250.6011 560.5,-250.6011 560.5,-231.6011 533.5,-231.6011"/>
<polygon fill="none" stroke="#000000" points="533.5,-231.6011 533.5,-250.6011 560.5,-250.6011 560.5,-231.6011 533.5,-231.6011"/>
<text text-anchor="start" x="536.1452" y="-237.7011" font-family="Helvetica,sans-Serif" font-size="11.00" fill="#000000">&lt; 26</text>
<polygon fill="#ffffff" stroke="transparent" points="560.5,-231.6011 560.5,-250.6011 632.5,-250.6011 632.5,-231.6011 560.5,-231.6011"/>
<polygon fill="none" stroke="#000000" points="560.5,-231.6011 560.5,-250.6011 632.5,-250.6011 632.5,-231.6011 560.5,-231.6011"/>
<text text-anchor="start" x="563.4896" y="-237.7011" font-family="Helvetica,sans-Serif" font-size="11.00" fill="#000000">165,869 rows</text>
<polygon fill="#ffffff" stroke="transparent" points="632.5,-231.6011 632.5,-250.6011 659.5,-250.6011 659.5,-231.6011 632.5,-231.6011"/>
<polygon fill="none" stroke="#000000" points="632.5,-231.6011 632.5,-250.6011 659.5,-250.6011 659.5,-231.6011 632.5,-231.6011"/>
<text text-anchor="start" x="635.1452" y="-237.7011" font-family="Helvetica,sans-Serif" font-size="11.00" fill="#000000">14 &gt;</text>
</a>
</g>
</g>
<!-- ASSESSMENT&#45;&gt;CONTACT -->
<g id="edge3" class="edge">
<title>ASSESSMENT:w&#45;&gt;CONTACT:e</title>
<path fill="none" stroke="#000000" d="M779.5495,-185.6956C761.6533,-191.6337 757.1077,-208.9653 735,-221.6011 702.3853,-240.2423 697.0661,-259.6011 659.5,-259.6011"/>
<polygon fill="#000000" stroke="#000000" points="786.0827,-184.7487 794.5164,-187.1639 790.0414,-184.1749 794,-183.6011 794,-183.6011 794,-183.6011 790.0414,-184.1749 793.4836,-180.0384 786.0827,-184.7487 786.0827,-184.7487"/>
<ellipse fill="none" stroke="#000000" cx="782.9158" cy="-185.2078" rx="3.2" ry="3.2"/>
</g>
<!-- REFERRAL -->
<g id="node5" class="node">
<title>REFERRAL</title>
<g id="a_node5"><a xlink:href="../../tables/REFERRAL.html" xlink:title="REFERRAL" target="_top">
<polygon fill="#ffffff" stroke="transparent" points="546,-150.1011 546,-211.1011 647,-211.1011 647,-150.1011 546,-150.1011"/>
<polygon fill="#f5f5f5" stroke="transparent" points="546.5,-187.6011 546.5,-210.6011 647.5,-210.6011 647.5,-187.6011 546.5,-187.6011"/>
<polygon fill="none" stroke="#000000" points="546.5,-187.6011 546.5,-210.6011 647.5,-210.6011 647.5,-187.6011 546.5,-187.6011"/>
<text text-anchor="start" x="551.1674" y="-196.7011" font-family="Helvetica,sans-Serif" font-weight="bold" font-size="11.00" fill="#000000">REFERRAL</text>
<text text-anchor="start" x="613.0219" y="-195.7011" font-family="Helvetica,sans-Serif" font-size="11.00" fill="#000000">[table]</text>
<polygon fill="none" stroke="#000000" points="546.5,-168.6011 546.5,-187.6011 647.5,-187.6011 647.5,-168.6011 546.5,-168.6011"/>
<text text-anchor="start" x="549.5" y="-174.7011" font-family="Helvetica,sans-Serif" font-size="11.00" fill="#000000">...</text>
<polygon fill="#ffffff" stroke="transparent" points="546.5,-149.6011 546.5,-168.6011 574.5,-168.6011 574.5,-149.6011 546.5,-149.6011"/>
<polygon fill="none" stroke="#000000" points="546.5,-149.6011 546.5,-168.6011 574.5,-168.6011 574.5,-149.6011 546.5,-149.6011"/>
<text text-anchor="start" x="549.5" y="-155.7011" font-family="Helvetica,sans-Serif" font-size="11.00" fill="#000000">&lt; 13</text>
<polygon fill="#ffffff" stroke="transparent" points="574.5,-149.6011 574.5,-168.6011 625.5,-168.6011 625.5,-149.6011 574.5,-149.6011"/>
<polygon fill="none" stroke="#000000" points="574.5,-149.6011 574.5,-168.6011 625.5,-168.6011 625.5,-149.6011 574.5,-149.6011"/>
<text text-anchor="start" x="577.8807" y="-155.7011" font-family="Helvetica,sans-Serif" font-size="11.00" fill="#000000">888 rows</text>
<polygon fill="#ffffff" stroke="transparent" points="625.5,-149.6011 625.5,-168.6011 647.5,-168.6011 647.5,-149.6011 625.5,-149.6011"/>
<polygon fill="none" stroke="#000000" points="625.5,-149.6011 625.5,-168.6011 647.5,-168.6011 647.5,-149.6011 625.5,-149.6011"/>
<text text-anchor="start" x="628.9053" y="-155.7011" font-family="Helvetica,sans-Serif" font-size="11.00" fill="#000000">1 &gt;</text>
</a>
</g>
</g>
<!-- ASSESSMENT&#45;&gt;REFERRAL -->
<g id="edge4" class="edge">
<title>ASSESSMENT:w&#45;&gt;REFERRAL:e</title>
<path fill="none" stroke="#000000" d="M779.5772,-183.497C726.0089,-182.7002 707.5746,-177.6011 647.5,-177.6011"/>
<polygon fill="#000000" stroke="#000000" points="786.0002,-183.5433 793.974,-187.201 790.0001,-183.5722 794,-183.6011 794,-183.6011 794,-183.6011 790.0001,-183.5722 794.026,-180.0012 786.0002,-183.5433 786.0002,-183.5433"/>
<ellipse fill="none" stroke="#000000" cx="782.8003" cy="-183.5202" rx="3.2" ry="3.2"/>
</g>
<!-- R_CONTACT_TYPE -->
<g id="node6" class="node">
<title>R_CONTACT_TYPE</title>
<g id="a_node6"><a xlink:href="../../tables/R_CONTACT_TYPE.html" xlink:title="R_CONTACT_TYPE" target="_top">
<polygon fill="#ffffff" stroke="transparent" points="8,-507.1011 8,-568.1011 153,-568.1011 153,-507.1011 8,-507.1011"/>
<polygon fill="#f5f5f5" stroke="transparent" points="8.5,-544.6011 8.5,-567.6011 153.5,-567.6011 153.5,-544.6011 8.5,-544.6011"/>
<polygon fill="none" stroke="#000000" points="8.5,-544.6011 8.5,-567.6011 153.5,-567.6011 153.5,-544.6011 8.5,-544.6011"/>
<text text-anchor="start" x="13.4732" y="-553.7011" font-family="Helvetica,sans-Serif" font-weight="bold" font-size="11.00" fill="#000000">R_CONTACT_TYPE</text>
<text text-anchor="start" x="119.0219" y="-552.7011" font-family="Helvetica,sans-Serif" font-size="11.00" fill="#000000">[table]</text>
<polygon fill="none" stroke="#000000" points="8.5,-525.6011 8.5,-544.6011 153.5,-544.6011 153.5,-525.6011 8.5,-525.6011"/>
<text text-anchor="start" x="11.5" y="-531.7011" font-family="Helvetica,sans-Serif" font-size="11.00" fill="#000000">...</text>
<polygon fill="#ffffff" stroke="transparent" points="8.5,-506.6011 8.5,-525.6011 48.5,-525.6011 48.5,-506.6011 8.5,-506.6011"/>
<polygon fill="none" stroke="#000000" points="8.5,-506.6011 8.5,-525.6011 48.5,-525.6011 48.5,-506.6011 8.5,-506.6011"/>
<text text-anchor="start" x="11.5" y="-512.7011" font-family="Helvetica,sans-Serif" font-size="11.00" fill="#000000">&lt; 1</text>
<polygon fill="#ffffff" stroke="transparent" points="48.5,-506.6011 48.5,-525.6011 116.5,-525.6011 116.5,-506.6011 48.5,-506.6011"/>
<polygon fill="none" stroke="#000000" points="48.5,-506.6011 48.5,-525.6011 116.5,-525.6011 116.5,-506.6011 48.5,-506.6011"/>
<text text-anchor="start" x="59.7089" y="-512.7011" font-family="Helvetica,sans-Serif" font-size="11.00" fill="#000000">3,021 rows</text>
<polygon fill="#ffffff" stroke="transparent" points="116.5,-506.6011 116.5,-525.6011 153.5,-525.6011 153.5,-506.6011 116.5,-506.6011"/>
<polygon fill="none" stroke="#000000" points="116.5,-506.6011 116.5,-525.6011 153.5,-525.6011 153.5,-506.6011 116.5,-506.6011"/>
<text text-anchor="start" x="128.7904" y="-512.7011" font-family="Helvetica,sans-Serif" font-size="11.00" fill="#000000">22 &gt;</text>
</a>
</g>
</g>
<!-- R_ENFORCEMENT_ACTION&#45;&gt;R_CONTACT_TYPE -->
<g id="edge24" class="edge">
<title>R_ENFORCEMENT_ACTION:w&#45;&gt;R_CONTACT_TYPE:e</title>
<path fill="none" stroke="#000000" d="M197.9626,-243.0097C155.5824,-283.263 215.3617,-534.6011 153.5,-534.6011"/>
<polygon fill="#000000" stroke="#000000" points="204.071,-240.5692 212.8357,-240.9442 207.7855,-239.0852 211.5,-237.6011 211.5,-237.6011 211.5,-237.6011 207.7855,-239.0852 210.1643,-234.2581 204.071,-240.5692 204.071,-240.5692"/>
<ellipse fill="none" stroke="#000000" cx="201.0994" cy="-241.7565" rx="3.2" ry="3.2"/>
</g>
<!-- CONTACT&#45;&gt;R_ENFORCEMENT_ACTION -->
<g id="edge7" class="edge">
<title>CONTACT:w&#45;&gt;R_ENFORCEMENT_ACTION:e</title>
<path fill="none" stroke="#000000" d="M518.905,-259.6011C474.9741,-259.6011 458.8472,-259.6011 408.5,-259.6011"/>
<polygon fill="#000000" stroke="#000000" points="525.5,-259.6012 533.5,-263.2011 529.5,-259.6012 533.5,-259.6011 533.5,-259.6011 533.5,-259.6011 529.5,-259.6012 533.5,-256.0011 525.5,-259.6012 525.5,-259.6012"/>
<ellipse fill="none" stroke="#000000" cx="522.3" cy="-259.6012" rx="3.2" ry="3.2"/>
</g>
<!-- CONTACT&#45;&gt;R_CONTACT_OUTCOME_TYPE -->
<g id="edge5" class="edge">
<title>CONTACT:w&#45;&gt;R_CONTACT_OUTCOME_TYPE:e</title>
<path fill="none" stroke="#000000" d="M518.7679,-260.3261C490.3057,-263.4167 476.8395,-276.6313 458,-304.6011 424.8422,-353.8285 476.853,-568.6011 417.5,-568.6011"/>
<polygon fill="#000000" stroke="#000000" points="525.5097,-259.9944 533.677,-263.1968 529.5048,-259.7978 533.5,-259.6011 533.5,-259.6011 533.5,-259.6011 529.5048,-259.7978 533.323,-256.0055 525.5097,-259.9944 525.5097,-259.9944"/>
<ellipse fill="none" stroke="#000000" cx="522.3135" cy="-260.1517" rx="3.2" ry="3.2"/>
</g>
<!-- CONTACT&#45;&gt;R_CONTACT_TYPE -->
<g id="edge6" class="edge">
<title>CONTACT:w&#45;&gt;R_CONTACT_TYPE:e</title>
<path fill="none" stroke="#000000" d="M519.4412,-263.6685C466.7894,-285.3019 302.9299,-389.559 194,-487.6011 173.5046,-506.0479 181.0744,-534.6011 153.5,-534.6011"/>
<polygon fill="#000000" stroke="#000000" points="525.8152,-261.8245 534.5005,-263.0593 529.6576,-260.7128 533.5,-259.6011 533.5,-259.6011 533.5,-259.6011 529.6576,-260.7128 532.4995,-256.1429 525.8152,-261.8245 525.8152,-261.8245"/>
<ellipse fill="none" stroke="#000000" cx="522.7412" cy="-262.7138" rx="3.2" ry="3.2"/>
</g>
<!-- CONTACT&#45;&gt;R_CONTACT_TYPE -->
<g id="edge8" class="edge">
<title>CONTACT:w&#45;&gt;R_CONTACT_TYPE:e</title>
<path fill="none" stroke="#000000" d="M519.5833,-263.8057C467.6238,-286.1543 306.5995,-393.6747 194,-491.6011 174.1903,-508.8293 179.7533,-534.6011 153.5,-534.6011"/>
<polygon fill="#000000" stroke="#000000" points="525.8419,-261.9149 534.5412,-263.0473 529.6709,-260.758 533.5,-259.6011 533.5,-259.6011 533.5,-259.6011 529.6709,-260.758 532.4588,-256.155 525.8419,-261.9149 525.8419,-261.9149"/>
<ellipse fill="none" stroke="#000000" cx="522.7786" cy="-262.8404" rx="3.2" ry="3.2"/>
</g>
<!-- REFERRAL&#45;&gt;R_ENFORCEMENT_ACTION -->
<g id="edge25" class="edge">
<title>REFERRAL:w&#45;&gt;R_ENFORCEMENT_ACTION:e</title>
<path fill="none" stroke="#000000" d="M532.0349,-178.4811C500.3637,-182.6609 490.75,-201.1573 458,-221.6011 434.4727,-236.2878 436.2351,-259.6011 408.5,-259.6011"/>
<polygon fill="#000000" stroke="#000000" points="538.5148,-178.087 546.7186,-181.1945 542.5074,-177.844 546.5,-177.6011 546.5,-177.6011 546.5,-177.6011 542.5074,-177.844 546.2814,-174.0078 538.5148,-178.087 538.5148,-178.087"/>
<ellipse fill="none" stroke="#000000" cx="535.3207" cy="-178.2813" rx="3.2" ry="3.2"/>
</g>
<!-- REFERRAL&#45;&gt;R_CONTACT_OUTCOME_TYPE -->
<g id="edge26" class="edge">
<title>REFERRAL:w&#45;&gt;R_CONTACT_OUTCOME_TYPE:e</title>
<path fill="none" stroke="#000000" d="M532.0221,-177.9653C497.9663,-179.8744 480.304,-189.8785 458,-221.6011 413.3477,-285.1094 495.1346,-568.6011 417.5,-568.6011"/>
<polygon fill="#000000" stroke="#000000" points="538.5025,-177.8024 546.5906,-181.2 542.5013,-177.7017 546.5,-177.6011 546.5,-177.6011 546.5,-177.6011 542.5013,-177.7017 546.4094,-174.0023 538.5025,-177.8024 538.5025,-177.8024"/>
<ellipse fill="none" stroke="#000000" cx="535.3035" cy="-177.8829" rx="3.2" ry="3.2"/>
</g>
<!-- CONTACT_ALERT -->
<g id="node7" class="node">
<title>CONTACT_ALERT</title>
<g id="a_node7"><a xlink:href="../../tables/CONTACT_ALERT.html" xlink:title="CONTACT_ALERT" target="_top">
<polygon fill="#ffffff" stroke="transparent" points="784.5,-665.1011 784.5,-726.1011 921.5,-726.1011 921.5,-665.1011 784.5,-665.1011"/>
<polygon fill="#f5f5f5" stroke="transparent" points="785,-702.6011 785,-725.6011 922,-725.6011 922,-702.6011 785,-702.6011"/>
<polygon fill="none" stroke="#000000" points="785,-702.6011 785,-725.6011 922,-725.6011 922,-702.6011 785,-702.6011"/>
<text text-anchor="start" x="789.6412" y="-711.7011" font-family="Helvetica,sans-Serif" font-weight="bold" font-size="11.00" fill="#000000">CONTACT_ALERT</text>
<text text-anchor="start" x="887.5219" y="-710.7011" font-family="Helvetica,sans-Serif" font-size="11.00" fill="#000000">[table]</text>
<polygon fill="none" stroke="#000000" points="785,-683.6011 785,-702.6011 922,-702.6011 922,-683.6011 785,-683.6011"/>
<text text-anchor="start" x="788" y="-689.7011" font-family="Helvetica,sans-Serif" font-size="11.00" fill="#000000">...</text>
<polygon fill="#ffffff" stroke="transparent" points="785,-664.6011 785,-683.6011 825,-683.6011 825,-664.6011 785,-664.6011"/>
<polygon fill="none" stroke="#000000" points="785,-664.6011 785,-683.6011 825,-683.6011 825,-664.6011 785,-664.6011"/>
<text text-anchor="start" x="788" y="-670.7011" font-family="Helvetica,sans-Serif" font-size="11.00" fill="#000000">&lt; 9</text>
<polygon fill="#ffffff" stroke="transparent" points="825,-664.6011 825,-683.6011 900,-683.6011 900,-664.6011 825,-664.6011"/>
<polygon fill="none" stroke="#000000" points="825,-664.6011 825,-683.6011 900,-683.6011 900,-664.6011 825,-664.6011"/>
<text text-anchor="start" x="837.094" y="-670.7011" font-family="Helvetica,sans-Serif" font-size="11.00" fill="#000000">19,615 rows</text>
<polygon fill="#ffffff" stroke="transparent" points="900,-664.6011 900,-683.6011 922,-683.6011 922,-664.6011 900,-664.6011"/>
<polygon fill="none" stroke="#000000" points="900,-664.6011 900,-683.6011 922,-683.6011 922,-664.6011 900,-664.6011"/>
<text text-anchor="start" x="912.8862" y="-670.7011" font-family="Helvetica,sans-Serif" font-size="11.00" fill="#000000"> &#160;</text>
</a>
</g>
</g>
<!-- CONTACT_ALERT&#45;&gt;R_CONTACT_OUTCOME_TYPE -->
<g id="edge10" class="edge">
<title>CONTACT_ALERT:w&#45;&gt;R_CONTACT_OUTCOME_TYPE:e</title>
<path fill="none" stroke="#000000" d="M770.496,-692.8963C689.0927,-695.8346 513.1959,-718.8793 458,-678.6011 415.9163,-647.8914 469.5972,-568.6011 417.5,-568.6011"/>
<polygon fill="#000000" stroke="#000000" points="777.0017,-692.764 785.0733,-696.2004 781.0008,-692.6826 785,-692.6011 785,-692.6011 785,-692.6011 781.0008,-692.6826 784.9267,-689.0019 777.0017,-692.764 777.0017,-692.764"/>
<ellipse fill="none" stroke="#000000" cx="773.8023" cy="-692.8291" rx="3.2" ry="3.2"/>
</g>
<!-- CONTACT_ALERT&#45;&gt;CONTACT -->
<g id="edge9" class="edge">
<title>CONTACT_ALERT:w&#45;&gt;CONTACT:e</title>
<path fill="none" stroke="#000000" d="M770.636,-689.0422C708.1268,-654.1343 779.7148,-372.7416 735,-304.6011 713.5682,-271.9414 698.5637,-259.6011 659.5,-259.6011"/>
<polygon fill="#000000" stroke="#000000" points="777.2348,-690.6771 784.1342,-696.0955 781.1174,-691.6391 785,-692.6011 785,-692.6011 785,-692.6011 781.1174,-691.6391 785.8658,-689.1068 777.2348,-690.6771 777.2348,-690.6771"/>
<ellipse fill="none" stroke="#000000" cx="774.1287" cy="-689.9075" rx="3.2" ry="3.2"/>
</g>
<!-- CONTACT_ALERT&#45;&gt;R_CONTACT_TYPE -->
<g id="edge11" class="edge">
<title>CONTACT_ALERT:w&#45;&gt;R_CONTACT_TYPE:e</title>
<path fill="none" stroke="#000000" d="M770.5597,-694.3346C715.4173,-709.7837 796.0152,-824.3635 735,-870.6011 636.8799,-944.957 578.9125,-893.7638 458,-870.6011 333.982,-846.8435 273.6846,-863.5565 194,-765.6011 161.112,-725.1723 205.6163,-534.6011 153.5,-534.6011"/>
<polygon fill="#000000" stroke="#000000" points="777.057,-693.5547 785.4291,-696.1755 781.0285,-693.0779 785,-692.6011 785,-692.6011 785,-692.6011 781.0285,-693.0779 784.5709,-689.0268 777.057,-693.5547 777.057,-693.5547"/>
<ellipse fill="none" stroke="#000000" cx="773.8798" cy="-693.9361" rx="3.2" ry="3.2"/>
</g>
<!-- DRUGS_TEST -->
<g id="node8" class="node">
<title>DRUGS_TEST</title>
<g id="a_node8"><a xlink:href="../../tables/DRUGS_TEST.html" xlink:title="DRUGS_TEST" target="_top">
<polygon fill="#ffffff" stroke="transparent" points="538.5,-470.1011 538.5,-531.1011 654.5,-531.1011 654.5,-470.1011 538.5,-470.1011"/>
<polygon fill="#f5f5f5" stroke="transparent" points="538.5,-507.6011 538.5,-530.6011 654.5,-530.6011 654.5,-507.6011 538.5,-507.6011"/>
<polygon fill="none" stroke="#000000" points="538.5,-507.6011 538.5,-530.6011 654.5,-530.6011 654.5,-507.6011 538.5,-507.6011"/>
<text text-anchor="start" x="543.029" y="-516.7011" font-family="Helvetica,sans-Serif" font-weight="bold" font-size="11.00" fill="#000000">DRUGS_TEST</text>
<text text-anchor="start" x="620.0219" y="-515.7011" font-family="Helvetica,sans-Serif" font-size="11.00" fill="#000000">[table]</text>
<polygon fill="none" stroke="#000000" points="538.5,-488.6011 538.5,-507.6011 654.5,-507.6011 654.5,-488.6011 538.5,-488.6011"/>
<text text-anchor="start" x="541.5" y="-494.7011" font-family="Helvetica,sans-Serif" font-size="11.00" fill="#000000">...</text>
<polygon fill="#ffffff" stroke="transparent" points="538.5,-469.6011 538.5,-488.6011 574.5,-488.6011 574.5,-469.6011 538.5,-469.6011"/>
<polygon fill="none" stroke="#000000" points="538.5,-469.6011 538.5,-488.6011 574.5,-488.6011 574.5,-469.6011 538.5,-469.6011"/>
<text text-anchor="start" x="541.5" y="-475.7011" font-family="Helvetica,sans-Serif" font-size="11.00" fill="#000000">&lt; 12</text>
<polygon fill="#ffffff" stroke="transparent" points="574.5,-469.6011 574.5,-488.6011 628.5,-488.6011 628.5,-469.6011 574.5,-469.6011"/>
<polygon fill="none" stroke="#000000" points="574.5,-469.6011 574.5,-488.6011 628.5,-488.6011 628.5,-469.6011 574.5,-469.6011"/>
<text text-anchor="start" x="580.8807" y="-475.7011" font-family="Helvetica,sans-Serif" font-size="11.00" fill="#000000">117 rows</text>
<polygon fill="#ffffff" stroke="transparent" points="628.5,-469.6011 628.5,-488.6011 654.5,-488.6011 654.5,-469.6011 628.5,-469.6011"/>
<polygon fill="none" stroke="#000000" points="628.5,-469.6011 628.5,-488.6011 654.5,-488.6011 654.5,-469.6011 628.5,-469.6011"/>
<text text-anchor="start" x="635.9053" y="-475.7011" font-family="Helvetica,sans-Serif" font-size="11.00" fill="#000000">1 &gt;</text>
</a>
</g>
</g>
<!-- DRUGS_TEST&#45;&gt;R_ENFORCEMENT_ACTION -->
<g id="edge12" class="edge">
<title>DRUGS_TEST:w&#45;&gt;R_ENFORCEMENT_ACTION:e</title>
<path fill="none" stroke="#000000" d="M523.9132,-497.1729C494.5589,-495.2284 479.7381,-486.1449 458,-459.6011 399.9811,-388.7559 500.0709,-259.6011 408.5,-259.6011"/>
<polygon fill="#000000" stroke="#000000" points="530.5034,-497.3663 538.3943,-501.1996 534.5017,-497.4837 538.5,-497.6011 538.5,-497.6011 538.5,-497.6011 534.5017,-497.4837 538.6057,-494.0027 530.5034,-497.3663 530.5034,-497.3663"/>
<ellipse fill="none" stroke="#000000" cx="527.3048" cy="-497.2724" rx="3.2" ry="3.2"/>
</g>
<!-- DRUGS_TEST&#45;&gt;R_CONTACT_OUTCOME_TYPE -->
<g id="edge13" class="edge">
<title>DRUGS_TEST:w&#45;&gt;R_CONTACT_OUTCOME_TYPE:e</title>
<path fill="none" stroke="#000000" d="M525.5443,-503.9019C495.2904,-521.2783 423.8631,-568.6011 417.5,-568.6011"/>
<polygon fill="#000000" stroke="#000000" points="531.3057,-501.1 540.0745,-500.8386 534.9028,-499.3506 538.5,-497.6011 538.5,-497.6011 538.5,-497.6011 534.9028,-499.3506 536.9255,-494.3637 531.3057,-501.1 531.3057,-501.1"/>
<ellipse fill="none" stroke="#000000" cx="528.4279" cy="-502.4995" rx="3.2" ry="3.2"/>
</g>
<!-- ENFORCEMENT -->
<g id="node9" class="node">
<title>ENFORCEMENT</title>
<g id="a_node9"><a xlink:href="../../tables/ENFORCEMENT.html" xlink:title="ENFORCEMENT" target="_top">
<polygon fill="#ffffff" stroke="transparent" points="979,-220.1011 979,-281.1011 1106,-281.1011 1106,-220.1011 979,-220.1011"/>
<polygon fill="#f5f5f5" stroke="transparent" points="979.5,-257.6011 979.5,-280.6011 1106.5,-280.6011 1106.5,-257.6011 979.5,-257.6011"/>
<polygon fill="none" stroke="#000000" points="979.5,-257.6011 979.5,-280.6011 1106.5,-280.6011 1106.5,-257.6011 979.5,-257.6011"/>
<text text-anchor="start" x="984.0351" y="-266.7011" font-family="Helvetica,sans-Serif" font-weight="bold" font-size="11.00" fill="#000000">ENFORCEMENT</text>
<text text-anchor="start" x="1072.0219" y="-265.7011" font-family="Helvetica,sans-Serif" font-size="11.00" fill="#000000">[table]</text>
<polygon fill="none" stroke="#000000" points="979.5,-238.6011 979.5,-257.6011 1106.5,-257.6011 1106.5,-238.6011 979.5,-238.6011"/>
<text text-anchor="start" x="982.5" y="-244.7011" font-family="Helvetica,sans-Serif" font-size="11.00" fill="#000000">...</text>
<polygon fill="#ffffff" stroke="transparent" points="979.5,-219.6011 979.5,-238.6011 1022.5,-238.6011 1022.5,-219.6011 979.5,-219.6011"/>
<polygon fill="none" stroke="#000000" points="979.5,-219.6011 979.5,-238.6011 1022.5,-238.6011 1022.5,-219.6011 979.5,-219.6011"/>
<text text-anchor="start" x="982.5" y="-225.7011" font-family="Helvetica,sans-Serif" font-size="11.00" fill="#000000">&lt; 4</text>
<polygon fill="#ffffff" stroke="transparent" points="1022.5,-219.6011 1022.5,-238.6011 1083.5,-238.6011 1083.5,-219.6011 1022.5,-219.6011"/>
<polygon fill="none" stroke="#000000" points="1022.5,-219.6011 1022.5,-238.6011 1083.5,-238.6011 1083.5,-219.6011 1022.5,-219.6011"/>
<text text-anchor="start" x="1035.8807" y="-225.7011" font-family="Helvetica,sans-Serif" font-size="11.00" fill="#000000">564 rows</text>
<polygon fill="#ffffff" stroke="transparent" points="1083.5,-219.6011 1083.5,-238.6011 1106.5,-238.6011 1106.5,-219.6011 1083.5,-219.6011"/>
<polygon fill="none" stroke="#000000" points="1083.5,-219.6011 1083.5,-238.6011 1106.5,-238.6011 1106.5,-219.6011 1083.5,-219.6011"/>
<text text-anchor="start" x="1097.3862" y="-225.7011" font-family="Helvetica,sans-Serif" font-size="11.00" fill="#000000"> &#160;</text>
</a>
</g>
</g>
<!-- ENFORCEMENT&#45;&gt;R_ENFORCEMENT_ACTION -->
<g id="edge15" class="edge">
<title>ENFORCEMENT:w&#45;&gt;R_ENFORCEMENT_ACTION:e</title>
<path fill="none" stroke="#000000" d="M965.2471,-244.4541C940.7393,-230.2855 971.7481,-171.9635 938,-145.6011 769.5736,-14.0344 632.0959,7.3661 458,-116.6011 403.2144,-155.6119 475.7555,-259.6011 408.5,-259.6011"/>
<polygon fill="#000000" stroke="#000000" points="971.6882,-245.8762 978.7238,-251.1165 975.5941,-246.7387 979.5,-247.6011 979.5,-247.6011 979.5,-247.6011 975.5941,-246.7387 980.2762,-244.0858 971.6882,-245.8762 971.6882,-245.8762"/>
<ellipse fill="none" stroke="#000000" cx="968.5634" cy="-245.1863" rx="3.2" ry="3.2"/>
</g>
<!-- ENFORCEMENT&#45;&gt;CONTACT -->
<g id="edge14" class="edge">
<title>ENFORCEMENT:w&#45;&gt;CONTACT:e</title>
<path fill="none" stroke="#000000" d="M964.8768,-247.6446C834.5597,-248.43 796.8187,-259.6011 659.5,-259.6011"/>
<polygon fill="#000000" stroke="#000000" points="971.5,-247.625 979.5107,-251.2011 975.5,-247.613 979.5,-247.6011 979.5,-247.6011 979.5,-247.6011 975.5,-247.613 979.4893,-244.0011 971.5,-247.625 971.5,-247.625"/>
<ellipse fill="none" stroke="#000000" cx="968.3" cy="-247.6345" rx="3.2" ry="3.2"/>
</g>
<!-- UPW_APPOINTMENT -->
<g id="node10" class="node">
<title>UPW_APPOINTMENT</title>
<g id="a_node10"><a xlink:href="../../tables/UPW_APPOINTMENT.html" xlink:title="UPW_APPOINTMENT" target="_top">
<polygon fill="#ffffff" stroke="transparent" points="776,-272.1011 776,-333.1011 930,-333.1011 930,-272.1011 776,-272.1011"/>
<polygon fill="#f5f5f5" stroke="transparent" points="776,-309.6011 776,-332.6011 930,-332.6011 930,-309.6011 776,-309.6011"/>
<polygon fill="none" stroke="#000000" points="776,-309.6011 776,-332.6011 930,-332.6011 930,-309.6011 776,-309.6011"/>
<text text-anchor="start" x="780.8923" y="-318.7011" font-family="Helvetica,sans-Serif" font-weight="bold" font-size="11.00" fill="#000000">UPW_APPOINTMENT</text>
<text text-anchor="start" x="895.5219" y="-317.7011" font-family="Helvetica,sans-Serif" font-size="11.00" fill="#000000">[table]</text>
<polygon fill="none" stroke="#000000" points="776,-290.6011 776,-309.6011 930,-309.6011 930,-290.6011 776,-290.6011"/>
<text text-anchor="start" x="779" y="-296.7011" font-family="Helvetica,sans-Serif" font-size="11.00" fill="#000000">...</text>
<polygon fill="#ffffff" stroke="transparent" points="776,-271.6011 776,-290.6011 826,-290.6011 826,-271.6011 776,-271.6011"/>
<polygon fill="none" stroke="#000000" points="776,-271.6011 776,-290.6011 826,-290.6011 826,-271.6011 776,-271.6011"/>
<text text-anchor="start" x="779" y="-277.7011" font-family="Helvetica,sans-Serif" font-size="11.00" fill="#000000">&lt; 16</text>
<polygon fill="#ffffff" stroke="transparent" points="826,-271.6011 826,-290.6011 897,-290.6011 897,-271.6011 826,-271.6011"/>
<polygon fill="none" stroke="#000000" points="826,-271.6011 826,-290.6011 897,-290.6011 897,-271.6011 826,-271.6011"/>
<text text-anchor="start" x="840.2089" y="-277.7011" font-family="Helvetica,sans-Serif" font-size="11.00" fill="#000000">8,642 rows</text>
<polygon fill="#ffffff" stroke="transparent" points="897,-271.6011 897,-290.6011 930,-290.6011 930,-271.6011 897,-271.6011"/>
<polygon fill="none" stroke="#000000" points="897,-271.6011 897,-290.6011 930,-290.6011 930,-271.6011 897,-271.6011"/>
<text text-anchor="start" x="911.4053" y="-277.7011" font-family="Helvetica,sans-Serif" font-size="11.00" fill="#000000">1 &gt;</text>
</a>
</g>
</g>
<!-- ENFORCEMENT&#45;&gt;UPW_APPOINTMENT -->
<g id="edge16" class="edge">
<title>ENFORCEMENT:w&#45;&gt;UPW_APPOINTMENT:e</title>
<path fill="none" stroke="#000000" d="M965.8175,-252.4C951.3354,-265.273 955.9253,-299.6011 930,-299.6011"/>
<polygon fill="#000000" stroke="#000000" points="971.9508,-250.2489 980.6915,-250.9982 975.7254,-248.925 979.5,-247.6011 979.5,-247.6011 979.5,-247.6011 975.7254,-248.925 978.3085,-244.204 971.9508,-250.2489 971.9508,-250.2489"/>
<ellipse fill="none" stroke="#000000" cx="968.9312" cy="-251.308" rx="3.2" ry="3.2"/>
</g>
<!-- UPW_APPOINTMENT&#45;&gt;R_CONTACT_OUTCOME_TYPE -->
<g id="edge28" class="edge">
<title>UPW_APPOINTMENT:w&#45;&gt;R_CONTACT_OUTCOME_TYPE:e</title>
<path fill="none" stroke="#000000" d="M762.2517,-305.2409C727.2351,-340.4856 775.9753,-530.1203 735,-565.6011 681.6595,-611.789 488.0587,-568.6011 417.5,-568.6011"/>
<polygon fill="#000000" stroke="#000000" points="768.5985,-302.6374 777.3663,-302.9318 772.2993,-301.1193 776,-299.6011 776,-299.6011 776,-299.6011 772.2993,-301.1193 774.6337,-296.2705 768.5985,-302.6374 768.5985,-302.6374"/>
<ellipse fill="none" stroke="#000000" cx="765.638" cy="-303.8519" rx="3.2" ry="3.2"/>
</g>
<!-- UPW_APPOINTMENT&#45;&gt;CONTACT -->
<g id="edge27" class="edge">
<title>UPW_APPOINTMENT:w&#45;&gt;CONTACT:e</title>
<path fill="none" stroke="#000000" d="M761.5102,-298.5722C719.4762,-292.3112 709.0055,-259.6011 659.5,-259.6011"/>
<polygon fill="#000000" stroke="#000000" points="768.0201,-299.0344 775.745,-303.1921 772.01,-299.3178 776,-299.6011 776,-299.6011 776,-299.6011 772.01,-299.3178 776.255,-296.0102 768.0201,-299.0344 768.0201,-299.0344"/>
<ellipse fill="none" stroke="#000000" cx="764.8281" cy="-298.8077" rx="3.2" ry="3.2"/>
</g>
<!-- R_CON_OUT_TYPE_CONTACT_TYPE -->
<g id="node11" class="node">
<title>R_CON_OUT_TYPE_CONTACT_TYPE</title>
<g id="a_node11"><a xlink:href="../../tables/R_CON_OUT_TYPE_CONTACT_TYPE.html" xlink:title="R_CON_OUT_TYPE_CONTACT_TYPE" target="_top">
<polygon fill="#ffffff" stroke="transparent" points="477,-799.1011 477,-860.1011 716,-860.1011 716,-799.1011 477,-799.1011"/>
<polygon fill="#f5f5f5" stroke="transparent" points="477.5,-836.6011 477.5,-859.6011 716.5,-859.6011 716.5,-836.6011 477.5,-836.6011"/>
<polygon fill="none" stroke="#000000" points="477.5,-836.6011 477.5,-859.6011 716.5,-859.6011 716.5,-836.6011 477.5,-836.6011"/>
<text text-anchor="start" x="482.1089" y="-845.7011" font-family="Helvetica,sans-Serif" font-weight="bold" font-size="11.00" fill="#000000">R_CON_OUT_TYPE_CONTACT_TYPE</text>
<text text-anchor="start" x="682.0219" y="-844.7011" font-family="Helvetica,sans-Serif" font-size="11.00" fill="#000000">[table]</text>
<polygon fill="none" stroke="#000000" points="477.5,-817.6011 477.5,-836.6011 716.5,-836.6011 716.5,-817.6011 477.5,-817.6011"/>
<text text-anchor="start" x="480.5" y="-823.7011" font-family="Helvetica,sans-Serif" font-size="11.00" fill="#000000">...</text>
<polygon fill="#ffffff" stroke="transparent" points="477.5,-798.6011 477.5,-817.6011 582.5,-817.6011 582.5,-798.6011 477.5,-798.6011"/>
<polygon fill="none" stroke="#000000" points="477.5,-798.6011 477.5,-817.6011 582.5,-817.6011 582.5,-798.6011 477.5,-798.6011"/>
<text text-anchor="start" x="480.5" y="-804.7011" font-family="Helvetica,sans-Serif" font-size="11.00" fill="#000000">&lt; 2</text>
<polygon fill="#ffffff" stroke="transparent" points="582.5,-798.6011 582.5,-817.6011 662.5,-817.6011 662.5,-798.6011 582.5,-798.6011"/>
<polygon fill="none" stroke="#000000" points="582.5,-798.6011 582.5,-817.6011 662.5,-817.6011 662.5,-798.6011 582.5,-798.6011"/>
<text text-anchor="start" x="627.1105" y="-804.7011" font-family="Helvetica,sans-Serif" font-size="11.00" fill="#000000">0 rows</text>
<polygon fill="#ffffff" stroke="transparent" points="662.5,-798.6011 662.5,-817.6011 716.5,-817.6011 716.5,-798.6011 662.5,-798.6011"/>
<polygon fill="none" stroke="#000000" points="662.5,-798.6011 662.5,-817.6011 716.5,-817.6011 716.5,-798.6011 662.5,-798.6011"/>
<text text-anchor="start" x="707.3862" y="-804.7011" font-family="Helvetica,sans-Serif" font-size="11.00" fill="#000000"> &#160;</text>
</a>
</g>
</g>
<!-- R_CON_OUT_TYPE_CONTACT_TYPE&#45;&gt;R_CONTACT_OUTCOME_TYPE -->
<g id="edge17" class="edge">
<title>R_CON_OUT_TYPE_CONTACT_TYPE:w&#45;&gt;R_CONTACT_OUTCOME_TYPE:e</title>
<path fill="none" stroke="#000000" d="M464.2887,-820.7277C428.0683,-782.3243 471.0748,-568.6011 417.5,-568.6011"/>
<polygon fill="#000000" stroke="#000000" points="470.1899,-823.3512 476.0375,-829.8907 473.8449,-824.9762 477.5,-826.6011 477.5,-826.6011 477.5,-826.6011 473.8449,-824.9762 478.9625,-823.3116 470.1899,-823.3512 470.1899,-823.3512"/>
<ellipse fill="none" stroke="#000000" cx="467.2658" cy="-822.0512" rx="3.2" ry="3.2"/>
</g>
<!-- R_CON_OUT_TYPE_CONTACT_TYPE&#45;&gt;R_CONTACT_TYPE -->
<g id="edge18" class="edge">
<title>R_CON_OUT_TYPE_CONTACT_TYPE:w&#45;&gt;R_CONTACT_TYPE:e</title>
<path fill="none" stroke="#000000" d="M462.9947,-826.4831C333.1384,-824.3057 279.9125,-791.4942 194,-686.6011 149.7007,-632.5148 223.4125,-534.6011 153.5,-534.6011"/>
<polygon fill="#000000" stroke="#000000" points="469.5003,-826.536 477.4707,-830.201 473.5001,-826.5686 477.5,-826.6011 477.5,-826.6011 477.5,-826.6011 473.5001,-826.5686 477.5293,-823.0012 469.5003,-826.536 469.5003,-826.536"/>
<ellipse fill="none" stroke="#000000" cx="466.3004" cy="-826.5099" rx="3.2" ry="3.2"/>
</g>
<!-- R_CONTACT_OUTCOME_UPW_REASON -->
<g id="node12" class="node">
<title>R_CONTACT_OUTCOME_UPW_REASON</title>
<g id="a_node12"><a xlink:href="../../tables/R_CONTACT_OUTCOME_UPW_REASON.html" xlink:title="R_CONTACT_OUTCOME_UPW_REASON" target="_top">
<polygon fill="#ffffff" stroke="transparent" points="468.5,-607.1011 468.5,-668.1011 724.5,-668.1011 724.5,-607.1011 468.5,-607.1011"/>
<polygon fill="#f5f5f5" stroke="transparent" points="468.5,-644.6011 468.5,-667.6011 724.5,-667.6011 724.5,-644.6011 468.5,-644.6011"/>
<polygon fill="none" stroke="#000000" points="468.5,-644.6011 468.5,-667.6011 724.5,-667.6011 724.5,-644.6011 468.5,-644.6011"/>
<text text-anchor="start" x="473.0624" y="-653.7011" font-family="Helvetica,sans-Serif" font-weight="bold" font-size="11.00" fill="#000000">R_CONTACT_OUTCOME_UPW_REASON</text>
<text text-anchor="start" x="690.0219" y="-652.7011" font-family="Helvetica,sans-Serif" font-size="11.00" fill="#000000">[table]</text>
<polygon fill="none" stroke="#000000" points="468.5,-625.6011 468.5,-644.6011 724.5,-644.6011 724.5,-625.6011 468.5,-625.6011"/>
<text text-anchor="start" x="471.5" y="-631.7011" font-family="Helvetica,sans-Serif" font-size="11.00" fill="#000000">...</text>
<polygon fill="#ffffff" stroke="transparent" points="468.5,-606.6011 468.5,-625.6011 581.5,-625.6011 581.5,-606.6011 468.5,-606.6011"/>
<polygon fill="none" stroke="#000000" points="468.5,-606.6011 468.5,-625.6011 581.5,-625.6011 581.5,-606.6011 468.5,-606.6011"/>
<text text-anchor="start" x="471.5" y="-612.7011" font-family="Helvetica,sans-Serif" font-size="11.00" fill="#000000">&lt; 2</text>
<polygon fill="#ffffff" stroke="transparent" points="581.5,-606.6011 581.5,-625.6011 665.5,-625.6011 665.5,-606.6011 581.5,-606.6011"/>
<polygon fill="none" stroke="#000000" points="581.5,-606.6011 581.5,-625.6011 665.5,-625.6011 665.5,-606.6011 581.5,-606.6011"/>
<text text-anchor="start" x="630.1105" y="-612.7011" font-family="Helvetica,sans-Serif" font-size="11.00" fill="#000000">5 rows</text>
<polygon fill="#ffffff" stroke="transparent" points="665.5,-606.6011 665.5,-625.6011 724.5,-625.6011 724.5,-606.6011 665.5,-606.6011"/>
<polygon fill="none" stroke="#000000" points="665.5,-606.6011 665.5,-625.6011 724.5,-625.6011 724.5,-606.6011 665.5,-606.6011"/>
<text text-anchor="start" x="715.3862" y="-612.7011" font-family="Helvetica,sans-Serif" font-size="11.00" fill="#000000"> &#160;</text>
</a>
</g>
</g>
<!-- R_CONTACT_OUTCOME_UPW_REASON&#45;&gt;R_CONTACT_OUTCOME_TYPE -->
<g id="edge19" class="edge">
<title>R_CONTACT_OUTCOME_UPW_REASON:w&#45;&gt;R_CONTACT_OUTCOME_TYPE:e</title>
<path fill="none" stroke="#000000" d="M454.5846,-629.8546C437.402,-614.7214 448.4886,-568.6011 417.5,-568.6011"/>
<polygon fill="#000000" stroke="#000000" points="460.9284,-632.0184 467.3378,-638.0084 464.7142,-633.3098 468.5,-634.6011 468.5,-634.6011 468.5,-634.6011 464.7142,-633.3098 469.6622,-631.1939 460.9284,-632.0184 460.9284,-632.0184"/>
<ellipse fill="none" stroke="#000000" cx="457.8997" cy="-630.9853" rx="3.2" ry="3.2"/>
</g>
<!-- R_CONTACT_TYPE_OUTCOME -->
<g id="node13" class="node">
<title>R_CONTACT_TYPE_OUTCOME</title>
<g id="a_node13"><a xlink:href="../../tables/R_CONTACT_TYPE_OUTCOME.html" xlink:title="R_CONTACT_TYPE_OUTCOME" target="_top">
<polygon fill="#ffffff" stroke="transparent" points="493,-717.1011 493,-778.1011 700,-778.1011 700,-717.1011 493,-717.1011"/>
<polygon fill="#f5f5f5" stroke="transparent" points="493.5,-754.6011 493.5,-777.6011 700.5,-777.6011 700.5,-754.6011 493.5,-754.6011"/>
<polygon fill="none" stroke="#000000" points="493.5,-754.6011 493.5,-777.6011 700.5,-777.6011 700.5,-754.6011 493.5,-754.6011"/>
<text text-anchor="start" x="498.3091" y="-763.7011" font-family="Helvetica,sans-Serif" font-weight="bold" font-size="11.00" fill="#000000">R_CONTACT_TYPE_OUTCOME</text>
<text text-anchor="start" x="666.0219" y="-762.7011" font-family="Helvetica,sans-Serif" font-size="11.00" fill="#000000">[table]</text>
<polygon fill="none" stroke="#000000" points="493.5,-735.6011 493.5,-754.6011 700.5,-754.6011 700.5,-735.6011 493.5,-735.6011"/>
<text text-anchor="start" x="496.5" y="-741.7011" font-family="Helvetica,sans-Serif" font-size="11.00" fill="#000000">...</text>
<polygon fill="#ffffff" stroke="transparent" points="493.5,-716.6011 493.5,-735.6011 571.5,-735.6011 571.5,-716.6011 493.5,-716.6011"/>
<polygon fill="none" stroke="#000000" points="493.5,-716.6011 493.5,-735.6011 571.5,-735.6011 571.5,-716.6011 493.5,-716.6011"/>
<text text-anchor="start" x="496.5" y="-722.7011" font-family="Helvetica,sans-Serif" font-size="11.00" fill="#000000">&lt; 2</text>
<polygon fill="#ffffff" stroke="transparent" points="571.5,-716.6011 571.5,-735.6011 659.5,-735.6011 659.5,-716.6011 571.5,-716.6011"/>
<polygon fill="none" stroke="#000000" points="571.5,-716.6011 571.5,-735.6011 659.5,-735.6011 659.5,-716.6011 571.5,-716.6011"/>
<text text-anchor="start" x="602.7089" y="-722.7011" font-family="Helvetica,sans-Serif" font-size="11.00" fill="#000000">2,242 rows</text>
<polygon fill="#ffffff" stroke="transparent" points="659.5,-716.6011 659.5,-735.6011 700.5,-735.6011 700.5,-716.6011 659.5,-716.6011"/>
<polygon fill="none" stroke="#000000" points="659.5,-716.6011 659.5,-735.6011 700.5,-735.6011 700.5,-716.6011 659.5,-716.6011"/>
<text text-anchor="start" x="691.3862" y="-722.7011" font-family="Helvetica,sans-Serif" font-size="11.00" fill="#000000"> &#160;</text>
</a>
</g>
</g>
<!-- R_CONTACT_TYPE_OUTCOME&#45;&gt;R_CONTACT_OUTCOME_TYPE -->
<g id="edge20" class="edge">
<title>R_CONTACT_TYPE_OUTCOME:w&#45;&gt;R_CONTACT_OUTCOME_TYPE:e</title>
<path fill="none" stroke="#000000" d="M479.1673,-742.502C419.7199,-722.6448 497.212,-568.6011 417.5,-568.6011"/>
<polygon fill="#000000" stroke="#000000" points="485.5844,-743.4418 492.9783,-748.1631 489.5422,-744.0214 493.5,-744.6011 493.5,-744.6011 493.5,-744.6011 489.5422,-744.0214 494.0217,-741.0391 485.5844,-743.4418 485.5844,-743.4418"/>
<ellipse fill="none" stroke="#000000" cx="482.4182" cy="-742.978" rx="3.2" ry="3.2"/>
</g>
<!-- R_CONTACT_TYPE_OUTCOME&#45;&gt;R_CONTACT_TYPE -->
<g id="edge21" class="edge">
<title>R_CONTACT_TYPE_OUTCOME:w&#45;&gt;R_CONTACT_TYPE:e</title>
<path fill="none" stroke="#000000" d="M478.9359,-744.4894C344.8388,-742.3705 296.2211,-709.731 194,-613.6011 165.257,-586.5709 192.9562,-534.6011 153.5,-534.6011"/>
<polygon fill="#000000" stroke="#000000" points="485.5002,-744.5397 493.4724,-748.201 489.5001,-744.5704 493.5,-744.6011 493.5,-744.6011 493.5,-744.6011 489.5001,-744.5704 493.5276,-741.0012 485.5002,-744.5397 485.5002,-744.5397"/>
<ellipse fill="none" stroke="#000000" cx="482.3003" cy="-744.5151" rx="3.2" ry="3.2"/>
</g>
<!-- R_ENF_ACT_CONTACT_OUT_TYPE -->
<g id="node14" class="node">
<title>R_ENF_ACT_CONTACT_OUT_TYPE</title>
<g id="a_node14"><a xlink:href="../../tables/R_ENF_ACT_CONTACT_OUT_TYPE.html" xlink:title="R_ENF_ACT_CONTACT_OUT_TYPE" target="_top">
<polygon fill="#ffffff" stroke="transparent" points="466,-314.6011 466,-448.6011 727,-448.6011 727,-314.6011 466,-314.6011"/>
<polygon fill="#f5f5f5" stroke="transparent" points="468.5,-423.6011 468.5,-446.6011 725.5,-446.6011 725.5,-423.6011 468.5,-423.6011"/>
<polygon fill="none" stroke="#000000" points="468.5,-423.6011 468.5,-446.6011 725.5,-446.6011 725.5,-423.6011 468.5,-423.6011"/>
<text text-anchor="start" x="473.5" y="-432.7011" font-family="Helvetica,sans-Serif" font-weight="bold" font-size="11.00" fill="#000000">R_ENF_ACT_CONTACT_OUT_TYPE</text>
<text text-anchor="start" x="690.5437" y="-431.7011" font-family="Helvetica,sans-Serif" font-size="11.00" fill="#000000">[table]</text>
<polygon fill="none" stroke="#000000" points="468.5,-401.6011 468.5,-423.6011 664.5,-423.6011 664.5,-401.6011 468.5,-401.6011"/>
<image xlink:href="../../images/primaryKeys.png" width="11px" height="12px" preserveAspectRatio="xMinYMin meet" x="473.5" y="-418.601"/>
<text text-anchor="start" x="488.5" y="-408.7011" font-family="Helvetica,sans-Serif" font-size="11.00" fill="#000000">ENFORCEMENT_ACTION_ID</text>
<polygon fill="none" stroke="#000000" points="664.5,-401.6011 664.5,-423.6011 725.5,-423.6011 725.5,-401.6011 664.5,-401.6011"/>
<text text-anchor="start" x="667.1865" y="-409.3011" font-family="Helvetica,sans-Serif" font-size="11.00" fill="#000000">number[38]</text>
<polygon fill="none" stroke="#000000" points="468.5,-379.6011 468.5,-401.6011 664.5,-401.6011 664.5,-379.6011 468.5,-379.6011"/>
<image xlink:href="../../images/primaryKeys.png" width="11px" height="12px" preserveAspectRatio="xMinYMin meet" x="473.5" y="-396.601"/>
<text text-anchor="start" x="488.5" y="-386.7011" font-family="Helvetica,sans-Serif" font-size="11.00" fill="#000000">CONTACT_OUTCOME_TYPE_ID</text>
<polygon fill="none" stroke="#000000" points="664.5,-379.6011 664.5,-401.6011 725.5,-401.6011 725.5,-379.6011 664.5,-379.6011"/>
<text text-anchor="start" x="667.1865" y="-387.3011" font-family="Helvetica,sans-Serif" font-size="11.00" fill="#000000">number[38]</text>
<polygon fill="none" stroke="#000000" points="468.5,-357.6011 468.5,-379.6011 664.5,-379.6011 664.5,-357.6011 468.5,-357.6011"/>
<text text-anchor="start" x="488.5" y="-364.7011" font-family="Helvetica,sans-Serif" font-size="11.00" fill="#000000">ROW_VERSION</text>
<polygon fill="none" stroke="#000000" points="664.5,-357.6011 664.5,-379.6011 725.5,-379.6011 725.5,-357.6011 664.5,-357.6011"/>
<text text-anchor="start" x="667.1865" y="-365.3011" font-family="Helvetica,sans-Serif" font-size="11.00" fill="#000000">number[38]</text>
<polygon fill="none" stroke="#000000" points="468.5,-335.6011 468.5,-357.6011 664.5,-357.6011 664.5,-335.6011 468.5,-335.6011"/>
<image xlink:href="../../images/primaryKeys.png" width="11px" height="12px" preserveAspectRatio="xMinYMin meet" x="473.5" y="-352.601"/>
<text text-anchor="start" x="488.5" y="-342.7011" font-family="Helvetica,sans-Serif" font-size="11.00" fill="#000000">TRAINING_SESSION_ID</text>
<polygon fill="none" stroke="#000000" points="664.5,-335.6011 664.5,-357.6011 725.5,-357.6011 725.5,-335.6011 664.5,-335.6011"/>
<text text-anchor="start" x="667.1865" y="-343.3011" font-family="Helvetica,sans-Serif" font-size="11.00" fill="#000000">number[38]</text>
<polygon fill="#ffffff" stroke="transparent" points="468.5,-316.6011 468.5,-335.6011 551.5,-335.6011 551.5,-316.6011 468.5,-316.6011"/>
<polygon fill="none" stroke="#000000" points="468.5,-316.6011 468.5,-335.6011 551.5,-335.6011 551.5,-316.6011 468.5,-316.6011"/>
<text text-anchor="start" x="471.5" y="-322.7011" font-family="Helvetica,sans-Serif" font-size="11.00" fill="#000000">&lt; 2</text>
<polygon fill="#ffffff" stroke="transparent" points="551.5,-316.6011 551.5,-335.6011 664.5,-335.6011 664.5,-316.6011 551.5,-316.6011"/>
<polygon fill="none" stroke="#000000" points="551.5,-316.6011 551.5,-335.6011 664.5,-335.6011 664.5,-316.6011 551.5,-316.6011"/>
<text text-anchor="start" x="616.8807" y="-322.7011" font-family="Helvetica,sans-Serif" font-size="11.00" fill="#000000">277 rows</text>
<polygon fill="#ffffff" stroke="transparent" points="664.5,-316.6011 664.5,-335.6011 725.5,-335.6011 725.5,-316.6011 664.5,-316.6011"/>
<polygon fill="none" stroke="#000000" points="664.5,-316.6011 664.5,-335.6011 725.5,-335.6011 725.5,-316.6011 664.5,-316.6011"/>
<text text-anchor="start" x="706.9053" y="-322.7011" font-family="Helvetica,sans-Serif" font-size="11.00" fill="#000000">0 &gt;</text>
<polygon fill="none" stroke="#000000" stroke-width="2" points="467,-315.6011 467,-447.6011 726,-447.6011 726,-315.6011 467,-315.6011"/>
</a>
</g>
</g>
<!-- R_ENF_ACT_CONTACT_OUT_TYPE&#45;&gt;R_ENFORCEMENT_ACTION -->
<g id="edge23" class="edge">
<title>R_ENF_ACT_CONTACT_OUT_TYPE:w&#45;&gt;R_ENFORCEMENT_ACTION:e</title>
<path fill="none" stroke="#000000" d="M454.1427,-409.9455C407.9375,-389.6287 475.8355,-259.6011 408.5,-259.6011"/>
<polygon fill="#000000" stroke="#000000" points="460.6334,-411.146 467.8452,-416.1411 464.5667,-411.8736 468.5,-412.6011 468.5,-412.6011 468.5,-412.6011 464.5667,-411.8736 469.1548,-409.0612 460.6334,-411.146 460.6334,-411.146"/>
<ellipse fill="none" stroke="#000000" cx="457.4868" cy="-410.564" rx="3.2" ry="3.2"/>
</g>
<!-- R_ENF_ACT_CONTACT_OUT_TYPE&#45;&gt;R_CONTACT_OUTCOME_TYPE -->
<g id="edge22" class="edge">
<title>R_ENF_ACT_CONTACT_OUT_TYPE:w&#45;&gt;R_CONTACT_OUTCOME_TYPE:e</title>
<path fill="none" stroke="#000000" d="M454.2442,-392.9828C400.8201,-414.1053 494.1687,-568.6011 417.5,-568.6011"/>
<polygon fill="#000000" stroke="#000000" points="460.6094,-391.9194 469.0932,-394.1519 464.5547,-391.2603 468.5,-390.6011 468.5,-390.6011 468.5,-390.6011 464.5547,-391.2603 467.9068,-387.0503 460.6094,-391.9194 460.6094,-391.9194"/>
<ellipse fill="none" stroke="#000000" cx="457.4531" cy="-392.4468" rx="3.2" ry="3.2"/>
</g>
</g>
</svg>
