<?xml version="1.0" encoding="UTF-8" standalone="no"?>
<!DOCTYPE svg PUBLIC "-//W3C//DTD SVG 1.1//EN"
 "http://www.w3.org/Graphics/SVG/1.1/DTD/svg11.dtd">
<!-- Generated by graphviz version 2.40.1 (20161225.0304)
 -->
<!-- Title: oneDegreeRelationshipsDiagram Pages: 1 -->
<svg width="523pt" height="1101pt"
 viewBox="0.00 0.00 523.00 1101.20" xmlns="http://www.w3.org/2000/svg" xmlns:xlink="http://www.w3.org/1999/xlink">
<g id="graph0" class="graph" transform="scale(1 1) rotate(0) translate(4 1097.2)">
<title>oneDegreeRelationshipsDiagram</title>
<polygon fill="#ffffff" stroke="transparent" points="-4,4 -4,-1097.2 519,-1097.2 519,4 -4,4"/>
<text text-anchor="middle" x="72.4936" y="-7.3" font-family="Helvetica,sans-Serif" font-size="11.00" fill="#000000">Generated by SchemaSpy</text>
<!-- CONTACT -->
<g id="node1" class="node">
<title>CONTACT</title>
<g id="a_node1"><a xlink:href="../../tables/CONTACT.html" xlink:title="CONTACT" target="_top">
<polygon fill="#ffffff" stroke="transparent" points="295,-38.2 295,-1089.2 507,-1089.2 507,-38.2 295,-38.2"/>
<polygon fill="#f5f5f5" stroke="transparent" points="295,-1065.7 295,-1088.7 507,-1088.7 507,-1065.7 295,-1065.7"/>
<polygon fill="none" stroke="#000000" points="295,-1065.7 295,-1088.7 507,-1088.7 507,-1065.7 295,-1065.7"/>
<text text-anchor="start" x="300" y="-1074.8" font-family="Helvetica,sans-Serif" font-weight="bold" font-size="11.00" fill="#000000">CONTACT</text>
<text text-anchor="start" x="472.0437" y="-1073.8" font-family="Helvetica,sans-Serif" font-size="11.00" fill="#000000">[table]</text>
<polygon fill="none" stroke="#000000" points="295,-1043.7 295,-1065.7 507,-1065.7 507,-1043.7 295,-1043.7"/>
<image xlink:href="../../images/primaryKeys.png" width="11px" height="12px" preserveAspectRatio="xMinYMin meet" x="300" y="-1060.7"/>
<text text-anchor="start" x="315" y="-1050.8" font-family="Helvetica,sans-Serif" font-size="11.00" fill="#000000">CONTACT_ID</text>
<polygon fill="none" stroke="#000000" points="295,-1021.7 295,-1043.7 507,-1043.7 507,-1021.7 295,-1021.7"/>
<image xlink:href="../../images/primaryKeys.png" width="11px" height="12px" preserveAspectRatio="xMinYMin meet" x="300" y="-1038.7"/>
<text text-anchor="start" x="315" y="-1028.8" font-family="Helvetica,sans-Serif" font-size="11.00" fill="#000000">LINKED_CONTACT_ID</text>
<polygon fill="none" stroke="#000000" points="295,-999.7 295,-1021.7 507,-1021.7 507,-999.7 295,-999.7"/>
<image xlink:href="../../images/primaryKeys.png" width="11px" height="12px" preserveAspectRatio="xMinYMin meet" x="300" y="-1016.7"/>
<text text-anchor="start" x="315" y="-1006.8" font-family="Helvetica,sans-Serif" font-size="11.00" fill="#000000">CONTACT_DATE</text>
<polygon fill="none" stroke="#000000" points="295,-977.7 295,-999.7 507,-999.7 507,-977.7 295,-977.7"/>
<image xlink:href="../../images/primaryKeys.png" width="11px" height="12px" preserveAspectRatio="xMinYMin meet" x="300" y="-994.7"/>
<text text-anchor="start" x="315" y="-984.8" font-family="Helvetica,sans-Serif" font-size="11.00" fill="#000000">OFFENDER_ID</text>
<polygon fill="none" stroke="#000000" points="295,-955.7 295,-977.7 507,-977.7 507,-955.7 295,-955.7"/>
<image xlink:href="../../images/primaryKeys.png" width="11px" height="12px" preserveAspectRatio="xMinYMin meet" x="300" y="-972.7"/>
<text text-anchor="start" x="315" y="-962.8" font-family="Helvetica,sans-Serif" font-size="11.00" fill="#000000">CONTACT_START_TIME</text>
<polygon fill="none" stroke="#000000" points="295,-933.7 295,-955.7 507,-955.7 507,-933.7 295,-933.7"/>
<image xlink:href="../../images/primaryKeys.png" width="11px" height="12px" preserveAspectRatio="xMinYMin meet" x="300" y="-950.7"/>
<text text-anchor="start" x="315" y="-940.8" font-family="Helvetica,sans-Serif" font-size="11.00" fill="#000000">CONTACT_END_TIME</text>
<polygon fill="none" stroke="#000000" points="295,-911.7 295,-933.7 507,-933.7 507,-911.7 295,-911.7"/>
<image xlink:href="../../images/primaryKeys.png" width="11px" height="12px" preserveAspectRatio="xMinYMin meet" x="300" y="-928.7"/>
<text text-anchor="start" x="315" y="-918.8" font-family="Helvetica,sans-Serif" font-size="11.00" fill="#000000">RQMNT_ID</text>
<polygon fill="none" stroke="#000000" points="295,-889.7 295,-911.7 507,-911.7 507,-889.7 295,-889.7"/>
<image xlink:href="../../images/primaryKeys.png" width="11px" height="12px" preserveAspectRatio="xMinYMin meet" x="300" y="-906.7"/>
<text text-anchor="start" x="315" y="-896.8" font-family="Helvetica,sans-Serif" font-size="11.00" fill="#000000">LIC_CONDITION_ID</text>
<polygon fill="none" stroke="#000000" points="295,-867.7 295,-889.7 507,-889.7 507,-867.7 295,-867.7"/>
<image xlink:href="../../images/primaryKeys.png" width="11px" height="12px" preserveAspectRatio="xMinYMin meet" x="300" y="-884.7"/>
<text text-anchor="start" x="315" y="-874.8" font-family="Helvetica,sans-Serif" font-size="11.00" fill="#000000">PROVIDER_LOCATION_ID</text>
<polygon fill="none" stroke="#000000" points="295,-845.7 295,-867.7 507,-867.7 507,-845.7 295,-845.7"/>
<image xlink:href="../../images/primaryKeys.png" width="11px" height="12px" preserveAspectRatio="xMinYMin meet" x="300" y="-862.7"/>
<text text-anchor="start" x="315" y="-852.8" font-family="Helvetica,sans-Serif" font-size="11.00" fill="#000000">PROVIDER_EMPLOYEE_ID</text>
<polygon fill="none" stroke="#000000" points="295,-823.7 295,-845.7 507,-845.7 507,-823.7 295,-823.7"/>
<image xlink:href="../../images/primaryKeys.png" width="11px" height="12px" preserveAspectRatio="xMinYMin meet" x="300" y="-840.7"/>
<text text-anchor="start" x="315" y="-830.8" font-family="Helvetica,sans-Serif" font-size="11.00" fill="#000000">VISOR_CONTACT</text>
<polygon fill="none" stroke="#000000" points="295,-801.7 295,-823.7 507,-823.7 507,-801.7 295,-801.7"/>
<image xlink:href="../../images/primaryKeys.png" width="11px" height="12px" preserveAspectRatio="xMinYMin meet" x="300" y="-818.7"/>
<text text-anchor="start" x="315" y="-808.8" font-family="Helvetica,sans-Serif" font-size="11.00" fill="#000000">STAFF_ID</text>
<polygon fill="none" stroke="#000000" points="295,-779.7 295,-801.7 507,-801.7 507,-779.7 295,-779.7"/>
<image xlink:href="../../images/primaryKeys.png" width="11px" height="12px" preserveAspectRatio="xMinYMin meet" x="300" y="-796.7"/>
<text text-anchor="start" x="315" y="-786.8" font-family="Helvetica,sans-Serif" font-size="11.00" fill="#000000">TEAM_ID</text>
<polygon fill="none" stroke="#000000" points="295,-757.7 295,-779.7 507,-779.7 507,-757.7 295,-757.7"/>
<image xlink:href="../../images/primaryKeys.png" width="11px" height="12px" preserveAspectRatio="xMinYMin meet" x="300" y="-774.7"/>
<text text-anchor="start" x="315" y="-764.8" font-family="Helvetica,sans-Serif" font-size="11.00" fill="#000000">SOFT_DELETED</text>
<polygon fill="none" stroke="#000000" points="295,-735.7 295,-757.7 507,-757.7 507,-735.7 295,-735.7"/>
<image xlink:href="../../images/primaryKeys.png" width="11px" height="12px" preserveAspectRatio="xMinYMin meet" x="300" y="-752.7"/>
<text text-anchor="start" x="315" y="-742.8" font-family="Helvetica,sans-Serif" font-size="11.00" fill="#000000">VISOR_EXPORTED</text>
<polygon fill="none" stroke="#000000" points="295,-713.7 295,-735.7 507,-735.7 507,-713.7 295,-713.7"/>
<image xlink:href="../../images/primaryKeys.png" width="11px" height="12px" preserveAspectRatio="xMinYMin meet" x="300" y="-730.7"/>
<text text-anchor="start" x="315" y="-720.8" font-family="Helvetica,sans-Serif" font-size="11.00" fill="#000000">PARTITION_AREA_ID</text>
<polygon fill="none" stroke="#000000" points="295,-691.7 295,-713.7 507,-713.7 507,-691.7 295,-691.7"/>
<image xlink:href="../../images/primaryKeys.png" width="11px" height="12px" preserveAspectRatio="xMinYMin meet" x="300" y="-708.7"/>
<text text-anchor="start" x="315" y="-698.8" font-family="Helvetica,sans-Serif" font-size="11.00" fill="#000000">OFFICE_LOCATION_ID</text>
<polygon fill="none" stroke="#000000" points="295,-669.7 295,-691.7 507,-691.7 507,-669.7 295,-669.7"/>
<image xlink:href="../../images/primaryKeys.png" width="11px" height="12px" preserveAspectRatio="xMinYMin meet" x="300" y="-686.7"/>
<text text-anchor="start" x="315" y="-676.8" font-family="Helvetica,sans-Serif" font-size="11.00" fill="#000000">ROW_VERSION</text>
<polygon fill="none" stroke="#000000" points="295,-647.7 295,-669.7 507,-669.7 507,-647.7 295,-647.7"/>
<image xlink:href="../../images/primaryKeys.png" width="11px" height="12px" preserveAspectRatio="xMinYMin meet" x="300" y="-664.7"/>
<text text-anchor="start" x="315" y="-654.8" font-family="Helvetica,sans-Serif" font-size="11.00" fill="#000000">ALERT_ACTIVE</text>
<polygon fill="none" stroke="#000000" points="295,-625.7 295,-647.7 507,-647.7 507,-625.7 295,-625.7"/>
<image xlink:href="../../images/primaryKeys.png" width="11px" height="12px" preserveAspectRatio="xMinYMin meet" x="300" y="-642.7"/>
<text text-anchor="start" x="315" y="-632.8" font-family="Helvetica,sans-Serif" font-size="11.00" fill="#000000">ATTENDED</text>
<polygon fill="none" stroke="#000000" points="295,-603.7 295,-625.7 507,-625.7 507,-603.7 295,-603.7"/>
<image xlink:href="../../images/primaryKeys.png" width="11px" height="12px" preserveAspectRatio="xMinYMin meet" x="300" y="-620.7"/>
<text text-anchor="start" x="315" y="-610.8" font-family="Helvetica,sans-Serif" font-size="11.00" fill="#000000">CREATED_DATETIME</text>
<polygon fill="none" stroke="#000000" points="295,-581.7 295,-603.7 507,-603.7 507,-581.7 295,-581.7"/>
<image xlink:href="../../images/primaryKeys.png" width="11px" height="12px" preserveAspectRatio="xMinYMin meet" x="300" y="-598.7"/>
<text text-anchor="start" x="315" y="-588.8" font-family="Helvetica,sans-Serif" font-size="11.00" fill="#000000">COMPLIED</text>
<polygon fill="none" stroke="#000000" points="295,-559.7 295,-581.7 507,-581.7 507,-559.7 295,-559.7"/>
<image xlink:href="../../images/primaryKeys.png" width="11px" height="12px" preserveAspectRatio="xMinYMin meet" x="300" y="-576.7"/>
<text text-anchor="start" x="315" y="-566.8" font-family="Helvetica,sans-Serif" font-size="11.00" fill="#000000">SENSITIVE</text>
<polygon fill="none" stroke="#000000" points="295,-537.7 295,-559.7 507,-559.7 507,-537.7 295,-537.7"/>
<image xlink:href="../../images/primaryKeys.png" width="11px" height="12px" preserveAspectRatio="xMinYMin meet" x="300" y="-554.7"/>
<text text-anchor="start" x="315" y="-544.8" font-family="Helvetica,sans-Serif" font-size="11.00" fill="#000000">EVENT_ID</text>
<polygon fill="none" stroke="#000000" points="295,-515.7 295,-537.7 507,-537.7 507,-515.7 295,-515.7"/>
<image xlink:href="../../images/primaryKeys.png" width="11px" height="12px" preserveAspectRatio="xMinYMin meet" x="300" y="-532.7"/>
<text text-anchor="start" x="315" y="-522.8" font-family="Helvetica,sans-Serif" font-size="11.00" fill="#000000">CONTACT_TYPE_ID</text>
<polygon fill="none" stroke="#000000" points="295,-493.7 295,-515.7 507,-515.7 507,-493.7 295,-493.7"/>
<image xlink:href="../../images/primaryKeys.png" width="11px" height="12px" preserveAspectRatio="xMinYMin meet" x="300" y="-510.7"/>
<text text-anchor="start" x="315" y="-500.8" font-family="Helvetica,sans-Serif" font-size="11.00" fill="#000000">PROVIDER_TEAM_ID</text>
<polygon fill="none" stroke="#000000" points="295,-471.7 295,-493.7 507,-493.7 507,-471.7 295,-471.7"/>
<image xlink:href="../../images/primaryKeys.png" width="11px" height="12px" preserveAspectRatio="xMinYMin meet" x="300" y="-488.7"/>
<text text-anchor="start" x="315" y="-478.8" font-family="Helvetica,sans-Serif" font-size="11.00" fill="#000000">CONTACT_OUTCOME_TYPE_ID</text>
<polygon fill="none" stroke="#000000" points="295,-449.7 295,-471.7 507,-471.7 507,-449.7 295,-449.7"/>
<image xlink:href="../../images/primaryKeys.png" width="11px" height="12px" preserveAspectRatio="xMinYMin meet" x="300" y="-466.7"/>
<text text-anchor="start" x="315" y="-456.8" font-family="Helvetica,sans-Serif" font-size="11.00" fill="#000000">EXPLANATION_ID</text>
<polygon fill="none" stroke="#000000" points="295,-427.7 295,-449.7 507,-449.7 507,-427.7 295,-427.7"/>
<image xlink:href="../../images/primaryKeys.png" width="11px" height="12px" preserveAspectRatio="xMinYMin meet" x="300" y="-444.7"/>
<text text-anchor="start" x="315" y="-434.8" font-family="Helvetica,sans-Serif" font-size="11.00" fill="#000000">TRAINING_SESSION_ID</text>
<polygon fill="none" stroke="#000000" points="295,-405.7 295,-427.7 507,-427.7 507,-405.7 295,-405.7"/>
<image xlink:href="../../images/primaryKeys.png" width="11px" height="12px" preserveAspectRatio="xMinYMin meet" x="300" y="-422.7"/>
<text text-anchor="start" x="315" y="-412.8" font-family="Helvetica,sans-Serif" font-size="11.00" fill="#000000">TRUST_PROVIDER_FLAG</text>
<polygon fill="none" stroke="#000000" points="295,-383.7 295,-405.7 507,-405.7 507,-383.7 295,-383.7"/>
<image xlink:href="../../images/primaryKeys.png" width="11px" height="12px" preserveAspectRatio="xMinYMin meet" x="300" y="-400.7"/>
<text text-anchor="start" x="315" y="-390.8" font-family="Helvetica,sans-Serif" font-size="11.00" fill="#000000">STAFF_EMPLOYEE_ID</text>
<polygon fill="none" stroke="#000000" points="295,-361.7 295,-383.7 507,-383.7 507,-361.7 295,-361.7"/>
<image xlink:href="../../images/primaryKeys.png" width="11px" height="12px" preserveAspectRatio="xMinYMin meet" x="300" y="-378.7"/>
<text text-anchor="start" x="315" y="-368.8" font-family="Helvetica,sans-Serif" font-size="11.00" fill="#000000">PROBATION_AREA_ID</text>
<polygon fill="none" stroke="#000000" points="295,-339.7 295,-361.7 507,-361.7 507,-339.7 295,-339.7"/>
<image xlink:href="../../images/primaryKeys.png" width="11px" height="12px" preserveAspectRatio="xMinYMin meet" x="300" y="-356.7"/>
<text text-anchor="start" x="315" y="-346.8" font-family="Helvetica,sans-Serif" font-size="11.00" fill="#000000">TRUST_PROVIDER_TEAM_ID</text>
<polygon fill="none" stroke="#000000" points="295,-317.7 295,-339.7 507,-339.7 507,-317.7 295,-317.7"/>
<image xlink:href="../../images/primaryKeys.png" width="11px" height="12px" preserveAspectRatio="xMinYMin meet" x="300" y="-334.7"/>
<text text-anchor="start" x="315" y="-324.8" font-family="Helvetica,sans-Serif" font-size="11.00" fill="#000000">ENFORCEMENT</text>
<polygon fill="none" stroke="#000000" points="295,-295.7 295,-317.7 507,-317.7 507,-295.7 295,-295.7"/>
<image xlink:href="../../images/primaryKeys.png" width="11px" height="12px" preserveAspectRatio="xMinYMin meet" x="300" y="-312.7"/>
<text text-anchor="start" x="315" y="-302.8" font-family="Helvetica,sans-Serif" font-size="11.00" fill="#000000">DOCUMENT_LINKED</text>
<polygon fill="none" stroke="#000000" points="295,-273.7 295,-295.7 507,-295.7 507,-273.7 295,-273.7"/>
<image xlink:href="../../images/primaryKeys.png" width="11px" height="12px" preserveAspectRatio="xMinYMin meet" x="300" y="-290.7"/>
<text text-anchor="start" x="309.8069" y="-280.8" font-family="Helvetica,sans-Serif" font-size="11.00" fill="#000000">LATEST_ENFORCEMENT_ACTION_ID</text>
<polygon fill="none" stroke="#000000" points="295,-251.7 295,-273.7 507,-273.7 507,-251.7 295,-251.7"/>
<image xlink:href="../../images/primaryKeys.png" width="11px" height="12px" preserveAspectRatio="xMinYMin meet" x="300" y="-268.7"/>
<text text-anchor="start" x="315" y="-258.8" font-family="Helvetica,sans-Serif" font-size="11.00" fill="#000000">NSI_ID</text>
<polygon fill="none" stroke="#000000" points="295,-229.7 295,-251.7 507,-251.7 507,-229.7 295,-229.7"/>
<image xlink:href="../../images/primaryKeys.png" width="11px" height="12px" preserveAspectRatio="xMinYMin meet" x="300" y="-246.7"/>
<text text-anchor="start" x="315" y="-236.8" font-family="Helvetica,sans-Serif" font-size="11.00" fill="#000000">TABLE_NAME</text>
<polygon fill="none" stroke="#000000" points="295,-207.7 295,-229.7 507,-229.7 507,-207.7 295,-207.7"/>
<image xlink:href="../../images/primaryKeys.png" width="11px" height="12px" preserveAspectRatio="xMinYMin meet" x="300" y="-224.7"/>
<text text-anchor="start" x="315" y="-214.8" font-family="Helvetica,sans-Serif" font-size="11.00" fill="#000000">PRIMARY_KEY_ID</text>
<polygon fill="none" stroke="#000000" points="295,-185.7 295,-207.7 507,-207.7 507,-185.7 295,-185.7"/>
<image xlink:href="../../images/primaryKeys.png" width="11px" height="12px" preserveAspectRatio="xMinYMin meet" x="300" y="-202.7"/>
<text text-anchor="start" x="315" y="-192.8" font-family="Helvetica,sans-Serif" font-size="11.00" fill="#000000">PSS_RQMNT_ID</text>
<polygon fill="none" stroke="#000000" points="295,-163.7 295,-185.7 507,-185.7 507,-163.7 295,-163.7"/>
<image xlink:href="../../images/primaryKeys.png" width="11px" height="12px" preserveAspectRatio="xMinYMin meet" x="300" y="-180.7"/>
<text text-anchor="start" x="315" y="-170.8" font-family="Helvetica,sans-Serif" font-size="11.00" fill="#000000">NOMIS_CASE_NOTE_ID</text>
<polygon fill="none" stroke="#000000" points="295,-141.7 295,-163.7 507,-163.7 507,-141.7 295,-141.7"/>
<image xlink:href="../../images/primaryKeys.png" width="11px" height="12px" preserveAspectRatio="xMinYMin meet" x="300" y="-158.7"/>
<text text-anchor="start" x="315" y="-148.8" font-family="Helvetica,sans-Serif" font-size="11.00" fill="#000000">LINKED_DOCUMENT_CONTACT_ID</text>
<polygon fill="none" stroke="#000000" points="295,-119.7 295,-141.7 507,-141.7 507,-119.7 295,-119.7"/>
<image xlink:href="../../images/primaryKeys.png" width="11px" height="12px" preserveAspectRatio="xMinYMin meet" x="300" y="-136.7"/>
<text text-anchor="start" x="315" y="-126.8" font-family="Helvetica,sans-Serif" font-size="11.00" fill="#000000">EXTERNAL_REFERENCE</text>
<polygon fill="none" stroke="#000000" points="295,-97.7 295,-119.7 507,-119.7 507,-97.7 295,-97.7"/>
<image xlink:href="../../images/primaryKeys.png" width="11px" height="12px" preserveAspectRatio="xMinYMin meet" x="300" y="-114.7"/>
<text text-anchor="start" x="315" y="-104.8" font-family="Helvetica,sans-Serif" font-size="11.00" fill="#000000">RAR_LINKED_CONTACT_ID</text>
<polygon fill="none" stroke="#000000" points="295,-75.7 295,-97.7 507,-97.7 507,-75.7 295,-75.7"/>
<image xlink:href="../../images/primaryKeys.png" width="11px" height="12px" preserveAspectRatio="xMinYMin meet" x="300" y="-92.7"/>
<text text-anchor="start" x="308.57" y="-82.8" font-family="Helvetica,sans-Serif" font-size="11.00" fill="#000000">SESSION_DELIVERED_CON_TYPE_ID</text>
<polygon fill="none" stroke="#000000" points="295,-56.7 295,-75.7 507,-75.7 507,-56.7 295,-56.7"/>
<text text-anchor="start" x="298" y="-62.8" font-family="Helvetica,sans-Serif" font-size="11.00" fill="#000000">...</text>
<polygon fill="#ffffff" stroke="transparent" points="295,-37.7 295,-56.7 365,-56.7 365,-37.7 295,-37.7"/>
<polygon fill="none" stroke="#000000" points="295,-37.7 295,-56.7 365,-56.7 365,-37.7 295,-37.7"/>
<text text-anchor="start" x="298" y="-43.8" font-family="Helvetica,sans-Serif" font-size="11.00" fill="#000000">&lt; 26</text>
<polygon fill="#ffffff" stroke="transparent" points="365,-37.7 365,-56.7 458,-56.7 458,-37.7 365,-37.7"/>
<polygon fill="none" stroke="#000000" points="365,-37.7 365,-56.7 458,-56.7 458,-37.7 365,-37.7"/>
<text text-anchor="start" x="388.9791" y="-43.8" font-family="Helvetica,sans-Serif" font-size="11.00" fill="#000000">165,869 rows</text>
<polygon fill="#ffffff" stroke="transparent" points="458,-37.7 458,-56.7 507,-56.7 507,-37.7 458,-37.7"/>
<polygon fill="none" stroke="#000000" points="458,-37.7 458,-56.7 507,-56.7 507,-37.7 458,-37.7"/>
<text text-anchor="start" x="482.2904" y="-43.8" font-family="Helvetica,sans-Serif" font-size="11.00" fill="#000000">14 &gt;</text>
</a>
</g>
</g>
<!-- R_EXPLANATION -->
<g id="node2" class="node">
<title>R_EXPLANATION</title>
<g id="a_node2"><a xlink:href="../../tables/R_EXPLANATION.html" xlink:title="R_EXPLANATION" target="_top">
<polygon fill="#ffffff" stroke="transparent" points="8,-208.7 8,-496.7 246,-496.7 246,-208.7 8,-208.7"/>
<polygon fill="#f5f5f5" stroke="transparent" points="10,-471.7 10,-494.7 244,-494.7 244,-471.7 10,-471.7"/>
<polygon fill="none" stroke="#000000" points="10,-471.7 10,-494.7 244,-494.7 244,-471.7 10,-471.7"/>
<text text-anchor="start" x="15" y="-480.8" font-family="Helvetica,sans-Serif" font-weight="bold" font-size="11.00" fill="#000000">R_EXPLANATION</text>
<text text-anchor="start" x="209.0437" y="-479.8" font-family="Helvetica,sans-Serif" font-size="11.00" fill="#000000">[table]</text>
<polygon fill="none" stroke="#000000" points="10,-449.7 10,-471.7 171,-471.7 171,-449.7 10,-449.7"/>
<image xlink:href="../../images/primaryKeys.png" width="11px" height="12px" preserveAspectRatio="xMinYMin meet" x="15" y="-466.7"/>
<text text-anchor="start" x="30" y="-456.8" font-family="Helvetica,sans-Serif" font-size="11.00" fill="#000000">EXPLANATION_ID</text>
<polygon fill="none" stroke="#000000" points="171,-449.7 171,-471.7 244,-471.7 244,-449.7 171,-449.7"/>
<text text-anchor="start" x="174" y="-457.4" font-family="Helvetica,sans-Serif" font-size="11.00" fill="#000000">number[38]</text>
<polygon fill="none" stroke="#000000" points="10,-427.7 10,-449.7 171,-449.7 171,-427.7 10,-427.7"/>
<image xlink:href="../../images/primaryKeys.png" width="11px" height="12px" preserveAspectRatio="xMinYMin meet" x="15" y="-444.7"/>
<text text-anchor="start" x="30" y="-434.8" font-family="Helvetica,sans-Serif" font-size="11.00" fill="#000000">CODE</text>
<polygon fill="none" stroke="#000000" points="171,-427.7 171,-449.7 244,-449.7 244,-427.7 171,-427.7"/>
<text text-anchor="start" x="174" y="-435.4" font-family="Helvetica,sans-Serif" font-size="11.00" fill="#000000">varchar2[10]</text>
<polygon fill="none" stroke="#000000" points="10,-405.7 10,-427.7 171,-427.7 171,-405.7 10,-405.7"/>
<text text-anchor="start" x="30" y="-412.8" font-family="Helvetica,sans-Serif" font-size="11.00" fill="#000000">DESCRIPTION</text>
<polygon fill="none" stroke="#000000" points="171,-405.7 171,-427.7 244,-427.7 244,-405.7 171,-405.7"/>
<text text-anchor="start" x="173.8791" y="-413.4" font-family="Helvetica,sans-Serif" font-size="11.00" fill="#000000">varchar2[100]</text>
<polygon fill="none" stroke="#000000" points="10,-383.7 10,-405.7 171,-405.7 171,-383.7 10,-383.7"/>
<text text-anchor="start" x="30" y="-390.8" font-family="Helvetica,sans-Serif" font-size="11.00" fill="#000000">SELECTABLE</text>
<polygon fill="none" stroke="#000000" points="171,-383.7 171,-405.7 244,-405.7 244,-383.7 171,-383.7"/>
<text text-anchor="start" x="174" y="-391.4" font-family="Helvetica,sans-Serif" font-size="11.00" fill="#000000">char[1]</text>
<polygon fill="none" stroke="#000000" points="10,-361.7 10,-383.7 171,-383.7 171,-361.7 10,-361.7"/>
<text text-anchor="start" x="30" y="-368.8" font-family="Helvetica,sans-Serif" font-size="11.00" fill="#000000">ACCEPTABLE</text>
<polygon fill="none" stroke="#000000" points="171,-361.7 171,-383.7 244,-383.7 244,-361.7 171,-361.7"/>
<text text-anchor="start" x="174" y="-369.4" font-family="Helvetica,sans-Serif" font-size="11.00" fill="#000000">char[1]</text>
<polygon fill="none" stroke="#000000" points="10,-339.7 10,-361.7 171,-361.7 171,-339.7 10,-339.7"/>
<text text-anchor="start" x="30" y="-346.8" font-family="Helvetica,sans-Serif" font-size="11.00" fill="#000000">ROW_VERSION</text>
<polygon fill="none" stroke="#000000" points="171,-339.7 171,-361.7 244,-361.7 244,-339.7 171,-339.7"/>
<text text-anchor="start" x="174" y="-347.4" font-family="Helvetica,sans-Serif" font-size="11.00" fill="#000000">number[38]</text>
<polygon fill="none" stroke="#000000" points="10,-317.7 10,-339.7 171,-339.7 171,-317.7 10,-317.7"/>
<text text-anchor="start" x="30" y="-324.8" font-family="Helvetica,sans-Serif" font-size="11.00" fill="#000000">CREATED_BY_USER_ID</text>
<polygon fill="none" stroke="#000000" points="171,-317.7 171,-339.7 244,-339.7 244,-317.7 171,-317.7"/>
<text text-anchor="start" x="174" y="-325.4" font-family="Helvetica,sans-Serif" font-size="11.00" fill="#000000">number[38]</text>
<polygon fill="none" stroke="#000000" points="10,-295.7 10,-317.7 171,-317.7 171,-295.7 10,-295.7"/>
<text text-anchor="start" x="30" y="-302.8" font-family="Helvetica,sans-Serif" font-size="11.00" fill="#000000">CREATED_DATETIME</text>
<polygon fill="none" stroke="#000000" points="171,-295.7 171,-317.7 244,-317.7 244,-295.7 171,-295.7"/>
<text text-anchor="start" x="174" y="-303.4" font-family="Helvetica,sans-Serif" font-size="11.00" fill="#000000">date[7]</text>
<polygon fill="none" stroke="#000000" points="10,-273.7 10,-295.7 171,-295.7 171,-273.7 10,-273.7"/>
<text text-anchor="start" x="28.0235" y="-280.8" font-family="Helvetica,sans-Serif" font-size="11.00" fill="#000000">LAST_UPDATED_USER_ID</text>
<polygon fill="none" stroke="#000000" points="171,-273.7 171,-295.7 244,-295.7 244,-273.7 171,-273.7"/>
<text text-anchor="start" x="174" y="-281.4" font-family="Helvetica,sans-Serif" font-size="11.00" fill="#000000">number[38]</text>
<polygon fill="none" stroke="#000000" points="10,-251.7 10,-273.7 171,-273.7 171,-251.7 10,-251.7"/>
<text text-anchor="start" x="24.0531" y="-258.8" font-family="Helvetica,sans-Serif" font-size="11.00" fill="#000000">LAST_UPDATED_DATETIME</text>
<polygon fill="none" stroke="#000000" points="171,-251.7 171,-273.7 244,-273.7 244,-251.7 171,-251.7"/>
<text text-anchor="start" x="174" y="-259.4" font-family="Helvetica,sans-Serif" font-size="11.00" fill="#000000">date[7]</text>
<polygon fill="none" stroke="#000000" points="10,-229.7 10,-251.7 171,-251.7 171,-229.7 10,-229.7"/>
<image xlink:href="../../images/primaryKeys.png" width="11px" height="12px" preserveAspectRatio="xMinYMin meet" x="15" y="-246.7"/>
<text text-anchor="start" x="30" y="-236.8" font-family="Helvetica,sans-Serif" font-size="11.00" fill="#000000">TRAINING_SESSION_ID</text>
<polygon fill="none" stroke="#000000" points="171,-229.7 171,-251.7 244,-251.7 244,-229.7 171,-229.7"/>
<text text-anchor="start" x="174" y="-237.4" font-family="Helvetica,sans-Serif" font-size="11.00" fill="#000000">number[38]</text>
<polygon fill="#ffffff" stroke="transparent" points="10,-210.7 10,-229.7 82,-229.7 82,-210.7 10,-210.7"/>
<polygon fill="none" stroke="#000000" points="10,-210.7 10,-229.7 82,-229.7 82,-210.7 10,-210.7"/>
<text text-anchor="start" x="13" y="-216.8" font-family="Helvetica,sans-Serif" font-size="11.00" fill="#000000">&lt; 0</text>
<polygon fill="#ffffff" stroke="transparent" points="82,-210.7 82,-229.7 171,-229.7 171,-210.7 82,-210.7"/>
<polygon fill="none" stroke="#000000" points="82,-210.7 82,-229.7 171,-229.7 171,-210.7 82,-210.7"/>
<text text-anchor="start" x="135.6105" y="-216.8" font-family="Helvetica,sans-Serif" font-size="11.00" fill="#000000">0 rows</text>
<polygon fill="#ffffff" stroke="transparent" points="171,-210.7 171,-229.7 244,-229.7 244,-210.7 171,-210.7"/>
<polygon fill="none" stroke="#000000" points="171,-210.7 171,-229.7 244,-229.7 244,-210.7 171,-210.7"/>
<text text-anchor="start" x="225.4053" y="-216.8" font-family="Helvetica,sans-Serif" font-size="11.00" fill="#000000">1 &gt;</text>
<polygon fill="none" stroke="#000000" stroke-width="2" points="9,-209.7 9,-495.7 245,-495.7 245,-209.7 9,-209.7"/>
</a>
</g>
</g>
<!-- CONTACT&#45;&gt;R_EXPLANATION -->
<g id="edge1" class="edge">
<title>CONTACT:w&#45;&gt;R_EXPLANATION:e</title>
<path fill="none" stroke="#000000" d="M280.276,-460.7C268.2815,-460.7 260.8229,-460.7 244,-460.7"/>
<polygon fill="#000000" stroke="#000000" points="287,-460.7001 295,-464.3 291,-460.7 295,-460.7 295,-460.7 295,-460.7 291,-460.7 295,-457.1 287,-460.7001 287,-460.7001"/>
<ellipse fill="none" stroke="#000000" cx="283.8" cy="-460.7001" rx="3.2" ry="3.2"/>
</g>
</g>
</svg>
