<?xml version="1.0" encoding="UTF-8" standalone="no"?>
<!DOCTYPE svg PUBLIC "-//W3C//DTD SVG 1.1//EN"
 "http://www.w3.org/Graphics/SVG/1.1/DTD/svg11.dtd">
<!-- Generated by graphviz version 2.40.1 (20161225.0304)
 -->
<!-- Title: oneDegreeRelationshipsDiagram Pages: 1 -->
<svg width="759pt" height="519pt"
 viewBox="0.00 0.00 759.00 518.94" xmlns="http://www.w3.org/2000/svg" xmlns:xlink="http://www.w3.org/1999/xlink">
<g id="graph0" class="graph" transform="scale(1 1) rotate(0) translate(4 514.936)">
<title>oneDegreeRelationshipsDiagram</title>
<polygon fill="#ffffff" stroke="transparent" points="-4,4 -4,-514.936 755,-514.936 755,4 -4,4"/>
<text text-anchor="middle" x="72.4936" y="-7.3" font-family="Helvetica,sans-Serif" font-size="11.00" fill="#000000">Generated by SchemaSpy</text>
<!-- PROBATION_AREA -->
<g id="node1" class="node">
<title>PROBATION_AREA</title>
<g id="a_node1"><a xlink:href="../../tables/PROBATION_AREA.html" xlink:title="PROBATION_AREA" target="_top">
<polygon fill="#ffffff" stroke="transparent" points="256,-92.436 256,-439.436 468,-439.436 468,-92.436 256,-92.436"/>
<polygon fill="#f5f5f5" stroke="transparent" points="256,-415.936 256,-438.936 468,-438.936 468,-415.936 256,-415.936"/>
<polygon fill="none" stroke="#000000" points="256,-415.936 256,-438.936 468,-438.936 468,-415.936 256,-415.936"/>
<text text-anchor="start" x="261" y="-425.036" font-family="Helvetica,sans-Serif" font-weight="bold" font-size="11.00" fill="#000000">PROBATION_AREA</text>
<text text-anchor="start" x="433.0437" y="-424.036" font-family="Helvetica,sans-Serif" font-size="11.00" fill="#000000">[table]</text>
<polygon fill="none" stroke="#000000" points="256,-393.936 256,-415.936 468,-415.936 468,-393.936 256,-393.936"/>
<image xlink:href="../../images/primaryKeys.png" width="11px" height="12px" preserveAspectRatio="xMinYMin meet" x="261" y="-410.936"/>
<text text-anchor="start" x="276" y="-401.036" font-family="Helvetica,sans-Serif" font-size="11.00" fill="#000000">PROBATION_AREA_ID</text>
<polygon fill="none" stroke="#000000" points="256,-371.936 256,-393.936 468,-393.936 468,-371.936 256,-371.936"/>
<image xlink:href="../../images/primaryKeys.png" width="11px" height="12px" preserveAspectRatio="xMinYMin meet" x="261" y="-388.936"/>
<text text-anchor="start" x="276" y="-379.036" font-family="Helvetica,sans-Serif" font-size="11.00" fill="#000000">CODE</text>
<polygon fill="none" stroke="#000000" points="256,-349.936 256,-371.936 468,-371.936 468,-349.936 256,-349.936"/>
<image xlink:href="../../images/primaryKeys.png" width="11px" height="12px" preserveAspectRatio="xMinYMin meet" x="261" y="-366.936"/>
<text text-anchor="start" x="276" y="-357.036" font-family="Helvetica,sans-Serif" font-size="11.00" fill="#000000">FORM_20_CODE</text>
<polygon fill="none" stroke="#000000" points="256,-327.936 256,-349.936 468,-349.936 468,-327.936 256,-327.936"/>
<image xlink:href="../../images/primaryKeys.png" width="11px" height="12px" preserveAspectRatio="xMinYMin meet" x="261" y="-344.936"/>
<text text-anchor="start" x="276" y="-335.036" font-family="Helvetica,sans-Serif" font-size="11.00" fill="#000000">HO_AREA_CODE</text>
<polygon fill="none" stroke="#000000" points="256,-305.936 256,-327.936 468,-327.936 468,-305.936 256,-305.936"/>
<image xlink:href="../../images/primaryKeys.png" width="11px" height="12px" preserveAspectRatio="xMinYMin meet" x="261" y="-322.936"/>
<text text-anchor="start" x="276" y="-313.036" font-family="Helvetica,sans-Serif" font-size="11.00" fill="#000000">TRAINING_SESSION_ID</text>
<polygon fill="none" stroke="#000000" points="256,-283.936 256,-305.936 468,-305.936 468,-283.936 256,-283.936"/>
<image xlink:href="../../images/primaryKeys.png" width="11px" height="12px" preserveAspectRatio="xMinYMin meet" x="261" y="-300.936"/>
<text text-anchor="start" x="276" y="-291.036" font-family="Helvetica,sans-Serif" font-size="11.00" fill="#000000">ORGANISATION_ID</text>
<polygon fill="none" stroke="#000000" points="256,-261.936 256,-283.936 468,-283.936 468,-261.936 256,-261.936"/>
<image xlink:href="../../images/primaryKeys.png" width="11px" height="12px" preserveAspectRatio="xMinYMin meet" x="261" y="-278.936"/>
<text text-anchor="start" x="276" y="-269.036" font-family="Helvetica,sans-Serif" font-size="11.00" fill="#000000">ADDRESS_ID</text>
<polygon fill="none" stroke="#000000" points="256,-239.936 256,-261.936 468,-261.936 468,-239.936 256,-239.936"/>
<image xlink:href="../../images/primaryKeys.png" width="11px" height="12px" preserveAspectRatio="xMinYMin meet" x="261" y="-256.936"/>
<text text-anchor="start" x="276" y="-247.036" font-family="Helvetica,sans-Serif" font-size="11.00" fill="#000000">SPG_ACTIVE_ID</text>
<polygon fill="none" stroke="#000000" points="256,-217.936 256,-239.936 468,-239.936 468,-217.936 256,-217.936"/>
<image xlink:href="../../images/primaryKeys.png" width="11px" height="12px" preserveAspectRatio="xMinYMin meet" x="261" y="-234.936"/>
<text text-anchor="start" x="276" y="-225.036" font-family="Helvetica,sans-Serif" font-size="11.00" fill="#000000">INSTITUTION_ID</text>
<polygon fill="none" stroke="#000000" points="256,-195.936 256,-217.936 468,-217.936 468,-195.936 256,-195.936"/>
<image xlink:href="../../images/primaryKeys.png" width="11px" height="12px" preserveAspectRatio="xMinYMin meet" x="261" y="-212.936"/>
<text text-anchor="start" x="276" y="-203.036" font-family="Helvetica,sans-Serif" font-size="11.00" fill="#000000">ESTABLISHMENT</text>
<polygon fill="none" stroke="#000000" points="256,-173.936 256,-195.936 468,-195.936 468,-173.936 256,-173.936"/>
<image xlink:href="../../images/primaryKeys.png" width="11px" height="12px" preserveAspectRatio="xMinYMin meet" x="261" y="-190.936"/>
<text text-anchor="start" x="276" y="-181.036" font-family="Helvetica,sans-Serif" font-size="11.00" fill="#000000">DEFAULT_TRANSFER_TEAM_ID</text>
<polygon fill="none" stroke="#000000" points="256,-151.936 256,-173.936 468,-173.936 468,-151.936 256,-151.936"/>
<image xlink:href="../../images/primaryKeys.png" width="11px" height="12px" preserveAspectRatio="xMinYMin meet" x="261" y="-168.936"/>
<text text-anchor="start" x="276" y="-159.036" font-family="Helvetica,sans-Serif" font-size="11.00" fill="#000000">DEFAULT_COURT_TEAM_ID</text>
<polygon fill="none" stroke="#000000" points="256,-129.936 256,-151.936 468,-151.936 468,-129.936 256,-129.936"/>
<image xlink:href="../../images/primaryKeys.png" width="11px" height="12px" preserveAspectRatio="xMinYMin meet" x="261" y="-146.936"/>
<text text-anchor="start" x="276" y="-137.036" font-family="Helvetica,sans-Serif" font-size="11.00" fill="#000000">DEFAULT_POSTCODE_TEAM_ID</text>
<polygon fill="none" stroke="#000000" points="256,-110.936 256,-129.936 468,-129.936 468,-110.936 256,-110.936"/>
<text text-anchor="start" x="259" y="-117.036" font-family="Helvetica,sans-Serif" font-size="11.00" fill="#000000">...</text>
<polygon fill="#ffffff" stroke="transparent" points="256,-91.936 256,-110.936 334,-110.936 334,-91.936 256,-91.936"/>
<polygon fill="none" stroke="#000000" points="256,-91.936 256,-110.936 334,-110.936 334,-91.936 256,-91.936"/>
<text text-anchor="start" x="259" y="-98.036" font-family="Helvetica,sans-Serif" font-size="11.00" fill="#000000">&lt; 8</text>
<polygon fill="#ffffff" stroke="transparent" points="334,-91.936 334,-110.936 412,-110.936 412,-91.936 334,-91.936"/>
<polygon fill="none" stroke="#000000" points="334,-91.936 334,-110.936 412,-110.936 412,-91.936 334,-91.936"/>
<text text-anchor="start" x="364.3807" y="-98.036" font-family="Helvetica,sans-Serif" font-size="11.00" fill="#000000">223 rows</text>
<polygon fill="#ffffff" stroke="transparent" points="412,-91.936 412,-110.936 468,-110.936 468,-91.936 412,-91.936"/>
<polygon fill="none" stroke="#000000" points="412,-91.936 412,-110.936 468,-110.936 468,-91.936 412,-91.936"/>
<text text-anchor="start" x="443.2904" y="-98.036" font-family="Helvetica,sans-Serif" font-size="11.00" fill="#000000">59 &gt;</text>
</a>
</g>
</g>
<!-- R_INSTITUTION -->
<g id="node2" class="node">
<title>R_INSTITUTION</title>
<g id="a_node2"><a xlink:href="../../tables/R_INSTITUTION.html" xlink:title="R_INSTITUTION" target="_top">
<polygon fill="#ffffff" stroke="transparent" points="8,-70.436 8,-263.436 207,-263.436 207,-70.436 8,-70.436"/>
<polygon fill="#f5f5f5" stroke="transparent" points="8.5,-239.936 8.5,-262.936 207.5,-262.936 207.5,-239.936 8.5,-239.936"/>
<polygon fill="none" stroke="#000000" points="8.5,-239.936 8.5,-262.936 207.5,-262.936 207.5,-239.936 8.5,-239.936"/>
<text text-anchor="start" x="13.5" y="-249.036" font-family="Helvetica,sans-Serif" font-weight="bold" font-size="11.00" fill="#000000">R_INSTITUTION</text>
<text text-anchor="start" x="172.5437" y="-248.036" font-family="Helvetica,sans-Serif" font-size="11.00" fill="#000000">[table]</text>
<polygon fill="none" stroke="#000000" points="8.5,-217.936 8.5,-239.936 207.5,-239.936 207.5,-217.936 8.5,-217.936"/>
<image xlink:href="../../images/primaryKeys.png" width="11px" height="12px" preserveAspectRatio="xMinYMin meet" x="13.5" y="-234.936"/>
<text text-anchor="start" x="28.5" y="-225.036" font-family="Helvetica,sans-Serif" font-size="11.00" fill="#000000">INSTITUTION_ID</text>
<polygon fill="none" stroke="#000000" points="8.5,-195.936 8.5,-217.936 207.5,-217.936 207.5,-195.936 8.5,-195.936"/>
<image xlink:href="../../images/primaryKeys.png" width="11px" height="12px" preserveAspectRatio="xMinYMin meet" x="13.5" y="-212.936"/>
<text text-anchor="start" x="28.5" y="-203.036" font-family="Helvetica,sans-Serif" font-size="11.00" fill="#000000">ESTABLISHMENT</text>
<polygon fill="none" stroke="#000000" points="8.5,-173.936 8.5,-195.936 207.5,-195.936 207.5,-173.936 8.5,-173.936"/>
<image xlink:href="../../images/primaryKeys.png" width="11px" height="12px" preserveAspectRatio="xMinYMin meet" x="13.5" y="-190.936"/>
<text text-anchor="start" x="28.5" y="-181.036" font-family="Helvetica,sans-Serif" font-size="11.00" fill="#000000">CODE</text>
<polygon fill="none" stroke="#000000" points="8.5,-151.936 8.5,-173.936 207.5,-173.936 207.5,-151.936 8.5,-151.936"/>
<image xlink:href="../../images/primaryKeys.png" width="11px" height="12px" preserveAspectRatio="xMinYMin meet" x="13.5" y="-168.936"/>
<text text-anchor="start" x="28.5" y="-159.036" font-family="Helvetica,sans-Serif" font-size="11.00" fill="#000000">ADDRESS_ID</text>
<polygon fill="none" stroke="#000000" points="8.5,-129.936 8.5,-151.936 207.5,-151.936 207.5,-129.936 8.5,-129.936"/>
<image xlink:href="../../images/primaryKeys.png" width="11px" height="12px" preserveAspectRatio="xMinYMin meet" x="13.5" y="-146.936"/>
<text text-anchor="start" x="28.5" y="-137.036" font-family="Helvetica,sans-Serif" font-size="11.00" fill="#000000">TRAINING_SESSION_ID</text>
<polygon fill="none" stroke="#000000" points="8.5,-107.936 8.5,-129.936 207.5,-129.936 207.5,-107.936 8.5,-107.936"/>
<image xlink:href="../../images/primaryKeys.png" width="11px" height="12px" preserveAspectRatio="xMinYMin meet" x="13.5" y="-124.936"/>
<text text-anchor="start" x="28.5" y="-115.036" font-family="Helvetica,sans-Serif" font-size="11.00" fill="#000000">ESTABLISHMENT_TYPE_ID</text>
<polygon fill="none" stroke="#000000" points="8.5,-88.936 8.5,-107.936 207.5,-107.936 207.5,-88.936 8.5,-88.936"/>
<text text-anchor="start" x="11.5" y="-95.036" font-family="Helvetica,sans-Serif" font-size="11.00" fill="#000000">...</text>
<polygon fill="#ffffff" stroke="transparent" points="8.5,-69.936 8.5,-88.936 79.5,-88.936 79.5,-69.936 8.5,-69.936"/>
<polygon fill="none" stroke="#000000" points="8.5,-69.936 8.5,-88.936 79.5,-88.936 79.5,-69.936 8.5,-69.936"/>
<text text-anchor="start" x="11.5" y="-76.036" font-family="Helvetica,sans-Serif" font-size="11.00" fill="#000000">&lt; 2</text>
<polygon fill="#ffffff" stroke="transparent" points="79.5,-69.936 79.5,-88.936 154.5,-88.936 154.5,-69.936 79.5,-69.936"/>
<polygon fill="none" stroke="#000000" points="79.5,-69.936 79.5,-88.936 154.5,-88.936 154.5,-69.936 79.5,-69.936"/>
<text text-anchor="start" x="106.8807" y="-76.036" font-family="Helvetica,sans-Serif" font-size="11.00" fill="#000000">445 rows</text>
<polygon fill="#ffffff" stroke="transparent" points="154.5,-69.936 154.5,-88.936 207.5,-88.936 207.5,-69.936 154.5,-69.936"/>
<polygon fill="none" stroke="#000000" points="154.5,-69.936 154.5,-88.936 207.5,-88.936 207.5,-69.936 154.5,-69.936"/>
<text text-anchor="start" x="182.7904" y="-76.036" font-family="Helvetica,sans-Serif" font-size="11.00" fill="#000000">16 &gt;</text>
</a>
</g>
</g>
<!-- PROBATION_AREA&#45;&gt;R_INSTITUTION -->
<g id="edge1" class="edge">
<title>PROBATION_AREA:w&#45;&gt;R_INSTITUTION:e</title>
<path fill="none" stroke="#000000" d="M241.2829,-206.936C230.2886,-206.936 223.1615,-206.936 207.5,-206.936"/>
<polygon fill="#000000" stroke="#000000" points="248,-206.936 256,-210.536 252,-206.936 256,-206.936 256,-206.936 256,-206.936 252,-206.936 256,-203.336 248,-206.936 248,-206.936"/>
<ellipse fill="none" stroke="#000000" cx="244.8" cy="-206.936" rx="3.2" ry="3.2"/>
</g>
<!-- PROBATION_AREA&#45;&gt;R_INSTITUTION -->
<g id="edge2" class="edge">
<title>PROBATION_AREA:w&#45;&gt;R_INSTITUTION:e</title>
<path fill="none" stroke="#000000" d="M241.2829,-228.936C230.2886,-228.936 223.1615,-228.936 207.5,-228.936"/>
<polygon fill="#000000" stroke="#000000" points="248,-228.936 256,-232.536 252,-228.936 256,-228.936 256,-228.936 256,-228.936 252,-228.936 256,-225.336 248,-228.936 248,-228.936"/>
<ellipse fill="none" stroke="#000000" cx="244.8" cy="-228.936" rx="3.2" ry="3.2"/>
</g>
<!-- R_HOST -->
<g id="node3" class="node">
<title>R_HOST</title>
<g id="a_node3"><a xlink:href="../../tables/R_HOST.html" xlink:title="R_HOST" target="_top">
<polygon fill="#ffffff" stroke="transparent" points="517,-218.936 517,-506.936 743,-506.936 743,-218.936 517,-218.936"/>
<polygon fill="#f5f5f5" stroke="transparent" points="519,-481.936 519,-504.936 741,-504.936 741,-481.936 519,-481.936"/>
<polygon fill="none" stroke="#000000" points="519,-481.936 519,-504.936 741,-504.936 741,-481.936 519,-481.936"/>
<text text-anchor="start" x="524" y="-491.036" font-family="Helvetica,sans-Serif" font-weight="bold" font-size="11.00" fill="#000000">R_HOST</text>
<text text-anchor="start" x="706.0437" y="-490.036" font-family="Helvetica,sans-Serif" font-size="11.00" fill="#000000">[table]</text>
<polygon fill="none" stroke="#000000" points="519,-459.936 519,-481.936 680,-481.936 680,-459.936 519,-459.936"/>
<image xlink:href="../../images/primaryKeys.png" width="11px" height="12px" preserveAspectRatio="xMinYMin meet" x="524" y="-476.936"/>
<text text-anchor="start" x="539" y="-467.036" font-family="Helvetica,sans-Serif" font-size="11.00" fill="#000000">HOST_ID</text>
<polygon fill="none" stroke="#000000" points="680,-459.936 680,-481.936 741,-481.936 741,-459.936 680,-459.936"/>
<text text-anchor="start" x="682.6865" y="-467.636" font-family="Helvetica,sans-Serif" font-size="11.00" fill="#000000">number[38]</text>
<polygon fill="none" stroke="#000000" points="519,-437.936 519,-459.936 680,-459.936 680,-437.936 519,-437.936"/>
<image xlink:href="../../images/primaryKeys.png" width="11px" height="12px" preserveAspectRatio="xMinYMin meet" x="524" y="-454.936"/>
<text text-anchor="start" x="539" y="-445.036" font-family="Helvetica,sans-Serif" font-size="11.00" fill="#000000">INSTITUTION_ID</text>
<polygon fill="none" stroke="#000000" points="680,-437.936 680,-459.936 741,-459.936 741,-437.936 680,-437.936"/>
<text text-anchor="start" x="682.6865" y="-445.636" font-family="Helvetica,sans-Serif" font-size="11.00" fill="#000000">number[38]</text>
<polygon fill="none" stroke="#000000" points="519,-415.936 519,-437.936 680,-437.936 680,-415.936 519,-415.936"/>
<image xlink:href="../../images/primaryKeys.png" width="11px" height="12px" preserveAspectRatio="xMinYMin meet" x="524" y="-432.936"/>
<text text-anchor="start" x="539" y="-423.036" font-family="Helvetica,sans-Serif" font-size="11.00" fill="#000000">ESTABLISHMENT</text>
<polygon fill="none" stroke="#000000" points="680,-415.936 680,-437.936 741,-437.936 741,-415.936 680,-415.936"/>
<text text-anchor="start" x="683" y="-423.636" font-family="Helvetica,sans-Serif" font-size="11.00" fill="#000000">char[1]</text>
<polygon fill="none" stroke="#000000" points="519,-393.936 519,-415.936 680,-415.936 680,-393.936 519,-393.936"/>
<image xlink:href="../../images/primaryKeys.png" width="11px" height="12px" preserveAspectRatio="xMinYMin meet" x="524" y="-410.936"/>
<text text-anchor="start" x="539" y="-401.036" font-family="Helvetica,sans-Serif" font-size="11.00" fill="#000000">PROBATION_AREA_ID</text>
<polygon fill="none" stroke="#000000" points="680,-393.936 680,-415.936 741,-415.936 741,-393.936 680,-393.936"/>
<text text-anchor="start" x="682.6865" y="-401.636" font-family="Helvetica,sans-Serif" font-size="11.00" fill="#000000">number[38]</text>
<polygon fill="none" stroke="#000000" points="519,-371.936 519,-393.936 680,-393.936 680,-371.936 519,-371.936"/>
<text text-anchor="start" x="539" y="-379.036" font-family="Helvetica,sans-Serif" font-size="11.00" fill="#000000">START_DATE</text>
<polygon fill="none" stroke="#000000" points="680,-371.936 680,-393.936 741,-393.936 741,-371.936 680,-371.936"/>
<text text-anchor="start" x="683" y="-379.636" font-family="Helvetica,sans-Serif" font-size="11.00" fill="#000000">date[7]</text>
<polygon fill="none" stroke="#000000" points="519,-349.936 519,-371.936 680,-371.936 680,-349.936 519,-349.936"/>
<text text-anchor="start" x="539" y="-357.036" font-family="Helvetica,sans-Serif" font-size="11.00" fill="#000000">END_DATE</text>
<polygon fill="none" stroke="#000000" points="680,-349.936 680,-371.936 741,-371.936 741,-349.936 680,-349.936"/>
<text text-anchor="start" x="683" y="-357.636" font-family="Helvetica,sans-Serif" font-size="11.00" fill="#000000">date[7]</text>
<polygon fill="none" stroke="#000000" points="519,-327.936 519,-349.936 680,-349.936 680,-327.936 519,-327.936"/>
<text text-anchor="start" x="539" y="-335.036" font-family="Helvetica,sans-Serif" font-size="11.00" fill="#000000">LEAD_HOST</text>
<polygon fill="none" stroke="#000000" points="680,-327.936 680,-349.936 741,-349.936 741,-327.936 680,-327.936"/>
<text text-anchor="start" x="683" y="-335.636" font-family="Helvetica,sans-Serif" font-size="11.00" fill="#000000">char[1]</text>
<polygon fill="none" stroke="#000000" points="519,-305.936 519,-327.936 680,-327.936 680,-305.936 519,-305.936"/>
<text text-anchor="start" x="539" y="-313.036" font-family="Helvetica,sans-Serif" font-size="11.00" fill="#000000">CREATED_BY_USER_ID</text>
<polygon fill="none" stroke="#000000" points="680,-305.936 680,-327.936 741,-327.936 741,-305.936 680,-305.936"/>
<text text-anchor="start" x="682.6865" y="-313.636" font-family="Helvetica,sans-Serif" font-size="11.00" fill="#000000">number[38]</text>
<polygon fill="none" stroke="#000000" points="519,-283.936 519,-305.936 680,-305.936 680,-283.936 519,-283.936"/>
<text text-anchor="start" x="539" y="-291.036" font-family="Helvetica,sans-Serif" font-size="11.00" fill="#000000">CREATED_DATETIME</text>
<polygon fill="none" stroke="#000000" points="680,-283.936 680,-305.936 741,-305.936 741,-283.936 680,-283.936"/>
<text text-anchor="start" x="683" y="-291.636" font-family="Helvetica,sans-Serif" font-size="11.00" fill="#000000">date[7]</text>
<polygon fill="none" stroke="#000000" points="519,-261.936 519,-283.936 680,-283.936 680,-261.936 519,-261.936"/>
<text text-anchor="start" x="537.0235" y="-269.036" font-family="Helvetica,sans-Serif" font-size="11.00" fill="#000000">LAST_UPDATED_USER_ID</text>
<polygon fill="none" stroke="#000000" points="680,-261.936 680,-283.936 741,-283.936 741,-261.936 680,-261.936"/>
<text text-anchor="start" x="682.6865" y="-269.636" font-family="Helvetica,sans-Serif" font-size="11.00" fill="#000000">number[38]</text>
<polygon fill="none" stroke="#000000" points="519,-239.936 519,-261.936 680,-261.936 680,-239.936 519,-239.936"/>
<text text-anchor="start" x="533.0531" y="-247.036" font-family="Helvetica,sans-Serif" font-size="11.00" fill="#000000">LAST_UPDATED_DATETIME</text>
<polygon fill="none" stroke="#000000" points="680,-239.936 680,-261.936 741,-261.936 741,-239.936 680,-239.936"/>
<text text-anchor="start" x="683" y="-247.636" font-family="Helvetica,sans-Serif" font-size="11.00" fill="#000000">date[7]</text>
<polygon fill="#ffffff" stroke="transparent" points="519,-220.936 519,-239.936 585,-239.936 585,-220.936 519,-220.936"/>
<polygon fill="none" stroke="#000000" points="519,-220.936 519,-239.936 585,-239.936 585,-220.936 519,-220.936"/>
<text text-anchor="start" x="522" y="-227.036" font-family="Helvetica,sans-Serif" font-size="11.00" fill="#000000">&lt; 3</text>
<polygon fill="#ffffff" stroke="transparent" points="585,-220.936 585,-239.936 680,-239.936 680,-220.936 585,-220.936"/>
<polygon fill="none" stroke="#000000" points="585,-220.936 585,-239.936 680,-239.936 680,-220.936 585,-220.936"/>
<text text-anchor="start" x="632.3807" y="-227.036" font-family="Helvetica,sans-Serif" font-size="11.00" fill="#000000">359 rows</text>
<polygon fill="#ffffff" stroke="transparent" points="680,-220.936 680,-239.936 741,-239.936 741,-220.936 680,-220.936"/>
<polygon fill="none" stroke="#000000" points="680,-220.936 680,-239.936 741,-239.936 741,-220.936 680,-220.936"/>
<text text-anchor="start" x="722.4053" y="-227.036" font-family="Helvetica,sans-Serif" font-size="11.00" fill="#000000">0 &gt;</text>
<polygon fill="none" stroke="#000000" stroke-width="2" points="518,-219.936 518,-505.936 742,-505.936 742,-219.936 518,-219.936"/>
</a>
</g>
</g>
<!-- R_HOST&#45;&gt;PROBATION_AREA -->
<g id="edge5" class="edge">
<title>R_HOST:w&#45;&gt;PROBATION_AREA:e</title>
<path fill="none" stroke="#000000" d="M504.276,-404.936C492.2815,-404.936 484.8229,-404.936 468,-404.936"/>
<polygon fill="#000000" stroke="#000000" points="511,-404.936 519,-408.536 515,-404.936 519,-404.936 519,-404.936 519,-404.936 515,-404.936 519,-401.336 511,-404.936 511,-404.936"/>
<ellipse fill="none" stroke="#000000" cx="507.8" cy="-404.936" rx="3.2" ry="3.2"/>
</g>
<!-- R_HOST&#45;&gt;R_INSTITUTION -->
<g id="edge3" class="edge">
<title>R_HOST:w&#45;&gt;R_INSTITUTION:e</title>
<path fill="none" stroke="#000000" d="M505.1048,-422.7641C453.9597,-386.812 529.8391,-129.4812 476,-81.936 400.0446,-14.8597 329.9556,-22.3396 248,-81.936 200.7687,-116.2816 265.8988,-206.936 207.5,-206.936"/>
<polygon fill="#000000" stroke="#000000" points="511.3379,-424.6355 517.9648,-430.3839 515.1689,-425.7857 519,-426.936 519,-426.936 519,-426.936 515.1689,-425.7857 520.0352,-423.488 511.3379,-424.6355 511.3379,-424.6355"/>
<ellipse fill="none" stroke="#000000" cx="508.273" cy="-423.7153" rx="3.2" ry="3.2"/>
</g>
<!-- R_HOST&#45;&gt;R_INSTITUTION -->
<g id="edge4" class="edge">
<title>R_HOST:w&#45;&gt;R_INSTITUTION:e</title>
<path fill="none" stroke="#000000" d="M504.4879,-449.3141C393.7365,-455.0823 336.7308,-523.8838 248,-449.936 171.2894,-386.0057 307.3579,-228.936 207.5,-228.936"/>
<polygon fill="#000000" stroke="#000000" points="511.0027,-449.1444 519.0938,-452.5347 515.0014,-449.0402 519,-448.936 519,-448.936 519,-448.936 515.0014,-449.0402 518.9062,-445.3372 511.0027,-449.1444 511.0027,-449.1444"/>
<ellipse fill="none" stroke="#000000" cx="507.8038" cy="-449.2277" rx="3.2" ry="3.2"/>
</g>
</g>
</svg>
