<?xml version="1.0" encoding="UTF-8" standalone="no"?>
<!DOCTYPE svg PUBLIC "-//W3C//DTD SVG 1.1//EN"
 "http://www.w3.org/Graphics/SVG/1.1/DTD/svg11.dtd">
<!-- Generated by graphviz version 2.40.1 (20161225.0304)
 -->
<!-- Title: oneDegreeRelationshipsDiagram Pages: 1 -->
<svg width="806pt" height="348pt"
 viewBox="0.00 0.00 806.00 347.70" xmlns="http://www.w3.org/2000/svg" xmlns:xlink="http://www.w3.org/1999/xlink">
<g id="graph0" class="graph" transform="scale(1 1) rotate(0) translate(4 343.7)">
<title>oneDegreeRelationshipsDiagram</title>
<polygon fill="#ffffff" stroke="transparent" points="-4,4 -4,-343.7 802,-343.7 802,4 -4,4"/>
<text text-anchor="middle" x="72.4936" y="-7.3" font-family="Helvetica,sans-Serif" font-size="11.00" fill="#000000">Generated by SchemaSpy</text>
<!-- R_INSTITUTION -->
<g id="node1" class="node">
<title>R_INSTITUTION</title>
<g id="a_node1"><a xlink:href="../../tables/R_INSTITUTION.html" xlink:title="R_INSTITUTION" target="_top">
<polygon fill="#ffffff" stroke="transparent" points="277,-141.2 277,-334.2 476,-334.2 476,-141.2 277,-141.2"/>
<polygon fill="#f5f5f5" stroke="transparent" points="277.5,-310.7 277.5,-333.7 476.5,-333.7 476.5,-310.7 277.5,-310.7"/>
<polygon fill="none" stroke="#000000" points="277.5,-310.7 277.5,-333.7 476.5,-333.7 476.5,-310.7 277.5,-310.7"/>
<text text-anchor="start" x="282.5" y="-319.8" font-family="Helvetica,sans-Serif" font-weight="bold" font-size="11.00" fill="#000000">R_INSTITUTION</text>
<text text-anchor="start" x="441.5437" y="-318.8" font-family="Helvetica,sans-Serif" font-size="11.00" fill="#000000">[table]</text>
<polygon fill="none" stroke="#000000" points="277.5,-288.7 277.5,-310.7 476.5,-310.7 476.5,-288.7 277.5,-288.7"/>
<image xlink:href="../../images/primaryKeys.png" width="11px" height="12px" preserveAspectRatio="xMinYMin meet" x="282.5" y="-305.7"/>
<text text-anchor="start" x="297.5" y="-295.8" font-family="Helvetica,sans-Serif" font-size="11.00" fill="#000000">INSTITUTION_ID</text>
<polygon fill="none" stroke="#000000" points="277.5,-266.7 277.5,-288.7 476.5,-288.7 476.5,-266.7 277.5,-266.7"/>
<image xlink:href="../../images/primaryKeys.png" width="11px" height="12px" preserveAspectRatio="xMinYMin meet" x="282.5" y="-283.7"/>
<text text-anchor="start" x="297.5" y="-273.8" font-family="Helvetica,sans-Serif" font-size="11.00" fill="#000000">ESTABLISHMENT</text>
<polygon fill="none" stroke="#000000" points="277.5,-244.7 277.5,-266.7 476.5,-266.7 476.5,-244.7 277.5,-244.7"/>
<image xlink:href="../../images/primaryKeys.png" width="11px" height="12px" preserveAspectRatio="xMinYMin meet" x="282.5" y="-261.7"/>
<text text-anchor="start" x="297.5" y="-251.8" font-family="Helvetica,sans-Serif" font-size="11.00" fill="#000000">CODE</text>
<polygon fill="none" stroke="#000000" points="277.5,-222.7 277.5,-244.7 476.5,-244.7 476.5,-222.7 277.5,-222.7"/>
<image xlink:href="../../images/primaryKeys.png" width="11px" height="12px" preserveAspectRatio="xMinYMin meet" x="282.5" y="-239.7"/>
<text text-anchor="start" x="297.5" y="-229.8" font-family="Helvetica,sans-Serif" font-size="11.00" fill="#000000">ADDRESS_ID</text>
<polygon fill="none" stroke="#000000" points="277.5,-200.7 277.5,-222.7 476.5,-222.7 476.5,-200.7 277.5,-200.7"/>
<image xlink:href="../../images/primaryKeys.png" width="11px" height="12px" preserveAspectRatio="xMinYMin meet" x="282.5" y="-217.7"/>
<text text-anchor="start" x="297.5" y="-207.8" font-family="Helvetica,sans-Serif" font-size="11.00" fill="#000000">TRAINING_SESSION_ID</text>
<polygon fill="none" stroke="#000000" points="277.5,-178.7 277.5,-200.7 476.5,-200.7 476.5,-178.7 277.5,-178.7"/>
<image xlink:href="../../images/primaryKeys.png" width="11px" height="12px" preserveAspectRatio="xMinYMin meet" x="282.5" y="-195.7"/>
<text text-anchor="start" x="297.5" y="-185.8" font-family="Helvetica,sans-Serif" font-size="11.00" fill="#000000">ESTABLISHMENT_TYPE_ID</text>
<polygon fill="none" stroke="#000000" points="277.5,-159.7 277.5,-178.7 476.5,-178.7 476.5,-159.7 277.5,-159.7"/>
<text text-anchor="start" x="280.5" y="-165.8" font-family="Helvetica,sans-Serif" font-size="11.00" fill="#000000">...</text>
<polygon fill="#ffffff" stroke="transparent" points="277.5,-140.7 277.5,-159.7 348.5,-159.7 348.5,-140.7 277.5,-140.7"/>
<polygon fill="none" stroke="#000000" points="277.5,-140.7 277.5,-159.7 348.5,-159.7 348.5,-140.7 277.5,-140.7"/>
<text text-anchor="start" x="280.5" y="-146.8" font-family="Helvetica,sans-Serif" font-size="11.00" fill="#000000">&lt; 2</text>
<polygon fill="#ffffff" stroke="transparent" points="348.5,-140.7 348.5,-159.7 423.5,-159.7 423.5,-140.7 348.5,-140.7"/>
<polygon fill="none" stroke="#000000" points="348.5,-140.7 348.5,-159.7 423.5,-159.7 423.5,-140.7 348.5,-140.7"/>
<text text-anchor="start" x="375.8807" y="-146.8" font-family="Helvetica,sans-Serif" font-size="11.00" fill="#000000">445 rows</text>
<polygon fill="#ffffff" stroke="transparent" points="423.5,-140.7 423.5,-159.7 476.5,-159.7 476.5,-140.7 423.5,-140.7"/>
<polygon fill="none" stroke="#000000" points="423.5,-140.7 423.5,-159.7 476.5,-159.7 476.5,-140.7 423.5,-140.7"/>
<text text-anchor="start" x="451.7904" y="-146.8" font-family="Helvetica,sans-Serif" font-size="11.00" fill="#000000">18 &gt;</text>
</a>
</g>
</g>
<!-- R_STANDARD_REFERENCE_LIST -->
<g id="node2" class="node">
<title>R_STANDARD_REFERENCE_LIST</title>
<g id="a_node2"><a xlink:href="../../tables/R_STANDARD_REFERENCE_LIST.html" xlink:title="R_STANDARD_REFERENCE_LIST" target="_top">
<polygon fill="#ffffff" stroke="transparent" points="8,-38.2 8,-187.2 228,-187.2 228,-38.2 8,-38.2"/>
<polygon fill="#f5f5f5" stroke="transparent" points="8,-163.7 8,-186.7 228,-186.7 228,-163.7 8,-163.7"/>
<polygon fill="none" stroke="#000000" points="8,-163.7 8,-186.7 228,-186.7 228,-163.7 8,-163.7"/>
<text text-anchor="start" x="12.5842" y="-172.8" font-family="Helvetica,sans-Serif" font-weight="bold" font-size="11.00" fill="#000000">R_STANDARD_REFERENCE_LIST</text>
<text text-anchor="start" x="193.5219" y="-171.8" font-family="Helvetica,sans-Serif" font-size="11.00" fill="#000000">[table]</text>
<polygon fill="none" stroke="#000000" points="8,-141.7 8,-163.7 228,-163.7 228,-141.7 8,-141.7"/>
<image xlink:href="../../images/primaryKeys.png" width="11px" height="12px" preserveAspectRatio="xMinYMin meet" x="13" y="-158.7"/>
<text text-anchor="start" x="35.5558" y="-148.8" font-family="Helvetica,sans-Serif" font-size="11.00" fill="#000000">STANDARD_REFERENCE_LIST_ID</text>
<polygon fill="none" stroke="#000000" points="8,-119.7 8,-141.7 228,-141.7 228,-119.7 8,-119.7"/>
<image xlink:href="../../images/primaryKeys.png" width="11px" height="12px" preserveAspectRatio="xMinYMin meet" x="13" y="-136.7"/>
<text text-anchor="start" x="42" y="-126.8" font-family="Helvetica,sans-Serif" font-size="11.00" fill="#000000">CODE_VALUE</text>
<polygon fill="none" stroke="#000000" points="8,-97.7 8,-119.7 228,-119.7 228,-97.7 8,-97.7"/>
<image xlink:href="../../images/primaryKeys.png" width="11px" height="12px" preserveAspectRatio="xMinYMin meet" x="13" y="-114.7"/>
<text text-anchor="start" x="39.8337" y="-104.8" font-family="Helvetica,sans-Serif" font-size="11.00" fill="#000000">REFERENCE_DATA_MASTER_ID</text>
<polygon fill="none" stroke="#000000" points="8,-75.7 8,-97.7 228,-97.7 228,-75.7 8,-75.7"/>
<image xlink:href="../../images/primaryKeys.png" width="11px" height="12px" preserveAspectRatio="xMinYMin meet" x="13" y="-92.7"/>
<text text-anchor="start" x="42" y="-82.8" font-family="Helvetica,sans-Serif" font-size="11.00" fill="#000000">TRAINING_SESSION_ID</text>
<polygon fill="none" stroke="#000000" points="8,-56.7 8,-75.7 228,-75.7 228,-56.7 8,-56.7"/>
<text text-anchor="start" x="11" y="-62.8" font-family="Helvetica,sans-Serif" font-size="11.00" fill="#000000">...</text>
<polygon fill="#ffffff" stroke="transparent" points="8,-37.7 8,-56.7 79,-56.7 79,-37.7 8,-37.7"/>
<polygon fill="none" stroke="#000000" points="8,-37.7 8,-56.7 79,-56.7 79,-37.7 8,-37.7"/>
<text text-anchor="start" x="11" y="-43.8" font-family="Helvetica,sans-Serif" font-size="11.00" fill="#000000">&lt; 1</text>
<polygon fill="#ffffff" stroke="transparent" points="79,-37.7 79,-56.7 169,-56.7 169,-37.7 79,-37.7"/>
<polygon fill="none" stroke="#000000" points="79,-37.7 79,-56.7 169,-56.7 169,-37.7 79,-37.7"/>
<text text-anchor="start" x="106.094" y="-43.8" font-family="Helvetica,sans-Serif" font-size="11.00" fill="#000000">15,391 rows</text>
<polygon fill="#ffffff" stroke="transparent" points="169,-37.7 169,-56.7 228,-56.7 228,-37.7 169,-37.7"/>
<polygon fill="none" stroke="#000000" points="169,-37.7 169,-56.7 228,-56.7 228,-37.7 169,-37.7"/>
<text text-anchor="start" x="197.1755" y="-43.8" font-family="Helvetica,sans-Serif" font-size="11.00" fill="#000000">311 &gt;</text>
</a>
</g>
</g>
<!-- R_INSTITUTION&#45;&gt;R_STANDARD_REFERENCE_LIST -->
<g id="edge1" class="edge">
<title>R_INSTITUTION:w&#45;&gt;R_STANDARD_REFERENCE_LIST:e</title>
<path fill="none" stroke="#000000" d="M263.5092,-185.1631C250.8361,-175.283 249.4584,-152.7 228,-152.7"/>
<polygon fill="#000000" stroke="#000000" points="269.8901,-187.2322 276.3895,-193.1244 273.6951,-188.4661 277.5,-189.7 277.5,-189.7 277.5,-189.7 273.6951,-188.4661 278.6105,-186.2756 269.8901,-187.2322 269.8901,-187.2322"/>
<ellipse fill="none" stroke="#000000" cx="266.8462" cy="-186.2451" rx="3.2" ry="3.2"/>
</g>
<!-- R_INSTITUTION_NOMIS_HOSPITAL -->
<g id="node3" class="node">
<title>R_INSTITUTION_NOMIS_HOSPITAL</title>
<g id="a_node3"><a xlink:href="../../tables/R_INSTITUTION_NOMIS_HOSPITAL.html" xlink:title="R_INSTITUTION_NOMIS_HOSPITAL" target="_top">
<polygon fill="#ffffff" stroke="transparent" points="525,-201.7 525,-335.7 790,-335.7 790,-201.7 525,-201.7"/>
<polygon fill="#f5f5f5" stroke="transparent" points="527.5,-310.7 527.5,-333.7 788.5,-333.7 788.5,-310.7 527.5,-310.7"/>
<polygon fill="none" stroke="#000000" points="527.5,-310.7 527.5,-333.7 788.5,-333.7 788.5,-310.7 527.5,-310.7"/>
<text text-anchor="start" x="532.5" y="-319.8" font-family="Helvetica,sans-Serif" font-weight="bold" font-size="11.00" fill="#000000">R_INSTITUTION_NOMIS_HOSPITAL</text>
<text text-anchor="start" x="753.5437" y="-318.8" font-family="Helvetica,sans-Serif" font-size="11.00" fill="#000000">[table]</text>
<polygon fill="none" stroke="#000000" points="527.5,-288.7 527.5,-310.7 727.5,-310.7 727.5,-288.7 527.5,-288.7"/>
<image xlink:href="../../images/primaryKeys.png" width="11px" height="12px" preserveAspectRatio="xMinYMin meet" x="532.5" y="-305.7"/>
<text text-anchor="start" x="547.5" y="-295.8" font-family="Helvetica,sans-Serif" font-size="11.00" fill="#000000">INSTITUTION_ID</text>
<polygon fill="none" stroke="#000000" points="727.5,-288.7 727.5,-310.7 788.5,-310.7 788.5,-288.7 727.5,-288.7"/>
<text text-anchor="start" x="730.1865" y="-296.4" font-family="Helvetica,sans-Serif" font-size="11.00" fill="#000000">number[38]</text>
<polygon fill="none" stroke="#000000" points="527.5,-266.7 527.5,-288.7 727.5,-288.7 727.5,-266.7 527.5,-266.7"/>
<image xlink:href="../../images/primaryKeys.png" width="11px" height="12px" preserveAspectRatio="xMinYMin meet" x="532.5" y="-283.7"/>
<text text-anchor="start" x="547.5" y="-273.8" font-family="Helvetica,sans-Serif" font-size="11.00" fill="#000000">ESTABLISHMENT</text>
<polygon fill="none" stroke="#000000" points="727.5,-266.7 727.5,-288.7 788.5,-288.7 788.5,-266.7 727.5,-266.7"/>
<text text-anchor="start" x="730.5" y="-274.4" font-family="Helvetica,sans-Serif" font-size="11.00" fill="#000000">char[1]</text>
<polygon fill="none" stroke="#000000" points="527.5,-244.7 527.5,-266.7 727.5,-266.7 727.5,-244.7 527.5,-244.7"/>
<image xlink:href="../../images/primaryKeys.png" width="11px" height="12px" preserveAspectRatio="xMinYMin meet" x="532.5" y="-261.7"/>
<text text-anchor="start" x="547.5" y="-251.8" font-family="Helvetica,sans-Serif" font-size="11.00" fill="#000000">NOMIS_HOSPITAL_ID</text>
<polygon fill="none" stroke="#000000" points="727.5,-244.7 727.5,-266.7 788.5,-266.7 788.5,-244.7 727.5,-244.7"/>
<text text-anchor="start" x="730.1865" y="-252.4" font-family="Helvetica,sans-Serif" font-size="11.00" fill="#000000">number[38]</text>
<polygon fill="none" stroke="#000000" points="527.5,-222.7 527.5,-244.7 727.5,-244.7 727.5,-222.7 527.5,-222.7"/>
<text text-anchor="start" x="547.5" y="-229.8" font-family="Helvetica,sans-Serif" font-size="11.00" fill="#000000">ROW_VERSION</text>
<polygon fill="none" stroke="#000000" points="727.5,-222.7 727.5,-244.7 788.5,-244.7 788.5,-222.7 727.5,-222.7"/>
<text text-anchor="start" x="730.1865" y="-230.4" font-family="Helvetica,sans-Serif" font-size="11.00" fill="#000000">number[38]</text>
<polygon fill="#ffffff" stroke="transparent" points="527.5,-203.7 527.5,-222.7 618.5,-222.7 618.5,-203.7 527.5,-203.7"/>
<polygon fill="none" stroke="#000000" points="527.5,-203.7 527.5,-222.7 618.5,-222.7 618.5,-203.7 527.5,-203.7"/>
<text text-anchor="start" x="530.5" y="-209.8" font-family="Helvetica,sans-Serif" font-size="11.00" fill="#000000">&lt; 3</text>
<polygon fill="#ffffff" stroke="transparent" points="618.5,-203.7 618.5,-222.7 727.5,-222.7 727.5,-203.7 618.5,-203.7"/>
<polygon fill="none" stroke="#000000" points="618.5,-203.7 618.5,-222.7 727.5,-222.7 727.5,-203.7 618.5,-203.7"/>
<text text-anchor="start" x="692.1105" y="-209.8" font-family="Helvetica,sans-Serif" font-size="11.00" fill="#000000">0 rows</text>
<polygon fill="#ffffff" stroke="transparent" points="727.5,-203.7 727.5,-222.7 788.5,-222.7 788.5,-203.7 727.5,-203.7"/>
<polygon fill="none" stroke="#000000" points="727.5,-203.7 727.5,-222.7 788.5,-222.7 788.5,-203.7 727.5,-203.7"/>
<text text-anchor="start" x="769.9053" y="-209.8" font-family="Helvetica,sans-Serif" font-size="11.00" fill="#000000">0 &gt;</text>
<polygon fill="none" stroke="#000000" stroke-width="2" points="526,-202.7 526,-334.7 789,-334.7 789,-202.7 526,-202.7"/>
</a>
</g>
</g>
<!-- R_INSTITUTION_NOMIS_HOSPITAL&#45;&gt;R_INSTITUTION -->
<g id="edge2" class="edge">
<title>R_INSTITUTION_NOMIS_HOSPITAL:w&#45;&gt;R_INSTITUTION:e</title>
<path fill="none" stroke="#000000" d="M512.776,-277.7C500.7815,-277.7 493.3229,-277.7 476.5,-277.7"/>
<polygon fill="#000000" stroke="#000000" points="519.5,-277.7001 527.5,-281.3 523.5,-277.7 527.5,-277.7 527.5,-277.7 527.5,-277.7 523.5,-277.7 527.5,-274.1 519.5,-277.7001 519.5,-277.7001"/>
<ellipse fill="none" stroke="#000000" cx="516.3" cy="-277.7001" rx="3.2" ry="3.2"/>
</g>
<!-- R_INSTITUTION_NOMIS_HOSPITAL&#45;&gt;R_INSTITUTION -->
<g id="edge3" class="edge">
<title>R_INSTITUTION_NOMIS_HOSPITAL:w&#45;&gt;R_INSTITUTION:e</title>
<path fill="none" stroke="#000000" d="M512.776,-299.7C500.7815,-299.7 493.3229,-299.7 476.5,-299.7"/>
<polygon fill="#000000" stroke="#000000" points="519.5,-299.7001 527.5,-303.3 523.5,-299.7 527.5,-299.7 527.5,-299.7 527.5,-299.7 523.5,-299.7 527.5,-296.1 519.5,-299.7001 519.5,-299.7001"/>
<ellipse fill="none" stroke="#000000" cx="516.3" cy="-299.7001" rx="3.2" ry="3.2"/>
</g>
<!-- R_INSTITUTION_NOMIS_HOSPITAL&#45;&gt;R_STANDARD_REFERENCE_LIST -->
<g id="edge4" class="edge">
<title>R_INSTITUTION_NOMIS_HOSPITAL:w&#45;&gt;R_STANDARD_REFERENCE_LIST:e</title>
<path fill="none" stroke="#000000" d="M513.1109,-253.0413C480.3808,-237.8182 527.0756,-161.3191 484,-130.7 406.1159,-75.3382 361.6731,-107.4072 269,-130.7 248.944,-135.7409 248.6798,-152.7 228,-152.7"/>
<polygon fill="#000000" stroke="#000000" points="519.6332,-254.2464 526.8459,-259.2401 523.5666,-254.9732 527.5,-255.7 527.5,-255.7 527.5,-255.7 523.5666,-254.9732 528.1541,-252.1599 519.6332,-254.2464 519.6332,-254.2464"/>
<ellipse fill="none" stroke="#000000" cx="516.4864" cy="-253.6649" rx="3.2" ry="3.2"/>
</g>
</g>
</svg>
