<?xml version="1.0" encoding="UTF-8" standalone="no"?>
<!DOCTYPE svg PUBLIC "-//W3C//DTD SVG 1.1//EN"
 "http://www.w3.org/Graphics/SVG/1.1/DTD/svg11.dtd">
<!-- Generated by graphviz version 2.40.1 (20161225.0304)
 -->
<!-- Title: oneDegreeRelationshipsDiagram Pages: 1 -->
<svg width="815pt" height="291pt"
 viewBox="0.00 0.00 815.00 291.20" xmlns="http://www.w3.org/2000/svg" xmlns:xlink="http://www.w3.org/1999/xlink">
<g id="graph0" class="graph" transform="scale(1 1) rotate(0) translate(4 287.2)">
<title>oneDegreeRelationshipsDiagram</title>
<polygon fill="#ffffff" stroke="transparent" points="-4,4 -4,-287.2 811,-287.2 811,4 -4,4"/>
<text text-anchor="middle" x="72.4936" y="-7.3" font-family="Helvetica,sans-Serif" font-size="11.00" fill="#000000">Generated by SchemaSpy</text>
<!-- R_LIC_COND_TRANSFER_REASON -->
<g id="node1" class="node">
<title>R_LIC_COND_TRANSFER_REASON</title>
<g id="a_node1"><a xlink:href="../../tables/R_LIC_COND_TRANSFER_REASON.html" xlink:title="R_LIC_COND_TRANSFER_REASON" target="_top">
<polygon fill="#ffffff" stroke="transparent" points="535,-109.7 535,-221.7 799,-221.7 799,-109.7 535,-109.7"/>
<polygon fill="#f5f5f5" stroke="transparent" points="537,-196.7 537,-219.7 797,-219.7 797,-196.7 537,-196.7"/>
<polygon fill="none" stroke="#000000" points="537,-196.7 537,-219.7 797,-219.7 797,-196.7 537,-196.7"/>
<text text-anchor="start" x="542" y="-205.8" font-family="Helvetica,sans-Serif" font-weight="bold" font-size="11.00" fill="#000000">R_LIC_COND_TRANSFER_REASON</text>
<text text-anchor="start" x="762.0437" y="-204.8" font-family="Helvetica,sans-Serif" font-size="11.00" fill="#000000">[table]</text>
<polygon fill="none" stroke="#000000" points="537,-174.7 537,-196.7 736,-196.7 736,-174.7 537,-174.7"/>
<image xlink:href="../../images/primaryKeys.png" width="11px" height="12px" preserveAspectRatio="xMinYMin meet" x="542" y="-191.7"/>
<text text-anchor="start" x="557" y="-181.8" font-family="Helvetica,sans-Serif" font-size="11.00" fill="#000000">LIC_COND_TYPE_MAIN_CAT_ID</text>
<polygon fill="none" stroke="#000000" points="736,-174.7 736,-196.7 797,-196.7 797,-174.7 736,-174.7"/>
<text text-anchor="start" x="738.6865" y="-182.4" font-family="Helvetica,sans-Serif" font-size="11.00" fill="#000000">number[22]</text>
<polygon fill="none" stroke="#000000" points="537,-152.7 537,-174.7 736,-174.7 736,-152.7 537,-152.7"/>
<image xlink:href="../../images/primaryKeys.png" width="11px" height="12px" preserveAspectRatio="xMinYMin meet" x="542" y="-169.7"/>
<text text-anchor="start" x="557" y="-159.8" font-family="Helvetica,sans-Serif" font-size="11.00" fill="#000000">TRANSFER_REASON_ID</text>
<polygon fill="none" stroke="#000000" points="736,-152.7 736,-174.7 797,-174.7 797,-152.7 736,-152.7"/>
<text text-anchor="start" x="738.6865" y="-160.4" font-family="Helvetica,sans-Serif" font-size="11.00" fill="#000000">number[22]</text>
<polygon fill="none" stroke="#000000" points="537,-130.7 537,-152.7 736,-152.7 736,-130.7 537,-130.7"/>
<text text-anchor="start" x="557" y="-137.8" font-family="Helvetica,sans-Serif" font-size="11.00" fill="#000000">ROW_VERSION</text>
<polygon fill="none" stroke="#000000" points="736,-130.7 736,-152.7 797,-152.7 797,-130.7 736,-130.7"/>
<text text-anchor="start" x="738.6865" y="-138.4" font-family="Helvetica,sans-Serif" font-size="11.00" fill="#000000">number[22]</text>
<polygon fill="#ffffff" stroke="transparent" points="537,-111.7 537,-130.7 622,-130.7 622,-111.7 537,-111.7"/>
<polygon fill="none" stroke="#000000" points="537,-111.7 537,-130.7 622,-130.7 622,-111.7 537,-111.7"/>
<text text-anchor="start" x="540" y="-117.8" font-family="Helvetica,sans-Serif" font-size="11.00" fill="#000000">&lt; 2</text>
<polygon fill="#ffffff" stroke="transparent" points="622,-111.7 622,-130.7 736,-130.7 736,-111.7 622,-111.7"/>
<polygon fill="none" stroke="#000000" points="622,-111.7 622,-130.7 736,-130.7 736,-111.7 622,-111.7"/>
<text text-anchor="start" x="688.3807" y="-117.8" font-family="Helvetica,sans-Serif" font-size="11.00" fill="#000000">106 rows</text>
<polygon fill="#ffffff" stroke="transparent" points="736,-111.7 736,-130.7 797,-130.7 797,-111.7 736,-111.7"/>
<polygon fill="none" stroke="#000000" points="736,-111.7 736,-130.7 797,-130.7 797,-111.7 736,-111.7"/>
<text text-anchor="start" x="778.4053" y="-117.8" font-family="Helvetica,sans-Serif" font-size="11.00" fill="#000000">0 &gt;</text>
<polygon fill="none" stroke="#000000" stroke-width="2" points="536,-110.7 536,-220.7 798,-220.7 798,-110.7 536,-110.7"/>
</a>
</g>
</g>
<!-- R_LIC_COND_TYPE_MAIN_CAT -->
<g id="node2" class="node">
<title>R_LIC_COND_TYPE_MAIN_CAT</title>
<g id="a_node2"><a xlink:href="../../tables/R_LIC_COND_TYPE_MAIN_CAT.html" xlink:title="R_LIC_COND_TYPE_MAIN_CAT" target="_top">
<polygon fill="#ffffff" stroke="transparent" points="277,-130.2 277,-279.2 486,-279.2 486,-130.2 277,-130.2"/>
<polygon fill="#f5f5f5" stroke="transparent" points="277.5,-255.7 277.5,-278.7 486.5,-278.7 486.5,-255.7 277.5,-255.7"/>
<polygon fill="none" stroke="#000000" points="277.5,-255.7 277.5,-278.7 486.5,-278.7 486.5,-255.7 277.5,-255.7"/>
<text text-anchor="start" x="282.3862" y="-264.8" font-family="Helvetica,sans-Serif" font-weight="bold" font-size="11.00" fill="#000000">R_LIC_COND_TYPE_MAIN_CAT</text>
<text text-anchor="start" x="452.0219" y="-263.8" font-family="Helvetica,sans-Serif" font-size="11.00" fill="#000000">[table]</text>
<polygon fill="none" stroke="#000000" points="277.5,-233.7 277.5,-255.7 486.5,-255.7 486.5,-233.7 277.5,-233.7"/>
<image xlink:href="../../images/primaryKeys.png" width="11px" height="12px" preserveAspectRatio="xMinYMin meet" x="282.5" y="-250.7"/>
<text text-anchor="start" x="304.8578" y="-240.8" font-family="Helvetica,sans-Serif" font-size="11.00" fill="#000000">LIC_COND_TYPE_MAIN_CAT_ID</text>
<polygon fill="none" stroke="#000000" points="277.5,-211.7 277.5,-233.7 486.5,-233.7 486.5,-211.7 277.5,-211.7"/>
<image xlink:href="../../images/primaryKeys.png" width="11px" height="12px" preserveAspectRatio="xMinYMin meet" x="282.5" y="-228.7"/>
<text text-anchor="start" x="310.5" y="-218.8" font-family="Helvetica,sans-Serif" font-size="11.00" fill="#000000">CODE</text>
<polygon fill="none" stroke="#000000" points="277.5,-189.7 277.5,-211.7 486.5,-211.7 486.5,-189.7 277.5,-189.7"/>
<image xlink:href="../../images/primaryKeys.png" width="11px" height="12px" preserveAspectRatio="xMinYMin meet" x="282.5" y="-206.7"/>
<text text-anchor="start" x="310.5" y="-196.8" font-family="Helvetica,sans-Serif" font-size="11.00" fill="#000000">UNITS_ID</text>
<polygon fill="none" stroke="#000000" points="277.5,-167.7 277.5,-189.7 486.5,-189.7 486.5,-167.7 277.5,-167.7"/>
<image xlink:href="../../images/primaryKeys.png" width="11px" height="12px" preserveAspectRatio="xMinYMin meet" x="282.5" y="-184.7"/>
<text text-anchor="start" x="310.5" y="-174.8" font-family="Helvetica,sans-Serif" font-size="11.00" fill="#000000">TRAINING_SESSION_ID</text>
<polygon fill="none" stroke="#000000" points="277.5,-148.7 277.5,-167.7 486.5,-167.7 486.5,-148.7 277.5,-148.7"/>
<text text-anchor="start" x="280.5" y="-154.8" font-family="Helvetica,sans-Serif" font-size="11.00" fill="#000000">...</text>
<polygon fill="#ffffff" stroke="transparent" points="277.5,-129.7 277.5,-148.7 356.5,-148.7 356.5,-129.7 277.5,-129.7"/>
<polygon fill="none" stroke="#000000" points="277.5,-129.7 277.5,-148.7 356.5,-148.7 356.5,-129.7 277.5,-129.7"/>
<text text-anchor="start" x="280.5" y="-135.8" font-family="Helvetica,sans-Serif" font-size="11.00" fill="#000000">&lt; 1</text>
<polygon fill="#ffffff" stroke="transparent" points="356.5,-129.7 356.5,-148.7 435.5,-148.7 435.5,-129.7 356.5,-129.7"/>
<polygon fill="none" stroke="#000000" points="356.5,-129.7 356.5,-148.7 435.5,-148.7 435.5,-129.7 356.5,-129.7"/>
<text text-anchor="start" x="387.8807" y="-135.8" font-family="Helvetica,sans-Serif" font-size="11.00" fill="#000000">550 rows</text>
<polygon fill="#ffffff" stroke="transparent" points="435.5,-129.7 435.5,-148.7 486.5,-148.7 486.5,-129.7 435.5,-129.7"/>
<polygon fill="none" stroke="#000000" points="435.5,-129.7 435.5,-148.7 486.5,-148.7 486.5,-129.7 435.5,-129.7"/>
<text text-anchor="start" x="467.9053" y="-135.8" font-family="Helvetica,sans-Serif" font-size="11.00" fill="#000000">8 &gt;</text>
</a>
</g>
</g>
<!-- R_LIC_COND_TRANSFER_REASON&#45;&gt;R_LIC_COND_TYPE_MAIN_CAT -->
<g id="edge1" class="edge">
<title>R_LIC_COND_TRANSFER_REASON:w&#45;&gt;R_LIC_COND_TYPE_MAIN_CAT:e</title>
<path fill="none" stroke="#000000" d="M522.9165,-190.7303C507.4311,-204.9982 514.814,-244.7 486.5,-244.7"/>
<polygon fill="#000000" stroke="#000000" points="529.4661,-188.391 538.2109,-189.0902 533.2331,-187.0455 537,-185.7 537,-185.7 537,-185.7 533.2331,-187.0455 535.7891,-182.3098 529.4661,-188.391 529.4661,-188.391"/>
<ellipse fill="none" stroke="#000000" cx="526.4526" cy="-189.4674" rx="3.2" ry="3.2"/>
</g>
<!-- R_STANDARD_REFERENCE_LIST -->
<g id="node3" class="node">
<title>R_STANDARD_REFERENCE_LIST</title>
<g id="a_node3"><a xlink:href="../../tables/R_STANDARD_REFERENCE_LIST.html" xlink:title="R_STANDARD_REFERENCE_LIST" target="_top">
<polygon fill="#ffffff" stroke="transparent" points="8,-38.2 8,-187.2 228,-187.2 228,-38.2 8,-38.2"/>
<polygon fill="#f5f5f5" stroke="transparent" points="8,-163.7 8,-186.7 228,-186.7 228,-163.7 8,-163.7"/>
<polygon fill="none" stroke="#000000" points="8,-163.7 8,-186.7 228,-186.7 228,-163.7 8,-163.7"/>
<text text-anchor="start" x="12.5842" y="-172.8" font-family="Helvetica,sans-Serif" font-weight="bold" font-size="11.00" fill="#000000">R_STANDARD_REFERENCE_LIST</text>
<text text-anchor="start" x="193.5219" y="-171.8" font-family="Helvetica,sans-Serif" font-size="11.00" fill="#000000">[table]</text>
<polygon fill="none" stroke="#000000" points="8,-141.7 8,-163.7 228,-163.7 228,-141.7 8,-141.7"/>
<image xlink:href="../../images/primaryKeys.png" width="11px" height="12px" preserveAspectRatio="xMinYMin meet" x="13" y="-158.7"/>
<text text-anchor="start" x="35.5558" y="-148.8" font-family="Helvetica,sans-Serif" font-size="11.00" fill="#000000">STANDARD_REFERENCE_LIST_ID</text>
<polygon fill="none" stroke="#000000" points="8,-119.7 8,-141.7 228,-141.7 228,-119.7 8,-119.7"/>
<image xlink:href="../../images/primaryKeys.png" width="11px" height="12px" preserveAspectRatio="xMinYMin meet" x="13" y="-136.7"/>
<text text-anchor="start" x="42" y="-126.8" font-family="Helvetica,sans-Serif" font-size="11.00" fill="#000000">CODE_VALUE</text>
<polygon fill="none" stroke="#000000" points="8,-97.7 8,-119.7 228,-119.7 228,-97.7 8,-97.7"/>
<image xlink:href="../../images/primaryKeys.png" width="11px" height="12px" preserveAspectRatio="xMinYMin meet" x="13" y="-114.7"/>
<text text-anchor="start" x="39.8337" y="-104.8" font-family="Helvetica,sans-Serif" font-size="11.00" fill="#000000">REFERENCE_DATA_MASTER_ID</text>
<polygon fill="none" stroke="#000000" points="8,-75.7 8,-97.7 228,-97.7 228,-75.7 8,-75.7"/>
<image xlink:href="../../images/primaryKeys.png" width="11px" height="12px" preserveAspectRatio="xMinYMin meet" x="13" y="-92.7"/>
<text text-anchor="start" x="42" y="-82.8" font-family="Helvetica,sans-Serif" font-size="11.00" fill="#000000">TRAINING_SESSION_ID</text>
<polygon fill="none" stroke="#000000" points="8,-56.7 8,-75.7 228,-75.7 228,-56.7 8,-56.7"/>
<text text-anchor="start" x="11" y="-62.8" font-family="Helvetica,sans-Serif" font-size="11.00" fill="#000000">...</text>
<polygon fill="#ffffff" stroke="transparent" points="8,-37.7 8,-56.7 79,-56.7 79,-37.7 8,-37.7"/>
<polygon fill="none" stroke="#000000" points="8,-37.7 8,-56.7 79,-56.7 79,-37.7 8,-37.7"/>
<text text-anchor="start" x="11" y="-43.8" font-family="Helvetica,sans-Serif" font-size="11.00" fill="#000000">&lt; 1</text>
<polygon fill="#ffffff" stroke="transparent" points="79,-37.7 79,-56.7 169,-56.7 169,-37.7 79,-37.7"/>
<polygon fill="none" stroke="#000000" points="79,-37.7 79,-56.7 169,-56.7 169,-37.7 79,-37.7"/>
<text text-anchor="start" x="106.094" y="-43.8" font-family="Helvetica,sans-Serif" font-size="11.00" fill="#000000">15,391 rows</text>
<polygon fill="#ffffff" stroke="transparent" points="169,-37.7 169,-56.7 228,-56.7 228,-37.7 169,-37.7"/>
<polygon fill="none" stroke="#000000" points="169,-37.7 169,-56.7 228,-56.7 228,-37.7 169,-37.7"/>
<text text-anchor="start" x="197.1755" y="-43.8" font-family="Helvetica,sans-Serif" font-size="11.00" fill="#000000">295 &gt;</text>
</a>
</g>
</g>
<!-- R_LIC_COND_TRANSFER_REASON&#45;&gt;R_STANDARD_REFERENCE_LIST -->
<g id="edge2" class="edge">
<title>R_LIC_COND_TRANSFER_REASON:w&#45;&gt;R_STANDARD_REFERENCE_LIST:e</title>
<path fill="none" stroke="#000000" d="M523.2625,-159.2113C512.1981,-149.7391 513.4917,-127.9053 494,-119.7 401.8335,-80.9013 363.3136,-86.4593 269,-119.7 246.9387,-127.4755 251.3915,-152.7 228,-152.7"/>
<polygon fill="#000000" stroke="#000000" points="529.3956,-161.2153 535.8819,-167.122 533.1978,-162.4576 537,-163.7 537,-163.7 537,-163.7 533.1978,-162.4576 538.1181,-160.278 529.3956,-161.2153 529.3956,-161.2153"/>
<ellipse fill="none" stroke="#000000" cx="526.3539" cy="-160.2214" rx="3.2" ry="3.2"/>
</g>
<!-- R_LIC_COND_TYPE_MAIN_CAT&#45;&gt;R_STANDARD_REFERENCE_LIST -->
<g id="edge3" class="edge">
<title>R_LIC_COND_TYPE_MAIN_CAT:w&#45;&gt;R_STANDARD_REFERENCE_LIST:e</title>
<path fill="none" stroke="#000000" d="M263.7679,-195.9221C249.8417,-183.7811 252.6596,-152.7 228,-152.7"/>
<polygon fill="#000000" stroke="#000000" points="269.9443,-198.071 276.317,-204.1001 273.7221,-199.3855 277.5,-200.7 277.5,-200.7 277.5,-200.7 273.7221,-199.3855 278.683,-197.2999 269.9443,-198.071 269.9443,-198.071"/>
<ellipse fill="none" stroke="#000000" cx="266.922" cy="-197.0195" rx="3.2" ry="3.2"/>
</g>
</g>
</svg>
