<?xml version="1.0" encoding="UTF-8" standalone="no"?>
<!DOCTYPE svg PUBLIC "-//W3C//DTD SVG 1.1//EN"
 "http://www.w3.org/Graphics/SVG/1.1/DTD/svg11.dtd">
<!-- Generated by graphviz version 2.40.1 (20161225.0304)
 -->
<!-- Title: oneDegreeRelationshipsDiagram Pages: 1 -->
<svg width="555pt" height="469pt"
 viewBox="0.00 0.00 555.00 468.70" xmlns="http://www.w3.org/2000/svg" xmlns:xlink="http://www.w3.org/1999/xlink">
<g id="graph0" class="graph" transform="scale(1 1) rotate(0) translate(4 464.7)">
<title>oneDegreeRelationshipsDiagram</title>
<polygon fill="#ffffff" stroke="transparent" points="-4,4 -4,-464.7 551,-464.7 551,4 -4,4"/>
<text text-anchor="middle" x="72.4936" y="-7.3" font-family="Helvetica,sans-Serif" font-size="11.00" fill="#000000">Generated by SchemaSpy</text>
<!-- APPROVED_PREMISES_RESIDENCE -->
<g id="node1" class="node">
<title>APPROVED_PREMISES_RESIDENCE</title>
<g id="a_node1"><a xlink:href="../../tables/APPROVED_PREMISES_RESIDENCE.html" xlink:title="APPROVED_PREMISES_RESIDENCE" target="_top">
<polygon fill="#ffffff" stroke="transparent" points="302,-109.7 302,-456.7 539,-456.7 539,-109.7 302,-109.7"/>
<polygon fill="#f5f5f5" stroke="transparent" points="302.5,-433.2 302.5,-456.2 539.5,-456.2 539.5,-433.2 302.5,-433.2"/>
<polygon fill="none" stroke="#000000" points="302.5,-433.2 302.5,-456.2 539.5,-456.2 539.5,-433.2 302.5,-433.2"/>
<text text-anchor="start" x="307.3244" y="-442.3" font-family="Helvetica,sans-Serif" font-weight="bold" font-size="11.00" fill="#000000">APPROVED_PREMISES_RESIDENCE</text>
<text text-anchor="start" x="505.0219" y="-441.3" font-family="Helvetica,sans-Serif" font-size="11.00" fill="#000000">[table]</text>
<polygon fill="none" stroke="#000000" points="302.5,-411.2 302.5,-433.2 539.5,-433.2 539.5,-411.2 302.5,-411.2"/>
<image xlink:href="../../images/primaryKeys.png" width="11px" height="12px" preserveAspectRatio="xMinYMin meet" x="307.5" y="-428.2"/>
<text text-anchor="start" x="322.768" y="-418.3" font-family="Helvetica,sans-Serif" font-size="11.00" fill="#000000">APPROVED_PREMISES_RESIDENCE_ID</text>
<polygon fill="none" stroke="#000000" points="302.5,-389.2 302.5,-411.2 539.5,-411.2 539.5,-389.2 302.5,-389.2"/>
<image xlink:href="../../images/primaryKeys.png" width="11px" height="12px" preserveAspectRatio="xMinYMin meet" x="307.5" y="-406.2"/>
<text text-anchor="start" x="325.5175" y="-396.3" font-family="Helvetica,sans-Serif" font-size="11.00" fill="#000000">APPROVED_PREMISES_REFERRAL_ID</text>
<polygon fill="none" stroke="#000000" points="302.5,-367.2 302.5,-389.2 539.5,-389.2 539.5,-367.2 302.5,-367.2"/>
<image xlink:href="../../images/primaryKeys.png" width="11px" height="12px" preserveAspectRatio="xMinYMin meet" x="307.5" y="-384.2"/>
<text text-anchor="start" x="329.5" y="-374.3" font-family="Helvetica,sans-Serif" font-size="11.00" fill="#000000">PARTITION_AREA_ID</text>
<polygon fill="none" stroke="#000000" points="302.5,-345.2 302.5,-367.2 539.5,-367.2 539.5,-345.2 302.5,-345.2"/>
<image xlink:href="../../images/primaryKeys.png" width="11px" height="12px" preserveAspectRatio="xMinYMin meet" x="307.5" y="-362.2"/>
<text text-anchor="start" x="329.5" y="-352.3" font-family="Helvetica,sans-Serif" font-size="11.00" fill="#000000">DEPARTURE_REASON_ID</text>
<polygon fill="none" stroke="#000000" points="302.5,-323.2 302.5,-345.2 539.5,-345.2 539.5,-323.2 302.5,-323.2"/>
<image xlink:href="../../images/primaryKeys.png" width="11px" height="12px" preserveAspectRatio="xMinYMin meet" x="307.5" y="-340.2"/>
<text text-anchor="start" x="329.5" y="-330.3" font-family="Helvetica,sans-Serif" font-size="11.00" fill="#000000">APPROVED_PREMISES_ID</text>
<polygon fill="none" stroke="#000000" points="302.5,-301.2 302.5,-323.2 539.5,-323.2 539.5,-301.2 302.5,-301.2"/>
<image xlink:href="../../images/primaryKeys.png" width="11px" height="12px" preserveAspectRatio="xMinYMin meet" x="307.5" y="-318.2"/>
<text text-anchor="start" x="329.5" y="-308.3" font-family="Helvetica,sans-Serif" font-size="11.00" fill="#000000">DEST_APPROVED_PREMISES_ID</text>
<polygon fill="none" stroke="#000000" points="302.5,-279.2 302.5,-301.2 539.5,-301.2 539.5,-279.2 302.5,-279.2"/>
<image xlink:href="../../images/primaryKeys.png" width="11px" height="12px" preserveAspectRatio="xMinYMin meet" x="307.5" y="-296.2"/>
<text text-anchor="start" x="329.5" y="-286.3" font-family="Helvetica,sans-Serif" font-size="11.00" fill="#000000">MOVE_ON_CATEGORY_ID</text>
<polygon fill="none" stroke="#000000" points="302.5,-257.2 302.5,-279.2 539.5,-279.2 539.5,-257.2 302.5,-257.2"/>
<image xlink:href="../../images/primaryKeys.png" width="11px" height="12px" preserveAspectRatio="xMinYMin meet" x="307.5" y="-274.2"/>
<text text-anchor="start" x="329.5" y="-264.3" font-family="Helvetica,sans-Serif" font-size="11.00" fill="#000000">APPROVED_PREMISES_STAFF_ID</text>
<polygon fill="none" stroke="#000000" points="302.5,-235.2 302.5,-257.2 539.5,-257.2 539.5,-235.2 302.5,-235.2"/>
<image xlink:href="../../images/primaryKeys.png" width="11px" height="12px" preserveAspectRatio="xMinYMin meet" x="307.5" y="-252.2"/>
<text text-anchor="start" x="329.5" y="-242.3" font-family="Helvetica,sans-Serif" font-size="11.00" fill="#000000">KEY_WORKER_STAFF_ID</text>
<polygon fill="none" stroke="#000000" points="302.5,-213.2 302.5,-235.2 539.5,-235.2 539.5,-213.2 302.5,-213.2"/>
<image xlink:href="../../images/primaryKeys.png" width="11px" height="12px" preserveAspectRatio="xMinYMin meet" x="307.5" y="-230.2"/>
<text text-anchor="start" x="329.5" y="-220.3" font-family="Helvetica,sans-Serif" font-size="11.00" fill="#000000">CREATED_DATETIME</text>
<polygon fill="none" stroke="#000000" points="302.5,-191.2 302.5,-213.2 539.5,-213.2 539.5,-191.2 302.5,-191.2"/>
<image xlink:href="../../images/primaryKeys.png" width="11px" height="12px" preserveAspectRatio="xMinYMin meet" x="307.5" y="-208.2"/>
<text text-anchor="start" x="329.5" y="-198.3" font-family="Helvetica,sans-Serif" font-size="11.00" fill="#000000">APPROVED_PREMISES_TEAM_ID</text>
<polygon fill="none" stroke="#000000" points="302.5,-169.2 302.5,-191.2 539.5,-191.2 539.5,-169.2 302.5,-169.2"/>
<image xlink:href="../../images/primaryKeys.png" width="11px" height="12px" preserveAspectRatio="xMinYMin meet" x="307.5" y="-186.2"/>
<text text-anchor="start" x="329.5" y="-176.3" font-family="Helvetica,sans-Serif" font-size="11.00" fill="#000000">TRAINING_SESSION_ID</text>
<polygon fill="none" stroke="#000000" points="302.5,-147.2 302.5,-169.2 539.5,-169.2 539.5,-147.2 302.5,-147.2"/>
<image xlink:href="../../images/primaryKeys.png" width="11px" height="12px" preserveAspectRatio="xMinYMin meet" x="307.5" y="-164.2"/>
<text text-anchor="start" x="329.5" y="-154.3" font-family="Helvetica,sans-Serif" font-size="11.00" fill="#000000">OFFENDER_ID</text>
<polygon fill="none" stroke="#000000" points="302.5,-128.2 302.5,-147.2 539.5,-147.2 539.5,-128.2 302.5,-128.2"/>
<text text-anchor="start" x="305.5" y="-134.3" font-family="Helvetica,sans-Serif" font-size="11.00" fill="#000000">...</text>
<polygon fill="#ffffff" stroke="transparent" points="302.5,-109.2 302.5,-128.2 404.5,-128.2 404.5,-109.2 302.5,-109.2"/>
<polygon fill="none" stroke="#000000" points="302.5,-109.2 302.5,-128.2 404.5,-128.2 404.5,-109.2 302.5,-109.2"/>
<text text-anchor="start" x="305.5" y="-115.3" font-family="Helvetica,sans-Serif" font-size="11.00" fill="#000000">&lt; 10</text>
<polygon fill="#ffffff" stroke="transparent" points="404.5,-109.2 404.5,-128.2 480.5,-128.2 480.5,-109.2 404.5,-109.2"/>
<polygon fill="none" stroke="#000000" points="404.5,-109.2 404.5,-128.2 480.5,-128.2 480.5,-109.2 404.5,-109.2"/>
<text text-anchor="start" x="445.1105" y="-115.3" font-family="Helvetica,sans-Serif" font-size="11.00" fill="#000000">7 rows</text>
<polygon fill="#ffffff" stroke="transparent" points="480.5,-109.2 480.5,-128.2 539.5,-128.2 539.5,-109.2 480.5,-109.2"/>
<polygon fill="none" stroke="#000000" points="480.5,-109.2 480.5,-128.2 539.5,-128.2 539.5,-109.2 480.5,-109.2"/>
<text text-anchor="start" x="520.9053" y="-115.3" font-family="Helvetica,sans-Serif" font-size="11.00" fill="#000000">1 &gt;</text>
</a>
</g>
</g>
<!-- R_MOVE_ON_CATEGORY -->
<g id="node2" class="node">
<title>R_MOVE_ON_CATEGORY</title>
<g id="a_node2"><a xlink:href="../../tables/R_MOVE_ON_CATEGORY.html" xlink:title="R_MOVE_ON_CATEGORY" target="_top">
<polygon fill="#ffffff" stroke="transparent" points="8,-38.2 8,-326.2 253,-326.2 253,-38.2 8,-38.2"/>
<polygon fill="#f5f5f5" stroke="transparent" points="10.5,-301.2 10.5,-324.2 251.5,-324.2 251.5,-301.2 10.5,-301.2"/>
<polygon fill="none" stroke="#000000" points="10.5,-301.2 10.5,-324.2 251.5,-324.2 251.5,-301.2 10.5,-301.2"/>
<text text-anchor="start" x="15.5" y="-310.3" font-family="Helvetica,sans-Serif" font-weight="bold" font-size="11.00" fill="#000000">R_MOVE_ON_CATEGORY</text>
<text text-anchor="start" x="216.5437" y="-309.3" font-family="Helvetica,sans-Serif" font-size="11.00" fill="#000000">[table]</text>
<polygon fill="none" stroke="#000000" points="10.5,-279.2 10.5,-301.2 184.5,-301.2 184.5,-279.2 10.5,-279.2"/>
<image xlink:href="../../images/primaryKeys.png" width="11px" height="12px" preserveAspectRatio="xMinYMin meet" x="15.5" y="-296.2"/>
<text text-anchor="start" x="30.5" y="-286.3" font-family="Helvetica,sans-Serif" font-size="11.00" fill="#000000">MOVE_ON_CATEGORY_ID</text>
<polygon fill="none" stroke="#000000" points="184.5,-279.2 184.5,-301.2 251.5,-301.2 251.5,-279.2 184.5,-279.2"/>
<text text-anchor="start" x="187.5" y="-286.9" font-family="Helvetica,sans-Serif" font-size="11.00" fill="#000000">number[38]</text>
<polygon fill="none" stroke="#000000" points="10.5,-257.2 10.5,-279.2 184.5,-279.2 184.5,-257.2 10.5,-257.2"/>
<image xlink:href="../../images/primaryKeys.png" width="11px" height="12px" preserveAspectRatio="xMinYMin meet" x="15.5" y="-274.2"/>
<text text-anchor="start" x="30.5" y="-264.3" font-family="Helvetica,sans-Serif" font-size="11.00" fill="#000000">CODE</text>
<polygon fill="none" stroke="#000000" points="184.5,-257.2 184.5,-279.2 251.5,-279.2 251.5,-257.2 184.5,-257.2"/>
<text text-anchor="start" x="187.4365" y="-264.9" font-family="Helvetica,sans-Serif" font-size="11.00" fill="#000000">varchar2[20]</text>
<polygon fill="none" stroke="#000000" points="10.5,-235.2 10.5,-257.2 184.5,-257.2 184.5,-235.2 10.5,-235.2"/>
<text text-anchor="start" x="30.5" y="-242.3" font-family="Helvetica,sans-Serif" font-size="11.00" fill="#000000">DESCRIPTION</text>
<polygon fill="none" stroke="#000000" points="184.5,-235.2 184.5,-257.2 251.5,-257.2 251.5,-235.2 184.5,-235.2"/>
<text text-anchor="start" x="187.4365" y="-242.9" font-family="Helvetica,sans-Serif" font-size="11.00" fill="#000000">varchar2[50]</text>
<polygon fill="none" stroke="#000000" points="10.5,-213.2 10.5,-235.2 184.5,-235.2 184.5,-213.2 10.5,-213.2"/>
<image xlink:href="../../images/primaryKeys.png" width="11px" height="12px" preserveAspectRatio="xMinYMin meet" x="15.5" y="-230.2"/>
<text text-anchor="start" x="30.5" y="-220.3" font-family="Helvetica,sans-Serif" font-size="11.00" fill="#000000">TRAINING_SESSION_ID</text>
<polygon fill="none" stroke="#000000" points="184.5,-213.2 184.5,-235.2 251.5,-235.2 251.5,-213.2 184.5,-213.2"/>
<text text-anchor="start" x="187.5" y="-220.9" font-family="Helvetica,sans-Serif" font-size="11.00" fill="#000000">number[38]</text>
<polygon fill="none" stroke="#000000" points="10.5,-191.2 10.5,-213.2 184.5,-213.2 184.5,-191.2 10.5,-191.2"/>
<text text-anchor="start" x="30.5" y="-198.3" font-family="Helvetica,sans-Serif" font-size="11.00" fill="#000000">SELECTABLE</text>
<polygon fill="none" stroke="#000000" points="184.5,-191.2 184.5,-213.2 251.5,-213.2 251.5,-191.2 184.5,-191.2"/>
<text text-anchor="start" x="187.5" y="-198.9" font-family="Helvetica,sans-Serif" font-size="11.00" fill="#000000">char[1]</text>
<polygon fill="none" stroke="#000000" points="10.5,-169.2 10.5,-191.2 184.5,-191.2 184.5,-169.2 10.5,-169.2"/>
<text text-anchor="start" x="24.6307" y="-176.3" font-family="Helvetica,sans-Serif" font-size="11.00" fill="#000000">DESTINATION_DETAILS_FLAG</text>
<polygon fill="none" stroke="#000000" points="184.5,-169.2 184.5,-191.2 251.5,-191.2 251.5,-169.2 184.5,-169.2"/>
<text text-anchor="start" x="187.5" y="-176.9" font-family="Helvetica,sans-Serif" font-size="11.00" fill="#000000">char[1]</text>
<polygon fill="none" stroke="#000000" points="10.5,-147.2 10.5,-169.2 184.5,-169.2 184.5,-147.2 10.5,-147.2"/>
<text text-anchor="start" x="30.5" y="-154.3" font-family="Helvetica,sans-Serif" font-size="11.00" fill="#000000">CREATED_BY_USER_ID</text>
<polygon fill="none" stroke="#000000" points="184.5,-147.2 184.5,-169.2 251.5,-169.2 251.5,-147.2 184.5,-147.2"/>
<text text-anchor="start" x="187.5" y="-154.9" font-family="Helvetica,sans-Serif" font-size="11.00" fill="#000000">number[38]</text>
<polygon fill="none" stroke="#000000" points="10.5,-125.2 10.5,-147.2 184.5,-147.2 184.5,-125.2 10.5,-125.2"/>
<text text-anchor="start" x="30.5" y="-132.3" font-family="Helvetica,sans-Serif" font-size="11.00" fill="#000000">LAST_UPDATED_USER_ID</text>
<polygon fill="none" stroke="#000000" points="184.5,-125.2 184.5,-147.2 251.5,-147.2 251.5,-125.2 184.5,-125.2"/>
<text text-anchor="start" x="187.5" y="-132.9" font-family="Helvetica,sans-Serif" font-size="11.00" fill="#000000">number[38]</text>
<polygon fill="none" stroke="#000000" points="10.5,-103.2 10.5,-125.2 184.5,-125.2 184.5,-103.2 10.5,-103.2"/>
<text text-anchor="start" x="30.5" y="-110.3" font-family="Helvetica,sans-Serif" font-size="11.00" fill="#000000">ROW_VERSION</text>
<polygon fill="none" stroke="#000000" points="184.5,-103.2 184.5,-125.2 251.5,-125.2 251.5,-103.2 184.5,-103.2"/>
<text text-anchor="start" x="187.5" y="-110.9" font-family="Helvetica,sans-Serif" font-size="11.00" fill="#000000">number[38]</text>
<polygon fill="none" stroke="#000000" points="10.5,-81.2 10.5,-103.2 184.5,-103.2 184.5,-81.2 10.5,-81.2"/>
<text text-anchor="start" x="30.5" y="-88.3" font-family="Helvetica,sans-Serif" font-size="11.00" fill="#000000">CREATED_DATETIME</text>
<polygon fill="none" stroke="#000000" points="184.5,-81.2 184.5,-103.2 251.5,-103.2 251.5,-81.2 184.5,-81.2"/>
<text text-anchor="start" x="187.5" y="-88.9" font-family="Helvetica,sans-Serif" font-size="11.00" fill="#000000">date[7]</text>
<polygon fill="none" stroke="#000000" points="10.5,-59.2 10.5,-81.2 184.5,-81.2 184.5,-59.2 10.5,-59.2"/>
<text text-anchor="start" x="30.5" y="-66.3" font-family="Helvetica,sans-Serif" font-size="11.00" fill="#000000">LAST_UPDATED_DATETIME</text>
<polygon fill="none" stroke="#000000" points="184.5,-59.2 184.5,-81.2 251.5,-81.2 251.5,-59.2 184.5,-59.2"/>
<text text-anchor="start" x="187.5" y="-66.9" font-family="Helvetica,sans-Serif" font-size="11.00" fill="#000000">date[7]</text>
<polygon fill="#ffffff" stroke="transparent" points="10.5,-40.2 10.5,-59.2 85.5,-59.2 85.5,-40.2 10.5,-40.2"/>
<polygon fill="none" stroke="#000000" points="10.5,-40.2 10.5,-59.2 85.5,-59.2 85.5,-40.2 10.5,-40.2"/>
<text text-anchor="start" x="13.5" y="-46.3" font-family="Helvetica,sans-Serif" font-size="11.00" fill="#000000">&lt; 0</text>
<polygon fill="#ffffff" stroke="transparent" points="85.5,-40.2 85.5,-59.2 184.5,-59.2 184.5,-40.2 85.5,-40.2"/>
<polygon fill="none" stroke="#000000" points="85.5,-40.2 85.5,-59.2 184.5,-59.2 184.5,-40.2 85.5,-40.2"/>
<text text-anchor="start" x="142.9956" y="-46.3" font-family="Helvetica,sans-Serif" font-size="11.00" fill="#000000">29 rows</text>
<polygon fill="#ffffff" stroke="transparent" points="184.5,-40.2 184.5,-59.2 251.5,-59.2 251.5,-40.2 184.5,-40.2"/>
<polygon fill="none" stroke="#000000" points="184.5,-40.2 184.5,-59.2 251.5,-59.2 251.5,-40.2 184.5,-40.2"/>
<text text-anchor="start" x="232.9053" y="-46.3" font-family="Helvetica,sans-Serif" font-size="11.00" fill="#000000">1 &gt;</text>
<polygon fill="none" stroke="#000000" stroke-width="2" points="9,-39.2 9,-325.2 252,-325.2 252,-39.2 9,-39.2"/>
</a>
</g>
</g>
<!-- APPROVED_PREMISES_RESIDENCE&#45;&gt;R_MOVE_ON_CATEGORY -->
<g id="edge1" class="edge">
<title>APPROVED_PREMISES_RESIDENCE:w&#45;&gt;R_MOVE_ON_CATEGORY:e</title>
<path fill="none" stroke="#000000" d="M287.776,-290.2C275.7815,-290.2 268.3229,-290.2 251.5,-290.2"/>
<polygon fill="#000000" stroke="#000000" points="294.5,-290.2001 302.5,-293.8 298.5,-290.2 302.5,-290.2 302.5,-290.2 302.5,-290.2 298.5,-290.2 302.5,-286.6 294.5,-290.2001 294.5,-290.2001"/>
<ellipse fill="none" stroke="#000000" cx="291.3" cy="-290.2001" rx="3.2" ry="3.2"/>
</g>
</g>
</svg>
