<?xml version="1.0" encoding="UTF-8" standalone="no"?>
<!DOCTYPE svg PUBLIC "-//W3C//DTD SVG 1.1//EN"
 "http://www.w3.org/Graphics/SVG/1.1/DTD/svg11.dtd">
<!-- Generated by graphviz version 2.40.1 (20161225.0304)
 -->
<!-- Title: twoDegreesRelationshipsDiagram Pages: 1 -->
<svg width="790pt" height="923pt"
 viewBox="0.00 0.00 790.00 923.20" xmlns="http://www.w3.org/2000/svg" xmlns:xlink="http://www.w3.org/1999/xlink">
<g id="graph0" class="graph" transform="scale(1 1) rotate(0) translate(4 919.2)">
<title>twoDegreesRelationshipsDiagram</title>
<polygon fill="#ffffff" stroke="transparent" points="-4,4 -4,-919.2 786,-919.2 786,4 -4,4"/>
<text text-anchor="middle" x="72.4936" y="-7.3" font-family="Helvetica,sans-Serif" font-size="11.00" fill="#000000">Generated by SchemaSpy</text>
<!-- NSI -->
<g id="node1" class="node">
<title>NSI</title>
<g id="a_node1"><a xlink:href="../../tables/NSI.html" xlink:title="NSI" target="_top">
<polygon fill="#ffffff" stroke="transparent" points="608.5,-850.2 608.5,-911.2 706.5,-911.2 706.5,-850.2 608.5,-850.2"/>
<polygon fill="#f5f5f5" stroke="transparent" points="608.5,-887.7 608.5,-910.7 706.5,-910.7 706.5,-887.7 608.5,-887.7"/>
<polygon fill="none" stroke="#000000" points="608.5,-887.7 608.5,-910.7 706.5,-910.7 706.5,-887.7 608.5,-887.7"/>
<text text-anchor="start" x="613.5" y="-896.8" font-family="Helvetica,sans-Serif" font-weight="bold" font-size="11.00" fill="#000000">NSI</text>
<text text-anchor="start" x="671.5437" y="-895.8" font-family="Helvetica,sans-Serif" font-size="11.00" fill="#000000">[table]</text>
<polygon fill="none" stroke="#000000" points="608.5,-868.7 608.5,-887.7 706.5,-887.7 706.5,-868.7 608.5,-868.7"/>
<text text-anchor="start" x="611.5" y="-874.8" font-family="Helvetica,sans-Serif" font-size="11.00" fill="#000000">...</text>
<polygon fill="#ffffff" stroke="transparent" points="608.5,-849.7 608.5,-868.7 635.5,-868.7 635.5,-849.7 608.5,-849.7"/>
<polygon fill="none" stroke="#000000" points="608.5,-849.7 608.5,-868.7 635.5,-868.7 635.5,-849.7 608.5,-849.7"/>
<text text-anchor="start" x="611.1452" y="-855.8" font-family="Helvetica,sans-Serif" font-size="11.00" fill="#000000">&lt; 12</text>
<polygon fill="#ffffff" stroke="transparent" points="635.5,-849.7 635.5,-868.7 685.5,-868.7 685.5,-849.7 635.5,-849.7"/>
<polygon fill="none" stroke="#000000" points="635.5,-849.7 635.5,-868.7 685.5,-868.7 685.5,-849.7 635.5,-849.7"/>
<text text-anchor="start" x="638.1904" y="-855.8" font-family="Helvetica,sans-Serif" font-size="11.00" fill="#000000">718 rows</text>
<polygon fill="#ffffff" stroke="transparent" points="685.5,-849.7 685.5,-868.7 706.5,-868.7 706.5,-849.7 685.5,-849.7"/>
<polygon fill="none" stroke="#000000" points="685.5,-849.7 685.5,-868.7 706.5,-868.7 706.5,-849.7 685.5,-849.7"/>
<text text-anchor="start" x="688.2026" y="-855.8" font-family="Helvetica,sans-Serif" font-size="11.00" fill="#000000">6 &gt;</text>
</a>
</g>
</g>
<!-- R_STANDARD_REFERENCE_LIST -->
<g id="node2" class="node">
<title>R_STANDARD_REFERENCE_LIST</title>
<g id="a_node2"><a xlink:href="../../tables/R_STANDARD_REFERENCE_LIST.html" xlink:title="R_STANDARD_REFERENCE_LIST" target="_top">
<polygon fill="#ffffff" stroke="transparent" points="8,-442.2 8,-503.2 228,-503.2 228,-442.2 8,-442.2"/>
<polygon fill="#f5f5f5" stroke="transparent" points="8,-479.7 8,-502.7 228,-502.7 228,-479.7 8,-479.7"/>
<polygon fill="none" stroke="#000000" points="8,-479.7 8,-502.7 228,-502.7 228,-479.7 8,-479.7"/>
<text text-anchor="start" x="12.5842" y="-488.8" font-family="Helvetica,sans-Serif" font-weight="bold" font-size="11.00" fill="#000000">R_STANDARD_REFERENCE_LIST</text>
<text text-anchor="start" x="193.5219" y="-487.8" font-family="Helvetica,sans-Serif" font-size="11.00" fill="#000000">[table]</text>
<polygon fill="none" stroke="#000000" points="8,-460.7 8,-479.7 228,-479.7 228,-460.7 8,-460.7"/>
<text text-anchor="start" x="11" y="-466.8" font-family="Helvetica,sans-Serif" font-size="11.00" fill="#000000">...</text>
<polygon fill="#ffffff" stroke="transparent" points="8,-441.7 8,-460.7 79,-460.7 79,-441.7 8,-441.7"/>
<polygon fill="none" stroke="#000000" points="8,-441.7 8,-460.7 79,-460.7 79,-441.7 8,-441.7"/>
<text text-anchor="start" x="11" y="-447.8" font-family="Helvetica,sans-Serif" font-size="11.00" fill="#000000">&lt; 1</text>
<polygon fill="#ffffff" stroke="transparent" points="79,-441.7 79,-460.7 169,-460.7 169,-441.7 79,-441.7"/>
<polygon fill="none" stroke="#000000" points="79,-441.7 79,-460.7 169,-460.7 169,-441.7 79,-441.7"/>
<text text-anchor="start" x="106.094" y="-447.8" font-family="Helvetica,sans-Serif" font-size="11.00" fill="#000000">15,391 rows</text>
<polygon fill="#ffffff" stroke="transparent" points="169,-441.7 169,-460.7 228,-460.7 228,-441.7 169,-441.7"/>
<polygon fill="none" stroke="#000000" points="169,-441.7 169,-460.7 228,-460.7 228,-441.7 169,-441.7"/>
<text text-anchor="start" x="197.1755" y="-447.8" font-family="Helvetica,sans-Serif" font-size="11.00" fill="#000000">287 &gt;</text>
</a>
</g>
</g>
<!-- NSI&#45;&gt;R_STANDARD_REFERENCE_LIST -->
<g id="edge1" class="edge">
<title>NSI:w&#45;&gt;R_STANDARD_REFERENCE_LIST:e</title>
<path fill="none" stroke="#000000" d="M594.0813,-877.8597C522.7396,-879.0504 399.4387,-882.1571 269,-705.7 237.3584,-662.8953 281.23,-469.7 228,-469.7"/>
<polygon fill="#000000" stroke="#000000" points="600.5005,-877.7887 608.5399,-881.2998 604.5002,-877.7443 608.5,-877.7 608.5,-877.7 608.5,-877.7 604.5002,-877.7443 608.4601,-874.1002 600.5005,-877.7887 600.5005,-877.7887"/>
<ellipse fill="none" stroke="#000000" cx="597.3007" cy="-877.8241" rx="3.2" ry="3.2"/>
</g>
<!-- NSI&#45;&gt;R_STANDARD_REFERENCE_LIST -->
<g id="edge2" class="edge">
<title>NSI:w&#45;&gt;R_STANDARD_REFERENCE_LIST:e</title>
<path fill="none" stroke="#000000" d="M594.0703,-875.4254C520.7162,-865.2888 397.0627,-863.5961 269,-688.7 238.07,-646.4587 280.3544,-456.7 228,-469.7"/>
<polygon fill="#000000" stroke="#000000" points="600.5976,-876.4542 607.9394,-881.2561 604.5488,-877.0771 608.5,-877.7 608.5,-877.7 608.5,-877.7 604.5488,-877.0771 609.0606,-874.1439 600.5976,-876.4542 600.5976,-876.4542"/>
<ellipse fill="none" stroke="#000000" cx="597.4366" cy="-875.9559" rx="3.2" ry="3.2"/>
</g>
<!-- NSI&#45;&gt;R_STANDARD_REFERENCE_LIST -->
<g id="edge3" class="edge">
<title>NSI:w&#45;&gt;R_STANDARD_REFERENCE_LIST:e</title>
<path fill="none" stroke="#000000" d="M594.0703,-877.7805C520.7162,-878.2888 397.0627,-876.5961 269,-701.7 238.07,-659.4587 280.3544,-469.7 228,-469.7"/>
<polygon fill="#000000" stroke="#000000" points="600.5001,-877.7447 608.5201,-881.2999 604.5001,-877.7223 608.5,-877.7 608.5,-877.7 608.5,-877.7 604.5001,-877.7223 608.4799,-874.1001 600.5001,-877.7447 600.5001,-877.7447"/>
<ellipse fill="none" stroke="#000000" cx="597.3002" cy="-877.7626" rx="3.2" ry="3.2"/>
</g>
<!-- NSI&#45;&gt;R_STANDARD_REFERENCE_LIST -->
<g id="edge4" class="edge">
<title>NSI:w&#45;&gt;R_STANDARD_REFERENCE_LIST:e</title>
<path fill="none" stroke="#000000" d="M594.0703,-880.1356C520.7162,-891.2888 397.0627,-889.5961 269,-714.7 238.07,-672.4587 280.3544,-482.7 228,-469.7"/>
<polygon fill="#000000" stroke="#000000" points="600.6116,-879.0316 609.0992,-881.2498 604.5558,-878.3658 608.5,-877.7 608.5,-877.7 608.5,-877.7 604.5558,-878.3658 607.9008,-874.1502 600.6116,-879.0316 600.6116,-879.0316"/>
<ellipse fill="none" stroke="#000000" cx="597.4562" cy="-879.5642" rx="3.2" ry="3.2"/>
</g>
<!-- R_NSI_TYPE -->
<g id="node3" class="node">
<title>R_NSI_TYPE</title>
<g id="a_node3"><a xlink:href="../../tables/R_NSI_TYPE.html" xlink:title="R_NSI_TYPE" target="_top">
<polygon fill="#ffffff" stroke="transparent" points="277,-333.2 277,-592.2 492,-592.2 492,-333.2 277,-333.2"/>
<polygon fill="#f5f5f5" stroke="transparent" points="277.5,-568.7 277.5,-591.7 492.5,-591.7 492.5,-568.7 277.5,-568.7"/>
<polygon fill="none" stroke="#000000" points="277.5,-568.7 277.5,-591.7 492.5,-591.7 492.5,-568.7 277.5,-568.7"/>
<text text-anchor="start" x="282.5" y="-577.8" font-family="Helvetica,sans-Serif" font-weight="bold" font-size="11.00" fill="#000000">R_NSI_TYPE</text>
<text text-anchor="start" x="457.5437" y="-576.8" font-family="Helvetica,sans-Serif" font-size="11.00" fill="#000000">[table]</text>
<polygon fill="none" stroke="#000000" points="277.5,-546.7 277.5,-568.7 492.5,-568.7 492.5,-546.7 277.5,-546.7"/>
<image xlink:href="../../images/primaryKeys.png" width="11px" height="12px" preserveAspectRatio="xMinYMin meet" x="282.5" y="-563.7"/>
<text text-anchor="start" x="297.5" y="-553.8" font-family="Helvetica,sans-Serif" font-size="11.00" fill="#000000">NSI_TYPE_ID</text>
<polygon fill="none" stroke="#000000" points="277.5,-524.7 277.5,-546.7 492.5,-546.7 492.5,-524.7 277.5,-524.7"/>
<image xlink:href="../../images/primaryKeys.png" width="11px" height="12px" preserveAspectRatio="xMinYMin meet" x="282.5" y="-541.7"/>
<text text-anchor="start" x="297.5" y="-531.8" font-family="Helvetica,sans-Serif" font-size="11.00" fill="#000000">UNITS_ID</text>
<polygon fill="none" stroke="#000000" points="277.5,-502.7 277.5,-524.7 492.5,-524.7 492.5,-502.7 277.5,-502.7"/>
<image xlink:href="../../images/primaryKeys.png" width="11px" height="12px" preserveAspectRatio="xMinYMin meet" x="282.5" y="-519.7"/>
<text text-anchor="start" x="297.5" y="-509.8" font-family="Helvetica,sans-Serif" font-size="11.00" fill="#000000">TRAINING_SESSION_ID</text>
<polygon fill="none" stroke="#000000" points="277.5,-480.7 277.5,-502.7 492.5,-502.7 492.5,-480.7 277.5,-480.7"/>
<image xlink:href="../../images/primaryKeys.png" width="11px" height="12px" preserveAspectRatio="xMinYMin meet" x="282.5" y="-497.7"/>
<text text-anchor="start" x="297.5" y="-487.8" font-family="Helvetica,sans-Serif" font-size="11.00" fill="#000000">NSI_PURPOSE_ID</text>
<polygon fill="none" stroke="#000000" points="277.5,-458.7 277.5,-480.7 492.5,-480.7 492.5,-458.7 277.5,-458.7"/>
<image xlink:href="../../images/primaryKeys.png" width="11px" height="12px" preserveAspectRatio="xMinYMin meet" x="282.5" y="-475.7"/>
<text text-anchor="start" x="297.5" y="-465.8" font-family="Helvetica,sans-Serif" font-size="11.00" fill="#000000">NSI_TRANSFER_TYPE_ID</text>
<polygon fill="none" stroke="#000000" points="277.5,-436.7 277.5,-458.7 492.5,-458.7 492.5,-436.7 277.5,-436.7"/>
<image xlink:href="../../images/primaryKeys.png" width="11px" height="12px" preserveAspectRatio="xMinYMin meet" x="282.5" y="-453.7"/>
<text text-anchor="start" x="296.855" y="-443.8" font-family="Helvetica,sans-Serif" font-size="11.00" fill="#000000">ADDITIONAL_IDENTIFIER_TYPE1_ID</text>
<polygon fill="none" stroke="#000000" points="277.5,-414.7 277.5,-436.7 492.5,-436.7 492.5,-414.7 277.5,-414.7"/>
<image xlink:href="../../images/primaryKeys.png" width="11px" height="12px" preserveAspectRatio="xMinYMin meet" x="282.5" y="-431.7"/>
<text text-anchor="start" x="296.855" y="-421.8" font-family="Helvetica,sans-Serif" font-size="11.00" fill="#000000">ADDITIONAL_IDENTIFIER_TYPE2_ID</text>
<polygon fill="none" stroke="#000000" points="277.5,-392.7 277.5,-414.7 492.5,-414.7 492.5,-392.7 277.5,-392.7"/>
<image xlink:href="../../images/primaryKeys.png" width="11px" height="12px" preserveAspectRatio="xMinYMin meet" x="282.5" y="-409.7"/>
<text text-anchor="start" x="297.5" y="-399.8" font-family="Helvetica,sans-Serif" font-size="11.00" fill="#000000">ADDITIONAL_REFERENCE_1_ID</text>
<polygon fill="none" stroke="#000000" points="277.5,-370.7 277.5,-392.7 492.5,-392.7 492.5,-370.7 277.5,-370.7"/>
<image xlink:href="../../images/primaryKeys.png" width="11px" height="12px" preserveAspectRatio="xMinYMin meet" x="282.5" y="-387.7"/>
<text text-anchor="start" x="297.5" y="-377.8" font-family="Helvetica,sans-Serif" font-size="11.00" fill="#000000">ADDITIONAL_REFERENCE_2_ID</text>
<polygon fill="none" stroke="#000000" points="277.5,-351.7 277.5,-370.7 492.5,-370.7 492.5,-351.7 277.5,-351.7"/>
<text text-anchor="start" x="280.5" y="-357.8" font-family="Helvetica,sans-Serif" font-size="11.00" fill="#000000">...</text>
<polygon fill="#ffffff" stroke="transparent" points="277.5,-332.7 277.5,-351.7 356.5,-351.7 356.5,-332.7 277.5,-332.7"/>
<polygon fill="none" stroke="#000000" points="277.5,-332.7 277.5,-351.7 356.5,-351.7 356.5,-332.7 277.5,-332.7"/>
<text text-anchor="start" x="280.5" y="-338.8" font-family="Helvetica,sans-Serif" font-size="11.00" fill="#000000">&lt; 7</text>
<polygon fill="#ffffff" stroke="transparent" points="356.5,-332.7 356.5,-351.7 435.5,-351.7 435.5,-332.7 356.5,-332.7"/>
<polygon fill="none" stroke="#000000" points="356.5,-332.7 356.5,-351.7 435.5,-351.7 435.5,-332.7 356.5,-332.7"/>
<text text-anchor="start" x="387.8807" y="-338.8" font-family="Helvetica,sans-Serif" font-size="11.00" fill="#000000">570 rows</text>
<polygon fill="#ffffff" stroke="transparent" points="435.5,-332.7 435.5,-351.7 492.5,-351.7 492.5,-332.7 435.5,-332.7"/>
<polygon fill="none" stroke="#000000" points="435.5,-332.7 435.5,-351.7 492.5,-351.7 492.5,-332.7 435.5,-332.7"/>
<text text-anchor="start" x="467.7904" y="-338.8" font-family="Helvetica,sans-Serif" font-size="11.00" fill="#000000">10 &gt;</text>
</a>
</g>
</g>
<!-- NSI&#45;&gt;R_NSI_TYPE -->
<g id="edge5" class="edge">
<title>NSI:w&#45;&gt;R_NSI_TYPE:e</title>
<path fill="none" stroke="#000000" d="M593.8549,-877.2117C566.3172,-875.1348 551.8515,-865.9075 533,-839.7 496.031,-788.3054 555.8096,-557.7 492.5,-557.7"/>
<polygon fill="#000000" stroke="#000000" points="600.5044,-877.4334 608.38,-881.298 604.5022,-877.5667 608.5,-877.7 608.5,-877.7 608.5,-877.7 604.5022,-877.5667 608.62,-874.102 600.5044,-877.4334 600.5044,-877.4334"/>
<ellipse fill="none" stroke="#000000" cx="597.3062" cy="-877.3267" rx="3.2" ry="3.2"/>
</g>
<!-- R_NSI_TYPE&#45;&gt;R_STANDARD_REFERENCE_LIST -->
<g id="edge12" class="edge">
<title>R_NSI_TYPE:w&#45;&gt;R_STANDARD_REFERENCE_LIST:e</title>
<path fill="none" stroke="#000000" d="M263.3612,-450.9462C251.4382,-457.0658 246.2443,-469.7 228,-469.7"/>
<polygon fill="#000000" stroke="#000000" points="269.7029,-449.4902 278.3056,-451.2087 273.6014,-448.5951 277.5,-447.7 277.5,-447.7 277.5,-447.7 273.6014,-448.5951 276.6944,-444.1913 269.7029,-449.4902 269.7029,-449.4902"/>
<ellipse fill="none" stroke="#000000" cx="266.584" cy="-450.2063" rx="3.2" ry="3.2"/>
</g>
<!-- R_NSI_TYPE&#45;&gt;R_STANDARD_REFERENCE_LIST -->
<g id="edge13" class="edge">
<title>R_NSI_TYPE:w&#45;&gt;R_STANDARD_REFERENCE_LIST:e</title>
<path fill="none" stroke="#000000" d="M263.7159,-430.4088C250.2705,-441.7596 251.456,-469.7 228,-469.7"/>
<polygon fill="#000000" stroke="#000000" points="269.9295,-428.2862 278.6638,-429.1067 273.7148,-426.9931 277.5,-425.7 277.5,-425.7 277.5,-425.7 273.7148,-426.9931 276.3362,-422.2933 269.9295,-428.2862 269.9295,-428.2862"/>
<ellipse fill="none" stroke="#000000" cx="266.9013" cy="-429.3206" rx="3.2" ry="3.2"/>
</g>
<!-- R_NSI_TYPE&#45;&gt;R_STANDARD_REFERENCE_LIST -->
<g id="edge14" class="edge">
<title>R_NSI_TYPE:w&#45;&gt;R_STANDARD_REFERENCE_LIST:e</title>
<path fill="none" stroke="#000000" d="M263.8041,-408.4466C247.0252,-423.5798 258.651,-469.7 228,-469.7"/>
<polygon fill="#000000" stroke="#000000" points="269.9411,-406.3197 278.6789,-407.1015 273.7205,-405.0099 277.5,-403.7 277.5,-403.7 277.5,-403.7 273.7205,-405.0099 276.3211,-400.2985 269.9411,-406.3197 269.9411,-406.3197"/>
<ellipse fill="none" stroke="#000000" cx="266.9175" cy="-407.3676" rx="3.2" ry="3.2"/>
</g>
<!-- R_NSI_TYPE&#45;&gt;R_STANDARD_REFERENCE_LIST -->
<g id="edge15" class="edge">
<title>R_NSI_TYPE:w&#45;&gt;R_STANDARD_REFERENCE_LIST:e</title>
<path fill="none" stroke="#000000" d="M263.7261,-385.9444C241.8154,-403.5228 266.9142,-469.7 228,-469.7"/>
<polygon fill="#000000" stroke="#000000" points="269.8547,-384.0559 278.5602,-385.1404 273.6774,-382.878 277.5,-381.7 277.5,-381.7 277.5,-381.7 273.6774,-382.878 276.4398,-378.2596 269.8547,-384.0559 269.8547,-384.0559"/>
<ellipse fill="none" stroke="#000000" cx="266.7966" cy="-384.9983" rx="3.2" ry="3.2"/>
</g>
<!-- R_NSI_TYPE&#45;&gt;R_STANDARD_REFERENCE_LIST -->
<g id="edge16" class="edge">
<title>R_NSI_TYPE:w&#45;&gt;R_STANDARD_REFERENCE_LIST:e</title>
<path fill="none" stroke="#000000" d="M263.3612,-488.4538C251.4382,-482.3342 246.2443,-469.7 228,-469.7"/>
<polygon fill="#000000" stroke="#000000" points="269.7029,-489.9098 276.6944,-495.2087 273.6014,-490.8049 277.5,-491.7 277.5,-491.7 277.5,-491.7 273.6014,-490.8049 278.3056,-488.1913 269.7029,-489.9098 269.7029,-489.9098"/>
<ellipse fill="none" stroke="#000000" cx="266.584" cy="-489.1937" rx="3.2" ry="3.2"/>
</g>
<!-- R_NSI_TYPE&#45;&gt;R_STANDARD_REFERENCE_LIST -->
<g id="edge17" class="edge">
<title>R_NSI_TYPE:w&#45;&gt;R_STANDARD_REFERENCE_LIST:e</title>
<path fill="none" stroke="#000000" d="M262.8428,-469.7C251.4139,-469.7 244.1563,-469.7 228,-469.7"/>
<polygon fill="#000000" stroke="#000000" points="269.5,-469.7001 277.5,-473.3 273.5,-469.7 277.5,-469.7 277.5,-469.7 277.5,-469.7 273.5,-469.7 277.5,-466.1 269.5,-469.7001 269.5,-469.7001"/>
<ellipse fill="none" stroke="#000000" cx="266.3" cy="-469.7001" rx="3.2" ry="3.2"/>
</g>
<!-- R_NSI_TYPE&#45;&gt;R_STANDARD_REFERENCE_LIST -->
<g id="edge18" class="edge">
<title>R_NSI_TYPE:w&#45;&gt;R_STANDARD_REFERENCE_LIST:e</title>
<path fill="none" stroke="#000000" d="M263.8041,-530.9534C247.0252,-515.8202 258.651,-469.7 228,-469.7"/>
<polygon fill="#000000" stroke="#000000" points="269.9411,-533.0803 276.3211,-539.1015 273.7205,-534.3901 277.5,-535.7 277.5,-535.7 277.5,-535.7 273.7205,-534.3901 278.6789,-532.2985 269.9411,-533.0803 269.9411,-533.0803"/>
<ellipse fill="none" stroke="#000000" cx="266.9175" cy="-532.0324" rx="3.2" ry="3.2"/>
</g>
<!-- R_CONTACT_TYPE_NSI_TYPE -->
<g id="node4" class="node">
<title>R_CONTACT_TYPE_NSI_TYPE</title>
<g id="a_node4"><a xlink:href="../../tables/R_CONTACT_TYPE_NSI_TYPE.html" xlink:title="R_CONTACT_TYPE_NSI_TYPE" target="_top">
<polygon fill="#ffffff" stroke="transparent" points="555.5,-686.2 555.5,-747.2 759.5,-747.2 759.5,-686.2 555.5,-686.2"/>
<polygon fill="#f5f5f5" stroke="transparent" points="555.5,-723.7 555.5,-746.7 759.5,-746.7 759.5,-723.7 555.5,-723.7"/>
<polygon fill="none" stroke="#000000" points="555.5,-723.7 555.5,-746.7 759.5,-746.7 759.5,-723.7 555.5,-723.7"/>
<text text-anchor="start" x="560.3276" y="-732.8" font-family="Helvetica,sans-Serif" font-weight="bold" font-size="11.00" fill="#000000">R_CONTACT_TYPE_NSI_TYPE</text>
<text text-anchor="start" x="725.0219" y="-731.8" font-family="Helvetica,sans-Serif" font-size="11.00" fill="#000000">[table]</text>
<polygon fill="none" stroke="#000000" points="555.5,-704.7 555.5,-723.7 759.5,-723.7 759.5,-704.7 555.5,-704.7"/>
<text text-anchor="start" x="558.5" y="-710.8" font-family="Helvetica,sans-Serif" font-size="11.00" fill="#000000">...</text>
<polygon fill="#ffffff" stroke="transparent" points="555.5,-685.7 555.5,-704.7 639.5,-704.7 639.5,-685.7 555.5,-685.7"/>
<polygon fill="none" stroke="#000000" points="555.5,-685.7 555.5,-704.7 639.5,-704.7 639.5,-685.7 555.5,-685.7"/>
<text text-anchor="start" x="558.5" y="-691.8" font-family="Helvetica,sans-Serif" font-size="11.00" fill="#000000">&lt; 2</text>
<polygon fill="#ffffff" stroke="transparent" points="639.5,-685.7 639.5,-704.7 715.5,-704.7 715.5,-685.7 639.5,-685.7"/>
<polygon fill="none" stroke="#000000" points="639.5,-685.7 639.5,-704.7 715.5,-704.7 715.5,-685.7 639.5,-685.7"/>
<text text-anchor="start" x="673.9956" y="-691.8" font-family="Helvetica,sans-Serif" font-size="11.00" fill="#000000">80 rows</text>
<polygon fill="#ffffff" stroke="transparent" points="715.5,-685.7 715.5,-704.7 759.5,-704.7 759.5,-685.7 715.5,-685.7"/>
<polygon fill="none" stroke="#000000" points="715.5,-685.7 715.5,-704.7 759.5,-704.7 759.5,-685.7 715.5,-685.7"/>
<text text-anchor="start" x="750.3862" y="-691.8" font-family="Helvetica,sans-Serif" font-size="11.00" fill="#000000"> &#160;</text>
</a>
</g>
</g>
<!-- R_CONTACT_TYPE_NSI_TYPE&#45;&gt;R_NSI_TYPE -->
<g id="edge6" class="edge">
<title>R_CONTACT_TYPE_NSI_TYPE:w&#45;&gt;R_NSI_TYPE:e</title>
<path fill="none" stroke="#000000" d="M541.0785,-711.1225C492.9752,-690.8395 561.5781,-557.7 492.5,-557.7"/>
<polygon fill="#000000" stroke="#000000" points="547.6248,-712.2924 554.8666,-717.2438 551.5624,-712.9962 555.5,-713.7 555.5,-713.7 555.5,-713.7 551.5624,-712.9962 556.1334,-710.1562 547.6248,-712.2924 547.6248,-712.2924"/>
<ellipse fill="none" stroke="#000000" cx="544.4747" cy="-711.7294" rx="3.2" ry="3.2"/>
</g>
<!-- R_NOMIS_TYPE_NSI_TYPE -->
<g id="node5" class="node">
<title>R_NOMIS_TYPE_NSI_TYPE</title>
<g id="a_node5"><a xlink:href="../../tables/R_NOMIS_TYPE_NSI_TYPE.html" xlink:title="R_NOMIS_TYPE_NSI_TYPE" target="_top">
<polygon fill="#ffffff" stroke="transparent" points="541,-530.7 541,-664.7 774,-664.7 774,-530.7 541,-530.7"/>
<polygon fill="#f5f5f5" stroke="transparent" points="543.5,-639.7 543.5,-662.7 772.5,-662.7 772.5,-639.7 543.5,-639.7"/>
<polygon fill="none" stroke="#000000" points="543.5,-639.7 543.5,-662.7 772.5,-662.7 772.5,-639.7 543.5,-639.7"/>
<text text-anchor="start" x="548.5" y="-648.8" font-family="Helvetica,sans-Serif" font-weight="bold" font-size="11.00" fill="#000000">R_NOMIS_TYPE_NSI_TYPE</text>
<text text-anchor="start" x="737.5437" y="-647.8" font-family="Helvetica,sans-Serif" font-size="11.00" fill="#000000">[table]</text>
<polygon fill="none" stroke="#000000" points="543.5,-617.7 543.5,-639.7 705.5,-639.7 705.5,-617.7 543.5,-617.7"/>
<image xlink:href="../../images/primaryKeys.png" width="11px" height="12px" preserveAspectRatio="xMinYMin meet" x="548.5" y="-634.7"/>
<text text-anchor="start" x="558.3506" y="-624.8" font-family="Helvetica,sans-Serif" font-size="11.00" fill="#000000">NOMIS_TYPE_NSI_TYPE_ID</text>
<polygon fill="none" stroke="#000000" points="705.5,-617.7 705.5,-639.7 772.5,-639.7 772.5,-617.7 705.5,-617.7"/>
<text text-anchor="start" x="708.5" y="-625.4" font-family="Helvetica,sans-Serif" font-size="11.00" fill="#000000">number[38]</text>
<polygon fill="none" stroke="#000000" points="543.5,-595.7 543.5,-617.7 705.5,-617.7 705.5,-595.7 543.5,-595.7"/>
<text text-anchor="start" x="563.5" y="-602.8" font-family="Helvetica,sans-Serif" font-size="11.00" fill="#000000">NOMIS_CONTACT_TYPE</text>
<polygon fill="none" stroke="#000000" points="705.5,-595.7 705.5,-617.7 772.5,-617.7 772.5,-595.7 705.5,-595.7"/>
<text text-anchor="start" x="708.4365" y="-603.4" font-family="Helvetica,sans-Serif" font-size="11.00" fill="#000000">varchar2[32]</text>
<polygon fill="none" stroke="#000000" points="543.5,-573.7 543.5,-595.7 705.5,-595.7 705.5,-573.7 543.5,-573.7"/>
<image xlink:href="../../images/primaryKeys.png" width="11px" height="12px" preserveAspectRatio="xMinYMin meet" x="548.5" y="-590.7"/>
<text text-anchor="start" x="563.5" y="-580.8" font-family="Helvetica,sans-Serif" font-size="11.00" fill="#000000">NSI_TYPE_ID</text>
<polygon fill="none" stroke="#000000" points="705.5,-573.7 705.5,-595.7 772.5,-595.7 772.5,-573.7 705.5,-573.7"/>
<text text-anchor="start" x="708.5" y="-581.4" font-family="Helvetica,sans-Serif" font-size="11.00" fill="#000000">number[38]</text>
<polygon fill="none" stroke="#000000" points="543.5,-551.7 543.5,-573.7 705.5,-573.7 705.5,-551.7 543.5,-551.7"/>
<text text-anchor="start" x="563.5" y="-558.8" font-family="Helvetica,sans-Serif" font-size="11.00" fill="#000000">NSI_LEVEL</text>
<polygon fill="none" stroke="#000000" points="705.5,-551.7 705.5,-573.7 772.5,-573.7 772.5,-551.7 705.5,-551.7"/>
<text text-anchor="start" x="708.4365" y="-559.4" font-family="Helvetica,sans-Serif" font-size="11.00" fill="#000000">varchar2[20]</text>
<polygon fill="#ffffff" stroke="transparent" points="543.5,-532.7 543.5,-551.7 612.5,-551.7 612.5,-532.7 543.5,-532.7"/>
<polygon fill="none" stroke="#000000" points="543.5,-532.7 543.5,-551.7 612.5,-551.7 612.5,-532.7 543.5,-532.7"/>
<text text-anchor="start" x="546.5" y="-538.8" font-family="Helvetica,sans-Serif" font-size="11.00" fill="#000000">&lt; 1</text>
<polygon fill="#ffffff" stroke="transparent" points="612.5,-532.7 612.5,-551.7 705.5,-551.7 705.5,-532.7 612.5,-532.7"/>
<polygon fill="none" stroke="#000000" points="612.5,-532.7 612.5,-551.7 705.5,-551.7 705.5,-532.7 612.5,-532.7"/>
<text text-anchor="start" x="663.9956" y="-538.8" font-family="Helvetica,sans-Serif" font-size="11.00" fill="#000000">49 rows</text>
<polygon fill="#ffffff" stroke="transparent" points="705.5,-532.7 705.5,-551.7 772.5,-551.7 772.5,-532.7 705.5,-532.7"/>
<polygon fill="none" stroke="#000000" points="705.5,-532.7 705.5,-551.7 772.5,-551.7 772.5,-532.7 705.5,-532.7"/>
<text text-anchor="start" x="753.9053" y="-538.8" font-family="Helvetica,sans-Serif" font-size="11.00" fill="#000000">0 &gt;</text>
<polygon fill="none" stroke="#000000" stroke-width="2" points="542,-531.7 542,-663.7 773,-663.7 773,-531.7 542,-531.7"/>
</a>
</g>
</g>
<!-- R_NOMIS_TYPE_NSI_TYPE&#45;&gt;R_NSI_TYPE -->
<g id="edge7" class="edge">
<title>R_NOMIS_TYPE_NSI_TYPE:w&#45;&gt;R_NSI_TYPE:e</title>
<path fill="none" stroke="#000000" d="M529.4593,-581.1702C516.6546,-573.8516 512.3365,-557.7 492.5,-557.7"/>
<polygon fill="#000000" stroke="#000000" points="535.7414,-582.7495 542.6223,-588.1914 539.6207,-583.7247 543.5,-584.7 543.5,-584.7 543.5,-584.7 539.6207,-583.7247 544.3777,-581.2086 535.7414,-582.7495 535.7414,-582.7495"/>
<ellipse fill="none" stroke="#000000" cx="532.638" cy="-581.9693" rx="3.2" ry="3.2"/>
</g>
<!-- R_NSI_REJECTION_REASON -->
<g id="node6" class="node">
<title>R_NSI_REJECTION_REASON</title>
<g id="a_node6"><a xlink:href="../../tables/R_NSI_REJECTION_REASON.html" xlink:title="R_NSI_REJECTION_REASON" target="_top">
<polygon fill="#ffffff" stroke="transparent" points="559.5,-768.2 559.5,-829.2 755.5,-829.2 755.5,-768.2 559.5,-768.2"/>
<polygon fill="#f5f5f5" stroke="transparent" points="559.5,-805.7 559.5,-828.7 755.5,-828.7 755.5,-805.7 559.5,-805.7"/>
<polygon fill="none" stroke="#000000" points="559.5,-805.7 559.5,-828.7 755.5,-828.7 755.5,-805.7 559.5,-805.7"/>
<text text-anchor="start" x="564.3031" y="-814.8" font-family="Helvetica,sans-Serif" font-weight="bold" font-size="11.00" fill="#000000">R_NSI_REJECTION_REASON</text>
<text text-anchor="start" x="721.0219" y="-813.8" font-family="Helvetica,sans-Serif" font-size="11.00" fill="#000000">[table]</text>
<polygon fill="none" stroke="#000000" points="559.5,-786.7 559.5,-805.7 755.5,-805.7 755.5,-786.7 559.5,-786.7"/>
<text text-anchor="start" x="562.5" y="-792.8" font-family="Helvetica,sans-Serif" font-size="11.00" fill="#000000">...</text>
<polygon fill="#ffffff" stroke="transparent" points="559.5,-767.7 559.5,-786.7 639.5,-786.7 639.5,-767.7 559.5,-767.7"/>
<polygon fill="none" stroke="#000000" points="559.5,-767.7 559.5,-786.7 639.5,-786.7 639.5,-767.7 559.5,-767.7"/>
<text text-anchor="start" x="562.5" y="-773.8" font-family="Helvetica,sans-Serif" font-size="11.00" fill="#000000">&lt; 2</text>
<polygon fill="#ffffff" stroke="transparent" points="639.5,-767.7 639.5,-786.7 713.5,-786.7 713.5,-767.7 639.5,-767.7"/>
<polygon fill="none" stroke="#000000" points="639.5,-767.7 639.5,-786.7 713.5,-786.7 713.5,-767.7 639.5,-767.7"/>
<text text-anchor="start" x="671.9956" y="-773.8" font-family="Helvetica,sans-Serif" font-size="11.00" fill="#000000">32 rows</text>
<polygon fill="#ffffff" stroke="transparent" points="713.5,-767.7 713.5,-786.7 755.5,-786.7 755.5,-767.7 713.5,-767.7"/>
<polygon fill="none" stroke="#000000" points="713.5,-767.7 713.5,-786.7 755.5,-786.7 755.5,-767.7 713.5,-767.7"/>
<text text-anchor="start" x="746.3862" y="-773.8" font-family="Helvetica,sans-Serif" font-size="11.00" fill="#000000"> &#160;</text>
</a>
</g>
</g>
<!-- R_NSI_REJECTION_REASON&#45;&gt;R_STANDARD_REFERENCE_LIST -->
<g id="edge9" class="edge">
<title>R_NSI_REJECTION_REASON:w&#45;&gt;R_STANDARD_REFERENCE_LIST:e</title>
<path fill="none" stroke="#000000" d="M544.8583,-795.486C401.6871,-791.2064 358.792,-722.8716 269,-602.7 231.9753,-553.1486 289.8561,-469.7 228,-469.7"/>
<polygon fill="#000000" stroke="#000000" points="551.5009,-795.583 559.4474,-799.2996 555.5004,-795.6415 559.5,-795.7 559.5,-795.7 559.5,-795.7 555.5004,-795.6415 559.5526,-792.1004 551.5009,-795.583 551.5009,-795.583"/>
<ellipse fill="none" stroke="#000000" cx="548.3012" cy="-795.5363" rx="3.2" ry="3.2"/>
</g>
<!-- R_NSI_REJECTION_REASON&#45;&gt;R_NSI_TYPE -->
<g id="edge8" class="edge">
<title>R_NSI_REJECTION_REASON:w&#45;&gt;R_NSI_TYPE:e</title>
<path fill="none" stroke="#000000" d="M545.8617,-790.6992C539.2743,-783.7947 538.5695,-770.714 533,-757.7 515.1585,-716.0108 537.8465,-557.7 492.5,-557.7"/>
<polygon fill="#000000" stroke="#000000" points="551.989,-792.9459 558.2607,-799.08 555.7445,-794.3229 559.5,-795.7 559.5,-795.7 559.5,-795.7 555.7445,-794.3229 560.7393,-792.32 551.989,-792.9459 551.989,-792.9459"/>
<ellipse fill="none" stroke="#000000" cx="548.9846" cy="-791.8442" rx="3.2" ry="3.2"/>
</g>
<!-- R_NSI_TRANSFER_REASON -->
<g id="node7" class="node">
<title>R_NSI_TRANSFER_REASON</title>
<g id="a_node7"><a xlink:href="../../tables/R_NSI_TRANSFER_REASON.html" xlink:title="R_NSI_TRANSFER_REASON" target="_top">
<polygon fill="#ffffff" stroke="transparent" points="561,-202.2 561,-263.2 754,-263.2 754,-202.2 561,-202.2"/>
<polygon fill="#f5f5f5" stroke="transparent" points="561.5,-239.7 561.5,-262.7 754.5,-262.7 754.5,-239.7 561.5,-239.7"/>
<polygon fill="none" stroke="#000000" points="561.5,-239.7 561.5,-262.7 754.5,-262.7 754.5,-239.7 561.5,-239.7"/>
<text text-anchor="start" x="566.3321" y="-248.8" font-family="Helvetica,sans-Serif" font-weight="bold" font-size="11.00" fill="#000000">R_NSI_TRANSFER_REASON</text>
<text text-anchor="start" x="720.0219" y="-247.8" font-family="Helvetica,sans-Serif" font-size="11.00" fill="#000000">[table]</text>
<polygon fill="none" stroke="#000000" points="561.5,-220.7 561.5,-239.7 754.5,-239.7 754.5,-220.7 561.5,-220.7"/>
<text text-anchor="start" x="564.5" y="-226.8" font-family="Helvetica,sans-Serif" font-size="11.00" fill="#000000">...</text>
<polygon fill="#ffffff" stroke="transparent" points="561.5,-201.7 561.5,-220.7 640.5,-220.7 640.5,-201.7 561.5,-201.7"/>
<polygon fill="none" stroke="#000000" points="561.5,-201.7 561.5,-220.7 640.5,-220.7 640.5,-201.7 561.5,-201.7"/>
<text text-anchor="start" x="564.5" y="-207.8" font-family="Helvetica,sans-Serif" font-size="11.00" fill="#000000">&lt; 2</text>
<polygon fill="#ffffff" stroke="transparent" points="640.5,-201.7 640.5,-220.7 713.5,-220.7 713.5,-201.7 640.5,-201.7"/>
<polygon fill="none" stroke="#000000" points="640.5,-201.7 640.5,-220.7 713.5,-220.7 713.5,-201.7 640.5,-201.7"/>
<text text-anchor="start" x="671.9956" y="-207.8" font-family="Helvetica,sans-Serif" font-size="11.00" fill="#000000">41 rows</text>
<polygon fill="#ffffff" stroke="transparent" points="713.5,-201.7 713.5,-220.7 754.5,-220.7 754.5,-201.7 713.5,-201.7"/>
<polygon fill="none" stroke="#000000" points="713.5,-201.7 713.5,-220.7 754.5,-220.7 754.5,-201.7 713.5,-201.7"/>
<text text-anchor="start" x="745.3862" y="-207.8" font-family="Helvetica,sans-Serif" font-size="11.00" fill="#000000"> &#160;</text>
</a>
</g>
</g>
<!-- R_NSI_TRANSFER_REASON&#45;&gt;R_STANDARD_REFERENCE_LIST -->
<g id="edge11" class="edge">
<title>R_NSI_TRANSFER_REASON:w&#45;&gt;R_STANDARD_REFERENCE_LIST:e</title>
<path fill="none" stroke="#000000" d="M547.0019,-229.6849C420.6085,-229.4612 360.2921,-228.0758 269,-322.7 221.9063,-371.5126 295.8269,-469.7 228,-469.7"/>
<polygon fill="#000000" stroke="#000000" points="553.5,-229.6916 561.4962,-233.3 557.5,-229.6958 561.5,-229.7 561.5,-229.7 561.5,-229.7 557.5,-229.6958 561.5038,-226.1 553.5,-229.6916 553.5,-229.6916"/>
<ellipse fill="none" stroke="#000000" cx="550.3" cy="-229.6882" rx="3.2" ry="3.2"/>
</g>
<!-- R_NSI_TRANSFER_REASON&#45;&gt;R_NSI_TYPE -->
<g id="edge10" class="edge">
<title>R_NSI_TRANSFER_REASON:w&#45;&gt;R_NSI_TYPE:e</title>
<path fill="none" stroke="#000000" d="M547.6553,-234.5912C497.7671,-275.3933 561.6016,-557.7 492.5,-557.7"/>
<polygon fill="#000000" stroke="#000000" points="553.9569,-232.3649 562.6992,-233.0944 557.7284,-231.0325 561.5,-229.7 561.5,-229.7 561.5,-229.7 557.7284,-231.0325 560.3008,-226.3056 553.9569,-232.3649 553.9569,-232.3649"/>
<ellipse fill="none" stroke="#000000" cx="550.9397" cy="-233.4309" rx="3.2" ry="3.2"/>
</g>
<!-- R_NSI_TYPE_OUTCOME -->
<g id="node8" class="node">
<title>R_NSI_TYPE_OUTCOME</title>
<g id="a_node8"><a xlink:href="../../tables/R_NSI_TYPE_OUTCOME.html" xlink:title="R_NSI_TYPE_OUTCOME" target="_top">
<polygon fill="#ffffff" stroke="transparent" points="571.5,-120.2 571.5,-181.2 743.5,-181.2 743.5,-120.2 571.5,-120.2"/>
<polygon fill="#f5f5f5" stroke="transparent" points="571.5,-157.7 571.5,-180.7 743.5,-180.7 743.5,-157.7 571.5,-157.7"/>
<polygon fill="none" stroke="#000000" points="571.5,-157.7 571.5,-180.7 743.5,-180.7 743.5,-157.7 571.5,-157.7"/>
<text text-anchor="start" x="576.2199" y="-166.8" font-family="Helvetica,sans-Serif" font-weight="bold" font-size="11.00" fill="#000000">R_NSI_TYPE_OUTCOME</text>
<text text-anchor="start" x="709.0219" y="-165.8" font-family="Helvetica,sans-Serif" font-size="11.00" fill="#000000">[table]</text>
<polygon fill="none" stroke="#000000" points="571.5,-138.7 571.5,-157.7 743.5,-157.7 743.5,-138.7 571.5,-138.7"/>
<text text-anchor="start" x="574.5" y="-144.8" font-family="Helvetica,sans-Serif" font-size="11.00" fill="#000000">...</text>
<polygon fill="#ffffff" stroke="transparent" points="571.5,-119.7 571.5,-138.7 636.5,-138.7 636.5,-119.7 571.5,-119.7"/>
<polygon fill="none" stroke="#000000" points="571.5,-119.7 571.5,-138.7 636.5,-138.7 636.5,-119.7 571.5,-119.7"/>
<text text-anchor="start" x="574.5" y="-125.8" font-family="Helvetica,sans-Serif" font-size="11.00" fill="#000000">&lt; 2</text>
<polygon fill="#ffffff" stroke="transparent" points="636.5,-119.7 636.5,-138.7 708.5,-138.7 708.5,-119.7 636.5,-119.7"/>
<polygon fill="none" stroke="#000000" points="636.5,-119.7 636.5,-138.7 708.5,-138.7 708.5,-119.7 636.5,-119.7"/>
<text text-anchor="start" x="660.8807" y="-125.8" font-family="Helvetica,sans-Serif" font-size="11.00" fill="#000000">102 rows</text>
<polygon fill="#ffffff" stroke="transparent" points="708.5,-119.7 708.5,-138.7 743.5,-138.7 743.5,-119.7 708.5,-119.7"/>
<polygon fill="none" stroke="#000000" points="708.5,-119.7 708.5,-138.7 743.5,-138.7 743.5,-119.7 708.5,-119.7"/>
<text text-anchor="start" x="734.3862" y="-125.8" font-family="Helvetica,sans-Serif" font-size="11.00" fill="#000000"> &#160;</text>
</a>
</g>
</g>
<!-- R_NSI_TYPE_OUTCOME&#45;&gt;R_STANDARD_REFERENCE_LIST -->
<g id="edge19" class="edge">
<title>R_NSI_TYPE_OUTCOME:w&#45;&gt;R_STANDARD_REFERENCE_LIST:e</title>
<path fill="none" stroke="#000000" d="M557.0974,-147.6194C427.6142,-146.2037 359.5242,-127.8075 269,-226.7 232.0234,-267.0948 282.7632,-469.7 228,-469.7"/>
<polygon fill="#000000" stroke="#000000" points="563.5001,-147.6552 571.4798,-151.2999 567.5001,-147.6776 571.5,-147.7 571.5,-147.7 571.5,-147.7 567.5001,-147.6776 571.5202,-144.1001 563.5001,-147.6552 563.5001,-147.6552"/>
<ellipse fill="none" stroke="#000000" cx="560.3002" cy="-147.6372" rx="3.2" ry="3.2"/>
</g>
<!-- R_NSI_TYPE_OUTCOME&#45;&gt;R_NSI_TYPE -->
<g id="edge20" class="edge">
<title>R_NSI_TYPE_OUTCOME:w&#45;&gt;R_NSI_TYPE:e</title>
<path fill="none" stroke="#000000" d="M557.148,-150.6195C544.1544,-157.0435 541.0943,-173.3044 533,-191.7 500.0431,-266.5996 574.3298,-557.7 492.5,-557.7"/>
<polygon fill="#000000" stroke="#000000" points="563.6606,-149.2947 572.2176,-151.2278 567.5803,-148.4974 571.5,-147.7 571.5,-147.7 571.5,-147.7 567.5803,-148.4974 570.7824,-144.1722 563.6606,-149.2947 563.6606,-149.2947"/>
<ellipse fill="none" stroke="#000000" cx="560.5248" cy="-149.9326" rx="3.2" ry="3.2"/>
</g>
<!-- R_NSI_TYPE_PROBATION_AREA -->
<g id="node9" class="node">
<title>R_NSI_TYPE_PROBATION_AREA</title>
<g id="a_node9"><a xlink:href="../../tables/R_NSI_TYPE_PROBATION_AREA.html" xlink:title="R_NSI_TYPE_PROBATION_AREA" target="_top">
<polygon fill="#ffffff" stroke="transparent" points="549,-448.2 549,-509.2 766,-509.2 766,-448.2 549,-448.2"/>
<polygon fill="#f5f5f5" stroke="transparent" points="549.5,-485.7 549.5,-508.7 766.5,-508.7 766.5,-485.7 549.5,-485.7"/>
<polygon fill="none" stroke="#000000" points="549.5,-485.7 549.5,-508.7 766.5,-508.7 766.5,-485.7 549.5,-485.7"/>
<text text-anchor="start" x="554.4047" y="-494.8" font-family="Helvetica,sans-Serif" font-weight="bold" font-size="11.00" fill="#000000">R_NSI_TYPE_PROBATION_AREA</text>
<text text-anchor="start" x="732.0219" y="-493.8" font-family="Helvetica,sans-Serif" font-size="11.00" fill="#000000">[table]</text>
<polygon fill="none" stroke="#000000" points="549.5,-466.7 549.5,-485.7 766.5,-485.7 766.5,-466.7 549.5,-466.7"/>
<text text-anchor="start" x="552.5" y="-472.8" font-family="Helvetica,sans-Serif" font-size="11.00" fill="#000000">...</text>
<polygon fill="#ffffff" stroke="transparent" points="549.5,-447.7 549.5,-466.7 637.5,-466.7 637.5,-447.7 549.5,-447.7"/>
<polygon fill="none" stroke="#000000" points="549.5,-447.7 549.5,-466.7 637.5,-466.7 637.5,-447.7 549.5,-447.7"/>
<text text-anchor="start" x="552.5" y="-453.8" font-family="Helvetica,sans-Serif" font-size="11.00" fill="#000000">&lt; 2</text>
<polygon fill="#ffffff" stroke="transparent" points="637.5,-447.7 637.5,-466.7 720.5,-466.7 720.5,-447.7 637.5,-447.7"/>
<polygon fill="none" stroke="#000000" points="637.5,-447.7 637.5,-466.7 720.5,-466.7 720.5,-447.7 637.5,-447.7"/>
<text text-anchor="start" x="672.8807" y="-453.8" font-family="Helvetica,sans-Serif" font-size="11.00" fill="#000000">214 rows</text>
<polygon fill="#ffffff" stroke="transparent" points="720.5,-447.7 720.5,-466.7 766.5,-466.7 766.5,-447.7 720.5,-447.7"/>
<polygon fill="none" stroke="#000000" points="720.5,-447.7 720.5,-466.7 766.5,-466.7 766.5,-447.7 720.5,-447.7"/>
<text text-anchor="start" x="757.3862" y="-453.8" font-family="Helvetica,sans-Serif" font-size="11.00" fill="#000000"> &#160;</text>
</a>
</g>
</g>
<!-- R_NSI_TYPE_PROBATION_AREA&#45;&gt;R_NSI_TYPE -->
<g id="edge21" class="edge">
<title>R_NSI_TYPE_PROBATION_AREA:w&#45;&gt;R_NSI_TYPE:e</title>
<path fill="none" stroke="#000000" d="M535.4886,-479.655C512.2109,-496.0348 530.9896,-557.7 492.5,-557.7"/>
<polygon fill="#000000" stroke="#000000" points="541.8008,-477.8733 550.478,-479.1646 545.6504,-476.7867 549.5,-475.7 549.5,-475.7 549.5,-475.7 545.6504,-476.7867 548.522,-472.2354 541.8008,-477.8733 541.8008,-477.8733"/>
<ellipse fill="none" stroke="#000000" cx="538.7212" cy="-478.7426" rx="3.2" ry="3.2"/>
</g>
<!-- R_NSI_TYPE_STATUS -->
<g id="node10" class="node">
<title>R_NSI_TYPE_STATUS</title>
<g id="a_node10"><a xlink:href="../../tables/R_NSI_TYPE_STATUS.html" xlink:title="R_NSI_TYPE_STATUS" target="_top">
<polygon fill="#ffffff" stroke="transparent" points="578,-366.2 578,-427.2 737,-427.2 737,-366.2 578,-366.2"/>
<polygon fill="#f5f5f5" stroke="transparent" points="578.5,-403.7 578.5,-426.7 737.5,-426.7 737.5,-403.7 578.5,-403.7"/>
<polygon fill="none" stroke="#000000" points="578.5,-403.7 578.5,-426.7 737.5,-426.7 737.5,-403.7 578.5,-403.7"/>
<text text-anchor="start" x="583.1324" y="-412.8" font-family="Helvetica,sans-Serif" font-weight="bold" font-size="11.00" fill="#000000">R_NSI_TYPE_STATUS</text>
<text text-anchor="start" x="703.0219" y="-411.8" font-family="Helvetica,sans-Serif" font-size="11.00" fill="#000000">[table]</text>
<polygon fill="none" stroke="#000000" points="578.5,-384.7 578.5,-403.7 737.5,-403.7 737.5,-384.7 578.5,-384.7"/>
<text text-anchor="start" x="581.5" y="-390.8" font-family="Helvetica,sans-Serif" font-size="11.00" fill="#000000">...</text>
<polygon fill="#ffffff" stroke="transparent" points="578.5,-365.7 578.5,-384.7 637.5,-384.7 637.5,-365.7 578.5,-365.7"/>
<polygon fill="none" stroke="#000000" points="578.5,-365.7 578.5,-384.7 637.5,-384.7 637.5,-365.7 578.5,-365.7"/>
<text text-anchor="start" x="581.5" y="-371.8" font-family="Helvetica,sans-Serif" font-size="11.00" fill="#000000">&lt; 2</text>
<polygon fill="#ffffff" stroke="transparent" points="637.5,-365.7 637.5,-384.7 706.5,-384.7 706.5,-365.7 637.5,-365.7"/>
<polygon fill="none" stroke="#000000" points="637.5,-365.7 637.5,-384.7 706.5,-384.7 706.5,-365.7 637.5,-365.7"/>
<text text-anchor="start" x="658.8807" y="-371.8" font-family="Helvetica,sans-Serif" font-size="11.00" fill="#000000">131 rows</text>
<polygon fill="#ffffff" stroke="transparent" points="706.5,-365.7 706.5,-384.7 737.5,-384.7 737.5,-365.7 706.5,-365.7"/>
<polygon fill="none" stroke="#000000" points="706.5,-365.7 706.5,-384.7 737.5,-384.7 737.5,-365.7 706.5,-365.7"/>
<text text-anchor="start" x="728.3862" y="-371.8" font-family="Helvetica,sans-Serif" font-size="11.00" fill="#000000"> &#160;</text>
</a>
</g>
</g>
<!-- R_NSI_TYPE_STATUS&#45;&gt;R_NSI_TYPE -->
<g id="edge22" class="edge">
<title>R_NSI_TYPE_STATUS:w&#45;&gt;R_NSI_TYPE:e</title>
<path fill="none" stroke="#000000" d="M564.228,-396.0635C548.8964,-402.0623 544.9802,-418.7528 533,-437.7 502.9178,-485.2763 548.7889,-557.7 492.5,-557.7"/>
<polygon fill="#000000" stroke="#000000" points="570.6075,-395.0071 579.0882,-397.2516 574.5537,-394.3535 578.5,-393.7 578.5,-393.7 578.5,-393.7 574.5537,-394.3535 577.9118,-390.1484 570.6075,-395.0071 570.6075,-395.0071"/>
<ellipse fill="none" stroke="#000000" cx="567.4505" cy="-395.5299" rx="3.2" ry="3.2"/>
</g>
<!-- R_NSI_TYPE_SUB_TYPE -->
<g id="node11" class="node">
<title>R_NSI_TYPE_SUB_TYPE</title>
<g id="a_node11"><a xlink:href="../../tables/R_NSI_TYPE_SUB_TYPE.html" xlink:title="R_NSI_TYPE_SUB_TYPE" target="_top">
<polygon fill="#ffffff" stroke="transparent" points="571,-38.2 571,-99.2 744,-99.2 744,-38.2 571,-38.2"/>
<polygon fill="#f5f5f5" stroke="transparent" points="571.5,-75.7 571.5,-98.7 744.5,-98.7 744.5,-75.7 571.5,-75.7"/>
<polygon fill="none" stroke="#000000" points="571.5,-75.7 571.5,-98.7 744.5,-98.7 744.5,-75.7 571.5,-75.7"/>
<text text-anchor="start" x="576.099" y="-84.8" font-family="Helvetica,sans-Serif" font-weight="bold" font-size="11.00" fill="#000000">R_NSI_TYPE_SUB_TYPE</text>
<text text-anchor="start" x="710.0219" y="-83.8" font-family="Helvetica,sans-Serif" font-size="11.00" fill="#000000">[table]</text>
<polygon fill="none" stroke="#000000" points="571.5,-56.7 571.5,-75.7 744.5,-75.7 744.5,-56.7 571.5,-56.7"/>
<text text-anchor="start" x="574.5" y="-62.8" font-family="Helvetica,sans-Serif" font-size="11.00" fill="#000000">...</text>
<polygon fill="#ffffff" stroke="transparent" points="571.5,-37.7 571.5,-56.7 640.5,-56.7 640.5,-37.7 571.5,-37.7"/>
<polygon fill="none" stroke="#000000" points="571.5,-37.7 571.5,-56.7 640.5,-56.7 640.5,-37.7 571.5,-37.7"/>
<text text-anchor="start" x="574.5" y="-43.8" font-family="Helvetica,sans-Serif" font-size="11.00" fill="#000000">&lt; 2</text>
<polygon fill="#ffffff" stroke="transparent" points="640.5,-37.7 640.5,-56.7 708.5,-56.7 708.5,-37.7 640.5,-37.7"/>
<polygon fill="none" stroke="#000000" points="640.5,-37.7 640.5,-56.7 708.5,-56.7 708.5,-37.7 640.5,-37.7"/>
<text text-anchor="start" x="666.9956" y="-43.8" font-family="Helvetica,sans-Serif" font-size="11.00" fill="#000000">87 rows</text>
<polygon fill="#ffffff" stroke="transparent" points="708.5,-37.7 708.5,-56.7 744.5,-56.7 744.5,-37.7 708.5,-37.7"/>
<polygon fill="none" stroke="#000000" points="708.5,-37.7 708.5,-56.7 744.5,-56.7 744.5,-37.7 708.5,-37.7"/>
<text text-anchor="start" x="735.3862" y="-43.8" font-family="Helvetica,sans-Serif" font-size="11.00" fill="#000000"> &#160;</text>
</a>
</g>
</g>
<!-- R_NSI_TYPE_SUB_TYPE&#45;&gt;R_STANDARD_REFERENCE_LIST -->
<g id="edge23" class="edge">
<title>R_NSI_TYPE_SUB_TYPE:w&#45;&gt;R_STANDARD_REFERENCE_LIST:e</title>
<path fill="none" stroke="#000000" d="M557.0897,-65.6125C427.468,-64.0726 357.4448,-43.9435 269,-144.7 220.9775,-199.4074 300.7947,-469.7 228,-469.7"/>
<polygon fill="#000000" stroke="#000000" points="563.5001,-65.6513 571.4781,-69.2999 567.5001,-65.6757 571.5,-65.7 571.5,-65.7 571.5,-65.7 567.5001,-65.6757 571.5219,-62.1001 563.5001,-65.6513 563.5001,-65.6513"/>
<ellipse fill="none" stroke="#000000" cx="560.3002" cy="-65.6319" rx="3.2" ry="3.2"/>
</g>
<!-- R_NSI_TYPE_SUB_TYPE&#45;&gt;R_NSI_TYPE -->
<g id="edge24" class="edge">
<title>R_NSI_TYPE_SUB_TYPE:w&#45;&gt;R_NSI_TYPE:e</title>
<path fill="none" stroke="#000000" d="M557.1196,-68.6071C544.0706,-75.0071 540.9095,-91.2242 533,-109.7 513.3299,-155.6474 542.4808,-557.7 492.5,-557.7"/>
<polygon fill="#000000" stroke="#000000" points="563.6586,-67.2852 572.2134,-69.2286 567.5793,-66.4926 571.5,-65.7 571.5,-65.7 571.5,-65.7 567.5793,-66.4926 570.7866,-62.1714 563.6586,-67.2852 563.6586,-67.2852"/>
<ellipse fill="none" stroke="#000000" cx="560.5221" cy="-67.9193" rx="3.2" ry="3.2"/>
</g>
<!-- R_RQMNT_NSI_TYPE -->
<g id="node12" class="node">
<title>R_RQMNT_NSI_TYPE</title>
<g id="a_node12"><a xlink:href="../../tables/R_RQMNT_NSI_TYPE.html" xlink:title="R_RQMNT_NSI_TYPE" target="_top">
<polygon fill="#ffffff" stroke="transparent" points="579.5,-284.2 579.5,-345.2 735.5,-345.2 735.5,-284.2 579.5,-284.2"/>
<polygon fill="#f5f5f5" stroke="transparent" points="579.5,-321.7 579.5,-344.7 735.5,-344.7 735.5,-321.7 579.5,-321.7"/>
<polygon fill="none" stroke="#000000" points="579.5,-321.7 579.5,-344.7 735.5,-344.7 735.5,-321.7 579.5,-321.7"/>
<text text-anchor="start" x="584.1663" y="-330.8" font-family="Helvetica,sans-Serif" font-weight="bold" font-size="11.00" fill="#000000">R_RQMNT_NSI_TYPE</text>
<text text-anchor="start" x="701.0219" y="-329.8" font-family="Helvetica,sans-Serif" font-size="11.00" fill="#000000">[table]</text>
<polygon fill="none" stroke="#000000" points="579.5,-302.7 579.5,-321.7 735.5,-321.7 735.5,-302.7 579.5,-302.7"/>
<text text-anchor="start" x="582.5" y="-308.8" font-family="Helvetica,sans-Serif" font-size="11.00" fill="#000000">...</text>
<polygon fill="#ffffff" stroke="transparent" points="579.5,-283.7 579.5,-302.7 639.5,-302.7 639.5,-283.7 579.5,-283.7"/>
<polygon fill="none" stroke="#000000" points="579.5,-283.7 579.5,-302.7 639.5,-302.7 639.5,-283.7 579.5,-283.7"/>
<text text-anchor="start" x="582.5" y="-289.8" font-family="Helvetica,sans-Serif" font-size="11.00" fill="#000000">&lt; 2</text>
<polygon fill="#ffffff" stroke="transparent" points="639.5,-283.7 639.5,-302.7 703.5,-302.7 703.5,-283.7 639.5,-283.7"/>
<polygon fill="none" stroke="#000000" points="639.5,-283.7 639.5,-302.7 703.5,-302.7 703.5,-283.7 639.5,-283.7"/>
<text text-anchor="start" x="661.9956" y="-289.8" font-family="Helvetica,sans-Serif" font-size="11.00" fill="#000000">31 rows</text>
<polygon fill="#ffffff" stroke="transparent" points="703.5,-283.7 703.5,-302.7 735.5,-302.7 735.5,-283.7 703.5,-283.7"/>
<polygon fill="none" stroke="#000000" points="703.5,-283.7 703.5,-302.7 735.5,-302.7 735.5,-283.7 703.5,-283.7"/>
<text text-anchor="start" x="726.3862" y="-289.8" font-family="Helvetica,sans-Serif" font-size="11.00" fill="#000000"> &#160;</text>
</a>
</g>
</g>
<!-- R_RQMNT_NSI_TYPE&#45;&gt;R_NSI_TYPE -->
<g id="edge25" class="edge">
<title>R_RQMNT_NSI_TYPE:w&#45;&gt;R_NSI_TYPE:e</title>
<path fill="none" stroke="#000000" d="M564.8727,-313.9533C548.9204,-319.7004 543.9781,-335.8621 533,-355.7 510.8325,-395.7576 538.2822,-557.7 492.5,-557.7"/>
<polygon fill="#000000" stroke="#000000" points="571.5933,-312.918 580.0481,-315.258 575.5466,-312.309 579.5,-311.7 579.5,-311.7 579.5,-311.7 575.5466,-312.309 578.9519,-308.142 571.5933,-312.918 571.5933,-312.918"/>
<ellipse fill="none" stroke="#000000" cx="568.4306" cy="-313.4052" rx="3.2" ry="3.2"/>
</g>
</g>
</svg>
