<?xml version="1.0" encoding="UTF-8" standalone="no"?>
<!DOCTYPE svg PUBLIC "-//W3C//DTD SVG 1.1//EN"
 "http://www.w3.org/Graphics/SVG/1.1/DTD/svg11.dtd">
<!-- Generated by graphviz version 2.40.1 (20161225.0304)
 -->
<!-- Title: oneDegreeRelationshipsDiagram Pages: 1 -->
<svg width="495pt" height="457pt"
 viewBox="0.00 0.00 495.00 457.20" xmlns="http://www.w3.org/2000/svg" xmlns:xlink="http://www.w3.org/1999/xlink">
<g id="graph0" class="graph" transform="scale(1 1) rotate(0) translate(4 453.2)">
<title>oneDegreeRelationshipsDiagram</title>
<polygon fill="#ffffff" stroke="transparent" points="-4,4 -4,-453.2 491,-453.2 491,4 -4,4"/>
<text text-anchor="middle" x="72.4936" y="-7.3" font-family="Helvetica,sans-Serif" font-size="11.00" fill="#000000">Generated by SchemaSpy</text>
<!-- R_NSI_TYPE_STATUS -->
<g id="node1" class="node">
<title>R_NSI_TYPE_STATUS</title>
<g id="a_node1"><a xlink:href="../../tables/R_NSI_TYPE_STATUS.html" xlink:title="R_NSI_TYPE_STATUS" target="_top">
<polygon fill="#ffffff" stroke="transparent" points="272,-161.7 272,-339.7 479,-339.7 479,-161.7 272,-161.7"/>
<polygon fill="#f5f5f5" stroke="transparent" points="274.5,-314.7 274.5,-337.7 477.5,-337.7 477.5,-314.7 274.5,-314.7"/>
<polygon fill="none" stroke="#000000" points="274.5,-314.7 274.5,-337.7 477.5,-337.7 477.5,-314.7 274.5,-314.7"/>
<text text-anchor="start" x="279.5" y="-323.8" font-family="Helvetica,sans-Serif" font-weight="bold" font-size="11.00" fill="#000000">R_NSI_TYPE_STATUS</text>
<text text-anchor="start" x="442.5437" y="-322.8" font-family="Helvetica,sans-Serif" font-size="11.00" fill="#000000">[table]</text>
<polygon fill="none" stroke="#000000" points="274.5,-292.7 274.5,-314.7 416.5,-314.7 416.5,-292.7 274.5,-292.7"/>
<image xlink:href="../../images/primaryKeys.png" width="11px" height="12px" preserveAspectRatio="xMinYMin meet" x="279.5" y="-309.7"/>
<text text-anchor="start" x="293.1039" y="-299.8" font-family="Helvetica,sans-Serif" font-size="11.00" fill="#000000">NSI_TYPE_STATUS_ID</text>
<polygon fill="none" stroke="#000000" points="416.5,-292.7 416.5,-314.7 477.5,-314.7 477.5,-292.7 416.5,-292.7"/>
<text text-anchor="start" x="419.1865" y="-300.4" font-family="Helvetica,sans-Serif" font-size="11.00" fill="#000000">number[38]</text>
<polygon fill="none" stroke="#000000" points="274.5,-270.7 274.5,-292.7 416.5,-292.7 416.5,-270.7 274.5,-270.7"/>
<image xlink:href="../../images/primaryKeys.png" width="11px" height="12px" preserveAspectRatio="xMinYMin meet" x="279.5" y="-287.7"/>
<text text-anchor="start" x="294.5" y="-277.8" font-family="Helvetica,sans-Serif" font-size="11.00" fill="#000000">NSI_TYPE_ID</text>
<polygon fill="none" stroke="#000000" points="416.5,-270.7 416.5,-292.7 477.5,-292.7 477.5,-270.7 416.5,-270.7"/>
<text text-anchor="start" x="419.1865" y="-278.4" font-family="Helvetica,sans-Serif" font-size="11.00" fill="#000000">number[38]</text>
<polygon fill="none" stroke="#000000" points="274.5,-248.7 274.5,-270.7 416.5,-270.7 416.5,-248.7 274.5,-248.7"/>
<image xlink:href="../../images/primaryKeys.png" width="11px" height="12px" preserveAspectRatio="xMinYMin meet" x="279.5" y="-265.7"/>
<text text-anchor="start" x="294.5" y="-255.8" font-family="Helvetica,sans-Serif" font-size="11.00" fill="#000000">NSI_STATUS_ID</text>
<polygon fill="none" stroke="#000000" points="416.5,-248.7 416.5,-270.7 477.5,-270.7 477.5,-248.7 416.5,-248.7"/>
<text text-anchor="start" x="419.1865" y="-256.4" font-family="Helvetica,sans-Serif" font-size="11.00" fill="#000000">number[38]</text>
<polygon fill="none" stroke="#000000" points="274.5,-226.7 274.5,-248.7 416.5,-248.7 416.5,-226.7 274.5,-226.7"/>
<text text-anchor="start" x="294.5" y="-233.8" font-family="Helvetica,sans-Serif" font-size="11.00" fill="#000000">SEQUENCE_NO</text>
<polygon fill="none" stroke="#000000" points="416.5,-226.7 416.5,-248.7 477.5,-248.7 477.5,-226.7 416.5,-226.7"/>
<text text-anchor="start" x="419.1865" y="-234.4" font-family="Helvetica,sans-Serif" font-size="11.00" fill="#000000">number[38]</text>
<polygon fill="none" stroke="#000000" points="274.5,-204.7 274.5,-226.7 416.5,-226.7 416.5,-204.7 274.5,-204.7"/>
<text text-anchor="start" x="294.5" y="-211.8" font-family="Helvetica,sans-Serif" font-size="11.00" fill="#000000">ROW_VERSION</text>
<polygon fill="none" stroke="#000000" points="416.5,-204.7 416.5,-226.7 477.5,-226.7 477.5,-204.7 416.5,-204.7"/>
<text text-anchor="start" x="419.1865" y="-212.4" font-family="Helvetica,sans-Serif" font-size="11.00" fill="#000000">number[38]</text>
<polygon fill="none" stroke="#000000" points="274.5,-182.7 274.5,-204.7 416.5,-204.7 416.5,-182.7 274.5,-182.7"/>
<image xlink:href="../../images/primaryKeys.png" width="11px" height="12px" preserveAspectRatio="xMinYMin meet" x="279.5" y="-199.7"/>
<text text-anchor="start" x="290.6625" y="-189.8" font-family="Helvetica,sans-Serif" font-size="11.00" fill="#000000">TRAINING_SESSION_ID</text>
<polygon fill="none" stroke="#000000" points="416.5,-182.7 416.5,-204.7 477.5,-204.7 477.5,-182.7 416.5,-182.7"/>
<text text-anchor="start" x="419.1865" y="-190.4" font-family="Helvetica,sans-Serif" font-size="11.00" fill="#000000">number[38]</text>
<polygon fill="#ffffff" stroke="transparent" points="274.5,-163.7 274.5,-182.7 330.5,-182.7 330.5,-163.7 274.5,-163.7"/>
<polygon fill="none" stroke="#000000" points="274.5,-163.7 274.5,-182.7 330.5,-182.7 330.5,-163.7 274.5,-163.7"/>
<text text-anchor="start" x="277.5" y="-169.8" font-family="Helvetica,sans-Serif" font-size="11.00" fill="#000000">&lt; 2</text>
<polygon fill="#ffffff" stroke="transparent" points="330.5,-163.7 330.5,-182.7 416.5,-182.7 416.5,-163.7 330.5,-163.7"/>
<polygon fill="none" stroke="#000000" points="330.5,-163.7 330.5,-182.7 416.5,-182.7 416.5,-163.7 330.5,-163.7"/>
<text text-anchor="start" x="368.8807" y="-169.8" font-family="Helvetica,sans-Serif" font-size="11.00" fill="#000000">131 rows</text>
<polygon fill="#ffffff" stroke="transparent" points="416.5,-163.7 416.5,-182.7 477.5,-182.7 477.5,-163.7 416.5,-163.7"/>
<polygon fill="none" stroke="#000000" points="416.5,-163.7 416.5,-182.7 477.5,-182.7 477.5,-163.7 416.5,-163.7"/>
<text text-anchor="start" x="458.9053" y="-169.8" font-family="Helvetica,sans-Serif" font-size="11.00" fill="#000000">0 &gt;</text>
<polygon fill="none" stroke="#000000" stroke-width="2" points="273,-162.7 273,-338.7 478,-338.7 478,-162.7 273,-162.7"/>
</a>
</g>
</g>
<!-- R_NSI_STATUS -->
<g id="node2" class="node">
<title>R_NSI_STATUS</title>
<g id="a_node2"><a xlink:href="../../tables/R_NSI_STATUS.html" xlink:title="R_NSI_STATUS" target="_top">
<polygon fill="#ffffff" stroke="transparent" points="35,-38.2 35,-165.2 196,-165.2 196,-38.2 35,-38.2"/>
<polygon fill="#f5f5f5" stroke="transparent" points="35.5,-141.7 35.5,-164.7 196.5,-164.7 196.5,-141.7 35.5,-141.7"/>
<polygon fill="none" stroke="#000000" points="35.5,-141.7 35.5,-164.7 196.5,-164.7 196.5,-141.7 35.5,-141.7"/>
<text text-anchor="start" x="40.5" y="-150.8" font-family="Helvetica,sans-Serif" font-weight="bold" font-size="11.00" fill="#000000">R_NSI_STATUS</text>
<text text-anchor="start" x="161.5437" y="-149.8" font-family="Helvetica,sans-Serif" font-size="11.00" fill="#000000">[table]</text>
<polygon fill="none" stroke="#000000" points="35.5,-119.7 35.5,-141.7 196.5,-141.7 196.5,-119.7 35.5,-119.7"/>
<image xlink:href="../../images/primaryKeys.png" width="11px" height="12px" preserveAspectRatio="xMinYMin meet" x="40.5" y="-136.7"/>
<text text-anchor="start" x="55.5" y="-126.8" font-family="Helvetica,sans-Serif" font-size="11.00" fill="#000000">NSI_STATUS_ID</text>
<polygon fill="none" stroke="#000000" points="35.5,-97.7 35.5,-119.7 196.5,-119.7 196.5,-97.7 35.5,-97.7"/>
<image xlink:href="../../images/primaryKeys.png" width="11px" height="12px" preserveAspectRatio="xMinYMin meet" x="40.5" y="-114.7"/>
<text text-anchor="start" x="55.5" y="-104.8" font-family="Helvetica,sans-Serif" font-size="11.00" fill="#000000">CONTACT_TYPE_ID</text>
<polygon fill="none" stroke="#000000" points="35.5,-75.7 35.5,-97.7 196.5,-97.7 196.5,-75.7 35.5,-75.7"/>
<image xlink:href="../../images/primaryKeys.png" width="11px" height="12px" preserveAspectRatio="xMinYMin meet" x="40.5" y="-92.7"/>
<text text-anchor="start" x="55.5" y="-82.8" font-family="Helvetica,sans-Serif" font-size="11.00" fill="#000000">TRAINING_SESSION_ID</text>
<polygon fill="none" stroke="#000000" points="35.5,-56.7 35.5,-75.7 196.5,-75.7 196.5,-56.7 35.5,-56.7"/>
<text text-anchor="start" x="38.5" y="-62.8" font-family="Helvetica,sans-Serif" font-size="11.00" fill="#000000">...</text>
<polygon fill="#ffffff" stroke="transparent" points="35.5,-37.7 35.5,-56.7 93.5,-56.7 93.5,-37.7 35.5,-37.7"/>
<polygon fill="none" stroke="#000000" points="35.5,-37.7 35.5,-56.7 93.5,-56.7 93.5,-37.7 35.5,-37.7"/>
<text text-anchor="start" x="38.5" y="-43.8" font-family="Helvetica,sans-Serif" font-size="11.00" fill="#000000">&lt; 1</text>
<polygon fill="#ffffff" stroke="transparent" points="93.5,-37.7 93.5,-56.7 156.5,-56.7 156.5,-37.7 93.5,-37.7"/>
<polygon fill="none" stroke="#000000" points="93.5,-37.7 93.5,-56.7 156.5,-56.7 156.5,-37.7 93.5,-37.7"/>
<text text-anchor="start" x="114.9956" y="-43.8" font-family="Helvetica,sans-Serif" font-size="11.00" fill="#000000">94 rows</text>
<polygon fill="#ffffff" stroke="transparent" points="156.5,-37.7 156.5,-56.7 196.5,-56.7 196.5,-37.7 156.5,-37.7"/>
<polygon fill="none" stroke="#000000" points="156.5,-37.7 156.5,-56.7 196.5,-56.7 196.5,-37.7 156.5,-37.7"/>
<text text-anchor="start" x="177.9053" y="-43.8" font-family="Helvetica,sans-Serif" font-size="11.00" fill="#000000">3 &gt;</text>
</a>
</g>
</g>
<!-- R_NSI_TYPE_STATUS&#45;&gt;R_NSI_STATUS -->
<g id="edge1" class="edge">
<title>R_NSI_TYPE_STATUS:w&#45;&gt;R_NSI_STATUS:e</title>
<path fill="none" stroke="#000000" d="M260.0763,-257.1232C216.0393,-238.9419 257.8723,-130.7 196.5,-130.7"/>
<polygon fill="#000000" stroke="#000000" points="266.6247,-258.293 273.8669,-263.2439 270.5623,-258.9965 274.5,-259.7 274.5,-259.7 274.5,-259.7 270.5623,-258.9965 275.1331,-256.1561 266.6247,-258.293 266.6247,-258.293"/>
<ellipse fill="none" stroke="#000000" cx="263.4746" cy="-257.7302" rx="3.2" ry="3.2"/>
</g>
<!-- R_NSI_TYPE -->
<g id="node3" class="node">
<title>R_NSI_TYPE</title>
<g id="a_node3"><a xlink:href="../../tables/R_NSI_TYPE.html" xlink:title="R_NSI_TYPE" target="_top">
<polygon fill="#ffffff" stroke="transparent" points="8,-186.2 8,-445.2 223,-445.2 223,-186.2 8,-186.2"/>
<polygon fill="#f5f5f5" stroke="transparent" points="8.5,-421.7 8.5,-444.7 223.5,-444.7 223.5,-421.7 8.5,-421.7"/>
<polygon fill="none" stroke="#000000" points="8.5,-421.7 8.5,-444.7 223.5,-444.7 223.5,-421.7 8.5,-421.7"/>
<text text-anchor="start" x="13.5" y="-430.8" font-family="Helvetica,sans-Serif" font-weight="bold" font-size="11.00" fill="#000000">R_NSI_TYPE</text>
<text text-anchor="start" x="188.5437" y="-429.8" font-family="Helvetica,sans-Serif" font-size="11.00" fill="#000000">[table]</text>
<polygon fill="none" stroke="#000000" points="8.5,-399.7 8.5,-421.7 223.5,-421.7 223.5,-399.7 8.5,-399.7"/>
<image xlink:href="../../images/primaryKeys.png" width="11px" height="12px" preserveAspectRatio="xMinYMin meet" x="13.5" y="-416.7"/>
<text text-anchor="start" x="28.5" y="-406.8" font-family="Helvetica,sans-Serif" font-size="11.00" fill="#000000">NSI_TYPE_ID</text>
<polygon fill="none" stroke="#000000" points="8.5,-377.7 8.5,-399.7 223.5,-399.7 223.5,-377.7 8.5,-377.7"/>
<image xlink:href="../../images/primaryKeys.png" width="11px" height="12px" preserveAspectRatio="xMinYMin meet" x="13.5" y="-394.7"/>
<text text-anchor="start" x="28.5" y="-384.8" font-family="Helvetica,sans-Serif" font-size="11.00" fill="#000000">UNITS_ID</text>
<polygon fill="none" stroke="#000000" points="8.5,-355.7 8.5,-377.7 223.5,-377.7 223.5,-355.7 8.5,-355.7"/>
<image xlink:href="../../images/primaryKeys.png" width="11px" height="12px" preserveAspectRatio="xMinYMin meet" x="13.5" y="-372.7"/>
<text text-anchor="start" x="28.5" y="-362.8" font-family="Helvetica,sans-Serif" font-size="11.00" fill="#000000">TRAINING_SESSION_ID</text>
<polygon fill="none" stroke="#000000" points="8.5,-333.7 8.5,-355.7 223.5,-355.7 223.5,-333.7 8.5,-333.7"/>
<image xlink:href="../../images/primaryKeys.png" width="11px" height="12px" preserveAspectRatio="xMinYMin meet" x="13.5" y="-350.7"/>
<text text-anchor="start" x="28.5" y="-340.8" font-family="Helvetica,sans-Serif" font-size="11.00" fill="#000000">NSI_PURPOSE_ID</text>
<polygon fill="none" stroke="#000000" points="8.5,-311.7 8.5,-333.7 223.5,-333.7 223.5,-311.7 8.5,-311.7"/>
<image xlink:href="../../images/primaryKeys.png" width="11px" height="12px" preserveAspectRatio="xMinYMin meet" x="13.5" y="-328.7"/>
<text text-anchor="start" x="28.5" y="-318.8" font-family="Helvetica,sans-Serif" font-size="11.00" fill="#000000">NSI_TRANSFER_TYPE_ID</text>
<polygon fill="none" stroke="#000000" points="8.5,-289.7 8.5,-311.7 223.5,-311.7 223.5,-289.7 8.5,-289.7"/>
<image xlink:href="../../images/primaryKeys.png" width="11px" height="12px" preserveAspectRatio="xMinYMin meet" x="13.5" y="-306.7"/>
<text text-anchor="start" x="27.855" y="-296.8" font-family="Helvetica,sans-Serif" font-size="11.00" fill="#000000">ADDITIONAL_IDENTIFIER_TYPE1_ID</text>
<polygon fill="none" stroke="#000000" points="8.5,-267.7 8.5,-289.7 223.5,-289.7 223.5,-267.7 8.5,-267.7"/>
<image xlink:href="../../images/primaryKeys.png" width="11px" height="12px" preserveAspectRatio="xMinYMin meet" x="13.5" y="-284.7"/>
<text text-anchor="start" x="27.855" y="-274.8" font-family="Helvetica,sans-Serif" font-size="11.00" fill="#000000">ADDITIONAL_IDENTIFIER_TYPE2_ID</text>
<polygon fill="none" stroke="#000000" points="8.5,-245.7 8.5,-267.7 223.5,-267.7 223.5,-245.7 8.5,-245.7"/>
<image xlink:href="../../images/primaryKeys.png" width="11px" height="12px" preserveAspectRatio="xMinYMin meet" x="13.5" y="-262.7"/>
<text text-anchor="start" x="28.5" y="-252.8" font-family="Helvetica,sans-Serif" font-size="11.00" fill="#000000">ADDITIONAL_REFERENCE_1_ID</text>
<polygon fill="none" stroke="#000000" points="8.5,-223.7 8.5,-245.7 223.5,-245.7 223.5,-223.7 8.5,-223.7"/>
<image xlink:href="../../images/primaryKeys.png" width="11px" height="12px" preserveAspectRatio="xMinYMin meet" x="13.5" y="-240.7"/>
<text text-anchor="start" x="28.5" y="-230.8" font-family="Helvetica,sans-Serif" font-size="11.00" fill="#000000">ADDITIONAL_REFERENCE_2_ID</text>
<polygon fill="none" stroke="#000000" points="8.5,-204.7 8.5,-223.7 223.5,-223.7 223.5,-204.7 8.5,-204.7"/>
<text text-anchor="start" x="11.5" y="-210.8" font-family="Helvetica,sans-Serif" font-size="11.00" fill="#000000">...</text>
<polygon fill="#ffffff" stroke="transparent" points="8.5,-185.7 8.5,-204.7 87.5,-204.7 87.5,-185.7 8.5,-185.7"/>
<polygon fill="none" stroke="#000000" points="8.5,-185.7 8.5,-204.7 87.5,-204.7 87.5,-185.7 8.5,-185.7"/>
<text text-anchor="start" x="11.5" y="-191.8" font-family="Helvetica,sans-Serif" font-size="11.00" fill="#000000">&lt; 7</text>
<polygon fill="#ffffff" stroke="transparent" points="87.5,-185.7 87.5,-204.7 166.5,-204.7 166.5,-185.7 87.5,-185.7"/>
<polygon fill="none" stroke="#000000" points="87.5,-185.7 87.5,-204.7 166.5,-204.7 166.5,-185.7 87.5,-185.7"/>
<text text-anchor="start" x="118.8807" y="-191.8" font-family="Helvetica,sans-Serif" font-size="11.00" fill="#000000">570 rows</text>
<polygon fill="#ffffff" stroke="transparent" points="166.5,-185.7 166.5,-204.7 223.5,-204.7 223.5,-185.7 166.5,-185.7"/>
<polygon fill="none" stroke="#000000" points="166.5,-185.7 166.5,-204.7 223.5,-204.7 223.5,-185.7 166.5,-185.7"/>
<text text-anchor="start" x="198.7904" y="-191.8" font-family="Helvetica,sans-Serif" font-size="11.00" fill="#000000">10 &gt;</text>
</a>
</g>
</g>
<!-- R_NSI_TYPE_STATUS&#45;&gt;R_NSI_TYPE -->
<g id="edge2" class="edge">
<title>R_NSI_TYPE_STATUS:w&#45;&gt;R_NSI_TYPE:e</title>
<path fill="none" stroke="#000000" d="M260.021,-285.1504C225.6928,-305.6651 279.1307,-410.7 223.5,-410.7"/>
<polygon fill="#000000" stroke="#000000" points="266.7179,-283.5546 275.3346,-285.2019 270.609,-282.6273 274.5,-281.7 274.5,-281.7 274.5,-281.7 270.609,-282.6273 273.6654,-278.1981 266.7179,-283.5546 266.7179,-283.5546"/>
<ellipse fill="none" stroke="#000000" cx="263.6051" cy="-284.2964" rx="3.2" ry="3.2"/>
</g>
</g>
</svg>
