<?xml version="1.0" encoding="UTF-8" standalone="no"?>
<!DOCTYPE svg PUBLIC "-//W3C//DTD SVG 1.1//EN"
 "http://www.w3.org/Graphics/SVG/1.1/DTD/svg11.dtd">
<!-- Generated by graphviz version 2.40.1 (20161225.0304)
 -->
<!-- Title: oneDegreeRelationshipsDiagram Pages: 1 -->
<svg width="786pt" height="359pt"
 viewBox="0.00 0.00 786.00 358.98" xmlns="http://www.w3.org/2000/svg" xmlns:xlink="http://www.w3.org/1999/xlink">
<g id="graph0" class="graph" transform="scale(1 1) rotate(0) translate(4 354.9815)">
<title>oneDegreeRelationshipsDiagram</title>
<polygon fill="#ffffff" stroke="transparent" points="-4,4 -4,-354.9815 782,-354.9815 782,4 -4,4"/>
<text text-anchor="middle" x="72.4936" y="-7.3" font-family="Helvetica,sans-Serif" font-size="11.00" fill="#000000">Generated by SchemaSpy</text>
<!-- R_NSI_TRANSFER_REASON -->
<g id="node1" class="node">
<title>R_NSI_TRANSFER_REASON</title>
<g id="a_node1"><a xlink:href="../../tables/R_NSI_TRANSFER_REASON.html" xlink:title="R_NSI_TRANSFER_REASON" target="_top">
<polygon fill="#ffffff" stroke="transparent" points="541,-122.4815 541,-234.4815 770,-234.4815 770,-122.4815 541,-122.4815"/>
<polygon fill="#f5f5f5" stroke="transparent" points="543.5,-209.4815 543.5,-232.4815 768.5,-232.4815 768.5,-209.4815 543.5,-209.4815"/>
<polygon fill="none" stroke="#000000" points="543.5,-209.4815 543.5,-232.4815 768.5,-232.4815 768.5,-209.4815 543.5,-209.4815"/>
<text text-anchor="start" x="548.5" y="-218.5815" font-family="Helvetica,sans-Serif" font-weight="bold" font-size="11.00" fill="#000000">R_NSI_TRANSFER_REASON</text>
<text text-anchor="start" x="733.5437" y="-217.5815" font-family="Helvetica,sans-Serif" font-size="11.00" fill="#000000">[table]</text>
<polygon fill="none" stroke="#000000" points="543.5,-187.4815 543.5,-209.4815 707.5,-209.4815 707.5,-187.4815 543.5,-187.4815"/>
<image xlink:href="../../images/primaryKeys.png" width="11px" height="12px" preserveAspectRatio="xMinYMin meet" x="548.5" y="-204.482"/>
<text text-anchor="start" x="563.5" y="-194.5815" font-family="Helvetica,sans-Serif" font-size="11.00" fill="#000000">NSI_TYPE_ID</text>
<polygon fill="none" stroke="#000000" points="707.5,-187.4815 707.5,-209.4815 768.5,-209.4815 768.5,-187.4815 707.5,-187.4815"/>
<text text-anchor="start" x="710.1865" y="-195.1815" font-family="Helvetica,sans-Serif" font-size="11.00" fill="#000000">number[22]</text>
<polygon fill="none" stroke="#000000" points="543.5,-165.4815 543.5,-187.4815 707.5,-187.4815 707.5,-165.4815 543.5,-165.4815"/>
<image xlink:href="../../images/primaryKeys.png" width="11px" height="12px" preserveAspectRatio="xMinYMin meet" x="548.5" y="-182.482"/>
<text text-anchor="start" x="563.5" y="-172.5815" font-family="Helvetica,sans-Serif" font-size="11.00" fill="#000000">TRANSFER_REASON_ID</text>
<polygon fill="none" stroke="#000000" points="707.5,-165.4815 707.5,-187.4815 768.5,-187.4815 768.5,-165.4815 707.5,-165.4815"/>
<text text-anchor="start" x="710.1865" y="-173.1815" font-family="Helvetica,sans-Serif" font-size="11.00" fill="#000000">number[22]</text>
<polygon fill="none" stroke="#000000" points="543.5,-143.4815 543.5,-165.4815 707.5,-165.4815 707.5,-143.4815 543.5,-143.4815"/>
<text text-anchor="start" x="563.5" y="-150.5815" font-family="Helvetica,sans-Serif" font-size="11.00" fill="#000000">ROW_VERSION</text>
<polygon fill="none" stroke="#000000" points="707.5,-143.4815 707.5,-165.4815 768.5,-165.4815 768.5,-143.4815 707.5,-143.4815"/>
<text text-anchor="start" x="710.1865" y="-151.1815" font-family="Helvetica,sans-Serif" font-size="11.00" fill="#000000">number[22]</text>
<polygon fill="#ffffff" stroke="transparent" points="543.5,-124.4815 543.5,-143.4815 613.5,-143.4815 613.5,-124.4815 543.5,-124.4815"/>
<polygon fill="none" stroke="#000000" points="543.5,-124.4815 543.5,-143.4815 613.5,-143.4815 613.5,-124.4815 543.5,-124.4815"/>
<text text-anchor="start" x="546.5" y="-130.5815" font-family="Helvetica,sans-Serif" font-size="11.00" fill="#000000">&lt; 2</text>
<polygon fill="#ffffff" stroke="transparent" points="613.5,-124.4815 613.5,-143.4815 707.5,-143.4815 707.5,-124.4815 613.5,-124.4815"/>
<polygon fill="none" stroke="#000000" points="613.5,-124.4815 613.5,-143.4815 707.5,-143.4815 707.5,-124.4815 613.5,-124.4815"/>
<text text-anchor="start" x="665.9956" y="-130.5815" font-family="Helvetica,sans-Serif" font-size="11.00" fill="#000000">41 rows</text>
<polygon fill="#ffffff" stroke="transparent" points="707.5,-124.4815 707.5,-143.4815 768.5,-143.4815 768.5,-124.4815 707.5,-124.4815"/>
<polygon fill="none" stroke="#000000" points="707.5,-124.4815 707.5,-143.4815 768.5,-143.4815 768.5,-124.4815 707.5,-124.4815"/>
<text text-anchor="start" x="749.9053" y="-130.5815" font-family="Helvetica,sans-Serif" font-size="11.00" fill="#000000">0 &gt;</text>
<polygon fill="none" stroke="#000000" stroke-width="2" points="542,-123.4815 542,-233.4815 769,-233.4815 769,-123.4815 542,-123.4815"/>
</a>
</g>
</g>
<!-- R_NSI_TYPE -->
<g id="node2" class="node">
<title>R_NSI_TYPE</title>
<g id="a_node2"><a xlink:href="../../tables/R_NSI_TYPE.html" xlink:title="R_NSI_TYPE" target="_top">
<polygon fill="#ffffff" stroke="transparent" points="277,-87.9815 277,-346.9815 492,-346.9815 492,-87.9815 277,-87.9815"/>
<polygon fill="#f5f5f5" stroke="transparent" points="277.5,-323.4815 277.5,-346.4815 492.5,-346.4815 492.5,-323.4815 277.5,-323.4815"/>
<polygon fill="none" stroke="#000000" points="277.5,-323.4815 277.5,-346.4815 492.5,-346.4815 492.5,-323.4815 277.5,-323.4815"/>
<text text-anchor="start" x="282.5" y="-332.5815" font-family="Helvetica,sans-Serif" font-weight="bold" font-size="11.00" fill="#000000">R_NSI_TYPE</text>
<text text-anchor="start" x="457.5437" y="-331.5815" font-family="Helvetica,sans-Serif" font-size="11.00" fill="#000000">[table]</text>
<polygon fill="none" stroke="#000000" points="277.5,-301.4815 277.5,-323.4815 492.5,-323.4815 492.5,-301.4815 277.5,-301.4815"/>
<image xlink:href="../../images/primaryKeys.png" width="11px" height="12px" preserveAspectRatio="xMinYMin meet" x="282.5" y="-318.482"/>
<text text-anchor="start" x="297.5" y="-308.5815" font-family="Helvetica,sans-Serif" font-size="11.00" fill="#000000">NSI_TYPE_ID</text>
<polygon fill="none" stroke="#000000" points="277.5,-279.4815 277.5,-301.4815 492.5,-301.4815 492.5,-279.4815 277.5,-279.4815"/>
<image xlink:href="../../images/primaryKeys.png" width="11px" height="12px" preserveAspectRatio="xMinYMin meet" x="282.5" y="-296.482"/>
<text text-anchor="start" x="297.5" y="-286.5815" font-family="Helvetica,sans-Serif" font-size="11.00" fill="#000000">UNITS_ID</text>
<polygon fill="none" stroke="#000000" points="277.5,-257.4815 277.5,-279.4815 492.5,-279.4815 492.5,-257.4815 277.5,-257.4815"/>
<image xlink:href="../../images/primaryKeys.png" width="11px" height="12px" preserveAspectRatio="xMinYMin meet" x="282.5" y="-274.482"/>
<text text-anchor="start" x="297.5" y="-264.5815" font-family="Helvetica,sans-Serif" font-size="11.00" fill="#000000">TRAINING_SESSION_ID</text>
<polygon fill="none" stroke="#000000" points="277.5,-235.4815 277.5,-257.4815 492.5,-257.4815 492.5,-235.4815 277.5,-235.4815"/>
<image xlink:href="../../images/primaryKeys.png" width="11px" height="12px" preserveAspectRatio="xMinYMin meet" x="282.5" y="-252.482"/>
<text text-anchor="start" x="297.5" y="-242.5815" font-family="Helvetica,sans-Serif" font-size="11.00" fill="#000000">NSI_PURPOSE_ID</text>
<polygon fill="none" stroke="#000000" points="277.5,-213.4815 277.5,-235.4815 492.5,-235.4815 492.5,-213.4815 277.5,-213.4815"/>
<image xlink:href="../../images/primaryKeys.png" width="11px" height="12px" preserveAspectRatio="xMinYMin meet" x="282.5" y="-230.482"/>
<text text-anchor="start" x="297.5" y="-220.5815" font-family="Helvetica,sans-Serif" font-size="11.00" fill="#000000">NSI_TRANSFER_TYPE_ID</text>
<polygon fill="none" stroke="#000000" points="277.5,-191.4815 277.5,-213.4815 492.5,-213.4815 492.5,-191.4815 277.5,-191.4815"/>
<image xlink:href="../../images/primaryKeys.png" width="11px" height="12px" preserveAspectRatio="xMinYMin meet" x="282.5" y="-208.482"/>
<text text-anchor="start" x="296.855" y="-198.5815" font-family="Helvetica,sans-Serif" font-size="11.00" fill="#000000">ADDITIONAL_IDENTIFIER_TYPE1_ID</text>
<polygon fill="none" stroke="#000000" points="277.5,-169.4815 277.5,-191.4815 492.5,-191.4815 492.5,-169.4815 277.5,-169.4815"/>
<image xlink:href="../../images/primaryKeys.png" width="11px" height="12px" preserveAspectRatio="xMinYMin meet" x="282.5" y="-186.482"/>
<text text-anchor="start" x="296.855" y="-176.5815" font-family="Helvetica,sans-Serif" font-size="11.00" fill="#000000">ADDITIONAL_IDENTIFIER_TYPE2_ID</text>
<polygon fill="none" stroke="#000000" points="277.5,-147.4815 277.5,-169.4815 492.5,-169.4815 492.5,-147.4815 277.5,-147.4815"/>
<image xlink:href="../../images/primaryKeys.png" width="11px" height="12px" preserveAspectRatio="xMinYMin meet" x="282.5" y="-164.482"/>
<text text-anchor="start" x="297.5" y="-154.5815" font-family="Helvetica,sans-Serif" font-size="11.00" fill="#000000">ADDITIONAL_REFERENCE_1_ID</text>
<polygon fill="none" stroke="#000000" points="277.5,-125.4815 277.5,-147.4815 492.5,-147.4815 492.5,-125.4815 277.5,-125.4815"/>
<image xlink:href="../../images/primaryKeys.png" width="11px" height="12px" preserveAspectRatio="xMinYMin meet" x="282.5" y="-142.482"/>
<text text-anchor="start" x="297.5" y="-132.5815" font-family="Helvetica,sans-Serif" font-size="11.00" fill="#000000">ADDITIONAL_REFERENCE_2_ID</text>
<polygon fill="none" stroke="#000000" points="277.5,-106.4815 277.5,-125.4815 492.5,-125.4815 492.5,-106.4815 277.5,-106.4815"/>
<text text-anchor="start" x="280.5" y="-112.5815" font-family="Helvetica,sans-Serif" font-size="11.00" fill="#000000">...</text>
<polygon fill="#ffffff" stroke="transparent" points="277.5,-87.4815 277.5,-106.4815 356.5,-106.4815 356.5,-87.4815 277.5,-87.4815"/>
<polygon fill="none" stroke="#000000" points="277.5,-87.4815 277.5,-106.4815 356.5,-106.4815 356.5,-87.4815 277.5,-87.4815"/>
<text text-anchor="start" x="280.5" y="-93.5815" font-family="Helvetica,sans-Serif" font-size="11.00" fill="#000000">&lt; 7</text>
<polygon fill="#ffffff" stroke="transparent" points="356.5,-87.4815 356.5,-106.4815 435.5,-106.4815 435.5,-87.4815 356.5,-87.4815"/>
<polygon fill="none" stroke="#000000" points="356.5,-87.4815 356.5,-106.4815 435.5,-106.4815 435.5,-87.4815 356.5,-87.4815"/>
<text text-anchor="start" x="387.8807" y="-93.5815" font-family="Helvetica,sans-Serif" font-size="11.00" fill="#000000">570 rows</text>
<polygon fill="#ffffff" stroke="transparent" points="435.5,-87.4815 435.5,-106.4815 492.5,-106.4815 492.5,-87.4815 435.5,-87.4815"/>
<polygon fill="none" stroke="#000000" points="435.5,-87.4815 435.5,-106.4815 492.5,-106.4815 492.5,-87.4815 435.5,-87.4815"/>
<text text-anchor="start" x="467.7904" y="-93.5815" font-family="Helvetica,sans-Serif" font-size="11.00" fill="#000000">10 &gt;</text>
</a>
</g>
</g>
<!-- R_NSI_TRANSFER_REASON&#45;&gt;R_NSI_TYPE -->
<g id="edge1" class="edge">
<title>R_NSI_TRANSFER_REASON:w&#45;&gt;R_NSI_TYPE:e</title>
<path fill="none" stroke="#000000" d="M529.5215,-202.0183C499.3679,-221.2603 542.1516,-312.4815 492.5,-312.4815"/>
<polygon fill="#000000" stroke="#000000" points="535.7444,-200.4439 544.3831,-201.9715 539.6222,-199.4627 543.5,-198.4815 543.5,-198.4815 543.5,-198.4815 539.6222,-199.4627 542.6169,-194.9915 535.7444,-200.4439 535.7444,-200.4439"/>
<ellipse fill="none" stroke="#000000" cx="532.6422" cy="-201.2288" rx="3.2" ry="3.2"/>
</g>
<!-- R_STANDARD_REFERENCE_LIST -->
<g id="node3" class="node">
<title>R_STANDARD_REFERENCE_LIST</title>
<g id="a_node3"><a xlink:href="../../tables/R_STANDARD_REFERENCE_LIST.html" xlink:title="R_STANDARD_REFERENCE_LIST" target="_top">
<polygon fill="#ffffff" stroke="transparent" points="8,-76.9815 8,-225.9815 228,-225.9815 228,-76.9815 8,-76.9815"/>
<polygon fill="#f5f5f5" stroke="transparent" points="8,-202.4815 8,-225.4815 228,-225.4815 228,-202.4815 8,-202.4815"/>
<polygon fill="none" stroke="#000000" points="8,-202.4815 8,-225.4815 228,-225.4815 228,-202.4815 8,-202.4815"/>
<text text-anchor="start" x="12.5842" y="-211.5815" font-family="Helvetica,sans-Serif" font-weight="bold" font-size="11.00" fill="#000000">R_STANDARD_REFERENCE_LIST</text>
<text text-anchor="start" x="193.5219" y="-210.5815" font-family="Helvetica,sans-Serif" font-size="11.00" fill="#000000">[table]</text>
<polygon fill="none" stroke="#000000" points="8,-180.4815 8,-202.4815 228,-202.4815 228,-180.4815 8,-180.4815"/>
<image xlink:href="../../images/primaryKeys.png" width="11px" height="12px" preserveAspectRatio="xMinYMin meet" x="13" y="-197.482"/>
<text text-anchor="start" x="35.5558" y="-187.5815" font-family="Helvetica,sans-Serif" font-size="11.00" fill="#000000">STANDARD_REFERENCE_LIST_ID</text>
<polygon fill="none" stroke="#000000" points="8,-158.4815 8,-180.4815 228,-180.4815 228,-158.4815 8,-158.4815"/>
<image xlink:href="../../images/primaryKeys.png" width="11px" height="12px" preserveAspectRatio="xMinYMin meet" x="13" y="-175.482"/>
<text text-anchor="start" x="42" y="-165.5815" font-family="Helvetica,sans-Serif" font-size="11.00" fill="#000000">CODE_VALUE</text>
<polygon fill="none" stroke="#000000" points="8,-136.4815 8,-158.4815 228,-158.4815 228,-136.4815 8,-136.4815"/>
<image xlink:href="../../images/primaryKeys.png" width="11px" height="12px" preserveAspectRatio="xMinYMin meet" x="13" y="-153.482"/>
<text text-anchor="start" x="39.8337" y="-143.5815" font-family="Helvetica,sans-Serif" font-size="11.00" fill="#000000">REFERENCE_DATA_MASTER_ID</text>
<polygon fill="none" stroke="#000000" points="8,-114.4815 8,-136.4815 228,-136.4815 228,-114.4815 8,-114.4815"/>
<image xlink:href="../../images/primaryKeys.png" width="11px" height="12px" preserveAspectRatio="xMinYMin meet" x="13" y="-131.482"/>
<text text-anchor="start" x="42" y="-121.5815" font-family="Helvetica,sans-Serif" font-size="11.00" fill="#000000">TRAINING_SESSION_ID</text>
<polygon fill="none" stroke="#000000" points="8,-95.4815 8,-114.4815 228,-114.4815 228,-95.4815 8,-95.4815"/>
<text text-anchor="start" x="11" y="-101.5815" font-family="Helvetica,sans-Serif" font-size="11.00" fill="#000000">...</text>
<polygon fill="#ffffff" stroke="transparent" points="8,-76.4815 8,-95.4815 79,-95.4815 79,-76.4815 8,-76.4815"/>
<polygon fill="none" stroke="#000000" points="8,-76.4815 8,-95.4815 79,-95.4815 79,-76.4815 8,-76.4815"/>
<text text-anchor="start" x="11" y="-82.5815" font-family="Helvetica,sans-Serif" font-size="11.00" fill="#000000">&lt; 1</text>
<polygon fill="#ffffff" stroke="transparent" points="79,-76.4815 79,-95.4815 169,-95.4815 169,-76.4815 79,-76.4815"/>
<polygon fill="none" stroke="#000000" points="79,-76.4815 79,-95.4815 169,-95.4815 169,-76.4815 79,-76.4815"/>
<text text-anchor="start" x="106.094" y="-82.5815" font-family="Helvetica,sans-Serif" font-size="11.00" fill="#000000">15,391 rows</text>
<polygon fill="#ffffff" stroke="transparent" points="169,-76.4815 169,-95.4815 228,-95.4815 228,-76.4815 169,-76.4815"/>
<polygon fill="none" stroke="#000000" points="169,-76.4815 169,-95.4815 228,-95.4815 228,-76.4815 169,-76.4815"/>
<text text-anchor="start" x="197.1755" y="-82.5815" font-family="Helvetica,sans-Serif" font-size="11.00" fill="#000000">294 &gt;</text>
</a>
</g>
</g>
<!-- R_NSI_TRANSFER_REASON&#45;&gt;R_STANDARD_REFERENCE_LIST -->
<g id="edge2" class="edge">
<title>R_NSI_TRANSFER_REASON:w&#45;&gt;R_STANDARD_REFERENCE_LIST:e</title>
<path fill="none" stroke="#000000" d="M529.1624,-173.1114C505.5774,-158.5037 535.0551,-100.3684 500,-77.4815 414.0332,-21.3553 352.987,-18.4338 269,-77.4815 224.9528,-108.4493 281.8439,-191.4815 228,-191.4815"/>
<polygon fill="#000000" stroke="#000000" points="535.7123,-174.6509 542.6762,-179.986 539.6061,-175.5662 543.5,-176.4815 543.5,-176.4815 543.5,-176.4815 539.6061,-175.5662 544.3238,-172.977 535.7123,-174.6509 535.7123,-174.6509"/>
<ellipse fill="none" stroke="#000000" cx="532.5972" cy="-173.9187" rx="3.2" ry="3.2"/>
</g>
<!-- R_NSI_TYPE&#45;&gt;R_STANDARD_REFERENCE_LIST -->
<g id="edge3" class="edge">
<title>R_NSI_TYPE:w&#45;&gt;R_STANDARD_REFERENCE_LIST:e</title>
<path fill="none" stroke="#000000" d="M263.0598,-200.6651C251.4771,-197.5408 244.7264,-191.4815 228,-191.4815"/>
<polygon fill="#000000" stroke="#000000" points="269.5626,-201.483 277.0507,-206.0534 273.5313,-201.9823 277.5,-202.4815 277.5,-202.4815 277.5,-202.4815 273.5313,-201.9823 277.9493,-198.9097 269.5626,-201.483 269.5626,-201.483"/>
<ellipse fill="none" stroke="#000000" cx="266.3876" cy="-201.0836" rx="3.2" ry="3.2"/>
</g>
<!-- R_NSI_TYPE&#45;&gt;R_STANDARD_REFERENCE_LIST -->
<g id="edge4" class="edge">
<title>R_NSI_TYPE:w&#45;&gt;R_STANDARD_REFERENCE_LIST:e</title>
<path fill="none" stroke="#000000" d="M263.0598,-182.298C251.4771,-185.4223 244.7264,-191.4815 228,-191.4815"/>
<polygon fill="#000000" stroke="#000000" points="269.5626,-181.48 277.9493,-184.0534 273.5313,-180.9808 277.5,-180.4815 277.5,-180.4815 277.5,-180.4815 273.5313,-180.9808 277.0507,-176.9097 269.5626,-181.48 269.5626,-181.48"/>
<ellipse fill="none" stroke="#000000" cx="266.3876" cy="-181.8794" rx="3.2" ry="3.2"/>
</g>
<!-- R_NSI_TYPE&#45;&gt;R_STANDARD_REFERENCE_LIST -->
<g id="edge5" class="edge">
<title>R_NSI_TYPE:w&#45;&gt;R_STANDARD_REFERENCE_LIST:e</title>
<path fill="none" stroke="#000000" d="M263.4273,-162.7957C251.0607,-171.7407 248.4502,-191.4815 228,-191.4815"/>
<polygon fill="#000000" stroke="#000000" points="269.8513,-160.8264 278.5552,-161.9234 273.6757,-159.6539 277.5,-158.4815 277.5,-158.4815 277.5,-158.4815 273.6757,-159.6539 276.4448,-155.0396 269.8513,-160.8264 269.8513,-160.8264"/>
<ellipse fill="none" stroke="#000000" cx="266.7919" cy="-161.7643" rx="3.2" ry="3.2"/>
</g>
<!-- R_NSI_TYPE&#45;&gt;R_STANDARD_REFERENCE_LIST -->
<g id="edge6" class="edge">
<title>R_NSI_TYPE:w&#45;&gt;R_STANDARD_REFERENCE_LIST:e</title>
<path fill="none" stroke="#000000" d="M263.538,-141.5572C248.9876,-155.1729 254.7204,-191.4815 228,-191.4815"/>
<polygon fill="#000000" stroke="#000000" points="269.9814,-139.2148 278.73,-139.8649 273.7407,-137.8482 277.5,-136.4815 277.5,-136.4815 277.5,-136.4815 273.7407,-137.8482 276.27,-133.0982 269.9814,-139.2148 269.9814,-139.2148"/>
<ellipse fill="none" stroke="#000000" cx="266.974" cy="-140.3082" rx="3.2" ry="3.2"/>
</g>
<!-- R_NSI_TYPE&#45;&gt;R_STANDARD_REFERENCE_LIST -->
<g id="edge7" class="edge">
<title>R_NSI_TYPE:w&#45;&gt;R_STANDARD_REFERENCE_LIST:e</title>
<path fill="none" stroke="#000000" d="M263.538,-241.4058C248.9876,-227.7901 254.7204,-191.4815 228,-191.4815"/>
<polygon fill="#000000" stroke="#000000" points="269.9814,-243.7482 276.27,-249.8649 273.7407,-245.1149 277.5,-246.4815 277.5,-246.4815 277.5,-246.4815 273.7407,-245.1149 278.73,-243.0982 269.9814,-243.7482 269.9814,-243.7482"/>
<ellipse fill="none" stroke="#000000" cx="266.974" cy="-242.6549" rx="3.2" ry="3.2"/>
</g>
<!-- R_NSI_TYPE&#45;&gt;R_STANDARD_REFERENCE_LIST -->
<g id="edge8" class="edge">
<title>R_NSI_TYPE:w&#45;&gt;R_STANDARD_REFERENCE_LIST:e</title>
<path fill="none" stroke="#000000" d="M263.4273,-220.1674C251.0607,-211.2223 248.4502,-191.4815 228,-191.4815"/>
<polygon fill="#000000" stroke="#000000" points="269.8513,-222.1367 276.4448,-227.9234 273.6757,-223.3091 277.5,-224.4815 277.5,-224.4815 277.5,-224.4815 273.6757,-223.3091 278.5552,-221.0396 269.8513,-222.1367 269.8513,-222.1367"/>
<ellipse fill="none" stroke="#000000" cx="266.7919" cy="-221.1988" rx="3.2" ry="3.2"/>
</g>
<!-- R_NSI_TYPE&#45;&gt;R_STANDARD_REFERENCE_LIST -->
<g id="edge9" class="edge">
<title>R_NSI_TYPE:w&#45;&gt;R_STANDARD_REFERENCE_LIST:e</title>
<path fill="none" stroke="#000000" d="M263.5953,-286.478C238.7081,-267.9567 271.2365,-191.4815 228,-191.4815"/>
<polygon fill="#000000" stroke="#000000" points="269.8123,-288.268 276.5039,-293.941 273.6562,-289.3748 277.5,-290.4815 277.5,-290.4815 277.5,-290.4815 273.6562,-289.3748 278.4961,-287.0221 269.8123,-288.268 269.8123,-288.268"/>
<ellipse fill="none" stroke="#000000" cx="266.7372" cy="-287.3826" rx="3.2" ry="3.2"/>
</g>
</g>
</svg>
