<?xml version="1.0" encoding="UTF-8" standalone="no"?>
<!DOCTYPE svg PUBLIC "-//W3C//DTD SVG 1.1//EN"
 "http://www.w3.org/Graphics/SVG/1.1/DTD/svg11.dtd">
<!-- Generated by graphviz version 2.40.1 (20161225.0304)
 -->
<!-- Title: oneDegreeRelationshipsDiagram Pages: 1 -->
<svg width="767pt" height="359pt"
 viewBox="0.00 0.00 767.00 359.04" xmlns="http://www.w3.org/2000/svg" xmlns:xlink="http://www.w3.org/1999/xlink">
<g id="graph0" class="graph" transform="scale(1 1) rotate(0) translate(4 355.0441)">
<title>oneDegreeRelationshipsDiagram</title>
<polygon fill="#ffffff" stroke="transparent" points="-4,4 -4,-355.0441 763,-355.0441 763,4 -4,4"/>
<text text-anchor="middle" x="72.4936" y="-7.3" font-family="Helvetica,sans-Serif" font-size="11.00" fill="#000000">Generated by SchemaSpy</text>
<!-- R_NSI_TYPE -->
<g id="node1" class="node">
<title>R_NSI_TYPE</title>
<g id="a_node1"><a xlink:href="../../tables/R_NSI_TYPE.html" xlink:title="R_NSI_TYPE" target="_top">
<polygon fill="#ffffff" stroke="transparent" points="277,-88.0441 277,-347.0441 492,-347.0441 492,-88.0441 277,-88.0441"/>
<polygon fill="#f5f5f5" stroke="transparent" points="277.5,-323.5441 277.5,-346.5441 492.5,-346.5441 492.5,-323.5441 277.5,-323.5441"/>
<polygon fill="none" stroke="#000000" points="277.5,-323.5441 277.5,-346.5441 492.5,-346.5441 492.5,-323.5441 277.5,-323.5441"/>
<text text-anchor="start" x="282.5" y="-332.6441" font-family="Helvetica,sans-Serif" font-weight="bold" font-size="11.00" fill="#000000">R_NSI_TYPE</text>
<text text-anchor="start" x="457.5437" y="-331.6441" font-family="Helvetica,sans-Serif" font-size="11.00" fill="#000000">[table]</text>
<polygon fill="none" stroke="#000000" points="277.5,-301.5441 277.5,-323.5441 492.5,-323.5441 492.5,-301.5441 277.5,-301.5441"/>
<image xlink:href="../../images/primaryKeys.png" width="11px" height="12px" preserveAspectRatio="xMinYMin meet" x="282.5" y="-318.544"/>
<text text-anchor="start" x="297.5" y="-308.6441" font-family="Helvetica,sans-Serif" font-size="11.00" fill="#000000">NSI_TYPE_ID</text>
<polygon fill="none" stroke="#000000" points="277.5,-279.5441 277.5,-301.5441 492.5,-301.5441 492.5,-279.5441 277.5,-279.5441"/>
<image xlink:href="../../images/primaryKeys.png" width="11px" height="12px" preserveAspectRatio="xMinYMin meet" x="282.5" y="-296.544"/>
<text text-anchor="start" x="297.5" y="-286.6441" font-family="Helvetica,sans-Serif" font-size="11.00" fill="#000000">UNITS_ID</text>
<polygon fill="none" stroke="#000000" points="277.5,-257.5441 277.5,-279.5441 492.5,-279.5441 492.5,-257.5441 277.5,-257.5441"/>
<image xlink:href="../../images/primaryKeys.png" width="11px" height="12px" preserveAspectRatio="xMinYMin meet" x="282.5" y="-274.544"/>
<text text-anchor="start" x="297.5" y="-264.6441" font-family="Helvetica,sans-Serif" font-size="11.00" fill="#000000">TRAINING_SESSION_ID</text>
<polygon fill="none" stroke="#000000" points="277.5,-235.5441 277.5,-257.5441 492.5,-257.5441 492.5,-235.5441 277.5,-235.5441"/>
<image xlink:href="../../images/primaryKeys.png" width="11px" height="12px" preserveAspectRatio="xMinYMin meet" x="282.5" y="-252.544"/>
<text text-anchor="start" x="297.5" y="-242.6441" font-family="Helvetica,sans-Serif" font-size="11.00" fill="#000000">NSI_PURPOSE_ID</text>
<polygon fill="none" stroke="#000000" points="277.5,-213.5441 277.5,-235.5441 492.5,-235.5441 492.5,-213.5441 277.5,-213.5441"/>
<image xlink:href="../../images/primaryKeys.png" width="11px" height="12px" preserveAspectRatio="xMinYMin meet" x="282.5" y="-230.544"/>
<text text-anchor="start" x="297.5" y="-220.6441" font-family="Helvetica,sans-Serif" font-size="11.00" fill="#000000">NSI_TRANSFER_TYPE_ID</text>
<polygon fill="none" stroke="#000000" points="277.5,-191.5441 277.5,-213.5441 492.5,-213.5441 492.5,-191.5441 277.5,-191.5441"/>
<image xlink:href="../../images/primaryKeys.png" width="11px" height="12px" preserveAspectRatio="xMinYMin meet" x="282.5" y="-208.544"/>
<text text-anchor="start" x="296.855" y="-198.6441" font-family="Helvetica,sans-Serif" font-size="11.00" fill="#000000">ADDITIONAL_IDENTIFIER_TYPE1_ID</text>
<polygon fill="none" stroke="#000000" points="277.5,-169.5441 277.5,-191.5441 492.5,-191.5441 492.5,-169.5441 277.5,-169.5441"/>
<image xlink:href="../../images/primaryKeys.png" width="11px" height="12px" preserveAspectRatio="xMinYMin meet" x="282.5" y="-186.544"/>
<text text-anchor="start" x="296.855" y="-176.6441" font-family="Helvetica,sans-Serif" font-size="11.00" fill="#000000">ADDITIONAL_IDENTIFIER_TYPE2_ID</text>
<polygon fill="none" stroke="#000000" points="277.5,-147.5441 277.5,-169.5441 492.5,-169.5441 492.5,-147.5441 277.5,-147.5441"/>
<image xlink:href="../../images/primaryKeys.png" width="11px" height="12px" preserveAspectRatio="xMinYMin meet" x="282.5" y="-164.544"/>
<text text-anchor="start" x="297.5" y="-154.6441" font-family="Helvetica,sans-Serif" font-size="11.00" fill="#000000">ADDITIONAL_REFERENCE_1_ID</text>
<polygon fill="none" stroke="#000000" points="277.5,-125.5441 277.5,-147.5441 492.5,-147.5441 492.5,-125.5441 277.5,-125.5441"/>
<image xlink:href="../../images/primaryKeys.png" width="11px" height="12px" preserveAspectRatio="xMinYMin meet" x="282.5" y="-142.544"/>
<text text-anchor="start" x="297.5" y="-132.6441" font-family="Helvetica,sans-Serif" font-size="11.00" fill="#000000">ADDITIONAL_REFERENCE_2_ID</text>
<polygon fill="none" stroke="#000000" points="277.5,-106.5441 277.5,-125.5441 492.5,-125.5441 492.5,-106.5441 277.5,-106.5441"/>
<text text-anchor="start" x="280.5" y="-112.6441" font-family="Helvetica,sans-Serif" font-size="11.00" fill="#000000">...</text>
<polygon fill="#ffffff" stroke="transparent" points="277.5,-87.5441 277.5,-106.5441 356.5,-106.5441 356.5,-87.5441 277.5,-87.5441"/>
<polygon fill="none" stroke="#000000" points="277.5,-87.5441 277.5,-106.5441 356.5,-106.5441 356.5,-87.5441 277.5,-87.5441"/>
<text text-anchor="start" x="280.5" y="-93.6441" font-family="Helvetica,sans-Serif" font-size="11.00" fill="#000000">&lt; 7</text>
<polygon fill="#ffffff" stroke="transparent" points="356.5,-87.5441 356.5,-106.5441 435.5,-106.5441 435.5,-87.5441 356.5,-87.5441"/>
<polygon fill="none" stroke="#000000" points="356.5,-87.5441 356.5,-106.5441 435.5,-106.5441 435.5,-87.5441 356.5,-87.5441"/>
<text text-anchor="start" x="387.8807" y="-93.6441" font-family="Helvetica,sans-Serif" font-size="11.00" fill="#000000">570 rows</text>
<polygon fill="#ffffff" stroke="transparent" points="435.5,-87.5441 435.5,-106.5441 492.5,-106.5441 492.5,-87.5441 435.5,-87.5441"/>
<polygon fill="none" stroke="#000000" points="435.5,-87.5441 435.5,-106.5441 492.5,-106.5441 492.5,-87.5441 435.5,-87.5441"/>
<text text-anchor="start" x="467.7904" y="-93.6441" font-family="Helvetica,sans-Serif" font-size="11.00" fill="#000000">10 &gt;</text>
</a>
</g>
</g>
<!-- R_STANDARD_REFERENCE_LIST -->
<g id="node2" class="node">
<title>R_STANDARD_REFERENCE_LIST</title>
<g id="a_node2"><a xlink:href="../../tables/R_STANDARD_REFERENCE_LIST.html" xlink:title="R_STANDARD_REFERENCE_LIST" target="_top">
<polygon fill="#ffffff" stroke="transparent" points="8,-77.0441 8,-226.0441 228,-226.0441 228,-77.0441 8,-77.0441"/>
<polygon fill="#f5f5f5" stroke="transparent" points="8,-202.5441 8,-225.5441 228,-225.5441 228,-202.5441 8,-202.5441"/>
<polygon fill="none" stroke="#000000" points="8,-202.5441 8,-225.5441 228,-225.5441 228,-202.5441 8,-202.5441"/>
<text text-anchor="start" x="12.5842" y="-211.6441" font-family="Helvetica,sans-Serif" font-weight="bold" font-size="11.00" fill="#000000">R_STANDARD_REFERENCE_LIST</text>
<text text-anchor="start" x="193.5219" y="-210.6441" font-family="Helvetica,sans-Serif" font-size="11.00" fill="#000000">[table]</text>
<polygon fill="none" stroke="#000000" points="8,-180.5441 8,-202.5441 228,-202.5441 228,-180.5441 8,-180.5441"/>
<image xlink:href="../../images/primaryKeys.png" width="11px" height="12px" preserveAspectRatio="xMinYMin meet" x="13" y="-197.544"/>
<text text-anchor="start" x="35.5558" y="-187.6441" font-family="Helvetica,sans-Serif" font-size="11.00" fill="#000000">STANDARD_REFERENCE_LIST_ID</text>
<polygon fill="none" stroke="#000000" points="8,-158.5441 8,-180.5441 228,-180.5441 228,-158.5441 8,-158.5441"/>
<image xlink:href="../../images/primaryKeys.png" width="11px" height="12px" preserveAspectRatio="xMinYMin meet" x="13" y="-175.544"/>
<text text-anchor="start" x="42" y="-165.6441" font-family="Helvetica,sans-Serif" font-size="11.00" fill="#000000">CODE_VALUE</text>
<polygon fill="none" stroke="#000000" points="8,-136.5441 8,-158.5441 228,-158.5441 228,-136.5441 8,-136.5441"/>
<image xlink:href="../../images/primaryKeys.png" width="11px" height="12px" preserveAspectRatio="xMinYMin meet" x="13" y="-153.544"/>
<text text-anchor="start" x="39.8337" y="-143.6441" font-family="Helvetica,sans-Serif" font-size="11.00" fill="#000000">REFERENCE_DATA_MASTER_ID</text>
<polygon fill="none" stroke="#000000" points="8,-114.5441 8,-136.5441 228,-136.5441 228,-114.5441 8,-114.5441"/>
<image xlink:href="../../images/primaryKeys.png" width="11px" height="12px" preserveAspectRatio="xMinYMin meet" x="13" y="-131.544"/>
<text text-anchor="start" x="42" y="-121.6441" font-family="Helvetica,sans-Serif" font-size="11.00" fill="#000000">TRAINING_SESSION_ID</text>
<polygon fill="none" stroke="#000000" points="8,-95.5441 8,-114.5441 228,-114.5441 228,-95.5441 8,-95.5441"/>
<text text-anchor="start" x="11" y="-101.6441" font-family="Helvetica,sans-Serif" font-size="11.00" fill="#000000">...</text>
<polygon fill="#ffffff" stroke="transparent" points="8,-76.5441 8,-95.5441 79,-95.5441 79,-76.5441 8,-76.5441"/>
<polygon fill="none" stroke="#000000" points="8,-76.5441 8,-95.5441 79,-95.5441 79,-76.5441 8,-76.5441"/>
<text text-anchor="start" x="11" y="-82.6441" font-family="Helvetica,sans-Serif" font-size="11.00" fill="#000000">&lt; 1</text>
<polygon fill="#ffffff" stroke="transparent" points="79,-76.5441 79,-95.5441 169,-95.5441 169,-76.5441 79,-76.5441"/>
<polygon fill="none" stroke="#000000" points="79,-76.5441 79,-95.5441 169,-95.5441 169,-76.5441 79,-76.5441"/>
<text text-anchor="start" x="106.094" y="-82.6441" font-family="Helvetica,sans-Serif" font-size="11.00" fill="#000000">15,391 rows</text>
<polygon fill="#ffffff" stroke="transparent" points="169,-76.5441 169,-95.5441 228,-95.5441 228,-76.5441 169,-76.5441"/>
<polygon fill="none" stroke="#000000" points="169,-76.5441 169,-95.5441 228,-95.5441 228,-76.5441 169,-76.5441"/>
<text text-anchor="start" x="197.1755" y="-82.6441" font-family="Helvetica,sans-Serif" font-size="11.00" fill="#000000">293 &gt;</text>
</a>
</g>
</g>
<!-- R_NSI_TYPE&#45;&gt;R_STANDARD_REFERENCE_LIST -->
<g id="edge1" class="edge">
<title>R_NSI_TYPE:w&#45;&gt;R_STANDARD_REFERENCE_LIST:e</title>
<path fill="none" stroke="#000000" d="M263.0598,-200.7277C251.4771,-197.6034 244.7264,-191.5441 228,-191.5441"/>
<polygon fill="#000000" stroke="#000000" points="269.5626,-201.5457 277.0507,-206.116 273.5313,-202.0449 277.5,-202.5441 277.5,-202.5441 277.5,-202.5441 273.5313,-202.0449 277.9493,-198.9723 269.5626,-201.5457 269.5626,-201.5457"/>
<ellipse fill="none" stroke="#000000" cx="266.3876" cy="-201.1463" rx="3.2" ry="3.2"/>
</g>
<!-- R_NSI_TYPE&#45;&gt;R_STANDARD_REFERENCE_LIST -->
<g id="edge2" class="edge">
<title>R_NSI_TYPE:w&#45;&gt;R_STANDARD_REFERENCE_LIST:e</title>
<path fill="none" stroke="#000000" d="M263.0598,-182.3606C251.4771,-185.4849 244.7264,-191.5441 228,-191.5441"/>
<polygon fill="#000000" stroke="#000000" points="269.5626,-181.5426 277.9493,-184.116 273.5313,-181.0434 277.5,-180.5441 277.5,-180.5441 277.5,-180.5441 273.5313,-181.0434 277.0507,-176.9723 269.5626,-181.5426 269.5626,-181.5426"/>
<ellipse fill="none" stroke="#000000" cx="266.3876" cy="-181.942" rx="3.2" ry="3.2"/>
</g>
<!-- R_NSI_TYPE&#45;&gt;R_STANDARD_REFERENCE_LIST -->
<g id="edge3" class="edge">
<title>R_NSI_TYPE:w&#45;&gt;R_STANDARD_REFERENCE_LIST:e</title>
<path fill="none" stroke="#000000" d="M263.4273,-162.8583C251.0607,-171.8034 248.4502,-191.5441 228,-191.5441"/>
<polygon fill="#000000" stroke="#000000" points="269.8513,-160.889 278.5552,-161.986 273.6757,-159.7166 277.5,-158.5441 277.5,-158.5441 277.5,-158.5441 273.6757,-159.7166 276.4448,-155.1023 269.8513,-160.889 269.8513,-160.889"/>
<ellipse fill="none" stroke="#000000" cx="266.7919" cy="-161.8269" rx="3.2" ry="3.2"/>
</g>
<!-- R_NSI_TYPE&#45;&gt;R_STANDARD_REFERENCE_LIST -->
<g id="edge4" class="edge">
<title>R_NSI_TYPE:w&#45;&gt;R_STANDARD_REFERENCE_LIST:e</title>
<path fill="none" stroke="#000000" d="M263.538,-141.6198C248.9876,-155.2356 254.7204,-191.5441 228,-191.5441"/>
<polygon fill="#000000" stroke="#000000" points="269.9814,-139.2775 278.73,-139.9275 273.7407,-137.9108 277.5,-136.5441 277.5,-136.5441 277.5,-136.5441 273.7407,-137.9108 276.27,-133.1608 269.9814,-139.2775 269.9814,-139.2775"/>
<ellipse fill="none" stroke="#000000" cx="266.974" cy="-140.3708" rx="3.2" ry="3.2"/>
</g>
<!-- R_NSI_TYPE&#45;&gt;R_STANDARD_REFERENCE_LIST -->
<g id="edge5" class="edge">
<title>R_NSI_TYPE:w&#45;&gt;R_STANDARD_REFERENCE_LIST:e</title>
<path fill="none" stroke="#000000" d="M263.538,-241.4685C248.9876,-227.8527 254.7204,-191.5441 228,-191.5441"/>
<polygon fill="#000000" stroke="#000000" points="269.9814,-243.8108 276.27,-249.9275 273.7407,-245.1775 277.5,-246.5441 277.5,-246.5441 277.5,-246.5441 273.7407,-245.1775 278.73,-243.1608 269.9814,-243.8108 269.9814,-243.8108"/>
<ellipse fill="none" stroke="#000000" cx="266.974" cy="-242.7175" rx="3.2" ry="3.2"/>
</g>
<!-- R_NSI_TYPE&#45;&gt;R_STANDARD_REFERENCE_LIST -->
<g id="edge6" class="edge">
<title>R_NSI_TYPE:w&#45;&gt;R_STANDARD_REFERENCE_LIST:e</title>
<path fill="none" stroke="#000000" d="M263.4273,-220.23C251.0607,-211.2849 248.4502,-191.5441 228,-191.5441"/>
<polygon fill="#000000" stroke="#000000" points="269.8513,-222.1993 276.4448,-227.986 273.6757,-223.3717 277.5,-224.5441 277.5,-224.5441 277.5,-224.5441 273.6757,-223.3717 278.5552,-221.1023 269.8513,-222.1993 269.8513,-222.1993"/>
<ellipse fill="none" stroke="#000000" cx="266.7919" cy="-221.2614" rx="3.2" ry="3.2"/>
</g>
<!-- R_NSI_TYPE&#45;&gt;R_STANDARD_REFERENCE_LIST -->
<g id="edge7" class="edge">
<title>R_NSI_TYPE:w&#45;&gt;R_STANDARD_REFERENCE_LIST:e</title>
<path fill="none" stroke="#000000" d="M263.5953,-286.5406C238.7081,-268.0193 271.2365,-191.5441 228,-191.5441"/>
<polygon fill="#000000" stroke="#000000" points="269.8123,-288.3306 276.5039,-294.0036 273.6562,-289.4374 277.5,-290.5441 277.5,-290.5441 277.5,-290.5441 273.6562,-289.4374 278.4961,-287.0847 269.8123,-288.3306 269.8123,-288.3306"/>
<ellipse fill="none" stroke="#000000" cx="266.7372" cy="-287.4452" rx="3.2" ry="3.2"/>
</g>
<!-- R_NSI_TYPE_SUB_TYPE -->
<g id="node3" class="node">
<title>R_NSI_TYPE_SUB_TYPE</title>
<g id="a_node3"><a xlink:href="../../tables/R_NSI_TYPE_SUB_TYPE.html" xlink:title="R_NSI_TYPE_SUB_TYPE" target="_top">
<polygon fill="#ffffff" stroke="transparent" points="541,-100.5441 541,-234.5441 751,-234.5441 751,-100.5441 541,-100.5441"/>
<polygon fill="#f5f5f5" stroke="transparent" points="543,-209.5441 543,-232.5441 749,-232.5441 749,-209.5441 543,-209.5441"/>
<polygon fill="none" stroke="#000000" points="543,-209.5441 543,-232.5441 749,-232.5441 749,-209.5441 543,-209.5441"/>
<text text-anchor="start" x="548" y="-218.6441" font-family="Helvetica,sans-Serif" font-weight="bold" font-size="11.00" fill="#000000">R_NSI_TYPE_SUB_TYPE</text>
<text text-anchor="start" x="714.0437" y="-217.6441" font-family="Helvetica,sans-Serif" font-size="11.00" fill="#000000">[table]</text>
<polygon fill="none" stroke="#000000" points="543,-187.5441 543,-209.5441 688,-209.5441 688,-187.5441 543,-187.5441"/>
<image xlink:href="../../images/primaryKeys.png" width="11px" height="12px" preserveAspectRatio="xMinYMin meet" x="548" y="-204.544"/>
<text text-anchor="start" x="563" y="-194.6441" font-family="Helvetica,sans-Serif" font-size="11.00" fill="#000000">NSI_TYPE_ID</text>
<polygon fill="none" stroke="#000000" points="688,-187.5441 688,-209.5441 749,-209.5441 749,-187.5441 688,-187.5441"/>
<text text-anchor="start" x="690.6865" y="-195.2441" font-family="Helvetica,sans-Serif" font-size="11.00" fill="#000000">number[38]</text>
<polygon fill="none" stroke="#000000" points="543,-165.5441 543,-187.5441 688,-187.5441 688,-165.5441 543,-165.5441"/>
<image xlink:href="../../images/primaryKeys.png" width="11px" height="12px" preserveAspectRatio="xMinYMin meet" x="548" y="-182.544"/>
<text text-anchor="start" x="563" y="-172.6441" font-family="Helvetica,sans-Serif" font-size="11.00" fill="#000000">NSI_SUB_TYPE_ID</text>
<polygon fill="none" stroke="#000000" points="688,-165.5441 688,-187.5441 749,-187.5441 749,-165.5441 688,-165.5441"/>
<text text-anchor="start" x="690.6865" y="-173.2441" font-family="Helvetica,sans-Serif" font-size="11.00" fill="#000000">number[38]</text>
<polygon fill="none" stroke="#000000" points="543,-143.5441 543,-165.5441 688,-165.5441 688,-143.5441 543,-143.5441"/>
<text text-anchor="start" x="563" y="-150.6441" font-family="Helvetica,sans-Serif" font-size="11.00" fill="#000000">ROW_VERSION</text>
<polygon fill="none" stroke="#000000" points="688,-143.5441 688,-165.5441 749,-165.5441 749,-143.5441 688,-143.5441"/>
<text text-anchor="start" x="690.6865" y="-151.2441" font-family="Helvetica,sans-Serif" font-size="11.00" fill="#000000">number[38]</text>
<polygon fill="none" stroke="#000000" points="543,-121.5441 543,-143.5441 688,-143.5441 688,-121.5441 543,-121.5441"/>
<image xlink:href="../../images/primaryKeys.png" width="11px" height="12px" preserveAspectRatio="xMinYMin meet" x="548" y="-138.544"/>
<text text-anchor="start" x="560.6625" y="-128.6441" font-family="Helvetica,sans-Serif" font-size="11.00" fill="#000000">TRAINING_SESSION_ID</text>
<polygon fill="none" stroke="#000000" points="688,-121.5441 688,-143.5441 749,-143.5441 749,-121.5441 688,-121.5441"/>
<text text-anchor="start" x="690.6865" y="-129.2441" font-family="Helvetica,sans-Serif" font-size="11.00" fill="#000000">number[38]</text>
<polygon fill="#ffffff" stroke="transparent" points="543,-102.5441 543,-121.5441 604,-121.5441 604,-102.5441 543,-102.5441"/>
<polygon fill="none" stroke="#000000" points="543,-102.5441 543,-121.5441 604,-121.5441 604,-102.5441 543,-102.5441"/>
<text text-anchor="start" x="546" y="-108.6441" font-family="Helvetica,sans-Serif" font-size="11.00" fill="#000000">&lt; 2</text>
<polygon fill="#ffffff" stroke="transparent" points="604,-102.5441 604,-121.5441 688,-121.5441 688,-102.5441 604,-102.5441"/>
<polygon fill="none" stroke="#000000" points="604,-102.5441 604,-121.5441 688,-121.5441 688,-102.5441 604,-102.5441"/>
<text text-anchor="start" x="646.4956" y="-108.6441" font-family="Helvetica,sans-Serif" font-size="11.00" fill="#000000">87 rows</text>
<polygon fill="#ffffff" stroke="transparent" points="688,-102.5441 688,-121.5441 749,-121.5441 749,-102.5441 688,-102.5441"/>
<polygon fill="none" stroke="#000000" points="688,-102.5441 688,-121.5441 749,-121.5441 749,-102.5441 688,-102.5441"/>
<text text-anchor="start" x="730.4053" y="-108.6441" font-family="Helvetica,sans-Serif" font-size="11.00" fill="#000000">0 &gt;</text>
<polygon fill="none" stroke="#000000" stroke-width="2" points="542,-101.5441 542,-233.5441 750,-233.5441 750,-101.5441 542,-101.5441"/>
</a>
</g>
</g>
<!-- R_NSI_TYPE_SUB_TYPE&#45;&gt;R_NSI_TYPE -->
<g id="edge9" class="edge">
<title>R_NSI_TYPE_SUB_TYPE:w&#45;&gt;R_NSI_TYPE:e</title>
<path fill="none" stroke="#000000" d="M528.6679,-202.3371C499.3973,-222.1179 541.8543,-312.5441 492.5,-312.5441"/>
<polygon fill="#000000" stroke="#000000" points="535.2662,-200.5909 543.921,-202.0243 539.1331,-199.5675 543,-198.5441 543,-198.5441 543,-198.5441 539.1331,-199.5675 542.079,-195.064 535.2662,-200.5909 535.2662,-200.5909"/>
<ellipse fill="none" stroke="#000000" cx="532.1727" cy="-201.4096" rx="3.2" ry="3.2"/>
</g>
<!-- R_NSI_TYPE_SUB_TYPE&#45;&gt;R_STANDARD_REFERENCE_LIST -->
<g id="edge8" class="edge">
<title>R_NSI_TYPE_SUB_TYPE:w&#45;&gt;R_STANDARD_REFERENCE_LIST:e</title>
<path fill="none" stroke="#000000" d="M528.7057,-173.1756C505.2363,-158.5745 534.9417,-100.4628 500,-77.5441 414.1524,-21.2358 352.987,-18.4964 269,-77.5441 224.9528,-108.5119 281.8439,-191.5441 228,-191.5441"/>
<polygon fill="#000000" stroke="#000000" points="535.2133,-174.7091 542.1742,-180.0482 539.1066,-175.6266 543,-176.5441 543,-176.5441 543,-176.5441 539.1066,-175.6266 543.8258,-173.0401 535.2133,-174.7091 535.2133,-174.7091"/>
<ellipse fill="none" stroke="#000000" cx="532.0986" cy="-173.9751" rx="3.2" ry="3.2"/>
</g>
</g>
</svg>
