<?xml version="1.0" encoding="UTF-8" standalone="no"?>
<!DOCTYPE svg PUBLIC "-//W3C//DTD SVG 1.1//EN"
 "http://www.w3.org/Graphics/SVG/1.1/DTD/svg11.dtd">
<!-- Generated by graphviz version 2.40.1 (20161225.0304)
 -->
<!-- Title: oneDegreeRelationshipsDiagram Pages: 1 -->
<svg width="986pt" height="718pt"
 viewBox="0.00 0.00 986.00 717.70" xmlns="http://www.w3.org/2000/svg" xmlns:xlink="http://www.w3.org/1999/xlink">
<g id="graph0" class="graph" transform="scale(1 1) rotate(0) translate(4 713.7)">
<title>oneDegreeRelationshipsDiagram</title>
<polygon fill="#ffffff" stroke="transparent" points="-4,4 -4,-713.7 982,-713.7 982,4 -4,4"/>
<text text-anchor="middle" x="72.4936" y="-7.3" font-family="Helvetica,sans-Serif" font-size="11.00" fill="#000000">Generated by SchemaSpy</text>
<!-- NSI -->
<g id="node1" class="node">
<title>NSI</title>
<g id="a_node1"><a xlink:href="../../tables/NSI.html" xlink:title="NSI" target="_top">
<polygon fill="#ffffff" stroke="transparent" points="573,-314.7 573,-705.7 756,-705.7 756,-314.7 573,-314.7"/>
<polygon fill="#f5f5f5" stroke="transparent" points="573.5,-682.2 573.5,-705.2 756.5,-705.2 756.5,-682.2 573.5,-682.2"/>
<polygon fill="none" stroke="#000000" points="573.5,-682.2 573.5,-705.2 756.5,-705.2 756.5,-682.2 573.5,-682.2"/>
<text text-anchor="start" x="578.5" y="-691.3" font-family="Helvetica,sans-Serif" font-weight="bold" font-size="11.00" fill="#000000">NSI</text>
<text text-anchor="start" x="721.5437" y="-690.3" font-family="Helvetica,sans-Serif" font-size="11.00" fill="#000000">[table]</text>
<polygon fill="none" stroke="#000000" points="573.5,-660.2 573.5,-682.2 756.5,-682.2 756.5,-660.2 573.5,-660.2"/>
<image xlink:href="../../images/primaryKeys.png" width="11px" height="12px" preserveAspectRatio="xMinYMin meet" x="578.5" y="-677.2"/>
<text text-anchor="start" x="593.5" y="-667.3" font-family="Helvetica,sans-Serif" font-size="11.00" fill="#000000">NSI_ID</text>
<polygon fill="none" stroke="#000000" points="573.5,-638.2 573.5,-660.2 756.5,-660.2 756.5,-638.2 573.5,-638.2"/>
<image xlink:href="../../images/primaryKeys.png" width="11px" height="12px" preserveAspectRatio="xMinYMin meet" x="578.5" y="-655.2"/>
<text text-anchor="start" x="593.5" y="-645.3" font-family="Helvetica,sans-Serif" font-size="11.00" fill="#000000">OFFENDER_ID</text>
<polygon fill="none" stroke="#000000" points="573.5,-616.2 573.5,-638.2 756.5,-638.2 756.5,-616.2 573.5,-616.2"/>
<image xlink:href="../../images/primaryKeys.png" width="11px" height="12px" preserveAspectRatio="xMinYMin meet" x="578.5" y="-633.2"/>
<text text-anchor="start" x="593.5" y="-623.3" font-family="Helvetica,sans-Serif" font-size="11.00" fill="#000000">EVENT_ID</text>
<polygon fill="none" stroke="#000000" points="573.5,-594.2 573.5,-616.2 756.5,-616.2 756.5,-594.2 573.5,-594.2"/>
<image xlink:href="../../images/primaryKeys.png" width="11px" height="12px" preserveAspectRatio="xMinYMin meet" x="578.5" y="-611.2"/>
<text text-anchor="start" x="593.5" y="-601.3" font-family="Helvetica,sans-Serif" font-size="11.00" fill="#000000">NSI_TYPE_ID</text>
<polygon fill="none" stroke="#000000" points="573.5,-572.2 573.5,-594.2 756.5,-594.2 756.5,-572.2 573.5,-572.2"/>
<image xlink:href="../../images/primaryKeys.png" width="11px" height="12px" preserveAspectRatio="xMinYMin meet" x="578.5" y="-589.2"/>
<text text-anchor="start" x="593.5" y="-579.3" font-family="Helvetica,sans-Serif" font-size="11.00" fill="#000000">NSI_SUB_TYPE_ID</text>
<polygon fill="none" stroke="#000000" points="573.5,-550.2 573.5,-572.2 756.5,-572.2 756.5,-550.2 573.5,-550.2"/>
<image xlink:href="../../images/primaryKeys.png" width="11px" height="12px" preserveAspectRatio="xMinYMin meet" x="578.5" y="-567.2"/>
<text text-anchor="start" x="593.5" y="-557.3" font-family="Helvetica,sans-Serif" font-size="11.00" fill="#000000">NSI_STATUS_ID</text>
<polygon fill="none" stroke="#000000" points="573.5,-528.2 573.5,-550.2 756.5,-550.2 756.5,-528.2 573.5,-528.2"/>
<image xlink:href="../../images/primaryKeys.png" width="11px" height="12px" preserveAspectRatio="xMinYMin meet" x="578.5" y="-545.2"/>
<text text-anchor="start" x="593.5" y="-535.3" font-family="Helvetica,sans-Serif" font-size="11.00" fill="#000000">NSI_OUTCOME_ID</text>
<polygon fill="none" stroke="#000000" points="573.5,-506.2 573.5,-528.2 756.5,-528.2 756.5,-506.2 573.5,-506.2"/>
<image xlink:href="../../images/primaryKeys.png" width="11px" height="12px" preserveAspectRatio="xMinYMin meet" x="578.5" y="-523.2"/>
<text text-anchor="start" x="593.5" y="-513.3" font-family="Helvetica,sans-Serif" font-size="11.00" fill="#000000">TRAINING_SESSION_ID</text>
<polygon fill="none" stroke="#000000" points="573.5,-484.2 573.5,-506.2 756.5,-506.2 756.5,-484.2 573.5,-484.2"/>
<image xlink:href="../../images/primaryKeys.png" width="11px" height="12px" preserveAspectRatio="xMinYMin meet" x="578.5" y="-501.2"/>
<text text-anchor="start" x="593.5" y="-491.3" font-family="Helvetica,sans-Serif" font-size="11.00" fill="#000000">RQMNT_ID</text>
<polygon fill="none" stroke="#000000" points="573.5,-462.2 573.5,-484.2 756.5,-484.2 756.5,-462.2 573.5,-462.2"/>
<image xlink:href="../../images/primaryKeys.png" width="11px" height="12px" preserveAspectRatio="xMinYMin meet" x="578.5" y="-479.2"/>
<text text-anchor="start" x="593.5" y="-469.3" font-family="Helvetica,sans-Serif" font-size="11.00" fill="#000000">INTENDED_PROVIDER_ID</text>
<polygon fill="none" stroke="#000000" points="573.5,-440.2 573.5,-462.2 756.5,-462.2 756.5,-440.2 573.5,-440.2"/>
<image xlink:href="../../images/primaryKeys.png" width="11px" height="12px" preserveAspectRatio="xMinYMin meet" x="578.5" y="-457.2"/>
<text text-anchor="start" x="593.5" y="-447.3" font-family="Helvetica,sans-Serif" font-size="11.00" fill="#000000">ADDITIONAL_IDENTIFIER1_ID</text>
<polygon fill="none" stroke="#000000" points="573.5,-418.2 573.5,-440.2 756.5,-440.2 756.5,-418.2 573.5,-418.2"/>
<image xlink:href="../../images/primaryKeys.png" width="11px" height="12px" preserveAspectRatio="xMinYMin meet" x="578.5" y="-435.2"/>
<text text-anchor="start" x="593.5" y="-425.3" font-family="Helvetica,sans-Serif" font-size="11.00" fill="#000000">ADDITIONAL_IDENTIFIER2_ID</text>
<polygon fill="none" stroke="#000000" points="573.5,-396.2 573.5,-418.2 756.5,-418.2 756.5,-396.2 573.5,-396.2"/>
<image xlink:href="../../images/primaryKeys.png" width="11px" height="12px" preserveAspectRatio="xMinYMin meet" x="578.5" y="-413.2"/>
<text text-anchor="start" x="587.8578" y="-403.3" font-family="Helvetica,sans-Serif" font-size="11.00" fill="#000000">ADDITIONAL_REFERENCE_1_ID</text>
<polygon fill="none" stroke="#000000" points="573.5,-374.2 573.5,-396.2 756.5,-396.2 756.5,-374.2 573.5,-374.2"/>
<image xlink:href="../../images/primaryKeys.png" width="11px" height="12px" preserveAspectRatio="xMinYMin meet" x="578.5" y="-391.2"/>
<text text-anchor="start" x="587.8578" y="-381.3" font-family="Helvetica,sans-Serif" font-size="11.00" fill="#000000">ADDITIONAL_REFERENCE_2_ID</text>
<polygon fill="none" stroke="#000000" points="573.5,-352.2 573.5,-374.2 756.5,-374.2 756.5,-352.2 573.5,-352.2"/>
<image xlink:href="../../images/primaryKeys.png" width="11px" height="12px" preserveAspectRatio="xMinYMin meet" x="578.5" y="-369.2"/>
<text text-anchor="start" x="593.5" y="-359.3" font-family="Helvetica,sans-Serif" font-size="11.00" fill="#000000">EXTERNAL_REFERENCE</text>
<polygon fill="none" stroke="#000000" points="573.5,-333.2 573.5,-352.2 756.5,-352.2 756.5,-333.2 573.5,-333.2"/>
<text text-anchor="start" x="576.5" y="-339.3" font-family="Helvetica,sans-Serif" font-size="11.00" fill="#000000">...</text>
<polygon fill="#ffffff" stroke="transparent" points="573.5,-314.2 573.5,-333.2 642.5,-333.2 642.5,-314.2 573.5,-314.2"/>
<polygon fill="none" stroke="#000000" points="573.5,-314.2 573.5,-333.2 642.5,-333.2 642.5,-314.2 573.5,-314.2"/>
<text text-anchor="start" x="576.5" y="-320.3" font-family="Helvetica,sans-Serif" font-size="11.00" fill="#000000">&lt; 12</text>
<polygon fill="#ffffff" stroke="transparent" points="642.5,-314.2 642.5,-333.2 713.5,-333.2 713.5,-314.2 642.5,-314.2"/>
<polygon fill="none" stroke="#000000" points="642.5,-314.2 642.5,-333.2 713.5,-333.2 713.5,-314.2 642.5,-314.2"/>
<text text-anchor="start" x="665.8807" y="-320.3" font-family="Helvetica,sans-Serif" font-size="11.00" fill="#000000">718 rows</text>
<polygon fill="#ffffff" stroke="transparent" points="713.5,-314.2 713.5,-333.2 756.5,-333.2 756.5,-314.2 713.5,-314.2"/>
<polygon fill="none" stroke="#000000" points="713.5,-314.2 713.5,-333.2 756.5,-333.2 756.5,-314.2 713.5,-314.2"/>
<text text-anchor="start" x="737.9053" y="-320.3" font-family="Helvetica,sans-Serif" font-size="11.00" fill="#000000">6 &gt;</text>
</a>
</g>
</g>
<!-- R_NSI_STATUS -->
<g id="node2" class="node">
<title>R_NSI_STATUS</title>
<g id="a_node2"><a xlink:href="../../tables/R_NSI_STATUS.html" xlink:title="R_NSI_STATUS" target="_top">
<polygon fill="#ffffff" stroke="transparent" points="286,-38.2 286,-326.2 524,-326.2 524,-38.2 286,-38.2"/>
<polygon fill="#f5f5f5" stroke="transparent" points="288,-301.2 288,-324.2 522,-324.2 522,-301.2 288,-301.2"/>
<polygon fill="none" stroke="#000000" points="288,-301.2 288,-324.2 522,-324.2 522,-301.2 288,-301.2"/>
<text text-anchor="start" x="293" y="-310.3" font-family="Helvetica,sans-Serif" font-weight="bold" font-size="11.00" fill="#000000">R_NSI_STATUS</text>
<text text-anchor="start" x="487.0437" y="-309.3" font-family="Helvetica,sans-Serif" font-size="11.00" fill="#000000">[table]</text>
<polygon fill="none" stroke="#000000" points="288,-279.2 288,-301.2 449,-301.2 449,-279.2 288,-279.2"/>
<image xlink:href="../../images/primaryKeys.png" width="11px" height="12px" preserveAspectRatio="xMinYMin meet" x="293" y="-296.2"/>
<text text-anchor="start" x="308" y="-286.3" font-family="Helvetica,sans-Serif" font-size="11.00" fill="#000000">NSI_STATUS_ID</text>
<polygon fill="none" stroke="#000000" points="449,-279.2 449,-301.2 522,-301.2 522,-279.2 449,-279.2"/>
<text text-anchor="start" x="452" y="-286.9" font-family="Helvetica,sans-Serif" font-size="11.00" fill="#000000">number[38]</text>
<polygon fill="none" stroke="#000000" points="288,-257.2 288,-279.2 449,-279.2 449,-257.2 288,-257.2"/>
<text text-anchor="start" x="308" y="-264.3" font-family="Helvetica,sans-Serif" font-size="11.00" fill="#000000">CODE</text>
<polygon fill="none" stroke="#000000" points="449,-257.2 449,-279.2 522,-279.2 522,-257.2 449,-257.2"/>
<text text-anchor="start" x="452" y="-264.9" font-family="Helvetica,sans-Serif" font-size="11.00" fill="#000000">varchar2[20]</text>
<polygon fill="none" stroke="#000000" points="288,-235.2 288,-257.2 449,-257.2 449,-235.2 288,-235.2"/>
<text text-anchor="start" x="308" y="-242.3" font-family="Helvetica,sans-Serif" font-size="11.00" fill="#000000">DESCRIPTION</text>
<polygon fill="none" stroke="#000000" points="449,-235.2 449,-257.2 522,-257.2 522,-235.2 449,-235.2"/>
<text text-anchor="start" x="451.8791" y="-242.9" font-family="Helvetica,sans-Serif" font-size="11.00" fill="#000000">varchar2[200]</text>
<polygon fill="none" stroke="#000000" points="288,-213.2 288,-235.2 449,-235.2 449,-213.2 288,-213.2"/>
<image xlink:href="../../images/primaryKeys.png" width="11px" height="12px" preserveAspectRatio="xMinYMin meet" x="293" y="-230.2"/>
<text text-anchor="start" x="308" y="-220.3" font-family="Helvetica,sans-Serif" font-size="11.00" fill="#000000">CONTACT_TYPE_ID</text>
<polygon fill="none" stroke="#000000" points="449,-213.2 449,-235.2 522,-235.2 522,-213.2 449,-213.2"/>
<text text-anchor="start" x="452" y="-220.9" font-family="Helvetica,sans-Serif" font-size="11.00" fill="#000000">number[38]</text>
<polygon fill="none" stroke="#000000" points="288,-191.2 288,-213.2 449,-213.2 449,-191.2 288,-191.2"/>
<text text-anchor="start" x="308" y="-198.3" font-family="Helvetica,sans-Serif" font-size="11.00" fill="#000000">SELECTABLE</text>
<polygon fill="none" stroke="#000000" points="449,-191.2 449,-213.2 522,-213.2 522,-191.2 449,-191.2"/>
<text text-anchor="start" x="452" y="-198.9" font-family="Helvetica,sans-Serif" font-size="11.00" fill="#000000">char[1]</text>
<polygon fill="none" stroke="#000000" points="288,-169.2 288,-191.2 449,-191.2 449,-169.2 288,-169.2"/>
<text text-anchor="start" x="308" y="-176.3" font-family="Helvetica,sans-Serif" font-size="11.00" fill="#000000">CREATED_BY_USER_ID</text>
<polygon fill="none" stroke="#000000" points="449,-169.2 449,-191.2 522,-191.2 522,-169.2 449,-169.2"/>
<text text-anchor="start" x="452" y="-176.9" font-family="Helvetica,sans-Serif" font-size="11.00" fill="#000000">number[38]</text>
<polygon fill="none" stroke="#000000" points="288,-147.2 288,-169.2 449,-169.2 449,-147.2 288,-147.2"/>
<text text-anchor="start" x="308" y="-154.3" font-family="Helvetica,sans-Serif" font-size="11.00" fill="#000000">CREATED_DATETIME</text>
<polygon fill="none" stroke="#000000" points="449,-147.2 449,-169.2 522,-169.2 522,-147.2 449,-147.2"/>
<text text-anchor="start" x="452" y="-154.9" font-family="Helvetica,sans-Serif" font-size="11.00" fill="#000000">date[7]</text>
<polygon fill="none" stroke="#000000" points="288,-125.2 288,-147.2 449,-147.2 449,-125.2 288,-125.2"/>
<text text-anchor="start" x="306.0235" y="-132.3" font-family="Helvetica,sans-Serif" font-size="11.00" fill="#000000">LAST_UPDATED_USER_ID</text>
<polygon fill="none" stroke="#000000" points="449,-125.2 449,-147.2 522,-147.2 522,-125.2 449,-125.2"/>
<text text-anchor="start" x="452" y="-132.9" font-family="Helvetica,sans-Serif" font-size="11.00" fill="#000000">number[38]</text>
<polygon fill="none" stroke="#000000" points="288,-103.2 288,-125.2 449,-125.2 449,-103.2 288,-103.2"/>
<text text-anchor="start" x="302.0531" y="-110.3" font-family="Helvetica,sans-Serif" font-size="11.00" fill="#000000">LAST_UPDATED_DATETIME</text>
<polygon fill="none" stroke="#000000" points="449,-103.2 449,-125.2 522,-125.2 522,-103.2 449,-103.2"/>
<text text-anchor="start" x="452" y="-110.9" font-family="Helvetica,sans-Serif" font-size="11.00" fill="#000000">date[7]</text>
<polygon fill="none" stroke="#000000" points="288,-81.2 288,-103.2 449,-103.2 449,-81.2 288,-81.2"/>
<text text-anchor="start" x="308" y="-88.3" font-family="Helvetica,sans-Serif" font-size="11.00" fill="#000000">ROW_VERSION</text>
<polygon fill="none" stroke="#000000" points="449,-81.2 449,-103.2 522,-103.2 522,-81.2 449,-81.2"/>
<text text-anchor="start" x="452" y="-88.9" font-family="Helvetica,sans-Serif" font-size="11.00" fill="#000000">number[38]</text>
<polygon fill="none" stroke="#000000" points="288,-59.2 288,-81.2 449,-81.2 449,-59.2 288,-59.2"/>
<image xlink:href="../../images/primaryKeys.png" width="11px" height="12px" preserveAspectRatio="xMinYMin meet" x="293" y="-76.2"/>
<text text-anchor="start" x="308" y="-66.3" font-family="Helvetica,sans-Serif" font-size="11.00" fill="#000000">TRAINING_SESSION_ID</text>
<polygon fill="none" stroke="#000000" points="449,-59.2 449,-81.2 522,-81.2 522,-59.2 449,-59.2"/>
<text text-anchor="start" x="452" y="-66.9" font-family="Helvetica,sans-Serif" font-size="11.00" fill="#000000">number[38]</text>
<polygon fill="#ffffff" stroke="transparent" points="288,-40.2 288,-59.2 357,-59.2 357,-40.2 288,-40.2"/>
<polygon fill="none" stroke="#000000" points="288,-40.2 288,-59.2 357,-59.2 357,-40.2 288,-40.2"/>
<text text-anchor="start" x="291" y="-46.3" font-family="Helvetica,sans-Serif" font-size="11.00" fill="#000000">&lt; 1</text>
<polygon fill="#ffffff" stroke="transparent" points="357,-40.2 357,-59.2 449,-59.2 449,-40.2 357,-40.2"/>
<polygon fill="none" stroke="#000000" points="357,-40.2 357,-59.2 449,-59.2 449,-40.2 357,-40.2"/>
<text text-anchor="start" x="407.4956" y="-46.3" font-family="Helvetica,sans-Serif" font-size="11.00" fill="#000000">94 rows</text>
<polygon fill="#ffffff" stroke="transparent" points="449,-40.2 449,-59.2 522,-59.2 522,-40.2 449,-40.2"/>
<polygon fill="none" stroke="#000000" points="449,-40.2 449,-59.2 522,-59.2 522,-40.2 449,-40.2"/>
<text text-anchor="start" x="503.4053" y="-46.3" font-family="Helvetica,sans-Serif" font-size="11.00" fill="#000000">3 &gt;</text>
<polygon fill="none" stroke="#000000" stroke-width="2" points="287,-39.2 287,-325.2 523,-325.2 523,-39.2 287,-39.2"/>
</a>
</g>
</g>
<!-- NSI&#45;&gt;R_NSI_STATUS -->
<g id="edge1" class="edge">
<title>NSI:w&#45;&gt;R_NSI_STATUS:e</title>
<path fill="none" stroke="#000000" d="M559.1157,-559.6759C467.3136,-537.905 639.2123,-290.2 522,-290.2"/>
<polygon fill="#000000" stroke="#000000" points="565.5445,-560.357 573.1207,-564.78 569.5223,-560.7785 573.5,-561.2 573.5,-561.2 573.5,-561.2 569.5223,-560.7785 573.8793,-557.62 565.5445,-560.357 565.5445,-560.357"/>
<ellipse fill="none" stroke="#000000" cx="562.3623" cy="-560.0199" rx="3.2" ry="3.2"/>
</g>
<!-- R_CONTACT_TYPE -->
<g id="node4" class="node">
<title>R_CONTACT_TYPE</title>
<g id="a_node4"><a xlink:href="../../tables/R_CONTACT_TYPE.html" xlink:title="R_CONTACT_TYPE" target="_top">
<polygon fill="#ffffff" stroke="transparent" points="8,-109.7 8,-258.7 237,-258.7 237,-109.7 8,-109.7"/>
<polygon fill="#f5f5f5" stroke="transparent" points="8.5,-235.2 8.5,-258.2 237.5,-258.2 237.5,-235.2 8.5,-235.2"/>
<polygon fill="none" stroke="#000000" points="8.5,-235.2 8.5,-258.2 237.5,-258.2 237.5,-235.2 8.5,-235.2"/>
<text text-anchor="start" x="13.5" y="-244.3" font-family="Helvetica,sans-Serif" font-weight="bold" font-size="11.00" fill="#000000">R_CONTACT_TYPE</text>
<text text-anchor="start" x="202.5437" y="-243.3" font-family="Helvetica,sans-Serif" font-size="11.00" fill="#000000">[table]</text>
<polygon fill="none" stroke="#000000" points="8.5,-213.2 8.5,-235.2 237.5,-235.2 237.5,-213.2 8.5,-213.2"/>
<image xlink:href="../../images/primaryKeys.png" width="11px" height="12px" preserveAspectRatio="xMinYMin meet" x="13.5" y="-230.2"/>
<text text-anchor="start" x="28.5" y="-220.3" font-family="Helvetica,sans-Serif" font-size="11.00" fill="#000000">CONTACT_TYPE_ID</text>
<polygon fill="none" stroke="#000000" points="8.5,-191.2 8.5,-213.2 237.5,-213.2 237.5,-191.2 8.5,-191.2"/>
<image xlink:href="../../images/primaryKeys.png" width="11px" height="12px" preserveAspectRatio="xMinYMin meet" x="13.5" y="-208.2"/>
<text text-anchor="start" x="28.5" y="-198.3" font-family="Helvetica,sans-Serif" font-size="11.00" fill="#000000">CODE</text>
<polygon fill="none" stroke="#000000" points="8.5,-169.2 8.5,-191.2 237.5,-191.2 237.5,-169.2 8.5,-169.2"/>
<image xlink:href="../../images/primaryKeys.png" width="11px" height="12px" preserveAspectRatio="xMinYMin meet" x="13.5" y="-186.2"/>
<text text-anchor="start" x="28.5" y="-176.3" font-family="Helvetica,sans-Serif" font-size="11.00" fill="#000000">TRAINING_SESSION_ID</text>
<polygon fill="none" stroke="#000000" points="8.5,-147.2 8.5,-169.2 237.5,-169.2 237.5,-147.2 8.5,-147.2"/>
<image xlink:href="../../images/primaryKeys.png" width="11px" height="12px" preserveAspectRatio="xMinYMin meet" x="13.5" y="-164.2"/>
<text text-anchor="start" x="28.5" y="-154.3" font-family="Helvetica,sans-Serif" font-size="11.00" fill="#000000">CONTACT_TYPE_ICON_ID</text>
<polygon fill="none" stroke="#000000" points="8.5,-128.2 8.5,-147.2 237.5,-147.2 237.5,-128.2 8.5,-128.2"/>
<text text-anchor="start" x="11.5" y="-134.3" font-family="Helvetica,sans-Serif" font-size="11.00" fill="#000000">...</text>
<polygon fill="#ffffff" stroke="transparent" points="8.5,-109.2 8.5,-128.2 90.5,-128.2 90.5,-109.2 8.5,-109.2"/>
<polygon fill="none" stroke="#000000" points="8.5,-109.2 8.5,-128.2 90.5,-128.2 90.5,-109.2 8.5,-109.2"/>
<text text-anchor="start" x="11.5" y="-115.3" font-family="Helvetica,sans-Serif" font-size="11.00" fill="#000000">&lt; 1</text>
<polygon fill="#ffffff" stroke="transparent" points="90.5,-109.2 90.5,-128.2 179.5,-128.2 179.5,-109.2 90.5,-109.2"/>
<polygon fill="none" stroke="#000000" points="90.5,-109.2 90.5,-128.2 179.5,-128.2 179.5,-109.2 90.5,-109.2"/>
<text text-anchor="start" x="122.7089" y="-115.3" font-family="Helvetica,sans-Serif" font-size="11.00" fill="#000000">3,021 rows</text>
<polygon fill="#ffffff" stroke="transparent" points="179.5,-109.2 179.5,-128.2 237.5,-128.2 237.5,-109.2 179.5,-109.2"/>
<polygon fill="none" stroke="#000000" points="179.5,-109.2 179.5,-128.2 237.5,-128.2 237.5,-109.2 179.5,-109.2"/>
<text text-anchor="start" x="212.7904" y="-115.3" font-family="Helvetica,sans-Serif" font-size="11.00" fill="#000000">21 &gt;</text>
</a>
</g>
</g>
<!-- R_NSI_STATUS&#45;&gt;R_CONTACT_TYPE -->
<g id="edge4" class="edge">
<title>R_NSI_STATUS:w&#45;&gt;R_CONTACT_TYPE:e</title>
<path fill="none" stroke="#000000" d="M273.4203,-224.2C261.5435,-224.2 254.158,-224.2 237.5,-224.2"/>
<polygon fill="#000000" stroke="#000000" points="280,-224.2001 288,-227.8 284,-224.2 288,-224.2 288,-224.2 288,-224.2 284,-224.2 288,-220.6 280,-224.2001 280,-224.2001"/>
<ellipse fill="none" stroke="#000000" cx="276.8" cy="-224.2001" rx="3.2" ry="3.2"/>
</g>
<!-- NSI_STATUS_HISTORY -->
<g id="node3" class="node">
<title>NSI_STATUS_HISTORY</title>
<g id="a_node3"><a xlink:href="../../tables/NSI_STATUS_HISTORY.html" xlink:title="NSI_STATUS_HISTORY" target="_top">
<polygon fill="#ffffff" stroke="transparent" points="805,-420.7 805,-547.7 970,-547.7 970,-420.7 805,-420.7"/>
<polygon fill="#f5f5f5" stroke="transparent" points="805.5,-524.2 805.5,-547.2 970.5,-547.2 970.5,-524.2 805.5,-524.2"/>
<polygon fill="none" stroke="#000000" points="805.5,-524.2 805.5,-547.2 970.5,-547.2 970.5,-524.2 805.5,-524.2"/>
<text text-anchor="start" x="810.0804" y="-533.3" font-family="Helvetica,sans-Serif" font-weight="bold" font-size="11.00" fill="#000000">NSI_STATUS_HISTORY</text>
<text text-anchor="start" x="936.0219" y="-532.3" font-family="Helvetica,sans-Serif" font-size="11.00" fill="#000000">[table]</text>
<polygon fill="none" stroke="#000000" points="805.5,-502.2 805.5,-524.2 970.5,-524.2 970.5,-502.2 805.5,-502.2"/>
<image xlink:href="../../images/primaryKeys.png" width="11px" height="12px" preserveAspectRatio="xMinYMin meet" x="810.5" y="-519.2"/>
<text text-anchor="start" x="825.5241" y="-509.3" font-family="Helvetica,sans-Serif" font-size="11.00" fill="#000000">NSI_STATUS_HISTORY_ID</text>
<polygon fill="none" stroke="#000000" points="805.5,-480.2 805.5,-502.2 970.5,-502.2 970.5,-480.2 805.5,-480.2"/>
<image xlink:href="../../images/primaryKeys.png" width="11px" height="12px" preserveAspectRatio="xMinYMin meet" x="810.5" y="-497.2"/>
<text text-anchor="start" x="827.5" y="-487.3" font-family="Helvetica,sans-Serif" font-size="11.00" fill="#000000">NSI_ID</text>
<polygon fill="none" stroke="#000000" points="805.5,-458.2 805.5,-480.2 970.5,-480.2 970.5,-458.2 805.5,-458.2"/>
<image xlink:href="../../images/primaryKeys.png" width="11px" height="12px" preserveAspectRatio="xMinYMin meet" x="810.5" y="-475.2"/>
<text text-anchor="start" x="827.5" y="-465.3" font-family="Helvetica,sans-Serif" font-size="11.00" fill="#000000">NSI_STATUS_ID</text>
<polygon fill="none" stroke="#000000" points="805.5,-439.2 805.5,-458.2 970.5,-458.2 970.5,-439.2 805.5,-439.2"/>
<text text-anchor="start" x="808.5" y="-445.3" font-family="Helvetica,sans-Serif" font-size="11.00" fill="#000000">...</text>
<polygon fill="#ffffff" stroke="transparent" points="805.5,-420.2 805.5,-439.2 859.5,-439.2 859.5,-420.2 805.5,-420.2"/>
<polygon fill="none" stroke="#000000" points="805.5,-420.2 805.5,-439.2 859.5,-439.2 859.5,-420.2 805.5,-420.2"/>
<text text-anchor="start" x="808.5" y="-426.3" font-family="Helvetica,sans-Serif" font-size="11.00" fill="#000000">&lt; 2</text>
<polygon fill="#ffffff" stroke="transparent" points="859.5,-420.2 859.5,-439.2 941.5,-439.2 941.5,-420.2 859.5,-420.2"/>
<polygon fill="none" stroke="#000000" points="859.5,-420.2 859.5,-439.2 941.5,-439.2 941.5,-420.2 859.5,-420.2"/>
<text text-anchor="start" x="878.594" y="-426.3" font-family="Helvetica,sans-Serif" font-size="11.00" fill="#000000">51,019 rows</text>
<polygon fill="#ffffff" stroke="transparent" points="941.5,-420.2 941.5,-439.2 970.5,-439.2 970.5,-420.2 941.5,-420.2"/>
<polygon fill="none" stroke="#000000" points="941.5,-420.2 941.5,-439.2 970.5,-439.2 970.5,-420.2 941.5,-420.2"/>
<text text-anchor="start" x="961.3862" y="-426.3" font-family="Helvetica,sans-Serif" font-size="11.00" fill="#000000"> &#160;</text>
</a>
</g>
</g>
<!-- NSI_STATUS_HISTORY&#45;&gt;NSI -->
<g id="edge2" class="edge">
<title>NSI_STATUS_HISTORY:w&#45;&gt;NSI:e</title>
<path fill="none" stroke="#000000" d="M791.1692,-493.6084C737.6272,-514.9682 833.7435,-671.2 756.5,-671.2"/>
<polygon fill="#000000" stroke="#000000" points="797.6106,-492.5259 806.0967,-494.7502 801.5553,-491.863 805.5,-491.2 805.5,-491.2 805.5,-491.2 801.5553,-491.863 804.9033,-487.6498 797.6106,-492.5259 797.6106,-492.5259"/>
<ellipse fill="none" stroke="#000000" cx="794.4549" cy="-493.0563" rx="3.2" ry="3.2"/>
</g>
<!-- NSI_STATUS_HISTORY&#45;&gt;R_NSI_STATUS -->
<g id="edge3" class="edge">
<title>NSI_STATUS_HISTORY:w&#45;&gt;R_NSI_STATUS:e</title>
<path fill="none" stroke="#000000" d="M791.0037,-467.2488C743.0828,-451.8038 817.8288,-348.7255 764,-304.2 722.4921,-269.866 575.8677,-290.2 522,-290.2"/>
<polygon fill="#000000" stroke="#000000" points="797.5715,-468.1328 805.0198,-472.7678 801.5357,-468.6664 805.5,-469.2 805.5,-469.2 805.5,-469.2 801.5357,-468.6664 805.9802,-465.6322 797.5715,-468.1328 797.5715,-468.1328"/>
<ellipse fill="none" stroke="#000000" cx="794.4001" cy="-467.7059" rx="3.2" ry="3.2"/>
</g>
<!-- R_NSI_TYPE_STATUS -->
<g id="node5" class="node">
<title>R_NSI_TYPE_STATUS</title>
<g id="a_node5"><a xlink:href="../../tables/R_NSI_TYPE_STATUS.html" xlink:title="R_NSI_TYPE_STATUS" target="_top">
<polygon fill="#ffffff" stroke="transparent" points="585,-116.7 585,-265.7 744,-265.7 744,-116.7 585,-116.7"/>
<polygon fill="#f5f5f5" stroke="transparent" points="585.5,-242.2 585.5,-265.2 744.5,-265.2 744.5,-242.2 585.5,-242.2"/>
<polygon fill="none" stroke="#000000" points="585.5,-242.2 585.5,-265.2 744.5,-265.2 744.5,-242.2 585.5,-242.2"/>
<text text-anchor="start" x="590.1324" y="-251.3" font-family="Helvetica,sans-Serif" font-weight="bold" font-size="11.00" fill="#000000">R_NSI_TYPE_STATUS</text>
<text text-anchor="start" x="710.0219" y="-250.3" font-family="Helvetica,sans-Serif" font-size="11.00" fill="#000000">[table]</text>
<polygon fill="none" stroke="#000000" points="585.5,-220.2 585.5,-242.2 744.5,-242.2 744.5,-220.2 585.5,-220.2"/>
<image xlink:href="../../images/primaryKeys.png" width="11px" height="12px" preserveAspectRatio="xMinYMin meet" x="590.5" y="-237.2"/>
<text text-anchor="start" x="613.1039" y="-227.3" font-family="Helvetica,sans-Serif" font-size="11.00" fill="#000000">NSI_TYPE_STATUS_ID</text>
<polygon fill="none" stroke="#000000" points="585.5,-198.2 585.5,-220.2 744.5,-220.2 744.5,-198.2 585.5,-198.2"/>
<image xlink:href="../../images/primaryKeys.png" width="11px" height="12px" preserveAspectRatio="xMinYMin meet" x="590.5" y="-215.2"/>
<text text-anchor="start" x="614.5" y="-205.3" font-family="Helvetica,sans-Serif" font-size="11.00" fill="#000000">NSI_TYPE_ID</text>
<polygon fill="none" stroke="#000000" points="585.5,-176.2 585.5,-198.2 744.5,-198.2 744.5,-176.2 585.5,-176.2"/>
<image xlink:href="../../images/primaryKeys.png" width="11px" height="12px" preserveAspectRatio="xMinYMin meet" x="590.5" y="-193.2"/>
<text text-anchor="start" x="614.5" y="-183.3" font-family="Helvetica,sans-Serif" font-size="11.00" fill="#000000">NSI_STATUS_ID</text>
<polygon fill="none" stroke="#000000" points="585.5,-154.2 585.5,-176.2 744.5,-176.2 744.5,-154.2 585.5,-154.2"/>
<image xlink:href="../../images/primaryKeys.png" width="11px" height="12px" preserveAspectRatio="xMinYMin meet" x="590.5" y="-171.2"/>
<text text-anchor="start" x="610.6625" y="-161.3" font-family="Helvetica,sans-Serif" font-size="11.00" fill="#000000">TRAINING_SESSION_ID</text>
<polygon fill="none" stroke="#000000" points="585.5,-135.2 585.5,-154.2 744.5,-154.2 744.5,-135.2 585.5,-135.2"/>
<text text-anchor="start" x="588.5" y="-141.3" font-family="Helvetica,sans-Serif" font-size="11.00" fill="#000000">...</text>
<polygon fill="#ffffff" stroke="transparent" points="585.5,-116.2 585.5,-135.2 644.5,-135.2 644.5,-116.2 585.5,-116.2"/>
<polygon fill="none" stroke="#000000" points="585.5,-116.2 585.5,-135.2 644.5,-135.2 644.5,-116.2 585.5,-116.2"/>
<text text-anchor="start" x="588.5" y="-122.3" font-family="Helvetica,sans-Serif" font-size="11.00" fill="#000000">&lt; 2</text>
<polygon fill="#ffffff" stroke="transparent" points="644.5,-116.2 644.5,-135.2 713.5,-135.2 713.5,-116.2 644.5,-116.2"/>
<polygon fill="none" stroke="#000000" points="644.5,-116.2 644.5,-135.2 713.5,-135.2 713.5,-116.2 644.5,-116.2"/>
<text text-anchor="start" x="665.8807" y="-122.3" font-family="Helvetica,sans-Serif" font-size="11.00" fill="#000000">131 rows</text>
<polygon fill="#ffffff" stroke="transparent" points="713.5,-116.2 713.5,-135.2 744.5,-135.2 744.5,-116.2 713.5,-116.2"/>
<polygon fill="none" stroke="#000000" points="713.5,-116.2 713.5,-135.2 744.5,-135.2 744.5,-116.2 713.5,-116.2"/>
<text text-anchor="start" x="735.3862" y="-122.3" font-family="Helvetica,sans-Serif" font-size="11.00" fill="#000000"> &#160;</text>
</a>
</g>
</g>
<!-- R_NSI_TYPE_STATUS&#45;&gt;R_NSI_STATUS -->
<g id="edge5" class="edge">
<title>R_NSI_TYPE_STATUS:w&#45;&gt;R_NSI_STATUS:e</title>
<path fill="none" stroke="#000000" d="M571.1092,-190.627C540.1887,-208.4991 569.8962,-290.2 522,-290.2"/>
<polygon fill="#000000" stroke="#000000" points="577.7176,-189.0533 586.334,-190.7021 581.6088,-188.1267 585.5,-187.2 585.5,-187.2 585.5,-187.2 581.6088,-188.1267 584.666,-183.6979 577.7176,-189.0533 577.7176,-189.0533"/>
<ellipse fill="none" stroke="#000000" cx="574.6047" cy="-189.7946" rx="3.2" ry="3.2"/>
</g>
</g>
</svg>
