<?xml version="1.0" encoding="UTF-8" standalone="no"?>
<!DOCTYPE svg PUBLIC "-//W3C//DTD SVG 1.1//EN"
 "http://www.w3.org/Graphics/SVG/1.1/DTD/svg11.dtd">
<!-- Generated by graphviz version 2.40.1 (20161225.0304)
 -->
<!-- Title: twoDegreesRelationshipsDiagram Pages: 1 -->
<svg width="1088pt" height="528pt"
 viewBox="0.00 0.00 1088.00 527.88" xmlns="http://www.w3.org/2000/svg" xmlns:xlink="http://www.w3.org/1999/xlink">
<g id="graph0" class="graph" transform="scale(1 1) rotate(0) translate(4 523.8826)">
<title>twoDegreesRelationshipsDiagram</title>
<polygon fill="#ffffff" stroke="transparent" points="-4,4 -4,-523.8826 1084,-523.8826 1084,4 -4,4"/>
<text text-anchor="middle" x="72.4936" y="-7.3" font-family="Helvetica,sans-Serif" font-size="11.00" fill="#000000">Generated by SchemaSpy</text>
<!-- CONTACT -->
<g id="node1" class="node">
<title>CONTACT</title>
<g id="a_node1"><a xlink:href="../../tables/CONTACT.html" xlink:title="CONTACT" target="_top">
<polygon fill="#ffffff" stroke="transparent" points="734,-391.2 734,-452.2 860,-452.2 860,-391.2 734,-391.2"/>
<polygon fill="#f5f5f5" stroke="transparent" points="734,-428.7 734,-451.7 860,-451.7 860,-428.7 734,-428.7"/>
<polygon fill="none" stroke="#000000" points="734,-428.7 734,-451.7 860,-451.7 860,-428.7 734,-428.7"/>
<text text-anchor="start" x="739" y="-437.8" font-family="Helvetica,sans-Serif" font-weight="bold" font-size="11.00" fill="#000000">CONTACT</text>
<text text-anchor="start" x="825.0437" y="-436.8" font-family="Helvetica,sans-Serif" font-size="11.00" fill="#000000">[table]</text>
<polygon fill="none" stroke="#000000" points="734,-409.7 734,-428.7 860,-428.7 860,-409.7 734,-409.7"/>
<text text-anchor="start" x="737" y="-415.8" font-family="Helvetica,sans-Serif" font-size="11.00" fill="#000000">...</text>
<polygon fill="#ffffff" stroke="transparent" points="734,-390.7 734,-409.7 761,-409.7 761,-390.7 734,-390.7"/>
<polygon fill="none" stroke="#000000" points="734,-390.7 734,-409.7 761,-409.7 761,-390.7 734,-390.7"/>
<text text-anchor="start" x="736.6452" y="-396.8" font-family="Helvetica,sans-Serif" font-size="11.00" fill="#000000">&lt; 25</text>
<polygon fill="#ffffff" stroke="transparent" points="761,-390.7 761,-409.7 833,-409.7 833,-390.7 761,-390.7"/>
<polygon fill="none" stroke="#000000" points="761,-390.7 761,-409.7 833,-409.7 833,-390.7 761,-390.7"/>
<text text-anchor="start" x="763.9896" y="-396.8" font-family="Helvetica,sans-Serif" font-size="11.00" fill="#000000">165,869 rows</text>
<polygon fill="#ffffff" stroke="transparent" points="833,-390.7 833,-409.7 860,-409.7 860,-390.7 833,-390.7"/>
<polygon fill="none" stroke="#000000" points="833,-390.7 833,-409.7 860,-409.7 860,-390.7 833,-390.7"/>
<text text-anchor="start" x="835.6452" y="-396.8" font-family="Helvetica,sans-Serif" font-size="11.00" fill="#000000">14 &gt;</text>
</a>
</g>
</g>
<!-- OFFICE_LOCATION -->
<g id="node2" class="node">
<title>OFFICE_LOCATION</title>
<g id="a_node2"><a xlink:href="../../tables/OFFICE_LOCATION.html" xlink:title="OFFICE_LOCATION" target="_top">
<polygon fill="#ffffff" stroke="transparent" points="200,-147.2 200,-318.2 361,-318.2 361,-147.2 200,-147.2"/>
<polygon fill="#f5f5f5" stroke="transparent" points="200.5,-294.7 200.5,-317.7 361.5,-317.7 361.5,-294.7 200.5,-294.7"/>
<polygon fill="none" stroke="#000000" points="200.5,-294.7 200.5,-317.7 361.5,-317.7 361.5,-294.7 200.5,-294.7"/>
<text text-anchor="start" x="205.5" y="-303.8" font-family="Helvetica,sans-Serif" font-weight="bold" font-size="11.00" fill="#000000">OFFICE_LOCATION</text>
<text text-anchor="start" x="326.5437" y="-302.8" font-family="Helvetica,sans-Serif" font-size="11.00" fill="#000000">[table]</text>
<polygon fill="none" stroke="#000000" points="200.5,-272.7 200.5,-294.7 361.5,-294.7 361.5,-272.7 200.5,-272.7"/>
<image xlink:href="../../images/primaryKeys.png" width="11px" height="12px" preserveAspectRatio="xMinYMin meet" x="205.5" y="-289.7"/>
<text text-anchor="start" x="220.5" y="-279.8" font-family="Helvetica,sans-Serif" font-size="11.00" fill="#000000">OFFICE_LOCATION_ID</text>
<polygon fill="none" stroke="#000000" points="200.5,-250.7 200.5,-272.7 361.5,-272.7 361.5,-250.7 200.5,-250.7"/>
<image xlink:href="../../images/primaryKeys.png" width="11px" height="12px" preserveAspectRatio="xMinYMin meet" x="205.5" y="-267.7"/>
<text text-anchor="start" x="220.5" y="-257.8" font-family="Helvetica,sans-Serif" font-size="11.00" fill="#000000">CODE</text>
<polygon fill="none" stroke="#000000" points="200.5,-228.7 200.5,-250.7 361.5,-250.7 361.5,-228.7 200.5,-228.7"/>
<image xlink:href="../../images/primaryKeys.png" width="11px" height="12px" preserveAspectRatio="xMinYMin meet" x="205.5" y="-245.7"/>
<text text-anchor="start" x="220.5" y="-235.8" font-family="Helvetica,sans-Serif" font-size="11.00" fill="#000000">DISTRICT_ID</text>
<polygon fill="none" stroke="#000000" points="200.5,-206.7 200.5,-228.7 361.5,-228.7 361.5,-206.7 200.5,-206.7"/>
<image xlink:href="../../images/primaryKeys.png" width="11px" height="12px" preserveAspectRatio="xMinYMin meet" x="205.5" y="-223.7"/>
<text text-anchor="start" x="220.5" y="-213.8" font-family="Helvetica,sans-Serif" font-size="11.00" fill="#000000">TRAINING_SESSION_ID</text>
<polygon fill="none" stroke="#000000" points="200.5,-184.7 200.5,-206.7 361.5,-206.7 361.5,-184.7 200.5,-184.7"/>
<image xlink:href="../../images/primaryKeys.png" width="11px" height="12px" preserveAspectRatio="xMinYMin meet" x="205.5" y="-201.7"/>
<text text-anchor="start" x="220.5" y="-191.8" font-family="Helvetica,sans-Serif" font-size="11.00" fill="#000000">PROBATION_AREA_ID</text>
<polygon fill="none" stroke="#000000" points="200.5,-165.7 200.5,-184.7 361.5,-184.7 361.5,-165.7 200.5,-165.7"/>
<text text-anchor="start" x="203.5" y="-171.8" font-family="Helvetica,sans-Serif" font-size="11.00" fill="#000000">...</text>
<polygon fill="#ffffff" stroke="transparent" points="200.5,-146.7 200.5,-165.7 251.5,-165.7 251.5,-146.7 200.5,-146.7"/>
<polygon fill="none" stroke="#000000" points="200.5,-146.7 200.5,-165.7 251.5,-165.7 251.5,-146.7 200.5,-146.7"/>
<text text-anchor="start" x="203.5" y="-152.8" font-family="Helvetica,sans-Serif" font-size="11.00" fill="#000000">&lt; 2</text>
<polygon fill="#ffffff" stroke="transparent" points="251.5,-146.7 251.5,-165.7 325.5,-165.7 325.5,-146.7 251.5,-146.7"/>
<polygon fill="none" stroke="#000000" points="251.5,-146.7 251.5,-165.7 325.5,-165.7 325.5,-146.7 251.5,-146.7"/>
<text text-anchor="start" x="268.7089" y="-152.8" font-family="Helvetica,sans-Serif" font-size="11.00" fill="#000000">4,727 rows</text>
<polygon fill="#ffffff" stroke="transparent" points="325.5,-146.7 325.5,-165.7 361.5,-165.7 361.5,-146.7 325.5,-146.7"/>
<polygon fill="none" stroke="#000000" points="325.5,-146.7 325.5,-165.7 361.5,-165.7 361.5,-146.7 325.5,-146.7"/>
<text text-anchor="start" x="342.9053" y="-152.8" font-family="Helvetica,sans-Serif" font-size="11.00" fill="#000000">8 &gt;</text>
</a>
</g>
</g>
<!-- CONTACT&#45;&gt;OFFICE_LOCATION -->
<g id="edge1" class="edge">
<title>CONTACT:w&#45;&gt;OFFICE_LOCATION:e</title>
<path fill="none" stroke="#000000" d="M719.3751,-417.4126C707.6079,-415.1273 700.6778,-410.3531 684,-407.7 621.8072,-397.8064 452.6891,-417.069 402,-379.7 364.7261,-352.2209 407.8081,-283.7 361.5,-283.7"/>
<polygon fill="#000000" stroke="#000000" points="726.0308,-417.9984 733.6843,-422.2861 730.0154,-418.3492 734,-418.7 734,-418.7 734,-418.7 730.0154,-418.3492 734.3157,-415.1139 726.0308,-417.9984 726.0308,-417.9984"/>
<ellipse fill="none" stroke="#000000" cx="722.8431" cy="-417.7178" rx="3.2" ry="3.2"/>
</g>
<!-- PROBATION_AREA -->
<g id="node3" class="node">
<title>PROBATION_AREA</title>
<g id="a_node3"><a xlink:href="../../tables/PROBATION_AREA.html" xlink:title="PROBATION_AREA" target="_top">
<polygon fill="#ffffff" stroke="transparent" points="8,-376.2 8,-437.2 151,-437.2 151,-376.2 8,-376.2"/>
<polygon fill="#f5f5f5" stroke="transparent" points="8.5,-413.7 8.5,-436.7 151.5,-436.7 151.5,-413.7 8.5,-413.7"/>
<polygon fill="none" stroke="#000000" points="8.5,-413.7 8.5,-436.7 151.5,-436.7 151.5,-413.7 8.5,-413.7"/>
<text text-anchor="start" x="13.0782" y="-422.8" font-family="Helvetica,sans-Serif" font-weight="bold" font-size="11.00" fill="#000000">PROBATION_AREA</text>
<text text-anchor="start" x="117.0219" y="-421.8" font-family="Helvetica,sans-Serif" font-size="11.00" fill="#000000">[table]</text>
<polygon fill="none" stroke="#000000" points="8.5,-394.7 8.5,-413.7 151.5,-413.7 151.5,-394.7 8.5,-394.7"/>
<text text-anchor="start" x="11.5" y="-400.8" font-family="Helvetica,sans-Serif" font-size="11.00" fill="#000000">...</text>
<polygon fill="#ffffff" stroke="transparent" points="8.5,-375.7 8.5,-394.7 51.5,-394.7 51.5,-375.7 8.5,-375.7"/>
<polygon fill="none" stroke="#000000" points="8.5,-375.7 8.5,-394.7 51.5,-394.7 51.5,-375.7 8.5,-375.7"/>
<text text-anchor="start" x="11.5" y="-381.8" font-family="Helvetica,sans-Serif" font-size="11.00" fill="#000000">&lt; 8</text>
<polygon fill="#ffffff" stroke="transparent" points="51.5,-375.7 51.5,-394.7 112.5,-394.7 112.5,-375.7 51.5,-375.7"/>
<polygon fill="none" stroke="#000000" points="51.5,-375.7 51.5,-394.7 112.5,-394.7 112.5,-375.7 51.5,-375.7"/>
<text text-anchor="start" x="64.8807" y="-381.8" font-family="Helvetica,sans-Serif" font-size="11.00" fill="#000000">223 rows</text>
<polygon fill="#ffffff" stroke="transparent" points="112.5,-375.7 112.5,-394.7 151.5,-394.7 151.5,-375.7 112.5,-375.7"/>
<polygon fill="none" stroke="#000000" points="112.5,-375.7 112.5,-394.7 151.5,-394.7 151.5,-375.7 112.5,-375.7"/>
<text text-anchor="start" x="126.7904" y="-381.8" font-family="Helvetica,sans-Serif" font-size="11.00" fill="#000000">59 &gt;</text>
</a>
</g>
</g>
<!-- CONTACT&#45;&gt;PROBATION_AREA -->
<g id="edge2" class="edge">
<title>CONTACT:w&#45;&gt;PROBATION_AREA:e</title>
<path fill="none" stroke="#000000" d="M719.9569,-422.26C701.1522,-434.4673 712.9054,-474.7022 684,-489.7 572.7502,-547.4229 526.0834,-507.3567 402,-489.7 305.7781,-476.0079 280.8286,-468.1411 192,-428.7 172.6669,-420.1158 172.6532,-403.7 151.5,-403.7"/>
<polygon fill="#000000" stroke="#000000" points="726.2453,-420.6659 734.8847,-422.1896 730.1227,-419.683 734,-418.7 734,-418.7 734,-418.7 730.1227,-419.683 733.1153,-415.2104 726.2453,-420.6659 726.2453,-420.6659"/>
<ellipse fill="none" stroke="#000000" cx="723.1434" cy="-421.4523" rx="3.2" ry="3.2"/>
</g>
<!-- OFFICE_LOCATION&#45;&gt;PROBATION_AREA -->
<g id="edge6" class="edge">
<title>OFFICE_LOCATION:w&#45;&gt;PROBATION_AREA:e</title>
<path fill="none" stroke="#000000" d="M186.1402,-197.7586C121.2326,-219.3609 240.91,-403.7 151.5,-403.7"/>
<polygon fill="#000000" stroke="#000000" points="192.581,-196.8353 201.0109,-199.2636 196.5405,-196.2677 200.5,-195.7 200.5,-195.7 200.5,-195.7 196.5405,-196.2677 199.9891,-192.1364 192.581,-196.8353 192.581,-196.8353"/>
<ellipse fill="none" stroke="#000000" cx="189.4133" cy="-197.2895" rx="3.2" ry="3.2"/>
</g>
<!-- DISTRICT -->
<g id="node5" class="node">
<title>DISTRICT</title>
<g id="a_node5"><a xlink:href="../../tables/DISTRICT.html" xlink:title="DISTRICT" target="_top">
<polygon fill="#ffffff" stroke="transparent" points="29,-212.2 29,-273.2 130,-273.2 130,-212.2 29,-212.2"/>
<polygon fill="#f5f5f5" stroke="transparent" points="29.5,-249.7 29.5,-272.7 130.5,-272.7 130.5,-249.7 29.5,-249.7"/>
<polygon fill="none" stroke="#000000" points="29.5,-249.7 29.5,-272.7 130.5,-272.7 130.5,-249.7 29.5,-249.7"/>
<text text-anchor="start" x="34.5" y="-258.8" font-family="Helvetica,sans-Serif" font-weight="bold" font-size="11.00" fill="#000000">DISTRICT</text>
<text text-anchor="start" x="95.5437" y="-257.8" font-family="Helvetica,sans-Serif" font-size="11.00" fill="#000000">[table]</text>
<polygon fill="none" stroke="#000000" points="29.5,-230.7 29.5,-249.7 130.5,-249.7 130.5,-230.7 29.5,-230.7"/>
<text text-anchor="start" x="32.5" y="-236.8" font-family="Helvetica,sans-Serif" font-size="11.00" fill="#000000">...</text>
<polygon fill="#ffffff" stroke="transparent" points="29.5,-211.7 29.5,-230.7 50.5,-230.7 50.5,-211.7 29.5,-211.7"/>
<polygon fill="none" stroke="#000000" points="29.5,-211.7 29.5,-230.7 50.5,-230.7 50.5,-211.7 29.5,-211.7"/>
<text text-anchor="start" x="32.2027" y="-217.8" font-family="Helvetica,sans-Serif" font-size="11.00" fill="#000000">&lt; 1</text>
<polygon fill="#ffffff" stroke="transparent" points="50.5,-211.7 50.5,-230.7 109.5,-230.7 109.5,-211.7 50.5,-211.7"/>
<polygon fill="none" stroke="#000000" points="50.5,-211.7 50.5,-230.7 109.5,-230.7 109.5,-211.7 50.5,-211.7"/>
<text text-anchor="start" x="53.1045" y="-217.8" font-family="Helvetica,sans-Serif" font-size="11.00" fill="#000000">3,349 rows</text>
<polygon fill="#ffffff" stroke="transparent" points="109.5,-211.7 109.5,-230.7 130.5,-230.7 130.5,-211.7 109.5,-211.7"/>
<polygon fill="none" stroke="#000000" points="109.5,-211.7 109.5,-230.7 130.5,-230.7 130.5,-211.7 109.5,-211.7"/>
<text text-anchor="start" x="112.2027" y="-217.8" font-family="Helvetica,sans-Serif" font-size="11.00" fill="#000000">5 &gt;</text>
</a>
</g>
</g>
<!-- OFFICE_LOCATION&#45;&gt;DISTRICT -->
<g id="edge5" class="edge">
<title>OFFICE_LOCATION:w&#45;&gt;DISTRICT:e</title>
<path fill="none" stroke="#000000" d="M186.0032,-239.7C165.9335,-239.7 156.1424,-239.7 130.5,-239.7"/>
<polygon fill="#000000" stroke="#000000" points="192.5,-239.7001 200.5,-243.3 196.5,-239.7 200.5,-239.7 200.5,-239.7 200.5,-239.7 196.5,-239.7 200.5,-236.1 192.5,-239.7001 192.5,-239.7001"/>
<ellipse fill="none" stroke="#000000" cx="189.3" cy="-239.7001" rx="3.2" ry="3.2"/>
</g>
<!-- DRUGS_TEST -->
<g id="node4" class="node">
<title>DRUGS_TEST</title>
<g id="a_node4"><a xlink:href="../../tables/DRUGS_TEST.html" xlink:title="DRUGS_TEST" target="_top">
<polygon fill="#ffffff" stroke="transparent" points="485,-418.2 485,-479.2 601,-479.2 601,-418.2 485,-418.2"/>
<polygon fill="#f5f5f5" stroke="transparent" points="485,-455.7 485,-478.7 601,-478.7 601,-455.7 485,-455.7"/>
<polygon fill="none" stroke="#000000" points="485,-455.7 485,-478.7 601,-478.7 601,-455.7 485,-455.7"/>
<text text-anchor="start" x="489.529" y="-464.8" font-family="Helvetica,sans-Serif" font-weight="bold" font-size="11.00" fill="#000000">DRUGS_TEST</text>
<text text-anchor="start" x="566.5219" y="-463.8" font-family="Helvetica,sans-Serif" font-size="11.00" fill="#000000">[table]</text>
<polygon fill="none" stroke="#000000" points="485,-436.7 485,-455.7 601,-455.7 601,-436.7 485,-436.7"/>
<text text-anchor="start" x="488" y="-442.8" font-family="Helvetica,sans-Serif" font-size="11.00" fill="#000000">...</text>
<polygon fill="#ffffff" stroke="transparent" points="485,-417.7 485,-436.7 521,-436.7 521,-417.7 485,-417.7"/>
<polygon fill="none" stroke="#000000" points="485,-417.7 485,-436.7 521,-436.7 521,-417.7 485,-417.7"/>
<text text-anchor="start" x="488" y="-423.8" font-family="Helvetica,sans-Serif" font-size="11.00" fill="#000000">&lt; 12</text>
<polygon fill="#ffffff" stroke="transparent" points="521,-417.7 521,-436.7 575,-436.7 575,-417.7 521,-417.7"/>
<polygon fill="none" stroke="#000000" points="521,-417.7 521,-436.7 575,-436.7 575,-417.7 521,-417.7"/>
<text text-anchor="start" x="527.3807" y="-423.8" font-family="Helvetica,sans-Serif" font-size="11.00" fill="#000000">117 rows</text>
<polygon fill="#ffffff" stroke="transparent" points="575,-417.7 575,-436.7 601,-436.7 601,-417.7 575,-417.7"/>
<polygon fill="none" stroke="#000000" points="575,-417.7 575,-436.7 601,-436.7 601,-417.7 575,-417.7"/>
<text text-anchor="start" x="582.4053" y="-423.8" font-family="Helvetica,sans-Serif" font-size="11.00" fill="#000000">1 &gt;</text>
</a>
</g>
</g>
<!-- DRUGS_TEST&#45;&gt;OFFICE_LOCATION -->
<g id="edge3" class="edge">
<title>DRUGS_TEST:w&#45;&gt;OFFICE_LOCATION:e</title>
<path fill="none" stroke="#000000" d="M470.2617,-445.1431C439.6892,-442.5872 425.5817,-430.9191 402,-403.7 365.142,-361.1567 417.7889,-283.7 361.5,-283.7"/>
<polygon fill="#000000" stroke="#000000" points="477.0057,-445.3979 484.864,-449.2974 481.0029,-445.5489 485,-445.7 485,-445.7 485,-445.7 481.0029,-445.5489 485.136,-442.1026 477.0057,-445.3979 477.0057,-445.3979"/>
<ellipse fill="none" stroke="#000000" cx="473.808" cy="-445.277" rx="3.2" ry="3.2"/>
</g>
<!-- DRUGS_TEST&#45;&gt;PROBATION_AREA -->
<g id="edge4" class="edge">
<title>DRUGS_TEST:w&#45;&gt;PROBATION_AREA:e</title>
<path fill="none" stroke="#000000" d="M470.4899,-445.5642C333.1753,-442.9572 295.9327,-403.7 151.5,-403.7"/>
<polygon fill="#000000" stroke="#000000" points="477.0004,-445.6251 484.9663,-449.2998 481.0002,-445.6625 485,-445.7 485,-445.7 485,-445.7 481.0002,-445.6625 485.0337,-442.1002 477.0004,-445.6251 477.0004,-445.6251"/>
<ellipse fill="none" stroke="#000000" cx="473.8005" cy="-445.5951" rx="3.2" ry="3.2"/>
</g>
<!-- R_OFFICE_LOCATION_LINK -->
<g id="node6" class="node">
<title>R_OFFICE_LOCATION_LINK</title>
<g id="a_node6"><a xlink:href="../../tables/R_OFFICE_LOCATION_LINK.html" xlink:title="R_OFFICE_LOCATION_LINK" target="_top">
<polygon fill="#ffffff" stroke="transparent" points="410,-120.7 410,-232.7 676,-232.7 676,-120.7 410,-120.7"/>
<polygon fill="#f5f5f5" stroke="transparent" points="412,-207.7 412,-230.7 674,-230.7 674,-207.7 412,-207.7"/>
<polygon fill="none" stroke="#000000" points="412,-207.7 412,-230.7 674,-230.7 674,-207.7 412,-207.7"/>
<text text-anchor="start" x="417" y="-216.8" font-family="Helvetica,sans-Serif" font-weight="bold" font-size="11.00" fill="#000000">R_OFFICE_LOCATION_LINK</text>
<text text-anchor="start" x="639.0437" y="-215.8" font-family="Helvetica,sans-Serif" font-size="11.00" fill="#000000">[table]</text>
<polygon fill="none" stroke="#000000" points="412,-185.7 412,-207.7 613,-207.7 613,-185.7 412,-185.7"/>
<image xlink:href="../../images/primaryKeys.png" width="11px" height="12px" preserveAspectRatio="xMinYMin meet" x="417" y="-202.7"/>
<text text-anchor="start" x="425.5804" y="-192.8" font-family="Helvetica,sans-Serif" font-size="11.00" fill="#000000">LINK_FROM_OFFICE_LOCATION_ID</text>
<polygon fill="none" stroke="#000000" points="613,-185.7 613,-207.7 674,-207.7 674,-185.7 613,-185.7"/>
<text text-anchor="start" x="615.6865" y="-193.4" font-family="Helvetica,sans-Serif" font-size="11.00" fill="#000000">number[22]</text>
<polygon fill="none" stroke="#000000" points="412,-163.7 412,-185.7 613,-185.7 613,-163.7 412,-163.7"/>
<image xlink:href="../../images/primaryKeys.png" width="11px" height="12px" preserveAspectRatio="xMinYMin meet" x="417" y="-180.7"/>
<text text-anchor="start" x="432" y="-170.8" font-family="Helvetica,sans-Serif" font-size="11.00" fill="#000000">LINK_TO_OFFICE_LOCATION_ID</text>
<polygon fill="none" stroke="#000000" points="613,-163.7 613,-185.7 674,-185.7 674,-163.7 613,-163.7"/>
<text text-anchor="start" x="615.6865" y="-171.4" font-family="Helvetica,sans-Serif" font-size="11.00" fill="#000000">number[22]</text>
<polygon fill="none" stroke="#000000" points="412,-141.7 412,-163.7 613,-163.7 613,-141.7 412,-141.7"/>
<text text-anchor="start" x="432" y="-148.8" font-family="Helvetica,sans-Serif" font-size="11.00" fill="#000000">ROW_VERSION</text>
<polygon fill="none" stroke="#000000" points="613,-141.7 613,-163.7 674,-163.7 674,-141.7 613,-141.7"/>
<text text-anchor="start" x="615.6865" y="-149.4" font-family="Helvetica,sans-Serif" font-size="11.00" fill="#000000">number[22]</text>
<polygon fill="#ffffff" stroke="transparent" points="412,-122.7 412,-141.7 493,-141.7 493,-122.7 412,-122.7"/>
<polygon fill="none" stroke="#000000" points="412,-122.7 412,-141.7 493,-141.7 493,-122.7 412,-122.7"/>
<text text-anchor="start" x="415" y="-128.8" font-family="Helvetica,sans-Serif" font-size="11.00" fill="#000000">&lt; 2</text>
<polygon fill="#ffffff" stroke="transparent" points="493,-122.7 493,-141.7 613,-141.7 613,-122.7 493,-122.7"/>
<polygon fill="none" stroke="#000000" points="493,-122.7 493,-141.7 613,-141.7 613,-122.7 493,-122.7"/>
<text text-anchor="start" x="556.2089" y="-128.8" font-family="Helvetica,sans-Serif" font-size="11.00" fill="#000000">2,473 rows</text>
<polygon fill="#ffffff" stroke="transparent" points="613,-122.7 613,-141.7 674,-141.7 674,-122.7 613,-122.7"/>
<polygon fill="none" stroke="#000000" points="613,-122.7 613,-141.7 674,-141.7 674,-122.7 613,-122.7"/>
<text text-anchor="start" x="655.4053" y="-128.8" font-family="Helvetica,sans-Serif" font-size="11.00" fill="#000000">0 &gt;</text>
<polygon fill="none" stroke="#000000" stroke-width="2" points="411,-121.7 411,-231.7 675,-231.7 675,-121.7 411,-121.7"/>
</a>
</g>
</g>
<!-- R_OFFICE_LOCATION_LINK&#45;&gt;OFFICE_LOCATION -->
<g id="edge7" class="edge">
<title>R_OFFICE_LOCATION_LINK:w&#45;&gt;OFFICE_LOCATION:e</title>
<path fill="none" stroke="#000000" d="M398.2198,-200.8962C376.1537,-218.2748 400.2708,-283.7 361.5,-283.7"/>
<polygon fill="#000000" stroke="#000000" points="404.347,-199.0305 413.0487,-200.1439 408.1735,-197.8652 412,-196.7 412,-196.7 412,-196.7 408.1735,-197.8652 410.9513,-193.2561 404.347,-199.0305 404.347,-199.0305"/>
<ellipse fill="none" stroke="#000000" cx="401.2857" cy="-199.9627" rx="3.2" ry="3.2"/>
</g>
<!-- R_OFFICE_LOCATION_LINK&#45;&gt;OFFICE_LOCATION -->
<g id="edge8" class="edge">
<title>R_OFFICE_LOCATION_LINK:w&#45;&gt;OFFICE_LOCATION:e</title>
<path fill="none" stroke="#000000" d="M397.7587,-178.5794C369.9529,-197.9966 408.843,-283.7 361.5,-283.7"/>
<polygon fill="#000000" stroke="#000000" points="404.2813,-176.8026 412.9462,-178.1734 408.1406,-175.7513 412,-174.7 412,-174.7 412,-174.7 408.1406,-175.7513 411.0538,-171.2266 404.2813,-176.8026 404.2813,-176.8026"/>
<ellipse fill="none" stroke="#000000" cx="401.1938" cy="-177.6437" rx="3.2" ry="3.2"/>
</g>
<!-- TEAM_OFFICE_LOCATION -->
<g id="node7" class="node">
<title>TEAM_OFFICE_LOCATION</title>
<g id="a_node7"><a xlink:href="../../tables/TEAM_OFFICE_LOCATION.html" xlink:title="TEAM_OFFICE_LOCATION" target="_top">
<polygon fill="#ffffff" stroke="transparent" points="452,-38.2 452,-99.2 634,-99.2 634,-38.2 452,-38.2"/>
<polygon fill="#f5f5f5" stroke="transparent" points="452,-75.7 452,-98.7 634,-98.7 634,-75.7 452,-75.7"/>
<polygon fill="none" stroke="#000000" points="452,-75.7 452,-98.7 634,-98.7 634,-75.7 452,-75.7"/>
<text text-anchor="start" x="456.8315" y="-84.8" font-family="Helvetica,sans-Serif" font-weight="bold" font-size="11.00" fill="#000000">TEAM_OFFICE_LOCATION</text>
<text text-anchor="start" x="599.5219" y="-83.8" font-family="Helvetica,sans-Serif" font-size="11.00" fill="#000000">[table]</text>
<polygon fill="none" stroke="#000000" points="452,-56.7 452,-75.7 634,-75.7 634,-56.7 452,-56.7"/>
<text text-anchor="start" x="455" y="-62.8" font-family="Helvetica,sans-Serif" font-size="11.00" fill="#000000">...</text>
<polygon fill="#ffffff" stroke="transparent" points="452,-37.7 452,-56.7 525,-56.7 525,-37.7 452,-37.7"/>
<polygon fill="none" stroke="#000000" points="452,-37.7 452,-56.7 525,-56.7 525,-37.7 452,-37.7"/>
<text text-anchor="start" x="455" y="-43.8" font-family="Helvetica,sans-Serif" font-size="11.00" fill="#000000">&lt; 2</text>
<polygon fill="#ffffff" stroke="transparent" points="525,-37.7 525,-56.7 595,-56.7 595,-37.7 525,-37.7"/>
<polygon fill="none" stroke="#000000" points="525,-37.7 525,-56.7 595,-56.7 595,-37.7 525,-37.7"/>
<text text-anchor="start" x="553.4956" y="-43.8" font-family="Helvetica,sans-Serif" font-size="11.00" fill="#000000">17 rows</text>
<polygon fill="#ffffff" stroke="transparent" points="595,-37.7 595,-56.7 634,-56.7 634,-37.7 595,-37.7"/>
<polygon fill="none" stroke="#000000" points="595,-37.7 595,-56.7 634,-56.7 634,-37.7 595,-37.7"/>
<text text-anchor="start" x="624.8862" y="-43.8" font-family="Helvetica,sans-Serif" font-size="11.00" fill="#000000"> &#160;</text>
</a>
</g>
</g>
<!-- TEAM_OFFICE_LOCATION&#45;&gt;OFFICE_LOCATION -->
<g id="edge9" class="edge">
<title>TEAM_OFFICE_LOCATION:w&#45;&gt;OFFICE_LOCATION:e</title>
<path fill="none" stroke="#000000" d="M437.5878,-67.6475C419.9074,-73.1518 414.3632,-89.7903 402,-110.7 361.8089,-178.6748 440.4677,-283.7 361.5,-283.7"/>
<polygon fill="#000000" stroke="#000000" points="444.0721,-66.7713 452.4821,-69.2676 448.036,-66.2357 452,-65.7 452,-65.7 452,-65.7 448.036,-66.2357 451.5179,-62.1324 444.0721,-66.7713 444.0721,-66.7713"/>
<ellipse fill="none" stroke="#000000" cx="440.9009" cy="-67.1999" rx="3.2" ry="3.2"/>
</g>
<!-- UPW_ALLOCATION -->
<g id="node8" class="node">
<title>UPW_ALLOCATION</title>
<g id="a_node8"><a xlink:href="../../tables/UPW_ALLOCATION.html" xlink:title="UPW_ALLOCATION" target="_top">
<polygon fill="#ffffff" stroke="transparent" points="725,-281.2 725,-342.2 869,-342.2 869,-281.2 725,-281.2"/>
<polygon fill="#f5f5f5" stroke="transparent" points="725,-318.7 725,-341.7 869,-341.7 869,-318.7 725,-318.7"/>
<polygon fill="none" stroke="#000000" points="725,-318.7 725,-341.7 869,-341.7 869,-318.7 725,-318.7"/>
<text text-anchor="start" x="729.7757" y="-327.8" font-family="Helvetica,sans-Serif" font-weight="bold" font-size="11.00" fill="#000000">UPW_ALLOCATION</text>
<text text-anchor="start" x="834.5219" y="-326.8" font-family="Helvetica,sans-Serif" font-size="11.00" fill="#000000">[table]</text>
<polygon fill="none" stroke="#000000" points="725,-299.7 725,-318.7 869,-318.7 869,-299.7 725,-299.7"/>
<text text-anchor="start" x="728" y="-305.8" font-family="Helvetica,sans-Serif" font-size="11.00" fill="#000000">...</text>
<polygon fill="#ffffff" stroke="transparent" points="725,-280.7 725,-299.7 772,-299.7 772,-280.7 725,-280.7"/>
<polygon fill="none" stroke="#000000" points="725,-280.7 725,-299.7 772,-299.7 772,-280.7 725,-280.7"/>
<text text-anchor="start" x="728" y="-286.8" font-family="Helvetica,sans-Serif" font-size="11.00" fill="#000000">&lt; 7</text>
<polygon fill="#ffffff" stroke="transparent" points="772,-280.7 772,-299.7 835,-299.7 835,-280.7 772,-280.7"/>
<polygon fill="none" stroke="#000000" points="772,-280.7 772,-299.7 835,-299.7 835,-280.7 772,-280.7"/>
<text text-anchor="start" x="787.3807" y="-286.8" font-family="Helvetica,sans-Serif" font-size="11.00" fill="#000000">347 rows</text>
<polygon fill="#ffffff" stroke="transparent" points="835,-280.7 835,-299.7 869,-299.7 869,-280.7 835,-280.7"/>
<polygon fill="none" stroke="#000000" points="835,-280.7 835,-299.7 869,-299.7 869,-280.7 835,-280.7"/>
<text text-anchor="start" x="850.4053" y="-286.8" font-family="Helvetica,sans-Serif" font-size="11.00" fill="#000000">1 &gt;</text>
</a>
</g>
</g>
<!-- UPW_ALLOCATION&#45;&gt;OFFICE_LOCATION -->
<g id="edge10" class="edge">
<title>UPW_ALLOCATION:w&#45;&gt;OFFICE_LOCATION:e</title>
<path fill="none" stroke="#000000" d="M710.6007,-306.6378C702.3444,-304.0317 696.6741,-299.6512 684,-297.7 542.2022,-275.8701 504.9683,-283.7 361.5,-283.7"/>
<polygon fill="#000000" stroke="#000000" points="717.0808,-307.5658 724.4896,-312.2636 721.0404,-308.1329 725,-308.7 725,-308.7 725,-308.7 721.0404,-308.1329 725.5104,-305.1364 717.0808,-307.5658 717.0808,-307.5658"/>
<ellipse fill="none" stroke="#000000" cx="713.9131" cy="-307.1121" rx="3.2" ry="3.2"/>
</g>
<!-- UPW_PROJECT -->
<g id="node9" class="node">
<title>UPW_PROJECT</title>
<g id="a_node9"><a xlink:href="../../tables/UPW_PROJECT.html" xlink:title="UPW_PROJECT" target="_top">
<polygon fill="#ffffff" stroke="transparent" points="480,-308.2 480,-369.2 606,-369.2 606,-308.2 480,-308.2"/>
<polygon fill="#f5f5f5" stroke="transparent" points="480,-345.7 480,-368.7 606,-368.7 606,-345.7 480,-345.7"/>
<polygon fill="none" stroke="#000000" points="480,-345.7 480,-368.7 606,-368.7 606,-345.7 480,-345.7"/>
<text text-anchor="start" x="484.9475" y="-354.8" font-family="Helvetica,sans-Serif" font-weight="bold" font-size="11.00" fill="#000000">UPW_PROJECT</text>
<text text-anchor="start" x="571.5219" y="-353.8" font-family="Helvetica,sans-Serif" font-size="11.00" fill="#000000">[table]</text>
<polygon fill="none" stroke="#000000" points="480,-326.7 480,-345.7 606,-345.7 606,-326.7 480,-326.7"/>
<text text-anchor="start" x="483" y="-332.8" font-family="Helvetica,sans-Serif" font-size="11.00" fill="#000000">...</text>
<polygon fill="#ffffff" stroke="transparent" points="480,-307.7 480,-326.7 521,-326.7 521,-307.7 480,-307.7"/>
<polygon fill="none" stroke="#000000" points="480,-307.7 480,-326.7 521,-326.7 521,-307.7 480,-307.7"/>
<text text-anchor="start" x="483" y="-313.8" font-family="Helvetica,sans-Serif" font-size="11.00" fill="#000000">&lt; 18</text>
<polygon fill="#ffffff" stroke="transparent" points="521,-307.7 521,-326.7 578,-326.7 578,-307.7 521,-307.7"/>
<polygon fill="none" stroke="#000000" points="521,-307.7 521,-326.7 578,-326.7 578,-307.7 521,-307.7"/>
<text text-anchor="start" x="530.3807" y="-313.8" font-family="Helvetica,sans-Serif" font-size="11.00" fill="#000000">278 rows</text>
<polygon fill="#ffffff" stroke="transparent" points="578,-307.7 578,-326.7 606,-326.7 606,-307.7 578,-307.7"/>
<polygon fill="none" stroke="#000000" points="578,-307.7 578,-326.7 606,-326.7 606,-307.7 578,-307.7"/>
<text text-anchor="start" x="587.4053" y="-313.8" font-family="Helvetica,sans-Serif" font-size="11.00" fill="#000000">5 &gt;</text>
</a>
</g>
</g>
<!-- UPW_ALLOCATION&#45;&gt;UPW_PROJECT -->
<g id="edge11" class="edge">
<title>UPW_ALLOCATION:w&#45;&gt;UPW_PROJECT:e</title>
<path fill="none" stroke="#000000" d="M710.5533,-309.3946C668.3504,-313.6207 655.0429,-335.7 606,-335.7"/>
<polygon fill="#000000" stroke="#000000" points="717.0092,-309.0842 725.1729,-312.2958 721.0046,-308.8921 725,-308.7 725,-308.7 725,-308.7 721.0046,-308.8921 724.8271,-305.1042 717.0092,-309.0842 717.0092,-309.0842"/>
<ellipse fill="none" stroke="#000000" cx="713.8129" cy="-309.2379" rx="3.2" ry="3.2"/>
</g>
<!-- UPW_PROJECT&#45;&gt;OFFICE_LOCATION -->
<g id="edge16" class="edge">
<title>UPW_PROJECT:w&#45;&gt;OFFICE_LOCATION:e</title>
<path fill="none" stroke="#000000" d="M465.4437,-334.4659C421.3929,-326.5913 413.7347,-283.7 361.5,-283.7"/>
<polygon fill="#000000" stroke="#000000" points="472.0286,-335.0241 479.6959,-339.2871 476.0143,-335.3621 480,-335.7 480,-335.7 480,-335.7 476.0143,-335.3621 480.3041,-332.1129 472.0286,-335.0241 472.0286,-335.0241"/>
<ellipse fill="none" stroke="#000000" cx="468.84" cy="-334.7538" rx="3.2" ry="3.2"/>
</g>
<!-- UPW_PROJECT&#45;&gt;PROBATION_AREA -->
<g id="edge17" class="edge">
<title>UPW_PROJECT:w&#45;&gt;PROBATION_AREA:e</title>
<path fill="none" stroke="#000000" d="M465.6056,-336.3952C384.4501,-343.5603 221.6068,-403.7 151.5,-403.7"/>
<polygon fill="#000000" stroke="#000000" points="472.0093,-336.086 480.1737,-339.2958 476.0047,-335.893 480,-335.7 480,-335.7 480,-335.7 476.0047,-335.893 479.8263,-332.1042 472.0093,-336.086 472.0093,-336.086"/>
<ellipse fill="none" stroke="#000000" cx="468.813" cy="-336.2403" rx="3.2" ry="3.2"/>
</g>
<!-- UPW_APPOINTMENT -->
<g id="node10" class="node">
<title>UPW_APPOINTMENT</title>
<g id="a_node10"><a xlink:href="../../tables/UPW_APPOINTMENT.html" xlink:title="UPW_APPOINTMENT" target="_top">
<polygon fill="#ffffff" stroke="transparent" points="918,-310.2 918,-371.2 1072,-371.2 1072,-310.2 918,-310.2"/>
<polygon fill="#f5f5f5" stroke="transparent" points="918,-347.7 918,-370.7 1072,-370.7 1072,-347.7 918,-347.7"/>
<polygon fill="none" stroke="#000000" points="918,-347.7 918,-370.7 1072,-370.7 1072,-347.7 918,-347.7"/>
<text text-anchor="start" x="922.8923" y="-356.8" font-family="Helvetica,sans-Serif" font-weight="bold" font-size="11.00" fill="#000000">UPW_APPOINTMENT</text>
<text text-anchor="start" x="1037.5219" y="-355.8" font-family="Helvetica,sans-Serif" font-size="11.00" fill="#000000">[table]</text>
<polygon fill="none" stroke="#000000" points="918,-328.7 918,-347.7 1072,-347.7 1072,-328.7 918,-328.7"/>
<text text-anchor="start" x="921" y="-334.8" font-family="Helvetica,sans-Serif" font-size="11.00" fill="#000000">...</text>
<polygon fill="#ffffff" stroke="transparent" points="918,-309.7 918,-328.7 968,-328.7 968,-309.7 918,-309.7"/>
<polygon fill="none" stroke="#000000" points="918,-309.7 918,-328.7 968,-328.7 968,-309.7 918,-309.7"/>
<text text-anchor="start" x="921" y="-315.8" font-family="Helvetica,sans-Serif" font-size="11.00" fill="#000000">&lt; 16</text>
<polygon fill="#ffffff" stroke="transparent" points="968,-309.7 968,-328.7 1039,-328.7 1039,-309.7 968,-309.7"/>
<polygon fill="none" stroke="#000000" points="968,-309.7 968,-328.7 1039,-328.7 1039,-309.7 968,-309.7"/>
<text text-anchor="start" x="982.2089" y="-315.8" font-family="Helvetica,sans-Serif" font-size="11.00" fill="#000000">8,642 rows</text>
<polygon fill="#ffffff" stroke="transparent" points="1039,-309.7 1039,-328.7 1072,-328.7 1072,-309.7 1039,-309.7"/>
<polygon fill="none" stroke="#000000" points="1039,-309.7 1039,-328.7 1072,-328.7 1072,-309.7 1039,-309.7"/>
<text text-anchor="start" x="1053.4053" y="-315.8" font-family="Helvetica,sans-Serif" font-size="11.00" fill="#000000">1 &gt;</text>
</a>
</g>
</g>
<!-- UPW_APPOINTMENT&#45;&gt;CONTACT -->
<g id="edge12" class="edge">
<title>UPW_APPOINTMENT:w&#45;&gt;CONTACT:e</title>
<path fill="none" stroke="#000000" d="M903.9675,-341.6068C880.5187,-357.7869 898.3969,-418.7 860,-418.7"/>
<polygon fill="#000000" stroke="#000000" points="910.2931,-339.8457 918.9656,-341.1681 914.1466,-338.7729 918,-337.7 918,-337.7 918,-337.7 914.1466,-338.7729 917.0344,-334.2319 910.2931,-339.8457 910.2931,-339.8457"/>
<ellipse fill="none" stroke="#000000" cx="907.2104" cy="-340.704" rx="3.2" ry="3.2"/>
</g>
<!-- UPW_APPOINTMENT&#45;&gt;OFFICE_LOCATION -->
<g id="edge13" class="edge">
<title>UPW_APPOINTMENT:w&#45;&gt;OFFICE_LOCATION:e</title>
<path fill="none" stroke="#000000" d="M904.2606,-333.3438C890.0754,-320.8167 901.982,-284.7008 877,-270.7 814.9667,-235.9342 788.1054,-269.7972 717,-270.7 576.9661,-272.4779 541.6607,-268.3303 402,-278.7 383.9131,-280.0429 379.6367,-283.7 361.5,-283.7"/>
<polygon fill="#000000" stroke="#000000" points="910.3741,-335.2821 916.9119,-341.1316 914.1871,-336.4911 918,-337.7 918,-337.7 918,-337.7 914.1871,-336.4911 919.0881,-334.2684 910.3741,-335.2821 910.3741,-335.2821"/>
<ellipse fill="none" stroke="#000000" cx="907.3238" cy="-334.3149" rx="3.2" ry="3.2"/>
</g>
<!-- UPW_APPOINTMENT&#45;&gt;UPW_ALLOCATION -->
<g id="edge14" class="edge">
<title>UPW_APPOINTMENT:w&#45;&gt;UPW_ALLOCATION:e</title>
<path fill="none" stroke="#000000" d="M903.9495,-333.6677C891.971,-325.6993 888.3749,-308.7 869,-308.7"/>
<polygon fill="#000000" stroke="#000000" points="910.3104,-335.4931 917.0069,-341.1603 914.1552,-336.5966 918,-337.7 918,-337.7 918,-337.7 914.1552,-336.5966 918.9931,-334.2397 910.3104,-335.4931 910.3104,-335.4931"/>
<ellipse fill="none" stroke="#000000" cx="907.2346" cy="-334.6104" rx="3.2" ry="3.2"/>
</g>
<!-- UPW_APPOINTMENT&#45;&gt;UPW_PROJECT -->
<g id="edge15" class="edge">
<title>UPW_APPOINTMENT:w&#45;&gt;UPW_PROJECT:e</title>
<path fill="none" stroke="#000000" d="M903.741,-340.4972C895.4173,-344.1556 890.1353,-350.3726 877,-352.7 806.9795,-365.1065 787.9059,-358.0983 717,-352.7 667.2355,-348.9113 655.9086,-335.7 606,-335.7"/>
<polygon fill="#000000" stroke="#000000" points="910.1496,-339.24 918.693,-341.2327 914.0748,-338.47 918,-337.7 918,-337.7 918,-337.7 914.0748,-338.47 917.307,-334.1673 910.1496,-339.24 910.1496,-339.24"/>
<ellipse fill="none" stroke="#000000" cx="907.0095" cy="-339.8561" rx="3.2" ry="3.2"/>
</g>
</g>
</svg>
