<?xml version="1.0" encoding="UTF-8" standalone="no"?>
<!DOCTYPE svg PUBLIC "-//W3C//DTD SVG 1.1//EN"
 "http://www.w3.org/Graphics/SVG/1.1/DTD/svg11.dtd">
<!-- Generated by graphviz version 2.40.1 (20161225.0304)
 -->
<!-- Title: oneDegreeRelationshipsDiagram Pages: 1 -->
<svg width="830pt" height="1062pt"
 viewBox="0.00 0.00 830.00 1062.20" xmlns="http://www.w3.org/2000/svg" xmlns:xlink="http://www.w3.org/1999/xlink">
<g id="graph0" class="graph" transform="scale(1 1) rotate(0) translate(4 1058.2)">
<title>oneDegreeRelationshipsDiagram</title>
<polygon fill="#ffffff" stroke="transparent" points="-4,4 -4,-1058.2 826,-1058.2 826,4 -4,4"/>
<text text-anchor="middle" x="72.4936" y="-7.3" font-family="Helvetica,sans-Serif" font-size="11.00" fill="#000000">Generated by SchemaSpy</text>
<!-- ADDITIONAL_OFFENCE -->
<g id="node1" class="node">
<title>ADDITIONAL_OFFENCE</title>
<g id="a_node1"><a xlink:href="../../tables/ADDITIONAL_OFFENCE.html" xlink:title="ADDITIONAL_OFFENCE" target="_top">
<polygon fill="#ffffff" stroke="transparent" points="623.5,-857.2 623.5,-1050.2 790.5,-1050.2 790.5,-857.2 623.5,-857.2"/>
<polygon fill="#f5f5f5" stroke="transparent" points="624,-1026.7 624,-1049.7 791,-1049.7 791,-1026.7 624,-1026.7"/>
<polygon fill="none" stroke="#000000" points="624,-1026.7 624,-1049.7 791,-1049.7 791,-1026.7 624,-1026.7"/>
<text text-anchor="start" x="628.6674" y="-1035.8" font-family="Helvetica,sans-Serif" font-weight="bold" font-size="11.00" fill="#000000">ADDITIONAL_OFFENCE</text>
<text text-anchor="start" x="756.5219" y="-1034.8" font-family="Helvetica,sans-Serif" font-size="11.00" fill="#000000">[table]</text>
<polygon fill="none" stroke="#000000" points="624,-1004.7 624,-1026.7 791,-1026.7 791,-1004.7 624,-1004.7"/>
<image xlink:href="../../images/primaryKeys.png" width="11px" height="12px" preserveAspectRatio="xMinYMin meet" x="629" y="-1021.7"/>
<text text-anchor="start" x="644.1111" y="-1011.8" font-family="Helvetica,sans-Serif" font-size="11.00" fill="#000000">ADDITIONAL_OFFENCE_ID</text>
<polygon fill="none" stroke="#000000" points="624,-982.7 624,-1004.7 791,-1004.7 791,-982.7 624,-982.7"/>
<image xlink:href="../../images/primaryKeys.png" width="11px" height="12px" preserveAspectRatio="xMinYMin meet" x="629" y="-999.7"/>
<text text-anchor="start" x="647" y="-989.8" font-family="Helvetica,sans-Serif" font-size="11.00" fill="#000000">OFFENCE_DATE</text>
<polygon fill="none" stroke="#000000" points="624,-960.7 624,-982.7 791,-982.7 791,-960.7 624,-960.7"/>
<image xlink:href="../../images/primaryKeys.png" width="11px" height="12px" preserveAspectRatio="xMinYMin meet" x="629" y="-977.7"/>
<text text-anchor="start" x="647" y="-967.8" font-family="Helvetica,sans-Serif" font-size="11.00" fill="#000000">EVENT_ID</text>
<polygon fill="none" stroke="#000000" points="624,-938.7 624,-960.7 791,-960.7 791,-938.7 624,-938.7"/>
<image xlink:href="../../images/primaryKeys.png" width="11px" height="12px" preserveAspectRatio="xMinYMin meet" x="629" y="-955.7"/>
<text text-anchor="start" x="647" y="-945.8" font-family="Helvetica,sans-Serif" font-size="11.00" fill="#000000">PARTITION_AREA_ID</text>
<polygon fill="none" stroke="#000000" points="624,-916.7 624,-938.7 791,-938.7 791,-916.7 624,-916.7"/>
<image xlink:href="../../images/primaryKeys.png" width="11px" height="12px" preserveAspectRatio="xMinYMin meet" x="629" y="-933.7"/>
<text text-anchor="start" x="647" y="-923.8" font-family="Helvetica,sans-Serif" font-size="11.00" fill="#000000">OFFENCE_ID</text>
<polygon fill="none" stroke="#000000" points="624,-894.7 624,-916.7 791,-916.7 791,-894.7 624,-894.7"/>
<image xlink:href="../../images/primaryKeys.png" width="11px" height="12px" preserveAspectRatio="xMinYMin meet" x="629" y="-911.7"/>
<text text-anchor="start" x="647" y="-901.8" font-family="Helvetica,sans-Serif" font-size="11.00" fill="#000000">TRAINING_SESSION_ID</text>
<polygon fill="none" stroke="#000000" points="624,-875.7 624,-894.7 791,-894.7 791,-875.7 624,-875.7"/>
<text text-anchor="start" x="627" y="-881.8" font-family="Helvetica,sans-Serif" font-size="11.00" fill="#000000">...</text>
<polygon fill="#ffffff" stroke="transparent" points="624,-856.7 624,-875.7 687,-875.7 687,-856.7 624,-856.7"/>
<polygon fill="none" stroke="#000000" points="624,-856.7 624,-875.7 687,-875.7 687,-856.7 624,-856.7"/>
<text text-anchor="start" x="627" y="-862.8" font-family="Helvetica,sans-Serif" font-size="11.00" fill="#000000">&lt; 3</text>
<polygon fill="#ffffff" stroke="transparent" points="687,-856.7 687,-875.7 758,-875.7 758,-856.7 687,-856.7"/>
<polygon fill="none" stroke="#000000" points="687,-856.7 687,-875.7 758,-875.7 758,-856.7 687,-856.7"/>
<text text-anchor="start" x="710.3807" y="-862.8" font-family="Helvetica,sans-Serif" font-size="11.00" fill="#000000">128 rows</text>
<polygon fill="#ffffff" stroke="transparent" points="758,-856.7 758,-875.7 791,-875.7 791,-856.7 758,-856.7"/>
<polygon fill="none" stroke="#000000" points="758,-856.7 758,-875.7 791,-875.7 791,-856.7 758,-856.7"/>
<text text-anchor="start" x="781.8862" y="-862.8" font-family="Helvetica,sans-Serif" font-size="11.00" fill="#000000"> &#160;</text>
</a>
</g>
</g>
<!-- R_OFFENCE -->
<g id="node2" class="node">
<title>R_OFFENCE</title>
<g id="a_node2"><a xlink:href="../../tables/R_OFFENCE.html" xlink:title="R_OFFENCE" target="_top">
<polygon fill="#ffffff" stroke="transparent" points="277,-109.7 277,-727.7 551,-727.7 551,-109.7 277,-109.7"/>
<polygon fill="#f5f5f5" stroke="transparent" points="279,-702.7 279,-725.7 549,-725.7 549,-702.7 279,-702.7"/>
<polygon fill="none" stroke="#000000" points="279,-702.7 279,-725.7 549,-725.7 549,-702.7 279,-702.7"/>
<text text-anchor="start" x="284" y="-711.8" font-family="Helvetica,sans-Serif" font-weight="bold" font-size="11.00" fill="#000000">R_OFFENCE</text>
<text text-anchor="start" x="514.0437" y="-710.8" font-family="Helvetica,sans-Serif" font-size="11.00" fill="#000000">[table]</text>
<polygon fill="none" stroke="#000000" points="279,-680.7 279,-702.7 476,-702.7 476,-680.7 279,-680.7"/>
<image xlink:href="../../images/primaryKeys.png" width="11px" height="12px" preserveAspectRatio="xMinYMin meet" x="284" y="-697.7"/>
<text text-anchor="start" x="299" y="-687.8" font-family="Helvetica,sans-Serif" font-size="11.00" fill="#000000">OFFENCE_ID</text>
<polygon fill="none" stroke="#000000" points="476,-680.7 476,-702.7 549,-702.7 549,-680.7 476,-680.7"/>
<text text-anchor="start" x="479" y="-688.4" font-family="Helvetica,sans-Serif" font-size="11.00" fill="#000000">number[38]</text>
<polygon fill="none" stroke="#000000" points="279,-658.7 279,-680.7 476,-680.7 476,-658.7 279,-658.7"/>
<image xlink:href="../../images/primaryKeys.png" width="11px" height="12px" preserveAspectRatio="xMinYMin meet" x="284" y="-675.7"/>
<text text-anchor="start" x="299" y="-665.8" font-family="Helvetica,sans-Serif" font-size="11.00" fill="#000000">CODE</text>
<polygon fill="none" stroke="#000000" points="476,-658.7 476,-680.7 549,-680.7 549,-658.7 476,-658.7"/>
<text text-anchor="start" x="479" y="-666.4" font-family="Helvetica,sans-Serif" font-size="11.00" fill="#000000">char[5]</text>
<polygon fill="none" stroke="#000000" points="279,-636.7 279,-658.7 476,-658.7 476,-636.7 279,-636.7"/>
<text text-anchor="start" x="299" y="-643.8" font-family="Helvetica,sans-Serif" font-size="11.00" fill="#000000">DESCRIPTION</text>
<polygon fill="none" stroke="#000000" points="476,-636.7 476,-658.7 549,-658.7 549,-636.7 476,-636.7"/>
<text text-anchor="start" x="478.8791" y="-644.4" font-family="Helvetica,sans-Serif" font-size="11.00" fill="#000000">varchar2[300]</text>
<polygon fill="none" stroke="#000000" points="279,-614.7 279,-636.7 476,-636.7 476,-614.7 279,-614.7"/>
<text text-anchor="start" x="299" y="-621.8" font-family="Helvetica,sans-Serif" font-size="11.00" fill="#000000">ABBREVIATION</text>
<polygon fill="none" stroke="#000000" points="476,-614.7 476,-636.7 549,-636.7 549,-614.7 476,-614.7"/>
<text text-anchor="start" x="479" y="-622.4" font-family="Helvetica,sans-Serif" font-size="11.00" fill="#000000">varchar2[50]</text>
<polygon fill="none" stroke="#000000" points="279,-592.7 279,-614.7 476,-614.7 476,-592.7 279,-592.7"/>
<text text-anchor="start" x="299" y="-599.8" font-family="Helvetica,sans-Serif" font-size="11.00" fill="#000000">MAIN_CATEGORY_CODE</text>
<polygon fill="none" stroke="#000000" points="476,-592.7 476,-614.7 549,-614.7 549,-592.7 476,-592.7"/>
<text text-anchor="start" x="479" y="-600.4" font-family="Helvetica,sans-Serif" font-size="11.00" fill="#000000">char[3]</text>
<polygon fill="none" stroke="#000000" points="279,-570.7 279,-592.7 476,-592.7 476,-570.7 279,-570.7"/>
<text text-anchor="start" x="299" y="-577.8" font-family="Helvetica,sans-Serif" font-size="11.00" fill="#000000">SELECTABLE</text>
<polygon fill="none" stroke="#000000" points="476,-570.7 476,-592.7 549,-592.7 549,-570.7 476,-570.7"/>
<text text-anchor="start" x="479" y="-578.4" font-family="Helvetica,sans-Serif" font-size="11.00" fill="#000000">char[1]</text>
<polygon fill="none" stroke="#000000" points="279,-548.7 279,-570.7 476,-570.7 476,-548.7 279,-548.7"/>
<text text-anchor="start" x="296.6948" y="-555.8" font-family="Helvetica,sans-Serif" font-size="11.00" fill="#000000">MAIN_CATEGORY_DESCRIPTION</text>
<polygon fill="none" stroke="#000000" points="476,-548.7 476,-570.7 549,-570.7 549,-548.7 476,-548.7"/>
<text text-anchor="start" x="478.8791" y="-556.4" font-family="Helvetica,sans-Serif" font-size="11.00" fill="#000000">varchar2[200]</text>
<polygon fill="none" stroke="#000000" points="279,-526.7 279,-548.7 476,-548.7 476,-526.7 279,-526.7"/>
<text text-anchor="start" x="299" y="-533.8" font-family="Helvetica,sans-Serif" font-size="11.00" fill="#000000">ROW_VERSION</text>
<polygon fill="none" stroke="#000000" points="476,-526.7 476,-548.7 549,-548.7 549,-526.7 476,-526.7"/>
<text text-anchor="start" x="479" y="-534.4" font-family="Helvetica,sans-Serif" font-size="11.00" fill="#000000">number[38]</text>
<polygon fill="none" stroke="#000000" points="279,-504.7 279,-526.7 476,-526.7 476,-504.7 279,-504.7"/>
<text text-anchor="start" x="293.6318" y="-511.8" font-family="Helvetica,sans-Serif" font-size="11.00" fill="#000000">MAIN_CATEGORY_ABBREVIATION</text>
<polygon fill="none" stroke="#000000" points="476,-504.7 476,-526.7 549,-526.7 549,-504.7 476,-504.7"/>
<text text-anchor="start" x="479" y="-512.4" font-family="Helvetica,sans-Serif" font-size="11.00" fill="#000000">varchar2[50]</text>
<polygon fill="none" stroke="#000000" points="279,-482.7 279,-504.7 476,-504.7 476,-482.7 279,-482.7"/>
<image xlink:href="../../images/primaryKeys.png" width="11px" height="12px" preserveAspectRatio="xMinYMin meet" x="284" y="-499.7"/>
<text text-anchor="start" x="296.9967" y="-489.8" font-family="Helvetica,sans-Serif" font-size="11.00" fill="#000000">OGRS_OFFENCE_CATEGORY_ID</text>
<polygon fill="none" stroke="#000000" points="476,-482.7 476,-504.7 549,-504.7 549,-482.7 476,-482.7"/>
<text text-anchor="start" x="479" y="-490.4" font-family="Helvetica,sans-Serif" font-size="11.00" fill="#000000">number[38]</text>
<polygon fill="none" stroke="#000000" points="279,-460.7 279,-482.7 476,-482.7 476,-460.7 279,-460.7"/>
<text text-anchor="start" x="299" y="-467.8" font-family="Helvetica,sans-Serif" font-size="11.00" fill="#000000">SUB_CATEGORY_CODE</text>
<polygon fill="none" stroke="#000000" points="476,-460.7 476,-482.7 549,-482.7 549,-460.7 476,-460.7"/>
<text text-anchor="start" x="479" y="-468.4" font-family="Helvetica,sans-Serif" font-size="11.00" fill="#000000">char[2]</text>
<polygon fill="none" stroke="#000000" points="279,-438.7 279,-460.7 476,-460.7 476,-438.7 279,-438.7"/>
<text text-anchor="start" x="299" y="-445.8" font-family="Helvetica,sans-Serif" font-size="11.00" fill="#000000">SUB_CATEGORY_DESCRIPTION</text>
<polygon fill="none" stroke="#000000" points="476,-438.7 476,-460.7 549,-460.7 549,-438.7 476,-438.7"/>
<text text-anchor="start" x="478.8791" y="-446.4" font-family="Helvetica,sans-Serif" font-size="11.00" fill="#000000">varchar2[200]</text>
<polygon fill="none" stroke="#000000" points="279,-416.7 279,-438.7 476,-438.7 476,-416.7 279,-416.7"/>
<text text-anchor="start" x="299" y="-423.8" font-family="Helvetica,sans-Serif" font-size="11.00" fill="#000000">FORM_20_CODE</text>
<polygon fill="none" stroke="#000000" points="476,-416.7 476,-438.7 549,-438.7 549,-416.7 476,-416.7"/>
<text text-anchor="start" x="479" y="-424.4" font-family="Helvetica,sans-Serif" font-size="11.00" fill="#000000">varchar2[50]</text>
<polygon fill="none" stroke="#000000" points="279,-394.7 279,-416.7 476,-416.7 476,-394.7 279,-394.7"/>
<text text-anchor="start" x="296.0732" y="-401.8" font-family="Helvetica,sans-Serif" font-size="11.00" fill="#000000">SUB_CATEGORY_ABBREVIATION</text>
<polygon fill="none" stroke="#000000" points="476,-394.7 476,-416.7 549,-416.7 549,-394.7 476,-394.7"/>
<text text-anchor="start" x="479" y="-402.4" font-family="Helvetica,sans-Serif" font-size="11.00" fill="#000000">varchar2[50]</text>
<polygon fill="none" stroke="#000000" points="279,-372.7 279,-394.7 476,-394.7 476,-372.7 279,-372.7"/>
<image xlink:href="../../images/primaryKeys.png" width="11px" height="12px" preserveAspectRatio="xMinYMin meet" x="284" y="-389.7"/>
<text text-anchor="start" x="299" y="-379.8" font-family="Helvetica,sans-Serif" font-size="11.00" fill="#000000">TRAINING_SESSION_ID</text>
<polygon fill="none" stroke="#000000" points="476,-372.7 476,-394.7 549,-394.7 549,-372.7 476,-372.7"/>
<text text-anchor="start" x="479" y="-380.4" font-family="Helvetica,sans-Serif" font-size="11.00" fill="#000000">number[38]</text>
<polygon fill="none" stroke="#000000" points="279,-350.7 279,-372.7 476,-372.7 476,-350.7 279,-350.7"/>
<text text-anchor="start" x="299" y="-357.8" font-family="Helvetica,sans-Serif" font-size="11.00" fill="#000000">CJIT_CODE</text>
<polygon fill="none" stroke="#000000" points="476,-350.7 476,-372.7 549,-372.7 549,-350.7 476,-350.7"/>
<text text-anchor="start" x="479" y="-358.4" font-family="Helvetica,sans-Serif" font-size="11.00" fill="#000000">varchar2[6]</text>
<polygon fill="none" stroke="#000000" points="279,-328.7 279,-350.7 476,-350.7 476,-328.7 279,-328.7"/>
<text text-anchor="start" x="299" y="-335.8" font-family="Helvetica,sans-Serif" font-size="11.00" fill="#000000">CREATED_BY_USER_ID</text>
<polygon fill="none" stroke="#000000" points="476,-328.7 476,-350.7 549,-350.7 549,-328.7 476,-328.7"/>
<text text-anchor="start" x="479" y="-336.4" font-family="Helvetica,sans-Serif" font-size="11.00" fill="#000000">number[22]</text>
<polygon fill="none" stroke="#000000" points="279,-306.7 279,-328.7 476,-328.7 476,-306.7 279,-306.7"/>
<text text-anchor="start" x="299" y="-313.8" font-family="Helvetica,sans-Serif" font-size="11.00" fill="#000000">CREATED_DATETIME</text>
<polygon fill="none" stroke="#000000" points="476,-306.7 476,-328.7 549,-328.7 549,-306.7 476,-306.7"/>
<text text-anchor="start" x="479" y="-314.4" font-family="Helvetica,sans-Serif" font-size="11.00" fill="#000000">date[7]</text>
<polygon fill="none" stroke="#000000" points="279,-284.7 279,-306.7 476,-306.7 476,-284.7 279,-284.7"/>
<text text-anchor="start" x="299" y="-291.8" font-family="Helvetica,sans-Serif" font-size="11.00" fill="#000000">LAST_UPDATED_USER_ID</text>
<polygon fill="none" stroke="#000000" points="476,-284.7 476,-306.7 549,-306.7 549,-284.7 476,-284.7"/>
<text text-anchor="start" x="479" y="-292.4" font-family="Helvetica,sans-Serif" font-size="11.00" fill="#000000">number[22]</text>
<polygon fill="none" stroke="#000000" points="279,-262.7 279,-284.7 476,-284.7 476,-262.7 279,-262.7"/>
<text text-anchor="start" x="299" y="-269.8" font-family="Helvetica,sans-Serif" font-size="11.00" fill="#000000">LAST_UPDATED_DATETIME</text>
<polygon fill="none" stroke="#000000" points="476,-262.7 476,-284.7 549,-284.7 549,-262.7 476,-262.7"/>
<text text-anchor="start" x="479" y="-270.4" font-family="Helvetica,sans-Serif" font-size="11.00" fill="#000000">date[7]</text>
<polygon fill="none" stroke="#000000" points="279,-240.7 279,-262.7 476,-262.7 476,-240.7 279,-240.7"/>
<text text-anchor="start" x="299" y="-247.8" font-family="Helvetica,sans-Serif" font-size="11.00" fill="#000000">HARASSMENT</text>
<polygon fill="none" stroke="#000000" points="476,-240.7 476,-262.7 549,-262.7 549,-240.7 476,-240.7"/>
<text text-anchor="start" x="479" y="-248.4" font-family="Helvetica,sans-Serif" font-size="11.00" fill="#000000">char[1]</text>
<polygon fill="none" stroke="#000000" points="279,-218.7 279,-240.7 476,-240.7 476,-218.7 279,-218.7"/>
<text text-anchor="start" x="294.8522" y="-225.8" font-family="Helvetica,sans-Serif" font-size="11.00" fill="#000000">SCHEDULE15_SEXUAL_OFFENCE</text>
<polygon fill="none" stroke="#000000" points="476,-218.7 476,-240.7 549,-240.7 549,-218.7 476,-218.7"/>
<text text-anchor="start" x="479" y="-226.4" font-family="Helvetica,sans-Serif" font-size="11.00" fill="#000000">char[1]</text>
<polygon fill="none" stroke="#000000" points="279,-196.7 279,-218.7 476,-218.7 476,-196.7 279,-196.7"/>
<text text-anchor="start" x="293.0213" y="-203.8" font-family="Helvetica,sans-Serif" font-size="11.00" fill="#000000">SCHEDULE15_VIOLENT_OFFENCE</text>
<polygon fill="none" stroke="#000000" points="476,-196.7 476,-218.7 549,-218.7 549,-196.7 476,-196.7"/>
<text text-anchor="start" x="479" y="-204.4" font-family="Helvetica,sans-Serif" font-size="11.00" fill="#000000">char[1]</text>
<polygon fill="none" stroke="#000000" points="279,-174.7 279,-196.7 476,-196.7 476,-174.7 279,-174.7"/>
<text text-anchor="start" x="299" y="-181.8" font-family="Helvetica,sans-Serif" font-size="11.00" fill="#000000">MODERN_DAY_SLAVERY</text>
<polygon fill="none" stroke="#000000" points="476,-174.7 476,-196.7 549,-196.7 549,-174.7 476,-174.7"/>
<text text-anchor="start" x="479" y="-182.4" font-family="Helvetica,sans-Serif" font-size="11.00" fill="#000000">char[1]</text>
<polygon fill="none" stroke="#000000" points="279,-152.7 279,-174.7 476,-174.7 476,-152.7 279,-152.7"/>
<text text-anchor="start" x="299" y="-159.8" font-family="Helvetica,sans-Serif" font-size="11.00" fill="#000000">CHILD_ABDUCTION</text>
<polygon fill="none" stroke="#000000" points="476,-152.7 476,-174.7 549,-174.7 549,-152.7 476,-152.7"/>
<text text-anchor="start" x="479" y="-160.4" font-family="Helvetica,sans-Serif" font-size="11.00" fill="#000000">char[1]</text>
<polygon fill="none" stroke="#000000" points="279,-130.7 279,-152.7 476,-152.7 476,-130.7 279,-130.7"/>
<text text-anchor="start" x="299" y="-137.8" font-family="Helvetica,sans-Serif" font-size="11.00" fill="#000000">DRUG_MISUSE</text>
<polygon fill="none" stroke="#000000" points="476,-130.7 476,-152.7 549,-152.7 549,-130.7 476,-130.7"/>
<text text-anchor="start" x="479" y="-138.4" font-family="Helvetica,sans-Serif" font-size="11.00" fill="#000000">char[1]</text>
<polygon fill="#ffffff" stroke="transparent" points="279,-111.7 279,-130.7 358,-130.7 358,-111.7 279,-111.7"/>
<polygon fill="none" stroke="#000000" points="279,-111.7 279,-130.7 358,-130.7 358,-111.7 279,-111.7"/>
<text text-anchor="start" x="282" y="-117.8" font-family="Helvetica,sans-Serif" font-size="11.00" fill="#000000">&lt; 1</text>
<polygon fill="#ffffff" stroke="transparent" points="358,-111.7 358,-130.7 476,-130.7 476,-111.7 358,-111.7"/>
<polygon fill="none" stroke="#000000" points="358,-111.7 358,-130.7 476,-130.7 476,-111.7 358,-111.7"/>
<text text-anchor="start" x="419.2089" y="-117.8" font-family="Helvetica,sans-Serif" font-size="11.00" fill="#000000">1,770 rows</text>
<polygon fill="#ffffff" stroke="transparent" points="476,-111.7 476,-130.7 549,-130.7 549,-111.7 476,-111.7"/>
<polygon fill="none" stroke="#000000" points="476,-111.7 476,-130.7 549,-130.7 549,-111.7 476,-111.7"/>
<text text-anchor="start" x="530.4053" y="-117.8" font-family="Helvetica,sans-Serif" font-size="11.00" fill="#000000">4 &gt;</text>
<polygon fill="none" stroke="#000000" stroke-width="2" points="278,-110.7 278,-726.7 550,-726.7 550,-110.7 278,-110.7"/>
</a>
</g>
</g>
<!-- ADDITIONAL_OFFENCE&#45;&gt;R_OFFENCE -->
<g id="edge1" class="edge">
<title>ADDITIONAL_OFFENCE:w&#45;&gt;R_OFFENCE:e</title>
<path fill="none" stroke="#000000" d="M610.75,-921.8663C574.7526,-885.5242 598.8701,-691.7 549,-691.7"/>
<polygon fill="#000000" stroke="#000000" points="616.6782,-924.4763 622.5494,-930.9948 620.3391,-926.0882 624,-927.7 624,-927.7 624,-927.7 620.3391,-926.0882 625.4506,-924.4052 616.6782,-924.4763 616.6782,-924.4763"/>
<ellipse fill="none" stroke="#000000" cx="613.7495" cy="-923.1869" rx="3.2" ry="3.2"/>
</g>
<!-- R_STANDARD_REFERENCE_LIST -->
<g id="node5" class="node">
<title>R_STANDARD_REFERENCE_LIST</title>
<g id="a_node5"><a xlink:href="../../tables/R_STANDARD_REFERENCE_LIST.html" xlink:title="R_STANDARD_REFERENCE_LIST" target="_top">
<polygon fill="#ffffff" stroke="transparent" points="8,-175.2 8,-324.2 228,-324.2 228,-175.2 8,-175.2"/>
<polygon fill="#f5f5f5" stroke="transparent" points="8,-300.7 8,-323.7 228,-323.7 228,-300.7 8,-300.7"/>
<polygon fill="none" stroke="#000000" points="8,-300.7 8,-323.7 228,-323.7 228,-300.7 8,-300.7"/>
<text text-anchor="start" x="12.5842" y="-309.8" font-family="Helvetica,sans-Serif" font-weight="bold" font-size="11.00" fill="#000000">R_STANDARD_REFERENCE_LIST</text>
<text text-anchor="start" x="193.5219" y="-308.8" font-family="Helvetica,sans-Serif" font-size="11.00" fill="#000000">[table]</text>
<polygon fill="none" stroke="#000000" points="8,-278.7 8,-300.7 228,-300.7 228,-278.7 8,-278.7"/>
<image xlink:href="../../images/primaryKeys.png" width="11px" height="12px" preserveAspectRatio="xMinYMin meet" x="13" y="-295.7"/>
<text text-anchor="start" x="35.5558" y="-285.8" font-family="Helvetica,sans-Serif" font-size="11.00" fill="#000000">STANDARD_REFERENCE_LIST_ID</text>
<polygon fill="none" stroke="#000000" points="8,-256.7 8,-278.7 228,-278.7 228,-256.7 8,-256.7"/>
<image xlink:href="../../images/primaryKeys.png" width="11px" height="12px" preserveAspectRatio="xMinYMin meet" x="13" y="-273.7"/>
<text text-anchor="start" x="42" y="-263.8" font-family="Helvetica,sans-Serif" font-size="11.00" fill="#000000">CODE_VALUE</text>
<polygon fill="none" stroke="#000000" points="8,-234.7 8,-256.7 228,-256.7 228,-234.7 8,-234.7"/>
<image xlink:href="../../images/primaryKeys.png" width="11px" height="12px" preserveAspectRatio="xMinYMin meet" x="13" y="-251.7"/>
<text text-anchor="start" x="39.8337" y="-241.8" font-family="Helvetica,sans-Serif" font-size="11.00" fill="#000000">REFERENCE_DATA_MASTER_ID</text>
<polygon fill="none" stroke="#000000" points="8,-212.7 8,-234.7 228,-234.7 228,-212.7 8,-212.7"/>
<image xlink:href="../../images/primaryKeys.png" width="11px" height="12px" preserveAspectRatio="xMinYMin meet" x="13" y="-229.7"/>
<text text-anchor="start" x="42" y="-219.8" font-family="Helvetica,sans-Serif" font-size="11.00" fill="#000000">TRAINING_SESSION_ID</text>
<polygon fill="none" stroke="#000000" points="8,-193.7 8,-212.7 228,-212.7 228,-193.7 8,-193.7"/>
<text text-anchor="start" x="11" y="-199.8" font-family="Helvetica,sans-Serif" font-size="11.00" fill="#000000">...</text>
<polygon fill="#ffffff" stroke="transparent" points="8,-174.7 8,-193.7 79,-193.7 79,-174.7 8,-174.7"/>
<polygon fill="none" stroke="#000000" points="8,-174.7 8,-193.7 79,-193.7 79,-174.7 8,-174.7"/>
<text text-anchor="start" x="11" y="-180.8" font-family="Helvetica,sans-Serif" font-size="11.00" fill="#000000">&lt; 1</text>
<polygon fill="#ffffff" stroke="transparent" points="79,-174.7 79,-193.7 169,-193.7 169,-174.7 79,-174.7"/>
<polygon fill="none" stroke="#000000" points="79,-174.7 79,-193.7 169,-193.7 169,-174.7 79,-174.7"/>
<text text-anchor="start" x="106.094" y="-180.8" font-family="Helvetica,sans-Serif" font-size="11.00" fill="#000000">15,391 rows</text>
<polygon fill="#ffffff" stroke="transparent" points="169,-174.7 169,-193.7 228,-193.7 228,-174.7 169,-174.7"/>
<polygon fill="none" stroke="#000000" points="169,-174.7 169,-193.7 228,-193.7 228,-174.7 169,-174.7"/>
<text text-anchor="start" x="197.1755" y="-180.8" font-family="Helvetica,sans-Serif" font-size="11.00" fill="#000000">293 &gt;</text>
</a>
</g>
</g>
<!-- R_OFFENCE&#45;&gt;R_STANDARD_REFERENCE_LIST -->
<g id="edge5" class="edge">
<title>R_OFFENCE:w&#45;&gt;R_STANDARD_REFERENCE_LIST:e</title>
<path fill="none" stroke="#000000" d="M264.4452,-491.547C201.1604,-469.7447 315.7985,-289.7 228,-289.7"/>
<polygon fill="#000000" stroke="#000000" points="271.0861,-492.5293 278.4732,-497.2612 275.0431,-493.1147 279,-493.7 279,-493.7 279,-493.7 275.0431,-493.1147 279.5268,-490.1388 271.0861,-492.5293 271.0861,-492.5293"/>
<ellipse fill="none" stroke="#000000" cx="267.9206" cy="-492.061" rx="3.2" ry="3.2"/>
</g>
<!-- MAIN_OFFENCE -->
<g id="node3" class="node">
<title>MAIN_OFFENCE</title>
<g id="a_node3"><a xlink:href="../../tables/MAIN_OFFENCE.html" xlink:title="MAIN_OFFENCE" target="_top">
<polygon fill="#ffffff" stroke="transparent" points="626.5,-599.2 626.5,-836.2 787.5,-836.2 787.5,-599.2 626.5,-599.2"/>
<polygon fill="#f5f5f5" stroke="transparent" points="627,-812.7 627,-835.7 788,-835.7 788,-812.7 627,-812.7"/>
<polygon fill="none" stroke="#000000" points="627,-812.7 627,-835.7 788,-835.7 788,-812.7 627,-812.7"/>
<text text-anchor="start" x="632" y="-821.8" font-family="Helvetica,sans-Serif" font-weight="bold" font-size="11.00" fill="#000000">MAIN_OFFENCE</text>
<text text-anchor="start" x="753.0437" y="-820.8" font-family="Helvetica,sans-Serif" font-size="11.00" fill="#000000">[table]</text>
<polygon fill="none" stroke="#000000" points="627,-790.7 627,-812.7 788,-812.7 788,-790.7 627,-790.7"/>
<image xlink:href="../../images/primaryKeys.png" width="11px" height="12px" preserveAspectRatio="xMinYMin meet" x="632" y="-807.7"/>
<text text-anchor="start" x="647" y="-797.8" font-family="Helvetica,sans-Serif" font-size="11.00" fill="#000000">MAIN_OFFENCE_ID</text>
<polygon fill="none" stroke="#000000" points="627,-768.7 627,-790.7 788,-790.7 788,-768.7 627,-768.7"/>
<image xlink:href="../../images/primaryKeys.png" width="11px" height="12px" preserveAspectRatio="xMinYMin meet" x="632" y="-785.7"/>
<text text-anchor="start" x="647" y="-775.8" font-family="Helvetica,sans-Serif" font-size="11.00" fill="#000000">OFFENCE_DATE</text>
<polygon fill="none" stroke="#000000" points="627,-746.7 627,-768.7 788,-768.7 788,-746.7 627,-746.7"/>
<image xlink:href="../../images/primaryKeys.png" width="11px" height="12px" preserveAspectRatio="xMinYMin meet" x="632" y="-763.7"/>
<text text-anchor="start" x="647" y="-753.8" font-family="Helvetica,sans-Serif" font-size="11.00" fill="#000000">EVENT_ID</text>
<polygon fill="none" stroke="#000000" points="627,-724.7 627,-746.7 788,-746.7 788,-724.7 627,-724.7"/>
<image xlink:href="../../images/primaryKeys.png" width="11px" height="12px" preserveAspectRatio="xMinYMin meet" x="632" y="-741.7"/>
<text text-anchor="start" x="647" y="-731.8" font-family="Helvetica,sans-Serif" font-size="11.00" fill="#000000">SOFT_DELETED</text>
<polygon fill="none" stroke="#000000" points="627,-702.7 627,-724.7 788,-724.7 788,-702.7 627,-702.7"/>
<image xlink:href="../../images/primaryKeys.png" width="11px" height="12px" preserveAspectRatio="xMinYMin meet" x="632" y="-719.7"/>
<text text-anchor="start" x="647" y="-709.8" font-family="Helvetica,sans-Serif" font-size="11.00" fill="#000000">PARTITION_AREA_ID</text>
<polygon fill="none" stroke="#000000" points="627,-680.7 627,-702.7 788,-702.7 788,-680.7 627,-680.7"/>
<image xlink:href="../../images/primaryKeys.png" width="11px" height="12px" preserveAspectRatio="xMinYMin meet" x="632" y="-697.7"/>
<text text-anchor="start" x="647" y="-687.8" font-family="Helvetica,sans-Serif" font-size="11.00" fill="#000000">OFFENCE_ID</text>
<polygon fill="none" stroke="#000000" points="627,-658.7 627,-680.7 788,-680.7 788,-658.7 627,-658.7"/>
<image xlink:href="../../images/primaryKeys.png" width="11px" height="12px" preserveAspectRatio="xMinYMin meet" x="632" y="-675.7"/>
<text text-anchor="start" x="647" y="-665.8" font-family="Helvetica,sans-Serif" font-size="11.00" fill="#000000">TRAINING_SESSION_ID</text>
<polygon fill="none" stroke="#000000" points="627,-636.7 627,-658.7 788,-658.7 788,-636.7 627,-636.7"/>
<image xlink:href="../../images/primaryKeys.png" width="11px" height="12px" preserveAspectRatio="xMinYMin meet" x="632" y="-653.7"/>
<text text-anchor="start" x="647" y="-643.8" font-family="Helvetica,sans-Serif" font-size="11.00" fill="#000000">OFFENDER_ID</text>
<polygon fill="none" stroke="#000000" points="627,-617.7 627,-636.7 788,-636.7 788,-617.7 627,-617.7"/>
<text text-anchor="start" x="630" y="-623.8" font-family="Helvetica,sans-Serif" font-size="11.00" fill="#000000">...</text>
<polygon fill="#ffffff" stroke="transparent" points="627,-598.7 627,-617.7 675,-617.7 675,-598.7 627,-598.7"/>
<polygon fill="none" stroke="#000000" points="627,-598.7 627,-617.7 675,-617.7 675,-598.7 627,-598.7"/>
<text text-anchor="start" x="630" y="-604.8" font-family="Helvetica,sans-Serif" font-size="11.00" fill="#000000">&lt; 4</text>
<polygon fill="#ffffff" stroke="transparent" points="675,-598.7 675,-617.7 753,-617.7 753,-598.7 675,-598.7"/>
<polygon fill="none" stroke="#000000" points="675,-598.7 675,-617.7 753,-617.7 753,-598.7 675,-598.7"/>
<text text-anchor="start" x="690.094" y="-604.8" font-family="Helvetica,sans-Serif" font-size="11.00" fill="#000000">14,603 rows</text>
<polygon fill="#ffffff" stroke="transparent" points="753,-598.7 753,-617.7 788,-617.7 788,-598.7 753,-598.7"/>
<polygon fill="none" stroke="#000000" points="753,-598.7 753,-617.7 788,-617.7 788,-598.7 753,-598.7"/>
<text text-anchor="start" x="769.4053" y="-604.8" font-family="Helvetica,sans-Serif" font-size="11.00" fill="#000000">1 &gt;</text>
</a>
</g>
</g>
<!-- MAIN_OFFENCE&#45;&gt;R_OFFENCE -->
<g id="edge2" class="edge">
<title>MAIN_OFFENCE:w&#45;&gt;R_OFFENCE:e</title>
<path fill="none" stroke="#000000" d="M612.4559,-691.7C588.9902,-691.7 578.25,-691.7 549,-691.7"/>
<polygon fill="#000000" stroke="#000000" points="619,-691.7001 627,-695.3 623,-691.7 627,-691.7 627,-691.7 627,-691.7 623,-691.7 627,-688.1 619,-691.7001 619,-691.7001"/>
<ellipse fill="none" stroke="#000000" cx="615.8" cy="-691.7001" rx="3.2" ry="3.2"/>
</g>
<!-- OASYS_ASSESSMENT -->
<g id="node4" class="node">
<title>OASYS_ASSESSMENT</title>
<g id="a_node4"><a xlink:href="../../tables/OASYS_ASSESSMENT.html" xlink:title="OASYS_ASSESSMENT" target="_top">
<polygon fill="#ffffff" stroke="transparent" points="600,-38.2 600,-407.2 814,-407.2 814,-38.2 600,-38.2"/>
<polygon fill="#f5f5f5" stroke="transparent" points="600,-383.7 600,-406.7 814,-406.7 814,-383.7 600,-383.7"/>
<polygon fill="none" stroke="#000000" points="600,-383.7 600,-406.7 814,-406.7 814,-383.7 600,-383.7"/>
<text text-anchor="start" x="605" y="-392.8" font-family="Helvetica,sans-Serif" font-weight="bold" font-size="11.00" fill="#000000">OASYS_ASSESSMENT</text>
<text text-anchor="start" x="779.0437" y="-391.8" font-family="Helvetica,sans-Serif" font-size="11.00" fill="#000000">[table]</text>
<polygon fill="none" stroke="#000000" points="600,-361.7 600,-383.7 814,-383.7 814,-361.7 600,-361.7"/>
<image xlink:href="../../images/primaryKeys.png" width="11px" height="12px" preserveAspectRatio="xMinYMin meet" x="605" y="-378.7"/>
<text text-anchor="start" x="620" y="-368.8" font-family="Helvetica,sans-Serif" font-size="11.00" fill="#000000">OASYS_ASSESSMENT_ID</text>
<polygon fill="none" stroke="#000000" points="600,-339.7 600,-361.7 814,-361.7 814,-339.7 600,-339.7"/>
<image xlink:href="../../images/primaryKeys.png" width="11px" height="12px" preserveAspectRatio="xMinYMin meet" x="605" y="-356.7"/>
<text text-anchor="start" x="620" y="-346.8" font-family="Helvetica,sans-Serif" font-size="11.00" fill="#000000">OFFENDER_ID</text>
<polygon fill="none" stroke="#000000" points="600,-317.7 600,-339.7 814,-339.7 814,-317.7 600,-317.7"/>
<image xlink:href="../../images/primaryKeys.png" width="11px" height="12px" preserveAspectRatio="xMinYMin meet" x="605" y="-334.7"/>
<text text-anchor="start" x="620" y="-324.8" font-family="Helvetica,sans-Serif" font-size="11.00" fill="#000000">OASYS_ID</text>
<polygon fill="none" stroke="#000000" points="600,-295.7 600,-317.7 814,-317.7 814,-295.7 600,-295.7"/>
<image xlink:href="../../images/primaryKeys.png" width="11px" height="12px" preserveAspectRatio="xMinYMin meet" x="605" y="-312.7"/>
<text text-anchor="start" x="620" y="-302.8" font-family="Helvetica,sans-Serif" font-size="11.00" fill="#000000">ASSESSMENT_DATE</text>
<polygon fill="none" stroke="#000000" points="600,-273.7 600,-295.7 814,-295.7 814,-273.7 600,-273.7"/>
<image xlink:href="../../images/primaryKeys.png" width="11px" height="12px" preserveAspectRatio="xMinYMin meet" x="605" y="-290.7"/>
<text text-anchor="start" x="620" y="-280.8" font-family="Helvetica,sans-Serif" font-size="11.00" fill="#000000">DATE_CREATED</text>
<polygon fill="none" stroke="#000000" points="600,-251.7 600,-273.7 814,-273.7 814,-251.7 600,-251.7"/>
<image xlink:href="../../images/primaryKeys.png" width="11px" height="12px" preserveAspectRatio="xMinYMin meet" x="605" y="-268.7"/>
<text text-anchor="start" x="620" y="-258.8" font-family="Helvetica,sans-Serif" font-size="11.00" fill="#000000">REVIEW_TERMINATED</text>
<polygon fill="none" stroke="#000000" points="600,-229.7 600,-251.7 814,-251.7 814,-229.7 600,-229.7"/>
<image xlink:href="../../images/primaryKeys.png" width="11px" height="12px" preserveAspectRatio="xMinYMin meet" x="605" y="-246.7"/>
<text text-anchor="start" x="620" y="-236.8" font-family="Helvetica,sans-Serif" font-size="11.00" fill="#000000">PARTITION_AREA_ID</text>
<polygon fill="none" stroke="#000000" points="600,-207.7 600,-229.7 814,-229.7 814,-207.7 600,-207.7"/>
<image xlink:href="../../images/primaryKeys.png" width="11px" height="12px" preserveAspectRatio="xMinYMin meet" x="605" y="-224.7"/>
<text text-anchor="start" x="620" y="-214.8" font-family="Helvetica,sans-Serif" font-size="11.00" fill="#000000">SOFT_DELETED</text>
<polygon fill="none" stroke="#000000" points="600,-185.7 600,-207.7 814,-207.7 814,-185.7 600,-185.7"/>
<image xlink:href="../../images/primaryKeys.png" width="11px" height="12px" preserveAspectRatio="xMinYMin meet" x="605" y="-202.7"/>
<text text-anchor="start" x="620" y="-192.8" font-family="Helvetica,sans-Serif" font-size="11.00" fill="#000000">OFFENCE_ID</text>
<polygon fill="none" stroke="#000000" points="600,-163.7 600,-185.7 814,-185.7 814,-163.7 600,-163.7"/>
<image xlink:href="../../images/primaryKeys.png" width="11px" height="12px" preserveAspectRatio="xMinYMin meet" x="605" y="-180.7"/>
<text text-anchor="start" x="620" y="-170.8" font-family="Helvetica,sans-Serif" font-size="11.00" fill="#000000">EVENT_NUMBER</text>
<polygon fill="none" stroke="#000000" points="600,-141.7 600,-163.7 814,-163.7 814,-141.7 600,-141.7"/>
<image xlink:href="../../images/primaryKeys.png" width="11px" height="12px" preserveAspectRatio="xMinYMin meet" x="605" y="-158.7"/>
<text text-anchor="start" x="620" y="-148.8" font-family="Helvetica,sans-Serif" font-size="11.00" fill="#000000">COURT_ID</text>
<polygon fill="none" stroke="#000000" points="600,-119.7 600,-141.7 814,-141.7 814,-119.7 600,-119.7"/>
<image xlink:href="../../images/primaryKeys.png" width="11px" height="12px" preserveAspectRatio="xMinYMin meet" x="605" y="-136.7"/>
<text text-anchor="start" x="620" y="-126.8" font-family="Helvetica,sans-Serif" font-size="11.00" fill="#000000">CONTACT_ID</text>
<polygon fill="none" stroke="#000000" points="600,-97.7 600,-119.7 814,-119.7 814,-97.7 600,-97.7"/>
<image xlink:href="../../images/primaryKeys.png" width="11px" height="12px" preserveAspectRatio="xMinYMin meet" x="605" y="-114.7"/>
<text text-anchor="start" x="620" y="-104.8" font-family="Helvetica,sans-Serif" font-size="11.00" fill="#000000">TRAINING_SESSION_ID</text>
<polygon fill="none" stroke="#000000" points="600,-75.7 600,-97.7 814,-97.7 814,-75.7 600,-75.7"/>
<image xlink:href="../../images/primaryKeys.png" width="11px" height="12px" preserveAspectRatio="xMinYMin meet" x="605" y="-92.7"/>
<text text-anchor="start" x="620" y="-82.8" font-family="Helvetica,sans-Serif" font-size="11.00" fill="#000000">TIER_CODE_ID</text>
<polygon fill="none" stroke="#000000" points="600,-56.7 600,-75.7 814,-75.7 814,-56.7 600,-56.7"/>
<text text-anchor="start" x="603" y="-62.8" font-family="Helvetica,sans-Serif" font-size="11.00" fill="#000000">...</text>
<polygon fill="#ffffff" stroke="transparent" points="600,-37.7 600,-56.7 688,-56.7 688,-37.7 600,-37.7"/>
<polygon fill="none" stroke="#000000" points="600,-37.7 600,-56.7 688,-56.7 688,-37.7 600,-37.7"/>
<text text-anchor="start" x="603" y="-43.8" font-family="Helvetica,sans-Serif" font-size="11.00" fill="#000000">&lt; 6</text>
<polygon fill="#ffffff" stroke="transparent" points="688,-37.7 688,-56.7 759,-56.7 759,-37.7 688,-37.7"/>
<polygon fill="none" stroke="#000000" points="688,-37.7 688,-56.7 759,-56.7 759,-37.7 688,-37.7"/>
<text text-anchor="start" x="723.6105" y="-43.8" font-family="Helvetica,sans-Serif" font-size="11.00" fill="#000000">0 rows</text>
<polygon fill="#ffffff" stroke="transparent" points="759,-37.7 759,-56.7 814,-56.7 814,-37.7 759,-37.7"/>
<polygon fill="none" stroke="#000000" points="759,-37.7 759,-56.7 814,-56.7 814,-37.7 759,-37.7"/>
<text text-anchor="start" x="795.4053" y="-43.8" font-family="Helvetica,sans-Serif" font-size="11.00" fill="#000000">2 &gt;</text>
</a>
</g>
</g>
<!-- OASYS_ASSESSMENT&#45;&gt;R_OFFENCE -->
<g id="edge3" class="edge">
<title>OASYS_ASSESSMENT:w&#45;&gt;R_OFFENCE:e</title>
<path fill="none" stroke="#000000" d="M585.7441,-200.1253C505.366,-243.8597 654.1828,-691.7 549,-691.7"/>
<polygon fill="#000000" stroke="#000000" points="592.2214,-198.569 600.8411,-200.2004 596.1107,-197.6345 600,-196.7 600,-196.7 600,-196.7 596.1107,-197.6345 599.1589,-193.1996 592.2214,-198.569 592.2214,-198.569"/>
<ellipse fill="none" stroke="#000000" cx="589.1099" cy="-199.3166" rx="3.2" ry="3.2"/>
</g>
<!-- OASYS_ASSESSMENT&#45;&gt;R_STANDARD_REFERENCE_LIST -->
<g id="edge4" class="edge">
<title>OASYS_ASSESSMENT:w&#45;&gt;R_STANDARD_REFERENCE_LIST:e</title>
<path fill="none" stroke="#000000" d="M585.5845,-86.4364C448.0318,-81.4112 378.0545,-7.2555 269,-98.7 202.471,-154.4859 314.8227,-289.7 228,-289.7"/>
<polygon fill="#000000" stroke="#000000" points="592.0013,-86.5537 599.9342,-90.2994 596.0007,-86.6268 600,-86.7 600,-86.7 600,-86.7 596.0007,-86.6268 600.0658,-83.1006 592.0013,-86.5537 592.0013,-86.5537"/>
<ellipse fill="none" stroke="#000000" cx="588.8019" cy="-86.4951" rx="3.2" ry="3.2"/>
</g>
<!-- TRIGGER_OFFENCE -->
<g id="node6" class="node">
<title>TRIGGER_OFFENCE</title>
<g id="a_node6"><a xlink:href="../../tables/TRIGGER_OFFENCE.html" xlink:title="TRIGGER_OFFENCE" target="_top">
<polygon fill="#ffffff" stroke="transparent" points="631.5,-429.2 631.5,-578.2 782.5,-578.2 782.5,-429.2 631.5,-429.2"/>
<polygon fill="#f5f5f5" stroke="transparent" points="632,-554.7 632,-577.7 783,-577.7 783,-554.7 632,-554.7"/>
<polygon fill="none" stroke="#000000" points="632,-554.7 632,-577.7 783,-577.7 783,-554.7 632,-554.7"/>
<text text-anchor="start" x="636.6133" y="-563.8" font-family="Helvetica,sans-Serif" font-weight="bold" font-size="11.00" fill="#000000">TRIGGER_OFFENCE</text>
<text text-anchor="start" x="748.5219" y="-562.8" font-family="Helvetica,sans-Serif" font-size="11.00" fill="#000000">[table]</text>
<polygon fill="none" stroke="#000000" points="632,-532.7 632,-554.7 783,-554.7 783,-532.7 632,-532.7"/>
<image xlink:href="../../images/primaryKeys.png" width="11px" height="12px" preserveAspectRatio="xMinYMin meet" x="637" y="-549.7"/>
<text text-anchor="start" x="652.5569" y="-539.8" font-family="Helvetica,sans-Serif" font-size="11.00" fill="#000000">TRIGGER_OFFENCE_ID</text>
<polygon fill="none" stroke="#000000" points="632,-510.7 632,-532.7 783,-532.7 783,-510.7 632,-510.7"/>
<image xlink:href="../../images/primaryKeys.png" width="11px" height="12px" preserveAspectRatio="xMinYMin meet" x="637" y="-527.7"/>
<text text-anchor="start" x="657" y="-517.8" font-family="Helvetica,sans-Serif" font-size="11.00" fill="#000000">REGISTER_TYPE_ID</text>
<polygon fill="none" stroke="#000000" points="632,-488.7 632,-510.7 783,-510.7 783,-488.7 632,-488.7"/>
<image xlink:href="../../images/primaryKeys.png" width="11px" height="12px" preserveAspectRatio="xMinYMin meet" x="637" y="-505.7"/>
<text text-anchor="start" x="657" y="-495.8" font-family="Helvetica,sans-Serif" font-size="11.00" fill="#000000">OFFENCE_ID</text>
<polygon fill="none" stroke="#000000" points="632,-466.7 632,-488.7 783,-488.7 783,-466.7 632,-466.7"/>
<image xlink:href="../../images/primaryKeys.png" width="11px" height="12px" preserveAspectRatio="xMinYMin meet" x="637" y="-483.7"/>
<text text-anchor="start" x="653.1625" y="-473.8" font-family="Helvetica,sans-Serif" font-size="11.00" fill="#000000">TRAINING_SESSION_ID</text>
<polygon fill="none" stroke="#000000" points="632,-447.7 632,-466.7 783,-466.7 783,-447.7 632,-447.7"/>
<text text-anchor="start" x="635" y="-453.8" font-family="Helvetica,sans-Serif" font-size="11.00" fill="#000000">...</text>
<polygon fill="#ffffff" stroke="transparent" points="632,-428.7 632,-447.7 688,-447.7 688,-428.7 632,-428.7"/>
<polygon fill="none" stroke="#000000" points="632,-428.7 632,-447.7 688,-447.7 688,-428.7 632,-428.7"/>
<text text-anchor="start" x="635" y="-434.8" font-family="Helvetica,sans-Serif" font-size="11.00" fill="#000000">&lt; 2</text>
<polygon fill="#ffffff" stroke="transparent" points="688,-428.7 688,-447.7 744,-447.7 744,-428.7 688,-428.7"/>
<polygon fill="none" stroke="#000000" points="688,-428.7 688,-447.7 744,-447.7 744,-428.7 688,-428.7"/>
<text text-anchor="start" x="708.6105" y="-434.8" font-family="Helvetica,sans-Serif" font-size="11.00" fill="#000000">0 rows</text>
<polygon fill="#ffffff" stroke="transparent" points="744,-428.7 744,-447.7 783,-447.7 783,-428.7 744,-428.7"/>
<polygon fill="none" stroke="#000000" points="744,-428.7 744,-447.7 783,-447.7 783,-428.7 744,-428.7"/>
<text text-anchor="start" x="764.4053" y="-434.8" font-family="Helvetica,sans-Serif" font-size="11.00" fill="#000000">1 &gt;</text>
</a>
</g>
</g>
<!-- TRIGGER_OFFENCE&#45;&gt;R_OFFENCE -->
<g id="edge6" class="edge">
<title>TRIGGER_OFFENCE:w&#45;&gt;R_OFFENCE:e</title>
<path fill="none" stroke="#000000" d="M617.5973,-501.6003C550.4242,-521.5408 636.5182,-691.7 549,-691.7"/>
<polygon fill="#000000" stroke="#000000" points="624.0687,-500.7465 632.4709,-503.2691 628.0344,-500.2232 632,-499.7 632,-499.7 632,-499.7 628.0344,-500.2232 631.5291,-496.1309 624.0687,-500.7465 624.0687,-500.7465"/>
<ellipse fill="none" stroke="#000000" cx="620.8962" cy="-501.1651" rx="3.2" ry="3.2"/>
</g>
</g>
</svg>
