<?xml version="1.0" encoding="UTF-8" standalone="no"?>
<!DOCTYPE svg PUBLIC "-//W3C//DTD SVG 1.1//EN"
 "http://www.w3.org/Graphics/SVG/1.1/DTD/svg11.dtd">
<!-- Generated by graphviz version 2.40.1 (20161225.0304)
 -->
<!-- Title: oneDegreeRelationshipsDiagram Pages: 1 -->
<svg width="500pt" height="234pt"
 viewBox="0.00 0.00 500.00 233.70" xmlns="http://www.w3.org/2000/svg" xmlns:xlink="http://www.w3.org/1999/xlink">
<g id="graph0" class="graph" transform="scale(1 1) rotate(0) translate(4 229.7)">
<title>oneDegreeRelationshipsDiagram</title>
<polygon fill="#ffffff" stroke="transparent" points="-4,4 -4,-229.7 496,-229.7 496,4 -4,4"/>
<text text-anchor="middle" x="72.4936" y="-7.3" font-family="Helvetica,sans-Serif" font-size="11.00" fill="#000000">Generated by SchemaSpy</text>
<!-- R_OFFICE_LOCATION_LINK -->
<g id="node1" class="node">
<title>R_OFFICE_LOCATION_LINK</title>
<g id="a_node1"><a xlink:href="../../tables/R_OFFICE_LOCATION_LINK.html" xlink:title="R_OFFICE_LOCATION_LINK" target="_top">
<polygon fill="#ffffff" stroke="transparent" points="218,-109.7 218,-221.7 484,-221.7 484,-109.7 218,-109.7"/>
<polygon fill="#f5f5f5" stroke="transparent" points="220,-196.7 220,-219.7 482,-219.7 482,-196.7 220,-196.7"/>
<polygon fill="none" stroke="#000000" points="220,-196.7 220,-219.7 482,-219.7 482,-196.7 220,-196.7"/>
<text text-anchor="start" x="225" y="-205.8" font-family="Helvetica,sans-Serif" font-weight="bold" font-size="11.00" fill="#000000">R_OFFICE_LOCATION_LINK</text>
<text text-anchor="start" x="447.0437" y="-204.8" font-family="Helvetica,sans-Serif" font-size="11.00" fill="#000000">[table]</text>
<polygon fill="none" stroke="#000000" points="220,-174.7 220,-196.7 421,-196.7 421,-174.7 220,-174.7"/>
<image xlink:href="../../images/primaryKeys.png" width="11px" height="12px" preserveAspectRatio="xMinYMin meet" x="225" y="-191.7"/>
<text text-anchor="start" x="233.5804" y="-181.8" font-family="Helvetica,sans-Serif" font-size="11.00" fill="#000000">LINK_FROM_OFFICE_LOCATION_ID</text>
<polygon fill="none" stroke="#000000" points="421,-174.7 421,-196.7 482,-196.7 482,-174.7 421,-174.7"/>
<text text-anchor="start" x="423.6865" y="-182.4" font-family="Helvetica,sans-Serif" font-size="11.00" fill="#000000">number[22]</text>
<polygon fill="none" stroke="#000000" points="220,-152.7 220,-174.7 421,-174.7 421,-152.7 220,-152.7"/>
<image xlink:href="../../images/primaryKeys.png" width="11px" height="12px" preserveAspectRatio="xMinYMin meet" x="225" y="-169.7"/>
<text text-anchor="start" x="240" y="-159.8" font-family="Helvetica,sans-Serif" font-size="11.00" fill="#000000">LINK_TO_OFFICE_LOCATION_ID</text>
<polygon fill="none" stroke="#000000" points="421,-152.7 421,-174.7 482,-174.7 482,-152.7 421,-152.7"/>
<text text-anchor="start" x="423.6865" y="-160.4" font-family="Helvetica,sans-Serif" font-size="11.00" fill="#000000">number[22]</text>
<polygon fill="none" stroke="#000000" points="220,-130.7 220,-152.7 421,-152.7 421,-130.7 220,-130.7"/>
<text text-anchor="start" x="240" y="-137.8" font-family="Helvetica,sans-Serif" font-size="11.00" fill="#000000">ROW_VERSION</text>
<polygon fill="none" stroke="#000000" points="421,-130.7 421,-152.7 482,-152.7 482,-130.7 421,-130.7"/>
<text text-anchor="start" x="423.6865" y="-138.4" font-family="Helvetica,sans-Serif" font-size="11.00" fill="#000000">number[22]</text>
<polygon fill="#ffffff" stroke="transparent" points="220,-111.7 220,-130.7 301,-130.7 301,-111.7 220,-111.7"/>
<polygon fill="none" stroke="#000000" points="220,-111.7 220,-130.7 301,-130.7 301,-111.7 220,-111.7"/>
<text text-anchor="start" x="223" y="-117.8" font-family="Helvetica,sans-Serif" font-size="11.00" fill="#000000">&lt; 2</text>
<polygon fill="#ffffff" stroke="transparent" points="301,-111.7 301,-130.7 421,-130.7 421,-111.7 301,-111.7"/>
<polygon fill="none" stroke="#000000" points="301,-111.7 301,-130.7 421,-130.7 421,-111.7 301,-111.7"/>
<text text-anchor="start" x="364.2089" y="-117.8" font-family="Helvetica,sans-Serif" font-size="11.00" fill="#000000">2,473 rows</text>
<polygon fill="#ffffff" stroke="transparent" points="421,-111.7 421,-130.7 482,-130.7 482,-111.7 421,-111.7"/>
<polygon fill="none" stroke="#000000" points="421,-111.7 421,-130.7 482,-130.7 482,-111.7 421,-111.7"/>
<text text-anchor="start" x="463.4053" y="-117.8" font-family="Helvetica,sans-Serif" font-size="11.00" fill="#000000">0 &gt;</text>
<polygon fill="none" stroke="#000000" stroke-width="2" points="219,-110.7 219,-220.7 483,-220.7 483,-110.7 219,-110.7"/>
</a>
</g>
</g>
<!-- OFFICE_LOCATION -->
<g id="node2" class="node">
<title>OFFICE_LOCATION</title>
<g id="a_node2"><a xlink:href="../../tables/OFFICE_LOCATION.html" xlink:title="OFFICE_LOCATION" target="_top">
<polygon fill="#ffffff" stroke="transparent" points="8,-38.2 8,-209.2 169,-209.2 169,-38.2 8,-38.2"/>
<polygon fill="#f5f5f5" stroke="transparent" points="8.5,-185.7 8.5,-208.7 169.5,-208.7 169.5,-185.7 8.5,-185.7"/>
<polygon fill="none" stroke="#000000" points="8.5,-185.7 8.5,-208.7 169.5,-208.7 169.5,-185.7 8.5,-185.7"/>
<text text-anchor="start" x="13.5" y="-194.8" font-family="Helvetica,sans-Serif" font-weight="bold" font-size="11.00" fill="#000000">OFFICE_LOCATION</text>
<text text-anchor="start" x="134.5437" y="-193.8" font-family="Helvetica,sans-Serif" font-size="11.00" fill="#000000">[table]</text>
<polygon fill="none" stroke="#000000" points="8.5,-163.7 8.5,-185.7 169.5,-185.7 169.5,-163.7 8.5,-163.7"/>
<image xlink:href="../../images/primaryKeys.png" width="11px" height="12px" preserveAspectRatio="xMinYMin meet" x="13.5" y="-180.7"/>
<text text-anchor="start" x="28.5" y="-170.8" font-family="Helvetica,sans-Serif" font-size="11.00" fill="#000000">OFFICE_LOCATION_ID</text>
<polygon fill="none" stroke="#000000" points="8.5,-141.7 8.5,-163.7 169.5,-163.7 169.5,-141.7 8.5,-141.7"/>
<image xlink:href="../../images/primaryKeys.png" width="11px" height="12px" preserveAspectRatio="xMinYMin meet" x="13.5" y="-158.7"/>
<text text-anchor="start" x="28.5" y="-148.8" font-family="Helvetica,sans-Serif" font-size="11.00" fill="#000000">CODE</text>
<polygon fill="none" stroke="#000000" points="8.5,-119.7 8.5,-141.7 169.5,-141.7 169.5,-119.7 8.5,-119.7"/>
<image xlink:href="../../images/primaryKeys.png" width="11px" height="12px" preserveAspectRatio="xMinYMin meet" x="13.5" y="-136.7"/>
<text text-anchor="start" x="28.5" y="-126.8" font-family="Helvetica,sans-Serif" font-size="11.00" fill="#000000">DISTRICT_ID</text>
<polygon fill="none" stroke="#000000" points="8.5,-97.7 8.5,-119.7 169.5,-119.7 169.5,-97.7 8.5,-97.7"/>
<image xlink:href="../../images/primaryKeys.png" width="11px" height="12px" preserveAspectRatio="xMinYMin meet" x="13.5" y="-114.7"/>
<text text-anchor="start" x="28.5" y="-104.8" font-family="Helvetica,sans-Serif" font-size="11.00" fill="#000000">TRAINING_SESSION_ID</text>
<polygon fill="none" stroke="#000000" points="8.5,-75.7 8.5,-97.7 169.5,-97.7 169.5,-75.7 8.5,-75.7"/>
<image xlink:href="../../images/primaryKeys.png" width="11px" height="12px" preserveAspectRatio="xMinYMin meet" x="13.5" y="-92.7"/>
<text text-anchor="start" x="28.5" y="-82.8" font-family="Helvetica,sans-Serif" font-size="11.00" fill="#000000">PROBATION_AREA_ID</text>
<polygon fill="none" stroke="#000000" points="8.5,-56.7 8.5,-75.7 169.5,-75.7 169.5,-56.7 8.5,-56.7"/>
<text text-anchor="start" x="11.5" y="-62.8" font-family="Helvetica,sans-Serif" font-size="11.00" fill="#000000">...</text>
<polygon fill="#ffffff" stroke="transparent" points="8.5,-37.7 8.5,-56.7 59.5,-56.7 59.5,-37.7 8.5,-37.7"/>
<polygon fill="none" stroke="#000000" points="8.5,-37.7 8.5,-56.7 59.5,-56.7 59.5,-37.7 8.5,-37.7"/>
<text text-anchor="start" x="11.5" y="-43.8" font-family="Helvetica,sans-Serif" font-size="11.00" fill="#000000">&lt; 2</text>
<polygon fill="#ffffff" stroke="transparent" points="59.5,-37.7 59.5,-56.7 133.5,-56.7 133.5,-37.7 59.5,-37.7"/>
<polygon fill="none" stroke="#000000" points="59.5,-37.7 59.5,-56.7 133.5,-56.7 133.5,-37.7 59.5,-37.7"/>
<text text-anchor="start" x="76.7089" y="-43.8" font-family="Helvetica,sans-Serif" font-size="11.00" fill="#000000">4,727 rows</text>
<polygon fill="#ffffff" stroke="transparent" points="133.5,-37.7 133.5,-56.7 169.5,-56.7 169.5,-37.7 133.5,-37.7"/>
<polygon fill="none" stroke="#000000" points="133.5,-37.7 133.5,-56.7 169.5,-56.7 169.5,-37.7 133.5,-37.7"/>
<text text-anchor="start" x="150.9053" y="-43.8" font-family="Helvetica,sans-Serif" font-size="11.00" fill="#000000">8 &gt;</text>
</a>
</g>
</g>
<!-- R_OFFICE_LOCATION_LINK&#45;&gt;OFFICE_LOCATION -->
<g id="edge1" class="edge">
<title>R_OFFICE_LOCATION_LINK:w&#45;&gt;OFFICE_LOCATION:e</title>
<path fill="none" stroke="#000000" d="M205.6489,-183.9813C193.5992,-180.8875 186.728,-174.7 169.5,-174.7"/>
<polygon fill="#000000" stroke="#000000" points="212.0568,-184.7486 219.5719,-189.2745 216.0284,-185.2243 220,-185.7 220,-185.7 220,-185.7 216.0284,-185.2243 220.4281,-182.1255 212.0568,-184.7486 212.0568,-184.7486"/>
<ellipse fill="none" stroke="#000000" cx="208.8795" cy="-184.3681" rx="3.2" ry="3.2"/>
</g>
<!-- R_OFFICE_LOCATION_LINK&#45;&gt;OFFICE_LOCATION -->
<g id="edge2" class="edge">
<title>R_OFFICE_LOCATION_LINK:w&#45;&gt;OFFICE_LOCATION:e</title>
<path fill="none" stroke="#000000" d="M205.6489,-165.4188C193.5992,-168.5125 186.728,-174.7 169.5,-174.7"/>
<polygon fill="#000000" stroke="#000000" points="212.0568,-164.6514 220.4281,-167.2745 216.0284,-164.1757 220,-163.7 220,-163.7 220,-163.7 216.0284,-164.1757 219.5719,-160.1255 212.0568,-164.6514 212.0568,-164.6514"/>
<ellipse fill="none" stroke="#000000" cx="208.8795" cy="-165.0319" rx="3.2" ry="3.2"/>
</g>
</g>
</svg>
