<?xml version="1.0" encoding="UTF-8" standalone="no"?>
<!DOCTYPE svg PUBLIC "-//W3C//DTD SVG 1.1//EN"
 "http://www.w3.org/Graphics/SVG/1.1/DTD/svg11.dtd">
<!-- Generated by graphviz version 2.40.1 (20161225.0304)
 -->
<!-- Title: twoDegreesRelationshipsDiagram Pages: 1 -->
<svg width="1088pt" height="628pt"
 viewBox="0.00 0.00 1088.00 628.20" xmlns="http://www.w3.org/2000/svg" xmlns:xlink="http://www.w3.org/1999/xlink">
<g id="graph0" class="graph" transform="scale(1 1) rotate(0) translate(4 624.2)">
<title>twoDegreesRelationshipsDiagram</title>
<polygon fill="#ffffff" stroke="transparent" points="-4,4 -4,-624.2 1084,-624.2 1084,4 -4,4"/>
<text text-anchor="middle" x="72.4936" y="-7.3" font-family="Helvetica,sans-Serif" font-size="11.00" fill="#000000">Generated by SchemaSpy</text>
<!-- CONTACT -->
<g id="node1" class="node">
<title>CONTACT</title>
<g id="a_node1"><a xlink:href="../../tables/CONTACT.html" xlink:title="CONTACT" target="_top">
<polygon fill="#ffffff" stroke="transparent" points="734,-555.2 734,-616.2 860,-616.2 860,-555.2 734,-555.2"/>
<polygon fill="#f5f5f5" stroke="transparent" points="734,-592.7 734,-615.7 860,-615.7 860,-592.7 734,-592.7"/>
<polygon fill="none" stroke="#000000" points="734,-592.7 734,-615.7 860,-615.7 860,-592.7 734,-592.7"/>
<text text-anchor="start" x="739" y="-601.8" font-family="Helvetica,sans-Serif" font-weight="bold" font-size="11.00" fill="#000000">CONTACT</text>
<text text-anchor="start" x="825.0437" y="-600.8" font-family="Helvetica,sans-Serif" font-size="11.00" fill="#000000">[table]</text>
<polygon fill="none" stroke="#000000" points="734,-573.7 734,-592.7 860,-592.7 860,-573.7 734,-573.7"/>
<text text-anchor="start" x="737" y="-579.8" font-family="Helvetica,sans-Serif" font-size="11.00" fill="#000000">...</text>
<polygon fill="#ffffff" stroke="transparent" points="734,-554.7 734,-573.7 761,-573.7 761,-554.7 734,-554.7"/>
<polygon fill="none" stroke="#000000" points="734,-554.7 734,-573.7 761,-573.7 761,-554.7 734,-554.7"/>
<text text-anchor="start" x="736.6452" y="-560.8" font-family="Helvetica,sans-Serif" font-size="11.00" fill="#000000">&lt; 26</text>
<polygon fill="#ffffff" stroke="transparent" points="761,-554.7 761,-573.7 833,-573.7 833,-554.7 761,-554.7"/>
<polygon fill="none" stroke="#000000" points="761,-554.7 761,-573.7 833,-573.7 833,-554.7 761,-554.7"/>
<text text-anchor="start" x="763.9896" y="-560.8" font-family="Helvetica,sans-Serif" font-size="11.00" fill="#000000">165,869 rows</text>
<polygon fill="#ffffff" stroke="transparent" points="833,-554.7 833,-573.7 860,-573.7 860,-554.7 833,-554.7"/>
<polygon fill="none" stroke="#000000" points="833,-554.7 833,-573.7 860,-573.7 860,-554.7 833,-554.7"/>
<text text-anchor="start" x="835.6452" y="-560.8" font-family="Helvetica,sans-Serif" font-size="11.00" fill="#000000">14 &gt;</text>
</a>
</g>
</g>
<!-- OFFICE_LOCATION -->
<g id="node2" class="node">
<title>OFFICE_LOCATION</title>
<g id="a_node2"><a xlink:href="../../tables/OFFICE_LOCATION.html" xlink:title="OFFICE_LOCATION" target="_top">
<polygon fill="#ffffff" stroke="transparent" points="200,-224.2 200,-395.2 361,-395.2 361,-224.2 200,-224.2"/>
<polygon fill="#f5f5f5" stroke="transparent" points="200.5,-371.7 200.5,-394.7 361.5,-394.7 361.5,-371.7 200.5,-371.7"/>
<polygon fill="none" stroke="#000000" points="200.5,-371.7 200.5,-394.7 361.5,-394.7 361.5,-371.7 200.5,-371.7"/>
<text text-anchor="start" x="205.5" y="-380.8" font-family="Helvetica,sans-Serif" font-weight="bold" font-size="11.00" fill="#000000">OFFICE_LOCATION</text>
<text text-anchor="start" x="326.5437" y="-379.8" font-family="Helvetica,sans-Serif" font-size="11.00" fill="#000000">[table]</text>
<polygon fill="none" stroke="#000000" points="200.5,-349.7 200.5,-371.7 361.5,-371.7 361.5,-349.7 200.5,-349.7"/>
<image xlink:href="../../images/primaryKeys.png" width="11px" height="12px" preserveAspectRatio="xMinYMin meet" x="205.5" y="-366.7"/>
<text text-anchor="start" x="220.5" y="-356.8" font-family="Helvetica,sans-Serif" font-size="11.00" fill="#000000">OFFICE_LOCATION_ID</text>
<polygon fill="none" stroke="#000000" points="200.5,-327.7 200.5,-349.7 361.5,-349.7 361.5,-327.7 200.5,-327.7"/>
<image xlink:href="../../images/primaryKeys.png" width="11px" height="12px" preserveAspectRatio="xMinYMin meet" x="205.5" y="-344.7"/>
<text text-anchor="start" x="220.5" y="-334.8" font-family="Helvetica,sans-Serif" font-size="11.00" fill="#000000">CODE</text>
<polygon fill="none" stroke="#000000" points="200.5,-305.7 200.5,-327.7 361.5,-327.7 361.5,-305.7 200.5,-305.7"/>
<image xlink:href="../../images/primaryKeys.png" width="11px" height="12px" preserveAspectRatio="xMinYMin meet" x="205.5" y="-322.7"/>
<text text-anchor="start" x="220.5" y="-312.8" font-family="Helvetica,sans-Serif" font-size="11.00" fill="#000000">DISTRICT_ID</text>
<polygon fill="none" stroke="#000000" points="200.5,-283.7 200.5,-305.7 361.5,-305.7 361.5,-283.7 200.5,-283.7"/>
<image xlink:href="../../images/primaryKeys.png" width="11px" height="12px" preserveAspectRatio="xMinYMin meet" x="205.5" y="-300.7"/>
<text text-anchor="start" x="220.5" y="-290.8" font-family="Helvetica,sans-Serif" font-size="11.00" fill="#000000">TRAINING_SESSION_ID</text>
<polygon fill="none" stroke="#000000" points="200.5,-261.7 200.5,-283.7 361.5,-283.7 361.5,-261.7 200.5,-261.7"/>
<image xlink:href="../../images/primaryKeys.png" width="11px" height="12px" preserveAspectRatio="xMinYMin meet" x="205.5" y="-278.7"/>
<text text-anchor="start" x="220.5" y="-268.8" font-family="Helvetica,sans-Serif" font-size="11.00" fill="#000000">PROBATION_AREA_ID</text>
<polygon fill="none" stroke="#000000" points="200.5,-242.7 200.5,-261.7 361.5,-261.7 361.5,-242.7 200.5,-242.7"/>
<text text-anchor="start" x="203.5" y="-248.8" font-family="Helvetica,sans-Serif" font-size="11.00" fill="#000000">...</text>
<polygon fill="#ffffff" stroke="transparent" points="200.5,-223.7 200.5,-242.7 251.5,-242.7 251.5,-223.7 200.5,-223.7"/>
<polygon fill="none" stroke="#000000" points="200.5,-223.7 200.5,-242.7 251.5,-242.7 251.5,-223.7 200.5,-223.7"/>
<text text-anchor="start" x="203.5" y="-229.8" font-family="Helvetica,sans-Serif" font-size="11.00" fill="#000000">&lt; 2</text>
<polygon fill="#ffffff" stroke="transparent" points="251.5,-223.7 251.5,-242.7 325.5,-242.7 325.5,-223.7 251.5,-223.7"/>
<polygon fill="none" stroke="#000000" points="251.5,-223.7 251.5,-242.7 325.5,-242.7 325.5,-223.7 251.5,-223.7"/>
<text text-anchor="start" x="268.7089" y="-229.8" font-family="Helvetica,sans-Serif" font-size="11.00" fill="#000000">4,727 rows</text>
<polygon fill="#ffffff" stroke="transparent" points="325.5,-223.7 325.5,-242.7 361.5,-242.7 361.5,-223.7 325.5,-223.7"/>
<polygon fill="none" stroke="#000000" points="325.5,-223.7 325.5,-242.7 361.5,-242.7 361.5,-223.7 325.5,-223.7"/>
<text text-anchor="start" x="342.9053" y="-229.8" font-family="Helvetica,sans-Serif" font-size="11.00" fill="#000000">9 &gt;</text>
</a>
</g>
</g>
<!-- CONTACT&#45;&gt;OFFICE_LOCATION -->
<g id="edge1" class="edge">
<title>CONTACT:w&#45;&gt;OFFICE_LOCATION:e</title>
<path fill="none" stroke="#000000" d="M719.4538,-581.8415C707.6744,-580.3028 700.541,-577.0195 684,-574.7 621.4911,-565.9344 448.8359,-583.0154 402,-540.7 341.1553,-485.728 443.5,-360.7 361.5,-360.7"/>
<polygon fill="#000000" stroke="#000000" points="726.0139,-582.2286 733.7879,-586.2937 730.0069,-582.4643 734,-582.7 734,-582.7 734,-582.7 730.0069,-582.4643 734.2121,-579.1063 726.0139,-582.2286 726.0139,-582.2286"/>
<ellipse fill="none" stroke="#000000" cx="722.8195" cy="-582.0401" rx="3.2" ry="3.2"/>
</g>
<!-- PROBATION_AREA -->
<g id="node3" class="node">
<title>PROBATION_AREA</title>
<g id="a_node3"><a xlink:href="../../tables/PROBATION_AREA.html" xlink:title="PROBATION_AREA" target="_top">
<polygon fill="#ffffff" stroke="transparent" points="8,-226.2 8,-287.2 151,-287.2 151,-226.2 8,-226.2"/>
<polygon fill="#f5f5f5" stroke="transparent" points="8.5,-263.7 8.5,-286.7 151.5,-286.7 151.5,-263.7 8.5,-263.7"/>
<polygon fill="none" stroke="#000000" points="8.5,-263.7 8.5,-286.7 151.5,-286.7 151.5,-263.7 8.5,-263.7"/>
<text text-anchor="start" x="13.0782" y="-272.8" font-family="Helvetica,sans-Serif" font-weight="bold" font-size="11.00" fill="#000000">PROBATION_AREA</text>
<text text-anchor="start" x="117.0219" y="-271.8" font-family="Helvetica,sans-Serif" font-size="11.00" fill="#000000">[table]</text>
<polygon fill="none" stroke="#000000" points="8.5,-244.7 8.5,-263.7 151.5,-263.7 151.5,-244.7 8.5,-244.7"/>
<text text-anchor="start" x="11.5" y="-250.8" font-family="Helvetica,sans-Serif" font-size="11.00" fill="#000000">...</text>
<polygon fill="#ffffff" stroke="transparent" points="8.5,-225.7 8.5,-244.7 51.5,-244.7 51.5,-225.7 8.5,-225.7"/>
<polygon fill="none" stroke="#000000" points="8.5,-225.7 8.5,-244.7 51.5,-244.7 51.5,-225.7 8.5,-225.7"/>
<text text-anchor="start" x="11.5" y="-231.8" font-family="Helvetica,sans-Serif" font-size="11.00" fill="#000000">&lt; 8</text>
<polygon fill="#ffffff" stroke="transparent" points="51.5,-225.7 51.5,-244.7 112.5,-244.7 112.5,-225.7 51.5,-225.7"/>
<polygon fill="none" stroke="#000000" points="51.5,-225.7 51.5,-244.7 112.5,-244.7 112.5,-225.7 51.5,-225.7"/>
<text text-anchor="start" x="64.8807" y="-231.8" font-family="Helvetica,sans-Serif" font-size="11.00" fill="#000000">223 rows</text>
<polygon fill="#ffffff" stroke="transparent" points="112.5,-225.7 112.5,-244.7 151.5,-244.7 151.5,-225.7 112.5,-225.7"/>
<polygon fill="none" stroke="#000000" points="112.5,-225.7 112.5,-244.7 151.5,-244.7 151.5,-225.7 112.5,-225.7"/>
<text text-anchor="start" x="126.7904" y="-231.8" font-family="Helvetica,sans-Serif" font-size="11.00" fill="#000000">70 &gt;</text>
</a>
</g>
</g>
<!-- CONTACT&#45;&gt;PROBATION_AREA -->
<g id="edge2" class="edge">
<title>CONTACT:w&#45;&gt;PROBATION_AREA:e</title>
<path fill="none" stroke="#000000" d="M719.5809,-582.7744C480.2004,-585.2241 335.5324,-646.0169 192,-449.7 139.5005,-377.8937 240.4514,-253.7 151.5,-253.7"/>
<polygon fill="#000000" stroke="#000000" points="726.0001,-582.7414 734.0186,-586.3 730.0001,-582.7207 734,-582.7 734,-582.7 734,-582.7 730.0001,-582.7207 733.9814,-579.1 726.0001,-582.7414 726.0001,-582.7414"/>
<ellipse fill="none" stroke="#000000" cx="722.8001" cy="-582.7579" rx="3.2" ry="3.2"/>
</g>
<!-- OFFICE_LOCATION&#45;&gt;PROBATION_AREA -->
<g id="edge8" class="edge">
<title>OFFICE_LOCATION:w&#45;&gt;PROBATION_AREA:e</title>
<path fill="none" stroke="#000000" d="M186.2744,-269.7313C174.6829,-264.3875 169.0182,-253.7 151.5,-253.7"/>
<polygon fill="#000000" stroke="#000000" points="192.6687,-271.0656 199.7645,-276.2241 196.5844,-271.8828 200.5,-272.7 200.5,-272.7 200.5,-272.7 196.5844,-271.8828 201.2355,-269.1759 192.6687,-271.0656 192.6687,-271.0656"/>
<ellipse fill="none" stroke="#000000" cx="189.5362" cy="-270.4119" rx="3.2" ry="3.2"/>
</g>
<!-- DISTRICT -->
<g id="node6" class="node">
<title>DISTRICT</title>
<g id="a_node6"><a xlink:href="../../tables/DISTRICT.html" xlink:title="DISTRICT" target="_top">
<polygon fill="#ffffff" stroke="transparent" points="29,-308.2 29,-369.2 130,-369.2 130,-308.2 29,-308.2"/>
<polygon fill="#f5f5f5" stroke="transparent" points="29.5,-345.7 29.5,-368.7 130.5,-368.7 130.5,-345.7 29.5,-345.7"/>
<polygon fill="none" stroke="#000000" points="29.5,-345.7 29.5,-368.7 130.5,-368.7 130.5,-345.7 29.5,-345.7"/>
<text text-anchor="start" x="34.5" y="-354.8" font-family="Helvetica,sans-Serif" font-weight="bold" font-size="11.00" fill="#000000">DISTRICT</text>
<text text-anchor="start" x="95.5437" y="-353.8" font-family="Helvetica,sans-Serif" font-size="11.00" fill="#000000">[table]</text>
<polygon fill="none" stroke="#000000" points="29.5,-326.7 29.5,-345.7 130.5,-345.7 130.5,-326.7 29.5,-326.7"/>
<text text-anchor="start" x="32.5" y="-332.8" font-family="Helvetica,sans-Serif" font-size="11.00" fill="#000000">...</text>
<polygon fill="#ffffff" stroke="transparent" points="29.5,-307.7 29.5,-326.7 50.5,-326.7 50.5,-307.7 29.5,-307.7"/>
<polygon fill="none" stroke="#000000" points="29.5,-307.7 29.5,-326.7 50.5,-326.7 50.5,-307.7 29.5,-307.7"/>
<text text-anchor="start" x="32.2027" y="-313.8" font-family="Helvetica,sans-Serif" font-size="11.00" fill="#000000">&lt; 1</text>
<polygon fill="#ffffff" stroke="transparent" points="50.5,-307.7 50.5,-326.7 109.5,-326.7 109.5,-307.7 50.5,-307.7"/>
<polygon fill="none" stroke="#000000" points="50.5,-307.7 50.5,-326.7 109.5,-326.7 109.5,-307.7 50.5,-307.7"/>
<text text-anchor="start" x="53.1045" y="-313.8" font-family="Helvetica,sans-Serif" font-size="11.00" fill="#000000">3,349 rows</text>
<polygon fill="#ffffff" stroke="transparent" points="109.5,-307.7 109.5,-326.7 130.5,-326.7 130.5,-307.7 109.5,-307.7"/>
<polygon fill="none" stroke="#000000" points="109.5,-307.7 109.5,-326.7 130.5,-326.7 130.5,-307.7 109.5,-307.7"/>
<text text-anchor="start" x="112.2027" y="-313.8" font-family="Helvetica,sans-Serif" font-size="11.00" fill="#000000">5 &gt;</text>
</a>
</g>
</g>
<!-- OFFICE_LOCATION&#45;&gt;DISTRICT -->
<g id="edge7" class="edge">
<title>OFFICE_LOCATION:w&#45;&gt;DISTRICT:e</title>
<path fill="none" stroke="#000000" d="M185.9738,-318.1909C165.5745,-322.67 157.1961,-335.7 130.5,-335.7"/>
<polygon fill="#000000" stroke="#000000" points="192.5418,-317.5168 200.8676,-320.2812 196.5209,-317.1084 200.5,-316.7 200.5,-316.7 200.5,-316.7 196.5209,-317.1084 200.1324,-313.1188 192.5418,-317.5168 192.5418,-317.5168"/>
<ellipse fill="none" stroke="#000000" cx="189.3585" cy="-317.8436" rx="3.2" ry="3.2"/>
</g>
<!-- CONTACT_REDEF -->
<g id="node4" class="node">
<title>CONTACT_REDEF</title>
<g id="a_node4"><a xlink:href="../../tables/CONTACT_REDEF.html" xlink:title="CONTACT_REDEF" target="_top">
<polygon fill="#ffffff" stroke="transparent" points="473.5,-445.2 473.5,-506.2 612.5,-506.2 612.5,-445.2 473.5,-445.2"/>
<polygon fill="#f5f5f5" stroke="transparent" points="474,-482.7 474,-505.7 613,-505.7 613,-482.7 474,-482.7"/>
<polygon fill="none" stroke="#000000" points="474,-482.7 474,-505.7 613,-505.7 613,-482.7 474,-482.7"/>
<text text-anchor="start" x="478.7282" y="-491.8" font-family="Helvetica,sans-Serif" font-weight="bold" font-size="11.00" fill="#000000">CONTACT_REDEF</text>
<text text-anchor="start" x="578.5219" y="-490.8" font-family="Helvetica,sans-Serif" font-size="11.00" fill="#000000">[table]</text>
<polygon fill="none" stroke="#000000" points="474,-463.7 474,-482.7 613,-482.7 613,-463.7 474,-463.7"/>
<text text-anchor="start" x="477" y="-469.8" font-family="Helvetica,sans-Serif" font-size="11.00" fill="#000000">...</text>
<polygon fill="#ffffff" stroke="transparent" points="474,-444.7 474,-463.7 507,-463.7 507,-444.7 474,-444.7"/>
<polygon fill="none" stroke="#000000" points="474,-444.7 474,-463.7 507,-463.7 507,-444.7 474,-444.7"/>
<text text-anchor="start" x="477" y="-450.8" font-family="Helvetica,sans-Serif" font-size="11.00" fill="#000000">&lt; 26</text>
<polygon fill="#ffffff" stroke="transparent" points="507,-444.7 507,-463.7 582,-463.7 582,-444.7 507,-444.7"/>
<polygon fill="none" stroke="#000000" points="507,-444.7 507,-463.7 582,-463.7 582,-444.7 507,-444.7"/>
<text text-anchor="start" x="512.9791" y="-450.8" font-family="Helvetica,sans-Serif" font-size="11.00" fill="#000000">165,869 rows</text>
<polygon fill="#ffffff" stroke="transparent" points="582,-444.7 582,-463.7 613,-463.7 613,-444.7 582,-444.7"/>
<polygon fill="none" stroke="#000000" points="582,-444.7 582,-463.7 613,-463.7 613,-444.7 582,-444.7"/>
<text text-anchor="start" x="588.2904" y="-450.8" font-family="Helvetica,sans-Serif" font-size="11.00" fill="#000000">14 &gt;</text>
</a>
</g>
</g>
<!-- CONTACT_REDEF&#45;&gt;OFFICE_LOCATION -->
<g id="edge3" class="edge">
<title>CONTACT_REDEF:w&#45;&gt;OFFICE_LOCATION:e</title>
<path fill="none" stroke="#000000" d="M459.5691,-471.7284C434.0462,-467.9261 424.3698,-453.1496 402,-430.7 376.6297,-405.2392 397.443,-360.7 361.5,-360.7"/>
<polygon fill="#000000" stroke="#000000" points="466.0181,-472.1626 473.7582,-476.2919 470.009,-472.4313 474,-472.7 474,-472.7 474,-472.7 470.009,-472.4313 474.2418,-469.1081 466.0181,-472.1626 466.0181,-472.1626"/>
<ellipse fill="none" stroke="#000000" cx="462.8253" cy="-471.9476" rx="3.2" ry="3.2"/>
</g>
<!-- CONTACT_REDEF&#45;&gt;PROBATION_AREA -->
<g id="edge4" class="edge">
<title>CONTACT_REDEF:w&#45;&gt;PROBATION_AREA:e</title>
<path fill="none" stroke="#000000" d="M459.5713,-472.7919C340.4964,-474.2768 280.8024,-492.125 192,-405.7 141.8983,-356.9396 221.4125,-253.7 151.5,-253.7"/>
<polygon fill="#000000" stroke="#000000" points="466.0002,-472.751 474.023,-476.2999 470.0001,-472.7255 474,-472.7 474,-472.7 474,-472.7 470.0001,-472.7255 473.977,-469.1001 466.0002,-472.751 466.0002,-472.751"/>
<ellipse fill="none" stroke="#000000" cx="462.8002" cy="-472.7714" rx="3.2" ry="3.2"/>
</g>
<!-- DRUGS_TEST -->
<g id="node5" class="node">
<title>DRUGS_TEST</title>
<g id="a_node5"><a xlink:href="../../tables/DRUGS_TEST.html" xlink:title="DRUGS_TEST" target="_top">
<polygon fill="#ffffff" stroke="transparent" points="485,-38.2 485,-99.2 601,-99.2 601,-38.2 485,-38.2"/>
<polygon fill="#f5f5f5" stroke="transparent" points="485,-75.7 485,-98.7 601,-98.7 601,-75.7 485,-75.7"/>
<polygon fill="none" stroke="#000000" points="485,-75.7 485,-98.7 601,-98.7 601,-75.7 485,-75.7"/>
<text text-anchor="start" x="489.529" y="-84.8" font-family="Helvetica,sans-Serif" font-weight="bold" font-size="11.00" fill="#000000">DRUGS_TEST</text>
<text text-anchor="start" x="566.5219" y="-83.8" font-family="Helvetica,sans-Serif" font-size="11.00" fill="#000000">[table]</text>
<polygon fill="none" stroke="#000000" points="485,-56.7 485,-75.7 601,-75.7 601,-56.7 485,-56.7"/>
<text text-anchor="start" x="488" y="-62.8" font-family="Helvetica,sans-Serif" font-size="11.00" fill="#000000">...</text>
<polygon fill="#ffffff" stroke="transparent" points="485,-37.7 485,-56.7 521,-56.7 521,-37.7 485,-37.7"/>
<polygon fill="none" stroke="#000000" points="485,-37.7 485,-56.7 521,-56.7 521,-37.7 485,-37.7"/>
<text text-anchor="start" x="488" y="-43.8" font-family="Helvetica,sans-Serif" font-size="11.00" fill="#000000">&lt; 12</text>
<polygon fill="#ffffff" stroke="transparent" points="521,-37.7 521,-56.7 575,-56.7 575,-37.7 521,-37.7"/>
<polygon fill="none" stroke="#000000" points="521,-37.7 521,-56.7 575,-56.7 575,-37.7 521,-37.7"/>
<text text-anchor="start" x="527.3807" y="-43.8" font-family="Helvetica,sans-Serif" font-size="11.00" fill="#000000">117 rows</text>
<polygon fill="#ffffff" stroke="transparent" points="575,-37.7 575,-56.7 601,-56.7 601,-37.7 575,-37.7"/>
<polygon fill="none" stroke="#000000" points="575,-37.7 575,-56.7 601,-56.7 601,-37.7 575,-37.7"/>
<text text-anchor="start" x="582.4053" y="-43.8" font-family="Helvetica,sans-Serif" font-size="11.00" fill="#000000">1 &gt;</text>
</a>
</g>
</g>
<!-- DRUGS_TEST&#45;&gt;OFFICE_LOCATION -->
<g id="edge5" class="edge">
<title>DRUGS_TEST:w&#45;&gt;OFFICE_LOCATION:e</title>
<path fill="none" stroke="#000000" d="M470.4436,-66.1985C438.8997,-68.588 423.2762,-80.002 402,-109.7 369.0957,-155.6289 417.9992,-360.7 361.5,-360.7"/>
<polygon fill="#000000" stroke="#000000" points="477.0047,-65.9739 485.1232,-69.2979 481.0023,-65.8369 485,-65.7 485,-65.7 485,-65.7 481.0023,-65.8369 484.8768,-62.1021 477.0047,-65.9739 477.0047,-65.9739"/>
<ellipse fill="none" stroke="#000000" cx="473.8066" cy="-66.0834" rx="3.2" ry="3.2"/>
</g>
<!-- DRUGS_TEST&#45;&gt;PROBATION_AREA -->
<g id="edge6" class="edge">
<title>DRUGS_TEST:w&#45;&gt;PROBATION_AREA:e</title>
<path fill="none" stroke="#000000" d="M470.247,-65.6716C345.317,-65.2284 288.2966,-60.8864 192,-148.7 155.0417,-182.4025 201.5178,-253.7 151.5,-253.7"/>
<polygon fill="#000000" stroke="#000000" points="477,-65.6846 484.9931,-69.3 481,-65.6923 485,-65.7 485,-65.7 485,-65.7 481,-65.6923 485.0069,-62.1 477,-65.6846 477,-65.6846"/>
<ellipse fill="none" stroke="#000000" cx="473.8" cy="-65.6784" rx="3.2" ry="3.2"/>
</g>
<!-- R_OFFICE_LOCATION_LINK -->
<g id="node7" class="node">
<title>R_OFFICE_LOCATION_LINK</title>
<g id="a_node7"><a xlink:href="../../tables/R_OFFICE_LOCATION_LINK.html" xlink:title="R_OFFICE_LOCATION_LINK" target="_top">
<polygon fill="#ffffff" stroke="transparent" points="410,-284.7 410,-396.7 676,-396.7 676,-284.7 410,-284.7"/>
<polygon fill="#f5f5f5" stroke="transparent" points="412,-371.7 412,-394.7 674,-394.7 674,-371.7 412,-371.7"/>
<polygon fill="none" stroke="#000000" points="412,-371.7 412,-394.7 674,-394.7 674,-371.7 412,-371.7"/>
<text text-anchor="start" x="417" y="-380.8" font-family="Helvetica,sans-Serif" font-weight="bold" font-size="11.00" fill="#000000">R_OFFICE_LOCATION_LINK</text>
<text text-anchor="start" x="639.0437" y="-379.8" font-family="Helvetica,sans-Serif" font-size="11.00" fill="#000000">[table]</text>
<polygon fill="none" stroke="#000000" points="412,-349.7 412,-371.7 613,-371.7 613,-349.7 412,-349.7"/>
<image xlink:href="../../images/primaryKeys.png" width="11px" height="12px" preserveAspectRatio="xMinYMin meet" x="417" y="-366.7"/>
<text text-anchor="start" x="425.5804" y="-356.8" font-family="Helvetica,sans-Serif" font-size="11.00" fill="#000000">LINK_FROM_OFFICE_LOCATION_ID</text>
<polygon fill="none" stroke="#000000" points="613,-349.7 613,-371.7 674,-371.7 674,-349.7 613,-349.7"/>
<text text-anchor="start" x="615.6865" y="-357.4" font-family="Helvetica,sans-Serif" font-size="11.00" fill="#000000">number[22]</text>
<polygon fill="none" stroke="#000000" points="412,-327.7 412,-349.7 613,-349.7 613,-327.7 412,-327.7"/>
<image xlink:href="../../images/primaryKeys.png" width="11px" height="12px" preserveAspectRatio="xMinYMin meet" x="417" y="-344.7"/>
<text text-anchor="start" x="432" y="-334.8" font-family="Helvetica,sans-Serif" font-size="11.00" fill="#000000">LINK_TO_OFFICE_LOCATION_ID</text>
<polygon fill="none" stroke="#000000" points="613,-327.7 613,-349.7 674,-349.7 674,-327.7 613,-327.7"/>
<text text-anchor="start" x="615.6865" y="-335.4" font-family="Helvetica,sans-Serif" font-size="11.00" fill="#000000">number[22]</text>
<polygon fill="none" stroke="#000000" points="412,-305.7 412,-327.7 613,-327.7 613,-305.7 412,-305.7"/>
<text text-anchor="start" x="432" y="-312.8" font-family="Helvetica,sans-Serif" font-size="11.00" fill="#000000">ROW_VERSION</text>
<polygon fill="none" stroke="#000000" points="613,-305.7 613,-327.7 674,-327.7 674,-305.7 613,-305.7"/>
<text text-anchor="start" x="615.6865" y="-313.4" font-family="Helvetica,sans-Serif" font-size="11.00" fill="#000000">number[22]</text>
<polygon fill="#ffffff" stroke="transparent" points="412,-286.7 412,-305.7 493,-305.7 493,-286.7 412,-286.7"/>
<polygon fill="none" stroke="#000000" points="412,-286.7 412,-305.7 493,-305.7 493,-286.7 412,-286.7"/>
<text text-anchor="start" x="415" y="-292.8" font-family="Helvetica,sans-Serif" font-size="11.00" fill="#000000">&lt; 2</text>
<polygon fill="#ffffff" stroke="transparent" points="493,-286.7 493,-305.7 613,-305.7 613,-286.7 493,-286.7"/>
<polygon fill="none" stroke="#000000" points="493,-286.7 493,-305.7 613,-305.7 613,-286.7 493,-286.7"/>
<text text-anchor="start" x="556.2089" y="-292.8" font-family="Helvetica,sans-Serif" font-size="11.00" fill="#000000">2,473 rows</text>
<polygon fill="#ffffff" stroke="transparent" points="613,-286.7 613,-305.7 674,-305.7 674,-286.7 613,-286.7"/>
<polygon fill="none" stroke="#000000" points="613,-286.7 613,-305.7 674,-305.7 674,-286.7 613,-286.7"/>
<text text-anchor="start" x="655.4053" y="-292.8" font-family="Helvetica,sans-Serif" font-size="11.00" fill="#000000">0 &gt;</text>
<polygon fill="none" stroke="#000000" stroke-width="2" points="411,-285.7 411,-395.7 675,-395.7 675,-285.7 411,-285.7"/>
</a>
</g>
</g>
<!-- R_OFFICE_LOCATION_LINK&#45;&gt;OFFICE_LOCATION -->
<g id="edge9" class="edge">
<title>R_OFFICE_LOCATION_LINK:w&#45;&gt;OFFICE_LOCATION:e</title>
<path fill="none" stroke="#000000" d="M397.4203,-360.7C385.5435,-360.7 378.158,-360.7 361.5,-360.7"/>
<polygon fill="#000000" stroke="#000000" points="404,-360.7001 412,-364.3 408,-360.7 412,-360.7 412,-360.7 412,-360.7 408,-360.7 412,-357.1 404,-360.7001 404,-360.7001"/>
<ellipse fill="none" stroke="#000000" cx="400.8" cy="-360.7001" rx="3.2" ry="3.2"/>
</g>
<!-- R_OFFICE_LOCATION_LINK&#45;&gt;OFFICE_LOCATION -->
<g id="edge10" class="edge">
<title>R_OFFICE_LOCATION_LINK:w&#45;&gt;OFFICE_LOCATION:e</title>
<path fill="none" stroke="#000000" d="M397.5981,-341.9462C385.4282,-348.0658 380.0526,-360.7 361.5,-360.7"/>
<polygon fill="#000000" stroke="#000000" points="404.1958,-340.4591 412.7916,-342.2119 408.0979,-339.5796 412,-338.7 412,-338.7 412,-338.7 408.0979,-339.5796 411.2084,-335.1881 404.1958,-340.4591 404.1958,-340.4591"/>
<ellipse fill="none" stroke="#000000" cx="401.0741" cy="-341.1627" rx="3.2" ry="3.2"/>
</g>
<!-- TEAM_OFFICE_LOCATION -->
<g id="node8" class="node">
<title>TEAM_OFFICE_LOCATION</title>
<g id="a_node8"><a xlink:href="../../tables/TEAM_OFFICE_LOCATION.html" xlink:title="TEAM_OFFICE_LOCATION" target="_top">
<polygon fill="#ffffff" stroke="transparent" points="452,-202.2 452,-263.2 634,-263.2 634,-202.2 452,-202.2"/>
<polygon fill="#f5f5f5" stroke="transparent" points="452,-239.7 452,-262.7 634,-262.7 634,-239.7 452,-239.7"/>
<polygon fill="none" stroke="#000000" points="452,-239.7 452,-262.7 634,-262.7 634,-239.7 452,-239.7"/>
<text text-anchor="start" x="456.8315" y="-248.8" font-family="Helvetica,sans-Serif" font-weight="bold" font-size="11.00" fill="#000000">TEAM_OFFICE_LOCATION</text>
<text text-anchor="start" x="599.5219" y="-247.8" font-family="Helvetica,sans-Serif" font-size="11.00" fill="#000000">[table]</text>
<polygon fill="none" stroke="#000000" points="452,-220.7 452,-239.7 634,-239.7 634,-220.7 452,-220.7"/>
<text text-anchor="start" x="455" y="-226.8" font-family="Helvetica,sans-Serif" font-size="11.00" fill="#000000">...</text>
<polygon fill="#ffffff" stroke="transparent" points="452,-201.7 452,-220.7 525,-220.7 525,-201.7 452,-201.7"/>
<polygon fill="none" stroke="#000000" points="452,-201.7 452,-220.7 525,-220.7 525,-201.7 452,-201.7"/>
<text text-anchor="start" x="455" y="-207.8" font-family="Helvetica,sans-Serif" font-size="11.00" fill="#000000">&lt; 2</text>
<polygon fill="#ffffff" stroke="transparent" points="525,-201.7 525,-220.7 595,-220.7 595,-201.7 525,-201.7"/>
<polygon fill="none" stroke="#000000" points="525,-201.7 525,-220.7 595,-220.7 595,-201.7 525,-201.7"/>
<text text-anchor="start" x="553.4956" y="-207.8" font-family="Helvetica,sans-Serif" font-size="11.00" fill="#000000">17 rows</text>
<polygon fill="#ffffff" stroke="transparent" points="595,-201.7 595,-220.7 634,-220.7 634,-201.7 595,-201.7"/>
<polygon fill="none" stroke="#000000" points="595,-201.7 595,-220.7 634,-220.7 634,-201.7 595,-201.7"/>
<text text-anchor="start" x="624.8862" y="-207.8" font-family="Helvetica,sans-Serif" font-size="11.00" fill="#000000"> &#160;</text>
</a>
</g>
</g>
<!-- TEAM_OFFICE_LOCATION&#45;&gt;OFFICE_LOCATION -->
<g id="edge11" class="edge">
<title>TEAM_OFFICE_LOCATION:w&#45;&gt;OFFICE_LOCATION:e</title>
<path fill="none" stroke="#000000" d="M437.322,-231.9694C420.6222,-238.0185 416.3488,-255.3898 402,-274.7 376.8015,-308.6113 403.7485,-360.7 361.5,-360.7"/>
<polygon fill="#000000" stroke="#000000" points="444.0939,-230.9224 452.5501,-233.2577 448.047,-230.3112 452,-229.7 452,-229.7 452,-229.7 448.047,-230.3112 451.4499,-226.1423 444.0939,-230.9224 444.0939,-230.9224"/>
<ellipse fill="none" stroke="#000000" cx="440.9315" cy="-231.4114" rx="3.2" ry="3.2"/>
</g>
<!-- UPW_ALLOCATION -->
<g id="node9" class="node">
<title>UPW_ALLOCATION</title>
<g id="a_node9"><a xlink:href="../../tables/UPW_ALLOCATION.html" xlink:title="UPW_ALLOCATION" target="_top">
<polygon fill="#ffffff" stroke="transparent" points="725,-390.2 725,-451.2 869,-451.2 869,-390.2 725,-390.2"/>
<polygon fill="#f5f5f5" stroke="transparent" points="725,-427.7 725,-450.7 869,-450.7 869,-427.7 725,-427.7"/>
<polygon fill="none" stroke="#000000" points="725,-427.7 725,-450.7 869,-450.7 869,-427.7 725,-427.7"/>
<text text-anchor="start" x="729.7757" y="-436.8" font-family="Helvetica,sans-Serif" font-weight="bold" font-size="11.00" fill="#000000">UPW_ALLOCATION</text>
<text text-anchor="start" x="834.5219" y="-435.8" font-family="Helvetica,sans-Serif" font-size="11.00" fill="#000000">[table]</text>
<polygon fill="none" stroke="#000000" points="725,-408.7 725,-427.7 869,-427.7 869,-408.7 725,-408.7"/>
<text text-anchor="start" x="728" y="-414.8" font-family="Helvetica,sans-Serif" font-size="11.00" fill="#000000">...</text>
<polygon fill="#ffffff" stroke="transparent" points="725,-389.7 725,-408.7 772,-408.7 772,-389.7 725,-389.7"/>
<polygon fill="none" stroke="#000000" points="725,-389.7 725,-408.7 772,-408.7 772,-389.7 725,-389.7"/>
<text text-anchor="start" x="728" y="-395.8" font-family="Helvetica,sans-Serif" font-size="11.00" fill="#000000">&lt; 7</text>
<polygon fill="#ffffff" stroke="transparent" points="772,-389.7 772,-408.7 835,-408.7 835,-389.7 772,-389.7"/>
<polygon fill="none" stroke="#000000" points="772,-389.7 772,-408.7 835,-408.7 835,-389.7 772,-389.7"/>
<text text-anchor="start" x="787.3807" y="-395.8" font-family="Helvetica,sans-Serif" font-size="11.00" fill="#000000">347 rows</text>
<polygon fill="#ffffff" stroke="transparent" points="835,-389.7 835,-408.7 869,-408.7 869,-389.7 835,-389.7"/>
<polygon fill="none" stroke="#000000" points="835,-389.7 835,-408.7 869,-408.7 869,-389.7 835,-389.7"/>
<text text-anchor="start" x="850.4053" y="-395.8" font-family="Helvetica,sans-Serif" font-size="11.00" fill="#000000">1 &gt;</text>
</a>
</g>
</g>
<!-- UPW_ALLOCATION&#45;&gt;OFFICE_LOCATION -->
<g id="edge12" class="edge">
<title>UPW_ALLOCATION:w&#45;&gt;OFFICE_LOCATION:e</title>
<path fill="none" stroke="#000000" d="M710.2503,-417.9275C630.3656,-420.1135 462.7601,-436.6952 402,-407.7 377.114,-395.8242 389.0744,-360.7 361.5,-360.7"/>
<polygon fill="#000000" stroke="#000000" points="717.001,-417.8234 725.0555,-421.2996 721.0005,-417.7617 725,-417.7 725,-417.7 725,-417.7 721.0005,-417.7617 724.9445,-414.1004 717.001,-417.8234 717.001,-417.8234"/>
<ellipse fill="none" stroke="#000000" cx="713.8013" cy="-417.8728" rx="3.2" ry="3.2"/>
</g>
<!-- UPW_PROJECT -->
<g id="node10" class="node">
<title>UPW_PROJECT</title>
<g id="a_node10"><a xlink:href="../../tables/UPW_PROJECT.html" xlink:title="UPW_PROJECT" target="_top">
<polygon fill="#ffffff" stroke="transparent" points="480,-120.2 480,-181.2 606,-181.2 606,-120.2 480,-120.2"/>
<polygon fill="#f5f5f5" stroke="transparent" points="480,-157.7 480,-180.7 606,-180.7 606,-157.7 480,-157.7"/>
<polygon fill="none" stroke="#000000" points="480,-157.7 480,-180.7 606,-180.7 606,-157.7 480,-157.7"/>
<text text-anchor="start" x="484.9475" y="-166.8" font-family="Helvetica,sans-Serif" font-weight="bold" font-size="11.00" fill="#000000">UPW_PROJECT</text>
<text text-anchor="start" x="571.5219" y="-165.8" font-family="Helvetica,sans-Serif" font-size="11.00" fill="#000000">[table]</text>
<polygon fill="none" stroke="#000000" points="480,-138.7 480,-157.7 606,-157.7 606,-138.7 480,-138.7"/>
<text text-anchor="start" x="483" y="-144.8" font-family="Helvetica,sans-Serif" font-size="11.00" fill="#000000">...</text>
<polygon fill="#ffffff" stroke="transparent" points="480,-119.7 480,-138.7 521,-138.7 521,-119.7 480,-119.7"/>
<polygon fill="none" stroke="#000000" points="480,-119.7 480,-138.7 521,-138.7 521,-119.7 480,-119.7"/>
<text text-anchor="start" x="483" y="-125.8" font-family="Helvetica,sans-Serif" font-size="11.00" fill="#000000">&lt; 18</text>
<polygon fill="#ffffff" stroke="transparent" points="521,-119.7 521,-138.7 578,-138.7 578,-119.7 521,-119.7"/>
<polygon fill="none" stroke="#000000" points="521,-119.7 521,-138.7 578,-138.7 578,-119.7 521,-119.7"/>
<text text-anchor="start" x="530.3807" y="-125.8" font-family="Helvetica,sans-Serif" font-size="11.00" fill="#000000">278 rows</text>
<polygon fill="#ffffff" stroke="transparent" points="578,-119.7 578,-138.7 606,-138.7 606,-119.7 578,-119.7"/>
<polygon fill="none" stroke="#000000" points="578,-119.7 578,-138.7 606,-138.7 606,-119.7 578,-119.7"/>
<text text-anchor="start" x="587.4053" y="-125.8" font-family="Helvetica,sans-Serif" font-size="11.00" fill="#000000">5 &gt;</text>
</a>
</g>
</g>
<!-- UPW_ALLOCATION&#45;&gt;UPW_PROJECT -->
<g id="edge13" class="edge">
<title>UPW_ALLOCATION:w&#45;&gt;UPW_PROJECT:e</title>
<path fill="none" stroke="#000000" d="M711.6882,-411.93C681.5474,-380.39 710.4671,-228.9049 684,-191.7 660.9279,-159.2674 645.802,-147.7 606,-147.7"/>
<polygon fill="#000000" stroke="#000000" points="717.6599,-414.5184 723.5683,-421.0031 721.3299,-416.1092 725,-417.7 725,-417.7 725,-417.7 721.3299,-416.1092 726.4317,-414.3969 717.6599,-414.5184 717.6599,-414.5184"/>
<ellipse fill="none" stroke="#000000" cx="714.7238" cy="-413.2457" rx="3.2" ry="3.2"/>
</g>
<!-- UPW_PROJECT&#45;&gt;OFFICE_LOCATION -->
<g id="edge19" class="edge">
<title>UPW_PROJECT:w&#45;&gt;OFFICE_LOCATION:e</title>
<path fill="none" stroke="#000000" d="M465.4118,-148.364C436.2462,-151.2916 422.7839,-164.1434 402,-191.7 355.4907,-253.365 438.7378,-360.7 361.5,-360.7"/>
<polygon fill="#000000" stroke="#000000" points="472.0083,-148.0638 480.1637,-151.2963 476.0041,-147.8819 480,-147.7 480,-147.7 480,-147.7 476.0041,-147.8819 479.8363,-144.1037 472.0083,-148.0638 472.0083,-148.0638"/>
<ellipse fill="none" stroke="#000000" cx="468.8116" cy="-148.2093" rx="3.2" ry="3.2"/>
</g>
<!-- UPW_PROJECT&#45;&gt;PROBATION_AREA -->
<g id="edge20" class="edge">
<title>UPW_PROJECT:w&#45;&gt;PROBATION_AREA:e</title>
<path fill="none" stroke="#000000" d="M465.3774,-147.7153C345.408,-147.9998 302.7179,-152.8933 192,-213.7 169.825,-225.8786 176.7992,-253.7 151.5,-253.7"/>
<polygon fill="#000000" stroke="#000000" points="472,-147.7084 480.0038,-151.3 476,-147.7042 480,-147.7 480,-147.7 480,-147.7 476,-147.7042 479.9962,-144.1 472,-147.7084 472,-147.7084"/>
<ellipse fill="none" stroke="#000000" cx="468.8" cy="-147.7118" rx="3.2" ry="3.2"/>
</g>
<!-- UPW_APPOINTMENT -->
<g id="node11" class="node">
<title>UPW_APPOINTMENT</title>
<g id="a_node11"><a xlink:href="../../tables/UPW_APPOINTMENT.html" xlink:title="UPW_APPOINTMENT" target="_top">
<polygon fill="#ffffff" stroke="transparent" points="918,-448.2 918,-509.2 1072,-509.2 1072,-448.2 918,-448.2"/>
<polygon fill="#f5f5f5" stroke="transparent" points="918,-485.7 918,-508.7 1072,-508.7 1072,-485.7 918,-485.7"/>
<polygon fill="none" stroke="#000000" points="918,-485.7 918,-508.7 1072,-508.7 1072,-485.7 918,-485.7"/>
<text text-anchor="start" x="922.8923" y="-494.8" font-family="Helvetica,sans-Serif" font-weight="bold" font-size="11.00" fill="#000000">UPW_APPOINTMENT</text>
<text text-anchor="start" x="1037.5219" y="-493.8" font-family="Helvetica,sans-Serif" font-size="11.00" fill="#000000">[table]</text>
<polygon fill="none" stroke="#000000" points="918,-466.7 918,-485.7 1072,-485.7 1072,-466.7 918,-466.7"/>
<text text-anchor="start" x="921" y="-472.8" font-family="Helvetica,sans-Serif" font-size="11.00" fill="#000000">...</text>
<polygon fill="#ffffff" stroke="transparent" points="918,-447.7 918,-466.7 968,-466.7 968,-447.7 918,-447.7"/>
<polygon fill="none" stroke="#000000" points="918,-447.7 918,-466.7 968,-466.7 968,-447.7 918,-447.7"/>
<text text-anchor="start" x="921" y="-453.8" font-family="Helvetica,sans-Serif" font-size="11.00" fill="#000000">&lt; 17</text>
<polygon fill="#ffffff" stroke="transparent" points="968,-447.7 968,-466.7 1039,-466.7 1039,-447.7 968,-447.7"/>
<polygon fill="none" stroke="#000000" points="968,-447.7 968,-466.7 1039,-466.7 1039,-447.7 968,-447.7"/>
<text text-anchor="start" x="982.2089" y="-453.8" font-family="Helvetica,sans-Serif" font-size="11.00" fill="#000000">8,642 rows</text>
<polygon fill="#ffffff" stroke="transparent" points="1039,-447.7 1039,-466.7 1072,-466.7 1072,-447.7 1039,-447.7"/>
<polygon fill="none" stroke="#000000" points="1039,-447.7 1039,-466.7 1072,-466.7 1072,-447.7 1039,-447.7"/>
<text text-anchor="start" x="1053.4053" y="-453.8" font-family="Helvetica,sans-Serif" font-size="11.00" fill="#000000">1 &gt;</text>
</a>
</g>
</g>
<!-- UPW_APPOINTMENT&#45;&gt;CONTACT -->
<g id="edge14" class="edge">
<title>UPW_APPOINTMENT:w&#45;&gt;CONTACT:e</title>
<path fill="none" stroke="#000000" d="M903.7203,-479.2601C873.6379,-497.8262 908.1763,-582.7 860,-582.7"/>
<polygon fill="#000000" stroke="#000000" points="910.2376,-477.6353 918.8709,-479.1931 914.1188,-476.6676 918,-475.7 918,-475.7 918,-475.7 914.1188,-476.6676 917.1291,-472.2069 910.2376,-477.6353 910.2376,-477.6353"/>
<ellipse fill="none" stroke="#000000" cx="907.1326" cy="-478.4094" rx="3.2" ry="3.2"/>
</g>
<!-- UPW_APPOINTMENT&#45;&gt;OFFICE_LOCATION -->
<g id="edge16" class="edge">
<title>UPW_APPOINTMENT:w&#45;&gt;OFFICE_LOCATION:e</title>
<path fill="none" stroke="#000000" d="M903.3672,-476.9934C895.1794,-478.6149 889.2701,-481.4542 877,-483.7 791.3993,-499.3673 770.7109,-509.3403 684,-516.7 621.5578,-521.9999 451.5678,-555.0424 402,-516.7 345.341,-472.8723 433.1318,-360.7 361.5,-360.7"/>
<polygon fill="#000000" stroke="#000000" points="910.0311,-476.4044 918.317,-479.286 914.0155,-476.0522 918,-475.7 918,-475.7 918,-475.7 914.0155,-476.0522 917.683,-472.114 910.0311,-476.4044 910.0311,-476.4044"/>
<ellipse fill="none" stroke="#000000" cx="906.8435" cy="-476.6862" rx="3.2" ry="3.2"/>
</g>
<!-- UPW_APPOINTMENT&#45;&gt;CONTACT_REDEF -->
<g id="edge15" class="edge">
<title>UPW_APPOINTMENT:w&#45;&gt;CONTACT_REDEF:e</title>
<path fill="none" stroke="#000000" d="M903.3178,-475.6879C779.7836,-475.4815 743.5315,-472.7 613,-472.7"/>
<polygon fill="#000000" stroke="#000000" points="910,-475.6934 917.997,-479.3 914,-475.6967 918,-475.7 918,-475.7 918,-475.7 914,-475.6967 918.003,-472.1 910,-475.6934 910,-475.6934"/>
<ellipse fill="none" stroke="#000000" cx="906.8" cy="-475.6907" rx="3.2" ry="3.2"/>
</g>
<!-- UPW_APPOINTMENT&#45;&gt;UPW_ALLOCATION -->
<g id="edge17" class="edge">
<title>UPW_APPOINTMENT:w&#45;&gt;UPW_ALLOCATION:e</title>
<path fill="none" stroke="#000000" d="M904.2627,-470.755C889.2131,-456.7289 896.6819,-417.7 869,-417.7"/>
<polygon fill="#000000" stroke="#000000" points="910.4728,-472.9904 916.7807,-479.0872 914.2364,-474.3452 918,-475.7 918,-475.7 918,-475.7 914.2364,-474.3452 919.2193,-472.3128 910.4728,-472.9904 910.4728,-472.9904"/>
<ellipse fill="none" stroke="#000000" cx="907.462" cy="-471.9066" rx="3.2" ry="3.2"/>
</g>
<!-- UPW_APPOINTMENT&#45;&gt;UPW_PROJECT -->
<g id="edge18" class="edge">
<title>UPW_APPOINTMENT:w&#45;&gt;UPW_PROJECT:e</title>
<path fill="none" stroke="#000000" d="M903.6568,-472.9872C878.7987,-461.1383 899.8556,-413.0308 877,-379.7 787.3338,-248.9378 764.5521,-147.7 606,-147.7"/>
<polygon fill="#000000" stroke="#000000" points="910.1394,-474.2132 917.3309,-479.2373 914.0697,-474.9566 918,-475.7 918,-475.7 918,-475.7 914.0697,-474.9566 918.6691,-472.1627 910.1394,-474.2132 910.1394,-474.2132"/>
<ellipse fill="none" stroke="#000000" cx="906.9951" cy="-473.6185" rx="3.2" ry="3.2"/>
</g>
</g>
</svg>
