<?xml version="1.0" encoding="UTF-8" standalone="no"?>
<!DOCTYPE svg PUBLIC "-//W3C//DTD SVG 1.1//EN"
 "http://www.w3.org/Graphics/SVG/1.1/DTD/svg11.dtd">
<!-- Generated by graphviz version 2.40.1 (20161225.0304)
 -->
<!-- Title: oneDegreeRelationshipsDiagram Pages: 1 -->
<svg width="826pt" height="296pt"
 viewBox="0.00 0.00 826.00 295.70" xmlns="http://www.w3.org/2000/svg" xmlns:xlink="http://www.w3.org/1999/xlink">
<g id="graph0" class="graph" transform="scale(1 1) rotate(0) translate(4 291.7)">
<title>oneDegreeRelationshipsDiagram</title>
<polygon fill="#ffffff" stroke="transparent" points="-4,4 -4,-291.7 822,-291.7 822,4 -4,4"/>
<text text-anchor="middle" x="72.4936" y="-7.3" font-family="Helvetica,sans-Serif" font-size="11.00" fill="#000000">Generated by SchemaSpy</text>
<!-- R_LIC_COND_TYPE_MAIN_CAT -->
<g id="node1" class="node">
<title>R_LIC_COND_TYPE_MAIN_CAT</title>
<g id="a_node1"><a xlink:href="../../tables/R_LIC_COND_TYPE_MAIN_CAT.html" xlink:title="R_LIC_COND_TYPE_MAIN_CAT" target="_top">
<polygon fill="#ffffff" stroke="transparent" points="277,-38.2 277,-187.2 486,-187.2 486,-38.2 277,-38.2"/>
<polygon fill="#f5f5f5" stroke="transparent" points="277.5,-163.7 277.5,-186.7 486.5,-186.7 486.5,-163.7 277.5,-163.7"/>
<polygon fill="none" stroke="#000000" points="277.5,-163.7 277.5,-186.7 486.5,-186.7 486.5,-163.7 277.5,-163.7"/>
<text text-anchor="start" x="282.3862" y="-172.8" font-family="Helvetica,sans-Serif" font-weight="bold" font-size="11.00" fill="#000000">R_LIC_COND_TYPE_MAIN_CAT</text>
<text text-anchor="start" x="452.0219" y="-171.8" font-family="Helvetica,sans-Serif" font-size="11.00" fill="#000000">[table]</text>
<polygon fill="none" stroke="#000000" points="277.5,-141.7 277.5,-163.7 486.5,-163.7 486.5,-141.7 277.5,-141.7"/>
<image xlink:href="../../images/primaryKeys.png" width="11px" height="12px" preserveAspectRatio="xMinYMin meet" x="282.5" y="-158.7"/>
<text text-anchor="start" x="304.8578" y="-148.8" font-family="Helvetica,sans-Serif" font-size="11.00" fill="#000000">LIC_COND_TYPE_MAIN_CAT_ID</text>
<polygon fill="none" stroke="#000000" points="277.5,-119.7 277.5,-141.7 486.5,-141.7 486.5,-119.7 277.5,-119.7"/>
<image xlink:href="../../images/primaryKeys.png" width="11px" height="12px" preserveAspectRatio="xMinYMin meet" x="282.5" y="-136.7"/>
<text text-anchor="start" x="310.5" y="-126.8" font-family="Helvetica,sans-Serif" font-size="11.00" fill="#000000">CODE</text>
<polygon fill="none" stroke="#000000" points="277.5,-97.7 277.5,-119.7 486.5,-119.7 486.5,-97.7 277.5,-97.7"/>
<image xlink:href="../../images/primaryKeys.png" width="11px" height="12px" preserveAspectRatio="xMinYMin meet" x="282.5" y="-114.7"/>
<text text-anchor="start" x="310.5" y="-104.8" font-family="Helvetica,sans-Serif" font-size="11.00" fill="#000000">UNITS_ID</text>
<polygon fill="none" stroke="#000000" points="277.5,-75.7 277.5,-97.7 486.5,-97.7 486.5,-75.7 277.5,-75.7"/>
<image xlink:href="../../images/primaryKeys.png" width="11px" height="12px" preserveAspectRatio="xMinYMin meet" x="282.5" y="-92.7"/>
<text text-anchor="start" x="310.5" y="-82.8" font-family="Helvetica,sans-Serif" font-size="11.00" fill="#000000">TRAINING_SESSION_ID</text>
<polygon fill="none" stroke="#000000" points="277.5,-56.7 277.5,-75.7 486.5,-75.7 486.5,-56.7 277.5,-56.7"/>
<text text-anchor="start" x="280.5" y="-62.8" font-family="Helvetica,sans-Serif" font-size="11.00" fill="#000000">...</text>
<polygon fill="#ffffff" stroke="transparent" points="277.5,-37.7 277.5,-56.7 356.5,-56.7 356.5,-37.7 277.5,-37.7"/>
<polygon fill="none" stroke="#000000" points="277.5,-37.7 277.5,-56.7 356.5,-56.7 356.5,-37.7 277.5,-37.7"/>
<text text-anchor="start" x="280.5" y="-43.8" font-family="Helvetica,sans-Serif" font-size="11.00" fill="#000000">&lt; 1</text>
<polygon fill="#ffffff" stroke="transparent" points="356.5,-37.7 356.5,-56.7 435.5,-56.7 435.5,-37.7 356.5,-37.7"/>
<polygon fill="none" stroke="#000000" points="356.5,-37.7 356.5,-56.7 435.5,-56.7 435.5,-37.7 356.5,-37.7"/>
<text text-anchor="start" x="387.8807" y="-43.8" font-family="Helvetica,sans-Serif" font-size="11.00" fill="#000000">550 rows</text>
<polygon fill="#ffffff" stroke="transparent" points="435.5,-37.7 435.5,-56.7 486.5,-56.7 486.5,-37.7 435.5,-37.7"/>
<polygon fill="none" stroke="#000000" points="435.5,-37.7 435.5,-56.7 486.5,-56.7 486.5,-37.7 435.5,-37.7"/>
<text text-anchor="start" x="467.9053" y="-43.8" font-family="Helvetica,sans-Serif" font-size="11.00" fill="#000000">8 &gt;</text>
</a>
</g>
</g>
<!-- R_STANDARD_REFERENCE_LIST -->
<g id="node2" class="node">
<title>R_STANDARD_REFERENCE_LIST</title>
<g id="a_node2"><a xlink:href="../../tables/R_STANDARD_REFERENCE_LIST.html" xlink:title="R_STANDARD_REFERENCE_LIST" target="_top">
<polygon fill="#ffffff" stroke="transparent" points="8,-45.2 8,-194.2 228,-194.2 228,-45.2 8,-45.2"/>
<polygon fill="#f5f5f5" stroke="transparent" points="8,-170.7 8,-193.7 228,-193.7 228,-170.7 8,-170.7"/>
<polygon fill="none" stroke="#000000" points="8,-170.7 8,-193.7 228,-193.7 228,-170.7 8,-170.7"/>
<text text-anchor="start" x="12.5842" y="-179.8" font-family="Helvetica,sans-Serif" font-weight="bold" font-size="11.00" fill="#000000">R_STANDARD_REFERENCE_LIST</text>
<text text-anchor="start" x="193.5219" y="-178.8" font-family="Helvetica,sans-Serif" font-size="11.00" fill="#000000">[table]</text>
<polygon fill="none" stroke="#000000" points="8,-148.7 8,-170.7 228,-170.7 228,-148.7 8,-148.7"/>
<image xlink:href="../../images/primaryKeys.png" width="11px" height="12px" preserveAspectRatio="xMinYMin meet" x="13" y="-165.7"/>
<text text-anchor="start" x="35.5558" y="-155.8" font-family="Helvetica,sans-Serif" font-size="11.00" fill="#000000">STANDARD_REFERENCE_LIST_ID</text>
<polygon fill="none" stroke="#000000" points="8,-126.7 8,-148.7 228,-148.7 228,-126.7 8,-126.7"/>
<image xlink:href="../../images/primaryKeys.png" width="11px" height="12px" preserveAspectRatio="xMinYMin meet" x="13" y="-143.7"/>
<text text-anchor="start" x="42" y="-133.8" font-family="Helvetica,sans-Serif" font-size="11.00" fill="#000000">CODE_VALUE</text>
<polygon fill="none" stroke="#000000" points="8,-104.7 8,-126.7 228,-126.7 228,-104.7 8,-104.7"/>
<image xlink:href="../../images/primaryKeys.png" width="11px" height="12px" preserveAspectRatio="xMinYMin meet" x="13" y="-121.7"/>
<text text-anchor="start" x="39.8337" y="-111.8" font-family="Helvetica,sans-Serif" font-size="11.00" fill="#000000">REFERENCE_DATA_MASTER_ID</text>
<polygon fill="none" stroke="#000000" points="8,-82.7 8,-104.7 228,-104.7 228,-82.7 8,-82.7"/>
<image xlink:href="../../images/primaryKeys.png" width="11px" height="12px" preserveAspectRatio="xMinYMin meet" x="13" y="-99.7"/>
<text text-anchor="start" x="42" y="-89.8" font-family="Helvetica,sans-Serif" font-size="11.00" fill="#000000">TRAINING_SESSION_ID</text>
<polygon fill="none" stroke="#000000" points="8,-63.7 8,-82.7 228,-82.7 228,-63.7 8,-63.7"/>
<text text-anchor="start" x="11" y="-69.8" font-family="Helvetica,sans-Serif" font-size="11.00" fill="#000000">...</text>
<polygon fill="#ffffff" stroke="transparent" points="8,-44.7 8,-63.7 79,-63.7 79,-44.7 8,-44.7"/>
<polygon fill="none" stroke="#000000" points="8,-44.7 8,-63.7 79,-63.7 79,-44.7 8,-44.7"/>
<text text-anchor="start" x="11" y="-50.8" font-family="Helvetica,sans-Serif" font-size="11.00" fill="#000000">&lt; 1</text>
<polygon fill="#ffffff" stroke="transparent" points="79,-44.7 79,-63.7 169,-63.7 169,-44.7 79,-44.7"/>
<polygon fill="none" stroke="#000000" points="79,-44.7 79,-63.7 169,-63.7 169,-44.7 79,-44.7"/>
<text text-anchor="start" x="106.094" y="-50.8" font-family="Helvetica,sans-Serif" font-size="11.00" fill="#000000">15,391 rows</text>
<polygon fill="#ffffff" stroke="transparent" points="169,-44.7 169,-63.7 228,-63.7 228,-44.7 169,-44.7"/>
<polygon fill="none" stroke="#000000" points="169,-44.7 169,-63.7 228,-63.7 228,-44.7 169,-44.7"/>
<text text-anchor="start" x="197.1755" y="-50.8" font-family="Helvetica,sans-Serif" font-size="11.00" fill="#000000">287 &gt;</text>
</a>
</g>
</g>
<!-- R_LIC_COND_TYPE_MAIN_CAT&#45;&gt;R_STANDARD_REFERENCE_LIST -->
<g id="edge1" class="edge">
<title>R_LIC_COND_TYPE_MAIN_CAT:w&#45;&gt;R_STANDARD_REFERENCE_LIST:e</title>
<path fill="none" stroke="#000000" d="M263.4971,-113.7765C249.5276,-126.6764 253.4182,-159.7 228,-159.7"/>
<polygon fill="#000000" stroke="#000000" points="269.979,-111.4267 278.727,-112.0845 273.7395,-110.0633 277.5,-108.7 277.5,-108.7 277.5,-108.7 273.7395,-110.0633 276.273,-105.3155 269.979,-111.4267 269.979,-111.4267"/>
<ellipse fill="none" stroke="#000000" cx="266.9706" cy="-112.5173" rx="3.2" ry="3.2"/>
</g>
<!-- R_POST_CJA_LIC_CONDITION_TYPE -->
<g id="node3" class="node">
<title>R_POST_CJA_LIC_CONDITION_TYPE</title>
<g id="a_node3"><a xlink:href="../../tables/R_POST_CJA_LIC_CONDITION_TYPE.html" xlink:title="R_POST_CJA_LIC_CONDITION_TYPE" target="_top">
<polygon fill="#ffffff" stroke="transparent" points="535,-127.7 535,-283.7 810,-283.7 810,-127.7 535,-127.7"/>
<polygon fill="#f5f5f5" stroke="transparent" points="537.5,-258.7 537.5,-281.7 808.5,-281.7 808.5,-258.7 537.5,-258.7"/>
<polygon fill="none" stroke="#000000" points="537.5,-258.7 537.5,-281.7 808.5,-281.7 808.5,-258.7 537.5,-258.7"/>
<text text-anchor="start" x="542.5" y="-267.8" font-family="Helvetica,sans-Serif" font-weight="bold" font-size="11.00" fill="#000000">R_POST_CJA_LIC_CONDITION_TYPE</text>
<text text-anchor="start" x="773.5437" y="-266.8" font-family="Helvetica,sans-Serif" font-size="11.00" fill="#000000">[table]</text>
<polygon fill="none" stroke="#000000" points="537.5,-236.7 537.5,-258.7 747.5,-258.7 747.5,-236.7 537.5,-236.7"/>
<image xlink:href="../../images/primaryKeys.png" width="11px" height="12px" preserveAspectRatio="xMinYMin meet" x="542.5" y="-253.7"/>
<text text-anchor="start" x="550.0755" y="-243.8" font-family="Helvetica,sans-Serif" font-size="11.00" fill="#000000">POST_CJA_LIC_CONDITION_TYPE_ID</text>
<polygon fill="none" stroke="#000000" points="747.5,-236.7 747.5,-258.7 808.5,-258.7 808.5,-236.7 747.5,-236.7"/>
<text text-anchor="start" x="750.1865" y="-244.4" font-family="Helvetica,sans-Serif" font-size="11.00" fill="#000000">number[38]</text>
<polygon fill="none" stroke="#000000" points="537.5,-214.7 537.5,-236.7 747.5,-236.7 747.5,-214.7 537.5,-214.7"/>
<text text-anchor="start" x="557.5" y="-221.8" font-family="Helvetica,sans-Serif" font-size="11.00" fill="#000000">ROW_VERSION</text>
<polygon fill="none" stroke="#000000" points="747.5,-214.7 747.5,-236.7 808.5,-236.7 808.5,-214.7 747.5,-214.7"/>
<text text-anchor="start" x="750.1865" y="-222.4" font-family="Helvetica,sans-Serif" font-size="11.00" fill="#000000">number[38]</text>
<polygon fill="none" stroke="#000000" points="537.5,-192.7 537.5,-214.7 747.5,-214.7 747.5,-192.7 537.5,-192.7"/>
<image xlink:href="../../images/primaryKeys.png" width="11px" height="12px" preserveAspectRatio="xMinYMin meet" x="542.5" y="-209.7"/>
<text text-anchor="start" x="557.5" y="-199.8" font-family="Helvetica,sans-Serif" font-size="11.00" fill="#000000">LIC_COND_TYPE_SUB_CAT_ID</text>
<polygon fill="none" stroke="#000000" points="747.5,-192.7 747.5,-214.7 808.5,-214.7 808.5,-192.7 747.5,-192.7"/>
<text text-anchor="start" x="750.1865" y="-200.4" font-family="Helvetica,sans-Serif" font-size="11.00" fill="#000000">number[38]</text>
<polygon fill="none" stroke="#000000" points="537.5,-170.7 537.5,-192.7 747.5,-192.7 747.5,-170.7 537.5,-170.7"/>
<image xlink:href="../../images/primaryKeys.png" width="11px" height="12px" preserveAspectRatio="xMinYMin meet" x="542.5" y="-187.7"/>
<text text-anchor="start" x="557.5" y="-177.8" font-family="Helvetica,sans-Serif" font-size="11.00" fill="#000000">TRAINING_SESSION_ID</text>
<polygon fill="none" stroke="#000000" points="747.5,-170.7 747.5,-192.7 808.5,-192.7 808.5,-170.7 747.5,-170.7"/>
<text text-anchor="start" x="750.1865" y="-178.4" font-family="Helvetica,sans-Serif" font-size="11.00" fill="#000000">number[38]</text>
<polygon fill="none" stroke="#000000" points="537.5,-148.7 537.5,-170.7 747.5,-170.7 747.5,-148.7 537.5,-148.7"/>
<image xlink:href="../../images/primaryKeys.png" width="11px" height="12px" preserveAspectRatio="xMinYMin meet" x="542.5" y="-165.7"/>
<text text-anchor="start" x="557.5" y="-155.8" font-family="Helvetica,sans-Serif" font-size="11.00" fill="#000000">LIC_COND_TYPE_MAIN_CAT_ID</text>
<polygon fill="none" stroke="#000000" points="747.5,-148.7 747.5,-170.7 808.5,-170.7 808.5,-148.7 747.5,-148.7"/>
<text text-anchor="start" x="750.1865" y="-156.4" font-family="Helvetica,sans-Serif" font-size="11.00" fill="#000000">number[38]</text>
<polygon fill="#ffffff" stroke="transparent" points="537.5,-129.7 537.5,-148.7 627.5,-148.7 627.5,-129.7 537.5,-129.7"/>
<polygon fill="none" stroke="#000000" points="537.5,-129.7 537.5,-148.7 627.5,-148.7 627.5,-129.7 537.5,-129.7"/>
<text text-anchor="start" x="540.5" y="-135.8" font-family="Helvetica,sans-Serif" font-size="11.00" fill="#000000">&lt; 2</text>
<polygon fill="#ffffff" stroke="transparent" points="627.5,-129.7 627.5,-148.7 747.5,-148.7 747.5,-129.7 627.5,-129.7"/>
<polygon fill="none" stroke="#000000" points="627.5,-129.7 627.5,-148.7 747.5,-148.7 747.5,-129.7 627.5,-129.7"/>
<text text-anchor="start" x="699.8807" y="-135.8" font-family="Helvetica,sans-Serif" font-size="11.00" fill="#000000">352 rows</text>
<polygon fill="#ffffff" stroke="transparent" points="747.5,-129.7 747.5,-148.7 808.5,-148.7 808.5,-129.7 747.5,-129.7"/>
<polygon fill="none" stroke="#000000" points="747.5,-129.7 747.5,-148.7 808.5,-148.7 808.5,-129.7 747.5,-129.7"/>
<text text-anchor="start" x="789.9053" y="-135.8" font-family="Helvetica,sans-Serif" font-size="11.00" fill="#000000">0 &gt;</text>
<polygon fill="none" stroke="#000000" stroke-width="2" points="536,-128.7 536,-282.7 809,-282.7 809,-128.7 536,-128.7"/>
</a>
</g>
</g>
<!-- R_POST_CJA_LIC_CONDITION_TYPE&#45;&gt;R_LIC_COND_TYPE_MAIN_CAT -->
<g id="edge2" class="edge">
<title>R_POST_CJA_LIC_CONDITION_TYPE:w&#45;&gt;R_LIC_COND_TYPE_MAIN_CAT:e</title>
<path fill="none" stroke="#000000" d="M523.0965,-158.6063C510.8977,-156.6375 503.6594,-152.7 486.5,-152.7"/>
<polygon fill="#000000" stroke="#000000" points="529.523,-159.0942 537.2274,-163.2897 533.5115,-159.3971 537.5,-159.7 537.5,-159.7 537.5,-159.7 533.5115,-159.3971 537.7726,-156.1103 529.523,-159.0942 529.523,-159.0942"/>
<ellipse fill="none" stroke="#000000" cx="526.3322" cy="-158.8519" rx="3.2" ry="3.2"/>
</g>
<!-- R_POST_CJA_LIC_CONDITION_TYPE&#45;&gt;R_STANDARD_REFERENCE_LIST -->
<g id="edge3" class="edge">
<title>R_POST_CJA_LIC_CONDITION_TYPE:w&#45;&gt;R_STANDARD_REFERENCE_LIST:e</title>
<path fill="none" stroke="#000000" d="M522.8795,-203.8963C414.7758,-206.8125 374.9848,-240.6341 269,-197.7 245.9725,-188.3716 252.8452,-159.7 228,-159.7"/>
<polygon fill="#000000" stroke="#000000" points="529.5007,-203.8074 537.5483,-207.2997 533.5004,-203.7537 537.5,-203.7 537.5,-203.7 537.5,-203.7 533.5004,-203.7537 537.4517,-200.1003 529.5007,-203.8074 529.5007,-203.8074"/>
<ellipse fill="none" stroke="#000000" cx="526.301" cy="-203.8504" rx="3.2" ry="3.2"/>
</g>
</g>
</svg>
