<?xml version="1.0" encoding="UTF-8" standalone="no"?>
<!DOCTYPE svg PUBLIC "-//W3C//DTD SVG 1.1//EN"
 "http://www.w3.org/Graphics/SVG/1.1/DTD/svg11.dtd">
<!-- Generated by graphviz version 2.40.1 (20161225.0304)
 -->
<!-- Title: oneDegreeRelationshipsDiagram Pages: 1 -->
<svg width="545pt" height="212pt"
 viewBox="0.00 0.00 545.00 211.70" xmlns="http://www.w3.org/2000/svg" xmlns:xlink="http://www.w3.org/1999/xlink">
<g id="graph0" class="graph" transform="scale(1 1) rotate(0) translate(4 207.7)">
<title>oneDegreeRelationshipsDiagram</title>
<polygon fill="#ffffff" stroke="transparent" points="-4,4 -4,-207.7 541,-207.7 541,4 -4,4"/>
<text text-anchor="middle" x="72.4936" y="-7.3" font-family="Helvetica,sans-Serif" font-size="11.00" fill="#000000">Generated by SchemaSpy</text>
<!-- R_PROVISION_CATEGORY_TYPE -->
<g id="node1" class="node">
<title>R_PROVISION_CATEGORY_TYPE</title>
<g id="a_node1"><a xlink:href="../../tables/R_PROVISION_CATEGORY_TYPE.html" xlink:title="R_PROVISION_CATEGORY_TYPE" target="_top">
<polygon fill="#ffffff" stroke="transparent" points="277,-87.7 277,-199.7 529,-199.7 529,-87.7 277,-87.7"/>
<polygon fill="#f5f5f5" stroke="transparent" points="279,-174.7 279,-197.7 527,-197.7 527,-174.7 279,-174.7"/>
<polygon fill="none" stroke="#000000" points="279,-174.7 279,-197.7 527,-197.7 527,-174.7 279,-174.7"/>
<text text-anchor="start" x="284" y="-183.8" font-family="Helvetica,sans-Serif" font-weight="bold" font-size="11.00" fill="#000000">R_PROVISION_CATEGORY_TYPE</text>
<text text-anchor="start" x="492.0437" y="-182.8" font-family="Helvetica,sans-Serif" font-size="11.00" fill="#000000">[table]</text>
<polygon fill="none" stroke="#000000" points="279,-152.7 279,-174.7 466,-174.7 466,-152.7 279,-152.7"/>
<image xlink:href="../../images/primaryKeys.png" width="11px" height="12px" preserveAspectRatio="xMinYMin meet" x="284" y="-169.7"/>
<text text-anchor="start" x="299" y="-159.8" font-family="Helvetica,sans-Serif" font-size="11.00" fill="#000000">PROVISION_CATEGORY_ID</text>
<polygon fill="none" stroke="#000000" points="466,-152.7 466,-174.7 527,-174.7 527,-152.7 466,-152.7"/>
<text text-anchor="start" x="468.6865" y="-160.4" font-family="Helvetica,sans-Serif" font-size="11.00" fill="#000000">number[38]</text>
<polygon fill="none" stroke="#000000" points="279,-130.7 279,-152.7 466,-152.7 466,-130.7 279,-130.7"/>
<image xlink:href="../../images/primaryKeys.png" width="11px" height="12px" preserveAspectRatio="xMinYMin meet" x="284" y="-147.7"/>
<text text-anchor="start" x="299" y="-137.8" font-family="Helvetica,sans-Serif" font-size="11.00" fill="#000000">PROVISION_TYPE_ID</text>
<polygon fill="none" stroke="#000000" points="466,-130.7 466,-152.7 527,-152.7 527,-130.7 466,-130.7"/>
<text text-anchor="start" x="468.6865" y="-138.4" font-family="Helvetica,sans-Serif" font-size="11.00" fill="#000000">number[38]</text>
<polygon fill="none" stroke="#000000" points="279,-108.7 279,-130.7 466,-130.7 466,-108.7 279,-108.7"/>
<text text-anchor="start" x="299" y="-115.8" font-family="Helvetica,sans-Serif" font-size="11.00" fill="#000000">ROW_VERSION</text>
<polygon fill="none" stroke="#000000" points="466,-108.7 466,-130.7 527,-130.7 527,-108.7 466,-108.7"/>
<text text-anchor="start" x="468.6865" y="-116.4" font-family="Helvetica,sans-Serif" font-size="11.00" fill="#000000">number[38]</text>
<polygon fill="#ffffff" stroke="transparent" points="279,-89.7 279,-108.7 364,-108.7 364,-89.7 279,-89.7"/>
<polygon fill="none" stroke="#000000" points="279,-89.7 279,-108.7 364,-108.7 364,-89.7 279,-89.7"/>
<text text-anchor="start" x="282" y="-95.8" font-family="Helvetica,sans-Serif" font-size="11.00" fill="#000000">&lt; 2</text>
<polygon fill="#ffffff" stroke="transparent" points="364,-89.7 364,-108.7 466,-108.7 466,-89.7 364,-89.7"/>
<polygon fill="none" stroke="#000000" points="364,-89.7 364,-108.7 466,-108.7 466,-89.7 364,-89.7"/>
<text text-anchor="start" x="430.6105" y="-95.8" font-family="Helvetica,sans-Serif" font-size="11.00" fill="#000000">0 rows</text>
<polygon fill="#ffffff" stroke="transparent" points="466,-89.7 466,-108.7 527,-108.7 527,-89.7 466,-89.7"/>
<polygon fill="none" stroke="#000000" points="466,-89.7 466,-108.7 527,-108.7 527,-89.7 466,-89.7"/>
<text text-anchor="start" x="508.4053" y="-95.8" font-family="Helvetica,sans-Serif" font-size="11.00" fill="#000000">0 &gt;</text>
<polygon fill="none" stroke="#000000" stroke-width="2" points="278,-88.7 278,-198.7 528,-198.7 528,-88.7 278,-88.7"/>
</a>
</g>
</g>
<!-- R_STANDARD_REFERENCE_LIST -->
<g id="node2" class="node">
<title>R_STANDARD_REFERENCE_LIST</title>
<g id="a_node2"><a xlink:href="../../tables/R_STANDARD_REFERENCE_LIST.html" xlink:title="R_STANDARD_REFERENCE_LIST" target="_top">
<polygon fill="#ffffff" stroke="transparent" points="8,-38.2 8,-187.2 228,-187.2 228,-38.2 8,-38.2"/>
<polygon fill="#f5f5f5" stroke="transparent" points="8,-163.7 8,-186.7 228,-186.7 228,-163.7 8,-163.7"/>
<polygon fill="none" stroke="#000000" points="8,-163.7 8,-186.7 228,-186.7 228,-163.7 8,-163.7"/>
<text text-anchor="start" x="12.5842" y="-172.8" font-family="Helvetica,sans-Serif" font-weight="bold" font-size="11.00" fill="#000000">R_STANDARD_REFERENCE_LIST</text>
<text text-anchor="start" x="193.5219" y="-171.8" font-family="Helvetica,sans-Serif" font-size="11.00" fill="#000000">[table]</text>
<polygon fill="none" stroke="#000000" points="8,-141.7 8,-163.7 228,-163.7 228,-141.7 8,-141.7"/>
<image xlink:href="../../images/primaryKeys.png" width="11px" height="12px" preserveAspectRatio="xMinYMin meet" x="13" y="-158.7"/>
<text text-anchor="start" x="35.5558" y="-148.8" font-family="Helvetica,sans-Serif" font-size="11.00" fill="#000000">STANDARD_REFERENCE_LIST_ID</text>
<polygon fill="none" stroke="#000000" points="8,-119.7 8,-141.7 228,-141.7 228,-119.7 8,-119.7"/>
<image xlink:href="../../images/primaryKeys.png" width="11px" height="12px" preserveAspectRatio="xMinYMin meet" x="13" y="-136.7"/>
<text text-anchor="start" x="42" y="-126.8" font-family="Helvetica,sans-Serif" font-size="11.00" fill="#000000">CODE_VALUE</text>
<polygon fill="none" stroke="#000000" points="8,-97.7 8,-119.7 228,-119.7 228,-97.7 8,-97.7"/>
<image xlink:href="../../images/primaryKeys.png" width="11px" height="12px" preserveAspectRatio="xMinYMin meet" x="13" y="-114.7"/>
<text text-anchor="start" x="39.8337" y="-104.8" font-family="Helvetica,sans-Serif" font-size="11.00" fill="#000000">REFERENCE_DATA_MASTER_ID</text>
<polygon fill="none" stroke="#000000" points="8,-75.7 8,-97.7 228,-97.7 228,-75.7 8,-75.7"/>
<image xlink:href="../../images/primaryKeys.png" width="11px" height="12px" preserveAspectRatio="xMinYMin meet" x="13" y="-92.7"/>
<text text-anchor="start" x="42" y="-82.8" font-family="Helvetica,sans-Serif" font-size="11.00" fill="#000000">TRAINING_SESSION_ID</text>
<polygon fill="none" stroke="#000000" points="8,-56.7 8,-75.7 228,-75.7 228,-56.7 8,-56.7"/>
<text text-anchor="start" x="11" y="-62.8" font-family="Helvetica,sans-Serif" font-size="11.00" fill="#000000">...</text>
<polygon fill="#ffffff" stroke="transparent" points="8,-37.7 8,-56.7 79,-56.7 79,-37.7 8,-37.7"/>
<polygon fill="none" stroke="#000000" points="8,-37.7 8,-56.7 79,-56.7 79,-37.7 8,-37.7"/>
<text text-anchor="start" x="11" y="-43.8" font-family="Helvetica,sans-Serif" font-size="11.00" fill="#000000">&lt; 1</text>
<polygon fill="#ffffff" stroke="transparent" points="79,-37.7 79,-56.7 169,-56.7 169,-37.7 79,-37.7"/>
<polygon fill="none" stroke="#000000" points="79,-37.7 79,-56.7 169,-56.7 169,-37.7 79,-37.7"/>
<text text-anchor="start" x="106.094" y="-43.8" font-family="Helvetica,sans-Serif" font-size="11.00" fill="#000000">15,391 rows</text>
<polygon fill="#ffffff" stroke="transparent" points="169,-37.7 169,-56.7 228,-56.7 228,-37.7 169,-37.7"/>
<polygon fill="none" stroke="#000000" points="169,-37.7 169,-56.7 228,-56.7 228,-37.7 169,-37.7"/>
<text text-anchor="start" x="197.1755" y="-43.8" font-family="Helvetica,sans-Serif" font-size="11.00" fill="#000000">297 &gt;</text>
</a>
</g>
</g>
<!-- R_PROVISION_CATEGORY_TYPE&#45;&gt;R_STANDARD_REFERENCE_LIST -->
<g id="edge1" class="edge">
<title>R_PROVISION_CATEGORY_TYPE:w&#45;&gt;R_STANDARD_REFERENCE_LIST:e</title>
<path fill="none" stroke="#000000" d="M264.5097,-161.9813C252.3398,-158.8875 245.3909,-152.7 228,-152.7"/>
<polygon fill="#000000" stroke="#000000" points="271.0557,-162.7576 278.5759,-167.2749 275.0278,-163.2288 279,-163.7 279,-163.7 279,-163.7 275.0278,-163.2288 279.4241,-160.1251 271.0557,-162.7576 271.0557,-162.7576"/>
<ellipse fill="none" stroke="#000000" cx="267.878" cy="-162.3807" rx="3.2" ry="3.2"/>
</g>
<!-- R_PROVISION_CATEGORY_TYPE&#45;&gt;R_STANDARD_REFERENCE_LIST -->
<g id="edge2" class="edge">
<title>R_PROVISION_CATEGORY_TYPE:w&#45;&gt;R_STANDARD_REFERENCE_LIST:e</title>
<path fill="none" stroke="#000000" d="M264.5097,-143.4188C252.3398,-146.5125 245.3909,-152.7 228,-152.7"/>
<polygon fill="#000000" stroke="#000000" points="271.0557,-142.6424 279.4241,-145.2749 275.0278,-142.1712 279,-141.7 279,-141.7 279,-141.7 275.0278,-142.1712 278.5759,-138.1251 271.0557,-142.6424 271.0557,-142.6424"/>
<ellipse fill="none" stroke="#000000" cx="267.878" cy="-143.0193" rx="3.2" ry="3.2"/>
</g>
</g>
</svg>
