<?xml version="1.0" encoding="UTF-8" standalone="no"?>
<!DOCTYPE svg PUBLIC "-//W3C//DTD SVG 1.1//EN"
 "http://www.w3.org/Graphics/SVG/1.1/DTD/svg11.dtd">
<!-- Generated by graphviz version 2.40.1 (20161225.0304)
 -->
<!-- Title: twoDegreesRelationshipsDiagram Pages: 1 -->
<svg width="1646pt" height="933pt"
 viewBox="0.00 0.00 1646.00 932.81" xmlns="http://www.w3.org/2000/svg" xmlns:xlink="http://www.w3.org/1999/xlink">
<g id="graph0" class="graph" transform="scale(1 1) rotate(0) translate(4 928.8142)">
<title>twoDegreesRelationshipsDiagram</title>
<polygon fill="#ffffff" stroke="transparent" points="-4,4 -4,-928.8142 1642,-928.8142 1642,4 -4,4"/>
<text text-anchor="middle" x="72.4936" y="-7.3" font-family="Helvetica,sans-Serif" font-size="11.00" fill="#000000">Generated by SchemaSpy</text>
<!-- CASELOAD -->
<g id="node1" class="node">
<title>CASELOAD</title>
<g id="a_node1"><a xlink:href="../../tables/CASELOAD.html" xlink:title="CASELOAD" target="_top">
<polygon fill="#ffffff" stroke="transparent" points="1526,-759.4602 1526,-820.4602 1630,-820.4602 1630,-759.4602 1526,-759.4602"/>
<polygon fill="#f5f5f5" stroke="transparent" points="1526,-796.9602 1526,-819.9602 1630,-819.9602 1630,-796.9602 1526,-796.9602"/>
<polygon fill="none" stroke="#000000" points="1526,-796.9602 1526,-819.9602 1630,-819.9602 1630,-796.9602 1526,-796.9602"/>
<text text-anchor="start" x="1531" y="-806.0602" font-family="Helvetica,sans-Serif" font-weight="bold" font-size="11.00" fill="#000000">CASELOAD</text>
<text text-anchor="start" x="1595.0437" y="-805.0602" font-family="Helvetica,sans-Serif" font-size="11.00" fill="#000000">[table]</text>
<polygon fill="none" stroke="#000000" points="1526,-777.9602 1526,-796.9602 1630,-796.9602 1630,-777.9602 1526,-777.9602"/>
<text text-anchor="start" x="1529" y="-784.0602" font-family="Helvetica,sans-Serif" font-size="11.00" fill="#000000">...</text>
<polygon fill="#ffffff" stroke="transparent" points="1526,-758.9602 1526,-777.9602 1553,-777.9602 1553,-758.9602 1526,-758.9602"/>
<polygon fill="none" stroke="#000000" points="1526,-758.9602 1526,-777.9602 1553,-777.9602 1553,-758.9602 1526,-758.9602"/>
<text text-anchor="start" x="1528.6452" y="-765.0602" font-family="Helvetica,sans-Serif" font-size="11.00" fill="#000000">&lt; 29</text>
<polygon fill="#ffffff" stroke="transparent" points="1553,-758.9602 1553,-777.9602 1618,-777.9602 1618,-758.9602 1553,-758.9602"/>
<polygon fill="none" stroke="#000000" points="1553,-758.9602 1553,-777.9602 1618,-777.9602 1618,-758.9602 1553,-758.9602"/>
<text text-anchor="start" x="1555.547" y="-765.0602" font-family="Helvetica,sans-Serif" font-size="11.00" fill="#000000">36,872 rows</text>
<polygon fill="#ffffff" stroke="transparent" points="1618,-758.9602 1618,-777.9602 1630,-777.9602 1630,-758.9602 1618,-758.9602"/>
<polygon fill="none" stroke="#000000" points="1618,-758.9602 1618,-777.9602 1630,-777.9602 1630,-758.9602 1618,-758.9602"/>
<text text-anchor="start" x="1620.9431" y="-765.0602" font-family="Helvetica,sans-Serif" font-size="11.00" fill="#000000"> &#160;</text>
</a>
</g>
</g>
<!-- R_STANDARD_REFERENCE_LIST -->
<g id="node2" class="node">
<title>R_STANDARD_REFERENCE_LIST</title>
<g id="a_node2"><a xlink:href="../../tables/R_STANDARD_REFERENCE_LIST.html" xlink:title="R_STANDARD_REFERENCE_LIST" target="_top">
<polygon fill="#ffffff" stroke="transparent" points="8,-581.4602 8,-642.4602 228,-642.4602 228,-581.4602 8,-581.4602"/>
<polygon fill="#f5f5f5" stroke="transparent" points="8,-618.9602 8,-641.9602 228,-641.9602 228,-618.9602 8,-618.9602"/>
<polygon fill="none" stroke="#000000" points="8,-618.9602 8,-641.9602 228,-641.9602 228,-618.9602 8,-618.9602"/>
<text text-anchor="start" x="12.5842" y="-628.0602" font-family="Helvetica,sans-Serif" font-weight="bold" font-size="11.00" fill="#000000">R_STANDARD_REFERENCE_LIST</text>
<text text-anchor="start" x="193.5219" y="-627.0602" font-family="Helvetica,sans-Serif" font-size="11.00" fill="#000000">[table]</text>
<polygon fill="none" stroke="#000000" points="8,-599.9602 8,-618.9602 228,-618.9602 228,-599.9602 8,-599.9602"/>
<text text-anchor="start" x="11" y="-606.0602" font-family="Helvetica,sans-Serif" font-size="11.00" fill="#000000">...</text>
<polygon fill="#ffffff" stroke="transparent" points="8,-580.9602 8,-599.9602 79,-599.9602 79,-580.9602 8,-580.9602"/>
<polygon fill="none" stroke="#000000" points="8,-580.9602 8,-599.9602 79,-599.9602 79,-580.9602 8,-580.9602"/>
<text text-anchor="start" x="11" y="-587.0602" font-family="Helvetica,sans-Serif" font-size="11.00" fill="#000000">&lt; 1</text>
<polygon fill="#ffffff" stroke="transparent" points="79,-580.9602 79,-599.9602 169,-599.9602 169,-580.9602 79,-580.9602"/>
<polygon fill="none" stroke="#000000" points="79,-580.9602 79,-599.9602 169,-599.9602 169,-580.9602 79,-580.9602"/>
<text text-anchor="start" x="106.094" y="-587.0602" font-family="Helvetica,sans-Serif" font-size="11.00" fill="#000000">15,391 rows</text>
<polygon fill="#ffffff" stroke="transparent" points="169,-580.9602 169,-599.9602 228,-599.9602 228,-580.9602 169,-580.9602"/>
<polygon fill="none" stroke="#000000" points="169,-580.9602 169,-599.9602 228,-599.9602 228,-580.9602 169,-580.9602"/>
<text text-anchor="start" x="197.1755" y="-587.0602" font-family="Helvetica,sans-Serif" font-size="11.00" fill="#000000">308 &gt;</text>
</a>
</g>
</g>
<!-- CASELOAD&#45;&gt;R_STANDARD_REFERENCE_LIST -->
<g id="edge1" class="edge">
<title>CASELOAD:w&#45;&gt;R_STANDARD_REFERENCE_LIST:e</title>
<path fill="none" stroke="#000000" d="M1512.1007,-791.0156C1496.6735,-803.3893 1509.86,-840.8553 1485,-857.9602 1354.8571,-947.5051 1291.973,-913.9602 1134,-913.9602 1134,-913.9602 1134,-913.9602 601.5,-913.9602 449.6084,-913.9602 369.0916,-949.2088 269,-834.9602 235.365,-796.5679 279.042,-608.9602 228,-608.9602"/>
<polygon fill="#000000" stroke="#000000" points="1518.3202,-789.201 1527.0083,-790.4161 1522.1601,-788.0806 1526,-786.9602 1526,-786.9602 1526,-786.9602 1522.1601,-788.0806 1524.9917,-783.5043 1518.3202,-789.201 1518.3202,-789.201"/>
<ellipse fill="none" stroke="#000000" cx="1515.2483" cy="-790.0973" rx="3.2" ry="3.2"/>
</g>
<!-- CASELOAD&#45;&gt;R_STANDARD_REFERENCE_LIST -->
<g id="edge2" class="edge">
<title>CASELOAD:w&#45;&gt;R_STANDARD_REFERENCE_LIST:e</title>
<path fill="none" stroke="#000000" d="M1512.1567,-791.1458C1497.6899,-803.2103 1508.9093,-838.1974 1485,-853.9602 1389.3886,-916.9945 1344.1656,-881.9554 1230,-890.9602 881.3052,-918.4637 787.717,-950.2452 443,-890.9602 362.3816,-877.0954 322.3635,-892.9593 269,-830.9602 203.5462,-754.9144 328.3352,-608.9602 228,-608.9602"/>
<polygon fill="#000000" stroke="#000000" points="1518.3424,-789.2756 1527.0419,-790.4062 1522.1712,-788.1179 1526,-786.9602 1526,-786.9602 1526,-786.9602 1522.1712,-788.1179 1524.9581,-783.5143 1518.3424,-789.2756 1518.3424,-789.2756"/>
<ellipse fill="none" stroke="#000000" cx="1515.2793" cy="-790.2017" rx="3.2" ry="3.2"/>
</g>
<!-- OFFENDER -->
<g id="node3" class="node">
<title>OFFENDER</title>
<g id="a_node3"><a xlink:href="../../tables/OFFENDER.html" xlink:title="OFFENDER" target="_top">
<polygon fill="#ffffff" stroke="transparent" points="277,-581.4602 277,-642.4602 402,-642.4602 402,-581.4602 277,-581.4602"/>
<polygon fill="#f5f5f5" stroke="transparent" points="277.5,-618.9602 277.5,-641.9602 402.5,-641.9602 402.5,-618.9602 277.5,-618.9602"/>
<polygon fill="none" stroke="#000000" points="277.5,-618.9602 277.5,-641.9602 402.5,-641.9602 402.5,-618.9602 277.5,-618.9602"/>
<text text-anchor="start" x="282.5" y="-628.0602" font-family="Helvetica,sans-Serif" font-weight="bold" font-size="11.00" fill="#000000">OFFENDER</text>
<text text-anchor="start" x="367.5437" y="-627.0602" font-family="Helvetica,sans-Serif" font-size="11.00" fill="#000000">[table]</text>
<polygon fill="none" stroke="#000000" points="277.5,-599.9602 277.5,-618.9602 402.5,-618.9602 402.5,-599.9602 277.5,-599.9602"/>
<text text-anchor="start" x="280.5" y="-606.0602" font-family="Helvetica,sans-Serif" font-size="11.00" fill="#000000">...</text>
<polygon fill="#ffffff" stroke="transparent" points="277.5,-580.9602 277.5,-599.9602 304.5,-599.9602 304.5,-580.9602 277.5,-580.9602"/>
<polygon fill="none" stroke="#000000" points="277.5,-580.9602 277.5,-599.9602 304.5,-599.9602 304.5,-580.9602 277.5,-580.9602"/>
<text text-anchor="start" x="280.1452" y="-587.0602" font-family="Helvetica,sans-Serif" font-size="11.00" fill="#000000">&lt; 16</text>
<polygon fill="#ffffff" stroke="transparent" points="304.5,-580.9602 304.5,-599.9602 369.5,-599.9602 369.5,-580.9602 304.5,-580.9602"/>
<polygon fill="none" stroke="#000000" points="304.5,-580.9602 304.5,-599.9602 369.5,-599.9602 369.5,-580.9602 304.5,-580.9602"/>
<text text-anchor="start" x="307.047" y="-587.0602" font-family="Helvetica,sans-Serif" font-size="11.00" fill="#000000">18,527 rows</text>
<polygon fill="#ffffff" stroke="transparent" points="369.5,-580.9602 369.5,-599.9602 402.5,-599.9602 402.5,-580.9602 369.5,-580.9602"/>
<polygon fill="none" stroke="#000000" points="369.5,-580.9602 369.5,-599.9602 402.5,-599.9602 402.5,-580.9602 369.5,-580.9602"/>
<text text-anchor="start" x="372.0878" y="-587.0602" font-family="Helvetica,sans-Serif" font-size="11.00" fill="#000000">101 &gt;</text>
</a>
</g>
</g>
<!-- CASELOAD&#45;&gt;OFFENDER -->
<g id="edge3" class="edge">
<title>CASELOAD:w&#45;&gt;OFFENDER:e</title>
<path fill="none" stroke="#000000" d="M1514.5766,-778.1064C1480.617,-717.1314 1512.3259,-360.7028 1485,-321.9602 1413.1297,-220.0627 1350.1621,-238.2694 1230,-204.9602 892.6715,-111.4521 701.7408,61.8099 443,-173.9602 371.2393,-239.3501 499.5847,-608.9602 402.5,-608.9602"/>
<polygon fill="#000000" stroke="#000000" points="1519.6769,-782.0594 1523.7946,-789.8056 1522.8384,-784.5098 1526,-786.9602 1526,-786.9602 1526,-786.9602 1522.8384,-784.5098 1528.2054,-784.1148 1519.6769,-782.0594 1519.6769,-782.0594"/>
<ellipse fill="none" stroke="#000000" cx="1517.1476" cy="-780.099" rx="3.2" ry="3.2"/>
</g>
<!-- PSS_RQMNT -->
<g id="node4" class="node">
<title>PSS_RQMNT</title>
<g id="a_node4"><a xlink:href="../../tables/PSS_RQMNT.html" xlink:title="PSS_RQMNT" target="_top">
<polygon fill="#ffffff" stroke="transparent" points="801,-386.4602 801,-579.4602 997,-579.4602 997,-386.4602 801,-386.4602"/>
<polygon fill="#f5f5f5" stroke="transparent" points="801,-555.9602 801,-578.9602 997,-578.9602 997,-555.9602 801,-555.9602"/>
<polygon fill="none" stroke="#000000" points="801,-555.9602 801,-578.9602 997,-578.9602 997,-555.9602 801,-555.9602"/>
<text text-anchor="start" x="806" y="-565.0602" font-family="Helvetica,sans-Serif" font-weight="bold" font-size="11.00" fill="#000000">PSS_RQMNT</text>
<text text-anchor="start" x="962.0437" y="-564.0602" font-family="Helvetica,sans-Serif" font-size="11.00" fill="#000000">[table]</text>
<polygon fill="none" stroke="#000000" points="801,-533.9602 801,-555.9602 997,-555.9602 997,-533.9602 801,-533.9602"/>
<image xlink:href="../../images/primaryKeys.png" width="11px" height="12px" preserveAspectRatio="xMinYMin meet" x="806" y="-550.96"/>
<text text-anchor="start" x="821" y="-541.0602" font-family="Helvetica,sans-Serif" font-size="11.00" fill="#000000">PSS_RQMNT_ID</text>
<polygon fill="none" stroke="#000000" points="801,-511.9602 801,-533.9602 997,-533.9602 997,-511.9602 801,-511.9602"/>
<image xlink:href="../../images/primaryKeys.png" width="11px" height="12px" preserveAspectRatio="xMinYMin meet" x="806" y="-528.96"/>
<text text-anchor="start" x="821" y="-519.0602" font-family="Helvetica,sans-Serif" font-size="11.00" fill="#000000">CUSTODY_ID</text>
<polygon fill="none" stroke="#000000" points="801,-489.9602 801,-511.9602 997,-511.9602 997,-489.9602 801,-489.9602"/>
<image xlink:href="../../images/primaryKeys.png" width="11px" height="12px" preserveAspectRatio="xMinYMin meet" x="806" y="-506.96"/>
<text text-anchor="start" x="815.4398" y="-497.0602" font-family="Helvetica,sans-Serif" font-size="11.00" fill="#000000">PSS_RQMNT_TYPE_MAIN_CAT_ID</text>
<polygon fill="none" stroke="#000000" points="801,-467.9602 801,-489.9602 997,-489.9602 997,-467.9602 801,-467.9602"/>
<image xlink:href="../../images/primaryKeys.png" width="11px" height="12px" preserveAspectRatio="xMinYMin meet" x="806" y="-484.96"/>
<text text-anchor="start" x="817.8813" y="-475.0602" font-family="Helvetica,sans-Serif" font-size="11.00" fill="#000000">PSS_RQMNT_TYPE_SUB_CAT_ID</text>
<polygon fill="none" stroke="#000000" points="801,-445.9602 801,-467.9602 997,-467.9602 997,-445.9602 801,-445.9602"/>
<image xlink:href="../../images/primaryKeys.png" width="11px" height="12px" preserveAspectRatio="xMinYMin meet" x="806" y="-462.96"/>
<text text-anchor="start" x="818.8047" y="-453.0602" font-family="Helvetica,sans-Serif" font-size="11.00" fill="#000000">PSS_RQMNT_TERM_REASON_ID</text>
<polygon fill="none" stroke="#000000" points="801,-423.9602 801,-445.9602 997,-445.9602 997,-423.9602 801,-423.9602"/>
<image xlink:href="../../images/primaryKeys.png" width="11px" height="12px" preserveAspectRatio="xMinYMin meet" x="806" y="-440.96"/>
<text text-anchor="start" x="821" y="-431.0602" font-family="Helvetica,sans-Serif" font-size="11.00" fill="#000000">OFFENDER_ID</text>
<polygon fill="none" stroke="#000000" points="801,-404.9602 801,-423.9602 997,-423.9602 997,-404.9602 801,-404.9602"/>
<text text-anchor="start" x="804" y="-411.0602" font-family="Helvetica,sans-Serif" font-size="11.00" fill="#000000">...</text>
<polygon fill="#ffffff" stroke="transparent" points="801,-385.9602 801,-404.9602 874,-404.9602 874,-385.9602 801,-385.9602"/>
<polygon fill="none" stroke="#000000" points="801,-385.9602 801,-404.9602 874,-404.9602 874,-385.9602 801,-385.9602"/>
<text text-anchor="start" x="804" y="-392.0602" font-family="Helvetica,sans-Serif" font-size="11.00" fill="#000000">&lt; 5</text>
<polygon fill="#ffffff" stroke="transparent" points="874,-385.9602 874,-404.9602 950,-404.9602 950,-385.9602 874,-385.9602"/>
<polygon fill="none" stroke="#000000" points="874,-385.9602 874,-404.9602 950,-404.9602 950,-385.9602 874,-385.9602"/>
<text text-anchor="start" x="902.3807" y="-392.0602" font-family="Helvetica,sans-Serif" font-size="11.00" fill="#000000">746 rows</text>
<polygon fill="#ffffff" stroke="transparent" points="950,-385.9602 950,-404.9602 997,-404.9602 997,-385.9602 950,-385.9602"/>
<polygon fill="none" stroke="#000000" points="950,-385.9602 950,-404.9602 997,-404.9602 997,-385.9602 950,-385.9602"/>
<text text-anchor="start" x="978.4053" y="-392.0602" font-family="Helvetica,sans-Serif" font-size="11.00" fill="#000000">5 &gt;</text>
</a>
</g>
</g>
<!-- CASELOAD&#45;&gt;PSS_RQMNT -->
<g id="edge4" class="edge">
<title>CASELOAD:w&#45;&gt;PSS_RQMNT:e</title>
<path fill="none" stroke="#000000" d="M1511.8714,-782.7609C1500.9213,-774.1915 1501.5287,-754.4468 1485,-741.9602 1298.3731,-600.9738 1230.8948,-544.9602 997,-544.9602"/>
<polygon fill="#000000" stroke="#000000" points="1518.3316,-784.6809 1524.9743,-790.411 1522.1658,-785.8206 1526,-786.9602 1526,-786.9602 1526,-786.9602 1522.1658,-785.8206 1527.0257,-783.5094 1518.3316,-784.6809 1518.3316,-784.6809"/>
<ellipse fill="none" stroke="#000000" cx="1515.2642" cy="-783.7692" rx="3.2" ry="3.2"/>
</g>
<!-- PSS_RQMNT_MANAGER -->
<g id="node5" class="node">
<title>PSS_RQMNT_MANAGER</title>
<g id="a_node5"><a xlink:href="../../tables/PSS_RQMNT_MANAGER.html" xlink:title="PSS_RQMNT_MANAGER" target="_top">
<polygon fill="#ffffff" stroke="transparent" points="1287.5,-786.4602 1287.5,-847.4602 1460.5,-847.4602 1460.5,-786.4602 1287.5,-786.4602"/>
<polygon fill="#f5f5f5" stroke="transparent" points="1288,-823.9602 1288,-846.9602 1461,-846.9602 1461,-823.9602 1288,-823.9602"/>
<polygon fill="none" stroke="#000000" points="1288,-823.9602 1288,-846.9602 1461,-846.9602 1461,-823.9602 1288,-823.9602"/>
<text text-anchor="start" x="1292.9169" y="-833.0602" font-family="Helvetica,sans-Serif" font-weight="bold" font-size="11.00" fill="#000000">PSS_RQMNT_MANAGER</text>
<text text-anchor="start" x="1426.5219" y="-832.0602" font-family="Helvetica,sans-Serif" font-size="11.00" fill="#000000">[table]</text>
<polygon fill="none" stroke="#000000" points="1288,-804.9602 1288,-823.9602 1461,-823.9602 1461,-804.9602 1288,-804.9602"/>
<text text-anchor="start" x="1291" y="-811.0602" font-family="Helvetica,sans-Serif" font-size="11.00" fill="#000000">...</text>
<polygon fill="#ffffff" stroke="transparent" points="1288,-785.9602 1288,-804.9602 1352,-804.9602 1352,-785.9602 1288,-785.9602"/>
<polygon fill="none" stroke="#000000" points="1288,-785.9602 1288,-804.9602 1352,-804.9602 1352,-785.9602 1288,-785.9602"/>
<text text-anchor="start" x="1291" y="-792.0602" font-family="Helvetica,sans-Serif" font-size="11.00" fill="#000000">&lt; 11</text>
<polygon fill="#ffffff" stroke="transparent" points="1352,-785.9602 1352,-804.9602 1421,-804.9602 1421,-785.9602 1352,-785.9602"/>
<polygon fill="none" stroke="#000000" points="1352,-785.9602 1352,-804.9602 1421,-804.9602 1421,-785.9602 1352,-785.9602"/>
<text text-anchor="start" x="1373.3807" y="-792.0602" font-family="Helvetica,sans-Serif" font-size="11.00" fill="#000000">809 rows</text>
<polygon fill="#ffffff" stroke="transparent" points="1421,-785.9602 1421,-804.9602 1461,-804.9602 1461,-785.9602 1421,-785.9602"/>
<polygon fill="none" stroke="#000000" points="1421,-785.9602 1421,-804.9602 1461,-804.9602 1461,-785.9602 1421,-785.9602"/>
<text text-anchor="start" x="1442.4053" y="-792.0602" font-family="Helvetica,sans-Serif" font-size="11.00" fill="#000000">1 &gt;</text>
</a>
</g>
</g>
<!-- CASELOAD&#45;&gt;PSS_RQMNT_MANAGER -->
<g id="edge5" class="edge">
<title>CASELOAD:w&#45;&gt;PSS_RQMNT_MANAGER:e</title>
<path fill="none" stroke="#000000" d="M1511.5964,-789.2622C1492.9112,-795.7916 1486.6611,-813.9602 1461,-813.9602"/>
<polygon fill="#000000" stroke="#000000" points="1518.1003,-788.2228 1526.5682,-790.5151 1522.0501,-787.5915 1526,-786.9602 1526,-786.9602 1526,-786.9602 1522.0501,-787.5915 1525.4318,-783.4053 1518.1003,-788.2228 1518.1003,-788.2228"/>
<ellipse fill="none" stroke="#000000" cx="1514.9404" cy="-788.7279" rx="3.2" ry="3.2"/>
</g>
<!-- R_PSS_RQMNT_TYPE_MAIN_CATEGORY -->
<g id="node6" class="node">
<title>R_PSS_RQMNT_TYPE_MAIN_CATEGORY</title>
<g id="a_node6"><a xlink:href="../../tables/R_PSS_RQMNT_TYPE_MAIN_CATEGORY.html" xlink:title="R_PSS_RQMNT_TYPE_MAIN_CATEGORY" target="_top">
<polygon fill="#ffffff" stroke="transparent" points="471,-693.4602 471,-754.4602 732,-754.4602 732,-693.4602 471,-693.4602"/>
<polygon fill="#f5f5f5" stroke="transparent" points="471.5,-730.9602 471.5,-753.9602 732.5,-753.9602 732.5,-730.9602 471.5,-730.9602"/>
<polygon fill="none" stroke="#000000" points="471.5,-730.9602 471.5,-753.9602 732.5,-753.9602 732.5,-730.9602 471.5,-730.9602"/>
<text text-anchor="start" x="476.105" y="-740.0602" font-family="Helvetica,sans-Serif" font-weight="bold" font-size="11.00" fill="#000000">R_PSS_RQMNT_TYPE_MAIN_CATEGORY</text>
<text text-anchor="start" x="698.0219" y="-739.0602" font-family="Helvetica,sans-Serif" font-size="11.00" fill="#000000">[table]</text>
<polygon fill="none" stroke="#000000" points="471.5,-711.9602 471.5,-730.9602 732.5,-730.9602 732.5,-711.9602 471.5,-711.9602"/>
<text text-anchor="start" x="474.5" y="-718.0602" font-family="Helvetica,sans-Serif" font-size="11.00" fill="#000000">...</text>
<polygon fill="#ffffff" stroke="transparent" points="471.5,-692.9602 471.5,-711.9602 582.5,-711.9602 582.5,-692.9602 471.5,-692.9602"/>
<polygon fill="none" stroke="#000000" points="471.5,-692.9602 471.5,-711.9602 582.5,-711.9602 582.5,-692.9602 471.5,-692.9602"/>
<text text-anchor="start" x="474.5" y="-699.0602" font-family="Helvetica,sans-Serif" font-size="11.00" fill="#000000">&lt; 1</text>
<polygon fill="#ffffff" stroke="transparent" points="582.5,-692.9602 582.5,-711.9602 665.5,-711.9602 665.5,-692.9602 582.5,-692.9602"/>
<polygon fill="none" stroke="#000000" points="582.5,-692.9602 582.5,-711.9602 665.5,-711.9602 665.5,-692.9602 582.5,-692.9602"/>
<text text-anchor="start" x="630.1105" y="-699.0602" font-family="Helvetica,sans-Serif" font-size="11.00" fill="#000000">8 rows</text>
<polygon fill="#ffffff" stroke="transparent" points="665.5,-692.9602 665.5,-711.9602 732.5,-711.9602 732.5,-692.9602 665.5,-692.9602"/>
<polygon fill="none" stroke="#000000" points="665.5,-692.9602 665.5,-711.9602 732.5,-711.9602 732.5,-692.9602 665.5,-692.9602"/>
<text text-anchor="start" x="713.9053" y="-699.0602" font-family="Helvetica,sans-Serif" font-size="11.00" fill="#000000">6 &gt;</text>
</a>
</g>
</g>
<!-- CASELOAD&#45;&gt;R_PSS_RQMNT_TYPE_MAIN_CATEGORY -->
<g id="edge6" class="edge">
<title>CASELOAD:w&#45;&gt;R_PSS_RQMNT_TYPE_MAIN_CATEGORY:e</title>
<path fill="none" stroke="#000000" d="M1511.5972,-784.9204C1503.3371,-782.3385 1497.6627,-777.9841 1485,-775.9602 1180.8415,-727.3467 1096.8662,-788.3687 793,-737.9602 765.4463,-733.3893 760.4302,-720.9602 732.5,-720.9602"/>
<polygon fill="#000000" stroke="#000000" points="1518.079,-785.8383 1525.4952,-790.5247 1522.0395,-786.3993 1526,-786.9602 1526,-786.9602 1526,-786.9602 1522.0395,-786.3993 1526.5048,-783.3958 1518.079,-785.8383 1518.079,-785.8383"/>
<ellipse fill="none" stroke="#000000" cx="1514.9107" cy="-785.3896" rx="3.2" ry="3.2"/>
</g>
<!-- OFFENDER&#45;&gt;R_STANDARD_REFERENCE_LIST -->
<g id="edge11" class="edge">
<title>OFFENDER:w&#45;&gt;R_STANDARD_REFERENCE_LIST:e</title>
<path fill="none" stroke="#000000" d="M273.4429,-594.8503C254.7225,-531.2843 248.582,-535.9876 228,-608.9602"/>
<polygon fill="#000000" stroke="#000000" points="275.2892,-601.2717 274.0402,-609.9551 276.3946,-605.116 277.5,-608.9602 277.5,-608.9602 277.5,-608.9602 276.3946,-605.116 280.9598,-607.9654 275.2892,-601.2717 275.2892,-601.2717"/>
<ellipse fill="none" stroke="#000000" cx="274.4049" cy="-598.1963" rx="3.2" ry="3.2"/>
</g>
<!-- OFFENDER&#45;&gt;R_STANDARD_REFERENCE_LIST -->
<g id="edge12" class="edge">
<title>OFFENDER:w&#45;&gt;R_STANDARD_REFERENCE_LIST:e</title>
<path fill="none" stroke="#000000" d="M272.7453,-595.2381C254.5664,-544.3374 248.3242,-548.9114 228,-608.9602"/>
<polygon fill="#000000" stroke="#000000" points="274.8807,-601.4011 274.0984,-610.1389 276.1904,-605.1807 277.5,-608.9602 277.5,-608.9602 277.5,-608.9602 276.1904,-605.1807 280.9016,-607.7816 274.8807,-601.4011 274.8807,-601.4011"/>
<ellipse fill="none" stroke="#000000" cx="273.833" cy="-598.3775" rx="3.2" ry="3.2"/>
</g>
<!-- OFFENDER&#45;&gt;R_STANDARD_REFERENCE_LIST -->
<g id="edge13" class="edge">
<title>OFFENDER:w&#45;&gt;R_STANDARD_REFERENCE_LIST:e</title>
<path fill="none" stroke="#000000" d="M271.7204,-595.7063C254.3237,-557.4173 247.9375,-561.8352 228,-608.9602"/>
<polygon fill="#000000" stroke="#000000" points="274.3022,-601.6271 274.2001,-610.3992 275.9011,-605.2937 277.5,-608.9602 277.5,-608.9602 277.5,-608.9602 275.9011,-605.2937 280.7999,-607.5212 274.3022,-601.6271 274.3022,-601.6271"/>
<ellipse fill="none" stroke="#000000" cx="273.0231" cy="-598.6939" rx="3.2" ry="3.2"/>
</g>
<!-- OFFENDER&#45;&gt;R_STANDARD_REFERENCE_LIST -->
<g id="edge14" class="edge">
<title>OFFENDER:w&#45;&gt;R_STANDARD_REFERENCE_LIST:e</title>
<path fill="none" stroke="#000000" d="M270.1751,-596.5079C253.926,-570.5321 247.3359,-574.6829 228,-608.9602"/>
<polygon fill="#000000" stroke="#000000" points="273.4438,-602.0648 274.397,-610.7855 275.4719,-605.5125 277.5,-608.9602 277.5,-608.9602 277.5,-608.9602 275.4719,-605.5125 280.603,-607.1349 273.4438,-602.0648 273.4438,-602.0648"/>
<ellipse fill="none" stroke="#000000" cx="271.8213" cy="-599.3066" rx="3.2" ry="3.2"/>
</g>
<!-- OFFENDER&#45;&gt;R_STANDARD_REFERENCE_LIST -->
<g id="edge15" class="edge">
<title>OFFENDER:w&#45;&gt;R_STANDARD_REFERENCE_LIST:e</title>
<path fill="none" stroke="#000000" d="M267.8585,-598.2628C253.2512,-583.6601 246.3906,-587.2259 228,-608.9602"/>
<polygon fill="#000000" stroke="#000000" points="272.144,-603.0177 274.8259,-611.3704 274.822,-605.989 277.5,-608.9602 277.5,-608.9602 277.5,-608.9602 274.822,-605.989 280.1741,-606.55 272.144,-603.0177 272.144,-603.0177"/>
<ellipse fill="none" stroke="#000000" cx="270.0016" cy="-600.6407" rx="3.2" ry="3.2"/>
</g>
<!-- OFFENDER&#45;&gt;R_STANDARD_REFERENCE_LIST -->
<g id="edge16" class="edge">
<title>OFFENDER:w&#45;&gt;R_STANDARD_REFERENCE_LIST:e</title>
<path fill="none" stroke="#000000" d="M264.704,-602.1262C252.1609,-596.6275 245.0156,-598.9055 228,-608.9602"/>
<polygon fill="#000000" stroke="#000000" points="270.4433,-605.1914 275.804,-612.1357 273.9717,-607.0758 277.5,-608.9602 277.5,-608.9602 277.5,-608.9602 273.9717,-607.0758 279.196,-605.7847 270.4433,-605.1914 270.4433,-605.1914"/>
<ellipse fill="none" stroke="#000000" cx="267.6207" cy="-603.6839" rx="3.2" ry="3.2"/>
</g>
<!-- OFFENDER&#45;&gt;R_STANDARD_REFERENCE_LIST -->
<g id="edge17" class="edge">
<title>OFFENDER:w&#45;&gt;R_STANDARD_REFERENCE_LIST:e</title>
<path fill="none" stroke="#000000" d="M262.8428,-608.9602C251.4139,-608.9602 244.1563,-608.9602 228,-608.9602"/>
<polygon fill="#000000" stroke="#000000" points="269.5,-608.9603 277.5,-612.5602 273.5,-608.9603 277.5,-608.9602 277.5,-608.9602 277.5,-608.9602 273.5,-608.9603 277.5,-605.3602 269.5,-608.9603 269.5,-608.9603"/>
<ellipse fill="none" stroke="#000000" cx="266.3" cy="-608.9603" rx="3.2" ry="3.2"/>
</g>
<!-- OFFENDER&#45;&gt;R_STANDARD_REFERENCE_LIST -->
<g id="edge18" class="edge">
<title>OFFENDER:w&#45;&gt;R_STANDARD_REFERENCE_LIST:e</title>
<path fill="none" stroke="#000000" d="M264.704,-615.7943C252.1609,-621.2929 245.0156,-619.0149 228,-608.9602"/>
<polygon fill="#000000" stroke="#000000" points="270.4433,-612.729 279.196,-612.1357 273.9717,-610.8446 277.5,-608.9602 277.5,-608.9602 277.5,-608.9602 273.9717,-610.8446 275.804,-605.7847 270.4433,-612.729 270.4433,-612.729"/>
<ellipse fill="none" stroke="#000000" cx="267.6207" cy="-614.2366" rx="3.2" ry="3.2"/>
</g>
<!-- OFFENDER&#45;&gt;R_STANDARD_REFERENCE_LIST -->
<g id="edge19" class="edge">
<title>OFFENDER:w&#45;&gt;R_STANDARD_REFERENCE_LIST:e</title>
<path fill="none" stroke="#000000" d="M267.8585,-619.6576C253.2512,-634.2604 246.3906,-630.6946 228,-608.9602"/>
<polygon fill="#000000" stroke="#000000" points="272.144,-614.9028 280.1741,-611.3704 274.822,-611.9315 277.5,-608.9602 277.5,-608.9602 277.5,-608.9602 274.822,-611.9315 274.8259,-606.55 272.144,-614.9028 272.144,-614.9028"/>
<ellipse fill="none" stroke="#000000" cx="270.0016" cy="-617.2798" rx="3.2" ry="3.2"/>
</g>
<!-- OFFENDER&#45;&gt;R_STANDARD_REFERENCE_LIST -->
<g id="edge20" class="edge">
<title>OFFENDER:w&#45;&gt;R_STANDARD_REFERENCE_LIST:e</title>
<path fill="none" stroke="#000000" d="M270.1751,-621.4125C253.926,-647.3883 247.3359,-643.2376 228,-608.9602"/>
<polygon fill="#000000" stroke="#000000" points="273.4438,-615.8557 280.603,-610.7855 275.4719,-612.408 277.5,-608.9602 277.5,-608.9602 277.5,-608.9602 275.4719,-612.408 274.397,-607.1349 273.4438,-615.8557 273.4438,-615.8557"/>
<ellipse fill="none" stroke="#000000" cx="271.8213" cy="-618.6139" rx="3.2" ry="3.2"/>
</g>
<!-- OFFENDER&#45;&gt;R_STANDARD_REFERENCE_LIST -->
<g id="edge21" class="edge">
<title>OFFENDER:w&#45;&gt;R_STANDARD_REFERENCE_LIST:e</title>
<path fill="none" stroke="#000000" d="M271.7204,-622.2141C254.3237,-660.5032 247.9375,-656.0852 228,-608.9602"/>
<polygon fill="#000000" stroke="#000000" points="274.3022,-616.2933 280.7999,-610.3992 275.9011,-612.6268 277.5,-608.9602 277.5,-608.9602 277.5,-608.9602 275.9011,-612.6268 274.2001,-607.5212 274.3022,-616.2933 274.3022,-616.2933"/>
<ellipse fill="none" stroke="#000000" cx="273.0231" cy="-619.2266" rx="3.2" ry="3.2"/>
</g>
<!-- OFFENDER&#45;&gt;R_STANDARD_REFERENCE_LIST -->
<g id="edge22" class="edge">
<title>OFFENDER:w&#45;&gt;R_STANDARD_REFERENCE_LIST:e</title>
<path fill="none" stroke="#000000" d="M272.7453,-622.6823C254.5664,-673.5831 248.3242,-669.0091 228,-608.9602"/>
<polygon fill="#000000" stroke="#000000" points="274.8807,-616.5193 280.9016,-610.1389 276.1904,-612.7398 277.5,-608.9602 277.5,-608.9602 277.5,-608.9602 276.1904,-612.7398 274.0984,-607.7816 274.8807,-616.5193 274.8807,-616.5193"/>
<ellipse fill="none" stroke="#000000" cx="273.833" cy="-619.5429" rx="3.2" ry="3.2"/>
</g>
<!-- OFFENDER&#45;&gt;R_STANDARD_REFERENCE_LIST -->
<g id="edge23" class="edge">
<title>OFFENDER:w&#45;&gt;R_STANDARD_REFERENCE_LIST:e</title>
<path fill="none" stroke="#000000" d="M273.4429,-623.0702C254.7225,-686.6362 248.582,-681.9329 228,-608.9602"/>
<polygon fill="#000000" stroke="#000000" points="275.2892,-616.6487 280.9598,-609.9551 276.3946,-612.8045 277.5,-608.9602 277.5,-608.9602 277.5,-608.9602 276.3946,-612.8045 274.0402,-607.9654 275.2892,-616.6487 275.2892,-616.6487"/>
<ellipse fill="none" stroke="#000000" cx="274.4049" cy="-619.7241" rx="3.2" ry="3.2"/>
</g>
<!-- PSS_RQMNT&#45;&gt;R_STANDARD_REFERENCE_LIST -->
<g id="edge26" class="edge">
<title>PSS_RQMNT:w&#45;&gt;R_STANDARD_REFERENCE_LIST:e</title>
<path fill="none" stroke="#000000" d="M786.5263,-455.2546C729.7954,-439.562 821.8922,-319.7527 760,-269.9602 732.5564,-247.8818 468.9529,-246.1473 443,-269.9602 380.055,-327.715 472.945,-595.2055 410,-652.9602 386.9126,-674.1439 297.7322,-665.4597 269,-652.9602 244.4894,-642.2973 254.7296,-608.9602 228,-608.9602"/>
<polygon fill="#000000" stroke="#000000" points="793.055,-456.0239 800.5787,-460.5355 797.0275,-456.4921 801,-456.9602 801,-456.9602 801,-456.9602 797.0275,-456.4921 801.4213,-453.385 793.055,-456.0239 793.055,-456.0239"/>
<ellipse fill="none" stroke="#000000" cx="789.877" cy="-455.6494" rx="3.2" ry="3.2"/>
</g>
<!-- PSS_RQMNT&#45;&gt;OFFENDER -->
<g id="edge25" class="edge">
<title>PSS_RQMNT:w&#45;&gt;OFFENDER:e</title>
<path fill="none" stroke="#000000" d="M786.3831,-433.2369C729.115,-417.3819 822.4682,-296.3301 760,-245.9602 732.5809,-223.8514 469.2504,-222.4757 443,-245.9602 382.5078,-300.0786 483.6672,-608.9602 402.5,-608.9602"/>
<polygon fill="#000000" stroke="#000000" points="793.055,-434.0235 800.5785,-438.5355 797.0275,-434.4919 801,-434.9602 801,-434.9602 801,-434.9602 797.0275,-434.4919 801.4215,-431.385 793.055,-434.0235 793.055,-434.0235"/>
<ellipse fill="none" stroke="#000000" cx="789.877" cy="-433.6488" rx="3.2" ry="3.2"/>
</g>
<!-- PSS_RQMNT&#45;&gt;R_PSS_RQMNT_TYPE_MAIN_CATEGORY -->
<g id="edge27" class="edge">
<title>PSS_RQMNT:w&#45;&gt;R_PSS_RQMNT_TYPE_MAIN_CATEGORY:e</title>
<path fill="none" stroke="#000000" d="M786.2625,-502.8621C712.7878,-524.3648 829.3074,-720.9602 732.5,-720.9602"/>
<polygon fill="#000000" stroke="#000000" points="793.0658,-501.9842 801.4608,-504.5306 797.0329,-501.4722 801,-500.9602 801,-500.9602 801,-500.9602 797.0329,-501.4722 800.5392,-497.3898 793.0658,-501.9842 793.0658,-501.9842"/>
<ellipse fill="none" stroke="#000000" cx="789.8921" cy="-502.3938" rx="3.2" ry="3.2"/>
</g>
<!-- CUSTODY -->
<g id="node8" class="node">
<title>CUSTODY</title>
<g id="a_node8"><a xlink:href="../../tables/CUSTODY.html" xlink:title="CUSTODY" target="_top">
<polygon fill="#ffffff" stroke="transparent" points="551,-611.4602 551,-672.4602 652,-672.4602 652,-611.4602 551,-611.4602"/>
<polygon fill="#f5f5f5" stroke="transparent" points="551.5,-648.9602 551.5,-671.9602 652.5,-671.9602 652.5,-648.9602 551.5,-648.9602"/>
<polygon fill="none" stroke="#000000" points="551.5,-648.9602 551.5,-671.9602 652.5,-671.9602 652.5,-648.9602 551.5,-648.9602"/>
<text text-anchor="start" x="556.5" y="-658.0602" font-family="Helvetica,sans-Serif" font-weight="bold" font-size="11.00" fill="#000000">CUSTODY</text>
<text text-anchor="start" x="617.5437" y="-657.0602" font-family="Helvetica,sans-Serif" font-size="11.00" fill="#000000">[table]</text>
<polygon fill="none" stroke="#000000" points="551.5,-629.9602 551.5,-648.9602 652.5,-648.9602 652.5,-629.9602 551.5,-629.9602"/>
<text text-anchor="start" x="554.5" y="-636.0602" font-family="Helvetica,sans-Serif" font-size="11.00" fill="#000000">...</text>
<polygon fill="#ffffff" stroke="transparent" points="551.5,-610.9602 551.5,-629.9602 572.5,-629.9602 572.5,-610.9602 551.5,-610.9602"/>
<polygon fill="none" stroke="#000000" points="551.5,-610.9602 551.5,-629.9602 572.5,-629.9602 572.5,-610.9602 551.5,-610.9602"/>
<text text-anchor="start" x="554.2026" y="-617.0602" font-family="Helvetica,sans-Serif" font-size="11.00" fill="#000000">&lt; 6</text>
<polygon fill="#ffffff" stroke="transparent" points="572.5,-610.9602 572.5,-629.9602 631.5,-629.9602 631.5,-610.9602 572.5,-610.9602"/>
<polygon fill="none" stroke="#000000" points="572.5,-610.9602 572.5,-629.9602 631.5,-629.9602 631.5,-610.9602 572.5,-610.9602"/>
<text text-anchor="start" x="575.1045" y="-617.0602" font-family="Helvetica,sans-Serif" font-size="11.00" fill="#000000">6,637 rows</text>
<polygon fill="#ffffff" stroke="transparent" points="631.5,-610.9602 631.5,-629.9602 652.5,-629.9602 652.5,-610.9602 631.5,-610.9602"/>
<polygon fill="none" stroke="#000000" points="631.5,-610.9602 631.5,-629.9602 652.5,-629.9602 652.5,-610.9602 631.5,-610.9602"/>
<text text-anchor="start" x="634.2026" y="-617.0602" font-family="Helvetica,sans-Serif" font-size="11.00" fill="#000000">5 &gt;</text>
</a>
</g>
</g>
<!-- PSS_RQMNT&#45;&gt;CUSTODY -->
<g id="edge24" class="edge">
<title>PSS_RQMNT:w&#45;&gt;CUSTODY:e</title>
<path fill="none" stroke="#000000" d="M786.5805,-526.8399C769.4063,-539.4253 784.757,-579.5379 760,-600.9602 721.6797,-634.119 703.175,-638.9602 652.5,-638.9602"/>
<polygon fill="#000000" stroke="#000000" points="793.2747,-525.0388 801.9354,-526.4366 797.1374,-523.9995 801,-522.9602 801,-522.9602 801,-522.9602 797.1374,-523.9995 800.0646,-519.4839 793.2747,-525.0388 793.2747,-525.0388"/>
<ellipse fill="none" stroke="#000000" cx="790.1846" cy="-525.8703" rx="3.2" ry="3.2"/>
</g>
<!-- R_PSS_RQMNT_TYPE_SUB_CATEGORY -->
<g id="node9" class="node">
<title>R_PSS_RQMNT_TYPE_SUB_CATEGORY</title>
<g id="a_node9"><a xlink:href="../../tables/R_PSS_RQMNT_TYPE_SUB_CATEGORY.html" xlink:title="R_PSS_RQMNT_TYPE_SUB_CATEGORY" target="_top">
<polygon fill="#ffffff" stroke="transparent" points="451,-279.9602 451,-589.9602 752,-589.9602 752,-279.9602 451,-279.9602"/>
<polygon fill="#f5f5f5" stroke="transparent" points="453.5,-564.9602 453.5,-587.9602 750.5,-587.9602 750.5,-564.9602 453.5,-564.9602"/>
<polygon fill="none" stroke="#000000" points="453.5,-564.9602 453.5,-587.9602 750.5,-587.9602 750.5,-564.9602 453.5,-564.9602"/>
<text text-anchor="start" x="458.5" y="-574.0602" font-family="Helvetica,sans-Serif" font-weight="bold" font-size="11.00" fill="#000000">R_PSS_RQMNT_TYPE_SUB_CATEGORY</text>
<text text-anchor="start" x="715.5437" y="-573.0602" font-family="Helvetica,sans-Serif" font-size="11.00" fill="#000000">[table]</text>
<polygon fill="none" stroke="#000000" points="453.5,-542.9602 453.5,-564.9602 677.5,-564.9602 677.5,-542.9602 453.5,-542.9602"/>
<image xlink:href="../../images/primaryKeys.png" width="11px" height="12px" preserveAspectRatio="xMinYMin meet" x="458.5" y="-559.96"/>
<text text-anchor="start" x="473.5" y="-550.0602" font-family="Helvetica,sans-Serif" font-size="11.00" fill="#000000">PSS_RQMNT_TYPE_SUB_CAT_ID</text>
<polygon fill="none" stroke="#000000" points="677.5,-542.9602 677.5,-564.9602 750.5,-564.9602 750.5,-542.9602 677.5,-542.9602"/>
<text text-anchor="start" x="680.5" y="-550.6602" font-family="Helvetica,sans-Serif" font-size="11.00" fill="#000000">number[22]</text>
<polygon fill="none" stroke="#000000" points="453.5,-520.9602 453.5,-542.9602 677.5,-542.9602 677.5,-520.9602 453.5,-520.9602"/>
<text text-anchor="start" x="473.5" y="-528.0602" font-family="Helvetica,sans-Serif" font-size="11.00" fill="#000000">CODE</text>
<polygon fill="none" stroke="#000000" points="677.5,-520.9602 677.5,-542.9602 750.5,-542.9602 750.5,-520.9602 677.5,-520.9602"/>
<text text-anchor="start" x="680.5" y="-528.6602" font-family="Helvetica,sans-Serif" font-size="11.00" fill="#000000">varchar2[20]</text>
<polygon fill="none" stroke="#000000" points="453.5,-498.9602 453.5,-520.9602 677.5,-520.9602 677.5,-498.9602 453.5,-498.9602"/>
<text text-anchor="start" x="473.5" y="-506.0602" font-family="Helvetica,sans-Serif" font-size="11.00" fill="#000000">DESCRIPTION</text>
<polygon fill="none" stroke="#000000" points="677.5,-498.9602 677.5,-520.9602 750.5,-520.9602 750.5,-498.9602 677.5,-498.9602"/>
<text text-anchor="start" x="680.3791" y="-506.6602" font-family="Helvetica,sans-Serif" font-size="11.00" fill="#000000">varchar2[200]</text>
<polygon fill="none" stroke="#000000" points="453.5,-476.9602 453.5,-498.9602 677.5,-498.9602 677.5,-476.9602 453.5,-476.9602"/>
<text text-anchor="start" x="473.5" y="-484.0602" font-family="Helvetica,sans-Serif" font-size="11.00" fill="#000000">SELECTABLE</text>
<polygon fill="none" stroke="#000000" points="677.5,-476.9602 677.5,-498.9602 750.5,-498.9602 750.5,-476.9602 677.5,-476.9602"/>
<text text-anchor="start" x="680.5" y="-484.6602" font-family="Helvetica,sans-Serif" font-size="11.00" fill="#000000">char[1]</text>
<polygon fill="none" stroke="#000000" points="453.5,-454.9602 453.5,-476.9602 677.5,-476.9602 677.5,-454.9602 453.5,-454.9602"/>
<text text-anchor="start" x="473.5" y="-462.0602" font-family="Helvetica,sans-Serif" font-size="11.00" fill="#000000">EXPECTED_SECTOR</text>
<polygon fill="none" stroke="#000000" points="677.5,-454.9602 677.5,-476.9602 750.5,-476.9602 750.5,-454.9602 677.5,-454.9602"/>
<text text-anchor="start" x="680.5" y="-462.6602" font-family="Helvetica,sans-Serif" font-size="11.00" fill="#000000">varchar2[10]</text>
<polygon fill="none" stroke="#000000" points="453.5,-432.9602 453.5,-454.9602 677.5,-454.9602 677.5,-432.9602 453.5,-432.9602"/>
<text text-anchor="start" x="473.5" y="-440.0602" font-family="Helvetica,sans-Serif" font-size="11.00" fill="#000000">ALLOW_DUPLICATES</text>
<polygon fill="none" stroke="#000000" points="677.5,-432.9602 677.5,-454.9602 750.5,-454.9602 750.5,-432.9602 677.5,-432.9602"/>
<text text-anchor="start" x="680.5" y="-440.6602" font-family="Helvetica,sans-Serif" font-size="11.00" fill="#000000">char[1]</text>
<polygon fill="none" stroke="#000000" points="453.5,-410.9602 453.5,-432.9602 677.5,-432.9602 677.5,-410.9602 453.5,-410.9602"/>
<text text-anchor="start" x="473.5" y="-418.0602" font-family="Helvetica,sans-Serif" font-size="11.00" fill="#000000">INACTIVE_DUPLICATES</text>
<polygon fill="none" stroke="#000000" points="677.5,-410.9602 677.5,-432.9602 750.5,-432.9602 750.5,-410.9602 677.5,-410.9602"/>
<text text-anchor="start" x="680.5" y="-418.6602" font-family="Helvetica,sans-Serif" font-size="11.00" fill="#000000">char[1]</text>
<polygon fill="none" stroke="#000000" points="453.5,-388.9602 453.5,-410.9602 677.5,-410.9602 677.5,-388.9602 453.5,-388.9602"/>
<text text-anchor="start" x="473.5" y="-396.0602" font-family="Helvetica,sans-Serif" font-size="11.00" fill="#000000">ROW_VERSION</text>
<polygon fill="none" stroke="#000000" points="677.5,-388.9602 677.5,-410.9602 750.5,-410.9602 750.5,-388.9602 677.5,-388.9602"/>
<text text-anchor="start" x="680.5" y="-396.6602" font-family="Helvetica,sans-Serif" font-size="11.00" fill="#000000">number[22]</text>
<polygon fill="none" stroke="#000000" points="453.5,-366.9602 453.5,-388.9602 677.5,-388.9602 677.5,-366.9602 453.5,-366.9602"/>
<text text-anchor="start" x="473.5" y="-374.0602" font-family="Helvetica,sans-Serif" font-size="11.00" fill="#000000">CREATED_BY_USER_ID</text>
<polygon fill="none" stroke="#000000" points="677.5,-366.9602 677.5,-388.9602 750.5,-388.9602 750.5,-366.9602 677.5,-366.9602"/>
<text text-anchor="start" x="680.5" y="-374.6602" font-family="Helvetica,sans-Serif" font-size="11.00" fill="#000000">number[22]</text>
<polygon fill="none" stroke="#000000" points="453.5,-344.9602 453.5,-366.9602 677.5,-366.9602 677.5,-344.9602 453.5,-344.9602"/>
<text text-anchor="start" x="473.5" y="-352.0602" font-family="Helvetica,sans-Serif" font-size="11.00" fill="#000000">CREATED_DATETIME</text>
<polygon fill="none" stroke="#000000" points="677.5,-344.9602 677.5,-366.9602 750.5,-366.9602 750.5,-344.9602 677.5,-344.9602"/>
<text text-anchor="start" x="680.5" y="-352.6602" font-family="Helvetica,sans-Serif" font-size="11.00" fill="#000000">date[7]</text>
<polygon fill="none" stroke="#000000" points="453.5,-322.9602 453.5,-344.9602 677.5,-344.9602 677.5,-322.9602 453.5,-322.9602"/>
<text text-anchor="start" x="473.5" y="-330.0602" font-family="Helvetica,sans-Serif" font-size="11.00" fill="#000000">LAST_UPDATED_USER_ID</text>
<polygon fill="none" stroke="#000000" points="677.5,-322.9602 677.5,-344.9602 750.5,-344.9602 750.5,-322.9602 677.5,-322.9602"/>
<text text-anchor="start" x="680.5" y="-330.6602" font-family="Helvetica,sans-Serif" font-size="11.00" fill="#000000">number[22]</text>
<polygon fill="none" stroke="#000000" points="453.5,-300.9602 453.5,-322.9602 677.5,-322.9602 677.5,-300.9602 453.5,-300.9602"/>
<text text-anchor="start" x="473.5" y="-308.0602" font-family="Helvetica,sans-Serif" font-size="11.00" fill="#000000">LAST_UPDATED_DATETIME</text>
<polygon fill="none" stroke="#000000" points="677.5,-300.9602 677.5,-322.9602 750.5,-322.9602 750.5,-300.9602 677.5,-300.9602"/>
<text text-anchor="start" x="680.5" y="-308.6602" font-family="Helvetica,sans-Serif" font-size="11.00" fill="#000000">date[7]</text>
<polygon fill="#ffffff" stroke="transparent" points="453.5,-281.9602 453.5,-300.9602 556.5,-300.9602 556.5,-281.9602 453.5,-281.9602"/>
<polygon fill="none" stroke="#000000" points="453.5,-281.9602 453.5,-300.9602 556.5,-300.9602 556.5,-281.9602 453.5,-281.9602"/>
<text text-anchor="start" x="456.5" y="-288.0602" font-family="Helvetica,sans-Serif" font-size="11.00" fill="#000000">&lt; 0</text>
<polygon fill="#ffffff" stroke="transparent" points="556.5,-281.9602 556.5,-300.9602 677.5,-300.9602 677.5,-281.9602 556.5,-281.9602"/>
<polygon fill="none" stroke="#000000" points="556.5,-281.9602 556.5,-300.9602 677.5,-300.9602 677.5,-281.9602 556.5,-281.9602"/>
<text text-anchor="start" x="642.1105" y="-288.0602" font-family="Helvetica,sans-Serif" font-size="11.00" fill="#000000">8 rows</text>
<polygon fill="#ffffff" stroke="transparent" points="677.5,-281.9602 677.5,-300.9602 750.5,-300.9602 750.5,-281.9602 677.5,-281.9602"/>
<polygon fill="none" stroke="#000000" points="677.5,-281.9602 677.5,-300.9602 750.5,-300.9602 750.5,-281.9602 677.5,-281.9602"/>
<text text-anchor="start" x="731.9053" y="-288.0602" font-family="Helvetica,sans-Serif" font-size="11.00" fill="#000000">2 &gt;</text>
<polygon fill="none" stroke="#000000" stroke-width="2" points="452,-280.9602 452,-588.9602 751,-588.9602 751,-280.9602 452,-280.9602"/>
</a>
</g>
</g>
<!-- PSS_RQMNT&#45;&gt;R_PSS_RQMNT_TYPE_SUB_CATEGORY -->
<g id="edge28" class="edge">
<title>PSS_RQMNT:w&#45;&gt;R_PSS_RQMNT_TYPE_SUB_CATEGORY:e</title>
<path fill="none" stroke="#000000" d="M787.2775,-483.4272C768.1389,-499.5733 784.7204,-553.9602 750.5,-553.9602"/>
<polygon fill="#000000" stroke="#000000" points="793.3929,-481.4365 802.1143,-482.3834 797.1964,-480.1984 801,-478.9602 801,-478.9602 801,-478.9602 797.1964,-480.1984 799.8857,-475.537 793.3929,-481.4365 793.3929,-481.4365"/>
<ellipse fill="none" stroke="#000000" cx="790.3501" cy="-482.4271" rx="3.2" ry="3.2"/>
</g>
<!-- PSS_RQMNT_MANAGER&#45;&gt;R_STANDARD_REFERENCE_LIST -->
<g id="edge29" class="edge">
<title>PSS_RQMNT_MANAGER:w&#45;&gt;R_STANDARD_REFERENCE_LIST:e</title>
<path fill="none" stroke="#000000" d="M1273.7325,-817.0059C1255.0007,-826.5469 1256.8576,-855.8786 1230,-866.9602 1093.8884,-923.1209 1046.2426,-880.9602 899,-880.9602 899,-880.9602 899,-880.9602 601.5,-880.9602 447.0549,-880.9602 373.6839,-893.5145 269,-779.9602 216.0267,-722.4983 306.154,-608.9602 228,-608.9602"/>
<polygon fill="#000000" stroke="#000000" points="1280.1763,-815.6304 1288.7516,-817.4809 1284.0881,-814.7953 1288,-813.9602 1288,-813.9602 1288,-813.9602 1284.0881,-814.7953 1287.2484,-810.4395 1280.1763,-815.6304 1280.1763,-815.6304"/>
<ellipse fill="none" stroke="#000000" cx="1277.0468" cy="-816.2984" rx="3.2" ry="3.2"/>
</g>
<!-- PSS_RQMNT_MANAGER&#45;&gt;PSS_RQMNT -->
<g id="edge30" class="edge">
<title>PSS_RQMNT_MANAGER:w&#45;&gt;PSS_RQMNT:e</title>
<path fill="none" stroke="#000000" d="M1274.1613,-809.6576C1218.0746,-782.7779 1059.1625,-638.2796 1038,-613.9602 1014.5832,-587.0503 1032.672,-544.9602 997,-544.9602"/>
<polygon fill="#000000" stroke="#000000" points="1280.3607,-811.585 1286.9312,-817.3979 1284.1804,-812.7726 1288,-813.9602 1288,-813.9602 1288,-813.9602 1284.1804,-812.7726 1289.0688,-810.5225 1280.3607,-811.585 1280.3607,-811.585"/>
<ellipse fill="none" stroke="#000000" cx="1277.305" cy="-810.635" rx="3.2" ry="3.2"/>
</g>
<!-- PSS_RQMNT_TRANSFER -->
<g id="node10" class="node">
<title>PSS_RQMNT_TRANSFER</title>
<g id="a_node10"><a xlink:href="../../tables/PSS_RQMNT_TRANSFER.html" xlink:title="PSS_RQMNT_TRANSFER" target="_top">
<polygon fill="#ffffff" stroke="transparent" points="1046,-795.4602 1046,-856.4602 1222,-856.4602 1222,-795.4602 1046,-795.4602"/>
<polygon fill="#f5f5f5" stroke="transparent" points="1046,-832.9602 1046,-855.9602 1222,-855.9602 1222,-832.9602 1046,-832.9602"/>
<polygon fill="none" stroke="#000000" points="1046,-832.9602 1046,-855.9602 1222,-855.9602 1222,-832.9602 1046,-832.9602"/>
<text text-anchor="start" x="1050.5859" y="-842.0602" font-family="Helvetica,sans-Serif" font-weight="bold" font-size="11.00" fill="#000000">PSS_RQMNT_TRANSFER</text>
<text text-anchor="start" x="1187.5219" y="-841.0602" font-family="Helvetica,sans-Serif" font-size="11.00" fill="#000000">[table]</text>
<polygon fill="none" stroke="#000000" points="1046,-813.9602 1046,-832.9602 1222,-832.9602 1222,-813.9602 1046,-813.9602"/>
<text text-anchor="start" x="1049" y="-820.0602" font-family="Helvetica,sans-Serif" font-size="11.00" fill="#000000">...</text>
<polygon fill="#ffffff" stroke="transparent" points="1046,-794.9602 1046,-813.9602 1115,-813.9602 1115,-794.9602 1046,-794.9602"/>
<polygon fill="none" stroke="#000000" points="1046,-794.9602 1046,-813.9602 1115,-813.9602 1115,-794.9602 1046,-794.9602"/>
<text text-anchor="start" x="1049" y="-801.0602" font-family="Helvetica,sans-Serif" font-size="11.00" fill="#000000">&lt; 13</text>
<polygon fill="#ffffff" stroke="transparent" points="1115,-794.9602 1115,-813.9602 1180,-813.9602 1180,-794.9602 1115,-794.9602"/>
<polygon fill="none" stroke="#000000" points="1115,-794.9602 1115,-813.9602 1180,-813.9602 1180,-794.9602 1115,-794.9602"/>
<text text-anchor="start" x="1138.4956" y="-801.0602" font-family="Helvetica,sans-Serif" font-size="11.00" fill="#000000">93 rows</text>
<polygon fill="#ffffff" stroke="transparent" points="1180,-794.9602 1180,-813.9602 1222,-813.9602 1222,-794.9602 1180,-794.9602"/>
<polygon fill="none" stroke="#000000" points="1180,-794.9602 1180,-813.9602 1222,-813.9602 1222,-794.9602 1180,-794.9602"/>
<text text-anchor="start" x="1203.4053" y="-801.0602" font-family="Helvetica,sans-Serif" font-size="11.00" fill="#000000">2 &gt;</text>
</a>
</g>
</g>
<!-- PSS_RQMNT_MANAGER&#45;&gt;PSS_RQMNT_TRANSFER -->
<g id="edge31" class="edge">
<title>PSS_RQMNT_MANAGER:w&#45;&gt;PSS_RQMNT_TRANSFER:e</title>
<path fill="none" stroke="#000000" d="M1273.4527,-814.7908C1255.0467,-817.0188 1246.0539,-822.9602 1222,-822.9602"/>
<polygon fill="#000000" stroke="#000000" points="1280.013,-814.4163 1288.2052,-817.5544 1284.0065,-814.1883 1288,-813.9602 1288,-813.9602 1288,-813.9602 1284.0065,-814.1883 1287.7948,-810.3661 1280.013,-814.4163 1280.013,-814.4163"/>
<ellipse fill="none" stroke="#000000" cx="1276.8182" cy="-814.5987" rx="3.2" ry="3.2"/>
</g>
<!-- R_PSS_RQMNT_TYPE_MAIN_CATEGORY&#45;&gt;R_STANDARD_REFERENCE_LIST -->
<g id="edge41" class="edge">
<title>R_PSS_RQMNT_TYPE_MAIN_CATEGORY:w&#45;&gt;R_STANDARD_REFERENCE_LIST:e</title>
<path fill="none" stroke="#000000" d="M457.085,-721.2034C376.5605,-723.9002 338.4089,-747.1834 269,-696.9602 234.0436,-671.6663 271.1478,-608.9602 228,-608.9602"/>
<polygon fill="#000000" stroke="#000000" points="463.5011,-721.0952 471.5607,-724.5597 467.5006,-721.0277 471.5,-720.9602 471.5,-720.9602 471.5,-720.9602 467.5006,-721.0277 471.4393,-717.3607 463.5011,-721.0952 463.5011,-721.0952"/>
<ellipse fill="none" stroke="#000000" cx="460.3016" cy="-721.1492" rx="3.2" ry="3.2"/>
</g>
<!-- CONTACT -->
<g id="node7" class="node">
<title>CONTACT</title>
<g id="a_node7"><a xlink:href="../../tables/CONTACT.html" xlink:title="CONTACT" target="_top">
<polygon fill="#ffffff" stroke="transparent" points="1071,-264.4602 1071,-325.4602 1197,-325.4602 1197,-264.4602 1071,-264.4602"/>
<polygon fill="#f5f5f5" stroke="transparent" points="1071,-301.9602 1071,-324.9602 1197,-324.9602 1197,-301.9602 1071,-301.9602"/>
<polygon fill="none" stroke="#000000" points="1071,-301.9602 1071,-324.9602 1197,-324.9602 1197,-301.9602 1071,-301.9602"/>
<text text-anchor="start" x="1076" y="-311.0602" font-family="Helvetica,sans-Serif" font-weight="bold" font-size="11.00" fill="#000000">CONTACT</text>
<text text-anchor="start" x="1162.0437" y="-310.0602" font-family="Helvetica,sans-Serif" font-size="11.00" fill="#000000">[table]</text>
<polygon fill="none" stroke="#000000" points="1071,-282.9602 1071,-301.9602 1197,-301.9602 1197,-282.9602 1071,-282.9602"/>
<text text-anchor="start" x="1074" y="-289.0602" font-family="Helvetica,sans-Serif" font-size="11.00" fill="#000000">...</text>
<polygon fill="#ffffff" stroke="transparent" points="1071,-263.9602 1071,-282.9602 1098,-282.9602 1098,-263.9602 1071,-263.9602"/>
<polygon fill="none" stroke="#000000" points="1071,-263.9602 1071,-282.9602 1098,-282.9602 1098,-263.9602 1071,-263.9602"/>
<text text-anchor="start" x="1073.6452" y="-270.0602" font-family="Helvetica,sans-Serif" font-size="11.00" fill="#000000">&lt; 26</text>
<polygon fill="#ffffff" stroke="transparent" points="1098,-263.9602 1098,-282.9602 1170,-282.9602 1170,-263.9602 1098,-263.9602"/>
<polygon fill="none" stroke="#000000" points="1098,-263.9602 1098,-282.9602 1170,-282.9602 1170,-263.9602 1098,-263.9602"/>
<text text-anchor="start" x="1100.9896" y="-270.0602" font-family="Helvetica,sans-Serif" font-size="11.00" fill="#000000">165,869 rows</text>
<polygon fill="#ffffff" stroke="transparent" points="1170,-263.9602 1170,-282.9602 1197,-282.9602 1197,-263.9602 1170,-263.9602"/>
<polygon fill="none" stroke="#000000" points="1170,-263.9602 1170,-282.9602 1197,-282.9602 1197,-263.9602 1170,-263.9602"/>
<text text-anchor="start" x="1172.6452" y="-270.0602" font-family="Helvetica,sans-Serif" font-size="11.00" fill="#000000">14 &gt;</text>
</a>
</g>
</g>
<!-- CONTACT&#45;&gt;OFFENDER -->
<g id="edge7" class="edge">
<title>CONTACT:w&#45;&gt;OFFENDER:e</title>
<path fill="none" stroke="#000000" d="M1056.5033,-291.774C927.5108,-288.4016 895.5883,-240.189 760,-225.9602 689.9403,-218.6081 495.3653,-178.8403 443,-225.9602 379.3794,-283.2081 488.0856,-608.9602 402.5,-608.9602"/>
<polygon fill="#000000" stroke="#000000" points="1063.0007,-291.8574 1070.9537,-295.5599 1067.0003,-291.9088 1071,-291.9602 1071,-291.9602 1071,-291.9602 1067.0003,-291.9088 1071.0463,-288.3605 1063.0007,-291.8574 1063.0007,-291.8574"/>
<ellipse fill="none" stroke="#000000" cx="1059.8009" cy="-291.8163" rx="3.2" ry="3.2"/>
</g>
<!-- CONTACT&#45;&gt;PSS_RQMNT -->
<g id="edge8" class="edge">
<title>CONTACT:w&#45;&gt;PSS_RQMNT:e</title>
<path fill="none" stroke="#000000" d="M1057.5274,-297.7198C1019.3555,-335.379 1050.3149,-544.9602 997,-544.9602"/>
<polygon fill="#000000" stroke="#000000" points="1063.644,-295.105 1072.4151,-295.2704 1067.322,-293.5326 1071,-291.9602 1071,-291.9602 1071,-291.9602 1067.322,-293.5326 1069.5849,-288.65 1063.644,-295.105 1063.644,-295.105"/>
<ellipse fill="none" stroke="#000000" cx="1060.7016" cy="-296.3629" rx="3.2" ry="3.2"/>
</g>
<!-- CUSTODY&#45;&gt;R_STANDARD_REFERENCE_LIST -->
<g id="edge9" class="edge">
<title>CUSTODY:w&#45;&gt;R_STANDARD_REFERENCE_LIST:e</title>
<path fill="none" stroke="#000000" d="M537.0169,-639.4037C421.1598,-646.548 375.0008,-736.8258 269,-676.9602 238.2713,-659.6057 263.2907,-608.9602 228,-608.9602"/>
<polygon fill="#000000" stroke="#000000" points="543.5037,-639.2051 551.6102,-642.5585 547.5019,-639.0827 551.5,-638.9602 551.5,-638.9602 551.5,-638.9602 547.5019,-639.0827 551.3898,-635.3619 543.5037,-639.2051 543.5037,-639.2051"/>
<ellipse fill="none" stroke="#000000" cx="540.3052" cy="-639.3031" rx="3.2" ry="3.2"/>
</g>
<!-- CUSTODY&#45;&gt;OFFENDER -->
<g id="edge10" class="edge">
<title>CUSTODY:w&#45;&gt;OFFENDER:e</title>
<path fill="none" stroke="#000000" d="M536.95,-638.4645C481.5203,-634.564 464.9057,-608.9602 402.5,-608.9602"/>
<polygon fill="#000000" stroke="#000000" points="543.5046,-638.6878 551.3774,-642.5581 547.5023,-638.824 551.5,-638.9602 551.5,-638.9602 551.5,-638.9602 547.5023,-638.824 551.6226,-635.3623 543.5046,-638.6878 543.5046,-638.6878"/>
<ellipse fill="none" stroke="#000000" cx="540.3065" cy="-638.5788" rx="3.2" ry="3.2"/>
</g>
<!-- PSS_RQMNT_TRANSFER&#45;&gt;R_STANDARD_REFERENCE_LIST -->
<g id="edge32" class="edge">
<title>PSS_RQMNT_TRANSFER:w&#45;&gt;R_STANDARD_REFERENCE_LIST:e</title>
<path fill="none" stroke="#000000" d="M1031.2547,-822.9784C774.7688,-823.6085 700.9034,-840.0871 443,-785.9602 362.3582,-769.0357 327.1364,-780.3528 269,-721.9602 231.3054,-684.0995 281.4258,-608.9602 228,-608.9602"/>
<polygon fill="#000000" stroke="#000000" points="1038,-822.9701 1046.0045,-826.5602 1042,-822.9652 1046,-822.9602 1046,-822.9602 1046,-822.9602 1042,-822.9652 1045.9955,-819.3602 1038,-822.9701 1038,-822.9701"/>
<ellipse fill="none" stroke="#000000" cx="1034.8" cy="-822.9741" rx="3.2" ry="3.2"/>
</g>
<!-- PSS_RQMNT_TRANSFER&#45;&gt;R_STANDARD_REFERENCE_LIST -->
<g id="edge33" class="edge">
<title>PSS_RQMNT_TRANSFER:w&#45;&gt;R_STANDARD_REFERENCE_LIST:e</title>
<path fill="none" stroke="#000000" d="M1031.6316,-821.9632C774.7291,-804.4805 700.9616,-817.9895 443,-762.9602 362.4146,-745.7695 327.4774,-757.0113 269,-698.9602 232.2677,-662.4958 279.7582,-589.9602 228,-608.9602"/>
<polygon fill="#000000" stroke="#000000" points="1038.0192,-822.4064 1045.7508,-826.5516 1042.0096,-822.6833 1046,-822.9602 1046,-822.9602 1046,-822.9602 1042.0096,-822.6833 1046.2492,-819.3689 1038.0192,-822.4064 1038.0192,-822.4064"/>
<ellipse fill="none" stroke="#000000" cx="1034.8269" cy="-822.1848" rx="3.2" ry="3.2"/>
</g>
<!-- PSS_RQMNT_TRANSFER&#45;&gt;R_STANDARD_REFERENCE_LIST -->
<g id="edge36" class="edge">
<title>PSS_RQMNT_TRANSFER:w&#45;&gt;R_STANDARD_REFERENCE_LIST:e</title>
<path fill="none" stroke="#000000" d="M1031.2485,-822.6474C774.6557,-817.4939 700.8333,-830.9621 443,-775.9602 362.4146,-758.7695 327.4774,-770.0113 269,-711.9602 232.2677,-675.4958 279.7582,-602.9602 228,-608.9602"/>
<polygon fill="#000000" stroke="#000000" points="1038.0018,-822.7906 1045.9236,-826.5594 1042.0009,-822.8754 1046,-822.9602 1046,-822.9602 1046,-822.9602 1042.0009,-822.8754 1046.0764,-819.361 1038.0018,-822.7906 1038.0018,-822.7906"/>
<ellipse fill="none" stroke="#000000" cx="1034.8025" cy="-822.7227" rx="3.2" ry="3.2"/>
</g>
<!-- PSS_RQMNT_TRANSFER&#45;&gt;R_STANDARD_REFERENCE_LIST -->
<g id="edge37" class="edge">
<title>PSS_RQMNT_TRANSFER:w&#45;&gt;R_STANDARD_REFERENCE_LIST:e</title>
<path fill="none" stroke="#000000" d="M1031.2485,-823.3577C774.6557,-830.4939 700.8333,-843.9621 443,-788.9602 362.4146,-771.7695 327.4774,-783.0113 269,-724.9602 232.2677,-688.4958 279.7582,-615.9602 228,-608.9602"/>
<polygon fill="#000000" stroke="#000000" points="1038.0029,-823.1757 1046.097,-826.5589 1042.0015,-823.068 1046,-822.9602 1046,-822.9602 1046,-822.9602 1042.0015,-823.068 1045.903,-819.3615 1038.0029,-823.1757 1038.0029,-823.1757"/>
<ellipse fill="none" stroke="#000000" cx="1034.8041" cy="-823.262" rx="3.2" ry="3.2"/>
</g>
<!-- PSS_RQMNT_TRANSFER&#45;&gt;R_STANDARD_REFERENCE_LIST -->
<g id="edge38" class="edge">
<title>PSS_RQMNT_TRANSFER:w&#45;&gt;R_STANDARD_REFERENCE_LIST:e</title>
<path fill="none" stroke="#000000" d="M1031.6316,-824.039C774.7291,-843.4805 700.9616,-856.9895 443,-801.9602 362.4146,-784.7695 327.4774,-796.0113 269,-737.9602 232.2677,-701.4958 279.7582,-628.9602 228,-608.9602"/>
<polygon fill="#000000" stroke="#000000" points="1038.0225,-823.5592 1046.2695,-826.5501 1042.0112,-823.2597 1046,-822.9602 1046,-822.9602 1046,-822.9602 1042.0112,-823.2597 1045.7305,-819.3703 1038.0225,-823.5592 1038.0225,-823.5592"/>
<ellipse fill="none" stroke="#000000" cx="1034.8314" cy="-823.7988" rx="3.2" ry="3.2"/>
</g>
<!-- PSS_RQMNT_TRANSFER&#45;&gt;OFFENDER -->
<g id="edge34" class="edge">
<title>PSS_RQMNT_TRANSFER:w&#45;&gt;OFFENDER:e</title>
<path fill="none" stroke="#000000" d="M1032.1185,-818.9205C1023.2861,-812.6727 1019.8923,-800.8744 1005,-795.9602 945.6105,-776.3629 491.3942,-804.573 443,-764.9602 387.5699,-719.5883 474.1318,-608.9602 402.5,-608.9602"/>
<polygon fill="#000000" stroke="#000000" points="1038.3187,-820.7248 1044.9941,-826.4168 1042.1593,-821.8425 1046,-822.9602 1046,-822.9602 1046,-822.9602 1042.1593,-821.8425 1047.0059,-819.5036 1038.3187,-820.7248 1038.3187,-820.7248"/>
<ellipse fill="none" stroke="#000000" cx="1035.2461" cy="-819.8306" rx="3.2" ry="3.2"/>
</g>
<!-- PSS_RQMNT_TRANSFER&#45;&gt;PSS_RQMNT -->
<g id="edge35" class="edge">
<title>PSS_RQMNT_TRANSFER:w&#45;&gt;PSS_RQMNT:e</title>
<path fill="none" stroke="#000000" d="M1032.7346,-817.1538C995.3836,-777.2321 1054.3392,-544.9602 997,-544.9602"/>
<polygon fill="#000000" stroke="#000000" points="1038.6713,-819.7523 1044.5565,-826.2581 1042.3357,-821.3563 1046,-822.9602 1046,-822.9602 1046,-822.9602 1042.3357,-821.3563 1047.4435,-819.6623 1038.6713,-819.7523 1038.6713,-819.7523"/>
<ellipse fill="none" stroke="#000000" cx="1035.7398" cy="-818.4692" rx="3.2" ry="3.2"/>
</g>
<!-- R_PSS_RQMNT_TYPE -->
<g id="node11" class="node">
<title>R_PSS_RQMNT_TYPE</title>
<g id="a_node11"><a xlink:href="../../tables/R_PSS_RQMNT_TYPE.html" xlink:title="R_PSS_RQMNT_TYPE" target="_top">
<polygon fill="#ffffff" stroke="transparent" points="801,-600.4602 801,-727.4602 997,-727.4602 997,-600.4602 801,-600.4602"/>
<polygon fill="#f5f5f5" stroke="transparent" points="801,-703.9602 801,-726.9602 997,-726.9602 997,-703.9602 801,-703.9602"/>
<polygon fill="none" stroke="#000000" points="801,-703.9602 801,-726.9602 997,-726.9602 997,-703.9602 801,-703.9602"/>
<text text-anchor="start" x="806" y="-713.0602" font-family="Helvetica,sans-Serif" font-weight="bold" font-size="11.00" fill="#000000">R_PSS_RQMNT_TYPE</text>
<text text-anchor="start" x="962.0437" y="-712.0602" font-family="Helvetica,sans-Serif" font-size="11.00" fill="#000000">[table]</text>
<polygon fill="none" stroke="#000000" points="801,-681.9602 801,-703.9602 997,-703.9602 997,-681.9602 801,-681.9602"/>
<image xlink:href="../../images/primaryKeys.png" width="11px" height="12px" preserveAspectRatio="xMinYMin meet" x="806" y="-698.96"/>
<text text-anchor="start" x="821" y="-689.0602" font-family="Helvetica,sans-Serif" font-size="11.00" fill="#000000">PSS_RQMNT_TYPE_ID</text>
<polygon fill="none" stroke="#000000" points="801,-659.9602 801,-681.9602 997,-681.9602 997,-659.9602 801,-659.9602"/>
<image xlink:href="../../images/primaryKeys.png" width="11px" height="12px" preserveAspectRatio="xMinYMin meet" x="806" y="-676.96"/>
<text text-anchor="start" x="817.8813" y="-667.0602" font-family="Helvetica,sans-Serif" font-size="11.00" fill="#000000">PSS_RQMNT_TYPE_SUB_CAT_ID</text>
<polygon fill="none" stroke="#000000" points="801,-637.9602 801,-659.9602 997,-659.9602 997,-637.9602 801,-637.9602"/>
<image xlink:href="../../images/primaryKeys.png" width="11px" height="12px" preserveAspectRatio="xMinYMin meet" x="806" y="-654.96"/>
<text text-anchor="start" x="815.4398" y="-645.0602" font-family="Helvetica,sans-Serif" font-size="11.00" fill="#000000">PSS_RQMNT_TYPE_MAIN_CAT_ID</text>
<polygon fill="none" stroke="#000000" points="801,-618.9602 801,-637.9602 997,-637.9602 997,-618.9602 801,-618.9602"/>
<text text-anchor="start" x="804" y="-625.0602" font-family="Helvetica,sans-Serif" font-size="11.00" fill="#000000">...</text>
<polygon fill="#ffffff" stroke="transparent" points="801,-599.9602 801,-618.9602 884,-618.9602 884,-599.9602 801,-599.9602"/>
<polygon fill="none" stroke="#000000" points="801,-599.9602 801,-618.9602 884,-618.9602 884,-599.9602 801,-599.9602"/>
<text text-anchor="start" x="804" y="-606.0602" font-family="Helvetica,sans-Serif" font-size="11.00" fill="#000000">&lt; 2</text>
<polygon fill="#ffffff" stroke="transparent" points="884,-599.9602 884,-618.9602 953,-618.9602 953,-599.9602 884,-599.9602"/>
<polygon fill="none" stroke="#000000" points="884,-599.9602 884,-618.9602 953,-618.9602 953,-599.9602 884,-599.9602"/>
<text text-anchor="start" x="917.6105" y="-606.0602" font-family="Helvetica,sans-Serif" font-size="11.00" fill="#000000">7 rows</text>
<polygon fill="#ffffff" stroke="transparent" points="953,-599.9602 953,-618.9602 997,-618.9602 997,-599.9602 953,-599.9602"/>
<polygon fill="none" stroke="#000000" points="953,-599.9602 953,-618.9602 997,-618.9602 997,-599.9602 953,-599.9602"/>
<text text-anchor="start" x="987.8862" y="-606.0602" font-family="Helvetica,sans-Serif" font-size="11.00" fill="#000000"> &#160;</text>
</a>
</g>
</g>
<!-- R_PSS_RQMNT_TYPE&#45;&gt;R_PSS_RQMNT_TYPE_MAIN_CATEGORY -->
<g id="edge39" class="edge">
<title>R_PSS_RQMNT_TYPE:w&#45;&gt;R_PSS_RQMNT_TYPE_MAIN_CATEGORY:e</title>
<path fill="none" stroke="#000000" d="M786.8357,-652.241C760.8821,-666.3263 770.975,-720.9602 732.5,-720.9602"/>
<polygon fill="#000000" stroke="#000000" points="793.2063,-650.7655 801.8124,-652.4674 797.1032,-649.8628 801,-648.9602 801,-648.9602 801,-648.9602 797.1032,-649.8628 800.1876,-645.4531 793.2063,-650.7655 793.2063,-650.7655"/>
<ellipse fill="none" stroke="#000000" cx="790.0889" cy="-651.4876" rx="3.2" ry="3.2"/>
</g>
<!-- R_PSS_RQMNT_TYPE&#45;&gt;R_PSS_RQMNT_TYPE_SUB_CATEGORY -->
<g id="edge40" class="edge">
<title>R_PSS_RQMNT_TYPE:w&#45;&gt;R_PSS_RQMNT_TYPE_SUB_CATEGORY:e</title>
<path fill="none" stroke="#000000" d="M786.7844,-667.3304C756.2761,-647.582 801.1636,-553.9602 750.5,-553.9602"/>
<polygon fill="#000000" stroke="#000000" points="793.2487,-668.9809 800.1093,-674.4483 797.1244,-669.9706 801,-670.9602 801,-670.9602 801,-670.9602 797.1244,-669.9706 801.8907,-667.4721 793.2487,-668.9809 793.2487,-668.9809"/>
<ellipse fill="none" stroke="#000000" cx="790.1482" cy="-668.1892" rx="3.2" ry="3.2"/>
</g>
<!-- REJECTED_TRANSFER_DIARY -->
<g id="node12" class="node">
<title>REJECTED_TRANSFER_DIARY</title>
<g id="a_node12"><a xlink:href="../../tables/REJECTED_TRANSFER_DIARY.html" xlink:title="REJECTED_TRANSFER_DIARY" target="_top">
<polygon fill="#ffffff" stroke="transparent" points="1271,-332.4602 1271,-393.4602 1477,-393.4602 1477,-332.4602 1271,-332.4602"/>
<polygon fill="#f5f5f5" stroke="transparent" points="1271,-369.9602 1271,-392.9602 1477,-392.9602 1477,-369.9602 1271,-369.9602"/>
<polygon fill="none" stroke="#000000" points="1271,-369.9602 1271,-392.9602 1477,-392.9602 1477,-369.9602 1271,-369.9602"/>
<text text-anchor="start" x="1275.9196" y="-379.0602" font-family="Helvetica,sans-Serif" font-weight="bold" font-size="11.00" fill="#000000">REJECTED_TRANSFER_DIARY</text>
<text text-anchor="start" x="1442.5219" y="-378.0602" font-family="Helvetica,sans-Serif" font-size="11.00" fill="#000000">[table]</text>
<polygon fill="none" stroke="#000000" points="1271,-350.9602 1271,-369.9602 1477,-369.9602 1477,-350.9602 1271,-350.9602"/>
<text text-anchor="start" x="1274" y="-357.0602" font-family="Helvetica,sans-Serif" font-size="11.00" fill="#000000">...</text>
<polygon fill="#ffffff" stroke="transparent" points="1271,-331.9602 1271,-350.9602 1359,-350.9602 1359,-331.9602 1271,-331.9602"/>
<polygon fill="none" stroke="#000000" points="1271,-331.9602 1271,-350.9602 1359,-350.9602 1359,-331.9602 1271,-331.9602"/>
<text text-anchor="start" x="1274" y="-338.0602" font-family="Helvetica,sans-Serif" font-size="11.00" fill="#000000">&lt; 24</text>
<polygon fill="#ffffff" stroke="transparent" points="1359,-331.9602 1359,-350.9602 1434,-350.9602 1434,-331.9602 1359,-331.9602"/>
<polygon fill="none" stroke="#000000" points="1359,-331.9602 1359,-350.9602 1434,-350.9602 1434,-331.9602 1359,-331.9602"/>
<text text-anchor="start" x="1392.4956" y="-338.0602" font-family="Helvetica,sans-Serif" font-size="11.00" fill="#000000">26 rows</text>
<polygon fill="#ffffff" stroke="transparent" points="1434,-331.9602 1434,-350.9602 1477,-350.9602 1477,-331.9602 1434,-331.9602"/>
<polygon fill="none" stroke="#000000" points="1434,-331.9602 1434,-350.9602 1477,-350.9602 1477,-331.9602 1434,-331.9602"/>
<text text-anchor="start" x="1467.8862" y="-338.0602" font-family="Helvetica,sans-Serif" font-size="11.00" fill="#000000"> &#160;</text>
</a>
</g>
</g>
<!-- REJECTED_TRANSFER_DIARY&#45;&gt;R_STANDARD_REFERENCE_LIST -->
<g id="edge45" class="edge">
<title>REJECTED_TRANSFER_DIARY:w&#45;&gt;R_STANDARD_REFERENCE_LIST:e</title>
<path fill="none" stroke="#000000" d="M1256.7218,-357.961C1212.3457,-342.9846 1279.651,-247.7603 1230,-204.9602 964.8627,23.5929 740.3447,10.757 443,-173.9602 397.2029,-202.4104 281.9147,-608.9602 228,-608.9602"/>
<polygon fill="#000000" stroke="#000000" points="1263.0773,-358.8508 1270.5008,-363.5254 1267.0386,-359.4055 1271,-359.9602 1271,-359.9602 1271,-359.9602 1267.0386,-359.4055 1271.4992,-356.395 1263.0773,-358.8508 1263.0773,-358.8508"/>
<ellipse fill="none" stroke="#000000" cx="1259.9082" cy="-358.4071" rx="3.2" ry="3.2"/>
</g>
<!-- REJECTED_TRANSFER_DIARY&#45;&gt;OFFENDER -->
<g id="edge42" class="edge">
<title>REJECTED_TRANSFER_DIARY:w&#45;&gt;OFFENDER:e</title>
<path fill="none" stroke="#000000" d="M1256.709,-356.8719C1231.1421,-342.4399 1265.0565,-281.2002 1230,-253.9602 1160.7942,-200.1851 507.9613,-142.128 443,-200.9602 375.4668,-262.1216 493.6123,-608.9602 402.5,-608.9602"/>
<polygon fill="#000000" stroke="#000000" points="1263.1805,-358.2704 1270.2396,-363.479 1267.0902,-359.1153 1271,-359.9602 1271,-359.9602 1271,-359.9602 1267.0902,-359.1153 1271.7604,-356.4415 1263.1805,-358.2704 1263.1805,-358.2704"/>
<ellipse fill="none" stroke="#000000" cx="1260.0527" cy="-357.5944" rx="3.2" ry="3.2"/>
</g>
<!-- REJECTED_TRANSFER_DIARY&#45;&gt;PSS_RQMNT -->
<g id="edge43" class="edge">
<title>REJECTED_TRANSFER_DIARY:w&#45;&gt;PSS_RQMNT:e</title>
<path fill="none" stroke="#000000" d="M1256.5046,-360.5938C1125.2272,-372.3906 1138.9142,-544.9602 997,-544.9602"/>
<polygon fill="#000000" stroke="#000000" points="1263.0076,-360.3096 1271.1572,-363.5568 1267.0038,-360.1349 1271,-359.9602 1271,-359.9602 1271,-359.9602 1267.0038,-360.1349 1270.8428,-356.3637 1263.0076,-360.3096 1263.0076,-360.3096"/>
<ellipse fill="none" stroke="#000000" cx="1259.8107" cy="-360.4494" rx="3.2" ry="3.2"/>
</g>
<!-- REJECTED_TRANSFER_DIARY&#45;&gt;PSS_RQMNT_TRANSFER -->
<g id="edge44" class="edge">
<title>REJECTED_TRANSFER_DIARY:w&#45;&gt;PSS_RQMNT_TRANSFER:e</title>
<path fill="none" stroke="#000000" d="M1256.7358,-363.6871C1183.466,-407.5047 1320.0074,-822.9602 1222,-822.9602"/>
<polygon fill="#000000" stroke="#000000" points="1263.2598,-361.9826 1271.9101,-363.4433 1267.1299,-360.9714 1271,-359.9602 1271,-359.9602 1271,-359.9602 1267.1299,-360.9714 1270.0899,-356.4771 1263.2598,-361.9826 1263.2598,-361.9826"/>
<ellipse fill="none" stroke="#000000" cx="1260.1638" cy="-362.7915" rx="3.2" ry="3.2"/>
</g>
</g>
</svg>
