<?xml version="1.0" encoding="UTF-8" standalone="no"?>
<!DOCTYPE svg PUBLIC "-//W3C//DTD SVG 1.1//EN"
 "http://www.w3.org/Graphics/SVG/1.1/DTD/svg11.dtd">
<!-- Generated by graphviz version 2.40.1 (20161225.0304)
 -->
<!-- Title: oneDegreeRelationshipsDiagram Pages: 1 -->
<svg width="570pt" height="510pt"
 viewBox="0.00 0.00 570.00 509.70" xmlns="http://www.w3.org/2000/svg" xmlns:xlink="http://www.w3.org/1999/xlink">
<g id="graph0" class="graph" transform="scale(1 1) rotate(0) translate(4 505.7)">
<title>oneDegreeRelationshipsDiagram</title>
<polygon fill="#ffffff" stroke="transparent" points="-4,4 -4,-505.7 566,-505.7 566,4 -4,4"/>
<text text-anchor="middle" x="72.4936" y="-7.3" font-family="Helvetica,sans-Serif" font-size="11.00" fill="#000000">Generated by SchemaSpy</text>
<!-- PSS_RQMNT -->
<g id="node1" class="node">
<title>PSS_RQMNT</title>
<g id="a_node1"><a xlink:href="../../tables/PSS_RQMNT.html" xlink:title="PSS_RQMNT" target="_top">
<polygon fill="#ffffff" stroke="transparent" points="358,-304.7 358,-497.7 554,-497.7 554,-304.7 358,-304.7"/>
<polygon fill="#f5f5f5" stroke="transparent" points="358,-474.2 358,-497.2 554,-497.2 554,-474.2 358,-474.2"/>
<polygon fill="none" stroke="#000000" points="358,-474.2 358,-497.2 554,-497.2 554,-474.2 358,-474.2"/>
<text text-anchor="start" x="363" y="-483.3" font-family="Helvetica,sans-Serif" font-weight="bold" font-size="11.00" fill="#000000">PSS_RQMNT</text>
<text text-anchor="start" x="519.0437" y="-482.3" font-family="Helvetica,sans-Serif" font-size="11.00" fill="#000000">[table]</text>
<polygon fill="none" stroke="#000000" points="358,-452.2 358,-474.2 554,-474.2 554,-452.2 358,-452.2"/>
<image xlink:href="../../images/primaryKeys.png" width="11px" height="12px" preserveAspectRatio="xMinYMin meet" x="363" y="-469.2"/>
<text text-anchor="start" x="378" y="-459.3" font-family="Helvetica,sans-Serif" font-size="11.00" fill="#000000">PSS_RQMNT_ID</text>
<polygon fill="none" stroke="#000000" points="358,-430.2 358,-452.2 554,-452.2 554,-430.2 358,-430.2"/>
<image xlink:href="../../images/primaryKeys.png" width="11px" height="12px" preserveAspectRatio="xMinYMin meet" x="363" y="-447.2"/>
<text text-anchor="start" x="378" y="-437.3" font-family="Helvetica,sans-Serif" font-size="11.00" fill="#000000">CUSTODY_ID</text>
<polygon fill="none" stroke="#000000" points="358,-408.2 358,-430.2 554,-430.2 554,-408.2 358,-408.2"/>
<image xlink:href="../../images/primaryKeys.png" width="11px" height="12px" preserveAspectRatio="xMinYMin meet" x="363" y="-425.2"/>
<text text-anchor="start" x="372.4398" y="-415.3" font-family="Helvetica,sans-Serif" font-size="11.00" fill="#000000">PSS_RQMNT_TYPE_MAIN_CAT_ID</text>
<polygon fill="none" stroke="#000000" points="358,-386.2 358,-408.2 554,-408.2 554,-386.2 358,-386.2"/>
<image xlink:href="../../images/primaryKeys.png" width="11px" height="12px" preserveAspectRatio="xMinYMin meet" x="363" y="-403.2"/>
<text text-anchor="start" x="374.8813" y="-393.3" font-family="Helvetica,sans-Serif" font-size="11.00" fill="#000000">PSS_RQMNT_TYPE_SUB_CAT_ID</text>
<polygon fill="none" stroke="#000000" points="358,-364.2 358,-386.2 554,-386.2 554,-364.2 358,-364.2"/>
<image xlink:href="../../images/primaryKeys.png" width="11px" height="12px" preserveAspectRatio="xMinYMin meet" x="363" y="-381.2"/>
<text text-anchor="start" x="375.8047" y="-371.3" font-family="Helvetica,sans-Serif" font-size="11.00" fill="#000000">PSS_RQMNT_TERM_REASON_ID</text>
<polygon fill="none" stroke="#000000" points="358,-342.2 358,-364.2 554,-364.2 554,-342.2 358,-342.2"/>
<image xlink:href="../../images/primaryKeys.png" width="11px" height="12px" preserveAspectRatio="xMinYMin meet" x="363" y="-359.2"/>
<text text-anchor="start" x="378" y="-349.3" font-family="Helvetica,sans-Serif" font-size="11.00" fill="#000000">OFFENDER_ID</text>
<polygon fill="none" stroke="#000000" points="358,-323.2 358,-342.2 554,-342.2 554,-323.2 358,-323.2"/>
<text text-anchor="start" x="361" y="-329.3" font-family="Helvetica,sans-Serif" font-size="11.00" fill="#000000">...</text>
<polygon fill="#ffffff" stroke="transparent" points="358,-304.2 358,-323.2 431,-323.2 431,-304.2 358,-304.2"/>
<polygon fill="none" stroke="#000000" points="358,-304.2 358,-323.2 431,-323.2 431,-304.2 358,-304.2"/>
<text text-anchor="start" x="361" y="-310.3" font-family="Helvetica,sans-Serif" font-size="11.00" fill="#000000">&lt; 5</text>
<polygon fill="#ffffff" stroke="transparent" points="431,-304.2 431,-323.2 507,-323.2 507,-304.2 431,-304.2"/>
<polygon fill="none" stroke="#000000" points="431,-304.2 431,-323.2 507,-323.2 507,-304.2 431,-304.2"/>
<text text-anchor="start" x="459.3807" y="-310.3" font-family="Helvetica,sans-Serif" font-size="11.00" fill="#000000">746 rows</text>
<polygon fill="#ffffff" stroke="transparent" points="507,-304.2 507,-323.2 554,-323.2 554,-304.2 507,-304.2"/>
<polygon fill="none" stroke="#000000" points="507,-304.2 507,-323.2 554,-323.2 554,-304.2 507,-304.2"/>
<text text-anchor="start" x="535.4053" y="-310.3" font-family="Helvetica,sans-Serif" font-size="11.00" fill="#000000">5 &gt;</text>
</a>
</g>
</g>
<!-- R_PSS_RQMNT_TYPE_SUB_CATEGORY -->
<g id="node2" class="node">
<title>R_PSS_RQMNT_TYPE_SUB_CATEGORY</title>
<g id="a_node2"><a xlink:href="../../tables/R_PSS_RQMNT_TYPE_SUB_CATEGORY.html" xlink:title="R_PSS_RQMNT_TYPE_SUB_CATEGORY" target="_top">
<polygon fill="#ffffff" stroke="transparent" points="8,-38.2 8,-348.2 309,-348.2 309,-38.2 8,-38.2"/>
<polygon fill="#f5f5f5" stroke="transparent" points="10.5,-323.2 10.5,-346.2 307.5,-346.2 307.5,-323.2 10.5,-323.2"/>
<polygon fill="none" stroke="#000000" points="10.5,-323.2 10.5,-346.2 307.5,-346.2 307.5,-323.2 10.5,-323.2"/>
<text text-anchor="start" x="15.5" y="-332.3" font-family="Helvetica,sans-Serif" font-weight="bold" font-size="11.00" fill="#000000">R_PSS_RQMNT_TYPE_SUB_CATEGORY</text>
<text text-anchor="start" x="272.5437" y="-331.3" font-family="Helvetica,sans-Serif" font-size="11.00" fill="#000000">[table]</text>
<polygon fill="none" stroke="#000000" points="10.5,-301.2 10.5,-323.2 234.5,-323.2 234.5,-301.2 10.5,-301.2"/>
<image xlink:href="../../images/primaryKeys.png" width="11px" height="12px" preserveAspectRatio="xMinYMin meet" x="15.5" y="-318.2"/>
<text text-anchor="start" x="30.5" y="-308.3" font-family="Helvetica,sans-Serif" font-size="11.00" fill="#000000">PSS_RQMNT_TYPE_SUB_CAT_ID</text>
<polygon fill="none" stroke="#000000" points="234.5,-301.2 234.5,-323.2 307.5,-323.2 307.5,-301.2 234.5,-301.2"/>
<text text-anchor="start" x="237.5" y="-308.9" font-family="Helvetica,sans-Serif" font-size="11.00" fill="#000000">number[22]</text>
<polygon fill="none" stroke="#000000" points="10.5,-279.2 10.5,-301.2 234.5,-301.2 234.5,-279.2 10.5,-279.2"/>
<text text-anchor="start" x="30.5" y="-286.3" font-family="Helvetica,sans-Serif" font-size="11.00" fill="#000000">CODE</text>
<polygon fill="none" stroke="#000000" points="234.5,-279.2 234.5,-301.2 307.5,-301.2 307.5,-279.2 234.5,-279.2"/>
<text text-anchor="start" x="237.5" y="-286.9" font-family="Helvetica,sans-Serif" font-size="11.00" fill="#000000">varchar2[20]</text>
<polygon fill="none" stroke="#000000" points="10.5,-257.2 10.5,-279.2 234.5,-279.2 234.5,-257.2 10.5,-257.2"/>
<text text-anchor="start" x="30.5" y="-264.3" font-family="Helvetica,sans-Serif" font-size="11.00" fill="#000000">DESCRIPTION</text>
<polygon fill="none" stroke="#000000" points="234.5,-257.2 234.5,-279.2 307.5,-279.2 307.5,-257.2 234.5,-257.2"/>
<text text-anchor="start" x="237.3791" y="-264.9" font-family="Helvetica,sans-Serif" font-size="11.00" fill="#000000">varchar2[200]</text>
<polygon fill="none" stroke="#000000" points="10.5,-235.2 10.5,-257.2 234.5,-257.2 234.5,-235.2 10.5,-235.2"/>
<text text-anchor="start" x="30.5" y="-242.3" font-family="Helvetica,sans-Serif" font-size="11.00" fill="#000000">SELECTABLE</text>
<polygon fill="none" stroke="#000000" points="234.5,-235.2 234.5,-257.2 307.5,-257.2 307.5,-235.2 234.5,-235.2"/>
<text text-anchor="start" x="237.5" y="-242.9" font-family="Helvetica,sans-Serif" font-size="11.00" fill="#000000">char[1]</text>
<polygon fill="none" stroke="#000000" points="10.5,-213.2 10.5,-235.2 234.5,-235.2 234.5,-213.2 10.5,-213.2"/>
<text text-anchor="start" x="30.5" y="-220.3" font-family="Helvetica,sans-Serif" font-size="11.00" fill="#000000">EXPECTED_SECTOR</text>
<polygon fill="none" stroke="#000000" points="234.5,-213.2 234.5,-235.2 307.5,-235.2 307.5,-213.2 234.5,-213.2"/>
<text text-anchor="start" x="237.5" y="-220.9" font-family="Helvetica,sans-Serif" font-size="11.00" fill="#000000">varchar2[10]</text>
<polygon fill="none" stroke="#000000" points="10.5,-191.2 10.5,-213.2 234.5,-213.2 234.5,-191.2 10.5,-191.2"/>
<text text-anchor="start" x="30.5" y="-198.3" font-family="Helvetica,sans-Serif" font-size="11.00" fill="#000000">ALLOW_DUPLICATES</text>
<polygon fill="none" stroke="#000000" points="234.5,-191.2 234.5,-213.2 307.5,-213.2 307.5,-191.2 234.5,-191.2"/>
<text text-anchor="start" x="237.5" y="-198.9" font-family="Helvetica,sans-Serif" font-size="11.00" fill="#000000">char[1]</text>
<polygon fill="none" stroke="#000000" points="10.5,-169.2 10.5,-191.2 234.5,-191.2 234.5,-169.2 10.5,-169.2"/>
<text text-anchor="start" x="30.5" y="-176.3" font-family="Helvetica,sans-Serif" font-size="11.00" fill="#000000">INACTIVE_DUPLICATES</text>
<polygon fill="none" stroke="#000000" points="234.5,-169.2 234.5,-191.2 307.5,-191.2 307.5,-169.2 234.5,-169.2"/>
<text text-anchor="start" x="237.5" y="-176.9" font-family="Helvetica,sans-Serif" font-size="11.00" fill="#000000">char[1]</text>
<polygon fill="none" stroke="#000000" points="10.5,-147.2 10.5,-169.2 234.5,-169.2 234.5,-147.2 10.5,-147.2"/>
<text text-anchor="start" x="30.5" y="-154.3" font-family="Helvetica,sans-Serif" font-size="11.00" fill="#000000">ROW_VERSION</text>
<polygon fill="none" stroke="#000000" points="234.5,-147.2 234.5,-169.2 307.5,-169.2 307.5,-147.2 234.5,-147.2"/>
<text text-anchor="start" x="237.5" y="-154.9" font-family="Helvetica,sans-Serif" font-size="11.00" fill="#000000">number[22]</text>
<polygon fill="none" stroke="#000000" points="10.5,-125.2 10.5,-147.2 234.5,-147.2 234.5,-125.2 10.5,-125.2"/>
<text text-anchor="start" x="30.5" y="-132.3" font-family="Helvetica,sans-Serif" font-size="11.00" fill="#000000">CREATED_BY_USER_ID</text>
<polygon fill="none" stroke="#000000" points="234.5,-125.2 234.5,-147.2 307.5,-147.2 307.5,-125.2 234.5,-125.2"/>
<text text-anchor="start" x="237.5" y="-132.9" font-family="Helvetica,sans-Serif" font-size="11.00" fill="#000000">number[22]</text>
<polygon fill="none" stroke="#000000" points="10.5,-103.2 10.5,-125.2 234.5,-125.2 234.5,-103.2 10.5,-103.2"/>
<text text-anchor="start" x="30.5" y="-110.3" font-family="Helvetica,sans-Serif" font-size="11.00" fill="#000000">CREATED_DATETIME</text>
<polygon fill="none" stroke="#000000" points="234.5,-103.2 234.5,-125.2 307.5,-125.2 307.5,-103.2 234.5,-103.2"/>
<text text-anchor="start" x="237.5" y="-110.9" font-family="Helvetica,sans-Serif" font-size="11.00" fill="#000000">date[7]</text>
<polygon fill="none" stroke="#000000" points="10.5,-81.2 10.5,-103.2 234.5,-103.2 234.5,-81.2 10.5,-81.2"/>
<text text-anchor="start" x="30.5" y="-88.3" font-family="Helvetica,sans-Serif" font-size="11.00" fill="#000000">LAST_UPDATED_USER_ID</text>
<polygon fill="none" stroke="#000000" points="234.5,-81.2 234.5,-103.2 307.5,-103.2 307.5,-81.2 234.5,-81.2"/>
<text text-anchor="start" x="237.5" y="-88.9" font-family="Helvetica,sans-Serif" font-size="11.00" fill="#000000">number[22]</text>
<polygon fill="none" stroke="#000000" points="10.5,-59.2 10.5,-81.2 234.5,-81.2 234.5,-59.2 10.5,-59.2"/>
<text text-anchor="start" x="30.5" y="-66.3" font-family="Helvetica,sans-Serif" font-size="11.00" fill="#000000">LAST_UPDATED_DATETIME</text>
<polygon fill="none" stroke="#000000" points="234.5,-59.2 234.5,-81.2 307.5,-81.2 307.5,-59.2 234.5,-59.2"/>
<text text-anchor="start" x="237.5" y="-66.9" font-family="Helvetica,sans-Serif" font-size="11.00" fill="#000000">date[7]</text>
<polygon fill="#ffffff" stroke="transparent" points="10.5,-40.2 10.5,-59.2 113.5,-59.2 113.5,-40.2 10.5,-40.2"/>
<polygon fill="none" stroke="#000000" points="10.5,-40.2 10.5,-59.2 113.5,-59.2 113.5,-40.2 10.5,-40.2"/>
<text text-anchor="start" x="13.5" y="-46.3" font-family="Helvetica,sans-Serif" font-size="11.00" fill="#000000">&lt; 0</text>
<polygon fill="#ffffff" stroke="transparent" points="113.5,-40.2 113.5,-59.2 234.5,-59.2 234.5,-40.2 113.5,-40.2"/>
<polygon fill="none" stroke="#000000" points="113.5,-40.2 113.5,-59.2 234.5,-59.2 234.5,-40.2 113.5,-40.2"/>
<text text-anchor="start" x="199.1105" y="-46.3" font-family="Helvetica,sans-Serif" font-size="11.00" fill="#000000">8 rows</text>
<polygon fill="#ffffff" stroke="transparent" points="234.5,-40.2 234.5,-59.2 307.5,-59.2 307.5,-40.2 234.5,-40.2"/>
<polygon fill="none" stroke="#000000" points="234.5,-40.2 234.5,-59.2 307.5,-59.2 307.5,-40.2 234.5,-40.2"/>
<text text-anchor="start" x="288.9053" y="-46.3" font-family="Helvetica,sans-Serif" font-size="11.00" fill="#000000">2 &gt;</text>
<polygon fill="none" stroke="#000000" stroke-width="2" points="9,-39.2 9,-347.2 308,-347.2 308,-39.2 9,-39.2"/>
</a>
</g>
</g>
<!-- PSS_RQMNT&#45;&gt;R_PSS_RQMNT_TYPE_SUB_CATEGORY -->
<g id="edge1" class="edge">
<title>PSS_RQMNT:w&#45;&gt;R_PSS_RQMNT_TYPE_SUB_CATEGORY:e</title>
<path fill="none" stroke="#000000" d="M344.1216,-392.868C322.76,-375.5466 345.4344,-312.2 307.5,-312.2"/>
<polygon fill="#000000" stroke="#000000" points="350.3634,-394.8163 356.9273,-400.6365 354.1817,-396.0081 358,-397.2 358,-397.2 358,-397.2 354.1817,-396.0081 359.0727,-393.7635 350.3634,-394.8163 350.3634,-394.8163"/>
<ellipse fill="none" stroke="#000000" cx="347.3087" cy="-393.8628" rx="3.2" ry="3.2"/>
</g>
<!-- R_PSS_RQMNT_TYPE -->
<g id="node3" class="node">
<title>R_PSS_RQMNT_TYPE</title>
<g id="a_node3"><a xlink:href="../../tables/R_PSS_RQMNT_TYPE.html" xlink:title="R_PSS_RQMNT_TYPE" target="_top">
<polygon fill="#ffffff" stroke="transparent" points="358,-156.7 358,-283.7 554,-283.7 554,-156.7 358,-156.7"/>
<polygon fill="#f5f5f5" stroke="transparent" points="358,-260.2 358,-283.2 554,-283.2 554,-260.2 358,-260.2"/>
<polygon fill="none" stroke="#000000" points="358,-260.2 358,-283.2 554,-283.2 554,-260.2 358,-260.2"/>
<text text-anchor="start" x="363" y="-269.3" font-family="Helvetica,sans-Serif" font-weight="bold" font-size="11.00" fill="#000000">R_PSS_RQMNT_TYPE</text>
<text text-anchor="start" x="519.0437" y="-268.3" font-family="Helvetica,sans-Serif" font-size="11.00" fill="#000000">[table]</text>
<polygon fill="none" stroke="#000000" points="358,-238.2 358,-260.2 554,-260.2 554,-238.2 358,-238.2"/>
<image xlink:href="../../images/primaryKeys.png" width="11px" height="12px" preserveAspectRatio="xMinYMin meet" x="363" y="-255.2"/>
<text text-anchor="start" x="378" y="-245.3" font-family="Helvetica,sans-Serif" font-size="11.00" fill="#000000">PSS_RQMNT_TYPE_ID</text>
<polygon fill="none" stroke="#000000" points="358,-216.2 358,-238.2 554,-238.2 554,-216.2 358,-216.2"/>
<image xlink:href="../../images/primaryKeys.png" width="11px" height="12px" preserveAspectRatio="xMinYMin meet" x="363" y="-233.2"/>
<text text-anchor="start" x="374.8813" y="-223.3" font-family="Helvetica,sans-Serif" font-size="11.00" fill="#000000">PSS_RQMNT_TYPE_SUB_CAT_ID</text>
<polygon fill="none" stroke="#000000" points="358,-194.2 358,-216.2 554,-216.2 554,-194.2 358,-194.2"/>
<image xlink:href="../../images/primaryKeys.png" width="11px" height="12px" preserveAspectRatio="xMinYMin meet" x="363" y="-211.2"/>
<text text-anchor="start" x="372.4398" y="-201.3" font-family="Helvetica,sans-Serif" font-size="11.00" fill="#000000">PSS_RQMNT_TYPE_MAIN_CAT_ID</text>
<polygon fill="none" stroke="#000000" points="358,-175.2 358,-194.2 554,-194.2 554,-175.2 358,-175.2"/>
<text text-anchor="start" x="361" y="-181.3" font-family="Helvetica,sans-Serif" font-size="11.00" fill="#000000">...</text>
<polygon fill="#ffffff" stroke="transparent" points="358,-156.2 358,-175.2 441,-175.2 441,-156.2 358,-156.2"/>
<polygon fill="none" stroke="#000000" points="358,-156.2 358,-175.2 441,-175.2 441,-156.2 358,-156.2"/>
<text text-anchor="start" x="361" y="-162.3" font-family="Helvetica,sans-Serif" font-size="11.00" fill="#000000">&lt; 2</text>
<polygon fill="#ffffff" stroke="transparent" points="441,-156.2 441,-175.2 510,-175.2 510,-156.2 441,-156.2"/>
<polygon fill="none" stroke="#000000" points="441,-156.2 441,-175.2 510,-175.2 510,-156.2 441,-156.2"/>
<text text-anchor="start" x="474.6105" y="-162.3" font-family="Helvetica,sans-Serif" font-size="11.00" fill="#000000">7 rows</text>
<polygon fill="#ffffff" stroke="transparent" points="510,-156.2 510,-175.2 554,-175.2 554,-156.2 510,-156.2"/>
<polygon fill="none" stroke="#000000" points="510,-156.2 510,-175.2 554,-175.2 554,-156.2 510,-156.2"/>
<text text-anchor="start" x="544.8862" y="-162.3" font-family="Helvetica,sans-Serif" font-size="11.00" fill="#000000"> &#160;</text>
</a>
</g>
</g>
<!-- R_PSS_RQMNT_TYPE&#45;&gt;R_PSS_RQMNT_TYPE_SUB_CATEGORY -->
<g id="edge2" class="edge">
<title>R_PSS_RQMNT_TYPE:w&#45;&gt;R_PSS_RQMNT_TYPE_SUB_CATEGORY:e</title>
<path fill="none" stroke="#000000" d="M344.1216,-231.532C322.76,-248.8534 345.4344,-312.2 307.5,-312.2"/>
<polygon fill="#000000" stroke="#000000" points="350.3634,-229.5837 359.0727,-230.6365 354.1817,-228.3919 358,-227.2 358,-227.2 358,-227.2 354.1817,-228.3919 356.9273,-223.7635 350.3634,-229.5837 350.3634,-229.5837"/>
<ellipse fill="none" stroke="#000000" cx="347.3087" cy="-230.5372" rx="3.2" ry="3.2"/>
</g>
</g>
</svg>
