<?xml version="1.0" encoding="UTF-8" standalone="no"?>
<!DOCTYPE svg PUBLIC "-//W3C//DTD SVG 1.1//EN"
 "http://www.w3.org/Graphics/SVG/1.1/DTD/svg11.dtd">
<!-- Generated by graphviz version 2.40.1 (20161225.0304)
 -->
<!-- Title: oneDegreeRelationshipsDiagram Pages: 1 -->
<svg width="879pt" height="223pt"
 viewBox="0.00 0.00 879.00 222.70" xmlns="http://www.w3.org/2000/svg" xmlns:xlink="http://www.w3.org/1999/xlink">
<g id="graph0" class="graph" transform="scale(1 1) rotate(0) translate(4 218.7)">
<title>oneDegreeRelationshipsDiagram</title>
<polygon fill="#ffffff" stroke="transparent" points="-4,4 -4,-218.7 875,-218.7 875,4 -4,4"/>
<text text-anchor="middle" x="72.4936" y="-7.3" font-family="Helvetica,sans-Serif" font-size="11.00" fill="#000000">Generated by SchemaSpy</text>
<!-- R_PSS_RQMNT_TYPE_MAIN_CATEGORY -->
<g id="node1" class="node">
<title>R_PSS_RQMNT_TYPE_MAIN_CATEGORY</title>
<g id="a_node1"><a xlink:href="../../tables/R_PSS_RQMNT_TYPE_MAIN_CATEGORY.html" xlink:title="R_PSS_RQMNT_TYPE_MAIN_CATEGORY" target="_top">
<polygon fill="#ffffff" stroke="transparent" points="277,-64.2 277,-169.2 538,-169.2 538,-64.2 277,-64.2"/>
<polygon fill="#f5f5f5" stroke="transparent" points="277.5,-145.7 277.5,-168.7 538.5,-168.7 538.5,-145.7 277.5,-145.7"/>
<polygon fill="none" stroke="#000000" points="277.5,-145.7 277.5,-168.7 538.5,-168.7 538.5,-145.7 277.5,-145.7"/>
<text text-anchor="start" x="282.105" y="-154.8" font-family="Helvetica,sans-Serif" font-weight="bold" font-size="11.00" fill="#000000">R_PSS_RQMNT_TYPE_MAIN_CATEGORY</text>
<text text-anchor="start" x="504.0219" y="-153.8" font-family="Helvetica,sans-Serif" font-size="11.00" fill="#000000">[table]</text>
<polygon fill="none" stroke="#000000" points="277.5,-123.7 277.5,-145.7 538.5,-145.7 538.5,-123.7 277.5,-123.7"/>
<image xlink:href="../../images/primaryKeys.png" width="11px" height="12px" preserveAspectRatio="xMinYMin meet" x="282.5" y="-140.7"/>
<text text-anchor="start" x="313.5" y="-130.8" font-family="Helvetica,sans-Serif" font-size="11.00" fill="#000000">PSS_RQMNT_TYPE_MAIN_CAT_ID</text>
<polygon fill="none" stroke="#000000" points="277.5,-101.7 277.5,-123.7 538.5,-123.7 538.5,-101.7 277.5,-101.7"/>
<image xlink:href="../../images/primaryKeys.png" width="11px" height="12px" preserveAspectRatio="xMinYMin meet" x="282.5" y="-118.7"/>
<text text-anchor="start" x="313.5" y="-108.8" font-family="Helvetica,sans-Serif" font-size="11.00" fill="#000000">UNITS_ID</text>
<polygon fill="none" stroke="#000000" points="277.5,-82.7 277.5,-101.7 538.5,-101.7 538.5,-82.7 277.5,-82.7"/>
<text text-anchor="start" x="280.5" y="-88.8" font-family="Helvetica,sans-Serif" font-size="11.00" fill="#000000">...</text>
<polygon fill="#ffffff" stroke="transparent" points="277.5,-63.7 277.5,-82.7 388.5,-82.7 388.5,-63.7 277.5,-63.7"/>
<polygon fill="none" stroke="#000000" points="277.5,-63.7 277.5,-82.7 388.5,-82.7 388.5,-63.7 277.5,-63.7"/>
<text text-anchor="start" x="280.5" y="-69.8" font-family="Helvetica,sans-Serif" font-size="11.00" fill="#000000">&lt; 1</text>
<polygon fill="#ffffff" stroke="transparent" points="388.5,-63.7 388.5,-82.7 471.5,-82.7 471.5,-63.7 388.5,-63.7"/>
<polygon fill="none" stroke="#000000" points="388.5,-63.7 388.5,-82.7 471.5,-82.7 471.5,-63.7 388.5,-63.7"/>
<text text-anchor="start" x="436.1105" y="-69.8" font-family="Helvetica,sans-Serif" font-size="11.00" fill="#000000">8 rows</text>
<polygon fill="#ffffff" stroke="transparent" points="471.5,-63.7 471.5,-82.7 538.5,-82.7 538.5,-63.7 471.5,-63.7"/>
<polygon fill="none" stroke="#000000" points="471.5,-63.7 471.5,-82.7 538.5,-82.7 538.5,-63.7 471.5,-63.7"/>
<text text-anchor="start" x="519.9053" y="-69.8" font-family="Helvetica,sans-Serif" font-size="11.00" fill="#000000">6 &gt;</text>
</a>
</g>
</g>
<!-- R_STANDARD_REFERENCE_LIST -->
<g id="node2" class="node">
<title>R_STANDARD_REFERENCE_LIST</title>
<g id="a_node2"><a xlink:href="../../tables/R_STANDARD_REFERENCE_LIST.html" xlink:title="R_STANDARD_REFERENCE_LIST" target="_top">
<polygon fill="#ffffff" stroke="transparent" points="8,-38.2 8,-187.2 228,-187.2 228,-38.2 8,-38.2"/>
<polygon fill="#f5f5f5" stroke="transparent" points="8,-163.7 8,-186.7 228,-186.7 228,-163.7 8,-163.7"/>
<polygon fill="none" stroke="#000000" points="8,-163.7 8,-186.7 228,-186.7 228,-163.7 8,-163.7"/>
<text text-anchor="start" x="12.5842" y="-172.8" font-family="Helvetica,sans-Serif" font-weight="bold" font-size="11.00" fill="#000000">R_STANDARD_REFERENCE_LIST</text>
<text text-anchor="start" x="193.5219" y="-171.8" font-family="Helvetica,sans-Serif" font-size="11.00" fill="#000000">[table]</text>
<polygon fill="none" stroke="#000000" points="8,-141.7 8,-163.7 228,-163.7 228,-141.7 8,-141.7"/>
<image xlink:href="../../images/primaryKeys.png" width="11px" height="12px" preserveAspectRatio="xMinYMin meet" x="13" y="-158.7"/>
<text text-anchor="start" x="35.5558" y="-148.8" font-family="Helvetica,sans-Serif" font-size="11.00" fill="#000000">STANDARD_REFERENCE_LIST_ID</text>
<polygon fill="none" stroke="#000000" points="8,-119.7 8,-141.7 228,-141.7 228,-119.7 8,-119.7"/>
<image xlink:href="../../images/primaryKeys.png" width="11px" height="12px" preserveAspectRatio="xMinYMin meet" x="13" y="-136.7"/>
<text text-anchor="start" x="42" y="-126.8" font-family="Helvetica,sans-Serif" font-size="11.00" fill="#000000">CODE_VALUE</text>
<polygon fill="none" stroke="#000000" points="8,-97.7 8,-119.7 228,-119.7 228,-97.7 8,-97.7"/>
<image xlink:href="../../images/primaryKeys.png" width="11px" height="12px" preserveAspectRatio="xMinYMin meet" x="13" y="-114.7"/>
<text text-anchor="start" x="39.8337" y="-104.8" font-family="Helvetica,sans-Serif" font-size="11.00" fill="#000000">REFERENCE_DATA_MASTER_ID</text>
<polygon fill="none" stroke="#000000" points="8,-75.7 8,-97.7 228,-97.7 228,-75.7 8,-75.7"/>
<image xlink:href="../../images/primaryKeys.png" width="11px" height="12px" preserveAspectRatio="xMinYMin meet" x="13" y="-92.7"/>
<text text-anchor="start" x="42" y="-82.8" font-family="Helvetica,sans-Serif" font-size="11.00" fill="#000000">TRAINING_SESSION_ID</text>
<polygon fill="none" stroke="#000000" points="8,-56.7 8,-75.7 228,-75.7 228,-56.7 8,-56.7"/>
<text text-anchor="start" x="11" y="-62.8" font-family="Helvetica,sans-Serif" font-size="11.00" fill="#000000">...</text>
<polygon fill="#ffffff" stroke="transparent" points="8,-37.7 8,-56.7 79,-56.7 79,-37.7 8,-37.7"/>
<polygon fill="none" stroke="#000000" points="8,-37.7 8,-56.7 79,-56.7 79,-37.7 8,-37.7"/>
<text text-anchor="start" x="11" y="-43.8" font-family="Helvetica,sans-Serif" font-size="11.00" fill="#000000">&lt; 1</text>
<polygon fill="#ffffff" stroke="transparent" points="79,-37.7 79,-56.7 169,-56.7 169,-37.7 79,-37.7"/>
<polygon fill="none" stroke="#000000" points="79,-37.7 79,-56.7 169,-56.7 169,-37.7 79,-37.7"/>
<text text-anchor="start" x="106.094" y="-43.8" font-family="Helvetica,sans-Serif" font-size="11.00" fill="#000000">15,391 rows</text>
<polygon fill="#ffffff" stroke="transparent" points="169,-37.7 169,-56.7 228,-56.7 228,-37.7 169,-37.7"/>
<polygon fill="none" stroke="#000000" points="169,-37.7 169,-56.7 228,-56.7 228,-37.7 169,-37.7"/>
<text text-anchor="start" x="197.1755" y="-43.8" font-family="Helvetica,sans-Serif" font-size="11.00" fill="#000000">295 &gt;</text>
</a>
</g>
</g>
<!-- R_PSS_RQMNT_TYPE_MAIN_CATEGORY&#45;&gt;R_STANDARD_REFERENCE_LIST -->
<g id="edge1" class="edge">
<title>R_PSS_RQMNT_TYPE_MAIN_CATEGORY:w&#45;&gt;R_STANDARD_REFERENCE_LIST:e</title>
<path fill="none" stroke="#000000" d="M263.6565,-117.2885C250.6245,-127.7952 250.3187,-152.7 228,-152.7"/>
<polygon fill="#000000" stroke="#000000" points="269.9063,-115.217 278.6327,-116.1172 273.7031,-113.9585 277.5,-112.7 277.5,-112.7 277.5,-112.7 273.7031,-113.9585 276.3673,-109.2828 269.9063,-115.217 269.9063,-115.217"/>
<ellipse fill="none" stroke="#000000" cx="266.8688" cy="-116.2238" rx="3.2" ry="3.2"/>
</g>
<!-- R_PSS_RQMNT_TYPE_TERMINATION -->
<g id="node3" class="node">
<title>R_PSS_RQMNT_TYPE_TERMINATION</title>
<g id="a_node3"><a xlink:href="../../tables/R_PSS_RQMNT_TYPE_TERMINATION.html" xlink:title="R_PSS_RQMNT_TYPE_TERMINATION" target="_top">
<polygon fill="#ffffff" stroke="transparent" points="587,-98.7 587,-210.7 863,-210.7 863,-98.7 587,-98.7"/>
<polygon fill="#f5f5f5" stroke="transparent" points="589,-185.7 589,-208.7 861,-208.7 861,-185.7 589,-185.7"/>
<polygon fill="none" stroke="#000000" points="589,-185.7 589,-208.7 861,-208.7 861,-185.7 589,-185.7"/>
<text text-anchor="start" x="594" y="-194.8" font-family="Helvetica,sans-Serif" font-weight="bold" font-size="11.00" fill="#000000">R_PSS_RQMNT_TYPE_TERMINATION</text>
<text text-anchor="start" x="826.0437" y="-193.8" font-family="Helvetica,sans-Serif" font-size="11.00" fill="#000000">[table]</text>
<polygon fill="none" stroke="#000000" points="589,-163.7 589,-185.7 800,-185.7 800,-163.7 589,-163.7"/>
<image xlink:href="../../images/primaryKeys.png" width="11px" height="12px" preserveAspectRatio="xMinYMin meet" x="594" y="-180.7"/>
<text text-anchor="start" x="609" y="-170.8" font-family="Helvetica,sans-Serif" font-size="11.00" fill="#000000">PSS_RQMNT_TERM_REASON_ID</text>
<polygon fill="none" stroke="#000000" points="800,-163.7 800,-185.7 861,-185.7 861,-163.7 800,-163.7"/>
<text text-anchor="start" x="802.6865" y="-171.4" font-family="Helvetica,sans-Serif" font-size="11.00" fill="#000000">number[22]</text>
<polygon fill="none" stroke="#000000" points="589,-141.7 589,-163.7 800,-163.7 800,-141.7 589,-141.7"/>
<image xlink:href="../../images/primaryKeys.png" width="11px" height="12px" preserveAspectRatio="xMinYMin meet" x="594" y="-158.7"/>
<text text-anchor="start" x="609" y="-148.8" font-family="Helvetica,sans-Serif" font-size="11.00" fill="#000000">PSS_RQMNT_TYPE_MAIN_CAT_ID</text>
<polygon fill="none" stroke="#000000" points="800,-141.7 800,-163.7 861,-163.7 861,-141.7 800,-141.7"/>
<text text-anchor="start" x="802.6865" y="-149.4" font-family="Helvetica,sans-Serif" font-size="11.00" fill="#000000">number[22]</text>
<polygon fill="none" stroke="#000000" points="589,-119.7 589,-141.7 800,-141.7 800,-119.7 589,-119.7"/>
<text text-anchor="start" x="609" y="-126.8" font-family="Helvetica,sans-Serif" font-size="11.00" fill="#000000">ROW_VERSION</text>
<polygon fill="none" stroke="#000000" points="800,-119.7 800,-141.7 861,-141.7 861,-119.7 800,-119.7"/>
<text text-anchor="start" x="802.6865" y="-127.4" font-family="Helvetica,sans-Serif" font-size="11.00" fill="#000000">number[22]</text>
<polygon fill="#ffffff" stroke="transparent" points="589,-100.7 589,-119.7 680,-119.7 680,-100.7 589,-100.7"/>
<polygon fill="none" stroke="#000000" points="589,-100.7 589,-119.7 680,-119.7 680,-100.7 589,-100.7"/>
<text text-anchor="start" x="592" y="-106.8" font-family="Helvetica,sans-Serif" font-size="11.00" fill="#000000">&lt; 2</text>
<polygon fill="#ffffff" stroke="transparent" points="680,-100.7 680,-119.7 800,-119.7 800,-100.7 680,-100.7"/>
<polygon fill="none" stroke="#000000" points="680,-100.7 680,-119.7 800,-119.7 800,-100.7 680,-100.7"/>
<text text-anchor="start" x="752.3807" y="-106.8" font-family="Helvetica,sans-Serif" font-size="11.00" fill="#000000">136 rows</text>
<polygon fill="#ffffff" stroke="transparent" points="800,-100.7 800,-119.7 861,-119.7 861,-100.7 800,-100.7"/>
<polygon fill="none" stroke="#000000" points="800,-100.7 800,-119.7 861,-119.7 861,-100.7 800,-100.7"/>
<text text-anchor="start" x="842.4053" y="-106.8" font-family="Helvetica,sans-Serif" font-size="11.00" fill="#000000">0 &gt;</text>
<polygon fill="none" stroke="#000000" stroke-width="2" points="588,-99.7 588,-209.7 862,-209.7 862,-99.7 588,-99.7"/>
</a>
</g>
</g>
<!-- R_PSS_RQMNT_TYPE_TERMINATION&#45;&gt;R_PSS_RQMNT_TYPE_MAIN_CATEGORY -->
<g id="edge3" class="edge">
<title>R_PSS_RQMNT_TYPE_TERMINATION:w&#45;&gt;R_PSS_RQMNT_TYPE_MAIN_CATEGORY:e</title>
<path fill="none" stroke="#000000" d="M574.7839,-150.044C562.5637,-145.037 556.5568,-134.7 538.5,-134.7"/>
<polygon fill="#000000" stroke="#000000" points="581.1361,-151.2308 588.3388,-156.2388 585.068,-151.9654 589,-152.7 589,-152.7 589,-152.7 585.068,-151.9654 589.6612,-149.1612 581.1361,-151.2308 581.1361,-151.2308"/>
<ellipse fill="none" stroke="#000000" cx="577.9905" cy="-150.6431" rx="3.2" ry="3.2"/>
</g>
<!-- R_PSS_RQMNT_TYPE_TERMINATION&#45;&gt;R_STANDARD_REFERENCE_LIST -->
<g id="edge2" class="edge">
<title>R_PSS_RQMNT_TYPE_TERMINATION:w&#45;&gt;R_STANDARD_REFERENCE_LIST:e</title>
<path fill="none" stroke="#000000" d="M574.3701,-175.6355C565.4837,-176.8585 559.2053,-178.9348 546,-179.7 423.095,-186.8216 386.929,-215.0427 269,-179.7 248.0999,-173.4363 249.8186,-152.7 228,-152.7"/>
<polygon fill="#000000" stroke="#000000" points="581.0163,-175.2106 589.2298,-178.2927 585.0082,-174.9553 589,-174.7 589,-174.7 589,-174.7 585.0082,-174.9553 588.7702,-171.1073 581.0163,-175.2106 581.0163,-175.2106"/>
<ellipse fill="none" stroke="#000000" cx="577.8228" cy="-175.4148" rx="3.2" ry="3.2"/>
</g>
</g>
</svg>
