<?xml version="1.0" encoding="UTF-8" standalone="no"?>
<!DOCTYPE svg PUBLIC "-//W3C//DTD SVG 1.1//EN"
 "http://www.w3.org/Graphics/SVG/1.1/DTD/svg11.dtd">
<!-- Generated by graphviz version 2.40.1 (20161225.0304)
 -->
<!-- Title: oneDegreeRelationshipsDiagram Pages: 1 -->
<svg width="880pt" height="258pt"
 viewBox="0.00 0.00 880.00 258.20" xmlns="http://www.w3.org/2000/svg" xmlns:xlink="http://www.w3.org/1999/xlink">
<g id="graph0" class="graph" transform="scale(1 1) rotate(0) translate(4 254.2)">
<title>oneDegreeRelationshipsDiagram</title>
<polygon fill="#ffffff" stroke="transparent" points="-4,4 -4,-254.2 876,-254.2 876,4 -4,4"/>
<text text-anchor="middle" x="72.4936" y="-7.3" font-family="Helvetica,sans-Serif" font-size="11.00" fill="#000000">Generated by SchemaSpy</text>
<!-- R_PSS_RQMNT_TRANSFER_REASON -->
<g id="node1" class="node">
<title>R_PSS_RQMNT_TRANSFER_REASON</title>
<g id="a_node1"><a xlink:href="../../tables/R_PSS_RQMNT_TRANSFER_REASON.html" xlink:title="R_PSS_RQMNT_TRANSFER_REASON" target="_top">
<polygon fill="#ffffff" stroke="transparent" points="587,-98.7 587,-210.7 864,-210.7 864,-98.7 587,-98.7"/>
<polygon fill="#f5f5f5" stroke="transparent" points="589.5,-185.7 589.5,-208.7 862.5,-208.7 862.5,-185.7 589.5,-185.7"/>
<polygon fill="none" stroke="#000000" points="589.5,-185.7 589.5,-208.7 862.5,-208.7 862.5,-185.7 589.5,-185.7"/>
<text text-anchor="start" x="594.5" y="-194.8" font-family="Helvetica,sans-Serif" font-weight="bold" font-size="11.00" fill="#000000">R_PSS_RQMNT_TRANSFER_REASON</text>
<text text-anchor="start" x="827.5437" y="-193.8" font-family="Helvetica,sans-Serif" font-size="11.00" fill="#000000">[table]</text>
<polygon fill="none" stroke="#000000" points="589.5,-163.7 589.5,-185.7 801.5,-185.7 801.5,-163.7 589.5,-163.7"/>
<image xlink:href="../../images/primaryKeys.png" width="11px" height="12px" preserveAspectRatio="xMinYMin meet" x="594.5" y="-180.7"/>
<text text-anchor="start" x="609.5" y="-170.8" font-family="Helvetica,sans-Serif" font-size="11.00" fill="#000000">PSS_RQMNT_TYPE_MAIN_CAT_ID</text>
<polygon fill="none" stroke="#000000" points="801.5,-163.7 801.5,-185.7 862.5,-185.7 862.5,-163.7 801.5,-163.7"/>
<text text-anchor="start" x="804.1865" y="-171.4" font-family="Helvetica,sans-Serif" font-size="11.00" fill="#000000">number[22]</text>
<polygon fill="none" stroke="#000000" points="589.5,-141.7 589.5,-163.7 801.5,-163.7 801.5,-141.7 589.5,-141.7"/>
<image xlink:href="../../images/primaryKeys.png" width="11px" height="12px" preserveAspectRatio="xMinYMin meet" x="594.5" y="-158.7"/>
<text text-anchor="start" x="609.5" y="-148.8" font-family="Helvetica,sans-Serif" font-size="11.00" fill="#000000">TRANSFER_REASON_ID</text>
<polygon fill="none" stroke="#000000" points="801.5,-141.7 801.5,-163.7 862.5,-163.7 862.5,-141.7 801.5,-141.7"/>
<text text-anchor="start" x="804.1865" y="-149.4" font-family="Helvetica,sans-Serif" font-size="11.00" fill="#000000">number[22]</text>
<polygon fill="none" stroke="#000000" points="589.5,-119.7 589.5,-141.7 801.5,-141.7 801.5,-119.7 589.5,-119.7"/>
<text text-anchor="start" x="609.5" y="-126.8" font-family="Helvetica,sans-Serif" font-size="11.00" fill="#000000">ROW_VERSION</text>
<polygon fill="none" stroke="#000000" points="801.5,-119.7 801.5,-141.7 862.5,-141.7 862.5,-119.7 801.5,-119.7"/>
<text text-anchor="start" x="804.1865" y="-127.4" font-family="Helvetica,sans-Serif" font-size="11.00" fill="#000000">number[22]</text>
<polygon fill="#ffffff" stroke="transparent" points="589.5,-100.7 589.5,-119.7 683.5,-119.7 683.5,-100.7 589.5,-100.7"/>
<polygon fill="none" stroke="#000000" points="589.5,-100.7 589.5,-119.7 683.5,-119.7 683.5,-100.7 589.5,-100.7"/>
<text text-anchor="start" x="592.5" y="-106.8" font-family="Helvetica,sans-Serif" font-size="11.00" fill="#000000">&lt; 2</text>
<polygon fill="#ffffff" stroke="transparent" points="683.5,-100.7 683.5,-119.7 801.5,-119.7 801.5,-100.7 683.5,-100.7"/>
<polygon fill="none" stroke="#000000" points="683.5,-100.7 683.5,-119.7 801.5,-119.7 801.5,-100.7 683.5,-100.7"/>
<text text-anchor="start" x="759.9956" y="-106.8" font-family="Helvetica,sans-Serif" font-size="11.00" fill="#000000">64 rows</text>
<polygon fill="#ffffff" stroke="transparent" points="801.5,-100.7 801.5,-119.7 862.5,-119.7 862.5,-100.7 801.5,-100.7"/>
<polygon fill="none" stroke="#000000" points="801.5,-100.7 801.5,-119.7 862.5,-119.7 862.5,-100.7 801.5,-100.7"/>
<text text-anchor="start" x="843.9053" y="-106.8" font-family="Helvetica,sans-Serif" font-size="11.00" fill="#000000">0 &gt;</text>
<polygon fill="none" stroke="#000000" stroke-width="2" points="588,-99.7 588,-209.7 863,-209.7 863,-99.7 588,-99.7"/>
</a>
</g>
</g>
<!-- R_PSS_RQMNT_TYPE_MAIN_CATEGORY -->
<g id="node2" class="node">
<title>R_PSS_RQMNT_TYPE_MAIN_CATEGORY</title>
<g id="a_node2"><a xlink:href="../../tables/R_PSS_RQMNT_TYPE_MAIN_CATEGORY.html" xlink:title="R_PSS_RQMNT_TYPE_MAIN_CATEGORY" target="_top">
<polygon fill="#ffffff" stroke="transparent" points="277,-141.2 277,-246.2 538,-246.2 538,-141.2 277,-141.2"/>
<polygon fill="#f5f5f5" stroke="transparent" points="277.5,-222.7 277.5,-245.7 538.5,-245.7 538.5,-222.7 277.5,-222.7"/>
<polygon fill="none" stroke="#000000" points="277.5,-222.7 277.5,-245.7 538.5,-245.7 538.5,-222.7 277.5,-222.7"/>
<text text-anchor="start" x="282.105" y="-231.8" font-family="Helvetica,sans-Serif" font-weight="bold" font-size="11.00" fill="#000000">R_PSS_RQMNT_TYPE_MAIN_CATEGORY</text>
<text text-anchor="start" x="504.0219" y="-230.8" font-family="Helvetica,sans-Serif" font-size="11.00" fill="#000000">[table]</text>
<polygon fill="none" stroke="#000000" points="277.5,-200.7 277.5,-222.7 538.5,-222.7 538.5,-200.7 277.5,-200.7"/>
<image xlink:href="../../images/primaryKeys.png" width="11px" height="12px" preserveAspectRatio="xMinYMin meet" x="282.5" y="-217.7"/>
<text text-anchor="start" x="313.5" y="-207.8" font-family="Helvetica,sans-Serif" font-size="11.00" fill="#000000">PSS_RQMNT_TYPE_MAIN_CAT_ID</text>
<polygon fill="none" stroke="#000000" points="277.5,-178.7 277.5,-200.7 538.5,-200.7 538.5,-178.7 277.5,-178.7"/>
<image xlink:href="../../images/primaryKeys.png" width="11px" height="12px" preserveAspectRatio="xMinYMin meet" x="282.5" y="-195.7"/>
<text text-anchor="start" x="313.5" y="-185.8" font-family="Helvetica,sans-Serif" font-size="11.00" fill="#000000">UNITS_ID</text>
<polygon fill="none" stroke="#000000" points="277.5,-159.7 277.5,-178.7 538.5,-178.7 538.5,-159.7 277.5,-159.7"/>
<text text-anchor="start" x="280.5" y="-165.8" font-family="Helvetica,sans-Serif" font-size="11.00" fill="#000000">...</text>
<polygon fill="#ffffff" stroke="transparent" points="277.5,-140.7 277.5,-159.7 388.5,-159.7 388.5,-140.7 277.5,-140.7"/>
<polygon fill="none" stroke="#000000" points="277.5,-140.7 277.5,-159.7 388.5,-159.7 388.5,-140.7 277.5,-140.7"/>
<text text-anchor="start" x="280.5" y="-146.8" font-family="Helvetica,sans-Serif" font-size="11.00" fill="#000000">&lt; 1</text>
<polygon fill="#ffffff" stroke="transparent" points="388.5,-140.7 388.5,-159.7 471.5,-159.7 471.5,-140.7 388.5,-140.7"/>
<polygon fill="none" stroke="#000000" points="388.5,-140.7 388.5,-159.7 471.5,-159.7 471.5,-140.7 388.5,-140.7"/>
<text text-anchor="start" x="436.1105" y="-146.8" font-family="Helvetica,sans-Serif" font-size="11.00" fill="#000000">8 rows</text>
<polygon fill="#ffffff" stroke="transparent" points="471.5,-140.7 471.5,-159.7 538.5,-159.7 538.5,-140.7 471.5,-140.7"/>
<polygon fill="none" stroke="#000000" points="471.5,-140.7 471.5,-159.7 538.5,-159.7 538.5,-140.7 471.5,-140.7"/>
<text text-anchor="start" x="519.9053" y="-146.8" font-family="Helvetica,sans-Serif" font-size="11.00" fill="#000000">6 &gt;</text>
</a>
</g>
</g>
<!-- R_PSS_RQMNT_TRANSFER_REASON&#45;&gt;R_PSS_RQMNT_TYPE_MAIN_CATEGORY -->
<g id="edge1" class="edge">
<title>R_PSS_RQMNT_TRANSFER_REASON:w&#45;&gt;R_PSS_RQMNT_TYPE_MAIN_CATEGORY:e</title>
<path fill="none" stroke="#000000" d="M575.5658,-178.9444C562.14,-188.6631 560.5965,-211.7 538.5,-211.7"/>
<polygon fill="#000000" stroke="#000000" points="581.8471,-177.0311 590.549,-178.1438 585.6736,-175.8655 589.5,-174.7 589.5,-174.7 589.5,-174.7 585.6736,-175.8655 588.451,-171.2562 581.8471,-177.0311 581.8471,-177.0311"/>
<ellipse fill="none" stroke="#000000" cx="578.786" cy="-177.9635" rx="3.2" ry="3.2"/>
</g>
<!-- R_STANDARD_REFERENCE_LIST -->
<g id="node3" class="node">
<title>R_STANDARD_REFERENCE_LIST</title>
<g id="a_node3"><a xlink:href="../../tables/R_STANDARD_REFERENCE_LIST.html" xlink:title="R_STANDARD_REFERENCE_LIST" target="_top">
<polygon fill="#ffffff" stroke="transparent" points="8,-38.2 8,-187.2 228,-187.2 228,-38.2 8,-38.2"/>
<polygon fill="#f5f5f5" stroke="transparent" points="8,-163.7 8,-186.7 228,-186.7 228,-163.7 8,-163.7"/>
<polygon fill="none" stroke="#000000" points="8,-163.7 8,-186.7 228,-186.7 228,-163.7 8,-163.7"/>
<text text-anchor="start" x="12.5842" y="-172.8" font-family="Helvetica,sans-Serif" font-weight="bold" font-size="11.00" fill="#000000">R_STANDARD_REFERENCE_LIST</text>
<text text-anchor="start" x="193.5219" y="-171.8" font-family="Helvetica,sans-Serif" font-size="11.00" fill="#000000">[table]</text>
<polygon fill="none" stroke="#000000" points="8,-141.7 8,-163.7 228,-163.7 228,-141.7 8,-141.7"/>
<image xlink:href="../../images/primaryKeys.png" width="11px" height="12px" preserveAspectRatio="xMinYMin meet" x="13" y="-158.7"/>
<text text-anchor="start" x="35.5558" y="-148.8" font-family="Helvetica,sans-Serif" font-size="11.00" fill="#000000">STANDARD_REFERENCE_LIST_ID</text>
<polygon fill="none" stroke="#000000" points="8,-119.7 8,-141.7 228,-141.7 228,-119.7 8,-119.7"/>
<image xlink:href="../../images/primaryKeys.png" width="11px" height="12px" preserveAspectRatio="xMinYMin meet" x="13" y="-136.7"/>
<text text-anchor="start" x="42" y="-126.8" font-family="Helvetica,sans-Serif" font-size="11.00" fill="#000000">CODE_VALUE</text>
<polygon fill="none" stroke="#000000" points="8,-97.7 8,-119.7 228,-119.7 228,-97.7 8,-97.7"/>
<image xlink:href="../../images/primaryKeys.png" width="11px" height="12px" preserveAspectRatio="xMinYMin meet" x="13" y="-114.7"/>
<text text-anchor="start" x="39.8337" y="-104.8" font-family="Helvetica,sans-Serif" font-size="11.00" fill="#000000">REFERENCE_DATA_MASTER_ID</text>
<polygon fill="none" stroke="#000000" points="8,-75.7 8,-97.7 228,-97.7 228,-75.7 8,-75.7"/>
<image xlink:href="../../images/primaryKeys.png" width="11px" height="12px" preserveAspectRatio="xMinYMin meet" x="13" y="-92.7"/>
<text text-anchor="start" x="42" y="-82.8" font-family="Helvetica,sans-Serif" font-size="11.00" fill="#000000">TRAINING_SESSION_ID</text>
<polygon fill="none" stroke="#000000" points="8,-56.7 8,-75.7 228,-75.7 228,-56.7 8,-56.7"/>
<text text-anchor="start" x="11" y="-62.8" font-family="Helvetica,sans-Serif" font-size="11.00" fill="#000000">...</text>
<polygon fill="#ffffff" stroke="transparent" points="8,-37.7 8,-56.7 79,-56.7 79,-37.7 8,-37.7"/>
<polygon fill="none" stroke="#000000" points="8,-37.7 8,-56.7 79,-56.7 79,-37.7 8,-37.7"/>
<text text-anchor="start" x="11" y="-43.8" font-family="Helvetica,sans-Serif" font-size="11.00" fill="#000000">&lt; 1</text>
<polygon fill="#ffffff" stroke="transparent" points="79,-37.7 79,-56.7 169,-56.7 169,-37.7 79,-37.7"/>
<polygon fill="none" stroke="#000000" points="79,-37.7 79,-56.7 169,-56.7 169,-37.7 79,-37.7"/>
<text text-anchor="start" x="106.094" y="-43.8" font-family="Helvetica,sans-Serif" font-size="11.00" fill="#000000">15,391 rows</text>
<polygon fill="#ffffff" stroke="transparent" points="169,-37.7 169,-56.7 228,-56.7 228,-37.7 169,-37.7"/>
<polygon fill="none" stroke="#000000" points="169,-37.7 169,-56.7 228,-56.7 228,-37.7 169,-37.7"/>
<text text-anchor="start" x="197.1755" y="-43.8" font-family="Helvetica,sans-Serif" font-size="11.00" fill="#000000">290 &gt;</text>
</a>
</g>
</g>
<!-- R_PSS_RQMNT_TRANSFER_REASON&#45;&gt;R_STANDARD_REFERENCE_LIST -->
<g id="edge2" class="edge">
<title>R_PSS_RQMNT_TRANSFER_REASON:w&#45;&gt;R_STANDARD_REFERENCE_LIST:e</title>
<path fill="none" stroke="#000000" d="M575.2637,-149.3154C565.8001,-144.0972 561.1471,-134.3124 546,-130.7 426.2474,-102.1401 388.3975,-100.6902 269,-130.7 248.944,-135.7409 248.6798,-152.7 228,-152.7"/>
<polygon fill="#000000" stroke="#000000" points="581.7169,-150.8496 588.6673,-156.2024 585.6085,-151.7748 589.5,-152.7 589.5,-152.7 589.5,-152.7 585.6085,-151.7748 590.3327,-149.1976 581.7169,-150.8496 581.7169,-150.8496"/>
<ellipse fill="none" stroke="#000000" cx="578.6037" cy="-150.1094" rx="3.2" ry="3.2"/>
</g>
<!-- R_PSS_RQMNT_TYPE_MAIN_CATEGORY&#45;&gt;R_STANDARD_REFERENCE_LIST -->
<g id="edge3" class="edge">
<title>R_PSS_RQMNT_TYPE_MAIN_CATEGORY:w&#45;&gt;R_STANDARD_REFERENCE_LIST:e</title>
<path fill="none" stroke="#000000" d="M263.5092,-185.1631C250.8361,-175.283 249.4584,-152.7 228,-152.7"/>
<polygon fill="#000000" stroke="#000000" points="269.8901,-187.2322 276.3895,-193.1244 273.6951,-188.4661 277.5,-189.7 277.5,-189.7 277.5,-189.7 273.6951,-188.4661 278.6105,-186.2756 269.8901,-187.2322 269.8901,-187.2322"/>
<ellipse fill="none" stroke="#000000" cx="266.8462" cy="-186.2451" rx="3.2" ry="3.2"/>
</g>
</g>
</svg>
