<?xml version="1.0" encoding="UTF-8" standalone="no"?>
<!DOCTYPE svg PUBLIC "-//W3C//DTD SVG 1.1//EN"
 "http://www.w3.org/Graphics/SVG/1.1/DTD/svg11.dtd">
<!-- Generated by graphviz version 2.40.1 (20161225.0304)
 -->
<!-- Title: twoDegreesRelationshipsDiagram Pages: 1 -->
<svg width="1640pt" height="935pt"
 viewBox="0.00 0.00 1640.00 934.66" xmlns="http://www.w3.org/2000/svg" xmlns:xlink="http://www.w3.org/1999/xlink">
<g id="graph0" class="graph" transform="scale(1 1) rotate(0) translate(4 930.6618)">
<title>twoDegreesRelationshipsDiagram</title>
<polygon fill="#ffffff" stroke="transparent" points="-4,4 -4,-930.6618 1636,-930.6618 1636,4 -4,4"/>
<text text-anchor="middle" x="72.4936" y="-7.3" font-family="Helvetica,sans-Serif" font-size="11.00" fill="#000000">Generated by SchemaSpy</text>
<!-- CASELOAD -->
<g id="node1" class="node">
<title>CASELOAD</title>
<g id="a_node1"><a xlink:href="../../tables/CASELOAD.html" xlink:title="CASELOAD" target="_top">
<polygon fill="#ffffff" stroke="transparent" points="1520,-760.1064 1520,-821.1064 1624,-821.1064 1624,-760.1064 1520,-760.1064"/>
<polygon fill="#f5f5f5" stroke="transparent" points="1520,-797.6064 1520,-820.6064 1624,-820.6064 1624,-797.6064 1520,-797.6064"/>
<polygon fill="none" stroke="#000000" points="1520,-797.6064 1520,-820.6064 1624,-820.6064 1624,-797.6064 1520,-797.6064"/>
<text text-anchor="start" x="1525" y="-806.7064" font-family="Helvetica,sans-Serif" font-weight="bold" font-size="11.00" fill="#000000">CASELOAD</text>
<text text-anchor="start" x="1589.0437" y="-805.7064" font-family="Helvetica,sans-Serif" font-size="11.00" fill="#000000">[table]</text>
<polygon fill="none" stroke="#000000" points="1520,-778.6064 1520,-797.6064 1624,-797.6064 1624,-778.6064 1520,-778.6064"/>
<text text-anchor="start" x="1523" y="-784.7064" font-family="Helvetica,sans-Serif" font-size="11.00" fill="#000000">...</text>
<polygon fill="#ffffff" stroke="transparent" points="1520,-759.6064 1520,-778.6064 1547,-778.6064 1547,-759.6064 1520,-759.6064"/>
<polygon fill="none" stroke="#000000" points="1520,-759.6064 1520,-778.6064 1547,-778.6064 1547,-759.6064 1520,-759.6064"/>
<text text-anchor="start" x="1522.6452" y="-765.7064" font-family="Helvetica,sans-Serif" font-size="11.00" fill="#000000">&lt; 29</text>
<polygon fill="#ffffff" stroke="transparent" points="1547,-759.6064 1547,-778.6064 1612,-778.6064 1612,-759.6064 1547,-759.6064"/>
<polygon fill="none" stroke="#000000" points="1547,-759.6064 1547,-778.6064 1612,-778.6064 1612,-759.6064 1547,-759.6064"/>
<text text-anchor="start" x="1549.547" y="-765.7064" font-family="Helvetica,sans-Serif" font-size="11.00" fill="#000000">36,872 rows</text>
<polygon fill="#ffffff" stroke="transparent" points="1612,-759.6064 1612,-778.6064 1624,-778.6064 1624,-759.6064 1612,-759.6064"/>
<polygon fill="none" stroke="#000000" points="1612,-759.6064 1612,-778.6064 1624,-778.6064 1624,-759.6064 1612,-759.6064"/>
<text text-anchor="start" x="1614.9431" y="-765.7064" font-family="Helvetica,sans-Serif" font-size="11.00" fill="#000000"> &#160;</text>
</a>
</g>
</g>
<!-- R_STANDARD_REFERENCE_LIST -->
<g id="node2" class="node">
<title>R_STANDARD_REFERENCE_LIST</title>
<g id="a_node2"><a xlink:href="../../tables/R_STANDARD_REFERENCE_LIST.html" xlink:title="R_STANDARD_REFERENCE_LIST" target="_top">
<polygon fill="#ffffff" stroke="transparent" points="8,-582.1064 8,-643.1064 228,-643.1064 228,-582.1064 8,-582.1064"/>
<polygon fill="#f5f5f5" stroke="transparent" points="8,-619.6064 8,-642.6064 228,-642.6064 228,-619.6064 8,-619.6064"/>
<polygon fill="none" stroke="#000000" points="8,-619.6064 8,-642.6064 228,-642.6064 228,-619.6064 8,-619.6064"/>
<text text-anchor="start" x="12.5842" y="-628.7064" font-family="Helvetica,sans-Serif" font-weight="bold" font-size="11.00" fill="#000000">R_STANDARD_REFERENCE_LIST</text>
<text text-anchor="start" x="193.5219" y="-627.7064" font-family="Helvetica,sans-Serif" font-size="11.00" fill="#000000">[table]</text>
<polygon fill="none" stroke="#000000" points="8,-600.6064 8,-619.6064 228,-619.6064 228,-600.6064 8,-600.6064"/>
<text text-anchor="start" x="11" y="-606.7064" font-family="Helvetica,sans-Serif" font-size="11.00" fill="#000000">...</text>
<polygon fill="#ffffff" stroke="transparent" points="8,-581.6064 8,-600.6064 79,-600.6064 79,-581.6064 8,-581.6064"/>
<polygon fill="none" stroke="#000000" points="8,-581.6064 8,-600.6064 79,-600.6064 79,-581.6064 8,-581.6064"/>
<text text-anchor="start" x="11" y="-587.7064" font-family="Helvetica,sans-Serif" font-size="11.00" fill="#000000">&lt; 1</text>
<polygon fill="#ffffff" stroke="transparent" points="79,-581.6064 79,-600.6064 169,-600.6064 169,-581.6064 79,-581.6064"/>
<polygon fill="none" stroke="#000000" points="79,-581.6064 79,-600.6064 169,-600.6064 169,-581.6064 79,-581.6064"/>
<text text-anchor="start" x="106.094" y="-587.7064" font-family="Helvetica,sans-Serif" font-size="11.00" fill="#000000">15,391 rows</text>
<polygon fill="#ffffff" stroke="transparent" points="169,-581.6064 169,-600.6064 228,-600.6064 228,-581.6064 169,-581.6064"/>
<polygon fill="none" stroke="#000000" points="169,-581.6064 169,-600.6064 228,-600.6064 228,-581.6064 169,-581.6064"/>
<text text-anchor="start" x="197.1755" y="-587.7064" font-family="Helvetica,sans-Serif" font-size="11.00" fill="#000000">295 &gt;</text>
</a>
</g>
</g>
<!-- CASELOAD&#45;&gt;R_STANDARD_REFERENCE_LIST -->
<g id="edge1" class="edge">
<title>CASELOAD:w&#45;&gt;R_STANDARD_REFERENCE_LIST:e</title>
<path fill="none" stroke="#000000" d="M1506.1007,-791.6618C1490.6735,-804.0354 1503.86,-841.5015 1479,-858.6064 1348.8571,-948.1513 1285.973,-914.6064 1128,-914.6064 1128,-914.6064 1128,-914.6064 595.5,-914.6064 446.0964,-914.6064 366.6095,-947.7162 269,-834.6064 235.7957,-796.1293 278.8233,-609.6064 228,-609.6064"/>
<polygon fill="#000000" stroke="#000000" points="1512.3202,-789.8471 1521.0083,-791.0623 1516.1601,-788.7268 1520,-787.6064 1520,-787.6064 1520,-787.6064 1516.1601,-788.7268 1518.9917,-784.1505 1512.3202,-789.8471 1512.3202,-789.8471"/>
<ellipse fill="none" stroke="#000000" cx="1509.2483" cy="-790.7435" rx="3.2" ry="3.2"/>
</g>
<!-- CASELOAD&#45;&gt;R_STANDARD_REFERENCE_LIST -->
<g id="edge2" class="edge">
<title>CASELOAD:w&#45;&gt;R_STANDARD_REFERENCE_LIST:e</title>
<path fill="none" stroke="#000000" d="M1506.1567,-791.7919C1491.6899,-803.8565 1502.9093,-838.8436 1479,-854.6064 1383.3886,-917.6406 1338.1656,-882.6015 1224,-891.6064 875.3052,-919.1099 781.2244,-953.6873 437,-891.6064 358.8249,-877.5075 320.3544,-891.2104 269,-830.6064 204.4172,-754.3914 327.8982,-609.6064 228,-609.6064"/>
<polygon fill="#000000" stroke="#000000" points="1512.3424,-789.9217 1521.0419,-791.0523 1516.1712,-788.7641 1520,-787.6064 1520,-787.6064 1520,-787.6064 1516.1712,-788.7641 1518.9581,-784.1605 1512.3424,-789.9217 1512.3424,-789.9217"/>
<ellipse fill="none" stroke="#000000" cx="1509.2793" cy="-790.8479" rx="3.2" ry="3.2"/>
</g>
<!-- OFFENDER -->
<g id="node3" class="node">
<title>OFFENDER</title>
<g id="a_node3"><a xlink:href="../../tables/OFFENDER.html" xlink:title="OFFENDER" target="_top">
<polygon fill="#ffffff" stroke="transparent" points="277,-582.1064 277,-643.1064 396,-643.1064 396,-582.1064 277,-582.1064"/>
<polygon fill="#f5f5f5" stroke="transparent" points="277.5,-619.6064 277.5,-642.6064 396.5,-642.6064 396.5,-619.6064 277.5,-619.6064"/>
<polygon fill="none" stroke="#000000" points="277.5,-619.6064 277.5,-642.6064 396.5,-642.6064 396.5,-619.6064 277.5,-619.6064"/>
<text text-anchor="start" x="282.5" y="-628.7064" font-family="Helvetica,sans-Serif" font-weight="bold" font-size="11.00" fill="#000000">OFFENDER</text>
<text text-anchor="start" x="361.5437" y="-627.7064" font-family="Helvetica,sans-Serif" font-size="11.00" fill="#000000">[table]</text>
<polygon fill="none" stroke="#000000" points="277.5,-600.6064 277.5,-619.6064 396.5,-619.6064 396.5,-600.6064 277.5,-600.6064"/>
<text text-anchor="start" x="280.5" y="-606.7064" font-family="Helvetica,sans-Serif" font-size="11.00" fill="#000000">...</text>
<polygon fill="#ffffff" stroke="transparent" points="277.5,-581.6064 277.5,-600.6064 304.5,-600.6064 304.5,-581.6064 277.5,-581.6064"/>
<polygon fill="none" stroke="#000000" points="277.5,-581.6064 277.5,-600.6064 304.5,-600.6064 304.5,-581.6064 277.5,-581.6064"/>
<text text-anchor="start" x="280.1452" y="-587.7064" font-family="Helvetica,sans-Serif" font-size="11.00" fill="#000000">&lt; 16</text>
<polygon fill="#ffffff" stroke="transparent" points="304.5,-581.6064 304.5,-600.6064 369.5,-600.6064 369.5,-581.6064 304.5,-581.6064"/>
<polygon fill="none" stroke="#000000" points="304.5,-581.6064 304.5,-600.6064 369.5,-600.6064 369.5,-581.6064 304.5,-581.6064"/>
<text text-anchor="start" x="307.047" y="-587.7064" font-family="Helvetica,sans-Serif" font-size="11.00" fill="#000000">18,527 rows</text>
<polygon fill="#ffffff" stroke="transparent" points="369.5,-581.6064 369.5,-600.6064 396.5,-600.6064 396.5,-581.6064 369.5,-581.6064"/>
<polygon fill="none" stroke="#000000" points="369.5,-581.6064 369.5,-600.6064 396.5,-600.6064 396.5,-581.6064 369.5,-581.6064"/>
<text text-anchor="start" x="372.1452" y="-587.7064" font-family="Helvetica,sans-Serif" font-size="11.00" fill="#000000">95 &gt;</text>
</a>
</g>
</g>
<!-- CASELOAD&#45;&gt;OFFENDER -->
<g id="edge3" class="edge">
<title>CASELOAD:w&#45;&gt;OFFENDER:e</title>
<path fill="none" stroke="#000000" d="M1508.5766,-778.7526C1474.617,-717.7775 1506.3259,-361.3489 1479,-322.6064 1407.1297,-220.7089 1344.1621,-238.9156 1224,-205.6064 886.6715,-112.0982 695.7408,61.1637 437,-174.6064 365.2393,-239.9963 493.5847,-609.6064 396.5,-609.6064"/>
<polygon fill="#000000" stroke="#000000" points="1513.6769,-782.7056 1517.7946,-790.4518 1516.8384,-785.156 1520,-787.6064 1520,-787.6064 1520,-787.6064 1516.8384,-785.156 1522.2054,-784.761 1513.6769,-782.7056 1513.6769,-782.7056"/>
<ellipse fill="none" stroke="#000000" cx="1511.1476" cy="-780.7452" rx="3.2" ry="3.2"/>
</g>
<!-- PSS_RQMNT -->
<g id="node4" class="node">
<title>PSS_RQMNT</title>
<g id="a_node4"><a xlink:href="../../tables/PSS_RQMNT.html" xlink:title="PSS_RQMNT" target="_top">
<polygon fill="#ffffff" stroke="transparent" points="795,-387.1064 795,-580.1064 991,-580.1064 991,-387.1064 795,-387.1064"/>
<polygon fill="#f5f5f5" stroke="transparent" points="795,-556.6064 795,-579.6064 991,-579.6064 991,-556.6064 795,-556.6064"/>
<polygon fill="none" stroke="#000000" points="795,-556.6064 795,-579.6064 991,-579.6064 991,-556.6064 795,-556.6064"/>
<text text-anchor="start" x="800" y="-565.7064" font-family="Helvetica,sans-Serif" font-weight="bold" font-size="11.00" fill="#000000">PSS_RQMNT</text>
<text text-anchor="start" x="956.0437" y="-564.7064" font-family="Helvetica,sans-Serif" font-size="11.00" fill="#000000">[table]</text>
<polygon fill="none" stroke="#000000" points="795,-534.6064 795,-556.6064 991,-556.6064 991,-534.6064 795,-534.6064"/>
<image xlink:href="../../images/primaryKeys.png" width="11px" height="12px" preserveAspectRatio="xMinYMin meet" x="800" y="-551.606"/>
<text text-anchor="start" x="815" y="-541.7064" font-family="Helvetica,sans-Serif" font-size="11.00" fill="#000000">PSS_RQMNT_ID</text>
<polygon fill="none" stroke="#000000" points="795,-512.6064 795,-534.6064 991,-534.6064 991,-512.6064 795,-512.6064"/>
<image xlink:href="../../images/primaryKeys.png" width="11px" height="12px" preserveAspectRatio="xMinYMin meet" x="800" y="-529.606"/>
<text text-anchor="start" x="815" y="-519.7064" font-family="Helvetica,sans-Serif" font-size="11.00" fill="#000000">CUSTODY_ID</text>
<polygon fill="none" stroke="#000000" points="795,-490.6064 795,-512.6064 991,-512.6064 991,-490.6064 795,-490.6064"/>
<image xlink:href="../../images/primaryKeys.png" width="11px" height="12px" preserveAspectRatio="xMinYMin meet" x="800" y="-507.606"/>
<text text-anchor="start" x="809.4398" y="-497.7064" font-family="Helvetica,sans-Serif" font-size="11.00" fill="#000000">PSS_RQMNT_TYPE_MAIN_CAT_ID</text>
<polygon fill="none" stroke="#000000" points="795,-468.6064 795,-490.6064 991,-490.6064 991,-468.6064 795,-468.6064"/>
<image xlink:href="../../images/primaryKeys.png" width="11px" height="12px" preserveAspectRatio="xMinYMin meet" x="800" y="-485.606"/>
<text text-anchor="start" x="811.8813" y="-475.7064" font-family="Helvetica,sans-Serif" font-size="11.00" fill="#000000">PSS_RQMNT_TYPE_SUB_CAT_ID</text>
<polygon fill="none" stroke="#000000" points="795,-446.6064 795,-468.6064 991,-468.6064 991,-446.6064 795,-446.6064"/>
<image xlink:href="../../images/primaryKeys.png" width="11px" height="12px" preserveAspectRatio="xMinYMin meet" x="800" y="-463.606"/>
<text text-anchor="start" x="812.8047" y="-453.7064" font-family="Helvetica,sans-Serif" font-size="11.00" fill="#000000">PSS_RQMNT_TERM_REASON_ID</text>
<polygon fill="none" stroke="#000000" points="795,-424.6064 795,-446.6064 991,-446.6064 991,-424.6064 795,-424.6064"/>
<image xlink:href="../../images/primaryKeys.png" width="11px" height="12px" preserveAspectRatio="xMinYMin meet" x="800" y="-441.606"/>
<text text-anchor="start" x="815" y="-431.7064" font-family="Helvetica,sans-Serif" font-size="11.00" fill="#000000">OFFENDER_ID</text>
<polygon fill="none" stroke="#000000" points="795,-405.6064 795,-424.6064 991,-424.6064 991,-405.6064 795,-405.6064"/>
<text text-anchor="start" x="798" y="-411.7064" font-family="Helvetica,sans-Serif" font-size="11.00" fill="#000000">...</text>
<polygon fill="#ffffff" stroke="transparent" points="795,-386.6064 795,-405.6064 868,-405.6064 868,-386.6064 795,-386.6064"/>
<polygon fill="none" stroke="#000000" points="795,-386.6064 795,-405.6064 868,-405.6064 868,-386.6064 795,-386.6064"/>
<text text-anchor="start" x="798" y="-392.7064" font-family="Helvetica,sans-Serif" font-size="11.00" fill="#000000">&lt; 5</text>
<polygon fill="#ffffff" stroke="transparent" points="868,-386.6064 868,-405.6064 944,-405.6064 944,-386.6064 868,-386.6064"/>
<polygon fill="none" stroke="#000000" points="868,-386.6064 868,-405.6064 944,-405.6064 944,-386.6064 868,-386.6064"/>
<text text-anchor="start" x="896.3807" y="-392.7064" font-family="Helvetica,sans-Serif" font-size="11.00" fill="#000000">746 rows</text>
<polygon fill="#ffffff" stroke="transparent" points="944,-386.6064 944,-405.6064 991,-405.6064 991,-386.6064 944,-386.6064"/>
<polygon fill="none" stroke="#000000" points="944,-386.6064 944,-405.6064 991,-405.6064 991,-386.6064 944,-386.6064"/>
<text text-anchor="start" x="972.4053" y="-392.7064" font-family="Helvetica,sans-Serif" font-size="11.00" fill="#000000">5 &gt;</text>
</a>
</g>
</g>
<!-- CASELOAD&#45;&gt;PSS_RQMNT -->
<g id="edge4" class="edge">
<title>CASELOAD:w&#45;&gt;PSS_RQMNT:e</title>
<path fill="none" stroke="#000000" d="M1505.8714,-783.4071C1494.9213,-774.8376 1495.5287,-755.093 1479,-742.6064 1292.3731,-601.62 1224.8948,-545.6064 991,-545.6064"/>
<polygon fill="#000000" stroke="#000000" points="1512.3316,-785.3271 1518.9743,-791.0572 1516.1658,-786.4668 1520,-787.6064 1520,-787.6064 1520,-787.6064 1516.1658,-786.4668 1521.0257,-784.1556 1512.3316,-785.3271 1512.3316,-785.3271"/>
<ellipse fill="none" stroke="#000000" cx="1509.2642" cy="-784.4154" rx="3.2" ry="3.2"/>
</g>
<!-- PSS_RQMNT_MANAGER -->
<g id="node5" class="node">
<title>PSS_RQMNT_MANAGER</title>
<g id="a_node5"><a xlink:href="../../tables/PSS_RQMNT_MANAGER.html" xlink:title="PSS_RQMNT_MANAGER" target="_top">
<polygon fill="#ffffff" stroke="transparent" points="1281.5,-787.1064 1281.5,-848.1064 1454.5,-848.1064 1454.5,-787.1064 1281.5,-787.1064"/>
<polygon fill="#f5f5f5" stroke="transparent" points="1282,-824.6064 1282,-847.6064 1455,-847.6064 1455,-824.6064 1282,-824.6064"/>
<polygon fill="none" stroke="#000000" points="1282,-824.6064 1282,-847.6064 1455,-847.6064 1455,-824.6064 1282,-824.6064"/>
<text text-anchor="start" x="1286.9169" y="-833.7064" font-family="Helvetica,sans-Serif" font-weight="bold" font-size="11.00" fill="#000000">PSS_RQMNT_MANAGER</text>
<text text-anchor="start" x="1420.5219" y="-832.7064" font-family="Helvetica,sans-Serif" font-size="11.00" fill="#000000">[table]</text>
<polygon fill="none" stroke="#000000" points="1282,-805.6064 1282,-824.6064 1455,-824.6064 1455,-805.6064 1282,-805.6064"/>
<text text-anchor="start" x="1285" y="-811.7064" font-family="Helvetica,sans-Serif" font-size="11.00" fill="#000000">...</text>
<polygon fill="#ffffff" stroke="transparent" points="1282,-786.6064 1282,-805.6064 1346,-805.6064 1346,-786.6064 1282,-786.6064"/>
<polygon fill="none" stroke="#000000" points="1282,-786.6064 1282,-805.6064 1346,-805.6064 1346,-786.6064 1282,-786.6064"/>
<text text-anchor="start" x="1285" y="-792.7064" font-family="Helvetica,sans-Serif" font-size="11.00" fill="#000000">&lt; 11</text>
<polygon fill="#ffffff" stroke="transparent" points="1346,-786.6064 1346,-805.6064 1415,-805.6064 1415,-786.6064 1346,-786.6064"/>
<polygon fill="none" stroke="#000000" points="1346,-786.6064 1346,-805.6064 1415,-805.6064 1415,-786.6064 1346,-786.6064"/>
<text text-anchor="start" x="1367.3807" y="-792.7064" font-family="Helvetica,sans-Serif" font-size="11.00" fill="#000000">809 rows</text>
<polygon fill="#ffffff" stroke="transparent" points="1415,-786.6064 1415,-805.6064 1455,-805.6064 1455,-786.6064 1415,-786.6064"/>
<polygon fill="none" stroke="#000000" points="1415,-786.6064 1415,-805.6064 1455,-805.6064 1455,-786.6064 1415,-786.6064"/>
<text text-anchor="start" x="1436.4053" y="-792.7064" font-family="Helvetica,sans-Serif" font-size="11.00" fill="#000000">1 &gt;</text>
</a>
</g>
</g>
<!-- CASELOAD&#45;&gt;PSS_RQMNT_MANAGER -->
<g id="edge5" class="edge">
<title>CASELOAD:w&#45;&gt;PSS_RQMNT_MANAGER:e</title>
<path fill="none" stroke="#000000" d="M1505.5964,-789.9084C1486.9112,-796.4378 1480.6611,-814.6064 1455,-814.6064"/>
<polygon fill="#000000" stroke="#000000" points="1512.1003,-788.869 1520.5682,-791.1613 1516.0501,-788.2377 1520,-787.6064 1520,-787.6064 1520,-787.6064 1516.0501,-788.2377 1519.4318,-784.0515 1512.1003,-788.869 1512.1003,-788.869"/>
<ellipse fill="none" stroke="#000000" cx="1508.9404" cy="-789.374" rx="3.2" ry="3.2"/>
</g>
<!-- R_PSS_RQMNT_TYPE_MAIN_CATEGORY -->
<g id="node6" class="node">
<title>R_PSS_RQMNT_TYPE_MAIN_CATEGORY</title>
<g id="a_node6"><a xlink:href="../../tables/R_PSS_RQMNT_TYPE_MAIN_CATEGORY.html" xlink:title="R_PSS_RQMNT_TYPE_MAIN_CATEGORY" target="_top">
<polygon fill="#ffffff" stroke="transparent" points="465,-694.1064 465,-755.1064 726,-755.1064 726,-694.1064 465,-694.1064"/>
<polygon fill="#f5f5f5" stroke="transparent" points="465.5,-731.6064 465.5,-754.6064 726.5,-754.6064 726.5,-731.6064 465.5,-731.6064"/>
<polygon fill="none" stroke="#000000" points="465.5,-731.6064 465.5,-754.6064 726.5,-754.6064 726.5,-731.6064 465.5,-731.6064"/>
<text text-anchor="start" x="470.105" y="-740.7064" font-family="Helvetica,sans-Serif" font-weight="bold" font-size="11.00" fill="#000000">R_PSS_RQMNT_TYPE_MAIN_CATEGORY</text>
<text text-anchor="start" x="692.0219" y="-739.7064" font-family="Helvetica,sans-Serif" font-size="11.00" fill="#000000">[table]</text>
<polygon fill="none" stroke="#000000" points="465.5,-712.6064 465.5,-731.6064 726.5,-731.6064 726.5,-712.6064 465.5,-712.6064"/>
<text text-anchor="start" x="468.5" y="-718.7064" font-family="Helvetica,sans-Serif" font-size="11.00" fill="#000000">...</text>
<polygon fill="#ffffff" stroke="transparent" points="465.5,-693.6064 465.5,-712.6064 576.5,-712.6064 576.5,-693.6064 465.5,-693.6064"/>
<polygon fill="none" stroke="#000000" points="465.5,-693.6064 465.5,-712.6064 576.5,-712.6064 576.5,-693.6064 465.5,-693.6064"/>
<text text-anchor="start" x="468.5" y="-699.7064" font-family="Helvetica,sans-Serif" font-size="11.00" fill="#000000">&lt; 1</text>
<polygon fill="#ffffff" stroke="transparent" points="576.5,-693.6064 576.5,-712.6064 659.5,-712.6064 659.5,-693.6064 576.5,-693.6064"/>
<polygon fill="none" stroke="#000000" points="576.5,-693.6064 576.5,-712.6064 659.5,-712.6064 659.5,-693.6064 576.5,-693.6064"/>
<text text-anchor="start" x="624.1105" y="-699.7064" font-family="Helvetica,sans-Serif" font-size="11.00" fill="#000000">8 rows</text>
<polygon fill="#ffffff" stroke="transparent" points="659.5,-693.6064 659.5,-712.6064 726.5,-712.6064 726.5,-693.6064 659.5,-693.6064"/>
<polygon fill="none" stroke="#000000" points="659.5,-693.6064 659.5,-712.6064 726.5,-712.6064 726.5,-693.6064 659.5,-693.6064"/>
<text text-anchor="start" x="707.9053" y="-699.7064" font-family="Helvetica,sans-Serif" font-size="11.00" fill="#000000">6 &gt;</text>
</a>
</g>
</g>
<!-- CASELOAD&#45;&gt;R_PSS_RQMNT_TYPE_MAIN_CATEGORY -->
<g id="edge6" class="edge">
<title>CASELOAD:w&#45;&gt;R_PSS_RQMNT_TYPE_MAIN_CATEGORY:e</title>
<path fill="none" stroke="#000000" d="M1505.5972,-785.5665C1497.3371,-782.9847 1491.6627,-778.6303 1479,-776.6064 1174.8415,-727.9929 1090.8662,-789.0148 787,-738.6064 759.4463,-734.0355 754.4302,-721.6064 726.5,-721.6064"/>
<polygon fill="#000000" stroke="#000000" points="1512.079,-786.4845 1519.4952,-791.1708 1516.0395,-787.0455 1520,-787.6064 1520,-787.6064 1520,-787.6064 1516.0395,-787.0455 1520.5048,-784.042 1512.079,-786.4845 1512.079,-786.4845"/>
<ellipse fill="none" stroke="#000000" cx="1508.9107" cy="-786.0358" rx="3.2" ry="3.2"/>
</g>
<!-- OFFENDER&#45;&gt;R_STANDARD_REFERENCE_LIST -->
<g id="edge11" class="edge">
<title>OFFENDER:w&#45;&gt;R_STANDARD_REFERENCE_LIST:e</title>
<path fill="none" stroke="#000000" d="M273.4429,-595.4964C254.7225,-531.9304 248.582,-536.6337 228,-609.6064"/>
<polygon fill="#000000" stroke="#000000" points="275.2892,-601.9179 274.0402,-610.6012 276.3946,-605.7622 277.5,-609.6064 277.5,-609.6064 277.5,-609.6064 276.3946,-605.7622 280.9598,-608.6116 275.2892,-601.9179 275.2892,-601.9179"/>
<ellipse fill="none" stroke="#000000" cx="274.4049" cy="-598.8425" rx="3.2" ry="3.2"/>
</g>
<!-- OFFENDER&#45;&gt;R_STANDARD_REFERENCE_LIST -->
<g id="edge12" class="edge">
<title>OFFENDER:w&#45;&gt;R_STANDARD_REFERENCE_LIST:e</title>
<path fill="none" stroke="#000000" d="M272.7453,-595.8843C254.5664,-544.9835 248.3242,-549.5576 228,-609.6064"/>
<polygon fill="#000000" stroke="#000000" points="274.8807,-602.0473 274.0984,-610.7851 276.1904,-605.8269 277.5,-609.6064 277.5,-609.6064 277.5,-609.6064 276.1904,-605.8269 280.9016,-608.4277 274.8807,-602.0473 274.8807,-602.0473"/>
<ellipse fill="none" stroke="#000000" cx="273.833" cy="-599.0237" rx="3.2" ry="3.2"/>
</g>
<!-- OFFENDER&#45;&gt;R_STANDARD_REFERENCE_LIST -->
<g id="edge13" class="edge">
<title>OFFENDER:w&#45;&gt;R_STANDARD_REFERENCE_LIST:e</title>
<path fill="none" stroke="#000000" d="M271.7204,-596.3525C254.3237,-558.0634 247.9375,-562.4814 228,-609.6064"/>
<polygon fill="#000000" stroke="#000000" points="274.3022,-602.2733 274.2001,-611.0454 275.9011,-605.9398 277.5,-609.6064 277.5,-609.6064 277.5,-609.6064 275.9011,-605.9398 280.7999,-608.1674 274.3022,-602.2733 274.3022,-602.2733"/>
<ellipse fill="none" stroke="#000000" cx="273.0231" cy="-599.34" rx="3.2" ry="3.2"/>
</g>
<!-- OFFENDER&#45;&gt;R_STANDARD_REFERENCE_LIST -->
<g id="edge14" class="edge">
<title>OFFENDER:w&#45;&gt;R_STANDARD_REFERENCE_LIST:e</title>
<path fill="none" stroke="#000000" d="M270.1751,-597.1541C253.926,-571.1783 247.3359,-575.329 228,-609.6064"/>
<polygon fill="#000000" stroke="#000000" points="273.4438,-602.7109 274.397,-611.4317 275.4719,-606.1587 277.5,-609.6064 277.5,-609.6064 277.5,-609.6064 275.4719,-606.1587 280.603,-607.7811 273.4438,-602.7109 273.4438,-602.7109"/>
<ellipse fill="none" stroke="#000000" cx="271.8213" cy="-599.9527" rx="3.2" ry="3.2"/>
</g>
<!-- OFFENDER&#45;&gt;R_STANDARD_REFERENCE_LIST -->
<g id="edge15" class="edge">
<title>OFFENDER:w&#45;&gt;R_STANDARD_REFERENCE_LIST:e</title>
<path fill="none" stroke="#000000" d="M267.8585,-598.909C253.2512,-584.3062 246.3906,-587.872 228,-609.6064"/>
<polygon fill="#000000" stroke="#000000" points="272.144,-603.6638 274.8259,-612.0166 274.822,-606.6351 277.5,-609.6064 277.5,-609.6064 277.5,-609.6064 274.822,-606.6351 280.1741,-607.1962 272.144,-603.6638 272.144,-603.6638"/>
<ellipse fill="none" stroke="#000000" cx="270.0016" cy="-601.2868" rx="3.2" ry="3.2"/>
</g>
<!-- OFFENDER&#45;&gt;R_STANDARD_REFERENCE_LIST -->
<g id="edge16" class="edge">
<title>OFFENDER:w&#45;&gt;R_STANDARD_REFERENCE_LIST:e</title>
<path fill="none" stroke="#000000" d="M264.704,-602.7723C252.1609,-597.2737 245.0156,-599.5517 228,-609.6064"/>
<polygon fill="#000000" stroke="#000000" points="270.4433,-605.8376 275.804,-612.7819 273.9717,-607.722 277.5,-609.6064 277.5,-609.6064 277.5,-609.6064 273.9717,-607.722 279.196,-606.4309 270.4433,-605.8376 270.4433,-605.8376"/>
<ellipse fill="none" stroke="#000000" cx="267.6207" cy="-604.3301" rx="3.2" ry="3.2"/>
</g>
<!-- OFFENDER&#45;&gt;R_STANDARD_REFERENCE_LIST -->
<g id="edge17" class="edge">
<title>OFFENDER:w&#45;&gt;R_STANDARD_REFERENCE_LIST:e</title>
<path fill="none" stroke="#000000" d="M262.8428,-609.6064C251.4139,-609.6064 244.1563,-609.6064 228,-609.6064"/>
<polygon fill="#000000" stroke="#000000" points="269.5,-609.6064 277.5,-613.2064 273.5,-609.6064 277.5,-609.6064 277.5,-609.6064 277.5,-609.6064 273.5,-609.6064 277.5,-606.0064 269.5,-609.6064 269.5,-609.6064"/>
<ellipse fill="none" stroke="#000000" cx="266.3" cy="-609.6065" rx="3.2" ry="3.2"/>
</g>
<!-- OFFENDER&#45;&gt;R_STANDARD_REFERENCE_LIST -->
<g id="edge18" class="edge">
<title>OFFENDER:w&#45;&gt;R_STANDARD_REFERENCE_LIST:e</title>
<path fill="none" stroke="#000000" d="M264.704,-616.4404C252.1609,-621.9391 245.0156,-619.6611 228,-609.6064"/>
<polygon fill="#000000" stroke="#000000" points="270.4433,-613.3752 279.196,-612.7819 273.9717,-611.4908 277.5,-609.6064 277.5,-609.6064 277.5,-609.6064 273.9717,-611.4908 275.804,-606.4309 270.4433,-613.3752 270.4433,-613.3752"/>
<ellipse fill="none" stroke="#000000" cx="267.6207" cy="-614.8827" rx="3.2" ry="3.2"/>
</g>
<!-- OFFENDER&#45;&gt;R_STANDARD_REFERENCE_LIST -->
<g id="edge19" class="edge">
<title>OFFENDER:w&#45;&gt;R_STANDARD_REFERENCE_LIST:e</title>
<path fill="none" stroke="#000000" d="M267.8585,-620.3038C253.2512,-634.9066 246.3906,-631.3408 228,-609.6064"/>
<polygon fill="#000000" stroke="#000000" points="272.144,-615.5489 280.1741,-612.0166 274.822,-612.5777 277.5,-609.6064 277.5,-609.6064 277.5,-609.6064 274.822,-612.5777 274.8259,-607.1962 272.144,-615.5489 272.144,-615.5489"/>
<ellipse fill="none" stroke="#000000" cx="270.0016" cy="-617.926" rx="3.2" ry="3.2"/>
</g>
<!-- OFFENDER&#45;&gt;R_STANDARD_REFERENCE_LIST -->
<g id="edge20" class="edge">
<title>OFFENDER:w&#45;&gt;R_STANDARD_REFERENCE_LIST:e</title>
<path fill="none" stroke="#000000" d="M270.1751,-622.0587C253.926,-648.0345 247.3359,-643.8837 228,-609.6064"/>
<polygon fill="#000000" stroke="#000000" points="273.4438,-616.5019 280.603,-611.4317 275.4719,-613.0541 277.5,-609.6064 277.5,-609.6064 277.5,-609.6064 275.4719,-613.0541 274.397,-607.7811 273.4438,-616.5019 273.4438,-616.5019"/>
<ellipse fill="none" stroke="#000000" cx="271.8213" cy="-619.2601" rx="3.2" ry="3.2"/>
</g>
<!-- OFFENDER&#45;&gt;R_STANDARD_REFERENCE_LIST -->
<g id="edge21" class="edge">
<title>OFFENDER:w&#45;&gt;R_STANDARD_REFERENCE_LIST:e</title>
<path fill="none" stroke="#000000" d="M271.7204,-622.8603C254.3237,-661.1494 247.9375,-656.7314 228,-609.6064"/>
<polygon fill="#000000" stroke="#000000" points="274.3022,-616.9395 280.7999,-611.0454 275.9011,-613.2729 277.5,-609.6064 277.5,-609.6064 277.5,-609.6064 275.9011,-613.2729 274.2001,-608.1674 274.3022,-616.9395 274.3022,-616.9395"/>
<ellipse fill="none" stroke="#000000" cx="273.0231" cy="-619.8727" rx="3.2" ry="3.2"/>
</g>
<!-- OFFENDER&#45;&gt;R_STANDARD_REFERENCE_LIST -->
<g id="edge22" class="edge">
<title>OFFENDER:w&#45;&gt;R_STANDARD_REFERENCE_LIST:e</title>
<path fill="none" stroke="#000000" d="M272.7453,-623.3285C254.5664,-674.2293 248.3242,-669.6552 228,-609.6064"/>
<polygon fill="#000000" stroke="#000000" points="274.8807,-617.1655 280.9016,-610.7851 276.1904,-613.3859 277.5,-609.6064 277.5,-609.6064 277.5,-609.6064 276.1904,-613.3859 274.0984,-608.4277 274.8807,-617.1655 274.8807,-617.1655"/>
<ellipse fill="none" stroke="#000000" cx="273.833" cy="-620.1891" rx="3.2" ry="3.2"/>
</g>
<!-- OFFENDER&#45;&gt;R_STANDARD_REFERENCE_LIST -->
<g id="edge23" class="edge">
<title>OFFENDER:w&#45;&gt;R_STANDARD_REFERENCE_LIST:e</title>
<path fill="none" stroke="#000000" d="M273.4429,-623.7163C254.7225,-687.2824 248.582,-682.579 228,-609.6064"/>
<polygon fill="#000000" stroke="#000000" points="275.2892,-617.2949 280.9598,-610.6012 276.3946,-613.4506 277.5,-609.6064 277.5,-609.6064 277.5,-609.6064 276.3946,-613.4506 274.0402,-608.6116 275.2892,-617.2949 275.2892,-617.2949"/>
<ellipse fill="none" stroke="#000000" cx="274.4049" cy="-620.3703" rx="3.2" ry="3.2"/>
</g>
<!-- PSS_RQMNT&#45;&gt;R_STANDARD_REFERENCE_LIST -->
<g id="edge26" class="edge">
<title>PSS_RQMNT:w&#45;&gt;R_STANDARD_REFERENCE_LIST:e</title>
<path fill="none" stroke="#000000" d="M780.5263,-455.9007C723.7954,-440.2081 815.8922,-320.3988 754,-270.6064 726.5564,-248.528 462.9529,-246.7935 437,-270.6064 374.055,-328.3611 466.945,-595.8517 404,-653.6064 359.7901,-694.1709 324.0191,-677.5416 269,-653.6064 244.4894,-642.9434 254.7296,-609.6064 228,-609.6064"/>
<polygon fill="#000000" stroke="#000000" points="787.055,-456.6701 794.5787,-461.1817 791.0275,-457.1382 795,-457.6064 795,-457.6064 795,-457.6064 791.0275,-457.1382 795.4213,-454.0311 787.055,-456.6701 787.055,-456.6701"/>
<ellipse fill="none" stroke="#000000" cx="783.877" cy="-456.2955" rx="3.2" ry="3.2"/>
</g>
<!-- PSS_RQMNT&#45;&gt;OFFENDER -->
<g id="edge25" class="edge">
<title>PSS_RQMNT:w&#45;&gt;OFFENDER:e</title>
<path fill="none" stroke="#000000" d="M780.3831,-433.8831C723.115,-418.028 816.4682,-296.9763 754,-246.6064 726.5809,-224.4976 463.2504,-223.1219 437,-246.6064 376.5078,-300.7248 477.6672,-609.6064 396.5,-609.6064"/>
<polygon fill="#000000" stroke="#000000" points="787.055,-434.6697 794.5785,-439.1816 791.0275,-435.138 795,-435.6064 795,-435.6064 795,-435.6064 791.0275,-435.138 795.4215,-432.0312 787.055,-434.6697 787.055,-434.6697"/>
<ellipse fill="none" stroke="#000000" cx="783.877" cy="-434.295" rx="3.2" ry="3.2"/>
</g>
<!-- PSS_RQMNT&#45;&gt;R_PSS_RQMNT_TYPE_MAIN_CATEGORY -->
<g id="edge27" class="edge">
<title>PSS_RQMNT:w&#45;&gt;R_PSS_RQMNT_TYPE_MAIN_CATEGORY:e</title>
<path fill="none" stroke="#000000" d="M780.2625,-503.5083C706.7878,-525.0109 823.3074,-721.6064 726.5,-721.6064"/>
<polygon fill="#000000" stroke="#000000" points="787.0658,-502.6304 795.4608,-505.1768 791.0329,-502.1184 795,-501.6064 795,-501.6064 795,-501.6064 791.0329,-502.1184 794.5392,-498.036 787.0658,-502.6304 787.0658,-502.6304"/>
<ellipse fill="none" stroke="#000000" cx="783.8921" cy="-503.04" rx="3.2" ry="3.2"/>
</g>
<!-- CUSTODY -->
<g id="node8" class="node">
<title>CUSTODY</title>
<g id="a_node8"><a xlink:href="../../tables/CUSTODY.html" xlink:title="CUSTODY" target="_top">
<polygon fill="#ffffff" stroke="transparent" points="545,-612.1064 545,-673.1064 646,-673.1064 646,-612.1064 545,-612.1064"/>
<polygon fill="#f5f5f5" stroke="transparent" points="545.5,-649.6064 545.5,-672.6064 646.5,-672.6064 646.5,-649.6064 545.5,-649.6064"/>
<polygon fill="none" stroke="#000000" points="545.5,-649.6064 545.5,-672.6064 646.5,-672.6064 646.5,-649.6064 545.5,-649.6064"/>
<text text-anchor="start" x="550.5" y="-658.7064" font-family="Helvetica,sans-Serif" font-weight="bold" font-size="11.00" fill="#000000">CUSTODY</text>
<text text-anchor="start" x="611.5437" y="-657.7064" font-family="Helvetica,sans-Serif" font-size="11.00" fill="#000000">[table]</text>
<polygon fill="none" stroke="#000000" points="545.5,-630.6064 545.5,-649.6064 646.5,-649.6064 646.5,-630.6064 545.5,-630.6064"/>
<text text-anchor="start" x="548.5" y="-636.7064" font-family="Helvetica,sans-Serif" font-size="11.00" fill="#000000">...</text>
<polygon fill="#ffffff" stroke="transparent" points="545.5,-611.6064 545.5,-630.6064 566.5,-630.6064 566.5,-611.6064 545.5,-611.6064"/>
<polygon fill="none" stroke="#000000" points="545.5,-611.6064 545.5,-630.6064 566.5,-630.6064 566.5,-611.6064 545.5,-611.6064"/>
<text text-anchor="start" x="548.2026" y="-617.7064" font-family="Helvetica,sans-Serif" font-size="11.00" fill="#000000">&lt; 6</text>
<polygon fill="#ffffff" stroke="transparent" points="566.5,-611.6064 566.5,-630.6064 625.5,-630.6064 625.5,-611.6064 566.5,-611.6064"/>
<polygon fill="none" stroke="#000000" points="566.5,-611.6064 566.5,-630.6064 625.5,-630.6064 625.5,-611.6064 566.5,-611.6064"/>
<text text-anchor="start" x="569.1045" y="-617.7064" font-family="Helvetica,sans-Serif" font-size="11.00" fill="#000000">6,637 rows</text>
<polygon fill="#ffffff" stroke="transparent" points="625.5,-611.6064 625.5,-630.6064 646.5,-630.6064 646.5,-611.6064 625.5,-611.6064"/>
<polygon fill="none" stroke="#000000" points="625.5,-611.6064 625.5,-630.6064 646.5,-630.6064 646.5,-611.6064 625.5,-611.6064"/>
<text text-anchor="start" x="628.2026" y="-617.7064" font-family="Helvetica,sans-Serif" font-size="11.00" fill="#000000">5 &gt;</text>
</a>
</g>
</g>
<!-- PSS_RQMNT&#45;&gt;CUSTODY -->
<g id="edge24" class="edge">
<title>PSS_RQMNT:w&#45;&gt;CUSTODY:e</title>
<path fill="none" stroke="#000000" d="M780.5805,-527.4861C763.4063,-540.0714 778.757,-580.184 754,-601.6064 715.6797,-634.7652 697.175,-639.6064 646.5,-639.6064"/>
<polygon fill="#000000" stroke="#000000" points="787.2747,-525.685 795.9354,-527.0828 791.1374,-524.6457 795,-523.6064 795,-523.6064 795,-523.6064 791.1374,-524.6457 794.0646,-520.13 787.2747,-525.685 787.2747,-525.685"/>
<ellipse fill="none" stroke="#000000" cx="784.1846" cy="-526.5164" rx="3.2" ry="3.2"/>
</g>
<!-- R_PSS_RQMNT_TYPE_SUB_CATEGORY -->
<g id="node9" class="node">
<title>R_PSS_RQMNT_TYPE_SUB_CATEGORY</title>
<g id="a_node9"><a xlink:href="../../tables/R_PSS_RQMNT_TYPE_SUB_CATEGORY.html" xlink:title="R_PSS_RQMNT_TYPE_SUB_CATEGORY" target="_top">
<polygon fill="#ffffff" stroke="transparent" points="445,-280.6064 445,-590.6064 746,-590.6064 746,-280.6064 445,-280.6064"/>
<polygon fill="#f5f5f5" stroke="transparent" points="447.5,-565.6064 447.5,-588.6064 744.5,-588.6064 744.5,-565.6064 447.5,-565.6064"/>
<polygon fill="none" stroke="#000000" points="447.5,-565.6064 447.5,-588.6064 744.5,-588.6064 744.5,-565.6064 447.5,-565.6064"/>
<text text-anchor="start" x="452.5" y="-574.7064" font-family="Helvetica,sans-Serif" font-weight="bold" font-size="11.00" fill="#000000">R_PSS_RQMNT_TYPE_SUB_CATEGORY</text>
<text text-anchor="start" x="709.5437" y="-573.7064" font-family="Helvetica,sans-Serif" font-size="11.00" fill="#000000">[table]</text>
<polygon fill="none" stroke="#000000" points="447.5,-543.6064 447.5,-565.6064 671.5,-565.6064 671.5,-543.6064 447.5,-543.6064"/>
<image xlink:href="../../images/primaryKeys.png" width="11px" height="12px" preserveAspectRatio="xMinYMin meet" x="452.5" y="-560.606"/>
<text text-anchor="start" x="467.5" y="-550.7064" font-family="Helvetica,sans-Serif" font-size="11.00" fill="#000000">PSS_RQMNT_TYPE_SUB_CAT_ID</text>
<polygon fill="none" stroke="#000000" points="671.5,-543.6064 671.5,-565.6064 744.5,-565.6064 744.5,-543.6064 671.5,-543.6064"/>
<text text-anchor="start" x="674.5" y="-551.3064" font-family="Helvetica,sans-Serif" font-size="11.00" fill="#000000">number[22]</text>
<polygon fill="none" stroke="#000000" points="447.5,-521.6064 447.5,-543.6064 671.5,-543.6064 671.5,-521.6064 447.5,-521.6064"/>
<text text-anchor="start" x="467.5" y="-528.7064" font-family="Helvetica,sans-Serif" font-size="11.00" fill="#000000">CODE</text>
<polygon fill="none" stroke="#000000" points="671.5,-521.6064 671.5,-543.6064 744.5,-543.6064 744.5,-521.6064 671.5,-521.6064"/>
<text text-anchor="start" x="674.5" y="-529.3064" font-family="Helvetica,sans-Serif" font-size="11.00" fill="#000000">varchar2[20]</text>
<polygon fill="none" stroke="#000000" points="447.5,-499.6064 447.5,-521.6064 671.5,-521.6064 671.5,-499.6064 447.5,-499.6064"/>
<text text-anchor="start" x="467.5" y="-506.7064" font-family="Helvetica,sans-Serif" font-size="11.00" fill="#000000">DESCRIPTION</text>
<polygon fill="none" stroke="#000000" points="671.5,-499.6064 671.5,-521.6064 744.5,-521.6064 744.5,-499.6064 671.5,-499.6064"/>
<text text-anchor="start" x="674.3791" y="-507.3064" font-family="Helvetica,sans-Serif" font-size="11.00" fill="#000000">varchar2[200]</text>
<polygon fill="none" stroke="#000000" points="447.5,-477.6064 447.5,-499.6064 671.5,-499.6064 671.5,-477.6064 447.5,-477.6064"/>
<text text-anchor="start" x="467.5" y="-484.7064" font-family="Helvetica,sans-Serif" font-size="11.00" fill="#000000">SELECTABLE</text>
<polygon fill="none" stroke="#000000" points="671.5,-477.6064 671.5,-499.6064 744.5,-499.6064 744.5,-477.6064 671.5,-477.6064"/>
<text text-anchor="start" x="674.5" y="-485.3064" font-family="Helvetica,sans-Serif" font-size="11.00" fill="#000000">char[1]</text>
<polygon fill="none" stroke="#000000" points="447.5,-455.6064 447.5,-477.6064 671.5,-477.6064 671.5,-455.6064 447.5,-455.6064"/>
<text text-anchor="start" x="467.5" y="-462.7064" font-family="Helvetica,sans-Serif" font-size="11.00" fill="#000000">EXPECTED_SECTOR</text>
<polygon fill="none" stroke="#000000" points="671.5,-455.6064 671.5,-477.6064 744.5,-477.6064 744.5,-455.6064 671.5,-455.6064"/>
<text text-anchor="start" x="674.5" y="-463.3064" font-family="Helvetica,sans-Serif" font-size="11.00" fill="#000000">varchar2[10]</text>
<polygon fill="none" stroke="#000000" points="447.5,-433.6064 447.5,-455.6064 671.5,-455.6064 671.5,-433.6064 447.5,-433.6064"/>
<text text-anchor="start" x="467.5" y="-440.7064" font-family="Helvetica,sans-Serif" font-size="11.00" fill="#000000">ALLOW_DUPLICATES</text>
<polygon fill="none" stroke="#000000" points="671.5,-433.6064 671.5,-455.6064 744.5,-455.6064 744.5,-433.6064 671.5,-433.6064"/>
<text text-anchor="start" x="674.5" y="-441.3064" font-family="Helvetica,sans-Serif" font-size="11.00" fill="#000000">char[1]</text>
<polygon fill="none" stroke="#000000" points="447.5,-411.6064 447.5,-433.6064 671.5,-433.6064 671.5,-411.6064 447.5,-411.6064"/>
<text text-anchor="start" x="467.5" y="-418.7064" font-family="Helvetica,sans-Serif" font-size="11.00" fill="#000000">INACTIVE_DUPLICATES</text>
<polygon fill="none" stroke="#000000" points="671.5,-411.6064 671.5,-433.6064 744.5,-433.6064 744.5,-411.6064 671.5,-411.6064"/>
<text text-anchor="start" x="674.5" y="-419.3064" font-family="Helvetica,sans-Serif" font-size="11.00" fill="#000000">char[1]</text>
<polygon fill="none" stroke="#000000" points="447.5,-389.6064 447.5,-411.6064 671.5,-411.6064 671.5,-389.6064 447.5,-389.6064"/>
<text text-anchor="start" x="467.5" y="-396.7064" font-family="Helvetica,sans-Serif" font-size="11.00" fill="#000000">ROW_VERSION</text>
<polygon fill="none" stroke="#000000" points="671.5,-389.6064 671.5,-411.6064 744.5,-411.6064 744.5,-389.6064 671.5,-389.6064"/>
<text text-anchor="start" x="674.5" y="-397.3064" font-family="Helvetica,sans-Serif" font-size="11.00" fill="#000000">number[22]</text>
<polygon fill="none" stroke="#000000" points="447.5,-367.6064 447.5,-389.6064 671.5,-389.6064 671.5,-367.6064 447.5,-367.6064"/>
<text text-anchor="start" x="467.5" y="-374.7064" font-family="Helvetica,sans-Serif" font-size="11.00" fill="#000000">CREATED_BY_USER_ID</text>
<polygon fill="none" stroke="#000000" points="671.5,-367.6064 671.5,-389.6064 744.5,-389.6064 744.5,-367.6064 671.5,-367.6064"/>
<text text-anchor="start" x="674.5" y="-375.3064" font-family="Helvetica,sans-Serif" font-size="11.00" fill="#000000">number[22]</text>
<polygon fill="none" stroke="#000000" points="447.5,-345.6064 447.5,-367.6064 671.5,-367.6064 671.5,-345.6064 447.5,-345.6064"/>
<text text-anchor="start" x="467.5" y="-352.7064" font-family="Helvetica,sans-Serif" font-size="11.00" fill="#000000">CREATED_DATETIME</text>
<polygon fill="none" stroke="#000000" points="671.5,-345.6064 671.5,-367.6064 744.5,-367.6064 744.5,-345.6064 671.5,-345.6064"/>
<text text-anchor="start" x="674.5" y="-353.3064" font-family="Helvetica,sans-Serif" font-size="11.00" fill="#000000">date[7]</text>
<polygon fill="none" stroke="#000000" points="447.5,-323.6064 447.5,-345.6064 671.5,-345.6064 671.5,-323.6064 447.5,-323.6064"/>
<text text-anchor="start" x="467.5" y="-330.7064" font-family="Helvetica,sans-Serif" font-size="11.00" fill="#000000">LAST_UPDATED_USER_ID</text>
<polygon fill="none" stroke="#000000" points="671.5,-323.6064 671.5,-345.6064 744.5,-345.6064 744.5,-323.6064 671.5,-323.6064"/>
<text text-anchor="start" x="674.5" y="-331.3064" font-family="Helvetica,sans-Serif" font-size="11.00" fill="#000000">number[22]</text>
<polygon fill="none" stroke="#000000" points="447.5,-301.6064 447.5,-323.6064 671.5,-323.6064 671.5,-301.6064 447.5,-301.6064"/>
<text text-anchor="start" x="467.5" y="-308.7064" font-family="Helvetica,sans-Serif" font-size="11.00" fill="#000000">LAST_UPDATED_DATETIME</text>
<polygon fill="none" stroke="#000000" points="671.5,-301.6064 671.5,-323.6064 744.5,-323.6064 744.5,-301.6064 671.5,-301.6064"/>
<text text-anchor="start" x="674.5" y="-309.3064" font-family="Helvetica,sans-Serif" font-size="11.00" fill="#000000">date[7]</text>
<polygon fill="#ffffff" stroke="transparent" points="447.5,-282.6064 447.5,-301.6064 550.5,-301.6064 550.5,-282.6064 447.5,-282.6064"/>
<polygon fill="none" stroke="#000000" points="447.5,-282.6064 447.5,-301.6064 550.5,-301.6064 550.5,-282.6064 447.5,-282.6064"/>
<text text-anchor="start" x="450.5" y="-288.7064" font-family="Helvetica,sans-Serif" font-size="11.00" fill="#000000">&lt; 0</text>
<polygon fill="#ffffff" stroke="transparent" points="550.5,-282.6064 550.5,-301.6064 671.5,-301.6064 671.5,-282.6064 550.5,-282.6064"/>
<polygon fill="none" stroke="#000000" points="550.5,-282.6064 550.5,-301.6064 671.5,-301.6064 671.5,-282.6064 550.5,-282.6064"/>
<text text-anchor="start" x="636.1105" y="-288.7064" font-family="Helvetica,sans-Serif" font-size="11.00" fill="#000000">8 rows</text>
<polygon fill="#ffffff" stroke="transparent" points="671.5,-282.6064 671.5,-301.6064 744.5,-301.6064 744.5,-282.6064 671.5,-282.6064"/>
<polygon fill="none" stroke="#000000" points="671.5,-282.6064 671.5,-301.6064 744.5,-301.6064 744.5,-282.6064 671.5,-282.6064"/>
<text text-anchor="start" x="725.9053" y="-288.7064" font-family="Helvetica,sans-Serif" font-size="11.00" fill="#000000">2 &gt;</text>
<polygon fill="none" stroke="#000000" stroke-width="2" points="446,-281.6064 446,-589.6064 745,-589.6064 745,-281.6064 446,-281.6064"/>
</a>
</g>
</g>
<!-- PSS_RQMNT&#45;&gt;R_PSS_RQMNT_TYPE_SUB_CATEGORY -->
<g id="edge28" class="edge">
<title>PSS_RQMNT:w&#45;&gt;R_PSS_RQMNT_TYPE_SUB_CATEGORY:e</title>
<path fill="none" stroke="#000000" d="M781.2775,-484.0734C762.1389,-500.2195 778.7204,-554.6064 744.5,-554.6064"/>
<polygon fill="#000000" stroke="#000000" points="787.3929,-482.0827 796.1143,-483.0296 791.1964,-480.8446 795,-479.6064 795,-479.6064 795,-479.6064 791.1964,-480.8446 793.8857,-476.1832 787.3929,-482.0827 787.3929,-482.0827"/>
<ellipse fill="none" stroke="#000000" cx="784.3501" cy="-483.0732" rx="3.2" ry="3.2"/>
</g>
<!-- PSS_RQMNT_MANAGER&#45;&gt;R_STANDARD_REFERENCE_LIST -->
<g id="edge29" class="edge">
<title>PSS_RQMNT_MANAGER:w&#45;&gt;R_STANDARD_REFERENCE_LIST:e</title>
<path fill="none" stroke="#000000" d="M1267.7325,-817.6521C1249.0007,-827.193 1250.8576,-856.5248 1224,-867.6064 1087.8884,-923.767 1040.2426,-881.6064 893,-881.6064 893,-881.6064 893,-881.6064 595.5,-881.6064 443.6045,-881.6064 371.3664,-892.8265 269,-780.6064 216.3299,-722.8664 306.154,-609.6064 228,-609.6064"/>
<polygon fill="#000000" stroke="#000000" points="1274.1763,-816.2766 1282.7516,-818.1271 1278.0881,-815.4415 1282,-814.6064 1282,-814.6064 1282,-814.6064 1278.0881,-815.4415 1281.2484,-811.0857 1274.1763,-816.2766 1274.1763,-816.2766"/>
<ellipse fill="none" stroke="#000000" cx="1271.0468" cy="-816.9446" rx="3.2" ry="3.2"/>
</g>
<!-- PSS_RQMNT_MANAGER&#45;&gt;PSS_RQMNT -->
<g id="edge30" class="edge">
<title>PSS_RQMNT_MANAGER:w&#45;&gt;PSS_RQMNT:e</title>
<path fill="none" stroke="#000000" d="M1268.1613,-810.3038C1212.0746,-783.4241 1053.1625,-638.9258 1032,-614.6064 1008.5832,-587.6964 1026.672,-545.6064 991,-545.6064"/>
<polygon fill="#000000" stroke="#000000" points="1274.3607,-812.2312 1280.9312,-818.0441 1278.1804,-813.4188 1282,-814.6064 1282,-814.6064 1282,-814.6064 1278.1804,-813.4188 1283.0688,-811.1687 1274.3607,-812.2312 1274.3607,-812.2312"/>
<ellipse fill="none" stroke="#000000" cx="1271.305" cy="-811.2811" rx="3.2" ry="3.2"/>
</g>
<!-- PSS_RQMNT_TRANSFER -->
<g id="node10" class="node">
<title>PSS_RQMNT_TRANSFER</title>
<g id="a_node10"><a xlink:href="../../tables/PSS_RQMNT_TRANSFER.html" xlink:title="PSS_RQMNT_TRANSFER" target="_top">
<polygon fill="#ffffff" stroke="transparent" points="1040,-796.1064 1040,-857.1064 1216,-857.1064 1216,-796.1064 1040,-796.1064"/>
<polygon fill="#f5f5f5" stroke="transparent" points="1040,-833.6064 1040,-856.6064 1216,-856.6064 1216,-833.6064 1040,-833.6064"/>
<polygon fill="none" stroke="#000000" points="1040,-833.6064 1040,-856.6064 1216,-856.6064 1216,-833.6064 1040,-833.6064"/>
<text text-anchor="start" x="1044.5859" y="-842.7064" font-family="Helvetica,sans-Serif" font-weight="bold" font-size="11.00" fill="#000000">PSS_RQMNT_TRANSFER</text>
<text text-anchor="start" x="1181.5219" y="-841.7064" font-family="Helvetica,sans-Serif" font-size="11.00" fill="#000000">[table]</text>
<polygon fill="none" stroke="#000000" points="1040,-814.6064 1040,-833.6064 1216,-833.6064 1216,-814.6064 1040,-814.6064"/>
<text text-anchor="start" x="1043" y="-820.7064" font-family="Helvetica,sans-Serif" font-size="11.00" fill="#000000">...</text>
<polygon fill="#ffffff" stroke="transparent" points="1040,-795.6064 1040,-814.6064 1109,-814.6064 1109,-795.6064 1040,-795.6064"/>
<polygon fill="none" stroke="#000000" points="1040,-795.6064 1040,-814.6064 1109,-814.6064 1109,-795.6064 1040,-795.6064"/>
<text text-anchor="start" x="1043" y="-801.7064" font-family="Helvetica,sans-Serif" font-size="11.00" fill="#000000">&lt; 13</text>
<polygon fill="#ffffff" stroke="transparent" points="1109,-795.6064 1109,-814.6064 1174,-814.6064 1174,-795.6064 1109,-795.6064"/>
<polygon fill="none" stroke="#000000" points="1109,-795.6064 1109,-814.6064 1174,-814.6064 1174,-795.6064 1109,-795.6064"/>
<text text-anchor="start" x="1132.4956" y="-801.7064" font-family="Helvetica,sans-Serif" font-size="11.00" fill="#000000">93 rows</text>
<polygon fill="#ffffff" stroke="transparent" points="1174,-795.6064 1174,-814.6064 1216,-814.6064 1216,-795.6064 1174,-795.6064"/>
<polygon fill="none" stroke="#000000" points="1174,-795.6064 1174,-814.6064 1216,-814.6064 1216,-795.6064 1174,-795.6064"/>
<text text-anchor="start" x="1197.4053" y="-801.7064" font-family="Helvetica,sans-Serif" font-size="11.00" fill="#000000">2 &gt;</text>
</a>
</g>
</g>
<!-- PSS_RQMNT_MANAGER&#45;&gt;PSS_RQMNT_TRANSFER -->
<g id="edge31" class="edge">
<title>PSS_RQMNT_MANAGER:w&#45;&gt;PSS_RQMNT_TRANSFER:e</title>
<path fill="none" stroke="#000000" d="M1267.4527,-815.437C1249.0467,-817.665 1240.0539,-823.6064 1216,-823.6064"/>
<polygon fill="#000000" stroke="#000000" points="1274.013,-815.0625 1282.2052,-818.2005 1278.0065,-814.8344 1282,-814.6064 1282,-814.6064 1282,-814.6064 1278.0065,-814.8344 1281.7948,-811.0122 1274.013,-815.0625 1274.013,-815.0625"/>
<ellipse fill="none" stroke="#000000" cx="1270.8182" cy="-815.2449" rx="3.2" ry="3.2"/>
</g>
<!-- R_PSS_RQMNT_TYPE_MAIN_CATEGORY&#45;&gt;R_STANDARD_REFERENCE_LIST -->
<g id="edge41" class="edge">
<title>R_PSS_RQMNT_TYPE_MAIN_CATEGORY:w&#45;&gt;R_STANDARD_REFERENCE_LIST:e</title>
<path fill="none" stroke="#000000" d="M451.014,-721.8448C373.1343,-724.3857 336.182,-745.4329 269,-696.6064 234.4222,-671.476 270.7453,-609.6064 228,-609.6064"/>
<polygon fill="#000000" stroke="#000000" points="457.5011,-721.7381 465.5593,-725.2059 461.5005,-721.6722 465.5,-721.6064 465.5,-721.6064 465.5,-721.6064 461.5005,-721.6722 465.4407,-718.0069 457.5011,-721.7381 457.5011,-721.7381"/>
<ellipse fill="none" stroke="#000000" cx="454.3015" cy="-721.7908" rx="3.2" ry="3.2"/>
</g>
<!-- CONTACT -->
<g id="node7" class="node">
<title>CONTACT</title>
<g id="a_node7"><a xlink:href="../../tables/CONTACT.html" xlink:title="CONTACT" target="_top">
<polygon fill="#ffffff" stroke="transparent" points="1065,-265.1064 1065,-326.1064 1191,-326.1064 1191,-265.1064 1065,-265.1064"/>
<polygon fill="#f5f5f5" stroke="transparent" points="1065,-302.6064 1065,-325.6064 1191,-325.6064 1191,-302.6064 1065,-302.6064"/>
<polygon fill="none" stroke="#000000" points="1065,-302.6064 1065,-325.6064 1191,-325.6064 1191,-302.6064 1065,-302.6064"/>
<text text-anchor="start" x="1070" y="-311.7064" font-family="Helvetica,sans-Serif" font-weight="bold" font-size="11.00" fill="#000000">CONTACT</text>
<text text-anchor="start" x="1156.0437" y="-310.7064" font-family="Helvetica,sans-Serif" font-size="11.00" fill="#000000">[table]</text>
<polygon fill="none" stroke="#000000" points="1065,-283.6064 1065,-302.6064 1191,-302.6064 1191,-283.6064 1065,-283.6064"/>
<text text-anchor="start" x="1068" y="-289.7064" font-family="Helvetica,sans-Serif" font-size="11.00" fill="#000000">...</text>
<polygon fill="#ffffff" stroke="transparent" points="1065,-264.6064 1065,-283.6064 1092,-283.6064 1092,-264.6064 1065,-264.6064"/>
<polygon fill="none" stroke="#000000" points="1065,-264.6064 1065,-283.6064 1092,-283.6064 1092,-264.6064 1065,-264.6064"/>
<text text-anchor="start" x="1067.6452" y="-270.7064" font-family="Helvetica,sans-Serif" font-size="11.00" fill="#000000">&lt; 25</text>
<polygon fill="#ffffff" stroke="transparent" points="1092,-264.6064 1092,-283.6064 1164,-283.6064 1164,-264.6064 1092,-264.6064"/>
<polygon fill="none" stroke="#000000" points="1092,-264.6064 1092,-283.6064 1164,-283.6064 1164,-264.6064 1092,-264.6064"/>
<text text-anchor="start" x="1094.9896" y="-270.7064" font-family="Helvetica,sans-Serif" font-size="11.00" fill="#000000">165,869 rows</text>
<polygon fill="#ffffff" stroke="transparent" points="1164,-264.6064 1164,-283.6064 1191,-283.6064 1191,-264.6064 1164,-264.6064"/>
<polygon fill="none" stroke="#000000" points="1164,-264.6064 1164,-283.6064 1191,-283.6064 1191,-264.6064 1164,-264.6064"/>
<text text-anchor="start" x="1166.6452" y="-270.7064" font-family="Helvetica,sans-Serif" font-size="11.00" fill="#000000">14 &gt;</text>
</a>
</g>
</g>
<!-- CONTACT&#45;&gt;OFFENDER -->
<g id="edge7" class="edge">
<title>CONTACT:w&#45;&gt;OFFENDER:e</title>
<path fill="none" stroke="#000000" d="M1050.5033,-292.4202C921.5108,-289.0478 889.5883,-240.8351 754,-226.6064 683.9403,-219.2543 489.3653,-179.4864 437,-226.6064 373.3794,-283.8542 482.0856,-609.6064 396.5,-609.6064"/>
<polygon fill="#000000" stroke="#000000" points="1057.0007,-292.5036 1064.9537,-296.2061 1061.0003,-292.555 1065,-292.6064 1065,-292.6064 1065,-292.6064 1061.0003,-292.555 1065.0463,-289.0067 1057.0007,-292.5036 1057.0007,-292.5036"/>
<ellipse fill="none" stroke="#000000" cx="1053.8009" cy="-292.4625" rx="3.2" ry="3.2"/>
</g>
<!-- CONTACT&#45;&gt;PSS_RQMNT -->
<g id="edge8" class="edge">
<title>CONTACT:w&#45;&gt;PSS_RQMNT:e</title>
<path fill="none" stroke="#000000" d="M1051.5274,-298.366C1013.3555,-336.0251 1044.3149,-545.6064 991,-545.6064"/>
<polygon fill="#000000" stroke="#000000" points="1057.644,-295.7512 1066.4151,-295.9166 1061.322,-294.1788 1065,-292.6064 1065,-292.6064 1065,-292.6064 1061.322,-294.1788 1063.5849,-289.2962 1057.644,-295.7512 1057.644,-295.7512"/>
<ellipse fill="none" stroke="#000000" cx="1054.7016" cy="-297.0091" rx="3.2" ry="3.2"/>
</g>
<!-- CUSTODY&#45;&gt;R_STANDARD_REFERENCE_LIST -->
<g id="edge9" class="edge">
<title>CUSTODY:w&#45;&gt;R_STANDARD_REFERENCE_LIST:e</title>
<path fill="none" stroke="#000000" d="M530.9738,-640.0659C417.7949,-647.2776 372.6844,-736.1637 269,-677.6064 238.2713,-660.2519 263.2907,-609.6064 228,-609.6064"/>
<polygon fill="#000000" stroke="#000000" points="537.504,-639.8594 545.6138,-643.2046 541.502,-639.7329 545.5,-639.6064 545.5,-639.6064 545.5,-639.6064 541.502,-639.7329 545.3862,-636.0082 537.504,-639.8594 537.504,-639.8594"/>
<ellipse fill="none" stroke="#000000" cx="534.3056" cy="-639.9606" rx="3.2" ry="3.2"/>
</g>
<!-- CUSTODY&#45;&gt;OFFENDER -->
<g id="edge10" class="edge">
<title>CUSTODY:w&#45;&gt;OFFENDER:e</title>
<path fill="none" stroke="#000000" d="M530.95,-639.1107C475.5203,-635.2101 458.9057,-609.6064 396.5,-609.6064"/>
<polygon fill="#000000" stroke="#000000" points="537.5046,-639.334 545.3774,-643.2043 541.5023,-639.4702 545.5,-639.6064 545.5,-639.6064 545.5,-639.6064 541.5023,-639.4702 545.6226,-636.0085 537.5046,-639.334 537.5046,-639.334"/>
<ellipse fill="none" stroke="#000000" cx="534.3065" cy="-639.225" rx="3.2" ry="3.2"/>
</g>
<!-- PSS_RQMNT_TRANSFER&#45;&gt;R_STANDARD_REFERENCE_LIST -->
<g id="edge32" class="edge">
<title>PSS_RQMNT_TRANSFER:w&#45;&gt;R_STANDARD_REFERENCE_LIST:e</title>
<path fill="none" stroke="#000000" d="M1025.2543,-823.6268C768.7517,-824.3346 694.4422,-842.886 437,-786.6064 358.7867,-769.5081 325.0925,-778.7318 269,-721.6064 231.861,-683.7835 281.0083,-609.6064 228,-609.6064"/>
<polygon fill="#000000" stroke="#000000" points="1032,-823.6175 1040.005,-827.2064 1036,-823.612 1040,-823.6064 1040,-823.6064 1040,-823.6064 1036,-823.612 1039.995,-820.0064 1032,-823.6175 1032,-823.6175"/>
<ellipse fill="none" stroke="#000000" cx="1028.8" cy="-823.622" rx="3.2" ry="3.2"/>
</g>
<!-- PSS_RQMNT_TRANSFER&#45;&gt;R_STANDARD_REFERENCE_LIST -->
<g id="edge33" class="edge">
<title>PSS_RQMNT_TRANSFER:w&#45;&gt;R_STANDARD_REFERENCE_LIST:e</title>
<path fill="none" stroke="#000000" d="M1025.6312,-822.6114C768.7122,-805.2045 694.4928,-820.7889 437,-763.6064 358.8436,-746.2499 325.4315,-755.397 269,-698.6064 232.8107,-662.1868 279.3425,-590.6064 228,-609.6064"/>
<polygon fill="#000000" stroke="#000000" points="1032.0191,-823.0537 1039.7513,-827.1978 1036.0096,-823.3301 1040,-823.6064 1040,-823.6064 1040,-823.6064 1036.0096,-823.3301 1040.2487,-820.015 1032.0191,-823.0537 1032.0191,-823.0537"/>
<ellipse fill="none" stroke="#000000" cx="1028.8268" cy="-822.8326" rx="3.2" ry="3.2"/>
</g>
<!-- PSS_RQMNT_TRANSFER&#45;&gt;R_STANDARD_REFERENCE_LIST -->
<g id="edge36" class="edge">
<title>PSS_RQMNT_TRANSFER:w&#45;&gt;R_STANDARD_REFERENCE_LIST:e</title>
<path fill="none" stroke="#000000" d="M1025.248,-823.2958C768.6383,-818.22 694.3648,-833.7604 437,-776.6064 358.8436,-759.2499 325.4315,-768.397 269,-711.6064 232.8107,-675.1868 279.3425,-603.6064 228,-609.6064"/>
<polygon fill="#000000" stroke="#000000" points="1032.0018,-823.4379 1039.9242,-827.2056 1036.0009,-823.5222 1040,-823.6064 1040,-823.6064 1040,-823.6064 1036.0009,-823.5222 1040.0758,-820.0072 1032.0018,-823.4379 1032.0018,-823.4379"/>
<ellipse fill="none" stroke="#000000" cx="1028.8025" cy="-823.3705" rx="3.2" ry="3.2"/>
</g>
<!-- PSS_RQMNT_TRANSFER&#45;&gt;R_STANDARD_REFERENCE_LIST -->
<g id="edge37" class="edge">
<title>PSS_RQMNT_TRANSFER:w&#45;&gt;R_STANDARD_REFERENCE_LIST:e</title>
<path fill="none" stroke="#000000" d="M1025.248,-824.0061C768.6383,-831.22 694.3648,-846.7604 437,-789.6064 358.8436,-772.2499 325.4315,-781.397 269,-724.6064 232.8107,-688.1868 279.3425,-616.6064 228,-609.6064"/>
<polygon fill="#000000" stroke="#000000" points="1032.0029,-823.8231 1040.0975,-827.2051 1036.0015,-823.7148 1040,-823.6064 1040,-823.6064 1040,-823.6064 1036.0015,-823.7148 1039.9025,-820.0077 1032.0029,-823.8231 1032.0029,-823.8231"/>
<ellipse fill="none" stroke="#000000" cx="1028.8041" cy="-823.9098" rx="3.2" ry="3.2"/>
</g>
<!-- PSS_RQMNT_TRANSFER&#45;&gt;R_STANDARD_REFERENCE_LIST -->
<g id="edge38" class="edge">
<title>PSS_RQMNT_TRANSFER:w&#45;&gt;R_STANDARD_REFERENCE_LIST:e</title>
<path fill="none" stroke="#000000" d="M1025.6312,-824.6872C768.7122,-844.2045 694.4928,-859.7889 437,-802.6064 358.8436,-785.2499 325.4315,-794.397 269,-737.6064 232.8107,-701.1868 279.3425,-629.6064 228,-609.6064"/>
<polygon fill="#000000" stroke="#000000" points="1032.0225,-824.2065 1040.2701,-827.1963 1036.0113,-823.9065 1040,-823.6064 1040,-823.6064 1040,-823.6064 1036.0113,-823.9065 1039.7299,-820.0165 1032.0225,-824.2065 1032.0225,-824.2065"/>
<ellipse fill="none" stroke="#000000" cx="1028.8316" cy="-824.4466" rx="3.2" ry="3.2"/>
</g>
<!-- PSS_RQMNT_TRANSFER&#45;&gt;OFFENDER -->
<g id="edge34" class="edge">
<title>PSS_RQMNT_TRANSFER:w&#45;&gt;OFFENDER:e</title>
<path fill="none" stroke="#000000" d="M1026.1185,-819.5667C1017.2861,-813.3188 1013.8923,-801.5205 999,-796.6064 939.6105,-777.0091 485.3942,-805.2192 437,-765.6064 381.5699,-720.2344 468.1318,-609.6064 396.5,-609.6064"/>
<polygon fill="#000000" stroke="#000000" points="1032.3187,-821.371 1038.9941,-827.063 1036.1593,-822.4887 1040,-823.6064 1040,-823.6064 1040,-823.6064 1036.1593,-822.4887 1041.0059,-820.1498 1032.3187,-821.371 1032.3187,-821.371"/>
<ellipse fill="none" stroke="#000000" cx="1029.2461" cy="-820.4768" rx="3.2" ry="3.2"/>
</g>
<!-- PSS_RQMNT_TRANSFER&#45;&gt;PSS_RQMNT -->
<g id="edge35" class="edge">
<title>PSS_RQMNT_TRANSFER:w&#45;&gt;PSS_RQMNT:e</title>
<path fill="none" stroke="#000000" d="M1026.7346,-817.8C989.3836,-777.8782 1048.3392,-545.6064 991,-545.6064"/>
<polygon fill="#000000" stroke="#000000" points="1032.6713,-820.3985 1038.5565,-826.9043 1036.3357,-822.0025 1040,-823.6064 1040,-823.6064 1040,-823.6064 1036.3357,-822.0025 1041.4435,-820.3085 1032.6713,-820.3985 1032.6713,-820.3985"/>
<ellipse fill="none" stroke="#000000" cx="1029.7398" cy="-819.1154" rx="3.2" ry="3.2"/>
</g>
<!-- R_PSS_RQMNT_TYPE -->
<g id="node11" class="node">
<title>R_PSS_RQMNT_TYPE</title>
<g id="a_node11"><a xlink:href="../../tables/R_PSS_RQMNT_TYPE.html" xlink:title="R_PSS_RQMNT_TYPE" target="_top">
<polygon fill="#ffffff" stroke="transparent" points="795,-601.1064 795,-728.1064 991,-728.1064 991,-601.1064 795,-601.1064"/>
<polygon fill="#f5f5f5" stroke="transparent" points="795,-704.6064 795,-727.6064 991,-727.6064 991,-704.6064 795,-704.6064"/>
<polygon fill="none" stroke="#000000" points="795,-704.6064 795,-727.6064 991,-727.6064 991,-704.6064 795,-704.6064"/>
<text text-anchor="start" x="800" y="-713.7064" font-family="Helvetica,sans-Serif" font-weight="bold" font-size="11.00" fill="#000000">R_PSS_RQMNT_TYPE</text>
<text text-anchor="start" x="956.0437" y="-712.7064" font-family="Helvetica,sans-Serif" font-size="11.00" fill="#000000">[table]</text>
<polygon fill="none" stroke="#000000" points="795,-682.6064 795,-704.6064 991,-704.6064 991,-682.6064 795,-682.6064"/>
<image xlink:href="../../images/primaryKeys.png" width="11px" height="12px" preserveAspectRatio="xMinYMin meet" x="800" y="-699.606"/>
<text text-anchor="start" x="815" y="-689.7064" font-family="Helvetica,sans-Serif" font-size="11.00" fill="#000000">PSS_RQMNT_TYPE_ID</text>
<polygon fill="none" stroke="#000000" points="795,-660.6064 795,-682.6064 991,-682.6064 991,-660.6064 795,-660.6064"/>
<image xlink:href="../../images/primaryKeys.png" width="11px" height="12px" preserveAspectRatio="xMinYMin meet" x="800" y="-677.606"/>
<text text-anchor="start" x="811.8813" y="-667.7064" font-family="Helvetica,sans-Serif" font-size="11.00" fill="#000000">PSS_RQMNT_TYPE_SUB_CAT_ID</text>
<polygon fill="none" stroke="#000000" points="795,-638.6064 795,-660.6064 991,-660.6064 991,-638.6064 795,-638.6064"/>
<image xlink:href="../../images/primaryKeys.png" width="11px" height="12px" preserveAspectRatio="xMinYMin meet" x="800" y="-655.606"/>
<text text-anchor="start" x="809.4398" y="-645.7064" font-family="Helvetica,sans-Serif" font-size="11.00" fill="#000000">PSS_RQMNT_TYPE_MAIN_CAT_ID</text>
<polygon fill="none" stroke="#000000" points="795,-619.6064 795,-638.6064 991,-638.6064 991,-619.6064 795,-619.6064"/>
<text text-anchor="start" x="798" y="-625.7064" font-family="Helvetica,sans-Serif" font-size="11.00" fill="#000000">...</text>
<polygon fill="#ffffff" stroke="transparent" points="795,-600.6064 795,-619.6064 878,-619.6064 878,-600.6064 795,-600.6064"/>
<polygon fill="none" stroke="#000000" points="795,-600.6064 795,-619.6064 878,-619.6064 878,-600.6064 795,-600.6064"/>
<text text-anchor="start" x="798" y="-606.7064" font-family="Helvetica,sans-Serif" font-size="11.00" fill="#000000">&lt; 2</text>
<polygon fill="#ffffff" stroke="transparent" points="878,-600.6064 878,-619.6064 947,-619.6064 947,-600.6064 878,-600.6064"/>
<polygon fill="none" stroke="#000000" points="878,-600.6064 878,-619.6064 947,-619.6064 947,-600.6064 878,-600.6064"/>
<text text-anchor="start" x="911.6105" y="-606.7064" font-family="Helvetica,sans-Serif" font-size="11.00" fill="#000000">7 rows</text>
<polygon fill="#ffffff" stroke="transparent" points="947,-600.6064 947,-619.6064 991,-619.6064 991,-600.6064 947,-600.6064"/>
<polygon fill="none" stroke="#000000" points="947,-600.6064 947,-619.6064 991,-619.6064 991,-600.6064 947,-600.6064"/>
<text text-anchor="start" x="981.8862" y="-606.7064" font-family="Helvetica,sans-Serif" font-size="11.00" fill="#000000"> &#160;</text>
</a>
</g>
</g>
<!-- R_PSS_RQMNT_TYPE&#45;&gt;R_PSS_RQMNT_TYPE_MAIN_CATEGORY -->
<g id="edge39" class="edge">
<title>R_PSS_RQMNT_TYPE:w&#45;&gt;R_PSS_RQMNT_TYPE_MAIN_CATEGORY:e</title>
<path fill="none" stroke="#000000" d="M780.8357,-652.8872C754.8821,-666.9725 764.975,-721.6064 726.5,-721.6064"/>
<polygon fill="#000000" stroke="#000000" points="787.2063,-651.4116 795.8124,-653.1135 791.1032,-650.509 795,-649.6064 795,-649.6064 795,-649.6064 791.1032,-650.509 794.1876,-646.0992 787.2063,-651.4116 787.2063,-651.4116"/>
<ellipse fill="none" stroke="#000000" cx="784.0889" cy="-652.1337" rx="3.2" ry="3.2"/>
</g>
<!-- R_PSS_RQMNT_TYPE&#45;&gt;R_PSS_RQMNT_TYPE_SUB_CATEGORY -->
<g id="edge40" class="edge">
<title>R_PSS_RQMNT_TYPE:w&#45;&gt;R_PSS_RQMNT_TYPE_SUB_CATEGORY:e</title>
<path fill="none" stroke="#000000" d="M780.7844,-667.9765C750.2761,-648.2282 795.1636,-554.6064 744.5,-554.6064"/>
<polygon fill="#000000" stroke="#000000" points="787.2487,-669.6271 794.1093,-675.0945 791.1244,-670.6168 795,-671.6064 795,-671.6064 795,-671.6064 791.1244,-670.6168 795.8907,-668.1183 787.2487,-669.6271 787.2487,-669.6271"/>
<ellipse fill="none" stroke="#000000" cx="784.1482" cy="-668.8354" rx="3.2" ry="3.2"/>
</g>
<!-- REJECTED_TRANSFER_DIARY -->
<g id="node12" class="node">
<title>REJECTED_TRANSFER_DIARY</title>
<g id="a_node12"><a xlink:href="../../tables/REJECTED_TRANSFER_DIARY.html" xlink:title="REJECTED_TRANSFER_DIARY" target="_top">
<polygon fill="#ffffff" stroke="transparent" points="1265,-333.1064 1265,-394.1064 1471,-394.1064 1471,-333.1064 1265,-333.1064"/>
<polygon fill="#f5f5f5" stroke="transparent" points="1265,-370.6064 1265,-393.6064 1471,-393.6064 1471,-370.6064 1265,-370.6064"/>
<polygon fill="none" stroke="#000000" points="1265,-370.6064 1265,-393.6064 1471,-393.6064 1471,-370.6064 1265,-370.6064"/>
<text text-anchor="start" x="1269.9196" y="-379.7064" font-family="Helvetica,sans-Serif" font-weight="bold" font-size="11.00" fill="#000000">REJECTED_TRANSFER_DIARY</text>
<text text-anchor="start" x="1436.5219" y="-378.7064" font-family="Helvetica,sans-Serif" font-size="11.00" fill="#000000">[table]</text>
<polygon fill="none" stroke="#000000" points="1265,-351.6064 1265,-370.6064 1471,-370.6064 1471,-351.6064 1265,-351.6064"/>
<text text-anchor="start" x="1268" y="-357.7064" font-family="Helvetica,sans-Serif" font-size="11.00" fill="#000000">...</text>
<polygon fill="#ffffff" stroke="transparent" points="1265,-332.6064 1265,-351.6064 1353,-351.6064 1353,-332.6064 1265,-332.6064"/>
<polygon fill="none" stroke="#000000" points="1265,-332.6064 1265,-351.6064 1353,-351.6064 1353,-332.6064 1265,-332.6064"/>
<text text-anchor="start" x="1268" y="-338.7064" font-family="Helvetica,sans-Serif" font-size="11.00" fill="#000000">&lt; 24</text>
<polygon fill="#ffffff" stroke="transparent" points="1353,-332.6064 1353,-351.6064 1428,-351.6064 1428,-332.6064 1353,-332.6064"/>
<polygon fill="none" stroke="#000000" points="1353,-332.6064 1353,-351.6064 1428,-351.6064 1428,-332.6064 1353,-332.6064"/>
<text text-anchor="start" x="1386.4956" y="-338.7064" font-family="Helvetica,sans-Serif" font-size="11.00" fill="#000000">26 rows</text>
<polygon fill="#ffffff" stroke="transparent" points="1428,-332.6064 1428,-351.6064 1471,-351.6064 1471,-332.6064 1428,-332.6064"/>
<polygon fill="none" stroke="#000000" points="1428,-332.6064 1428,-351.6064 1471,-351.6064 1471,-332.6064 1428,-332.6064"/>
<text text-anchor="start" x="1461.8862" y="-338.7064" font-family="Helvetica,sans-Serif" font-size="11.00" fill="#000000"> &#160;</text>
</a>
</g>
</g>
<!-- REJECTED_TRANSFER_DIARY&#45;&gt;R_STANDARD_REFERENCE_LIST -->
<g id="edge45" class="edge">
<title>REJECTED_TRANSFER_DIARY:w&#45;&gt;R_STANDARD_REFERENCE_LIST:e</title>
<path fill="none" stroke="#000000" d="M1250.7218,-358.6071C1206.3457,-343.6308 1273.651,-248.4064 1224,-205.6064 958.8627,22.9468 733.3106,11.7651 437,-174.6064 391.6094,-203.1559 281.6226,-609.6064 228,-609.6064"/>
<polygon fill="#000000" stroke="#000000" points="1257.0773,-359.497 1264.5008,-364.1716 1261.0386,-360.0517 1265,-360.6064 1265,-360.6064 1265,-360.6064 1261.0386,-360.0517 1265.4992,-357.0412 1257.0773,-359.497 1257.0773,-359.497"/>
<ellipse fill="none" stroke="#000000" cx="1253.9082" cy="-359.0532" rx="3.2" ry="3.2"/>
</g>
<!-- REJECTED_TRANSFER_DIARY&#45;&gt;OFFENDER -->
<g id="edge42" class="edge">
<title>REJECTED_TRANSFER_DIARY:w&#45;&gt;OFFENDER:e</title>
<path fill="none" stroke="#000000" d="M1250.709,-357.5181C1225.1421,-343.0861 1259.0565,-281.8464 1224,-254.6064 1154.7942,-200.8313 501.9613,-142.7741 437,-201.6064 369.4668,-262.7678 487.6123,-609.6064 396.5,-609.6064"/>
<polygon fill="#000000" stroke="#000000" points="1257.1805,-358.9165 1264.2396,-364.1252 1261.0902,-359.7615 1265,-360.6064 1265,-360.6064 1265,-360.6064 1261.0902,-359.7615 1265.7604,-357.0876 1257.1805,-358.9165 1257.1805,-358.9165"/>
<ellipse fill="none" stroke="#000000" cx="1254.0527" cy="-358.2406" rx="3.2" ry="3.2"/>
</g>
<!-- REJECTED_TRANSFER_DIARY&#45;&gt;PSS_RQMNT -->
<g id="edge43" class="edge">
<title>REJECTED_TRANSFER_DIARY:w&#45;&gt;PSS_RQMNT:e</title>
<path fill="none" stroke="#000000" d="M1250.5046,-361.24C1119.2272,-373.0368 1132.9142,-545.6064 991,-545.6064"/>
<polygon fill="#000000" stroke="#000000" points="1257.0076,-360.9558 1265.1572,-364.203 1261.0038,-360.7811 1265,-360.6064 1265,-360.6064 1265,-360.6064 1261.0038,-360.7811 1264.8428,-357.0098 1257.0076,-360.9558 1257.0076,-360.9558"/>
<ellipse fill="none" stroke="#000000" cx="1253.8107" cy="-361.0956" rx="3.2" ry="3.2"/>
</g>
<!-- REJECTED_TRANSFER_DIARY&#45;&gt;PSS_RQMNT_TRANSFER -->
<g id="edge44" class="edge">
<title>REJECTED_TRANSFER_DIARY:w&#45;&gt;PSS_RQMNT_TRANSFER:e</title>
<path fill="none" stroke="#000000" d="M1250.7358,-364.3333C1177.466,-408.1509 1314.0074,-823.6064 1216,-823.6064"/>
<polygon fill="#000000" stroke="#000000" points="1257.2598,-362.6288 1265.9101,-364.0895 1261.1299,-361.6176 1265,-360.6064 1265,-360.6064 1265,-360.6064 1261.1299,-361.6176 1264.0899,-357.1233 1257.2598,-362.6288 1257.2598,-362.6288"/>
<ellipse fill="none" stroke="#000000" cx="1254.1638" cy="-363.4377" rx="3.2" ry="3.2"/>
</g>
</g>
</svg>
