<?xml version="1.0" encoding="UTF-8" standalone="no"?>
<!DOCTYPE svg PUBLIC "-//W3C//DTD SVG 1.1//EN"
 "http://www.w3.org/Graphics/SVG/1.1/DTD/svg11.dtd">
<!-- Generated by graphviz version 2.40.1 (20161225.0304)
 -->
<!-- Title: oneDegreeRelationshipsDiagram Pages: 1 -->
<svg width="595pt" height="259pt"
 viewBox="0.00 0.00 595.00 259.20" xmlns="http://www.w3.org/2000/svg" xmlns:xlink="http://www.w3.org/1999/xlink">
<g id="graph0" class="graph" transform="scale(1 1) rotate(0) translate(4 255.2)">
<title>oneDegreeRelationshipsDiagram</title>
<polygon fill="#ffffff" stroke="transparent" points="-4,4 -4,-255.2 591,-255.2 591,4 -4,4"/>
<text text-anchor="middle" x="72.4936" y="-7.3" font-family="Helvetica,sans-Serif" font-size="11.00" fill="#000000">Generated by SchemaSpy</text>
<!-- R_PSS_RQMNT_TYPE -->
<g id="node1" class="node">
<title>R_PSS_RQMNT_TYPE</title>
<g id="a_node1"><a xlink:href="../../tables/R_PSS_RQMNT_TYPE.html" xlink:title="R_PSS_RQMNT_TYPE" target="_top">
<polygon fill="#ffffff" stroke="transparent" points="318,-95.7 318,-229.7 579,-229.7 579,-95.7 318,-95.7"/>
<polygon fill="#f5f5f5" stroke="transparent" points="320.5,-204.7 320.5,-227.7 577.5,-227.7 577.5,-204.7 320.5,-204.7"/>
<polygon fill="none" stroke="#000000" points="320.5,-204.7 320.5,-227.7 577.5,-227.7 577.5,-204.7 320.5,-204.7"/>
<text text-anchor="start" x="325.5" y="-213.8" font-family="Helvetica,sans-Serif" font-weight="bold" font-size="11.00" fill="#000000">R_PSS_RQMNT_TYPE</text>
<text text-anchor="start" x="542.5437" y="-212.8" font-family="Helvetica,sans-Serif" font-size="11.00" fill="#000000">[table]</text>
<polygon fill="none" stroke="#000000" points="320.5,-182.7 320.5,-204.7 516.5,-204.7 516.5,-182.7 320.5,-182.7"/>
<image xlink:href="../../images/primaryKeys.png" width="11px" height="12px" preserveAspectRatio="xMinYMin meet" x="325.5" y="-199.7"/>
<text text-anchor="start" x="340.5" y="-189.8" font-family="Helvetica,sans-Serif" font-size="11.00" fill="#000000">PSS_RQMNT_TYPE_ID</text>
<polygon fill="none" stroke="#000000" points="516.5,-182.7 516.5,-204.7 577.5,-204.7 577.5,-182.7 516.5,-182.7"/>
<text text-anchor="start" x="519.1865" y="-190.4" font-family="Helvetica,sans-Serif" font-size="11.00" fill="#000000">number[22]</text>
<polygon fill="none" stroke="#000000" points="320.5,-160.7 320.5,-182.7 516.5,-182.7 516.5,-160.7 320.5,-160.7"/>
<image xlink:href="../../images/primaryKeys.png" width="11px" height="12px" preserveAspectRatio="xMinYMin meet" x="325.5" y="-177.7"/>
<text text-anchor="start" x="337.3813" y="-167.8" font-family="Helvetica,sans-Serif" font-size="11.00" fill="#000000">PSS_RQMNT_TYPE_SUB_CAT_ID</text>
<polygon fill="none" stroke="#000000" points="516.5,-160.7 516.5,-182.7 577.5,-182.7 577.5,-160.7 516.5,-160.7"/>
<text text-anchor="start" x="519.1865" y="-168.4" font-family="Helvetica,sans-Serif" font-size="11.00" fill="#000000">number[22]</text>
<polygon fill="none" stroke="#000000" points="320.5,-138.7 320.5,-160.7 516.5,-160.7 516.5,-138.7 320.5,-138.7"/>
<image xlink:href="../../images/primaryKeys.png" width="11px" height="12px" preserveAspectRatio="xMinYMin meet" x="325.5" y="-155.7"/>
<text text-anchor="start" x="334.9398" y="-145.8" font-family="Helvetica,sans-Serif" font-size="11.00" fill="#000000">PSS_RQMNT_TYPE_MAIN_CAT_ID</text>
<polygon fill="none" stroke="#000000" points="516.5,-138.7 516.5,-160.7 577.5,-160.7 577.5,-138.7 516.5,-138.7"/>
<text text-anchor="start" x="519.1865" y="-146.4" font-family="Helvetica,sans-Serif" font-size="11.00" fill="#000000">number[22]</text>
<polygon fill="none" stroke="#000000" points="320.5,-116.7 320.5,-138.7 516.5,-138.7 516.5,-116.7 320.5,-116.7"/>
<text text-anchor="start" x="340.5" y="-123.8" font-family="Helvetica,sans-Serif" font-size="11.00" fill="#000000">ROW_VERSION</text>
<polygon fill="none" stroke="#000000" points="516.5,-116.7 516.5,-138.7 577.5,-138.7 577.5,-116.7 516.5,-116.7"/>
<text text-anchor="start" x="519.1865" y="-124.4" font-family="Helvetica,sans-Serif" font-size="11.00" fill="#000000">number[22]</text>
<polygon fill="#ffffff" stroke="transparent" points="320.5,-97.7 320.5,-116.7 409.5,-116.7 409.5,-97.7 320.5,-97.7"/>
<polygon fill="none" stroke="#000000" points="320.5,-97.7 320.5,-116.7 409.5,-116.7 409.5,-97.7 320.5,-97.7"/>
<text text-anchor="start" x="323.5" y="-103.8" font-family="Helvetica,sans-Serif" font-size="11.00" fill="#000000">&lt; 2</text>
<polygon fill="#ffffff" stroke="transparent" points="409.5,-97.7 409.5,-116.7 516.5,-116.7 516.5,-97.7 409.5,-97.7"/>
<polygon fill="none" stroke="#000000" points="409.5,-97.7 409.5,-116.7 516.5,-116.7 516.5,-97.7 409.5,-97.7"/>
<text text-anchor="start" x="481.1105" y="-103.8" font-family="Helvetica,sans-Serif" font-size="11.00" fill="#000000">7 rows</text>
<polygon fill="#ffffff" stroke="transparent" points="516.5,-97.7 516.5,-116.7 577.5,-116.7 577.5,-97.7 516.5,-97.7"/>
<polygon fill="none" stroke="#000000" points="516.5,-97.7 516.5,-116.7 577.5,-116.7 577.5,-97.7 516.5,-97.7"/>
<text text-anchor="start" x="558.9053" y="-103.8" font-family="Helvetica,sans-Serif" font-size="11.00" fill="#000000">0 &gt;</text>
<polygon fill="none" stroke="#000000" stroke-width="2" points="319,-96.7 319,-228.7 578,-228.7 578,-96.7 319,-96.7"/>
</a>
</g>
</g>
<!-- R_PSS_RQMNT_TYPE_MAIN_CATEGORY -->
<g id="node2" class="node">
<title>R_PSS_RQMNT_TYPE_MAIN_CATEGORY</title>
<g id="a_node2"><a xlink:href="../../tables/R_PSS_RQMNT_TYPE_MAIN_CATEGORY.html" xlink:title="R_PSS_RQMNT_TYPE_MAIN_CATEGORY" target="_top">
<polygon fill="#ffffff" stroke="transparent" points="8,-38.2 8,-143.2 269,-143.2 269,-38.2 8,-38.2"/>
<polygon fill="#f5f5f5" stroke="transparent" points="8.5,-119.7 8.5,-142.7 269.5,-142.7 269.5,-119.7 8.5,-119.7"/>
<polygon fill="none" stroke="#000000" points="8.5,-119.7 8.5,-142.7 269.5,-142.7 269.5,-119.7 8.5,-119.7"/>
<text text-anchor="start" x="13.105" y="-128.8" font-family="Helvetica,sans-Serif" font-weight="bold" font-size="11.00" fill="#000000">R_PSS_RQMNT_TYPE_MAIN_CATEGORY</text>
<text text-anchor="start" x="235.0219" y="-127.8" font-family="Helvetica,sans-Serif" font-size="11.00" fill="#000000">[table]</text>
<polygon fill="none" stroke="#000000" points="8.5,-97.7 8.5,-119.7 269.5,-119.7 269.5,-97.7 8.5,-97.7"/>
<image xlink:href="../../images/primaryKeys.png" width="11px" height="12px" preserveAspectRatio="xMinYMin meet" x="13.5" y="-114.7"/>
<text text-anchor="start" x="44.5" y="-104.8" font-family="Helvetica,sans-Serif" font-size="11.00" fill="#000000">PSS_RQMNT_TYPE_MAIN_CAT_ID</text>
<polygon fill="none" stroke="#000000" points="8.5,-75.7 8.5,-97.7 269.5,-97.7 269.5,-75.7 8.5,-75.7"/>
<image xlink:href="../../images/primaryKeys.png" width="11px" height="12px" preserveAspectRatio="xMinYMin meet" x="13.5" y="-92.7"/>
<text text-anchor="start" x="44.5" y="-82.8" font-family="Helvetica,sans-Serif" font-size="11.00" fill="#000000">UNITS_ID</text>
<polygon fill="none" stroke="#000000" points="8.5,-56.7 8.5,-75.7 269.5,-75.7 269.5,-56.7 8.5,-56.7"/>
<text text-anchor="start" x="11.5" y="-62.8" font-family="Helvetica,sans-Serif" font-size="11.00" fill="#000000">...</text>
<polygon fill="#ffffff" stroke="transparent" points="8.5,-37.7 8.5,-56.7 119.5,-56.7 119.5,-37.7 8.5,-37.7"/>
<polygon fill="none" stroke="#000000" points="8.5,-37.7 8.5,-56.7 119.5,-56.7 119.5,-37.7 8.5,-37.7"/>
<text text-anchor="start" x="11.5" y="-43.8" font-family="Helvetica,sans-Serif" font-size="11.00" fill="#000000">&lt; 1</text>
<polygon fill="#ffffff" stroke="transparent" points="119.5,-37.7 119.5,-56.7 202.5,-56.7 202.5,-37.7 119.5,-37.7"/>
<polygon fill="none" stroke="#000000" points="119.5,-37.7 119.5,-56.7 202.5,-56.7 202.5,-37.7 119.5,-37.7"/>
<text text-anchor="start" x="167.1105" y="-43.8" font-family="Helvetica,sans-Serif" font-size="11.00" fill="#000000">8 rows</text>
<polygon fill="#ffffff" stroke="transparent" points="202.5,-37.7 202.5,-56.7 269.5,-56.7 269.5,-37.7 202.5,-37.7"/>
<polygon fill="none" stroke="#000000" points="202.5,-37.7 202.5,-56.7 269.5,-56.7 269.5,-37.7 202.5,-37.7"/>
<text text-anchor="start" x="250.9053" y="-43.8" font-family="Helvetica,sans-Serif" font-size="11.00" fill="#000000">6 &gt;</text>
</a>
</g>
</g>
<!-- R_PSS_RQMNT_TYPE&#45;&gt;R_PSS_RQMNT_TYPE_MAIN_CATEGORY -->
<g id="edge1" class="edge">
<title>R_PSS_RQMNT_TYPE:w&#45;&gt;R_PSS_RQMNT_TYPE_MAIN_CATEGORY:e</title>
<path fill="none" stroke="#000000" d="M306.6568,-145.3123C292.8325,-134.7354 292.6756,-108.7 269.5,-108.7"/>
<polygon fill="#000000" stroke="#000000" points="312.8739,-147.2828 319.4123,-153.1317 316.6869,-148.4914 320.5,-149.7 320.5,-149.7 320.5,-149.7 316.6869,-148.4914 321.5877,-146.2683 312.8739,-147.2828 312.8739,-147.2828"/>
<ellipse fill="none" stroke="#000000" cx="309.8235" cy="-146.3159" rx="3.2" ry="3.2"/>
</g>
<!-- R_PSS_RQMNT_TYPE_SUB_CATEGORY -->
<g id="node3" class="node">
<title>R_PSS_RQMNT_TYPE_SUB_CATEGORY</title>
<g id="a_node3"><a xlink:href="../../tables/R_PSS_RQMNT_TYPE_SUB_CATEGORY.html" xlink:title="R_PSS_RQMNT_TYPE_SUB_CATEGORY" target="_top">
<polygon fill="#ffffff" stroke="transparent" points="10.5,-164.2 10.5,-247.2 266.5,-247.2 266.5,-164.2 10.5,-164.2"/>
<polygon fill="#f5f5f5" stroke="transparent" points="10.5,-223.7 10.5,-246.7 266.5,-246.7 266.5,-223.7 10.5,-223.7"/>
<polygon fill="none" stroke="#000000" points="10.5,-223.7 10.5,-246.7 266.5,-246.7 266.5,-223.7 10.5,-223.7"/>
<text text-anchor="start" x="15.0464" y="-232.8" font-family="Helvetica,sans-Serif" font-weight="bold" font-size="11.00" fill="#000000">R_PSS_RQMNT_TYPE_SUB_CATEGORY</text>
<text text-anchor="start" x="232.0219" y="-231.8" font-family="Helvetica,sans-Serif" font-size="11.00" fill="#000000">[table]</text>
<polygon fill="none" stroke="#000000" points="10.5,-201.7 10.5,-223.7 266.5,-223.7 266.5,-201.7 10.5,-201.7"/>
<image xlink:href="../../images/primaryKeys.png" width="11px" height="12px" preserveAspectRatio="xMinYMin meet" x="15.5" y="-218.7"/>
<text text-anchor="start" x="46.5" y="-208.8" font-family="Helvetica,sans-Serif" font-size="11.00" fill="#000000">PSS_RQMNT_TYPE_SUB_CAT_ID</text>
<polygon fill="none" stroke="#000000" points="10.5,-182.7 10.5,-201.7 266.5,-201.7 266.5,-182.7 10.5,-182.7"/>
<text text-anchor="start" x="13.5" y="-188.8" font-family="Helvetica,sans-Serif" font-size="11.00" fill="#000000">...</text>
<polygon fill="#ffffff" stroke="transparent" points="10.5,-163.7 10.5,-182.7 114.5,-182.7 114.5,-163.7 10.5,-163.7"/>
<polygon fill="none" stroke="#000000" points="10.5,-163.7 10.5,-182.7 114.5,-182.7 114.5,-163.7 10.5,-163.7"/>
<text text-anchor="start" x="13.5" y="-169.8" font-family="Helvetica,sans-Serif" font-size="11.00" fill="#000000"> &#160;</text>
<polygon fill="#ffffff" stroke="transparent" points="114.5,-163.7 114.5,-182.7 198.5,-182.7 198.5,-163.7 114.5,-163.7"/>
<polygon fill="none" stroke="#000000" points="114.5,-163.7 114.5,-182.7 198.5,-182.7 198.5,-163.7 114.5,-163.7"/>
<text text-anchor="start" x="163.1105" y="-169.8" font-family="Helvetica,sans-Serif" font-size="11.00" fill="#000000">8 rows</text>
<polygon fill="#ffffff" stroke="transparent" points="198.5,-163.7 198.5,-182.7 266.5,-182.7 266.5,-163.7 198.5,-163.7"/>
<polygon fill="none" stroke="#000000" points="198.5,-163.7 198.5,-182.7 266.5,-182.7 266.5,-163.7 198.5,-163.7"/>
<text text-anchor="start" x="247.9053" y="-169.8" font-family="Helvetica,sans-Serif" font-size="11.00" fill="#000000">2 &gt;</text>
</a>
</g>
</g>
<!-- R_PSS_RQMNT_TYPE&#45;&gt;R_PSS_RQMNT_TYPE_SUB_CATEGORY -->
<g id="edge2" class="edge">
<title>R_PSS_RQMNT_TYPE:w&#45;&gt;R_PSS_RQMNT_TYPE_SUB_CATEGORY:e</title>
<path fill="none" stroke="#000000" d="M306.4668,-175.7811C291.4259,-186.1516 290.7483,-212.7 266.5,-212.7"/>
<polygon fill="#000000" stroke="#000000" points="312.8183,-173.934 321.5053,-175.1568 316.6591,-172.817 320.5,-171.7 320.5,-171.7 320.5,-171.7 316.6591,-172.817 319.4947,-168.2432 312.8183,-173.934 312.8183,-173.934"/>
<ellipse fill="none" stroke="#000000" cx="309.7456" cy="-174.8277" rx="3.2" ry="3.2"/>
</g>
</g>
</svg>
