<?xml version="1.0" encoding="UTF-8" standalone="no"?>
<!DOCTYPE svg PUBLIC "-//W3C//DTD SVG 1.1//EN"
 "http://www.w3.org/Graphics/SVG/1.1/DTD/svg11.dtd">
<!-- Generated by graphviz version 2.40.1 (20161225.0304)
 -->
<!-- Title: twoDegreesRelationshipsDiagram Pages: 1 -->
<svg width="1647pt" height="933pt"
 viewBox="0.00 0.00 1647.00 932.58" xmlns="http://www.w3.org/2000/svg" xmlns:xlink="http://www.w3.org/1999/xlink">
<g id="graph0" class="graph" transform="scale(1 1) rotate(0) translate(4 928.5764)">
<title>twoDegreesRelationshipsDiagram</title>
<polygon fill="#ffffff" stroke="transparent" points="-4,4 -4,-928.5764 1643,-928.5764 1643,4 -4,4"/>
<text text-anchor="middle" x="72.4936" y="-7.3" font-family="Helvetica,sans-Serif" font-size="11.00" fill="#000000">Generated by SchemaSpy</text>
<!-- CASELOAD -->
<g id="node1" class="node">
<title>CASELOAD</title>
<g id="a_node1"><a xlink:href="../../tables/CASELOAD.html" xlink:title="CASELOAD" target="_top">
<polygon fill="#ffffff" stroke="transparent" points="1527,-759.353 1527,-820.353 1631,-820.353 1631,-759.353 1527,-759.353"/>
<polygon fill="#f5f5f5" stroke="transparent" points="1527,-796.853 1527,-819.853 1631,-819.853 1631,-796.853 1527,-796.853"/>
<polygon fill="none" stroke="#000000" points="1527,-796.853 1527,-819.853 1631,-819.853 1631,-796.853 1527,-796.853"/>
<text text-anchor="start" x="1532" y="-805.953" font-family="Helvetica,sans-Serif" font-weight="bold" font-size="11.00" fill="#000000">CASELOAD</text>
<text text-anchor="start" x="1596.0437" y="-804.953" font-family="Helvetica,sans-Serif" font-size="11.00" fill="#000000">[table]</text>
<polygon fill="none" stroke="#000000" points="1527,-777.853 1527,-796.853 1631,-796.853 1631,-777.853 1527,-777.853"/>
<text text-anchor="start" x="1530" y="-783.953" font-family="Helvetica,sans-Serif" font-size="11.00" fill="#000000">...</text>
<polygon fill="#ffffff" stroke="transparent" points="1527,-758.853 1527,-777.853 1554,-777.853 1554,-758.853 1527,-758.853"/>
<polygon fill="none" stroke="#000000" points="1527,-758.853 1527,-777.853 1554,-777.853 1554,-758.853 1527,-758.853"/>
<text text-anchor="start" x="1529.6452" y="-764.953" font-family="Helvetica,sans-Serif" font-size="11.00" fill="#000000">&lt; 29</text>
<polygon fill="#ffffff" stroke="transparent" points="1554,-758.853 1554,-777.853 1619,-777.853 1619,-758.853 1554,-758.853"/>
<polygon fill="none" stroke="#000000" points="1554,-758.853 1554,-777.853 1619,-777.853 1619,-758.853 1554,-758.853"/>
<text text-anchor="start" x="1556.547" y="-764.953" font-family="Helvetica,sans-Serif" font-size="11.00" fill="#000000">36,872 rows</text>
<polygon fill="#ffffff" stroke="transparent" points="1619,-758.853 1619,-777.853 1631,-777.853 1631,-758.853 1619,-758.853"/>
<polygon fill="none" stroke="#000000" points="1619,-758.853 1619,-777.853 1631,-777.853 1631,-758.853 1619,-758.853"/>
<text text-anchor="start" x="1621.9431" y="-764.953" font-family="Helvetica,sans-Serif" font-size="11.00" fill="#000000"> &#160;</text>
</a>
</g>
</g>
<!-- R_STANDARD_REFERENCE_LIST -->
<g id="node2" class="node">
<title>R_STANDARD_REFERENCE_LIST</title>
<g id="a_node2"><a xlink:href="../../tables/R_STANDARD_REFERENCE_LIST.html" xlink:title="R_STANDARD_REFERENCE_LIST" target="_top">
<polygon fill="#ffffff" stroke="transparent" points="8,-581.353 8,-642.353 228,-642.353 228,-581.353 8,-581.353"/>
<polygon fill="#f5f5f5" stroke="transparent" points="8,-618.853 8,-641.853 228,-641.853 228,-618.853 8,-618.853"/>
<polygon fill="none" stroke="#000000" points="8,-618.853 8,-641.853 228,-641.853 228,-618.853 8,-618.853"/>
<text text-anchor="start" x="12.5842" y="-627.953" font-family="Helvetica,sans-Serif" font-weight="bold" font-size="11.00" fill="#000000">R_STANDARD_REFERENCE_LIST</text>
<text text-anchor="start" x="193.5219" y="-626.953" font-family="Helvetica,sans-Serif" font-size="11.00" fill="#000000">[table]</text>
<polygon fill="none" stroke="#000000" points="8,-599.853 8,-618.853 228,-618.853 228,-599.853 8,-599.853"/>
<text text-anchor="start" x="11" y="-605.953" font-family="Helvetica,sans-Serif" font-size="11.00" fill="#000000">...</text>
<polygon fill="#ffffff" stroke="transparent" points="8,-580.853 8,-599.853 79,-599.853 79,-580.853 8,-580.853"/>
<polygon fill="none" stroke="#000000" points="8,-580.853 8,-599.853 79,-599.853 79,-580.853 8,-580.853"/>
<text text-anchor="start" x="11" y="-586.953" font-family="Helvetica,sans-Serif" font-size="11.00" fill="#000000">&lt; 1</text>
<polygon fill="#ffffff" stroke="transparent" points="79,-580.853 79,-599.853 169,-599.853 169,-580.853 79,-580.853"/>
<polygon fill="none" stroke="#000000" points="79,-580.853 79,-599.853 169,-599.853 169,-580.853 79,-580.853"/>
<text text-anchor="start" x="106.094" y="-586.953" font-family="Helvetica,sans-Serif" font-size="11.00" fill="#000000">15,391 rows</text>
<polygon fill="#ffffff" stroke="transparent" points="169,-580.853 169,-599.853 228,-599.853 228,-580.853 169,-580.853"/>
<polygon fill="none" stroke="#000000" points="169,-580.853 169,-599.853 228,-599.853 228,-580.853 169,-580.853"/>
<text text-anchor="start" x="197.1755" y="-586.953" font-family="Helvetica,sans-Serif" font-size="11.00" fill="#000000">287 &gt;</text>
</a>
</g>
</g>
<!-- CASELOAD&#45;&gt;R_STANDARD_REFERENCE_LIST -->
<g id="edge1" class="edge">
<title>CASELOAD:w&#45;&gt;R_STANDARD_REFERENCE_LIST:e</title>
<path fill="none" stroke="#000000" d="M1513.1007,-790.9084C1497.6735,-803.282 1510.86,-840.7481 1486,-857.853 1355.8571,-947.3979 1292.973,-913.853 1135,-913.853 1135,-913.853 1135,-913.853 602.5,-913.853 450.1759,-913.853 369.4721,-949.3431 269,-834.853 235.333,-796.4887 279.042,-608.853 228,-608.853"/>
<polygon fill="#000000" stroke="#000000" points="1519.3202,-789.0938 1528.0083,-790.3089 1523.1601,-787.9734 1527,-786.853 1527,-786.853 1527,-786.853 1523.1601,-787.9734 1525.9917,-783.3971 1519.3202,-789.0938 1519.3202,-789.0938"/>
<ellipse fill="none" stroke="#000000" cx="1516.2483" cy="-789.9901" rx="3.2" ry="3.2"/>
</g>
<!-- CASELOAD&#45;&gt;R_STANDARD_REFERENCE_LIST -->
<g id="edge2" class="edge">
<title>CASELOAD:w&#45;&gt;R_STANDARD_REFERENCE_LIST:e</title>
<path fill="none" stroke="#000000" d="M1513.1567,-791.0385C1498.6899,-803.1031 1509.9093,-838.0902 1486,-853.853 1390.3886,-916.8872 1345.1656,-881.8481 1231,-890.853 882.3052,-918.3565 788.7691,-949.8342 444,-890.853 362.9552,-876.9883 322.6926,-893.1234 269,-830.853 203.4793,-754.8649 328.3352,-608.853 228,-608.853"/>
<polygon fill="#000000" stroke="#000000" points="1519.3424,-789.1683 1528.0419,-790.2989 1523.1712,-788.0107 1527,-786.853 1527,-786.853 1527,-786.853 1523.1712,-788.0107 1525.9581,-783.4071 1519.3424,-789.1683 1519.3424,-789.1683"/>
<ellipse fill="none" stroke="#000000" cx="1516.2793" cy="-790.0945" rx="3.2" ry="3.2"/>
</g>
<!-- OFFENDER -->
<g id="node3" class="node">
<title>OFFENDER</title>
<g id="a_node3"><a xlink:href="../../tables/OFFENDER.html" xlink:title="OFFENDER" target="_top">
<polygon fill="#ffffff" stroke="transparent" points="277,-581.353 277,-642.353 403,-642.353 403,-581.353 277,-581.353"/>
<polygon fill="#f5f5f5" stroke="transparent" points="277,-618.853 277,-641.853 403,-641.853 403,-618.853 277,-618.853"/>
<polygon fill="none" stroke="#000000" points="277,-618.853 277,-641.853 403,-641.853 403,-618.853 277,-618.853"/>
<text text-anchor="start" x="282" y="-627.953" font-family="Helvetica,sans-Serif" font-weight="bold" font-size="11.00" fill="#000000">OFFENDER</text>
<text text-anchor="start" x="368.0437" y="-626.953" font-family="Helvetica,sans-Serif" font-size="11.00" fill="#000000">[table]</text>
<polygon fill="none" stroke="#000000" points="277,-599.853 277,-618.853 403,-618.853 403,-599.853 277,-599.853"/>
<text text-anchor="start" x="280" y="-605.953" font-family="Helvetica,sans-Serif" font-size="11.00" fill="#000000">...</text>
<polygon fill="#ffffff" stroke="transparent" points="277,-580.853 277,-599.853 304,-599.853 304,-580.853 277,-580.853"/>
<polygon fill="none" stroke="#000000" points="277,-580.853 277,-599.853 304,-599.853 304,-580.853 277,-580.853"/>
<text text-anchor="start" x="279.6452" y="-586.953" font-family="Helvetica,sans-Serif" font-size="11.00" fill="#000000">&lt; 16</text>
<polygon fill="#ffffff" stroke="transparent" points="304,-580.853 304,-599.853 376,-599.853 376,-580.853 304,-580.853"/>
<polygon fill="none" stroke="#000000" points="304,-580.853 304,-599.853 376,-599.853 376,-580.853 304,-580.853"/>
<text text-anchor="start" x="306.9896" y="-586.953" font-family="Helvetica,sans-Serif" font-size="11.00" fill="#000000">494,119 rows</text>
<polygon fill="#ffffff" stroke="transparent" points="376,-580.853 376,-599.853 403,-599.853 403,-580.853 376,-580.853"/>
<polygon fill="none" stroke="#000000" points="376,-580.853 376,-599.853 403,-599.853 403,-580.853 376,-580.853"/>
<text text-anchor="start" x="378.6452" y="-586.953" font-family="Helvetica,sans-Serif" font-size="11.00" fill="#000000">96 &gt;</text>
</a>
</g>
</g>
<!-- CASELOAD&#45;&gt;OFFENDER -->
<g id="edge3" class="edge">
<title>CASELOAD:w&#45;&gt;OFFENDER:e</title>
<path fill="none" stroke="#000000" d="M1515.5766,-777.9992C1481.617,-717.0241 1513.3259,-360.5955 1486,-321.853 1414.1297,-219.9555 1351.1621,-238.1622 1231,-204.853 893.6715,-111.3448 702.875,61.7697 444,-173.853 372.1944,-239.209 500.0951,-608.853 403,-608.853"/>
<polygon fill="#000000" stroke="#000000" points="1520.6769,-781.9522 1524.7946,-789.6984 1523.8384,-784.4026 1527,-786.853 1527,-786.853 1527,-786.853 1523.8384,-784.4026 1529.2054,-784.0076 1520.6769,-781.9522 1520.6769,-781.9522"/>
<ellipse fill="none" stroke="#000000" cx="1518.1476" cy="-779.9918" rx="3.2" ry="3.2"/>
</g>
<!-- PSS_RQMNT -->
<g id="node4" class="node">
<title>PSS_RQMNT</title>
<g id="a_node4"><a xlink:href="../../tables/PSS_RQMNT.html" xlink:title="PSS_RQMNT" target="_top">
<polygon fill="#ffffff" stroke="transparent" points="802,-386.353 802,-579.353 998,-579.353 998,-386.353 802,-386.353"/>
<polygon fill="#f5f5f5" stroke="transparent" points="802,-555.853 802,-578.853 998,-578.853 998,-555.853 802,-555.853"/>
<polygon fill="none" stroke="#000000" points="802,-555.853 802,-578.853 998,-578.853 998,-555.853 802,-555.853"/>
<text text-anchor="start" x="807" y="-564.953" font-family="Helvetica,sans-Serif" font-weight="bold" font-size="11.00" fill="#000000">PSS_RQMNT</text>
<text text-anchor="start" x="963.0437" y="-563.953" font-family="Helvetica,sans-Serif" font-size="11.00" fill="#000000">[table]</text>
<polygon fill="none" stroke="#000000" points="802,-533.853 802,-555.853 998,-555.853 998,-533.853 802,-533.853"/>
<image xlink:href="../../images/primaryKeys.png" width="11px" height="12px" preserveAspectRatio="xMinYMin meet" x="807" y="-550.853"/>
<text text-anchor="start" x="822" y="-540.953" font-family="Helvetica,sans-Serif" font-size="11.00" fill="#000000">PSS_RQMNT_ID</text>
<polygon fill="none" stroke="#000000" points="802,-511.853 802,-533.853 998,-533.853 998,-511.853 802,-511.853"/>
<image xlink:href="../../images/primaryKeys.png" width="11px" height="12px" preserveAspectRatio="xMinYMin meet" x="807" y="-528.853"/>
<text text-anchor="start" x="822" y="-518.953" font-family="Helvetica,sans-Serif" font-size="11.00" fill="#000000">CUSTODY_ID</text>
<polygon fill="none" stroke="#000000" points="802,-489.853 802,-511.853 998,-511.853 998,-489.853 802,-489.853"/>
<image xlink:href="../../images/primaryKeys.png" width="11px" height="12px" preserveAspectRatio="xMinYMin meet" x="807" y="-506.853"/>
<text text-anchor="start" x="816.4398" y="-496.953" font-family="Helvetica,sans-Serif" font-size="11.00" fill="#000000">PSS_RQMNT_TYPE_MAIN_CAT_ID</text>
<polygon fill="none" stroke="#000000" points="802,-467.853 802,-489.853 998,-489.853 998,-467.853 802,-467.853"/>
<image xlink:href="../../images/primaryKeys.png" width="11px" height="12px" preserveAspectRatio="xMinYMin meet" x="807" y="-484.853"/>
<text text-anchor="start" x="818.8813" y="-474.953" font-family="Helvetica,sans-Serif" font-size="11.00" fill="#000000">PSS_RQMNT_TYPE_SUB_CAT_ID</text>
<polygon fill="none" stroke="#000000" points="802,-445.853 802,-467.853 998,-467.853 998,-445.853 802,-445.853"/>
<image xlink:href="../../images/primaryKeys.png" width="11px" height="12px" preserveAspectRatio="xMinYMin meet" x="807" y="-462.853"/>
<text text-anchor="start" x="819.8047" y="-452.953" font-family="Helvetica,sans-Serif" font-size="11.00" fill="#000000">PSS_RQMNT_TERM_REASON_ID</text>
<polygon fill="none" stroke="#000000" points="802,-423.853 802,-445.853 998,-445.853 998,-423.853 802,-423.853"/>
<image xlink:href="../../images/primaryKeys.png" width="11px" height="12px" preserveAspectRatio="xMinYMin meet" x="807" y="-440.853"/>
<text text-anchor="start" x="822" y="-430.953" font-family="Helvetica,sans-Serif" font-size="11.00" fill="#000000">OFFENDER_ID</text>
<polygon fill="none" stroke="#000000" points="802,-404.853 802,-423.853 998,-423.853 998,-404.853 802,-404.853"/>
<text text-anchor="start" x="805" y="-410.953" font-family="Helvetica,sans-Serif" font-size="11.00" fill="#000000">...</text>
<polygon fill="#ffffff" stroke="transparent" points="802,-385.853 802,-404.853 875,-404.853 875,-385.853 802,-385.853"/>
<polygon fill="none" stroke="#000000" points="802,-385.853 802,-404.853 875,-404.853 875,-385.853 802,-385.853"/>
<text text-anchor="start" x="805" y="-391.953" font-family="Helvetica,sans-Serif" font-size="11.00" fill="#000000">&lt; 5</text>
<polygon fill="#ffffff" stroke="transparent" points="875,-385.853 875,-404.853 951,-404.853 951,-385.853 875,-385.853"/>
<polygon fill="none" stroke="#000000" points="875,-385.853 875,-404.853 951,-404.853 951,-385.853 875,-385.853"/>
<text text-anchor="start" x="903.3807" y="-391.953" font-family="Helvetica,sans-Serif" font-size="11.00" fill="#000000">746 rows</text>
<polygon fill="#ffffff" stroke="transparent" points="951,-385.853 951,-404.853 998,-404.853 998,-385.853 951,-385.853"/>
<polygon fill="none" stroke="#000000" points="951,-385.853 951,-404.853 998,-404.853 998,-385.853 951,-385.853"/>
<text text-anchor="start" x="979.4053" y="-391.953" font-family="Helvetica,sans-Serif" font-size="11.00" fill="#000000">5 &gt;</text>
</a>
</g>
</g>
<!-- CASELOAD&#45;&gt;PSS_RQMNT -->
<g id="edge4" class="edge">
<title>CASELOAD:w&#45;&gt;PSS_RQMNT:e</title>
<path fill="none" stroke="#000000" d="M1512.8714,-782.6537C1501.9213,-774.0842 1502.5287,-754.3396 1486,-741.853 1299.3731,-600.8666 1231.8948,-544.853 998,-544.853"/>
<polygon fill="#000000" stroke="#000000" points="1519.3316,-784.5737 1525.9743,-790.3038 1523.1658,-785.7134 1527,-786.853 1527,-786.853 1527,-786.853 1523.1658,-785.7134 1528.0257,-783.4022 1519.3316,-784.5737 1519.3316,-784.5737"/>
<ellipse fill="none" stroke="#000000" cx="1516.2642" cy="-783.662" rx="3.2" ry="3.2"/>
</g>
<!-- PSS_RQMNT_MANAGER -->
<g id="node5" class="node">
<title>PSS_RQMNT_MANAGER</title>
<g id="a_node5"><a xlink:href="../../tables/PSS_RQMNT_MANAGER.html" xlink:title="PSS_RQMNT_MANAGER" target="_top">
<polygon fill="#ffffff" stroke="transparent" points="1288.5,-786.353 1288.5,-847.353 1461.5,-847.353 1461.5,-786.353 1288.5,-786.353"/>
<polygon fill="#f5f5f5" stroke="transparent" points="1289,-823.853 1289,-846.853 1462,-846.853 1462,-823.853 1289,-823.853"/>
<polygon fill="none" stroke="#000000" points="1289,-823.853 1289,-846.853 1462,-846.853 1462,-823.853 1289,-823.853"/>
<text text-anchor="start" x="1293.9169" y="-832.953" font-family="Helvetica,sans-Serif" font-weight="bold" font-size="11.00" fill="#000000">PSS_RQMNT_MANAGER</text>
<text text-anchor="start" x="1427.5219" y="-831.953" font-family="Helvetica,sans-Serif" font-size="11.00" fill="#000000">[table]</text>
<polygon fill="none" stroke="#000000" points="1289,-804.853 1289,-823.853 1462,-823.853 1462,-804.853 1289,-804.853"/>
<text text-anchor="start" x="1292" y="-810.953" font-family="Helvetica,sans-Serif" font-size="11.00" fill="#000000">...</text>
<polygon fill="#ffffff" stroke="transparent" points="1289,-785.853 1289,-804.853 1353,-804.853 1353,-785.853 1289,-785.853"/>
<polygon fill="none" stroke="#000000" points="1289,-785.853 1289,-804.853 1353,-804.853 1353,-785.853 1289,-785.853"/>
<text text-anchor="start" x="1292" y="-791.953" font-family="Helvetica,sans-Serif" font-size="11.00" fill="#000000">&lt; 11</text>
<polygon fill="#ffffff" stroke="transparent" points="1353,-785.853 1353,-804.853 1422,-804.853 1422,-785.853 1353,-785.853"/>
<polygon fill="none" stroke="#000000" points="1353,-785.853 1353,-804.853 1422,-804.853 1422,-785.853 1353,-785.853"/>
<text text-anchor="start" x="1374.3807" y="-791.953" font-family="Helvetica,sans-Serif" font-size="11.00" fill="#000000">809 rows</text>
<polygon fill="#ffffff" stroke="transparent" points="1422,-785.853 1422,-804.853 1462,-804.853 1462,-785.853 1422,-785.853"/>
<polygon fill="none" stroke="#000000" points="1422,-785.853 1422,-804.853 1462,-804.853 1462,-785.853 1422,-785.853"/>
<text text-anchor="start" x="1443.4053" y="-791.953" font-family="Helvetica,sans-Serif" font-size="11.00" fill="#000000">1 &gt;</text>
</a>
</g>
</g>
<!-- CASELOAD&#45;&gt;PSS_RQMNT_MANAGER -->
<g id="edge5" class="edge">
<title>CASELOAD:w&#45;&gt;PSS_RQMNT_MANAGER:e</title>
<path fill="none" stroke="#000000" d="M1512.5964,-789.155C1493.9112,-795.6844 1487.6611,-813.853 1462,-813.853"/>
<polygon fill="#000000" stroke="#000000" points="1519.1003,-788.1156 1527.5682,-790.4079 1523.0501,-787.4843 1527,-786.853 1527,-786.853 1527,-786.853 1523.0501,-787.4843 1526.4318,-783.2981 1519.1003,-788.1156 1519.1003,-788.1156"/>
<ellipse fill="none" stroke="#000000" cx="1515.9404" cy="-788.6206" rx="3.2" ry="3.2"/>
</g>
<!-- R_PSS_RQMNT_TYPE_MAIN_CATEGORY -->
<g id="node6" class="node">
<title>R_PSS_RQMNT_TYPE_MAIN_CATEGORY</title>
<g id="a_node6"><a xlink:href="../../tables/R_PSS_RQMNT_TYPE_MAIN_CATEGORY.html" xlink:title="R_PSS_RQMNT_TYPE_MAIN_CATEGORY" target="_top">
<polygon fill="#ffffff" stroke="transparent" points="472,-693.353 472,-754.353 733,-754.353 733,-693.353 472,-693.353"/>
<polygon fill="#f5f5f5" stroke="transparent" points="472.5,-730.853 472.5,-753.853 733.5,-753.853 733.5,-730.853 472.5,-730.853"/>
<polygon fill="none" stroke="#000000" points="472.5,-730.853 472.5,-753.853 733.5,-753.853 733.5,-730.853 472.5,-730.853"/>
<text text-anchor="start" x="477.105" y="-739.953" font-family="Helvetica,sans-Serif" font-weight="bold" font-size="11.00" fill="#000000">R_PSS_RQMNT_TYPE_MAIN_CATEGORY</text>
<text text-anchor="start" x="699.0219" y="-738.953" font-family="Helvetica,sans-Serif" font-size="11.00" fill="#000000">[table]</text>
<polygon fill="none" stroke="#000000" points="472.5,-711.853 472.5,-730.853 733.5,-730.853 733.5,-711.853 472.5,-711.853"/>
<text text-anchor="start" x="475.5" y="-717.953" font-family="Helvetica,sans-Serif" font-size="11.00" fill="#000000">...</text>
<polygon fill="#ffffff" stroke="transparent" points="472.5,-692.853 472.5,-711.853 583.5,-711.853 583.5,-692.853 472.5,-692.853"/>
<polygon fill="none" stroke="#000000" points="472.5,-692.853 472.5,-711.853 583.5,-711.853 583.5,-692.853 472.5,-692.853"/>
<text text-anchor="start" x="475.5" y="-698.953" font-family="Helvetica,sans-Serif" font-size="11.00" fill="#000000">&lt; 1</text>
<polygon fill="#ffffff" stroke="transparent" points="583.5,-692.853 583.5,-711.853 666.5,-711.853 666.5,-692.853 583.5,-692.853"/>
<polygon fill="none" stroke="#000000" points="583.5,-692.853 583.5,-711.853 666.5,-711.853 666.5,-692.853 583.5,-692.853"/>
<text text-anchor="start" x="631.1105" y="-698.953" font-family="Helvetica,sans-Serif" font-size="11.00" fill="#000000">8 rows</text>
<polygon fill="#ffffff" stroke="transparent" points="666.5,-692.853 666.5,-711.853 733.5,-711.853 733.5,-692.853 666.5,-692.853"/>
<polygon fill="none" stroke="#000000" points="666.5,-692.853 666.5,-711.853 733.5,-711.853 733.5,-692.853 666.5,-692.853"/>
<text text-anchor="start" x="714.9053" y="-698.953" font-family="Helvetica,sans-Serif" font-size="11.00" fill="#000000">6 &gt;</text>
</a>
</g>
</g>
<!-- CASELOAD&#45;&gt;R_PSS_RQMNT_TYPE_MAIN_CATEGORY -->
<g id="edge6" class="edge">
<title>CASELOAD:w&#45;&gt;R_PSS_RQMNT_TYPE_MAIN_CATEGORY:e</title>
<path fill="none" stroke="#000000" d="M1512.5972,-784.8132C1504.3371,-782.2313 1498.6627,-777.8769 1486,-775.853 1181.8415,-727.2395 1097.8662,-788.2614 794,-737.853 766.4463,-733.2821 761.4302,-720.853 733.5,-720.853"/>
<polygon fill="#000000" stroke="#000000" points="1519.079,-785.7311 1526.4952,-790.4174 1523.0395,-786.2921 1527,-786.853 1527,-786.853 1527,-786.853 1523.0395,-786.2921 1527.5048,-783.2886 1519.079,-785.7311 1519.079,-785.7311"/>
<ellipse fill="none" stroke="#000000" cx="1515.9107" cy="-785.2824" rx="3.2" ry="3.2"/>
</g>
<!-- OFFENDER&#45;&gt;R_STANDARD_REFERENCE_LIST -->
<g id="edge11" class="edge">
<title>OFFENDER:w&#45;&gt;R_STANDARD_REFERENCE_LIST:e</title>
<path fill="none" stroke="#000000" d="M272.9839,-594.7431C254.4525,-531.177 248.3741,-535.8803 228,-608.853"/>
<polygon fill="#000000" stroke="#000000" points="274.8099,-601.1586 273.5375,-609.8385 275.9049,-605.0058 277,-608.853 277,-608.853 277,-608.853 275.9049,-605.0058 280.4625,-607.8675 274.8099,-601.1586 274.8099,-601.1586"/>
<ellipse fill="none" stroke="#000000" cx="273.9339" cy="-598.0808" rx="3.2" ry="3.2"/>
</g>
<!-- OFFENDER&#45;&gt;R_STANDARD_REFERENCE_LIST -->
<g id="edge12" class="edge">
<title>OFFENDER:w&#45;&gt;R_STANDARD_REFERENCE_LIST:e</title>
<path fill="none" stroke="#000000" d="M272.2933,-595.1309C254.298,-544.2301 248.1189,-548.8042 228,-608.853"/>
<polygon fill="#000000" stroke="#000000" points="274.4044,-601.2858 273.5947,-610.021 275.7022,-605.0694 277,-608.853 277,-608.853 277,-608.853 275.7022,-605.0694 280.4053,-607.685 274.4044,-601.2858 274.4044,-601.2858"/>
<ellipse fill="none" stroke="#000000" cx="273.3662" cy="-598.2589" rx="3.2" ry="3.2"/>
</g>
<!-- OFFENDER&#45;&gt;R_STANDARD_REFERENCE_LIST -->
<g id="edge13" class="edge">
<title>OFFENDER:w&#45;&gt;R_STANDARD_REFERENCE_LIST:e</title>
<path fill="none" stroke="#000000" d="M271.2787,-595.5991C254.0578,-557.31 247.7361,-561.728 228,-608.853"/>
<polygon fill="#000000" stroke="#000000" points="273.8294,-601.5081 273.6948,-610.2798 275.4147,-605.1805 277,-608.853 277,-608.853 277,-608.853 275.4147,-605.1805 280.3052,-607.4262 273.8294,-601.5081 273.8294,-601.5081"/>
<ellipse fill="none" stroke="#000000" cx="272.5612" cy="-598.5701" rx="3.2" ry="3.2"/>
</g>
<!-- OFFENDER&#45;&gt;R_STANDARD_REFERENCE_LIST -->
<g id="edge14" class="edge">
<title>OFFENDER:w&#45;&gt;R_STANDARD_REFERENCE_LIST:e</title>
<path fill="none" stroke="#000000" d="M269.7491,-596.4007C253.6641,-570.4249 247.1406,-574.5757 228,-608.853"/>
<polygon fill="#000000" stroke="#000000" points="272.9744,-601.9396 273.889,-610.6645 274.9872,-605.3963 277,-608.853 277,-608.853 277,-608.853 274.9872,-605.3963 280.111,-607.0415 272.9744,-601.9396 272.9744,-601.9396"/>
<ellipse fill="none" stroke="#000000" cx="271.3641" cy="-599.1743" rx="3.2" ry="3.2"/>
</g>
<!-- OFFENDER&#45;&gt;R_STANDARD_REFERENCE_LIST -->
<g id="edge15" class="edge">
<title>OFFENDER:w&#45;&gt;R_STANDARD_REFERENCE_LIST:e</title>
<path fill="none" stroke="#000000" d="M267.0525,-597.7509C252.8682,-583.6211 246.0347,-587.3217 228,-608.853"/>
<polygon fill="#000000" stroke="#000000" points="271.6614,-602.8948 274.3188,-611.2554 274.3307,-605.8739 277,-608.853 277,-608.853 277,-608.853 274.3307,-605.8739 279.6812,-606.4506 271.6614,-602.8948 271.6614,-602.8948"/>
<ellipse fill="none" stroke="#000000" cx="269.526" cy="-600.5115" rx="3.2" ry="3.2"/>
</g>
<!-- OFFENDER&#45;&gt;R_STANDARD_REFERENCE_LIST -->
<g id="edge16" class="edge">
<title>OFFENDER:w&#45;&gt;R_STANDARD_REFERENCE_LIST:e</title>
<path fill="none" stroke="#000000" d="M263.9586,-601.8547C251.7729,-596.5671 244.6736,-598.8999 228,-608.853"/>
<polygon fill="#000000" stroke="#000000" points="269.9508,-605.0702 275.2978,-612.0251 273.4754,-606.9616 277,-608.853 277,-608.853 277,-608.853 273.4754,-606.9616 278.7022,-605.6809 269.9508,-605.0702 269.9508,-605.0702"/>
<ellipse fill="none" stroke="#000000" cx="267.1311" cy="-603.5571" rx="3.2" ry="3.2"/>
</g>
<!-- OFFENDER&#45;&gt;R_STANDARD_REFERENCE_LIST -->
<g id="edge17" class="edge">
<title>OFFENDER:w&#45;&gt;R_STANDARD_REFERENCE_LIST:e</title>
<path fill="none" stroke="#000000" d="M262.4909,-608.853C251.1774,-608.853 243.9931,-608.853 228,-608.853"/>
<polygon fill="#000000" stroke="#000000" points="269,-608.8531 277,-612.453 273,-608.853 277,-608.853 277,-608.853 277,-608.853 273,-608.853 277,-605.253 269,-608.8531 269,-608.8531"/>
<ellipse fill="none" stroke="#000000" cx="265.8" cy="-608.8531" rx="3.2" ry="3.2"/>
</g>
<!-- OFFENDER&#45;&gt;R_STANDARD_REFERENCE_LIST -->
<g id="edge18" class="edge">
<title>OFFENDER:w&#45;&gt;R_STANDARD_REFERENCE_LIST:e</title>
<path fill="none" stroke="#000000" d="M263.9586,-615.8513C251.7729,-621.1389 244.6736,-618.8061 228,-608.853"/>
<polygon fill="#000000" stroke="#000000" points="269.9508,-612.6358 278.7022,-612.0251 273.4754,-610.7444 277,-608.853 277,-608.853 277,-608.853 273.4754,-610.7444 275.2978,-605.6809 269.9508,-612.6358 269.9508,-612.6358"/>
<ellipse fill="none" stroke="#000000" cx="267.1311" cy="-614.1489" rx="3.2" ry="3.2"/>
</g>
<!-- OFFENDER&#45;&gt;R_STANDARD_REFERENCE_LIST -->
<g id="edge19" class="edge">
<title>OFFENDER:w&#45;&gt;R_STANDARD_REFERENCE_LIST:e</title>
<path fill="none" stroke="#000000" d="M267.0525,-619.955C252.8682,-634.0849 246.0347,-630.3842 228,-608.853"/>
<polygon fill="#000000" stroke="#000000" points="271.6614,-614.8112 279.6812,-611.2554 274.3307,-611.8321 277,-608.853 277,-608.853 277,-608.853 274.3307,-611.8321 274.3188,-606.4506 271.6614,-614.8112 271.6614,-614.8112"/>
<ellipse fill="none" stroke="#000000" cx="269.526" cy="-617.1945" rx="3.2" ry="3.2"/>
</g>
<!-- OFFENDER&#45;&gt;R_STANDARD_REFERENCE_LIST -->
<g id="edge20" class="edge">
<title>OFFENDER:w&#45;&gt;R_STANDARD_REFERENCE_LIST:e</title>
<path fill="none" stroke="#000000" d="M269.7491,-621.3053C253.6641,-647.2811 247.1406,-643.1303 228,-608.853"/>
<polygon fill="#000000" stroke="#000000" points="272.9744,-615.7664 280.111,-610.6645 274.9872,-612.3097 277,-608.853 277,-608.853 277,-608.853 274.9872,-612.3097 273.889,-607.0415 272.9744,-615.7664 272.9744,-615.7664"/>
<ellipse fill="none" stroke="#000000" cx="271.3641" cy="-618.5317" rx="3.2" ry="3.2"/>
</g>
<!-- OFFENDER&#45;&gt;R_STANDARD_REFERENCE_LIST -->
<g id="edge21" class="edge">
<title>OFFENDER:w&#45;&gt;R_STANDARD_REFERENCE_LIST:e</title>
<path fill="none" stroke="#000000" d="M271.2787,-622.1069C254.0578,-660.396 247.7361,-655.978 228,-608.853"/>
<polygon fill="#000000" stroke="#000000" points="273.8294,-616.1979 280.3052,-610.2798 275.4147,-612.5255 277,-608.853 277,-608.853 277,-608.853 275.4147,-612.5255 273.6948,-607.4262 273.8294,-616.1979 273.8294,-616.1979"/>
<ellipse fill="none" stroke="#000000" cx="272.5612" cy="-619.1359" rx="3.2" ry="3.2"/>
</g>
<!-- OFFENDER&#45;&gt;R_STANDARD_REFERENCE_LIST -->
<g id="edge22" class="edge">
<title>OFFENDER:w&#45;&gt;R_STANDARD_REFERENCE_LIST:e</title>
<path fill="none" stroke="#000000" d="M272.2933,-622.5751C254.298,-673.4759 248.1189,-668.9018 228,-608.853"/>
<polygon fill="#000000" stroke="#000000" points="274.4044,-616.4202 280.4053,-610.021 275.7022,-612.6366 277,-608.853 277,-608.853 277,-608.853 275.7022,-612.6366 273.5947,-607.685 274.4044,-616.4202 274.4044,-616.4202"/>
<ellipse fill="none" stroke="#000000" cx="273.3662" cy="-619.4471" rx="3.2" ry="3.2"/>
</g>
<!-- OFFENDER&#45;&gt;R_STANDARD_REFERENCE_LIST -->
<g id="edge23" class="edge">
<title>OFFENDER:w&#45;&gt;R_STANDARD_REFERENCE_LIST:e</title>
<path fill="none" stroke="#000000" d="M272.9839,-622.9629C254.4525,-686.529 248.3741,-681.8257 228,-608.853"/>
<polygon fill="#000000" stroke="#000000" points="274.8099,-616.5474 280.4625,-609.8385 275.9049,-612.7002 277,-608.853 277,-608.853 277,-608.853 275.9049,-612.7002 273.5375,-607.8675 274.8099,-616.5474 274.8099,-616.5474"/>
<ellipse fill="none" stroke="#000000" cx="273.9339" cy="-619.6251" rx="3.2" ry="3.2"/>
</g>
<!-- PSS_RQMNT&#45;&gt;R_STANDARD_REFERENCE_LIST -->
<g id="edge26" class="edge">
<title>PSS_RQMNT:w&#45;&gt;R_STANDARD_REFERENCE_LIST:e</title>
<path fill="none" stroke="#000000" d="M787.5263,-455.1473C730.7954,-439.4547 822.8922,-319.6454 761,-269.853 733.5564,-247.7746 469.9529,-246.0401 444,-269.853 381.055,-327.6077 473.945,-595.0983 411,-652.853 387.7488,-674.1869 297.936,-665.4411 269,-652.853 244.4894,-642.19 254.7296,-608.853 228,-608.853"/>
<polygon fill="#000000" stroke="#000000" points="794.055,-455.9167 801.5787,-460.4283 798.0275,-456.3848 802,-456.853 802,-456.853 802,-456.853 798.0275,-456.3848 802.4213,-453.2777 794.055,-455.9167 794.055,-455.9167"/>
<ellipse fill="none" stroke="#000000" cx="790.877" cy="-455.5421" rx="3.2" ry="3.2"/>
</g>
<!-- PSS_RQMNT&#45;&gt;OFFENDER -->
<g id="edge25" class="edge">
<title>PSS_RQMNT:w&#45;&gt;OFFENDER:e</title>
<path fill="none" stroke="#000000" d="M787.3831,-433.1297C730.115,-417.2746 823.4682,-296.2229 761,-245.853 733.5809,-223.7442 470.2664,-222.3864 444,-245.853 383.4617,-299.9385 484.1796,-608.853 403,-608.853"/>
<polygon fill="#000000" stroke="#000000" points="794.055,-433.9163 801.5785,-438.4282 798.0275,-434.3846 802,-434.853 802,-434.853 802,-434.853 798.0275,-434.3846 802.4215,-431.2778 794.055,-433.9163 794.055,-433.9163"/>
<ellipse fill="none" stroke="#000000" cx="790.877" cy="-433.5416" rx="3.2" ry="3.2"/>
</g>
<!-- PSS_RQMNT&#45;&gt;R_PSS_RQMNT_TYPE_MAIN_CATEGORY -->
<g id="edge27" class="edge">
<title>PSS_RQMNT:w&#45;&gt;R_PSS_RQMNT_TYPE_MAIN_CATEGORY:e</title>
<path fill="none" stroke="#000000" d="M787.2625,-502.7549C713.7878,-524.2575 830.3074,-720.853 733.5,-720.853"/>
<polygon fill="#000000" stroke="#000000" points="794.0658,-501.877 802.4608,-504.4234 798.0329,-501.365 802,-500.853 802,-500.853 802,-500.853 798.0329,-501.365 801.5392,-497.2826 794.0658,-501.877 794.0658,-501.877"/>
<ellipse fill="none" stroke="#000000" cx="790.8921" cy="-502.2866" rx="3.2" ry="3.2"/>
</g>
<!-- CUSTODY -->
<g id="node8" class="node">
<title>CUSTODY</title>
<g id="a_node8"><a xlink:href="../../tables/CUSTODY.html" xlink:title="CUSTODY" target="_top">
<polygon fill="#ffffff" stroke="transparent" points="552,-611.353 552,-672.353 653,-672.353 653,-611.353 552,-611.353"/>
<polygon fill="#f5f5f5" stroke="transparent" points="552.5,-648.853 552.5,-671.853 653.5,-671.853 653.5,-648.853 552.5,-648.853"/>
<polygon fill="none" stroke="#000000" points="552.5,-648.853 552.5,-671.853 653.5,-671.853 653.5,-648.853 552.5,-648.853"/>
<text text-anchor="start" x="557.5" y="-657.953" font-family="Helvetica,sans-Serif" font-weight="bold" font-size="11.00" fill="#000000">CUSTODY</text>
<text text-anchor="start" x="618.5437" y="-656.953" font-family="Helvetica,sans-Serif" font-size="11.00" fill="#000000">[table]</text>
<polygon fill="none" stroke="#000000" points="552.5,-629.853 552.5,-648.853 653.5,-648.853 653.5,-629.853 552.5,-629.853"/>
<text text-anchor="start" x="555.5" y="-635.953" font-family="Helvetica,sans-Serif" font-size="11.00" fill="#000000">...</text>
<polygon fill="#ffffff" stroke="transparent" points="552.5,-610.853 552.5,-629.853 573.5,-629.853 573.5,-610.853 552.5,-610.853"/>
<polygon fill="none" stroke="#000000" points="552.5,-610.853 552.5,-629.853 573.5,-629.853 573.5,-610.853 552.5,-610.853"/>
<text text-anchor="start" x="555.2026" y="-616.953" font-family="Helvetica,sans-Serif" font-size="11.00" fill="#000000">&lt; 6</text>
<polygon fill="#ffffff" stroke="transparent" points="573.5,-610.853 573.5,-629.853 632.5,-629.853 632.5,-610.853 573.5,-610.853"/>
<polygon fill="none" stroke="#000000" points="573.5,-610.853 573.5,-629.853 632.5,-629.853 632.5,-610.853 573.5,-610.853"/>
<text text-anchor="start" x="576.1045" y="-616.953" font-family="Helvetica,sans-Serif" font-size="11.00" fill="#000000">6,637 rows</text>
<polygon fill="#ffffff" stroke="transparent" points="632.5,-610.853 632.5,-629.853 653.5,-629.853 653.5,-610.853 632.5,-610.853"/>
<polygon fill="none" stroke="#000000" points="632.5,-610.853 632.5,-629.853 653.5,-629.853 653.5,-610.853 632.5,-610.853"/>
<text text-anchor="start" x="635.2026" y="-616.953" font-family="Helvetica,sans-Serif" font-size="11.00" fill="#000000">5 &gt;</text>
</a>
</g>
</g>
<!-- PSS_RQMNT&#45;&gt;CUSTODY -->
<g id="edge24" class="edge">
<title>PSS_RQMNT:w&#45;&gt;CUSTODY:e</title>
<path fill="none" stroke="#000000" d="M787.5805,-526.7327C770.4063,-539.318 785.757,-579.4306 761,-600.853 722.6797,-634.0118 704.175,-638.853 653.5,-638.853"/>
<polygon fill="#000000" stroke="#000000" points="794.2747,-524.9316 802.9354,-526.3294 798.1374,-523.8923 802,-522.853 802,-522.853 802,-522.853 798.1374,-523.8923 801.0646,-519.3766 794.2747,-524.9316 794.2747,-524.9316"/>
<ellipse fill="none" stroke="#000000" cx="791.1846" cy="-525.763" rx="3.2" ry="3.2"/>
</g>
<!-- R_PSS_RQMNT_TYPE_SUB_CATEGORY -->
<g id="node9" class="node">
<title>R_PSS_RQMNT_TYPE_SUB_CATEGORY</title>
<g id="a_node9"><a xlink:href="../../tables/R_PSS_RQMNT_TYPE_SUB_CATEGORY.html" xlink:title="R_PSS_RQMNT_TYPE_SUB_CATEGORY" target="_top">
<polygon fill="#ffffff" stroke="transparent" points="452,-279.853 452,-589.853 753,-589.853 753,-279.853 452,-279.853"/>
<polygon fill="#f5f5f5" stroke="transparent" points="454.5,-564.853 454.5,-587.853 751.5,-587.853 751.5,-564.853 454.5,-564.853"/>
<polygon fill="none" stroke="#000000" points="454.5,-564.853 454.5,-587.853 751.5,-587.853 751.5,-564.853 454.5,-564.853"/>
<text text-anchor="start" x="459.5" y="-573.953" font-family="Helvetica,sans-Serif" font-weight="bold" font-size="11.00" fill="#000000">R_PSS_RQMNT_TYPE_SUB_CATEGORY</text>
<text text-anchor="start" x="716.5437" y="-572.953" font-family="Helvetica,sans-Serif" font-size="11.00" fill="#000000">[table]</text>
<polygon fill="none" stroke="#000000" points="454.5,-542.853 454.5,-564.853 678.5,-564.853 678.5,-542.853 454.5,-542.853"/>
<image xlink:href="../../images/primaryKeys.png" width="11px" height="12px" preserveAspectRatio="xMinYMin meet" x="459.5" y="-559.853"/>
<text text-anchor="start" x="474.5" y="-549.953" font-family="Helvetica,sans-Serif" font-size="11.00" fill="#000000">PSS_RQMNT_TYPE_SUB_CAT_ID</text>
<polygon fill="none" stroke="#000000" points="678.5,-542.853 678.5,-564.853 751.5,-564.853 751.5,-542.853 678.5,-542.853"/>
<text text-anchor="start" x="681.5" y="-550.553" font-family="Helvetica,sans-Serif" font-size="11.00" fill="#000000">number[22]</text>
<polygon fill="none" stroke="#000000" points="454.5,-520.853 454.5,-542.853 678.5,-542.853 678.5,-520.853 454.5,-520.853"/>
<text text-anchor="start" x="474.5" y="-527.953" font-family="Helvetica,sans-Serif" font-size="11.00" fill="#000000">CODE</text>
<polygon fill="none" stroke="#000000" points="678.5,-520.853 678.5,-542.853 751.5,-542.853 751.5,-520.853 678.5,-520.853"/>
<text text-anchor="start" x="681.5" y="-528.553" font-family="Helvetica,sans-Serif" font-size="11.00" fill="#000000">varchar2[20]</text>
<polygon fill="none" stroke="#000000" points="454.5,-498.853 454.5,-520.853 678.5,-520.853 678.5,-498.853 454.5,-498.853"/>
<text text-anchor="start" x="474.5" y="-505.953" font-family="Helvetica,sans-Serif" font-size="11.00" fill="#000000">DESCRIPTION</text>
<polygon fill="none" stroke="#000000" points="678.5,-498.853 678.5,-520.853 751.5,-520.853 751.5,-498.853 678.5,-498.853"/>
<text text-anchor="start" x="681.3791" y="-506.553" font-family="Helvetica,sans-Serif" font-size="11.00" fill="#000000">varchar2[200]</text>
<polygon fill="none" stroke="#000000" points="454.5,-476.853 454.5,-498.853 678.5,-498.853 678.5,-476.853 454.5,-476.853"/>
<text text-anchor="start" x="474.5" y="-483.953" font-family="Helvetica,sans-Serif" font-size="11.00" fill="#000000">SELECTABLE</text>
<polygon fill="none" stroke="#000000" points="678.5,-476.853 678.5,-498.853 751.5,-498.853 751.5,-476.853 678.5,-476.853"/>
<text text-anchor="start" x="681.5" y="-484.553" font-family="Helvetica,sans-Serif" font-size="11.00" fill="#000000">char[1]</text>
<polygon fill="none" stroke="#000000" points="454.5,-454.853 454.5,-476.853 678.5,-476.853 678.5,-454.853 454.5,-454.853"/>
<text text-anchor="start" x="474.5" y="-461.953" font-family="Helvetica,sans-Serif" font-size="11.00" fill="#000000">EXPECTED_SECTOR</text>
<polygon fill="none" stroke="#000000" points="678.5,-454.853 678.5,-476.853 751.5,-476.853 751.5,-454.853 678.5,-454.853"/>
<text text-anchor="start" x="681.5" y="-462.553" font-family="Helvetica,sans-Serif" font-size="11.00" fill="#000000">varchar2[10]</text>
<polygon fill="none" stroke="#000000" points="454.5,-432.853 454.5,-454.853 678.5,-454.853 678.5,-432.853 454.5,-432.853"/>
<text text-anchor="start" x="474.5" y="-439.953" font-family="Helvetica,sans-Serif" font-size="11.00" fill="#000000">ALLOW_DUPLICATES</text>
<polygon fill="none" stroke="#000000" points="678.5,-432.853 678.5,-454.853 751.5,-454.853 751.5,-432.853 678.5,-432.853"/>
<text text-anchor="start" x="681.5" y="-440.553" font-family="Helvetica,sans-Serif" font-size="11.00" fill="#000000">char[1]</text>
<polygon fill="none" stroke="#000000" points="454.5,-410.853 454.5,-432.853 678.5,-432.853 678.5,-410.853 454.5,-410.853"/>
<text text-anchor="start" x="474.5" y="-417.953" font-family="Helvetica,sans-Serif" font-size="11.00" fill="#000000">INACTIVE_DUPLICATES</text>
<polygon fill="none" stroke="#000000" points="678.5,-410.853 678.5,-432.853 751.5,-432.853 751.5,-410.853 678.5,-410.853"/>
<text text-anchor="start" x="681.5" y="-418.553" font-family="Helvetica,sans-Serif" font-size="11.00" fill="#000000">char[1]</text>
<polygon fill="none" stroke="#000000" points="454.5,-388.853 454.5,-410.853 678.5,-410.853 678.5,-388.853 454.5,-388.853"/>
<text text-anchor="start" x="474.5" y="-395.953" font-family="Helvetica,sans-Serif" font-size="11.00" fill="#000000">ROW_VERSION</text>
<polygon fill="none" stroke="#000000" points="678.5,-388.853 678.5,-410.853 751.5,-410.853 751.5,-388.853 678.5,-388.853"/>
<text text-anchor="start" x="681.5" y="-396.553" font-family="Helvetica,sans-Serif" font-size="11.00" fill="#000000">number[22]</text>
<polygon fill="none" stroke="#000000" points="454.5,-366.853 454.5,-388.853 678.5,-388.853 678.5,-366.853 454.5,-366.853"/>
<text text-anchor="start" x="474.5" y="-373.953" font-family="Helvetica,sans-Serif" font-size="11.00" fill="#000000">CREATED_BY_USER_ID</text>
<polygon fill="none" stroke="#000000" points="678.5,-366.853 678.5,-388.853 751.5,-388.853 751.5,-366.853 678.5,-366.853"/>
<text text-anchor="start" x="681.5" y="-374.553" font-family="Helvetica,sans-Serif" font-size="11.00" fill="#000000">number[22]</text>
<polygon fill="none" stroke="#000000" points="454.5,-344.853 454.5,-366.853 678.5,-366.853 678.5,-344.853 454.5,-344.853"/>
<text text-anchor="start" x="474.5" y="-351.953" font-family="Helvetica,sans-Serif" font-size="11.00" fill="#000000">CREATED_DATETIME</text>
<polygon fill="none" stroke="#000000" points="678.5,-344.853 678.5,-366.853 751.5,-366.853 751.5,-344.853 678.5,-344.853"/>
<text text-anchor="start" x="681.5" y="-352.553" font-family="Helvetica,sans-Serif" font-size="11.00" fill="#000000">date[7]</text>
<polygon fill="none" stroke="#000000" points="454.5,-322.853 454.5,-344.853 678.5,-344.853 678.5,-322.853 454.5,-322.853"/>
<text text-anchor="start" x="474.5" y="-329.953" font-family="Helvetica,sans-Serif" font-size="11.00" fill="#000000">LAST_UPDATED_USER_ID</text>
<polygon fill="none" stroke="#000000" points="678.5,-322.853 678.5,-344.853 751.5,-344.853 751.5,-322.853 678.5,-322.853"/>
<text text-anchor="start" x="681.5" y="-330.553" font-family="Helvetica,sans-Serif" font-size="11.00" fill="#000000">number[22]</text>
<polygon fill="none" stroke="#000000" points="454.5,-300.853 454.5,-322.853 678.5,-322.853 678.5,-300.853 454.5,-300.853"/>
<text text-anchor="start" x="474.5" y="-307.953" font-family="Helvetica,sans-Serif" font-size="11.00" fill="#000000">LAST_UPDATED_DATETIME</text>
<polygon fill="none" stroke="#000000" points="678.5,-300.853 678.5,-322.853 751.5,-322.853 751.5,-300.853 678.5,-300.853"/>
<text text-anchor="start" x="681.5" y="-308.553" font-family="Helvetica,sans-Serif" font-size="11.00" fill="#000000">date[7]</text>
<polygon fill="#ffffff" stroke="transparent" points="454.5,-281.853 454.5,-300.853 557.5,-300.853 557.5,-281.853 454.5,-281.853"/>
<polygon fill="none" stroke="#000000" points="454.5,-281.853 454.5,-300.853 557.5,-300.853 557.5,-281.853 454.5,-281.853"/>
<text text-anchor="start" x="457.5" y="-287.953" font-family="Helvetica,sans-Serif" font-size="11.00" fill="#000000">&lt; 0</text>
<polygon fill="#ffffff" stroke="transparent" points="557.5,-281.853 557.5,-300.853 678.5,-300.853 678.5,-281.853 557.5,-281.853"/>
<polygon fill="none" stroke="#000000" points="557.5,-281.853 557.5,-300.853 678.5,-300.853 678.5,-281.853 557.5,-281.853"/>
<text text-anchor="start" x="643.1105" y="-287.953" font-family="Helvetica,sans-Serif" font-size="11.00" fill="#000000">8 rows</text>
<polygon fill="#ffffff" stroke="transparent" points="678.5,-281.853 678.5,-300.853 751.5,-300.853 751.5,-281.853 678.5,-281.853"/>
<polygon fill="none" stroke="#000000" points="678.5,-281.853 678.5,-300.853 751.5,-300.853 751.5,-281.853 678.5,-281.853"/>
<text text-anchor="start" x="732.9053" y="-287.953" font-family="Helvetica,sans-Serif" font-size="11.00" fill="#000000">2 &gt;</text>
<polygon fill="none" stroke="#000000" stroke-width="2" points="453,-280.853 453,-588.853 752,-588.853 752,-280.853 453,-280.853"/>
</a>
</g>
</g>
<!-- PSS_RQMNT&#45;&gt;R_PSS_RQMNT_TYPE_SUB_CATEGORY -->
<g id="edge28" class="edge">
<title>PSS_RQMNT:w&#45;&gt;R_PSS_RQMNT_TYPE_SUB_CATEGORY:e</title>
<path fill="none" stroke="#000000" d="M788.2775,-483.32C769.1389,-499.4661 785.7204,-553.853 751.5,-553.853"/>
<polygon fill="#000000" stroke="#000000" points="794.3929,-481.3293 803.1143,-482.2762 798.1964,-480.0912 802,-478.853 802,-478.853 802,-478.853 798.1964,-480.0912 800.8857,-475.4298 794.3929,-481.3293 794.3929,-481.3293"/>
<ellipse fill="none" stroke="#000000" cx="791.3501" cy="-482.3198" rx="3.2" ry="3.2"/>
</g>
<!-- PSS_RQMNT_MANAGER&#45;&gt;R_STANDARD_REFERENCE_LIST -->
<g id="edge29" class="edge">
<title>PSS_RQMNT_MANAGER:w&#45;&gt;R_STANDARD_REFERENCE_LIST:e</title>
<path fill="none" stroke="#000000" d="M1274.7325,-816.8987C1256.0007,-826.4396 1257.8576,-855.7714 1231,-866.853 1094.8884,-923.0136 1047.2426,-880.853 900,-880.853 900,-880.853 900,-880.853 602.5,-880.853 447.7578,-880.853 374.4947,-894.0608 269,-780.853 215.4242,-723.3601 306.5863,-608.853 228,-608.853"/>
<polygon fill="#000000" stroke="#000000" points="1281.1763,-815.5232 1289.7516,-817.3737 1285.0881,-814.6881 1289,-813.853 1289,-813.853 1289,-813.853 1285.0881,-814.6881 1288.2484,-810.3323 1281.1763,-815.5232 1281.1763,-815.5232"/>
<ellipse fill="none" stroke="#000000" cx="1278.0468" cy="-816.1912" rx="3.2" ry="3.2"/>
</g>
<!-- PSS_RQMNT_MANAGER&#45;&gt;PSS_RQMNT -->
<g id="edge30" class="edge">
<title>PSS_RQMNT_MANAGER:w&#45;&gt;PSS_RQMNT:e</title>
<path fill="none" stroke="#000000" d="M1275.1613,-809.5504C1219.0746,-782.6707 1060.1625,-638.1724 1039,-613.853 1015.5832,-586.943 1033.672,-544.853 998,-544.853"/>
<polygon fill="#000000" stroke="#000000" points="1281.3607,-811.4778 1287.9312,-817.2907 1285.1804,-812.6654 1289,-813.853 1289,-813.853 1289,-813.853 1285.1804,-812.6654 1290.0688,-810.4153 1281.3607,-811.4778 1281.3607,-811.4778"/>
<ellipse fill="none" stroke="#000000" cx="1278.305" cy="-810.5277" rx="3.2" ry="3.2"/>
</g>
<!-- PSS_RQMNT_TRANSFER -->
<g id="node10" class="node">
<title>PSS_RQMNT_TRANSFER</title>
<g id="a_node10"><a xlink:href="../../tables/PSS_RQMNT_TRANSFER.html" xlink:title="PSS_RQMNT_TRANSFER" target="_top">
<polygon fill="#ffffff" stroke="transparent" points="1047,-795.353 1047,-856.353 1223,-856.353 1223,-795.353 1047,-795.353"/>
<polygon fill="#f5f5f5" stroke="transparent" points="1047,-832.853 1047,-855.853 1223,-855.853 1223,-832.853 1047,-832.853"/>
<polygon fill="none" stroke="#000000" points="1047,-832.853 1047,-855.853 1223,-855.853 1223,-832.853 1047,-832.853"/>
<text text-anchor="start" x="1051.5859" y="-841.953" font-family="Helvetica,sans-Serif" font-weight="bold" font-size="11.00" fill="#000000">PSS_RQMNT_TRANSFER</text>
<text text-anchor="start" x="1188.5219" y="-840.953" font-family="Helvetica,sans-Serif" font-size="11.00" fill="#000000">[table]</text>
<polygon fill="none" stroke="#000000" points="1047,-813.853 1047,-832.853 1223,-832.853 1223,-813.853 1047,-813.853"/>
<text text-anchor="start" x="1050" y="-819.953" font-family="Helvetica,sans-Serif" font-size="11.00" fill="#000000">...</text>
<polygon fill="#ffffff" stroke="transparent" points="1047,-794.853 1047,-813.853 1116,-813.853 1116,-794.853 1047,-794.853"/>
<polygon fill="none" stroke="#000000" points="1047,-794.853 1047,-813.853 1116,-813.853 1116,-794.853 1047,-794.853"/>
<text text-anchor="start" x="1050" y="-800.953" font-family="Helvetica,sans-Serif" font-size="11.00" fill="#000000">&lt; 13</text>
<polygon fill="#ffffff" stroke="transparent" points="1116,-794.853 1116,-813.853 1181,-813.853 1181,-794.853 1116,-794.853"/>
<polygon fill="none" stroke="#000000" points="1116,-794.853 1116,-813.853 1181,-813.853 1181,-794.853 1116,-794.853"/>
<text text-anchor="start" x="1139.4956" y="-800.953" font-family="Helvetica,sans-Serif" font-size="11.00" fill="#000000">93 rows</text>
<polygon fill="#ffffff" stroke="transparent" points="1181,-794.853 1181,-813.853 1223,-813.853 1223,-794.853 1181,-794.853"/>
<polygon fill="none" stroke="#000000" points="1181,-794.853 1181,-813.853 1223,-813.853 1223,-794.853 1181,-794.853"/>
<text text-anchor="start" x="1204.4053" y="-800.953" font-family="Helvetica,sans-Serif" font-size="11.00" fill="#000000">2 &gt;</text>
</a>
</g>
</g>
<!-- PSS_RQMNT_MANAGER&#45;&gt;PSS_RQMNT_TRANSFER -->
<g id="edge31" class="edge">
<title>PSS_RQMNT_MANAGER:w&#45;&gt;PSS_RQMNT_TRANSFER:e</title>
<path fill="none" stroke="#000000" d="M1274.4527,-814.6836C1256.0467,-816.9116 1247.0539,-822.853 1223,-822.853"/>
<polygon fill="#000000" stroke="#000000" points="1281.013,-814.3091 1289.2052,-817.4471 1285.0065,-814.081 1289,-813.853 1289,-813.853 1289,-813.853 1285.0065,-814.081 1288.7948,-810.2589 1281.013,-814.3091 1281.013,-814.3091"/>
<ellipse fill="none" stroke="#000000" cx="1277.8182" cy="-814.4915" rx="3.2" ry="3.2"/>
</g>
<!-- R_PSS_RQMNT_TYPE_MAIN_CATEGORY&#45;&gt;R_STANDARD_REFERENCE_LIST -->
<g id="edge41" class="edge">
<title>R_PSS_RQMNT_TYPE_MAIN_CATEGORY:w&#45;&gt;R_STANDARD_REFERENCE_LIST:e</title>
<path fill="none" stroke="#000000" d="M458.0148,-721.0981C377.0982,-723.8175 338.7614,-747.3007 269,-696.853 234.0364,-671.5691 271.1478,-608.853 228,-608.853"/>
<polygon fill="#000000" stroke="#000000" points="464.5011,-720.9884 472.5609,-724.4525 468.5006,-720.9207 472.5,-720.853 472.5,-720.853 472.5,-720.853 468.5006,-720.9207 472.4391,-717.2535 464.5011,-720.9884 464.5011,-720.9884"/>
<ellipse fill="none" stroke="#000000" cx="461.3016" cy="-721.0426" rx="3.2" ry="3.2"/>
</g>
<!-- CONTACT -->
<g id="node7" class="node">
<title>CONTACT</title>
<g id="a_node7"><a xlink:href="../../tables/CONTACT.html" xlink:title="CONTACT" target="_top">
<polygon fill="#ffffff" stroke="transparent" points="1072,-264.353 1072,-325.353 1198,-325.353 1198,-264.353 1072,-264.353"/>
<polygon fill="#f5f5f5" stroke="transparent" points="1072,-301.853 1072,-324.853 1198,-324.853 1198,-301.853 1072,-301.853"/>
<polygon fill="none" stroke="#000000" points="1072,-301.853 1072,-324.853 1198,-324.853 1198,-301.853 1072,-301.853"/>
<text text-anchor="start" x="1077" y="-310.953" font-family="Helvetica,sans-Serif" font-weight="bold" font-size="11.00" fill="#000000">CONTACT</text>
<text text-anchor="start" x="1163.0437" y="-309.953" font-family="Helvetica,sans-Serif" font-size="11.00" fill="#000000">[table]</text>
<polygon fill="none" stroke="#000000" points="1072,-282.853 1072,-301.853 1198,-301.853 1198,-282.853 1072,-282.853"/>
<text text-anchor="start" x="1075" y="-288.953" font-family="Helvetica,sans-Serif" font-size="11.00" fill="#000000">...</text>
<polygon fill="#ffffff" stroke="transparent" points="1072,-263.853 1072,-282.853 1099,-282.853 1099,-263.853 1072,-263.853"/>
<polygon fill="none" stroke="#000000" points="1072,-263.853 1072,-282.853 1099,-282.853 1099,-263.853 1072,-263.853"/>
<text text-anchor="start" x="1074.6452" y="-269.953" font-family="Helvetica,sans-Serif" font-size="11.00" fill="#000000">&lt; 24</text>
<polygon fill="#ffffff" stroke="transparent" points="1099,-263.853 1099,-282.853 1171,-282.853 1171,-263.853 1099,-263.853"/>
<polygon fill="none" stroke="#000000" points="1099,-263.853 1099,-282.853 1171,-282.853 1171,-263.853 1099,-263.853"/>
<text text-anchor="start" x="1101.9896" y="-269.953" font-family="Helvetica,sans-Serif" font-size="11.00" fill="#000000">165,869 rows</text>
<polygon fill="#ffffff" stroke="transparent" points="1171,-263.853 1171,-282.853 1198,-282.853 1198,-263.853 1171,-263.853"/>
<polygon fill="none" stroke="#000000" points="1171,-263.853 1171,-282.853 1198,-282.853 1198,-263.853 1171,-263.853"/>
<text text-anchor="start" x="1173.6452" y="-269.953" font-family="Helvetica,sans-Serif" font-size="11.00" fill="#000000">13 &gt;</text>
</a>
</g>
</g>
<!-- CONTACT&#45;&gt;OFFENDER -->
<g id="edge7" class="edge">
<title>CONTACT:w&#45;&gt;OFFENDER:e</title>
<path fill="none" stroke="#000000" d="M1057.5033,-291.6668C928.5108,-288.2944 896.5883,-240.0817 761,-225.853 690.9403,-218.5009 496.3957,-178.7668 444,-225.853 380.3337,-283.0676 488.5974,-608.853 403,-608.853"/>
<polygon fill="#000000" stroke="#000000" points="1064.0007,-291.7502 1071.9537,-295.4527 1068.0003,-291.8016 1072,-291.853 1072,-291.853 1072,-291.853 1068.0003,-291.8016 1072.0463,-288.2533 1064.0007,-291.7502 1064.0007,-291.7502"/>
<ellipse fill="none" stroke="#000000" cx="1060.8009" cy="-291.7091" rx="3.2" ry="3.2"/>
</g>
<!-- CONTACT&#45;&gt;PSS_RQMNT -->
<g id="edge8" class="edge">
<title>CONTACT:w&#45;&gt;PSS_RQMNT:e</title>
<path fill="none" stroke="#000000" d="M1058.5274,-297.6126C1020.3555,-335.2717 1051.3149,-544.853 998,-544.853"/>
<polygon fill="#000000" stroke="#000000" points="1064.644,-294.9978 1073.4151,-295.1632 1068.322,-293.4254 1072,-291.853 1072,-291.853 1072,-291.853 1068.322,-293.4254 1070.5849,-288.5428 1064.644,-294.9978 1064.644,-294.9978"/>
<ellipse fill="none" stroke="#000000" cx="1061.7016" cy="-296.2557" rx="3.2" ry="3.2"/>
</g>
<!-- CUSTODY&#45;&gt;R_STANDARD_REFERENCE_LIST -->
<g id="edge9" class="edge">
<title>CUSTODY:w&#45;&gt;R_STANDARD_REFERENCE_LIST:e</title>
<path fill="none" stroke="#000000" d="M537.9664,-639.2974C421.7052,-646.457 375.3694,-736.9267 269,-676.853 238.2713,-659.4985 263.2907,-608.853 228,-608.853"/>
<polygon fill="#000000" stroke="#000000" points="544.5037,-639.0976 552.6101,-642.4513 548.5019,-638.9753 552.5,-638.853 552.5,-638.853 552.5,-638.853 548.5019,-638.9753 552.3899,-635.2547 544.5037,-639.0976 544.5037,-639.0976"/>
<ellipse fill="none" stroke="#000000" cx="541.3052" cy="-639.1954" rx="3.2" ry="3.2"/>
</g>
<!-- CUSTODY&#45;&gt;OFFENDER -->
<g id="edge10" class="edge">
<title>CUSTODY:w&#45;&gt;OFFENDER:e</title>
<path fill="none" stroke="#000000" d="M537.9027,-638.3573C482.2918,-634.4567 465.6069,-608.853 403,-608.853"/>
<polygon fill="#000000" stroke="#000000" points="544.5046,-638.5814 552.3778,-642.4509 548.5023,-638.7172 552.5,-638.853 552.5,-638.853 552.5,-638.853 548.5023,-638.7172 552.6222,-635.2551 544.5046,-638.5814 544.5046,-638.5814"/>
<ellipse fill="none" stroke="#000000" cx="541.3065" cy="-638.4728" rx="3.2" ry="3.2"/>
</g>
<!-- PSS_RQMNT_TRANSFER&#45;&gt;R_STANDARD_REFERENCE_LIST -->
<g id="edge32" class="edge">
<title>PSS_RQMNT_TRANSFER:w&#45;&gt;R_STANDARD_REFERENCE_LIST:e</title>
<path fill="none" stroke="#000000" d="M1032.2549,-822.8702C775.7757,-823.4683 702.0886,-839.0895 444,-785.853 363.0401,-769.1532 327.4434,-781.3145 269,-722.853 230.9326,-684.7737 281.8439,-608.853 228,-608.853"/>
<polygon fill="#000000" stroke="#000000" points="1039,-822.8624 1047.0042,-826.453 1043,-822.8577 1047,-822.853 1047,-822.853 1047,-822.853 1043,-822.8577 1046.9958,-819.253 1039,-822.8624 1039,-822.8624"/>
<ellipse fill="none" stroke="#000000" cx="1035.8" cy="-822.8662" rx="3.2" ry="3.2"/>
</g>
<!-- PSS_RQMNT_TRANSFER&#45;&gt;R_STANDARD_REFERENCE_LIST -->
<g id="edge33" class="edge">
<title>PSS_RQMNT_TRANSFER:w&#45;&gt;R_STANDARD_REFERENCE_LIST:e</title>
<path fill="none" stroke="#000000" d="M1032.6318,-821.8551C775.7359,-804.3411 702.15,-816.9917 444,-762.853 363.0957,-745.8859 327.7795,-757.9766 269,-699.853 231.9007,-663.1677 280.1744,-589.853 228,-608.853"/>
<polygon fill="#000000" stroke="#000000" points="1039.0192,-822.2986 1046.7505,-826.4443 1043.0096,-822.5758 1047,-822.853 1047,-822.853 1047,-822.853 1043.0096,-822.5758 1047.2495,-819.2616 1039.0192,-822.2986 1039.0192,-822.2986"/>
<ellipse fill="none" stroke="#000000" cx="1035.8269" cy="-822.0769" rx="3.2" ry="3.2"/>
</g>
<!-- PSS_RQMNT_TRANSFER&#45;&gt;R_STANDARD_REFERENCE_LIST -->
<g id="edge36" class="edge">
<title>PSS_RQMNT_TRANSFER:w&#45;&gt;R_STANDARD_REFERENCE_LIST:e</title>
<path fill="none" stroke="#000000" d="M1032.2487,-822.5392C775.6627,-817.3537 702.0216,-829.9648 444,-775.853 363.0957,-758.8859 327.7795,-770.9766 269,-712.853 231.9007,-676.1677 280.1744,-602.853 228,-608.853"/>
<polygon fill="#000000" stroke="#000000" points="1039.0018,-822.6828 1046.9234,-826.4522 1043.0009,-822.7679 1047,-822.853 1047,-822.853 1047,-822.853 1043.0009,-822.7679 1047.0766,-819.2538 1039.0018,-822.6828 1039.0018,-822.6828"/>
<ellipse fill="none" stroke="#000000" cx="1035.8025" cy="-822.6148" rx="3.2" ry="3.2"/>
</g>
<!-- PSS_RQMNT_TRANSFER&#45;&gt;R_STANDARD_REFERENCE_LIST -->
<g id="edge37" class="edge">
<title>PSS_RQMNT_TRANSFER:w&#45;&gt;R_STANDARD_REFERENCE_LIST:e</title>
<path fill="none" stroke="#000000" d="M1032.2487,-823.2495C775.6627,-830.3537 702.0216,-842.9648 444,-788.853 363.0957,-771.8859 327.7795,-783.9766 269,-725.853 231.9007,-689.1677 280.1744,-615.853 228,-608.853"/>
<polygon fill="#000000" stroke="#000000" points="1039.0029,-823.068 1047.0968,-826.4517 1043.0014,-822.9605 1047,-822.853 1047,-822.853 1047,-822.853 1043.0014,-822.9605 1046.9032,-819.2543 1039.0029,-823.068 1039.0029,-823.068"/>
<ellipse fill="none" stroke="#000000" cx="1035.804" cy="-823.154" rx="3.2" ry="3.2"/>
</g>
<!-- PSS_RQMNT_TRANSFER&#45;&gt;R_STANDARD_REFERENCE_LIST -->
<g id="edge38" class="edge">
<title>PSS_RQMNT_TRANSFER:w&#45;&gt;R_STANDARD_REFERENCE_LIST:e</title>
<path fill="none" stroke="#000000" d="M1032.6318,-823.9309C775.7359,-843.3411 702.15,-855.9917 444,-801.853 363.0957,-784.8859 327.7795,-796.9766 269,-738.853 231.9007,-702.1677 280.1744,-628.853 228,-608.853"/>
<polygon fill="#000000" stroke="#000000" points="1039.0224,-823.4515 1047.2693,-826.4429 1043.0112,-823.1523 1047,-822.853 1047,-822.853 1047,-822.853 1043.0112,-823.1523 1046.7307,-819.2631 1039.0224,-823.4515 1039.0224,-823.4515"/>
<ellipse fill="none" stroke="#000000" cx="1035.8314" cy="-823.6909" rx="3.2" ry="3.2"/>
</g>
<!-- PSS_RQMNT_TRANSFER&#45;&gt;OFFENDER -->
<g id="edge34" class="edge">
<title>PSS_RQMNT_TRANSFER:w&#45;&gt;OFFENDER:e</title>
<path fill="none" stroke="#000000" d="M1033.1185,-818.8133C1024.2861,-812.5654 1020.8923,-800.7671 1006,-795.853 946.6105,-776.2557 492.4536,-804.3931 444,-764.853 388.4584,-719.5287 474.6879,-608.853 403,-608.853"/>
<polygon fill="#000000" stroke="#000000" points="1039.3187,-820.6176 1045.9941,-826.3096 1043.1593,-821.7353 1047,-822.853 1047,-822.853 1047,-822.853 1043.1593,-821.7353 1048.0059,-819.3964 1039.3187,-820.6176 1039.3187,-820.6176"/>
<ellipse fill="none" stroke="#000000" cx="1036.2461" cy="-819.7234" rx="3.2" ry="3.2"/>
</g>
<!-- PSS_RQMNT_TRANSFER&#45;&gt;PSS_RQMNT -->
<g id="edge35" class="edge">
<title>PSS_RQMNT_TRANSFER:w&#45;&gt;PSS_RQMNT:e</title>
<path fill="none" stroke="#000000" d="M1033.7346,-817.0466C996.3836,-777.1248 1055.3392,-544.853 998,-544.853"/>
<polygon fill="#000000" stroke="#000000" points="1039.6713,-819.6451 1045.5565,-826.1509 1043.3357,-821.2491 1047,-822.853 1047,-822.853 1047,-822.853 1043.3357,-821.2491 1048.4435,-819.5551 1039.6713,-819.6451 1039.6713,-819.6451"/>
<ellipse fill="none" stroke="#000000" cx="1036.7398" cy="-818.362" rx="3.2" ry="3.2"/>
</g>
<!-- R_PSS_RQMNT_TYPE -->
<g id="node11" class="node">
<title>R_PSS_RQMNT_TYPE</title>
<g id="a_node11"><a xlink:href="../../tables/R_PSS_RQMNT_TYPE.html" xlink:title="R_PSS_RQMNT_TYPE" target="_top">
<polygon fill="#ffffff" stroke="transparent" points="802,-600.353 802,-727.353 998,-727.353 998,-600.353 802,-600.353"/>
<polygon fill="#f5f5f5" stroke="transparent" points="802,-703.853 802,-726.853 998,-726.853 998,-703.853 802,-703.853"/>
<polygon fill="none" stroke="#000000" points="802,-703.853 802,-726.853 998,-726.853 998,-703.853 802,-703.853"/>
<text text-anchor="start" x="807" y="-712.953" font-family="Helvetica,sans-Serif" font-weight="bold" font-size="11.00" fill="#000000">R_PSS_RQMNT_TYPE</text>
<text text-anchor="start" x="963.0437" y="-711.953" font-family="Helvetica,sans-Serif" font-size="11.00" fill="#000000">[table]</text>
<polygon fill="none" stroke="#000000" points="802,-681.853 802,-703.853 998,-703.853 998,-681.853 802,-681.853"/>
<image xlink:href="../../images/primaryKeys.png" width="11px" height="12px" preserveAspectRatio="xMinYMin meet" x="807" y="-698.853"/>
<text text-anchor="start" x="822" y="-688.953" font-family="Helvetica,sans-Serif" font-size="11.00" fill="#000000">PSS_RQMNT_TYPE_ID</text>
<polygon fill="none" stroke="#000000" points="802,-659.853 802,-681.853 998,-681.853 998,-659.853 802,-659.853"/>
<image xlink:href="../../images/primaryKeys.png" width="11px" height="12px" preserveAspectRatio="xMinYMin meet" x="807" y="-676.853"/>
<text text-anchor="start" x="818.8813" y="-666.953" font-family="Helvetica,sans-Serif" font-size="11.00" fill="#000000">PSS_RQMNT_TYPE_SUB_CAT_ID</text>
<polygon fill="none" stroke="#000000" points="802,-637.853 802,-659.853 998,-659.853 998,-637.853 802,-637.853"/>
<image xlink:href="../../images/primaryKeys.png" width="11px" height="12px" preserveAspectRatio="xMinYMin meet" x="807" y="-654.853"/>
<text text-anchor="start" x="816.4398" y="-644.953" font-family="Helvetica,sans-Serif" font-size="11.00" fill="#000000">PSS_RQMNT_TYPE_MAIN_CAT_ID</text>
<polygon fill="none" stroke="#000000" points="802,-618.853 802,-637.853 998,-637.853 998,-618.853 802,-618.853"/>
<text text-anchor="start" x="805" y="-624.953" font-family="Helvetica,sans-Serif" font-size="11.00" fill="#000000">...</text>
<polygon fill="#ffffff" stroke="transparent" points="802,-599.853 802,-618.853 885,-618.853 885,-599.853 802,-599.853"/>
<polygon fill="none" stroke="#000000" points="802,-599.853 802,-618.853 885,-618.853 885,-599.853 802,-599.853"/>
<text text-anchor="start" x="805" y="-605.953" font-family="Helvetica,sans-Serif" font-size="11.00" fill="#000000">&lt; 2</text>
<polygon fill="#ffffff" stroke="transparent" points="885,-599.853 885,-618.853 954,-618.853 954,-599.853 885,-599.853"/>
<polygon fill="none" stroke="#000000" points="885,-599.853 885,-618.853 954,-618.853 954,-599.853 885,-599.853"/>
<text text-anchor="start" x="918.6105" y="-605.953" font-family="Helvetica,sans-Serif" font-size="11.00" fill="#000000">7 rows</text>
<polygon fill="#ffffff" stroke="transparent" points="954,-599.853 954,-618.853 998,-618.853 998,-599.853 954,-599.853"/>
<polygon fill="none" stroke="#000000" points="954,-599.853 954,-618.853 998,-618.853 998,-599.853 954,-599.853"/>
<text text-anchor="start" x="988.8862" y="-605.953" font-family="Helvetica,sans-Serif" font-size="11.00" fill="#000000"> &#160;</text>
</a>
</g>
</g>
<!-- R_PSS_RQMNT_TYPE&#45;&gt;R_PSS_RQMNT_TYPE_MAIN_CATEGORY -->
<g id="edge39" class="edge">
<title>R_PSS_RQMNT_TYPE:w&#45;&gt;R_PSS_RQMNT_TYPE_MAIN_CATEGORY:e</title>
<path fill="none" stroke="#000000" d="M787.8357,-652.1338C761.8821,-666.2191 771.975,-720.853 733.5,-720.853"/>
<polygon fill="#000000" stroke="#000000" points="794.2063,-650.6582 802.8124,-652.3601 798.1032,-649.7556 802,-648.853 802,-648.853 802,-648.853 798.1032,-649.7556 801.1876,-645.3458 794.2063,-650.6582 794.2063,-650.6582"/>
<ellipse fill="none" stroke="#000000" cx="791.0889" cy="-651.3803" rx="3.2" ry="3.2"/>
</g>
<!-- R_PSS_RQMNT_TYPE&#45;&gt;R_PSS_RQMNT_TYPE_SUB_CATEGORY -->
<g id="edge40" class="edge">
<title>R_PSS_RQMNT_TYPE:w&#45;&gt;R_PSS_RQMNT_TYPE_SUB_CATEGORY:e</title>
<path fill="none" stroke="#000000" d="M787.7844,-667.2231C757.2761,-647.4748 802.1636,-553.853 751.5,-553.853"/>
<polygon fill="#000000" stroke="#000000" points="794.2487,-668.8737 801.1093,-674.3411 798.1244,-669.8634 802,-670.853 802,-670.853 802,-670.853 798.1244,-669.8634 802.8907,-667.3649 794.2487,-668.8737 794.2487,-668.8737"/>
<ellipse fill="none" stroke="#000000" cx="791.1482" cy="-668.082" rx="3.2" ry="3.2"/>
</g>
<!-- REJECTED_TRANSFER_DIARY -->
<g id="node12" class="node">
<title>REJECTED_TRANSFER_DIARY</title>
<g id="a_node12"><a xlink:href="../../tables/REJECTED_TRANSFER_DIARY.html" xlink:title="REJECTED_TRANSFER_DIARY" target="_top">
<polygon fill="#ffffff" stroke="transparent" points="1272,-332.353 1272,-393.353 1478,-393.353 1478,-332.353 1272,-332.353"/>
<polygon fill="#f5f5f5" stroke="transparent" points="1272,-369.853 1272,-392.853 1478,-392.853 1478,-369.853 1272,-369.853"/>
<polygon fill="none" stroke="#000000" points="1272,-369.853 1272,-392.853 1478,-392.853 1478,-369.853 1272,-369.853"/>
<text text-anchor="start" x="1276.9196" y="-378.953" font-family="Helvetica,sans-Serif" font-weight="bold" font-size="11.00" fill="#000000">REJECTED_TRANSFER_DIARY</text>
<text text-anchor="start" x="1443.5219" y="-377.953" font-family="Helvetica,sans-Serif" font-size="11.00" fill="#000000">[table]</text>
<polygon fill="none" stroke="#000000" points="1272,-350.853 1272,-369.853 1478,-369.853 1478,-350.853 1272,-350.853"/>
<text text-anchor="start" x="1275" y="-356.953" font-family="Helvetica,sans-Serif" font-size="11.00" fill="#000000">...</text>
<polygon fill="#ffffff" stroke="transparent" points="1272,-331.853 1272,-350.853 1360,-350.853 1360,-331.853 1272,-331.853"/>
<polygon fill="none" stroke="#000000" points="1272,-331.853 1272,-350.853 1360,-350.853 1360,-331.853 1272,-331.853"/>
<text text-anchor="start" x="1275" y="-337.953" font-family="Helvetica,sans-Serif" font-size="11.00" fill="#000000">&lt; 24</text>
<polygon fill="#ffffff" stroke="transparent" points="1360,-331.853 1360,-350.853 1435,-350.853 1435,-331.853 1360,-331.853"/>
<polygon fill="none" stroke="#000000" points="1360,-331.853 1360,-350.853 1435,-350.853 1435,-331.853 1360,-331.853"/>
<text text-anchor="start" x="1393.4956" y="-337.953" font-family="Helvetica,sans-Serif" font-size="11.00" fill="#000000">26 rows</text>
<polygon fill="#ffffff" stroke="transparent" points="1435,-331.853 1435,-350.853 1478,-350.853 1478,-331.853 1435,-331.853"/>
<polygon fill="none" stroke="#000000" points="1435,-331.853 1435,-350.853 1478,-350.853 1478,-331.853 1435,-331.853"/>
<text text-anchor="start" x="1468.8862" y="-337.953" font-family="Helvetica,sans-Serif" font-size="11.00" fill="#000000"> &#160;</text>
</a>
</g>
</g>
<!-- REJECTED_TRANSFER_DIARY&#45;&gt;R_STANDARD_REFERENCE_LIST -->
<g id="edge45" class="edge">
<title>REJECTED_TRANSFER_DIARY:w&#45;&gt;R_STANDARD_REFERENCE_LIST:e</title>
<path fill="none" stroke="#000000" d="M1257.7218,-357.8537C1213.3457,-342.8774 1280.651,-247.653 1231,-204.853 965.8627,23.7002 741.515,10.5898 444,-173.853 398.1347,-202.2869 281.964,-608.853 228,-608.853"/>
<polygon fill="#000000" stroke="#000000" points="1264.0773,-358.7436 1271.5008,-363.4182 1268.0386,-359.2983 1272,-359.853 1272,-359.853 1272,-359.853 1268.0386,-359.2983 1272.4992,-356.2878 1264.0773,-358.7436 1264.0773,-358.7436"/>
<ellipse fill="none" stroke="#000000" cx="1260.9082" cy="-358.2998" rx="3.2" ry="3.2"/>
</g>
<!-- REJECTED_TRANSFER_DIARY&#45;&gt;OFFENDER -->
<g id="edge42" class="edge">
<title>REJECTED_TRANSFER_DIARY:w&#45;&gt;OFFENDER:e</title>
<path fill="none" stroke="#000000" d="M1257.709,-356.7647C1232.1421,-342.3327 1266.0565,-281.093 1231,-253.853 1161.7942,-200.0779 508.997,-142.0602 444,-200.853 376.4216,-261.9808 494.1233,-608.853 403,-608.853"/>
<polygon fill="#000000" stroke="#000000" points="1264.1805,-358.1632 1271.2396,-363.3718 1268.0902,-359.0081 1272,-359.853 1272,-359.853 1272,-359.853 1268.0902,-359.0081 1272.7604,-356.3342 1264.1805,-358.1632 1264.1805,-358.1632"/>
<ellipse fill="none" stroke="#000000" cx="1261.0527" cy="-357.4872" rx="3.2" ry="3.2"/>
</g>
<!-- REJECTED_TRANSFER_DIARY&#45;&gt;PSS_RQMNT -->
<g id="edge43" class="edge">
<title>REJECTED_TRANSFER_DIARY:w&#45;&gt;PSS_RQMNT:e</title>
<path fill="none" stroke="#000000" d="M1257.5046,-360.4866C1126.2272,-372.2834 1139.9142,-544.853 998,-544.853"/>
<polygon fill="#000000" stroke="#000000" points="1264.0076,-360.2024 1272.1572,-363.4496 1268.0038,-360.0277 1272,-359.853 1272,-359.853 1272,-359.853 1268.0038,-360.0277 1271.8428,-356.2564 1264.0076,-360.2024 1264.0076,-360.2024"/>
<ellipse fill="none" stroke="#000000" cx="1260.8107" cy="-360.3422" rx="3.2" ry="3.2"/>
</g>
<!-- REJECTED_TRANSFER_DIARY&#45;&gt;PSS_RQMNT_TRANSFER -->
<g id="edge44" class="edge">
<title>REJECTED_TRANSFER_DIARY:w&#45;&gt;PSS_RQMNT_TRANSFER:e</title>
<path fill="none" stroke="#000000" d="M1257.7358,-363.5799C1184.466,-407.3975 1321.0074,-822.853 1223,-822.853"/>
<polygon fill="#000000" stroke="#000000" points="1264.2598,-361.8754 1272.9101,-363.3361 1268.1299,-360.8642 1272,-359.853 1272,-359.853 1272,-359.853 1268.1299,-360.8642 1271.0899,-356.3699 1264.2598,-361.8754 1264.2598,-361.8754"/>
<ellipse fill="none" stroke="#000000" cx="1261.1638" cy="-362.6843" rx="3.2" ry="3.2"/>
</g>
</g>
</svg>
