<?xml version="1.0" encoding="UTF-8" standalone="no"?>
<!DOCTYPE svg PUBLIC "-//W3C//DTD SVG 1.1//EN"
 "http://www.w3.org/Graphics/SVG/1.1/DTD/svg11.dtd">
<!-- Generated by graphviz version 2.40.1 (20161225.0304)
 -->
<!-- Title: oneDegreeRelationshipsDiagram Pages: 1 -->
<svg width="554pt" height="271pt"
 viewBox="0.00 0.00 554.00 270.70" xmlns="http://www.w3.org/2000/svg" xmlns:xlink="http://www.w3.org/1999/xlink">
<g id="graph0" class="graph" transform="scale(1 1) rotate(0) translate(4 266.7)">
<title>oneDegreeRelationshipsDiagram</title>
<polygon fill="#ffffff" stroke="transparent" points="-4,4 -4,-266.7 550,-266.7 550,4 -4,4"/>
<text text-anchor="middle" x="72.4936" y="-7.3" font-family="Helvetica,sans-Serif" font-size="11.00" fill="#000000">Generated by SchemaSpy</text>
<!-- R_STANDARD_REFERENCE_LIST -->
<g id="node1" class="node">
<title>R_STANDARD_REFERENCE_LIST</title>
<g id="a_node1"><a xlink:href="../../tables/R_STANDARD_REFERENCE_LIST.html" xlink:title="R_STANDARD_REFERENCE_LIST" target="_top">
<polygon fill="#ffffff" stroke="transparent" points="318,-109.7 318,-258.7 538,-258.7 538,-109.7 318,-109.7"/>
<polygon fill="#f5f5f5" stroke="transparent" points="318,-235.2 318,-258.2 538,-258.2 538,-235.2 318,-235.2"/>
<polygon fill="none" stroke="#000000" points="318,-235.2 318,-258.2 538,-258.2 538,-235.2 318,-235.2"/>
<text text-anchor="start" x="322.5843" y="-244.3" font-family="Helvetica,sans-Serif" font-weight="bold" font-size="11.00" fill="#000000">R_STANDARD_REFERENCE_LIST</text>
<text text-anchor="start" x="503.5219" y="-243.3" font-family="Helvetica,sans-Serif" font-size="11.00" fill="#000000">[table]</text>
<polygon fill="none" stroke="#000000" points="318,-213.2 318,-235.2 538,-235.2 538,-213.2 318,-213.2"/>
<image xlink:href="../../images/primaryKeys.png" width="11px" height="12px" preserveAspectRatio="xMinYMin meet" x="323" y="-230.2"/>
<text text-anchor="start" x="345.5558" y="-220.3" font-family="Helvetica,sans-Serif" font-size="11.00" fill="#000000">STANDARD_REFERENCE_LIST_ID</text>
<polygon fill="none" stroke="#000000" points="318,-191.2 318,-213.2 538,-213.2 538,-191.2 318,-191.2"/>
<image xlink:href="../../images/primaryKeys.png" width="11px" height="12px" preserveAspectRatio="xMinYMin meet" x="323" y="-208.2"/>
<text text-anchor="start" x="352" y="-198.3" font-family="Helvetica,sans-Serif" font-size="11.00" fill="#000000">CODE_VALUE</text>
<polygon fill="none" stroke="#000000" points="318,-169.2 318,-191.2 538,-191.2 538,-169.2 318,-169.2"/>
<image xlink:href="../../images/primaryKeys.png" width="11px" height="12px" preserveAspectRatio="xMinYMin meet" x="323" y="-186.2"/>
<text text-anchor="start" x="349.8337" y="-176.3" font-family="Helvetica,sans-Serif" font-size="11.00" fill="#000000">REFERENCE_DATA_MASTER_ID</text>
<polygon fill="none" stroke="#000000" points="318,-147.2 318,-169.2 538,-169.2 538,-147.2 318,-147.2"/>
<image xlink:href="../../images/primaryKeys.png" width="11px" height="12px" preserveAspectRatio="xMinYMin meet" x="323" y="-164.2"/>
<text text-anchor="start" x="352" y="-154.3" font-family="Helvetica,sans-Serif" font-size="11.00" fill="#000000">TRAINING_SESSION_ID</text>
<polygon fill="none" stroke="#000000" points="318,-128.2 318,-147.2 538,-147.2 538,-128.2 318,-128.2"/>
<text text-anchor="start" x="321" y="-134.3" font-family="Helvetica,sans-Serif" font-size="11.00" fill="#000000">...</text>
<polygon fill="#ffffff" stroke="transparent" points="318,-109.2 318,-128.2 389,-128.2 389,-109.2 318,-109.2"/>
<polygon fill="none" stroke="#000000" points="318,-109.2 318,-128.2 389,-128.2 389,-109.2 318,-109.2"/>
<text text-anchor="start" x="321" y="-115.3" font-family="Helvetica,sans-Serif" font-size="11.00" fill="#000000">&lt; 1</text>
<polygon fill="#ffffff" stroke="transparent" points="389,-109.2 389,-128.2 479,-128.2 479,-109.2 389,-109.2"/>
<polygon fill="none" stroke="#000000" points="389,-109.2 389,-128.2 479,-128.2 479,-109.2 389,-109.2"/>
<text text-anchor="start" x="416.094" y="-115.3" font-family="Helvetica,sans-Serif" font-size="11.00" fill="#000000">15,391 rows</text>
<polygon fill="#ffffff" stroke="transparent" points="479,-109.2 479,-128.2 538,-128.2 538,-109.2 479,-109.2"/>
<polygon fill="none" stroke="#000000" points="479,-109.2 479,-128.2 538,-128.2 538,-109.2 479,-109.2"/>
<text text-anchor="start" x="507.1755" y="-115.3" font-family="Helvetica,sans-Serif" font-size="11.00" fill="#000000">296 &gt;</text>
</a>
</g>
</g>
<!-- R_REFERENCE_DATA_MASTER -->
<g id="node2" class="node">
<title>R_REFERENCE_DATA_MASTER</title>
<g id="a_node2"><a xlink:href="../../tables/R_REFERENCE_DATA_MASTER.html" xlink:title="R_REFERENCE_DATA_MASTER" target="_top">
<polygon fill="#ffffff" stroke="transparent" points="8,-38.2 8,-216.2 269,-216.2 269,-38.2 8,-38.2"/>
<polygon fill="#f5f5f5" stroke="transparent" points="10.5,-191.2 10.5,-214.2 267.5,-214.2 267.5,-191.2 10.5,-191.2"/>
<polygon fill="none" stroke="#000000" points="10.5,-191.2 10.5,-214.2 267.5,-214.2 267.5,-191.2 10.5,-191.2"/>
<text text-anchor="start" x="15.5" y="-200.3" font-family="Helvetica,sans-Serif" font-weight="bold" font-size="11.00" fill="#000000">R_REFERENCE_DATA_MASTER</text>
<text text-anchor="start" x="232.5437" y="-199.3" font-family="Helvetica,sans-Serif" font-size="11.00" fill="#000000">[table]</text>
<polygon fill="none" stroke="#000000" points="10.5,-169.2 10.5,-191.2 194.5,-191.2 194.5,-169.2 10.5,-169.2"/>
<image xlink:href="../../images/primaryKeys.png" width="11px" height="12px" preserveAspectRatio="xMinYMin meet" x="15.5" y="-186.2"/>
<text text-anchor="start" x="23.8337" y="-176.3" font-family="Helvetica,sans-Serif" font-size="11.00" fill="#000000">REFERENCE_DATA_MASTER_ID</text>
<polygon fill="none" stroke="#000000" points="194.5,-169.2 194.5,-191.2 267.5,-191.2 267.5,-169.2 194.5,-169.2"/>
<text text-anchor="start" x="197.5" y="-176.9" font-family="Helvetica,sans-Serif" font-size="11.00" fill="#000000">number[38]</text>
<polygon fill="none" stroke="#000000" points="10.5,-147.2 10.5,-169.2 194.5,-169.2 194.5,-147.2 10.5,-147.2"/>
<image xlink:href="../../images/primaryKeys.png" width="11px" height="12px" preserveAspectRatio="xMinYMin meet" x="15.5" y="-164.2"/>
<text text-anchor="start" x="30.5" y="-154.3" font-family="Helvetica,sans-Serif" font-size="11.00" fill="#000000">CODE_SET_NAME</text>
<polygon fill="none" stroke="#000000" points="194.5,-147.2 194.5,-169.2 267.5,-169.2 267.5,-147.2 194.5,-147.2"/>
<text text-anchor="start" x="197.3791" y="-154.9" font-family="Helvetica,sans-Serif" font-size="11.00" fill="#000000">varchar2[100]</text>
<polygon fill="none" stroke="#000000" points="10.5,-125.2 10.5,-147.2 194.5,-147.2 194.5,-125.2 10.5,-125.2"/>
<text text-anchor="start" x="30.5" y="-132.3" font-family="Helvetica,sans-Serif" font-size="11.00" fill="#000000">DESCRIPTION</text>
<polygon fill="none" stroke="#000000" points="194.5,-125.2 194.5,-147.2 267.5,-147.2 267.5,-125.2 194.5,-125.2"/>
<text text-anchor="start" x="197.3791" y="-132.9" font-family="Helvetica,sans-Serif" font-size="11.00" fill="#000000">varchar2[500]</text>
<polygon fill="none" stroke="#000000" points="10.5,-103.2 10.5,-125.2 194.5,-125.2 194.5,-103.2 10.5,-103.2"/>
<text text-anchor="start" x="30.5" y="-110.3" font-family="Helvetica,sans-Serif" font-size="11.00" fill="#000000">LIST_SEQUENCE</text>
<polygon fill="none" stroke="#000000" points="194.5,-103.2 194.5,-125.2 267.5,-125.2 267.5,-103.2 194.5,-103.2"/>
<text text-anchor="start" x="197.5" y="-110.9" font-family="Helvetica,sans-Serif" font-size="11.00" fill="#000000">char[1]</text>
<polygon fill="none" stroke="#000000" points="10.5,-81.2 10.5,-103.2 194.5,-103.2 194.5,-81.2 10.5,-81.2"/>
<text text-anchor="start" x="30.5" y="-88.3" font-family="Helvetica,sans-Serif" font-size="11.00" fill="#000000">ROW_VERSION</text>
<polygon fill="none" stroke="#000000" points="194.5,-81.2 194.5,-103.2 267.5,-103.2 267.5,-81.2 194.5,-81.2"/>
<text text-anchor="start" x="197.5" y="-88.9" font-family="Helvetica,sans-Serif" font-size="11.00" fill="#000000">number[38]</text>
<polygon fill="none" stroke="#000000" points="10.5,-59.2 10.5,-81.2 194.5,-81.2 194.5,-59.2 10.5,-59.2"/>
<image xlink:href="../../images/primaryKeys.png" width="11px" height="12px" preserveAspectRatio="xMinYMin meet" x="15.5" y="-76.2"/>
<text text-anchor="start" x="30.5" y="-66.3" font-family="Helvetica,sans-Serif" font-size="11.00" fill="#000000">TRAINING_SESSION_ID</text>
<polygon fill="none" stroke="#000000" points="194.5,-59.2 194.5,-81.2 267.5,-81.2 267.5,-59.2 194.5,-59.2"/>
<text text-anchor="start" x="197.5" y="-66.9" font-family="Helvetica,sans-Serif" font-size="11.00" fill="#000000">number[38]</text>
<polygon fill="#ffffff" stroke="transparent" points="10.5,-40.2 10.5,-59.2 87.5,-59.2 87.5,-40.2 10.5,-40.2"/>
<polygon fill="none" stroke="#000000" points="10.5,-40.2 10.5,-59.2 87.5,-59.2 87.5,-40.2 10.5,-40.2"/>
<text text-anchor="start" x="13.5" y="-46.3" font-family="Helvetica,sans-Serif" font-size="11.00" fill="#000000">&lt; 0</text>
<polygon fill="#ffffff" stroke="transparent" points="87.5,-40.2 87.5,-59.2 194.5,-59.2 194.5,-40.2 87.5,-40.2"/>
<polygon fill="none" stroke="#000000" points="87.5,-40.2 87.5,-59.2 194.5,-59.2 194.5,-40.2 87.5,-40.2"/>
<text text-anchor="start" x="146.8807" y="-46.3" font-family="Helvetica,sans-Serif" font-size="11.00" fill="#000000">181 rows</text>
<polygon fill="#ffffff" stroke="transparent" points="194.5,-40.2 194.5,-59.2 267.5,-59.2 267.5,-40.2 194.5,-40.2"/>
<polygon fill="none" stroke="#000000" points="194.5,-40.2 194.5,-59.2 267.5,-59.2 267.5,-40.2 194.5,-40.2"/>
<text text-anchor="start" x="248.9053" y="-46.3" font-family="Helvetica,sans-Serif" font-size="11.00" fill="#000000">1 &gt;</text>
<polygon fill="none" stroke="#000000" stroke-width="2" points="9,-39.2 9,-215.2 268,-215.2 268,-39.2 9,-39.2"/>
</a>
</g>
</g>
<!-- R_STANDARD_REFERENCE_LIST&#45;&gt;R_REFERENCE_DATA_MASTER -->
<g id="edge1" class="edge">
<title>R_STANDARD_REFERENCE_LIST:w&#45;&gt;R_REFERENCE_DATA_MASTER:e</title>
<path fill="none" stroke="#000000" d="M303.4203,-180.2C291.5435,-180.2 284.158,-180.2 267.5,-180.2"/>
<polygon fill="#000000" stroke="#000000" points="310,-180.2001 318,-183.8 314,-180.2 318,-180.2 318,-180.2 318,-180.2 314,-180.2 318,-176.6 310,-180.2001 310,-180.2001"/>
<ellipse fill="none" stroke="#000000" cx="306.8" cy="-180.2001" rx="3.2" ry="3.2"/>
</g>
</g>
</svg>
