<?xml version="1.0" encoding="UTF-8" standalone="no"?>
<!DOCTYPE svg PUBLIC "-//W3C//DTD SVG 1.1//EN"
 "http://www.w3.org/Graphics/SVG/1.1/DTD/svg11.dtd">
<!-- Generated by graphviz version 2.40.1 (20161225.0304)
 -->
<!-- Title: twoDegreesRelationshipsDiagram Pages: 1 -->
<svg width="987pt" height="598pt"
 viewBox="0.00 0.00 987.00 598.44" xmlns="http://www.w3.org/2000/svg" xmlns:xlink="http://www.w3.org/1999/xlink">
<g id="graph0" class="graph" transform="scale(1 1) rotate(0) translate(4 594.4388)">
<title>twoDegreesRelationshipsDiagram</title>
<polygon fill="#ffffff" stroke="transparent" points="-4,4 -4,-594.4388 983,-594.4388 983,4 -4,4"/>
<text text-anchor="middle" x="72.4936" y="-7.3" font-family="Helvetica,sans-Serif" font-size="11.00" fill="#000000">Generated by SchemaSpy</text>
<!-- R_REGISTER_TYPE -->
<g id="node1" class="node">
<title>R_REGISTER_TYPE</title>
<g id="a_node1"><a xlink:href="../../tables/R_REGISTER_TYPE.html" xlink:title="R_REGISTER_TYPE" target="_top">
<polygon fill="#ffffff" stroke="transparent" points="282,-174.7 282,-433.7 499,-433.7 499,-174.7 282,-174.7"/>
<polygon fill="#f5f5f5" stroke="transparent" points="282.5,-410.2 282.5,-433.2 499.5,-433.2 499.5,-410.2 282.5,-410.2"/>
<polygon fill="none" stroke="#000000" points="282.5,-410.2 282.5,-433.2 499.5,-433.2 499.5,-410.2 282.5,-410.2"/>
<text text-anchor="start" x="287.5" y="-419.3" font-family="Helvetica,sans-Serif" font-weight="bold" font-size="11.00" fill="#000000">R_REGISTER_TYPE</text>
<text text-anchor="start" x="464.5437" y="-418.3" font-family="Helvetica,sans-Serif" font-size="11.00" fill="#000000">[table]</text>
<polygon fill="none" stroke="#000000" points="282.5,-388.2 282.5,-410.2 499.5,-410.2 499.5,-388.2 282.5,-388.2"/>
<image xlink:href="../../images/primaryKeys.png" width="11px" height="12px" preserveAspectRatio="xMinYMin meet" x="287.5" y="-405.2"/>
<text text-anchor="start" x="302.5" y="-395.3" font-family="Helvetica,sans-Serif" font-size="11.00" fill="#000000">REGISTER_TYPE_ID</text>
<polygon fill="none" stroke="#000000" points="282.5,-366.2 282.5,-388.2 499.5,-388.2 499.5,-366.2 282.5,-366.2"/>
<image xlink:href="../../images/primaryKeys.png" width="11px" height="12px" preserveAspectRatio="xMinYMin meet" x="287.5" y="-383.2"/>
<text text-anchor="start" x="302.5" y="-373.3" font-family="Helvetica,sans-Serif" font-size="11.00" fill="#000000">CODE</text>
<polygon fill="none" stroke="#000000" points="282.5,-344.2 282.5,-366.2 499.5,-366.2 499.5,-344.2 282.5,-344.2"/>
<image xlink:href="../../images/primaryKeys.png" width="11px" height="12px" preserveAspectRatio="xMinYMin meet" x="287.5" y="-361.2"/>
<text text-anchor="start" x="302.5" y="-351.3" font-family="Helvetica,sans-Serif" font-size="11.00" fill="#000000">TRAINING_SESSION_ID</text>
<polygon fill="none" stroke="#000000" points="282.5,-322.2 282.5,-344.2 499.5,-344.2 499.5,-322.2 282.5,-322.2"/>
<image xlink:href="../../images/primaryKeys.png" width="11px" height="12px" preserveAspectRatio="xMinYMin meet" x="287.5" y="-339.2"/>
<text text-anchor="start" x="302.5" y="-329.3" font-family="Helvetica,sans-Serif" font-size="11.00" fill="#000000">REGISTER_TYPE_FLAG_ID</text>
<polygon fill="none" stroke="#000000" points="282.5,-300.2 282.5,-322.2 499.5,-322.2 499.5,-300.2 282.5,-300.2"/>
<image xlink:href="../../images/primaryKeys.png" width="11px" height="12px" preserveAspectRatio="xMinYMin meet" x="287.5" y="-317.2"/>
<text text-anchor="start" x="302.5" y="-307.3" font-family="Helvetica,sans-Serif" font-size="11.00" fill="#000000">REGISTER_TYPE_SECTOR_ID</text>
<polygon fill="none" stroke="#000000" points="282.5,-278.2 282.5,-300.2 499.5,-300.2 499.5,-278.2 282.5,-278.2"/>
<image xlink:href="../../images/primaryKeys.png" width="11px" height="12px" preserveAspectRatio="xMinYMin meet" x="287.5" y="-295.2"/>
<text text-anchor="start" x="301.6384" y="-285.3" font-family="Helvetica,sans-Serif" font-size="11.00" fill="#000000">REGISTRATION_CONTACT_TYPE_ID</text>
<polygon fill="none" stroke="#000000" points="282.5,-256.2 282.5,-278.2 499.5,-278.2 499.5,-256.2 282.5,-256.2"/>
<image xlink:href="../../images/primaryKeys.png" width="11px" height="12px" preserveAspectRatio="xMinYMin meet" x="287.5" y="-273.2"/>
<text text-anchor="start" x="294" y="-263.3" font-family="Helvetica,sans-Serif" font-size="11.00" fill="#000000">DEREGISTRATION_CONTACT_TYPE_ID</text>
<polygon fill="none" stroke="#000000" points="282.5,-234.2 282.5,-256.2 499.5,-256.2 499.5,-234.2 282.5,-234.2"/>
<image xlink:href="../../images/primaryKeys.png" width="11px" height="12px" preserveAspectRatio="xMinYMin meet" x="287.5" y="-251.2"/>
<text text-anchor="start" x="302.5" y="-241.3" font-family="Helvetica,sans-Serif" font-size="11.00" fill="#000000">REVIEW_CONTACT_TYPE_ID</text>
<polygon fill="none" stroke="#000000" points="282.5,-212.2 282.5,-234.2 499.5,-234.2 499.5,-212.2 282.5,-212.2"/>
<image xlink:href="../../images/primaryKeys.png" width="11px" height="12px" preserveAspectRatio="xMinYMin meet" x="287.5" y="-229.2"/>
<text text-anchor="start" x="302.5" y="-219.3" font-family="Helvetica,sans-Serif" font-size="11.00" fill="#000000">DELETED_CONTACT_TYPE_ID</text>
<polygon fill="none" stroke="#000000" points="282.5,-193.2 282.5,-212.2 499.5,-212.2 499.5,-193.2 282.5,-193.2"/>
<text text-anchor="start" x="285.5" y="-199.3" font-family="Helvetica,sans-Serif" font-size="11.00" fill="#000000">...</text>
<polygon fill="#ffffff" stroke="transparent" points="282.5,-174.2 282.5,-193.2 365.5,-193.2 365.5,-174.2 282.5,-174.2"/>
<polygon fill="none" stroke="#000000" points="282.5,-174.2 282.5,-193.2 365.5,-193.2 365.5,-174.2 282.5,-174.2"/>
<text text-anchor="start" x="285.5" y="-180.3" font-family="Helvetica,sans-Serif" font-size="11.00" fill="#000000">&lt; 6</text>
<polygon fill="#ffffff" stroke="transparent" points="365.5,-174.2 365.5,-193.2 446.5,-193.2 446.5,-174.2 365.5,-174.2"/>
<polygon fill="none" stroke="#000000" points="365.5,-174.2 365.5,-193.2 446.5,-193.2 446.5,-174.2 365.5,-174.2"/>
<text text-anchor="start" x="398.8807" y="-180.3" font-family="Helvetica,sans-Serif" font-size="11.00" fill="#000000">180 rows</text>
<polygon fill="#ffffff" stroke="transparent" points="446.5,-174.2 446.5,-193.2 499.5,-193.2 499.5,-174.2 446.5,-174.2"/>
<polygon fill="none" stroke="#000000" points="446.5,-174.2 446.5,-193.2 499.5,-193.2 499.5,-174.2 446.5,-174.2"/>
<text text-anchor="start" x="480.9053" y="-180.3" font-family="Helvetica,sans-Serif" font-size="11.00" fill="#000000">6 &gt;</text>
</a>
</g>
</g>
<!-- R_CONTACT_TYPE -->
<g id="node2" class="node">
<title>R_CONTACT_TYPE</title>
<g id="a_node2"><a xlink:href="../../tables/R_CONTACT_TYPE.html" xlink:title="R_CONTACT_TYPE" target="_top">
<polygon fill="#ffffff" stroke="transparent" points="45.5,-228.7 45.5,-289.7 190.5,-289.7 190.5,-228.7 45.5,-228.7"/>
<polygon fill="#f5f5f5" stroke="transparent" points="46,-266.2 46,-289.2 191,-289.2 191,-266.2 46,-266.2"/>
<polygon fill="none" stroke="#000000" points="46,-266.2 46,-289.2 191,-289.2 191,-266.2 46,-266.2"/>
<text text-anchor="start" x="50.9732" y="-275.3" font-family="Helvetica,sans-Serif" font-weight="bold" font-size="11.00" fill="#000000">R_CONTACT_TYPE</text>
<text text-anchor="start" x="156.5219" y="-274.3" font-family="Helvetica,sans-Serif" font-size="11.00" fill="#000000">[table]</text>
<polygon fill="none" stroke="#000000" points="46,-247.2 46,-266.2 191,-266.2 191,-247.2 46,-247.2"/>
<text text-anchor="start" x="49" y="-253.3" font-family="Helvetica,sans-Serif" font-size="11.00" fill="#000000">...</text>
<polygon fill="#ffffff" stroke="transparent" points="46,-228.2 46,-247.2 86,-247.2 86,-228.2 46,-228.2"/>
<polygon fill="none" stroke="#000000" points="46,-228.2 46,-247.2 86,-247.2 86,-228.2 46,-228.2"/>
<text text-anchor="start" x="49" y="-234.3" font-family="Helvetica,sans-Serif" font-size="11.00" fill="#000000">&lt; 1</text>
<polygon fill="#ffffff" stroke="transparent" points="86,-228.2 86,-247.2 154,-247.2 154,-228.2 86,-228.2"/>
<polygon fill="none" stroke="#000000" points="86,-228.2 86,-247.2 154,-247.2 154,-228.2 86,-228.2"/>
<text text-anchor="start" x="97.2089" y="-234.3" font-family="Helvetica,sans-Serif" font-size="11.00" fill="#000000">3,019 rows</text>
<polygon fill="#ffffff" stroke="transparent" points="154,-228.2 154,-247.2 191,-247.2 191,-228.2 154,-228.2"/>
<polygon fill="none" stroke="#000000" points="154,-228.2 154,-247.2 191,-247.2 191,-228.2 154,-228.2"/>
<text text-anchor="start" x="166.2904" y="-234.3" font-family="Helvetica,sans-Serif" font-size="11.00" fill="#000000">21 &gt;</text>
</a>
</g>
</g>
<!-- R_REGISTER_TYPE&#45;&gt;R_CONTACT_TYPE -->
<g id="edge1" class="edge">
<title>R_REGISTER_TYPE:w&#45;&gt;R_CONTACT_TYPE:e</title>
<path fill="none" stroke="#000000" d="M267.9296,-224.618C237.4129,-230.9344 228.8268,-256.2 191,-256.2"/>
<polygon fill="#000000" stroke="#000000" points="274.5376,-223.9749 282.8487,-226.7831 278.5188,-223.5875 282.5,-223.2 282.5,-223.2 282.5,-223.2 278.5188,-223.5875 282.1513,-219.6169 274.5376,-223.9749 274.5376,-223.9749"/>
<ellipse fill="none" stroke="#000000" cx="271.3527" cy="-224.2849" rx="3.2" ry="3.2"/>
</g>
<!-- R_REGISTER_TYPE&#45;&gt;R_CONTACT_TYPE -->
<g id="edge2" class="edge">
<title>R_REGISTER_TYPE:w&#45;&gt;R_CONTACT_TYPE:e</title>
<path fill="none" stroke="#000000" d="M268.09,-266.6988C238.549,-264.5468 226.6795,-256.2 191,-256.2"/>
<polygon fill="#000000" stroke="#000000" points="274.5048,-266.9218 282.3748,-270.7978 278.5024,-267.0609 282.5,-267.2 282.5,-267.2 282.5,-267.2 278.5024,-267.0609 282.6252,-263.6022 274.5048,-266.9218 274.5048,-266.9218"/>
<ellipse fill="none" stroke="#000000" cx="271.3068" cy="-266.8106" rx="3.2" ry="3.2"/>
</g>
<!-- R_REGISTER_TYPE&#45;&gt;R_CONTACT_TYPE -->
<g id="edge5" class="edge">
<title>R_REGISTER_TYPE:w&#45;&gt;R_CONTACT_TYPE:e</title>
<path fill="none" stroke="#000000" d="M267.9296,-287.782C237.4129,-281.4656 228.8268,-256.2 191,-256.2"/>
<polygon fill="#000000" stroke="#000000" points="274.5376,-288.4251 282.1513,-292.7831 278.5188,-288.8125 282.5,-289.2 282.5,-289.2 282.5,-289.2 278.5188,-288.8125 282.8487,-285.6169 274.5376,-288.4251 274.5376,-288.4251"/>
<ellipse fill="none" stroke="#000000" cx="271.3527" cy="-288.1151" rx="3.2" ry="3.2"/>
</g>
<!-- R_REGISTER_TYPE&#45;&gt;R_CONTACT_TYPE -->
<g id="edge6" class="edge">
<title>R_REGISTER_TYPE:w&#45;&gt;R_CONTACT_TYPE:e</title>
<path fill="none" stroke="#000000" d="M268.09,-245.7012C238.549,-247.8532 226.6795,-256.2 191,-256.2"/>
<polygon fill="#000000" stroke="#000000" points="274.5048,-245.4782 282.6252,-248.7978 278.5024,-245.3391 282.5,-245.2 282.5,-245.2 282.5,-245.2 278.5024,-245.3391 282.3748,-241.6022 274.5048,-245.4782 274.5048,-245.4782"/>
<ellipse fill="none" stroke="#000000" cx="271.3068" cy="-245.5894" rx="3.2" ry="3.2"/>
</g>
<!-- R_STANDARD_REFERENCE_LIST -->
<g id="node3" class="node">
<title>R_STANDARD_REFERENCE_LIST</title>
<g id="a_node3"><a xlink:href="../../tables/R_STANDARD_REFERENCE_LIST.html" xlink:title="R_STANDARD_REFERENCE_LIST" target="_top">
<polygon fill="#ffffff" stroke="transparent" points="8,-455.7 8,-516.7 228,-516.7 228,-455.7 8,-455.7"/>
<polygon fill="#f5f5f5" stroke="transparent" points="8,-493.2 8,-516.2 228,-516.2 228,-493.2 8,-493.2"/>
<polygon fill="none" stroke="#000000" points="8,-493.2 8,-516.2 228,-516.2 228,-493.2 8,-493.2"/>
<text text-anchor="start" x="12.5842" y="-502.3" font-family="Helvetica,sans-Serif" font-weight="bold" font-size="11.00" fill="#000000">R_STANDARD_REFERENCE_LIST</text>
<text text-anchor="start" x="193.5219" y="-501.3" font-family="Helvetica,sans-Serif" font-size="11.00" fill="#000000">[table]</text>
<polygon fill="none" stroke="#000000" points="8,-474.2 8,-493.2 228,-493.2 228,-474.2 8,-474.2"/>
<text text-anchor="start" x="11" y="-480.3" font-family="Helvetica,sans-Serif" font-size="11.00" fill="#000000">...</text>
<polygon fill="#ffffff" stroke="transparent" points="8,-455.2 8,-474.2 79,-474.2 79,-455.2 8,-455.2"/>
<polygon fill="none" stroke="#000000" points="8,-455.2 8,-474.2 79,-474.2 79,-455.2 8,-455.2"/>
<text text-anchor="start" x="11" y="-461.3" font-family="Helvetica,sans-Serif" font-size="11.00" fill="#000000">&lt; 1</text>
<polygon fill="#ffffff" stroke="transparent" points="79,-455.2 79,-474.2 169,-474.2 169,-455.2 79,-455.2"/>
<polygon fill="none" stroke="#000000" points="79,-455.2 79,-474.2 169,-474.2 169,-455.2 79,-455.2"/>
<text text-anchor="start" x="106.094" y="-461.3" font-family="Helvetica,sans-Serif" font-size="11.00" fill="#000000">15,391 rows</text>
<polygon fill="#ffffff" stroke="transparent" points="169,-455.2 169,-474.2 228,-474.2 228,-455.2 169,-455.2"/>
<polygon fill="none" stroke="#000000" points="169,-455.2 169,-474.2 228,-474.2 228,-455.2 169,-455.2"/>
<text text-anchor="start" x="197.1755" y="-461.3" font-family="Helvetica,sans-Serif" font-size="11.00" fill="#000000">294 &gt;</text>
</a>
</g>
</g>
<!-- R_REGISTER_TYPE&#45;&gt;R_STANDARD_REFERENCE_LIST -->
<g id="edge3" class="edge">
<title>R_REGISTER_TYPE:w&#45;&gt;R_STANDARD_REFERENCE_LIST:e</title>
<path fill="none" stroke="#000000" d="M268.3426,-335.9316C224.5457,-356.2616 293.2507,-483.2 228,-483.2"/>
<polygon fill="#000000" stroke="#000000" points="274.6449,-334.7156 283.182,-336.7348 278.5724,-333.9578 282.5,-333.2 282.5,-333.2 282.5,-333.2 278.5724,-333.9578 281.818,-329.6652 274.6449,-334.7156 274.6449,-334.7156"/>
<ellipse fill="none" stroke="#000000" cx="271.5028" cy="-335.3219" rx="3.2" ry="3.2"/>
</g>
<!-- R_REGISTER_TYPE&#45;&gt;R_STANDARD_REFERENCE_LIST -->
<g id="edge4" class="edge">
<title>R_REGISTER_TYPE:w&#45;&gt;R_STANDARD_REFERENCE_LIST:e</title>
<path fill="none" stroke="#000000" d="M268.2152,-313.6314C216.2793,-334.5372 302.5518,-483.2 228,-483.2"/>
<polygon fill="#000000" stroke="#000000" points="274.6134,-312.5424 283.1041,-314.749 278.5567,-311.8712 282.5,-311.2 282.5,-311.2 282.5,-311.2 278.5567,-311.8712 281.8959,-307.651 274.6134,-312.5424 274.6134,-312.5424"/>
<ellipse fill="none" stroke="#000000" cx="271.4588" cy="-313.0794" rx="3.2" ry="3.2"/>
</g>
<!-- R_REGISTER_TYPE_CATEGORY -->
<g id="node4" class="node">
<title>R_REGISTER_TYPE_CATEGORY</title>
<g id="a_node4"><a xlink:href="../../tables/R_REGISTER_TYPE_CATEGORY.html" xlink:title="R_REGISTER_TYPE_CATEGORY" target="_top">
<polygon fill="#ffffff" stroke="transparent" points="567.5,-489.7 567.5,-550.7 782.5,-550.7 782.5,-489.7 567.5,-489.7"/>
<polygon fill="#f5f5f5" stroke="transparent" points="568,-527.2 568,-550.2 783,-550.2 783,-527.2 568,-527.2"/>
<polygon fill="none" stroke="#000000" points="568,-527.2 568,-550.2 783,-550.2 783,-527.2 568,-527.2"/>
<text text-anchor="start" x="572.5202" y="-536.3" font-family="Helvetica,sans-Serif" font-weight="bold" font-size="11.00" fill="#000000">R_REGISTER_TYPE_CATEGORY</text>
<text text-anchor="start" x="748.5219" y="-535.3" font-family="Helvetica,sans-Serif" font-size="11.00" fill="#000000">[table]</text>
<polygon fill="none" stroke="#000000" points="568,-508.2 568,-527.2 783,-527.2 783,-508.2 568,-508.2"/>
<text text-anchor="start" x="571" y="-514.3" font-family="Helvetica,sans-Serif" font-size="11.00" fill="#000000">...</text>
<polygon fill="#ffffff" stroke="transparent" points="568,-489.2 568,-508.2 658,-508.2 658,-489.2 568,-489.2"/>
<polygon fill="none" stroke="#000000" points="568,-489.2 568,-508.2 658,-508.2 658,-489.2 568,-489.2"/>
<text text-anchor="start" x="571" y="-495.3" font-family="Helvetica,sans-Serif" font-size="11.00" fill="#000000">&lt; 2</text>
<polygon fill="#ffffff" stroke="transparent" points="658,-489.2 658,-508.2 736,-508.2 736,-489.2 658,-489.2"/>
<polygon fill="none" stroke="#000000" points="658,-489.2 658,-508.2 736,-508.2 736,-489.2 658,-489.2"/>
<text text-anchor="start" x="694.4956" y="-495.3" font-family="Helvetica,sans-Serif" font-size="11.00" fill="#000000">19 rows</text>
<polygon fill="#ffffff" stroke="transparent" points="736,-489.2 736,-508.2 783,-508.2 783,-489.2 736,-489.2"/>
<polygon fill="none" stroke="#000000" points="736,-489.2 736,-508.2 783,-508.2 783,-489.2 736,-489.2"/>
<text text-anchor="start" x="773.8862" y="-495.3" font-family="Helvetica,sans-Serif" font-size="11.00" fill="#000000"> &#160;</text>
</a>
</g>
</g>
<!-- R_REGISTER_TYPE_CATEGORY&#45;&gt;R_REGISTER_TYPE -->
<g id="edge8" class="edge">
<title>R_REGISTER_TYPE_CATEGORY:w&#45;&gt;R_REGISTER_TYPE:e</title>
<path fill="none" stroke="#000000" d="M553.7485,-514.2831C516.259,-496.1121 554.4556,-399.2 499.5,-399.2"/>
<polygon fill="#000000" stroke="#000000" points="560.1625,-515.5958 567.2781,-520.7269 564.0812,-516.3979 568,-517.2 568,-517.2 568,-517.2 564.0812,-516.3979 568.7219,-513.6731 560.1625,-515.5958 560.1625,-515.5958"/>
<ellipse fill="none" stroke="#000000" cx="557.0275" cy="-514.9542" rx="3.2" ry="3.2"/>
</g>
<!-- R_REGISTER_TYPE_CATEGORY&#45;&gt;R_STANDARD_REFERENCE_LIST -->
<g id="edge7" class="edge">
<title>R_REGISTER_TYPE_CATEGORY:w&#45;&gt;R_STANDARD_REFERENCE_LIST:e</title>
<path fill="none" stroke="#000000" d="M553.2467,-517.09C413.5992,-514.9797 374.8224,-483.2 228,-483.2"/>
<polygon fill="#000000" stroke="#000000" points="560.0002,-517.1403 567.9731,-520.7999 564.0001,-517.1702 568,-517.2 568,-517.2 568,-517.2 564.0001,-517.1702 568.0269,-513.6001 560.0002,-517.1403 560.0002,-517.1403"/>
<ellipse fill="none" stroke="#000000" cx="556.8003" cy="-517.1165" rx="3.2" ry="3.2"/>
</g>
<!-- R_REGISTER_TYPE_DUP_GRP -->
<g id="node5" class="node">
<title>R_REGISTER_TYPE_DUP_GRP</title>
<g id="a_node5"><a xlink:href="../../tables/R_REGISTER_TYPE_DUP_GRP.html" xlink:title="R_REGISTER_TYPE_DUP_GRP" target="_top">
<polygon fill="#ffffff" stroke="transparent" points="553,-38.2 553,-194.2 797,-194.2 797,-38.2 553,-38.2"/>
<polygon fill="#f5f5f5" stroke="transparent" points="555,-169.2 555,-192.2 795,-192.2 795,-169.2 555,-169.2"/>
<polygon fill="none" stroke="#000000" points="555,-169.2 555,-192.2 795,-192.2 795,-169.2 555,-169.2"/>
<text text-anchor="start" x="560" y="-178.3" font-family="Helvetica,sans-Serif" font-weight="bold" font-size="11.00" fill="#000000">R_REGISTER_TYPE_DUP_GRP</text>
<text text-anchor="start" x="760.0437" y="-177.3" font-family="Helvetica,sans-Serif" font-size="11.00" fill="#000000">[table]</text>
<polygon fill="none" stroke="#000000" points="555,-147.2 555,-169.2 734,-169.2 734,-147.2 555,-147.2"/>
<image xlink:href="../../images/primaryKeys.png" width="11px" height="12px" preserveAspectRatio="xMinYMin meet" x="560" y="-164.2"/>
<text text-anchor="start" x="568.2702" y="-154.3" font-family="Helvetica,sans-Serif" font-size="11.00" fill="#000000">REGISTER_TYPE_DUP_GRP_ID</text>
<polygon fill="none" stroke="#000000" points="734,-147.2 734,-169.2 795,-169.2 795,-147.2 734,-147.2"/>
<text text-anchor="start" x="736.6865" y="-154.9" font-family="Helvetica,sans-Serif" font-size="11.00" fill="#000000">number[38]</text>
<polygon fill="none" stroke="#000000" points="555,-125.2 555,-147.2 734,-147.2 734,-125.2 555,-125.2"/>
<image xlink:href="../../images/primaryKeys.png" width="11px" height="12px" preserveAspectRatio="xMinYMin meet" x="560" y="-142.2"/>
<text text-anchor="start" x="575" y="-132.3" font-family="Helvetica,sans-Serif" font-size="11.00" fill="#000000">REGISTER_TYPE_ID</text>
<polygon fill="none" stroke="#000000" points="734,-125.2 734,-147.2 795,-147.2 795,-125.2 734,-125.2"/>
<text text-anchor="start" x="736.6865" y="-132.9" font-family="Helvetica,sans-Serif" font-size="11.00" fill="#000000">number[38]</text>
<polygon fill="none" stroke="#000000" points="555,-103.2 555,-125.2 734,-125.2 734,-103.2 555,-103.2"/>
<image xlink:href="../../images/primaryKeys.png" width="11px" height="12px" preserveAspectRatio="xMinYMin meet" x="560" y="-120.2"/>
<text text-anchor="start" x="575" y="-110.3" font-family="Helvetica,sans-Serif" font-size="11.00" fill="#000000">REGISTER_GROUP_ID</text>
<polygon fill="none" stroke="#000000" points="734,-103.2 734,-125.2 795,-125.2 795,-103.2 734,-103.2"/>
<text text-anchor="start" x="736.6865" y="-110.9" font-family="Helvetica,sans-Serif" font-size="11.00" fill="#000000">number[38]</text>
<polygon fill="none" stroke="#000000" points="555,-81.2 555,-103.2 734,-103.2 734,-81.2 555,-81.2"/>
<text text-anchor="start" x="575" y="-88.3" font-family="Helvetica,sans-Serif" font-size="11.00" fill="#000000">ROW_VERSION</text>
<polygon fill="none" stroke="#000000" points="734,-81.2 734,-103.2 795,-103.2 795,-81.2 734,-81.2"/>
<text text-anchor="start" x="736.6865" y="-88.9" font-family="Helvetica,sans-Serif" font-size="11.00" fill="#000000">number[38]</text>
<polygon fill="none" stroke="#000000" points="555,-59.2 555,-81.2 734,-81.2 734,-59.2 555,-59.2"/>
<image xlink:href="../../images/primaryKeys.png" width="11px" height="12px" preserveAspectRatio="xMinYMin meet" x="560" y="-76.2"/>
<text text-anchor="start" x="575" y="-66.3" font-family="Helvetica,sans-Serif" font-size="11.00" fill="#000000">TRAINING_SESSION_ID</text>
<polygon fill="none" stroke="#000000" points="734,-59.2 734,-81.2 795,-81.2 795,-59.2 734,-59.2"/>
<text text-anchor="start" x="736.6865" y="-66.9" font-family="Helvetica,sans-Serif" font-size="11.00" fill="#000000">number[38]</text>
<polygon fill="#ffffff" stroke="transparent" points="555,-40.2 555,-59.2 633,-59.2 633,-40.2 555,-40.2"/>
<polygon fill="none" stroke="#000000" points="555,-40.2 555,-59.2 633,-59.2 633,-40.2 555,-40.2"/>
<text text-anchor="start" x="558" y="-46.3" font-family="Helvetica,sans-Serif" font-size="11.00" fill="#000000">&lt; 2</text>
<polygon fill="#ffffff" stroke="transparent" points="633,-40.2 633,-59.2 734,-59.2 734,-40.2 633,-40.2"/>
<polygon fill="none" stroke="#000000" points="633,-40.2 633,-59.2 734,-59.2 734,-40.2 633,-40.2"/>
<text text-anchor="start" x="692.4956" y="-46.3" font-family="Helvetica,sans-Serif" font-size="11.00" fill="#000000">34 rows</text>
<polygon fill="#ffffff" stroke="transparent" points="734,-40.2 734,-59.2 795,-59.2 795,-40.2 734,-40.2"/>
<polygon fill="none" stroke="#000000" points="734,-40.2 734,-59.2 795,-59.2 795,-40.2 734,-40.2"/>
<text text-anchor="start" x="776.4053" y="-46.3" font-family="Helvetica,sans-Serif" font-size="11.00" fill="#000000">0 &gt;</text>
<polygon fill="none" stroke="#000000" stroke-width="2" points="554,-39.2 554,-193.2 796,-193.2 796,-39.2 554,-39.2"/>
</a>
</g>
</g>
<!-- R_REGISTER_TYPE_DUP_GRP&#45;&gt;R_REGISTER_TYPE -->
<g id="edge10" class="edge">
<title>R_REGISTER_TYPE_DUP_GRP:w&#45;&gt;R_REGISTER_TYPE:e</title>
<path fill="none" stroke="#000000" d="M540.6792,-137.7445C451.4053,-159.2982 613.5967,-399.2 499.5,-399.2"/>
<polygon fill="#000000" stroke="#000000" points="547.0461,-137.0579 555.386,-139.7792 551.0231,-136.6289 555,-136.2 555,-136.2 555,-136.2 551.0231,-136.6289 554.614,-132.6208 547.0461,-137.0579 547.0461,-137.0579"/>
<ellipse fill="none" stroke="#000000" cx="543.8646" cy="-137.401" rx="3.2" ry="3.2"/>
</g>
<!-- R_REGISTER_DUPLICATE_GROUP -->
<g id="node6" class="node">
<title>R_REGISTER_DUPLICATE_GROUP</title>
<g id="a_node6"><a xlink:href="../../tables/R_REGISTER_DUPLICATE_GROUP.html" xlink:title="R_REGISTER_DUPLICATE_GROUP" target="_top">
<polygon fill="#ffffff" stroke="transparent" points="277,-65.7 277,-148.7 504,-148.7 504,-65.7 277,-65.7"/>
<polygon fill="#f5f5f5" stroke="transparent" points="277.5,-125.2 277.5,-148.2 504.5,-148.2 504.5,-125.2 277.5,-125.2"/>
<polygon fill="none" stroke="#000000" points="277.5,-125.2 277.5,-148.2 504.5,-148.2 504.5,-125.2 277.5,-125.2"/>
<text text-anchor="start" x="282.2188" y="-134.3" font-family="Helvetica,sans-Serif" font-weight="bold" font-size="11.00" fill="#000000">R_REGISTER_DUPLICATE_GROUP</text>
<text text-anchor="start" x="470.0219" y="-133.3" font-family="Helvetica,sans-Serif" font-size="11.00" fill="#000000">[table]</text>
<polygon fill="none" stroke="#000000" points="277.5,-103.2 277.5,-125.2 504.5,-125.2 504.5,-103.2 277.5,-103.2"/>
<image xlink:href="../../images/primaryKeys.png" width="11px" height="12px" preserveAspectRatio="xMinYMin meet" x="282.5" y="-120.2"/>
<text text-anchor="start" x="313.5" y="-110.3" font-family="Helvetica,sans-Serif" font-size="11.00" fill="#000000">REGISTER_GROUP_ID</text>
<polygon fill="none" stroke="#000000" points="277.5,-84.2 277.5,-103.2 504.5,-103.2 504.5,-84.2 277.5,-84.2"/>
<text text-anchor="start" x="280.5" y="-90.3" font-family="Helvetica,sans-Serif" font-size="11.00" fill="#000000">...</text>
<polygon fill="#ffffff" stroke="transparent" points="277.5,-65.2 277.5,-84.2 364.5,-84.2 364.5,-65.2 277.5,-65.2"/>
<polygon fill="none" stroke="#000000" points="277.5,-65.2 277.5,-84.2 364.5,-84.2 364.5,-65.2 277.5,-65.2"/>
<text text-anchor="start" x="280.5" y="-71.3" font-family="Helvetica,sans-Serif" font-size="11.00" fill="#000000"> &#160;</text>
<polygon fill="#ffffff" stroke="transparent" points="364.5,-65.2 364.5,-84.2 445.5,-84.2 445.5,-65.2 364.5,-65.2"/>
<polygon fill="none" stroke="#000000" points="364.5,-65.2 364.5,-84.2 445.5,-84.2 445.5,-65.2 364.5,-65.2"/>
<text text-anchor="start" x="403.9956" y="-71.3" font-family="Helvetica,sans-Serif" font-size="11.00" fill="#000000">20 rows</text>
<polygon fill="#ffffff" stroke="transparent" points="445.5,-65.2 445.5,-84.2 504.5,-84.2 504.5,-65.2 445.5,-65.2"/>
<polygon fill="none" stroke="#000000" points="445.5,-65.2 445.5,-84.2 504.5,-84.2 504.5,-65.2 445.5,-65.2"/>
<text text-anchor="start" x="485.9053" y="-71.3" font-family="Helvetica,sans-Serif" font-size="11.00" fill="#000000">1 &gt;</text>
</a>
</g>
</g>
<!-- R_REGISTER_TYPE_DUP_GRP&#45;&gt;R_REGISTER_DUPLICATE_GROUP -->
<g id="edge9" class="edge">
<title>R_REGISTER_TYPE_DUP_GRP:w&#45;&gt;R_REGISTER_DUPLICATE_GROUP:e</title>
<path fill="none" stroke="#000000" d="M540.4203,-114.2C528.5435,-114.2 521.158,-114.2 504.5,-114.2"/>
<polygon fill="#000000" stroke="#000000" points="547,-114.2001 555,-117.8 551,-114.2 555,-114.2 555,-114.2 555,-114.2 551,-114.2 555,-110.6 547,-114.2001 547,-114.2001"/>
<ellipse fill="none" stroke="#000000" cx="543.8" cy="-114.2001" rx="3.2" ry="3.2"/>
</g>
<!-- R_REGISTER_TYPE_LEVEL -->
<g id="node7" class="node">
<title>R_REGISTER_TYPE_LEVEL</title>
<g id="a_node7"><a xlink:href="../../tables/R_REGISTER_TYPE_LEVEL.html" xlink:title="R_REGISTER_TYPE_LEVEL" target="_top">
<polygon fill="#ffffff" stroke="transparent" points="581,-407.7 581,-468.7 769,-468.7 769,-407.7 581,-407.7"/>
<polygon fill="#f5f5f5" stroke="transparent" points="581,-445.2 581,-468.2 769,-468.2 769,-445.2 581,-445.2"/>
<polygon fill="none" stroke="#000000" points="581,-445.2 581,-468.2 769,-468.2 769,-445.2 581,-445.2"/>
<text text-anchor="start" x="585.7631" y="-454.3" font-family="Helvetica,sans-Serif" font-weight="bold" font-size="11.00" fill="#000000">R_REGISTER_TYPE_LEVEL</text>
<text text-anchor="start" x="734.5219" y="-453.3" font-family="Helvetica,sans-Serif" font-size="11.00" fill="#000000">[table]</text>
<polygon fill="none" stroke="#000000" points="581,-426.2 581,-445.2 769,-445.2 769,-426.2 581,-426.2"/>
<text text-anchor="start" x="584" y="-432.3" font-family="Helvetica,sans-Serif" font-size="11.00" fill="#000000">...</text>
<polygon fill="#ffffff" stroke="transparent" points="581,-407.2 581,-426.2 660,-426.2 660,-407.2 581,-407.2"/>
<polygon fill="none" stroke="#000000" points="581,-407.2 581,-426.2 660,-426.2 660,-407.2 581,-407.2"/>
<text text-anchor="start" x="584" y="-413.3" font-family="Helvetica,sans-Serif" font-size="11.00" fill="#000000">&lt; 2</text>
<polygon fill="#ffffff" stroke="transparent" points="660,-407.2 660,-426.2 727,-426.2 727,-407.2 660,-407.2"/>
<polygon fill="none" stroke="#000000" points="660,-407.2 660,-426.2 727,-426.2 727,-407.2 660,-407.2"/>
<text text-anchor="start" x="691.6105" y="-413.3" font-family="Helvetica,sans-Serif" font-size="11.00" fill="#000000">6 rows</text>
<polygon fill="#ffffff" stroke="transparent" points="727,-407.2 727,-426.2 769,-426.2 769,-407.2 727,-407.2"/>
<polygon fill="none" stroke="#000000" points="727,-407.2 727,-426.2 769,-426.2 769,-407.2 727,-407.2"/>
<text text-anchor="start" x="759.8862" y="-413.3" font-family="Helvetica,sans-Serif" font-size="11.00" fill="#000000"> &#160;</text>
</a>
</g>
</g>
<!-- R_REGISTER_TYPE_LEVEL&#45;&gt;R_REGISTER_TYPE -->
<g id="edge12" class="edge">
<title>R_REGISTER_TYPE_LEVEL:w&#45;&gt;R_REGISTER_TYPE:e</title>
<path fill="none" stroke="#000000" d="M566.6592,-433.3653C540.0746,-426.0292 533.6847,-399.2 499.5,-399.2"/>
<polygon fill="#000000" stroke="#000000" points="573.0647,-434.1847 580.5431,-438.7709 577.0323,-434.6924 581,-435.2 581,-435.2 581,-435.2 577.0323,-434.6924 581.4569,-431.6291 573.0647,-434.1847 573.0647,-434.1847"/>
<ellipse fill="none" stroke="#000000" cx="569.8906" cy="-433.7786" rx="3.2" ry="3.2"/>
</g>
<!-- R_REGISTER_TYPE_LEVEL&#45;&gt;R_STANDARD_REFERENCE_LIST -->
<g id="edge11" class="edge">
<title>R_REGISTER_TYPE_LEVEL:w&#45;&gt;R_STANDARD_REFERENCE_LIST:e</title>
<path fill="none" stroke="#000000" d="M566.5658,-436.8523C500.9204,-445.2926 236.7941,-483.2 228,-483.2"/>
<polygon fill="#000000" stroke="#000000" points="573.0519,-436.1099 581.4094,-438.7766 577.026,-435.6549 581,-435.2 581,-435.2 581,-435.2 577.026,-435.6549 580.5906,-431.6234 573.0519,-436.1099 573.0519,-436.1099"/>
<ellipse fill="none" stroke="#000000" cx="569.8727" cy="-436.4738" rx="3.2" ry="3.2"/>
</g>
<!-- R_REGISTER_TYPE_PROVIDER -->
<g id="node8" class="node">
<title>R_REGISTER_TYPE_PROVIDER</title>
<g id="a_node8"><a xlink:href="../../tables/R_REGISTER_TYPE_PROVIDER.html" xlink:title="R_REGISTER_TYPE_PROVIDER" target="_top">
<polygon fill="#ffffff" stroke="transparent" points="569.5,-297.7 569.5,-358.7 780.5,-358.7 780.5,-297.7 569.5,-297.7"/>
<polygon fill="#f5f5f5" stroke="transparent" points="570,-335.2 570,-358.2 781,-358.2 781,-335.2 570,-335.2"/>
<polygon fill="none" stroke="#000000" points="570,-335.2 570,-358.2 781,-358.2 781,-335.2 570,-335.2"/>
<text text-anchor="start" x="574.6597" y="-344.3" font-family="Helvetica,sans-Serif" font-weight="bold" font-size="11.00" fill="#000000">R_REGISTER_TYPE_PROVIDER</text>
<text text-anchor="start" x="746.5219" y="-343.3" font-family="Helvetica,sans-Serif" font-size="11.00" fill="#000000">[table]</text>
<polygon fill="none" stroke="#000000" points="570,-316.2 570,-335.2 781,-335.2 781,-316.2 570,-316.2"/>
<text text-anchor="start" x="573" y="-322.3" font-family="Helvetica,sans-Serif" font-size="11.00" fill="#000000">...</text>
<polygon fill="#ffffff" stroke="transparent" points="570,-297.2 570,-316.2 655,-316.2 655,-297.2 570,-297.2"/>
<polygon fill="none" stroke="#000000" points="570,-297.2 570,-316.2 655,-316.2 655,-297.2 570,-297.2"/>
<text text-anchor="start" x="573" y="-303.3" font-family="Helvetica,sans-Serif" font-size="11.00" fill="#000000">&lt; 2</text>
<polygon fill="#ffffff" stroke="transparent" points="655,-297.2 655,-316.2 737,-316.2 737,-297.2 655,-297.2"/>
<polygon fill="none" stroke="#000000" points="655,-297.2 655,-316.2 737,-316.2 737,-297.2 655,-297.2"/>
<text text-anchor="start" x="689.3807" y="-303.3" font-family="Helvetica,sans-Serif" font-size="11.00" fill="#000000">192 rows</text>
<polygon fill="#ffffff" stroke="transparent" points="737,-297.2 737,-316.2 781,-316.2 781,-297.2 737,-297.2"/>
<polygon fill="none" stroke="#000000" points="737,-297.2 737,-316.2 781,-316.2 781,-297.2 737,-297.2"/>
<text text-anchor="start" x="771.8862" y="-303.3" font-family="Helvetica,sans-Serif" font-size="11.00" fill="#000000"> &#160;</text>
</a>
</g>
</g>
<!-- R_REGISTER_TYPE_PROVIDER&#45;&gt;R_REGISTER_TYPE -->
<g id="edge13" class="edge">
<title>R_REGISTER_TYPE_PROVIDER:w&#45;&gt;R_REGISTER_TYPE:e</title>
<path fill="none" stroke="#000000" d="M555.7918,-328.3797C528.6346,-342.5438 539.2471,-399.2 499.5,-399.2"/>
<polygon fill="#000000" stroke="#000000" points="562.1931,-326.9472 570.7862,-328.7131 566.0966,-326.0736 570,-325.2 570,-325.2 570,-325.2 566.0966,-326.0736 569.2138,-321.6869 562.1931,-326.9472 562.1931,-326.9472"/>
<ellipse fill="none" stroke="#000000" cx="559.0704" cy="-327.646" rx="3.2" ry="3.2"/>
</g>
<!-- REGISTRATION -->
<g id="node9" class="node">
<title>REGISTRATION</title>
<g id="a_node9"><a xlink:href="../../tables/REGISTRATION.html" xlink:title="REGISTRATION" target="_top">
<polygon fill="#ffffff" stroke="transparent" points="846,-454.7 846,-515.7 971,-515.7 971,-454.7 846,-454.7"/>
<polygon fill="#f5f5f5" stroke="transparent" points="846.5,-492.2 846.5,-515.2 971.5,-515.2 971.5,-492.2 846.5,-492.2"/>
<polygon fill="none" stroke="#000000" points="846.5,-492.2 846.5,-515.2 971.5,-515.2 971.5,-492.2 846.5,-492.2"/>
<text text-anchor="start" x="851.2511" y="-501.3" font-family="Helvetica,sans-Serif" font-weight="bold" font-size="11.00" fill="#000000">REGISTRATION</text>
<text text-anchor="start" x="937.0219" y="-500.3" font-family="Helvetica,sans-Serif" font-size="11.00" fill="#000000">[table]</text>
<polygon fill="none" stroke="#000000" points="846.5,-473.2 846.5,-492.2 971.5,-492.2 971.5,-473.2 846.5,-473.2"/>
<text text-anchor="start" x="849.5" y="-479.3" font-family="Helvetica,sans-Serif" font-size="11.00" fill="#000000">...</text>
<polygon fill="#ffffff" stroke="transparent" points="846.5,-454.2 846.5,-473.2 876.5,-473.2 876.5,-454.2 846.5,-454.2"/>
<polygon fill="none" stroke="#000000" points="846.5,-454.2 846.5,-473.2 876.5,-473.2 876.5,-454.2 846.5,-454.2"/>
<text text-anchor="start" x="849.5" y="-460.3" font-family="Helvetica,sans-Serif" font-size="11.00" fill="#000000">&lt; 9</text>
<polygon fill="#ffffff" stroke="transparent" points="876.5,-454.2 876.5,-473.2 945.5,-473.2 945.5,-454.2 876.5,-454.2"/>
<polygon fill="none" stroke="#000000" points="876.5,-454.2 876.5,-473.2 945.5,-473.2 945.5,-454.2 876.5,-454.2"/>
<text text-anchor="start" x="882.594" y="-460.3" font-family="Helvetica,sans-Serif" font-size="11.00" fill="#000000">11,163 rows</text>
<polygon fill="#ffffff" stroke="transparent" points="945.5,-454.2 945.5,-473.2 971.5,-473.2 971.5,-454.2 945.5,-454.2"/>
<polygon fill="none" stroke="#000000" points="945.5,-454.2 945.5,-473.2 971.5,-473.2 971.5,-454.2 945.5,-454.2"/>
<text text-anchor="start" x="952.9053" y="-460.3" font-family="Helvetica,sans-Serif" font-size="11.00" fill="#000000">2 &gt;</text>
</a>
</g>
</g>
<!-- REGISTRATION&#45;&gt;R_REGISTER_TYPE -->
<g id="edge16" class="edge">
<title>REGISTRATION:w&#45;&gt;R_REGISTER_TYPE:e</title>
<path fill="none" stroke="#000000" d="M832.4597,-478.391C813.6227,-464.4687 835.3637,-416.1648 805,-397.2 747.4184,-361.2353 567.3903,-399.2 499.5,-399.2"/>
<polygon fill="#000000" stroke="#000000" points="838.7791,-480.1054 845.5574,-485.6744 842.6395,-481.1527 846.5,-482.2 846.5,-482.2 846.5,-482.2 842.6395,-481.1527 847.4426,-478.7256 838.7791,-480.1054 838.7791,-480.1054"/>
<ellipse fill="none" stroke="#000000" cx="835.6907" cy="-479.2675" rx="3.2" ry="3.2"/>
</g>
<!-- REGISTRATION&#45;&gt;R_STANDARD_REFERENCE_LIST -->
<g id="edge14" class="edge">
<title>REGISTRATION:w&#45;&gt;R_STANDARD_REFERENCE_LIST:e</title>
<path fill="none" stroke="#000000" d="M832.6396,-486.1158C815.2596,-499.5504 833.641,-543.8932 805,-561.2 706.0986,-620.9628 660.055,-571.944 545,-561.2 420.7159,-549.5942 385.119,-554.9996 269,-509.2 248.9276,-501.2831 249.5773,-483.2 228,-483.2"/>
<polygon fill="#000000" stroke="#000000" points="838.8013,-484.3751 847.4788,-485.6644 842.6507,-483.2875 846.5,-482.2 846.5,-482.2 846.5,-482.2 842.6507,-483.2875 845.5212,-478.7356 838.8013,-484.3751 838.8013,-484.3751"/>
<ellipse fill="none" stroke="#000000" cx="835.7219" cy="-485.2451" rx="3.2" ry="3.2"/>
</g>
<!-- REGISTRATION&#45;&gt;R_STANDARD_REFERENCE_LIST -->
<g id="edge15" class="edge">
<title>REGISTRATION:w&#45;&gt;R_STANDARD_REFERENCE_LIST:e</title>
<path fill="none" stroke="#000000" d="M832.628,-486.2878C816.3802,-499.4838 832.4333,-541.0267 805,-557.2 705.4559,-615.886 660.055,-567.944 545,-557.2 420.7159,-545.5942 386.706,-546.7515 269,-505.2 249.4996,-498.3161 248.6798,-483.2 228,-483.2"/>
<polygon fill="#000000" stroke="#000000" points="838.8262,-484.4614 847.5176,-485.6532 842.6631,-483.3307 846.5,-482.2 846.5,-482.2 846.5,-482.2 842.6631,-483.3307 845.4824,-478.7468 838.8262,-484.4614 838.8262,-484.4614"/>
<ellipse fill="none" stroke="#000000" cx="835.7567" cy="-485.3659" rx="3.2" ry="3.2"/>
</g>
<!-- TRIGGER_OFFENCE -->
<g id="node10" class="node">
<title>TRIGGER_OFFENCE</title>
<g id="a_node10"><a xlink:href="../../tables/TRIGGER_OFFENCE.html" xlink:title="TRIGGER_OFFENCE" target="_top">
<polygon fill="#ffffff" stroke="transparent" points="599.5,-215.7 599.5,-276.7 750.5,-276.7 750.5,-215.7 599.5,-215.7"/>
<polygon fill="#f5f5f5" stroke="transparent" points="600,-253.2 600,-276.2 751,-276.2 751,-253.2 600,-253.2"/>
<polygon fill="none" stroke="#000000" points="600,-253.2 600,-276.2 751,-276.2 751,-253.2 600,-253.2"/>
<text text-anchor="start" x="604.6133" y="-262.3" font-family="Helvetica,sans-Serif" font-weight="bold" font-size="11.00" fill="#000000">TRIGGER_OFFENCE</text>
<text text-anchor="start" x="716.5219" y="-261.3" font-family="Helvetica,sans-Serif" font-size="11.00" fill="#000000">[table]</text>
<polygon fill="none" stroke="#000000" points="600,-234.2 600,-253.2 751,-253.2 751,-234.2 600,-234.2"/>
<text text-anchor="start" x="603" y="-240.3" font-family="Helvetica,sans-Serif" font-size="11.00" fill="#000000">...</text>
<polygon fill="#ffffff" stroke="transparent" points="600,-215.2 600,-234.2 656,-234.2 656,-215.2 600,-215.2"/>
<polygon fill="none" stroke="#000000" points="600,-215.2 600,-234.2 656,-234.2 656,-215.2 600,-215.2"/>
<text text-anchor="start" x="603" y="-221.3" font-family="Helvetica,sans-Serif" font-size="11.00" fill="#000000">&lt; 2</text>
<polygon fill="#ffffff" stroke="transparent" points="656,-215.2 656,-234.2 712,-234.2 712,-215.2 656,-215.2"/>
<polygon fill="none" stroke="#000000" points="656,-215.2 656,-234.2 712,-234.2 712,-215.2 656,-215.2"/>
<text text-anchor="start" x="676.6105" y="-221.3" font-family="Helvetica,sans-Serif" font-size="11.00" fill="#000000">0 rows</text>
<polygon fill="#ffffff" stroke="transparent" points="712,-215.2 712,-234.2 751,-234.2 751,-215.2 712,-215.2"/>
<polygon fill="none" stroke="#000000" points="712,-215.2 712,-234.2 751,-234.2 751,-215.2 712,-215.2"/>
<text text-anchor="start" x="732.4053" y="-221.3" font-family="Helvetica,sans-Serif" font-size="11.00" fill="#000000">1 &gt;</text>
</a>
</g>
</g>
<!-- REGISTRATION&#45;&gt;TRIGGER_OFFENCE -->
<g id="edge17" class="edge">
<title>REGISTRATION:w&#45;&gt;TRIGGER_OFFENCE:e</title>
<path fill="none" stroke="#000000" d="M831.9393,-480.8408C769.01,-467.4478 848.3053,-358.0887 805,-287.2 788.861,-260.7812 781.9584,-243.2 751,-243.2"/>
<polygon fill="#000000" stroke="#000000" points="838.5346,-481.4564 846.1654,-485.7844 842.5173,-481.8282 846.5,-482.2 846.5,-482.2 846.5,-482.2 842.5173,-481.8282 846.8346,-478.6156 838.5346,-481.4564 838.5346,-481.4564"/>
<ellipse fill="none" stroke="#000000" cx="835.3485" cy="-481.159" rx="3.2" ry="3.2"/>
</g>
<!-- TRIGGER_OFFENCE&#45;&gt;R_REGISTER_TYPE -->
<g id="edge18" class="edge">
<title>TRIGGER_OFFENCE:w&#45;&gt;R_REGISTER_TYPE:e</title>
<path fill="none" stroke="#000000" d="M585.4428,-244.9578C566.4636,-250.1951 560.3555,-266.6177 545,-287.2 512.8718,-330.2644 553.2286,-399.2 499.5,-399.2"/>
<polygon fill="#000000" stroke="#000000" points="592.0577,-244.1591 600.4316,-246.774 596.0288,-243.6795 600,-243.2 600,-243.2 600,-243.2 596.0288,-243.6795 599.5684,-239.626 592.0577,-244.1591 592.0577,-244.1591"/>
<ellipse fill="none" stroke="#000000" cx="588.8808" cy="-244.5427" rx="3.2" ry="3.2"/>
</g>
</g>
</svg>
