<?xml version="1.0" encoding="UTF-8" standalone="no"?>
<!DOCTYPE svg PUBLIC "-//W3C//DTD SVG 1.1//EN"
 "http://www.w3.org/Graphics/SVG/1.1/DTD/svg11.dtd">
<!-- Generated by graphviz version 2.40.1 (20161225.0304)
 -->
<!-- Title: oneDegreeRelationshipsDiagram Pages: 1 -->
<svg width="552pt" height="337pt"
 viewBox="0.00 0.00 552.00 336.70" xmlns="http://www.w3.org/2000/svg" xmlns:xlink="http://www.w3.org/1999/xlink">
<g id="graph0" class="graph" transform="scale(1 1) rotate(0) translate(4 332.7)">
<title>oneDegreeRelationshipsDiagram</title>
<polygon fill="#ffffff" stroke="transparent" points="-4,4 -4,-332.7 548,-332.7 548,4 -4,4"/>
<text text-anchor="middle" x="72.4936" y="-7.3" font-family="Helvetica,sans-Serif" font-size="11.00" fill="#000000">Generated by SchemaSpy</text>
<!-- R_REGISTER_TYPE_DUP_GRP -->
<g id="node1" class="node">
<title>R_REGISTER_TYPE_DUP_GRP</title>
<g id="a_node1"><a xlink:href="../../tables/R_REGISTER_TYPE_DUP_GRP.html" xlink:title="R_REGISTER_TYPE_DUP_GRP" target="_top">
<polygon fill="#ffffff" stroke="transparent" points="329,-175.7 329,-324.7 536,-324.7 536,-175.7 329,-175.7"/>
<polygon fill="#f5f5f5" stroke="transparent" points="329.5,-301.2 329.5,-324.2 536.5,-324.2 536.5,-301.2 329.5,-301.2"/>
<polygon fill="none" stroke="#000000" points="329.5,-301.2 329.5,-324.2 536.5,-324.2 536.5,-301.2 329.5,-301.2"/>
<text text-anchor="start" x="334.2987" y="-310.3" font-family="Helvetica,sans-Serif" font-weight="bold" font-size="11.00" fill="#000000">R_REGISTER_TYPE_DUP_GRP</text>
<text text-anchor="start" x="502.0219" y="-309.3" font-family="Helvetica,sans-Serif" font-size="11.00" fill="#000000">[table]</text>
<polygon fill="none" stroke="#000000" points="329.5,-279.2 329.5,-301.2 536.5,-301.2 536.5,-279.2 329.5,-279.2"/>
<image xlink:href="../../images/primaryKeys.png" width="11px" height="12px" preserveAspectRatio="xMinYMin meet" x="334.5" y="-296.2"/>
<text text-anchor="start" x="356.7702" y="-286.3" font-family="Helvetica,sans-Serif" font-size="11.00" fill="#000000">REGISTER_TYPE_DUP_GRP_ID</text>
<polygon fill="none" stroke="#000000" points="329.5,-257.2 329.5,-279.2 536.5,-279.2 536.5,-257.2 329.5,-257.2"/>
<image xlink:href="../../images/primaryKeys.png" width="11px" height="12px" preserveAspectRatio="xMinYMin meet" x="334.5" y="-274.2"/>
<text text-anchor="start" x="363.5" y="-264.3" font-family="Helvetica,sans-Serif" font-size="11.00" fill="#000000">REGISTER_TYPE_ID</text>
<polygon fill="none" stroke="#000000" points="329.5,-235.2 329.5,-257.2 536.5,-257.2 536.5,-235.2 329.5,-235.2"/>
<image xlink:href="../../images/primaryKeys.png" width="11px" height="12px" preserveAspectRatio="xMinYMin meet" x="334.5" y="-252.2"/>
<text text-anchor="start" x="363.5" y="-242.3" font-family="Helvetica,sans-Serif" font-size="11.00" fill="#000000">REGISTER_GROUP_ID</text>
<polygon fill="none" stroke="#000000" points="329.5,-213.2 329.5,-235.2 536.5,-235.2 536.5,-213.2 329.5,-213.2"/>
<image xlink:href="../../images/primaryKeys.png" width="11px" height="12px" preserveAspectRatio="xMinYMin meet" x="334.5" y="-230.2"/>
<text text-anchor="start" x="363.5" y="-220.3" font-family="Helvetica,sans-Serif" font-size="11.00" fill="#000000">TRAINING_SESSION_ID</text>
<polygon fill="none" stroke="#000000" points="329.5,-194.2 329.5,-213.2 536.5,-213.2 536.5,-194.2 329.5,-194.2"/>
<text text-anchor="start" x="332.5" y="-200.3" font-family="Helvetica,sans-Serif" font-size="11.00" fill="#000000">...</text>
<polygon fill="#ffffff" stroke="transparent" points="329.5,-175.2 329.5,-194.2 415.5,-194.2 415.5,-175.2 329.5,-175.2"/>
<polygon fill="none" stroke="#000000" points="329.5,-175.2 329.5,-194.2 415.5,-194.2 415.5,-175.2 329.5,-175.2"/>
<text text-anchor="start" x="332.5" y="-181.3" font-family="Helvetica,sans-Serif" font-size="11.00" fill="#000000">&lt; 2</text>
<polygon fill="#ffffff" stroke="transparent" points="415.5,-175.2 415.5,-194.2 491.5,-194.2 491.5,-175.2 415.5,-175.2"/>
<polygon fill="none" stroke="#000000" points="415.5,-175.2 415.5,-194.2 491.5,-194.2 491.5,-175.2 415.5,-175.2"/>
<text text-anchor="start" x="449.9956" y="-181.3" font-family="Helvetica,sans-Serif" font-size="11.00" fill="#000000">34 rows</text>
<polygon fill="#ffffff" stroke="transparent" points="491.5,-175.2 491.5,-194.2 536.5,-194.2 536.5,-175.2 491.5,-175.2"/>
<polygon fill="none" stroke="#000000" points="491.5,-175.2 491.5,-194.2 536.5,-194.2 536.5,-175.2 491.5,-175.2"/>
<text text-anchor="start" x="527.3862" y="-181.3" font-family="Helvetica,sans-Serif" font-size="11.00" fill="#000000"> &#160;</text>
</a>
</g>
</g>
<!-- R_REGISTER_DUPLICATE_GROUP -->
<g id="node2" class="node">
<title>R_REGISTER_DUPLICATE_GROUP</title>
<g id="a_node2"><a xlink:href="../../tables/R_REGISTER_DUPLICATE_GROUP.html" xlink:title="R_REGISTER_DUPLICATE_GROUP" target="_top">
<polygon fill="#ffffff" stroke="transparent" points="8,-38.2 8,-282.2 280,-282.2 280,-38.2 8,-38.2"/>
<polygon fill="#f5f5f5" stroke="transparent" points="10,-257.2 10,-280.2 278,-280.2 278,-257.2 10,-257.2"/>
<polygon fill="none" stroke="#000000" points="10,-257.2 10,-280.2 278,-280.2 278,-257.2 10,-257.2"/>
<text text-anchor="start" x="15" y="-266.3" font-family="Helvetica,sans-Serif" font-weight="bold" font-size="11.00" fill="#000000">R_REGISTER_DUPLICATE_GROUP</text>
<text text-anchor="start" x="243.0437" y="-265.3" font-family="Helvetica,sans-Serif" font-size="11.00" fill="#000000">[table]</text>
<polygon fill="none" stroke="#000000" points="10,-235.2 10,-257.2 205,-257.2 205,-235.2 10,-235.2"/>
<image xlink:href="../../images/primaryKeys.png" width="11px" height="12px" preserveAspectRatio="xMinYMin meet" x="15" y="-252.2"/>
<text text-anchor="start" x="30" y="-242.3" font-family="Helvetica,sans-Serif" font-size="11.00" fill="#000000">REGISTER_GROUP_ID</text>
<polygon fill="none" stroke="#000000" points="205,-235.2 205,-257.2 278,-257.2 278,-235.2 205,-235.2"/>
<text text-anchor="start" x="208" y="-242.9" font-family="Helvetica,sans-Serif" font-size="11.00" fill="#000000">number[22]</text>
<polygon fill="none" stroke="#000000" points="10,-213.2 10,-235.2 205,-235.2 205,-213.2 10,-213.2"/>
<text text-anchor="start" x="30" y="-220.3" font-family="Helvetica,sans-Serif" font-size="11.00" fill="#000000">CODE</text>
<polygon fill="none" stroke="#000000" points="205,-213.2 205,-235.2 278,-235.2 278,-213.2 205,-213.2"/>
<text text-anchor="start" x="208" y="-220.9" font-family="Helvetica,sans-Serif" font-size="11.00" fill="#000000">varchar2[20]</text>
<polygon fill="none" stroke="#000000" points="10,-191.2 10,-213.2 205,-213.2 205,-191.2 10,-191.2"/>
<text text-anchor="start" x="30" y="-198.3" font-family="Helvetica,sans-Serif" font-size="11.00" fill="#000000">DESCRIPTION</text>
<polygon fill="none" stroke="#000000" points="205,-191.2 205,-213.2 278,-213.2 278,-191.2 205,-191.2"/>
<text text-anchor="start" x="207.8791" y="-198.9" font-family="Helvetica,sans-Serif" font-size="11.00" fill="#000000">varchar2[200]</text>
<polygon fill="none" stroke="#000000" points="10,-169.2 10,-191.2 205,-191.2 205,-169.2 10,-169.2"/>
<text text-anchor="start" x="30" y="-176.3" font-family="Helvetica,sans-Serif" font-size="11.00" fill="#000000">SELECTABLE</text>
<polygon fill="none" stroke="#000000" points="205,-169.2 205,-191.2 278,-191.2 278,-169.2 205,-169.2"/>
<text text-anchor="start" x="208" y="-176.9" font-family="Helvetica,sans-Serif" font-size="11.00" fill="#000000">char[1]</text>
<polygon fill="none" stroke="#000000" points="10,-147.2 10,-169.2 205,-169.2 205,-147.2 10,-147.2"/>
<text text-anchor="start" x="30" y="-154.3" font-family="Helvetica,sans-Serif" font-size="11.00" fill="#000000">ROW_VERSION</text>
<polygon fill="none" stroke="#000000" points="205,-147.2 205,-169.2 278,-169.2 278,-147.2 205,-147.2"/>
<text text-anchor="start" x="208" y="-154.9" font-family="Helvetica,sans-Serif" font-size="11.00" fill="#000000">number[22]</text>
<polygon fill="none" stroke="#000000" points="10,-125.2 10,-147.2 205,-147.2 205,-125.2 10,-125.2"/>
<text text-anchor="start" x="30" y="-132.3" font-family="Helvetica,sans-Serif" font-size="11.00" fill="#000000">CREATED_BY_USER_ID</text>
<polygon fill="none" stroke="#000000" points="205,-125.2 205,-147.2 278,-147.2 278,-125.2 205,-125.2"/>
<text text-anchor="start" x="208" y="-132.9" font-family="Helvetica,sans-Serif" font-size="11.00" fill="#000000">number[22]</text>
<polygon fill="none" stroke="#000000" points="10,-103.2 10,-125.2 205,-125.2 205,-103.2 10,-103.2"/>
<text text-anchor="start" x="30" y="-110.3" font-family="Helvetica,sans-Serif" font-size="11.00" fill="#000000">CREATED_DATETIME</text>
<polygon fill="none" stroke="#000000" points="205,-103.2 205,-125.2 278,-125.2 278,-103.2 205,-103.2"/>
<text text-anchor="start" x="208" y="-110.9" font-family="Helvetica,sans-Serif" font-size="11.00" fill="#000000">date[7]</text>
<polygon fill="none" stroke="#000000" points="10,-81.2 10,-103.2 205,-103.2 205,-81.2 10,-81.2"/>
<text text-anchor="start" x="30" y="-88.3" font-family="Helvetica,sans-Serif" font-size="11.00" fill="#000000">LAST_UPDATED_USER_ID</text>
<polygon fill="none" stroke="#000000" points="205,-81.2 205,-103.2 278,-103.2 278,-81.2 205,-81.2"/>
<text text-anchor="start" x="208" y="-88.9" font-family="Helvetica,sans-Serif" font-size="11.00" fill="#000000">number[22]</text>
<polygon fill="none" stroke="#000000" points="10,-59.2 10,-81.2 205,-81.2 205,-59.2 10,-59.2"/>
<text text-anchor="start" x="30" y="-66.3" font-family="Helvetica,sans-Serif" font-size="11.00" fill="#000000">LAST_UPDATED_DATETIME</text>
<polygon fill="none" stroke="#000000" points="205,-59.2 205,-81.2 278,-81.2 278,-59.2 205,-59.2"/>
<text text-anchor="start" x="208" y="-66.9" font-family="Helvetica,sans-Serif" font-size="11.00" fill="#000000">date[7]</text>
<polygon fill="#ffffff" stroke="transparent" points="10,-40.2 10,-59.2 96,-59.2 96,-40.2 10,-40.2"/>
<polygon fill="none" stroke="#000000" points="10,-40.2 10,-59.2 96,-59.2 96,-40.2 10,-40.2"/>
<text text-anchor="start" x="13" y="-46.3" font-family="Helvetica,sans-Serif" font-size="11.00" fill="#000000">&lt; 0</text>
<polygon fill="#ffffff" stroke="transparent" points="96,-40.2 96,-59.2 205,-59.2 205,-40.2 96,-40.2"/>
<polygon fill="none" stroke="#000000" points="96,-40.2 96,-59.2 205,-59.2 205,-40.2 96,-40.2"/>
<text text-anchor="start" x="163.4956" y="-46.3" font-family="Helvetica,sans-Serif" font-size="11.00" fill="#000000">20 rows</text>
<polygon fill="#ffffff" stroke="transparent" points="205,-40.2 205,-59.2 278,-59.2 278,-40.2 205,-40.2"/>
<polygon fill="none" stroke="#000000" points="205,-40.2 205,-59.2 278,-59.2 278,-40.2 205,-40.2"/>
<text text-anchor="start" x="259.4053" y="-46.3" font-family="Helvetica,sans-Serif" font-size="11.00" fill="#000000">1 &gt;</text>
<polygon fill="none" stroke="#000000" stroke-width="2" points="9,-39.2 9,-281.2 279,-281.2 279,-39.2 9,-39.2"/>
</a>
</g>
</g>
<!-- R_REGISTER_TYPE_DUP_GRP&#45;&gt;R_REGISTER_DUPLICATE_GROUP -->
<g id="edge1" class="edge">
<title>R_REGISTER_TYPE_DUP_GRP:w&#45;&gt;R_REGISTER_DUPLICATE_GROUP:e</title>
<path fill="none" stroke="#000000" d="M315.0156,-246.2C302.6771,-246.2 295.1667,-246.2 278,-246.2"/>
<polygon fill="#000000" stroke="#000000" points="321.5,-246.2001 329.5,-249.8 325.5,-246.2 329.5,-246.2 329.5,-246.2 329.5,-246.2 325.5,-246.2 329.5,-242.6 321.5,-246.2001 321.5,-246.2001"/>
<ellipse fill="none" stroke="#000000" cx="318.3" cy="-246.2001" rx="3.2" ry="3.2"/>
</g>
</g>
</svg>
