<?xml version="1.0" encoding="UTF-8" standalone="no"?>
<!DOCTYPE svg PUBLIC "-//W3C//DTD SVG 1.1//EN"
 "http://www.w3.org/Graphics/SVG/1.1/DTD/svg11.dtd">
<!-- Generated by graphviz version 2.40.1 (20161225.0304)
 -->
<!-- Title: twoDegreesRelationshipsDiagram Pages: 1 -->
<svg width="552pt" height="377pt"
 viewBox="0.00 0.00 552.00 376.70" xmlns="http://www.w3.org/2000/svg" xmlns:xlink="http://www.w3.org/1999/xlink">
<g id="graph0" class="graph" transform="scale(1 1) rotate(0) translate(4 372.7)">
<title>twoDegreesRelationshipsDiagram</title>
<polygon fill="#ffffff" stroke="transparent" points="-4,4 -4,-372.7 548,-372.7 548,4 -4,4"/>
<text text-anchor="middle" x="72.4936" y="-7.3" font-family="Helvetica,sans-Serif" font-size="11.00" fill="#000000">Generated by SchemaSpy</text>
<!-- R_REGISTER_TYPE_DUP_GRP -->
<g id="node1" class="node">
<title>R_REGISTER_TYPE_DUP_GRP</title>
<g id="a_node1"><a xlink:href="../../tables/R_REGISTER_TYPE_DUP_GRP.html" xlink:title="R_REGISTER_TYPE_DUP_GRP" target="_top">
<polygon fill="#ffffff" stroke="transparent" points="329,-206.7 329,-355.7 536,-355.7 536,-206.7 329,-206.7"/>
<polygon fill="#f5f5f5" stroke="transparent" points="329.5,-332.2 329.5,-355.2 536.5,-355.2 536.5,-332.2 329.5,-332.2"/>
<polygon fill="none" stroke="#000000" points="329.5,-332.2 329.5,-355.2 536.5,-355.2 536.5,-332.2 329.5,-332.2"/>
<text text-anchor="start" x="334.2987" y="-341.3" font-family="Helvetica,sans-Serif" font-weight="bold" font-size="11.00" fill="#000000">R_REGISTER_TYPE_DUP_GRP</text>
<text text-anchor="start" x="502.0219" y="-340.3" font-family="Helvetica,sans-Serif" font-size="11.00" fill="#000000">[table]</text>
<polygon fill="none" stroke="#000000" points="329.5,-310.2 329.5,-332.2 536.5,-332.2 536.5,-310.2 329.5,-310.2"/>
<image xlink:href="../../images/primaryKeys.png" width="11px" height="12px" preserveAspectRatio="xMinYMin meet" x="334.5" y="-327.2"/>
<text text-anchor="start" x="356.7702" y="-317.3" font-family="Helvetica,sans-Serif" font-size="11.00" fill="#000000">REGISTER_TYPE_DUP_GRP_ID</text>
<polygon fill="none" stroke="#000000" points="329.5,-288.2 329.5,-310.2 536.5,-310.2 536.5,-288.2 329.5,-288.2"/>
<image xlink:href="../../images/primaryKeys.png" width="11px" height="12px" preserveAspectRatio="xMinYMin meet" x="334.5" y="-305.2"/>
<text text-anchor="start" x="363.5" y="-295.3" font-family="Helvetica,sans-Serif" font-size="11.00" fill="#000000">REGISTER_TYPE_ID</text>
<polygon fill="none" stroke="#000000" points="329.5,-266.2 329.5,-288.2 536.5,-288.2 536.5,-266.2 329.5,-266.2"/>
<image xlink:href="../../images/primaryKeys.png" width="11px" height="12px" preserveAspectRatio="xMinYMin meet" x="334.5" y="-283.2"/>
<text text-anchor="start" x="363.5" y="-273.3" font-family="Helvetica,sans-Serif" font-size="11.00" fill="#000000">REGISTER_GROUP_ID</text>
<polygon fill="none" stroke="#000000" points="329.5,-244.2 329.5,-266.2 536.5,-266.2 536.5,-244.2 329.5,-244.2"/>
<image xlink:href="../../images/primaryKeys.png" width="11px" height="12px" preserveAspectRatio="xMinYMin meet" x="334.5" y="-261.2"/>
<text text-anchor="start" x="363.5" y="-251.3" font-family="Helvetica,sans-Serif" font-size="11.00" fill="#000000">TRAINING_SESSION_ID</text>
<polygon fill="none" stroke="#000000" points="329.5,-225.2 329.5,-244.2 536.5,-244.2 536.5,-225.2 329.5,-225.2"/>
<text text-anchor="start" x="332.5" y="-231.3" font-family="Helvetica,sans-Serif" font-size="11.00" fill="#000000">...</text>
<polygon fill="#ffffff" stroke="transparent" points="329.5,-206.2 329.5,-225.2 415.5,-225.2 415.5,-206.2 329.5,-206.2"/>
<polygon fill="none" stroke="#000000" points="329.5,-206.2 329.5,-225.2 415.5,-225.2 415.5,-206.2 329.5,-206.2"/>
<text text-anchor="start" x="332.5" y="-212.3" font-family="Helvetica,sans-Serif" font-size="11.00" fill="#000000">&lt; 2</text>
<polygon fill="#ffffff" stroke="transparent" points="415.5,-206.2 415.5,-225.2 491.5,-225.2 491.5,-206.2 415.5,-206.2"/>
<polygon fill="none" stroke="#000000" points="415.5,-206.2 415.5,-225.2 491.5,-225.2 491.5,-206.2 415.5,-206.2"/>
<text text-anchor="start" x="449.9956" y="-212.3" font-family="Helvetica,sans-Serif" font-size="11.00" fill="#000000">34 rows</text>
<polygon fill="#ffffff" stroke="transparent" points="491.5,-206.2 491.5,-225.2 536.5,-225.2 536.5,-206.2 491.5,-206.2"/>
<polygon fill="none" stroke="#000000" points="491.5,-206.2 491.5,-225.2 536.5,-225.2 536.5,-206.2 491.5,-206.2"/>
<text text-anchor="start" x="527.3862" y="-212.3" font-family="Helvetica,sans-Serif" font-size="11.00" fill="#000000"> &#160;</text>
</a>
</g>
</g>
<!-- R_REGISTER_DUPLICATE_GROUP -->
<g id="node2" class="node">
<title>R_REGISTER_DUPLICATE_GROUP</title>
<g id="a_node2"><a xlink:href="../../tables/R_REGISTER_DUPLICATE_GROUP.html" xlink:title="R_REGISTER_DUPLICATE_GROUP" target="_top">
<polygon fill="#ffffff" stroke="transparent" points="8,-38.2 8,-282.2 280,-282.2 280,-38.2 8,-38.2"/>
<polygon fill="#f5f5f5" stroke="transparent" points="10,-257.2 10,-280.2 278,-280.2 278,-257.2 10,-257.2"/>
<polygon fill="none" stroke="#000000" points="10,-257.2 10,-280.2 278,-280.2 278,-257.2 10,-257.2"/>
<text text-anchor="start" x="15" y="-266.3" font-family="Helvetica,sans-Serif" font-weight="bold" font-size="11.00" fill="#000000">R_REGISTER_DUPLICATE_GROUP</text>
<text text-anchor="start" x="243.0437" y="-265.3" font-family="Helvetica,sans-Serif" font-size="11.00" fill="#000000">[table]</text>
<polygon fill="none" stroke="#000000" points="10,-235.2 10,-257.2 205,-257.2 205,-235.2 10,-235.2"/>
<image xlink:href="../../images/primaryKeys.png" width="11px" height="12px" preserveAspectRatio="xMinYMin meet" x="15" y="-252.2"/>
<text text-anchor="start" x="30" y="-242.3" font-family="Helvetica,sans-Serif" font-size="11.00" fill="#000000">REGISTER_GROUP_ID</text>
<polygon fill="none" stroke="#000000" points="205,-235.2 205,-257.2 278,-257.2 278,-235.2 205,-235.2"/>
<text text-anchor="start" x="208" y="-242.9" font-family="Helvetica,sans-Serif" font-size="11.00" fill="#000000">number[22]</text>
<polygon fill="none" stroke="#000000" points="10,-213.2 10,-235.2 205,-235.2 205,-213.2 10,-213.2"/>
<text text-anchor="start" x="30" y="-220.3" font-family="Helvetica,sans-Serif" font-size="11.00" fill="#000000">CODE</text>
<polygon fill="none" stroke="#000000" points="205,-213.2 205,-235.2 278,-235.2 278,-213.2 205,-213.2"/>
<text text-anchor="start" x="208" y="-220.9" font-family="Helvetica,sans-Serif" font-size="11.00" fill="#000000">varchar2[20]</text>
<polygon fill="none" stroke="#000000" points="10,-191.2 10,-213.2 205,-213.2 205,-191.2 10,-191.2"/>
<text text-anchor="start" x="30" y="-198.3" font-family="Helvetica,sans-Serif" font-size="11.00" fill="#000000">DESCRIPTION</text>
<polygon fill="none" stroke="#000000" points="205,-191.2 205,-213.2 278,-213.2 278,-191.2 205,-191.2"/>
<text text-anchor="start" x="207.8791" y="-198.9" font-family="Helvetica,sans-Serif" font-size="11.00" fill="#000000">varchar2[200]</text>
<polygon fill="none" stroke="#000000" points="10,-169.2 10,-191.2 205,-191.2 205,-169.2 10,-169.2"/>
<text text-anchor="start" x="30" y="-176.3" font-family="Helvetica,sans-Serif" font-size="11.00" fill="#000000">SELECTABLE</text>
<polygon fill="none" stroke="#000000" points="205,-169.2 205,-191.2 278,-191.2 278,-169.2 205,-169.2"/>
<text text-anchor="start" x="208" y="-176.9" font-family="Helvetica,sans-Serif" font-size="11.00" fill="#000000">char[1]</text>
<polygon fill="none" stroke="#000000" points="10,-147.2 10,-169.2 205,-169.2 205,-147.2 10,-147.2"/>
<text text-anchor="start" x="30" y="-154.3" font-family="Helvetica,sans-Serif" font-size="11.00" fill="#000000">ROW_VERSION</text>
<polygon fill="none" stroke="#000000" points="205,-147.2 205,-169.2 278,-169.2 278,-147.2 205,-147.2"/>
<text text-anchor="start" x="208" y="-154.9" font-family="Helvetica,sans-Serif" font-size="11.00" fill="#000000">number[22]</text>
<polygon fill="none" stroke="#000000" points="10,-125.2 10,-147.2 205,-147.2 205,-125.2 10,-125.2"/>
<text text-anchor="start" x="30" y="-132.3" font-family="Helvetica,sans-Serif" font-size="11.00" fill="#000000">CREATED_BY_USER_ID</text>
<polygon fill="none" stroke="#000000" points="205,-125.2 205,-147.2 278,-147.2 278,-125.2 205,-125.2"/>
<text text-anchor="start" x="208" y="-132.9" font-family="Helvetica,sans-Serif" font-size="11.00" fill="#000000">number[22]</text>
<polygon fill="none" stroke="#000000" points="10,-103.2 10,-125.2 205,-125.2 205,-103.2 10,-103.2"/>
<text text-anchor="start" x="30" y="-110.3" font-family="Helvetica,sans-Serif" font-size="11.00" fill="#000000">CREATED_DATETIME</text>
<polygon fill="none" stroke="#000000" points="205,-103.2 205,-125.2 278,-125.2 278,-103.2 205,-103.2"/>
<text text-anchor="start" x="208" y="-110.9" font-family="Helvetica,sans-Serif" font-size="11.00" fill="#000000">date[7]</text>
<polygon fill="none" stroke="#000000" points="10,-81.2 10,-103.2 205,-103.2 205,-81.2 10,-81.2"/>
<text text-anchor="start" x="30" y="-88.3" font-family="Helvetica,sans-Serif" font-size="11.00" fill="#000000">LAST_UPDATED_USER_ID</text>
<polygon fill="none" stroke="#000000" points="205,-81.2 205,-103.2 278,-103.2 278,-81.2 205,-81.2"/>
<text text-anchor="start" x="208" y="-88.9" font-family="Helvetica,sans-Serif" font-size="11.00" fill="#000000">number[22]</text>
<polygon fill="none" stroke="#000000" points="10,-59.2 10,-81.2 205,-81.2 205,-59.2 10,-59.2"/>
<text text-anchor="start" x="30" y="-66.3" font-family="Helvetica,sans-Serif" font-size="11.00" fill="#000000">LAST_UPDATED_DATETIME</text>
<polygon fill="none" stroke="#000000" points="205,-59.2 205,-81.2 278,-81.2 278,-59.2 205,-59.2"/>
<text text-anchor="start" x="208" y="-66.9" font-family="Helvetica,sans-Serif" font-size="11.00" fill="#000000">date[7]</text>
<polygon fill="#ffffff" stroke="transparent" points="10,-40.2 10,-59.2 96,-59.2 96,-40.2 10,-40.2"/>
<polygon fill="none" stroke="#000000" points="10,-40.2 10,-59.2 96,-59.2 96,-40.2 10,-40.2"/>
<text text-anchor="start" x="13" y="-46.3" font-family="Helvetica,sans-Serif" font-size="11.00" fill="#000000">&lt; 0</text>
<polygon fill="#ffffff" stroke="transparent" points="96,-40.2 96,-59.2 205,-59.2 205,-40.2 96,-40.2"/>
<polygon fill="none" stroke="#000000" points="96,-40.2 96,-59.2 205,-59.2 205,-40.2 96,-40.2"/>
<text text-anchor="start" x="163.4956" y="-46.3" font-family="Helvetica,sans-Serif" font-size="11.00" fill="#000000">20 rows</text>
<polygon fill="#ffffff" stroke="transparent" points="205,-40.2 205,-59.2 278,-59.2 278,-40.2 205,-40.2"/>
<polygon fill="none" stroke="#000000" points="205,-40.2 205,-59.2 278,-59.2 278,-40.2 205,-40.2"/>
<text text-anchor="start" x="259.4053" y="-46.3" font-family="Helvetica,sans-Serif" font-size="11.00" fill="#000000">1 &gt;</text>
<polygon fill="none" stroke="#000000" stroke-width="2" points="9,-39.2 9,-281.2 279,-281.2 279,-39.2 9,-39.2"/>
</a>
</g>
</g>
<!-- R_REGISTER_TYPE_DUP_GRP&#45;&gt;R_REGISTER_DUPLICATE_GROUP -->
<g id="edge1" class="edge">
<title>R_REGISTER_TYPE_DUP_GRP:w&#45;&gt;R_REGISTER_DUPLICATE_GROUP:e</title>
<path fill="none" stroke="#000000" d="M315.4805,-273.3988C302.2585,-265.1209 298.8716,-246.2 278,-246.2"/>
<polygon fill="#000000" stroke="#000000" points="321.7788,-275.1064 328.5579,-280.6745 325.6394,-276.1532 329.5,-277.2 329.5,-277.2 329.5,-277.2 325.6394,-276.1532 330.4421,-273.7255 321.7788,-275.1064 321.7788,-275.1064"/>
<ellipse fill="none" stroke="#000000" cx="318.6903" cy="-274.269" rx="3.2" ry="3.2"/>
</g>
<!-- R_REGISTER_TYPE -->
<g id="node3" class="node">
<title>R_REGISTER_TYPE</title>
<g id="a_node3"><a xlink:href="../../tables/R_REGISTER_TYPE.html" xlink:title="R_REGISTER_TYPE" target="_top">
<polygon fill="#ffffff" stroke="transparent" points="70,-303.7 70,-364.7 218,-364.7 218,-303.7 70,-303.7"/>
<polygon fill="#f5f5f5" stroke="transparent" points="70,-341.2 70,-364.2 218,-364.2 218,-341.2 70,-341.2"/>
<polygon fill="none" stroke="#000000" points="70,-341.2 70,-364.2 218,-364.2 218,-341.2 70,-341.2"/>
<text text-anchor="start" x="74.9393" y="-350.3" font-family="Helvetica,sans-Serif" font-weight="bold" font-size="11.00" fill="#000000">R_REGISTER_TYPE</text>
<text text-anchor="start" x="183.5219" y="-349.3" font-family="Helvetica,sans-Serif" font-size="11.00" fill="#000000">[table]</text>
<polygon fill="none" stroke="#000000" points="70,-322.2 70,-341.2 218,-341.2 218,-322.2 70,-322.2"/>
<text text-anchor="start" x="73" y="-328.3" font-family="Helvetica,sans-Serif" font-size="11.00" fill="#000000">...</text>
<polygon fill="#ffffff" stroke="transparent" points="70,-303.2 70,-322.2 119,-322.2 119,-303.2 70,-303.2"/>
<polygon fill="none" stroke="#000000" points="70,-303.2 70,-322.2 119,-322.2 119,-303.2 70,-303.2"/>
<text text-anchor="start" x="73" y="-309.3" font-family="Helvetica,sans-Serif" font-size="11.00" fill="#000000">&lt; 6</text>
<polygon fill="#ffffff" stroke="transparent" points="119,-303.2 119,-322.2 183,-322.2 183,-303.2 119,-303.2"/>
<polygon fill="none" stroke="#000000" points="119,-303.2 119,-322.2 183,-322.2 183,-303.2 119,-303.2"/>
<text text-anchor="start" x="135.3807" y="-309.3" font-family="Helvetica,sans-Serif" font-size="11.00" fill="#000000">180 rows</text>
<polygon fill="#ffffff" stroke="transparent" points="183,-303.2 183,-322.2 218,-322.2 218,-303.2 183,-303.2"/>
<polygon fill="none" stroke="#000000" points="183,-303.2 183,-322.2 218,-322.2 218,-303.2 183,-303.2"/>
<text text-anchor="start" x="199.4053" y="-309.3" font-family="Helvetica,sans-Serif" font-size="11.00" fill="#000000">6 &gt;</text>
</a>
</g>
</g>
<!-- R_REGISTER_TYPE_DUP_GRP&#45;&gt;R_REGISTER_TYPE -->
<g id="edge2" class="edge">
<title>R_REGISTER_TYPE_DUP_GRP:w&#45;&gt;R_REGISTER_TYPE:e</title>
<path fill="none" stroke="#000000" d="M315.0369,-300.1232C275.7949,-305.3699 264.3199,-331.2 218,-331.2"/>
<polygon fill="#000000" stroke="#000000" points="321.5162,-299.7097 329.7293,-302.7927 325.5081,-299.4548 329.5,-299.2 329.5,-299.2 329.5,-299.2 325.5081,-299.4548 329.2707,-295.6073 321.5162,-299.7097 321.5162,-299.7097"/>
<ellipse fill="none" stroke="#000000" cx="318.3227" cy="-299.9135" rx="3.2" ry="3.2"/>
</g>
</g>
</svg>
