<?xml version="1.0" encoding="UTF-8" standalone="no"?>
<!DOCTYPE svg PUBLIC "-//W3C//DTD SVG 1.1//EN"
 "http://www.w3.org/Graphics/SVG/1.1/DTD/svg11.dtd">
<!-- Generated by graphviz version 2.40.1 (20161225.0304)
 -->
<!-- Title: oneDegreeRelationshipsDiagram Pages: 1 -->
<svg width="812pt" height="573pt"
 viewBox="0.00 0.00 812.00 573.20" xmlns="http://www.w3.org/2000/svg" xmlns:xlink="http://www.w3.org/1999/xlink">
<g id="graph0" class="graph" transform="scale(1 1) rotate(0) translate(4 569.2)">
<title>oneDegreeRelationshipsDiagram</title>
<polygon fill="#ffffff" stroke="transparent" points="-4,4 -4,-569.2 808,-569.2 808,4 -4,4"/>
<text text-anchor="middle" x="72.4936" y="-7.3" font-family="Helvetica,sans-Serif" font-size="11.00" fill="#000000">Generated by SchemaSpy</text>
<!-- R_RECALL_REASON -->
<g id="node1" class="node">
<title>R_RECALL_REASON</title>
<g id="a_node1"><a xlink:href="../../tables/R_RECALL_REASON.html" xlink:title="R_RECALL_REASON" target="_top">
<polygon fill="#ffffff" stroke="transparent" points="277,-120.7 277,-430.7 537,-430.7 537,-120.7 277,-120.7"/>
<polygon fill="#f5f5f5" stroke="transparent" points="279,-405.7 279,-428.7 535,-428.7 535,-405.7 279,-405.7"/>
<polygon fill="none" stroke="#000000" points="279,-405.7 279,-428.7 535,-428.7 535,-405.7 279,-405.7"/>
<text text-anchor="start" x="284" y="-414.8" font-family="Helvetica,sans-Serif" font-weight="bold" font-size="11.00" fill="#000000">R_RECALL_REASON</text>
<text text-anchor="start" x="500.0437" y="-413.8" font-family="Helvetica,sans-Serif" font-size="11.00" fill="#000000">[table]</text>
<polygon fill="none" stroke="#000000" points="279,-383.7 279,-405.7 468,-405.7 468,-383.7 279,-383.7"/>
<image xlink:href="../../images/primaryKeys.png" width="11px" height="12px" preserveAspectRatio="xMinYMin meet" x="284" y="-400.7"/>
<text text-anchor="start" x="299" y="-390.8" font-family="Helvetica,sans-Serif" font-size="11.00" fill="#000000">RECALL_REASON_ID</text>
<polygon fill="none" stroke="#000000" points="468,-383.7 468,-405.7 535,-405.7 535,-383.7 468,-383.7"/>
<text text-anchor="start" x="471" y="-391.4" font-family="Helvetica,sans-Serif" font-size="11.00" fill="#000000">number[38]</text>
<polygon fill="none" stroke="#000000" points="279,-361.7 279,-383.7 468,-383.7 468,-361.7 279,-361.7"/>
<image xlink:href="../../images/primaryKeys.png" width="11px" height="12px" preserveAspectRatio="xMinYMin meet" x="284" y="-378.7"/>
<text text-anchor="start" x="299" y="-368.8" font-family="Helvetica,sans-Serif" font-size="11.00" fill="#000000">CODE</text>
<polygon fill="none" stroke="#000000" points="468,-361.7 468,-383.7 535,-383.7 535,-361.7 468,-361.7"/>
<text text-anchor="start" x="470.9365" y="-369.4" font-family="Helvetica,sans-Serif" font-size="11.00" fill="#000000">varchar2[10]</text>
<polygon fill="none" stroke="#000000" points="279,-339.7 279,-361.7 468,-361.7 468,-339.7 279,-339.7"/>
<text text-anchor="start" x="299" y="-346.8" font-family="Helvetica,sans-Serif" font-size="11.00" fill="#000000">DESCRIPTION</text>
<polygon fill="none" stroke="#000000" points="468,-339.7 468,-361.7 535,-361.7 535,-339.7 468,-339.7"/>
<text text-anchor="start" x="470.9365" y="-347.4" font-family="Helvetica,sans-Serif" font-size="11.00" fill="#000000">varchar2[50]</text>
<polygon fill="none" stroke="#000000" points="279,-317.7 279,-339.7 468,-339.7 468,-317.7 279,-317.7"/>
<text text-anchor="start" x="299" y="-324.8" font-family="Helvetica,sans-Serif" font-size="11.00" fill="#000000">SELECTABLE</text>
<polygon fill="none" stroke="#000000" points="468,-317.7 468,-339.7 535,-339.7 535,-317.7 468,-317.7"/>
<text text-anchor="start" x="471" y="-325.4" font-family="Helvetica,sans-Serif" font-size="11.00" fill="#000000">char[1]</text>
<polygon fill="none" stroke="#000000" points="279,-295.7 279,-317.7 468,-317.7 468,-295.7 279,-295.7"/>
<text text-anchor="start" x="292.6948" y="-302.8" font-family="Helvetica,sans-Serif" font-size="11.00" fill="#000000">TERMINATION_REASON_OPTION</text>
<polygon fill="none" stroke="#000000" points="468,-295.7 468,-317.7 535,-317.7 535,-295.7 468,-295.7"/>
<text text-anchor="start" x="471" y="-303.4" font-family="Helvetica,sans-Serif" font-size="11.00" fill="#000000">char[1]</text>
<polygon fill="none" stroke="#000000" points="279,-273.7 279,-295.7 468,-295.7 468,-273.7 279,-273.7"/>
<text text-anchor="start" x="299" y="-280.8" font-family="Helvetica,sans-Serif" font-size="11.00" fill="#000000">ROW_VERSION</text>
<polygon fill="none" stroke="#000000" points="468,-273.7 468,-295.7 535,-295.7 535,-273.7 468,-273.7"/>
<text text-anchor="start" x="471" y="-281.4" font-family="Helvetica,sans-Serif" font-size="11.00" fill="#000000">number[38]</text>
<polygon fill="none" stroke="#000000" points="279,-251.7 279,-273.7 468,-273.7 468,-251.7 279,-251.7"/>
<text text-anchor="start" x="299" y="-258.8" font-family="Helvetica,sans-Serif" font-size="11.00" fill="#000000">CREATED_BY_USER_ID</text>
<polygon fill="none" stroke="#000000" points="468,-251.7 468,-273.7 535,-273.7 535,-251.7 468,-251.7"/>
<text text-anchor="start" x="471" y="-259.4" font-family="Helvetica,sans-Serif" font-size="11.00" fill="#000000">number[38]</text>
<polygon fill="none" stroke="#000000" points="279,-229.7 279,-251.7 468,-251.7 468,-229.7 279,-229.7"/>
<image xlink:href="../../images/primaryKeys.png" width="11px" height="12px" preserveAspectRatio="xMinYMin meet" x="284" y="-246.7"/>
<text text-anchor="start" x="299" y="-236.8" font-family="Helvetica,sans-Serif" font-size="11.00" fill="#000000">TRAINING_SESSION_ID</text>
<polygon fill="none" stroke="#000000" points="468,-229.7 468,-251.7 535,-251.7 535,-229.7 468,-229.7"/>
<text text-anchor="start" x="471" y="-237.4" font-family="Helvetica,sans-Serif" font-size="11.00" fill="#000000">number[38]</text>
<polygon fill="none" stroke="#000000" points="279,-207.7 279,-229.7 468,-229.7 468,-207.7 279,-207.7"/>
<text text-anchor="start" x="299" y="-214.8" font-family="Helvetica,sans-Serif" font-size="11.00" fill="#000000">LAST_UPDATED_USER_ID</text>
<polygon fill="none" stroke="#000000" points="468,-207.7 468,-229.7 535,-229.7 535,-207.7 468,-207.7"/>
<text text-anchor="start" x="471" y="-215.4" font-family="Helvetica,sans-Serif" font-size="11.00" fill="#000000">number[38]</text>
<polygon fill="none" stroke="#000000" points="279,-185.7 279,-207.7 468,-207.7 468,-185.7 279,-185.7"/>
<text text-anchor="start" x="299" y="-192.8" font-family="Helvetica,sans-Serif" font-size="11.00" fill="#000000">CREATED_DATETIME</text>
<polygon fill="none" stroke="#000000" points="468,-185.7 468,-207.7 535,-207.7 535,-185.7 468,-185.7"/>
<text text-anchor="start" x="471" y="-193.4" font-family="Helvetica,sans-Serif" font-size="11.00" fill="#000000">date[7]</text>
<polygon fill="none" stroke="#000000" points="279,-163.7 279,-185.7 468,-185.7 468,-163.7 279,-163.7"/>
<text text-anchor="start" x="299" y="-170.8" font-family="Helvetica,sans-Serif" font-size="11.00" fill="#000000">LAST_UPDATED_DATETIME</text>
<polygon fill="none" stroke="#000000" points="468,-163.7 468,-185.7 535,-185.7 535,-163.7 468,-163.7"/>
<text text-anchor="start" x="471" y="-171.4" font-family="Helvetica,sans-Serif" font-size="11.00" fill="#000000">date[7]</text>
<polygon fill="none" stroke="#000000" points="279,-141.7 279,-163.7 468,-163.7 468,-141.7 279,-141.7"/>
<image xlink:href="../../images/primaryKeys.png" width="11px" height="12px" preserveAspectRatio="xMinYMin meet" x="284" y="-158.7"/>
<text text-anchor="start" x="299" y="-148.8" font-family="Helvetica,sans-Serif" font-size="11.00" fill="#000000">TERMINATION_REASON_ID</text>
<polygon fill="none" stroke="#000000" points="468,-141.7 468,-163.7 535,-163.7 535,-141.7 468,-141.7"/>
<text text-anchor="start" x="471" y="-149.4" font-family="Helvetica,sans-Serif" font-size="11.00" fill="#000000">number[38]</text>
<polygon fill="#ffffff" stroke="transparent" points="279,-122.7 279,-141.7 362,-141.7 362,-122.7 279,-122.7"/>
<polygon fill="none" stroke="#000000" points="279,-122.7 279,-141.7 362,-141.7 362,-122.7 279,-122.7"/>
<text text-anchor="start" x="282" y="-128.8" font-family="Helvetica,sans-Serif" font-size="11.00" fill="#000000">&lt; 1</text>
<polygon fill="#ffffff" stroke="transparent" points="362,-122.7 362,-141.7 468,-141.7 468,-122.7 362,-122.7"/>
<polygon fill="none" stroke="#000000" points="362,-122.7 362,-141.7 468,-141.7 468,-122.7 362,-122.7"/>
<text text-anchor="start" x="426.4956" y="-128.8" font-family="Helvetica,sans-Serif" font-size="11.00" fill="#000000">30 rows</text>
<polygon fill="#ffffff" stroke="transparent" points="468,-122.7 468,-141.7 535,-141.7 535,-122.7 468,-122.7"/>
<polygon fill="none" stroke="#000000" points="468,-122.7 468,-141.7 535,-141.7 535,-122.7 468,-122.7"/>
<text text-anchor="start" x="516.4053" y="-128.8" font-family="Helvetica,sans-Serif" font-size="11.00" fill="#000000">1 &gt;</text>
<polygon fill="none" stroke="#000000" stroke-width="2" points="278,-121.7 278,-429.7 536,-429.7 536,-121.7 278,-121.7"/>
</a>
</g>
</g>
<!-- R_STANDARD_REFERENCE_LIST -->
<g id="node2" class="node">
<title>R_STANDARD_REFERENCE_LIST</title>
<g id="a_node2"><a xlink:href="../../tables/R_STANDARD_REFERENCE_LIST.html" xlink:title="R_STANDARD_REFERENCE_LIST" target="_top">
<polygon fill="#ffffff" stroke="transparent" points="8,-38.2 8,-187.2 228,-187.2 228,-38.2 8,-38.2"/>
<polygon fill="#f5f5f5" stroke="transparent" points="8,-163.7 8,-186.7 228,-186.7 228,-163.7 8,-163.7"/>
<polygon fill="none" stroke="#000000" points="8,-163.7 8,-186.7 228,-186.7 228,-163.7 8,-163.7"/>
<text text-anchor="start" x="12.5842" y="-172.8" font-family="Helvetica,sans-Serif" font-weight="bold" font-size="11.00" fill="#000000">R_STANDARD_REFERENCE_LIST</text>
<text text-anchor="start" x="193.5219" y="-171.8" font-family="Helvetica,sans-Serif" font-size="11.00" fill="#000000">[table]</text>
<polygon fill="none" stroke="#000000" points="8,-141.7 8,-163.7 228,-163.7 228,-141.7 8,-141.7"/>
<image xlink:href="../../images/primaryKeys.png" width="11px" height="12px" preserveAspectRatio="xMinYMin meet" x="13" y="-158.7"/>
<text text-anchor="start" x="35.5558" y="-148.8" font-family="Helvetica,sans-Serif" font-size="11.00" fill="#000000">STANDARD_REFERENCE_LIST_ID</text>
<polygon fill="none" stroke="#000000" points="8,-119.7 8,-141.7 228,-141.7 228,-119.7 8,-119.7"/>
<image xlink:href="../../images/primaryKeys.png" width="11px" height="12px" preserveAspectRatio="xMinYMin meet" x="13" y="-136.7"/>
<text text-anchor="start" x="42" y="-126.8" font-family="Helvetica,sans-Serif" font-size="11.00" fill="#000000">CODE_VALUE</text>
<polygon fill="none" stroke="#000000" points="8,-97.7 8,-119.7 228,-119.7 228,-97.7 8,-97.7"/>
<image xlink:href="../../images/primaryKeys.png" width="11px" height="12px" preserveAspectRatio="xMinYMin meet" x="13" y="-114.7"/>
<text text-anchor="start" x="39.8337" y="-104.8" font-family="Helvetica,sans-Serif" font-size="11.00" fill="#000000">REFERENCE_DATA_MASTER_ID</text>
<polygon fill="none" stroke="#000000" points="8,-75.7 8,-97.7 228,-97.7 228,-75.7 8,-75.7"/>
<image xlink:href="../../images/primaryKeys.png" width="11px" height="12px" preserveAspectRatio="xMinYMin meet" x="13" y="-92.7"/>
<text text-anchor="start" x="42" y="-82.8" font-family="Helvetica,sans-Serif" font-size="11.00" fill="#000000">TRAINING_SESSION_ID</text>
<polygon fill="none" stroke="#000000" points="8,-56.7 8,-75.7 228,-75.7 228,-56.7 8,-56.7"/>
<text text-anchor="start" x="11" y="-62.8" font-family="Helvetica,sans-Serif" font-size="11.00" fill="#000000">...</text>
<polygon fill="#ffffff" stroke="transparent" points="8,-37.7 8,-56.7 79,-56.7 79,-37.7 8,-37.7"/>
<polygon fill="none" stroke="#000000" points="8,-37.7 8,-56.7 79,-56.7 79,-37.7 8,-37.7"/>
<text text-anchor="start" x="11" y="-43.8" font-family="Helvetica,sans-Serif" font-size="11.00" fill="#000000">&lt; 1</text>
<polygon fill="#ffffff" stroke="transparent" points="79,-37.7 79,-56.7 169,-56.7 169,-37.7 79,-37.7"/>
<polygon fill="none" stroke="#000000" points="79,-37.7 79,-56.7 169,-56.7 169,-37.7 79,-37.7"/>
<text text-anchor="start" x="106.094" y="-43.8" font-family="Helvetica,sans-Serif" font-size="11.00" fill="#000000">15,391 rows</text>
<polygon fill="#ffffff" stroke="transparent" points="169,-37.7 169,-56.7 228,-56.7 228,-37.7 169,-37.7"/>
<polygon fill="none" stroke="#000000" points="169,-37.7 169,-56.7 228,-56.7 228,-37.7 169,-37.7"/>
<text text-anchor="start" x="197.1755" y="-43.8" font-family="Helvetica,sans-Serif" font-size="11.00" fill="#000000">296 &gt;</text>
</a>
</g>
</g>
<!-- R_RECALL_REASON&#45;&gt;R_STANDARD_REFERENCE_LIST -->
<g id="edge1" class="edge">
<title>R_RECALL_REASON:w&#45;&gt;R_STANDARD_REFERENCE_LIST:e</title>
<path fill="none" stroke="#000000" d="M264.276,-152.7C252.2815,-152.7 244.8229,-152.7 228,-152.7"/>
<polygon fill="#000000" stroke="#000000" points="271,-152.7001 279,-156.3 275,-152.7 279,-152.7 279,-152.7 279,-152.7 275,-152.7 279,-149.1 271,-152.7001 271,-152.7001"/>
<ellipse fill="none" stroke="#000000" cx="267.8" cy="-152.7001" rx="3.2" ry="3.2"/>
</g>
<!-- RECALL -->
<g id="node3" class="node">
<title>RECALL</title>
<g id="a_node3"><a xlink:href="../../tables/RECALL.html" xlink:title="RECALL" target="_top">
<polygon fill="#ffffff" stroke="transparent" points="586,-302.2 586,-561.2 796,-561.2 796,-302.2 586,-302.2"/>
<polygon fill="#f5f5f5" stroke="transparent" points="586,-537.7 586,-560.7 796,-560.7 796,-537.7 586,-537.7"/>
<polygon fill="none" stroke="#000000" points="586,-537.7 586,-560.7 796,-560.7 796,-537.7 586,-537.7"/>
<text text-anchor="start" x="591" y="-546.8" font-family="Helvetica,sans-Serif" font-weight="bold" font-size="11.00" fill="#000000">RECALL</text>
<text text-anchor="start" x="761.0437" y="-545.8" font-family="Helvetica,sans-Serif" font-size="11.00" fill="#000000">[table]</text>
<polygon fill="none" stroke="#000000" points="586,-515.7 586,-537.7 796,-537.7 796,-515.7 586,-515.7"/>
<image xlink:href="../../images/primaryKeys.png" width="11px" height="12px" preserveAspectRatio="xMinYMin meet" x="591" y="-532.7"/>
<text text-anchor="start" x="606" y="-522.8" font-family="Helvetica,sans-Serif" font-size="11.00" fill="#000000">RECALL_ID</text>
<polygon fill="none" stroke="#000000" points="586,-493.7 586,-515.7 796,-515.7 796,-493.7 586,-493.7"/>
<image xlink:href="../../images/primaryKeys.png" width="11px" height="12px" preserveAspectRatio="xMinYMin meet" x="591" y="-510.7"/>
<text text-anchor="start" x="606" y="-500.8" font-family="Helvetica,sans-Serif" font-size="11.00" fill="#000000">RECALL_DATE</text>
<polygon fill="none" stroke="#000000" points="586,-471.7 586,-493.7 796,-493.7 796,-471.7 586,-471.7"/>
<image xlink:href="../../images/primaryKeys.png" width="11px" height="12px" preserveAspectRatio="xMinYMin meet" x="591" y="-488.7"/>
<text text-anchor="start" x="606" y="-478.8" font-family="Helvetica,sans-Serif" font-size="11.00" fill="#000000">PARTITION_AREA_ID</text>
<polygon fill="none" stroke="#000000" points="586,-449.7 586,-471.7 796,-471.7 796,-449.7 586,-449.7"/>
<image xlink:href="../../images/primaryKeys.png" width="11px" height="12px" preserveAspectRatio="xMinYMin meet" x="591" y="-466.7"/>
<text text-anchor="start" x="606" y="-456.8" font-family="Helvetica,sans-Serif" font-size="11.00" fill="#000000">SOFT_DELETED</text>
<polygon fill="none" stroke="#000000" points="586,-427.7 586,-449.7 796,-449.7 796,-427.7 586,-427.7"/>
<image xlink:href="../../images/primaryKeys.png" width="11px" height="12px" preserveAspectRatio="xMinYMin meet" x="591" y="-444.7"/>
<text text-anchor="start" x="606" y="-434.8" font-family="Helvetica,sans-Serif" font-size="11.00" fill="#000000">CREATED_DATETIME</text>
<polygon fill="none" stroke="#000000" points="586,-405.7 586,-427.7 796,-427.7 796,-405.7 586,-405.7"/>
<image xlink:href="../../images/primaryKeys.png" width="11px" height="12px" preserveAspectRatio="xMinYMin meet" x="591" y="-422.7"/>
<text text-anchor="start" x="606" y="-412.8" font-family="Helvetica,sans-Serif" font-size="11.00" fill="#000000">TRAINING_SESSION_ID</text>
<polygon fill="none" stroke="#000000" points="586,-383.7 586,-405.7 796,-405.7 796,-383.7 586,-383.7"/>
<image xlink:href="../../images/primaryKeys.png" width="11px" height="12px" preserveAspectRatio="xMinYMin meet" x="591" y="-400.7"/>
<text text-anchor="start" x="606" y="-390.8" font-family="Helvetica,sans-Serif" font-size="11.00" fill="#000000">RECALL_REASON_ID</text>
<polygon fill="none" stroke="#000000" points="586,-361.7 586,-383.7 796,-383.7 796,-361.7 586,-361.7"/>
<image xlink:href="../../images/primaryKeys.png" width="11px" height="12px" preserveAspectRatio="xMinYMin meet" x="591" y="-378.7"/>
<text text-anchor="start" x="606" y="-368.8" font-family="Helvetica,sans-Serif" font-size="11.00" fill="#000000">RELEASE_ID</text>
<polygon fill="none" stroke="#000000" points="586,-339.7 586,-361.7 796,-361.7 796,-339.7 586,-339.7"/>
<image xlink:href="../../images/primaryKeys.png" width="11px" height="12px" preserveAspectRatio="xMinYMin meet" x="591" y="-356.7"/>
<text text-anchor="start" x="606" y="-346.8" font-family="Helvetica,sans-Serif" font-size="11.00" fill="#000000">OFFENDER_ID</text>
<polygon fill="none" stroke="#000000" points="586,-320.7 586,-339.7 796,-339.7 796,-320.7 586,-320.7"/>
<text text-anchor="start" x="589" y="-326.8" font-family="Helvetica,sans-Serif" font-size="11.00" fill="#000000">...</text>
<polygon fill="#ffffff" stroke="transparent" points="586,-301.7 586,-320.7 673,-320.7 673,-301.7 586,-301.7"/>
<polygon fill="none" stroke="#000000" points="586,-301.7 586,-320.7 673,-320.7 673,-301.7 586,-301.7"/>
<text text-anchor="start" x="589" y="-307.8" font-family="Helvetica,sans-Serif" font-size="11.00" fill="#000000">&lt; 4</text>
<polygon fill="#ffffff" stroke="transparent" points="673,-301.7 673,-320.7 750,-320.7 750,-301.7 673,-301.7"/>
<polygon fill="none" stroke="#000000" points="673,-301.7 673,-320.7 750,-320.7 750,-301.7 673,-301.7"/>
<text text-anchor="start" x="708.4956" y="-307.8" font-family="Helvetica,sans-Serif" font-size="11.00" fill="#000000">70 rows</text>
<polygon fill="#ffffff" stroke="transparent" points="750,-301.7 750,-320.7 796,-320.7 796,-301.7 750,-301.7"/>
<polygon fill="none" stroke="#000000" points="750,-301.7 750,-320.7 796,-320.7 796,-301.7 750,-301.7"/>
<text text-anchor="start" x="786.8862" y="-307.8" font-family="Helvetica,sans-Serif" font-size="11.00" fill="#000000"> &#160;</text>
</a>
</g>
</g>
<!-- RECALL&#45;&gt;R_RECALL_REASON -->
<g id="edge2" class="edge">
<title>RECALL:w&#45;&gt;R_RECALL_REASON:e</title>
<path fill="none" stroke="#000000" d="M571.276,-394.7C559.2815,-394.7 551.8229,-394.7 535,-394.7"/>
<polygon fill="#000000" stroke="#000000" points="578,-394.7001 586,-398.3 582,-394.7 586,-394.7 586,-394.7 586,-394.7 582,-394.7 586,-391.1 578,-394.7001 578,-394.7001"/>
<ellipse fill="none" stroke="#000000" cx="574.8" cy="-394.7001" rx="3.2" ry="3.2"/>
</g>
</g>
</svg>
