<?xml version="1.0" encoding="UTF-8" standalone="no"?>
<!DOCTYPE svg PUBLIC "-//W3C//DTD SVG 1.1//EN"
 "http://www.w3.org/Graphics/SVG/1.1/DTD/svg11.dtd">
<!-- Generated by graphviz version 2.40.1 (20161225.0304)
 -->
<!-- Title: oneDegreeRelationshipsDiagram Pages: 1 -->
<svg width="544pt" height="413pt"
 viewBox="0.00 0.00 544.00 413.20" xmlns="http://www.w3.org/2000/svg" xmlns:xlink="http://www.w3.org/1999/xlink">
<g id="graph0" class="graph" transform="scale(1 1) rotate(0) translate(4 409.2)">
<title>oneDegreeRelationshipsDiagram</title>
<polygon fill="#ffffff" stroke="transparent" points="-4,4 -4,-409.2 540,-409.2 540,4 -4,4"/>
<text text-anchor="middle" x="72.4936" y="-7.3" font-family="Helvetica,sans-Serif" font-size="11.00" fill="#000000">Generated by SchemaSpy</text>
<!-- R_REGISTER_TYPE_DUP_GRP -->
<g id="node1" class="node">
<title>R_REGISTER_TYPE_DUP_GRP</title>
<g id="a_node1"><a xlink:href="../../tables/R_REGISTER_TYPE_DUP_GRP.html" xlink:title="R_REGISTER_TYPE_DUP_GRP" target="_top">
<polygon fill="#ffffff" stroke="transparent" points="284,-139.7 284,-295.7 528,-295.7 528,-139.7 284,-139.7"/>
<polygon fill="#f5f5f5" stroke="transparent" points="286,-270.7 286,-293.7 526,-293.7 526,-270.7 286,-270.7"/>
<polygon fill="none" stroke="#000000" points="286,-270.7 286,-293.7 526,-293.7 526,-270.7 286,-270.7"/>
<text text-anchor="start" x="291" y="-279.8" font-family="Helvetica,sans-Serif" font-weight="bold" font-size="11.00" fill="#000000">R_REGISTER_TYPE_DUP_GRP</text>
<text text-anchor="start" x="491.0437" y="-278.8" font-family="Helvetica,sans-Serif" font-size="11.00" fill="#000000">[table]</text>
<polygon fill="none" stroke="#000000" points="286,-248.7 286,-270.7 465,-270.7 465,-248.7 286,-248.7"/>
<image xlink:href="../../images/primaryKeys.png" width="11px" height="12px" preserveAspectRatio="xMinYMin meet" x="291" y="-265.7"/>
<text text-anchor="start" x="299.2702" y="-255.8" font-family="Helvetica,sans-Serif" font-size="11.00" fill="#000000">REGISTER_TYPE_DUP_GRP_ID</text>
<polygon fill="none" stroke="#000000" points="465,-248.7 465,-270.7 526,-270.7 526,-248.7 465,-248.7"/>
<text text-anchor="start" x="467.6865" y="-256.4" font-family="Helvetica,sans-Serif" font-size="11.00" fill="#000000">number[38]</text>
<polygon fill="none" stroke="#000000" points="286,-226.7 286,-248.7 465,-248.7 465,-226.7 286,-226.7"/>
<image xlink:href="../../images/primaryKeys.png" width="11px" height="12px" preserveAspectRatio="xMinYMin meet" x="291" y="-243.7"/>
<text text-anchor="start" x="306" y="-233.8" font-family="Helvetica,sans-Serif" font-size="11.00" fill="#000000">REGISTER_TYPE_ID</text>
<polygon fill="none" stroke="#000000" points="465,-226.7 465,-248.7 526,-248.7 526,-226.7 465,-226.7"/>
<text text-anchor="start" x="467.6865" y="-234.4" font-family="Helvetica,sans-Serif" font-size="11.00" fill="#000000">number[38]</text>
<polygon fill="none" stroke="#000000" points="286,-204.7 286,-226.7 465,-226.7 465,-204.7 286,-204.7"/>
<image xlink:href="../../images/primaryKeys.png" width="11px" height="12px" preserveAspectRatio="xMinYMin meet" x="291" y="-221.7"/>
<text text-anchor="start" x="306" y="-211.8" font-family="Helvetica,sans-Serif" font-size="11.00" fill="#000000">REGISTER_GROUP_ID</text>
<polygon fill="none" stroke="#000000" points="465,-204.7 465,-226.7 526,-226.7 526,-204.7 465,-204.7"/>
<text text-anchor="start" x="467.6865" y="-212.4" font-family="Helvetica,sans-Serif" font-size="11.00" fill="#000000">number[38]</text>
<polygon fill="none" stroke="#000000" points="286,-182.7 286,-204.7 465,-204.7 465,-182.7 286,-182.7"/>
<text text-anchor="start" x="306" y="-189.8" font-family="Helvetica,sans-Serif" font-size="11.00" fill="#000000">ROW_VERSION</text>
<polygon fill="none" stroke="#000000" points="465,-182.7 465,-204.7 526,-204.7 526,-182.7 465,-182.7"/>
<text text-anchor="start" x="467.6865" y="-190.4" font-family="Helvetica,sans-Serif" font-size="11.00" fill="#000000">number[38]</text>
<polygon fill="none" stroke="#000000" points="286,-160.7 286,-182.7 465,-182.7 465,-160.7 286,-160.7"/>
<image xlink:href="../../images/primaryKeys.png" width="11px" height="12px" preserveAspectRatio="xMinYMin meet" x="291" y="-177.7"/>
<text text-anchor="start" x="306" y="-167.8" font-family="Helvetica,sans-Serif" font-size="11.00" fill="#000000">TRAINING_SESSION_ID</text>
<polygon fill="none" stroke="#000000" points="465,-160.7 465,-182.7 526,-182.7 526,-160.7 465,-160.7"/>
<text text-anchor="start" x="467.6865" y="-168.4" font-family="Helvetica,sans-Serif" font-size="11.00" fill="#000000">number[38]</text>
<polygon fill="#ffffff" stroke="transparent" points="286,-141.7 286,-160.7 364,-160.7 364,-141.7 286,-141.7"/>
<polygon fill="none" stroke="#000000" points="286,-141.7 286,-160.7 364,-160.7 364,-141.7 286,-141.7"/>
<text text-anchor="start" x="289" y="-147.8" font-family="Helvetica,sans-Serif" font-size="11.00" fill="#000000">&lt; 2</text>
<polygon fill="#ffffff" stroke="transparent" points="364,-141.7 364,-160.7 465,-160.7 465,-141.7 364,-141.7"/>
<polygon fill="none" stroke="#000000" points="364,-141.7 364,-160.7 465,-160.7 465,-141.7 364,-141.7"/>
<text text-anchor="start" x="423.4956" y="-147.8" font-family="Helvetica,sans-Serif" font-size="11.00" fill="#000000">34 rows</text>
<polygon fill="#ffffff" stroke="transparent" points="465,-141.7 465,-160.7 526,-160.7 526,-141.7 465,-141.7"/>
<polygon fill="none" stroke="#000000" points="465,-141.7 465,-160.7 526,-160.7 526,-141.7 465,-141.7"/>
<text text-anchor="start" x="507.4053" y="-147.8" font-family="Helvetica,sans-Serif" font-size="11.00" fill="#000000">0 &gt;</text>
<polygon fill="none" stroke="#000000" stroke-width="2" points="285,-140.7 285,-294.7 527,-294.7 527,-140.7 285,-140.7"/>
</a>
</g>
</g>
<!-- R_REGISTER_DUPLICATE_GROUP -->
<g id="node2" class="node">
<title>R_REGISTER_DUPLICATE_GROUP</title>
<g id="a_node2"><a xlink:href="../../tables/R_REGISTER_DUPLICATE_GROUP.html" xlink:title="R_REGISTER_DUPLICATE_GROUP" target="_top">
<polygon fill="#ffffff" stroke="transparent" points="8,-38.2 8,-121.2 235,-121.2 235,-38.2 8,-38.2"/>
<polygon fill="#f5f5f5" stroke="transparent" points="8.5,-97.7 8.5,-120.7 235.5,-120.7 235.5,-97.7 8.5,-97.7"/>
<polygon fill="none" stroke="#000000" points="8.5,-97.7 8.5,-120.7 235.5,-120.7 235.5,-97.7 8.5,-97.7"/>
<text text-anchor="start" x="13.2188" y="-106.8" font-family="Helvetica,sans-Serif" font-weight="bold" font-size="11.00" fill="#000000">R_REGISTER_DUPLICATE_GROUP</text>
<text text-anchor="start" x="201.0219" y="-105.8" font-family="Helvetica,sans-Serif" font-size="11.00" fill="#000000">[table]</text>
<polygon fill="none" stroke="#000000" points="8.5,-75.7 8.5,-97.7 235.5,-97.7 235.5,-75.7 8.5,-75.7"/>
<image xlink:href="../../images/primaryKeys.png" width="11px" height="12px" preserveAspectRatio="xMinYMin meet" x="13.5" y="-92.7"/>
<text text-anchor="start" x="44.5" y="-82.8" font-family="Helvetica,sans-Serif" font-size="11.00" fill="#000000">REGISTER_GROUP_ID</text>
<polygon fill="none" stroke="#000000" points="8.5,-56.7 8.5,-75.7 235.5,-75.7 235.5,-56.7 8.5,-56.7"/>
<text text-anchor="start" x="11.5" y="-62.8" font-family="Helvetica,sans-Serif" font-size="11.00" fill="#000000">...</text>
<polygon fill="#ffffff" stroke="transparent" points="8.5,-37.7 8.5,-56.7 95.5,-56.7 95.5,-37.7 8.5,-37.7"/>
<polygon fill="none" stroke="#000000" points="8.5,-37.7 8.5,-56.7 95.5,-56.7 95.5,-37.7 8.5,-37.7"/>
<text text-anchor="start" x="11.5" y="-43.8" font-family="Helvetica,sans-Serif" font-size="11.00" fill="#000000"> &#160;</text>
<polygon fill="#ffffff" stroke="transparent" points="95.5,-37.7 95.5,-56.7 176.5,-56.7 176.5,-37.7 95.5,-37.7"/>
<polygon fill="none" stroke="#000000" points="95.5,-37.7 95.5,-56.7 176.5,-56.7 176.5,-37.7 95.5,-37.7"/>
<text text-anchor="start" x="134.9956" y="-43.8" font-family="Helvetica,sans-Serif" font-size="11.00" fill="#000000">20 rows</text>
<polygon fill="#ffffff" stroke="transparent" points="176.5,-37.7 176.5,-56.7 235.5,-56.7 235.5,-37.7 176.5,-37.7"/>
<polygon fill="none" stroke="#000000" points="176.5,-37.7 176.5,-56.7 235.5,-56.7 235.5,-37.7 176.5,-37.7"/>
<text text-anchor="start" x="216.9053" y="-43.8" font-family="Helvetica,sans-Serif" font-size="11.00" fill="#000000">1 &gt;</text>
</a>
</g>
</g>
<!-- R_REGISTER_TYPE_DUP_GRP&#45;&gt;R_REGISTER_DUPLICATE_GROUP -->
<g id="edge1" class="edge">
<title>R_REGISTER_TYPE_DUP_GRP:w&#45;&gt;R_REGISTER_DUPLICATE_GROUP:e</title>
<path fill="none" stroke="#000000" d="M271.5517,-212.2496C237.3376,-191.7349 291.0573,-86.7 235.5,-86.7"/>
<polygon fill="#000000" stroke="#000000" points="278.2188,-213.8417 285.1638,-219.2015 282.1094,-214.7709 286,-215.7 286,-215.7 286,-215.7 282.1094,-214.7709 286.8362,-212.1985 278.2188,-213.8417 278.2188,-213.8417"/>
<ellipse fill="none" stroke="#000000" cx="275.1063" cy="-213.0984" rx="3.2" ry="3.2"/>
</g>
<!-- R_REGISTER_TYPE -->
<g id="node3" class="node">
<title>R_REGISTER_TYPE</title>
<g id="a_node3"><a xlink:href="../../tables/R_REGISTER_TYPE.html" xlink:title="R_REGISTER_TYPE" target="_top">
<polygon fill="#ffffff" stroke="transparent" points="13,-142.2 13,-401.2 230,-401.2 230,-142.2 13,-142.2"/>
<polygon fill="#f5f5f5" stroke="transparent" points="13.5,-377.7 13.5,-400.7 230.5,-400.7 230.5,-377.7 13.5,-377.7"/>
<polygon fill="none" stroke="#000000" points="13.5,-377.7 13.5,-400.7 230.5,-400.7 230.5,-377.7 13.5,-377.7"/>
<text text-anchor="start" x="18.5" y="-386.8" font-family="Helvetica,sans-Serif" font-weight="bold" font-size="11.00" fill="#000000">R_REGISTER_TYPE</text>
<text text-anchor="start" x="195.5437" y="-385.8" font-family="Helvetica,sans-Serif" font-size="11.00" fill="#000000">[table]</text>
<polygon fill="none" stroke="#000000" points="13.5,-355.7 13.5,-377.7 230.5,-377.7 230.5,-355.7 13.5,-355.7"/>
<image xlink:href="../../images/primaryKeys.png" width="11px" height="12px" preserveAspectRatio="xMinYMin meet" x="18.5" y="-372.7"/>
<text text-anchor="start" x="33.5" y="-362.8" font-family="Helvetica,sans-Serif" font-size="11.00" fill="#000000">REGISTER_TYPE_ID</text>
<polygon fill="none" stroke="#000000" points="13.5,-333.7 13.5,-355.7 230.5,-355.7 230.5,-333.7 13.5,-333.7"/>
<image xlink:href="../../images/primaryKeys.png" width="11px" height="12px" preserveAspectRatio="xMinYMin meet" x="18.5" y="-350.7"/>
<text text-anchor="start" x="33.5" y="-340.8" font-family="Helvetica,sans-Serif" font-size="11.00" fill="#000000">CODE</text>
<polygon fill="none" stroke="#000000" points="13.5,-311.7 13.5,-333.7 230.5,-333.7 230.5,-311.7 13.5,-311.7"/>
<image xlink:href="../../images/primaryKeys.png" width="11px" height="12px" preserveAspectRatio="xMinYMin meet" x="18.5" y="-328.7"/>
<text text-anchor="start" x="33.5" y="-318.8" font-family="Helvetica,sans-Serif" font-size="11.00" fill="#000000">TRAINING_SESSION_ID</text>
<polygon fill="none" stroke="#000000" points="13.5,-289.7 13.5,-311.7 230.5,-311.7 230.5,-289.7 13.5,-289.7"/>
<image xlink:href="../../images/primaryKeys.png" width="11px" height="12px" preserveAspectRatio="xMinYMin meet" x="18.5" y="-306.7"/>
<text text-anchor="start" x="33.5" y="-296.8" font-family="Helvetica,sans-Serif" font-size="11.00" fill="#000000">REGISTER_TYPE_FLAG_ID</text>
<polygon fill="none" stroke="#000000" points="13.5,-267.7 13.5,-289.7 230.5,-289.7 230.5,-267.7 13.5,-267.7"/>
<image xlink:href="../../images/primaryKeys.png" width="11px" height="12px" preserveAspectRatio="xMinYMin meet" x="18.5" y="-284.7"/>
<text text-anchor="start" x="33.5" y="-274.8" font-family="Helvetica,sans-Serif" font-size="11.00" fill="#000000">REGISTER_TYPE_SECTOR_ID</text>
<polygon fill="none" stroke="#000000" points="13.5,-245.7 13.5,-267.7 230.5,-267.7 230.5,-245.7 13.5,-245.7"/>
<image xlink:href="../../images/primaryKeys.png" width="11px" height="12px" preserveAspectRatio="xMinYMin meet" x="18.5" y="-262.7"/>
<text text-anchor="start" x="32.6384" y="-252.8" font-family="Helvetica,sans-Serif" font-size="11.00" fill="#000000">REGISTRATION_CONTACT_TYPE_ID</text>
<polygon fill="none" stroke="#000000" points="13.5,-223.7 13.5,-245.7 230.5,-245.7 230.5,-223.7 13.5,-223.7"/>
<image xlink:href="../../images/primaryKeys.png" width="11px" height="12px" preserveAspectRatio="xMinYMin meet" x="18.5" y="-240.7"/>
<text text-anchor="start" x="25" y="-230.8" font-family="Helvetica,sans-Serif" font-size="11.00" fill="#000000">DEREGISTRATION_CONTACT_TYPE_ID</text>
<polygon fill="none" stroke="#000000" points="13.5,-201.7 13.5,-223.7 230.5,-223.7 230.5,-201.7 13.5,-201.7"/>
<image xlink:href="../../images/primaryKeys.png" width="11px" height="12px" preserveAspectRatio="xMinYMin meet" x="18.5" y="-218.7"/>
<text text-anchor="start" x="33.5" y="-208.8" font-family="Helvetica,sans-Serif" font-size="11.00" fill="#000000">REVIEW_CONTACT_TYPE_ID</text>
<polygon fill="none" stroke="#000000" points="13.5,-179.7 13.5,-201.7 230.5,-201.7 230.5,-179.7 13.5,-179.7"/>
<image xlink:href="../../images/primaryKeys.png" width="11px" height="12px" preserveAspectRatio="xMinYMin meet" x="18.5" y="-196.7"/>
<text text-anchor="start" x="33.5" y="-186.8" font-family="Helvetica,sans-Serif" font-size="11.00" fill="#000000">DELETED_CONTACT_TYPE_ID</text>
<polygon fill="none" stroke="#000000" points="13.5,-160.7 13.5,-179.7 230.5,-179.7 230.5,-160.7 13.5,-160.7"/>
<text text-anchor="start" x="16.5" y="-166.8" font-family="Helvetica,sans-Serif" font-size="11.00" fill="#000000">...</text>
<polygon fill="#ffffff" stroke="transparent" points="13.5,-141.7 13.5,-160.7 96.5,-160.7 96.5,-141.7 13.5,-141.7"/>
<polygon fill="none" stroke="#000000" points="13.5,-141.7 13.5,-160.7 96.5,-160.7 96.5,-141.7 13.5,-141.7"/>
<text text-anchor="start" x="16.5" y="-147.8" font-family="Helvetica,sans-Serif" font-size="11.00" fill="#000000">&lt; 6</text>
<polygon fill="#ffffff" stroke="transparent" points="96.5,-141.7 96.5,-160.7 177.5,-160.7 177.5,-141.7 96.5,-141.7"/>
<polygon fill="none" stroke="#000000" points="96.5,-141.7 96.5,-160.7 177.5,-160.7 177.5,-141.7 96.5,-141.7"/>
<text text-anchor="start" x="129.8807" y="-147.8" font-family="Helvetica,sans-Serif" font-size="11.00" fill="#000000">180 rows</text>
<polygon fill="#ffffff" stroke="transparent" points="177.5,-141.7 177.5,-160.7 230.5,-160.7 230.5,-141.7 177.5,-141.7"/>
<polygon fill="none" stroke="#000000" points="177.5,-141.7 177.5,-160.7 230.5,-160.7 230.5,-141.7 177.5,-141.7"/>
<text text-anchor="start" x="211.9053" y="-147.8" font-family="Helvetica,sans-Serif" font-size="11.00" fill="#000000">6 &gt;</text>
</a>
</g>
</g>
<!-- R_REGISTER_TYPE_DUP_GRP&#45;&gt;R_REGISTER_TYPE -->
<g id="edge2" class="edge">
<title>R_REGISTER_TYPE_DUP_GRP:w&#45;&gt;R_REGISTER_TYPE:e</title>
<path fill="none" stroke="#000000" d="M271.7025,-240.8888C235.4269,-260.7537 287.063,-366.7 230.5,-366.7"/>
<polygon fill="#000000" stroke="#000000" points="278.1918,-239.4415 286.7837,-241.2137 282.0959,-238.5708 286,-237.7 286,-237.7 286,-237.7 282.0959,-238.5708 285.2163,-234.1863 278.1918,-239.4415 278.1918,-239.4415"/>
<ellipse fill="none" stroke="#000000" cx="275.0686" cy="-240.1381" rx="3.2" ry="3.2"/>
</g>
</g>
</svg>
