<?xml version="1.0" encoding="UTF-8" standalone="no"?>
<!DOCTYPE svg PUBLIC "-//W3C//DTD SVG 1.1//EN"
 "http://www.w3.org/Graphics/SVG/1.1/DTD/svg11.dtd">
<!-- Generated by graphviz version 2.40.1 (20161225.0304)
 -->
<!-- Title: oneDegreeRelationshipsDiagram Pages: 1 -->
<svg width="845pt" height="300pt"
 viewBox="0.00 0.00 845.00 299.70" xmlns="http://www.w3.org/2000/svg" xmlns:xlink="http://www.w3.org/1999/xlink">
<g id="graph0" class="graph" transform="scale(1 1) rotate(0) translate(4 295.7)">
<title>oneDegreeRelationshipsDiagram</title>
<polygon fill="#ffffff" stroke="transparent" points="-4,4 -4,-295.7 841,-295.7 841,4 -4,4"/>
<text text-anchor="middle" x="72.4936" y="-7.3" font-family="Helvetica,sans-Serif" font-size="11.00" fill="#000000">Generated by SchemaSpy</text>
<!-- R_RQMNT_TYPE -->
<g id="node1" class="node">
<title>R_RQMNT_TYPE</title>
<g id="a_node1"><a xlink:href="../../tables/R_RQMNT_TYPE.html" xlink:title="R_RQMNT_TYPE" target="_top">
<polygon fill="#ffffff" stroke="transparent" points="559,-131.7 559,-287.7 829,-287.7 829,-131.7 559,-131.7"/>
<polygon fill="#f5f5f5" stroke="transparent" points="561,-262.7 561,-285.7 827,-285.7 827,-262.7 561,-262.7"/>
<polygon fill="none" stroke="#000000" points="561,-262.7 561,-285.7 827,-285.7 827,-262.7 561,-262.7"/>
<text text-anchor="start" x="566" y="-271.8" font-family="Helvetica,sans-Serif" font-weight="bold" font-size="11.00" fill="#000000">R_RQMNT_TYPE</text>
<text text-anchor="start" x="792.0437" y="-270.8" font-family="Helvetica,sans-Serif" font-size="11.00" fill="#000000">[table]</text>
<polygon fill="none" stroke="#000000" points="561,-240.7 561,-262.7 766,-262.7 766,-240.7 561,-240.7"/>
<image xlink:href="../../images/primaryKeys.png" width="11px" height="12px" preserveAspectRatio="xMinYMin meet" x="566" y="-257.7"/>
<text text-anchor="start" x="581" y="-247.8" font-family="Helvetica,sans-Serif" font-size="11.00" fill="#000000">RQMNT_TYPE_ID</text>
<polygon fill="none" stroke="#000000" points="766,-240.7 766,-262.7 827,-262.7 827,-240.7 766,-240.7"/>
<text text-anchor="start" x="768.6865" y="-248.4" font-family="Helvetica,sans-Serif" font-size="11.00" fill="#000000">number[38]</text>
<polygon fill="none" stroke="#000000" points="561,-218.7 561,-240.7 766,-240.7 766,-218.7 561,-218.7"/>
<text text-anchor="start" x="581" y="-225.8" font-family="Helvetica,sans-Serif" font-size="11.00" fill="#000000">ROW_VERSION</text>
<polygon fill="none" stroke="#000000" points="766,-218.7 766,-240.7 827,-240.7 827,-218.7 766,-218.7"/>
<text text-anchor="start" x="768.6865" y="-226.4" font-family="Helvetica,sans-Serif" font-size="11.00" fill="#000000">number[38]</text>
<polygon fill="none" stroke="#000000" points="561,-196.7 561,-218.7 766,-218.7 766,-196.7 561,-196.7"/>
<image xlink:href="../../images/primaryKeys.png" width="11px" height="12px" preserveAspectRatio="xMinYMin meet" x="566" y="-213.7"/>
<text text-anchor="start" x="576.5793" y="-203.8" font-family="Helvetica,sans-Serif" font-size="11.00" fill="#000000">RQMNT_TYPE_SUB_CATEGORY_ID</text>
<polygon fill="none" stroke="#000000" points="766,-196.7 766,-218.7 827,-218.7 827,-196.7 766,-196.7"/>
<text text-anchor="start" x="768.6865" y="-204.4" font-family="Helvetica,sans-Serif" font-size="11.00" fill="#000000">number[38]</text>
<polygon fill="none" stroke="#000000" points="561,-174.7 561,-196.7 766,-196.7 766,-174.7 561,-174.7"/>
<image xlink:href="../../images/primaryKeys.png" width="11px" height="12px" preserveAspectRatio="xMinYMin meet" x="566" y="-191.7"/>
<text text-anchor="start" x="581" y="-181.8" font-family="Helvetica,sans-Serif" font-size="11.00" fill="#000000">TRAINING_SESSION_ID</text>
<polygon fill="none" stroke="#000000" points="766,-174.7 766,-196.7 827,-196.7 827,-174.7 766,-174.7"/>
<text text-anchor="start" x="768.6865" y="-182.4" font-family="Helvetica,sans-Serif" font-size="11.00" fill="#000000">number[38]</text>
<polygon fill="none" stroke="#000000" points="561,-152.7 561,-174.7 766,-174.7 766,-152.7 561,-152.7"/>
<image xlink:href="../../images/primaryKeys.png" width="11px" height="12px" preserveAspectRatio="xMinYMin meet" x="566" y="-169.7"/>
<text text-anchor="start" x="574.1379" y="-159.8" font-family="Helvetica,sans-Serif" font-size="11.00" fill="#000000">RQMNT_TYPE_MAIN_CATEGORY_ID</text>
<polygon fill="none" stroke="#000000" points="766,-152.7 766,-174.7 827,-174.7 827,-152.7 766,-152.7"/>
<text text-anchor="start" x="768.6865" y="-160.4" font-family="Helvetica,sans-Serif" font-size="11.00" fill="#000000">number[38]</text>
<polygon fill="#ffffff" stroke="transparent" points="561,-133.7 561,-152.7 649,-152.7 649,-133.7 561,-133.7"/>
<polygon fill="none" stroke="#000000" points="561,-133.7 561,-152.7 649,-152.7 649,-133.7 561,-133.7"/>
<text text-anchor="start" x="564" y="-139.8" font-family="Helvetica,sans-Serif" font-size="11.00" fill="#000000">&lt; 2</text>
<polygon fill="#ffffff" stroke="transparent" points="649,-133.7 649,-152.7 766,-152.7 766,-133.7 649,-133.7"/>
<polygon fill="none" stroke="#000000" points="649,-133.7 649,-152.7 766,-152.7 766,-133.7 649,-133.7"/>
<text text-anchor="start" x="718.3807" y="-139.8" font-family="Helvetica,sans-Serif" font-size="11.00" fill="#000000">538 rows</text>
<polygon fill="#ffffff" stroke="transparent" points="766,-133.7 766,-152.7 827,-152.7 827,-133.7 766,-133.7"/>
<polygon fill="none" stroke="#000000" points="766,-133.7 766,-152.7 827,-152.7 827,-133.7 766,-133.7"/>
<text text-anchor="start" x="808.4053" y="-139.8" font-family="Helvetica,sans-Serif" font-size="11.00" fill="#000000">0 &gt;</text>
<polygon fill="none" stroke="#000000" stroke-width="2" points="560,-132.7 560,-286.7 828,-286.7 828,-132.7 560,-132.7"/>
</a>
</g>
</g>
<!-- R_RQMNT_TYPE_MAIN_CATEGORY -->
<g id="node2" class="node">
<title>R_RQMNT_TYPE_MAIN_CATEGORY</title>
<g id="a_node2"><a xlink:href="../../tables/R_RQMNT_TYPE_MAIN_CATEGORY.html" xlink:title="R_RQMNT_TYPE_MAIN_CATEGORY" target="_top">
<polygon fill="#ffffff" stroke="transparent" points="277,-42.2 277,-191.2 510,-191.2 510,-42.2 277,-42.2"/>
<polygon fill="#f5f5f5" stroke="transparent" points="277.5,-167.7 277.5,-190.7 510.5,-190.7 510.5,-167.7 277.5,-167.7"/>
<polygon fill="none" stroke="#000000" points="277.5,-167.7 277.5,-190.7 510.5,-190.7 510.5,-167.7 277.5,-167.7"/>
<text text-anchor="start" x="282.1663" y="-176.8" font-family="Helvetica,sans-Serif" font-weight="bold" font-size="11.00" fill="#000000">R_RQMNT_TYPE_MAIN_CATEGORY</text>
<text text-anchor="start" x="476.0219" y="-175.8" font-family="Helvetica,sans-Serif" font-size="11.00" fill="#000000">[table]</text>
<polygon fill="none" stroke="#000000" points="277.5,-145.7 277.5,-167.7 510.5,-167.7 510.5,-145.7 277.5,-145.7"/>
<image xlink:href="../../images/primaryKeys.png" width="11px" height="12px" preserveAspectRatio="xMinYMin meet" x="282.5" y="-162.7"/>
<text text-anchor="start" x="304.6379" y="-152.8" font-family="Helvetica,sans-Serif" font-size="11.00" fill="#000000">RQMNT_TYPE_MAIN_CATEGORY_ID</text>
<polygon fill="none" stroke="#000000" points="277.5,-123.7 277.5,-145.7 510.5,-145.7 510.5,-123.7 277.5,-123.7"/>
<image xlink:href="../../images/primaryKeys.png" width="11px" height="12px" preserveAspectRatio="xMinYMin meet" x="282.5" y="-140.7"/>
<text text-anchor="start" x="311.5" y="-130.8" font-family="Helvetica,sans-Serif" font-size="11.00" fill="#000000">CODE</text>
<polygon fill="none" stroke="#000000" points="277.5,-101.7 277.5,-123.7 510.5,-123.7 510.5,-101.7 277.5,-101.7"/>
<image xlink:href="../../images/primaryKeys.png" width="11px" height="12px" preserveAspectRatio="xMinYMin meet" x="282.5" y="-118.7"/>
<text text-anchor="start" x="311.5" y="-108.8" font-family="Helvetica,sans-Serif" font-size="11.00" fill="#000000">TRAINING_SESSION_ID</text>
<polygon fill="none" stroke="#000000" points="277.5,-79.7 277.5,-101.7 510.5,-101.7 510.5,-79.7 277.5,-79.7"/>
<image xlink:href="../../images/primaryKeys.png" width="11px" height="12px" preserveAspectRatio="xMinYMin meet" x="282.5" y="-96.7"/>
<text text-anchor="start" x="311.5" y="-86.8" font-family="Helvetica,sans-Serif" font-size="11.00" fill="#000000">UNITS_ID</text>
<polygon fill="none" stroke="#000000" points="277.5,-60.7 277.5,-79.7 510.5,-79.7 510.5,-60.7 277.5,-60.7"/>
<text text-anchor="start" x="280.5" y="-66.8" font-family="Helvetica,sans-Serif" font-size="11.00" fill="#000000">...</text>
<polygon fill="#ffffff" stroke="transparent" points="277.5,-41.7 277.5,-60.7 365.5,-60.7 365.5,-41.7 277.5,-41.7"/>
<polygon fill="none" stroke="#000000" points="277.5,-41.7 277.5,-60.7 365.5,-60.7 365.5,-41.7 277.5,-41.7"/>
<text text-anchor="start" x="280.5" y="-47.8" font-family="Helvetica,sans-Serif" font-size="11.00" fill="#000000">&lt; 1</text>
<polygon fill="#ffffff" stroke="transparent" points="365.5,-41.7 365.5,-60.7 449.5,-60.7 449.5,-41.7 365.5,-41.7"/>
<polygon fill="none" stroke="#000000" points="365.5,-41.7 365.5,-60.7 449.5,-60.7 449.5,-41.7 365.5,-41.7"/>
<text text-anchor="start" x="401.8807" y="-47.8" font-family="Helvetica,sans-Serif" font-size="11.00" fill="#000000">548 rows</text>
<polygon fill="#ffffff" stroke="transparent" points="449.5,-41.7 449.5,-60.7 510.5,-60.7 510.5,-41.7 449.5,-41.7"/>
<polygon fill="none" stroke="#000000" points="449.5,-41.7 449.5,-60.7 510.5,-60.7 510.5,-41.7 449.5,-41.7"/>
<text text-anchor="start" x="485.7904" y="-47.8" font-family="Helvetica,sans-Serif" font-size="11.00" fill="#000000">10 &gt;</text>
</a>
</g>
</g>
<!-- R_RQMNT_TYPE&#45;&gt;R_RQMNT_TYPE_MAIN_CATEGORY -->
<g id="edge1" class="edge">
<title>R_RQMNT_TYPE:w&#45;&gt;R_RQMNT_TYPE_MAIN_CATEGORY:e</title>
<path fill="none" stroke="#000000" d="M546.3606,-162.5441C534.5074,-160.5559 527.3173,-156.7 510.5,-156.7"/>
<polygon fill="#000000" stroke="#000000" points="553.0248,-163.0702 560.7166,-167.2888 557.0124,-163.3851 561,-163.7 561,-163.7 561,-163.7 557.0124,-163.3851 561.2834,-160.1112 553.0248,-163.0702 553.0248,-163.0702"/>
<ellipse fill="none" stroke="#000000" cx="549.8348" cy="-162.8183" rx="3.2" ry="3.2"/>
</g>
<!-- R_STANDARD_REFERENCE_LIST -->
<g id="node3" class="node">
<title>R_STANDARD_REFERENCE_LIST</title>
<g id="a_node3"><a xlink:href="../../tables/R_STANDARD_REFERENCE_LIST.html" xlink:title="R_STANDARD_REFERENCE_LIST" target="_top">
<polygon fill="#ffffff" stroke="transparent" points="8,-38.2 8,-187.2 228,-187.2 228,-38.2 8,-38.2"/>
<polygon fill="#f5f5f5" stroke="transparent" points="8,-163.7 8,-186.7 228,-186.7 228,-163.7 8,-163.7"/>
<polygon fill="none" stroke="#000000" points="8,-163.7 8,-186.7 228,-186.7 228,-163.7 8,-163.7"/>
<text text-anchor="start" x="12.5842" y="-172.8" font-family="Helvetica,sans-Serif" font-weight="bold" font-size="11.00" fill="#000000">R_STANDARD_REFERENCE_LIST</text>
<text text-anchor="start" x="193.5219" y="-171.8" font-family="Helvetica,sans-Serif" font-size="11.00" fill="#000000">[table]</text>
<polygon fill="none" stroke="#000000" points="8,-141.7 8,-163.7 228,-163.7 228,-141.7 8,-141.7"/>
<image xlink:href="../../images/primaryKeys.png" width="11px" height="12px" preserveAspectRatio="xMinYMin meet" x="13" y="-158.7"/>
<text text-anchor="start" x="35.5558" y="-148.8" font-family="Helvetica,sans-Serif" font-size="11.00" fill="#000000">STANDARD_REFERENCE_LIST_ID</text>
<polygon fill="none" stroke="#000000" points="8,-119.7 8,-141.7 228,-141.7 228,-119.7 8,-119.7"/>
<image xlink:href="../../images/primaryKeys.png" width="11px" height="12px" preserveAspectRatio="xMinYMin meet" x="13" y="-136.7"/>
<text text-anchor="start" x="42" y="-126.8" font-family="Helvetica,sans-Serif" font-size="11.00" fill="#000000">CODE_VALUE</text>
<polygon fill="none" stroke="#000000" points="8,-97.7 8,-119.7 228,-119.7 228,-97.7 8,-97.7"/>
<image xlink:href="../../images/primaryKeys.png" width="11px" height="12px" preserveAspectRatio="xMinYMin meet" x="13" y="-114.7"/>
<text text-anchor="start" x="39.8337" y="-104.8" font-family="Helvetica,sans-Serif" font-size="11.00" fill="#000000">REFERENCE_DATA_MASTER_ID</text>
<polygon fill="none" stroke="#000000" points="8,-75.7 8,-97.7 228,-97.7 228,-75.7 8,-75.7"/>
<image xlink:href="../../images/primaryKeys.png" width="11px" height="12px" preserveAspectRatio="xMinYMin meet" x="13" y="-92.7"/>
<text text-anchor="start" x="42" y="-82.8" font-family="Helvetica,sans-Serif" font-size="11.00" fill="#000000">TRAINING_SESSION_ID</text>
<polygon fill="none" stroke="#000000" points="8,-56.7 8,-75.7 228,-75.7 228,-56.7 8,-56.7"/>
<text text-anchor="start" x="11" y="-62.8" font-family="Helvetica,sans-Serif" font-size="11.00" fill="#000000">...</text>
<polygon fill="#ffffff" stroke="transparent" points="8,-37.7 8,-56.7 79,-56.7 79,-37.7 8,-37.7"/>
<polygon fill="none" stroke="#000000" points="8,-37.7 8,-56.7 79,-56.7 79,-37.7 8,-37.7"/>
<text text-anchor="start" x="11" y="-43.8" font-family="Helvetica,sans-Serif" font-size="11.00" fill="#000000">&lt; 1</text>
<polygon fill="#ffffff" stroke="transparent" points="79,-37.7 79,-56.7 169,-56.7 169,-37.7 79,-37.7"/>
<polygon fill="none" stroke="#000000" points="79,-37.7 79,-56.7 169,-56.7 169,-37.7 79,-37.7"/>
<text text-anchor="start" x="106.094" y="-43.8" font-family="Helvetica,sans-Serif" font-size="11.00" fill="#000000">15,391 rows</text>
<polygon fill="#ffffff" stroke="transparent" points="169,-37.7 169,-56.7 228,-56.7 228,-37.7 169,-37.7"/>
<polygon fill="none" stroke="#000000" points="169,-37.7 169,-56.7 228,-56.7 228,-37.7 169,-37.7"/>
<text text-anchor="start" x="197.1755" y="-43.8" font-family="Helvetica,sans-Serif" font-size="11.00" fill="#000000">293 &gt;</text>
</a>
</g>
</g>
<!-- R_RQMNT_TYPE&#45;&gt;R_STANDARD_REFERENCE_LIST -->
<g id="edge2" class="edge">
<title>R_RQMNT_TYPE:w&#45;&gt;R_STANDARD_REFERENCE_LIST:e</title>
<path fill="none" stroke="#000000" d="M546.5284,-207.9096C427.6506,-211.3655 381.5774,-255.7066 269,-201.7 243.3978,-189.4179 256.3958,-152.7 228,-152.7"/>
<polygon fill="#000000" stroke="#000000" points="553.0008,-207.8159 561.0522,-211.2996 557.0004,-207.7579 561,-207.7 561,-207.7 561,-207.7 557.0004,-207.7579 560.9478,-204.1004 553.0008,-207.8159 553.0008,-207.8159"/>
<ellipse fill="none" stroke="#000000" cx="549.8012" cy="-207.8623" rx="3.2" ry="3.2"/>
</g>
<!-- R_RQMNT_TYPE_MAIN_CATEGORY&#45;&gt;R_STANDARD_REFERENCE_LIST -->
<g id="edge3" class="edge">
<title>R_RQMNT_TYPE_MAIN_CATEGORY:w&#45;&gt;R_STANDARD_REFERENCE_LIST:e</title>
<path fill="none" stroke="#000000" d="M263.7351,-95.565C247.8028,-110.181 257.2002,-152.7 228,-152.7"/>
<polygon fill="#000000" stroke="#000000" points="269.9573,-93.3659 278.6997,-94.0942 273.7286,-92.033 277.5,-90.7 277.5,-90.7 277.5,-90.7 273.7286,-92.033 276.3003,-87.3058 269.9573,-93.3659 269.9573,-93.3659"/>
<ellipse fill="none" stroke="#000000" cx="266.9402" cy="-94.4323" rx="3.2" ry="3.2"/>
</g>
</g>
</svg>
