<?xml version="1.0" encoding="UTF-8" standalone="no"?>
<!DOCTYPE svg PUBLIC "-//W3C//DTD SVG 1.1//EN"
 "http://www.w3.org/Graphics/SVG/1.1/DTD/svg11.dtd">
<!-- Generated by graphviz version 2.40.1 (20161225.0304)
 -->
<!-- Title: oneDegreeRelationshipsDiagram Pages: 1 -->
<svg width="845pt" height="302pt"
 viewBox="0.00 0.00 845.00 302.20" xmlns="http://www.w3.org/2000/svg" xmlns:xlink="http://www.w3.org/1999/xlink">
<g id="graph0" class="graph" transform="scale(1 1) rotate(0) translate(4 298.2)">
<title>oneDegreeRelationshipsDiagram</title>
<polygon fill="#ffffff" stroke="transparent" points="-4,4 -4,-298.2 841,-298.2 841,4 -4,4"/>
<text text-anchor="middle" x="72.4936" y="-7.3" font-family="Helvetica,sans-Serif" font-size="11.00" fill="#000000">Generated by SchemaSpy</text>
<!-- R_RQMNT_REJECTION_REASON -->
<g id="node1" class="node">
<title>R_RQMNT_REJECTION_REASON</title>
<g id="a_node1"><a xlink:href="../../tables/R_RQMNT_REJECTION_REASON.html" xlink:title="R_RQMNT_REJECTION_REASON" target="_top">
<polygon fill="#ffffff" stroke="transparent" points="559,-120.7 559,-232.7 829,-232.7 829,-120.7 559,-120.7"/>
<polygon fill="#f5f5f5" stroke="transparent" points="561,-207.7 561,-230.7 827,-230.7 827,-207.7 561,-207.7"/>
<polygon fill="none" stroke="#000000" points="561,-207.7 561,-230.7 827,-230.7 827,-207.7 561,-207.7"/>
<text text-anchor="start" x="566" y="-216.8" font-family="Helvetica,sans-Serif" font-weight="bold" font-size="11.00" fill="#000000">R_RQMNT_REJECTION_REASON</text>
<text text-anchor="start" x="792.0437" y="-215.8" font-family="Helvetica,sans-Serif" font-size="11.00" fill="#000000">[table]</text>
<polygon fill="none" stroke="#000000" points="561,-185.7 561,-207.7 766,-207.7 766,-185.7 561,-185.7"/>
<image xlink:href="../../images/primaryKeys.png" width="11px" height="12px" preserveAspectRatio="xMinYMin meet" x="566" y="-202.7"/>
<text text-anchor="start" x="574.1379" y="-192.8" font-family="Helvetica,sans-Serif" font-size="11.00" fill="#000000">RQMNT_TYPE_MAIN_CATEGORY_ID</text>
<polygon fill="none" stroke="#000000" points="766,-185.7 766,-207.7 827,-207.7 827,-185.7 766,-185.7"/>
<text text-anchor="start" x="768.6865" y="-193.4" font-family="Helvetica,sans-Serif" font-size="11.00" fill="#000000">number[22]</text>
<polygon fill="none" stroke="#000000" points="561,-163.7 561,-185.7 766,-185.7 766,-163.7 561,-163.7"/>
<image xlink:href="../../images/primaryKeys.png" width="11px" height="12px" preserveAspectRatio="xMinYMin meet" x="566" y="-180.7"/>
<text text-anchor="start" x="581" y="-170.8" font-family="Helvetica,sans-Serif" font-size="11.00" fill="#000000">REJECTION_REASON_ID</text>
<polygon fill="none" stroke="#000000" points="766,-163.7 766,-185.7 827,-185.7 827,-163.7 766,-163.7"/>
<text text-anchor="start" x="768.6865" y="-171.4" font-family="Helvetica,sans-Serif" font-size="11.00" fill="#000000">number[22]</text>
<polygon fill="none" stroke="#000000" points="561,-141.7 561,-163.7 766,-163.7 766,-141.7 561,-141.7"/>
<text text-anchor="start" x="581" y="-148.8" font-family="Helvetica,sans-Serif" font-size="11.00" fill="#000000">ROW_VERSION</text>
<polygon fill="none" stroke="#000000" points="766,-141.7 766,-163.7 827,-163.7 827,-141.7 766,-141.7"/>
<text text-anchor="start" x="768.6865" y="-149.4" font-family="Helvetica,sans-Serif" font-size="11.00" fill="#000000">number[22]</text>
<polygon fill="#ffffff" stroke="transparent" points="561,-122.7 561,-141.7 649,-141.7 649,-122.7 561,-122.7"/>
<polygon fill="none" stroke="#000000" points="561,-122.7 561,-141.7 649,-141.7 649,-122.7 561,-122.7"/>
<text text-anchor="start" x="564" y="-128.8" font-family="Helvetica,sans-Serif" font-size="11.00" fill="#000000">&lt; 2</text>
<polygon fill="#ffffff" stroke="transparent" points="649,-122.7 649,-141.7 766,-141.7 766,-122.7 649,-122.7"/>
<polygon fill="none" stroke="#000000" points="649,-122.7 649,-141.7 766,-141.7 766,-122.7 649,-122.7"/>
<text text-anchor="start" x="718.3807" y="-128.8" font-family="Helvetica,sans-Serif" font-size="11.00" fill="#000000">124 rows</text>
<polygon fill="#ffffff" stroke="transparent" points="766,-122.7 766,-141.7 827,-141.7 827,-122.7 766,-122.7"/>
<polygon fill="none" stroke="#000000" points="766,-122.7 766,-141.7 827,-141.7 827,-122.7 766,-122.7"/>
<text text-anchor="start" x="808.4053" y="-128.8" font-family="Helvetica,sans-Serif" font-size="11.00" fill="#000000">0 &gt;</text>
<polygon fill="none" stroke="#000000" stroke-width="2" points="560,-121.7 560,-231.7 828,-231.7 828,-121.7 560,-121.7"/>
</a>
</g>
</g>
<!-- R_STANDARD_REFERENCE_LIST -->
<g id="node2" class="node">
<title>R_STANDARD_REFERENCE_LIST</title>
<g id="a_node2"><a xlink:href="../../tables/R_STANDARD_REFERENCE_LIST.html" xlink:title="R_STANDARD_REFERENCE_LIST" target="_top">
<polygon fill="#ffffff" stroke="transparent" points="8,-38.2 8,-187.2 228,-187.2 228,-38.2 8,-38.2"/>
<polygon fill="#f5f5f5" stroke="transparent" points="8,-163.7 8,-186.7 228,-186.7 228,-163.7 8,-163.7"/>
<polygon fill="none" stroke="#000000" points="8,-163.7 8,-186.7 228,-186.7 228,-163.7 8,-163.7"/>
<text text-anchor="start" x="12.5842" y="-172.8" font-family="Helvetica,sans-Serif" font-weight="bold" font-size="11.00" fill="#000000">R_STANDARD_REFERENCE_LIST</text>
<text text-anchor="start" x="193.5219" y="-171.8" font-family="Helvetica,sans-Serif" font-size="11.00" fill="#000000">[table]</text>
<polygon fill="none" stroke="#000000" points="8,-141.7 8,-163.7 228,-163.7 228,-141.7 8,-141.7"/>
<image xlink:href="../../images/primaryKeys.png" width="11px" height="12px" preserveAspectRatio="xMinYMin meet" x="13" y="-158.7"/>
<text text-anchor="start" x="35.5558" y="-148.8" font-family="Helvetica,sans-Serif" font-size="11.00" fill="#000000">STANDARD_REFERENCE_LIST_ID</text>
<polygon fill="none" stroke="#000000" points="8,-119.7 8,-141.7 228,-141.7 228,-119.7 8,-119.7"/>
<image xlink:href="../../images/primaryKeys.png" width="11px" height="12px" preserveAspectRatio="xMinYMin meet" x="13" y="-136.7"/>
<text text-anchor="start" x="42" y="-126.8" font-family="Helvetica,sans-Serif" font-size="11.00" fill="#000000">CODE_VALUE</text>
<polygon fill="none" stroke="#000000" points="8,-97.7 8,-119.7 228,-119.7 228,-97.7 8,-97.7"/>
<image xlink:href="../../images/primaryKeys.png" width="11px" height="12px" preserveAspectRatio="xMinYMin meet" x="13" y="-114.7"/>
<text text-anchor="start" x="39.8337" y="-104.8" font-family="Helvetica,sans-Serif" font-size="11.00" fill="#000000">REFERENCE_DATA_MASTER_ID</text>
<polygon fill="none" stroke="#000000" points="8,-75.7 8,-97.7 228,-97.7 228,-75.7 8,-75.7"/>
<image xlink:href="../../images/primaryKeys.png" width="11px" height="12px" preserveAspectRatio="xMinYMin meet" x="13" y="-92.7"/>
<text text-anchor="start" x="42" y="-82.8" font-family="Helvetica,sans-Serif" font-size="11.00" fill="#000000">TRAINING_SESSION_ID</text>
<polygon fill="none" stroke="#000000" points="8,-56.7 8,-75.7 228,-75.7 228,-56.7 8,-56.7"/>
<text text-anchor="start" x="11" y="-62.8" font-family="Helvetica,sans-Serif" font-size="11.00" fill="#000000">...</text>
<polygon fill="#ffffff" stroke="transparent" points="8,-37.7 8,-56.7 79,-56.7 79,-37.7 8,-37.7"/>
<polygon fill="none" stroke="#000000" points="8,-37.7 8,-56.7 79,-56.7 79,-37.7 8,-37.7"/>
<text text-anchor="start" x="11" y="-43.8" font-family="Helvetica,sans-Serif" font-size="11.00" fill="#000000">&lt; 1</text>
<polygon fill="#ffffff" stroke="transparent" points="79,-37.7 79,-56.7 169,-56.7 169,-37.7 79,-37.7"/>
<polygon fill="none" stroke="#000000" points="79,-37.7 79,-56.7 169,-56.7 169,-37.7 79,-37.7"/>
<text text-anchor="start" x="106.094" y="-43.8" font-family="Helvetica,sans-Serif" font-size="11.00" fill="#000000">15,391 rows</text>
<polygon fill="#ffffff" stroke="transparent" points="169,-37.7 169,-56.7 228,-56.7 228,-37.7 169,-37.7"/>
<polygon fill="none" stroke="#000000" points="169,-37.7 169,-56.7 228,-56.7 228,-37.7 169,-37.7"/>
<text text-anchor="start" x="197.1755" y="-43.8" font-family="Helvetica,sans-Serif" font-size="11.00" fill="#000000">297 &gt;</text>
</a>
</g>
</g>
<!-- R_RQMNT_REJECTION_REASON&#45;&gt;R_STANDARD_REFERENCE_LIST -->
<g id="edge1" class="edge">
<title>R_RQMNT_REJECTION_REASON:w&#45;&gt;R_STANDARD_REFERENCE_LIST:e</title>
<path fill="none" stroke="#000000" d="M547.2625,-170.2113C536.1981,-160.7391 537.4917,-138.9053 518,-130.7 416.0024,-87.7628 376.3284,-103.7237 269,-130.7 248.944,-135.7409 248.6798,-152.7 228,-152.7"/>
<polygon fill="#000000" stroke="#000000" points="553.3956,-172.2153 559.8819,-178.122 557.1978,-173.4576 561,-174.7 561,-174.7 561,-174.7 557.1978,-173.4576 562.1181,-171.278 553.3956,-172.2153 553.3956,-172.2153"/>
<ellipse fill="none" stroke="#000000" cx="550.3539" cy="-171.2214" rx="3.2" ry="3.2"/>
</g>
<!-- R_RQMNT_TYPE_MAIN_CATEGORY -->
<g id="node3" class="node">
<title>R_RQMNT_TYPE_MAIN_CATEGORY</title>
<g id="a_node3"><a xlink:href="../../tables/R_RQMNT_TYPE_MAIN_CATEGORY.html" xlink:title="R_RQMNT_TYPE_MAIN_CATEGORY" target="_top">
<polygon fill="#ffffff" stroke="transparent" points="277,-141.2 277,-290.2 510,-290.2 510,-141.2 277,-141.2"/>
<polygon fill="#f5f5f5" stroke="transparent" points="277.5,-266.7 277.5,-289.7 510.5,-289.7 510.5,-266.7 277.5,-266.7"/>
<polygon fill="none" stroke="#000000" points="277.5,-266.7 277.5,-289.7 510.5,-289.7 510.5,-266.7 277.5,-266.7"/>
<text text-anchor="start" x="282.1663" y="-275.8" font-family="Helvetica,sans-Serif" font-weight="bold" font-size="11.00" fill="#000000">R_RQMNT_TYPE_MAIN_CATEGORY</text>
<text text-anchor="start" x="476.0219" y="-274.8" font-family="Helvetica,sans-Serif" font-size="11.00" fill="#000000">[table]</text>
<polygon fill="none" stroke="#000000" points="277.5,-244.7 277.5,-266.7 510.5,-266.7 510.5,-244.7 277.5,-244.7"/>
<image xlink:href="../../images/primaryKeys.png" width="11px" height="12px" preserveAspectRatio="xMinYMin meet" x="282.5" y="-261.7"/>
<text text-anchor="start" x="304.6379" y="-251.8" font-family="Helvetica,sans-Serif" font-size="11.00" fill="#000000">RQMNT_TYPE_MAIN_CATEGORY_ID</text>
<polygon fill="none" stroke="#000000" points="277.5,-222.7 277.5,-244.7 510.5,-244.7 510.5,-222.7 277.5,-222.7"/>
<image xlink:href="../../images/primaryKeys.png" width="11px" height="12px" preserveAspectRatio="xMinYMin meet" x="282.5" y="-239.7"/>
<text text-anchor="start" x="311.5" y="-229.8" font-family="Helvetica,sans-Serif" font-size="11.00" fill="#000000">CODE</text>
<polygon fill="none" stroke="#000000" points="277.5,-200.7 277.5,-222.7 510.5,-222.7 510.5,-200.7 277.5,-200.7"/>
<image xlink:href="../../images/primaryKeys.png" width="11px" height="12px" preserveAspectRatio="xMinYMin meet" x="282.5" y="-217.7"/>
<text text-anchor="start" x="311.5" y="-207.8" font-family="Helvetica,sans-Serif" font-size="11.00" fill="#000000">TRAINING_SESSION_ID</text>
<polygon fill="none" stroke="#000000" points="277.5,-178.7 277.5,-200.7 510.5,-200.7 510.5,-178.7 277.5,-178.7"/>
<image xlink:href="../../images/primaryKeys.png" width="11px" height="12px" preserveAspectRatio="xMinYMin meet" x="282.5" y="-195.7"/>
<text text-anchor="start" x="311.5" y="-185.8" font-family="Helvetica,sans-Serif" font-size="11.00" fill="#000000">UNITS_ID</text>
<polygon fill="none" stroke="#000000" points="277.5,-159.7 277.5,-178.7 510.5,-178.7 510.5,-159.7 277.5,-159.7"/>
<text text-anchor="start" x="280.5" y="-165.8" font-family="Helvetica,sans-Serif" font-size="11.00" fill="#000000">...</text>
<polygon fill="#ffffff" stroke="transparent" points="277.5,-140.7 277.5,-159.7 365.5,-159.7 365.5,-140.7 277.5,-140.7"/>
<polygon fill="none" stroke="#000000" points="277.5,-140.7 277.5,-159.7 365.5,-159.7 365.5,-140.7 277.5,-140.7"/>
<text text-anchor="start" x="280.5" y="-146.8" font-family="Helvetica,sans-Serif" font-size="11.00" fill="#000000">&lt; 1</text>
<polygon fill="#ffffff" stroke="transparent" points="365.5,-140.7 365.5,-159.7 449.5,-159.7 449.5,-140.7 365.5,-140.7"/>
<polygon fill="none" stroke="#000000" points="365.5,-140.7 365.5,-159.7 449.5,-159.7 449.5,-140.7 365.5,-140.7"/>
<text text-anchor="start" x="401.8807" y="-146.8" font-family="Helvetica,sans-Serif" font-size="11.00" fill="#000000">548 rows</text>
<polygon fill="#ffffff" stroke="transparent" points="449.5,-140.7 449.5,-159.7 510.5,-159.7 510.5,-140.7 449.5,-140.7"/>
<polygon fill="none" stroke="#000000" points="449.5,-140.7 449.5,-159.7 510.5,-159.7 510.5,-140.7 449.5,-140.7"/>
<text text-anchor="start" x="485.7904" y="-146.8" font-family="Helvetica,sans-Serif" font-size="11.00" fill="#000000">10 &gt;</text>
</a>
</g>
</g>
<!-- R_RQMNT_REJECTION_REASON&#45;&gt;R_RQMNT_TYPE_MAIN_CATEGORY -->
<g id="edge2" class="edge">
<title>R_RQMNT_REJECTION_REASON:w&#45;&gt;R_RQMNT_TYPE_MAIN_CATEGORY:e</title>
<path fill="none" stroke="#000000" d="M546.9165,-201.7303C531.4311,-215.9982 538.814,-255.7 510.5,-255.7"/>
<polygon fill="#000000" stroke="#000000" points="553.4661,-199.391 562.2109,-200.0902 557.2331,-198.0455 561,-196.7 561,-196.7 561,-196.7 557.2331,-198.0455 559.7891,-193.3098 553.4661,-199.391 553.4661,-199.391"/>
<ellipse fill="none" stroke="#000000" cx="550.4526" cy="-200.4674" rx="3.2" ry="3.2"/>
</g>
<!-- R_RQMNT_TYPE_MAIN_CATEGORY&#45;&gt;R_STANDARD_REFERENCE_LIST -->
<g id="edge3" class="edge">
<title>R_RQMNT_TYPE_MAIN_CATEGORY:w&#45;&gt;R_STANDARD_REFERENCE_LIST:e</title>
<path fill="none" stroke="#000000" d="M263.5092,-185.1631C250.8361,-175.283 249.4584,-152.7 228,-152.7"/>
<polygon fill="#000000" stroke="#000000" points="269.8901,-187.2322 276.3895,-193.1244 273.6951,-188.4661 277.5,-189.7 277.5,-189.7 277.5,-189.7 273.6951,-188.4661 278.6105,-186.2756 269.8901,-187.2322 269.8901,-187.2322"/>
<ellipse fill="none" stroke="#000000" cx="266.8462" cy="-186.2451" rx="3.2" ry="3.2"/>
</g>
</g>
</svg>
