<?xml version="1.0" encoding="UTF-8" standalone="no"?>
<!DOCTYPE svg PUBLIC "-//W3C//DTD SVG 1.1//EN"
 "http://www.w3.org/Graphics/SVG/1.1/DTD/svg11.dtd">
<!-- Generated by graphviz version 2.40.1 (20161225.0304)
 -->
<!-- Title: oneDegreeRelationshipsDiagram Pages: 1 -->
<svg width="535pt" height="501pt"
 viewBox="0.00 0.00 535.00 501.20" xmlns="http://www.w3.org/2000/svg" xmlns:xlink="http://www.w3.org/1999/xlink">
<g id="graph0" class="graph" transform="scale(1 1) rotate(0) translate(4 497.2)">
<title>oneDegreeRelationshipsDiagram</title>
<polygon fill="#ffffff" stroke="transparent" points="-4,4 -4,-497.2 531,-497.2 531,4 -4,4"/>
<text text-anchor="middle" x="72.4936" y="-7.3" font-family="Helvetica,sans-Serif" font-size="11.00" fill="#000000">Generated by SchemaSpy</text>
<!-- R_SPG_XSD_PROBATION_AREA -->
<g id="node1" class="node">
<title>R_SPG_XSD_PROBATION_AREA</title>
<g id="a_node1"><a xlink:href="../../tables/R_SPG_XSD_PROBATION_AREA.html" xlink:title="R_SPG_XSD_PROBATION_AREA" target="_top">
<polygon fill="#ffffff" stroke="transparent" points="269,-337.7 269,-449.7 519,-449.7 519,-337.7 269,-337.7"/>
<polygon fill="#f5f5f5" stroke="transparent" points="271,-424.7 271,-447.7 517,-447.7 517,-424.7 271,-424.7"/>
<polygon fill="none" stroke="#000000" points="271,-424.7 271,-447.7 517,-447.7 517,-424.7 271,-424.7"/>
<text text-anchor="start" x="276" y="-433.8" font-family="Helvetica,sans-Serif" font-weight="bold" font-size="11.00" fill="#000000">R_SPG_XSD_PROBATION_AREA</text>
<text text-anchor="start" x="482.0437" y="-432.8" font-family="Helvetica,sans-Serif" font-size="11.00" fill="#000000">[table]</text>
<polygon fill="none" stroke="#000000" points="271,-402.7 271,-424.7 456,-424.7 456,-402.7 271,-402.7"/>
<image xlink:href="../../images/primaryKeys.png" width="11px" height="12px" preserveAspectRatio="xMinYMin meet" x="276" y="-419.7"/>
<text text-anchor="start" x="291" y="-409.8" font-family="Helvetica,sans-Serif" font-size="11.00" fill="#000000">SPG_XSD_ID</text>
<polygon fill="none" stroke="#000000" points="456,-402.7 456,-424.7 517,-424.7 517,-402.7 456,-402.7"/>
<text text-anchor="start" x="458.6865" y="-410.4" font-family="Helvetica,sans-Serif" font-size="11.00" fill="#000000">number[38]</text>
<polygon fill="none" stroke="#000000" points="271,-380.7 271,-402.7 456,-402.7 456,-380.7 271,-380.7"/>
<image xlink:href="../../images/primaryKeys.png" width="11px" height="12px" preserveAspectRatio="xMinYMin meet" x="276" y="-397.7"/>
<text text-anchor="start" x="291" y="-387.8" font-family="Helvetica,sans-Serif" font-size="11.00" fill="#000000">PROBATION_AREA_ID</text>
<polygon fill="none" stroke="#000000" points="456,-380.7 456,-402.7 517,-402.7 517,-380.7 456,-380.7"/>
<text text-anchor="start" x="458.6865" y="-388.4" font-family="Helvetica,sans-Serif" font-size="11.00" fill="#000000">number[38]</text>
<polygon fill="none" stroke="#000000" points="271,-358.7 271,-380.7 456,-380.7 456,-358.7 271,-358.7"/>
<text text-anchor="start" x="291" y="-365.8" font-family="Helvetica,sans-Serif" font-size="11.00" fill="#000000">ROW_VERSION</text>
<polygon fill="none" stroke="#000000" points="456,-358.7 456,-380.7 517,-380.7 517,-358.7 456,-358.7"/>
<text text-anchor="start" x="458.6865" y="-366.4" font-family="Helvetica,sans-Serif" font-size="11.00" fill="#000000">number[38]</text>
<polygon fill="#ffffff" stroke="transparent" points="271,-339.7 271,-358.7 349,-358.7 349,-339.7 271,-339.7"/>
<polygon fill="none" stroke="#000000" points="271,-339.7 271,-358.7 349,-358.7 349,-339.7 271,-339.7"/>
<text text-anchor="start" x="274" y="-345.8" font-family="Helvetica,sans-Serif" font-size="11.00" fill="#000000">&lt; 2</text>
<polygon fill="#ffffff" stroke="transparent" points="349,-339.7 349,-358.7 456,-358.7 456,-339.7 349,-339.7"/>
<polygon fill="none" stroke="#000000" points="349,-339.7 349,-358.7 456,-358.7 456,-339.7 349,-339.7"/>
<text text-anchor="start" x="408.3807" y="-345.8" font-family="Helvetica,sans-Serif" font-size="11.00" fill="#000000">215 rows</text>
<polygon fill="#ffffff" stroke="transparent" points="456,-339.7 456,-358.7 517,-358.7 517,-339.7 456,-339.7"/>
<polygon fill="none" stroke="#000000" points="456,-339.7 456,-358.7 517,-358.7 517,-339.7 456,-339.7"/>
<text text-anchor="start" x="498.4053" y="-345.8" font-family="Helvetica,sans-Serif" font-size="11.00" fill="#000000">0 &gt;</text>
<polygon fill="none" stroke="#000000" stroke-width="2" points="270,-338.7 270,-448.7 518,-448.7 518,-338.7 270,-338.7"/>
</a>
</g>
</g>
<!-- PROBATION_AREA -->
<g id="node2" class="node">
<title>PROBATION_AREA</title>
<g id="a_node2"><a xlink:href="../../tables/PROBATION_AREA.html" xlink:title="PROBATION_AREA" target="_top">
<polygon fill="#ffffff" stroke="transparent" points="8,-38.2 8,-385.2 220,-385.2 220,-38.2 8,-38.2"/>
<polygon fill="#f5f5f5" stroke="transparent" points="8,-361.7 8,-384.7 220,-384.7 220,-361.7 8,-361.7"/>
<polygon fill="none" stroke="#000000" points="8,-361.7 8,-384.7 220,-384.7 220,-361.7 8,-361.7"/>
<text text-anchor="start" x="13" y="-370.8" font-family="Helvetica,sans-Serif" font-weight="bold" font-size="11.00" fill="#000000">PROBATION_AREA</text>
<text text-anchor="start" x="185.0437" y="-369.8" font-family="Helvetica,sans-Serif" font-size="11.00" fill="#000000">[table]</text>
<polygon fill="none" stroke="#000000" points="8,-339.7 8,-361.7 220,-361.7 220,-339.7 8,-339.7"/>
<image xlink:href="../../images/primaryKeys.png" width="11px" height="12px" preserveAspectRatio="xMinYMin meet" x="13" y="-356.7"/>
<text text-anchor="start" x="28" y="-346.8" font-family="Helvetica,sans-Serif" font-size="11.00" fill="#000000">PROBATION_AREA_ID</text>
<polygon fill="none" stroke="#000000" points="8,-317.7 8,-339.7 220,-339.7 220,-317.7 8,-317.7"/>
<image xlink:href="../../images/primaryKeys.png" width="11px" height="12px" preserveAspectRatio="xMinYMin meet" x="13" y="-334.7"/>
<text text-anchor="start" x="28" y="-324.8" font-family="Helvetica,sans-Serif" font-size="11.00" fill="#000000">CODE</text>
<polygon fill="none" stroke="#000000" points="8,-295.7 8,-317.7 220,-317.7 220,-295.7 8,-295.7"/>
<image xlink:href="../../images/primaryKeys.png" width="11px" height="12px" preserveAspectRatio="xMinYMin meet" x="13" y="-312.7"/>
<text text-anchor="start" x="28" y="-302.8" font-family="Helvetica,sans-Serif" font-size="11.00" fill="#000000">FORM_20_CODE</text>
<polygon fill="none" stroke="#000000" points="8,-273.7 8,-295.7 220,-295.7 220,-273.7 8,-273.7"/>
<image xlink:href="../../images/primaryKeys.png" width="11px" height="12px" preserveAspectRatio="xMinYMin meet" x="13" y="-290.7"/>
<text text-anchor="start" x="28" y="-280.8" font-family="Helvetica,sans-Serif" font-size="11.00" fill="#000000">HO_AREA_CODE</text>
<polygon fill="none" stroke="#000000" points="8,-251.7 8,-273.7 220,-273.7 220,-251.7 8,-251.7"/>
<image xlink:href="../../images/primaryKeys.png" width="11px" height="12px" preserveAspectRatio="xMinYMin meet" x="13" y="-268.7"/>
<text text-anchor="start" x="28" y="-258.8" font-family="Helvetica,sans-Serif" font-size="11.00" fill="#000000">TRAINING_SESSION_ID</text>
<polygon fill="none" stroke="#000000" points="8,-229.7 8,-251.7 220,-251.7 220,-229.7 8,-229.7"/>
<image xlink:href="../../images/primaryKeys.png" width="11px" height="12px" preserveAspectRatio="xMinYMin meet" x="13" y="-246.7"/>
<text text-anchor="start" x="28" y="-236.8" font-family="Helvetica,sans-Serif" font-size="11.00" fill="#000000">ORGANISATION_ID</text>
<polygon fill="none" stroke="#000000" points="8,-207.7 8,-229.7 220,-229.7 220,-207.7 8,-207.7"/>
<image xlink:href="../../images/primaryKeys.png" width="11px" height="12px" preserveAspectRatio="xMinYMin meet" x="13" y="-224.7"/>
<text text-anchor="start" x="28" y="-214.8" font-family="Helvetica,sans-Serif" font-size="11.00" fill="#000000">ADDRESS_ID</text>
<polygon fill="none" stroke="#000000" points="8,-185.7 8,-207.7 220,-207.7 220,-185.7 8,-185.7"/>
<image xlink:href="../../images/primaryKeys.png" width="11px" height="12px" preserveAspectRatio="xMinYMin meet" x="13" y="-202.7"/>
<text text-anchor="start" x="28" y="-192.8" font-family="Helvetica,sans-Serif" font-size="11.00" fill="#000000">SPG_ACTIVE_ID</text>
<polygon fill="none" stroke="#000000" points="8,-163.7 8,-185.7 220,-185.7 220,-163.7 8,-163.7"/>
<image xlink:href="../../images/primaryKeys.png" width="11px" height="12px" preserveAspectRatio="xMinYMin meet" x="13" y="-180.7"/>
<text text-anchor="start" x="28" y="-170.8" font-family="Helvetica,sans-Serif" font-size="11.00" fill="#000000">INSTITUTION_ID</text>
<polygon fill="none" stroke="#000000" points="8,-141.7 8,-163.7 220,-163.7 220,-141.7 8,-141.7"/>
<image xlink:href="../../images/primaryKeys.png" width="11px" height="12px" preserveAspectRatio="xMinYMin meet" x="13" y="-158.7"/>
<text text-anchor="start" x="28" y="-148.8" font-family="Helvetica,sans-Serif" font-size="11.00" fill="#000000">ESTABLISHMENT</text>
<polygon fill="none" stroke="#000000" points="8,-119.7 8,-141.7 220,-141.7 220,-119.7 8,-119.7"/>
<image xlink:href="../../images/primaryKeys.png" width="11px" height="12px" preserveAspectRatio="xMinYMin meet" x="13" y="-136.7"/>
<text text-anchor="start" x="28" y="-126.8" font-family="Helvetica,sans-Serif" font-size="11.00" fill="#000000">DEFAULT_TRANSFER_TEAM_ID</text>
<polygon fill="none" stroke="#000000" points="8,-97.7 8,-119.7 220,-119.7 220,-97.7 8,-97.7"/>
<image xlink:href="../../images/primaryKeys.png" width="11px" height="12px" preserveAspectRatio="xMinYMin meet" x="13" y="-114.7"/>
<text text-anchor="start" x="28" y="-104.8" font-family="Helvetica,sans-Serif" font-size="11.00" fill="#000000">DEFAULT_COURT_TEAM_ID</text>
<polygon fill="none" stroke="#000000" points="8,-75.7 8,-97.7 220,-97.7 220,-75.7 8,-75.7"/>
<image xlink:href="../../images/primaryKeys.png" width="11px" height="12px" preserveAspectRatio="xMinYMin meet" x="13" y="-92.7"/>
<text text-anchor="start" x="28" y="-82.8" font-family="Helvetica,sans-Serif" font-size="11.00" fill="#000000">DEFAULT_POSTCODE_TEAM_ID</text>
<polygon fill="none" stroke="#000000" points="8,-56.7 8,-75.7 220,-75.7 220,-56.7 8,-56.7"/>
<text text-anchor="start" x="11" y="-62.8" font-family="Helvetica,sans-Serif" font-size="11.00" fill="#000000">...</text>
<polygon fill="#ffffff" stroke="transparent" points="8,-37.7 8,-56.7 86,-56.7 86,-37.7 8,-37.7"/>
<polygon fill="none" stroke="#000000" points="8,-37.7 8,-56.7 86,-56.7 86,-37.7 8,-37.7"/>
<text text-anchor="start" x="11" y="-43.8" font-family="Helvetica,sans-Serif" font-size="11.00" fill="#000000">&lt; 8</text>
<polygon fill="#ffffff" stroke="transparent" points="86,-37.7 86,-56.7 164,-56.7 164,-37.7 86,-37.7"/>
<polygon fill="none" stroke="#000000" points="86,-37.7 86,-56.7 164,-56.7 164,-37.7 86,-37.7"/>
<text text-anchor="start" x="116.3807" y="-43.8" font-family="Helvetica,sans-Serif" font-size="11.00" fill="#000000">223 rows</text>
<polygon fill="#ffffff" stroke="transparent" points="164,-37.7 164,-56.7 220,-56.7 220,-37.7 164,-37.7"/>
<polygon fill="none" stroke="#000000" points="164,-37.7 164,-56.7 220,-56.7 220,-37.7 164,-37.7"/>
<text text-anchor="start" x="195.2904" y="-43.8" font-family="Helvetica,sans-Serif" font-size="11.00" fill="#000000">69 &gt;</text>
</a>
</g>
</g>
<!-- R_SPG_XSD_PROBATION_AREA&#45;&gt;PROBATION_AREA -->
<g id="edge1" class="edge">
<title>R_SPG_XSD_PROBATION_AREA:w&#45;&gt;PROBATION_AREA:e</title>
<path fill="none" stroke="#000000" d="M257.1568,-387.3123C243.3325,-376.7354 243.1756,-350.7 220,-350.7"/>
<polygon fill="#000000" stroke="#000000" points="263.3739,-389.2828 269.9123,-395.1317 267.1869,-390.4914 271,-391.7 271,-391.7 271,-391.7 267.1869,-390.4914 272.0877,-388.2683 263.3739,-389.2828 263.3739,-389.2828"/>
<ellipse fill="none" stroke="#000000" cx="260.3235" cy="-388.3159" rx="3.2" ry="3.2"/>
</g>
<!-- SPG_XSD -->
<g id="node3" class="node">
<title>SPG_XSD</title>
<g id="a_node3"><a xlink:href="../../tables/SPG_XSD.html" xlink:title="SPG_XSD" target="_top">
<polygon fill="#ffffff" stroke="transparent" points="33.5,-406.2 33.5,-489.2 194.5,-489.2 194.5,-406.2 33.5,-406.2"/>
<polygon fill="#f5f5f5" stroke="transparent" points="34,-465.7 34,-488.7 195,-488.7 195,-465.7 34,-465.7"/>
<polygon fill="none" stroke="#000000" points="34,-465.7 34,-488.7 195,-488.7 195,-465.7 34,-465.7"/>
<text text-anchor="start" x="39" y="-474.8" font-family="Helvetica,sans-Serif" font-weight="bold" font-size="11.00" fill="#000000">SPG_XSD</text>
<text text-anchor="start" x="160.0437" y="-473.8" font-family="Helvetica,sans-Serif" font-size="11.00" fill="#000000">[table]</text>
<polygon fill="none" stroke="#000000" points="34,-443.7 34,-465.7 195,-465.7 195,-443.7 34,-443.7"/>
<image xlink:href="../../images/primaryKeys.png" width="11px" height="12px" preserveAspectRatio="xMinYMin meet" x="39" y="-460.7"/>
<text text-anchor="start" x="54" y="-450.8" font-family="Helvetica,sans-Serif" font-size="11.00" fill="#000000">SPG_XSD_ID</text>
<polygon fill="none" stroke="#000000" points="34,-424.7 34,-443.7 195,-443.7 195,-424.7 34,-424.7"/>
<text text-anchor="start" x="37" y="-430.8" font-family="Helvetica,sans-Serif" font-size="11.00" fill="#000000">...</text>
<polygon fill="#ffffff" stroke="transparent" points="34,-405.7 34,-424.7 91,-424.7 91,-405.7 34,-405.7"/>
<polygon fill="none" stroke="#000000" points="34,-405.7 34,-424.7 91,-424.7 91,-405.7 34,-405.7"/>
<text text-anchor="start" x="37" y="-411.8" font-family="Helvetica,sans-Serif" font-size="11.00" fill="#000000"> &#160;</text>
<polygon fill="#ffffff" stroke="transparent" points="91,-405.7 91,-424.7 151,-424.7 151,-405.7 91,-405.7"/>
<polygon fill="none" stroke="#000000" points="91,-405.7 91,-424.7 151,-424.7 151,-405.7 91,-405.7"/>
<text text-anchor="start" x="115.6105" y="-411.8" font-family="Helvetica,sans-Serif" font-size="11.00" fill="#000000">5 rows</text>
<polygon fill="#ffffff" stroke="transparent" points="151,-405.7 151,-424.7 195,-424.7 195,-405.7 151,-405.7"/>
<polygon fill="none" stroke="#000000" points="151,-405.7 151,-424.7 195,-424.7 195,-405.7 151,-405.7"/>
<text text-anchor="start" x="176.4053" y="-411.8" font-family="Helvetica,sans-Serif" font-size="11.00" fill="#000000">1 &gt;</text>
</a>
</g>
</g>
<!-- R_SPG_XSD_PROBATION_AREA&#45;&gt;SPG_XSD -->
<g id="edge2" class="edge">
<title>R_SPG_XSD_PROBATION_AREA:w&#45;&gt;SPG_XSD:e</title>
<path fill="none" stroke="#000000" d="M256.5753,-416.0218C232.0223,-424.6951 227.8325,-454.7 195,-454.7"/>
<polygon fill="#000000" stroke="#000000" points="263.1017,-414.9714 271.5721,-417.2543 267.0508,-414.3357 271,-413.7 271,-413.7 271,-413.7 267.0508,-414.3357 270.4279,-410.1457 263.1017,-414.9714 263.1017,-414.9714"/>
<ellipse fill="none" stroke="#000000" cx="259.9423" cy="-415.4799" rx="3.2" ry="3.2"/>
</g>
</g>
</svg>
