<?xml version="1.0" encoding="UTF-8" standalone="no"?>
<!DOCTYPE svg PUBLIC "-//W3C//DTD SVG 1.1//EN"
 "http://www.w3.org/Graphics/SVG/1.1/DTD/svg11.dtd">
<!-- Generated by graphviz version 2.40.1 (20161225.0304)
 -->
<!-- Title: oneDegreeRelationshipsDiagram Pages: 1 -->
<svg width="521pt" height="435pt"
 viewBox="0.00 0.00 521.00 435.20" xmlns="http://www.w3.org/2000/svg" xmlns:xlink="http://www.w3.org/1999/xlink">
<g id="graph0" class="graph" transform="scale(1 1) rotate(0) translate(4 431.2)">
<title>oneDegreeRelationshipsDiagram</title>
<polygon fill="#ffffff" stroke="transparent" points="-4,4 -4,-431.2 517,-431.2 517,4 -4,4"/>
<text text-anchor="middle" x="72.4936" y="-7.3" font-family="Helvetica,sans-Serif" font-size="11.00" fill="#000000">Generated by SchemaSpy</text>
<!-- R_TEAM_LONG_POSTCODE -->
<g id="node1" class="node">
<title>R_TEAM_LONG_POSTCODE</title>
<g id="a_node1"><a xlink:href="../../tables/R_TEAM_LONG_POSTCODE.html" xlink:title="R_TEAM_LONG_POSTCODE" target="_top">
<polygon fill="#ffffff" stroke="transparent" points="277,-238.7 277,-350.7 505,-350.7 505,-238.7 277,-238.7"/>
<polygon fill="#f5f5f5" stroke="transparent" points="279,-325.7 279,-348.7 503,-348.7 503,-325.7 279,-325.7"/>
<polygon fill="none" stroke="#000000" points="279,-325.7 279,-348.7 503,-348.7 503,-325.7 279,-325.7"/>
<text text-anchor="start" x="284" y="-334.8" font-family="Helvetica,sans-Serif" font-weight="bold" font-size="11.00" fill="#000000">R_TEAM_LONG_POSTCODE</text>
<text text-anchor="start" x="468.0437" y="-333.8" font-family="Helvetica,sans-Serif" font-size="11.00" fill="#000000">[table]</text>
<polygon fill="none" stroke="#000000" points="279,-303.7 279,-325.7 442,-325.7 442,-303.7 279,-303.7"/>
<image xlink:href="../../images/primaryKeys.png" width="11px" height="12px" preserveAspectRatio="xMinYMin meet" x="284" y="-320.7"/>
<text text-anchor="start" x="299" y="-310.8" font-family="Helvetica,sans-Serif" font-size="11.00" fill="#000000">LONG_POSTCODE_ID</text>
<polygon fill="none" stroke="#000000" points="442,-303.7 442,-325.7 503,-325.7 503,-303.7 442,-303.7"/>
<text text-anchor="start" x="444.6865" y="-311.4" font-family="Helvetica,sans-Serif" font-size="11.00" fill="#000000">number[38]</text>
<polygon fill="none" stroke="#000000" points="279,-281.7 279,-303.7 442,-303.7 442,-281.7 279,-281.7"/>
<image xlink:href="../../images/primaryKeys.png" width="11px" height="12px" preserveAspectRatio="xMinYMin meet" x="284" y="-298.7"/>
<text text-anchor="start" x="299" y="-288.8" font-family="Helvetica,sans-Serif" font-size="11.00" fill="#000000">TEAM_ID</text>
<polygon fill="none" stroke="#000000" points="442,-281.7 442,-303.7 503,-303.7 503,-281.7 442,-281.7"/>
<text text-anchor="start" x="444.6865" y="-289.4" font-family="Helvetica,sans-Serif" font-size="11.00" fill="#000000">number[38]</text>
<polygon fill="none" stroke="#000000" points="279,-259.7 279,-281.7 442,-281.7 442,-259.7 279,-259.7"/>
<text text-anchor="start" x="299" y="-266.8" font-family="Helvetica,sans-Serif" font-size="11.00" fill="#000000">ROW_VERSION</text>
<polygon fill="none" stroke="#000000" points="442,-259.7 442,-281.7 503,-281.7 503,-259.7 442,-259.7"/>
<text text-anchor="start" x="444.6865" y="-267.4" font-family="Helvetica,sans-Serif" font-size="11.00" fill="#000000">number[38]</text>
<polygon fill="#ffffff" stroke="transparent" points="279,-240.7 279,-259.7 352,-259.7 352,-240.7 279,-240.7"/>
<polygon fill="none" stroke="#000000" points="279,-240.7 279,-259.7 352,-259.7 352,-240.7 279,-240.7"/>
<text text-anchor="start" x="282" y="-246.8" font-family="Helvetica,sans-Serif" font-size="11.00" fill="#000000">&lt; 2</text>
<polygon fill="#ffffff" stroke="transparent" points="352,-240.7 352,-259.7 442,-259.7 442,-240.7 352,-240.7"/>
<polygon fill="none" stroke="#000000" points="352,-240.7 352,-259.7 442,-259.7 442,-240.7 352,-240.7"/>
<text text-anchor="start" x="406.6105" y="-246.8" font-family="Helvetica,sans-Serif" font-size="11.00" fill="#000000">0 rows</text>
<polygon fill="#ffffff" stroke="transparent" points="442,-240.7 442,-259.7 503,-259.7 503,-240.7 442,-240.7"/>
<polygon fill="none" stroke="#000000" points="442,-240.7 442,-259.7 503,-259.7 503,-240.7 442,-240.7"/>
<text text-anchor="start" x="484.4053" y="-246.8" font-family="Helvetica,sans-Serif" font-size="11.00" fill="#000000">0 &gt;</text>
<polygon fill="none" stroke="#000000" stroke-width="2" points="278,-239.7 278,-349.7 504,-349.7 504,-239.7 278,-239.7"/>
</a>
</g>
</g>
<!-- R_STANDARD_REFERENCE_LIST -->
<g id="node2" class="node">
<title>R_STANDARD_REFERENCE_LIST</title>
<g id="a_node2"><a xlink:href="../../tables/R_STANDARD_REFERENCE_LIST.html" xlink:title="R_STANDARD_REFERENCE_LIST" target="_top">
<polygon fill="#ffffff" stroke="transparent" points="8,-274.2 8,-423.2 228,-423.2 228,-274.2 8,-274.2"/>
<polygon fill="#f5f5f5" stroke="transparent" points="8,-399.7 8,-422.7 228,-422.7 228,-399.7 8,-399.7"/>
<polygon fill="none" stroke="#000000" points="8,-399.7 8,-422.7 228,-422.7 228,-399.7 8,-399.7"/>
<text text-anchor="start" x="12.5842" y="-408.8" font-family="Helvetica,sans-Serif" font-weight="bold" font-size="11.00" fill="#000000">R_STANDARD_REFERENCE_LIST</text>
<text text-anchor="start" x="193.5219" y="-407.8" font-family="Helvetica,sans-Serif" font-size="11.00" fill="#000000">[table]</text>
<polygon fill="none" stroke="#000000" points="8,-377.7 8,-399.7 228,-399.7 228,-377.7 8,-377.7"/>
<image xlink:href="../../images/primaryKeys.png" width="11px" height="12px" preserveAspectRatio="xMinYMin meet" x="13" y="-394.7"/>
<text text-anchor="start" x="35.5558" y="-384.8" font-family="Helvetica,sans-Serif" font-size="11.00" fill="#000000">STANDARD_REFERENCE_LIST_ID</text>
<polygon fill="none" stroke="#000000" points="8,-355.7 8,-377.7 228,-377.7 228,-355.7 8,-355.7"/>
<image xlink:href="../../images/primaryKeys.png" width="11px" height="12px" preserveAspectRatio="xMinYMin meet" x="13" y="-372.7"/>
<text text-anchor="start" x="42" y="-362.8" font-family="Helvetica,sans-Serif" font-size="11.00" fill="#000000">CODE_VALUE</text>
<polygon fill="none" stroke="#000000" points="8,-333.7 8,-355.7 228,-355.7 228,-333.7 8,-333.7"/>
<image xlink:href="../../images/primaryKeys.png" width="11px" height="12px" preserveAspectRatio="xMinYMin meet" x="13" y="-350.7"/>
<text text-anchor="start" x="39.8337" y="-340.8" font-family="Helvetica,sans-Serif" font-size="11.00" fill="#000000">REFERENCE_DATA_MASTER_ID</text>
<polygon fill="none" stroke="#000000" points="8,-311.7 8,-333.7 228,-333.7 228,-311.7 8,-311.7"/>
<image xlink:href="../../images/primaryKeys.png" width="11px" height="12px" preserveAspectRatio="xMinYMin meet" x="13" y="-328.7"/>
<text text-anchor="start" x="42" y="-318.8" font-family="Helvetica,sans-Serif" font-size="11.00" fill="#000000">TRAINING_SESSION_ID</text>
<polygon fill="none" stroke="#000000" points="8,-292.7 8,-311.7 228,-311.7 228,-292.7 8,-292.7"/>
<text text-anchor="start" x="11" y="-298.8" font-family="Helvetica,sans-Serif" font-size="11.00" fill="#000000">...</text>
<polygon fill="#ffffff" stroke="transparent" points="8,-273.7 8,-292.7 79,-292.7 79,-273.7 8,-273.7"/>
<polygon fill="none" stroke="#000000" points="8,-273.7 8,-292.7 79,-292.7 79,-273.7 8,-273.7"/>
<text text-anchor="start" x="11" y="-279.8" font-family="Helvetica,sans-Serif" font-size="11.00" fill="#000000">&lt; 1</text>
<polygon fill="#ffffff" stroke="transparent" points="79,-273.7 79,-292.7 169,-292.7 169,-273.7 79,-273.7"/>
<polygon fill="none" stroke="#000000" points="79,-273.7 79,-292.7 169,-292.7 169,-273.7 79,-273.7"/>
<text text-anchor="start" x="106.094" y="-279.8" font-family="Helvetica,sans-Serif" font-size="11.00" fill="#000000">15,391 rows</text>
<polygon fill="#ffffff" stroke="transparent" points="169,-273.7 169,-292.7 228,-292.7 228,-273.7 169,-273.7"/>
<polygon fill="none" stroke="#000000" points="169,-273.7 169,-292.7 228,-292.7 228,-273.7 169,-273.7"/>
<text text-anchor="start" x="197.1755" y="-279.8" font-family="Helvetica,sans-Serif" font-size="11.00" fill="#000000">294 &gt;</text>
</a>
</g>
</g>
<!-- R_TEAM_LONG_POSTCODE&#45;&gt;R_STANDARD_REFERENCE_LIST -->
<g id="edge1" class="edge">
<title>R_TEAM_LONG_POSTCODE:w&#45;&gt;R_STANDARD_REFERENCE_LIST:e</title>
<path fill="none" stroke="#000000" d="M265.0503,-319.329C246.2607,-335.5294 261.8581,-388.7 228,-388.7"/>
<polygon fill="#000000" stroke="#000000" points="271.4071,-317.2196 280.1338,-318.1168 275.2036,-315.9598 279,-314.7 279,-314.7 279,-314.7 275.2036,-315.9598 277.8662,-311.2832 271.4071,-317.2196 271.4071,-317.2196"/>
<ellipse fill="none" stroke="#000000" cx="268.37" cy="-318.2275" rx="3.2" ry="3.2"/>
</g>
<!-- TEAM -->
<g id="node3" class="node">
<title>TEAM</title>
<g id="a_node3"><a xlink:href="../../tables/TEAM.html" xlink:title="TEAM" target="_top">
<polygon fill="#ffffff" stroke="transparent" points="25.5,-38.2 25.5,-253.2 210.5,-253.2 210.5,-38.2 25.5,-38.2"/>
<polygon fill="#f5f5f5" stroke="transparent" points="26,-229.7 26,-252.7 211,-252.7 211,-229.7 26,-229.7"/>
<polygon fill="none" stroke="#000000" points="26,-229.7 26,-252.7 211,-252.7 211,-229.7 26,-229.7"/>
<text text-anchor="start" x="31" y="-238.8" font-family="Helvetica,sans-Serif" font-weight="bold" font-size="11.00" fill="#000000">TEAM</text>
<text text-anchor="start" x="176.0437" y="-237.8" font-family="Helvetica,sans-Serif" font-size="11.00" fill="#000000">[table]</text>
<polygon fill="none" stroke="#000000" points="26,-207.7 26,-229.7 211,-229.7 211,-207.7 26,-207.7"/>
<image xlink:href="../../images/primaryKeys.png" width="11px" height="12px" preserveAspectRatio="xMinYMin meet" x="31" y="-224.7"/>
<text text-anchor="start" x="46" y="-214.8" font-family="Helvetica,sans-Serif" font-size="11.00" fill="#000000">TEAM_ID</text>
<polygon fill="none" stroke="#000000" points="26,-185.7 26,-207.7 211,-207.7 211,-185.7 26,-185.7"/>
<image xlink:href="../../images/primaryKeys.png" width="11px" height="12px" preserveAspectRatio="xMinYMin meet" x="31" y="-202.7"/>
<text text-anchor="start" x="46" y="-192.8" font-family="Helvetica,sans-Serif" font-size="11.00" fill="#000000">CODE</text>
<polygon fill="none" stroke="#000000" points="26,-163.7 26,-185.7 211,-185.7 211,-163.7 26,-163.7"/>
<image xlink:href="../../images/primaryKeys.png" width="11px" height="12px" preserveAspectRatio="xMinYMin meet" x="31" y="-180.7"/>
<text text-anchor="start" x="46" y="-170.8" font-family="Helvetica,sans-Serif" font-size="11.00" fill="#000000">DISTRICT_ID</text>
<polygon fill="none" stroke="#000000" points="26,-141.7 26,-163.7 211,-163.7 211,-141.7 26,-141.7"/>
<image xlink:href="../../images/primaryKeys.png" width="11px" height="12px" preserveAspectRatio="xMinYMin meet" x="31" y="-158.7"/>
<text text-anchor="start" x="46" y="-148.8" font-family="Helvetica,sans-Serif" font-size="11.00" fill="#000000">LOCAL_DELIVERY_UNIT_ID</text>
<polygon fill="none" stroke="#000000" points="26,-119.7 26,-141.7 211,-141.7 211,-119.7 26,-119.7"/>
<image xlink:href="../../images/primaryKeys.png" width="11px" height="12px" preserveAspectRatio="xMinYMin meet" x="31" y="-136.7"/>
<text text-anchor="start" x="46" y="-126.8" font-family="Helvetica,sans-Serif" font-size="11.00" fill="#000000">TRAINING_SESSION_ID</text>
<polygon fill="none" stroke="#000000" points="26,-97.7 26,-119.7 211,-119.7 211,-97.7 26,-97.7"/>
<image xlink:href="../../images/primaryKeys.png" width="11px" height="12px" preserveAspectRatio="xMinYMin meet" x="31" y="-114.7"/>
<text text-anchor="start" x="46" y="-104.8" font-family="Helvetica,sans-Serif" font-size="11.00" fill="#000000">PROBATION_AREA_ID</text>
<polygon fill="none" stroke="#000000" points="26,-75.7 26,-97.7 211,-97.7 211,-75.7 26,-75.7"/>
<image xlink:href="../../images/primaryKeys.png" width="11px" height="12px" preserveAspectRatio="xMinYMin meet" x="31" y="-92.7"/>
<text text-anchor="start" x="46" y="-82.8" font-family="Helvetica,sans-Serif" font-size="11.00" fill="#000000">SC_PROVIDER_ID</text>
<polygon fill="none" stroke="#000000" points="26,-56.7 26,-75.7 211,-75.7 211,-56.7 26,-56.7"/>
<text text-anchor="start" x="29" y="-62.8" font-family="Helvetica,sans-Serif" font-size="11.00" fill="#000000">...</text>
<polygon fill="#ffffff" stroke="transparent" points="26,-37.7 26,-56.7 86,-56.7 86,-37.7 26,-37.7"/>
<polygon fill="none" stroke="#000000" points="26,-37.7 26,-56.7 86,-56.7 86,-37.7 26,-37.7"/>
<text text-anchor="start" x="29" y="-43.8" font-family="Helvetica,sans-Serif" font-size="11.00" fill="#000000">&lt; 4</text>
<polygon fill="#ffffff" stroke="transparent" points="86,-37.7 86,-56.7 164,-56.7 164,-37.7 86,-37.7"/>
<polygon fill="none" stroke="#000000" points="86,-37.7 86,-56.7 164,-56.7 164,-37.7 86,-37.7"/>
<text text-anchor="start" x="107.2089" y="-43.8" font-family="Helvetica,sans-Serif" font-size="11.00" fill="#000000">1,458 rows</text>
<polygon fill="#ffffff" stroke="transparent" points="164,-37.7 164,-56.7 211,-56.7 211,-37.7 164,-37.7"/>
<polygon fill="none" stroke="#000000" points="164,-37.7 164,-56.7 211,-56.7 211,-37.7 164,-37.7"/>
<text text-anchor="start" x="186.2904" y="-43.8" font-family="Helvetica,sans-Serif" font-size="11.00" fill="#000000">62 &gt;</text>
</a>
</g>
</g>
<!-- R_TEAM_LONG_POSTCODE&#45;&gt;TEAM -->
<g id="edge2" class="edge">
<title>R_TEAM_LONG_POSTCODE:w&#45;&gt;TEAM:e</title>
<path fill="none" stroke="#000000" d="M264.7341,-289.3281C238.7369,-274.8515 249.9084,-218.7 211,-218.7"/>
<polygon fill="#000000" stroke="#000000" points="271.2145,-290.8598 278.1719,-296.2035 275.1073,-291.7799 279,-292.7 279,-292.7 279,-292.7 275.1073,-291.7799 279.8281,-289.1965 271.2145,-290.8598 271.2145,-290.8598"/>
<ellipse fill="none" stroke="#000000" cx="268.1003" cy="-290.1237" rx="3.2" ry="3.2"/>
</g>
</g>
</svg>
