<?xml version="1.0" encoding="UTF-8" standalone="no"?>
<!DOCTYPE svg PUBLIC "-//W3C//DTD SVG 1.1//EN"
 "http://www.w3.org/Graphics/SVG/1.1/DTD/svg11.dtd">
<!-- Generated by graphviz version 2.40.1 (20161225.0304)
 -->
<!-- Title: oneDegreeRelationshipsDiagram Pages: 1 -->
<svg width="1015pt" height="1360pt"
 viewBox="0.00 0.00 1015.00 1359.70" xmlns="http://www.w3.org/2000/svg" xmlns:xlink="http://www.w3.org/1999/xlink">
<g id="graph0" class="graph" transform="scale(1 1) rotate(0) translate(4 1355.7)">
<title>oneDegreeRelationshipsDiagram</title>
<polygon fill="#ffffff" stroke="transparent" points="-4,4 -4,-1355.7 1011,-1355.7 1011,4 -4,4"/>
<text text-anchor="middle" x="72.4936" y="-7.3" font-family="Helvetica,sans-Serif" font-size="11.00" fill="#000000">Generated by SchemaSpy</text>
<!-- OFFENDER -->
<g id="node1" class="node">
<title>OFFENDER</title>
<g id="a_node1"><a xlink:href="../../tables/OFFENDER.html" xlink:title="OFFENDER" target="_top">
<polygon fill="#ffffff" stroke="transparent" points="199,-38.2 199,-891.2 417,-891.2 417,-38.2 199,-38.2"/>
<polygon fill="#f5f5f5" stroke="transparent" points="199,-867.7 199,-890.7 417,-890.7 417,-867.7 199,-867.7"/>
<polygon fill="none" stroke="#000000" points="199,-867.7 199,-890.7 417,-890.7 417,-867.7 199,-867.7"/>
<text text-anchor="start" x="204" y="-876.8" font-family="Helvetica,sans-Serif" font-weight="bold" font-size="11.00" fill="#000000">OFFENDER</text>
<text text-anchor="start" x="382.0437" y="-875.8" font-family="Helvetica,sans-Serif" font-size="11.00" fill="#000000">[table]</text>
<polygon fill="none" stroke="#000000" points="199,-845.7 199,-867.7 417,-867.7 417,-845.7 199,-845.7"/>
<image xlink:href="../../images/primaryKeys.png" width="11px" height="12px" preserveAspectRatio="xMinYMin meet" x="204" y="-862.7"/>
<text text-anchor="start" x="219" y="-852.8" font-family="Helvetica,sans-Serif" font-size="11.00" fill="#000000">OFFENDER_ID</text>
<polygon fill="none" stroke="#000000" points="199,-823.7 199,-845.7 417,-845.7 417,-823.7 199,-823.7"/>
<image xlink:href="../../images/primaryKeys.png" width="11px" height="12px" preserveAspectRatio="xMinYMin meet" x="204" y="-840.7"/>
<text text-anchor="start" x="219" y="-830.8" font-family="Helvetica,sans-Serif" font-size="11.00" fill="#000000">FIRST_NAME</text>
<polygon fill="none" stroke="#000000" points="199,-801.7 199,-823.7 417,-823.7 417,-801.7 199,-801.7"/>
<image xlink:href="../../images/primaryKeys.png" width="11px" height="12px" preserveAspectRatio="xMinYMin meet" x="204" y="-818.7"/>
<text text-anchor="start" x="219" y="-808.8" font-family="Helvetica,sans-Serif" font-size="11.00" fill="#000000">CRN</text>
<polygon fill="none" stroke="#000000" points="199,-779.7 199,-801.7 417,-801.7 417,-779.7 199,-779.7"/>
<image xlink:href="../../images/primaryKeys.png" width="11px" height="12px" preserveAspectRatio="xMinYMin meet" x="204" y="-796.7"/>
<text text-anchor="start" x="219" y="-786.8" font-family="Helvetica,sans-Serif" font-size="11.00" fill="#000000">SECOND_NAME</text>
<polygon fill="none" stroke="#000000" points="199,-757.7 199,-779.7 417,-779.7 417,-757.7 199,-757.7"/>
<image xlink:href="../../images/primaryKeys.png" width="11px" height="12px" preserveAspectRatio="xMinYMin meet" x="204" y="-774.7"/>
<text text-anchor="start" x="219" y="-764.8" font-family="Helvetica,sans-Serif" font-size="11.00" fill="#000000">PNC_NUMBER</text>
<polygon fill="none" stroke="#000000" points="199,-735.7 199,-757.7 417,-757.7 417,-735.7 199,-735.7"/>
<image xlink:href="../../images/primaryKeys.png" width="11px" height="12px" preserveAspectRatio="xMinYMin meet" x="204" y="-752.7"/>
<text text-anchor="start" x="219" y="-742.8" font-family="Helvetica,sans-Serif" font-size="11.00" fill="#000000">THIRD_NAME</text>
<polygon fill="none" stroke="#000000" points="199,-713.7 199,-735.7 417,-735.7 417,-713.7 199,-713.7"/>
<image xlink:href="../../images/primaryKeys.png" width="11px" height="12px" preserveAspectRatio="xMinYMin meet" x="204" y="-730.7"/>
<text text-anchor="start" x="219" y="-720.8" font-family="Helvetica,sans-Serif" font-size="11.00" fill="#000000">CRO_NUMBER</text>
<polygon fill="none" stroke="#000000" points="199,-691.7 199,-713.7 417,-713.7 417,-691.7 199,-691.7"/>
<image xlink:href="../../images/primaryKeys.png" width="11px" height="12px" preserveAspectRatio="xMinYMin meet" x="204" y="-708.7"/>
<text text-anchor="start" x="219" y="-698.8" font-family="Helvetica,sans-Serif" font-size="11.00" fill="#000000">SURNAME</text>
<polygon fill="none" stroke="#000000" points="199,-669.7 199,-691.7 417,-691.7 417,-669.7 199,-669.7"/>
<image xlink:href="../../images/primaryKeys.png" width="11px" height="12px" preserveAspectRatio="xMinYMin meet" x="204" y="-686.7"/>
<text text-anchor="start" x="219" y="-676.8" font-family="Helvetica,sans-Serif" font-size="11.00" fill="#000000">NOMS_NUMBER</text>
<polygon fill="none" stroke="#000000" points="199,-647.7 199,-669.7 417,-669.7 417,-647.7 199,-647.7"/>
<image xlink:href="../../images/primaryKeys.png" width="11px" height="12px" preserveAspectRatio="xMinYMin meet" x="204" y="-664.7"/>
<text text-anchor="start" x="219" y="-654.8" font-family="Helvetica,sans-Serif" font-size="11.00" fill="#000000">DATE_OF_BIRTH_DATE</text>
<polygon fill="none" stroke="#000000" points="199,-625.7 199,-647.7 417,-647.7 417,-625.7 199,-625.7"/>
<image xlink:href="../../images/primaryKeys.png" width="11px" height="12px" preserveAspectRatio="xMinYMin meet" x="204" y="-642.7"/>
<text text-anchor="start" x="219" y="-632.8" font-family="Helvetica,sans-Serif" font-size="11.00" fill="#000000">NI_NUMBER</text>
<polygon fill="none" stroke="#000000" points="199,-603.7 199,-625.7 417,-625.7 417,-603.7 199,-603.7"/>
<image xlink:href="../../images/primaryKeys.png" width="11px" height="12px" preserveAspectRatio="xMinYMin meet" x="204" y="-620.7"/>
<text text-anchor="start" x="219" y="-610.8" font-family="Helvetica,sans-Serif" font-size="11.00" fill="#000000">IMMIGRATION_NUMBER</text>
<polygon fill="none" stroke="#000000" points="199,-581.7 199,-603.7 417,-603.7 417,-581.7 199,-581.7"/>
<image xlink:href="../../images/primaryKeys.png" width="11px" height="12px" preserveAspectRatio="xMinYMin meet" x="204" y="-598.7"/>
<text text-anchor="start" x="219" y="-588.8" font-family="Helvetica,sans-Serif" font-size="11.00" fill="#000000">PARTITION_AREA_ID</text>
<polygon fill="none" stroke="#000000" points="199,-559.7 199,-581.7 417,-581.7 417,-559.7 199,-559.7"/>
<image xlink:href="../../images/primaryKeys.png" width="11px" height="12px" preserveAspectRatio="xMinYMin meet" x="204" y="-576.7"/>
<text text-anchor="start" x="219" y="-566.8" font-family="Helvetica,sans-Serif" font-size="11.00" fill="#000000">SOFT_DELETED</text>
<polygon fill="none" stroke="#000000" points="199,-537.7 199,-559.7 417,-559.7 417,-537.7 199,-537.7"/>
<image xlink:href="../../images/primaryKeys.png" width="11px" height="12px" preserveAspectRatio="xMinYMin meet" x="204" y="-554.7"/>
<text text-anchor="start" x="219" y="-544.8" font-family="Helvetica,sans-Serif" font-size="11.00" fill="#000000">TITLE_ID</text>
<polygon fill="none" stroke="#000000" points="199,-515.7 199,-537.7 417,-537.7 417,-515.7 199,-515.7"/>
<image xlink:href="../../images/primaryKeys.png" width="11px" height="12px" preserveAspectRatio="xMinYMin meet" x="204" y="-532.7"/>
<text text-anchor="start" x="219" y="-522.8" font-family="Helvetica,sans-Serif" font-size="11.00" fill="#000000">GENDER_ID</text>
<polygon fill="none" stroke="#000000" points="199,-493.7 199,-515.7 417,-515.7 417,-493.7 199,-493.7"/>
<image xlink:href="../../images/primaryKeys.png" width="11px" height="12px" preserveAspectRatio="xMinYMin meet" x="204" y="-510.7"/>
<text text-anchor="start" x="219" y="-500.8" font-family="Helvetica,sans-Serif" font-size="11.00" fill="#000000">ETHNICITY_ID</text>
<polygon fill="none" stroke="#000000" points="199,-471.7 199,-493.7 417,-493.7 417,-471.7 199,-471.7"/>
<image xlink:href="../../images/primaryKeys.png" width="11px" height="12px" preserveAspectRatio="xMinYMin meet" x="204" y="-488.7"/>
<text text-anchor="start" x="219" y="-478.8" font-family="Helvetica,sans-Serif" font-size="11.00" fill="#000000">NATIONALITY_ID</text>
<polygon fill="none" stroke="#000000" points="199,-449.7 199,-471.7 417,-471.7 417,-449.7 199,-449.7"/>
<image xlink:href="../../images/primaryKeys.png" width="11px" height="12px" preserveAspectRatio="xMinYMin meet" x="204" y="-466.7"/>
<text text-anchor="start" x="219" y="-456.8" font-family="Helvetica,sans-Serif" font-size="11.00" fill="#000000">IMMIGRATION_STATUS_ID</text>
<polygon fill="none" stroke="#000000" points="199,-427.7 199,-449.7 417,-449.7 417,-427.7 199,-427.7"/>
<image xlink:href="../../images/primaryKeys.png" width="11px" height="12px" preserveAspectRatio="xMinYMin meet" x="204" y="-444.7"/>
<text text-anchor="start" x="219" y="-434.8" font-family="Helvetica,sans-Serif" font-size="11.00" fill="#000000">LANGUAGE_ID</text>
<polygon fill="none" stroke="#000000" points="199,-405.7 199,-427.7 417,-427.7 417,-405.7 199,-405.7"/>
<image xlink:href="../../images/primaryKeys.png" width="11px" height="12px" preserveAspectRatio="xMinYMin meet" x="204" y="-422.7"/>
<text text-anchor="start" x="219" y="-412.8" font-family="Helvetica,sans-Serif" font-size="11.00" fill="#000000">RELIGION_ID</text>
<polygon fill="none" stroke="#000000" points="199,-383.7 199,-405.7 417,-405.7 417,-383.7 199,-383.7"/>
<image xlink:href="../../images/primaryKeys.png" width="11px" height="12px" preserveAspectRatio="xMinYMin meet" x="204" y="-400.7"/>
<text text-anchor="start" x="219" y="-390.8" font-family="Helvetica,sans-Serif" font-size="11.00" fill="#000000">SURNAME_SOUNDEX</text>
<polygon fill="none" stroke="#000000" points="199,-361.7 199,-383.7 417,-383.7 417,-361.7 199,-361.7"/>
<image xlink:href="../../images/primaryKeys.png" width="11px" height="12px" preserveAspectRatio="xMinYMin meet" x="204" y="-378.7"/>
<text text-anchor="start" x="219" y="-368.8" font-family="Helvetica,sans-Serif" font-size="11.00" fill="#000000">SECOND_NATIONALITY_ID</text>
<polygon fill="none" stroke="#000000" points="199,-339.7 199,-361.7 417,-361.7 417,-339.7 199,-339.7"/>
<image xlink:href="../../images/primaryKeys.png" width="11px" height="12px" preserveAspectRatio="xMinYMin meet" x="204" y="-356.7"/>
<text text-anchor="start" x="219" y="-346.8" font-family="Helvetica,sans-Serif" font-size="11.00" fill="#000000">SEXUAL_ORIENTATION_ID</text>
<polygon fill="none" stroke="#000000" points="199,-317.7 199,-339.7 417,-339.7 417,-317.7 199,-317.7"/>
<image xlink:href="../../images/primaryKeys.png" width="11px" height="12px" preserveAspectRatio="xMinYMin meet" x="204" y="-334.7"/>
<text text-anchor="start" x="219" y="-324.8" font-family="Helvetica,sans-Serif" font-size="11.00" fill="#000000">CURRENT_EXCLUSION</text>
<polygon fill="none" stroke="#000000" points="199,-295.7 199,-317.7 417,-317.7 417,-295.7 199,-295.7"/>
<image xlink:href="../../images/primaryKeys.png" width="11px" height="12px" preserveAspectRatio="xMinYMin meet" x="204" y="-312.7"/>
<text text-anchor="start" x="219" y="-302.8" font-family="Helvetica,sans-Serif" font-size="11.00" fill="#000000">TRAINING_SESSION_ID</text>
<polygon fill="none" stroke="#000000" points="199,-273.7 199,-295.7 417,-295.7 417,-273.7 199,-273.7"/>
<image xlink:href="../../images/primaryKeys.png" width="11px" height="12px" preserveAspectRatio="xMinYMin meet" x="204" y="-290.7"/>
<text text-anchor="start" x="219" y="-280.8" font-family="Helvetica,sans-Serif" font-size="11.00" fill="#000000">CURRENT_DISPOSAL</text>
<polygon fill="none" stroke="#000000" points="199,-251.7 199,-273.7 417,-273.7 417,-251.7 199,-251.7"/>
<image xlink:href="../../images/primaryKeys.png" width="11px" height="12px" preserveAspectRatio="xMinYMin meet" x="204" y="-268.7"/>
<text text-anchor="start" x="218.6434" y="-258.8" font-family="Helvetica,sans-Serif" font-size="11.00" fill="#000000">CURRENT_HIGHEST_RISK_COLOUR</text>
<polygon fill="none" stroke="#000000" points="199,-229.7 199,-251.7 417,-251.7 417,-229.7 199,-229.7"/>
<image xlink:href="../../images/primaryKeys.png" width="11px" height="12px" preserveAspectRatio="xMinYMin meet" x="204" y="-246.7"/>
<text text-anchor="start" x="219" y="-236.8" font-family="Helvetica,sans-Serif" font-size="11.00" fill="#000000">CURRENT_RESTRICTION</text>
<polygon fill="none" stroke="#000000" points="199,-207.7 199,-229.7 417,-229.7 417,-207.7 199,-207.7"/>
<image xlink:href="../../images/primaryKeys.png" width="11px" height="12px" preserveAspectRatio="xMinYMin meet" x="204" y="-224.7"/>
<text text-anchor="start" x="219" y="-214.8" font-family="Helvetica,sans-Serif" font-size="11.00" fill="#000000">INSTITUTION_ID</text>
<polygon fill="none" stroke="#000000" points="199,-185.7 199,-207.7 417,-207.7 417,-185.7 199,-185.7"/>
<image xlink:href="../../images/primaryKeys.png" width="11px" height="12px" preserveAspectRatio="xMinYMin meet" x="204" y="-202.7"/>
<text text-anchor="start" x="219" y="-192.8" font-family="Helvetica,sans-Serif" font-size="11.00" fill="#000000">ESTABLISHMENT</text>
<polygon fill="none" stroke="#000000" points="199,-163.7 199,-185.7 417,-185.7 417,-163.7 199,-163.7"/>
<image xlink:href="../../images/primaryKeys.png" width="11px" height="12px" preserveAspectRatio="xMinYMin meet" x="204" y="-180.7"/>
<text text-anchor="start" x="219" y="-170.8" font-family="Helvetica,sans-Serif" font-size="11.00" fill="#000000">CURRENT_TIER</text>
<polygon fill="none" stroke="#000000" points="199,-141.7 199,-163.7 417,-163.7 417,-141.7 199,-141.7"/>
<image xlink:href="../../images/primaryKeys.png" width="11px" height="12px" preserveAspectRatio="xMinYMin meet" x="204" y="-158.7"/>
<text text-anchor="start" x="219" y="-148.8" font-family="Helvetica,sans-Serif" font-size="11.00" fill="#000000">OM_ALLOCATION_DECISION_ID</text>
<polygon fill="none" stroke="#000000" points="199,-119.7 199,-141.7 417,-141.7 417,-119.7 199,-119.7"/>
<image xlink:href="../../images/primaryKeys.png" width="11px" height="12px" preserveAspectRatio="xMinYMin meet" x="204" y="-136.7"/>
<text text-anchor="start" x="219" y="-126.8" font-family="Helvetica,sans-Serif" font-size="11.00" fill="#000000">TRANSGENDER_PROCESS_ID</text>
<polygon fill="none" stroke="#000000" points="199,-97.7 199,-119.7 417,-119.7 417,-97.7 199,-97.7"/>
<image xlink:href="../../images/primaryKeys.png" width="11px" height="12px" preserveAspectRatio="xMinYMin meet" x="204" y="-114.7"/>
<text text-anchor="start" x="219" y="-104.8" font-family="Helvetica,sans-Serif" font-size="11.00" fill="#000000">PREFERRED_NAME</text>
<polygon fill="none" stroke="#000000" points="199,-75.7 199,-97.7 417,-97.7 417,-75.7 199,-75.7"/>
<image xlink:href="../../images/primaryKeys.png" width="11px" height="12px" preserveAspectRatio="xMinYMin meet" x="204" y="-92.7"/>
<text text-anchor="start" x="219" y="-82.8" font-family="Helvetica,sans-Serif" font-size="11.00" fill="#000000">GENDER_IDENTITY_ID</text>
<polygon fill="none" stroke="#000000" points="199,-56.7 199,-75.7 417,-75.7 417,-56.7 199,-56.7"/>
<text text-anchor="start" x="202" y="-62.8" font-family="Helvetica,sans-Serif" font-size="11.00" fill="#000000">...</text>
<polygon fill="#ffffff" stroke="transparent" points="199,-37.7 199,-56.7 272,-56.7 272,-37.7 199,-37.7"/>
<polygon fill="none" stroke="#000000" points="199,-37.7 199,-56.7 272,-56.7 272,-37.7 199,-37.7"/>
<text text-anchor="start" x="202" y="-43.8" font-family="Helvetica,sans-Serif" font-size="11.00" fill="#000000">&lt; 16</text>
<polygon fill="#ffffff" stroke="transparent" points="272,-37.7 272,-56.7 367,-56.7 367,-37.7 272,-37.7"/>
<polygon fill="none" stroke="#000000" points="272,-37.7 272,-56.7 367,-56.7 367,-37.7 272,-37.7"/>
<text text-anchor="start" x="297.9791" y="-43.8" font-family="Helvetica,sans-Serif" font-size="11.00" fill="#000000">494,119 rows</text>
<polygon fill="#ffffff" stroke="transparent" points="367,-37.7 367,-56.7 417,-56.7 417,-37.7 367,-37.7"/>
<polygon fill="none" stroke="#000000" points="367,-37.7 367,-56.7 417,-56.7 417,-37.7 367,-37.7"/>
<text text-anchor="start" x="392.2904" y="-43.8" font-family="Helvetica,sans-Serif" font-size="11.00" fill="#000000">96 &gt;</text>
</a>
</g>
</g>
<!-- PARTITION_AREA -->
<g id="node2" class="node">
<title>PARTITION_AREA</title>
<g id="a_node2"><a xlink:href="../../tables/PARTITION_AREA.html" xlink:title="PARTITION_AREA" target="_top">
<polygon fill="#ffffff" stroke="transparent" points="8,-918.2 8,-1023.2 150,-1023.2 150,-918.2 8,-918.2"/>
<polygon fill="#f5f5f5" stroke="transparent" points="8,-999.7 8,-1022.7 150,-1022.7 150,-999.7 8,-999.7"/>
<polygon fill="none" stroke="#000000" points="8,-999.7 8,-1022.7 150,-1022.7 150,-999.7 8,-999.7"/>
<text text-anchor="start" x="13" y="-1008.8" font-family="Helvetica,sans-Serif" font-weight="bold" font-size="11.00" fill="#000000">PARTITION_AREA</text>
<text text-anchor="start" x="115.0437" y="-1007.8" font-family="Helvetica,sans-Serif" font-size="11.00" fill="#000000">[table]</text>
<polygon fill="none" stroke="#000000" points="8,-977.7 8,-999.7 150,-999.7 150,-977.7 8,-977.7"/>
<image xlink:href="../../images/primaryKeys.png" width="11px" height="12px" preserveAspectRatio="xMinYMin meet" x="13" y="-994.7"/>
<text text-anchor="start" x="28" y="-984.8" font-family="Helvetica,sans-Serif" font-size="11.00" fill="#000000">PARTITION_AREA_ID</text>
<polygon fill="none" stroke="#000000" points="8,-955.7 8,-977.7 150,-977.7 150,-955.7 8,-955.7"/>
<image xlink:href="../../images/primaryKeys.png" width="11px" height="12px" preserveAspectRatio="xMinYMin meet" x="13" y="-972.7"/>
<text text-anchor="start" x="24.1624" y="-962.8" font-family="Helvetica,sans-Serif" font-size="11.00" fill="#000000">TRAINING_SESSION_ID</text>
<polygon fill="none" stroke="#000000" points="8,-936.7 8,-955.7 150,-955.7 150,-936.7 8,-936.7"/>
<text text-anchor="start" x="11" y="-942.8" font-family="Helvetica,sans-Serif" font-size="11.00" fill="#000000">...</text>
<polygon fill="#ffffff" stroke="transparent" points="8,-917.7 8,-936.7 49,-936.7 49,-917.7 8,-917.7"/>
<polygon fill="none" stroke="#000000" points="8,-917.7 8,-936.7 49,-936.7 49,-917.7 8,-917.7"/>
<text text-anchor="start" x="11" y="-923.8" font-family="Helvetica,sans-Serif" font-size="11.00" fill="#000000"> &#160;</text>
<polygon fill="#ffffff" stroke="transparent" points="49,-917.7 49,-936.7 108,-936.7 108,-917.7 49,-917.7"/>
<polygon fill="none" stroke="#000000" points="49,-917.7 49,-936.7 108,-936.7 108,-917.7 49,-917.7"/>
<text text-anchor="start" x="66.4956" y="-923.8" font-family="Helvetica,sans-Serif" font-size="11.00" fill="#000000">44 rows</text>
<polygon fill="#ffffff" stroke="transparent" points="108,-917.7 108,-936.7 150,-936.7 150,-917.7 108,-917.7"/>
<polygon fill="none" stroke="#000000" points="108,-917.7 108,-936.7 150,-936.7 150,-917.7 108,-917.7"/>
<text text-anchor="start" x="125.2904" y="-923.8" font-family="Helvetica,sans-Serif" font-size="11.00" fill="#000000">82 &gt;</text>
</a>
</g>
</g>
<!-- OFFENDER&#45;&gt;PARTITION_AREA -->
<g id="edge1" class="edge">
<title>OFFENDER:w&#45;&gt;PARTITION_AREA:e</title>
<path fill="none" stroke="#000000" d="M184.6327,-593.6998C39.1544,-615.5632 322.1467,-988.7 150,-988.7"/>
<polygon fill="#000000" stroke="#000000" points="191.0193,-593.2554 199.2499,-596.2913 195.0096,-592.9777 199,-592.7 199,-592.7 199,-592.7 195.0096,-592.9777 198.7501,-589.1087 191.0193,-593.2554 191.0193,-593.2554"/>
<ellipse fill="none" stroke="#000000" cx="187.827" cy="-593.4776" rx="3.2" ry="3.2"/>
</g>
<!-- RECALL -->
<g id="node3" class="node">
<title>RECALL</title>
<g id="a_node3"><a xlink:href="../../tables/RECALL.html" xlink:title="RECALL" target="_top">
<polygon fill="#ffffff" stroke="transparent" points="704,-971.7 704,-1347.7 999,-1347.7 999,-971.7 704,-971.7"/>
<polygon fill="#f5f5f5" stroke="transparent" points="706.5,-1322.7 706.5,-1345.7 997.5,-1345.7 997.5,-1322.7 706.5,-1322.7"/>
<polygon fill="none" stroke="#000000" points="706.5,-1322.7 706.5,-1345.7 997.5,-1345.7 997.5,-1322.7 706.5,-1322.7"/>
<text text-anchor="start" x="711.5" y="-1331.8" font-family="Helvetica,sans-Serif" font-weight="bold" font-size="11.00" fill="#000000">RECALL</text>
<text text-anchor="start" x="962.5437" y="-1330.8" font-family="Helvetica,sans-Serif" font-size="11.00" fill="#000000">[table]</text>
<polygon fill="none" stroke="#000000" points="706.5,-1300.7 706.5,-1322.7 867.5,-1322.7 867.5,-1300.7 706.5,-1300.7"/>
<image xlink:href="../../images/primaryKeys.png" width="11px" height="12px" preserveAspectRatio="xMinYMin meet" x="711.5" y="-1317.7"/>
<text text-anchor="start" x="726.5" y="-1307.8" font-family="Helvetica,sans-Serif" font-size="11.00" fill="#000000">RECALL_ID</text>
<polygon fill="none" stroke="#000000" points="867.5,-1300.7 867.5,-1322.7 997.5,-1322.7 997.5,-1300.7 867.5,-1300.7"/>
<text text-anchor="start" x="870.5" y="-1308.4" font-family="Helvetica,sans-Serif" font-size="11.00" fill="#000000">number[38]</text>
<polygon fill="none" stroke="#000000" points="706.5,-1278.7 706.5,-1300.7 867.5,-1300.7 867.5,-1278.7 706.5,-1278.7"/>
<image xlink:href="../../images/primaryKeys.png" width="11px" height="12px" preserveAspectRatio="xMinYMin meet" x="711.5" y="-1295.7"/>
<text text-anchor="start" x="726.5" y="-1285.8" font-family="Helvetica,sans-Serif" font-size="11.00" fill="#000000">RECALL_DATE</text>
<polygon fill="none" stroke="#000000" points="867.5,-1278.7 867.5,-1300.7 997.5,-1300.7 997.5,-1278.7 867.5,-1278.7"/>
<text text-anchor="start" x="870.5" y="-1286.4" font-family="Helvetica,sans-Serif" font-size="11.00" fill="#000000">date[7]</text>
<polygon fill="none" stroke="#000000" points="706.5,-1256.7 706.5,-1278.7 867.5,-1278.7 867.5,-1256.7 706.5,-1256.7"/>
<text text-anchor="start" x="726.5" y="-1263.8" font-family="Helvetica,sans-Serif" font-size="11.00" fill="#000000">NOTES</text>
<polygon fill="none" stroke="#000000" points="867.5,-1256.7 867.5,-1278.7 997.5,-1278.7 997.5,-1256.7 867.5,-1256.7"/>
<text text-anchor="start" x="870.5" y="-1264.4" font-family="Helvetica,sans-Serif" font-size="11.00" fill="#000000">clob[4000]</text>
<polygon fill="none" stroke="#000000" points="706.5,-1234.7 706.5,-1256.7 867.5,-1256.7 867.5,-1234.7 706.5,-1234.7"/>
<image xlink:href="../../images/primaryKeys.png" width="11px" height="12px" preserveAspectRatio="xMinYMin meet" x="711.5" y="-1251.7"/>
<text text-anchor="start" x="726.5" y="-1241.8" font-family="Helvetica,sans-Serif" font-size="11.00" fill="#000000">PARTITION_AREA_ID</text>
<polygon fill="none" stroke="#000000" points="867.5,-1234.7 867.5,-1256.7 997.5,-1256.7 997.5,-1234.7 867.5,-1234.7"/>
<text text-anchor="start" x="870.5" y="-1242.4" font-family="Helvetica,sans-Serif" font-size="11.00" fill="#000000">number[38]</text>
<polygon fill="none" stroke="#000000" points="706.5,-1212.7 706.5,-1234.7 867.5,-1234.7 867.5,-1212.7 706.5,-1212.7"/>
<image xlink:href="../../images/primaryKeys.png" width="11px" height="12px" preserveAspectRatio="xMinYMin meet" x="711.5" y="-1229.7"/>
<text text-anchor="start" x="726.5" y="-1219.8" font-family="Helvetica,sans-Serif" font-size="11.00" fill="#000000">SOFT_DELETED</text>
<polygon fill="none" stroke="#000000" points="867.5,-1212.7 867.5,-1234.7 997.5,-1234.7 997.5,-1212.7 867.5,-1212.7"/>
<text text-anchor="start" x="870.5" y="-1220.4" font-family="Helvetica,sans-Serif" font-size="11.00" fill="#000000">number[38]</text>
<polygon fill="none" stroke="#000000" points="706.5,-1190.7 706.5,-1212.7 867.5,-1212.7 867.5,-1190.7 706.5,-1190.7"/>
<text text-anchor="start" x="726.5" y="-1197.8" font-family="Helvetica,sans-Serif" font-size="11.00" fill="#000000">ROW_VERSION</text>
<polygon fill="none" stroke="#000000" points="867.5,-1190.7 867.5,-1212.7 997.5,-1212.7 997.5,-1190.7 867.5,-1190.7"/>
<text text-anchor="start" x="870.5" y="-1198.4" font-family="Helvetica,sans-Serif" font-size="11.00" fill="#000000">number[38]</text>
<polygon fill="none" stroke="#000000" points="706.5,-1168.7 706.5,-1190.7 867.5,-1190.7 867.5,-1168.7 706.5,-1168.7"/>
<text text-anchor="start" x="726.5" y="-1175.8" font-family="Helvetica,sans-Serif" font-size="11.00" fill="#000000">CREATED_BY_USER_ID</text>
<polygon fill="none" stroke="#000000" points="867.5,-1168.7 867.5,-1190.7 997.5,-1190.7 997.5,-1168.7 867.5,-1168.7"/>
<text text-anchor="start" x="870.5" y="-1176.4" font-family="Helvetica,sans-Serif" font-size="11.00" fill="#000000">number[38]</text>
<polygon fill="none" stroke="#000000" points="706.5,-1146.7 706.5,-1168.7 867.5,-1168.7 867.5,-1146.7 706.5,-1146.7"/>
<text text-anchor="start" x="724.5235" y="-1153.8" font-family="Helvetica,sans-Serif" font-size="11.00" fill="#000000">LAST_UPDATED_USER_ID</text>
<polygon fill="none" stroke="#000000" points="867.5,-1146.7 867.5,-1168.7 997.5,-1168.7 997.5,-1146.7 867.5,-1146.7"/>
<text text-anchor="start" x="870.5" y="-1154.4" font-family="Helvetica,sans-Serif" font-size="11.00" fill="#000000">number[38]</text>
<polygon fill="none" stroke="#000000" points="706.5,-1124.7 706.5,-1146.7 867.5,-1146.7 867.5,-1124.7 706.5,-1124.7"/>
<image xlink:href="../../images/primaryKeys.png" width="11px" height="12px" preserveAspectRatio="xMinYMin meet" x="711.5" y="-1141.7"/>
<text text-anchor="start" x="726.5" y="-1131.8" font-family="Helvetica,sans-Serif" font-size="11.00" fill="#000000">CREATED_DATETIME</text>
<polygon fill="none" stroke="#000000" points="867.5,-1124.7 867.5,-1146.7 997.5,-1146.7 997.5,-1124.7 867.5,-1124.7"/>
<text text-anchor="start" x="870.5" y="-1132.4" font-family="Helvetica,sans-Serif" font-size="11.00" fill="#000000">date[7]</text>
<polygon fill="none" stroke="#000000" points="706.5,-1102.7 706.5,-1124.7 867.5,-1124.7 867.5,-1102.7 706.5,-1102.7"/>
<text text-anchor="start" x="720.5531" y="-1109.8" font-family="Helvetica,sans-Serif" font-size="11.00" fill="#000000">LAST_UPDATED_DATETIME</text>
<polygon fill="none" stroke="#000000" points="867.5,-1102.7 867.5,-1124.7 997.5,-1124.7 997.5,-1102.7 867.5,-1102.7"/>
<text text-anchor="start" x="870.5" y="-1110.4" font-family="Helvetica,sans-Serif" font-size="11.00" fill="#000000">date[7]</text>
<polygon fill="none" stroke="#000000" points="706.5,-1080.7 706.5,-1102.7 867.5,-1102.7 867.5,-1080.7 706.5,-1080.7"/>
<image xlink:href="../../images/primaryKeys.png" width="11px" height="12px" preserveAspectRatio="xMinYMin meet" x="711.5" y="-1097.7"/>
<text text-anchor="start" x="726.5" y="-1087.8" font-family="Helvetica,sans-Serif" font-size="11.00" fill="#000000">TRAINING_SESSION_ID</text>
<polygon fill="none" stroke="#000000" points="867.5,-1080.7 867.5,-1102.7 997.5,-1102.7 997.5,-1080.7 867.5,-1080.7"/>
<text text-anchor="start" x="870.5" y="-1088.4" font-family="Helvetica,sans-Serif" font-size="11.00" fill="#000000">number[38]</text>
<polygon fill="none" stroke="#000000" points="706.5,-1058.7 706.5,-1080.7 867.5,-1080.7 867.5,-1058.7 706.5,-1058.7"/>
<image xlink:href="../../images/primaryKeys.png" width="11px" height="12px" preserveAspectRatio="xMinYMin meet" x="711.5" y="-1075.7"/>
<text text-anchor="start" x="726.5" y="-1065.8" font-family="Helvetica,sans-Serif" font-size="11.00" fill="#000000">RECALL_REASON_ID</text>
<polygon fill="none" stroke="#000000" points="867.5,-1058.7 867.5,-1080.7 997.5,-1080.7 997.5,-1058.7 867.5,-1058.7"/>
<text text-anchor="start" x="870.5" y="-1066.4" font-family="Helvetica,sans-Serif" font-size="11.00" fill="#000000">number[38]</text>
<polygon fill="none" stroke="#000000" points="706.5,-1036.7 706.5,-1058.7 867.5,-1058.7 867.5,-1036.7 706.5,-1036.7"/>
<image xlink:href="../../images/primaryKeys.png" width="11px" height="12px" preserveAspectRatio="xMinYMin meet" x="711.5" y="-1053.7"/>
<text text-anchor="start" x="726.5" y="-1043.8" font-family="Helvetica,sans-Serif" font-size="11.00" fill="#000000">RELEASE_ID</text>
<polygon fill="none" stroke="#000000" points="867.5,-1036.7 867.5,-1058.7 997.5,-1058.7 997.5,-1036.7 867.5,-1036.7"/>
<text text-anchor="start" x="870.5" y="-1044.4" font-family="Helvetica,sans-Serif" font-size="11.00" fill="#000000">number[38]</text>
<polygon fill="none" stroke="#000000" points="706.5,-1014.7 706.5,-1036.7 867.5,-1036.7 867.5,-1014.7 706.5,-1014.7"/>
<image xlink:href="../../images/primaryKeys.png" width="11px" height="12px" preserveAspectRatio="xMinYMin meet" x="711.5" y="-1031.7"/>
<text text-anchor="start" x="726.5" y="-1021.8" font-family="Helvetica,sans-Serif" font-size="11.00" fill="#000000">OFFENDER_ID</text>
<polygon fill="none" stroke="#000000" points="867.5,-1014.7 867.5,-1036.7 997.5,-1036.7 997.5,-1014.7 867.5,-1014.7"/>
<text text-anchor="start" x="870.5" y="-1022.4" font-family="Helvetica,sans-Serif" font-size="11.00" fill="#000000">number[38]</text>
<polygon fill="none" stroke="#000000" points="706.5,-992.7 706.5,-1014.7 867.5,-1014.7 867.5,-992.7 706.5,-992.7"/>
<text text-anchor="start" x="726.5" y="-999.8" font-family="Helvetica,sans-Serif" font-size="11.00" fill="#000000">ORGANISATIONS</text>
<polygon fill="none" stroke="#000000" points="867.5,-992.7 867.5,-1014.7 997.5,-1014.7 997.5,-992.7 867.5,-992.7"/>
<text text-anchor="start" x="870.1482" y="-1000.4" font-family="Helvetica,sans-Serif" font-size="11.00" fill="#000000">t_arr_organisations[3752]</text>
<polygon fill="#ffffff" stroke="transparent" points="706.5,-973.7 706.5,-992.7 775.5,-992.7 775.5,-973.7 706.5,-973.7"/>
<polygon fill="none" stroke="#000000" points="706.5,-973.7 706.5,-992.7 775.5,-992.7 775.5,-973.7 706.5,-973.7"/>
<text text-anchor="start" x="709.5" y="-979.8" font-family="Helvetica,sans-Serif" font-size="11.00" fill="#000000">&lt; 4</text>
<polygon fill="#ffffff" stroke="transparent" points="775.5,-973.7 775.5,-992.7 867.5,-992.7 867.5,-973.7 775.5,-973.7"/>
<polygon fill="none" stroke="#000000" points="775.5,-973.7 775.5,-992.7 867.5,-992.7 867.5,-973.7 775.5,-973.7"/>
<text text-anchor="start" x="825.9956" y="-979.8" font-family="Helvetica,sans-Serif" font-size="11.00" fill="#000000">70 rows</text>
<polygon fill="#ffffff" stroke="transparent" points="867.5,-973.7 867.5,-992.7 997.5,-992.7 997.5,-973.7 867.5,-973.7"/>
<polygon fill="none" stroke="#000000" points="867.5,-973.7 867.5,-992.7 997.5,-992.7 997.5,-973.7 867.5,-973.7"/>
<text text-anchor="start" x="978.9053" y="-979.8" font-family="Helvetica,sans-Serif" font-size="11.00" fill="#000000">0 &gt;</text>
<polygon fill="none" stroke="#000000" stroke-width="2" points="705,-972.7 705,-1346.7 998,-1346.7 998,-972.7 705,-972.7"/>
</a>
</g>
</g>
<!-- RECALL&#45;&gt;OFFENDER -->
<g id="edge2" class="edge">
<title>RECALL:w&#45;&gt;OFFENDER:e</title>
<path fill="none" stroke="#000000" d="M692.9005,-1020.8891C651.5329,-985.9422 708.8999,-771.3083 663,-731.7 594.0208,-672.176 531.7849,-678.2489 458,-731.7 410.6509,-766.0006 475.4677,-856.7 417,-856.7"/>
<polygon fill="#000000" stroke="#000000" points="698.958,-1023.0319 705.2994,-1029.0939 702.729,-1024.366 706.5,-1025.7 706.5,-1025.7 706.5,-1025.7 702.729,-1024.366 707.7006,-1022.3061 698.958,-1023.0319 698.958,-1023.0319"/>
<ellipse fill="none" stroke="#000000" cx="695.9412" cy="-1021.9647" rx="3.2" ry="3.2"/>
</g>
<!-- RECALL&#45;&gt;PARTITION_AREA -->
<g id="edge3" class="edge">
<title>RECALL:w&#45;&gt;PARTITION_AREA:e</title>
<path fill="none" stroke="#000000" d="M692.0633,-1245.9305C592.8315,-1249.1218 557.1057,-1283.8311 458,-1247.7 373.9818,-1217.0694 239.4275,-988.7 150,-988.7"/>
<polygon fill="#000000" stroke="#000000" points="698.501,-1245.8278 706.5575,-1249.2995 702.5005,-1245.7639 706.5,-1245.7 706.5,-1245.7 706.5,-1245.7 702.5005,-1245.7639 706.4425,-1242.1005 698.501,-1245.8278 698.501,-1245.8278"/>
<ellipse fill="none" stroke="#000000" cx="695.3014" cy="-1245.8789" rx="3.2" ry="3.2"/>
</g>
<!-- R_RECALL_REASON -->
<g id="node4" class="node">
<title>R_RECALL_REASON</title>
<g id="a_node4"><a xlink:href="../../tables/R_RECALL_REASON.html" xlink:title="R_RECALL_REASON" target="_top">
<polygon fill="#ffffff" stroke="transparent" points="466,-1088.2 466,-1237.2 655,-1237.2 655,-1088.2 466,-1088.2"/>
<polygon fill="#f5f5f5" stroke="transparent" points="466.5,-1213.7 466.5,-1236.7 655.5,-1236.7 655.5,-1213.7 466.5,-1213.7"/>
<polygon fill="none" stroke="#000000" points="466.5,-1213.7 466.5,-1236.7 655.5,-1236.7 655.5,-1213.7 466.5,-1213.7"/>
<text text-anchor="start" x="471.5" y="-1222.8" font-family="Helvetica,sans-Serif" font-weight="bold" font-size="11.00" fill="#000000">R_RECALL_REASON</text>
<text text-anchor="start" x="620.5437" y="-1221.8" font-family="Helvetica,sans-Serif" font-size="11.00" fill="#000000">[table]</text>
<polygon fill="none" stroke="#000000" points="466.5,-1191.7 466.5,-1213.7 655.5,-1213.7 655.5,-1191.7 466.5,-1191.7"/>
<image xlink:href="../../images/primaryKeys.png" width="11px" height="12px" preserveAspectRatio="xMinYMin meet" x="471.5" y="-1208.7"/>
<text text-anchor="start" x="486.5" y="-1198.8" font-family="Helvetica,sans-Serif" font-size="11.00" fill="#000000">RECALL_REASON_ID</text>
<polygon fill="none" stroke="#000000" points="466.5,-1169.7 466.5,-1191.7 655.5,-1191.7 655.5,-1169.7 466.5,-1169.7"/>
<image xlink:href="../../images/primaryKeys.png" width="11px" height="12px" preserveAspectRatio="xMinYMin meet" x="471.5" y="-1186.7"/>
<text text-anchor="start" x="486.5" y="-1176.8" font-family="Helvetica,sans-Serif" font-size="11.00" fill="#000000">CODE</text>
<polygon fill="none" stroke="#000000" points="466.5,-1147.7 466.5,-1169.7 655.5,-1169.7 655.5,-1147.7 466.5,-1147.7"/>
<image xlink:href="../../images/primaryKeys.png" width="11px" height="12px" preserveAspectRatio="xMinYMin meet" x="471.5" y="-1164.7"/>
<text text-anchor="start" x="486.5" y="-1154.8" font-family="Helvetica,sans-Serif" font-size="11.00" fill="#000000">TRAINING_SESSION_ID</text>
<polygon fill="none" stroke="#000000" points="466.5,-1125.7 466.5,-1147.7 655.5,-1147.7 655.5,-1125.7 466.5,-1125.7"/>
<image xlink:href="../../images/primaryKeys.png" width="11px" height="12px" preserveAspectRatio="xMinYMin meet" x="471.5" y="-1142.7"/>
<text text-anchor="start" x="486.5" y="-1132.8" font-family="Helvetica,sans-Serif" font-size="11.00" fill="#000000">TERMINATION_REASON_ID</text>
<polygon fill="none" stroke="#000000" points="466.5,-1106.7 466.5,-1125.7 655.5,-1125.7 655.5,-1106.7 466.5,-1106.7"/>
<text text-anchor="start" x="469.5" y="-1112.8" font-family="Helvetica,sans-Serif" font-size="11.00" fill="#000000">...</text>
<polygon fill="#ffffff" stroke="transparent" points="466.5,-1087.7 466.5,-1106.7 538.5,-1106.7 538.5,-1087.7 466.5,-1087.7"/>
<polygon fill="none" stroke="#000000" points="466.5,-1087.7 466.5,-1106.7 538.5,-1106.7 538.5,-1087.7 466.5,-1087.7"/>
<text text-anchor="start" x="469.5" y="-1093.8" font-family="Helvetica,sans-Serif" font-size="11.00" fill="#000000">&lt; 1</text>
<polygon fill="#ffffff" stroke="transparent" points="538.5,-1087.7 538.5,-1106.7 608.5,-1106.7 608.5,-1087.7 538.5,-1087.7"/>
<polygon fill="none" stroke="#000000" points="538.5,-1087.7 538.5,-1106.7 608.5,-1106.7 608.5,-1087.7 538.5,-1087.7"/>
<text text-anchor="start" x="566.9956" y="-1093.8" font-family="Helvetica,sans-Serif" font-size="11.00" fill="#000000">30 rows</text>
<polygon fill="#ffffff" stroke="transparent" points="608.5,-1087.7 608.5,-1106.7 655.5,-1106.7 655.5,-1087.7 608.5,-1087.7"/>
<polygon fill="none" stroke="#000000" points="608.5,-1087.7 608.5,-1106.7 655.5,-1106.7 655.5,-1087.7 608.5,-1087.7"/>
<text text-anchor="start" x="636.9053" y="-1093.8" font-family="Helvetica,sans-Serif" font-size="11.00" fill="#000000">1 &gt;</text>
</a>
</g>
</g>
<!-- RECALL&#45;&gt;R_RECALL_REASON -->
<g id="edge4" class="edge">
<title>RECALL:w&#45;&gt;R_RECALL_REASON:e</title>
<path fill="none" stroke="#000000" d="M692.1287,-1072.9877C656.149,-1093.4686 712.8729,-1202.7 655.5,-1202.7"/>
<polygon fill="#000000" stroke="#000000" points="698.7015,-1071.4841 707.3028,-1073.2093 702.6007,-1070.592 706.5,-1069.7 706.5,-1069.7 706.5,-1069.7 702.6007,-1070.592 705.6972,-1066.1907 698.7015,-1071.4841 698.7015,-1071.4841"/>
<ellipse fill="none" stroke="#000000" cx="695.582" cy="-1072.1977" rx="3.2" ry="3.2"/>
</g>
<!-- RELEASE -->
<g id="node5" class="node">
<title>RELEASE</title>
<g id="a_node5"><a xlink:href="../../tables/RELEASE.html" xlink:title="RELEASE" target="_top">
<polygon fill="#ffffff" stroke="transparent" points="480,-742.2 480,-1067.2 641,-1067.2 641,-742.2 480,-742.2"/>
<polygon fill="#f5f5f5" stroke="transparent" points="480.5,-1043.7 480.5,-1066.7 641.5,-1066.7 641.5,-1043.7 480.5,-1043.7"/>
<polygon fill="none" stroke="#000000" points="480.5,-1043.7 480.5,-1066.7 641.5,-1066.7 641.5,-1043.7 480.5,-1043.7"/>
<text text-anchor="start" x="485.5" y="-1052.8" font-family="Helvetica,sans-Serif" font-weight="bold" font-size="11.00" fill="#000000">RELEASE</text>
<text text-anchor="start" x="606.5437" y="-1051.8" font-family="Helvetica,sans-Serif" font-size="11.00" fill="#000000">[table]</text>
<polygon fill="none" stroke="#000000" points="480.5,-1021.7 480.5,-1043.7 641.5,-1043.7 641.5,-1021.7 480.5,-1021.7"/>
<image xlink:href="../../images/primaryKeys.png" width="11px" height="12px" preserveAspectRatio="xMinYMin meet" x="485.5" y="-1038.7"/>
<text text-anchor="start" x="500.5" y="-1028.8" font-family="Helvetica,sans-Serif" font-size="11.00" fill="#000000">RELEASE_ID</text>
<polygon fill="none" stroke="#000000" points="480.5,-999.7 480.5,-1021.7 641.5,-1021.7 641.5,-999.7 480.5,-999.7"/>
<image xlink:href="../../images/primaryKeys.png" width="11px" height="12px" preserveAspectRatio="xMinYMin meet" x="485.5" y="-1016.7"/>
<text text-anchor="start" x="500.5" y="-1006.8" font-family="Helvetica,sans-Serif" font-size="11.00" fill="#000000">ACTUAL_RELEASE_DATE</text>
<polygon fill="none" stroke="#000000" points="480.5,-977.7 480.5,-999.7 641.5,-999.7 641.5,-977.7 480.5,-977.7"/>
<image xlink:href="../../images/primaryKeys.png" width="11px" height="12px" preserveAspectRatio="xMinYMin meet" x="485.5" y="-994.7"/>
<text text-anchor="start" x="500.5" y="-984.8" font-family="Helvetica,sans-Serif" font-size="11.00" fill="#000000">PARTITION_AREA_ID</text>
<polygon fill="none" stroke="#000000" points="480.5,-955.7 480.5,-977.7 641.5,-977.7 641.5,-955.7 480.5,-955.7"/>
<image xlink:href="../../images/primaryKeys.png" width="11px" height="12px" preserveAspectRatio="xMinYMin meet" x="485.5" y="-972.7"/>
<text text-anchor="start" x="500.5" y="-962.8" font-family="Helvetica,sans-Serif" font-size="11.00" fill="#000000">SOFT_DELETED</text>
<polygon fill="none" stroke="#000000" points="480.5,-933.7 480.5,-955.7 641.5,-955.7 641.5,-933.7 480.5,-933.7"/>
<image xlink:href="../../images/primaryKeys.png" width="11px" height="12px" preserveAspectRatio="xMinYMin meet" x="485.5" y="-950.7"/>
<text text-anchor="start" x="500.5" y="-940.8" font-family="Helvetica,sans-Serif" font-size="11.00" fill="#000000">RELEASE_TYPE_ID</text>
<polygon fill="none" stroke="#000000" points="480.5,-911.7 480.5,-933.7 641.5,-933.7 641.5,-911.7 480.5,-911.7"/>
<image xlink:href="../../images/primaryKeys.png" width="11px" height="12px" preserveAspectRatio="xMinYMin meet" x="485.5" y="-928.7"/>
<text text-anchor="start" x="500.5" y="-918.8" font-family="Helvetica,sans-Serif" font-size="11.00" fill="#000000">CUSTODY_ID</text>
<polygon fill="none" stroke="#000000" points="480.5,-889.7 480.5,-911.7 641.5,-911.7 641.5,-889.7 480.5,-889.7"/>
<image xlink:href="../../images/primaryKeys.png" width="11px" height="12px" preserveAspectRatio="xMinYMin meet" x="485.5" y="-906.7"/>
<text text-anchor="start" x="500.5" y="-896.8" font-family="Helvetica,sans-Serif" font-size="11.00" fill="#000000">CREATED_DATETIME</text>
<polygon fill="none" stroke="#000000" points="480.5,-867.7 480.5,-889.7 641.5,-889.7 641.5,-867.7 480.5,-867.7"/>
<image xlink:href="../../images/primaryKeys.png" width="11px" height="12px" preserveAspectRatio="xMinYMin meet" x="485.5" y="-884.7"/>
<text text-anchor="start" x="500.5" y="-874.8" font-family="Helvetica,sans-Serif" font-size="11.00" fill="#000000">TRAINING_SESSION_ID</text>
<polygon fill="none" stroke="#000000" points="480.5,-845.7 480.5,-867.7 641.5,-867.7 641.5,-845.7 480.5,-845.7"/>
<image xlink:href="../../images/primaryKeys.png" width="11px" height="12px" preserveAspectRatio="xMinYMin meet" x="485.5" y="-862.7"/>
<text text-anchor="start" x="500.5" y="-852.8" font-family="Helvetica,sans-Serif" font-size="11.00" fill="#000000">OFFENDER_ID</text>
<polygon fill="none" stroke="#000000" points="480.5,-823.7 480.5,-845.7 641.5,-845.7 641.5,-823.7 480.5,-823.7"/>
<image xlink:href="../../images/primaryKeys.png" width="11px" height="12px" preserveAspectRatio="xMinYMin meet" x="485.5" y="-840.7"/>
<text text-anchor="start" x="500.5" y="-830.8" font-family="Helvetica,sans-Serif" font-size="11.00" fill="#000000">INSTITUTION_ID</text>
<polygon fill="none" stroke="#000000" points="480.5,-801.7 480.5,-823.7 641.5,-823.7 641.5,-801.7 480.5,-801.7"/>
<image xlink:href="../../images/primaryKeys.png" width="11px" height="12px" preserveAspectRatio="xMinYMin meet" x="485.5" y="-818.7"/>
<text text-anchor="start" x="500.5" y="-808.8" font-family="Helvetica,sans-Serif" font-size="11.00" fill="#000000">ESTABLISHMENT</text>
<polygon fill="none" stroke="#000000" points="480.5,-779.7 480.5,-801.7 641.5,-801.7 641.5,-779.7 480.5,-779.7"/>
<image xlink:href="../../images/primaryKeys.png" width="11px" height="12px" preserveAspectRatio="xMinYMin meet" x="485.5" y="-796.7"/>
<text text-anchor="start" x="500.5" y="-786.8" font-family="Helvetica,sans-Serif" font-size="11.00" fill="#000000">PROBATION_AREA_ID</text>
<polygon fill="none" stroke="#000000" points="480.5,-760.7 480.5,-779.7 641.5,-779.7 641.5,-760.7 480.5,-760.7"/>
<text text-anchor="start" x="483.5" y="-766.8" font-family="Helvetica,sans-Serif" font-size="11.00" fill="#000000">...</text>
<polygon fill="#ffffff" stroke="transparent" points="480.5,-741.7 480.5,-760.7 531.5,-760.7 531.5,-741.7 480.5,-741.7"/>
<polygon fill="none" stroke="#000000" points="480.5,-741.7 480.5,-760.7 531.5,-760.7 531.5,-741.7 480.5,-741.7"/>
<text text-anchor="start" x="483.5" y="-747.8" font-family="Helvetica,sans-Serif" font-size="11.00" fill="#000000">&lt; 7</text>
<polygon fill="#ffffff" stroke="transparent" points="531.5,-741.7 531.5,-760.7 605.5,-760.7 605.5,-741.7 531.5,-741.7"/>
<polygon fill="none" stroke="#000000" points="531.5,-741.7 531.5,-760.7 605.5,-760.7 605.5,-741.7 531.5,-741.7"/>
<text text-anchor="start" x="548.7089" y="-747.8" font-family="Helvetica,sans-Serif" font-size="11.00" fill="#000000">3,583 rows</text>
<polygon fill="#ffffff" stroke="transparent" points="605.5,-741.7 605.5,-760.7 641.5,-760.7 641.5,-741.7 605.5,-741.7"/>
<polygon fill="none" stroke="#000000" points="605.5,-741.7 605.5,-760.7 641.5,-760.7 641.5,-741.7 605.5,-741.7"/>
<text text-anchor="start" x="622.9053" y="-747.8" font-family="Helvetica,sans-Serif" font-size="11.00" fill="#000000">2 &gt;</text>
</a>
</g>
</g>
<!-- RECALL&#45;&gt;RELEASE -->
<g id="edge5" class="edge">
<title>RECALL:w&#45;&gt;RELEASE:e</title>
<path fill="none" stroke="#000000" d="M692.0326,-1046.3157C673.8712,-1042.6023 665.5891,-1032.7 641.5,-1032.7"/>
<polygon fill="#000000" stroke="#000000" points="698.5364,-1046.938 706.1571,-1051.2836 702.5182,-1047.319 706.5,-1047.7 706.5,-1047.7 706.5,-1047.7 702.5182,-1047.319 706.8429,-1044.1164 698.5364,-1046.938 698.5364,-1046.938"/>
<ellipse fill="none" stroke="#000000" cx="695.3509" cy="-1046.6332" rx="3.2" ry="3.2"/>
</g>
<!-- RELEASE&#45;&gt;OFFENDER -->
<g id="edge6" class="edge">
<title>RELEASE:w&#45;&gt;OFFENDER:e</title>
<path fill="none" stroke="#000000" d="M466.0705,-856.7C448.7143,-856.7 439.7101,-856.7 417,-856.7"/>
<polygon fill="#000000" stroke="#000000" points="472.5,-856.7001 480.5,-860.3 476.5,-856.7 480.5,-856.7 480.5,-856.7 480.5,-856.7 476.5,-856.7 480.5,-853.1 472.5,-856.7001 472.5,-856.7001"/>
<ellipse fill="none" stroke="#000000" cx="469.3" cy="-856.7001" rx="3.2" ry="3.2"/>
</g>
<!-- RELEASE&#45;&gt;PARTITION_AREA -->
<g id="edge7" class="edge">
<title>RELEASE:w&#45;&gt;PARTITION_AREA:e</title>
<path fill="none" stroke="#000000" d="M465.8155,-988.7C330.9721,-988.7 291.8683,-988.7 150,-988.7"/>
<polygon fill="#000000" stroke="#000000" points="472.5,-988.7001 480.5,-992.3 476.5,-988.7 480.5,-988.7 480.5,-988.7 480.5,-988.7 476.5,-988.7 480.5,-985.1 472.5,-988.7001 472.5,-988.7001"/>
<ellipse fill="none" stroke="#000000" cx="469.3" cy="-988.7001" rx="3.2" ry="3.2"/>
</g>
</g>
</svg>
