<?xml version="1.0" encoding="UTF-8" standalone="no"?>
<!DOCTYPE svg PUBLIC "-//W3C//DTD SVG 1.1//EN"
 "http://www.w3.org/Graphics/SVG/1.1/DTD/svg11.dtd">
<!-- Generated by graphviz version 2.40.1 (20161225.0304)
 -->
<!-- Title: oneDegreeRelationshipsDiagram Pages: 1 -->
<svg width="817pt" height="1081pt"
 viewBox="0.00 0.00 817.00 1080.70" xmlns="http://www.w3.org/2000/svg" xmlns:xlink="http://www.w3.org/1999/xlink">
<g id="graph0" class="graph" transform="scale(1 1) rotate(0) translate(4 1076.7)">
<title>oneDegreeRelationshipsDiagram</title>
<polygon fill="#ffffff" stroke="transparent" points="-4,4 -4,-1076.7 813,-1076.7 813,4 -4,4"/>
<text text-anchor="middle" x="72.4936" y="-7.3" font-family="Helvetica,sans-Serif" font-size="11.00" fill="#000000">Generated by SchemaSpy</text>
<!-- OFFENDER_MANAGER -->
<g id="node1" class="node">
<title>OFFENDER_MANAGER</title>
<g id="a_node1"><a xlink:href="../../tables/OFFENDER_MANAGER.html" xlink:title="OFFENDER_MANAGER" target="_top">
<polygon fill="#ffffff" stroke="transparent" points="298,-566.2 298,-1023.2 465,-1023.2 465,-566.2 298,-566.2"/>
<polygon fill="#f5f5f5" stroke="transparent" points="298.5,-999.7 298.5,-1022.7 465.5,-1022.7 465.5,-999.7 298.5,-999.7"/>
<polygon fill="none" stroke="#000000" points="298.5,-999.7 298.5,-1022.7 465.5,-1022.7 465.5,-999.7 298.5,-999.7"/>
<text text-anchor="start" x="303.5" y="-1008.8" font-family="Helvetica,sans-Serif" font-weight="bold" font-size="11.00" fill="#000000">OFFENDER_MANAGER</text>
<text text-anchor="start" x="430.5437" y="-1007.8" font-family="Helvetica,sans-Serif" font-size="11.00" fill="#000000">[table]</text>
<polygon fill="none" stroke="#000000" points="298.5,-977.7 298.5,-999.7 465.5,-999.7 465.5,-977.7 298.5,-977.7"/>
<image xlink:href="../../images/primaryKeys.png" width="11px" height="12px" preserveAspectRatio="xMinYMin meet" x="303.5" y="-994.7"/>
<text text-anchor="start" x="318.5" y="-984.8" font-family="Helvetica,sans-Serif" font-size="11.00" fill="#000000">OFFENDER_MANAGER_ID</text>
<polygon fill="none" stroke="#000000" points="298.5,-955.7 298.5,-977.7 465.5,-977.7 465.5,-955.7 298.5,-955.7"/>
<image xlink:href="../../images/primaryKeys.png" width="11px" height="12px" preserveAspectRatio="xMinYMin meet" x="303.5" y="-972.7"/>
<text text-anchor="start" x="318.5" y="-962.8" font-family="Helvetica,sans-Serif" font-size="11.00" fill="#000000">ALLOCATION_DATE</text>
<polygon fill="none" stroke="#000000" points="298.5,-933.7 298.5,-955.7 465.5,-955.7 465.5,-933.7 298.5,-933.7"/>
<image xlink:href="../../images/primaryKeys.png" width="11px" height="12px" preserveAspectRatio="xMinYMin meet" x="303.5" y="-950.7"/>
<text text-anchor="start" x="318.5" y="-940.8" font-family="Helvetica,sans-Serif" font-size="11.00" fill="#000000">END_DATE</text>
<polygon fill="none" stroke="#000000" points="298.5,-911.7 298.5,-933.7 465.5,-933.7 465.5,-911.7 298.5,-911.7"/>
<image xlink:href="../../images/primaryKeys.png" width="11px" height="12px" preserveAspectRatio="xMinYMin meet" x="303.5" y="-928.7"/>
<text text-anchor="start" x="318.5" y="-918.8" font-family="Helvetica,sans-Serif" font-size="11.00" fill="#000000">TEAM_ID</text>
<polygon fill="none" stroke="#000000" points="298.5,-889.7 298.5,-911.7 465.5,-911.7 465.5,-889.7 298.5,-889.7"/>
<image xlink:href="../../images/primaryKeys.png" width="11px" height="12px" preserveAspectRatio="xMinYMin meet" x="303.5" y="-906.7"/>
<text text-anchor="start" x="318.5" y="-896.8" font-family="Helvetica,sans-Serif" font-size="11.00" fill="#000000">ALLOCATION_STAFF_ID</text>
<polygon fill="none" stroke="#000000" points="298.5,-867.7 298.5,-889.7 465.5,-889.7 465.5,-867.7 298.5,-867.7"/>
<image xlink:href="../../images/primaryKeys.png" width="11px" height="12px" preserveAspectRatio="xMinYMin meet" x="303.5" y="-884.7"/>
<text text-anchor="start" x="318.5" y="-874.8" font-family="Helvetica,sans-Serif" font-size="11.00" fill="#000000">PARTITION_AREA_ID</text>
<polygon fill="none" stroke="#000000" points="298.5,-845.7 298.5,-867.7 465.5,-867.7 465.5,-845.7 298.5,-845.7"/>
<image xlink:href="../../images/primaryKeys.png" width="11px" height="12px" preserveAspectRatio="xMinYMin meet" x="303.5" y="-862.7"/>
<text text-anchor="start" x="318.5" y="-852.8" font-family="Helvetica,sans-Serif" font-size="11.00" fill="#000000">OFFENDER_ID</text>
<polygon fill="none" stroke="#000000" points="298.5,-823.7 298.5,-845.7 465.5,-845.7 465.5,-823.7 298.5,-823.7"/>
<image xlink:href="../../images/primaryKeys.png" width="11px" height="12px" preserveAspectRatio="xMinYMin meet" x="303.5" y="-840.7"/>
<text text-anchor="start" x="318.5" y="-830.8" font-family="Helvetica,sans-Serif" font-size="11.00" fill="#000000">SOFT_DELETED</text>
<polygon fill="none" stroke="#000000" points="298.5,-801.7 298.5,-823.7 465.5,-823.7 465.5,-801.7 298.5,-801.7"/>
<image xlink:href="../../images/primaryKeys.png" width="11px" height="12px" preserveAspectRatio="xMinYMin meet" x="303.5" y="-818.7"/>
<text text-anchor="start" x="318.5" y="-808.8" font-family="Helvetica,sans-Serif" font-size="11.00" fill="#000000">ALLOCATION_REASON_ID</text>
<polygon fill="none" stroke="#000000" points="298.5,-779.7 298.5,-801.7 465.5,-801.7 465.5,-779.7 298.5,-779.7"/>
<image xlink:href="../../images/primaryKeys.png" width="11px" height="12px" preserveAspectRatio="xMinYMin meet" x="303.5" y="-796.7"/>
<text text-anchor="start" x="318.5" y="-786.8" font-family="Helvetica,sans-Serif" font-size="11.00" fill="#000000">PROVIDER_EMPLOYEE_ID</text>
<polygon fill="none" stroke="#000000" points="298.5,-757.7 298.5,-779.7 465.5,-779.7 465.5,-757.7 298.5,-757.7"/>
<image xlink:href="../../images/primaryKeys.png" width="11px" height="12px" preserveAspectRatio="xMinYMin meet" x="303.5" y="-774.7"/>
<text text-anchor="start" x="318.0055" y="-764.8" font-family="Helvetica,sans-Serif" font-size="11.00" fill="#000000">OFFENDER_TRANSFER_ID</text>
<polygon fill="none" stroke="#000000" points="298.5,-735.7 298.5,-757.7 465.5,-757.7 465.5,-735.7 298.5,-735.7"/>
<image xlink:href="../../images/primaryKeys.png" width="11px" height="12px" preserveAspectRatio="xMinYMin meet" x="303.5" y="-752.7"/>
<text text-anchor="start" x="318.5" y="-742.8" font-family="Helvetica,sans-Serif" font-size="11.00" fill="#000000">PROVIDER_TEAM_ID</text>
<polygon fill="none" stroke="#000000" points="298.5,-713.7 298.5,-735.7 465.5,-735.7 465.5,-713.7 298.5,-713.7"/>
<image xlink:href="../../images/primaryKeys.png" width="11px" height="12px" preserveAspectRatio="xMinYMin meet" x="303.5" y="-730.7"/>
<text text-anchor="start" x="318.5" y="-720.8" font-family="Helvetica,sans-Serif" font-size="11.00" fill="#000000">TRAINING_SESSION_ID</text>
<polygon fill="none" stroke="#000000" points="298.5,-691.7 298.5,-713.7 465.5,-713.7 465.5,-691.7 298.5,-691.7"/>
<image xlink:href="../../images/primaryKeys.png" width="11px" height="12px" preserveAspectRatio="xMinYMin meet" x="303.5" y="-708.7"/>
<text text-anchor="start" x="318.5" y="-698.8" font-family="Helvetica,sans-Serif" font-size="11.00" fill="#000000">TRUST_PROVIDER_FLAG</text>
<polygon fill="none" stroke="#000000" points="298.5,-669.7 298.5,-691.7 465.5,-691.7 465.5,-669.7 298.5,-669.7"/>
<image xlink:href="../../images/primaryKeys.png" width="11px" height="12px" preserveAspectRatio="xMinYMin meet" x="303.5" y="-686.7"/>
<text text-anchor="start" x="318.5" y="-676.8" font-family="Helvetica,sans-Serif" font-size="11.00" fill="#000000">STAFF_EMPLOYEE_ID</text>
<polygon fill="none" stroke="#000000" points="298.5,-647.7 298.5,-669.7 465.5,-669.7 465.5,-647.7 298.5,-647.7"/>
<image xlink:href="../../images/primaryKeys.png" width="11px" height="12px" preserveAspectRatio="xMinYMin meet" x="303.5" y="-664.7"/>
<text text-anchor="start" x="318.5" y="-654.8" font-family="Helvetica,sans-Serif" font-size="11.00" fill="#000000">PROBATION_AREA_ID</text>
<polygon fill="none" stroke="#000000" points="298.5,-625.7 298.5,-647.7 465.5,-647.7 465.5,-625.7 298.5,-625.7"/>
<image xlink:href="../../images/primaryKeys.png" width="11px" height="12px" preserveAspectRatio="xMinYMin meet" x="303.5" y="-642.7"/>
<text text-anchor="start" x="312.5011" y="-632.8" font-family="Helvetica,sans-Serif" font-size="11.00" fill="#000000">TRUST_PROVIDER_TEAM_ID</text>
<polygon fill="none" stroke="#000000" points="298.5,-603.7 298.5,-625.7 465.5,-625.7 465.5,-603.7 298.5,-603.7"/>
<image xlink:href="../../images/primaryKeys.png" width="11px" height="12px" preserveAspectRatio="xMinYMin meet" x="303.5" y="-620.7"/>
<text text-anchor="start" x="318.5" y="-610.8" font-family="Helvetica,sans-Serif" font-size="11.00" fill="#000000">ACTIVE_FLAG</text>
<polygon fill="none" stroke="#000000" points="298.5,-584.7 298.5,-603.7 465.5,-603.7 465.5,-584.7 298.5,-584.7"/>
<text text-anchor="start" x="301.5" y="-590.8" font-family="Helvetica,sans-Serif" font-size="11.00" fill="#000000">...</text>
<polygon fill="#ffffff" stroke="transparent" points="298.5,-565.7 298.5,-584.7 352.5,-584.7 352.5,-565.7 298.5,-565.7"/>
<polygon fill="none" stroke="#000000" points="298.5,-565.7 298.5,-584.7 352.5,-584.7 352.5,-565.7 298.5,-565.7"/>
<text text-anchor="start" x="301.5" y="-571.8" font-family="Helvetica,sans-Serif" font-size="11.00" fill="#000000">&lt; 13</text>
<polygon fill="#ffffff" stroke="transparent" points="352.5,-565.7 352.5,-584.7 430.5,-584.7 430.5,-565.7 352.5,-565.7"/>
<polygon fill="none" stroke="#000000" points="352.5,-565.7 352.5,-584.7 430.5,-584.7 430.5,-565.7 352.5,-565.7"/>
<text text-anchor="start" x="367.594" y="-571.8" font-family="Helvetica,sans-Serif" font-size="11.00" fill="#000000">73,531 rows</text>
<polygon fill="#ffffff" stroke="transparent" points="430.5,-565.7 430.5,-584.7 465.5,-584.7 465.5,-565.7 430.5,-565.7"/>
<polygon fill="none" stroke="#000000" points="430.5,-565.7 430.5,-584.7 465.5,-584.7 465.5,-565.7 430.5,-565.7"/>
<text text-anchor="start" x="446.9053" y="-571.8" font-family="Helvetica,sans-Serif" font-size="11.00" fill="#000000">4 &gt;</text>
</a>
</g>
</g>
<!-- OFFENDER -->
<g id="node2" class="node">
<title>OFFENDER</title>
<g id="a_node2"><a xlink:href="../../tables/OFFENDER.html" xlink:title="OFFENDER" target="_top">
<polygon fill="#ffffff" stroke="transparent" points="8,-38.2 8,-891.2 226,-891.2 226,-38.2 8,-38.2"/>
<polygon fill="#f5f5f5" stroke="transparent" points="8,-867.7 8,-890.7 226,-890.7 226,-867.7 8,-867.7"/>
<polygon fill="none" stroke="#000000" points="8,-867.7 8,-890.7 226,-890.7 226,-867.7 8,-867.7"/>
<text text-anchor="start" x="13" y="-876.8" font-family="Helvetica,sans-Serif" font-weight="bold" font-size="11.00" fill="#000000">OFFENDER</text>
<text text-anchor="start" x="191.0437" y="-875.8" font-family="Helvetica,sans-Serif" font-size="11.00" fill="#000000">[table]</text>
<polygon fill="none" stroke="#000000" points="8,-845.7 8,-867.7 226,-867.7 226,-845.7 8,-845.7"/>
<image xlink:href="../../images/primaryKeys.png" width="11px" height="12px" preserveAspectRatio="xMinYMin meet" x="13" y="-862.7"/>
<text text-anchor="start" x="28" y="-852.8" font-family="Helvetica,sans-Serif" font-size="11.00" fill="#000000">OFFENDER_ID</text>
<polygon fill="none" stroke="#000000" points="8,-823.7 8,-845.7 226,-845.7 226,-823.7 8,-823.7"/>
<image xlink:href="../../images/primaryKeys.png" width="11px" height="12px" preserveAspectRatio="xMinYMin meet" x="13" y="-840.7"/>
<text text-anchor="start" x="28" y="-830.8" font-family="Helvetica,sans-Serif" font-size="11.00" fill="#000000">FIRST_NAME</text>
<polygon fill="none" stroke="#000000" points="8,-801.7 8,-823.7 226,-823.7 226,-801.7 8,-801.7"/>
<image xlink:href="../../images/primaryKeys.png" width="11px" height="12px" preserveAspectRatio="xMinYMin meet" x="13" y="-818.7"/>
<text text-anchor="start" x="28" y="-808.8" font-family="Helvetica,sans-Serif" font-size="11.00" fill="#000000">CRN</text>
<polygon fill="none" stroke="#000000" points="8,-779.7 8,-801.7 226,-801.7 226,-779.7 8,-779.7"/>
<image xlink:href="../../images/primaryKeys.png" width="11px" height="12px" preserveAspectRatio="xMinYMin meet" x="13" y="-796.7"/>
<text text-anchor="start" x="28" y="-786.8" font-family="Helvetica,sans-Serif" font-size="11.00" fill="#000000">SECOND_NAME</text>
<polygon fill="none" stroke="#000000" points="8,-757.7 8,-779.7 226,-779.7 226,-757.7 8,-757.7"/>
<image xlink:href="../../images/primaryKeys.png" width="11px" height="12px" preserveAspectRatio="xMinYMin meet" x="13" y="-774.7"/>
<text text-anchor="start" x="28" y="-764.8" font-family="Helvetica,sans-Serif" font-size="11.00" fill="#000000">PNC_NUMBER</text>
<polygon fill="none" stroke="#000000" points="8,-735.7 8,-757.7 226,-757.7 226,-735.7 8,-735.7"/>
<image xlink:href="../../images/primaryKeys.png" width="11px" height="12px" preserveAspectRatio="xMinYMin meet" x="13" y="-752.7"/>
<text text-anchor="start" x="28" y="-742.8" font-family="Helvetica,sans-Serif" font-size="11.00" fill="#000000">THIRD_NAME</text>
<polygon fill="none" stroke="#000000" points="8,-713.7 8,-735.7 226,-735.7 226,-713.7 8,-713.7"/>
<image xlink:href="../../images/primaryKeys.png" width="11px" height="12px" preserveAspectRatio="xMinYMin meet" x="13" y="-730.7"/>
<text text-anchor="start" x="28" y="-720.8" font-family="Helvetica,sans-Serif" font-size="11.00" fill="#000000">CRO_NUMBER</text>
<polygon fill="none" stroke="#000000" points="8,-691.7 8,-713.7 226,-713.7 226,-691.7 8,-691.7"/>
<image xlink:href="../../images/primaryKeys.png" width="11px" height="12px" preserveAspectRatio="xMinYMin meet" x="13" y="-708.7"/>
<text text-anchor="start" x="28" y="-698.8" font-family="Helvetica,sans-Serif" font-size="11.00" fill="#000000">SURNAME</text>
<polygon fill="none" stroke="#000000" points="8,-669.7 8,-691.7 226,-691.7 226,-669.7 8,-669.7"/>
<image xlink:href="../../images/primaryKeys.png" width="11px" height="12px" preserveAspectRatio="xMinYMin meet" x="13" y="-686.7"/>
<text text-anchor="start" x="28" y="-676.8" font-family="Helvetica,sans-Serif" font-size="11.00" fill="#000000">NOMS_NUMBER</text>
<polygon fill="none" stroke="#000000" points="8,-647.7 8,-669.7 226,-669.7 226,-647.7 8,-647.7"/>
<image xlink:href="../../images/primaryKeys.png" width="11px" height="12px" preserveAspectRatio="xMinYMin meet" x="13" y="-664.7"/>
<text text-anchor="start" x="28" y="-654.8" font-family="Helvetica,sans-Serif" font-size="11.00" fill="#000000">DATE_OF_BIRTH_DATE</text>
<polygon fill="none" stroke="#000000" points="8,-625.7 8,-647.7 226,-647.7 226,-625.7 8,-625.7"/>
<image xlink:href="../../images/primaryKeys.png" width="11px" height="12px" preserveAspectRatio="xMinYMin meet" x="13" y="-642.7"/>
<text text-anchor="start" x="28" y="-632.8" font-family="Helvetica,sans-Serif" font-size="11.00" fill="#000000">NI_NUMBER</text>
<polygon fill="none" stroke="#000000" points="8,-603.7 8,-625.7 226,-625.7 226,-603.7 8,-603.7"/>
<image xlink:href="../../images/primaryKeys.png" width="11px" height="12px" preserveAspectRatio="xMinYMin meet" x="13" y="-620.7"/>
<text text-anchor="start" x="28" y="-610.8" font-family="Helvetica,sans-Serif" font-size="11.00" fill="#000000">IMMIGRATION_NUMBER</text>
<polygon fill="none" stroke="#000000" points="8,-581.7 8,-603.7 226,-603.7 226,-581.7 8,-581.7"/>
<image xlink:href="../../images/primaryKeys.png" width="11px" height="12px" preserveAspectRatio="xMinYMin meet" x="13" y="-598.7"/>
<text text-anchor="start" x="28" y="-588.8" font-family="Helvetica,sans-Serif" font-size="11.00" fill="#000000">PARTITION_AREA_ID</text>
<polygon fill="none" stroke="#000000" points="8,-559.7 8,-581.7 226,-581.7 226,-559.7 8,-559.7"/>
<image xlink:href="../../images/primaryKeys.png" width="11px" height="12px" preserveAspectRatio="xMinYMin meet" x="13" y="-576.7"/>
<text text-anchor="start" x="28" y="-566.8" font-family="Helvetica,sans-Serif" font-size="11.00" fill="#000000">SOFT_DELETED</text>
<polygon fill="none" stroke="#000000" points="8,-537.7 8,-559.7 226,-559.7 226,-537.7 8,-537.7"/>
<image xlink:href="../../images/primaryKeys.png" width="11px" height="12px" preserveAspectRatio="xMinYMin meet" x="13" y="-554.7"/>
<text text-anchor="start" x="28" y="-544.8" font-family="Helvetica,sans-Serif" font-size="11.00" fill="#000000">TITLE_ID</text>
<polygon fill="none" stroke="#000000" points="8,-515.7 8,-537.7 226,-537.7 226,-515.7 8,-515.7"/>
<image xlink:href="../../images/primaryKeys.png" width="11px" height="12px" preserveAspectRatio="xMinYMin meet" x="13" y="-532.7"/>
<text text-anchor="start" x="28" y="-522.8" font-family="Helvetica,sans-Serif" font-size="11.00" fill="#000000">GENDER_ID</text>
<polygon fill="none" stroke="#000000" points="8,-493.7 8,-515.7 226,-515.7 226,-493.7 8,-493.7"/>
<image xlink:href="../../images/primaryKeys.png" width="11px" height="12px" preserveAspectRatio="xMinYMin meet" x="13" y="-510.7"/>
<text text-anchor="start" x="28" y="-500.8" font-family="Helvetica,sans-Serif" font-size="11.00" fill="#000000">ETHNICITY_ID</text>
<polygon fill="none" stroke="#000000" points="8,-471.7 8,-493.7 226,-493.7 226,-471.7 8,-471.7"/>
<image xlink:href="../../images/primaryKeys.png" width="11px" height="12px" preserveAspectRatio="xMinYMin meet" x="13" y="-488.7"/>
<text text-anchor="start" x="28" y="-478.8" font-family="Helvetica,sans-Serif" font-size="11.00" fill="#000000">NATIONALITY_ID</text>
<polygon fill="none" stroke="#000000" points="8,-449.7 8,-471.7 226,-471.7 226,-449.7 8,-449.7"/>
<image xlink:href="../../images/primaryKeys.png" width="11px" height="12px" preserveAspectRatio="xMinYMin meet" x="13" y="-466.7"/>
<text text-anchor="start" x="28" y="-456.8" font-family="Helvetica,sans-Serif" font-size="11.00" fill="#000000">IMMIGRATION_STATUS_ID</text>
<polygon fill="none" stroke="#000000" points="8,-427.7 8,-449.7 226,-449.7 226,-427.7 8,-427.7"/>
<image xlink:href="../../images/primaryKeys.png" width="11px" height="12px" preserveAspectRatio="xMinYMin meet" x="13" y="-444.7"/>
<text text-anchor="start" x="28" y="-434.8" font-family="Helvetica,sans-Serif" font-size="11.00" fill="#000000">LANGUAGE_ID</text>
<polygon fill="none" stroke="#000000" points="8,-405.7 8,-427.7 226,-427.7 226,-405.7 8,-405.7"/>
<image xlink:href="../../images/primaryKeys.png" width="11px" height="12px" preserveAspectRatio="xMinYMin meet" x="13" y="-422.7"/>
<text text-anchor="start" x="28" y="-412.8" font-family="Helvetica,sans-Serif" font-size="11.00" fill="#000000">RELIGION_ID</text>
<polygon fill="none" stroke="#000000" points="8,-383.7 8,-405.7 226,-405.7 226,-383.7 8,-383.7"/>
<image xlink:href="../../images/primaryKeys.png" width="11px" height="12px" preserveAspectRatio="xMinYMin meet" x="13" y="-400.7"/>
<text text-anchor="start" x="28" y="-390.8" font-family="Helvetica,sans-Serif" font-size="11.00" fill="#000000">SURNAME_SOUNDEX</text>
<polygon fill="none" stroke="#000000" points="8,-361.7 8,-383.7 226,-383.7 226,-361.7 8,-361.7"/>
<image xlink:href="../../images/primaryKeys.png" width="11px" height="12px" preserveAspectRatio="xMinYMin meet" x="13" y="-378.7"/>
<text text-anchor="start" x="28" y="-368.8" font-family="Helvetica,sans-Serif" font-size="11.00" fill="#000000">SECOND_NATIONALITY_ID</text>
<polygon fill="none" stroke="#000000" points="8,-339.7 8,-361.7 226,-361.7 226,-339.7 8,-339.7"/>
<image xlink:href="../../images/primaryKeys.png" width="11px" height="12px" preserveAspectRatio="xMinYMin meet" x="13" y="-356.7"/>
<text text-anchor="start" x="28" y="-346.8" font-family="Helvetica,sans-Serif" font-size="11.00" fill="#000000">SEXUAL_ORIENTATION_ID</text>
<polygon fill="none" stroke="#000000" points="8,-317.7 8,-339.7 226,-339.7 226,-317.7 8,-317.7"/>
<image xlink:href="../../images/primaryKeys.png" width="11px" height="12px" preserveAspectRatio="xMinYMin meet" x="13" y="-334.7"/>
<text text-anchor="start" x="28" y="-324.8" font-family="Helvetica,sans-Serif" font-size="11.00" fill="#000000">CURRENT_EXCLUSION</text>
<polygon fill="none" stroke="#000000" points="8,-295.7 8,-317.7 226,-317.7 226,-295.7 8,-295.7"/>
<image xlink:href="../../images/primaryKeys.png" width="11px" height="12px" preserveAspectRatio="xMinYMin meet" x="13" y="-312.7"/>
<text text-anchor="start" x="28" y="-302.8" font-family="Helvetica,sans-Serif" font-size="11.00" fill="#000000">TRAINING_SESSION_ID</text>
<polygon fill="none" stroke="#000000" points="8,-273.7 8,-295.7 226,-295.7 226,-273.7 8,-273.7"/>
<image xlink:href="../../images/primaryKeys.png" width="11px" height="12px" preserveAspectRatio="xMinYMin meet" x="13" y="-290.7"/>
<text text-anchor="start" x="28" y="-280.8" font-family="Helvetica,sans-Serif" font-size="11.00" fill="#000000">CURRENT_DISPOSAL</text>
<polygon fill="none" stroke="#000000" points="8,-251.7 8,-273.7 226,-273.7 226,-251.7 8,-251.7"/>
<image xlink:href="../../images/primaryKeys.png" width="11px" height="12px" preserveAspectRatio="xMinYMin meet" x="13" y="-268.7"/>
<text text-anchor="start" x="27.6433" y="-258.8" font-family="Helvetica,sans-Serif" font-size="11.00" fill="#000000">CURRENT_HIGHEST_RISK_COLOUR</text>
<polygon fill="none" stroke="#000000" points="8,-229.7 8,-251.7 226,-251.7 226,-229.7 8,-229.7"/>
<image xlink:href="../../images/primaryKeys.png" width="11px" height="12px" preserveAspectRatio="xMinYMin meet" x="13" y="-246.7"/>
<text text-anchor="start" x="28" y="-236.8" font-family="Helvetica,sans-Serif" font-size="11.00" fill="#000000">CURRENT_RESTRICTION</text>
<polygon fill="none" stroke="#000000" points="8,-207.7 8,-229.7 226,-229.7 226,-207.7 8,-207.7"/>
<image xlink:href="../../images/primaryKeys.png" width="11px" height="12px" preserveAspectRatio="xMinYMin meet" x="13" y="-224.7"/>
<text text-anchor="start" x="28" y="-214.8" font-family="Helvetica,sans-Serif" font-size="11.00" fill="#000000">INSTITUTION_ID</text>
<polygon fill="none" stroke="#000000" points="8,-185.7 8,-207.7 226,-207.7 226,-185.7 8,-185.7"/>
<image xlink:href="../../images/primaryKeys.png" width="11px" height="12px" preserveAspectRatio="xMinYMin meet" x="13" y="-202.7"/>
<text text-anchor="start" x="28" y="-192.8" font-family="Helvetica,sans-Serif" font-size="11.00" fill="#000000">ESTABLISHMENT</text>
<polygon fill="none" stroke="#000000" points="8,-163.7 8,-185.7 226,-185.7 226,-163.7 8,-163.7"/>
<image xlink:href="../../images/primaryKeys.png" width="11px" height="12px" preserveAspectRatio="xMinYMin meet" x="13" y="-180.7"/>
<text text-anchor="start" x="28" y="-170.8" font-family="Helvetica,sans-Serif" font-size="11.00" fill="#000000">CURRENT_TIER</text>
<polygon fill="none" stroke="#000000" points="8,-141.7 8,-163.7 226,-163.7 226,-141.7 8,-141.7"/>
<image xlink:href="../../images/primaryKeys.png" width="11px" height="12px" preserveAspectRatio="xMinYMin meet" x="13" y="-158.7"/>
<text text-anchor="start" x="28" y="-148.8" font-family="Helvetica,sans-Serif" font-size="11.00" fill="#000000">OM_ALLOCATION_DECISION_ID</text>
<polygon fill="none" stroke="#000000" points="8,-119.7 8,-141.7 226,-141.7 226,-119.7 8,-119.7"/>
<image xlink:href="../../images/primaryKeys.png" width="11px" height="12px" preserveAspectRatio="xMinYMin meet" x="13" y="-136.7"/>
<text text-anchor="start" x="28" y="-126.8" font-family="Helvetica,sans-Serif" font-size="11.00" fill="#000000">TRANSGENDER_PROCESS_ID</text>
<polygon fill="none" stroke="#000000" points="8,-97.7 8,-119.7 226,-119.7 226,-97.7 8,-97.7"/>
<image xlink:href="../../images/primaryKeys.png" width="11px" height="12px" preserveAspectRatio="xMinYMin meet" x="13" y="-114.7"/>
<text text-anchor="start" x="28" y="-104.8" font-family="Helvetica,sans-Serif" font-size="11.00" fill="#000000">PREFERRED_NAME</text>
<polygon fill="none" stroke="#000000" points="8,-75.7 8,-97.7 226,-97.7 226,-75.7 8,-75.7"/>
<image xlink:href="../../images/primaryKeys.png" width="11px" height="12px" preserveAspectRatio="xMinYMin meet" x="13" y="-92.7"/>
<text text-anchor="start" x="28" y="-82.8" font-family="Helvetica,sans-Serif" font-size="11.00" fill="#000000">GENDER_IDENTITY_ID</text>
<polygon fill="none" stroke="#000000" points="8,-56.7 8,-75.7 226,-75.7 226,-56.7 8,-56.7"/>
<text text-anchor="start" x="11" y="-62.8" font-family="Helvetica,sans-Serif" font-size="11.00" fill="#000000">...</text>
<polygon fill="#ffffff" stroke="transparent" points="8,-37.7 8,-56.7 81,-56.7 81,-37.7 8,-37.7"/>
<polygon fill="none" stroke="#000000" points="8,-37.7 8,-56.7 81,-56.7 81,-37.7 8,-37.7"/>
<text text-anchor="start" x="11" y="-43.8" font-family="Helvetica,sans-Serif" font-size="11.00" fill="#000000">&lt; 16</text>
<polygon fill="#ffffff" stroke="transparent" points="81,-37.7 81,-56.7 176,-56.7 176,-37.7 81,-37.7"/>
<polygon fill="none" stroke="#000000" points="81,-37.7 81,-56.7 176,-56.7 176,-37.7 81,-37.7"/>
<text text-anchor="start" x="106.9791" y="-43.8" font-family="Helvetica,sans-Serif" font-size="11.00" fill="#000000">494,119 rows</text>
<polygon fill="#ffffff" stroke="transparent" points="176,-37.7 176,-56.7 226,-56.7 226,-37.7 176,-37.7"/>
<polygon fill="none" stroke="#000000" points="176,-37.7 176,-56.7 226,-56.7 226,-37.7 176,-37.7"/>
<text text-anchor="start" x="201.2904" y="-43.8" font-family="Helvetica,sans-Serif" font-size="11.00" fill="#000000">96 &gt;</text>
</a>
</g>
</g>
<!-- OFFENDER_MANAGER&#45;&gt;OFFENDER -->
<g id="edge1" class="edge">
<title>OFFENDER_MANAGER:w&#45;&gt;OFFENDER:e</title>
<path fill="none" stroke="#000000" d="M284.0794,-856.7C262.8898,-856.7 252.8099,-856.7 226,-856.7"/>
<polygon fill="#000000" stroke="#000000" points="290.5,-856.7001 298.5,-860.3 294.5,-856.7 298.5,-856.7 298.5,-856.7 298.5,-856.7 294.5,-856.7 298.5,-853.1 290.5,-856.7001 290.5,-856.7001"/>
<ellipse fill="none" stroke="#000000" cx="287.3" cy="-856.7001" rx="3.2" ry="3.2"/>
</g>
<!-- PRISON_OFFENDER_MANAGER -->
<g id="node3" class="node">
<title>PRISON_OFFENDER_MANAGER</title>
<g id="a_node3"><a xlink:href="../../tables/PRISON_OFFENDER_MANAGER.html" xlink:title="PRISON_OFFENDER_MANAGER" target="_top">
<polygon fill="#ffffff" stroke="transparent" points="275,-330.2 275,-545.2 488,-545.2 488,-330.2 275,-330.2"/>
<polygon fill="#f5f5f5" stroke="transparent" points="275.5,-521.7 275.5,-544.7 488.5,-544.7 488.5,-521.7 275.5,-521.7"/>
<polygon fill="none" stroke="#000000" points="275.5,-521.7 275.5,-544.7 488.5,-544.7 488.5,-521.7 275.5,-521.7"/>
<text text-anchor="start" x="280.2517" y="-530.8" font-family="Helvetica,sans-Serif" font-weight="bold" font-size="11.00" fill="#000000">PRISON_OFFENDER_MANAGER</text>
<text text-anchor="start" x="454.0219" y="-529.8" font-family="Helvetica,sans-Serif" font-size="11.00" fill="#000000">[table]</text>
<polygon fill="none" stroke="#000000" points="275.5,-499.7 275.5,-521.7 488.5,-521.7 488.5,-499.7 275.5,-499.7"/>
<image xlink:href="../../images/primaryKeys.png" width="11px" height="12px" preserveAspectRatio="xMinYMin meet" x="280.5" y="-516.7"/>
<text text-anchor="start" x="295.6953" y="-506.8" font-family="Helvetica,sans-Serif" font-size="11.00" fill="#000000">PRISON_OFFENDER_MANAGER_ID</text>
<polygon fill="none" stroke="#000000" points="275.5,-477.7 275.5,-499.7 488.5,-499.7 488.5,-477.7 275.5,-477.7"/>
<image xlink:href="../../images/primaryKeys.png" width="11px" height="12px" preserveAspectRatio="xMinYMin meet" x="280.5" y="-494.7"/>
<text text-anchor="start" x="302.5" y="-484.8" font-family="Helvetica,sans-Serif" font-size="11.00" fill="#000000">OFFENDER_ID</text>
<polygon fill="none" stroke="#000000" points="275.5,-455.7 275.5,-477.7 488.5,-477.7 488.5,-455.7 275.5,-455.7"/>
<image xlink:href="../../images/primaryKeys.png" width="11px" height="12px" preserveAspectRatio="xMinYMin meet" x="280.5" y="-472.7"/>
<text text-anchor="start" x="302.5" y="-462.8" font-family="Helvetica,sans-Serif" font-size="11.00" fill="#000000">PROBATION_AREA_ID</text>
<polygon fill="none" stroke="#000000" points="275.5,-433.7 275.5,-455.7 488.5,-455.7 488.5,-433.7 275.5,-433.7"/>
<image xlink:href="../../images/primaryKeys.png" width="11px" height="12px" preserveAspectRatio="xMinYMin meet" x="280.5" y="-450.7"/>
<text text-anchor="start" x="302.5" y="-440.8" font-family="Helvetica,sans-Serif" font-size="11.00" fill="#000000">ALLOCATION_TEAM_ID</text>
<polygon fill="none" stroke="#000000" points="275.5,-411.7 275.5,-433.7 488.5,-433.7 488.5,-411.7 275.5,-411.7"/>
<image xlink:href="../../images/primaryKeys.png" width="11px" height="12px" preserveAspectRatio="xMinYMin meet" x="280.5" y="-428.7"/>
<text text-anchor="start" x="302.5" y="-418.8" font-family="Helvetica,sans-Serif" font-size="11.00" fill="#000000">ALLOCATION_STAFF_ID</text>
<polygon fill="none" stroke="#000000" points="275.5,-389.7 275.5,-411.7 488.5,-411.7 488.5,-389.7 275.5,-389.7"/>
<image xlink:href="../../images/primaryKeys.png" width="11px" height="12px" preserveAspectRatio="xMinYMin meet" x="280.5" y="-406.7"/>
<text text-anchor="start" x="302.5" y="-396.8" font-family="Helvetica,sans-Serif" font-size="11.00" fill="#000000">ALLOCATION_REASON_ID</text>
<polygon fill="none" stroke="#000000" points="275.5,-367.7 275.5,-389.7 488.5,-389.7 488.5,-367.7 275.5,-367.7"/>
<image xlink:href="../../images/primaryKeys.png" width="11px" height="12px" preserveAspectRatio="xMinYMin meet" x="280.5" y="-384.7"/>
<text text-anchor="start" x="302.5" y="-374.8" font-family="Helvetica,sans-Serif" font-size="11.00" fill="#000000">TRANSFER_REASON_ID</text>
<polygon fill="none" stroke="#000000" points="275.5,-348.7 275.5,-367.7 488.5,-367.7 488.5,-348.7 275.5,-348.7"/>
<text text-anchor="start" x="278.5" y="-354.8" font-family="Helvetica,sans-Serif" font-size="11.00" fill="#000000">...</text>
<polygon fill="#ffffff" stroke="transparent" points="275.5,-329.7 275.5,-348.7 352.5,-348.7 352.5,-329.7 275.5,-329.7"/>
<polygon fill="none" stroke="#000000" points="275.5,-329.7 275.5,-348.7 352.5,-348.7 352.5,-329.7 275.5,-329.7"/>
<text text-anchor="start" x="278.5" y="-335.8" font-family="Helvetica,sans-Serif" font-size="11.00" fill="#000000">&lt; 6</text>
<polygon fill="#ffffff" stroke="transparent" points="352.5,-329.7 352.5,-348.7 439.5,-348.7 439.5,-329.7 352.5,-329.7"/>
<polygon fill="none" stroke="#000000" points="352.5,-329.7 352.5,-348.7 439.5,-348.7 439.5,-329.7 352.5,-329.7"/>
<text text-anchor="start" x="382.7089" y="-335.8" font-family="Helvetica,sans-Serif" font-size="11.00" fill="#000000">1,196 rows</text>
<polygon fill="#ffffff" stroke="transparent" points="439.5,-329.7 439.5,-348.7 488.5,-348.7 488.5,-329.7 439.5,-329.7"/>
<polygon fill="none" stroke="#000000" points="439.5,-329.7 439.5,-348.7 488.5,-348.7 488.5,-329.7 439.5,-329.7"/>
<text text-anchor="start" x="469.9053" y="-335.8" font-family="Helvetica,sans-Serif" font-size="11.00" fill="#000000">2 &gt;</text>
</a>
</g>
</g>
<!-- PRISON_OFFENDER_MANAGER&#45;&gt;OFFENDER -->
<g id="edge2" class="edge">
<title>PRISON_OFFENDER_MANAGER:w&#45;&gt;OFFENDER:e</title>
<path fill="none" stroke="#000000" d="M261.5656,-493.3529C207.456,-535.9522 303.0348,-856.7 226,-856.7"/>
<polygon fill="#000000" stroke="#000000" points="267.9119,-491.2338 276.6402,-492.1147 271.7059,-489.9669 275.5,-488.7 275.5,-488.7 275.5,-488.7 271.7059,-489.9669 274.3598,-485.2853 267.9119,-491.2338 267.9119,-491.2338"/>
<ellipse fill="none" stroke="#000000" cx="264.8766" cy="-492.2473" rx="3.2" ry="3.2"/>
</g>
<!-- RESPONSIBLE_OFFICER -->
<g id="node4" class="node">
<title>RESPONSIBLE_OFFICER</title>
<g id="a_node4"><a xlink:href="../../tables/RESPONSIBLE_OFFICER.html" xlink:title="RESPONSIBLE_OFFICER" target="_top">
<polygon fill="#ffffff" stroke="transparent" points="537,-780.7 537,-1068.7 801,-1068.7 801,-780.7 537,-780.7"/>
<polygon fill="#f5f5f5" stroke="transparent" points="539,-1043.7 539,-1066.7 799,-1066.7 799,-1043.7 539,-1043.7"/>
<polygon fill="none" stroke="#000000" points="539,-1043.7 539,-1066.7 799,-1066.7 799,-1043.7 539,-1043.7"/>
<text text-anchor="start" x="544" y="-1052.8" font-family="Helvetica,sans-Serif" font-weight="bold" font-size="11.00" fill="#000000">RESPONSIBLE_OFFICER</text>
<text text-anchor="start" x="764.0437" y="-1051.8" font-family="Helvetica,sans-Serif" font-size="11.00" fill="#000000">[table]</text>
<polygon fill="none" stroke="#000000" points="539,-1021.7 539,-1043.7 738,-1043.7 738,-1021.7 539,-1021.7"/>
<image xlink:href="../../images/primaryKeys.png" width="11px" height="12px" preserveAspectRatio="xMinYMin meet" x="544" y="-1038.7"/>
<text text-anchor="start" x="559" y="-1028.8" font-family="Helvetica,sans-Serif" font-size="11.00" fill="#000000">RESPONSIBLE_OFFICER_ID</text>
<polygon fill="none" stroke="#000000" points="738,-1021.7 738,-1043.7 799,-1043.7 799,-1021.7 738,-1021.7"/>
<text text-anchor="start" x="740.6865" y="-1029.4" font-family="Helvetica,sans-Serif" font-size="11.00" fill="#000000">number[38]</text>
<polygon fill="none" stroke="#000000" points="539,-999.7 539,-1021.7 738,-1021.7 738,-999.7 539,-999.7"/>
<image xlink:href="../../images/primaryKeys.png" width="11px" height="12px" preserveAspectRatio="xMinYMin meet" x="544" y="-1016.7"/>
<text text-anchor="start" x="559" y="-1006.8" font-family="Helvetica,sans-Serif" font-size="11.00" fill="#000000">OFFENDER_ID</text>
<polygon fill="none" stroke="#000000" points="738,-999.7 738,-1021.7 799,-1021.7 799,-999.7 738,-999.7"/>
<text text-anchor="start" x="740.6865" y="-1007.4" font-family="Helvetica,sans-Serif" font-size="11.00" fill="#000000">number[38]</text>
<polygon fill="none" stroke="#000000" points="539,-977.7 539,-999.7 738,-999.7 738,-977.7 539,-977.7"/>
<image xlink:href="../../images/primaryKeys.png" width="11px" height="12px" preserveAspectRatio="xMinYMin meet" x="544" y="-994.7"/>
<text text-anchor="start" x="559" y="-984.8" font-family="Helvetica,sans-Serif" font-size="11.00" fill="#000000">OFFENDER_MANAGER_ID</text>
<polygon fill="none" stroke="#000000" points="738,-977.7 738,-999.7 799,-999.7 799,-977.7 738,-977.7"/>
<text text-anchor="start" x="740.6865" y="-985.4" font-family="Helvetica,sans-Serif" font-size="11.00" fill="#000000">number[38]</text>
<polygon fill="none" stroke="#000000" points="539,-955.7 539,-977.7 738,-977.7 738,-955.7 539,-955.7"/>
<image xlink:href="../../images/primaryKeys.png" width="11px" height="12px" preserveAspectRatio="xMinYMin meet" x="544" y="-972.7"/>
<text text-anchor="start" x="552.1953" y="-962.8" font-family="Helvetica,sans-Serif" font-size="11.00" fill="#000000">PRISON_OFFENDER_MANAGER_ID</text>
<polygon fill="none" stroke="#000000" points="738,-955.7 738,-977.7 799,-977.7 799,-955.7 738,-955.7"/>
<text text-anchor="start" x="740.6865" y="-963.4" font-family="Helvetica,sans-Serif" font-size="11.00" fill="#000000">number[38]</text>
<polygon fill="none" stroke="#000000" points="539,-933.7 539,-955.7 738,-955.7 738,-933.7 539,-933.7"/>
<text text-anchor="start" x="559" y="-940.8" font-family="Helvetica,sans-Serif" font-size="11.00" fill="#000000">START_DATE</text>
<polygon fill="none" stroke="#000000" points="738,-933.7 738,-955.7 799,-955.7 799,-933.7 738,-933.7"/>
<text text-anchor="start" x="741" y="-941.4" font-family="Helvetica,sans-Serif" font-size="11.00" fill="#000000">date[7]</text>
<polygon fill="none" stroke="#000000" points="539,-911.7 539,-933.7 738,-933.7 738,-911.7 539,-911.7"/>
<text text-anchor="start" x="559" y="-918.8" font-family="Helvetica,sans-Serif" font-size="11.00" fill="#000000">END_DATE</text>
<polygon fill="none" stroke="#000000" points="738,-911.7 738,-933.7 799,-933.7 799,-911.7 738,-911.7"/>
<text text-anchor="start" x="741" y="-919.4" font-family="Helvetica,sans-Serif" font-size="11.00" fill="#000000">date[7]</text>
<polygon fill="none" stroke="#000000" points="539,-889.7 539,-911.7 738,-911.7 738,-889.7 539,-889.7"/>
<text text-anchor="start" x="559" y="-896.8" font-family="Helvetica,sans-Serif" font-size="11.00" fill="#000000">CREATED_BY_USER_ID</text>
<polygon fill="none" stroke="#000000" points="738,-889.7 738,-911.7 799,-911.7 799,-889.7 738,-889.7"/>
<text text-anchor="start" x="740.6865" y="-897.4" font-family="Helvetica,sans-Serif" font-size="11.00" fill="#000000">number[38]</text>
<polygon fill="none" stroke="#000000" points="539,-867.7 539,-889.7 738,-889.7 738,-867.7 539,-867.7"/>
<text text-anchor="start" x="559" y="-874.8" font-family="Helvetica,sans-Serif" font-size="11.00" fill="#000000">CREATED_DATETIME</text>
<polygon fill="none" stroke="#000000" points="738,-867.7 738,-889.7 799,-889.7 799,-867.7 738,-867.7"/>
<text text-anchor="start" x="741" y="-875.4" font-family="Helvetica,sans-Serif" font-size="11.00" fill="#000000">date[7]</text>
<polygon fill="none" stroke="#000000" points="539,-845.7 539,-867.7 738,-867.7 738,-845.7 539,-845.7"/>
<text text-anchor="start" x="559" y="-852.8" font-family="Helvetica,sans-Serif" font-size="11.00" fill="#000000">LAST_UPDATED_USER_ID</text>
<polygon fill="none" stroke="#000000" points="738,-845.7 738,-867.7 799,-867.7 799,-845.7 738,-845.7"/>
<text text-anchor="start" x="740.6865" y="-853.4" font-family="Helvetica,sans-Serif" font-size="11.00" fill="#000000">number[38]</text>
<polygon fill="none" stroke="#000000" points="539,-823.7 539,-845.7 738,-845.7 738,-823.7 539,-823.7"/>
<text text-anchor="start" x="559" y="-830.8" font-family="Helvetica,sans-Serif" font-size="11.00" fill="#000000">LAST_UPDATED_DATETIME</text>
<polygon fill="none" stroke="#000000" points="738,-823.7 738,-845.7 799,-845.7 799,-823.7 738,-823.7"/>
<text text-anchor="start" x="741" y="-831.4" font-family="Helvetica,sans-Serif" font-size="11.00" fill="#000000">date[7]</text>
<polygon fill="none" stroke="#000000" points="539,-801.7 539,-823.7 738,-823.7 738,-801.7 539,-801.7"/>
<text text-anchor="start" x="559" y="-808.8" font-family="Helvetica,sans-Serif" font-size="11.00" fill="#000000">ROW_VERSION</text>
<polygon fill="none" stroke="#000000" points="738,-801.7 738,-823.7 799,-823.7 799,-801.7 738,-801.7"/>
<text text-anchor="start" x="740.6865" y="-809.4" font-family="Helvetica,sans-Serif" font-size="11.00" fill="#000000">number[38]</text>
<polygon fill="#ffffff" stroke="transparent" points="539,-782.7 539,-801.7 619,-801.7 619,-782.7 539,-782.7"/>
<polygon fill="none" stroke="#000000" points="539,-782.7 539,-801.7 619,-801.7 619,-782.7 539,-782.7"/>
<text text-anchor="start" x="542" y="-788.8" font-family="Helvetica,sans-Serif" font-size="11.00" fill="#000000">&lt; 3</text>
<polygon fill="#ffffff" stroke="transparent" points="619,-782.7 619,-801.7 738,-801.7 738,-782.7 619,-782.7"/>
<polygon fill="none" stroke="#000000" points="619,-782.7 619,-801.7 738,-801.7 738,-782.7 619,-782.7"/>
<text text-anchor="start" x="681.2089" y="-788.8" font-family="Helvetica,sans-Serif" font-size="11.00" fill="#000000">3,575 rows</text>
<polygon fill="#ffffff" stroke="transparent" points="738,-782.7 738,-801.7 799,-801.7 799,-782.7 738,-782.7"/>
<polygon fill="none" stroke="#000000" points="738,-782.7 738,-801.7 799,-801.7 799,-782.7 738,-782.7"/>
<text text-anchor="start" x="780.4053" y="-788.8" font-family="Helvetica,sans-Serif" font-size="11.00" fill="#000000">0 &gt;</text>
<polygon fill="none" stroke="#000000" stroke-width="2" points="538,-781.7 538,-1067.7 800,-1067.7 800,-781.7 538,-781.7"/>
</a>
</g>
</g>
<!-- RESPONSIBLE_OFFICER&#45;&gt;OFFENDER_MANAGER -->
<g id="edge4" class="edge">
<title>RESPONSIBLE_OFFICER:w&#45;&gt;OFFENDER_MANAGER:e</title>
<path fill="none" stroke="#000000" d="M524.3805,-988.7C502.8986,-988.7 492.6797,-988.7 465.5,-988.7"/>
<polygon fill="#000000" stroke="#000000" points="531,-988.7001 539,-992.3 535,-988.7 539,-988.7 539,-988.7 539,-988.7 535,-988.7 539,-985.1 531,-988.7001 531,-988.7001"/>
<ellipse fill="none" stroke="#000000" cx="527.8" cy="-988.7001" rx="3.2" ry="3.2"/>
</g>
<!-- RESPONSIBLE_OFFICER&#45;&gt;OFFENDER -->
<g id="edge3" class="edge">
<title>RESPONSIBLE_OFFICER:w&#45;&gt;OFFENDER:e</title>
<path fill="none" stroke="#000000" d="M528.4328,-1012.5042C516.4177,-1017.1507 512.9169,-1029.4599 496,-1033.7 397.276,-1058.4443 346.6753,-1097.029 267,-1033.7 203.7864,-983.4553 306.7496,-856.7 226,-856.7"/>
<polygon fill="#000000" stroke="#000000" points="537.5382,-1006.8917 538.8846,-1014.7776 537.3075,-1015.0469 535.961,-1007.161 537.5382,-1006.8917"/>
<polyline fill="none" stroke="#000000" points="539,-1010.7 535.0571,-1011.3732 "/>
<ellipse fill="none" stroke="#000000" cx="531.9027" cy="-1011.9118" rx="3.2" ry="3.2"/>
</g>
<!-- RESPONSIBLE_OFFICER&#45;&gt;PRISON_OFFENDER_MANAGER -->
<g id="edge5" class="edge">
<title>RESPONSIBLE_OFFICER:w&#45;&gt;PRISON_OFFENDER_MANAGER:e</title>
<path fill="none" stroke="#000000" d="M524.9262,-963.0295C452.5165,-919.8743 585.0764,-510.7 488.5,-510.7"/>
<polygon fill="#000000" stroke="#000000" points="531.2589,-964.681 538.0915,-970.1835 535.1295,-965.6905 539,-966.7 539,-966.7 539,-966.7 535.1295,-965.6905 539.9085,-963.2165 531.2589,-964.681 531.2589,-964.681"/>
<ellipse fill="none" stroke="#000000" cx="528.1625" cy="-963.8734" rx="3.2" ry="3.2"/>
</g>
</g>
</svg>
