<?xml version="1.0" encoding="UTF-8" standalone="no"?>
<!DOCTYPE svg PUBLIC "-//W3C//DTD SVG 1.1//EN"
 "http://www.w3.org/Graphics/SVG/1.1/DTD/svg11.dtd">
<!-- Generated by graphviz version 2.40.1 (20161225.0304)
 -->
<!-- Title: oneDegreeRelationshipsDiagram Pages: 1 -->
<svg width="762pt" height="470pt"
 viewBox="0.00 0.00 762.00 470.20" xmlns="http://www.w3.org/2000/svg" xmlns:xlink="http://www.w3.org/1999/xlink">
<g id="graph0" class="graph" transform="scale(1 1) rotate(0) translate(4 466.2)">
<title>oneDegreeRelationshipsDiagram</title>
<polygon fill="#ffffff" stroke="transparent" points="-4,4 -4,-466.2 758,-466.2 758,4 -4,4"/>
<text text-anchor="middle" x="72.4936" y="-7.3" font-family="Helvetica,sans-Serif" font-size="11.00" fill="#000000">Generated by SchemaSpy</text>
<!-- SPG_SEARCH_OFFENDER -->
<g id="node1" class="node">
<title>SPG_SEARCH_OFFENDER</title>
<g id="a_node1"><a xlink:href="../../tables/SPG_SEARCH_OFFENDER.html" xlink:title="SPG_SEARCH_OFFENDER" target="_top">
<polygon fill="#ffffff" stroke="transparent" points="562,-348.2 562,-456.2 746,-456.2 746,-348.2 562,-348.2"/>
<polygon fill="#f5f5f5" stroke="transparent" points="562,-433.2 562,-456.2 746,-456.2 746,-433.2 562,-433.2"/>
<polygon fill="none" stroke="#000000" points="562,-433.2 562,-456.2 746,-456.2 746,-433.2 562,-433.2"/>
<text text-anchor="start" x="566.61" y="-442.3" font-family="Helvetica,sans-Serif" font-weight="bold" font-size="11.00" fill="#000000">SPG_SEARCH_OFFENDER</text>
<text text-anchor="start" x="711.5219" y="-441.3" font-family="Helvetica,sans-Serif" font-size="11.00" fill="#000000">[table]</text>
<polygon fill="none" stroke="#000000" points="562,-411.2 562,-433.2 746,-433.2 746,-411.2 562,-411.2"/>
<image xlink:href="../../images/primaryKeys.png" width="11px" height="12px" preserveAspectRatio="xMinYMin meet" x="567" y="-428.2"/>
<text text-anchor="start" x="586.2161" y="-418.3" font-family="Helvetica,sans-Serif" font-size="11.00" fill="#000000">SPG_SEARCH_REQUEST_ID</text>
<polygon fill="none" stroke="#000000" points="562,-389.2 562,-411.2 746,-411.2 746,-389.2 562,-389.2"/>
<image xlink:href="../../images/primaryKeys.png" width="11px" height="12px" preserveAspectRatio="xMinYMin meet" x="567" y="-406.2"/>
<text text-anchor="start" x="590.494" y="-396.3" font-family="Helvetica,sans-Serif" font-size="11.00" fill="#000000">SPG_SEARCH_SEQUENCE</text>
<polygon fill="none" stroke="#000000" points="562,-367.2 562,-389.2 746,-389.2 746,-367.2 562,-367.2"/>
<image xlink:href="../../images/primaryKeys.png" width="11px" height="12px" preserveAspectRatio="xMinYMin meet" x="567" y="-384.2"/>
<text text-anchor="start" x="592" y="-374.3" font-family="Helvetica,sans-Serif" font-size="11.00" fill="#000000">OFFENDER_ID</text>
<polygon fill="#ffffff" stroke="transparent" points="562,-348.2 562,-367.2 633,-367.2 633,-348.2 562,-348.2"/>
<polygon fill="none" stroke="#000000" points="562,-348.2 562,-367.2 633,-367.2 633,-348.2 562,-348.2"/>
<text text-anchor="start" x="565" y="-354.3" font-family="Helvetica,sans-Serif" font-size="11.00" fill="#000000">&lt; 2</text>
<polygon fill="#ffffff" stroke="transparent" points="633,-348.2 633,-367.2 708,-367.2 708,-348.2 633,-348.2"/>
<polygon fill="none" stroke="#000000" points="633,-348.2 633,-367.2 708,-367.2 708,-348.2 633,-348.2"/>
<text text-anchor="start" x="660.3807" y="-354.3" font-family="Helvetica,sans-Serif" font-size="11.00" fill="#000000">184 rows</text>
<polygon fill="#ffffff" stroke="transparent" points="708,-348.2 708,-367.2 746,-367.2 746,-348.2 708,-348.2"/>
<polygon fill="none" stroke="#000000" points="708,-348.2 708,-367.2 746,-367.2 746,-348.2 708,-348.2"/>
<text text-anchor="start" x="736.8862" y="-354.3" font-family="Helvetica,sans-Serif" font-size="11.00" fill="#000000"> &#160;</text>
</a>
</g>
</g>
<!-- SPG_SEARCH_REQUEST -->
<g id="node2" class="node">
<title>SPG_SEARCH_REQUEST</title>
<g id="a_node2"><a xlink:href="../../tables/SPG_SEARCH_REQUEST.html" xlink:title="SPG_SEARCH_REQUEST" target="_top">
<polygon fill="#ffffff" stroke="transparent" points="277,-38.2 277,-458.2 513,-458.2 513,-38.2 277,-38.2"/>
<polygon fill="#f5f5f5" stroke="transparent" points="279,-433.2 279,-456.2 511,-456.2 511,-433.2 279,-433.2"/>
<polygon fill="none" stroke="#000000" points="279,-433.2 279,-456.2 511,-456.2 511,-433.2 279,-433.2"/>
<text text-anchor="start" x="284" y="-442.3" font-family="Helvetica,sans-Serif" font-weight="bold" font-size="11.00" fill="#000000">SPG_SEARCH_REQUEST</text>
<text text-anchor="start" x="476.0437" y="-441.3" font-family="Helvetica,sans-Serif" font-size="11.00" fill="#000000">[table]</text>
<polygon fill="none" stroke="#000000" points="279,-411.2 279,-433.2 444,-433.2 444,-411.2 279,-411.2"/>
<image xlink:href="../../images/primaryKeys.png" width="11px" height="12px" preserveAspectRatio="xMinYMin meet" x="284" y="-428.2"/>
<text text-anchor="start" x="293.2161" y="-418.3" font-family="Helvetica,sans-Serif" font-size="11.00" fill="#000000">SPG_SEARCH_REQUEST_ID</text>
<polygon fill="none" stroke="#000000" points="444,-411.2 444,-433.2 511,-433.2 511,-411.2 444,-411.2"/>
<text text-anchor="start" x="447" y="-418.9" font-family="Helvetica,sans-Serif" font-size="11.00" fill="#000000">number[38]</text>
<polygon fill="none" stroke="#000000" points="279,-389.2 279,-411.2 444,-411.2 444,-389.2 279,-389.2"/>
<text text-anchor="start" x="299" y="-396.3" font-family="Helvetica,sans-Serif" font-size="11.00" fill="#000000">CRC_SEARCH_ID</text>
<polygon fill="none" stroke="#000000" points="444,-389.2 444,-411.2 511,-411.2 511,-389.2 444,-389.2"/>
<text text-anchor="start" x="447" y="-396.9" font-family="Helvetica,sans-Serif" font-size="11.00" fill="#000000">number[38]</text>
<polygon fill="none" stroke="#000000" points="279,-367.2 279,-389.2 444,-389.2 444,-367.2 279,-367.2"/>
<text text-anchor="start" x="299" y="-374.3" font-family="Helvetica,sans-Serif" font-size="11.00" fill="#000000">SURNAME</text>
<polygon fill="none" stroke="#000000" points="444,-367.2 444,-389.2 511,-389.2 511,-367.2 444,-367.2"/>
<text text-anchor="start" x="446.9365" y="-374.9" font-family="Helvetica,sans-Serif" font-size="11.00" fill="#000000">varchar2[35]</text>
<polygon fill="none" stroke="#000000" points="279,-345.2 279,-367.2 444,-367.2 444,-345.2 279,-345.2"/>
<text text-anchor="start" x="299" y="-352.3" font-family="Helvetica,sans-Serif" font-size="11.00" fill="#000000">FIRST_NAME</text>
<polygon fill="none" stroke="#000000" points="444,-345.2 444,-367.2 511,-367.2 511,-345.2 444,-345.2"/>
<text text-anchor="start" x="446.9365" y="-352.9" font-family="Helvetica,sans-Serif" font-size="11.00" fill="#000000">varchar2[35]</text>
<polygon fill="none" stroke="#000000" points="279,-323.2 279,-345.2 444,-345.2 444,-323.2 279,-323.2"/>
<text text-anchor="start" x="299" y="-330.3" font-family="Helvetica,sans-Serif" font-size="11.00" fill="#000000">SECOND_NAME</text>
<polygon fill="none" stroke="#000000" points="444,-323.2 444,-345.2 511,-345.2 511,-323.2 444,-323.2"/>
<text text-anchor="start" x="446.9365" y="-330.9" font-family="Helvetica,sans-Serif" font-size="11.00" fill="#000000">varchar2[35]</text>
<polygon fill="none" stroke="#000000" points="279,-301.2 279,-323.2 444,-323.2 444,-301.2 279,-301.2"/>
<text text-anchor="start" x="299" y="-308.3" font-family="Helvetica,sans-Serif" font-size="11.00" fill="#000000">DATE_OF_BIRTH_DATE</text>
<polygon fill="none" stroke="#000000" points="444,-301.2 444,-323.2 511,-323.2 511,-301.2 444,-301.2"/>
<text text-anchor="start" x="447" y="-308.9" font-family="Helvetica,sans-Serif" font-size="11.00" fill="#000000">date[7]</text>
<polygon fill="none" stroke="#000000" points="279,-279.2 279,-301.2 444,-301.2 444,-279.2 279,-279.2"/>
<image xlink:href="../../images/primaryKeys.png" width="11px" height="12px" preserveAspectRatio="xMinYMin meet" x="284" y="-296.2"/>
<text text-anchor="start" x="299" y="-286.3" font-family="Helvetica,sans-Serif" font-size="11.00" fill="#000000">GENDER_ID</text>
<polygon fill="none" stroke="#000000" points="444,-279.2 444,-301.2 511,-301.2 511,-279.2 444,-279.2"/>
<text text-anchor="start" x="447" y="-286.9" font-family="Helvetica,sans-Serif" font-size="11.00" fill="#000000">number[38]</text>
<polygon fill="none" stroke="#000000" points="279,-257.2 279,-279.2 444,-279.2 444,-257.2 279,-257.2"/>
<text text-anchor="start" x="299" y="-264.3" font-family="Helvetica,sans-Serif" font-size="11.00" fill="#000000">CRN</text>
<polygon fill="none" stroke="#000000" points="444,-257.2 444,-279.2 511,-279.2 511,-257.2 444,-257.2"/>
<text text-anchor="start" x="447" y="-264.9" font-family="Helvetica,sans-Serif" font-size="11.00" fill="#000000">char[7]</text>
<polygon fill="none" stroke="#000000" points="279,-235.2 279,-257.2 444,-257.2 444,-235.2 279,-235.2"/>
<text text-anchor="start" x="299" y="-242.3" font-family="Helvetica,sans-Serif" font-size="11.00" fill="#000000">PNC_NUMBER</text>
<polygon fill="none" stroke="#000000" points="444,-235.2 444,-257.2 511,-257.2 511,-235.2 444,-235.2"/>
<text text-anchor="start" x="447" y="-242.9" font-family="Helvetica,sans-Serif" font-size="11.00" fill="#000000">char[13]</text>
<polygon fill="none" stroke="#000000" points="279,-213.2 279,-235.2 444,-235.2 444,-213.2 279,-213.2"/>
<text text-anchor="start" x="299" y="-220.3" font-family="Helvetica,sans-Serif" font-size="11.00" fill="#000000">CRO_NUMBER</text>
<polygon fill="none" stroke="#000000" points="444,-213.2 444,-235.2 511,-235.2 511,-213.2 444,-213.2"/>
<text text-anchor="start" x="446.9365" y="-220.9" font-family="Helvetica,sans-Serif" font-size="11.00" fill="#000000">varchar2[12]</text>
<polygon fill="none" stroke="#000000" points="279,-191.2 279,-213.2 444,-213.2 444,-191.2 279,-191.2"/>
<text text-anchor="start" x="299" y="-198.3" font-family="Helvetica,sans-Serif" font-size="11.00" fill="#000000">NOMS_NUMBER</text>
<polygon fill="none" stroke="#000000" points="444,-191.2 444,-213.2 511,-213.2 511,-191.2 444,-191.2"/>
<text text-anchor="start" x="447" y="-198.9" font-family="Helvetica,sans-Serif" font-size="11.00" fill="#000000">char[7]</text>
<polygon fill="none" stroke="#000000" points="279,-169.2 279,-191.2 444,-191.2 444,-169.2 279,-169.2"/>
<text text-anchor="start" x="299" y="-176.3" font-family="Helvetica,sans-Serif" font-size="11.00" fill="#000000">NI_NUMBER</text>
<polygon fill="none" stroke="#000000" points="444,-169.2 444,-191.2 511,-191.2 511,-169.2 444,-169.2"/>
<text text-anchor="start" x="447" y="-176.9" font-family="Helvetica,sans-Serif" font-size="11.00" fill="#000000">char[9]</text>
<polygon fill="none" stroke="#000000" points="279,-147.2 279,-169.2 444,-169.2 444,-147.2 279,-147.2"/>
<text text-anchor="start" x="299" y="-154.3" font-family="Helvetica,sans-Serif" font-size="11.00" fill="#000000">LAST_UPDATED_USER_ID</text>
<polygon fill="none" stroke="#000000" points="444,-147.2 444,-169.2 511,-169.2 511,-147.2 444,-147.2"/>
<text text-anchor="start" x="447" y="-154.9" font-family="Helvetica,sans-Serif" font-size="11.00" fill="#000000">number[38]</text>
<polygon fill="none" stroke="#000000" points="279,-125.2 279,-147.2 444,-147.2 444,-125.2 279,-125.2"/>
<text text-anchor="start" x="299" y="-132.3" font-family="Helvetica,sans-Serif" font-size="11.00" fill="#000000">SPG_SEARCH_NIL</text>
<polygon fill="none" stroke="#000000" points="444,-125.2 444,-147.2 511,-147.2 511,-125.2 444,-125.2"/>
<text text-anchor="start" x="447" y="-132.9" font-family="Helvetica,sans-Serif" font-size="11.00" fill="#000000">char[1]</text>
<polygon fill="none" stroke="#000000" points="279,-103.2 279,-125.2 444,-125.2 444,-103.2 279,-103.2"/>
<text text-anchor="start" x="299" y="-110.3" font-family="Helvetica,sans-Serif" font-size="11.00" fill="#000000">SPG_SEARCH_COUNT</text>
<polygon fill="none" stroke="#000000" points="444,-103.2 444,-125.2 511,-125.2 511,-103.2 444,-103.2"/>
<text text-anchor="start" x="447" y="-110.9" font-family="Helvetica,sans-Serif" font-size="11.00" fill="#000000">number[38]</text>
<polygon fill="none" stroke="#000000" points="279,-81.2 279,-103.2 444,-103.2 444,-81.2 279,-81.2"/>
<text text-anchor="start" x="299" y="-88.3" font-family="Helvetica,sans-Serif" font-size="11.00" fill="#000000">SPG_SEARCH_EXCESS</text>
<polygon fill="none" stroke="#000000" points="444,-81.2 444,-103.2 511,-103.2 511,-81.2 444,-81.2"/>
<text text-anchor="start" x="447" y="-88.9" font-family="Helvetica,sans-Serif" font-size="11.00" fill="#000000">char[1]</text>
<polygon fill="none" stroke="#000000" points="279,-59.2 279,-81.2 444,-81.2 444,-59.2 279,-59.2"/>
<text text-anchor="start" x="299" y="-66.3" font-family="Helvetica,sans-Serif" font-size="11.00" fill="#000000">SPG_SEARCH_LAO</text>
<polygon fill="none" stroke="#000000" points="444,-59.2 444,-81.2 511,-81.2 511,-59.2 444,-59.2"/>
<text text-anchor="start" x="447" y="-66.9" font-family="Helvetica,sans-Serif" font-size="11.00" fill="#000000">char[1]</text>
<polygon fill="#ffffff" stroke="transparent" points="279,-40.2 279,-59.2 347,-59.2 347,-40.2 279,-40.2"/>
<polygon fill="none" stroke="#000000" points="279,-40.2 279,-59.2 347,-59.2 347,-40.2 279,-40.2"/>
<text text-anchor="start" x="282" y="-46.3" font-family="Helvetica,sans-Serif" font-size="11.00" fill="#000000">&lt; 1</text>
<polygon fill="#ffffff" stroke="transparent" points="347,-40.2 347,-59.2 444,-59.2 444,-40.2 347,-40.2"/>
<polygon fill="none" stroke="#000000" points="347,-40.2 347,-59.2 444,-59.2 444,-40.2 347,-40.2"/>
<text text-anchor="start" x="396.3807" y="-46.3" font-family="Helvetica,sans-Serif" font-size="11.00" fill="#000000">223 rows</text>
<polygon fill="#ffffff" stroke="transparent" points="444,-40.2 444,-59.2 511,-59.2 511,-40.2 444,-40.2"/>
<polygon fill="none" stroke="#000000" points="444,-40.2 444,-59.2 511,-59.2 511,-40.2 444,-40.2"/>
<text text-anchor="start" x="492.4053" y="-46.3" font-family="Helvetica,sans-Serif" font-size="11.00" fill="#000000">1 &gt;</text>
<polygon fill="none" stroke="#000000" stroke-width="2" points="278,-39.2 278,-457.2 512,-457.2 512,-39.2 278,-39.2"/>
</a>
</g>
</g>
<!-- SPG_SEARCH_OFFENDER&#45;&gt;SPG_SEARCH_REQUEST -->
<g id="edge1" class="edge">
<title>SPG_SEARCH_OFFENDER:w&#45;&gt;SPG_SEARCH_REQUEST:e</title>
<path fill="none" stroke="#000000" d="M547.276,-422.2C535.2815,-422.2 527.8229,-422.2 511,-422.2"/>
<polygon fill="#000000" stroke="#000000" points="554,-422.2001 562,-425.8 558,-422.2 562,-422.2 562,-422.2 562,-422.2 558,-422.2 562,-418.6 554,-422.2001 554,-422.2001"/>
<ellipse fill="none" stroke="#000000" cx="550.8" cy="-422.2001" rx="3.2" ry="3.2"/>
</g>
<!-- R_STANDARD_REFERENCE_LIST -->
<g id="node3" class="node">
<title>R_STANDARD_REFERENCE_LIST</title>
<g id="a_node3"><a xlink:href="../../tables/R_STANDARD_REFERENCE_LIST.html" xlink:title="R_STANDARD_REFERENCE_LIST" target="_top">
<polygon fill="#ffffff" stroke="transparent" points="8,-175.7 8,-324.7 228,-324.7 228,-175.7 8,-175.7"/>
<polygon fill="#f5f5f5" stroke="transparent" points="8,-301.2 8,-324.2 228,-324.2 228,-301.2 8,-301.2"/>
<polygon fill="none" stroke="#000000" points="8,-301.2 8,-324.2 228,-324.2 228,-301.2 8,-301.2"/>
<text text-anchor="start" x="12.5842" y="-310.3" font-family="Helvetica,sans-Serif" font-weight="bold" font-size="11.00" fill="#000000">R_STANDARD_REFERENCE_LIST</text>
<text text-anchor="start" x="193.5219" y="-309.3" font-family="Helvetica,sans-Serif" font-size="11.00" fill="#000000">[table]</text>
<polygon fill="none" stroke="#000000" points="8,-279.2 8,-301.2 228,-301.2 228,-279.2 8,-279.2"/>
<image xlink:href="../../images/primaryKeys.png" width="11px" height="12px" preserveAspectRatio="xMinYMin meet" x="13" y="-296.2"/>
<text text-anchor="start" x="35.5558" y="-286.3" font-family="Helvetica,sans-Serif" font-size="11.00" fill="#000000">STANDARD_REFERENCE_LIST_ID</text>
<polygon fill="none" stroke="#000000" points="8,-257.2 8,-279.2 228,-279.2 228,-257.2 8,-257.2"/>
<image xlink:href="../../images/primaryKeys.png" width="11px" height="12px" preserveAspectRatio="xMinYMin meet" x="13" y="-274.2"/>
<text text-anchor="start" x="42" y="-264.3" font-family="Helvetica,sans-Serif" font-size="11.00" fill="#000000">CODE_VALUE</text>
<polygon fill="none" stroke="#000000" points="8,-235.2 8,-257.2 228,-257.2 228,-235.2 8,-235.2"/>
<image xlink:href="../../images/primaryKeys.png" width="11px" height="12px" preserveAspectRatio="xMinYMin meet" x="13" y="-252.2"/>
<text text-anchor="start" x="39.8337" y="-242.3" font-family="Helvetica,sans-Serif" font-size="11.00" fill="#000000">REFERENCE_DATA_MASTER_ID</text>
<polygon fill="none" stroke="#000000" points="8,-213.2 8,-235.2 228,-235.2 228,-213.2 8,-213.2"/>
<image xlink:href="../../images/primaryKeys.png" width="11px" height="12px" preserveAspectRatio="xMinYMin meet" x="13" y="-230.2"/>
<text text-anchor="start" x="42" y="-220.3" font-family="Helvetica,sans-Serif" font-size="11.00" fill="#000000">TRAINING_SESSION_ID</text>
<polygon fill="none" stroke="#000000" points="8,-194.2 8,-213.2 228,-213.2 228,-194.2 8,-194.2"/>
<text text-anchor="start" x="11" y="-200.3" font-family="Helvetica,sans-Serif" font-size="11.00" fill="#000000">...</text>
<polygon fill="#ffffff" stroke="transparent" points="8,-175.2 8,-194.2 79,-194.2 79,-175.2 8,-175.2"/>
<polygon fill="none" stroke="#000000" points="8,-175.2 8,-194.2 79,-194.2 79,-175.2 8,-175.2"/>
<text text-anchor="start" x="11" y="-181.3" font-family="Helvetica,sans-Serif" font-size="11.00" fill="#000000">&lt; 1</text>
<polygon fill="#ffffff" stroke="transparent" points="79,-175.2 79,-194.2 169,-194.2 169,-175.2 79,-175.2"/>
<polygon fill="none" stroke="#000000" points="79,-175.2 79,-194.2 169,-194.2 169,-175.2 79,-175.2"/>
<text text-anchor="start" x="106.094" y="-181.3" font-family="Helvetica,sans-Serif" font-size="11.00" fill="#000000">15,391 rows</text>
<polygon fill="#ffffff" stroke="transparent" points="169,-175.2 169,-194.2 228,-194.2 228,-175.2 169,-175.2"/>
<polygon fill="none" stroke="#000000" points="169,-175.2 169,-194.2 228,-194.2 228,-175.2 169,-175.2"/>
<text text-anchor="start" x="197.1755" y="-181.3" font-family="Helvetica,sans-Serif" font-size="11.00" fill="#000000">310 &gt;</text>
</a>
</g>
</g>
<!-- SPG_SEARCH_REQUEST&#45;&gt;R_STANDARD_REFERENCE_LIST -->
<g id="edge2" class="edge">
<title>SPG_SEARCH_REQUEST:w&#45;&gt;R_STANDARD_REFERENCE_LIST:e</title>
<path fill="none" stroke="#000000" d="M264.276,-290.2C252.2815,-290.2 244.8229,-290.2 228,-290.2"/>
<polygon fill="#000000" stroke="#000000" points="271,-290.2001 279,-293.8 275,-290.2 279,-290.2 279,-290.2 279,-290.2 275,-290.2 279,-286.6 271,-290.2001 271,-290.2001"/>
<ellipse fill="none" stroke="#000000" cx="267.8" cy="-290.2001" rx="3.2" ry="3.2"/>
</g>
</g>
</svg>
