<?xml version="1.0" encoding="UTF-8" standalone="no"?>
<!DOCTYPE svg PUBLIC "-//W3C//DTD SVG 1.1//EN"
 "http://www.w3.org/Graphics/SVG/1.1/DTD/svg11.dtd">
<!-- Generated by graphviz version 2.40.1 (20161225.0304)
 -->
<!-- Title: twoDegreesRelationshipsDiagram Pages: 1 -->
<svg width="1260pt" height="606pt"
 viewBox="0.00 0.00 1260.00 606.45" xmlns="http://www.w3.org/2000/svg" xmlns:xlink="http://www.w3.org/1999/xlink">
<g id="graph0" class="graph" transform="scale(1 1) rotate(0) translate(4 602.4479)">
<title>twoDegreesRelationshipsDiagram</title>
<polygon fill="#ffffff" stroke="transparent" points="-4,4 -4,-602.4479 1256,-602.4479 1256,4 -4,4"/>
<text text-anchor="middle" x="72.4936" y="-7.3" font-family="Helvetica,sans-Serif" font-size="11.00" fill="#000000">Generated by SchemaSpy</text>
<!-- CONTACT_ALERT_CLEAR -->
<g id="node1" class="node">
<title>CONTACT_ALERT_CLEAR</title>
<g id="a_node1"><a xlink:href="../../tables/CONTACT_ALERT_CLEAR.html" xlink:title="CONTACT_ALERT_CLEAR" target="_top">
<polygon fill="#ffffff" stroke="transparent" points="1022,-65.4479 1022,-126.4479 1202,-126.4479 1202,-65.4479 1022,-65.4479"/>
<polygon fill="#f5f5f5" stroke="transparent" points="1022,-102.9479 1022,-125.9479 1202,-125.9479 1202,-102.9479 1022,-102.9479"/>
<polygon fill="none" stroke="#000000" points="1022,-102.9479 1022,-125.9479 1202,-125.9479 1202,-102.9479 1022,-102.9479"/>
<text text-anchor="start" x="1026.7495" y="-112.0479" font-family="Helvetica,sans-Serif" font-weight="bold" font-size="11.00" fill="#000000">CONTACT_ALERT_CLEAR</text>
<text text-anchor="start" x="1167.5219" y="-111.0479" font-family="Helvetica,sans-Serif" font-size="11.00" fill="#000000">[table]</text>
<polygon fill="none" stroke="#000000" points="1022,-83.9479 1022,-102.9479 1202,-102.9479 1202,-83.9479 1022,-83.9479"/>
<text text-anchor="start" x="1025" y="-90.0479" font-family="Helvetica,sans-Serif" font-size="11.00" fill="#000000">...</text>
<polygon fill="#ffffff" stroke="transparent" points="1022,-64.9479 1022,-83.9479 1084,-83.9479 1084,-64.9479 1022,-64.9479"/>
<polygon fill="none" stroke="#000000" points="1022,-64.9479 1022,-83.9479 1084,-83.9479 1084,-64.9479 1022,-64.9479"/>
<text text-anchor="start" x="1025" y="-71.0479" font-family="Helvetica,sans-Serif" font-size="11.00" fill="#000000">&lt; 6</text>
<polygon fill="#ffffff" stroke="transparent" points="1084,-64.9479 1084,-83.9479 1169,-83.9479 1169,-64.9479 1084,-64.9479"/>
<polygon fill="none" stroke="#000000" points="1084,-64.9479 1084,-83.9479 1169,-83.9479 1169,-64.9479 1084,-64.9479"/>
<text text-anchor="start" x="1106.094" y="-71.0479" font-family="Helvetica,sans-Serif" font-size="11.00" fill="#000000">52,166 rows</text>
<polygon fill="#ffffff" stroke="transparent" points="1169,-64.9479 1169,-83.9479 1202,-83.9479 1202,-64.9479 1169,-64.9479"/>
<polygon fill="none" stroke="#000000" points="1169,-64.9479 1169,-83.9479 1202,-83.9479 1202,-64.9479 1169,-64.9479"/>
<text text-anchor="start" x="1192.8862" y="-71.0479" font-family="Helvetica,sans-Serif" font-size="11.00" fill="#000000"> &#160;</text>
</a>
</g>
</g>
<!-- OFFENDER -->
<g id="node2" class="node">
<title>OFFENDER</title>
<g id="a_node2"><a xlink:href="../../tables/OFFENDER.html" xlink:title="OFFENDER" target="_top">
<polygon fill="#ffffff" stroke="transparent" points="304,-135.4479 304,-196.4479 429,-196.4479 429,-135.4479 304,-135.4479"/>
<polygon fill="#f5f5f5" stroke="transparent" points="304.5,-172.9479 304.5,-195.9479 429.5,-195.9479 429.5,-172.9479 304.5,-172.9479"/>
<polygon fill="none" stroke="#000000" points="304.5,-172.9479 304.5,-195.9479 429.5,-195.9479 429.5,-172.9479 304.5,-172.9479"/>
<text text-anchor="start" x="309.5" y="-182.0479" font-family="Helvetica,sans-Serif" font-weight="bold" font-size="11.00" fill="#000000">OFFENDER</text>
<text text-anchor="start" x="394.5437" y="-181.0479" font-family="Helvetica,sans-Serif" font-size="11.00" fill="#000000">[table]</text>
<polygon fill="none" stroke="#000000" points="304.5,-153.9479 304.5,-172.9479 429.5,-172.9479 429.5,-153.9479 304.5,-153.9479"/>
<text text-anchor="start" x="307.5" y="-160.0479" font-family="Helvetica,sans-Serif" font-size="11.00" fill="#000000">...</text>
<polygon fill="#ffffff" stroke="transparent" points="304.5,-134.9479 304.5,-153.9479 331.5,-153.9479 331.5,-134.9479 304.5,-134.9479"/>
<polygon fill="none" stroke="#000000" points="304.5,-134.9479 304.5,-153.9479 331.5,-153.9479 331.5,-134.9479 304.5,-134.9479"/>
<text text-anchor="start" x="307.1452" y="-141.0479" font-family="Helvetica,sans-Serif" font-size="11.00" fill="#000000">&lt; 16</text>
<polygon fill="#ffffff" stroke="transparent" points="331.5,-134.9479 331.5,-153.9479 396.5,-153.9479 396.5,-134.9479 331.5,-134.9479"/>
<polygon fill="none" stroke="#000000" points="331.5,-134.9479 331.5,-153.9479 396.5,-153.9479 396.5,-134.9479 331.5,-134.9479"/>
<text text-anchor="start" x="334.047" y="-141.0479" font-family="Helvetica,sans-Serif" font-size="11.00" fill="#000000">18,527 rows</text>
<polygon fill="#ffffff" stroke="transparent" points="396.5,-134.9479 396.5,-153.9479 429.5,-153.9479 429.5,-134.9479 396.5,-134.9479"/>
<polygon fill="none" stroke="#000000" points="396.5,-134.9479 396.5,-153.9479 429.5,-153.9479 429.5,-134.9479 396.5,-134.9479"/>
<text text-anchor="start" x="399.0878" y="-141.0479" font-family="Helvetica,sans-Serif" font-size="11.00" fill="#000000">103 &gt;</text>
</a>
</g>
</g>
<!-- CONTACT_ALERT_CLEAR&#45;&gt;OFFENDER -->
<g id="edge1" class="edge">
<title>CONTACT_ALERT_CLEAR:w&#45;&gt;OFFENDER:e</title>
<path fill="none" stroke="#000000" d="M1007.2793,-92.0552C981.2903,-88.6912 971.2339,-76.7767 939,-72.9479 743.8865,-49.7719 673.2564,4.886 497,-81.9479 454.9631,-102.6576 476.3615,-162.9479 429.5,-162.9479"/>
<polygon fill="#000000" stroke="#000000" points="1014.0147,-92.4636 1021.7821,-96.5413 1018.0073,-92.7057 1022,-92.9479 1022,-92.9479 1022,-92.9479 1018.0073,-92.7057 1022.2179,-89.3545 1014.0147,-92.4636 1014.0147,-92.4636"/>
<ellipse fill="none" stroke="#000000" cx="1010.8205" cy="-92.2699" rx="3.2" ry="3.2"/>
</g>
<!-- SPG_NOTIFICATION -->
<g id="node3" class="node">
<title>SPG_NOTIFICATION</title>
<g id="a_node3"><a xlink:href="../../tables/SPG_NOTIFICATION.html" xlink:title="SPG_NOTIFICATION" target="_top">
<polygon fill="#ffffff" stroke="transparent" points="733,-106.4479 733,-497.4479 931,-497.4479 931,-106.4479 733,-106.4479"/>
<polygon fill="#f5f5f5" stroke="transparent" points="733,-473.9479 733,-496.9479 931,-496.9479 931,-473.9479 733,-473.9479"/>
<polygon fill="none" stroke="#000000" points="733,-473.9479 733,-496.9479 931,-496.9479 931,-473.9479 733,-473.9479"/>
<text text-anchor="start" x="738" y="-483.0479" font-family="Helvetica,sans-Serif" font-weight="bold" font-size="11.00" fill="#000000">SPG_NOTIFICATION</text>
<text text-anchor="start" x="896.0437" y="-482.0479" font-family="Helvetica,sans-Serif" font-size="11.00" fill="#000000">[table]</text>
<polygon fill="none" stroke="#000000" points="733,-451.9479 733,-473.9479 931,-473.9479 931,-451.9479 733,-451.9479"/>
<image xlink:href="../../images/primaryKeys.png" width="11px" height="12px" preserveAspectRatio="xMinYMin meet" x="738" y="-468.948"/>
<text text-anchor="start" x="753" y="-459.0479" font-family="Helvetica,sans-Serif" font-size="11.00" fill="#000000">SPG_NOTIFICATION_ID</text>
<polygon fill="none" stroke="#000000" points="733,-429.9479 733,-451.9479 931,-451.9479 931,-429.9479 733,-429.9479"/>
<image xlink:href="../../images/primaryKeys.png" width="11px" height="12px" preserveAspectRatio="xMinYMin meet" x="738" y="-446.948"/>
<text text-anchor="start" x="753" y="-437.0479" font-family="Helvetica,sans-Serif" font-size="11.00" fill="#000000">BUSINESS_INTERACTION_ID</text>
<polygon fill="none" stroke="#000000" points="733,-407.9479 733,-429.9479 931,-429.9479 931,-407.9479 733,-407.9479"/>
<image xlink:href="../../images/primaryKeys.png" width="11px" height="12px" preserveAspectRatio="xMinYMin meet" x="738" y="-424.948"/>
<text text-anchor="start" x="753" y="-415.0479" font-family="Helvetica,sans-Serif" font-size="11.00" fill="#000000">OFFENDER_ID</text>
<polygon fill="none" stroke="#000000" points="733,-385.9479 733,-407.9479 931,-407.9479 931,-385.9479 733,-385.9479"/>
<image xlink:href="../../images/primaryKeys.png" width="11px" height="12px" preserveAspectRatio="xMinYMin meet" x="738" y="-402.948"/>
<text text-anchor="start" x="753" y="-393.0479" font-family="Helvetica,sans-Serif" font-size="11.00" fill="#000000">DATE_CREATED</text>
<polygon fill="none" stroke="#000000" points="733,-363.9479 733,-385.9479 931,-385.9479 931,-363.9479 733,-363.9479"/>
<image xlink:href="../../images/primaryKeys.png" width="11px" height="12px" preserveAspectRatio="xMinYMin meet" x="738" y="-380.948"/>
<text text-anchor="start" x="753" y="-371.0479" font-family="Helvetica,sans-Serif" font-size="11.00" fill="#000000">PROCESSED_FLAG</text>
<polygon fill="none" stroke="#000000" points="733,-341.9479 733,-363.9479 931,-363.9479 931,-341.9479 733,-341.9479"/>
<image xlink:href="../../images/primaryKeys.png" width="11px" height="12px" preserveAspectRatio="xMinYMin meet" x="738" y="-358.948"/>
<text text-anchor="start" x="753" y="-349.0479" font-family="Helvetica,sans-Serif" font-size="11.00" fill="#000000">CONTROL_REFERENCE</text>
<polygon fill="none" stroke="#000000" points="733,-319.9479 733,-341.9479 931,-341.9479 931,-319.9479 733,-319.9479"/>
<image xlink:href="../../images/primaryKeys.png" width="11px" height="12px" preserveAspectRatio="xMinYMin meet" x="738" y="-336.948"/>
<text text-anchor="start" x="753" y="-327.0479" font-family="Helvetica,sans-Serif" font-size="11.00" fill="#000000">SENDER_IDENTITY_ID</text>
<polygon fill="none" stroke="#000000" points="733,-297.9479 733,-319.9479 931,-319.9479 931,-297.9479 733,-297.9479"/>
<image xlink:href="../../images/primaryKeys.png" width="11px" height="12px" preserveAspectRatio="xMinYMin meet" x="738" y="-314.948"/>
<text text-anchor="start" x="753" y="-305.0479" font-family="Helvetica,sans-Serif" font-size="11.00" fill="#000000">RECEIVER_IDENTITY_ID</text>
<polygon fill="none" stroke="#000000" points="733,-275.9479 733,-297.9479 931,-297.9479 931,-275.9479 733,-275.9479"/>
<image xlink:href="../../images/primaryKeys.png" width="11px" height="12px" preserveAspectRatio="xMinYMin meet" x="738" y="-292.948"/>
<text text-anchor="start" x="744.4743" y="-283.0479" font-family="Helvetica,sans-Serif" font-size="11.00" fill="#000000">RECEIVER_CONTROL_REFERENCE</text>
<polygon fill="none" stroke="#000000" points="733,-253.9479 733,-275.9479 931,-275.9479 931,-253.9479 733,-253.9479"/>
<image xlink:href="../../images/primaryKeys.png" width="11px" height="12px" preserveAspectRatio="xMinYMin meet" x="738" y="-270.948"/>
<text text-anchor="start" x="753" y="-261.0479" font-family="Helvetica,sans-Serif" font-size="11.00" fill="#000000">MESSAGE_DIRECTION</text>
<polygon fill="none" stroke="#000000" points="733,-231.9479 733,-253.9479 931,-253.9479 931,-231.9479 733,-231.9479"/>
<image xlink:href="../../images/primaryKeys.png" width="11px" height="12px" preserveAspectRatio="xMinYMin meet" x="738" y="-248.948"/>
<text text-anchor="start" x="753" y="-239.0479" font-family="Helvetica,sans-Serif" font-size="11.00" fill="#000000">SPG_MESSAGE_CONTEXT_ID</text>
<polygon fill="none" stroke="#000000" points="733,-209.9479 733,-231.9479 931,-231.9479 931,-209.9479 733,-209.9479"/>
<image xlink:href="../../images/primaryKeys.png" width="11px" height="12px" preserveAspectRatio="xMinYMin meet" x="738" y="-226.948"/>
<text text-anchor="start" x="751.4973" y="-217.0479" font-family="Helvetica,sans-Serif" font-size="11.00" fill="#000000">SPG_INTERCHANGE_STATUS_ID</text>
<polygon fill="none" stroke="#000000" points="733,-187.9479 733,-209.9479 931,-209.9479 931,-187.9479 733,-187.9479"/>
<image xlink:href="../../images/primaryKeys.png" width="11px" height="12px" preserveAspectRatio="xMinYMin meet" x="738" y="-204.948"/>
<text text-anchor="start" x="747.2249" y="-195.0479" font-family="Helvetica,sans-Serif" font-size="11.00" fill="#000000">REGENERATED_NOTIFICATION_ID</text>
<polygon fill="none" stroke="#000000" points="733,-165.9479 733,-187.9479 931,-187.9479 931,-165.9479 733,-165.9479"/>
<image xlink:href="../../images/primaryKeys.png" width="11px" height="12px" preserveAspectRatio="xMinYMin meet" x="738" y="-182.948"/>
<text text-anchor="start" x="753" y="-173.0479" font-family="Helvetica,sans-Serif" font-size="11.00" fill="#000000">MT_COMPONENT_ID</text>
<polygon fill="none" stroke="#000000" points="733,-143.9479 733,-165.9479 931,-165.9479 931,-143.9479 733,-143.9479"/>
<image xlink:href="../../images/primaryKeys.png" width="11px" height="12px" preserveAspectRatio="xMinYMin meet" x="738" y="-160.948"/>
<text text-anchor="start" x="753" y="-151.0479" font-family="Helvetica,sans-Serif" font-size="11.00" fill="#000000">DATA_SCRIPT_MESSAGE_ID</text>
<polygon fill="none" stroke="#000000" points="733,-124.9479 733,-143.9479 931,-143.9479 931,-124.9479 733,-124.9479"/>
<text text-anchor="start" x="736" y="-131.0479" font-family="Helvetica,sans-Serif" font-size="11.00" fill="#000000">...</text>
<polygon fill="#ffffff" stroke="transparent" points="733,-105.9479 733,-124.9479 796,-124.9479 796,-105.9479 733,-105.9479"/>
<polygon fill="none" stroke="#000000" points="733,-105.9479 733,-124.9479 796,-124.9479 796,-105.9479 733,-105.9479"/>
<text text-anchor="start" x="736" y="-112.0479" font-family="Helvetica,sans-Serif" font-size="11.00" fill="#000000">&lt; 8</text>
<polygon fill="#ffffff" stroke="transparent" points="796,-105.9479 796,-124.9479 889,-124.9479 889,-105.9479 796,-105.9479"/>
<polygon fill="none" stroke="#000000" points="796,-105.9479 796,-124.9479 889,-124.9479 889,-105.9479 796,-105.9479"/>
<text text-anchor="start" x="819.9791" y="-112.0479" font-family="Helvetica,sans-Serif" font-size="11.00" fill="#000000">428,992 rows</text>
<polygon fill="#ffffff" stroke="transparent" points="889,-105.9479 889,-124.9479 931,-124.9479 931,-105.9479 889,-105.9479"/>
<polygon fill="none" stroke="#000000" points="889,-105.9479 889,-124.9479 931,-124.9479 931,-105.9479 889,-105.9479"/>
<text text-anchor="start" x="912.4053" y="-112.0479" font-family="Helvetica,sans-Serif" font-size="11.00" fill="#000000">5 &gt;</text>
</a>
</g>
</g>
<!-- CONTACT_ALERT_CLEAR&#45;&gt;SPG_NOTIFICATION -->
<g id="edge2" class="edge">
<title>CONTACT_ALERT_CLEAR:w&#45;&gt;SPG_NOTIFICATION:e</title>
<path fill="none" stroke="#000000" d="M1007.4601,-95.0592C980.8214,-104.028 984.5008,-140.1065 972,-174.9479 950.1684,-235.7952 995.6453,-462.9479 931,-462.9479"/>
<polygon fill="#000000" stroke="#000000" points="1014.083,-94.0975 1022.5173,-96.5105 1018.0415,-93.5227 1022,-92.9479 1022,-92.9479 1022,-92.9479 1018.0415,-93.5227 1021.4827,-89.3852 1014.083,-94.0975 1014.083,-94.0975"/>
<ellipse fill="none" stroke="#000000" cx="1010.9162" cy="-94.5574" rx="3.2" ry="3.2"/>
</g>
<!-- R_STANDARD_REFERENCE_LIST -->
<g id="node6" class="node">
<title>R_STANDARD_REFERENCE_LIST</title>
<g id="a_node6"><a xlink:href="../../tables/R_STANDARD_REFERENCE_LIST.html" xlink:title="R_STANDARD_REFERENCE_LIST" target="_top">
<polygon fill="#ffffff" stroke="transparent" points="8,-135.4479 8,-196.4479 228,-196.4479 228,-135.4479 8,-135.4479"/>
<polygon fill="#f5f5f5" stroke="transparent" points="8,-172.9479 8,-195.9479 228,-195.9479 228,-172.9479 8,-172.9479"/>
<polygon fill="none" stroke="#000000" points="8,-172.9479 8,-195.9479 228,-195.9479 228,-172.9479 8,-172.9479"/>
<text text-anchor="start" x="12.5842" y="-182.0479" font-family="Helvetica,sans-Serif" font-weight="bold" font-size="11.00" fill="#000000">R_STANDARD_REFERENCE_LIST</text>
<text text-anchor="start" x="193.5219" y="-181.0479" font-family="Helvetica,sans-Serif" font-size="11.00" fill="#000000">[table]</text>
<polygon fill="none" stroke="#000000" points="8,-153.9479 8,-172.9479 228,-172.9479 228,-153.9479 8,-153.9479"/>
<text text-anchor="start" x="11" y="-160.0479" font-family="Helvetica,sans-Serif" font-size="11.00" fill="#000000">...</text>
<polygon fill="#ffffff" stroke="transparent" points="8,-134.9479 8,-153.9479 79,-153.9479 79,-134.9479 8,-134.9479"/>
<polygon fill="none" stroke="#000000" points="8,-134.9479 8,-153.9479 79,-153.9479 79,-134.9479 8,-134.9479"/>
<text text-anchor="start" x="11" y="-141.0479" font-family="Helvetica,sans-Serif" font-size="11.00" fill="#000000">&lt; 1</text>
<polygon fill="#ffffff" stroke="transparent" points="79,-134.9479 79,-153.9479 169,-153.9479 169,-134.9479 79,-134.9479"/>
<polygon fill="none" stroke="#000000" points="79,-134.9479 79,-153.9479 169,-153.9479 169,-134.9479 79,-134.9479"/>
<text text-anchor="start" x="106.094" y="-141.0479" font-family="Helvetica,sans-Serif" font-size="11.00" fill="#000000">15,391 rows</text>
<polygon fill="#ffffff" stroke="transparent" points="169,-134.9479 169,-153.9479 228,-153.9479 228,-134.9479 169,-134.9479"/>
<polygon fill="none" stroke="#000000" points="169,-134.9479 169,-153.9479 228,-153.9479 228,-134.9479 169,-134.9479"/>
<text text-anchor="start" x="197.1755" y="-141.0479" font-family="Helvetica,sans-Serif" font-size="11.00" fill="#000000">310 &gt;</text>
</a>
</g>
</g>
<!-- OFFENDER&#45;&gt;R_STANDARD_REFERENCE_LIST -->
<g id="edge5" class="edge">
<title>OFFENDER:w&#45;&gt;R_STANDARD_REFERENCE_LIST:e</title>
<path fill="none" stroke="#000000" d="M298.5933,-149.6377C269.3772,-85.2338 259.9414,-89.6705 228,-162.9479"/>
<polygon fill="#000000" stroke="#000000" points="301.255,-155.6355 301.2095,-164.4081 302.8775,-159.2917 304.5,-162.9479 304.5,-162.9479 304.5,-162.9479 302.8775,-159.2917 307.7905,-161.4876 301.255,-155.6355 301.255,-155.6355"/>
<ellipse fill="none" stroke="#000000" cx="299.957" cy="-152.7106" rx="3.2" ry="3.2"/>
</g>
<!-- OFFENDER&#45;&gt;R_STANDARD_REFERENCE_LIST -->
<g id="edge6" class="edge">
<title>OFFENDER:w&#45;&gt;R_STANDARD_REFERENCE_LIST:e</title>
<path fill="none" stroke="#000000" d="M297.6886,-150.201C269.1786,-98.2692 259.6094,-102.5182 228,-162.9479"/>
<polygon fill="#000000" stroke="#000000" points="300.7296,-155.892 301.3249,-164.6445 302.6148,-159.4199 304.5,-162.9479 304.5,-162.9479 304.5,-162.9479 302.6148,-159.4199 307.6751,-161.2512 300.7296,-155.892 300.7296,-155.892"/>
<ellipse fill="none" stroke="#000000" cx="299.2215" cy="-153.0697" rx="3.2" ry="3.2"/>
</g>
<!-- OFFENDER&#45;&gt;R_STANDARD_REFERENCE_LIST -->
<g id="edge7" class="edge">
<title>OFFENDER:w&#45;&gt;R_STANDARD_REFERENCE_LIST:e</title>
<path fill="none" stroke="#000000" d="M296.443,-150.9466C268.8924,-111.3146 259.1445,-115.315 228,-162.9479"/>
<polygon fill="#000000" stroke="#000000" points="300.0409,-156.3058 301.5111,-164.9545 302.2704,-159.6268 304.5,-162.9479 304.5,-162.9479 304.5,-162.9479 302.2704,-159.6268 307.4889,-160.9412 300.0409,-156.3058 300.0409,-156.3058"/>
<ellipse fill="none" stroke="#000000" cx="298.2572" cy="-153.649" rx="3.2" ry="3.2"/>
</g>
<!-- OFFENDER&#45;&gt;R_STANDARD_REFERENCE_LIST -->
<g id="edge8" class="edge">
<title>OFFENDER:w&#45;&gt;R_STANDARD_REFERENCE_LIST:e</title>
<path fill="none" stroke="#000000" d="M294.5333,-151.9095C268.4234,-124.3817 258.4141,-128.0611 228,-162.9479"/>
<polygon fill="#000000" stroke="#000000" points="299.1387,-157.0101 301.828,-165.3604 301.8194,-159.979 304.5,-162.9479 304.5,-162.9479 304.5,-162.9479 301.8194,-159.979 307.172,-160.5353 299.1387,-157.0101 299.1387,-157.0101"/>
<ellipse fill="none" stroke="#000000" cx="296.9942" cy="-154.635" rx="3.2" ry="3.2"/>
</g>
<!-- OFFENDER&#45;&gt;R_STANDARD_REFERENCE_LIST -->
<g id="edge9" class="edge">
<title>OFFENDER:w&#45;&gt;R_STANDARD_REFERENCE_LIST:e</title>
<path fill="none" stroke="#000000" d="M292.8457,-154.4166C267.9766,-137.3541 257.75,-140.1979 228,-162.9479"/>
<polygon fill="#000000" stroke="#000000" points="298.0447,-158.2224 302.3736,-165.8527 301.2724,-160.5851 304.5,-162.9479 304.5,-162.9479 304.5,-162.9479 301.2724,-160.5851 306.6264,-160.043 298.0447,-158.2224 298.0447,-158.2224"/>
<ellipse fill="none" stroke="#000000" cx="295.4626" cy="-156.3322" rx="3.2" ry="3.2"/>
</g>
<!-- OFFENDER&#45;&gt;R_STANDARD_REFERENCE_LIST -->
<g id="edge10" class="edge">
<title>OFFENDER:w&#45;&gt;R_STANDARD_REFERENCE_LIST:e</title>
<path fill="none" stroke="#000000" d="M290.8782,-158.0181C267.4147,-150.2343 256.9531,-151.8775 228,-162.9479"/>
<polygon fill="#000000" stroke="#000000" points="296.9775,-160.2254 303.2749,-166.333 300.7387,-161.5866 304.5,-162.9479 304.5,-162.9479 304.5,-162.9479 300.7387,-161.5866 305.7251,-159.5627 296.9775,-160.2254 296.9775,-160.2254"/>
<ellipse fill="none" stroke="#000000" cx="293.9684" cy="-159.1364" rx="3.2" ry="3.2"/>
</g>
<!-- OFFENDER&#45;&gt;R_STANDARD_REFERENCE_LIST -->
<g id="edge11" class="edge">
<title>OFFENDER:w&#45;&gt;R_STANDARD_REFERENCE_LIST:e</title>
<path fill="none" stroke="#000000" d="M289.9168,-162.9479C267.1233,-162.9479 256.5547,-162.9479 228,-162.9479"/>
<polygon fill="#000000" stroke="#000000" points="296.5,-162.9479 304.5,-166.5479 300.5,-162.9479 304.5,-162.9479 304.5,-162.9479 304.5,-162.9479 300.5,-162.9479 304.5,-159.3479 296.5,-162.9479 296.5,-162.9479"/>
<ellipse fill="none" stroke="#000000" cx="293.3" cy="-162.9479" rx="3.2" ry="3.2"/>
</g>
<!-- OFFENDER&#45;&gt;R_STANDARD_REFERENCE_LIST -->
<g id="edge12" class="edge">
<title>OFFENDER:w&#45;&gt;R_STANDARD_REFERENCE_LIST:e</title>
<path fill="none" stroke="#000000" d="M290.8782,-167.8776C267.4147,-175.6614 256.9531,-174.0182 228,-162.9479"/>
<polygon fill="#000000" stroke="#000000" points="296.9775,-165.6703 305.7251,-166.333 300.7387,-164.3091 304.5,-162.9479 304.5,-162.9479 304.5,-162.9479 300.7387,-164.3091 303.2749,-159.5627 296.9775,-165.6703 296.9775,-165.6703"/>
<ellipse fill="none" stroke="#000000" cx="293.9684" cy="-166.7593" rx="3.2" ry="3.2"/>
</g>
<!-- OFFENDER&#45;&gt;R_STANDARD_REFERENCE_LIST -->
<g id="edge13" class="edge">
<title>OFFENDER:w&#45;&gt;R_STANDARD_REFERENCE_LIST:e</title>
<path fill="none" stroke="#000000" d="M292.8457,-171.4791C267.9766,-188.5416 257.75,-185.6979 228,-162.9479"/>
<polygon fill="#000000" stroke="#000000" points="298.0447,-167.6733 306.6264,-165.8527 301.2724,-165.3106 304.5,-162.9479 304.5,-162.9479 304.5,-162.9479 301.2724,-165.3106 302.3736,-160.043 298.0447,-167.6733 298.0447,-167.6733"/>
<ellipse fill="none" stroke="#000000" cx="295.4626" cy="-169.5635" rx="3.2" ry="3.2"/>
</g>
<!-- OFFENDER&#45;&gt;R_STANDARD_REFERENCE_LIST -->
<g id="edge14" class="edge">
<title>OFFENDER:w&#45;&gt;R_STANDARD_REFERENCE_LIST:e</title>
<path fill="none" stroke="#000000" d="M294.5333,-173.9862C268.4234,-201.514 258.4141,-197.8346 228,-162.9479"/>
<polygon fill="#000000" stroke="#000000" points="299.1387,-168.8856 307.172,-165.3604 301.8194,-165.9167 304.5,-162.9479 304.5,-162.9479 304.5,-162.9479 301.8194,-165.9167 301.828,-160.5353 299.1387,-168.8856 299.1387,-168.8856"/>
<ellipse fill="none" stroke="#000000" cx="296.9942" cy="-171.2607" rx="3.2" ry="3.2"/>
</g>
<!-- OFFENDER&#45;&gt;R_STANDARD_REFERENCE_LIST -->
<g id="edge15" class="edge">
<title>OFFENDER:w&#45;&gt;R_STANDARD_REFERENCE_LIST:e</title>
<path fill="none" stroke="#000000" d="M296.443,-174.9491C268.8924,-214.5811 259.1445,-210.5807 228,-162.9479"/>
<polygon fill="#000000" stroke="#000000" points="300.0409,-169.5899 307.4889,-164.9545 302.2704,-166.2689 304.5,-162.9479 304.5,-162.9479 304.5,-162.9479 302.2704,-166.2689 301.5111,-160.9412 300.0409,-169.5899 300.0409,-169.5899"/>
<ellipse fill="none" stroke="#000000" cx="298.2572" cy="-172.2467" rx="3.2" ry="3.2"/>
</g>
<!-- OFFENDER&#45;&gt;R_STANDARD_REFERENCE_LIST -->
<g id="edge16" class="edge">
<title>OFFENDER:w&#45;&gt;R_STANDARD_REFERENCE_LIST:e</title>
<path fill="none" stroke="#000000" d="M297.6886,-175.6947C269.1786,-227.6265 259.6094,-223.3775 228,-162.9479"/>
<polygon fill="#000000" stroke="#000000" points="300.7296,-170.0037 307.6751,-164.6445 302.6148,-166.4758 304.5,-162.9479 304.5,-162.9479 304.5,-162.9479 302.6148,-166.4758 301.3249,-161.2512 300.7296,-170.0037 300.7296,-170.0037"/>
<ellipse fill="none" stroke="#000000" cx="299.2215" cy="-172.826" rx="3.2" ry="3.2"/>
</g>
<!-- OFFENDER&#45;&gt;R_STANDARD_REFERENCE_LIST -->
<g id="edge17" class="edge">
<title>OFFENDER:w&#45;&gt;R_STANDARD_REFERENCE_LIST:e</title>
<path fill="none" stroke="#000000" d="M298.5933,-176.258C269.3772,-240.6619 259.9414,-236.2252 228,-162.9479"/>
<polygon fill="#000000" stroke="#000000" points="301.255,-170.2602 307.7905,-164.4081 302.8775,-166.604 304.5,-162.9479 304.5,-162.9479 304.5,-162.9479 302.8775,-166.604 301.2095,-161.4876 301.255,-170.2602 301.255,-170.2602"/>
<ellipse fill="none" stroke="#000000" cx="299.957" cy="-173.1851" rx="3.2" ry="3.2"/>
</g>
<!-- SPG_NOTIFICATION&#45;&gt;OFFENDER -->
<g id="edge29" class="edge">
<title>SPG_NOTIFICATION:w&#45;&gt;OFFENDER:e</title>
<path fill="none" stroke="#000000" d="M718.7651,-415.0713C706.5038,-406.3362 708.0449,-384.6525 692,-368.9479 678.7521,-355.9809 448.0378,-162.9479 429.5,-162.9479"/>
<polygon fill="#000000" stroke="#000000" points="725.2811,-416.8458 732.0541,-422.4214 729.1405,-417.8968 733,-418.9479 733,-418.9479 733,-418.9479 729.1405,-417.8968 733.9459,-415.4743 725.2811,-416.8458 725.2811,-416.8458"/>
<ellipse fill="none" stroke="#000000" cx="722.1935" cy="-416.0049" rx="3.2" ry="3.2"/>
</g>
<!-- DATA_SCRIPT_MESSAGE -->
<g id="node4" class="node">
<title>DATA_SCRIPT_MESSAGE</title>
<g id="a_node4"><a xlink:href="../../tables/DATA_SCRIPT_MESSAGE.html" xlink:title="DATA_SCRIPT_MESSAGE" target="_top">
<polygon fill="#ffffff" stroke="transparent" points="505,-135.4479 505,-196.4479 684,-196.4479 684,-135.4479 505,-135.4479"/>
<polygon fill="#f5f5f5" stroke="transparent" points="505.5,-172.9479 505.5,-195.9479 684.5,-195.9479 684.5,-172.9479 505.5,-172.9479"/>
<polygon fill="none" stroke="#000000" points="505.5,-172.9479 505.5,-195.9479 684.5,-195.9479 684.5,-172.9479 505.5,-172.9479"/>
<text text-anchor="start" x="510.3545" y="-182.0479" font-family="Helvetica,sans-Serif" font-weight="bold" font-size="11.00" fill="#000000">DATA_SCRIPT_MESSAGE</text>
<text text-anchor="start" x="650.0219" y="-181.0479" font-family="Helvetica,sans-Serif" font-size="11.00" fill="#000000">[table]</text>
<polygon fill="none" stroke="#000000" points="505.5,-153.9479 505.5,-172.9479 684.5,-172.9479 684.5,-153.9479 505.5,-153.9479"/>
<text text-anchor="start" x="508.5" y="-160.0479" font-family="Helvetica,sans-Serif" font-size="11.00" fill="#000000">...</text>
<polygon fill="#ffffff" stroke="transparent" points="505.5,-134.9479 505.5,-153.9479 569.5,-153.9479 569.5,-134.9479 505.5,-134.9479"/>
<polygon fill="none" stroke="#000000" points="505.5,-134.9479 505.5,-153.9479 569.5,-153.9479 569.5,-134.9479 505.5,-134.9479"/>
<text text-anchor="start" x="508.5" y="-141.0479" font-family="Helvetica,sans-Serif" font-size="11.00" fill="#000000">&lt; 3</text>
<polygon fill="#ffffff" stroke="transparent" points="569.5,-134.9479 569.5,-153.9479 641.5,-153.9479 641.5,-134.9479 569.5,-134.9479"/>
<polygon fill="none" stroke="#000000" points="569.5,-134.9479 569.5,-153.9479 641.5,-153.9479 641.5,-134.9479 569.5,-134.9479"/>
<text text-anchor="start" x="593.8807" y="-141.0479" font-family="Helvetica,sans-Serif" font-size="11.00" fill="#000000">132 rows</text>
<polygon fill="#ffffff" stroke="transparent" points="641.5,-134.9479 641.5,-153.9479 684.5,-153.9479 684.5,-134.9479 641.5,-134.9479"/>
<polygon fill="none" stroke="#000000" points="641.5,-134.9479 641.5,-153.9479 684.5,-153.9479 684.5,-134.9479 641.5,-134.9479"/>
<text text-anchor="start" x="665.9053" y="-141.0479" font-family="Helvetica,sans-Serif" font-size="11.00" fill="#000000">3 &gt;</text>
</a>
</g>
</g>
<!-- SPG_NOTIFICATION&#45;&gt;DATA_SCRIPT_MESSAGE -->
<g id="edge28" class="edge">
<title>SPG_NOTIFICATION:w&#45;&gt;DATA_SCRIPT_MESSAGE:e</title>
<path fill="none" stroke="#000000" d="M718.559,-156.3413C707.3975,-158.6334 700.5438,-162.9479 684.5,-162.9479"/>
<polygon fill="#000000" stroke="#000000" points="725.037,-155.7163 733.3458,-158.5312 729.0185,-155.3321 733,-154.9479 733,-154.9479 733,-154.9479 729.0185,-155.3321 732.6542,-151.3645 725.037,-155.7163 725.037,-155.7163"/>
<ellipse fill="none" stroke="#000000" cx="721.8518" cy="-156.0237" rx="3.2" ry="3.2"/>
</g>
<!-- BUSINESS_INTERACTION -->
<g id="node5" class="node">
<title>BUSINESS_INTERACTION</title>
<g id="a_node5"><a xlink:href="../../tables/BUSINESS_INTERACTION.html" xlink:title="BUSINESS_INTERACTION" target="_top">
<polygon fill="#ffffff" stroke="transparent" points="277,-245.4479 277,-306.4479 456,-306.4479 456,-245.4479 277,-245.4479"/>
<polygon fill="#f5f5f5" stroke="transparent" points="277.5,-282.9479 277.5,-305.9479 456.5,-305.9479 456.5,-282.9479 277.5,-282.9479"/>
<polygon fill="none" stroke="#000000" points="277.5,-282.9479 277.5,-305.9479 456.5,-305.9479 456.5,-282.9479 277.5,-282.9479"/>
<text text-anchor="start" x="282.3605" y="-292.0479" font-family="Helvetica,sans-Serif" font-weight="bold" font-size="11.00" fill="#000000">BUSINESS_INTERACTION</text>
<text text-anchor="start" x="422.0219" y="-291.0479" font-family="Helvetica,sans-Serif" font-size="11.00" fill="#000000">[table]</text>
<polygon fill="none" stroke="#000000" points="277.5,-263.9479 277.5,-282.9479 456.5,-282.9479 456.5,-263.9479 277.5,-263.9479"/>
<text text-anchor="start" x="280.5" y="-270.0479" font-family="Helvetica,sans-Serif" font-size="11.00" fill="#000000">...</text>
<polygon fill="#ffffff" stroke="transparent" points="277.5,-244.9479 277.5,-263.9479 332.5,-263.9479 332.5,-244.9479 277.5,-244.9479"/>
<polygon fill="none" stroke="#000000" points="277.5,-244.9479 277.5,-263.9479 332.5,-263.9479 332.5,-244.9479 277.5,-244.9479"/>
<text text-anchor="start" x="280.5" y="-251.0479" font-family="Helvetica,sans-Serif" font-size="11.00" fill="#000000"> &#160;</text>
<polygon fill="#ffffff" stroke="transparent" points="332.5,-244.9479 332.5,-263.9479 413.5,-263.9479 413.5,-244.9479 332.5,-244.9479"/>
<polygon fill="none" stroke="#000000" points="332.5,-244.9479 332.5,-263.9479 413.5,-263.9479 413.5,-244.9479 332.5,-244.9479"/>
<text text-anchor="start" x="356.7089" y="-251.0479" font-family="Helvetica,sans-Serif" font-size="11.00" fill="#000000">1,090 rows</text>
<polygon fill="#ffffff" stroke="transparent" points="413.5,-244.9479 413.5,-263.9479 456.5,-263.9479 456.5,-244.9479 413.5,-244.9479"/>
<polygon fill="none" stroke="#000000" points="413.5,-244.9479 413.5,-263.9479 456.5,-263.9479 456.5,-244.9479 413.5,-244.9479"/>
<text text-anchor="start" x="437.9053" y="-251.0479" font-family="Helvetica,sans-Serif" font-size="11.00" fill="#000000">5 &gt;</text>
</a>
</g>
</g>
<!-- SPG_NOTIFICATION&#45;&gt;BUSINESS_INTERACTION -->
<g id="edge27" class="edge">
<title>SPG_NOTIFICATION:w&#45;&gt;BUSINESS_INTERACTION:e</title>
<path fill="none" stroke="#000000" d="M719.1552,-436.3494C709.0688,-427.4685 709.5569,-408.0336 692,-398.9479 614.0627,-358.6152 566.1784,-421.9412 497,-367.9479 460.8172,-339.7074 502.399,-272.9479 456.5,-272.9479"/>
<polygon fill="#000000" stroke="#000000" points="725.4078,-438.4261 731.8652,-444.3643 729.2039,-439.687 733,-440.9479 733,-440.9479 733,-440.9479 729.2039,-439.687 734.1348,-437.5314 725.4078,-438.4261 725.4078,-438.4261"/>
<ellipse fill="none" stroke="#000000" cx="722.371" cy="-437.4174" rx="3.2" ry="3.2"/>
</g>
<!-- SPG_NOTIFICATION&#45;&gt;R_STANDARD_REFERENCE_LIST -->
<g id="edge32" class="edge">
<title>SPG_NOTIFICATION:w&#45;&gt;R_STANDARD_REFERENCE_LIST:e</title>
<path fill="none" stroke="#000000" d="M718.4801,-221.1049C606.7197,-223.3218 358.8338,-247.6506 269,-206.9479 244.653,-195.9165 254.7296,-162.9479 228,-162.9479"/>
<polygon fill="#000000" stroke="#000000" points="725.0005,-221.0344 733.039,-224.5476 729.0002,-220.9912 733,-220.9479 733,-220.9479 733,-220.9479 729.0002,-220.9912 732.961,-217.3481 725.0005,-221.0344 725.0005,-221.0344"/>
<ellipse fill="none" stroke="#000000" cx="721.8007" cy="-221.0691" rx="3.2" ry="3.2"/>
</g>
<!-- SPG_NOTIFICATION&#45;&gt;R_STANDARD_REFERENCE_LIST -->
<g id="edge33" class="edge">
<title>SPG_NOTIFICATION:w&#45;&gt;R_STANDARD_REFERENCE_LIST:e</title>
<path fill="none" stroke="#000000" d="M718.5828,-243.2176C607.0702,-247.4794 581.9614,-301.0185 464,-316.9479 421.0564,-322.7469 303.3575,-343.355 269,-316.9479 212.8424,-273.7852 298.8286,-162.9479 228,-162.9479"/>
<polygon fill="#000000" stroke="#000000" points="725.0014,-243.0976 733.0674,-246.5472 729.0007,-243.0227 733,-242.9479 733,-242.9479 733,-242.9479 729.0007,-243.0227 732.9326,-239.3485 725.0014,-243.0976 725.0014,-243.0976"/>
<ellipse fill="none" stroke="#000000" cx="721.802" cy="-243.1575" rx="3.2" ry="3.2"/>
</g>
<!-- PROBATION_AREA -->
<g id="node8" class="node">
<title>PROBATION_AREA</title>
<g id="a_node8"><a xlink:href="../../tables/PROBATION_AREA.html" xlink:title="PROBATION_AREA" target="_top">
<polygon fill="#ffffff" stroke="transparent" points="523,-409.4479 523,-470.4479 666,-470.4479 666,-409.4479 523,-409.4479"/>
<polygon fill="#f5f5f5" stroke="transparent" points="523.5,-446.9479 523.5,-469.9479 666.5,-469.9479 666.5,-446.9479 523.5,-446.9479"/>
<polygon fill="none" stroke="#000000" points="523.5,-446.9479 523.5,-469.9479 666.5,-469.9479 666.5,-446.9479 523.5,-446.9479"/>
<text text-anchor="start" x="528.0782" y="-456.0479" font-family="Helvetica,sans-Serif" font-weight="bold" font-size="11.00" fill="#000000">PROBATION_AREA</text>
<text text-anchor="start" x="632.0219" y="-455.0479" font-family="Helvetica,sans-Serif" font-size="11.00" fill="#000000">[table]</text>
<polygon fill="none" stroke="#000000" points="523.5,-427.9479 523.5,-446.9479 666.5,-446.9479 666.5,-427.9479 523.5,-427.9479"/>
<text text-anchor="start" x="526.5" y="-434.0479" font-family="Helvetica,sans-Serif" font-size="11.00" fill="#000000">...</text>
<polygon fill="#ffffff" stroke="transparent" points="523.5,-408.9479 523.5,-427.9479 566.5,-427.9479 566.5,-408.9479 523.5,-408.9479"/>
<polygon fill="none" stroke="#000000" points="523.5,-408.9479 523.5,-427.9479 566.5,-427.9479 566.5,-408.9479 523.5,-408.9479"/>
<text text-anchor="start" x="526.5" y="-415.0479" font-family="Helvetica,sans-Serif" font-size="11.00" fill="#000000">&lt; 8</text>
<polygon fill="#ffffff" stroke="transparent" points="566.5,-408.9479 566.5,-427.9479 627.5,-427.9479 627.5,-408.9479 566.5,-408.9479"/>
<polygon fill="none" stroke="#000000" points="566.5,-408.9479 566.5,-427.9479 627.5,-427.9479 627.5,-408.9479 566.5,-408.9479"/>
<text text-anchor="start" x="579.8807" y="-415.0479" font-family="Helvetica,sans-Serif" font-size="11.00" fill="#000000">223 rows</text>
<polygon fill="#ffffff" stroke="transparent" points="627.5,-408.9479 627.5,-427.9479 666.5,-427.9479 666.5,-408.9479 627.5,-408.9479"/>
<polygon fill="none" stroke="#000000" points="627.5,-408.9479 627.5,-427.9479 666.5,-427.9479 666.5,-408.9479 627.5,-408.9479"/>
<text text-anchor="start" x="641.7904" y="-415.0479" font-family="Helvetica,sans-Serif" font-size="11.00" fill="#000000">70 &gt;</text>
</a>
</g>
</g>
<!-- SPG_NOTIFICATION&#45;&gt;PROBATION_AREA -->
<g id="edge30" class="edge">
<title>SPG_NOTIFICATION:w&#45;&gt;PROBATION_AREA:e</title>
<path fill="none" stroke="#000000" d="M718.8415,-311.7404C678.7683,-330.4591 724.9738,-436.9479 666.5,-436.9479"/>
<polygon fill="#000000" stroke="#000000" points="725.1512,-310.4959 733.6966,-312.4798 729.0756,-309.7219 733,-308.9479 733,-308.9479 733,-308.9479 729.0756,-309.7219 732.3034,-305.4159 725.1512,-310.4959 725.1512,-310.4959"/>
<ellipse fill="none" stroke="#000000" cx="722.0117" cy="-311.1152" rx="3.2" ry="3.2"/>
</g>
<!-- SPG_NOTIFICATION&#45;&gt;PROBATION_AREA -->
<g id="edge31" class="edge">
<title>SPG_NOTIFICATION:w&#45;&gt;PROBATION_AREA:e</title>
<path fill="none" stroke="#000000" d="M718.5163,-334.2365C685.7043,-352.1281 716.249,-436.9479 666.5,-436.9479"/>
<polygon fill="#000000" stroke="#000000" points="725.1986,-332.7193 733.7971,-334.4585 729.0993,-331.8336 733,-330.9479 733,-330.9479 733,-330.9479 729.0993,-331.8336 732.2029,-327.4372 725.1986,-332.7193 725.1986,-332.7193"/>
<ellipse fill="none" stroke="#000000" cx="722.078" cy="-333.4278" rx="3.2" ry="3.2"/>
</g>
<!-- DATA_SCRIPT_MESSAGE&#45;&gt;OFFENDER -->
<g id="edge4" class="edge">
<title>DATA_SCRIPT_MESSAGE:w&#45;&gt;OFFENDER:e</title>
<path fill="none" stroke="#000000" d="M491.0121,-162.9479C468.3676,-162.9479 457.8681,-162.9479 429.5,-162.9479"/>
<polygon fill="#000000" stroke="#000000" points="497.5,-162.9479 505.5,-166.5479 501.5,-162.9479 505.5,-162.9479 505.5,-162.9479 505.5,-162.9479 501.5,-162.9479 505.5,-159.3479 497.5,-162.9479 497.5,-162.9479"/>
<ellipse fill="none" stroke="#000000" cx="494.3" cy="-162.9479" rx="3.2" ry="3.2"/>
</g>
<!-- DATA_SCRIPT_MESSAGE&#45;&gt;BUSINESS_INTERACTION -->
<g id="edge3" class="edge">
<title>DATA_SCRIPT_MESSAGE:w&#45;&gt;BUSINESS_INTERACTION:e</title>
<path fill="none" stroke="#000000" d="M491.282,-166.8628C463.6981,-186.4581 503.9572,-272.9479 456.5,-272.9479"/>
<polygon fill="#000000" stroke="#000000" points="497.7871,-165.0717 506.4557,-166.4187 501.6435,-164.0098 505.5,-162.9479 505.5,-162.9479 505.5,-162.9479 501.6435,-164.0098 504.5443,-159.477 497.7871,-165.0717 497.7871,-165.0717"/>
<ellipse fill="none" stroke="#000000" cx="494.7019" cy="-165.9212" rx="3.2" ry="3.2"/>
</g>
<!-- OFFENDER_CRC_EXPORT -->
<g id="node7" class="node">
<title>OFFENDER_CRC_EXPORT</title>
<g id="a_node7"><a xlink:href="../../tables/OFFENDER_CRC_EXPORT.html" xlink:title="OFFENDER_CRC_EXPORT" target="_top">
<polygon fill="#ffffff" stroke="transparent" points="1020,-185.4479 1020,-246.4479 1204,-246.4479 1204,-185.4479 1020,-185.4479"/>
<polygon fill="#f5f5f5" stroke="transparent" points="1020,-222.9479 1020,-245.9479 1204,-245.9479 1204,-222.9479 1020,-222.9479"/>
<polygon fill="none" stroke="#000000" points="1020,-222.9479 1020,-245.9479 1204,-245.9479 1204,-222.9479 1020,-222.9479"/>
<text text-anchor="start" x="1024.6155" y="-232.0479" font-family="Helvetica,sans-Serif" font-weight="bold" font-size="11.00" fill="#000000">OFFENDER_CRC_EXPORT</text>
<text text-anchor="start" x="1169.5219" y="-231.0479" font-family="Helvetica,sans-Serif" font-size="11.00" fill="#000000">[table]</text>
<polygon fill="none" stroke="#000000" points="1020,-203.9479 1020,-222.9479 1204,-222.9479 1204,-203.9479 1020,-203.9479"/>
<text text-anchor="start" x="1023" y="-210.0479" font-family="Helvetica,sans-Serif" font-size="11.00" fill="#000000">...</text>
<polygon fill="#ffffff" stroke="transparent" points="1020,-184.9479 1020,-203.9479 1091,-203.9479 1091,-184.9479 1020,-184.9479"/>
<polygon fill="none" stroke="#000000" points="1020,-184.9479 1020,-203.9479 1091,-203.9479 1091,-184.9479 1020,-184.9479"/>
<text text-anchor="start" x="1023" y="-191.0479" font-family="Helvetica,sans-Serif" font-size="11.00" fill="#000000">&lt; 3</text>
<polygon fill="#ffffff" stroke="transparent" points="1091,-184.9479 1091,-203.9479 1166,-203.9479 1166,-184.9479 1091,-184.9479"/>
<polygon fill="none" stroke="#000000" points="1091,-184.9479 1091,-203.9479 1166,-203.9479 1166,-184.9479 1091,-184.9479"/>
<text text-anchor="start" x="1118.3807" y="-191.0479" font-family="Helvetica,sans-Serif" font-size="11.00" fill="#000000">983 rows</text>
<polygon fill="#ffffff" stroke="transparent" points="1166,-184.9479 1166,-203.9479 1204,-203.9479 1204,-184.9479 1166,-184.9479"/>
<polygon fill="none" stroke="#000000" points="1166,-184.9479 1166,-203.9479 1204,-203.9479 1204,-184.9479 1166,-184.9479"/>
<text text-anchor="start" x="1194.8862" y="-191.0479" font-family="Helvetica,sans-Serif" font-size="11.00" fill="#000000"> &#160;</text>
</a>
</g>
</g>
<!-- OFFENDER_CRC_EXPORT&#45;&gt;OFFENDER -->
<g id="edge19" class="edge">
<title>OFFENDER_CRC_EXPORT:w&#45;&gt;OFFENDER:e</title>
<path fill="none" stroke="#000000" d="M1005.5435,-211.0158C962.7527,-197.9914 990.0978,-122.7207 939,-95.9479 851.8097,-50.2642 590.448,-94.0188 497,-124.9479 464.3164,-135.7653 463.9272,-162.9479 429.5,-162.9479"/>
<polygon fill="#000000" stroke="#000000" points="1012.0705,-211.888 1019.5231,-216.5161 1016.0353,-212.4179 1020,-212.9479 1020,-212.9479 1020,-212.9479 1016.0353,-212.4179 1020.4769,-209.3796 1012.0705,-211.888 1012.0705,-211.888"/>
<ellipse fill="none" stroke="#000000" cx="1008.8987" cy="-211.4641" rx="3.2" ry="3.2"/>
</g>
<!-- OFFENDER_CRC_EXPORT&#45;&gt;SPG_NOTIFICATION -->
<g id="edge20" class="edge">
<title>OFFENDER_CRC_EXPORT:w&#45;&gt;SPG_NOTIFICATION:e</title>
<path fill="none" stroke="#000000" d="M1005.4361,-215.0737C988.6133,-220.7762 983.4363,-237.383 972,-257.9479 949.421,-298.5497 977.4577,-462.9479 931,-462.9479"/>
<polygon fill="#000000" stroke="#000000" points="1012.0839,-214.1034 1020.52,-216.5101 1016.0419,-213.5256 1020,-212.9479 1020,-212.9479 1020,-212.9479 1016.0419,-213.5256 1019.48,-209.3856 1012.0839,-214.1034 1012.0839,-214.1034"/>
<ellipse fill="none" stroke="#000000" cx="1008.9174" cy="-214.5656" rx="3.2" ry="3.2"/>
</g>
<!-- OFFENDER_CRC_EXPORT&#45;&gt;PROBATION_AREA -->
<g id="edge18" class="edge">
<title>OFFENDER_CRC_EXPORT:w&#45;&gt;PROBATION_AREA:e</title>
<path fill="none" stroke="#000000" d="M1005.3576,-215.0317C988.3452,-220.6329 982.7499,-237.016 972,-257.9479 946.3997,-307.7958 981.1375,-471.007 939,-507.9479 903.2405,-539.2973 768.0095,-528.2386 725,-507.9479 688.0215,-490.5024 707.3871,-436.9479 666.5,-436.9479"/>
<polygon fill="#000000" stroke="#000000" points="1012.0798,-214.0751 1020.5072,-216.5119 1016.0399,-213.5115 1020,-212.9479 1020,-212.9479 1020,-212.9479 1016.0399,-213.5115 1019.4928,-209.3838 1012.0798,-214.0751 1012.0798,-214.0751"/>
<ellipse fill="none" stroke="#000000" cx="1008.9117" cy="-214.5259" rx="3.2" ry="3.2"/>
</g>
<!-- PROBATION_AREA&#45;&gt;R_STANDARD_REFERENCE_LIST -->
<g id="edge21" class="edge">
<title>PROBATION_AREA:w&#45;&gt;R_STANDARD_REFERENCE_LIST:e</title>
<path fill="none" stroke="#000000" d="M508.9557,-436.9172C398.1321,-436.3951 345.2904,-428.2409 269,-340.9479 215.577,-279.8201 309.1826,-162.9479 228,-162.9479"/>
<polygon fill="#000000" stroke="#000000" points="515.5,-436.9309 523.4924,-440.5478 519.5,-436.9394 523.5,-436.9479 523.5,-436.9479 523.5,-436.9479 519.5,-436.9394 523.5076,-433.3479 515.5,-436.9309 515.5,-436.9309"/>
<ellipse fill="none" stroke="#000000" cx="512.3" cy="-436.9241" rx="3.2" ry="3.2"/>
</g>
<!-- SPG_ERROR -->
<g id="node9" class="node">
<title>SPG_ERROR</title>
<g id="a_node9"><a xlink:href="../../tables/SPG_ERROR.html" xlink:title="SPG_ERROR" target="_top">
<polygon fill="#ffffff" stroke="transparent" points="1056,-533.4479 1056,-594.4479 1168,-594.4479 1168,-533.4479 1056,-533.4479"/>
<polygon fill="#f5f5f5" stroke="transparent" points="1056,-570.9479 1056,-593.9479 1168,-593.9479 1168,-570.9479 1056,-570.9479"/>
<polygon fill="none" stroke="#000000" points="1056,-570.9479 1056,-593.9479 1168,-593.9479 1168,-570.9479 1056,-570.9479"/>
<text text-anchor="start" x="1060.9705" y="-580.0479" font-family="Helvetica,sans-Serif" font-weight="bold" font-size="11.00" fill="#000000">SPG_ERROR</text>
<text text-anchor="start" x="1133.5219" y="-579.0479" font-family="Helvetica,sans-Serif" font-size="11.00" fill="#000000">[table]</text>
<polygon fill="none" stroke="#000000" points="1056,-551.9479 1056,-570.9479 1168,-570.9479 1168,-551.9479 1056,-551.9479"/>
<text text-anchor="start" x="1059" y="-558.0479" font-family="Helvetica,sans-Serif" font-size="11.00" fill="#000000">...</text>
<polygon fill="#ffffff" stroke="transparent" points="1056,-532.9479 1056,-551.9479 1079,-551.9479 1079,-532.9479 1056,-532.9479"/>
<polygon fill="none" stroke="#000000" points="1056,-532.9479 1056,-551.9479 1079,-551.9479 1079,-532.9479 1056,-532.9479"/>
<text text-anchor="start" x="1059" y="-539.0479" font-family="Helvetica,sans-Serif" font-size="11.00" fill="#000000">&lt; 5</text>
<polygon fill="#ffffff" stroke="transparent" points="1079,-532.9479 1079,-551.9479 1145,-551.9479 1145,-532.9479 1079,-532.9479"/>
<polygon fill="none" stroke="#000000" points="1079,-532.9479 1079,-551.9479 1145,-551.9479 1145,-532.9479 1079,-532.9479"/>
<text text-anchor="start" x="1082.094" y="-539.0479" font-family="Helvetica,sans-Serif" font-size="11.00" fill="#000000">25,460 rows</text>
<polygon fill="#ffffff" stroke="transparent" points="1145,-532.9479 1145,-551.9479 1168,-551.9479 1168,-532.9479 1145,-532.9479"/>
<polygon fill="none" stroke="#000000" points="1145,-532.9479 1145,-551.9479 1168,-551.9479 1168,-532.9479 1145,-532.9479"/>
<text text-anchor="start" x="1149.4053" y="-539.0479" font-family="Helvetica,sans-Serif" font-size="11.00" fill="#000000">2 &gt;</text>
</a>
</g>
</g>
<!-- SPG_ERROR&#45;&gt;SPG_NOTIFICATION -->
<g id="edge25" class="edge">
<title>SPG_ERROR:w&#45;&gt;SPG_NOTIFICATION:e</title>
<path fill="none" stroke="#000000" d="M1041.5114,-560.36C1011.6966,-557.6972 999.344,-545.8901 972,-522.9479 947.2574,-502.1882 963.298,-462.9479 931,-462.9479"/>
<polygon fill="#000000" stroke="#000000" points="1048.0066,-560.6235 1055.854,-564.5449 1052.0033,-560.7857 1056,-560.9479 1056,-560.9479 1056,-560.9479 1052.0033,-560.7857 1056.146,-557.3508 1048.0066,-560.6235 1048.0066,-560.6235"/>
<ellipse fill="none" stroke="#000000" cx="1044.8092" cy="-560.4937" rx="3.2" ry="3.2"/>
</g>
<!-- SPG_ERROR&#45;&gt;R_STANDARD_REFERENCE_LIST -->
<g id="edge22" class="edge">
<title>SPG_ERROR:w&#45;&gt;R_STANDARD_REFERENCE_LIST:e</title>
<path fill="none" stroke="#000000" d="M1041.4366,-561.0087C693.3124,-563.9069 495.2142,-668.0494 269,-397.9479 234.9629,-357.3073 281.0111,-162.9479 228,-162.9479"/>
<polygon fill="#000000" stroke="#000000" points="1048.0001,-560.9814 1056.0151,-564.5478 1052,-560.9646 1056,-560.9479 1056,-560.9479 1056,-560.9479 1052,-560.9646 1055.9849,-557.3479 1048.0001,-560.9814 1048.0001,-560.9814"/>
<ellipse fill="none" stroke="#000000" cx="1044.8001" cy="-560.9948" rx="3.2" ry="3.2"/>
</g>
<!-- SPG_ERROR&#45;&gt;R_STANDARD_REFERENCE_LIST -->
<g id="edge23" class="edge">
<title>SPG_ERROR:w&#45;&gt;R_STANDARD_REFERENCE_LIST:e</title>
<path fill="none" stroke="#000000" d="M1041.4212,-560.7647C692.9176,-557.8443 493.7547,-659.7321 269,-387.9479 235.7749,-347.7705 280.1356,-156.9479 228,-162.9479"/>
<polygon fill="#000000" stroke="#000000" points="1048.0006,-560.8473 1055.9548,-564.5476 1052.0003,-560.8976 1056,-560.9479 1056,-560.9479 1056,-560.9479 1052.0003,-560.8976 1056.0452,-557.3481 1048.0006,-560.8473 1048.0006,-560.8473"/>
<ellipse fill="none" stroke="#000000" cx="1044.8009" cy="-560.8071" rx="3.2" ry="3.2"/>
</g>
<!-- SPG_ERROR&#45;&gt;R_STANDARD_REFERENCE_LIST -->
<g id="edge24" class="edge">
<title>SPG_ERROR:w&#45;&gt;R_STANDARD_REFERENCE_LIST:e</title>
<path fill="none" stroke="#000000" d="M1041.4212,-561.2907C692.9176,-570.8443 493.7547,-672.7321 269,-400.9479 235.7749,-360.7705 280.1356,-169.9479 228,-162.9479"/>
<polygon fill="#000000" stroke="#000000" points="1048.0022,-561.136 1056.0847,-564.5469 1052.0011,-561.0419 1056,-560.9479 1056,-560.9479 1056,-560.9479 1052.0011,-561.0419 1055.9153,-557.3488 1048.0022,-561.136 1048.0022,-561.136"/>
<ellipse fill="none" stroke="#000000" cx="1044.8031" cy="-561.2112" rx="3.2" ry="3.2"/>
</g>
<!-- SPG_ERROR_CLEAR_REQUEST -->
<g id="node10" class="node">
<title>SPG_ERROR_CLEAR_REQUEST</title>
<g id="a_node10"><a xlink:href="../../tables/SPG_ERROR_CLEAR_REQUEST.html" xlink:title="SPG_ERROR_CLEAR_REQUEST" target="_top">
<polygon fill="#ffffff" stroke="transparent" points="980,-267.9479 980,-511.9479 1244,-511.9479 1244,-267.9479 980,-267.9479"/>
<polygon fill="#f5f5f5" stroke="transparent" points="982,-486.9479 982,-509.9479 1242,-509.9479 1242,-486.9479 982,-486.9479"/>
<polygon fill="none" stroke="#000000" points="982,-486.9479 982,-509.9479 1242,-509.9479 1242,-486.9479 982,-486.9479"/>
<text text-anchor="start" x="987" y="-496.0479" font-family="Helvetica,sans-Serif" font-weight="bold" font-size="11.00" fill="#000000">SPG_ERROR_CLEAR_REQUEST</text>
<text text-anchor="start" x="1207.0437" y="-495.0479" font-family="Helvetica,sans-Serif" font-size="11.00" fill="#000000">[table]</text>
<polygon fill="none" stroke="#000000" points="982,-464.9479 982,-486.9479 1181,-486.9479 1181,-464.9479 982,-464.9479"/>
<image xlink:href="../../images/primaryKeys.png" width="11px" height="12px" preserveAspectRatio="xMinYMin meet" x="987" y="-481.948"/>
<text text-anchor="start" x="994.8818" y="-472.0479" font-family="Helvetica,sans-Serif" font-size="11.00" fill="#000000">SPG_ERROR_CLEAR_REQUEST_ID</text>
<polygon fill="none" stroke="#000000" points="1181,-464.9479 1181,-486.9479 1242,-486.9479 1242,-464.9479 1181,-464.9479"/>
<text text-anchor="start" x="1183.6865" y="-472.6479" font-family="Helvetica,sans-Serif" font-size="11.00" fill="#000000">number[38]</text>
<polygon fill="none" stroke="#000000" points="982,-442.9479 982,-464.9479 1181,-464.9479 1181,-442.9479 982,-442.9479"/>
<image xlink:href="../../images/primaryKeys.png" width="11px" height="12px" preserveAspectRatio="xMinYMin meet" x="987" y="-459.948"/>
<text text-anchor="start" x="1002" y="-450.0479" font-family="Helvetica,sans-Serif" font-size="11.00" fill="#000000">SPG_NOTIFICATION_ID</text>
<polygon fill="none" stroke="#000000" points="1181,-442.9479 1181,-464.9479 1242,-464.9479 1242,-442.9479 1181,-442.9479"/>
<text text-anchor="start" x="1183.6865" y="-450.6479" font-family="Helvetica,sans-Serif" font-size="11.00" fill="#000000">number[38]</text>
<polygon fill="none" stroke="#000000" points="982,-420.9479 982,-442.9479 1181,-442.9479 1181,-420.9479 982,-420.9479"/>
<text text-anchor="start" x="1002" y="-428.0479" font-family="Helvetica,sans-Serif" font-size="11.00" fill="#000000">PROCESSED_FLAG</text>
<polygon fill="none" stroke="#000000" points="1181,-420.9479 1181,-442.9479 1242,-442.9479 1242,-420.9479 1181,-420.9479"/>
<text text-anchor="start" x="1183.6865" y="-428.6479" font-family="Helvetica,sans-Serif" font-size="11.00" fill="#000000">number[38]</text>
<polygon fill="none" stroke="#000000" points="982,-398.9479 982,-420.9479 1181,-420.9479 1181,-398.9479 982,-398.9479"/>
<text text-anchor="start" x="1002" y="-406.0479" font-family="Helvetica,sans-Serif" font-size="11.00" fill="#000000">PROCESSED_DATETIME</text>
<polygon fill="none" stroke="#000000" points="1181,-398.9479 1181,-420.9479 1242,-420.9479 1242,-398.9479 1181,-398.9479"/>
<text text-anchor="start" x="1184" y="-406.6479" font-family="Helvetica,sans-Serif" font-size="11.00" fill="#000000">date[7]</text>
<polygon fill="none" stroke="#000000" points="982,-376.9479 982,-398.9479 1181,-398.9479 1181,-376.9479 982,-376.9479"/>
<text text-anchor="start" x="1002" y="-384.0479" font-family="Helvetica,sans-Serif" font-size="11.00" fill="#000000">ROW_VERSION</text>
<polygon fill="none" stroke="#000000" points="1181,-376.9479 1181,-398.9479 1242,-398.9479 1242,-376.9479 1181,-376.9479"/>
<text text-anchor="start" x="1183.6865" y="-384.6479" font-family="Helvetica,sans-Serif" font-size="11.00" fill="#000000">number[38]</text>
<polygon fill="none" stroke="#000000" points="982,-354.9479 982,-376.9479 1181,-376.9479 1181,-354.9479 982,-354.9479"/>
<text text-anchor="start" x="1002" y="-362.0479" font-family="Helvetica,sans-Serif" font-size="11.00" fill="#000000">CREATED_BY_USER_ID</text>
<polygon fill="none" stroke="#000000" points="1181,-354.9479 1181,-376.9479 1242,-376.9479 1242,-354.9479 1181,-354.9479"/>
<text text-anchor="start" x="1183.6865" y="-362.6479" font-family="Helvetica,sans-Serif" font-size="11.00" fill="#000000">number[38]</text>
<polygon fill="none" stroke="#000000" points="982,-332.9479 982,-354.9479 1181,-354.9479 1181,-332.9479 982,-332.9479"/>
<text text-anchor="start" x="1002" y="-340.0479" font-family="Helvetica,sans-Serif" font-size="11.00" fill="#000000">CREATED_DATETIME</text>
<polygon fill="none" stroke="#000000" points="1181,-332.9479 1181,-354.9479 1242,-354.9479 1242,-332.9479 1181,-332.9479"/>
<text text-anchor="start" x="1184" y="-340.6479" font-family="Helvetica,sans-Serif" font-size="11.00" fill="#000000">date[7]</text>
<polygon fill="none" stroke="#000000" points="982,-310.9479 982,-332.9479 1181,-332.9479 1181,-310.9479 982,-310.9479"/>
<text text-anchor="start" x="1002" y="-318.0479" font-family="Helvetica,sans-Serif" font-size="11.00" fill="#000000">LAST_UPDATED_USER_ID</text>
<polygon fill="none" stroke="#000000" points="1181,-310.9479 1181,-332.9479 1242,-332.9479 1242,-310.9479 1181,-310.9479"/>
<text text-anchor="start" x="1183.6865" y="-318.6479" font-family="Helvetica,sans-Serif" font-size="11.00" fill="#000000">number[38]</text>
<polygon fill="none" stroke="#000000" points="982,-288.9479 982,-310.9479 1181,-310.9479 1181,-288.9479 982,-288.9479"/>
<text text-anchor="start" x="1002" y="-296.0479" font-family="Helvetica,sans-Serif" font-size="11.00" fill="#000000">LAST_UPDATED_DATETIME</text>
<polygon fill="none" stroke="#000000" points="1181,-288.9479 1181,-310.9479 1242,-310.9479 1242,-288.9479 1181,-288.9479"/>
<text text-anchor="start" x="1184" y="-296.6479" font-family="Helvetica,sans-Serif" font-size="11.00" fill="#000000">date[7]</text>
<polygon fill="#ffffff" stroke="transparent" points="982,-269.9479 982,-288.9479 1073,-288.9479 1073,-269.9479 982,-269.9479"/>
<polygon fill="none" stroke="#000000" points="982,-269.9479 982,-288.9479 1073,-288.9479 1073,-269.9479 982,-269.9479"/>
<text text-anchor="start" x="985" y="-276.0479" font-family="Helvetica,sans-Serif" font-size="11.00" fill="#000000">&lt; 1</text>
<polygon fill="#ffffff" stroke="transparent" points="1073,-269.9479 1073,-288.9479 1181,-288.9479 1181,-269.9479 1073,-269.9479"/>
<polygon fill="none" stroke="#000000" points="1073,-269.9479 1073,-288.9479 1181,-288.9479 1181,-269.9479 1073,-269.9479"/>
<text text-anchor="start" x="1145.6105" y="-276.0479" font-family="Helvetica,sans-Serif" font-size="11.00" fill="#000000">0 rows</text>
<polygon fill="#ffffff" stroke="transparent" points="1181,-269.9479 1181,-288.9479 1242,-288.9479 1242,-269.9479 1181,-269.9479"/>
<polygon fill="none" stroke="#000000" points="1181,-269.9479 1181,-288.9479 1242,-288.9479 1242,-269.9479 1181,-269.9479"/>
<text text-anchor="start" x="1223.4053" y="-276.0479" font-family="Helvetica,sans-Serif" font-size="11.00" fill="#000000">0 &gt;</text>
<polygon fill="none" stroke="#000000" stroke-width="2" points="981,-268.9479 981,-510.9479 1243,-510.9479 1243,-268.9479 981,-268.9479"/>
</a>
</g>
</g>
<!-- SPG_ERROR_CLEAR_REQUEST&#45;&gt;SPG_NOTIFICATION -->
<g id="edge26" class="edge">
<title>SPG_ERROR_CLEAR_REQUEST:w&#45;&gt;SPG_NOTIFICATION:e</title>
<path fill="none" stroke="#000000" d="M967.5577,-455.3541C955.3718,-457.8854 948.2627,-462.9479 931,-462.9479"/>
<polygon fill="#000000" stroke="#000000" points="974.0377,-454.7232 982.3489,-457.5309 978.0188,-454.3355 982,-453.9479 982,-453.9479 982,-453.9479 978.0188,-454.3355 981.6511,-450.3648 974.0377,-454.7232 974.0377,-454.7232"/>
<ellipse fill="none" stroke="#000000" cx="970.8527" cy="-455.0333" rx="3.2" ry="3.2"/>
</g>
</g>
</svg>
