<?xml version="1.0" encoding="UTF-8" standalone="no"?>
<!DOCTYPE svg PUBLIC "-//W3C//DTD SVG 1.1//EN"
 "http://www.w3.org/Graphics/SVG/1.1/DTD/svg11.dtd">
<!-- Generated by graphviz version 2.40.1 (20161225.0304)
 -->
<!-- Title: oneDegreeRelationshipsDiagram Pages: 1 -->
<svg width="1171pt" height="659pt"
 viewBox="0.00 0.00 1171.00 659.13" xmlns="http://www.w3.org/2000/svg" xmlns:xlink="http://www.w3.org/1999/xlink">
<g id="graph0" class="graph" transform="scale(1 1) rotate(0) translate(4 655.1266)">
<title>oneDegreeRelationshipsDiagram</title>
<polygon fill="#ffffff" stroke="transparent" points="-4,4 -4,-655.1266 1167,-655.1266 1167,4 -4,4"/>
<text text-anchor="middle" x="72.4936" y="-7.3" font-family="Helvetica,sans-Serif" font-size="11.00" fill="#000000">Generated by SchemaSpy</text>
<!-- SPG_ERROR -->
<g id="node1" class="node">
<title>SPG_ERROR</title>
<g id="a_node1"><a xlink:href="../../tables/SPG_ERROR.html" xlink:title="SPG_ERROR" target="_top">
<polygon fill="#ffffff" stroke="transparent" points="487,-249.1266 487,-647.1266 729,-647.1266 729,-249.1266 487,-249.1266"/>
<polygon fill="#f5f5f5" stroke="transparent" points="489,-622.1266 489,-645.1266 727,-645.1266 727,-622.1266 489,-622.1266"/>
<polygon fill="none" stroke="#000000" points="489,-622.1266 489,-645.1266 727,-645.1266 727,-622.1266 489,-622.1266"/>
<text text-anchor="start" x="494" y="-631.2266" font-family="Helvetica,sans-Serif" font-weight="bold" font-size="11.00" fill="#000000">SPG_ERROR</text>
<text text-anchor="start" x="692.0437" y="-630.2266" font-family="Helvetica,sans-Serif" font-size="11.00" fill="#000000">[table]</text>
<polygon fill="none" stroke="#000000" points="489,-600.1266 489,-622.1266 654,-622.1266 654,-600.1266 489,-600.1266"/>
<image xlink:href="../../images/primaryKeys.png" width="11px" height="12px" preserveAspectRatio="xMinYMin meet" x="494" y="-617.127"/>
<text text-anchor="start" x="509" y="-607.2266" font-family="Helvetica,sans-Serif" font-size="11.00" fill="#000000">SPG_ERROR_ID</text>
<polygon fill="none" stroke="#000000" points="654,-600.1266 654,-622.1266 727,-622.1266 727,-600.1266 654,-600.1266"/>
<text text-anchor="start" x="657" y="-607.8266" font-family="Helvetica,sans-Serif" font-size="11.00" fill="#000000">number[38]</text>
<polygon fill="none" stroke="#000000" points="489,-578.1266 489,-600.1266 654,-600.1266 654,-578.1266 489,-578.1266"/>
<image xlink:href="../../images/primaryKeys.png" width="11px" height="12px" preserveAspectRatio="xMinYMin meet" x="494" y="-595.127"/>
<text text-anchor="start" x="509" y="-585.2266" font-family="Helvetica,sans-Serif" font-size="11.00" fill="#000000">SPG_NOTIFICATION_ID</text>
<polygon fill="none" stroke="#000000" points="654,-578.1266 654,-600.1266 727,-600.1266 727,-578.1266 654,-578.1266"/>
<text text-anchor="start" x="657" y="-585.8266" font-family="Helvetica,sans-Serif" font-size="11.00" fill="#000000">number[38]</text>
<polygon fill="none" stroke="#000000" points="489,-556.1266 489,-578.1266 654,-578.1266 654,-556.1266 489,-556.1266"/>
<image xlink:href="../../images/primaryKeys.png" width="11px" height="12px" preserveAspectRatio="xMinYMin meet" x="494" y="-573.127"/>
<text text-anchor="start" x="509" y="-563.2266" font-family="Helvetica,sans-Serif" font-size="11.00" fill="#000000">SPG_MESSAGE_TYPE_ID</text>
<polygon fill="none" stroke="#000000" points="654,-556.1266 654,-578.1266 727,-578.1266 727,-556.1266 654,-556.1266"/>
<text text-anchor="start" x="657" y="-563.8266" font-family="Helvetica,sans-Serif" font-size="11.00" fill="#000000">number[38]</text>
<polygon fill="none" stroke="#000000" points="489,-534.1266 489,-556.1266 654,-556.1266 654,-534.1266 489,-534.1266"/>
<text text-anchor="start" x="509" y="-541.2266" font-family="Helvetica,sans-Serif" font-size="11.00" fill="#000000">ERROR_DATE</text>
<polygon fill="none" stroke="#000000" points="654,-534.1266 654,-556.1266 727,-556.1266 727,-534.1266 654,-534.1266"/>
<text text-anchor="start" x="657" y="-541.8266" font-family="Helvetica,sans-Serif" font-size="11.00" fill="#000000">date[7]</text>
<polygon fill="none" stroke="#000000" points="489,-512.1266 489,-534.1266 654,-534.1266 654,-512.1266 489,-512.1266"/>
<text text-anchor="start" x="509" y="-519.2266" font-family="Helvetica,sans-Serif" font-size="11.00" fill="#000000">CREATED_BY_USER_ID</text>
<polygon fill="none" stroke="#000000" points="654,-512.1266 654,-534.1266 727,-534.1266 727,-512.1266 654,-512.1266"/>
<text text-anchor="start" x="657" y="-519.8266" font-family="Helvetica,sans-Serif" font-size="11.00" fill="#000000">number[38]</text>
<polygon fill="none" stroke="#000000" points="489,-490.1266 489,-512.1266 654,-512.1266 654,-490.1266 489,-490.1266"/>
<text text-anchor="start" x="509" y="-497.2266" font-family="Helvetica,sans-Serif" font-size="11.00" fill="#000000">CREATED_DATETIME</text>
<polygon fill="none" stroke="#000000" points="654,-490.1266 654,-512.1266 727,-512.1266 727,-490.1266 654,-490.1266"/>
<text text-anchor="start" x="657" y="-497.8266" font-family="Helvetica,sans-Serif" font-size="11.00" fill="#000000">date[7]</text>
<polygon fill="none" stroke="#000000" points="489,-468.1266 489,-490.1266 654,-490.1266 654,-468.1266 489,-468.1266"/>
<text text-anchor="start" x="509" y="-475.2266" font-family="Helvetica,sans-Serif" font-size="11.00" fill="#000000">LAST_UPDATED_USER_ID</text>
<polygon fill="none" stroke="#000000" points="654,-468.1266 654,-490.1266 727,-490.1266 727,-468.1266 654,-468.1266"/>
<text text-anchor="start" x="657" y="-475.8266" font-family="Helvetica,sans-Serif" font-size="11.00" fill="#000000">number[38]</text>
<polygon fill="none" stroke="#000000" points="489,-446.1266 489,-468.1266 654,-468.1266 654,-446.1266 489,-446.1266"/>
<text text-anchor="start" x="505.0531" y="-453.2266" font-family="Helvetica,sans-Serif" font-size="11.00" fill="#000000">LAST_UPDATED_DATETIME</text>
<polygon fill="none" stroke="#000000" points="654,-446.1266 654,-468.1266 727,-468.1266 727,-446.1266 654,-446.1266"/>
<text text-anchor="start" x="657" y="-453.8266" font-family="Helvetica,sans-Serif" font-size="11.00" fill="#000000">date[7]</text>
<polygon fill="none" stroke="#000000" points="489,-424.1266 489,-446.1266 654,-446.1266 654,-424.1266 489,-424.1266"/>
<text text-anchor="start" x="509" y="-431.2266" font-family="Helvetica,sans-Serif" font-size="11.00" fill="#000000">ROW_VERSION</text>
<polygon fill="none" stroke="#000000" points="654,-424.1266 654,-446.1266 727,-446.1266 727,-424.1266 654,-424.1266"/>
<text text-anchor="start" x="657" y="-431.8266" font-family="Helvetica,sans-Serif" font-size="11.00" fill="#000000">number[38]</text>
<polygon fill="none" stroke="#000000" points="489,-402.1266 489,-424.1266 654,-424.1266 654,-402.1266 489,-402.1266"/>
<image xlink:href="../../images/primaryKeys.png" width="11px" height="12px" preserveAspectRatio="xMinYMin meet" x="494" y="-419.127"/>
<text text-anchor="start" x="501.9951" y="-409.2266" font-family="Helvetica,sans-Serif" font-size="11.00" fill="#000000">SPG_ERROR_CATEGORY_ID</text>
<polygon fill="none" stroke="#000000" points="654,-402.1266 654,-424.1266 727,-424.1266 727,-402.1266 654,-402.1266"/>
<text text-anchor="start" x="657" y="-409.8266" font-family="Helvetica,sans-Serif" font-size="11.00" fill="#000000">number[38]</text>
<polygon fill="none" stroke="#000000" points="489,-380.1266 489,-402.1266 654,-402.1266 654,-380.1266 489,-380.1266"/>
<text text-anchor="start" x="509" y="-387.2266" font-family="Helvetica,sans-Serif" font-size="11.00" fill="#000000">MESSAGE_CRN</text>
<polygon fill="none" stroke="#000000" points="654,-380.1266 654,-402.1266 727,-402.1266 727,-380.1266 654,-380.1266"/>
<text text-anchor="start" x="657" y="-387.8266" font-family="Helvetica,sans-Serif" font-size="11.00" fill="#000000">char[7]</text>
<polygon fill="none" stroke="#000000" points="489,-358.1266 489,-380.1266 654,-380.1266 654,-358.1266 489,-358.1266"/>
<text text-anchor="start" x="509" y="-365.2266" font-family="Helvetica,sans-Serif" font-size="11.00" fill="#000000">NOTES</text>
<polygon fill="none" stroke="#000000" points="654,-358.1266 654,-380.1266 727,-380.1266 727,-358.1266 654,-358.1266"/>
<text text-anchor="start" x="657" y="-365.8266" font-family="Helvetica,sans-Serif" font-size="11.00" fill="#000000">clob[4000]</text>
<polygon fill="none" stroke="#000000" points="489,-336.1266 489,-358.1266 654,-358.1266 654,-336.1266 489,-336.1266"/>
<image xlink:href="../../images/primaryKeys.png" width="11px" height="12px" preserveAspectRatio="xMinYMin meet" x="494" y="-353.127"/>
<text text-anchor="start" x="509" y="-343.2266" font-family="Helvetica,sans-Serif" font-size="11.00" fill="#000000">RESOLUTION_STATUS_ID</text>
<polygon fill="none" stroke="#000000" points="654,-336.1266 654,-358.1266 727,-358.1266 727,-336.1266 654,-336.1266"/>
<text text-anchor="start" x="657" y="-343.8266" font-family="Helvetica,sans-Serif" font-size="11.00" fill="#000000">number[38]</text>
<polygon fill="none" stroke="#000000" points="489,-314.1266 489,-336.1266 654,-336.1266 654,-314.1266 489,-314.1266"/>
<text text-anchor="start" x="509" y="-321.2266" font-family="Helvetica,sans-Serif" font-size="11.00" fill="#000000">RESOLUTION_DATE</text>
<polygon fill="none" stroke="#000000" points="654,-314.1266 654,-336.1266 727,-336.1266 727,-314.1266 654,-314.1266"/>
<text text-anchor="start" x="657" y="-321.8266" font-family="Helvetica,sans-Serif" font-size="11.00" fill="#000000">date[7]</text>
<polygon fill="none" stroke="#000000" points="489,-292.1266 489,-314.1266 654,-314.1266 654,-292.1266 489,-292.1266"/>
<text text-anchor="start" x="509" y="-299.2266" font-family="Helvetica,sans-Serif" font-size="11.00" fill="#000000">INCIDENT_IDENTIFIER</text>
<polygon fill="none" stroke="#000000" points="654,-292.1266 654,-314.1266 727,-314.1266 727,-292.1266 654,-292.1266"/>
<text text-anchor="start" x="656.8791" y="-299.8266" font-family="Helvetica,sans-Serif" font-size="11.00" fill="#000000">varchar2[100]</text>
<polygon fill="none" stroke="#000000" points="489,-270.1266 489,-292.1266 654,-292.1266 654,-270.1266 489,-270.1266"/>
<image xlink:href="../../images/primaryKeys.png" width="11px" height="12px" preserveAspectRatio="xMinYMin meet" x="494" y="-287.127"/>
<text text-anchor="start" x="509" y="-277.2266" font-family="Helvetica,sans-Serif" font-size="11.00" fill="#000000">ASSIGNED_TO_STAFF_ID</text>
<polygon fill="none" stroke="#000000" points="654,-270.1266 654,-292.1266 727,-292.1266 727,-270.1266 654,-270.1266"/>
<text text-anchor="start" x="657" y="-277.8266" font-family="Helvetica,sans-Serif" font-size="11.00" fill="#000000">number[38]</text>
<polygon fill="#ffffff" stroke="transparent" points="489,-251.1266 489,-270.1266 549,-270.1266 549,-251.1266 489,-251.1266"/>
<polygon fill="none" stroke="#000000" points="489,-251.1266 489,-270.1266 549,-270.1266 549,-251.1266 489,-251.1266"/>
<text text-anchor="start" x="492" y="-257.2266" font-family="Helvetica,sans-Serif" font-size="11.00" fill="#000000">&lt; 4</text>
<polygon fill="#ffffff" stroke="transparent" points="549,-251.1266 549,-270.1266 654,-270.1266 654,-251.1266 549,-251.1266"/>
<polygon fill="none" stroke="#000000" points="549,-251.1266 549,-270.1266 654,-270.1266 654,-251.1266 549,-251.1266"/>
<text text-anchor="start" x="591.094" y="-257.2266" font-family="Helvetica,sans-Serif" font-size="11.00" fill="#000000">25,460 rows</text>
<polygon fill="#ffffff" stroke="transparent" points="654,-251.1266 654,-270.1266 727,-270.1266 727,-251.1266 654,-251.1266"/>
<polygon fill="none" stroke="#000000" points="654,-251.1266 654,-270.1266 727,-270.1266 727,-251.1266 654,-251.1266"/>
<text text-anchor="start" x="708.4053" y="-257.2266" font-family="Helvetica,sans-Serif" font-size="11.00" fill="#000000">2 &gt;</text>
<polygon fill="none" stroke="#000000" stroke-width="2" points="488,-250.1266 488,-646.1266 728,-646.1266 728,-250.1266 488,-250.1266"/>
</a>
</g>
</g>
<!-- STAFF -->
<g id="node2" class="node">
<title>STAFF</title>
<g id="a_node2"><a xlink:href="../../tables/STAFF.html" xlink:title="STAFF" target="_top">
<polygon fill="#ffffff" stroke="transparent" points="277,-112.6266 277,-393.6266 438,-393.6266 438,-112.6266 277,-112.6266"/>
<polygon fill="#f5f5f5" stroke="transparent" points="277.5,-370.1266 277.5,-393.1266 438.5,-393.1266 438.5,-370.1266 277.5,-370.1266"/>
<polygon fill="none" stroke="#000000" points="277.5,-370.1266 277.5,-393.1266 438.5,-393.1266 438.5,-370.1266 277.5,-370.1266"/>
<text text-anchor="start" x="282.5" y="-379.2266" font-family="Helvetica,sans-Serif" font-weight="bold" font-size="11.00" fill="#000000">STAFF</text>
<text text-anchor="start" x="403.5437" y="-378.2266" font-family="Helvetica,sans-Serif" font-size="11.00" fill="#000000">[table]</text>
<polygon fill="none" stroke="#000000" points="277.5,-348.1266 277.5,-370.1266 438.5,-370.1266 438.5,-348.1266 277.5,-348.1266"/>
<image xlink:href="../../images/primaryKeys.png" width="11px" height="12px" preserveAspectRatio="xMinYMin meet" x="282.5" y="-365.127"/>
<text text-anchor="start" x="297.5" y="-355.2266" font-family="Helvetica,sans-Serif" font-size="11.00" fill="#000000">STAFF_ID</text>
<polygon fill="none" stroke="#000000" points="277.5,-326.1266 277.5,-348.1266 438.5,-348.1266 438.5,-326.1266 277.5,-326.1266"/>
<image xlink:href="../../images/primaryKeys.png" width="11px" height="12px" preserveAspectRatio="xMinYMin meet" x="282.5" y="-343.127"/>
<text text-anchor="start" x="297.5" y="-333.2266" font-family="Helvetica,sans-Serif" font-size="11.00" fill="#000000">SURNAME</text>
<polygon fill="none" stroke="#000000" points="277.5,-304.1266 277.5,-326.1266 438.5,-326.1266 438.5,-304.1266 277.5,-304.1266"/>
<image xlink:href="../../images/primaryKeys.png" width="11px" height="12px" preserveAspectRatio="xMinYMin meet" x="282.5" y="-321.127"/>
<text text-anchor="start" x="297.5" y="-311.2266" font-family="Helvetica,sans-Serif" font-size="11.00" fill="#000000">FORENAME</text>
<polygon fill="none" stroke="#000000" points="277.5,-282.1266 277.5,-304.1266 438.5,-304.1266 438.5,-282.1266 277.5,-282.1266"/>
<image xlink:href="../../images/primaryKeys.png" width="11px" height="12px" preserveAspectRatio="xMinYMin meet" x="282.5" y="-299.127"/>
<text text-anchor="start" x="297.5" y="-289.2266" font-family="Helvetica,sans-Serif" font-size="11.00" fill="#000000">FORENAME2</text>
<polygon fill="none" stroke="#000000" points="277.5,-260.1266 277.5,-282.1266 438.5,-282.1266 438.5,-260.1266 277.5,-260.1266"/>
<image xlink:href="../../images/primaryKeys.png" width="11px" height="12px" preserveAspectRatio="xMinYMin meet" x="282.5" y="-277.127"/>
<text text-anchor="start" x="297.5" y="-267.2266" font-family="Helvetica,sans-Serif" font-size="11.00" fill="#000000">STAFF_GRADE_ID</text>
<polygon fill="none" stroke="#000000" points="277.5,-238.1266 277.5,-260.1266 438.5,-260.1266 438.5,-238.1266 277.5,-238.1266"/>
<image xlink:href="../../images/primaryKeys.png" width="11px" height="12px" preserveAspectRatio="xMinYMin meet" x="282.5" y="-255.127"/>
<text text-anchor="start" x="297.5" y="-245.2266" font-family="Helvetica,sans-Serif" font-size="11.00" fill="#000000">TITLE_ID</text>
<polygon fill="none" stroke="#000000" points="277.5,-216.1266 277.5,-238.1266 438.5,-238.1266 438.5,-216.1266 277.5,-216.1266"/>
<image xlink:href="../../images/primaryKeys.png" width="11px" height="12px" preserveAspectRatio="xMinYMin meet" x="282.5" y="-233.127"/>
<text text-anchor="start" x="297.5" y="-223.2266" font-family="Helvetica,sans-Serif" font-size="11.00" fill="#000000">OFFICER_CODE</text>
<polygon fill="none" stroke="#000000" points="277.5,-194.1266 277.5,-216.1266 438.5,-216.1266 438.5,-194.1266 277.5,-194.1266"/>
<image xlink:href="../../images/primaryKeys.png" width="11px" height="12px" preserveAspectRatio="xMinYMin meet" x="282.5" y="-211.127"/>
<text text-anchor="start" x="297.5" y="-201.2266" font-family="Helvetica,sans-Serif" font-size="11.00" fill="#000000">TRAINING_SESSION_ID</text>
<polygon fill="none" stroke="#000000" points="277.5,-172.1266 277.5,-194.1266 438.5,-194.1266 438.5,-172.1266 277.5,-172.1266"/>
<image xlink:href="../../images/primaryKeys.png" width="11px" height="12px" preserveAspectRatio="xMinYMin meet" x="282.5" y="-189.127"/>
<text text-anchor="start" x="297.5" y="-179.2266" font-family="Helvetica,sans-Serif" font-size="11.00" fill="#000000">SC_PROVIDER_ID</text>
<polygon fill="none" stroke="#000000" points="277.5,-150.1266 277.5,-172.1266 438.5,-172.1266 438.5,-150.1266 277.5,-150.1266"/>
<image xlink:href="../../images/primaryKeys.png" width="11px" height="12px" preserveAspectRatio="xMinYMin meet" x="282.5" y="-167.127"/>
<text text-anchor="start" x="297.5" y="-157.2266" font-family="Helvetica,sans-Serif" font-size="11.00" fill="#000000">PROBATION_AREA_ID</text>
<polygon fill="none" stroke="#000000" points="277.5,-131.1266 277.5,-150.1266 438.5,-150.1266 438.5,-131.1266 277.5,-131.1266"/>
<text text-anchor="start" x="280.5" y="-137.2266" font-family="Helvetica,sans-Serif" font-size="11.00" fill="#000000">...</text>
<polygon fill="#ffffff" stroke="transparent" points="277.5,-112.1266 277.5,-131.1266 325.5,-131.1266 325.5,-112.1266 277.5,-112.1266"/>
<polygon fill="none" stroke="#000000" points="277.5,-112.1266 277.5,-131.1266 325.5,-131.1266 325.5,-112.1266 277.5,-112.1266"/>
<text text-anchor="start" x="280.5" y="-118.2266" font-family="Helvetica,sans-Serif" font-size="11.00" fill="#000000">&lt; 4</text>
<polygon fill="#ffffff" stroke="transparent" points="325.5,-112.1266 325.5,-131.1266 397.5,-131.1266 397.5,-112.1266 325.5,-112.1266"/>
<polygon fill="none" stroke="#000000" points="325.5,-112.1266 325.5,-131.1266 397.5,-131.1266 397.5,-112.1266 325.5,-112.1266"/>
<text text-anchor="start" x="340.7089" y="-118.2266" font-family="Helvetica,sans-Serif" font-size="11.00" fill="#000000">3,352 rows</text>
<polygon fill="#ffffff" stroke="transparent" points="397.5,-112.1266 397.5,-131.1266 438.5,-131.1266 438.5,-112.1266 397.5,-112.1266"/>
<polygon fill="none" stroke="#000000" points="397.5,-112.1266 397.5,-131.1266 438.5,-131.1266 438.5,-112.1266 397.5,-112.1266"/>
<text text-anchor="start" x="413.7904" y="-118.2266" font-family="Helvetica,sans-Serif" font-size="11.00" fill="#000000">58 &gt;</text>
</a>
</g>
</g>
<!-- SPG_ERROR&#45;&gt;STAFF -->
<g id="edge1" class="edge">
<title>SPG_ERROR:w&#45;&gt;STAFF:e</title>
<path fill="none" stroke="#000000" d="M475.2497,-285.5437C455.4466,-302.0441 473.8292,-359.1266 438.5,-359.1266"/>
<polygon fill="#000000" stroke="#000000" points="481.3833,-283.5733 490.1011,-284.554 485.1917,-282.3499 489,-281.1266 489,-281.1266 489,-281.1266 485.1917,-282.3499 487.8989,-277.6991 481.3833,-283.5733 481.3833,-283.5733"/>
<ellipse fill="none" stroke="#000000" cx="478.3367" cy="-284.5521" rx="3.2" ry="3.2"/>
</g>
<!-- R_STANDARD_REFERENCE_LIST -->
<g id="node3" class="node">
<title>R_STANDARD_REFERENCE_LIST</title>
<g id="a_node3"><a xlink:href="../../tables/R_STANDARD_REFERENCE_LIST.html" xlink:title="R_STANDARD_REFERENCE_LIST" target="_top">
<polygon fill="#ffffff" stroke="transparent" points="8,-156.6266 8,-305.6266 228,-305.6266 228,-156.6266 8,-156.6266"/>
<polygon fill="#f5f5f5" stroke="transparent" points="8,-282.1266 8,-305.1266 228,-305.1266 228,-282.1266 8,-282.1266"/>
<polygon fill="none" stroke="#000000" points="8,-282.1266 8,-305.1266 228,-305.1266 228,-282.1266 8,-282.1266"/>
<text text-anchor="start" x="12.5842" y="-291.2266" font-family="Helvetica,sans-Serif" font-weight="bold" font-size="11.00" fill="#000000">R_STANDARD_REFERENCE_LIST</text>
<text text-anchor="start" x="193.5219" y="-290.2266" font-family="Helvetica,sans-Serif" font-size="11.00" fill="#000000">[table]</text>
<polygon fill="none" stroke="#000000" points="8,-260.1266 8,-282.1266 228,-282.1266 228,-260.1266 8,-260.1266"/>
<image xlink:href="../../images/primaryKeys.png" width="11px" height="12px" preserveAspectRatio="xMinYMin meet" x="13" y="-277.127"/>
<text text-anchor="start" x="35.5558" y="-267.2266" font-family="Helvetica,sans-Serif" font-size="11.00" fill="#000000">STANDARD_REFERENCE_LIST_ID</text>
<polygon fill="none" stroke="#000000" points="8,-238.1266 8,-260.1266 228,-260.1266 228,-238.1266 8,-238.1266"/>
<image xlink:href="../../images/primaryKeys.png" width="11px" height="12px" preserveAspectRatio="xMinYMin meet" x="13" y="-255.127"/>
<text text-anchor="start" x="42" y="-245.2266" font-family="Helvetica,sans-Serif" font-size="11.00" fill="#000000">CODE_VALUE</text>
<polygon fill="none" stroke="#000000" points="8,-216.1266 8,-238.1266 228,-238.1266 228,-216.1266 8,-216.1266"/>
<image xlink:href="../../images/primaryKeys.png" width="11px" height="12px" preserveAspectRatio="xMinYMin meet" x="13" y="-233.127"/>
<text text-anchor="start" x="39.8337" y="-223.2266" font-family="Helvetica,sans-Serif" font-size="11.00" fill="#000000">REFERENCE_DATA_MASTER_ID</text>
<polygon fill="none" stroke="#000000" points="8,-194.1266 8,-216.1266 228,-216.1266 228,-194.1266 8,-194.1266"/>
<image xlink:href="../../images/primaryKeys.png" width="11px" height="12px" preserveAspectRatio="xMinYMin meet" x="13" y="-211.127"/>
<text text-anchor="start" x="42" y="-201.2266" font-family="Helvetica,sans-Serif" font-size="11.00" fill="#000000">TRAINING_SESSION_ID</text>
<polygon fill="none" stroke="#000000" points="8,-175.1266 8,-194.1266 228,-194.1266 228,-175.1266 8,-175.1266"/>
<text text-anchor="start" x="11" y="-181.2266" font-family="Helvetica,sans-Serif" font-size="11.00" fill="#000000">...</text>
<polygon fill="#ffffff" stroke="transparent" points="8,-156.1266 8,-175.1266 79,-175.1266 79,-156.1266 8,-156.1266"/>
<polygon fill="none" stroke="#000000" points="8,-156.1266 8,-175.1266 79,-175.1266 79,-156.1266 8,-156.1266"/>
<text text-anchor="start" x="11" y="-162.2266" font-family="Helvetica,sans-Serif" font-size="11.00" fill="#000000">&lt; 1</text>
<polygon fill="#ffffff" stroke="transparent" points="79,-156.1266 79,-175.1266 169,-175.1266 169,-156.1266 79,-156.1266"/>
<polygon fill="none" stroke="#000000" points="79,-156.1266 79,-175.1266 169,-175.1266 169,-156.1266 79,-156.1266"/>
<text text-anchor="start" x="106.094" y="-162.2266" font-family="Helvetica,sans-Serif" font-size="11.00" fill="#000000">15,391 rows</text>
<polygon fill="#ffffff" stroke="transparent" points="169,-156.1266 169,-175.1266 228,-175.1266 228,-156.1266 169,-156.1266"/>
<polygon fill="none" stroke="#000000" points="169,-156.1266 169,-175.1266 228,-175.1266 228,-156.1266 169,-156.1266"/>
<text text-anchor="start" x="197.1755" y="-162.2266" font-family="Helvetica,sans-Serif" font-size="11.00" fill="#000000">312 &gt;</text>
</a>
</g>
</g>
<!-- SPG_ERROR&#45;&gt;R_STANDARD_REFERENCE_LIST -->
<g id="edge2" class="edge">
<title>SPG_ERROR:w&#45;&gt;R_STANDARD_REFERENCE_LIST:e</title>
<path fill="none" stroke="#000000" d="M474.9203,-351.8307C462.3493,-363.3496 468.6337,-392.8493 446,-404.1266 375.5892,-439.2088 332.291,-450.8459 269,-404.1266 219.2339,-367.3909 289.8561,-271.1266 228,-271.1266"/>
<polygon fill="#000000" stroke="#000000" points="481.4123,-349.6617 490.1408,-350.541 485.2061,-348.3941 489,-347.1266 489,-347.1266 489,-347.1266 485.2061,-348.3941 487.8592,-343.7121 481.4123,-349.6617 481.4123,-349.6617"/>
<ellipse fill="none" stroke="#000000" cx="478.3772" cy="-350.6757" rx="3.2" ry="3.2"/>
</g>
<!-- SPG_ERROR&#45;&gt;R_STANDARD_REFERENCE_LIST -->
<g id="edge3" class="edge">
<title>SPG_ERROR:w&#45;&gt;R_STANDARD_REFERENCE_LIST:e</title>
<path fill="none" stroke="#000000" d="M474.6333,-415.8481C465.5557,-419.7082 460.1108,-426.5864 446,-429.1266 368.5778,-443.0639 331.2207,-477.2621 269,-429.1266 211.6188,-384.735 300.548,-271.1266 228,-271.1266"/>
<polygon fill="#000000" stroke="#000000" points="481.1398,-414.6156 489.6701,-416.6636 485.0699,-413.8711 489,-413.1266 489,-413.1266 489,-413.1266 485.0699,-413.8711 488.3299,-409.5895 481.1398,-414.6156 481.1398,-414.6156"/>
<ellipse fill="none" stroke="#000000" cx="477.9957" cy="-415.2112" rx="3.2" ry="3.2"/>
</g>
<!-- SPG_ERROR&#45;&gt;R_STANDARD_REFERENCE_LIST -->
<g id="edge4" class="edge">
<title>SPG_ERROR:w&#45;&gt;R_STANDARD_REFERENCE_LIST:e</title>
<path fill="none" stroke="#000000" d="M474.5089,-566.9523C374.6252,-564.4622 333.2901,-534.8652 269,-451.1266 219.0345,-386.0459 310.0491,-271.1266 228,-271.1266"/>
<polygon fill="#000000" stroke="#000000" points="481.0006,-567.0303 488.9567,-570.7263 485.0003,-567.0784 489,-567.1266 489,-567.1266 489,-567.1266 485.0003,-567.0784 489.0433,-563.5268 481.0006,-567.0303 481.0006,-567.0303"/>
<ellipse fill="none" stroke="#000000" cx="477.8008" cy="-566.9918" rx="3.2" ry="3.2"/>
</g>
<!-- STAFF&#45;&gt;R_STANDARD_REFERENCE_LIST -->
<g id="edge10" class="edge">
<title>STAFF:w&#45;&gt;R_STANDARD_REFERENCE_LIST:e</title>
<path fill="none" stroke="#000000" d="M262.8428,-271.1266C251.4139,-271.1266 244.1563,-271.1266 228,-271.1266"/>
<polygon fill="#000000" stroke="#000000" points="269.5,-271.1266 277.5,-274.7266 273.5,-271.1266 277.5,-271.1266 277.5,-271.1266 277.5,-271.1266 273.5,-271.1266 277.5,-267.5266 269.5,-271.1266 269.5,-271.1266"/>
<ellipse fill="none" stroke="#000000" cx="266.3" cy="-271.1266" rx="3.2" ry="3.2"/>
</g>
<!-- STAFF&#45;&gt;R_STANDARD_REFERENCE_LIST -->
<g id="edge11" class="edge">
<title>STAFF:w&#45;&gt;R_STANDARD_REFERENCE_LIST:e</title>
<path fill="none" stroke="#000000" d="M263.3612,-252.3727C251.4382,-258.4924 246.2443,-271.1266 228,-271.1266"/>
<polygon fill="#000000" stroke="#000000" points="269.7029,-250.9168 278.3056,-252.6353 273.6014,-250.0217 277.5,-249.1266 277.5,-249.1266 277.5,-249.1266 273.6014,-250.0217 276.6944,-245.6178 269.7029,-250.9168 269.7029,-250.9168"/>
<ellipse fill="none" stroke="#000000" cx="266.584" cy="-251.6328" rx="3.2" ry="3.2"/>
</g>
<!-- SPG_ERROR_DETAIL -->
<g id="node4" class="node">
<title>SPG_ERROR_DETAIL</title>
<g id="a_node4"><a xlink:href="../../tables/SPG_ERROR_DETAIL.html" xlink:title="SPG_ERROR_DETAIL" target="_top">
<polygon fill="#ffffff" stroke="transparent" points="997,-208.6266 997,-357.6266 1155,-357.6266 1155,-208.6266 997,-208.6266"/>
<polygon fill="#f5f5f5" stroke="transparent" points="997,-334.1266 997,-357.1266 1155,-357.1266 1155,-334.1266 997,-334.1266"/>
<polygon fill="none" stroke="#000000" points="997,-334.1266 997,-357.1266 1155,-357.1266 1155,-334.1266 997,-334.1266"/>
<text text-anchor="start" x="1002" y="-343.2266" font-family="Helvetica,sans-Serif" font-weight="bold" font-size="11.00" fill="#000000">SPG_ERROR_DETAIL</text>
<text text-anchor="start" x="1120.0437" y="-342.2266" font-family="Helvetica,sans-Serif" font-size="11.00" fill="#000000">[table]</text>
<polygon fill="none" stroke="#000000" points="997,-312.1266 997,-334.1266 1155,-334.1266 1155,-312.1266 997,-312.1266"/>
<image xlink:href="../../images/primaryKeys.png" width="11px" height="12px" preserveAspectRatio="xMinYMin meet" x="1002" y="-329.127"/>
<text text-anchor="start" x="1017" y="-319.2266" font-family="Helvetica,sans-Serif" font-size="11.00" fill="#000000">SPG_ERROR_DETAIL_ID</text>
<polygon fill="none" stroke="#000000" points="997,-290.1266 997,-312.1266 1155,-312.1266 1155,-290.1266 997,-290.1266"/>
<image xlink:href="../../images/primaryKeys.png" width="11px" height="12px" preserveAspectRatio="xMinYMin meet" x="1002" y="-307.127"/>
<text text-anchor="start" x="1017" y="-297.2266" font-family="Helvetica,sans-Serif" font-size="11.00" fill="#000000">SPG_ERROR_ID</text>
<polygon fill="none" stroke="#000000" points="997,-268.1266 997,-290.1266 1155,-290.1266 1155,-268.1266 997,-268.1266"/>
<image xlink:href="../../images/primaryKeys.png" width="11px" height="12px" preserveAspectRatio="xMinYMin meet" x="1002" y="-285.127"/>
<text text-anchor="start" x="1011.384" y="-275.2266" font-family="Helvetica,sans-Serif" font-size="11.00" fill="#000000">SPG_ERROR_ELEMENT_ID</text>
<polygon fill="none" stroke="#000000" points="997,-246.1266 997,-268.1266 1155,-268.1266 1155,-246.1266 997,-246.1266"/>
<image xlink:href="../../images/primaryKeys.png" width="11px" height="12px" preserveAspectRatio="xMinYMin meet" x="1002" y="-263.127"/>
<text text-anchor="start" x="1017" y="-253.2266" font-family="Helvetica,sans-Serif" font-size="11.00" fill="#000000">SPG_ERROR_CODE_ID</text>
<polygon fill="none" stroke="#000000" points="997,-227.1266 997,-246.1266 1155,-246.1266 1155,-227.1266 997,-227.1266"/>
<text text-anchor="start" x="1000" y="-233.2266" font-family="Helvetica,sans-Serif" font-size="11.00" fill="#000000">...</text>
<polygon fill="#ffffff" stroke="transparent" points="997,-208.1266 997,-227.1266 1048,-227.1266 1048,-208.1266 997,-208.1266"/>
<polygon fill="none" stroke="#000000" points="997,-208.1266 997,-227.1266 1048,-227.1266 1048,-208.1266 997,-208.1266"/>
<text text-anchor="start" x="1000" y="-214.2266" font-family="Helvetica,sans-Serif" font-size="11.00" fill="#000000">&lt; 3</text>
<polygon fill="#ffffff" stroke="transparent" points="1048,-208.1266 1048,-227.1266 1128,-227.1266 1128,-208.1266 1048,-208.1266"/>
<polygon fill="none" stroke="#000000" points="1048,-208.1266 1048,-227.1266 1128,-227.1266 1128,-208.1266 1048,-208.1266"/>
<text text-anchor="start" x="1065.094" y="-214.2266" font-family="Helvetica,sans-Serif" font-size="11.00" fill="#000000">10,734 rows</text>
<polygon fill="#ffffff" stroke="transparent" points="1128,-208.1266 1128,-227.1266 1155,-227.1266 1155,-208.1266 1128,-208.1266"/>
<polygon fill="none" stroke="#000000" points="1128,-208.1266 1128,-227.1266 1155,-227.1266 1155,-208.1266 1128,-208.1266"/>
<text text-anchor="start" x="1145.8862" y="-214.2266" font-family="Helvetica,sans-Serif" font-size="11.00" fill="#000000"> &#160;</text>
</a>
</g>
</g>
<!-- SPG_ERROR_DETAIL&#45;&gt;SPG_ERROR -->
<g id="edge7" class="edge">
<title>SPG_ERROR_DETAIL:w&#45;&gt;SPG_ERROR:e</title>
<path fill="none" stroke="#000000" d="M983.6053,-306.7718C923.5642,-348.7871 769.0196,-611.1266 727,-611.1266"/>
<polygon fill="#000000" stroke="#000000" points="989.628,-304.2336 998.3982,-304.444 993.314,-302.6801 997,-301.1266 997,-301.1266 997,-301.1266 993.314,-302.6801 995.6018,-297.8091 989.628,-304.2336 989.628,-304.2336"/>
<ellipse fill="none" stroke="#000000" cx="986.6792" cy="-305.4764" rx="3.2" ry="3.2"/>
</g>
<!-- SPG_ERROR_DETAIL&#45;&gt;R_STANDARD_REFERENCE_LIST -->
<g id="edge5" class="edge">
<title>SPG_ERROR_DETAIL:w&#45;&gt;R_STANDARD_REFERENCE_LIST:e</title>
<path fill="none" stroke="#000000" d="M983.0072,-253.5929C964.4411,-241.0366 982.169,-198.1486 956,-176.1266 837.9102,-76.75 388.7383,23.2573 269,-74.1266 199.6182,-130.5552 317.4317,-271.1266 228,-271.1266"/>
<polygon fill="#000000" stroke="#000000" points="989.2435,-255.1678 996.1185,-260.617 993.1217,-256.1472 997,-257.1266 997,-257.1266 997,-257.1266 993.1217,-256.1472 997.8815,-253.6361 989.2435,-255.1678 989.2435,-255.1678"/>
<ellipse fill="none" stroke="#000000" cx="986.1409" cy="-254.3842" rx="3.2" ry="3.2"/>
</g>
<!-- SPG_ERROR_ELEMENT -->
<g id="node5" class="node">
<title>SPG_ERROR_ELEMENT</title>
<g id="a_node5"><a xlink:href="../../tables/SPG_ERROR_ELEMENT.html" xlink:title="SPG_ERROR_ELEMENT" target="_top">
<polygon fill="#ffffff" stroke="transparent" points="778,-186.6266 778,-313.6266 948,-313.6266 948,-186.6266 778,-186.6266"/>
<polygon fill="#f5f5f5" stroke="transparent" points="778,-290.1266 778,-313.1266 948,-313.1266 948,-290.1266 778,-290.1266"/>
<polygon fill="none" stroke="#000000" points="778,-290.1266 778,-313.1266 948,-313.1266 948,-290.1266 778,-290.1266"/>
<text text-anchor="start" x="782.9404" y="-299.2266" font-family="Helvetica,sans-Serif" font-weight="bold" font-size="11.00" fill="#000000">SPG_ERROR_ELEMENT</text>
<text text-anchor="start" x="913.5219" y="-298.2266" font-family="Helvetica,sans-Serif" font-size="11.00" fill="#000000">[table]</text>
<polygon fill="none" stroke="#000000" points="778,-268.1266 778,-290.1266 948,-290.1266 948,-268.1266 778,-268.1266"/>
<image xlink:href="../../images/primaryKeys.png" width="11px" height="12px" preserveAspectRatio="xMinYMin meet" x="783" y="-285.127"/>
<text text-anchor="start" x="798.884" y="-275.2266" font-family="Helvetica,sans-Serif" font-size="11.00" fill="#000000">SPG_ERROR_ELEMENT_ID</text>
<polygon fill="none" stroke="#000000" points="778,-246.1266 778,-268.1266 948,-268.1266 948,-246.1266 778,-246.1266"/>
<image xlink:href="../../images/primaryKeys.png" width="11px" height="12px" preserveAspectRatio="xMinYMin meet" x="783" y="-263.127"/>
<text text-anchor="start" x="803" y="-253.2266" font-family="Helvetica,sans-Serif" font-size="11.00" fill="#000000">SPG_ERROR_ID</text>
<polygon fill="none" stroke="#000000" points="778,-224.1266 778,-246.1266 948,-246.1266 948,-224.1266 778,-224.1266"/>
<image xlink:href="../../images/primaryKeys.png" width="11px" height="12px" preserveAspectRatio="xMinYMin meet" x="783" y="-241.127"/>
<text text-anchor="start" x="803" y="-231.2266" font-family="Helvetica,sans-Serif" font-size="11.00" fill="#000000">SPG_ELEMENT_TYPE_ID</text>
<polygon fill="none" stroke="#000000" points="778,-205.1266 778,-224.1266 948,-224.1266 948,-205.1266 778,-205.1266"/>
<text text-anchor="start" x="781" y="-211.2266" font-family="Helvetica,sans-Serif" font-size="11.00" fill="#000000">...</text>
<polygon fill="#ffffff" stroke="transparent" points="778,-186.1266 778,-205.1266 844,-205.1266 844,-186.1266 778,-186.1266"/>
<polygon fill="none" stroke="#000000" points="778,-186.1266 778,-205.1266 844,-205.1266 844,-186.1266 778,-186.1266"/>
<text text-anchor="start" x="781" y="-192.2266" font-family="Helvetica,sans-Serif" font-size="11.00" fill="#000000">&lt; 2</text>
<polygon fill="#ffffff" stroke="transparent" points="844,-186.1266 844,-205.1266 904,-205.1266 904,-186.1266 844,-186.1266"/>
<polygon fill="none" stroke="#000000" points="844,-186.1266 844,-205.1266 904,-205.1266 904,-186.1266 844,-186.1266"/>
<text text-anchor="start" x="868.6105" y="-192.2266" font-family="Helvetica,sans-Serif" font-size="11.00" fill="#000000">0 rows</text>
<polygon fill="#ffffff" stroke="transparent" points="904,-186.1266 904,-205.1266 948,-205.1266 948,-186.1266 904,-186.1266"/>
<polygon fill="none" stroke="#000000" points="904,-186.1266 904,-205.1266 948,-205.1266 948,-186.1266 904,-186.1266"/>
<text text-anchor="start" x="929.4053" y="-192.2266" font-family="Helvetica,sans-Serif" font-size="11.00" fill="#000000">1 &gt;</text>
</a>
</g>
</g>
<!-- SPG_ERROR_DETAIL&#45;&gt;SPG_ERROR_ELEMENT -->
<g id="edge6" class="edge">
<title>SPG_ERROR_DETAIL:w&#45;&gt;SPG_ERROR_ELEMENT:e</title>
<path fill="none" stroke="#000000" d="M982.4909,-279.1266C971.1774,-279.1266 963.9931,-279.1266 948,-279.1266"/>
<polygon fill="#000000" stroke="#000000" points="989,-279.1266 997,-282.7266 993,-279.1266 997,-279.1266 997,-279.1266 997,-279.1266 993,-279.1266 997,-275.5266 989,-279.1266 989,-279.1266"/>
<ellipse fill="none" stroke="#000000" cx="985.8" cy="-279.1266" rx="3.2" ry="3.2"/>
</g>
<!-- SPG_ERROR_ELEMENT&#45;&gt;SPG_ERROR -->
<g id="edge9" class="edge">
<title>SPG_ERROR_ELEMENT:w&#45;&gt;SPG_ERROR:e</title>
<path fill="none" stroke="#000000" d="M764.2085,-261.8631C712.4051,-303.8707 801.0457,-611.1266 727,-611.1266"/>
<polygon fill="#000000" stroke="#000000" points="770.4338,-259.7251 779.1694,-260.5313 774.2169,-258.4258 778,-257.1266 778,-257.1266 778,-257.1266 774.2169,-258.4258 776.8306,-253.7218 770.4338,-259.7251 770.4338,-259.7251"/>
<ellipse fill="none" stroke="#000000" cx="767.4073" cy="-260.7646" rx="3.2" ry="3.2"/>
</g>
<!-- SPG_ERROR_ELEMENT&#45;&gt;R_STANDARD_REFERENCE_LIST -->
<g id="edge8" class="edge">
<title>SPG_ERROR_ELEMENT:w&#45;&gt;R_STANDARD_REFERENCE_LIST:e</title>
<path fill="none" stroke="#000000" d="M763.5054,-234.8304C617.8486,-228.7664 597.2018,-131.2861 446,-102.1266 368.7566,-87.23 330.8363,-53.4982 269,-102.1266 208.2459,-149.9038 305.2899,-271.1266 228,-271.1266"/>
<polygon fill="#000000" stroke="#000000" points="770.0017,-234.9631 777.9264,-238.7258 774.0008,-235.0448 778,-235.1266 778,-235.1266 778,-235.1266 774.0008,-235.0448 778.0736,-231.5273 770.0017,-234.9631 770.0017,-234.9631"/>
<ellipse fill="none" stroke="#000000" cx="766.8023" cy="-234.8977" rx="3.2" ry="3.2"/>
</g>
</g>
</svg>
