<?xml version="1.0" encoding="UTF-8" standalone="no"?>
<!DOCTYPE svg PUBLIC "-//W3C//DTD SVG 1.1//EN"
 "http://www.w3.org/Graphics/SVG/1.1/DTD/svg11.dtd">
<!-- Generated by graphviz version 2.40.1 (20161225.0304)
 -->
<!-- Title: oneDegreeRelationshipsDiagram Pages: 1 -->
<svg width="535pt" height="465pt"
 viewBox="0.00 0.00 535.00 464.70" xmlns="http://www.w3.org/2000/svg" xmlns:xlink="http://www.w3.org/1999/xlink">
<g id="graph0" class="graph" transform="scale(1 1) rotate(0) translate(4 460.7)">
<title>oneDegreeRelationshipsDiagram</title>
<polygon fill="#ffffff" stroke="transparent" points="-4,4 -4,-460.7 531,-460.7 531,4 -4,4"/>
<text text-anchor="middle" x="72.4936" y="-7.3" font-family="Helvetica,sans-Serif" font-size="11.00" fill="#000000">Generated by SchemaSpy</text>
<!-- SPG_ERROR_CLEAR_REQUEST -->
<g id="node1" class="node">
<title>SPG_ERROR_CLEAR_REQUEST</title>
<g id="a_node1"><a xlink:href="../../tables/SPG_ERROR_CLEAR_REQUEST.html" xlink:title="SPG_ERROR_CLEAR_REQUEST" target="_top">
<polygon fill="#ffffff" stroke="transparent" points="255,-208.7 255,-452.7 519,-452.7 519,-208.7 255,-208.7"/>
<polygon fill="#f5f5f5" stroke="transparent" points="257,-427.7 257,-450.7 517,-450.7 517,-427.7 257,-427.7"/>
<polygon fill="none" stroke="#000000" points="257,-427.7 257,-450.7 517,-450.7 517,-427.7 257,-427.7"/>
<text text-anchor="start" x="262" y="-436.8" font-family="Helvetica,sans-Serif" font-weight="bold" font-size="11.00" fill="#000000">SPG_ERROR_CLEAR_REQUEST</text>
<text text-anchor="start" x="482.0437" y="-435.8" font-family="Helvetica,sans-Serif" font-size="11.00" fill="#000000">[table]</text>
<polygon fill="none" stroke="#000000" points="257,-405.7 257,-427.7 456,-427.7 456,-405.7 257,-405.7"/>
<image xlink:href="../../images/primaryKeys.png" width="11px" height="12px" preserveAspectRatio="xMinYMin meet" x="262" y="-422.7"/>
<text text-anchor="start" x="269.8818" y="-412.8" font-family="Helvetica,sans-Serif" font-size="11.00" fill="#000000">SPG_ERROR_CLEAR_REQUEST_ID</text>
<polygon fill="none" stroke="#000000" points="456,-405.7 456,-427.7 517,-427.7 517,-405.7 456,-405.7"/>
<text text-anchor="start" x="458.6865" y="-413.4" font-family="Helvetica,sans-Serif" font-size="11.00" fill="#000000">number[38]</text>
<polygon fill="none" stroke="#000000" points="257,-383.7 257,-405.7 456,-405.7 456,-383.7 257,-383.7"/>
<image xlink:href="../../images/primaryKeys.png" width="11px" height="12px" preserveAspectRatio="xMinYMin meet" x="262" y="-400.7"/>
<text text-anchor="start" x="277" y="-390.8" font-family="Helvetica,sans-Serif" font-size="11.00" fill="#000000">SPG_NOTIFICATION_ID</text>
<polygon fill="none" stroke="#000000" points="456,-383.7 456,-405.7 517,-405.7 517,-383.7 456,-383.7"/>
<text text-anchor="start" x="458.6865" y="-391.4" font-family="Helvetica,sans-Serif" font-size="11.00" fill="#000000">number[38]</text>
<polygon fill="none" stroke="#000000" points="257,-361.7 257,-383.7 456,-383.7 456,-361.7 257,-361.7"/>
<text text-anchor="start" x="277" y="-368.8" font-family="Helvetica,sans-Serif" font-size="11.00" fill="#000000">PROCESSED_FLAG</text>
<polygon fill="none" stroke="#000000" points="456,-361.7 456,-383.7 517,-383.7 517,-361.7 456,-361.7"/>
<text text-anchor="start" x="458.6865" y="-369.4" font-family="Helvetica,sans-Serif" font-size="11.00" fill="#000000">number[38]</text>
<polygon fill="none" stroke="#000000" points="257,-339.7 257,-361.7 456,-361.7 456,-339.7 257,-339.7"/>
<text text-anchor="start" x="277" y="-346.8" font-family="Helvetica,sans-Serif" font-size="11.00" fill="#000000">PROCESSED_DATETIME</text>
<polygon fill="none" stroke="#000000" points="456,-339.7 456,-361.7 517,-361.7 517,-339.7 456,-339.7"/>
<text text-anchor="start" x="459" y="-347.4" font-family="Helvetica,sans-Serif" font-size="11.00" fill="#000000">date[7]</text>
<polygon fill="none" stroke="#000000" points="257,-317.7 257,-339.7 456,-339.7 456,-317.7 257,-317.7"/>
<text text-anchor="start" x="277" y="-324.8" font-family="Helvetica,sans-Serif" font-size="11.00" fill="#000000">ROW_VERSION</text>
<polygon fill="none" stroke="#000000" points="456,-317.7 456,-339.7 517,-339.7 517,-317.7 456,-317.7"/>
<text text-anchor="start" x="458.6865" y="-325.4" font-family="Helvetica,sans-Serif" font-size="11.00" fill="#000000">number[38]</text>
<polygon fill="none" stroke="#000000" points="257,-295.7 257,-317.7 456,-317.7 456,-295.7 257,-295.7"/>
<text text-anchor="start" x="277" y="-302.8" font-family="Helvetica,sans-Serif" font-size="11.00" fill="#000000">CREATED_BY_USER_ID</text>
<polygon fill="none" stroke="#000000" points="456,-295.7 456,-317.7 517,-317.7 517,-295.7 456,-295.7"/>
<text text-anchor="start" x="458.6865" y="-303.4" font-family="Helvetica,sans-Serif" font-size="11.00" fill="#000000">number[38]</text>
<polygon fill="none" stroke="#000000" points="257,-273.7 257,-295.7 456,-295.7 456,-273.7 257,-273.7"/>
<text text-anchor="start" x="277" y="-280.8" font-family="Helvetica,sans-Serif" font-size="11.00" fill="#000000">CREATED_DATETIME</text>
<polygon fill="none" stroke="#000000" points="456,-273.7 456,-295.7 517,-295.7 517,-273.7 456,-273.7"/>
<text text-anchor="start" x="459" y="-281.4" font-family="Helvetica,sans-Serif" font-size="11.00" fill="#000000">date[7]</text>
<polygon fill="none" stroke="#000000" points="257,-251.7 257,-273.7 456,-273.7 456,-251.7 257,-251.7"/>
<text text-anchor="start" x="277" y="-258.8" font-family="Helvetica,sans-Serif" font-size="11.00" fill="#000000">LAST_UPDATED_USER_ID</text>
<polygon fill="none" stroke="#000000" points="456,-251.7 456,-273.7 517,-273.7 517,-251.7 456,-251.7"/>
<text text-anchor="start" x="458.6865" y="-259.4" font-family="Helvetica,sans-Serif" font-size="11.00" fill="#000000">number[38]</text>
<polygon fill="none" stroke="#000000" points="257,-229.7 257,-251.7 456,-251.7 456,-229.7 257,-229.7"/>
<text text-anchor="start" x="277" y="-236.8" font-family="Helvetica,sans-Serif" font-size="11.00" fill="#000000">LAST_UPDATED_DATETIME</text>
<polygon fill="none" stroke="#000000" points="456,-229.7 456,-251.7 517,-251.7 517,-229.7 456,-229.7"/>
<text text-anchor="start" x="459" y="-237.4" font-family="Helvetica,sans-Serif" font-size="11.00" fill="#000000">date[7]</text>
<polygon fill="#ffffff" stroke="transparent" points="257,-210.7 257,-229.7 348,-229.7 348,-210.7 257,-210.7"/>
<polygon fill="none" stroke="#000000" points="257,-210.7 257,-229.7 348,-229.7 348,-210.7 257,-210.7"/>
<text text-anchor="start" x="260" y="-216.8" font-family="Helvetica,sans-Serif" font-size="11.00" fill="#000000">&lt; 1</text>
<polygon fill="#ffffff" stroke="transparent" points="348,-210.7 348,-229.7 456,-229.7 456,-210.7 348,-210.7"/>
<polygon fill="none" stroke="#000000" points="348,-210.7 348,-229.7 456,-229.7 456,-210.7 348,-210.7"/>
<text text-anchor="start" x="420.6105" y="-216.8" font-family="Helvetica,sans-Serif" font-size="11.00" fill="#000000">0 rows</text>
<polygon fill="#ffffff" stroke="transparent" points="456,-210.7 456,-229.7 517,-229.7 517,-210.7 456,-210.7"/>
<polygon fill="none" stroke="#000000" points="456,-210.7 456,-229.7 517,-229.7 517,-210.7 456,-210.7"/>
<text text-anchor="start" x="498.4053" y="-216.8" font-family="Helvetica,sans-Serif" font-size="11.00" fill="#000000">0 &gt;</text>
<polygon fill="none" stroke="#000000" stroke-width="2" points="256,-209.7 256,-451.7 518,-451.7 518,-209.7 256,-209.7"/>
</a>
</g>
</g>
<!-- SPG_NOTIFICATION -->
<g id="node2" class="node">
<title>SPG_NOTIFICATION</title>
<g id="a_node2"><a xlink:href="../../tables/SPG_NOTIFICATION.html" xlink:title="SPG_NOTIFICATION" target="_top">
<polygon fill="#ffffff" stroke="transparent" points="8,-38.2 8,-429.2 206,-429.2 206,-38.2 8,-38.2"/>
<polygon fill="#f5f5f5" stroke="transparent" points="8,-405.7 8,-428.7 206,-428.7 206,-405.7 8,-405.7"/>
<polygon fill="none" stroke="#000000" points="8,-405.7 8,-428.7 206,-428.7 206,-405.7 8,-405.7"/>
<text text-anchor="start" x="13" y="-414.8" font-family="Helvetica,sans-Serif" font-weight="bold" font-size="11.00" fill="#000000">SPG_NOTIFICATION</text>
<text text-anchor="start" x="171.0437" y="-413.8" font-family="Helvetica,sans-Serif" font-size="11.00" fill="#000000">[table]</text>
<polygon fill="none" stroke="#000000" points="8,-383.7 8,-405.7 206,-405.7 206,-383.7 8,-383.7"/>
<image xlink:href="../../images/primaryKeys.png" width="11px" height="12px" preserveAspectRatio="xMinYMin meet" x="13" y="-400.7"/>
<text text-anchor="start" x="28" y="-390.8" font-family="Helvetica,sans-Serif" font-size="11.00" fill="#000000">SPG_NOTIFICATION_ID</text>
<polygon fill="none" stroke="#000000" points="8,-361.7 8,-383.7 206,-383.7 206,-361.7 8,-361.7"/>
<image xlink:href="../../images/primaryKeys.png" width="11px" height="12px" preserveAspectRatio="xMinYMin meet" x="13" y="-378.7"/>
<text text-anchor="start" x="28" y="-368.8" font-family="Helvetica,sans-Serif" font-size="11.00" fill="#000000">BUSINESS_INTERACTION_ID</text>
<polygon fill="none" stroke="#000000" points="8,-339.7 8,-361.7 206,-361.7 206,-339.7 8,-339.7"/>
<image xlink:href="../../images/primaryKeys.png" width="11px" height="12px" preserveAspectRatio="xMinYMin meet" x="13" y="-356.7"/>
<text text-anchor="start" x="28" y="-346.8" font-family="Helvetica,sans-Serif" font-size="11.00" fill="#000000">OFFENDER_ID</text>
<polygon fill="none" stroke="#000000" points="8,-317.7 8,-339.7 206,-339.7 206,-317.7 8,-317.7"/>
<image xlink:href="../../images/primaryKeys.png" width="11px" height="12px" preserveAspectRatio="xMinYMin meet" x="13" y="-334.7"/>
<text text-anchor="start" x="28" y="-324.8" font-family="Helvetica,sans-Serif" font-size="11.00" fill="#000000">DATE_CREATED</text>
<polygon fill="none" stroke="#000000" points="8,-295.7 8,-317.7 206,-317.7 206,-295.7 8,-295.7"/>
<image xlink:href="../../images/primaryKeys.png" width="11px" height="12px" preserveAspectRatio="xMinYMin meet" x="13" y="-312.7"/>
<text text-anchor="start" x="28" y="-302.8" font-family="Helvetica,sans-Serif" font-size="11.00" fill="#000000">PROCESSED_FLAG</text>
<polygon fill="none" stroke="#000000" points="8,-273.7 8,-295.7 206,-295.7 206,-273.7 8,-273.7"/>
<image xlink:href="../../images/primaryKeys.png" width="11px" height="12px" preserveAspectRatio="xMinYMin meet" x="13" y="-290.7"/>
<text text-anchor="start" x="28" y="-280.8" font-family="Helvetica,sans-Serif" font-size="11.00" fill="#000000">CONTROL_REFERENCE</text>
<polygon fill="none" stroke="#000000" points="8,-251.7 8,-273.7 206,-273.7 206,-251.7 8,-251.7"/>
<image xlink:href="../../images/primaryKeys.png" width="11px" height="12px" preserveAspectRatio="xMinYMin meet" x="13" y="-268.7"/>
<text text-anchor="start" x="28" y="-258.8" font-family="Helvetica,sans-Serif" font-size="11.00" fill="#000000">SENDER_IDENTITY_ID</text>
<polygon fill="none" stroke="#000000" points="8,-229.7 8,-251.7 206,-251.7 206,-229.7 8,-229.7"/>
<image xlink:href="../../images/primaryKeys.png" width="11px" height="12px" preserveAspectRatio="xMinYMin meet" x="13" y="-246.7"/>
<text text-anchor="start" x="28" y="-236.8" font-family="Helvetica,sans-Serif" font-size="11.00" fill="#000000">RECEIVER_IDENTITY_ID</text>
<polygon fill="none" stroke="#000000" points="8,-207.7 8,-229.7 206,-229.7 206,-207.7 8,-207.7"/>
<image xlink:href="../../images/primaryKeys.png" width="11px" height="12px" preserveAspectRatio="xMinYMin meet" x="13" y="-224.7"/>
<text text-anchor="start" x="19.4743" y="-214.8" font-family="Helvetica,sans-Serif" font-size="11.00" fill="#000000">RECEIVER_CONTROL_REFERENCE</text>
<polygon fill="none" stroke="#000000" points="8,-185.7 8,-207.7 206,-207.7 206,-185.7 8,-185.7"/>
<image xlink:href="../../images/primaryKeys.png" width="11px" height="12px" preserveAspectRatio="xMinYMin meet" x="13" y="-202.7"/>
<text text-anchor="start" x="28" y="-192.8" font-family="Helvetica,sans-Serif" font-size="11.00" fill="#000000">MESSAGE_DIRECTION</text>
<polygon fill="none" stroke="#000000" points="8,-163.7 8,-185.7 206,-185.7 206,-163.7 8,-163.7"/>
<image xlink:href="../../images/primaryKeys.png" width="11px" height="12px" preserveAspectRatio="xMinYMin meet" x="13" y="-180.7"/>
<text text-anchor="start" x="28" y="-170.8" font-family="Helvetica,sans-Serif" font-size="11.00" fill="#000000">SPG_MESSAGE_CONTEXT_ID</text>
<polygon fill="none" stroke="#000000" points="8,-141.7 8,-163.7 206,-163.7 206,-141.7 8,-141.7"/>
<image xlink:href="../../images/primaryKeys.png" width="11px" height="12px" preserveAspectRatio="xMinYMin meet" x="13" y="-158.7"/>
<text text-anchor="start" x="26.4973" y="-148.8" font-family="Helvetica,sans-Serif" font-size="11.00" fill="#000000">SPG_INTERCHANGE_STATUS_ID</text>
<polygon fill="none" stroke="#000000" points="8,-119.7 8,-141.7 206,-141.7 206,-119.7 8,-119.7"/>
<image xlink:href="../../images/primaryKeys.png" width="11px" height="12px" preserveAspectRatio="xMinYMin meet" x="13" y="-136.7"/>
<text text-anchor="start" x="22.2249" y="-126.8" font-family="Helvetica,sans-Serif" font-size="11.00" fill="#000000">REGENERATED_NOTIFICATION_ID</text>
<polygon fill="none" stroke="#000000" points="8,-97.7 8,-119.7 206,-119.7 206,-97.7 8,-97.7"/>
<image xlink:href="../../images/primaryKeys.png" width="11px" height="12px" preserveAspectRatio="xMinYMin meet" x="13" y="-114.7"/>
<text text-anchor="start" x="28" y="-104.8" font-family="Helvetica,sans-Serif" font-size="11.00" fill="#000000">MT_COMPONENT_ID</text>
<polygon fill="none" stroke="#000000" points="8,-75.7 8,-97.7 206,-97.7 206,-75.7 8,-75.7"/>
<image xlink:href="../../images/primaryKeys.png" width="11px" height="12px" preserveAspectRatio="xMinYMin meet" x="13" y="-92.7"/>
<text text-anchor="start" x="28" y="-82.8" font-family="Helvetica,sans-Serif" font-size="11.00" fill="#000000">DATA_SCRIPT_MESSAGE_ID</text>
<polygon fill="none" stroke="#000000" points="8,-56.7 8,-75.7 206,-75.7 206,-56.7 8,-56.7"/>
<text text-anchor="start" x="11" y="-62.8" font-family="Helvetica,sans-Serif" font-size="11.00" fill="#000000">...</text>
<polygon fill="#ffffff" stroke="transparent" points="8,-37.7 8,-56.7 71,-56.7 71,-37.7 8,-37.7"/>
<polygon fill="none" stroke="#000000" points="8,-37.7 8,-56.7 71,-56.7 71,-37.7 8,-37.7"/>
<text text-anchor="start" x="11" y="-43.8" font-family="Helvetica,sans-Serif" font-size="11.00" fill="#000000">&lt; 8</text>
<polygon fill="#ffffff" stroke="transparent" points="71,-37.7 71,-56.7 164,-56.7 164,-37.7 71,-37.7"/>
<polygon fill="none" stroke="#000000" points="71,-37.7 71,-56.7 164,-56.7 164,-37.7 71,-37.7"/>
<text text-anchor="start" x="94.9791" y="-43.8" font-family="Helvetica,sans-Serif" font-size="11.00" fill="#000000">428,992 rows</text>
<polygon fill="#ffffff" stroke="transparent" points="164,-37.7 164,-56.7 206,-56.7 206,-37.7 164,-37.7"/>
<polygon fill="none" stroke="#000000" points="164,-37.7 164,-56.7 206,-56.7 206,-37.7 164,-37.7"/>
<text text-anchor="start" x="187.4053" y="-43.8" font-family="Helvetica,sans-Serif" font-size="11.00" fill="#000000">5 &gt;</text>
</a>
</g>
</g>
<!-- SPG_ERROR_CLEAR_REQUEST&#45;&gt;SPG_NOTIFICATION -->
<g id="edge1" class="edge">
<title>SPG_ERROR_CLEAR_REQUEST:w&#45;&gt;SPG_NOTIFICATION:e</title>
<path fill="none" stroke="#000000" d="M242.276,-394.7C230.2815,-394.7 222.8229,-394.7 206,-394.7"/>
<polygon fill="#000000" stroke="#000000" points="249,-394.7001 257,-398.3 253,-394.7 257,-394.7 257,-394.7 257,-394.7 253,-394.7 257,-391.1 249,-394.7001 249,-394.7001"/>
<ellipse fill="none" stroke="#000000" cx="245.8" cy="-394.7001" rx="3.2" ry="3.2"/>
</g>
</g>
</svg>
