<?xml version="1.0" encoding="UTF-8" standalone="no"?>
<!DOCTYPE svg PUBLIC "-//W3C//DTD SVG 1.1//EN"
 "http://www.w3.org/Graphics/SVG/1.1/DTD/svg11.dtd">
<!-- Generated by graphviz version 2.40.1 (20161225.0304)
 -->
<!-- Title: oneDegreeRelationshipsDiagram Pages: 1 -->
<svg width="327pt" height="495pt"
 viewBox="0.00 0.00 327.00 495.20" xmlns="http://www.w3.org/2000/svg" xmlns:xlink="http://www.w3.org/1999/xlink">
<g id="graph0" class="graph" transform="scale(1 1) rotate(0) translate(4 491.2)">
<title>oneDegreeRelationshipsDiagram</title>
<polygon fill="#ffffff" stroke="transparent" points="-4,4 -4,-491.2 323,-491.2 323,4 -4,4"/>
<text text-anchor="middle" x="72.4936" y="-7.3" font-family="Helvetica,sans-Serif" font-size="11.00" fill="#000000">Generated by SchemaSpy</text>
<!-- SPG_DOCUMENT -->
<g id="node1" class="node">
<title>SPG_DOCUMENT</title>
<g id="a_node1"><a xlink:href="../../tables/SPG_DOCUMENT.html" xlink:title="SPG_DOCUMENT" target="_top">
<polygon fill="#ffffff" stroke="transparent" points="8,-38.2 8,-483.2 311,-483.2 311,-38.2 8,-38.2"/>
<polygon fill="#f5f5f5" stroke="transparent" points="10.5,-457.7 10.5,-480.7 309.5,-480.7 309.5,-457.7 10.5,-457.7"/>
<polygon fill="none" stroke="#000000" points="10.5,-457.7 10.5,-480.7 309.5,-480.7 309.5,-457.7 10.5,-457.7"/>
<text text-anchor="start" x="15.5" y="-466.8" font-family="Helvetica,sans-Serif" font-weight="bold" font-size="11.00" fill="#000000">SPG_DOCUMENT</text>
<text text-anchor="start" x="276.3895" y="-465.8" font-family="Helvetica,sans-Serif" font-size="11.00" fill="#000000">[view]</text>
<polygon fill="none" stroke="#000000" points="10.5,-435.7 10.5,-457.7 212.5,-457.7 212.5,-435.7 10.5,-435.7"/>
<image xlink:href="../../images/foreignKeys.png" width="11px" height="12px" preserveAspectRatio="xMinYMin meet" x="15.5" y="-452.7"/>
<text text-anchor="start" x="30.5" y="-442.8" font-family="Helvetica,sans-Serif" font-size="11.00" fill="#000000">OFFENDER_ID</text>
<polygon fill="none" stroke="#000000" points="212.5,-435.7 212.5,-457.7 309.5,-457.7 309.5,-435.7 212.5,-435.7"/>
<text text-anchor="start" x="215.5" y="-443.4" font-family="Helvetica,sans-Serif" font-size="11.00" fill="#000000">number[38]</text>
<polygon fill="none" stroke="#000000" points="10.5,-413.7 10.5,-435.7 212.5,-435.7 212.5,-413.7 10.5,-413.7"/>
<text text-anchor="start" x="30.5" y="-420.8" font-family="Helvetica,sans-Serif" font-size="11.00" fill="#000000">CRN</text>
<polygon fill="none" stroke="#000000" points="212.5,-413.7 212.5,-435.7 309.5,-435.7 309.5,-413.7 212.5,-413.7"/>
<text text-anchor="start" x="215.5" y="-421.4" font-family="Helvetica,sans-Serif" font-size="11.00" fill="#000000">char[7]</text>
<polygon fill="none" stroke="#000000" points="10.5,-391.7 10.5,-413.7 212.5,-413.7 212.5,-391.7 10.5,-391.7"/>
<text text-anchor="start" x="30.5" y="-398.8" font-family="Helvetica,sans-Serif" font-size="11.00" fill="#000000">EVENT_ID</text>
<polygon fill="none" stroke="#000000" points="212.5,-391.7 212.5,-413.7 309.5,-413.7 309.5,-391.7 212.5,-391.7"/>
<text text-anchor="start" x="215.5" y="-399.4" font-family="Helvetica,sans-Serif" font-size="11.00" fill="#000000">number[0]</text>
<polygon fill="none" stroke="#000000" points="10.5,-369.7 10.5,-391.7 212.5,-391.7 212.5,-369.7 10.5,-369.7"/>
<text text-anchor="start" x="30.5" y="-376.8" font-family="Helvetica,sans-Serif" font-size="11.00" fill="#000000">CREATED_DATETIME</text>
<polygon fill="none" stroke="#000000" points="212.5,-369.7 212.5,-391.7 309.5,-391.7 309.5,-369.7 212.5,-369.7"/>
<text text-anchor="start" x="215.5" y="-377.4" font-family="Helvetica,sans-Serif" font-size="11.00" fill="#000000">date[7]</text>
<polygon fill="none" stroke="#000000" points="10.5,-347.7 10.5,-369.7 212.5,-369.7 212.5,-347.7 10.5,-347.7"/>
<text text-anchor="start" x="30.5" y="-354.8" font-family="Helvetica,sans-Serif" font-size="11.00" fill="#000000">LAST_UPDATED_USER_ID</text>
<polygon fill="none" stroke="#000000" points="212.5,-347.7 212.5,-369.7 309.5,-369.7 309.5,-347.7 212.5,-347.7"/>
<text text-anchor="start" x="215.5" y="-355.4" font-family="Helvetica,sans-Serif" font-size="11.00" fill="#000000">number[38]</text>
<polygon fill="none" stroke="#000000" points="10.5,-325.7 10.5,-347.7 212.5,-347.7 212.5,-325.7 10.5,-325.7"/>
<text text-anchor="start" x="30.5" y="-332.8" font-family="Helvetica,sans-Serif" font-size="11.00" fill="#000000">CREATED_PROVIDER_ID</text>
<polygon fill="none" stroke="#000000" points="212.5,-325.7 212.5,-347.7 309.5,-347.7 309.5,-325.7 212.5,-325.7"/>
<text text-anchor="start" x="215.5" y="-333.4" font-family="Helvetica,sans-Serif" font-size="11.00" fill="#000000">number[38]</text>
<polygon fill="none" stroke="#000000" points="10.5,-303.7 10.5,-325.7 212.5,-325.7 212.5,-303.7 10.5,-303.7"/>
<text text-anchor="start" x="23.9693" y="-310.8" font-family="Helvetica,sans-Serif" font-size="11.00" fill="#000000">LAST_UPD_AUTHOR_PROVIDER_ID</text>
<polygon fill="none" stroke="#000000" points="212.5,-303.7 212.5,-325.7 309.5,-325.7 309.5,-303.7 212.5,-303.7"/>
<text text-anchor="start" x="215.5" y="-311.4" font-family="Helvetica,sans-Serif" font-size="11.00" fill="#000000">number[38]</text>
<polygon fill="none" stroke="#000000" points="10.5,-281.7 10.5,-303.7 212.5,-303.7 212.5,-281.7 10.5,-281.7"/>
<text text-anchor="start" x="30.5" y="-288.8" font-family="Helvetica,sans-Serif" font-size="11.00" fill="#000000">LAST_SAVED</text>
<polygon fill="none" stroke="#000000" points="212.5,-281.7 212.5,-303.7 309.5,-303.7 309.5,-281.7 212.5,-281.7"/>
<text text-anchor="start" x="215.1614" y="-289.4" font-family="Helvetica,sans-Serif" font-size="11.00" fill="#000000">timestamp(6)[11,6]</text>
<polygon fill="none" stroke="#000000" points="10.5,-259.7 10.5,-281.7 212.5,-281.7 212.5,-259.7 10.5,-259.7"/>
<text text-anchor="start" x="30.5" y="-266.8" font-family="Helvetica,sans-Serif" font-size="11.00" fill="#000000">ENTITY_TYPE</text>
<polygon fill="none" stroke="#000000" points="212.5,-259.7 212.5,-281.7 309.5,-281.7 309.5,-259.7 212.5,-259.7"/>
<text text-anchor="start" x="215.5" y="-267.4" font-family="Helvetica,sans-Serif" font-size="11.00" fill="#000000">varchar2[30]</text>
<polygon fill="none" stroke="#000000" points="10.5,-237.7 10.5,-259.7 212.5,-259.7 212.5,-237.7 10.5,-237.7"/>
<text text-anchor="start" x="30.5" y="-244.8" font-family="Helvetica,sans-Serif" font-size="11.00" fill="#000000">TABLE_NAME</text>
<polygon fill="none" stroke="#000000" points="212.5,-237.7 212.5,-259.7 309.5,-259.7 309.5,-237.7 212.5,-237.7"/>
<text text-anchor="start" x="215.5" y="-245.4" font-family="Helvetica,sans-Serif" font-size="11.00" fill="#000000">varchar2[30]</text>
<polygon fill="none" stroke="#000000" points="10.5,-215.7 10.5,-237.7 212.5,-237.7 212.5,-215.7 10.5,-215.7"/>
<text text-anchor="start" x="30.5" y="-222.8" font-family="Helvetica,sans-Serif" font-size="11.00" fill="#000000">ENTITY_ID</text>
<polygon fill="none" stroke="#000000" points="212.5,-215.7 212.5,-237.7 309.5,-237.7 309.5,-215.7 212.5,-215.7"/>
<text text-anchor="start" x="215.5" y="-223.4" font-family="Helvetica,sans-Serif" font-size="11.00" fill="#000000">number[38]</text>
<polygon fill="none" stroke="#000000" points="10.5,-193.7 10.5,-215.7 212.5,-215.7 212.5,-193.7 10.5,-193.7"/>
<text text-anchor="start" x="30.5" y="-200.8" font-family="Helvetica,sans-Serif" font-size="11.00" fill="#000000">DOCUMENT_TYPE</text>
<polygon fill="none" stroke="#000000" points="212.5,-193.7 212.5,-215.7 309.5,-215.7 309.5,-193.7 212.5,-193.7"/>
<text text-anchor="start" x="215.5" y="-201.4" font-family="Helvetica,sans-Serif" font-size="11.00" fill="#000000">varchar2[19]</text>
<polygon fill="none" stroke="#000000" points="10.5,-171.7 10.5,-193.7 212.5,-193.7 212.5,-171.7 10.5,-171.7"/>
<text text-anchor="start" x="30.5" y="-178.8" font-family="Helvetica,sans-Serif" font-size="11.00" fill="#000000">FILE_NAME</text>
<polygon fill="none" stroke="#000000" points="212.5,-171.7 212.5,-193.7 309.5,-193.7 309.5,-171.7 212.5,-171.7"/>
<text text-anchor="start" x="215.5" y="-179.4" font-family="Helvetica,sans-Serif" font-size="11.00" fill="#000000">varchar2[200]</text>
<polygon fill="none" stroke="#000000" points="10.5,-149.7 10.5,-171.7 212.5,-171.7 212.5,-149.7 10.5,-149.7"/>
<image xlink:href="../../images/foreignKeys.png" width="11px" height="12px" preserveAspectRatio="xMinYMin meet" x="15.5" y="-166.7"/>
<text text-anchor="start" x="30.5" y="-156.8" font-family="Helvetica,sans-Serif" font-size="11.00" fill="#000000">SOURCE_TABLE_KEY</text>
<polygon fill="none" stroke="#000000" points="212.5,-149.7 212.5,-171.7 309.5,-171.7 309.5,-149.7 212.5,-149.7"/>
<text text-anchor="start" x="215.5" y="-157.4" font-family="Helvetica,sans-Serif" font-size="11.00" fill="#000000">number[38]</text>
<polygon fill="none" stroke="#000000" points="10.5,-127.7 10.5,-149.7 212.5,-149.7 212.5,-127.7 10.5,-127.7"/>
<text text-anchor="start" x="30.5" y="-134.8" font-family="Helvetica,sans-Serif" font-size="11.00" fill="#000000">LOCKED</text>
<polygon fill="none" stroke="#000000" points="212.5,-127.7 212.5,-149.7 309.5,-149.7 309.5,-127.7 212.5,-127.7"/>
<text text-anchor="start" x="215.5" y="-135.4" font-family="Helvetica,sans-Serif" font-size="11.00" fill="#000000">char[1]</text>
<polygon fill="none" stroke="#000000" points="10.5,-105.7 10.5,-127.7 212.5,-127.7 212.5,-105.7 10.5,-105.7"/>
<text text-anchor="start" x="30.5" y="-112.8" font-family="Helvetica,sans-Serif" font-size="11.00" fill="#000000">RESERVED</text>
<polygon fill="none" stroke="#000000" points="212.5,-105.7 212.5,-127.7 309.5,-127.7 309.5,-105.7 212.5,-105.7"/>
<text text-anchor="start" x="215.5" y="-113.4" font-family="Helvetica,sans-Serif" font-size="11.00" fill="#000000">char[1]</text>
<polygon fill="none" stroke="#000000" points="10.5,-83.7 10.5,-105.7 212.5,-105.7 212.5,-83.7 10.5,-83.7"/>
<text text-anchor="start" x="30.5" y="-90.8" font-family="Helvetica,sans-Serif" font-size="11.00" fill="#000000">DELETED</text>
<polygon fill="none" stroke="#000000" points="212.5,-83.7 212.5,-105.7 309.5,-105.7 309.5,-83.7 212.5,-83.7"/>
<text text-anchor="start" x="215.5" y="-91.4" font-family="Helvetica,sans-Serif" font-size="11.00" fill="#000000">char[1]</text>
<polygon fill="none" stroke="#000000" points="10.5,-61.7 10.5,-83.7 212.5,-83.7 212.5,-61.7 10.5,-61.7"/>
<text text-anchor="start" x="30.5" y="-68.8" font-family="Helvetica,sans-Serif" font-size="11.00" fill="#000000">SOFT_DELETED</text>
<polygon fill="none" stroke="#000000" points="212.5,-61.7 212.5,-83.7 309.5,-83.7 309.5,-61.7 212.5,-61.7"/>
<text text-anchor="start" x="215.5" y="-69.4" font-family="Helvetica,sans-Serif" font-size="11.00" fill="#000000">varchar2[4000]</text>
<polygon fill="none" stroke="#000000" points="10.5,-39.7 10.5,-61.7 212.5,-61.7 212.5,-39.7 10.5,-39.7"/>
<text text-anchor="start" x="30.5" y="-46.8" font-family="Helvetica,sans-Serif" font-size="11.00" fill="#000000">ALFRESCO_DOCUMENT_ID</text>
<polygon fill="none" stroke="#000000" points="212.5,-39.7 212.5,-61.7 309.5,-61.7 309.5,-39.7 212.5,-39.7"/>
<text text-anchor="start" x="215.5" y="-47.4" font-family="Helvetica,sans-Serif" font-size="11.00" fill="#000000">varchar2[36]</text>
<polygon fill="none" stroke="#000000" stroke-width="2" points="9,-39.2 9,-482.2 310,-482.2 310,-39.2 9,-39.2"/>
</a>
</g>
</g>
</g>
</svg>
