<?xml version="1.0" encoding="UTF-8" standalone="no"?>
<!DOCTYPE svg PUBLIC "-//W3C//DTD SVG 1.1//EN"
 "http://www.w3.org/Graphics/SVG/1.1/DTD/svg11.dtd">
<!-- Generated by graphviz version 2.40.1 (20161225.0304)
 -->
<!-- Title: oneDegreeRelationshipsDiagramImplied Pages: 1 -->
<svg width="552pt" height="495pt"
 viewBox="0.00 0.00 552.00 495.20" xmlns="http://www.w3.org/2000/svg" xmlns:xlink="http://www.w3.org/1999/xlink">
<g id="graph0" class="graph" transform="scale(1 1) rotate(0) translate(4 491.2)">
<title>oneDegreeRelationshipsDiagramImplied</title>
<polygon fill="#ffffff" stroke="transparent" points="-4,4 -4,-491.2 548,-491.2 548,4 -4,4"/>
<text text-anchor="middle" x="72.4936" y="-7.3" font-family="Helvetica,sans-Serif" font-size="11.00" fill="#000000">Generated by SchemaSpy</text>
<!-- SPG_DOCUMENT -->
<g id="node1" class="node">
<title>SPG_DOCUMENT</title>
<g id="a_node1"><a xlink:href="../../tables/SPG_DOCUMENT.html" xlink:title="SPG_DOCUMENT" target="_top">
<polygon fill="#ffffff" stroke="transparent" points="233,-38.2 233,-483.2 536,-483.2 536,-38.2 233,-38.2"/>
<polygon fill="#f5f5f5" stroke="transparent" points="235.5,-457.7 235.5,-480.7 534.5,-480.7 534.5,-457.7 235.5,-457.7"/>
<polygon fill="none" stroke="#000000" points="235.5,-457.7 235.5,-480.7 534.5,-480.7 534.5,-457.7 235.5,-457.7"/>
<text text-anchor="start" x="240.5" y="-466.8" font-family="Helvetica,sans-Serif" font-weight="bold" font-size="11.00" fill="#000000">SPG_DOCUMENT</text>
<text text-anchor="start" x="501.3895" y="-465.8" font-family="Helvetica,sans-Serif" font-size="11.00" fill="#000000">[view]</text>
<polygon fill="none" stroke="#000000" points="235.5,-435.7 235.5,-457.7 437.5,-457.7 437.5,-435.7 235.5,-435.7"/>
<image xlink:href="../../images/foreignKeys.png" width="11px" height="12px" preserveAspectRatio="xMinYMin meet" x="240.5" y="-452.7"/>
<text text-anchor="start" x="255.5" y="-442.8" font-family="Helvetica,sans-Serif" font-size="11.00" fill="#000000">OFFENDER_ID</text>
<polygon fill="none" stroke="#000000" points="437.5,-435.7 437.5,-457.7 534.5,-457.7 534.5,-435.7 437.5,-435.7"/>
<text text-anchor="start" x="440.5" y="-443.4" font-family="Helvetica,sans-Serif" font-size="11.00" fill="#000000">number[38]</text>
<polygon fill="none" stroke="#000000" points="235.5,-413.7 235.5,-435.7 437.5,-435.7 437.5,-413.7 235.5,-413.7"/>
<text text-anchor="start" x="255.5" y="-420.8" font-family="Helvetica,sans-Serif" font-size="11.00" fill="#000000">CRN</text>
<polygon fill="none" stroke="#000000" points="437.5,-413.7 437.5,-435.7 534.5,-435.7 534.5,-413.7 437.5,-413.7"/>
<text text-anchor="start" x="440.5" y="-421.4" font-family="Helvetica,sans-Serif" font-size="11.00" fill="#000000">char[7]</text>
<polygon fill="none" stroke="#000000" points="235.5,-391.7 235.5,-413.7 437.5,-413.7 437.5,-391.7 235.5,-391.7"/>
<text text-anchor="start" x="255.5" y="-398.8" font-family="Helvetica,sans-Serif" font-size="11.00" fill="#000000">EVENT_ID</text>
<polygon fill="none" stroke="#000000" points="437.5,-391.7 437.5,-413.7 534.5,-413.7 534.5,-391.7 437.5,-391.7"/>
<text text-anchor="start" x="440.5" y="-399.4" font-family="Helvetica,sans-Serif" font-size="11.00" fill="#000000">number[0]</text>
<polygon fill="none" stroke="#000000" points="235.5,-369.7 235.5,-391.7 437.5,-391.7 437.5,-369.7 235.5,-369.7"/>
<text text-anchor="start" x="255.5" y="-376.8" font-family="Helvetica,sans-Serif" font-size="11.00" fill="#000000">CREATED_DATETIME</text>
<polygon fill="none" stroke="#000000" points="437.5,-369.7 437.5,-391.7 534.5,-391.7 534.5,-369.7 437.5,-369.7"/>
<text text-anchor="start" x="440.5" y="-377.4" font-family="Helvetica,sans-Serif" font-size="11.00" fill="#000000">date[7]</text>
<polygon fill="none" stroke="#000000" points="235.5,-347.7 235.5,-369.7 437.5,-369.7 437.5,-347.7 235.5,-347.7"/>
<text text-anchor="start" x="255.5" y="-354.8" font-family="Helvetica,sans-Serif" font-size="11.00" fill="#000000">LAST_UPDATED_USER_ID</text>
<polygon fill="none" stroke="#000000" points="437.5,-347.7 437.5,-369.7 534.5,-369.7 534.5,-347.7 437.5,-347.7"/>
<text text-anchor="start" x="440.5" y="-355.4" font-family="Helvetica,sans-Serif" font-size="11.00" fill="#000000">number[38]</text>
<polygon fill="none" stroke="#000000" points="235.5,-325.7 235.5,-347.7 437.5,-347.7 437.5,-325.7 235.5,-325.7"/>
<text text-anchor="start" x="255.5" y="-332.8" font-family="Helvetica,sans-Serif" font-size="11.00" fill="#000000">CREATED_PROVIDER_ID</text>
<polygon fill="none" stroke="#000000" points="437.5,-325.7 437.5,-347.7 534.5,-347.7 534.5,-325.7 437.5,-325.7"/>
<text text-anchor="start" x="440.5" y="-333.4" font-family="Helvetica,sans-Serif" font-size="11.00" fill="#000000">number[38]</text>
<polygon fill="none" stroke="#000000" points="235.5,-303.7 235.5,-325.7 437.5,-325.7 437.5,-303.7 235.5,-303.7"/>
<text text-anchor="start" x="248.9694" y="-310.8" font-family="Helvetica,sans-Serif" font-size="11.00" fill="#000000">LAST_UPD_AUTHOR_PROVIDER_ID</text>
<polygon fill="none" stroke="#000000" points="437.5,-303.7 437.5,-325.7 534.5,-325.7 534.5,-303.7 437.5,-303.7"/>
<text text-anchor="start" x="440.5" y="-311.4" font-family="Helvetica,sans-Serif" font-size="11.00" fill="#000000">number[38]</text>
<polygon fill="none" stroke="#000000" points="235.5,-281.7 235.5,-303.7 437.5,-303.7 437.5,-281.7 235.5,-281.7"/>
<text text-anchor="start" x="255.5" y="-288.8" font-family="Helvetica,sans-Serif" font-size="11.00" fill="#000000">LAST_SAVED</text>
<polygon fill="none" stroke="#000000" points="437.5,-281.7 437.5,-303.7 534.5,-303.7 534.5,-281.7 437.5,-281.7"/>
<text text-anchor="start" x="440.1614" y="-289.4" font-family="Helvetica,sans-Serif" font-size="11.00" fill="#000000">timestamp(6)[11,6]</text>
<polygon fill="none" stroke="#000000" points="235.5,-259.7 235.5,-281.7 437.5,-281.7 437.5,-259.7 235.5,-259.7"/>
<text text-anchor="start" x="255.5" y="-266.8" font-family="Helvetica,sans-Serif" font-size="11.00" fill="#000000">ENTITY_TYPE</text>
<polygon fill="none" stroke="#000000" points="437.5,-259.7 437.5,-281.7 534.5,-281.7 534.5,-259.7 437.5,-259.7"/>
<text text-anchor="start" x="440.5" y="-267.4" font-family="Helvetica,sans-Serif" font-size="11.00" fill="#000000">varchar2[30]</text>
<polygon fill="none" stroke="#000000" points="235.5,-237.7 235.5,-259.7 437.5,-259.7 437.5,-237.7 235.5,-237.7"/>
<text text-anchor="start" x="255.5" y="-244.8" font-family="Helvetica,sans-Serif" font-size="11.00" fill="#000000">TABLE_NAME</text>
<polygon fill="none" stroke="#000000" points="437.5,-237.7 437.5,-259.7 534.5,-259.7 534.5,-237.7 437.5,-237.7"/>
<text text-anchor="start" x="440.5" y="-245.4" font-family="Helvetica,sans-Serif" font-size="11.00" fill="#000000">varchar2[30]</text>
<polygon fill="none" stroke="#000000" points="235.5,-215.7 235.5,-237.7 437.5,-237.7 437.5,-215.7 235.5,-215.7"/>
<text text-anchor="start" x="255.5" y="-222.8" font-family="Helvetica,sans-Serif" font-size="11.00" fill="#000000">ENTITY_ID</text>
<polygon fill="none" stroke="#000000" points="437.5,-215.7 437.5,-237.7 534.5,-237.7 534.5,-215.7 437.5,-215.7"/>
<text text-anchor="start" x="440.5" y="-223.4" font-family="Helvetica,sans-Serif" font-size="11.00" fill="#000000">number[38]</text>
<polygon fill="none" stroke="#000000" points="235.5,-193.7 235.5,-215.7 437.5,-215.7 437.5,-193.7 235.5,-193.7"/>
<text text-anchor="start" x="255.5" y="-200.8" font-family="Helvetica,sans-Serif" font-size="11.00" fill="#000000">DOCUMENT_TYPE</text>
<polygon fill="none" stroke="#000000" points="437.5,-193.7 437.5,-215.7 534.5,-215.7 534.5,-193.7 437.5,-193.7"/>
<text text-anchor="start" x="440.5" y="-201.4" font-family="Helvetica,sans-Serif" font-size="11.00" fill="#000000">varchar2[19]</text>
<polygon fill="none" stroke="#000000" points="235.5,-171.7 235.5,-193.7 437.5,-193.7 437.5,-171.7 235.5,-171.7"/>
<text text-anchor="start" x="255.5" y="-178.8" font-family="Helvetica,sans-Serif" font-size="11.00" fill="#000000">FILE_NAME</text>
<polygon fill="none" stroke="#000000" points="437.5,-171.7 437.5,-193.7 534.5,-193.7 534.5,-171.7 437.5,-171.7"/>
<text text-anchor="start" x="440.5" y="-179.4" font-family="Helvetica,sans-Serif" font-size="11.00" fill="#000000">varchar2[200]</text>
<polygon fill="none" stroke="#000000" points="235.5,-149.7 235.5,-171.7 437.5,-171.7 437.5,-149.7 235.5,-149.7"/>
<image xlink:href="../../images/foreignKeys.png" width="11px" height="12px" preserveAspectRatio="xMinYMin meet" x="240.5" y="-166.7"/>
<text text-anchor="start" x="255.5" y="-156.8" font-family="Helvetica,sans-Serif" font-size="11.00" fill="#000000">SOURCE_TABLE_KEY</text>
<polygon fill="none" stroke="#000000" points="437.5,-149.7 437.5,-171.7 534.5,-171.7 534.5,-149.7 437.5,-149.7"/>
<text text-anchor="start" x="440.5" y="-157.4" font-family="Helvetica,sans-Serif" font-size="11.00" fill="#000000">number[38]</text>
<polygon fill="none" stroke="#000000" points="235.5,-127.7 235.5,-149.7 437.5,-149.7 437.5,-127.7 235.5,-127.7"/>
<text text-anchor="start" x="255.5" y="-134.8" font-family="Helvetica,sans-Serif" font-size="11.00" fill="#000000">LOCKED</text>
<polygon fill="none" stroke="#000000" points="437.5,-127.7 437.5,-149.7 534.5,-149.7 534.5,-127.7 437.5,-127.7"/>
<text text-anchor="start" x="440.5" y="-135.4" font-family="Helvetica,sans-Serif" font-size="11.00" fill="#000000">char[1]</text>
<polygon fill="none" stroke="#000000" points="235.5,-105.7 235.5,-127.7 437.5,-127.7 437.5,-105.7 235.5,-105.7"/>
<text text-anchor="start" x="255.5" y="-112.8" font-family="Helvetica,sans-Serif" font-size="11.00" fill="#000000">RESERVED</text>
<polygon fill="none" stroke="#000000" points="437.5,-105.7 437.5,-127.7 534.5,-127.7 534.5,-105.7 437.5,-105.7"/>
<text text-anchor="start" x="440.5" y="-113.4" font-family="Helvetica,sans-Serif" font-size="11.00" fill="#000000">char[1]</text>
<polygon fill="none" stroke="#000000" points="235.5,-83.7 235.5,-105.7 437.5,-105.7 437.5,-83.7 235.5,-83.7"/>
<text text-anchor="start" x="255.5" y="-90.8" font-family="Helvetica,sans-Serif" font-size="11.00" fill="#000000">DELETED</text>
<polygon fill="none" stroke="#000000" points="437.5,-83.7 437.5,-105.7 534.5,-105.7 534.5,-83.7 437.5,-83.7"/>
<text text-anchor="start" x="440.5" y="-91.4" font-family="Helvetica,sans-Serif" font-size="11.00" fill="#000000">char[1]</text>
<polygon fill="none" stroke="#000000" points="235.5,-61.7 235.5,-83.7 437.5,-83.7 437.5,-61.7 235.5,-61.7"/>
<text text-anchor="start" x="255.5" y="-68.8" font-family="Helvetica,sans-Serif" font-size="11.00" fill="#000000">SOFT_DELETED</text>
<polygon fill="none" stroke="#000000" points="437.5,-61.7 437.5,-83.7 534.5,-83.7 534.5,-61.7 437.5,-61.7"/>
<text text-anchor="start" x="440.5" y="-69.4" font-family="Helvetica,sans-Serif" font-size="11.00" fill="#000000">varchar2[4000]</text>
<polygon fill="none" stroke="#000000" points="235.5,-39.7 235.5,-61.7 437.5,-61.7 437.5,-39.7 235.5,-39.7"/>
<text text-anchor="start" x="255.5" y="-46.8" font-family="Helvetica,sans-Serif" font-size="11.00" fill="#000000">ALFRESCO_DOCUMENT_ID</text>
<polygon fill="none" stroke="#000000" points="437.5,-39.7 437.5,-61.7 534.5,-61.7 534.5,-39.7 437.5,-39.7"/>
<text text-anchor="start" x="440.5" y="-47.4" font-family="Helvetica,sans-Serif" font-size="11.00" fill="#000000">varchar2[36]</text>
<polygon fill="none" stroke="#000000" stroke-width="2" points="234,-39.2 234,-482.2 535,-482.2 535,-39.2 234,-39.2"/>
</a>
</g>
</g>
<!-- IAPS_OFFENDER -->
<g id="node2" class="node">
<title>IAPS_OFFENDER</title>
<g id="a_node2"><a xlink:href="../../tables/IAPS_OFFENDER.html" xlink:title="IAPS_OFFENDER" target="_top">
<polygon fill="#ffffff" stroke="transparent" points="25,-398.2 25,-481.2 167,-481.2 167,-398.2 25,-398.2"/>
<polygon fill="#f5f5f5" stroke="transparent" points="25,-457.7 25,-480.7 167,-480.7 167,-457.7 25,-457.7"/>
<polygon fill="none" stroke="#000000" points="25,-457.7 25,-480.7 167,-480.7 167,-457.7 25,-457.7"/>
<text text-anchor="start" x="30" y="-466.8" font-family="Helvetica,sans-Serif" font-weight="bold" font-size="11.00" fill="#000000">IAPS_OFFENDER</text>
<text text-anchor="start" x="132.0437" y="-465.8" font-family="Helvetica,sans-Serif" font-size="11.00" fill="#000000">[table]</text>
<polygon fill="none" stroke="#000000" points="25,-435.7 25,-457.7 167,-457.7 167,-435.7 25,-435.7"/>
<image xlink:href="../../images/primaryKeys.png" width="11px" height="12px" preserveAspectRatio="xMinYMin meet" x="30" y="-452.7"/>
<text text-anchor="start" x="45" y="-442.8" font-family="Helvetica,sans-Serif" font-size="11.00" fill="#000000">OFFENDER_ID</text>
<polygon fill="none" stroke="#000000" points="25,-416.7 25,-435.7 167,-435.7 167,-416.7 25,-416.7"/>
<text text-anchor="start" x="28" y="-422.8" font-family="Helvetica,sans-Serif" font-size="11.00" fill="#000000">...</text>
<polygon fill="#ffffff" stroke="transparent" points="25,-397.7 25,-416.7 66,-416.7 66,-397.7 25,-397.7"/>
<polygon fill="none" stroke="#000000" points="25,-397.7 25,-416.7 66,-416.7 66,-397.7 25,-397.7"/>
<text text-anchor="start" x="28" y="-403.8" font-family="Helvetica,sans-Serif" font-size="11.00" fill="#000000"> &#160;</text>
<polygon fill="#ffffff" stroke="transparent" points="66,-397.7 66,-416.7 131,-416.7 131,-397.7 66,-397.7"/>
<polygon fill="none" stroke="#000000" points="66,-397.7 66,-416.7 131,-416.7 131,-397.7 66,-397.7"/>
<text text-anchor="start" x="83.3807" y="-403.8" font-family="Helvetica,sans-Serif" font-size="11.00" fill="#000000">388 rows</text>
<polygon fill="#ffffff" stroke="transparent" points="131,-397.7 131,-416.7 167,-416.7 167,-397.7 131,-397.7"/>
<polygon fill="none" stroke="#000000" points="131,-397.7 131,-416.7 167,-416.7 167,-397.7 131,-397.7"/>
<text text-anchor="start" x="148.4053" y="-403.8" font-family="Helvetica,sans-Serif" font-size="11.00" fill="#000000">4 &gt;</text>
</a>
</g>
</g>
<!-- SPG_DOCUMENT&#45;&gt;IAPS_OFFENDER -->
<g id="edge1" class="edge">
<title>SPG_DOCUMENT:w&#45;&gt;IAPS_OFFENDER:e</title>
<path fill="none" stroke="#000000" stroke-dasharray="5,2" d="M221.0353,-446.7C201.5831,-446.7 191.974,-446.7 167,-446.7"/>
<polygon fill="#000000" stroke="#000000" points="227.5,-446.7001 235.5,-450.3 231.5,-446.7 235.5,-446.7 235.5,-446.7 235.5,-446.7 231.5,-446.7 235.5,-443.1 227.5,-446.7001 227.5,-446.7001"/>
<ellipse fill="none" stroke="#000000" cx="224.3" cy="-446.7001" rx="3.2" ry="3.2"/>
</g>
<!-- CHANGE_CAPTURE_KEY -->
<g id="node3" class="node">
<title>CHANGE_CAPTURE_KEY</title>
<g id="a_node3"><a xlink:href="../../tables/CHANGE_CAPTURE_KEY.html" xlink:title="CHANGE_CAPTURE_KEY" target="_top">
<polygon fill="#ffffff" stroke="transparent" points="8,-112.2 8,-195.2 184,-195.2 184,-112.2 8,-112.2"/>
<polygon fill="#f5f5f5" stroke="transparent" points="8,-171.7 8,-194.7 184,-194.7 184,-171.7 8,-171.7"/>
<polygon fill="none" stroke="#000000" points="8,-171.7 8,-194.7 184,-194.7 184,-171.7 8,-171.7"/>
<text text-anchor="start" x="12.5804" y="-180.8" font-family="Helvetica,sans-Serif" font-weight="bold" font-size="11.00" fill="#000000">CHANGE_CAPTURE_KEY</text>
<text text-anchor="start" x="149.5219" y="-179.8" font-family="Helvetica,sans-Serif" font-size="11.00" fill="#000000">[table]</text>
<polygon fill="none" stroke="#000000" points="8,-149.7 8,-171.7 184,-171.7 184,-149.7 8,-149.7"/>
<image xlink:href="../../images/primaryKeys.png" width="11px" height="12px" preserveAspectRatio="xMinYMin meet" x="13" y="-166.7"/>
<text text-anchor="start" x="43" y="-156.8" font-family="Helvetica,sans-Serif" font-size="11.00" fill="#000000">KEY</text>
<polygon fill="none" stroke="#000000" points="8,-130.7 8,-149.7 184,-149.7 184,-130.7 8,-130.7"/>
<text text-anchor="start" x="11" y="-136.8" font-family="Helvetica,sans-Serif" font-size="11.00" fill="#000000">...</text>
<polygon fill="#ffffff" stroke="transparent" points="8,-111.7 8,-130.7 72,-130.7 72,-111.7 8,-111.7"/>
<polygon fill="none" stroke="#000000" points="8,-111.7 8,-130.7 72,-130.7 72,-111.7 8,-111.7"/>
<text text-anchor="start" x="11" y="-117.8" font-family="Helvetica,sans-Serif" font-size="11.00" fill="#000000"> &#160;</text>
<polygon fill="#ffffff" stroke="transparent" points="72,-111.7 72,-130.7 136,-130.7 136,-111.7 72,-111.7"/>
<polygon fill="none" stroke="#000000" points="72,-111.7 72,-130.7 136,-130.7 136,-111.7 72,-111.7"/>
<text text-anchor="start" x="100.6105" y="-117.8" font-family="Helvetica,sans-Serif" font-size="11.00" fill="#000000">0 rows</text>
<polygon fill="#ffffff" stroke="transparent" points="136,-111.7 136,-130.7 184,-130.7 184,-111.7 136,-111.7"/>
<polygon fill="none" stroke="#000000" points="136,-111.7 136,-130.7 184,-130.7 184,-111.7 136,-111.7"/>
<text text-anchor="start" x="165.4053" y="-117.8" font-family="Helvetica,sans-Serif" font-size="11.00" fill="#000000">1 &gt;</text>
</a>
</g>
</g>
<!-- SPG_DOCUMENT&#45;&gt;CHANGE_CAPTURE_KEY -->
<g id="edge2" class="edge">
<title>SPG_DOCUMENT:w&#45;&gt;CHANGE_CAPTURE_KEY:e</title>
<path fill="none" stroke="#000000" stroke-dasharray="5,2" d="M221.0156,-160.7C208.6771,-160.7 201.1667,-160.7 184,-160.7"/>
<polygon fill="#000000" stroke="#000000" points="227.5,-160.7001 235.5,-164.3 231.5,-160.7 235.5,-160.7 235.5,-160.7 235.5,-160.7 231.5,-160.7 235.5,-157.1 227.5,-160.7001 227.5,-160.7001"/>
<ellipse fill="none" stroke="#000000" cx="224.3" cy="-160.7001" rx="3.2" ry="3.2"/>
</g>
</g>
</svg>
