<?xml version="1.0" encoding="UTF-8" standalone="no"?>
<!DOCTYPE svg PUBLIC "-//W3C//DTD SVG 1.1//EN"
 "http://www.w3.org/Graphics/SVG/1.1/DTD/svg11.dtd">
<!-- Generated by graphviz version 2.40.1 (20161225.0304)
 -->
<!-- Title: oneDegreeRelationshipsDiagramImplied Pages: 1 -->
<svg width="442pt" height="359pt"
 viewBox="0.00 0.00 442.00 358.70" xmlns="http://www.w3.org/2000/svg" xmlns:xlink="http://www.w3.org/1999/xlink">
<g id="graph0" class="graph" transform="scale(1 1) rotate(0) translate(4 354.7)">
<title>oneDegreeRelationshipsDiagramImplied</title>
<polygon fill="#ffffff" stroke="transparent" points="-4,4 -4,-354.7 438,-354.7 438,4 -4,4"/>
<text text-anchor="middle" x="72.4936" y="-7.3" font-family="Helvetica,sans-Serif" font-size="11.00" fill="#000000">Generated by SchemaSpy</text>
<!-- SPG_MESSAGE_LOG -->
<g id="node1" class="node">
<title>SPG_MESSAGE_LOG</title>
<g id="a_node1"><a xlink:href="../../tables/SPG_MESSAGE_LOG.html" xlink:title="SPG_MESSAGE_LOG" target="_top">
<polygon fill="#ffffff" stroke="transparent" points="270,-241.7 270,-346.7 426,-346.7 426,-241.7 270,-241.7"/>
<polygon fill="#f5f5f5" stroke="transparent" points="270,-323.2 270,-346.2 426,-346.2 426,-323.2 270,-323.2"/>
<polygon fill="none" stroke="#000000" points="270,-323.2 270,-346.2 426,-346.2 426,-323.2 270,-323.2"/>
<text text-anchor="start" x="274.9573" y="-332.3" font-family="Helvetica,sans-Serif" font-weight="bold" font-size="11.00" fill="#000000">SPG_MESSAGE_LOG</text>
<text text-anchor="start" x="391.5219" y="-331.3" font-family="Helvetica,sans-Serif" font-size="11.00" fill="#000000">[table]</text>
<polygon fill="none" stroke="#000000" points="270,-301.2 270,-323.2 426,-323.2 426,-301.2 270,-301.2"/>
<image xlink:href="../../images/primaryKeys.png" width="11px" height="12px" preserveAspectRatio="xMinYMin meet" x="275" y="-318.2"/>
<text text-anchor="start" x="290.4009" y="-308.3" font-family="Helvetica,sans-Serif" font-size="11.00" fill="#000000">SPG_MESSAGE_LOG_ID</text>
<polygon fill="none" stroke="#000000" points="270,-279.2 270,-301.2 426,-301.2 426,-279.2 270,-279.2"/>
<image xlink:href="../../images/foreignKeys.png" width="11px" height="12px" preserveAspectRatio="xMinYMin meet" x="275" y="-296.2"/>
<text text-anchor="start" x="295" y="-286.3" font-family="Helvetica,sans-Serif" font-size="11.00" fill="#000000">SPG_ERROR_LOG_ID</text>
<polygon fill="none" stroke="#000000" points="270,-260.2 270,-279.2 426,-279.2 426,-260.2 270,-260.2"/>
<text text-anchor="start" x="273" y="-266.3" font-family="Helvetica,sans-Serif" font-size="11.00" fill="#000000">...</text>
<polygon fill="#ffffff" stroke="transparent" points="270,-241.2 270,-260.2 309,-260.2 309,-241.2 270,-241.2"/>
<polygon fill="none" stroke="#000000" points="270,-241.2 270,-260.2 309,-260.2 309,-241.2 270,-241.2"/>
<text text-anchor="start" x="273" y="-247.3" font-family="Helvetica,sans-Serif" font-size="11.00" fill="#000000">&lt; 1</text>
<polygon fill="#ffffff" stroke="transparent" points="309,-241.2 309,-260.2 405,-260.2 405,-241.2 309,-241.2"/>
<polygon fill="none" stroke="#000000" points="309,-241.2 309,-260.2 405,-260.2 405,-241.2 309,-241.2"/>
<text text-anchor="start" x="320.6924" y="-247.3" font-family="Helvetica,sans-Serif" font-size="11.00" fill="#000000">92,042,847 rows</text>
<polygon fill="#ffffff" stroke="transparent" points="405,-241.2 405,-260.2 426,-260.2 426,-241.2 405,-241.2"/>
<polygon fill="none" stroke="#000000" points="405,-241.2 405,-260.2 426,-260.2 426,-241.2 405,-241.2"/>
<text text-anchor="start" x="416.8862" y="-247.3" font-family="Helvetica,sans-Serif" font-size="11.00" fill="#000000"> &#160;</text>
</a>
</g>
</g>
<!-- SPG_ERROR_LOG -->
<g id="node2" class="node">
<title>SPG_ERROR_LOG</title>
<g id="a_node2"><a xlink:href="../../tables/SPG_ERROR_LOG.html" xlink:title="SPG_ERROR_LOG" target="_top">
<polygon fill="#ffffff" stroke="transparent" points="8,-38.2 8,-326.2 221,-326.2 221,-38.2 8,-38.2"/>
<polygon fill="#f5f5f5" stroke="transparent" points="10.5,-301.2 10.5,-324.2 219.5,-324.2 219.5,-301.2 10.5,-301.2"/>
<polygon fill="none" stroke="#000000" points="10.5,-301.2 10.5,-324.2 219.5,-324.2 219.5,-301.2 10.5,-301.2"/>
<text text-anchor="start" x="15.5" y="-310.3" font-family="Helvetica,sans-Serif" font-weight="bold" font-size="11.00" fill="#000000">SPG_ERROR_LOG</text>
<text text-anchor="start" x="184.5437" y="-309.3" font-family="Helvetica,sans-Serif" font-size="11.00" fill="#000000">[table]</text>
<polygon fill="none" stroke="#000000" points="10.5,-279.2 10.5,-301.2 140.5,-301.2 140.5,-279.2 10.5,-279.2"/>
<image xlink:href="../../images/primaryKeys.png" width="11px" height="12px" preserveAspectRatio="xMinYMin meet" x="15.5" y="-296.2"/>
<text text-anchor="start" x="25.2423" y="-286.3" font-family="Helvetica,sans-Serif" font-size="11.00" fill="#000000">SPG_ERROR_LOG_ID</text>
<polygon fill="none" stroke="#000000" points="140.5,-279.2 140.5,-301.2 219.5,-301.2 219.5,-279.2 140.5,-279.2"/>
<text text-anchor="start" x="143.5" y="-286.9" font-family="Helvetica,sans-Serif" font-size="11.00" fill="#000000">number[38]</text>
<polygon fill="none" stroke="#000000" points="10.5,-257.2 10.5,-279.2 140.5,-279.2 140.5,-257.2 10.5,-257.2"/>
<text text-anchor="start" x="30.5" y="-264.3" font-family="Helvetica,sans-Serif" font-size="11.00" fill="#000000">ERROR_CODE</text>
<polygon fill="none" stroke="#000000" points="140.5,-257.2 140.5,-279.2 219.5,-279.2 219.5,-257.2 140.5,-257.2"/>
<text text-anchor="start" x="143.5" y="-264.9" font-family="Helvetica,sans-Serif" font-size="11.00" fill="#000000">number[38]</text>
<polygon fill="none" stroke="#000000" points="10.5,-235.2 10.5,-257.2 140.5,-257.2 140.5,-235.2 10.5,-235.2"/>
<text text-anchor="start" x="30.5" y="-242.3" font-family="Helvetica,sans-Serif" font-size="11.00" fill="#000000">ERROR_MESSAGE</text>
<polygon fill="none" stroke="#000000" points="140.5,-235.2 140.5,-257.2 219.5,-257.2 219.5,-235.2 140.5,-235.2"/>
<text text-anchor="start" x="143.3216" y="-242.9" font-family="Helvetica,sans-Serif" font-size="11.00" fill="#000000">varchar2[4000]</text>
<polygon fill="none" stroke="#000000" points="10.5,-213.2 10.5,-235.2 140.5,-235.2 140.5,-213.2 10.5,-213.2"/>
<text text-anchor="start" x="30.5" y="-220.3" font-family="Helvetica,sans-Serif" font-size="11.00" fill="#000000">BACKTRACE</text>
<polygon fill="none" stroke="#000000" points="140.5,-213.2 140.5,-235.2 219.5,-235.2 219.5,-213.2 140.5,-213.2"/>
<text text-anchor="start" x="143.5" y="-220.9" font-family="Helvetica,sans-Serif" font-size="11.00" fill="#000000">clob[4000]</text>
<polygon fill="none" stroke="#000000" points="10.5,-191.2 10.5,-213.2 140.5,-213.2 140.5,-191.2 10.5,-191.2"/>
<text text-anchor="start" x="30.5" y="-198.3" font-family="Helvetica,sans-Serif" font-size="11.00" fill="#000000">CALLSTACK</text>
<polygon fill="none" stroke="#000000" points="140.5,-191.2 140.5,-213.2 219.5,-213.2 219.5,-191.2 140.5,-191.2"/>
<text text-anchor="start" x="143.5" y="-198.9" font-family="Helvetica,sans-Serif" font-size="11.00" fill="#000000">clob[4000]</text>
<polygon fill="none" stroke="#000000" points="10.5,-169.2 10.5,-191.2 140.5,-191.2 140.5,-169.2 10.5,-169.2"/>
<text text-anchor="start" x="30.5" y="-176.3" font-family="Helvetica,sans-Serif" font-size="11.00" fill="#000000">DATE_CREATED</text>
<polygon fill="none" stroke="#000000" points="140.5,-169.2 140.5,-191.2 219.5,-191.2 219.5,-169.2 140.5,-169.2"/>
<text text-anchor="start" x="143.5" y="-176.9" font-family="Helvetica,sans-Serif" font-size="11.00" fill="#000000">date[7]</text>
<polygon fill="none" stroke="#000000" points="10.5,-147.2 10.5,-169.2 140.5,-169.2 140.5,-147.2 10.5,-147.2"/>
<text text-anchor="start" x="30.5" y="-154.3" font-family="Helvetica,sans-Serif" font-size="11.00" fill="#000000">CREATED_BY</text>
<polygon fill="none" stroke="#000000" points="140.5,-147.2 140.5,-169.2 219.5,-169.2 219.5,-147.2 140.5,-147.2"/>
<text text-anchor="start" x="143.5" y="-154.9" font-family="Helvetica,sans-Serif" font-size="11.00" fill="#000000">varchar2[128]</text>
<polygon fill="none" stroke="#000000" points="10.5,-125.2 10.5,-147.2 140.5,-147.2 140.5,-125.2 10.5,-125.2"/>
<text text-anchor="start" x="30.5" y="-132.3" font-family="Helvetica,sans-Serif" font-size="11.00" fill="#000000">PACKAGE_NAME</text>
<polygon fill="none" stroke="#000000" points="140.5,-125.2 140.5,-147.2 219.5,-147.2 219.5,-125.2 140.5,-125.2"/>
<text text-anchor="start" x="143.5" y="-132.9" font-family="Helvetica,sans-Serif" font-size="11.00" fill="#000000">varchar2[30]</text>
<polygon fill="none" stroke="#000000" points="10.5,-103.2 10.5,-125.2 140.5,-125.2 140.5,-103.2 10.5,-103.2"/>
<text text-anchor="start" x="28.9207" y="-110.3" font-family="Helvetica,sans-Serif" font-size="11.00" fill="#000000">PROCEDURE_NAME</text>
<polygon fill="none" stroke="#000000" points="140.5,-103.2 140.5,-125.2 219.5,-125.2 219.5,-103.2 140.5,-103.2"/>
<text text-anchor="start" x="143.5" y="-110.9" font-family="Helvetica,sans-Serif" font-size="11.00" fill="#000000">varchar2[30]</text>
<polygon fill="none" stroke="#000000" points="10.5,-81.2 10.5,-103.2 140.5,-103.2 140.5,-81.2 10.5,-81.2"/>
<text text-anchor="start" x="30.5" y="-88.3" font-family="Helvetica,sans-Serif" font-size="11.00" fill="#000000">LABEL</text>
<polygon fill="none" stroke="#000000" points="140.5,-81.2 140.5,-103.2 219.5,-103.2 219.5,-81.2 140.5,-81.2"/>
<text text-anchor="start" x="143.5" y="-88.9" font-family="Helvetica,sans-Serif" font-size="11.00" fill="#000000">varchar2[10]</text>
<polygon fill="none" stroke="#000000" points="10.5,-59.2 10.5,-81.2 140.5,-81.2 140.5,-59.2 10.5,-59.2"/>
<text text-anchor="start" x="30.5" y="-66.3" font-family="Helvetica,sans-Serif" font-size="11.00" fill="#000000">INSTANCE_ID</text>
<polygon fill="none" stroke="#000000" points="140.5,-59.2 140.5,-81.2 219.5,-81.2 219.5,-59.2 140.5,-59.2"/>
<text text-anchor="start" x="143.5" y="-66.9" font-family="Helvetica,sans-Serif" font-size="11.00" fill="#000000">number[38]</text>
<polygon fill="#ffffff" stroke="transparent" points="10.5,-40.2 10.5,-59.2 53.5,-59.2 53.5,-40.2 10.5,-40.2"/>
<polygon fill="none" stroke="#000000" points="10.5,-40.2 10.5,-59.2 53.5,-59.2 53.5,-40.2 10.5,-40.2"/>
<text text-anchor="start" x="13.5" y="-46.3" font-family="Helvetica,sans-Serif" font-size="11.00" fill="#000000">&lt; 0</text>
<polygon fill="#ffffff" stroke="transparent" points="53.5,-40.2 53.5,-59.2 140.5,-59.2 140.5,-40.2 53.5,-40.2"/>
<polygon fill="none" stroke="#000000" points="53.5,-40.2 53.5,-59.2 140.5,-59.2 140.5,-40.2 53.5,-40.2"/>
<text text-anchor="start" x="77.594" y="-46.3" font-family="Helvetica,sans-Serif" font-size="11.00" fill="#000000">14,533 rows</text>
<polygon fill="#ffffff" stroke="transparent" points="140.5,-40.2 140.5,-59.2 219.5,-59.2 219.5,-40.2 140.5,-40.2"/>
<polygon fill="none" stroke="#000000" points="140.5,-40.2 140.5,-59.2 219.5,-59.2 219.5,-40.2 140.5,-40.2"/>
<text text-anchor="start" x="200.9053" y="-46.3" font-family="Helvetica,sans-Serif" font-size="11.00" fill="#000000">1 &gt;</text>
<polygon fill="none" stroke="#000000" stroke-width="2" points="9,-39.2 9,-325.2 220,-325.2 220,-39.2 9,-39.2"/>
</a>
</g>
</g>
<!-- SPG_MESSAGE_LOG&#45;&gt;SPG_ERROR_LOG -->
<g id="edge1" class="edge">
<title>SPG_MESSAGE_LOG:w&#45;&gt;SPG_ERROR_LOG:e</title>
<path fill="none" stroke="#000000" stroke-dasharray="5,2" d="M255.4203,-290.2C243.5435,-290.2 236.158,-290.2 219.5,-290.2"/>
<polygon fill="#000000" stroke="#000000" points="262,-290.2001 270,-293.8 266,-290.2 270,-290.2 270,-290.2 270,-290.2 266,-290.2 270,-286.6 262,-290.2001 262,-290.2001"/>
<ellipse fill="none" stroke="#000000" cx="258.8" cy="-290.2001" rx="3.2" ry="3.2"/>
</g>
</g>
</svg>
