<?xml version="1.0" encoding="UTF-8" standalone="no"?>
<!DOCTYPE svg PUBLIC "-//W3C//DTD SVG 1.1//EN"
 "http://www.w3.org/Graphics/SVG/1.1/DTD/svg11.dtd">
<!-- Generated by graphviz version 2.40.1 (20161225.0304)
 -->
<!-- Title: oneDegreeRelationshipsDiagram Pages: 1 -->
<svg width="521pt" height="1029pt"
 viewBox="0.00 0.00 521.00 1029.20" xmlns="http://www.w3.org/2000/svg" xmlns:xlink="http://www.w3.org/1999/xlink">
<g id="graph0" class="graph" transform="scale(1 1) rotate(0) translate(4 1025.2)">
<title>oneDegreeRelationshipsDiagram</title>
<polygon fill="#ffffff" stroke="transparent" points="-4,4 -4,-1025.2 517,-1025.2 517,4 -4,4"/>
<text text-anchor="middle" x="72.4936" y="-7.3" font-family="Helvetica,sans-Serif" font-size="11.00" fill="#000000">Generated by SchemaSpy</text>
<!-- SPG_SEARCH_OFFENDER -->
<g id="node1" class="node">
<title>SPG_SEARCH_OFFENDER</title>
<g id="a_node1"><a xlink:href="../../tables/SPG_SEARCH_OFFENDER.html" xlink:title="SPG_SEARCH_OFFENDER" target="_top">
<polygon fill="#ffffff" stroke="transparent" points="275,-865.7 275,-977.7 505,-977.7 505,-865.7 275,-865.7"/>
<polygon fill="#f5f5f5" stroke="transparent" points="277,-952.7 277,-975.7 503,-975.7 503,-952.7 277,-952.7"/>
<polygon fill="none" stroke="#000000" points="277,-952.7 277,-975.7 503,-975.7 503,-952.7 277,-952.7"/>
<text text-anchor="start" x="282" y="-961.8" font-family="Helvetica,sans-Serif" font-weight="bold" font-size="11.00" fill="#000000">SPG_SEARCH_OFFENDER</text>
<text text-anchor="start" x="468.0437" y="-960.8" font-family="Helvetica,sans-Serif" font-size="11.00" fill="#000000">[table]</text>
<polygon fill="none" stroke="#000000" points="277,-930.7 277,-952.7 442,-952.7 442,-930.7 277,-930.7"/>
<image xlink:href="../../images/primaryKeys.png" width="11px" height="12px" preserveAspectRatio="xMinYMin meet" x="282" y="-947.7"/>
<text text-anchor="start" x="291.2161" y="-937.8" font-family="Helvetica,sans-Serif" font-size="11.00" fill="#000000">SPG_SEARCH_REQUEST_ID</text>
<polygon fill="none" stroke="#000000" points="442,-930.7 442,-952.7 503,-952.7 503,-930.7 442,-930.7"/>
<text text-anchor="start" x="444.6865" y="-938.4" font-family="Helvetica,sans-Serif" font-size="11.00" fill="#000000">number[38]</text>
<polygon fill="none" stroke="#000000" points="277,-908.7 277,-930.7 442,-930.7 442,-908.7 277,-908.7"/>
<image xlink:href="../../images/primaryKeys.png" width="11px" height="12px" preserveAspectRatio="xMinYMin meet" x="282" y="-925.7"/>
<text text-anchor="start" x="295.494" y="-915.8" font-family="Helvetica,sans-Serif" font-size="11.00" fill="#000000">SPG_SEARCH_SEQUENCE</text>
<polygon fill="none" stroke="#000000" points="442,-908.7 442,-930.7 503,-930.7 503,-908.7 442,-908.7"/>
<text text-anchor="start" x="444.6865" y="-916.4" font-family="Helvetica,sans-Serif" font-size="11.00" fill="#000000">number[38]</text>
<polygon fill="none" stroke="#000000" points="277,-886.7 277,-908.7 442,-908.7 442,-886.7 277,-886.7"/>
<image xlink:href="../../images/primaryKeys.png" width="11px" height="12px" preserveAspectRatio="xMinYMin meet" x="282" y="-903.7"/>
<text text-anchor="start" x="297" y="-893.8" font-family="Helvetica,sans-Serif" font-size="11.00" fill="#000000">OFFENDER_ID</text>
<polygon fill="none" stroke="#000000" points="442,-886.7 442,-908.7 503,-908.7 503,-886.7 442,-886.7"/>
<text text-anchor="start" x="444.6865" y="-894.4" font-family="Helvetica,sans-Serif" font-size="11.00" fill="#000000">number[38]</text>
<polygon fill="#ffffff" stroke="transparent" points="277,-867.7 277,-886.7 345,-886.7 345,-867.7 277,-867.7"/>
<polygon fill="none" stroke="#000000" points="277,-867.7 277,-886.7 345,-886.7 345,-867.7 277,-867.7"/>
<text text-anchor="start" x="280" y="-873.8" font-family="Helvetica,sans-Serif" font-size="11.00" fill="#000000">&lt; 2</text>
<polygon fill="#ffffff" stroke="transparent" points="345,-867.7 345,-886.7 442,-886.7 442,-867.7 345,-867.7"/>
<polygon fill="none" stroke="#000000" points="345,-867.7 345,-886.7 442,-886.7 442,-867.7 345,-867.7"/>
<text text-anchor="start" x="394.3807" y="-873.8" font-family="Helvetica,sans-Serif" font-size="11.00" fill="#000000">184 rows</text>
<polygon fill="#ffffff" stroke="transparent" points="442,-867.7 442,-886.7 503,-886.7 503,-867.7 442,-867.7"/>
<polygon fill="none" stroke="#000000" points="442,-867.7 442,-886.7 503,-886.7 503,-867.7 442,-867.7"/>
<text text-anchor="start" x="484.4053" y="-873.8" font-family="Helvetica,sans-Serif" font-size="11.00" fill="#000000">0 &gt;</text>
<polygon fill="none" stroke="#000000" stroke-width="2" points="276,-866.7 276,-976.7 504,-976.7 504,-866.7 276,-866.7"/>
</a>
</g>
</g>
<!-- OFFENDER -->
<g id="node2" class="node">
<title>OFFENDER</title>
<g id="a_node2"><a xlink:href="../../tables/OFFENDER.html" xlink:title="OFFENDER" target="_top">
<polygon fill="#ffffff" stroke="transparent" points="8,-38.2 8,-891.2 226,-891.2 226,-38.2 8,-38.2"/>
<polygon fill="#f5f5f5" stroke="transparent" points="8,-867.7 8,-890.7 226,-890.7 226,-867.7 8,-867.7"/>
<polygon fill="none" stroke="#000000" points="8,-867.7 8,-890.7 226,-890.7 226,-867.7 8,-867.7"/>
<text text-anchor="start" x="13" y="-876.8" font-family="Helvetica,sans-Serif" font-weight="bold" font-size="11.00" fill="#000000">OFFENDER</text>
<text text-anchor="start" x="191.0437" y="-875.8" font-family="Helvetica,sans-Serif" font-size="11.00" fill="#000000">[table]</text>
<polygon fill="none" stroke="#000000" points="8,-845.7 8,-867.7 226,-867.7 226,-845.7 8,-845.7"/>
<image xlink:href="../../images/primaryKeys.png" width="11px" height="12px" preserveAspectRatio="xMinYMin meet" x="13" y="-862.7"/>
<text text-anchor="start" x="28" y="-852.8" font-family="Helvetica,sans-Serif" font-size="11.00" fill="#000000">OFFENDER_ID</text>
<polygon fill="none" stroke="#000000" points="8,-823.7 8,-845.7 226,-845.7 226,-823.7 8,-823.7"/>
<image xlink:href="../../images/primaryKeys.png" width="11px" height="12px" preserveAspectRatio="xMinYMin meet" x="13" y="-840.7"/>
<text text-anchor="start" x="28" y="-830.8" font-family="Helvetica,sans-Serif" font-size="11.00" fill="#000000">FIRST_NAME</text>
<polygon fill="none" stroke="#000000" points="8,-801.7 8,-823.7 226,-823.7 226,-801.7 8,-801.7"/>
<image xlink:href="../../images/primaryKeys.png" width="11px" height="12px" preserveAspectRatio="xMinYMin meet" x="13" y="-818.7"/>
<text text-anchor="start" x="28" y="-808.8" font-family="Helvetica,sans-Serif" font-size="11.00" fill="#000000">CRN</text>
<polygon fill="none" stroke="#000000" points="8,-779.7 8,-801.7 226,-801.7 226,-779.7 8,-779.7"/>
<image xlink:href="../../images/primaryKeys.png" width="11px" height="12px" preserveAspectRatio="xMinYMin meet" x="13" y="-796.7"/>
<text text-anchor="start" x="28" y="-786.8" font-family="Helvetica,sans-Serif" font-size="11.00" fill="#000000">SECOND_NAME</text>
<polygon fill="none" stroke="#000000" points="8,-757.7 8,-779.7 226,-779.7 226,-757.7 8,-757.7"/>
<image xlink:href="../../images/primaryKeys.png" width="11px" height="12px" preserveAspectRatio="xMinYMin meet" x="13" y="-774.7"/>
<text text-anchor="start" x="28" y="-764.8" font-family="Helvetica,sans-Serif" font-size="11.00" fill="#000000">PNC_NUMBER</text>
<polygon fill="none" stroke="#000000" points="8,-735.7 8,-757.7 226,-757.7 226,-735.7 8,-735.7"/>
<image xlink:href="../../images/primaryKeys.png" width="11px" height="12px" preserveAspectRatio="xMinYMin meet" x="13" y="-752.7"/>
<text text-anchor="start" x="28" y="-742.8" font-family="Helvetica,sans-Serif" font-size="11.00" fill="#000000">THIRD_NAME</text>
<polygon fill="none" stroke="#000000" points="8,-713.7 8,-735.7 226,-735.7 226,-713.7 8,-713.7"/>
<image xlink:href="../../images/primaryKeys.png" width="11px" height="12px" preserveAspectRatio="xMinYMin meet" x="13" y="-730.7"/>
<text text-anchor="start" x="28" y="-720.8" font-family="Helvetica,sans-Serif" font-size="11.00" fill="#000000">CRO_NUMBER</text>
<polygon fill="none" stroke="#000000" points="8,-691.7 8,-713.7 226,-713.7 226,-691.7 8,-691.7"/>
<image xlink:href="../../images/primaryKeys.png" width="11px" height="12px" preserveAspectRatio="xMinYMin meet" x="13" y="-708.7"/>
<text text-anchor="start" x="28" y="-698.8" font-family="Helvetica,sans-Serif" font-size="11.00" fill="#000000">SURNAME</text>
<polygon fill="none" stroke="#000000" points="8,-669.7 8,-691.7 226,-691.7 226,-669.7 8,-669.7"/>
<image xlink:href="../../images/primaryKeys.png" width="11px" height="12px" preserveAspectRatio="xMinYMin meet" x="13" y="-686.7"/>
<text text-anchor="start" x="28" y="-676.8" font-family="Helvetica,sans-Serif" font-size="11.00" fill="#000000">NOMS_NUMBER</text>
<polygon fill="none" stroke="#000000" points="8,-647.7 8,-669.7 226,-669.7 226,-647.7 8,-647.7"/>
<image xlink:href="../../images/primaryKeys.png" width="11px" height="12px" preserveAspectRatio="xMinYMin meet" x="13" y="-664.7"/>
<text text-anchor="start" x="28" y="-654.8" font-family="Helvetica,sans-Serif" font-size="11.00" fill="#000000">DATE_OF_BIRTH_DATE</text>
<polygon fill="none" stroke="#000000" points="8,-625.7 8,-647.7 226,-647.7 226,-625.7 8,-625.7"/>
<image xlink:href="../../images/primaryKeys.png" width="11px" height="12px" preserveAspectRatio="xMinYMin meet" x="13" y="-642.7"/>
<text text-anchor="start" x="28" y="-632.8" font-family="Helvetica,sans-Serif" font-size="11.00" fill="#000000">NI_NUMBER</text>
<polygon fill="none" stroke="#000000" points="8,-603.7 8,-625.7 226,-625.7 226,-603.7 8,-603.7"/>
<image xlink:href="../../images/primaryKeys.png" width="11px" height="12px" preserveAspectRatio="xMinYMin meet" x="13" y="-620.7"/>
<text text-anchor="start" x="28" y="-610.8" font-family="Helvetica,sans-Serif" font-size="11.00" fill="#000000">IMMIGRATION_NUMBER</text>
<polygon fill="none" stroke="#000000" points="8,-581.7 8,-603.7 226,-603.7 226,-581.7 8,-581.7"/>
<image xlink:href="../../images/primaryKeys.png" width="11px" height="12px" preserveAspectRatio="xMinYMin meet" x="13" y="-598.7"/>
<text text-anchor="start" x="28" y="-588.8" font-family="Helvetica,sans-Serif" font-size="11.00" fill="#000000">PARTITION_AREA_ID</text>
<polygon fill="none" stroke="#000000" points="8,-559.7 8,-581.7 226,-581.7 226,-559.7 8,-559.7"/>
<image xlink:href="../../images/primaryKeys.png" width="11px" height="12px" preserveAspectRatio="xMinYMin meet" x="13" y="-576.7"/>
<text text-anchor="start" x="28" y="-566.8" font-family="Helvetica,sans-Serif" font-size="11.00" fill="#000000">SOFT_DELETED</text>
<polygon fill="none" stroke="#000000" points="8,-537.7 8,-559.7 226,-559.7 226,-537.7 8,-537.7"/>
<image xlink:href="../../images/primaryKeys.png" width="11px" height="12px" preserveAspectRatio="xMinYMin meet" x="13" y="-554.7"/>
<text text-anchor="start" x="28" y="-544.8" font-family="Helvetica,sans-Serif" font-size="11.00" fill="#000000">TITLE_ID</text>
<polygon fill="none" stroke="#000000" points="8,-515.7 8,-537.7 226,-537.7 226,-515.7 8,-515.7"/>
<image xlink:href="../../images/primaryKeys.png" width="11px" height="12px" preserveAspectRatio="xMinYMin meet" x="13" y="-532.7"/>
<text text-anchor="start" x="28" y="-522.8" font-family="Helvetica,sans-Serif" font-size="11.00" fill="#000000">GENDER_ID</text>
<polygon fill="none" stroke="#000000" points="8,-493.7 8,-515.7 226,-515.7 226,-493.7 8,-493.7"/>
<image xlink:href="../../images/primaryKeys.png" width="11px" height="12px" preserveAspectRatio="xMinYMin meet" x="13" y="-510.7"/>
<text text-anchor="start" x="28" y="-500.8" font-family="Helvetica,sans-Serif" font-size="11.00" fill="#000000">ETHNICITY_ID</text>
<polygon fill="none" stroke="#000000" points="8,-471.7 8,-493.7 226,-493.7 226,-471.7 8,-471.7"/>
<image xlink:href="../../images/primaryKeys.png" width="11px" height="12px" preserveAspectRatio="xMinYMin meet" x="13" y="-488.7"/>
<text text-anchor="start" x="28" y="-478.8" font-family="Helvetica,sans-Serif" font-size="11.00" fill="#000000">NATIONALITY_ID</text>
<polygon fill="none" stroke="#000000" points="8,-449.7 8,-471.7 226,-471.7 226,-449.7 8,-449.7"/>
<image xlink:href="../../images/primaryKeys.png" width="11px" height="12px" preserveAspectRatio="xMinYMin meet" x="13" y="-466.7"/>
<text text-anchor="start" x="28" y="-456.8" font-family="Helvetica,sans-Serif" font-size="11.00" fill="#000000">IMMIGRATION_STATUS_ID</text>
<polygon fill="none" stroke="#000000" points="8,-427.7 8,-449.7 226,-449.7 226,-427.7 8,-427.7"/>
<image xlink:href="../../images/primaryKeys.png" width="11px" height="12px" preserveAspectRatio="xMinYMin meet" x="13" y="-444.7"/>
<text text-anchor="start" x="28" y="-434.8" font-family="Helvetica,sans-Serif" font-size="11.00" fill="#000000">LANGUAGE_ID</text>
<polygon fill="none" stroke="#000000" points="8,-405.7 8,-427.7 226,-427.7 226,-405.7 8,-405.7"/>
<image xlink:href="../../images/primaryKeys.png" width="11px" height="12px" preserveAspectRatio="xMinYMin meet" x="13" y="-422.7"/>
<text text-anchor="start" x="28" y="-412.8" font-family="Helvetica,sans-Serif" font-size="11.00" fill="#000000">RELIGION_ID</text>
<polygon fill="none" stroke="#000000" points="8,-383.7 8,-405.7 226,-405.7 226,-383.7 8,-383.7"/>
<image xlink:href="../../images/primaryKeys.png" width="11px" height="12px" preserveAspectRatio="xMinYMin meet" x="13" y="-400.7"/>
<text text-anchor="start" x="28" y="-390.8" font-family="Helvetica,sans-Serif" font-size="11.00" fill="#000000">SURNAME_SOUNDEX</text>
<polygon fill="none" stroke="#000000" points="8,-361.7 8,-383.7 226,-383.7 226,-361.7 8,-361.7"/>
<image xlink:href="../../images/primaryKeys.png" width="11px" height="12px" preserveAspectRatio="xMinYMin meet" x="13" y="-378.7"/>
<text text-anchor="start" x="28" y="-368.8" font-family="Helvetica,sans-Serif" font-size="11.00" fill="#000000">SECOND_NATIONALITY_ID</text>
<polygon fill="none" stroke="#000000" points="8,-339.7 8,-361.7 226,-361.7 226,-339.7 8,-339.7"/>
<image xlink:href="../../images/primaryKeys.png" width="11px" height="12px" preserveAspectRatio="xMinYMin meet" x="13" y="-356.7"/>
<text text-anchor="start" x="28" y="-346.8" font-family="Helvetica,sans-Serif" font-size="11.00" fill="#000000">SEXUAL_ORIENTATION_ID</text>
<polygon fill="none" stroke="#000000" points="8,-317.7 8,-339.7 226,-339.7 226,-317.7 8,-317.7"/>
<image xlink:href="../../images/primaryKeys.png" width="11px" height="12px" preserveAspectRatio="xMinYMin meet" x="13" y="-334.7"/>
<text text-anchor="start" x="28" y="-324.8" font-family="Helvetica,sans-Serif" font-size="11.00" fill="#000000">CURRENT_EXCLUSION</text>
<polygon fill="none" stroke="#000000" points="8,-295.7 8,-317.7 226,-317.7 226,-295.7 8,-295.7"/>
<image xlink:href="../../images/primaryKeys.png" width="11px" height="12px" preserveAspectRatio="xMinYMin meet" x="13" y="-312.7"/>
<text text-anchor="start" x="28" y="-302.8" font-family="Helvetica,sans-Serif" font-size="11.00" fill="#000000">TRAINING_SESSION_ID</text>
<polygon fill="none" stroke="#000000" points="8,-273.7 8,-295.7 226,-295.7 226,-273.7 8,-273.7"/>
<image xlink:href="../../images/primaryKeys.png" width="11px" height="12px" preserveAspectRatio="xMinYMin meet" x="13" y="-290.7"/>
<text text-anchor="start" x="28" y="-280.8" font-family="Helvetica,sans-Serif" font-size="11.00" fill="#000000">CURRENT_DISPOSAL</text>
<polygon fill="none" stroke="#000000" points="8,-251.7 8,-273.7 226,-273.7 226,-251.7 8,-251.7"/>
<image xlink:href="../../images/primaryKeys.png" width="11px" height="12px" preserveAspectRatio="xMinYMin meet" x="13" y="-268.7"/>
<text text-anchor="start" x="27.6433" y="-258.8" font-family="Helvetica,sans-Serif" font-size="11.00" fill="#000000">CURRENT_HIGHEST_RISK_COLOUR</text>
<polygon fill="none" stroke="#000000" points="8,-229.7 8,-251.7 226,-251.7 226,-229.7 8,-229.7"/>
<image xlink:href="../../images/primaryKeys.png" width="11px" height="12px" preserveAspectRatio="xMinYMin meet" x="13" y="-246.7"/>
<text text-anchor="start" x="28" y="-236.8" font-family="Helvetica,sans-Serif" font-size="11.00" fill="#000000">CURRENT_RESTRICTION</text>
<polygon fill="none" stroke="#000000" points="8,-207.7 8,-229.7 226,-229.7 226,-207.7 8,-207.7"/>
<image xlink:href="../../images/primaryKeys.png" width="11px" height="12px" preserveAspectRatio="xMinYMin meet" x="13" y="-224.7"/>
<text text-anchor="start" x="28" y="-214.8" font-family="Helvetica,sans-Serif" font-size="11.00" fill="#000000">INSTITUTION_ID</text>
<polygon fill="none" stroke="#000000" points="8,-185.7 8,-207.7 226,-207.7 226,-185.7 8,-185.7"/>
<image xlink:href="../../images/primaryKeys.png" width="11px" height="12px" preserveAspectRatio="xMinYMin meet" x="13" y="-202.7"/>
<text text-anchor="start" x="28" y="-192.8" font-family="Helvetica,sans-Serif" font-size="11.00" fill="#000000">ESTABLISHMENT</text>
<polygon fill="none" stroke="#000000" points="8,-163.7 8,-185.7 226,-185.7 226,-163.7 8,-163.7"/>
<image xlink:href="../../images/primaryKeys.png" width="11px" height="12px" preserveAspectRatio="xMinYMin meet" x="13" y="-180.7"/>
<text text-anchor="start" x="28" y="-170.8" font-family="Helvetica,sans-Serif" font-size="11.00" fill="#000000">CURRENT_TIER</text>
<polygon fill="none" stroke="#000000" points="8,-141.7 8,-163.7 226,-163.7 226,-141.7 8,-141.7"/>
<image xlink:href="../../images/primaryKeys.png" width="11px" height="12px" preserveAspectRatio="xMinYMin meet" x="13" y="-158.7"/>
<text text-anchor="start" x="28" y="-148.8" font-family="Helvetica,sans-Serif" font-size="11.00" fill="#000000">OM_ALLOCATION_DECISION_ID</text>
<polygon fill="none" stroke="#000000" points="8,-119.7 8,-141.7 226,-141.7 226,-119.7 8,-119.7"/>
<image xlink:href="../../images/primaryKeys.png" width="11px" height="12px" preserveAspectRatio="xMinYMin meet" x="13" y="-136.7"/>
<text text-anchor="start" x="28" y="-126.8" font-family="Helvetica,sans-Serif" font-size="11.00" fill="#000000">TRANSGENDER_PROCESS_ID</text>
<polygon fill="none" stroke="#000000" points="8,-97.7 8,-119.7 226,-119.7 226,-97.7 8,-97.7"/>
<image xlink:href="../../images/primaryKeys.png" width="11px" height="12px" preserveAspectRatio="xMinYMin meet" x="13" y="-114.7"/>
<text text-anchor="start" x="28" y="-104.8" font-family="Helvetica,sans-Serif" font-size="11.00" fill="#000000">PREFERRED_NAME</text>
<polygon fill="none" stroke="#000000" points="8,-75.7 8,-97.7 226,-97.7 226,-75.7 8,-75.7"/>
<image xlink:href="../../images/primaryKeys.png" width="11px" height="12px" preserveAspectRatio="xMinYMin meet" x="13" y="-92.7"/>
<text text-anchor="start" x="28" y="-82.8" font-family="Helvetica,sans-Serif" font-size="11.00" fill="#000000">GENDER_IDENTITY_ID</text>
<polygon fill="none" stroke="#000000" points="8,-56.7 8,-75.7 226,-75.7 226,-56.7 8,-56.7"/>
<text text-anchor="start" x="11" y="-62.8" font-family="Helvetica,sans-Serif" font-size="11.00" fill="#000000">...</text>
<polygon fill="#ffffff" stroke="transparent" points="8,-37.7 8,-56.7 81,-56.7 81,-37.7 8,-37.7"/>
<polygon fill="none" stroke="#000000" points="8,-37.7 8,-56.7 81,-56.7 81,-37.7 8,-37.7"/>
<text text-anchor="start" x="11" y="-43.8" font-family="Helvetica,sans-Serif" font-size="11.00" fill="#000000">&lt; 16</text>
<polygon fill="#ffffff" stroke="transparent" points="81,-37.7 81,-56.7 169,-56.7 169,-37.7 81,-37.7"/>
<polygon fill="none" stroke="#000000" points="81,-37.7 81,-56.7 169,-56.7 169,-37.7 81,-37.7"/>
<text text-anchor="start" x="106.094" y="-43.8" font-family="Helvetica,sans-Serif" font-size="11.00" fill="#000000">18,527 rows</text>
<polygon fill="#ffffff" stroke="transparent" points="169,-37.7 169,-56.7 226,-56.7 226,-37.7 169,-37.7"/>
<polygon fill="none" stroke="#000000" points="169,-37.7 169,-56.7 226,-56.7 226,-37.7 169,-37.7"/>
<text text-anchor="start" x="195.1755" y="-43.8" font-family="Helvetica,sans-Serif" font-size="11.00" fill="#000000">102 &gt;</text>
</a>
</g>
</g>
<!-- SPG_SEARCH_OFFENDER&#45;&gt;OFFENDER -->
<g id="edge1" class="edge">
<title>SPG_SEARCH_OFFENDER:w&#45;&gt;OFFENDER:e</title>
<path fill="none" stroke="#000000" d="M263.1568,-893.3123C249.3325,-882.7354 249.1756,-856.7 226,-856.7"/>
<polygon fill="#000000" stroke="#000000" points="269.3739,-895.2828 275.9123,-901.1317 273.1869,-896.4914 277,-897.7 277,-897.7 277,-897.7 273.1869,-896.4914 278.0877,-894.2683 269.3739,-895.2828 269.3739,-895.2828"/>
<ellipse fill="none" stroke="#000000" cx="266.3235" cy="-894.3159" rx="3.2" ry="3.2"/>
</g>
<!-- SPG_SEARCH_REQUEST -->
<g id="node3" class="node">
<title>SPG_SEARCH_REQUEST</title>
<g id="a_node3"><a xlink:href="../../tables/SPG_SEARCH_REQUEST.html" xlink:title="SPG_SEARCH_REQUEST" target="_top">
<polygon fill="#ffffff" stroke="transparent" points="28.5,-912.2 28.5,-1017.2 205.5,-1017.2 205.5,-912.2 28.5,-912.2"/>
<polygon fill="#f5f5f5" stroke="transparent" points="29,-993.7 29,-1016.7 206,-1016.7 206,-993.7 29,-993.7"/>
<polygon fill="none" stroke="#000000" points="29,-993.7 29,-1016.7 206,-1016.7 206,-993.7 29,-993.7"/>
<text text-anchor="start" x="33.7724" y="-1002.8" font-family="Helvetica,sans-Serif" font-weight="bold" font-size="11.00" fill="#000000">SPG_SEARCH_REQUEST</text>
<text text-anchor="start" x="171.5219" y="-1001.8" font-family="Helvetica,sans-Serif" font-size="11.00" fill="#000000">[table]</text>
<polygon fill="none" stroke="#000000" points="29,-971.7 29,-993.7 206,-993.7 206,-971.7 29,-971.7"/>
<image xlink:href="../../images/primaryKeys.png" width="11px" height="12px" preserveAspectRatio="xMinYMin meet" x="34" y="-988.7"/>
<text text-anchor="start" x="49.216" y="-978.8" font-family="Helvetica,sans-Serif" font-size="11.00" fill="#000000">SPG_SEARCH_REQUEST_ID</text>
<polygon fill="none" stroke="#000000" points="29,-949.7 29,-971.7 206,-971.7 206,-949.7 29,-949.7"/>
<image xlink:href="../../images/primaryKeys.png" width="11px" height="12px" preserveAspectRatio="xMinYMin meet" x="34" y="-966.7"/>
<text text-anchor="start" x="55" y="-956.8" font-family="Helvetica,sans-Serif" font-size="11.00" fill="#000000">GENDER_ID</text>
<polygon fill="none" stroke="#000000" points="29,-930.7 29,-949.7 206,-949.7 206,-930.7 29,-930.7"/>
<text text-anchor="start" x="32" y="-936.8" font-family="Helvetica,sans-Serif" font-size="11.00" fill="#000000">...</text>
<polygon fill="#ffffff" stroke="transparent" points="29,-911.7 29,-930.7 92,-930.7 92,-911.7 29,-911.7"/>
<polygon fill="none" stroke="#000000" points="29,-911.7 29,-930.7 92,-930.7 92,-911.7 29,-911.7"/>
<text text-anchor="start" x="32" y="-917.8" font-family="Helvetica,sans-Serif" font-size="11.00" fill="#000000">&lt; 1</text>
<polygon fill="#ffffff" stroke="transparent" points="92,-911.7 92,-930.7 163,-930.7 163,-911.7 92,-911.7"/>
<polygon fill="none" stroke="#000000" points="92,-911.7 92,-930.7 163,-930.7 163,-911.7 92,-911.7"/>
<text text-anchor="start" x="115.3807" y="-917.8" font-family="Helvetica,sans-Serif" font-size="11.00" fill="#000000">223 rows</text>
<polygon fill="#ffffff" stroke="transparent" points="163,-911.7 163,-930.7 206,-930.7 206,-911.7 163,-911.7"/>
<polygon fill="none" stroke="#000000" points="163,-911.7 163,-930.7 206,-930.7 206,-911.7 163,-911.7"/>
<text text-anchor="start" x="187.4053" y="-917.8" font-family="Helvetica,sans-Serif" font-size="11.00" fill="#000000">1 &gt;</text>
</a>
</g>
</g>
<!-- SPG_SEARCH_OFFENDER&#45;&gt;SPG_SEARCH_REQUEST -->
<g id="edge2" class="edge">
<title>SPG_SEARCH_OFFENDER:w&#45;&gt;SPG_SEARCH_REQUEST:e</title>
<path fill="none" stroke="#000000" d="M262.7431,-944.2647C240.2439,-953.2406 236.8878,-982.7 206,-982.7"/>
<polygon fill="#000000" stroke="#000000" points="269.1264,-943.1165 277.6374,-945.2431 273.0632,-942.4082 277,-941.7 277,-941.7 277,-941.7 273.0632,-942.4082 276.3626,-938.1569 269.1264,-943.1165 269.1264,-943.1165"/>
<ellipse fill="none" stroke="#000000" cx="265.9769" cy="-943.6831" rx="3.2" ry="3.2"/>
</g>
</g>
</svg>
