<?xml version="1.0" encoding="UTF-8" standalone="no"?>
<!DOCTYPE svg PUBLIC "-//W3C//DTD SVG 1.1//EN"
 "http://www.w3.org/Graphics/SVG/1.1/DTD/svg11.dtd">
<!-- Generated by graphviz version 2.40.1 (20161225.0304)
 -->
<!-- Title: oneDegreeRelationshipsDiagram Pages: 1 -->
<svg width="531pt" height="1029pt"
 viewBox="0.00 0.00 531.00 1029.20" xmlns="http://www.w3.org/2000/svg" xmlns:xlink="http://www.w3.org/1999/xlink">
<g id="graph0" class="graph" transform="scale(1 1) rotate(0) translate(4 1025.2)">
<title>oneDegreeRelationshipsDiagram</title>
<polygon fill="#ffffff" stroke="transparent" points="-4,4 -4,-1025.2 527,-1025.2 527,4 -4,4"/>
<text text-anchor="middle" x="72.4936" y="-7.3" font-family="Helvetica,sans-Serif" font-size="11.00" fill="#000000">Generated by SchemaSpy</text>
<!-- SPG_VERSION_ENTRY -->
<g id="node1" class="node">
<title>SPG_VERSION_ENTRY</title>
<g id="a_node1"><a xlink:href="../../tables/SPG_VERSION_ENTRY.html" xlink:title="SPG_VERSION_ENTRY" target="_top">
<polygon fill="#ffffff" stroke="transparent" points="275,-436.7 275,-790.7 515,-790.7 515,-436.7 275,-436.7"/>
<polygon fill="#f5f5f5" stroke="transparent" points="277,-765.7 277,-788.7 513,-788.7 513,-765.7 277,-765.7"/>
<polygon fill="none" stroke="#000000" points="277,-765.7 277,-788.7 513,-788.7 513,-765.7 277,-765.7"/>
<text text-anchor="start" x="282" y="-774.8" font-family="Helvetica,sans-Serif" font-weight="bold" font-size="11.00" fill="#000000">SPG_VERSION_ENTRY</text>
<text text-anchor="start" x="478.0437" y="-773.8" font-family="Helvetica,sans-Serif" font-size="11.00" fill="#000000">[table]</text>
<polygon fill="none" stroke="#000000" points="277,-743.7 277,-765.7 446,-765.7 446,-743.7 277,-743.7"/>
<image xlink:href="../../images/primaryKeys.png" width="11px" height="12px" preserveAspectRatio="xMinYMin meet" x="282" y="-760.7"/>
<text text-anchor="start" x="297" y="-750.8" font-family="Helvetica,sans-Serif" font-size="11.00" fill="#000000">SPG_VERSION_ENTRY_ID</text>
<polygon fill="none" stroke="#000000" points="446,-743.7 446,-765.7 513,-765.7 513,-743.7 446,-743.7"/>
<text text-anchor="start" x="449" y="-751.4" font-family="Helvetica,sans-Serif" font-size="11.00" fill="#000000">number[38]</text>
<polygon fill="none" stroke="#000000" points="277,-721.7 277,-743.7 446,-743.7 446,-721.7 277,-721.7"/>
<image xlink:href="../../images/primaryKeys.png" width="11px" height="12px" preserveAspectRatio="xMinYMin meet" x="282" y="-738.7"/>
<text text-anchor="start" x="297" y="-728.8" font-family="Helvetica,sans-Serif" font-size="11.00" fill="#000000">TABLE_NAME</text>
<polygon fill="none" stroke="#000000" points="446,-721.7 446,-743.7 513,-743.7 513,-721.7 446,-721.7"/>
<text text-anchor="start" x="448.9365" y="-729.4" font-family="Helvetica,sans-Serif" font-size="11.00" fill="#000000">varchar2[30]</text>
<polygon fill="none" stroke="#000000" points="277,-699.7 277,-721.7 446,-721.7 446,-699.7 277,-699.7"/>
<image xlink:href="../../images/primaryKeys.png" width="11px" height="12px" preserveAspectRatio="xMinYMin meet" x="282" y="-716.7"/>
<text text-anchor="start" x="297" y="-706.8" font-family="Helvetica,sans-Serif" font-size="11.00" fill="#000000">PRIMARY_KEY_ID</text>
<polygon fill="none" stroke="#000000" points="446,-699.7 446,-721.7 513,-721.7 513,-699.7 446,-699.7"/>
<text text-anchor="start" x="449" y="-707.4" font-family="Helvetica,sans-Serif" font-size="11.00" fill="#000000">number[38]</text>
<polygon fill="none" stroke="#000000" points="277,-677.7 277,-699.7 446,-699.7 446,-677.7 277,-677.7"/>
<text text-anchor="start" x="297" y="-684.8" font-family="Helvetica,sans-Serif" font-size="11.00" fill="#000000">SPG_VERSION</text>
<polygon fill="none" stroke="#000000" points="446,-677.7 446,-699.7 513,-699.7 513,-677.7 446,-677.7"/>
<text text-anchor="start" x="449" y="-685.4" font-family="Helvetica,sans-Serif" font-size="11.00" fill="#000000">raw[32]</text>
<polygon fill="none" stroke="#000000" points="277,-655.7 277,-677.7 446,-677.7 446,-655.7 277,-655.7"/>
<text text-anchor="start" x="297" y="-662.8" font-family="Helvetica,sans-Serif" font-size="11.00" fill="#000000">ACTION_FLAG</text>
<polygon fill="none" stroke="#000000" points="446,-655.7 446,-677.7 513,-677.7 513,-655.7 446,-655.7"/>
<text text-anchor="start" x="449" y="-663.4" font-family="Helvetica,sans-Serif" font-size="11.00" fill="#000000">char[1]</text>
<polygon fill="none" stroke="#000000" points="277,-633.7 277,-655.7 446,-655.7 446,-633.7 277,-633.7"/>
<image xlink:href="../../images/primaryKeys.png" width="11px" height="12px" preserveAspectRatio="xMinYMin meet" x="282" y="-650.7"/>
<text text-anchor="start" x="297" y="-640.8" font-family="Helvetica,sans-Serif" font-size="11.00" fill="#000000">CURRENT_RECORD_FLAG</text>
<polygon fill="none" stroke="#000000" points="446,-633.7 446,-655.7 513,-655.7 513,-633.7 446,-633.7"/>
<text text-anchor="start" x="449" y="-641.4" font-family="Helvetica,sans-Serif" font-size="11.00" fill="#000000">char[1]</text>
<polygon fill="none" stroke="#000000" points="277,-611.7 277,-633.7 446,-633.7 446,-611.7 277,-611.7"/>
<text text-anchor="start" x="297" y="-618.8" font-family="Helvetica,sans-Serif" font-size="11.00" fill="#000000">ROW_VERSION</text>
<polygon fill="none" stroke="#000000" points="446,-611.7 446,-633.7 513,-633.7 513,-611.7 446,-611.7"/>
<text text-anchor="start" x="449" y="-619.4" font-family="Helvetica,sans-Serif" font-size="11.00" fill="#000000">number[38]</text>
<polygon fill="none" stroke="#000000" points="277,-589.7 277,-611.7 446,-611.7 446,-589.7 277,-589.7"/>
<text text-anchor="start" x="297" y="-596.8" font-family="Helvetica,sans-Serif" font-size="11.00" fill="#000000">CREATED_DATETIME</text>
<polygon fill="none" stroke="#000000" points="446,-589.7 446,-611.7 513,-611.7 513,-589.7 446,-589.7"/>
<text text-anchor="start" x="449" y="-597.4" font-family="Helvetica,sans-Serif" font-size="11.00" fill="#000000">date[7]</text>
<polygon fill="none" stroke="#000000" points="277,-567.7 277,-589.7 446,-589.7 446,-567.7 277,-567.7"/>
<text text-anchor="start" x="295.0531" y="-574.8" font-family="Helvetica,sans-Serif" font-size="11.00" fill="#000000">LAST_UPDATED_DATETIME</text>
<polygon fill="none" stroke="#000000" points="446,-567.7 446,-589.7 513,-589.7 513,-567.7 446,-567.7"/>
<text text-anchor="start" x="449" y="-575.4" font-family="Helvetica,sans-Serif" font-size="11.00" fill="#000000">date[7]</text>
<polygon fill="none" stroke="#000000" points="277,-545.7 277,-567.7 446,-567.7 446,-545.7 277,-545.7"/>
<image xlink:href="../../images/primaryKeys.png" width="11px" height="12px" preserveAspectRatio="xMinYMin meet" x="282" y="-562.7"/>
<text text-anchor="start" x="297" y="-552.8" font-family="Helvetica,sans-Serif" font-size="11.00" fill="#000000">OFFENDER_ID</text>
<polygon fill="none" stroke="#000000" points="446,-545.7 446,-567.7 513,-567.7 513,-545.7 446,-545.7"/>
<text text-anchor="start" x="449" y="-553.4" font-family="Helvetica,sans-Serif" font-size="11.00" fill="#000000">number[38]</text>
<polygon fill="none" stroke="#000000" points="277,-523.7 277,-545.7 446,-545.7 446,-523.7 277,-523.7"/>
<image xlink:href="../../images/primaryKeys.png" width="11px" height="12px" preserveAspectRatio="xMinYMin meet" x="282" y="-540.7"/>
<text text-anchor="start" x="292.3042" y="-530.8" font-family="Helvetica,sans-Serif" font-size="11.00" fill="#000000">BUSINESS_INTERACTION_ID</text>
<polygon fill="none" stroke="#000000" points="446,-523.7 446,-545.7 513,-545.7 513,-523.7 446,-523.7"/>
<text text-anchor="start" x="449" y="-531.4" font-family="Helvetica,sans-Serif" font-size="11.00" fill="#000000">number[38]</text>
<polygon fill="none" stroke="#000000" points="277,-501.7 277,-523.7 446,-523.7 446,-501.7 277,-501.7"/>
<text text-anchor="start" x="297" y="-508.8" font-family="Helvetica,sans-Serif" font-size="11.00" fill="#000000">SOURCE_TABLE_NAME</text>
<polygon fill="none" stroke="#000000" points="446,-501.7 446,-523.7 513,-523.7 513,-501.7 446,-501.7"/>
<text text-anchor="start" x="448.9365" y="-509.4" font-family="Helvetica,sans-Serif" font-size="11.00" fill="#000000">varchar2[30]</text>
<polygon fill="none" stroke="#000000" points="277,-479.7 277,-501.7 446,-501.7 446,-479.7 277,-479.7"/>
<text text-anchor="start" x="297" y="-486.8" font-family="Helvetica,sans-Serif" font-size="11.00" fill="#000000">SOURCE_ACTION_FLAG</text>
<polygon fill="none" stroke="#000000" points="446,-479.7 446,-501.7 513,-501.7 513,-479.7 446,-479.7"/>
<text text-anchor="start" x="449" y="-487.4" font-family="Helvetica,sans-Serif" font-size="11.00" fill="#000000">char[1]</text>
<polygon fill="none" stroke="#000000" points="277,-457.7 277,-479.7 446,-479.7 446,-457.7 277,-457.7"/>
<text text-anchor="start" x="297" y="-464.8" font-family="Helvetica,sans-Serif" font-size="11.00" fill="#000000">LAST_UPDATED_USER_ID</text>
<polygon fill="none" stroke="#000000" points="446,-457.7 446,-479.7 513,-479.7 513,-457.7 446,-457.7"/>
<text text-anchor="start" x="449" y="-465.4" font-family="Helvetica,sans-Serif" font-size="11.00" fill="#000000">number[38]</text>
<polygon fill="#ffffff" stroke="transparent" points="277,-438.7 277,-457.7 336,-457.7 336,-438.7 277,-438.7"/>
<polygon fill="none" stroke="#000000" points="277,-438.7 277,-457.7 336,-457.7 336,-438.7 277,-438.7"/>
<text text-anchor="start" x="280" y="-444.8" font-family="Helvetica,sans-Serif" font-size="11.00" fill="#000000">&lt; 2</text>
<polygon fill="#ffffff" stroke="transparent" points="336,-438.7 336,-457.7 446,-457.7 446,-438.7 336,-438.7"/>
<polygon fill="none" stroke="#000000" points="336,-438.7 336,-457.7 446,-457.7 446,-438.7 336,-438.7"/>
<text text-anchor="start" x="376.9791" y="-444.8" font-family="Helvetica,sans-Serif" font-size="11.00" fill="#000000">441,439 rows</text>
<polygon fill="#ffffff" stroke="transparent" points="446,-438.7 446,-457.7 513,-457.7 513,-438.7 446,-438.7"/>
<polygon fill="none" stroke="#000000" points="446,-438.7 446,-457.7 513,-457.7 513,-438.7 446,-438.7"/>
<text text-anchor="start" x="494.4053" y="-444.8" font-family="Helvetica,sans-Serif" font-size="11.00" fill="#000000">0 &gt;</text>
<polygon fill="none" stroke="#000000" stroke-width="2" points="276,-437.7 276,-789.7 514,-789.7 514,-437.7 276,-437.7"/>
</a>
</g>
</g>
<!-- BUSINESS_INTERACTION -->
<g id="node2" class="node">
<title>BUSINESS_INTERACTION</title>
<g id="a_node2"><a xlink:href="../../tables/BUSINESS_INTERACTION.html" xlink:title="BUSINESS_INTERACTION" target="_top">
<polygon fill="#ffffff" stroke="transparent" points="18,-38.2 18,-143.2 216,-143.2 216,-38.2 18,-38.2"/>
<polygon fill="#f5f5f5" stroke="transparent" points="18,-119.7 18,-142.7 216,-142.7 216,-119.7 18,-119.7"/>
<polygon fill="none" stroke="#000000" points="18,-119.7 18,-142.7 216,-142.7 216,-119.7 18,-119.7"/>
<text text-anchor="start" x="23" y="-128.8" font-family="Helvetica,sans-Serif" font-weight="bold" font-size="11.00" fill="#000000">BUSINESS_INTERACTION</text>
<text text-anchor="start" x="181.0437" y="-127.8" font-family="Helvetica,sans-Serif" font-size="11.00" fill="#000000">[table]</text>
<polygon fill="none" stroke="#000000" points="18,-97.7 18,-119.7 216,-119.7 216,-97.7 18,-97.7"/>
<image xlink:href="../../images/primaryKeys.png" width="11px" height="12px" preserveAspectRatio="xMinYMin meet" x="23" y="-114.7"/>
<text text-anchor="start" x="38" y="-104.8" font-family="Helvetica,sans-Serif" font-size="11.00" fill="#000000">BUSINESS_INTERACTION_ID</text>
<polygon fill="none" stroke="#000000" points="18,-75.7 18,-97.7 216,-97.7 216,-75.7 18,-75.7"/>
<image xlink:href="../../images/primaryKeys.png" width="11px" height="12px" preserveAspectRatio="xMinYMin meet" x="23" y="-92.7"/>
<text text-anchor="start" x="37.4158" y="-82.8" font-family="Helvetica,sans-Serif" font-size="11.00" fill="#000000">BUSINESS_INTERACTION_CODE</text>
<polygon fill="none" stroke="#000000" points="18,-56.7 18,-75.7 216,-75.7 216,-56.7 18,-56.7"/>
<text text-anchor="start" x="21" y="-62.8" font-family="Helvetica,sans-Serif" font-size="11.00" fill="#000000">...</text>
<polygon fill="#ffffff" stroke="transparent" points="18,-37.7 18,-56.7 83,-56.7 83,-37.7 18,-37.7"/>
<polygon fill="none" stroke="#000000" points="18,-37.7 18,-56.7 83,-56.7 83,-37.7 18,-37.7"/>
<text text-anchor="start" x="21" y="-43.8" font-family="Helvetica,sans-Serif" font-size="11.00" fill="#000000"> &#160;</text>
<polygon fill="#ffffff" stroke="transparent" points="83,-37.7 83,-56.7 168,-56.7 168,-37.7 83,-37.7"/>
<polygon fill="none" stroke="#000000" points="83,-37.7 83,-56.7 168,-56.7 168,-37.7 83,-37.7"/>
<text text-anchor="start" x="111.2089" y="-43.8" font-family="Helvetica,sans-Serif" font-size="11.00" fill="#000000">1,090 rows</text>
<polygon fill="#ffffff" stroke="transparent" points="168,-37.7 168,-56.7 216,-56.7 216,-37.7 168,-37.7"/>
<polygon fill="none" stroke="#000000" points="168,-37.7 168,-56.7 216,-56.7 216,-37.7 168,-37.7"/>
<text text-anchor="start" x="197.4053" y="-43.8" font-family="Helvetica,sans-Serif" font-size="11.00" fill="#000000">5 &gt;</text>
</a>
</g>
</g>
<!-- SPG_VERSION_ENTRY&#45;&gt;BUSINESS_INTERACTION -->
<g id="edge1" class="edge">
<title>SPG_VERSION_ENTRY:w&#45;&gt;BUSINESS_INTERACTION:e</title>
<path fill="none" stroke="#000000" d="M262.842,-530.7548C195.3995,-487.8089 306.2156,-108.7 216,-108.7"/>
<polygon fill="#000000" stroke="#000000" points="269.2936,-532.5525 276.0336,-538.1679 273.1468,-533.6263 277,-534.7 277,-534.7 277,-534.7 273.1468,-533.6263 277.9664,-531.2321 269.2936,-532.5525 269.2936,-532.5525"/>
<ellipse fill="none" stroke="#000000" cx="266.211" cy="-531.6935" rx="3.2" ry="3.2"/>
</g>
<!-- OFFENDER -->
<g id="node3" class="node">
<title>OFFENDER</title>
<g id="a_node3"><a xlink:href="../../tables/OFFENDER.html" xlink:title="OFFENDER" target="_top">
<polygon fill="#ffffff" stroke="transparent" points="8,-164.2 8,-1017.2 226,-1017.2 226,-164.2 8,-164.2"/>
<polygon fill="#f5f5f5" stroke="transparent" points="8,-993.7 8,-1016.7 226,-1016.7 226,-993.7 8,-993.7"/>
<polygon fill="none" stroke="#000000" points="8,-993.7 8,-1016.7 226,-1016.7 226,-993.7 8,-993.7"/>
<text text-anchor="start" x="13" y="-1002.8" font-family="Helvetica,sans-Serif" font-weight="bold" font-size="11.00" fill="#000000">OFFENDER</text>
<text text-anchor="start" x="191.0437" y="-1001.8" font-family="Helvetica,sans-Serif" font-size="11.00" fill="#000000">[table]</text>
<polygon fill="none" stroke="#000000" points="8,-971.7 8,-993.7 226,-993.7 226,-971.7 8,-971.7"/>
<image xlink:href="../../images/primaryKeys.png" width="11px" height="12px" preserveAspectRatio="xMinYMin meet" x="13" y="-988.7"/>
<text text-anchor="start" x="28" y="-978.8" font-family="Helvetica,sans-Serif" font-size="11.00" fill="#000000">OFFENDER_ID</text>
<polygon fill="none" stroke="#000000" points="8,-949.7 8,-971.7 226,-971.7 226,-949.7 8,-949.7"/>
<image xlink:href="../../images/primaryKeys.png" width="11px" height="12px" preserveAspectRatio="xMinYMin meet" x="13" y="-966.7"/>
<text text-anchor="start" x="28" y="-956.8" font-family="Helvetica,sans-Serif" font-size="11.00" fill="#000000">FIRST_NAME</text>
<polygon fill="none" stroke="#000000" points="8,-927.7 8,-949.7 226,-949.7 226,-927.7 8,-927.7"/>
<image xlink:href="../../images/primaryKeys.png" width="11px" height="12px" preserveAspectRatio="xMinYMin meet" x="13" y="-944.7"/>
<text text-anchor="start" x="28" y="-934.8" font-family="Helvetica,sans-Serif" font-size="11.00" fill="#000000">CRN</text>
<polygon fill="none" stroke="#000000" points="8,-905.7 8,-927.7 226,-927.7 226,-905.7 8,-905.7"/>
<image xlink:href="../../images/primaryKeys.png" width="11px" height="12px" preserveAspectRatio="xMinYMin meet" x="13" y="-922.7"/>
<text text-anchor="start" x="28" y="-912.8" font-family="Helvetica,sans-Serif" font-size="11.00" fill="#000000">SECOND_NAME</text>
<polygon fill="none" stroke="#000000" points="8,-883.7 8,-905.7 226,-905.7 226,-883.7 8,-883.7"/>
<image xlink:href="../../images/primaryKeys.png" width="11px" height="12px" preserveAspectRatio="xMinYMin meet" x="13" y="-900.7"/>
<text text-anchor="start" x="28" y="-890.8" font-family="Helvetica,sans-Serif" font-size="11.00" fill="#000000">PNC_NUMBER</text>
<polygon fill="none" stroke="#000000" points="8,-861.7 8,-883.7 226,-883.7 226,-861.7 8,-861.7"/>
<image xlink:href="../../images/primaryKeys.png" width="11px" height="12px" preserveAspectRatio="xMinYMin meet" x="13" y="-878.7"/>
<text text-anchor="start" x="28" y="-868.8" font-family="Helvetica,sans-Serif" font-size="11.00" fill="#000000">THIRD_NAME</text>
<polygon fill="none" stroke="#000000" points="8,-839.7 8,-861.7 226,-861.7 226,-839.7 8,-839.7"/>
<image xlink:href="../../images/primaryKeys.png" width="11px" height="12px" preserveAspectRatio="xMinYMin meet" x="13" y="-856.7"/>
<text text-anchor="start" x="28" y="-846.8" font-family="Helvetica,sans-Serif" font-size="11.00" fill="#000000">CRO_NUMBER</text>
<polygon fill="none" stroke="#000000" points="8,-817.7 8,-839.7 226,-839.7 226,-817.7 8,-817.7"/>
<image xlink:href="../../images/primaryKeys.png" width="11px" height="12px" preserveAspectRatio="xMinYMin meet" x="13" y="-834.7"/>
<text text-anchor="start" x="28" y="-824.8" font-family="Helvetica,sans-Serif" font-size="11.00" fill="#000000">SURNAME</text>
<polygon fill="none" stroke="#000000" points="8,-795.7 8,-817.7 226,-817.7 226,-795.7 8,-795.7"/>
<image xlink:href="../../images/primaryKeys.png" width="11px" height="12px" preserveAspectRatio="xMinYMin meet" x="13" y="-812.7"/>
<text text-anchor="start" x="28" y="-802.8" font-family="Helvetica,sans-Serif" font-size="11.00" fill="#000000">NOMS_NUMBER</text>
<polygon fill="none" stroke="#000000" points="8,-773.7 8,-795.7 226,-795.7 226,-773.7 8,-773.7"/>
<image xlink:href="../../images/primaryKeys.png" width="11px" height="12px" preserveAspectRatio="xMinYMin meet" x="13" y="-790.7"/>
<text text-anchor="start" x="28" y="-780.8" font-family="Helvetica,sans-Serif" font-size="11.00" fill="#000000">DATE_OF_BIRTH_DATE</text>
<polygon fill="none" stroke="#000000" points="8,-751.7 8,-773.7 226,-773.7 226,-751.7 8,-751.7"/>
<image xlink:href="../../images/primaryKeys.png" width="11px" height="12px" preserveAspectRatio="xMinYMin meet" x="13" y="-768.7"/>
<text text-anchor="start" x="28" y="-758.8" font-family="Helvetica,sans-Serif" font-size="11.00" fill="#000000">NI_NUMBER</text>
<polygon fill="none" stroke="#000000" points="8,-729.7 8,-751.7 226,-751.7 226,-729.7 8,-729.7"/>
<image xlink:href="../../images/primaryKeys.png" width="11px" height="12px" preserveAspectRatio="xMinYMin meet" x="13" y="-746.7"/>
<text text-anchor="start" x="28" y="-736.8" font-family="Helvetica,sans-Serif" font-size="11.00" fill="#000000">IMMIGRATION_NUMBER</text>
<polygon fill="none" stroke="#000000" points="8,-707.7 8,-729.7 226,-729.7 226,-707.7 8,-707.7"/>
<image xlink:href="../../images/primaryKeys.png" width="11px" height="12px" preserveAspectRatio="xMinYMin meet" x="13" y="-724.7"/>
<text text-anchor="start" x="28" y="-714.8" font-family="Helvetica,sans-Serif" font-size="11.00" fill="#000000">PARTITION_AREA_ID</text>
<polygon fill="none" stroke="#000000" points="8,-685.7 8,-707.7 226,-707.7 226,-685.7 8,-685.7"/>
<image xlink:href="../../images/primaryKeys.png" width="11px" height="12px" preserveAspectRatio="xMinYMin meet" x="13" y="-702.7"/>
<text text-anchor="start" x="28" y="-692.8" font-family="Helvetica,sans-Serif" font-size="11.00" fill="#000000">SOFT_DELETED</text>
<polygon fill="none" stroke="#000000" points="8,-663.7 8,-685.7 226,-685.7 226,-663.7 8,-663.7"/>
<image xlink:href="../../images/primaryKeys.png" width="11px" height="12px" preserveAspectRatio="xMinYMin meet" x="13" y="-680.7"/>
<text text-anchor="start" x="28" y="-670.8" font-family="Helvetica,sans-Serif" font-size="11.00" fill="#000000">TITLE_ID</text>
<polygon fill="none" stroke="#000000" points="8,-641.7 8,-663.7 226,-663.7 226,-641.7 8,-641.7"/>
<image xlink:href="../../images/primaryKeys.png" width="11px" height="12px" preserveAspectRatio="xMinYMin meet" x="13" y="-658.7"/>
<text text-anchor="start" x="28" y="-648.8" font-family="Helvetica,sans-Serif" font-size="11.00" fill="#000000">GENDER_ID</text>
<polygon fill="none" stroke="#000000" points="8,-619.7 8,-641.7 226,-641.7 226,-619.7 8,-619.7"/>
<image xlink:href="../../images/primaryKeys.png" width="11px" height="12px" preserveAspectRatio="xMinYMin meet" x="13" y="-636.7"/>
<text text-anchor="start" x="28" y="-626.8" font-family="Helvetica,sans-Serif" font-size="11.00" fill="#000000">ETHNICITY_ID</text>
<polygon fill="none" stroke="#000000" points="8,-597.7 8,-619.7 226,-619.7 226,-597.7 8,-597.7"/>
<image xlink:href="../../images/primaryKeys.png" width="11px" height="12px" preserveAspectRatio="xMinYMin meet" x="13" y="-614.7"/>
<text text-anchor="start" x="28" y="-604.8" font-family="Helvetica,sans-Serif" font-size="11.00" fill="#000000">NATIONALITY_ID</text>
<polygon fill="none" stroke="#000000" points="8,-575.7 8,-597.7 226,-597.7 226,-575.7 8,-575.7"/>
<image xlink:href="../../images/primaryKeys.png" width="11px" height="12px" preserveAspectRatio="xMinYMin meet" x="13" y="-592.7"/>
<text text-anchor="start" x="28" y="-582.8" font-family="Helvetica,sans-Serif" font-size="11.00" fill="#000000">IMMIGRATION_STATUS_ID</text>
<polygon fill="none" stroke="#000000" points="8,-553.7 8,-575.7 226,-575.7 226,-553.7 8,-553.7"/>
<image xlink:href="../../images/primaryKeys.png" width="11px" height="12px" preserveAspectRatio="xMinYMin meet" x="13" y="-570.7"/>
<text text-anchor="start" x="28" y="-560.8" font-family="Helvetica,sans-Serif" font-size="11.00" fill="#000000">LANGUAGE_ID</text>
<polygon fill="none" stroke="#000000" points="8,-531.7 8,-553.7 226,-553.7 226,-531.7 8,-531.7"/>
<image xlink:href="../../images/primaryKeys.png" width="11px" height="12px" preserveAspectRatio="xMinYMin meet" x="13" y="-548.7"/>
<text text-anchor="start" x="28" y="-538.8" font-family="Helvetica,sans-Serif" font-size="11.00" fill="#000000">RELIGION_ID</text>
<polygon fill="none" stroke="#000000" points="8,-509.7 8,-531.7 226,-531.7 226,-509.7 8,-509.7"/>
<image xlink:href="../../images/primaryKeys.png" width="11px" height="12px" preserveAspectRatio="xMinYMin meet" x="13" y="-526.7"/>
<text text-anchor="start" x="28" y="-516.8" font-family="Helvetica,sans-Serif" font-size="11.00" fill="#000000">SURNAME_SOUNDEX</text>
<polygon fill="none" stroke="#000000" points="8,-487.7 8,-509.7 226,-509.7 226,-487.7 8,-487.7"/>
<image xlink:href="../../images/primaryKeys.png" width="11px" height="12px" preserveAspectRatio="xMinYMin meet" x="13" y="-504.7"/>
<text text-anchor="start" x="28" y="-494.8" font-family="Helvetica,sans-Serif" font-size="11.00" fill="#000000">SECOND_NATIONALITY_ID</text>
<polygon fill="none" stroke="#000000" points="8,-465.7 8,-487.7 226,-487.7 226,-465.7 8,-465.7"/>
<image xlink:href="../../images/primaryKeys.png" width="11px" height="12px" preserveAspectRatio="xMinYMin meet" x="13" y="-482.7"/>
<text text-anchor="start" x="28" y="-472.8" font-family="Helvetica,sans-Serif" font-size="11.00" fill="#000000">SEXUAL_ORIENTATION_ID</text>
<polygon fill="none" stroke="#000000" points="8,-443.7 8,-465.7 226,-465.7 226,-443.7 8,-443.7"/>
<image xlink:href="../../images/primaryKeys.png" width="11px" height="12px" preserveAspectRatio="xMinYMin meet" x="13" y="-460.7"/>
<text text-anchor="start" x="28" y="-450.8" font-family="Helvetica,sans-Serif" font-size="11.00" fill="#000000">CURRENT_EXCLUSION</text>
<polygon fill="none" stroke="#000000" points="8,-421.7 8,-443.7 226,-443.7 226,-421.7 8,-421.7"/>
<image xlink:href="../../images/primaryKeys.png" width="11px" height="12px" preserveAspectRatio="xMinYMin meet" x="13" y="-438.7"/>
<text text-anchor="start" x="28" y="-428.8" font-family="Helvetica,sans-Serif" font-size="11.00" fill="#000000">TRAINING_SESSION_ID</text>
<polygon fill="none" stroke="#000000" points="8,-399.7 8,-421.7 226,-421.7 226,-399.7 8,-399.7"/>
<image xlink:href="../../images/primaryKeys.png" width="11px" height="12px" preserveAspectRatio="xMinYMin meet" x="13" y="-416.7"/>
<text text-anchor="start" x="28" y="-406.8" font-family="Helvetica,sans-Serif" font-size="11.00" fill="#000000">CURRENT_DISPOSAL</text>
<polygon fill="none" stroke="#000000" points="8,-377.7 8,-399.7 226,-399.7 226,-377.7 8,-377.7"/>
<image xlink:href="../../images/primaryKeys.png" width="11px" height="12px" preserveAspectRatio="xMinYMin meet" x="13" y="-394.7"/>
<text text-anchor="start" x="27.6433" y="-384.8" font-family="Helvetica,sans-Serif" font-size="11.00" fill="#000000">CURRENT_HIGHEST_RISK_COLOUR</text>
<polygon fill="none" stroke="#000000" points="8,-355.7 8,-377.7 226,-377.7 226,-355.7 8,-355.7"/>
<image xlink:href="../../images/primaryKeys.png" width="11px" height="12px" preserveAspectRatio="xMinYMin meet" x="13" y="-372.7"/>
<text text-anchor="start" x="28" y="-362.8" font-family="Helvetica,sans-Serif" font-size="11.00" fill="#000000">CURRENT_RESTRICTION</text>
<polygon fill="none" stroke="#000000" points="8,-333.7 8,-355.7 226,-355.7 226,-333.7 8,-333.7"/>
<image xlink:href="../../images/primaryKeys.png" width="11px" height="12px" preserveAspectRatio="xMinYMin meet" x="13" y="-350.7"/>
<text text-anchor="start" x="28" y="-340.8" font-family="Helvetica,sans-Serif" font-size="11.00" fill="#000000">INSTITUTION_ID</text>
<polygon fill="none" stroke="#000000" points="8,-311.7 8,-333.7 226,-333.7 226,-311.7 8,-311.7"/>
<image xlink:href="../../images/primaryKeys.png" width="11px" height="12px" preserveAspectRatio="xMinYMin meet" x="13" y="-328.7"/>
<text text-anchor="start" x="28" y="-318.8" font-family="Helvetica,sans-Serif" font-size="11.00" fill="#000000">ESTABLISHMENT</text>
<polygon fill="none" stroke="#000000" points="8,-289.7 8,-311.7 226,-311.7 226,-289.7 8,-289.7"/>
<image xlink:href="../../images/primaryKeys.png" width="11px" height="12px" preserveAspectRatio="xMinYMin meet" x="13" y="-306.7"/>
<text text-anchor="start" x="28" y="-296.8" font-family="Helvetica,sans-Serif" font-size="11.00" fill="#000000">CURRENT_TIER</text>
<polygon fill="none" stroke="#000000" points="8,-267.7 8,-289.7 226,-289.7 226,-267.7 8,-267.7"/>
<image xlink:href="../../images/primaryKeys.png" width="11px" height="12px" preserveAspectRatio="xMinYMin meet" x="13" y="-284.7"/>
<text text-anchor="start" x="28" y="-274.8" font-family="Helvetica,sans-Serif" font-size="11.00" fill="#000000">OM_ALLOCATION_DECISION_ID</text>
<polygon fill="none" stroke="#000000" points="8,-245.7 8,-267.7 226,-267.7 226,-245.7 8,-245.7"/>
<image xlink:href="../../images/primaryKeys.png" width="11px" height="12px" preserveAspectRatio="xMinYMin meet" x="13" y="-262.7"/>
<text text-anchor="start" x="28" y="-252.8" font-family="Helvetica,sans-Serif" font-size="11.00" fill="#000000">TRANSGENDER_PROCESS_ID</text>
<polygon fill="none" stroke="#000000" points="8,-223.7 8,-245.7 226,-245.7 226,-223.7 8,-223.7"/>
<image xlink:href="../../images/primaryKeys.png" width="11px" height="12px" preserveAspectRatio="xMinYMin meet" x="13" y="-240.7"/>
<text text-anchor="start" x="28" y="-230.8" font-family="Helvetica,sans-Serif" font-size="11.00" fill="#000000">PREFERRED_NAME</text>
<polygon fill="none" stroke="#000000" points="8,-201.7 8,-223.7 226,-223.7 226,-201.7 8,-201.7"/>
<image xlink:href="../../images/primaryKeys.png" width="11px" height="12px" preserveAspectRatio="xMinYMin meet" x="13" y="-218.7"/>
<text text-anchor="start" x="28" y="-208.8" font-family="Helvetica,sans-Serif" font-size="11.00" fill="#000000">GENDER_IDENTITY_ID</text>
<polygon fill="none" stroke="#000000" points="8,-182.7 8,-201.7 226,-201.7 226,-182.7 8,-182.7"/>
<text text-anchor="start" x="11" y="-188.8" font-family="Helvetica,sans-Serif" font-size="11.00" fill="#000000">...</text>
<polygon fill="#ffffff" stroke="transparent" points="8,-163.7 8,-182.7 81,-182.7 81,-163.7 8,-163.7"/>
<polygon fill="none" stroke="#000000" points="8,-163.7 8,-182.7 81,-182.7 81,-163.7 8,-163.7"/>
<text text-anchor="start" x="11" y="-169.8" font-family="Helvetica,sans-Serif" font-size="11.00" fill="#000000">&lt; 16</text>
<polygon fill="#ffffff" stroke="transparent" points="81,-163.7 81,-182.7 169,-182.7 169,-163.7 81,-163.7"/>
<polygon fill="none" stroke="#000000" points="81,-163.7 81,-182.7 169,-182.7 169,-163.7 81,-163.7"/>
<text text-anchor="start" x="106.094" y="-169.8" font-family="Helvetica,sans-Serif" font-size="11.00" fill="#000000">18,527 rows</text>
<polygon fill="#ffffff" stroke="transparent" points="169,-163.7 169,-182.7 226,-182.7 226,-163.7 169,-163.7"/>
<polygon fill="none" stroke="#000000" points="169,-163.7 169,-182.7 226,-182.7 226,-163.7 169,-163.7"/>
<text text-anchor="start" x="195.1755" y="-169.8" font-family="Helvetica,sans-Serif" font-size="11.00" fill="#000000">103 &gt;</text>
</a>
</g>
</g>
<!-- SPG_VERSION_ENTRY&#45;&gt;OFFENDER -->
<g id="edge2" class="edge">
<title>SPG_VERSION_ENTRY:w&#45;&gt;OFFENDER:e</title>
<path fill="none" stroke="#000000" d="M262.5053,-557.6381C103.9922,-579.6784 411.4713,-982.7 226,-982.7"/>
<polygon fill="#000000" stroke="#000000" points="269.0167,-557.2167 277.2325,-560.2925 273.0084,-556.9584 277,-556.7 277,-556.7 277,-556.7 273.0084,-556.9584 276.7675,-553.1075 269.0167,-557.2167 269.0167,-557.2167"/>
<ellipse fill="none" stroke="#000000" cx="265.8234" cy="-557.4234" rx="3.2" ry="3.2"/>
</g>
</g>
</svg>
