<?xml version="1.0" encoding="UTF-8" standalone="no"?>
<!DOCTYPE svg PUBLIC "-//W3C//DTD SVG 1.1//EN"
 "http://www.w3.org/Graphics/SVG/1.1/DTD/svg11.dtd">
<!-- Generated by graphviz version 2.40.1 (20161225.0304)
 -->
<!-- Title: oneDegreeRelationshipsDiagramImplied Pages: 1 -->
<svg width="461pt" height="316pt"
 viewBox="0.00 0.00 461.00 316.20" xmlns="http://www.w3.org/2000/svg" xmlns:xlink="http://www.w3.org/1999/xlink">
<g id="graph0" class="graph" transform="scale(1 1) rotate(0) translate(4 312.2)">
<title>oneDegreeRelationshipsDiagramImplied</title>
<polygon fill="#ffffff" stroke="transparent" points="-4,4 -4,-312.2 457,-312.2 457,4 -4,4"/>
<text text-anchor="middle" x="72.4936" y="-7.3" font-family="Helvetica,sans-Serif" font-size="11.00" fill="#000000">Generated by SchemaSpy</text>
<!-- SPG_MESSAGE_LOG -->
<g id="node1" class="node">
<title>SPG_MESSAGE_LOG</title>
<g id="a_node1"><a xlink:href="../../tables/SPG_MESSAGE_LOG.html" xlink:title="SPG_MESSAGE_LOG" target="_top">
<polygon fill="#ffffff" stroke="transparent" points="198,-38.2 198,-304.2 445,-304.2 445,-38.2 198,-38.2"/>
<polygon fill="#f5f5f5" stroke="transparent" points="200.5,-279.2 200.5,-302.2 443.5,-302.2 443.5,-279.2 200.5,-279.2"/>
<polygon fill="none" stroke="#000000" points="200.5,-279.2 200.5,-302.2 443.5,-302.2 443.5,-279.2 200.5,-279.2"/>
<text text-anchor="start" x="205.5" y="-288.3" font-family="Helvetica,sans-Serif" font-weight="bold" font-size="11.00" fill="#000000">SPG_MESSAGE_LOG</text>
<text text-anchor="start" x="408.5437" y="-287.3" font-family="Helvetica,sans-Serif" font-size="11.00" fill="#000000">[table]</text>
<polygon fill="none" stroke="#000000" points="200.5,-257.2 200.5,-279.2 346.5,-279.2 346.5,-257.2 200.5,-257.2"/>
<image xlink:href="../../images/primaryKeys.png" width="11px" height="12px" preserveAspectRatio="xMinYMin meet" x="205.5" y="-274.2"/>
<text text-anchor="start" x="215.9009" y="-264.3" font-family="Helvetica,sans-Serif" font-size="11.00" fill="#000000">SPG_MESSAGE_LOG_ID</text>
<polygon fill="none" stroke="#000000" points="346.5,-257.2 346.5,-279.2 443.5,-279.2 443.5,-257.2 346.5,-257.2"/>
<text text-anchor="start" x="349.5" y="-264.9" font-family="Helvetica,sans-Serif" font-size="11.00" fill="#000000">number[38]</text>
<polygon fill="none" stroke="#000000" points="200.5,-235.2 200.5,-257.2 346.5,-257.2 346.5,-235.2 200.5,-235.2"/>
<text text-anchor="start" x="218.6614" y="-242.3" font-family="Helvetica,sans-Serif" font-size="11.00" fill="#000000">MESSAGE_TIMESTAMP</text>
<polygon fill="none" stroke="#000000" points="346.5,-235.2 346.5,-257.2 443.5,-257.2 443.5,-235.2 346.5,-235.2"/>
<text text-anchor="start" x="349.1614" y="-242.9" font-family="Helvetica,sans-Serif" font-size="11.00" fill="#000000">timestamp(6)[11,6]</text>
<polygon fill="none" stroke="#000000" points="200.5,-213.2 200.5,-235.2 346.5,-235.2 346.5,-213.2 200.5,-213.2"/>
<text text-anchor="start" x="220.5" y="-220.3" font-family="Helvetica,sans-Serif" font-size="11.00" fill="#000000">MESSAGE_TYPE_ID</text>
<polygon fill="none" stroke="#000000" points="346.5,-213.2 346.5,-235.2 443.5,-235.2 443.5,-213.2 346.5,-213.2"/>
<text text-anchor="start" x="349.5" y="-220.9" font-family="Helvetica,sans-Serif" font-size="11.00" fill="#000000">number[38]</text>
<polygon fill="none" stroke="#000000" points="200.5,-191.2 200.5,-213.2 346.5,-213.2 346.5,-191.2 200.5,-191.2"/>
<text text-anchor="start" x="220.5" y="-198.3" font-family="Helvetica,sans-Serif" font-size="11.00" fill="#000000">COMPONENT_CODE</text>
<polygon fill="none" stroke="#000000" points="346.5,-191.2 346.5,-213.2 443.5,-213.2 443.5,-191.2 346.5,-191.2"/>
<text text-anchor="start" x="349.5" y="-198.9" font-family="Helvetica,sans-Serif" font-size="11.00" fill="#000000">varchar2[30]</text>
<polygon fill="none" stroke="#000000" points="200.5,-169.2 200.5,-191.2 346.5,-191.2 346.5,-169.2 200.5,-169.2"/>
<text text-anchor="start" x="220.5" y="-176.3" font-family="Helvetica,sans-Serif" font-size="11.00" fill="#000000">PACKAGE_NAME</text>
<polygon fill="none" stroke="#000000" points="346.5,-169.2 346.5,-191.2 443.5,-191.2 443.5,-169.2 346.5,-169.2"/>
<text text-anchor="start" x="349.5" y="-176.9" font-family="Helvetica,sans-Serif" font-size="11.00" fill="#000000">varchar2[30]</text>
<polygon fill="none" stroke="#000000" points="200.5,-147.2 200.5,-169.2 346.5,-169.2 346.5,-147.2 200.5,-147.2"/>
<text text-anchor="start" x="220.5" y="-154.3" font-family="Helvetica,sans-Serif" font-size="11.00" fill="#000000">PROCEDURE_NAME</text>
<polygon fill="none" stroke="#000000" points="346.5,-147.2 346.5,-169.2 443.5,-169.2 443.5,-147.2 346.5,-147.2"/>
<text text-anchor="start" x="349.5" y="-154.9" font-family="Helvetica,sans-Serif" font-size="11.00" fill="#000000">varchar2[30]</text>
<polygon fill="none" stroke="#000000" points="200.5,-125.2 200.5,-147.2 346.5,-147.2 346.5,-125.2 200.5,-125.2"/>
<text text-anchor="start" x="220.5" y="-132.3" font-family="Helvetica,sans-Serif" font-size="11.00" fill="#000000">LABEL</text>
<polygon fill="none" stroke="#000000" points="346.5,-125.2 346.5,-147.2 443.5,-147.2 443.5,-125.2 346.5,-125.2"/>
<text text-anchor="start" x="349.5" y="-132.9" font-family="Helvetica,sans-Serif" font-size="11.00" fill="#000000">varchar2[10]</text>
<polygon fill="none" stroke="#000000" points="200.5,-103.2 200.5,-125.2 346.5,-125.2 346.5,-103.2 200.5,-103.2"/>
<text text-anchor="start" x="220.5" y="-110.3" font-family="Helvetica,sans-Serif" font-size="11.00" fill="#000000">MESSAGE_TEXT</text>
<polygon fill="none" stroke="#000000" points="346.5,-103.2 346.5,-125.2 443.5,-125.2 443.5,-103.2 346.5,-103.2"/>
<text text-anchor="start" x="349.5" y="-110.9" font-family="Helvetica,sans-Serif" font-size="11.00" fill="#000000">varchar2[4000]</text>
<polygon fill="none" stroke="#000000" points="200.5,-81.2 200.5,-103.2 346.5,-103.2 346.5,-81.2 200.5,-81.2"/>
<image xlink:href="../../images/foreignKeys.png" width="11px" height="12px" preserveAspectRatio="xMinYMin meet" x="205.5" y="-98.2"/>
<text text-anchor="start" x="220.5" y="-88.3" font-family="Helvetica,sans-Serif" font-size="11.00" fill="#000000">SPG_ERROR_LOG_ID</text>
<polygon fill="none" stroke="#000000" points="346.5,-81.2 346.5,-103.2 443.5,-103.2 443.5,-81.2 346.5,-81.2"/>
<text text-anchor="start" x="349.5" y="-88.9" font-family="Helvetica,sans-Serif" font-size="11.00" fill="#000000">number[38]</text>
<polygon fill="none" stroke="#000000" points="200.5,-59.2 200.5,-81.2 346.5,-81.2 346.5,-59.2 200.5,-59.2"/>
<text text-anchor="start" x="220.5" y="-66.3" font-family="Helvetica,sans-Serif" font-size="11.00" fill="#000000">INSTANCE_ID</text>
<polygon fill="none" stroke="#000000" points="346.5,-59.2 346.5,-81.2 443.5,-81.2 443.5,-59.2 346.5,-59.2"/>
<text text-anchor="start" x="349.5" y="-66.9" font-family="Helvetica,sans-Serif" font-size="11.00" fill="#000000">number[38]</text>
<polygon fill="#ffffff" stroke="transparent" points="200.5,-40.2 200.5,-59.2 240.5,-59.2 240.5,-40.2 200.5,-40.2"/>
<polygon fill="none" stroke="#000000" points="200.5,-40.2 200.5,-59.2 240.5,-59.2 240.5,-40.2 200.5,-40.2"/>
<text text-anchor="start" x="203.5" y="-46.3" font-family="Helvetica,sans-Serif" font-size="11.00" fill="#000000">&lt; 1</text>
<polygon fill="#ffffff" stroke="transparent" points="240.5,-40.2 240.5,-59.2 346.5,-59.2 346.5,-40.2 240.5,-40.2"/>
<polygon fill="none" stroke="#000000" points="240.5,-40.2 240.5,-59.2 346.5,-59.2 346.5,-40.2 240.5,-40.2"/>
<text text-anchor="start" x="262.1924" y="-46.3" font-family="Helvetica,sans-Serif" font-size="11.00" fill="#000000">92,042,847 rows</text>
<polygon fill="#ffffff" stroke="transparent" points="346.5,-40.2 346.5,-59.2 443.5,-59.2 443.5,-40.2 346.5,-40.2"/>
<polygon fill="none" stroke="#000000" points="346.5,-40.2 346.5,-59.2 443.5,-59.2 443.5,-40.2 346.5,-40.2"/>
<text text-anchor="start" x="424.9053" y="-46.3" font-family="Helvetica,sans-Serif" font-size="11.00" fill="#000000">0 &gt;</text>
<polygon fill="none" stroke="#000000" stroke-width="2" points="199,-39.2 199,-303.2 444,-303.2 444,-39.2 199,-39.2"/>
</a>
</g>
</g>
<!-- SPG_ERROR_LOG -->
<g id="node2" class="node">
<title>SPG_ERROR_LOG</title>
<g id="a_node2"><a xlink:href="../../tables/SPG_ERROR_LOG.html" xlink:title="SPG_ERROR_LOG" target="_top">
<polygon fill="#ffffff" stroke="transparent" points="8,-43.7 8,-126.7 149,-126.7 149,-43.7 8,-43.7"/>
<polygon fill="#f5f5f5" stroke="transparent" points="8.5,-103.2 8.5,-126.2 149.5,-126.2 149.5,-103.2 8.5,-103.2"/>
<polygon fill="none" stroke="#000000" points="8.5,-103.2 8.5,-126.2 149.5,-126.2 149.5,-103.2 8.5,-103.2"/>
<text text-anchor="start" x="13.2986" y="-112.3" font-family="Helvetica,sans-Serif" font-weight="bold" font-size="11.00" fill="#000000">SPG_ERROR_LOG</text>
<text text-anchor="start" x="115.0219" y="-111.3" font-family="Helvetica,sans-Serif" font-size="11.00" fill="#000000">[table]</text>
<polygon fill="none" stroke="#000000" points="8.5,-81.2 8.5,-103.2 149.5,-103.2 149.5,-81.2 8.5,-81.2"/>
<image xlink:href="../../images/primaryKeys.png" width="11px" height="12px" preserveAspectRatio="xMinYMin meet" x="13.5" y="-98.2"/>
<text text-anchor="start" x="29.2423" y="-88.3" font-family="Helvetica,sans-Serif" font-size="11.00" fill="#000000">SPG_ERROR_LOG_ID</text>
<polygon fill="none" stroke="#000000" points="8.5,-62.2 8.5,-81.2 149.5,-81.2 149.5,-62.2 8.5,-62.2"/>
<text text-anchor="start" x="11.5" y="-68.3" font-family="Helvetica,sans-Serif" font-size="11.00" fill="#000000">...</text>
<polygon fill="#ffffff" stroke="transparent" points="8.5,-43.2 8.5,-62.2 41.5,-62.2 41.5,-43.2 8.5,-43.2"/>
<polygon fill="none" stroke="#000000" points="8.5,-43.2 8.5,-62.2 41.5,-62.2 41.5,-43.2 8.5,-43.2"/>
<text text-anchor="start" x="11.5" y="-49.3" font-family="Helvetica,sans-Serif" font-size="11.00" fill="#000000"> &#160;</text>
<polygon fill="#ffffff" stroke="transparent" points="41.5,-43.2 41.5,-62.2 117.5,-62.2 117.5,-43.2 41.5,-43.2"/>
<polygon fill="none" stroke="#000000" points="41.5,-43.2 41.5,-62.2 117.5,-62.2 117.5,-43.2 41.5,-43.2"/>
<text text-anchor="start" x="54.594" y="-49.3" font-family="Helvetica,sans-Serif" font-size="11.00" fill="#000000">14,533 rows</text>
<polygon fill="#ffffff" stroke="transparent" points="117.5,-43.2 117.5,-62.2 149.5,-62.2 149.5,-43.2 117.5,-43.2"/>
<polygon fill="none" stroke="#000000" points="117.5,-43.2 117.5,-62.2 149.5,-62.2 149.5,-43.2 117.5,-43.2"/>
<text text-anchor="start" x="130.9053" y="-49.3" font-family="Helvetica,sans-Serif" font-size="11.00" fill="#000000">1 &gt;</text>
</a>
</g>
</g>
<!-- SPG_MESSAGE_LOG&#45;&gt;SPG_ERROR_LOG -->
<g id="edge1" class="edge">
<title>SPG_MESSAGE_LOG:w&#45;&gt;SPG_ERROR_LOG:e</title>
<path fill="none" stroke="#000000" stroke-dasharray="5,2" d="M185.776,-92.2C173.7815,-92.2 166.3229,-92.2 149.5,-92.2"/>
<polygon fill="#000000" stroke="#000000" points="192.5,-92.2001 200.5,-95.8 196.5,-92.2 200.5,-92.2 200.5,-92.2 200.5,-92.2 196.5,-92.2 200.5,-88.6 192.5,-92.2001 192.5,-92.2001"/>
<ellipse fill="none" stroke="#000000" cx="189.3" cy="-92.2001" rx="3.2" ry="3.2"/>
</g>
</g>
</svg>
