<?xml version="1.0" encoding="UTF-8" standalone="no"?>
<!DOCTYPE svg PUBLIC "-//W3C//DTD SVG 1.1//EN"
 "http://www.w3.org/Graphics/SVG/1.1/DTD/svg11.dtd">
<!-- Generated by graphviz version 2.40.1 (20161225.0304)
 -->
<!-- Title: oneDegreeRelationshipsDiagram Pages: 1 -->
<svg width="271pt" height="316pt"
 viewBox="0.00 0.00 271.00 316.20" xmlns="http://www.w3.org/2000/svg" xmlns:xlink="http://www.w3.org/1999/xlink">
<g id="graph0" class="graph" transform="scale(1 1) rotate(0) translate(4 312.2)">
<title>oneDegreeRelationshipsDiagram</title>
<polygon fill="#ffffff" stroke="transparent" points="-4,4 -4,-312.2 267,-312.2 267,4 -4,4"/>
<text text-anchor="middle" x="72.4936" y="-7.3" font-family="Helvetica,sans-Serif" font-size="11.00" fill="#000000">Generated by SchemaSpy</text>
<!-- SPG_MESSAGE_LOG -->
<g id="node1" class="node">
<title>SPG_MESSAGE_LOG</title>
<g id="a_node1"><a xlink:href="../../tables/SPG_MESSAGE_LOG.html" xlink:title="SPG_MESSAGE_LOG" target="_top">
<polygon fill="#ffffff" stroke="transparent" points="8,-38.2 8,-304.2 255,-304.2 255,-38.2 8,-38.2"/>
<polygon fill="#f5f5f5" stroke="transparent" points="10.5,-279.2 10.5,-302.2 253.5,-302.2 253.5,-279.2 10.5,-279.2"/>
<polygon fill="none" stroke="#000000" points="10.5,-279.2 10.5,-302.2 253.5,-302.2 253.5,-279.2 10.5,-279.2"/>
<text text-anchor="start" x="15.5" y="-288.3" font-family="Helvetica,sans-Serif" font-weight="bold" font-size="11.00" fill="#000000">SPG_MESSAGE_LOG</text>
<text text-anchor="start" x="218.5437" y="-287.3" font-family="Helvetica,sans-Serif" font-size="11.00" fill="#000000">[table]</text>
<polygon fill="none" stroke="#000000" points="10.5,-257.2 10.5,-279.2 156.5,-279.2 156.5,-257.2 10.5,-257.2"/>
<image xlink:href="../../images/primaryKeys.png" width="11px" height="12px" preserveAspectRatio="xMinYMin meet" x="15.5" y="-274.2"/>
<text text-anchor="start" x="25.9009" y="-264.3" font-family="Helvetica,sans-Serif" font-size="11.00" fill="#000000">SPG_MESSAGE_LOG_ID</text>
<polygon fill="none" stroke="#000000" points="156.5,-257.2 156.5,-279.2 253.5,-279.2 253.5,-257.2 156.5,-257.2"/>
<text text-anchor="start" x="159.5" y="-264.9" font-family="Helvetica,sans-Serif" font-size="11.00" fill="#000000">number[38]</text>
<polygon fill="none" stroke="#000000" points="10.5,-235.2 10.5,-257.2 156.5,-257.2 156.5,-235.2 10.5,-235.2"/>
<text text-anchor="start" x="28.6614" y="-242.3" font-family="Helvetica,sans-Serif" font-size="11.00" fill="#000000">MESSAGE_TIMESTAMP</text>
<polygon fill="none" stroke="#000000" points="156.5,-235.2 156.5,-257.2 253.5,-257.2 253.5,-235.2 156.5,-235.2"/>
<text text-anchor="start" x="159.1614" y="-242.9" font-family="Helvetica,sans-Serif" font-size="11.00" fill="#000000">timestamp(6)[11,6]</text>
<polygon fill="none" stroke="#000000" points="10.5,-213.2 10.5,-235.2 156.5,-235.2 156.5,-213.2 10.5,-213.2"/>
<text text-anchor="start" x="30.5" y="-220.3" font-family="Helvetica,sans-Serif" font-size="11.00" fill="#000000">MESSAGE_TYPE_ID</text>
<polygon fill="none" stroke="#000000" points="156.5,-213.2 156.5,-235.2 253.5,-235.2 253.5,-213.2 156.5,-213.2"/>
<text text-anchor="start" x="159.5" y="-220.9" font-family="Helvetica,sans-Serif" font-size="11.00" fill="#000000">number[38]</text>
<polygon fill="none" stroke="#000000" points="10.5,-191.2 10.5,-213.2 156.5,-213.2 156.5,-191.2 10.5,-191.2"/>
<text text-anchor="start" x="30.5" y="-198.3" font-family="Helvetica,sans-Serif" font-size="11.00" fill="#000000">COMPONENT_CODE</text>
<polygon fill="none" stroke="#000000" points="156.5,-191.2 156.5,-213.2 253.5,-213.2 253.5,-191.2 156.5,-191.2"/>
<text text-anchor="start" x="159.5" y="-198.9" font-family="Helvetica,sans-Serif" font-size="11.00" fill="#000000">varchar2[30]</text>
<polygon fill="none" stroke="#000000" points="10.5,-169.2 10.5,-191.2 156.5,-191.2 156.5,-169.2 10.5,-169.2"/>
<text text-anchor="start" x="30.5" y="-176.3" font-family="Helvetica,sans-Serif" font-size="11.00" fill="#000000">PACKAGE_NAME</text>
<polygon fill="none" stroke="#000000" points="156.5,-169.2 156.5,-191.2 253.5,-191.2 253.5,-169.2 156.5,-169.2"/>
<text text-anchor="start" x="159.5" y="-176.9" font-family="Helvetica,sans-Serif" font-size="11.00" fill="#000000">varchar2[30]</text>
<polygon fill="none" stroke="#000000" points="10.5,-147.2 10.5,-169.2 156.5,-169.2 156.5,-147.2 10.5,-147.2"/>
<text text-anchor="start" x="30.5" y="-154.3" font-family="Helvetica,sans-Serif" font-size="11.00" fill="#000000">PROCEDURE_NAME</text>
<polygon fill="none" stroke="#000000" points="156.5,-147.2 156.5,-169.2 253.5,-169.2 253.5,-147.2 156.5,-147.2"/>
<text text-anchor="start" x="159.5" y="-154.9" font-family="Helvetica,sans-Serif" font-size="11.00" fill="#000000">varchar2[30]</text>
<polygon fill="none" stroke="#000000" points="10.5,-125.2 10.5,-147.2 156.5,-147.2 156.5,-125.2 10.5,-125.2"/>
<text text-anchor="start" x="30.5" y="-132.3" font-family="Helvetica,sans-Serif" font-size="11.00" fill="#000000">LABEL</text>
<polygon fill="none" stroke="#000000" points="156.5,-125.2 156.5,-147.2 253.5,-147.2 253.5,-125.2 156.5,-125.2"/>
<text text-anchor="start" x="159.5" y="-132.9" font-family="Helvetica,sans-Serif" font-size="11.00" fill="#000000">varchar2[10]</text>
<polygon fill="none" stroke="#000000" points="10.5,-103.2 10.5,-125.2 156.5,-125.2 156.5,-103.2 10.5,-103.2"/>
<text text-anchor="start" x="30.5" y="-110.3" font-family="Helvetica,sans-Serif" font-size="11.00" fill="#000000">MESSAGE_TEXT</text>
<polygon fill="none" stroke="#000000" points="156.5,-103.2 156.5,-125.2 253.5,-125.2 253.5,-103.2 156.5,-103.2"/>
<text text-anchor="start" x="159.5" y="-110.9" font-family="Helvetica,sans-Serif" font-size="11.00" fill="#000000">varchar2[4000]</text>
<polygon fill="none" stroke="#000000" points="10.5,-81.2 10.5,-103.2 156.5,-103.2 156.5,-81.2 10.5,-81.2"/>
<image xlink:href="../../images/foreignKeys.png" width="11px" height="12px" preserveAspectRatio="xMinYMin meet" x="15.5" y="-98.2"/>
<text text-anchor="start" x="30.5" y="-88.3" font-family="Helvetica,sans-Serif" font-size="11.00" fill="#000000">SPG_ERROR_LOG_ID</text>
<polygon fill="none" stroke="#000000" points="156.5,-81.2 156.5,-103.2 253.5,-103.2 253.5,-81.2 156.5,-81.2"/>
<text text-anchor="start" x="159.5" y="-88.9" font-family="Helvetica,sans-Serif" font-size="11.00" fill="#000000">number[38]</text>
<polygon fill="none" stroke="#000000" points="10.5,-59.2 10.5,-81.2 156.5,-81.2 156.5,-59.2 10.5,-59.2"/>
<text text-anchor="start" x="30.5" y="-66.3" font-family="Helvetica,sans-Serif" font-size="11.00" fill="#000000">INSTANCE_ID</text>
<polygon fill="none" stroke="#000000" points="156.5,-59.2 156.5,-81.2 253.5,-81.2 253.5,-59.2 156.5,-59.2"/>
<text text-anchor="start" x="159.5" y="-66.9" font-family="Helvetica,sans-Serif" font-size="11.00" fill="#000000">number[38]</text>
<polygon fill="#ffffff" stroke="transparent" points="10.5,-40.2 10.5,-59.2 50.5,-59.2 50.5,-40.2 10.5,-40.2"/>
<polygon fill="none" stroke="#000000" points="10.5,-40.2 10.5,-59.2 50.5,-59.2 50.5,-40.2 10.5,-40.2"/>
<text text-anchor="start" x="13.5" y="-46.3" font-family="Helvetica,sans-Serif" font-size="11.00" fill="#000000">&lt; 0</text>
<polygon fill="#ffffff" stroke="transparent" points="50.5,-40.2 50.5,-59.2 156.5,-59.2 156.5,-40.2 50.5,-40.2"/>
<polygon fill="none" stroke="#000000" points="50.5,-40.2 50.5,-59.2 156.5,-59.2 156.5,-40.2 50.5,-40.2"/>
<text text-anchor="start" x="72.1924" y="-46.3" font-family="Helvetica,sans-Serif" font-size="11.00" fill="#000000">92,042,847 rows</text>
<polygon fill="#ffffff" stroke="transparent" points="156.5,-40.2 156.5,-59.2 253.5,-59.2 253.5,-40.2 156.5,-40.2"/>
<polygon fill="none" stroke="#000000" points="156.5,-40.2 156.5,-59.2 253.5,-59.2 253.5,-40.2 156.5,-40.2"/>
<text text-anchor="start" x="234.9053" y="-46.3" font-family="Helvetica,sans-Serif" font-size="11.00" fill="#000000">0 &gt;</text>
<polygon fill="none" stroke="#000000" stroke-width="2" points="9,-39.2 9,-303.2 254,-303.2 254,-39.2 9,-39.2"/>
</a>
</g>
</g>
</g>
</svg>
