<?xml version="1.0" encoding="UTF-8" standalone="no"?>
<!DOCTYPE svg PUBLIC "-//W3C//DTD SVG 1.1//EN"
 "http://www.w3.org/Graphics/SVG/1.1/DTD/svg11.dtd">
<!-- Generated by graphviz version 2.40.1 (20161225.0304)
 -->
<!-- Title: oneDegreeRelationshipsDiagram Pages: 1 -->
<svg width="526pt" height="338pt"
 viewBox="0.00 0.00 526.00 338.20" xmlns="http://www.w3.org/2000/svg" xmlns:xlink="http://www.w3.org/1999/xlink">
<g id="graph0" class="graph" transform="scale(1 1) rotate(0) translate(4 334.2)">
<title>oneDegreeRelationshipsDiagram</title>
<polygon fill="#ffffff" stroke="transparent" points="-4,4 -4,-334.2 522,-334.2 522,4 -4,4"/>
<text text-anchor="middle" x="72.4936" y="-7.3" font-family="Helvetica,sans-Serif" font-size="11.00" fill="#000000">Generated by SchemaSpy</text>
<!-- R_SPG_XSD_PROBATION_AREA -->
<g id="node1" class="node">
<title>R_SPG_XSD_PROBATION_AREA</title>
<g id="a_node1"><a xlink:href="../../tables/R_SPG_XSD_PROBATION_AREA.html" xlink:title="R_SPG_XSD_PROBATION_AREA" target="_top">
<polygon fill="#ffffff" stroke="transparent" points="295,-219.7 295,-324.7 510,-324.7 510,-219.7 295,-219.7"/>
<polygon fill="#f5f5f5" stroke="transparent" points="295.5,-301.2 295.5,-324.2 510.5,-324.2 510.5,-301.2 295.5,-301.2"/>
<polygon fill="none" stroke="#000000" points="295.5,-301.2 295.5,-324.2 510.5,-324.2 510.5,-301.2 295.5,-301.2"/>
<text text-anchor="start" x="300.0147" y="-310.3" font-family="Helvetica,sans-Serif" font-weight="bold" font-size="11.00" fill="#000000">R_SPG_XSD_PROBATION_AREA</text>
<text text-anchor="start" x="476.0219" y="-309.3" font-family="Helvetica,sans-Serif" font-size="11.00" fill="#000000">[table]</text>
<polygon fill="none" stroke="#000000" points="295.5,-279.2 295.5,-301.2 510.5,-301.2 510.5,-279.2 295.5,-279.2"/>
<image xlink:href="../../images/primaryKeys.png" width="11px" height="12px" preserveAspectRatio="xMinYMin meet" x="300.5" y="-296.2"/>
<text text-anchor="start" x="330.5" y="-286.3" font-family="Helvetica,sans-Serif" font-size="11.00" fill="#000000">SPG_XSD_ID</text>
<polygon fill="none" stroke="#000000" points="295.5,-257.2 295.5,-279.2 510.5,-279.2 510.5,-257.2 295.5,-257.2"/>
<image xlink:href="../../images/primaryKeys.png" width="11px" height="12px" preserveAspectRatio="xMinYMin meet" x="300.5" y="-274.2"/>
<text text-anchor="start" x="330.5" y="-264.3" font-family="Helvetica,sans-Serif" font-size="11.00" fill="#000000">PROBATION_AREA_ID</text>
<polygon fill="none" stroke="#000000" points="295.5,-238.2 295.5,-257.2 510.5,-257.2 510.5,-238.2 295.5,-238.2"/>
<text text-anchor="start" x="298.5" y="-244.3" font-family="Helvetica,sans-Serif" font-size="11.00" fill="#000000">...</text>
<polygon fill="#ffffff" stroke="transparent" points="295.5,-219.2 295.5,-238.2 382.5,-238.2 382.5,-219.2 295.5,-219.2"/>
<polygon fill="none" stroke="#000000" points="295.5,-219.2 295.5,-238.2 382.5,-238.2 382.5,-219.2 295.5,-219.2"/>
<text text-anchor="start" x="298.5" y="-225.3" font-family="Helvetica,sans-Serif" font-size="11.00" fill="#000000">&lt; 2</text>
<polygon fill="#ffffff" stroke="transparent" points="382.5,-219.2 382.5,-238.2 465.5,-238.2 465.5,-219.2 382.5,-219.2"/>
<polygon fill="none" stroke="#000000" points="382.5,-219.2 382.5,-238.2 465.5,-238.2 465.5,-219.2 382.5,-219.2"/>
<text text-anchor="start" x="417.8807" y="-225.3" font-family="Helvetica,sans-Serif" font-size="11.00" fill="#000000">215 rows</text>
<polygon fill="#ffffff" stroke="transparent" points="465.5,-219.2 465.5,-238.2 510.5,-238.2 510.5,-219.2 465.5,-219.2"/>
<polygon fill="none" stroke="#000000" points="465.5,-219.2 465.5,-238.2 510.5,-238.2 510.5,-219.2 465.5,-219.2"/>
<text text-anchor="start" x="501.3862" y="-225.3" font-family="Helvetica,sans-Serif" font-size="11.00" fill="#000000"> &#160;</text>
</a>
</g>
</g>
<!-- SPG_XSD -->
<g id="node2" class="node">
<title>SPG_XSD</title>
<g id="a_node2"><a xlink:href="../../tables/SPG_XSD.html" xlink:title="SPG_XSD" target="_top">
<polygon fill="#ffffff" stroke="transparent" points="8,-38.2 8,-326.2 246,-326.2 246,-38.2 8,-38.2"/>
<polygon fill="#f5f5f5" stroke="transparent" points="10,-301.2 10,-324.2 244,-324.2 244,-301.2 10,-301.2"/>
<polygon fill="none" stroke="#000000" points="10,-301.2 10,-324.2 244,-324.2 244,-301.2 10,-301.2"/>
<text text-anchor="start" x="15" y="-310.3" font-family="Helvetica,sans-Serif" font-weight="bold" font-size="11.00" fill="#000000">SPG_XSD</text>
<text text-anchor="start" x="209.0437" y="-309.3" font-family="Helvetica,sans-Serif" font-size="11.00" fill="#000000">[table]</text>
<polygon fill="none" stroke="#000000" points="10,-279.2 10,-301.2 171,-301.2 171,-279.2 10,-279.2"/>
<image xlink:href="../../images/primaryKeys.png" width="11px" height="12px" preserveAspectRatio="xMinYMin meet" x="15" y="-296.2"/>
<text text-anchor="start" x="30" y="-286.3" font-family="Helvetica,sans-Serif" font-size="11.00" fill="#000000">SPG_XSD_ID</text>
<polygon fill="none" stroke="#000000" points="171,-279.2 171,-301.2 244,-301.2 244,-279.2 171,-279.2"/>
<text text-anchor="start" x="174" y="-286.9" font-family="Helvetica,sans-Serif" font-size="11.00" fill="#000000">number[38]</text>
<polygon fill="none" stroke="#000000" points="10,-257.2 10,-279.2 171,-279.2 171,-257.2 10,-257.2"/>
<text text-anchor="start" x="30" y="-264.3" font-family="Helvetica,sans-Serif" font-size="11.00" fill="#000000">XSD_NUMBER</text>
<polygon fill="none" stroke="#000000" points="171,-257.2 171,-279.2 244,-279.2 244,-257.2 171,-257.2"/>
<text text-anchor="start" x="174" y="-264.9" font-family="Helvetica,sans-Serif" font-size="11.00" fill="#000000">number[38]</text>
<polygon fill="none" stroke="#000000" points="10,-235.2 10,-257.2 171,-257.2 171,-235.2 10,-235.2"/>
<text text-anchor="start" x="30" y="-242.3" font-family="Helvetica,sans-Serif" font-size="11.00" fill="#000000">XSD_NAME</text>
<polygon fill="none" stroke="#000000" points="171,-235.2 171,-257.2 244,-257.2 244,-235.2 171,-235.2"/>
<text text-anchor="start" x="173.8791" y="-242.9" font-family="Helvetica,sans-Serif" font-size="11.00" fill="#000000">varchar2[200]</text>
<polygon fill="none" stroke="#000000" points="10,-213.2 10,-235.2 171,-235.2 171,-213.2 10,-213.2"/>
<text text-anchor="start" x="30" y="-220.3" font-family="Helvetica,sans-Serif" font-size="11.00" fill="#000000">XSD_VERSION</text>
<polygon fill="none" stroke="#000000" points="171,-213.2 171,-235.2 244,-235.2 244,-213.2 171,-213.2"/>
<text text-anchor="start" x="174" y="-220.9" font-family="Helvetica,sans-Serif" font-size="11.00" fill="#000000">varchar2[30]</text>
<polygon fill="none" stroke="#000000" points="10,-191.2 10,-213.2 171,-213.2 171,-191.2 10,-191.2"/>
<text text-anchor="start" x="30" y="-198.3" font-family="Helvetica,sans-Serif" font-size="11.00" fill="#000000">XSD_DATE</text>
<polygon fill="none" stroke="#000000" points="171,-191.2 171,-213.2 244,-213.2 244,-191.2 171,-191.2"/>
<text text-anchor="start" x="174" y="-198.9" font-family="Helvetica,sans-Serif" font-size="11.00" fill="#000000">date[7]</text>
<polygon fill="none" stroke="#000000" points="10,-169.2 10,-191.2 171,-191.2 171,-169.2 10,-169.2"/>
<text text-anchor="start" x="30" y="-176.3" font-family="Helvetica,sans-Serif" font-size="11.00" fill="#000000">ACTIVE_FLAG</text>
<polygon fill="none" stroke="#000000" points="171,-169.2 171,-191.2 244,-191.2 244,-169.2 171,-169.2"/>
<text text-anchor="start" x="174" y="-176.9" font-family="Helvetica,sans-Serif" font-size="11.00" fill="#000000">number[38]</text>
<polygon fill="none" stroke="#000000" points="10,-147.2 10,-169.2 171,-169.2 171,-147.2 10,-147.2"/>
<text text-anchor="start" x="30" y="-154.3" font-family="Helvetica,sans-Serif" font-size="11.00" fill="#000000">CREATED_BY_USER_ID</text>
<polygon fill="none" stroke="#000000" points="171,-147.2 171,-169.2 244,-169.2 244,-147.2 171,-147.2"/>
<text text-anchor="start" x="174" y="-154.9" font-family="Helvetica,sans-Serif" font-size="11.00" fill="#000000">number[38]</text>
<polygon fill="none" stroke="#000000" points="10,-125.2 10,-147.2 171,-147.2 171,-125.2 10,-125.2"/>
<text text-anchor="start" x="30" y="-132.3" font-family="Helvetica,sans-Serif" font-size="11.00" fill="#000000">CREATED_DATETIME</text>
<polygon fill="none" stroke="#000000" points="171,-125.2 171,-147.2 244,-147.2 244,-125.2 171,-125.2"/>
<text text-anchor="start" x="174" y="-132.9" font-family="Helvetica,sans-Serif" font-size="11.00" fill="#000000">date[7]</text>
<polygon fill="none" stroke="#000000" points="10,-103.2 10,-125.2 171,-125.2 171,-103.2 10,-103.2"/>
<text text-anchor="start" x="28.0235" y="-110.3" font-family="Helvetica,sans-Serif" font-size="11.00" fill="#000000">LAST_UPDATED_USER_ID</text>
<polygon fill="none" stroke="#000000" points="171,-103.2 171,-125.2 244,-125.2 244,-103.2 171,-103.2"/>
<text text-anchor="start" x="174" y="-110.9" font-family="Helvetica,sans-Serif" font-size="11.00" fill="#000000">number[38]</text>
<polygon fill="none" stroke="#000000" points="10,-81.2 10,-103.2 171,-103.2 171,-81.2 10,-81.2"/>
<text text-anchor="start" x="24.0531" y="-88.3" font-family="Helvetica,sans-Serif" font-size="11.00" fill="#000000">LAST_UPDATED_DATETIME</text>
<polygon fill="none" stroke="#000000" points="171,-81.2 171,-103.2 244,-103.2 244,-81.2 171,-81.2"/>
<text text-anchor="start" x="174" y="-88.9" font-family="Helvetica,sans-Serif" font-size="11.00" fill="#000000">date[7]</text>
<polygon fill="none" stroke="#000000" points="10,-59.2 10,-81.2 171,-81.2 171,-59.2 10,-59.2"/>
<text text-anchor="start" x="30" y="-66.3" font-family="Helvetica,sans-Serif" font-size="11.00" fill="#000000">ROW_ID</text>
<polygon fill="none" stroke="#000000" points="171,-59.2 171,-81.2 244,-81.2 244,-59.2 171,-59.2"/>
<text text-anchor="start" x="174" y="-66.9" font-family="Helvetica,sans-Serif" font-size="11.00" fill="#000000">number[38]</text>
<polygon fill="#ffffff" stroke="transparent" points="10,-40.2 10,-59.2 82,-59.2 82,-40.2 10,-40.2"/>
<polygon fill="none" stroke="#000000" points="10,-40.2 10,-59.2 82,-59.2 82,-40.2 10,-40.2"/>
<text text-anchor="start" x="13" y="-46.3" font-family="Helvetica,sans-Serif" font-size="11.00" fill="#000000">&lt; 0</text>
<polygon fill="#ffffff" stroke="transparent" points="82,-40.2 82,-59.2 171,-59.2 171,-40.2 82,-40.2"/>
<polygon fill="none" stroke="#000000" points="82,-40.2 82,-59.2 171,-59.2 171,-40.2 82,-40.2"/>
<text text-anchor="start" x="135.6105" y="-46.3" font-family="Helvetica,sans-Serif" font-size="11.00" fill="#000000">5 rows</text>
<polygon fill="#ffffff" stroke="transparent" points="171,-40.2 171,-59.2 244,-59.2 244,-40.2 171,-40.2"/>
<polygon fill="none" stroke="#000000" points="171,-40.2 171,-59.2 244,-59.2 244,-40.2 171,-40.2"/>
<text text-anchor="start" x="225.4053" y="-46.3" font-family="Helvetica,sans-Serif" font-size="11.00" fill="#000000">1 &gt;</text>
<polygon fill="none" stroke="#000000" stroke-width="2" points="9,-39.2 9,-325.2 245,-325.2 245,-39.2 9,-39.2"/>
</a>
</g>
</g>
<!-- R_SPG_XSD_PROBATION_AREA&#45;&gt;SPG_XSD -->
<g id="edge1" class="edge">
<title>R_SPG_XSD_PROBATION_AREA:w&#45;&gt;SPG_XSD:e</title>
<path fill="none" stroke="#000000" d="M281.0156,-290.2C268.6771,-290.2 261.1667,-290.2 244,-290.2"/>
<polygon fill="#000000" stroke="#000000" points="287.5,-290.2001 295.5,-293.8 291.5,-290.2 295.5,-290.2 295.5,-290.2 295.5,-290.2 291.5,-290.2 295.5,-286.6 287.5,-290.2001 287.5,-290.2001"/>
<ellipse fill="none" stroke="#000000" cx="284.3" cy="-290.2001" rx="3.2" ry="3.2"/>
</g>
</g>
</svg>
