<?xml version="1.0" encoding="UTF-8" standalone="no"?>
<!DOCTYPE svg PUBLIC "-//W3C//DTD SVG 1.1//EN"
 "http://www.w3.org/Graphics/SVG/1.1/DTD/svg11.dtd">
<!-- Generated by graphviz version 2.40.1 (20161225.0304)
 -->
<!-- Title: oneDegreeRelationshipsDiagram Pages: 1 -->
<svg width="770pt" height="1392pt"
 viewBox="0.00 0.00 770.00 1391.53" xmlns="http://www.w3.org/2000/svg" xmlns:xlink="http://www.w3.org/1999/xlink">
<g id="graph0" class="graph" transform="scale(1 1) rotate(0) translate(4 1387.5272)">
<title>oneDegreeRelationshipsDiagram</title>
<polygon fill="#ffffff" stroke="transparent" points="-4,4 -4,-1387.5272 766,-1387.5272 766,4 -4,4"/>
<text text-anchor="middle" x="72.4936" y="-7.3" font-family="Helvetica,sans-Serif" font-size="11.00" fill="#000000">Generated by SchemaSpy</text>
<!-- CONTACT -->
<g id="node1" class="node">
<title>CONTACT</title>
<g id="a_node1"><a xlink:href="../../tables/CONTACT.html" xlink:title="CONTACT" target="_top">
<polygon fill="#ffffff" stroke="transparent" points="205,-268.5272 205,-1209.5272 413,-1209.5272 413,-268.5272 205,-268.5272"/>
<polygon fill="#f5f5f5" stroke="transparent" points="205,-1186.0272 205,-1209.0272 413,-1209.0272 413,-1186.0272 205,-1186.0272"/>
<polygon fill="none" stroke="#000000" points="205,-1186.0272 205,-1209.0272 413,-1209.0272 413,-1186.0272 205,-1186.0272"/>
<text text-anchor="start" x="210" y="-1195.1272" font-family="Helvetica,sans-Serif" font-weight="bold" font-size="11.00" fill="#000000">CONTACT</text>
<text text-anchor="start" x="378.0437" y="-1194.1272" font-family="Helvetica,sans-Serif" font-size="11.00" fill="#000000">[table]</text>
<polygon fill="none" stroke="#000000" points="205,-1164.0272 205,-1186.0272 413,-1186.0272 413,-1164.0272 205,-1164.0272"/>
<image xlink:href="../../images/primaryKeys.png" width="11px" height="12px" preserveAspectRatio="xMinYMin meet" x="210" y="-1181.03"/>
<text text-anchor="start" x="225" y="-1171.1272" font-family="Helvetica,sans-Serif" font-size="11.00" fill="#000000">CONTACT_ID</text>
<polygon fill="none" stroke="#000000" points="205,-1142.0272 205,-1164.0272 413,-1164.0272 413,-1142.0272 205,-1142.0272"/>
<image xlink:href="../../images/primaryKeys.png" width="11px" height="12px" preserveAspectRatio="xMinYMin meet" x="210" y="-1159.03"/>
<text text-anchor="start" x="225" y="-1149.1272" font-family="Helvetica,sans-Serif" font-size="11.00" fill="#000000">LINKED_CONTACT_ID</text>
<polygon fill="none" stroke="#000000" points="205,-1120.0272 205,-1142.0272 413,-1142.0272 413,-1120.0272 205,-1120.0272"/>
<image xlink:href="../../images/primaryKeys.png" width="11px" height="12px" preserveAspectRatio="xMinYMin meet" x="210" y="-1137.03"/>
<text text-anchor="start" x="225" y="-1127.1272" font-family="Helvetica,sans-Serif" font-size="11.00" fill="#000000">CONTACT_DATE</text>
<polygon fill="none" stroke="#000000" points="205,-1098.0272 205,-1120.0272 413,-1120.0272 413,-1098.0272 205,-1098.0272"/>
<image xlink:href="../../images/primaryKeys.png" width="11px" height="12px" preserveAspectRatio="xMinYMin meet" x="210" y="-1115.03"/>
<text text-anchor="start" x="225" y="-1105.1272" font-family="Helvetica,sans-Serif" font-size="11.00" fill="#000000">OFFENDER_ID</text>
<polygon fill="none" stroke="#000000" points="205,-1076.0272 205,-1098.0272 413,-1098.0272 413,-1076.0272 205,-1076.0272"/>
<image xlink:href="../../images/primaryKeys.png" width="11px" height="12px" preserveAspectRatio="xMinYMin meet" x="210" y="-1093.03"/>
<text text-anchor="start" x="225" y="-1083.1272" font-family="Helvetica,sans-Serif" font-size="11.00" fill="#000000">CONTACT_START_TIME</text>
<polygon fill="none" stroke="#000000" points="205,-1054.0272 205,-1076.0272 413,-1076.0272 413,-1054.0272 205,-1054.0272"/>
<image xlink:href="../../images/primaryKeys.png" width="11px" height="12px" preserveAspectRatio="xMinYMin meet" x="210" y="-1071.03"/>
<text text-anchor="start" x="225" y="-1061.1272" font-family="Helvetica,sans-Serif" font-size="11.00" fill="#000000">CONTACT_END_TIME</text>
<polygon fill="none" stroke="#000000" points="205,-1032.0272 205,-1054.0272 413,-1054.0272 413,-1032.0272 205,-1032.0272"/>
<image xlink:href="../../images/primaryKeys.png" width="11px" height="12px" preserveAspectRatio="xMinYMin meet" x="210" y="-1049.03"/>
<text text-anchor="start" x="225" y="-1039.1272" font-family="Helvetica,sans-Serif" font-size="11.00" fill="#000000">RQMNT_ID</text>
<polygon fill="none" stroke="#000000" points="205,-1010.0272 205,-1032.0272 413,-1032.0272 413,-1010.0272 205,-1010.0272"/>
<image xlink:href="../../images/primaryKeys.png" width="11px" height="12px" preserveAspectRatio="xMinYMin meet" x="210" y="-1027.03"/>
<text text-anchor="start" x="225" y="-1017.1272" font-family="Helvetica,sans-Serif" font-size="11.00" fill="#000000">LIC_CONDITION_ID</text>
<polygon fill="none" stroke="#000000" points="205,-988.0272 205,-1010.0272 413,-1010.0272 413,-988.0272 205,-988.0272"/>
<image xlink:href="../../images/primaryKeys.png" width="11px" height="12px" preserveAspectRatio="xMinYMin meet" x="210" y="-1005.03"/>
<text text-anchor="start" x="225" y="-995.1272" font-family="Helvetica,sans-Serif" font-size="11.00" fill="#000000">PROVIDER_LOCATION_ID</text>
<polygon fill="none" stroke="#000000" points="205,-966.0272 205,-988.0272 413,-988.0272 413,-966.0272 205,-966.0272"/>
<image xlink:href="../../images/primaryKeys.png" width="11px" height="12px" preserveAspectRatio="xMinYMin meet" x="210" y="-983.027"/>
<text text-anchor="start" x="225" y="-973.1272" font-family="Helvetica,sans-Serif" font-size="11.00" fill="#000000">PROVIDER_EMPLOYEE_ID</text>
<polygon fill="none" stroke="#000000" points="205,-944.0272 205,-966.0272 413,-966.0272 413,-944.0272 205,-944.0272"/>
<image xlink:href="../../images/primaryKeys.png" width="11px" height="12px" preserveAspectRatio="xMinYMin meet" x="210" y="-961.027"/>
<text text-anchor="start" x="225" y="-951.1272" font-family="Helvetica,sans-Serif" font-size="11.00" fill="#000000">VISOR_CONTACT</text>
<polygon fill="none" stroke="#000000" points="205,-922.0272 205,-944.0272 413,-944.0272 413,-922.0272 205,-922.0272"/>
<image xlink:href="../../images/primaryKeys.png" width="11px" height="12px" preserveAspectRatio="xMinYMin meet" x="210" y="-939.027"/>
<text text-anchor="start" x="225" y="-929.1272" font-family="Helvetica,sans-Serif" font-size="11.00" fill="#000000">STAFF_ID</text>
<polygon fill="none" stroke="#000000" points="205,-900.0272 205,-922.0272 413,-922.0272 413,-900.0272 205,-900.0272"/>
<image xlink:href="../../images/primaryKeys.png" width="11px" height="12px" preserveAspectRatio="xMinYMin meet" x="210" y="-917.027"/>
<text text-anchor="start" x="225" y="-907.1272" font-family="Helvetica,sans-Serif" font-size="11.00" fill="#000000">TEAM_ID</text>
<polygon fill="none" stroke="#000000" points="205,-878.0272 205,-900.0272 413,-900.0272 413,-878.0272 205,-878.0272"/>
<image xlink:href="../../images/primaryKeys.png" width="11px" height="12px" preserveAspectRatio="xMinYMin meet" x="210" y="-895.027"/>
<text text-anchor="start" x="225" y="-885.1272" font-family="Helvetica,sans-Serif" font-size="11.00" fill="#000000">SOFT_DELETED</text>
<polygon fill="none" stroke="#000000" points="205,-856.0272 205,-878.0272 413,-878.0272 413,-856.0272 205,-856.0272"/>
<image xlink:href="../../images/primaryKeys.png" width="11px" height="12px" preserveAspectRatio="xMinYMin meet" x="210" y="-873.027"/>
<text text-anchor="start" x="225" y="-863.1272" font-family="Helvetica,sans-Serif" font-size="11.00" fill="#000000">VISOR_EXPORTED</text>
<polygon fill="none" stroke="#000000" points="205,-834.0272 205,-856.0272 413,-856.0272 413,-834.0272 205,-834.0272"/>
<image xlink:href="../../images/primaryKeys.png" width="11px" height="12px" preserveAspectRatio="xMinYMin meet" x="210" y="-851.027"/>
<text text-anchor="start" x="225" y="-841.1272" font-family="Helvetica,sans-Serif" font-size="11.00" fill="#000000">PARTITION_AREA_ID</text>
<polygon fill="none" stroke="#000000" points="205,-812.0272 205,-834.0272 413,-834.0272 413,-812.0272 205,-812.0272"/>
<image xlink:href="../../images/primaryKeys.png" width="11px" height="12px" preserveAspectRatio="xMinYMin meet" x="210" y="-829.027"/>
<text text-anchor="start" x="225" y="-819.1272" font-family="Helvetica,sans-Serif" font-size="11.00" fill="#000000">OFFICE_LOCATION_ID</text>
<polygon fill="none" stroke="#000000" points="205,-790.0272 205,-812.0272 413,-812.0272 413,-790.0272 205,-790.0272"/>
<image xlink:href="../../images/primaryKeys.png" width="11px" height="12px" preserveAspectRatio="xMinYMin meet" x="210" y="-807.027"/>
<text text-anchor="start" x="225" y="-797.1272" font-family="Helvetica,sans-Serif" font-size="11.00" fill="#000000">ALERT_ACTIVE</text>
<polygon fill="none" stroke="#000000" points="205,-768.0272 205,-790.0272 413,-790.0272 413,-768.0272 205,-768.0272"/>
<image xlink:href="../../images/primaryKeys.png" width="11px" height="12px" preserveAspectRatio="xMinYMin meet" x="210" y="-785.027"/>
<text text-anchor="start" x="225" y="-775.1272" font-family="Helvetica,sans-Serif" font-size="11.00" fill="#000000">ATTENDED</text>
<polygon fill="none" stroke="#000000" points="205,-746.0272 205,-768.0272 413,-768.0272 413,-746.0272 205,-746.0272"/>
<image xlink:href="../../images/primaryKeys.png" width="11px" height="12px" preserveAspectRatio="xMinYMin meet" x="210" y="-763.027"/>
<text text-anchor="start" x="225" y="-753.1272" font-family="Helvetica,sans-Serif" font-size="11.00" fill="#000000">CREATED_DATETIME</text>
<polygon fill="none" stroke="#000000" points="205,-724.0272 205,-746.0272 413,-746.0272 413,-724.0272 205,-724.0272"/>
<image xlink:href="../../images/primaryKeys.png" width="11px" height="12px" preserveAspectRatio="xMinYMin meet" x="210" y="-741.027"/>
<text text-anchor="start" x="225" y="-731.1272" font-family="Helvetica,sans-Serif" font-size="11.00" fill="#000000">COMPLIED</text>
<polygon fill="none" stroke="#000000" points="205,-702.0272 205,-724.0272 413,-724.0272 413,-702.0272 205,-702.0272"/>
<image xlink:href="../../images/primaryKeys.png" width="11px" height="12px" preserveAspectRatio="xMinYMin meet" x="210" y="-719.027"/>
<text text-anchor="start" x="225" y="-709.1272" font-family="Helvetica,sans-Serif" font-size="11.00" fill="#000000">SENSITIVE</text>
<polygon fill="none" stroke="#000000" points="205,-680.0272 205,-702.0272 413,-702.0272 413,-680.0272 205,-680.0272"/>
<image xlink:href="../../images/primaryKeys.png" width="11px" height="12px" preserveAspectRatio="xMinYMin meet" x="210" y="-697.027"/>
<text text-anchor="start" x="225" y="-687.1272" font-family="Helvetica,sans-Serif" font-size="11.00" fill="#000000">EVENT_ID</text>
<polygon fill="none" stroke="#000000" points="205,-658.0272 205,-680.0272 413,-680.0272 413,-658.0272 205,-658.0272"/>
<image xlink:href="../../images/primaryKeys.png" width="11px" height="12px" preserveAspectRatio="xMinYMin meet" x="210" y="-675.027"/>
<text text-anchor="start" x="225" y="-665.1272" font-family="Helvetica,sans-Serif" font-size="11.00" fill="#000000">CONTACT_TYPE_ID</text>
<polygon fill="none" stroke="#000000" points="205,-636.0272 205,-658.0272 413,-658.0272 413,-636.0272 205,-636.0272"/>
<image xlink:href="../../images/primaryKeys.png" width="11px" height="12px" preserveAspectRatio="xMinYMin meet" x="210" y="-653.027"/>
<text text-anchor="start" x="225" y="-643.1272" font-family="Helvetica,sans-Serif" font-size="11.00" fill="#000000">PROVIDER_TEAM_ID</text>
<polygon fill="none" stroke="#000000" points="205,-614.0272 205,-636.0272 413,-636.0272 413,-614.0272 205,-614.0272"/>
<image xlink:href="../../images/primaryKeys.png" width="11px" height="12px" preserveAspectRatio="xMinYMin meet" x="210" y="-631.027"/>
<text text-anchor="start" x="225" y="-621.1272" font-family="Helvetica,sans-Serif" font-size="11.00" fill="#000000">CONTACT_OUTCOME_TYPE_ID</text>
<polygon fill="none" stroke="#000000" points="205,-592.0272 205,-614.0272 413,-614.0272 413,-592.0272 205,-592.0272"/>
<image xlink:href="../../images/primaryKeys.png" width="11px" height="12px" preserveAspectRatio="xMinYMin meet" x="210" y="-609.027"/>
<text text-anchor="start" x="225" y="-599.1272" font-family="Helvetica,sans-Serif" font-size="11.00" fill="#000000">EXPLANATION_ID</text>
<polygon fill="none" stroke="#000000" points="205,-570.0272 205,-592.0272 413,-592.0272 413,-570.0272 205,-570.0272"/>
<image xlink:href="../../images/primaryKeys.png" width="11px" height="12px" preserveAspectRatio="xMinYMin meet" x="210" y="-587.027"/>
<text text-anchor="start" x="225" y="-577.1272" font-family="Helvetica,sans-Serif" font-size="11.00" fill="#000000">TRAINING_SESSION_ID</text>
<polygon fill="none" stroke="#000000" points="205,-548.0272 205,-570.0272 413,-570.0272 413,-548.0272 205,-548.0272"/>
<image xlink:href="../../images/primaryKeys.png" width="11px" height="12px" preserveAspectRatio="xMinYMin meet" x="210" y="-565.027"/>
<text text-anchor="start" x="225" y="-555.1272" font-family="Helvetica,sans-Serif" font-size="11.00" fill="#000000">TRUST_PROVIDER_FLAG</text>
<polygon fill="none" stroke="#000000" points="205,-526.0272 205,-548.0272 413,-548.0272 413,-526.0272 205,-526.0272"/>
<image xlink:href="../../images/primaryKeys.png" width="11px" height="12px" preserveAspectRatio="xMinYMin meet" x="210" y="-543.027"/>
<text text-anchor="start" x="225" y="-533.1272" font-family="Helvetica,sans-Serif" font-size="11.00" fill="#000000">STAFF_EMPLOYEE_ID</text>
<polygon fill="none" stroke="#000000" points="205,-504.0272 205,-526.0272 413,-526.0272 413,-504.0272 205,-504.0272"/>
<image xlink:href="../../images/primaryKeys.png" width="11px" height="12px" preserveAspectRatio="xMinYMin meet" x="210" y="-521.027"/>
<text text-anchor="start" x="225" y="-511.1272" font-family="Helvetica,sans-Serif" font-size="11.00" fill="#000000">PROBATION_AREA_ID</text>
<polygon fill="none" stroke="#000000" points="205,-482.0272 205,-504.0272 413,-504.0272 413,-482.0272 205,-482.0272"/>
<image xlink:href="../../images/primaryKeys.png" width="11px" height="12px" preserveAspectRatio="xMinYMin meet" x="210" y="-499.027"/>
<text text-anchor="start" x="225" y="-489.1272" font-family="Helvetica,sans-Serif" font-size="11.00" fill="#000000">TRUST_PROVIDER_TEAM_ID</text>
<polygon fill="none" stroke="#000000" points="205,-460.0272 205,-482.0272 413,-482.0272 413,-460.0272 205,-460.0272"/>
<image xlink:href="../../images/primaryKeys.png" width="11px" height="12px" preserveAspectRatio="xMinYMin meet" x="210" y="-477.027"/>
<text text-anchor="start" x="225" y="-467.1272" font-family="Helvetica,sans-Serif" font-size="11.00" fill="#000000">ENFORCEMENT</text>
<polygon fill="none" stroke="#000000" points="205,-438.0272 205,-460.0272 413,-460.0272 413,-438.0272 205,-438.0272"/>
<image xlink:href="../../images/primaryKeys.png" width="11px" height="12px" preserveAspectRatio="xMinYMin meet" x="210" y="-455.027"/>
<text text-anchor="start" x="217.8069" y="-445.1272" font-family="Helvetica,sans-Serif" font-size="11.00" fill="#000000">LATEST_ENFORCEMENT_ACTION_ID</text>
<polygon fill="none" stroke="#000000" points="205,-416.0272 205,-438.0272 413,-438.0272 413,-416.0272 205,-416.0272"/>
<image xlink:href="../../images/primaryKeys.png" width="11px" height="12px" preserveAspectRatio="xMinYMin meet" x="210" y="-433.027"/>
<text text-anchor="start" x="225" y="-423.1272" font-family="Helvetica,sans-Serif" font-size="11.00" fill="#000000">NSI_ID</text>
<polygon fill="none" stroke="#000000" points="205,-394.0272 205,-416.0272 413,-416.0272 413,-394.0272 205,-394.0272"/>
<image xlink:href="../../images/primaryKeys.png" width="11px" height="12px" preserveAspectRatio="xMinYMin meet" x="210" y="-411.027"/>
<text text-anchor="start" x="225" y="-401.1272" font-family="Helvetica,sans-Serif" font-size="11.00" fill="#000000">TABLE_NAME</text>
<polygon fill="none" stroke="#000000" points="205,-372.0272 205,-394.0272 413,-394.0272 413,-372.0272 205,-372.0272"/>
<image xlink:href="../../images/primaryKeys.png" width="11px" height="12px" preserveAspectRatio="xMinYMin meet" x="210" y="-389.027"/>
<text text-anchor="start" x="225" y="-379.1272" font-family="Helvetica,sans-Serif" font-size="11.00" fill="#000000">PRIMARY_KEY_ID</text>
<polygon fill="none" stroke="#000000" points="205,-350.0272 205,-372.0272 413,-372.0272 413,-350.0272 205,-350.0272"/>
<image xlink:href="../../images/primaryKeys.png" width="11px" height="12px" preserveAspectRatio="xMinYMin meet" x="210" y="-367.027"/>
<text text-anchor="start" x="225" y="-357.1272" font-family="Helvetica,sans-Serif" font-size="11.00" fill="#000000">PSS_RQMNT_ID</text>
<polygon fill="none" stroke="#000000" points="205,-328.0272 205,-350.0272 413,-350.0272 413,-328.0272 205,-328.0272"/>
<image xlink:href="../../images/primaryKeys.png" width="11px" height="12px" preserveAspectRatio="xMinYMin meet" x="210" y="-345.027"/>
<text text-anchor="start" x="225" y="-335.1272" font-family="Helvetica,sans-Serif" font-size="11.00" fill="#000000">NOMIS_CASE_NOTE_ID</text>
<polygon fill="none" stroke="#000000" points="205,-306.0272 205,-328.0272 413,-328.0272 413,-306.0272 205,-306.0272"/>
<image xlink:href="../../images/primaryKeys.png" width="11px" height="12px" preserveAspectRatio="xMinYMin meet" x="210" y="-323.027"/>
<text text-anchor="start" x="223.6193" y="-313.1272" font-family="Helvetica,sans-Serif" font-size="11.00" fill="#000000">LINKED_DOCUMENT_CONTACT_ID</text>
<polygon fill="none" stroke="#000000" points="205,-287.0272 205,-306.0272 413,-306.0272 413,-287.0272 205,-287.0272"/>
<text text-anchor="start" x="208" y="-293.1272" font-family="Helvetica,sans-Serif" font-size="11.00" fill="#000000">...</text>
<polygon fill="#ffffff" stroke="transparent" points="205,-268.0272 205,-287.0272 273,-287.0272 273,-268.0272 205,-268.0272"/>
<polygon fill="none" stroke="#000000" points="205,-268.0272 205,-287.0272 273,-287.0272 273,-268.0272 205,-268.0272"/>
<text text-anchor="start" x="208" y="-274.1272" font-family="Helvetica,sans-Serif" font-size="11.00" fill="#000000">&lt; 24</text>
<polygon fill="#ffffff" stroke="transparent" points="273,-268.0272 273,-287.0272 365,-287.0272 365,-268.0272 273,-268.0272"/>
<polygon fill="none" stroke="#000000" points="273,-268.0272 273,-287.0272 365,-287.0272 365,-268.0272 273,-268.0272"/>
<text text-anchor="start" x="295.9791" y="-274.1272" font-family="Helvetica,sans-Serif" font-size="11.00" fill="#000000">165,869 rows</text>
<polygon fill="#ffffff" stroke="transparent" points="365,-268.0272 365,-287.0272 413,-287.0272 413,-268.0272 365,-268.0272"/>
<polygon fill="none" stroke="#000000" points="365,-268.0272 365,-287.0272 413,-287.0272 413,-268.0272 365,-268.0272"/>
<text text-anchor="start" x="388.2904" y="-274.1272" font-family="Helvetica,sans-Serif" font-size="11.00" fill="#000000">13 &gt;</text>
</a>
</g>
</g>
<!-- PARTITION_AREA -->
<g id="node2" class="node">
<title>PARTITION_AREA</title>
<g id="a_node2"><a xlink:href="../../tables/PARTITION_AREA.html" xlink:title="PARTITION_AREA" target="_top">
<polygon fill="#ffffff" stroke="transparent" points="8,-774.5272 8,-879.5272 150,-879.5272 150,-774.5272 8,-774.5272"/>
<polygon fill="#f5f5f5" stroke="transparent" points="8,-856.0272 8,-879.0272 150,-879.0272 150,-856.0272 8,-856.0272"/>
<polygon fill="none" stroke="#000000" points="8,-856.0272 8,-879.0272 150,-879.0272 150,-856.0272 8,-856.0272"/>
<text text-anchor="start" x="13" y="-865.1272" font-family="Helvetica,sans-Serif" font-weight="bold" font-size="11.00" fill="#000000">PARTITION_AREA</text>
<text text-anchor="start" x="115.0437" y="-864.1272" font-family="Helvetica,sans-Serif" font-size="11.00" fill="#000000">[table]</text>
<polygon fill="none" stroke="#000000" points="8,-834.0272 8,-856.0272 150,-856.0272 150,-834.0272 8,-834.0272"/>
<image xlink:href="../../images/primaryKeys.png" width="11px" height="12px" preserveAspectRatio="xMinYMin meet" x="13" y="-851.027"/>
<text text-anchor="start" x="28" y="-841.1272" font-family="Helvetica,sans-Serif" font-size="11.00" fill="#000000">PARTITION_AREA_ID</text>
<polygon fill="none" stroke="#000000" points="8,-812.0272 8,-834.0272 150,-834.0272 150,-812.0272 8,-812.0272"/>
<image xlink:href="../../images/primaryKeys.png" width="11px" height="12px" preserveAspectRatio="xMinYMin meet" x="13" y="-829.027"/>
<text text-anchor="start" x="24.1624" y="-819.1272" font-family="Helvetica,sans-Serif" font-size="11.00" fill="#000000">TRAINING_SESSION_ID</text>
<polygon fill="none" stroke="#000000" points="8,-793.0272 8,-812.0272 150,-812.0272 150,-793.0272 8,-793.0272"/>
<text text-anchor="start" x="11" y="-799.1272" font-family="Helvetica,sans-Serif" font-size="11.00" fill="#000000">...</text>
<polygon fill="#ffffff" stroke="transparent" points="8,-774.0272 8,-793.0272 49,-793.0272 49,-774.0272 8,-774.0272"/>
<polygon fill="none" stroke="#000000" points="8,-774.0272 8,-793.0272 49,-793.0272 49,-774.0272 8,-774.0272"/>
<text text-anchor="start" x="11" y="-780.1272" font-family="Helvetica,sans-Serif" font-size="11.00" fill="#000000"> &#160;</text>
<polygon fill="#ffffff" stroke="transparent" points="49,-774.0272 49,-793.0272 108,-793.0272 108,-774.0272 49,-774.0272"/>
<polygon fill="none" stroke="#000000" points="49,-774.0272 49,-793.0272 108,-793.0272 108,-774.0272 49,-774.0272"/>
<text text-anchor="start" x="66.4956" y="-780.1272" font-family="Helvetica,sans-Serif" font-size="11.00" fill="#000000">44 rows</text>
<polygon fill="#ffffff" stroke="transparent" points="108,-774.0272 108,-793.0272 150,-793.0272 150,-774.0272 108,-774.0272"/>
<polygon fill="none" stroke="#000000" points="108,-774.0272 108,-793.0272 150,-793.0272 150,-774.0272 108,-774.0272"/>
<text text-anchor="start" x="125.2904" y="-780.1272" font-family="Helvetica,sans-Serif" font-size="11.00" fill="#000000">82 &gt;</text>
</a>
</g>
</g>
<!-- CONTACT&#45;&gt;PARTITION_AREA -->
<g id="edge1" class="edge">
<title>CONTACT:w&#45;&gt;PARTITION_AREA:e</title>
<path fill="none" stroke="#000000" d="M190.3617,-845.0272C176.6839,-845.0272 168.7153,-845.0272 150,-845.0272"/>
<polygon fill="#000000" stroke="#000000" points="197,-845.0272 205,-848.6272 201,-845.0272 205,-845.0272 205,-845.0272 205,-845.0272 201,-845.0272 205,-841.4272 197,-845.0272 197,-845.0272"/>
<ellipse fill="none" stroke="#000000" cx="193.8" cy="-845.0272" rx="3.2" ry="3.2"/>
</g>
<!-- SUBJECT_ACCESS_REPORT -->
<g id="node3" class="node">
<title>SUBJECT_ACCESS_REPORT</title>
<g id="a_node3"><a xlink:href="../../tables/SUBJECT_ACCESS_REPORT.html" xlink:title="SUBJECT_ACCESS_REPORT" target="_top">
<polygon fill="#ffffff" stroke="transparent" points="211,-1230.5272 211,-1379.5272 407,-1379.5272 407,-1230.5272 211,-1230.5272"/>
<polygon fill="#f5f5f5" stroke="transparent" points="211,-1356.0272 211,-1379.0272 407,-1379.0272 407,-1356.0272 211,-1356.0272"/>
<polygon fill="none" stroke="#000000" points="211,-1356.0272 211,-1379.0272 407,-1379.0272 407,-1356.0272 211,-1356.0272"/>
<text text-anchor="start" x="215.8025" y="-1365.1272" font-family="Helvetica,sans-Serif" font-weight="bold" font-size="11.00" fill="#000000">SUBJECT_ACCESS_REPORT</text>
<text text-anchor="start" x="372.5219" y="-1364.1272" font-family="Helvetica,sans-Serif" font-size="11.00" fill="#000000">[table]</text>
<polygon fill="none" stroke="#000000" points="211,-1334.0272 211,-1356.0272 407,-1356.0272 407,-1334.0272 211,-1334.0272"/>
<image xlink:href="../../images/primaryKeys.png" width="11px" height="12px" preserveAspectRatio="xMinYMin meet" x="216" y="-1351.03"/>
<text text-anchor="start" x="231.2462" y="-1341.1272" font-family="Helvetica,sans-Serif" font-size="11.00" fill="#000000">SUBJECT_ACCESS_REPORT_ID</text>
<polygon fill="none" stroke="#000000" points="211,-1312.0272 211,-1334.0272 407,-1334.0272 407,-1312.0272 211,-1312.0272"/>
<image xlink:href="../../images/primaryKeys.png" width="11px" height="12px" preserveAspectRatio="xMinYMin meet" x="216" y="-1329.03"/>
<text text-anchor="start" x="238" y="-1319.1272" font-family="Helvetica,sans-Serif" font-size="11.00" fill="#000000">PARTITION_AREA_ID</text>
<polygon fill="none" stroke="#000000" points="211,-1290.0272 211,-1312.0272 407,-1312.0272 407,-1290.0272 211,-1290.0272"/>
<image xlink:href="../../images/primaryKeys.png" width="11px" height="12px" preserveAspectRatio="xMinYMin meet" x="216" y="-1307.03"/>
<text text-anchor="start" x="238" y="-1297.1272" font-family="Helvetica,sans-Serif" font-size="11.00" fill="#000000">OFFENDER_ID</text>
<polygon fill="none" stroke="#000000" points="211,-1268.0272 211,-1290.0272 407,-1290.0272 407,-1268.0272 211,-1268.0272"/>
<image xlink:href="../../images/primaryKeys.png" width="11px" height="12px" preserveAspectRatio="xMinYMin meet" x="216" y="-1285.03"/>
<text text-anchor="start" x="238" y="-1275.1272" font-family="Helvetica,sans-Serif" font-size="11.00" fill="#000000">TRAINING_SESSION_ID</text>
<polygon fill="none" stroke="#000000" points="211,-1249.0272 211,-1268.0272 407,-1268.0272 407,-1249.0272 211,-1249.0272"/>
<text text-anchor="start" x="214" y="-1255.1272" font-family="Helvetica,sans-Serif" font-size="11.00" fill="#000000">...</text>
<polygon fill="#ffffff" stroke="transparent" points="211,-1230.0272 211,-1249.0272 284,-1249.0272 284,-1230.0272 211,-1230.0272"/>
<polygon fill="none" stroke="#000000" points="211,-1230.0272 211,-1249.0272 284,-1249.0272 284,-1230.0272 211,-1230.0272"/>
<text text-anchor="start" x="214" y="-1236.1272" font-family="Helvetica,sans-Serif" font-size="11.00" fill="#000000">&lt; 2</text>
<polygon fill="#ffffff" stroke="transparent" points="284,-1230.0272 284,-1249.0272 360,-1249.0272 360,-1230.0272 284,-1230.0272"/>
<polygon fill="none" stroke="#000000" points="284,-1230.0272 284,-1249.0272 360,-1249.0272 360,-1230.0272 284,-1230.0272"/>
<text text-anchor="start" x="312.3807" y="-1236.1272" font-family="Helvetica,sans-Serif" font-size="11.00" fill="#000000">100 rows</text>
<polygon fill="#ffffff" stroke="transparent" points="360,-1230.0272 360,-1249.0272 407,-1249.0272 407,-1230.0272 360,-1230.0272"/>
<polygon fill="none" stroke="#000000" points="360,-1230.0272 360,-1249.0272 407,-1249.0272 407,-1230.0272 360,-1230.0272"/>
<text text-anchor="start" x="388.4053" y="-1236.1272" font-family="Helvetica,sans-Serif" font-size="11.00" fill="#000000">2 &gt;</text>
</a>
</g>
</g>
<!-- SUBJECT_ACCESS_REPORT&#45;&gt;PARTITION_AREA -->
<g id="edge2" class="edge">
<title>SUBJECT_ACCESS_REPORT:w&#45;&gt;PARTITION_AREA:e</title>
<path fill="none" stroke="#000000" d="M196.6317,-1319.4544C118.8013,-1275.7129 251.6458,-845.0272 150,-845.0272"/>
<polygon fill="#000000" stroke="#000000" points="203.2364,-1321.0967 210.1313,-1326.5208 207.1182,-1322.0619 211,-1323.0272 211,-1323.0272 211,-1323.0272 207.1182,-1322.0619 211.8687,-1319.5335 203.2364,-1321.0967 203.2364,-1321.0967"/>
<ellipse fill="none" stroke="#000000" cx="200.131" cy="-1320.3245" rx="3.2" ry="3.2"/>
</g>
<!-- SUBJECT_ACCESS_REPORT_CONTACT -->
<g id="node4" class="node">
<title>SUBJECT_ACCESS_REPORT_CONTACT</title>
<g id="a_node4"><a xlink:href="../../tables/SUBJECT_ACCESS_REPORT_CONTACT.html" xlink:title="SUBJECT_ACCESS_REPORT_CONTACT" target="_top">
<polygon fill="#ffffff" stroke="transparent" points="468,-585.0272 468,-785.0272 754,-785.0272 754,-585.0272 468,-585.0272"/>
<polygon fill="#f5f5f5" stroke="transparent" points="470,-760.0272 470,-783.0272 752,-783.0272 752,-760.0272 470,-760.0272"/>
<polygon fill="none" stroke="#000000" points="470,-760.0272 470,-783.0272 752,-783.0272 752,-760.0272 470,-760.0272"/>
<text text-anchor="start" x="475" y="-769.1272" font-family="Helvetica,sans-Serif" font-weight="bold" font-size="11.00" fill="#000000">SUBJECT_ACCESS_REPORT_CONTACT</text>
<text text-anchor="start" x="717.0437" y="-768.1272" font-family="Helvetica,sans-Serif" font-size="11.00" fill="#000000">[table]</text>
<polygon fill="none" stroke="#000000" points="470,-738.0272 470,-760.0272 691,-760.0272 691,-738.0272 470,-738.0272"/>
<image xlink:href="../../images/primaryKeys.png" width="11px" height="12px" preserveAspectRatio="xMinYMin meet" x="475" y="-755.027"/>
<text text-anchor="start" x="490" y="-745.1272" font-family="Helvetica,sans-Serif" font-size="11.00" fill="#000000">SAR_CONTACT_ID</text>
<polygon fill="none" stroke="#000000" points="691,-738.0272 691,-760.0272 752,-760.0272 752,-738.0272 691,-738.0272"/>
<text text-anchor="start" x="693.6865" y="-745.7272" font-family="Helvetica,sans-Serif" font-size="11.00" fill="#000000">number[38]</text>
<polygon fill="none" stroke="#000000" points="470,-716.0272 470,-738.0272 691,-738.0272 691,-716.0272 470,-716.0272"/>
<image xlink:href="../../images/primaryKeys.png" width="11px" height="12px" preserveAspectRatio="xMinYMin meet" x="475" y="-733.027"/>
<text text-anchor="start" x="490" y="-723.1272" font-family="Helvetica,sans-Serif" font-size="11.00" fill="#000000">SUBJECT_ACCESS_REPORT_ID</text>
<polygon fill="none" stroke="#000000" points="691,-716.0272 691,-738.0272 752,-738.0272 752,-716.0272 691,-716.0272"/>
<text text-anchor="start" x="693.6865" y="-723.7272" font-family="Helvetica,sans-Serif" font-size="11.00" fill="#000000">number[38]</text>
<polygon fill="none" stroke="#000000" points="470,-694.0272 470,-716.0272 691,-716.0272 691,-694.0272 470,-694.0272"/>
<image xlink:href="../../images/primaryKeys.png" width="11px" height="12px" preserveAspectRatio="xMinYMin meet" x="475" y="-711.027"/>
<text text-anchor="start" x="490" y="-701.1272" font-family="Helvetica,sans-Serif" font-size="11.00" fill="#000000">CONTACT_ID</text>
<polygon fill="none" stroke="#000000" points="691,-694.0272 691,-716.0272 752,-716.0272 752,-694.0272 691,-694.0272"/>
<text text-anchor="start" x="693.6865" y="-701.7272" font-family="Helvetica,sans-Serif" font-size="11.00" fill="#000000">number[38]</text>
<polygon fill="none" stroke="#000000" points="470,-672.0272 470,-694.0272 691,-694.0272 691,-672.0272 470,-672.0272"/>
<image xlink:href="../../images/primaryKeys.png" width="11px" height="12px" preserveAspectRatio="xMinYMin meet" x="475" y="-689.027"/>
<text text-anchor="start" x="490" y="-679.1272" font-family="Helvetica,sans-Serif" font-size="11.00" fill="#000000">DPA_SAR_EXCLUSION_REASON_ID</text>
<polygon fill="none" stroke="#000000" points="691,-672.0272 691,-694.0272 752,-694.0272 752,-672.0272 691,-672.0272"/>
<text text-anchor="start" x="693.6865" y="-679.7272" font-family="Helvetica,sans-Serif" font-size="11.00" fill="#000000">number[38]</text>
<polygon fill="none" stroke="#000000" points="470,-650.0272 470,-672.0272 691,-672.0272 691,-650.0272 470,-650.0272"/>
<image xlink:href="../../images/primaryKeys.png" width="11px" height="12px" preserveAspectRatio="xMinYMin meet" x="475" y="-667.027"/>
<text text-anchor="start" x="490" y="-657.1272" font-family="Helvetica,sans-Serif" font-size="11.00" fill="#000000">PARTITION_AREA_ID</text>
<polygon fill="none" stroke="#000000" points="691,-650.0272 691,-672.0272 752,-672.0272 752,-650.0272 691,-650.0272"/>
<text text-anchor="start" x="693.6865" y="-657.7272" font-family="Helvetica,sans-Serif" font-size="11.00" fill="#000000">number[38]</text>
<polygon fill="none" stroke="#000000" points="470,-628.0272 470,-650.0272 691,-650.0272 691,-628.0272 470,-628.0272"/>
<text text-anchor="start" x="490" y="-635.1272" font-family="Helvetica,sans-Serif" font-size="11.00" fill="#000000">ROW_VERSION</text>
<polygon fill="none" stroke="#000000" points="691,-628.0272 691,-650.0272 752,-650.0272 752,-628.0272 691,-628.0272"/>
<text text-anchor="start" x="693.6865" y="-635.7272" font-family="Helvetica,sans-Serif" font-size="11.00" fill="#000000">number[38]</text>
<polygon fill="none" stroke="#000000" points="470,-606.0272 470,-628.0272 691,-628.0272 691,-606.0272 470,-606.0272"/>
<image xlink:href="../../images/primaryKeys.png" width="11px" height="12px" preserveAspectRatio="xMinYMin meet" x="475" y="-623.027"/>
<text text-anchor="start" x="490" y="-613.1272" font-family="Helvetica,sans-Serif" font-size="11.00" fill="#000000">TRAINING_SESSION_ID</text>
<polygon fill="none" stroke="#000000" points="691,-606.0272 691,-628.0272 752,-628.0272 752,-606.0272 691,-606.0272"/>
<text text-anchor="start" x="693.6865" y="-613.7272" font-family="Helvetica,sans-Serif" font-size="11.00" fill="#000000">number[38]</text>
<polygon fill="#ffffff" stroke="transparent" points="470,-587.0272 470,-606.0272 569,-606.0272 569,-587.0272 470,-587.0272"/>
<polygon fill="none" stroke="#000000" points="470,-587.0272 470,-606.0272 569,-606.0272 569,-587.0272 470,-587.0272"/>
<text text-anchor="start" x="473" y="-593.1272" font-family="Helvetica,sans-Serif" font-size="11.00" fill="#000000">&lt; 4</text>
<polygon fill="#ffffff" stroke="transparent" points="569,-587.0272 569,-606.0272 691,-606.0272 691,-587.0272 569,-587.0272"/>
<polygon fill="none" stroke="#000000" points="569,-587.0272 569,-606.0272 691,-606.0272 691,-587.0272 569,-587.0272"/>
<text text-anchor="start" x="649.4956" y="-593.1272" font-family="Helvetica,sans-Serif" font-size="11.00" fill="#000000">18 rows</text>
<polygon fill="#ffffff" stroke="transparent" points="691,-587.0272 691,-606.0272 752,-606.0272 752,-587.0272 691,-587.0272"/>
<polygon fill="none" stroke="#000000" points="691,-587.0272 691,-606.0272 752,-606.0272 752,-587.0272 691,-587.0272"/>
<text text-anchor="start" x="733.4053" y="-593.1272" font-family="Helvetica,sans-Serif" font-size="11.00" fill="#000000">0 &gt;</text>
<polygon fill="none" stroke="#000000" stroke-width="2" points="469,-586.0272 469,-784.0272 753,-784.0272 753,-586.0272 469,-586.0272"/>
</a>
</g>
</g>
<!-- SUBJECT_ACCESS_REPORT_CONTACT&#45;&gt;CONTACT -->
<g id="edge3" class="edge">
<title>SUBJECT_ACCESS_REPORT_CONTACT:w&#45;&gt;CONTACT:e</title>
<path fill="none" stroke="#000000" d="M455.5986,-705.8539C277.0038,-727.6962 618.2823,-1175.0272 413,-1175.0272"/>
<polygon fill="#000000" stroke="#000000" points="462.0131,-705.4857 470.2063,-708.6212 466.0066,-705.2564 470,-705.0272 470,-705.0272 470,-705.0272 466.0066,-705.2564 469.7937,-701.4331 462.0131,-705.4857 462.0131,-705.4857"/>
<ellipse fill="none" stroke="#000000" cx="458.8184" cy="-705.6691" rx="3.2" ry="3.2"/>
</g>
<!-- SUBJECT_ACCESS_REPORT_CONTACT&#45;&gt;PARTITION_AREA -->
<g id="edge5" class="edge">
<title>SUBJECT_ACCESS_REPORT_CONTACT:w&#45;&gt;PARTITION_AREA:e</title>
<path fill="none" stroke="#000000" d="M457.8568,-652.691C415.5657,-585.0961 470.3307,-128.228 427,-88.0272 350.1073,-16.6886 267.1468,-15.893 191,-88.0272 129.8479,-145.9568 234.2344,-845.0272 150,-845.0272"/>
<polygon fill="#000000" stroke="#000000" points="463.4045,-656.4994 467.9625,-663.9951 466.7023,-658.7633 470,-661.0272 470,-661.0272 470,-661.0272 466.7023,-658.7633 472.0375,-658.0592 463.4045,-656.4994 463.4045,-656.4994"/>
<ellipse fill="none" stroke="#000000" cx="460.7663" cy="-654.6884" rx="3.2" ry="3.2"/>
</g>
<!-- SUBJECT_ACCESS_REPORT_CONTACT&#45;&gt;SUBJECT_ACCESS_REPORT -->
<g id="edge6" class="edge">
<title>SUBJECT_ACCESS_REPORT_CONTACT:w&#45;&gt;SUBJECT_ACCESS_REPORT:e</title>
<path fill="none" stroke="#000000" d="M457.7726,-735.2961C410.5643,-808.6314 471.3042,-1345.0272 407,-1345.0272"/>
<polygon fill="#000000" stroke="#000000" points="463.3731,-731.5087 472.0167,-730.0093 466.6865,-729.2679 470,-727.0272 470,-727.0272 470,-727.0272 466.6865,-729.2679 467.9833,-724.045 463.3731,-731.5087 463.3731,-731.5087"/>
<ellipse fill="none" stroke="#000000" cx="460.7223" cy="-733.3013" rx="3.2" ry="3.2"/>
</g>
<!-- R_STANDARD_REFERENCE_LIST -->
<g id="node5" class="node">
<title>R_STANDARD_REFERENCE_LIST</title>
<g id="a_node5"><a xlink:href="../../tables/R_STANDARD_REFERENCE_LIST.html" xlink:title="R_STANDARD_REFERENCE_LIST" target="_top">
<polygon fill="#ffffff" stroke="transparent" points="199,-98.5272 199,-247.5272 419,-247.5272 419,-98.5272 199,-98.5272"/>
<polygon fill="#f5f5f5" stroke="transparent" points="199,-224.0272 199,-247.0272 419,-247.0272 419,-224.0272 199,-224.0272"/>
<polygon fill="none" stroke="#000000" points="199,-224.0272 199,-247.0272 419,-247.0272 419,-224.0272 199,-224.0272"/>
<text text-anchor="start" x="203.5843" y="-233.1272" font-family="Helvetica,sans-Serif" font-weight="bold" font-size="11.00" fill="#000000">R_STANDARD_REFERENCE_LIST</text>
<text text-anchor="start" x="384.5219" y="-232.1272" font-family="Helvetica,sans-Serif" font-size="11.00" fill="#000000">[table]</text>
<polygon fill="none" stroke="#000000" points="199,-202.0272 199,-224.0272 419,-224.0272 419,-202.0272 199,-202.0272"/>
<image xlink:href="../../images/primaryKeys.png" width="11px" height="12px" preserveAspectRatio="xMinYMin meet" x="204" y="-219.027"/>
<text text-anchor="start" x="226.5558" y="-209.1272" font-family="Helvetica,sans-Serif" font-size="11.00" fill="#000000">STANDARD_REFERENCE_LIST_ID</text>
<polygon fill="none" stroke="#000000" points="199,-180.0272 199,-202.0272 419,-202.0272 419,-180.0272 199,-180.0272"/>
<image xlink:href="../../images/primaryKeys.png" width="11px" height="12px" preserveAspectRatio="xMinYMin meet" x="204" y="-197.027"/>
<text text-anchor="start" x="233" y="-187.1272" font-family="Helvetica,sans-Serif" font-size="11.00" fill="#000000">CODE_VALUE</text>
<polygon fill="none" stroke="#000000" points="199,-158.0272 199,-180.0272 419,-180.0272 419,-158.0272 199,-158.0272"/>
<image xlink:href="../../images/primaryKeys.png" width="11px" height="12px" preserveAspectRatio="xMinYMin meet" x="204" y="-175.027"/>
<text text-anchor="start" x="230.8337" y="-165.1272" font-family="Helvetica,sans-Serif" font-size="11.00" fill="#000000">REFERENCE_DATA_MASTER_ID</text>
<polygon fill="none" stroke="#000000" points="199,-136.0272 199,-158.0272 419,-158.0272 419,-136.0272 199,-136.0272"/>
<image xlink:href="../../images/primaryKeys.png" width="11px" height="12px" preserveAspectRatio="xMinYMin meet" x="204" y="-153.027"/>
<text text-anchor="start" x="233" y="-143.1272" font-family="Helvetica,sans-Serif" font-size="11.00" fill="#000000">TRAINING_SESSION_ID</text>
<polygon fill="none" stroke="#000000" points="199,-117.0272 199,-136.0272 419,-136.0272 419,-117.0272 199,-117.0272"/>
<text text-anchor="start" x="202" y="-123.1272" font-family="Helvetica,sans-Serif" font-size="11.00" fill="#000000">...</text>
<polygon fill="#ffffff" stroke="transparent" points="199,-98.0272 199,-117.0272 270,-117.0272 270,-98.0272 199,-98.0272"/>
<polygon fill="none" stroke="#000000" points="199,-98.0272 199,-117.0272 270,-117.0272 270,-98.0272 199,-98.0272"/>
<text text-anchor="start" x="202" y="-104.1272" font-family="Helvetica,sans-Serif" font-size="11.00" fill="#000000">&lt; 1</text>
<polygon fill="#ffffff" stroke="transparent" points="270,-98.0272 270,-117.0272 360,-117.0272 360,-98.0272 270,-98.0272"/>
<polygon fill="none" stroke="#000000" points="270,-98.0272 270,-117.0272 360,-117.0272 360,-98.0272 270,-98.0272"/>
<text text-anchor="start" x="297.094" y="-104.1272" font-family="Helvetica,sans-Serif" font-size="11.00" fill="#000000">15,391 rows</text>
<polygon fill="#ffffff" stroke="transparent" points="360,-98.0272 360,-117.0272 419,-117.0272 419,-98.0272 360,-98.0272"/>
<polygon fill="none" stroke="#000000" points="360,-98.0272 360,-117.0272 419,-117.0272 419,-98.0272 360,-98.0272"/>
<text text-anchor="start" x="388.1755" y="-104.1272" font-family="Helvetica,sans-Serif" font-size="11.00" fill="#000000">287 &gt;</text>
</a>
</g>
</g>
<!-- SUBJECT_ACCESS_REPORT_CONTACT&#45;&gt;R_STANDARD_REFERENCE_LIST -->
<g id="edge4" class="edge">
<title>SUBJECT_ACCESS_REPORT_CONTACT:w&#45;&gt;R_STANDARD_REFERENCE_LIST:e</title>
<path fill="none" stroke="#000000" d="M455.9696,-679.5142C380.4214,-636.5048 518.7226,-213.0272 419,-213.0272"/>
<polygon fill="#000000" stroke="#000000" points="462.2396,-681.0841 469.1256,-686.5194 466.1198,-682.0556 470,-683.0272 470,-683.0272 470,-683.0272 466.1198,-682.0556 470.8744,-679.535 462.2396,-681.0841 462.2396,-681.0841"/>
<ellipse fill="none" stroke="#000000" cx="459.1354" cy="-680.3068" rx="3.2" ry="3.2"/>
</g>
</g>
</svg>
