<?xml version="1.0" encoding="UTF-8" standalone="no"?>
<!DOCTYPE svg PUBLIC "-//W3C//DTD SVG 1.1//EN"
 "http://www.w3.org/Graphics/SVG/1.1/DTD/svg11.dtd">
<!-- Generated by graphviz version 2.40.1 (20161225.0304)
 -->
<!-- Title: oneDegreeRelationshipsDiagram Pages: 1 -->
<svg width="770pt" height="1480pt"
 viewBox="0.00 0.00 770.00 1479.68" xmlns="http://www.w3.org/2000/svg" xmlns:xlink="http://www.w3.org/1999/xlink">
<g id="graph0" class="graph" transform="scale(1 1) rotate(0) translate(4 1475.6843)">
<title>oneDegreeRelationshipsDiagram</title>
<polygon fill="#ffffff" stroke="transparent" points="-4,4 -4,-1475.6843 766,-1475.6843 766,4 -4,4"/>
<text text-anchor="middle" x="72.4936" y="-7.3" font-family="Helvetica,sans-Serif" font-size="11.00" fill="#000000">Generated by SchemaSpy</text>
<!-- CONTACT -->
<g id="node1" class="node">
<title>CONTACT</title>
<g id="a_node1"><a xlink:href="../../tables/CONTACT.html" xlink:title="CONTACT" target="_top">
<polygon fill="#ffffff" stroke="transparent" points="205,-268.6843 205,-1297.6843 413,-1297.6843 413,-268.6843 205,-268.6843"/>
<polygon fill="#f5f5f5" stroke="transparent" points="205,-1274.1843 205,-1297.1843 413,-1297.1843 413,-1274.1843 205,-1274.1843"/>
<polygon fill="none" stroke="#000000" points="205,-1274.1843 205,-1297.1843 413,-1297.1843 413,-1274.1843 205,-1274.1843"/>
<text text-anchor="start" x="210" y="-1283.2843" font-family="Helvetica,sans-Serif" font-weight="bold" font-size="11.00" fill="#000000">CONTACT</text>
<text text-anchor="start" x="378.0437" y="-1282.2843" font-family="Helvetica,sans-Serif" font-size="11.00" fill="#000000">[table]</text>
<polygon fill="none" stroke="#000000" points="205,-1252.1843 205,-1274.1843 413,-1274.1843 413,-1252.1843 205,-1252.1843"/>
<image xlink:href="../../images/primaryKeys.png" width="11px" height="12px" preserveAspectRatio="xMinYMin meet" x="210" y="-1269.18"/>
<text text-anchor="start" x="225" y="-1259.2843" font-family="Helvetica,sans-Serif" font-size="11.00" fill="#000000">CONTACT_ID</text>
<polygon fill="none" stroke="#000000" points="205,-1230.1843 205,-1252.1843 413,-1252.1843 413,-1230.1843 205,-1230.1843"/>
<image xlink:href="../../images/primaryKeys.png" width="11px" height="12px" preserveAspectRatio="xMinYMin meet" x="210" y="-1247.18"/>
<text text-anchor="start" x="225" y="-1237.2843" font-family="Helvetica,sans-Serif" font-size="11.00" fill="#000000">LINKED_CONTACT_ID</text>
<polygon fill="none" stroke="#000000" points="205,-1208.1843 205,-1230.1843 413,-1230.1843 413,-1208.1843 205,-1208.1843"/>
<image xlink:href="../../images/primaryKeys.png" width="11px" height="12px" preserveAspectRatio="xMinYMin meet" x="210" y="-1225.18"/>
<text text-anchor="start" x="225" y="-1215.2843" font-family="Helvetica,sans-Serif" font-size="11.00" fill="#000000">CONTACT_DATE</text>
<polygon fill="none" stroke="#000000" points="205,-1186.1843 205,-1208.1843 413,-1208.1843 413,-1186.1843 205,-1186.1843"/>
<image xlink:href="../../images/primaryKeys.png" width="11px" height="12px" preserveAspectRatio="xMinYMin meet" x="210" y="-1203.18"/>
<text text-anchor="start" x="225" y="-1193.2843" font-family="Helvetica,sans-Serif" font-size="11.00" fill="#000000">OFFENDER_ID</text>
<polygon fill="none" stroke="#000000" points="205,-1164.1843 205,-1186.1843 413,-1186.1843 413,-1164.1843 205,-1164.1843"/>
<image xlink:href="../../images/primaryKeys.png" width="11px" height="12px" preserveAspectRatio="xMinYMin meet" x="210" y="-1181.18"/>
<text text-anchor="start" x="225" y="-1171.2843" font-family="Helvetica,sans-Serif" font-size="11.00" fill="#000000">CONTACT_START_TIME</text>
<polygon fill="none" stroke="#000000" points="205,-1142.1843 205,-1164.1843 413,-1164.1843 413,-1142.1843 205,-1142.1843"/>
<image xlink:href="../../images/primaryKeys.png" width="11px" height="12px" preserveAspectRatio="xMinYMin meet" x="210" y="-1159.18"/>
<text text-anchor="start" x="225" y="-1149.2843" font-family="Helvetica,sans-Serif" font-size="11.00" fill="#000000">CONTACT_END_TIME</text>
<polygon fill="none" stroke="#000000" points="205,-1120.1843 205,-1142.1843 413,-1142.1843 413,-1120.1843 205,-1120.1843"/>
<image xlink:href="../../images/primaryKeys.png" width="11px" height="12px" preserveAspectRatio="xMinYMin meet" x="210" y="-1137.18"/>
<text text-anchor="start" x="225" y="-1127.2843" font-family="Helvetica,sans-Serif" font-size="11.00" fill="#000000">RQMNT_ID</text>
<polygon fill="none" stroke="#000000" points="205,-1098.1843 205,-1120.1843 413,-1120.1843 413,-1098.1843 205,-1098.1843"/>
<image xlink:href="../../images/primaryKeys.png" width="11px" height="12px" preserveAspectRatio="xMinYMin meet" x="210" y="-1115.18"/>
<text text-anchor="start" x="225" y="-1105.2843" font-family="Helvetica,sans-Serif" font-size="11.00" fill="#000000">LIC_CONDITION_ID</text>
<polygon fill="none" stroke="#000000" points="205,-1076.1843 205,-1098.1843 413,-1098.1843 413,-1076.1843 205,-1076.1843"/>
<image xlink:href="../../images/primaryKeys.png" width="11px" height="12px" preserveAspectRatio="xMinYMin meet" x="210" y="-1093.18"/>
<text text-anchor="start" x="225" y="-1083.2843" font-family="Helvetica,sans-Serif" font-size="11.00" fill="#000000">PROVIDER_LOCATION_ID</text>
<polygon fill="none" stroke="#000000" points="205,-1054.1843 205,-1076.1843 413,-1076.1843 413,-1054.1843 205,-1054.1843"/>
<image xlink:href="../../images/primaryKeys.png" width="11px" height="12px" preserveAspectRatio="xMinYMin meet" x="210" y="-1071.18"/>
<text text-anchor="start" x="225" y="-1061.2843" font-family="Helvetica,sans-Serif" font-size="11.00" fill="#000000">PROVIDER_EMPLOYEE_ID</text>
<polygon fill="none" stroke="#000000" points="205,-1032.1843 205,-1054.1843 413,-1054.1843 413,-1032.1843 205,-1032.1843"/>
<image xlink:href="../../images/primaryKeys.png" width="11px" height="12px" preserveAspectRatio="xMinYMin meet" x="210" y="-1049.18"/>
<text text-anchor="start" x="225" y="-1039.2843" font-family="Helvetica,sans-Serif" font-size="11.00" fill="#000000">VISOR_CONTACT</text>
<polygon fill="none" stroke="#000000" points="205,-1010.1843 205,-1032.1843 413,-1032.1843 413,-1010.1843 205,-1010.1843"/>
<image xlink:href="../../images/primaryKeys.png" width="11px" height="12px" preserveAspectRatio="xMinYMin meet" x="210" y="-1027.18"/>
<text text-anchor="start" x="225" y="-1017.2843" font-family="Helvetica,sans-Serif" font-size="11.00" fill="#000000">STAFF_ID</text>
<polygon fill="none" stroke="#000000" points="205,-988.1843 205,-1010.1843 413,-1010.1843 413,-988.1843 205,-988.1843"/>
<image xlink:href="../../images/primaryKeys.png" width="11px" height="12px" preserveAspectRatio="xMinYMin meet" x="210" y="-1005.18"/>
<text text-anchor="start" x="225" y="-995.2843" font-family="Helvetica,sans-Serif" font-size="11.00" fill="#000000">TEAM_ID</text>
<polygon fill="none" stroke="#000000" points="205,-966.1843 205,-988.1843 413,-988.1843 413,-966.1843 205,-966.1843"/>
<image xlink:href="../../images/primaryKeys.png" width="11px" height="12px" preserveAspectRatio="xMinYMin meet" x="210" y="-983.184"/>
<text text-anchor="start" x="225" y="-973.2843" font-family="Helvetica,sans-Serif" font-size="11.00" fill="#000000">SOFT_DELETED</text>
<polygon fill="none" stroke="#000000" points="205,-944.1843 205,-966.1843 413,-966.1843 413,-944.1843 205,-944.1843"/>
<image xlink:href="../../images/primaryKeys.png" width="11px" height="12px" preserveAspectRatio="xMinYMin meet" x="210" y="-961.184"/>
<text text-anchor="start" x="225" y="-951.2843" font-family="Helvetica,sans-Serif" font-size="11.00" fill="#000000">VISOR_EXPORTED</text>
<polygon fill="none" stroke="#000000" points="205,-922.1843 205,-944.1843 413,-944.1843 413,-922.1843 205,-922.1843"/>
<image xlink:href="../../images/primaryKeys.png" width="11px" height="12px" preserveAspectRatio="xMinYMin meet" x="210" y="-939.184"/>
<text text-anchor="start" x="225" y="-929.2843" font-family="Helvetica,sans-Serif" font-size="11.00" fill="#000000">PARTITION_AREA_ID</text>
<polygon fill="none" stroke="#000000" points="205,-900.1843 205,-922.1843 413,-922.1843 413,-900.1843 205,-900.1843"/>
<image xlink:href="../../images/primaryKeys.png" width="11px" height="12px" preserveAspectRatio="xMinYMin meet" x="210" y="-917.184"/>
<text text-anchor="start" x="225" y="-907.2843" font-family="Helvetica,sans-Serif" font-size="11.00" fill="#000000">OFFICE_LOCATION_ID</text>
<polygon fill="none" stroke="#000000" points="205,-878.1843 205,-900.1843 413,-900.1843 413,-878.1843 205,-878.1843"/>
<image xlink:href="../../images/primaryKeys.png" width="11px" height="12px" preserveAspectRatio="xMinYMin meet" x="210" y="-895.184"/>
<text text-anchor="start" x="225" y="-885.2843" font-family="Helvetica,sans-Serif" font-size="11.00" fill="#000000">ROW_VERSION</text>
<polygon fill="none" stroke="#000000" points="205,-856.1843 205,-878.1843 413,-878.1843 413,-856.1843 205,-856.1843"/>
<image xlink:href="../../images/primaryKeys.png" width="11px" height="12px" preserveAspectRatio="xMinYMin meet" x="210" y="-873.184"/>
<text text-anchor="start" x="225" y="-863.2843" font-family="Helvetica,sans-Serif" font-size="11.00" fill="#000000">ALERT_ACTIVE</text>
<polygon fill="none" stroke="#000000" points="205,-834.1843 205,-856.1843 413,-856.1843 413,-834.1843 205,-834.1843"/>
<image xlink:href="../../images/primaryKeys.png" width="11px" height="12px" preserveAspectRatio="xMinYMin meet" x="210" y="-851.184"/>
<text text-anchor="start" x="225" y="-841.2843" font-family="Helvetica,sans-Serif" font-size="11.00" fill="#000000">ATTENDED</text>
<polygon fill="none" stroke="#000000" points="205,-812.1843 205,-834.1843 413,-834.1843 413,-812.1843 205,-812.1843"/>
<image xlink:href="../../images/primaryKeys.png" width="11px" height="12px" preserveAspectRatio="xMinYMin meet" x="210" y="-829.184"/>
<text text-anchor="start" x="225" y="-819.2843" font-family="Helvetica,sans-Serif" font-size="11.00" fill="#000000">CREATED_DATETIME</text>
<polygon fill="none" stroke="#000000" points="205,-790.1843 205,-812.1843 413,-812.1843 413,-790.1843 205,-790.1843"/>
<image xlink:href="../../images/primaryKeys.png" width="11px" height="12px" preserveAspectRatio="xMinYMin meet" x="210" y="-807.184"/>
<text text-anchor="start" x="225" y="-797.2843" font-family="Helvetica,sans-Serif" font-size="11.00" fill="#000000">COMPLIED</text>
<polygon fill="none" stroke="#000000" points="205,-768.1843 205,-790.1843 413,-790.1843 413,-768.1843 205,-768.1843"/>
<image xlink:href="../../images/primaryKeys.png" width="11px" height="12px" preserveAspectRatio="xMinYMin meet" x="210" y="-785.184"/>
<text text-anchor="start" x="225" y="-775.2843" font-family="Helvetica,sans-Serif" font-size="11.00" fill="#000000">SENSITIVE</text>
<polygon fill="none" stroke="#000000" points="205,-746.1843 205,-768.1843 413,-768.1843 413,-746.1843 205,-746.1843"/>
<image xlink:href="../../images/primaryKeys.png" width="11px" height="12px" preserveAspectRatio="xMinYMin meet" x="210" y="-763.184"/>
<text text-anchor="start" x="225" y="-753.2843" font-family="Helvetica,sans-Serif" font-size="11.00" fill="#000000">EVENT_ID</text>
<polygon fill="none" stroke="#000000" points="205,-724.1843 205,-746.1843 413,-746.1843 413,-724.1843 205,-724.1843"/>
<image xlink:href="../../images/primaryKeys.png" width="11px" height="12px" preserveAspectRatio="xMinYMin meet" x="210" y="-741.184"/>
<text text-anchor="start" x="225" y="-731.2843" font-family="Helvetica,sans-Serif" font-size="11.00" fill="#000000">CONTACT_TYPE_ID</text>
<polygon fill="none" stroke="#000000" points="205,-702.1843 205,-724.1843 413,-724.1843 413,-702.1843 205,-702.1843"/>
<image xlink:href="../../images/primaryKeys.png" width="11px" height="12px" preserveAspectRatio="xMinYMin meet" x="210" y="-719.184"/>
<text text-anchor="start" x="225" y="-709.2843" font-family="Helvetica,sans-Serif" font-size="11.00" fill="#000000">PROVIDER_TEAM_ID</text>
<polygon fill="none" stroke="#000000" points="205,-680.1843 205,-702.1843 413,-702.1843 413,-680.1843 205,-680.1843"/>
<image xlink:href="../../images/primaryKeys.png" width="11px" height="12px" preserveAspectRatio="xMinYMin meet" x="210" y="-697.184"/>
<text text-anchor="start" x="225" y="-687.2843" font-family="Helvetica,sans-Serif" font-size="11.00" fill="#000000">CONTACT_OUTCOME_TYPE_ID</text>
<polygon fill="none" stroke="#000000" points="205,-658.1843 205,-680.1843 413,-680.1843 413,-658.1843 205,-658.1843"/>
<image xlink:href="../../images/primaryKeys.png" width="11px" height="12px" preserveAspectRatio="xMinYMin meet" x="210" y="-675.184"/>
<text text-anchor="start" x="225" y="-665.2843" font-family="Helvetica,sans-Serif" font-size="11.00" fill="#000000">EXPLANATION_ID</text>
<polygon fill="none" stroke="#000000" points="205,-636.1843 205,-658.1843 413,-658.1843 413,-636.1843 205,-636.1843"/>
<image xlink:href="../../images/primaryKeys.png" width="11px" height="12px" preserveAspectRatio="xMinYMin meet" x="210" y="-653.184"/>
<text text-anchor="start" x="225" y="-643.2843" font-family="Helvetica,sans-Serif" font-size="11.00" fill="#000000">TRAINING_SESSION_ID</text>
<polygon fill="none" stroke="#000000" points="205,-614.1843 205,-636.1843 413,-636.1843 413,-614.1843 205,-614.1843"/>
<image xlink:href="../../images/primaryKeys.png" width="11px" height="12px" preserveAspectRatio="xMinYMin meet" x="210" y="-631.184"/>
<text text-anchor="start" x="225" y="-621.2843" font-family="Helvetica,sans-Serif" font-size="11.00" fill="#000000">TRUST_PROVIDER_FLAG</text>
<polygon fill="none" stroke="#000000" points="205,-592.1843 205,-614.1843 413,-614.1843 413,-592.1843 205,-592.1843"/>
<image xlink:href="../../images/primaryKeys.png" width="11px" height="12px" preserveAspectRatio="xMinYMin meet" x="210" y="-609.184"/>
<text text-anchor="start" x="225" y="-599.2843" font-family="Helvetica,sans-Serif" font-size="11.00" fill="#000000">STAFF_EMPLOYEE_ID</text>
<polygon fill="none" stroke="#000000" points="205,-570.1843 205,-592.1843 413,-592.1843 413,-570.1843 205,-570.1843"/>
<image xlink:href="../../images/primaryKeys.png" width="11px" height="12px" preserveAspectRatio="xMinYMin meet" x="210" y="-587.184"/>
<text text-anchor="start" x="225" y="-577.2843" font-family="Helvetica,sans-Serif" font-size="11.00" fill="#000000">PROBATION_AREA_ID</text>
<polygon fill="none" stroke="#000000" points="205,-548.1843 205,-570.1843 413,-570.1843 413,-548.1843 205,-548.1843"/>
<image xlink:href="../../images/primaryKeys.png" width="11px" height="12px" preserveAspectRatio="xMinYMin meet" x="210" y="-565.184"/>
<text text-anchor="start" x="225" y="-555.2843" font-family="Helvetica,sans-Serif" font-size="11.00" fill="#000000">TRUST_PROVIDER_TEAM_ID</text>
<polygon fill="none" stroke="#000000" points="205,-526.1843 205,-548.1843 413,-548.1843 413,-526.1843 205,-526.1843"/>
<image xlink:href="../../images/primaryKeys.png" width="11px" height="12px" preserveAspectRatio="xMinYMin meet" x="210" y="-543.184"/>
<text text-anchor="start" x="225" y="-533.2843" font-family="Helvetica,sans-Serif" font-size="11.00" fill="#000000">ENFORCEMENT</text>
<polygon fill="none" stroke="#000000" points="205,-504.1843 205,-526.1843 413,-526.1843 413,-504.1843 205,-504.1843"/>
<image xlink:href="../../images/primaryKeys.png" width="11px" height="12px" preserveAspectRatio="xMinYMin meet" x="210" y="-521.184"/>
<text text-anchor="start" x="225" y="-511.2843" font-family="Helvetica,sans-Serif" font-size="11.00" fill="#000000">DOCUMENT_LINKED</text>
<polygon fill="none" stroke="#000000" points="205,-482.1843 205,-504.1843 413,-504.1843 413,-482.1843 205,-482.1843"/>
<image xlink:href="../../images/primaryKeys.png" width="11px" height="12px" preserveAspectRatio="xMinYMin meet" x="210" y="-499.184"/>
<text text-anchor="start" x="217.8069" y="-489.2843" font-family="Helvetica,sans-Serif" font-size="11.00" fill="#000000">LATEST_ENFORCEMENT_ACTION_ID</text>
<polygon fill="none" stroke="#000000" points="205,-460.1843 205,-482.1843 413,-482.1843 413,-460.1843 205,-460.1843"/>
<image xlink:href="../../images/primaryKeys.png" width="11px" height="12px" preserveAspectRatio="xMinYMin meet" x="210" y="-477.184"/>
<text text-anchor="start" x="225" y="-467.2843" font-family="Helvetica,sans-Serif" font-size="11.00" fill="#000000">NSI_ID</text>
<polygon fill="none" stroke="#000000" points="205,-438.1843 205,-460.1843 413,-460.1843 413,-438.1843 205,-438.1843"/>
<image xlink:href="../../images/primaryKeys.png" width="11px" height="12px" preserveAspectRatio="xMinYMin meet" x="210" y="-455.184"/>
<text text-anchor="start" x="225" y="-445.2843" font-family="Helvetica,sans-Serif" font-size="11.00" fill="#000000">TABLE_NAME</text>
<polygon fill="none" stroke="#000000" points="205,-416.1843 205,-438.1843 413,-438.1843 413,-416.1843 205,-416.1843"/>
<image xlink:href="../../images/primaryKeys.png" width="11px" height="12px" preserveAspectRatio="xMinYMin meet" x="210" y="-433.184"/>
<text text-anchor="start" x="225" y="-423.2843" font-family="Helvetica,sans-Serif" font-size="11.00" fill="#000000">PRIMARY_KEY_ID</text>
<polygon fill="none" stroke="#000000" points="205,-394.1843 205,-416.1843 413,-416.1843 413,-394.1843 205,-394.1843"/>
<image xlink:href="../../images/primaryKeys.png" width="11px" height="12px" preserveAspectRatio="xMinYMin meet" x="210" y="-411.184"/>
<text text-anchor="start" x="225" y="-401.2843" font-family="Helvetica,sans-Serif" font-size="11.00" fill="#000000">PSS_RQMNT_ID</text>
<polygon fill="none" stroke="#000000" points="205,-372.1843 205,-394.1843 413,-394.1843 413,-372.1843 205,-372.1843"/>
<image xlink:href="../../images/primaryKeys.png" width="11px" height="12px" preserveAspectRatio="xMinYMin meet" x="210" y="-389.184"/>
<text text-anchor="start" x="225" y="-379.2843" font-family="Helvetica,sans-Serif" font-size="11.00" fill="#000000">NOMIS_CASE_NOTE_ID</text>
<polygon fill="none" stroke="#000000" points="205,-350.1843 205,-372.1843 413,-372.1843 413,-350.1843 205,-350.1843"/>
<image xlink:href="../../images/primaryKeys.png" width="11px" height="12px" preserveAspectRatio="xMinYMin meet" x="210" y="-367.184"/>
<text text-anchor="start" x="223.6193" y="-357.2843" font-family="Helvetica,sans-Serif" font-size="11.00" fill="#000000">LINKED_DOCUMENT_CONTACT_ID</text>
<polygon fill="none" stroke="#000000" points="205,-328.1843 205,-350.1843 413,-350.1843 413,-328.1843 205,-328.1843"/>
<image xlink:href="../../images/primaryKeys.png" width="11px" height="12px" preserveAspectRatio="xMinYMin meet" x="210" y="-345.184"/>
<text text-anchor="start" x="225" y="-335.2843" font-family="Helvetica,sans-Serif" font-size="11.00" fill="#000000">EXTERNAL_REFERENCE</text>
<polygon fill="none" stroke="#000000" points="205,-306.1843 205,-328.1843 413,-328.1843 413,-306.1843 205,-306.1843"/>
<image xlink:href="../../images/primaryKeys.png" width="11px" height="12px" preserveAspectRatio="xMinYMin meet" x="210" y="-323.184"/>
<text text-anchor="start" x="225" y="-313.2843" font-family="Helvetica,sans-Serif" font-size="11.00" fill="#000000">RAR_LINKED_CONTACT_ID</text>
<polygon fill="none" stroke="#000000" points="205,-287.1843 205,-306.1843 413,-306.1843 413,-287.1843 205,-287.1843"/>
<text text-anchor="start" x="208" y="-293.2843" font-family="Helvetica,sans-Serif" font-size="11.00" fill="#000000">...</text>
<polygon fill="#ffffff" stroke="transparent" points="205,-268.1843 205,-287.1843 273,-287.1843 273,-268.1843 205,-268.1843"/>
<polygon fill="none" stroke="#000000" points="205,-268.1843 205,-287.1843 273,-287.1843 273,-268.1843 205,-268.1843"/>
<text text-anchor="start" x="208" y="-274.2843" font-family="Helvetica,sans-Serif" font-size="11.00" fill="#000000">&lt; 25</text>
<polygon fill="#ffffff" stroke="transparent" points="273,-268.1843 273,-287.1843 365,-287.1843 365,-268.1843 273,-268.1843"/>
<polygon fill="none" stroke="#000000" points="273,-268.1843 273,-287.1843 365,-287.1843 365,-268.1843 273,-268.1843"/>
<text text-anchor="start" x="295.9791" y="-274.2843" font-family="Helvetica,sans-Serif" font-size="11.00" fill="#000000">165,869 rows</text>
<polygon fill="#ffffff" stroke="transparent" points="365,-268.1843 365,-287.1843 413,-287.1843 413,-268.1843 365,-268.1843"/>
<polygon fill="none" stroke="#000000" points="365,-268.1843 365,-287.1843 413,-287.1843 413,-268.1843 365,-268.1843"/>
<text text-anchor="start" x="388.2904" y="-274.2843" font-family="Helvetica,sans-Serif" font-size="11.00" fill="#000000">14 &gt;</text>
</a>
</g>
</g>
<!-- PARTITION_AREA -->
<g id="node2" class="node">
<title>PARTITION_AREA</title>
<g id="a_node2"><a xlink:href="../../tables/PARTITION_AREA.html" xlink:title="PARTITION_AREA" target="_top">
<polygon fill="#ffffff" stroke="transparent" points="8,-862.6843 8,-967.6843 150,-967.6843 150,-862.6843 8,-862.6843"/>
<polygon fill="#f5f5f5" stroke="transparent" points="8,-944.1843 8,-967.1843 150,-967.1843 150,-944.1843 8,-944.1843"/>
<polygon fill="none" stroke="#000000" points="8,-944.1843 8,-967.1843 150,-967.1843 150,-944.1843 8,-944.1843"/>
<text text-anchor="start" x="13" y="-953.2843" font-family="Helvetica,sans-Serif" font-weight="bold" font-size="11.00" fill="#000000">PARTITION_AREA</text>
<text text-anchor="start" x="115.0437" y="-952.2843" font-family="Helvetica,sans-Serif" font-size="11.00" fill="#000000">[table]</text>
<polygon fill="none" stroke="#000000" points="8,-922.1843 8,-944.1843 150,-944.1843 150,-922.1843 8,-922.1843"/>
<image xlink:href="../../images/primaryKeys.png" width="11px" height="12px" preserveAspectRatio="xMinYMin meet" x="13" y="-939.184"/>
<text text-anchor="start" x="28" y="-929.2843" font-family="Helvetica,sans-Serif" font-size="11.00" fill="#000000">PARTITION_AREA_ID</text>
<polygon fill="none" stroke="#000000" points="8,-900.1843 8,-922.1843 150,-922.1843 150,-900.1843 8,-900.1843"/>
<image xlink:href="../../images/primaryKeys.png" width="11px" height="12px" preserveAspectRatio="xMinYMin meet" x="13" y="-917.184"/>
<text text-anchor="start" x="24.1624" y="-907.2843" font-family="Helvetica,sans-Serif" font-size="11.00" fill="#000000">TRAINING_SESSION_ID</text>
<polygon fill="none" stroke="#000000" points="8,-881.1843 8,-900.1843 150,-900.1843 150,-881.1843 8,-881.1843"/>
<text text-anchor="start" x="11" y="-887.2843" font-family="Helvetica,sans-Serif" font-size="11.00" fill="#000000">...</text>
<polygon fill="#ffffff" stroke="transparent" points="8,-862.1843 8,-881.1843 49,-881.1843 49,-862.1843 8,-862.1843"/>
<polygon fill="none" stroke="#000000" points="8,-862.1843 8,-881.1843 49,-881.1843 49,-862.1843 8,-862.1843"/>
<text text-anchor="start" x="11" y="-868.2843" font-family="Helvetica,sans-Serif" font-size="11.00" fill="#000000"> &#160;</text>
<polygon fill="#ffffff" stroke="transparent" points="49,-862.1843 49,-881.1843 108,-881.1843 108,-862.1843 49,-862.1843"/>
<polygon fill="none" stroke="#000000" points="49,-862.1843 49,-881.1843 108,-881.1843 108,-862.1843 49,-862.1843"/>
<text text-anchor="start" x="66.4956" y="-868.2843" font-family="Helvetica,sans-Serif" font-size="11.00" fill="#000000">44 rows</text>
<polygon fill="#ffffff" stroke="transparent" points="108,-862.1843 108,-881.1843 150,-881.1843 150,-862.1843 108,-862.1843"/>
<polygon fill="none" stroke="#000000" points="108,-862.1843 108,-881.1843 150,-881.1843 150,-862.1843 108,-862.1843"/>
<text text-anchor="start" x="125.2904" y="-868.2843" font-family="Helvetica,sans-Serif" font-size="11.00" fill="#000000">82 &gt;</text>
</a>
</g>
</g>
<!-- CONTACT&#45;&gt;PARTITION_AREA -->
<g id="edge1" class="edge">
<title>CONTACT:w&#45;&gt;PARTITION_AREA:e</title>
<path fill="none" stroke="#000000" d="M190.3617,-933.1843C176.6839,-933.1843 168.7153,-933.1843 150,-933.1843"/>
<polygon fill="#000000" stroke="#000000" points="197,-933.1844 205,-936.7843 201,-933.1844 205,-933.1843 205,-933.1843 205,-933.1843 201,-933.1844 205,-929.5843 197,-933.1844 197,-933.1844"/>
<ellipse fill="none" stroke="#000000" cx="193.8" cy="-933.1844" rx="3.2" ry="3.2"/>
</g>
<!-- SUBJECT_ACCESS_REPORT -->
<g id="node3" class="node">
<title>SUBJECT_ACCESS_REPORT</title>
<g id="a_node3"><a xlink:href="../../tables/SUBJECT_ACCESS_REPORT.html" xlink:title="SUBJECT_ACCESS_REPORT" target="_top">
<polygon fill="#ffffff" stroke="transparent" points="211,-1318.6843 211,-1467.6843 407,-1467.6843 407,-1318.6843 211,-1318.6843"/>
<polygon fill="#f5f5f5" stroke="transparent" points="211,-1444.1843 211,-1467.1843 407,-1467.1843 407,-1444.1843 211,-1444.1843"/>
<polygon fill="none" stroke="#000000" points="211,-1444.1843 211,-1467.1843 407,-1467.1843 407,-1444.1843 211,-1444.1843"/>
<text text-anchor="start" x="215.8025" y="-1453.2843" font-family="Helvetica,sans-Serif" font-weight="bold" font-size="11.00" fill="#000000">SUBJECT_ACCESS_REPORT</text>
<text text-anchor="start" x="372.5219" y="-1452.2843" font-family="Helvetica,sans-Serif" font-size="11.00" fill="#000000">[table]</text>
<polygon fill="none" stroke="#000000" points="211,-1422.1843 211,-1444.1843 407,-1444.1843 407,-1422.1843 211,-1422.1843"/>
<image xlink:href="../../images/primaryKeys.png" width="11px" height="12px" preserveAspectRatio="xMinYMin meet" x="216" y="-1439.18"/>
<text text-anchor="start" x="231.2462" y="-1429.2843" font-family="Helvetica,sans-Serif" font-size="11.00" fill="#000000">SUBJECT_ACCESS_REPORT_ID</text>
<polygon fill="none" stroke="#000000" points="211,-1400.1843 211,-1422.1843 407,-1422.1843 407,-1400.1843 211,-1400.1843"/>
<image xlink:href="../../images/primaryKeys.png" width="11px" height="12px" preserveAspectRatio="xMinYMin meet" x="216" y="-1417.18"/>
<text text-anchor="start" x="238" y="-1407.2843" font-family="Helvetica,sans-Serif" font-size="11.00" fill="#000000">PARTITION_AREA_ID</text>
<polygon fill="none" stroke="#000000" points="211,-1378.1843 211,-1400.1843 407,-1400.1843 407,-1378.1843 211,-1378.1843"/>
<image xlink:href="../../images/primaryKeys.png" width="11px" height="12px" preserveAspectRatio="xMinYMin meet" x="216" y="-1395.18"/>
<text text-anchor="start" x="238" y="-1385.2843" font-family="Helvetica,sans-Serif" font-size="11.00" fill="#000000">OFFENDER_ID</text>
<polygon fill="none" stroke="#000000" points="211,-1356.1843 211,-1378.1843 407,-1378.1843 407,-1356.1843 211,-1356.1843"/>
<image xlink:href="../../images/primaryKeys.png" width="11px" height="12px" preserveAspectRatio="xMinYMin meet" x="216" y="-1373.18"/>
<text text-anchor="start" x="238" y="-1363.2843" font-family="Helvetica,sans-Serif" font-size="11.00" fill="#000000">TRAINING_SESSION_ID</text>
<polygon fill="none" stroke="#000000" points="211,-1337.1843 211,-1356.1843 407,-1356.1843 407,-1337.1843 211,-1337.1843"/>
<text text-anchor="start" x="214" y="-1343.2843" font-family="Helvetica,sans-Serif" font-size="11.00" fill="#000000">...</text>
<polygon fill="#ffffff" stroke="transparent" points="211,-1318.1843 211,-1337.1843 284,-1337.1843 284,-1318.1843 211,-1318.1843"/>
<polygon fill="none" stroke="#000000" points="211,-1318.1843 211,-1337.1843 284,-1337.1843 284,-1318.1843 211,-1318.1843"/>
<text text-anchor="start" x="214" y="-1324.2843" font-family="Helvetica,sans-Serif" font-size="11.00" fill="#000000">&lt; 2</text>
<polygon fill="#ffffff" stroke="transparent" points="284,-1318.1843 284,-1337.1843 360,-1337.1843 360,-1318.1843 284,-1318.1843"/>
<polygon fill="none" stroke="#000000" points="284,-1318.1843 284,-1337.1843 360,-1337.1843 360,-1318.1843 284,-1318.1843"/>
<text text-anchor="start" x="312.3807" y="-1324.2843" font-family="Helvetica,sans-Serif" font-size="11.00" fill="#000000">100 rows</text>
<polygon fill="#ffffff" stroke="transparent" points="360,-1318.1843 360,-1337.1843 407,-1337.1843 407,-1318.1843 360,-1318.1843"/>
<polygon fill="none" stroke="#000000" points="360,-1318.1843 360,-1337.1843 407,-1337.1843 407,-1318.1843 360,-1318.1843"/>
<text text-anchor="start" x="388.4053" y="-1324.2843" font-family="Helvetica,sans-Serif" font-size="11.00" fill="#000000">2 &gt;</text>
</a>
</g>
</g>
<!-- SUBJECT_ACCESS_REPORT&#45;&gt;PARTITION_AREA -->
<g id="edge2" class="edge">
<title>SUBJECT_ACCESS_REPORT:w&#45;&gt;PARTITION_AREA:e</title>
<path fill="none" stroke="#000000" d="M196.6317,-1407.6116C118.8013,-1363.8701 251.6458,-933.1843 150,-933.1843"/>
<polygon fill="#000000" stroke="#000000" points="203.2364,-1409.2539 210.1313,-1414.6779 207.1182,-1410.2191 211,-1411.1843 211,-1411.1843 211,-1411.1843 207.1182,-1410.2191 211.8687,-1407.6907 203.2364,-1409.2539 203.2364,-1409.2539"/>
<ellipse fill="none" stroke="#000000" cx="200.131" cy="-1408.4817" rx="3.2" ry="3.2"/>
</g>
<!-- SUBJECT_ACCESS_REPORT_CONTACT -->
<g id="node4" class="node">
<title>SUBJECT_ACCESS_REPORT_CONTACT</title>
<g id="a_node4"><a xlink:href="../../tables/SUBJECT_ACCESS_REPORT_CONTACT.html" xlink:title="SUBJECT_ACCESS_REPORT_CONTACT" target="_top">
<polygon fill="#ffffff" stroke="transparent" points="468,-629.1843 468,-829.1843 754,-829.1843 754,-629.1843 468,-629.1843"/>
<polygon fill="#f5f5f5" stroke="transparent" points="470,-804.1843 470,-827.1843 752,-827.1843 752,-804.1843 470,-804.1843"/>
<polygon fill="none" stroke="#000000" points="470,-804.1843 470,-827.1843 752,-827.1843 752,-804.1843 470,-804.1843"/>
<text text-anchor="start" x="475" y="-813.2843" font-family="Helvetica,sans-Serif" font-weight="bold" font-size="11.00" fill="#000000">SUBJECT_ACCESS_REPORT_CONTACT</text>
<text text-anchor="start" x="717.0437" y="-812.2843" font-family="Helvetica,sans-Serif" font-size="11.00" fill="#000000">[table]</text>
<polygon fill="none" stroke="#000000" points="470,-782.1843 470,-804.1843 691,-804.1843 691,-782.1843 470,-782.1843"/>
<image xlink:href="../../images/primaryKeys.png" width="11px" height="12px" preserveAspectRatio="xMinYMin meet" x="475" y="-799.184"/>
<text text-anchor="start" x="490" y="-789.2843" font-family="Helvetica,sans-Serif" font-size="11.00" fill="#000000">SAR_CONTACT_ID</text>
<polygon fill="none" stroke="#000000" points="691,-782.1843 691,-804.1843 752,-804.1843 752,-782.1843 691,-782.1843"/>
<text text-anchor="start" x="693.6865" y="-789.8843" font-family="Helvetica,sans-Serif" font-size="11.00" fill="#000000">number[38]</text>
<polygon fill="none" stroke="#000000" points="470,-760.1843 470,-782.1843 691,-782.1843 691,-760.1843 470,-760.1843"/>
<image xlink:href="../../images/primaryKeys.png" width="11px" height="12px" preserveAspectRatio="xMinYMin meet" x="475" y="-777.184"/>
<text text-anchor="start" x="490" y="-767.2843" font-family="Helvetica,sans-Serif" font-size="11.00" fill="#000000">SUBJECT_ACCESS_REPORT_ID</text>
<polygon fill="none" stroke="#000000" points="691,-760.1843 691,-782.1843 752,-782.1843 752,-760.1843 691,-760.1843"/>
<text text-anchor="start" x="693.6865" y="-767.8843" font-family="Helvetica,sans-Serif" font-size="11.00" fill="#000000">number[38]</text>
<polygon fill="none" stroke="#000000" points="470,-738.1843 470,-760.1843 691,-760.1843 691,-738.1843 470,-738.1843"/>
<image xlink:href="../../images/primaryKeys.png" width="11px" height="12px" preserveAspectRatio="xMinYMin meet" x="475" y="-755.184"/>
<text text-anchor="start" x="490" y="-745.2843" font-family="Helvetica,sans-Serif" font-size="11.00" fill="#000000">CONTACT_ID</text>
<polygon fill="none" stroke="#000000" points="691,-738.1843 691,-760.1843 752,-760.1843 752,-738.1843 691,-738.1843"/>
<text text-anchor="start" x="693.6865" y="-745.8843" font-family="Helvetica,sans-Serif" font-size="11.00" fill="#000000">number[38]</text>
<polygon fill="none" stroke="#000000" points="470,-716.1843 470,-738.1843 691,-738.1843 691,-716.1843 470,-716.1843"/>
<image xlink:href="../../images/primaryKeys.png" width="11px" height="12px" preserveAspectRatio="xMinYMin meet" x="475" y="-733.184"/>
<text text-anchor="start" x="490" y="-723.2843" font-family="Helvetica,sans-Serif" font-size="11.00" fill="#000000">DPA_SAR_EXCLUSION_REASON_ID</text>
<polygon fill="none" stroke="#000000" points="691,-716.1843 691,-738.1843 752,-738.1843 752,-716.1843 691,-716.1843"/>
<text text-anchor="start" x="693.6865" y="-723.8843" font-family="Helvetica,sans-Serif" font-size="11.00" fill="#000000">number[38]</text>
<polygon fill="none" stroke="#000000" points="470,-694.1843 470,-716.1843 691,-716.1843 691,-694.1843 470,-694.1843"/>
<image xlink:href="../../images/primaryKeys.png" width="11px" height="12px" preserveAspectRatio="xMinYMin meet" x="475" y="-711.184"/>
<text text-anchor="start" x="490" y="-701.2843" font-family="Helvetica,sans-Serif" font-size="11.00" fill="#000000">PARTITION_AREA_ID</text>
<polygon fill="none" stroke="#000000" points="691,-694.1843 691,-716.1843 752,-716.1843 752,-694.1843 691,-694.1843"/>
<text text-anchor="start" x="693.6865" y="-701.8843" font-family="Helvetica,sans-Serif" font-size="11.00" fill="#000000">number[38]</text>
<polygon fill="none" stroke="#000000" points="470,-672.1843 470,-694.1843 691,-694.1843 691,-672.1843 470,-672.1843"/>
<text text-anchor="start" x="490" y="-679.2843" font-family="Helvetica,sans-Serif" font-size="11.00" fill="#000000">ROW_VERSION</text>
<polygon fill="none" stroke="#000000" points="691,-672.1843 691,-694.1843 752,-694.1843 752,-672.1843 691,-672.1843"/>
<text text-anchor="start" x="693.6865" y="-679.8843" font-family="Helvetica,sans-Serif" font-size="11.00" fill="#000000">number[38]</text>
<polygon fill="none" stroke="#000000" points="470,-650.1843 470,-672.1843 691,-672.1843 691,-650.1843 470,-650.1843"/>
<image xlink:href="../../images/primaryKeys.png" width="11px" height="12px" preserveAspectRatio="xMinYMin meet" x="475" y="-667.184"/>
<text text-anchor="start" x="490" y="-657.2843" font-family="Helvetica,sans-Serif" font-size="11.00" fill="#000000">TRAINING_SESSION_ID</text>
<polygon fill="none" stroke="#000000" points="691,-650.1843 691,-672.1843 752,-672.1843 752,-650.1843 691,-650.1843"/>
<text text-anchor="start" x="693.6865" y="-657.8843" font-family="Helvetica,sans-Serif" font-size="11.00" fill="#000000">number[38]</text>
<polygon fill="#ffffff" stroke="transparent" points="470,-631.1843 470,-650.1843 569,-650.1843 569,-631.1843 470,-631.1843"/>
<polygon fill="none" stroke="#000000" points="470,-631.1843 470,-650.1843 569,-650.1843 569,-631.1843 470,-631.1843"/>
<text text-anchor="start" x="473" y="-637.2843" font-family="Helvetica,sans-Serif" font-size="11.00" fill="#000000">&lt; 4</text>
<polygon fill="#ffffff" stroke="transparent" points="569,-631.1843 569,-650.1843 691,-650.1843 691,-631.1843 569,-631.1843"/>
<polygon fill="none" stroke="#000000" points="569,-631.1843 569,-650.1843 691,-650.1843 691,-631.1843 569,-631.1843"/>
<text text-anchor="start" x="649.4956" y="-637.2843" font-family="Helvetica,sans-Serif" font-size="11.00" fill="#000000">18 rows</text>
<polygon fill="#ffffff" stroke="transparent" points="691,-631.1843 691,-650.1843 752,-650.1843 752,-631.1843 691,-631.1843"/>
<polygon fill="none" stroke="#000000" points="691,-631.1843 691,-650.1843 752,-650.1843 752,-631.1843 691,-631.1843"/>
<text text-anchor="start" x="733.4053" y="-637.2843" font-family="Helvetica,sans-Serif" font-size="11.00" fill="#000000">0 &gt;</text>
<polygon fill="none" stroke="#000000" stroke-width="2" points="469,-630.1843 469,-828.1843 753,-828.1843 753,-630.1843 469,-630.1843"/>
</a>
</g>
</g>
<!-- SUBJECT_ACCESS_REPORT_CONTACT&#45;&gt;CONTACT -->
<g id="edge3" class="edge">
<title>SUBJECT_ACCESS_REPORT_CONTACT:w&#45;&gt;CONTACT:e</title>
<path fill="none" stroke="#000000" d="M455.4554,-749.9506C257.9256,-772.0149 637.6823,-1263.1843 413,-1263.1843"/>
<polygon fill="#000000" stroke="#000000" points="462.0111,-749.6053 470.1894,-752.7793 466.0055,-749.3948 470,-749.1843 470,-749.1843 470,-749.1843 466.0055,-749.3948 469.8106,-745.5893 462.0111,-749.6053 462.0111,-749.6053"/>
<ellipse fill="none" stroke="#000000" cx="458.8155" cy="-749.7737" rx="3.2" ry="3.2"/>
</g>
<!-- SUBJECT_ACCESS_REPORT_CONTACT&#45;&gt;PARTITION_AREA -->
<g id="edge5" class="edge">
<title>SUBJECT_ACCESS_REPORT_CONTACT:w&#45;&gt;PARTITION_AREA:e</title>
<path fill="none" stroke="#000000" d="M457.5559,-697.1086C411.3383,-627.5972 473.721,-131.7625 427,-88.1843 350.2975,-16.6413 266.9436,-15.8362 191,-88.1843 122.9409,-153.0213 243.9993,-933.1843 150,-933.1843"/>
<polygon fill="#000000" stroke="#000000" points="463.2893,-700.8293 468.0402,-708.2042 466.6446,-703.0068 470,-705.1843 470,-705.1843 470,-705.1843 466.6446,-703.0068 471.9598,-702.1645 463.2893,-700.8293 463.2893,-700.8293"/>
<ellipse fill="none" stroke="#000000" cx="460.605" cy="-699.0873" rx="3.2" ry="3.2"/>
</g>
<!-- SUBJECT_ACCESS_REPORT_CONTACT&#45;&gt;SUBJECT_ACCESS_REPORT -->
<g id="edge6" class="edge">
<title>SUBJECT_ACCESS_REPORT_CONTACT:w&#45;&gt;SUBJECT_ACCESS_REPORT:e</title>
<path fill="none" stroke="#000000" d="M457.6055,-779.0801C406.3811,-853.7702 476.1256,-1433.1843 407,-1433.1843"/>
<polygon fill="#000000" stroke="#000000" points="463.2528,-775.4826 471.9342,-774.2206 466.6264,-773.3335 470,-771.1843 470,-771.1843 470,-771.1843 466.6264,-773.3335 468.0658,-768.1481 463.2528,-775.4826 463.2528,-775.4826"/>
<ellipse fill="none" stroke="#000000" cx="460.5539" cy="-777.2019" rx="3.2" ry="3.2"/>
</g>
<!-- R_STANDARD_REFERENCE_LIST -->
<g id="node5" class="node">
<title>R_STANDARD_REFERENCE_LIST</title>
<g id="a_node5"><a xlink:href="../../tables/R_STANDARD_REFERENCE_LIST.html" xlink:title="R_STANDARD_REFERENCE_LIST" target="_top">
<polygon fill="#ffffff" stroke="transparent" points="199,-98.6843 199,-247.6843 419,-247.6843 419,-98.6843 199,-98.6843"/>
<polygon fill="#f5f5f5" stroke="transparent" points="199,-224.1843 199,-247.1843 419,-247.1843 419,-224.1843 199,-224.1843"/>
<polygon fill="none" stroke="#000000" points="199,-224.1843 199,-247.1843 419,-247.1843 419,-224.1843 199,-224.1843"/>
<text text-anchor="start" x="203.5843" y="-233.2843" font-family="Helvetica,sans-Serif" font-weight="bold" font-size="11.00" fill="#000000">R_STANDARD_REFERENCE_LIST</text>
<text text-anchor="start" x="384.5219" y="-232.2843" font-family="Helvetica,sans-Serif" font-size="11.00" fill="#000000">[table]</text>
<polygon fill="none" stroke="#000000" points="199,-202.1843 199,-224.1843 419,-224.1843 419,-202.1843 199,-202.1843"/>
<image xlink:href="../../images/primaryKeys.png" width="11px" height="12px" preserveAspectRatio="xMinYMin meet" x="204" y="-219.184"/>
<text text-anchor="start" x="226.5558" y="-209.2843" font-family="Helvetica,sans-Serif" font-size="11.00" fill="#000000">STANDARD_REFERENCE_LIST_ID</text>
<polygon fill="none" stroke="#000000" points="199,-180.1843 199,-202.1843 419,-202.1843 419,-180.1843 199,-180.1843"/>
<image xlink:href="../../images/primaryKeys.png" width="11px" height="12px" preserveAspectRatio="xMinYMin meet" x="204" y="-197.184"/>
<text text-anchor="start" x="233" y="-187.2843" font-family="Helvetica,sans-Serif" font-size="11.00" fill="#000000">CODE_VALUE</text>
<polygon fill="none" stroke="#000000" points="199,-158.1843 199,-180.1843 419,-180.1843 419,-158.1843 199,-158.1843"/>
<image xlink:href="../../images/primaryKeys.png" width="11px" height="12px" preserveAspectRatio="xMinYMin meet" x="204" y="-175.184"/>
<text text-anchor="start" x="230.8337" y="-165.2843" font-family="Helvetica,sans-Serif" font-size="11.00" fill="#000000">REFERENCE_DATA_MASTER_ID</text>
<polygon fill="none" stroke="#000000" points="199,-136.1843 199,-158.1843 419,-158.1843 419,-136.1843 199,-136.1843"/>
<image xlink:href="../../images/primaryKeys.png" width="11px" height="12px" preserveAspectRatio="xMinYMin meet" x="204" y="-153.184"/>
<text text-anchor="start" x="233" y="-143.2843" font-family="Helvetica,sans-Serif" font-size="11.00" fill="#000000">TRAINING_SESSION_ID</text>
<polygon fill="none" stroke="#000000" points="199,-117.1843 199,-136.1843 419,-136.1843 419,-117.1843 199,-117.1843"/>
<text text-anchor="start" x="202" y="-123.2843" font-family="Helvetica,sans-Serif" font-size="11.00" fill="#000000">...</text>
<polygon fill="#ffffff" stroke="transparent" points="199,-98.1843 199,-117.1843 270,-117.1843 270,-98.1843 199,-98.1843"/>
<polygon fill="none" stroke="#000000" points="199,-98.1843 199,-117.1843 270,-117.1843 270,-98.1843 199,-98.1843"/>
<text text-anchor="start" x="202" y="-104.2843" font-family="Helvetica,sans-Serif" font-size="11.00" fill="#000000">&lt; 1</text>
<polygon fill="#ffffff" stroke="transparent" points="270,-98.1843 270,-117.1843 360,-117.1843 360,-98.1843 270,-98.1843"/>
<polygon fill="none" stroke="#000000" points="270,-98.1843 270,-117.1843 360,-117.1843 360,-98.1843 270,-98.1843"/>
<text text-anchor="start" x="297.094" y="-104.2843" font-family="Helvetica,sans-Serif" font-size="11.00" fill="#000000">15,391 rows</text>
<polygon fill="#ffffff" stroke="transparent" points="360,-98.1843 360,-117.1843 419,-117.1843 419,-98.1843 360,-98.1843"/>
<polygon fill="none" stroke="#000000" points="360,-98.1843 360,-117.1843 419,-117.1843 419,-98.1843 360,-98.1843"/>
<text text-anchor="start" x="388.1755" y="-104.2843" font-family="Helvetica,sans-Serif" font-size="11.00" fill="#000000">297 &gt;</text>
</a>
</g>
</g>
<!-- SUBJECT_ACCESS_REPORT_CONTACT&#45;&gt;R_STANDARD_REFERENCE_LIST -->
<g id="edge4" class="edge">
<title>SUBJECT_ACCESS_REPORT_CONTACT:w&#45;&gt;R_STANDARD_REFERENCE_LIST:e</title>
<path fill="none" stroke="#000000" d="M455.7319,-723.902C371.3129,-680.1262 528.4026,-213.1843 419,-213.1843"/>
<polygon fill="#000000" stroke="#000000" points="462.2036,-725.3908 469.1929,-730.6927 466.1018,-726.2876 470,-727.1843 470,-727.1843 470,-727.1843 466.1018,-726.2876 470.8071,-723.676 462.2036,-725.3908 462.2036,-725.3908"/>
<ellipse fill="none" stroke="#000000" cx="459.0851" cy="-724.6734" rx="3.2" ry="3.2"/>
</g>
</g>
</svg>
