<?xml version="1.0" encoding="UTF-8" standalone="no"?>
<!DOCTYPE svg PUBLIC "-//W3C//DTD SVG 1.1//EN"
 "http://www.w3.org/Graphics/SVG/1.1/DTD/svg11.dtd">
<!-- Generated by graphviz version 2.40.1 (20161225.0304)
 -->
<!-- Title: oneDegreeRelationshipsDiagram Pages: 1 -->
<svg width="770pt" height="1436pt"
 viewBox="0.00 0.00 770.00 1435.61" xmlns="http://www.w3.org/2000/svg" xmlns:xlink="http://www.w3.org/1999/xlink">
<g id="graph0" class="graph" transform="scale(1 1) rotate(0) translate(4 1431.6095)">
<title>oneDegreeRelationshipsDiagram</title>
<polygon fill="#ffffff" stroke="transparent" points="-4,4 -4,-1431.6095 766,-1431.6095 766,4 -4,4"/>
<text text-anchor="middle" x="72.4936" y="-7.3" font-family="Helvetica,sans-Serif" font-size="11.00" fill="#000000">Generated by SchemaSpy</text>
<!-- CONTACT -->
<g id="node1" class="node">
<title>CONTACT</title>
<g id="a_node1"><a xlink:href="../../tables/CONTACT.html" xlink:title="CONTACT" target="_top">
<polygon fill="#ffffff" stroke="transparent" points="205,-268.6095 205,-1253.6095 413,-1253.6095 413,-268.6095 205,-268.6095"/>
<polygon fill="#f5f5f5" stroke="transparent" points="205,-1230.1095 205,-1253.1095 413,-1253.1095 413,-1230.1095 205,-1230.1095"/>
<polygon fill="none" stroke="#000000" points="205,-1230.1095 205,-1253.1095 413,-1253.1095 413,-1230.1095 205,-1230.1095"/>
<text text-anchor="start" x="210" y="-1239.2095" font-family="Helvetica,sans-Serif" font-weight="bold" font-size="11.00" fill="#000000">CONTACT</text>
<text text-anchor="start" x="378.0437" y="-1238.2095" font-family="Helvetica,sans-Serif" font-size="11.00" fill="#000000">[table]</text>
<polygon fill="none" stroke="#000000" points="205,-1208.1095 205,-1230.1095 413,-1230.1095 413,-1208.1095 205,-1208.1095"/>
<image xlink:href="../../images/primaryKeys.png" width="11px" height="12px" preserveAspectRatio="xMinYMin meet" x="210" y="-1225.11"/>
<text text-anchor="start" x="225" y="-1215.2095" font-family="Helvetica,sans-Serif" font-size="11.00" fill="#000000">CONTACT_ID</text>
<polygon fill="none" stroke="#000000" points="205,-1186.1095 205,-1208.1095 413,-1208.1095 413,-1186.1095 205,-1186.1095"/>
<image xlink:href="../../images/primaryKeys.png" width="11px" height="12px" preserveAspectRatio="xMinYMin meet" x="210" y="-1203.11"/>
<text text-anchor="start" x="225" y="-1193.2095" font-family="Helvetica,sans-Serif" font-size="11.00" fill="#000000">LINKED_CONTACT_ID</text>
<polygon fill="none" stroke="#000000" points="205,-1164.1095 205,-1186.1095 413,-1186.1095 413,-1164.1095 205,-1164.1095"/>
<image xlink:href="../../images/primaryKeys.png" width="11px" height="12px" preserveAspectRatio="xMinYMin meet" x="210" y="-1181.11"/>
<text text-anchor="start" x="225" y="-1171.2095" font-family="Helvetica,sans-Serif" font-size="11.00" fill="#000000">CONTACT_DATE</text>
<polygon fill="none" stroke="#000000" points="205,-1142.1095 205,-1164.1095 413,-1164.1095 413,-1142.1095 205,-1142.1095"/>
<image xlink:href="../../images/primaryKeys.png" width="11px" height="12px" preserveAspectRatio="xMinYMin meet" x="210" y="-1159.11"/>
<text text-anchor="start" x="225" y="-1149.2095" font-family="Helvetica,sans-Serif" font-size="11.00" fill="#000000">OFFENDER_ID</text>
<polygon fill="none" stroke="#000000" points="205,-1120.1095 205,-1142.1095 413,-1142.1095 413,-1120.1095 205,-1120.1095"/>
<image xlink:href="../../images/primaryKeys.png" width="11px" height="12px" preserveAspectRatio="xMinYMin meet" x="210" y="-1137.11"/>
<text text-anchor="start" x="225" y="-1127.2095" font-family="Helvetica,sans-Serif" font-size="11.00" fill="#000000">CONTACT_START_TIME</text>
<polygon fill="none" stroke="#000000" points="205,-1098.1095 205,-1120.1095 413,-1120.1095 413,-1098.1095 205,-1098.1095"/>
<image xlink:href="../../images/primaryKeys.png" width="11px" height="12px" preserveAspectRatio="xMinYMin meet" x="210" y="-1115.11"/>
<text text-anchor="start" x="225" y="-1105.2095" font-family="Helvetica,sans-Serif" font-size="11.00" fill="#000000">CONTACT_END_TIME</text>
<polygon fill="none" stroke="#000000" points="205,-1076.1095 205,-1098.1095 413,-1098.1095 413,-1076.1095 205,-1076.1095"/>
<image xlink:href="../../images/primaryKeys.png" width="11px" height="12px" preserveAspectRatio="xMinYMin meet" x="210" y="-1093.11"/>
<text text-anchor="start" x="225" y="-1083.2095" font-family="Helvetica,sans-Serif" font-size="11.00" fill="#000000">RQMNT_ID</text>
<polygon fill="none" stroke="#000000" points="205,-1054.1095 205,-1076.1095 413,-1076.1095 413,-1054.1095 205,-1054.1095"/>
<image xlink:href="../../images/primaryKeys.png" width="11px" height="12px" preserveAspectRatio="xMinYMin meet" x="210" y="-1071.11"/>
<text text-anchor="start" x="225" y="-1061.2095" font-family="Helvetica,sans-Serif" font-size="11.00" fill="#000000">LIC_CONDITION_ID</text>
<polygon fill="none" stroke="#000000" points="205,-1032.1095 205,-1054.1095 413,-1054.1095 413,-1032.1095 205,-1032.1095"/>
<image xlink:href="../../images/primaryKeys.png" width="11px" height="12px" preserveAspectRatio="xMinYMin meet" x="210" y="-1049.11"/>
<text text-anchor="start" x="225" y="-1039.2095" font-family="Helvetica,sans-Serif" font-size="11.00" fill="#000000">PROVIDER_LOCATION_ID</text>
<polygon fill="none" stroke="#000000" points="205,-1010.1095 205,-1032.1095 413,-1032.1095 413,-1010.1095 205,-1010.1095"/>
<image xlink:href="../../images/primaryKeys.png" width="11px" height="12px" preserveAspectRatio="xMinYMin meet" x="210" y="-1027.11"/>
<text text-anchor="start" x="225" y="-1017.2095" font-family="Helvetica,sans-Serif" font-size="11.00" fill="#000000">PROVIDER_EMPLOYEE_ID</text>
<polygon fill="none" stroke="#000000" points="205,-988.1095 205,-1010.1095 413,-1010.1095 413,-988.1095 205,-988.1095"/>
<image xlink:href="../../images/primaryKeys.png" width="11px" height="12px" preserveAspectRatio="xMinYMin meet" x="210" y="-1005.11"/>
<text text-anchor="start" x="225" y="-995.2095" font-family="Helvetica,sans-Serif" font-size="11.00" fill="#000000">VISOR_CONTACT</text>
<polygon fill="none" stroke="#000000" points="205,-966.1095 205,-988.1095 413,-988.1095 413,-966.1095 205,-966.1095"/>
<image xlink:href="../../images/primaryKeys.png" width="11px" height="12px" preserveAspectRatio="xMinYMin meet" x="210" y="-983.109"/>
<text text-anchor="start" x="225" y="-973.2095" font-family="Helvetica,sans-Serif" font-size="11.00" fill="#000000">STAFF_ID</text>
<polygon fill="none" stroke="#000000" points="205,-944.1095 205,-966.1095 413,-966.1095 413,-944.1095 205,-944.1095"/>
<image xlink:href="../../images/primaryKeys.png" width="11px" height="12px" preserveAspectRatio="xMinYMin meet" x="210" y="-961.109"/>
<text text-anchor="start" x="225" y="-951.2095" font-family="Helvetica,sans-Serif" font-size="11.00" fill="#000000">TEAM_ID</text>
<polygon fill="none" stroke="#000000" points="205,-922.1095 205,-944.1095 413,-944.1095 413,-922.1095 205,-922.1095"/>
<image xlink:href="../../images/primaryKeys.png" width="11px" height="12px" preserveAspectRatio="xMinYMin meet" x="210" y="-939.109"/>
<text text-anchor="start" x="225" y="-929.2095" font-family="Helvetica,sans-Serif" font-size="11.00" fill="#000000">SOFT_DELETED</text>
<polygon fill="none" stroke="#000000" points="205,-900.1095 205,-922.1095 413,-922.1095 413,-900.1095 205,-900.1095"/>
<image xlink:href="../../images/primaryKeys.png" width="11px" height="12px" preserveAspectRatio="xMinYMin meet" x="210" y="-917.109"/>
<text text-anchor="start" x="225" y="-907.2095" font-family="Helvetica,sans-Serif" font-size="11.00" fill="#000000">VISOR_EXPORTED</text>
<polygon fill="none" stroke="#000000" points="205,-878.1095 205,-900.1095 413,-900.1095 413,-878.1095 205,-878.1095"/>
<image xlink:href="../../images/primaryKeys.png" width="11px" height="12px" preserveAspectRatio="xMinYMin meet" x="210" y="-895.109"/>
<text text-anchor="start" x="225" y="-885.2095" font-family="Helvetica,sans-Serif" font-size="11.00" fill="#000000">PARTITION_AREA_ID</text>
<polygon fill="none" stroke="#000000" points="205,-856.1095 205,-878.1095 413,-878.1095 413,-856.1095 205,-856.1095"/>
<image xlink:href="../../images/primaryKeys.png" width="11px" height="12px" preserveAspectRatio="xMinYMin meet" x="210" y="-873.109"/>
<text text-anchor="start" x="225" y="-863.2095" font-family="Helvetica,sans-Serif" font-size="11.00" fill="#000000">OFFICE_LOCATION_ID</text>
<polygon fill="none" stroke="#000000" points="205,-834.1095 205,-856.1095 413,-856.1095 413,-834.1095 205,-834.1095"/>
<image xlink:href="../../images/primaryKeys.png" width="11px" height="12px" preserveAspectRatio="xMinYMin meet" x="210" y="-851.109"/>
<text text-anchor="start" x="225" y="-841.2095" font-family="Helvetica,sans-Serif" font-size="11.00" fill="#000000">ROW_VERSION</text>
<polygon fill="none" stroke="#000000" points="205,-812.1095 205,-834.1095 413,-834.1095 413,-812.1095 205,-812.1095"/>
<image xlink:href="../../images/primaryKeys.png" width="11px" height="12px" preserveAspectRatio="xMinYMin meet" x="210" y="-829.109"/>
<text text-anchor="start" x="225" y="-819.2095" font-family="Helvetica,sans-Serif" font-size="11.00" fill="#000000">ALERT_ACTIVE</text>
<polygon fill="none" stroke="#000000" points="205,-790.1095 205,-812.1095 413,-812.1095 413,-790.1095 205,-790.1095"/>
<image xlink:href="../../images/primaryKeys.png" width="11px" height="12px" preserveAspectRatio="xMinYMin meet" x="210" y="-807.109"/>
<text text-anchor="start" x="225" y="-797.2095" font-family="Helvetica,sans-Serif" font-size="11.00" fill="#000000">ATTENDED</text>
<polygon fill="none" stroke="#000000" points="205,-768.1095 205,-790.1095 413,-790.1095 413,-768.1095 205,-768.1095"/>
<image xlink:href="../../images/primaryKeys.png" width="11px" height="12px" preserveAspectRatio="xMinYMin meet" x="210" y="-785.109"/>
<text text-anchor="start" x="225" y="-775.2095" font-family="Helvetica,sans-Serif" font-size="11.00" fill="#000000">CREATED_DATETIME</text>
<polygon fill="none" stroke="#000000" points="205,-746.1095 205,-768.1095 413,-768.1095 413,-746.1095 205,-746.1095"/>
<image xlink:href="../../images/primaryKeys.png" width="11px" height="12px" preserveAspectRatio="xMinYMin meet" x="210" y="-763.109"/>
<text text-anchor="start" x="225" y="-753.2095" font-family="Helvetica,sans-Serif" font-size="11.00" fill="#000000">COMPLIED</text>
<polygon fill="none" stroke="#000000" points="205,-724.1095 205,-746.1095 413,-746.1095 413,-724.1095 205,-724.1095"/>
<image xlink:href="../../images/primaryKeys.png" width="11px" height="12px" preserveAspectRatio="xMinYMin meet" x="210" y="-741.109"/>
<text text-anchor="start" x="225" y="-731.2095" font-family="Helvetica,sans-Serif" font-size="11.00" fill="#000000">SENSITIVE</text>
<polygon fill="none" stroke="#000000" points="205,-702.1095 205,-724.1095 413,-724.1095 413,-702.1095 205,-702.1095"/>
<image xlink:href="../../images/primaryKeys.png" width="11px" height="12px" preserveAspectRatio="xMinYMin meet" x="210" y="-719.109"/>
<text text-anchor="start" x="225" y="-709.2095" font-family="Helvetica,sans-Serif" font-size="11.00" fill="#000000">EVENT_ID</text>
<polygon fill="none" stroke="#000000" points="205,-680.1095 205,-702.1095 413,-702.1095 413,-680.1095 205,-680.1095"/>
<image xlink:href="../../images/primaryKeys.png" width="11px" height="12px" preserveAspectRatio="xMinYMin meet" x="210" y="-697.109"/>
<text text-anchor="start" x="225" y="-687.2095" font-family="Helvetica,sans-Serif" font-size="11.00" fill="#000000">CONTACT_TYPE_ID</text>
<polygon fill="none" stroke="#000000" points="205,-658.1095 205,-680.1095 413,-680.1095 413,-658.1095 205,-658.1095"/>
<image xlink:href="../../images/primaryKeys.png" width="11px" height="12px" preserveAspectRatio="xMinYMin meet" x="210" y="-675.109"/>
<text text-anchor="start" x="225" y="-665.2095" font-family="Helvetica,sans-Serif" font-size="11.00" fill="#000000">PROVIDER_TEAM_ID</text>
<polygon fill="none" stroke="#000000" points="205,-636.1095 205,-658.1095 413,-658.1095 413,-636.1095 205,-636.1095"/>
<image xlink:href="../../images/primaryKeys.png" width="11px" height="12px" preserveAspectRatio="xMinYMin meet" x="210" y="-653.109"/>
<text text-anchor="start" x="225" y="-643.2095" font-family="Helvetica,sans-Serif" font-size="11.00" fill="#000000">CONTACT_OUTCOME_TYPE_ID</text>
<polygon fill="none" stroke="#000000" points="205,-614.1095 205,-636.1095 413,-636.1095 413,-614.1095 205,-614.1095"/>
<image xlink:href="../../images/primaryKeys.png" width="11px" height="12px" preserveAspectRatio="xMinYMin meet" x="210" y="-631.109"/>
<text text-anchor="start" x="225" y="-621.2095" font-family="Helvetica,sans-Serif" font-size="11.00" fill="#000000">EXPLANATION_ID</text>
<polygon fill="none" stroke="#000000" points="205,-592.1095 205,-614.1095 413,-614.1095 413,-592.1095 205,-592.1095"/>
<image xlink:href="../../images/primaryKeys.png" width="11px" height="12px" preserveAspectRatio="xMinYMin meet" x="210" y="-609.109"/>
<text text-anchor="start" x="225" y="-599.2095" font-family="Helvetica,sans-Serif" font-size="11.00" fill="#000000">TRAINING_SESSION_ID</text>
<polygon fill="none" stroke="#000000" points="205,-570.1095 205,-592.1095 413,-592.1095 413,-570.1095 205,-570.1095"/>
<image xlink:href="../../images/primaryKeys.png" width="11px" height="12px" preserveAspectRatio="xMinYMin meet" x="210" y="-587.109"/>
<text text-anchor="start" x="225" y="-577.2095" font-family="Helvetica,sans-Serif" font-size="11.00" fill="#000000">TRUST_PROVIDER_FLAG</text>
<polygon fill="none" stroke="#000000" points="205,-548.1095 205,-570.1095 413,-570.1095 413,-548.1095 205,-548.1095"/>
<image xlink:href="../../images/primaryKeys.png" width="11px" height="12px" preserveAspectRatio="xMinYMin meet" x="210" y="-565.109"/>
<text text-anchor="start" x="225" y="-555.2095" font-family="Helvetica,sans-Serif" font-size="11.00" fill="#000000">STAFF_EMPLOYEE_ID</text>
<polygon fill="none" stroke="#000000" points="205,-526.1095 205,-548.1095 413,-548.1095 413,-526.1095 205,-526.1095"/>
<image xlink:href="../../images/primaryKeys.png" width="11px" height="12px" preserveAspectRatio="xMinYMin meet" x="210" y="-543.109"/>
<text text-anchor="start" x="225" y="-533.2095" font-family="Helvetica,sans-Serif" font-size="11.00" fill="#000000">PROBATION_AREA_ID</text>
<polygon fill="none" stroke="#000000" points="205,-504.1095 205,-526.1095 413,-526.1095 413,-504.1095 205,-504.1095"/>
<image xlink:href="../../images/primaryKeys.png" width="11px" height="12px" preserveAspectRatio="xMinYMin meet" x="210" y="-521.109"/>
<text text-anchor="start" x="225" y="-511.2095" font-family="Helvetica,sans-Serif" font-size="11.00" fill="#000000">TRUST_PROVIDER_TEAM_ID</text>
<polygon fill="none" stroke="#000000" points="205,-482.1095 205,-504.1095 413,-504.1095 413,-482.1095 205,-482.1095"/>
<image xlink:href="../../images/primaryKeys.png" width="11px" height="12px" preserveAspectRatio="xMinYMin meet" x="210" y="-499.109"/>
<text text-anchor="start" x="225" y="-489.2095" font-family="Helvetica,sans-Serif" font-size="11.00" fill="#000000">ENFORCEMENT</text>
<polygon fill="none" stroke="#000000" points="205,-460.1095 205,-482.1095 413,-482.1095 413,-460.1095 205,-460.1095"/>
<image xlink:href="../../images/primaryKeys.png" width="11px" height="12px" preserveAspectRatio="xMinYMin meet" x="210" y="-477.109"/>
<text text-anchor="start" x="225" y="-467.2095" font-family="Helvetica,sans-Serif" font-size="11.00" fill="#000000">DOCUMENT_LINKED</text>
<polygon fill="none" stroke="#000000" points="205,-438.1095 205,-460.1095 413,-460.1095 413,-438.1095 205,-438.1095"/>
<image xlink:href="../../images/primaryKeys.png" width="11px" height="12px" preserveAspectRatio="xMinYMin meet" x="210" y="-455.109"/>
<text text-anchor="start" x="217.8069" y="-445.2095" font-family="Helvetica,sans-Serif" font-size="11.00" fill="#000000">LATEST_ENFORCEMENT_ACTION_ID</text>
<polygon fill="none" stroke="#000000" points="205,-416.1095 205,-438.1095 413,-438.1095 413,-416.1095 205,-416.1095"/>
<image xlink:href="../../images/primaryKeys.png" width="11px" height="12px" preserveAspectRatio="xMinYMin meet" x="210" y="-433.109"/>
<text text-anchor="start" x="225" y="-423.2095" font-family="Helvetica,sans-Serif" font-size="11.00" fill="#000000">NSI_ID</text>
<polygon fill="none" stroke="#000000" points="205,-394.1095 205,-416.1095 413,-416.1095 413,-394.1095 205,-394.1095"/>
<image xlink:href="../../images/primaryKeys.png" width="11px" height="12px" preserveAspectRatio="xMinYMin meet" x="210" y="-411.109"/>
<text text-anchor="start" x="225" y="-401.2095" font-family="Helvetica,sans-Serif" font-size="11.00" fill="#000000">TABLE_NAME</text>
<polygon fill="none" stroke="#000000" points="205,-372.1095 205,-394.1095 413,-394.1095 413,-372.1095 205,-372.1095"/>
<image xlink:href="../../images/primaryKeys.png" width="11px" height="12px" preserveAspectRatio="xMinYMin meet" x="210" y="-389.109"/>
<text text-anchor="start" x="225" y="-379.2095" font-family="Helvetica,sans-Serif" font-size="11.00" fill="#000000">PRIMARY_KEY_ID</text>
<polygon fill="none" stroke="#000000" points="205,-350.1095 205,-372.1095 413,-372.1095 413,-350.1095 205,-350.1095"/>
<image xlink:href="../../images/primaryKeys.png" width="11px" height="12px" preserveAspectRatio="xMinYMin meet" x="210" y="-367.109"/>
<text text-anchor="start" x="225" y="-357.2095" font-family="Helvetica,sans-Serif" font-size="11.00" fill="#000000">PSS_RQMNT_ID</text>
<polygon fill="none" stroke="#000000" points="205,-328.1095 205,-350.1095 413,-350.1095 413,-328.1095 205,-328.1095"/>
<image xlink:href="../../images/primaryKeys.png" width="11px" height="12px" preserveAspectRatio="xMinYMin meet" x="210" y="-345.109"/>
<text text-anchor="start" x="225" y="-335.2095" font-family="Helvetica,sans-Serif" font-size="11.00" fill="#000000">NOMIS_CASE_NOTE_ID</text>
<polygon fill="none" stroke="#000000" points="205,-306.1095 205,-328.1095 413,-328.1095 413,-306.1095 205,-306.1095"/>
<image xlink:href="../../images/primaryKeys.png" width="11px" height="12px" preserveAspectRatio="xMinYMin meet" x="210" y="-323.109"/>
<text text-anchor="start" x="223.6193" y="-313.2095" font-family="Helvetica,sans-Serif" font-size="11.00" fill="#000000">LINKED_DOCUMENT_CONTACT_ID</text>
<polygon fill="none" stroke="#000000" points="205,-287.1095 205,-306.1095 413,-306.1095 413,-287.1095 205,-287.1095"/>
<text text-anchor="start" x="208" y="-293.2095" font-family="Helvetica,sans-Serif" font-size="11.00" fill="#000000">...</text>
<polygon fill="#ffffff" stroke="transparent" points="205,-268.1095 205,-287.1095 273,-287.1095 273,-268.1095 205,-268.1095"/>
<polygon fill="none" stroke="#000000" points="205,-268.1095 205,-287.1095 273,-287.1095 273,-268.1095 205,-268.1095"/>
<text text-anchor="start" x="208" y="-274.2095" font-family="Helvetica,sans-Serif" font-size="11.00" fill="#000000">&lt; 24</text>
<polygon fill="#ffffff" stroke="transparent" points="273,-268.1095 273,-287.1095 365,-287.1095 365,-268.1095 273,-268.1095"/>
<polygon fill="none" stroke="#000000" points="273,-268.1095 273,-287.1095 365,-287.1095 365,-268.1095 273,-268.1095"/>
<text text-anchor="start" x="295.9791" y="-274.2095" font-family="Helvetica,sans-Serif" font-size="11.00" fill="#000000">165,869 rows</text>
<polygon fill="#ffffff" stroke="transparent" points="365,-268.1095 365,-287.1095 413,-287.1095 413,-268.1095 365,-268.1095"/>
<polygon fill="none" stroke="#000000" points="365,-268.1095 365,-287.1095 413,-287.1095 413,-268.1095 365,-268.1095"/>
<text text-anchor="start" x="388.2904" y="-274.2095" font-family="Helvetica,sans-Serif" font-size="11.00" fill="#000000">13 &gt;</text>
</a>
</g>
</g>
<!-- PARTITION_AREA -->
<g id="node2" class="node">
<title>PARTITION_AREA</title>
<g id="a_node2"><a xlink:href="../../tables/PARTITION_AREA.html" xlink:title="PARTITION_AREA" target="_top">
<polygon fill="#ffffff" stroke="transparent" points="8,-818.6095 8,-923.6095 150,-923.6095 150,-818.6095 8,-818.6095"/>
<polygon fill="#f5f5f5" stroke="transparent" points="8,-900.1095 8,-923.1095 150,-923.1095 150,-900.1095 8,-900.1095"/>
<polygon fill="none" stroke="#000000" points="8,-900.1095 8,-923.1095 150,-923.1095 150,-900.1095 8,-900.1095"/>
<text text-anchor="start" x="13" y="-909.2095" font-family="Helvetica,sans-Serif" font-weight="bold" font-size="11.00" fill="#000000">PARTITION_AREA</text>
<text text-anchor="start" x="115.0437" y="-908.2095" font-family="Helvetica,sans-Serif" font-size="11.00" fill="#000000">[table]</text>
<polygon fill="none" stroke="#000000" points="8,-878.1095 8,-900.1095 150,-900.1095 150,-878.1095 8,-878.1095"/>
<image xlink:href="../../images/primaryKeys.png" width="11px" height="12px" preserveAspectRatio="xMinYMin meet" x="13" y="-895.109"/>
<text text-anchor="start" x="28" y="-885.2095" font-family="Helvetica,sans-Serif" font-size="11.00" fill="#000000">PARTITION_AREA_ID</text>
<polygon fill="none" stroke="#000000" points="8,-856.1095 8,-878.1095 150,-878.1095 150,-856.1095 8,-856.1095"/>
<image xlink:href="../../images/primaryKeys.png" width="11px" height="12px" preserveAspectRatio="xMinYMin meet" x="13" y="-873.109"/>
<text text-anchor="start" x="24.1624" y="-863.2095" font-family="Helvetica,sans-Serif" font-size="11.00" fill="#000000">TRAINING_SESSION_ID</text>
<polygon fill="none" stroke="#000000" points="8,-837.1095 8,-856.1095 150,-856.1095 150,-837.1095 8,-837.1095"/>
<text text-anchor="start" x="11" y="-843.2095" font-family="Helvetica,sans-Serif" font-size="11.00" fill="#000000">...</text>
<polygon fill="#ffffff" stroke="transparent" points="8,-818.1095 8,-837.1095 49,-837.1095 49,-818.1095 8,-818.1095"/>
<polygon fill="none" stroke="#000000" points="8,-818.1095 8,-837.1095 49,-837.1095 49,-818.1095 8,-818.1095"/>
<text text-anchor="start" x="11" y="-824.2095" font-family="Helvetica,sans-Serif" font-size="11.00" fill="#000000"> &#160;</text>
<polygon fill="#ffffff" stroke="transparent" points="49,-818.1095 49,-837.1095 108,-837.1095 108,-818.1095 49,-818.1095"/>
<polygon fill="none" stroke="#000000" points="49,-818.1095 49,-837.1095 108,-837.1095 108,-818.1095 49,-818.1095"/>
<text text-anchor="start" x="66.4956" y="-824.2095" font-family="Helvetica,sans-Serif" font-size="11.00" fill="#000000">44 rows</text>
<polygon fill="#ffffff" stroke="transparent" points="108,-818.1095 108,-837.1095 150,-837.1095 150,-818.1095 108,-818.1095"/>
<polygon fill="none" stroke="#000000" points="108,-818.1095 108,-837.1095 150,-837.1095 150,-818.1095 108,-818.1095"/>
<text text-anchor="start" x="125.2904" y="-824.2095" font-family="Helvetica,sans-Serif" font-size="11.00" fill="#000000">82 &gt;</text>
</a>
</g>
</g>
<!-- CONTACT&#45;&gt;PARTITION_AREA -->
<g id="edge1" class="edge">
<title>CONTACT:w&#45;&gt;PARTITION_AREA:e</title>
<path fill="none" stroke="#000000" d="M190.3617,-889.1095C176.6839,-889.1095 168.7153,-889.1095 150,-889.1095"/>
<polygon fill="#000000" stroke="#000000" points="197,-889.1095 205,-892.7095 201,-889.1095 205,-889.1095 205,-889.1095 205,-889.1095 201,-889.1095 205,-885.5095 197,-889.1095 197,-889.1095"/>
<ellipse fill="none" stroke="#000000" cx="193.8" cy="-889.1095" rx="3.2" ry="3.2"/>
</g>
<!-- SUBJECT_ACCESS_REPORT -->
<g id="node3" class="node">
<title>SUBJECT_ACCESS_REPORT</title>
<g id="a_node3"><a xlink:href="../../tables/SUBJECT_ACCESS_REPORT.html" xlink:title="SUBJECT_ACCESS_REPORT" target="_top">
<polygon fill="#ffffff" stroke="transparent" points="211,-1274.6095 211,-1423.6095 407,-1423.6095 407,-1274.6095 211,-1274.6095"/>
<polygon fill="#f5f5f5" stroke="transparent" points="211,-1400.1095 211,-1423.1095 407,-1423.1095 407,-1400.1095 211,-1400.1095"/>
<polygon fill="none" stroke="#000000" points="211,-1400.1095 211,-1423.1095 407,-1423.1095 407,-1400.1095 211,-1400.1095"/>
<text text-anchor="start" x="215.8025" y="-1409.2095" font-family="Helvetica,sans-Serif" font-weight="bold" font-size="11.00" fill="#000000">SUBJECT_ACCESS_REPORT</text>
<text text-anchor="start" x="372.5219" y="-1408.2095" font-family="Helvetica,sans-Serif" font-size="11.00" fill="#000000">[table]</text>
<polygon fill="none" stroke="#000000" points="211,-1378.1095 211,-1400.1095 407,-1400.1095 407,-1378.1095 211,-1378.1095"/>
<image xlink:href="../../images/primaryKeys.png" width="11px" height="12px" preserveAspectRatio="xMinYMin meet" x="216" y="-1395.11"/>
<text text-anchor="start" x="231.2462" y="-1385.2095" font-family="Helvetica,sans-Serif" font-size="11.00" fill="#000000">SUBJECT_ACCESS_REPORT_ID</text>
<polygon fill="none" stroke="#000000" points="211,-1356.1095 211,-1378.1095 407,-1378.1095 407,-1356.1095 211,-1356.1095"/>
<image xlink:href="../../images/primaryKeys.png" width="11px" height="12px" preserveAspectRatio="xMinYMin meet" x="216" y="-1373.11"/>
<text text-anchor="start" x="238" y="-1363.2095" font-family="Helvetica,sans-Serif" font-size="11.00" fill="#000000">PARTITION_AREA_ID</text>
<polygon fill="none" stroke="#000000" points="211,-1334.1095 211,-1356.1095 407,-1356.1095 407,-1334.1095 211,-1334.1095"/>
<image xlink:href="../../images/primaryKeys.png" width="11px" height="12px" preserveAspectRatio="xMinYMin meet" x="216" y="-1351.11"/>
<text text-anchor="start" x="238" y="-1341.2095" font-family="Helvetica,sans-Serif" font-size="11.00" fill="#000000">OFFENDER_ID</text>
<polygon fill="none" stroke="#000000" points="211,-1312.1095 211,-1334.1095 407,-1334.1095 407,-1312.1095 211,-1312.1095"/>
<image xlink:href="../../images/primaryKeys.png" width="11px" height="12px" preserveAspectRatio="xMinYMin meet" x="216" y="-1329.11"/>
<text text-anchor="start" x="238" y="-1319.2095" font-family="Helvetica,sans-Serif" font-size="11.00" fill="#000000">TRAINING_SESSION_ID</text>
<polygon fill="none" stroke="#000000" points="211,-1293.1095 211,-1312.1095 407,-1312.1095 407,-1293.1095 211,-1293.1095"/>
<text text-anchor="start" x="214" y="-1299.2095" font-family="Helvetica,sans-Serif" font-size="11.00" fill="#000000">...</text>
<polygon fill="#ffffff" stroke="transparent" points="211,-1274.1095 211,-1293.1095 284,-1293.1095 284,-1274.1095 211,-1274.1095"/>
<polygon fill="none" stroke="#000000" points="211,-1274.1095 211,-1293.1095 284,-1293.1095 284,-1274.1095 211,-1274.1095"/>
<text text-anchor="start" x="214" y="-1280.2095" font-family="Helvetica,sans-Serif" font-size="11.00" fill="#000000">&lt; 2</text>
<polygon fill="#ffffff" stroke="transparent" points="284,-1274.1095 284,-1293.1095 360,-1293.1095 360,-1274.1095 284,-1274.1095"/>
<polygon fill="none" stroke="#000000" points="284,-1274.1095 284,-1293.1095 360,-1293.1095 360,-1274.1095 284,-1274.1095"/>
<text text-anchor="start" x="312.3807" y="-1280.2095" font-family="Helvetica,sans-Serif" font-size="11.00" fill="#000000">100 rows</text>
<polygon fill="#ffffff" stroke="transparent" points="360,-1274.1095 360,-1293.1095 407,-1293.1095 407,-1274.1095 360,-1274.1095"/>
<polygon fill="none" stroke="#000000" points="360,-1274.1095 360,-1293.1095 407,-1293.1095 407,-1274.1095 360,-1274.1095"/>
<text text-anchor="start" x="388.4053" y="-1280.2095" font-family="Helvetica,sans-Serif" font-size="11.00" fill="#000000">2 &gt;</text>
</a>
</g>
</g>
<!-- SUBJECT_ACCESS_REPORT&#45;&gt;PARTITION_AREA -->
<g id="edge2" class="edge">
<title>SUBJECT_ACCESS_REPORT:w&#45;&gt;PARTITION_AREA:e</title>
<path fill="none" stroke="#000000" d="M196.6317,-1363.5368C118.8013,-1319.7952 251.6458,-889.1095 150,-889.1095"/>
<polygon fill="#000000" stroke="#000000" points="203.2364,-1365.179 210.1313,-1370.6031 207.1182,-1366.1442 211,-1367.1095 211,-1367.1095 211,-1367.1095 207.1182,-1366.1442 211.8687,-1363.6158 203.2364,-1365.179 203.2364,-1365.179"/>
<ellipse fill="none" stroke="#000000" cx="200.131" cy="-1364.4068" rx="3.2" ry="3.2"/>
</g>
<!-- SUBJECT_ACCESS_REPORT_CONTACT -->
<g id="node4" class="node">
<title>SUBJECT_ACCESS_REPORT_CONTACT</title>
<g id="a_node4"><a xlink:href="../../tables/SUBJECT_ACCESS_REPORT_CONTACT.html" xlink:title="SUBJECT_ACCESS_REPORT_CONTACT" target="_top">
<polygon fill="#ffffff" stroke="transparent" points="468,-607.1095 468,-807.1095 754,-807.1095 754,-607.1095 468,-607.1095"/>
<polygon fill="#f5f5f5" stroke="transparent" points="470,-782.1095 470,-805.1095 752,-805.1095 752,-782.1095 470,-782.1095"/>
<polygon fill="none" stroke="#000000" points="470,-782.1095 470,-805.1095 752,-805.1095 752,-782.1095 470,-782.1095"/>
<text text-anchor="start" x="475" y="-791.2095" font-family="Helvetica,sans-Serif" font-weight="bold" font-size="11.00" fill="#000000">SUBJECT_ACCESS_REPORT_CONTACT</text>
<text text-anchor="start" x="717.0437" y="-790.2095" font-family="Helvetica,sans-Serif" font-size="11.00" fill="#000000">[table]</text>
<polygon fill="none" stroke="#000000" points="470,-760.1095 470,-782.1095 691,-782.1095 691,-760.1095 470,-760.1095"/>
<image xlink:href="../../images/primaryKeys.png" width="11px" height="12px" preserveAspectRatio="xMinYMin meet" x="475" y="-777.109"/>
<text text-anchor="start" x="490" y="-767.2095" font-family="Helvetica,sans-Serif" font-size="11.00" fill="#000000">SAR_CONTACT_ID</text>
<polygon fill="none" stroke="#000000" points="691,-760.1095 691,-782.1095 752,-782.1095 752,-760.1095 691,-760.1095"/>
<text text-anchor="start" x="693.6865" y="-767.8095" font-family="Helvetica,sans-Serif" font-size="11.00" fill="#000000">number[38]</text>
<polygon fill="none" stroke="#000000" points="470,-738.1095 470,-760.1095 691,-760.1095 691,-738.1095 470,-738.1095"/>
<image xlink:href="../../images/primaryKeys.png" width="11px" height="12px" preserveAspectRatio="xMinYMin meet" x="475" y="-755.109"/>
<text text-anchor="start" x="490" y="-745.2095" font-family="Helvetica,sans-Serif" font-size="11.00" fill="#000000">SUBJECT_ACCESS_REPORT_ID</text>
<polygon fill="none" stroke="#000000" points="691,-738.1095 691,-760.1095 752,-760.1095 752,-738.1095 691,-738.1095"/>
<text text-anchor="start" x="693.6865" y="-745.8095" font-family="Helvetica,sans-Serif" font-size="11.00" fill="#000000">number[38]</text>
<polygon fill="none" stroke="#000000" points="470,-716.1095 470,-738.1095 691,-738.1095 691,-716.1095 470,-716.1095"/>
<image xlink:href="../../images/primaryKeys.png" width="11px" height="12px" preserveAspectRatio="xMinYMin meet" x="475" y="-733.109"/>
<text text-anchor="start" x="490" y="-723.2095" font-family="Helvetica,sans-Serif" font-size="11.00" fill="#000000">CONTACT_ID</text>
<polygon fill="none" stroke="#000000" points="691,-716.1095 691,-738.1095 752,-738.1095 752,-716.1095 691,-716.1095"/>
<text text-anchor="start" x="693.6865" y="-723.8095" font-family="Helvetica,sans-Serif" font-size="11.00" fill="#000000">number[38]</text>
<polygon fill="none" stroke="#000000" points="470,-694.1095 470,-716.1095 691,-716.1095 691,-694.1095 470,-694.1095"/>
<image xlink:href="../../images/primaryKeys.png" width="11px" height="12px" preserveAspectRatio="xMinYMin meet" x="475" y="-711.109"/>
<text text-anchor="start" x="490" y="-701.2095" font-family="Helvetica,sans-Serif" font-size="11.00" fill="#000000">DPA_SAR_EXCLUSION_REASON_ID</text>
<polygon fill="none" stroke="#000000" points="691,-694.1095 691,-716.1095 752,-716.1095 752,-694.1095 691,-694.1095"/>
<text text-anchor="start" x="693.6865" y="-701.8095" font-family="Helvetica,sans-Serif" font-size="11.00" fill="#000000">number[38]</text>
<polygon fill="none" stroke="#000000" points="470,-672.1095 470,-694.1095 691,-694.1095 691,-672.1095 470,-672.1095"/>
<image xlink:href="../../images/primaryKeys.png" width="11px" height="12px" preserveAspectRatio="xMinYMin meet" x="475" y="-689.109"/>
<text text-anchor="start" x="490" y="-679.2095" font-family="Helvetica,sans-Serif" font-size="11.00" fill="#000000">PARTITION_AREA_ID</text>
<polygon fill="none" stroke="#000000" points="691,-672.1095 691,-694.1095 752,-694.1095 752,-672.1095 691,-672.1095"/>
<text text-anchor="start" x="693.6865" y="-679.8095" font-family="Helvetica,sans-Serif" font-size="11.00" fill="#000000">number[38]</text>
<polygon fill="none" stroke="#000000" points="470,-650.1095 470,-672.1095 691,-672.1095 691,-650.1095 470,-650.1095"/>
<text text-anchor="start" x="490" y="-657.2095" font-family="Helvetica,sans-Serif" font-size="11.00" fill="#000000">ROW_VERSION</text>
<polygon fill="none" stroke="#000000" points="691,-650.1095 691,-672.1095 752,-672.1095 752,-650.1095 691,-650.1095"/>
<text text-anchor="start" x="693.6865" y="-657.8095" font-family="Helvetica,sans-Serif" font-size="11.00" fill="#000000">number[38]</text>
<polygon fill="none" stroke="#000000" points="470,-628.1095 470,-650.1095 691,-650.1095 691,-628.1095 470,-628.1095"/>
<image xlink:href="../../images/primaryKeys.png" width="11px" height="12px" preserveAspectRatio="xMinYMin meet" x="475" y="-645.109"/>
<text text-anchor="start" x="490" y="-635.2095" font-family="Helvetica,sans-Serif" font-size="11.00" fill="#000000">TRAINING_SESSION_ID</text>
<polygon fill="none" stroke="#000000" points="691,-628.1095 691,-650.1095 752,-650.1095 752,-628.1095 691,-628.1095"/>
<text text-anchor="start" x="693.6865" y="-635.8095" font-family="Helvetica,sans-Serif" font-size="11.00" fill="#000000">number[38]</text>
<polygon fill="#ffffff" stroke="transparent" points="470,-609.1095 470,-628.1095 569,-628.1095 569,-609.1095 470,-609.1095"/>
<polygon fill="none" stroke="#000000" points="470,-609.1095 470,-628.1095 569,-628.1095 569,-609.1095 470,-609.1095"/>
<text text-anchor="start" x="473" y="-615.2095" font-family="Helvetica,sans-Serif" font-size="11.00" fill="#000000">&lt; 4</text>
<polygon fill="#ffffff" stroke="transparent" points="569,-609.1095 569,-628.1095 691,-628.1095 691,-609.1095 569,-609.1095"/>
<polygon fill="none" stroke="#000000" points="569,-609.1095 569,-628.1095 691,-628.1095 691,-609.1095 569,-609.1095"/>
<text text-anchor="start" x="649.4956" y="-615.2095" font-family="Helvetica,sans-Serif" font-size="11.00" fill="#000000">18 rows</text>
<polygon fill="#ffffff" stroke="transparent" points="691,-609.1095 691,-628.1095 752,-628.1095 752,-609.1095 691,-609.1095"/>
<polygon fill="none" stroke="#000000" points="691,-609.1095 691,-628.1095 752,-628.1095 752,-609.1095 691,-609.1095"/>
<text text-anchor="start" x="733.4053" y="-615.2095" font-family="Helvetica,sans-Serif" font-size="11.00" fill="#000000">0 &gt;</text>
<polygon fill="none" stroke="#000000" stroke-width="2" points="469,-608.1095 469,-806.1095 753,-806.1095 753,-608.1095 469,-608.1095"/>
</a>
</g>
</g>
<!-- SUBJECT_ACCESS_REPORT_CONTACT&#45;&gt;CONTACT -->
<g id="edge3" class="edge">
<title>SUBJECT_ACCESS_REPORT_CONTACT:w&#45;&gt;CONTACT:e</title>
<path fill="none" stroke="#000000" d="M455.501,-727.9076C267.5045,-749.9017 627.97,-1219.1095 413,-1219.1095"/>
<polygon fill="#000000" stroke="#000000" points="462.0121,-727.5492 470.1979,-730.704 466.006,-727.3293 470,-727.1095 470,-727.1095 470,-727.1095 466.006,-727.3293 469.8021,-723.5149 462.0121,-727.5492 462.0121,-727.5492"/>
<ellipse fill="none" stroke="#000000" cx="458.8169" cy="-727.7251" rx="3.2" ry="3.2"/>
</g>
<!-- SUBJECT_ACCESS_REPORT_CONTACT&#45;&gt;PARTITION_AREA -->
<g id="edge5" class="edge">
<title>SUBJECT_ACCESS_REPORT_CONTACT:w&#45;&gt;PARTITION_AREA:e</title>
<path fill="none" stroke="#000000" d="M457.696,-674.893C413.4672,-606.2745 472.0223,-129.9955 427,-88.1095 350.2058,-16.6648 267.0397,-15.8624 191,-88.1095 126.3946,-149.4926 239.1165,-889.1095 150,-889.1095"/>
<polygon fill="#000000" stroke="#000000" points="463.347,-678.6667 468.0007,-686.1033 466.6735,-680.8881 470,-683.1095 470,-683.1095 470,-683.1095 466.6735,-680.8881 471.9993,-680.1156 463.347,-678.6667 463.347,-678.6667"/>
<ellipse fill="none" stroke="#000000" cx="460.6859" cy="-676.8896" rx="3.2" ry="3.2"/>
</g>
<!-- SUBJECT_ACCESS_REPORT_CONTACT&#45;&gt;SUBJECT_ACCESS_REPORT -->
<g id="edge6" class="edge">
<title>SUBJECT_ACCESS_REPORT_CONTACT:w&#45;&gt;SUBJECT_ACCESS_REPORT:e</title>
<path fill="none" stroke="#000000" d="M457.6787,-757.2014C408.4907,-831.2872 473.7098,-1389.1095 407,-1389.1095"/>
<polygon fill="#000000" stroke="#000000" points="463.3131,-753.5011 471.9762,-752.1186 466.6566,-751.3053 470,-749.1095 470,-749.1095 470,-749.1095 466.6566,-751.3053 468.0238,-746.1004 463.3131,-753.5011 463.3131,-753.5011"/>
<ellipse fill="none" stroke="#000000" cx="460.6384" cy="-755.2577" rx="3.2" ry="3.2"/>
</g>
<!-- R_STANDARD_REFERENCE_LIST -->
<g id="node5" class="node">
<title>R_STANDARD_REFERENCE_LIST</title>
<g id="a_node5"><a xlink:href="../../tables/R_STANDARD_REFERENCE_LIST.html" xlink:title="R_STANDARD_REFERENCE_LIST" target="_top">
<polygon fill="#ffffff" stroke="transparent" points="199,-98.6095 199,-247.6095 419,-247.6095 419,-98.6095 199,-98.6095"/>
<polygon fill="#f5f5f5" stroke="transparent" points="199,-224.1095 199,-247.1095 419,-247.1095 419,-224.1095 199,-224.1095"/>
<polygon fill="none" stroke="#000000" points="199,-224.1095 199,-247.1095 419,-247.1095 419,-224.1095 199,-224.1095"/>
<text text-anchor="start" x="203.5843" y="-233.2095" font-family="Helvetica,sans-Serif" font-weight="bold" font-size="11.00" fill="#000000">R_STANDARD_REFERENCE_LIST</text>
<text text-anchor="start" x="384.5219" y="-232.2095" font-family="Helvetica,sans-Serif" font-size="11.00" fill="#000000">[table]</text>
<polygon fill="none" stroke="#000000" points="199,-202.1095 199,-224.1095 419,-224.1095 419,-202.1095 199,-202.1095"/>
<image xlink:href="../../images/primaryKeys.png" width="11px" height="12px" preserveAspectRatio="xMinYMin meet" x="204" y="-219.109"/>
<text text-anchor="start" x="226.5558" y="-209.2095" font-family="Helvetica,sans-Serif" font-size="11.00" fill="#000000">STANDARD_REFERENCE_LIST_ID</text>
<polygon fill="none" stroke="#000000" points="199,-180.1095 199,-202.1095 419,-202.1095 419,-180.1095 199,-180.1095"/>
<image xlink:href="../../images/primaryKeys.png" width="11px" height="12px" preserveAspectRatio="xMinYMin meet" x="204" y="-197.109"/>
<text text-anchor="start" x="233" y="-187.2095" font-family="Helvetica,sans-Serif" font-size="11.00" fill="#000000">CODE_VALUE</text>
<polygon fill="none" stroke="#000000" points="199,-158.1095 199,-180.1095 419,-180.1095 419,-158.1095 199,-158.1095"/>
<image xlink:href="../../images/primaryKeys.png" width="11px" height="12px" preserveAspectRatio="xMinYMin meet" x="204" y="-175.109"/>
<text text-anchor="start" x="230.8337" y="-165.2095" font-family="Helvetica,sans-Serif" font-size="11.00" fill="#000000">REFERENCE_DATA_MASTER_ID</text>
<polygon fill="none" stroke="#000000" points="199,-136.1095 199,-158.1095 419,-158.1095 419,-136.1095 199,-136.1095"/>
<image xlink:href="../../images/primaryKeys.png" width="11px" height="12px" preserveAspectRatio="xMinYMin meet" x="204" y="-153.109"/>
<text text-anchor="start" x="233" y="-143.2095" font-family="Helvetica,sans-Serif" font-size="11.00" fill="#000000">TRAINING_SESSION_ID</text>
<polygon fill="none" stroke="#000000" points="199,-117.1095 199,-136.1095 419,-136.1095 419,-117.1095 199,-117.1095"/>
<text text-anchor="start" x="202" y="-123.2095" font-family="Helvetica,sans-Serif" font-size="11.00" fill="#000000">...</text>
<polygon fill="#ffffff" stroke="transparent" points="199,-98.1095 199,-117.1095 270,-117.1095 270,-98.1095 199,-98.1095"/>
<polygon fill="none" stroke="#000000" points="199,-98.1095 199,-117.1095 270,-117.1095 270,-98.1095 199,-98.1095"/>
<text text-anchor="start" x="202" y="-104.2095" font-family="Helvetica,sans-Serif" font-size="11.00" fill="#000000">&lt; 1</text>
<polygon fill="#ffffff" stroke="transparent" points="270,-98.1095 270,-117.1095 360,-117.1095 360,-98.1095 270,-98.1095"/>
<polygon fill="none" stroke="#000000" points="270,-98.1095 270,-117.1095 360,-117.1095 360,-98.1095 270,-98.1095"/>
<text text-anchor="start" x="297.094" y="-104.2095" font-family="Helvetica,sans-Serif" font-size="11.00" fill="#000000">15,391 rows</text>
<polygon fill="#ffffff" stroke="transparent" points="360,-98.1095 360,-117.1095 419,-117.1095 419,-98.1095 360,-98.1095"/>
<polygon fill="none" stroke="#000000" points="360,-98.1095 360,-117.1095 419,-117.1095 419,-98.1095 360,-98.1095"/>
<text text-anchor="start" x="388.1755" y="-104.2095" font-family="Helvetica,sans-Serif" font-size="11.00" fill="#000000">296 &gt;</text>
</a>
</g>
</g>
<!-- SUBJECT_ACCESS_REPORT_CONTACT&#45;&gt;R_STANDARD_REFERENCE_LIST -->
<g id="edge4" class="edge">
<title>SUBJECT_ACCESS_REPORT_CONTACT:w&#45;&gt;R_STANDARD_REFERENCE_LIST:e</title>
<path fill="none" stroke="#000000" d="M455.8275,-701.705C375.9043,-658.2356 523.552,-213.1095 419,-213.1095"/>
<polygon fill="#000000" stroke="#000000" points="462.2213,-703.2408 469.1591,-708.6099 466.1106,-704.1751 470,-705.1095 470,-705.1095 470,-705.1095 466.1106,-704.1751 470.8409,-701.609 462.2213,-703.2408 462.2213,-703.2408"/>
<ellipse fill="none" stroke="#000000" cx="459.1098" cy="-702.4934" rx="3.2" ry="3.2"/>
</g>
</g>
</svg>
