<?xml version="1.0" encoding="UTF-8" standalone="no"?>
<!DOCTYPE svg PUBLIC "-//W3C//DTD SVG 1.1//EN"
 "http://www.w3.org/Graphics/SVG/1.1/DTD/svg11.dtd">
<!-- Generated by graphviz version 2.40.1 (20161225.0304)
 -->
<!-- Title: oneDegreeRelationshipsDiagram Pages: 1 -->
<svg width="770pt" height="1502pt"
 viewBox="0.00 0.00 770.00 1501.72" xmlns="http://www.w3.org/2000/svg" xmlns:xlink="http://www.w3.org/1999/xlink">
<g id="graph0" class="graph" transform="scale(1 1) rotate(0) translate(4 1497.7193)">
<title>oneDegreeRelationshipsDiagram</title>
<polygon fill="#ffffff" stroke="transparent" points="-4,4 -4,-1497.7193 766,-1497.7193 766,4 -4,4"/>
<text text-anchor="middle" x="72.4936" y="-7.3" font-family="Helvetica,sans-Serif" font-size="11.00" fill="#000000">Generated by SchemaSpy</text>
<!-- CONTACT -->
<g id="node1" class="node">
<title>CONTACT</title>
<g id="a_node1"><a xlink:href="../../tables/CONTACT.html" xlink:title="CONTACT" target="_top">
<polygon fill="#ffffff" stroke="transparent" points="203,-268.7193 203,-1319.7193 415,-1319.7193 415,-268.7193 203,-268.7193"/>
<polygon fill="#f5f5f5" stroke="transparent" points="203,-1296.2193 203,-1319.2193 415,-1319.2193 415,-1296.2193 203,-1296.2193"/>
<polygon fill="none" stroke="#000000" points="203,-1296.2193 203,-1319.2193 415,-1319.2193 415,-1296.2193 203,-1296.2193"/>
<text text-anchor="start" x="208" y="-1305.3193" font-family="Helvetica,sans-Serif" font-weight="bold" font-size="11.00" fill="#000000">CONTACT</text>
<text text-anchor="start" x="380.0437" y="-1304.3193" font-family="Helvetica,sans-Serif" font-size="11.00" fill="#000000">[table]</text>
<polygon fill="none" stroke="#000000" points="203,-1274.2193 203,-1296.2193 415,-1296.2193 415,-1274.2193 203,-1274.2193"/>
<image xlink:href="../../images/primaryKeys.png" width="11px" height="12px" preserveAspectRatio="xMinYMin meet" x="208" y="-1291.22"/>
<text text-anchor="start" x="223" y="-1281.3193" font-family="Helvetica,sans-Serif" font-size="11.00" fill="#000000">CONTACT_ID</text>
<polygon fill="none" stroke="#000000" points="203,-1252.2193 203,-1274.2193 415,-1274.2193 415,-1252.2193 203,-1252.2193"/>
<image xlink:href="../../images/primaryKeys.png" width="11px" height="12px" preserveAspectRatio="xMinYMin meet" x="208" y="-1269.22"/>
<text text-anchor="start" x="223" y="-1259.3193" font-family="Helvetica,sans-Serif" font-size="11.00" fill="#000000">LINKED_CONTACT_ID</text>
<polygon fill="none" stroke="#000000" points="203,-1230.2193 203,-1252.2193 415,-1252.2193 415,-1230.2193 203,-1230.2193"/>
<image xlink:href="../../images/primaryKeys.png" width="11px" height="12px" preserveAspectRatio="xMinYMin meet" x="208" y="-1247.22"/>
<text text-anchor="start" x="223" y="-1237.3193" font-family="Helvetica,sans-Serif" font-size="11.00" fill="#000000">CONTACT_DATE</text>
<polygon fill="none" stroke="#000000" points="203,-1208.2193 203,-1230.2193 415,-1230.2193 415,-1208.2193 203,-1208.2193"/>
<image xlink:href="../../images/primaryKeys.png" width="11px" height="12px" preserveAspectRatio="xMinYMin meet" x="208" y="-1225.22"/>
<text text-anchor="start" x="223" y="-1215.3193" font-family="Helvetica,sans-Serif" font-size="11.00" fill="#000000">OFFENDER_ID</text>
<polygon fill="none" stroke="#000000" points="203,-1186.2193 203,-1208.2193 415,-1208.2193 415,-1186.2193 203,-1186.2193"/>
<image xlink:href="../../images/primaryKeys.png" width="11px" height="12px" preserveAspectRatio="xMinYMin meet" x="208" y="-1203.22"/>
<text text-anchor="start" x="223" y="-1193.3193" font-family="Helvetica,sans-Serif" font-size="11.00" fill="#000000">CONTACT_START_TIME</text>
<polygon fill="none" stroke="#000000" points="203,-1164.2193 203,-1186.2193 415,-1186.2193 415,-1164.2193 203,-1164.2193"/>
<image xlink:href="../../images/primaryKeys.png" width="11px" height="12px" preserveAspectRatio="xMinYMin meet" x="208" y="-1181.22"/>
<text text-anchor="start" x="223" y="-1171.3193" font-family="Helvetica,sans-Serif" font-size="11.00" fill="#000000">CONTACT_END_TIME</text>
<polygon fill="none" stroke="#000000" points="203,-1142.2193 203,-1164.2193 415,-1164.2193 415,-1142.2193 203,-1142.2193"/>
<image xlink:href="../../images/primaryKeys.png" width="11px" height="12px" preserveAspectRatio="xMinYMin meet" x="208" y="-1159.22"/>
<text text-anchor="start" x="223" y="-1149.3193" font-family="Helvetica,sans-Serif" font-size="11.00" fill="#000000">RQMNT_ID</text>
<polygon fill="none" stroke="#000000" points="203,-1120.2193 203,-1142.2193 415,-1142.2193 415,-1120.2193 203,-1120.2193"/>
<image xlink:href="../../images/primaryKeys.png" width="11px" height="12px" preserveAspectRatio="xMinYMin meet" x="208" y="-1137.22"/>
<text text-anchor="start" x="223" y="-1127.3193" font-family="Helvetica,sans-Serif" font-size="11.00" fill="#000000">LIC_CONDITION_ID</text>
<polygon fill="none" stroke="#000000" points="203,-1098.2193 203,-1120.2193 415,-1120.2193 415,-1098.2193 203,-1098.2193"/>
<image xlink:href="../../images/primaryKeys.png" width="11px" height="12px" preserveAspectRatio="xMinYMin meet" x="208" y="-1115.22"/>
<text text-anchor="start" x="223" y="-1105.3193" font-family="Helvetica,sans-Serif" font-size="11.00" fill="#000000">PROVIDER_LOCATION_ID</text>
<polygon fill="none" stroke="#000000" points="203,-1076.2193 203,-1098.2193 415,-1098.2193 415,-1076.2193 203,-1076.2193"/>
<image xlink:href="../../images/primaryKeys.png" width="11px" height="12px" preserveAspectRatio="xMinYMin meet" x="208" y="-1093.22"/>
<text text-anchor="start" x="223" y="-1083.3193" font-family="Helvetica,sans-Serif" font-size="11.00" fill="#000000">PROVIDER_EMPLOYEE_ID</text>
<polygon fill="none" stroke="#000000" points="203,-1054.2193 203,-1076.2193 415,-1076.2193 415,-1054.2193 203,-1054.2193"/>
<image xlink:href="../../images/primaryKeys.png" width="11px" height="12px" preserveAspectRatio="xMinYMin meet" x="208" y="-1071.22"/>
<text text-anchor="start" x="223" y="-1061.3193" font-family="Helvetica,sans-Serif" font-size="11.00" fill="#000000">VISOR_CONTACT</text>
<polygon fill="none" stroke="#000000" points="203,-1032.2193 203,-1054.2193 415,-1054.2193 415,-1032.2193 203,-1032.2193"/>
<image xlink:href="../../images/primaryKeys.png" width="11px" height="12px" preserveAspectRatio="xMinYMin meet" x="208" y="-1049.22"/>
<text text-anchor="start" x="223" y="-1039.3193" font-family="Helvetica,sans-Serif" font-size="11.00" fill="#000000">STAFF_ID</text>
<polygon fill="none" stroke="#000000" points="203,-1010.2193 203,-1032.2193 415,-1032.2193 415,-1010.2193 203,-1010.2193"/>
<image xlink:href="../../images/primaryKeys.png" width="11px" height="12px" preserveAspectRatio="xMinYMin meet" x="208" y="-1027.22"/>
<text text-anchor="start" x="223" y="-1017.3193" font-family="Helvetica,sans-Serif" font-size="11.00" fill="#000000">TEAM_ID</text>
<polygon fill="none" stroke="#000000" points="203,-988.2193 203,-1010.2193 415,-1010.2193 415,-988.2193 203,-988.2193"/>
<image xlink:href="../../images/primaryKeys.png" width="11px" height="12px" preserveAspectRatio="xMinYMin meet" x="208" y="-1005.22"/>
<text text-anchor="start" x="223" y="-995.3193" font-family="Helvetica,sans-Serif" font-size="11.00" fill="#000000">SOFT_DELETED</text>
<polygon fill="none" stroke="#000000" points="203,-966.2193 203,-988.2193 415,-988.2193 415,-966.2193 203,-966.2193"/>
<image xlink:href="../../images/primaryKeys.png" width="11px" height="12px" preserveAspectRatio="xMinYMin meet" x="208" y="-983.219"/>
<text text-anchor="start" x="223" y="-973.3193" font-family="Helvetica,sans-Serif" font-size="11.00" fill="#000000">VISOR_EXPORTED</text>
<polygon fill="none" stroke="#000000" points="203,-944.2193 203,-966.2193 415,-966.2193 415,-944.2193 203,-944.2193"/>
<image xlink:href="../../images/primaryKeys.png" width="11px" height="12px" preserveAspectRatio="xMinYMin meet" x="208" y="-961.219"/>
<text text-anchor="start" x="223" y="-951.3193" font-family="Helvetica,sans-Serif" font-size="11.00" fill="#000000">PARTITION_AREA_ID</text>
<polygon fill="none" stroke="#000000" points="203,-922.2193 203,-944.2193 415,-944.2193 415,-922.2193 203,-922.2193"/>
<image xlink:href="../../images/primaryKeys.png" width="11px" height="12px" preserveAspectRatio="xMinYMin meet" x="208" y="-939.219"/>
<text text-anchor="start" x="223" y="-929.3193" font-family="Helvetica,sans-Serif" font-size="11.00" fill="#000000">OFFICE_LOCATION_ID</text>
<polygon fill="none" stroke="#000000" points="203,-900.2193 203,-922.2193 415,-922.2193 415,-900.2193 203,-900.2193"/>
<image xlink:href="../../images/primaryKeys.png" width="11px" height="12px" preserveAspectRatio="xMinYMin meet" x="208" y="-917.219"/>
<text text-anchor="start" x="223" y="-907.3193" font-family="Helvetica,sans-Serif" font-size="11.00" fill="#000000">ROW_VERSION</text>
<polygon fill="none" stroke="#000000" points="203,-878.2193 203,-900.2193 415,-900.2193 415,-878.2193 203,-878.2193"/>
<image xlink:href="../../images/primaryKeys.png" width="11px" height="12px" preserveAspectRatio="xMinYMin meet" x="208" y="-895.219"/>
<text text-anchor="start" x="223" y="-885.3193" font-family="Helvetica,sans-Serif" font-size="11.00" fill="#000000">ALERT_ACTIVE</text>
<polygon fill="none" stroke="#000000" points="203,-856.2193 203,-878.2193 415,-878.2193 415,-856.2193 203,-856.2193"/>
<image xlink:href="../../images/primaryKeys.png" width="11px" height="12px" preserveAspectRatio="xMinYMin meet" x="208" y="-873.219"/>
<text text-anchor="start" x="223" y="-863.3193" font-family="Helvetica,sans-Serif" font-size="11.00" fill="#000000">ATTENDED</text>
<polygon fill="none" stroke="#000000" points="203,-834.2193 203,-856.2193 415,-856.2193 415,-834.2193 203,-834.2193"/>
<image xlink:href="../../images/primaryKeys.png" width="11px" height="12px" preserveAspectRatio="xMinYMin meet" x="208" y="-851.219"/>
<text text-anchor="start" x="223" y="-841.3193" font-family="Helvetica,sans-Serif" font-size="11.00" fill="#000000">CREATED_DATETIME</text>
<polygon fill="none" stroke="#000000" points="203,-812.2193 203,-834.2193 415,-834.2193 415,-812.2193 203,-812.2193"/>
<image xlink:href="../../images/primaryKeys.png" width="11px" height="12px" preserveAspectRatio="xMinYMin meet" x="208" y="-829.219"/>
<text text-anchor="start" x="223" y="-819.3193" font-family="Helvetica,sans-Serif" font-size="11.00" fill="#000000">COMPLIED</text>
<polygon fill="none" stroke="#000000" points="203,-790.2193 203,-812.2193 415,-812.2193 415,-790.2193 203,-790.2193"/>
<image xlink:href="../../images/primaryKeys.png" width="11px" height="12px" preserveAspectRatio="xMinYMin meet" x="208" y="-807.219"/>
<text text-anchor="start" x="223" y="-797.3193" font-family="Helvetica,sans-Serif" font-size="11.00" fill="#000000">SENSITIVE</text>
<polygon fill="none" stroke="#000000" points="203,-768.2193 203,-790.2193 415,-790.2193 415,-768.2193 203,-768.2193"/>
<image xlink:href="../../images/primaryKeys.png" width="11px" height="12px" preserveAspectRatio="xMinYMin meet" x="208" y="-785.219"/>
<text text-anchor="start" x="223" y="-775.3193" font-family="Helvetica,sans-Serif" font-size="11.00" fill="#000000">EVENT_ID</text>
<polygon fill="none" stroke="#000000" points="203,-746.2193 203,-768.2193 415,-768.2193 415,-746.2193 203,-746.2193"/>
<image xlink:href="../../images/primaryKeys.png" width="11px" height="12px" preserveAspectRatio="xMinYMin meet" x="208" y="-763.219"/>
<text text-anchor="start" x="223" y="-753.3193" font-family="Helvetica,sans-Serif" font-size="11.00" fill="#000000">CONTACT_TYPE_ID</text>
<polygon fill="none" stroke="#000000" points="203,-724.2193 203,-746.2193 415,-746.2193 415,-724.2193 203,-724.2193"/>
<image xlink:href="../../images/primaryKeys.png" width="11px" height="12px" preserveAspectRatio="xMinYMin meet" x="208" y="-741.219"/>
<text text-anchor="start" x="223" y="-731.3193" font-family="Helvetica,sans-Serif" font-size="11.00" fill="#000000">PROVIDER_TEAM_ID</text>
<polygon fill="none" stroke="#000000" points="203,-702.2193 203,-724.2193 415,-724.2193 415,-702.2193 203,-702.2193"/>
<image xlink:href="../../images/primaryKeys.png" width="11px" height="12px" preserveAspectRatio="xMinYMin meet" x="208" y="-719.219"/>
<text text-anchor="start" x="223" y="-709.3193" font-family="Helvetica,sans-Serif" font-size="11.00" fill="#000000">CONTACT_OUTCOME_TYPE_ID</text>
<polygon fill="none" stroke="#000000" points="203,-680.2193 203,-702.2193 415,-702.2193 415,-680.2193 203,-680.2193"/>
<image xlink:href="../../images/primaryKeys.png" width="11px" height="12px" preserveAspectRatio="xMinYMin meet" x="208" y="-697.219"/>
<text text-anchor="start" x="223" y="-687.3193" font-family="Helvetica,sans-Serif" font-size="11.00" fill="#000000">EXPLANATION_ID</text>
<polygon fill="none" stroke="#000000" points="203,-658.2193 203,-680.2193 415,-680.2193 415,-658.2193 203,-658.2193"/>
<image xlink:href="../../images/primaryKeys.png" width="11px" height="12px" preserveAspectRatio="xMinYMin meet" x="208" y="-675.219"/>
<text text-anchor="start" x="223" y="-665.3193" font-family="Helvetica,sans-Serif" font-size="11.00" fill="#000000">TRAINING_SESSION_ID</text>
<polygon fill="none" stroke="#000000" points="203,-636.2193 203,-658.2193 415,-658.2193 415,-636.2193 203,-636.2193"/>
<image xlink:href="../../images/primaryKeys.png" width="11px" height="12px" preserveAspectRatio="xMinYMin meet" x="208" y="-653.219"/>
<text text-anchor="start" x="223" y="-643.3193" font-family="Helvetica,sans-Serif" font-size="11.00" fill="#000000">TRUST_PROVIDER_FLAG</text>
<polygon fill="none" stroke="#000000" points="203,-614.2193 203,-636.2193 415,-636.2193 415,-614.2193 203,-614.2193"/>
<image xlink:href="../../images/primaryKeys.png" width="11px" height="12px" preserveAspectRatio="xMinYMin meet" x="208" y="-631.219"/>
<text text-anchor="start" x="223" y="-621.3193" font-family="Helvetica,sans-Serif" font-size="11.00" fill="#000000">STAFF_EMPLOYEE_ID</text>
<polygon fill="none" stroke="#000000" points="203,-592.2193 203,-614.2193 415,-614.2193 415,-592.2193 203,-592.2193"/>
<image xlink:href="../../images/primaryKeys.png" width="11px" height="12px" preserveAspectRatio="xMinYMin meet" x="208" y="-609.219"/>
<text text-anchor="start" x="223" y="-599.3193" font-family="Helvetica,sans-Serif" font-size="11.00" fill="#000000">PROBATION_AREA_ID</text>
<polygon fill="none" stroke="#000000" points="203,-570.2193 203,-592.2193 415,-592.2193 415,-570.2193 203,-570.2193"/>
<image xlink:href="../../images/primaryKeys.png" width="11px" height="12px" preserveAspectRatio="xMinYMin meet" x="208" y="-587.219"/>
<text text-anchor="start" x="223" y="-577.3193" font-family="Helvetica,sans-Serif" font-size="11.00" fill="#000000">TRUST_PROVIDER_TEAM_ID</text>
<polygon fill="none" stroke="#000000" points="203,-548.2193 203,-570.2193 415,-570.2193 415,-548.2193 203,-548.2193"/>
<image xlink:href="../../images/primaryKeys.png" width="11px" height="12px" preserveAspectRatio="xMinYMin meet" x="208" y="-565.219"/>
<text text-anchor="start" x="223" y="-555.3193" font-family="Helvetica,sans-Serif" font-size="11.00" fill="#000000">ENFORCEMENT</text>
<polygon fill="none" stroke="#000000" points="203,-526.2193 203,-548.2193 415,-548.2193 415,-526.2193 203,-526.2193"/>
<image xlink:href="../../images/primaryKeys.png" width="11px" height="12px" preserveAspectRatio="xMinYMin meet" x="208" y="-543.219"/>
<text text-anchor="start" x="223" y="-533.3193" font-family="Helvetica,sans-Serif" font-size="11.00" fill="#000000">DOCUMENT_LINKED</text>
<polygon fill="none" stroke="#000000" points="203,-504.2193 203,-526.2193 415,-526.2193 415,-504.2193 203,-504.2193"/>
<image xlink:href="../../images/primaryKeys.png" width="11px" height="12px" preserveAspectRatio="xMinYMin meet" x="208" y="-521.219"/>
<text text-anchor="start" x="217.8069" y="-511.3193" font-family="Helvetica,sans-Serif" font-size="11.00" fill="#000000">LATEST_ENFORCEMENT_ACTION_ID</text>
<polygon fill="none" stroke="#000000" points="203,-482.2193 203,-504.2193 415,-504.2193 415,-482.2193 203,-482.2193"/>
<image xlink:href="../../images/primaryKeys.png" width="11px" height="12px" preserveAspectRatio="xMinYMin meet" x="208" y="-499.219"/>
<text text-anchor="start" x="223" y="-489.3193" font-family="Helvetica,sans-Serif" font-size="11.00" fill="#000000">NSI_ID</text>
<polygon fill="none" stroke="#000000" points="203,-460.2193 203,-482.2193 415,-482.2193 415,-460.2193 203,-460.2193"/>
<image xlink:href="../../images/primaryKeys.png" width="11px" height="12px" preserveAspectRatio="xMinYMin meet" x="208" y="-477.219"/>
<text text-anchor="start" x="223" y="-467.3193" font-family="Helvetica,sans-Serif" font-size="11.00" fill="#000000">TABLE_NAME</text>
<polygon fill="none" stroke="#000000" points="203,-438.2193 203,-460.2193 415,-460.2193 415,-438.2193 203,-438.2193"/>
<image xlink:href="../../images/primaryKeys.png" width="11px" height="12px" preserveAspectRatio="xMinYMin meet" x="208" y="-455.219"/>
<text text-anchor="start" x="223" y="-445.3193" font-family="Helvetica,sans-Serif" font-size="11.00" fill="#000000">PRIMARY_KEY_ID</text>
<polygon fill="none" stroke="#000000" points="203,-416.2193 203,-438.2193 415,-438.2193 415,-416.2193 203,-416.2193"/>
<image xlink:href="../../images/primaryKeys.png" width="11px" height="12px" preserveAspectRatio="xMinYMin meet" x="208" y="-433.219"/>
<text text-anchor="start" x="223" y="-423.3193" font-family="Helvetica,sans-Serif" font-size="11.00" fill="#000000">PSS_RQMNT_ID</text>
<polygon fill="none" stroke="#000000" points="203,-394.2193 203,-416.2193 415,-416.2193 415,-394.2193 203,-394.2193"/>
<image xlink:href="../../images/primaryKeys.png" width="11px" height="12px" preserveAspectRatio="xMinYMin meet" x="208" y="-411.219"/>
<text text-anchor="start" x="223" y="-401.3193" font-family="Helvetica,sans-Serif" font-size="11.00" fill="#000000">NOMIS_CASE_NOTE_ID</text>
<polygon fill="none" stroke="#000000" points="203,-372.2193 203,-394.2193 415,-394.2193 415,-372.2193 203,-372.2193"/>
<image xlink:href="../../images/primaryKeys.png" width="11px" height="12px" preserveAspectRatio="xMinYMin meet" x="208" y="-389.219"/>
<text text-anchor="start" x="223" y="-379.3193" font-family="Helvetica,sans-Serif" font-size="11.00" fill="#000000">LINKED_DOCUMENT_CONTACT_ID</text>
<polygon fill="none" stroke="#000000" points="203,-350.2193 203,-372.2193 415,-372.2193 415,-350.2193 203,-350.2193"/>
<image xlink:href="../../images/primaryKeys.png" width="11px" height="12px" preserveAspectRatio="xMinYMin meet" x="208" y="-367.219"/>
<text text-anchor="start" x="223" y="-357.3193" font-family="Helvetica,sans-Serif" font-size="11.00" fill="#000000">EXTERNAL_REFERENCE</text>
<polygon fill="none" stroke="#000000" points="203,-328.2193 203,-350.2193 415,-350.2193 415,-328.2193 203,-328.2193"/>
<image xlink:href="../../images/primaryKeys.png" width="11px" height="12px" preserveAspectRatio="xMinYMin meet" x="208" y="-345.219"/>
<text text-anchor="start" x="223" y="-335.3193" font-family="Helvetica,sans-Serif" font-size="11.00" fill="#000000">RAR_LINKED_CONTACT_ID</text>
<polygon fill="none" stroke="#000000" points="203,-306.2193 203,-328.2193 415,-328.2193 415,-306.2193 203,-306.2193"/>
<image xlink:href="../../images/primaryKeys.png" width="11px" height="12px" preserveAspectRatio="xMinYMin meet" x="208" y="-323.219"/>
<text text-anchor="start" x="216.57" y="-313.3193" font-family="Helvetica,sans-Serif" font-size="11.00" fill="#000000">SESSION_DELIVERED_CON_TYPE_ID</text>
<polygon fill="none" stroke="#000000" points="203,-287.2193 203,-306.2193 415,-306.2193 415,-287.2193 203,-287.2193"/>
<text text-anchor="start" x="206" y="-293.3193" font-family="Helvetica,sans-Serif" font-size="11.00" fill="#000000">...</text>
<polygon fill="#ffffff" stroke="transparent" points="203,-268.2193 203,-287.2193 273,-287.2193 273,-268.2193 203,-268.2193"/>
<polygon fill="none" stroke="#000000" points="203,-268.2193 203,-287.2193 273,-287.2193 273,-268.2193 203,-268.2193"/>
<text text-anchor="start" x="206" y="-274.3193" font-family="Helvetica,sans-Serif" font-size="11.00" fill="#000000">&lt; 26</text>
<polygon fill="#ffffff" stroke="transparent" points="273,-268.2193 273,-287.2193 366,-287.2193 366,-268.2193 273,-268.2193"/>
<polygon fill="none" stroke="#000000" points="273,-268.2193 273,-287.2193 366,-287.2193 366,-268.2193 273,-268.2193"/>
<text text-anchor="start" x="296.9791" y="-274.3193" font-family="Helvetica,sans-Serif" font-size="11.00" fill="#000000">165,869 rows</text>
<polygon fill="#ffffff" stroke="transparent" points="366,-268.2193 366,-287.2193 415,-287.2193 415,-268.2193 366,-268.2193"/>
<polygon fill="none" stroke="#000000" points="366,-268.2193 366,-287.2193 415,-287.2193 415,-268.2193 366,-268.2193"/>
<text text-anchor="start" x="390.2904" y="-274.3193" font-family="Helvetica,sans-Serif" font-size="11.00" fill="#000000">14 &gt;</text>
</a>
</g>
</g>
<!-- PARTITION_AREA -->
<g id="node2" class="node">
<title>PARTITION_AREA</title>
<g id="a_node2"><a xlink:href="../../tables/PARTITION_AREA.html" xlink:title="PARTITION_AREA" target="_top">
<polygon fill="#ffffff" stroke="transparent" points="8,-884.7193 8,-989.7193 150,-989.7193 150,-884.7193 8,-884.7193"/>
<polygon fill="#f5f5f5" stroke="transparent" points="8,-966.2193 8,-989.2193 150,-989.2193 150,-966.2193 8,-966.2193"/>
<polygon fill="none" stroke="#000000" points="8,-966.2193 8,-989.2193 150,-989.2193 150,-966.2193 8,-966.2193"/>
<text text-anchor="start" x="13" y="-975.3193" font-family="Helvetica,sans-Serif" font-weight="bold" font-size="11.00" fill="#000000">PARTITION_AREA</text>
<text text-anchor="start" x="115.0437" y="-974.3193" font-family="Helvetica,sans-Serif" font-size="11.00" fill="#000000">[table]</text>
<polygon fill="none" stroke="#000000" points="8,-944.2193 8,-966.2193 150,-966.2193 150,-944.2193 8,-944.2193"/>
<image xlink:href="../../images/primaryKeys.png" width="11px" height="12px" preserveAspectRatio="xMinYMin meet" x="13" y="-961.219"/>
<text text-anchor="start" x="28" y="-951.3193" font-family="Helvetica,sans-Serif" font-size="11.00" fill="#000000">PARTITION_AREA_ID</text>
<polygon fill="none" stroke="#000000" points="8,-922.2193 8,-944.2193 150,-944.2193 150,-922.2193 8,-922.2193"/>
<image xlink:href="../../images/primaryKeys.png" width="11px" height="12px" preserveAspectRatio="xMinYMin meet" x="13" y="-939.219"/>
<text text-anchor="start" x="24.1624" y="-929.3193" font-family="Helvetica,sans-Serif" font-size="11.00" fill="#000000">TRAINING_SESSION_ID</text>
<polygon fill="none" stroke="#000000" points="8,-903.2193 8,-922.2193 150,-922.2193 150,-903.2193 8,-903.2193"/>
<text text-anchor="start" x="11" y="-909.3193" font-family="Helvetica,sans-Serif" font-size="11.00" fill="#000000">...</text>
<polygon fill="#ffffff" stroke="transparent" points="8,-884.2193 8,-903.2193 49,-903.2193 49,-884.2193 8,-884.2193"/>
<polygon fill="none" stroke="#000000" points="8,-884.2193 8,-903.2193 49,-903.2193 49,-884.2193 8,-884.2193"/>
<text text-anchor="start" x="11" y="-890.3193" font-family="Helvetica,sans-Serif" font-size="11.00" fill="#000000"> &#160;</text>
<polygon fill="#ffffff" stroke="transparent" points="49,-884.2193 49,-903.2193 108,-903.2193 108,-884.2193 49,-884.2193"/>
<polygon fill="none" stroke="#000000" points="49,-884.2193 49,-903.2193 108,-903.2193 108,-884.2193 49,-884.2193"/>
<text text-anchor="start" x="66.4956" y="-890.3193" font-family="Helvetica,sans-Serif" font-size="11.00" fill="#000000">44 rows</text>
<polygon fill="#ffffff" stroke="transparent" points="108,-884.2193 108,-903.2193 150,-903.2193 150,-884.2193 108,-884.2193"/>
<polygon fill="none" stroke="#000000" points="108,-884.2193 108,-903.2193 150,-903.2193 150,-884.2193 108,-884.2193"/>
<text text-anchor="start" x="125.2904" y="-890.3193" font-family="Helvetica,sans-Serif" font-size="11.00" fill="#000000">81 &gt;</text>
</a>
</g>
</g>
<!-- CONTACT&#45;&gt;PARTITION_AREA -->
<g id="edge1" class="edge">
<title>CONTACT:w&#45;&gt;PARTITION_AREA:e</title>
<path fill="none" stroke="#000000" d="M188.4922,-955.2193C175.5558,-955.2193 167.8507,-955.2193 150,-955.2193"/>
<polygon fill="#000000" stroke="#000000" points="195,-955.2193 203,-958.8193 199,-955.2193 203,-955.2193 203,-955.2193 203,-955.2193 199,-955.2193 203,-951.6193 195,-955.2193 195,-955.2193"/>
<ellipse fill="none" stroke="#000000" cx="191.8" cy="-955.2194" rx="3.2" ry="3.2"/>
</g>
<!-- SUBJECT_ACCESS_REPORT -->
<g id="node3" class="node">
<title>SUBJECT_ACCESS_REPORT</title>
<g id="a_node3"><a xlink:href="../../tables/SUBJECT_ACCESS_REPORT.html" xlink:title="SUBJECT_ACCESS_REPORT" target="_top">
<polygon fill="#ffffff" stroke="transparent" points="211,-1340.7193 211,-1489.7193 407,-1489.7193 407,-1340.7193 211,-1340.7193"/>
<polygon fill="#f5f5f5" stroke="transparent" points="211,-1466.2193 211,-1489.2193 407,-1489.2193 407,-1466.2193 211,-1466.2193"/>
<polygon fill="none" stroke="#000000" points="211,-1466.2193 211,-1489.2193 407,-1489.2193 407,-1466.2193 211,-1466.2193"/>
<text text-anchor="start" x="215.8025" y="-1475.3193" font-family="Helvetica,sans-Serif" font-weight="bold" font-size="11.00" fill="#000000">SUBJECT_ACCESS_REPORT</text>
<text text-anchor="start" x="372.5219" y="-1474.3193" font-family="Helvetica,sans-Serif" font-size="11.00" fill="#000000">[table]</text>
<polygon fill="none" stroke="#000000" points="211,-1444.2193 211,-1466.2193 407,-1466.2193 407,-1444.2193 211,-1444.2193"/>
<image xlink:href="../../images/primaryKeys.png" width="11px" height="12px" preserveAspectRatio="xMinYMin meet" x="216" y="-1461.22"/>
<text text-anchor="start" x="231.2462" y="-1451.3193" font-family="Helvetica,sans-Serif" font-size="11.00" fill="#000000">SUBJECT_ACCESS_REPORT_ID</text>
<polygon fill="none" stroke="#000000" points="211,-1422.2193 211,-1444.2193 407,-1444.2193 407,-1422.2193 211,-1422.2193"/>
<image xlink:href="../../images/primaryKeys.png" width="11px" height="12px" preserveAspectRatio="xMinYMin meet" x="216" y="-1439.22"/>
<text text-anchor="start" x="238" y="-1429.3193" font-family="Helvetica,sans-Serif" font-size="11.00" fill="#000000">PARTITION_AREA_ID</text>
<polygon fill="none" stroke="#000000" points="211,-1400.2193 211,-1422.2193 407,-1422.2193 407,-1400.2193 211,-1400.2193"/>
<image xlink:href="../../images/primaryKeys.png" width="11px" height="12px" preserveAspectRatio="xMinYMin meet" x="216" y="-1417.22"/>
<text text-anchor="start" x="238" y="-1407.3193" font-family="Helvetica,sans-Serif" font-size="11.00" fill="#000000">OFFENDER_ID</text>
<polygon fill="none" stroke="#000000" points="211,-1378.2193 211,-1400.2193 407,-1400.2193 407,-1378.2193 211,-1378.2193"/>
<image xlink:href="../../images/primaryKeys.png" width="11px" height="12px" preserveAspectRatio="xMinYMin meet" x="216" y="-1395.22"/>
<text text-anchor="start" x="238" y="-1385.3193" font-family="Helvetica,sans-Serif" font-size="11.00" fill="#000000">TRAINING_SESSION_ID</text>
<polygon fill="none" stroke="#000000" points="211,-1359.2193 211,-1378.2193 407,-1378.2193 407,-1359.2193 211,-1359.2193"/>
<text text-anchor="start" x="214" y="-1365.3193" font-family="Helvetica,sans-Serif" font-size="11.00" fill="#000000">...</text>
<polygon fill="#ffffff" stroke="transparent" points="211,-1340.2193 211,-1359.2193 284,-1359.2193 284,-1340.2193 211,-1340.2193"/>
<polygon fill="none" stroke="#000000" points="211,-1340.2193 211,-1359.2193 284,-1359.2193 284,-1340.2193 211,-1340.2193"/>
<text text-anchor="start" x="214" y="-1346.3193" font-family="Helvetica,sans-Serif" font-size="11.00" fill="#000000">&lt; 2</text>
<polygon fill="#ffffff" stroke="transparent" points="284,-1340.2193 284,-1359.2193 360,-1359.2193 360,-1340.2193 284,-1340.2193"/>
<polygon fill="none" stroke="#000000" points="284,-1340.2193 284,-1359.2193 360,-1359.2193 360,-1340.2193 284,-1340.2193"/>
<text text-anchor="start" x="312.3807" y="-1346.3193" font-family="Helvetica,sans-Serif" font-size="11.00" fill="#000000">100 rows</text>
<polygon fill="#ffffff" stroke="transparent" points="360,-1340.2193 360,-1359.2193 407,-1359.2193 407,-1340.2193 360,-1340.2193"/>
<polygon fill="none" stroke="#000000" points="360,-1340.2193 360,-1359.2193 407,-1359.2193 407,-1340.2193 360,-1340.2193"/>
<text text-anchor="start" x="388.4053" y="-1346.3193" font-family="Helvetica,sans-Serif" font-size="11.00" fill="#000000">2 &gt;</text>
</a>
</g>
</g>
<!-- SUBJECT_ACCESS_REPORT&#45;&gt;PARTITION_AREA -->
<g id="edge2" class="edge">
<title>SUBJECT_ACCESS_REPORT:w&#45;&gt;PARTITION_AREA:e</title>
<path fill="none" stroke="#000000" d="M196.6317,-1429.6466C118.8013,-1385.905 251.6458,-955.2193 150,-955.2193"/>
<polygon fill="#000000" stroke="#000000" points="203.2364,-1431.2888 210.1313,-1436.7129 207.1182,-1432.254 211,-1433.2193 211,-1433.2193 211,-1433.2193 207.1182,-1432.254 211.8687,-1429.7257 203.2364,-1431.2888 203.2364,-1431.2888"/>
<ellipse fill="none" stroke="#000000" cx="200.131" cy="-1430.5166" rx="3.2" ry="3.2"/>
</g>
<!-- SUBJECT_ACCESS_REPORT_CONTACT -->
<g id="node4" class="node">
<title>SUBJECT_ACCESS_REPORT_CONTACT</title>
<g id="a_node4"><a xlink:href="../../tables/SUBJECT_ACCESS_REPORT_CONTACT.html" xlink:title="SUBJECT_ACCESS_REPORT_CONTACT" target="_top">
<polygon fill="#ffffff" stroke="transparent" points="468,-640.2193 468,-840.2193 754,-840.2193 754,-640.2193 468,-640.2193"/>
<polygon fill="#f5f5f5" stroke="transparent" points="470,-815.2193 470,-838.2193 752,-838.2193 752,-815.2193 470,-815.2193"/>
<polygon fill="none" stroke="#000000" points="470,-815.2193 470,-838.2193 752,-838.2193 752,-815.2193 470,-815.2193"/>
<text text-anchor="start" x="475" y="-824.3193" font-family="Helvetica,sans-Serif" font-weight="bold" font-size="11.00" fill="#000000">SUBJECT_ACCESS_REPORT_CONTACT</text>
<text text-anchor="start" x="717.0437" y="-823.3193" font-family="Helvetica,sans-Serif" font-size="11.00" fill="#000000">[table]</text>
<polygon fill="none" stroke="#000000" points="470,-793.2193 470,-815.2193 691,-815.2193 691,-793.2193 470,-793.2193"/>
<image xlink:href="../../images/primaryKeys.png" width="11px" height="12px" preserveAspectRatio="xMinYMin meet" x="475" y="-810.219"/>
<text text-anchor="start" x="490" y="-800.3193" font-family="Helvetica,sans-Serif" font-size="11.00" fill="#000000">SAR_CONTACT_ID</text>
<polygon fill="none" stroke="#000000" points="691,-793.2193 691,-815.2193 752,-815.2193 752,-793.2193 691,-793.2193"/>
<text text-anchor="start" x="693.6865" y="-800.9193" font-family="Helvetica,sans-Serif" font-size="11.00" fill="#000000">number[38]</text>
<polygon fill="none" stroke="#000000" points="470,-771.2193 470,-793.2193 691,-793.2193 691,-771.2193 470,-771.2193"/>
<image xlink:href="../../images/primaryKeys.png" width="11px" height="12px" preserveAspectRatio="xMinYMin meet" x="475" y="-788.219"/>
<text text-anchor="start" x="490" y="-778.3193" font-family="Helvetica,sans-Serif" font-size="11.00" fill="#000000">SUBJECT_ACCESS_REPORT_ID</text>
<polygon fill="none" stroke="#000000" points="691,-771.2193 691,-793.2193 752,-793.2193 752,-771.2193 691,-771.2193"/>
<text text-anchor="start" x="693.6865" y="-778.9193" font-family="Helvetica,sans-Serif" font-size="11.00" fill="#000000">number[38]</text>
<polygon fill="none" stroke="#000000" points="470,-749.2193 470,-771.2193 691,-771.2193 691,-749.2193 470,-749.2193"/>
<image xlink:href="../../images/primaryKeys.png" width="11px" height="12px" preserveAspectRatio="xMinYMin meet" x="475" y="-766.219"/>
<text text-anchor="start" x="490" y="-756.3193" font-family="Helvetica,sans-Serif" font-size="11.00" fill="#000000">CONTACT_ID</text>
<polygon fill="none" stroke="#000000" points="691,-749.2193 691,-771.2193 752,-771.2193 752,-749.2193 691,-749.2193"/>
<text text-anchor="start" x="693.6865" y="-756.9193" font-family="Helvetica,sans-Serif" font-size="11.00" fill="#000000">number[38]</text>
<polygon fill="none" stroke="#000000" points="470,-727.2193 470,-749.2193 691,-749.2193 691,-727.2193 470,-727.2193"/>
<image xlink:href="../../images/primaryKeys.png" width="11px" height="12px" preserveAspectRatio="xMinYMin meet" x="475" y="-744.219"/>
<text text-anchor="start" x="490" y="-734.3193" font-family="Helvetica,sans-Serif" font-size="11.00" fill="#000000">DPA_SAR_EXCLUSION_REASON_ID</text>
<polygon fill="none" stroke="#000000" points="691,-727.2193 691,-749.2193 752,-749.2193 752,-727.2193 691,-727.2193"/>
<text text-anchor="start" x="693.6865" y="-734.9193" font-family="Helvetica,sans-Serif" font-size="11.00" fill="#000000">number[38]</text>
<polygon fill="none" stroke="#000000" points="470,-705.2193 470,-727.2193 691,-727.2193 691,-705.2193 470,-705.2193"/>
<image xlink:href="../../images/primaryKeys.png" width="11px" height="12px" preserveAspectRatio="xMinYMin meet" x="475" y="-722.219"/>
<text text-anchor="start" x="490" y="-712.3193" font-family="Helvetica,sans-Serif" font-size="11.00" fill="#000000">PARTITION_AREA_ID</text>
<polygon fill="none" stroke="#000000" points="691,-705.2193 691,-727.2193 752,-727.2193 752,-705.2193 691,-705.2193"/>
<text text-anchor="start" x="693.6865" y="-712.9193" font-family="Helvetica,sans-Serif" font-size="11.00" fill="#000000">number[38]</text>
<polygon fill="none" stroke="#000000" points="470,-683.2193 470,-705.2193 691,-705.2193 691,-683.2193 470,-683.2193"/>
<text text-anchor="start" x="490" y="-690.3193" font-family="Helvetica,sans-Serif" font-size="11.00" fill="#000000">ROW_VERSION</text>
<polygon fill="none" stroke="#000000" points="691,-683.2193 691,-705.2193 752,-705.2193 752,-683.2193 691,-683.2193"/>
<text text-anchor="start" x="693.6865" y="-690.9193" font-family="Helvetica,sans-Serif" font-size="11.00" fill="#000000">number[38]</text>
<polygon fill="none" stroke="#000000" points="470,-661.2193 470,-683.2193 691,-683.2193 691,-661.2193 470,-661.2193"/>
<image xlink:href="../../images/primaryKeys.png" width="11px" height="12px" preserveAspectRatio="xMinYMin meet" x="475" y="-678.219"/>
<text text-anchor="start" x="490" y="-668.3193" font-family="Helvetica,sans-Serif" font-size="11.00" fill="#000000">TRAINING_SESSION_ID</text>
<polygon fill="none" stroke="#000000" points="691,-661.2193 691,-683.2193 752,-683.2193 752,-661.2193 691,-661.2193"/>
<text text-anchor="start" x="693.6865" y="-668.9193" font-family="Helvetica,sans-Serif" font-size="11.00" fill="#000000">number[38]</text>
<polygon fill="#ffffff" stroke="transparent" points="470,-642.2193 470,-661.2193 569,-661.2193 569,-642.2193 470,-642.2193"/>
<polygon fill="none" stroke="#000000" points="470,-642.2193 470,-661.2193 569,-661.2193 569,-642.2193 470,-642.2193"/>
<text text-anchor="start" x="473" y="-648.3193" font-family="Helvetica,sans-Serif" font-size="11.00" fill="#000000">&lt; 4</text>
<polygon fill="#ffffff" stroke="transparent" points="569,-642.2193 569,-661.2193 691,-661.2193 691,-642.2193 569,-642.2193"/>
<polygon fill="none" stroke="#000000" points="569,-642.2193 569,-661.2193 691,-661.2193 691,-642.2193 569,-642.2193"/>
<text text-anchor="start" x="649.4956" y="-648.3193" font-family="Helvetica,sans-Serif" font-size="11.00" fill="#000000">18 rows</text>
<polygon fill="#ffffff" stroke="transparent" points="691,-642.2193 691,-661.2193 752,-661.2193 752,-642.2193 691,-642.2193"/>
<polygon fill="none" stroke="#000000" points="691,-642.2193 691,-661.2193 752,-661.2193 752,-642.2193 691,-642.2193"/>
<text text-anchor="start" x="733.4053" y="-648.3193" font-family="Helvetica,sans-Serif" font-size="11.00" fill="#000000">0 &gt;</text>
<polygon fill="none" stroke="#000000" stroke-width="2" points="469,-641.2193 469,-839.2193 753,-839.2193 753,-641.2193 469,-641.2193"/>
</a>
</g>
</g>
<!-- SUBJECT_ACCESS_REPORT_CONTACT&#45;&gt;CONTACT -->
<g id="edge3" class="edge">
<title>SUBJECT_ACCESS_REPORT_CONTACT:w&#45;&gt;CONTACT:e</title>
<path fill="none" stroke="#000000" d="M455.461,-760.9686C253.2795,-783.0371 644.4553,-1285.2193 415,-1285.2193"/>
<polygon fill="#000000" stroke="#000000" points="462.0106,-760.6311 470.1853,-763.8145 466.0053,-760.4252 470,-760.2193 470,-760.2193 470,-760.2193 466.0053,-760.4252 469.8147,-756.6241 462.0106,-760.6311 462.0106,-760.6311"/>
<ellipse fill="none" stroke="#000000" cx="458.8148" cy="-760.7958" rx="3.2" ry="3.2"/>
</g>
<!-- SUBJECT_ACCESS_REPORT_CONTACT&#45;&gt;PARTITION_AREA -->
<g id="edge5" class="edge">
<title>SUBJECT_ACCESS_REPORT_CONTACT:w&#45;&gt;PARTITION_AREA:e</title>
<path fill="none" stroke="#000000" d="M457.6429,-708.44C410.1272,-639.3749 474.6228,-132.6928 427,-88.2193 350.341,-16.6297 266.8992,-15.8245 191,-88.2193 121.2139,-154.7832 246.441,-955.2193 150,-955.2193"/>
<polygon fill="#000000" stroke="#000000" points="463.2298,-711.9572 468.0821,-719.2659 466.6149,-714.0882 470,-716.2193 470,-716.2193 470,-716.2193 466.6149,-714.0882 471.9179,-713.1727 463.2298,-711.9572 463.2298,-711.9572"/>
<ellipse fill="none" stroke="#000000" cx="460.5218" cy="-710.2524" rx="3.2" ry="3.2"/>
</g>
<!-- SUBJECT_ACCESS_REPORT_CONTACT&#45;&gt;SUBJECT_ACCESS_REPORT -->
<g id="edge6" class="edge">
<title>SUBJECT_ACCESS_REPORT_CONTACT:w&#45;&gt;SUBJECT_ACCESS_REPORT:e</title>
<path fill="none" stroke="#000000" d="M457.7407,-789.7774C405.1624,-863.7154 477.4107,-1455.2193 407,-1455.2193"/>
<polygon fill="#000000" stroke="#000000" points="463.1902,-786.4177 471.8893,-785.2837 466.5951,-784.3185 470,-782.2193 470,-782.2193 470,-782.2193 466.5951,-784.3185 468.1107,-779.1549 463.1902,-786.4177 463.1902,-786.4177"/>
<ellipse fill="none" stroke="#000000" cx="460.4663" cy="-788.0971" rx="3.2" ry="3.2"/>
</g>
<!-- R_STANDARD_REFERENCE_LIST -->
<g id="node5" class="node">
<title>R_STANDARD_REFERENCE_LIST</title>
<g id="a_node5"><a xlink:href="../../tables/R_STANDARD_REFERENCE_LIST.html" xlink:title="R_STANDARD_REFERENCE_LIST" target="_top">
<polygon fill="#ffffff" stroke="transparent" points="199,-98.7193 199,-247.7193 419,-247.7193 419,-98.7193 199,-98.7193"/>
<polygon fill="#f5f5f5" stroke="transparent" points="199,-224.2193 199,-247.2193 419,-247.2193 419,-224.2193 199,-224.2193"/>
<polygon fill="none" stroke="#000000" points="199,-224.2193 199,-247.2193 419,-247.2193 419,-224.2193 199,-224.2193"/>
<text text-anchor="start" x="203.5843" y="-233.3193" font-family="Helvetica,sans-Serif" font-weight="bold" font-size="11.00" fill="#000000">R_STANDARD_REFERENCE_LIST</text>
<text text-anchor="start" x="384.5219" y="-232.3193" font-family="Helvetica,sans-Serif" font-size="11.00" fill="#000000">[table]</text>
<polygon fill="none" stroke="#000000" points="199,-202.2193 199,-224.2193 419,-224.2193 419,-202.2193 199,-202.2193"/>
<image xlink:href="../../images/primaryKeys.png" width="11px" height="12px" preserveAspectRatio="xMinYMin meet" x="204" y="-219.219"/>
<text text-anchor="start" x="226.5558" y="-209.3193" font-family="Helvetica,sans-Serif" font-size="11.00" fill="#000000">STANDARD_REFERENCE_LIST_ID</text>
<polygon fill="none" stroke="#000000" points="199,-180.2193 199,-202.2193 419,-202.2193 419,-180.2193 199,-180.2193"/>
<image xlink:href="../../images/primaryKeys.png" width="11px" height="12px" preserveAspectRatio="xMinYMin meet" x="204" y="-197.219"/>
<text text-anchor="start" x="233" y="-187.3193" font-family="Helvetica,sans-Serif" font-size="11.00" fill="#000000">CODE_VALUE</text>
<polygon fill="none" stroke="#000000" points="199,-158.2193 199,-180.2193 419,-180.2193 419,-158.2193 199,-158.2193"/>
<image xlink:href="../../images/primaryKeys.png" width="11px" height="12px" preserveAspectRatio="xMinYMin meet" x="204" y="-175.219"/>
<text text-anchor="start" x="230.8337" y="-165.3193" font-family="Helvetica,sans-Serif" font-size="11.00" fill="#000000">REFERENCE_DATA_MASTER_ID</text>
<polygon fill="none" stroke="#000000" points="199,-136.2193 199,-158.2193 419,-158.2193 419,-136.2193 199,-136.2193"/>
<image xlink:href="../../images/primaryKeys.png" width="11px" height="12px" preserveAspectRatio="xMinYMin meet" x="204" y="-153.219"/>
<text text-anchor="start" x="233" y="-143.3193" font-family="Helvetica,sans-Serif" font-size="11.00" fill="#000000">TRAINING_SESSION_ID</text>
<polygon fill="none" stroke="#000000" points="199,-117.2193 199,-136.2193 419,-136.2193 419,-117.2193 199,-117.2193"/>
<text text-anchor="start" x="202" y="-123.3193" font-family="Helvetica,sans-Serif" font-size="11.00" fill="#000000">...</text>
<polygon fill="#ffffff" stroke="transparent" points="199,-98.2193 199,-117.2193 270,-117.2193 270,-98.2193 199,-98.2193"/>
<polygon fill="none" stroke="#000000" points="199,-98.2193 199,-117.2193 270,-117.2193 270,-98.2193 199,-98.2193"/>
<text text-anchor="start" x="202" y="-104.3193" font-family="Helvetica,sans-Serif" font-size="11.00" fill="#000000">&lt; 1</text>
<polygon fill="#ffffff" stroke="transparent" points="270,-98.2193 270,-117.2193 360,-117.2193 360,-98.2193 270,-98.2193"/>
<polygon fill="none" stroke="#000000" points="270,-98.2193 270,-117.2193 360,-117.2193 360,-98.2193 270,-98.2193"/>
<text text-anchor="start" x="297.094" y="-104.3193" font-family="Helvetica,sans-Serif" font-size="11.00" fill="#000000">15,391 rows</text>
<polygon fill="#ffffff" stroke="transparent" points="360,-98.2193 360,-117.2193 419,-117.2193 419,-98.2193 360,-98.2193"/>
<polygon fill="none" stroke="#000000" points="360,-98.2193 360,-117.2193 419,-117.2193 419,-98.2193 360,-98.2193"/>
<text text-anchor="start" x="388.1755" y="-104.3193" font-family="Helvetica,sans-Serif" font-size="11.00" fill="#000000">295 &gt;</text>
</a>
</g>
</g>
<!-- SUBJECT_ACCESS_REPORT_CONTACT&#45;&gt;R_STANDARD_REFERENCE_LIST -->
<g id="edge4" class="edge">
<title>SUBJECT_ACCESS_REPORT_CONTACT:w&#45;&gt;R_STANDARD_REFERENCE_LIST:e</title>
<path fill="none" stroke="#000000" d="M455.7019,-735.0028C368.9892,-691.1319 530.8358,-213.2193 419,-213.2193"/>
<polygon fill="#000000" stroke="#000000" points="462.195,-736.4635 469.2099,-741.7315 466.0975,-737.3414 470,-738.2193 470,-738.2193 470,-738.2193 466.0975,-737.3414 470.7901,-734.7071 462.195,-736.4635 462.195,-736.4635"/>
<ellipse fill="none" stroke="#000000" cx="459.0731" cy="-735.7611" rx="3.2" ry="3.2"/>
</g>
</g>
</svg>
