<?xml version="1.0" encoding="UTF-8" standalone="no"?>
<!DOCTYPE svg PUBLIC "-//W3C//DTD SVG 1.1//EN"
 "http://www.w3.org/Graphics/SVG/1.1/DTD/svg11.dtd">
<!-- Generated by graphviz version 2.40.1 (20161225.0304)
 -->
<!-- Title: oneDegreeRelationshipsDiagram Pages: 1 -->
<svg width="770pt" height="1458pt"
 viewBox="0.00 0.00 770.00 1457.65" xmlns="http://www.w3.org/2000/svg" xmlns:xlink="http://www.w3.org/1999/xlink">
<g id="graph0" class="graph" transform="scale(1 1) rotate(0) translate(4 1453.6478)">
<title>oneDegreeRelationshipsDiagram</title>
<polygon fill="#ffffff" stroke="transparent" points="-4,4 -4,-1453.6478 766,-1453.6478 766,4 -4,4"/>
<text text-anchor="middle" x="72.4936" y="-7.3" font-family="Helvetica,sans-Serif" font-size="11.00" fill="#000000">Generated by SchemaSpy</text>
<!-- CONTACT -->
<g id="node1" class="node">
<title>CONTACT</title>
<g id="a_node1"><a xlink:href="../../tables/CONTACT.html" xlink:title="CONTACT" target="_top">
<polygon fill="#ffffff" stroke="transparent" points="205,-268.6478 205,-1275.6478 413,-1275.6478 413,-268.6478 205,-268.6478"/>
<polygon fill="#f5f5f5" stroke="transparent" points="205,-1252.1478 205,-1275.1478 413,-1275.1478 413,-1252.1478 205,-1252.1478"/>
<polygon fill="none" stroke="#000000" points="205,-1252.1478 205,-1275.1478 413,-1275.1478 413,-1252.1478 205,-1252.1478"/>
<text text-anchor="start" x="210" y="-1261.2478" font-family="Helvetica,sans-Serif" font-weight="bold" font-size="11.00" fill="#000000">CONTACT</text>
<text text-anchor="start" x="378.0437" y="-1260.2478" font-family="Helvetica,sans-Serif" font-size="11.00" fill="#000000">[table]</text>
<polygon fill="none" stroke="#000000" points="205,-1230.1478 205,-1252.1478 413,-1252.1478 413,-1230.1478 205,-1230.1478"/>
<image xlink:href="../../images/primaryKeys.png" width="11px" height="12px" preserveAspectRatio="xMinYMin meet" x="210" y="-1247.15"/>
<text text-anchor="start" x="225" y="-1237.2478" font-family="Helvetica,sans-Serif" font-size="11.00" fill="#000000">CONTACT_ID</text>
<polygon fill="none" stroke="#000000" points="205,-1208.1478 205,-1230.1478 413,-1230.1478 413,-1208.1478 205,-1208.1478"/>
<image xlink:href="../../images/primaryKeys.png" width="11px" height="12px" preserveAspectRatio="xMinYMin meet" x="210" y="-1225.15"/>
<text text-anchor="start" x="225" y="-1215.2478" font-family="Helvetica,sans-Serif" font-size="11.00" fill="#000000">LINKED_CONTACT_ID</text>
<polygon fill="none" stroke="#000000" points="205,-1186.1478 205,-1208.1478 413,-1208.1478 413,-1186.1478 205,-1186.1478"/>
<image xlink:href="../../images/primaryKeys.png" width="11px" height="12px" preserveAspectRatio="xMinYMin meet" x="210" y="-1203.15"/>
<text text-anchor="start" x="225" y="-1193.2478" font-family="Helvetica,sans-Serif" font-size="11.00" fill="#000000">CONTACT_DATE</text>
<polygon fill="none" stroke="#000000" points="205,-1164.1478 205,-1186.1478 413,-1186.1478 413,-1164.1478 205,-1164.1478"/>
<image xlink:href="../../images/primaryKeys.png" width="11px" height="12px" preserveAspectRatio="xMinYMin meet" x="210" y="-1181.15"/>
<text text-anchor="start" x="225" y="-1171.2478" font-family="Helvetica,sans-Serif" font-size="11.00" fill="#000000">OFFENDER_ID</text>
<polygon fill="none" stroke="#000000" points="205,-1142.1478 205,-1164.1478 413,-1164.1478 413,-1142.1478 205,-1142.1478"/>
<image xlink:href="../../images/primaryKeys.png" width="11px" height="12px" preserveAspectRatio="xMinYMin meet" x="210" y="-1159.15"/>
<text text-anchor="start" x="225" y="-1149.2478" font-family="Helvetica,sans-Serif" font-size="11.00" fill="#000000">CONTACT_START_TIME</text>
<polygon fill="none" stroke="#000000" points="205,-1120.1478 205,-1142.1478 413,-1142.1478 413,-1120.1478 205,-1120.1478"/>
<image xlink:href="../../images/primaryKeys.png" width="11px" height="12px" preserveAspectRatio="xMinYMin meet" x="210" y="-1137.15"/>
<text text-anchor="start" x="225" y="-1127.2478" font-family="Helvetica,sans-Serif" font-size="11.00" fill="#000000">CONTACT_END_TIME</text>
<polygon fill="none" stroke="#000000" points="205,-1098.1478 205,-1120.1478 413,-1120.1478 413,-1098.1478 205,-1098.1478"/>
<image xlink:href="../../images/primaryKeys.png" width="11px" height="12px" preserveAspectRatio="xMinYMin meet" x="210" y="-1115.15"/>
<text text-anchor="start" x="225" y="-1105.2478" font-family="Helvetica,sans-Serif" font-size="11.00" fill="#000000">RQMNT_ID</text>
<polygon fill="none" stroke="#000000" points="205,-1076.1478 205,-1098.1478 413,-1098.1478 413,-1076.1478 205,-1076.1478"/>
<image xlink:href="../../images/primaryKeys.png" width="11px" height="12px" preserveAspectRatio="xMinYMin meet" x="210" y="-1093.15"/>
<text text-anchor="start" x="225" y="-1083.2478" font-family="Helvetica,sans-Serif" font-size="11.00" fill="#000000">LIC_CONDITION_ID</text>
<polygon fill="none" stroke="#000000" points="205,-1054.1478 205,-1076.1478 413,-1076.1478 413,-1054.1478 205,-1054.1478"/>
<image xlink:href="../../images/primaryKeys.png" width="11px" height="12px" preserveAspectRatio="xMinYMin meet" x="210" y="-1071.15"/>
<text text-anchor="start" x="225" y="-1061.2478" font-family="Helvetica,sans-Serif" font-size="11.00" fill="#000000">PROVIDER_LOCATION_ID</text>
<polygon fill="none" stroke="#000000" points="205,-1032.1478 205,-1054.1478 413,-1054.1478 413,-1032.1478 205,-1032.1478"/>
<image xlink:href="../../images/primaryKeys.png" width="11px" height="12px" preserveAspectRatio="xMinYMin meet" x="210" y="-1049.15"/>
<text text-anchor="start" x="225" y="-1039.2478" font-family="Helvetica,sans-Serif" font-size="11.00" fill="#000000">PROVIDER_EMPLOYEE_ID</text>
<polygon fill="none" stroke="#000000" points="205,-1010.1478 205,-1032.1478 413,-1032.1478 413,-1010.1478 205,-1010.1478"/>
<image xlink:href="../../images/primaryKeys.png" width="11px" height="12px" preserveAspectRatio="xMinYMin meet" x="210" y="-1027.15"/>
<text text-anchor="start" x="225" y="-1017.2478" font-family="Helvetica,sans-Serif" font-size="11.00" fill="#000000">VISOR_CONTACT</text>
<polygon fill="none" stroke="#000000" points="205,-988.1478 205,-1010.1478 413,-1010.1478 413,-988.1478 205,-988.1478"/>
<image xlink:href="../../images/primaryKeys.png" width="11px" height="12px" preserveAspectRatio="xMinYMin meet" x="210" y="-1005.15"/>
<text text-anchor="start" x="225" y="-995.2478" font-family="Helvetica,sans-Serif" font-size="11.00" fill="#000000">STAFF_ID</text>
<polygon fill="none" stroke="#000000" points="205,-966.1478 205,-988.1478 413,-988.1478 413,-966.1478 205,-966.1478"/>
<image xlink:href="../../images/primaryKeys.png" width="11px" height="12px" preserveAspectRatio="xMinYMin meet" x="210" y="-983.148"/>
<text text-anchor="start" x="225" y="-973.2478" font-family="Helvetica,sans-Serif" font-size="11.00" fill="#000000">TEAM_ID</text>
<polygon fill="none" stroke="#000000" points="205,-944.1478 205,-966.1478 413,-966.1478 413,-944.1478 205,-944.1478"/>
<image xlink:href="../../images/primaryKeys.png" width="11px" height="12px" preserveAspectRatio="xMinYMin meet" x="210" y="-961.148"/>
<text text-anchor="start" x="225" y="-951.2478" font-family="Helvetica,sans-Serif" font-size="11.00" fill="#000000">SOFT_DELETED</text>
<polygon fill="none" stroke="#000000" points="205,-922.1478 205,-944.1478 413,-944.1478 413,-922.1478 205,-922.1478"/>
<image xlink:href="../../images/primaryKeys.png" width="11px" height="12px" preserveAspectRatio="xMinYMin meet" x="210" y="-939.148"/>
<text text-anchor="start" x="225" y="-929.2478" font-family="Helvetica,sans-Serif" font-size="11.00" fill="#000000">VISOR_EXPORTED</text>
<polygon fill="none" stroke="#000000" points="205,-900.1478 205,-922.1478 413,-922.1478 413,-900.1478 205,-900.1478"/>
<image xlink:href="../../images/primaryKeys.png" width="11px" height="12px" preserveAspectRatio="xMinYMin meet" x="210" y="-917.148"/>
<text text-anchor="start" x="225" y="-907.2478" font-family="Helvetica,sans-Serif" font-size="11.00" fill="#000000">PARTITION_AREA_ID</text>
<polygon fill="none" stroke="#000000" points="205,-878.1478 205,-900.1478 413,-900.1478 413,-878.1478 205,-878.1478"/>
<image xlink:href="../../images/primaryKeys.png" width="11px" height="12px" preserveAspectRatio="xMinYMin meet" x="210" y="-895.148"/>
<text text-anchor="start" x="225" y="-885.2478" font-family="Helvetica,sans-Serif" font-size="11.00" fill="#000000">OFFICE_LOCATION_ID</text>
<polygon fill="none" stroke="#000000" points="205,-856.1478 205,-878.1478 413,-878.1478 413,-856.1478 205,-856.1478"/>
<image xlink:href="../../images/primaryKeys.png" width="11px" height="12px" preserveAspectRatio="xMinYMin meet" x="210" y="-873.148"/>
<text text-anchor="start" x="225" y="-863.2478" font-family="Helvetica,sans-Serif" font-size="11.00" fill="#000000">ROW_VERSION</text>
<polygon fill="none" stroke="#000000" points="205,-834.1478 205,-856.1478 413,-856.1478 413,-834.1478 205,-834.1478"/>
<image xlink:href="../../images/primaryKeys.png" width="11px" height="12px" preserveAspectRatio="xMinYMin meet" x="210" y="-851.148"/>
<text text-anchor="start" x="225" y="-841.2478" font-family="Helvetica,sans-Serif" font-size="11.00" fill="#000000">ALERT_ACTIVE</text>
<polygon fill="none" stroke="#000000" points="205,-812.1478 205,-834.1478 413,-834.1478 413,-812.1478 205,-812.1478"/>
<image xlink:href="../../images/primaryKeys.png" width="11px" height="12px" preserveAspectRatio="xMinYMin meet" x="210" y="-829.148"/>
<text text-anchor="start" x="225" y="-819.2478" font-family="Helvetica,sans-Serif" font-size="11.00" fill="#000000">ATTENDED</text>
<polygon fill="none" stroke="#000000" points="205,-790.1478 205,-812.1478 413,-812.1478 413,-790.1478 205,-790.1478"/>
<image xlink:href="../../images/primaryKeys.png" width="11px" height="12px" preserveAspectRatio="xMinYMin meet" x="210" y="-807.148"/>
<text text-anchor="start" x="225" y="-797.2478" font-family="Helvetica,sans-Serif" font-size="11.00" fill="#000000">CREATED_DATETIME</text>
<polygon fill="none" stroke="#000000" points="205,-768.1478 205,-790.1478 413,-790.1478 413,-768.1478 205,-768.1478"/>
<image xlink:href="../../images/primaryKeys.png" width="11px" height="12px" preserveAspectRatio="xMinYMin meet" x="210" y="-785.148"/>
<text text-anchor="start" x="225" y="-775.2478" font-family="Helvetica,sans-Serif" font-size="11.00" fill="#000000">COMPLIED</text>
<polygon fill="none" stroke="#000000" points="205,-746.1478 205,-768.1478 413,-768.1478 413,-746.1478 205,-746.1478"/>
<image xlink:href="../../images/primaryKeys.png" width="11px" height="12px" preserveAspectRatio="xMinYMin meet" x="210" y="-763.148"/>
<text text-anchor="start" x="225" y="-753.2478" font-family="Helvetica,sans-Serif" font-size="11.00" fill="#000000">SENSITIVE</text>
<polygon fill="none" stroke="#000000" points="205,-724.1478 205,-746.1478 413,-746.1478 413,-724.1478 205,-724.1478"/>
<image xlink:href="../../images/primaryKeys.png" width="11px" height="12px" preserveAspectRatio="xMinYMin meet" x="210" y="-741.148"/>
<text text-anchor="start" x="225" y="-731.2478" font-family="Helvetica,sans-Serif" font-size="11.00" fill="#000000">EVENT_ID</text>
<polygon fill="none" stroke="#000000" points="205,-702.1478 205,-724.1478 413,-724.1478 413,-702.1478 205,-702.1478"/>
<image xlink:href="../../images/primaryKeys.png" width="11px" height="12px" preserveAspectRatio="xMinYMin meet" x="210" y="-719.148"/>
<text text-anchor="start" x="225" y="-709.2478" font-family="Helvetica,sans-Serif" font-size="11.00" fill="#000000">CONTACT_TYPE_ID</text>
<polygon fill="none" stroke="#000000" points="205,-680.1478 205,-702.1478 413,-702.1478 413,-680.1478 205,-680.1478"/>
<image xlink:href="../../images/primaryKeys.png" width="11px" height="12px" preserveAspectRatio="xMinYMin meet" x="210" y="-697.148"/>
<text text-anchor="start" x="225" y="-687.2478" font-family="Helvetica,sans-Serif" font-size="11.00" fill="#000000">PROVIDER_TEAM_ID</text>
<polygon fill="none" stroke="#000000" points="205,-658.1478 205,-680.1478 413,-680.1478 413,-658.1478 205,-658.1478"/>
<image xlink:href="../../images/primaryKeys.png" width="11px" height="12px" preserveAspectRatio="xMinYMin meet" x="210" y="-675.148"/>
<text text-anchor="start" x="225" y="-665.2478" font-family="Helvetica,sans-Serif" font-size="11.00" fill="#000000">CONTACT_OUTCOME_TYPE_ID</text>
<polygon fill="none" stroke="#000000" points="205,-636.1478 205,-658.1478 413,-658.1478 413,-636.1478 205,-636.1478"/>
<image xlink:href="../../images/primaryKeys.png" width="11px" height="12px" preserveAspectRatio="xMinYMin meet" x="210" y="-653.148"/>
<text text-anchor="start" x="225" y="-643.2478" font-family="Helvetica,sans-Serif" font-size="11.00" fill="#000000">EXPLANATION_ID</text>
<polygon fill="none" stroke="#000000" points="205,-614.1478 205,-636.1478 413,-636.1478 413,-614.1478 205,-614.1478"/>
<image xlink:href="../../images/primaryKeys.png" width="11px" height="12px" preserveAspectRatio="xMinYMin meet" x="210" y="-631.148"/>
<text text-anchor="start" x="225" y="-621.2478" font-family="Helvetica,sans-Serif" font-size="11.00" fill="#000000">TRAINING_SESSION_ID</text>
<polygon fill="none" stroke="#000000" points="205,-592.1478 205,-614.1478 413,-614.1478 413,-592.1478 205,-592.1478"/>
<image xlink:href="../../images/primaryKeys.png" width="11px" height="12px" preserveAspectRatio="xMinYMin meet" x="210" y="-609.148"/>
<text text-anchor="start" x="225" y="-599.2478" font-family="Helvetica,sans-Serif" font-size="11.00" fill="#000000">TRUST_PROVIDER_FLAG</text>
<polygon fill="none" stroke="#000000" points="205,-570.1478 205,-592.1478 413,-592.1478 413,-570.1478 205,-570.1478"/>
<image xlink:href="../../images/primaryKeys.png" width="11px" height="12px" preserveAspectRatio="xMinYMin meet" x="210" y="-587.148"/>
<text text-anchor="start" x="225" y="-577.2478" font-family="Helvetica,sans-Serif" font-size="11.00" fill="#000000">STAFF_EMPLOYEE_ID</text>
<polygon fill="none" stroke="#000000" points="205,-548.1478 205,-570.1478 413,-570.1478 413,-548.1478 205,-548.1478"/>
<image xlink:href="../../images/primaryKeys.png" width="11px" height="12px" preserveAspectRatio="xMinYMin meet" x="210" y="-565.148"/>
<text text-anchor="start" x="225" y="-555.2478" font-family="Helvetica,sans-Serif" font-size="11.00" fill="#000000">PROBATION_AREA_ID</text>
<polygon fill="none" stroke="#000000" points="205,-526.1478 205,-548.1478 413,-548.1478 413,-526.1478 205,-526.1478"/>
<image xlink:href="../../images/primaryKeys.png" width="11px" height="12px" preserveAspectRatio="xMinYMin meet" x="210" y="-543.148"/>
<text text-anchor="start" x="225" y="-533.2478" font-family="Helvetica,sans-Serif" font-size="11.00" fill="#000000">TRUST_PROVIDER_TEAM_ID</text>
<polygon fill="none" stroke="#000000" points="205,-504.1478 205,-526.1478 413,-526.1478 413,-504.1478 205,-504.1478"/>
<image xlink:href="../../images/primaryKeys.png" width="11px" height="12px" preserveAspectRatio="xMinYMin meet" x="210" y="-521.148"/>
<text text-anchor="start" x="225" y="-511.2478" font-family="Helvetica,sans-Serif" font-size="11.00" fill="#000000">ENFORCEMENT</text>
<polygon fill="none" stroke="#000000" points="205,-482.1478 205,-504.1478 413,-504.1478 413,-482.1478 205,-482.1478"/>
<image xlink:href="../../images/primaryKeys.png" width="11px" height="12px" preserveAspectRatio="xMinYMin meet" x="210" y="-499.148"/>
<text text-anchor="start" x="225" y="-489.2478" font-family="Helvetica,sans-Serif" font-size="11.00" fill="#000000">DOCUMENT_LINKED</text>
<polygon fill="none" stroke="#000000" points="205,-460.1478 205,-482.1478 413,-482.1478 413,-460.1478 205,-460.1478"/>
<image xlink:href="../../images/primaryKeys.png" width="11px" height="12px" preserveAspectRatio="xMinYMin meet" x="210" y="-477.148"/>
<text text-anchor="start" x="217.8069" y="-467.2478" font-family="Helvetica,sans-Serif" font-size="11.00" fill="#000000">LATEST_ENFORCEMENT_ACTION_ID</text>
<polygon fill="none" stroke="#000000" points="205,-438.1478 205,-460.1478 413,-460.1478 413,-438.1478 205,-438.1478"/>
<image xlink:href="../../images/primaryKeys.png" width="11px" height="12px" preserveAspectRatio="xMinYMin meet" x="210" y="-455.148"/>
<text text-anchor="start" x="225" y="-445.2478" font-family="Helvetica,sans-Serif" font-size="11.00" fill="#000000">NSI_ID</text>
<polygon fill="none" stroke="#000000" points="205,-416.1478 205,-438.1478 413,-438.1478 413,-416.1478 205,-416.1478"/>
<image xlink:href="../../images/primaryKeys.png" width="11px" height="12px" preserveAspectRatio="xMinYMin meet" x="210" y="-433.148"/>
<text text-anchor="start" x="225" y="-423.2478" font-family="Helvetica,sans-Serif" font-size="11.00" fill="#000000">TABLE_NAME</text>
<polygon fill="none" stroke="#000000" points="205,-394.1478 205,-416.1478 413,-416.1478 413,-394.1478 205,-394.1478"/>
<image xlink:href="../../images/primaryKeys.png" width="11px" height="12px" preserveAspectRatio="xMinYMin meet" x="210" y="-411.148"/>
<text text-anchor="start" x="225" y="-401.2478" font-family="Helvetica,sans-Serif" font-size="11.00" fill="#000000">PRIMARY_KEY_ID</text>
<polygon fill="none" stroke="#000000" points="205,-372.1478 205,-394.1478 413,-394.1478 413,-372.1478 205,-372.1478"/>
<image xlink:href="../../images/primaryKeys.png" width="11px" height="12px" preserveAspectRatio="xMinYMin meet" x="210" y="-389.148"/>
<text text-anchor="start" x="225" y="-379.2478" font-family="Helvetica,sans-Serif" font-size="11.00" fill="#000000">PSS_RQMNT_ID</text>
<polygon fill="none" stroke="#000000" points="205,-350.1478 205,-372.1478 413,-372.1478 413,-350.1478 205,-350.1478"/>
<image xlink:href="../../images/primaryKeys.png" width="11px" height="12px" preserveAspectRatio="xMinYMin meet" x="210" y="-367.148"/>
<text text-anchor="start" x="225" y="-357.2478" font-family="Helvetica,sans-Serif" font-size="11.00" fill="#000000">NOMIS_CASE_NOTE_ID</text>
<polygon fill="none" stroke="#000000" points="205,-328.1478 205,-350.1478 413,-350.1478 413,-328.1478 205,-328.1478"/>
<image xlink:href="../../images/primaryKeys.png" width="11px" height="12px" preserveAspectRatio="xMinYMin meet" x="210" y="-345.148"/>
<text text-anchor="start" x="223.6193" y="-335.2478" font-family="Helvetica,sans-Serif" font-size="11.00" fill="#000000">LINKED_DOCUMENT_CONTACT_ID</text>
<polygon fill="none" stroke="#000000" points="205,-306.1478 205,-328.1478 413,-328.1478 413,-306.1478 205,-306.1478"/>
<image xlink:href="../../images/primaryKeys.png" width="11px" height="12px" preserveAspectRatio="xMinYMin meet" x="210" y="-323.148"/>
<text text-anchor="start" x="225" y="-313.2478" font-family="Helvetica,sans-Serif" font-size="11.00" fill="#000000">RAR_LINKED_CONTACT_ID</text>
<polygon fill="none" stroke="#000000" points="205,-287.1478 205,-306.1478 413,-306.1478 413,-287.1478 205,-287.1478"/>
<text text-anchor="start" x="208" y="-293.2478" font-family="Helvetica,sans-Serif" font-size="11.00" fill="#000000">...</text>
<polygon fill="#ffffff" stroke="transparent" points="205,-268.1478 205,-287.1478 273,-287.1478 273,-268.1478 205,-268.1478"/>
<polygon fill="none" stroke="#000000" points="205,-268.1478 205,-287.1478 273,-287.1478 273,-268.1478 205,-268.1478"/>
<text text-anchor="start" x="208" y="-274.2478" font-family="Helvetica,sans-Serif" font-size="11.00" fill="#000000">&lt; 25</text>
<polygon fill="#ffffff" stroke="transparent" points="273,-268.1478 273,-287.1478 365,-287.1478 365,-268.1478 273,-268.1478"/>
<polygon fill="none" stroke="#000000" points="273,-268.1478 273,-287.1478 365,-287.1478 365,-268.1478 273,-268.1478"/>
<text text-anchor="start" x="295.9791" y="-274.2478" font-family="Helvetica,sans-Serif" font-size="11.00" fill="#000000">165,869 rows</text>
<polygon fill="#ffffff" stroke="transparent" points="365,-268.1478 365,-287.1478 413,-287.1478 413,-268.1478 365,-268.1478"/>
<polygon fill="none" stroke="#000000" points="365,-268.1478 365,-287.1478 413,-287.1478 413,-268.1478 365,-268.1478"/>
<text text-anchor="start" x="388.2904" y="-274.2478" font-family="Helvetica,sans-Serif" font-size="11.00" fill="#000000">14 &gt;</text>
</a>
</g>
</g>
<!-- PARTITION_AREA -->
<g id="node2" class="node">
<title>PARTITION_AREA</title>
<g id="a_node2"><a xlink:href="../../tables/PARTITION_AREA.html" xlink:title="PARTITION_AREA" target="_top">
<polygon fill="#ffffff" stroke="transparent" points="8,-840.6478 8,-945.6478 150,-945.6478 150,-840.6478 8,-840.6478"/>
<polygon fill="#f5f5f5" stroke="transparent" points="8,-922.1478 8,-945.1478 150,-945.1478 150,-922.1478 8,-922.1478"/>
<polygon fill="none" stroke="#000000" points="8,-922.1478 8,-945.1478 150,-945.1478 150,-922.1478 8,-922.1478"/>
<text text-anchor="start" x="13" y="-931.2478" font-family="Helvetica,sans-Serif" font-weight="bold" font-size="11.00" fill="#000000">PARTITION_AREA</text>
<text text-anchor="start" x="115.0437" y="-930.2478" font-family="Helvetica,sans-Serif" font-size="11.00" fill="#000000">[table]</text>
<polygon fill="none" stroke="#000000" points="8,-900.1478 8,-922.1478 150,-922.1478 150,-900.1478 8,-900.1478"/>
<image xlink:href="../../images/primaryKeys.png" width="11px" height="12px" preserveAspectRatio="xMinYMin meet" x="13" y="-917.148"/>
<text text-anchor="start" x="28" y="-907.2478" font-family="Helvetica,sans-Serif" font-size="11.00" fill="#000000">PARTITION_AREA_ID</text>
<polygon fill="none" stroke="#000000" points="8,-878.1478 8,-900.1478 150,-900.1478 150,-878.1478 8,-878.1478"/>
<image xlink:href="../../images/primaryKeys.png" width="11px" height="12px" preserveAspectRatio="xMinYMin meet" x="13" y="-895.148"/>
<text text-anchor="start" x="24.1624" y="-885.2478" font-family="Helvetica,sans-Serif" font-size="11.00" fill="#000000">TRAINING_SESSION_ID</text>
<polygon fill="none" stroke="#000000" points="8,-859.1478 8,-878.1478 150,-878.1478 150,-859.1478 8,-859.1478"/>
<text text-anchor="start" x="11" y="-865.2478" font-family="Helvetica,sans-Serif" font-size="11.00" fill="#000000">...</text>
<polygon fill="#ffffff" stroke="transparent" points="8,-840.1478 8,-859.1478 49,-859.1478 49,-840.1478 8,-840.1478"/>
<polygon fill="none" stroke="#000000" points="8,-840.1478 8,-859.1478 49,-859.1478 49,-840.1478 8,-840.1478"/>
<text text-anchor="start" x="11" y="-846.2478" font-family="Helvetica,sans-Serif" font-size="11.00" fill="#000000"> &#160;</text>
<polygon fill="#ffffff" stroke="transparent" points="49,-840.1478 49,-859.1478 108,-859.1478 108,-840.1478 49,-840.1478"/>
<polygon fill="none" stroke="#000000" points="49,-840.1478 49,-859.1478 108,-859.1478 108,-840.1478 49,-840.1478"/>
<text text-anchor="start" x="66.4956" y="-846.2478" font-family="Helvetica,sans-Serif" font-size="11.00" fill="#000000">44 rows</text>
<polygon fill="#ffffff" stroke="transparent" points="108,-840.1478 108,-859.1478 150,-859.1478 150,-840.1478 108,-840.1478"/>
<polygon fill="none" stroke="#000000" points="108,-840.1478 108,-859.1478 150,-859.1478 150,-840.1478 108,-840.1478"/>
<text text-anchor="start" x="125.2904" y="-846.2478" font-family="Helvetica,sans-Serif" font-size="11.00" fill="#000000">82 &gt;</text>
</a>
</g>
</g>
<!-- CONTACT&#45;&gt;PARTITION_AREA -->
<g id="edge1" class="edge">
<title>CONTACT:w&#45;&gt;PARTITION_AREA:e</title>
<path fill="none" stroke="#000000" d="M190.3617,-911.1478C176.6839,-911.1478 168.7153,-911.1478 150,-911.1478"/>
<polygon fill="#000000" stroke="#000000" points="197,-911.1478 205,-914.7478 201,-911.1478 205,-911.1478 205,-911.1478 205,-911.1478 201,-911.1478 205,-907.5478 197,-911.1478 197,-911.1478"/>
<ellipse fill="none" stroke="#000000" cx="193.8" cy="-911.1478" rx="3.2" ry="3.2"/>
</g>
<!-- SUBJECT_ACCESS_REPORT -->
<g id="node3" class="node">
<title>SUBJECT_ACCESS_REPORT</title>
<g id="a_node3"><a xlink:href="../../tables/SUBJECT_ACCESS_REPORT.html" xlink:title="SUBJECT_ACCESS_REPORT" target="_top">
<polygon fill="#ffffff" stroke="transparent" points="211,-1296.6478 211,-1445.6478 407,-1445.6478 407,-1296.6478 211,-1296.6478"/>
<polygon fill="#f5f5f5" stroke="transparent" points="211,-1422.1478 211,-1445.1478 407,-1445.1478 407,-1422.1478 211,-1422.1478"/>
<polygon fill="none" stroke="#000000" points="211,-1422.1478 211,-1445.1478 407,-1445.1478 407,-1422.1478 211,-1422.1478"/>
<text text-anchor="start" x="215.8025" y="-1431.2478" font-family="Helvetica,sans-Serif" font-weight="bold" font-size="11.00" fill="#000000">SUBJECT_ACCESS_REPORT</text>
<text text-anchor="start" x="372.5219" y="-1430.2478" font-family="Helvetica,sans-Serif" font-size="11.00" fill="#000000">[table]</text>
<polygon fill="none" stroke="#000000" points="211,-1400.1478 211,-1422.1478 407,-1422.1478 407,-1400.1478 211,-1400.1478"/>
<image xlink:href="../../images/primaryKeys.png" width="11px" height="12px" preserveAspectRatio="xMinYMin meet" x="216" y="-1417.15"/>
<text text-anchor="start" x="231.2462" y="-1407.2478" font-family="Helvetica,sans-Serif" font-size="11.00" fill="#000000">SUBJECT_ACCESS_REPORT_ID</text>
<polygon fill="none" stroke="#000000" points="211,-1378.1478 211,-1400.1478 407,-1400.1478 407,-1378.1478 211,-1378.1478"/>
<image xlink:href="../../images/primaryKeys.png" width="11px" height="12px" preserveAspectRatio="xMinYMin meet" x="216" y="-1395.15"/>
<text text-anchor="start" x="238" y="-1385.2478" font-family="Helvetica,sans-Serif" font-size="11.00" fill="#000000">PARTITION_AREA_ID</text>
<polygon fill="none" stroke="#000000" points="211,-1356.1478 211,-1378.1478 407,-1378.1478 407,-1356.1478 211,-1356.1478"/>
<image xlink:href="../../images/primaryKeys.png" width="11px" height="12px" preserveAspectRatio="xMinYMin meet" x="216" y="-1373.15"/>
<text text-anchor="start" x="238" y="-1363.2478" font-family="Helvetica,sans-Serif" font-size="11.00" fill="#000000">OFFENDER_ID</text>
<polygon fill="none" stroke="#000000" points="211,-1334.1478 211,-1356.1478 407,-1356.1478 407,-1334.1478 211,-1334.1478"/>
<image xlink:href="../../images/primaryKeys.png" width="11px" height="12px" preserveAspectRatio="xMinYMin meet" x="216" y="-1351.15"/>
<text text-anchor="start" x="238" y="-1341.2478" font-family="Helvetica,sans-Serif" font-size="11.00" fill="#000000">TRAINING_SESSION_ID</text>
<polygon fill="none" stroke="#000000" points="211,-1315.1478 211,-1334.1478 407,-1334.1478 407,-1315.1478 211,-1315.1478"/>
<text text-anchor="start" x="214" y="-1321.2478" font-family="Helvetica,sans-Serif" font-size="11.00" fill="#000000">...</text>
<polygon fill="#ffffff" stroke="transparent" points="211,-1296.1478 211,-1315.1478 284,-1315.1478 284,-1296.1478 211,-1296.1478"/>
<polygon fill="none" stroke="#000000" points="211,-1296.1478 211,-1315.1478 284,-1315.1478 284,-1296.1478 211,-1296.1478"/>
<text text-anchor="start" x="214" y="-1302.2478" font-family="Helvetica,sans-Serif" font-size="11.00" fill="#000000">&lt; 2</text>
<polygon fill="#ffffff" stroke="transparent" points="284,-1296.1478 284,-1315.1478 360,-1315.1478 360,-1296.1478 284,-1296.1478"/>
<polygon fill="none" stroke="#000000" points="284,-1296.1478 284,-1315.1478 360,-1315.1478 360,-1296.1478 284,-1296.1478"/>
<text text-anchor="start" x="312.3807" y="-1302.2478" font-family="Helvetica,sans-Serif" font-size="11.00" fill="#000000">100 rows</text>
<polygon fill="#ffffff" stroke="transparent" points="360,-1296.1478 360,-1315.1478 407,-1315.1478 407,-1296.1478 360,-1296.1478"/>
<polygon fill="none" stroke="#000000" points="360,-1296.1478 360,-1315.1478 407,-1315.1478 407,-1296.1478 360,-1296.1478"/>
<text text-anchor="start" x="388.4053" y="-1302.2478" font-family="Helvetica,sans-Serif" font-size="11.00" fill="#000000">2 &gt;</text>
</a>
</g>
</g>
<!-- SUBJECT_ACCESS_REPORT&#45;&gt;PARTITION_AREA -->
<g id="edge2" class="edge">
<title>SUBJECT_ACCESS_REPORT:w&#45;&gt;PARTITION_AREA:e</title>
<path fill="none" stroke="#000000" d="M196.6317,-1385.575C118.8013,-1341.8335 251.6458,-911.1478 150,-911.1478"/>
<polygon fill="#000000" stroke="#000000" points="203.2364,-1387.2173 210.1313,-1392.6414 207.1182,-1388.1825 211,-1389.1478 211,-1389.1478 211,-1389.1478 207.1182,-1388.1825 211.8687,-1385.6541 203.2364,-1387.2173 203.2364,-1387.2173"/>
<ellipse fill="none" stroke="#000000" cx="200.131" cy="-1386.4451" rx="3.2" ry="3.2"/>
</g>
<!-- SUBJECT_ACCESS_REPORT_CONTACT -->
<g id="node4" class="node">
<title>SUBJECT_ACCESS_REPORT_CONTACT</title>
<g id="a_node4"><a xlink:href="../../tables/SUBJECT_ACCESS_REPORT_CONTACT.html" xlink:title="SUBJECT_ACCESS_REPORT_CONTACT" target="_top">
<polygon fill="#ffffff" stroke="transparent" points="468,-618.1478 468,-818.1478 754,-818.1478 754,-618.1478 468,-618.1478"/>
<polygon fill="#f5f5f5" stroke="transparent" points="470,-793.1478 470,-816.1478 752,-816.1478 752,-793.1478 470,-793.1478"/>
<polygon fill="none" stroke="#000000" points="470,-793.1478 470,-816.1478 752,-816.1478 752,-793.1478 470,-793.1478"/>
<text text-anchor="start" x="475" y="-802.2478" font-family="Helvetica,sans-Serif" font-weight="bold" font-size="11.00" fill="#000000">SUBJECT_ACCESS_REPORT_CONTACT</text>
<text text-anchor="start" x="717.0437" y="-801.2478" font-family="Helvetica,sans-Serif" font-size="11.00" fill="#000000">[table]</text>
<polygon fill="none" stroke="#000000" points="470,-771.1478 470,-793.1478 691,-793.1478 691,-771.1478 470,-771.1478"/>
<image xlink:href="../../images/primaryKeys.png" width="11px" height="12px" preserveAspectRatio="xMinYMin meet" x="475" y="-788.148"/>
<text text-anchor="start" x="490" y="-778.2478" font-family="Helvetica,sans-Serif" font-size="11.00" fill="#000000">SAR_CONTACT_ID</text>
<polygon fill="none" stroke="#000000" points="691,-771.1478 691,-793.1478 752,-793.1478 752,-771.1478 691,-771.1478"/>
<text text-anchor="start" x="693.6865" y="-778.8478" font-family="Helvetica,sans-Serif" font-size="11.00" fill="#000000">number[38]</text>
<polygon fill="none" stroke="#000000" points="470,-749.1478 470,-771.1478 691,-771.1478 691,-749.1478 470,-749.1478"/>
<image xlink:href="../../images/primaryKeys.png" width="11px" height="12px" preserveAspectRatio="xMinYMin meet" x="475" y="-766.148"/>
<text text-anchor="start" x="490" y="-756.2478" font-family="Helvetica,sans-Serif" font-size="11.00" fill="#000000">SUBJECT_ACCESS_REPORT_ID</text>
<polygon fill="none" stroke="#000000" points="691,-749.1478 691,-771.1478 752,-771.1478 752,-749.1478 691,-749.1478"/>
<text text-anchor="start" x="693.6865" y="-756.8478" font-family="Helvetica,sans-Serif" font-size="11.00" fill="#000000">number[38]</text>
<polygon fill="none" stroke="#000000" points="470,-727.1478 470,-749.1478 691,-749.1478 691,-727.1478 470,-727.1478"/>
<image xlink:href="../../images/primaryKeys.png" width="11px" height="12px" preserveAspectRatio="xMinYMin meet" x="475" y="-744.148"/>
<text text-anchor="start" x="490" y="-734.2478" font-family="Helvetica,sans-Serif" font-size="11.00" fill="#000000">CONTACT_ID</text>
<polygon fill="none" stroke="#000000" points="691,-727.1478 691,-749.1478 752,-749.1478 752,-727.1478 691,-727.1478"/>
<text text-anchor="start" x="693.6865" y="-734.8478" font-family="Helvetica,sans-Serif" font-size="11.00" fill="#000000">number[38]</text>
<polygon fill="none" stroke="#000000" points="470,-705.1478 470,-727.1478 691,-727.1478 691,-705.1478 470,-705.1478"/>
<image xlink:href="../../images/primaryKeys.png" width="11px" height="12px" preserveAspectRatio="xMinYMin meet" x="475" y="-722.148"/>
<text text-anchor="start" x="490" y="-712.2478" font-family="Helvetica,sans-Serif" font-size="11.00" fill="#000000">DPA_SAR_EXCLUSION_REASON_ID</text>
<polygon fill="none" stroke="#000000" points="691,-705.1478 691,-727.1478 752,-727.1478 752,-705.1478 691,-705.1478"/>
<text text-anchor="start" x="693.6865" y="-712.8478" font-family="Helvetica,sans-Serif" font-size="11.00" fill="#000000">number[38]</text>
<polygon fill="none" stroke="#000000" points="470,-683.1478 470,-705.1478 691,-705.1478 691,-683.1478 470,-683.1478"/>
<image xlink:href="../../images/primaryKeys.png" width="11px" height="12px" preserveAspectRatio="xMinYMin meet" x="475" y="-700.148"/>
<text text-anchor="start" x="490" y="-690.2478" font-family="Helvetica,sans-Serif" font-size="11.00" fill="#000000">PARTITION_AREA_ID</text>
<polygon fill="none" stroke="#000000" points="691,-683.1478 691,-705.1478 752,-705.1478 752,-683.1478 691,-683.1478"/>
<text text-anchor="start" x="693.6865" y="-690.8478" font-family="Helvetica,sans-Serif" font-size="11.00" fill="#000000">number[38]</text>
<polygon fill="none" stroke="#000000" points="470,-661.1478 470,-683.1478 691,-683.1478 691,-661.1478 470,-661.1478"/>
<text text-anchor="start" x="490" y="-668.2478" font-family="Helvetica,sans-Serif" font-size="11.00" fill="#000000">ROW_VERSION</text>
<polygon fill="none" stroke="#000000" points="691,-661.1478 691,-683.1478 752,-683.1478 752,-661.1478 691,-661.1478"/>
<text text-anchor="start" x="693.6865" y="-668.8478" font-family="Helvetica,sans-Serif" font-size="11.00" fill="#000000">number[38]</text>
<polygon fill="none" stroke="#000000" points="470,-639.1478 470,-661.1478 691,-661.1478 691,-639.1478 470,-639.1478"/>
<image xlink:href="../../images/primaryKeys.png" width="11px" height="12px" preserveAspectRatio="xMinYMin meet" x="475" y="-656.148"/>
<text text-anchor="start" x="490" y="-646.2478" font-family="Helvetica,sans-Serif" font-size="11.00" fill="#000000">TRAINING_SESSION_ID</text>
<polygon fill="none" stroke="#000000" points="691,-639.1478 691,-661.1478 752,-661.1478 752,-639.1478 691,-639.1478"/>
<text text-anchor="start" x="693.6865" y="-646.8478" font-family="Helvetica,sans-Serif" font-size="11.00" fill="#000000">number[38]</text>
<polygon fill="#ffffff" stroke="transparent" points="470,-620.1478 470,-639.1478 569,-639.1478 569,-620.1478 470,-620.1478"/>
<polygon fill="none" stroke="#000000" points="470,-620.1478 470,-639.1478 569,-639.1478 569,-620.1478 470,-620.1478"/>
<text text-anchor="start" x="473" y="-626.2478" font-family="Helvetica,sans-Serif" font-size="11.00" fill="#000000">&lt; 4</text>
<polygon fill="#ffffff" stroke="transparent" points="569,-620.1478 569,-639.1478 691,-639.1478 691,-620.1478 569,-620.1478"/>
<polygon fill="none" stroke="#000000" points="569,-620.1478 569,-639.1478 691,-639.1478 691,-620.1478 569,-620.1478"/>
<text text-anchor="start" x="649.4956" y="-626.2478" font-family="Helvetica,sans-Serif" font-size="11.00" fill="#000000">18 rows</text>
<polygon fill="#ffffff" stroke="transparent" points="691,-620.1478 691,-639.1478 752,-639.1478 752,-620.1478 691,-620.1478"/>
<polygon fill="none" stroke="#000000" points="691,-620.1478 691,-639.1478 752,-639.1478 752,-620.1478 691,-620.1478"/>
<text text-anchor="start" x="733.4053" y="-626.2478" font-family="Helvetica,sans-Serif" font-size="11.00" fill="#000000">0 &gt;</text>
<polygon fill="none" stroke="#000000" stroke-width="2" points="469,-619.1478 469,-817.1478 753,-817.1478 753,-619.1478 469,-619.1478"/>
</a>
</g>
</g>
<!-- SUBJECT_ACCESS_REPORT_CONTACT&#45;&gt;CONTACT -->
<g id="edge3" class="edge">
<title>SUBJECT_ACCESS_REPORT_CONTACT:w&#45;&gt;CONTACT:e</title>
<path fill="none" stroke="#000000" d="M455.4717,-738.9303C262.725,-760.9698 632.8231,-1241.1478 413,-1241.1478"/>
<polygon fill="#000000" stroke="#000000" points="462.0116,-738.5781 470.1937,-741.7426 466.0058,-738.3629 470,-738.1478 470,-738.1478 470,-738.1478 466.0058,-738.3629 469.8063,-734.553 462.0116,-738.5781 462.0116,-738.5781"/>
<ellipse fill="none" stroke="#000000" cx="458.8162" cy="-738.7503" rx="3.2" ry="3.2"/>
</g>
<!-- SUBJECT_ACCESS_REPORT_CONTACT&#45;&gt;PARTITION_AREA -->
<g id="edge5" class="edge">
<title>SUBJECT_ACCESS_REPORT_CONTACT:w&#45;&gt;PARTITION_AREA:e</title>
<path fill="none" stroke="#000000" d="M457.7663,-686.2156C412.2793,-617.9404 472.919,-130.924 427,-88.1478 350.2525,-16.653 266.9904,-15.8488 191,-88.1478 124.6677,-151.2578 241.5578,-911.1478 150,-911.1478"/>
<polygon fill="#000000" stroke="#000000" points="463.2875,-689.7954 468.0415,-697.1684 466.6437,-691.9716 470,-694.1478 470,-694.1478 470,-694.1478 466.6437,-691.9716 471.9585,-691.1271 463.2875,-689.7954 463.2875,-689.7954"/>
<ellipse fill="none" stroke="#000000" cx="460.6025" cy="-688.0545" rx="3.2" ry="3.2"/>
</g>
<!-- SUBJECT_ACCESS_REPORT_CONTACT&#45;&gt;SUBJECT_ACCESS_REPORT -->
<g id="edge6" class="edge">
<title>SUBJECT_ACCESS_REPORT_CONTACT:w&#45;&gt;SUBJECT_ACCESS_REPORT:e</title>
<path fill="none" stroke="#000000" d="M457.7972,-767.9123C407.2993,-841.3613 474.9874,-1411.1478 407,-1411.1478"/>
<polygon fill="#000000" stroke="#000000" points="463.2505,-764.4424 471.9326,-763.185 466.6252,-762.2951 470,-760.1478 470,-760.1478 470,-760.1478 466.6252,-762.2951 468.0674,-757.1105 463.2505,-764.4424 463.2505,-764.4424"/>
<ellipse fill="none" stroke="#000000" cx="460.5507" cy="-766.1603" rx="3.2" ry="3.2"/>
</g>
<!-- R_STANDARD_REFERENCE_LIST -->
<g id="node5" class="node">
<title>R_STANDARD_REFERENCE_LIST</title>
<g id="a_node5"><a xlink:href="../../tables/R_STANDARD_REFERENCE_LIST.html" xlink:title="R_STANDARD_REFERENCE_LIST" target="_top">
<polygon fill="#ffffff" stroke="transparent" points="199,-98.6478 199,-247.6478 419,-247.6478 419,-98.6478 199,-98.6478"/>
<polygon fill="#f5f5f5" stroke="transparent" points="199,-224.1478 199,-247.1478 419,-247.1478 419,-224.1478 199,-224.1478"/>
<polygon fill="none" stroke="#000000" points="199,-224.1478 199,-247.1478 419,-247.1478 419,-224.1478 199,-224.1478"/>
<text text-anchor="start" x="203.5843" y="-233.2478" font-family="Helvetica,sans-Serif" font-weight="bold" font-size="11.00" fill="#000000">R_STANDARD_REFERENCE_LIST</text>
<text text-anchor="start" x="384.5219" y="-232.2478" font-family="Helvetica,sans-Serif" font-size="11.00" fill="#000000">[table]</text>
<polygon fill="none" stroke="#000000" points="199,-202.1478 199,-224.1478 419,-224.1478 419,-202.1478 199,-202.1478"/>
<image xlink:href="../../images/primaryKeys.png" width="11px" height="12px" preserveAspectRatio="xMinYMin meet" x="204" y="-219.148"/>
<text text-anchor="start" x="226.5558" y="-209.2478" font-family="Helvetica,sans-Serif" font-size="11.00" fill="#000000">STANDARD_REFERENCE_LIST_ID</text>
<polygon fill="none" stroke="#000000" points="199,-180.1478 199,-202.1478 419,-202.1478 419,-180.1478 199,-180.1478"/>
<image xlink:href="../../images/primaryKeys.png" width="11px" height="12px" preserveAspectRatio="xMinYMin meet" x="204" y="-197.148"/>
<text text-anchor="start" x="233" y="-187.2478" font-family="Helvetica,sans-Serif" font-size="11.00" fill="#000000">CODE_VALUE</text>
<polygon fill="none" stroke="#000000" points="199,-158.1478 199,-180.1478 419,-180.1478 419,-158.1478 199,-158.1478"/>
<image xlink:href="../../images/primaryKeys.png" width="11px" height="12px" preserveAspectRatio="xMinYMin meet" x="204" y="-175.148"/>
<text text-anchor="start" x="230.8337" y="-165.2478" font-family="Helvetica,sans-Serif" font-size="11.00" fill="#000000">REFERENCE_DATA_MASTER_ID</text>
<polygon fill="none" stroke="#000000" points="199,-136.1478 199,-158.1478 419,-158.1478 419,-136.1478 199,-136.1478"/>
<image xlink:href="../../images/primaryKeys.png" width="11px" height="12px" preserveAspectRatio="xMinYMin meet" x="204" y="-153.148"/>
<text text-anchor="start" x="233" y="-143.2478" font-family="Helvetica,sans-Serif" font-size="11.00" fill="#000000">TRAINING_SESSION_ID</text>
<polygon fill="none" stroke="#000000" points="199,-117.1478 199,-136.1478 419,-136.1478 419,-117.1478 199,-117.1478"/>
<text text-anchor="start" x="202" y="-123.2478" font-family="Helvetica,sans-Serif" font-size="11.00" fill="#000000">...</text>
<polygon fill="#ffffff" stroke="transparent" points="199,-98.1478 199,-117.1478 270,-117.1478 270,-98.1478 199,-98.1478"/>
<polygon fill="none" stroke="#000000" points="199,-98.1478 199,-117.1478 270,-117.1478 270,-98.1478 199,-98.1478"/>
<text text-anchor="start" x="202" y="-104.2478" font-family="Helvetica,sans-Serif" font-size="11.00" fill="#000000">&lt; 1</text>
<polygon fill="#ffffff" stroke="transparent" points="270,-98.1478 270,-117.1478 360,-117.1478 360,-98.1478 270,-98.1478"/>
<polygon fill="none" stroke="#000000" points="270,-98.1478 270,-117.1478 360,-117.1478 360,-98.1478 270,-98.1478"/>
<text text-anchor="start" x="297.094" y="-104.2478" font-family="Helvetica,sans-Serif" font-size="11.00" fill="#000000">15,391 rows</text>
<polygon fill="#ffffff" stroke="transparent" points="360,-98.1478 360,-117.1478 419,-117.1478 419,-98.1478 360,-98.1478"/>
<polygon fill="none" stroke="#000000" points="360,-98.1478 360,-117.1478 419,-117.1478 419,-98.1478 360,-98.1478"/>
<text text-anchor="start" x="388.1755" y="-104.2478" font-family="Helvetica,sans-Serif" font-size="11.00" fill="#000000">297 &gt;</text>
</a>
</g>
</g>
<!-- SUBJECT_ACCESS_REPORT_CONTACT&#45;&gt;R_STANDARD_REFERENCE_LIST -->
<g id="edge4" class="edge">
<title>SUBJECT_ACCESS_REPORT_CONTACT:w&#45;&gt;R_STANDARD_REFERENCE_LIST:e</title>
<path fill="none" stroke="#000000" d="M455.5218,-712.6671C373.9302,-668.2259 525.865,-213.1478 419,-213.1478"/>
<polygon fill="#000000" stroke="#000000" points="462.2216,-714.2778 469.1585,-719.648 466.1108,-715.2128 470,-716.1478 470,-716.1478 470,-716.1478 466.1108,-715.2128 470.8415,-712.6475 462.2216,-714.2778 462.2216,-714.2778"/>
<ellipse fill="none" stroke="#000000" cx="459.1103" cy="-713.5298" rx="3.2" ry="3.2"/>
</g>
</g>
</svg>
