<?xml version="1.0" encoding="UTF-8" standalone="no"?>
<!DOCTYPE svg PUBLIC "-//W3C//DTD SVG 1.1//EN"
 "http://www.w3.org/Graphics/SVG/1.1/DTD/svg11.dtd">
<!-- Generated by graphviz version 2.40.1 (20161225.0304)
 -->
<!-- Title: oneDegreeRelationshipsDiagram Pages: 1 -->
<svg width="1062pt" height="1115pt"
 viewBox="0.00 0.00 1062.00 1115.18" xmlns="http://www.w3.org/2000/svg" xmlns:xlink="http://www.w3.org/1999/xlink">
<g id="graph0" class="graph" transform="scale(1 1) rotate(0) translate(4 1111.178)">
<title>oneDegreeRelationshipsDiagram</title>
<polygon fill="#ffffff" stroke="transparent" points="-4,4 -4,-1111.178 1058,-1111.178 1058,4 -4,4"/>
<text text-anchor="middle" x="72.4936" y="-7.3" font-family="Helvetica,sans-Serif" font-size="11.00" fill="#000000">Generated by SchemaSpy</text>
<!-- OFFENDER -->
<g id="node1" class="node">
<title>OFFENDER</title>
<g id="a_node1"><a xlink:href="../../tables/OFFENDER.html" xlink:title="OFFENDER" target="_top">
<polygon fill="#ffffff" stroke="transparent" points="199,-85.678 199,-938.678 417,-938.678 417,-85.678 199,-85.678"/>
<polygon fill="#f5f5f5" stroke="transparent" points="199,-915.178 199,-938.178 417,-938.178 417,-915.178 199,-915.178"/>
<polygon fill="none" stroke="#000000" points="199,-915.178 199,-938.178 417,-938.178 417,-915.178 199,-915.178"/>
<text text-anchor="start" x="204" y="-924.278" font-family="Helvetica,sans-Serif" font-weight="bold" font-size="11.00" fill="#000000">OFFENDER</text>
<text text-anchor="start" x="382.0437" y="-923.278" font-family="Helvetica,sans-Serif" font-size="11.00" fill="#000000">[table]</text>
<polygon fill="none" stroke="#000000" points="199,-893.178 199,-915.178 417,-915.178 417,-893.178 199,-893.178"/>
<image xlink:href="../../images/primaryKeys.png" width="11px" height="12px" preserveAspectRatio="xMinYMin meet" x="204" y="-910.178"/>
<text text-anchor="start" x="219" y="-900.278" font-family="Helvetica,sans-Serif" font-size="11.00" fill="#000000">OFFENDER_ID</text>
<polygon fill="none" stroke="#000000" points="199,-871.178 199,-893.178 417,-893.178 417,-871.178 199,-871.178"/>
<image xlink:href="../../images/primaryKeys.png" width="11px" height="12px" preserveAspectRatio="xMinYMin meet" x="204" y="-888.178"/>
<text text-anchor="start" x="219" y="-878.278" font-family="Helvetica,sans-Serif" font-size="11.00" fill="#000000">FIRST_NAME</text>
<polygon fill="none" stroke="#000000" points="199,-849.178 199,-871.178 417,-871.178 417,-849.178 199,-849.178"/>
<image xlink:href="../../images/primaryKeys.png" width="11px" height="12px" preserveAspectRatio="xMinYMin meet" x="204" y="-866.178"/>
<text text-anchor="start" x="219" y="-856.278" font-family="Helvetica,sans-Serif" font-size="11.00" fill="#000000">CRN</text>
<polygon fill="none" stroke="#000000" points="199,-827.178 199,-849.178 417,-849.178 417,-827.178 199,-827.178"/>
<image xlink:href="../../images/primaryKeys.png" width="11px" height="12px" preserveAspectRatio="xMinYMin meet" x="204" y="-844.178"/>
<text text-anchor="start" x="219" y="-834.278" font-family="Helvetica,sans-Serif" font-size="11.00" fill="#000000">SECOND_NAME</text>
<polygon fill="none" stroke="#000000" points="199,-805.178 199,-827.178 417,-827.178 417,-805.178 199,-805.178"/>
<image xlink:href="../../images/primaryKeys.png" width="11px" height="12px" preserveAspectRatio="xMinYMin meet" x="204" y="-822.178"/>
<text text-anchor="start" x="219" y="-812.278" font-family="Helvetica,sans-Serif" font-size="11.00" fill="#000000">PNC_NUMBER</text>
<polygon fill="none" stroke="#000000" points="199,-783.178 199,-805.178 417,-805.178 417,-783.178 199,-783.178"/>
<image xlink:href="../../images/primaryKeys.png" width="11px" height="12px" preserveAspectRatio="xMinYMin meet" x="204" y="-800.178"/>
<text text-anchor="start" x="219" y="-790.278" font-family="Helvetica,sans-Serif" font-size="11.00" fill="#000000">THIRD_NAME</text>
<polygon fill="none" stroke="#000000" points="199,-761.178 199,-783.178 417,-783.178 417,-761.178 199,-761.178"/>
<image xlink:href="../../images/primaryKeys.png" width="11px" height="12px" preserveAspectRatio="xMinYMin meet" x="204" y="-778.178"/>
<text text-anchor="start" x="219" y="-768.278" font-family="Helvetica,sans-Serif" font-size="11.00" fill="#000000">CRO_NUMBER</text>
<polygon fill="none" stroke="#000000" points="199,-739.178 199,-761.178 417,-761.178 417,-739.178 199,-739.178"/>
<image xlink:href="../../images/primaryKeys.png" width="11px" height="12px" preserveAspectRatio="xMinYMin meet" x="204" y="-756.178"/>
<text text-anchor="start" x="219" y="-746.278" font-family="Helvetica,sans-Serif" font-size="11.00" fill="#000000">SURNAME</text>
<polygon fill="none" stroke="#000000" points="199,-717.178 199,-739.178 417,-739.178 417,-717.178 199,-717.178"/>
<image xlink:href="../../images/primaryKeys.png" width="11px" height="12px" preserveAspectRatio="xMinYMin meet" x="204" y="-734.178"/>
<text text-anchor="start" x="219" y="-724.278" font-family="Helvetica,sans-Serif" font-size="11.00" fill="#000000">NOMS_NUMBER</text>
<polygon fill="none" stroke="#000000" points="199,-695.178 199,-717.178 417,-717.178 417,-695.178 199,-695.178"/>
<image xlink:href="../../images/primaryKeys.png" width="11px" height="12px" preserveAspectRatio="xMinYMin meet" x="204" y="-712.178"/>
<text text-anchor="start" x="219" y="-702.278" font-family="Helvetica,sans-Serif" font-size="11.00" fill="#000000">DATE_OF_BIRTH_DATE</text>
<polygon fill="none" stroke="#000000" points="199,-673.178 199,-695.178 417,-695.178 417,-673.178 199,-673.178"/>
<image xlink:href="../../images/primaryKeys.png" width="11px" height="12px" preserveAspectRatio="xMinYMin meet" x="204" y="-690.178"/>
<text text-anchor="start" x="219" y="-680.278" font-family="Helvetica,sans-Serif" font-size="11.00" fill="#000000">NI_NUMBER</text>
<polygon fill="none" stroke="#000000" points="199,-651.178 199,-673.178 417,-673.178 417,-651.178 199,-651.178"/>
<image xlink:href="../../images/primaryKeys.png" width="11px" height="12px" preserveAspectRatio="xMinYMin meet" x="204" y="-668.178"/>
<text text-anchor="start" x="219" y="-658.278" font-family="Helvetica,sans-Serif" font-size="11.00" fill="#000000">IMMIGRATION_NUMBER</text>
<polygon fill="none" stroke="#000000" points="199,-629.178 199,-651.178 417,-651.178 417,-629.178 199,-629.178"/>
<image xlink:href="../../images/primaryKeys.png" width="11px" height="12px" preserveAspectRatio="xMinYMin meet" x="204" y="-646.178"/>
<text text-anchor="start" x="219" y="-636.278" font-family="Helvetica,sans-Serif" font-size="11.00" fill="#000000">PARTITION_AREA_ID</text>
<polygon fill="none" stroke="#000000" points="199,-607.178 199,-629.178 417,-629.178 417,-607.178 199,-607.178"/>
<image xlink:href="../../images/primaryKeys.png" width="11px" height="12px" preserveAspectRatio="xMinYMin meet" x="204" y="-624.178"/>
<text text-anchor="start" x="219" y="-614.278" font-family="Helvetica,sans-Serif" font-size="11.00" fill="#000000">SOFT_DELETED</text>
<polygon fill="none" stroke="#000000" points="199,-585.178 199,-607.178 417,-607.178 417,-585.178 199,-585.178"/>
<image xlink:href="../../images/primaryKeys.png" width="11px" height="12px" preserveAspectRatio="xMinYMin meet" x="204" y="-602.178"/>
<text text-anchor="start" x="219" y="-592.278" font-family="Helvetica,sans-Serif" font-size="11.00" fill="#000000">TITLE_ID</text>
<polygon fill="none" stroke="#000000" points="199,-563.178 199,-585.178 417,-585.178 417,-563.178 199,-563.178"/>
<image xlink:href="../../images/primaryKeys.png" width="11px" height="12px" preserveAspectRatio="xMinYMin meet" x="204" y="-580.178"/>
<text text-anchor="start" x="219" y="-570.278" font-family="Helvetica,sans-Serif" font-size="11.00" fill="#000000">GENDER_ID</text>
<polygon fill="none" stroke="#000000" points="199,-541.178 199,-563.178 417,-563.178 417,-541.178 199,-541.178"/>
<image xlink:href="../../images/primaryKeys.png" width="11px" height="12px" preserveAspectRatio="xMinYMin meet" x="204" y="-558.178"/>
<text text-anchor="start" x="219" y="-548.278" font-family="Helvetica,sans-Serif" font-size="11.00" fill="#000000">ETHNICITY_ID</text>
<polygon fill="none" stroke="#000000" points="199,-519.178 199,-541.178 417,-541.178 417,-519.178 199,-519.178"/>
<image xlink:href="../../images/primaryKeys.png" width="11px" height="12px" preserveAspectRatio="xMinYMin meet" x="204" y="-536.178"/>
<text text-anchor="start" x="219" y="-526.278" font-family="Helvetica,sans-Serif" font-size="11.00" fill="#000000">NATIONALITY_ID</text>
<polygon fill="none" stroke="#000000" points="199,-497.178 199,-519.178 417,-519.178 417,-497.178 199,-497.178"/>
<image xlink:href="../../images/primaryKeys.png" width="11px" height="12px" preserveAspectRatio="xMinYMin meet" x="204" y="-514.178"/>
<text text-anchor="start" x="219" y="-504.278" font-family="Helvetica,sans-Serif" font-size="11.00" fill="#000000">IMMIGRATION_STATUS_ID</text>
<polygon fill="none" stroke="#000000" points="199,-475.178 199,-497.178 417,-497.178 417,-475.178 199,-475.178"/>
<image xlink:href="../../images/primaryKeys.png" width="11px" height="12px" preserveAspectRatio="xMinYMin meet" x="204" y="-492.178"/>
<text text-anchor="start" x="219" y="-482.278" font-family="Helvetica,sans-Serif" font-size="11.00" fill="#000000">LANGUAGE_ID</text>
<polygon fill="none" stroke="#000000" points="199,-453.178 199,-475.178 417,-475.178 417,-453.178 199,-453.178"/>
<image xlink:href="../../images/primaryKeys.png" width="11px" height="12px" preserveAspectRatio="xMinYMin meet" x="204" y="-470.178"/>
<text text-anchor="start" x="219" y="-460.278" font-family="Helvetica,sans-Serif" font-size="11.00" fill="#000000">RELIGION_ID</text>
<polygon fill="none" stroke="#000000" points="199,-431.178 199,-453.178 417,-453.178 417,-431.178 199,-431.178"/>
<image xlink:href="../../images/primaryKeys.png" width="11px" height="12px" preserveAspectRatio="xMinYMin meet" x="204" y="-448.178"/>
<text text-anchor="start" x="219" y="-438.278" font-family="Helvetica,sans-Serif" font-size="11.00" fill="#000000">SURNAME_SOUNDEX</text>
<polygon fill="none" stroke="#000000" points="199,-409.178 199,-431.178 417,-431.178 417,-409.178 199,-409.178"/>
<image xlink:href="../../images/primaryKeys.png" width="11px" height="12px" preserveAspectRatio="xMinYMin meet" x="204" y="-426.178"/>
<text text-anchor="start" x="219" y="-416.278" font-family="Helvetica,sans-Serif" font-size="11.00" fill="#000000">SECOND_NATIONALITY_ID</text>
<polygon fill="none" stroke="#000000" points="199,-387.178 199,-409.178 417,-409.178 417,-387.178 199,-387.178"/>
<image xlink:href="../../images/primaryKeys.png" width="11px" height="12px" preserveAspectRatio="xMinYMin meet" x="204" y="-404.178"/>
<text text-anchor="start" x="219" y="-394.278" font-family="Helvetica,sans-Serif" font-size="11.00" fill="#000000">SEXUAL_ORIENTATION_ID</text>
<polygon fill="none" stroke="#000000" points="199,-365.178 199,-387.178 417,-387.178 417,-365.178 199,-365.178"/>
<image xlink:href="../../images/primaryKeys.png" width="11px" height="12px" preserveAspectRatio="xMinYMin meet" x="204" y="-382.178"/>
<text text-anchor="start" x="219" y="-372.278" font-family="Helvetica,sans-Serif" font-size="11.00" fill="#000000">CURRENT_EXCLUSION</text>
<polygon fill="none" stroke="#000000" points="199,-343.178 199,-365.178 417,-365.178 417,-343.178 199,-343.178"/>
<image xlink:href="../../images/primaryKeys.png" width="11px" height="12px" preserveAspectRatio="xMinYMin meet" x="204" y="-360.178"/>
<text text-anchor="start" x="219" y="-350.278" font-family="Helvetica,sans-Serif" font-size="11.00" fill="#000000">TRAINING_SESSION_ID</text>
<polygon fill="none" stroke="#000000" points="199,-321.178 199,-343.178 417,-343.178 417,-321.178 199,-321.178"/>
<image xlink:href="../../images/primaryKeys.png" width="11px" height="12px" preserveAspectRatio="xMinYMin meet" x="204" y="-338.178"/>
<text text-anchor="start" x="219" y="-328.278" font-family="Helvetica,sans-Serif" font-size="11.00" fill="#000000">CURRENT_DISPOSAL</text>
<polygon fill="none" stroke="#000000" points="199,-299.178 199,-321.178 417,-321.178 417,-299.178 199,-299.178"/>
<image xlink:href="../../images/primaryKeys.png" width="11px" height="12px" preserveAspectRatio="xMinYMin meet" x="204" y="-316.178"/>
<text text-anchor="start" x="218.6434" y="-306.278" font-family="Helvetica,sans-Serif" font-size="11.00" fill="#000000">CURRENT_HIGHEST_RISK_COLOUR</text>
<polygon fill="none" stroke="#000000" points="199,-277.178 199,-299.178 417,-299.178 417,-277.178 199,-277.178"/>
<image xlink:href="../../images/primaryKeys.png" width="11px" height="12px" preserveAspectRatio="xMinYMin meet" x="204" y="-294.178"/>
<text text-anchor="start" x="219" y="-284.278" font-family="Helvetica,sans-Serif" font-size="11.00" fill="#000000">CURRENT_RESTRICTION</text>
<polygon fill="none" stroke="#000000" points="199,-255.178 199,-277.178 417,-277.178 417,-255.178 199,-255.178"/>
<image xlink:href="../../images/primaryKeys.png" width="11px" height="12px" preserveAspectRatio="xMinYMin meet" x="204" y="-272.178"/>
<text text-anchor="start" x="219" y="-262.278" font-family="Helvetica,sans-Serif" font-size="11.00" fill="#000000">INSTITUTION_ID</text>
<polygon fill="none" stroke="#000000" points="199,-233.178 199,-255.178 417,-255.178 417,-233.178 199,-233.178"/>
<image xlink:href="../../images/primaryKeys.png" width="11px" height="12px" preserveAspectRatio="xMinYMin meet" x="204" y="-250.178"/>
<text text-anchor="start" x="219" y="-240.278" font-family="Helvetica,sans-Serif" font-size="11.00" fill="#000000">ESTABLISHMENT</text>
<polygon fill="none" stroke="#000000" points="199,-211.178 199,-233.178 417,-233.178 417,-211.178 199,-211.178"/>
<image xlink:href="../../images/primaryKeys.png" width="11px" height="12px" preserveAspectRatio="xMinYMin meet" x="204" y="-228.178"/>
<text text-anchor="start" x="219" y="-218.278" font-family="Helvetica,sans-Serif" font-size="11.00" fill="#000000">CURRENT_TIER</text>
<polygon fill="none" stroke="#000000" points="199,-189.178 199,-211.178 417,-211.178 417,-189.178 199,-189.178"/>
<image xlink:href="../../images/primaryKeys.png" width="11px" height="12px" preserveAspectRatio="xMinYMin meet" x="204" y="-206.178"/>
<text text-anchor="start" x="219" y="-196.278" font-family="Helvetica,sans-Serif" font-size="11.00" fill="#000000">OM_ALLOCATION_DECISION_ID</text>
<polygon fill="none" stroke="#000000" points="199,-167.178 199,-189.178 417,-189.178 417,-167.178 199,-167.178"/>
<image xlink:href="../../images/primaryKeys.png" width="11px" height="12px" preserveAspectRatio="xMinYMin meet" x="204" y="-184.178"/>
<text text-anchor="start" x="219" y="-174.278" font-family="Helvetica,sans-Serif" font-size="11.00" fill="#000000">TRANSGENDER_PROCESS_ID</text>
<polygon fill="none" stroke="#000000" points="199,-145.178 199,-167.178 417,-167.178 417,-145.178 199,-145.178"/>
<image xlink:href="../../images/primaryKeys.png" width="11px" height="12px" preserveAspectRatio="xMinYMin meet" x="204" y="-162.178"/>
<text text-anchor="start" x="219" y="-152.278" font-family="Helvetica,sans-Serif" font-size="11.00" fill="#000000">PREFERRED_NAME</text>
<polygon fill="none" stroke="#000000" points="199,-123.178 199,-145.178 417,-145.178 417,-123.178 199,-123.178"/>
<image xlink:href="../../images/primaryKeys.png" width="11px" height="12px" preserveAspectRatio="xMinYMin meet" x="204" y="-140.178"/>
<text text-anchor="start" x="219" y="-130.278" font-family="Helvetica,sans-Serif" font-size="11.00" fill="#000000">GENDER_IDENTITY_ID</text>
<polygon fill="none" stroke="#000000" points="199,-104.178 199,-123.178 417,-123.178 417,-104.178 199,-104.178"/>
<text text-anchor="start" x="202" y="-110.278" font-family="Helvetica,sans-Serif" font-size="11.00" fill="#000000">...</text>
<polygon fill="#ffffff" stroke="transparent" points="199,-85.178 199,-104.178 272,-104.178 272,-85.178 199,-85.178"/>
<polygon fill="none" stroke="#000000" points="199,-85.178 199,-104.178 272,-104.178 272,-85.178 199,-85.178"/>
<text text-anchor="start" x="202" y="-91.278" font-family="Helvetica,sans-Serif" font-size="11.00" fill="#000000">&lt; 16</text>
<polygon fill="#ffffff" stroke="transparent" points="272,-85.178 272,-104.178 367,-104.178 367,-85.178 272,-85.178"/>
<polygon fill="none" stroke="#000000" points="272,-85.178 272,-104.178 367,-104.178 367,-85.178 272,-85.178"/>
<text text-anchor="start" x="297.9791" y="-91.278" font-family="Helvetica,sans-Serif" font-size="11.00" fill="#000000">494,119 rows</text>
<polygon fill="#ffffff" stroke="transparent" points="367,-85.178 367,-104.178 417,-104.178 417,-85.178 367,-85.178"/>
<polygon fill="none" stroke="#000000" points="367,-85.178 367,-104.178 417,-104.178 417,-85.178 367,-85.178"/>
<text text-anchor="start" x="392.2904" y="-91.278" font-family="Helvetica,sans-Serif" font-size="11.00" fill="#000000">96 &gt;</text>
</a>
</g>
</g>
<!-- PARTITION_AREA -->
<g id="node2" class="node">
<title>PARTITION_AREA</title>
<g id="a_node2"><a xlink:href="../../tables/PARTITION_AREA.html" xlink:title="PARTITION_AREA" target="_top">
<polygon fill="#ffffff" stroke="transparent" points="8,-569.678 8,-674.678 150,-674.678 150,-569.678 8,-569.678"/>
<polygon fill="#f5f5f5" stroke="transparent" points="8,-651.178 8,-674.178 150,-674.178 150,-651.178 8,-651.178"/>
<polygon fill="none" stroke="#000000" points="8,-651.178 8,-674.178 150,-674.178 150,-651.178 8,-651.178"/>
<text text-anchor="start" x="13" y="-660.278" font-family="Helvetica,sans-Serif" font-weight="bold" font-size="11.00" fill="#000000">PARTITION_AREA</text>
<text text-anchor="start" x="115.0437" y="-659.278" font-family="Helvetica,sans-Serif" font-size="11.00" fill="#000000">[table]</text>
<polygon fill="none" stroke="#000000" points="8,-629.178 8,-651.178 150,-651.178 150,-629.178 8,-629.178"/>
<image xlink:href="../../images/primaryKeys.png" width="11px" height="12px" preserveAspectRatio="xMinYMin meet" x="13" y="-646.178"/>
<text text-anchor="start" x="28" y="-636.278" font-family="Helvetica,sans-Serif" font-size="11.00" fill="#000000">PARTITION_AREA_ID</text>
<polygon fill="none" stroke="#000000" points="8,-607.178 8,-629.178 150,-629.178 150,-607.178 8,-607.178"/>
<image xlink:href="../../images/primaryKeys.png" width="11px" height="12px" preserveAspectRatio="xMinYMin meet" x="13" y="-624.178"/>
<text text-anchor="start" x="24.1624" y="-614.278" font-family="Helvetica,sans-Serif" font-size="11.00" fill="#000000">TRAINING_SESSION_ID</text>
<polygon fill="none" stroke="#000000" points="8,-588.178 8,-607.178 150,-607.178 150,-588.178 8,-588.178"/>
<text text-anchor="start" x="11" y="-594.278" font-family="Helvetica,sans-Serif" font-size="11.00" fill="#000000">...</text>
<polygon fill="#ffffff" stroke="transparent" points="8,-569.178 8,-588.178 49,-588.178 49,-569.178 8,-569.178"/>
<polygon fill="none" stroke="#000000" points="8,-569.178 8,-588.178 49,-588.178 49,-569.178 8,-569.178"/>
<text text-anchor="start" x="11" y="-575.278" font-family="Helvetica,sans-Serif" font-size="11.00" fill="#000000"> &#160;</text>
<polygon fill="#ffffff" stroke="transparent" points="49,-569.178 49,-588.178 108,-588.178 108,-569.178 49,-569.178"/>
<polygon fill="none" stroke="#000000" points="49,-569.178 49,-588.178 108,-588.178 108,-569.178 49,-569.178"/>
<text text-anchor="start" x="66.4956" y="-575.278" font-family="Helvetica,sans-Serif" font-size="11.00" fill="#000000">44 rows</text>
<polygon fill="#ffffff" stroke="transparent" points="108,-569.178 108,-588.178 150,-588.178 150,-569.178 108,-569.178"/>
<polygon fill="none" stroke="#000000" points="108,-569.178 108,-588.178 150,-588.178 150,-569.178 108,-569.178"/>
<text text-anchor="start" x="125.2904" y="-575.278" font-family="Helvetica,sans-Serif" font-size="11.00" fill="#000000">82 &gt;</text>
</a>
</g>
</g>
<!-- OFFENDER&#45;&gt;PARTITION_AREA -->
<g id="edge1" class="edge">
<title>OFFENDER:w&#45;&gt;PARTITION_AREA:e</title>
<path fill="none" stroke="#000000" d="M184.4909,-640.178C173.1774,-640.178 165.9931,-640.178 150,-640.178"/>
<polygon fill="#000000" stroke="#000000" points="191,-640.1781 199,-643.778 195,-640.178 199,-640.178 199,-640.178 199,-640.178 195,-640.178 199,-636.578 191,-640.1781 191,-640.1781"/>
<ellipse fill="none" stroke="#000000" cx="187.8" cy="-640.1781" rx="3.2" ry="3.2"/>
</g>
<!-- SUBJECT_ACCESS_REPORT -->
<g id="node3" class="node">
<title>SUBJECT_ACCESS_REPORT</title>
<g id="a_node3"><a xlink:href="../../tables/SUBJECT_ACCESS_REPORT.html" xlink:title="SUBJECT_ACCESS_REPORT" target="_top">
<polygon fill="#ffffff" stroke="transparent" points="466,-749.178 466,-1103.178 731,-1103.178 731,-749.178 466,-749.178"/>
<polygon fill="#f5f5f5" stroke="transparent" points="468.5,-1078.178 468.5,-1101.178 729.5,-1101.178 729.5,-1078.178 468.5,-1078.178"/>
<polygon fill="none" stroke="#000000" points="468.5,-1078.178 468.5,-1101.178 729.5,-1101.178 729.5,-1078.178 468.5,-1078.178"/>
<text text-anchor="start" x="473.5" y="-1087.278" font-family="Helvetica,sans-Serif" font-weight="bold" font-size="11.00" fill="#000000">SUBJECT_ACCESS_REPORT</text>
<text text-anchor="start" x="694.5437" y="-1086.278" font-family="Helvetica,sans-Serif" font-size="11.00" fill="#000000">[table]</text>
<polygon fill="none" stroke="#000000" points="468.5,-1056.178 468.5,-1078.178 650.5,-1078.178 650.5,-1056.178 468.5,-1056.178"/>
<image xlink:href="../../images/primaryKeys.png" width="11px" height="12px" preserveAspectRatio="xMinYMin meet" x="473.5" y="-1073.18"/>
<text text-anchor="start" x="481.7462" y="-1063.278" font-family="Helvetica,sans-Serif" font-size="11.00" fill="#000000">SUBJECT_ACCESS_REPORT_ID</text>
<polygon fill="none" stroke="#000000" points="650.5,-1056.178 650.5,-1078.178 729.5,-1078.178 729.5,-1056.178 650.5,-1056.178"/>
<text text-anchor="start" x="653.5" y="-1063.878" font-family="Helvetica,sans-Serif" font-size="11.00" fill="#000000">number[38]</text>
<polygon fill="none" stroke="#000000" points="468.5,-1034.178 468.5,-1056.178 650.5,-1056.178 650.5,-1034.178 468.5,-1034.178"/>
<text text-anchor="start" x="488.5" y="-1041.278" font-family="Helvetica,sans-Serif" font-size="11.00" fill="#000000">REQUEST_DATE_TIME</text>
<polygon fill="none" stroke="#000000" points="650.5,-1034.178 650.5,-1056.178 729.5,-1056.178 729.5,-1034.178 650.5,-1034.178"/>
<text text-anchor="start" x="653.5" y="-1041.878" font-family="Helvetica,sans-Serif" font-size="11.00" fill="#000000">date[7]</text>
<polygon fill="none" stroke="#000000" points="468.5,-1012.178 468.5,-1034.178 650.5,-1034.178 650.5,-1012.178 468.5,-1012.178"/>
<text text-anchor="start" x="488.5" y="-1019.278" font-family="Helvetica,sans-Serif" font-size="11.00" fill="#000000">LOCKED</text>
<polygon fill="none" stroke="#000000" points="650.5,-1012.178 650.5,-1034.178 729.5,-1034.178 729.5,-1012.178 650.5,-1012.178"/>
<text text-anchor="start" x="653.5" y="-1019.878" font-family="Helvetica,sans-Serif" font-size="11.00" fill="#000000">char[1]</text>
<polygon fill="none" stroke="#000000" points="468.5,-990.178 468.5,-1012.178 650.5,-1012.178 650.5,-990.178 468.5,-990.178"/>
<image xlink:href="../../images/primaryKeys.png" width="11px" height="12px" preserveAspectRatio="xMinYMin meet" x="473.5" y="-1007.18"/>
<text text-anchor="start" x="488.5" y="-997.278" font-family="Helvetica,sans-Serif" font-size="11.00" fill="#000000">PARTITION_AREA_ID</text>
<polygon fill="none" stroke="#000000" points="650.5,-990.178 650.5,-1012.178 729.5,-1012.178 729.5,-990.178 650.5,-990.178"/>
<text text-anchor="start" x="653.5" y="-997.878" font-family="Helvetica,sans-Serif" font-size="11.00" fill="#000000">number[38]</text>
<polygon fill="none" stroke="#000000" points="468.5,-968.178 468.5,-990.178 650.5,-990.178 650.5,-968.178 468.5,-968.178"/>
<text text-anchor="start" x="488.5" y="-975.278" font-family="Helvetica,sans-Serif" font-size="11.00" fill="#000000">ROW_NUMBER</text>
<polygon fill="none" stroke="#000000" points="650.5,-968.178 650.5,-990.178 729.5,-990.178 729.5,-968.178 650.5,-968.178"/>
<text text-anchor="start" x="653.5" y="-975.878" font-family="Helvetica,sans-Serif" font-size="11.00" fill="#000000">number[38]</text>
<polygon fill="none" stroke="#000000" points="468.5,-946.178 468.5,-968.178 650.5,-968.178 650.5,-946.178 468.5,-946.178"/>
<text text-anchor="start" x="488.5" y="-953.278" font-family="Helvetica,sans-Serif" font-size="11.00" fill="#000000">CREATED_DATETIME</text>
<polygon fill="none" stroke="#000000" points="650.5,-946.178 650.5,-968.178 729.5,-968.178 729.5,-946.178 650.5,-946.178"/>
<text text-anchor="start" x="653.5" y="-953.878" font-family="Helvetica,sans-Serif" font-size="11.00" fill="#000000">date[7]</text>
<polygon fill="none" stroke="#000000" points="468.5,-924.178 468.5,-946.178 650.5,-946.178 650.5,-924.178 468.5,-924.178"/>
<text text-anchor="start" x="488.5" y="-931.278" font-family="Helvetica,sans-Serif" font-size="11.00" fill="#000000">CREATED_BY_USER_ID</text>
<polygon fill="none" stroke="#000000" points="650.5,-924.178 650.5,-946.178 729.5,-946.178 729.5,-924.178 650.5,-924.178"/>
<text text-anchor="start" x="653.5" y="-931.878" font-family="Helvetica,sans-Serif" font-size="11.00" fill="#000000">number[38]</text>
<polygon fill="none" stroke="#000000" points="468.5,-902.178 468.5,-924.178 650.5,-924.178 650.5,-902.178 468.5,-902.178"/>
<text text-anchor="start" x="488.5" y="-909.278" font-family="Helvetica,sans-Serif" font-size="11.00" fill="#000000">LAST_UPDATED_DATETIME</text>
<polygon fill="none" stroke="#000000" points="650.5,-902.178 650.5,-924.178 729.5,-924.178 729.5,-902.178 650.5,-902.178"/>
<text text-anchor="start" x="653.5" y="-909.878" font-family="Helvetica,sans-Serif" font-size="11.00" fill="#000000">date[7]</text>
<polygon fill="none" stroke="#000000" points="468.5,-880.178 468.5,-902.178 650.5,-902.178 650.5,-880.178 468.5,-880.178"/>
<image xlink:href="../../images/primaryKeys.png" width="11px" height="12px" preserveAspectRatio="xMinYMin meet" x="473.5" y="-897.178"/>
<text text-anchor="start" x="488.5" y="-887.278" font-family="Helvetica,sans-Serif" font-size="11.00" fill="#000000">OFFENDER_ID</text>
<polygon fill="none" stroke="#000000" points="650.5,-880.178 650.5,-902.178 729.5,-902.178 729.5,-880.178 650.5,-880.178"/>
<text text-anchor="start" x="653.5" y="-887.878" font-family="Helvetica,sans-Serif" font-size="11.00" fill="#000000">number[38]</text>
<polygon fill="none" stroke="#000000" points="468.5,-858.178 468.5,-880.178 650.5,-880.178 650.5,-858.178 468.5,-858.178"/>
<text text-anchor="start" x="488.5" y="-865.278" font-family="Helvetica,sans-Serif" font-size="11.00" fill="#000000">LAST_UPDATED_USER_ID</text>
<polygon fill="none" stroke="#000000" points="650.5,-858.178 650.5,-880.178 729.5,-880.178 729.5,-858.178 650.5,-858.178"/>
<text text-anchor="start" x="653.5" y="-865.878" font-family="Helvetica,sans-Serif" font-size="11.00" fill="#000000">number[38]</text>
<polygon fill="none" stroke="#000000" points="468.5,-836.178 468.5,-858.178 650.5,-858.178 650.5,-836.178 468.5,-836.178"/>
<image xlink:href="../../images/primaryKeys.png" width="11px" height="12px" preserveAspectRatio="xMinYMin meet" x="473.5" y="-853.178"/>
<text text-anchor="start" x="488.5" y="-843.278" font-family="Helvetica,sans-Serif" font-size="11.00" fill="#000000">TRAINING_SESSION_ID</text>
<polygon fill="none" stroke="#000000" points="650.5,-836.178 650.5,-858.178 729.5,-858.178 729.5,-836.178 650.5,-836.178"/>
<text text-anchor="start" x="653.5" y="-843.878" font-family="Helvetica,sans-Serif" font-size="11.00" fill="#000000">number[38]</text>
<polygon fill="none" stroke="#000000" points="468.5,-814.178 468.5,-836.178 650.5,-836.178 650.5,-814.178 468.5,-814.178"/>
<text text-anchor="start" x="488.5" y="-821.278" font-family="Helvetica,sans-Serif" font-size="11.00" fill="#000000">GENERATION_STATUS</text>
<polygon fill="none" stroke="#000000" points="650.5,-814.178 650.5,-836.178 729.5,-836.178 729.5,-814.178 650.5,-814.178"/>
<text text-anchor="start" x="653.5" y="-821.878" font-family="Helvetica,sans-Serif" font-size="11.00" fill="#000000">char[1]</text>
<polygon fill="none" stroke="#000000" points="468.5,-792.178 468.5,-814.178 650.5,-814.178 650.5,-792.178 468.5,-792.178"/>
<text text-anchor="start" x="488.5" y="-799.278" font-family="Helvetica,sans-Serif" font-size="11.00" fill="#000000">SAR_ALFRESCO_ID</text>
<polygon fill="none" stroke="#000000" points="650.5,-792.178 650.5,-814.178 729.5,-814.178 729.5,-792.178 650.5,-792.178"/>
<text text-anchor="start" x="653.5" y="-799.878" font-family="Helvetica,sans-Serif" font-size="11.00" fill="#000000">varchar2[36]</text>
<polygon fill="none" stroke="#000000" points="468.5,-770.178 468.5,-792.178 650.5,-792.178 650.5,-770.178 468.5,-770.178"/>
<text text-anchor="start" x="488.5" y="-777.278" font-family="Helvetica,sans-Serif" font-size="11.00" fill="#000000">ERROR_MESSAGE</text>
<polygon fill="none" stroke="#000000" points="650.5,-770.178 650.5,-792.178 729.5,-792.178 729.5,-770.178 650.5,-770.178"/>
<text text-anchor="start" x="653.3216" y="-777.878" font-family="Helvetica,sans-Serif" font-size="11.00" fill="#000000">varchar2[1000]</text>
<polygon fill="#ffffff" stroke="transparent" points="468.5,-751.178 468.5,-770.178 544.5,-770.178 544.5,-751.178 468.5,-751.178"/>
<polygon fill="none" stroke="#000000" points="468.5,-751.178 468.5,-770.178 544.5,-770.178 544.5,-751.178 468.5,-751.178"/>
<text text-anchor="start" x="471.5" y="-757.278" font-family="Helvetica,sans-Serif" font-size="11.00" fill="#000000">&lt; 2</text>
<polygon fill="#ffffff" stroke="transparent" points="544.5,-751.178 544.5,-770.178 650.5,-770.178 650.5,-751.178 544.5,-751.178"/>
<polygon fill="none" stroke="#000000" points="544.5,-751.178 544.5,-770.178 650.5,-770.178 650.5,-751.178 544.5,-751.178"/>
<text text-anchor="start" x="602.8807" y="-757.278" font-family="Helvetica,sans-Serif" font-size="11.00" fill="#000000">100 rows</text>
<polygon fill="#ffffff" stroke="transparent" points="650.5,-751.178 650.5,-770.178 729.5,-770.178 729.5,-751.178 650.5,-751.178"/>
<polygon fill="none" stroke="#000000" points="650.5,-751.178 650.5,-770.178 729.5,-770.178 729.5,-751.178 650.5,-751.178"/>
<text text-anchor="start" x="710.9053" y="-757.278" font-family="Helvetica,sans-Serif" font-size="11.00" fill="#000000">2 &gt;</text>
<polygon fill="none" stroke="#000000" stroke-width="2" points="467,-750.178 467,-1102.178 730,-1102.178 730,-750.178 467,-750.178"/>
</a>
</g>
</g>
<!-- SUBJECT_ACCESS_REPORT&#45;&gt;OFFENDER -->
<g id="edge2" class="edge">
<title>SUBJECT_ACCESS_REPORT:w&#45;&gt;OFFENDER:e</title>
<path fill="none" stroke="#000000" d="M454.199,-893.0962C441.6837,-896.7124 434.8896,-904.178 417,-904.178"/>
<polygon fill="#000000" stroke="#000000" points="460.571,-892.2416 468.9786,-894.7461 464.5355,-891.7098 468.5,-891.178 468.5,-891.178 468.5,-891.178 464.5355,-891.7098 468.0214,-887.61 460.571,-892.2416 460.571,-892.2416"/>
<ellipse fill="none" stroke="#000000" cx="457.3994" cy="-892.667" rx="3.2" ry="3.2"/>
</g>
<!-- SUBJECT_ACCESS_REPORT&#45;&gt;PARTITION_AREA -->
<g id="edge3" class="edge">
<title>SUBJECT_ACCESS_REPORT:w&#45;&gt;PARTITION_AREA:e</title>
<path fill="none" stroke="#000000" d="M454.0642,-1001.3467C337.8565,-1004.0312 273.9586,-1036.6825 191,-949.178 143.3429,-898.9095 219.2685,-640.178 150,-640.178"/>
<polygon fill="#000000" stroke="#000000" points="460.5005,-1001.2716 468.5421,-1004.7778 464.5003,-1001.2248 468.5,-1001.178 468.5,-1001.178 468.5,-1001.178 464.5003,-1001.2248 468.4579,-997.5783 460.5005,-1001.2716 460.5005,-1001.2716"/>
<ellipse fill="none" stroke="#000000" cx="457.3008" cy="-1001.309" rx="3.2" ry="3.2"/>
</g>
<!-- SUBJECT_ACCESS_REPORT_CONTACT -->
<g id="node4" class="node">
<title>SUBJECT_ACCESS_REPORT_CONTACT</title>
<g id="a_node4"><a xlink:href="../../tables/SUBJECT_ACCESS_REPORT_CONTACT.html" xlink:title="SUBJECT_ACCESS_REPORT_CONTACT" target="_top">
<polygon fill="#ffffff" stroke="transparent" points="785.5,-295.678 785.5,-488.678 1040.5,-488.678 1040.5,-295.678 785.5,-295.678"/>
<polygon fill="#f5f5f5" stroke="transparent" points="786,-465.178 786,-488.178 1041,-488.178 1041,-465.178 786,-465.178"/>
<polygon fill="none" stroke="#000000" points="786,-465.178 786,-488.178 1041,-488.178 1041,-465.178 786,-465.178"/>
<text text-anchor="start" x="790.6674" y="-474.278" font-family="Helvetica,sans-Serif" font-weight="bold" font-size="11.00" fill="#000000">SUBJECT_ACCESS_REPORT_CONTACT</text>
<text text-anchor="start" x="1006.5219" y="-473.278" font-family="Helvetica,sans-Serif" font-size="11.00" fill="#000000">[table]</text>
<polygon fill="none" stroke="#000000" points="786,-443.178 786,-465.178 1041,-465.178 1041,-443.178 786,-443.178"/>
<image xlink:href="../../images/primaryKeys.png" width="11px" height="12px" preserveAspectRatio="xMinYMin meet" x="791" y="-460.178"/>
<text text-anchor="start" x="823" y="-450.278" font-family="Helvetica,sans-Serif" font-size="11.00" fill="#000000">SAR_CONTACT_ID</text>
<polygon fill="none" stroke="#000000" points="786,-421.178 786,-443.178 1041,-443.178 1041,-421.178 786,-421.178"/>
<image xlink:href="../../images/primaryKeys.png" width="11px" height="12px" preserveAspectRatio="xMinYMin meet" x="791" y="-438.178"/>
<text text-anchor="start" x="823" y="-428.278" font-family="Helvetica,sans-Serif" font-size="11.00" fill="#000000">SUBJECT_ACCESS_REPORT_ID</text>
<polygon fill="none" stroke="#000000" points="786,-399.178 786,-421.178 1041,-421.178 1041,-399.178 786,-399.178"/>
<image xlink:href="../../images/primaryKeys.png" width="11px" height="12px" preserveAspectRatio="xMinYMin meet" x="791" y="-416.178"/>
<text text-anchor="start" x="823" y="-406.278" font-family="Helvetica,sans-Serif" font-size="11.00" fill="#000000">CONTACT_ID</text>
<polygon fill="none" stroke="#000000" points="786,-377.178 786,-399.178 1041,-399.178 1041,-377.178 786,-377.178"/>
<image xlink:href="../../images/primaryKeys.png" width="11px" height="12px" preserveAspectRatio="xMinYMin meet" x="791" y="-394.178"/>
<text text-anchor="start" x="823" y="-384.278" font-family="Helvetica,sans-Serif" font-size="11.00" fill="#000000">DPA_SAR_EXCLUSION_REASON_ID</text>
<polygon fill="none" stroke="#000000" points="786,-355.178 786,-377.178 1041,-377.178 1041,-355.178 786,-355.178"/>
<image xlink:href="../../images/primaryKeys.png" width="11px" height="12px" preserveAspectRatio="xMinYMin meet" x="791" y="-372.178"/>
<text text-anchor="start" x="823" y="-362.278" font-family="Helvetica,sans-Serif" font-size="11.00" fill="#000000">PARTITION_AREA_ID</text>
<polygon fill="none" stroke="#000000" points="786,-333.178 786,-355.178 1041,-355.178 1041,-333.178 786,-333.178"/>
<image xlink:href="../../images/primaryKeys.png" width="11px" height="12px" preserveAspectRatio="xMinYMin meet" x="791" y="-350.178"/>
<text text-anchor="start" x="823" y="-340.278" font-family="Helvetica,sans-Serif" font-size="11.00" fill="#000000">TRAINING_SESSION_ID</text>
<polygon fill="none" stroke="#000000" points="786,-314.178 786,-333.178 1041,-333.178 1041,-314.178 786,-314.178"/>
<text text-anchor="start" x="789" y="-320.278" font-family="Helvetica,sans-Serif" font-size="11.00" fill="#000000">...</text>
<polygon fill="#ffffff" stroke="transparent" points="786,-295.178 786,-314.178 896,-314.178 896,-295.178 786,-295.178"/>
<polygon fill="none" stroke="#000000" points="786,-295.178 786,-314.178 896,-314.178 896,-295.178 786,-295.178"/>
<text text-anchor="start" x="789" y="-301.278" font-family="Helvetica,sans-Serif" font-size="11.00" fill="#000000">&lt; 4</text>
<polygon fill="#ffffff" stroke="transparent" points="896,-295.178 896,-314.178 984,-314.178 984,-295.178 896,-295.178"/>
<polygon fill="none" stroke="#000000" points="896,-295.178 896,-314.178 984,-314.178 984,-295.178 896,-295.178"/>
<text text-anchor="start" x="942.4956" y="-301.278" font-family="Helvetica,sans-Serif" font-size="11.00" fill="#000000">18 rows</text>
<polygon fill="#ffffff" stroke="transparent" points="984,-295.178 984,-314.178 1041,-314.178 1041,-295.178 984,-295.178"/>
<polygon fill="none" stroke="#000000" points="984,-295.178 984,-314.178 1041,-314.178 1041,-295.178 984,-295.178"/>
<text text-anchor="start" x="1031.8862" y="-301.278" font-family="Helvetica,sans-Serif" font-size="11.00" fill="#000000"> &#160;</text>
</a>
</g>
</g>
<!-- SUBJECT_ACCESS_REPORT_CONTACT&#45;&gt;PARTITION_AREA -->
<g id="edge4" class="edge">
<title>SUBJECT_ACCESS_REPORT_CONTACT:w&#45;&gt;PARTITION_AREA:e</title>
<path fill="none" stroke="#000000" d="M771.3382,-365.7858C581.7041,-355.4091 614.5929,-142.0783 425,-75.178 326.9266,-40.5716 267.1539,-4.3501 191,-75.178 144.9102,-118.0445 212.9429,-640.178 150,-640.178"/>
<polygon fill="#000000" stroke="#000000" points="778.0029,-365.964 785.9037,-369.7767 782.0014,-366.071 786,-366.178 786,-366.178 786,-366.178 782.0014,-366.071 786.0963,-362.5793 778.0029,-365.964 778.0029,-365.964"/>
<ellipse fill="none" stroke="#000000" cx="774.804" cy="-365.8784" rx="3.2" ry="3.2"/>
</g>
<!-- SUBJECT_ACCESS_REPORT_CONTACT&#45;&gt;SUBJECT_ACCESS_REPORT -->
<g id="edge5" class="edge">
<title>SUBJECT_ACCESS_REPORT_CONTACT:w&#45;&gt;SUBJECT_ACCESS_REPORT:e</title>
<path fill="none" stroke="#000000" d="M773.8609,-440.2068C725.7892,-513.7137 795.6305,-1067.178 729.5,-1067.178"/>
<polygon fill="#000000" stroke="#000000" points="779.3274,-436.5913 787.986,-435.1807 782.6637,-434.3846 786,-432.178 786,-432.178 786,-432.178 782.6637,-434.3846 784.014,-429.1753 779.3274,-436.5913 779.3274,-436.5913"/>
<ellipse fill="none" stroke="#000000" cx="776.6584" cy="-438.3566" rx="3.2" ry="3.2"/>
</g>
<!-- SUBJECT_ACCESS_REPORT_DOCUMENT -->
<g id="node5" class="node">
<title>SUBJECT_ACCESS_REPORT_DOCUMENT</title>
<g id="a_node5"><a xlink:href="../../tables/SUBJECT_ACCESS_REPORT_DOCUMENT.html" xlink:title="SUBJECT_ACCESS_REPORT_DOCUMENT" target="_top">
<polygon fill="#ffffff" stroke="transparent" points="780,-814.678 780,-985.678 1046,-985.678 1046,-814.678 780,-814.678"/>
<polygon fill="#f5f5f5" stroke="transparent" points="780,-962.178 780,-985.178 1046,-985.178 1046,-962.178 780,-962.178"/>
<polygon fill="none" stroke="#000000" points="780,-962.178 780,-985.178 1046,-985.178 1046,-962.178 780,-962.178"/>
<text text-anchor="start" x="784.976" y="-971.278" font-family="Helvetica,sans-Serif" font-weight="bold" font-size="11.00" fill="#000000">SUBJECT_ACCESS_REPORT_DOCUMENT</text>
<text text-anchor="start" x="1011.5219" y="-970.278" font-family="Helvetica,sans-Serif" font-size="11.00" fill="#000000">[table]</text>
<polygon fill="none" stroke="#000000" points="780,-940.178 780,-962.178 1046,-962.178 1046,-940.178 780,-940.178"/>
<image xlink:href="../../images/primaryKeys.png" width="11px" height="12px" preserveAspectRatio="xMinYMin meet" x="785" y="-957.178"/>
<text text-anchor="start" x="817" y="-947.278" font-family="Helvetica,sans-Serif" font-size="11.00" fill="#000000">SAR_DOCUMENT_ID</text>
<polygon fill="none" stroke="#000000" points="780,-918.178 780,-940.178 1046,-940.178 1046,-918.178 780,-918.178"/>
<image xlink:href="../../images/primaryKeys.png" width="11px" height="12px" preserveAspectRatio="xMinYMin meet" x="785" y="-935.178"/>
<text text-anchor="start" x="817" y="-925.278" font-family="Helvetica,sans-Serif" font-size="11.00" fill="#000000">SUBJECT_ACCESS_REPORT_ID</text>
<polygon fill="none" stroke="#000000" points="780,-896.178 780,-918.178 1046,-918.178 1046,-896.178 780,-896.178"/>
<image xlink:href="../../images/primaryKeys.png" width="11px" height="12px" preserveAspectRatio="xMinYMin meet" x="785" y="-913.178"/>
<text text-anchor="start" x="817" y="-903.278" font-family="Helvetica,sans-Serif" font-size="11.00" fill="#000000">DOCUMENT_ID</text>
<polygon fill="none" stroke="#000000" points="780,-874.178 780,-896.178 1046,-896.178 1046,-874.178 780,-874.178"/>
<image xlink:href="../../images/primaryKeys.png" width="11px" height="12px" preserveAspectRatio="xMinYMin meet" x="785" y="-891.178"/>
<text text-anchor="start" x="817" y="-881.278" font-family="Helvetica,sans-Serif" font-size="11.00" fill="#000000">SAR_EXCLUSION_REASON_ID</text>
<polygon fill="none" stroke="#000000" points="780,-852.178 780,-874.178 1046,-874.178 1046,-852.178 780,-852.178"/>
<image xlink:href="../../images/primaryKeys.png" width="11px" height="12px" preserveAspectRatio="xMinYMin meet" x="785" y="-869.178"/>
<text text-anchor="start" x="817" y="-859.278" font-family="Helvetica,sans-Serif" font-size="11.00" fill="#000000">OFFENDER_ID</text>
<polygon fill="none" stroke="#000000" points="780,-833.178 780,-852.178 1046,-852.178 1046,-833.178 780,-833.178"/>
<text text-anchor="start" x="783" y="-839.278" font-family="Helvetica,sans-Serif" font-size="11.00" fill="#000000">...</text>
<polygon fill="#ffffff" stroke="transparent" points="780,-814.178 780,-833.178 892,-833.178 892,-814.178 780,-814.178"/>
<polygon fill="none" stroke="#000000" points="780,-814.178 780,-833.178 892,-833.178 892,-814.178 780,-814.178"/>
<text text-anchor="start" x="783" y="-820.278" font-family="Helvetica,sans-Serif" font-size="11.00" fill="#000000">&lt; 4</text>
<polygon fill="#ffffff" stroke="transparent" points="892,-814.178 892,-833.178 988,-833.178 988,-814.178 892,-814.178"/>
<polygon fill="none" stroke="#000000" points="892,-814.178 892,-833.178 988,-833.178 988,-814.178 892,-814.178"/>
<text text-anchor="start" x="940.3807" y="-820.278" font-family="Helvetica,sans-Serif" font-size="11.00" fill="#000000">616 rows</text>
<polygon fill="#ffffff" stroke="transparent" points="988,-814.178 988,-833.178 1046,-833.178 1046,-814.178 988,-814.178"/>
<polygon fill="none" stroke="#000000" points="988,-814.178 988,-833.178 1046,-833.178 1046,-814.178 988,-814.178"/>
<text text-anchor="start" x="1036.8862" y="-820.278" font-family="Helvetica,sans-Serif" font-size="11.00" fill="#000000"> &#160;</text>
</a>
</g>
</g>
<!-- SUBJECT_ACCESS_REPORT_DOCUMENT&#45;&gt;OFFENDER -->
<g id="edge6" class="edge">
<title>SUBJECT_ACCESS_REPORT_DOCUMENT:w&#45;&gt;OFFENDER:e</title>
<path fill="none" stroke="#000000" d="M765.754,-860.5254C733.5413,-845.3364 781.5402,-768.9949 739,-738.178 637.8607,-664.9109 556.329,-661.1803 458,-738.178 398.1669,-785.0311 492.9948,-904.178 417,-904.178"/>
<polygon fill="#000000" stroke="#000000" points="772.1352,-861.7136 779.341,-866.7172 776.0676,-862.4458 780,-863.178 780,-863.178 780,-863.178 776.0676,-862.4458 780.659,-859.6388 772.1352,-861.7136 772.1352,-861.7136"/>
<ellipse fill="none" stroke="#000000" cx="768.9892" cy="-861.1278" rx="3.2" ry="3.2"/>
</g>
<!-- SUBJECT_ACCESS_REPORT_DOCUMENT&#45;&gt;SUBJECT_ACCESS_REPORT -->
<g id="edge7" class="edge">
<title>SUBJECT_ACCESS_REPORT_DOCUMENT:w&#45;&gt;SUBJECT_ACCESS_REPORT:e</title>
<path fill="none" stroke="#000000" d="M765.7075,-932.3196C727.912,-952.861 788.9432,-1067.178 729.5,-1067.178"/>
<polygon fill="#000000" stroke="#000000" points="772.1865,-930.8955 780.7729,-932.6941 776.0933,-930.0368 780,-929.178 780,-929.178 780,-929.178 776.0933,-930.0368 779.2271,-925.662 772.1865,-930.8955 772.1865,-930.8955"/>
<ellipse fill="none" stroke="#000000" cx="769.0611" cy="-931.5825" rx="3.2" ry="3.2"/>
</g>
</g>
</svg>
