<?xml version="1.0" encoding="UTF-8" standalone="no"?>
<!DOCTYPE svg PUBLIC "-//W3C//DTD SVG 1.1//EN"
 "http://www.w3.org/Graphics/SVG/1.1/DTD/svg11.dtd">
<!-- Generated by graphviz version 2.40.1 (20161225.0304)
 -->
<!-- Title: oneDegreeRelationshipsDiagram Pages: 1 -->
<svg width="484pt" height="457pt"
 viewBox="0.00 0.00 484.00 457.20" xmlns="http://www.w3.org/2000/svg" xmlns:xlink="http://www.w3.org/1999/xlink">
<g id="graph0" class="graph" transform="scale(1 1) rotate(0) translate(4 453.2)">
<title>oneDegreeRelationshipsDiagram</title>
<polygon fill="#ffffff" stroke="transparent" points="-4,4 -4,-453.2 480,-453.2 480,4 -4,4"/>
<text text-anchor="middle" x="72.4936" y="-7.3" font-family="Helvetica,sans-Serif" font-size="11.00" fill="#000000">Generated by SchemaSpy</text>
<!-- TEAM_OFFICE_LOCATION -->
<g id="node1" class="node">
<title>TEAM_OFFICE_LOCATION</title>
<g id="a_node1"><a xlink:href="../../tables/TEAM_OFFICE_LOCATION.html" xlink:title="TEAM_OFFICE_LOCATION" target="_top">
<polygon fill="#ffffff" stroke="transparent" points="242,-117.7 242,-339.7 468,-339.7 468,-117.7 242,-117.7"/>
<polygon fill="#f5f5f5" stroke="transparent" points="244,-314.7 244,-337.7 466,-337.7 466,-314.7 244,-314.7"/>
<polygon fill="none" stroke="#000000" points="244,-314.7 244,-337.7 466,-337.7 466,-314.7 244,-314.7"/>
<text text-anchor="start" x="249" y="-323.8" font-family="Helvetica,sans-Serif" font-weight="bold" font-size="11.00" fill="#000000">TEAM_OFFICE_LOCATION</text>
<text text-anchor="start" x="431.0437" y="-322.8" font-family="Helvetica,sans-Serif" font-size="11.00" fill="#000000">[table]</text>
<polygon fill="none" stroke="#000000" points="244,-292.7 244,-314.7 405,-314.7 405,-292.7 244,-292.7"/>
<image xlink:href="../../images/primaryKeys.png" width="11px" height="12px" preserveAspectRatio="xMinYMin meet" x="249" y="-309.7"/>
<text text-anchor="start" x="264" y="-299.8" font-family="Helvetica,sans-Serif" font-size="11.00" fill="#000000">TEAM_ID</text>
<polygon fill="none" stroke="#000000" points="405,-292.7 405,-314.7 466,-314.7 466,-292.7 405,-292.7"/>
<text text-anchor="start" x="407.6865" y="-300.4" font-family="Helvetica,sans-Serif" font-size="11.00" fill="#000000">number[38]</text>
<polygon fill="none" stroke="#000000" points="244,-270.7 244,-292.7 405,-292.7 405,-270.7 244,-270.7"/>
<image xlink:href="../../images/primaryKeys.png" width="11px" height="12px" preserveAspectRatio="xMinYMin meet" x="249" y="-287.7"/>
<text text-anchor="start" x="264" y="-277.8" font-family="Helvetica,sans-Serif" font-size="11.00" fill="#000000">OFFICE_LOCATION_ID</text>
<polygon fill="none" stroke="#000000" points="405,-270.7 405,-292.7 466,-292.7 466,-270.7 405,-270.7"/>
<text text-anchor="start" x="407.6865" y="-278.4" font-family="Helvetica,sans-Serif" font-size="11.00" fill="#000000">number[38]</text>
<polygon fill="none" stroke="#000000" points="244,-248.7 244,-270.7 405,-270.7 405,-248.7 244,-248.7"/>
<text text-anchor="start" x="264" y="-255.8" font-family="Helvetica,sans-Serif" font-size="11.00" fill="#000000">ROW_VERSION</text>
<polygon fill="none" stroke="#000000" points="405,-248.7 405,-270.7 466,-270.7 466,-248.7 405,-248.7"/>
<text text-anchor="start" x="407.6865" y="-256.4" font-family="Helvetica,sans-Serif" font-size="11.00" fill="#000000">number[38]</text>
<polygon fill="none" stroke="#000000" points="244,-226.7 244,-248.7 405,-248.7 405,-226.7 244,-226.7"/>
<text text-anchor="start" x="264" y="-233.8" font-family="Helvetica,sans-Serif" font-size="11.00" fill="#000000">CREATED_BY_USER_ID</text>
<polygon fill="none" stroke="#000000" points="405,-226.7 405,-248.7 466,-248.7 466,-226.7 405,-226.7"/>
<text text-anchor="start" x="407.6865" y="-234.4" font-family="Helvetica,sans-Serif" font-size="11.00" fill="#000000">number[38]</text>
<polygon fill="none" stroke="#000000" points="244,-204.7 244,-226.7 405,-226.7 405,-204.7 244,-204.7"/>
<text text-anchor="start" x="264" y="-211.8" font-family="Helvetica,sans-Serif" font-size="11.00" fill="#000000">CREATED_DATETIME</text>
<polygon fill="none" stroke="#000000" points="405,-204.7 405,-226.7 466,-226.7 466,-204.7 405,-204.7"/>
<text text-anchor="start" x="408" y="-212.4" font-family="Helvetica,sans-Serif" font-size="11.00" fill="#000000">date[7]</text>
<polygon fill="none" stroke="#000000" points="244,-182.7 244,-204.7 405,-204.7 405,-182.7 244,-182.7"/>
<text text-anchor="start" x="262.0235" y="-189.8" font-family="Helvetica,sans-Serif" font-size="11.00" fill="#000000">LAST_UPDATED_USER_ID</text>
<polygon fill="none" stroke="#000000" points="405,-182.7 405,-204.7 466,-204.7 466,-182.7 405,-182.7"/>
<text text-anchor="start" x="407.6865" y="-190.4" font-family="Helvetica,sans-Serif" font-size="11.00" fill="#000000">number[38]</text>
<polygon fill="none" stroke="#000000" points="244,-160.7 244,-182.7 405,-182.7 405,-160.7 244,-160.7"/>
<text text-anchor="start" x="258.0531" y="-167.8" font-family="Helvetica,sans-Serif" font-size="11.00" fill="#000000">LAST_UPDATED_DATETIME</text>
<polygon fill="none" stroke="#000000" points="405,-160.7 405,-182.7 466,-182.7 466,-160.7 405,-160.7"/>
<text text-anchor="start" x="408" y="-168.4" font-family="Helvetica,sans-Serif" font-size="11.00" fill="#000000">date[7]</text>
<polygon fill="none" stroke="#000000" points="244,-138.7 244,-160.7 405,-160.7 405,-138.7 244,-138.7"/>
<image xlink:href="../../images/primaryKeys.png" width="11px" height="12px" preserveAspectRatio="xMinYMin meet" x="249" y="-155.7"/>
<text text-anchor="start" x="264" y="-145.8" font-family="Helvetica,sans-Serif" font-size="11.00" fill="#000000">TRAINING_SESSION_ID</text>
<polygon fill="none" stroke="#000000" points="405,-138.7 405,-160.7 466,-160.7 466,-138.7 405,-138.7"/>
<text text-anchor="start" x="407.6865" y="-146.4" font-family="Helvetica,sans-Serif" font-size="11.00" fill="#000000">number[38]</text>
<polygon fill="#ffffff" stroke="transparent" points="244,-119.7 244,-138.7 313,-138.7 313,-119.7 244,-119.7"/>
<polygon fill="none" stroke="#000000" points="244,-119.7 244,-138.7 313,-138.7 313,-119.7 244,-119.7"/>
<text text-anchor="start" x="247" y="-125.8" font-family="Helvetica,sans-Serif" font-size="11.00" fill="#000000">&lt; 2</text>
<polygon fill="#ffffff" stroke="transparent" points="313,-119.7 313,-138.7 405,-138.7 405,-119.7 313,-119.7"/>
<polygon fill="none" stroke="#000000" points="313,-119.7 313,-138.7 405,-138.7 405,-119.7 313,-119.7"/>
<text text-anchor="start" x="363.4956" y="-125.8" font-family="Helvetica,sans-Serif" font-size="11.00" fill="#000000">17 rows</text>
<polygon fill="#ffffff" stroke="transparent" points="405,-119.7 405,-138.7 466,-138.7 466,-119.7 405,-119.7"/>
<polygon fill="none" stroke="#000000" points="405,-119.7 405,-138.7 466,-138.7 466,-119.7 405,-119.7"/>
<text text-anchor="start" x="447.4053" y="-125.8" font-family="Helvetica,sans-Serif" font-size="11.00" fill="#000000">0 &gt;</text>
<polygon fill="none" stroke="#000000" stroke-width="2" points="243,-118.7 243,-338.7 467,-338.7 467,-118.7 243,-118.7"/>
</a>
</g>
</g>
<!-- OFFICE_LOCATION -->
<g id="node2" class="node">
<title>OFFICE_LOCATION</title>
<g id="a_node2"><a xlink:href="../../tables/OFFICE_LOCATION.html" xlink:title="OFFICE_LOCATION" target="_top">
<polygon fill="#ffffff" stroke="transparent" points="20,-38.2 20,-209.2 181,-209.2 181,-38.2 20,-38.2"/>
<polygon fill="#f5f5f5" stroke="transparent" points="20.5,-185.7 20.5,-208.7 181.5,-208.7 181.5,-185.7 20.5,-185.7"/>
<polygon fill="none" stroke="#000000" points="20.5,-185.7 20.5,-208.7 181.5,-208.7 181.5,-185.7 20.5,-185.7"/>
<text text-anchor="start" x="25.5" y="-194.8" font-family="Helvetica,sans-Serif" font-weight="bold" font-size="11.00" fill="#000000">OFFICE_LOCATION</text>
<text text-anchor="start" x="146.5437" y="-193.8" font-family="Helvetica,sans-Serif" font-size="11.00" fill="#000000">[table]</text>
<polygon fill="none" stroke="#000000" points="20.5,-163.7 20.5,-185.7 181.5,-185.7 181.5,-163.7 20.5,-163.7"/>
<image xlink:href="../../images/primaryKeys.png" width="11px" height="12px" preserveAspectRatio="xMinYMin meet" x="25.5" y="-180.7"/>
<text text-anchor="start" x="40.5" y="-170.8" font-family="Helvetica,sans-Serif" font-size="11.00" fill="#000000">OFFICE_LOCATION_ID</text>
<polygon fill="none" stroke="#000000" points="20.5,-141.7 20.5,-163.7 181.5,-163.7 181.5,-141.7 20.5,-141.7"/>
<image xlink:href="../../images/primaryKeys.png" width="11px" height="12px" preserveAspectRatio="xMinYMin meet" x="25.5" y="-158.7"/>
<text text-anchor="start" x="40.5" y="-148.8" font-family="Helvetica,sans-Serif" font-size="11.00" fill="#000000">CODE</text>
<polygon fill="none" stroke="#000000" points="20.5,-119.7 20.5,-141.7 181.5,-141.7 181.5,-119.7 20.5,-119.7"/>
<image xlink:href="../../images/primaryKeys.png" width="11px" height="12px" preserveAspectRatio="xMinYMin meet" x="25.5" y="-136.7"/>
<text text-anchor="start" x="40.5" y="-126.8" font-family="Helvetica,sans-Serif" font-size="11.00" fill="#000000">DISTRICT_ID</text>
<polygon fill="none" stroke="#000000" points="20.5,-97.7 20.5,-119.7 181.5,-119.7 181.5,-97.7 20.5,-97.7"/>
<image xlink:href="../../images/primaryKeys.png" width="11px" height="12px" preserveAspectRatio="xMinYMin meet" x="25.5" y="-114.7"/>
<text text-anchor="start" x="40.5" y="-104.8" font-family="Helvetica,sans-Serif" font-size="11.00" fill="#000000">TRAINING_SESSION_ID</text>
<polygon fill="none" stroke="#000000" points="20.5,-75.7 20.5,-97.7 181.5,-97.7 181.5,-75.7 20.5,-75.7"/>
<image xlink:href="../../images/primaryKeys.png" width="11px" height="12px" preserveAspectRatio="xMinYMin meet" x="25.5" y="-92.7"/>
<text text-anchor="start" x="40.5" y="-82.8" font-family="Helvetica,sans-Serif" font-size="11.00" fill="#000000">PROBATION_AREA_ID</text>
<polygon fill="none" stroke="#000000" points="20.5,-56.7 20.5,-75.7 181.5,-75.7 181.5,-56.7 20.5,-56.7"/>
<text text-anchor="start" x="23.5" y="-62.8" font-family="Helvetica,sans-Serif" font-size="11.00" fill="#000000">...</text>
<polygon fill="#ffffff" stroke="transparent" points="20.5,-37.7 20.5,-56.7 71.5,-56.7 71.5,-37.7 20.5,-37.7"/>
<polygon fill="none" stroke="#000000" points="20.5,-37.7 20.5,-56.7 71.5,-56.7 71.5,-37.7 20.5,-37.7"/>
<text text-anchor="start" x="23.5" y="-43.8" font-family="Helvetica,sans-Serif" font-size="11.00" fill="#000000">&lt; 2</text>
<polygon fill="#ffffff" stroke="transparent" points="71.5,-37.7 71.5,-56.7 145.5,-56.7 145.5,-37.7 71.5,-37.7"/>
<polygon fill="none" stroke="#000000" points="71.5,-37.7 71.5,-56.7 145.5,-56.7 145.5,-37.7 71.5,-37.7"/>
<text text-anchor="start" x="88.7089" y="-43.8" font-family="Helvetica,sans-Serif" font-size="11.00" fill="#000000">4,727 rows</text>
<polygon fill="#ffffff" stroke="transparent" points="145.5,-37.7 145.5,-56.7 181.5,-56.7 181.5,-37.7 145.5,-37.7"/>
<polygon fill="none" stroke="#000000" points="145.5,-37.7 145.5,-56.7 181.5,-56.7 181.5,-37.7 145.5,-37.7"/>
<text text-anchor="start" x="162.9053" y="-43.8" font-family="Helvetica,sans-Serif" font-size="11.00" fill="#000000">8 &gt;</text>
</a>
</g>
</g>
<!-- TEAM_OFFICE_LOCATION&#45;&gt;OFFICE_LOCATION -->
<g id="edge1" class="edge">
<title>TEAM_OFFICE_LOCATION:w&#45;&gt;OFFICE_LOCATION:e</title>
<path fill="none" stroke="#000000" d="M229.7612,-278.3804C197.8342,-260.3199 230.7653,-174.7 181.5,-174.7"/>
<polygon fill="#000000" stroke="#000000" points="236.2089,-279.8836 243.1826,-285.206 240.1045,-280.7918 244,-281.7 244,-281.7 244,-281.7 240.1045,-280.7918 244.8174,-278.194 236.2089,-279.8836 236.2089,-279.8836"/>
<ellipse fill="none" stroke="#000000" cx="233.0925" cy="-279.157" rx="3.2" ry="3.2"/>
</g>
<!-- TEAM -->
<g id="node3" class="node">
<title>TEAM</title>
<g id="a_node3"><a xlink:href="../../tables/TEAM.html" xlink:title="TEAM" target="_top">
<polygon fill="#ffffff" stroke="transparent" points="8,-230.2 8,-445.2 193,-445.2 193,-230.2 8,-230.2"/>
<polygon fill="#f5f5f5" stroke="transparent" points="8.5,-421.7 8.5,-444.7 193.5,-444.7 193.5,-421.7 8.5,-421.7"/>
<polygon fill="none" stroke="#000000" points="8.5,-421.7 8.5,-444.7 193.5,-444.7 193.5,-421.7 8.5,-421.7"/>
<text text-anchor="start" x="13.5" y="-430.8" font-family="Helvetica,sans-Serif" font-weight="bold" font-size="11.00" fill="#000000">TEAM</text>
<text text-anchor="start" x="158.5437" y="-429.8" font-family="Helvetica,sans-Serif" font-size="11.00" fill="#000000">[table]</text>
<polygon fill="none" stroke="#000000" points="8.5,-399.7 8.5,-421.7 193.5,-421.7 193.5,-399.7 8.5,-399.7"/>
<image xlink:href="../../images/primaryKeys.png" width="11px" height="12px" preserveAspectRatio="xMinYMin meet" x="13.5" y="-416.7"/>
<text text-anchor="start" x="28.5" y="-406.8" font-family="Helvetica,sans-Serif" font-size="11.00" fill="#000000">TEAM_ID</text>
<polygon fill="none" stroke="#000000" points="8.5,-377.7 8.5,-399.7 193.5,-399.7 193.5,-377.7 8.5,-377.7"/>
<image xlink:href="../../images/primaryKeys.png" width="11px" height="12px" preserveAspectRatio="xMinYMin meet" x="13.5" y="-394.7"/>
<text text-anchor="start" x="28.5" y="-384.8" font-family="Helvetica,sans-Serif" font-size="11.00" fill="#000000">CODE</text>
<polygon fill="none" stroke="#000000" points="8.5,-355.7 8.5,-377.7 193.5,-377.7 193.5,-355.7 8.5,-355.7"/>
<image xlink:href="../../images/primaryKeys.png" width="11px" height="12px" preserveAspectRatio="xMinYMin meet" x="13.5" y="-372.7"/>
<text text-anchor="start" x="28.5" y="-362.8" font-family="Helvetica,sans-Serif" font-size="11.00" fill="#000000">DISTRICT_ID</text>
<polygon fill="none" stroke="#000000" points="8.5,-333.7 8.5,-355.7 193.5,-355.7 193.5,-333.7 8.5,-333.7"/>
<image xlink:href="../../images/primaryKeys.png" width="11px" height="12px" preserveAspectRatio="xMinYMin meet" x="13.5" y="-350.7"/>
<text text-anchor="start" x="28.5" y="-340.8" font-family="Helvetica,sans-Serif" font-size="11.00" fill="#000000">LOCAL_DELIVERY_UNIT_ID</text>
<polygon fill="none" stroke="#000000" points="8.5,-311.7 8.5,-333.7 193.5,-333.7 193.5,-311.7 8.5,-311.7"/>
<image xlink:href="../../images/primaryKeys.png" width="11px" height="12px" preserveAspectRatio="xMinYMin meet" x="13.5" y="-328.7"/>
<text text-anchor="start" x="28.5" y="-318.8" font-family="Helvetica,sans-Serif" font-size="11.00" fill="#000000">TRAINING_SESSION_ID</text>
<polygon fill="none" stroke="#000000" points="8.5,-289.7 8.5,-311.7 193.5,-311.7 193.5,-289.7 8.5,-289.7"/>
<image xlink:href="../../images/primaryKeys.png" width="11px" height="12px" preserveAspectRatio="xMinYMin meet" x="13.5" y="-306.7"/>
<text text-anchor="start" x="28.5" y="-296.8" font-family="Helvetica,sans-Serif" font-size="11.00" fill="#000000">PROBATION_AREA_ID</text>
<polygon fill="none" stroke="#000000" points="8.5,-267.7 8.5,-289.7 193.5,-289.7 193.5,-267.7 8.5,-267.7"/>
<image xlink:href="../../images/primaryKeys.png" width="11px" height="12px" preserveAspectRatio="xMinYMin meet" x="13.5" y="-284.7"/>
<text text-anchor="start" x="28.5" y="-274.8" font-family="Helvetica,sans-Serif" font-size="11.00" fill="#000000">SC_PROVIDER_ID</text>
<polygon fill="none" stroke="#000000" points="8.5,-248.7 8.5,-267.7 193.5,-267.7 193.5,-248.7 8.5,-248.7"/>
<text text-anchor="start" x="11.5" y="-254.8" font-family="Helvetica,sans-Serif" font-size="11.00" fill="#000000">...</text>
<polygon fill="#ffffff" stroke="transparent" points="8.5,-229.7 8.5,-248.7 68.5,-248.7 68.5,-229.7 8.5,-229.7"/>
<polygon fill="none" stroke="#000000" points="8.5,-229.7 8.5,-248.7 68.5,-248.7 68.5,-229.7 8.5,-229.7"/>
<text text-anchor="start" x="11.5" y="-235.8" font-family="Helvetica,sans-Serif" font-size="11.00" fill="#000000">&lt; 4</text>
<polygon fill="#ffffff" stroke="transparent" points="68.5,-229.7 68.5,-248.7 146.5,-248.7 146.5,-229.7 68.5,-229.7"/>
<polygon fill="none" stroke="#000000" points="68.5,-229.7 68.5,-248.7 146.5,-248.7 146.5,-229.7 68.5,-229.7"/>
<text text-anchor="start" x="89.7089" y="-235.8" font-family="Helvetica,sans-Serif" font-size="11.00" fill="#000000">1,458 rows</text>
<polygon fill="#ffffff" stroke="transparent" points="146.5,-229.7 146.5,-248.7 193.5,-248.7 193.5,-229.7 146.5,-229.7"/>
<polygon fill="none" stroke="#000000" points="146.5,-229.7 146.5,-248.7 193.5,-248.7 193.5,-229.7 146.5,-229.7"/>
<text text-anchor="start" x="168.7904" y="-235.8" font-family="Helvetica,sans-Serif" font-size="11.00" fill="#000000">62 &gt;</text>
</a>
</g>
</g>
<!-- TEAM_OFFICE_LOCATION&#45;&gt;TEAM -->
<g id="edge2" class="edge">
<title>TEAM_OFFICE_LOCATION:w&#45;&gt;TEAM:e</title>
<path fill="none" stroke="#000000" d="M229.9464,-307.5082C202.4242,-326.5691 240.129,-410.7 193.5,-410.7"/>
<polygon fill="#000000" stroke="#000000" points="236.2785,-305.7924 244.9416,-307.1747 240.1392,-304.7462 244,-303.7 244,-303.7 244,-303.7 240.1392,-304.7462 243.0584,-300.2253 236.2785,-305.7924 236.2785,-305.7924"/>
<ellipse fill="none" stroke="#000000" cx="233.1898" cy="-306.6293" rx="3.2" ry="3.2"/>
</g>
</g>
</svg>
