<?xml version="1.0" encoding="UTF-8" standalone="no"?>
<!DOCTYPE svg PUBLIC "-//W3C//DTD SVG 1.1//EN"
 "http://www.w3.org/Graphics/SVG/1.1/DTD/svg11.dtd">
<!-- Generated by graphviz version 2.40.1 (20161225.0304)
 -->
<!-- Title: oneDegreeRelationshipsDiagram Pages: 1 -->
<svg width="707pt" height="501pt"
 viewBox="0.00 0.00 707.00 501.20" xmlns="http://www.w3.org/2000/svg" xmlns:xlink="http://www.w3.org/1999/xlink">
<g id="graph0" class="graph" transform="scale(1 1) rotate(0) translate(4 497.2)">
<title>oneDegreeRelationshipsDiagram</title>
<polygon fill="#ffffff" stroke="transparent" points="-4,4 -4,-497.2 703,-497.2 703,4 -4,4"/>
<text text-anchor="middle" x="72.4936" y="-7.3" font-family="Helvetica,sans-Serif" font-size="11.00" fill="#000000">Generated by SchemaSpy</text>
<!-- REGISTRATION -->
<g id="node1" class="node">
<title>REGISTRATION</title>
<g id="a_node1"><a xlink:href="../../tables/REGISTRATION.html" xlink:title="REGISTRATION" target="_top">
<polygon fill="#ffffff" stroke="transparent" points="530,-142.2 530,-489.2 691,-489.2 691,-142.2 530,-142.2"/>
<polygon fill="#f5f5f5" stroke="transparent" points="530.5,-465.7 530.5,-488.7 691.5,-488.7 691.5,-465.7 530.5,-465.7"/>
<polygon fill="none" stroke="#000000" points="530.5,-465.7 530.5,-488.7 691.5,-488.7 691.5,-465.7 530.5,-465.7"/>
<text text-anchor="start" x="535.5" y="-474.8" font-family="Helvetica,sans-Serif" font-weight="bold" font-size="11.00" fill="#000000">REGISTRATION</text>
<text text-anchor="start" x="656.5437" y="-473.8" font-family="Helvetica,sans-Serif" font-size="11.00" fill="#000000">[table]</text>
<polygon fill="none" stroke="#000000" points="530.5,-443.7 530.5,-465.7 691.5,-465.7 691.5,-443.7 530.5,-443.7"/>
<image xlink:href="../../images/primaryKeys.png" width="11px" height="12px" preserveAspectRatio="xMinYMin meet" x="535.5" y="-460.7"/>
<text text-anchor="start" x="550.5" y="-450.8" font-family="Helvetica,sans-Serif" font-size="11.00" fill="#000000">REGISTRATION_ID</text>
<polygon fill="none" stroke="#000000" points="530.5,-421.7 530.5,-443.7 691.5,-443.7 691.5,-421.7 530.5,-421.7"/>
<image xlink:href="../../images/primaryKeys.png" width="11px" height="12px" preserveAspectRatio="xMinYMin meet" x="535.5" y="-438.7"/>
<text text-anchor="start" x="550.5" y="-428.8" font-family="Helvetica,sans-Serif" font-size="11.00" fill="#000000">REGISTER_TYPE_ID</text>
<polygon fill="none" stroke="#000000" points="530.5,-399.7 530.5,-421.7 691.5,-421.7 691.5,-399.7 530.5,-399.7"/>
<image xlink:href="../../images/primaryKeys.png" width="11px" height="12px" preserveAspectRatio="xMinYMin meet" x="535.5" y="-416.7"/>
<text text-anchor="start" x="550.5" y="-406.8" font-family="Helvetica,sans-Serif" font-size="11.00" fill="#000000">OFFENDER_ID</text>
<polygon fill="none" stroke="#000000" points="530.5,-377.7 530.5,-399.7 691.5,-399.7 691.5,-377.7 530.5,-377.7"/>
<image xlink:href="../../images/primaryKeys.png" width="11px" height="12px" preserveAspectRatio="xMinYMin meet" x="535.5" y="-394.7"/>
<text text-anchor="start" x="550.5" y="-384.8" font-family="Helvetica,sans-Serif" font-size="11.00" fill="#000000">REGISTRATION_DATE</text>
<polygon fill="none" stroke="#000000" points="530.5,-355.7 530.5,-377.7 691.5,-377.7 691.5,-355.7 530.5,-355.7"/>
<image xlink:href="../../images/primaryKeys.png" width="11px" height="12px" preserveAspectRatio="xMinYMin meet" x="535.5" y="-372.7"/>
<text text-anchor="start" x="550.5" y="-362.8" font-family="Helvetica,sans-Serif" font-size="11.00" fill="#000000">REGISTERING_TEAM_ID</text>
<polygon fill="none" stroke="#000000" points="530.5,-333.7 530.5,-355.7 691.5,-355.7 691.5,-333.7 530.5,-333.7"/>
<image xlink:href="../../images/primaryKeys.png" width="11px" height="12px" preserveAspectRatio="xMinYMin meet" x="535.5" y="-350.7"/>
<text text-anchor="start" x="550.5" y="-340.8" font-family="Helvetica,sans-Serif" font-size="11.00" fill="#000000">REGISTERING_STAFF_ID</text>
<polygon fill="none" stroke="#000000" points="530.5,-311.7 530.5,-333.7 691.5,-333.7 691.5,-311.7 530.5,-311.7"/>
<image xlink:href="../../images/primaryKeys.png" width="11px" height="12px" preserveAspectRatio="xMinYMin meet" x="535.5" y="-328.7"/>
<text text-anchor="start" x="550.5" y="-318.8" font-family="Helvetica,sans-Serif" font-size="11.00" fill="#000000">SOFT_DELETED</text>
<polygon fill="none" stroke="#000000" points="530.5,-289.7 530.5,-311.7 691.5,-311.7 691.5,-289.7 530.5,-289.7"/>
<image xlink:href="../../images/primaryKeys.png" width="11px" height="12px" preserveAspectRatio="xMinYMin meet" x="535.5" y="-306.7"/>
<text text-anchor="start" x="550.5" y="-296.8" font-family="Helvetica,sans-Serif" font-size="11.00" fill="#000000">PARTITION_AREA_ID</text>
<polygon fill="none" stroke="#000000" points="530.5,-267.7 530.5,-289.7 691.5,-289.7 691.5,-267.7 530.5,-267.7"/>
<image xlink:href="../../images/primaryKeys.png" width="11px" height="12px" preserveAspectRatio="xMinYMin meet" x="535.5" y="-284.7"/>
<text text-anchor="start" x="550.5" y="-274.8" font-family="Helvetica,sans-Serif" font-size="11.00" fill="#000000">TRIGGER_OFFENCE_ID</text>
<polygon fill="none" stroke="#000000" points="530.5,-245.7 530.5,-267.7 691.5,-267.7 691.5,-245.7 530.5,-245.7"/>
<image xlink:href="../../images/primaryKeys.png" width="11px" height="12px" preserveAspectRatio="xMinYMin meet" x="535.5" y="-262.7"/>
<text text-anchor="start" x="550.5" y="-252.8" font-family="Helvetica,sans-Serif" font-size="11.00" fill="#000000">REGISTER_LEVEL_ID</text>
<polygon fill="none" stroke="#000000" points="530.5,-223.7 530.5,-245.7 691.5,-245.7 691.5,-223.7 530.5,-223.7"/>
<image xlink:href="../../images/primaryKeys.png" width="11px" height="12px" preserveAspectRatio="xMinYMin meet" x="535.5" y="-240.7"/>
<text text-anchor="start" x="547.913" y="-230.8" font-family="Helvetica,sans-Serif" font-size="11.00" fill="#000000">REGISTER_CATEGORY_ID</text>
<polygon fill="none" stroke="#000000" points="530.5,-201.7 530.5,-223.7 691.5,-223.7 691.5,-201.7 530.5,-201.7"/>
<image xlink:href="../../images/primaryKeys.png" width="11px" height="12px" preserveAspectRatio="xMinYMin meet" x="535.5" y="-218.7"/>
<text text-anchor="start" x="550.5" y="-208.8" font-family="Helvetica,sans-Serif" font-size="11.00" fill="#000000">CONTACT_ID</text>
<polygon fill="none" stroke="#000000" points="530.5,-179.7 530.5,-201.7 691.5,-201.7 691.5,-179.7 530.5,-179.7"/>
<image xlink:href="../../images/primaryKeys.png" width="11px" height="12px" preserveAspectRatio="xMinYMin meet" x="535.5" y="-196.7"/>
<text text-anchor="start" x="550.5" y="-186.8" font-family="Helvetica,sans-Serif" font-size="11.00" fill="#000000">TRAINING_SESSION_ID</text>
<polygon fill="none" stroke="#000000" points="530.5,-160.7 530.5,-179.7 691.5,-179.7 691.5,-160.7 530.5,-160.7"/>
<text text-anchor="start" x="533.5" y="-166.8" font-family="Helvetica,sans-Serif" font-size="11.00" fill="#000000">...</text>
<polygon fill="#ffffff" stroke="transparent" points="530.5,-141.7 530.5,-160.7 578.5,-160.7 578.5,-141.7 530.5,-141.7"/>
<polygon fill="none" stroke="#000000" points="530.5,-141.7 530.5,-160.7 578.5,-160.7 578.5,-141.7 530.5,-141.7"/>
<text text-anchor="start" x="533.5" y="-147.8" font-family="Helvetica,sans-Serif" font-size="11.00" fill="#000000">&lt; 9</text>
<polygon fill="#ffffff" stroke="transparent" points="578.5,-141.7 578.5,-160.7 656.5,-160.7 656.5,-141.7 578.5,-141.7"/>
<polygon fill="none" stroke="#000000" points="578.5,-141.7 578.5,-160.7 656.5,-160.7 656.5,-141.7 578.5,-141.7"/>
<text text-anchor="start" x="593.594" y="-147.8" font-family="Helvetica,sans-Serif" font-size="11.00" fill="#000000">11,163 rows</text>
<polygon fill="#ffffff" stroke="transparent" points="656.5,-141.7 656.5,-160.7 691.5,-160.7 691.5,-141.7 656.5,-141.7"/>
<polygon fill="none" stroke="#000000" points="656.5,-141.7 656.5,-160.7 691.5,-160.7 691.5,-141.7 656.5,-141.7"/>
<text text-anchor="start" x="672.9053" y="-147.8" font-family="Helvetica,sans-Serif" font-size="11.00" fill="#000000">2 &gt;</text>
</a>
</g>
</g>
<!-- R_REGISTER_TYPE -->
<g id="node2" class="node">
<title>R_REGISTER_TYPE</title>
<g id="a_node2"><a xlink:href="../../tables/R_REGISTER_TYPE.html" xlink:title="R_REGISTER_TYPE" target="_top">
<polygon fill="#ffffff" stroke="transparent" points="8,-208.2 8,-467.2 225,-467.2 225,-208.2 8,-208.2"/>
<polygon fill="#f5f5f5" stroke="transparent" points="8.5,-443.7 8.5,-466.7 225.5,-466.7 225.5,-443.7 8.5,-443.7"/>
<polygon fill="none" stroke="#000000" points="8.5,-443.7 8.5,-466.7 225.5,-466.7 225.5,-443.7 8.5,-443.7"/>
<text text-anchor="start" x="13.5" y="-452.8" font-family="Helvetica,sans-Serif" font-weight="bold" font-size="11.00" fill="#000000">R_REGISTER_TYPE</text>
<text text-anchor="start" x="190.5437" y="-451.8" font-family="Helvetica,sans-Serif" font-size="11.00" fill="#000000">[table]</text>
<polygon fill="none" stroke="#000000" points="8.5,-421.7 8.5,-443.7 225.5,-443.7 225.5,-421.7 8.5,-421.7"/>
<image xlink:href="../../images/primaryKeys.png" width="11px" height="12px" preserveAspectRatio="xMinYMin meet" x="13.5" y="-438.7"/>
<text text-anchor="start" x="28.5" y="-428.8" font-family="Helvetica,sans-Serif" font-size="11.00" fill="#000000">REGISTER_TYPE_ID</text>
<polygon fill="none" stroke="#000000" points="8.5,-399.7 8.5,-421.7 225.5,-421.7 225.5,-399.7 8.5,-399.7"/>
<image xlink:href="../../images/primaryKeys.png" width="11px" height="12px" preserveAspectRatio="xMinYMin meet" x="13.5" y="-416.7"/>
<text text-anchor="start" x="28.5" y="-406.8" font-family="Helvetica,sans-Serif" font-size="11.00" fill="#000000">CODE</text>
<polygon fill="none" stroke="#000000" points="8.5,-377.7 8.5,-399.7 225.5,-399.7 225.5,-377.7 8.5,-377.7"/>
<image xlink:href="../../images/primaryKeys.png" width="11px" height="12px" preserveAspectRatio="xMinYMin meet" x="13.5" y="-394.7"/>
<text text-anchor="start" x="28.5" y="-384.8" font-family="Helvetica,sans-Serif" font-size="11.00" fill="#000000">TRAINING_SESSION_ID</text>
<polygon fill="none" stroke="#000000" points="8.5,-355.7 8.5,-377.7 225.5,-377.7 225.5,-355.7 8.5,-355.7"/>
<image xlink:href="../../images/primaryKeys.png" width="11px" height="12px" preserveAspectRatio="xMinYMin meet" x="13.5" y="-372.7"/>
<text text-anchor="start" x="28.5" y="-362.8" font-family="Helvetica,sans-Serif" font-size="11.00" fill="#000000">REGISTER_TYPE_FLAG_ID</text>
<polygon fill="none" stroke="#000000" points="8.5,-333.7 8.5,-355.7 225.5,-355.7 225.5,-333.7 8.5,-333.7"/>
<image xlink:href="../../images/primaryKeys.png" width="11px" height="12px" preserveAspectRatio="xMinYMin meet" x="13.5" y="-350.7"/>
<text text-anchor="start" x="28.5" y="-340.8" font-family="Helvetica,sans-Serif" font-size="11.00" fill="#000000">REGISTER_TYPE_SECTOR_ID</text>
<polygon fill="none" stroke="#000000" points="8.5,-311.7 8.5,-333.7 225.5,-333.7 225.5,-311.7 8.5,-311.7"/>
<image xlink:href="../../images/primaryKeys.png" width="11px" height="12px" preserveAspectRatio="xMinYMin meet" x="13.5" y="-328.7"/>
<text text-anchor="start" x="27.6384" y="-318.8" font-family="Helvetica,sans-Serif" font-size="11.00" fill="#000000">REGISTRATION_CONTACT_TYPE_ID</text>
<polygon fill="none" stroke="#000000" points="8.5,-289.7 8.5,-311.7 225.5,-311.7 225.5,-289.7 8.5,-289.7"/>
<image xlink:href="../../images/primaryKeys.png" width="11px" height="12px" preserveAspectRatio="xMinYMin meet" x="13.5" y="-306.7"/>
<text text-anchor="start" x="20" y="-296.8" font-family="Helvetica,sans-Serif" font-size="11.00" fill="#000000">DEREGISTRATION_CONTACT_TYPE_ID</text>
<polygon fill="none" stroke="#000000" points="8.5,-267.7 8.5,-289.7 225.5,-289.7 225.5,-267.7 8.5,-267.7"/>
<image xlink:href="../../images/primaryKeys.png" width="11px" height="12px" preserveAspectRatio="xMinYMin meet" x="13.5" y="-284.7"/>
<text text-anchor="start" x="28.5" y="-274.8" font-family="Helvetica,sans-Serif" font-size="11.00" fill="#000000">REVIEW_CONTACT_TYPE_ID</text>
<polygon fill="none" stroke="#000000" points="8.5,-245.7 8.5,-267.7 225.5,-267.7 225.5,-245.7 8.5,-245.7"/>
<image xlink:href="../../images/primaryKeys.png" width="11px" height="12px" preserveAspectRatio="xMinYMin meet" x="13.5" y="-262.7"/>
<text text-anchor="start" x="28.5" y="-252.8" font-family="Helvetica,sans-Serif" font-size="11.00" fill="#000000">DELETED_CONTACT_TYPE_ID</text>
<polygon fill="none" stroke="#000000" points="8.5,-226.7 8.5,-245.7 225.5,-245.7 225.5,-226.7 8.5,-226.7"/>
<text text-anchor="start" x="11.5" y="-232.8" font-family="Helvetica,sans-Serif" font-size="11.00" fill="#000000">...</text>
<polygon fill="#ffffff" stroke="transparent" points="8.5,-207.7 8.5,-226.7 91.5,-226.7 91.5,-207.7 8.5,-207.7"/>
<polygon fill="none" stroke="#000000" points="8.5,-207.7 8.5,-226.7 91.5,-226.7 91.5,-207.7 8.5,-207.7"/>
<text text-anchor="start" x="11.5" y="-213.8" font-family="Helvetica,sans-Serif" font-size="11.00" fill="#000000">&lt; 6</text>
<polygon fill="#ffffff" stroke="transparent" points="91.5,-207.7 91.5,-226.7 172.5,-226.7 172.5,-207.7 91.5,-207.7"/>
<polygon fill="none" stroke="#000000" points="91.5,-207.7 91.5,-226.7 172.5,-226.7 172.5,-207.7 91.5,-207.7"/>
<text text-anchor="start" x="124.8807" y="-213.8" font-family="Helvetica,sans-Serif" font-size="11.00" fill="#000000">180 rows</text>
<polygon fill="#ffffff" stroke="transparent" points="172.5,-207.7 172.5,-226.7 225.5,-226.7 225.5,-207.7 172.5,-207.7"/>
<polygon fill="none" stroke="#000000" points="172.5,-207.7 172.5,-226.7 225.5,-226.7 225.5,-207.7 172.5,-207.7"/>
<text text-anchor="start" x="206.9053" y="-213.8" font-family="Helvetica,sans-Serif" font-size="11.00" fill="#000000">6 &gt;</text>
</a>
</g>
</g>
<!-- REGISTRATION&#45;&gt;R_REGISTER_TYPE -->
<g id="edge1" class="edge">
<title>REGISTRATION:w&#45;&gt;R_REGISTER_TYPE:e</title>
<path fill="none" stroke="#000000" d="M515.8185,-432.7C392.2892,-432.7 356.0252,-432.7 225.5,-432.7"/>
<polygon fill="#000000" stroke="#000000" points="522.5,-432.7001 530.5,-436.3 526.5,-432.7 530.5,-432.7 530.5,-432.7 530.5,-432.7 526.5,-432.7 530.5,-429.1 522.5,-432.7001 522.5,-432.7001"/>
<ellipse fill="none" stroke="#000000" cx="519.3" cy="-432.7001" rx="3.2" ry="3.2"/>
</g>
<!-- TRIGGER_OFFENCE -->
<g id="node3" class="node">
<title>TRIGGER_OFFENCE</title>
<g id="a_node3"><a xlink:href="../../tables/TRIGGER_OFFENCE.html" xlink:title="TRIGGER_OFFENCE" target="_top">
<polygon fill="#ffffff" stroke="transparent" points="274,-158.7 274,-314.7 481,-314.7 481,-158.7 274,-158.7"/>
<polygon fill="#f5f5f5" stroke="transparent" points="276.5,-289.7 276.5,-312.7 479.5,-312.7 479.5,-289.7 276.5,-289.7"/>
<polygon fill="none" stroke="#000000" points="276.5,-289.7 276.5,-312.7 479.5,-312.7 479.5,-289.7 276.5,-289.7"/>
<text text-anchor="start" x="281.5" y="-298.8" font-family="Helvetica,sans-Serif" font-weight="bold" font-size="11.00" fill="#000000">TRIGGER_OFFENCE</text>
<text text-anchor="start" x="444.5437" y="-297.8" font-family="Helvetica,sans-Serif" font-size="11.00" fill="#000000">[table]</text>
<polygon fill="none" stroke="#000000" points="276.5,-267.7 276.5,-289.7 418.5,-289.7 418.5,-267.7 276.5,-267.7"/>
<image xlink:href="../../images/primaryKeys.png" width="11px" height="12px" preserveAspectRatio="xMinYMin meet" x="281.5" y="-284.7"/>
<text text-anchor="start" x="292.0569" y="-274.8" font-family="Helvetica,sans-Serif" font-size="11.00" fill="#000000">TRIGGER_OFFENCE_ID</text>
<polygon fill="none" stroke="#000000" points="418.5,-267.7 418.5,-289.7 479.5,-289.7 479.5,-267.7 418.5,-267.7"/>
<text text-anchor="start" x="421.1865" y="-275.4" font-family="Helvetica,sans-Serif" font-size="11.00" fill="#000000">number[38]</text>
<polygon fill="none" stroke="#000000" points="276.5,-245.7 276.5,-267.7 418.5,-267.7 418.5,-245.7 276.5,-245.7"/>
<text text-anchor="start" x="296.5" y="-252.8" font-family="Helvetica,sans-Serif" font-size="11.00" fill="#000000">ROW_VERSION</text>
<polygon fill="none" stroke="#000000" points="418.5,-245.7 418.5,-267.7 479.5,-267.7 479.5,-245.7 418.5,-245.7"/>
<text text-anchor="start" x="421.1865" y="-253.4" font-family="Helvetica,sans-Serif" font-size="11.00" fill="#000000">number[38]</text>
<polygon fill="none" stroke="#000000" points="276.5,-223.7 276.5,-245.7 418.5,-245.7 418.5,-223.7 276.5,-223.7"/>
<image xlink:href="../../images/primaryKeys.png" width="11px" height="12px" preserveAspectRatio="xMinYMin meet" x="281.5" y="-240.7"/>
<text text-anchor="start" x="296.5" y="-230.8" font-family="Helvetica,sans-Serif" font-size="11.00" fill="#000000">REGISTER_TYPE_ID</text>
<polygon fill="none" stroke="#000000" points="418.5,-223.7 418.5,-245.7 479.5,-245.7 479.5,-223.7 418.5,-223.7"/>
<text text-anchor="start" x="421.1865" y="-231.4" font-family="Helvetica,sans-Serif" font-size="11.00" fill="#000000">number[38]</text>
<polygon fill="none" stroke="#000000" points="276.5,-201.7 276.5,-223.7 418.5,-223.7 418.5,-201.7 276.5,-201.7"/>
<image xlink:href="../../images/primaryKeys.png" width="11px" height="12px" preserveAspectRatio="xMinYMin meet" x="281.5" y="-218.7"/>
<text text-anchor="start" x="296.5" y="-208.8" font-family="Helvetica,sans-Serif" font-size="11.00" fill="#000000">OFFENCE_ID</text>
<polygon fill="none" stroke="#000000" points="418.5,-201.7 418.5,-223.7 479.5,-223.7 479.5,-201.7 418.5,-201.7"/>
<text text-anchor="start" x="421.1865" y="-209.4" font-family="Helvetica,sans-Serif" font-size="11.00" fill="#000000">number[38]</text>
<polygon fill="none" stroke="#000000" points="276.5,-179.7 276.5,-201.7 418.5,-201.7 418.5,-179.7 276.5,-179.7"/>
<image xlink:href="../../images/primaryKeys.png" width="11px" height="12px" preserveAspectRatio="xMinYMin meet" x="281.5" y="-196.7"/>
<text text-anchor="start" x="292.6625" y="-186.8" font-family="Helvetica,sans-Serif" font-size="11.00" fill="#000000">TRAINING_SESSION_ID</text>
<polygon fill="none" stroke="#000000" points="418.5,-179.7 418.5,-201.7 479.5,-201.7 479.5,-179.7 418.5,-179.7"/>
<text text-anchor="start" x="421.1865" y="-187.4" font-family="Helvetica,sans-Serif" font-size="11.00" fill="#000000">number[38]</text>
<polygon fill="#ffffff" stroke="transparent" points="276.5,-160.7 276.5,-179.7 338.5,-179.7 338.5,-160.7 276.5,-160.7"/>
<polygon fill="none" stroke="#000000" points="276.5,-160.7 276.5,-179.7 338.5,-179.7 338.5,-160.7 276.5,-160.7"/>
<text text-anchor="start" x="279.5" y="-166.8" font-family="Helvetica,sans-Serif" font-size="11.00" fill="#000000">&lt; 2</text>
<polygon fill="#ffffff" stroke="transparent" points="338.5,-160.7 338.5,-179.7 418.5,-179.7 418.5,-160.7 338.5,-160.7"/>
<polygon fill="none" stroke="#000000" points="338.5,-160.7 338.5,-179.7 418.5,-179.7 418.5,-160.7 338.5,-160.7"/>
<text text-anchor="start" x="383.1105" y="-166.8" font-family="Helvetica,sans-Serif" font-size="11.00" fill="#000000">0 rows</text>
<polygon fill="#ffffff" stroke="transparent" points="418.5,-160.7 418.5,-179.7 479.5,-179.7 479.5,-160.7 418.5,-160.7"/>
<polygon fill="none" stroke="#000000" points="418.5,-160.7 418.5,-179.7 479.5,-179.7 479.5,-160.7 418.5,-160.7"/>
<text text-anchor="start" x="460.9053" y="-166.8" font-family="Helvetica,sans-Serif" font-size="11.00" fill="#000000">1 &gt;</text>
<polygon fill="none" stroke="#000000" stroke-width="2" points="275,-159.7 275,-313.7 480,-313.7 480,-159.7 275,-159.7"/>
</a>
</g>
</g>
<!-- REGISTRATION&#45;&gt;TRIGGER_OFFENCE -->
<g id="edge2" class="edge">
<title>REGISTRATION:w&#45;&gt;TRIGGER_OFFENCE:e</title>
<path fill="none" stroke="#000000" d="M515.776,-278.7C503.7815,-278.7 496.3229,-278.7 479.5,-278.7"/>
<polygon fill="#000000" stroke="#000000" points="522.5,-278.7001 530.5,-282.3 526.5,-278.7 530.5,-278.7 530.5,-278.7 530.5,-278.7 526.5,-278.7 530.5,-275.1 522.5,-278.7001 522.5,-278.7001"/>
<ellipse fill="none" stroke="#000000" cx="519.3" cy="-278.7001" rx="3.2" ry="3.2"/>
</g>
<!-- TRIGGER_OFFENCE&#45;&gt;R_REGISTER_TYPE -->
<g id="edge4" class="edge">
<title>TRIGGER_OFFENCE:w&#45;&gt;R_REGISTER_TYPE:e</title>
<path fill="none" stroke="#000000" d="M261.9503,-236.9236C201.1051,-258.6766 310.6928,-432.7 225.5,-432.7"/>
<polygon fill="#000000" stroke="#000000" points="268.5918,-235.9087 277.0439,-238.2587 272.5459,-235.3043 276.5,-234.7 276.5,-234.7 276.5,-234.7 272.5459,-235.3043 275.9561,-231.1413 268.5918,-235.9087 268.5918,-235.9087"/>
<ellipse fill="none" stroke="#000000" cx="265.4286" cy="-236.3921" rx="3.2" ry="3.2"/>
</g>
<!-- R_OFFENCE -->
<g id="node4" class="node">
<title>R_OFFENCE</title>
<g id="a_node4"><a xlink:href="../../tables/R_OFFENCE.html" xlink:title="R_OFFENCE" target="_top">
<polygon fill="#ffffff" stroke="transparent" points="18,-38.2 18,-187.2 215,-187.2 215,-38.2 18,-38.2"/>
<polygon fill="#f5f5f5" stroke="transparent" points="18.5,-163.7 18.5,-186.7 215.5,-186.7 215.5,-163.7 18.5,-163.7"/>
<polygon fill="none" stroke="#000000" points="18.5,-163.7 18.5,-186.7 215.5,-186.7 215.5,-163.7 18.5,-163.7"/>
<text text-anchor="start" x="23.5" y="-172.8" font-family="Helvetica,sans-Serif" font-weight="bold" font-size="11.00" fill="#000000">R_OFFENCE</text>
<text text-anchor="start" x="180.5437" y="-171.8" font-family="Helvetica,sans-Serif" font-size="11.00" fill="#000000">[table]</text>
<polygon fill="none" stroke="#000000" points="18.5,-141.7 18.5,-163.7 215.5,-163.7 215.5,-141.7 18.5,-141.7"/>
<image xlink:href="../../images/primaryKeys.png" width="11px" height="12px" preserveAspectRatio="xMinYMin meet" x="23.5" y="-158.7"/>
<text text-anchor="start" x="38.5" y="-148.8" font-family="Helvetica,sans-Serif" font-size="11.00" fill="#000000">OFFENCE_ID</text>
<polygon fill="none" stroke="#000000" points="18.5,-119.7 18.5,-141.7 215.5,-141.7 215.5,-119.7 18.5,-119.7"/>
<image xlink:href="../../images/primaryKeys.png" width="11px" height="12px" preserveAspectRatio="xMinYMin meet" x="23.5" y="-136.7"/>
<text text-anchor="start" x="38.5" y="-126.8" font-family="Helvetica,sans-Serif" font-size="11.00" fill="#000000">CODE</text>
<polygon fill="none" stroke="#000000" points="18.5,-97.7 18.5,-119.7 215.5,-119.7 215.5,-97.7 18.5,-97.7"/>
<image xlink:href="../../images/primaryKeys.png" width="11px" height="12px" preserveAspectRatio="xMinYMin meet" x="23.5" y="-114.7"/>
<text text-anchor="start" x="36.4967" y="-104.8" font-family="Helvetica,sans-Serif" font-size="11.00" fill="#000000">OGRS_OFFENCE_CATEGORY_ID</text>
<polygon fill="none" stroke="#000000" points="18.5,-75.7 18.5,-97.7 215.5,-97.7 215.5,-75.7 18.5,-75.7"/>
<image xlink:href="../../images/primaryKeys.png" width="11px" height="12px" preserveAspectRatio="xMinYMin meet" x="23.5" y="-92.7"/>
<text text-anchor="start" x="38.5" y="-82.8" font-family="Helvetica,sans-Serif" font-size="11.00" fill="#000000">TRAINING_SESSION_ID</text>
<polygon fill="none" stroke="#000000" points="18.5,-56.7 18.5,-75.7 215.5,-75.7 215.5,-56.7 18.5,-56.7"/>
<text text-anchor="start" x="21.5" y="-62.8" font-family="Helvetica,sans-Serif" font-size="11.00" fill="#000000">...</text>
<polygon fill="#ffffff" stroke="transparent" points="18.5,-37.7 18.5,-56.7 87.5,-56.7 87.5,-37.7 18.5,-37.7"/>
<polygon fill="none" stroke="#000000" points="18.5,-37.7 18.5,-56.7 87.5,-56.7 87.5,-37.7 18.5,-37.7"/>
<text text-anchor="start" x="21.5" y="-43.8" font-family="Helvetica,sans-Serif" font-size="11.00" fill="#000000">&lt; 1</text>
<polygon fill="#ffffff" stroke="transparent" points="87.5,-37.7 87.5,-56.7 170.5,-56.7 170.5,-37.7 87.5,-37.7"/>
<polygon fill="none" stroke="#000000" points="87.5,-37.7 87.5,-56.7 170.5,-56.7 170.5,-37.7 87.5,-37.7"/>
<text text-anchor="start" x="113.7089" y="-43.8" font-family="Helvetica,sans-Serif" font-size="11.00" fill="#000000">1,770 rows</text>
<polygon fill="#ffffff" stroke="transparent" points="170.5,-37.7 170.5,-56.7 215.5,-56.7 215.5,-37.7 170.5,-37.7"/>
<polygon fill="none" stroke="#000000" points="170.5,-37.7 170.5,-56.7 215.5,-56.7 215.5,-37.7 170.5,-37.7"/>
<text text-anchor="start" x="196.9053" y="-43.8" font-family="Helvetica,sans-Serif" font-size="11.00" fill="#000000">4 &gt;</text>
</a>
</g>
</g>
<!-- TRIGGER_OFFENCE&#45;&gt;R_OFFENCE -->
<g id="edge3" class="edge">
<title>TRIGGER_OFFENCE:w&#45;&gt;R_OFFENCE:e</title>
<path fill="none" stroke="#000000" d="M262.4407,-208.9467C241.8274,-195.8113 247.7346,-152.7 215.5,-152.7"/>
<polygon fill="#000000" stroke="#000000" points="268.7707,-210.6365 275.5714,-216.1782 272.6353,-211.6683 276.5,-212.7 276.5,-212.7 276.5,-212.7 272.6353,-211.6683 277.4286,-209.2218 268.7707,-210.6365 268.7707,-210.6365"/>
<ellipse fill="none" stroke="#000000" cx="265.679" cy="-209.8112" rx="3.2" ry="3.2"/>
</g>
</g>
</svg>
