<?xml version="1.0" encoding="UTF-8" standalone="no"?>
<!DOCTYPE svg PUBLIC "-//W3C//DTD SVG 1.1//EN"
 "http://www.w3.org/Graphics/SVG/1.1/DTD/svg11.dtd">
<!-- Generated by graphviz version 2.40.1 (20161225.0304)
 -->
<!-- Title: oneDegreeRelationshipsDiagram Pages: 1 -->
<svg width="738pt" height="608pt"
 viewBox="0.00 0.00 738.00 607.70" xmlns="http://www.w3.org/2000/svg" xmlns:xlink="http://www.w3.org/1999/xlink">
<g id="graph0" class="graph" transform="scale(1 1) rotate(0) translate(4 603.7)">
<title>oneDegreeRelationshipsDiagram</title>
<polygon fill="#ffffff" stroke="transparent" points="-4,4 -4,-603.7 734,-603.7 734,4 -4,4"/>
<text text-anchor="middle" x="72.4936" y="-7.3" font-family="Helvetica,sans-Serif" font-size="11.00" fill="#000000">Generated by SchemaSpy</text>
<!-- UPW_DETAILS -->
<g id="node1" class="node">
<title>UPW_DETAILS</title>
<g id="a_node1"><a xlink:href="../../tables/UPW_DETAILS.html" xlink:title="UPW_DETAILS" target="_top">
<polygon fill="#ffffff" stroke="transparent" points="277,-226.7 277,-595.7 438,-595.7 438,-226.7 277,-226.7"/>
<polygon fill="#f5f5f5" stroke="transparent" points="277.5,-572.2 277.5,-595.2 438.5,-595.2 438.5,-572.2 277.5,-572.2"/>
<polygon fill="none" stroke="#000000" points="277.5,-572.2 277.5,-595.2 438.5,-595.2 438.5,-572.2 277.5,-572.2"/>
<text text-anchor="start" x="282.5" y="-581.3" font-family="Helvetica,sans-Serif" font-weight="bold" font-size="11.00" fill="#000000">UPW_DETAILS</text>
<text text-anchor="start" x="403.5437" y="-580.3" font-family="Helvetica,sans-Serif" font-size="11.00" fill="#000000">[table]</text>
<polygon fill="none" stroke="#000000" points="277.5,-550.2 277.5,-572.2 438.5,-572.2 438.5,-550.2 277.5,-550.2"/>
<image xlink:href="../../images/primaryKeys.png" width="11px" height="12px" preserveAspectRatio="xMinYMin meet" x="282.5" y="-567.2"/>
<text text-anchor="start" x="297.5" y="-557.3" font-family="Helvetica,sans-Serif" font-size="11.00" fill="#000000">UPW_DETAILS_ID</text>
<polygon fill="none" stroke="#000000" points="277.5,-528.2 277.5,-550.2 438.5,-550.2 438.5,-528.2 277.5,-528.2"/>
<image xlink:href="../../images/primaryKeys.png" width="11px" height="12px" preserveAspectRatio="xMinYMin meet" x="282.5" y="-545.2"/>
<text text-anchor="start" x="297.5" y="-535.3" font-family="Helvetica,sans-Serif" font-size="11.00" fill="#000000">DISPOSAL_ID</text>
<polygon fill="none" stroke="#000000" points="277.5,-506.2 277.5,-528.2 438.5,-528.2 438.5,-506.2 277.5,-506.2"/>
<image xlink:href="../../images/primaryKeys.png" width="11px" height="12px" preserveAspectRatio="xMinYMin meet" x="282.5" y="-523.2"/>
<text text-anchor="start" x="297.5" y="-513.3" font-family="Helvetica,sans-Serif" font-size="11.00" fill="#000000">UPW_LENGTH_MINUTES</text>
<polygon fill="none" stroke="#000000" points="277.5,-484.2 277.5,-506.2 438.5,-506.2 438.5,-484.2 277.5,-484.2"/>
<image xlink:href="../../images/primaryKeys.png" width="11px" height="12px" preserveAspectRatio="xMinYMin meet" x="282.5" y="-501.2"/>
<text text-anchor="start" x="297.5" y="-491.3" font-family="Helvetica,sans-Serif" font-size="11.00" fill="#000000">SOFT_DELETED</text>
<polygon fill="none" stroke="#000000" points="277.5,-462.2 277.5,-484.2 438.5,-484.2 438.5,-462.2 277.5,-462.2"/>
<image xlink:href="../../images/primaryKeys.png" width="11px" height="12px" preserveAspectRatio="xMinYMin meet" x="282.5" y="-479.2"/>
<text text-anchor="start" x="297.5" y="-469.3" font-family="Helvetica,sans-Serif" font-size="11.00" fill="#000000">PARTITION_AREA_ID</text>
<polygon fill="none" stroke="#000000" points="277.5,-440.2 277.5,-462.2 438.5,-462.2 438.5,-440.2 277.5,-440.2"/>
<image xlink:href="../../images/primaryKeys.png" width="11px" height="12px" preserveAspectRatio="xMinYMin meet" x="282.5" y="-457.2"/>
<text text-anchor="start" x="297.5" y="-447.3" font-family="Helvetica,sans-Serif" font-size="11.00" fill="#000000">UPW_STATUS_ID</text>
<polygon fill="none" stroke="#000000" points="277.5,-418.2 277.5,-440.2 438.5,-440.2 438.5,-418.2 277.5,-418.2"/>
<image xlink:href="../../images/primaryKeys.png" width="11px" height="12px" preserveAspectRatio="xMinYMin meet" x="282.5" y="-435.2"/>
<text text-anchor="start" x="297.5" y="-425.3" font-family="Helvetica,sans-Serif" font-size="11.00" fill="#000000">WORKED_INTENSIVELY</text>
<polygon fill="none" stroke="#000000" points="277.5,-396.2 277.5,-418.2 438.5,-418.2 438.5,-396.2 277.5,-396.2"/>
<image xlink:href="../../images/primaryKeys.png" width="11px" height="12px" preserveAspectRatio="xMinYMin meet" x="282.5" y="-413.2"/>
<text text-anchor="start" x="297.5" y="-403.3" font-family="Helvetica,sans-Serif" font-size="11.00" fill="#000000">TRAINING_SESSION_ID</text>
<polygon fill="none" stroke="#000000" points="277.5,-374.2 277.5,-396.2 438.5,-396.2 438.5,-374.2 277.5,-374.2"/>
<image xlink:href="../../images/primaryKeys.png" width="11px" height="12px" preserveAspectRatio="xMinYMin meet" x="282.5" y="-391.2"/>
<text text-anchor="start" x="297.5" y="-381.3" font-family="Helvetica,sans-Serif" font-size="11.00" fill="#000000">OFFENDER_ID</text>
<polygon fill="none" stroke="#000000" points="277.5,-352.2 277.5,-374.2 438.5,-374.2 438.5,-352.2 277.5,-352.2"/>
<image xlink:href="../../images/primaryKeys.png" width="11px" height="12px" preserveAspectRatio="xMinYMin meet" x="282.5" y="-369.2"/>
<text text-anchor="start" x="297.5" y="-359.3" font-family="Helvetica,sans-Serif" font-size="11.00" fill="#000000">TEAM_ID</text>
<polygon fill="none" stroke="#000000" points="277.5,-330.2 277.5,-352.2 438.5,-352.2 438.5,-330.2 277.5,-330.2"/>
<image xlink:href="../../images/primaryKeys.png" width="11px" height="12px" preserveAspectRatio="xMinYMin meet" x="282.5" y="-347.2"/>
<text text-anchor="start" x="297.5" y="-337.3" font-family="Helvetica,sans-Serif" font-size="11.00" fill="#000000">PROVIDER_TEAM_ID</text>
<polygon fill="none" stroke="#000000" points="277.5,-308.2 277.5,-330.2 438.5,-330.2 438.5,-308.2 277.5,-308.2"/>
<image xlink:href="../../images/primaryKeys.png" width="11px" height="12px" preserveAspectRatio="xMinYMin meet" x="282.5" y="-325.2"/>
<text text-anchor="start" x="297.5" y="-315.3" font-family="Helvetica,sans-Serif" font-size="11.00" fill="#000000">STAFF_ID</text>
<polygon fill="none" stroke="#000000" points="277.5,-286.2 277.5,-308.2 438.5,-308.2 438.5,-286.2 277.5,-286.2"/>
<image xlink:href="../../images/primaryKeys.png" width="11px" height="12px" preserveAspectRatio="xMinYMin meet" x="282.5" y="-303.2"/>
<text text-anchor="start" x="294.9075" y="-293.3" font-family="Helvetica,sans-Serif" font-size="11.00" fill="#000000">PROVIDER_EMPLOYEE_ID</text>
<polygon fill="none" stroke="#000000" points="277.5,-264.2 277.5,-286.2 438.5,-286.2 438.5,-264.2 277.5,-264.2"/>
<image xlink:href="../../images/foreignKeys.png" width="11px" height="12px" preserveAspectRatio="xMinYMin meet" x="282.5" y="-281.2"/>
<text text-anchor="start" x="292.779" y="-271.3" font-family="Helvetica,sans-Serif" font-size="11.00" fill="#000000">UPW_STATUS_CHANGE_ID</text>
<polygon fill="none" stroke="#000000" points="277.5,-245.2 277.5,-264.2 438.5,-264.2 438.5,-245.2 277.5,-245.2"/>
<text text-anchor="start" x="280.5" y="-251.3" font-family="Helvetica,sans-Serif" font-size="11.00" fill="#000000">...</text>
<polygon fill="#ffffff" stroke="transparent" points="277.5,-226.2 277.5,-245.2 328.5,-245.2 328.5,-226.2 277.5,-226.2"/>
<polygon fill="none" stroke="#000000" points="277.5,-226.2 277.5,-245.2 328.5,-245.2 328.5,-226.2 277.5,-226.2"/>
<text text-anchor="start" x="280.5" y="-232.3" font-family="Helvetica,sans-Serif" font-size="11.00" fill="#000000">&lt; 9</text>
<polygon fill="#ffffff" stroke="transparent" points="328.5,-226.2 328.5,-245.2 402.5,-245.2 402.5,-226.2 328.5,-226.2"/>
<polygon fill="none" stroke="#000000" points="328.5,-226.2 328.5,-245.2 402.5,-245.2 402.5,-226.2 328.5,-226.2"/>
<text text-anchor="start" x="345.7089" y="-232.3" font-family="Helvetica,sans-Serif" font-size="11.00" fill="#000000">2,669 rows</text>
<polygon fill="#ffffff" stroke="transparent" points="402.5,-226.2 402.5,-245.2 438.5,-245.2 438.5,-226.2 402.5,-226.2"/>
<polygon fill="none" stroke="#000000" points="402.5,-226.2 402.5,-245.2 438.5,-245.2 438.5,-226.2 402.5,-226.2"/>
<text text-anchor="start" x="419.9053" y="-232.3" font-family="Helvetica,sans-Serif" font-size="11.00" fill="#000000">4 &gt;</text>
</a>
</g>
</g>
<!-- R_STANDARD_REFERENCE_LIST -->
<g id="node2" class="node">
<title>R_STANDARD_REFERENCE_LIST</title>
<g id="a_node2"><a xlink:href="../../tables/R_STANDARD_REFERENCE_LIST.html" xlink:title="R_STANDARD_REFERENCE_LIST" target="_top">
<polygon fill="#ffffff" stroke="transparent" points="8,-123.7 8,-272.7 228,-272.7 228,-123.7 8,-123.7"/>
<polygon fill="#f5f5f5" stroke="transparent" points="8,-249.2 8,-272.2 228,-272.2 228,-249.2 8,-249.2"/>
<polygon fill="none" stroke="#000000" points="8,-249.2 8,-272.2 228,-272.2 228,-249.2 8,-249.2"/>
<text text-anchor="start" x="12.5842" y="-258.3" font-family="Helvetica,sans-Serif" font-weight="bold" font-size="11.00" fill="#000000">R_STANDARD_REFERENCE_LIST</text>
<text text-anchor="start" x="193.5219" y="-257.3" font-family="Helvetica,sans-Serif" font-size="11.00" fill="#000000">[table]</text>
<polygon fill="none" stroke="#000000" points="8,-227.2 8,-249.2 228,-249.2 228,-227.2 8,-227.2"/>
<image xlink:href="../../images/primaryKeys.png" width="11px" height="12px" preserveAspectRatio="xMinYMin meet" x="13" y="-244.2"/>
<text text-anchor="start" x="35.5558" y="-234.3" font-family="Helvetica,sans-Serif" font-size="11.00" fill="#000000">STANDARD_REFERENCE_LIST_ID</text>
<polygon fill="none" stroke="#000000" points="8,-205.2 8,-227.2 228,-227.2 228,-205.2 8,-205.2"/>
<image xlink:href="../../images/primaryKeys.png" width="11px" height="12px" preserveAspectRatio="xMinYMin meet" x="13" y="-222.2"/>
<text text-anchor="start" x="42" y="-212.3" font-family="Helvetica,sans-Serif" font-size="11.00" fill="#000000">CODE_VALUE</text>
<polygon fill="none" stroke="#000000" points="8,-183.2 8,-205.2 228,-205.2 228,-183.2 8,-183.2"/>
<image xlink:href="../../images/primaryKeys.png" width="11px" height="12px" preserveAspectRatio="xMinYMin meet" x="13" y="-200.2"/>
<text text-anchor="start" x="39.8337" y="-190.3" font-family="Helvetica,sans-Serif" font-size="11.00" fill="#000000">REFERENCE_DATA_MASTER_ID</text>
<polygon fill="none" stroke="#000000" points="8,-161.2 8,-183.2 228,-183.2 228,-161.2 8,-161.2"/>
<image xlink:href="../../images/primaryKeys.png" width="11px" height="12px" preserveAspectRatio="xMinYMin meet" x="13" y="-178.2"/>
<text text-anchor="start" x="42" y="-168.3" font-family="Helvetica,sans-Serif" font-size="11.00" fill="#000000">TRAINING_SESSION_ID</text>
<polygon fill="none" stroke="#000000" points="8,-142.2 8,-161.2 228,-161.2 228,-142.2 8,-142.2"/>
<text text-anchor="start" x="11" y="-148.3" font-family="Helvetica,sans-Serif" font-size="11.00" fill="#000000">...</text>
<polygon fill="#ffffff" stroke="transparent" points="8,-123.2 8,-142.2 79,-142.2 79,-123.2 8,-123.2"/>
<polygon fill="none" stroke="#000000" points="8,-123.2 8,-142.2 79,-142.2 79,-123.2 8,-123.2"/>
<text text-anchor="start" x="11" y="-129.3" font-family="Helvetica,sans-Serif" font-size="11.00" fill="#000000">&lt; 1</text>
<polygon fill="#ffffff" stroke="transparent" points="79,-123.2 79,-142.2 169,-142.2 169,-123.2 79,-123.2"/>
<polygon fill="none" stroke="#000000" points="79,-123.2 79,-142.2 169,-142.2 169,-123.2 79,-123.2"/>
<text text-anchor="start" x="106.094" y="-129.3" font-family="Helvetica,sans-Serif" font-size="11.00" fill="#000000">15,391 rows</text>
<polygon fill="#ffffff" stroke="transparent" points="169,-123.2 169,-142.2 228,-142.2 228,-123.2 169,-123.2"/>
<polygon fill="none" stroke="#000000" points="169,-123.2 169,-142.2 228,-142.2 228,-123.2 169,-123.2"/>
<text text-anchor="start" x="197.1755" y="-129.3" font-family="Helvetica,sans-Serif" font-size="11.00" fill="#000000">294 &gt;</text>
</a>
</g>
</g>
<!-- UPW_DETAILS&#45;&gt;R_STANDARD_REFERENCE_LIST -->
<g id="edge1" class="edge">
<title>UPW_DETAILS:w&#45;&gt;R_STANDARD_REFERENCE_LIST:e</title>
<path fill="none" stroke="#000000" d="M263.5092,-270.6631C250.8361,-260.783 249.4584,-238.2 228,-238.2"/>
<polygon fill="#000000" stroke="#000000" points="269.8901,-272.7322 276.3895,-278.6244 273.6951,-273.9661 277.5,-275.2 277.5,-275.2 277.5,-275.2 273.6951,-273.9661 278.6105,-271.7756 269.8901,-272.7322 269.8901,-272.7322"/>
<ellipse fill="none" stroke="#000000" cx="266.8462" cy="-271.7451" rx="3.2" ry="3.2"/>
</g>
<!-- UPW_DETAILS&#45;&gt;R_STANDARD_REFERENCE_LIST -->
<g id="edge2" class="edge">
<title>UPW_DETAILS:w&#45;&gt;R_STANDARD_REFERENCE_LIST:e</title>
<path fill="none" stroke="#000000" d="M263.2272,-449.2274C195.9461,-427.7544 319.6845,-238.2 228,-238.2"/>
<polygon fill="#000000" stroke="#000000" points="269.5753,-450.1047 277.0071,-454.7661 273.5377,-450.6524 277.5,-451.2 277.5,-451.2 277.5,-451.2 273.5377,-450.6524 277.9929,-447.6339 269.5753,-450.1047 269.5753,-450.1047"/>
<ellipse fill="none" stroke="#000000" cx="266.4055" cy="-449.6666" rx="3.2" ry="3.2"/>
</g>
<!-- UPW_STATUS_HISTORY -->
<g id="node3" class="node">
<title>UPW_STATUS_HISTORY</title>
<g id="a_node3"><a xlink:href="../../tables/UPW_STATUS_HISTORY.html" xlink:title="UPW_STATUS_HISTORY" target="_top">
<polygon fill="#ffffff" stroke="transparent" points="487,-38.2 487,-282.2 722,-282.2 722,-38.2 487,-38.2"/>
<polygon fill="#f5f5f5" stroke="transparent" points="489.5,-257.2 489.5,-280.2 720.5,-280.2 720.5,-257.2 489.5,-257.2"/>
<polygon fill="none" stroke="#000000" points="489.5,-257.2 489.5,-280.2 720.5,-280.2 720.5,-257.2 489.5,-257.2"/>
<text text-anchor="start" x="494.5" y="-266.3" font-family="Helvetica,sans-Serif" font-weight="bold" font-size="11.00" fill="#000000">UPW_STATUS_HISTORY</text>
<text text-anchor="start" x="685.5437" y="-265.3" font-family="Helvetica,sans-Serif" font-size="11.00" fill="#000000">[table]</text>
<polygon fill="none" stroke="#000000" points="489.5,-235.2 489.5,-257.2 659.5,-257.2 659.5,-235.2 489.5,-235.2"/>
<image xlink:href="../../images/primaryKeys.png" width="11px" height="12px" preserveAspectRatio="xMinYMin meet" x="494.5" y="-252.2"/>
<text text-anchor="start" x="508.3611" y="-242.3" font-family="Helvetica,sans-Serif" font-size="11.00" fill="#000000">UPW_STATUS_HISTORY_ID</text>
<polygon fill="none" stroke="#000000" points="659.5,-235.2 659.5,-257.2 720.5,-257.2 720.5,-235.2 659.5,-235.2"/>
<text text-anchor="start" x="662.1865" y="-242.9" font-family="Helvetica,sans-Serif" font-size="11.00" fill="#000000">number[38]</text>
<polygon fill="none" stroke="#000000" points="489.5,-213.2 489.5,-235.2 659.5,-235.2 659.5,-213.2 489.5,-213.2"/>
<image xlink:href="../../images/primaryKeys.png" width="11px" height="12px" preserveAspectRatio="xMinYMin meet" x="494.5" y="-230.2"/>
<text text-anchor="start" x="509.5" y="-220.3" font-family="Helvetica,sans-Serif" font-size="11.00" fill="#000000">UPW_DETAILS_ID</text>
<polygon fill="none" stroke="#000000" points="659.5,-213.2 659.5,-235.2 720.5,-235.2 720.5,-213.2 659.5,-213.2"/>
<text text-anchor="start" x="662.1865" y="-220.9" font-family="Helvetica,sans-Serif" font-size="11.00" fill="#000000">number[38]</text>
<polygon fill="none" stroke="#000000" points="489.5,-191.2 489.5,-213.2 659.5,-213.2 659.5,-191.2 489.5,-191.2"/>
<image xlink:href="../../images/primaryKeys.png" width="11px" height="12px" preserveAspectRatio="xMinYMin meet" x="494.5" y="-208.2"/>
<text text-anchor="start" x="509.5" y="-198.3" font-family="Helvetica,sans-Serif" font-size="11.00" fill="#000000">UPW_STATUS_ID</text>
<polygon fill="none" stroke="#000000" points="659.5,-191.2 659.5,-213.2 720.5,-213.2 720.5,-191.2 659.5,-191.2"/>
<text text-anchor="start" x="662.1865" y="-198.9" font-family="Helvetica,sans-Serif" font-size="11.00" fill="#000000">number[38]</text>
<polygon fill="none" stroke="#000000" points="489.5,-169.2 489.5,-191.2 659.5,-191.2 659.5,-169.2 489.5,-169.2"/>
<image xlink:href="../../images/foreignKeys.png" width="11px" height="12px" preserveAspectRatio="xMinYMin meet" x="494.5" y="-186.2"/>
<text text-anchor="start" x="504.6926" y="-176.3" font-family="Helvetica,sans-Serif" font-size="11.00" fill="#000000">UPW_SUSPEND_REASON_ID</text>
<polygon fill="none" stroke="#000000" points="659.5,-169.2 659.5,-191.2 720.5,-191.2 720.5,-169.2 659.5,-169.2"/>
<text text-anchor="start" x="662.1865" y="-176.9" font-family="Helvetica,sans-Serif" font-size="11.00" fill="#000000">number[38]</text>
<polygon fill="none" stroke="#000000" points="489.5,-147.2 489.5,-169.2 659.5,-169.2 659.5,-147.2 489.5,-147.2"/>
<text text-anchor="start" x="509.5" y="-154.3" font-family="Helvetica,sans-Serif" font-size="11.00" fill="#000000">ROW_VERSION</text>
<polygon fill="none" stroke="#000000" points="659.5,-147.2 659.5,-169.2 720.5,-169.2 720.5,-147.2 659.5,-147.2"/>
<text text-anchor="start" x="662.1865" y="-154.9" font-family="Helvetica,sans-Serif" font-size="11.00" fill="#000000">number[38]</text>
<polygon fill="none" stroke="#000000" points="489.5,-125.2 489.5,-147.2 659.5,-147.2 659.5,-125.2 489.5,-125.2"/>
<text text-anchor="start" x="509.5" y="-132.3" font-family="Helvetica,sans-Serif" font-size="11.00" fill="#000000">CREATED_BY_USER_ID</text>
<polygon fill="none" stroke="#000000" points="659.5,-125.2 659.5,-147.2 720.5,-147.2 720.5,-125.2 659.5,-125.2"/>
<text text-anchor="start" x="662.1865" y="-132.9" font-family="Helvetica,sans-Serif" font-size="11.00" fill="#000000">number[38]</text>
<polygon fill="none" stroke="#000000" points="489.5,-103.2 489.5,-125.2 659.5,-125.2 659.5,-103.2 489.5,-103.2"/>
<text text-anchor="start" x="509.5" y="-110.3" font-family="Helvetica,sans-Serif" font-size="11.00" fill="#000000">CREATED_DATETIME</text>
<polygon fill="none" stroke="#000000" points="659.5,-103.2 659.5,-125.2 720.5,-125.2 720.5,-103.2 659.5,-103.2"/>
<text text-anchor="start" x="662.5" y="-110.9" font-family="Helvetica,sans-Serif" font-size="11.00" fill="#000000">date[7]</text>
<polygon fill="none" stroke="#000000" points="489.5,-81.2 489.5,-103.2 659.5,-103.2 659.5,-81.2 489.5,-81.2"/>
<text text-anchor="start" x="509.5" y="-88.3" font-family="Helvetica,sans-Serif" font-size="11.00" fill="#000000">LAST_UPDATED_USER_ID</text>
<polygon fill="none" stroke="#000000" points="659.5,-81.2 659.5,-103.2 720.5,-103.2 720.5,-81.2 659.5,-81.2"/>
<text text-anchor="start" x="662.1865" y="-88.9" font-family="Helvetica,sans-Serif" font-size="11.00" fill="#000000">number[38]</text>
<polygon fill="none" stroke="#000000" points="489.5,-59.2 489.5,-81.2 659.5,-81.2 659.5,-59.2 489.5,-59.2"/>
<text text-anchor="start" x="508.0531" y="-66.3" font-family="Helvetica,sans-Serif" font-size="11.00" fill="#000000">LAST_UPDATED_DATETIME</text>
<polygon fill="none" stroke="#000000" points="659.5,-59.2 659.5,-81.2 720.5,-81.2 720.5,-59.2 659.5,-59.2"/>
<text text-anchor="start" x="662.5" y="-66.9" font-family="Helvetica,sans-Serif" font-size="11.00" fill="#000000">date[7]</text>
<polygon fill="#ffffff" stroke="transparent" points="489.5,-40.2 489.5,-59.2 552.5,-59.2 552.5,-40.2 489.5,-40.2"/>
<polygon fill="none" stroke="#000000" points="489.5,-40.2 489.5,-59.2 552.5,-59.2 552.5,-40.2 489.5,-40.2"/>
<text text-anchor="start" x="492.5" y="-46.3" font-family="Helvetica,sans-Serif" font-size="11.00" fill="#000000">&lt; 3</text>
<polygon fill="#ffffff" stroke="transparent" points="552.5,-40.2 552.5,-59.2 659.5,-59.2 659.5,-40.2 552.5,-40.2"/>
<polygon fill="none" stroke="#000000" points="552.5,-40.2 552.5,-59.2 659.5,-59.2 659.5,-40.2 552.5,-40.2"/>
<text text-anchor="start" x="596.594" y="-46.3" font-family="Helvetica,sans-Serif" font-size="11.00" fill="#000000">59,241 rows</text>
<polygon fill="#ffffff" stroke="transparent" points="659.5,-40.2 659.5,-59.2 720.5,-59.2 720.5,-40.2 659.5,-40.2"/>
<polygon fill="none" stroke="#000000" points="659.5,-40.2 659.5,-59.2 720.5,-59.2 720.5,-40.2 659.5,-40.2"/>
<text text-anchor="start" x="701.9053" y="-46.3" font-family="Helvetica,sans-Serif" font-size="11.00" fill="#000000">0 &gt;</text>
<polygon fill="none" stroke="#000000" stroke-width="2" points="488,-39.2 488,-281.2 721,-281.2 721,-39.2 488,-39.2"/>
</a>
</g>
</g>
<!-- UPW_STATUS_HISTORY&#45;&gt;UPW_DETAILS -->
<g id="edge3" class="edge">
<title>UPW_STATUS_HISTORY:w&#45;&gt;UPW_DETAILS:e</title>
<path fill="none" stroke="#000000" d="M474.9841,-225.4203C355.2345,-247.4788 584.6576,-561.2 438.5,-561.2"/>
<polygon fill="#000000" stroke="#000000" points="481.5281,-224.8702 489.8016,-227.7873 485.5141,-224.5351 489.5,-224.2 489.5,-224.2 489.5,-224.2 485.5141,-224.5351 489.1984,-220.6127 481.5281,-224.8702 481.5281,-224.8702"/>
<ellipse fill="none" stroke="#000000" cx="478.3394" cy="-225.1383" rx="3.2" ry="3.2"/>
</g>
<!-- UPW_STATUS_HISTORY&#45;&gt;R_STANDARD_REFERENCE_LIST -->
<g id="edge4" class="edge">
<title>UPW_STATUS_HISTORY:w&#45;&gt;R_STANDARD_REFERENCE_LIST:e</title>
<path fill="none" stroke="#000000" d="M475.0664,-202.1068C388.3001,-200.9883 358.6334,-190.6247 269,-216.2 249.1139,-221.8742 248.6798,-238.2 228,-238.2"/>
<polygon fill="#000000" stroke="#000000" points="481.5002,-202.1483 489.4767,-205.7999 485.5001,-202.1741 489.5,-202.2 489.5,-202.2 489.5,-202.2 485.5001,-202.1741 489.5233,-198.6001 481.5002,-202.1483 481.5002,-202.1483"/>
<ellipse fill="none" stroke="#000000" cx="478.3002" cy="-202.1276" rx="3.2" ry="3.2"/>
</g>
<!-- UPW_STATUS_HISTORY&#45;&gt;R_STANDARD_REFERENCE_LIST -->
<g id="edge5" class="edge">
<title>UPW_STATUS_HISTORY:w&#45;&gt;R_STANDARD_REFERENCE_LIST:e</title>
<path fill="none" stroke="#000000" d="M475.022,-180.0058C387.7438,-177.6636 353.4146,-155.6073 269,-195.2 245.0929,-206.4131 254.4061,-238.2 228,-238.2"/>
<polygon fill="#000000" stroke="#000000" points="481.5007,-180.0927 489.4517,-183.7997 485.5004,-180.1463 489.5,-180.2 489.5,-180.2 489.5,-180.2 485.5004,-180.1463 489.5483,-176.6003 481.5007,-180.0927 481.5007,-180.0927"/>
<ellipse fill="none" stroke="#000000" cx="478.301" cy="-180.0497" rx="3.2" ry="3.2"/>
</g>
</g>
</svg>
