<?xml version="1.0" encoding="UTF-8" standalone="no"?>
<!DOCTYPE svg PUBLIC "-//W3C//DTD SVG 1.1//EN"
 "http://www.w3.org/Graphics/SVG/1.1/DTD/svg11.dtd">
<!-- Generated by graphviz version 2.40.1 (20161225.0304)
 -->
<!-- Title: oneDegreeRelationshipsDiagram Pages: 1 -->
<svg width="842pt" height="993pt"
 viewBox="0.00 0.00 842.00 993.46" xmlns="http://www.w3.org/2000/svg" xmlns:xlink="http://www.w3.org/1999/xlink">
<g id="graph0" class="graph" transform="scale(1 1) rotate(0) translate(4 989.4593)">
<title>oneDegreeRelationshipsDiagram</title>
<polygon fill="#ffffff" stroke="transparent" points="-4,4 -4,-989.4593 838,-989.4593 838,4 -4,4"/>
<text text-anchor="middle" x="72.4936" y="-7.3" font-family="Helvetica,sans-Serif" font-size="11.00" fill="#000000">Generated by SchemaSpy</text>
<!-- UPW_PROJECT -->
<g id="node1" class="node">
<title>UPW_PROJECT</title>
<g id="a_node1"><a xlink:href="../../tables/UPW_PROJECT.html" xlink:title="UPW_PROJECT" target="_top">
<polygon fill="#ffffff" stroke="transparent" points="277,-412.7 277,-935.7 497,-935.7 497,-412.7 277,-412.7"/>
<polygon fill="#f5f5f5" stroke="transparent" points="277,-912.2 277,-935.2 497,-935.2 497,-912.2 277,-912.2"/>
<polygon fill="none" stroke="#000000" points="277,-912.2 277,-935.2 497,-935.2 497,-912.2 277,-912.2"/>
<text text-anchor="start" x="282" y="-921.3" font-family="Helvetica,sans-Serif" font-weight="bold" font-size="11.00" fill="#000000">UPW_PROJECT</text>
<text text-anchor="start" x="462.0437" y="-920.3" font-family="Helvetica,sans-Serif" font-size="11.00" fill="#000000">[table]</text>
<polygon fill="none" stroke="#000000" points="277,-890.2 277,-912.2 497,-912.2 497,-890.2 277,-890.2"/>
<image xlink:href="../../images/primaryKeys.png" width="11px" height="12px" preserveAspectRatio="xMinYMin meet" x="282" y="-907.2"/>
<text text-anchor="start" x="297" y="-897.3" font-family="Helvetica,sans-Serif" font-size="11.00" fill="#000000">UPW_PROJECT_ID</text>
<polygon fill="none" stroke="#000000" points="277,-868.2 277,-890.2 497,-890.2 497,-868.2 277,-868.2"/>
<image xlink:href="../../images/primaryKeys.png" width="11px" height="12px" preserveAspectRatio="xMinYMin meet" x="282" y="-885.2"/>
<text text-anchor="start" x="297" y="-875.3" font-family="Helvetica,sans-Serif" font-size="11.00" fill="#000000">NAME</text>
<polygon fill="none" stroke="#000000" points="277,-846.2 277,-868.2 497,-868.2 497,-846.2 277,-846.2"/>
<image xlink:href="../../images/primaryKeys.png" width="11px" height="12px" preserveAspectRatio="xMinYMin meet" x="282" y="-863.2"/>
<text text-anchor="start" x="290" y="-853.3" font-family="Helvetica,sans-Serif" font-size="11.00" fill="#000000">BENEFICIARY_CONTACT_ADDRESS_ID</text>
<polygon fill="none" stroke="#000000" points="277,-824.2 277,-846.2 497,-846.2 497,-824.2 277,-824.2"/>
<image xlink:href="../../images/primaryKeys.png" width="11px" height="12px" preserveAspectRatio="xMinYMin meet" x="282" y="-841.2"/>
<text text-anchor="start" x="297" y="-831.3" font-family="Helvetica,sans-Serif" font-size="11.00" fill="#000000">PLACEMENT_ADDRESS_ID</text>
<polygon fill="none" stroke="#000000" points="277,-802.2 277,-824.2 497,-824.2 497,-802.2 277,-802.2"/>
<image xlink:href="../../images/primaryKeys.png" width="11px" height="12px" preserveAspectRatio="xMinYMin meet" x="282" y="-819.2"/>
<text text-anchor="start" x="297" y="-809.3" font-family="Helvetica,sans-Serif" font-size="11.00" fill="#000000">PARTITION_AREA_ID</text>
<polygon fill="none" stroke="#000000" points="277,-780.2 277,-802.2 497,-802.2 497,-780.2 277,-780.2"/>
<image xlink:href="../../images/primaryKeys.png" width="11px" height="12px" preserveAspectRatio="xMinYMin meet" x="282" y="-797.2"/>
<text text-anchor="start" x="297" y="-787.3" font-family="Helvetica,sans-Serif" font-size="11.00" fill="#000000">PROJECT_TYPE_ID</text>
<polygon fill="none" stroke="#000000" points="277,-758.2 277,-780.2 497,-780.2 497,-758.2 277,-758.2"/>
<image xlink:href="../../images/primaryKeys.png" width="11px" height="12px" preserveAspectRatio="xMinYMin meet" x="282" y="-775.2"/>
<text text-anchor="start" x="297" y="-765.3" font-family="Helvetica,sans-Serif" font-size="11.00" fill="#000000">TRAINING_SESSION_ID</text>
<polygon fill="none" stroke="#000000" points="277,-736.2 277,-758.2 497,-758.2 497,-736.2 277,-736.2"/>
<image xlink:href="../../images/primaryKeys.png" width="11px" height="12px" preserveAspectRatio="xMinYMin meet" x="282" y="-753.2"/>
<text text-anchor="start" x="297" y="-743.3" font-family="Helvetica,sans-Serif" font-size="11.00" fill="#000000">TEAM_ID</text>
<polygon fill="none" stroke="#000000" points="277,-714.2 277,-736.2 497,-736.2 497,-714.2 277,-714.2"/>
<image xlink:href="../../images/primaryKeys.png" width="11px" height="12px" preserveAspectRatio="xMinYMin meet" x="282" y="-731.2"/>
<text text-anchor="start" x="297" y="-721.3" font-family="Helvetica,sans-Serif" font-size="11.00" fill="#000000">PROVIDER_TEAM_ID</text>
<polygon fill="none" stroke="#000000" points="277,-692.2 277,-714.2 497,-714.2 497,-692.2 277,-692.2"/>
<image xlink:href="../../images/primaryKeys.png" width="11px" height="12px" preserveAspectRatio="xMinYMin meet" x="282" y="-709.2"/>
<text text-anchor="start" x="297" y="-699.3" font-family="Helvetica,sans-Serif" font-size="11.00" fill="#000000">PROBATION_AREA_ID</text>
<polygon fill="none" stroke="#000000" points="277,-670.2 277,-692.2 497,-692.2 497,-670.2 277,-670.2"/>
<image xlink:href="../../images/primaryKeys.png" width="11px" height="12px" preserveAspectRatio="xMinYMin meet" x="282" y="-687.2"/>
<text text-anchor="start" x="297" y="-677.3" font-family="Helvetica,sans-Serif" font-size="11.00" fill="#000000">COMMISSIONING_SOURCE_1</text>
<polygon fill="none" stroke="#000000" points="277,-648.2 277,-670.2 497,-670.2 497,-648.2 277,-648.2"/>
<image xlink:href="../../images/primaryKeys.png" width="11px" height="12px" preserveAspectRatio="xMinYMin meet" x="282" y="-665.2"/>
<text text-anchor="start" x="297" y="-655.3" font-family="Helvetica,sans-Serif" font-size="11.00" fill="#000000">COMMISSIONING_SOURCE_2</text>
<polygon fill="none" stroke="#000000" points="277,-626.2 277,-648.2 497,-648.2 497,-626.2 277,-626.2"/>
<image xlink:href="../../images/primaryKeys.png" width="11px" height="12px" preserveAspectRatio="xMinYMin meet" x="282" y="-643.2"/>
<text text-anchor="start" x="297" y="-633.3" font-family="Helvetica,sans-Serif" font-size="11.00" fill="#000000">COMMISSIONING_SOURCE_3</text>
<polygon fill="none" stroke="#000000" points="277,-604.2 277,-626.2 497,-626.2 497,-604.2 277,-604.2"/>
<image xlink:href="../../images/primaryKeys.png" width="11px" height="12px" preserveAspectRatio="xMinYMin meet" x="282" y="-621.2"/>
<text text-anchor="start" x="297" y="-611.3" font-family="Helvetica,sans-Serif" font-size="11.00" fill="#000000">COMMISSIONING_SOURCE_4</text>
<polygon fill="none" stroke="#000000" points="277,-582.2 277,-604.2 497,-604.2 497,-582.2 277,-582.2"/>
<image xlink:href="../../images/primaryKeys.png" width="11px" height="12px" preserveAspectRatio="xMinYMin meet" x="282" y="-599.2"/>
<text text-anchor="start" x="297" y="-589.3" font-family="Helvetica,sans-Serif" font-size="11.00" fill="#000000">COMMISSIONING_SOURCE_5</text>
<polygon fill="none" stroke="#000000" points="277,-560.2 277,-582.2 497,-582.2 497,-560.2 277,-560.2"/>
<image xlink:href="../../images/primaryKeys.png" width="11px" height="12px" preserveAspectRatio="xMinYMin meet" x="282" y="-577.2"/>
<text text-anchor="start" x="297" y="-567.3" font-family="Helvetica,sans-Serif" font-size="11.00" fill="#000000">UPW_DIVERSITY_1</text>
<polygon fill="none" stroke="#000000" points="277,-538.2 277,-560.2 497,-560.2 497,-538.2 277,-538.2"/>
<image xlink:href="../../images/primaryKeys.png" width="11px" height="12px" preserveAspectRatio="xMinYMin meet" x="282" y="-555.2"/>
<text text-anchor="start" x="297" y="-545.3" font-family="Helvetica,sans-Serif" font-size="11.00" fill="#000000">UPW_DIVERSITY_2</text>
<polygon fill="none" stroke="#000000" points="277,-516.2 277,-538.2 497,-538.2 497,-516.2 277,-516.2"/>
<image xlink:href="../../images/primaryKeys.png" width="11px" height="12px" preserveAspectRatio="xMinYMin meet" x="282" y="-533.2"/>
<text text-anchor="start" x="297" y="-523.3" font-family="Helvetica,sans-Serif" font-size="11.00" fill="#000000">UPW_DIVERSITY_3</text>
<polygon fill="none" stroke="#000000" points="277,-494.2 277,-516.2 497,-516.2 497,-494.2 277,-494.2"/>
<image xlink:href="../../images/primaryKeys.png" width="11px" height="12px" preserveAspectRatio="xMinYMin meet" x="282" y="-511.2"/>
<text text-anchor="start" x="297" y="-501.3" font-family="Helvetica,sans-Serif" font-size="11.00" fill="#000000">UPW_DIVERSITY_4</text>
<polygon fill="none" stroke="#000000" points="277,-472.2 277,-494.2 497,-494.2 497,-472.2 277,-472.2"/>
<image xlink:href="../../images/primaryKeys.png" width="11px" height="12px" preserveAspectRatio="xMinYMin meet" x="282" y="-489.2"/>
<text text-anchor="start" x="297" y="-479.3" font-family="Helvetica,sans-Serif" font-size="11.00" fill="#000000">UPW_DIVERSITY_5</text>
<polygon fill="none" stroke="#000000" points="277,-450.2 277,-472.2 497,-472.2 497,-450.2 277,-450.2"/>
<image xlink:href="../../images/primaryKeys.png" width="11px" height="12px" preserveAspectRatio="xMinYMin meet" x="282" y="-467.2"/>
<text text-anchor="start" x="297" y="-457.3" font-family="Helvetica,sans-Serif" font-size="11.00" fill="#000000">PICKUP_POINT_ID</text>
<polygon fill="none" stroke="#000000" points="277,-431.2 277,-450.2 497,-450.2 497,-431.2 277,-431.2"/>
<text text-anchor="start" x="280" y="-437.3" font-family="Helvetica,sans-Serif" font-size="11.00" fill="#000000">...</text>
<polygon fill="#ffffff" stroke="transparent" points="277,-412.2 277,-431.2 365,-431.2 365,-412.2 277,-412.2"/>
<polygon fill="none" stroke="#000000" points="277,-412.2 277,-431.2 365,-431.2 365,-412.2 277,-412.2"/>
<text text-anchor="start" x="280" y="-418.3" font-family="Helvetica,sans-Serif" font-size="11.00" fill="#000000">&lt; 18</text>
<polygon fill="#ffffff" stroke="transparent" points="365,-412.2 365,-431.2 445,-431.2 445,-412.2 365,-412.2"/>
<polygon fill="none" stroke="#000000" points="365,-412.2 365,-431.2 445,-431.2 445,-412.2 365,-412.2"/>
<text text-anchor="start" x="397.3807" y="-418.3" font-family="Helvetica,sans-Serif" font-size="11.00" fill="#000000">278 rows</text>
<polygon fill="#ffffff" stroke="transparent" points="445,-412.2 445,-431.2 497,-431.2 497,-412.2 445,-412.2"/>
<polygon fill="none" stroke="#000000" points="445,-412.2 445,-431.2 497,-431.2 497,-412.2 445,-412.2"/>
<text text-anchor="start" x="478.4053" y="-418.3" font-family="Helvetica,sans-Serif" font-size="11.00" fill="#000000">5 &gt;</text>
</a>
</g>
</g>
<!-- R_STANDARD_REFERENCE_LIST -->
<g id="node2" class="node">
<title>R_STANDARD_REFERENCE_LIST</title>
<g id="a_node2"><a xlink:href="../../tables/R_STANDARD_REFERENCE_LIST.html" xlink:title="R_STANDARD_REFERENCE_LIST" target="_top">
<polygon fill="#ffffff" stroke="transparent" points="8,-456.7 8,-605.7 228,-605.7 228,-456.7 8,-456.7"/>
<polygon fill="#f5f5f5" stroke="transparent" points="8,-582.2 8,-605.2 228,-605.2 228,-582.2 8,-582.2"/>
<polygon fill="none" stroke="#000000" points="8,-582.2 8,-605.2 228,-605.2 228,-582.2 8,-582.2"/>
<text text-anchor="start" x="12.5842" y="-591.3" font-family="Helvetica,sans-Serif" font-weight="bold" font-size="11.00" fill="#000000">R_STANDARD_REFERENCE_LIST</text>
<text text-anchor="start" x="193.5219" y="-590.3" font-family="Helvetica,sans-Serif" font-size="11.00" fill="#000000">[table]</text>
<polygon fill="none" stroke="#000000" points="8,-560.2 8,-582.2 228,-582.2 228,-560.2 8,-560.2"/>
<image xlink:href="../../images/primaryKeys.png" width="11px" height="12px" preserveAspectRatio="xMinYMin meet" x="13" y="-577.2"/>
<text text-anchor="start" x="35.5558" y="-567.3" font-family="Helvetica,sans-Serif" font-size="11.00" fill="#000000">STANDARD_REFERENCE_LIST_ID</text>
<polygon fill="none" stroke="#000000" points="8,-538.2 8,-560.2 228,-560.2 228,-538.2 8,-538.2"/>
<image xlink:href="../../images/primaryKeys.png" width="11px" height="12px" preserveAspectRatio="xMinYMin meet" x="13" y="-555.2"/>
<text text-anchor="start" x="42" y="-545.3" font-family="Helvetica,sans-Serif" font-size="11.00" fill="#000000">CODE_VALUE</text>
<polygon fill="none" stroke="#000000" points="8,-516.2 8,-538.2 228,-538.2 228,-516.2 8,-516.2"/>
<image xlink:href="../../images/primaryKeys.png" width="11px" height="12px" preserveAspectRatio="xMinYMin meet" x="13" y="-533.2"/>
<text text-anchor="start" x="39.8337" y="-523.3" font-family="Helvetica,sans-Serif" font-size="11.00" fill="#000000">REFERENCE_DATA_MASTER_ID</text>
<polygon fill="none" stroke="#000000" points="8,-494.2 8,-516.2 228,-516.2 228,-494.2 8,-494.2"/>
<image xlink:href="../../images/primaryKeys.png" width="11px" height="12px" preserveAspectRatio="xMinYMin meet" x="13" y="-511.2"/>
<text text-anchor="start" x="42" y="-501.3" font-family="Helvetica,sans-Serif" font-size="11.00" fill="#000000">TRAINING_SESSION_ID</text>
<polygon fill="none" stroke="#000000" points="8,-475.2 8,-494.2 228,-494.2 228,-475.2 8,-475.2"/>
<text text-anchor="start" x="11" y="-481.3" font-family="Helvetica,sans-Serif" font-size="11.00" fill="#000000">...</text>
<polygon fill="#ffffff" stroke="transparent" points="8,-456.2 8,-475.2 79,-475.2 79,-456.2 8,-456.2"/>
<polygon fill="none" stroke="#000000" points="8,-456.2 8,-475.2 79,-475.2 79,-456.2 8,-456.2"/>
<text text-anchor="start" x="11" y="-462.3" font-family="Helvetica,sans-Serif" font-size="11.00" fill="#000000">&lt; 1</text>
<polygon fill="#ffffff" stroke="transparent" points="79,-456.2 79,-475.2 169,-475.2 169,-456.2 79,-456.2"/>
<polygon fill="none" stroke="#000000" points="79,-456.2 79,-475.2 169,-475.2 169,-456.2 79,-456.2"/>
<text text-anchor="start" x="106.094" y="-462.3" font-family="Helvetica,sans-Serif" font-size="11.00" fill="#000000">15,391 rows</text>
<polygon fill="#ffffff" stroke="transparent" points="169,-456.2 169,-475.2 228,-475.2 228,-456.2 169,-456.2"/>
<polygon fill="none" stroke="#000000" points="169,-456.2 169,-475.2 228,-475.2 228,-456.2 169,-456.2"/>
<text text-anchor="start" x="197.1755" y="-462.3" font-family="Helvetica,sans-Serif" font-size="11.00" fill="#000000">293 &gt;</text>
</a>
</g>
</g>
<!-- UPW_PROJECT&#45;&gt;R_STANDARD_REFERENCE_LIST -->
<g id="edge1" class="edge">
<title>UPW_PROJECT:w&#45;&gt;R_STANDARD_REFERENCE_LIST:e</title>
<path fill="none" stroke="#000000" d="M262.782,-677.285C235.1981,-657.6897 275.4572,-571.2 228,-571.2"/>
<polygon fill="#000000" stroke="#000000" points="269.2871,-679.0762 276.0443,-684.6708 273.1435,-680.1381 277,-681.2 277,-681.2 277,-681.2 273.1435,-680.1381 277.9557,-677.7292 269.2871,-679.0762 269.2871,-679.0762"/>
<ellipse fill="none" stroke="#000000" cx="266.2019" cy="-678.2266" rx="3.2" ry="3.2"/>
</g>
<!-- UPW_PROJECT&#45;&gt;R_STANDARD_REFERENCE_LIST -->
<g id="edge2" class="edge">
<title>UPW_PROJECT:w&#45;&gt;R_STANDARD_REFERENCE_LIST:e</title>
<path fill="none" stroke="#000000" d="M262.9863,-654.7151C241.7228,-636.7824 266.6452,-571.2 228,-571.2"/>
<polygon fill="#000000" stroke="#000000" points="269.3807,-656.7615 275.9027,-662.6287 273.1903,-657.9807 277,-659.2 277,-659.2 277,-659.2 273.1903,-657.9807 278.0973,-655.7713 269.3807,-656.7615 269.3807,-656.7615"/>
<ellipse fill="none" stroke="#000000" cx="266.333" cy="-655.7861" rx="3.2" ry="3.2"/>
</g>
<!-- UPW_PROJECT&#45;&gt;R_STANDARD_REFERENCE_LIST -->
<g id="edge3" class="edge">
<title>UPW_PROJECT:w&#45;&gt;R_STANDARD_REFERENCE_LIST:e</title>
<path fill="none" stroke="#000000" d="M263.3768,-632.4534C246.7322,-617.3202 258.5399,-571.2 228,-571.2"/>
<polygon fill="#000000" stroke="#000000" points="269.4454,-634.5678 275.8155,-640.5996 273.2227,-635.8839 277,-637.2 277,-637.2 277,-637.2 273.2227,-635.8839 278.1845,-633.8004 269.4454,-634.5678 269.4454,-634.5678"/>
<ellipse fill="none" stroke="#000000" cx="266.4236" cy="-633.5149" rx="3.2" ry="3.2"/>
</g>
<!-- UPW_PROJECT&#45;&gt;R_STANDARD_REFERENCE_LIST -->
<g id="edge4" class="edge">
<title>UPW_PROJECT:w&#45;&gt;R_STANDARD_REFERENCE_LIST:e</title>
<path fill="none" stroke="#000000" d="M263.3171,-610.4912C250.0046,-599.1404 251.324,-571.2 228,-571.2"/>
<polygon fill="#000000" stroke="#000000" points="269.4354,-612.5967 275.8285,-618.6041 273.2177,-613.8984 277,-615.2 277,-615.2 277,-615.2 273.2177,-613.8984 278.1715,-611.7959 269.4354,-612.5967 269.4354,-612.5967"/>
<ellipse fill="none" stroke="#000000" cx="266.4096" cy="-611.5554" rx="3.2" ry="3.2"/>
</g>
<!-- UPW_PROJECT&#45;&gt;R_STANDARD_REFERENCE_LIST -->
<g id="edge5" class="edge">
<title>UPW_PROJECT:w&#45;&gt;R_STANDARD_REFERENCE_LIST:e</title>
<path fill="none" stroke="#000000" d="M262.6297,-589.7625C251.0865,-583.575 245.9041,-571.2 228,-571.2"/>
<polygon fill="#000000" stroke="#000000" points="269.2195,-591.3388 276.1625,-596.7012 273.1098,-592.2694 277,-593.2 277,-593.2 277,-593.2 273.1098,-592.2694 277.8375,-589.6988 269.2195,-591.3388 269.2195,-591.3388"/>
<ellipse fill="none" stroke="#000000" cx="266.1073" cy="-590.5943" rx="3.2" ry="3.2"/>
</g>
<!-- UPW_PROJECT&#45;&gt;R_STANDARD_REFERENCE_LIST -->
<g id="edge7" class="edge">
<title>UPW_PROJECT:w&#45;&gt;R_STANDARD_REFERENCE_LIST:e</title>
<path fill="none" stroke="#000000" d="M262.3077,-789.1626C193.1642,-766.9839 322.4998,-571.2 228,-571.2"/>
<polygon fill="#000000" stroke="#000000" points="269.0758,-790.1011 276.5055,-794.7659 273.0379,-790.6505 277,-791.2 277,-791.2 277,-791.2 273.0379,-790.6505 277.4945,-787.6341 269.0758,-790.1011 269.0758,-790.1011"/>
<ellipse fill="none" stroke="#000000" cx="265.9062" cy="-789.6615" rx="3.2" ry="3.2"/>
</g>
<!-- UPW_PROJECT&#45;&gt;R_STANDARD_REFERENCE_LIST -->
<g id="edge8" class="edge">
<title>UPW_PROJECT:w&#45;&gt;R_STANDARD_REFERENCE_LIST:e</title>
<path fill="none" stroke="#000000" d="M262.4909,-571.2C251.1774,-571.2 243.9931,-571.2 228,-571.2"/>
<polygon fill="#000000" stroke="#000000" points="269,-571.2001 277,-574.8 273,-571.2 277,-571.2 277,-571.2 277,-571.2 273,-571.2 277,-567.6 269,-571.2001 269,-571.2001"/>
<ellipse fill="none" stroke="#000000" cx="265.8" cy="-571.2001" rx="3.2" ry="3.2"/>
</g>
<!-- UPW_PROJECT&#45;&gt;R_STANDARD_REFERENCE_LIST -->
<g id="edge9" class="edge">
<title>UPW_PROJECT:w&#45;&gt;R_STANDARD_REFERENCE_LIST:e</title>
<path fill="none" stroke="#000000" d="M262.6297,-552.6375C251.0865,-558.825 245.9041,-571.2 228,-571.2"/>
<polygon fill="#000000" stroke="#000000" points="269.2195,-551.0612 277.8375,-552.7012 273.1098,-550.1306 277,-549.2 277,-549.2 277,-549.2 273.1098,-550.1306 276.1625,-545.6988 269.2195,-551.0612 269.2195,-551.0612"/>
<ellipse fill="none" stroke="#000000" cx="266.1073" cy="-551.8057" rx="3.2" ry="3.2"/>
</g>
<!-- UPW_PROJECT&#45;&gt;R_STANDARD_REFERENCE_LIST -->
<g id="edge10" class="edge">
<title>UPW_PROJECT:w&#45;&gt;R_STANDARD_REFERENCE_LIST:e</title>
<path fill="none" stroke="#000000" d="M263.3171,-531.9088C250.0046,-543.2596 251.324,-571.2 228,-571.2"/>
<polygon fill="#000000" stroke="#000000" points="269.4354,-529.8033 278.1715,-530.6041 273.2177,-528.5016 277,-527.2 277,-527.2 277,-527.2 273.2177,-528.5016 275.8285,-523.7959 269.4354,-529.8033 269.4354,-529.8033"/>
<ellipse fill="none" stroke="#000000" cx="266.4096" cy="-530.8446" rx="3.2" ry="3.2"/>
</g>
<!-- UPW_PROJECT&#45;&gt;R_STANDARD_REFERENCE_LIST -->
<g id="edge11" class="edge">
<title>UPW_PROJECT:w&#45;&gt;R_STANDARD_REFERENCE_LIST:e</title>
<path fill="none" stroke="#000000" d="M263.3768,-509.9466C246.7322,-525.0798 258.5399,-571.2 228,-571.2"/>
<polygon fill="#000000" stroke="#000000" points="269.4454,-507.8322 278.1845,-508.5996 273.2227,-506.5161 277,-505.2 277,-505.2 277,-505.2 273.2227,-506.5161 275.8155,-501.8004 269.4454,-507.8322 269.4454,-507.8322"/>
<ellipse fill="none" stroke="#000000" cx="266.4236" cy="-508.8851" rx="3.2" ry="3.2"/>
</g>
<!-- UPW_PROJECT&#45;&gt;R_STANDARD_REFERENCE_LIST -->
<g id="edge12" class="edge">
<title>UPW_PROJECT:w&#45;&gt;R_STANDARD_REFERENCE_LIST:e</title>
<path fill="none" stroke="#000000" d="M262.9863,-487.6849C241.7228,-505.6176 266.6452,-571.2 228,-571.2"/>
<polygon fill="#000000" stroke="#000000" points="269.3807,-485.6385 278.0973,-486.6287 273.1903,-484.4193 277,-483.2 277,-483.2 277,-483.2 273.1903,-484.4193 275.9027,-479.7713 269.3807,-485.6385 269.3807,-485.6385"/>
<ellipse fill="none" stroke="#000000" cx="266.333" cy="-486.6139" rx="3.2" ry="3.2"/>
</g>
<!-- PARTITION_AREA -->
<g id="node3" class="node">
<title>PARTITION_AREA</title>
<g id="a_node3"><a xlink:href="../../tables/PARTITION_AREA.html" xlink:title="PARTITION_AREA" target="_top">
<polygon fill="#ffffff" stroke="transparent" points="47,-815.7 47,-920.7 189,-920.7 189,-815.7 47,-815.7"/>
<polygon fill="#f5f5f5" stroke="transparent" points="47,-897.2 47,-920.2 189,-920.2 189,-897.2 47,-897.2"/>
<polygon fill="none" stroke="#000000" points="47,-897.2 47,-920.2 189,-920.2 189,-897.2 47,-897.2"/>
<text text-anchor="start" x="52" y="-906.3" font-family="Helvetica,sans-Serif" font-weight="bold" font-size="11.00" fill="#000000">PARTITION_AREA</text>
<text text-anchor="start" x="154.0437" y="-905.3" font-family="Helvetica,sans-Serif" font-size="11.00" fill="#000000">[table]</text>
<polygon fill="none" stroke="#000000" points="47,-875.2 47,-897.2 189,-897.2 189,-875.2 47,-875.2"/>
<image xlink:href="../../images/primaryKeys.png" width="11px" height="12px" preserveAspectRatio="xMinYMin meet" x="52" y="-892.2"/>
<text text-anchor="start" x="67" y="-882.3" font-family="Helvetica,sans-Serif" font-size="11.00" fill="#000000">PARTITION_AREA_ID</text>
<polygon fill="none" stroke="#000000" points="47,-853.2 47,-875.2 189,-875.2 189,-853.2 47,-853.2"/>
<image xlink:href="../../images/primaryKeys.png" width="11px" height="12px" preserveAspectRatio="xMinYMin meet" x="52" y="-870.2"/>
<text text-anchor="start" x="63.1624" y="-860.3" font-family="Helvetica,sans-Serif" font-size="11.00" fill="#000000">TRAINING_SESSION_ID</text>
<polygon fill="none" stroke="#000000" points="47,-834.2 47,-853.2 189,-853.2 189,-834.2 47,-834.2"/>
<text text-anchor="start" x="50" y="-840.3" font-family="Helvetica,sans-Serif" font-size="11.00" fill="#000000">...</text>
<polygon fill="#ffffff" stroke="transparent" points="47,-815.2 47,-834.2 88,-834.2 88,-815.2 47,-815.2"/>
<polygon fill="none" stroke="#000000" points="47,-815.2 47,-834.2 88,-834.2 88,-815.2 47,-815.2"/>
<text text-anchor="start" x="50" y="-821.3" font-family="Helvetica,sans-Serif" font-size="11.00" fill="#000000"> &#160;</text>
<polygon fill="#ffffff" stroke="transparent" points="88,-815.2 88,-834.2 147,-834.2 147,-815.2 88,-815.2"/>
<polygon fill="none" stroke="#000000" points="88,-815.2 88,-834.2 147,-834.2 147,-815.2 88,-815.2"/>
<text text-anchor="start" x="105.4956" y="-821.3" font-family="Helvetica,sans-Serif" font-size="11.00" fill="#000000">44 rows</text>
<polygon fill="#ffffff" stroke="transparent" points="147,-815.2 147,-834.2 189,-834.2 189,-815.2 147,-815.2"/>
<polygon fill="none" stroke="#000000" points="147,-815.2 147,-834.2 189,-834.2 189,-815.2 147,-815.2"/>
<text text-anchor="start" x="164.2904" y="-821.3" font-family="Helvetica,sans-Serif" font-size="11.00" fill="#000000">82 &gt;</text>
</a>
</g>
</g>
<!-- UPW_PROJECT&#45;&gt;PARTITION_AREA -->
<g id="edge6" class="edge">
<title>UPW_PROJECT:w&#45;&gt;PARTITION_AREA:e</title>
<path fill="none" stroke="#000000" d="M262.4702,-815.6288C228.3947,-828.2955 234.2585,-886.2 189,-886.2"/>
<polygon fill="#000000" stroke="#000000" points="269.1095,-814.519 277.5936,-816.7507 273.0547,-813.8595 277,-813.2 277,-813.2 277,-813.2 273.0547,-813.8595 276.4064,-809.6493 269.1095,-814.519 269.1095,-814.519"/>
<ellipse fill="none" stroke="#000000" cx="265.9533" cy="-815.0467" rx="3.2" ry="3.2"/>
</g>
<!-- UPW_PROJECT_TIMESCALES_GROUP -->
<g id="node4" class="node">
<title>UPW_PROJECT_TIMESCALES_GROUP</title>
<g id="a_node4"><a xlink:href="../../tables/UPW_PROJECT_TIMESCALES_GROUP.html" xlink:title="UPW_PROJECT_TIMESCALES_GROUP" target="_top">
<polygon fill="#ffffff" stroke="transparent" points="546,-38.2 546,-810.2 826,-810.2 826,-38.2 546,-38.2"/>
<polygon fill="#f5f5f5" stroke="transparent" points="548,-785.2 548,-808.2 824,-808.2 824,-785.2 548,-785.2"/>
<polygon fill="none" stroke="#000000" points="548,-785.2 548,-808.2 824,-808.2 824,-785.2 548,-785.2"/>
<text text-anchor="start" x="553" y="-794.3" font-family="Helvetica,sans-Serif" font-weight="bold" font-size="11.00" fill="#000000">UPW_PROJECT_TIMESCALES_GROUP</text>
<text text-anchor="start" x="789.0437" y="-793.3" font-family="Helvetica,sans-Serif" font-size="11.00" fill="#000000">[table]</text>
<polygon fill="none" stroke="#000000" points="548,-763.2 548,-785.2 763,-785.2 763,-763.2 548,-763.2"/>
<image xlink:href="../../images/primaryKeys.png" width="11px" height="12px" preserveAspectRatio="xMinYMin meet" x="553" y="-780.2"/>
<text text-anchor="start" x="568" y="-770.3" font-family="Helvetica,sans-Serif" font-size="11.00" fill="#000000">UPW_PROJECT_ID</text>
<polygon fill="none" stroke="#000000" points="763,-763.2 763,-785.2 824,-785.2 824,-763.2 763,-763.2"/>
<text text-anchor="start" x="765.6865" y="-770.9" font-family="Helvetica,sans-Serif" font-size="11.00" fill="#000000">number[38]</text>
<polygon fill="none" stroke="#000000" points="548,-741.2 548,-763.2 763,-763.2 763,-741.2 548,-741.2"/>
<image xlink:href="../../images/primaryKeys.png" width="11px" height="12px" preserveAspectRatio="xMinYMin meet" x="553" y="-758.2"/>
<text text-anchor="start" x="568" y="-748.3" font-family="Helvetica,sans-Serif" font-size="11.00" fill="#000000">GENDER_SUITABILITY_ID</text>
<polygon fill="none" stroke="#000000" points="763,-741.2 763,-763.2 824,-763.2 824,-741.2 763,-741.2"/>
<text text-anchor="start" x="765.6865" y="-748.9" font-family="Helvetica,sans-Serif" font-size="11.00" fill="#000000">number[38]</text>
<polygon fill="none" stroke="#000000" points="548,-719.2 548,-741.2 763,-741.2 763,-719.2 548,-719.2"/>
<text text-anchor="start" x="568" y="-726.3" font-family="Helvetica,sans-Serif" font-size="11.00" fill="#000000">MINIMUM_AGE</text>
<polygon fill="none" stroke="#000000" points="763,-719.2 763,-741.2 824,-741.2 824,-719.2 763,-719.2"/>
<text text-anchor="start" x="765.6865" y="-726.9" font-family="Helvetica,sans-Serif" font-size="11.00" fill="#000000">number[38]</text>
<polygon fill="none" stroke="#000000" points="548,-697.2 548,-719.2 763,-719.2 763,-697.2 548,-697.2"/>
<text text-anchor="start" x="568" y="-704.3" font-family="Helvetica,sans-Serif" font-size="11.00" fill="#000000">MAXIMUM_AGE</text>
<polygon fill="none" stroke="#000000" points="763,-697.2 763,-719.2 824,-719.2 824,-697.2 763,-697.2"/>
<text text-anchor="start" x="765.6865" y="-704.9" font-family="Helvetica,sans-Serif" font-size="11.00" fill="#000000">number[38]</text>
<polygon fill="none" stroke="#000000" points="548,-675.2 548,-697.2 763,-697.2 763,-675.2 548,-675.2"/>
<image xlink:href="../../images/primaryKeys.png" width="11px" height="12px" preserveAspectRatio="xMinYMin meet" x="553" y="-692.2"/>
<text text-anchor="start" x="568" y="-682.3" font-family="Helvetica,sans-Serif" font-size="11.00" fill="#000000">PARTITION_AREA_ID</text>
<polygon fill="none" stroke="#000000" points="763,-675.2 763,-697.2 824,-697.2 824,-675.2 763,-675.2"/>
<text text-anchor="start" x="765.6865" y="-682.9" font-family="Helvetica,sans-Serif" font-size="11.00" fill="#000000">number[38]</text>
<polygon fill="none" stroke="#000000" points="548,-653.2 548,-675.2 763,-675.2 763,-653.2 548,-653.2"/>
<text text-anchor="start" x="568" y="-660.3" font-family="Helvetica,sans-Serif" font-size="11.00" fill="#000000">MINIMUM_NUMBER</text>
<polygon fill="none" stroke="#000000" points="763,-653.2 763,-675.2 824,-675.2 824,-653.2 763,-653.2"/>
<text text-anchor="start" x="765.6865" y="-660.9" font-family="Helvetica,sans-Serif" font-size="11.00" fill="#000000">number[38]</text>
<polygon fill="none" stroke="#000000" points="548,-631.2 548,-653.2 763,-653.2 763,-631.2 548,-631.2"/>
<text text-anchor="start" x="568" y="-638.3" font-family="Helvetica,sans-Serif" font-size="11.00" fill="#000000">MAXIMUM_NUMBER</text>
<polygon fill="none" stroke="#000000" points="763,-631.2 763,-653.2 824,-653.2 824,-631.2 763,-631.2"/>
<text text-anchor="start" x="765.6865" y="-638.9" font-family="Helvetica,sans-Serif" font-size="11.00" fill="#000000">number[38]</text>
<polygon fill="none" stroke="#000000" points="548,-609.2 548,-631.2 763,-631.2 763,-609.2 548,-609.2"/>
<text text-anchor="start" x="568" y="-616.3" font-family="Helvetica,sans-Serif" font-size="11.00" fill="#000000">SMOKING_SITE</text>
<polygon fill="none" stroke="#000000" points="763,-609.2 763,-631.2 824,-631.2 824,-609.2 763,-609.2"/>
<text text-anchor="start" x="766" y="-616.9" font-family="Helvetica,sans-Serif" font-size="11.00" fill="#000000">char[1]</text>
<polygon fill="none" stroke="#000000" points="548,-587.2 548,-609.2 763,-609.2 763,-587.2 548,-587.2"/>
<text text-anchor="start" x="568" y="-594.3" font-family="Helvetica,sans-Serif" font-size="11.00" fill="#000000">PROJECT_VISIBLE_TO_PUBLIC</text>
<polygon fill="none" stroke="#000000" points="763,-587.2 763,-609.2 824,-609.2 824,-587.2 763,-587.2"/>
<text text-anchor="start" x="766" y="-594.9" font-family="Helvetica,sans-Serif" font-size="11.00" fill="#000000">char[1]</text>
<polygon fill="none" stroke="#000000" points="548,-565.2 548,-587.2 763,-587.2 763,-565.2 548,-565.2"/>
<text text-anchor="start" x="568" y="-572.3" font-family="Helvetica,sans-Serif" font-size="11.00" fill="#000000">DATE_REQUESTED</text>
<polygon fill="none" stroke="#000000" points="763,-565.2 763,-587.2 824,-587.2 824,-565.2 763,-565.2"/>
<text text-anchor="start" x="766" y="-572.9" font-family="Helvetica,sans-Serif" font-size="11.00" fill="#000000">date[7]</text>
<polygon fill="none" stroke="#000000" points="548,-543.2 548,-565.2 763,-565.2 763,-543.2 548,-543.2"/>
<text text-anchor="start" x="568" y="-550.3" font-family="Helvetica,sans-Serif" font-size="11.00" fill="#000000">DATE_JOB_EVALUATED</text>
<polygon fill="none" stroke="#000000" points="763,-543.2 763,-565.2 824,-565.2 824,-543.2 763,-543.2"/>
<text text-anchor="start" x="766" y="-550.9" font-family="Helvetica,sans-Serif" font-size="11.00" fill="#000000">date[7]</text>
<polygon fill="none" stroke="#000000" points="548,-521.2 548,-543.2 763,-543.2 763,-521.2 548,-521.2"/>
<text text-anchor="start" x="568" y="-528.3" font-family="Helvetica,sans-Serif" font-size="11.00" fill="#000000">PLANNED_START_DATE</text>
<polygon fill="none" stroke="#000000" points="763,-521.2 763,-543.2 824,-543.2 824,-521.2 763,-521.2"/>
<text text-anchor="start" x="766" y="-528.9" font-family="Helvetica,sans-Serif" font-size="11.00" fill="#000000">date[7]</text>
<polygon fill="none" stroke="#000000" points="548,-499.2 548,-521.2 763,-521.2 763,-499.2 548,-499.2"/>
<text text-anchor="start" x="568" y="-506.3" font-family="Helvetica,sans-Serif" font-size="11.00" fill="#000000">NOTES_UNSUITABLE_PROJECTS</text>
<polygon fill="none" stroke="#000000" points="763,-499.2 763,-521.2 824,-521.2 824,-499.2 763,-499.2"/>
<text text-anchor="start" x="766" y="-506.9" font-family="Helvetica,sans-Serif" font-size="11.00" fill="#000000">clob[4000]</text>
<polygon fill="none" stroke="#000000" points="548,-477.2 548,-499.2 763,-499.2 763,-477.2 548,-477.2"/>
<image xlink:href="../../images/primaryKeys.png" width="11px" height="12px" preserveAspectRatio="xMinYMin meet" x="553" y="-494.2"/>
<text text-anchor="start" x="568" y="-484.3" font-family="Helvetica,sans-Serif" font-size="11.00" fill="#000000">SPARSITY_ID</text>
<polygon fill="none" stroke="#000000" points="763,-477.2 763,-499.2 824,-499.2 824,-477.2 763,-477.2"/>
<text text-anchor="start" x="765.6865" y="-484.9" font-family="Helvetica,sans-Serif" font-size="11.00" fill="#000000">number[38]</text>
<polygon fill="none" stroke="#000000" points="548,-455.2 548,-477.2 763,-477.2 763,-455.2 548,-455.2"/>
<text text-anchor="start" x="568" y="-462.3" font-family="Helvetica,sans-Serif" font-size="11.00" fill="#000000">NUMBER_OF_GROUPS</text>
<polygon fill="none" stroke="#000000" points="763,-455.2 763,-477.2 824,-477.2 824,-455.2 763,-455.2"/>
<text text-anchor="start" x="765.6865" y="-462.9" font-family="Helvetica,sans-Serif" font-size="11.00" fill="#000000">number[38]</text>
<polygon fill="none" stroke="#000000" points="548,-433.2 548,-455.2 763,-455.2 763,-433.2 548,-433.2"/>
<text text-anchor="start" x="568" y="-440.3" font-family="Helvetica,sans-Serif" font-size="11.00" fill="#000000">CREATED_BY_USER_ID</text>
<polygon fill="none" stroke="#000000" points="763,-433.2 763,-455.2 824,-455.2 824,-433.2 763,-433.2"/>
<text text-anchor="start" x="765.6865" y="-440.9" font-family="Helvetica,sans-Serif" font-size="11.00" fill="#000000">number[38]</text>
<polygon fill="none" stroke="#000000" points="548,-411.2 548,-433.2 763,-433.2 763,-411.2 548,-411.2"/>
<text text-anchor="start" x="568" y="-418.3" font-family="Helvetica,sans-Serif" font-size="11.00" fill="#000000">CREATED_DATETIME</text>
<polygon fill="none" stroke="#000000" points="763,-411.2 763,-433.2 824,-433.2 824,-411.2 763,-411.2"/>
<text text-anchor="start" x="766" y="-418.9" font-family="Helvetica,sans-Serif" font-size="11.00" fill="#000000">date[7]</text>
<polygon fill="none" stroke="#000000" points="548,-389.2 548,-411.2 763,-411.2 763,-389.2 548,-389.2"/>
<text text-anchor="start" x="568" y="-396.3" font-family="Helvetica,sans-Serif" font-size="11.00" fill="#000000">LAST_UPDATED_USER_ID</text>
<polygon fill="none" stroke="#000000" points="763,-389.2 763,-411.2 824,-411.2 824,-389.2 763,-389.2"/>
<text text-anchor="start" x="765.6865" y="-396.9" font-family="Helvetica,sans-Serif" font-size="11.00" fill="#000000">number[38]</text>
<polygon fill="none" stroke="#000000" points="548,-367.2 548,-389.2 763,-389.2 763,-367.2 548,-367.2"/>
<text text-anchor="start" x="568" y="-374.3" font-family="Helvetica,sans-Serif" font-size="11.00" fill="#000000">LAST_UPDATED_DATETIME</text>
<polygon fill="none" stroke="#000000" points="763,-367.2 763,-389.2 824,-389.2 824,-367.2 763,-367.2"/>
<text text-anchor="start" x="766" y="-374.9" font-family="Helvetica,sans-Serif" font-size="11.00" fill="#000000">date[7]</text>
<polygon fill="none" stroke="#000000" points="548,-345.2 548,-367.2 763,-367.2 763,-345.2 548,-345.2"/>
<text text-anchor="start" x="568" y="-352.3" font-family="Helvetica,sans-Serif" font-size="11.00" fill="#000000">ROW_VERSION</text>
<polygon fill="none" stroke="#000000" points="763,-345.2 763,-367.2 824,-367.2 824,-345.2 763,-345.2"/>
<text text-anchor="start" x="765.6865" y="-352.9" font-family="Helvetica,sans-Serif" font-size="11.00" fill="#000000">number[38]</text>
<polygon fill="none" stroke="#000000" points="548,-323.2 548,-345.2 763,-345.2 763,-323.2 548,-323.2"/>
<image xlink:href="../../images/primaryKeys.png" width="11px" height="12px" preserveAspectRatio="xMinYMin meet" x="553" y="-340.2"/>
<text text-anchor="start" x="568" y="-330.3" font-family="Helvetica,sans-Serif" font-size="11.00" fill="#000000">TRAINING_SESSION_ID</text>
<polygon fill="none" stroke="#000000" points="763,-323.2 763,-345.2 824,-345.2 824,-323.2 763,-323.2"/>
<text text-anchor="start" x="765.6865" y="-330.9" font-family="Helvetica,sans-Serif" font-size="11.00" fill="#000000">number[38]</text>
<polygon fill="none" stroke="#000000" points="548,-301.2 548,-323.2 763,-323.2 763,-301.2 548,-301.2"/>
<text text-anchor="start" x="568" y="-308.3" font-family="Helvetica,sans-Serif" font-size="11.00" fill="#000000">SPACES_AVAILABLE</text>
<polygon fill="none" stroke="#000000" points="763,-301.2 763,-323.2 824,-323.2 824,-301.2 763,-301.2"/>
<text text-anchor="start" x="765.6865" y="-308.9" font-family="Helvetica,sans-Serif" font-size="11.00" fill="#000000">number[38]</text>
<polygon fill="none" stroke="#000000" points="548,-279.2 548,-301.2 763,-301.2 763,-279.2 548,-279.2"/>
<text text-anchor="start" x="568" y="-286.3" font-family="Helvetica,sans-Serif" font-size="11.00" fill="#000000">NO_RISK_TO_ANIMALS</text>
<polygon fill="none" stroke="#000000" points="763,-279.2 763,-301.2 824,-301.2 824,-279.2 763,-279.2"/>
<text text-anchor="start" x="766" y="-286.9" font-family="Helvetica,sans-Serif" font-size="11.00" fill="#000000">char[1]</text>
<polygon fill="none" stroke="#000000" points="548,-257.2 548,-279.2 763,-279.2 763,-257.2 548,-257.2"/>
<text text-anchor="start" x="568" y="-264.3" font-family="Helvetica,sans-Serif" font-size="11.00" fill="#000000">NO_RISK_TO_CHILDREN</text>
<polygon fill="none" stroke="#000000" points="763,-257.2 763,-279.2 824,-279.2 824,-257.2 763,-257.2"/>
<text text-anchor="start" x="766" y="-264.9" font-family="Helvetica,sans-Serif" font-size="11.00" fill="#000000">char[1]</text>
<polygon fill="none" stroke="#000000" points="548,-235.2 548,-257.2 763,-257.2 763,-235.2 548,-235.2"/>
<text text-anchor="start" x="568" y="-242.3" font-family="Helvetica,sans-Serif" font-size="11.00" fill="#000000">NO_HATE_CRIME</text>
<polygon fill="none" stroke="#000000" points="763,-235.2 763,-257.2 824,-257.2 824,-235.2 763,-235.2"/>
<text text-anchor="start" x="766" y="-242.9" font-family="Helvetica,sans-Serif" font-size="11.00" fill="#000000">char[1]</text>
<polygon fill="none" stroke="#000000" points="548,-213.2 548,-235.2 763,-235.2 763,-213.2 548,-213.2"/>
<text text-anchor="start" x="568" y="-220.3" font-family="Helvetica,sans-Serif" font-size="11.00" fill="#000000">NO_FREQ_DISHONEST</text>
<polygon fill="none" stroke="#000000" points="763,-213.2 763,-235.2 824,-235.2 824,-213.2 763,-213.2"/>
<text text-anchor="start" x="766" y="-220.9" font-family="Helvetica,sans-Serif" font-size="11.00" fill="#000000">char[1]</text>
<polygon fill="none" stroke="#000000" points="548,-191.2 548,-213.2 763,-213.2 763,-191.2 548,-191.2"/>
<text text-anchor="start" x="568" y="-198.3" font-family="Helvetica,sans-Serif" font-size="11.00" fill="#000000">NO_CLOSE_SUPERVISION</text>
<polygon fill="none" stroke="#000000" points="763,-191.2 763,-213.2 824,-213.2 824,-191.2 763,-191.2"/>
<text text-anchor="start" x="766" y="-198.9" font-family="Helvetica,sans-Serif" font-size="11.00" fill="#000000">char[1]</text>
<polygon fill="none" stroke="#000000" points="548,-169.2 548,-191.2 763,-191.2 763,-169.2 548,-169.2"/>
<text text-anchor="start" x="568" y="-176.3" font-family="Helvetica,sans-Serif" font-size="11.00" fill="#000000">NO_VULNERABLE</text>
<polygon fill="none" stroke="#000000" points="763,-169.2 763,-191.2 824,-191.2 824,-169.2 763,-169.2"/>
<text text-anchor="start" x="766" y="-176.9" font-family="Helvetica,sans-Serif" font-size="11.00" fill="#000000">char[1]</text>
<polygon fill="none" stroke="#000000" points="548,-147.2 548,-169.2 763,-169.2 763,-147.2 548,-147.2"/>
<text text-anchor="start" x="561.8539" y="-154.3" font-family="Helvetica,sans-Serif" font-size="11.00" fill="#000000">NO_ENGLISH_LANGUAGE_REQUIRED</text>
<polygon fill="none" stroke="#000000" points="763,-147.2 763,-169.2 824,-169.2 824,-147.2 763,-147.2"/>
<text text-anchor="start" x="766" y="-154.9" font-family="Helvetica,sans-Serif" font-size="11.00" fill="#000000">char[1]</text>
<polygon fill="none" stroke="#000000" points="548,-125.2 548,-147.2 763,-147.2 763,-125.2 548,-125.2"/>
<text text-anchor="start" x="568" y="-132.3" font-family="Helvetica,sans-Serif" font-size="11.00" fill="#000000">NO_HIST_AGAINST_VULN_ADULTS</text>
<polygon fill="none" stroke="#000000" points="763,-125.2 763,-147.2 824,-147.2 824,-125.2 763,-125.2"/>
<text text-anchor="start" x="766" y="-132.9" font-family="Helvetica,sans-Serif" font-size="11.00" fill="#000000">char[1]</text>
<polygon fill="none" stroke="#000000" points="548,-103.2 548,-125.2 763,-125.2 763,-103.2 548,-103.2"/>
<text text-anchor="start" x="568" y="-110.3" font-family="Helvetica,sans-Serif" font-size="11.00" fill="#000000">NO_SEX_OFFENDERS</text>
<polygon fill="none" stroke="#000000" points="763,-103.2 763,-125.2 824,-125.2 824,-103.2 763,-103.2"/>
<text text-anchor="start" x="766" y="-110.9" font-family="Helvetica,sans-Serif" font-size="11.00" fill="#000000">char[1]</text>
<polygon fill="none" stroke="#000000" points="548,-81.2 548,-103.2 763,-103.2 763,-81.2 548,-81.2"/>
<text text-anchor="start" x="568" y="-88.3" font-family="Helvetica,sans-Serif" font-size="11.00" fill="#000000">NO_HIGH_ROSH</text>
<polygon fill="none" stroke="#000000" points="763,-81.2 763,-103.2 824,-103.2 824,-81.2 763,-81.2"/>
<text text-anchor="start" x="766" y="-88.9" font-family="Helvetica,sans-Serif" font-size="11.00" fill="#000000">char[1]</text>
<polygon fill="none" stroke="#000000" points="548,-59.2 548,-81.2 763,-81.2 763,-59.2 548,-59.2"/>
<text text-anchor="start" x="568" y="-66.3" font-family="Helvetica,sans-Serif" font-size="11.00" fill="#000000">NO_ARSONIST</text>
<polygon fill="none" stroke="#000000" points="763,-59.2 763,-81.2 824,-81.2 824,-59.2 763,-59.2"/>
<text text-anchor="start" x="766" y="-66.9" font-family="Helvetica,sans-Serif" font-size="11.00" fill="#000000">char[1]</text>
<polygon fill="#ffffff" stroke="transparent" points="548,-40.2 548,-59.2 644,-59.2 644,-40.2 548,-40.2"/>
<polygon fill="none" stroke="#000000" points="548,-40.2 548,-59.2 644,-59.2 644,-40.2 548,-40.2"/>
<text text-anchor="start" x="551" y="-46.3" font-family="Helvetica,sans-Serif" font-size="11.00" fill="#000000">&lt; 4</text>
<polygon fill="#ffffff" stroke="transparent" points="644,-40.2 644,-59.2 763,-59.2 763,-40.2 644,-40.2"/>
<polygon fill="none" stroke="#000000" points="644,-40.2 644,-59.2 763,-59.2 763,-40.2 644,-40.2"/>
<text text-anchor="start" x="721.4956" y="-46.3" font-family="Helvetica,sans-Serif" font-size="11.00" fill="#000000">67 rows</text>
<polygon fill="#ffffff" stroke="transparent" points="763,-40.2 763,-59.2 824,-59.2 824,-40.2 763,-40.2"/>
<polygon fill="none" stroke="#000000" points="763,-40.2 763,-59.2 824,-59.2 824,-40.2 763,-40.2"/>
<text text-anchor="start" x="805.4053" y="-46.3" font-family="Helvetica,sans-Serif" font-size="11.00" fill="#000000">0 &gt;</text>
<polygon fill="none" stroke="#000000" stroke-width="2" points="547,-39.2 547,-809.2 825,-809.2 825,-39.2 547,-39.2"/>
</a>
</g>
</g>
<!-- UPW_PROJECT_TIMESCALES_GROUP&#45;&gt;UPW_PROJECT -->
<g id="edge16" class="edge">
<title>UPW_PROJECT_TIMESCALES_GROUP:w&#45;&gt;UPW_PROJECT:e</title>
<path fill="none" stroke="#000000" d="M537.5448,-775.8057C495.978,-790.5071 553.7864,-901.2 497,-901.2"/>
<polygon fill="#000000" stroke="#000000" points="546.602,-770.3678 547.8165,-778.2751 546.2351,-778.518 545.0206,-770.6107 546.602,-770.3678"/>
<polyline fill="none" stroke="#000000" points="548,-774.2 544.0464,-774.8072 "/>
<ellipse fill="none" stroke="#000000" cx="540.8834" cy="-775.293" rx="3.2" ry="3.2"/>
</g>
<!-- UPW_PROJECT_TIMESCALES_GROUP&#45;&gt;R_STANDARD_REFERENCE_LIST -->
<g id="edge13" class="edge">
<title>UPW_PROJECT_TIMESCALES_GROUP:w&#45;&gt;R_STANDARD_REFERENCE_LIST:e</title>
<path fill="none" stroke="#000000" d="M533.9146,-747.9682C482.1087,-711.4998 559.5652,-450.4717 505,-402.2 465.7202,-367.4507 310.2242,-369.7811 269,-402.2 208.2459,-449.9773 305.2899,-571.2 228,-571.2"/>
<polygon fill="#000000" stroke="#000000" points="540.3383,-749.8981 546.9642,-755.6478 544.1692,-751.0491 548,-752.2 548,-752.2 548,-752.2 544.1692,-751.0491 549.0358,-748.7522 540.3383,-749.8981 540.3383,-749.8981"/>
<ellipse fill="none" stroke="#000000" cx="537.2736" cy="-748.9774" rx="3.2" ry="3.2"/>
</g>
<!-- UPW_PROJECT_TIMESCALES_GROUP&#45;&gt;R_STANDARD_REFERENCE_LIST -->
<g id="edge15" class="edge">
<title>UPW_PROJECT_TIMESCALES_GROUP:w&#45;&gt;R_STANDARD_REFERENCE_LIST:e</title>
<path fill="none" stroke="#000000" d="M533.5203,-485.1941C505.1797,-470.0227 544.4925,-401.5122 505,-374.2 418.7318,-314.5387 350.3736,-308.0183 269,-374.2 199.6182,-430.6286 317.4317,-571.2 228,-571.2"/>
<polygon fill="#000000" stroke="#000000" points="540.167,-486.5739 547.2683,-491.7249 544.0835,-487.3869 548,-488.2 548,-488.2 548,-488.2 544.0835,-487.3869 548.7317,-484.6751 540.167,-486.5739 540.167,-486.5739"/>
<ellipse fill="none" stroke="#000000" cx="537.0338" cy="-485.9235" rx="3.2" ry="3.2"/>
</g>
<!-- UPW_PROJECT_TIMESCALES_GROUP&#45;&gt;PARTITION_AREA -->
<g id="edge14" class="edge">
<title>UPW_PROJECT_TIMESCALES_GROUP:w&#45;&gt;PARTITION_AREA:e</title>
<path fill="none" stroke="#000000" d="M534.477,-691.7218C499.8074,-726.228 545.4739,-911.8701 505,-946.2 425.01,-1014.0475 368.5063,-979.3688 269,-946.2 226.8363,-932.1454 233.4444,-886.2 189,-886.2"/>
<polygon fill="#000000" stroke="#000000" points="540.5936,-689.2243 549.3609,-689.5329 544.2968,-687.7121 548,-686.2 548,-686.2 548,-686.2 544.2968,-687.7121 546.6391,-682.8671 540.5936,-689.2243 540.5936,-689.2243"/>
<ellipse fill="none" stroke="#000000" cx="537.6311" cy="-690.434" rx="3.2" ry="3.2"/>
</g>
</g>
</svg>
