<?xml version="1.0" encoding="UTF-8" standalone="no"?>
<!DOCTYPE svg PUBLIC "-//W3C//DTD SVG 1.1//EN"
 "http://www.w3.org/Graphics/SVG/1.1/DTD/svg11.dtd">
<!-- Generated by graphviz version 2.40.1 (20161225.0304)
 -->
<!-- Title: oneDegreeRelationshipsDiagram Pages: 1 -->
<svg width="798pt" height="751pt"
 viewBox="0.00 0.00 798.00 750.63" xmlns="http://www.w3.org/2000/svg" xmlns:xlink="http://www.w3.org/1999/xlink">
<g id="graph0" class="graph" transform="scale(1 1) rotate(0) translate(4 746.627)">
<title>oneDegreeRelationshipsDiagram</title>
<polygon fill="#ffffff" stroke="transparent" points="-4,4 -4,-746.627 794,-746.627 794,4 -4,4"/>
<text text-anchor="middle" x="72.4936" y="-7.3" font-family="Helvetica,sans-Serif" font-size="11.00" fill="#000000">Generated by SchemaSpy</text>
<!-- UPW_ADJUSTMENT -->
<g id="node1" class="node">
<title>UPW_ADJUSTMENT</title>
<g id="a_node1"><a xlink:href="../../tables/UPW_ADJUSTMENT.html" xlink:title="UPW_ADJUSTMENT" target="_top">
<polygon fill="#ffffff" stroke="transparent" points="550,-237.7 550,-613.7 782,-613.7 782,-237.7 550,-237.7"/>
<polygon fill="#f5f5f5" stroke="transparent" points="552,-588.7 552,-611.7 780,-611.7 780,-588.7 552,-588.7"/>
<polygon fill="none" stroke="#000000" points="552,-588.7 552,-611.7 780,-611.7 780,-588.7 552,-588.7"/>
<text text-anchor="start" x="557" y="-597.8" font-family="Helvetica,sans-Serif" font-weight="bold" font-size="11.00" fill="#000000">UPW_ADJUSTMENT</text>
<text text-anchor="start" x="745.0437" y="-596.8" font-family="Helvetica,sans-Serif" font-size="11.00" fill="#000000">[table]</text>
<polygon fill="none" stroke="#000000" points="552,-566.7 552,-588.7 713,-588.7 713,-566.7 552,-566.7"/>
<image xlink:href="../../images/primaryKeys.png" width="11px" height="12px" preserveAspectRatio="xMinYMin meet" x="557" y="-583.7"/>
<text text-anchor="start" x="572" y="-573.8" font-family="Helvetica,sans-Serif" font-size="11.00" fill="#000000">UPW_ADJUSTMENT_ID</text>
<polygon fill="none" stroke="#000000" points="713,-566.7 713,-588.7 780,-588.7 780,-566.7 713,-566.7"/>
<text text-anchor="start" x="716" y="-574.4" font-family="Helvetica,sans-Serif" font-size="11.00" fill="#000000">number[38]</text>
<polygon fill="none" stroke="#000000" points="552,-544.7 552,-566.7 713,-566.7 713,-544.7 552,-544.7"/>
<image xlink:href="../../images/primaryKeys.png" width="11px" height="12px" preserveAspectRatio="xMinYMin meet" x="557" y="-561.7"/>
<text text-anchor="start" x="572" y="-551.8" font-family="Helvetica,sans-Serif" font-size="11.00" fill="#000000">UPW_DETAILS_ID</text>
<polygon fill="none" stroke="#000000" points="713,-544.7 713,-566.7 780,-566.7 780,-544.7 713,-544.7"/>
<text text-anchor="start" x="716" y="-552.4" font-family="Helvetica,sans-Serif" font-size="11.00" fill="#000000">number[38]</text>
<polygon fill="none" stroke="#000000" points="552,-522.7 552,-544.7 713,-544.7 713,-522.7 552,-522.7"/>
<image xlink:href="../../images/primaryKeys.png" width="11px" height="12px" preserveAspectRatio="xMinYMin meet" x="557" y="-539.7"/>
<text text-anchor="start" x="572" y="-529.8" font-family="Helvetica,sans-Serif" font-size="11.00" fill="#000000">SOFT_DELETED</text>
<polygon fill="none" stroke="#000000" points="713,-522.7 713,-544.7 780,-544.7 780,-522.7 713,-522.7"/>
<text text-anchor="start" x="716" y="-530.4" font-family="Helvetica,sans-Serif" font-size="11.00" fill="#000000">number[38]</text>
<polygon fill="none" stroke="#000000" points="552,-500.7 552,-522.7 713,-522.7 713,-500.7 552,-500.7"/>
<image xlink:href="../../images/primaryKeys.png" width="11px" height="12px" preserveAspectRatio="xMinYMin meet" x="557" y="-517.7"/>
<text text-anchor="start" x="572" y="-507.8" font-family="Helvetica,sans-Serif" font-size="11.00" fill="#000000">PARTITION_AREA_ID</text>
<polygon fill="none" stroke="#000000" points="713,-500.7 713,-522.7 780,-522.7 780,-500.7 713,-500.7"/>
<text text-anchor="start" x="716" y="-508.4" font-family="Helvetica,sans-Serif" font-size="11.00" fill="#000000">number[38]</text>
<polygon fill="none" stroke="#000000" points="552,-478.7 552,-500.7 713,-500.7 713,-478.7 552,-478.7"/>
<image xlink:href="../../images/primaryKeys.png" width="11px" height="12px" preserveAspectRatio="xMinYMin meet" x="557" y="-495.7"/>
<text text-anchor="start" x="572" y="-485.8" font-family="Helvetica,sans-Serif" font-size="11.00" fill="#000000">ADJUSTMENT_AMOUNT</text>
<polygon fill="none" stroke="#000000" points="713,-478.7 713,-500.7 780,-500.7 780,-478.7 713,-478.7"/>
<text text-anchor="start" x="716" y="-486.4" font-family="Helvetica,sans-Serif" font-size="11.00" fill="#000000">number[38]</text>
<polygon fill="none" stroke="#000000" points="552,-456.7 552,-478.7 713,-478.7 713,-456.7 552,-456.7"/>
<text text-anchor="start" x="572" y="-463.8" font-family="Helvetica,sans-Serif" font-size="11.00" fill="#000000">ADJUSTMENT_DATE</text>
<polygon fill="none" stroke="#000000" points="713,-456.7 713,-478.7 780,-478.7 780,-456.7 713,-456.7"/>
<text text-anchor="start" x="716" y="-464.4" font-family="Helvetica,sans-Serif" font-size="11.00" fill="#000000">date[7]</text>
<polygon fill="none" stroke="#000000" points="552,-434.7 552,-456.7 713,-456.7 713,-434.7 552,-434.7"/>
<image xlink:href="../../images/primaryKeys.png" width="11px" height="12px" preserveAspectRatio="xMinYMin meet" x="557" y="-451.7"/>
<text text-anchor="start" x="572" y="-441.8" font-family="Helvetica,sans-Serif" font-size="11.00" fill="#000000">ADJUSTMENT_TYPE</text>
<polygon fill="none" stroke="#000000" points="713,-434.7 713,-456.7 780,-456.7 780,-434.7 713,-434.7"/>
<text text-anchor="start" x="715.9365" y="-442.4" font-family="Helvetica,sans-Serif" font-size="11.00" fill="#000000">varchar2[20]</text>
<polygon fill="none" stroke="#000000" points="552,-412.7 552,-434.7 713,-434.7 713,-412.7 552,-412.7"/>
<text text-anchor="start" x="572" y="-419.8" font-family="Helvetica,sans-Serif" font-size="11.00" fill="#000000">ROW_VERSION</text>
<polygon fill="none" stroke="#000000" points="713,-412.7 713,-434.7 780,-434.7 780,-412.7 713,-412.7"/>
<text text-anchor="start" x="716" y="-420.4" font-family="Helvetica,sans-Serif" font-size="11.00" fill="#000000">number[38]</text>
<polygon fill="none" stroke="#000000" points="552,-390.7 552,-412.7 713,-412.7 713,-390.7 552,-390.7"/>
<image xlink:href="../../images/primaryKeys.png" width="11px" height="12px" preserveAspectRatio="xMinYMin meet" x="557" y="-407.7"/>
<text text-anchor="start" x="568.197" y="-397.8" font-family="Helvetica,sans-Serif" font-size="11.00" fill="#000000">ADJUSTMENT_REASON_ID</text>
<polygon fill="none" stroke="#000000" points="713,-390.7 713,-412.7 780,-412.7 780,-390.7 713,-390.7"/>
<text text-anchor="start" x="716" y="-398.4" font-family="Helvetica,sans-Serif" font-size="11.00" fill="#000000">number[38]</text>
<polygon fill="none" stroke="#000000" points="552,-368.7 552,-390.7 713,-390.7 713,-368.7 552,-368.7"/>
<image xlink:href="../../images/primaryKeys.png" width="11px" height="12px" preserveAspectRatio="xMinYMin meet" x="557" y="-385.7"/>
<text text-anchor="start" x="572" y="-375.8" font-family="Helvetica,sans-Serif" font-size="11.00" fill="#000000">ADJUSTED_BY_USER_ID</text>
<polygon fill="none" stroke="#000000" points="713,-368.7 713,-390.7 780,-390.7 780,-368.7 713,-368.7"/>
<text text-anchor="start" x="716" y="-376.4" font-family="Helvetica,sans-Serif" font-size="11.00" fill="#000000">number[38]</text>
<polygon fill="none" stroke="#000000" points="552,-346.7 552,-368.7 713,-368.7 713,-346.7 552,-346.7"/>
<image xlink:href="../../images/primaryKeys.png" width="11px" height="12px" preserveAspectRatio="xMinYMin meet" x="557" y="-363.7"/>
<text text-anchor="start" x="572" y="-353.8" font-family="Helvetica,sans-Serif" font-size="11.00" fill="#000000">TRAINING_SESSION_ID</text>
<polygon fill="none" stroke="#000000" points="713,-346.7 713,-368.7 780,-368.7 780,-346.7 713,-346.7"/>
<text text-anchor="start" x="716" y="-354.4" font-family="Helvetica,sans-Serif" font-size="11.00" fill="#000000">number[38]</text>
<polygon fill="none" stroke="#000000" points="552,-324.7 552,-346.7 713,-346.7 713,-324.7 552,-324.7"/>
<text text-anchor="start" x="572" y="-331.8" font-family="Helvetica,sans-Serif" font-size="11.00" fill="#000000">CREATED_BY_USER_ID</text>
<polygon fill="none" stroke="#000000" points="713,-324.7 713,-346.7 780,-346.7 780,-324.7 713,-324.7"/>
<text text-anchor="start" x="716" y="-332.4" font-family="Helvetica,sans-Serif" font-size="11.00" fill="#000000">number[38]</text>
<polygon fill="none" stroke="#000000" points="552,-302.7 552,-324.7 713,-324.7 713,-302.7 552,-302.7"/>
<text text-anchor="start" x="572" y="-309.8" font-family="Helvetica,sans-Serif" font-size="11.00" fill="#000000">CREATED_DATETIME</text>
<polygon fill="none" stroke="#000000" points="713,-302.7 713,-324.7 780,-324.7 780,-302.7 713,-302.7"/>
<text text-anchor="start" x="716" y="-310.4" font-family="Helvetica,sans-Serif" font-size="11.00" fill="#000000">date[7]</text>
<polygon fill="none" stroke="#000000" points="552,-280.7 552,-302.7 713,-302.7 713,-280.7 552,-280.7"/>
<text text-anchor="start" x="570.0235" y="-287.8" font-family="Helvetica,sans-Serif" font-size="11.00" fill="#000000">LAST_UPDATED_USER_ID</text>
<polygon fill="none" stroke="#000000" points="713,-280.7 713,-302.7 780,-302.7 780,-280.7 713,-280.7"/>
<text text-anchor="start" x="716" y="-288.4" font-family="Helvetica,sans-Serif" font-size="11.00" fill="#000000">number[38]</text>
<polygon fill="none" stroke="#000000" points="552,-258.7 552,-280.7 713,-280.7 713,-258.7 552,-258.7"/>
<text text-anchor="start" x="566.0531" y="-265.8" font-family="Helvetica,sans-Serif" font-size="11.00" fill="#000000">LAST_UPDATED_DATETIME</text>
<polygon fill="none" stroke="#000000" points="713,-258.7 713,-280.7 780,-280.7 780,-258.7 713,-258.7"/>
<text text-anchor="start" x="716" y="-266.4" font-family="Helvetica,sans-Serif" font-size="11.00" fill="#000000">date[7]</text>
<polygon fill="#ffffff" stroke="transparent" points="552,-239.7 552,-258.7 621,-258.7 621,-239.7 552,-239.7"/>
<polygon fill="none" stroke="#000000" points="552,-239.7 552,-258.7 621,-258.7 621,-239.7 552,-239.7"/>
<text text-anchor="start" x="555" y="-245.8" font-family="Helvetica,sans-Serif" font-size="11.00" fill="#000000">&lt; 4</text>
<polygon fill="#ffffff" stroke="transparent" points="621,-239.7 621,-258.7 713,-258.7 713,-239.7 621,-239.7"/>
<polygon fill="none" stroke="#000000" points="621,-239.7 621,-258.7 713,-258.7 713,-239.7 621,-239.7"/>
<text text-anchor="start" x="671.4956" y="-245.8" font-family="Helvetica,sans-Serif" font-size="11.00" fill="#000000">77 rows</text>
<polygon fill="#ffffff" stroke="transparent" points="713,-239.7 713,-258.7 780,-258.7 780,-239.7 713,-239.7"/>
<polygon fill="none" stroke="#000000" points="713,-239.7 713,-258.7 780,-258.7 780,-239.7 713,-239.7"/>
<text text-anchor="start" x="761.4053" y="-245.8" font-family="Helvetica,sans-Serif" font-size="11.00" fill="#000000">0 &gt;</text>
<polygon fill="none" stroke="#000000" stroke-width="2" points="551,-238.7 551,-612.7 781,-612.7 781,-238.7 551,-238.7"/>
</a>
</g>
</g>
<!-- USER_ -->
<g id="node2" class="node">
<title>USER_</title>
<g id="a_node2"><a xlink:href="../../tables/USER_.html" xlink:title="USER_" target="_top">
<polygon fill="#ffffff" stroke="transparent" points="277,-38.2 277,-275.2 501,-275.2 501,-38.2 277,-38.2"/>
<polygon fill="#f5f5f5" stroke="transparent" points="277,-251.7 277,-274.7 501,-274.7 501,-251.7 277,-251.7"/>
<polygon fill="none" stroke="#000000" points="277,-251.7 277,-274.7 501,-274.7 501,-251.7 277,-251.7"/>
<text text-anchor="start" x="282" y="-260.8" font-family="Helvetica,sans-Serif" font-weight="bold" font-size="11.00" fill="#000000">USER_</text>
<text text-anchor="start" x="466.0437" y="-259.8" font-family="Helvetica,sans-Serif" font-size="11.00" fill="#000000">[table]</text>
<polygon fill="none" stroke="#000000" points="277,-229.7 277,-251.7 501,-251.7 501,-229.7 277,-229.7"/>
<image xlink:href="../../images/primaryKeys.png" width="11px" height="12px" preserveAspectRatio="xMinYMin meet" x="282" y="-246.7"/>
<text text-anchor="start" x="297" y="-236.8" font-family="Helvetica,sans-Serif" font-size="11.00" fill="#000000">USER_ID</text>
<polygon fill="none" stroke="#000000" points="277,-207.7 277,-229.7 501,-229.7 501,-207.7 277,-207.7"/>
<image xlink:href="../../images/primaryKeys.png" width="11px" height="12px" preserveAspectRatio="xMinYMin meet" x="282" y="-224.7"/>
<text text-anchor="start" x="297" y="-214.8" font-family="Helvetica,sans-Serif" font-size="11.00" fill="#000000">STAFF_ID</text>
<polygon fill="none" stroke="#000000" points="277,-185.7 277,-207.7 501,-207.7 501,-185.7 277,-185.7"/>
<image xlink:href="../../images/primaryKeys.png" width="11px" height="12px" preserveAspectRatio="xMinYMin meet" x="282" y="-202.7"/>
<text text-anchor="start" x="297" y="-192.8" font-family="Helvetica,sans-Serif" font-size="11.00" fill="#000000">PROVIDER_EMPLOYEE_ID</text>
<polygon fill="none" stroke="#000000" points="277,-163.7 277,-185.7 501,-185.7 501,-163.7 277,-163.7"/>
<image xlink:href="../../images/primaryKeys.png" width="11px" height="12px" preserveAspectRatio="xMinYMin meet" x="282" y="-180.7"/>
<text text-anchor="start" x="297" y="-170.8" font-family="Helvetica,sans-Serif" font-size="11.00" fill="#000000">DISTINGUISHED_NAME</text>
<polygon fill="none" stroke="#000000" points="277,-141.7 277,-163.7 501,-163.7 501,-141.7 277,-141.7"/>
<image xlink:href="../../images/primaryKeys.png" width="11px" height="12px" preserveAspectRatio="xMinYMin meet" x="282" y="-158.7"/>
<text text-anchor="start" x="297" y="-148.8" font-family="Helvetica,sans-Serif" font-size="11.00" fill="#000000">EXTERNAL_PROVIDER_ID</text>
<polygon fill="none" stroke="#000000" points="277,-119.7 277,-141.7 501,-141.7 501,-119.7 277,-119.7"/>
<image xlink:href="../../images/primaryKeys.png" width="11px" height="12px" preserveAspectRatio="xMinYMin meet" x="282" y="-136.7"/>
<text text-anchor="start" x="297" y="-126.8" font-family="Helvetica,sans-Serif" font-size="11.00" fill="#000000">TRAINING_SESSION_ID</text>
<polygon fill="none" stroke="#000000" points="277,-97.7 277,-119.7 501,-119.7 501,-97.7 277,-97.7"/>
<image xlink:href="../../images/primaryKeys.png" width="11px" height="12px" preserveAspectRatio="xMinYMin meet" x="282" y="-114.7"/>
<text text-anchor="start" x="297" y="-104.8" font-family="Helvetica,sans-Serif" font-size="11.00" fill="#000000">ORGANISATION_ID</text>
<polygon fill="none" stroke="#000000" points="277,-75.7 277,-97.7 501,-97.7 501,-75.7 277,-75.7"/>
<image xlink:href="../../images/primaryKeys.png" width="11px" height="12px" preserveAspectRatio="xMinYMin meet" x="282" y="-92.7"/>
<text text-anchor="start" x="297" y="-82.8" font-family="Helvetica,sans-Serif" font-size="11.00" fill="#000000">SC_PROVIDER_ID</text>
<polygon fill="none" stroke="#000000" points="277,-56.7 277,-75.7 501,-75.7 501,-56.7 277,-56.7"/>
<text text-anchor="start" x="280" y="-62.8" font-family="Helvetica,sans-Serif" font-size="11.00" fill="#000000">...</text>
<polygon fill="#ffffff" stroke="transparent" points="277,-37.7 277,-56.7 356,-56.7 356,-37.7 277,-37.7"/>
<polygon fill="none" stroke="#000000" points="277,-37.7 277,-56.7 356,-56.7 356,-37.7 277,-37.7"/>
<text text-anchor="start" x="280" y="-43.8" font-family="Helvetica,sans-Serif" font-size="11.00" fill="#000000">&lt; 5</text>
<polygon fill="#ffffff" stroke="transparent" points="356,-37.7 356,-56.7 444,-56.7 444,-37.7 356,-37.7"/>
<polygon fill="none" stroke="#000000" points="356,-37.7 356,-56.7 444,-56.7 444,-37.7 356,-37.7"/>
<text text-anchor="start" x="387.2089" y="-43.8" font-family="Helvetica,sans-Serif" font-size="11.00" fill="#000000">6,968 rows</text>
<polygon fill="#ffffff" stroke="transparent" points="444,-37.7 444,-56.7 501,-56.7 501,-37.7 444,-37.7"/>
<polygon fill="none" stroke="#000000" points="444,-37.7 444,-56.7 501,-56.7 501,-37.7 444,-37.7"/>
<text text-anchor="start" x="476.2904" y="-43.8" font-family="Helvetica,sans-Serif" font-size="11.00" fill="#000000">11 &gt;</text>
</a>
</g>
</g>
<!-- UPW_ADJUSTMENT&#45;&gt;USER_ -->
<g id="edge1" class="edge">
<title>UPW_ADJUSTMENT:w&#45;&gt;USER_:e</title>
<path fill="none" stroke="#000000" d="M537.5967,-376.5356C499.4979,-355.8454 560.8926,-240.7 501,-240.7"/>
<polygon fill="#000000" stroke="#000000" points="544.1863,-377.9833 551.2275,-383.2161 548.0932,-378.8417 552,-379.7 552,-379.7 552,-379.7 548.0932,-378.8417 552.7725,-376.1839 544.1863,-377.9833 544.1863,-377.9833"/>
<ellipse fill="none" stroke="#000000" cx="541.0609" cy="-377.2966" rx="3.2" ry="3.2"/>
</g>
<!-- R_STANDARD_REFERENCE_LIST -->
<g id="node3" class="node">
<title>R_STANDARD_REFERENCE_LIST</title>
<g id="a_node3"><a xlink:href="../../tables/R_STANDARD_REFERENCE_LIST.html" xlink:title="R_STANDARD_REFERENCE_LIST" target="_top">
<polygon fill="#ffffff" stroke="transparent" points="8,-258.2 8,-407.2 228,-407.2 228,-258.2 8,-258.2"/>
<polygon fill="#f5f5f5" stroke="transparent" points="8,-383.7 8,-406.7 228,-406.7 228,-383.7 8,-383.7"/>
<polygon fill="none" stroke="#000000" points="8,-383.7 8,-406.7 228,-406.7 228,-383.7 8,-383.7"/>
<text text-anchor="start" x="12.5842" y="-392.8" font-family="Helvetica,sans-Serif" font-weight="bold" font-size="11.00" fill="#000000">R_STANDARD_REFERENCE_LIST</text>
<text text-anchor="start" x="193.5219" y="-391.8" font-family="Helvetica,sans-Serif" font-size="11.00" fill="#000000">[table]</text>
<polygon fill="none" stroke="#000000" points="8,-361.7 8,-383.7 228,-383.7 228,-361.7 8,-361.7"/>
<image xlink:href="../../images/primaryKeys.png" width="11px" height="12px" preserveAspectRatio="xMinYMin meet" x="13" y="-378.7"/>
<text text-anchor="start" x="35.5558" y="-368.8" font-family="Helvetica,sans-Serif" font-size="11.00" fill="#000000">STANDARD_REFERENCE_LIST_ID</text>
<polygon fill="none" stroke="#000000" points="8,-339.7 8,-361.7 228,-361.7 228,-339.7 8,-339.7"/>
<image xlink:href="../../images/primaryKeys.png" width="11px" height="12px" preserveAspectRatio="xMinYMin meet" x="13" y="-356.7"/>
<text text-anchor="start" x="42" y="-346.8" font-family="Helvetica,sans-Serif" font-size="11.00" fill="#000000">CODE_VALUE</text>
<polygon fill="none" stroke="#000000" points="8,-317.7 8,-339.7 228,-339.7 228,-317.7 8,-317.7"/>
<image xlink:href="../../images/primaryKeys.png" width="11px" height="12px" preserveAspectRatio="xMinYMin meet" x="13" y="-334.7"/>
<text text-anchor="start" x="39.8337" y="-324.8" font-family="Helvetica,sans-Serif" font-size="11.00" fill="#000000">REFERENCE_DATA_MASTER_ID</text>
<polygon fill="none" stroke="#000000" points="8,-295.7 8,-317.7 228,-317.7 228,-295.7 8,-295.7"/>
<image xlink:href="../../images/primaryKeys.png" width="11px" height="12px" preserveAspectRatio="xMinYMin meet" x="13" y="-312.7"/>
<text text-anchor="start" x="42" y="-302.8" font-family="Helvetica,sans-Serif" font-size="11.00" fill="#000000">TRAINING_SESSION_ID</text>
<polygon fill="none" stroke="#000000" points="8,-276.7 8,-295.7 228,-295.7 228,-276.7 8,-276.7"/>
<text text-anchor="start" x="11" y="-282.8" font-family="Helvetica,sans-Serif" font-size="11.00" fill="#000000">...</text>
<polygon fill="#ffffff" stroke="transparent" points="8,-257.7 8,-276.7 79,-276.7 79,-257.7 8,-257.7"/>
<polygon fill="none" stroke="#000000" points="8,-257.7 8,-276.7 79,-276.7 79,-257.7 8,-257.7"/>
<text text-anchor="start" x="11" y="-263.8" font-family="Helvetica,sans-Serif" font-size="11.00" fill="#000000">&lt; 1</text>
<polygon fill="#ffffff" stroke="transparent" points="79,-257.7 79,-276.7 169,-276.7 169,-257.7 79,-257.7"/>
<polygon fill="none" stroke="#000000" points="79,-257.7 79,-276.7 169,-276.7 169,-257.7 79,-257.7"/>
<text text-anchor="start" x="106.094" y="-263.8" font-family="Helvetica,sans-Serif" font-size="11.00" fill="#000000">15,391 rows</text>
<polygon fill="#ffffff" stroke="transparent" points="169,-257.7 169,-276.7 228,-276.7 228,-257.7 169,-257.7"/>
<polygon fill="none" stroke="#000000" points="169,-257.7 169,-276.7 228,-276.7 228,-257.7 169,-257.7"/>
<text text-anchor="start" x="197.1755" y="-263.8" font-family="Helvetica,sans-Serif" font-size="11.00" fill="#000000">294 &gt;</text>
</a>
</g>
</g>
<!-- UPW_ADJUSTMENT&#45;&gt;R_STANDARD_REFERENCE_LIST -->
<g id="edge2" class="edge">
<title>UPW_ADJUSTMENT:w&#45;&gt;R_STANDARD_REFERENCE_LIST:e</title>
<path fill="none" stroke="#000000" d="M538.008,-398.1441C517.5327,-384.2624 540.732,-333.5122 509,-313.7 463.7605,-285.4541 316.2633,-288.9892 269,-313.7 240.7022,-328.495 259.932,-372.7 228,-372.7"/>
<polygon fill="#000000" stroke="#000000" points="544.2465,-399.7295 551.1133,-405.1891 548.1232,-400.7147 552,-401.7 552,-401.7 552,-401.7 548.1232,-400.7147 552.8867,-398.2109 544.2465,-399.7295 544.2465,-399.7295"/>
<ellipse fill="none" stroke="#000000" cx="541.1451" cy="-398.9413" rx="3.2" ry="3.2"/>
</g>
<!-- PARTITION_AREA -->
<g id="node4" class="node">
<title>PARTITION_AREA</title>
<g id="a_node4"><a xlink:href="../../tables/PARTITION_AREA.html" xlink:title="PARTITION_AREA" target="_top">
<polygon fill="#ffffff" stroke="transparent" points="47,-573.2 47,-678.2 189,-678.2 189,-573.2 47,-573.2"/>
<polygon fill="#f5f5f5" stroke="transparent" points="47,-654.7 47,-677.7 189,-677.7 189,-654.7 47,-654.7"/>
<polygon fill="none" stroke="#000000" points="47,-654.7 47,-677.7 189,-677.7 189,-654.7 47,-654.7"/>
<text text-anchor="start" x="52" y="-663.8" font-family="Helvetica,sans-Serif" font-weight="bold" font-size="11.00" fill="#000000">PARTITION_AREA</text>
<text text-anchor="start" x="154.0437" y="-662.8" font-family="Helvetica,sans-Serif" font-size="11.00" fill="#000000">[table]</text>
<polygon fill="none" stroke="#000000" points="47,-632.7 47,-654.7 189,-654.7 189,-632.7 47,-632.7"/>
<image xlink:href="../../images/primaryKeys.png" width="11px" height="12px" preserveAspectRatio="xMinYMin meet" x="52" y="-649.7"/>
<text text-anchor="start" x="67" y="-639.8" font-family="Helvetica,sans-Serif" font-size="11.00" fill="#000000">PARTITION_AREA_ID</text>
<polygon fill="none" stroke="#000000" points="47,-610.7 47,-632.7 189,-632.7 189,-610.7 47,-610.7"/>
<image xlink:href="../../images/primaryKeys.png" width="11px" height="12px" preserveAspectRatio="xMinYMin meet" x="52" y="-627.7"/>
<text text-anchor="start" x="63.1624" y="-617.8" font-family="Helvetica,sans-Serif" font-size="11.00" fill="#000000">TRAINING_SESSION_ID</text>
<polygon fill="none" stroke="#000000" points="47,-591.7 47,-610.7 189,-610.7 189,-591.7 47,-591.7"/>
<text text-anchor="start" x="50" y="-597.8" font-family="Helvetica,sans-Serif" font-size="11.00" fill="#000000">...</text>
<polygon fill="#ffffff" stroke="transparent" points="47,-572.7 47,-591.7 88,-591.7 88,-572.7 47,-572.7"/>
<polygon fill="none" stroke="#000000" points="47,-572.7 47,-591.7 88,-591.7 88,-572.7 47,-572.7"/>
<text text-anchor="start" x="50" y="-578.8" font-family="Helvetica,sans-Serif" font-size="11.00" fill="#000000"> &#160;</text>
<polygon fill="#ffffff" stroke="transparent" points="88,-572.7 88,-591.7 147,-591.7 147,-572.7 88,-572.7"/>
<polygon fill="none" stroke="#000000" points="88,-572.7 88,-591.7 147,-591.7 147,-572.7 88,-572.7"/>
<text text-anchor="start" x="105.4956" y="-578.8" font-family="Helvetica,sans-Serif" font-size="11.00" fill="#000000">44 rows</text>
<polygon fill="#ffffff" stroke="transparent" points="147,-572.7 147,-591.7 189,-591.7 189,-572.7 147,-572.7"/>
<polygon fill="none" stroke="#000000" points="147,-572.7 147,-591.7 189,-591.7 189,-572.7 147,-572.7"/>
<text text-anchor="start" x="164.2904" y="-578.8" font-family="Helvetica,sans-Serif" font-size="11.00" fill="#000000">82 &gt;</text>
</a>
</g>
</g>
<!-- UPW_ADJUSTMENT&#45;&gt;PARTITION_AREA -->
<g id="edge3" class="edge">
<title>UPW_ADJUSTMENT:w&#45;&gt;PARTITION_AREA:e</title>
<path fill="none" stroke="#000000" d="M537.4836,-513.3527C478.3294,-529.0603 572.8583,-652.5614 509,-703.7 425.7404,-770.3754 370.1929,-737.431 269,-703.7 226.8363,-689.6454 233.4444,-643.7 189,-643.7"/>
<polygon fill="#000000" stroke="#000000" points="544.0513,-512.605 552.4073,-515.2769 548.0257,-512.1525 552,-511.7 552,-511.7 552,-511.7 548.0257,-512.1525 551.5927,-508.1231 544.0513,-512.605 544.0513,-512.605"/>
<ellipse fill="none" stroke="#000000" cx="540.8719" cy="-512.967" rx="3.2" ry="3.2"/>
</g>
<!-- UPW_DETAILS -->
<g id="node5" class="node">
<title>UPW_DETAILS</title>
<g id="a_node5"><a xlink:href="../../tables/UPW_DETAILS.html" xlink:title="UPW_DETAILS" target="_top">
<polygon fill="#ffffff" stroke="transparent" points="308.5,-324.2 308.5,-693.2 469.5,-693.2 469.5,-324.2 308.5,-324.2"/>
<polygon fill="#f5f5f5" stroke="transparent" points="309,-669.7 309,-692.7 470,-692.7 470,-669.7 309,-669.7"/>
<polygon fill="none" stroke="#000000" points="309,-669.7 309,-692.7 470,-692.7 470,-669.7 309,-669.7"/>
<text text-anchor="start" x="314" y="-678.8" font-family="Helvetica,sans-Serif" font-weight="bold" font-size="11.00" fill="#000000">UPW_DETAILS</text>
<text text-anchor="start" x="435.0437" y="-677.8" font-family="Helvetica,sans-Serif" font-size="11.00" fill="#000000">[table]</text>
<polygon fill="none" stroke="#000000" points="309,-647.7 309,-669.7 470,-669.7 470,-647.7 309,-647.7"/>
<image xlink:href="../../images/primaryKeys.png" width="11px" height="12px" preserveAspectRatio="xMinYMin meet" x="314" y="-664.7"/>
<text text-anchor="start" x="329" y="-654.8" font-family="Helvetica,sans-Serif" font-size="11.00" fill="#000000">UPW_DETAILS_ID</text>
<polygon fill="none" stroke="#000000" points="309,-625.7 309,-647.7 470,-647.7 470,-625.7 309,-625.7"/>
<image xlink:href="../../images/primaryKeys.png" width="11px" height="12px" preserveAspectRatio="xMinYMin meet" x="314" y="-642.7"/>
<text text-anchor="start" x="329" y="-632.8" font-family="Helvetica,sans-Serif" font-size="11.00" fill="#000000">DISPOSAL_ID</text>
<polygon fill="none" stroke="#000000" points="309,-603.7 309,-625.7 470,-625.7 470,-603.7 309,-603.7"/>
<image xlink:href="../../images/primaryKeys.png" width="11px" height="12px" preserveAspectRatio="xMinYMin meet" x="314" y="-620.7"/>
<text text-anchor="start" x="329" y="-610.8" font-family="Helvetica,sans-Serif" font-size="11.00" fill="#000000">UPW_LENGTH_MINUTES</text>
<polygon fill="none" stroke="#000000" points="309,-581.7 309,-603.7 470,-603.7 470,-581.7 309,-581.7"/>
<image xlink:href="../../images/primaryKeys.png" width="11px" height="12px" preserveAspectRatio="xMinYMin meet" x="314" y="-598.7"/>
<text text-anchor="start" x="329" y="-588.8" font-family="Helvetica,sans-Serif" font-size="11.00" fill="#000000">SOFT_DELETED</text>
<polygon fill="none" stroke="#000000" points="309,-559.7 309,-581.7 470,-581.7 470,-559.7 309,-559.7"/>
<image xlink:href="../../images/primaryKeys.png" width="11px" height="12px" preserveAspectRatio="xMinYMin meet" x="314" y="-576.7"/>
<text text-anchor="start" x="329" y="-566.8" font-family="Helvetica,sans-Serif" font-size="11.00" fill="#000000">PARTITION_AREA_ID</text>
<polygon fill="none" stroke="#000000" points="309,-537.7 309,-559.7 470,-559.7 470,-537.7 309,-537.7"/>
<image xlink:href="../../images/primaryKeys.png" width="11px" height="12px" preserveAspectRatio="xMinYMin meet" x="314" y="-554.7"/>
<text text-anchor="start" x="329" y="-544.8" font-family="Helvetica,sans-Serif" font-size="11.00" fill="#000000">UPW_STATUS_ID</text>
<polygon fill="none" stroke="#000000" points="309,-515.7 309,-537.7 470,-537.7 470,-515.7 309,-515.7"/>
<image xlink:href="../../images/primaryKeys.png" width="11px" height="12px" preserveAspectRatio="xMinYMin meet" x="314" y="-532.7"/>
<text text-anchor="start" x="329" y="-522.8" font-family="Helvetica,sans-Serif" font-size="11.00" fill="#000000">WORKED_INTENSIVELY</text>
<polygon fill="none" stroke="#000000" points="309,-493.7 309,-515.7 470,-515.7 470,-493.7 309,-493.7"/>
<image xlink:href="../../images/primaryKeys.png" width="11px" height="12px" preserveAspectRatio="xMinYMin meet" x="314" y="-510.7"/>
<text text-anchor="start" x="329" y="-500.8" font-family="Helvetica,sans-Serif" font-size="11.00" fill="#000000">TRAINING_SESSION_ID</text>
<polygon fill="none" stroke="#000000" points="309,-471.7 309,-493.7 470,-493.7 470,-471.7 309,-471.7"/>
<image xlink:href="../../images/primaryKeys.png" width="11px" height="12px" preserveAspectRatio="xMinYMin meet" x="314" y="-488.7"/>
<text text-anchor="start" x="329" y="-478.8" font-family="Helvetica,sans-Serif" font-size="11.00" fill="#000000">OFFENDER_ID</text>
<polygon fill="none" stroke="#000000" points="309,-449.7 309,-471.7 470,-471.7 470,-449.7 309,-449.7"/>
<image xlink:href="../../images/primaryKeys.png" width="11px" height="12px" preserveAspectRatio="xMinYMin meet" x="314" y="-466.7"/>
<text text-anchor="start" x="329" y="-456.8" font-family="Helvetica,sans-Serif" font-size="11.00" fill="#000000">TEAM_ID</text>
<polygon fill="none" stroke="#000000" points="309,-427.7 309,-449.7 470,-449.7 470,-427.7 309,-427.7"/>
<image xlink:href="../../images/primaryKeys.png" width="11px" height="12px" preserveAspectRatio="xMinYMin meet" x="314" y="-444.7"/>
<text text-anchor="start" x="329" y="-434.8" font-family="Helvetica,sans-Serif" font-size="11.00" fill="#000000">PROVIDER_TEAM_ID</text>
<polygon fill="none" stroke="#000000" points="309,-405.7 309,-427.7 470,-427.7 470,-405.7 309,-405.7"/>
<image xlink:href="../../images/primaryKeys.png" width="11px" height="12px" preserveAspectRatio="xMinYMin meet" x="314" y="-422.7"/>
<text text-anchor="start" x="329" y="-412.8" font-family="Helvetica,sans-Serif" font-size="11.00" fill="#000000">STAFF_ID</text>
<polygon fill="none" stroke="#000000" points="309,-383.7 309,-405.7 470,-405.7 470,-383.7 309,-383.7"/>
<image xlink:href="../../images/primaryKeys.png" width="11px" height="12px" preserveAspectRatio="xMinYMin meet" x="314" y="-400.7"/>
<text text-anchor="start" x="326.4075" y="-390.8" font-family="Helvetica,sans-Serif" font-size="11.00" fill="#000000">PROVIDER_EMPLOYEE_ID</text>
<polygon fill="none" stroke="#000000" points="309,-361.7 309,-383.7 470,-383.7 470,-361.7 309,-361.7"/>
<image xlink:href="../../images/foreignKeys.png" width="11px" height="12px" preserveAspectRatio="xMinYMin meet" x="314" y="-378.7"/>
<text text-anchor="start" x="324.279" y="-368.8" font-family="Helvetica,sans-Serif" font-size="11.00" fill="#000000">UPW_STATUS_CHANGE_ID</text>
<polygon fill="none" stroke="#000000" points="309,-342.7 309,-361.7 470,-361.7 470,-342.7 309,-342.7"/>
<text text-anchor="start" x="312" y="-348.8" font-family="Helvetica,sans-Serif" font-size="11.00" fill="#000000">...</text>
<polygon fill="#ffffff" stroke="transparent" points="309,-323.7 309,-342.7 360,-342.7 360,-323.7 309,-323.7"/>
<polygon fill="none" stroke="#000000" points="309,-323.7 309,-342.7 360,-342.7 360,-323.7 309,-323.7"/>
<text text-anchor="start" x="312" y="-329.8" font-family="Helvetica,sans-Serif" font-size="11.00" fill="#000000">&lt; 9</text>
<polygon fill="#ffffff" stroke="transparent" points="360,-323.7 360,-342.7 434,-342.7 434,-323.7 360,-323.7"/>
<polygon fill="none" stroke="#000000" points="360,-323.7 360,-342.7 434,-342.7 434,-323.7 360,-323.7"/>
<text text-anchor="start" x="377.2089" y="-329.8" font-family="Helvetica,sans-Serif" font-size="11.00" fill="#000000">2,669 rows</text>
<polygon fill="#ffffff" stroke="transparent" points="434,-323.7 434,-342.7 470,-342.7 470,-323.7 434,-323.7"/>
<polygon fill="none" stroke="#000000" points="434,-323.7 434,-342.7 470,-342.7 470,-323.7 434,-323.7"/>
<text text-anchor="start" x="451.4053" y="-329.8" font-family="Helvetica,sans-Serif" font-size="11.00" fill="#000000">4 &gt;</text>
</a>
</g>
</g>
<!-- UPW_ADJUSTMENT&#45;&gt;UPW_DETAILS -->
<g id="edge4" class="edge">
<title>UPW_ADJUSTMENT:w&#45;&gt;UPW_DETAILS:e</title>
<path fill="none" stroke="#000000" d="M537.3594,-558.455C499.4358,-574.8349 522.7991,-658.7 470,-658.7"/>
<polygon fill="#000000" stroke="#000000" points="544.138,-557.1795 552.6658,-559.2379 548.069,-556.4397 552,-555.7 552,-555.7 552,-555.7 548.069,-556.4397 551.3342,-552.1621 544.138,-557.1795 544.138,-557.1795"/>
<ellipse fill="none" stroke="#000000" cx="540.9932" cy="-557.7713" rx="3.2" ry="3.2"/>
</g>
<!-- UPW_DETAILS&#45;&gt;R_STANDARD_REFERENCE_LIST -->
<g id="edge6" class="edge">
<title>UPW_DETAILS:w&#45;&gt;R_STANDARD_REFERENCE_LIST:e</title>
<path fill="none" stroke="#000000" d="M294.5769,-372.7C269.7332,-372.7 258.6563,-372.7 228,-372.7"/>
<polygon fill="#000000" stroke="#000000" points="301,-372.7001 309,-376.3 305,-372.7 309,-372.7 309,-372.7 309,-372.7 305,-372.7 309,-369.1 301,-372.7001 301,-372.7001"/>
<ellipse fill="none" stroke="#000000" cx="297.8" cy="-372.7001" rx="3.2" ry="3.2"/>
</g>
<!-- UPW_DETAILS&#45;&gt;R_STANDARD_REFERENCE_LIST -->
<g id="edge7" class="edge">
<title>UPW_DETAILS:w&#45;&gt;R_STANDARD_REFERENCE_LIST:e</title>
<path fill="none" stroke="#000000" d="M294.4651,-546.6008C233.9131,-526.7436 308.5588,-372.7 228,-372.7"/>
<polygon fill="#000000" stroke="#000000" points="301.0821,-547.5564 308.4854,-552.263 305.0411,-548.1282 309,-548.7 309,-548.7 309,-548.7 305.0411,-548.1282 309.5146,-545.137 301.0821,-547.5564 301.0821,-547.5564"/>
<ellipse fill="none" stroke="#000000" cx="297.915" cy="-547.099" rx="3.2" ry="3.2"/>
</g>
<!-- UPW_DETAILS&#45;&gt;PARTITION_AREA -->
<g id="edge5" class="edge">
<title>UPW_DETAILS:w&#45;&gt;PARTITION_AREA:e</title>
<path fill="none" stroke="#000000" d="M294.6154,-572.1582C246.914,-582.4468 246.1838,-643.7 189,-643.7"/>
<polygon fill="#000000" stroke="#000000" points="301.0408,-571.5069 309.3631,-574.2816 305.0204,-571.1034 309,-570.7 309,-570.7 309,-570.7 305.0204,-571.1034 308.6369,-567.1184 301.0408,-571.5069 301.0408,-571.5069"/>
<ellipse fill="none" stroke="#000000" cx="297.8571" cy="-571.8296" rx="3.2" ry="3.2"/>
</g>
</g>
</svg>
