<?xml version="1.0" encoding="UTF-8" standalone="no"?>
<!DOCTYPE svg PUBLIC "-//W3C//DTD SVG 1.1//EN"
 "http://www.w3.org/Graphics/SVG/1.1/DTD/svg11.dtd">
<!-- Generated by graphviz version 2.40.1 (20161225.0304)
 -->
<!-- Title: oneDegreeRelationshipsDiagram Pages: 1 -->
<svg width="523pt" height="333pt"
 viewBox="0.00 0.00 523.00 332.70" xmlns="http://www.w3.org/2000/svg" xmlns:xlink="http://www.w3.org/1999/xlink">
<g id="graph0" class="graph" transform="scale(1 1) rotate(0) translate(4 328.7)">
<title>oneDegreeRelationshipsDiagram</title>
<polygon fill="#ffffff" stroke="transparent" points="-4,4 -4,-328.7 519,-328.7 519,4 -4,4"/>
<text text-anchor="middle" x="72.4936" y="-7.3" font-family="Helvetica,sans-Serif" font-size="11.00" fill="#000000">Generated by SchemaSpy</text>
<!-- USER_NOTE -->
<g id="node1" class="node">
<title>USER_NOTE</title>
<g id="a_node1"><a xlink:href="../../tables/USER_NOTE.html" xlink:title="USER_NOTE" target="_top">
<polygon fill="#ffffff" stroke="transparent" points="281,-142.7 281,-320.7 507,-320.7 507,-142.7 281,-142.7"/>
<polygon fill="#f5f5f5" stroke="transparent" points="283,-295.7 283,-318.7 505,-318.7 505,-295.7 283,-295.7"/>
<polygon fill="none" stroke="#000000" points="283,-295.7 283,-318.7 505,-318.7 505,-295.7 283,-295.7"/>
<text text-anchor="start" x="288" y="-304.8" font-family="Helvetica,sans-Serif" font-weight="bold" font-size="11.00" fill="#000000">USER_NOTE</text>
<text text-anchor="start" x="470.0437" y="-303.8" font-family="Helvetica,sans-Serif" font-size="11.00" fill="#000000">[table]</text>
<polygon fill="none" stroke="#000000" points="283,-273.7 283,-295.7 444,-295.7 444,-273.7 283,-273.7"/>
<image xlink:href="../../images/primaryKeys.png" width="11px" height="12px" preserveAspectRatio="xMinYMin meet" x="288" y="-290.7"/>
<text text-anchor="start" x="303" y="-280.8" font-family="Helvetica,sans-Serif" font-size="11.00" fill="#000000">USER_NOTE_ID</text>
<polygon fill="none" stroke="#000000" points="444,-273.7 444,-295.7 505,-295.7 505,-273.7 444,-273.7"/>
<text text-anchor="start" x="446.6865" y="-281.4" font-family="Helvetica,sans-Serif" font-size="11.00" fill="#000000">number[38]</text>
<polygon fill="none" stroke="#000000" points="283,-251.7 283,-273.7 444,-273.7 444,-251.7 283,-251.7"/>
<image xlink:href="../../images/primaryKeys.png" width="11px" height="12px" preserveAspectRatio="xMinYMin meet" x="288" y="-268.7"/>
<text text-anchor="start" x="303" y="-258.8" font-family="Helvetica,sans-Serif" font-size="11.00" fill="#000000">USER_ID</text>
<polygon fill="none" stroke="#000000" points="444,-251.7 444,-273.7 505,-273.7 505,-251.7 444,-251.7"/>
<text text-anchor="start" x="446.6865" y="-259.4" font-family="Helvetica,sans-Serif" font-size="11.00" fill="#000000">number[38]</text>
<polygon fill="none" stroke="#000000" points="283,-229.7 283,-251.7 444,-251.7 444,-229.7 283,-229.7"/>
<text text-anchor="start" x="303" y="-236.8" font-family="Helvetica,sans-Serif" font-size="11.00" fill="#000000">ROW_VERSION</text>
<polygon fill="none" stroke="#000000" points="444,-229.7 444,-251.7 505,-251.7 505,-229.7 444,-229.7"/>
<text text-anchor="start" x="446.6865" y="-237.4" font-family="Helvetica,sans-Serif" font-size="11.00" fill="#000000">number[38]</text>
<polygon fill="none" stroke="#000000" points="283,-207.7 283,-229.7 444,-229.7 444,-207.7 283,-207.7"/>
<image xlink:href="../../images/primaryKeys.png" width="11px" height="12px" preserveAspectRatio="xMinYMin meet" x="288" y="-224.7"/>
<text text-anchor="start" x="301.0235" y="-214.8" font-family="Helvetica,sans-Serif" font-size="11.00" fill="#000000">LAST_UPDATED_USER_ID</text>
<polygon fill="none" stroke="#000000" points="444,-207.7 444,-229.7 505,-229.7 505,-207.7 444,-207.7"/>
<text text-anchor="start" x="446.6865" y="-215.4" font-family="Helvetica,sans-Serif" font-size="11.00" fill="#000000">number[38]</text>
<polygon fill="none" stroke="#000000" points="283,-185.7 283,-207.7 444,-207.7 444,-185.7 283,-185.7"/>
<text text-anchor="start" x="297.0531" y="-192.8" font-family="Helvetica,sans-Serif" font-size="11.00" fill="#000000">LAST_UPDATED_DATETIME</text>
<polygon fill="none" stroke="#000000" points="444,-185.7 444,-207.7 505,-207.7 505,-185.7 444,-185.7"/>
<text text-anchor="start" x="447" y="-193.4" font-family="Helvetica,sans-Serif" font-size="11.00" fill="#000000">date[7]</text>
<polygon fill="none" stroke="#000000" points="283,-163.7 283,-185.7 444,-185.7 444,-163.7 283,-163.7"/>
<text text-anchor="start" x="303" y="-170.8" font-family="Helvetica,sans-Serif" font-size="11.00" fill="#000000">NOTES</text>
<polygon fill="none" stroke="#000000" points="444,-163.7 444,-185.7 505,-185.7 505,-163.7 444,-163.7"/>
<text text-anchor="start" x="447" y="-171.4" font-family="Helvetica,sans-Serif" font-size="11.00" fill="#000000">clob[4000]</text>
<polygon fill="#ffffff" stroke="transparent" points="283,-144.7 283,-163.7 349,-163.7 349,-144.7 283,-144.7"/>
<polygon fill="none" stroke="#000000" points="283,-144.7 283,-163.7 349,-163.7 349,-144.7 283,-144.7"/>
<text text-anchor="start" x="286" y="-150.8" font-family="Helvetica,sans-Serif" font-size="11.00" fill="#000000">&lt; 2</text>
<polygon fill="#ffffff" stroke="transparent" points="349,-144.7 349,-163.7 444,-163.7 444,-144.7 349,-144.7"/>
<polygon fill="none" stroke="#000000" points="349,-144.7 349,-163.7 444,-163.7 444,-144.7 349,-144.7"/>
<text text-anchor="start" x="396.3807" y="-150.8" font-family="Helvetica,sans-Serif" font-size="11.00" fill="#000000">235 rows</text>
<polygon fill="#ffffff" stroke="transparent" points="444,-144.7 444,-163.7 505,-163.7 505,-144.7 444,-144.7"/>
<polygon fill="none" stroke="#000000" points="444,-144.7 444,-163.7 505,-163.7 505,-144.7 444,-144.7"/>
<text text-anchor="start" x="486.4053" y="-150.8" font-family="Helvetica,sans-Serif" font-size="11.00" fill="#000000">0 &gt;</text>
<polygon fill="none" stroke="#000000" stroke-width="2" points="282,-143.7 282,-319.7 506,-319.7 506,-143.7 282,-143.7"/>
</a>
</g>
</g>
<!-- USER_ -->
<g id="node2" class="node">
<title>USER_</title>
<g id="a_node2"><a xlink:href="../../tables/USER_.html" xlink:title="USER_" target="_top">
<polygon fill="#ffffff" stroke="transparent" points="8,-38.2 8,-275.2 232,-275.2 232,-38.2 8,-38.2"/>
<polygon fill="#f5f5f5" stroke="transparent" points="8,-251.7 8,-274.7 232,-274.7 232,-251.7 8,-251.7"/>
<polygon fill="none" stroke="#000000" points="8,-251.7 8,-274.7 232,-274.7 232,-251.7 8,-251.7"/>
<text text-anchor="start" x="13" y="-260.8" font-family="Helvetica,sans-Serif" font-weight="bold" font-size="11.00" fill="#000000">USER_</text>
<text text-anchor="start" x="197.0437" y="-259.8" font-family="Helvetica,sans-Serif" font-size="11.00" fill="#000000">[table]</text>
<polygon fill="none" stroke="#000000" points="8,-229.7 8,-251.7 232,-251.7 232,-229.7 8,-229.7"/>
<image xlink:href="../../images/primaryKeys.png" width="11px" height="12px" preserveAspectRatio="xMinYMin meet" x="13" y="-246.7"/>
<text text-anchor="start" x="28" y="-236.8" font-family="Helvetica,sans-Serif" font-size="11.00" fill="#000000">USER_ID</text>
<polygon fill="none" stroke="#000000" points="8,-207.7 8,-229.7 232,-229.7 232,-207.7 8,-207.7"/>
<image xlink:href="../../images/primaryKeys.png" width="11px" height="12px" preserveAspectRatio="xMinYMin meet" x="13" y="-224.7"/>
<text text-anchor="start" x="28" y="-214.8" font-family="Helvetica,sans-Serif" font-size="11.00" fill="#000000">STAFF_ID</text>
<polygon fill="none" stroke="#000000" points="8,-185.7 8,-207.7 232,-207.7 232,-185.7 8,-185.7"/>
<image xlink:href="../../images/primaryKeys.png" width="11px" height="12px" preserveAspectRatio="xMinYMin meet" x="13" y="-202.7"/>
<text text-anchor="start" x="28" y="-192.8" font-family="Helvetica,sans-Serif" font-size="11.00" fill="#000000">PROVIDER_EMPLOYEE_ID</text>
<polygon fill="none" stroke="#000000" points="8,-163.7 8,-185.7 232,-185.7 232,-163.7 8,-163.7"/>
<image xlink:href="../../images/primaryKeys.png" width="11px" height="12px" preserveAspectRatio="xMinYMin meet" x="13" y="-180.7"/>
<text text-anchor="start" x="28" y="-170.8" font-family="Helvetica,sans-Serif" font-size="11.00" fill="#000000">DISTINGUISHED_NAME</text>
<polygon fill="none" stroke="#000000" points="8,-141.7 8,-163.7 232,-163.7 232,-141.7 8,-141.7"/>
<image xlink:href="../../images/primaryKeys.png" width="11px" height="12px" preserveAspectRatio="xMinYMin meet" x="13" y="-158.7"/>
<text text-anchor="start" x="28" y="-148.8" font-family="Helvetica,sans-Serif" font-size="11.00" fill="#000000">EXTERNAL_PROVIDER_ID</text>
<polygon fill="none" stroke="#000000" points="8,-119.7 8,-141.7 232,-141.7 232,-119.7 8,-119.7"/>
<image xlink:href="../../images/primaryKeys.png" width="11px" height="12px" preserveAspectRatio="xMinYMin meet" x="13" y="-136.7"/>
<text text-anchor="start" x="28" y="-126.8" font-family="Helvetica,sans-Serif" font-size="11.00" fill="#000000">TRAINING_SESSION_ID</text>
<polygon fill="none" stroke="#000000" points="8,-97.7 8,-119.7 232,-119.7 232,-97.7 8,-97.7"/>
<image xlink:href="../../images/primaryKeys.png" width="11px" height="12px" preserveAspectRatio="xMinYMin meet" x="13" y="-114.7"/>
<text text-anchor="start" x="28" y="-104.8" font-family="Helvetica,sans-Serif" font-size="11.00" fill="#000000">ORGANISATION_ID</text>
<polygon fill="none" stroke="#000000" points="8,-75.7 8,-97.7 232,-97.7 232,-75.7 8,-75.7"/>
<image xlink:href="../../images/primaryKeys.png" width="11px" height="12px" preserveAspectRatio="xMinYMin meet" x="13" y="-92.7"/>
<text text-anchor="start" x="28" y="-82.8" font-family="Helvetica,sans-Serif" font-size="11.00" fill="#000000">SC_PROVIDER_ID</text>
<polygon fill="none" stroke="#000000" points="8,-56.7 8,-75.7 232,-75.7 232,-56.7 8,-56.7"/>
<text text-anchor="start" x="11" y="-62.8" font-family="Helvetica,sans-Serif" font-size="11.00" fill="#000000">...</text>
<polygon fill="#ffffff" stroke="transparent" points="8,-37.7 8,-56.7 87,-56.7 87,-37.7 8,-37.7"/>
<polygon fill="none" stroke="#000000" points="8,-37.7 8,-56.7 87,-56.7 87,-37.7 8,-37.7"/>
<text text-anchor="start" x="11" y="-43.8" font-family="Helvetica,sans-Serif" font-size="11.00" fill="#000000">&lt; 5</text>
<polygon fill="#ffffff" stroke="transparent" points="87,-37.7 87,-56.7 175,-56.7 175,-37.7 87,-37.7"/>
<polygon fill="none" stroke="#000000" points="87,-37.7 87,-56.7 175,-56.7 175,-37.7 87,-37.7"/>
<text text-anchor="start" x="118.2089" y="-43.8" font-family="Helvetica,sans-Serif" font-size="11.00" fill="#000000">6,968 rows</text>
<polygon fill="#ffffff" stroke="transparent" points="175,-37.7 175,-56.7 232,-56.7 232,-37.7 175,-37.7"/>
<polygon fill="none" stroke="#000000" points="175,-37.7 175,-56.7 232,-56.7 232,-37.7 175,-37.7"/>
<text text-anchor="start" x="207.2904" y="-43.8" font-family="Helvetica,sans-Serif" font-size="11.00" fill="#000000">11 &gt;</text>
</a>
</g>
</g>
<!-- USER_NOTE&#45;&gt;USER_ -->
<g id="edge1" class="edge">
<title>USER_NOTE:w&#45;&gt;USER_:e</title>
<path fill="none" stroke="#000000" d="M268.8489,-221.759C256.2843,-227.804 250.9,-240.7 232,-240.7"/>
<polygon fill="#000000" stroke="#000000" points="275.1806,-220.3903 283.7607,-222.2187 279.0903,-219.5452 283,-218.7 283,-218.7 283,-218.7 279.0903,-219.5452 282.2393,-215.1813 275.1806,-220.3903 275.1806,-220.3903"/>
<ellipse fill="none" stroke="#000000" cx="272.0528" cy="-221.0665" rx="3.2" ry="3.2"/>
</g>
<!-- USER_NOTE&#45;&gt;USER_ -->
<g id="edge2" class="edge">
<title>USER_NOTE:w&#45;&gt;USER_:e</title>
<path fill="none" stroke="#000000" d="M268.8489,-259.641C256.2843,-253.596 250.9,-240.7 232,-240.7"/>
<polygon fill="#000000" stroke="#000000" points="275.1806,-261.0097 282.2393,-266.2187 279.0903,-261.8548 283,-262.7 283,-262.7 283,-262.7 279.0903,-261.8548 283.7607,-259.1813 275.1806,-261.0097 275.1806,-261.0097"/>
<ellipse fill="none" stroke="#000000" cx="272.0528" cy="-260.3335" rx="3.2" ry="3.2"/>
</g>
</g>
</svg>
